<svg width="360" height="180" viewBox="0 0 360 180" fill="none" xmlns="http://www.w3.org/2000/svg">
<rect width="360" height="180" fill="url(#paint0_linear_19413_16783)"/>
<g filter="url(#filter0_b_19413_16783)">
<rect x="128" y="35" width="104" height="110" rx="20" fill="url(#paint1_linear_19413_16783)" fill-opacity="0.6"/>
<rect x="128.301" y="35.3009" width="103.398" height="109.398" rx="19.6991" stroke="url(#paint2_linear_19413_16783)" stroke-width="0.6018"/>
<g filter="url(#filter1_dd_19413_16783)">
<path fill-rule="evenodd" clip-rule="evenodd" d="M212.187 74.8616C212.187 74.0974 212.188 73.3331 212.183 72.5688C212.179 71.925 212.172 71.2813 212.154 70.6378C212.117 69.2352 212.034 67.8206 211.784 66.4337C211.531 65.0267 211.118 63.7173 210.467 62.4389C209.827 61.1824 208.991 60.0327 207.994 59.0359C206.997 58.0391 205.846 57.2036 204.589 56.564C203.31 55.9129 201.999 55.4999 200.59 55.247C199.203 54.9979 197.788 54.9154 196.386 54.8775C195.742 54.86 195.098 54.8527 194.454 54.8487C193.689 54.844 192.924 54.8444 192.16 54.8444L183.281 54.8126H176.64L167.919 54.8444C167.153 54.8444 166.387 54.844 165.62 54.8487C164.975 54.8527 164.33 54.86 163.684 54.8775C162.279 54.9154 160.86 54.998 159.47 55.2474C158.06 55.5002 156.747 55.913 155.465 56.5637C154.206 57.2034 153.053 58.0389 152.054 59.0359C151.055 60.0326 150.217 61.1821 149.576 62.4384C148.923 63.7174 148.509 65.0276 148.256 66.4353C148.006 67.8217 147.923 69.2358 147.885 70.6378C147.868 71.2814 147.86 71.9251 147.856 72.5688C147.852 73.3332 147.812 74.2826 147.812 75.0469L147.813 83.6477L147.812 90.3594L147.852 99.1428C147.852 99.9082 147.852 100.673 147.856 101.439C147.86 102.083 147.868 102.728 147.885 103.372C147.923 104.777 148.006 106.193 148.256 107.582C148.51 108.991 148.923 110.302 149.576 111.582C150.217 112.841 151.055 113.992 152.054 114.99C153.053 115.988 154.205 116.825 155.465 117.465C156.747 118.117 158.06 118.531 159.472 118.784C160.861 119.034 162.279 119.116 163.684 119.154C164.33 119.172 164.975 119.179 165.62 119.183C166.387 119.188 167.153 119.187 167.919 119.187L176.719 119.188H183.376L192.16 119.187C192.924 119.187 193.689 119.188 194.454 119.183C195.098 119.179 195.742 119.172 196.386 119.154C197.789 119.116 199.204 119.033 200.592 118.784C202 118.531 203.31 118.117 204.589 117.466C205.846 116.825 206.996 115.988 207.994 114.99C208.991 113.992 209.827 112.841 210.467 111.583C211.118 110.302 211.532 108.99 211.785 107.581C212.034 106.192 212.117 104.776 212.154 103.372C212.172 102.728 212.179 102.083 212.183 101.439C212.188 100.673 212.187 99.9082 212.187 99.1428C212.187 99.1428 212.187 90.5144 212.187 90.3594V83.6406C212.187 83.5261 212.187 74.8616 212.187 74.8616Z" fill="url(#paint3_linear_19413_16783)"/>
</g>
<path d="M160.5 72.3036C160.5 69.0983 163.098 66.5 166.304 66.5H193.696C196.902 66.5 199.5 69.0983 199.5 72.3036V99.6964C199.5 102.902 196.902 105.5 193.696 105.5H166.304C163.098 105.5 160.5 102.902 160.5 99.6964V72.3036Z" fill="url(#paint4_radial_19413_16783)"/>
<path d="M180 66.5H189.75V76.25H180V66.5Z" fill="#85D4F5"/>
<path d="M189.747 66.5H193.693C196.899 66.5 199.497 69.0983 199.497 72.3036V76.25H189.747V66.5Z" fill="#D6F1FC"/>
<path d="M189.747 76.25H199.497V86H189.747V76.25Z" fill="#85D4F5"/>
<path fill-rule="evenodd" clip-rule="evenodd" d="M181.627 97.375C181.627 98.2725 180.899 99 180.002 99H168.627C167.73 99 167.002 98.2725 167.002 97.375C167.002 96.4775 167.73 95.75 168.627 95.75H180.002C180.899 95.75 181.627 96.4775 181.627 97.375Z" fill="white"/>
<path fill-rule="evenodd" clip-rule="evenodd" d="M176.752 90.8738C176.752 91.7713 176.024 92.4988 175.127 92.4988H168.627C167.73 92.4988 167.002 91.7713 167.002 90.8738C167.002 89.9764 167.73 89.2488 168.627 89.2488H175.127C176.024 89.2488 176.752 89.9764 176.752 90.8738Z" fill="white"/>
<g filter="url(#filter2_b_19413_16783)">
<circle cx="180" cy="130" r="3" fill="white"/>
</g>
<rect x="196.512" y="43" width="26.9749" height="26.9749" rx="13.4874" fill="#EA3556"/>
<path d="M207.999 63.1541C207.822 63.1541 207.653 63.0839 207.528 62.9589C207.403 62.8338 207.333 62.6643 207.333 62.4875V60.4875H204.666C204.312 60.4875 203.973 60.347 203.723 60.0969C203.473 59.8469 203.333 59.5078 203.333 59.1541V51.1541C203.333 50.4141 203.933 49.8208 204.666 49.8208H215.333C215.686 49.8208 216.025 49.9613 216.275 50.2113C216.525 50.4614 216.666 50.8005 216.666 51.1541V59.1541C216.666 59.5078 216.525 59.8469 216.275 60.0969C216.025 60.347 215.686 60.4875 215.333 60.4875H211.266L208.799 62.9608C208.666 63.0875 208.499 63.1541 208.333 63.1541H207.999Z" fill="white"/>
</g>
<path d="M104.548 30.6106L103.395 33.4933C103.231 33.9046 102.905 34.2306 102.493 34.3951L99.6106 35.5482C98.7965 35.8738 98.7965 37.0262 99.6106 37.3518L102.493 38.5049C102.905 38.6694 103.231 38.9954 103.395 39.4067L104.548 42.2894C104.874 43.1035 106.026 43.1035 106.352 42.2894L107.505 39.4067C107.669 38.9954 107.995 38.6694 108.407 38.5049L111.289 37.3518C112.104 37.0262 112.104 35.8738 111.289 35.5482L108.407 34.3951C107.995 34.2306 107.669 33.9046 107.505 33.4933L106.352 30.6106C106.026 29.7965 104.874 29.7965 104.548 30.6106Z" fill="white"/>
<path d="M92.2257 56.3408L91.5553 57.9497C91.4596 58.1793 91.2701 58.3612 91.031 58.4531L89.355 59.0967C88.8817 59.2784 88.8817 59.9216 89.355 60.1033L91.031 60.7469C91.2701 60.8388 91.4596 61.0207 91.5553 61.2503L92.2257 62.8592C92.415 63.3136 93.085 63.3136 93.2743 62.8592L93.9447 61.2503C94.0404 61.0207 94.2299 60.8388 94.469 60.7469L96.145 60.1033C96.6183 59.9216 96.6183 59.2784 96.145 59.0967L94.469 58.4531C94.2299 58.3612 94.0404 58.1793 93.9447 57.9497L93.2743 56.3408C93.085 55.8864 92.415 55.8864 92.2257 56.3408Z" fill="white"/>
<defs>
<filter id="filter0_b_19413_16783" x="60.5984" y="-32.4016" width="238.803" height="244.803" filterUnits="userSpaceOnUse" color-interpolation-filters="sRGB">
<feFlood flood-opacity="0" result="BackgroundImageFix"/>
<feGaussianBlur in="BackgroundImageFix" stdDeviation="33.7008"/>
<feComposite in2="SourceAlpha" operator="in" result="effect1_backgroundBlur_19413_16783"/>
<feBlend mode="normal" in="SourceGraphic" in2="effect1_backgroundBlur_19413_16783" result="shape"/>
</filter>
<filter id="filter1_dd_19413_16783" x="137.901" y="49.1489" width="84.198" height="84.198" filterUnits="userSpaceOnUse" color-interpolation-filters="sRGB">
<feFlood flood-opacity="0" result="BackgroundImageFix"/>
<feColorMatrix in="SourceAlpha" type="matrix" values="0 0 0 0 0 0 0 0 0 0 0 0 0 0 0 0 0 0 127 0" result="hardAlpha"/>
<feOffset dy="1.41593"/>
<feGaussianBlur stdDeviation="0.707965"/>
<feColorMatrix type="matrix" values="0 0 0 0 0 0 0 0 0 0 0 0 0 0 0 0 0 0 0.17 0"/>
<feBlend mode="normal" in2="BackgroundImageFix" result="effect1_dropShadow_19413_16783"/>
<feColorMatrix in="SourceAlpha" type="matrix" values="0 0 0 0 0 0 0 0 0 0 0 0 0 0 0 0 0 0 127 0" result="hardAlpha"/>
<feOffset dy="4.24779"/>
<feGaussianBlur stdDeviation="4.95575"/>
<feColorMatrix type="matrix" values="0 0 0 0 0 0 0 0 0 0 0 0 0 0 0 0 0 0 0.1 0"/>
<feBlend mode="normal" in2="effect1_dropShadow_19413_16783" result="effect2_dropShadow_19413_16783"/>
<feBlend mode="normal" in="SourceGraphic" in2="effect2_dropShadow_19413_16783" result="shape"/>
</filter>
<filter id="filter2_b_19413_16783" x="149.613" y="99.6128" width="60.7743" height="60.7743" filterUnits="userSpaceOnUse" color-interpolation-filters="sRGB">
<feFlood flood-opacity="0" result="BackgroundImageFix"/>
<feGaussianBlur in="BackgroundImageFix" stdDeviation="13.6936"/>
<feComposite in2="SourceAlpha" operator="in" result="effect1_backgroundBlur_19413_16783"/>
<feBlend mode="normal" in="SourceGraphic" in2="effect1_backgroundBlur_19413_16783" result="shape"/>
</filter>
<linearGradient id="paint0_linear_19413_16783" x1="-2.34693e-06" y1="3.36449" x2="82.346" y2="264.232" gradientUnits="userSpaceOnUse">
<stop stop-color="#5048B1"/>
<stop offset="1" stop-color="#34B8EE"/>
</linearGradient>
<linearGradient id="paint1_linear_19413_16783" x1="141.667" y1="22.1068" x2="220.056" y2="83.1585" gradientUnits="userSpaceOnUse">
<stop stop-color="white" stop-opacity="0.13"/>
<stop offset="1" stop-color="white" stop-opacity="0.71"/>
</linearGradient>
<linearGradient id="paint2_linear_19413_16783" x1="155.94" y1="29.878" x2="252.656" y2="59.9982" gradientUnits="userSpaceOnUse">
<stop stop-color="white" stop-opacity="0.4"/>
<stop offset="1" stop-color="#F4B0FF" stop-opacity="0.76"/>
</linearGradient>
<linearGradient id="paint3_linear_19413_16783" x1="125.848" y1="54.8126" x2="125.848" y2="163.116" gradientUnits="userSpaceOnUse">
<stop stop-color="white"/>
<stop offset="0.489516" stop-color="#EFEFEF"/>
<stop offset="1" stop-color="#C0C0C0"/>
</linearGradient>
<radialGradient id="paint4_radial_19413_16783" cx="0" cy="0" r="1" gradientUnits="userSpaceOnUse" gradientTransform="translate(157.803 113.289) rotate(-53.1504) scale(46.021)">
<stop stop-color="#6D4AFF"/>
<stop offset="1" stop-color="#34B8EE"/>
</radialGradient>
</defs>
</svg>
