<svg width="70" height="70" viewBox="0 0 70 70" fill="none" xmlns="http://www.w3.org/2000/svg">
    <g filter="url(#filter0_d_1_1165)">
        <g clip-path="url(#clip0_1_1165)">
            <path
                d="M10 24.2857C10 16.3959 16.3959 10 24.2857 10L45.7143 10C53.6041 10 60 16.3959 60 24.2857V45.7143C60 53.6041 53.6041 60 45.7143 60H24.2857C16.3959 60 10 53.6041 10 45.7143L10 24.2857Z"
                fill="url(#paint0_linear_1_1165)"
                fill-opacity="0.2"
            />
            <g clip-path="url(#clip1_1_1165)">
                <rect x="10" y="10" width="50" height="50" fill="white" />
                <rect x="10" y="10" width="50" height="50" fill="url(#paint1_linear_1_1165)" fill-opacity="0.25" />
                <g clip-path="url(#clip2_1_1165)">
                    <path
                        d="M18.879 18.6371C17.8106 18.6371 16.9444 19.5033 16.9444 20.5717V21.2165L17.5893 21.8614V32.7191L30.4861 26.2707L31.131 26.9156H35V20.5717C35 19.5033 34.1339 18.6371 33.0655 18.6371H18.879Z"
                        fill="url(#paint2_linear_1_1165)"
                    />
                    <path
                        d="M29.611 21.1139H16.9444V31.4495C16.9444 32.4755 17.7762 33.3073 18.8022 33.3073L25.3274 33.3073L28.4693 28.642C28.6502 27.6608 29.5101 26.9175 30.5435 26.9175L31.131 26.9175L31.131 22.6339C31.131 21.7944 30.4504 21.1139 29.611 21.1139Z"
                        fill="url(#paint3_radial_1_1165)"
                    />
                    <path
                        d="M25.3274 33.3073V32.6528C25.3274 32.28 25.4566 31.9187 25.693 31.6304L28.8021 27.8484C28.8832 27.7267 28.9761 27.6136 29.0792 27.5106L28.8021 27.8484C28.5698 28.1971 28.4343 28.6159 28.4343 29.0663V33.3073H25.3274Z"
                        fill="#B8D7FF"
                    />
                    <path
                        d="M30.2282 31.1377H30.8863C30.913 31.2512 30.9797 31.3515 31.0751 31.4215C31.1686 31.4915 31.285 31.5274 31.4032 31.5217C31.7008 31.5217 31.8973 31.3591 31.8973 31.1207C31.8973 30.8823 31.6932 30.7499 31.2888 30.7499H31.0274V30.2126H31.2544C31.6455 30.2126 31.8057 30.0689 31.8057 29.8551C31.8057 29.6413 31.6322 29.4938 31.3918 29.4938C31.285 29.4881 31.1781 29.5221 31.098 29.5921C31.016 29.6621 30.9664 29.7605 30.9569 29.8664H30.3216C30.3445 29.4919 30.6421 28.9546 31.388 28.9546C31.987 28.9546 32.4009 29.2932 32.4009 29.77C32.4009 29.9232 32.3532 30.0726 32.2617 30.1956C32.1701 30.3186 32.0423 30.4113 31.8954 30.4567V30.4661C32.0671 30.4964 32.2216 30.5872 32.3303 30.7215C32.4391 30.8558 32.4963 31.0242 32.4906 31.1983C32.4906 31.7147 32.0137 32.0552 31.3975 32.0552C30.7432 32.059 30.2759 31.6901 30.2282 31.1377Z"
                        fill="#8F69FF"
                    />
                    <path
                        d="M33.6408 29.006H34.1196V32.012H33.5016V29.7059L32.9064 30.107V29.4997L33.6408 29.006Z"
                        fill="#8F69FF"
                    />
                </g>
                <g clip-path="url(#clip3_1_1165)">
                    <path
                        d="M47.9636 41.4015V50.309C47.6944 50.1375 47.4253 49.9642 47.1544 49.7927C47.0767 49.7439 46.9973 49.6934 46.9106 49.6681C46.8221 49.6428 46.7209 49.6446 46.6432 49.6934C46.5818 49.7331 46.5403 49.7981 46.5096 49.8649C46.4861 49.9118 46.4662 49.9588 46.4464 50.0075C46.3272 50.4281 46.0725 50.791 45.7347 51.051C45.7239 51.0582 45.7131 51.0672 45.7022 51.0745C45.6354 51.125 45.565 51.1719 45.4909 51.2117C45.4891 51.2117 45.4855 51.2171 45.4819 51.2189C45.4819 51.2189 45.4801 51.2189 45.4783 51.2207C45.4096 51.2568 45.3392 51.2911 45.2651 51.32C45.2489 51.3272 45.2326 51.3326 45.2164 51.338C45.1604 51.3597 45.1008 51.3796 45.0412 51.3958C45.0213 51.4012 44.9996 51.4066 44.9798 51.412C44.922 51.4247 44.8624 51.4355 44.8027 51.4445C44.7829 51.4482 44.763 51.4518 44.7431 51.4536C44.6655 51.4626 44.5878 51.468 44.5083 51.468H35.9868C34.8886 51.468 34 50.5798 34 49.4821V39.4156H40.7063C40.7858 39.4156 40.8635 39.421 40.9411 39.4301C40.961 39.4319 40.9809 39.4355 41.0026 39.4391C41.0603 39.4481 41.12 39.4589 41.1778 39.4734C41.1976 39.477 41.2193 39.4824 41.241 39.4896C41.2988 39.5059 41.3584 39.5239 41.4144 39.5456C41.4306 39.551 41.4487 39.5564 41.4649 39.5637C41.5372 39.5925 41.6094 39.6268 41.6763 39.6648H41.6799C41.6799 39.6648 41.6871 39.6702 41.6907 39.672C41.763 39.7135 41.8334 39.7586 41.9002 39.8092C41.9111 39.8164 41.9219 39.8254 41.9327 39.8345C42.2723 40.0926 42.5252 40.4555 42.6462 40.8761C42.6642 40.9249 42.6841 40.9718 42.7076 41.0188C42.7401 41.0856 42.7798 41.1505 42.843 41.1903C42.9189 41.239 43.0201 41.2408 43.1086 41.2155C43.1953 41.1903 43.2747 41.1397 43.3524 41.091C43.7516 40.8364 44.1507 40.5819 44.5481 40.3273C44.5517 40.3255 44.5535 40.3237 44.5553 40.3219L44.5679 40.3147C44.5679 40.3147 44.5716 40.3147 44.5734 40.3111C44.6113 40.2876 44.6492 40.2623 44.689 40.237H44.6926C44.7161 40.219 44.7395 40.2045 44.7648 40.1883C44.9021 40.0998 45.0412 40.0132 45.182 39.9229C45.8269 39.5113 46.6071 39.5637 47.1761 39.9356C47.6023 40.2136 47.9094 40.6667 47.9563 41.2372C47.9599 41.2914 47.9636 41.3455 47.9636 41.4015Z"
                        fill="#6D4AFF"
                    />
                    <path
                        d="M47.9636 41.4015V50.309C47.6944 50.1375 47.4253 49.9642 47.1544 49.7927C47.0767 49.7439 46.9973 49.6934 46.9106 49.6681C46.8221 49.6428 46.7209 49.6446 46.6432 49.6934C46.5818 49.7331 46.5403 49.7981 46.5096 49.8649C46.4861 49.9118 46.4662 49.9588 46.4464 50.0075C46.3272 50.4281 46.0725 50.791 45.7347 51.051C45.7239 51.0582 45.7131 51.0672 45.7022 51.0745C45.6354 51.125 45.565 51.1719 45.4909 51.2117C45.4891 51.2117 45.4855 51.2171 45.4819 51.2189C45.4819 51.2189 45.4801 51.2189 45.4783 51.2207C45.4096 51.2568 45.3392 51.2911 45.2651 51.32C45.2489 51.3272 45.2326 51.3326 45.2164 51.338C45.1604 51.3597 45.1008 51.3796 45.0412 51.3958C45.0213 51.4012 44.9996 51.4066 44.9798 51.412C44.922 51.4247 44.8624 51.4355 44.8027 51.4445C44.7829 51.4482 44.763 51.4518 44.7431 51.4536C44.6655 51.4626 44.5878 51.468 44.5083 51.468H35.9868C34.8886 51.468 34 50.5798 34 49.4821V39.4156H40.7063C40.7858 39.4156 40.8635 39.421 40.9411 39.4301C40.961 39.4319 40.9809 39.4355 41.0026 39.4391C41.0603 39.4481 41.12 39.4589 41.1778 39.4734C41.1976 39.477 41.2193 39.4824 41.241 39.4896C41.2988 39.5059 41.3584 39.5239 41.4144 39.5456C41.4306 39.551 41.4487 39.5564 41.4649 39.5637C41.5372 39.5925 41.6094 39.6268 41.6763 39.6648H41.6799C41.6799 39.6648 41.6871 39.6702 41.6907 39.672C41.763 39.7135 41.8334 39.7586 41.9002 39.8092C41.9111 39.8164 41.9219 39.8254 41.9327 39.8345C42.2723 40.0926 42.5252 40.4555 42.6462 40.8761C42.6642 40.9249 42.6841 40.9718 42.7076 41.0188C42.7401 41.0856 42.7798 41.1505 42.843 41.1903C42.9189 41.239 43.0201 41.2408 43.1086 41.2155C43.1953 41.1903 43.2747 41.1397 43.3524 41.091C43.7516 40.8364 44.1507 40.5819 44.5481 40.3273C44.5517 40.3255 44.5535 40.3237 44.5553 40.3219L44.5679 40.3147C44.5679 40.3147 44.5716 40.3147 44.5734 40.3111C44.6113 40.2876 44.6492 40.2623 44.689 40.237H44.6926C44.7161 40.219 44.7395 40.2045 44.7648 40.1883C44.9021 40.0998 45.0412 40.0132 45.182 39.9229C45.8269 39.5113 46.6071 39.5637 47.1761 39.9356C47.6023 40.2136 47.9094 40.6667 47.9563 41.2372C47.9599 41.2914 47.9636 41.3455 47.9636 41.4015Z"
                        fill="url(#paint4_radial_1_1165)"
                    />
                    <path
                        d="M47.9636 41.4015V50.309C47.6944 50.1375 47.4253 49.9642 47.1544 49.7927C47.0767 49.7439 46.9973 49.6934 46.9106 49.6681C46.8221 49.6428 46.7209 49.6446 46.6432 49.6934C46.5818 49.7331 46.5403 49.7981 46.5096 49.8649C46.4861 49.9118 46.4662 49.9588 46.4464 50.0075C46.3272 50.4281 46.0725 50.791 45.7347 51.051C45.7239 51.0582 45.7131 51.0672 45.7022 51.0745C45.6354 51.125 45.565 51.1719 45.4909 51.2117C45.4891 51.2117 45.4855 51.2171 45.4819 51.2189C45.4819 51.2189 45.4801 51.2189 45.4783 51.2207C45.4096 51.2568 45.3392 51.2911 45.2651 51.32C45.2489 51.3272 45.2326 51.3326 45.2164 51.338C45.1604 51.3597 45.1008 51.3796 45.0412 51.3958C45.0213 51.4012 44.9996 51.4066 44.9798 51.412C44.922 51.4247 44.8624 51.4355 44.8027 51.4445C44.7829 51.4482 44.763 51.4518 44.7431 51.4536C44.6655 51.4626 44.5878 51.468 44.5083 51.468H35.9868C34.8886 51.468 34 50.5798 34 49.4821V39.4156H40.7063C40.7858 39.4156 40.8635 39.421 40.9411 39.4301C40.961 39.4319 40.9809 39.4355 41.0026 39.4391C41.0603 39.4481 41.12 39.4589 41.1778 39.4734C41.1976 39.477 41.2193 39.4824 41.241 39.4896C41.2988 39.5059 41.3584 39.5239 41.4144 39.5456C41.4306 39.551 41.4487 39.5564 41.4649 39.5637C41.5372 39.5925 41.6094 39.6268 41.6763 39.6648H41.6799C41.6799 39.6648 41.6871 39.6702 41.6907 39.672C41.763 39.7135 41.8334 39.7586 41.9002 39.8092C41.9111 39.8164 41.9219 39.8254 41.9327 39.8345C42.2723 40.0926 42.5252 40.4555 42.6462 40.8761C42.6642 40.9249 42.6841 40.9718 42.7076 41.0188C42.7401 41.0856 42.7798 41.1505 42.843 41.1903C42.9189 41.239 43.0201 41.2408 43.1086 41.2155C43.1953 41.1903 43.2747 41.1397 43.3524 41.091C43.7516 40.8364 44.1507 40.5819 44.5481 40.3273C44.5517 40.3255 44.5535 40.3237 44.5553 40.3219L44.5679 40.3147C44.5679 40.3147 44.5716 40.3147 44.5734 40.3111C44.6113 40.2876 44.6492 40.2623 44.689 40.237H44.6926C44.7161 40.219 44.7395 40.2045 44.7648 40.1883C44.9021 40.0998 45.0412 40.0132 45.182 39.9229C45.8269 39.5113 46.6071 39.5637 47.1761 39.9356C47.6023 40.2136 47.9094 40.6667 47.9563 41.2372C47.9599 41.2914 47.9636 41.3455 47.9636 41.4015Z"
                        fill="#1B1340"
                        fill-opacity="0.1"
                    />
                    <path
                        opacity="0.2"
                        d="M47.9636 41.4015V50.309C47.6944 50.1375 47.4253 49.9642 47.1544 49.7927C47.0767 49.7439 46.9973 49.6934 46.9106 49.6681C46.8221 49.6428 46.7209 49.6446 46.6432 49.6934C46.5818 49.7331 46.5403 49.7981 46.5096 49.8649C46.4861 49.9118 46.4662 49.9588 46.4464 50.0075C46.3272 50.4281 46.0725 50.791 45.7347 51.051C45.7239 51.0582 45.7131 51.0672 45.7022 51.0745C45.6354 51.125 45.565 51.1719 45.4909 51.2117C45.4891 51.2117 45.4855 51.2171 45.4819 51.2189C45.4819 51.2189 45.4801 51.2189 45.4783 51.2207C45.4096 51.2568 45.3392 51.2911 45.2651 51.32C45.2489 51.3272 45.2326 51.3326 45.2164 51.338C45.1604 51.3597 45.1008 51.3796 45.0412 51.3958C45.0213 51.4012 44.9996 51.4066 44.9798 51.412C44.922 51.4247 44.8624 51.4355 44.8027 51.4445C44.7829 51.4482 44.763 51.4518 44.7431 51.4536C44.6655 51.4626 44.5878 51.468 44.5083 51.468H35.9868C34.8886 51.468 34 50.5798 34 49.4821V39.4156H40.7063C40.7858 39.4156 40.8635 39.421 40.9411 39.4301C40.961 39.4319 40.9809 39.4355 41.0026 39.4391C41.0603 39.4481 41.12 39.4589 41.1778 39.4734C41.1976 39.477 41.2193 39.4824 41.241 39.4896C41.2988 39.5059 41.3584 39.5239 41.4144 39.5456C41.4306 39.551 41.4487 39.5564 41.4649 39.5637C41.5372 39.5925 41.6094 39.6268 41.6763 39.6648H41.6799C41.6799 39.6648 41.6871 39.6702 41.6907 39.672C41.763 39.7135 41.8334 39.7586 41.9002 39.8092C41.9111 39.8164 41.9219 39.8254 41.9327 39.8345C42.2723 40.0926 42.5252 40.4555 42.6462 40.8761C42.6642 40.9249 42.6841 40.9718 42.7076 41.0188C42.7401 41.0856 42.7798 41.1505 42.843 41.1903C42.9189 41.239 43.0201 41.2408 43.1086 41.2155C43.1953 41.1903 43.2747 41.1397 43.3524 41.091C43.7516 40.8364 44.1507 40.5819 44.5481 40.3273C44.5517 40.3255 44.5535 40.3237 44.5553 40.3219L44.5679 40.3147C44.5679 40.3147 44.5716 40.3147 44.5734 40.3111C44.6113 40.2876 44.6492 40.2623 44.689 40.237H44.6926C44.7161 40.219 44.7395 40.2045 44.7648 40.1883C44.9021 40.0998 45.0412 40.0132 45.182 39.9229C45.8269 39.5113 46.6071 39.5637 47.1761 39.9356C47.6023 40.2136 47.9094 40.6667 47.9563 41.2372C47.9599 41.2914 47.9636 41.3455 47.9636 41.4015Z"
                        fill="#6D4AFF"
                    />
                    <path
                        d="M48.3501 37.7888L44.7648 40.188C44.7395 40.2043 44.7161 40.2187 44.6926 40.235H44.689C44.6492 40.2621 44.6113 40.2873 44.5734 40.3108C44.5716 40.3126 44.5698 40.3126 44.5679 40.3144L44.5553 40.3216C44.5553 40.3216 44.5517 40.3252 44.5481 40.327C44.1507 40.5816 43.7516 40.8362 43.3524 41.0907C43.2747 41.1394 43.1953 41.19 43.1086 41.2153C43.0201 41.2405 42.9189 41.2387 42.843 41.19C42.7798 41.1503 42.7401 41.0853 42.7076 41.0185C42.6841 40.9716 42.6642 40.9246 42.6462 40.8759C42.5252 40.4552 42.2723 40.0924 41.9327 39.8342C41.9219 39.8252 41.9111 39.8161 41.9002 39.8089C41.8334 39.7584 41.763 39.7132 41.6907 39.6717C41.6871 39.6717 41.6835 39.6663 41.6799 39.6645H41.6763C41.6094 39.6266 41.5372 39.5923 41.4649 39.5634C41.4487 39.5562 41.4306 39.5508 41.4144 39.5453C41.3584 39.5237 41.2988 39.5056 41.241 39.4894C41.2193 39.4822 41.1976 39.4767 41.1778 39.4731C41.12 39.4587 41.0603 39.4479 41.0026 39.4388C40.9809 39.4352 40.961 39.4316 40.9411 39.4298C40.8635 39.4208 40.7858 39.4154 40.7063 39.4154H34V38.8629C34 37.7671 34.8886 36.8771 35.9868 36.8771H44.5083C44.5878 36.8771 44.6655 36.8825 44.7431 36.8915C44.763 36.8951 44.7829 36.8987 44.8027 36.9005C44.8624 36.9096 44.922 36.9204 44.9798 36.9348C44.9996 36.9402 45.0213 36.9457 45.0412 36.9511C45.1008 36.9673 45.1604 36.9872 45.2164 37.007C45.2326 37.0143 45.2489 37.0197 45.2651 37.0251C45.3392 37.0558 45.4096 37.0883 45.4783 37.1262C45.4801 37.1262 45.4819 37.128 45.4819 37.128C45.4855 37.1298 45.4891 37.1316 45.4909 37.1334C45.565 37.1749 45.6354 37.2219 45.7022 37.2706C45.7131 37.2796 45.7239 37.2869 45.7347 37.2959C46.0725 37.5559 46.3272 37.9187 46.4464 38.3376C46.4662 38.3863 46.4861 38.4351 46.5096 38.4802C46.5403 38.547 46.5818 38.612 46.6432 38.6517C46.7209 38.7023 46.8221 38.7041 46.9106 38.677C46.9973 38.6517 47.0767 38.603 47.1544 38.5524C47.5536 38.2997 47.9509 38.0433 48.3501 37.7888Z"
                        fill="url(#paint5_linear_1_1165)"
                    />
                    <path
                        d="M51.766 38.8632V49.4821C51.766 49.5381 51.7624 49.5922 51.7588 49.6464C51.6486 50.9787 50.1097 51.681 48.9845 50.9607L48.3577 50.5617C48.3577 50.5617 48.3541 50.5581 48.3505 50.5563C48.2223 50.4732 48.0922 50.392 47.964 50.309V41.4014C47.964 41.3455 47.9604 41.2913 47.9568 41.2372C47.9098 40.6667 47.6028 40.2135 47.1765 39.9355C46.6076 39.5636 45.8273 39.5113 45.1825 39.9229C45.0416 40.0131 44.9025 40.0998 44.7653 40.1883L48.3505 37.789L48.3577 37.7854L48.4047 37.7547C48.4589 37.7204 48.5131 37.6861 48.5673 37.6518C48.7045 37.5633 48.8436 37.4749 48.9845 37.3846C50.1097 36.6661 51.6486 37.3665 51.7588 38.6989C51.7624 38.753 51.766 38.8072 51.766 38.8632Z"
                        fill="url(#paint6_linear_1_1165)"
                    />
                    <g opacity="0.1" style="mix-blend-mode: multiply">
                        <path
                            fill-rule="evenodd"
                            clip-rule="evenodd"
                            d="M48.9844 37.3857C50.1096 36.6673 51.6484 37.3671 51.7589 38.6992C51.7625 38.7534 51.7657 38.8083 51.7657 38.8643V49.4824C51.7657 49.5384 51.7625 49.5933 51.7589 49.6475C51.6485 50.9795 50.1096 51.6819 48.9844 50.9619L48.3575 50.5625C48.357 50.562 48.354 50.5583 48.3506 50.5566C48.2224 50.4736 48.0922 50.3926 47.9639 50.3096V41.4023C47.9639 41.3465 47.9607 41.2923 47.9571 41.2383C47.9101 40.668 47.6029 40.2146 47.1768 39.9365C46.6079 39.5646 45.8275 39.5123 45.1827 39.9238C45.0418 40.0141 44.902 40.101 44.7647 40.1895L48.3506 37.79L48.3575 37.7861L48.4044 37.7559C48.4585 37.7216 48.5133 37.6866 48.5674 37.6523C48.7046 37.564 48.8437 37.4759 48.9844 37.3857ZM44.7432 36.8926C44.7631 36.8962 44.783 36.8996 44.8028 36.9014C44.8623 36.9104 44.9218 36.9211 44.9796 36.9355C44.9994 36.941 45.0212 36.9467 45.0411 36.9521C45.1005 36.9683 45.16 36.988 45.2159 37.0078C45.232 37.015 45.2485 37.021 45.2647 37.0264C45.3388 37.0571 45.4099 37.089 45.4786 37.127C45.4798 37.1271 45.481 37.1284 45.4815 37.1289C45.4851 37.1307 45.4895 37.133 45.4913 37.1348C45.5651 37.1762 45.6355 37.2229 45.7022 37.2715C45.713 37.2804 45.7237 37.2879 45.7344 37.2969C46.0722 37.5568 46.3271 37.92 46.4464 38.3389C46.4662 38.3876 46.4864 38.4364 46.5098 38.4814C46.5405 38.5482 46.5823 38.6136 46.6436 38.6533C46.7212 38.7035 46.8219 38.7047 46.9102 38.6777C46.9969 38.6525 47.0767 38.6042 47.1544 38.5537C47.5534 38.301 47.9506 38.0445 48.3497 37.79L44.7647 40.1895C44.7395 40.2057 44.7159 40.2201 44.6924 40.2363H44.6885C44.649 40.2633 44.6111 40.2882 44.5733 40.3115L44.5557 40.3232C44.5557 40.3232 44.5515 40.3263 44.5479 40.3281C44.1506 40.5826 43.7517 40.8373 43.3526 41.0918C43.2749 41.1405 43.1952 41.1915 43.1085 41.2168C43.02 41.242 42.9187 41.2401 42.8428 41.1914C42.7796 41.1517 42.7396 41.0863 42.7071 41.0195C42.6837 40.9727 42.6646 40.9256 42.6465 40.877C42.5255 40.4563 42.2722 40.0931 41.9327 39.835C41.922 39.8261 41.9111 39.8177 41.9005 39.8105C41.8336 39.76 41.7627 39.7144 41.6905 39.6729C41.687 39.6727 41.6833 39.6678 41.6797 39.666H41.6758C41.609 39.6281 41.5371 39.5933 41.4649 39.5645C41.4487 39.5572 41.4304 39.5523 41.4141 39.5469C41.3582 39.5252 41.299 39.5065 41.2413 39.4902C41.2197 39.483 41.1976 39.4782 41.1778 39.4746C41.12 39.4602 41.0598 39.4495 41.002 39.4404C40.9806 39.4369 40.9611 39.4325 40.9415 39.4307C40.8638 39.4216 40.7856 39.417 40.7061 39.417H34.0001V38.8643C34.0001 37.7685 34.8884 36.8781 35.9864 36.8779H44.5079C44.5873 36.8779 44.6656 36.8836 44.7432 36.8926Z"
                            fill="#6D4AFF"
                        />
                    </g>
                </g>
            </g>
        </g>
        <path
            d="M24.2861 10.5957L45.7139 10.5957C53.2749 10.5957 59.4043 16.7251 59.4043 24.2861V45.7139C59.4043 53.2749 53.2749 59.4043 45.7139 59.4043H24.2861C16.7251 59.4043 10.5957 53.2749 10.5957 45.7139L10.5957 24.2861C10.5957 16.7251 16.7251 10.5957 24.2861 10.5957Z"
            stroke="#EBEBEB"
            stroke-width="1.19048"
        />
    </g>
    <defs>
        <filter
            id="filter0_d_1_1165"
            x="0"
            y="0"
            width="70"
            height="70"
            filterUnits="userSpaceOnUse"
            color-interpolation-filters="sRGB"
        >
            <feFlood flood-opacity="0" result="BackgroundImageFix" />
            <feColorMatrix
                in="SourceAlpha"
                type="matrix"
                values="0 0 0 0 0 0 0 0 0 0 0 0 0 0 0 0 0 0 127 0"
                result="hardAlpha"
            />
            <feOffset />
            <feGaussianBlur stdDeviation="5" />
            <feColorMatrix type="matrix" values="0 0 0 0 0.0588235 0 0 0 0 0.0588235 0 0 0 0 0.0588235 0 0 0 0.1 0" />
            <feBlend mode="normal" in2="BackgroundImageFix" result="effect1_dropShadow_1_1165" />
            <feBlend mode="normal" in="SourceGraphic" in2="effect1_dropShadow_1_1165" result="shape" />
        </filter>
        <linearGradient id="paint0_linear_1_1165" x1="35" y1="10" x2="35" y2="60" gradientUnits="userSpaceOnUse">
            <stop stop-color="white" />
            <stop offset="1" stop-color="#999999" />
        </linearGradient>
        <linearGradient
            id="paint1_linear_1_1165"
            x1="60"
            y1="60"
            x2="15.9529"
            y2="5.21396"
            gradientUnits="userSpaceOnUse"
        >
            <stop stop-color="#9795DE" />
            <stop offset="0.5" stop-color="white" />
            <stop offset="1" stop-color="#46B5FF" />
        </linearGradient>
        <linearGradient
            id="paint2_linear_1_1165"
            x1="32.1127"
            y1="28.3331"
            x2="21.5813"
            y2="13.0324"
            gradientUnits="userSpaceOnUse"
        >
            <stop stop-color="#BFE8FF" />
            <stop offset="0.3075" stop-color="#BFABFF" />
            <stop offset="1" stop-color="#7341FF" />
        </linearGradient>
        <radialGradient
            id="paint3_radial_1_1165"
            cx="0"
            cy="0"
            r="1"
            gradientUnits="userSpaceOnUse"
            gradientTransform="translate(30.5884 11.044) scale(28.9652 25.7606)"
        >
            <stop offset="0.502942" stop-color="#6D4AFF" />
            <stop offset="0.9944" stop-color="#06B8FF" />
        </radialGradient>
        <radialGradient
            id="paint4_radial_1_1165"
            cx="0"
            cy="0"
            r="1"
            gradientTransform="matrix(6.03228 -10.4972 12.8894 9.85101 36.5423 51.1583)"
            gradientUnits="userSpaceOnUse"
        >
            <stop stop-color="#B8C6E5" />
            <stop offset="0.418768" stop-color="#9388F2" />
            <stop offset="0.716275" stop-color="#6D4AFF" />
        </radialGradient>
        <linearGradient
            id="paint5_linear_1_1165"
            x1="35.0164"
            y1="35.4125"
            x2="38.6231"
            y2="43.2209"
            gradientUnits="userSpaceOnUse"
        >
            <stop stop-color="#6652F5" />
            <stop offset="0.33754" stop-color="#9A9CF9" />
            <stop offset="0.868809" stop-color="#D9DAFC" />
        </linearGradient>
        <linearGradient
            id="paint6_linear_1_1165"
            x1="46.2766"
            y1="35.9778"
            x2="54.6065"
            y2="38.545"
            gradientUnits="userSpaceOnUse"
        >
            <stop stop-color="#6652F5" />
            <stop offset="0.33754" stop-color="#9A9CF9" />
            <stop offset="0.868809" stop-color="#D9DAFC" />
        </linearGradient>
        <clipPath id="clip0_1_1165">
            <path
                d="M10 24.2857C10 16.3959 16.3959 10 24.2857 10L45.7143 10C53.6041 10 60 16.3959 60 24.2857V45.7143C60 53.6041 53.6041 60 45.7143 60H24.2857C16.3959 60 10 53.6041 10 45.7143L10 24.2857Z"
                fill="white"
            />
        </clipPath>
        <clipPath id="clip1_1_1165">
            <rect width="50" height="50" fill="white" transform="translate(10 10)" />
        </clipPath>
        <clipPath id="clip2_1_1165">
            <rect width="18.0556" height="18.0556" fill="white" transform="translate(16.9444 16.9444)" />
        </clipPath>
        <clipPath id="clip3_1_1165">
            <rect width="17.7659" height="17.766" fill="white" transform="translate(34 35.2896)" />
        </clipPath>
    </defs>
</svg>
