<svg xmlns="http://www.w3.org/2000/svg" width="48" height="48" fill="none" viewBox="0 0 48 48">
    <path fill="url(#a)" d="M3 36h41v5.462A5.54 5.54 0 0 1 38.462 47H8.538A5.54 5.54 0 0 1 3 41.462z" />
    <path fill="url(#b)" d="M3 13h41v24.462A5.54 5.54 0 0 1 38.462 43H8.538A5.54 5.54 0 0 1 3 37.462z" />
    <path fill="url(#c)" d="M3 10.539A5.54 5.54 0 0 1 8.538 5h29.924A5.54 5.54 0 0 1 44 10.539V14H3z" />
    <rect width="2" height="5" x="11" y="2" fill="url(#d)" rx="1" />
    <path fill="url(#e)" d="M35 3a1 1 0 1 1 2 0v3a1 1 0 1 1-2 0z" />
    <path
        fill="url(#f)"
        d="M19.5 31a1.5 1.5 0 0 1 0 3h-9a1.5 1.5 0 0 1 0-3zm17 0a1.5 1.5 0 0 1 0 3h-9a1.5 1.5 0 0 1 0-3zm-19-5a1.5 1.5 0 0 1 0 3h-7a1.5 1.5 0 0 1 0-3zm17 0a1.5 1.5 0 0 1 0 3h-7a1.5 1.5 0 0 1 0-3zm-15-5a1.5 1.5 0 0 1 0 3h-9a1.5 1.5 0 0 1 0-3zm17 0a1.5 1.5 0 0 1 0 3h-9a1.5 1.5 0 0 1 0-3z"
    />
    <defs>
        <linearGradient id="a" x1="39.021" x2="-96.409" y1="32.104" y2="128.263" gradientUnits="userSpaceOnUse">
            <stop stop-color="#cbf1ff" />
            <stop offset="1" stop-color="#6d4aff" />
        </linearGradient>
        <linearGradient id="b" x1="53.061" x2="-4.326" y1="-9.154" y2="56.715" gradientUnits="userSpaceOnUse">
            <stop stop-color="#fcf5ff" />
            <stop offset="1" stop-color="#e2f7ff" />
        </linearGradient>
        <linearGradient id="c" x1="47.221" x2="2.824" y1="-16.375" y2="16.061" gradientUnits="userSpaceOnUse">
            <stop stop-color="#b2eafe" />
            <stop offset="1" stop-color="#6d4aff" />
        </linearGradient>
        <linearGradient id="d" x1="15" x2="12.181" y1="2" y2="7.864" gradientUnits="userSpaceOnUse">
            <stop stop-color="#eefaff" />
            <stop offset="1" stop-color="#e5b0ff" />
        </linearGradient>
        <linearGradient id="e" x1="39" x2="36.181" y1="2" y2="7.864" gradientUnits="userSpaceOnUse">
            <stop stop-color="#eefaff" />
            <stop offset="1" stop-color="#e5b0ff" />
        </linearGradient>
        <linearGradient id="f" x1="35.61" x2="8.471" y1="13.847" y2="53.945" gradientUnits="userSpaceOnUse">
            <stop stop-color="#f7e5ff" />
            <stop offset="1" stop-color="#27abf4" />
        </linearGradient>
    </defs>
</svg>
