<svg
    id="b4c7e32b-5575-4704-8d52-66a681647fc8"
    xmlns="http://www.w3.org/2000/svg"
    xmlns:xlink="http://www.w3.org/1999/xlink"
    viewBox="0 0 738 722"
>
    <defs>
        <linearGradient
            id="b004bddd-0737-4e15-9287-870baa8ab461"
            x1="713.43"
            y1="-718.07"
            x2="377.71"
            y2="1324.28"
            gradientTransform="matrix(1, 0, 0, -1, 0, 1021.89)"
            gradientUnits="userSpaceOnUse"
        >
            <stop offset="0.27" stop-color="#e2dbff" />
            <stop offset="1" stop-color="#6d4aff" />
        </linearGradient>
        <mask
            id="aa08d47e-a964-4c46-ae79-be11cc799c6e"
            x="0"
            y="95"
            width="627"
            height="627"
            maskUnits="userSpaceOnUse"
        >
            <g transform="translate(-198 -103)">
                <g id="a55c4b9a-5be1-46c4-baf7-c5e655e1c402" data-name="mask0 410 62802">
                    <path
                        d="M817.93,477A209.4,209.4,0,0,1,764,484c-115.43,0-209-93.57-209-209a209,209,0,0,1,8.67-59.76,87.54,87.54,0,0,0-114.06,8.39l-226,226a87.55,87.55,0,0,0,0,123.78l226,226a87.55,87.55,0,0,0,123.78,0l226-226A87.56,87.56,0,0,0,817.93,477Z"
                        style="fill-rule: evenodd; fill: url(#b004bddd-0737-4e15-9287-870baa8ab461)"
                    />
                </g>
            </g>
        </mask>
        <linearGradient
            id="bb6f32d7-6227-48e4-b1ca-9231d8b284ee"
            x1="713.43"
            y1="-718.07"
            x2="377.71"
            y2="1324.28"
            xlink:href="#b004bddd-0737-4e15-9287-870baa8ab461"
        />
        <radialGradient
            id="b356a68e-7419-4141-aef1-6880724bb5f1"
            cx="213.46"
            cy="932.08"
            r="1"
            gradientTransform="matrix(393, -11, -14.01, -500.66, -70670.73, 469527.76)"
            gradientUnits="userSpaceOnUse"
        >
            <stop offset="0.11" stop-color="#ff8686" />
            <stop offset="0.99" stop-color="#6d4aff" />
        </radialGradient>
    </defs>
    <g style="mask: url(#aa08d47e-a964-4c46-ae79-be11cc799c6e)">
        <path
            d="M449.61,223.63a87.55,87.55,0,0,1,123.78,0l226,226a87.55,87.55,0,0,1,0,123.78l-226,226a87.55,87.55,0,0,1-123.78,0l-226-226a87.55,87.55,0,0,1,0-123.78Z"
            transform="translate(-198 -103)"
            style="fill: url(#bb6f32d7-6227-48e4-b1ca-9231d8b284ee)"
        />
        <path
            d="M403.11,270.62a58.35,58.35,0,0,1,82.51,0L683.25,468.25a58.35,58.35,0,0,1,0,82.51L483.4,750.61a58.35,58.35,0,0,1-82.51,0L223.52,573.24a87,87,0,0,1,0-123Z"
            transform="translate(-198 -103)"
            style="fill: url(#b356a68e-7419-4141-aef1-6880724bb5f1)"
        />
    </g>
    <circle cx="566" cy="172" r="172" style="fill: #37ca34" />
    <path
        d="M673,285l62,62L865,217"
        transform="translate(-198 -103)"
        style="fill: none; stroke: #fff; stroke-linecap: round; stroke-linejoin: round; stroke-width: 38px"
    />
</svg>
