<svg xmlns="http://www.w3.org/2000/svg" width="16" height="16" fill="none" viewBox="0 0 16 16">
    <path
        fill="url(#a)"
        d="M9.173 2.85a4.304 4.304 0 0 0-3.747 2.203 2.36 2.36 0 0 0-1.03-.238A2.36 2.36 0 0 0 2.07 6.798a3.251 3.251 0 0 0-1.042 5.296 3.25 3.25 0 0 0 2.3.95c.136 0 .272-.01.407-.029h9.037c.048.004.095.006.143.007a3.09 3.09 0 0 0 .136-.007h.216V13a3.022 3.022 0 0 0 1.907-.998 3.049 3.049 0 0 0 .766-2.02v-.005a3.05 3.05 0 0 0-.699-1.935 3.023 3.023 0 0 0-1.765-1.045A4.304 4.304 0 0 0 9.173 2.85Z"
    />
    <defs>
        <linearGradient id="a" x1="15.989" x2=".07" y1="9.99" y2="9.77" gradientUnits="userSpaceOnUse">
            <stop stop-color="#3E82F4" />
            <stop offset="1" stop-color="#93DCF7" />
        </linearGradient>
    </defs>
</svg>
