<svg width="28" height="28" viewBox="0 0 28 28" fill="none" xmlns="http://www.w3.org/2000/svg">
    <mask
        id="mask0_8265_2328"
        style="mask-type: luminance"
        maskUnits="userSpaceOnUse"
        x="0"
        y="0"
        width="28"
        height="28"
    >
        <path d="M27.8078 0.220615H0.191403V27.8371H27.8078V0.220615Z" fill="white" />
    </mask>
    <g mask="url(#mask0_8265_2328)">
        <mask
            id="mask1_8265_2328"
            style="mask-type: luminance"
            maskUnits="userSpaceOnUse"
            x="0"
            y="0"
            width="28"
            height="28"
        >
            <path d="M27.8078 0.219906H0.191401V27.8363H27.8078V0.219906Z" fill="white" />
        </mask>
        <g mask="url(#mask1_8265_2328)">
            <path
                d="M20.3886 3.95467C20.0101 2.75875 18.9004 1.94597 17.646 1.94597H16.6979C15.3124 1.94597 14.1237 2.93366 13.8699 4.29577L12.4611 11.8573L12.8838 10.4615C13.2512 9.24828 14.3694 8.41856 15.637 8.41856H20.0406L22.5654 9.30213L23.9083 8.42308C22.654 8.42308 21.5442 7.60579 21.1657 6.40988L20.3886 3.95467Z"
                fill="url(#paint0_radial_8265_2328)"
            />
            <path
                d="M7.90664 24.0892C8.28115 25.2914 9.39398 26.1104 10.6532 26.1104H12.5195C14.0924 26.1104 15.3736 24.8472 15.396 23.2746L15.4948 16.328L15.1162 17.5885C14.7509 18.8049 13.6311 19.6378 12.3611 19.6378H7.95842L5.68164 18.5998L4.40308 19.6378C5.66227 19.6378 6.77514 20.4567 7.14965 21.6589L7.90664 24.0892Z"
                fill="url(#paint1_radial_8265_2328)"
            />
            <path
                d="M17.4517 1.94608H7.38319C4.50648 1.94608 2.78046 5.65588 1.62977 9.36568C0.266511 13.7608 -1.51735 19.639 3.64347 19.639H8.02796C9.30698 19.639 10.4315 18.7977 10.7911 17.5702C11.5476 14.988 12.8698 10.4951 13.9088 7.07367C14.4375 5.3323 14.878 3.8368 15.5539 2.90546C15.9329 2.38333 16.5645 1.94608 17.4517 1.94608Z"
                fill="url(#paint2_linear_8265_2328)"
            />
            <path
                d="M17.4517 1.94608H7.38319C4.50648 1.94608 2.78046 5.65588 1.62977 9.36568C0.266511 13.7608 -1.51735 19.639 3.64347 19.639H8.02796C9.30698 19.639 10.4315 18.7977 10.7911 17.5702C11.5476 14.988 12.8698 10.4951 13.9088 7.07367C14.4375 5.3323 14.878 3.8368 15.5539 2.90546C15.9329 2.38333 16.5645 1.94608 17.4517 1.94608Z"
                fill="url(#paint3_linear_8265_2328)"
            />
            <path
                d="M10.5454 26.1103H20.6139C23.4906 26.1103 25.2166 22.4011 26.3673 18.6918C27.7305 14.2973 29.5144 8.42004 24.3536 8.42004H19.969C18.69 8.42004 17.5655 9.26134 17.2058 10.4887C16.4493 13.0706 15.1272 17.5627 14.0883 20.9835C13.5595 22.7246 13.1191 24.2199 12.4431 25.1511C12.0641 25.6731 11.4325 26.1103 10.5454 26.1103Z"
                fill="url(#paint4_radial_8265_2328)"
            />
            <path
                d="M10.5454 26.1103H20.6139C23.4906 26.1103 25.2166 22.4011 26.3673 18.6918C27.7305 14.2973 29.5144 8.42004 24.3536 8.42004H19.969C18.69 8.42004 17.5655 9.26134 17.2058 10.4887C16.4493 13.0706 15.1272 17.5627 14.0883 20.9835C13.5595 22.7246 13.1191 24.2199 12.4431 25.1511C12.0641 25.6731 11.4325 26.1103 10.5454 26.1103Z"
                fill="url(#paint5_linear_8265_2328)"
            />
            <path
                d="M26.4126 19.6379H10.648C9.87754 19.6379 9.25292 20.2626 9.25292 21.0331V26.4415C9.25292 27.212 9.87754 27.8366 10.648 27.8366H26.4126C27.1831 27.8366 27.8077 27.212 27.8077 26.4415V21.0331C27.8077 20.2626 27.1831 19.6379 26.4126 19.6379Z"
                fill="black"
            />
            <path
                fill-rule="evenodd"
                clip-rule="evenodd"
                d="M10.3819 21.2046V26.203H11.3065V22.6019L12.3203 24.5988H12.9368L13.9283 22.6004V26.203H14.8826V21.2046H13.8169L12.6588 23.5239L11.5071 21.2046H10.3819ZM17.291 26.2662C16.7413 26.2662 16.313 26.135 16.0061 25.8725C15.7015 25.6101 15.5493 25.2152 15.5493 24.6879H16.4628C16.4628 24.9379 16.5346 25.1335 16.6782 25.2746C16.8243 25.4158 17.0273 25.4863 17.2872 25.4863C17.5199 25.4863 17.6982 25.4269 17.822 25.3081C17.9482 25.1893 18.0114 25.0011 18.0114 24.7436C18.0114 24.496 17.9346 24.3166 17.7811 24.2051C17.6301 24.0913 17.4333 24.0343 17.1907 24.0343H16.8899V23.2842H17.2167C17.4345 23.2842 17.6078 23.2248 17.7366 23.1059C17.8653 22.9871 17.9297 22.8299 17.9297 22.6343C17.9297 22.4363 17.8715 22.2902 17.7551 22.1961C17.6413 22.102 17.484 22.055 17.2835 22.055C17.0632 22.055 16.8924 22.1169 16.771 22.2407C16.6497 22.362 16.5891 22.5291 16.5891 22.742H15.6793C15.6793 22.4078 15.7486 22.133 15.8872 21.9176C16.0283 21.7023 16.2202 21.5413 16.4628 21.4349C16.7054 21.3259 16.9778 21.2715 17.2798 21.2715C17.5596 21.2715 17.8183 21.3173 18.0559 21.4089C18.2936 21.5005 18.4842 21.6403 18.6278 21.8285C18.7739 22.0167 18.8469 22.258 18.8469 22.5526C18.8469 22.8522 18.7751 23.0899 18.6315 23.2656C18.4904 23.4414 18.2998 23.5652 18.0596 23.637C18.3245 23.6914 18.5436 23.8152 18.7169 24.0083C18.8927 24.199 18.9806 24.4676 18.9806 24.8142C18.9806 25.2846 18.8283 25.6448 18.5238 25.8948C18.2218 26.1424 17.8108 26.2662 17.291 26.2662ZM20.2803 26.021C20.5551 26.1869 20.8671 26.2699 21.2161 26.2699C21.5677 26.2699 21.8647 26.2006 22.1074 26.0619C22.3525 25.9233 22.5381 25.7326 22.6644 25.49C22.7907 25.2449 22.8538 24.9639 22.8538 24.6471C22.8538 24.3178 22.7919 24.0418 22.6681 23.8189C22.5443 23.5936 22.376 23.4241 22.1631 23.3102C21.9526 23.1938 21.715 23.1356 21.4501 23.1356C21.2273 23.1356 21.0317 23.1715 20.8633 23.2433C20.6974 23.3151 20.5502 23.4104 20.4214 23.5293C20.4052 23.5445 20.3892 23.5599 20.3733 23.5756C20.3901 23.0959 20.4619 22.7327 20.5885 22.4858C20.7371 22.1986 20.9475 22.055 21.2198 22.055C21.3882 22.055 21.5243 22.102 21.6283 22.1961C21.7348 22.2877 21.8065 22.4276 21.8437 22.6157H22.7572C22.6928 22.185 22.5295 21.8545 22.267 21.6242C22.0046 21.3915 21.6555 21.2752 21.2198 21.2752C20.8658 21.2752 20.5514 21.3655 20.2766 21.5463C20.0018 21.7245 19.7864 22.0005 19.6304 22.3744C19.4745 22.7457 19.3965 23.2223 19.3965 23.8041C19.3965 24.3883 19.4757 24.8624 19.6342 25.2263C19.7926 25.5878 20.008 25.8527 20.2803 26.021ZM20.3762 24.2892C20.4421 24.225 20.5153 24.1661 20.5959 24.1123C20.7965 23.9761 21.023 23.908 21.2755 23.908C21.4662 23.908 21.6147 23.9749 21.7212 24.1086C21.8276 24.2398 21.8808 24.423 21.8808 24.6582C21.8808 24.8983 21.8251 25.0976 21.7137 25.2561C21.6048 25.4145 21.4389 25.4937 21.2161 25.4937C21.0725 25.4937 20.9351 25.4479 20.8039 25.3563C20.6752 25.2622 20.5699 25.11 20.4882 24.8995C20.428 24.7376 20.3907 24.5342 20.3762 24.2892ZM24.1276 26.1065C24.3875 26.2154 24.6772 26.2699 24.9965 26.2699C25.3134 26.2699 25.5981 26.2068 25.8506 26.0805C26.1056 25.9542 26.3074 25.7661 26.4559 25.516C26.6045 25.2635 26.6787 24.9479 26.6787 24.5691C26.6787 24.1903 26.6082 23.8846 26.4671 23.6518C26.3284 23.4191 26.1465 23.2495 25.9212 23.1431C25.6959 23.0342 25.4545 22.9797 25.197 22.9797C24.999 22.9797 24.8269 23.0119 24.6809 23.0762C24.5373 23.1381 24.4283 23.2112 24.3541 23.2953L24.4432 22.1516H26.3037V21.3383H23.6745L23.4628 24.0306H24.3132C24.3825 23.944 24.4705 23.8722 24.5769 23.8152C24.6833 23.7583 24.8133 23.7298 24.9668 23.7298C25.1847 23.7298 25.3617 23.7967 25.4979 23.9304C25.6365 24.0616 25.7058 24.2745 25.7058 24.5691C25.7058 24.8885 25.6402 25.1224 25.509 25.2709C25.3803 25.4195 25.2094 25.4938 24.9965 25.4938C24.7712 25.4938 24.5868 25.4306 24.4432 25.3044C24.2996 25.1756 24.2278 24.9998 24.2278 24.777H23.2809C23.2809 25.1113 23.3564 25.3898 23.5074 25.6126C23.6609 25.8329 23.8676 25.9976 24.1276 26.1065Z"
                fill="white"
            />
        </g>
    </g>
    <defs>
        <radialGradient
            id="paint0_radial_8265_2328"
            cx="0"
            cy="0"
            r="1"
            gradientUnits="userSpaceOnUse"
            gradientTransform="translate(22.797 11.9221) rotate(-130.285) scale(10.6028 10.033)"
        >
            <stop offset="0.0955758" stop-color="#00AEFF" />
            <stop offset="0.773185" stop-color="#2253CE" />
            <stop offset="1" stop-color="#0736C4" />
        </radialGradient>
        <radialGradient
            id="paint1_radial_8265_2328"
            cx="0"
            cy="0"
            r="1"
            gradientUnits="userSpaceOnUse"
            gradientTransform="translate(5.89133 19.5491) rotate(50.2556) scale(9.59449 9.4179)"
        >
            <stop stop-color="#FFB657" />
            <stop offset="0.633728" stop-color="#FF5F3D" />
            <stop offset="0.923392" stop-color="#C02B3C" />
        </radialGradient>
        <linearGradient
            id="paint2_linear_8265_2328"
            x1="6.78058"
            y1="4.08991"
            x2="8.14882"
            y2="20.3123"
            gradientUnits="userSpaceOnUse"
        >
            <stop offset="0.156162" stop-color="#0D91E1" />
            <stop offset="0.487484" stop-color="#52B471" />
            <stop offset="0.652394" stop-color="#98BD42" />
            <stop offset="0.937361" stop-color="#FFC800" />
        </linearGradient>
        <linearGradient
            id="paint3_linear_8265_2328"
            x1="8.03605"
            y1="1.94608"
            x2="8.783"
            y2="19.6406"
            gradientUnits="userSpaceOnUse"
        >
            <stop stop-color="#3DCBFF" />
            <stop offset="0.246674" stop-color="#0588F7" stop-opacity="0" />
        </linearGradient>
        <radialGradient
            id="paint4_radial_8265_2328"
            cx="0"
            cy="0"
            r="1"
            gradientUnits="userSpaceOnUse"
            gradientTransform="translate(24.8708 6.68807) rotate(109.722) scale(23.5708 28.7878)"
        >
            <stop offset="0.0661714" stop-color="#8C48FF" />
            <stop offset="0.5" stop-color="#F2598A" />
            <stop offset="0.895833" stop-color="#FFB152" />
        </radialGradient>
        <linearGradient
            id="paint5_linear_8265_2328"
            x1="25.6662"
            y1="7.34001"
            x2="25.6564"
            y2="12.1582"
            gradientUnits="userSpaceOnUse"
        >
            <stop offset="0.0581535" stop-color="#F8ADFA" />
            <stop offset="0.708063" stop-color="#A86EDD" stop-opacity="0" />
        </linearGradient>
    </defs>
</svg>
