<svg fill="none" height="46" viewBox="0 0 48 46" width="48" xmlns="http://www.w3.org/2000/svg" xmlns:xlink="http://www.w3.org/1999/xlink"><linearGradient id="a" gradientUnits="userSpaceOnUse" x1="23.1146" x2="23.1146" y1="5.33402" y2="21.7932"><stop offset="0" stop-color="#e1e1e1"/><stop offset="1" stop-color="#bebebe"/></linearGradient><linearGradient id="b" gradientUnits="userSpaceOnUse" x1="31.3027" x2="42.625" y1="5.0176" y2="31.6583"><stop offset="0" stop-color="#1f1f1f"/><stop offset="1" stop-color="#6d6d6d" stop-opacity="0"/></linearGradient><linearGradient id="c" gradientUnits="userSpaceOnUse" x1="1.07098" x2="9.31833" y1="6.99355" y2="19.0628"><stop offset="0" stop-color="#dfdfdf"/><stop offset=".96875" stop-color="#9e9e9e"/></linearGradient><linearGradient id="d" gradientUnits="userSpaceOnUse" x1="42.8497" x2="32.3571" y1="22.2942" y2="29.8625"><stop offset="0" stop-color="#e9e9e9"/><stop offset="1" stop-color="#a5a5a5"/></linearGradient><g opacity=".7"><path d="m19.9805 16.3398h6.6601v29.3048h-6.6601z" fill="#626262"/><path d="m3.99696 21.668h38.82134c.6239 0 1.1397-.5038 1.1397-1.1396v-10.99562c0-5.07452-4.1148-9.177311-9.1773-9.177311h-22.0855c-5.07454 0-8.69824 4.114791-8.69824 9.177311z" fill="url(#a)"/><path d="m26.6406 21.668h15.9844v-11.98828c0-4.40271-3.8312-8.23197-8.2339-8.23197s-7.7505 3.82926-7.7505 8.23197z" fill="url(#b)"/><path clip-rule="evenodd" d="m6.37013 12.7228v6.8626c0 .3839-.31191.6958-.69579.6958h-4.978544c-.383888 0-.69579643-.3119-.69579641-.6958l.00000038-8.6614c.00000002-.3839.31190903-.6958.69579603-.6958h2.233984v-.0007h17.10412c.6838 0 1.2477.5639 1.2477 1.2477 0 .6958-.5639 1.2476-1.2477 1.2476z" fill="url(#c)" fill-rule="evenodd"/><path d="m26.6406 21.6501h1.5475v.6958l14.3906.0977 3.9708 2.8552s1.1037.6536 1.4036 1.6973v1.332c0 .5159-.2159 1.0917-.8037 1.6555-1.8715 1.5836-8.9785 2.1591-14.029-1.6438-5.0385-3.8029-6.4798-5.3398-6.4798-5.3398z" fill="url(#d)"/><path d="m42.6247 21.668 3.9708 2.8551s2.7112 1.9914.5998 4.0308c-1.8714 1.5836-9.0251 2.239-14.0757-1.5639-5.0505-3.8029-6.4789-5.322-6.4789-5.322z" fill="#e1e1e1"/><path d="m19.8282 12.162c-.3247 0-.5878-.2632-.5878-.5878 0-.3247.2631-.5879.5878-.5879.3246 0 .5878.2632.5878.5879 0 .3246-.2632.5878-.5878.5878z" fill="#fff"/></g></svg>