<svg xmlns="http://www.w3.org/2000/svg" width="16" height="16" fill="none" viewBox="0 0 16 16">
    <g clip-path="url(#a)">
        <path
            fill="url(#b)"
            d="M11.34 1.898 1.673 8.024l-.83-1.311v-1.13c0-.411.208-.795.553-1.019L7.015.918a2.586 2.586 0 0 1 2.814 0l1.51.98Z"
        />
        <path
            fill="url(#c)"
            d="m9.743.866.086.053 4.385 2.845-10.872 6.891-1.668-2.632 7.979-5.067c.755-.48.789-1.56.09-2.09Z"
        />
        <path
            fill="url(#d)"
            d="m9.743.866.086.053 4.385 2.845-10.872 6.891-1.668-2.632 7.979-5.067c.755-.48.789-1.56.09-2.09Z"
        />
        <path
            fill="url(#e)"
            d="m7.68 11.97-4.338-1.315 9.223-5.846a1.251 1.251 0 0 0-.004-2.116l-.042-.026.12.074 2.807 1.821c.345.224.553.607.553 1.019v1.094L7.68 11.97Z"
        />
        <path
            fill="url(#f)"
            d="m7.68 11.97-4.338-1.315 9.223-5.846a1.251 1.251 0 0 0-.004-2.116l-.042-.026.12.074 2.807 1.821c.345.224.553.607.553 1.019v1.094L7.68 11.97Z"
        />
        <path
            fill="url(#g)"
            d="M9.83.918a2.586 2.586 0 0 0-2.815 0L1.396 4.564a1.214 1.214 0 0 0-.553 1.019v.055c.013.413.23.794.582 1.015l6.986 4.404 7.003-4.397a1.25 1.25 0 0 0 .585-1.057v1.071V5.58c0-.411-.208-.795-.554-1.019L9.83.918Z"
        />
        <path
            fill="url(#h)"
            d="M7.18 15.648h6.187A2.631 2.631 0 0 0 16 13.017V5.602c0 .43-.221.829-.585 1.057L6.21 12.44a1.704 1.704 0 0 0-.798 1.443c0 .975.791 1.766 1.767 1.766Z"
        />
        <path
            fill="url(#i)"
            d="M7.18 15.648h6.187A2.631 2.631 0 0 0 16 13.017V5.602c0 .43-.221.829-.585 1.057L6.21 12.44a1.704 1.704 0 0 0-.798 1.443c0 .975.791 1.766 1.767 1.766Z"
        />
        <path
            fill="url(#j)"
            d="M7.18 15.648h6.187A2.631 2.631 0 0 0 16 13.017V5.602c0 .43-.221.829-.585 1.057L6.21 12.44a1.704 1.704 0 0 0-.798 1.443c0 .975.791 1.766 1.767 1.766Z"
        />
        <path
            fill="url(#k)"
            d="M9.695 15.649H3.473a2.632 2.632 0 0 1-2.631-2.631v-7.42c0 .428.22.827.582 1.056l9.195 5.796a1.733 1.733 0 0 1-.924 3.199Z"
        />
        <path
            fill="url(#l)"
            d="M9.695 15.649H3.473a2.632 2.632 0 0 1-2.631-2.631v-7.42c0 .428.22.827.582 1.056l9.195 5.796a1.733 1.733 0 0 1-.924 3.199Z"
        />
        <path
            fill="url(#m)"
            d="M1.368 7.647h4c.756 0 1.369.612 1.369 1.368v4c0 .756-.613 1.368-1.369 1.368h-4A1.368 1.368 0 0 1 0 13.015v-4c0-.756.613-1.368 1.368-1.368Z"
        />
        <path
            fill="url(#n)"
            d="M1.368 7.647h4c.756 0 1.369.612 1.369 1.368v4c0 .756-.613 1.368-1.369 1.368h-4A1.368 1.368 0 0 1 0 13.015v-4c0-.756.613-1.368 1.368-1.368Z"
        />
        <path
            fill="#fff"
            d="M3.351 12.953c-.557 0-1.014-.174-1.372-.522-.357-.349-.536-.804-.536-1.365 0-.592.182-1.071.544-1.437.364-.366.839-.55 1.426-.55.556 0 1.007.176 1.356.526.35.35.526.812.526 1.385 0 .59-.182 1.064-.545 1.425-.361.359-.827.538-1.399.538Zm.016-.74a.935.935 0 0 0 .734-.31c.185-.208.277-.496.277-.866 0-.385-.09-.684-.27-.899a.892.892 0 0 0-.719-.321.932.932 0 0 0-.747.332c-.188.22-.282.51-.282.873 0 .367.094.659.282.873a.93.93 0 0 0 .725.319Z"
        />
        <path
            fill="#fff"
            d="M3.35 13.005c-.555 0-1.01-.179-1.367-.537-.356-.358-.534-.825-.534-1.401 0-.609.18-1.101.542-1.477.362-.376.835-.564 1.42-.564.553 0 1.004.18 1.35.54.35.36.524.834.524 1.423 0 .605-.18 1.093-.542 1.463-.36.369-.824.553-1.393.553Zm.016-.76a.919.919 0 0 0 .73-.319c.184-.213.277-.51.277-.889 0-.395-.09-.703-.269-.923a.877.877 0 0 0-.717-.33.917.917 0 0 0-.744.34c-.187.226-.281.525-.281.897 0 .378.094.677.281.897a.91.91 0 0 0 .723.328Z"
        />
    </g>
    <defs>
        <linearGradient id="b" x1="2.522" x2="11.339" y1="7.38" y2="1.911" gradientUnits="userSpaceOnUse">
            <stop stop-color="#20A7FA" />
            <stop offset=".4" stop-color="#3BD5FF" />
            <stop offset="1" stop-color="#C4B0FF" />
        </linearGradient>
        <linearGradient id="c" x1="5.556" x2="10.465" y1="9.246" y2="1.386" gradientUnits="userSpaceOnUse">
            <stop stop-color="#165AD9" />
            <stop offset=".501" stop-color="#1880E5" />
            <stop offset="1" stop-color="#8587FF" />
        </linearGradient>
        <linearGradient id="d" x1="9.137" x2="3.687" y1="9.353" y2="4.913" gradientUnits="userSpaceOnUse">
            <stop offset=".237" stop-color="#448AFF" stop-opacity="0" />
            <stop offset=".792" stop-color="#0032B1" stop-opacity=".2" />
        </linearGradient>
        <linearGradient id="e" x1="8.443" x2="17.056" y1="11.063" y2="5.551" gradientUnits="userSpaceOnUse">
            <stop stop-color="#1A43A6" />
            <stop offset=".492" stop-color="#2052CB" />
            <stop offset="1" stop-color="#5F20CB" />
        </linearGradient>
        <linearGradient id="f" x1="10.875" x2="5.641" y1="10.733" y2="6.205" gradientUnits="userSpaceOnUse">
            <stop stop-color="#0045B9" stop-opacity="0" />
            <stop offset=".67" stop-color="#0D1F69" stop-opacity=".2" />
        </linearGradient>
        <linearGradient id="h" x1="15.999" x2="8.358" y1="10.571" y2="10.571" gradientUnits="userSpaceOnUse">
            <stop stop-color="#4DC4FF" />
            <stop offset=".196" stop-color="#0FAFFF" />
        </linearGradient>
        <linearGradient id="l" x1="-.229" x2="7.128" y1="13.91" y2="13.905" gradientUnits="userSpaceOnUse">
            <stop offset=".206" stop-color="#6CE0FF" />
            <stop offset=".535" stop-color="#50D5FF" stop-opacity="0" />
        </linearGradient>
        <radialGradient
            id="g"
            cx="0"
            cy="0"
            r="1"
            gradientTransform="matrix(0 -11.3692 12.3053 0 8.421 .834)"
            gradientUnits="userSpaceOnUse"
        >
            <stop offset=".568" stop-color="#275FF0" stop-opacity="0" />
            <stop offset=".992" stop-color="#002177" />
        </radialGradient>
        <radialGradient
            id="i"
            cx="0"
            cy="0"
            r="1"
            gradientTransform="rotate(-45 21.882 -5.282) scale(4.87225)"
            gradientUnits="userSpaceOnUse"
        >
            <stop offset=".259" stop-color="#0060D1" stop-opacity=".4" />
            <stop offset=".908" stop-color="#0383F1" stop-opacity="0" />
        </radialGradient>
        <radialGradient
            id="j"
            cx="0"
            cy="0"
            r="1"
            gradientTransform="matrix(10.03215 -13.14893 11.88993 9.07158 2.792 17.53)"
            gradientUnits="userSpaceOnUse"
        >
            <stop offset=".732" stop-color="#F4A7F7" stop-opacity="0" />
            <stop offset="1" stop-color="#F4A7F7" stop-opacity=".502" />
        </radialGradient>
        <radialGradient
            id="k"
            cx="0"
            cy="0"
            r="1"
            gradientTransform="matrix(-4.79593 7.29028 -18.91914 -12.446 6.135 9.556)"
            gradientUnits="userSpaceOnUse"
        >
            <stop stop-color="#49DEFF" />
            <stop offset=".724" stop-color="#29C3FF" />
        </radialGradient>
        <radialGradient
            id="m"
            cx="0"
            cy="0"
            r="1"
            gradientTransform="rotate(46.924 -9.12 3.925) scale(8.86782)"
            gradientUnits="userSpaceOnUse"
        >
            <stop offset=".039" stop-color="#0091FF" />
            <stop offset=".919" stop-color="#183DAD" />
        </radialGradient>
        <radialGradient
            id="n"
            cx="0"
            cy="0"
            r="1"
            gradientTransform="matrix(0 4.71562 -5.4393 0 3.368 11.75)"
            gradientUnits="userSpaceOnUse"
        >
            <stop offset=".558" stop-color="#0FA5F7" stop-opacity="0" />
            <stop offset="1" stop-color="#74C6FF" stop-opacity=".502" />
        </radialGradient>
        <clipPath id="a">
            <path fill="#fff" d="M0 .5h16v15.148H0z" />
        </clipPath>
    </defs>
</svg>
