<svg fill="none" height="22" viewBox="0 0 76 22" width="76" xmlns="http://www.w3.org/2000/svg">
    <g fill="#5f00d2">
        <path
            d="m.00006104 5.97234h4.50283896l2.62195 6.70796 2.65598-6.70796h4.38427l-6.60173 15.88006h-4.41204l1.80711-4.208z"
        />
        <path
            d="m18.7323 5.70534c-3.3832 0-5.522 3.0342-5.522 6.05576 0 3.4002 2.3449 6.0959 5.4578 6.0959 2.3221 0 3.1976-1.4148 3.1976-1.4148v1.1021h3.9274v-11.57185h-3.9274v1.05199s-.9768-1.3191-3.1334-1.3191zm.8353 3.71874c1.5611 0 2.3666 1.23522 2.3666 2.34972 0 1.2002-.863 2.378-2.3666 2.378-1.2461 0-2.3722-1.0184-2.3722-2.3269 0-1.327.9058-2.40082 2.3722-2.40082z"
        />
        <path
            d="m27.1452 17.5444v-16.681515h4.1077v6.201775s.9757-1.35773 3.0192-1.35773c2.4996 0 3.964 1.86239 3.964 4.52367v7.3138h-4.0777v-6.3119c0-.9007-.429-1.7707-1.4007-1.7707-.9892 0-1.5048.8832-1.5048 1.7707v6.3119z"
        />
        <path
            d="m45.2404 5.70701c-3.8744 0-6.1814 2.9461-6.1814 6.10259 0 3.5921 2.7933 6.0477 6.1961 6.0477 3.2982 0 6.1842-2.3442 6.1842-5.9875 0-3.98638-3.0218-6.16279-6.1989-6.16279zm.037 3.75143c1.3686 0 2.3155 1.13986 2.3155 2.35546 0 1.0367-.8823 2.3155-2.3155 2.3155-1.3131 0-2.2986-1.0534-2.2986-2.3269 0-1.2268.8193-2.34406 2.2986-2.34406z"
        />
        <path
            d="m58.2828 5.70701c-3.8744 0-6.1814 2.9461-6.1814 6.10259 0 3.5921 2.7933 6.0477 6.1961 6.0477 3.2982 0 6.1842-2.3442 6.1842-5.9875 0-3.98638-3.0218-6.16279-6.1989-6.16279zm.037 3.75143c1.3686 0 2.3155 1.13986 2.3155 2.35546 0 1.0367-.8823 2.3155-2.3155 2.3155-1.3132 0-2.2986-1.0534-2.2986-2.3269 0-1.2268.8193-2.34406 2.2986-2.34406z"
        />
        <path
            d="m67.7219 17.7901c1.5065 0 2.7277-1.2212 2.7277-2.7277s-1.2212-2.7277-2.7277-2.7277c-1.5064 0-2.7277 1.2212-2.7277 2.7277s1.2213 2.7277 2.7277 2.7277z"
        />
        <path d="m71.3469 11.3327h-4.9106l4.3583-10.469815h4.8922z" />
    </g>
</svg>
