<svg width="36" height="36" viewBox="0 0 36 36" fill="none" xmlns="http://www.w3.org/2000/svg">
    <g clip-path="url(#clip0_7292_2750)">
        <path d="M0 0H36V36H0V0Z" fill="#704CFF" />
        <mask
            id="mask0_7292_2750"
            style="mask-type: alpha"
            maskUnits="userSpaceOnUse"
            x="0"
            y="0"
            width="36"
            height="36"
        >
            <path d="M0 0H36V36H0V0Z" fill="black" />
        </mask>
        <g mask="url(#mask0_7292_2750)">
            <circle cx="20" cy="20" r="20" transform="matrix(-1 0 0 1 20 -20)" fill="url(#paint0_radial_7292_2750)" />
            <circle cx="20" cy="20" r="20" transform="matrix(-1 0 0 1 56 -20)" fill="url(#paint1_radial_7292_2750)" />
            <circle cx="20" cy="20" r="20" transform="matrix(-1 0 0 1 20 16)" fill="url(#paint2_radial_7292_2750)" />
            <circle cx="20" cy="20" r="20" transform="matrix(-1 0 0 1 56 16)" fill="url(#paint3_radial_7292_2750)" />
        </g>
        <path d="M15.5 25.1L20.5 21.2H15.5V25.1Z" fill="url(#paint4_linear_7292_2750)" />
        <path
            d="M4.5 18.8498V27.2675C4.5 28.2243 5.25767 29 6.19231 29L13.5705 29.0001V10.3L5.10892 17.5189C4.72309 17.848 4.5 18.3356 4.5 18.8498Z"
            fill="url(#paint5_linear_7292_2750)"
        />
        <path
            d="M8 15.9513C8 15.4372 8.21971 14.9495 8.59969 14.6204L16.933 7.40156C17.5511 6.86615 18.4489 6.86615 19.067 7.40156L27.4003 14.6204C27.7803 14.9495 28 15.4372 28 15.9513V27.2675C28 28.2243 27.2538 29 26.3333 29H20.5V21.5502C20.5 21.3588 20.3508 21.2037 20.1667 21.2037H15.8333C15.6492 21.2037 15.5 21.3588 15.5 21.5502V29H9.66667C8.74619 29 8 28.2243 8 27.2675V15.9513Z"
            fill="white"
        />
    </g>
    <defs>
        <radialGradient
            id="paint0_radial_7292_2750"
            cx="0"
            cy="0"
            r="1"
            gradientUnits="userSpaceOnUse"
            gradientTransform="translate(20 20) rotate(90) scale(20)"
        >
            <stop stop-color="#FF62C0" />
            <stop offset="1" stop-color="#FF62C0" stop-opacity="0" />
        </radialGradient>
        <radialGradient
            id="paint1_radial_7292_2750"
            cx="0"
            cy="0"
            r="1"
            gradientUnits="userSpaceOnUse"
            gradientTransform="translate(20 20) rotate(90) scale(20)"
        >
            <stop stop-color="#15ADFF" />
            <stop offset="1" stop-color="#15ADFF" stop-opacity="0" />
        </radialGradient>
        <radialGradient
            id="paint2_radial_7292_2750"
            cx="0"
            cy="0"
            r="1"
            gradientUnits="userSpaceOnUse"
            gradientTransform="translate(20 20) rotate(90) scale(20)"
        >
            <stop stop-color="#24ECC6" />
            <stop offset="1" stop-color="#24ECC6" stop-opacity="0" />
        </radialGradient>
        <radialGradient
            id="paint3_radial_7292_2750"
            cx="0"
            cy="0"
            r="1"
            gradientUnits="userSpaceOnUse"
            gradientTransform="translate(20 20) rotate(90) scale(20)"
        >
            <stop stop-color="#FFD583" />
            <stop offset="1" stop-color="#FFD583" stop-opacity="0" />
        </radialGradient>
        <linearGradient id="paint4_linear_7292_2750" x1="20.5" y1="22" x2="10" y2="19" gradientUnits="userSpaceOnUse">
            <stop stop-color="#E3D9FF" />
            <stop offset="1" stop-color="#7341FF" stop-opacity="0" />
        </linearGradient>
        <linearGradient
            id="paint5_linear_7292_2750"
            x1="27.2596"
            y1="41.1234"
            x2="15.9057"
            y2="-3.2294"
            gradientUnits="userSpaceOnUse"
        >
            <stop offset="0.271" stop-color="#E3D9FF" />
            <stop offset="1" stop-color="#7341FF" stop-opacity="0" />
        </linearGradient>
        <clipPath id="clip0_7292_2750">
            <rect width="36" height="36" fill="white" />
        </clipPath>
    </defs>
</svg>
