<svg width="36" height="36" viewBox="0 0 36 36" fill="none" xmlns="http://www.w3.org/2000/svg">
    <g clip-path="url(#clip0_8086_1528)">
        <path d="M0 0H36V36H0V0Z" fill="#1B1340" />
        <mask
            id="mask0_8086_1528"
            style="mask-type: alpha"
            maskUnits="userSpaceOnUse"
            x="0"
            y="0"
            width="36"
            height="36"
        >
            <path d="M0 0H36V36H0V0Z" fill="black" />
        </mask>
        <g mask="url(#mask0_8086_1528)">
            <circle
                opacity="0.8"
                cx="20"
                cy="20"
                r="20"
                transform="matrix(-1 0 0 1 20 -20)"
                fill="url(#paint0_radial_8086_1528)"
            />
            <circle
                opacity="0.8"
                cx="20"
                cy="20"
                r="20"
                transform="matrix(-1 0 0 1 56 -20)"
                fill="url(#paint1_radial_8086_1528)"
            />
            <circle
                opacity="0.8"
                cx="20"
                cy="20"
                r="20"
                transform="matrix(-1 0 0 1 20 16)"
                fill="url(#paint2_radial_8086_1528)"
            />
            <circle
                opacity="0.8"
                cx="20"
                cy="20"
                r="20"
                transform="matrix(-1 0 0 1 56 16)"
                fill="url(#paint3_radial_8086_1528)"
            />
        </g>
        <path
            fill-rule="evenodd"
            clip-rule="evenodd"
            d="M5.97331 13.2233C3.34223 15.8544 3.34223 20.1202 5.97331 22.7513C8.60439 25.3824 12.8702 25.3824 15.5013 22.7513L18 20.2526L20.4987 22.7513C23.1298 25.3824 27.3956 25.3824 30.0267 22.7513C32.6578 20.1202 32.6578 15.8544 30.0267 13.2233C27.3956 10.5922 23.1298 10.5922 20.4987 13.2233L18 15.722L15.5013 13.2233C12.8702 10.5922 8.60439 10.5922 5.97331 13.2233ZM8.25343 20.4712C6.88162 19.0994 6.88162 16.8752 8.25343 15.5034C9.62524 14.1316 11.8494 14.1316 13.2212 15.5034L15.7051 17.9873L13.2212 20.4712C11.8494 21.843 9.62524 21.843 8.25343 20.4712ZM22.7788 20.4712C24.1506 21.843 26.3748 21.843 27.7466 20.4712C29.1184 19.0994 29.1184 16.8752 27.7466 15.5034C26.3748 14.1316 24.1506 14.1316 22.7788 15.5034L20.2949 17.9873L22.7788 20.4712Z"
            fill="white"
        />
        <path
            opacity="0.4"
            d="M9.62402 14.6546C10.8466 14.2469 12.2488 14.5296 13.2221 15.5029L15.706 17.9868L18.0174 15.738L18.0009 15.7215L15.5022 13.2228C14.6993 12.4198 13.7441 11.8619 12.7296 11.5491L9.62402 14.6546Z"
            fill="url(#paint4_linear_8086_1528)"
        />
        <path
            opacity="0.4"
            d="M23.621 24.5208L27.2783 20.8635C25.9079 21.8255 24.0039 21.6942 22.7792 20.4695L20.2953 17.9856L18.0004 20.2509L20.4991 22.7496C21.3936 23.6441 22.4771 24.2345 23.621 24.5208Z"
            fill="url(#paint5_linear_8086_1528)"
        />
    </g>
    <defs>
        <radialGradient
            id="paint0_radial_8086_1528"
            cx="0"
            cy="0"
            r="1"
            gradientUnits="userSpaceOnUse"
            gradientTransform="translate(20 20) rotate(90) scale(20)"
        >
            <stop stop-color="#FF62C0" />
            <stop offset="1" stop-color="#FF62C0" stop-opacity="0" />
        </radialGradient>
        <radialGradient
            id="paint1_radial_8086_1528"
            cx="0"
            cy="0"
            r="1"
            gradientUnits="userSpaceOnUse"
            gradientTransform="translate(20 20) rotate(90) scale(20)"
        >
            <stop stop-color="#15ADFF" />
            <stop offset="1" stop-color="#15ADFF" stop-opacity="0" />
        </radialGradient>
        <radialGradient
            id="paint2_radial_8086_1528"
            cx="0"
            cy="0"
            r="1"
            gradientUnits="userSpaceOnUse"
            gradientTransform="translate(20 20) rotate(90) scale(20)"
        >
            <stop stop-color="#24ECC6" />
            <stop offset="1" stop-color="#24ECC6" stop-opacity="0" />
        </radialGradient>
        <radialGradient
            id="paint3_radial_8086_1528"
            cx="0"
            cy="0"
            r="1"
            gradientUnits="userSpaceOnUse"
            gradientTransform="translate(20 20) rotate(90) scale(20)"
        >
            <stop stop-color="#FFD583" />
            <stop offset="1" stop-color="#FFD583" stop-opacity="0" />
        </radialGradient>
        <linearGradient
            id="paint4_linear_8086_1528"
            x1="13.1641"
            y1="13.8919"
            x2="16.6702"
            y2="17.2232"
            gradientUnits="userSpaceOnUse"
        >
            <stop stop-opacity="0" />
            <stop offset="1" />
        </linearGradient>
        <linearGradient
            id="paint5_linear_8086_1528"
            x1="19.2096"
            y1="19.1303"
            x2="22.4342"
            y2="21.9518"
            gradientUnits="userSpaceOnUse"
        >
            <stop />
            <stop offset="1" stop-opacity="0" />
        </linearGradient>
        <clipPath id="clip0_8086_1528">
            <rect width="36" height="36" fill="white" />
        </clipPath>
    </defs>
</svg>
