<svg width="36" height="36" viewBox="0 0 36 36" fill="none" xmlns="http://www.w3.org/2000/svg">
    <g clip-path="url(#clip0_7292_2406)">
        <rect width="36" height="36" fill="white" />
        <rect width="36" height="36" fill="url(#paint0_linear_7292_2406)" fill-opacity="0.25" />
        <path
            d="M21.6648 9.92247L24.292 8.23519C25.2029 7.65016 26.4117 8.2146 26.5498 9.28777L27.1857 14.2394L21.6636 9.92247H21.6648Z"
            fill="#6D4AFF"
        />
        <path
            d="M14.5329 9.92247L11.9056 8.23519C10.9948 7.65016 9.78595 8.2146 9.64787 9.28777L9.01196 14.2394L14.5341 9.92247H14.5329Z"
            fill="#6D4AFF"
        />
        <path
            d="M11.1801 10.2253L12.4556 11.0453L10.3759 12.4431L10.6278 10.4821C10.6617 10.2193 10.9573 10.0824 11.1789 10.2253H11.1801Z"
            fill="#4A2DC5"
        />
        <path
            d="M24.82 10.2253L23.5446 11.0453L25.6243 12.4431L25.3723 10.4821C25.3384 10.2193 25.0429 10.0824 24.8212 10.2253H24.82Z"
            fill="#4A2DC5"
        />
        <path d="M25.0852 23.8919H10.9148V27.6008H25.0852V23.8919Z" fill="#4129A3" />
        <path
            d="M18.3675 31.0262C19.6773 31.0262 20.7391 29.9644 20.7391 28.6546C20.7391 27.3448 19.6773 26.283 18.3675 26.283C17.0577 26.283 15.9958 27.3448 15.9958 28.6546C15.9958 29.9644 17.0577 31.0262 18.3675 31.0262Z"
            fill="#FC8F00"
        />
        <path d="M17.4833 31.0251H18.3917V26.283H17.4833V31.0251Z" fill="#FC8F00" />
        <path
            d="M17.4833 31.0262C18.7931 31.0262 19.855 29.9644 19.855 28.6545C19.855 27.3447 18.7931 26.2829 17.4833 26.2829C16.1735 26.2829 15.1117 27.3447 15.1117 28.6545C15.1117 29.9644 16.1735 31.0262 17.4833 31.0262Z"
            fill="#FFAC2E"
        />
        <path
            d="M17.4833 29.0446C17.8907 29.0446 18.2209 28.7144 18.2209 28.307C18.2209 27.8996 17.8907 27.5693 17.4833 27.5693C17.0759 27.5693 16.7456 27.8996 16.7456 28.307C16.7456 28.7144 17.0759 29.0446 17.4833 29.0446Z"
            fill="#372580"
        />
        <path
            d="M17.4834 29.4613V28.307"
            stroke="#372580"
            stroke-width="0.872543"
            stroke-miterlimit="10"
            stroke-linecap="round"
        />
        <path
            d="M28.9988 19.4284C28.9988 24.4818 23.0019 26.2829 17.9994 26.2829C13.6025 26.2829 7 24.4818 7 19.4284C7 14.3751 11.925 9.26724 18.0006 9.26724C24.0763 9.26724 29 14.3751 29 19.4284H28.9988Z"
            fill="#6D4AFF"
        />
        <path
            d="M23.3927 21.0773C25.2115 20.2929 26.1215 18.3483 25.4253 16.7341C24.7291 15.1198 22.6902 14.4471 20.8714 15.2315C19.0526 16.0159 18.1425 17.9605 18.8387 19.5748C19.535 21.1891 21.5738 21.8618 23.3927 21.0773Z"
            fill="white"
        />
        <path
            d="M15.2013 19.5735C15.8975 17.9592 14.9875 16.0146 13.1687 15.2302C11.3498 14.4458 9.31097 15.1185 8.61475 16.7328C7.91853 18.347 8.82858 20.2916 10.6474 21.076C12.4662 21.8605 14.5051 21.1878 15.2013 19.5735Z"
            fill="white"
        />
        <path
            d="M23.4731 20.1249C24.136 20.1249 24.6734 19.2491 24.6734 18.1687C24.6734 17.0883 24.136 16.2125 23.4731 16.2125C22.8101 16.2125 22.2727 17.0883 22.2727 18.1687C22.2727 19.2491 22.8101 20.1249 23.4731 20.1249Z"
            fill="#4129A3"
        />
        <path
            d="M15.308 17.5679C14.3088 15.1394 10.6532 14.2115 9.00952 16.4475C8.49716 17.1573 8.3724 18.0754 8.57105 18.9366C7.87216 17.6261 8.40026 15.9424 9.65875 15.1769C11.7143 13.8336 14.8998 15.1297 15.308 17.5691V17.5679Z"
            fill="#372480"
        />
        <path
            d="M18.7311 17.5679C19.1393 15.1284 22.3249 13.8336 24.3804 15.1757C25.6389 15.9412 26.167 17.626 25.4681 18.9354C25.6679 18.0754 25.542 17.1561 25.0296 16.4463C23.3859 14.2103 19.7304 15.1381 18.7311 17.5667V17.5679Z"
            fill="#372480"
        />
        <path
            d="M15.9186 21.0006C16.3207 21.0006 16.6453 21.3264 16.6453 21.7273"
            stroke="white"
            stroke-width="0.385399"
            stroke-miterlimit="10"
            stroke-linecap="round"
        />
        <path
            d="M17.3731 21.0006C16.971 21.0006 16.6464 21.3264 16.6464 21.7273"
            stroke="white"
            stroke-width="0.385399"
            stroke-miterlimit="10"
            stroke-linecap="round"
        />
        <path
            opacity="0.7"
            d="M24.2047 17.3438C24.4549 17.3438 24.6577 17.141 24.6577 16.8908C24.6577 16.6406 24.4549 16.4378 24.2047 16.4378C23.9545 16.4378 23.7517 16.6406 23.7517 16.8908C23.7517 17.141 23.9545 17.3438 24.2047 17.3438Z"
            fill="white"
        />
        <path
            d="M13.1228 20.1249C13.7858 20.1249 14.3232 19.2491 14.3232 18.1687C14.3232 17.0883 13.7858 16.2125 13.1228 16.2125C12.4599 16.2125 11.9225 17.0883 11.9225 18.1687C11.9225 19.2491 12.4599 20.1249 13.1228 20.1249Z"
            fill="#4129A3"
        />
        <path
            opacity="0.7"
            d="M13.8557 17.3438C14.1059 17.3438 14.3087 17.141 14.3087 16.8908C14.3087 16.6406 14.1059 16.4378 13.8557 16.4378C13.6055 16.4378 13.4027 16.6406 13.4027 16.8908C13.4027 17.141 13.6055 17.3438 13.8557 17.3438Z"
            fill="white"
        />
    </g>
    <defs>
        <linearGradient
            id="paint0_linear_7292_2406"
            x1="36"
            y1="42.2778"
            x2="19.1922"
            y2="-1.82629"
            gradientUnits="userSpaceOnUse"
        >
            <stop stop-color="#FBCB83" />
            <stop offset="1" stop-color="white" stop-opacity="0" />
        </linearGradient>
        <clipPath id="clip0_7292_2406">
            <rect width="36" height="36" fill="white" />
        </clipPath>
    </defs>
</svg>
