<svg width="36" height="36" viewBox="0 0 36 36" fill="none" xmlns="http://www.w3.org/2000/svg">
    <g clip-path="url(#clip0_5041_34693)">
        <path d="M0 0H36V36H0V0Z" fill="#1B1340" />
        <mask
            id="mask0_5041_34693"
            style="mask-type: alpha"
            maskUnits="userSpaceOnUse"
            x="0"
            y="0"
            width="36"
            height="36"
        >
            <path d="M0 0H36V36H0V0Z" fill="black" />
        </mask>
        <g mask="url(#mask0_5041_34693)">
            <circle
                opacity="0.8"
                cx="20"
                cy="20"
                r="20"
                transform="matrix(-1 0 0 1 20 -20)"
                fill="url(#paint0_radial_5041_34693)"
            />
            <circle
                opacity="0.8"
                cx="20"
                cy="20"
                r="20"
                transform="matrix(-1 0 0 1 56 -20)"
                fill="url(#paint1_radial_5041_34693)"
            />
            <circle
                opacity="0.8"
                cx="20"
                cy="20"
                r="20"
                transform="matrix(-1 0 0 1 20 16)"
                fill="url(#paint2_radial_5041_34693)"
            />
            <circle
                opacity="0.8"
                cx="20"
                cy="20"
                r="20"
                transform="matrix(-1 0 0 1 56 16)"
                fill="url(#paint3_radial_5041_34693)"
            />
        </g>
        <path
            fill-rule="evenodd"
            clip-rule="evenodd"
            d="M5.97331 13.2233C3.34223 15.8544 3.34223 20.1202 5.97331 22.7513C8.60439 25.3824 12.8702 25.3824 15.5013 22.7513L18 20.2526L20.4987 22.7513C23.1298 25.3824 27.3956 25.3824 30.0267 22.7513C32.6578 20.1202 32.6578 15.8544 30.0267 13.2233C27.3956 10.5922 23.1298 10.5922 20.4987 13.2233L18 15.722L15.5013 13.2233C12.8702 10.5922 8.60439 10.5922 5.97331 13.2233ZM8.25343 20.4712C6.88162 19.0994 6.88162 16.8752 8.25343 15.5034C9.62524 14.1316 11.8494 14.1316 13.2212 15.5034L15.7051 17.9873L13.2212 20.4712C11.8494 21.843 9.62524 21.843 8.25343 20.4712ZM22.7788 20.4712C24.1506 21.843 26.3748 21.843 27.7466 20.4712C29.1184 19.0994 29.1184 16.8752 27.7466 15.5034C26.3748 14.1316 24.1506 14.1316 22.7788 15.5034L20.2949 17.9873L22.7788 20.4712Z"
            fill="white"
        />
        <path
            opacity="0.4"
            d="M9.625 14.6549C10.8475 14.2471 12.2498 14.5299 13.2231 15.5031L15.7069 17.987L18.0184 15.7382L18.0019 15.7217L15.5032 13.223C14.7002 12.4201 13.745 11.8622 12.7305 11.5493L9.625 14.6549Z"
            fill="url(#paint4_linear_5041_34693)"
        />
        <path
            opacity="0.4"
            d="M23.6206 24.521L27.2779 20.8638C25.9075 21.8257 24.0035 21.6944 22.7788 20.4697L20.2949 17.9858L18 20.2511L20.4987 22.7498C21.3932 23.6443 22.4767 24.2347 23.6206 24.521Z"
            fill="url(#paint5_linear_5041_34693)"
        />
    </g>
    <defs>
        <radialGradient
            id="paint0_radial_5041_34693"
            cx="0"
            cy="0"
            r="1"
            gradientUnits="userSpaceOnUse"
            gradientTransform="translate(20 20) rotate(90) scale(20)"
        >
            <stop stop-color="#FF62C0" />
            <stop offset="1" stop-color="#FF62C0" stop-opacity="0" />
        </radialGradient>
        <radialGradient
            id="paint1_radial_5041_34693"
            cx="0"
            cy="0"
            r="1"
            gradientUnits="userSpaceOnUse"
            gradientTransform="translate(20 20) rotate(90) scale(20)"
        >
            <stop stop-color="#15ADFF" />
            <stop offset="1" stop-color="#15ADFF" stop-opacity="0" />
        </radialGradient>
        <radialGradient
            id="paint2_radial_5041_34693"
            cx="0"
            cy="0"
            r="1"
            gradientUnits="userSpaceOnUse"
            gradientTransform="translate(20 20) rotate(90) scale(20)"
        >
            <stop stop-color="#24ECC6" />
            <stop offset="1" stop-color="#24ECC6" stop-opacity="0" />
        </radialGradient>
        <radialGradient
            id="paint3_radial_5041_34693"
            cx="0"
            cy="0"
            r="1"
            gradientUnits="userSpaceOnUse"
            gradientTransform="translate(20 20) rotate(90) scale(20)"
        >
            <stop stop-color="#FFD583" />
            <stop offset="1" stop-color="#FFD583" stop-opacity="0" />
        </radialGradient>
        <linearGradient
            id="paint4_linear_5041_34693"
            x1="13.1651"
            y1="13.8922"
            x2="16.6712"
            y2="17.2235"
            gradientUnits="userSpaceOnUse"
        >
            <stop stop-opacity="0" />
            <stop offset="1" />
        </linearGradient>
        <linearGradient
            id="paint5_linear_5041_34693"
            x1="19.2093"
            y1="19.1305"
            x2="22.4338"
            y2="21.952"
            gradientUnits="userSpaceOnUse"
        >
            <stop />
            <stop offset="1" stop-opacity="0" />
        </linearGradient>
        <clipPath id="clip0_5041_34693">
            <rect width="36" height="36" fill="white" />
        </clipPath>
    </defs>
</svg>
