<svg width="36" height="36" viewBox="0 0 36 36" fill="none" xmlns="http://www.w3.org/2000/svg">
    <g clip-path="url(#clip0_7292_2722)">
        <rect width="36" height="36" fill="white" />
        <rect width="36" height="36" fill="url(#paint0_linear_7292_2722)" fill-opacity="0.25" />
        <mask
            id="mask0_7292_2722"
            style="mask-type: luminance"
            maskUnits="userSpaceOnUse"
            x="6"
            y="7"
            width="24"
            height="25"
        >
            <path d="M29.5 7H6.5V31.252H29.5V7Z" fill="white" />
        </mask>
        <g mask="url(#mask0_7292_2722)">
            <path
                d="M21.8348 9.02482L24.5815 7.24771C25.5339 6.63153 26.7977 7.22603 26.9421 8.35633L27.6069 13.5716L21.8335 9.02482H21.8348Z"
                fill="url(#paint1_linear_7292_2722)"
            />
            <path
                d="M14.3771 9.02482L11.6304 7.24771C10.678 6.63153 9.4142 7.22603 9.26983 8.35633L8.60498 13.5716L14.3784 9.02482H14.3771Z"
                fill="url(#paint2_linear_7292_2722)"
            />
            <path d="M25.4067 23.7383H10.5913V27.6446H25.4067V23.7383Z" fill="#CCBFFD" />
            <path
                d="M18.3902 31.2507C19.7596 31.2507 20.8698 30.1323 20.8698 28.7528C20.8698 27.3732 19.7596 26.2549 18.3902 26.2549C17.0208 26.2549 15.9106 27.3732 15.9106 28.7528C15.9106 30.1323 17.0208 31.2507 18.3902 31.2507Z"
                fill="#FC8F00"
            />
            <path d="M17.4657 31.252H18.4155V26.2574H17.4657V31.252Z" fill="#FC8F00" />
            <path
                d="M17.4635 31.2507C18.8329 31.2507 19.943 30.1323 19.943 28.7528C19.943 27.3732 18.8329 26.2549 17.4635 26.2549C16.094 26.2549 14.9839 27.3732 14.9839 28.7528C14.9839 30.1323 16.094 31.2507 17.4635 31.2507Z"
                fill="#FFAC2E"
            />
            <path
                d="M17.4607 29.1642C17.8866 29.1642 18.2319 28.8164 18.2319 28.3873C18.2319 27.9582 17.8866 27.6104 17.4607 27.6104C17.0347 27.6104 16.6895 27.9582 16.6895 28.3873C16.6895 28.8164 17.0347 29.1642 17.4607 29.1642Z"
                fill="#372580"
            />
            <path
                d="M16.9819 29.6045V28.3887C16.9819 28.1236 17.1964 27.9092 17.4614 27.9092C17.7265 27.9092 17.9409 28.1236 17.9409 28.3887V29.6045C17.9409 29.8695 17.7265 30.084 17.4614 30.084C17.1964 30.084 16.9819 29.8695 16.9819 29.6045Z"
                fill="#372580"
            />
            <path
                d="M29.5 19.0362C29.5 24.3585 23.2301 26.2556 18 26.2556C13.403 26.2556 6.5 24.3585 6.5 19.0362C6.5 13.7138 11.6491 8.33398 18 8.33398C24.3509 8.33398 29.5 13.7138 29.5 19.0362Z"
                fill="#DED6FF"
            />
            <path
                d="M16.3721 21.459C16.3721 21.4545 16.372 21.4498 16.3721 21.4453C16.3649 21.1448 16.1233 20.9053 15.8262 20.9053C15.7091 20.9053 15.6143 20.8104 15.6143 20.6934C15.6143 20.5763 15.7091 20.4814 15.8262 20.4814L15.9258 20.4863C16.1925 20.5136 16.4267 20.649 16.585 20.8477C16.7626 20.6247 17.036 20.4814 17.3438 20.4814C17.4607 20.4816 17.5557 20.5764 17.5557 20.6934C17.5557 20.8103 17.4607 20.9051 17.3438 20.9053C17.0465 20.9053 16.804 21.1447 16.7969 21.4453C16.7969 21.4498 16.7979 21.4545 16.7979 21.459C16.7978 21.576 16.703 21.6709 16.5859 21.6709L16.584 21.6699V21.6709C16.5815 21.6709 16.5787 21.67 16.5762 21.6699C16.5602 21.6692 16.5451 21.6662 16.5303 21.6621C16.4394 21.6383 16.3722 21.5573 16.3721 21.459Z"
                fill="#1B1340"
            />
            <path
                d="M22.0381 21.1674C21.426 21.157 20.8229 21.0878 20.2524 20.8401C19.3548 20.4505 18.8041 19.7222 18.4352 18.8202C18.1153 18.0381 17.9534 17.2171 17.8691 16.376C17.8348 16.0328 17.6737 15.8898 17.3434 15.8852C17.1626 15.8828 16.9819 15.8838 16.8012 15.8844C16.3888 15.886 16.2452 16.036 16.2078 16.4627C16.1264 17.3938 15.9096 18.2882 15.5099 19.1313C14.9661 20.278 14.079 20.9197 12.8608 21.0908C12.1482 21.1909 11.4408 21.1993 10.7363 21.0296C9.68385 20.7759 8.97818 20.1216 8.61426 19.0687C8.35605 18.3217 8.239 17.5461 8.16658 16.7603C8.1381 16.4512 8.00639 16.3088 7.70756 16.2715C7.17307 16.2051 7.21484 16.0793 7.21791 15.671C7.21968 15.4493 7.21734 15.2275 7.21868 15.006C7.22006 14.783 7.28685 14.6887 7.49691 14.6466C8.20819 14.5039 8.91885 14.3571 9.63282 14.23C10.4342 14.0871 11.2421 13.9997 12.0568 14.0258C13.196 14.0625 14.3167 14.2414 15.4091 14.5738C16.157 14.8014 16.9168 14.8554 17.6804 14.7806C18.115 14.7382 18.5417 14.596 18.9689 14.4859C20.1294 14.1872 21.3022 13.9666 22.5017 14.0324C23.2636 14.0743 24.0247 14.1688 24.7807 14.2799C25.3901 14.3694 25.9923 14.5146 26.596 14.6434C26.8305 14.6935 26.8875 14.7808 26.8867 15.0211C26.8858 15.3167 26.8854 15.6124 26.8825 15.908C26.8806 16.1106 26.8016 16.2031 26.6091 16.2378C26.4968 16.2579 26.3836 16.2737 26.2731 16.3012C26.0693 16.352 25.9727 16.4741 25.9394 16.69C25.8462 17.2951 25.7721 17.9047 25.6479 18.5029C25.5381 19.0316 25.3498 19.5375 25.0265 19.9765C24.6245 20.5222 24.0798 20.8429 23.4481 20.9883C22.9869 21.0946 22.5121 21.137 22.0433 21.2081C22.0415 21.1945 22.0398 21.181 22.0381 21.1674ZM21.617 14.7264C21.617 14.7246 21.617 14.7226 21.617 14.7208C21.5696 14.7234 21.5222 14.7264 21.4747 14.7288C20.522 14.7743 19.8889 15.3907 19.6159 16.2793C19.5777 16.4037 19.6006 16.5245 19.6986 16.6173C19.7984 16.7114 19.912 16.7311 20.0416 16.6861C20.1922 16.6336 20.2435 16.5036 20.2907 16.3678C20.4292 15.9682 20.6764 15.6722 21.0596 15.5097C21.3372 15.3918 21.6306 15.3825 21.926 15.3825C22.1295 15.3825 22.2506 15.2742 22.2624 15.1003C22.2758 14.9021 22.1592 14.7521 21.9578 14.7288C21.8455 14.7156 21.7308 14.7264 21.617 14.7264ZM11.4289 14.7234C11.3957 14.7252 11.3625 14.7276 11.3293 14.7286C10.4282 14.7503 9.76607 15.3791 9.51093 16.2783C9.46183 16.4516 9.53675 16.6035 9.69115 16.6819C9.82094 16.7477 9.98556 16.7068 10.0824 16.5706C10.129 16.505 10.1585 16.4244 10.1868 16.3473C10.3599 15.8752 10.6624 15.546 11.1491 15.4361C11.3185 15.3978 11.4964 15.3962 11.6709 15.3847C11.8773 15.3711 12.0086 15.2624 12.0161 15.0893C12.0248 14.8891 11.8958 14.7439 11.6848 14.725C11.6 14.7174 11.5142 14.7236 11.4289 14.7234ZM26.1029 15.5295C26.2209 15.5277 26.3171 15.4265 26.3175 15.3041C26.3179 15.1677 26.2167 15.0576 26.0902 15.0572C25.9706 15.0568 25.8595 15.1693 25.8608 15.289C25.8622 15.4118 25.9825 15.5313 26.1029 15.5295ZM8.20953 15.3025C8.20569 15.1665 8.0865 15.0495 7.95962 15.0572C7.84331 15.0644 7.75436 15.1685 7.75743 15.2937C7.7607 15.423 7.86506 15.5342 7.97906 15.5303C8.10383 15.5259 8.2128 15.4186 8.20953 15.3025Z"
                fill="#6D4AFF"
            />
            <path
                d="M21.6169 14.7263V14.7207C21.5696 14.7233 21.5222 14.7263 21.4747 14.7287C20.5219 14.7742 19.8888 15.3906 19.6158 16.2792C19.5777 16.4036 19.6006 16.5244 19.6986 16.6172C19.7984 16.7113 19.912 16.731 20.0415 16.686C20.1921 16.6335 20.2435 16.5035 20.2907 16.3677C20.4291 15.9681 20.6764 15.6721 21.0595 15.5096C21.3372 15.3917 21.6306 15.3824 21.926 15.3824C22.1295 15.3824 22.2506 15.2741 22.2623 15.1002C22.2758 14.902 22.1592 14.752 21.9577 14.7287C21.8455 14.7155 21.7307 14.7263 21.6169 14.7263ZM11.4288 14.7233C11.3957 14.7251 11.3624 14.7275 11.3293 14.7285C10.4282 14.7502 9.76604 15.379 9.5109 16.2782C9.4618 16.4515 9.53672 16.6034 9.69112 16.6818C9.82091 16.7476 9.98553 16.7067 10.0824 16.5705C10.129 16.5049 10.1584 16.4243 10.1868 16.3472C10.3598 15.8751 10.6623 15.5459 11.1491 15.436C11.3185 15.3977 11.4964 15.3961 11.6709 15.3846C11.8773 15.371 12.0086 15.2623 12.0161 15.0892C12.0248 14.889 11.8958 14.7438 11.6847 14.7249C11.6 14.7173 11.5141 14.7235 11.4288 14.7233ZM26.1028 15.5294C26.2209 15.5276 26.3171 15.4264 26.3175 15.304C26.3179 15.1676 26.2166 15.0575 26.0901 15.0571C25.9706 15.0567 25.8594 15.1692 25.8608 15.2889C25.8622 15.4117 25.9825 15.5311 26.1028 15.5294ZM8.2095 15.3024C8.20566 15.1664 8.08647 15.0494 7.95959 15.0571C7.84328 15.0643 7.75433 15.1684 7.7574 15.2936C7.76067 15.4228 7.86503 15.5341 7.97903 15.5302C8.1038 15.5258 8.21277 15.4185 8.2095 15.3024Z"
                fill="white"
            />
        </g>
    </g>
    <defs>
        <linearGradient
            id="paint0_linear_7292_2722"
            x1="36"
            y1="42.2778"
            x2="19.1922"
            y2="-1.82629"
            gradientUnits="userSpaceOnUse"
        >
            <stop stop-color="#FBCB83" />
            <stop offset="1" stop-color="white" stop-opacity="0" />
        </linearGradient>
        <linearGradient id="paint1_linear_7292_2722" x1="26" y1="7" x2="24" y2="10" gradientUnits="userSpaceOnUse">
            <stop offset="0.0912181" stop-color="#AE9CFA" />
            <stop offset="1" stop-color="#DED6FF" />
        </linearGradient>
        <linearGradient id="paint2_linear_7292_2722" x1="9.5" y1="7.5" x2="11" y2="10" gradientUnits="userSpaceOnUse">
            <stop offset="0.0912181" stop-color="#AE9CFA" />
            <stop offset="1" stop-color="#DED6FF" />
        </linearGradient>
        <clipPath id="clip0_7292_2722">
            <rect width="36" height="36" fill="white" />
        </clipPath>
    </defs>
</svg>
