<svg width="44" height="44" viewBox="0 0 44 44" fill="none" xmlns="http://www.w3.org/2000/svg">
    <g clip-path="url(#clip0_0_1501)">
        <g clip-path="url(#clip1_0_1501)">
            <path d="M0 0H44V44H0V0Z" fill="#1B1340" />
            <path d="M0 0H44V44H0V0Z" fill="url(#paint0_radial_0_1501)" fill-opacity="0.8" />
            <path
                d="M29.6863 17.6958C29.6863 17.6744 29.685 17.6544 29.6823 17.6343C29.6823 17.6129 29.6796 17.5929 29.6782 17.5728C29.6769 17.5527 29.6756 17.5327 29.6729 17.5126C29.6715 17.4926 29.6688 17.4725 29.6662 17.4524C29.6621 17.4123 29.6554 17.3735 29.6487 17.3348C29.6353 17.2572 29.6192 17.1823 29.599 17.1074C29.5722 17.0098 29.54 16.9135 29.5038 16.8212C29.4715 16.7397 29.4353 16.6608 29.395 16.5845C29.3548 16.5083 29.3118 16.4361 29.2648 16.3639C29.2179 16.2943 29.1682 16.2248 29.1145 16.1606C29.0608 16.0951 29.0044 16.0322 28.9454 15.972C28.8098 15.8356 28.6595 15.7139 28.4984 15.6096C27.6381 15.0493 26.4569 14.9704 25.4811 15.5909C25.2677 15.7273 25.057 15.8584 24.8489 15.9908C24.8301 16.0028 24.8113 16.0148 24.7925 16.0269C24.7751 16.0389 24.7576 16.0509 24.7388 16.0643H24.7335C24.6731 16.1031 24.6167 16.1405 24.559 16.1766C24.5576 16.1766 24.555 16.178 24.5536 16.1807C24.5523 16.1793 24.5523 16.1807 24.5509 16.182L24.5321 16.1927C24.5321 16.1927 24.5268 16.198 24.5201 16.2007C24.0785 16.4829 23.6355 16.7651 23.1913 17.0459C23.1389 17.0874 23.0812 17.1235 23.0208 17.1542C22.8678 17.2345 22.6933 17.2786 22.5094 17.2786C22.0692 17.2786 21.6893 17.0258 21.5068 16.6567L21.5027 16.6487C21.4933 16.6246 21.4826 16.6006 21.4719 16.5778L21.4678 16.5698C21.2585 16.1298 20.9471 15.7487 20.5618 15.4572C20.5457 15.4438 20.5296 15.4304 20.5135 15.4197C20.4115 15.3435 20.3055 15.2753 20.1954 15.2125C20.1927 15.2125 20.19 15.2111 20.1874 15.2084L20.1833 15.2044C20.1833 15.2044 20.1806 15.2044 20.1793 15.2018H20.1739C20.1243 15.1737 20.0706 15.1456 20.0169 15.1202C19.9632 15.0948 19.9095 15.072 19.8545 15.0493C19.8424 15.044 19.829 15.0386 19.8156 15.0346C19.8021 15.0306 19.7901 15.0266 19.778 15.0226C19.7646 15.0172 19.7525 15.0119 19.7391 15.0078C19.7095 14.9971 19.6787 14.9864 19.6478 14.9771C19.6035 14.9624 19.5579 14.949 19.5149 14.937C19.4827 14.9263 19.4491 14.9182 19.4196 14.9129C19.3324 14.8915 19.2424 14.8754 19.1538 14.8607C19.1216 14.8554 19.0921 14.85 19.0612 14.8474C18.9445 14.834 18.8263 14.826 18.7055 14.826H8.55562V30.0057C8.55562 31.6613 9.90053 32.9999 11.5636 32.9999H24.4597C24.5805 32.9999 24.6986 32.9919 24.8154 32.9785C24.8462 32.9759 24.8758 32.9705 24.908 32.9652C24.9147 32.9638 24.92 32.9625 24.9268 32.9612C25.0086 32.9478 25.0932 32.9331 25.1737 32.913C25.1872 32.9103 25.2006 32.9077 25.2153 32.905C25.2194 32.9037 25.2234 32.9023 25.2274 32.901C25.2408 32.8983 25.2556 32.893 25.269 32.8889C25.312 32.8769 25.3576 32.8635 25.4019 32.8488C25.4328 32.8395 25.4636 32.8288 25.4932 32.8181C25.5066 32.8141 25.5187 32.8087 25.5321 32.8034C25.5442 32.7993 25.5563 32.7953 25.5697 32.7913C25.5751 32.79 25.5804 32.7873 25.5858 32.786C25.5925 32.7833 25.5992 32.7793 25.6059 32.7766C25.622 32.7699 25.6395 32.7632 25.6556 32.7566C25.6945 32.7405 25.7321 32.7245 25.771 32.7057C25.7979 32.6924 25.8247 32.679 25.8516 32.6656C25.8771 32.6522 25.9039 32.6389 25.9281 32.6242H25.9334C25.9334 32.6242 25.9361 32.6228 25.9375 32.6215L25.9415 32.6175C25.9415 32.6175 25.9455 32.6135 25.9469 32.6135C25.9683 32.6028 25.9885 32.5907 26.0086 32.5787C26.0972 32.5252 26.1844 32.469 26.2676 32.4062C26.2757 32.4008 26.2837 32.3955 26.2918 32.3888C26.2999 32.3821 26.3079 32.3754 26.316 32.3687C26.4126 32.2965 26.5039 32.2176 26.5911 32.1334C26.6274 32.0986 26.6623 32.0625 26.6972 32.025C26.7133 32.009 26.728 31.993 26.7428 31.9756C26.7562 31.9609 26.7696 31.9448 26.7831 31.9288C26.8247 31.882 26.8636 31.8325 26.9012 31.7817C26.9052 31.7776 26.9092 31.7736 26.9106 31.7696C26.9294 31.7455 26.9468 31.7215 26.9643 31.6974C26.9924 31.6573 27.0193 31.6172 27.0461 31.5757C27.0824 31.5182 27.1173 31.458 27.1495 31.3965C27.1656 31.3684 27.1804 31.3403 27.1938 31.3109C27.2166 31.2668 27.2367 31.2227 27.2569 31.1772L27.2609 31.1692C27.4434 30.8001 27.8233 30.5473 28.2635 30.5473C28.4474 30.5473 28.6219 30.5915 28.7749 30.6717C28.7803 30.6744 28.7857 30.677 28.791 30.6811C28.8393 30.7065 28.8863 30.7345 28.9293 30.768C29.1843 30.9298 29.4366 31.0916 29.6903 31.2521V17.8202C29.6903 17.7787 29.689 17.7359 29.6863 17.6958ZM22.3416 17.5394C22.3738 17.53 22.4061 17.518 22.4383 17.5046C22.4061 17.5193 22.3738 17.5313 22.3416 17.5407C22.3282 17.5447 22.3148 17.5474 22.3014 17.5501C22.3148 17.5474 22.3282 17.5434 22.3416 17.5394Z"
                fill="url(#paint1_radial_0_1501)"
            />
            <path
                d="M35.4444 13.9929V30.0058C35.4444 30.09 35.439 30.1716 35.4336 30.2532C35.2672 32.2632 32.9384 33.3223 31.2351 32.2351L30.2862 31.6333C30.2862 31.6333 30.2808 31.6279 30.2755 31.6253C30.0808 31.5009 29.8849 31.3779 29.6902 31.2522V17.8203C29.6902 17.7788 29.6889 17.736 29.6862 17.6959C29.6862 17.6745 29.6849 17.6544 29.6822 17.6344C29.6822 17.613 29.6822 17.5929 29.6795 17.5729C29.6795 17.5528 29.6755 17.5328 29.6728 17.5127C29.6715 17.4926 29.6688 17.4726 29.6661 17.4525C29.6621 17.4124 29.6553 17.3736 29.6486 17.3348C29.6352 17.2573 29.6191 17.1824 29.599 17.1075C29.5735 17.0099 29.5413 16.9136 29.5037 16.8213C29.4715 16.7397 29.4352 16.6608 29.395 16.5846C29.356 16.5084 29.3117 16.4362 29.2648 16.3639C29.2178 16.2944 29.1681 16.2249 29.1144 16.1607C29.0607 16.0951 29.0044 16.0323 28.9453 15.9721C28.8097 15.8357 28.6594 15.714 28.4983 15.6097C27.638 15.0494 26.4568 14.9705 25.481 15.591C25.2676 15.7274 25.0569 15.8584 24.8488 15.9908L30.2741 12.3734H30.2755L30.2862 12.3681L30.305 12.3547H30.3077L30.3573 12.3213C30.3708 12.3133 30.3855 12.3039 30.3989 12.2945C30.4298 12.2758 30.4593 12.2571 30.4902 12.237C30.4983 12.233 30.505 12.2277 30.513 12.2223C30.5426 12.2049 30.5734 12.1849 30.603 12.1661C30.7063 12.0993 30.811 12.0324 30.917 11.9656C31.0231 11.8987 31.1278 11.8318 31.2351 11.7636C31.5264 11.5777 31.8365 11.456 32.1505 11.3892C32.1707 11.3852 32.1908 11.3812 32.2109 11.3771C32.262 11.3678 32.313 11.3598 32.364 11.3531C32.5653 11.3277 32.768 11.3236 32.968 11.341C33.1733 11.3598 33.376 11.4012 33.572 11.4627C33.6887 11.5002 33.8042 11.5443 33.9156 11.5965C34.0256 11.6486 34.133 11.7075 34.2364 11.773C34.2632 11.7904 34.2901 11.8091 34.3169 11.8265C34.3572 11.8559 34.3974 11.8853 34.4377 11.9134C34.4686 11.9401 34.5008 11.9642 34.5317 11.991C34.5625 12.0177 34.5921 12.0445 34.6229 12.0725C34.6525 12.0993 34.682 12.1287 34.7102 12.1568C34.8525 12.3026 34.9786 12.4657 35.0847 12.6436C35.1075 12.681 35.1276 12.7185 35.1491 12.7572C35.184 12.8241 35.2162 12.8936 35.2457 12.9659C35.2511 12.9792 35.2565 12.9926 35.2618 13.0046C35.2779 13.0474 35.294 13.0902 35.3088 13.1357C35.3222 13.1772 35.3357 13.2186 35.3477 13.2614C35.3518 13.2761 35.3558 13.2922 35.3598 13.3069C35.3665 13.3323 35.3732 13.359 35.3786 13.3844C35.4001 13.4821 35.4175 13.5824 35.4269 13.6853C35.4296 13.7054 35.4323 13.7254 35.4336 13.7455C35.435 13.7763 35.4363 13.807 35.4377 13.8378C35.4377 13.8485 35.4403 13.8578 35.4403 13.8685C35.4417 13.8886 35.443 13.9087 35.443 13.9301C35.4444 13.9501 35.4444 13.9715 35.4444 13.9929Z"
                fill="white"
            />
            <path
                d="M35.4444 13.9929V30.0058C35.4444 30.09 35.439 30.1716 35.4336 30.2532C35.2672 32.2632 32.9384 33.3223 31.2351 32.2351L30.2862 31.6333C30.2862 31.6333 30.2808 31.6279 30.2755 31.6253C30.0808 31.5009 29.8849 31.3779 29.6902 31.2522V17.8203C29.6902 17.7788 29.6889 17.736 29.6862 17.6959C29.6862 17.6745 29.6849 17.6544 29.6822 17.6344C29.6822 17.613 29.6822 17.5929 29.6795 17.5729C29.6795 17.5528 29.6755 17.5328 29.6728 17.5127C29.6715 17.4926 29.6688 17.4726 29.6661 17.4525C29.6621 17.4124 29.6553 17.3736 29.6486 17.3348C29.6352 17.2573 29.6191 17.1824 29.599 17.1075C29.5735 17.0099 29.5413 16.9136 29.5037 16.8213C29.4715 16.7397 29.4352 16.6608 29.395 16.5846C29.356 16.5084 29.3117 16.4362 29.2648 16.3639C29.2178 16.2944 29.1681 16.2249 29.1144 16.1607C29.0607 16.0951 29.0044 16.0323 28.9453 15.9721C28.8097 15.8357 28.6594 15.714 28.4983 15.6097C27.638 15.0494 26.4568 14.9705 25.481 15.591C25.2676 15.7274 25.0569 15.8584 24.8488 15.9908L30.2741 12.3734H30.2755L30.2862 12.3681L30.305 12.3547H30.3077L30.3573 12.3213C30.3708 12.3133 30.3855 12.3039 30.3989 12.2945C30.4298 12.2758 30.4593 12.2571 30.4902 12.237C30.4983 12.233 30.505 12.2277 30.513 12.2223C30.5426 12.2049 30.5734 12.1849 30.603 12.1661C30.7063 12.0993 30.811 12.0324 30.917 11.9656C31.0231 11.8987 31.1278 11.8318 31.2351 11.7636C31.5264 11.5777 31.8365 11.456 32.1505 11.3892C32.1707 11.3852 32.1908 11.3812 32.2109 11.3771C32.262 11.3678 32.313 11.3598 32.364 11.3531C32.5653 11.3277 32.768 11.3236 32.968 11.341C33.1733 11.3598 33.376 11.4012 33.572 11.4627C33.6887 11.5002 33.8042 11.5443 33.9156 11.5965C34.0256 11.6486 34.133 11.7075 34.2364 11.773C34.2632 11.7904 34.2901 11.8091 34.3169 11.8265C34.3572 11.8559 34.3974 11.8853 34.4377 11.9134C34.4686 11.9401 34.5008 11.9642 34.5317 11.991C34.5625 12.0177 34.5921 12.0445 34.6229 12.0725C34.6525 12.0993 34.682 12.1287 34.7102 12.1568C34.8525 12.3026 34.9786 12.4657 35.0847 12.6436C35.1075 12.681 35.1276 12.7185 35.1491 12.7572C35.184 12.8241 35.2162 12.8936 35.2457 12.9659C35.2511 12.9792 35.2565 12.9926 35.2618 13.0046C35.2779 13.0474 35.294 13.0902 35.3088 13.1357C35.3222 13.1772 35.3357 13.2186 35.3477 13.2614C35.3518 13.2761 35.3558 13.2922 35.3598 13.3069C35.3665 13.3323 35.3732 13.359 35.3786 13.3844C35.4001 13.4821 35.4175 13.5824 35.4269 13.6853C35.4296 13.7054 35.4323 13.7254 35.4336 13.7455C35.435 13.7763 35.4363 13.807 35.4377 13.8378C35.4377 13.8485 35.4403 13.8578 35.4403 13.8685C35.4417 13.8886 35.443 13.9087 35.443 13.9301C35.4444 13.9501 35.4444 13.9715 35.4444 13.9929Z"
                fill="url(#paint2_linear_0_1501)"
                fill-opacity="0.65"
            />
            <path
                d="M28.9362 13.2253C28.8893 13.2614 28.8396 13.2935 28.7859 13.3202C28.7832 13.3242 28.7792 13.3256 28.7752 13.3269C28.6222 13.4071 28.4477 13.4513 28.2638 13.4513C27.8235 13.4513 27.4437 13.1985 27.2611 12.8294L27.2571 12.8214C27.2464 12.7947 27.2343 12.7693 27.2222 12.7438C27.2048 12.7064 27.186 12.6703 27.1672 12.6355C27.1511 12.6034 27.1336 12.5727 27.1162 12.5419C27.0732 12.467 27.0276 12.3948 26.9793 12.3253C26.9565 12.2918 26.9336 12.2597 26.9095 12.2276C26.8383 12.1327 26.7618 12.0418 26.6813 11.9562C26.6719 11.9482 26.6625 11.9388 26.6545 11.9294C26.633 11.908 26.6128 11.8866 26.59 11.8652C26.5538 11.8318 26.5175 11.797 26.48 11.7636C26.4639 11.7489 26.4464 11.7355 26.4303 11.7221C26.3927 11.6901 26.3551 11.6593 26.3162 11.6299C26.3041 11.6192 26.2921 11.6111 26.28 11.6018C26.2759 11.5978 26.2719 11.5951 26.2679 11.5924C26.2424 11.5737 26.2169 11.555 26.19 11.5363C26.1122 11.4828 26.0317 11.432 25.9484 11.3851C25.9471 11.3838 25.9444 11.3825 25.9417 11.3811L25.9337 11.3771L25.931 11.3744H25.9283C25.9162 11.3678 25.9041 11.3611 25.8907 11.3544C25.8518 11.333 25.8115 11.3129 25.7713 11.2929C25.7713 11.2929 25.7713 11.2942 25.7699 11.2929C25.7203 11.2701 25.6706 11.2474 25.6183 11.226C25.6142 11.226 25.6102 11.222 25.6062 11.2207C25.6048 11.2207 25.6021 11.2207 25.6008 11.2207C25.5834 11.214 25.5659 11.2086 25.5485 11.2019C25.5431 11.2006 25.5377 11.1979 25.5324 11.1966C25.5203 11.1912 25.5095 11.1872 25.4975 11.1832C25.4666 11.1725 25.4344 11.1618 25.4022 11.1511C25.3579 11.1364 25.3136 11.123 25.2693 11.111H25.2666C25.2371 11.103 25.2048 11.0949 25.174 11.0869C25.0934 11.0669 25.0089 11.0522 24.927 11.0388C24.9203 11.0374 24.9136 11.0361 24.9069 11.0348C24.876 11.0321 24.8465 11.0267 24.8156 11.0214C24.6988 11.008 24.5807 11 24.4613 11H11.5638C9.90078 10.9987 8.55587 12.34 8.55587 13.9929V14.826H18.7058C18.8266 14.826 18.9447 14.8341 19.0615 14.8474C19.0923 14.8501 19.1219 14.8555 19.1541 14.8608C19.2427 14.8742 19.3326 14.8916 19.4199 14.913C19.4494 14.9183 19.4829 14.9263 19.5151 14.937C19.5581 14.9491 19.6037 14.9624 19.648 14.9771C19.6789 14.9865 19.7098 14.9972 19.7393 15.0079C19.7527 15.0119 19.7648 15.0159 19.7782 15.0213C19.7903 15.0253 19.8037 15.0293 19.8158 15.0346C19.8292 15.0387 19.8427 15.044 19.8547 15.0494C19.9098 15.0708 19.9635 15.0948 20.0171 15.1202C20.0708 15.1456 20.1245 15.1737 20.1742 15.2018H20.1796C20.1796 15.2018 20.1822 15.2032 20.1836 15.2045L20.1876 15.2085C20.1876 15.2085 20.193 15.2125 20.1957 15.2125C20.3057 15.2754 20.4118 15.3436 20.5138 15.4198C20.5299 15.4305 20.546 15.4439 20.5621 15.4572C20.9473 15.7488 21.2587 16.1299 21.4681 16.5699L21.4721 16.5779C21.4829 16.6006 21.4936 16.6247 21.503 16.6488L21.507 16.6568C21.6896 17.0259 22.0694 17.2786 22.5097 17.2786C22.6935 17.2786 22.868 17.2345 23.021 17.1543C23.0774 17.1195 23.1351 17.0834 23.1915 17.046C23.6358 16.7651 24.0787 16.483 24.5203 16.2008C24.527 16.1981 24.5324 16.1928 24.5324 16.1928L24.5512 16.1821C24.5512 16.1821 24.5525 16.1794 24.5539 16.1807C24.5552 16.178 24.5579 16.1767 24.5592 16.1767C24.617 16.1406 24.6733 16.1018 24.7337 16.0617H24.7391C24.7579 16.0497 24.7753 16.0376 24.7928 16.0269C24.8116 16.0149 24.8304 16.0029 24.8492 15.9908L30.2744 12.3734C29.8275 12.6583 29.3819 12.9431 28.9362 13.2253ZM28.096 13.7134C28.088 13.7161 28.0799 13.7174 28.0718 13.7187C28.0799 13.7174 28.088 13.7147 28.096 13.7121C28.1296 13.7027 28.1618 13.6907 28.1926 13.6773C28.1604 13.692 28.1282 13.704 28.096 13.7134Z"
                fill="white"
            />
            <path
                d="M28.9362 13.2253C28.8893 13.2614 28.8396 13.2935 28.7859 13.3202C28.7832 13.3242 28.7792 13.3256 28.7752 13.3269C28.6222 13.4071 28.4477 13.4513 28.2638 13.4513C27.8235 13.4513 27.4437 13.1985 27.2611 12.8294L27.2571 12.8214C27.2464 12.7947 27.2343 12.7693 27.2222 12.7438C27.2048 12.7064 27.186 12.6703 27.1672 12.6355C27.1511 12.6034 27.1336 12.5727 27.1162 12.5419C27.0732 12.467 27.0276 12.3948 26.9793 12.3253C26.9565 12.2918 26.9336 12.2597 26.9095 12.2276C26.8383 12.1327 26.7618 12.0418 26.6813 11.9562C26.6719 11.9482 26.6625 11.9388 26.6545 11.9294C26.633 11.908 26.6128 11.8866 26.59 11.8652C26.5538 11.8318 26.5175 11.797 26.48 11.7636C26.4639 11.7489 26.4464 11.7355 26.4303 11.7221C26.3927 11.6901 26.3551 11.6593 26.3162 11.6299C26.3041 11.6192 26.2921 11.6111 26.28 11.6018C26.2759 11.5978 26.2719 11.5951 26.2679 11.5924C26.2424 11.5737 26.2169 11.555 26.19 11.5363C26.1122 11.4828 26.0317 11.432 25.9484 11.3851C25.9471 11.3838 25.9444 11.3825 25.9417 11.3811L25.9337 11.3771L25.931 11.3744H25.9283C25.9162 11.3678 25.9041 11.3611 25.8907 11.3544C25.8518 11.333 25.8115 11.3129 25.7713 11.2929C25.7713 11.2929 25.7713 11.2942 25.7699 11.2929C25.7203 11.2701 25.6706 11.2474 25.6183 11.226C25.6142 11.226 25.6102 11.222 25.6062 11.2207C25.6048 11.2207 25.6021 11.2207 25.6008 11.2207C25.5834 11.214 25.5659 11.2086 25.5485 11.2019C25.5431 11.2006 25.5377 11.1979 25.5324 11.1966C25.5203 11.1912 25.5095 11.1872 25.4975 11.1832C25.4666 11.1725 25.4344 11.1618 25.4022 11.1511C25.3579 11.1364 25.3136 11.123 25.2693 11.111H25.2666C25.2371 11.103 25.2048 11.0949 25.174 11.0869C25.0934 11.0669 25.0089 11.0522 24.927 11.0388C24.9203 11.0374 24.9136 11.0361 24.9069 11.0348C24.876 11.0321 24.8465 11.0267 24.8156 11.0214C24.6988 11.008 24.5807 11 24.4613 11H11.5638C9.90078 10.9987 8.55587 12.34 8.55587 13.9929V14.826H18.7058C18.8266 14.826 18.9447 14.8341 19.0615 14.8474C19.0923 14.8501 19.1219 14.8555 19.1541 14.8608C19.2427 14.8742 19.3326 14.8916 19.4199 14.913C19.4494 14.9183 19.4829 14.9263 19.5151 14.937C19.5581 14.9491 19.6037 14.9624 19.648 14.9771C19.6789 14.9865 19.7098 14.9972 19.7393 15.0079C19.7527 15.0119 19.7648 15.0159 19.7782 15.0213C19.7903 15.0253 19.8037 15.0293 19.8158 15.0346C19.8292 15.0387 19.8427 15.044 19.8547 15.0494C19.9098 15.0708 19.9635 15.0948 20.0171 15.1202C20.0708 15.1456 20.1245 15.1737 20.1742 15.2018H20.1796C20.1796 15.2018 20.1822 15.2032 20.1836 15.2045L20.1876 15.2085C20.1876 15.2085 20.193 15.2125 20.1957 15.2125C20.3057 15.2754 20.4118 15.3436 20.5138 15.4198C20.5299 15.4305 20.546 15.4439 20.5621 15.4572C20.9473 15.7488 21.2587 16.1299 21.4681 16.5699L21.4721 16.5779C21.4829 16.6006 21.4936 16.6247 21.503 16.6488L21.507 16.6568C21.6896 17.0259 22.0694 17.2786 22.5097 17.2786C22.6935 17.2786 22.868 17.2345 23.021 17.1543C23.0774 17.1195 23.1351 17.0834 23.1915 17.046C23.6358 16.7651 24.0787 16.483 24.5203 16.2008C24.527 16.1981 24.5324 16.1928 24.5324 16.1928L24.5512 16.1821C24.5512 16.1821 24.5525 16.1794 24.5539 16.1807C24.5552 16.178 24.5579 16.1767 24.5592 16.1767C24.617 16.1406 24.6733 16.1018 24.7337 16.0617H24.7391C24.7579 16.0497 24.7753 16.0376 24.7928 16.0269C24.8116 16.0149 24.8304 16.0029 24.8492 15.9908L30.2744 12.3734C29.8275 12.6583 29.3819 12.9431 28.9362 13.2253ZM28.096 13.7134C28.088 13.7161 28.0799 13.7174 28.0718 13.7187C28.0799 13.7174 28.088 13.7147 28.096 13.7121C28.1296 13.7027 28.1618 13.6907 28.1926 13.6773C28.1604 13.692 28.1282 13.704 28.096 13.7134Z"
                fill="url(#paint3_linear_0_1501)"
                fill-opacity="0.65"
            />
        </g>
    </g>
    <defs>
        <radialGradient
            id="paint0_radial_0_1501"
            cx="0"
            cy="0"
            r="1"
            gradientTransform="matrix(-18.9218 -28.8285 17.1728 -37.3871 45.7069 55.0266)"
            gradientUnits="userSpaceOnUse"
        >
            <stop stop-color="#20D7DF" />
            <stop offset="1" stop-color="#1B1340" />
        </radialGradient>
        <radialGradient
            id="paint1_radial_0_1501"
            cx="0"
            cy="0"
            r="1"
            gradientTransform="matrix(19.1836 -18.571 21.4056 28.6402 6.86486 35.1098)"
            gradientUnits="userSpaceOnUse"
        >
            <stop stop-color="#82F8E1" />
            <stop offset="1" stop-color="#6E45E2" />
        </radialGradient>
        <linearGradient
            id="paint2_linear_0_1501"
            x1="29.0279"
            y1="13.3527"
            x2="40.1524"
            y2="16.4865"
            gradientUnits="userSpaceOnUse"
        >
            <stop offset="0.1" stop-color="#6E45E2" />
            <stop offset="1" stop-color="#45E1CC" stop-opacity="0.9" />
        </linearGradient>
        <linearGradient
            id="paint3_linear_0_1501"
            x1="10.6262"
            y1="8.13782"
            x2="11.3912"
            y2="21.4078"
            gradientUnits="userSpaceOnUse"
        >
            <stop offset="0.1" stop-color="#6E45E2" />
            <stop offset="0.9" stop-color="#45E1CC" />
        </linearGradient>
        <clipPath id="clip0_0_1501">
            <rect width="44" height="44" fill="white" />
        </clipPath>
        <clipPath id="clip1_0_1501">
            <rect width="44" height="44" fill="white" />
        </clipPath>
    </defs>
</svg>
