<svg width="36" height="36" viewBox="0 0 36 36" fill="none" xmlns="http://www.w3.org/2000/svg">
    <g clip-path="url(#clip0_7292_2757)">
        <path d="M0 0H36V36H0V0Z" fill="#704CFF" />
        <mask
            id="mask0_7292_2757"
            style="mask-type: alpha"
            maskUnits="userSpaceOnUse"
            x="0"
            y="0"
            width="36"
            height="36"
        >
            <path d="M0 0H36V36H0V0Z" fill="black" />
        </mask>
        <g mask="url(#mask0_7292_2757)">
            <circle cx="20" cy="20" r="20" transform="matrix(-1 0 0 1 20 -20)" fill="url(#paint0_radial_7292_2757)" />
            <circle cx="20" cy="20" r="20" transform="matrix(-1 0 0 1 56 -20)" fill="url(#paint1_radial_7292_2757)" />
            <circle cx="20" cy="20" r="20" transform="matrix(-1 0 0 1 20 16)" fill="url(#paint2_radial_7292_2757)" />
            <circle cx="20" cy="20" r="20" transform="matrix(-1 0 0 1 56 16)" fill="url(#paint3_radial_7292_2757)" />
        </g>
        <g filter="url(#filter0_d_7292_2757)">
            <path
                fill-rule="evenodd"
                clip-rule="evenodd"
                d="M20.1476 19.5C19.1216 19.5 18.168 20.0329 17.6242 20.91L16.486 22.746C15.7428 23.9449 16.5977 25.5 18 25.5H26.7118C28.1141 25.5 28.969 23.9449 28.2258 22.746L27.0876 20.91C26.5438 20.0329 25.5902 19.5 24.5643 19.5H20.1476Z"
                fill="url(#paint4_linear_7292_2757)"
            />
            <path
                fill-rule="evenodd"
                clip-rule="evenodd"
                d="M22.5 18C24.1569 18 25.5 16.6569 25.5 15C25.5 13.3431 24.1569 12 22.5 12C20.8432 12 19.5 13.3431 19.5 15C19.5 16.6569 20.8432 18 22.5 18Z"
                fill="url(#paint5_linear_7292_2757)"
            />
            <path
                fill-rule="evenodd"
                clip-rule="evenodd"
                d="M18 14.25C18 16.3211 16.3211 18 14.25 18C12.1789 18 10.5 16.3211 10.5 14.25C10.5 12.1789 12.1789 10.5 14.25 10.5C16.3211 10.5 18 12.1789 18 14.25ZM11.4358 19.5C10.4098 19.5 9.45619 20.0329 8.91242 20.91L7.77424 22.746C7.03101 23.9449 7.88594 25.5 9.28825 25.5H19.2118C20.6141 25.5 21.469 23.9449 20.7258 22.746L19.5876 20.91C19.0438 20.0329 18.0902 19.5 17.0642 19.5H11.4358Z"
                fill="white"
            />
        </g>
    </g>
    <defs>
        <filter
            id="filter0_d_7292_2757"
            x="-8.5"
            y="-5.5"
            width="53"
            height="47"
            filterUnits="userSpaceOnUse"
            color-interpolation-filters="sRGB"
        >
            <feFlood flood-opacity="0" result="BackgroundImageFix" />
            <feColorMatrix
                in="SourceAlpha"
                type="matrix"
                values="0 0 0 0 0 0 0 0 0 0 0 0 0 0 0 0 0 0 127 0"
                result="hardAlpha"
            />
            <feOffset />
            <feGaussianBlur stdDeviation="8" />
            <feComposite in2="hardAlpha" operator="out" />
            <feColorMatrix type="matrix" values="0 0 0 0 0.0980392 0 0 0 0 0 0 0 0 0 0.501961 0 0 0 0.5 0" />
            <feBlend mode="normal" in2="BackgroundImageFix" result="effect1_dropShadow_7292_2757" />
            <feBlend mode="normal" in="SourceGraphic" in2="effect1_dropShadow_7292_2757" result="shape" />
        </filter>
        <radialGradient
            id="paint0_radial_7292_2757"
            cx="0"
            cy="0"
            r="1"
            gradientUnits="userSpaceOnUse"
            gradientTransform="translate(20 20) rotate(90) scale(20)"
        >
            <stop stop-color="#FF62C0" />
            <stop offset="1" stop-color="#FF62C0" stop-opacity="0" />
        </radialGradient>
        <radialGradient
            id="paint1_radial_7292_2757"
            cx="0"
            cy="0"
            r="1"
            gradientUnits="userSpaceOnUse"
            gradientTransform="translate(20 20) rotate(90) scale(20)"
        >
            <stop stop-color="#15ADFF" />
            <stop offset="1" stop-color="#15ADFF" stop-opacity="0" />
        </radialGradient>
        <radialGradient
            id="paint2_radial_7292_2757"
            cx="0"
            cy="0"
            r="1"
            gradientUnits="userSpaceOnUse"
            gradientTransform="translate(20 20) rotate(90) scale(20)"
        >
            <stop stop-color="#24ECC6" />
            <stop offset="1" stop-color="#24ECC6" stop-opacity="0" />
        </radialGradient>
        <radialGradient
            id="paint3_radial_7292_2757"
            cx="0"
            cy="0"
            r="1"
            gradientUnits="userSpaceOnUse"
            gradientTransform="translate(20 20) rotate(90) scale(20)"
        >
            <stop stop-color="#FFD583" />
            <stop offset="1" stop-color="#FFD583" stop-opacity="0" />
        </radialGradient>
        <linearGradient
            id="paint4_linear_7292_2757"
            x1="12"
            y1="17.8135"
            x2="22.5"
            y2="15"
            gradientUnits="userSpaceOnUse"
        >
            <stop stop-color="white" stop-opacity="0" />
            <stop offset="1" stop-color="white" />
        </linearGradient>
        <linearGradient
            id="paint5_linear_7292_2757"
            x1="12"
            y1="17.8135"
            x2="22.5"
            y2="15"
            gradientUnits="userSpaceOnUse"
        >
            <stop stop-color="white" stop-opacity="0" />
            <stop offset="1" stop-color="white" />
        </linearGradient>
        <clipPath id="clip0_7292_2757">
            <rect width="36" height="36" fill="white" />
        </clipPath>
    </defs>
</svg>
