<svg width="36" height="36" viewBox="0 0 36 36" fill="none" xmlns="http://www.w3.org/2000/svg">
    <g clip-path="url(#clip0_7292_2855)">
        <rect width="36" height="36" fill="#1B1340" />
        <rect width="36" height="36" fill="url(#paint0_radial_7292_2855)" fill-opacity="0.8" />
        <path
            d="M14.1058 9.28916C14.8869 8.50811 16.1532 8.50811 16.9342 9.28916L24.2952 16.6501C25.0372 17.3921 25.0372 18.5951 24.2952 19.3371L16.9342 26.6981C16.1532 27.4792 14.8869 27.4792 14.1058 26.6981L8.08126 20.6736C6.60117 19.1935 6.60117 16.7938 8.08126 15.3137L14.1058 9.28916Z"
            fill="url(#paint1_radial_7292_2855)"
            fill-opacity="0.5"
        />
        <path
            d="M15.9245 27.1004L15.2174 27.8075L8.19536 20.7855L8.90247 20.0784L15.9245 27.1004ZM20.0967 27.1004L27.1063 20.0908C28.2584 18.9388 28.2584 17.0706 27.1063 15.9186L20.0843 8.89655C18.9323 7.7445 17.0641 7.7445 15.9121 8.89655L8.90247 15.9062C7.75042 17.0582 7.75042 18.9263 8.90247 20.0784L8.19536 20.7855L8.05518 20.6384C6.65397 19.0878 6.70091 16.6935 8.19536 15.1991L15.205 8.18945C16.6994 6.69499 19.0938 6.64806 20.6443 8.04926L20.7914 8.18944L27.8135 15.2115C29.356 16.7541 29.356 19.2553 27.8134 20.7979L20.8038 27.8075C19.2612 29.3501 16.76 29.3501 15.2174 27.8075L15.9245 27.1004C17.0766 28.2525 18.9447 28.2525 20.0967 27.1004Z"
            fill="url(#paint2_radial_7292_2855)"
        />
        <path
            d="M14.8129 25.9904L14.1057 26.6975L8.08153 20.6733L8.78864 19.9662L14.8129 25.9904ZM16.2271 25.9904L23.5875 18.63C23.9389 18.2786 23.9395 17.7089 23.5882 17.3574L16.2271 9.99628C15.8365 9.60576 15.2034 9.60576 14.8129 9.99628L8.78864 16.0205C7.69908 17.1101 7.69908 18.8766 8.78864 19.9662L8.08153 20.6733L7.94688 20.5318C6.60284 19.044 6.64776 16.7472 8.08153 15.3134L14.1058 9.28917C14.8868 8.50813 16.1531 8.50813 16.9342 9.28917L24.2953 16.6503L24.4258 16.7946C25.0343 17.5409 24.9901 18.6416 24.2946 19.3371L16.9342 26.6975C16.1531 27.4786 14.8868 27.4786 14.1057 26.6975L14.8129 25.9904C15.2034 26.381 15.8365 26.381 16.2271 25.9904Z"
            fill="url(#paint3_radial_7292_2855)"
        />
    </g>
    <defs>
        <radialGradient
            id="paint0_radial_7292_2855"
            cx="0"
            cy="0"
            r="1"
            gradientTransform="matrix(-15.4814 -23.587 14.0504 -30.5894 37.3966 45.0217)"
            gradientUnits="userSpaceOnUse"
        >
            <stop stop-color="#CF8287" />
            <stop offset="1" stop-color="#1B1340" />
        </radialGradient>
        <radialGradient
            id="paint1_radial_7292_2855"
            cx="0"
            cy="0"
            r="1"
            gradientTransform="matrix(7.80118 -12.4844 19.6313 12.1322 12.0005 27.1409)"
            gradientUnits="userSpaceOnUse"
        >
            <stop stop-color="#FFD580" />
            <stop offset="0.09375" stop-color="#F6C592" />
            <stop offset="0.205" stop-color="#EBB6A2" />
            <stop offset="0.324466" stop-color="#DFA5AF" />
            <stop offset="0.42875" stop-color="#D397BE" />
            <stop offset="0.53375" stop-color="#C486CB" />
            <stop offset="0.64875" stop-color="#B578D9" />
            <stop offset="0.77125" stop-color="#A166E5" />
            <stop offset="0.89125" stop-color="#8B57F2" />
            <stop offset="1" stop-color="#704CFF" />
        </radialGradient>
        <radialGradient
            id="paint2_radial_7292_2855"
            cx="0"
            cy="0"
            r="1"
            gradientTransform="matrix(18.4991 -23.9259 39.3979 27.8823 11.9712 29.9614)"
            gradientUnits="userSpaceOnUse"
        >
            <stop stop-color="#FFD580" />
            <stop offset="0.09375" stop-color="#F6C592" />
            <stop offset="0.205" stop-color="#EBB6A2" />
            <stop offset="0.324466" stop-color="#DFA5AF" />
            <stop offset="0.42875" stop-color="#E2BBD5" />
            <stop offset="0.53375" stop-color="#D5A9DA" />
            <stop offset="0.64875" stop-color="#CBA0E4" />
            <stop offset="0.77125" stop-color="#BC92ED" />
            <stop offset="0.89125" stop-color="#AD88F6" />
            <stop offset="1" stop-color="#9980FF" />
        </radialGradient>
        <radialGradient
            id="paint3_radial_7292_2855"
            cx="0"
            cy="0"
            r="1"
            gradientTransform="matrix(18.4991 -23.9259 39.3979 27.8823 11.9712 29.9614)"
            gradientUnits="userSpaceOnUse"
        >
            <stop stop-color="#FFD580" />
            <stop offset="0.09375" stop-color="#F6C592" />
            <stop offset="0.205" stop-color="#EBB6A2" />
            <stop offset="0.324466" stop-color="#DFA5AF" />
            <stop offset="0.42875" stop-color="#E2BBD5" />
            <stop offset="0.53375" stop-color="#D5A9DA" />
            <stop offset="0.64875" stop-color="#CBA0E4" />
            <stop offset="0.77125" stop-color="#BC92ED" />
            <stop offset="0.89125" stop-color="#AD88F6" />
            <stop offset="1" stop-color="#9980FF" />
        </radialGradient>
        <clipPath id="clip0_7292_2855">
            <rect width="36" height="36" fill="white" />
        </clipPath>
    </defs>
</svg>
