<svg width="44" height="44" viewBox="0 0 44 44" fill="none" xmlns="http://www.w3.org/2000/svg">
    <g clip-path="url(#clip0_1_3)">
        <rect width="44" height="44" fill="url(#paint0_radial_1_3)" />
        <path
            fill-rule="evenodd"
            clip-rule="evenodd"
            d="M22 18.25C22 20.3211 20.3211 22 18.25 22C16.1789 22 14.5 20.3211 14.5 18.25C14.5 16.1789 16.1789 14.5 18.25 14.5C20.3211 14.5 22 16.1789 22 18.25ZM15.4358 23.5C14.4098 23.5 13.4562 24.0329 12.9124 24.91L11.7742 26.746C11.031 27.9449 11.8859 29.5 13.2882 29.5H23.2118C24.6141 29.5 25.469 27.9449 24.7258 26.746L23.5876 24.91C23.0438 24.0329 22.0902 23.5 21.0642 23.5H15.4358ZM30.4 24.7L32.2 27.1C32.9416 28.0889 32.2361 29.5 31 29.5H26.5V27.5C26.5 26.8509 26.2895 26.2193 25.9 25.7L24.25 23.5H28C28.9443 23.5 29.8334 23.9446 30.4 24.7ZM26.5 22C28.1569 22 29.5 20.6569 29.5 19C29.5 17.3431 28.1569 16 26.5 16C24.8431 16 23.5 17.3431 23.5 19C23.5 20.6569 24.8431 22 26.5 22Z"
            fill="white"
        />
    </g>
    <defs>
        <radialGradient
            id="paint0_radial_1_3"
            cx="0"
            cy="0"
            r="1"
            gradientUnits="userSpaceOnUse"
            gradientTransform="translate(44.1559 -6.10897) scale(55.9652 44.2853)"
        >
            <stop stop-color="#FFA7D7" />
            <stop offset="1" stop-color="#D72E8A" />
        </radialGradient>
        <clipPath id="clip0_1_3">
            <rect width="44" height="44" fill="white" />
        </clipPath>
    </defs>
</svg>
