<svg width="44" height="44" viewBox="0 0 44 44" fill="none" xmlns="http://www.w3.org/2000/svg">
    <g clip-path="url(#clip0_0_3)">
        <rect width="44" height="44" fill="url(#paint0_radial_0_3)" />
        <g filter="url(#filter0_f_0_3)">
            <path
                d="M2.9294 18.86C-3.10707 18.86 -8.0006 13.9665 -8.0006 7.93C-8.0006 1.89353 -3.10707 -3 2.9294 -3C8.96587 -3 13.8594 1.89353 13.8594 7.93C13.8594 13.9665 8.96587 18.86 2.9294 18.86Z"
                fill="#FF62C0"
            />
        </g>
        <g filter="url(#filter1_f_0_3)">
            <path
                d="M37.9294 18.86C31.8929 18.86 26.9994 13.9665 26.9994 7.93C26.9994 1.89353 31.8929 -3 37.9294 -3C43.9659 -3 48.8594 1.89353 48.8594 7.93C48.8594 13.9665 43.9659 18.86 37.9294 18.86Z"
                fill="#15ADFF"
            />
        </g>
        <g filter="url(#filter2_f_0_3)">
            <path
                d="M2.9294 49.86C-3.10707 49.86 -8.0006 44.9665 -8.0006 38.93C-8.0006 32.8935 -3.10707 28 2.9294 28C8.96587 28 13.8594 32.8935 13.8594 38.93C13.8594 44.9665 8.96587 49.86 2.9294 49.86Z"
                fill="#24ECC6"
            />
        </g>
        <g filter="url(#filter3_f_0_3)">
            <path
                d="M37.9294 49.86C31.8929 49.86 26.9994 44.9665 26.9994 38.93C26.9994 32.8935 31.8929 28 37.9294 28C43.9659 28 48.8594 32.8935 48.8594 38.93C48.8594 44.9665 43.9659 49.86 37.9294 49.86Z"
                fill="#FFD583"
            />
        </g>
        <path
            fill-rule="evenodd"
            clip-rule="evenodd"
            d="M7.08066 16.1705C3.81686 19.4343 3.81686 24.7259 7.08066 27.9897C10.3445 31.2535 15.6361 31.2535 18.8999 27.9897L21.9995 24.8902L25.099 27.9897C28.3628 31.2535 33.6545 31.2535 36.9183 27.9897C40.1821 24.7259 40.1821 19.4343 36.9183 16.1705C33.6545 12.9067 28.3628 12.9067 25.099 16.1705L21.9995 19.2701L18.8999 16.1705C15.6361 12.9067 10.3445 12.9067 7.08066 16.1705ZM9.90908 25.1613C8.20739 23.4596 8.20739 20.7006 9.90908 18.9989C11.6108 17.2972 14.3698 17.2972 16.0715 18.9989L19.1527 22.0801L16.0715 25.1613C14.3698 26.863 11.6108 26.863 9.90908 25.1613ZM27.9275 25.1613C29.6292 26.863 32.3882 26.863 34.0899 25.1613C35.7916 23.4596 35.7916 20.7006 34.0899 18.9989C32.3882 17.2972 29.6292 17.2972 27.9275 18.9989L24.8463 22.0801L27.9275 25.1613Z"
            fill="white"
        />
        <path
            opacity="0.4"
            d="M11.6094 17.9461C13.1259 17.4403 14.8654 17.7911 16.0727 18.9984L19.1539 22.0796L22.0211 19.29L22.0007 19.2695L18.9011 16.1699C17.9051 15.1739 16.7202 14.4819 15.4617 14.0938L11.6094 17.9461Z"
            fill="url(#paint1_linear_0_3)"
        />
        <path
            opacity="0.4"
            d="M28.9723 30.1848L33.509 25.6481C31.8091 26.8414 29.4472 26.6785 27.928 25.1593L24.8468 22.0781L22 24.8882L25.0996 27.9877C26.2092 29.0974 27.5532 29.8297 28.9723 30.1848Z"
            fill="url(#paint2_linear_0_3)"
        />
    </g>
    <defs>
        <filter
            id="filter0_f_0_3"
            x="-24.0006"
            y="-19"
            width="53.86"
            height="53.86"
            filterUnits="userSpaceOnUse"
            color-interpolation-filters="sRGB"
        >
            <feFlood flood-opacity="0" result="BackgroundImageFix" />
            <feBlend mode="normal" in="SourceGraphic" in2="BackgroundImageFix" result="shape" />
            <feGaussianBlur stdDeviation="8" result="effect1_foregroundBlur_0_3" />
        </filter>
        <filter
            id="filter1_f_0_3"
            x="10.9994"
            y="-19"
            width="53.86"
            height="53.86"
            filterUnits="userSpaceOnUse"
            color-interpolation-filters="sRGB"
        >
            <feFlood flood-opacity="0" result="BackgroundImageFix" />
            <feBlend mode="normal" in="SourceGraphic" in2="BackgroundImageFix" result="shape" />
            <feGaussianBlur stdDeviation="8" result="effect1_foregroundBlur_0_3" />
        </filter>
        <filter
            id="filter2_f_0_3"
            x="-24.0006"
            y="12"
            width="53.86"
            height="53.86"
            filterUnits="userSpaceOnUse"
            color-interpolation-filters="sRGB"
        >
            <feFlood flood-opacity="0" result="BackgroundImageFix" />
            <feBlend mode="normal" in="SourceGraphic" in2="BackgroundImageFix" result="shape" />
            <feGaussianBlur stdDeviation="8" result="effect1_foregroundBlur_0_3" />
        </filter>
        <filter
            id="filter3_f_0_3"
            x="10.9994"
            y="12"
            width="53.86"
            height="53.86"
            filterUnits="userSpaceOnUse"
            color-interpolation-filters="sRGB"
        >
            <feFlood flood-opacity="0" result="BackgroundImageFix" />
            <feBlend mode="normal" in="SourceGraphic" in2="BackgroundImageFix" result="shape" />
            <feGaussianBlur stdDeviation="8" result="effect1_foregroundBlur_0_3" />
        </filter>
        <radialGradient
            id="paint0_radial_0_3"
            cx="0"
            cy="0"
            r="1"
            gradientUnits="userSpaceOnUse"
            gradientTransform="translate(44.1559 -6.10897) scale(55.9652 44.2853)"
        >
            <stop stop-color="#A995FF" />
            <stop offset="1" stop-color="#6652F5" />
        </radialGradient>
        <linearGradient
            id="paint1_linear_0_3"
            x1="16.0007"
            y1="17"
            x2="20.35"
            y2="21.1324"
            gradientUnits="userSpaceOnUse"
        >
            <stop stop-opacity="0" />
            <stop offset="1" />
        </linearGradient>
        <linearGradient
            id="paint2_linear_0_3"
            x1="23.5001"
            y1="23.498"
            x2="27.5001"
            y2="26.998"
            gradientUnits="userSpaceOnUse"
        >
            <stop />
            <stop offset="1" stop-opacity="0" />
        </linearGradient>
        <clipPath id="clip0_0_3">
            <rect width="44" height="44" fill="white" />
        </clipPath>
    </defs>
</svg>
