<svg width="36" height="36" viewBox="0 0 36 36" fill="none" xmlns="http://www.w3.org/2000/svg">
    <g clip-path="url(#clip0_7292_2708)">
        <rect width="36" height="36" fill="#1B1340" />
        <rect width="36" height="36" fill="url(#paint0_radial_7292_2708)" fill-opacity="0.8" />
        <path
            d="M16.3354 25.3442L17.1209 24.1726L23.0878 15.1593C23.6095 14.3712 23.1116 13.3141 22.1677 13.2057L7.35938 11.5056L15.0305 25.2964C15.3105 25.79 16.0183 25.8171 16.3354 25.3442Z"
            fill="url(#paint1_linear_7292_2708)"
            fill-opacity="0.8"
        />
        <path
            d="M7.29103 11.3828C6.38885 9.7609 7.70963 7.80455 9.56447 8.01559L26.9619 9.99508C28.6614 10.1887 29.5594 12.0915 28.6211 13.5107L19.7695 26.8955C18.8203 28.3308 16.673 28.2491 15.8369 26.7461L7.29103 11.3828ZM9.45118 9.00973C8.3883 8.8888 7.66647 10.0001 8.16505 10.8965L16.7109 26.2597C17.1819 27.1064 18.3994 27.1544 18.9356 26.3437L27.7871 12.959C28.3073 12.1716 27.8173 11.0996 26.8486 10.9892L9.45118 9.00973Z"
            fill="#C2B3FF"
        />
        <path
            d="M7.29103 11.3828C6.38885 9.7609 7.70963 7.80455 9.56447 8.01559L26.9619 9.99508C28.6614 10.1887 29.5594 12.0915 28.6211 13.5107L19.7695 26.8955C18.8203 28.3308 16.673 28.2491 15.8369 26.7461L7.29103 11.3828ZM9.45118 9.00973C8.3883 8.8888 7.66647 10.0001 8.16505 10.8965L16.7109 26.2597C17.1819 27.1064 18.3994 27.1544 18.9356 26.3437L27.7871 12.959C28.3073 12.1716 27.8173 11.0996 26.8486 10.9892L9.45118 9.00973Z"
            fill="url(#paint2_linear_7292_2708)"
        />
        <path
            d="M22.1681 13.2058C23.1117 13.3143 23.6093 14.371 23.088 15.1589L17.1212 24.1725L16.335 25.3444L16.2715 25.4274C15.9542 25.7862 15.3769 25.764 15.0879 25.3834L15.0303 25.2965L7.35939 11.5056L22.1681 13.2058ZM15.7159 24.4713L16.2901 23.6159L22.254 14.6071C22.3576 14.4507 22.2672 14.2235 22.0538 14.1989L9.17971 12.7204L15.7159 24.4713Z"
            fill="#C2B3FF"
        />
        <path
            d="M22.1681 13.2058C23.1117 13.3143 23.6093 14.371 23.088 15.1589L17.1212 24.1725L16.335 25.3444L16.2715 25.4274C15.9542 25.7862 15.3769 25.764 15.0879 25.3834L15.0303 25.2965L7.35939 11.5056L22.1681 13.2058ZM15.7159 24.4713L16.2901 23.6159L22.254 14.6071C22.3576 14.4507 22.2672 14.2235 22.0538 14.1989L9.17971 12.7204L15.7159 24.4713Z"
            fill="url(#paint3_linear_7292_2708)"
        />
    </g>
    <defs>
        <radialGradient
            id="paint0_radial_7292_2708"
            cx="0"
            cy="0"
            r="1"
            gradientTransform="matrix(-15.4814 -23.587 14.0504 -30.5894 37.3966 45.0217)"
            gradientUnits="userSpaceOnUse"
        >
            <stop stop-color="#27DDB1" />
            <stop offset="1" stop-color="#1B1340" />
        </radialGradient>
        <linearGradient
            id="paint1_linear_7292_2708"
            x1="15.217"
            y1="27.9264"
            x2="11.6124"
            y2="10.6414"
            gradientUnits="userSpaceOnUse"
        >
            <stop stop-color="#27DDB1" />
            <stop offset="0.495818" stop-color="#217979" />
            <stop offset="1" stop-color="#1B1340" />
        </linearGradient>
        <linearGradient
            id="paint2_linear_7292_2708"
            x1="15.8544"
            y1="6.2243"
            x2="17.2428"
            y2="28.1352"
            gradientUnits="userSpaceOnUse"
        >
            <stop offset="0.172059" stop-color="#52FFDE" stop-opacity="0" />
            <stop offset="1" stop-color="#52FFDE" />
        </linearGradient>
        <linearGradient
            id="paint3_linear_7292_2708"
            x1="15.8544"
            y1="6.2243"
            x2="17.2428"
            y2="28.1352"
            gradientUnits="userSpaceOnUse"
        >
            <stop offset="0.172059" stop-color="#52FFDE" stop-opacity="0" />
            <stop offset="1" stop-color="#52FFDE" />
        </linearGradient>
        <clipPath id="clip0_7292_2708">
            <rect width="36" height="36" fill="white" />
        </clipPath>
    </defs>
</svg>
