<svg width="44" height="44" viewBox="0 0 44 44" fill="none" xmlns="http://www.w3.org/2000/svg">
    <path d="M44 44H0V0H44V44Z" fill="#1B1340" />
    <path d="M44 44H0V0H44V44Z" fill="url(#paint0_radial_1_571)" fill-opacity="0.8" />
    <path
        fill-rule="evenodd"
        clip-rule="evenodd"
        d="M19.3561 32.6898C20.378 34.5269 23.0023 34.6264 24.1625 32.872L34.9809 16.5134C36.1281 14.7786 35.0304 12.4527 32.9529 12.2164L11.6892 9.79694C9.42221 9.539 7.80807 11.9294 8.91074 13.9117L8.99721 14.0664L18.4851 20.5677L18.3699 30.9104L19.3561 32.6898Z"
        fill="url(#paint1_linear_1_571)"
    />
    <path
        d="M19.9644 30.9756L20.9245 29.5436L28.2174 18.5273C28.855 17.5641 28.2464 16.2721 27.0928 16.1396L8.99375 14.0617L18.3696 30.9171C18.7117 31.5203 19.5769 31.5535 19.9644 30.9756Z"
        fill="url(#paint2_radial_1_571)"
    />
    <defs>
        <radialGradient
            id="paint0_radial_1_571"
            cx="0"
            cy="0"
            r="1"
            gradientUnits="userSpaceOnUse"
            gradientTransform="translate(45.7069 55.0266) rotate(-123.279) scale(34.4836 34.8715)"
        >
            <stop stop-color="#27DDB1" />
            <stop offset="1" stop-color="#1B1340" />
        </radialGradient>
        <linearGradient
            id="paint1_linear_1_571"
            x1="32.8708"
            y1="32.6885"
            x2="15.5691"
            y2="2.85153"
            gradientUnits="userSpaceOnUse"
        >
            <stop offset="0.0660125" stop-color="#8EFFEE" />
            <stop offset="0.4499" stop-color="#C9C7FF" />
            <stop offset="1" stop-color="#7341FF" />
        </linearGradient>
        <radialGradient
            id="paint2_radial_1_571"
            cx="0"
            cy="0"
            r="1"
            gradientUnits="userSpaceOnUse"
            gradientTransform="translate(19.9894 6.34547) rotate(93.7553) scale(27.4532 35.4039)"
        >
            <stop offset="0.403126" stop-color="#6D4AFF" />
            <stop offset="0.9944" stop-color="#00F0C3" />
        </radialGradient>
    </defs>
</svg>
