<svg width="36" height="36" viewBox="0 0 36 36" fill="none" xmlns="http://www.w3.org/2000/svg">
    <g clip-path="url(#clip0_8059_1993)">
        <rect width="36" height="36" fill="white" />
        <rect width="36" height="36" fill="url(#paint0_linear_8059_1993)" fill-opacity="0.25" />
        <g clip-path="url(#clip1_8059_1993)">
            <path
                d="M24.2913 14.6027V25.5648C23.9581 25.3524 23.6248 25.1378 23.2893 24.9254C23.1931 24.865 23.0947 24.8024 22.9874 24.7711C22.8778 24.7398 22.7525 24.7421 22.6564 24.8024C22.5803 24.8516 22.5289 24.9321 22.4908 25.0148C22.4618 25.0729 22.4372 25.1311 22.4126 25.1914C22.2649 25.7123 21.9496 26.1617 21.5313 26.4836C21.5179 26.4925 21.5045 26.5037 21.4911 26.5126C21.4083 26.5752 21.3211 26.6334 21.2294 26.6825C21.2271 26.6825 21.2227 26.6893 21.2182 26.6915C21.2182 26.6915 21.216 26.6915 21.2137 26.6937C21.1287 26.7384 21.0415 26.7809 20.9498 26.8167C20.9297 26.8256 20.9095 26.8323 20.8894 26.839C20.8201 26.8659 20.7463 26.8905 20.6725 26.9106C20.6479 26.9173 20.621 26.924 20.5964 26.9307C20.5248 26.9463 20.451 26.9598 20.3772 26.9709C20.3526 26.9754 20.328 26.9799 20.3034 26.9821C20.2072 26.9933 20.1111 27 20.0127 27H9.46028C8.10042 27 7 25.9001 7 24.5409V12.1436H15.3046C15.403 12.1436 15.4992 12.1503 15.5953 12.1614C15.6199 12.1637 15.6445 12.1681 15.6714 12.1726C15.743 12.1838 15.8168 12.1972 15.8883 12.2151C15.9129 12.2196 15.9398 12.2263 15.9666 12.2352C16.0382 12.2553 16.112 12.2777 16.1813 12.3045C16.2015 12.3112 16.2238 12.3179 16.244 12.3269C16.3334 12.3626 16.4229 12.4051 16.5056 12.4521H16.5101C16.5101 12.4521 16.5191 12.4588 16.5235 12.461C16.613 12.5124 16.7002 12.5683 16.783 12.6309C16.7964 12.6399 16.8098 12.651 16.8232 12.6622C17.2437 12.9819 17.5569 13.4312 17.7067 13.9521C17.7291 14.0125 17.7537 14.0706 17.7828 14.1287C17.823 14.2115 17.8722 14.2919 17.9505 14.3411C18.0444 14.4015 18.1697 14.4037 18.2793 14.3724C18.3866 14.3411 18.4851 14.2785 18.5812 14.2182C19.0755 13.9029 19.5698 13.5877 20.0619 13.2725C20.0663 13.2703 20.0686 13.268 20.0708 13.2658L20.0865 13.2569C20.0865 13.2569 20.0909 13.2569 20.0932 13.2524C20.1402 13.2233 20.1871 13.192 20.2363 13.1607H20.2408C20.2699 13.1384 20.299 13.1205 20.3303 13.1004C20.5002 12.9908 20.6725 12.8835 20.8469 12.7718C21.6454 12.262 22.6116 12.3269 23.3162 12.7874C23.844 13.1317 24.2242 13.6928 24.2824 14.3992C24.2868 14.4663 24.2913 14.5334 24.2913 14.6027Z"
                fill="url(#paint1_radial_8059_1993)"
                fill-opacity="0.3"
            />
            <path
                d="M23.291 14.4849C23.2908 13.5325 22.2347 12.9594 21.4365 13.479L18.8408 15.1694C18.1809 15.599 17.293 15.3479 16.9561 14.6362L16.6543 13.9985C16.4063 13.4747 15.8784 13.1403 15.2988 13.1401H7.5V12.1401H15.2988C16.2648 12.1403 17.1441 12.6969 17.5576 13.5698L17.8604 14.2085C17.9382 14.3725 18.1427 14.4306 18.2949 14.3315L20.8916 12.6411C22.355 11.6889 24.2908 12.7389 24.291 14.4849V24.5005H23.291V14.4849Z"
                fill="#6D4AFF"
            />
            <path
                d="M23.291 14.4849C23.2908 13.5325 22.2347 12.9594 21.4365 13.479L18.8408 15.1694C18.1809 15.599 17.293 15.3479 16.9561 14.6362L16.6543 13.9985C16.4063 13.4747 15.8784 13.1403 15.2988 13.1401H7.5V12.1401H15.2988C16.2648 12.1403 17.1441 12.6969 17.5576 13.5698L17.8604 14.2085C17.9382 14.3725 18.1427 14.4306 18.2949 14.3315L20.8916 12.6411C22.355 11.6889 24.2908 12.7389 24.291 14.4849V24.5005H23.291V14.4849Z"
                fill="url(#paint2_radial_8059_1993)"
            />
            <path
                d="M20.0127 26V27H9.45996V26H20.0127ZM22.126 23.9629C22.5391 23.7046 22.9813 23.738 23.2607 23.8174L23.2666 23.8193C23.5283 23.8954 23.7429 24.0369 23.8135 24.0811L23.8193 24.085L23.8232 24.0869C24.1593 24.2989 24.5003 24.5181 24.8271 24.7256L24.833 24.7295C24.9075 24.7775 24.9837 24.826 25.0645 24.877C25.1438 24.9271 25.2285 24.98 25.3125 25.0342L25.3105 25.0361L25.3125 25.0381L25.3145 25.0371L26.0908 25.5293L26.0938 25.5312C26.9026 26.0467 27.9172 25.5055 27.9932 24.6797C27.9975 24.6151 28 24.5801 28 24.5498V11.4502C28 11.4199 27.9976 11.3855 27.9932 11.3193C27.9161 10.4957 26.9028 9.95483 26.0928 10.4697L26.0918 10.4688C25.9151 10.5816 25.7473 10.6889 25.5791 10.7969L25.5723 10.8018C25.5378 10.8235 25.5031 10.8453 25.4697 10.8662C25.4576 10.8738 25.4455 10.8812 25.4336 10.8887L25.3809 10.9209L25.3232 10.96L25.2725 10.9922L25.2627 10.9961C24.7939 11.2941 24.3085 11.6066 23.832 11.9072L23.833 11.9082C23.7413 11.9677 23.5367 12.1003 23.2783 12.1777L23.2793 12.1787C23.2773 12.1793 23.2745 12.1791 23.2725 12.1797C23.2704 12.1803 23.2687 12.182 23.2666 12.1826L23.2656 12.1816C22.9734 12.2677 22.527 12.2977 22.1143 12.0312C21.8307 11.8484 21.6798 11.5965 21.6035 11.4414C21.6005 11.4356 21.5977 11.4296 21.5947 11.4238C21.5904 11.4149 21.5858 11.4066 21.582 11.3984L21.583 11.3975C21.5405 11.3108 21.5058 11.2304 21.4883 11.1875L21.4863 11.1816L21.4658 11.1309L21.4502 11.0781C21.364 10.7766 21.178 10.5072 20.9229 10.3115L20.9072 10.2998L20.9023 10.2959C20.8993 10.2936 20.8954 10.291 20.8916 10.2881C20.8363 10.2484 20.7872 10.2156 20.7422 10.1904L20.7314 10.1846C20.6907 10.1622 20.6394 10.1381 20.5674 10.1084C20.5639 10.1071 20.5603 10.1049 20.5566 10.1035C20.5006 10.0837 20.4514 10.0688 20.4102 10.0576L20.3555 10.042C20.3288 10.0354 20.2896 10.0289 20.2275 10.0195V10.0176C20.2136 10.0158 20.2006 10.0136 20.1885 10.0117V10.0137L20.0127 10.001H9.45996C8.69996 10.001 8.08219 10.5758 8.00781 11.3037L8 11.4512V24.5498C8 25.3475 8.64852 25.9998 9.45996 26V27C8.10024 26.9998 7 25.9038 7 24.5498V11.4512C7.00018 10.0995 8.10026 9.00104 9.45996 9.00098H20.0127C20.111 9.00099 20.2076 9.00841 20.3037 9.01953C20.3281 9.02395 20.3526 9.02806 20.377 9.03027C20.4508 9.04141 20.5251 9.05445 20.5967 9.07227L20.6719 9.09277C20.7457 9.11282 20.8203 9.13761 20.8896 9.16211C20.9095 9.17087 20.9293 9.17797 20.9492 9.18457C21.0409 9.22241 21.1289 9.26186 21.2139 9.30859L21.2178 9.31055L21.2188 9.31152C21.2228 9.31353 21.2274 9.3154 21.2295 9.31738C21.3211 9.36854 21.4086 9.42628 21.4912 9.48633C21.5045 9.49736 21.5179 9.50656 21.5312 9.51758C21.897 9.79805 22.1837 10.1763 22.3486 10.6123L22.4141 10.8086C22.4379 10.8669 22.4621 10.9255 22.4902 10.9795C22.5282 11.0618 22.5803 11.1425 22.6562 11.1914C22.7524 11.2535 22.8779 11.256 22.9873 11.2227C23.0946 11.1915 23.193 11.1307 23.2891 11.0684C23.7833 10.7566 24.2753 10.44 24.7695 10.126L24.7793 10.1201L24.8379 10.082L25.0391 9.95605C25.209 9.84696 25.3813 9.7373 25.5557 9.62598C26.9491 8.73975 28.8548 9.60448 28.9912 11.248C28.9957 11.3146 29 11.3814 29 11.4502V24.5498C29 24.6188 28.9957 24.6862 28.9912 24.7529C28.8545 26.3963 26.949 27.2626 25.5557 26.374L24.7793 25.8818L24.7705 25.875C24.6118 25.7726 24.4497 25.6727 24.291 25.5703C23.9578 25.3588 23.6245 25.1451 23.2891 24.9336L23.2832 24.9297C23.1891 24.8708 23.0923 24.8098 22.9873 24.7793C22.8777 24.7482 22.7524 24.7504 22.6562 24.8105C22.5802 24.8595 22.5292 24.9401 22.4912 25.0225L22.4121 25.1982C22.2645 25.7171 21.9495 26.1647 21.5312 26.4854C21.5178 26.4943 21.5046 26.5057 21.4912 26.5146C21.4085 26.577 21.3211 26.6346 21.2295 26.6836L21.2139 26.6953L21.084 26.7598C21.0403 26.7803 20.9958 26.7997 20.9502 26.8174C20.9301 26.8263 20.9097 26.8332 20.8896 26.8398C20.8204 26.8665 20.7466 26.8911 20.6729 26.9111L20.5967 26.9307L20.377 26.9707C20.3525 26.9751 20.3282 26.9802 20.3037 26.9824C20.2075 26.9936 20.1111 27 20.0127 27V26C20.0645 26 20.1204 25.9966 20.1846 25.9893C20.1876 25.9887 20.1926 25.9885 20.1992 25.9873L20.2139 25.9844L20.2285 25.9824C20.2771 25.9751 20.3235 25.9652 20.3672 25.9561C20.373 25.9545 20.3785 25.9543 20.3828 25.9531C20.3965 25.9496 20.4042 25.9479 20.4102 25.9463C20.4487 25.9358 20.4899 25.9214 20.5293 25.9062L20.5518 25.8984L20.5732 25.8906L20.5879 25.8857C20.6261 25.8709 20.6693 25.8492 20.7256 25.8203C20.7341 25.8153 20.7428 25.8097 20.752 25.8047C20.7536 25.8038 20.7551 25.8027 20.7568 25.8018C20.793 25.7824 20.8382 25.7546 20.8896 25.7158L20.9131 25.6982L20.9219 25.6914C20.9252 25.6889 20.9295 25.6866 20.9336 25.6836H20.9316C21.1821 25.4884 21.3661 25.2239 21.4512 24.9248L21.4658 24.8711L21.4873 24.8193C21.5132 24.7559 21.5478 24.6738 21.5918 24.585C21.6634 24.4338 21.8143 24.1631 22.1143 23.9697L22.126 23.9629Z"
                fill="#6D4AFF"
            />
            <path
                d="M20.0127 26V27H9.45996V26H20.0127ZM22.126 23.9629C22.5391 23.7046 22.9813 23.738 23.2607 23.8174L23.2666 23.8193C23.5283 23.8954 23.7429 24.0369 23.8135 24.0811L23.8193 24.085L23.8232 24.0869C24.1593 24.2989 24.5003 24.5181 24.8271 24.7256L24.833 24.7295C24.9075 24.7775 24.9837 24.826 25.0645 24.877C25.1438 24.9271 25.2285 24.98 25.3125 25.0342L25.3105 25.0361L25.3125 25.0381L25.3145 25.0371L26.0908 25.5293L26.0938 25.5312C26.9026 26.0467 27.9172 25.5055 27.9932 24.6797C27.9975 24.6151 28 24.5801 28 24.5498V11.4502C28 11.4199 27.9976 11.3855 27.9932 11.3193C27.9161 10.4957 26.9028 9.95483 26.0928 10.4697L26.0918 10.4688C25.9151 10.5816 25.7473 10.6889 25.5791 10.7969L25.5723 10.8018C25.5378 10.8235 25.5031 10.8453 25.4697 10.8662C25.4576 10.8738 25.4455 10.8812 25.4336 10.8887L25.3809 10.9209L25.3232 10.96L25.2725 10.9922L25.2627 10.9961C24.7939 11.2941 24.3085 11.6066 23.832 11.9072L23.833 11.9082C23.7413 11.9677 23.5367 12.1003 23.2783 12.1777L23.2793 12.1787C23.2773 12.1793 23.2745 12.1791 23.2725 12.1797C23.2704 12.1803 23.2687 12.182 23.2666 12.1826L23.2656 12.1816C22.9734 12.2677 22.527 12.2977 22.1143 12.0312C21.8307 11.8484 21.6798 11.5965 21.6035 11.4414C21.6005 11.4356 21.5977 11.4296 21.5947 11.4238C21.5904 11.4149 21.5858 11.4066 21.582 11.3984L21.583 11.3975C21.5405 11.3108 21.5058 11.2304 21.4883 11.1875L21.4863 11.1816L21.4658 11.1309L21.4502 11.0781C21.364 10.7766 21.178 10.5072 20.9229 10.3115L20.9072 10.2998L20.9023 10.2959C20.8993 10.2936 20.8954 10.291 20.8916 10.2881C20.8363 10.2484 20.7872 10.2156 20.7422 10.1904L20.7314 10.1846C20.6907 10.1622 20.6394 10.1381 20.5674 10.1084C20.5639 10.1071 20.5603 10.1049 20.5566 10.1035C20.5006 10.0837 20.4514 10.0688 20.4102 10.0576L20.3555 10.042C20.3288 10.0354 20.2896 10.0289 20.2275 10.0195V10.0176C20.2136 10.0158 20.2006 10.0136 20.1885 10.0117V10.0137L20.0127 10.001H9.45996C8.69996 10.001 8.08219 10.5758 8.00781 11.3037L8 11.4512V24.5498C8 25.3475 8.64852 25.9998 9.45996 26V27C8.10024 26.9998 7 25.9038 7 24.5498V11.4512C7.00018 10.0995 8.10026 9.00104 9.45996 9.00098H20.0127C20.111 9.00099 20.2076 9.00841 20.3037 9.01953C20.3281 9.02395 20.3526 9.02806 20.377 9.03027C20.4508 9.04141 20.5251 9.05445 20.5967 9.07227L20.6719 9.09277C20.7457 9.11282 20.8203 9.13761 20.8896 9.16211C20.9095 9.17087 20.9293 9.17797 20.9492 9.18457C21.0409 9.22241 21.1289 9.26186 21.2139 9.30859L21.2178 9.31055L21.2188 9.31152C21.2228 9.31353 21.2274 9.3154 21.2295 9.31738C21.3211 9.36854 21.4086 9.42628 21.4912 9.48633C21.5045 9.49736 21.5179 9.50656 21.5312 9.51758C21.897 9.79805 22.1837 10.1763 22.3486 10.6123L22.4141 10.8086C22.4379 10.8669 22.4621 10.9255 22.4902 10.9795C22.5282 11.0618 22.5803 11.1425 22.6562 11.1914C22.7524 11.2535 22.8779 11.256 22.9873 11.2227C23.0946 11.1915 23.193 11.1307 23.2891 11.0684C23.7833 10.7566 24.2753 10.44 24.7695 10.126L24.7793 10.1201L24.8379 10.082L25.0391 9.95605C25.209 9.84696 25.3813 9.7373 25.5557 9.62598C26.9491 8.73975 28.8548 9.60448 28.9912 11.248C28.9957 11.3146 29 11.3814 29 11.4502V24.5498C29 24.6188 28.9957 24.6862 28.9912 24.7529C28.8545 26.3963 26.949 27.2626 25.5557 26.374L24.7793 25.8818L24.7705 25.875C24.6118 25.7726 24.4497 25.6727 24.291 25.5703C23.9578 25.3588 23.6245 25.1451 23.2891 24.9336L23.2832 24.9297C23.1891 24.8708 23.0923 24.8098 22.9873 24.7793C22.8777 24.7482 22.7524 24.7504 22.6562 24.8105C22.5802 24.8595 22.5292 24.9401 22.4912 25.0225L22.4121 25.1982C22.2645 25.7171 21.9495 26.1647 21.5312 26.4854C21.5178 26.4943 21.5046 26.5057 21.4912 26.5146C21.4085 26.577 21.3211 26.6346 21.2295 26.6836L21.2139 26.6953L21.084 26.7598C21.0403 26.7803 20.9958 26.7997 20.9502 26.8174C20.9301 26.8263 20.9097 26.8332 20.8896 26.8398C20.8204 26.8665 20.7466 26.8911 20.6729 26.9111L20.5967 26.9307L20.377 26.9707C20.3525 26.9751 20.3282 26.9802 20.3037 26.9824C20.2075 26.9936 20.1111 27 20.0127 27V26C20.0645 26 20.1204 25.9966 20.1846 25.9893C20.1876 25.9887 20.1926 25.9885 20.1992 25.9873L20.2139 25.9844L20.2285 25.9824C20.2771 25.9751 20.3235 25.9652 20.3672 25.9561C20.373 25.9545 20.3785 25.9543 20.3828 25.9531C20.3965 25.9496 20.4042 25.9479 20.4102 25.9463C20.4487 25.9358 20.4899 25.9214 20.5293 25.9062L20.5518 25.8984L20.5732 25.8906L20.5879 25.8857C20.6261 25.8709 20.6693 25.8492 20.7256 25.8203C20.7341 25.8153 20.7428 25.8097 20.752 25.8047C20.7536 25.8038 20.7551 25.8027 20.7568 25.8018C20.793 25.7824 20.8382 25.7546 20.8896 25.7158L20.9131 25.6982L20.9219 25.6914C20.9252 25.6889 20.9295 25.6866 20.9336 25.6836H20.9316C21.1821 25.4884 21.3661 25.2239 21.4512 24.9248L21.4658 24.8711L21.4873 24.8193C21.5132 24.7559 21.5478 24.6738 21.5918 24.585C21.6634 24.4338 21.8143 24.1631 22.1143 23.9697L22.126 23.9629Z"
                fill="url(#paint3_radial_8059_1993)"
            />
            <path
                d="M23.9497 11.24L24.2231 11.6589L20.1235 14.3337L19.5767 13.4959L23.6772 10.8211L23.9497 11.24Z"
                fill="#6D4AFF"
            />
            <path
                d="M23.9497 11.24L24.2231 11.6589L20.1235 14.3337L19.5767 13.4959L23.6772 10.8211L23.9497 11.24Z"
                fill="url(#paint4_radial_8059_1993)"
            />
        </g>
    </g>
    <defs>
        <linearGradient
            id="paint0_linear_8059_1993"
            x1="45.024"
            y1="45.8889"
            x2="14.4"
            y2="-8.01377e-07"
            gradientUnits="userSpaceOnUse"
        >
            <stop stop-color="#6D4AFF" />
            <stop offset="1" stop-color="white" stop-opacity="0" />
        </linearGradient>
        <radialGradient
            id="paint1_radial_8059_1993"
            cx="0"
            cy="0"
            r="1"
            gradientTransform="matrix(7.46988 -12.9395 15.9612 12.1429 10.1482 26.6182)"
            gradientUnits="userSpaceOnUse"
        >
            <stop stop-color="#B8C6E5" />
            <stop offset="0.418768" stop-color="#9388F2" />
            <stop offset="0.716275" stop-color="#6D4AFF" />
        </radialGradient>
        <radialGradient
            id="paint2_radial_8059_1993"
            cx="0"
            cy="0"
            r="1"
            gradientTransform="matrix(9.50404 -15.6766 20.3077 14.7115 11.0055 26.5375)"
            gradientUnits="userSpaceOnUse"
        >
            <stop stop-color="#B8C6E5" />
            <stop offset="0.418768" stop-color="#9388F2" />
            <stop offset="0.716275" stop-color="#6D4AFF" />
        </radialGradient>
        <radialGradient
            id="paint3_radial_8059_1993"
            cx="0"
            cy="0"
            r="1"
            gradientTransform="matrix(9.50404 -15.6766 20.3077 14.7115 11.0055 26.5375)"
            gradientUnits="userSpaceOnUse"
        >
            <stop stop-color="#B8C6E5" />
            <stop offset="0.418768" stop-color="#9388F2" />
            <stop offset="0.716275" stop-color="#6D4AFF" />
        </radialGradient>
        <radialGradient
            id="paint4_radial_8059_1993"
            cx="0"
            cy="0"
            r="1"
            gradientTransform="matrix(9.50404 -15.6766 20.3077 14.7115 11.0055 26.5375)"
            gradientUnits="userSpaceOnUse"
        >
            <stop stop-color="#B8C6E5" />
            <stop offset="0.418768" stop-color="#9388F2" />
            <stop offset="0.716275" stop-color="#6D4AFF" />
        </radialGradient>
        <clipPath id="clip0_8059_1993">
            <rect width="36" height="36" fill="white" />
        </clipPath>
        <clipPath id="clip1_8059_1993">
            <rect width="22" height="18" fill="white" transform="translate(7 9)" />
        </clipPath>
    </defs>
</svg>
