<svg width="36" height="36" viewBox="0 0 36 36" fill="none" xmlns="http://www.w3.org/2000/svg">
    <g clip-path="url(#clip0_7292_2825)">
        <rect width="36" height="36" fill="white" />
        <rect width="36" height="36" fill="url(#paint0_linear_7292_2825)" fill-opacity="0.25" />
        <path
            fill-rule="evenodd"
            clip-rule="evenodd"
            d="M5.97331 13.2233C3.34223 15.8544 3.34223 20.1202 5.97331 22.7513C8.60439 25.3824 12.8702 25.3824 15.5013 22.7513L18 20.2526L20.4987 22.7513C23.1298 25.3824 27.3956 25.3824 30.0267 22.7513C32.6578 20.1202 32.6578 15.8544 30.0267 13.2233C27.3956 10.5922 23.1298 10.5922 20.4987 13.2233L18 15.722L15.5013 13.2233C12.8702 10.5922 8.60439 10.5922 5.97331 13.2233ZM8.25343 20.4712C6.88162 19.0994 6.88162 16.8752 8.25343 15.5034C9.62524 14.1316 11.8494 14.1316 13.2212 15.5034L15.7051 17.9873L13.2212 20.4712C11.8494 21.843 9.62524 21.843 8.25343 20.4712ZM22.7788 20.4712C24.1506 21.843 26.3748 21.843 27.7466 20.4712C29.1184 19.0994 29.1184 16.8752 27.7466 15.5034C26.3748 14.1316 24.1506 14.1316 22.7788 15.5034L20.2949 17.9873L22.7788 20.4712Z"
            fill="url(#paint1_radial_7292_2825)"
        />
        <path
            opacity="0.4"
            d="M9.62402 14.6547C10.8466 14.247 12.2488 14.5298 13.2221 15.503L15.706 17.9869L18.0174 15.7381L18.0009 15.7216L15.5022 13.2229C14.6993 12.42 13.7441 11.8621 12.7296 11.5492L9.62402 14.6547Z"
            fill="url(#paint2_linear_7292_2825)"
        />
        <path
            opacity="0.4"
            d="M23.621 24.5209L27.2783 20.8636C25.9079 21.8256 24.0039 21.6943 22.7792 20.4696L20.2953 17.9857L18.0004 20.251L20.4991 22.7497C21.3936 23.6442 22.4771 24.2346 23.621 24.5209Z"
            fill="url(#paint3_linear_7292_2825)"
        />
    </g>
    <defs>
        <linearGradient
            id="paint0_linear_7292_2825"
            x1="36"
            y1="42.2778"
            x2="19.1922"
            y2="-1.82629"
            gradientUnits="userSpaceOnUse"
        >
            <stop stop-color="#FB83AE" />
            <stop offset="1" stop-color="white" stop-opacity="0" />
        </linearGradient>
        <radialGradient
            id="paint1_radial_7292_2825"
            cx="0"
            cy="0"
            r="1"
            gradientTransform="matrix(12.2163 -9.05368 30.7416 8.79825 11.8757 24.6209)"
            gradientUnits="userSpaceOnUse"
        >
            <stop stop-color="#FFD580" />
            <stop offset="0.09375" stop-color="#F6C592" />
            <stop offset="0.205" stop-color="#EBB6A2" />
            <stop offset="0.324466" stop-color="#DFA5AF" />
            <stop offset="0.42875" stop-color="#D397BE" />
            <stop offset="0.53375" stop-color="#C486CB" />
            <stop offset="0.64875" stop-color="#B578D9" />
            <stop offset="0.77125" stop-color="#A166E5" />
            <stop offset="0.89125" stop-color="#8B57F2" />
            <stop offset="1" stop-color="#704CFF" />
        </radialGradient>
        <linearGradient
            id="paint2_linear_7292_2825"
            x1="13.1641"
            y1="13.892"
            x2="16.6702"
            y2="17.2234"
            gradientUnits="userSpaceOnUse"
        >
            <stop stop-color="#372580" stop-opacity="0" />
            <stop offset="1" stop-color="#372580" />
        </linearGradient>
        <linearGradient
            id="paint3_linear_7292_2825"
            x1="19.2096"
            y1="19.1304"
            x2="22.4342"
            y2="21.9519"
            gradientUnits="userSpaceOnUse"
        >
            <stop stop-color="#372580" />
            <stop offset="1" stop-color="#372580" stop-opacity="0" />
        </linearGradient>
        <clipPath id="clip0_7292_2825">
            <rect width="36" height="36" fill="white" />
        </clipPath>
    </defs>
</svg>
