<?xml version="1.0" encoding="utf-8"?>
<!-- Generator: Adobe Illustrator 22.1.0, SVG Export Plug-In . SVG Version: 6.00 Build 0)  -->
<svg version="1.1" id="Layer_1" xmlns="http://www.w3.org/2000/svg" xmlns:xlink="http://www.w3.org/1999/xlink" x="0px" y="0px"
	 viewBox="0 0 685.3 650" style="enable-background:new 0 0 685.3 650;" xml:space="preserve">
<style type="text/css">
	.st0{fill:#8A8FC6;fill-opacity:0;stroke:#9199CC;stroke-width:13;}
	.st1{fill:#9199CC;}
</style>
<ellipse id="Ellipse_1.svg" class="st0" cx="342.5" cy="325" rx="336" ry="318.5"/>
<g>
	<g>
		<path class="st1" d="M484.8,255.7L484.8,255.7c8.1,0,14.7-6.6,14.7-14.8V189c0-8.2-6.6-14.8-14.7-14.8h-12.9v-14.8
			c0-8.2-6.6-14.8-14.7-14.8h-257c-8.1,0-14.7,6.6-14.7,14.8v333.3c0,8.2,6.6,14.8,14.7,14.8h257c8.1,0,14.7-6.6,14.7-14.8v-14.8
			h12.9c8.1,0,14.7-6.6,14.7-14.8v-51.8c0-8.2-6.6-14.8-14.7-14.8h-12.9v-29.7h12.9c8.1,0,14.7-6.6,14.7-14.8v-51.8
			c0-8.2-6.6-14.8-14.7-14.8h-12.9v-29.7L484.8,255.7L484.8,255.7z M280,318.4l28.8-50.3c1.5-2.6,0.9-5.9-1.5-7.8
			c-7.9-6.3-12.9-16.1-12.9-27c0-19.8,16.5-35.7,36.5-34.5c17.6,1.1,31.7,15.9,32.1,33.7c0.2,11.3-4.9,21.3-13,27.8
			c-2.3,1.8-2.9,5.2-1.4,7.7l28.8,50.3c4.6,8.1-1.2,18.2-10.4,18.2h-76.6C281.1,336.6,275.3,326.5,280,318.4z M387.4,452H270
			c-8.1,0-14.7-6.6-14.7-14.8c0-8.2,6.6-14.8,14.7-14.8h117.3c8.1,0,14.7,6.6,14.7,14.8C402.1,445.4,395.5,452,387.4,452z
			 M387.4,396.4H270c-8.1,0-14.7-6.6-14.7-14.8s6.6-14.8,14.7-14.8h117.3c8.1,0,14.7,6.6,14.7,14.8
			C402.1,389.8,395.5,396.4,387.4,396.4z"/>
	</g>
</g>
</svg>
