<?xml version="1.0" encoding="utf-8"?>
<!-- Generator: Adobe Illustrator 21.1.0, SVG Export Plug-In . SVG Version: 6.00 Build 0)  -->
<svg version="1.1" id="Layer_1" xmlns="http://www.w3.org/2000/svg" xmlns:xlink="http://www.w3.org/1999/xlink" x="0px" y="0px"
	 viewBox="0 0 415.6 399.7" style="enable-background:new 0 0 415.6 399.7;" xml:space="preserve">
<style type="text/css">
	.st0{fill:#9199CC;}
	.st1{fill:#8A8FC6;}
	.st2{fill:none;}
	.st3{clip-path:url(#SVGID_2_);}
	.st4{clip-path:url(#SVGID_4_);}
	.st5{clip-path:url(#SVGID_6_);}
	.st6{fill:#505265;}
	.st7{clip-path:url(#SVGID_8_);}
	.st8{clip-path:url(#SVGID_10_);}
</style>
<g>
	<path class="st0" d="M281.5,104.2v16.6v2.8h-2.7v-10.7h-4.5v10.7h-2.7v-2.8l0,0v-16.6v-2.8h2.7v8.6h4.5v-8.6h2.8v2.8H281.5z"/>
	<path class="st0" d="M289.5,108.3c2.5,0,4.3,1.8,4.3,4.3v4.3h-7.1v2.6c0,0.8,0.6,1.5,1.5,1.5h1.5c0.8,0,1.5-0.6,1.5-1.5v-0.3h2.8
		v0.3c0,2.5-1.8,4.3-4.3,4.3h-1.4c-2.5,0-4.3-1.8-4.3-4.3v-6.8c0-2.5,1.8-4.3,4.3-4.3h1.2V108.3z M288.2,111.1
		c-0.8,0-1.5,0.6-1.5,1.5v1.6h4.3v-1.6c0-0.8-0.6-1.5-1.5-1.5H288.2z"/>
	<path class="st0" d="M298.9,119.3c0,0.8,0.4,1.5,1,1.5h1.1v2.8h-1.1c-2.2,0-3.8-1.8-3.8-4.3v-17.9h2.8V119.3z"/>
	<path class="st0" d="M305.4,119.3c0,0.8,0.4,1.5,1,1.5h1.1v2.8h-1.1c-2.2,0-3.8-1.8-3.8-4.3v-17.9h2.8V119.3z"/>
	<path class="st0" d="M314.2,108.3c2.5,0,4.3,1.8,4.3,4.3v6.8c0,2.5-1.8,4.3-4.3,4.3h-1.4c-2.5,0-4.3-1.8-4.3-4.3v-6.8
		c0-2.5,1.8-4.3,4.3-4.3H314.2z M312.8,111.1c-0.8,0-1.5,0.6-1.5,1.5v6.9c0,0.8,0.6,1.5,1.5,1.5h1.5c0.8,0,1.5-0.6,1.5-1.5v-6.9
		c0-0.8-0.6-1.5-1.5-1.5H312.8z"/>
</g>
<path class="st0" d="M323.9,87.2c0.4,0,0.7,0.5,0.7,1.1v47c0,0.6-0.3,1.1-0.7,1.1h-40h-0.8l-0.6,1l-7.4,11.4v-9.1v-3.3h-2.2H265
	c-0.4,0-0.7-0.5-0.7-1.1v-47c0-0.6,0.3-1.1,0.7-1.1H323.9 M323.9,83.9H265c-1.7,0-2.9,2-2.9,4.6v47c0,2.5,1.2,4.6,2.9,4.6h7.9v15
	c0,0.5,0.3,1,0.6,1c0.1,0,0.3-0.2,0.4-0.3l10.1-15.5h40.2c1.7,0,2.9-2,2.9-4.6V88.4C326.8,85.9,325.6,83.9,323.9,83.9L323.9,83.9z"
	/>
<g>
	<path class="st1" d="M207.8,395.9c-27.9,0-54.9-5.2-80.4-15.4c-24.6-9.9-46.7-24-65.7-42s-33.9-39-44.3-62.3
		C6.6,252.1,1.1,226.4,1.1,199.9s5.5-52.2,16.3-76.4c10.4-23.3,25.3-44.3,44.3-62.3s41.1-32.1,65.7-42C152.9,9,179.9,3.8,207.8,3.8
		s54.9,5.2,80.4,15.4c24.6,9.9,46.7,24,65.7,42s33.9,39,44.3,62.3c10.8,24.2,16.3,49.9,16.3,76.4s-5.5,52.2-16.3,76.4
		c-10.4,23.3-25.3,44.3-44.3,62.3s-41.1,32.1-65.7,42C262.7,390.7,235.7,395.9,207.8,395.9z M207.8,11.5c-26.9,0-53,5-77.6,14.8
		c-23.7,9.5-45,23.1-63.3,40.4C48.7,84,34.3,104.2,24.3,126.6C14,149.8,8.7,174.5,8.7,199.9S14,250,24.3,273.2
		c10,22.4,24.4,42.6,42.6,59.9c18.3,17.3,39.6,30.9,63.3,40.4c24.6,9.8,50.7,14.8,77.6,14.8s53-5,77.6-14.8
		c23.7-9.5,45-23.1,63.3-40.4s32.6-37.5,42.6-59.9c10.4-23.2,15.6-47.9,15.6-73.3s-5.3-50.1-15.6-73.3c-10-22.4-24.4-42.6-42.6-59.9
		c-18.3-17.3-39.6-30.9-63.3-40.4C260.8,16.5,234.7,11.5,207.8,11.5z"/>
</g>
<ellipse class="st2" cx="207.8" cy="199.9" rx="202.9" ry="192.2"/>
<g>
	<defs>
		<ellipse id="SVGID_1_" cx="207.8" cy="199.9" rx="202.9" ry="192.2"/>
	</defs>
	<clipPath id="SVGID_2_">
		<use xlink:href="#SVGID_1_"  style="overflow:visible;"/>
	</clipPath>
	<g class="st3">
		<circle class="st2" cx="203.3" cy="106.8" r="11.6"/>
	</g>
</g>
<g>
	<defs>
		<ellipse id="SVGID_3_" cx="207.8" cy="199.9" rx="202.9" ry="192.2"/>
	</defs>
	<clipPath id="SVGID_4_">
		<use xlink:href="#SVGID_3_"  style="overflow:visible;"/>
	</clipPath>
	<g class="st4">
		<path class="st2" d="M290.8,197.8V235c7.8-2.5,13.6-10.1,13.6-18.6C304.4,207.6,298.6,200.3,290.8,197.8z"/>
	</g>
</g>
<g>
	<defs>
		<ellipse id="SVGID_5_" cx="207.8" cy="199.9" rx="202.9" ry="192.2"/>
	</defs>
	<clipPath id="SVGID_6_">
		<use xlink:href="#SVGID_5_"  style="overflow:visible;"/>
	</clipPath>
	<g class="st5">
		<g>
			<g>
				<path class="st6" d="M312.9,216.4c0-13.4-9.6-24.9-22.7-27.4l-2.9-0.6V183c0-18.5-15.1-33.6-33.6-33.6h-47.8v-22.1l2.6-0.7
					c4.2-1.1,7.9-3.6,10.6-7c2.7-3.5,4.1-7.7,4.1-12.1c0-5.2-2.1-10.2-5.8-14c-3.8-3.8-8.7-5.8-14-5.8c-5.2,0-10.2,2.1-14,5.8
					c-3.8,3.8-5.8,8.7-5.8,14c0,8.9,6.2,17,14.7,19.2l2.7,0.7v22.2h-47.8c-18.5,0-33.6,15.1-33.6,33.6v5.5l-2.9,0.6
					c-13.2,2.5-22.7,14-22.7,27.4s9.6,24.9,22.7,27.4l2.8,0.5l0.1,2.8c0.4,8.6,4.1,16.6,10.4,22.7c6.3,6,14.5,9.4,23.2,9.4h100.5
					c8.6,0,16.9-3.3,23.2-9.4c6.3-6,10-14.1,10.4-22.7l0.1-2.8l2.8-0.5C303.3,241.3,312.9,229.8,312.9,216.4z M119.5,239.9l-4.7-1.5
					c-9.5-3-16.1-12.1-16.1-22c0-10.1,6.5-18.9,16.1-22l4.7-1.5V239.9z M188.2,106.8c0-8.2,6.8-14.9,15.1-14.9s15.1,6.8,15.1,15.1
					c0,8.5-6.7,15.1-15.1,15.1C195,122.2,188.2,115.3,188.2,106.8z M282.3,245.6c0,7.7-3,14.9-8.5,20.4s-12.8,8.6-20.5,8.6H153.1
					c-7.7,0-14.9-3-20.4-8.5s-8.6-12.8-8.6-20.5v-62.8c0-7.7,3-14.9,8.5-20.4c5.5-5.5,12.8-8.6,20.5-8.6h100.5
					c7.7,0,14.9,3,20.4,8.5s8.6,12.8,8.6,20.5L282.3,245.6z M291.9,238.4l-4.7,1.5v-47l4.7,1.5c9.5,3,16.1,12.1,16.1,22
					C308,226.5,301.5,235.3,291.9,238.4z"/>
			</g>
		</g>
		<g>
			<g>
				<path class="st6" d="M253.6,282.2H153.1c-9.4,0-18.4-3.6-25.3-10.2c-6.8-6.6-10.9-15.3-11.4-24.7v-0.4l-0.4-0.1
					c-14.6-2.8-25.2-15.6-25.2-30.4c0-14.8,10.6-27.6,25.2-30.4l0.4-0.1v-3c0-20.2,16.4-36.7,36.7-36.7h44.8v-16.8l-0.4-0.1
					c-9.8-2.5-16.9-11.8-16.9-22.1c0-6.1,2.4-11.8,6.7-16.1c4.3-4.3,10.1-6.7,16.1-6.7s11.8,2.4,16.1,6.7c4.3,4.3,6.7,10.1,6.7,16.1
					c0,5.1-1.7,10-4.8,14c-3,3.9-7.4,6.8-12.2,8.1l-0.4,0.1v16.8h44.8c20.2,0,36.7,16.4,36.7,36.7v3l0.4,0.1
					c14.6,2.8,25.2,15.6,25.2,30.4c0,14.8-10.6,27.6-25.2,30.4l-0.4,0.1v0.4c-0.5,9.4-4.5,18.2-11.4,24.7
					C272,278.6,263,282.2,253.6,282.2z M153.1,156.8c-6.9,0-13.4,2.7-18.3,7.7c-4.9,4.9-7.6,11.4-7.6,18.2v62.8
					c0,6.9,2.7,13.4,7.7,18.3c4.9,4.9,11.4,7.6,18.2,7.6h100.3c6.9,0,13.4-2.7,18.3-7.7c4.9-4.9,7.6-11.4,7.6-18.2l0,0l0.3-62.8
					c0-6.9-2.7-13.4-7.7-18.3c-4.9-4.9-11.4-7.6-18.2-7.6L153.1,156.8L153.1,156.8z M291.9,238.4l0.5,1.7L291.9,238.4z M290.3,197.1
					v38.6l0.7-0.2c8.3-2.7,13.9-10.4,13.9-19.1c0-8.6-5.7-16.5-13.9-19.1L290.3,197.1z M116.4,197.1l-0.7,0.2
					c-8.3,2.7-13.9,10.4-13.9,19.1c0,8.6,5.7,16.5,13.9,19.1l0.7,0.2V197.1z M203.3,95c-6.7,0-12.1,5.3-12.1,11.8
					c0,6.8,5.4,12.3,12.1,12.3c6.8,0,12.1-5.3,12.1-12.1C215.4,100.4,210,95,203.3,95z"/>
			</g>
		</g>
	</g>
</g>
<g>
	<defs>
		<ellipse id="SVGID_7_" cx="207.8" cy="199.9" rx="202.9" ry="192.2"/>
	</defs>
	<clipPath id="SVGID_8_">
		<use xlink:href="#SVGID_7_"  style="overflow:visible;"/>
	</clipPath>
	<g class="st7">
		<g>
			<g>
				<path class="st6" d="M165.8,189.5c-7.8,0-14,6.4-14,14.2s6.4,14.2,14,14.2s14.2-6.4,14.2-14C180,195.9,173.6,189.5,165.8,189.5z
					"/>
			</g>
		</g>
		<g>
			<g>
				<path class="st6" d="M240.7,189.5c-7.8,0-14,6.4-14,14.2s6.4,14.2,14,14.2s14.2-6.4,14.2-14
					C254.9,195.9,248.5,189.5,240.7,189.5z"/>
			</g>
		</g>
	</g>
</g>
<g>
	<defs>
		<ellipse id="SVGID_9_" cx="207.8" cy="199.9" rx="202.9" ry="192.2"/>
	</defs>
	<clipPath id="SVGID_10_">
		<use xlink:href="#SVGID_9_"  style="overflow:visible;"/>
	</clipPath>
	<g class="st8">
		<path class="st6" d="M219.7,236.3c-4.3,0.5-12.3,3.3-16.6,3.3c-4,0-12.1-2.8-16.1-3.3c-3.3-0.3-6,2.8-6,6.1s2.8,11.8,7.8,12.5
			c3.8,0.5,11.6,2.8,15.3,2.8c4,0,11.6-2.8,15.3-3.1c3.3-0.3,6-8.7,6-12.3C225.7,238.9,222.9,235.8,219.7,236.3z"/>
	</g>
</g>
<ellipse class="st2" cx="207.8" cy="199.9" rx="202.9" ry="192.2"/>
<g>
	<circle class="st0" cx="187.8" cy="334.7" r="7.7"/>
</g>
<g>
	<circle class="st0" cx="208.4" cy="334.7" r="7.7"/>
</g>
<g>
	<circle class="st0" cx="228" cy="334.7" r="7.7"/>
</g>
</svg>
