<svg xmlns="http://www.w3.org/2000/svg" width="1440" height="1152" fill="none" viewBox="0 0 1440 1152">
  <path fill="#29335C" d="M0 0h1440v1152H0z"/>
  <path fill="#334073" d="M361.674 217.489c-6.601 7.163-15.742-5.676-23.613-4.719-12.97 1.577-9.01 15.506-21.127 10.742-12.117-4.765-22.133 3.578-32.934 8.488h183c-9.56-3.195-27.652-8.488-39.148-8.488-16.467 0-11.675-20.58-25.166-23.953-27.031-6.758-33.866 10.176-41.012 17.93zM1275.67 341.489c-6.6 7.163-15.74-5.676-23.61-4.719-12.97 1.577-9.01 15.506-21.13 10.742-12.11-4.765-22.13 3.578-32.93 8.488h183c-9.56-3.195-27.65-8.488-39.15-8.488-16.46 0-11.67-20.58-25.16-23.953-27.03-6.758-33.87 10.176-41.02 17.93z"/>
  <path fill="#242D51" fill-rule="evenodd" d="M233 826.117L1440 969V762s-245-144.5-283.81-178.868C1114.44 583.818 904 763 233 826.117z" clip-rule="evenodd"/>
  <path fill="#334073" fill-rule="evenodd" d="M1156.19 583.132C1149.5 588.5 1151 621.5 1175 627.5c20.86 5.216 22.5 14 20.5 20-2.69 8.063-27.82 6.405-39.31 19C1106 721.5 1440 888 1440 888V742s-151-64-283.81-158.868z" clip-rule="evenodd"/>
  <path fill="#242D51" d="M0 688s293.725-225.172 404.981-305c11.364 8.372 50.773 93.733 95.554 144.407 73.299 82.947 142.993 107.706 245.39 149.79C848.057 719.171 941.339 768.551 1018.5 783.5c190 57 421.5 69.5 421.5 69.5v87H0V688z"/>
  <path fill="#334073" fill-rule="evenodd" d="M918 731.5C681.866 653.603 405 383 405 383s49.148 64.125 35.66 104.189c-8.093 24.041-35.66 4.049-35.66 31.913 0 27.865 45.779 33.817 61.937 37.546 35.191 8.123 45.044 39.423 0 30.975-30.841-5.784-49.737 11.264-49.737 42.239 0 43.22 137.234 89.218 215.8 107.138 345.304 78.761 554 105 807 129-214.51-32.406-321-68.193-522-134.5z" clip-rule="evenodd"/>
  <path fill="#29335C" fill-rule="evenodd" d="M1440 1053.2V837.077c-473-19.94-910.381 39.735-910.381 39.735L725.5 1053.2H1440z" clip-rule="evenodd"/>
  <path fill="#2E3967" fill-rule="evenodd" d="M1440 1152v-83.37c-150.45-85.396-643.715-179.726-981-198.999-352-14-459 17-459 17V1152h1440z" clip-rule="evenodd"/>
  <path fill="#334073" fill-rule="evenodd" d="M768.5 1027.25C695.958 1093.44 546 1152 546 1152h267s48.64-73.74 62-124.75c10.714-40.91 10.156-105.615 5.5-107.119-11.601-3.746-31-5.58-37-7-3.517 10.797-15 59.369-75 114.119z" clip-rule="evenodd"/>
  <path fill="#2E3967" fill-rule="evenodd" d="M782.499 868.077c-3.164-14.769 27.001-16.5 53.501-20.5 0 0-29.49.19-47.501 3-35.216 5.494-18.169 47.983-14.94 51.5 24.89 7.039 40.441 8 62.441 12-19.067-5.886-47.501-18-53.501-46z" clip-rule="evenodd"/>
  <path fill="#334073" d="M1037.25 399.588c-17.78 18.961-42.405-15.024-63.61-12.49-34.942 4.175-24.273 41.045-56.917 28.432C884.08 402.918 857.099 425.003 828 438h493c-25.75-8.457-74.49-22.47-105.46-22.47-44.37 0-31.46-54.476-67.8-63.404-72.82-17.887-91.24 26.937-110.49 47.462zM141 289.066c-14.802 13.464-51.51 10.811-82 24.5h267c-15.384-5.078-21.5-11-40-11-26.5 0-11-22.029-30-33.825-23.266-14.444-52.5-3-64 9.325-10.624 11.386-16.5-3.325-32.5-3.325-15.042 0-12.646 9-18.5 14.325z"/>
  <path fill="#14192E" d="M0 0h1440v1152H0z" opacity=".48"/>
</svg>
