<?xml version="1.0" encoding="utf-8"?>
<!-- Generator: Adobe Illustrator 21.1.0, SVG Export Plug-In . SVG Version: 6.00 Build 0)  -->
<svg version="1.1" id="Layer_1" xmlns="http://www.w3.org/2000/svg" xmlns:xlink="http://www.w3.org/1999/xlink" x="0px" y="0px"
	 viewBox="0 0 415.6 399.7" style="enable-background:new 0 0 415.6 399.7;" xml:space="preserve">
<style type="text/css">
	.st0{fill:#9199CC;}
	.st1{clip-path:url(#SVGID_2_);}
	.st2{fill:#505265;}
</style>
<g>
	<g>
		<path class="st0" d="M207.8,395.9c-27.9,0-54.9-5.2-80.4-15.4c-24.6-9.9-46.7-24-65.7-42c-19-18-33.9-39-44.3-62.3
			C6.6,252.1,1.1,226.4,1.1,199.9s5.5-52.2,16.3-76.4c10.4-23.3,25.3-44.3,44.3-62.3c19-18,41.1-32.1,65.7-42
			C152.9,9,179.9,3.8,207.8,3.8s54.9,5.2,80.4,15.4c24.6,9.9,46.7,24,65.7,42c19,18,33.9,39,44.3,62.3
			c10.8,24.2,16.3,49.9,16.3,76.4s-5.5,52.2-16.3,76.4c-10.4,23.3-25.3,44.3-44.3,62.3c-19,18-41.1,32.1-65.7,42
			C262.7,390.7,235.7,395.9,207.8,395.9z M207.8,11.5c-26.9,0-53,5-77.6,14.8c-23.7,9.5-45,23.1-63.3,40.4
			C48.7,84,34.3,104.2,24.3,126.6C14,149.8,8.7,174.5,8.7,199.9c0,25.4,5.3,50.1,15.6,73.3c10,22.4,24.4,42.6,42.6,59.9
			c18.3,17.3,39.6,30.9,63.3,40.4c24.6,9.8,50.7,14.8,77.6,14.8s53-5,77.6-14.8c23.7-9.5,45-23.1,63.3-40.4
			c18.3-17.3,32.6-37.5,42.6-59.9c10.4-23.2,15.6-47.9,15.6-73.3c0-25.4-5.3-50.1-15.6-73.3c-10-22.4-24.4-42.6-42.6-59.9
			c-18.3-17.3-39.6-30.9-63.3-40.4C260.8,16.5,234.7,11.5,207.8,11.5z"/>
	</g>
	<g>
		<defs>
			<ellipse id="SVGID_1_" cx="207.8" cy="199.9" rx="199.5" ry="189"/>
		</defs>
		<clipPath id="SVGID_2_">
			<use xlink:href="#SVGID_1_"  style="overflow:visible;"/>
		</clipPath>
		<g class="st1">
			<g>
				<path class="st2" d="M188.2,266.2c-1.4-2.7-4.2-4.2-7.2-4.2H87.7c-3,0-5.8,1.6-7.2,4.2c-1.4,2.7-1.4,5.8,0.2,8.3
					c0.2,0.2,0.2,0.3,0.3,0.5l37.4,49.3v35.5c0,2.2,1.1,113.8,3,114.9l19.2,12c0.9,0.6,2.2,0.9,3.3,0.9s2-0.3,3-0.8
					c2-1.1,3.3-3.1,3.3-5.5V324.2l37.4-49.3c0.2-0.2,0.2-0.3,0.3-0.5C189.4,272,189.6,268.9,188.2,266.2z"/>
			</g>
		</g>
		<g class="st1">
			<g>
				<path class="st0" d="M336.8,229.3c-1.7-3.2-5-5-8.6-5H217.4c-3.5,0-6.9,1.9-8.6,5c-1.7,3.2-1.7,6.9,0.2,9.9
					c0.2,0.2,0.2,0.4,0.4,0.6l44.4,58.6v42.2c0,2.6,1.3,135.3,3.5,136.6l22.9,14.3c1.1,0.7,2.6,1.1,3.9,1.1c1.3,0,2.4-0.4,3.5-0.9
					c2.4-1.3,3.9-3.7,3.9-6.5V298.3l44.4-58.6c0.2-0.2,0.2-0.4,0.4-0.6C338.3,236.2,338.5,232.5,336.8,229.3z"/>
			</g>
		</g>
		<g class="st1">
			<g>
				<path class="st0" d="M296.1,92.5V58.1c0-1.5-1.2-2.6-2.6-2.6s-2.6,1.2-2.6,2.6v34.4c0,1.5,1.2,2.6,2.6,2.6S296.1,94,296.1,92.5z
					"/>
			</g>
			<g>
				<path class="st0" d="M275.4,92.5V65c0-1.5-1.2-2.6-2.6-2.6s-2.6,1.2-2.6,2.6v27.5c0,1.5,1.2,2.6,2.6,2.6S275.4,94,275.4,92.5z"
					/>
			</g>
			<g>
				<path class="st0" d="M254.8,92.5V71.9c0-1.5-1.2-2.6-2.6-2.6s-2.6,1.2-2.6,2.6v20.6c0,1.5,1.2,2.6,2.6,2.6S254.8,94,254.8,92.5z
					"/>
			</g>
			<g>
				<path class="st0" d="M308.1,206.1v-96.3c0-3.3-2.8-6.1-6.1-6.1h-58.5c-3.3,0-6.1,2.8-6.1,6.1v96.3c0,3.3,2.8,6.1,6.1,6.1H302
					C305.3,212.1,308.1,209.4,308.1,206.1z M302.8,202.3l-38.6-44.4l38.6-44.4V202.3z M246.1,108.9h53.8l-26.2,30.3L246.1,108.9z
					 M242.7,113.1l27.3,30l-11.3,13c-0.9,1-0.9,2.5,0,3.5l11.3,13l-27.3,30V113.1z M246.1,206.9l27.5-30.3l26.2,30.3H246.1z"/>
			</g>
		</g>
		<g class="st1">
			<g>
				<path class="st2" d="M153.2,153v-28c0-1.2-1-2.1-2.1-2.1s-2.1,1-2.1,2.1v28c0,1.2,1,2.1,2.1,2.1S153.2,154.2,153.2,153z"/>
			</g>
			<g>
				<path class="st2" d="M136.5,153v-22.4c0-1.2-1-2.1-2.1-2.1s-2.1,1-2.1,2.1V153c0,1.2,1,2.1,2.1,2.1S136.5,154.2,136.5,153z"/>
			</g>
			<g>
				<path class="st2" d="M119.7,153v-16.8c0-1.2-1-2.1-2.1-2.1c-1.2,0-2.1,1-2.1,2.1V153c0,1.2,1,2.1,2.1,2.1
					C118.7,155.2,119.7,154.2,119.7,153z"/>
			</g>
			<g>
				<path class="st2" d="M163,245.3V167c0-2.7-2.3-4.9-4.9-4.9h-47.5c-2.7,0-4.9,2.3-4.9,4.9v78.3c0,2.7,2.3,4.9,4.9,4.9h47.5
					C160.8,250.2,163,248,163,245.3z M158.8,242.2l-31.3-36.1l31.3-36.1V242.2z M112.6,166.4h43.7L135,191L112.6,166.4z
					 M109.9,169.8l22.2,24.4l-9.1,10.6c-0.7,0.8-0.7,2,0,2.8l9.1,10.6l-22.2,24.4V169.8z M112.6,246l22.4-24.6l21.3,24.6H112.6z"/>
			</g>
		</g>
	</g>
</g>
</svg>
