<svg xmlns="http://www.w3.org/2000/svg" width="188" height="151.406" viewBox="0 0 188 151.406">
    <defs>
        <style>
            .cls-1{fill:#fff}.cls-1,.cls-2{stroke:#ec5858;stroke-width:2px}.cls-2,.cls-9{fill:none}.cls-3,.cls-5{fill:#2f2e41}.cls-3{opacity:.06}.cls-4{fill:#657ee4}.cls-6{fill:#ffc1c7}.cls-7{opacity:.1}.cls-8{stroke:none}
        </style>
    </defs>
    <g id="Gruppe_3625" data-name="Gruppe 3625" transform="translate(0 .001)">
        <g id="Ellipse_863" class="cls-1" data-name="Ellipse 863" transform="translate(0 8.405)">
            <circle cx="65.5" cy="65.5" r="65.5" class="cls-8"/>
            <circle cx="65.5" cy="65.5" r="64.5" class="cls-9"/>
        </g>
        <g id="Gruppe_3624" data-name="Gruppe 3624" transform="translate(41 49.342)">
            <path id="Linie_640" d="M0 0l50 50" class="cls-2" data-name="Linie 640" transform="translate(0 .064)"/>
            <path id="Linie_641" d="M50 0L0 50" class="cls-2" data-name="Linie 641" transform="translate(0 .064)"/>
        </g>
        <g id="Gruppe_3626" data-name="Gruppe 3626" transform="translate(1)">
            <ellipse id="Ellipse_872" cx="93.5" cy="4" class="cls-3" data-name="Ellipse 872" rx="93.5" ry="4" transform="translate(0 143.405)"/>
            <path id="Pfad_1833" d="M689.513 303.075h2.261s2.072 16.013.565 17.52-5.652 2.449-6.217 0 0-11.491 0-11.491z" class="cls-4" data-name="Pfad 1833" transform="translate(-538.226 -273.028)"/>
            <ellipse id="Ellipse_869" cx="13.752" cy="16.107" class="cls-5" data-name="Ellipse 869" rx="13.752" ry="16.107" transform="translate(122.747)"/>
            <path id="Pfad_1834" d="M610.156 244.016s.754 6.217-1.507 7.535 2.637 8.854 2.637 8.854l5.84 1.507 3.956-5.463-.754-5.652s-4.521-4.521-2.449-8.666z" class="cls-6" data-name="Pfad 1834" transform="translate(-476.765 -224.895)"/>
            <path id="Pfad_1835" d="M610.156 244.016s.754 6.217-1.507 7.535 2.637 8.854 2.637 8.854l5.84 1.507 3.956-5.463-.754-5.652s-4.521-4.521-2.449-8.666z" class="cls-7" data-name="Pfad 1835" transform="translate(-476.765 -224.895)"/>
            <path id="Pfad_1836" d="M573.954 564.35s-2.261 20.534 0 25.432 8.289 18.65 8.289 18.65l-1.884 3.956 5.086-1.13 2.072-3.956s-2.449-9.608-2.826-13-3.2-9.607-3.2-9.607l5.275-22.418z" class="cls-6" data-name="Pfad 1836" transform="translate(-449.04 -477.747)"/>
            <path id="Pfad_1837" d="M662.869 545.9s.188 20.722 1.507 23.936l-.754 28.069 4.144.553s6.028-23.548 5.086-29.2.188-26 .188-26z" class="cls-6" data-name="Pfad 1837" transform="translate(-520.059 -462.726)"/>
            <circle id="Ellipse_870" cx="7.159" cy="7.159" r="7.159" class="cls-6" data-name="Ellipse 870" transform="translate(129.341 7.347)"/>
            <path id="Pfad_1838" d="M602.549 341.537s-5.086 3.391-7.159.942-27.5 1.507-30.707.754 1.7-12.81 1.7-19.027c0-4.651 1.688-11.727 2.538-15 .286-1.1.477-1.769.477-1.769s1.933-5.5 1.571-7.784a1.964 1.964 0 0 0-.141-.5 1.03 1.03 0 0 0-.111-.19c-.9-1.2-3.489-9.982-4.493-13.752a17.018 17.018 0 0 1-.405-1.7c0-.565 6.97-2.261 8.713-2.342s2.214 2.342 2.214 2.342c.565.377 3.2 6.97 3.2 6.97l2.449-6.217s-.188-1.319-.377-1.319 2.786-1.778 2.786-1.778 3.054 2.155 4.749 1.778 5.651 3.014 5.651 3.014-6.97 17.52-4.144 21.287 11.489 34.291 11.489 34.291z" class="cls-4" data-name="Pfad 1838" transform="translate(-441.654 -255.728)"/>
            <path id="Pfad_1839" d="M582.875 772.845s-3.2 3.2-3.2 3.579l-2.637-1.13s-1.13 4.144-1.319 4.71-3.391 5.651-6.593 7.912 0 5.086 2.826 4.521 9.984-6.97 9.984-6.97 4.9 0 6.593-3.768c-.002.001-4.524-9.231-5.654-8.854z" class="cls-5" data-name="Pfad 1839" transform="translate(-444.963 -644.044)"/>
            <path id="Pfad_1840" d="M662.989 792.575s-4.84-3.516-5.151-.251-.312 10.424-.312 10.424-1.507 4.71 3.2 4.144 5.086-1.884 5.086-1.884l-2.261-9.042v-3.956z" class="cls-5" data-name="Pfad 1840" transform="translate(-515.657 -658.34)"/>
            <path id="Pfad_1841" d="M580.563 314.138c-.9-1.2-3.489-9.982-4.493-13.752h.914s2.294 8.98 3.69 13.942a1.033 1.033 0 0 0-.111-.19z" class="cls-7" data-name="Pfad 1841" transform="translate(-451.505 -270.905)"/>
            <path id="Pfad_1842" d="M603.133 380.848s-2.637.188-12.245-1.7a19.211 19.211 0 0 1-1.984-.492c.286-1.1.477-1.769.477-1.769s1.933-5.5 1.571-7.784a16.5 16.5 0 0 0 .878 2.7c.377.188 12.433 2.261 14.129 3.014s-2.826 6.031-2.826 6.031z" class="cls-7" data-name="Pfad 1842" transform="translate(-461.641 -325.181)"/>
            <path id="Pfad_1843" d="M672.727 306.787s5.2-.641 5.518.2 1.641 8.985 2.206 10.029.754 7.516-1.507 7.725-5.275-2.088-4.71-3.967-1.507-13.987-1.507-13.987z" class="cls-7" data-name="Pfad 1843" transform="translate(-527.845 -275.775)"/>
            <path id="Pfad_1844" d="M653.809 387.854s7.912.942 9.231 0 6.782-.942 5.652 1.7-10.926 2.826-10.926 2.826h-5.651z" class="cls-6" data-name="Pfad 1844" transform="translate(-511.565 -339.534)"/>
            <path id="Pfad_1845" d="M566.727 294.112h-1.319s-2.637.565-2.261 8.854-2.261 13.752 7.347 15.636 12.245 1.7 12.245 1.7 4.521-5.275 2.826-6.028-13.752-2.826-14.129-3.014-4.709-17.148-4.709-17.148z" class="cls-4" data-name="Pfad 1845" transform="translate(-441.248 -265.949)"/>
            <path id="Pfad_1846" d="M660.249 265.271s-3.3-12.384-5.938-12.384-5.651.565-3.391 3.014 5.086 5.086 5.275 6.405a17.749 17.749 0 0 0 .942 3.2z" class="cls-6" data-name="Pfad 1846" transform="translate(-509.994 -233.389)"/>
            <path id="Pfad_1847" d="M676.312 306.787s5.2-.641 5.518.2 1.641 8.985 2.206 10.029.754 7.516-1.507 7.725-5.275-2.088-4.71-3.967-1.507-13.987-1.507-13.987z" class="cls-4" data-name="Pfad 1847" transform="translate(-530.676 -275.775)"/>
            <circle id="Ellipse_871" cx="6.782" cy="6.782" r="6.782" class="cls-5" data-name="Ellipse 871" transform="translate(127.833 .942)"/>
        </g>
    </g>
</svg>
