<?xml version="1.0" encoding="utf-8"?>
<!-- Generator: Adobe Illustrator 22.0.0, SVG Export Plug-In . SVG Version: 6.00 Build 0)  -->
<svg version="1.1" id="Layer_1" xmlns="http://www.w3.org/2000/svg" xmlns:xlink="http://www.w3.org/1999/xlink" x="0px" y="0px"
	 viewBox="0 0 374.8 337.1" style="enable-background:new 0 0 374.8 337.1;" xml:space="preserve">
<style type="text/css">
	.st0{fill:#808097;}
</style>
<path class="st0" d="M358,126.7c-0.1-4.2-1.8-8.1-4.9-11l-7.3-7c-6.3-6-16.3-5.7-22.3,0.5l-116.4,122c-3,3.1-7.9,3.4-11.2,0.6
	l-54.7-46.4c-3-2.5-6.6-3.7-10.2-3.7c-4.5,0-8.9,1.9-12,5.5l-6.4,7.6c-2.7,3.2-4.1,7.3-3.7,11.5c0.3,4.2,2.3,8,5.5,10.8l79.2,67
	c6.3,5.4,15.8,4.9,21.5-1.1l3.4-3.5L353.6,138C356.6,134.9,358.1,130.9,358,126.7z"/>
<g>
	<path class="st0" d="M222.6,290.1c-5.1,5.3-11.9,7.9-18.7,7.9c-6,0-12-2-16.8-6.2l-3.7-3.1l-75.6-63.9c-5.3-4.5-8.6-10.8-9.1-17.7
		c-0.6-6.9,1.6-13.7,6.1-19l6.4-7.6c9.3-10.9,25.7-12.2,36.7-3l53.2,45.1l63.7-66.7c-2.9-1.6-6.1-2.4-9.7-2.4h-6.7V113
		c0-25.9-9.3-48.1-27.8-66.6C202,27.8,179.8,18.6,154,18.6s-48.1,9.3-66.6,27.8c-18.8,18.5-28,40.7-28,66.6v40.5h-6.7
		c-5.6,0-10.4,2-14.3,5.9s-5.9,8.7-5.9,14.3v121.5c0,5.6,2,10.4,5.9,14.3s8.7,5.9,14.3,5.9h202.5c5.6,0,10.4-2,14.3-5.9
		s5.9-8.7,5.9-14.3v-60.4L226,286.5L222.6,290.1z M99.9,113c0-14.9,5.3-27.6,15.8-38.2S138.9,59,153.8,59s27.6,5.3,38.2,15.8
		s15.8,23.3,15.8,38.2v40.5h-108L99.9,113L99.9,113z"/>
</g>
</svg>
