<?xml version="1.0" encoding="utf-8"?>
<!-- Generator: Adobe Illustrator 21.1.0, SVG Export Plug-In . SVG Version: 6.00 Build 0)  -->
<svg version="1.1" id="Layer_1" xmlns="http://www.w3.org/2000/svg" xmlns:xlink="http://www.w3.org/1999/xlink" x="0px" y="0px"
	 viewBox="0 0 415.6 399.7" style="enable-background:new 0 0 415.6 399.7;" xml:space="preserve">
<style type="text/css">
	.st0{fill:#9199CC;}
	.st1{clip-path:url(#SVGID_2_);}
	.st2{fill:#505265;}
</style>
<g>
	<g>
		<path class="st0" d="M207.8,395.9c-27.9,0-54.9-5.2-80.4-15.4c-24.6-9.9-46.7-24-65.7-42c-19-18-33.9-39-44.3-62.3
			C6.6,252.1,1.1,226.4,1.1,199.9s5.5-52.2,16.3-76.4c10.4-23.3,25.3-44.3,44.3-62.3c19-18,41.1-32.1,65.7-42
			C152.9,9,179.9,3.8,207.8,3.8s54.9,5.2,80.4,15.4c24.6,9.9,46.7,24,65.7,42c19,18,33.9,39,44.3,62.3
			c10.8,24.2,16.3,49.9,16.3,76.4s-5.5,52.2-16.3,76.4c-10.4,23.3-25.3,44.3-44.3,62.3c-19,18-41.1,32.1-65.7,42
			C262.7,390.7,235.7,395.9,207.8,395.9z M207.8,11.5c-26.9,0-53,5-77.6,14.8c-23.7,9.5-45,23.1-63.3,40.4
			C48.7,84,34.3,104.2,24.3,126.6C14,149.8,8.7,174.5,8.7,199.9s5.3,50.1,15.6,73.3c10,22.4,24.4,42.6,42.6,59.9
			c18.3,17.3,39.6,30.9,63.3,40.4c24.6,9.8,50.7,14.8,77.6,14.8s53-5,77.6-14.8c23.7-9.5,45-23.1,63.3-40.4
			c18.3-17.3,32.6-37.5,42.6-59.9c10.4-23.2,15.6-47.9,15.6-73.3s-5.3-50.1-15.6-73.3c-10-22.4-24.4-42.6-42.6-59.9
			c-18.3-17.3-39.6-30.9-63.3-40.4C260.8,16.5,234.7,11.5,207.8,11.5z"/>
	</g>
	<g>
		<defs>
			<ellipse id="SVGID_1_" cx="207.8" cy="199.9" rx="199.2" ry="188.7"/>
		</defs>
		<clipPath id="SVGID_2_">
			<use xlink:href="#SVGID_1_"  style="overflow:visible;"/>
		</clipPath>
		<g class="st1">
			<path class="st0" d="M243.2,115.8c-4.4-7.5-11.1-14.2-20.7-17.3c5.9-4,9.9-10.9,9.9-18.4c0-11.6-9.7-22-21.3-22
				c-11.6,0-21.3,10.3-21.3,22c0,7.4,4,14.4,9.9,18.4c-9.6,3-16.3,9.8-20.7,17.3c-3.1,5.2-9.6,24.2-11.2,29.3l4.3,0.6h2.7
				c1.9-6.9,4.4-17.8,9.7-26.8c5.3-9,13-15.9,26.5-15.9s21.2,6.9,26.5,15.9c5.3,9,7.8,19.9,9.7,26.8l6.1-1.6
				C251.6,137.5,249.2,126,243.2,115.8z M211.1,96c-7.3,0-14.8-7.6-14.8-15.8c0-8.2,7.5-15.7,14.8-15.7c7.3,0,14.8,7.6,14.8,15.7
				C225.9,88.3,218.4,96,211.1,96z"/>
		</g>
		<g class="st1">
			<g>
				<path class="st2" d="M99.3,240.1c-11.1,0-20.4,9.6-20.4,20.3c0,6.9,3.8,13.2,9.5,16.9c-9.2,2.8-15.6,9-19.9,15.9
					c-5.8,9.3-8.1,20-9.9,26.1l5.9,1.5c1.8-6.4,4.2-16.4,9.3-24.7c5.1-8.3,12.5-14.6,25.4-14.6s20.3,6.3,25.4,14.6
					c5.1,8.3,7.4,18.4,9.3,24.7h5.9c1.8-6.4,4.2-16.4,9.3-24.7c5.1-8.3,12.5-14.6,25.4-14.6s20.3,6.3,25.4,14.6
					c5.1,8.3,7.4,18.4,9.3,24.7h5.9c1.8-6.4,4.2-16.4,9.3-24.7c5.1-8.3,12.5-14.6,25.4-14.6c13,0,20.2,6.3,25.4,14.6
					c5.1,8.3,7.4,18.4,9.3,24.7h5.9c1.8-6.4,4.2-16.4,9.3-24.7c5.1-8.3,12.5-14.6,25.4-14.6c13,0,20.3,6.3,25.4,14.6
					c5.1,8.3,7.4,18.4,9.3,24.7l5.9-1.5c-1.7-6.1-4.1-16.7-9.9-26.1c-4.2-6.9-10.7-13.1-19.8-15.9c5.7-3.7,9.5-10.1,9.5-16.9
					c0-10.7-9.3-20.3-20.4-20.3c-11.1,0-20.4,9.5-20.4,20.2c0,6.9,3.8,13.3,9.5,17c-9.2,2.8-15.6,9-19.8,15.9
					c-3.2,5.2-5.4,10.8-7,15.9c-1.6-5-3.7-10.6-6.9-15.9c-4.2-6.9-10.7-13.1-19.8-15.9c5.7-3.7,9.5-10.1,9.5-16.9
					c0-10.7-9.2-20.3-20.4-20.3c-11.1,0-20.5,9.5-20.4,20.2c0,6.9,3.8,13.3,9.5,17c-9.2,2.8-15.6,9-19.8,15.9
					c-3.3,5.3-5.4,10.9-7,15.9c-1.6-5-3.7-10.7-6.9-15.9c-4.2-6.9-10.7-13.1-19.8-15.9c5.7-3.7,9.5-10.1,9.5-16.9
					c0-10.7-9.2-20.3-20.4-20.3c-11.1,0-20.4,9.6-20.4,20.3c0,6.9,3.8,13.2,9.5,16.9c-9.2,2.8-15.6,9-19.8,15.9
					c-3.2,5.2-5.3,10.8-6.9,15.9c-1.6-5-3.8-10.6-7-15.9c-4.2-6.9-10.7-13.1-19.8-15.9c5.7-3.7,9.5-10.1,9.5-16.9
					C119.7,249.7,110.5,240.1,99.3,240.1z M99.3,245.9c7,0,14.1,7,14.1,14.5c0,7.5-7.2,14.5-14.1,14.5c-7,0-14.1-7-14.1-14.5
					C85.2,252.9,92.4,245.9,99.3,245.9z M174.7,245.9c7,0,14.2,7,14.1,14.5c0,7.5-7.2,14.5-14.1,14.5c-7,0-14.2-7-14.2-14.5
					C160.5,252.9,167.7,245.9,174.7,245.9z M250,245.9c7,0,14.2,7,14.1,14.5c0,7.5-7.2,14.5-14.1,14.5s-14.2-7-14.2-14.5
					C235.8,252.8,243,245.9,250,245.9z M325.3,245.9c7,0,14.2,7,14.1,14.5c0,7.5-7.2,14.5-14.1,14.5s-14.2-7-14.2-14.5
					C311.1,252.8,318.3,245.9,325.3,245.9z"/>
			</g>
		</g>
		<g class="st1">
			<g>
				<path class="st2" d="M174.3,157.1c-11.1,0-20.5,9.5-20.4,20.2c0,6.9,3.8,13.3,9.5,17c-9.2,2.8-15.6,9-19.8,15.9
					c-5.8,9.3-8.2,20-9.9,26.1l5.9,1.5c1.8-6.4,4.2-16.4,9.3-24.7c5.1-8.3,12.5-14.6,25.5-14.6s20.2,6.3,25.4,14.6
					s7.4,18.4,9.3,24.7h5.9c1.8-6.4,4.2-16.4,9.3-24.7s12.4-14.6,25.4-14.6s20.3,6.3,25.4,14.6c5.1,8.3,7.4,18.4,9.3,24.7l5.9-1.5
					c-1.7-6.1-4.1-16.7-9.9-26.1c-4.2-6.9-10.7-13.1-19.8-15.9c5.7-3.7,9.5-10.1,9.5-16.9c0-10.7-9.3-20.3-20.4-20.3
					c-11.1,0-20.4,9.5-20.4,20.2c0,6.9,3.8,13.3,9.5,17c-9.2,2.8-15.6,9-19.8,15.9c-3.2,5.2-5.4,10.8-7,15.9
					c-1.6-5-3.7-10.6-6.9-15.9c-4.2-6.9-10.7-13.1-19.8-15.9c5.7-3.7,9.5-10.1,9.5-16.9C194.6,166.6,185.4,157.1,174.3,157.1z
					 M174.3,162.8c7,0,14.2,7,14.1,14.5c0,7.5-7.2,14.5-14.1,14.5s-14.2-7-14.2-14.5C160.1,169.8,167.3,162.8,174.3,162.8z
					 M249.6,162.8c7,0,14.2,7,14.1,14.5c0,7.5-7.2,14.5-14.1,14.5c-7,0-14.2-7-14.2-14.5C235.4,169.8,242.6,162.8,249.6,162.8z"/>
			</g>
		</g>
		<g class="st1">
			<g>
				<path class="st2" d="M24.4,323.2c-11.1,0-20.4,9.6-20.4,20.3c0,6.9,3.8,13.2,9.5,16.9c-9.2,2.8-15.6,9-19.9,15.9
					c-5.8,9.3-8.1,20-9.9,26.1l5.9,1.5c1.8-6.4,4.2-16.4,9.3-24.7c5.1-8.3,12.5-14.6,25.4-14.6s20.3,6.3,25.4,14.6
					c5.1,8.3,7.4,18.4,9.3,24.7H65c1.8-6.4,4.2-16.4,9.3-24.7c5.1-8.3,12.5-14.6,25.4-14.6s20.3,6.3,25.4,14.6
					c5.1,8.3,7.4,18.4,9.3,24.7h5.9c1.8-6.4,4.2-16.4,9.3-24.7c5.1-8.3,12.5-14.6,25.4-14.6c13,0,20.2,6.3,25.4,14.6
					c5.1,8.3,7.4,18.4,9.3,24.7h5.9c1.8-6.4,4.2-16.4,9.3-24.7c5.1-8.3,12.5-14.6,25.4-14.6c13,0,20.3,6.3,25.4,14.6
					c5.1,8.3,7.4,18.4,9.3,24.7h5.9c1.8-6.4,4.2-16.4,9.3-24.7c5.1-8.3,12.5-14.6,25.5-14.6c13,0,20.2,6.3,25.4,14.6
					c5.1,8.3,7.4,18.4,9.3,24.7h5.9c1.8-6.4,4.2-16.4,9.3-24.7c5.1-8.3,12.5-14.6,25.4-14.6s20.3,6.3,25.4,14.6
					c5.1,8.3,7.4,18.4,9.3,24.7l5.9-1.5c-1.7-6.1-4.1-16.7-9.9-26.1c-4.2-6.9-10.7-13.1-19.8-15.9c5.7-3.7,9.5-10.1,9.5-16.9
					c0-10.7-9.3-20.3-20.4-20.3c-11.1,0-20.4,9.5-20.4,20.2c0,6.9,3.8,13.3,9.5,17c-9.2,2.8-15.6,9-19.8,15.9
					c-3.2,5.2-5.4,10.8-7,15.9c-1.6-5-3.7-10.6-6.9-15.9c-4.2-6.9-10.7-13.1-19.8-15.9c5.7-3.7,9.5-10.1,9.5-16.9
					c0-10.7-9.2-20.3-20.4-20.3c-11.1,0-20.5,9.5-20.4,20.2c0,6.9,3.8,13.3,9.5,17c-9.2,2.8-15.6,9-19.8,15.9
					c-3.3,5.3-5.4,10.9-7,15.9c-1.6-5-3.7-10.7-6.9-15.9c-4.2-6.9-10.7-13.1-19.8-15.9c5.7-3.7,9.5-10.1,9.5-16.9
					c0-10.7-9.3-20.3-20.4-20.3c-11.1,0-20.4,9.5-20.4,20.2c0,6.9,3.8,13.3,9.5,17c-9.2,2.8-15.6,9-19.8,15.9
					c-3.2,5.2-5.4,10.8-7,15.9c-1.6-5-3.7-10.6-6.9-15.9c-4.2-6.9-10.7-13.1-19.8-15.9c5.7-3.7,9.5-10.1,9.5-16.9
					c0-10.7-9.2-20.3-20.4-20.3c-11.1,0-20.5,9.5-20.4,20.2c0,6.9,3.8,13.3,9.5,17c-9.2,2.8-15.6,9-19.8,15.9
					c-3.3,5.3-5.4,10.9-7,15.9c-1.6-5-3.7-10.7-6.9-15.9c-4.2-6.9-10.7-13.1-19.8-15.9c5.7-3.7,9.5-10.1,9.5-16.9
					c0-10.7-9.2-20.3-20.4-20.3c-11.1,0-20.4,9.6-20.4,20.3c0,6.9,3.8,13.2,9.5,16.9c-9.2,2.8-15.6,9-19.8,15.9
					c-3.2,5.2-5.3,10.8-6.9,15.9c-1.6-5-3.8-10.6-7-15.9c-4.2-6.9-10.7-13.1-19.8-15.9c5.7-3.7,9.5-10.1,9.5-16.9
					C44.8,332.8,35.5,323.2,24.4,323.2L24.4,323.2z M24.4,328.9c7,0,14.1,7,14.1,14.5c0,7.5-7.2,14.5-14.1,14.5s-14.1-7-14.1-14.5
					C10.3,335.9,17.4,328.9,24.4,328.9z M99.8,328.9c7,0,14.2,7,14.1,14.5c0,7.5-7.2,14.5-14.1,14.5c-7,0-14.2-7-14.2-14.5
					C85.6,335.9,92.8,328.9,99.8,328.9z M175.1,328.9c7,0,14.2,7,14.1,14.5c0,7.5-7.2,14.5-14.1,14.5c-7,0-14.2-7-14.2-14.5
					C160.9,335.9,168.1,328.9,175.1,328.9z M250.4,328.9c7,0,14.2,7,14.1,14.5c0,7.5-7.2,14.5-14.1,14.5c-7,0-14.2-7-14.2-14.5
					C236.2,335.9,243.4,328.9,250.4,328.9z M325.7,328.9c7,0,14.2,7,14.1,14.5c0,7.5-7.2,14.5-14.1,14.5s-14.2-7-14.2-14.5
					C311.6,335.9,318.8,328.9,325.7,328.9z M401,328.9c7,0,14.2,7,14.1,14.5c0,7.5-7.2,14.5-14.1,14.5s-14.2-7-14.2-14.5
					C386.9,335.9,394.1,328.9,401,328.9z"/>
			</g>
		</g>
	</g>
</g>
</svg>
