<?xml version="1.0" encoding="utf-8"?>
<!-- Generator: Adobe Illustrator 22.0.0, SVG Export Plug-In . SVG Version: 6.00 Build 0)  -->
<svg version="1.1" id="Layer_1" xmlns="http://www.w3.org/2000/svg" xmlns:xlink="http://www.w3.org/1999/xlink" x="0px" y="0px"
	 viewBox="0 0 374.8 337.1" style="enable-background:new 0 0 374.8 337.1;" xml:space="preserve">
<style type="text/css">
	.st0{fill:#9EA2CF;}
</style>
<g>
	<path class="st0" d="M187.4,332.9C97,332.9,23.5,259.4,23.5,169C23.5,78.6,97,5.1,187.4,5.1c90.4,0,163.9,73.5,163.9,163.9
		C351.3,259.4,277.8,332.9,187.4,332.9z M187.4,35.2c-73.8,0-133.8,60-133.8,133.8s60,133.8,133.8,133.8s133.8-60,133.8-133.8
		S261.2,35.2,187.4,35.2z"/>
</g>
<g>
	<g>
		<path class="st0" d="M283.3,183.8H91.5c-6.7,0-12-5.4-12-12v-5.6c0-6.7,5.4-12,12-12h191.7c6.7,0,12,5.4,12,12v5.6
			C295.3,178.4,289.9,183.8,283.3,183.8z"/>
	</g>
</g>
</svg>
