<?xml version="1.0" encoding="utf-8"?>
<!-- Generator: Adobe Illustrator 21.1.0, SVG Export Plug-In . SVG Version: 6.00 Build 0)  -->
<svg version="1.1" id="Layer_1" xmlns="http://www.w3.org/2000/svg" xmlns:xlink="http://www.w3.org/1999/xlink" x="0px" y="0px"
	 viewBox="0 0 762 753" style="enable-background:new 0 0 762 753;" xml:space="preserve">
<style type="text/css">
	.st0{fill:#555555;stroke:#555555;stroke-width:16;stroke-miterlimit:10;}
	.st1{fill:#555555;}
</style>
<path class="st0" d="M623.7,192.4L623.7,192.4L507.4,55.6c-0.1-0.1-0.1-0.1-0.2-0.2c-0.1-0.1-0.1-0.1-0.2-0.2
	c-0.3-0.4-0.7-0.7-1.2-1.2l-0.2-0.2c-0.2-0.2-0.4-0.3-0.6-0.5c-0.5-0.4-1-0.7-1.6-0.9c-0.1-0.1-0.2-0.1-0.3-0.2
	c-0.2-0.1-0.3-0.2-0.5-0.3c-0.7-0.3-1.4-0.5-2-0.7c-0.1,0-0.2-0.1-0.3-0.1c-0.1,0-0.3-0.1-0.4-0.1c-1-0.2-1.9-0.3-2.9-0.3H183
	c-26.9,0-48.7,21.8-48.7,48.7v159.2h27.3V99.6c0-11.8,9.6-21.4,21.4-21.4h300.4v123.4c0,7.5,6.1,13.6,13.6,13.6h102.6v43.6h27.3
	v-57.5C626.9,198,625.8,194.9,623.7,192.4z M510.7,187.9v-86.3l73.4,86.3H510.7z"/>
<path class="st0" d="M183,692.9h395.3c26.9,0,48.7-21.8,48.7-48.7v-29.5h-27.3v29.5c0,11.8-9.6,21.4-21.4,21.4H183
	c-11.8,0-21.4-9.6-21.4-21.4v-29.5h-27.3v29.5C134.3,671.1,156.1,692.9,183,692.9z"/>
<g>
	<polygon class="st1" points="45.2,379.7 84.9,379.7 84.9,338.9 126.8,338.9 126.8,533.5 85.6,533.5 85.6,573.2 211,573.2 
		211,533.5 169.8,533.5 169.8,338.9 212.1,338.9 212.1,379.7 251.8,379.7 251.8,299.2 45.2,299.2 	"/>
	<polygon class="st1" points="493.2,299.2 444.4,299.2 386.9,390.7 382.9,398.5 378.9,391.1 324.6,299.2 273.1,299.2 355.7,433.9 
		265.3,573.2 314.4,573.2 376.1,476.5 380.8,467.4 385.6,476.1 446.3,573.2 496.8,573.2 407.3,431.4 	"/>
	<polygon class="st1" points="510.2,299.2 510.2,379.7 549.9,379.7 549.9,338.9 591.8,338.9 591.8,533.5 550.7,533.5 550.7,573.2 
		676.1,573.2 676.1,533.5 634.9,533.5 634.9,338.9 677.2,338.9 677.2,379.7 716.9,379.7 716.9,299.2 	"/>
</g>
</svg>
