<?xml version="1.0" encoding="utf-8"?>
<!-- Generator: Adobe Illustrator 22.0.0, SVG Export Plug-In . SVG Version: 6.00 Build 0)  -->
<svg version="1.1" id="Layer_1" xmlns="http://www.w3.org/2000/svg" xmlns:xlink="http://www.w3.org/1999/xlink" x="0px" y="0px"
	 viewBox="0 0 374.8 337.1" style="enable-background:new 0 0 374.8 337.1;" xml:space="preserve">
<defs>
    <g id="svg-unlocked-signed">
        <g transform="scale(25) translate(3 0)">
            <path d="M1,8.5v-3A.5.5,0,0,1,1.5,5h5a.5.5,0,0,1,.5.5H8A1.51,1.51,0,0,0,7,4.09V3A3,3,0,0,0,1,3H2A2,2,0,0,1,6,3V4H1.5A1.5,1.5,0,0,0,0,5.5v3A1.5,1.5,0,0,0,1.5,10H4V9H1.5A.5.5,0,0,1,1,8.5Z"/>
            <rect x="8.41" y="8.41" width="2" height="5" transform="translate(-4.96 9.85) rotate(-45)"/>
            <polygon points="4.82 6.32 6.23 9.15 7.65 7.73 4.82 6.32"/>
        </g>
    </g>
    <g id="svg-lock-signed">
        <path class="svg-checkmark" d="M358,126.7c-0.1-4.2-1.8-8.1-4.9-11l-7.3-7c-6.3-6-16.3-5.7-22.3,0.5l-116.4,122c-3,3.1-7.9,3.4-11.2,0.6
	l-54.7-46.4c-3-2.5-6.6-3.7-10.2-3.7c-4.5,0-8.9,1.9-12,5.5l-6.4,7.6c-2.7,3.2-4.1,7.3-3.7,11.5c0.3,4.2,2.3,8,5.5,10.8l79.2,67
	c6.3,5.4,15.8,4.9,21.5-1.1l3.4-3.5L353.6,138C356.6,134.9,358.1,130.9,358,126.7z"
              fill="currentColor"/>
        <path class="svg-lock" d="M227.7,295.1c-6.5,6.8-15.2,10.2-23.9,10.2c-7.6,0-15.3-2.6-21.5-7.9l-79.4-67.2c-6.7-5.9-10.7-13.8-11.4-22.5
	c-0.8-8.8,2-17.4,7.8-24.2l6.5-7.7c6.3-7.4,15.5-11.6,25.3-11.6c7.8,0,15.4,2.8,21.4,7.8l0.1,0.1l48,40.7l56.5-59.2
	c-0.6,0-1.2-0.1-1.9-0.1h-6.7V113c0-25.9-9.3-48.1-27.8-66.6C202,27.8,179.8,18.6,154,18.6s-48.1,9.3-66.6,27.8
	c-18.8,18.5-28,40.7-28,66.6v40.5h-6.7c-5.6,0-10.4,2-14.3,5.9c-3.9,3.9-5.9,8.7-5.9,14.3v121.5c0,5.6,2,10.4,5.9,14.3
	c3.9,3.9,8.7,5.9,14.3,5.9h202.5c5.6,0,10.4-2,14.3-5.9c3.9-3.9,5.9-8.7,5.9-14.3v-50l-44.3,46.4L227.7,295.1z M99.9,113
	c0-14.9,5.3-27.6,15.8-38.2C126.2,64.2,138.9,59,153.8,59c14.9,0,27.6,5.3,38.2,15.8s15.8,23.3,15.8,38.2v40.5h-108L99.9,113z"/>
    </g>
    <g id="svg-lock-warning">
        <path class="svg-lock" d="M107.8,155H216v-40.6c0-14.9-5.3-27.7-15.8-38.2c-10.6-10.6-23.3-15.8-38.2-15.8s-27.7,5.3-38.2,15.8
            s-15.8,23.3-15.8,38.2V155z M283.6,175.3V297c0,5.6-2,10.4-5.9,14.4c-3.9,3.9-8.7,5.9-14.4,5.9H60.5c-5.6,0-10.4-2-14.4-5.9
            s-5.9-8.7-5.9-14.4V175.3c0-5.6,2-10.4,5.9-14.4s8.7-5.9,14.4-5.9h6.8v-40.6c0-25.9,9.3-48.2,27.9-66.8s40.8-27.9,66.8-27.9
            s48.2,9.3,66.8,27.9s27.9,40.8,27.9,66.8V155h6.8c5.6,0,10.4,2,14.4,5.9C281.6,164.9,283.6,169.7,283.6,175.3z"/>
        <g class="svg-warning-icon">
            <path class="svg-warning-contour" d="M163,276.7c-5.4,0-10.4-1.4-15.1-4c-4.6-2.7-8.3-6.3-11-10.9c-5.6-9.6-5.8-20.2-0.4-29.8l85-155.8
                c2.7-4.8,6.4-8.7,11-11.5c4.7-2.8,9.9-4.3,15.5-4.3c5.5,0,10.7,1.4,15.5,4.3c4.7,2.8,8.4,6.7,11,11.5l85,155.8
                c5.3,9.7,5.2,20.3-0.4,29.9c-2.7,4.6-6.4,8.2-11,10.9c-4.6,2.7-9.7,4-15.1,4H163z"/>
            <path class="svg-warning-sign" d="M260.4,221.5v-18.5c0-0.9-0.3-1.7-0.9-2.3c-0.6-0.6-1.3-0.9-2.2-0.9h-18.7c-0.8,0-1.6,0.3-2.2,0.9
                c-0.6,0.6-0.9,1.4-0.9,2.3v18.5c0,0.9,0.3,1.7,0.9,2.3c0.6,0.6,1.3,0.9,2.2,0.9h18.7c0.8,0,1.6-0.3,2.2-0.9
                C260.1,223.1,260.4,222.4,260.4,221.5z M260.2,185l1.8-44.7c0-0.8-0.3-1.4-1-1.9c-0.8-0.7-1.6-1.1-2.3-1.1h-21.4
                c-0.7,0-1.5,0.4-2.3,1.1c-0.6,0.5-1,1.1-1,2l1.7,44.5c0,0.6,0.3,1.2,1,1.6s1.4,0.6,2.3,0.6h18c0.9,0,1.7-0.2,2.3-0.6
                C259.8,186.2,260.2,185.7,260.2,185z M258.9,94l74.8,137.2c2.3,4.1,2.2,8.2-0.2,12.3c-1.1,1.9-2.6,3.4-4.5,4.5
                c-1.9,1.1-4,1.7-6.2,1.7H173.1c-2.2,0-4.3-0.6-6.2-1.7c-1.9-1.1-3.4-2.6-4.5-4.5c-2.4-4.1-2.5-8.2-0.2-12.3L237.1,94
                c1.1-2,2.6-3.6,4.6-4.8s4.1-1.8,6.3-1.8s4.4,0.6,6.3,1.8S257.8,92,258.9,94z"
                  fill="currentColor"/>
            <path class="svg-warning-exclamation" d="M260.8,222.1v-19.7c0-1-0.3-1.8-1-2.4c-0.7-0.7-1.4-1-2.3-1h-19.9c-0.9,0-1.7,0.3-2.3,1c-0.7,0.7-1,1.5-1,2.4
                v19.7c0,1,0.3,1.8,1,2.4c0.7,0.7,1.4,1,2.3,1h19.9c0.9,0,1.7-0.3,2.3-1C260.5,223.8,260.8,223,260.8,222.1z"/>
            <path class="svg-warning-exclamation" d="M260.6,185.3l1.9-47.6c0-0.8-0.3-1.5-1-2c-0.9-0.8-1.7-1.1-2.5-1.1h-22.8c-0.8,0-1.6,0.4-2.5,1.1
                c-0.7,0.5-1,1.2-1,2.2l1.8,47.4c0,0.7,0.3,1.3,1,1.7c0.7,0.4,1.5,0.7,2.5,0.7h19.2c1,0,1.8-0.2,2.4-0.7
                C260.2,186.5,260.5,186,260.6,185.3z"/>
        </g>
    </g>
	<g id="svg-expiration">
		<path d="M10.8,11.6h-0.3c-0.1-1-0.3-1.9-0.6-2.7C9.6,8.4,9.3,8,8.8,7.6C8.7,7.5,8.6,7.4,8.6,7.2c0-0.2,0.1-0.3,0.2-0.4l0.1-0.1
			C9.3,6.4,9.6,6,9.8,5.6c0.4-0.9,0.7-2,0.7-3.1h0.3c0.4,0,0.7-0.3,0.7-0.7S11.2,1,10.8,1H3.2C2.8,1,2.5,1.3,2.5,1.7s0.3,0.7,0.7,0.7
			h0.3c0,1.1,0.2,2.2,0.7,3.1C4.4,6,4.7,6.4,5.1,6.7l0.1,0.1c0.1,0.1,0.2,0.2,0.2,0.4c0,0.2-0.1,0.3-0.2,0.4C4.7,8,4.4,8.4,4.2,8.9
			c-0.4,0.8-0.6,1.7-0.6,2.7H3.2c-0.4,0-0.7,0.3-0.7,0.7S2.8,13,3.2,13h7.6c0.4,0,0.7-0.3,0.7-0.7S11.2,11.6,10.8,11.6z M5.1,5.1
			C4.7,4.4,4.5,3.4,4.5,2.4h5c0,1-0.2,1.9-0.6,2.7C8.8,5.5,8.5,5.7,8.3,6L8.2,6.1C7.8,6.3,7.6,6.8,7.6,7.2s0.2,0.9,0.6,1.2
			c0,0,0,0,0,0H5.8c0,0,0,0,0,0c0.4-0.3,0.6-0.7,0.6-1.2c0-0.5-0.2-0.9-0.5-1.2L5.7,6C5.5,5.7,5.2,5.5,5.1,5.1z"/>
	</g>
</defs>
</svg>
