<?xml version="1.0" encoding="utf-8"?>
<!-- Generator: Adobe Illustrator 21.1.0, SVG Export Plug-In . SVG Version: 6.00 Build 0)  -->
<svg version="1.1" id="Layer_1" xmlns="http://www.w3.org/2000/svg" xmlns:xlink="http://www.w3.org/1999/xlink" x="0px" y="0px"
	 viewBox="0 0 100 85.5" style="enable-background:new 0 0 100 85.5;" xml:space="preserve">
<style type="text/css">
	.st0{fill:none;}
	.st1{fill:#505061;}
</style>
<circle class="st0" cx="32.6" cy="49" r="2.3"/>
<path class="st0" d="M9.8,55.1c0,3.5,2.3,6.4,5.4,7.4V47.7C12.1,48.7,9.8,51.6,9.8,55.1z"/>
<circle class="st0" cx="67.4" cy="49" r="2.3"/>
<circle class="st0" cx="50" cy="11.5" r="4.6"/>
<path class="st0" d="M70,31.7H30c-5.5,0-10.1,4.5-10.1,10.1v25c0,5.5,4.5,10.1,10.1,10.1h40c5.5,0,10.1-4.5,10.1-10.1v-25
	C80,36.2,75.5,31.7,70,31.7z M32.6,56c-3.9,0-7-3.2-7-7c0-3.9,3.2-7.1,7-7.1c3.9,0,7,3.2,7,7.1S36.5,56,32.6,56z M56.5,68.2h-13
	c-1.3,0-2.4-1.1-2.4-2.4s1.1-2.4,2.4-2.4c3.3,0,9.8,0,13,0c1.3,0,2.4,1.1,2.4,2.4C58.9,67.2,57.8,68.2,56.5,68.2z M67.4,56
	c-3.9,0-7-3.2-7-7c0-3.9,3.2-7.1,7-7.1c3.8,0,7.1,3.2,7.1,7.1S71.3,56,67.4,56z"/>
<path class="st0" d="M84.8,47.7v14.8c3.1-1,5.4-4,5.4-7.4C90.2,51.6,87.9,48.7,84.8,47.7z"/>
<path class="st1" d="M84.8,42.8v-1C84.8,33.6,78.1,27,70,27H52.4v-6.3c4-1.1,6.9-4.7,6.9-9c0-5.1-4.2-9.3-9.3-9.3s-9.3,4.2-9.3,9.3
	c0,4.3,3,8,6.9,9V27H30c-8.2,0-14.8,6.7-14.8,14.8v1C9.4,43.9,5,49,5,55.1s4.4,11.2,10.2,12.3c0.4,7.8,6.9,14.1,14.8,14.1h40
	c7.9,0,14.4-6.3,14.8-14.1C90.6,66.3,95,61.2,95,55.1S90.6,43.9,84.8,42.8z M15.2,62.5c-3.1-1-5.4-4-5.4-7.4c0-3.5,2.3-6.4,5.4-7.4
	C15.2,47.7,15.2,62.5,15.2,62.5z M45.4,11.5C45.4,9,47.5,7,50,7s4.6,2,4.6,4.6s-2,4.6-4.6,4.6S45.4,14,45.4,11.5z M80,66.7
	c0,5.5-4.5,10.1-10.1,10.1H30c-5.5,0-10.1-4.5-10.1-10.1v-25c0-5.5,4.5-10.1,10.1-10.1h40c5.5,0,10.1,4.5,10.1,10.1L80,66.7L80,66.7
	z M84.8,62.5V47.7c3.1,1,5.4,4,5.4,7.4C90.2,58.6,87.9,61.5,84.8,62.5z"/>
<path class="st1" d="M67.4,41.9c-3.9,0-7,3.2-7,7.1s3.2,7.1,7,7.1c3.8,0,7.1-3.2,7.1-7C74.5,45.1,71.3,41.9,67.4,41.9z"/>
<path class="st1" d="M32.6,41.9c-3.9,0-7,3.2-7,7.1s3.2,7.1,7,7.1c3.9,0,7-3.2,7-7C39.6,45.1,36.5,41.9,32.6,41.9z"/>
<path class="st1" d="M56.5,63.5c-1.7,0.2-4.9,1.3-6.6,1.3c-1.6,0-4.8-1.1-6.4-1.3c-1.3-0.1-2.4,1.1-2.4,2.4c0,1.3,1.1,4.6,3.1,4.9
	c1.5,0.2,4.6,1.1,6.1,1.1c1.6,0,4.6-1.1,6.1-1.2c1.3-0.1,2.4-3.4,2.4-4.8C58.9,64.5,57.8,63.3,56.5,63.5z"/>
</svg>
