<svg xmlns="http://www.w3.org/2000/svg" width="354.005" height="228.893" viewBox="0 0 354.005 228.893">
  <g id="Gruppe_3621" data-name="Gruppe 3621" transform="translate(-166.421 -21.941)">
    <g id="Gruppe_3622" data-name="Gruppe 3622" transform="translate(37 -11)">
      <g id="Rechteck_1499" data-name="Rechteck 1499" transform="translate(166 32.941)" fill="#fff" stroke="#dde6ec" stroke-width="1">
        <rect width="286" height="178" rx="3" stroke="none"/>
        <rect x="0.5" y="0.5" width="285" height="177" rx="2.5" fill="none"/>
      </g>
      <g id="Rechteck_1503" data-name="Rechteck 1503" transform="translate(166 32.941)" fill="#eeeff1" stroke="#dde6ec" stroke-width="1">
        <path d="M3,0H283a3,3,0,0,1,3,3V28a0,0,0,0,1,0,0H0a0,0,0,0,1,0,0V3A3,3,0,0,1,3,0Z" stroke="none"/>
        <path d="M3,.5H283A2.5,2.5,0,0,1,285.5,3V27a.5.5,0,0,1-.5.5H1A.5.5,0,0,1,.5,27V3A2.5,2.5,0,0,1,3,.5Z" fill="none"/>
      </g>
      <line id="Linie_639" data-name="Linie 639" x2="286" transform="translate(166.5 60.441)" fill="none" stroke="#dde6ec" stroke-width="1"/>
      <g id="Gruppe_3623" data-name="Gruppe 3623">
        <g id="Rechteck_1500" data-name="Rechteck 1500" transform="translate(176 41.941)" fill="#fff" stroke="#dde6ec" stroke-width="1">
          <path d="M3,0H57a3,3,0,0,1,3,3V19a0,0,0,0,1,0,0H0a0,0,0,0,1,0,0V3A3,3,0,0,1,3,0Z" stroke="none"/>
          <path d="M3,.5H57A2.5,2.5,0,0,1,59.5,3V18a.5.5,0,0,1-.5.5H1A.5.5,0,0,1,.5,18V3A2.5,2.5,0,0,1,3,.5Z" fill="none"/>
        </g>
        <g id="Rechteck_1501" data-name="Rechteck 1501" transform="translate(235 41.941)" fill="#fff" stroke="#dde6ec" stroke-width="1">
          <path d="M3,0H57a3,3,0,0,1,3,3V19a0,0,0,0,1,0,0H0a0,0,0,0,1,0,0V3A3,3,0,0,1,3,0Z" stroke="none"/>
          <path d="M3,.5H57A2.5,2.5,0,0,1,59.5,3V18a.5.5,0,0,1-.5.5H1A.5.5,0,0,1,.5,18V3A2.5,2.5,0,0,1,3,.5Z" fill="none"/>
        </g>
        <text id="Proton" transform="translate(206 54.941)" fill="#262a33" font-size="8" font-family="SegoeUI, Segoe UI"><tspan x="-11.938" y="0">Proton</tspan></text>
        <text id="Bank" transform="translate(265 54.941)" fill="#262a33" font-size="8" font-family="SegoeUI, Segoe UI"><tspan x="-8.58" y="0">Bank</tspan></text>
        <rect id="Rechteck_1502" data-name="Rechteck 1502" width="58" height="6" transform="translate(236 55.941)" fill="#fff"/>
      </g>
    </g>
    <g id="Gruppe_3620" data-name="Gruppe 3620" transform="translate(217.433 37.941)">
      <path id="Pfad_1822" data-name="Pfad 1822" d="M556.318,821.808c0,4.637-78.776,8.393-176.117,8.418h-.885c-47.515,0-90.661-.891-122.455-2.336-1.361-.066-2.7-.128-4.016-.194-5.405-.26-10.458-.541-15.112-.832-22.239-1.41-35.419-3.161-35.419-5.056,0-1.535,8.622-2.97,23.686-4.211,7.956-.655,17.7-1.251,28.929-1.778q3.1-.151,6.357-.284c31.318-1.334,72.685-2.145,118.03-2.145,8.812,0,17.481.031,25.951.09C490.712,814.076,556.318,817.576,556.318,821.808Z" transform="translate(-253.325 -644.332)" fill="#3f3d56" opacity="0.03"/>
      <path id="Pfad_1778" data-name="Pfad 1778" d="M331.229,821.808c0,4.637-28.687,8.393-64.136,8.418h-.322a378.346,378.346,0,0,1-44.594-2.336c-.5-.066-.984-.128-1.462-.194-1.968-.26-3.809-.541-5.5-.832-8.1-1.41-12.9-3.161-12.9-5.056,0-1.535,3.14-2.97,8.626-4.211,2.9-.655,6.446-1.251,10.535-1.778q1.128-.151,2.315-.284a386.293,386.293,0,0,1,42.982-2.145c3.209,0,6.366.031,9.45.09C307.338,814.076,331.229,817.576,331.229,821.808Z" transform="translate(-202.313 -617.332)" fill="#3f3d56" opacity="0.03"/>
      <circle id="Ellipse_854" data-name="Ellipse 854" cx="10.552" cy="10.552" r="10.552" transform="translate(58.354 42.097)" fill="#ff6584"/>
      <rect id="Rechteck_1497" data-name="Rechteck 1497" width="0.762" height="30.119" transform="matrix(1, -0.002, 0.002, 1, 61.202, 57.32)" fill="#3f3d56"/>
      <path id="Pfad_1799" data-name="Pfad 1799" d="M395.6,324.908c.068,10.532-7.325,19.118-7.325,19.118s-7.5-8.489-7.573-19.021,7.325-19.117,7.325-19.117S395.534,314.376,395.6,324.908Z" transform="translate(-326.594 -263.764)" fill="#6c63ff"/>
      <path id="Pfad_1800" data-name="Pfad 1800" d="M395.6,324.908c.068,10.532-7.325,19.118-7.325,19.118s-7.5-8.489-7.573-19.021,7.325-19.117,7.325-19.117S395.534,314.376,395.6,324.908Z" transform="translate(-326.594 -263.764)" opacity="0.1"/>
      <rect id="Rechteck_1498" data-name="Rechteck 1498" width="0.762" height="30.119" transform="matrix(1, -0.002, 0.002, 1, 51.289, 57.339)" fill="#3f3d56"/>
      <path id="Pfad_1801" data-name="Pfad 1801" d="M362.922,324.969c.068,10.532-7.325,19.118-7.325,19.118s-7.5-8.489-7.573-19.021,7.325-19.118,7.325-19.118S362.854,314.437,362.922,324.969Z" transform="translate(-303.827 -263.806)" fill="#6c63ff"/>
      <path id="Pfad_1810" data-name="Pfad 1810" d="M297.681,792.847c3.686,13.628,16.314,22.069,16.314,22.069s6.65-13.656,2.964-27.284-16.314-22.069-16.314-22.069S293.994,779.219,297.681,792.847Z" transform="matrix(0.259, 0.966, -0.966, 0.259, 950.162, -337.64)" fill="#3f3d56"/>
      <path id="Pfad_1811" data-name="Pfad 1811" d="M294.535,796.163c10.116,9.848,11.351,24.987,11.351,24.987s-15.165-.828-25.281-10.676-11.351-24.986-11.351-24.986S284.419,786.315,294.535,796.163Z" transform="matrix(0.259, 0.966, -0.966, 0.259, 958.411, -330.986)" fill="#657ee4"/>
      <path id="Pfad_1812" data-name="Pfad 1812" d="M344.455,527.554l-4.763.529a64.083,64.083,0,0,0,0,22.228c2.117,12.7,4.763,25.4,4.763,25.4s2.117,41.281,3.175,41.81,10.585,3.7,11.114.529.529-75.681.529-75.681l7.409,34.93s1.058,43.927,3.175,43.927,9-.529,9-4.234,1.588-52.395,1.588-52.395-.529-35.988-2.646-37.047S344.455,527.554,344.455,527.554Z" transform="translate(-297.366 -417.867)" fill="#2f2e41"/>
      <path id="Pfad_1813" data-name="Pfad 1813" d="M354.817,819.478s-4.763-.529-5.822,0-2.646,4.234,0,6.351,9.526,5.292,11.643,5.292a10.948,10.948,0,0,0,4.234-1.058l-1.058-9Z" transform="translate(-303.495 -621.409)" fill="#2f2e41"/>
      <path id="Pfad_1814" data-name="Pfad 1814" d="M441.307,819.985l.529,7.409s6.88,1.058,7.409,0,5.822-3.7,6.351-4.234,1.058-6.351-2.117-6.88-4.234,1.058-4.234,1.058Z" transform="translate(-368.815 -619.27)" fill="#2f2e41"/>
      <path id="Pfad_1815" data-name="Pfad 1815" d="M467.427,225.456S479,218.015,478.73,212.9s-7.243-21.23-7.243-21.23-5.457-11.345-7.626-6.709,2.851,9.572,2.851,9.572l3.24,15.811-8.807,8.4Z" transform="translate(-382.636 -178.744)" fill="#a0616a"/>
      <circle id="Ellipse_862" data-name="Ellipse 862" cx="9.526" cy="9.526" r="9.526" transform="translate(46.559 17.07)" fill="#a0616a"/>
      <path id="Pfad_1816" data-name="Pfad 1816" d="M371.515,266.207l1.588,10.055,11.643-2.117s-.529-10.055-.529-11.114S371.515,266.207,371.515,266.207Z" transform="translate(-320.193 -233.789)" fill="#a0616a"/>
      <path id="Pfad_1817" data-name="Pfad 1817" d="M336.949,301.684s13.231-3.175,14.819-2.117,9.526,2.117,9.526,2.117l9,13.76-2.646,17.465s-.529,28.05.529,32.813,6.88,5.292-5.292,6.351-14.289-.529-22.757,1.588-15.348-1.059-13.231-3.175,5.822-35.988,1.588-39.163-5.822-19.582-5.822-19.582S336.949,304.33,336.949,301.684Z" transform="translate(-286.156 -259.21)" fill="#657ee4"/>
      <path id="Pfad_1818" data-name="Pfad 1818" d="M444.8,301.337l1.588-1.588,3.175-3.175s10.32,4.5,9.791,6.086-3.969,10.849-3.969,10.849l-4.763,1.588Z" transform="translate(-371.247 -257.276)" fill="#657ee4"/>
      <path id="Pfad_1819" data-name="Pfad 1819" d="M363.348,211l-.1-.763a6,6,0,0,0-1.907.3,3.132,3.132,0,0,1,.118-1.371,6.1,6.1,0,0,0-1.765.767l-.385-1.393-5.291,2.607c-1.9.936-3.9,1.964-4.987,3.782-1.21,2.027-1,4.631-.172,6.842a55.572,55.572,0,0,0,3.3,6.254,15.626,15.626,0,0,0,1.5,2.556,7.139,7.139,0,0,0,8.7,1.49,5.035,5.035,0,0,0,2.411-2.481,16.129,16.129,0,0,0,.482-2.054c.348-1.423.753-4.359,1.908-5.259.508-.4,1.517.917,1.938.429,1.083-1.253.856-3.186.183-4.7a34.3,34.3,0,0,0-2.258-4.4A20.858,20.858,0,0,0,363.348,211Z" transform="translate(-303.938 -195.942)" fill="#2f2e41"/>
      <path id="Pfad_1820" data-name="Pfad 1820" d="M268.9,382.069s-12.7,12.172-11.114,18.523,14.289,24.874,14.289,24.874,12.172,6.351,13.76,0-8.468-4.763-8.468-4.763l-7.939-19.053,9-12.7Z" transform="translate(-240.864 -316.839)" fill="#a0616a"/>
      <path id="Pfad_1821" data-name="Pfad 1821" d="M303.483,341.252l-6.351-1.058s-4.763,5.292-6.351,7.409-4.763,7.409-4.763,7.409l11.114,7.939,8.468-9Z" transform="translate(-260.629 -287.665)" fill="#657ee4"/>
    </g>
  </g>
</svg>
