<?xml version="1.0" encoding="UTF-8" standalone="no"?>
<svg width="312px" height="312px" viewBox="0 0 312 312" version="1.1" xmlns="http://www.w3.org/2000/svg" xmlns:xlink="http://www.w3.org/1999/xlink" xmlns:sketch="http://www.bohemiancoding.com/sketch/ns">
    <!-- Generator: Sketch 3.3.3 (12081) - http://www.bohemiancoding.com/sketch -->
    <title>Untitled</title>
    <desc>Created with Sketch.</desc>
    <defs></defs>
    <g id="Page-1" stroke="none" stroke-width="1" fill="none" fill-rule="evenodd" sketch:type="MSPage">
        <g sketch:type="MSLayerGroup" transform="translate(1.000000, 1.000000)" id="Oval-1" stroke="#979797" fill="#D8D8D8">
            <path d="M310,155 C310,73.6173658 247.27978,6.88382362 167.539877,0.499911328 C163.403587,0.168763317 159.221502,0 155,0 C69.395864,0 0,69.395864 0,155 C0,240.604136 69.395864,310 155,310 C240.604136,310 310,240.604136 310,155 Z M304,154.5 C304,71.93343 237.06657,14 154.5,14 C71.93343,14 5,71.93343 5,154.5 C5,237.06657 71.93343,304 154.5,304 C237.06657,304 304,237.06657 304,154.5 Z" sketch:type="MSShapeGroup"></path>
        </g>
    </g>
</svg>