<svg
    fill="none"
    height="78"
    viewBox="0 0 144 78"
    width="144"
    xmlns="http://www.w3.org/2000/svg"
    xmlns:xlink="http://www.w3.org/1999/xlink"
>
    <clipPath id="a"><path d="m12 6h120v21h-120z" /></clipPath>
    <g clip-path="url(#a)">
        <g fill="#6f7191">
            <path
                d="m43.1327 14.6538-.1473-.1663c-.315-.3399-.7029-.6064-1.1355-.7803-.4325-.1738-.899-.2507-1.3655-.225-2.2599 0-4.0301 1.9296-4.0301 4.3908 0 2.4611 1.7702 4.3908 4.0301 4.3908.4666.0256.933-.0514 1.3656-.2253.4326-.174.8204-.4407 1.1354-.7806l.1473-.167v.9354h2.4141v-11.9013l-2.4141.8452zm-2.1321 5.373c-.4341.0102-.8614-.1073-1.2275-.3374-.366-.2302-.6541-.5625-.8274-.9547-.1733-.3921-.2241-.8262-.1457-1.2469.0783-.4207.2822-.8089.5855-1.1149.3034-.3061.6924-.5161 1.1176-.6033.4251-.0872.8669-.0476 1.2691.1137.4021.1613.7464.437.9887.792.2423.3549.3717.7728.3718 1.2006.0198.283-.0214.567-.1208.8333-.0995.2663-.255.5089-.4563.7118-.2014.203-.444.3617-.712.4658-.2679.1041-.5552.1512-.843.1382z"
            />
            <path
                d="m48.0783 9.91797c-.29 0-.5735.08473-.8147.24343-.2411.1587-.4291.3843-.54.6482-.111.2639-.1401.5543-.0835.8345s.1963.5375.4013.7395c.2051.202.4664.3396.7508.3953s.5793.0271.8472-.0822c.268-.1093.497-.2944.6581-.532.1611-.2375.2471-.5167.2471-.8024-.0048-.3816-.1609-.7462-.4348-1.016-.274-.2698-.6441-.42354-1.0315-.42833z"
            />
            <path d="m49.286 13.7188h-2.4147v8.3112h2.4147z" />
            <path d="m63.4802 13.7188h-2.4148v8.3112h2.4148z" />
            <path
                d="m67.3079 19.0726v-3.0828h1.4258l.9021-2.2763h-2.3273v-2.3346l-2.4142.9394v6.7543c0 2.085 1.1109 3.0568 3.4951 3.0568.4591-.0028.9177-.0327 1.3731-.0896l-1.1226-2.1561c-.8593 0-1.332-.015-1.332-.8111z"
            />
            <path
                d="m76.3845 14.6531-.1466-.1664c-.315-.3398-.7029-.6064-1.1355-.7803-.4326-.1738-.899-.2507-1.3655-.225-2.2599 0-4.0295 1.9297-4.0295 4.3908s1.7702 4.3907 4.0295 4.3907c.4665.0257.933-.0513 1.3656-.2252.4326-.174.8204-.4406 1.1354-.7806l.1466-.1669v.9353h2.4142v-8.3072h-2.4142zm-2.1314 5.3729c-.4342.0103-.8616-.107-1.2276-.3371-.3661-.2301-.6543-.5624-.8277-.9545-.1735-.3922-.2243-.8263-.146-1.2471.0783-.4207.2821-.8089.5854-1.115s.6924-.5162 1.1175-.6034c.4251-.0873.867-.0477 1.2692.1136s.7464.437.9888.7919.3718.773.3718 1.2007c.0199.283-.0212.567-.1206.8333s-.2548.5089-.456.7118c-.2013.203-.4439.3617-.7119.4658-.2679.1041-.5552.1512-.8429.1382z"
            />
            <path d="m80.1021 22.0239h2.4147v-12.17624l-2.4147.84584z" />
            <path
                d="m87.1047 11.3125-2.433.8498-.0123 1.5599h-.8158v2.2763h.8164v3.0828c-.0841.8117.151 1.6243.6569 2.2705.4857.5089 1.2628.7458 2.447.7458.3262 0 .6904-.0191 1.084-.0578v-2.1434c-.1936.0104-.3519.0157-.4927.0157-.3186.0237-.6382-.0322-.9291-.1624-.1174-.0668-.213-.1654-.2754-.2841-.0623-.1187-.0889-.2524-.0765-.3855v-3.0828h1.7731v-2.2774h-1.7737z"
            />
            <path
                d="m99.5609 13.4797c-.5932-.0224-1.1847.0755-1.7379.2877-.5532.2123-1.0562.5343-1.4777.9461-.4215.4117-.7525.9044-.9726 1.4475-.22.5431-.3243 1.125-.3064 1.7095 0 2.5865 1.9262 4.3907 4.6835 4.3907.6942.038 1.3882-.0913 2.0202-.3767.633-.2854 1.185-.7183 1.609-1.2611l-1.926-1.0914c-.452.4147-1.051.6383-1.668.6228-1.1144 0-1.8388-.4171-2.1438-1.2409l-.0411-.1104h6.1589c.059-.3081.089-.6211.088-.9348.023-.5684-.07-1.1357-.275-1.6676s-.517-1.0175-.917-1.4276c-.401-.41-.881-.736-1.413-.9583-.532-.2224-1.103-.3365-1.6811-.3355zm-2.003 3.5935.0293-.104c.1281-.4057.3846-.7604.7319-1.0123.3474-.2519.7674-.3877 1.1987-.3877s.8512.1358 1.1992.3877c.347.2519.603.6066.731 1.0123l.03.104z"
            />
            <path
                d="m110.125 13.475c-.451-.0295-.902.0456-1.318.2193-.415.1737-.784.4412-1.076.7808l-.151.2045v-.9325l-2.414.8458v7.4314h2.414v-4.5456c0-1.1624.614-1.8285 1.685-1.8285.217-.0131.434.0205.637.0984.203.078.386.1985.536.3531.151.1546.266.3397.337.5424.07.2026.095.418.073.6312v4.749h2.414v-5.1222c-.002-2.3675-1.576-3.4271-3.137-3.4271z"
            />
            <path
                d="m121.313 14.6571-.147-.1669c-.315-.3399-.703-.6064-1.135-.7803-.433-.1739-.9-.2507-1.366-.225-2.26 0-4.03 1.9296-4.03 4.3908 0 2.4611 1.771 4.3908 4.03 4.3908.467.0256.933-.0513 1.366-.2253.432-.174.82-.4406 1.135-.7806l.147-.1664v.9354h2.414v-11.6702l-2.414.8458zm-2.132 5.3729c-.435.0103-.862-.1072-1.228-.3373-.366-.2302-.654-.5625-.827-.9547-.174-.3921-.224-.8263-.146-1.247s.282-.8088.585-1.1149c.304-.306.693-.516 1.118-.6032s.867-.0476 1.269.1137.747.437.989.7919.372.7729.372 1.2007c.02.2831-.021.5672-.121.8337-.099.2665-.254.5092-.456.7124-.201.2031-.443.362-.712.4662-.268.1043-.555.1514-.843.1385z"
            />
            <path
                d="m95.8734 13.5456c-.2269-.047-.458-.0706-.6898-.0705h-.0223-.0223c-.4395-.029-.8799.0417-1.2874.2064s-.7713.4192-1.0634.744l-.1496.1883v-.8764l-.0446.0092v-.0312l-2.4141.0924v8.216h2.4569v-4.5456c0-1.1352.5866-1.7979 1.6136-1.8274.3513-.8258.9097-1.5502 1.623-2.1052z"
            />
            <path
                d="m57.2887 14.6531-.1467-.1664c-.315-.3398-.7029-.6064-1.1354-.7803-.4326-.1738-.899-.2507-1.3655-.225-2.26 0-4.0295 1.9297-4.0295 4.3908s1.7701 4.3907 4.0295 4.3907c.4551.0237.9101-.0497 1.3339-.2151.4237-.1654.8062-.4189 1.1213-.7433l.1455-.1577v1.5639c-.0035.2703-.0615.5372-.1708.7851-.1093.248-.2675.472-.4656.6591s-.432.3335-.688.4306c-.2561.0971-.5293.1431-.8036.1351-.4468.0289-.8917-.0794-1.2735-.3098-.3817-.2304-.6817-.5716-.8585-.9768l-.0622-.1802-2.1802.7672.054.1797c.339.8483.9363 1.5724 1.7099 2.0728.7736.5005 1.6855.7528 2.6105.7222 2.6166 0 4.5902-1.8424 4.5902-4.2856v-8.9918h-2.4153zm-2.1321 5.3729c-.4341.0102-.8614-.1073-1.2274-.3374s-.6541-.5625-.8274-.9546c-.1734-.3922-.2241-.8263-.1458-1.247.0784-.4207.2822-.8089.5856-1.1149.3033-.3061.6924-.5161 1.1175-.6033s.867-.0476 1.2691.1137c.4022.1613.7464.437.9887.792.2424.3549.3718.7729.3718 1.2006.0199.283-.0212.567-.1206.8333s-.2548.5089-.4561.7118c-.2013.203-.4439.3617-.7118.4658-.268.1041-.5552.1512-.843.1382z"
            />
            <path
                d="m62.3094 9.91797c-.29 0-.5735.08473-.8146.24343-.2412.1587-.4291.3843-.5401.6482s-.14.5543-.0834.8345c.0565.2802.1962.5375.4013.7395.205.202.4663.3396.7508.3953.2844.0557.5792.0271.8472-.0822.2679-.1093.4969-.2944.658-.532.1612-.2375.2472-.5167.2472-.8024-.0048-.3816-.1608-.7463-.4347-1.0162-.274-.2698-.6442-.42349-1.0317-.42813z"
            />
            <path
                d="m128.85 16.8515c-.724-.1872-1.296-.3357-1.296-.7442 0-.3466.301-.5569.806-.5569.185-.0054.368.0302.537.1041s.319.1843.438.3228l2.221-.777.043-.0226c-.343-.5359-.823-.9744-1.391-1.2724-.567-.298-1.204-.4453-1.848-.4273-1.637 0-3.289.8343-3.289 2.6975 0 1.8129 1.686 2.2757 2.918 2.6142.735.2017 1.316.3611 1.316.7598 0 .2773-.176.6077-1.013.6077-.251.0157-.501-.0308-.729-.135-.228-.1043-.426-.263-.575-.4618l-2.278.795-.011.0064c.64 1.2444 1.88 1.9018 3.59 1.9018 1.69 0 3.496-.7088 3.496-2.6974.003-1.9539-1.695-2.3935-2.935-2.7147z"
            />
            <path
                d="m33.0678 6h-20.9212c-.0809 0-.1466.06466-.1466.14443v20.60717c0 .0797.0657.1444.1466.1444h20.9212c.081 0 .1466-.0647.1466-.1444v-20.60717c0-.07977-.0656-.14443-.1466-.14443z"
            />
        </g>
        <path
            d="m29.4646 15.073h-5.4706v-5.3856c0-.0383-.0155-.07505-.043-.10213-.0275-.02709-.0647-.0423-.1036-.0423h-2.487c-.0388 0-.0761.01521-.1036.0423-.0275.02708-.043.06383-.043.10213v5.3856h-5.4677c-.0389 0-.0762.0152-.1037.0423s-.0429.0638-.0429.1022v2.4495c0 .0383.0154.0751.0429.1022s.0648.0423.1037.0423h5.4677v5.3856c0 .0383.0155.075.043.1021s.0648.0423.1036.0423h2.487c.0389 0 .0761-.0152.1036-.0423s.043-.0638.043-.1021v-5.3856h5.4677c.0389 0 .0762-.0152.1037-.0423s.0429-.0639.0429-.1022v-2.4495c0-.0379-.015-.0742-.0419-.1012s-.0634-.0425-.1018-.0433z"
            fill="#fff"
        />
        <path
            d="m17.8951 18.6172h-1.7789c-.2835 0-.5132.2263-.5132.5055v1.0469c0 .2791.2297.5055.5132.5055h1.7789c.2835 0 .5133-.2264.5133-.5055v-1.0469c0-.2792-.2298-.5055-.5133-.5055z"
            fill="#fff"
        />
        <path
            d="m19.9926 21.2852h-3.8764c-.2835 0-.5132.2263-.5132.5055v1.0468c0 .2792.2297.5055.5132.5055h3.8764c.2834 0 .5132-.2263.5132-.5055v-1.0468c0-.2792-.2298-.5055-.5132-.5055z"
            fill="#fff"
        />
        <path
            d="m129.505 10.9702c.005-.242.083-.4771.223-.676.14-.1988.336-.35256.564-.44186.229-.0893.479-.11019.719-.06007.241.05012.46.16903.633.34183.172.1728.288.3917.334.6294s.02.4835-.075.7067c-.095.2231-.255.4136-.46.5476-.204.134-.444.2055-.69.2055-.166.0011-.331-.0308-.484-.0937-.154-.0629-.293-.1556-.409-.2725-.117-.1169-.208-.2556-.269-.408s-.09-.3152-.086-.4789zm2.291 0c-.005-.2022-.071-.3983-.189-.5638s-.283-.2931-.474-.3668c-.191-.07364-.4-.09013-.601-.04739-.201.04269-.384.14279-.527.28769s-.24.3282-.278.527c-.038.1987-.016.4041.064.5904s.214.3453.385.4571.372.1714.577.1713c.14.0018.279-.0244.409-.0771.129-.0528.246-.1309.344-.2296s.174-.216.225-.3447c.05-.1287.074-.2662.068-.4041zm-1.489-.7025h.478c.061-.0059.123.0015.181.0214.059.0199.112.052.156.0941.045.0421.08.0931.103.1497.022.0565.032.1172.029.1779.005.0962-.026.1909-.086.2671-.06.0761-.145.1287-.241.1483l.394.52h-.197l-.376-.5125h-.274v.5125h-.169zm.469.7129c.204 0 .313-.0867.313-.2663.004-.0409-.002-.0821-.016-.1205-.015-.0385-.038-.0732-.068-.1016-.03-.0283-.067-.0495-.106-.062-.04-.0125-.082-.0159-.123-.01h-.302v.561z"
            fill="#6f7191"
        />
    </g>
    <g fill="#c8b6ff">
        <path
            d="m35.5016 41.7877c.2151-.3836.7817-.3836.9968 0l1.8487 3.2959c.0817.1456.2263.2478.394.2783l3.7951.691c.4418.0804.6168.6043.3081.9218l-2.6526 2.728c-.1172.1205-.1724.2859-.1505.4503l.4969 3.723c.0578.4333-.4005.7571-.8065.5697l-3.4881-1.6099c-.1541-.0711-.3329-.0711-.487 0l-3.4881 1.6099c-.406.1874-.8643-.1364-.8065-.5697l.4969-3.723c.0219-.1644-.0333-.3298-.1505-.4503l-2.6526-2.728c-.3087-.3175-.1337-.8414.3081-.9218l3.7951-.691c.1677-.0305.3123-.1327.394-.2783z"
        />
        <path
            d="m53.5016 41.7877c.2151-.3836.7817-.3836.9968 0l1.8487 3.2959c.0817.1456.2263.2478.394.2783l3.7951.691c.4418.0804.6168.6043.3081.9218l-2.6526 2.728c-.1172.1205-.1724.2859-.1505.4503l.4969 3.723c.0578.4333-.4005.7571-.8065.5697l-3.4881-1.6099c-.1541-.0711-.3329-.0711-.487 0l-3.4881 1.6099c-.406.1874-.8643-.1364-.8065-.5697l.4969-3.723c.0219-.1644-.0333-.3298-.1505-.4503l-2.6526-2.728c-.3087-.3175-.1337-.8414.3081-.9218l3.7951-.691c.1677-.0305.3123-.1327.394-.2783z"
        />
        <path
            d="m71.5016 41.7877c.2151-.3836.7817-.3836.9968 0l1.8487 3.2959c.0817.1456.2263.2478.394.2783l3.7951.691c.4418.0804.6168.6043.3081.9218l-2.6526 2.728c-.1172.1205-.1724.2859-.1505.4503l.4969 3.723c.0578.4333-.4005.7571-.8065.5697l-3.4881-1.6099c-.1541-.0711-.3329-.0711-.487 0l-3.4881 1.6099c-.406.1874-.8643-.1364-.8065-.5697l.4969-3.723c.0219-.1644-.0333-.3298-.1505-.4503l-2.6526-2.728c-.3087-.3175-.1337-.8414.3081-.9218l3.7951-.691c.1677-.0305.3123-.1327.394-.2783z"
        />
        <path
            d="m89.5016 41.7877c.2151-.3836.7817-.3836.9968 0l1.8487 3.2959c.0817.1456.2263.2478.394.2783l3.7951.691c.4418.0804.6168.6043.3081.9218l-2.6526 2.728c-.1172.1205-.1724.2859-.1505.4503l.4969 3.723c.0578.4333-.4005.7571-.8065.5697l-3.4881-1.6099c-.1541-.0711-.3329-.0711-.487 0l-3.4881 1.6099c-.406.1874-.8643-.1364-.8065-.5697l.4969-3.723c.0219-.1644-.0333-.3298-.1505-.4503l-2.6526-2.728c-.3087-.3175-.1337-.8414.3081-.9218l3.7951-.691c.1677-.0305.3123-.1327.394-.2783z"
        />
        <path
            clip-rule="evenodd"
            d="m108 42.9432-1.475 2.6296c-.231.4117-.633.6903-1.087.7729l-2.973.5413 2.06 2.1186c.328.3369.488.8067.425 1.2797l-.39 2.9246 2.777-1.2821c.42-.1938.906-.1938 1.326 0l2.777 1.2821-.39-2.9246c-.063-.473.097-.9428.425-1.2797l2.06-2.1186-2.973-.5413c-.454-.0826-.856-.3612-1.087-.7729zm.498-1.1555c-.215-.3836-.781-.3836-.996 0l-1.849 3.2959c-.082.1456-.226.2478-.394.2783l-3.795.691c-.442.0804-.617.6043-.308.9218l2.652 2.728c.117.1205.173.2859.151.4503l-.497 3.723c-.058.4333.4.7571.806.5697l3.489-1.6099c.154-.0711.332-.0711.486 0l3.489 1.6099c.406.1874.864-.1364.806-.5697l-.497-3.723c-.022-.1644.034-.3298.151-.4503l2.652-2.728c.309-.3175.134-.8414-.308-.9218l-3.795-.691c-.168-.0305-.312-.1327-.394-.2783z"
            fill-rule="evenodd"
        />
    </g>
    <path
        d="m45.1989 72.2102v-.8693l3.8352-6.0682h1.2784v6h1.1932v.9375h-1.1932v1.7898h-1.0057v-1.7898zm4.1079-.9375v-4.6534h-.0682l-2.8977 4.5852v.0682z"
        fill="#5c5958"
    />
    <path
        d="m56.5057 64.8636-2.8125 10.4489h-.9205l2.8125-10.4489zm3.9023 9.2557c-1.5 0-2.6463-.9716-2.7102-2.3011h1.0227c.081.7883.7926 1.3636 1.6875 1.3636 1.0739 0 1.858-.8224 1.858-1.9432 0-1.142-.8139-1.9858-1.9262-1.9943-.5369-.0042-1.1548.1833-1.517.4432l-.9886-.1193.5284-4.2955h4.5341v.9375h-3.6478l-.3068 2.5739h.0512c.3579-.2855.9289-.4943 1.517-.4943 1.6023 0 2.7784 1.24 2.7784 2.9318 0 1.6704-1.2187 2.8977-2.8807 2.8977zm14.0679-6.1193c-.3708-1.1463-1.2273-1.858-2.4887-1.858-1.5511 0-2.7954 1.2273-2.7954 3.4944 0 2.267 1.2443 3.4943 2.8636 3.4943 1.4787 0 2.5099-.9887 2.5398-2.5568h-2.3012v-.9375h3.3239v.9375c0 2.1605-1.483 3.5454-3.5625 3.5454-2.3182 0-3.8864-1.7216-3.8864-4.4829 0-2.7614 1.581-4.483 3.8182-4.483 1.8409 0 3.2557 1.1591 3.5796 2.8466zm2.8156 6v-6.5455h.9716v.9887h.0682c.2387-.6477.9205-1.0909 1.7046-1.0909.1491 0 .4133.0085.5284.017v1.0227c-.0682-.017-.3452-.0681-.6137-.0681-.9545 0-1.6534.6477-1.6534 1.5341v4.142zm7.01.1364c-1.8921 0-3.0511-1.3466-3.0511-3.358s1.1761-3.4091 2.9488-3.4091c1.3637 0 2.8125.8352 2.8125 3.2727v.4262h-4.7514c.0469 1.402.8608 2.1648 2.0412 2.1648.7883 0 1.3807-.341 1.6364-1.0228l.9715.2728c-.3068.9886-1.2784 1.6534-2.6079 1.6534zm-2.0412-3.9375h3.7287c0-1.108-.6989-1.9262-1.7898-1.9262-1.1505 0-1.8707.9077-1.9389 1.9262zm8.2074 3.9545c-1.2443 0-2.233-.7329-2.233-2.0114 0-1.5 1.3253-1.7684 2.5398-1.9261 1.1932-.1534 1.6875-.1108 1.6875-.5966v-.0341c0-.8395-.456-1.3295-1.3807-1.3295-.9588 0-1.4829.5113-1.7045.9886l-.9546-.3409c.5114-1.1932 1.6364-1.5341 2.625-1.5341.8353 0 2.4205.2387 2.4205 2.3182v4.3125h-1.0057v-.8864h-.0511c-.2046.4262-.8012 1.0398-1.9432 1.0398zm.1534-.9034c1.1932 0 1.8409-.8011 1.8409-1.6193v-.9205c-.1705.2046-1.3125.3239-1.7386.375-.7841.1023-1.483.3409-1.483 1.108 0 .6988.5796 1.0568 1.3807 1.0568zm7.5288-5.7955v.8523h-1.3978v3.8182c0 .8523.4262.9886.8693.9886.2216 0 .358-.0341.4432-.0511l.2046.9034c-.1364.0511-.375.1193-.75.1193-.8523 0-1.7728-.5454-1.7728-1.6875v-4.0909h-.9886v-.8523h.9886v-1.5681h1.0057v1.5681z"
        fill="#5c5958"
    />
</svg>
