<svg
    fill="none"
    height="78"
    viewBox="0 0 144 78"
    width="144"
    xmlns="http://www.w3.org/2000/svg"
    xmlns:xlink="http://www.w3.org/1999/xlink"
>
    <clipPath id="a"><path d="m60 1h24v30h-24z" /></clipPath>
    <mask id="b" height="30" maskUnits="userSpaceOnUse" width="24" x="60" y="1">
        <path d="m83.9267 1.17578h-23.5452v29.45972h23.5452z" fill="#fff" />
    </mask>
    <g clip-path="url(#a)">
        <g mask="url(#b)">
            <path
                d="m60.3815 1.17578h23.5452v29.45972h-23.5452zm19.7608 13.86342h-3.3214v4.5487c0 .4767-.168.65-.5465.65s-.5465-.1734-.5465-.65v-11.74028c0-.38992.1683-.60657.5465-.60657s.5465.21665.5465.60657v4.11558h3.3214v-3.98569c0-1.94959-.8827-3.33591-3.6999-3.33591-2.8173 0-4.2043 1.16955-4.2043 3.33591v11.48049c0 2.2095 1.3877 3.3794 4.2043 3.3794 2.8165 0 3.6999-1.3864 3.6999-3.3794zm-8.619-6.97493c0-2.16625-.9668-3.33592-3.2795-3.33592h-4.4988v18.02255h3.4898v-6.9318h.967c2.3125 0 3.2796-1.1696 3.2796-3.336v-4.41883zm-4.2885 5.11203v-5.84849c.7987 0 1.1351.21665 1.1351.99636v3.85563c.0002.7799-.3363.9965-1.1351.9965zm-3.9102 11.4372v2.9028h.7147v-1.1698h.2102c.1682 0 .2943-.0431.3783-.0866.0841-.0434.1682-.13.2102-.2165.0421-.0866.0421-.2167.0421-.3899v-.2165c0-.1736 0-.3032-.0421-.3899 0-.0869-.042-.1733-.1261-.2166-.0419-.0433-.126-.0867-.2523-.13-.1261-.0434-.2522-.0434-.4624-.0434h-.6727zm.7148.5201c.0841 0 .1683 0 .1683.0432.042.0434.042.0865.042.1733v.26c0 .0867 0 .1733-.042.2165 0 .0434-.042.0434-.0841.0434h-.0421v-.7363zm2.7749.7797v-.2599c0-.26-.0421-.4766-.084-.6066-.0421-.13-.1261-.2165-.2943-.3033-.1261-.0865-.3364-.13-.5465-.13-.168 0-.2942.0435-.4204.0868-.1261.0432-.2102.13-.2942.2165-.0841.0866-.1262.2167-.1262.3033v1.3429c0 .3032.0421.5201.0842.6498.0421.1298.126.2598.2942.3465.1261.0867.2944.1299.5465.1299.2103 0 .3784-.0432.5047-.1299.1261-.0867.21-.2165.2522-.3465.0421-.13.042-.3466.042-.6498v-.13h-.7148v.3031c0 .1733 0 .26-.042.3032 0 .0435-.042.0435-.1261.0435-.0419 0-.084 0-.1261-.0435 0-.0433-.0419-.1299-.0419-.2598v-1.343c0-.13 0-.2601.0419-.3031 0-.0434.0421-.0867.1261-.0867.0421 0 .0841 0 .0841.0433s.042.13.042.2599v.5197h.7988zm2.4805-1.2998h-.9249l-.1681 1.3432-.0841-.7366c-.042-.2167-.042-.4333-.0841-.6067h-.925v2.9028h.6307v-1.9065l.2522 1.9065h.4624l.2524-1.9496v1.9496h.6306v-2.9028zm1.5558 0h-1.0509l-.3785 2.9028h.7569l.042-.52h.2523l.0421.52h.7569zm-.3784 1.9064h-.2523c0-.26.0841-.6501.1261-1.2131.0421.4767.0841.8664.1262 1.2131zm2.6069-.8231v-.13c0-.26-.0421-.4331-.084-.5632-.0421-.1298-.1262-.2164-.2944-.3031-.1679-.0866-.2942-.1299-.5045-.1299-.2102 0-.3783.0433-.5467.1732-.126.0867-.2101.2165-.2521.3466s-.042.3467-.042.6067v1.2996c0 .0868.042.2166.084.3032.0421.0866.126.1731.2525.2167.126.0432.2101.0864.3362.0864.0841 0 .2102-.0432.2522-.0864.0421-.0436.1262-.1301.1681-.2167l.0844.2167h.4623v-1.5598h-.8412v.4328h.1261v.3467c0 .1303 0 .2168-.042.26 0 .0434-.042.0869-.1261.0869-.0421 0-.0842 0-.0842-.0435 0-.0434-.0419-.1299-.0419-.2598v-1.3864c0-.1301 0-.2599.0419-.2599 0-.0434.042-.0434.0842-.0434s.084 0 .084.0434v.5631zm.7146 1.2563h-.5466v.6065h.5466zm1.8919-1.0398v-.2599c0-.26-.0418-.4766-.0838-.6066-.0421-.13-.1262-.2165-.2942-.3033-.1261-.0865-.3364-.13-.5467-.13-.1682 0-.294.0435-.4205.0868-.126.0432-.21.13-.2941.2165-.084.0866-.1259.2167-.1259.3033v1.3429c0 .3032.0419.5201.0836.6498.0422.13.1264.2598.2943.3465.1264.0867.2944.1299.5465.1299.2103 0 .3786-.0432.5046-.1299.1262-.0867.2103-.2165.2524-.3465.042-.13.042-.3466.042-.6498v-.13h-.7148v.3031c0 .1733 0 .26-.0421.3032 0 .0435-.042.0435-.1262.0435-.0419 0-.0838 0-.126-.0435 0-.0433-.042-.1299-.042-.2598v-1.343c0-.13 0-.2601.042-.3031 0-.0434.0422-.0867.126-.0867.0421 0 .0841 0 .0841.0433s.042.13.042.2599v.5197h.7986zm1.9341.4332v-1.1262c0-.13-.0421-.2167-.1261-.3465-.084-.0868-.1684-.1735-.294-.2167-.1264-.0433-.2523-.0865-.4207-.0865s-.2941.0433-.4203.0865c-.1263.0434-.2103.1301-.2943.2167-.0841.0863-.1262.2164-.1262.3465v1.7328c0 .1301.0421.2165.1262.3465.084.1303.168.1732.2943.2167.1262.0433.2524.0866.4203.0866s.2942-.0434.4207-.0866c.1258-.0435.2101-.13.294-.2167.084-.0865.1261-.2164.1261-.3465zm-.7144-.9531v1.6897c0 .0864-.0423.0864-.0843.0864s-.084 0-.084-.0432v-1.6463c0-.13 0-.2599.042-.2599 0-.0435.042-.0435.0841-.0435s.0845 0 .0845.0435c-.0422-.0435-.0423.0433-.0423.1733zm3.237-.7799h-.9667l-.1683 1.3432-.0841-.7366c-.0419-.2167-.0418-.4333-.0841-.6067h-.9251v2.9028h.6308v-1.9065l.2522 1.9065h.4624l.2524-1.9496v1.9496h.6304z"
                fill="#6f7191"
            />
        </g>
    </g>
    <g fill="#c8b6ff">
        <path
            d="m35.5016 41.7877c.2151-.3836.7817-.3836.9968 0l1.8487 3.2959c.0817.1456.2263.2478.394.2783l3.7951.691c.4418.0804.6168.6043.3081.9218l-2.6526 2.728c-.1172.1205-.1724.2859-.1505.4503l.4969 3.723c.0578.4333-.4005.7571-.8065.5697l-3.4881-1.6099c-.1541-.0711-.3329-.0711-.487 0l-3.4881 1.6099c-.406.1874-.8643-.1364-.8065-.5697l.4969-3.723c.0219-.1644-.0333-.3298-.1505-.4503l-2.6526-2.728c-.3087-.3175-.1337-.8414.3081-.9218l3.7951-.691c.1677-.0305.3123-.1327.394-.2783z"
        />
        <path
            d="m53.5016 41.7877c.2151-.3836.7817-.3836.9968 0l1.8487 3.2959c.0817.1456.2263.2478.394.2783l3.7951.691c.4418.0804.6168.6043.3081.9218l-2.6526 2.728c-.1172.1205-.1724.2859-.1505.4503l.4969 3.723c.0578.4333-.4005.7571-.8065.5697l-3.4881-1.6099c-.1541-.0711-.3329-.0711-.487 0l-3.4881 1.6099c-.406.1874-.8643-.1364-.8065-.5697l.4969-3.723c.0219-.1644-.0333-.3298-.1505-.4503l-2.6526-2.728c-.3087-.3175-.1337-.8414.3081-.9218l3.7951-.691c.1677-.0305.3123-.1327.394-.2783z"
        />
        <path
            d="m71.5016 41.7877c.2151-.3836.7817-.3836.9968 0l1.8487 3.2959c.0817.1456.2263.2478.394.2783l3.7951.691c.4418.0804.6168.6043.3081.9218l-2.6526 2.728c-.1172.1205-.1724.2859-.1505.4503l.4969 3.723c.0578.4333-.4005.7571-.8065.5697l-3.4881-1.6099c-.1541-.0711-.3329-.0711-.487 0l-3.4881 1.6099c-.406.1874-.8643-.1364-.8065-.5697l.4969-3.723c.0219-.1644-.0333-.3298-.1505-.4503l-2.6526-2.728c-.3087-.3175-.1337-.8414.3081-.9218l3.7951-.691c.1677-.0305.3123-.1327.394-.2783z"
        />
        <path
            d="m89.5016 41.7877c.2151-.3836.7817-.3836.9968 0l1.8487 3.2959c.0817.1456.2263.2478.394.2783l3.7951.691c.4418.0804.6168.6043.3081.9218l-2.6526 2.728c-.1172.1205-.1724.2859-.1505.4503l.4969 3.723c.0578.4333-.4005.7571-.8065.5697l-3.4881-1.6099c-.1541-.0711-.3329-.0711-.487 0l-3.4881 1.6099c-.406.1874-.8643-.1364-.8065-.5697l.4969-3.723c.0219-.1644-.0333-.3298-.1505-.4503l-2.6526-2.728c-.3087-.3175-.1337-.8414.3081-.9218l3.7951-.691c.1677-.0305.3123-.1327.394-.2783z"
        />
        <path
            clip-rule="evenodd"
            d="m108 42.9432-1.475 2.6296c-.231.4117-.633.6903-1.087.7729l-2.973.5413 2.06 2.1186c.328.3369.488.8067.425 1.2797l-.39 2.9246 2.777-1.2821c.42-.1938.906-.1938 1.326 0l2.777 1.2821-.39-2.9246c-.063-.473.097-.9428.425-1.2797l2.06-2.1186-2.973-.5413c-.454-.0826-.856-.3612-1.087-.7729zm.498-1.1555c-.215-.3836-.781-.3836-.996 0l-1.849 3.2959c-.082.1456-.226.2478-.394.2783l-3.795.691c-.442.0804-.617.6043-.308.9218l2.652 2.728c.117.1205.173.2859.151.4503l-.497 3.723c-.058.4333.4.7571.806.5697l3.489-1.6099c.154-.0711.332-.0711.486 0l3.489 1.6099c.406.1874.864-.1364.806-.5697l-.497-3.723c-.022-.1644.034-.3298.151-.4503l2.652-2.728c.309-.3175.134-.8414-.308-.9218l-3.795-.691c-.168-.0305-.312-.1327-.394-.2783z"
            fill-rule="evenodd"
        />
    </g>
    <path
        d="m35.1989 72.2102v-.8693l3.8352-6.0682h1.2784v6h1.1932v.9375h-1.1932v1.7898h-1.0057v-1.7898zm4.1079-.9375v-4.6534h-.0682l-2.8977 4.5852v.0682z"
        fill="#5c5958"
    />
    <path
        d="m46.5057 64.8636-2.8125 10.4489h-.9205l2.8125-10.4489zm3.9023 9.2557c-1.5 0-2.6463-.9716-2.7102-2.3011h1.0227c.081.7883.7926 1.3636 1.6875 1.3636 1.0739 0 1.858-.8224 1.858-1.9432 0-1.142-.8139-1.9858-1.9262-1.9943-.5369-.0042-1.1548.1833-1.517.4432l-.9886-.1193.5284-4.2955h4.5341v.9375h-3.6478l-.3068 2.5739h.0512c.3579-.2855.9289-.4943 1.517-.4943 1.6023 0 2.7784 1.24 2.7784 2.9318 0 1.6704-1.2187 2.8977-2.8807 2.8977zm8.1019-.1193v-8.7273h5.2671v.9375h-4.2102v2.9489h3.9375v.9375h-3.9375v2.9659h4.2784v.9375zm7.7856-6.5455 1.5681 2.6762 1.5682-2.6762h1.1591l-2.1136 3.2728 2.1136 3.2727h-1.1591l-1.5682-2.5398-1.5681 2.5398h-1.1591l2.0795-3.2727-2.0795-3.2728zm8.12 6.6819c-1.8409 0-2.9659-1.4148-2.9659-3.375 0-1.9944 1.1761-3.3921 2.9488-3.3921 1.3807 0 2.4205.8182 2.5909 2.0455h-1.0056c-.1534-.5966-.6819-1.1421-1.5682-1.1421-1.1762 0-1.9602.9716-1.9602 2.4546 0 1.517.767 2.5057 1.9602 2.5057.7841 0 1.3807-.4262 1.5682-1.1421h1.0056c-.1704 1.1591-1.125 2.0455-2.5738 2.0455zm6.7883 0c-1.892 0-3.0511-1.3466-3.0511-3.358s1.1761-3.4091 2.9489-3.4091c1.3636 0 2.8125.8352 2.8125 3.2727v.4262h-4.7515c.0469 1.402.8608 2.1648 2.0412 2.1648.7884 0 1.3807-.341 1.6364-1.0228l.9716.2728c-.3068.9886-1.2784 1.6534-2.608 1.6534zm-2.0412-3.9375h3.7287c0-1.108-.6988-1.9262-1.7897-1.9262-1.1506 0-1.8708.9077-1.939 1.9262zm7.287-4.9262v8.7273h-1.0057v-8.7273zm2.8476 0v8.7273h-1.0057v-8.7273zm4.5863 8.8637c-1.892 0-3.0511-1.3466-3.0511-3.358s1.1761-3.4091 2.9488-3.4091c1.3637 0 2.8126.8352 2.8126 3.2727v.4262h-4.7515c.0469 1.402.8608 2.1648 2.0412 2.1648.7884 0 1.3807-.341 1.6364-1.0228l.9716.2728c-.3068.9886-1.2784 1.6534-2.608 1.6534zm-2.0412-3.9375h3.7287c0-1.108-.6988-1.9262-1.7898-1.9262-1.1505 0-1.8707.9077-1.9389 1.9262zm7.287-.1364v3.9375h-1.0057v-6.5455h.9716v1.0228h.0852c.3068-.6648.9206-1.108 1.9086-1.108 1.326 0 2.216.8012 2.216 2.4716v4.1591h-1.005v-4.0909c0-1.027-.567-1.6364-1.5-1.6364-.9634 0-1.6707.6478-1.6707 1.7898zm8.8607-2.608v.8523h-1.398v3.8182c0 .8523.426.9886.869.9886.222 0 .358-.0341.443-.0511l.205.9034c-.136.0511-.375.1193-.75.1193-.852 0-1.773-.5454-1.773-1.6875v-4.0909h-.988v-.8523h.988v-1.5681h1.006v1.5681z"
        fill="#5c5958"
    />
</svg>
