<svg
    fill="none"
    height="78"
    viewBox="0 0 144 78"
    width="144"
    xmlns="http://www.w3.org/2000/svg"
    xmlns:xlink="http://www.w3.org/1999/xlink"
>
    <clipPath id="a"><path d="m13.5 6.22656h120v19.544h-120z" /></clipPath>
    <g clip-path="url(#a)" fill="#6f7191">
        <path
            d="m117.896 25.7717c-.856-.0003-1.694-.2547-2.406-.731-.713-.4763-1.268-1.1532-1.595-1.945-.328-.7918-.414-1.6629-.247-2.5034.168-.8404.581-1.6123 1.187-2.2182s1.378-1.0184 2.218-1.1855c.841-.1671 1.712-.0812 2.504.2468.791.328 1.468.8833 1.944 1.5958s.73 1.5502.73 2.4071c0 1.1493-.457 2.2513-1.27 3.0638s-1.915 1.2692-3.065 1.2696zm0-6.1318c-.355.0007-.702.1067-.998.3048-.295.1981-.525.4793-.661.808-.135.3288-.171.6904-.101 1.0391.07.3486.242.6688.494.92.251.2512.572.4222.921.4913s.71.0332 1.038-.1031c.329-.1363.609-.3668.807-.6626.198-.2957.303-.6434.303-.999-.001-.4773-.191-.9347-.529-1.2719s-.796-.5266-1.274-.5266z"
        />
        <path
            d="m117.896 6.22657c-.6.00035-1.2.03582-1.797.10625v2.74226c1.774-.25808 3.583-.13142 5.303.37141 1.721.50283 3.313 1.37001 4.669 2.54271s2.443 2.6234 3.188 4.2536c.746 1.6303 1.132 3.4018 1.132 5.1944.001.6021-.043 1.2034-.131 1.799h2.743c.255-2.1347.055-4.2993-.588-6.3509-.642-2.0516-1.713-3.9435-3.14-5.551-1.428-1.60753-3.18-2.89393-5.141-3.77437-1.962-.88045-4.088-1.33491-6.238-1.33336z"
        />
        <path
            d="m117.896 11.5664c-.602.0007-1.204.0566-1.797.1671v2.7811c1.058-.2747 2.164-.3036 3.235-.0843 1.07.2192 2.076.6808 2.941 1.3491.865.6684 1.564 1.526 2.046 2.5069.482.9808.733 2.059.733 3.1518-.001.6069-.078 1.2113-.229 1.799h2.781c.108-.5935.163-1.1956.163-1.799-.003-2.6174-1.044-5.1267-2.895-6.9774s-4.36-2.8915-6.978-2.8943z"
        />
        <path
            d="m66.1976 11.6133h-2.1417c-1.1624.0013-2.2768.4636-3.0988 1.2856-.8221.8219-1.2841 1.9364-1.2857 3.0988v7.3766h3.0438v-7.3767c.0004-.3554.1419-.6961.3933-.9473.2513-.2512.5921-.3925.9474-.3928h2.1417z"
        />
        <path
            d="m72.7738 20.3314c-.5637 0-1.1152-.1672-1.5839-.4804-.469-.3132-.8345-.7585-1.0503-1.2795-.2157-.5209-.2724-1.0941-.1622-1.6472.1099-.5531.3811-1.0611.7798-1.4599s.9069-.6704 1.46-.7804c.5531-.1101 1.1261-.0537 1.6471.1621.5211.2157.9663.5812 1.2798 1.05.3134.4688.4804 1.0201.4807 1.584-.0011.7558-.3017 1.4805-.836 2.015-.5344.5345-1.2591.8353-2.015.8363zm0-8.7455c-.9002-.0011-1.7887.2039-2.5974.5993-.8088.3955-1.5162.9709-2.0678 1.6822-.5519.7113-.9334 1.5394-1.1155 2.4211-.1822.8815-.1599 1.7931.0648 2.6648.2248.8717.6462 1.6803 1.2321 2.3638.5859.6836 1.3204 1.2238 2.1475 1.5794.8271.3557 1.7245.5171 2.6236.4722.899-.0451 1.7757-.2954 2.563-.7319v.7392h3.0441v-5.8885-.0074c-.0015-1.5628-.623-3.0611-1.728-4.1661-1.1055-1.105-2.6037-1.7265-4.1664-1.7281z"
        />
        <path
            d="m44.0991 20.039c-.5386.6799-1.2754 1.1754-2.1082 1.4176-.8329.2421-1.7206.2191-2.5397-.0661-.8192-.2851-1.5293-.8181-2.0318-1.5251-.5026-.707-.7725-1.5529-.7725-2.4202 0-.8674.2699-1.7133.7725-2.4203.5025-.707 1.2126-1.24 2.0318-1.5251.8191-.2852 1.7068-.3082 2.5397-.066.8328.2422 1.5696.7376 2.1082 1.4175l.0679.0847 1.249-1.2489-.0576-.0684c-.7844-.9295-1.8355-1.5956-3.0109-1.908-1.1755-.3123-2.4185-.2559-3.5609.1616-1.1424.4176-2.1288 1.1761-2.8257 2.1729-.697.9968-1.0708 2.1837-1.0708 3.4 0 1.2162.3738 2.4031 1.0708 3.3999.6969.9968 1.6833 1.7553 2.8257 2.1729 1.1424.4175 2.3854.474 3.5609.1616 1.1754-.3124 2.2265-.9784 3.0109-1.908l.0576-.0683-1.249-1.249z"
        />
        <path
            d="m27.5961 11.5117c-1.0694-.0002-2.119.2886-3.0378.8358-.9187.5473-1.6725 1.3327-2.1816 2.2731-.5091.9405-.7546 2.001-.7104 3.0696.0442 1.0684.3763 2.1051.9612 3.0004.585.8952 1.401 1.6157 2.3618 2.0853s2.0306.6708 3.0964.5823c1.0657-.0885 2.0877-.4634 2.9579-1.085s1.5562-1.4668 1.9855-2.4463l.0594-.1357h-1.9722l-.029.0435c-.4514.689-1.0964 1.229-1.854 1.5522-.7575.3232-1.5938.415-2.4034.2641-.8097-.151-1.5567-.5381-2.1468-1.1126-.5902-.5744-.9973-1.3107-1.17-2.116h9.9504l.0117-.0838c.0355-.2633.0536-.5287.0543-.7944-.0019-1.573-.6277-3.081-1.74-4.1931-1.1124-1.1122-2.6204-1.7377-4.1934-1.7394zm-4.0835 5.0552c.2006-.9339.7153-1.771 1.4583-2.3714s1.6694-.9279 2.6247-.9279 1.8816.3275 2.6246.9279c.7431.6004 1.2577 1.4375 1.4583 2.3714z"
        />
        <path
            d="m47.0782 23.3758h1.756v-6.6674c-.0013-.4556.0873-.9069.2607-1.3281.1734-.4213.4283-.8042.75-1.1268.3216-.3225.7038-.5785 1.1246-.7531.4207-.1746.8718-.2645 1.3273-.2645.4557 0 .9068.0899 1.3274.2645.421.1746.8029.4306 1.1245.7531.3217.3226.5766.7055.7501 1.1268.1736.4212.2619.8725.2608 1.3281v6.6669h1.7562v-6.8963h-.0063c-.043-.9853-.3639-1.9383-.9264-2.7484-.5624-.8101-1.343-1.444-2.2514-1.8283-.9084-.3842-1.907-.503-2.8801-.3425-.9731.1604-1.8806.5936-2.6174 1.2491v-6.46515h-1.756z"
        />
        <path
            d="m15.5241 11.5124h-2.0241v1.7558h2.0241v6.3866c.0012.9874.3939 1.9341 1.0921 2.6323s1.6449 1.091 2.6323 1.0921h1.8369v-1.7564h-1.8369c-.5217-.0006-1.0219-.2082-1.3909-.5771-.3689-.3689-.5765-.8691-.5771-1.3909v-6.3866h2.8425v-1.7558h-2.8425v-4.05537h-1.7564z"
        />
        <path
            d="m88.7951 12.3095c-.5972-.3255-1.2465-.5441-1.9192-.646-.0664-.0103-.1329-.022-.2005-.0304-.0747-.0094-.1501-.016-.2256-.0225-.1434-.0122-.2876-.0201-.4338-.022-.0153 0-.0305-.0019-.0454-.0019l-.0109.0005-.0153-.0005c-1.5635 0-3.0629.6211-4.1683 1.7266-1.1058 1.1055-1.7269 2.605-1.7269 4.1684 0 1.5635.6211 3.0629 1.7269 4.1684 1.1054 1.1056 2.6048 1.7267 4.1683 1.7267.0047 0 .0082-.001.0129-.001.0043 0 .0086.001.0133.001.1892 0 .3753-.0122.5605-.0304.0086-.0005.018-.0019.027-.0024.7947-.0789 1.5647-.3192 2.2632-.7064v.7391h3.0418l-.023-17.03295h-3.045zm0 5.1736c-.0004.7558-.301 1.4803-.8357 2.0144s-1.2598.8339-2.0154.8337c-.7555-.0003-1.4802-.3007-2.0145-.8352-.5344-.5344-.8346-1.2592-.8346-2.015 0-.7557.3002-1.4805.8346-2.015.5343-.5344 1.259-.8348 2.0145-.8351.7556-.0003 1.4807.2996 2.0154.8337.5347.534.8353 1.2586.8357 2.0143z"
        />
        <path
            d="m102.2 23.3532h3.042v-5.887c-.001-1.2947-.429-2.5529-1.215-3.581-.787-1.028-1.89-1.7688-3.14-2.1083-1.2493-.3395-2.5755-.2589-3.7744.2295-1.1992.4883-2.2041 1.3573-2.8608 2.4731s-.9283 2.4165-.7728 3.7018c.1552 1.2853.7286 2.4839 1.6323 3.4112.9034.9273 2.0866 1.5319 3.3675 1.7206 1.2809.1888 2.5882-.0488 3.7212-.6761zm-2.8515-3.0212c-.5637 0-1.1148-.1672-1.5835-.4804-.4686-.3132-.8341-.7583-1.0499-1.2791s-.272-1.0938-.1622-1.6468c.1098-.5529.3811-1.0608.7798-1.4595.3983-.3987.9061-.6703 1.4592-.7804.5527-.1102 1.1257-.054 1.6471.1615.52.2155.966.5806 1.279 1.0492.313.4685.481 1.0195.482 1.5832v.0034c-.002.7556-.302 1.48-.837 2.0141-.534.5342-1.259.8344-2.0145.8348z"
        />
        <path
            d="m111.51 11.5898c-1.162.0017-2.277.4642-3.099 1.2861-.822.822-1.285 1.9363-1.287 3.0988v7.4034h3.048v-7.4034c0-.3552.14-.696.391-.9473.252-.2515.592-.3929.947-.3933h2.144v-3.0442z"
        />
    </g>
    <g fill="#c8b6ff">
        <path
            d="m35.5016 41.7877c.2151-.3836.7817-.3836.9968 0l1.8487 3.2959c.0817.1456.2263.2478.394.2783l3.7951.691c.4418.0804.6168.6043.3081.9218l-2.6526 2.728c-.1172.1205-.1724.2859-.1505.4503l.4969 3.723c.0578.4333-.4005.7571-.8065.5697l-3.4881-1.6099c-.1541-.0711-.3329-.0711-.487 0l-3.4881 1.6099c-.406.1874-.8643-.1364-.8065-.5697l.4969-3.723c.0219-.1644-.0333-.3298-.1505-.4503l-2.6526-2.728c-.3087-.3175-.1337-.8414.3081-.9218l3.7951-.691c.1677-.0305.3123-.1327.394-.2783z"
        />
        <path
            d="m53.5016 41.7877c.2151-.3836.7817-.3836.9968 0l1.8487 3.2959c.0817.1456.2263.2478.394.2783l3.7951.691c.4418.0804.6168.6043.3081.9218l-2.6526 2.728c-.1172.1205-.1724.2859-.1505.4503l.4969 3.723c.0578.4333-.4005.7571-.8065.5697l-3.4881-1.6099c-.1541-.0711-.3329-.0711-.487 0l-3.4881 1.6099c-.406.1874-.8643-.1364-.8065-.5697l.4969-3.723c.0219-.1644-.0333-.3298-.1505-.4503l-2.6526-2.728c-.3087-.3175-.1337-.8414.3081-.9218l3.7951-.691c.1677-.0305.3123-.1327.394-.2783z"
        />
        <path
            d="m71.5016 41.7877c.2151-.3836.7817-.3836.9968 0l1.8487 3.2959c.0817.1456.2263.2478.394.2783l3.7951.691c.4418.0804.6168.6043.3081.9218l-2.6526 2.728c-.1172.1205-.1724.2859-.1505.4503l.4969 3.723c.0578.4333-.4005.7571-.8065.5697l-3.4881-1.6099c-.1541-.0711-.3329-.0711-.487 0l-3.4881 1.6099c-.406.1874-.8643-.1364-.8065-.5697l.4969-3.723c.0219-.1644-.0333-.3298-.1505-.4503l-2.6526-2.728c-.3087-.3175-.1337-.8414.3081-.9218l3.7951-.691c.1677-.0305.3123-.1327.394-.2783z"
        />
        <path
            d="m89.5016 41.7877c.2151-.3836.7817-.3836.9968 0l1.8487 3.2959c.0817.1456.2263.2478.394.2783l3.7951.691c.4418.0804.6168.6043.3081.9218l-2.6526 2.728c-.1172.1205-.1724.2859-.1505.4503l.4969 3.723c.0578.4333-.4005.7571-.8065.5697l-3.4881-1.6099c-.1541-.0711-.3329-.0711-.487 0l-3.4881 1.6099c-.406.1874-.8643-.1364-.8065-.5697l.4969-3.723c.0219-.1644-.0333-.3298-.1505-.4503l-2.6526-2.728c-.3087-.3175-.1337-.8414.3081-.9218l3.7951-.691c.1677-.0305.3123-.1327.394-.2783z"
        />
        <path
            clip-rule="evenodd"
            d="m108 42.9432-1.475 2.6296c-.231.4117-.633.6903-1.087.7729l-2.973.5413 2.06 2.1186c.328.3369.488.8067.425 1.2797l-.39 2.9246 2.777-1.2821c.42-.1938.906-.1938 1.326 0l2.777 1.2821-.39-2.9246c-.063-.473.097-.9428.425-1.2797l2.06-2.1186-2.973-.5413c-.454-.0826-.856-.3612-1.087-.7729zm.498-1.1555c-.215-.3836-.781-.3836-.996 0l-1.849 3.2959c-.082.1456-.226.2478-.394.2783l-3.795.691c-.442.0804-.617.6043-.308.9218l2.652 2.728c.117.1205.173.2859.151.4503l-.497 3.723c-.058.4333.4.7571.806.5697l3.489-1.6099c.154-.0711.332-.0711.486 0l3.489 1.6099c.406.1874.864-.1364.806-.5697l-.497-3.723c-.022-.1644.034-.3298.151-.4503l2.652-2.728c.309-.3175.134-.8414-.308-.9218l-3.795-.691c-.168-.0305-.312-.1327-.394-.2783z"
            fill-rule="evenodd"
        />
    </g>
    <path
        d="m45.6989 72.2102v-.8693l3.8352-6.0682h1.2784v6h1.1932v.9375h-1.1932v1.7898h-1.0057v-1.7898zm4.1079-.9375v-4.6534h-.0682l-2.8977 4.5852v.0682z"
        fill="#5c5958"
    />
    <path
        d="m57.0057 64.8636-2.8125 10.4489h-.9205l2.8125-10.4489zm3.9023 9.2557c-1.5 0-2.6463-.9716-2.7102-2.3011h1.0227c.081.7883.7926 1.3636 1.6875 1.3636 1.0739 0 1.858-.8224 1.858-1.9432 0-1.142-.8139-1.9858-1.9262-1.9943-.5369-.0042-1.1548.1833-1.517.4432l-.9886-.1193.5284-4.2955h4.5341v.9375h-3.6478l-.3068 2.5739h.0512c.3579-.2855.9289-.4943 1.517-.4943 1.6023 0 2.7784 1.24 2.7784 2.9318 0 1.6704-1.2187 2.8977-2.8807 2.8977zm14.0679-6.1193c-.3708-1.1463-1.2273-1.858-2.4887-1.858-1.5511 0-2.7954 1.2273-2.7954 3.4944 0 2.267 1.2443 3.4943 2.8636 3.4943 1.4787 0 2.5099-.9887 2.5398-2.5568h-2.3012v-.9375h3.3239v.9375c0 2.1605-1.483 3.5454-3.5625 3.5454-2.3182 0-3.8864-1.7216-3.8864-4.4829 0-2.7614 1.581-4.483 3.8182-4.483 1.8409 0 3.2557 1.1591 3.5796 2.8466zm5.4747 6.1364c-1.7727 0-2.9659-1.3466-2.9659-3.375 0-2.0455 1.1932-3.3921 2.9659-3.3921 1.7728 0 2.9659 1.3466 2.9659 3.3921 0 2.0284-1.1931 3.375-2.9659 3.375zm0-.9034c1.3466 0 1.9603-1.1591 1.9603-2.4716s-.6137-2.4887-1.9603-2.4887-1.9602 1.1762-1.9602 2.4887.6136 2.4716 1.9602 2.4716zm7.1602.9034c-1.7727 0-2.9659-1.3466-2.9659-3.375 0-2.0455 1.1932-3.3921 2.9659-3.3921s2.9659 1.3466 2.9659 3.3921c0 2.0284-1.1932 3.375-2.9659 3.375zm0-.9034c1.3466 0 1.9602-1.1591 1.9602-2.4716s-.6136-2.4887-1.9602-2.4887-1.9602 1.1762-1.9602 2.4887.6136 2.4716 1.9602 2.4716zm6.9727.9034c-1.6364 0-2.7785-1.3125-2.7785-3.3921 0-2.0625 1.1421-3.375 2.7955-3.375 1.2784 0 1.6705.7841 1.892 1.125h.0853v-3.2216h1.0057v8.7273h-.9716v-1.0057h-.1194c-.2215.358-.6477 1.1421-1.909 1.1421zm.1363-.9034c1.2102 0 1.875-1.0228 1.875-2.5057 0-1.4659-.6477-2.4546-1.875-2.4546-1.2784 0-1.9091 1.0739-1.9091 2.4546 0 1.3977.6478 2.5057 1.9091 2.5057z"
        fill="#5c5958"
    />
</svg>
