<svg width="392" height="220" viewBox="0 0 392 220" fill="none" xmlns="http://www.w3.org/2000/svg">
    <g clip-path="url(#clip0_2222_120084)">
        <rect width="392" height="220" rx="24" fill="#1B1340" />
        <rect width="392" height="220" rx="24" fill="url(#paint0_radial_2222_120084)" />
        <path
            opacity="0.4"
            d="M285.5 110C285.5 60.5705 245.43 20.5 196 20.5C146.571 20.5 106.5 60.5705 106.5 110C106.5 159.429 146.571 199.5 196 199.5C245.43 199.5 285.5 159.429 285.5 110Z"
            stroke="url(#paint1_linear_2222_120084)"
        />
        <path
            opacity="0.2"
            d="M322.5 110C322.5 40.136 265.864 -16.5 196 -16.5C126.136 -16.5 69.5 40.136 69.5 110C69.5 179.864 126.136 236.5 196 236.5C265.864 236.5 322.5 179.864 322.5 110Z"
            stroke="url(#paint2_linear_2222_120084)"
        />
        <path
            opacity="0.6"
            d="M251.5 110C251.5 79.3483 226.652 54.5001 196 54.5001C165.348 54.5001 140.5 79.3483 140.5 110C140.5 140.652 165.348 165.5 196 165.5C226.652 165.5 251.5 140.652 251.5 110Z"
            stroke="url(#paint3_linear_2222_120084)"
        />
        <path
            opacity="0.8"
            d="M223.5 110C223.5 94.8122 211.188 82.5 196 82.5C180.812 82.5 168.5 94.8122 168.5 110C168.5 125.188 180.812 137.5 196 137.5C211.188 137.5 223.5 125.188 223.5 110Z"
            stroke="url(#paint4_linear_2222_120084)"
        />
        <path
            d="M208.905 107.381H207.048V102.429C207.048 101.054 205.933 99.9524 204.571 99.9524H199.619V98.0952C199.619 97.2743 199.293 96.487 198.712 95.9066C198.132 95.3261 197.345 95 196.524 95C195.703 95 194.916 95.3261 194.335 95.9066C193.755 96.487 193.429 97.2743 193.429 98.0952V99.9524H188.476C187.819 99.9524 187.19 100.213 186.725 100.678C186.261 101.142 186 101.772 186 102.429V107.133H187.857C189.714 107.133 191.2 108.619 191.2 110.476C191.2 112.333 189.714 113.819 187.857 113.819H186V118.524C186 119.181 186.261 119.81 186.725 120.275C187.19 120.739 187.819 121 188.476 121H193.181V119.143C193.181 117.286 194.667 115.8 196.524 115.8C198.381 115.8 199.867 117.286 199.867 119.143V121H204.571C205.228 121 205.858 120.739 206.322 120.275C206.787 119.81 207.048 119.181 207.048 118.524V113.571H208.905C209.726 113.571 210.513 113.245 211.093 112.665C211.674 112.084 212 111.297 212 110.476C212 109.655 211.674 108.868 211.093 108.288C210.513 107.707 209.726 107.381 208.905 107.381V107.381Z"
            stroke="white"
        />
        <g clip-path="url(#clip1_2222_120084)">
            <path
                d="M52 78.5742V136.185C52 138.894 54.1973 141.097 56.9114 141.097H119.089C121.798 141.097 124 138.899 124 136.185L123.995 78.5742H52ZM79.8179 85.4514H96.1775C97.9868 85.4514 99.4505 86.9151 99.4505 88.7245C99.4505 90.5291 97.9868 91.9975 96.1775 91.9975H79.8179C78.0086 91.9975 76.5449 90.5338 76.5449 88.7245C76.5449 86.9151 78.0086 85.4514 79.8179 85.4514Z"
                fill="#F1F3F4"
            />
            <path
                d="M52 78.5742V136.185C52 138.894 54.1973 141.097 56.9114 141.097H119.089C121.798 141.097 124 138.899 124 136.185L123.995 78.5742H52ZM79.8179 85.4514H96.1775C97.9868 85.4514 99.4505 86.9151 99.4505 88.7245C99.4505 90.5291 97.9868 91.9975 96.1775 91.9975H79.8179C78.0086 91.9975 76.5449 90.5338 76.5449 88.7245C76.5449 86.9151 78.0086 85.4514 79.8179 85.4514Z"
                fill="#F1F3F4"
            />
            <path
                d="M52 78.5742V110.001H123.995V78.5742H52ZM79.8179 85.4514H96.1775C97.9868 85.4514 99.4505 86.9151 99.4505 88.7245C99.4505 90.5291 97.9868 91.9975 96.1775 91.9975H79.8179C78.0085 91.9975 76.5449 90.5338 76.5449 88.7245C76.5449 86.9151 78.0085 85.4514 79.8179 85.4514Z"
                fill="#E8EAED"
            />
            <path
                d="M87.9976 105.094C76.4925 105.094 66.4512 111.342 61.0752 120.635L65.3621 133.712L71.9785 141.097H76.1914L87.9976 120.64L114.92 120.635C109.544 111.342 99.5027 105.094 87.9976 105.094Z"
                fill="url(#paint5_linear_2222_120084)"
            />
            <path
                d="M61.0755 120.635C57.5391 126.776 56.1677 134.017 57.2983 141.096H72.8854L61.0755 120.635Z"
                fill="url(#paint6_linear_2222_120084)"
            />
            <path
                d="M87.998 120.64L99.8079 141.096H118.698C119.828 134.019 118.457 126.78 114.92 120.64H87.998Z"
                fill="url(#paint7_linear_2222_120084)"
            />
            <path
                d="M87.9979 120.64C79.415 120.64 72.457 127.6 72.457 136.185C72.457 137.902 72.7405 139.552 73.2545 141.096H102.741C103.255 139.552 103.539 137.902 103.539 136.185C103.539 127.6 96.5807 120.64 87.9979 120.64Z"
                fill="#F1F3F4"
            />
            <path
                d="M87.9978 123.553C86.3395 123.553 84.6975 123.88 83.1654 124.514C81.6334 125.149 80.2413 126.08 79.0687 127.253C77.8961 128.426 76.966 129.818 76.3314 131.351C75.6968 132.884 75.3701 134.526 75.3701 136.185C75.3775 137.874 75.7232 139.544 76.3868 141.097H99.6088C100.272 139.544 100.618 137.874 100.625 136.185C100.625 134.526 100.299 132.884 99.6643 131.351C99.0296 129.818 98.0995 128.426 96.9269 127.253C95.7543 126.08 94.3623 125.149 92.8302 124.514C91.2981 123.88 89.6561 123.553 87.9978 123.553Z"
                fill="#1A73E8"
            />
            <path opacity="0.1" d="M123.995 110.001H52V110.408H123.995V110.001Z" fill="#BDC1C6" />
            <path opacity="0.1" d="M123.995 109.589H52V109.996H123.995V109.589Z" fill="#BDC1C6" />
        </g>
        <path
            d="M268 94C268 82.9543 276.954 74 288 74H320C331.046 74 340 82.9543 340 94V126C340 137.046 331.046 146 320 146H288C276.954 146 268 137.046 268 126V94Z"
            fill="white"
        />
        <path
            d="M295.32 93.7244C298.358 90.6861 299.877 89.1669 301.629 88.5977C303.17 88.097 304.83 88.097 306.371 88.5977C308.123 89.1669 309.642 90.6861 312.68 93.7244L320.276 101.32C323.314 104.358 324.833 105.877 325.402 107.629C325.903 109.17 325.903 110.83 325.402 112.371C324.833 114.123 323.314 115.642 320.276 118.68L312.68 126.275C309.642 129.314 308.123 130.833 306.371 131.402C304.83 131.903 303.17 131.903 301.629 131.402C299.877 130.833 298.358 129.314 295.32 126.275L293.892 124.675C293.028 123.706 292.596 123.221 292.288 122.67C292.014 122.182 291.814 121.656 291.693 121.109C291.556 120.493 291.556 119.844 291.556 118.546L291.556 101.454C291.556 100.156 291.556 99.5066 291.692 98.8905C291.814 98.3439 292.014 97.8181 292.288 97.3295C292.596 96.7785 293.028 96.2941 293.892 95.3254L295.32 93.7244Z"
            fill="url(#paint8_radial_2222_120084)"
        />
        <path
            d="M295.32 93.7244C298.358 90.6861 299.877 89.1669 301.629 88.5977C303.17 88.097 304.83 88.097 306.371 88.5977C308.123 89.1669 309.642 90.6861 312.68 93.7244L320.276 101.32C323.314 104.358 324.833 105.877 325.402 107.629C325.903 109.17 325.903 110.83 325.402 112.371C324.833 114.123 323.314 115.642 320.276 118.68L312.68 126.275C309.642 129.314 308.123 130.833 306.371 131.402C304.83 131.903 303.17 131.903 301.629 131.402C299.877 130.833 298.358 129.314 295.32 126.275L293.892 124.675C293.028 123.706 292.596 123.221 292.288 122.67C292.014 122.182 291.814 121.656 291.693 121.109C291.556 120.493 291.556 119.844 291.556 118.546L291.556 101.454C291.556 100.156 291.556 99.5066 291.692 98.8905C291.814 98.3439 292.014 97.8181 292.288 97.3295C292.596 96.7785 293.028 96.2941 293.892 95.3254L295.32 93.7244Z"
            fill="url(#paint9_linear_2222_120084)"
        />
        <path
            d="M294.778 94.2665C296.297 92.7473 297.056 91.9877 297.932 91.7031C298.703 91.4528 299.533 91.4528 300.303 91.7031C301.179 91.9877 301.939 92.7473 303.458 94.2665L314.851 105.659C316.37 107.179 317.13 107.938 317.414 108.814C317.664 109.585 317.664 110.414 317.414 111.185C317.13 112.061 316.37 112.82 314.851 114.34L303.458 125.732C301.939 127.252 301.179 128.011 300.303 128.296C299.533 128.546 298.703 128.546 297.932 128.296C297.056 128.011 296.297 127.252 294.778 125.732L287.725 118.68C284.687 115.641 283.167 114.122 282.598 112.37C282.097 110.829 282.097 109.17 282.598 107.629C283.167 105.877 284.687 104.358 287.725 101.319L294.778 94.2665Z"
            fill="url(#paint10_radial_2222_120084)"
        />
    </g>
    <defs>
        <radialGradient
            id="paint0_radial_2222_120084"
            cx="0"
            cy="0"
            r="1"
            gradientUnits="userSpaceOnUse"
            gradientTransform="translate(415.5 282) rotate(-108.982) scale(298.216 363.047)"
        >
            <stop stop-color="#FFD580" />
            <stop offset="0.0625" stop-color="#F6CC88" />
            <stop offset="0.182292" stop-color="#E4BB98" />
            <stop offset="0.291667" stop-color="#D2AAA8" />
            <stop offset="0.34375" stop-color="#C9A2AB" />
            <stop offset="0.453125" stop-color="#BB95B1" />
            <stop offset="0.583333" stop-color="#9A75A3" />
            <stop offset="0.723958" stop-color="#724C91" />
            <stop offset="0.895833" stop-color="#312255" />
            <stop offset="1" stop-color="#1B1340" />
        </radialGradient>
        <linearGradient
            id="paint1_linear_2222_120084"
            x1="242.879"
            y1="40.0326"
            x2="106"
            y2="217.591"
            gradientUnits="userSpaceOnUse"
        >
            <stop stop-color="white" />
            <stop offset="1" stop-color="white" stop-opacity="0" />
        </linearGradient>
        <linearGradient
            id="paint2_linear_2222_120084"
            x1="262.152"
            y1="11.2683"
            x2="69"
            y2="261.823"
            gradientUnits="userSpaceOnUse"
        >
            <stop stop-color="white" />
            <stop offset="1" stop-color="white" stop-opacity="0" />
        </linearGradient>
        <linearGradient
            id="paint3_linear_2222_120084"
            x1="225.169"
            y1="66.4649"
            x2="140"
            y2="176.946"
            gradientUnits="userSpaceOnUse"
        >
            <stop stop-color="white" />
            <stop offset="1" stop-color="white" stop-opacity="0" />
        </linearGradient>
        <linearGradient
            id="paint4_linear_2222_120084"
            x1="220.08"
            y1="89.1835"
            x2="163.391"
            y2="138.096"
            gradientUnits="userSpaceOnUse"
        >
            <stop stop-color="white" />
            <stop offset="1" stop-color="white" stop-opacity="0" />
        </linearGradient>
        <linearGradient
            id="paint5_linear_2222_120084"
            x1="61.0751"
            y1="124.526"
            x2="114.92"
            y2="124.526"
            gradientUnits="userSpaceOnUse"
        >
            <stop stop-color="#D93025" />
            <stop offset="1" stop-color="#EA4335" />
        </linearGradient>
        <linearGradient
            id="paint6_linear_2222_120084"
            x1="91.3651"
            y1="165.333"
            x2="64.437"
            y2="118.694"
            gradientUnits="userSpaceOnUse"
        >
            <stop stop-color="#1E8E3E" />
            <stop offset="1" stop-color="#34A853" />
        </linearGradient>
        <linearGradient
            id="paint7_linear_2222_120084"
            x1="110.468"
            y1="120.577"
            x2="83.5412"
            y2="167.215"
            gradientUnits="userSpaceOnUse"
        >
            <stop stop-color="#FBBC04" />
            <stop offset="1" stop-color="#FCC934" />
        </linearGradient>
        <radialGradient
            id="paint8_radial_2222_120084"
            cx="0"
            cy="0"
            r="1"
            gradientUnits="userSpaceOnUse"
            gradientTransform="translate(295.367 132.627) rotate(-58.142) scale(36.3582 56.8568)"
        >
            <stop stop-color="#FFD580" />
            <stop offset="0.09375" stop-color="#F6C592" />
            <stop offset="0.205" stop-color="#EBB6A2" />
            <stop offset="0.324466" stop-color="#DFA5AF" />
            <stop offset="0.42875" stop-color="#D397BE" />
            <stop offset="0.53375" stop-color="#C486CB" />
            <stop offset="0.64875" stop-color="#B578D9" />
            <stop offset="0.77125" stop-color="#A166E5" />
            <stop offset="0.89125" stop-color="#8B57F2" />
            <stop offset="1" stop-color="#704CFF" />
        </radialGradient>
        <linearGradient
            id="paint9_linear_2222_120084"
            x1="293.867"
            y1="79.5737"
            x2="302.337"
            y2="131.278"
            gradientUnits="userSpaceOnUse"
        >
            <stop stop-color="#6D4AFF" />
            <stop offset="0.392009" stop-color="#B39FFB" stop-opacity="0.978022" />
            <stop offset="1" stop-color="#FFE8DB" stop-opacity="0.8" />
        </linearGradient>
        <radialGradient
            id="paint10_radial_2222_120084"
            cx="0"
            cy="0"
            r="1"
            gradientUnits="userSpaceOnUse"
            gradientTransform="translate(292.174 128.199) rotate(-58.142) scale(29.2447 45.7327)"
        >
            <stop stop-color="#FFD580" />
            <stop offset="0.09375" stop-color="#F6C592" />
            <stop offset="0.205" stop-color="#EBB6A2" />
            <stop offset="0.324466" stop-color="#DFA5AF" />
            <stop offset="0.42875" stop-color="#D397BE" />
            <stop offset="0.53375" stop-color="#C486CB" />
            <stop offset="0.64875" stop-color="#B578D9" />
            <stop offset="0.77125" stop-color="#A166E5" />
            <stop offset="0.89125" stop-color="#8B57F2" />
            <stop offset="1" stop-color="#704CFF" />
        </radialGradient>
        <clipPath id="clip0_2222_120084">
            <rect width="392" height="220" rx="24" fill="white" />
        </clipPath>
        <clipPath id="clip1_2222_120084">
            <rect width="72" height="62.5223" fill="white" transform="translate(52 78.5742)" />
        </clipPath>
    </defs>
</svg>
