<svg width="392" height="220" viewBox="0 0 392 220" fill="none" xmlns="http://www.w3.org/2000/svg">
    <g clip-path="url(#clip0_2222_120085)">
        <rect width="392" height="220" rx="24" fill="#1B1340" />
        <rect width="392" height="220" rx="24" fill="url(#paint0_radial_2222_120085)" />
        <path
            opacity="0.4"
            d="M285.5 110C285.5 60.5705 245.43 20.5 196 20.5C146.571 20.5 106.5 60.5705 106.5 110C106.5 159.429 146.571 199.5 196 199.5C245.43 199.5 285.5 159.429 285.5 110Z"
            stroke="url(#paint1_linear_2222_120085)"
        />
        <path
            opacity="0.2"
            d="M322.5 110C322.5 40.136 265.864 -16.5 196 -16.5C126.136 -16.5 69.5 40.136 69.5 110C69.5 179.864 126.136 236.5 196 236.5C265.864 236.5 322.5 179.864 322.5 110Z"
            stroke="url(#paint2_linear_2222_120085)"
        />
        <path
            opacity="0.6"
            d="M251.5 110C251.5 79.3482 226.652 54.5 196 54.5C165.348 54.5 140.5 79.3482 140.5 110C140.5 140.652 165.348 165.5 196 165.5C226.652 165.5 251.5 140.652 251.5 110Z"
            stroke="url(#paint3_linear_2222_120085)"
        />
        <path
            opacity="0.8"
            d="M223.5 110C223.5 94.8122 211.188 82.5 196 82.5C180.812 82.5 168.5 94.8122 168.5 110C168.5 125.188 180.812 137.5 196 137.5C211.188 137.5 223.5 125.188 223.5 110Z"
            stroke="url(#paint4_linear_2222_120085)"
        />
        <path
            d="M208.905 107.381H207.048V102.429C207.048 101.054 205.933 99.9524 204.571 99.9524H199.619V98.0952C199.619 97.2743 199.293 96.487 198.712 95.9066C198.132 95.3261 197.345 95 196.524 95C195.703 95 194.916 95.3261 194.335 95.9066C193.755 96.487 193.429 97.2743 193.429 98.0952V99.9524H188.476C187.819 99.9524 187.19 100.213 186.725 100.678C186.261 101.142 186 101.772 186 102.429V107.133H187.857C189.714 107.133 191.2 108.619 191.2 110.476C191.2 112.333 189.714 113.819 187.857 113.819H186V118.524C186 119.181 186.261 119.81 186.725 120.275C187.19 120.739 187.819 121 188.476 121H193.181V119.143C193.181 117.286 194.667 115.8 196.524 115.8C198.381 115.8 199.867 117.286 199.867 119.143V121H204.571C205.228 121 205.858 120.739 206.322 120.275C206.787 119.81 207.048 119.181 207.048 118.524V113.571H208.905C209.726 113.571 210.513 113.245 211.093 112.665C211.674 112.084 212 111.297 212 110.476C212 109.655 211.674 108.868 211.093 108.288C210.513 107.707 209.726 107.381 208.905 107.381V107.381Z"
            stroke="white"
        />
        <g clip-path="url(#clip1_2222_120085)">
            <path
                d="M125.973 97.0668C124.319 93.0878 120.965 88.7916 118.338 87.4335C120.211 91.0608 121.511 94.9564 122.192 98.9816L122.199 99.0455C117.896 88.3222 110.602 83.9916 104.641 74.5744C104.34 74.0982 104.038 73.6209 103.745 73.1171C103.577 72.8294 103.442 72.5702 103.325 72.3316C103.078 71.8529 102.888 71.347 102.758 70.8242C102.758 70.8001 102.749 70.7767 102.733 70.7586C102.717 70.7405 102.695 70.7289 102.671 70.726C102.648 70.7196 102.623 70.7196 102.6 70.726C102.595 70.726 102.587 70.7349 102.581 70.7368C102.575 70.7388 102.562 70.7476 102.554 70.7515L102.568 70.726C93.0087 76.3233 89.7632 86.6833 89.4686 91.8681C85.6496 92.13 81.9982 93.5368 78.9909 95.9051C78.6772 95.6394 78.3494 95.3909 78.0089 95.1607C77.1418 92.1253 77.1048 88.9129 77.9018 85.8584C74.3911 87.559 71.2716 89.9699 68.7409 92.9385H68.7232C67.2149 91.0266 67.321 84.7222 67.4074 83.4054C66.9612 83.5847 66.5352 83.8109 66.1367 84.08C64.8051 85.0303 63.5604 86.0967 62.4169 87.2666C61.1139 88.5876 59.9238 90.0155 58.8592 91.5352V91.5411V91.5343C56.4126 95.0023 54.6771 98.9205 53.7529 103.063L53.7018 103.314C53.6301 103.649 53.3719 105.326 53.3277 105.691C53.3277 105.719 53.3218 105.746 53.3188 105.774C52.9857 107.506 52.7793 109.259 52.7012 111.021V111.217C52.718 120.741 56.3046 129.912 62.7531 136.921C69.2016 143.93 78.0432 148.266 87.5327 149.074C97.0222 149.883 106.47 147.104 114.011 141.287C121.552 135.47 126.638 127.037 128.265 117.653C128.329 117.162 128.381 116.676 128.438 116.18C129.222 109.701 128.373 103.128 125.969 97.0609L125.973 97.0668ZM82.1077 126.86C82.2854 126.946 82.4524 127.038 82.635 127.119L82.6615 127.136C82.4769 127.048 82.2923 126.956 82.1077 126.86ZM122.2 99.0563V99.0199L122.207 99.0602L122.2 99.0563Z"
                fill="url(#paint5_linear_2222_120085)"
            />
            <path
                d="M125.973 97.0666C124.319 93.0876 120.965 88.7914 118.338 87.4333C120.211 91.0607 121.511 94.9562 122.192 98.9815V99.0178L122.199 99.0581C125.133 107.453 124.709 116.657 121.015 124.747C116.653 134.106 106.098 143.699 89.5717 143.228C71.7192 142.722 55.9878 129.47 53.0517 112.118C52.5165 109.382 53.0517 107.994 53.3208 105.77C52.9537 107.498 52.7489 109.256 52.709 111.022V111.218C52.7258 120.742 56.3125 129.913 62.7609 136.922C69.2094 143.93 78.0511 148.267 87.5405 149.075C97.03 149.883 106.478 147.105 114.019 141.288C121.559 135.47 126.645 127.038 128.273 117.654C128.337 117.163 128.389 116.677 128.446 116.181C129.229 109.702 128.381 103.129 125.977 97.0617L125.973 97.0666Z"
                fill="url(#paint6_radial_2222_120085)"
            />
            <path
                d="M125.973 97.0666C124.319 93.0876 120.965 88.7914 118.338 87.4333C120.211 91.0607 121.511 94.9562 122.192 98.9815V99.0178L122.199 99.0581C125.133 107.453 124.709 116.657 121.015 124.747C116.653 134.106 106.098 143.699 89.5717 143.228C71.7192 142.722 55.9878 129.47 53.0517 112.118C52.5165 109.382 53.0517 107.994 53.3208 105.77C52.9537 107.498 52.7489 109.256 52.709 111.022V111.218C52.7258 120.742 56.3125 129.913 62.7609 136.922C69.2094 143.93 78.0511 148.267 87.5405 149.075C97.03 149.883 106.478 147.105 114.019 141.288C121.559 135.47 126.645 127.038 128.273 117.654C128.337 117.163 128.389 116.677 128.446 116.181C129.229 109.702 128.381 103.129 125.977 97.0617L125.973 97.0666Z"
                fill="url(#paint7_radial_2222_120085)"
            />
            <path
                d="M107.472 101.535C107.555 101.593 107.632 101.651 107.709 101.708C106.753 100.013 105.563 98.4612 104.174 97.098C92.3411 85.2651 101.074 71.4486 102.546 70.7416L102.561 70.72C93.001 76.3173 89.7555 86.6772 89.4609 91.8621C89.9048 91.8317 90.3447 91.7943 90.7984 91.7943C94.19 91.8009 97.5194 92.7054 100.448 94.4159C103.377 96.1264 105.8 98.5818 107.472 101.533V101.535Z"
                fill="url(#paint8_radial_2222_120085)"
            />
            <path
                d="M90.8174 103.901C90.7545 104.848 87.4099 108.113 86.2404 108.113C75.4189 108.113 73.6611 114.66 73.6611 114.66C74.1403 120.173 77.9819 124.715 82.6257 127.112C82.8378 127.221 83.0528 127.321 83.2679 127.418C83.6404 127.583 84.0129 127.735 84.3854 127.875C85.9791 128.439 87.6484 128.762 89.3375 128.831C108.309 129.721 111.982 106.147 98.2922 99.3027C101.522 98.8825 104.792 99.6765 107.469 101.531C105.797 98.58 103.373 96.1245 100.445 94.414C97.5158 92.7035 94.1864 91.799 90.7948 91.7925C90.3431 91.7925 89.9012 91.8298 89.4573 91.8602C85.6384 92.1221 81.987 93.5289 78.9796 95.8972C79.5599 96.3882 80.2149 97.0441 81.5946 98.4042C84.1772 100.949 90.8007 103.584 90.8154 103.893L90.8174 103.901Z"
                fill="url(#paint9_radial_2222_120085)"
            />
            <path
                d="M90.8174 103.901C90.7545 104.848 87.4099 108.113 86.2404 108.113C75.4189 108.113 73.6611 114.66 73.6611 114.66C74.1403 120.173 77.9819 124.715 82.6257 127.112C82.8378 127.221 83.0528 127.321 83.2679 127.418C83.6404 127.583 84.0129 127.735 84.3854 127.875C85.9791 128.439 87.6484 128.762 89.3375 128.831C108.309 129.721 111.982 106.147 98.2922 99.3027C101.522 98.8825 104.792 99.6765 107.469 101.531C105.797 98.58 103.373 96.1245 100.445 94.414C97.5158 92.7035 94.1864 91.799 90.7948 91.7925C90.3431 91.7925 89.9012 91.8298 89.4573 91.8602C85.6384 92.1221 81.987 93.5289 78.9796 95.8972C79.5599 96.3882 80.2149 97.0441 81.5946 98.4042C84.1772 100.949 90.8007 103.584 90.8154 103.893L90.8174 103.901Z"
                fill="url(#paint10_radial_2222_120085)"
            />
            <path
                d="M77.208 94.641C77.5163 94.8374 77.7706 95.0083 77.9936 95.1624C77.1265 92.1271 77.0895 88.9146 77.8865 85.8601C74.3758 87.5607 71.2563 89.9716 68.7256 92.9402C68.9112 92.9353 74.4319 92.8361 77.208 94.641Z"
                fill="url(#paint11_radial_2222_120085)"
            />
            <path
                d="M53.045 112.12C55.9821 129.472 71.7125 142.729 89.565 143.23C106.092 143.697 116.648 134.103 121.008 124.749C124.702 116.659 125.126 107.455 122.192 99.06V99.0237C122.192 98.9952 122.187 98.9785 122.192 98.9873L122.199 99.0511C123.55 107.866 119.066 116.403 112.055 122.187L112.034 122.236C98.3744 133.362 85.3042 128.947 82.6626 127.146C82.478 127.057 82.2934 126.965 82.1088 126.87C74.1459 123.064 70.8553 115.813 71.5623 109.587C69.6721 109.615 67.8143 109.094 66.2142 108.087C64.614 107.081 63.34 105.632 62.5467 103.916C64.6371 102.635 67.0207 101.911 69.4702 101.813C71.9197 101.715 74.3536 102.245 76.54 103.354C81.0466 105.4 86.1746 105.601 90.8279 103.916C90.8131 103.607 84.1896 100.97 81.607 98.4266C80.2273 97.0666 79.5723 96.4116 78.992 95.9196C78.6783 95.6539 78.3505 95.4055 78.01 95.1753C77.7842 95.0211 77.5298 94.8541 77.2244 94.6538C74.4483 92.8489 68.9276 92.9481 68.745 92.953H68.7273C67.219 91.0411 67.325 84.7368 67.4115 83.4199C66.9652 83.5993 66.5393 83.8254 66.1408 84.0945C64.8092 85.0449 63.5644 86.1112 62.421 87.2811C61.1133 88.5984 59.9183 90.023 58.8485 91.54C56.402 95.0079 54.6665 98.9252 53.7422 103.067C53.7236 103.145 52.3714 109.057 53.0381 112.122L53.045 112.12Z"
                fill="url(#paint12_radial_2222_120085)"
            />
            <path
                d="M104.173 97.0961C105.563 98.4607 106.753 100.014 107.708 101.711C107.918 101.87 108.113 102.027 108.279 102.179C116.908 110.133 112.387 121.377 112.05 122.172C119.059 116.397 123.539 107.855 122.194 99.0365C117.889 88.3034 110.587 83.9728 104.636 74.5556C104.334 74.0794 104.033 73.6021 103.739 73.0984C103.571 72.8106 103.437 72.5514 103.32 72.3128C103.073 71.8341 102.882 71.3282 102.752 70.8054C102.752 70.7813 102.744 70.7579 102.728 70.7398C102.712 70.7217 102.69 70.7101 102.666 70.7072C102.642 70.7008 102.618 70.7008 102.594 70.7072C102.589 70.7072 102.581 70.7161 102.576 70.718C102.57 70.72 102.557 70.7288 102.548 70.7328C101.076 71.4309 92.3452 85.2563 104.178 97.0794L104.173 97.0961Z"
                fill="url(#paint13_radial_2222_120085)"
            />
            <path
                d="M108.277 102.183C108.111 102.031 107.916 101.874 107.707 101.715C107.629 101.657 107.553 101.6 107.47 101.542C104.793 99.6873 101.523 98.8933 98.2935 99.3135C111.982 106.158 108.31 129.726 89.3388 128.842C87.6497 128.772 85.9804 128.45 84.3867 127.886C84.0142 127.747 83.6417 127.594 83.2692 127.429C83.0541 127.33 82.8391 127.232 82.627 127.122L82.6535 127.139C85.2989 128.945 98.3652 133.357 112.025 122.229L112.046 122.18C112.387 121.385 116.908 110.141 108.275 102.187L108.277 102.183Z"
                fill="url(#paint14_radial_2222_120085)"
            />
            <path
                d="M73.663 114.654C73.663 114.654 75.4198 108.107 86.2422 108.107C87.4117 108.107 90.7593 104.842 90.8192 103.895C86.166 105.581 81.038 105.379 76.5314 103.334C74.345 102.225 71.9111 101.694 69.4616 101.793C67.0121 101.891 64.6285 102.615 62.5381 103.895C63.3314 105.611 64.6054 107.06 66.2055 108.067C67.8057 109.073 69.6635 109.594 71.5537 109.566C70.8486 115.789 74.1383 123.039 82.1002 126.849C82.2779 126.935 82.4449 127.027 82.6275 127.109C77.9798 124.708 74.1422 120.167 73.663 114.657V114.654Z"
                fill="url(#paint15_radial_2222_120085)"
            />
            <path
                d="M125.973 97.0668C124.319 93.0878 120.965 88.7916 118.338 87.4335C120.211 91.0608 121.511 94.9564 122.192 98.9816L122.199 99.0455C117.896 88.3222 110.602 83.9916 104.641 74.5744C104.34 74.0982 104.038 73.6209 103.745 73.1171C103.577 72.8294 103.442 72.5702 103.325 72.3316C103.078 71.8529 102.888 71.347 102.758 70.8242C102.758 70.8001 102.749 70.7767 102.733 70.7586C102.717 70.7405 102.695 70.7289 102.671 70.726C102.648 70.7196 102.623 70.7196 102.6 70.726C102.595 70.726 102.587 70.7349 102.581 70.7368C102.575 70.7388 102.562 70.7476 102.554 70.7515L102.568 70.726C93.0087 76.3233 89.7632 86.6833 89.4686 91.8681C89.9125 91.8377 90.3524 91.8004 90.8061 91.8004C94.1977 91.8069 97.5271 92.7114 100.456 94.4219C103.385 96.1324 105.808 98.5879 107.48 101.539C104.803 99.6845 101.533 98.8904 98.3035 99.3106C111.992 106.155 108.32 129.723 89.3488 128.839C87.6597 128.769 85.9904 128.447 84.3967 127.883C84.0242 127.744 83.6517 127.591 83.2792 127.426C83.0641 127.328 82.8491 127.229 82.637 127.119L82.6635 127.136C82.4789 127.048 82.2942 126.956 82.1096 126.86C82.2874 126.946 82.4543 127.038 82.637 127.119C77.9892 124.717 74.1516 120.177 73.6724 114.668C73.6724 114.668 75.4292 108.121 86.2516 108.121C87.4212 108.121 90.7688 104.856 90.8287 103.909C90.8139 103.6 84.1905 100.963 81.6078 98.4199C80.2281 97.0599 79.5732 96.4049 78.9928 95.9129C78.6792 95.6473 78.3514 95.3988 78.0108 95.1686C77.1437 92.1332 77.1068 88.9208 77.9038 85.8663C74.3931 87.5669 71.2736 89.9778 68.7429 92.9464H68.7252C67.2169 91.0344 67.3229 84.7301 67.4093 83.4133C66.9631 83.5926 66.5372 83.8187 66.1386 84.0879C64.8071 85.0382 63.5623 86.1045 62.4189 87.2744C61.1159 88.5955 59.9258 90.0234 58.8611 91.5431C56.4146 95.0111 54.6791 98.9283 53.7548 103.071L53.7038 103.322C53.6321 103.657 53.311 105.358 53.2648 105.723C52.9711 107.479 52.7835 109.25 52.7031 111.029V111.225C52.7199 120.749 56.3066 129.92 62.7551 136.929C69.2035 143.938 78.0452 148.274 87.5347 149.082C97.0241 149.89 106.472 147.112 114.013 141.295C121.554 135.478 126.64 127.045 128.267 117.661C128.331 117.17 128.383 116.684 128.44 116.188C129.224 109.709 128.375 103.136 125.971 97.0687L125.973 97.0668Z"
                fill="url(#paint16_linear_2222_120085)"
            />
        </g>
        <path
            d="M268 94C268 82.9543 276.954 74 288 74H320C331.046 74 340 82.9543 340 94V126C340 137.046 331.046 146 320 146H288C276.954 146 268 137.046 268 126V94Z"
            fill="white"
        />
        <path
            d="M295.32 93.7244C298.358 90.6861 299.877 89.1669 301.629 88.5977C303.17 88.097 304.83 88.097 306.371 88.5977C308.123 89.1669 309.642 90.6861 312.68 93.7244L320.276 101.32C323.314 104.358 324.833 105.877 325.402 107.629C325.903 109.17 325.903 110.83 325.402 112.371C324.833 114.123 323.314 115.642 320.276 118.68L312.68 126.275C309.642 129.314 308.123 130.833 306.371 131.402C304.83 131.903 303.17 131.903 301.629 131.402C299.877 130.833 298.358 129.314 295.32 126.275L293.892 124.675C293.028 123.706 292.596 123.221 292.288 122.67C292.014 122.182 291.814 121.656 291.693 121.109C291.556 120.493 291.556 119.844 291.556 118.546L291.556 101.454C291.556 100.156 291.556 99.5066 291.692 98.8905C291.814 98.3439 292.014 97.8181 292.288 97.3295C292.596 96.7785 293.028 96.2941 293.892 95.3254L295.32 93.7244Z"
            fill="url(#paint17_radial_2222_120085)"
        />
        <path
            d="M295.32 93.7244C298.358 90.6861 299.877 89.1669 301.629 88.5977C303.17 88.097 304.83 88.097 306.371 88.5977C308.123 89.1669 309.642 90.6861 312.68 93.7244L320.276 101.32C323.314 104.358 324.833 105.877 325.402 107.629C325.903 109.17 325.903 110.83 325.402 112.371C324.833 114.123 323.314 115.642 320.276 118.68L312.68 126.275C309.642 129.314 308.123 130.833 306.371 131.402C304.83 131.903 303.17 131.903 301.629 131.402C299.877 130.833 298.358 129.314 295.32 126.275L293.892 124.675C293.028 123.706 292.596 123.221 292.288 122.67C292.014 122.182 291.814 121.656 291.693 121.109C291.556 120.493 291.556 119.844 291.556 118.546L291.556 101.454C291.556 100.156 291.556 99.5066 291.692 98.8905C291.814 98.3439 292.014 97.8181 292.288 97.3295C292.596 96.7785 293.028 96.2941 293.892 95.3254L295.32 93.7244Z"
            fill="url(#paint18_linear_2222_120085)"
        />
        <path
            d="M294.778 94.2665C296.297 92.7473 297.056 91.9877 297.932 91.7031C298.703 91.4528 299.533 91.4528 300.303 91.7031C301.179 91.9877 301.939 92.7473 303.458 94.2665L314.851 105.659C316.37 107.179 317.13 107.938 317.414 108.814C317.664 109.585 317.664 110.414 317.414 111.185C317.13 112.061 316.37 112.82 314.851 114.34L303.458 125.732C301.939 127.252 301.179 128.011 300.303 128.296C299.533 128.546 298.703 128.546 297.932 128.296C297.056 128.011 296.297 127.252 294.778 125.732L287.725 118.68C284.687 115.641 283.167 114.122 282.598 112.37C282.097 110.829 282.097 109.17 282.598 107.629C283.167 105.877 284.687 104.358 287.725 101.319L294.778 94.2665Z"
            fill="url(#paint19_radial_2222_120085)"
        />
    </g>
    <defs>
        <radialGradient
            id="paint0_radial_2222_120085"
            cx="0"
            cy="0"
            r="1"
            gradientUnits="userSpaceOnUse"
            gradientTransform="translate(415.5 282) rotate(-108.982) scale(298.216 363.047)"
        >
            <stop stop-color="#FFD580" />
            <stop offset="0.0625" stop-color="#F6CC88" />
            <stop offset="0.182292" stop-color="#E4BB98" />
            <stop offset="0.291667" stop-color="#D2AAA8" />
            <stop offset="0.34375" stop-color="#C9A2AB" />
            <stop offset="0.453125" stop-color="#BB95B1" />
            <stop offset="0.583333" stop-color="#9A75A3" />
            <stop offset="0.723958" stop-color="#724C91" />
            <stop offset="0.895833" stop-color="#312255" />
            <stop offset="1" stop-color="#1B1340" />
        </radialGradient>
        <linearGradient
            id="paint1_linear_2222_120085"
            x1="242.879"
            y1="40.0326"
            x2="106"
            y2="217.591"
            gradientUnits="userSpaceOnUse"
        >
            <stop stop-color="white" />
            <stop offset="1" stop-color="white" stop-opacity="0" />
        </linearGradient>
        <linearGradient
            id="paint2_linear_2222_120085"
            x1="262.152"
            y1="11.2683"
            x2="69"
            y2="261.823"
            gradientUnits="userSpaceOnUse"
        >
            <stop stop-color="white" />
            <stop offset="1" stop-color="white" stop-opacity="0" />
        </linearGradient>
        <linearGradient
            id="paint3_linear_2222_120085"
            x1="225.169"
            y1="66.4648"
            x2="140"
            y2="176.945"
            gradientUnits="userSpaceOnUse"
        >
            <stop stop-color="white" />
            <stop offset="1" stop-color="white" stop-opacity="0" />
        </linearGradient>
        <linearGradient
            id="paint4_linear_2222_120085"
            x1="220.08"
            y1="89.1835"
            x2="163.391"
            y2="138.096"
            gradientUnits="userSpaceOnUse"
        >
            <stop stop-color="white" />
            <stop offset="1" stop-color="white" stop-opacity="0" />
        </linearGradient>
        <linearGradient
            id="paint5_linear_2222_120085"
            x1="120.935"
            y1="82.8829"
            x2="57.7515"
            y2="143.844"
            gradientUnits="userSpaceOnUse"
        >
            <stop offset="0.048" stop-color="#FFF44F" />
            <stop offset="0.111" stop-color="#FFE847" />
            <stop offset="0.225" stop-color="#FFC830" />
            <stop offset="0.368" stop-color="#FF980E" />
            <stop offset="0.401" stop-color="#FF8B16" />
            <stop offset="0.462" stop-color="#FF672A" />
            <stop offset="0.534" stop-color="#FF3647" />
            <stop offset="0.705" stop-color="#E31587" />
        </linearGradient>
        <radialGradient
            id="paint6_radial_2222_120085"
            cx="0"
            cy="0"
            r="1"
            gradientUnits="userSpaceOnUse"
            gradientTransform="translate(118.49 79.5578) scale(79.3443 79.3443)"
        >
            <stop offset="0.129" stop-color="#FFBD4F" />
            <stop offset="0.186" stop-color="#FFAC31" />
            <stop offset="0.247" stop-color="#FF9D17" />
            <stop offset="0.283" stop-color="#FF980E" />
            <stop offset="0.403" stop-color="#FF563B" />
            <stop offset="0.467" stop-color="#FF3750" />
            <stop offset="0.71" stop-color="#F5156C" />
            <stop offset="0.782" stop-color="#EB0878" />
            <stop offset="0.86" stop-color="#E50080" />
        </radialGradient>
        <radialGradient
            id="paint7_radial_2222_120085"
            cx="0"
            cy="0"
            r="1"
            gradientUnits="userSpaceOnUse"
            gradientTransform="translate(89.0306 111.963) scale(79.3443 79.3443)"
        >
            <stop offset="0.3" stop-color="#960E18" />
            <stop offset="0.351" stop-color="#B11927" stop-opacity="0.74" />
            <stop offset="0.435" stop-color="#DB293D" stop-opacity="0.343" />
            <stop offset="0.497" stop-color="#F5334B" stop-opacity="0.094" />
            <stop offset="0.53" stop-color="#FF3750" stop-opacity="0" />
        </radialGradient>
        <radialGradient
            id="paint8_radial_2222_120085"
            cx="0"
            cy="0"
            r="1"
            gradientUnits="userSpaceOnUse"
            gradientTransform="translate(98.8507 61.8821) scale(57.4755 57.4755)"
        >
            <stop offset="0.132" stop-color="#FFF44F" />
            <stop offset="0.252" stop-color="#FFDC3E" />
            <stop offset="0.506" stop-color="#FF9D12" />
            <stop offset="0.526" stop-color="#FF980E" />
        </radialGradient>
        <radialGradient
            id="paint9_radial_2222_120085"
            cx="0"
            cy="0"
            r="1"
            gradientUnits="userSpaceOnUse"
            gradientTransform="translate(80.1923 132.585) scale(37.7769 37.7769)"
        >
            <stop offset="0.353" stop-color="#3A8EE6" />
            <stop offset="0.472" stop-color="#5C79F0" />
            <stop offset="0.669" stop-color="#9059FF" />
            <stop offset="1" stop-color="#C139E6" />
        </radialGradient>
        <radialGradient
            id="paint10_radial_2222_120085"
            cx="0"
            cy="0"
            r="1"
            gradientUnits="userSpaceOnUse"
            gradientTransform="translate(92.8678 105.152) rotate(-13.5916) scale(20.0326 23.4531)"
        >
            <stop offset="0.206" stop-color="#9059FF" stop-opacity="0" />
            <stop offset="0.278" stop-color="#8C4FF3" stop-opacity="0.064" />
            <stop offset="0.747" stop-color="#7716A8" stop-opacity="0.45" />
            <stop offset="0.975" stop-color="#6E008B" stop-opacity="0.6" />
        </radialGradient>
        <radialGradient
            id="paint11_radial_2222_120085"
            cx="0"
            cy="0"
            r="1"
            gradientUnits="userSpaceOnUse"
            gradientTransform="translate(88.0491 76.6118) scale(27.1813 27.1813)"
        >
            <stop stop-color="#FFE226" />
            <stop offset="0.121" stop-color="#FFDB27" />
            <stop offset="0.295" stop-color="#FFC82A" />
            <stop offset="0.502" stop-color="#FFA930" />
            <stop offset="0.732" stop-color="#FF7E37" />
            <stop offset="0.792" stop-color="#FF7139" />
        </radialGradient>
        <radialGradient
            id="paint12_radial_2222_120085"
            cx="0"
            cy="0"
            r="1"
            gradientUnits="userSpaceOnUse"
            gradientTransform="translate(109.652 58.9361) scale(115.972 115.972)"
        >
            <stop offset="0.113" stop-color="#FFF44F" />
            <stop offset="0.456" stop-color="#FF980E" />
            <stop offset="0.622" stop-color="#FF5634" />
            <stop offset="0.716" stop-color="#FF3647" />
            <stop offset="0.904" stop-color="#E31587" />
        </radialGradient>
        <radialGradient
            id="paint13_radial_2222_120085"
            cx="0"
            cy="0"
            r="1"
            gradientUnits="userSpaceOnUse"
            gradientTransform="translate(100.014 65.3662) rotate(83.976) scale(84.9862 55.7757)"
        >
            <stop stop-color="#FFF44F" />
            <stop offset="0.06" stop-color="#FFE847" />
            <stop offset="0.168" stop-color="#FFC830" />
            <stop offset="0.304" stop-color="#FF980E" />
            <stop offset="0.356" stop-color="#FF8B16" />
            <stop offset="0.455" stop-color="#FF672A" />
            <stop offset="0.57" stop-color="#FF3647" />
            <stop offset="0.737" stop-color="#E31587" />
        </radialGradient>
        <radialGradient
            id="paint14_radial_2222_120085"
            cx="0"
            cy="0"
            r="1"
            gradientUnits="userSpaceOnUse"
            gradientTransform="translate(88.0485 86.4318) scale(72.3919 72.3919)"
        >
            <stop offset="0.137" stop-color="#FFF44F" />
            <stop offset="0.48" stop-color="#FF980E" />
            <stop offset="0.592" stop-color="#FF5634" />
            <stop offset="0.655" stop-color="#FF3647" />
            <stop offset="0.904" stop-color="#E31587" />
        </radialGradient>
        <radialGradient
            id="paint15_radial_2222_120085"
            cx="0"
            cy="0"
            r="1"
            gradientUnits="userSpaceOnUse"
            gradientTransform="translate(106.707 90.3597) scale(79.2363 79.2363)"
        >
            <stop offset="0.094" stop-color="#FFF44F" />
            <stop offset="0.231" stop-color="#FFE141" />
            <stop offset="0.509" stop-color="#FFAF1E" />
            <stop offset="0.626" stop-color="#FF980E" />
        </radialGradient>
        <linearGradient
            id="paint16_linear_2222_120085"
            x1="120.169"
            y1="82.5588"
            x2="66.4156"
            y2="136.322"
            gradientUnits="userSpaceOnUse"
        >
            <stop offset="0.167" stop-color="#FFF44F" stop-opacity="0.8" />
            <stop offset="0.266" stop-color="#FFF44F" stop-opacity="0.634" />
            <stop offset="0.489" stop-color="#FFF44F" stop-opacity="0.217" />
            <stop offset="0.6" stop-color="#FFF44F" stop-opacity="0" />
        </linearGradient>
        <radialGradient
            id="paint17_radial_2222_120085"
            cx="0"
            cy="0"
            r="1"
            gradientUnits="userSpaceOnUse"
            gradientTransform="translate(295.367 132.627) rotate(-58.142) scale(36.3582 56.8568)"
        >
            <stop stop-color="#FFD580" />
            <stop offset="0.09375" stop-color="#F6C592" />
            <stop offset="0.205" stop-color="#EBB6A2" />
            <stop offset="0.324466" stop-color="#DFA5AF" />
            <stop offset="0.42875" stop-color="#D397BE" />
            <stop offset="0.53375" stop-color="#C486CB" />
            <stop offset="0.64875" stop-color="#B578D9" />
            <stop offset="0.77125" stop-color="#A166E5" />
            <stop offset="0.89125" stop-color="#8B57F2" />
            <stop offset="1" stop-color="#704CFF" />
        </radialGradient>
        <linearGradient
            id="paint18_linear_2222_120085"
            x1="293.867"
            y1="79.5737"
            x2="302.337"
            y2="131.278"
            gradientUnits="userSpaceOnUse"
        >
            <stop stop-color="#6D4AFF" />
            <stop offset="0.392009" stop-color="#B39FFB" stop-opacity="0.978022" />
            <stop offset="1" stop-color="#FFE8DB" stop-opacity="0.8" />
        </linearGradient>
        <radialGradient
            id="paint19_radial_2222_120085"
            cx="0"
            cy="0"
            r="1"
            gradientUnits="userSpaceOnUse"
            gradientTransform="translate(292.174 128.199) rotate(-58.142) scale(29.2447 45.7327)"
        >
            <stop stop-color="#FFD580" />
            <stop offset="0.09375" stop-color="#F6C592" />
            <stop offset="0.205" stop-color="#EBB6A2" />
            <stop offset="0.324466" stop-color="#DFA5AF" />
            <stop offset="0.42875" stop-color="#D397BE" />
            <stop offset="0.53375" stop-color="#C486CB" />
            <stop offset="0.64875" stop-color="#B578D9" />
            <stop offset="0.77125" stop-color="#A166E5" />
            <stop offset="0.89125" stop-color="#8B57F2" />
            <stop offset="1" stop-color="#704CFF" />
        </radialGradient>
        <clipPath id="clip0_2222_120085">
            <rect width="392" height="220" rx="24" fill="white" />
        </clipPath>
        <clipPath id="clip1_2222_120085">
            <rect width="77.42" height="79.97" fill="white" transform="translate(52 70)" />
        </clipPath>
    </defs>
</svg>
