<svg width="392" height="220" viewBox="0 0 392 220" fill="none" xmlns="http://www.w3.org/2000/svg">
    <g clip-path="url(#clip0_2239_120870)">
        <rect width="392" height="220" rx="24" fill="#1B1340" />
        <rect width="392" height="220" rx="24" fill="url(#paint0_radial_2239_120870)" />
        <path
            opacity="0.4"
            d="M285.5 110C285.5 60.5705 245.43 20.5 196 20.5C146.571 20.5 106.5 60.5705 106.5 110C106.5 159.429 146.571 199.5 196 199.5C245.43 199.5 285.5 159.429 285.5 110Z"
            stroke="url(#paint1_linear_2239_120870)"
        />
        <path
            opacity="0.2"
            d="M322.5 110C322.5 40.136 265.864 -16.5 196 -16.5C126.136 -16.5 69.5 40.136 69.5 110C69.5 179.864 126.136 236.5 196 236.5C265.864 236.5 322.5 179.864 322.5 110Z"
            stroke="url(#paint2_linear_2239_120870)"
        />
        <path
            opacity="0.6"
            d="M251.5 110C251.5 79.3482 226.652 54.5 196 54.5C165.348 54.5 140.5 79.3482 140.5 110C140.5 140.652 165.348 165.5 196 165.5C226.652 165.5 251.5 140.652 251.5 110Z"
            stroke="url(#paint3_linear_2239_120870)"
        />
        <path
            opacity="0.8"
            d="M223.5 110C223.5 94.8122 211.188 82.5 196 82.5C180.812 82.5 168.5 94.8122 168.5 110C168.5 125.188 180.812 137.5 196 137.5C211.188 137.5 223.5 125.188 223.5 110Z"
            stroke="url(#paint4_linear_2239_120870)"
        />
        <path
            d="M192.133 101H188C186.343 101 185 102.343 185 104V118C185 119.657 186.343 121 188 121H204C205.657 121 207 119.657 207 118V104C207 102.343 205.657 101 204 101H200"
            stroke="white"
        />
        <path
            d="M200.646 105.799C200.841 105.603 201.158 105.603 201.353 105.798C201.549 105.993 201.549 106.309 201.354 106.505L200.646 105.799ZM196.283 110.882L195.929 110.529L195.929 110.529L196.283 110.882ZM195.717 110.882L195.363 111.236L195.363 111.236L195.717 110.882ZM190.646 106.505C190.451 106.309 190.451 105.993 190.647 105.798C190.842 105.603 191.159 105.603 191.354 105.799L190.646 106.505ZM195.5 94C195.5 93.7239 195.724 93.5 196 93.5C196.276 93.5 196.5 93.7239 196.5 94H195.5ZM201.354 106.505L196.637 111.236L195.929 110.529L200.646 105.799L201.354 106.505ZM195.363 111.236L190.646 106.505L191.354 105.799L196.071 110.529L195.363 111.236ZM196.637 111.236C196.285 111.588 195.715 111.588 195.363 111.236L196.071 110.529C196.032 110.49 195.968 110.49 195.929 110.529L196.637 111.236ZM196.5 94V111H195.5V94H196.5Z"
            fill="white"
        />
        <g clip-path="url(#clip1_2239_120870)">
            <path
                d="M109.449 74H66.5422C58.5062 74 52 80.507 52 88.544V131.465C52 139.493 58.5062 146 66.5422 146H109.458C117.485 146 124 139.493 124 131.456V88.544C123.991 80.507 117.485 74 109.449 74Z"
                fill="url(#paint5_linear_2239_120870)"
            />
            <path
                d="M87.6938 90.542L89.1517 88.022C90.0518 86.447 92.0588 85.916 93.6338 86.816C95.2088 87.716 95.7397 89.723 94.8398 91.298L80.7908 115.616H90.9517C94.2458 115.616 96.0908 119.486 94.6598 122.168H64.8698C63.0518 122.168 61.5938 120.71 61.5938 118.892C61.5938 117.074 63.0518 115.616 64.8698 115.616H73.2218L83.9138 97.085L80.5748 91.289C79.6747 89.714 80.2057 87.725 81.7808 86.807C83.3557 85.907 85.3448 86.438 86.2628 88.013L87.6938 90.542ZM75.0578 125.543L71.9078 131.006C71.0078 132.581 69.0008 133.112 67.4257 132.212C65.8507 131.312 65.3198 129.305 66.2198 127.73L68.5598 123.68C71.2058 122.861 73.3568 123.491 75.0578 125.543ZM102.184 115.634H110.707C112.525 115.634 113.983 117.092 113.983 118.91C113.983 120.728 112.525 122.186 110.707 122.186H105.973L109.168 127.73C110.068 129.305 109.537 131.294 107.962 132.212C106.387 133.112 104.398 132.581 103.48 131.006C98.0978 121.673 94.0568 114.689 91.3748 110.036C88.6298 105.302 90.5917 100.55 92.5267 98.939C94.6777 102.629 97.8907 108.2 102.184 115.634Z"
                fill="white"
            />
        </g>
        <path
            d="M325.449 74H282.542C274.506 74 268 80.507 268 88.544V131.465C268 139.493 274.506 146 282.542 146H325.458C333.485 146 340 139.493 340 131.456V88.544C339.991 80.507 333.485 74 325.449 74Z"
            fill="white"
        />
        <path
            d="M295.32 93.7244C298.358 90.6861 299.877 89.1669 301.629 88.5977C303.17 88.097 304.83 88.097 306.371 88.5977C308.123 89.1669 309.642 90.6861 312.68 93.7244L320.276 101.32C323.314 104.358 324.833 105.877 325.402 107.629C325.903 109.17 325.903 110.83 325.402 112.371C324.833 114.123 323.314 115.642 320.276 118.68L312.68 126.275C309.642 129.314 308.123 130.833 306.371 131.402C304.83 131.903 303.17 131.903 301.629 131.402C299.877 130.833 298.358 129.314 295.32 126.275L293.892 124.675C293.028 123.706 292.596 123.221 292.288 122.67C292.014 122.182 291.814 121.656 291.693 121.109C291.556 120.493 291.556 119.844 291.556 118.546L291.556 101.454C291.556 100.156 291.556 99.5066 291.692 98.8905C291.814 98.3439 292.014 97.8181 292.288 97.3295C292.596 96.7785 293.028 96.2941 293.892 95.3254L295.32 93.7244Z"
            fill="url(#paint6_radial_2239_120870)"
        />
        <path
            d="M295.32 93.7244C298.358 90.6861 299.877 89.1669 301.629 88.5977C303.17 88.097 304.83 88.097 306.371 88.5977C308.123 89.1669 309.642 90.6861 312.68 93.7244L320.276 101.32C323.314 104.358 324.833 105.877 325.402 107.629C325.903 109.17 325.903 110.83 325.402 112.371C324.833 114.123 323.314 115.642 320.276 118.68L312.68 126.275C309.642 129.314 308.123 130.833 306.371 131.402C304.83 131.903 303.17 131.903 301.629 131.402C299.877 130.833 298.358 129.314 295.32 126.275L293.892 124.675C293.028 123.706 292.596 123.221 292.288 122.67C292.014 122.182 291.814 121.656 291.693 121.109C291.556 120.493 291.556 119.844 291.556 118.546L291.556 101.454C291.556 100.156 291.556 99.5066 291.692 98.8905C291.814 98.3439 292.014 97.8181 292.288 97.3295C292.596 96.7785 293.028 96.2941 293.892 95.3254L295.32 93.7244Z"
            fill="url(#paint7_linear_2239_120870)"
        />
        <path
            d="M294.778 94.2665C296.297 92.7473 297.056 91.9877 297.932 91.7031C298.703 91.4528 299.533 91.4528 300.303 91.7031C301.179 91.9877 301.939 92.7473 303.458 94.2665L314.851 105.659C316.37 107.179 317.13 107.938 317.414 108.814C317.664 109.585 317.664 110.414 317.414 111.185C317.13 112.061 316.37 112.82 314.851 114.34L303.458 125.732C301.939 127.252 301.179 128.011 300.303 128.296C299.533 128.546 298.703 128.546 297.932 128.296C297.056 128.011 296.297 127.252 294.778 125.732L287.725 118.68C284.687 115.641 283.167 114.122 282.598 112.37C282.097 110.829 282.097 109.17 282.598 107.629C283.167 105.877 284.687 104.358 287.725 101.319L294.778 94.2665Z"
            fill="url(#paint8_radial_2239_120870)"
        />
    </g>
    <defs>
        <radialGradient
            id="paint0_radial_2239_120870"
            cx="0"
            cy="0"
            r="1"
            gradientUnits="userSpaceOnUse"
            gradientTransform="translate(415.5 282) rotate(-108.982) scale(298.216 363.047)"
        >
            <stop stop-color="#FFD580" />
            <stop offset="0.0625" stop-color="#F6CC88" />
            <stop offset="0.182292" stop-color="#E4BB98" />
            <stop offset="0.291667" stop-color="#D2AAA8" />
            <stop offset="0.34375" stop-color="#C9A2AB" />
            <stop offset="0.453125" stop-color="#BB95B1" />
            <stop offset="0.583333" stop-color="#9A75A3" />
            <stop offset="0.723958" stop-color="#724C91" />
            <stop offset="0.895833" stop-color="#312255" />
            <stop offset="1" stop-color="#1B1340" />
        </radialGradient>
        <linearGradient
            id="paint1_linear_2239_120870"
            x1="242.879"
            y1="40.0326"
            x2="106"
            y2="217.591"
            gradientUnits="userSpaceOnUse"
        >
            <stop stop-color="white" />
            <stop offset="1" stop-color="white" stop-opacity="0" />
        </linearGradient>
        <linearGradient
            id="paint2_linear_2239_120870"
            x1="262.152"
            y1="11.2683"
            x2="69"
            y2="261.823"
            gradientUnits="userSpaceOnUse"
        >
            <stop stop-color="white" />
            <stop offset="1" stop-color="white" stop-opacity="0" />
        </linearGradient>
        <linearGradient
            id="paint3_linear_2239_120870"
            x1="225.169"
            y1="66.4648"
            x2="140"
            y2="176.945"
            gradientUnits="userSpaceOnUse"
        >
            <stop stop-color="white" />
            <stop offset="1" stop-color="white" stop-opacity="0" />
        </linearGradient>
        <linearGradient
            id="paint4_linear_2239_120870"
            x1="220.08"
            y1="89.1835"
            x2="163.391"
            y2="138.096"
            gradientUnits="userSpaceOnUse"
        >
            <stop stop-color="white" />
            <stop offset="1" stop-color="white" stop-opacity="0" />
        </linearGradient>
        <linearGradient id="paint5_linear_2239_120870" x1="88" y1="74" x2="88" y2="146" gradientUnits="userSpaceOnUse">
            <stop stop-color="#18BFFB" />
            <stop offset="1" stop-color="#2072F3" />
        </linearGradient>
        <radialGradient
            id="paint6_radial_2239_120870"
            cx="0"
            cy="0"
            r="1"
            gradientUnits="userSpaceOnUse"
            gradientTransform="translate(295.367 132.627) rotate(-58.142) scale(36.3582 56.8568)"
        >
            <stop stop-color="#FFD580" />
            <stop offset="0.09375" stop-color="#F6C592" />
            <stop offset="0.205" stop-color="#EBB6A2" />
            <stop offset="0.324466" stop-color="#DFA5AF" />
            <stop offset="0.42875" stop-color="#D397BE" />
            <stop offset="0.53375" stop-color="#C486CB" />
            <stop offset="0.64875" stop-color="#B578D9" />
            <stop offset="0.77125" stop-color="#A166E5" />
            <stop offset="0.89125" stop-color="#8B57F2" />
            <stop offset="1" stop-color="#704CFF" />
        </radialGradient>
        <linearGradient
            id="paint7_linear_2239_120870"
            x1="293.867"
            y1="79.5737"
            x2="302.337"
            y2="131.278"
            gradientUnits="userSpaceOnUse"
        >
            <stop stop-color="#6D4AFF" />
            <stop offset="0.392009" stop-color="#B39FFB" stop-opacity="0.978022" />
            <stop offset="1" stop-color="#FFE8DB" stop-opacity="0.8" />
        </linearGradient>
        <radialGradient
            id="paint8_radial_2239_120870"
            cx="0"
            cy="0"
            r="1"
            gradientUnits="userSpaceOnUse"
            gradientTransform="translate(292.174 128.199) rotate(-58.142) scale(29.2447 45.7327)"
        >
            <stop stop-color="#FFD580" />
            <stop offset="0.09375" stop-color="#F6C592" />
            <stop offset="0.205" stop-color="#EBB6A2" />
            <stop offset="0.324466" stop-color="#DFA5AF" />
            <stop offset="0.42875" stop-color="#D397BE" />
            <stop offset="0.53375" stop-color="#C486CB" />
            <stop offset="0.64875" stop-color="#B578D9" />
            <stop offset="0.77125" stop-color="#A166E5" />
            <stop offset="0.89125" stop-color="#8B57F2" />
            <stop offset="1" stop-color="#704CFF" />
        </radialGradient>
        <clipPath id="clip0_2239_120870">
            <rect width="392" height="220" rx="24" fill="white" />
        </clipPath>
        <clipPath id="clip1_2239_120870">
            <rect width="72" height="72" fill="white" transform="translate(52 74)" />
        </clipPath>
    </defs>
</svg>
