<svg width="41" height="40" viewBox="0 0 41 40" fill="none" xmlns="http://www.w3.org/2000/svg">
    <g clip-path="url(#clip0_324_8761)">
        <g clip-path="url(#clip1_324_8761)">
            <path
                d="M0 13.7778C0 9.48223 3.48223 6 7.77778 6H20.2222C24.5178 6 28 9.48223 28 13.7778V26.2222C28 30.5178 24.5178 34 20.2222 34H7.77778C3.48223 34 0 30.5178 0 26.2222V13.7778Z"
                fill="white"
            />
            <path
                fill-rule="evenodd"
                clip-rule="evenodd"
                d="M16.3101 18.1095L16.311 18.1102L11.5556 23.3889L5.44446 16.6624V13.7608C5.44446 13.4276 5.8328 13.2453 6.08913 13.4582L12.8691 19.0887C13.5248 19.6332 14.4753 19.6332 15.1309 19.0887L16.3101 18.1095Z"
                fill="url(#paint0_linear_324_8761)"
            />
            <path
                d="M18.8889 15.9678L16.3101 18.1094L16.311 18.1102L12.8965 21.1263C12.3149 21.6401 11.4455 21.653 10.8488 21.1568L5.44446 16.6623V25.2854C5.44446 26.263 6.23697 26.9999 7.21457 26.9999L18.8889 26.9999L20.1111 21.5116L18.8889 15.9678Z"
                fill="url(#paint1_radial_324_8761)"
            />
            <path
                fill-rule="evenodd"
                clip-rule="evenodd"
                d="M18.8889 15.97V27L20.7855 27C21.7631 27 22.5556 26.2075 22.5556 25.2299V13.7608C22.5556 13.4276 22.1672 13.2453 21.9109 13.4582L18.8889 15.97Z"
                fill="url(#paint2_linear_324_8761)"
            />
        </g>
        <path
            d="M25 22C25 20.8954 25.8954 20 27 20H39C40.1046 20 41 20.8954 41 22V32C41 33.1046 40.1046 34 39 34H27C25.8954 34 25 33.1046 25 32V22Z"
            fill="url(#paint3_linear_324_8761)"
        />
        <path
            d="M25 22C25 20.8954 25.8954 20 27 20H39C40.1046 20 41 20.8954 41 22V32C41 33.1046 40.1046 34 39 34H27C25.8954 34 25 33.1046 25 32V22Z"
            fill="url(#paint4_radial_324_8761)"
        />
        <path
            d="M25 22H36.5C37.3284 22 38 22.6716 38 23.5V34H39C40.1046 34 41 33.1046 41 32V22C41 20.8954 40.1046 20 39 20H27C25.8954 20 25 20.8954 25 22Z"
            fill="url(#paint5_linear_324_8761)"
        />
        <path
            d="M29.8833 31.099C31.1073 31.099 32.0523 30.397 32.0523 29.353C32.0523 28.408 31.3863 27.949 30.8733 27.832V27.814C31.2603 27.697 31.8453 27.238 31.8453 26.419C31.8453 25.429 31.0263 24.772 29.8563 24.772C28.3623 24.772 27.7863 25.861 27.7413 26.608H28.9203C28.9743 26.167 29.2713 25.789 29.8473 25.789C30.3423 25.789 30.7203 26.086 30.7203 26.572C30.7203 27.067 30.3423 27.355 29.5953 27.355H29.1723V28.372H29.6853C30.4413 28.372 30.9183 28.66 30.9183 29.209C30.9183 29.731 30.4953 30.082 29.8833 30.082C29.2803 30.082 28.8843 29.713 28.7853 29.227H27.5613C27.6423 30.307 28.5333 31.099 29.8833 31.099Z"
            fill="white"
        />
        <path d="M32.7198 25.87V27.04L33.9348 26.185V31H35.0778V24.862H34.1688L32.7198 25.87Z" fill="white" />
    </g>
    <defs>
        <linearGradient
            id="paint0_linear_324_8761"
            x1="11.8654"
            y1="23.482"
            x2="6.12664"
            y2="3.54646"
            gradientUnits="userSpaceOnUse"
        >
            <stop stop-color="#E3D9FF" />
            <stop offset="1" stop-color="#7341FF" />
        </linearGradient>
        <radialGradient
            id="paint1_radial_324_8761"
            cx="0"
            cy="0"
            r="1"
            gradientUnits="userSpaceOnUse"
            gradientTransform="translate(20.0472 17.3182) scale(17.1039 16.0409)"
        >
            <stop offset="0.5561" stop-color="#6D4AFF" />
            <stop offset="0.9944" stop-color="#AA8EFF" />
        </radialGradient>
        <linearGradient
            id="paint2_linear_324_8761"
            x1="28.0893"
            y1="35.8386"
            x2="14.9771"
            y2="7.43767"
            gradientUnits="userSpaceOnUse"
        >
            <stop offset="0.271" stop-color="#E3D9FF" />
            <stop offset="1" stop-color="#7341FF" />
        </linearGradient>
        <linearGradient
            id="paint3_linear_324_8761"
            x1="33"
            y1="14.4067"
            x2="34.2177"
            y2="30.766"
            gradientUnits="userSpaceOnUse"
        >
            <stop offset="0.988738" stop-color="#6D4AFF" />
        </linearGradient>
        <radialGradient
            id="paint4_radial_324_8761"
            cx="0"
            cy="0"
            r="1"
            gradientUnits="userSpaceOnUse"
            gradientTransform="translate(35.8966 12.8542) rotate(109.399) scale(24.0163 30.6627)"
        >
            <stop offset="0.556057" stop-color="#54B7FF" stop-opacity="0" />
            <stop offset="0.994421" stop-color="#54B7FF" />
        </radialGradient>
        <linearGradient
            id="paint5_linear_324_8761"
            x1="44"
            y1="42.75"
            x2="24.4917"
            y2="8.64669"
            gradientUnits="userSpaceOnUse"
        >
            <stop stop-color="#C8E8FF" />
            <stop offset="0.410661" stop-color="#BDAEFF" />
            <stop offset="0.774813" stop-color="#6D4AFF" />
        </linearGradient>
        <clipPath id="clip0_324_8761">
            <rect width="41" height="28" fill="white" transform="translate(0 6)" />
        </clipPath>
        <clipPath id="clip1_324_8761">
            <rect width="28" height="28" fill="white" transform="translate(0 6)" />
        </clipPath>
    </defs>
</svg>
