<svg xmlns="http://www.w3.org/2000/svg" width="122" height="78" fill="none" viewBox="0 0 122 78">
    <path fill="url(#a)" d="M0 4a4 4 0 0 1 4-4h114a4 4 0 0 1 4 4v70a4 4 0 0 1-4 4H4a4 4 0 0 1-4-4V4z" />
    <path fill="#6D4AFF" d="M70 28a2 2 0 0 1 2-2h44a2 2 0 0 1 2 2v4H70v-4z" />
    <path fill="#fff" d="M70 32h48v40a2 2 0 0 1-2 2H72a2 2 0 0 1-2-2V32z" />
    <rect width="26" height="3" x="74" y="36" fill="#D1CECC" rx="1.5" />
    <rect width="22" height="3" x="74" y="42" fill="#D1CECC" rx="1.5" />
    <rect width="17" height="4" x="97" y="66" fill="#6D4AFF" rx="1" />
    <defs>
        <linearGradient id="a" x1="101.5" x2="16" y1="-7.5" y2="83" gradientUnits="userSpaceOnUse">
            <stop stop-color="#EAE7E4" stop-opacity=".3" />
            <stop offset="1" stop-color="#C6C3BE" stop-opacity=".2" />
        </linearGradient>
    </defs>
</svg>
