<svg fill="none" height="128" width="197" xmlns="http://www.w3.org/2000/svg">
    <linearGradient id="a" gradientUnits="userSpaceOnUse" x1="116.843" x2="116.843" y1="72.891" y2="108.505">
        <stop offset="0" stop-color="#fc451c" />
        <stop offset="1" stop-color="#e38c70" />
    </linearGradient>
    <linearGradient id="b" gradientUnits="userSpaceOnUse" x1="121.512" x2="121.512" y1="52.459" y2="94.216">
        <stop offset="0" stop-color="#ffd7b3" />
        <stop offset="1" stop-color="#ffb39b" />
    </linearGradient>
    <linearGradient id="c" gradientUnits="userSpaceOnUse" x1="171.215" x2="171.215" y1="52.459" y2="89.907">
        <stop offset="0" stop-color="#4b2323" />
        <stop offset="1" stop-color="#8a1c1c" />
    </linearGradient>
    <path
        d="M139.52 51.037h-3.902v-5.408c0-.669-.558-1.226-1.227-1.226h-25.032c-.669 0-1.227.557-1.227 1.226v5.046h-3.902v-5.046a5.133 5.133 0 0 1 5.129-5.129h25.004a5.133 5.133 0 0 1 5.129 5.13v5.407z"
        fill="#816983"
    />
    <path
        d="M170.323 127.5H95.31a8.161 8.161 0 0 1-8.168-8.168V70.996h92.269v47.416a9.09 9.09 0 0 1-9.088 9.088z"
        fill="#8b1c1c"
    />
    <path
        d="M153.904 127.5H79.81c-5.018 0-9.087-4.07-9.087-9.087V63.748c0-6.216 5.045-11.261 11.261-11.261h80.979v65.953c.028 4.99-4.042 9.06-9.059 9.06z"
        fill="url(#a)"
    />
    <path
        d="M172.274 52.459H82.012c-6.216 0-11.261 5.045-11.261 11.261v25.201a5.294 5.294 0 0 0 5.296 5.295h81.648a5.294 5.294 0 0 0 5.296-5.296V75.233h9.283z"
        fill="url(#b)"
    />
    <path
        d="M109.804 52.458h-7.247v-1.561c0-.725.585-1.282 1.282-1.282h4.683c.725 0 1.282.585 1.282 1.282zM141.193 52.458h-7.248v-1.561a1.28 1.28 0 0 1 1.283-1.282h4.655c.725 0 1.282.585 1.282 1.282v1.561z"
        fill="#fff"
    />
    <path d="M179.41 97.59h-16.39V60.654c0-4.544 3.679-8.195 8.195-8.195s8.195 3.68 8.195 8.195z" fill="url(#c)" />
    <path d="M96.436 94.272h-6.97v-14.44a3.486 3.486 0 0 1 3.485-3.484 3.486 3.486 0 0 1 3.485 3.485z" fill="#ec7454" />
    <path d="M96.436 94.272h-6.97v13.854h6.97z" fill="#8b1c1c" />
    <path
        d="M92.951 114.008a3.486 3.486 0 0 1-3.484-3.484v-2.37h6.969v2.37a3.486 3.486 0 0 1-3.485 3.484z"
        fill="#fff"
    />
    <path d="M144.822 94.272h-6.968v-14.44c0-1.923 1.561-3.484 3.484-3.484s3.484 1.561 3.484 3.485z" fill="#ec7454" />
    <path d="M144.822 94.272h-6.968v13.854h6.968z" fill="#8b1c1c" />
    <path
        d="M141.338 114.008a3.485 3.485 0 0 1-3.484-3.484v-2.37h6.968v2.37a3.485 3.485 0 0 1-3.484 3.484z"
        fill="#fff"
    />
    <g stroke="#c2bfbc" stroke-miterlimit="10" stroke-width="1.843">
        <path
            d="M51.727 126.571c7.89 0 14.285-6.396 14.285-14.286 0-7.889-6.396-14.285-14.285-14.285-7.89 0-14.286 6.396-14.286 14.285 0 7.89 6.396 14.286 14.286 14.286z"
        />
        <path d="M29.531 113.388c0-2.204 1.771-3.975 3.975-3.975s3.975 1.771 3.975 3.975" />
        <path d="M65.973 112.286h18.614a6.064 6.064 0 0 1 6.06 6.061v8.225" stroke-linecap="round" />
        <path d="M1 112.286h18.614a6.064 6.064 0 0 1 6.06 6.061v8.225" stroke-linecap="round" stroke-opacity=".5" />
        <path
            d="M15.285 126.571c7.89 0 14.286-6.396 14.286-14.286C29.57 104.396 23.175 98 15.285 98S1 104.396 1 112.285c0 7.89 6.396 14.286 14.285 14.286z"
        />
    </g>
</svg>
