<svg xmlns="http://www.w3.org/2000/svg" width="196" height="128" fill="none" viewBox="0 0 196 128">
    <path fill="url(#a)" d="M53 83h90v12c0 6.627-5.373 12-12 12H65c-6.627 0-12-5.373-12-12z" />
    <path fill="url(#b)" d="M53 34h90v53c0 6.627-5.373 12-12 12H65c-6.627 0-12-5.373-12-12z" />
    <path fill="url(#c)" d="M53 28c0-6.627 5.373-12 12-12h66c6.627 0 12 5.373 12 12v6H53z" />
    <rect width="4" height="12" x="69" y="10" fill="url(#d)" rx="2" />
    <path fill="url(#e)" d="M123 12a2 2 0 1 1 4 0v8a2 2 0 1 1-4 0z" />
    <path
        stroke="url(#f)"
        stroke-linecap="round"
        stroke-linejoin="round"
        stroke-width="2"
        d="M104 45a4 4 0 0 1 4 4v35a4 4 0 0 1-4 4H71a4 4 0 0 1-4-4V49a4 4 0 0 1 4-4z"
    />
    <g filter="url(#g)">
        <path
            fill="url(#h)"
            d="m108.974 100.975-4.441-17.58c-.21-.83.649-1.521 1.414-1.141l16.497 8.197c.802.4.715 1.572-.138 1.847l-6.486 2.098a1 1 0 0 0-.512.38l-4.544 6.525a1 1 0 0 1-1.79-.326"
        />
        <path
            stroke="#fff"
            stroke-width="2"
            d="M103.563 83.639c-.418-1.657 1.299-3.041 2.829-2.281l16.497 8.197c1.605.798 1.431 3.143-.275 3.695l-6.486 2.098-4.543 6.525c-.98 1.407-3.161 1.009-3.581-.653z"
        />
    </g>
    <path
        fill="url(#i)"
        d="M113.747 75.341a1.001 1.001 0 0 0 1.506 1.317L114.5 76zM139 62l-.053.998zm-1.5 10-.419.908zm4-19-.284-.96zm35.173-2.26a1 1 0 0 0 .067-1.413l-6.054-6.66a1 1 0 0 0-1.48 1.346l5.381 5.92-5.919 5.38a1 1 0 1 0 1.345 1.48zM114.5 76l.753.658c1.727-1.974 5.08-5.55 9.319-8.557 4.256-3.019 9.28-5.37 14.375-5.103L139 62l.053-.999c-5.756-.303-11.233 2.345-15.638 5.469-4.423 3.136-7.895 6.845-9.668 8.871zM139 62l-.053.998c2.133.113 3.389.906 4.069 1.847.697.964.891 2.22.629 3.425-.264 1.21-.967 2.264-1.927 2.837-.923.55-2.195.725-3.799-.015L137.5 72l-.419.908c2.141.988 4.117.839 5.662-.083 1.508-.9 2.493-2.468 2.856-4.128.363-1.665.121-3.525-.962-5.024-1.099-1.52-2.967-2.534-5.584-2.672zm-1.5 10 .419-.908c-2.879-1.33-5.032-4.705-4.92-8.185.109-3.349 2.349-7.041 8.785-8.949L141.5 53l-.284-.96c-7.064 2.094-10.074 6.401-10.215 10.802-.138 4.27 2.459 8.395 6.08 10.066zm4-19 .284.958c10.629-3.149 27.187-3.292 34.168-2.96L176 50l.048-1c-7.019-.334-23.861-.21-34.832 3.04z"
    />
    <path
        fill="url(#j)"
        d="M85 80a1 1 0 0 1 1 1v1a1 1 0 0 1-1 1H70a1 1 0 0 1-1-1v-1a1 1 0 0 1 1-1zm0-5a1 1 0 0 1 1 1v1a1 1 0 0 1-1 1H70a1 1 0 0 1-1-1v-1a1 1 0 0 1 1-1zm0-8a1 1 0 0 1 1 1v1a1 1 0 0 1-1 1H70a1 1 0 0 1-1-1v-1a1 1 0 0 1 1-1zm0-6a1 1 0 0 1 1 1v1a1 1 0 0 1-1 1H70a1 1 0 0 1-1-1v-1a1 1 0 0 1 1-1zm0-8a1 1 0 0 1 1 1v1a1 1 0 0 1-1 1H70a1 1 0 0 1-1-1v-1a1 1 0 0 1 1-1zm20 0a1 1 0 0 1 1 1v1a1 1 0 0 1-1 1H90a1 1 0 0 1-1-1v-1a1 1 0 0 1 1-1zm-20-5a1 1 0 0 1 1 1v1a1 1 0 0 1-1 1H70a1 1 0 0 1-1-1v-1a1 1 0 0 1 1-1zm20 0a1 1 0 0 1 1 1v1a1 1 0 0 1-1 1H90a1 1 0 0 1-1-1v-1a1 1 0 0 1 1-1z"
    />
    <g filter="url(#k)"><ellipse cx="98.5" cy="115.5" fill="#d783ff" fill-opacity=".4" rx="44.5" ry="1.5" /></g>
    <defs>
        <linearGradient id="a" x1="132.071" x2="110.297" y1="74.5" y2="145.283" gradientUnits="userSpaceOnUse">
            <stop stop-color="#f7e5ff" />
            <stop offset="1" stop-color="#d783ff" />
        </linearGradient>
        <linearGradient id="b" x1="163" x2="39" y1="-14" y2="131" gradientUnits="userSpaceOnUse">
            <stop stop-color="#fff" />
            <stop offset="1" stop-color="#faf0ff" />
        </linearGradient>
        <linearGradient id="c" x1="150.071" x2="59.092" y1="-26.75" y2="46.201" gradientUnits="userSpaceOnUse">
            <stop stop-color="#d783ff" />
            <stop offset="1" stop-color="#6d4aff" />
        </linearGradient>
        <linearGradient id="d" x1="77" x2="69.5" y1="10" y2="23" gradientUnits="userSpaceOnUse">
            <stop stop-color="#f7e5ff" />
            <stop offset="1" stop-color="#d783ff" />
        </linearGradient>
        <linearGradient id="e" x1="131" x2="123.5" y1="10" y2="23" gradientUnits="userSpaceOnUse">
            <stop stop-color="#f7e5ff" />
            <stop offset="1" stop-color="#d783ff" />
        </linearGradient>
        <linearGradient id="f" x1="107" x2="42" y1="33.5" y2="118.5" gradientUnits="userSpaceOnUse">
            <stop stop-color="#f7e5ff" />
            <stop offset="1" stop-color="#d783ff" />
        </linearGradient>
        <linearGradient id="h" x1="111.5" x2="106.5" y1="82.5" y2="103" gradientUnits="userSpaceOnUse">
            <stop stop-color="#d783ff" />
            <stop offset="1" stop-color="#6d4aff" />
        </linearGradient>
        <linearGradient id="i" x1="114" x2="176" y1="77.999" y2="42.999" gradientUnits="userSpaceOnUse">
            <stop stop-color="#6d4aff" />
            <stop offset="1" stop-color="#d783ff" />
        </linearGradient>
        <linearGradient id="j" x1="100" x2="69" y1="46.5" y2="85.5" gradientUnits="userSpaceOnUse">
            <stop stop-color="#f7e5ff" />
            <stop offset="1" stop-color="#d783ff" />
        </linearGradient>
        <filter
            id="g"
            width="28.701"
            height="29.79"
            x="99.398"
            y="80.042"
            color-interpolation-filters="sRGB"
            filterUnits="userSpaceOnUse"
        >
            <feFlood flood-opacity="0" result="BackgroundImageFix" />
            <feColorMatrix in="SourceAlpha" result="hardAlpha" values="0 0 0 0 0 0 0 0 0 0 0 0 0 0 0 0 0 0 127 0" />
            <feOffset dy="3" />
            <feGaussianBlur stdDeviation="1.55" />
            <feComposite in2="hardAlpha" operator="out" />
            <feColorMatrix values="0 0 0 0 0.501961 0 0 0 0 0.333333 0 0 0 0 1 0 0 0 0.3 0" />
            <feBlend in2="BackgroundImageFix" result="effect1_dropShadow_41955_36840" />
            <feBlend in="SourceGraphic" in2="effect1_dropShadow_41955_36840" result="shape" />
        </filter>
        <filter
            id="k"
            width="101"
            height="15"
            x="48"
            y="108"
            color-interpolation-filters="sRGB"
            filterUnits="userSpaceOnUse"
        >
            <feFlood flood-opacity="0" result="BackgroundImageFix" />
            <feBlend in="SourceGraphic" in2="BackgroundImageFix" result="shape" />
            <feGaussianBlur result="effect1_foregroundBlur_41955_36840" stdDeviation="3" />
        </filter>
    </defs>
</svg>
