<svg width="108" height="128" viewBox="0 0 108 128" fill="none" xmlns="http://www.w3.org/2000/svg">
    <path
        d="M78.4502 41C80.0792 41 81.6387 41.6623 82.7695 42.835L106.879 67.8379C107.598 68.5834 108 69.5786 108 70.6143V102C108 105.314 105.314 108 102 108H6C2.68629 108 0 105.314 0 102V70.5254C0.000116065 69.5429 0.362209 68.5942 1.0166 67.8613L23.2109 43.0039C24.3493 41.729 25.9774 41 27.6865 41H78.4502ZM28.7139 43C26.9888 43 25.3471 43.7426 24.208 45.0381L3.41992 68.6797C2.284 69.9718 3.20134 72 4.92188 72H33.8594C35.1967 72 36.4457 72.6685 37.1875 73.7812L40.8125 79.2188C41.5543 80.3315 42.8033 81 44.1406 81H63.8594C65.1967 81 66.4457 80.3315 67.1875 79.2188L70.8125 73.7812C71.5543 72.6685 72.8033 72 74.1406 72H102.848C104.604 71.9996 105.507 69.8984 104.299 68.624L81.7744 44.8711C80.6415 43.6765 79.0673 43 77.4209 43H28.7139Z"
        fill="url(#paint0_linear_52433_83476)"
    />
    <path
        d="M77.4208 43C79.0672 43 80.6413 43.6765 81.7743 44.8711L104.299 68.624C105.507 69.8984 104.603 71.9997 102.848 72H88.9999L82.4481 64.9238C81.3126 63.6974 79.7162 63 78.0448 63H29.9549C28.2836 63 26.6881 63.6975 25.5526 64.9238L18.9999 72H4.92174C3.20121 72 2.28387 69.9718 3.41978 68.6797L24.2079 45.0381C25.347 43.7426 26.9887 43 28.7137 43H77.4208Z"
        fill="url(#paint1_linear_52433_83476)"
    />
    <path
        d="M25.5523 64.9235L19 72H33.8593C35.1967 72 36.4456 72.6684 37.1875 73.7812L40.8125 79.2188C41.5544 80.3316 42.8033 81 44.1407 81H63.8593C65.1967 81 66.4456 80.3316 67.1875 79.2188L70.8125 73.7812C71.5544 72.6684 72.8033 72 74.1407 72H89L82.4477 64.9236C81.3122 63.6972 79.7166 63 78.0452 63H29.9548C28.2835 63 26.6878 63.6972 25.5523 64.9235Z"
        fill="#4F3D99"
    />
    <g clip-path="url(#clip0_52433_83476)">
        <path
            d="M26 25C26 19.4772 30.4772 15 36 15H52C57.5228 15 62 19.4772 62 25V41C62 46.5228 57.5228 51 52 51H36C30.4772 51 26 46.5228 26 41V25Z"
            fill="white"
        />
        <g clip-path="url(#clip1_52433_83476)">
            <path
                d="M34.8945 40.6615H38.2487V32.5156L33.457 28.9219V39.224C33.457 40.0194 34.1015 40.6615 34.8945 40.6615Z"
                fill="#4285F4"
            />
            <path
                d="M49.75 40.6615H53.1042C53.8996 40.6615 54.5417 40.017 54.5417 39.224V28.9219L49.75 32.5156"
                fill="#34A853"
            />
            <path
                d="M49.75 26.2951V32.5243L54.5417 28.9305V27.0138C54.5417 25.2361 52.5124 24.2227 51.0917 25.2888"
                fill="#FBBC04"
            />
            <path d="M38.25 32.526V26.2969L44 30.6094L49.75 26.2969V32.526L44 36.8385" fill="#EA4335" />
            <path
                d="M33.457 27.0158V28.9325L38.2487 32.5262V26.297L36.907 25.2908C35.4839 24.2247 33.457 25.2381 33.457 27.0158Z"
                fill="#C5221F"
            />
        </g>
    </g>
    <g clip-path="url(#clip2_52433_83476)">
        <path
            d="M46 44C46 38.4772 50.4772 34 56 34H72C77.5228 34 82 38.4772 82 44V60C82 65.5228 77.5228 70 72 70H56C50.4772 70 46 65.5228 46 60V44Z"
            fill="white"
        />
        <g clip-path="url(#clip3_52433_83476)">
            <path
                d="M54.8945 59.6615H58.2487V51.5156L53.457 47.9219V58.224C53.457 59.0194 54.1015 59.6615 54.8945 59.6615Z"
                fill="#4285F4"
            />
            <path
                d="M69.75 59.6615H73.1042C73.8996 59.6615 74.5417 59.017 74.5417 58.224V47.9219L69.75 51.5156"
                fill="#34A853"
            />
            <path
                d="M69.75 45.2951V51.5243L74.5417 47.9305V46.0138C74.5417 44.2361 72.5124 43.2227 71.0917 44.2888"
                fill="#FBBC04"
            />
            <path d="M58.25 51.526V45.2969L64 49.6094L69.75 45.2969V51.526L64 55.8385" fill="#EA4335" />
            <path
                d="M53.457 46.0158V47.9325L58.2487 51.5262V45.297L56.907 44.2908C55.4839 43.2247 53.457 44.2381 53.457 46.0158Z"
                fill="#C5221F"
            />
        </g>
    </g>
    <defs>
        <linearGradient
            id="paint0_linear_52433_83476"
            x1="108"
            y1="41"
            x2="53.3937"
            y2="138.044"
            gradientUnits="userSpaceOnUse"
        >
            <stop stop-color="#FAEBFF" />
            <stop offset="1" stop-color="#EBAAFF" />
        </linearGradient>
        <linearGradient
            id="paint1_linear_52433_83476"
            x1="104.851"
            y1="43"
            x2="91.471"
            y2="94.8511"
            gradientUnits="userSpaceOnUse"
        >
            <stop stop-color="#F6D8FF" />
            <stop offset="1" stop-color="#A171FA" />
        </linearGradient>
        <clipPath id="clip0_52433_83476">
            <rect x="26" y="15" width="36" height="36" rx="10" fill="white" />
        </clipPath>
        <clipPath id="clip1_52433_83476">
            <rect width="21.0833" height="15.8125" fill="white" transform="translate(33.457 24.8594)" />
        </clipPath>
        <clipPath id="clip2_52433_83476">
            <rect x="46" y="34" width="36" height="36" rx="10" fill="white" />
        </clipPath>
        <clipPath id="clip3_52433_83476">
            <rect width="21.0833" height="15.8125" fill="white" transform="translate(53.457 43.8594)" />
        </clipPath>
    </defs>
</svg>
