<svg fill="none" height="128" width="128" xmlns="http://www.w3.org/2000/svg" xmlns:xlink="http://www.w3.org/1999/xlink">
    <filter id="c" color-interpolation-filters="sRGB" filterUnits="userSpaceOnUse" height="99" width="61" x="11" y="23">
        <feFlood flood-opacity="0" result="BackgroundImageFix" />
        <feBlend in="SourceGraphic" in2="BackgroundImageFix" result="shape" />
        <feColorMatrix in="SourceAlpha" result="hardAlpha" values="0 0 0 0 0 0 0 0 0 0 0 0 0 0 0 0 0 0 127 0" />
        <feOffset dx="-2" dy="-2" />
        <feGaussianBlur stdDeviation="1" />
        <feComposite in2="hardAlpha" k2="-1" k3="1" operator="arithmetic" />
        <feColorMatrix values="0 0 0 0 1 0 0 0 0 1 0 0 0 0 1 0 0 0 0.25 0" />
        <feBlend in2="shape" result="effect1_innerShadow_41511_27060" />
    </filter>
    <linearGradient id="a">
        <stop offset="0" stop-color="#faebff" />
        <stop offset="1" stop-color="#ebaaff" />
    </linearGradient>
    <linearGradient id="d" gradientUnits="userSpaceOnUse" x1="72" x2="-17.644" xlink:href="#a" y1="17" y2="72.534" />
    <linearGradient id="e" gradientUnits="userSpaceOnUse" x1="42.5" x2="42.5" y1="25" y2="49.5">
        <stop offset="0" stop-color="#cd1db0" stop-opacity="0" />
        <stop offset=".62" stop-color="#aa1692" stop-opacity=".5" />
        <stop offset="1" stop-color="#fff" stop-opacity="0" />
    </linearGradient>
    <linearGradient id="f" gradientUnits="userSpaceOnUse" x1="105" x2="86.847" y1="6" y2="61.038">
        <stop offset="0" stop-color="#fff" />
        <stop offset="1" stop-color="#f9edfd" />
    </linearGradient>
    <linearGradient id="g" gradientUnits="userSpaceOnUse" x1="61" x2="61" y1="27" y2="38">
        <stop offset="0" stop-color="#b813e5" stop-opacity="0" />
        <stop offset="1" stop-color="#9f0e87" stop-opacity=".1" />
    </linearGradient>
    <linearGradient id="h" gradientUnits="userSpaceOnUse" x1="117" x2="86.5" y1="41.5" y2="82.5">
        <stop offset="0" stop-color="#e2beaf" />
        <stop offset="1" stop-color="#80503b" />
    </linearGradient>
    <linearGradient id="i" gradientUnits="userSpaceOnUse" x1="94.818" x2="71.235" y1="81.091" y2="92.356">
        <stop offset="0" stop-color="#ffd7b3" />
        <stop offset="1" stop-color="#ffb39b" />
    </linearGradient>
    <linearGradient id="j" gradientUnits="userSpaceOnUse" x1="53" x2="34.969" xlink:href="#a" y1="6" y2="25.879" />
    <linearGradient id="b">
        <stop offset="0" stop-color="#ebaaff" />
        <stop offset="1" stop-color="#faebff" />
    </linearGradient>
    <linearGradient id="k" gradientUnits="userSpaceOnUse" x1="44" x2="62.031" xlink:href="#b" y1="38" y2="18.121" />
    <linearGradient id="l" gradientUnits="userSpaceOnUse" x1="15" x2="23.635" xlink:href="#b" y1="38" y2="21.557" />
    <linearGradient id="m" gradientUnits="userSpaceOnUse" x1="81" x2="75.519" xlink:href="#a" y1="4.364" y2="29.959" />
    <g filter="url(#c)">
        <path
            d="M13 29a4 4 0 0 1 4-4h51a4 4 0 0 1 4 4v69.03a7 7 0 0 1-14 0v-1.97a8 8 0 1 0-16 0v11.44c0 8.008-6.492 14.5-14.5 14.5S13 115.508 13 107.5z"
            fill="url(#d)"
        />
        <path
            d="M13 29a4 4 0 0 1 4-4h51a4 4 0 0 1 4 4v69.03a7 7 0 0 1-14 0v-1.97a8 8 0 1 0-16 0v11.44c0 8.008-6.492 14.5-14.5 14.5S13 115.508 13 107.5z"
            fill="url(#e)"
            fill-opacity=".2"
        />
    </g>
    <path d="M9 14a8 8 0 0 1 8-8h80a8 8 0 0 1 8 8v16a8 8 0 0 1-8 8H17a8 8 0 0 1-8-8z" fill="url(#f)" />
    <path d="M9 14a8 8 0 0 1 8-8h80a8 8 0 0 1 8 8v16a8 8 0 0 1-8 8H17a8 8 0 0 1-8-8z" fill="url(#g)" />
    <path d="M5 21a4 4 0 0 1 4-4v10a4 4 0 0 1-4-4z" fill="#edcfe9" />
    <path
        d="M105 23h5a7 7 0 0 1 7 7v10a7 7 0 0 1-7 7H98a7 7 0 0 0-7 7v32"
        stroke="url(#h)"
        stroke-linejoin="round"
        stroke-width="4"
    />
    <rect fill="url(#i)" height="40" rx="4" width="14" x="84" y="82" />
    <path d="M34 6h12v16.5a2.5 2.5 0 0 1-5 0V12a1 1 0 1 0-2 0v2.5a2.5 2.5 0 0 1-5 0z" fill="url(#j)" />
    <path d="M63 38H51V21.5a2.5 2.5 0 0 1 5 0V32a1 1 0 1 0 2 0v-2.5a2.5 2.5 0 0 1 5 0z" fill="url(#k)" />
    <path d="M27 38h-5v-8.5a2.5 2.5 0 0 1 5 0v5.605z" fill="url(#l)" />
    <path d="M67 6h5v3.5a2.5 2.5 0 0 1-5 0V7.579z" fill="url(#m)" />
    <g fill="#ffb59d"><path d="M84 87h14v2H84zM84 91h14v2H84z" /></g>
</svg>
