<svg
    fill="none"
    height="128"
    viewBox="0 0 130 128"
    width="130"
    xmlns="http://www.w3.org/2000/svg"
    xmlns:xlink="http://www.w3.org/1999/xlink"
>
    <linearGradient id="a" gradientUnits="userSpaceOnUse" x1="120" x2="65.3937" y1="52" y2="149.044">
        <stop offset="0" stop-color="#faebff" />
        <stop offset="1" stop-color="#ebaaff" />
    </linearGradient>
    <linearGradient id="b">
        <stop offset="0" stop-color="#fffaec" />
        <stop offset="1" stop-color="#ff9fd5" />
    </linearGradient>
    <linearGradient id="c" gradientUnits="userSpaceOnUse" x1="35" x2="10" xlink:href="#b" y1="-7" y2="33" />
    <linearGradient id="d" gradientUnits="userSpaceOnUse" x1="132" x2="113" xlink:href="#b" y1="30" y2="59" />
    <linearGradient id="e" gradientUnits="userSpaceOnUse" x1="116.851" x2="103.471" y1="54" y2="105.851">
        <stop offset="0" stop-color="#f6d8ff" />
        <stop offset="1" stop-color="#a171fa" />
    </linearGradient>
    <linearGradient id="f" gradientUnits="userSpaceOnUse" x1="109" x2="90.5102" y1="16" y2="70.7847">
        <stop offset="0" stop-color="#ffe3d4" />
        <stop offset="1" stop-color="#fd4baf" />
    </linearGradient>
    <path
        clip-rule="evenodd"
        d="m12 81.5259v1.4741 30c0 3.314 2.6863 6 6 6h96c3.314 0 6-2.686 6-6v-30-1.3856c0-1.0357-.402-2.031-1.121-2.7765l-24.1094-25.0027c-1.1308-1.1727-2.6899-1.8352-4.319-1.8352h-50.7642c-1.7092 0-3.3372.7289-4.4756 2.0039l-22.1946 24.8579c-.6544.733-1.0162 1.6814-1.0162 2.6641zm37.1875 3.2553c-.7419-1.1128-1.9908-1.7812-3.3282-1.7812h-.8593-28.0782c-1.7206 0-2.6381-2.0285-1.5019-3.3207l20.7881-23.6413c1.1391-1.2955 2.7807-2.038 4.5058-2.038h48.7071c1.6466 0 3.2208.6767 4.3538 1.8715l22.5233 23.7523c1.209 1.2744.306 3.3762-1.451 3.3762h-28.7063c-1.3374 0-2.5863.6684-3.3282 1.7812l-3.625 5.4376c-.7419 1.1128-1.9908 1.7812-3.3282 1.7812h-19.7186c-1.3374 0-2.5863-.6684-3.3282-1.7812z"
        fill="url(#a)"
        fill-rule="evenodd"
    />
    <path
        d="m9.53107 14.2673c.16108-.4354.77673-.4354.93783 0l2.1522 5.8162c.0507.1368.1586.2447.2954.2954l5.8162 2.1522c.4354.1611.4354.7767 0 .9378l-5.8162 2.1522c-.1368.0507-.2447.1586-.2954.2954l-2.1522 5.8162c-.1611.4354-.77675.4354-.93783 0l-2.15219-5.8162c-.05064-.1368-.15855-.2447-.29541-.2954l-5.81622-2.1522c-.435306-.1611-.435306-.7767 0-.9378l5.81622-2.1522c.13686-.0507.24477-.1586.29541-.2954z"
        fill="url(#c)"
        fill-opacity=".5"
    />
    <path
        d="m112.531 50.2673c.161-.4354.777-.4354.938 0l.802 2.1666c.05.1369.158.2448.295.2954l2.167.8018c.435.1611.435.7767 0 .9378l-2.167.8018c-.137.0506-.245.1585-.295.2954l-.802 2.1666c-.161.4354-.777.4354-.938 0l-.802-2.1666c-.05-.1369-.158-.2448-.295-.2954l-2.167-.8018c-.435-.1611-.435-.7767 0-.9378l2.167-.8018c.137-.0506.245-.1585.295-.2954z"
        fill="url(#d)"
        fill-opacity=".5"
    />
    <path
        clip-rule="evenodd"
        d="m15.4199 79.6793 20.7881-23.6413c1.1391-1.2955 2.7808-2.038 4.5058-2.038h48.7071c1.6466 0 3.2208.6767 4.3538 1.8715l22.5233 23.7523c1.209 1.2744.306 3.3762-1.451 3.3762h-13.847l-6.5522-7.0764c-1.1356-1.2264-2.7312-1.9236-4.4026-1.9236h-48.0903c-1.6714 0-3.2671.6972-4.4026 1.9235l-6.5523 7.0765h-14.0781c-1.7207 0-2.6382-2.0285-1.502-3.3207z"
        fill="url(#e)"
        fill-rule="evenodd"
    />
    <path
        d="m37.5523 75.9235-6.5523 7.0765h14.8593c1.3374 0 2.5863.6684 3.3282 1.7812l3.625 5.4376c.7419 1.1128 1.9908 1.7812 3.3282 1.7812h19.7186c1.3374 0 2.5863-.6684 3.3282-1.7812l3.625-5.4376c.7419-1.1128 1.9908-1.7812 3.3282-1.7812h14.8593l-6.5523-7.0764c-1.1355-1.2264-2.7311-1.9236-4.4025-1.9236h-48.0904c-1.6713 0-3.267.6972-4.4025 1.9235z"
        fill="#4f3d99"
    />
    <rect fill="url(#f)" height="32" rx="8" width="86" x="23" y="16" />
    <path
        d="m42.8324 39.9332c-4.2308 0-6.6619-2.3615-6.6669-6.4233.005-3.9971 2.4559-6.647 6.7315-6.647 3.9524 0 6.2891 2.446 6.2841 5.9809.005 2.441-.8153 4.1711-2.9631 4.2904-1.1534.0846-1.6108-.3828-1.7201-1.0689h-.0597c-.2337.6016-1.2479 1.0739-2.3764 1.0093-1.571-.0845-2.9034-1.2827-2.9134-3.6243.01-2.3068 1.4418-3.3956 2.7692-3.5895 1.1186-.169 2.1726.2436 2.3416.6811h.0696v-.5568h1.5561v4.8523c.005.4623.2138.7208.5569.7208.686 0 1.044-.8849 1.039-2.8288.005-3.1222-2.2173-4.2656-4.6086-4.2656-3.3061 0-4.9269 2.1427-4.9368 4.9865.0099 3.142 1.7699 4.8622 5.0113 4.8622 1.1435 0 2.287-.2884 2.8189-.5071l.4922 1.4418c-.6214.3529-2.0085.686-3.4254.686zm-.2287-4.4943c1.218 0 1.6456-.7109 1.6307-2.0632-.005-1.1932-.3828-1.8594-1.6406-1.8594-1.1037 0-1.7252.7408-1.7302 1.8743.005 1.054.4425 2.0483 1.7401 2.0483zm7.9856 4.4247v-10.5h2.0881v1.2827h.0944c.2834-.6214.8949-1.3821 2.1726-1.3821 1.6755 0 3.0924 1.3026 3.0924 3.9276 0 2.5554-1.3573 3.9325-3.0973 3.9325-1.233 0-1.8743-.7109-2.1677-1.3473h-.0646v4.0866zm2.0732-6.6818c0 1.3622.5866 2.2571 1.6058 2.2571 1.0391 0 1.6058-.9247 1.6058-2.2571 0-1.3224-.5568-2.2322-1.6058-2.2322-1.0291 0-1.6058.87-1.6058 2.2322zm6.7862 3.8182v-7.6364h2.0185v1.3473h.0894c.3182-.8998 1.0988-1.4467 2.1279-1.4467 1.049 0 1.8295.5618 2.0731 1.4467h.0796c.3132-.875 1.1832-1.4467 2.3018-1.4467 1.4219 0 2.4063.9446 2.4063 2.6001v5.1357h-2.1129v-4.718c0-.8502-.5072-1.2728-1.1833-1.2728-.7706 0-1.223.537-1.223 1.3274v4.6634h-2.0533v-4.7628c0-.7507-.4673-1.228-1.1633-1.228-.706 0-1.2429.5618-1.2429 1.407v4.5838zm14.0074.1293c-.6562 0-1.1981-.532-1.1931-1.1932-.005-.6513.5369-1.1833 1.1931-1.1833.6364 0 1.1883.532 1.1932 1.1833-.0049.6612-.5568 1.1932-1.1932 1.1932zm2.932-.1293v-7.6364h2.0185v1.3473h.0895c.3182-.8998 1.0987-1.4467 2.1278-1.4467 1.049 0 1.8296.5618 2.0732 1.4467h.0795c.3132-.875 1.1833-1.4467 2.3019-1.4467 1.4219 0 2.4062.9446 2.4062 2.6001v5.1357h-2.1129v-4.718c0-.8502-.5071-1.2728-1.1832-1.2728-.7706 0-1.223.537-1.223 1.3274v4.6634h-2.0533v-4.7628c0-.7507-.4673-1.228-1.1634-1.228-.7059 0-1.2429.5618-1.2429 1.407v4.5838zm16.2497.1491c-2.3516 0-3.7884-1.5113-3.7884-3.9325 0-2.3565 1.4567-3.9524 3.7039-3.9524 2.0184 0 3.5895 1.2827 3.5895 3.8778v.5817h-5.2003v.005c0 1.1385.6711 1.8395 1.7301 1.8395.706 0 1.2528-.3033 1.4666-.885l1.9588.1293c-.2983 1.4169-1.571 2.3366-3.4602 2.3366zm-1.6953-4.7379h3.2066c-.0049-.9098-.6413-1.566-1.561-1.566-.9397 0-1.6009.696-1.6456 1.566z"
        fill="#fff"
    />
</svg>
