<svg xmlns="http://www.w3.org/2000/svg" viewBox="0 0 57 47" enable-background="new 0 0 57 47"><style type="text/css">.st0{fill:#6F6F6F;}</style><path class="st0" d="M15.8-15.2c0-.5 0-.9-.1-1.4.1.4.1.9.1 1.4zM52.9 0h-48.7c-2.3 0-4.2 1.9-4.2 4.1v38.8c0 2.3 1.9 4.1 4.2 4.1h48.6c2.3 0 4.2-1.9 4.2-4.1v-38.8c.1-2.3-1.9-4.1-4.1-4.1zm-34.9 4.2c1 0 1.8.8 1.8 1.8s-.8 1.8-1.8 1.8-1.8-.8-1.8-1.8.8-1.8 1.8-1.8zm-5.5 0c1 0 1.8.8 1.8 1.8s-.8 1.8-1.8 1.8-1.8-.8-1.8-1.8.8-1.8 1.8-1.8zm-5.5 0c1 0 1.8.8 1.8 1.8s-.8 1.8-1.8 1.8-1.8-.8-1.8-1.8.8-1.8 1.8-1.8zm46.2 38.7c0 .2-.1.3-.3.3h-48.7c-.2 0-.3-.1-.3-.3v-30.8h49.3v30.8zM21.5 37.7c.2.2.7.2.9 0l2.8-2.8c.2-.2.2-.6 0-.9l-6.5-6.4 6.5-6.4c.2-.2.2-.6 0-.9l-2.8-2.8c-.2-.2-.7-.2-.9 0l-9.7 9.6c-.2.2-.2.6 0 .9l9.7 9.7zM31.8 34.9l2.8 2.8c.2.2.7.2.9 0l9.8-9.6c.2-.2.2-.6 0-.9l-9.8-9.6c-.2-.2-.7-.2-.9 0l-2.8 2.8c-.2.2-.2.6 0 .9l6.5 6.4-6.5 6.3c-.2.3-.2.7 0 .9z"/></svg>