<?xml version="1.0" encoding="utf-8"?>
<!-- Generator: Adobe Illustrator 22.1.0, SVG Export Plug-In . SVG Version: 6.00 Build 0)  -->
<svg version="1.1" id="Layer_1" xmlns="http://www.w3.org/2000/svg" xmlns:xlink="http://www.w3.org/1999/xlink" x="0px" y="0px"
	 viewBox="0 0 47 44" style="enable-background:new 0 0 47 44;" xml:space="preserve">
<style type="text/css">
	.st0{fill:#6F6F6F;}
</style>
<path class="st0" d="M15.8-15.2c0-0.5,0-0.9-0.1-1.4C15.8-16.2,15.8-15.7,15.8-15.2L15.8-15.2z"/>
<path class="st0" d="M47,6.5c0-0.2,0-0.4,0-0.7C46.6,2.6,43.8,0,40.5,0h-0.8c-3.3,0.4-5.8,3.1-5.8,6.5c0,3.4,2.5,6.1,5.8,6.5h0.8
	C44.1,13,47,10.1,47,6.5z"/>
<path class="st0" d="M32.4,6.5c0-2.7,1.3-5,3.3-6.5H6.5C2.9,0,0,2.9,0,6.5S2.9,13,6.5,13h29.2C33.7,11.5,32.4,9.2,32.4,6.5z"/>
<path class="st0" d="M15.8,16.6c0-0.5,0-0.9-0.1-1.4C15.8,15.7,15.8,16.1,15.8,16.6L15.8,16.6z"/>
<path class="st0" d="M47,22c0-0.2,0-0.4,0-0.7c-0.3-3.3-3.1-5.8-6.4-5.8h-0.8c-3.3,0.4-5.8,3.1-5.8,6.5c0,3.4,2.5,6.1,5.8,6.5h0.8
	C44.1,28.5,47,25.6,47,22z"/>
<path class="st0" d="M32.4,22c0-2.7,1.3-5,3.3-6.5H6.5C2.9,15.5,0,18.4,0,22c0,3.6,2.9,6.5,6.5,6.5h29.2C33.7,27,32.4,24.6,32.4,22z
	"/>
<path class="st0" d="M40.5,31H11.4c0.6,0.4,1.1,0.9,1.5,1.5h27.6c2.8,0,5,2.2,5,5c0,2.8-2.2,5-5,5H12.9c-0.4,0.6-0.9,1.1-1.5,1.5
	h29.2c3.6,0,6.5-2.9,6.5-6.5C47,33.9,44.1,31,40.5,31z"/>
<ellipse class="st0" cx="6.5" cy="37.5" rx="6.5" ry="6.5"/>
</svg>
