<svg xmlns="http://www.w3.org/2000/svg" viewBox="0 0 47 44" enable-background="new 0 0 47 44"><style type="text/css">.st0{fill:#6F6F6F;}</style><path class="st0" d="M15.8-15.2c0-.5 0-.9-.1-1.4.1.4.1.9.1 1.4zM47 6.5v-.7c-.4-3.2-3.2-5.8-6.5-5.8h-.8c-3.3.4-5.8 3.1-5.8 6.5s2.5 6.1 5.8 6.5h.8c3.6 0 6.5-2.9 6.5-6.5zM32.4 6.5c0-2.7 1.3-5 3.3-6.5h-29.2c-3.6 0-6.5 2.9-6.5 6.5s2.9 6.5 6.5 6.5h29.2c-2-1.5-3.3-3.8-3.3-6.5zM15.8 16.6c0-.5 0-.9-.1-1.4.1.5.1.9.1 1.4zM47 22v-.7c-.3-3.3-3.1-5.8-6.4-5.8h-.8c-3.3.4-5.8 3.1-5.8 6.5s2.5 6.1 5.8 6.5h.8c3.5 0 6.4-2.9 6.4-6.5zM32.4 22c0-2.7 1.3-5 3.3-6.5h-29.2c-3.6 0-6.5 2.9-6.5 6.5s2.9 6.5 6.5 6.5h29.2c-2-1.5-3.3-3.9-3.3-6.5zM40.5 31h-29.1c.6.4 1.1.9 1.5 1.5h27.6c2.8 0 5 2.2 5 5s-2.2 5-5 5h-27.6c-.4.6-.9 1.1-1.5 1.5h29.2c3.6 0 6.5-2.9 6.5-6.5-.1-3.6-3-6.5-6.6-6.5z"/><ellipse class="st0" cx="6.5" cy="37.5" rx="6.5" ry="6.5"/></svg>