<svg xmlns="http://www.w3.org/2000/svg" viewBox="0 0 47 47.1" enable-background="new 0 0 47 47.1"><style type="text/css">.st0{fill:#6F6F6F;}</style><path class="st0" d="M40.2 7l-.2-.1c-4.5-4.6-10-6.9-16.5-6.9s-12 2.3-16.6 6.9c-4.6 4.6-6.9 10.2-6.9 16.6 0 6.5 2.3 12 6.8 16.5l.1.1c4.6 4.6 10.1 6.8 16.6 6.8 6.5 0 12-2.3 16.6-6.9 4.6-4.4 6.9-10 6.9-16.5 0-6.4-2.3-11.9-6.8-16.5m-16.7-.6c3.6 0 6.9 1 9.7 3l-23.9 23.9c-2-2.8-3-6.1-3-9.7 0-4.7 1.7-8.8 5-12.1 3.4-3.4 7.5-5.1 12.2-5.1m12.1 29.3c-3.3 3.4-7.4 5-12.1 5-3.6 0-6.9-1-9.7-3l23.9-23.9c2 2.8 3 6 3 9.7 0 4.8-1.7 8.8-5.1 12.2z" id="a"/></svg>