<?xml version="1.0" encoding="utf-8"?>
<!-- Generator: Adobe Illustrator 22.1.0, SVG Export Plug-In . SVG Version: 6.00 Build 0)  -->
<svg version="1.1" id="Layer_1" xmlns="http://www.w3.org/2000/svg" xmlns:xlink="http://www.w3.org/1999/xlink" x="0px" y="0px"
	 viewBox="0 0 43 47.1" style="enable-background:new 0 0 43 47.1;" xml:space="preserve">
<style type="text/css">
	.st0{fill:#6F6F6F;}
</style>
<path class="st0" d="M43,5.3C43,2.4,40.6,0,37.7,0c-2.9,0-5.3,2.4-5.3,5.3c0,0,0,0,0,0.2L9.6,12.8c-1.6-2.4-4.9-3-7.3-1.4
	s-3,4.9-1.4,7.3c1,1.5,2.7,2.3,4.5,2.3c0.5,0,1.1-0.1,1.6-0.3l15,19c-1.1,2.7,0.1,5.8,2.8,6.9c2.7,1.1,5.8-0.1,6.9-2.8
	c0.9-2.1,0.3-4.6-1.4-6l8-27.3C41,10.2,43,8,43,5.3z M26.8,36.4c-0.8,0-1.6,0.2-2.3,0.6L9.7,18.4c0.4-0.7,0.7-1.4,0.7-2.2l23.4-7.5
	c0.2,0.3,0.5,0.5,0.8,0.7L26.8,36.4L26.8,36.4z"/>
</svg>
