<svg width="72" height="73" viewBox="0 0 72 73" fill="none" xmlns="http://www.w3.org/2000/svg">
    <path d="M42.2158 27.4631H67.0791V63.3768H42.2158V27.4631Z" fill="url(#paint0_linear_5620_31705)" />
    <path
        d="M42.2158 27.4631H67.0791V63.3768H42.2158V27.4631Z"
        fill="url(#paint1_linear_5620_31705)"
        fill-opacity="0.2"
    />
    <path d="M16.4316 9.0459H45.8992V63.3768H16.4316V9.0459Z" fill="url(#paint2_linear_5620_31705)" />
    <path
        d="M27.2988 36.6726C28.4171 36.6726 29.324 37.5789 29.3242 38.697V42.0144C29.3242 43.1328 28.4172 44.0398 27.2988 44.0398H23.9824C22.8641 44.0398 21.957 43.1328 21.957 42.0144V38.697C21.9573 37.5789 22.8642 36.6726 23.9824 36.6726H27.2988ZM38.3496 36.6726C39.4677 36.6728 40.3738 37.579 40.374 38.697V42.0144C40.374 43.1326 39.4678 44.0396 38.3496 44.0398H35.0322C33.9139 44.0397 33.0078 43.1327 33.0078 42.0144V38.697C33.0081 37.5789 33.9141 36.6727 35.0322 36.6726H38.3496ZM27.2988 25.6218C28.4172 25.6218 29.3242 26.5288 29.3242 27.6472V30.9636C29.3242 32.082 28.4172 32.989 27.2988 32.989H23.9824C22.864 32.989 21.957 32.082 21.957 30.9636V27.6472C21.957 26.5288 22.864 25.6218 23.9824 25.6218H27.2988ZM38.3496 25.6218C39.4678 25.622 40.374 26.529 40.374 27.6472V30.9636C40.374 32.0819 39.4678 32.9888 38.3496 32.989H35.0322C33.9139 32.9889 33.0078 32.082 33.0078 30.9636V27.6472C33.0078 26.5289 33.9139 25.6219 35.0322 25.6218H38.3496ZM27.2988 14.572C28.4171 14.572 29.324 15.4782 29.3242 16.5964V19.9138C29.3241 21.0321 28.4172 21.9382 27.2988 21.9382H23.9824C22.8641 21.9382 21.9571 21.0321 21.957 19.9138V16.5964C21.9572 15.4782 22.8642 14.572 23.9824 14.572H27.2988ZM38.3496 14.572C39.4677 14.5722 40.3738 15.4783 40.374 16.5964V19.9138C40.3739 21.032 39.4678 21.938 38.3496 21.9382H35.0322C33.914 21.9382 33.0079 21.0321 33.0078 19.9138V16.5964C33.008 15.4783 33.914 14.5721 35.0322 14.572H38.3496Z"
        fill="url(#paint3_linear_5620_31705)"
    />
    <path
        d="M53.6079 48.6416C54.4361 48.6417 55.1077 49.3134 55.1079 50.1416V52.667C55.1079 53.4953 54.4362 54.1669 53.6079 54.167H51.0825C50.2541 54.167 49.5825 53.4954 49.5825 52.667V50.1416C49.5827 49.3133 50.2542 48.6416 51.0825 48.6416H53.6079ZM61.895 48.6416C62.7233 48.6416 63.3948 49.3133 63.395 50.1416V52.667C63.395 53.4954 62.7234 54.167 61.895 54.167H59.3706C58.5422 54.167 57.8706 53.4954 57.8706 52.667V50.1416C57.8708 49.3133 58.5423 48.6416 59.3706 48.6416H61.895ZM53.6079 40.3545C54.4362 40.3546 55.1079 41.0261 55.1079 41.8545V44.3789C55.1079 45.2073 54.4362 45.8788 53.6079 45.8789H51.0825C50.2541 45.8789 49.5825 45.2073 49.5825 44.3789V41.8545C49.5825 41.0261 50.2541 40.3545 51.0825 40.3545H53.6079ZM61.895 40.3545C62.7234 40.3545 63.395 41.0261 63.395 41.8545V44.3789C63.395 45.2073 62.7234 45.8789 61.895 45.8789H59.3706C58.5422 45.8789 57.8706 45.2073 57.8706 44.3789V41.8545C57.8706 41.0261 58.5422 40.3545 59.3706 40.3545H61.895ZM53.6079 32.0664C54.4362 32.0665 55.1079 32.7381 55.1079 33.5664V36.0918C55.1078 36.9201 54.4362 37.5917 53.6079 37.5918H51.0825C50.2542 37.5918 49.5826 36.9201 49.5825 36.0918V33.5664C49.5825 32.738 50.2541 32.0664 51.0825 32.0664H53.6079ZM61.895 32.0664C62.7234 32.0664 63.395 32.738 63.395 33.5664V36.0918C63.3949 36.9201 62.7234 37.5918 61.895 37.5918H59.3706C58.5422 37.5918 57.8707 36.9201 57.8706 36.0918V33.5664C57.8706 32.738 58.5422 32.0664 59.3706 32.0664H61.895Z"
        fill="url(#paint4_linear_5620_31705)"
    />
    <path
        d="M15.5107 9.04586C15.5107 8.53728 15.923 8.125 16.4316 8.125H45.8992C46.4078 8.125 46.8201 8.53728 46.8201 9.04586C46.8201 9.55444 46.4078 9.96672 45.8992 9.96672H16.4316C15.923 9.96672 15.5107 9.55444 15.5107 9.04586Z"
        fill="#D7CEFF"
    />
    <path
        d="M45.8994 26.5422H67.0793C67.5878 26.5422 68.0001 26.9545 68.0001 27.4631C68.0001 27.9717 67.5878 28.384 67.0793 28.384H45.8994V26.5422Z"
        fill="url(#paint5_linear_5620_31705)"
    />
    <rect x="12.7485" y="56.0099" width="1.84172" height="7.3669" fill="url(#paint6_linear_5620_31705)" />
    <path
        d="M19.1944 52.1139C19.1944 55.2827 16.7207 57.8516 13.6692 57.8516C10.6177 57.8516 8.14404 55.2827 8.14404 52.1139C8.14404 48.9451 10.6177 32.9883 13.6692 32.9883C16.7207 32.9883 19.1944 48.9451 19.1944 52.1139Z"
        fill="url(#paint7_linear_5620_31705)"
    />
    <rect x="7.22314" y="56.0103" width="1.84172" height="7.3669" fill="url(#paint8_linear_5620_31705)" />
    <path
        d="M12.2878 57.1613C12.2878 59.4499 10.4325 61.3052 8.14388 61.3052C5.85528 61.3052 4 59.4499 4 57.1613C4 54.8727 5.85528 43.3484 8.14388 43.3484C10.4325 43.3484 12.2878 54.8727 12.2878 57.1613Z"
        fill="url(#paint9_linear_5620_31705)"
    />
    <path
        d="M26.561 54.4055C26.561 52.7487 27.9042 51.4055 29.561 51.4055H33.6905C35.3474 51.4055 36.6905 52.7487 36.6905 54.4055V63.3767H26.561V54.4055Z"
        fill="#6C4DF0"
    />
    <defs>
        <linearGradient
            id="paint0_linear_5620_31705"
            x1="63.0058"
            y1="26.9967"
            x2="17.8684"
            y2="65.4946"
            gradientUnits="userSpaceOnUse"
        >
            <stop stop-color="#D783FF" />
            <stop offset="1" stop-color="#6D4AFF" />
        </linearGradient>
        <linearGradient
            id="paint1_linear_5620_31705"
            x1="53.6115"
            y1="39.3214"
            x2="49.8129"
            y2="39.3214"
            gradientUnits="userSpaceOnUse"
        >
            <stop stop-color="#5C41CC" stop-opacity="0" />
            <stop offset="1" stop-color="#5C41CC" />
        </linearGradient>
        <linearGradient
            id="paint2_linear_5620_31705"
            x1="45.8992"
            y1="4.38038"
            x2="-10.2871"
            y2="69.1621"
            gradientUnits="userSpaceOnUse"
        >
            <stop stop-color="#D783FF" />
            <stop offset="1" stop-color="#6D4AFF" />
        </linearGradient>
        <linearGradient
            id="paint3_linear_5620_31705"
            x1="44.3164"
            y1="10.6296"
            x2="22.1504"
            y2="49.6783"
            gradientUnits="userSpaceOnUse"
        >
            <stop stop-color="#D783FF" stop-opacity="0.65" />
            <stop offset="0.105165" stop-color="white" stop-opacity="0.5" />
            <stop offset="1" stop-color="#D783FF" stop-opacity="0.6" />
        </linearGradient>
        <linearGradient
            id="paint4_linear_5620_31705"
            x1="68.92"
            y1="26.5414"
            x2="50.2728"
            y2="58.1431"
            gradientUnits="userSpaceOnUse"
        >
            <stop stop-color="#D783FF" stop-opacity="0.65" />
            <stop offset="0.152464" stop-color="white" stop-opacity="0.5" />
            <stop offset="1" stop-color="#D783FF" stop-opacity="0.6" />
        </linearGradient>
        <linearGradient
            id="paint5_linear_5620_31705"
            x1="30.5588"
            y1="27.4631"
            x2="55.8168"
            y2="27.4631"
            gradientUnits="userSpaceOnUse"
        >
            <stop stop-color="#6C4DF0" />
            <stop offset="1" stop-color="#D7CEFF" />
        </linearGradient>
        <linearGradient
            id="paint6_linear_5620_31705"
            x1="13.6694"
            y1="55.3402"
            x2="13.6694"
            y2="61.0328"
            gradientUnits="userSpaceOnUse"
        >
            <stop stop-color="#76A83A" />
            <stop offset="1" stop-color="#CA8244" />
        </linearGradient>
        <linearGradient
            id="paint7_linear_5620_31705"
            x1="-3.59695"
            y1="39.5494"
            x2="12.9942"
            y2="58.2613"
            gradientUnits="userSpaceOnUse"
        >
            <stop stop-color="#B6FFCE" />
            <stop offset="1" stop-color="#30B49E" />
        </linearGradient>
        <linearGradient
            id="paint8_linear_5620_31705"
            x1="8.14401"
            y1="55.3405"
            x2="8.14401"
            y2="61.0331"
            gradientUnits="userSpaceOnUse"
        >
            <stop stop-color="#76A83A" />
            <stop offset="1" stop-color="#CA8244" />
        </linearGradient>
        <linearGradient
            id="paint9_linear_5620_31705"
            x1="-9.46761"
            y1="49.5642"
            x2="4"
            y2="61.3052"
            gradientUnits="userSpaceOnUse"
        >
            <stop stop-color="#B6FFCE" />
            <stop offset="1" stop-color="#30B49E" />
        </linearGradient>
    </defs>
</svg>
