<svg width="72" height="73" viewBox="0 0 72 73" fill="none" xmlns="http://www.w3.org/2000/svg">
    <g clip-path="url(#clip0_5620_31713)">
        <g opacity="0.8" filter="url(#filter0_f_5620_31713)">
            <ellipse cx="36" cy="57.75" rx="29.25" ry="2.25" fill="#807D79" fill-opacity="0.3" />
        </g>
        <path
            d="M20.25 21.75L6.1875 37.5V44.25H65.8125V37.5L50.625 21.75H20.25Z"
            fill="url(#paint0_linear_5620_31713)"
        />
        <path
            d="M19.2189 35.4861L16.3125 38.625H24.1875V43.6875H47.8125V38.625H55.6875L52.7811 35.4861C51.6455 34.2597 50.0499 33.5625 48.3785 33.5625H23.6215C21.9501 33.5625 20.3545 34.2597 19.2189 35.4861Z"
            fill="#D9D7DF"
        />
        <path
            d="M20.1521 34.4015L16.3125 38.625V45.375H55.6875V38.625L51.8479 34.4015C50.7108 33.1506 49.0988 32.4375 47.4083 32.4375H24.5917C22.9012 32.4375 21.2892 33.1506 20.1521 34.4015Z"
            fill="#4F3D99"
        />
        <path
            d="M47.7881 21.1875C49.9603 21.1875 52.0391 22.0711 53.5469 23.6348L65.2539 35.7754C65.9728 36.5209 66.375 37.5161 66.375 38.5518V52.875C66.375 56.1887 63.6887 58.875 60.375 58.875H11.625C8.31129 58.875 5.625 56.1887 5.625 52.875V38.4629C5.62512 37.4804 5.98721 36.5317 6.6416 35.7988L17.3018 23.8594C18.8196 22.1594 20.9906 21.1875 23.2695 21.1875H47.7881ZM22.9639 22.3125C21.2388 22.3125 19.5971 23.0551 18.458 24.3506L8.82617 35.3047C7.69025 36.5968 8.60759 38.625 10.3281 38.625H23.7344C25.0717 38.625 26.3207 39.2935 27.0625 40.4062L28.0625 41.9062C28.8043 43.019 30.0533 43.6875 31.3906 43.6875H40.6094C41.9467 43.6875 43.1957 43.019 43.9375 41.9062L44.9375 40.4062C45.6793 39.2935 46.9283 38.625 48.2656 38.625H61.4414C63.1973 38.6246 64.1006 36.5234 62.8926 35.249L52.3994 24.1836C51.2665 22.989 49.6923 22.3125 48.0459 22.3125H22.9639Z"
            fill="url(#paint1_linear_5620_31713)"
        />
        <g filter="url(#filter1_f_5620_31713)">
            <path
                d="M20.5312 23.4375H49.7812L61.3495 35.2241C62.5913 36.4893 61.695 38.625 59.9222 38.625H48.2657C46.9283 38.625 45.6794 39.2934 44.9375 40.4062L43.9375 41.9063C43.1956 43.0191 41.9467 43.6875 40.6093 43.6875H31.3907C30.0533 43.6875 28.8044 43.0191 28.0625 41.9063L27.0625 40.4062C26.3206 39.2934 25.0717 38.625 23.7343 38.625H11.7047C9.98885 38.625 9.06959 36.6062 10.1961 35.312L20.5312 23.4375Z"
                fill="url(#paint2_linear_5620_31713)"
                fill-opacity="0.1"
            />
        </g>
        <path
            opacity="0.5"
            d="M61.9686 20.7673C62.1297 20.3319 62.7453 20.3319 62.9064 20.7673L63.1173 21.3372C63.168 21.4741 63.2759 21.582 63.4128 21.6327L63.9827 21.8436C64.4181 22.0047 64.4181 22.6203 63.9827 22.7814L63.4128 22.9923C63.2759 23.043 63.168 23.1509 63.1173 23.2878L62.9064 23.8577C62.7453 24.2931 62.1297 24.2931 61.9686 23.8577L61.7577 23.2878C61.707 23.1509 61.5991 23.043 61.4622 22.9923L60.8923 22.7814C60.4569 22.6203 60.4569 22.0047 60.8923 21.8436L61.4622 21.6327C61.5991 21.582 61.707 21.4741 61.7577 21.3372L61.9686 20.7673Z"
            fill="url(#paint3_linear_5620_31713)"
        />
        <path
            opacity="0.5"
            d="M49.5936 10.6423C49.7547 10.2069 50.3703 10.2069 50.5314 10.6423L50.7423 11.2122C50.793 11.3491 50.9009 11.457 51.0378 11.5077L51.6077 11.7186C52.0431 11.8797 52.0431 12.4953 51.6077 12.6564L51.0378 12.8673C50.9009 12.918 50.793 13.0259 50.7423 13.1628L50.5314 13.7327C50.3703 14.1681 49.7547 14.1681 49.5936 13.7327L49.3827 13.1628C49.332 13.0259 49.2241 12.918 49.0872 12.8673L48.5173 12.6564C48.0819 12.4953 48.0819 11.8797 48.5173 11.7186L49.0872 11.5077C49.2241 11.457 49.332 11.3491 49.3827 11.2122L49.5936 10.6423Z"
            fill="url(#paint4_linear_5620_31713)"
        />
        <path
            opacity="0.5"
            d="M8.53107 5.01725C8.69215 4.58194 9.30785 4.58194 9.46893 5.01725L10.4395 7.64012C10.4901 7.77698 10.598 7.88488 10.7349 7.93553L13.3577 8.90607C13.7931 9.06715 13.7931 9.68285 13.3577 9.84393L10.7349 10.8145C10.598 10.8651 10.4901 10.973 10.4395 11.1099L9.46893 13.7327C9.30785 14.1681 8.69215 14.1681 8.53107 13.7327L7.56053 11.1099C7.50988 10.973 7.40198 10.8651 7.26512 10.8145L4.64225 9.84393C4.20694 9.68285 4.20694 9.06715 4.64225 8.90607L7.26512 7.93553C7.40198 7.88488 7.50988 7.77698 7.56053 7.64012L8.53107 5.01725Z"
            fill="url(#paint5_linear_5620_31713)"
        />
    </g>
    <defs>
        <filter
            id="filter0_f_5620_31713"
            x="-5.25"
            y="43.5"
            width="82.5"
            height="28.5"
            filterUnits="userSpaceOnUse"
            color-interpolation-filters="sRGB"
        >
            <feFlood flood-opacity="0" result="BackgroundImageFix" />
            <feBlend mode="normal" in="SourceGraphic" in2="BackgroundImageFix" result="shape" />
            <feGaussianBlur stdDeviation="6" result="effect1_foregroundBlur_5620_31713" />
        </filter>
        <filter
            id="filter1_f_5620_31713"
            x="1.70068"
            y="15.4375"
            width="68.2256"
            height="36.25"
            filterUnits="userSpaceOnUse"
            color-interpolation-filters="sRGB"
        >
            <feFlood flood-opacity="0" result="BackgroundImageFix" />
            <feBlend mode="normal" in="SourceGraphic" in2="BackgroundImageFix" result="shape" />
            <feGaussianBlur stdDeviation="4" result="effect1_foregroundBlur_5620_31713" />
        </filter>
        <linearGradient
            id="paint0_linear_5620_31713"
            x1="65.8125"
            y1="21.75"
            x2="52.6662"
            y2="60.1585"
            gradientUnits="userSpaceOnUse"
        >
            <stop stop-color="#F6D8FF" />
            <stop offset="1" stop-color="#A171FA" />
        </linearGradient>
        <linearGradient
            id="paint1_linear_5620_31713"
            x1="66.375"
            y1="21.1875"
            x2="35.659"
            y2="75.7749"
            gradientUnits="userSpaceOnUse"
        >
            <stop stop-color="#FAEBFF" />
            <stop offset="1" stop-color="#EBAAFF" />
        </linearGradient>
        <linearGradient
            id="paint2_linear_5620_31713"
            x1="36.2812"
            y1="2.06248"
            x2="36.2812"
            y2="38.625"
            gradientUnits="userSpaceOnUse"
        >
            <stop stop-color="#FCFBF9" />
            <stop offset="1" stop-color="#F7F6F4" />
        </linearGradient>
        <linearGradient
            id="paint3_linear_5620_31713"
            x1="65.25"
            y1="19.5"
            x2="59.9119"
            y2="25.3852"
            gradientUnits="userSpaceOnUse"
        >
            <stop stop-color="#F6D8FF" />
            <stop offset="1" stop-color="#A171FA" />
        </linearGradient>
        <linearGradient
            id="paint4_linear_5620_31713"
            x1="52.875"
            y1="9.375"
            x2="47.5369"
            y2="15.2602"
            gradientUnits="userSpaceOnUse"
        >
            <stop stop-color="#F6D8FF" />
            <stop offset="1" stop-color="#A171FA" />
        </linearGradient>
        <linearGradient
            id="paint5_linear_5620_31713"
            x1="14.625"
            y1="3.75"
            x2="3.94883"
            y2="15.5205"
            gradientUnits="userSpaceOnUse"
        >
            <stop stop-color="#F6D8FF" />
            <stop offset="1" stop-color="#A171FA" />
        </linearGradient>
        <clipPath id="clip0_5620_31713">
            <rect width="72" height="72" fill="white" transform="translate(0 0.375)" />
        </clipPath>
    </defs>
</svg>
