<svg width="72" height="73" viewBox="0 0 72 73" fill="none" xmlns="http://www.w3.org/2000/svg">
    <g clip-path="url(#clip0_5620_31697)">
        <g filter="url(#filter0_f_5620_31697)">
            <ellipse cx="14.2041" cy="59.0994" rx="14.2041" ry="0.734694" fill="#1A4B7B" fill-opacity="0.2" />
        </g>
        <path
            fill-rule="evenodd"
            clip-rule="evenodd"
            d="M35.9999 0.878906C36.5409 0.878906 36.9795 1.31748 36.9795 1.8585V22.6505H53.1428C56.6594 22.6505 59.5101 25.5012 59.5101 29.0178V31.0611L60.5317 30.0394C60.9143 29.6569 61.5345 29.6569 61.9171 30.0394C62.2996 30.422 62.2996 31.0422 61.9171 31.4248L59.2376 34.1042C58.8471 34.4948 58.214 34.4948 57.8234 34.1042L55.144 31.4248C54.7614 31.0422 54.7614 30.422 55.144 30.0394C55.5265 29.6569 56.1468 29.6569 56.5293 30.0394L57.5509 31.0611V29.0178C57.5509 26.5833 55.5773 24.6097 53.1428 24.6097H19.3469C16.9123 24.6097 14.9387 26.5833 14.9387 29.0178V31.0611L15.9603 30.0394C16.3429 29.6569 16.9631 29.6569 17.3457 30.0394C17.7282 30.422 17.7282 31.0422 17.3457 31.4248L14.6662 34.1042C14.2757 34.4948 13.6425 34.4948 13.252 34.1042L10.5726 31.4248C10.19 31.0422 10.19 30.422 10.5726 30.0394C10.9551 29.6569 11.5754 29.6569 11.9579 30.0394L12.9795 31.0611V29.0178C12.9795 25.5012 15.8303 22.6505 19.3469 22.6505H35.0203V1.8585C35.0203 1.31748 35.4589 0.878906 35.9999 0.878906Z"
            fill="url(#paint0_linear_5620_31697)"
        />
        <g filter="url(#filter1_f_5620_31697)">
            <ellipse cx="58.919" cy="69.2012" rx="9.8985" ry="1.79973" fill="#9F6CF7" fill-opacity="0.2" />
        </g>
        <path
            d="M69.1177 67.401V67.403C69.1175 68.8939 65.2225 70.1022 60.4185 70.1022C55.6146 70.1021 51.7204 68.8938 51.7202 67.403V67.401L48.7212 43.1051H72.1177L69.1177 67.401Z"
            fill="url(#paint1_radial_5620_31697)"
        />
        <ellipse cx="60.4189" cy="43.0981" rx="11.6982" ry="1.79973" fill="url(#paint2_linear_5620_31697)" />
        <path
            d="M64.2305 41.4032C68.8196 41.6464 72.1167 42.3148 72.1172 43.1034C72.1172 44.0951 66.9041 44.8985 60.4639 44.9022C61.4757 43.4722 62.7583 42.2764 64.2305 41.4032Z"
            fill="url(#paint3_linear_5620_31697)"
        />
        <path
            d="M60.4189 41.7983C63.632 41.7983 66.5304 41.9991 68.6152 42.3198C69.6614 42.4808 70.4808 42.6689 71.0273 42.8677C71.2581 42.9516 71.419 43.0313 71.5234 43.0981C71.419 43.165 71.2581 43.2447 71.0273 43.3286C70.4808 43.5274 69.6614 43.7155 68.6152 43.8765C66.5304 44.1972 63.632 44.3979 60.4189 44.3979C57.2059 44.3979 54.3075 44.1972 52.2227 43.8765C51.1765 43.7155 50.3571 43.5274 49.8105 43.3286C49.5793 43.2445 49.4179 43.1651 49.3135 43.0981C49.4179 43.0312 49.5793 42.9518 49.8105 42.8677C50.3571 42.6689 51.1765 42.4808 52.2227 42.3198C54.3075 41.9991 57.2059 41.7983 60.4189 41.7983Z"
            stroke="#F8E2FF"
        />
        <path
            d="M59.8245 50.307C59.8214 49.9766 60.0884 49.7072 60.4188 49.7072C60.7492 49.7072 61.0161 49.9766 61.013 50.307L60.8729 65.1548C60.8706 65.404 60.6679 65.6047 60.4188 65.6047C60.1696 65.6047 59.9669 65.404 59.9646 65.1548L59.8245 50.307Z"
            fill="#EBAAFF"
        />
        <path
            d="M53.8755 49.743C53.8456 49.3969 54.1184 49.0995 54.4657 49.0995C54.7775 49.0995 55.0359 49.3411 55.0568 49.6521L56.037 64.2138C56.0546 64.4753 55.8472 64.6971 55.585 64.6971C55.35 64.6971 55.1541 64.5174 55.1338 64.2832L53.8755 49.743Z"
            fill="#EBAAFF"
        />
        <path
            d="M65.4809 49.9505C65.5018 49.6394 65.7603 49.3978 66.072 49.3978C66.4194 49.3978 66.6922 49.6953 66.6622 50.0413L65.4039 64.5816C65.3837 64.8157 65.1877 64.9955 64.9527 64.9955C64.6906 64.9955 64.4832 64.7736 64.5008 64.5121L65.4809 49.9505Z"
            fill="#EBAAFF"
        />
        <path
            d="M69.1172 67.3959V67.3978C69.1169 68.8887 65.222 70.098 60.418 70.098C55.6143 70.0979 51.72 68.8886 51.7197 67.3978V67.3959L51.5117 65.7103C54.0938 66.9672 57.147 67.6947 60.4189 67.6947C63.6906 67.6947 66.7433 66.9671 69.3252 65.7103L69.1172 67.3959Z"
            fill="url(#paint4_linear_5620_31697)"
        />
        <path
            d="M69.1172 67.3959V67.3978C69.1169 68.8887 65.222 70.098 60.418 70.098C55.6143 70.0979 51.72 68.8886 51.7197 67.3978V67.3959L51.5117 65.7103C54.0938 66.9672 57.147 67.6947 60.4189 67.6947C63.6906 67.6947 66.7433 66.9671 69.3252 65.7103L69.1172 67.3959Z"
            fill="url(#paint5_radial_5620_31697)"
            fill-opacity="0.2"
        />
        <path
            d="M0.299805 43.1008C0.299805 42.4928 0.792652 42 1.40061 42L8.50013 42C8.94166 42 9.373 42.1328 9.73811 42.381C10.1032 42.6293 10.4421 43.6375 10.9108 44.0185C11.3794 44.3996 11.7072 44.3996 12.1487 44.3996L30.3943 44.3996C31.0022 44.3996 31.4951 44.8924 31.4951 45.5004L31.4951 62.0569C31.4951 65.198 28.9487 67.7443 25.8076 67.7443H1.95101C0.299805 67.796 0.299805 67.0051 0.299805 66.0931V43.1008Z"
            fill="url(#paint6_linear_5620_31697)"
        />
        <path
            d="M5.05887 50.3651C5.36226 49.3196 6.31992 48.6003 7.40853 48.6003H35.0355C36.2624 48.6003 37.1437 49.7813 36.7945 50.9575L32.3148 66.0471C32.0066 67.0854 31.0524 67.7974 29.9694 67.7974H2.44316C1.22089 67.7974 0.340264 66.6249 0.680912 65.4511L5.05887 50.3651Z"
            fill="url(#paint7_linear_5620_31697)"
        />
        <path d="M1.02065 64.33H32.9312L32.6809 65.1957H0.774902L1.02065 64.33Z" fill="white" fill-opacity="0.1" />
    </g>
    <defs>
        <filter
            id="filter0_f_5620_31697"
            x="-4"
            y="54.3647"
            width="36.4082"
            height="9.46936"
            filterUnits="userSpaceOnUse"
            color-interpolation-filters="sRGB"
        >
            <feFlood flood-opacity="0" result="BackgroundImageFix" />
            <feBlend mode="normal" in="SourceGraphic" in2="BackgroundImageFix" result="shape" />
            <feGaussianBlur stdDeviation="2" result="effect1_foregroundBlur_5620_31697" />
        </filter>
        <filter
            id="filter1_f_5620_31697"
            x="45.0205"
            y="63.4015"
            width="27.7969"
            height="11.5995"
            filterUnits="userSpaceOnUse"
            color-interpolation-filters="sRGB"
        >
            <feFlood flood-opacity="0" result="BackgroundImageFix" />
            <feBlend mode="normal" in="SourceGraphic" in2="BackgroundImageFix" result="shape" />
            <feGaussianBlur stdDeviation="2" result="effect1_foregroundBlur_5620_31697" />
        </filter>
        <linearGradient
            id="paint0_linear_5620_31697"
            x1="50.204"
            y1="12.0791"
            x2="48.7554"
            y2="33.2957"
            gradientUnits="userSpaceOnUse"
        >
            <stop stop-color="#FFD7B3" />
            <stop offset="1" stop-color="#FFB39B" />
        </linearGradient>
        <radialGradient
            id="paint1_radial_5620_31697"
            cx="0"
            cy="0"
            r="1"
            gradientTransform="matrix(-23.3965 23.3755 -20.8232 -23.9561 72.1177 46.0682)"
            gradientUnits="userSpaceOnUse"
        >
            <stop stop-color="#FAEBFF" />
            <stop offset="1" stop-color="#EBAAFF" />
        </radialGradient>
        <linearGradient
            id="paint2_linear_5620_31697"
            x1="60.4189"
            y1="43.0981"
            x2="60.6875"
            y2="49.8363"
            gradientUnits="userSpaceOnUse"
        >
            <stop stop-color="#A171FA" />
            <stop offset="1" stop-color="#EBAAFF" />
        </linearGradient>
        <linearGradient
            id="paint3_linear_5620_31697"
            x1="64.9203"
            y1="41.3057"
            x2="64.3211"
            y2="45.9514"
            gradientUnits="userSpaceOnUse"
        >
            <stop stop-color="#A171FA" />
            <stop offset="1" stop-color="#8750EE" stop-opacity="0" />
        </linearGradient>
        <linearGradient
            id="paint4_linear_5620_31697"
            x1="81.3584"
            y1="61.2635"
            x2="48.9573"
            y2="70.2409"
            gradientUnits="userSpaceOnUse"
        >
            <stop stop-color="#F7DBFF" />
            <stop offset="1" stop-color="#E89DFF" />
        </linearGradient>
        <radialGradient
            id="paint5_radial_5620_31697"
            cx="0"
            cy="0"
            r="1"
            gradientUnits="userSpaceOnUse"
            gradientTransform="translate(66.4178 58.9872) rotate(90) scale(8.85859 8.84891)"
        >
            <stop />
            <stop offset="1" stop-opacity="0" />
        </radialGradient>
        <linearGradient
            id="paint6_linear_5620_31697"
            x1="31.6525"
            y1="42.0288"
            x2="8.54554"
            y2="73.9189"
            gradientUnits="userSpaceOnUse"
        >
            <stop stop-color="#8BD4EB" />
            <stop offset="1" stop-color="#106CD7" />
        </linearGradient>
        <linearGradient
            id="paint7_linear_5620_31697"
            x1="37.5236"
            y1="48.4515"
            x2="23.6618"
            y2="78.429"
            gradientUnits="userSpaceOnUse"
        >
            <stop stop-color="#BDEFFF" />
            <stop offset="1" stop-color="#1FA7F3" />
        </linearGradient>
        <clipPath id="clip0_5620_31697">
            <rect width="72" height="72" fill="white" transform="translate(0 0.875)" />
        </clipPath>
    </defs>
</svg>
