<svg width="264" height="264" viewBox="0 0 264 264" fill="none" xmlns="http://www.w3.org/2000/svg">
    <g clip-path="url(#clip0_5026_2212)">
        <circle opacity="0.4" cx="132" cy="63.9385" r="64" fill="url(#paint0_radial_5026_2212)" />
        <path
            fill-rule="evenodd"
            clip-rule="evenodd"
            d="M144.25 105.339C143.283 105.339 142.5 104.555 142.5 103.589L142.5 45.414L134.987 52.9266C134.304 53.61 133.196 53.61 132.513 52.9266C131.829 52.2432 131.829 51.1351 132.513 50.4517L143.013 39.9517C143.696 39.2683 144.804 39.2683 145.487 39.9517L155.987 50.4517C156.671 51.1351 156.671 52.2432 155.987 52.9266C155.304 53.61 154.196 53.61 153.513 52.9266L146 45.414L146 103.589C146 104.555 145.216 105.339 144.25 105.339Z"
            fill="url(#paint1_linear_5026_2212)"
        />
        <path
            fill-rule="evenodd"
            clip-rule="evenodd"
            d="M120.987 87.9269C120.304 88.6103 119.196 88.6103 118.513 87.9269L108.013 77.4269C107.329 76.7435 107.329 75.6354 108.013 74.952C108.696 74.2686 109.804 74.2686 110.487 74.952L118 82.4646L118 24.2897C118 23.3232 118.784 22.5397 119.75 22.5397C120.716 22.5397 121.5 23.3232 121.5 24.2897L121.5 82.4646L129.013 74.952C129.696 74.2686 130.804 74.2686 131.487 74.952C132.171 75.6354 132.171 76.7435 131.487 77.4269L120.987 87.9269Z"
            fill="url(#paint2_linear_5026_2212)"
        />
        <g filter="url(#filter0_i_5026_2212)">
            <path
                d="M154.167 113.938C159.629 113.939 163.999 118.592 163.999 124.273V219.543C164.056 225.285 159.629 229.938 154.167 229.938H109.833C104.428 229.938 100 225.285 100 219.543V124.273C100 118.592 104.428 113.938 109.833 113.938H154.167ZM111 117.938C107.134 117.938 104 121.072 104 124.938V218.938C104 222.804 107.134 225.938 111 225.938H153C156.866 225.938 160 222.804 160 218.938V124.938C160 121.072 156.866 117.938 153 117.938H111Z"
                fill="#3B3747"
            />
            <path
                d="M154.167 113.938C159.629 113.939 163.999 118.592 163.999 124.273V219.543C164.056 225.285 159.629 229.938 154.167 229.938H109.833C104.428 229.938 100 225.285 100 219.543V124.273C100 118.592 104.428 113.938 109.833 113.938H154.167ZM111 117.938C107.134 117.938 104 121.072 104 124.938V218.938C104 222.804 107.134 225.938 111 225.938H153C156.866 225.938 160 222.804 160 218.938V124.938C160 121.072 156.866 117.938 153 117.938H111Z"
                fill="url(#paint3_linear_5026_2212)"
                fill-opacity="0.2"
            />
        </g>
        <path
            d="M104 124.938C104 121.072 107.134 117.938 111 117.938H153C156.866 117.938 160 121.072 160 124.938V218.938C160 222.804 156.866 225.938 153 225.938H111C107.134 225.938 104 222.804 104 218.938V124.938Z"
            fill="white"
            fill-opacity="0.3"
        />
        <path
            d="M104 124.938C104 121.072 107.134 117.938 111 117.938H153C156.866 117.938 160 121.072 160 124.938V218.938C160 222.804 156.866 225.938 153 225.938H111C107.134 225.938 104 222.804 104 218.938V124.938Z"
            fill="url(#paint4_linear_5026_2212)"
            fill-opacity="0.4"
        />
        <path
            d="M111 118.089H153C156.783 118.089 159.85 121.155 159.85 124.938V218.938C159.85 222.722 156.783 225.788 153 225.788H111C107.217 225.788 104.15 222.722 104.15 218.938V124.938C104.15 121.155 107.217 118.089 111 118.089Z"
            stroke="url(#paint5_linear_5026_2212)"
            stroke-opacity="0.5"
            stroke-width="0.3"
        />
        <g filter="url(#filter1_d_5026_2212)">
            <path
                d="M112 151.185C112 145.526 116.588 140.938 122.247 140.938H142.753C148.412 140.938 153 145.526 153 151.185V171.692C153 177.351 148.412 181.938 142.753 181.938H122.247C116.588 181.938 112 177.351 112 171.692V151.185Z"
                fill="white"
            />
            <path
                d="M112 151.185C112 145.526 116.588 140.938 122.247 140.938H142.753C148.412 140.938 153 145.526 153 151.185V171.692C153 177.351 148.412 181.938 142.753 181.938H122.247C116.588 181.938 112 177.351 112 171.692V151.185Z"
                fill="url(#paint6_linear_5026_2212)"
            />
            <path
                d="M122.247 141.296H142.753C148.215 141.296 152.643 145.724 152.643 151.186V171.691C152.643 177.153 148.215 181.581 142.753 181.581H122.247C116.785 181.581 112.357 177.153 112.357 171.691V151.186C112.357 145.724 116.785 141.296 122.247 141.296Z"
                stroke="url(#paint7_linear_5026_2212)"
                stroke-width="0.714286"
            />
        </g>
        <ellipse cx="128.406" cy="171.438" rx="3.5" ry="1.75" fill="url(#paint8_radial_5026_2212)" />
        <g filter="url(#filter2_i_5026_2212)">
            <path
                fill-rule="evenodd"
                clip-rule="evenodd"
                d="M145.301 153.776C145.471 153.948 145.469 154.224 145.298 154.394L128.898 170.667C128.556 171.006 128.006 171.006 127.665 170.667L121.232 164.284C120.889 163.944 120.887 163.39 121.228 163.047L122.46 161.805C122.8 161.462 123.354 161.46 123.698 161.8L127.706 165.777C128.031 166.099 128.548 166.117 128.894 165.818L143.856 152.894C144.03 152.743 144.292 152.753 144.454 152.917L145.301 153.776Z"
                fill="url(#paint9_linear_5026_2212)"
            />
        </g>
        <path
            d="M124 121.938C124 120.834 124.895 119.938 126 119.938H139C140.105 119.938 141 120.834 141 121.938C141 123.043 140.105 123.938 139 123.938H126C124.895 123.938 124 123.043 124 121.938Z"
            fill="#3B3747"
        />
        <path
            d="M126 120.089H139C140.022 120.089 140.85 120.917 140.85 121.938C140.85 122.96 140.022 123.788 139 123.788H126C124.978 123.788 124.15 122.96 124.15 121.938C124.15 120.917 124.978 120.089 126 120.089Z"
            stroke="url(#paint10_linear_5026_2212)"
            stroke-opacity="0.5"
            stroke-width="0.300616"
        />
    </g>
    <defs>
        <filter
            id="filter0_i_5026_2212"
            x="100"
            y="113.938"
            width="63.9995"
            height="116.5"
            filterUnits="userSpaceOnUse"
            color-interpolation-filters="sRGB"
        >
            <feFlood flood-opacity="0" result="BackgroundImageFix" />
            <feBlend mode="normal" in="SourceGraphic" in2="BackgroundImageFix" result="shape" />
            <feColorMatrix
                in="SourceAlpha"
                type="matrix"
                values="0 0 0 0 0 0 0 0 0 0 0 0 0 0 0 0 0 0 127 0"
                result="hardAlpha"
            />
            <feOffset dy="0.5" />
            <feGaussianBlur stdDeviation="0.25" />
            <feComposite in2="hardAlpha" operator="arithmetic" k2="-1" k3="1" />
            <feColorMatrix type="matrix" values="0 0 0 0 1 0 0 0 0 1 0 0 0 0 1 0 0 0 0.4 0" />
            <feBlend mode="normal" in2="shape" result="effect1_innerShadow_5026_2212" />
        </filter>
        <filter
            id="filter1_d_5026_2212"
            x="107.2"
            y="137.338"
            width="50.6"
            height="50.6"
            filterUnits="userSpaceOnUse"
            color-interpolation-filters="sRGB"
        >
            <feFlood flood-opacity="0" result="BackgroundImageFix" />
            <feColorMatrix
                in="SourceAlpha"
                type="matrix"
                values="0 0 0 0 0 0 0 0 0 0 0 0 0 0 0 0 0 0 127 0"
                result="hardAlpha"
            />
            <feOffset dy="1.2" />
            <feGaussianBlur stdDeviation="2.4" />
            <feComposite in2="hardAlpha" operator="out" />
            <feColorMatrix type="matrix" values="0 0 0 0 0 0 0 0 0 0 0 0 0 0 0 0 0 0 0.15 0" />
            <feBlend mode="normal" in2="BackgroundImageFix" result="effect1_dropShadow_5026_2212" />
            <feBlend mode="normal" in="SourceGraphic" in2="effect1_dropShadow_5026_2212" result="shape" />
        </filter>
        <filter
            id="filter2_i_5026_2212"
            x="120.974"
            y="152.787"
            width="24.4536"
            height="21.1338"
            filterUnits="userSpaceOnUse"
            color-interpolation-filters="sRGB"
        >
            <feFlood flood-opacity="0" result="BackgroundImageFix" />
            <feBlend mode="normal" in="SourceGraphic" in2="BackgroundImageFix" result="shape" />
            <feColorMatrix
                in="SourceAlpha"
                type="matrix"
                values="0 0 0 0 0 0 0 0 0 0 0 0 0 0 0 0 0 0 127 0"
                result="hardAlpha"
            />
            <feOffset dy="3" />
            <feGaussianBlur stdDeviation="2" />
            <feComposite in2="hardAlpha" operator="arithmetic" k2="-1" k3="1" />
            <feColorMatrix type="matrix" values="0 0 0 0 1 0 0 0 0 1 0 0 0 0 1 0 0 0 0.25 0" />
            <feBlend mode="normal" in2="shape" result="effect1_innerShadow_5026_2212" />
        </filter>
        <radialGradient
            id="paint0_radial_5026_2212"
            cx="0"
            cy="0"
            r="1"
            gradientUnits="userSpaceOnUse"
            gradientTransform="translate(132 63.9385) rotate(90) scale(64)"
        >
            <stop stop-color="#2CFFCC" stop-opacity="0.5" />
            <stop offset="0.35" stop-color="#2CFFCC" stop-opacity="0.45" />
            <stop offset="0.75" stop-color="#2CFFCC" stop-opacity="0.15" />
            <stop offset="1" stop-color="#2CFFCC" stop-opacity="0" />
        </radialGradient>
        <linearGradient
            id="paint1_linear_5026_2212"
            x1="143.879"
            y1="37.2119"
            x2="130.292"
            y2="98.2482"
            gradientUnits="userSpaceOnUse"
        >
            <stop stop-color="#00E6D2" />
            <stop offset="1" stop-color="#00E6D2" stop-opacity="0" />
        </linearGradient>
        <linearGradient
            id="paint2_linear_5026_2212"
            x1="119.379"
            y1="20.3125"
            x2="105.792"
            y2="81.3488"
            gradientUnits="userSpaceOnUse"
        >
            <stop stop-color="#00E6D2" stop-opacity="0" />
            <stop offset="1" stop-color="#00E6D2" />
        </linearGradient>
        <linearGradient
            id="paint3_linear_5026_2212"
            x1="148.472"
            y1="279.46"
            x2="76.5582"
            y2="255.539"
            gradientUnits="userSpaceOnUse"
        >
            <stop stop-color="white" />
            <stop offset="0.553424" stop-color="white" stop-opacity="0" />
        </linearGradient>
        <linearGradient
            id="paint4_linear_5026_2212"
            x1="160"
            y1="117.938"
            x2="71.41"
            y2="177.309"
            gradientUnits="userSpaceOnUse"
        >
            <stop stop-color="#A892FF" />
            <stop offset="1" stop-color="#625592" />
        </linearGradient>
        <linearGradient
            id="paint5_linear_5026_2212"
            x1="132"
            y1="117.938"
            x2="132"
            y2="225.938"
            gradientUnits="userSpaceOnUse"
        >
            <stop stop-color="white" />
            <stop offset="1" stop-color="white" stop-opacity="0.6" />
        </linearGradient>
        <linearGradient
            id="paint6_linear_5026_2212"
            x1="132.5"
            y1="154.938"
            x2="132.5"
            y2="181.938"
            gradientUnits="userSpaceOnUse"
        >
            <stop stop-color="#2C2060" stop-opacity="0" />
            <stop offset="1" stop-color="#2C2060" stop-opacity="0.1" />
        </linearGradient>
        <linearGradient
            id="paint7_linear_5026_2212"
            x1="132.5"
            y1="140.938"
            x2="132.5"
            y2="181.938"
            gradientUnits="userSpaceOnUse"
        >
            <stop stop-color="white" />
            <stop offset="1" stop-color="white" stop-opacity="0.6" />
        </linearGradient>
        <radialGradient
            id="paint8_radial_5026_2212"
            cx="0"
            cy="0"
            r="1"
            gradientUnits="userSpaceOnUse"
            gradientTransform="translate(128.406 171.438) scale(3.5 1.75)"
        >
            <stop stop-color="#6D4AFF" stop-opacity="0.15" />
            <stop offset="1" stop-color="#6D4AFF" stop-opacity="0" />
        </radialGradient>
        <linearGradient
            id="paint9_linear_5026_2212"
            x1="145.608"
            y1="152.626"
            x2="129.096"
            y2="177.021"
            gradientUnits="userSpaceOnUse"
        >
            <stop stop-color="#D783FF" />
            <stop offset="1" stop-color="#6D4AFF" />
        </linearGradient>
        <linearGradient
            id="paint10_linear_5026_2212"
            x1="132.5"
            y1="119.938"
            x2="132.5"
            y2="123.938"
            gradientUnits="userSpaceOnUse"
        >
            <stop stop-color="white" />
            <stop offset="1" stop-color="white" stop-opacity="0.6" />
        </linearGradient>
        <clipPath id="clip0_5026_2212">
            <rect width="264" height="264" fill="white" />
        </clipPath>
    </defs>
</svg>
