<svg width="264" height="264" viewBox="0 0 264 264" fill="none" xmlns="http://www.w3.org/2000/svg">
    <g clip-path="url(#clip0_5183_8165)">
        <circle opacity="0.4" cx="132" cy="63.9385" r="64" fill="url(#paint0_radial_5183_8165)" />
        <path
            d="M115 80.9394L149 46.9395M115 46.9395L149 80.9395"
            stroke="url(#paint1_linear_5183_8165)"
            stroke-width="4"
            stroke-linecap="round"
        />
        <g filter="url(#filter0_i_5183_8165)">
            <path
                d="M154.167 113.938C159.629 113.939 163.999 118.592 163.999 124.273V219.543C164.056 225.285 159.629 229.938 154.167 229.938H109.833C104.428 229.938 100 225.285 100 219.543V124.273C100 118.592 104.428 113.938 109.833 113.938H154.167ZM111 117.938C107.134 117.938 104 121.072 104 124.938V218.938C104 222.804 107.134 225.938 111 225.938H153C156.866 225.938 160 222.804 160 218.938V124.938C160 121.072 156.866 117.938 153 117.938H111Z"
                fill="#3B3747"
            />
            <path
                d="M154.167 113.938C159.629 113.939 163.999 118.592 163.999 124.273V219.543C164.056 225.285 159.629 229.938 154.167 229.938H109.833C104.428 229.938 100 225.285 100 219.543V124.273C100 118.592 104.428 113.938 109.833 113.938H154.167ZM111 117.938C107.134 117.938 104 121.072 104 124.938V218.938C104 222.804 107.134 225.938 111 225.938H153C156.866 225.938 160 222.804 160 218.938V124.938C160 121.072 156.866 117.938 153 117.938H111Z"
                fill="url(#paint2_linear_5183_8165)"
                fill-opacity="0.2"
            />
        </g>
        <path
            d="M104 124.938C104 121.072 107.134 117.938 111 117.938H153C156.866 117.938 160 121.072 160 124.938V218.938C160 222.804 156.866 225.938 153 225.938H111C107.134 225.938 104 222.804 104 218.938V124.938Z"
            fill="white"
            fill-opacity="0.3"
        />
        <path
            d="M104 124.938C104 121.072 107.134 117.938 111 117.938H153C156.866 117.938 160 121.072 160 124.938V218.938C160 222.804 156.866 225.938 153 225.938H111C107.134 225.938 104 222.804 104 218.938V124.938Z"
            fill="url(#paint3_linear_5183_8165)"
            fill-opacity="0.4"
        />
        <path
            d="M111 118.089H153C156.783 118.089 159.85 121.155 159.85 124.938V218.938C159.85 222.722 156.783 225.788 153 225.788H111C107.217 225.788 104.15 222.722 104.15 218.938V124.938C104.15 121.155 107.217 118.089 111 118.089Z"
            stroke="url(#paint4_linear_5183_8165)"
            stroke-opacity="0.5"
            stroke-width="0.3"
        />
        <g filter="url(#filter1_d_5183_8165)">
            <path
                d="M112 151.247C112 145.588 116.588 141 122.247 141H142.753C148.412 141 153 145.588 153 151.247V171.753C153 177.412 148.412 182 142.753 182H122.247C116.588 182 112 177.412 112 171.753V151.247Z"
                fill="white"
            />
            <path
                d="M112 151.247C112 145.588 116.588 141 122.247 141H142.753C148.412 141 153 145.588 153 151.247V171.753C153 177.412 148.412 182 142.753 182H122.247C116.588 182 112 177.412 112 171.753V151.247Z"
                fill="url(#paint5_linear_5183_8165)"
            />
            <path
                d="M122.247 141.357H142.753C148.215 141.357 152.643 145.785 152.643 151.247V171.753C152.643 177.215 148.215 181.643 142.753 181.643H122.247C116.785 181.643 112.357 177.215 112.357 171.753V151.247C112.357 145.785 116.785 141.357 122.247 141.357Z"
                stroke="url(#paint6_linear_5183_8165)"
                stroke-width="0.714286"
            />
        </g>
        <path
            fill-rule="evenodd"
            clip-rule="evenodd"
            d="M132.5 172C138.299 172 143 167.299 143 161.5C143 155.701 138.299 151 132.5 151C126.701 151 122 155.701 122 161.5C122 167.299 126.701 172 132.5 172ZM132.5 155.5C133.349 155.5 134.007 156.244 133.901 157.087L133.244 162.343C133.197 162.718 132.878 163 132.5 163C132.122 163 131.803 162.718 131.756 162.343L131.099 157.087C130.993 156.244 131.651 155.5 132.5 155.5ZM132.5 166.6C133.08 166.6 133.55 166.13 133.55 165.55C133.55 164.97 133.08 164.5 132.5 164.5C131.92 164.5 131.45 164.97 131.45 165.55C131.45 166.13 131.92 166.6 132.5 166.6Z"
            fill="url(#paint7_linear_5183_8165)"
        />
        <path
            d="M124 121.938C124 120.834 124.895 119.938 126 119.938H139C140.105 119.938 141 120.834 141 121.938C141 123.043 140.105 123.938 139 123.938H126C124.895 123.938 124 123.043 124 121.938Z"
            fill="#3B3747"
        />
        <path
            d="M126 120.089H139C140.022 120.089 140.85 120.917 140.85 121.938C140.85 122.96 140.022 123.788 139 123.788H126C124.978 123.788 124.15 122.96 124.15 121.938C124.15 120.917 124.978 120.089 126 120.089Z"
            stroke="url(#paint8_linear_5183_8165)"
            stroke-opacity="0.5"
            stroke-width="0.300616"
        />
    </g>
    <defs>
        <filter
            id="filter0_i_5183_8165"
            x="100"
            y="113.938"
            width="63.9995"
            height="116.5"
            filterUnits="userSpaceOnUse"
            color-interpolation-filters="sRGB"
        >
            <feFlood flood-opacity="0" result="BackgroundImageFix" />
            <feBlend mode="normal" in="SourceGraphic" in2="BackgroundImageFix" result="shape" />
            <feColorMatrix
                in="SourceAlpha"
                type="matrix"
                values="0 0 0 0 0 0 0 0 0 0 0 0 0 0 0 0 0 0 127 0"
                result="hardAlpha"
            />
            <feOffset dy="0.5" />
            <feGaussianBlur stdDeviation="0.25" />
            <feComposite in2="hardAlpha" operator="arithmetic" k2="-1" k3="1" />
            <feColorMatrix type="matrix" values="0 0 0 0 1 0 0 0 0 1 0 0 0 0 1 0 0 0 0.4 0" />
            <feBlend mode="normal" in2="shape" result="effect1_innerShadow_5183_8165" />
        </filter>
        <filter
            id="filter1_d_5183_8165"
            x="107.2"
            y="137.4"
            width="50.6"
            height="50.6"
            filterUnits="userSpaceOnUse"
            color-interpolation-filters="sRGB"
        >
            <feFlood flood-opacity="0" result="BackgroundImageFix" />
            <feColorMatrix
                in="SourceAlpha"
                type="matrix"
                values="0 0 0 0 0 0 0 0 0 0 0 0 0 0 0 0 0 0 127 0"
                result="hardAlpha"
            />
            <feOffset dy="1.2" />
            <feGaussianBlur stdDeviation="2.4" />
            <feComposite in2="hardAlpha" operator="out" />
            <feColorMatrix type="matrix" values="0 0 0 0 0 0 0 0 0 0 0 0 0 0 0 0 0 0 0.15 0" />
            <feBlend mode="normal" in2="BackgroundImageFix" result="effect1_dropShadow_5183_8165" />
            <feBlend mode="normal" in="SourceGraphic" in2="effect1_dropShadow_5183_8165" result="shape" />
        </filter>
        <radialGradient
            id="paint0_radial_5183_8165"
            cx="0"
            cy="0"
            r="1"
            gradientUnits="userSpaceOnUse"
            gradientTransform="translate(132 63.9385) rotate(90) scale(64)"
        >
            <stop stop-color="#F08FA4" stop-opacity="0.5" />
            <stop offset="0.35" stop-color="#F08FA4" stop-opacity="0.45" />
            <stop offset="0.75" stop-color="#F08FA4" stop-opacity="0.15" />
            <stop offset="1" stop-color="#F08FA4" stop-opacity="0" />
        </radialGradient>
        <linearGradient
            id="paint1_linear_5183_8165"
            x1="132.515"
            y1="45.7905"
            x2="135.232"
            y2="78.6167"
            gradientUnits="userSpaceOnUse"
        >
            <stop stop-color="#FA6887" />
            <stop offset="1" stop-color="#F08FA4" />
        </linearGradient>
        <linearGradient
            id="paint2_linear_5183_8165"
            x1="148.472"
            y1="279.46"
            x2="76.5582"
            y2="255.539"
            gradientUnits="userSpaceOnUse"
        >
            <stop stop-color="white" />
            <stop offset="0.553424" stop-color="white" stop-opacity="0" />
        </linearGradient>
        <linearGradient
            id="paint3_linear_5183_8165"
            x1="160"
            y1="117.938"
            x2="71.41"
            y2="177.309"
            gradientUnits="userSpaceOnUse"
        >
            <stop stop-color="#A892FF" />
            <stop offset="1" stop-color="#625592" />
        </linearGradient>
        <linearGradient
            id="paint4_linear_5183_8165"
            x1="132"
            y1="117.938"
            x2="132"
            y2="225.938"
            gradientUnits="userSpaceOnUse"
        >
            <stop stop-color="white" />
            <stop offset="1" stop-color="white" stop-opacity="0.6" />
        </linearGradient>
        <linearGradient
            id="paint5_linear_5183_8165"
            x1="132.5"
            y1="155"
            x2="132.5"
            y2="182"
            gradientUnits="userSpaceOnUse"
        >
            <stop stop-color="#2C2060" stop-opacity="0" />
            <stop offset="1" stop-color="#2C2060" stop-opacity="0.1" />
        </linearGradient>
        <linearGradient
            id="paint6_linear_5183_8165"
            x1="132.5"
            y1="141"
            x2="132.5"
            y2="182"
            gradientUnits="userSpaceOnUse"
        >
            <stop stop-color="white" />
            <stop offset="1" stop-color="white" stop-opacity="0.6" />
        </linearGradient>
        <linearGradient
            id="paint7_linear_5183_8165"
            x1="132.5"
            y1="151"
            x2="132.5"
            y2="172"
            gradientUnits="userSpaceOnUse"
        >
            <stop stop-color="#FF6B7D" />
            <stop offset="1" stop-color="#FA387D" />
        </linearGradient>
        <linearGradient
            id="paint8_linear_5183_8165"
            x1="132.5"
            y1="119.938"
            x2="132.5"
            y2="123.938"
            gradientUnits="userSpaceOnUse"
        >
            <stop stop-color="white" />
            <stop offset="1" stop-color="white" stop-opacity="0.6" />
        </linearGradient>
        <clipPath id="clip0_5183_8165">
            <rect width="264" height="264" fill="white" />
        </clipPath>
    </defs>
</svg>
