<svg width="240" height="135" viewBox="0 0 240 135" fill="none" xmlns="http://www.w3.org/2000/svg">
    <g opacity="0.3" filter="url(#filter0_f_5026_2142)">
        <path d="M120.694 114.844L120.693 125.156H37.5L50.2985 114.844H120.694Z" fill="black" />
        <path d="M202.5 125.156H120.693L120.694 114.844H189.914L202.5 125.156Z" fill="black" />
    </g>
    <path
        d="M75.6346 112.211C73.5192 112.788 64.2115 117.288 57.75 123.75"
        stroke="#56535D"
        stroke-width="4.61538"
        stroke-linecap="round"
    />
    <path
        d="M75.6346 112.211C73.5192 112.788 64.2115 117.288 57.75 123.75"
        stroke="url(#paint0_linear_5026_2142)"
        stroke-width="4.61538"
        stroke-linecap="round"
    />
    <path
        d="M165.058 112.211C167.173 112.788 176.481 117.288 182.942 123.75"
        stroke="#56535D"
        stroke-width="4.61538"
        stroke-linecap="round"
    />
    <path
        d="M165.058 112.211C167.173 112.788 176.481 117.288 182.942 123.75"
        stroke="url(#paint1_linear_5026_2142)"
        stroke-width="4.61538"
        stroke-linecap="round"
    />
    <g filter="url(#filter1_i_5026_2142)">
        <rect x="27.75" y="11.25" width="184.5" height="103.5" rx="4.61538" fill="#3B3747" />
        <rect
            x="27.75"
            y="11.25"
            width="184.5"
            height="103.5"
            rx="4.61538"
            fill="url(#paint2_linear_5026_2142)"
            fill-opacity="0.2"
        />
    </g>
    <rect x="31.5" y="15" width="177" height="96.75" rx="2.30769" fill="url(#paint3_linear_5026_2142)" />
    <path
        d="M130.496 84.9536H110.254C109.009 84.9536 108 85.9628 108 87.2078C108 88.4527 109.009 89.462 110.254 89.462H130.496C131.741 89.462 132.75 88.4527 132.75 87.2078C132.75 85.9628 131.741 84.9536 130.496 84.9536Z"
        fill="#E1DDF1"
        fill-opacity="0.35"
    />
    <path
        d="M120.472 76.9447C130.674 76.9447 138.945 68.6743 138.945 58.4723C138.945 48.2703 130.674 40 120.472 40C110.27 40 102 48.2703 102 58.4723C102 68.6743 110.27 76.9447 120.472 76.9447Z"
        fill="#E1DDF1"
        fill-opacity="0.24"
    />
    <path
        d="M120.473 62.0768C124.359 62.0768 127.51 58.9262 127.51 55.0398C127.51 51.1533 124.359 48.0027 120.473 48.0027C116.586 48.0027 113.436 51.1533 113.436 55.0398C113.436 58.9262 116.586 62.0768 120.473 62.0768Z"
        fill="#E1DDF1"
    />
    <path
        d="M120.472 76.9469C125.662 76.9469 130.324 74.8358 133.667 71.4052C130.588 67.4908 125.838 65.0278 120.472 65.0278C115.106 65.0278 110.356 67.5348 107.278 71.4052C110.62 74.7918 115.282 76.9469 120.472 76.9469Z"
        fill="#E1DDF1"
    />
    <defs>
        <filter
            id="filter0_f_5026_2142"
            x="28.5204"
            y="105.864"
            width="182.959"
            height="28.2717"
            filterUnits="userSpaceOnUse"
            color-interpolation-filters="sRGB"
        >
            <feFlood flood-opacity="0" result="BackgroundImageFix" />
            <feBlend mode="normal" in="SourceGraphic" in2="BackgroundImageFix" result="shape" />
            <feGaussianBlur stdDeviation="4.4898" result="effect1_foregroundBlur_5026_2142" />
        </filter>
        <filter
            id="filter1_i_5026_2142"
            x="27.75"
            y="11.25"
            width="184.5"
            height="104.784"
            filterUnits="userSpaceOnUse"
            color-interpolation-filters="sRGB"
        >
            <feFlood flood-opacity="0" result="BackgroundImageFix" />
            <feBlend mode="normal" in="SourceGraphic" in2="BackgroundImageFix" result="shape" />
            <feColorMatrix
                in="SourceAlpha"
                type="matrix"
                values="0 0 0 0 0 0 0 0 0 0 0 0 0 0 0 0 0 0 127 0"
                result="hardAlpha"
            />
            <feOffset dy="1.28365" />
            <feGaussianBlur stdDeviation="0.641827" />
            <feComposite in2="hardAlpha" operator="arithmetic" k2="-1" k3="1" />
            <feColorMatrix type="matrix" values="0 0 0 0 1 0 0 0 0 1 0 0 0 0 1 0 0 0 0.45 0" />
            <feBlend mode="normal" in2="shape" result="effect1_innerShadow_5026_2142" />
        </filter>
        <linearGradient
            id="paint0_linear_5026_2142"
            x1="69.2885"
            y1="112.788"
            x2="63.5192"
            y2="118.558"
            gradientUnits="userSpaceOnUse"
        >
            <stop stop-opacity="0.8" />
            <stop offset="1" stop-opacity="0" />
        </linearGradient>
        <linearGradient
            id="paint1_linear_5026_2142"
            x1="171.404"
            y1="112.788"
            x2="177.173"
            y2="118.558"
            gradientUnits="userSpaceOnUse"
        >
            <stop stop-opacity="0.8" />
            <stop offset="1" stop-opacity="0" />
        </linearGradient>
        <linearGradient
            id="paint2_linear_5026_2142"
            x1="167.487"
            y1="158.935"
            x2="60.6432"
            y2="44.1064"
            gradientUnits="userSpaceOnUse"
        >
            <stop stop-color="white" />
            <stop offset="0.553424" stop-color="white" stop-opacity="0" />
        </linearGradient>
        <linearGradient
            id="paint3_linear_5026_2142"
            x1="136.565"
            y1="-10.2352"
            x2="110.653"
            y2="89.1992"
            gradientUnits="userSpaceOnUse"
        >
            <stop stop-color="#A7A4B5" />
            <stop offset="1" stop-color="#4A4658" />
        </linearGradient>
    </defs>
</svg>
