<svg width="64" height="64" viewBox="0 0 64 64" fill="none" xmlns="http://www.w3.org/2000/svg">
    <path
        d="M40.8516 20.75C41.4727 19.7713 42.7708 19.481 43.75 20.1016C44.7289 20.7225 45.0187 22.0207 44.3984 23L31.2227 43.7891C30.2309 45.354 27.9945 45.4771 26.8359 44.0312L19.5469 34.9375C18.8229 34.0325 18.9704 32.7092 19.875 31.9844C20.78 31.2607 22.1033 31.4081 22.8281 32.3125L28.7969 39.7656L40.8516 20.75Z"
        fill="url(#paint0_linear_10469_14863)"
    />
    <path
        fill-rule="evenodd"
        clip-rule="evenodd"
        d="M32 4C47.464 4 60 16.536 60 32C60 47.464 47.464 60 32 60C16.536 60 4 47.464 4 32C4 16.536 16.536 4 32 4ZM32 8C18.7452 8 8 18.7452 8 32C8 45.2548 18.7452 56 32 56C45.2548 56 56 45.2548 56 32C56 18.7452 45.2548 8 32 8Z"
        fill="url(#paint1_linear_10469_14863)"
    />
    <defs>
        <linearGradient
            id="paint0_linear_10469_14863"
            x1="19.4674"
            y1="3.75461"
            x2="25.2895"
            y2="44.1294"
            gradientUnits="userSpaceOnUse"
        >
            <stop stop-color="white" />
            <stop offset="0.647491" stop-color="#CDCBFC" />
            <stop offset="1" stop-color="#9696F9" />
        </linearGradient>
        <linearGradient
            id="paint1_linear_10469_14863"
            x1="19.4674"
            y1="3.75461"
            x2="25.2895"
            y2="44.1294"
            gradientUnits="userSpaceOnUse"
        >
            <stop stop-color="white" />
            <stop offset="0.647491" stop-color="#CDCBFC" />
            <stop offset="1" stop-color="#9696F9" />
        </linearGradient>
    </defs>
</svg>
