<svg width="66" height="70" fill="none" xmlns="http://www.w3.org/2000/svg">
    <path
        d="M20.502 1.788a.576.576 0 0 1 .996 0l1.85 3.296a.567.567 0 0 0 .393.278l3.795.69c.442.081.617.605.308.923l-2.652 2.728a.542.542 0 0 0-.15.45l.496 3.723c.058.433-.4.757-.806.57l-3.488-1.61a.583.583 0 0 0-.488 0l-3.488 1.61c-.406.187-.864-.137-.806-.57l.497-3.723a.542.542 0 0 0-.15-.45l-2.653-2.728a.548.548 0 0 1 .308-.922l3.795-.691a.567.567 0 0 0 .394-.278l1.849-3.296z"
        fill="#EAB308"
    />
    <path
        d="M35.445 13.14c-1.989 0-3.466-1.219-3.515-2.91h1.79c.064.836.805 1.418 1.725 1.418 1.088 0 1.874-.81 1.869-1.95.005-1.153-.8-1.978-1.92-1.983-.61-.005-1.257.249-1.6.627l-1.665-.274.532-5.25h5.906V4.36h-4.38l-.293 2.7h.06c.377-.447 1.108-.776 1.933-.776 1.85 0 3.212 1.412 3.212 3.371 0 2.024-1.502 3.485-3.654 3.485zm6.106-.03a1.087 1.087 0 0 1-1.094-1.094 1.085 1.085 0 0 1 1.094-1.084c.587 0 1.089.487 1.094 1.084a1.107 1.107 0 0 1-1.094 1.093zm6.299.084c-2.456 0-3.923-1.939-3.923-5.275.005-3.326 1.477-5.24 3.923-5.24 2.446 0 3.922 1.919 3.922 5.24 0 3.34-1.466 5.28-3.922 5.275zm0-1.556c1.273 0 2.063-1.273 2.063-3.719-.005-2.426-.795-3.704-2.063-3.704-1.263 0-2.053 1.278-2.058 3.704-.005 2.446.79 3.719 2.058 3.719zM1.057 35v-8.727h2.949c2.05 0 2.966 1.218 2.966 2.761 0 1.543-.917 2.779-2.95 2.779H2.115V35H1.057zm1.057-4.125h1.875c1.402 0 1.943-.793 1.943-1.84 0-1.05-.541-1.825-1.96-1.825H2.114v3.665zM8.538 35v-6.546h.971v.99h.068c.24-.648.92-1.092 1.705-1.092.15 0 .413.009.528.017v1.023a3.08 3.08 0 0 0-.613-.068c-.955 0-1.654.648-1.654 1.534V35H8.538zm6.924.136c-1.772 0-2.966-1.346-2.966-3.375 0-2.045 1.194-3.392 2.966-3.392 1.773 0 2.966 1.347 2.966 3.392 0 2.029-1.193 3.375-2.966 3.375zm0-.903c1.347 0 1.96-1.16 1.96-2.472s-.613-2.488-1.96-2.488c-1.346 0-1.96 1.176-1.96 2.488 0 1.313.614 2.472 1.96 2.472zm7.348-5.778v.852h-1.398v3.818c0 .852.426.989.87.989.221 0 .358-.034.443-.051l.204.903c-.136.051-.375.12-.75.12-.852 0-1.772-.546-1.772-1.688v-4.091h-.989v-.852h.989v-1.569h1.005v1.569h1.398zm4.102 6.681c-1.773 0-2.966-1.346-2.966-3.375 0-2.045 1.193-3.392 2.966-3.392 1.772 0 2.966 1.347 2.966 3.392 0 2.029-1.194 3.375-2.966 3.375zm0-.903c1.346 0 1.96-1.16 1.96-2.472s-.614-2.488-1.96-2.488c-1.347 0-1.96 1.176-1.96 2.488 0 1.313.613 2.472 1.96 2.472zm5.506-3.17V35h-1.005v-6.546h.971v1.023h.085c.307-.665.92-1.108 1.91-1.108 1.325 0 2.215.802 2.215 2.472V35H35.59v-4.09c0-1.028-.567-1.637-1.5-1.637-.963 0-1.67.648-1.67 1.79zm9.883-4.79l2.591 7.346h.103l2.59-7.346h1.108L45.49 35h-1.09l-3.206-8.727h1.108zM50.053 35v-8.727h2.949c2.05 0 2.966 1.218 2.966 2.761 0 1.543-.917 2.779-2.95 2.779H51.11V35h-1.057zm1.057-4.125h1.875c1.402 0 1.943-.793 1.943-1.84 0-1.05-.541-1.825-1.96-1.825H51.11v3.665zm13.48-4.602V35h-1.022l-4.756-6.852h-.085V35H57.67v-8.727h1.023l4.773 6.869h.085v-6.87h1.04z"
        fill="#4B5563"
    />
    <g clip-path="url(#clip0_1_1691)">
        <g clip-path="url(#clip1_1_1691)" fill="#9CA3AF" fill-opacity=".5">
            <path
                d="M29.758 51.265h-.26a.11.11 0 0 0-.11.11v3.646c0 .061.05.11.11.11h.26c.06 0 .118-.01.174-.03a.272.272 0 0 0 .137-.1.314.314 0 0 0 .053-.19v-3.228a.285.285 0 0 0-.111-.225.383.383 0 0 0-.255-.093h.002zm3.512 11.654c-.01 0-.016.009-.02.025l-.657 2.16c-.004.025.004.038.025.038h1.31c.025 0 .034-.013.025-.038l-.664-2.16c-.004-.016-.01-.025-.02-.025z"
            />
            <path
                d="M44.992 47.383c0-.014-.002-.028-.005-.042l-.011-.077c-.007-.038-.015-.075-.024-.112l-.02-.072a1.549 1.549 0 0 0-.67-.857 1.526 1.526 0 0 0-.796-.223h-20.93c-.85 0-1.536.688-1.536 1.535v20.93c0 .425.172.807.45 1.086a1.53 1.53 0 0 0 1.085.449h20.928c.849 0 1.536-.687 1.536-1.535v-20.93c0-.052-.003-.103-.008-.154l.001.002zm-14.597 19.05c0 .02-.008.038-.023.054a.074.074 0 0 1-.055.023h-.592a.074.074 0 0 1-.055-.023.074.074 0 0 1-.023-.055v-3.076c0-.012-.005-.021-.016-.025-.012-.004-.018 0-.023.013L28.8 64.58a.103.103 0 0 1-.09.052h-.296a.103.103 0 0 1-.09-.052l-.814-1.231c-.003-.013-.011-.018-.023-.013-.01.004-.016.013-.016.026v3.07c0 .02-.008.038-.023.054a.074.074 0 0 1-.055.023h-.592a.074.074 0 0 1-.055-.023.074.074 0 0 1-.023-.055v-4.358c0-.021.008-.04.023-.054a.074.074 0 0 1 .055-.023h.592c.039 0 .069.017.09.05l1.051 1.593c.01.009.017.013.026.013a.019.019 0 0 0 .019-.013l1.05-1.593a.101.101 0 0 1 .09-.05h.594c.021 0 .039.007.054.023a.074.074 0 0 1 .023.054v4.358h.004zm-.277-9.106h-.636a.11.11 0 0 0-.11.11v3.506a.11.11 0 0 1-.11.11h-2.427a.11.11 0 0 1-.11-.11v-11.61c0-.061.05-.11.11-.11h3.281a2.66 2.66 0 0 1 1.223.284c.355.173.633.412.838.719.253.382.384.915.392 1.599v2.914c-.008 1.136-.419 1.903-1.23 2.3-.406.2-.814.296-1.223.288h.002zM35.1 66.51h-.645c-.043 0-.07-.022-.084-.065l-.212-.69c-.009-.016-.019-.025-.032-.025h-1.702c-.012 0-.024.009-.032.025l-.212.69c-.013.043-.04.065-.084.065h-.645a.075.075 0 0 1-.058-.023c-.013-.015-.015-.037-.007-.068l1.4-4.357c.012-.044.04-.065.084-.065h.806c.043 0 .071.021.084.065l1.405 4.357c.004.01.007.02.007.032 0 .038-.024.059-.071.059H35.1zm4.056-3.089c0 .022-.008.04-.023.055a.074.074 0 0 1-.055.023h-.587a.074.074 0 0 1-.054-.023.074.074 0 0 1-.023-.055v-.032a.76.76 0 0 0-.235-.573c-.157-.15-.367-.225-.629-.225s-.473.078-.632.235c-.159.156-.24.364-.24.622v1.612a.81.81 0 0 0 .253.622c.168.156.384.235.651.235s.46-.067.61-.204c.147-.134.222-.321.222-.558v-.4c0-.021-.01-.031-.032-.031h-.792a.074.074 0 0 1-.055-.023.074.074 0 0 1-.023-.055v-.477c0-.021.008-.04.023-.054a.074.074 0 0 1 .055-.023h1.49c.02 0 .039.007.054.023a.074.074 0 0 1 .023.054v.826c0 .495-.145.879-.435 1.153-.29.275-.68.413-1.17.413a1.84 1.84 0 0 1-.851-.19 1.363 1.363 0 0 1-.568-.538 1.574 1.574 0 0 1-.2-.799v-1.56c0-.306.067-.573.2-.803.134-.23.322-.408.568-.536.245-.127.529-.19.85-.19.322 0 .598.062.841.186a1.353 1.353 0 0 1 .763 1.238v.052zM36.54 51.288a.356.356 0 0 0-.256-.105.34.34 0 0 0-.248.1.354.354 0 0 0-.112.245l-.004.02v7.14l.004.02a.345.345 0 0 0 .112.24.36.36 0 0 0 .504-.004.356.356 0 0 0 .104-.256v-2.502c0-.06.05-.11.11-.11h2.467c.023 0 .044.02.044.043l.003 2.422c0 .863-.28 1.517-.84 1.96-.56.442-1.279.664-2.156.664-.878 0-1.567-.203-2.141-.608-.574-.405-.86-1.018-.86-1.838v-7.204c0-.823.286-1.436.857-1.842.571-.404 1.286-.606 2.142-.606.856 0 1.595.22 2.156.661.56.442.841 1.092.841 1.95l-.004 2.456c0 .023-.019.042-.043.042h-2.468a.11.11 0 0 1-.109-.109v-2.525a.356.356 0 0 0-.104-.256l.001.002z"
            />
        </g>
    </g>
    <defs>
        <clipPath id="clip0_1_1691"><path fill="#fff" transform="translate(21 46)" d="M0 0H24V24H0z" /></clipPath>
        <clipPath id="clip1_1_1691"><path fill="#fff" transform="translate(21 46)" d="M0 0H24V24H0z" /></clipPath>
    </defs>
</svg>
