<svg width="74" height="70" fill="none" xmlns="http://www.w3.org/2000/svg">
    <path
        d="M24.502 1.788a.576.576 0 0 1 .996 0l1.85 3.296a.567.567 0 0 0 .393.278l3.795.69c.442.081.617.605.308.923l-2.652 2.728a.542.542 0 0 0-.15.45l.496 3.723c.058.433-.4.757-.806.57l-3.488-1.61a.583.583 0 0 0-.488 0l-3.488 1.61c-.406.187-.864-.137-.806-.57l.497-3.723a.542.542 0 0 0-.15-.45l-2.653-2.728a.548.548 0 0 1 .308-.922l3.795-.691a.567.567 0 0 0 .394-.278l1.849-3.296z"
        fill="#EAB308"
    />
    <path
        d="M35.72 11.11V9.645l4.321-6.826h2.297v6.776h1.303v1.517h-1.303V13h-1.76v-1.89h-4.857zm4.878-1.516V4.906h-.08L37.61 9.515v.08h2.988zm5.473 3.515a1.088 1.088 0 0 1-1.094-1.093 1.085 1.085 0 0 1 1.094-1.084c.586 0 1.088.487 1.093 1.084a1.107 1.107 0 0 1-1.093 1.093zm6.168.03c-2.222 0-3.793-1.213-3.788-2.868a2.563 2.563 0 0 1 2.127-2.536v-.07c-1.049-.228-1.755-1.153-1.75-2.257-.005-1.57 1.437-2.729 3.411-2.729 1.959 0 3.4 1.163 3.406 2.73-.005 1.103-.721 2.028-1.75 2.256v.07c1.183.199 2.122 1.263 2.127 2.536-.005 1.655-1.58 2.868-3.783 2.868zm0-1.422c1.139 0 1.88-.636 1.89-1.576-.01-.97-.806-1.665-1.89-1.665-1.099 0-1.9.69-1.89 1.665-.01.94.737 1.576 1.89 1.576zm0-4.638c.93 0 1.6-.607 1.61-1.497-.01-.875-.66-1.461-1.61-1.461-.964 0-1.62.586-1.61 1.461-.01.885.665 1.497 1.61 1.497zM4.057 35v-8.727h2.949c2.05 0 2.966 1.218 2.966 2.761 0 1.543-.917 2.779-2.95 2.779H5.115V35H4.057zm1.057-4.125h1.875c1.402 0 1.943-.793 1.943-1.84 0-1.05-.541-1.825-1.96-1.825H5.114v3.665zM11.538 35v-6.546h.971v.99h.068c.24-.648.92-1.092 1.705-1.092.15 0 .413.009.528.017v1.023a3.08 3.08 0 0 0-.613-.068c-.955 0-1.654.648-1.654 1.534V35h-1.005zm6.924.136c-1.772 0-2.966-1.346-2.966-3.375 0-2.045 1.194-3.392 2.966-3.392 1.773 0 2.966 1.347 2.966 3.392 0 2.029-1.193 3.375-2.966 3.375zm0-.903c1.347 0 1.96-1.16 1.96-2.472s-.613-2.488-1.96-2.488c-1.346 0-1.96 1.176-1.96 2.488 0 1.313.614 2.472 1.96 2.472zm7.348-5.778v.852h-1.398v3.818c0 .852.426.989.87.989.221 0 .358-.034.443-.051l.204.903c-.136.051-.375.12-.75.12-.852 0-1.772-.546-1.772-1.688v-4.091h-.989v-.852h.989v-1.569h1.005v1.569h1.398zm4.102 6.681c-1.773 0-2.966-1.346-2.966-3.375 0-2.045 1.193-3.392 2.966-3.392 1.772 0 2.965 1.347 2.965 3.392 0 2.029-1.193 3.375-2.965 3.375zm0-.903c1.346 0 1.96-1.16 1.96-2.472s-.614-2.488-1.96-2.488c-1.347 0-1.96 1.176-1.96 2.488 0 1.313.613 2.472 1.96 2.472zm5.506-3.17V35h-1.005v-6.546h.971v1.023h.085c.307-.665.92-1.108 1.91-1.108 1.325 0 2.215.802 2.215 2.472V35H38.59v-4.09c0-1.028-.567-1.637-1.5-1.637-.963 0-1.67.648-1.67 1.79zM44.944 35v-8.727h2.948c2.05 0 2.966 1.218 2.966 2.761 0 1.543-.916 2.779-2.949 2.779H46V35h-1.056zM46 30.875h1.875c1.402 0 1.944-.793 1.944-1.84 0-1.05-.542-1.825-1.96-1.825H46v3.665zm8.35 4.278c-1.244 0-2.233-.733-2.233-2.011 0-1.5 1.326-1.768 2.54-1.926 1.194-.154 1.688-.11 1.688-.597v-.034c0-.84-.456-1.33-1.38-1.33-.96 0-1.484.512-1.705.99l-.955-.342c.511-1.193 1.636-1.534 2.625-1.534.835 0 2.42.239 2.42 2.319V35h-1.005v-.886h-.051c-.205.426-.801 1.04-1.944 1.04zm.154-.903c1.193 0 1.84-.801 1.84-1.62v-.92c-.17.205-1.312.324-1.738.375-.784.102-1.483.341-1.483 1.108 0 .699.58 1.057 1.38 1.057zm9.318-4.33l-.903.256c-.175-.452-.537-.937-1.415-.937-.8 0-1.398.409-1.398.971 0 .503.35.763 1.125.955l.972.238c1.168.286 1.739.861 1.739 1.773 0 1.13-1.036 1.96-2.557 1.96-1.338 0-2.254-.592-2.489-1.704l.955-.239c.179.703.694 1.057 1.517 1.057.937 0 1.534-.46 1.534-1.023 0-.451-.311-.767-.972-.92l-1.09-.256c-1.202-.281-1.74-.886-1.74-1.79 0-1.108 1.024-1.892 2.404-1.892 1.296 0 2.003.622 2.318 1.552zm6.27 0l-.903.256c-.175-.452-.537-.937-1.415-.937-.801 0-1.398.409-1.398.971 0 .503.35.763 1.125.955l.972.238c1.167.286 1.738.861 1.738 1.773 0 1.13-1.035 1.96-2.556 1.96-1.339 0-2.255-.592-2.49-1.704l.955-.239c.18.703.695 1.057 1.517 1.057.938 0 1.534-.46 1.534-1.023 0-.451-.31-.767-.971-.92l-1.091-.256c-1.202-.281-1.739-.886-1.739-1.79 0-1.108 1.023-1.892 2.404-1.892 1.295 0 2.003.622 2.318 1.552z"
        fill="#4B5563"
    />
    <g clip-path="url(#clip0_1_1700)">
        <path
            d="M72.952 55.36v-2.649h-1.067s0 .791-1.325 1.859c-1.028.83-2.906.79-2.906.79v1.582h1.067l-.02 6.346h4.251v-6.346h1.068v-1.581h-1.068zm-10.577 0c-2.768 0-4.764 1.582-4.764 3.974 0 2.65 1.977 3.974 4.764 3.974 2.768 0 4.765-1.324 4.765-3.974-.02-2.392-1.997-3.973-4.765-3.973zm.514 6.347s0 .257-.534.257c-.533 0-.533-.257-.533-.257v-4.765s0-.257.533-.257c.534 0 .534.257.534.257v4.765zM51.78 55.36s-5.813-.791-5.813 3.974c0 4.112 4.765 3.973 4.765 3.973h5.812V52.731H51.78v2.63zm0 6.346h-.534c-.257 0-1.068-.79-1.068-2.65 0-2.115.534-2.115.534-2.115h1.068v4.765zM7.334 55.104c0-.257.533-.257.533-.257h1.068v-1.068s-1.582-1.068-2.906-1.068c-3.974 0-3.974 1.8-3.974 2.65 0 .79.455 1.423.969 2.53.652 1.404 1.344 2.412.89 3.025-.258.257-.792.257-.792.257H2.056v1.582s.395.178.79.257c1.325.257 2.373.257 2.907.257 1.582 0 3.697-.534 3.697-2.65 0-1.324-2.056-4.33-2.115-5.298v-.217zm7.948-2.393h-4.765V63.29h4.764V52.71zm9.786 3.44c-.95-.573-2.373-.79-3.183-.79-2.373 0-3.678.474-4.152.731-.099.06-.158.336-.158.593 0 .257.079.534.079.534s.79-.257 3.183-.257c0 0 .257 0 .257.534s-.257.534-.257.534h-.79c-.792 0-1.82.079-2.334.336-.85.454-1.384.988-1.384 2.293 0 1.858 1.582 2.65 1.582 2.65h8.462v-5.813c.02-.02.02-.554-1.305-1.345zm-3.974 6.09h-.534c-.257 0-.534-.534-.534-1.582 0-1.582.534-1.582.534-1.582h.534v3.164zm11.11-5.1c0-.199.396-.199.396-.199h.652v-1.067s-1.463-.534-2.649-.534c-2.985 0-3.183 1.226-3.183 1.858 0 .593.415 1.285.791 2.116.494 1.048 1.147 1.918.79 2.372-.256.257-.73.257-.73.257h-.85v1.068s.79.257 2.115.257h.85c.988 0 3.38-.395 3.38-1.977 0-.989-1.542-3.242-1.581-3.974v-.178h.02zm10.044-2.037c-1.581 0-2.649.534-2.649.534V52.73h-4.765v10.577H39.6v-6.346s0-.257.534-.257.534.257.534.257v6.346h4.23v-6.623s0-1.581-2.649-1.581z"
            fill="#9CA3AF"
            fill-opacity=".5"
        />
    </g>
    <defs>
        <clipPath id="clip0_1_1700">
            <path fill="#fff" transform="translate(0 52.712)" d="M0 0H74V10.577H0z" />
        </clipPath>
    </defs>
</svg>
