<svg width="72" height="72" viewBox="0 0 72 72" fill="none" xmlns="http://www.w3.org/2000/svg">
    <path d="M64.7501 47.5853H6.5483C6.03035 47.5853 5.625 47.1816 5.625 46.6658V46.15C5.625 45.6342 6.03035 45.2305 6.5483 45.2305H64.7501C65.2681 45.2305 65.6734 45.6342 65.6734 46.15V46.6658C65.6734 47.1816 65.2456 47.5853 64.7501 47.5853Z" fill="#3B3747"/>
    <path d="M64.7501 47.5853H6.5483C6.03035 47.5853 5.625 47.1816 5.625 46.6658V46.15C5.625 45.6342 6.03035 45.2305 6.5483 45.2305H64.7501C65.2681 45.2305 65.6734 45.6342 65.6734 46.15V46.6658C65.6734 47.1816 65.2456 47.5853 64.7501 47.5853Z" fill="url(#paint0_linear_3801_30263)" fill-opacity="0.2"/>
    <g filter="url(#filter0_i_3801_30263)">
        <path d="M11.0195 13.4075C11.0195 12.2159 11.9855 11.25 13.177 11.25H57.9443C59.1358 11.25 60.1017 12.2159 60.1017 13.4075V45.23H11.0195V13.4075Z" fill="#3B3747"/>
        <path d="M11.0195 13.4075C11.0195 12.2159 11.9855 11.25 13.177 11.25H57.9443C59.1358 11.25 60.1017 12.2159 60.1017 13.4075V45.23H11.0195V13.4075Z" fill="url(#paint1_linear_3801_30263)" fill-opacity="0.2"/>
    </g>
    <path d="M12.0977 13.4069C12.0977 12.8111 12.5806 12.3281 13.1764 12.3281H57.9437C58.5394 12.3281 59.0224 12.8111 59.0224 13.4069V45.2294H12.0977V13.4069Z" fill="url(#paint2_linear_3801_30263)"/>
    <path d="M38.3744 46.5163H32.78C32.0581 46.5163 31.4941 45.9298 31.4941 45.2305H39.6602C39.6602 45.9298 39.0963 46.5163 38.3744 46.5163Z" fill="#757183"/>
    <path d="M19.375 37.666H19.4502C19.4917 37.666 19.5253 37.7009 19.5253 37.7439V39.7681C19.5253 39.8111 19.4917 39.8459 19.4502 39.8459H19.375V37.666Z" fill="#494D55"/>
    <g filter="url(#filter1_i_3801_30263)">
        <path d="M17.2934 62.5779H4.9808C3.47966 62.5779 2.25 61.2859 2.25 59.6919V33.2442C2.25 31.667 3.47966 30.375 4.9808 30.375H17.2934C18.8105 30.375 20.0242 31.667 20.0242 33.2442V59.6919C20.0402 61.2859 18.8105 62.5779 17.2934 62.5779Z" fill="#3B3747"/>
        <path d="M17.2934 62.5779H4.9808C3.47966 62.5779 2.25 61.2859 2.25 59.6919V33.2442C2.25 31.667 3.47966 30.375 4.9808 30.375H17.2934C18.8105 30.375 20.0242 31.667 20.0242 33.2442V59.6919C20.0402 61.2859 18.8105 62.5779 17.2934 62.5779Z" fill="url(#paint3_linear_3801_30263)" fill-opacity="0.2"/>
    </g>
    <path d="M17.0742 31.4199H15.3962L15.0573 32.1932C14.8637 32.6471 14.4119 32.9497 13.9279 32.9497H8.32905C7.845 32.9497 7.40935 32.6471 7.1996 32.1932L6.8769 31.4367H5.19885C4.15008 31.4367 3.29492 32.3277 3.29492 33.4204V59.5481C3.29492 60.6408 4.15008 61.5317 5.19885 61.5317H17.0742C18.123 61.5317 18.9782 60.6408 18.9782 59.5481V33.4036C18.962 32.3109 18.123 31.4199 17.0742 31.4199Z" fill="url(#paint4_linear_3801_30263)"/>
    <line x1="54.7085" y1="54.0416" x2="47.5908" y2="41.7134" stroke="#3B3747" stroke-width="1.13883" stroke-linecap="round"/>
    <line x1="0.569413" y1="-0.569413" x2="14.8047" y2="-0.569413" transform="matrix(0.5 -0.866025 -0.866025 -0.5 57.668 54.25)" stroke="#3B3747" stroke-width="1.13883" stroke-linecap="round"/>
    <g filter="url(#filter2_i_3801_30263)">
        <path d="M44.5723 53.3726C44.5723 52.9902 44.8566 52.6676 45.2358 52.6194L50.8872 51.9018C54.634 51.426 58.4259 51.426 62.1727 51.9018L67.824 52.6194C68.2033 52.6676 68.4876 52.9902 68.4876 53.3726V56.1201C68.4876 56.5394 68.1477 56.8793 67.7284 56.8793H45.3315C44.9122 56.8793 44.5723 56.5394 44.5723 56.1201V53.3726Z" fill="url(#paint5_linear_3801_30263)"/>
    </g>
    <path d="M66.3995 55.3595C66.714 55.3595 66.9689 55.1046 66.9689 54.7901C66.9689 54.4756 66.714 54.2207 66.3995 54.2207C66.085 54.2207 65.8301 54.4756 65.8301 54.7901C65.8301 55.1046 66.085 55.3595 66.3995 55.3595Z" fill="white"/>
    <path d="M64.5011 55.3595C64.8155 55.3595 65.0705 55.1046 65.0705 54.7901C65.0705 54.4756 64.8155 54.2207 64.5011 54.2207C64.1866 54.2207 63.9316 54.4756 63.9316 54.7901C63.9316 55.1046 64.1866 55.3595 64.5011 55.3595Z" fill="white"/>
    <path d="M62.6046 55.3595C62.919 55.3595 63.174 55.1046 63.174 54.7901C63.174 54.4756 62.919 54.2207 62.6046 54.2207C62.2901 54.2207 62.0352 54.4756 62.0352 54.7901C62.0352 55.1046 62.2901 55.3595 62.6046 55.3595Z" fill="white"/>
    <path d="M50.2656 54.7898C50.2656 54.5801 50.4356 54.4102 50.6452 54.4102H53.3025C53.5121 54.4102 53.6821 54.5801 53.6821 54.7898C53.6821 54.9994 53.5121 55.1694 53.3025 55.1694H50.6452C50.4356 55.1694 50.2656 54.9994 50.2656 54.7898Z" fill="#757183"/>
    <path d="M45.9004 54.7898C45.9004 54.5801 46.0703 54.4102 46.28 54.4102H48.9373C49.1469 54.4102 49.3169 54.5801 49.3169 54.7898C49.3169 54.9994 49.1469 55.1694 48.9373 55.1694H46.28C46.0703 55.1694 45.9004 54.9994 45.9004 54.7898Z" fill="#757183"/>
    <path d="M47.0391 56.8789H49.3167V57.6381C49.3167 57.8478 49.1468 58.0177 48.9371 58.0177H47.4187C47.209 58.0177 47.0391 57.8478 47.0391 57.6381V56.8789Z" fill="#3B3747"/>
    <path d="M63.7422 56.8789H66.0198V57.6381C66.0198 57.8478 65.8499 58.0177 65.6402 58.0177H64.1218C63.9121 58.0177 63.7422 57.8478 63.7422 57.6381V56.8789Z" fill="#3B3747"/>
    <path d="M65.5504 40.0026C65.8725 39.9188 66.2378 39.9611 66.5621 40.1483C66.8865 40.3356 67.1057 40.6308 67.1942 40.9516" stroke="#A09DAE" stroke-width="0.569413" stroke-linecap="round"/>
    <path d="M65.1341 38.4466C65.8192 38.3027 66.6082 38.421 67.3218 38.833C68.0354 39.245 68.5323 39.8691 68.7503 40.5344" stroke="#A09DAE" stroke-width="0.569413" stroke-linecap="round"/>
    <path d="M64.8818 36.9863C65.9095 36.7704 67.093 36.9479 68.1634 37.5659C69.2337 38.1838 69.9792 39.1201 70.3061 40.118" stroke="#A09DAE" stroke-width="0.569413" stroke-linecap="round"/>
    <path d="M47.6195 40.0026C47.2974 39.9188 46.9322 39.9611 46.6078 40.1483C46.2835 40.3356 46.0642 40.6308 45.9757 40.9516" stroke="#A09DAE" stroke-width="0.569413" stroke-linecap="round"/>
    <path d="M48.0359 38.4466C47.3507 38.3027 46.5617 38.421 45.8481 38.833C45.1346 39.245 44.6376 39.8691 44.4196 40.5344" stroke="#A09DAE" stroke-width="0.569413" stroke-linecap="round"/>
    <path d="M48.2882 36.9863C47.2604 36.7704 46.0769 36.9479 45.0066 37.5659C43.9362 38.1838 43.1907 39.1201 42.8638 40.118" stroke="#A09DAE" stroke-width="0.569413" stroke-linecap="round"/>
    <rect x="49.5" y="31.5" width="12.9448" height="12.9448" rx="3.23619" fill="#292733"/>
    <path fill-rule="evenodd" clip-rule="evenodd" d="M54.4623 36.3547H54.3544C54.3544 35.4611 55.0789 34.7366 55.9725 34.7366C56.8662 34.7366 57.5906 35.4611 57.5906 36.3547H57.4827H54.4623ZM53.8151 36.3651V36.3547C53.8151 35.1632 54.781 34.1973 55.9725 34.1973C57.164 34.1973 58.13 35.1632 58.13 36.3547V36.3651C58.3415 36.378 58.4916 36.407 58.6197 36.4723C58.8227 36.5757 58.9877 36.7407 59.0911 36.9437C59.2087 37.1745 59.2087 37.4765 59.2087 38.0807V40.0224C59.2087 40.6265 59.2087 40.9286 59.0911 41.1594C58.9877 41.3624 58.8227 41.5274 58.6197 41.6308C58.389 41.7484 58.0869 41.7484 57.4827 41.7484H54.4623C53.8582 41.7484 53.5561 41.7484 53.3253 41.6308C53.1223 41.5274 52.9573 41.3624 52.8539 41.1594C52.7363 40.9286 52.7363 40.6265 52.7363 40.0224V38.0807C52.7363 37.4765 52.7363 37.1745 52.8539 36.9437C52.9573 36.7407 53.1223 36.5757 53.3253 36.4723C53.4534 36.407 53.6035 36.378 53.8151 36.3651ZM56.2264 38.9882C56.3963 38.8974 56.5119 38.7183 56.5119 38.5122C56.5119 38.2143 56.2704 37.9728 55.9725 37.9728C55.6746 37.9728 55.4332 38.2143 55.4332 38.5122C55.4332 38.7183 55.5488 38.8974 55.7187 38.9882L55.4834 39.9292C55.4579 40.0313 55.5351 40.1303 55.6404 40.1303H56.3046C56.4099 40.1303 56.4871 40.0313 56.4616 39.9292L56.2264 38.9882Z" fill="#2DDCCC"/>
    <path d="M55.5904 45.9517L54.084 44.4453H57.8595L56.3531 45.9517C56.1425 46.1623 55.801 46.1623 55.5904 45.9517Z" fill="#292733"/>
    <rect x="4.4082" y="37.9258" width="12.9448" height="12.9448" rx="3.23619" fill="#292733"/>
    <path fill-rule="evenodd" clip-rule="evenodd" d="M9.3705 42.7805H9.26263C9.26263 41.8869 9.98707 41.1624 10.8807 41.1624C11.7744 41.1624 12.4988 41.8869 12.4988 42.7805H12.3909H9.3705ZM8.72326 42.7909V42.7805C8.72326 41.589 9.68919 40.623 10.8807 40.623C12.0723 40.623 13.0382 41.589 13.0382 42.7805V42.7909C13.2497 42.8038 13.3998 42.8328 13.5279 42.8981C13.7309 43.0015 13.8959 43.1665 13.9993 43.3695C14.1169 43.6003 14.1169 43.9023 14.1169 44.5065V46.4482C14.1169 47.0523 14.1169 47.3544 13.9993 47.5852C13.8959 47.7881 13.7309 47.9532 13.5279 48.0566C13.2972 48.1742 12.9951 48.1742 12.3909 48.1742H9.3705C8.76635 48.1742 8.46428 48.1742 8.23353 48.0566C8.03055 47.9532 7.86553 47.7881 7.76211 47.5852C7.64453 47.3544 7.64453 47.0523 7.64453 46.4482V44.5065C7.64453 43.9023 7.64453 43.6003 7.76211 43.3695C7.86553 43.1665 8.03055 43.0015 8.23353 42.8981C8.36163 42.8328 8.51172 42.8038 8.72326 42.7909ZM11.1346 45.414C11.3045 45.3232 11.4201 45.1441 11.4201 44.938C11.4201 44.6401 11.1786 44.3986 10.8807 44.3986C10.5828 44.3986 10.3414 44.6401 10.3414 44.938C10.3414 45.1441 10.457 45.3232 10.6269 45.414L10.3916 46.355C10.3661 46.4571 10.4433 46.5561 10.5486 46.5561H11.2128C11.3181 46.5561 11.3954 46.4571 11.3698 46.355L11.1346 45.414Z" fill="#2DDCCC"/>
    <rect x="28.7539" y="19.8789" width="12.9448" height="12.9448" rx="3.23619" fill="#292733"/>
    <path fill-rule="evenodd" clip-rule="evenodd" d="M33.7162 24.7336H33.6083C33.6083 23.84 34.3328 23.1155 35.2264 23.1155C36.1201 23.1155 36.8445 23.84 36.8445 24.7336H36.7366H33.7162ZM33.069 24.744V24.7336C33.069 23.5421 34.0349 22.5762 35.2264 22.5762C36.418 22.5762 37.3839 23.5421 37.3839 24.7336V24.744C37.5954 24.7569 37.7455 24.7859 37.8736 24.8512C38.0766 24.9546 38.2416 25.1197 38.345 25.3226C38.4626 25.5534 38.4626 25.8555 38.4626 26.4596V28.4013C38.4626 29.0055 38.4626 29.3075 38.345 29.5383C38.2416 29.7413 38.0766 29.9063 37.8736 30.0097C37.6429 30.1273 37.3408 30.1273 36.7366 30.1273H33.7162C33.1121 30.1273 32.81 30.1273 32.5792 30.0097C32.3763 29.9063 32.2112 29.7413 32.1078 29.5383C31.9902 29.3075 31.9902 29.0055 31.9902 28.4013V26.4596C31.9902 25.8555 31.9902 25.5534 32.1078 25.3226C32.2112 25.1197 32.3763 24.9546 32.5792 24.8512C32.7073 24.7859 32.8574 24.7569 33.069 24.744ZM35.4803 27.3671C35.6502 27.2763 35.7658 27.0972 35.7658 26.8911C35.7658 26.5932 35.5243 26.3517 35.2264 26.3517C34.9285 26.3517 34.6871 26.5932 34.6871 26.8911C34.6871 27.0972 34.8027 27.2763 34.9726 27.3671L34.7373 28.3081C34.7118 28.4103 34.789 28.5092 34.8943 28.5092H35.5585C35.6638 28.5092 35.7411 28.4103 35.7155 28.3081L35.4803 27.3671Z" fill="#2DDCCC"/>
    <defs>
        <filter id="filter0_i_3801_30263" x="11.0195" y="11.25" width="49.082" height="34.2792" filterUnits="userSpaceOnUse" color-interpolation-filters="sRGB">
            <feFlood flood-opacity="0" result="BackgroundImageFix"/>
            <feBlend mode="normal" in="SourceGraphic" in2="BackgroundImageFix" result="shape"/>
            <feColorMatrix in="SourceAlpha" type="matrix" values="0 0 0 0 0 0 0 0 0 0 0 0 0 0 0 0 0 0 127 0" result="hardAlpha"/>
            <feOffset dy="0.29872"/>
            <feGaussianBlur stdDeviation="0.14936"/>
            <feComposite in2="hardAlpha" operator="arithmetic" k2="-1" k3="1"/>
            <feColorMatrix type="matrix" values="0 0 0 0 1 0 0 0 0 1 0 0 0 0 1 0 0 0 0.25 0"/>
            <feBlend mode="normal" in2="shape" result="effect1_innerShadow_3801_30263"/>
        </filter>
        <filter id="filter1_i_3801_30263" x="2.25" y="30.375" width="17.7734" height="32.5018" filterUnits="userSpaceOnUse" color-interpolation-filters="sRGB">
            <feFlood flood-opacity="0" result="BackgroundImageFix"/>
            <feBlend mode="normal" in="SourceGraphic" in2="BackgroundImageFix" result="shape"/>
            <feColorMatrix in="SourceAlpha" type="matrix" values="0 0 0 0 0 0 0 0 0 0 0 0 0 0 0 0 0 0 127 0" result="hardAlpha"/>
            <feOffset dy="0.29872"/>
            <feGaussianBlur stdDeviation="0.14936"/>
            <feComposite in2="hardAlpha" operator="arithmetic" k2="-1" k3="1"/>
            <feColorMatrix type="matrix" values="0 0 0 0 1 0 0 0 0 1 0 0 0 0 1 0 0 0 0.25 0"/>
            <feBlend mode="normal" in2="shape" result="effect1_innerShadow_3801_30263"/>
        </filter>
        <filter id="filter2_i_3801_30263" x="44.5723" y="51.5449" width="23.916" height="5.83007" filterUnits="userSpaceOnUse" color-interpolation-filters="sRGB">
            <feFlood flood-opacity="0" result="BackgroundImageFix"/>
            <feBlend mode="normal" in="SourceGraphic" in2="BackgroundImageFix" result="shape"/>
            <feColorMatrix in="SourceAlpha" type="matrix" values="0 0 0 0 0 0 0 0 0 0 0 0 0 0 0 0 0 0 127 0" result="hardAlpha"/>
            <feOffset dy="0.496082"/>
            <feGaussianBlur stdDeviation="0.248041"/>
            <feComposite in2="hardAlpha" operator="arithmetic" k2="-1" k3="1"/>
            <feColorMatrix type="matrix" values="0 0 0 0 1 0 0 0 0 1 0 0 0 0 1 0 0 0 0.25 0"/>
            <feBlend mode="normal" in2="shape" result="effect1_innerShadow_3801_30263"/>
        </filter>
        <linearGradient id="paint0_linear_3801_30263" x1="51.1047" y1="48.5906" x2="50.789" y2="43.7367" gradientUnits="userSpaceOnUse">
            <stop stop-color="white"/>
            <stop offset="0.553424" stop-color="white" stop-opacity="0"/>
        </linearGradient>
        <linearGradient id="paint1_linear_3801_30263" x1="48.1936" y1="59.7364" x2="13.3582" y2="29.3998" gradientUnits="userSpaceOnUse">
            <stop stop-color="white"/>
            <stop offset="0.553424" stop-color="white" stop-opacity="0"/>
        </linearGradient>
        <linearGradient id="paint2_linear_3801_30263" x1="46.1253" y1="2.24927" x2="28.4858" y2="45.4676" gradientUnits="userSpaceOnUse">
            <stop stop-color="#2DDCCC"/>
            <stop offset="1" stop-color="#4A4658"/>
        </linearGradient>
        <linearGradient id="paint3_linear_3801_30263" x1="15.712" y1="76.3257" x2="-4.25876" y2="69.68" gradientUnits="userSpaceOnUse">
            <stop stop-color="white"/>
            <stop offset="0.553424" stop-color="white" stop-opacity="0"/>
        </linearGradient>
        <linearGradient id="paint4_linear_3801_30263" x1="19.6868" y1="19.6868" x2="-8.48229" y2="41.5016" gradientUnits="userSpaceOnUse">
            <stop stop-color="#2DDCCC"/>
            <stop offset="1" stop-color="#4A4658"/>
        </linearGradient>
        <linearGradient id="paint5_linear_3801_30263" x1="63.0002" y1="48.3759" x2="62.5741" y2="56.956" gradientUnits="userSpaceOnUse">
            <stop stop-color="#2DDCCC"/>
            <stop offset="1" stop-color="#4A4658"/>
        </linearGradient>
    </defs>
</svg>
