<svg width="72" height="73" viewBox="0 0 72 73" fill="none" xmlns="http://www.w3.org/2000/svg">
    <path d="M12.917 8.10742L33.7187 34.9568" stroke="url(#paint0_linear_1596_26570)" stroke-width="3.375" stroke-linecap="round"/>
    <path d="M59.2267 8.10498L38.4251 34.9544" stroke="url(#paint1_linear_1596_26570)" stroke-width="3.375" stroke-linecap="round"/>
    <g filter="url(#filter0_i_1596_26570)">
        <path d="M35.9516 3.37402C32.5528 3.37402 29.4512 4.64702 27.0977 6.74225C26.5652 7.21634 26.5846 8.0347 27.0888 8.53886C27.6237 9.07379 28.4929 9.04626 29.0703 8.55747C30.9269 6.98581 33.3286 6.03811 35.9516 6.03811C38.7535 6.03811 41.3028 7.11943 43.2049 8.88752C43.7763 9.4186 44.68 9.47017 45.2315 8.91859C45.7178 8.43229 45.7534 7.64839 45.2616 7.16769C42.8601 4.82059 39.5748 3.37402 35.9516 3.37402Z" fill="url(#paint2_linear_1596_26570)"/>
        <path d="M41.6621 13.1952C42.132 12.7253 42.1778 11.9669 41.6885 11.5171C40.2655 10.209 38.3666 9.4103 36.2813 9.4103C34.2376 9.4103 32.3731 10.1774 30.9599 11.4393C30.4581 11.8874 30.4996 12.6569 30.9753 13.1326C31.5335 13.6908 32.4547 13.6122 33.0861 13.1383C33.9763 12.4702 35.0825 12.0744 36.2813 12.0744C37.507 12.0744 38.636 12.4883 39.5363 13.1839C40.1665 13.6709 41.0989 13.7584 41.6621 13.1952Z" fill="url(#paint3_linear_1596_26570)"/>
    </g>
    <g filter="url(#filter1_i_1596_26570)">
        <path d="M7.2196 35.6819H64.9239L60.3967 25.9808C59.6383 24.3555 58.007 23.3167 56.2135 23.3167H15.93C14.1364 23.3167 12.5052 24.3555 11.7468 25.9808L7.2196 35.6819Z" fill="#3B3747"/>
        <path d="M7.2196 35.6819H64.9239L60.3967 25.9808C59.6383 24.3555 58.007 23.3167 56.2135 23.3167H15.93C14.1364 23.3167 12.5052 24.3555 11.7468 25.9808L7.2196 35.6819Z" fill="url(#paint4_linear_1596_26570)" fill-opacity="0.4"/>
    </g>
    <g filter="url(#filter2_i_1596_26570)">
        <path d="M7.2196 35.7362C7.2196 34.955 7.83473 34.3218 8.59352 34.3218H63.55C64.3088 34.3218 64.9239 34.955 64.9239 35.7362V49.3715C64.9239 51.9963 62.8571 54.1241 60.3075 54.1241H11.8359C9.28641 54.1241 7.2196 51.9963 7.2196 49.3715V35.7362Z" fill="#3B3747"/>
        <path d="M7.2196 35.7362C7.2196 34.955 7.83473 34.3218 8.59352 34.3218H63.55C64.3088 34.3218 64.9239 34.955 64.9239 35.7362V49.3715C64.9239 51.9963 62.8571 54.1241 60.3075 54.1241H11.8359C9.28641 54.1241 7.2196 51.9963 7.2196 49.3715V35.7362Z" fill="url(#paint5_linear_1596_26570)" fill-opacity="0.5"/>
        <path d="M7.2196 35.7362C7.2196 34.955 7.83473 34.3218 8.59352 34.3218H63.55C64.3088 34.3218 64.9239 34.955 64.9239 35.7362V49.3715C64.9239 51.9963 62.8571 54.1241 60.3075 54.1241H11.8359C9.28641 54.1241 7.2196 51.9963 7.2196 49.3715V35.7362Z" fill="url(#paint6_linear_1596_26570)" fill-opacity="0.26"/>
    </g>
    <g filter="url(#filter3_i_1596_26570)">
        <path d="M32.4081 38.4297C31.3963 38.4297 30.5762 39.2498 30.5762 40.2615V44.8412C30.5762 45.8529 31.3963 46.6731 32.4081 46.6731H33.3239V47.5891C33.3239 48.6008 34.144 49.421 35.1558 49.421H36.9876C37.9994 49.421 38.8195 48.6008 38.8195 47.5891V46.6731H39.7356C40.7473 46.6731 41.5675 45.8529 41.5675 44.8412V40.2615C41.5675 39.2498 40.7473 38.4297 39.7356 38.4297H32.4081Z" fill="url(#paint7_linear_1596_26570)"/>
    </g>
    <g filter="url(#filter4_i_1596_26570)">
        <path d="M15.921 38.4297C14.9092 38.4297 14.0891 39.2498 14.0891 40.2615V44.8412C14.0891 45.8529 14.9092 46.6731 15.921 46.6731H16.8368V47.5891C16.8368 48.6008 17.657 49.421 18.6687 49.421H20.5006C21.5123 49.421 22.3324 48.6008 22.3324 47.5891V46.6731H23.2485C24.2602 46.6731 25.0804 45.8529 25.0804 44.8412V40.2615C25.0804 39.2498 24.2602 38.4297 23.2485 38.4297H15.921Z" fill="url(#paint8_linear_1596_26570)"/>
    </g>
    <g filter="url(#filter5_i_1596_26570)">
        <path d="M48.8952 38.4297C47.8835 38.4297 47.0633 39.2498 47.0633 40.2615V44.8412C47.0633 45.8529 47.8835 46.6731 48.8952 46.6731H49.811V47.5891C49.811 48.6008 50.6312 49.421 51.6429 49.421H53.4748C54.4865 49.421 55.3067 48.6008 55.3067 47.5891V46.6731H56.2227C57.2344 46.6731 58.0546 45.8529 58.0546 44.8412V40.2615C58.0546 39.2498 57.2344 38.4297 56.2227 38.4297H48.8952Z" fill="url(#paint9_linear_1596_26570)"/>
    </g>
    <defs>
        <filter id="filter0_i_1596_26570" x="26.7045" y="3.37402" width="18.9093" height="11.1506" filterUnits="userSpaceOnUse" color-interpolation-filters="sRGB">
            <feFlood flood-opacity="0" result="BackgroundImageFix"/>
            <feBlend mode="normal" in="SourceGraphic" in2="BackgroundImageFix" result="shape"/>
            <feColorMatrix in="SourceAlpha" type="matrix" values="0 0 0 0 0 0 0 0 0 0 0 0 0 0 0 0 0 0 127 0" result="hardAlpha"/>
            <feOffset dy="0.940347"/>
            <feGaussianBlur stdDeviation="0.470174"/>
            <feComposite in2="hardAlpha" operator="arithmetic" k2="-1" k3="1"/>
            <feColorMatrix type="matrix" values="0 0 0 0 1 0 0 0 0 1 0 0 0 0 1 0 0 0 0.8 0"/>
            <feBlend mode="normal" in2="shape" result="effect1_innerShadow_1596_26570"/>
        </filter>
        <filter id="filter1_i_1596_26570" x="7.2196" y="23.3167" width="57.7043" height="12.8727" filterUnits="userSpaceOnUse" color-interpolation-filters="sRGB">
            <feFlood flood-opacity="0" result="BackgroundImageFix"/>
            <feBlend mode="normal" in="SourceGraphic" in2="BackgroundImageFix" result="shape"/>
            <feColorMatrix in="SourceAlpha" type="matrix" values="0 0 0 0 0 0 0 0 0 0 0 0 0 0 0 0 0 0 127 0" result="hardAlpha"/>
            <feOffset dy="0.507446"/>
            <feGaussianBlur stdDeviation="0.253723"/>
            <feComposite in2="hardAlpha" operator="arithmetic" k2="-1" k3="1"/>
            <feColorMatrix type="matrix" values="0 0 0 0 1 0 0 0 0 1 0 0 0 0 1 0 0 0 0.45 0"/>
            <feBlend mode="normal" in2="shape" result="effect1_innerShadow_1596_26570"/>
        </filter>
        <filter id="filter2_i_1596_26570" x="7.2196" y="34.3218" width="57.7043" height="20.2533" filterUnits="userSpaceOnUse" color-interpolation-filters="sRGB">
            <feFlood flood-opacity="0" result="BackgroundImageFix"/>
            <feBlend mode="normal" in="SourceGraphic" in2="BackgroundImageFix" result="shape"/>
            <feColorMatrix in="SourceAlpha" type="matrix" values="0 0 0 0 0 0 0 0 0 0 0 0 0 0 0 0 0 0 127 0" result="hardAlpha"/>
            <feOffset dy="0.451063"/>
            <feGaussianBlur stdDeviation="0.225531"/>
            <feComposite in2="hardAlpha" operator="arithmetic" k2="-1" k3="1"/>
            <feColorMatrix type="matrix" values="0 0 0 0 1 0 0 0 0 1 0 0 0 0 1 0 0 0 0.4 0"/>
            <feBlend mode="normal" in2="shape" result="effect1_innerShadow_1596_26570"/>
        </filter>
        <filter id="filter3_i_1596_26570" x="29.6602" y="38.4297" width="11.9072" height="11.9072" filterUnits="userSpaceOnUse" color-interpolation-filters="sRGB">
            <feFlood flood-opacity="0" result="BackgroundImageFix"/>
            <feBlend mode="normal" in="SourceGraphic" in2="BackgroundImageFix" result="shape"/>
            <feColorMatrix in="SourceAlpha" type="matrix" values="0 0 0 0 0 0 0 0 0 0 0 0 0 0 0 0 0 0 127 0" result="hardAlpha"/>
            <feOffset dx="-0.915941" dy="0.915941"/>
            <feGaussianBlur stdDeviation="0.45797"/>
            <feComposite in2="hardAlpha" operator="arithmetic" k2="-1" k3="1"/>
            <feColorMatrix type="matrix" values="0 0 0 0 0 0 0 0 0 0 0 0 0 0 0 0 0 0 0.5 0"/>
            <feBlend mode="normal" in2="shape" result="effect1_innerShadow_1596_26570"/>
        </filter>
        <filter id="filter4_i_1596_26570" x="13.1731" y="38.4297" width="11.9072" height="11.9072" filterUnits="userSpaceOnUse" color-interpolation-filters="sRGB">
            <feFlood flood-opacity="0" result="BackgroundImageFix"/>
            <feBlend mode="normal" in="SourceGraphic" in2="BackgroundImageFix" result="shape"/>
            <feColorMatrix in="SourceAlpha" type="matrix" values="0 0 0 0 0 0 0 0 0 0 0 0 0 0 0 0 0 0 127 0" result="hardAlpha"/>
            <feOffset dx="-0.915941" dy="0.915941"/>
            <feGaussianBlur stdDeviation="0.45797"/>
            <feComposite in2="hardAlpha" operator="arithmetic" k2="-1" k3="1"/>
            <feColorMatrix type="matrix" values="0 0 0 0 0 0 0 0 0 0 0 0 0 0 0 0 0 0 0.5 0"/>
            <feBlend mode="normal" in2="shape" result="effect1_innerShadow_1596_26570"/>
        </filter>
        <filter id="filter5_i_1596_26570" x="46.1474" y="38.4297" width="11.9072" height="11.9072" filterUnits="userSpaceOnUse" color-interpolation-filters="sRGB">
            <feFlood flood-opacity="0" result="BackgroundImageFix"/>
            <feBlend mode="normal" in="SourceGraphic" in2="BackgroundImageFix" result="shape"/>
            <feColorMatrix in="SourceAlpha" type="matrix" values="0 0 0 0 0 0 0 0 0 0 0 0 0 0 0 0 0 0 127 0" result="hardAlpha"/>
            <feOffset dx="-0.915941" dy="0.915941"/>
            <feGaussianBlur stdDeviation="0.45797"/>
            <feComposite in2="hardAlpha" operator="arithmetic" k2="-1" k3="1"/>
            <feColorMatrix type="matrix" values="0 0 0 0 0 0 0 0 0 0 0 0 0 0 0 0 0 0 0.5 0"/>
            <feBlend mode="normal" in2="shape" result="effect1_innerShadow_1596_26570"/>
        </filter>
        <linearGradient id="paint0_linear_1596_26570" x1="22.9785" y1="10.936" x2="40.5284" y2="18.1164" gradientUnits="userSpaceOnUse">
            <stop stop-color="#625F6D"/>
            <stop offset="1" stop-color="#CBC8D7"/>
        </linearGradient>
        <linearGradient id="paint1_linear_1596_26570" x1="49.1653" y1="10.9335" x2="31.6154" y2="18.114" gradientUnits="userSpaceOnUse">
            <stop stop-color="#625F6D"/>
            <stop offset="1" stop-color="#CBC8D7"/>
        </linearGradient>
        <linearGradient id="paint2_linear_1596_26570" x1="37.0723" y1="16.913" x2="37.0459" y2="2.55957" gradientUnits="userSpaceOnUse">
            <stop offset="0.00514267" stop-color="#6898EC"/>
            <stop offset="0.140625" stop-color="#41CAD6"/>
            <stop offset="0.651042" stop-color="#25ECC6"/>
        </linearGradient>
        <linearGradient id="paint3_linear_1596_26570" x1="37.0723" y1="16.913" x2="37.0459" y2="2.55957" gradientUnits="userSpaceOnUse">
            <stop offset="0.00514267" stop-color="#6898EC"/>
            <stop offset="0.140625" stop-color="#41CAD6"/>
            <stop offset="0.651042" stop-color="#25ECC6"/>
        </linearGradient>
        <linearGradient id="paint4_linear_1596_26570" x1="57.6382" y1="23.2801" x2="32.0311" y2="3.85953" gradientUnits="userSpaceOnUse">
            <stop stop-color="white"/>
            <stop offset="0.110591" stop-color="white" stop-opacity="0.88"/>
            <stop offset="0.24757" stop-color="white" stop-opacity="0.62"/>
            <stop offset="0.43101" stop-color="white" stop-opacity="0.26"/>
            <stop offset="0.657348" stop-color="white" stop-opacity="0"/>
        </linearGradient>
        <linearGradient id="paint5_linear_1596_26570" x1="70.3243" y1="58.2317" x2="17.8934" y2="5.94881" gradientUnits="userSpaceOnUse">
            <stop stop-color="white"/>
            <stop offset="0.553424" stop-color="white" stop-opacity="0"/>
        </linearGradient>
        <linearGradient id="paint6_linear_1596_26570" x1="55.3155" y1="36.4769" x2="50.3635" y2="66.4808" gradientUnits="userSpaceOnUse">
            <stop offset="0.00514267" stop-color="#8A8798"/>
            <stop offset="1" stop-color="#25ECC6"/>
        </linearGradient>
        <linearGradient id="paint7_linear_1596_26570" x1="39.7373" y1="39.6259" x2="33.0553" y2="53.5196" gradientUnits="userSpaceOnUse">
            <stop offset="0.00514267" stop-color="#8A8798"/>
            <stop offset="1" stop-color="#25ECC6"/>
        </linearGradient>
        <linearGradient id="paint8_linear_1596_26570" x1="23.2502" y1="39.6259" x2="16.5682" y2="53.5196" gradientUnits="userSpaceOnUse">
            <stop offset="0.00514267" stop-color="#8A8798"/>
            <stop offset="1" stop-color="#25ECC6"/>
        </linearGradient>
        <linearGradient id="paint9_linear_1596_26570" x1="56.2244" y1="39.6259" x2="49.5424" y2="53.5196" gradientUnits="userSpaceOnUse">
            <stop offset="0.00514267" stop-color="#8A8798"/>
            <stop offset="1" stop-color="#25ECC6"/>
        </linearGradient>
    </defs>
</svg>
