<svg width="72" height="73" viewBox="0 0 72 73" fill="none" xmlns="http://www.w3.org/2000/svg">
<g filter="url(#filter0_i_1596_26562)">
<path d="M55.3845 21.223C55.3845 16.6348 59.104 12.9153 63.6922 12.9153C68.2804 12.9153 71.9999 16.6348 71.9999 21.223C71.9999 25.8112 68.2804 29.5307 63.6922 29.5307C59.104 29.5307 55.3845 25.8112 55.3845 21.223Z" fill="url(#paint0_linear_1596_26562)"/>
</g>
<path d="M63.5597 20.3994C64.5613 20.3994 65.3732 19.5874 65.3732 18.5859C65.3732 17.5844 64.5613 16.7725 63.5597 16.7725C62.5582 16.7725 61.7463 17.5844 61.7463 18.5859C61.7463 19.5874 62.5582 20.3994 63.5597 20.3994Z" fill="white"/>
<path d="M61.0466 25.5217C59.9648 25.5217 59.2331 24.3446 59.774 23.4219C60.5057 22.0857 61.9374 21.1631 63.5917 21.1631C65.2461 21.1631 66.646 22.0539 67.4095 23.4219C67.9504 24.3764 67.2186 25.5217 66.1369 25.5217H61.0466Z" fill="white"/>
<mask id="mask0_1596_26562" style="mask-type:alpha" maskUnits="userSpaceOnUse" x="55" y="12" width="17" height="18">
<path d="M55.3845 21.223C55.3845 16.6348 59.104 12.9153 63.6922 12.9153C68.2804 12.9153 71.9999 16.6348 71.9999 21.223C71.9999 25.8112 68.2804 29.5307 63.6922 29.5307C59.104 29.5307 55.3845 25.8112 55.3845 21.223Z" fill="url(#paint1_linear_1596_26562)"/>
</mask>
<g mask="url(#mask0_1596_26562)">
<g opacity="0.4" filter="url(#filter1_f_1596_26562)">
<path d="M37.7329 35.8474L4.98456 35.8474L9.28967 27.9181C10.1817 26.342 11.283 25.1 13.7583 25.1L37.8424 25.1L61.9485 25.0999C64.4019 25.0999 65.341 26.342 66.4171 27.918L70.7222 35.8474L37.7329 35.8474Z" fill="black"/>
</g>
</g>
<g filter="url(#filter2_i_1596_26562)">
<path d="M29.3538 11.8077C29.3538 7.21948 33.0733 3.5 37.6615 3.5C42.2497 3.5 45.9692 7.21948 45.9692 11.8077C45.9692 16.3959 42.2497 20.1154 37.6615 20.1154C33.0733 20.1154 29.3538 16.3959 29.3538 11.8077Z" fill="url(#paint2_linear_1596_26562)"/>
</g>
<path d="M37.529 10.9843C38.5305 10.9843 39.3424 10.1724 39.3424 9.17086C39.3424 8.16933 38.5305 7.35742 37.529 7.35742C36.5274 7.35742 35.7155 8.16933 35.7155 9.17086C35.7155 10.1724 36.5274 10.9843 37.529 10.9843Z" fill="white"/>
<path d="M35.0158 16.1064C33.9341 16.1064 33.2024 14.9293 33.7433 14.0067C34.475 12.6704 35.9067 11.7478 37.561 11.7478C39.2154 11.7478 40.6153 12.6386 41.3788 14.0067C41.9197 14.9611 41.1879 16.1064 40.1062 16.1064H35.0158Z" fill="white"/>
<rect x="6.54794" y="44.6548" width="60.216" height="22.0145" fill="#353145"/>
<g filter="url(#filter3_i_1596_26562)">
<path d="M36.7065 37.2729L3.9581 37.2729L8.26321 29.3436C9.15529 27.7676 10.2566 26.5255 12.7319 26.5255L36.816 26.5255L60.922 26.5255C63.3754 26.5255 64.3145 27.7676 65.3907 29.3436L69.6958 37.2729L36.7065 37.2729Z" fill="url(#paint3_linear_1596_26562)"/>
</g>
<mask id="mask1_1596_26562" style="mask-type:alpha" maskUnits="userSpaceOnUse" x="3" y="26" width="67" height="12">
<path d="M36.9478 37.2729L69.6962 37.2729L65.3911 29.3436C64.499 27.7676 63.3977 26.5255 60.9224 26.5255L36.8383 26.5255L12.7323 26.5255C10.2789 26.5255 9.33975 27.7676 8.26359 29.3436L3.95848 37.2729L36.9478 37.2729Z" fill="url(#paint4_linear_1596_26562)"/>
</mask>
<g mask="url(#mask1_1596_26562)">
<g opacity="0.6" filter="url(#filter4_f_1596_26562)">
<path d="M-3.32343 23.7151C-3.32343 16.5269 2.50377 10.6997 9.69197 10.6997C16.8802 10.6997 22.7074 16.5269 22.7074 23.7151C22.7074 30.9033 16.8802 36.7305 9.69197 36.7305C2.50377 36.7305 -3.32343 30.9033 -3.32343 23.7151Z" fill="black"/>
</g>
</g>
<g filter="url(#filter5_i_1596_26562)">
<rect x="3.95898" y="52.749" width="65.7377" height="15.0873" rx="2.20145" fill="url(#paint5_linear_1596_26562)"/>
</g>
<rect x="8.26944" y="59.2153" width="33.9465" height="2.15533" rx="1.07767" fill="#8A8798"/>
<rect x="59.4584" y="59.2153" width="2.15533" height="2.15533" rx="1.07767" fill="#8A8798"/>
<rect x="55.1476" y="59.2153" width="2.15533" height="2.15533" rx="1.07767" fill="#8A8798"/>
<rect x="63.7695" y="59.2153" width="2.15533" height="2.15533" rx="1.07767" fill="#29FFB2"/>
<g filter="url(#filter6_i_1596_26562)">
<rect x="3.95898" y="35.2671" width="65.7377" height="15.0873" rx="2.20145" fill="url(#paint6_linear_1596_26562)"/>
</g>
<path opacity="0.5" d="M58.9454 46.444L59.42 45.6828C59.6643 45.8395 59.8993 45.9538 60.1248 46.0258C60.3504 46.0979 60.5978 46.1339 60.8672 46.1339C61.3058 46.1339 61.6331 46.029 61.8493 45.8191C62.0654 45.6092 62.1735 45.3524 62.1735 45.0485C62.1735 44.6538 62.0278 44.3609 61.7365 44.1698C61.4483 43.9756 61.0317 43.8785 60.4866 43.8785H59.9322V42.9951H60.449C60.9471 42.9951 61.3214 42.9059 61.572 42.7273C61.8226 42.5488 61.9479 42.2637 61.9479 41.8721C61.9479 41.5683 61.8571 41.3365 61.6754 41.1767C61.4969 41.017 61.2666 40.9371 60.9847 40.9371C60.756 40.9371 60.5274 40.9762 60.2987 41.0545C60.07 41.1297 59.8366 41.2472 59.5986 41.407L59.124 40.6693C59.4341 40.4594 59.7474 40.3043 60.0637 40.2041C60.3833 40.1038 60.7325 40.0537 61.1116 40.0537C61.7036 40.0537 62.1798 40.2056 62.54 40.5095C62.9034 40.8133 63.0851 41.2174 63.0851 41.7218C63.0851 42.129 62.9801 42.4736 62.7702 42.7555C62.5635 43.0374 62.2518 43.2442 61.8352 43.3757V43.3945C62.2706 43.4572 62.6246 43.6326 62.8971 43.9208C63.1728 44.2059 63.3106 44.5677 63.3106 45.0062C63.3106 45.6139 63.0976 46.1026 62.6716 46.4722C62.2455 46.8387 61.6786 47.022 60.9706 47.022C60.5853 47.022 60.2313 46.9766 59.9087 46.8857C59.586 46.7917 59.265 46.6445 58.9454 46.444Z" fill="white"/>
<path opacity="0.5" d="M58.0385 41.8296L56.7511 42.0505L57.6579 43.1218L56.9766 43.587L56.2859 42.37L55.5952 43.587L54.9092 43.1218L55.8207 42.0505L54.5286 41.8296L54.7964 41.0684L56.0087 41.5571L55.8536 40.1663H56.7182L56.5678 41.5571L57.7707 41.0684L58.0385 41.8296Z" fill="white"/>
<path opacity="0.5" d="M53.7721 41.8296L52.4846 42.0505L53.3915 43.1218L52.7101 43.587L52.0194 42.37L51.3287 43.587L50.6427 43.1218L51.5542 42.0505L50.2621 41.8296L50.5299 41.0684L51.7422 41.5571L51.5871 40.1663H52.4517L52.3014 41.5571L53.5042 41.0684L53.7721 41.8296Z" fill="white"/>
<path opacity="0.5" d="M48.6739 47.0126C48.4734 47.0126 48.3059 46.95 48.1712 46.8247C48.0365 46.6962 47.9691 46.538 47.9691 46.3501C47.9691 46.1621 48.0365 46.0039 48.1712 45.8755C48.3059 45.7471 48.4734 45.6829 48.6739 45.6829C48.8744 45.6829 49.0404 45.7471 49.172 45.8755C49.3067 46.0008 49.374 46.159 49.374 46.3501C49.374 46.538 49.3067 46.6962 49.172 46.8247C49.0404 46.95 48.8744 47.0126 48.6739 47.0126Z" fill="white"/>
<path opacity="0.5" d="M47.0905 41.8296L45.803 42.0505L46.7099 43.1218L46.0286 43.587L45.3378 42.37L44.6471 43.587L43.9611 43.1218L44.8727 42.0505L43.5805 41.8296L43.8483 41.0684L45.0606 41.5571L44.9056 40.1663H45.7701L45.6198 41.5571L46.8227 41.0684L47.0905 41.8296Z" fill="white"/>
<path opacity="0.5" d="M41.9923 47.0126C41.7918 47.0126 41.6242 46.95 41.4895 46.8247C41.3548 46.6962 41.2875 46.538 41.2875 46.3501C41.2875 46.1621 41.3548 46.0039 41.4895 45.8755C41.6242 45.7471 41.7918 45.6829 41.9923 45.6829C42.1928 45.6829 42.3588 45.7471 42.4904 45.8755C42.6251 46.0008 42.6924 46.159 42.6924 46.3501C42.6924 46.538 42.6251 46.6962 42.4904 46.8247C42.3588 46.95 42.1928 47.0126 41.9923 47.0126Z" fill="white"/>
<path opacity="0.5" d="M40.4088 41.8296L39.1213 42.0505L40.0282 43.1218L39.3469 43.587L38.6561 42.37L37.9654 43.587L37.2794 43.1218L38.191 42.0505L36.8988 41.8296L37.1666 41.0684L38.3789 41.5571L38.2239 40.1663H39.0884L38.9381 41.5571L40.141 41.0684L40.4088 41.8296Z" fill="white"/>
<path opacity="0.5" d="M36.0108 44.7384C36.0108 45.4087 35.804 45.9569 35.3905 46.383C34.977 46.809 34.4539 47.022 33.8211 47.022C33.1132 47.022 32.5603 46.7542 32.1625 46.2185C31.7646 45.6797 31.5657 44.9122 31.5657 43.9161C31.5657 43.3867 31.6206 42.8792 31.7302 42.3937C31.8398 41.905 32.0325 41.4727 32.3081 41.0968C32.5619 40.746 32.8563 40.4844 33.1915 40.3121C33.5267 40.1399 33.9355 40.0537 34.4179 40.0537C34.6497 40.0537 34.8862 40.0913 35.1274 40.1665C35.3686 40.2385 35.6145 40.3701 35.8651 40.5612L35.2966 41.2566C35.1525 41.147 35.0068 41.0671 34.8596 41.017C34.7155 40.9637 34.5495 40.9371 34.3615 40.9371C34.1078 40.9371 33.8822 40.9903 33.6849 41.0968C33.4875 41.2002 33.3043 41.3647 33.1351 41.5902C32.9816 41.7938 32.8642 42.0429 32.7827 42.3373C32.7044 42.6318 32.6637 42.9576 32.6605 43.3147H32.684C32.8626 43.0891 33.0787 42.92 33.3325 42.8072C33.5862 42.6913 33.8572 42.6333 34.1454 42.6333C34.7092 42.6333 35.1603 42.8276 35.4986 43.216C35.8401 43.6013 36.0108 44.1087 36.0108 44.7384ZM34.9348 44.7948C34.9348 44.3625 34.8392 44.0398 34.6481 43.8268C34.4602 43.6107 34.208 43.5026 33.8916 43.5026C33.522 43.5026 33.2307 43.6201 33.0177 43.855C32.8078 44.09 32.7028 44.3781 32.7028 44.7196C32.7028 45.13 32.8062 45.4683 33.013 45.7345C33.2228 46.0008 33.4969 46.1339 33.8352 46.1339C34.1673 46.1339 34.4336 46.018 34.634 45.7862C34.8345 45.5513 34.9348 45.2208 34.9348 44.7948Z" fill="white"/>
<path opacity="0.5" d="M30.6917 41.8296L29.4043 42.0505L30.3111 43.1218L29.6298 43.587L28.9391 42.37L28.2484 43.587L27.5624 43.1218L28.4739 42.0505L27.1818 41.8296L27.4496 41.0684L28.6619 41.5571L28.5068 40.1663H29.3714L29.221 41.5571L30.4239 41.0684L30.6917 41.8296Z" fill="white"/>
<path opacity="0.5" d="M25.5936 47.0126C25.3931 47.0126 25.2255 46.95 25.0908 46.8247C24.9561 46.6962 24.8888 46.538 24.8888 46.3501C24.8888 46.1621 24.9561 46.0039 25.0908 45.8755C25.2255 45.7471 25.3931 45.6829 25.5936 45.6829C25.7941 45.6829 25.9601 45.7471 26.0916 45.8755C26.2263 46.0008 26.2937 46.159 26.2937 46.3501C26.2937 46.538 26.2263 46.6962 26.0916 46.8247C25.9601 46.95 25.7941 47.0126 25.5936 47.0126Z" fill="white"/>
<path opacity="0.5" d="M23.8926 43.169C23.8926 44.4157 23.6687 45.3696 23.2207 46.0305C22.7759 46.6915 22.0805 47.022 21.1345 47.022C20.8024 47.022 20.497 46.9719 20.2182 46.8716C19.9394 46.7683 19.6747 46.6069 19.4241 46.3877L20.0021 45.6969C20.1712 45.841 20.3466 45.9491 20.5283 46.0212C20.7131 46.0901 20.9324 46.1245 21.1861 46.1245C21.7155 46.1245 22.1212 45.9287 22.4031 45.5372C22.6882 45.1425 22.8307 44.5379 22.8307 43.7235L22.8072 43.7188C22.6631 43.9631 22.472 44.1479 22.234 44.2732C21.999 44.3954 21.7171 44.4565 21.3882 44.4565C20.8275 44.4565 20.367 44.2607 20.0067 43.8691C19.6465 43.4775 19.4664 42.9763 19.4664 42.3655C19.4664 41.6764 19.6747 41.1188 20.0913 40.6927C20.5111 40.2667 21.0467 40.0537 21.6983 40.0537C22.3906 40.0537 22.9294 40.3262 23.3147 40.8713C23.7 41.4164 23.8926 42.1823 23.8926 43.169ZM22.779 42.4313C22.779 41.9959 22.6725 41.6388 22.4595 41.36C22.2496 41.078 21.9787 40.9371 21.6466 40.9371C21.3302 40.9371 21.0671 41.0624 20.8572 41.313C20.6505 41.5605 20.5471 41.8737 20.5471 42.2527C20.5471 42.6694 20.6505 42.9936 20.8572 43.2254C21.0671 43.4541 21.3428 43.5684 21.6842 43.5684C21.9975 43.5684 22.2575 43.4588 22.4642 43.2395C22.6741 43.0171 22.779 42.7477 22.779 42.4313Z" fill="white"/>
<path opacity="0.5" d="M18.5595 41.8296L17.2721 42.0505L18.1789 43.1218L17.4976 43.587L16.8069 42.37L16.1162 43.587L15.4302 43.1218L16.3417 42.0505L15.0496 41.8296L15.3174 41.0684L16.5297 41.5571L16.3746 40.1663H17.2392L17.0888 41.5571L18.2917 41.0684L18.5595 41.8296Z" fill="white"/>
<path opacity="0.5" d="M13.5412 46.9045H12.4276V41.4398C12.2867 41.5463 12.0877 41.656 11.8309 41.7688C11.5771 41.8815 11.3312 41.9724 11.0932 42.0413L10.7878 41.1203C11.1824 41.0138 11.5756 40.8603 11.9671 40.6598C12.3618 40.4562 12.6923 40.2417 12.9586 40.0161H13.5412V46.9045Z" fill="white"/>
<g filter="url(#filter7_i_1596_26562)">
<path d="M0 21.223C0 15.4113 4.71135 10.7 10.5231 10.7C16.3348 10.7 21.0462 15.4113 21.0462 21.223C21.0462 27.0348 16.3348 31.7461 10.5231 31.7461C4.71135 31.7461 0 27.0348 0 21.223Z" fill="url(#paint7_linear_1596_26562)"/>
</g>
<path d="M10.355 20.1795C11.6236 20.1795 12.652 19.1511 12.652 17.8825C12.652 16.6139 11.6236 15.5854 10.355 15.5854C9.08636 15.5854 8.05795 16.6139 8.05795 17.8825C8.05795 19.1511 9.08636 20.1795 10.355 20.1795Z" fill="white"/>
<path d="M7.17144 26.6677C5.80129 26.6677 4.87441 25.1766 5.55949 24.0079C6.48636 22.3154 8.29981 21.1467 10.3953 21.1467C12.4909 21.1467 14.264 22.2751 15.2312 24.0079C15.9163 25.2169 14.9894 26.6677 13.6192 26.6677H7.17144Z" fill="white"/>
<defs>
<filter id="filter0_i_1596_26562" x="55.3845" y="12.9153" width="16.6154" height="17.7232" filterUnits="userSpaceOnUse" color-interpolation-filters="sRGB">
<feFlood flood-opacity="0" result="BackgroundImageFix"/>
<feBlend mode="normal" in="SourceGraphic" in2="BackgroundImageFix" result="shape"/>
<feColorMatrix in="SourceAlpha" type="matrix" values="0 0 0 0 0 0 0 0 0 0 0 0 0 0 0 0 0 0 127 0" result="hardAlpha"/>
<feOffset dy="1.10769"/>
<feGaussianBlur stdDeviation="0.553846"/>
<feComposite in2="hardAlpha" operator="arithmetic" k2="-1" k3="1"/>
<feColorMatrix type="matrix" values="0 0 0 0 1 0 0 0 0 1 0 0 0 0 1 0 0 0 0.4 0"/>
<feBlend mode="normal" in2="shape" result="effect1_innerShadow_1596_26562"/>
</filter>
<filter id="filter1_f_1596_26562" x="2.76917" y="22.8845" width="70.1684" height="15.1783" filterUnits="userSpaceOnUse" color-interpolation-filters="sRGB">
<feFlood flood-opacity="0" result="BackgroundImageFix"/>
<feBlend mode="normal" in="SourceGraphic" in2="BackgroundImageFix" result="shape"/>
<feGaussianBlur stdDeviation="1.10769" result="effect1_foregroundBlur_1596_26562"/>
</filter>
<filter id="filter2_i_1596_26562" x="29.3538" y="3.5" width="16.6154" height="17.7232" filterUnits="userSpaceOnUse" color-interpolation-filters="sRGB">
<feFlood flood-opacity="0" result="BackgroundImageFix"/>
<feBlend mode="normal" in="SourceGraphic" in2="BackgroundImageFix" result="shape"/>
<feColorMatrix in="SourceAlpha" type="matrix" values="0 0 0 0 0 0 0 0 0 0 0 0 0 0 0 0 0 0 127 0" result="hardAlpha"/>
<feOffset dy="1.10769"/>
<feGaussianBlur stdDeviation="0.553846"/>
<feComposite in2="hardAlpha" operator="arithmetic" k2="-1" k3="1"/>
<feColorMatrix type="matrix" values="0 0 0 0 1 0 0 0 0 1 0 0 0 0 1 0 0 0 0.4 0"/>
<feBlend mode="normal" in2="shape" result="effect1_innerShadow_1596_26562"/>
</filter>
<filter id="filter3_i_1596_26562" x="3.9581" y="26.5254" width="65.7377" height="12.0425" filterUnits="userSpaceOnUse" color-interpolation-filters="sRGB">
<feFlood flood-opacity="0" result="BackgroundImageFix"/>
<feBlend mode="normal" in="SourceGraphic" in2="BackgroundImageFix" result="shape"/>
<feColorMatrix in="SourceAlpha" type="matrix" values="0 0 0 0 0 0 0 0 0 0 0 0 0 0 0 0 0 0 127 0" result="hardAlpha"/>
<feOffset dy="1.29497"/>
<feGaussianBlur stdDeviation="0.647484"/>
<feComposite in2="hardAlpha" operator="arithmetic" k2="-1" k3="1"/>
<feColorMatrix type="matrix" values="0 0 0 0 1 0 0 0 0 1 0 0 0 0 1 0 0 0 0.35 0"/>
<feBlend mode="normal" in2="shape" result="effect1_innerShadow_1596_26562"/>
</filter>
<filter id="filter4_f_1596_26562" x="-11.5181" y="2.50498" width="42.4202" height="42.4202" filterUnits="userSpaceOnUse" color-interpolation-filters="sRGB">
<feFlood flood-opacity="0" result="BackgroundImageFix"/>
<feBlend mode="normal" in="SourceGraphic" in2="BackgroundImageFix" result="shape"/>
<feGaussianBlur stdDeviation="4.09736" result="effect1_foregroundBlur_1596_26562"/>
</filter>
<filter id="filter5_i_1596_26562" x="3.95898" y="52.749" width="65.7377" height="15.3518" filterUnits="userSpaceOnUse" color-interpolation-filters="sRGB">
<feFlood flood-opacity="0" result="BackgroundImageFix"/>
<feBlend mode="normal" in="SourceGraphic" in2="BackgroundImageFix" result="shape"/>
<feColorMatrix in="SourceAlpha" type="matrix" values="0 0 0 0 0 0 0 0 0 0 0 0 0 0 0 0 0 0 127 0" result="hardAlpha"/>
<feOffset dy="0.264389"/>
<feGaussianBlur stdDeviation="0.534692"/>
<feComposite in2="hardAlpha" operator="arithmetic" k2="-1" k3="1"/>
<feColorMatrix type="matrix" values="0 0 0 0 1 0 0 0 0 1 0 0 0 0 1 0 0 0 0.6 0"/>
<feBlend mode="normal" in2="shape" result="effect1_innerShadow_1596_26562"/>
</filter>
<filter id="filter6_i_1596_26562" x="3.95898" y="35.2671" width="65.7377" height="15.3518" filterUnits="userSpaceOnUse" color-interpolation-filters="sRGB">
<feFlood flood-opacity="0" result="BackgroundImageFix"/>
<feBlend mode="normal" in="SourceGraphic" in2="BackgroundImageFix" result="shape"/>
<feColorMatrix in="SourceAlpha" type="matrix" values="0 0 0 0 0 0 0 0 0 0 0 0 0 0 0 0 0 0 127 0" result="hardAlpha"/>
<feOffset dy="0.264389"/>
<feGaussianBlur stdDeviation="0.534692"/>
<feComposite in2="hardAlpha" operator="arithmetic" k2="-1" k3="1"/>
<feColorMatrix type="matrix" values="0 0 0 0 1 0 0 0 0 1 0 0 0 0 1 0 0 0 0.6 0"/>
<feBlend mode="normal" in2="shape" result="effect1_innerShadow_1596_26562"/>
</filter>
<filter id="filter7_i_1596_26562" x="0" y="10.7" width="21.0462" height="22.1538" filterUnits="userSpaceOnUse" color-interpolation-filters="sRGB">
<feFlood flood-opacity="0" result="BackgroundImageFix"/>
<feBlend mode="normal" in="SourceGraphic" in2="BackgroundImageFix" result="shape"/>
<feColorMatrix in="SourceAlpha" type="matrix" values="0 0 0 0 0 0 0 0 0 0 0 0 0 0 0 0 0 0 127 0" result="hardAlpha"/>
<feOffset dy="1.10769"/>
<feGaussianBlur stdDeviation="0.553846"/>
<feComposite in2="hardAlpha" operator="arithmetic" k2="-1" k3="1"/>
<feColorMatrix type="matrix" values="0 0 0 0 1 0 0 0 0 1 0 0 0 0 1 0 0 0 0.4 0"/>
<feBlend mode="normal" in2="shape" result="effect1_innerShadow_1596_26562"/>
</filter>
<linearGradient id="paint0_linear_1596_26562" x1="65.4724" y1="12.9153" x2="58.3027" y2="29.795" gradientUnits="userSpaceOnUse">
<stop stop-color="#F4C13C"/>
<stop offset="1" stop-color="#EB702C"/>
</linearGradient>
<linearGradient id="paint1_linear_1596_26562" x1="65.4724" y1="12.9153" x2="58.3027" y2="29.795" gradientUnits="userSpaceOnUse">
<stop stop-color="#F4C13C"/>
<stop offset="1" stop-color="#EB702C"/>
</linearGradient>
<linearGradient id="paint2_linear_1596_26562" x1="30.7168" y1="19.2657" x2="47.7619" y2="8.29304" gradientUnits="userSpaceOnUse">
<stop stop-color="#6898EC"/>
<stop offset="0.578203" stop-color="#41CAD6"/>
<stop offset="1" stop-color="#25ECC6"/>
</linearGradient>
<linearGradient id="paint3_linear_1596_26562" x1="26.4943" y1="30.1075" x2="69.6841" y2="27.9108" gradientUnits="userSpaceOnUse">
<stop stop-color="#44414B"/>
<stop offset="0.375" stop-color="#504C5B"/>
<stop offset="1" stop-color="#B1AFBC"/>
</linearGradient>
<linearGradient id="paint4_linear_1596_26562" x1="54.4932" y1="16.1459" x2="13.0027" y2="29.7123" gradientUnits="userSpaceOnUse">
<stop stop-color="#C7C1B6"/>
<stop offset="1" stop-color="white"/>
</linearGradient>
<linearGradient id="paint5_linear_1596_26562" x1="10.6864" y1="52.749" x2="15.3593" y2="77.0597" gradientUnits="userSpaceOnUse">
<stop stop-color="#3C3848"/>
<stop offset="0.385417" stop-color="#646072"/>
<stop offset="1" stop-color="#3B3747"/>
</linearGradient>
<linearGradient id="paint6_linear_1596_26562" x1="10.6864" y1="35.2671" x2="15.3593" y2="59.5777" gradientUnits="userSpaceOnUse">
<stop stop-color="#3C3848"/>
<stop offset="0.385417" stop-color="#646072"/>
<stop offset="1" stop-color="#3B3747"/>
</linearGradient>
<linearGradient id="paint7_linear_1596_26562" x1="10.5824" y1="10.7" x2="10.5824" y2="31.6871" gradientUnits="userSpaceOnUse">
<stop stop-color="#ECAAFF"/>
<stop offset="1" stop-color="#6A48F6"/>
</linearGradient>
</defs>
</svg>
