<svg width="72" height="72" viewBox="0 0 72 72" fill="none" xmlns="http://www.w3.org/2000/svg">
<g filter="url(#filter0_i_2430_22778)">
<path d="M70.8929 63.0675H1.10706C0.486027 63.0675 0 62.5835 0 61.965V61.3465C0 60.7281 0.486027 60.244 1.10706 60.244H70.8929C71.514 60.244 72 60.7281 72 61.3465V61.965C72 62.5835 71.487 63.0675 70.8929 63.0675Z" fill="#3B3747"/>
<path d="M70.8929 63.0675H1.10706C0.486027 63.0675 0 62.5835 0 61.965V61.3465C0 60.7281 0.486027 60.244 1.10706 60.244H70.8929C71.514 60.244 72 60.7281 72 61.3465V61.965C72 62.5835 71.487 63.0675 70.8929 63.0675Z" fill="url(#paint0_linear_2430_22778)" fill-opacity="0.2"/>
</g>
<g filter="url(#filter1_i_2430_22778)">
<path d="M6.4668 22.0875C6.4668 20.6588 7.62497 19.5007 9.05366 19.5007H62.7311C64.1597 19.5007 65.3179 20.6588 65.3179 22.0875V60.2438H6.4668V22.0875Z" fill="#3B3747"/>
<path d="M6.4668 22.0875C6.4668 20.6588 7.62497 19.5007 9.05366 19.5007H62.7311C64.1597 19.5007 65.3179 20.6588 65.3179 22.0875V60.2438H6.4668V22.0875Z" fill="url(#paint1_linear_2430_22778)" fill-opacity="0.2"/>
</g>
<path d="M7.76172 22.0877C7.76172 21.3734 8.34081 20.7943 9.05515 20.7943H62.7326C63.4469 20.7943 64.026 21.3734 64.026 22.0877V60.244H7.76172V22.0877Z" fill="url(#paint2_linear_2430_22778)"/>
<rect x="10.5" y="53.2507" width="49.5" height="1.5" rx="0.75" fill="#ADA9BD"/>
<rect x="10.5" y="53.2507" width="39" height="1.5" rx="0.75" fill="url(#paint3_linear_2430_22778)"/>
<circle cx="49.3886" cy="53.8892" r="2.88857" fill="#26EDC6"/>
<circle cx="49.3896" cy="53.888" r="1.44428" fill="white"/>
<path d="M39.2653 61.7858H32.5574C31.6918 61.7858 31.0156 61.0825 31.0156 60.244H40.807C40.807 61.0825 40.1308 61.7858 39.2653 61.7858Z" fill="#757183"/>
<g opacity="0.8" filter="url(#filter2_f_2430_22778)">
<path d="M21.2578 34.9458C21.2578 26.7326 27.916 20.0744 36.1292 20.0744C44.3425 20.0744 51.0006 26.7326 51.0006 34.9458C51.0006 43.1591 44.3425 49.8172 36.1292 49.8172C27.916 49.8172 21.2578 43.1591 21.2578 34.9458Z" fill="#1C1B24"/>
</g>
<g filter="url(#filter3_i_2430_22778)">
<path d="M21.2578 28.3716C21.2578 20.1583 27.916 13.5002 36.1292 13.5002C44.3425 13.5002 51.0006 20.1583 51.0006 28.3716C51.0006 36.5848 44.3425 43.243 36.1292 43.243C27.916 43.243 21.2578 36.5848 21.2578 28.3716Z" fill="url(#paint4_linear_2430_22778)"/>
</g>
<path d="M32.7383 33.4504V23.2887C32.7383 22.4525 33.6726 21.9559 34.3658 22.4237L41.8929 27.5046C42.5059 27.9183 42.5059 28.8208 41.8929 29.2345L34.3658 34.3153C33.6726 34.7832 32.7383 34.2866 32.7383 33.4504Z" fill="white"/>
<path d="M16.887 6.37309L16.1831 8.1329C16.0826 8.38401 15.8836 8.58298 15.6325 8.68342L13.8727 9.38734C13.3758 9.58613 13.3758 10.2896 13.8727 10.4884L15.6325 11.1923C15.8836 11.2928 16.0826 11.4917 16.1831 11.7428L16.887 13.5026C17.0858 13.9996 17.7892 13.9996 17.988 13.5026L18.6919 11.7428C18.7924 11.4917 18.9914 11.2928 19.2425 11.1923L21.0023 10.4884C21.4992 10.2896 21.4992 9.58613 21.0023 9.38734L19.2425 8.68342C18.9914 8.58298 18.7924 8.38401 18.6919 8.1329L17.988 6.37309C17.7892 5.87613 17.0858 5.87613 16.887 6.37309Z" fill="#6D697D"/>
<path d="M53.25 13.5002C54.4926 13.5002 55.5 12.4928 55.5 11.2502C55.5 10.0075 54.4926 9.00018 53.25 9.00018C52.0074 9.00018 51 10.0075 51 11.2502C51 12.4928 52.0074 13.5002 53.25 13.5002Z" fill="#6D697D"/>
<defs>
<filter id="filter0_i_2430_22778" x="0" y="60.244" width="72" height="3.29106" filterUnits="userSpaceOnUse" color-interpolation-filters="sRGB">
<feFlood flood-opacity="0" result="BackgroundImageFix"/>
<feBlend mode="normal" in="SourceGraphic" in2="BackgroundImageFix" result="shape"/>
<feColorMatrix in="SourceAlpha" type="matrix" values="0 0 0 0 0 0 0 0 0 0 0 0 0 0 0 0 0 0 127 0" result="hardAlpha"/>
<feOffset dy="0.467532"/>
<feGaussianBlur stdDeviation="0.233766"/>
<feComposite in2="hardAlpha" operator="arithmetic" k2="-1" k3="1"/>
<feColorMatrix type="matrix" values="0 0 0 0 1 0 0 0 0 1 0 0 0 0 1 0 0 0 0.4 0"/>
<feBlend mode="normal" in2="shape" result="effect1_innerShadow_2430_22778"/>
</filter>
<filter id="filter1_i_2430_22778" x="6.4668" y="19.5007" width="58.8516" height="41.1931" filterUnits="userSpaceOnUse" color-interpolation-filters="sRGB">
<feFlood flood-opacity="0" result="BackgroundImageFix"/>
<feBlend mode="normal" in="SourceGraphic" in2="BackgroundImageFix" result="shape"/>
<feColorMatrix in="SourceAlpha" type="matrix" values="0 0 0 0 0 0 0 0 0 0 0 0 0 0 0 0 0 0 127 0" result="hardAlpha"/>
<feOffset dy="0.45"/>
<feGaussianBlur stdDeviation="0.225"/>
<feComposite in2="hardAlpha" operator="arithmetic" k2="-1" k3="1"/>
<feColorMatrix type="matrix" values="0 0 0 0 1 0 0 0 0 1 0 0 0 0 1 0 0 0 0.45 0"/>
<feBlend mode="normal" in2="shape" result="effect1_innerShadow_2430_22778"/>
</filter>
<filter id="filter2_f_2430_22778" x="9.98527" y="8.80186" width="52.2873" height="52.2879" filterUnits="userSpaceOnUse" color-interpolation-filters="sRGB">
<feFlood flood-opacity="0" result="BackgroundImageFix"/>
<feBlend mode="normal" in="SourceGraphic" in2="BackgroundImageFix" result="shape"/>
<feGaussianBlur stdDeviation="5.63627" result="effect1_foregroundBlur_2430_22778"/>
</filter>
<filter id="filter3_i_2430_22778" x="21.2578" y="13.5002" width="29.7422" height="31.0845" filterUnits="userSpaceOnUse" color-interpolation-filters="sRGB">
<feFlood flood-opacity="0" result="BackgroundImageFix"/>
<feBlend mode="normal" in="SourceGraphic" in2="BackgroundImageFix" result="shape"/>
<feColorMatrix in="SourceAlpha" type="matrix" values="0 0 0 0 0 0 0 0 0 0 0 0 0 0 0 0 0 0 127 0" result="hardAlpha"/>
<feOffset dy="1.34165"/>
<feGaussianBlur stdDeviation="0.670825"/>
<feComposite in2="hardAlpha" operator="arithmetic" k2="-1" k3="1"/>
<feColorMatrix type="matrix" values="0 0 0 0 1 0 0 0 0 1 0 0 0 0 1 0 0 0 0.4 0"/>
<feBlend mode="normal" in2="shape" result="effect1_innerShadow_2430_22778"/>
</filter>
<linearGradient id="paint0_linear_2430_22778" x1="54.5316" y1="64.2729" x2="54.1531" y2="58.4529" gradientUnits="userSpaceOnUse">
<stop stop-color="white"/>
<stop offset="0.553424" stop-color="white" stop-opacity="0"/>
</linearGradient>
<linearGradient id="paint1_linear_2430_22778" x1="51.0397" y1="77.6374" x2="9.27088" y2="41.2629" gradientUnits="userSpaceOnUse">
<stop stop-color="white"/>
<stop offset="0.553424" stop-color="white" stop-opacity="0"/>
</linearGradient>
<linearGradient id="paint2_linear_2430_22778" x1="41.1593" y1="10.5047" x2="28.1409" y2="49.4506" gradientUnits="userSpaceOnUse">
<stop stop-color="#A7A4B5"/>
<stop offset="1" stop-color="#4A4658"/>
</linearGradient>
<linearGradient id="paint3_linear_2430_22778" x1="10.5" y1="54.7507" x2="11.0917" y2="49.8661" gradientUnits="userSpaceOnUse">
<stop stop-color="#8A6EFF"/>
<stop offset="1" stop-color="#25ECC6"/>
</linearGradient>
<linearGradient id="paint4_linear_2430_22778" x1="37.5592" y1="3.49058" x2="45.8528" y2="41.5271" gradientUnits="userSpaceOnUse">
<stop stop-color="#ECAAFF"/>
<stop offset="1" stop-color="#6A48F6"/>
</linearGradient>
</defs>
</svg>
