<svg xmlns="http://www.w3.org/2000/svg" width="640" height="480" viewBox="0 0 640 480">
<path fill="#3399CC" d="M0,0v480h640V0H0z"/>
<path fill="#FFFF00" d="M0,320v26.7h640V320H0z M0,373.3V400h640v-26.7H0z"/>
<polygon fill="#CC0000" points="119.7,155.9 35.6,133.9 120,111 142.2,26.9 164.6,111 248.7,133.4 164.6,155.9 142.2,240 	"/>
<path fill="#FFFFFF" d="M142.2,34.1l20.9,78.4l78.5,20.9l-78.5,20.9l-20.9,78.4l-20.9-78.4l-78.5-20.5l78.7-21.4L142.2,34.1L142.2,34.1 M142.1,19.7l-3.5,13.5l-20.2,76.4l-76.6,20.8L28.4,134l13.4,3.5l76.4,19.9l20.4,76.4l3.6,13.4l3.6-13.4l20.4-76.4l76.4-20.4l13.4-3.6l-13.4-3.6l-76.4-20.4l-20.4-76.4L142.1,19.7L142.1,19.7z"/>
</svg>
