<svg xmlns="http://www.w3.org/2000/svg" height="480" width="640" viewBox="0 0 640 480"><defs><clipPath id="a"><path fill-opacity=".67" d="M-85.333 0h682.67v512h-682.67z"/></clipPath></defs><g clip-path="url(#a)" fill-rule="evenodd"><path d="M0 0h640.003v480h-640.003z" fill="#009"/><path d="M0 0l640.003 480v-480h-640.003z" fill="#fc0"/><path d="M59.881 70.394l-22.872-16.619-22.872 16.619 8.738-26.887-22.873-16.618h28.27l8.737-26.888 8.738 26.887h28.269l-22.872 16.619m57.068 61.472l-22.872 16.618 8.738-26.887-22.873-16.618h28.27l8.738-26.887 8.738 26.887h28.269l-22.872 16.617 8.738 26.887m25.453 51.198l8.736-26.887-22.872-16.618h28.271l8.738-26.887 8.738 26.887h28.269l-22.872 16.617 8.738 26.887-22.872-16.617m57.065 40.936l-22.872-16.617h28.269l8.738-26.887 8.738 26.887h28.269l-22.872 16.617 8.738 26.887-22.871-16.617-22.872 16.618m57.067 7.691h28.27l8.738-26.887 8.738 26.887h28.269l-22.872 16.617 8.738 26.887-22.872-16.617-22.872 16.618 8.738-26.887m76.6 34.579l8.738-26.887 8.738 26.887h28.269l-22.872 16.617 8.738 26.887-22.872-16.617-22.872 16.618 8.738-26.887-22.873-16.618m108.202 24.319l8.738 26.887h28.269l-22.872 16.617 8.738 26.887-22.872-16.617-22.872 16.618 8.738-26.887-22.873-16.618h28.27m79.941 24.309l8.738 26.887h28.269l-22.872 16.617 8.738 26.887-22.872-16.617-22.872 16.618 8.738-26.887-22.873-16.618h28.27m88.677 51.206h28.27l-22.872 16.617 8.738 26.887-22.872-16.617-22.872 16.618 8.738-26.887-22.873-16.618h28.27l8.738-26.887" fill="#fff"/></g></svg>