<svg xmlns="http://www.w3.org/2000/svg" width="640" height="480" viewBox="0 0 640 480">
<path fill="#000099" d="M0,0h640v480H0V0z"/>
<path fill="#FFCC00" d="M0,0l640,480V0H0z"/>
<path fill="#FFFFFF" d="M59.9,105.4L37,88.8l-22.9,16.6l8.7-26.9L0,61.9h28.3L37,35l8.7,26.9H74L51.1,78.5 M108.2,144l-22.9,16.6l8.7-26.9l-22.9-16.6h28.3l8.7-26.9l8.7,26.9h28.3l-22.9,16.6l8.7,26.9 M156.5,212.8l8.7-26.9l-22.9-16.6h28.3l8.7-26.9l8.7,26.9h28.3l-22.9,16.6l8.7,26.9l-22.9-16.6 M236.5,238.1l-22.9-16.6h28.3l8.7-26.9l8.7,26.9h28.3l-22.9,16.6l8.7,26.9l-22.9-16.6L227.7,265 M284.8,274.7h28.3l8.7-26.9l8.7,26.9h28.3L336,291.3l8.7,26.9l-22.9-16.6l-22.9,16.6l8.7-26.9 M384.3,327.9L393,301l8.7,26.9H430l-22.9,16.6l8.7,26.9L393,354.8l-22.9,16.6l8.7-26.9L356,327.9 M464.2,354.2l8.7,26.9h28.3l-22.9,16.6l8.7,26.9L464.2,408l-22.9,16.6l8.7-26.9l-22.9-16.6h28.3 M535.4,408.4l8.7,26.9h28.3l-22.9,16.6l8.7,26.9l-22.9-16.6l-22.9,16.6l8.7-26.9l-22.9-16.6h28.3"/>
</svg>
