<svg xmlns="http://www.w3.org/2000/svg" height="480" width="640" viewBox="0 0 640 480"><defs><clipPath id="a"><path fill-opacity=".67" d="M-90.533 0h682.67v512h-682.67z"/></clipPath></defs><g clip-path="url(#a)" fill-rule="evenodd"><path d="M-82.089 0l402.214 240.128-402.214 240.128zm804.429 0l-402.214 240.128 402.214 240.128z" fill="#00cf00"/><path d="M-82.089 0l402.214 240.128 402.214-240.128zm0 480.256l402.214-240.128 402.214 240.128z" fill="#f00"/><path d="M722.34 0h-74.948l-729.483 435.513v44.745h74.948l729.483-435.513zM459.001 240.128c0 76.697-62.175 138.871-138.873 138.871s-138.874-62.173-138.874-138.871 62.175-138.874 138.874-138.874 138.873 62.175 138.873 138.874zM-82.089 0v44.745l729.483 435.513h74.948v-44.745l-729.483-435.513z" fill="#fff"/><path stroke="#00de00" stroke-width="3.6591379999999996" fill="#f00" d="M347.462 187.754l-18.056.302-9.331 15.423-9.305-15.451-18.028-.385 8.726-15.779-8.672-15.829 18.03-.311 9.358-15.437 9.303 15.473 18.03.385-8.754 15.774zm-60.501 104.7l-18.056.302-9.331 15.423-9.305-15.449-18.028-.385 8.726-15.781-8.672-15.829 18.03-.311 9.358-15.437 9.303 15.473 18.03.385-8.754 15.774zm122.475 0l-18.056.302-9.331 15.423-9.305-15.449-18.028-.385 8.726-15.781-8.672-15.829 18.03-.311 9.358-15.437 9.303 15.473 18.03.385-8.754 15.774z"/></g></svg>