<svg xmlns="http://www.w3.org/2000/svg" width="640" height="480" viewBox="0 0 640 480">
	<rect fill="#fff" width="640" height="480"/>
	<polygon fill="#ce1126" points="320 274.99 0 466.99 0 480 640 480 640 466.99 320 274.99"/>
	<polygon fill="#ce1126" points="320 205.01 640 13.02 640 0 0 0 0 13.01 320 205.01"/>
	<polygon fill="#1eb53a" points="0 397.01 261.69 240 0 82.99 0 397.01"/>
	<polygon fill="#1eb53a" points="640 82.98 378.31 240 640 397.01 640 82.98"/>
	<circle fill="#fff" cx="320" cy="240" r="136"/>
	<polygon fill="#1eb53a" points="292.29 153.6 301.52 169.6 292.29 185.6 310.76 185.6 320 201.6 329.24 185.6 347.71 185.6 338.48 169.6 347.71 153.6 329.24 153.6 320 137.6 310.76 153.6 292.29 153.6"/>
	<polygon fill="#ce1126" points="297.27 156.48 304.85 169.6 297.27 182.72 312.43 182.72 320 195.84 327.57 182.72 342.72 182.72 335.15 169.6 342.72 156.48 327.57 156.48 320 143.36 312.43 156.48 297.27 156.48"/>
	<polygon fill="#1eb53a" points="231.29 258.6 240.53 274.6 231.29 290.6 249.76 290.6 259 306.6 268.24 290.6 286.71 290.6 277.48 274.6 286.71 258.6 268.24 258.6 259 242.6 249.76 258.6 231.29 258.6"/>
	<polygon fill="#ce1126" points="236.28 261.48 243.85 274.6 236.28 287.72 251.43 287.72 259 300.84 266.57 287.72 281.72 287.72 274.15 274.6 281.72 261.48 266.57 261.48 259 248.36 251.43 261.48 236.28 261.48"/>
	<polygon fill="#1eb53a" points="353.82 259.28 363.06 275.28 353.82 291.28 372.3 291.28 381.54 307.28 390.77 291.28 409.25 291.28 400.01 275.28 409.25 259.28 390.77 259.28 381.54 243.28 372.3 259.28 353.82 259.28"/>
	<polygon fill="#ce1126" points="358.81 262.16 366.39 275.28 358.81 288.4 373.96 288.4 381.54 301.52 389.11 288.4 404.26 288.4 396.69 275.28 404.26 262.16 389.11 262.16 381.54 249.04 373.96 262.16 358.81 262.16"/>
</svg>
