<svg xmlns="http://www.w3.org/2000/svg" height="480" width="640" viewBox="0 0 640 480"><defs><clipPath id="a"><path fill-opacity=".67" d="M0 0h682.6v512h-682.6z"/></clipPath></defs><g fill-rule="evenodd" clip-path="url(#a)"><path fill="#b20000" d="M0 0h960.102v318.853h-960.102z"/><path fill="#429f00" d="M0 318.853h960.102v161.147h-960.102z"/><path fill="#fff" d="M0 0h106.296v480h-106.296z"/><g fill="#b20000"><path d="M5.057 8.139h5.061v8.137h-5.061zm15.185 0h15.185v8.137h-15.185zm5.056-8.139h5.061v8.137h-5.06zm25.312 0h5.063v8.137h-5.063zm20.243 8.139h15.186v8.137h-15.186zm5.072-8.139h5.061v8.137h-5.061zM15.185 16.275h10.124v8.137h-10.124zm15.185 0h10.124v8.137h-10.124zm35.427 0h10.124v8.137h-10.124zm15.185 0h10.123v8.137h-10.122zm-70.869 8.137h10.124v8.136h-10.124zm25.314 0h10.123v8.136h-10.123zm25.313 0h10.122v8.136h-10.121zm25.299 0h10.123v8.136h-10.123zm10.129-16.273h5.06v8.137h-5.061zm-91.112 24.409h10.124v8.136h-10.124zm35.428 0h10.123v8.136h-10.123zm50.626 0h10.124v8.136h-10.124zm-80.997 24.405h10.124v8.137h-10.124zm5.071 8.137h10.124v8.135h-10.124zm20.243-8.137h10.123v8.137h-10.123zm-5.057 8.137h10.124v8.135h-10.124zm-10.128 8.135h15.185v8.136h-15.185zM25.299 81.36h5.061v8.137h-5.06zm35.442-24.405h10.122v8.136h-10.121zm5.056 8.136h10.124v8.135h-10.124zm20.243-8.137h10.123v8.137h-10.123zm-5.057 8.137h10.123v8.135h-10.122zm-10.129 8.135h15.186v8.136h-15.186zM75.927 81.36h5.061v8.137h-5.061zm-25.315-8.135h5.063v8.136h-5.063zm-50.612 0h5.061v8.136h-5.061zm101.226 0h5.061v8.136h-5.06zm-75.927 40.678h5.061v8.136h-5.06zM20.243 122.038h15.185v8.136h-15.185zm-5.057 8.136h25.31v8.136h-25.31zm60.741-16.27h5.061v8.136h-5.061zM70.854 122.038h15.186v8.136h-15.186zm-5.056 8.136h25.309v8.136h-25.308zm5.056 40.678h25.31v8.136h-25.31zm-10.113-32.543h35.432v8.137h-35.432zm-50.628 0h35.432v8.137h-35.432zm5.071 40.678h15.185v8.136h-15.185zm-5.071-8.136h25.309v8.136h-25.308zm70.869-16.271h25.31v8.136h-25.31zm-5.056 24.407h15.184v8.136h-15.184zM20.243 187.122h5.061v8.137h-5.061zm60.741 0h5.061v8.137h-5.06zm-80.983-32.542h25.31v8.136h-25.31zm45.556 16.271h15.185v8.136h-15.185zm5.056 8.136h5.063v8.136h-5.063zm-15.183-24.407h35.432v8.136h-35.432zm20.242-122.032h10.124v8.136h-10.124zM45.556 40.683h15.185v8.136h-15.185zM40.486 48.818h10.123v8.137h-10.123zm15.184 0h10.124v8.137h-10.124zm-55.67-8.136h10.124v8.136h-10.124zM5.057 48.818h10.124v8.137h-10.124zm91.112-8.136h10.123v8.136h-10.123zm-5.058 8.136h10.124v8.137h-10.124zm-91.111 73.22h5.061v8.136h-5.061zm101.226 0h5.061v8.136h-5.06zm-55.67 65.084h15.185v8.137h-15.185zM40.486 195.259h10.123v8.136h-10.123zm15.184 0h10.124v8.136h-10.124zm-20.242 8.136h10.123v8.136h-10.123zm25.313 0h10.122v8.136h-10.121zM30.371 211.528h10.124v8.137h-10.124zm35.427 0h10.124v8.137h-10.124zm-40.499 8.137h10.123v8.136h-10.122zm45.555 0h10.126v8.136h-10.126zM15.185 227.8h15.185v8.136h-15.185zm60.741 0h15.184v8.136h-15.184zM86.041 219.666h10.123v8.136h-10.123zm5.071-8.137h10.124v8.137h-10.124zM96.17 203.394h10.123v8.136h-10.123zm-86.056 16.271h10.124v8.136h-10.124zm-5.056-8.137h10.124v8.137h-10.124zM0 203.394h10.124v8.136h-10.124zm20.243 32.542h5.061v8.136h-5.061zm60.741 0h5.061v8.136h-5.06zm-30.372-24.408h5.063v8.137h-5.063zm-15.183 24.408h5.061v8.136h-5.061zm30.37 0h5.061v8.136h-5.061zm-15.186 0h5.063v8.136h-5.063zm-50.612 0h5.061v8.136h-5.061zm101.226 0h5.061v8.136h-5.06zm-50.614-113.898h5.063v8.136h-5.063zm-25.312-81.355h5.061v8.136h-5.06zm50.628 0h5.061v8.136h-5.061zm-30.371 56.948h15.185v8.137h-15.185zM35.428 105.767h15.183v8.137h-15.183zM40.486 113.903h5.06v8.136h-5.06zm-10.115-16.272h10.124v8.137h-10.124zM35.428 89.497h15.183v8.136h-15.183zM40.486 81.36h5.06v8.137h-5.06zm15.184 8.137h15.184v8.136h-15.183zM60.741 81.36h5.061v8.137h-5.061zm5.056 16.271h10.124v8.137h-10.124zM55.67 105.767h15.184v8.137h-15.183zM60.741 113.903h5.061v8.136h-5.061zm20.242-16.272h10.123v8.137h-10.122zM86.041 89.497h15.185v8.136h-15.185zM96.17 97.631h10.123v8.137h-10.123zM86.041 105.767h15.185v8.137h-15.185zM91.111 113.903h5.063v8.136h-5.063zm0-32.543h5.063v8.137h-5.063zm-91.111 16.271h10.124v8.137h-10.124zM5.057 89.497h15.185v8.136h-15.185zM15.185 97.631h10.124v8.137h-10.124zM5.057 105.767h15.185v8.137h-15.185zM10.114 113.903h5.061v8.136h-5.061zm0-32.543h5.061v8.137h-5.061zm-5.056 65.085h20.247v8.136h-20.247zm25.313 0h20.247v8.136h-20.247zm25.299 0h20.247v8.136h-20.248zm25.313 0h20.247v8.136h-20.247zm-40.498 16.27h25.309v8.137h-25.309zm-35.428 0h25.309v8.137h-25.309zm70.869 0h25.309v8.137h-25.309zm25.299 32.543h5.061v8.136h-5.06zm-101.226 0h5.061v8.136h-5.061zm5.057 276.61h5.061v-8.136h-5.061zm15.185 0h15.185v-8.136h-15.185zM25.299 479.997h5.061v-8.136h-5.06zm25.312 0h5.063v-8.136h-5.063zm20.243-8.128h15.186v-8.136h-15.186zM75.927 479.997h5.061v-8.136h-5.061zm-60.741-16.268h10.124v-8.136h-10.124zm15.185 0h10.124v-8.136h-10.124zm35.427 0h10.124v-8.136h-10.124zm15.185 0h10.123v-8.136h-10.122zm-45.555-8.139h10.123v-8.136h-10.123zm25.313 0h10.122v-8.136h-10.121zm25.299 0h10.123v-8.136h-10.123zm10.129 16.279h5.06v-8.136h-5.061zm-91.112-24.407h10.124v-8.136h-10.124zM40.486 447.462h10.123v-8.136h-10.123zm50.626 0h10.124v-8.136h-10.124zm-80.997-24.406h10.124v-8.137h-10.124zm5.071-8.14h10.124v-8.135h-10.124zm20.243 8.14h10.123v-8.137h-10.123zm-5.057-8.14h10.124v-8.135h-10.124zm-10.128-8.139h15.185v-8.136h-15.185zM25.299 398.648h5.061v-8.136h-5.06zm35.442 24.408h10.122v-8.137h-10.121zm5.056-8.14h10.124v-8.135h-10.124zm20.243 8.14h10.123v-8.137h-10.123zm-5.057-8.14h10.123v-8.135h-10.122zm-10.129-8.139h15.186v-8.136h-15.186zM75.927 398.648h5.061v-8.136h-5.061zm-25.315 8.128h5.063v-8.136h-5.063zm-50.612 0h5.061v-8.136h-5.061zm101.226 0h5.061v-8.136h-5.06zm-75.927-40.673h5.061v-8.137h-5.06zM20.243 357.975h15.185v-8.137h-15.185zm-5.057-8.139h25.31v-8.137h-25.31zm60.741 16.268h5.061v-8.137h-5.061zM70.854 357.975h15.186v-8.137h-15.186zm-5.056-8.139h25.309v-8.137h-25.308zm5.056-40.674h25.31v-8.137h-25.31zm-10.113 32.534h35.432v-8.136h-35.432zm-50.628 0h35.432v-8.136h-35.432zm5.071-40.673h15.185v-8.139h-15.185zm-5.071 8.139h25.309v-8.137h-25.308zm70.869 16.268h25.31v-8.137h-25.31zm-5.056-24.407h15.184v-8.137h-15.184zm-75.927 24.407h25.31v-8.137h-25.31zm45.556-16.268h15.185v-8.137h-15.185zm5.056-8.139h5.063v-8.137h-5.063zm-15.183 24.407h35.432v-8.137h-35.432zm20.242 122.033h10.124v-8.136h-10.124zm-10.114-8.14h15.185v-8.135h-15.185zm-5.071-8.137h10.123v-8.137h-10.123zm15.184 0h10.124v-8.137h-10.124zm-55.67 8.138h10.124v-8.135h-10.124zm5.057-8.137h10.124v-8.137h-10.124zm91.112 8.137h10.123v-8.135h-10.123zm-5.058-8.137h10.124v-8.137h-10.124zm-91.111-73.209h5.061v-8.137h-5.061zm101.226 0h5.061v-8.137h-5.06zm-60.741-73.221h10.123v-8.137h-10.123zm15.184 0h10.124v-8.137h-10.124zm-20.242-8.139h10.123v-8.137h-10.123zm25.313 0h10.122v-8.137h-10.121zm-30.371-8.139h10.124v-8.137h-10.124zm35.427 0h10.124v-8.137h-10.124zM25.299 260.348h10.123v-8.137h-10.122zm45.555 0h10.126v-8.137h-10.126zm-55.669-8.139h15.185v-8.137h-15.185zm60.741 0h15.184v-8.137h-15.184zm10.114 8.139h10.123v-8.137h-10.123zM91.111 268.476h10.124v-8.137h-10.124zm5.058 8.139h10.123v-8.137h-10.123zm-86.056-16.268h10.124v-8.137h-10.124zM5.057 268.476h10.124v-8.137h-10.124zm-5.057 8.139h10.124v-8.137h-10.124zm20.243-32.543h5.061v-8.136h-5.061zm30.369 24.404h5.063v-8.137h-5.063zm0 89.499h5.063v-8.137h-5.063zm-25.312 81.347h5.061v-8.135h-5.06zm50.628 0h5.061v-8.135h-5.061zm-30.371-56.941h15.185v-8.136h-15.185zm-10.128-8.14h15.183v-8.135h-15.183zm5.057-8.137h5.06v-8.137h-5.06zm-10.115 16.278h10.124v-8.136h-10.124zM35.428 390.509h15.183v-8.136h-15.183zm5.057 8.139h5.06v-8.136h-5.06zm15.184-8.139h15.184v-8.136h-15.183zm5.071 8.139h5.061v-8.136h-5.061zM65.798 382.381h10.124v-8.136h-10.124zm-10.128-8.14h15.184v-8.135h-15.183zm5.071-8.137h5.061v-8.137h-5.061zm20.242 16.278h10.123v-8.136h-10.122zM86.041 390.509h15.185v-8.136h-15.185zM96.17 382.381h10.123v-8.136h-10.123zm-10.129-8.14h15.185v-8.135h-15.185zm5.071-8.137h5.063v-8.137h-5.063zm0 32.545h5.063v-8.136h-5.063zm-91.111-16.268h10.124v-8.136h-10.124zM5.057 390.509h15.185v-8.136h-15.185zM15.185 382.381h10.124v-8.136h-10.124zm-10.128-8.14h15.185v-8.135h-15.185zm5.056-8.137h5.061v-8.137h-5.061zm0 32.545h5.061v-8.136h-5.061zm-5.056-65.08h20.247v-8.137h-20.247zm25.313 0h20.247v-8.137h-20.247zm25.299 0h20.247v-8.137h-20.248zm25.313 0h20.247v-8.137h-20.247zm-40.498-16.279h25.309v-8.137h-25.309zm-35.428 0h25.309v-8.137h-25.309zm70.869 0h25.309v-8.137h-25.309zm25.299-32.535h5.061v-8.137h-5.06zm-101.226 0h5.061v-8.137h-5.061zm45.556-40.683h5.061v8.137h-5.061zm10.114 0h5.061v8.137h-5.061zm0-16.271h5.061v8.136h-5.061zm-10.114 0h5.061v8.136h-5.061zm-35.442 219.662h10.124v8.137h-10.124zm70.869-154.58h5.061v-8.137h-5.06zm-60.741 0h5.061v-8.137h-5.061zm25.311-8.132h15.184v8.135h-15.184z"/></g></g></svg>