<svg xmlns="http://www.w3.org/2000/svg" height="480" width="640" viewBox="0 0 640 480"><path fill="#fff" d="M150.225 0h339.815v480.256h-339.815z"/><path fill="#bf0a30" d="M-19.682 0h169.907v480.256h-169.907zm509.721 0h169.907v480.256h-169.906zm-289.001 232.071l-13.195 4.51 61.398 53.884c4.643 13.849-1.613 17.931-5.6 25.195l66.654-8.461-1.735 67.078 13.805-.397-3.011-66.521 66.72 7.909c-4.129-8.721-7.804-13.351-3.984-27.294l61.358-51.052-10.737-3.887c-8.78-6.774 3.793-32.627 5.69-48.943 0 0-35.827 12.321-38.175 5.874l-9.124-17.527-32.593 35.803c-3.561.854-5.077-.563-5.913-3.572l15.058-74.821-23.844 13.411c-1.996.854-3.992.117-5.307-2.209l-22.934-46.018-23.647 47.791c-1.782 1.713-3.567 1.911-5.048.747l-22.703-12.736 13.629 74.236c-1.084 2.945-3.681 3.775-6.735 2.18l-31.157-35.397c-4.076 6.53-6.838 17.199-12.225 19.59-5.388 2.239-23.431-4.524-35.525-7.164 4.131 14.91 17.049 39.679 8.873 47.798z"/></svg>