<svg xmlns="http://www.w3.org/2000/svg" height="480" width="640" viewBox="0 0 640 480"><defs><clipPath id="a"><path fill-opacity=".67" d="M-123.43 0h682.67v512h-682.67z"/></clipPath></defs><g fill-rule="evenodd" clip-path="url(#a)"><path fill="#fff" d="M-.304 219.067h795.738v193.612h-795.738z"/><path fill="#081873" d="M.326 0h795.193v241.242h-795.193zm.226 362.718h800.993v118.562h-800.993z"/><path fill="#de3929" d="M.551 284.397h795.193v37.271h-795.193z"/><path fill="#ffce08" d="M238.785 375.218l6.251 19.24h20.231l-16.367 11.891 6.251 19.242-16.365-11.891-16.365 11.891 6.251-19.242-16.367-11.891h20.231m181.082-158.99l6.251 19.24h20.231l-16.367 11.891 6.251 19.242-16.365-11.891-16.365 11.891 6.251-19.242-16.367-11.891h20.231m-208.671 60.613l6.251 19.24h20.232l-16.367 11.891 6.253 19.242-16.365-11.891-16.367 11.891 6.251-19.242-16.365-11.891h20.229m221.172-24.871l6.251 19.24h20.231l-16.367 11.891 6.251 19.242-16.365-11.891-16.365 11.891 6.251-19.242-16.367-11.891h20.231m-38.014-152.043l6.251 19.24h20.231l-16.367 11.891 6.251 19.242-16.365-11.891-16.365 11.891 6.251-19.242-16.367-11.891h20.231m-60.564-42.505l6.251 19.24h20.231l-16.367 11.891 6.251 19.242-16.365-11.891-16.365 11.891 6.251-19.242-16.367-11.891h20.231m-60.574 2.718l6.251 19.24h20.231l-16.367 11.891 6.251 19.242-16.365-11.891-16.365 11.891 6.251-19.242-16.367-11.891h20.231m-32.727 40.647l6.251 19.24h20.231l-16.367 11.891 6.251 19.242-16.365-11.891-16.365 11.891 6.251-19.242-16.367-11.891h20.231m112.054 140.475l6.251 19.24h20.231l-16.367 11.891 6.251 19.242-16.365-11.891-16.365 11.891 6.251-19.242-16.367-11.891h20.231m77.24-39.206l6.251 19.24h20.231l-16.367 11.891 6.251 19.242-16.365-11.891-16.365 11.891 6.251-19.242-16.367-11.891h20.231"/></g></svg>