<svg xmlns="http://www.w3.org/2000/svg" height="480" width="640" viewBox="0 0 640 480"><g fill-rule="evenodd"><path fill="#ffe800" d="M0 0h640v480h-640z"/><path fill="#00148e" d="M0 240h640v240h-640z"/><path fill="#da0010" d="M0 360h640v120h-640z"/></g><g fill-rule="evenodd"><path d="M269.55 290.834l-72.424 76.485-1.277-1.644 72.422-76.485 1.277 1.644zm50.452 12.5l-94.777 99.908-1.662-1.572 94.777-99.91 1.662 1.574z"/><path d="M478.35 60.236v88.583l17.717 88.582 17.717-88.583v-88.583h-35.434z" transform="matrix(-.07 -.07 -.1 .1 265.03 429.55)" stroke="#000" stroke-width="4.104" fill="#808080"/><path d="M478.35 60.236v88.583l17.717 88.582 17.717-88.583v-88.583h-35.434z" transform="matrix(-.07 -.07 -.1 .1 240.59 390.52)" stroke="#000" stroke-width="4.104" fill="#808080"/></g><path d="M301.18 272.84s-17.716 336.61 53.15 336.61l106.3-35.433-.86-185.03-158.59-116.15z" fill-rule="evenodd" transform="matrix(.45 0 0 .64 72.37 -59.76)" stroke="#000" stroke-width="1pt" fill="#ffdf00"/><path d="M344.46 304.2c0 17.717-7.846 269.82 27.587 269.82l88.583-17.717-.86-167.31-115.31-84.79z" fill-rule="evenodd" transform="matrix(.45 0 0 .64 72.37 -59.76)" stroke="#000" stroke-width="1pt" fill="#0000c4"/><path d="M367.52 321.16c0 17.717 4.525 217.42 39.958 217.42h53.15l-.86-149.59-92.248-67.833z" fill-rule="evenodd" transform="matrix(.45 0 0 .64 72.37 -59.76)" stroke="#000" stroke-width="1pt" fill="#e10000"/><path d="M206.202 116.02l72.422 76.485 1.277-1.642-72.422-76.485-1.276 1.642z" fill-rule="evenodd"/><path d="M301.18 272.84s-35.433 336.61 70.866 336.61c88.583 0 88.583-53.15 106.3-53.15l-17.72-124.02-159.45-159.44z" fill-rule="evenodd" stroke="#000" stroke-width="1pt" fill="#ffdf00" transform="matrix(.58 0 0 .62 9.63 -10.18)"/><g stroke="#000"><path d="M235.214 193.616c.453-.034 16.028-33.755 54.939-55.106" fill="none"/><path d="M228.764 161.813c5.44 2.539 8.875 5.445 12.007 8.836-6.225-1.3-9.421-1.812-14.861-4.35s-9.578-6.419-12.868-9.56c4.05 1.254 10.282 2.536 15.722 5.074z" fill-rule="evenodd" fill="#005b00"/><path d="M242.442 182.48c.407.691.052 1.632-.793 2.101s-1.859.289-2.266-.402-.052-1.632.793-2.101 1.859-.289 2.265.402z" fill-rule="evenodd" fill="#f00"/><path d="M259.489 140.266c-2.357 5.984-4.945 9.918-7.929 13.593 1.343-6.656 1.902-10.056 4.26-16.04s5.794-10.768 8.574-14.578c-1.218 4.379-2.547 11.041-4.905 17.025zM251.553 139.911c-.544 5.984-1.728 10.603-3.285 15.292-.413-5.812-.725-8.697-.181-14.681s2.215-11.793 3.579-16.447c.005 4.045.431 9.852-.113 15.835zM256.718 146.727c-3.083 3.627-5.666 5.201-8.382 6.23 2.744-5.032 4.076-7.7 7.159-11.327s6.379-5.315 9.028-6.627c-1.984 3.05-4.722 8.097-7.804 11.724zM230.479 151.928c3.627 4.352 5.43 8.525 6.796 13.14-4.75-3.225-7.247-4.71-10.874-9.062s-5.657-9.793-7.25-14.181c2.938 2.544 7.701 5.752 11.327 10.104zM223.19 185.343c4.533 3.627 6.924 7.348 8.835 11.554-5.769-2.387-8.787-3.442-13.321-7.069s-7.276-8.525-9.436-12.482c3.606 2.001 9.388 4.37 13.921 7.997zM244.402 183.292c-3.627 5.803-7.531 9.692-12.007 13.366 2.162-6.363 3.08-9.603 6.706-15.405s8.799-10.553 12.98-14.34c-1.912 4.21-4.053 10.577-7.68 16.379zM248.21 183.152c-5.803 3.989-10.834 6.064-16.198 7.703 4.956-5.113 7.338-7.791 13.14-11.78s12.261-6.359 17.455-8.224c-3.653 3.187-8.594 8.312-14.397 12.302zM287.235 141.525c-2.539 2.901-4.806 4.618-7.25 6.117 2.087-3.463 3.08-5.254 5.619-8.156s5.462-4.935 7.816-6.547c-1.566 2.217-3.646 5.685-6.185 8.586zM281.853 132.954c-1.451 3.083-2.994 5.392-4.758 7.703.887-3.081 1.268-4.62 2.719-7.703s3.492-5.969 5.142-8.28c-.774 2.118-1.653 5.198-3.104 8.28zM290.226 138.496c-2.539 1.451-4.44 1.898-6.343 2.039 2.538-2.238 3.805-3.443 6.343-4.893s4.916-1.853 6.819-2.152c-1.744 1.309-4.28 3.556-6.819 5.007zM255.268 154.688c-4.533 2.72-8.249 4.301-12.12 5.664 4.137-3.281 6.16-4.983 10.693-7.703s9.257-4.584 13.049-6.06c-2.959 2.092-7.088 5.379-11.622 8.099zM268.516 158.746c-5.984 3.627-11.06 5.338-16.425 6.57 5.25-4.863 7.791-7.429 13.775-11.055s12.476-5.52 17.693-7.001c-3.822 2.983-9.059 7.859-15.042 11.486z" fill-rule="evenodd" fill="#005b00"/><path d="M227.85 217.369c.397-.227-3.251-31.988 21.014-65.018" fill="none"/><path d="M265.172 150.42c.407.691.052 1.632-.793 2.101s-1.859.289-2.266-.402-.052-1.632.793-2.101 1.859-.289 2.265.402zM275.952 144.06c.407.691.052 1.632-.793 2.101s-1.859.289-2.266-.402-.052-1.632.793-2.101 1.859-.289 2.265.402zM245.804 165.272c.285.529-.245 1.338-1.184 1.807s-1.93.421-2.215-.108.245-1.337 1.184-1.807 1.93-.421 2.214.108zM248.924 163.912c.285.529-.245 1.338-1.184 1.807s-1.93.421-2.215-.108.245-1.337 1.184-1.807 1.93-.421 2.214.108zM247.134 166.822c.285.529-.245 1.338-1.184 1.807s-1.93.421-2.215-.108.245-1.337 1.184-1.807 1.93-.421 2.214.108zM252.646 167.252c.407.813-.024 1.853-.963 2.322s-2.029.19-2.435-.623.024-1.853.963-2.322 2.028-.19 2.435.623zM254.936 164.872c.407.813-.024 1.853-.963 2.322s-2.029.19-2.435-.623.024-1.853.963-2.322 2.028-.19 2.435.623zM255.516 166.022c.407.813-.024 1.853-.963 2.322s-2.029.19-2.435-.623.024-1.853.963-2.322 2.028-.19 2.435.623z" fill-rule="evenodd" fill="#f00"/></g><path d="M336.61 308.27c0 17.717-35.433 212.6 53.15 265.75 35.433 17.716 88.582-17.717 88.582 0l-17.71-141.74-124.02-124.01z" fill-rule="evenodd" transform="matrix(.58 0 0 .62 9.63 -10.18)" stroke="#000" stroke-width="1pt" fill="#0000c4"/><path d="M372.05 343.7c0 17.717-17.716 159.45 35.433 194.88 35.433 35.433 124.02 25.822 124.02 25.822l-70.87-132.12-88.58-88.58z" fill-rule="evenodd" stroke="#000" stroke-width="1pt" fill="#e10000" transform="matrix(.58 0 0 .62 9.63 -10.18)"/><path d="M183.85 158.08l94.775 99.91 1.662-1.573-94.776-99.91-1.66 1.574z" fill-rule="evenodd"/><path d="M460.63 184.25l17.716 35.433v17.717c-.865-1.305 0 17.716-17.716 17.716-17.717 0-17.717-35.433-17.717-35.433s-17.716 35.433-17.716 70.866l17.716 53.15s-2.61-36.704 17.717-35.434c20.328 1.27 17.716 17.716 17.716 17.716v35.433h17.717v-141.73l17.717-35.433-27.136-53.15-26.014 53.15z" fill-rule="evenodd" transform="matrix(.14 -.14 .1 .1 86.35 192.15)" stroke="#000" stroke-width="1pt" fill="#cececc"/><path d="M557.82 95.67l-26.323 70.865 17.717 53.15-35.433-17.716 35.434 53.148v35.433h17.716v-35.43l35.433-53.15-35.433 17.717 17.717-53.15-26.828-70.867z" fill-rule="evenodd" transform="matrix(.1 -.16 .14 .1 113.99 183.83)" stroke="#000" stroke-width="1pt" fill="#cececc"/><path d="M422.53 136.96c0 2.068-1.958 3.746-4.37 3.746-2.413 0-4.372-1.678-4.372-3.746s1.96-3.747 4.37-3.747c2.414 0 4.372 1.68 4.372 3.747zm-6.244 7.91c0 35.8 20.917 187.81 22.582 191.56.14 4.44-4.718 6.382-7.077.832-6.55-17.342-20.743-159.91-21.332-193.22-.244-13.734 3.76-14.8 8.326-14.57 3.76.21 8.325 3.725 8.325 7.91 0 4.995-5.83 8.74-10.824 7.492z" fill-rule="evenodd" transform="matrix(.4 0 0 .3 43.75 69.8)" stroke="#000" stroke-width="1pt" fill="#e10000"/><path d="M422.53 136.96c0 2.068-1.958 3.746-4.37 3.746-2.413 0-4.372-1.678-4.372-3.746s1.96-3.747 4.37-3.747c2.414 0 4.372 1.68 4.372 3.747zm-6.244 7.91c31.488 61.414 48.722 166.77 50.387 170.52.14 4.44-4.718 6.382-7.077.832-2.48-3.315-12.667-100.18-49.138-172.18-.244-13.734 3.76-14.8 8.326-14.57 3.76.21 8.325 3.725 8.325 7.91 0 4.995-5.83 8.74-10.824 7.492z" fill-rule="evenodd" transform="matrix(.38 .1 -.15 .3 76.05 38.16)" stroke="#000" stroke-width="1pt" fill="#0000c4"/><path d="M186.655 151.54c0 1.034-.979 1.873-2.185 1.873-1.207 0-2.186-.839-2.186-1.873s.98-1.873 2.185-1.873c1.207 0 2.186.84 2.186 1.873zm-3.122 3.955c0 17.9 10.458 93.905 11.291 95.78.07 2.22-2.359 3.191-3.539.416-3.275-8.671-10.371-79.955-10.666-96.61-.122-6.867 1.88-7.4 4.163-7.285 1.88.105 4.163 1.863 4.163 3.955 0 2.498-2.915 4.37-5.412 3.746z" fill-rule="evenodd" stroke="#000" stroke-width=".5pt" fill="#e10000"/><path d="M422.53 136.96c0 2.068-1.958 3.746-4.37 3.746-2.413 0-4.372-1.678-4.372-3.746s1.96-3.747 4.37-3.747c2.414 0 4.372 1.68 4.372 3.747zm-6.244 7.91c31.488 61.414 48.722 166.77 50.387 170.52.14 4.44-4.718 6.382-7.077.832-2.48-3.315-12.667-100.18-49.138-172.18-.244-13.734 3.76-14.8 8.326-14.57 3.76.21 8.325 3.725 8.325 7.91 0 4.995-5.83 8.74-10.824 7.492z" fill-rule="evenodd" transform="matrix(.48 .15 -.2 .48 16.67 31.58)" stroke="#000" stroke-width="1pt" fill="#0000c4"/><g fill-rule="evenodd"><path d="M370.454 290.834l72.423 76.485 1.277-1.644-72.423-76.485-1.276 1.644zm-50.454 12.5l94.778 99.908 1.662-1.572-94.777-99.91-1.662 1.574z"/><path d="M478.35 60.236v88.583l17.717 88.582 17.717-88.583v-88.583h-35.434z" transform="matrix(.07 -.07 .1 .1 374.97 429.55)" stroke="#000" stroke-width="4.104" fill="#808080"/><path d="M478.35 60.236v88.583l17.717 88.582 17.717-88.583v-88.583h-35.434z" transform="matrix(.07 -.07 .1 .1 399.41 390.52)" stroke="#000" stroke-width="4.104" fill="#808080"/></g><g fill-rule="evenodd"><path d="M301.18 272.84s-17.716 336.61 53.15 336.61l106.3-35.433-.86-185.03-158.59-116.15z" transform="matrix(-.45 0 0 .64 567.65 -59.76)" stroke="#000" fill="#ffdf00"/><path d="M344.46 304.2c0 17.717-7.846 269.82 27.587 269.82l88.583-17.717-.86-167.31-115.31-84.79z" transform="matrix(-.45 0 0 .64 567.65 -59.76)" stroke="#000" fill="#0000c4"/><path d="M367.52 321.16c0 17.717 4.525 217.42 39.958 217.42h53.15l-.86-149.59-92.248-67.833z" transform="matrix(-.45 0 0 .64 567.65 -59.76)" stroke="#000" fill="#e10000"/><path d="M433.814 116.02l-72.423 76.485-1.276-1.642 72.423-76.485 1.277 1.642z"/><g stroke="#000" fill="#005b00"><path d="M376.663 175.083s20.298 26.007 30.086 46.147c9.787 20.14 21.205 50.906 21.205 50.906s-6.524-30.289-18.848-54.551c-16.13-30.45-32.442-40.757-32.442-42.502zM375.939 154.39s22.654 32.169 32.986 56.07c10.33 23.9 21.816 59.809 21.816 59.809s-5.573-34.548-18.667-63.432c-17.239-36.363-36.271-50.522-36.134-52.447zM395.467 122.583s16.039 47.665 20.911 77.161c4.871 29.496 7.816 70.14 7.816 70.14s3.104-34.117-3.443-70.318c-9.06-46.262-25.94-75.488-25.282-76.982zM381.104 120.307s22.201 42.319 30.834 71.112c8.631 28.794 16.719 70.412 16.719 70.412s-1.155-37.81-12.324-72.856c-14.973-44.428-35.705-66.743-35.228-68.668zM407.738 133.844s11.055 45.581 13.82 72.789c2.764 27.208 3.534 63.955 3.534 63.955s3.851-29.745 0-63.25c-5.481-42.954-17.943-72.293-17.353-73.493zM378.551 135.089s21.476 36.247 30.154 61.62c8.676 25.373 17.195 62.528 17.195 62.528s-2.061-34.434-13.23-65.244c-14.906-38.968-34.504-57.092-34.118-58.904zM374.589 160.435s22.654 28.726 32.986 50.768c10.33 22.043 21.816 55.596 21.816 55.596s-5.573-32.871-18.667-59.445c-17.239-33.373-36.271-45.039-36.134-46.92zM377.478 147.164s20.842 33.801 29.905 58.29c9.062 24.489 18.69 60.897 18.69 60.897s-3.851-34.502-15.405-64.157c-15.291-37.405-33.416-53.15-33.189-55.03zM400.124 123.303s13.411 46.668 16.72 75.191c3.307 28.522 4.145 67.557 4.145 67.557s4.803-32.373.181-67.419c-6.591-44.835-21.772-73.947-21.046-75.328zM381.641 111.63s19.573 43.95 26.642 73.333c7.068 29.383 13.049 71.499 13.049 71.499s.544-37.765-8.699-73.581c-12.504-45.47-31.536-69.371-30.991-71.251zM412.765 137.203s8.427 43.768 9.629 69.708c1.201 25.939-.136 60.828-.136 60.828s5.55-28.023 3.625-59.988c-3.012-41.006-13.774-69.439-13.117-70.548zM379.191 129.812s19.573 37.878 26.642 63.84c7.068 25.962 13.049 63.615 13.049 63.615s.544-34.389-8.699-65.969c-12.504-40.01-31.536-59.72-30.991-61.487z"/></g><path d="M301.18 272.84s-35.433 336.61 70.866 336.61c88.583 0 88.583-53.15 106.3-53.15l-17.72-124.02-159.45-159.44z" transform="matrix(-.58 0 0 .62 630.39 -10.18)" stroke="#000" fill="#ffdf00"/><path d="M336.61 308.27c0 17.717-35.433 212.6 53.15 265.75 35.433 17.716 88.582-17.717 88.582 0l-17.71-141.74-124.02-124.01z" transform="matrix(-.58 0 0 .62 630.39 -10.18)" stroke="#000" fill="#0000c4"/><path d="M372.05 343.7c0 17.717-17.716 159.45 35.433 194.88 35.433 35.433 124.02 25.822 124.02 25.822l-70.87-132.12-88.58-88.58z" transform="matrix(-.58 0 0 .62 630.39 -10.18)" stroke="#000" fill="#e10000"/><path d="M456.172 158.08l-94.777 99.91-1.66-1.573 94.775-99.91 1.662 1.574z"/><path d="M460.63 184.25l17.716 35.433v17.717c-.865-1.305 0 17.716-17.716 17.716-17.717 0-17.717-35.433-17.717-35.433s-17.716 35.433-17.716 70.866l17.716 53.15s-2.61-36.704 17.717-35.434c20.328 1.27 17.716 17.716 17.716 17.716v35.433h17.717v-141.73l17.717-35.433-27.136-53.15-26.014 53.15z" transform="matrix(-.14 -.14 -.1 .1 553.66 192.15)" stroke="#000" fill="#cececc"/><path d="M557.82 95.67l-26.323 70.865 17.717 53.15-35.433-17.716 35.434 53.148v35.433h17.716v-35.43l35.433-53.15-35.433 17.717 17.717-53.15-26.828-70.867z" transform="matrix(-.1 -.16 -.14 .1 526.03 183.83)" stroke="#000" fill="#cececc"/><path d="M422.53 136.96c0 2.068-1.958 3.746-4.37 3.746-2.413 0-4.372-1.678-4.372-3.746s1.96-3.747 4.37-3.747c2.414 0 4.372 1.68 4.372 3.747zm-6.244 7.91c0 35.8 20.917 187.81 22.582 191.56.14 4.44-4.718 6.382-7.077.832-6.55-17.342-20.743-159.91-21.332-193.22-.244-13.734 3.76-14.8 8.326-14.57 3.76.21 8.325 3.725 8.325 7.91 0 4.995-5.83 8.74-10.824 7.492z" transform="matrix(-.4 0 0 .3 596.29 69.8)" stroke="#000" fill="#e10000"/><path d="M422.53 136.96c0 2.068-1.958 3.746-4.37 3.746-2.413 0-4.372-1.678-4.372-3.746s1.96-3.747 4.37-3.747c2.414 0 4.372 1.68 4.372 3.747zm-6.244 7.91c31.488 61.414 48.722 166.77 50.387 170.52.14 4.44-4.718 6.382-7.077.832-2.48-3.315-12.667-100.18-49.138-172.18-.244-13.734 3.76-14.8 8.326-14.57 3.76.21 8.325 3.725 8.325 7.91 0 4.995-5.83 8.74-10.824 7.492z" transform="matrix(-.38 .1 .15 .3 563.96 38.16)" stroke="#000" fill="#0000c4"/><path d="M453.345 151.54c0 1.034.979 1.873 2.185 1.873 1.207 0 2.186-.839 2.186-1.873s-.98-1.873-2.185-1.873c-1.207 0-2.186.84-2.186 1.873zm3.122 3.955c0 17.9-10.458 93.905-11.291 95.78-.07 2.22 2.359 3.191 3.539.416 3.275-8.671 10.371-79.955 10.666-96.61.122-6.867-1.88-7.4-4.163-7.285-1.88.105-4.163 1.863-4.163 3.955 0 2.498 2.915 4.37 5.412 3.746z" stroke="#000" fill="#e10000" stroke-width=".5pt"/><path d="M422.53 136.96c0 2.068-1.958 3.746-4.37 3.746-2.413 0-4.372-1.678-4.372-3.746s1.96-3.747 4.37-3.747c2.414 0 4.372 1.68 4.372 3.747zm-6.244 7.91c31.488 61.414 48.722 166.77 50.387 170.52.14 4.44-4.718 6.382-7.077.832-2.48-3.315-12.667-100.18-49.138-172.18-.244-13.734 3.76-14.8 8.326-14.57 3.76.21 8.325 3.725 8.325 7.91 0 4.995-5.83 8.74-10.824 7.492z" transform="matrix(-.48 .15 .2 .48 623.32 31.58)" stroke="#000" fill="#0000c4"/></g><g fill-rule="evenodd" stroke="#000" stroke-width="1pt"><path d="M287.073 422.599c10.276 6.604 21.512 5.126 30.827 0v-87.873h-20.551c10.276 32.953 10.276 65.906-10.276 87.873z" fill="#e10000"/><path d="M303.303 336.685c0 62.007-14.863 75.789-14.863 88.186 6.201 0 10.313-5.774 14.863-13.779 6.201-12.402 6.799-75.376 6.201-74.41h-6.201zM290.902 336.685c-.283 36.239-15.678 69.748-12.774 77.168 3.316 6.632 12.774-15.158 25.175-2.756 6.201-12.402 6.799-75.376 6.201-74.41h-18.602z" fill="#0000c4"/><path d="M292.343 331.347c0 40.748-14.244 43.456-14.244 54.321 6.201 0 14.211-5.94 14.244-5.423 6.201-8.15 6.799-49.533 6.201-48.898h-6.201zM279.942 331.347c-.283 23.814-15.305 44.023-12.402 48.898 3.316 4.359 12.402-8.15 24.803 0 6.201-8.15 6.799-49.533 6.201-48.898h-18.602z" fill="#ffdf00"/><path d="M352.947 422.609c-10.276 6.604-21.512 5.116-30.827-.009v-87.866h20.551c-10.276 32.953-10.276 65.906 10.276 87.873z" fill="#e10000"/><path d="M336.707 336.695c0 62.007 14.863 75.789 14.863 88.186-6.201 0-10.313-5.774-14.863-13.779-6.201-12.402-6.799-75.376-6.201-74.41h6.201zM349.107 336.695c.283 36.239 15.678 69.748 12.774 77.168-3.316 6.632-12.774-15.158-25.175-2.756-6.201-12.402-6.799-75.376-6.201-74.41h18.602z" fill="#0000c4"/><path d="M347.687 331.357c0 40.748 14.244 43.456 14.244 54.321-6.201 0-14.211-5.94-14.244-5.423-6.201-8.15-6.799-49.533-6.201-48.898h6.201zM360.087 331.347c.283 23.814 15.305 44.023 12.402 48.898-3.316 4.359-12.402-8.15-24.803 0-6.201-8.15-6.799-49.533-6.201-48.898h18.602z" fill="#ffdf00"/></g><g stroke="#000" fill-rule="evenodd"><path d="M241.627 341.509l-10.761 7.795 10.761 7.795 5.38-3.898 2.69 3.898 2.69 7.795 2.69-7.795 2.69-3.898h144.228v-7.795h-144.228l-2.69-3.898c0-3.898.564-7.795 2.69-7.795l10.761-.001c0-3.898-5.381-11.693-16.141-11.693-10.761 0-16.141 7.795-16.141 11.693h10.761c2.126 0 2.69 3.898 2.69 7.795l-2.693 3.898-5.381-3.898z" fill="#908f8a"/><path fill="#b74d00" d="M273.278 360.431h94.251v4.784h-94.251zM273.278 355.648h94.251v4.784h-94.251zm0-4.784h94.251v4.784h-94.251zM273.278 346.081h94.251v4.784h-94.251zm0-4.784h94.251v4.784h-94.251zM273.278 336.514h94.251v4.783h-94.251zm0-4.784h94.251v4.784h-94.251z"/><path d="M277.697 331.444l34.45 33.485h4.921l-34.45-33.485h-4.921zM277.697 365.926l34.45-33.485h4.921l-34.45 33.485h-4.921zM278.616 331.444v33.485h4.96v-33.485h-4.96zM322.038 331.444l34.45 33.485h4.921l-34.45-33.485h-4.921zM322.038 365.926l34.45-33.485h4.921l-34.45 33.485h-4.921zM357.456 331.444v33.485h4.96v-33.485h-4.96zM322.966 331.444v33.485h4.96v-33.485h-4.96zM313.106 331.444v33.485h4.96v-33.485h-4.96z" fill="#908f8a"/></g><g stroke="#000" stroke-width="1pt" fill="#ffdf00" fill-rule="evenodd"><path d="M389.826 235.867c0 54.57-32.225 98.859-71.932 98.859-39.704 0-71.932-44.288-71.932-98.859 0-54.569 32.225-98.859 71.932-98.859 39.705 0 71.932 44.288 71.932 98.859zm-10.276 0c0 48.507-27.621 87.873-61.654 87.873s-61.654-39.367-61.654-87.873c0-48.506 27.621-87.873 61.654-87.873s61.654 39.368 61.654 87.873zM345.885 144.783c-8.605-5.005-18.064-7.773-27.99-7.773s-19.385 2.768-27.989 7.773l3.998 10.12c7.375-4.449 15.483-6.909 23.991-6.909s16.616 2.46 23.991 6.909l3.999-10.12zM346.005 324.347c-8.605 5.005-18.064 7.773-27.99 7.773s-19.385-2.768-27.989-7.773l3.998-10.12c7.375 4.449 15.483 6.909 23.991 6.909s16.616-2.46 23.991-6.909l3.999 10.12z"/></g><path d="M379.554 235.867c0 48.532-27.603 87.873-61.654 87.873-34.05 0-61.654-39.343-61.654-87.873 0-48.532 27.603-87.873 61.654-87.873 34.05 0 61.654 39.343 61.654 87.873z" fill-rule="evenodd" fill="#a7cfff"/><path d="M637.8 396.85c1.133 26.658-4.634 39.635-11.89 67.356-1.912 2.98-10.966-6.537-16.447-11.236s-7.812 4.24-14.537-3.046c-6.725-7.284-11.05 2.058-15.983-4.095s-51.3-7.057-51.366-7.586c4.59-2.276 28.27.152 24.474-11.193-4.3-11.72-31.093-.35-34.69-15.364-2.44-14.907-53.567-15.543-57.22-19.225 1.444 5.665 39.728 8.05 38.814 22.57-.833 5.916-37.693 7.645-41.247 12.652-3.045 6.295 28.927-1.707 30.114 6.032-.077 3.185-4.704.068-21.357 4.99-8.326 2.46 15.454 10.33 6.41 14.637-9.045 4.308-28.26 6.188-27.433 7.998 2.94 8.908 44.693 19.536 40.535 21.065-14.754 6.56-22.552 10.872-29.627 14.652-19.24-25.653-31.146-61.087-31.146-100.2 31.716-11.405 24.968-13.735 83.645-13.735s77.98 2.33 128.95 13.735z" fill-rule="evenodd" stroke="#000" stroke-width="1pt" fill="#afff7b" transform="matrix(.58 0 0 .62 9.63 -10.18)"/><path d="M637.8 396.85c-8.07 0-16.454 3.4-25.07 3.4-8.617 0-17.465-3.4-26.466-3.4s-19.287 4.532-28.512 4.532c-9.224 0-17.388-4.53-26.676-4.53-9.287 0-18.566 3.397-27.755 3.397s-18.288-3.4-27.218-3.4-17.69 3.4-26.2 3.4-16.77-3.4-24.7-3.4c0-19.56 2.976-38.197 8.358-55.15 27.075 2 11.042-15.716 27.075-15.716 8.655 0 17.434 1.86 25.238 9.788 2.447 0 14.48-11.373 27.912-9.788 13.432 1.586 8.492 27.272 26.37 28.637 9.063 6.797 14.393 11.134 26.78 13.872 17.716 1.606 68.35-2.5 68.704-.194a188.21 188.21 0 0 1 2.16 28.552z" fill-rule="evenodd" stroke="#000" stroke-width="1pt" fill="#fff" transform="matrix(.58 0 0 .62 9.63 -10.18)"/><path d="M549.85 473.94c0-5.664 13.512-9.462 13.512-18.524s-11.914-9.35-12.38-17.86c-.2-3.46 10.32-7.046 14.915-7.335s8.493 7.42 8.493 9.12-4.662-4.192-8.578-4.378-12.313.63-12.313 2.33c0 3.4 14.85 7.598 13.717 18.925-1.132 11.327-12.71 14.657-12.71 18.055l5.056 12.86s-9.713-7.53-9.713-13.192z" fill-rule="evenodd" transform="matrix(.2 0 0 .48 217.23 59.5)" stroke="#000" stroke-width="1pt"/><path d="M549.85 473.94c0-5.664 13.512-9.462 13.512-18.524s-11.95-9.348-12.38-17.86c-.946-3.962 11.814-6.544 16.41-6.833s9.985 7.92 9.985 9.62-5.41-5.195-9.325-5.38-14.553.63-14.553 2.33c0 3.398 14.85 7.597 13.717 18.924-1.132 11.327-12.71 14.657-12.71 18.055l5.056 12.86s-9.713-7.53-9.713-13.192z" fill-rule="evenodd" transform="matrix(-.2 0 0 .48 445.83 59.12)" stroke="#000" stroke-width="1pt"/><path d="M332.965 264.846c0 1.333-.65 2.413-1.454 2.413-.803 0-1.454-1.08-1.454-2.414s.65-2.413 1.455-2.413c.804 0 1.455 1.08 1.455 2.413zm16.951 8.964h.465v19.617h-.464zm4.182-1.487h.464v19.616h-.464zM352.597 281.23l.004-.493 3.978.684-.004.495z" fill-rule="evenodd"/><path d="M497.26 478.07s26.052 11.328 31.716 18.124c5.664 6.797 3.398 6.796 3.398 6.796l57.77 2.266c0-3.398 10.193-3.4 12.46-11.328 2.264-7.93 2.264-10.194 2.264-10.194l-18.123 5.664 1.132-10.194h-15.857l-2.266 10.194-33.982-1.133 2.266-27.186-6.796 1.132-1.133 26.053c-1.134 0-31.718-7.93-32.85-10.195z" fill-rule="evenodd" transform="matrix(.58 0 0 .62 6.99 -9.48)" stroke="#000" stroke-width="1pt" fill="#b74d00"/><path d="M440.53 316.28s37.645-11.214 92.11-10.413 92.11 12.815 91.31 12.815l-10.414-18.422s-38.446-10.412-81.697-11.213c-43.253-.8-80.898 8.01-80.097 8.81l-11.212 18.423z" fill-rule="evenodd" stroke="#fede00" stroke-width="1pt" fill="#fede00" transform="matrix(.58 0 0 .62 9.63 -10.18)"/><path fill-rule="evenodd" fill="#38a9f9" d="M306.072 169.855l13.562-.262.137 7.9-13.56.264zm-31.297 4.3l-4.783 7.784 16.165-1.992-1.297-7.783-10.085 1.99zm13.778-2.995l13.518-1.187.62 7.876-13.516 1.187zm48.837-.806l-13.538-.91-.475 7.888 13.537.91zm29.182 4.953l4.918 9.69-14.642-3.614 1.63-7.714 8.094 1.637zm-11.736-2.817l-13.453-1.83-.957 7.837 13.453 1.832z"/><path fill-rule="evenodd" stroke="#000" stroke-width="1pt" fill="#ffdf00" d="M532.64 323.49l-2.58-13.47-7.54 11.46 2.77-13.43-11.34 7.7 7.7-11.35-13.43 2.78 11.45-7.54-13.47-2.58 13.47-2.58-11.45-7.53 13.43 2.77-7.7-11.35 11.34 7.7-2.77-13.43 7.54 11.46 2.58-13.47 2.57 13.47 7.54-11.46-2.77 13.43 11.35-7.7-7.71 11.35 13.44-2.77-11.46 7.53 13.47 2.58-13.47 2.58 11.46 7.54-13.44-2.78 7.71 11.35-11.35-7.7 2.77 13.43-7.54-11.46z" transform="matrix(.58 0 0 .62 9.63 -10.18)"/><path d="M547.05 293.86c0 9.29-6.634 16.82-14.818 16.82s-14.818-7.53-14.818-16.82 6.634-16.82 14.818-16.82 14.818 7.53 14.818 16.82z" fill-rule="evenodd" transform="matrix(.57 0 0 .5 18.27 21.75)" stroke="#000" stroke-width="1pt" fill="#ffdf00"/><path d="M320.676 170.552c0 .545-1.257.988-2.807.988s-2.807-.443-2.807-.988 1.256-.988 2.806-.988 2.806.442 2.806.988zm6.079-.002c0 .547-.943.99-2.105.99s-2.105-.443-2.105-.99c0-.544.942-.987 2.105-.987s2.105.443 2.105.988z" fill-rule="evenodd"/><path d="M529.43 297.86l.8.8c-1.9-1.9-.995-1.125 1.603 3.204 2.393-.495 3.09-1.39 4.806-2.403" transform="matrix(.56 -.18 .17 .6 -26.71 90.63)" stroke="#000" stroke-width="1pt" fill="none"/><path d="M527.83 304.27l.8.8c-1.9-1.9-1.123-.994 3.205 1.603 4.027.544 8.092-1.196 10.412-4.005" transform="matrix(.58 0 0 .62 8.7 -10.18)" stroke="#000" stroke-width="1pt" fill="none"/><path d="M281.395 194.854s.93 7.945-5.11 17.877c-6.04 9.933-5.11 6.457-5.11 6.457s2.787 5.462 2.323 5.462l-4.646-4.966-5.11 5.462s4.646-8.442 4.18-8.442l-1.393-2.98 3.715-1.49s5.575-10.428 5.575-9.93l-16.724 11.42 22.3-18.87zm3.718 2.982c-.465 0 2.322 7.946 4.645 11.918 2.323 3.973 2.323 8.94 2.323 8.94l7.9 3.972-10.222-15.394 6.504 2.482-11.15-11.918zm0 20.857s5.574 5.96 6.04 7.945l.463 6.456-2.322-4.966-3.252 4.47s2.323-6.953 1.858-7.45l-3.717 2.484s1.394-3.973 1.394-4.47 0-2.98-.464-4.47zm-27.875 13.9c1.858-1.49 5.574-2.482 5.574-2.482s-2.323 3.973-2.787 3.973-1.858 0-2.787-1.49zm64.107-21.848s12.078 7.45 12.078 7.946l-7.897-3.476-4.18-4.47zm-21.831-15.395c.93.497 17.653 14.4 17.188 14.4s-7.432-3.972-7.432-3.475v3.476l-3.717-7.945-.93 2.98-5.11-9.435zm4.176 22.345l4.646 9.435 4.645-.993s-8.825-8.442-9.29-8.442zm14.407-5.958c0 1.49.465 8.938.465 8.938s2.787 2.483 2.787 1.987-2.788-10.43-3.253-10.925z" fill-rule="evenodd" fill="#b7e1ff"/><path d="M182.612 89.522s20.98-11.61 44.87-20.254c23.886-8.644 50.68-14.325 54.222-14.325 7.077 0 19.21 17.783 21.233 17.783 2.022 0 10.11-4.94 20.223-4.94s16.178 7.904 18.2 7.904h18.2c2.023 0-6.066-19.76 0-18.77 3.034.493 28.817 4.445 52.833 12.225 24.014 7.78 58.103 21.515 58.103 21.515s-55.714 7.44-70.488 5.24c-2.022.988-.1 13.07-2.933 7.754-4.656-1.063-21.744-3.727-24.778-3.727s-8.69 3.427-16.78 5.402c-8.088 1.976-18.2 4.94-18.2 4.94l13.146 20.747-16.178 7.903s-10.11-23.71-14.156-23.71-6.067 16.795-11.123 15.807c-5.056-.988-7.078-15.808-11.123-19.76-4.044-3.95-25.368-5.39-33.458-7.366-8.09-1.975-21.144-3.5-28.222-5.476-7.078-1.976-14.155 4.94-17.19 4.94-3.032 0 4.046-5.928 1.012-6.916s-5.055 2.964-7.078 2.964c-2.022 0-23.256-3.952-25.278-4.94-2.022-.988 5.056-4.94 3.034-4.94h-8.09z" fill-rule="evenodd" fill="#984000"/><path d="M462.91-64.94c0 21.15-20.5 38.298-45.79 38.298s-45.793-17.148-45.793-38.298 20.5-38.298 45.79-38.298 45.793 17.148 45.793 38.298z" fill-rule="evenodd" transform="matrix(.22 0 0 .26 231.63 96.52)" stroke="#772600" stroke-width="3.706" fill="#808080"/><path d="M284.74-59.945c6.66-6.66 14.987-16.65 36.633-16.65 4.996-1.666 4.996-11.657 16.65-11.657 11.657 0 8.327 9.99 16.653 13.32 8.325 3.33 76.596-3.33 76.596-3.33s6.66 4.996 6.66 11.657c0 6.66-4.995 11.656-6.66 11.656s-68.27-4.995-73.266-3.33c-4.995 1.666-8.326 3.33-19.982 3.33-11.655 0-14.986-11.655-23.31-11.655-8.327 0-16.653-1.665-29.974 6.66z" fill-rule="evenodd" transform="matrix(.27 0 0 .32 205.39 100.65)" stroke="#772600" stroke-width="5.25" fill="#984000"/><path d="M487.88-76.597h26.642c9.572.114 12.873 3.005 21.647 3.33h23.31c8.476-.314 12.952-2.295 21.648-3.33 14.504-.175 9.555-1.306 6.66-9.99-2.625-6.565-2.95-9.61-6.66-13.322-1.396-7.944-4.655-10.77-4.996-19.98-1.527-7.027-4.342-11.753-1.665-19.983 3.84 5.647 5.387 7.97 14.986 8.326 10.045 0 13.937-.206 19.982 3.33 4.663 4.89 10.886 3.33 19.982 3.33 7.677 1.406 8.96 5.313 14.986 8.326 7.103 3.935 11.694 4.995 21.646 4.995 7.967 1.422 14.88 2.578 19.98 4.995 4.25 5.08 10.952 6.338 19.983 6.66 5.05 0 8.95-.524 13.32-1.665 7.678.37 15.474 0 24.978 0 6.163 7.21 7.587 9.862 18.317 9.99 7.338 5.155 13.527 6.037 19.982 8.327h24.976c8.928.687 11.79 4.35 19.98 6.66 8.115 3.768 15.722 6.35 21.648 8.326 5.89 1.28 13.574 1.665 21.646 1.665 6.183 3.175 13.61 3.46 18.317 6.66 6.89 1.477 16.302 3.215 21.647 4.996 8.816 1.168 12.187 3.94 19.98 4.995 6.704 1.915-2.223 3.56-6.66 4.995-9.826-.364-10.536-3.946-19.98-4.995-5.024-2.94-12.64-2.548-19.982-4.996h-1.666c6.6 3.903 12.948 6.422 9.99 13.32-8.49 0-15.366-1.097-23.31-1.665-8.385-1.616-12.227-3.33-21.647-3.33 9.394-2.264 11.854.27 18.315 3.33 2.396 8.06-2.725 4.996-11.656 4.996-7.61-2.73-12.174-5.983-21.648-6.66h-19.98c9.89.366 11.976 4.1 18.315 8.326.518 2.59-.132 2.472-4.995 3.33-5.16-4.478-11.89-6.013-19.982-8.326-7.88-.28-16.217-.965-23.31-3.33-4.868-.304-4.117-6.177 6.66 3.33 6.532 3.843 8.832 6.946 8.325 9.99-8.576-2.143-12.825-5.58-18.317-8.324-7.736-2.855-14.128-3.33-23.312-3.33-8.61-2.266.894-3.574 6.66 4.995 12.38 8.77-1.632 5.007-6.66 3.33-7.507-2.144-15.284-5.184-21.646-6.66-5.046-1.44-9.44-2.855-14.986-3.33 8.63.785 11.57 3.823 14.986 9.99 8.755 6.032-.384 3.1-8.326 1.666-5.07-4.402-11.487-6.658-14.986-11.656-8.35-4.176-8.563-8.982-3.33 1.665 1.363 3.407 1.11 10.795 1.665 11.656-6.136-6.625-4.825-8.325-11.656-8.325-4.634-3.244-11.496-5.765-14.986-9.99-6.435-.604-6.84-2.9-13.32-4.996 5.34 6.273 12.39 12.478 16.65 18.315 7.598 4.242 9.7 8.06 14.987 11.656 2.14 3.64 7.904 6.657 1.665 1.666-7.144-7.043-12.46-8.67-23.312-13.32-6.15-4.96-8.37-7.045-14.986-11.657-9.003-2.905-5.508-4.543 0 4.995 6.318 5.77 11.17 12.23 16.652 16.65 3.767 4.908 10.136 10.12 14.986 13.322 1.5 2.25 5.99 2.664 0 3.33-5.09-4.598-12.398-7.53-18.317-11.656-8.302-2.34-12.19-6.652-18.316-11.655-3.9-5.85-10.383-10.38-14.987-14.986-9.63-3.77 1.9 3.636 4.995 8.325 2.153 6.068 4.788 11.035 6.66 16.65 2.78 5.56-8.47-1.327-11.655-3.33-7.32-4.157-12.674-6.937-21.647-8.325-5.98-1.3-13.602-2.468-19.982-3.33-7.614-2.05 4.042 4.8 8.326 11.656 8.418 7.908-8.332 1.425-13.32 0-8.224-1.645-16.288-1.666-24.978-1.666-10.67.628-3.05 1.947 0 6.66 3.287 2.53 5.637 7.855 4.995 9.992-7.032-.95-13.025-3.023-21.646-3.33-6.96 2.32-15.344 1.665-23.31 1.665-.382 4.19 1.443.654 4.994 4.995 5.763 2.34 9.585 5.177 8.326 8.326h-48.287c-5.29 1.447 1.14.704 5 6.663-2.16 5.403-4.95 3.332-11.655 3.332-4.545-1.818-13.598-2.636-18.317-4.996-4.69 0-4.336-1.22-8.325-1.665 14.035 9.93 7.073 7.45 14.986 14.987 1.366.456 4.523 1.665 1.664 1.665m-109.903 53.281c-.997 0-3.2-5.375-6.66-9.99-2.327-6.05-5.392-2.59-8.326-11.657.348-9.402.684-11.094 0-19.982-6.863-4.783-9.714-6.27-14.986-14.986-8.46-7.078 1.236-19.063 2.845-27.85-7.375-1.638-11 11.477-22.34 16.194-8.156 5.492-.912-11.354-4.892-21.188-2.774-13.872-10.825 6.956-13.91 12.862-5.467 3.718-7.128 8.542-14.986 1.665 0-5.144 4.937-19.49 2.845-22.28-7.815 3.815-18.088 15.49-26.158 17.284-8.13-1.767 1.77-14.828 1.77-24.518-2.938-.98-14.696 25.755-19.52 26.002-4.824.248-2.713-25.993-4.972-25.428-3.542 4.96-10.65 15.43-15.576 18.948-9.454-1.22 1.398-17.435 2.845-23.427 1.628-7.168-8.905 13.75-14.502 15.102-4.1 3.554-12.237 6.072-14.986 6.66 3.24-6.13 19.076-18.712 17.935-22.278-9.21.34-23.31 12.556-31.256 13.952-5.19 0-12.387 1.758-13.32 1.665.448-7.926 19.418-14.65 22.445-19.465-9.306 1.494-27.186 9.706-32.436 16.135-6.146 1.336-13.944 3.02-19.983 0 .897-7.475 14.856-21.998 17.936-26.758-8.396 3.697-12.642 6.59-21.647 8.325-1.652 1.652-6.524 5.23-4.995 1.665 2.656-6.945 6.676-10.11 9.99-14.986-7.45 1.364-10.28 5.634-18.315 9.99-5.094.222-19.646 14.855-24.596 15.103-11.45 8.382-16.01 9.807-28.308 13.32-7.587 1.356-11.26 2.934-14.986 6.66 3.796-6.687 9.597-13.092 14.986-16.65 3.677-5.567 7.12-10.195 14.986-13.32 1.897-2.32 7.188-2.906 1.665-3.33-4.746 4.236-12.696 8.965-16.65 11.655-5.102 3.207-11.01 6.48-13.322 4.995 2.62-7.197 7.438-8.902 11.657-14.986 8.81-5.604.042-1.914-6.66 0-4.338 3.868-12.122 6.727-18.316 9.992-7.113 1.856-11.703 6.132-19.98 8.326 0 2.375 2.364-4.25 3.33-6.66 6.83-7.41 8.656-9.476 16.65-11.657 1.912-2.866 4.42-1.664-1.665-1.664-4.514 4.024-10.81 6.212-16.65 9.99-5.892 1.282-13.575 1.666-21.648 1.666-10.355 1.243-9.46 2.025 0-3.33 5.357-5.042 9.77-3.775 9.99-9.99-6.254 4.529-13.868 7.859-21.646 11.655-6.434.19-8.133 1.665-14.985 1.665 3.298-3.415 5.277-7.633 9.99-9.99 6.896-7.663-4.377-1.478-6.66 0h-24.977c-4.465 5.58-.23.05 3.33-3.33 4.306-2.24 8.756-5.155 8.326-6.66-4.972 4.314-10.726 6.297-14.986 9.99-4.64 1.39-9.99 2.084-9.99 3.33 3.626-5.346 9.524-8.576 13.32-13.32 5.612-1.22 10.396-2.936 11.656-4.996h-23.312 16.65c8.4 0 15.63-.75 23.313-1.665 13.263-2.21-1.16-3.33-8.326-3.33-1.39-2.548 4.11-3.987 9.99-4.995 5.024-2.38 11.233-4.493 16.65-6.66 5.257-1.434 12.707-5.81 13.322-6.66l-9.99 1.664c7.446-.574 12.8-1.666 21.646-1.666 8.028-2.58 14.906-5.41 21.647-8.326 2.936-3.588 4.24-3.33-3.33-3.33 6.713-2.158 16.238-3.193 21.647-4.995 7.872-1.687 14.9-4.253 19.982-6.66 4.876-3.316 7.69-7.176 13.32-9.99 6.528 4.437 6.602 4.994 18.318 4.994 9.41-.112 15.17-2.373 19.98-6.66 7.208-1.966 8.483-5.43 16.652-6.66 7.444 1.328 15.03 1.664 23.312 1.664 8.096-2.12 15.677-6.01 21.647-9.99 5.093-2.502 11.14-6.12 16.65-8.326 6.07 3.133 10.844 5.65 18.318 6.66 7.728-1.148 11.747-4.868 18.317-6.66 3.577-4.33 8.777-6.632 14.986-8.325 9.67-4.75 8.913 1.573 13.32 6.66 4.896 5.132 11.374 2.68 18.318 4.995 3.83 5.893 6.647 9.914 11.657 13.32 3.89 4.71 8.508 6.035 16.65 6.66 2.968 3.958.602 6.812 6.662 8.327 2.387 2.53 6.517 3.606 9.99 4.995" transform="matrix(.27 0 0 .32 205.39 104.9)" stroke="#772600" stroke-width="3.5" fill="none"/><path d="M468.74 30.803v.833c0-2.327-.103-1.09 1.665 3.33.595 3.64-.81 3.22-2.498 5.828-.286 3.723-.832 6.4-.832 10.823-.537 3.612-2.57 7.04-4.163 9.99-1.604 3.133-8.555 4.87-8.326 9.16-3.99 1.14-4.084-1.445-4.162-5.83-2.386-2.726-3.212-6.466-4.996-9.99-1.108-3.476-3.47-6.032-4.995-9.99-2.46-3.787-4.546-4.876-6.66-9.16-.827-2.065-.683-4.617-2.498-5.827-2.72-3.438-4.49-3.99-9.16-4.163-3.59.845-4.97 2.416-8.324 3.33-2.57.857-7.57.58-10.823 1.666-.808 1.314 1.6 1.94 2.498 4.995-2.135 1.764-2.926 4.883-4.163 7.493-1.965 2.487-3.283 3.706-4.163 7.494 1.362 2.316.2 5.387-1.666 7.493-.574 3.864-2.434 5.874-3.33 9.16-2.686 1.825-3.652 3.537-5.828 6.66-1.914 2.678-3.636 2.497-8.326 2.497-3.667-1-4.18-2.988-7.493-4.163-.352-1.056-.608-1.312-1.665-1.664" transform="matrix(.27 0 0 .32 205.39 104.9)" stroke="#782600" stroke-width="3.125" fill="none"/><path d="M307.65 125.534s-.455 4.955-3.643 8.258l-9.794 7.157s8.882-4.222 9.793-3.304c.91.917-5.694 8.258-5.694 8.258s8.655-7.708 9.794-7.708 3.644 7.524 4.555 7.34c.912-.183-2.05-9.542-1.593-11.01.455-1.468 0-9.36 0-9.36l-3.416.368zm20.496-.672s-.456 5.297-3.644 8.828l-9.794 7.65s8.882-4.512 9.793-3.53c.913.98-5.692 8.827-5.692 8.827s8.654-8.24 9.793-8.24 3.645 8.043 4.556 7.847c.91-.196-2.05-10.2-1.594-11.77.455-1.57 0-10.004 0-10.004l-3.416.392zm-28.693-48.045c0 .987-.967 1.788-2.16 1.788s-2.158-.8-2.158-1.788.966-1.787 2.16-1.787 2.158.8 2.158 1.787z" fill-rule="evenodd" fill="#812e00"/></svg>