<svg xmlns="http://www.w3.org/2000/svg" width="640" height="480" viewBox="0 0 640 480">
	<path fill="#000000" d="M0,0h640v240.6H0L0,0z"/>
	<path fill="#107B00" d="M0,240.6h640v240.6H0L0,240.6z"/>
	<path fill="#FFFFFF" d="M0,159.2h640v165.6H0L0,159.2z"/>
	<path fill="#FF0000" d="M460.6,183.8c-42.5-18.3-79.1,19.4-79,54.6c0,36.8,35.7,76.1,81,58.7c-32-9.4-45.3-33.1-45.3-57C417.1,216.4,432.2,188.8,460.6,183.8L460.6,183.8z"/>
	<path fill="#FF1800" d="M510.6,276.6l-24.3-17.7l-24.4,17.8l9.4-28.6l-24.4-17.7l30.1,0.1l9.3-28.7l9.2,28.6l30.2,0l-24.4,17.6"/>
	<path fill="#FF0000" d="M0,0l327.7,241.2L0,481.3L0,2.5L0,0L0,0z"/>
</svg>
