<svg xmlns="http://www.w3.org/2000/svg" height="480" width="640" viewBox="0 0 640 480"><defs><clipPath id="a"><path fill-opacity=".67" d="M-158.67 0h682.67v512h-682.67z"/></clipPath></defs><g clip-path="url(#a)" fill-rule="evenodd"><path d="M-20.45 0h962.56v240.64h-962.56z"/><path fill="#107b00" d="M-20.45 240.64h962.56v240.64h-962.56z"/><path fill="#fff" d="M-20.45 159.151h962.56v165.562h-962.56z"/><path d="M440.131 183.817c-42.49-18.258-79.061 19.405-79.019 54.6.043 36.809 35.739 76.065 80.998 58.684-32.042-9.435-45.267-33.102-45.261-57.039-.23-23.703 14.934-51.268 43.282-56.245z" fill="#f0f"/><path fill="#ff1800" d="M490.106 276.561l-24.285-17.736-24.433 17.764 9.365-28.579-24.44-17.738 30.065.066 9.334-28.719 9.227 28.609 30.188.005-24.369 17.611"/><path d="M444.23 296.711c-47.486 16.484-83.241-19.251-83.863-55.889-.62-36.637 35.335-74.417 84.105-57.213-27.594 4.091-47.857 28.275-48.1 55.618-.184 20.674 12.043 50.144 47.858 57.483zm-464.661-296.711l327.693 241.223-327.712 240.057.002-478.817.014-2.465z" fill="#f00"/></g></svg>