<svg xmlns="http://www.w3.org/2000/svg" height="480" width="640" viewBox="0 0 640 480"><defs><clipPath id="a"><path fill-opacity=".67" d="M-81.333 0h682.67v512h-682.67z"/></clipPath></defs><g fill-rule="evenodd" clip-path="url(#a)"><path fill="#6797d6" d="M-160.63 0h962.56v481.28h-962.56z"/><path fill="#fff" d="M320.45 115.606l-30.494 20.881 11.687-33.746-30.526-20.846 37.715.036 11.624-33.765 11.624 33.765 37.713-.024-30.53 20.836 11.684 33.751m-30.496 230.156l-30.494-20.881 11.687 33.746-30.526 20.845 37.715-.036 11.624 33.765 11.624-33.765 37.713.025-30.531-20.836 11.684-33.751m-177.081-86.917l-23.058 28.886 1.311-35.689-35.288-11.01 36.077-10.993 1.245-35.688 20.988 28.891 36.058-11.05-23.105 28.852 21.04 28.858m257.823-11.057l23.058 28.886-1.311-35.689 35.288-11.01-36.077-10.993-1.245-35.688-20.988 28.891-36.058-11.05 23.105 28.852-21.04 28.858"/></g></svg>