<svg xmlns="http://www.w3.org/2000/svg" width="640" height="480" viewBox="0 0 640 480">
	<path fill="#6797D6" d="M0,0h640v480H0V0z"/>
	<path fill="#FFFFFF" d="M320.5,115.6L290,136.5l11.7-33.7l-30.5-20.8l37.7,0l11.6-33.8l11.6,33.8l37.7,0l-30.5,20.8l11.7,33.8M320.5,366.6L290,345.8l11.7,33.7l-30.5,20.8l37.7,0l11.6,33.8l11.6-33.8l37.7,0l-30.5-20.8l11.7-33.8 M173.9,258.8l-23.1,28.9l1.3-35.7l-35.3-11l36.1-11l1.2-35.7l21,28.9l36.1-11.1L188.1,241l21,28.9 M467,258.8l23.1,28.9l-1.3-35.7l35.3-11l-36.1-11l-1.2-35.7l-21,28.9l-36.1-11.1l23.1,28.9l-21,28.9"/>
</svg>
