<svg xmlns="http://www.w3.org/2000/svg" height="480" width="640" viewBox="0 0 640 480"><defs><clipPath id="a"><path fill-opacity=".67" d="M-85.333 0h682.67v512h-682.67z"/></clipPath></defs><g clip-path="url(#a)"><path fill="#006" d="M-160.64 0h962.579v481.289h-962.579z"/><path d="M-160.64 0v53.809l854.963 427.482h107.616v-53.807l-854.963-427.484h-107.616zm962.579 0v53.808l-854.963 427.481h-107.616v-53.808l854.963-427.481h107.616zM240.435 0v481.289h160.43v-481.289h-160.43zm-401.075 160.43v160.43h962.579v-160.43h-962.579z" fill="#fff"/><path d="M-160.64 192.516v96.258h962.579v-96.258h-962.579zm433.161-192.516v481.289h96.256v-481.289h-96.256zm-433.161 481.289l320.86-160.43h71.745l-320.86 160.43h-71.745zm0-481.289l320.86 160.43h-71.745l-249.115-124.556v-35.874zm569.975 160.43l320.86-160.43h71.745l-320.86 160.43h-71.745zm392.604 320.86l-320.86-160.43h71.745l249.115 124.558v35.872z" fill="#c00"/></g></svg>