<svg xmlns="http://www.w3.org/2000/svg" height="480" width="640" viewBox="0 0 640 480"><defs><clipPath id="a"><path fill-opacity=".67" d="M-89.048 0h682.67v512h-682.67z"/></clipPath></defs><g clip-path="url(#a)"><path fill-rule="evenodd" fill="#ba0000" d="M664.4 481.28h-687.544v-481.28h687.544z"/><path d="M310.842 232.935s-48.523-20.892-41.56-75.028c6.742-26.06 18.647-43.806 40.213-53.465 10.108-3.145 20.443-4.493 31.001-5.392-2.773 2.621-5.092 5.242-6.29 8.537-2.322 5.915-.6 11.606 2.47 17.296 3.893 6.589 6.213 13.404 6.964 22.24 1.422 12.43-3.893 24.412-13.703 31.675-6.215 4.794-13.553 6.441-19.544 11.907-4.642 4.568-7.487 9.137-8.535 17.072-.15 15.125 3.97 17.223 8.986 25.16z" fill-rule="evenodd" fill="#fff"/><path d="M301.631 154.607v-.224" fill-rule="evenodd" stroke="#000" stroke-width="2.0228800000000002" fill="#ba0000"/><path d="M304.697 227.314c-18.873-16.7-17.224-58.703-2.845-72.706" stroke="#ba0000" stroke-width="2.0228800000000002" fill="none"/><path fill-rule="evenodd" fill="#ba0000" d="M313.436 145.211l3.102 5.187-5.753-2.343-4.3 4.615.752-6.058-5.758-2.335 6.217-1.401.74-6.059 3.093 5.194 6.213-1.41"/><path d="M314.964 229.352s5.757-52.514 59.558-61.72c26.891-1.191 47.346 4.991 62.901 22.78 5.969 8.744 10.285 18.229 14.238 28.061-3.318-1.882-6.503-3.332-10.004-3.512-6.336-.487-11.272 2.828-15.815 7.43-5.159 5.654-10.994 9.868-19.223 13.174-11.468 5.004-24.481 3.431-34.301-3.819-6.401-4.538-10.128-11.07-17.108-15.198-5.729-3.1-10.932-4.482-18.826-3.158-14.506 4.288-15.303 8.842-21.423 15.964z" fill-rule="evenodd" fill="#fff"/><path d="M387.156 197.596l.213-.066" fill-rule="evenodd" stroke="#000" stroke-width="2.0228800000000002" fill="#ba0000"/><path d="M318.538 221.831c10.438-22.938 51.08-33.669 68.682-24.026" stroke="#ba0000" stroke-width="2.0228800000000002" fill="none"/><path fill-rule="evenodd" fill="#ba0000" d="M399.6 206.128l-4.051 4.484.555-6.185-5.673-2.758 6.012-1.056.545-6.189 3.16 5.534 6.009-1.069-4.059 4.478 3.17 5.527"/><path d="M318.591 233.145s51.625-11.219 77.439 36.871c9.67 25.12 10.304 46.48-1.623 66.879-6.395 8.436-14.019 15.543-22.085 22.413.73-3.744 1.094-7.226.152-10.603-1.551-6.162-6.26-9.79-12.068-12.634-6.999-3.098-12.85-7.293-18.597-14.044-8.385-9.287-11.028-22.126-7.272-33.738 2.27-7.513 7.282-13.12 8.977-21.05 1.12-6.416.778-11.788-2.984-18.854-8.673-12.392-13.245-11.703-21.941-15.242z" fill-rule="evenodd" fill="#fff"/><path d="M371.63 291.513l.132.181" fill-rule="evenodd" stroke="#000" stroke-width="2.0228800000000002" fill="#ba0000"/><path d="M326.858 234.145c25.065 2.613 48.147 37.741 44.594 57.495" stroke="#ba0000" stroke-width="2.0228800000000002" fill="none"/><path fill-rule="evenodd" fill="#ba0000" d="M367.492 306.022l-5.539-2.418 6.044-1.438.812-6.255 2.912 5.364 6.042-1.448-4.244 4.755 2.923 5.358-5.535-2.425-4.237 4.76"/><path d="M317.427 238.469s25.267 46.397-13.639 84.678c-21.393 16.337-41.715 22.943-64.644 17.224-9.893-3.769-18.854-9.09-27.713-14.902 3.798-.351 7.242-.979 10.218-2.831 5.48-3.218 7.639-8.758 8.739-15.129 1.006-7.588 3.389-14.38 8.255-21.793 6.556-10.655 18.137-16.798 30.338-16.453 7.849.07 14.636 3.304 22.724 2.704 6.472-.727 11.531-2.563 17.257-8.159 9.458-11.804 7.512-15.999 8.468-25.339z" fill-rule="evenodd" fill="#fff"/><path d="M276.306 305.766l-.138.177" fill-rule="evenodd" stroke="#000" stroke-width="2.0228800000000002" fill="#ba0000"/><path d="M318.79 246.684c4.534 24.791-22.701 56.81-42.657 58.946" stroke="#ba0000" stroke-width="2.0228800000000002" fill="none"/><path fill-rule="evenodd" fill="#ba0000" d="M261.218 305.868l.764-5.995 3.078 5.396 6.232-.978-4.333 4.302 3.087 5.393-5.753-2.737-4.324 4.309.775-5.994-5.759-2.728"/><path d="M311.704 237.463s-35.365 39.245-84.399 15.27c-22.516-14.75-35.5-31.723-37.722-55.248.266-10.583 2.307-20.802 4.846-31.09 1.593 3.465 3.33 6.505 6.067 8.697 4.856 4.098 10.801 4.294 17.174 3.215 7.492-1.573 14.689-1.582 23.298.545 12.228 2.644 21.868 11.524 25.598 23.147 2.543 7.426 1.747 14.903 5.001 22.332 2.835 5.863 6.248 10.024 13.427 13.564 14.277 5.001 17.587 1.772 26.715-.432z" fill-rule="evenodd" fill="#fff"/><path d="M234.568 221.037l-.212-.071" fill-rule="evenodd" stroke="#000" stroke-width="2.0228800000000002" fill="#ba0000"/><path d="M304.408 241.477c-21.874 12.513-61.124-2.534-69.77-20.647" stroke="#ba0000" stroke-width="2.0228800000000002" fill="none"/><path fill-rule="evenodd" fill="#ba0000" d="M229.458 206.84l5.909-1.271-4.067 4.697 2.992 5.553-5.496-2.656-4.061 4.702.671-6.336-5.501-2.647 5.911-1.26.66-6.339"/></g></svg>