<svg xmlns="http://www.w3.org/2000/svg" width="640" height="480" viewBox="0 0 640 480">
<style type="text/css">
	.st0{fill-rule:evenodd;clip-rule:evenodd;fill:#BA0000;}
	.st1{fill-rule:evenodd;clip-rule:evenodd;fill:#FFFFFF;}
	.st2{fill:none;stroke:#BA0000;stroke-width:2.0229;}
</style>
	<path class="st0" d="M640,480H0V0h640V480z"/>
	<path class="st1" d="M310.8,232.9c0,0-48.5-20.9-41.6-75c6.7-26.1,18.6-43.8,40.2-53.5c10.1-3.1,20.4-4.5,31-5.4c-2.8,2.6-5.1,5.2-6.3,8.5c-2.3,5.9-0.6,11.6,2.5,17.3c3.9,6.6,6.2,13.4,7,22.2c1.4,12.4-3.9,24.4-13.7,31.7c-6.2,4.8-13.6,6.4-19.5,11.9c-4.6,4.6-7.5,9.1-8.5,17.1C301.7,222.9,305.8,225,310.8,232.9L310.8,232.9z"/>
	<path class="st2" d="M304.7,227.3c-18.9-16.7-17.2-58.7-2.8-72.7"/>
	<path class="st0" d="M313.4,145.2l3.1,5.2l-5.8-2.3l-4.3,4.6l0.8-6.1l-5.8-2.3l6.2-1.4l0.7-6.1l3.1,5.2l6.2-1.4"/>
	<path class="st1" d="M315,229.4c0,0,5.8-52.5,59.6-61.7c26.9-1.2,47.3,5,62.9,22.8c6,8.7,10.3,18.2,14.2,28.1c-3.3-1.9-6.5-3.3-10-3.5c-6.3-0.5-11.3,2.8-15.8,7.4c-5.2,5.7-11,9.9-19.2,13.2c-11.5,5-24.5,3.4-34.3-3.8c-6.4-4.5-10.1-11.1-17.1-15.2c-5.7-3.1-10.9-4.5-18.8-3.2C321.9,217.7,321.1,222.2,315,229.4L315,229.4z"/>
	<path class="st2" d="M318.5,221.8c10.4-22.9,51.1-33.7,68.7-24"/>
	<path class="st0" d="M399.6,206.1l-4.1,4.5l0.6-6.2l-5.7-2.8l6-1.1l0.5-6.2l3.2,5.5l6-1.1l-4.1,4.5l3.2,5.5"/>
	<path class="st1" d="M318.6,233.1c0,0,51.6-11.2,77.4,36.9c9.7,25.1,10.3,46.5-1.6,66.9c-6.4,8.4-14,15.5-22.1,22.4c0.7-3.7,1.1-7.2,0.2-10.6c-1.6-6.2-6.3-9.8-12.1-12.6c-7-3.1-12.9-7.3-18.6-14c-8.4-9.3-11-22.1-7.3-33.7c2.3-7.5,7.3-13.1,9-21c1.1-6.4,0.8-11.8-3-18.9C331.9,236,327.3,236.7,318.6,233.1L318.6,233.1z"/>
	<path class="st2" d="M326.9,234.1c25.1,2.6,48.1,37.7,44.6,57.5"/>
	<path class="st0" d="M367.5,306l-5.5-2.4l6-1.4l0.8-6.3l2.9,5.4l6-1.4l-4.2,4.8l2.9,5.4l-5.5-2.4l-4.2,4.8"/>
	<path class="st1" d="M317.4,238.5c0,0,25.3,46.4-13.6,84.7c-21.4,16.3-41.7,22.9-64.6,17.2c-9.9-3.8-18.9-9.1-27.7-14.9c3.8-0.4,7.2-1,10.2-2.8c5.5-3.2,7.6-8.8,8.7-15.1c1-7.6,3.4-14.4,8.3-21.8c6.6-10.7,18.1-16.8,30.3-16.5c7.8,0.1,14.6,3.3,22.7,2.7c6.5-0.7,11.5-2.6,17.3-8.2C318.4,252,316.5,247.8,317.4,238.5L317.4,238.5z"/>
	<path class="st2" d="M318.8,246.7c4.5,24.8-22.7,56.8-42.7,58.9"/>
	<path class="st0" d="M261.2,305.9l0.8-6l3.1,5.4l6.2-1l-4.3,4.3l3.1,5.4l-5.8-2.7l-4.3,4.3l0.8-6l-5.8-2.7"/>
	<path class="st1" d="M311.7,237.5c0,0-35.4,39.2-84.4,15.3c-22.5-14.8-35.5-31.7-37.7-55.2c0.3-10.6,2.3-20.8,4.8-31.1c1.6,3.5,3.3,6.5,6.1,8.7c4.9,4.1,10.8,4.3,17.2,3.2c7.5-1.6,14.7-1.6,23.3,0.5c12.2,2.6,21.9,11.5,25.6,23.1c2.5,7.4,1.7,14.9,5,22.3c2.8,5.9,6.2,10,13.4,13.6C299.3,242.9,302.6,239.7,311.7,237.5L311.7,237.5z"/>
	<path class="st2" d="M304.4,241.5c-21.9,12.5-61.1-2.5-69.8-20.6"/>
	<path class="st0" d="M229.5,206.8l5.9-1.3l-4.1,4.7l3,5.6l-5.5-2.7l-4.1,4.7l0.7-6.3l-5.5-2.6l5.9-1.3l0.7-6.3"/>
</svg>
