<svg xmlns="http://www.w3.org/2000/svg" width="640" height="480" viewBox="0 0 640 480">
	<rect fill="#FFFFFF" width="640" height="480"/>
	<rect fill="#0000CC" y="45.1" width="640" height="63.2"/>
	<rect fill="#0000CC" y="374.5" width="640" height="63.2"/>
	<path fill="#0000CC" d="M349.5,300.8l69.7-0.2l-35.4-60.1l35-61.5l-71.3-0.1l-34-57.6l-33.1,57.6l-69.3-0.1l34.7,60.1L210,301.3l71.9-0.3l34,58.8L349.5,300.8z M398.3,288.7l-41.9,0.1l20.6-36.3L398.3,288.7z M342.5,288.9l-53.7,0.2l-29-50.2l27.6-48l53.3,0.1l29.3,49.7L342.5,288.9z M398.2,191l-21.4,37.6l-22.2-37.7L398.2,191z M313.7,145.1l19.9,33.8l-39.3,0L313.7,145.1z M232,190.8l41.5,0l-20.7,36L232,190.8z M230.8,289.3l22.1-38.4l22.1,38.2L230.8,289.3z M295.7,301l40-0.1l-19.9,34.9L295.7,301z"/>
</svg>
