<svg xmlns="http://www.w3.org/2000/svg" height="480" width="640" viewBox="0 0 640 480"><defs><clipPath id="a"><path fill-opacity=".67" d="M-87.62 0h682.67v512h-682.67z"/></clipPath></defs><g fill-rule="evenodd" clip-path="url(#a)"><path fill="#fff" d="M664.404 481.28h-687.544v-481.28h687.544z"/><path fill="#00c" d="M664.404 108.316h-687.544v-63.193h687.544zm0 329.423h-687.544v-63.193h687.544zm-454.02-258.406l103.513 180.048 105.741-179.305-209.253-.743z"/><path d="M294.345 298.741l19.693 33.376 20.116-33.238-39.809-.136z" fill="#fff"/><path d="M209.999 301.345l103.522-180.048 105.731 179.305-209.253.743z" fill="#00c"/><path d="M294.345 180.113l19.693-33.376 20.116 33.238-39.809.136zm-41.153 74.73l-20.342 33.823 38.446-.119-18.104-33.704zm-19.994-62.51l38.752.273-18.644 34.084-20.107-34.357zm142.166 62.895l19.58 33.441-39.207-.501 19.627-32.94zm19.223-62.895l-38.752.273 18.645 34.084 20.107-34.357zm-107.414-.038l-26.69 48.424 27.072 47.279 49.566 1.144 30.121-48.424-27.833-48.805-52.238.381z" fill="#fff"/></g></svg>