<svg xmlns="http://www.w3.org/2000/svg" height="480" width="640" viewBox="0 0 640 480"><defs><clipPath id="a"><path fill-opacity=".67" d="M-77.62 0h682.67v512h-682.67z"/></clipPath></defs><g clip-path="url(#a)"><path fill-rule="evenodd" fill="#ba0000" d="M664.434 481.28h-687.544v-481.28h687.544z"/><path d="M336.929 353.449c.188-.569.567-6.433.378-6.433s-8.892-10.215-8.703-10.215c.19 0 11.162 2.459 11.162 2.08 0-.378 4.352-10.782 4.352-10.972 0-.188 5.296 12.676 5.296 12.676l10.782 4.73-7.567 6.242s1.704 12.107 1.704 12.298c0 .188-7.567-7.191-7.567-7.191l-8.326.948s-1.134-3.784-1.512-4.161z" fill-rule="evenodd" fill-opacity=".988" stroke="#000" stroke-width="2.0717600000000003" fill="#ffef00"/><path d="M278.31 194.477c-7.188 3.702-34.776 35.237-38.559 40.155-3.171 7.14-9.372 16.173-15.757 21.987-6.817 5.159-10.605 12.204-9.667 18.875-.075 8.3 4.578 13.951 8.285 19.793 2.195 2.668 5.146 4.393 8.286 4.602 6.439.851 7.011 2.833 10.234 4.061 12.695 17.287 31.634 30.033 45.273 40.129 8.695 4.583 14.739 9.165 16.812 11.667 3.993 7.625 3.258 15.061 2.711 18.714-3.375 12.737-6.751 25.471-10.127 38.207-1.704 10.406 7.339 8.065 7.825 5.984 4.08-5.297 10.171-1.577 18.872-32.223 3.99-5.37 7.981-10.74 11.969-16.112 0 0 4.604-1.841 4.604-2.3 7.001-8.405 1.671-13.216-2.303-14.73-2.914-1.073-5.828-2.149-8.744-3.224 0 0-10.127-10.126-10.587-10.126-4.813-13.999-28.433-43.886-33.92-48.047-3.798-3.957-5.605-5.645-9.21-7.846-5.543-2.651-7.332-3.514-10.725-4.869-2.828-1.134-.815-4.237.982-5.655 18.709-10.184 33.539-21.502 51.491-33.011l2.762-1.842-6.445-36.824-29.92-10.588c-1.57 1.074-2.761 2.15-4.143 3.224z" fill-rule="evenodd" stroke="#000" stroke-width="2.47784" fill="#fff"/><path d="M303.343 388.361c.094-.378 18.728-3.784 18.728-3.784s-2.175 6.905-2.27 6.905l-18.537 5.581 2.079-8.702z" fill-rule="evenodd" fill="#ffec00"/><path d="M254.792 318.199c3.595-9.553 13.572-17.117 20.274-19.204" stroke="#000" stroke-width="2.0717600000000003" fill="none"/><path d="M244.58 413.32c1.28-.36 6.96-2.018 8.616-2.276 1.765-.414 3.523-.876 5.22-1.424 1.96-.4 3.186-.768 5.22-1.14 1.595-.607 3.17-1.024 4.874-1.422m-27.52 18.518c.167-.22 1.517-1.415 2.487-1.992 1.143-.36 5.05-2.018 6.527-2.276a53.935 53.935 0 0 0 4.662-1.424c1.75-.4 2.845-.768 4.663-1.14 1.422-.607 2.83-1.023 4.35-1.422" stroke="#000" stroke-width="2.437" fill="none" transform="translate(72.77) scale(.94)"/><path d="M249.04 341.38h-.284c.89 0 .344-.074-.855 1.423-.425 1.15-4.08 3.7-6.83 3.7-1.327.142-3.367.284-4.696.284l-1.28-.284m13.665 53.517h1.422c1.476 0 2.957.263 4.27.284l4.27.404c1.436.203 3.167.137 4.653.348 1.666.057 3.004.386 4.738.386 1.398.053 2.152.286 3.7.286l-3.7-.286c1.398.053 2.152.286 3.7.286m-32.733 33.012c.152-.222 1.39-1.415 2.276-1.992 1.047-.36 4.624-2.018 5.978-2.276a46.719 46.719 0 0 0 4.268-1.424c1.604-.4 2.606-.768 4.27-1.14 1.304-.607 2.592-1.024 3.984-1.422m5.874-41.216c-.805 2.337.238 2.924.67 3.933.75.977 2.666 2.466 5.693 3.415 1.167.314 2.064.622 3.415 1.14.894.082 1.334.305 1.992.568m-124.37-94.776h.284c-.892 0-.357.058 1.14-1.14.923-1.032 1.695-1.5 2.56-2.56m14.436 23.97c.19 0 16.557-8.25 18.305-10.01 1.238-.9 2.176-1.846 3.68-2.866.967-.504 1.66-1.15 2.564-1.707.75-1.09 1.733-1.748 2.275-2.745 1.005-.87.574-1.815 1.39-2.864.384-1.075 1.105-2.885 1.34-3.87m20.846 12.242c.09.59-.26 2.402-.236 3.782-.057 1.6-2.115 6.543-4.603 8.02" stroke="#000" stroke-width="2.204" fill="none" transform="translate(72.77) scale(.94)"/><path d="M253.767 289.351c.09 0 2.432.761 6.345 1.965 4.712 1.695 14.512 7.87 15.484 8.72.994.78 2.769 1.479 3.45 2.406 1.065.921 1.844 1.982 2.676 2.942.978 1.194 1.809 2.201 2.406 3.212 2.975 2.413 10.979 19.122 11.236 20.065.449.884 1.006 2.111 1.339 2.942.592.684.996 1.651 1.605 2.676.559 1.33 1.186 1.936 1.874 2.942.885.617 2.079 1.786 3.21 2.408 1.206 1.03 2.337 1.45 3.21 2.14 1.262.536 15.361 9.449 16.016 9.895 1.288 1.034 5.222 5.111 2.46 8.075-1.171 1.003-2.228 2.331-3.227 2.897-1.02 1.021-2.438 1.478-3.61 2.006-6.353 1.877-9.588 1.205-10.838 1.205h-1.338m-83.44-108.016c1.805.707 1.077.185 2.702.925 1.092.479 1.811.491 2.886.884 1.137.364 4.321.937 5.85 2.472 1.122 1.013 1.979 1.871 3.211 2.609 1.457 1.006 2.51 1.452 4.316 2.206 1.525.571 3.229 1.203 4.771 1.258 1.603.094 1.987.013 3.525.013h7.49-3.746" stroke="#000" stroke-width="2.0717600000000003" fill="none"/><path d="M222.192 275.683c4.012-.267 10.7.937 10.833.937l8.829-.133c4.638-.447 5.663-2.231 6.42-3.48 1.739-2.674 2.944-3.61 4.282-5.617 2.139-1.605 5.085 2.14 5.217 2.14 7.492 7.09 1.471 15.784 1.07 16.051-3.744 3.434-4.547 3.657-6.821 1.471-2.275-2.675-2.942-3.878-4.816-4.816-3.61-1.739-11.101-.4-11.237-.4-.133 0-3.878 1.471-3.878 1.471-1.829.669-2.989 2.275-6.153 2.809-3.21.224-4.281-.088-5.886-2.674-2.139-3.344-1.072-7.357 2.141-7.758z" fill-rule="evenodd" stroke="#000" stroke-width="2.0717600000000003" fill="#ffe606"/><path d="M431.662 113.42c-.587.115-5.884 2.658-5.792 2.824.092.165-4.547 12.756-4.64 12.591-.094-.166-3.328-10.936-3.657-10.75-.329.185-11.531 1.492-11.696 1.585-.165.092 8.451-10.829 8.451-10.829l-1.161-11.718 9.15 3.537s9.72-7.418 9.884-7.511c.164-.094-2.559 10.119-2.559 10.119l4.905 6.792s-2.741 2.843-2.886 3.356z" fill-rule="evenodd" fill-opacity=".988" stroke="#000" stroke-width="2.0717600000000003" fill="#ffef00"/><path d="M321.804 242.426c6.749 4.452 47.758 13.045 53.9 13.933 7.778-.736 18.69.242 26.889 2.959 7.837 3.414 15.834 3.264 21.189-.823 7.273-4.003 9.919-10.829 13.193-16.923 1.25-3.219 1.307-6.638-.049-9.477-2.416-6.03-.966-7.501-1.476-10.911 8.845-19.537 10.675-42.292 12.792-59.131-.267-9.823.765-17.34 1.931-20.372 4.689-7.219 11.531-10.222 14.984-11.534 12.756-3.301 25.512-6.599 38.267-9.898 9.905-3.615 3.433-10.349 1.382-9.754-6.618-.961-6.36-8.093-37.337-.658l-19.909-2.538s-3.863-3.111-4.264-2.886c-10.757-1.982-12.338 5.022-11.711 9.227l1.476 9.203s-3.863 13.79-3.638 14.191c-9.845 11.054-24.498 46.556-25.436 53.378-.445 6.411-2.865 5.253-2.216 11.484.024 4.869-.541 1.829 1.084 11.861.397 3.02-3.295 2.787-5.413 1.915-18.046-11.318-35.18-18.697-54.011-28.706l-2.958-1.506-28.941 23.665 5.433 31.27c1.706.841 3.227 1.354 4.841 2.03z" fill-rule="evenodd" stroke="#000" stroke-width="2.47784" fill="#fff"/><path d="M478.54 125.584c-.376.103-12.477-14.47-12.477-14.47s7.086-1.488 7.132-1.405l13.95 13.425-8.605 2.451z" fill-rule="evenodd" fill="#ffec00"/><path d="M441.184 202.297c-10.089 1.549-21.573-3.44-26.677-8.26" stroke="#000" stroke-width="2.0717600000000003" fill="none"/><path d="M432.18 134.14c-.94-.94-5.17-5.08-6.207-6.395a66.484 66.484 0 0 0-3.8-3.853c-1.308-1.51-2.23-2.4-3.55-3.992-1.31-1.09-2.447-2.26-3.63-3.55m29.63 14.91c-.275-.034-1.978-.626-2.956-1.19-.874-.82-4.234-3.41-5.183-4.573a54.209 54.209 0 0 0-3.525-3.366c-1.208-1.33-2.065-2.102-3.28-3.506-1.227-.942-2.28-1.964-3.372-3.095" stroke="#000" stroke-width="2.437" fill="none" transform="translate(72.77) scale(.94)"/><path d="M367.28 165.51l.14.248c-.437-.777-.234-.263 1.66.047 1.21-.192 5.223 1.743 6.57 4.14.776 1.09 1.9 2.797 2.55 3.956l.38 1.257m39.95-38.138l-.14-.248-.557-.99c-.723-1.288-1.22-2.708-1.845-3.863l-1.74-3.92c-.527-1.352-1.433-2.828-1.977-4.227-.767-1.48-1.135-2.807-1.985-4.32-.64-1.244-.806-2.015-1.565-3.366l1.565 3.367c-.64-1.245-.806-2.016-1.565-3.367m44.819 12.354c-.268-.024-1.914-.517-2.852-1.008-.827-.736-4.025-3.04-4.914-4.095a47.069 47.069 0 0 0-3.332-3.023c-1.135-1.202-1.947-1.894-3.086-3.164-1.17-.838-2.163-1.757-3.193-2.775m-38.813 15.075c2.432-.444 2.432-1.64 3.1-2.51.484-1.134.843-3.534.187-6.637-.298-1.172-.47-2.105-.68-3.536-.367-.82-.388-1.312-.482-2.015m-21.655 154.868l-.14-.248c.438.778.226.283-1.55-.434-1.354-.3-2.14-.743-3.487-.978m13.817-24.34c-.093-.166-15.305-10.39-17.697-11.05-1.39-.638-2.674-.99-4.3-1.804-.914-.594-1.817-.88-2.746-1.397-1.318-.122-2.372-.656-3.507-.64-1.252-.45-1.864.39-3.178.194-1.125.19-3.056.45-4.03.727m.458-24.17c.47-.366 2.222-.95 3.413-1.648 1.422-.735 6.74-1.363 9.245.082M365.71 231.2c-.047-.084-.562-2.652-1.486-6.91-.886-5.252-.268-17.558.013-18.904.207-1.328-.072-3.34.433-4.454.298-1.466.876-2.743 1.334-4.015.596-1.528 1.097-2.826 1.723-3.906.686-4.017 12.008-20.15 12.75-20.88a43.017 43.017 0 0 1 2.03-2.775c.325-.907 1.01-1.784 1.645-2.884.94-1.21 1.177-2.108 1.752-3.27.11-1.143.57-2.86.558-4.233.328-1.656.127-2.924.312-4.094-.16-1.45.753-19.172.826-20.01.288-1.735 2.017-7.507 6.206-6.492 1.54.565 3.32.852 4.368 1.484 1.48.413 2.642 1.49 3.743 2.3 5.052 4.913 6.115 8.264 6.766 9.423l.698 1.24m-56.741 133.12l-.14-.248c.377.67.17.336-.31-1.132-.125-1.263-.515-2.97-.712-4.17-.255-1.247-.84-2.667-.68-3.536-.447-1.266-.166-2.31-.046-3.566.354-1.568.514-2.703.558-4.232.172-1.875.034-3.205.14-4.977-.494-1.46-.594-2.682-1.348-4.14-.67-1.394-1.182-2.684-1.984-4.11l-1.953-3.473 1.953 3.474-1.953-3.473" stroke="#000" stroke-width="2.204" fill="none" transform="translate(72.77) scale(.94)"/><path d="M420.1 251.544c-2.2-3.365-4.427-9.785-4.493-9.903l-4.443-7.631c-2.663-3.824-4.719-3.843-6.18-3.892-3.184-.205-4.591-.795-6.995-.978-2.448-1.079-.626-5.48-.692-5.598 2.51-10.003 13.038-9.017 13.468-8.798 4.829 1.581 5.416 2.171 4.625 5.225-1.216 3.295-1.936 4.465-1.837 6.557.254 4.001 5.092 9.875 5.159 9.992.066.117 3.183 2.66 3.183 2.66 1.48 1.266 3.448 1.49 5.463 3.987 1.769 2.688 2.021 3.775.555 6.441-1.867 3.504-5.889 4.54-7.813 1.936z" fill-rule="evenodd" stroke="#000" stroke-width="2.0717600000000003" fill="#ffe606"/><path d="M171.697 158.55c.417.43 5.447 3.469 5.535 3.299s13.164-3.184 13.075-3.016-7.325 8.773-6.989 8.947c.335.175 7.564 8.83 7.732 8.918.169.086-13.689-1.139-13.689-1.139l-9.165 7.388-2.054-9.591s-11.53-4.068-11.698-4.155c-.167-.087 9.867-3.403 9.867-3.403l2.997-7.825s3.88.737 4.39.575z" fill-rule="evenodd" fill-opacity=".988" stroke="#000" stroke-width="2.0717600000000003" fill="#ffef00"/><path d="M339.785 179.78c.028-8.084-15.247-47.1-17.869-52.725-4.876-6.102-10.035-15.768-12.253-24.115-1.435-8.425-5.943-15.034-12.295-17.275-7.332-3.892-14.493-2.366-21.385-1.767-3.379.718-6.27 2.544-7.903 5.232-3.722 5.323-5.743 4.916-8.319 7.212-21.191 3.302-41.23 14.237-56.477 21.69-8.073 5.604-14.925 8.86-18.101 9.545-8.607.031-14.867-4.048-17.857-6.216l-29.242-26.593c-8.451-6.307-10.539 2.796-8.917 4.187 2.82 6.063-3.286 9.752 19.902 31.596l8.783 18.045s-.487 4.935-.079 5.146c4.234 10.086 10.96 7.573 14.134 4.743l6.89-6.275s13.653-4.321 13.865-4.728c14.641 2.179 52.369-5.008 58.59-7.962 5.607-3.14 5.964-.479 10.821-4.437 4.061-2.687 1.827-.547 9.329-7.402 2.311-1.986 4.136 1.23 4.568 3.478.416 21.298 3.628 39.675 5.569 60.91l.362 3.299c11.882 3.751 23.768 7.499 35.65 11.249l23.184-21.676c-.229-1.887-.634-3.44-.951-5.161z" fill-rule="evenodd" stroke="#000" stroke-width="2.47878" fill="#fff"/><path d="M156.183 112.659c.291.259-5.272 18.365-5.272 18.365s-5.128-5.114-5.084-5.198l3.591-19.023 6.763 5.856z" fill-rule="evenodd" fill="#ffec00"/><path d="M240.823 101.891c6.823 7.592 8.939 19.933 7.702 26.843" stroke="#000" stroke-width="2.0717600000000003" fill="none"/><path d="M88.917 119.143c-.27 1.302-1.416 7.108-1.95 8.696a66.817 66.817 0 0 0-1.142 5.288c-.547 1.923-.785 3.18-1.394 5.158-.194 1.694-.55 3.284-.982 4.98m-3.754-32.955c.12.25.557 1.998.622 3.125-.206 1.18-.535 5.41-.987 6.84a54.356 54.356 0 0 0-.886 4.794c-.45 1.737-.628 2.88-1.138 4.663-.116 1.543-.394 2.984-.74 4.517" stroke="#000" stroke-width="2.437" fill="none" transform="translate(72.77) scale(.94)"/><path d="M214.422 146.872l.122-.237c-.385.743-.085.32-.816-1.33-.775-.854-1.319-5.005-.128-7.3.457-1.169 1.222-2.933 1.797-4.042l.791-.945m-50.548-11.771l-.122.237-.493.949c-.639 1.231-1.5 2.352-2.087 3.438l-2.186 3.388c-.791 1.111-1.485 2.585-2.307 3.732-.768 1.366-1.622 2.339-2.373 3.785-.649 1.144-1.169 1.673-1.841 2.964l1.842-2.964c-.65 1.144-1.171 1.673-1.842 2.964m-13.37-41.618c.119.223.579 1.772.677 2.762-.153 1.029-.32 4.732-.691 5.973-.28 1.382-.517 2.782-.661 4.177-.361 1.511-.489 2.506-.9 4.055-.056 1.352-.268 2.607-.539 3.94m31.84 22.769c-1.601-1.685-2.543-1.069-3.572-1.147-1.137.204-3.211 1.156-5.314 3.271-.766.837-1.412 1.453-2.429 2.356-.456.711-.833.98-1.337 1.416m132.932-62.714l-.122.237c.385-.744.105-.322.456 1.444.461 1.218.517 2.065 1.026 3.246m-26.244 1.658c-.083.16-.291 17.385.423 19.607.212 1.422.597 2.613.795 4.312.002 1.025.242 1.882.315 2.876.583 1.1.707 2.204 1.304 3.089.291 1.216 1.266 1.265 1.789 2.4.729.787 1.927 2.171 2.646 2.795m-19.244 12.089c-.529-.18-1.889-1.26-3.052-1.836-1.311-.74-4.543-4.597-4.697-7.313" stroke="#000" stroke-width="2.0717600000000003" fill="none"/><path d="M206.527 121.572c-.044.085-1.91 1.923-4.967 5.028-3.91 3.618-14.542 9.843-15.822 10.344-1.224.555-2.754 1.89-3.963 2.077-1.39.555-2.775.772-4.09 1.085-1.605.34-2.965.63-4.212.7-3.737 1.625-23.436.992-24.452.77a43.156 43.156 0 0 1-3.434-.178c-.936.225-2.046.13-3.313.204-1.53-.123-2.41.17-3.697.327-1.015.535-2.704 1.09-3.847 1.85-1.566.634-2.516 1.497-3.596 1.983-1.125.928-16.452 9.872-17.193 10.27-1.608.71-7.384 2.425-8.83-1.636-.372-1.597-1.107-3.244-1.152-4.467-.465-1.463-.2-3.026-.125-4.39 1.342-6.92 3.563-9.643 4.175-10.823l.656-1.263m142.437-25.449l-.13.253c.353-.683.188-.325-.778.88-.987.796-2.203 2.057-3.1 2.88-.902.896-1.77 2.162-2.583 2.505-.814 1.068-1.843 1.405-2.958 1.992-1.506.563-2.543 1.05-3.846 1.85-1.664.885-2.7 1.73-4.24 2.61-.95 1.213-1.918 1.967-2.725 3.395-.8 1.324-1.597 2.46-2.35 3.91l-1.837 3.537 1.837-3.537-1.837 3.537m11.75 73.122l.263-.506c-.485.935-.315.69.14-.888.005-1.892.454-4.18.473-5.85.285-1.766.574-3.675.592-5.464-.107-2.094-.104-3.97-.417-5.99-.024-1.857-.24-3.784-.296-5.605-.035-1.803-.17-3.35-.56-5.1-.037-1.31-.118-3.11-.437-4.716.17-1.267-.19-2.432-.458-3.445-.49-1.95-.68-3.09-1.195-5.11-.31-1.084-.615-2.468-1.082-4.09-.17-1.537-.992-3.533-1.326-4.858-.457-.974-.918-2.294-1.095-3.453-.478-1.07-1.16-2.375-1.345-3.585-.504-.924-1.04-2.36-1.598-3.718-.48-1.116-.834-2.49-1.345-3.584-.517-1.38-1.147-2.56-1.468-3.97-.493-.476-.605-1-.87-1.412" stroke="#000" stroke-width="2.204" fill="none" transform="translate(72.77) scale(.94)"/><path d="M293.569 92.562c-1.611 3.685-5.762 9.065-5.823 9.184l-3.95 7.898c-1.739 4.322-.63 6.054.129 7.301 1.573 2.775 1.849 4.275 3.013 6.387.439 2.639-4.241 3.525-4.303 3.644-9.744 3.38-14.686-5.969-14.739-6.448-1.322-4.905-1.149-5.72 1.839-6.73 3.422-.787 4.798-.825 6.493-2.056 3.207-2.404 5.471-9.669 5.534-9.788.061-.118.481-4.12.481-4.12.25-1.933-.642-3.702.343-6.757 1.281-2.952 2.051-3.758 5.085-3.991 3.955-.357 7.024 2.44 5.899 5.476z" fill-rule="evenodd" stroke="#000" stroke-width="2.0717600000000003" fill="#ffe606"/><path d="M280.783 187.671c-1.472-1.337 27.691 10.566 31.702 10.702 5.486-2.006 28.093-21.135 28.093-21.135.223 1.873 1.025 6.733 3.209 7.76-8.738 7.09-16.676 13.912-25.415 21 .623 11.238-1.429 23.143 4.279 35.718 0 0-6.821.132-6.821 0-6.02-6.02-8.161-35.047-8.161-35.047-9.586-4.282-19.174-8.428-28.76-12.709 1.382-.893 2.497-3.657 1.872-6.289z" fill-rule="evenodd" fill-opacity=".987" stroke="#000" stroke-width="2.0717600000000003" fill="#ffef00"/><path d="M308.531 217.422c.466-.338-5.26 2.66-6.73 3.412-26.495 14.134-40.129 34.692-40.978 35.468-.458.876-1.301 2.044-2.072 3.188-.62.959-1.513 1.951-2.1 2.922-.812 1.124-2.519 3.345-3.45 4.33-.117.635.442-.216.259.207m73.175-66.325c-.514-.26 4.772 3.461 6.115 4.425 24.684 17.096 49.203 19.817 50.282 20.217.987.007 2.412.222 3.782.385 1.137.113 2.428.451 3.56.529 1.371.207 4.127.709 5.428 1.088.617-.188-.395-.293.063-.325" stroke="#000" stroke-width="2.0717600000000003" fill="none"/></g></svg>