<svg xmlns="http://www.w3.org/2000/svg" height="480" width="640" viewBox="0 0 640 480"><defs><clipPath id="a"><path fill-opacity=".67" d="M0 0h682.67v512h-682.67z"/></clipPath></defs><g clip-path="url(#a)"><path fill-rule="evenodd" fill="#fff" d="M0 0h960v480h-960z"/><path d="M960 417.413c-10.757 6.472-19.999 21.595-48.576 21.595-57.138 0-71.426-31.842-114.281-31.842-28.569 0-42.855 31.842-71.425 31.842-57.142 0-71.429-31.842-114.281-31.842-28.572 0-42.858 31.842-71.429 31.842-57.142 0-71.429-31.842-114.281-31.842-28.572 0-42.858 31.842-71.429 31.842-57.142 0-71.429-31.842-114.281-31.842-28.573 0-42.858 31.842-71.429 31.842-57.142 0-71.43-31.842-114.291-31.842-28.571 0-37.143 22.69-54.286 22.69v40.994c17.143 0 25.714-22.688 54.286-22.688 42.858 0 57.145 31.838 114.281 31.838 28.571 0 42.856-31.842 71.429-31.842 42.856 0 57.142 31.842 114.281 31.842 28.571 0 42.857-31.842 71.429-31.842 42.857 0 57.142 31.842 114.281 31.842 28.571 0 42.857-31.842 71.429-31.842 42.857 0 57.142 31.842 114.281 31.842 28.571 0 42.857-31.842 71.425-31.842 42.858 0 57.146 31.842 114.281 31.842 28.577 0 37.819-9.023 48.576-15.495v-47.095zm0-79.613c-10.757 6.472-19.999 21.595-48.576 21.595-57.138 0-71.426-31.842-114.281-31.842-28.569 0-42.855 31.842-71.425 31.842-57.142 0-71.429-31.842-114.281-31.842-28.572 0-42.858 31.842-71.429 31.842-57.142 0-71.429-31.842-114.281-31.842-28.572 0-42.858 31.842-71.429 31.842-57.142 0-71.429-31.842-114.281-31.842-28.573 0-42.858 31.842-71.429 31.842-57.142 0-71.43-31.842-114.291-31.842-28.571 0-37.143 22.69-54.286 22.69v40.994c17.143.009 25.714-22.688 54.286-22.688 42.857 0 57.143 31.842 114.291 31.842 28.571 0 42.856-31.842 71.429-31.842 42.856 0 57.142 31.842 114.281 31.842 28.571 0 42.857-31.842 71.429-31.842 42.857 0 57.142 31.842 114.281 31.842 28.571 0 42.857-31.842 71.429-31.842 42.857 0 57.142 31.842 114.281 31.842 28.571 0 42.857-31.842 71.425-31.842 42.858 0 57.146 31.842 114.281 31.842 28.577 0 37.819-9.023 48.576-15.495v-47.095zm0-79.603c-10.757 6.472-19.999 21.595-48.576 21.595-57.138 0-71.426-31.842-114.281-31.842-28.569 0-42.855 31.842-71.425 31.842-57.142 0-71.429-31.842-114.281-31.842-28.572 0-42.858 31.842-71.429 31.842-57.142 0-71.429-31.842-114.281-31.842-28.572 0-42.858 31.842-71.429 31.842-57.142 0-71.429-31.842-114.281-31.842-28.573 0-42.858 31.842-71.429 31.842-57.142 0-71.43-31.842-114.291-31.842-28.571 0-37.143 22.69-54.286 22.69v40.994c17.143 0 25.714-22.688 54.286-22.688 42.857 0 57.143 31.842 114.291 31.842 28.571 0 42.856-31.842 71.429-31.842 42.856 0 57.142 31.842 114.281 31.842 28.571 0 42.857-31.842 71.429-31.842 42.857 0 57.142 31.842 114.281 31.842 28.571 0 42.857-31.842 71.429-31.842 42.857 0 57.142 31.842 114.281 31.842 28.571 0 42.857-31.842 71.425-31.842 42.858 0 57.146 31.842 114.281 31.842 28.577 0 37.819-9.023 48.576-15.495v-47.095zm0-79.603c-10.757 6.472-19.999 21.595-48.576 21.595-57.138 0-71.426-31.842-114.281-31.842-28.569 0-42.855 31.842-71.425 31.842-57.142 0-71.429-31.842-114.281-31.842-28.572 0-42.858 31.842-71.429 31.842-57.142 0-71.429-31.842-114.281-31.842-28.572 0-42.858 31.842-71.429 31.842-57.142 0-71.429-31.842-114.281-31.842-28.573 0-42.858 31.842-71.429 31.842-57.142 0-71.43-31.842-114.291-31.842-28.571 0-37.143 22.69-54.286 22.69v40.994c17.143 0 25.714-22.688 54.286-22.688 42.857 0 57.143 31.842 114.291 31.842 28.571 0 42.856-31.842 71.429-31.842 42.856 0 57.142 31.842 114.281 31.842 28.571 0 42.857-31.842 71.429-31.842 42.857 0 57.142 31.842 114.281 31.842 28.571 0 42.857-31.842 71.429-31.842 42.857 0 57.142 31.842 114.281 31.842 28.571 0 42.857-31.842 71.425-31.842 42.858 0 57.146 31.842 114.281 31.842 28.577 0 37.819-9.023 48.576-15.495v-47.095zm0-79.603c-10.757 6.472-19.999 21.595-48.576 21.595-57.138 0-71.426-31.842-114.281-31.842-28.569 0-42.855 31.842-71.425 31.842-57.142 0-71.429-31.842-114.281-31.842-28.572 0-42.858 31.842-71.429 31.842-57.142 0-71.429-31.842-114.281-31.842-28.572 0-42.858 31.842-71.429 31.842-57.142 0-71.429-31.842-114.281-31.842-28.573 0-42.858 31.842-71.429 31.842-57.142 0-71.43-31.842-114.291-31.842-28.585-.002-37.157 22.688-54.3 22.688v40.994c17.143 0 25.714-22.69 54.286-22.69 42.857 0 57.143 31.842 114.291 31.842 28.571 0 42.856-31.842 71.429-31.842 42.856 0 57.142 31.842 114.281 31.842 28.571 0 42.857-31.842 71.429-31.842 42.857 0 57.142 31.842 114.281 31.842 28.571 0 42.857-31.842 71.429-31.842 42.857 0 57.142 31.842 114.281 31.842 28.571 0 42.857-31.842 71.425-31.842 42.858 0 57.146 31.842 114.281 31.842 28.577 0 37.819-9.023 48.576-15.495v-47.095zm0-79.608c-10.757 6.472-19.999 21.595-48.576 21.595-57.138 0-71.426-31.842-114.281-31.842-28.569 0-42.855 31.842-71.425 31.842-57.142 0-71.429-31.842-114.281-31.842-28.572 0-42.858 31.842-71.429 31.842-57.142 0-71.429-31.842-114.281-31.842-28.572 0-42.858 31.842-71.429 31.842-57.142 0-71.429-31.842-114.281-31.842-28.573 0-42.858 31.842-71.429 31.842-57.142 0-71.43-31.842-114.291-31.842-28.585 0-37.157 22.69-54.3 22.69v40.994c17.143 0 25.714-22.69 54.286-22.69 42.857 0 57.143 31.842 114.291 31.842 28.571 0 42.856-31.842 71.429-31.842 42.856 0 57.142 31.842 114.281 31.842 28.571 0 42.857-31.842 71.429-31.842 42.857 0 57.142 31.842 114.281 31.842 28.571 0 42.857-31.842 71.429-31.842 42.857 0 57.142 31.842 114.281 31.842 28.571 0 42.857-31.842 71.425-31.842 42.858 0 57.146 31.842 114.281 31.842 28.577 0 37.819-9.023 48.576-15.495v-47.095zM0 .059h244.978v148.041h-244.978z" fill-rule="evenodd" fill="#000063"/><path d="M0 .059v16.551l217.591 131.487h27.389v-16.551l-217.591-131.486h-27.389zm244.98 0v16.551l-217.591 131.485h-27.389v-16.551l217.591-131.484h27.389zM102.075.059v148.036h40.83v-148.036h-40.83zm-102.075 49.345v49.345h244.98v-49.345h-244.98z" fill="#fff"/><path d="M0 59.273v29.607h244.98v-29.606h-244.98zm110.241-59.214v148.036h24.499v-148.036h-24.499zm-110.241 148.036l81.66-49.345h18.259l-81.66 49.345h-18.259zm0-148.036l81.66 49.345h-18.259l-63.401-38.311v-11.034zm145.061 49.345l81.66-49.345h18.259l-81.66 49.345h-18.259zm99.919 98.691l-81.66-49.345h18.259l63.401 38.312v11.034z" fill="#c00"/><path d="M814.96-301.18l-17.72 708.66c0 37.298 80.097 37.298 88.583 0l-17.717-708.66h-53.149z" fill-rule="evenodd" transform="matrix(.193 0 0 .46 198.512 250.855)" stroke="#fff" stroke-width="6.935" fill="#a24300"/><path d="M496.06 549.21l17.717 70.866 35.433-53.15-17.717 88.583 35.433-35.433-35.433 88.582 35.433-35.433-35.433 88.583 35.433-35.433-35.433 106.3 35.433-35.433-35.433 106.3 35.433-35.433-35.433 106.3-17.716 53.151-17.717 17.72-17.717-17.72-17.716-53.151-35.433-106.3 35.433 35.433-35.433-106.3 35.433 35.433-35.433-106.3 35.433 35.433-35.433-88.583 35.433 35.433-35.433-88.582 35.433 35.433-17.717-88.583 35.433 53.15 17.717-70.866z" fill-rule="evenodd" transform="matrix(-.22 .063 -.097 -.183 554.653 302.551)" stroke="#fff" stroke-width="8.25" fill="#006d00"/><path d="M496.06 549.21v496.07m-70.86-177.17l70.86 106.3 70.87-106.3M425.2 797.24l70.866 106.3 70.866-106.3M425.2 726.38l70.866 106.3 70.866-106.3M425.2 673.23l70.866 88.583 70.866-88.583M425.2 620.08l70.866 88.582 70.866-88.582M442.91 566.93l53.15 106.3 53.15-106.3" transform="matrix(-.22 .063 -.097 -.183 554.653 302.551)" stroke="#000" stroke-width="1pt" fill="none"/><path d="M496.06 549.21l17.717 70.866 35.433-53.15-17.717 88.583 35.433-35.433-35.433 88.582 35.433-35.433-35.433 88.583 35.433-35.433-35.433 106.3 35.433-35.433-35.433 106.3 35.433-35.433-35.433 106.3-17.716 53.151-17.717 17.72-17.717-17.72-17.716-53.151-35.433-106.3 35.433 35.433-35.433-106.3 35.433 35.433-35.433-106.3 35.433 35.433-35.433-88.583 35.433 35.433-35.433-88.582 35.433 35.433-17.717-88.583 35.433 53.15 17.717-70.866z" fill-rule="evenodd" transform="matrix(.166 -.17 .207 .137 69.257 87.727)" stroke="#fff" stroke-width="8.25" fill="#006d00"/><path d="M496.06 549.21v496.07m-70.86-177.17l70.86 106.3 70.87-106.3M425.2 797.24l70.866 106.3 70.866-106.3M425.2 726.38l70.866 106.3 70.866-106.3M425.2 673.23l70.866 88.583 70.866-88.583M425.2 620.08l70.866 88.582 70.866-88.582M442.91 566.93l53.15 106.3 53.15-106.3" transform="matrix(.166 -.17 .207 .137 69.257 87.727)" stroke="#000" stroke-width="1pt" fill="none"/><path d="M496.06 549.21l17.717 70.866 35.433-53.15-17.717 88.583 35.433-35.433-35.433 88.582 35.433-35.433-35.433 88.583 35.433-35.433-35.433 106.3 35.433-35.433-35.433 106.3 35.433-35.433-35.433 106.3-17.716 53.151-17.717 17.72-17.717-17.72-17.716-53.151-35.433-106.3 35.433 35.433-35.433-106.3 35.433 35.433-35.433-106.3 35.433 35.433-35.433-88.583 35.433 35.433-35.433-88.582 35.433 35.433-17.717-88.583 35.433 53.15 17.717-70.866z" fill-rule="evenodd" transform="matrix(.107 .203 -.234 .101 545.687 -54.198)" stroke="#fff" stroke-width="8.25" fill="#006d00"/><path d="M496.06 549.21v496.07m-70.86-177.17l70.86 106.3 70.87-106.3M425.2 797.24l70.866 106.3 70.866-106.3M425.2 726.38l70.866 106.3 70.866-106.3M425.2 673.23l70.866 88.583 70.866-88.583M425.2 620.08l70.866 88.582 70.866-88.582M442.91 566.93l53.15 106.3 53.15-106.3" transform="matrix(.107 .203 -.234 .101 545.687 -54.198)" stroke="#000" stroke-width="1pt" fill="none"/><path d="M496.06 549.21l17.717 70.866 35.433-53.15-17.717 88.583 35.433-35.433-35.433 88.582 35.433-35.433-35.433 88.583 35.433-35.433-35.433 106.3 35.433-35.433-35.433 106.3 35.433-35.433-35.433 106.3-17.716 53.151-17.717 17.72-17.717-17.72-17.716-53.151-35.433-106.3 35.433 35.433-35.433-106.3 35.433 35.433-35.433-106.3 35.433 35.433-35.433-88.583 35.433 35.433-35.433-88.582 35.433 35.433-17.717-88.583 35.433 53.15 17.717-70.866z" fill-rule="evenodd" transform="matrix(-.147 .183 -.221 -.12 662.087 185.535)" stroke="#fff" stroke-width="8.25" fill="#006d00"/><path d="M496.06 549.21v496.07m-70.86-177.17l70.86 106.3 70.87-106.3M425.2 797.24l70.866 106.3 70.866-106.3M425.2 726.38l70.866 106.3 70.866-106.3M425.2 673.23l70.866 88.583 70.866-88.583M425.2 620.08l70.866 88.582 70.866-88.582M442.91 566.93l53.15 106.3 53.15-106.3" transform="matrix(-.147 .183 -.221 -.12 662.087 185.535)" stroke="#000" stroke-width="1pt" fill="none"/><path d="M496.06 549.21l17.717 70.866 35.433-53.15-17.717 88.583 35.433-35.433-35.433 88.582 35.433-35.433-35.433 88.583 35.433-35.433-35.433 106.3 35.433-35.433-35.433 106.3 35.433-35.433-35.433 106.3-17.716 53.151-17.717 17.72-17.717-17.72-17.716-53.151-35.433-106.3 35.433 35.433-35.433-106.3 35.433 35.433-35.433-106.3 35.433 35.433-35.433-88.583 35.433 35.433-35.433-88.582 35.433 35.433-17.717-88.583 35.433 53.15 17.717-70.866z" fill-rule="evenodd" transform="matrix(-.145 -.156 .166 -.142 258.735 371.531)" stroke="#fff" stroke-width="8.25" fill="#006d00"/><path d="M496.06 549.21v496.07m-70.86-177.17l70.86 106.3 70.87-106.3M425.2 797.24l70.866 106.3 70.866-106.3M425.2 726.38l70.866 106.3 70.866-106.3M425.2 673.23l70.866 88.583 70.866-88.583M425.2 620.08l70.866 88.582 70.866-88.582M442.91 566.93l53.15 106.3 53.15-106.3" transform="matrix(-.145 -.156 .166 -.142 258.735 371.531)" stroke="#000" stroke-width="1pt" fill="none"/><path d="M460.63 549.21l28.643 70.866 42.223-53.15-10.184 88.583 27.9-35.433-17.716 88.582 25.249-35.433-25.249 88.583 35.433-35.433-35.433 106.3 35.433-35.433-35.433 106.3 35.433-35.433-35.433 106.3-17.716 53.151-17.717 17.72-17.717-17.72-17.716-53.151-35.433-106.3 35.433 35.433-35.433-106.3 35.433 35.433-35.433-106.3 35.433 35.433-45.617-88.583 45.617 35.433-53.15-88.582 42.966 35.433-25.25-88.583 35.433 53.15.001-70.866z" fill-rule="evenodd" transform="matrix(-.254 -.06 -.147 .191 641.705 -30.232)" stroke="#fff" stroke-width="8.25" fill="#006d00"/><path d="M467.21 584.65l28.855 124.02v336.62M436.23 885.83l59.833 88.582 60.682-88.582M434.53 814.96l61.53 88.582 60.682-88.582M435.38 744.1l60.682 88.582 59.833-88.582M432.84 690.94l63.228 70.866 53.149-70.866M425.2 637.8l70.866 70.865 45.406-70.865M436.12 593.24l53.15 86.886 35.327-95.478" transform="matrix(-.254 -.06 -.147 .191 641.705 -30.232)" stroke="#000" stroke-width="1pt" fill="none"/><path d="M460.63 549.21l28.643 70.866 42.223-53.15-10.184 88.583 27.9-35.433-17.716 88.582 25.249-35.433-25.249 88.583 35.433-35.433-35.433 106.3 35.433-35.433-35.433 106.3 35.433-35.433-35.433 106.3-17.716 53.151-17.717 17.72-17.717-17.72-17.716-53.151-35.433-106.3 35.433 35.433-35.433-106.3 35.433 35.433-35.433-106.3 35.433 35.433-45.617-88.583 45.617 35.433-53.15-88.582 42.966 35.433-25.25-88.583 35.433 53.15.001-70.866z" fill-rule="evenodd" transform="matrix(.253 .063 .009 .23 225.839 -129.837)" stroke="#fff" stroke-width="8.25" fill="#006d00"/><path d="M467.21 584.65l28.855 124.02v336.62M436.23 885.83l59.833 88.582 60.682-88.582M434.53 814.96l61.53 88.582 60.682-88.582M435.38 744.1l60.682 88.582 59.833-88.582M432.84 690.94l63.228 70.866 53.149-70.866M425.2 637.8l70.866 70.865 45.406-70.865M436.12 593.24l53.15 86.886 35.327-95.478" transform="matrix(.253 .063 .009 .23 225.839 -129.837)" stroke="#000" stroke-width="1pt" fill="none"/><path d="M354.33 531.5l88.583 88.583 17.716-53.149v88.582l35.433-35.433-17.716 88.583 35.432-35.434-17.716 88.584 35.433-35.433-17.716 106.3 35.433-35.433-35.433 106.3 35.433-35.433-17.717 106.3-17.716 53.151-17.717 17.72-17.717-17.72-17.716-53.151-53.15-82.294 35.434 11.429-35.433-106.3 35.433 35.433-53.15-106.3 35.433 35.433-53.15-88.584 53.15 35.434-70.866-88.583 53.149 35.433-70.866-70.866 70.866 35.433-53.149-88.583z" fill-rule="evenodd" transform="matrix(.033 -.22 .229 .039 108.303 215.307)" stroke="#fff" stroke-width="8.25" fill="#006d00"/><path d="M378.96 560.02l63.952 95.497 17.716 53.15 8.859 45.205 8.858 78.811 9.315 70.866 8.401 141.74M425.2 903.54l63.665 70.866 50.749-88.583M417.08 814.96l70.579 88.583 50.75-88.583M407.48 752.44l70.867 80.235 45.948-88.583m-152.245-106.292l88.583 70.866 25.831-70.866M360.62 602.36l82.296 53.149 10.515-53.149m-63.671 88.58l81.095 70.866 33.946-70.866" transform="matrix(.033 -.22 .229 .039 108.303 215.307)" stroke="#000" stroke-width="1pt" fill="none"/><g fill-rule="evenodd"><path d="M541.46 1173.3l-1.7-229.13-61.1-106.94c-15.277-52.618-7.754-78.079 16.973-79.776 24.728-1.698 49.224 13.579 84.868 15.276 35.645 1.697 28.856-59.408 81.474-57.71 52.618 1.697 144.28 32.25 222.36 37.342 78.078 5.092 118.81-27.158 208.77-30.553 89.97-3.395 113.73 42.435 118.82 42.435s30.55-18.672 56.01-22.066c25.46-3.395 33.95 10.184 33.95 10.184s-1.7 57.71-13.58 91.657c-11.88 33.948-54.32 89.961-56.01 89.961-1.7 0-15.28 249.52-15.28 251.21 0 1.7-675.55-6.79-675.55-11.88z" stroke="#000" stroke-width="1pt" fill="#c00" transform="matrix(.129 0 0 .118 249.846 195.282)"/><g stroke="#000" stroke-width="1pt"><path d="M408.553 305.933s8.702-6.147 8.936-20.906c.135-8.488-4.401-14.634-15.739-14.634-15.875 0-38.551 6.272-38.551 6.272v2.091s18.141-6.272 38.551-6.272c9.071 0 13.606 6.146 13.606 12.418 0 10.453-9.071 21.031-9.071 21.031v16.724h2.268v-16.724z" fill="#fff100"/><path d="M413.304 301.55c0 1.155 1.015 2.091 2.268 2.091 1.252 0 2.268-.936 2.268-2.091 0-1.155-1.015-2.091-2.268-2.091-1.252 0-2.268.936-2.268 2.091zM415.572 296.774c0 1.155 1.015 2.091 2.268 2.091 1.252 0 2.268-.936 2.268-2.091 0-1.155-1.015-2.091-2.268-2.091-1.252 0-2.268.936-2.268 2.091zM416.754 291.91c0 1.155 1.015 2.091 2.268 2.091 1.252 0 2.268-.936 2.268-2.091 0-1.155-1.015-2.091-2.268-2.091-1.252 0-2.268.936-2.268 2.091zM417.624 286.708c0 1.155 1.015 2.091 2.268 2.091 1.252 0 2.268-.936 2.268-2.091 0-1.155-1.015-2.091-2.268-2.091-1.252 0-2.268.936-2.268 2.091zM417.407 281.068c0 1.155 1.015 2.091 2.268 2.091 1.252 0 2.268-.936 2.268-2.091 0-1.155-1.015-2.091-2.268-2.091-1.252 0-2.268.936-2.268 2.091zM410.043 305.752c0 1.155 1.015 2.091 2.268 2.091 1.252 0 2.268-.936 2.268-2.091 0-1.155-1.015-2.091-2.268-2.091-1.252 0-2.268.936-2.268 2.091zM415.478 275.741c0 1.155 1.015 2.091 2.268 2.091 1.252 0 2.268-.936 2.268-2.091 0-1.155-1.015-2.091-2.268-2.091-1.252 0-2.268.936-2.268 2.091zM411.348 271.54c0 1.155 1.015 2.091 2.268 2.091 1.252 0 2.268-.936 2.268-2.091 0-1.155-1.015-2.091-2.268-2.091-1.252 0-2.268.936-2.268 2.091zM405.697 268.74c0 1.155 1.015 2.091 2.268 2.091 1.252 0 2.268-.936 2.268-2.091 0-1.155-1.015-2.091-2.268-2.091-1.252 0-2.268.936-2.268 2.091zM400.045 268.338c0 1.155 1.015 2.091 2.268 2.091 1.252 0 2.268-.936 2.268-2.091 0-1.155-1.015-2.091-2.268-2.091-1.252 0-2.268.936-2.268 2.091zM393.96 268.539c0 1.155 1.015 2.091 2.268 2.091 1.252 0 2.268-.936 2.268-2.091 0-1.155-1.015-2.091-2.268-2.091-1.252 0-2.268.936-2.268 2.091zM387.874 269.339c0 1.155 1.015 2.091 2.268 2.091 1.252 0 2.268-.936 2.268-2.091 0-1.155-1.015-2.091-2.268-2.091-1.252 0-2.268.936-2.268 2.091zM381.787 270.14c0 1.155 1.015 2.091 2.268 2.091 1.252 0 2.268-.936 2.268-2.091 0-1.155-1.015-2.091-2.268-2.091-1.252 0-2.268.936-2.268 2.091zM375.267 271.139c0 1.155 1.015 2.091 2.268 2.091 1.252 0 2.268-.936 2.268-2.091 0-1.155-1.015-2.091-2.268-2.091-1.252 0-2.268.936-2.268 2.091zM369.616 272.541c0 1.155 1.015 2.091 2.268 2.091 1.252 0 2.268-.936 2.268-2.091 0-1.155-1.015-2.091-2.268-2.091-1.252 0-2.268.936-2.268 2.091z" fill="#fff"/></g><path d="M478.35 549.21c0 9.785-7.932 17.717-17.717 17.717-9.785 0-17.717-7.932-17.717-17.717 0-9.785 7.932-17.717 17.717-17.717 9.785 0 17.717 7.932 17.717 17.717z" transform="matrix(.129 0 0 .118 251.898 236.869)" stroke="#000" stroke-width="1pt" fill="#fff"/><path d="M478.35 549.21c0 9.785-7.932 17.717-17.717 17.717-9.785 0-17.717-7.932-17.717-17.717 0-9.785 7.932-17.717 17.717-17.717 9.785 0 17.717 7.932 17.717 17.717z" transform="matrix(.129 0 0 .118 249.628 232.091)" stroke="#000" stroke-width="1pt" fill="#fff"/><path d="M478.35 549.21c0 9.785-7.932 17.717-17.717 17.717-9.785 0-17.717-7.932-17.717-17.717 0-9.785 7.932-17.717 17.717-17.717 9.785 0 17.717 7.932 17.717 17.717z" transform="matrix(.129 0 0 .118 248.445 227.224)" stroke="#000" stroke-width="1pt" fill="#fff"/><path d="M478.35 549.21c0 9.785-7.932 17.717-17.717 17.717-9.785 0-17.717-7.932-17.717-17.717 0-9.785 7.932-17.717 17.717-17.717 9.785 0 17.717 7.932 17.717 17.717z" transform="matrix(.129 0 0 .118 247.576 222.019)" stroke="#000" stroke-width="1pt" fill="#fff"/><path d="M478.35 549.21c0 9.785-7.932 17.717-17.717 17.717-9.785 0-17.717-7.932-17.717-17.717 0-9.785 7.932-17.717 17.717-17.717 9.785 0 17.717 7.932 17.717 17.717z" transform="matrix(.129 0 0 .118 247.793 216.376)" stroke="#000" stroke-width="1pt" fill="#fff"/><path d="M478.35 549.21c0 9.785-7.932 17.717-17.717 17.717-9.785 0-17.717-7.932-17.717-17.717 0-9.785 7.932-17.717 17.717-17.717 9.785 0 17.717 7.932 17.717 17.717z" transform="matrix(.129 0 0 .118 249.724 211.046)" stroke="#000" stroke-width="1pt" fill="#fff"/><path d="M478.35 549.21c0 9.785-7.932 17.717-17.717 17.717-9.785 0-17.717-7.932-17.717-17.717 0-9.785 7.932-17.717 17.717-17.717 9.785 0 17.717 7.932 17.717 17.717z" transform="matrix(.129 0 0 .118 253.856 206.843)" stroke="#000" stroke-width="1pt" fill="#fff"/><path d="M478.35 549.21c0 9.785-7.932 17.717-17.717 17.717-9.785 0-17.717-7.932-17.717-17.717 0-9.785 7.932-17.717 17.717-17.717 9.785 0 17.717 7.932 17.717 17.717z" transform="matrix(.129 0 0 .118 259.509 204.04)" stroke="#000" stroke-width="1pt" fill="#fff"/><path d="M478.35 549.21c0 9.785-7.932 17.717-17.717 17.717-9.785 0-17.717-7.932-17.717-17.717 0-9.785 7.932-17.717 17.717-17.717 9.785 0 17.717 7.932 17.717 17.717z" transform="matrix(.129 0 0 .118 265.163 203.64)" stroke="#000" stroke-width="1pt" fill="#fff"/><path d="M478.35 549.21c0 9.785-7.932 17.717-17.717 17.717-9.785 0-17.717-7.932-17.717-17.717 0-9.785 7.932-17.717 17.717-17.717 9.785 0 17.717 7.932 17.717 17.717z" transform="matrix(.129 0 0 .118 271.252 203.841)" stroke="#000" stroke-width="1pt" fill="#fff"/><path d="M478.35 549.21c0 9.785-7.932 17.717-17.717 17.717-9.785 0-17.717-7.932-17.717-17.717 0-9.785 7.932-17.717 17.717-17.717 9.785 0 17.717 7.932 17.717 17.717z" transform="matrix(.129 0 0 .118 277.342 204.642)" stroke="#000" stroke-width="1pt" fill="#fff"/><path d="M478.35 549.21c0 9.785-7.932 17.717-17.717 17.717-9.785 0-17.717-7.932-17.717-17.717 0-9.785 7.932-17.717 17.717-17.717 9.785 0 17.717 7.932 17.717 17.717z" transform="matrix(.129 0 0 .118 283.432 205.442)" stroke="#000" stroke-width="1pt" fill="#fff"/><path d="M478.35 549.21c0 9.785-7.932 17.717-17.717 17.717-9.785 0-17.717-7.932-17.717-17.717 0-9.785 7.932-17.717 17.717-17.717 9.785 0 17.717 7.932 17.717 17.717z" transform="matrix(.129 0 0 .118 289.955 206.443)" stroke="#000" stroke-width="1pt" fill="#fff"/><path d="M478.35 549.21c0 9.785-7.932 17.717-17.717 17.717-9.785 0-17.717-7.932-17.717-17.717 0-9.785 7.932-17.717 17.717-17.717 9.785 0 17.717 7.932 17.717 17.717z" transform="matrix(.129 0 0 .118 295.61 207.845)" stroke="#000" stroke-width="1pt" fill="#fff"/><path d="M478.35 549.21c0 9.785-7.932 17.717-17.717 17.717-9.785 0-17.717-7.932-17.717-17.717 0-9.785 7.932-17.717 17.717-17.717 9.785 0 17.717 7.932 17.717 17.717z" transform="matrix(.129 0 0 .118 255.16 241.074)" stroke="#000" stroke-width="1pt" fill="#fff"/><path d="M531.5 584.65s-67.982-52.097-69.813-177.17c-1.053-71.929 34.38-124.02 122.96-124.02 124.02 0 301.18 53.149 301.18 53.149v17.717s-141.73-53.15-301.18-53.15c-70.866 0-106.3 52.087-106.3 105.24 0 88.583 70.867 178.23 70.867 178.23v141.73h-17.717v-141.73z" transform="matrix(.129 0 0 .118 249.846 237.07)" stroke="#000" stroke-width="1pt" fill="#fff100"/><path d="M1240.2 531.5s15.35-35.433 70.86-35.433c37.79 0 70.87 35.433 70.87 70.866v70.866h35.43v-70.866c0-35.47 35.44-70.866 70.87-70.866 53.15 0 70.87 35.433 70.87 35.433s0-106.3-70.87-106.3c-53.15 0-70.87 35.433-70.87 35.433s17.72-53.15 17.72-106.3l-35.43-88.583c0 6.79-35.44 35.433-35.44 88.583 0 53.149 17.72 106.3 17.72 106.3s-17.72-35.433-70.87-35.433c-70.86 0-70.86 106.3-70.86 106.3z" transform="matrix(.043 0 0 .045 280.868 289.902)" stroke="#000" stroke-width="2.991" fill="#fff100"/><path d="M1240.2 531.5s15.35-35.433 70.86-35.433c37.79 0 70.87 35.433 70.87 70.866v70.866h35.43v-70.866c0-35.47 35.44-70.866 70.87-70.866 53.15 0 70.87 35.433 70.87 35.433s0-106.3-70.87-106.3c-53.15 0-70.87 35.433-70.87 35.433s17.72-53.15 17.72-106.3l-35.43-88.583c0 6.79-35.44 35.433-35.44 88.583 0 53.149 17.72 106.3 17.72 106.3s-17.72-35.433-70.87-35.433c-70.86 0-70.86 106.3-70.86 106.3z" transform="matrix(.043 0 0 .045 326.265 289.902)" stroke="#000" stroke-width="2.991" fill="#fff100"/><path d="M531.5 832.68v-159.45s35.433 53.15 88.583 53.15c43.489 0 88.582-70.866 88.582-70.866s41.515 53.149 88.583 53.149c42.021 0 88.516-68.572 88.516-68.572s43.207 68.572 88.649 68.572c45.441 0 88.581-53.149 88.581-53.149s46.29 70.866 106.3 70.866c53.15 0 70.87-53.15 70.87-53.15v159.45h-708.66z" transform="matrix(.129 0 0 .118 249.846 237.07)" stroke="#000" stroke-width="1pt" fill="#fff100"/><path d="M708.66 832.68v-124.02s106.3 35.433 106.3 124.02h-106.3z" transform="matrix(.129 0 0 .118 227.146 237.07)" stroke="#000" stroke-width="1pt" fill="#fff100"/><path d="M708.66 832.68v-124.02s106.3 35.433 106.3 124.02h-106.3z" transform="matrix(-.129 0 0 .118 499.529 237.07)" stroke="#000" stroke-width="1pt" fill="#fff100"/><path d="M602.36 832.68c0-88.583 106.37-144.6 106.37-144.6s106.23 56.016 106.23 144.6h-212.6z" transform="matrix(.129 0 0 .118 249.846 237.07)" stroke="#000" stroke-width="1pt" fill="#fff100"/><path d="M602.36 832.68c0-88.583 106.37-144.6 106.37-144.6s106.23 56.016 106.23 144.6h-212.6z" transform="matrix(.129 0 0 .118 295.243 237.07)" stroke="#000" stroke-width="1pt" fill="#fff100"/><path d="M584.65 847.53c0-88.583 124.08-159.45 124.08-159.45s123.95 70.866 123.95 159.45h-248.03z" transform="matrix(.129 0 0 .118 272.543 235.319)" stroke="#000" stroke-width="1pt" fill="#fff100"/><path d="M1275.6 655.51c-35.43-17.716-166.02-35.433-376.28-35.433s-350.1 17.717-385.53 35.433c-35.434 17.717-35.434 53.149-.001 70.866 35.433 17.716 175.28 35.433 385.54 35.433s340.84-17.716 376.28-35.433c35.43-17.716 35.43-53.149 0-70.866z" transform="matrix(.127 0 0 .118 249.412 257.964)" stroke="#000" stroke-width="1pt" fill="#fff"/><path d="M408.522 343.446c0 4.177-37.74 4.177-45.374 4.177-8.247 0-45.373 1.132-45.373-4.177 0-4.177 37.432-4.177 45.373-4.177 7.941 0 45.374.849 45.374 4.177z" fill="#808080"/><path d="M322.31 328.446c0 1.365-1.016 2.471-2.269 2.471-1.253 0-2.269-1.106-2.269-2.471s1.015-2.472 2.269-2.472c1.253 0 2.269 1.106 2.269 2.472zm86.209 0c0 1.365-1.015 2.471-2.269 2.471-1.253 0-2.269-1.106-2.269-2.471s1.016-2.472 2.269-2.472c1.253 0 2.269 1.106 2.269 2.472z" fill="#c00"/><path d="M367.683 327.124c0 1.365-2.032 2.471-4.537 2.471s-4.537-1.106-4.537-2.471 2.032-2.471 4.537-2.471 4.537 1.106 4.537 2.471z"/><path d="M389.447 327.124c0 1.365-1.523 2.471-3.403 2.471-1.879 0-3.403-1.106-3.403-2.471s1.524-2.471 3.403-2.471c1.88 0 3.403 1.106 3.403 2.471zm-46.719 0c0 1.365-1.524 2.471-3.403 2.471-1.88 0-3.403-1.106-3.403-2.471s1.523-2.471 3.403-2.471c1.879 0 3.403 1.106 3.403 2.471z" fill="#006300"/><path d="M1257.9 496.06s35.44-53.15 70.87-53.15h35.43v35.433c0 53.15-53.15 70.867-53.15 70.867h141.74s-53.15-17.717-53.15-70.867v-35.433h35.43c35.43 0 70.87 53.15 70.87 53.15v-141.73s-35.44 53.15-70.87 53.15h-35.43v-35.433c0-53.15 53.15-70.867 53.15-70.867h-141.74s53.15 17.717 53.15 70.867v35.433h-35.43c-35.43 0-70.87-53.15-70.87-53.15v141.73z" transform="matrix(.073 0 0 .068 262.171 279.455)" stroke="#000" stroke-width="2.188" fill="#fff100"/><path d="M1381.9 549.21l70.87.001s-53.15-17.717-53.15-70.867v-35.433h35.43c35.43 0 70.87 53.15 70.87 53.15v-141.73s-35.44 53.15-70.87 53.15h-35.43v-35.433c0-53.15 53.15-70.867 53.15-70.867h-70.87v248.03z" transform="matrix(.037 0 0 .059 267.358 288.261)" stroke="#000" stroke-width="3.307" fill="#fff100"/><path d="M1381.9 549.21l70.87.001s-53.15-17.717-53.15-70.867v-35.433h35.43c35.43 0 70.87 53.15 70.87 53.15v-141.73s-35.44 53.15-70.87 53.15h-35.43v-35.433c0-53.15 53.15-70.867 53.15-70.867h-70.87v248.03z" transform="matrix(-.037 0 0 .059 459.325 288.261)" stroke="#000" stroke-width="3.307" fill="#fff100"/><path d="M903.54 602.36c0 9.785-7.932 17.717-17.717 17.717-9.785 0-17.717-7.932-17.717-17.717 0-9.785 7.932-17.717 17.717-17.717 9.785 0 17.717 7.932 17.717 17.717z" transform="matrix(.129 0 0 .118 249.846 237.07)" stroke="#000" stroke-width="1pt" fill="#fff"/><path d="M1257.9 496.06s35.44-53.15 70.87-53.15h35.43v35.433c0 53.15-53.15 70.867-53.15 70.867h141.74s-53.15-17.717-53.15-70.867v-35.433h35.43c35.43 0 70.87 53.15 70.87 53.15v-141.73s-35.44 53.15-70.87 53.15h-35.43v-35.433c0-53.15 53.15-70.867 53.15-70.867h-141.74s53.15 17.717 53.15 70.867v35.433h-35.43c-35.43 0-70.87-53.15-70.87-53.15v141.73z" transform="matrix(.073 0 0 .068 262.171 235.579)" stroke="#000" stroke-width="2.188" fill="#fff100"/><path d="M903.54 602.36c0 9.785-7.932 17.717-17.717 17.717-9.785 0-17.717-7.932-17.717-17.717 0-9.785 7.932-17.717 17.717-17.717 9.785 0 17.717 7.932 17.717 17.717z" transform="matrix(.129 0 0 .118 250.063 193.543)" stroke="#000" stroke-width="1pt" fill="#fff"/><path stroke="#000" stroke-width="1pt" fill="#fff100" d="M850.39 655.51h70.866v53.15h-70.866zM850.39 683.3h70.866v202.53h-70.866z" transform="matrix(.129 0 0 .118 249.846 195.282)"/><path d="M478.35 549.21c0 9.785-7.932 17.717-17.717 17.717-9.785 0-17.717-7.932-17.717-17.717 0-9.785 7.932-17.717 17.717-17.717 9.785 0 17.717 7.932 17.717 17.717z" transform="matrix(.129 0 0 .118 304.323 230.801)" stroke="#000" stroke-width="1pt" fill="#fff"/><path d="M478.35 549.21c0 9.785-7.932 17.717-17.717 17.717-9.785 0-17.717-7.932-17.717-17.717 0-9.785 7.932-17.717 17.717-17.717 9.785 0 17.717 7.932 17.717 17.717z" transform="matrix(.129 0 0 .118 304.323 225.397)" stroke="#000" stroke-width="1pt" fill="#fff"/><path d="M478.35 549.21c0 9.785-7.932 17.717-17.717 17.717-9.785 0-17.717-7.932-17.717-17.717 0-9.785 7.932-17.717 17.717-17.717 9.785 0 17.717 7.932 17.717 17.717z" transform="matrix(.129 0 0 .118 304.323 220.355)" stroke="#000" stroke-width="1pt" fill="#fff"/><path d="M478.35 549.21c0 9.785-7.932 17.717-17.717 17.717-9.785 0-17.717-7.932-17.717-17.717 0-9.785 7.932-17.717 17.717-17.717 9.785 0 17.717 7.932 17.717 17.717z" transform="matrix(.129 0 0 .118 304.323 215.151)" stroke="#000" stroke-width="1pt" fill="#fff"/><path d="M367.964 335.139c0 .938-2.064 1.697-4.611 1.697s-4.611-.759-4.611-1.697 2.064-1.698 4.611-1.698c2.547 0 4.611.759 4.611 1.697zm41.784 4.145c-.255.642-2.501.696-5.016.119s-4.348-1.566-4.093-2.208c.256-.643 2.501-.697 5.016-.12 2.516.578 4.348 1.566 4.093 2.209zm-17.464-2.816c-.101.827-2.287 1.35-4.881 1.169-2.595-.182-4.617-.998-4.516-1.825.101-.827 2.287-1.35 4.881-1.169 2.595.181 4.617.998 4.516 1.825zm-76.753 2.816c.255.642 2.501.696 5.016.119s4.348-1.566 4.093-2.208c-.256-.643-2.501-.697-5.016-.12-2.516.578-4.348 1.566-4.093 2.209zm18.338-3.217c.101.827 2.287 1.35 4.881 1.169 2.595-.181 4.617-.998 4.516-1.825-.101-.827-2.287-1.35-4.882-1.169-2.594.181-4.616.998-4.515 1.825z"/></g></g></svg>