<svg xmlns="http://www.w3.org/2000/svg" height="480" width="640" viewBox="0 0 640 480"><defs><clipPath id="a"><path fill-opacity=".67" d="M-85.311 0h682.67v512h-682.67z"/></clipPath></defs><g clip-path="url(#a)" fill-rule="evenodd"><path fill="#fff" d="M-100.078 0h840.448v480.256h-840.448z"/><path fill="#da0000" d="M-100.078 322.522h840.448v157.734h-840.448z"/><g fill="#fff"><path d="M59.693 329.199h46.028v3.168h-46.028zm6.862 15.837h3.168v3.077h-3.168zm39.285-.099v3.168h-9.199v-3.168zm4.947-15.738h3.168v18.91h-3.168zM129.112 344.936v3.168h-17.433v-3.168zm-32.47-7.398h3.168v10.571h-3.168zM126.518 329.199h3.168v18.91h-3.168zm-7.919 0h3.168v18.91h-3.168zm-42.021 7.527v3.168h-16.8v-3.168zm36.863 0v3.168h-16.8v-3.168zM96.642 337.538h3.168v10.571h-3.168zM96.642 337.538h3.168v10.571h-3.168zM96.642 337.538h3.168v10.571h-3.168zm-36.863 0h3.168v10.571h-3.168zm27.021 0h3.167v10.571h-3.167zm-13.387 0h3.168v10.571h-3.168zM89.021 344.936v3.168h-14.201v-3.168zm.945-8.211v3.168h-9.003v-3.168z"/></g><g fill="#fff"><path d="M-15.91 329.199h46.028v3.168h-46.028zm6.862 15.837h3.168v3.077h-3.168zm39.285-.099v3.168h-9.199v-3.168zm4.947-15.738h3.168v18.91h-3.168zM53.509 344.936v3.168h-17.433v-3.168zm-32.47-7.398h3.168v10.571h-3.168zM50.915 329.199h3.168v18.91h-3.168zm-7.919 0h3.168v18.91h-3.168zm-42.021 7.527v3.168h-16.8v-3.168zm36.863 0v3.168h-16.8v-3.168zM21.039 337.538h3.168v10.571h-3.168zM21.039 337.538h3.168v10.571h-3.168zM21.039 337.538h3.168v10.571h-3.168zm-36.863 0h3.168v10.571h-3.168zm27.021 0h3.167v10.571h-3.168zm-13.387 0h3.168v10.571h-3.168zM13.419 344.936v3.168h-14.201v-3.168zm.945-8.211v3.168h-9.003v-3.168z"/></g><g fill="#fff"><path d="M134.663 329.199h46.028v3.168h-46.028zm6.862 15.837h3.167v3.077h-3.167zm39.284-.099v3.168h-9.199v-3.168zm4.948-15.738h3.168v18.91h-3.168zM204.08 344.936v3.168h-17.431v-3.168zm-32.47-7.398h3.168v10.571h-3.168zM201.488 329.199h3.168v18.91h-3.168zm-7.919 0h3.168v18.91h-3.168zm-42.021 7.527v3.168h-16.8v-3.168zm36.862 0v3.168h-16.8v-3.168zM171.61 337.538h3.168v10.571h-3.168zM171.61 337.538h3.168v10.571h-3.168zM171.61 337.538h3.168v10.571h-3.168zm-36.862 0h3.168v10.571h-3.168zm27.02 0h3.168v10.571h-3.168zm-13.387 0h3.169v10.571h-3.168zM163.99 344.936v3.168h-14.201v-3.168zm.945-8.211v3.168h-9.003v-3.168z"/></g><g fill="#fff"><path d="M664.056 329.199h46.028v3.168h-46.028zm6.862 15.837h3.168v3.077h-3.168zm39.285-.099v3.168h-9.199v-3.168zm4.947-15.738h3.168v18.91h-3.168zM733.474 344.936v3.168h-17.433v-3.168zm-32.47-7.398h3.168v10.571h-3.168zM730.881 329.199h3.168v18.91h-3.168zm-7.919 0h3.168v18.91h-3.168zm-42.021 7.527v3.168h-16.8v-3.168zm36.863 0v3.168h-16.8v-3.168zM701.004 337.538h3.168v10.571h-3.168zM701.004 337.538h3.168v10.571h-3.168zM701.004 337.538h3.168v10.571h-3.168zm-36.863 0h3.168v10.571h-3.168zm27.021 0h3.167v10.571h-3.168zm-13.387 0h3.168v10.571h-3.168zM693.384 344.936v3.168h-14.201v-3.168zm.945-8.211v3.168h-9.003v-3.168z"/></g><g fill="#fff"><path d="M210.12 329.199h46.028v3.168h-46.028zm6.862 15.837h3.168v3.077h-3.168zm39.285-.099v3.168h-9.199v-3.168zm4.947-15.738h3.168v18.91h-3.168zM279.539 344.936v3.168h-17.433v-3.168zm-32.47-7.398h3.168v10.571h-3.168zM276.945 329.199h3.168v18.91h-3.168zm-7.919 0h3.168v18.91h-3.168zm-42.021 7.527v3.168h-16.8v-3.168zm36.863 0v3.168h-16.8v-3.168zM247.069 337.538h3.168v10.571h-3.168zM247.069 337.538h3.168v10.571h-3.168zM247.069 337.538h3.168v10.571h-3.168zm-36.863 0h3.168v10.571h-3.168zm27.021 0h3.167v10.571h-3.168zm-13.387 0h3.168v10.571h-3.168zM239.448 344.936v3.168h-14.201v-3.168zm.945-8.211v3.168h-9.003v-3.168z"/></g><g fill="#fff"><path d="M285.854 329.199h46.028v3.168h-46.028zm6.862 15.837h3.168v3.077h-3.168zm39.285-.099v3.168h-9.199v-3.168zm4.947-15.738h3.168v18.91h-3.168zM355.273 344.936v3.168h-17.433v-3.168zm-32.47-7.398h3.168v10.571h-3.168zM352.679 329.199h3.168v18.91h-3.168zm-7.919 0h3.168v18.91h-3.168zm-42.021 7.527v3.168h-16.8v-3.168zm36.863 0v3.168h-16.8v-3.168zM322.803 337.538h3.168v10.571h-3.168zM322.803 337.538h3.168v10.571h-3.168zM322.803 337.538h3.168v10.571h-3.168zm-36.863 0h3.168v10.571h-3.168zm27.021 0h3.167v10.571h-3.168zm-13.387 0h3.168v10.571h-3.168zM315.183 344.936v3.168h-14.201v-3.168zm.945-8.211v3.168h-9.003v-3.168z"/></g><path fill="#239f40" d="M-100.078 0h840.448v157.734h-840.448z"/><g fill="#fff"><path d="M362.029 329.199h46.028v3.168h-46.028zm6.862 15.837h3.168v3.077h-3.168zm39.285-.099v3.168h-9.199v-3.168zm4.947-15.738h3.168v18.91h-3.168zM431.448 344.936v3.168h-17.433v-3.168zm-32.47-7.398h3.168v10.571h-3.168zM428.854 329.199h3.168v18.91h-3.168zm-7.919 0h3.168v18.91h-3.168zm-42.021 7.527v3.168h-16.8v-3.168zm36.863 0v3.168h-16.8v-3.168zM398.978 337.538h3.168v10.571h-3.168zM398.978 337.538h3.168v10.571h-3.168zM398.978 337.538h3.168v10.571h-3.168zm-36.863 0h3.168v10.571h-3.168zm27.021 0h3.167v10.571h-3.168zm-13.387 0h3.168v10.571h-3.168zM391.358 344.936v3.168h-14.201v-3.168zm.945-8.211v3.168h-9.003v-3.168z"/></g><g fill="#fff"><path d="M437.754 329.199h46.028v3.168h-46.028zm6.862 15.837h3.168v3.077h-3.168zm39.285-.099v3.168h-9.199v-3.168zm4.947-15.738h3.168v18.91h-3.168zM507.172 344.936v3.168h-17.433v-3.168zm-32.47-7.398h3.168v10.571h-3.168zM504.579 329.199h3.168v18.91h-3.168zm-7.919 0h3.168v18.91h-3.168zm-42.021 7.527v3.168h-16.8v-3.168zm36.863 0v3.168h-16.8v-3.168zM474.703 337.538h3.168v10.571h-3.168zM474.703 337.538h3.168v10.571h-3.168zM474.703 337.538h3.168v10.571h-3.168zm-36.863 0h3.168v10.571h-3.168zm27.021 0h3.167v10.571h-3.168zm-13.387 0h3.168v10.571h-3.168zM467.082 344.936v3.168h-14.201v-3.168zm.945-8.211v3.168h-9.003v-3.168z"/></g><g fill="#fff"><path d="M513.488 329.199h46.028v3.168h-46.028zm6.862 15.837h3.168v3.077h-3.168zm39.285-.099v3.168h-9.199v-3.168zm4.947-15.738h3.168v18.91h-3.168zM582.907 344.936v3.168h-17.433v-3.168zm-32.47-7.398h3.168v10.571h-3.168zM580.313 329.199h3.168v18.91h-3.168zm-7.919 0h3.168v18.91h-3.168zm-42.021 7.527v3.168h-16.8v-3.168zm36.863 0v3.168h-16.8v-3.168zM550.437 337.538h3.168v10.571h-3.168zM550.437 337.538h3.168v10.571h-3.168zM550.437 337.538h3.168v10.571h-3.168zm-36.863 0h3.168v10.571h-3.168zm27.021 0h3.167v10.571h-3.168zm-13.387 0h3.168v10.571h-3.168zM542.816 344.936v3.168h-14.201v-3.168zm.945-8.211v3.168h-9.003v-3.168z"/></g><g fill="#fff"><path d="M589.663 329.199h46.028v3.168h-46.028zm6.862 15.837h3.168v3.077h-3.168zm39.285-.099v3.168h-9.199v-3.168zm4.947-15.738h3.168v18.91h-3.168zM659.082 344.936v3.168h-17.433v-3.168zm-32.47-7.398h3.168v10.571h-3.168zM656.488 329.199h3.168v18.91h-3.168zm-7.919 0h3.168v18.91h-3.168zm-42.021 7.527v3.168h-16.8v-3.168zm36.863 0v3.168h-16.8v-3.168zM626.612 337.538h3.168v10.571h-3.168zM626.612 337.538h3.168v10.571h-3.168zM626.612 337.538h3.168v10.571h-3.168zm-36.863 0h3.168v10.571h-3.168zm27.021 0h3.167v10.571h-3.168zm-13.387 0h3.168v10.571h-3.168zM618.991 344.936v3.168h-14.201v-3.168zm.945-8.211v3.168h-9.003v-3.168z"/></g><g fill="#fff"><path d="M-92.413 329.199h46.028v3.168h-46.028zm6.862 15.837h3.168v3.077h-3.168zm39.285-.099v3.168h-9.199v-3.168zm4.947-15.738h3.168v18.91h-3.168zM-22.995 344.936v3.168h-17.433v-3.168zm-32.47-7.398h3.168v10.571h-3.168zM-25.588 329.199h3.168v18.91h-3.168zm-7.919 0h3.168v18.91h-3.168zm-42.021 7.527v3.168h-16.8v-3.168zm36.863 0v3.168h-16.8v-3.168zM-55.464 337.538h3.168v10.571h-3.168zM-55.464 337.538h3.168v10.571h-3.168zM-55.464 337.538h3.168v10.571h-3.168zm-36.863 0h3.168v10.571h-3.168zm27.021 0h3.167v10.571h-3.168zm-13.387 0h3.168v10.571h-3.168zM-63.085 344.936v3.168h-14.201v-3.168zm.945-8.211v3.168h-9.003v-3.168z"/></g><g fill="#fff"><path d="M59.693 134.549h46.028v3.168h-46.028zm6.862 15.837h3.168v3.077h-3.168zm39.285-.099v3.168h-9.199v-3.168zm4.947-15.738h3.168v18.91h-3.168zM129.112 150.286v3.168h-17.433v-3.168zm-32.47-7.398h3.168v10.571h-3.168zM126.518 134.549h3.168v18.91h-3.168zm-7.919 0h3.168v18.91h-3.168zm-42.021 7.527v3.168h-16.8v-3.168zm36.863 0v3.168h-16.8v-3.168zM96.642 142.888h3.168v10.571h-3.168zM96.642 142.888h3.168v10.571h-3.168zM96.642 142.888h3.168v10.571h-3.168zm-36.863 0h3.168v10.571h-3.168zm27.021 0h3.167v10.571h-3.167zm-13.387 0h3.168v10.571h-3.168zM89.021 150.286v3.168h-14.201v-3.168zm.945-8.211v3.168h-9.003v-3.168z"/></g><g fill="#fff"><path d="M-15.91 134.549h46.028v3.168h-46.028zm6.862 15.837h3.168v3.077h-3.168zm39.285-.099v3.168h-9.199v-3.168zm4.947-15.738h3.168v18.91h-3.168zM53.509 150.286v3.168h-17.433v-3.168zm-32.47-7.398h3.168v10.571h-3.168zM50.915 134.549h3.168v18.91h-3.168zm-7.919 0h3.168v18.91h-3.168zm-42.021 7.527v3.168h-16.8v-3.168zm36.863 0v3.168h-16.8v-3.168zM21.039 142.888h3.168v10.571h-3.168zM21.039 142.888h3.168v10.571h-3.168zM21.039 142.888h3.168v10.571h-3.168zm-36.863 0h3.168v10.571h-3.168zm27.021 0h3.167v10.571h-3.168zm-13.387 0h3.168v10.571h-3.168zM13.419 150.286v3.168h-14.201v-3.168zm.945-8.211v3.168h-9.003v-3.168z"/></g><g fill="#fff"><path d="M134.663 134.549h46.028v3.168h-46.028zm6.862 15.837h3.167v3.077h-3.167zm39.284-.099v3.168h-9.199v-3.168zm4.948-15.738h3.168v18.91h-3.168zM204.08 150.286v3.168h-17.431v-3.168zm-32.47-7.398h3.168v10.571h-3.168zM201.488 134.549h3.168v18.91h-3.168zm-7.919 0h3.168v18.91h-3.168zm-42.021 7.527v3.168h-16.8v-3.168zm36.862 0v3.168h-16.8v-3.168zM171.61 142.888h3.168v10.571h-3.168zM171.61 142.888h3.168v10.571h-3.168zM171.61 142.888h3.168v10.571h-3.168zm-36.862 0h3.168v10.571h-3.168zm27.02 0h3.168v10.571h-3.168zm-13.387 0h3.169v10.571h-3.168zM163.99 150.286v3.168h-14.201v-3.168zm.945-8.211v3.168h-9.003v-3.168z"/></g><g fill="#fff"><path d="M664.056 134.549h46.028v3.168h-46.028zm6.862 15.837h3.168v3.077h-3.168zm39.285-.099v3.168h-9.199v-3.168zm4.947-15.738h3.168v18.91h-3.168zM733.474 150.286v3.168h-17.433v-3.168zm-32.47-7.398h3.168v10.571h-3.168zM730.881 134.549h3.168v18.91h-3.168zm-7.919 0h3.168v18.91h-3.168zm-42.021 7.527v3.168h-16.8v-3.168zm36.863 0v3.168h-16.8v-3.168zM701.004 142.888h3.168v10.571h-3.168zM701.004 142.888h3.168v10.571h-3.168zM701.004 142.888h3.168v10.571h-3.168zm-36.863 0h3.168v10.571h-3.168zm27.021 0h3.167v10.571h-3.168zm-13.387 0h3.168v10.571h-3.168zM693.384 150.286v3.168h-14.201v-3.168zm.945-8.211v3.168h-9.003v-3.168z"/></g><g fill="#fff"><path d="M210.12 134.549h46.028v3.168h-46.028zm6.862 15.837h3.168v3.077h-3.168zm39.285-.099v3.168h-9.199v-3.168zm4.947-15.738h3.168v18.91h-3.168zM279.539 150.286v3.168h-17.433v-3.168zm-32.47-7.398h3.168v10.571h-3.168zM276.945 134.549h3.168v18.91h-3.168zm-7.919 0h3.168v18.91h-3.168zm-42.021 7.527v3.168h-16.8v-3.168zm36.863 0v3.168h-16.8v-3.168zM247.069 142.888h3.168v10.571h-3.168zM247.069 142.888h3.168v10.571h-3.168zM247.069 142.888h3.168v10.571h-3.168zm-36.863 0h3.168v10.571h-3.168zm27.021 0h3.167v10.571h-3.168zm-13.387 0h3.168v10.571h-3.168zM239.448 150.286v3.168h-14.201v-3.168zm.945-8.211v3.168h-9.003v-3.168z"/></g><g fill="#fff"><path d="M285.854 134.549h46.028v3.168h-46.028zm6.862 15.837h3.168v3.077h-3.168zm39.285-.099v3.168h-9.199v-3.168zm4.947-15.738h3.168v18.91h-3.168zM355.273 150.286v3.168h-17.433v-3.168zm-32.47-7.398h3.168v10.571h-3.168zM352.679 134.549h3.168v18.91h-3.168zm-7.919 0h3.168v18.91h-3.168zm-42.021 7.527v3.168h-16.8v-3.168zm36.863 0v3.168h-16.8v-3.168zM322.803 142.888h3.168v10.571h-3.168zM322.803 142.888h3.168v10.571h-3.168zM322.803 142.888h3.168v10.571h-3.168zm-36.863 0h3.168v10.571h-3.168zm27.021 0h3.167v10.571h-3.168zm-13.387 0h3.168v10.571h-3.168zM315.183 150.286v3.168h-14.201v-3.168zm.945-8.211v3.168h-9.003v-3.168z"/></g><g fill="#fff"><path d="M362.029 134.549h46.028v3.168h-46.028zm6.862 15.837h3.168v3.077h-3.168zm39.285-.099v3.168h-9.199v-3.168zm4.947-15.738h3.168v18.91h-3.168zM431.448 150.286v3.168h-17.433v-3.168zm-32.47-7.398h3.168v10.571h-3.168zM428.854 134.549h3.168v18.91h-3.168zm-7.919 0h3.168v18.91h-3.168zm-42.021 7.527v3.168h-16.8v-3.168zm36.863 0v3.168h-16.8v-3.168zM398.978 142.888h3.168v10.571h-3.168zM398.978 142.888h3.168v10.571h-3.168zM398.978 142.888h3.168v10.571h-3.168zm-36.863 0h3.168v10.571h-3.168zm27.021 0h3.167v10.571h-3.168zm-13.387 0h3.168v10.571h-3.168zM391.358 150.286v3.168h-14.201v-3.168zm.945-8.211v3.168h-9.003v-3.168z"/></g><g fill="#fff"><path d="M437.754 134.549h46.028v3.168h-46.028zm6.862 15.837h3.168v3.077h-3.168zm39.285-.099v3.168h-9.199v-3.168zm4.947-15.738h3.168v18.91h-3.168zM507.172 150.286v3.168h-17.433v-3.168zm-32.47-7.398h3.168v10.571h-3.168zM504.579 134.549h3.168v18.91h-3.168zm-7.919 0h3.168v18.91h-3.168zm-42.021 7.527v3.168h-16.8v-3.168zm36.863 0v3.168h-16.8v-3.168zM474.703 142.888h3.168v10.571h-3.168zM474.703 142.888h3.168v10.571h-3.168zM474.703 142.888h3.168v10.571h-3.168zm-36.863 0h3.168v10.571h-3.168zm27.021 0h3.167v10.571h-3.168zm-13.387 0h3.168v10.571h-3.168zM467.082 150.286v3.168h-14.201v-3.168zm.945-8.211v3.168h-9.003v-3.168z"/></g><g fill="#fff"><path d="M513.488 134.549h46.028v3.168h-46.028zm6.862 15.837h3.168v3.077h-3.168zm39.285-.099v3.168h-9.199v-3.168zm4.947-15.738h3.168v18.91h-3.168zM582.907 150.286v3.168h-17.433v-3.168zm-32.47-7.398h3.168v10.571h-3.168zM580.313 134.549h3.168v18.91h-3.168zm-7.919 0h3.168v18.91h-3.168zm-42.021 7.527v3.168h-16.8v-3.168zm36.863 0v3.168h-16.8v-3.168zM550.437 142.888h3.168v10.571h-3.168zM550.437 142.888h3.168v10.571h-3.168zM550.437 142.888h3.168v10.571h-3.168zm-36.863 0h3.168v10.571h-3.168zm27.021 0h3.167v10.571h-3.168zm-13.387 0h3.168v10.571h-3.168zM542.816 150.286v3.168h-14.201v-3.168zm.945-8.211v3.168h-9.003v-3.168z"/></g><g fill="#fff"><path d="M589.663 134.549h46.028v3.168h-46.028zm6.862 15.837h3.168v3.077h-3.168zm39.285-.099v3.168h-9.199v-3.168zm4.947-15.738h3.168v18.91h-3.168zM659.082 150.286v3.168h-17.433v-3.168zm-32.47-7.398h3.168v10.571h-3.168zM656.488 134.549h3.168v18.91h-3.168zm-7.919 0h3.168v18.91h-3.168zm-42.021 7.527v3.168h-16.8v-3.168zm36.863 0v3.168h-16.8v-3.168zM626.612 142.888h3.168v10.571h-3.168zM626.612 142.888h3.168v10.571h-3.168zM626.612 142.888h3.168v10.571h-3.168zm-36.863 0h3.168v10.571h-3.168zm27.021 0h3.167v10.571h-3.168zm-13.387 0h3.168v10.571h-3.168zM618.991 150.286v3.168h-14.201v-3.168zm.945-8.211v3.168h-9.003v-3.168z"/></g><g fill="#fff"><path d="M-92.413 134.549h46.028v3.168h-46.028zm6.862 15.837h3.168v3.077h-3.168zm39.285-.099v3.168h-9.199v-3.168zm4.947-15.738h3.168v18.91h-3.168zM-22.995 150.286v3.168h-17.433v-3.168zm-32.47-7.398h3.168v10.571h-3.168zM-25.588 134.549h3.168v18.91h-3.168zm-7.919 0h3.168v18.91h-3.168zm-42.021 7.527v3.168h-16.8v-3.168zm36.863 0v3.168h-16.8v-3.168zM-55.464 142.888h3.168v10.571h-3.168zM-55.464 142.888h3.168v10.571h-3.168zM-55.464 142.888h3.168v10.571h-3.168zm-36.863 0h3.168v10.571h-3.168zm27.021 0h3.167v10.571h-3.168zm-13.387 0h3.168v10.571h-3.168zM-63.085 150.286v3.168h-14.201v-3.168zm.945-8.211v3.168h-9.003v-3.168z"/></g><path d="M15.417 318.458h5.673v9.854h-5.673zm150.579 0h5.673v9.854h-5.673zm-266.115 0h5.673v9.854h-5.673zm76.424 0h5.673v9.854h-5.673zm75.88 0h5.673v9.854h-5.673zm37.543 0h5.674v9.854h-5.675zm38.328 0h5.673v9.854h-5.673zm75.486 0h5.673v9.854h-5.673zm190.467 0h5.673v9.854h-5.673zm-152.141 0h5.673v9.854h-5.673zm37.553 0h5.673v9.854h-5.673zm37.931 0h5.673v9.854h-5.673zm37.94 0h5.673v9.854h-5.673zm303.108 0h5.672v9.854h-5.673zm-227.624 0h5.673v9.854h-5.673zm38.327 0h5.674v9.854h-5.674zm38.724 0h5.674v9.854h-5.674zm36.372 0h5.674v9.854h-5.674zm38.715 0h5.673v9.854h-5.673zm37.94 0h5.673v9.854h-5.673zm112.254 0h5.673v9.854h-5.673zm-36.374 0h5.673v9.854h-5.673zm-758.756 0h5.673v9.854h-5.673z" fill="#d90000"/><path d="M15.417 152.525h5.673v9.854h-5.673zm150.579 0h5.673v9.854h-5.673zm-266.115 0h5.673v9.854h-5.673zm76.424 0h5.673v9.854h-5.673zm75.88 0h5.673v9.854h-5.673zm37.543 0h5.674v9.854h-5.675zm38.328 0h5.673v9.854h-5.673zm75.486 0h5.673v9.854h-5.673zm190.467 0h5.673v9.854h-5.673zm-152.141 0h5.673v9.854h-5.673zm37.553 0h5.673v9.854h-5.673zm37.931 0h5.673v9.854h-5.673zm37.94 0h5.673v9.854h-5.673zm303.108 0h5.672v9.854h-5.673zm-227.624 0h5.673v9.854h-5.673zm38.327 0h5.674v9.854h-5.674zm38.724 0h5.674v9.854h-5.674zm36.372 0h5.674v9.854h-5.674zm38.715 0h5.673v9.854h-5.673zm37.94 0h5.673v9.854h-5.673zm112.254 0h5.673v9.854h-5.673zm-36.374 0h5.673v9.854h-5.673zm-758.756 0h5.673v9.854h-5.673z" fill="#239e3f"/><g fill="#da0000"><path d="M342.432 185.245c7.929 9.718 32.371 63.458-14.755 98.659-22.156 16.675-8.436 17.517-7.782 20.32 35.612-18.917 47.243-44.546 46.973-67.504-.272-22.958-12.444-43.244-24.437-51.471zM347.147 182.747c17.587 9.005 55.861 54.291 14.666 105.379 25.596-5.681 58.137-81.059-14.666-105.379zm-54.011 0c-17.587 9.005-55.861 54.291-14.666 105.379-25.596-5.681-58.137-81.059 14.666-105.379zM297.784 185.245c-7.93 9.718-32.372 63.458 14.755 98.659 22.154 16.675 8.435 17.517 7.78 20.32-35.611-18.917-47.242-44.546-46.972-67.504.271-22.958 12.443-43.244 24.437-51.471zM365.318 299.326c-13.939.221-31.51-1.92-44.542-8.692l6.075 10.976c12.428 1.146 29.58 2.564 38.467-2.283zm-89.085 0c13.939.221 31.51-1.92 44.543-8.692-2.147 4.174-3.93 6.802-6.076 10.976-12.428 1.146-29.58 2.564-38.467-2.283zm25.567-130.114c2.824 7.506 10.234 8.597 18.164 4.178 5.779 3.468 14.717 3.686 17.799-3.815 2.344 18.557-17.17 14.168-17.897 10.535-7.265 7.023-20.791 2.967-18.066-10.898zM320.485 311.012l7.329-8.376 1.048-112.727-8.725-7.678-8.723 7.329 1.744 113.423 7.329 8.027z"/></g></g></svg>