<svg xmlns="http://www.w3.org/2000/svg" width="640" height="480" viewBox="0 0 640 480">
<style type="text/css">
	.st0{fill:#FFFFFF;}
	.st1{fill:#DA0000;}
	.st2{fill:#239F40;}
	.st3{fill:none;stroke:#FFFFFF;stroke-width:3;stroke-linecap:square;}
</style>
<g>
	<rect id="_x35_1" class="st0" width="640" height="480"/>
	<rect id="_x34_9" y="320" class="st1" width="640" height="160"/>
	<rect id="_x34_9_1_" class="st2" width="640" height="160"/>
	<path id="_x34_8" class="st3" d="M286.5,135.7h44.7 M286.5,150.7v-7.5h14.9v7.5h14.9v-7.5h-7.4 M331.2,150.7h-7.4v-7.5h14.9v-7.5
		 M338.6,143.2v7.5h14.9v-14.9 M346,135.7v14.9 M294,150.7L294,150.7"/>
	<path id="_x34_7" class="st3" d="M286.5,158.9h29.8 M323.7,158.9h29.8"/>
	<path id="_x34_6" class="st3" d="M286.5,329.3h44.7 M286.5,344.3v-7.5h14.9v7.5h14.9v-7.5h-7.4 M331.2,344.3h-7.4v-7.5h14.9v-7.5
		 M338.6,336.8v7.5h14.9v-14.9 M346,329.3v14.9 M294,344.3L294,344.3"/>
	<path id="_x34_5" class="st3" d="M286.5,321.1h29.8 M323.7,321.1h29.8"/>
	<path id="_x34_4" class="st3" d="M360.9,135.7h44.7 M360.9,150.7v-7.5h14.9v7.5h14.9v-7.5h-7.4 M405.6,150.7h-7.4v-7.5H413v-7.5
		 M413,143.2v7.5h14.9v-14.9 M420.5,135.7v14.9 M368.4,150.7L368.4,150.7"/>
	<path id="_x34_3" class="st3" d="M360.9,158.9h29.8 M398.1,158.9h29.8"/>
	<path id="_x34_2" class="st3" d="M360.9,329.3h44.7 M360.9,344.3v-7.5h14.9v7.5h14.9v-7.5h-7.4 M405.6,344.3h-7.4v-7.5H413v-7.5
		 M413,336.8v7.5h14.9v-14.9 M420.5,329.3v14.9 M368.4,344.3L368.4,344.3"/>
	<path id="_x34_1" class="st3" d="M360.9,321.1h29.8 M398.1,321.1h29.8"/>
	<path id="_x34_0" class="st3" d="M137.7,135.7h44.7 M137.7,150.7v-7.5h14.9v7.5h14.9v-7.5H160 M182.3,150.7h-7.4v-7.5h14.9v-7.5
		 M189.8,143.2v7.5h14.9v-14.9 M197.2,135.7v14.9 M145.1,150.7L145.1,150.7"/>
	<path id="_x33_9" class="st3" d="M137.7,158.9h29.8 M174.9,158.9h29.8"/>
	<path id="_x33_8" class="st3" d="M137.7,329.3h44.7 M137.7,344.3v-7.5h14.9v7.5h14.9v-7.5H160 M182.3,344.3h-7.4v-7.5h14.9v-7.5
		 M189.8,336.8v7.5h14.9v-14.9 M197.2,329.3v14.9 M145.1,344.3L145.1,344.3"/>
	<path id="_x33_7" class="st3" d="M137.7,321.1h29.8 M174.9,321.1h29.8"/>
	<path id="_x33_6" class="st3" d="M212.1,135.7h44.7 M212.1,150.7v-7.5H227v7.5h14.9v-7.5h-7.4 M256.7,150.7h-7.4v-7.5h14.9v-7.5
		 M264.2,143.2v7.5h14.9v-14.9 M271.6,135.7v14.9 M219.5,150.7L219.5,150.7"/>
	<path id="_x33_5" class="st3" d="M212.1,158.9h29.8 M249.3,158.9h29.8"/>
	<path id="_x33_4" class="st3" d="M212.1,329.3h44.7 M212.1,344.3v-7.5H227v7.5h14.9v-7.5h-7.4 M256.7,344.3h-7.4v-7.5h14.9v-7.5
		 M264.2,336.8v7.5h14.9v-14.9 M271.6,329.3v14.9 M219.5,344.3L219.5,344.3"/>
	<path id="_x33_3" class="st3" d="M212.1,321.1h29.8 M249.3,321.1h29.8"/>
	<path id="_x33_2" class="st3" d="M584.2,135.7h44.7 M584.2,150.7v-7.5h14.9v7.5H614v-7.5h-7.4 M628.8,150.7h-7.4v-7.5h14.9v-7.5
		 M636.3,143.2v7.5 M591.6,150.7L591.6,150.7"/>
	<path id="_x33_1" class="st3" d="M584.2,158.9H614 M621.4,158.9h15.8"/>
	<path id="_x33_0" class="st3" d="M584.2,329.3h44.7 M584.2,344.3v-7.5h14.9v7.5H614v-7.5h-7.4 M628.8,344.3h-7.4v-7.5h14.9v-7.5
		 M636.3,336.8v7.5 M591.6,344.3L591.6,344.3"/>
	<path id="_x32_9" class="st3" d="M584.2,321.1H614 M621.4,321.1h16.4"/>
	<path id="_x32_4" class="st3" d="M435.3,135.7H480 M435.3,150.7v-7.5h14.9v7.5h14.9v-7.5h-7.4 M480,150.7h-7.4v-7.5h14.9v-7.5
		 M487.4,143.2v7.5h14.9v-14.9 M494.9,135.7v14.9 M442.8,150.7L442.8,150.7"/>
	<path id="_x32_3" class="st3" d="M435.3,158.9h29.8 M472.6,158.9h29.8"/>
	<path id="_x32_2" class="st3" d="M435.3,329.3H480 M435.3,344.3v-7.5h14.9v7.5h14.9v-7.5h-7.4 M480,344.3h-7.4v-7.5h14.9v-7.5
		 M487.4,336.8v7.5h14.9v-14.9 M494.9,329.3v14.9 M442.8,344.3L442.8,344.3"/>
	<path id="_x32_1" class="st3" d="M435.3,321.1h29.8 M472.6,321.1h29.8"/>
	<path id="_x32_0" class="st3" d="M509.8,135.7h44.7 M509.8,150.7v-7.5h14.9v7.5h14.9v-7.5h-7.4 M554.4,150.7H547v-7.5h14.9v-7.5
		 M561.9,143.2v7.5h14.9v-14.9 M569.3,135.7v14.9 M517.2,150.7L517.2,150.7"/>
	<path id="_x31_9" class="st3" d="M509.8,158.9h29.8 M547,158.9h29.8"/>
	<path id="_x31_8" class="st3" d="M509.8,329.3h44.7 M509.8,344.3v-7.5h14.9v7.5h14.9v-7.5h-7.4 M554.4,344.3H547v-7.5h14.9v-7.5
		 M561.9,336.8v7.5h14.9v-14.9 M569.3,329.3v14.9 M517.2,344.3L517.2,344.3"/>
	<path id="_x31_7" class="st3" d="M509.8,321.1h29.8 M547,321.1h29.8"/>
	<path id="_x31_6" class="st3" d="M63.3,135.7h44.7 M63.3,150.7v-7.5h14.9v7.5H93v-7.5h-7.4 M107.9,150.7h-7.4v-7.5h14.9v-7.5
		 M115.3,143.2v7.5h14.9v-14.9 M122.8,135.7v14.9 M70.7,150.7L70.7,150.7"/>
	<path id="_x31_5" class="st3" d="M63.3,158.9H93 M100.5,158.9h29.8"/>
	<path id="_x31_4" class="st3" d="M63.3,329.3h44.7 M63.3,344.3v-7.5h14.9v7.5H93v-7.5h-7.4 M107.9,344.3h-7.4v-7.5h14.9v-7.5
		 M115.3,336.8v7.5h14.9v-14.9 M122.8,329.3v14.9 M70.7,344.3L70.7,344.3"/>
	<path id="_x31_3" class="st3" d="M63.3,321.1H93 M100.5,321.1h29.8"/>
	<path id="_x38_" class="st3" d="M2.3,135.7h31.2 M3.7,143.2v7.5h14.9v-7.5h-7.4 M33.5,150.7H26v-7.5h14.9v-7.5 M40.9,143.2v7.5
		h14.9v-14.9 M48.4,135.7v14.9"/>
	<path id="_x37_" class="st3" d="M2.3,158.9h16.3 M26,158.9h29.8"/>
	<path id="_x36_" class="st3" d="M1.9,329.3h31.6 M3.7,336.8v7.5h14.9v-7.5h-7.4 M33.5,344.3H26v-7.5h14.9v-7.5 M40.9,336.8v7.5
		h14.9v-14.9 M48.4,329.3v14.9"/>
	<path id="_x35_" class="st3" d="M1.9,321.1h16.7 M26,321.1h29.8"/>
	<path id="_x34_" class="st1" d="M344.4,197.1c0,0,43.3,34,11.5,82.7C385.8,261.5,388.4,211,344.4,197.1z"/>
	<path id="_x33_" class="st1" d="M320,192.3c-6.9,7.8-18.7,0-14.7-8.4c7.1,12.8,14.7,2.5,14.7,2.5s7.5,10.3,14.7-2.5
		C338.7,192.3,326.9,200.1,320,192.3L320,192.3z"/>
	<path id="_x32_" class="st1" d="M320,298l-4.9-6.5c0,0-11.6,3.9-27-1.5c12.6,0,19.6-2.2,22.2-3.5c0,0-28.5-15.4-27.9-46.8
		c1.7-31.7,18.5-41.4,18.5-41.4s-30,43.8,14.1,80.4l-1.9-45.3v-33.3c2.5-0.6,7.1-5.9,7.1-5.9s4.6,5.3,7.1,5.9v33.3l-1.9,45.3
		c44-36.6,14.1-80.4,14.1-80.4s16.8,9.6,18.5,41.4c0.6,31.4-27.9,46.8-27.9,46.8c2.6,1.3,9.6,3.5,22.2,3.5c-15.3,5.4-27,1.5-27,1.5
		L320,298L320,298z"/>
	<path id="_x31_" class="st1" d="M295.6,197.1c0,0-43.3,34-11.5,82.7C254.2,261.5,251.6,211,295.6,197.1z"/>
</g>
</svg>
