<svg xmlns="http://www.w3.org/2000/svg" height="480" width="640" viewBox="0 0 640 480"><defs><clipPath id="a"><path fill-opacity=".67" d="M-84.949 0h682.67v512h-682.67z"/></clipPath></defs><g clip-path="url(#a)" fill-rule="evenodd"><path fill="#be0027" d="M-40.424 0h721.106v480.256h-721.106z"/><path d="M178.552 244.949c12.811-15.58 39.349-.374 61.012-11.593-25.662 1.411-39.649-12.315-59.923-10.391 21.007-12.904 38.89 4.221 62.379-2.663-31.109-2.617-29.76-16.523-58.047-18.497 25.127-10.718 37.554 11.021 62.167 6.077-29.01-6.697-32.872-23.784-54.441-27.401 31.524-4.758 29.469 13.877 60.373 16.152-31.368-13.456-23.146-25.136-49.381-35.384 29.357-.694 27.41 19.651 57.152 24.988-25.461-16.152-22.316-30.893-43.288-42.428 24.88.45 27.309 25.916 52.701 33.806-22.651-17.972-16.694-33.124-36.267-49.173 24.747 5.804 21.144 27.774 46.918 41.79-19.1-21.213-11.772-36.399-28.435-53.764 23.801 7.665 14.759 28.545 39.457 48.396-14.158-23.314-5.417-38.183-19.35-57.853 22.098 11.412 11.398 32.71 31.914 53.989-9.657-23.927.014-38.788-9.856-59.977 18.903 14.123 7.66 36.885 22.908 58.599-5.559-29.941 7.355-34.865 3.336-61.086 14.357 17.625-1.69 35.25 9.332 61.214-1.341-29.524 14.346-36.39 11.626-60.095 14.229 21.241-7.98 39.727 1.309 62.475 2.401-28.012 20.81-35.266 21.096-57.064 11.193 20.009-13.236 34.398-9.271 60.928 8.039-29.262 27.648-32.878 29.963-52.551 6.786 23.148-19.947 33.909-18.383 59.563 7.963-26.015 32.474-29.067 37.484-48.284 3.093 24.488-21.011 28.836-27.798 55.891 12.674-22.081 34.84-23.892 44.82-41.356-.783 24.215-27.994 27.39-36.346 50.064 15.688-19.238 35.354-15.899 51.041-32.957-1.656 21.854-29.353 20.619-44.094 43.246 17.012-15.695 42.618-10.991 55.652-24.505-.632 19.33-34.62 17.877-50.648 35.155 19.768-10.829 44.796-4.469 59.305-14.527-2.651 16.948-38.529 12.987-55.676 26.213 23.648-6.552 41.907 3.574 61.066-3.747-9.324 16.497-41.867 6.055-59.145 16.779 20.523-3.475 42.328 8.958 61.055 4.969-6.155 14.259-41.816-.861-61.054 8.009 22.99-.202 37.897 14.477 59.219 13.507-11.596 12.909-42.949-4.843-61.216-1.81 22.287 4.609 39.313 23.076 56.211 23.966-13.867 10.647-39.793-13.599-60.842-10.521 21.672 5.802 39.88 30.459 52.316 30.999-13.398 9.157-39.881-21.071-58.025-19.997 22.038 9.962 32.146 35.189 46.616 38.736-17.915 5.748-35.52-27.406-54.77-28.555 22.297 14.063 23.557 35.567 40.725 45.14-18.063 4.416-30.92-32.987-49.957-36.143 18.282 13.439 21.037 42.145 33.159 51.222-18.391.972-25.037-38.19-43.886-43.784 16.149 13.488 12.282 42.754 24.838 55.213-19.16-3.93-16.69-38.025-36.693-49.506 14.37 18.122 7.06 43.942 16.426 58.472-18.638-7.54-10.543-38.053-28.337-55.333 9.706 19.306-.726 41.822 6.929 60.488-17.028-8.305-5.575-44.446-18.625-58.781 5.999 22.311-5.065 40.775-.606 60.777-17.408-20.191 2.642-40.511-12.458-61.087 4.008 23.616-12.509 40.05-9.912 59.817-13.804-16.124 7.415-41.998-3.309-62.356 2.309 23.219-19.019 43.561-17.555 58.184-11.235-18.73 12.474-40.881 6.125-62.176-1.337 22.111-22.859 34.126-26.912 54.269-7.235-22.22 18.351-38.282 16.142-60.116-7.327 20.771-28.123 29.1-35.45 49.23-5.999-22.158 24.307-33.925 25.108-57.237-9.368 21.863-34.258 26.664-42.473 43.396-3.066-22.043 31.712-31.899 33.006-52.786-11.196 20.056-38.43 20.87-47.83 36.82-1.426-21.964 35.252-24.684 41.009-47.674-11.145 17.145-41.022 14.921-53.453 28.859 1.96-20.375 41.636-21.636 47.959-39.959-14.748 14.228-42.175 8.331-57.618 19.616 8.595-20.012 45.81-15.77 54.224-30.266-16.475 8.596-45.662.263-60.029 8.858 13.057-18.953 42.025-7.631 58.419-20.683-26.665 3.886-42.685-6.725-61.141-1.813zM413.511 240.232c0 51.402-41.67 93.071-93.071 93.071-51.402 0-93.07-41.67-93.07-93.071 0-51.402 41.67-93.07 93.07-93.07 51.402 0 93.071 41.669 93.071 93.07z" fill="#ff0"/><path d="M401.533 240.416c0 44.69-36.228 80.917-80.917 80.917s-80.916-36.227-80.916-80.917 36.227-80.916 80.916-80.916c44.69 0 80.917 36.227 80.917 80.916z" fill="#be0027"/><path d="M390.264 240.585c0 38.375-31.108 69.482-69.481 69.482-38.375 0-69.482-31.109-69.482-69.482 0-38.374 31.109-69.482 69.482-69.482 38.374 0 69.481 31.109 69.481 69.482z" fill="#ff0"/><path d="M261.65 195.057c19.23-.423 43.179 1.33 58.962 13.97 16.752-10.462 36.587-15.3 56.787-13.426l10.341 18.868c-14.998-1.513-29.632.606-46.989 7.62 22.134 17.537 33.201 40.156 32.475 67.671-2.539 3.144-6.531 6.651-9.07 9.796 3.688-26.729-10.402-56.542-30.842-72.205 16.631 24.009 26.549 45.658 23.768 75.471-2.964 1.754-6.472 4.233-9.434 5.987 4.352-26.306-1.813-57.149-21.227-75.109 11.188 16.45 22.376 45.961 15.421 76.016-3.024.908-7.68 3.448-10.704 4.355 7.801-24.612 2.901-55.395-10.16-73.838-12.941 18.567-17.175 46.927-9.797 73.113l-9.978-2.903c-5.321-28.18 2.057-59.992 14.877-76.56-13.062 7.56-25.399 39.972-21.953 73.113-3.144-1.451-5.564-2.54-8.707-3.992-4.233-24.734 6.953-56.905 23.041-75.471-18.264 11.49-33.08 39.672-30.479 70.029l-8.164-6.167c-3.205-26.489 12.095-53.156 30.115-69.122-15.179-6.774-28.18-8.104-46.988-7.802l8.708-19.412z" fill="#be0027"/></g></svg>