<svg xmlns="http://www.w3.org/2000/svg" width="640" height="480" viewBox="0 0 640 480">
	<path fill="#BE0027" d="M0,0h640v480H0L0,0z"/>
	<path fill="#FFFF00" d="M178.6,244.9c12.8-15.6,39.3-0.4,61-11.6c-25.7,1.4-39.6-12.3-59.9-10.4c21-12.9,38.9,4.2,62.4-2.7c-31.1-2.6-29.8-16.5-58-18.5c25.1-10.7,37.6,11,62.2,6.1c-29-6.7-32.9-23.8-54.4-27.4c31.5-4.8,29.5,13.9,60.4,16.2c-31.4-13.5-23.1-25.1-49.4-35.4c29.4-0.7,27.4,19.7,57.2,25c-25.5-16.2-22.3-30.9-43.3-42.4c24.9,0.4,27.3,25.9,52.7,33.8c-22.7-18-16.7-33.1-36.3-49.2c24.7,5.8,21.1,27.8,46.9,41.8c-19.1-21.2-11.8-36.4-28.4-53.8c23.8,7.7,14.8,28.5,39.5,48.4c-14.2-23.3-5.4-38.2-19.4-57.9c22.1,11.4,11.4,32.7,31.9,54c-9.7-23.9,0-38.8-9.9-60c18.9,14.1,7.7,36.9,22.9,58.6c-5.6-29.9,7.4-34.9,3.3-61.1c14.4,17.6-1.7,35.3,9.3,61.2c-1.3-29.5,14.3-36.4,11.6-60.1c14.2,21.2-8,39.7,1.3,62.5c2.4-28,20.8-35.3,21.1-57.1c11.2,20-13.2,34.4-9.3,60.9c8-29.3,27.6-32.9,30-52.6c6.8,23.1-19.9,33.9-18.4,59.6c8-26,32.5-29.1,37.5-48.3c3.1,24.5-21,28.8-27.8,55.9c12.7-22.1,34.8-23.9,44.8-41.4c-0.8,24.2-28,27.4-36.3,50.1c15.7-19.2,35.4-15.9,51-33c-1.7,21.9-29.4,20.6-44.1,43.2c17-15.7,42.6-11,55.7-24.5c-0.6,19.3-34.6,17.9-50.6,35.2c19.8-10.8,44.8-4.5,59.3-14.5c-2.7,16.9-38.5,13-55.7,26.2c23.6-6.6,41.9,3.6,61.1-3.7c-9.3,16.5-41.9,6.1-59.1,16.8c20.5-3.5,42.3,9,61.1,5c-6.2,14.3-41.8-0.9-61.1,8c23-0.2,37.9,14.5,59.2,13.5c-11.6,12.9-42.9-4.8-61.2-1.8c22.3,4.6,39.3,23.1,56.2,24c-13.9,10.6-39.8-13.6-60.8-10.5c21.7,5.8,39.9,30.5,52.3,31c-13.4,9.2-39.9-21.1-58-20c22,10,32.1,35.2,46.6,38.7c-17.9,5.7-35.5-27.4-54.8-28.6c22.3,14.1,23.6,35.6,40.7,45.1c-18.1,4.4-30.9-33-50-36.1c18.3,13.4,21,42.1,33.2,51.2c-18.4,1-25-38.2-43.9-43.8c16.1,13.5,12.3,42.8,24.8,55.2c-19.2-3.9-16.7-38-36.7-49.5c14.4,18.1,7.1,43.9,16.4,58.5c-18.6-7.5-10.5-38.1-28.3-55.3c9.7,19.3-0.7,41.8,6.9,60.5c-17-8.3-5.6-44.4-18.6-58.8c6,22.3-5.1,40.8-0.6,60.8c-17.4-20.2,2.6-40.5-12.5-61.1c4,23.6-12.5,40-9.9,59.8c-13.8-16.1,7.4-42-3.3-62.4c2.3,23.2-19,43.6-17.6,58.2c-11.2-18.7,12.5-40.9,6.1-62.2c-1.3,22.1-22.9,34.1-26.9,54.3c-7.2-22.2,18.4-38.3,16.1-60.1c-7.3,20.8-28.1,29.1-35.4,49.2c-6-22.2,24.3-33.9,25.1-57.2c-9.4,21.9-34.3,26.7-42.5,43.4c-3.1-22,31.7-31.9,33-52.8c-11.2,20.1-38.4,20.9-47.8,36.8c-1.4-22,35.3-24.7,41-47.7c-11.1,17.1-41,14.9-53.5,28.9c2-20.4,41.6-21.6,48-40c-14.7,14.2-42.2,8.3-57.6,19.6c8.6-20,45.8-15.8,54.2-30.3c-16.5,8.6-45.7,0.3-60,8.9c13.1-19,42-7.6,58.4-20.7C213,250.6,197,240,178.6,244.9L178.6,244.9z M413.5,240.2c0,51.4-41.7,93.1-93.1,93.1c-51.4,0-93.1-41.7-93.1-93.1c0-51.4,41.7-93.1,93.1-93.1C371.8,147.2,413.5,188.8,413.5,240.2z"/>
	<path fill="#BE0027" d="M401.5,240.4c0,44.7-36.2,80.9-80.9,80.9s-80.9-36.2-80.9-80.9s36.2-80.9,80.9-80.9C365.3,159.5,401.5,195.7,401.5,240.4L401.5,240.4z"/>
	<path fill="#FFFF00" d="M390.3,240.6c0,38.4-31.1,69.5-69.5,69.5c-38.4,0-69.5-31.1-69.5-69.5c0-38.4,31.1-69.5,69.5-69.5C359.2,171.1,390.3,202.2,390.3,240.6L390.3,240.6z"/>
	<path fill="#BE0027" d="M261.6,195.1c19.2-0.4,43.2,1.3,59,14c16.8-10.5,36.6-15.3,56.8-13.4l10.3,18.9c-15-1.5-29.6,0.6-47,7.6c22.1,17.5,33.2,40.2,32.5,67.7c-2.5,3.1-6.5,6.7-9.1,9.8c3.7-26.7-10.4-56.5-30.8-72.2c16.6,24,26.5,45.7,23.8,75.5c-3,1.8-6.5,4.2-9.4,6c4.4-26.3-1.8-57.1-21.2-75.1c11.2,16.4,22.4,46,15.4,76c-3,0.9-7.7,3.4-10.7,4.4c7.8-24.6,2.9-55.4-10.2-73.8c-12.9,18.6-17.2,46.9-9.8,73.1l-10-2.9c-5.3-28.2,2.1-60,14.9-76.6c-13.1,7.6-25.4,40-22,73.1c-3.1-1.5-5.6-2.5-8.7-4c-4.2-24.7,7-56.9,23-75.5c-18.3,11.5-33.1,39.7-30.5,70l-8.2-6.2c-3.2-26.5,12.1-53.2,30.1-69.1c-15.2-6.8-28.2-8.1-47-7.8L261.6,195.1L261.6,195.1z"/>
</svg>
