<svg xmlns="http://www.w3.org/2000/svg" height="480" width="640" viewBox="0 0 640 480"><defs><clipPath id="a"><path fill-opacity=".67" d="M-86.325 0h682.67v512h-682.67z"/></clipPath></defs><g clip-path="url(#a)"><path fill-rule="evenodd" fill="#e73e2d" d="M-73.165 0h783.971v287.488h-783.971z"/><path d="M272.563 264.619c-18.23-14.233-52.184-9.418-57.777-48.106 25.999 20.138 21.279-1.151 60.109 18.037l-2.332 30.069zM277.413 247.022c-12.993-19.133-46.789-24.953-40.261-63.493 18.579 27.134 20.609 5.424 51.692 35.584l-11.431 27.909zM283.322 234.509c-4.69-22.648-33.695-40.947-12.928-74.063 6.793 32.176 16.969 12.891 34.16 52.644l-21.234 21.418zM296.97 222.878c2.489-22.994-19.497-49.313 10.433-74.455-3.412 32.708 12.192 17.478 16.35 60.589l-26.783 13.866zM309.108 213.554c11.685-19.96 2.401-52.973 40.002-63.656-16.505 28.444 3.968 20.937-9.889 61.972l-30.113 1.685zM326.752 216.012c17.408-15.227 19.067-49.48 58.116-47.696-24.669 21.746-2.872 21.115-29.022 55.643l-29.094-7.946zM342.229 224.998c21.111-9.448 32.749-41.706 69.555-28.54-29.965 13.548-8.943 19.342-44.074 44.675l-25.481-16.135zM355.286 239.124c22.916-3.124 43.165-30.801 74.775-7.807-32.567 4.565-14.026 16.044-54.867 30.462l-19.908-22.656zM436.863 243.505l-105.112 2.307 4.413 28.322 100.704-30.629zM421.424 204.869l-97.402 37.388 16.308 31.304 81.098-68.692zM344.114 263.268l50.391-91.493-77.298 71.949 26.906 19.543zM343.063 255.727l16.197-102.683-50.475 91.253 34.277 11.431zM337.013 247.388l-16.917-103.414-18.75 103.865 35.667-.452zM328.262 238.524l-49.05-86.364 18.849 104.981 30.201-18.615zM320.645 237.877l-76.073-64.233 54.092 91.927 21.982-27.694zM217.831 205.319l81.671 67.434 12.557-35.274-94.231-32.159zM298.64 244.677l-95.967-1.349 95.563 31.901.402-30.553zM376.513 261.912c0 31.794-25.774 57.569-57.569 57.569s-57.568-25.774-57.568-57.569 25.774-57.569 57.568-57.569 57.569 25.774 57.569 57.569z" fill-rule="evenodd" stroke="#d8aa3f" stroke-width="1.5617699999999999" fill="#fec74a"/><path fill-rule="evenodd" fill="#005989" d="M-73.953 284.589h787.826v195.667h-787.826z"/><path d="M-74.403 425.852c14.65 6.78 35.636 23.749 58.083 23.734 37.559-.244 38.559-25.725 76.606-24.513 38.146.971 31.246 27.797 82.754 27.663 42.556-.112 56.304-32.516 92.988-28.633 27.167-1.398 38.286 30.686 80.043 31.093 43.309.926 59.212-34.969 86.38-31.997 28.943 0 38.424 28.91 79.029 29.118 51.718.261 60.81-30.089 93.165-28.148 23.028-.486 41.188 22.244 74.934 22.809 26.927.459 49.47-19.899 64.699-27.178l.753-34.544c-15.96 5.935-39.758 25.394-63.555 25.608-34.246 1.253-55.43-22.461-79.227-22.247-28.512.256-39.874 29.344-88.243 29.344-44.189 0-54.327-29.344-82.84-29.344-27.87.214-36.408 31.916-84.657 31.329-39.358-.474-54.695-30.262-82.566-30.048-29.547 0-60.1 28.966-92.816 27.568-45.155-1.908-54.911-27.568-84.458-27.568-22.082 0-45.913 24.046-72.517 24.446-26.456.407-56.178-23.927-58.931-24.446l.377 35.954zm0-68.408c14.65 6.78 35.636 23.749 58.083 23.734 37.559-.244 38.559-25.725 76.606-24.513 38.146.971 31.246 27.797 82.754 27.663 42.556-.112 56.304-32.516 92.988-28.633 27.167-1.398 38.286 30.686 80.043 31.093 43.309.926 59.212-34.969 86.38-31.997 28.943 0 38.424 28.91 79.029 29.118 51.718.261 60.81-30.089 93.165-28.148 23.028-.486 41.188 22.244 74.934 22.809 26.927.459 49.47-19.899 64.699-27.178l.753-34.544c-15.96 5.935-39.758 25.394-63.555 25.608-34.246 1.253-55.43-22.461-79.227-22.247-28.512.256-39.874 29.344-88.243 29.344-44.189 0-54.327-29.344-82.84-29.344-27.87.214-36.408 31.916-84.657 31.329-39.358-.474-54.695-30.262-82.566-30.048-29.547 0-60.1 28.966-92.816 27.568-45.155-1.908-54.911-27.568-84.458-27.568-22.082 0-45.913 24.046-72.517 24.446-26.456.407-56.178-23.927-58.931-24.446l.377 35.954zM-74.403 289.767c14.636 6.78 35.602 23.749 58.029 23.734 37.524-.244 38.524-25.725 76.534-24.513 38.11.971 31.217 27.797 82.676 27.663 42.517-.112 56.252-32.516 92.901-28.633 27.142-1.398 38.251 30.686 79.968 31.093 43.269.926 59.157-34.969 86.3-31.997 28.916 0 38.389 28.91 78.955 29.118 51.67.261 60.753-30.089 93.078-28.148 23.007-.486 41.149 22.244 74.865 22.809 26.902.459 49.424-19.899 64.639-27.178l.752-34.544c-15.946 5.935-39.721 25.394-63.496 25.608-34.214 1.253-55.378-22.461-79.153-22.247-28.486.256-39.838 29.344-88.161 29.344-44.147 0-54.276-29.344-82.763-29.344-27.844.214-36.375 31.916-84.579 31.329-39.322-.474-54.643-30.262-82.489-30.048-29.519 0-60.043 28.966-92.73 27.568-45.113-1.908-54.86-27.568-84.38-27.568-22.062 0-45.871 24.046-72.448 24.446-26.405.413-56.102-23.919-58.85-24.444l.376 35.954z" fill-rule="evenodd" fill="#fff"/><path d="M209.258 71.247c57.263-3.921 46.826-8.812 69.874-12.49 29.044 3.993 32.366 21.578 48.549 32.366 0 0-6.083 20.567-25.988 17.655-2.676-8.251 9.636-10.801-25.792-32.399-20.597-1.226-57.452 3.615-66.643-5.133zm177.526 31.83l-41.252 1.698v10.192c27.825.89 32.84-2.831 41.252-11.89z" fill-rule="evenodd" stroke="#d8aa3f" stroke-width="1.6658879999999998" fill="#ffc84b"/><path stroke-linejoin="round" d="M244.93 101.37c7.19-3.677 10.765-2.176 16.995-2.419 4.287 7.765 8.331 8.493 17.714 9.464 14.317 20.14 34.457 20.383 37.369 20.383 28.068-.73 36.966-20.383 55.812-22.568h19.899c-3.316-5.662-5.905-8.898-13.104-9.221-14.803-.809-33.972-.404-50.715 3.396l-23.538 5.825c-6.876-3.317-23.7-20.95-34.457-20.627-6.309 1.698-6.309 3.882-9.463 6.309-6.066 2.589-12.134 1.348-16.51 9.455z" fill-rule="evenodd" stroke="#d8aa3f" stroke-width="1.5617699999999999" fill="#ffc84b"/><path d="M205.104 98.914a3.174 3.174 0 1 1-6.348 0 3.174 3.174 0 0 1 6.348 0z" fill-rule="evenodd" stroke="#d8aa3f" stroke-width="1.665" fill="#ffc84b" transform="translate(80.93) scale(.938)"/><path d="M292.505 101.135c42.142-50.796 78.945-44.568 126.911-48.046 1.618 5.905 1.052 14.722-21.839 22.567-31.303 4.61-87.358 37.611-87.6 37.611-10.436-.485-17.715-11.404-17.472-12.133z" fill-rule="evenodd" stroke="#d8aa3f" stroke-width="1.6658879999999998" fill="#ffc84b"/><path d="M379.092 68.039l31.08 1.347m-34.466 3.724l22.655 1.848" stroke="#d9a43e" stroke-linecap="round" stroke-width="1.6658879999999998" fill="none"/></g></svg>