<svg xmlns="http://www.w3.org/2000/svg" height="480" width="640" viewBox="0 0 640 480"><defs><clipPath id="a"><path fill-opacity=".67" d="M0 0h682.67v512h-682.67z"/></clipPath></defs><g clip-path="url(#a)" fill-rule="evenodd"><path fill="#ff0" d="M0 0h720.722v120h-720.722z"/><path fill="#fff" d="M0 120h720.722v120h-720.722z"/><path fill="#be0027" d="M0 240h720.722v120h-720.722z"/><path fill="#3b5aa3" d="M0 360h720.722v120h-720.722z"/><path d="M0 0v480l357.994-239.325-357.994-240.675z" fill="#239e46"/><path d="M147.384 132.591c-79.778-4.041-116.128 59.503-116.044 108.628-.182 58.097 54.871 106.013 105.759 103.116-27.441-12.975-60.945-49.369-61.253-103.359-.281-48.919 27.653-91.453 71.538-108.384zM146.182 184.742l-11.243-8.798-13.63 4.29 4.889-13.422-8.279-11.634 14.275.495 8.498-11.473 3.933 13.733 13.549 4.543-11.854 7.991zm-.239 48.809l-11.243-8.798-13.629 4.29 4.889-13.422-8.279-11.634 14.275.495 8.498-11.473 3.932 13.733 13.55 4.543-11.855 7.991zm.239 49.291l-11.243-8.798-13.63 4.29 4.889-13.422-8.279-11.634 14.275.495 8.498-11.474 3.933 13.734 13.549 4.543-11.854 7.991zm-.239 49.763l-11.243-8.798-13.629 4.29 4.889-13.422-8.279-11.634 14.275.495 8.498-11.474 3.932 13.734 13.55 4.543-11.855 7.991z" fill="#fff"/></g></svg>