<svg xmlns="http://www.w3.org/2000/svg" height="480" width="640" viewBox="0 0 640 480"><defs><clipPath id="a"><path fill-opacity=".67" d="M-80.109 0h682.67v512h-682.67z"/></clipPath></defs><g fill-rule="evenodd" clip-path="url(#a)"><path fill="#ffe900" d="M-26.061.224h691.916v479.59h-691.916z"/><path d="M-26.427.224l.807 345.728 538.393-345.953-539.2.223z" fill="#35a100"/><path d="M666.689 479.815l-1.263-359.488-543.083 359.761 544.35-.265z" fill="#c70000"/><path d="M-26.08 372.02l.46 108.236 117.484-.15 573.831-384.711-.647-94.1-116.087-1.07-575.041 371.795z"/><path fill="#fff" d="M431.969 146.91l-9.298-39.626 31.286 25.396 35.657-23.109-16.356 38.75 31.333 25.346-41.396-1.445-16.293 38.77-9.225-39.645-41.401-1.388zm-258.18 167.818l-9.298-39.626 31.286 25.396 35.657-23.109-16.356 38.75 31.333 25.346-41.396-1.445-16.293 38.77-9.225-39.645-41.401-1.388z"/></g></svg>