<svg xmlns="http://www.w3.org/2000/svg" width="640" height="480" viewBox="0 0 640 480">
	<rect fill="#FFE900" y="0.2" width="640" height="479.6"/>
	<polygon fill="#35A100" points="0,329.5 512.8,0 510.3,0 0,0.2 "/>
	<polygon fill="#C70000" points="303,480 640,479.8 640,137.2 122.5,480 "/>
	<polygon fill="#000000" points="640,112.6 640,1.1 549,0.2 0,355.2 0,480 92,480 "/>
	<path fill="#FFFFFF" d="M432,146.9l-9.3-39.6l31.3,25.4l35.7-23.1l-16.4,38.8l31.3,25.3l-41.4-1.4L446.9,211l-9.2-39.6l-41.4-1.4L432,146.9z M173.8,314.7l-9.3-39.6l31.3,25.4l35.7-23.1l-16.4,38.8l31.3,25.3L205,340l-16.3,38.8l-9.2-39.6l-41.4-1.4L173.8,314.7z"/>
</svg>
