<svg xmlns="http://www.w3.org/2000/svg" height="480" width="640" viewBox="0 0 640 480"><defs><clipPath id="a"><path fill-opacity=".67" d="M-95.808-.44h682.67v512h-682.67z"/></clipPath></defs><g fill-rule="evenodd" clip-path="url(#a)"><path fill="#fff" d="M662.572 480.255h-684.899v-480.256h684.899zM326.075 240.56c0 58.285-47.249 105.533-105.532 105.533-58.285 0-105.532-47.249-105.532-105.533 0-58.285 47.248-105.532 105.532-105.532 58.285 0 105.532 47.249 105.532 105.532z"/><path d="M458.464 246.684c0 76.052-61.002 137.701-136.255 137.701s-136.256-61.648-136.256-137.701 61.002-137.702 136.256-137.702 136.254 61.65 136.254 137.702z" fill="#c70000"/><path d="M43.467 119.013l78.473-90.77 18.592 16.073-78.473 90.771zm25.7 22.218l78.473-90.77 18.591 16.073-78.473 90.77zM43.467 119.013l78.473-90.77 18.592 16.073-78.473 90.771zM43.467 119.013l78.473-90.77 18.592 16.073-78.473 90.771zm51.95 44.911l78.473-90.77 18.591 16.074-78.473 90.77zM43.467 119.013l78.473-90.77 18.592 16.073-78.473 90.771zM43.467 119.013l78.473-90.77 18.592 16.073-78.473 90.771zm477.283-90.8l77.856 91.3-18.701 15.946-77.856-91.299zm-52.252 44.558l77.856 91.3-18.7 15.946-77.856-91.299z"/><path d="M481.482 125.344l73.729-63.61 13.733 15.902-78.788 70.837-8.674-23.13z" fill="#fff"/><path d="M572.166 349.36l-75.43 89.888-18.494-15.383 75.431-89.887zm-77.268-299.103l77.856 91.299-18.7 15.947-77.856-91.299zm102.825 320.361l-75.431 89.888-18.493-15.382 75.431-89.888zm-51.67-42.978l-75.431 89.889-18.493-15.383 75.43-89.888z"/><path d="M187.935 222.418c4.307 34.682 10.597 73.328 63.971 77.343 20.006 1.199 58.922-4.759 72.283-59.272 17.529-52.368 70.327-67.423 106.257-39.033 20.371 13.288 26.008 34.393 27.467 50.236-1.631 50.88-30.836 94.926-68.308 114.567-43.082 25.607-102.767 26.142-155.051-12.654-23.563-22.109-56.485-62.865-46.619-131.189z" fill="#3d5897"/><path d="M498.704 348.025l73.852 63.466-13.686 15.943-81.752-67.396 21.586-12.013z" fill="#fff"/><path d="M88.05 335.463l77.856 91.3-18.701 15.946-77.856-91.299z"/><path d="M74.636 410.552l73.729-63.61 13.733 15.902-78.788 70.837-8.674-23.13z" fill="#fff"/><path d="M113.9 313.419l77.857 91.299-18.701 15.946-77.856-91.299zm-52.251 44.558l77.856 91.299-18.7 15.946-77.857-91.298z"/></g></svg>