<svg xmlns="http://www.w3.org/2000/svg" width="640" height="480" viewBox="0 0 640 480">
	<path fill="#FFFFFF" d="M0,0h640v480H0L0,0z"/>
	<path fill="#FF0000" d="M0,360h640v120H0L0,360z M0,0h640v120H0L0,0z"/>
	<path fill="#007900" d="M316.5,121.9c-7.3,14.6-12.2,14.6-24.4,24.4c-4.9,4.9-12.2,7.3-2.4,12.2c-9.8,4.9-14.7,7.3-19.5,17.1l2.4,2.4c0,0,9.3-4.5,9.8-2.4c1.6,1.9-12.2,9.4-14,10.6c-1.8,1.1-10.4,6.5-10.4,6.5c-12.2,9.8-19.5,7.3-26.9,21.9l24.4-2.4c4.9,17.1-12.2,19.5-24.4,26.8l-19.5,12.2c4.9,17.1,19.5,7.3,31.7,2.4l2.4,2.4v4.9L221.2,273c0,0-28.8,16.5-29.3,17.1c-0.2,0.9,0,4.9,0,4.9c9.8,2.4,24.4,4.9,34.2,0c12.2-4.9,14.7-9.8,29.3-9.8c-17.1,12.2-29.3,17.1-48.8,19.5v9.8c14.7,0,24.4,0,36.6-2.4l31.7-9.8c7.3,0,14.7,7.3,12.2,14.6c-7.3,26.8-36.6,21.9-46.4,43.9l39.1-14.6c9.8-4.9,19.5-9.8,31.7-7.3c14.7,4.9,14.7,14.6,34.2,19.5l-4.9-12.2c4.9,2.4,9.8,2.4,14.7,4.9c12.2,4.9,14.7,9.8,29.3,7.3c-12.2-14.6-14.7-12.2-24.4-21.9c-9.8-14.6-14.7-36.6,0-39l17.1,4.9c17.1,2.4,17.1-2.4,41.5,7.3c14.7,4.9,19.5,12.2,36.6,7.3c-7.3-17.1-34.2-29.3-51.3-34.1c19.5-12.2,14.7,4.9,41.5-2.4v-4.9c-19.5-14.6-26.9-26.8-53.7-26.8l41.5-4.9v-4.9c0,0-40.9-10.7-41.9-11.1c0.3-1.2,1.3-3.2,4-4.2c7.8,5,31.3,4.4,32.6,4.4c-0.7-6-11.8-11-21.6-15.8c0,0-41.8-25.8-42-28.1c0.8-6.5,17.2,1,34.7,6.1c-4.9-9.8-14.7-14.6-24.4-17.1l14.7-2.4c-9.8-21.9-34.2-19.5-48.8-29.3C331.1,134.1,331.1,129.2,316.5,121.9L316.5,121.9z"/>
	<path fill="#FFFFFF" d="M289.6,286.2c-3.6,0-11.4-12.5-11.4-16.9c0-1.9,1.1-3.1,2.9-3.1v3c0,0,0.1-0.1,0.1-0.2c0,0,0,0.1,0,0.3c0,3.5,6.7,13.3,8.6,13.9c0,0-0.1,0-0.2,0L289.6,286.2z M304.5,284.7c-0.2,0-0.4,0-0.7-0.1l-0.2,0l-0.2-0.1c-3.3-1.7-4.2-5.7-3.7-9.1c0.4-2.5,1.6-4.1,3.1-4.2l0.1,0l0.1,0c2.7,0.1,4.9,6.5,4.8,9.6C307.7,283.6,306,284.7,304.5,284.7C304.5,284.7,304.5,284.7,304.5,284.7z M319.5,283.4c-3.5,0-6-2.5-6.6-6.5c-0.4-2.8,0.3-6,2.3-6.6l0.1,0l0.1,0c0.4-0.1,0.7-0.1,1.1-0.1c4.2,0,9.1,3.9,9.6,7.7c0.1,0.9,0.1,4.1-4.5,5.2C320.9,283.4,320.2,283.4,319.5,283.4C319.5,283.4,319.5,283.4,319.5,283.4z M398.6,279c-5.2,0-11.4-3.6-12.9-9.5l-0.2-0.8l0.5-0.6c1.9-2.1,4.6-3.2,7.7-3.2c4.5,0,9.3,2.4,11.1,5.6c1,1.8,1.1,3.8,0,5.5C403.8,277.9,401.5,279,398.6,279C398.6,279,398.6,279,398.6,279z M375.3,269.9c-5.3,0-13.8-1.3-15.7-3.5c-0.4-0.5-0.6-1.1-0.5-1.6l0-0.1l0-0.1c0.7-2.5,9.9-5.1,15.8-5.1c3.7,0,6.5,0.9,8.3,2.6l0.1,0.1l0.1,0.1c1.6,2.2,1.3,3.8,0.9,4.7C383.1,268.9,380.2,269.9,375.3,269.9z M255.6,256.4c-0.1,0-0.2,0-0.3,0l-0.2,0l-0.2-0.1c-1.6-0.6-4.9-5.4-4.9-6.4c0-1.4,0-1.4,9.7-3.6c4.3-0.9,10.1-2.1,13.4-2.1c1.4,0,3.2,0.2,3.8,1.5c0.3,0.6,0.4,1.6-0.7,2.8C271.3,253.9,258.4,256.4,255.6,256.4L255.6,256.4z M329.9,244.5c-2.7,0-8.7-2.7-9.9-6.4c-0.4-1.2-0.5-3.6,2.6-5.7c1.4-0.9,2.7-1.4,3.9-1.4c1.9,0,3.5,1.1,4.6,3c1.6,2.9,1.9,7.6,0.6,9.8l-0.3,0.5l-0.5,0.2C330.6,244.5,330.3,244.5,329.9,244.5C329.9,244.5,329.9,244.5,329.9,244.5z M301.9,237.8c-0.1,0-8.3-0.3-9.6-3.6c-0.3-0.7-0.5-2.1,1.1-3.6l0.2-0.2l0.3-0.1c0.5-0.2,1-0.3,1.5-0.3c3.2,0,6.4,3.7,7.4,5l0.8,0.3l-0.4,2.5L301.9,237.8z M314.7,235.3c-2.2,0-6.2-2.4-6.6-5.2c-0.1-0.8-0.1-2.9,3.2-3.9c0.8-0.2,1.6-0.4,2.3-0.4c2.4,0,4.2,1.5,4.6,3.9c0.3,1.9-0.3,4.3-2,5.1C315.9,235.1,315.4,235.3,314.7,235.3C314.7,235.3,314.7,235.3,314.7,235.3z M386.5,223.8c-1.7,0-9-0.7-11.3-3.7c-0.7-0.9-0.9-1.9-0.6-3l0.2-0.6l0.6-0.3c0.9-0.4,1.9-0.6,3.1-0.6c4.2,0,9.2,3.1,10.4,5.2c0.4,0.7,0.4,1.4,0.3,1.8C388.9,223.8,387.2,223.8,386.5,223.8L386.5,223.8z M267.5,221.2c-0.2,0-0.5,0-0.7-0.1c-0.7-0.2-1.7-0.8-3.4-3.4c-0.6-0.9-3.5-5.7-3-7.6l0-0.1l0-0.1c1.2-2.7,11.8-4.3,12.9-4.3c0.1,0,0.3,0,0.3,0l0.1,0c2.4,0.4,3.7,3.4,4.6,5.6c0.2,0.5,0.4,0.9,0.5,1.2l0.3,0.6l-0.2,0.6C278.5,215.2,270.1,221.2,267.5,221.2z M357.4,211.6c-3.9,0-11.7-1.5-12.5-5.2c-0.3-1.2,0.1-3,3.4-4.7c2.1-1,4.1-1.6,6.1-1.6c4.3,0,7.1,2.6,8.4,5c1,1.8,1.1,3.6,0.3,4.7l0,0.1l-0.1,0.1C361.9,211,360.1,211.6,357.4,211.6C357.4,211.6,357.4,211.6,357.4,211.6z M285.7,211.5c-1.7,0-3.2-0.8-4.5-2.4c-2-2.5-1.8-4.3-1.3-5.4c1.1-2.4,4.8-3.3,7.8-3.3c1.4,0,3.8,0.2,4.9,1.4c0.3,0.3,0.4,0.6,0.5,1c0.3,0.7,0.2,1.7-0.3,2.8C291.8,207.9,289.1,211.5,285.7,211.5C285.7,211.5,285.7,211.5,285.7,211.5z M331.9,205.4c-0.3,0-0.9,0-1.4-0.5l-0.6-0.6l0.3-0.9c0.1-0.3,2.4-7.4,8.1-7.4c0.6,0,1.2,0.1,1.8,0.2l0.3,0.1l0.2,0.2c2.4,1.8,2.5,3.5,2.1,4.5C341.4,205,332,205.4,331.9,205.4zM313.3,205.4c-0.9,0-3.3,0-3.8-1.7c-0.5-1.6,1.3-2.8,1.9-3.2c4.7-3.1,9.3-4.9,12.3-4.9c2.5,0,3.3,1.2,3.6,2c0.4,1,0.3,2.1-0.3,3C324.9,203.7,316.9,205.4,313.3,205.4C313.3,205.4,313.3,205.4,313.3,205.4z M289.3,196.6c-1.5,0-2.5-1-2.6-2.4l0-0.2l0-0.2c0.9-6.2,12.8-13.7,14.2-14.5l0.2-0.1l0.2-0.1c0.4-0.1,0.7-0.1,1.1-0.1c1,0,1.9,0.4,2.5,1.2c1.4,1.7,0.7,4.8,0.6,5.4l-0.1,0.4l-0.3,0.3C302.2,188.7,293.1,196.6,289.3,196.6L289.3,196.6z M312.2,182.6c-1.5,0-2.7-0.3-3.8-0.8l-1.4-0.7l0.7-1.4c2.4-4.9,9-7.2,12.8-7.2c1.6,0,2.6,0.4,3.1,1.3c0.6,1.1,0.6,2.4-0.1,3.6C321.7,180.5,316.1,182.6,312.2,182.6C312.2,182.6,312.2,182.6,312.2,182.6z M350.4,180.7c-1.3,0-7.7-1.3-8.3-2.8l-0.4-0.9l0.9-0.9l0.3-0.1c0.1-0.1,3-1.3,5.7-1.3c2.4,0,3.5,1,4.1,1.9c0.7,1.1,0.8,2.1,0.4,2.9C352.6,180.3,351.7,180.7,350.4,180.7z M333.6,178.9c-1.2,0-3.3-0.2-4.3-1.6c-0.4-0.6-0.5-1.3-0.3-2c0-0.9,0.4-1.8,1-2.5c0.9-1,2.4-1.5,4.2-1.5c1.9,0,4.5,0.7,5.5,2.7l0.1,0.1l0,0.1c0.3,0.9,0.1,1.8-0.4,2.5C338.2,178.3,335.6,178.9,333.6,178.9L333.6,178.9z M288.2,175.2c-0.5,0-0.9-0.1-1.3-0.3l-1.1-0.5l0.3-1.2c0.5-2.3,6.7-6.1,8.2-6.1h0.4l0.4,0.2l0.5,0.3l0.2,0.6c0.3,0.9,0,1.8-0.8,2.9C293.8,172.7,290.6,175.2,288.2,175.2z"/>
</svg>
