<svg xmlns="http://www.w3.org/2000/svg" height="480" width="640" viewBox="0 0 640 480"><defs><clipPath id="a"><path fill-opacity=".67" d="M-85.333 0h682.67v512h-682.67z"/></clipPath></defs><g clip-path="url(#a)"><g fill-rule="evenodd"><path fill="#f00" d="M-40.064 360.185h720.361v120.064h-720.361zm0-360.185h720.361v120.065h-720.361z"/><path fill="#fff" d="M-40.064 120.065h720.361v240.12h-720.361z"/></g><path d="M316.47 121.893c-7.326 14.626-12.211 14.626-24.42 24.379-4.883 4.876-12.209 7.314-2.442 12.19-9.767 4.875-14.652 7.314-19.536 17.064l2.442 2.438s9.282-4.549 9.768-2.438c1.623 1.949-12.217 9.428-14.003 10.565-1.786 1.137-10.417 6.5-10.417 6.5-12.209 9.752-19.536 7.313-26.862 21.94l24.42-2.436c4.884 17.064-12.21 19.501-24.42 26.816l-19.536 12.19c4.885 17.064 19.536 7.313 31.746 2.437l2.443 2.439v4.875l-24.42 12.19s-28.828 16.494-29.303 17.064c-.197.884 0 4.876 0 4.876 9.767 2.439 24.42 4.877 34.188 0 12.209-4.876 14.651-9.751 29.303-9.751-17.094 12.188-29.303 17.065-48.84 19.502v9.752c14.652 0 24.419 0 36.63-2.438l31.746-9.751c7.326 0 14.652 7.314 12.21 14.626-7.326 26.816-36.631 21.941-46.399 43.881l39.073-14.626c9.767-4.876 19.535-9.751 31.745-7.313 14.652 4.874 14.652 14.627 34.188 19.501l-4.883-12.187c4.883 2.437 9.767 2.437 14.651 4.875 12.211 4.878 14.652 9.751 29.303 7.314-12.209-14.627-14.651-12.188-24.419-21.94-9.767-14.627-14.652-36.567 0-39.006l17.094 4.877c17.093 2.437 17.093-2.438 41.513 7.314 14.652 4.875 19.537 12.188 36.631 7.313-7.326-17.064-34.188-29.254-51.281-34.13 19.535-12.19 14.651 4.876 41.513-2.439v-4.874c-19.535-14.627-26.862-26.817-53.724-26.817l41.515-4.876v-4.876s-40.943-10.741-41.895-11.123c.285-1.238 1.287-3.157 4.005-4.218 7.775 5.033 31.289 4.446 32.624 4.352-.687-5.999-11.828-10.952-21.596-15.827 0 0-41.825-25.779-42.033-28.061.829-6.533 17.179 1.038 34.706 6.12-4.883-9.751-14.652-14.626-24.419-17.064l14.652-2.437c-9.767-21.941-34.188-19.503-48.839-29.254-9.769-7.314-9.769-12.19-24.42-19.503z" fill="#007900"/><path stroke-linejoin="round" d="M290.074 284.28c1.812-5.81 4.198-10.95-6.676-15.903-10.874-4.951 5.436 19.805 6.676 15.903zm12.879-11.622c-2.192.285-3.339 8.287 1.048 10.477 4.866.76.86-10.38-1.048-10.477zm12.691-.854c-2.291.668-2.385 11.904 5.628 9.905 8.013-1.998-.097-10.855-5.628-9.905zm14.783-28.853c1.717-2.762-.095-14.093-6.965-9.333-6.867 4.762 4.77 10.095 6.965 9.333zm-14.98-9.427c2.1-.762 2.291-7.713-3.718-5.904-6.008 1.81 2.099 7.332 3.718 5.904zm-13.535 2.758s-4.198-5.809-7.441-4.572c-4.102 3.905 7.727 4.667 7.441 4.572zm-46.515 18.563c1.787.162 15.033-2.185 19.612-7.326 4.577-5.143-23.569 2.201-23.569 2.295 0 .095 2.659 4.544 3.958 5.03zm132.361-32.792c.683-1.215-7.051-6.727-11.646-4.555-1.183 4.07 11.608 5.392 11.646 4.555zm-26.039-13.104c1.431-2.095-3.337-10.665-12.876-5.904-9.539 4.761 10.014 9.237 12.876 5.904zm-30.147-5.046s2.383-7.713 8.108-6.191c6.487 4.954-7.823 6.477-8.108 6.191zm-5.628-5.806c-.86-2.19-6.869-.856-13.736 3.619-6.87 4.476 15.833 1.334 13.736-3.619zm17.55-20.758s6.119-2.739 7.917 0c2.577 4.095-8.011.096-7.917 0zm-5.131-2.683c-1.24-2.476-8.011-2.711-7.837.868-1.135 2.804 8.798 2.281 7.837-.868zm-16.134.009c-.667-1.429-10.299.027-13.162 5.809 4.595 2.234 15.262-2.19 13.162-5.809zm-20.608 5.909s-12.672 7.748-13.45 13.427c.385 4.905 15.738-8.857 15.738-8.857s1.336-5.428-2.288-4.571zm-14.023-7.044c.355-1.576 6.261-5.227 6.772-4.953.478 1.589-4.824 5.891-6.772 4.953zm4.005 29.613c.285-2.286-15.072-2.096-9.252 4.951 4.846 5.91 10.303-3.903 9.252-4.951zm-13.976 10.112c-.801-1.545-1.953-5.664-4.056-6.043-1.714-.097-10.948 1.808-11.655 3.371-.381 1.238 3.822 8.85 5.255 9.04 1.622.666 10.17-5.607 10.456-6.369zm82.854 51.693c.477-1.618 16.17-7.042 21.588-1.853 6.39 8.761-21.969 4.617-21.588 1.853zm43.129 10.252c3.439-5.819-10.559-12.718-16.501-6.069 2.031 7.989 13.721 10.881 16.501 6.069z" fill-rule="evenodd" stroke="#fff" stroke-linecap="round" stroke-width="3.0194219999999996" fill="#fff"/></g></svg>