<svg xmlns="http://www.w3.org/2000/svg" width="640" height="480" viewBox="0 0 640 480">
	<path fill="#FFFFFF" d="M0,0.1h640V480H0V0.1z"/>
	<path fill="#000066" d="M0,0h218.2v218.2H0V0z"/>
	<path fill="#CC0000" d="M0,435.8h640V480H0V435.8z M0,349.2h640v43.3H0V349.2z M0,261.8h640v43.8H0V261.8z M218.1,0.1H640v43.6H218.1L218.1,0.1z M218.1,174.4H640v43.9H218.1L218.1,174.4z M218.1,87.5H640v43.6H218.1L218.1,87.5z"/>
	<path fill="#FFFFFF" d="M155.9,166.4l-47.5-29l-47.3,29.3L78.7,119L31.5,89.6l58.4-0.4L108,41.6L126.5,89l58.4,0.1l-47,29.7L155.9,166.4L155.9,166.4z"/>
</svg>
