<svg xmlns="http://www.w3.org/2000/svg" height="480" width="640" viewBox="0 0 640 480"><defs><clipPath id="a"><path fill-opacity=".67" d="M0 0h682.67v512h-682.67z"/></clipPath></defs><g clip-path="url(#a)"><path fill-rule="evenodd" fill="#009a00" d="M0 0h720v150h-720z"/><path fill-rule="evenodd" fill="#fff" d="M0 149.963h720v15.017h-720z"/><path fill-rule="evenodd" d="M0 164.981h720v150h-720z"/><path fill-rule="evenodd" fill="#fff" d="M0 314.981h720v15.017h-720z"/><path fill-rule="evenodd" fill="#ffca00" d="M0 330h720v150h-720z"/><path d="M0 0v480l315.019-240-315.019-240z" fill-rule="evenodd" fill="#f00"/><path fill="#ffca00" fill-rule="evenodd" d="M186.124 312.156l-48.028-35.161-47.965 35.169 18.601-56.541-48.272-34.749 59.525.22 18.127-56.648 18.185 56.681 59.477-.272-48.287 34.809z"/><path stroke-linejoin="round" d="M96.41 272.723h34.598c2.783 3.123 8.994 4.397 14.91-.037 10.844-5.938 31.823.037 31.823.037l4.132-4.389-10.071-33.049-3.615-3.873s-7.745-4.647-22.463-3.098c-14.717 1.55-19.882-.516-19.882-.516s-12.909 1.549-16.523 3.356c-.397.322-4.132 4.131-4.132 4.131l-8.779 37.438z" fill-rule="evenodd" stroke="#000" stroke-linecap="round" stroke-width="1.034614" fill="#fff"/><path stroke-linejoin="round" d="M103.382 264.205s33.048-4.132 42.602 8.52c-5.395 3.692-10.147 3.997-15.234.259.811-1.35 11.878-12.909 40.021-9.038" stroke="#000" stroke-linecap="round" stroke-width="1.034614" fill="none"/><path d="M138.752 231.157l-.256 36.406m29.691-35.893l6.197 28.918" stroke="#000" stroke-width="NaN" fill="none"/><path stroke-linejoin="round" d="M109.66 231.216l-3.439 14.912" stroke="#000" stroke-linecap="round" stroke-width="1.034614" fill="none"/><path stroke-linejoin="round" d="M73.939 276.694l8.137 9.539c.954.57 1.804.534 2.652 0l12.058-14.469 5.064-6.271c.785-.928 1.035-1.965.966-2.893l9.682-8.604 2.056.198c-.936-.242-1.622-.698-.886-1.723l2.17-1.688 1.688 2.169s-2.41 3.135-2.652 3.135h-2.653l-5.064 4.583 2.214 1.957 3.333 9.137 4.101-2.895-2.653-9.405 5.788-6.27-2.171-3.377 1.448-1.929s20.032 12.612 27.75 9.236c.209.075.467-8.995.467-8.995s-20.74-2.17-21.223-6.27c-.483-4.1 4.582-4.582 4.582-4.582l-2.171-3.135.483-1.688 3.618 4.582 8.2-6.994 48.233 54.986c2.633-1.068 3.195-1.712 3.377-4.341-.068-.066-47.269-54.263-47.269-54.263l3.617-3.859c.713-.803.963-1.145.964-2.412l5.547-4.822c1.669.572 2.732 1.572 3.618 2.893l15.249-12.924c.402.403 1.622.804 2.452.352l25.208-24.203-27.473 19.409-.968-.724c0-.804.998-1.003 0-2.412-1.067-1.281-2.653 1.206-2.893 1.206-.242 0-3.978-1.32-4.796-2.993l-.269 4.44-6.994 6.512-5.306-.242-7.717 7.477-.964 2.894 1.206 2.412s-4.101 3.618-4.101 3.376c0-.241-.829-1.066-.864-1.172l3.517-3.169.482-2.171-1.173-1.832c-.356.258-4.856 4.968-5.097 4.485-.405-.447-13.026-14.709-13.026-14.709l.722-2.653-8.198-8.924c-2.99-1.031-7.717-1.206-8.682 5.306-.751 1.529-6.994.241-6.994.241l-3.377.724-19.052 27.01 10.612 12.782 21.705-27.493.645-7.789 4.553 5.093c1.519.195 2.965.213 4.342-.482l12.86 14.353-2.141 2.09 1.945 2.122 2.137-1.544.885 1.255-2.911 1.954c-1.725-1.125-3.389-2.524-3.263-4.751l-7.236 6.029-.241 1.207-21.464 17.846-1.929.242-.483 5.546 13.988-11.575v-1.689l1.448 1.206 10.853-8.681s.724.965.483.965l-9.647 8.681-.241.966-1.688 1.447-.966-.724-13.022 11.576h-1.93l-7.235 7.236c-1.866.162-3.483.36-5.064 1.447l-12.961 11.443z" fill-rule="evenodd" stroke="#000" stroke-linecap="round" stroke-width="1.034614"/></g></svg>