<svg xmlns="http://www.w3.org/2000/svg" height="480" width="640" viewBox="0 0 640 480"><defs><clipPath id="a"><path fill-opacity=".67" d="M0-15.957h512v512h-512z"/></clipPath></defs><path fill="#fff" d="M0 0h640v480h-640z"/><g fill-rule="evenodd" clip-path="url(#a)"><path d="M6.135 474.149l355.301-.009-232.556-235.832 241.313.283-364.039-232.517-.02 468.075z" stroke="#000063" stroke-width="12.975354" fill="#ce0000"/><path fill="#fff" d="M169.531 348.703l-25.313 8.382 19.801 18.631-26.675-1.714 10.99 24.606-23.965-11.528.493 26.824-17.621-19.604-10.075 24.981-8.583-24.688-19.102 19.312 1.746-26.014-25.217 10.719 11.821-23.373-27.516.481 20.101-17.186-25.603-9.826 25.314-8.37-19.812-18.631 26.673 1.702-10.977-24.594 23.966 11.528-.494-26.836 17.622 19.605 10.063-24.97 8.594 24.688 19.102-19.323-1.757 26.014 25.228-10.706-11.82 23.372 27.504-.481-20.101 17.187zm-30.407-173.228l-10.628 7.867 5.238 4.328c12.72-9.832 21.772-18.818 28.846-33.73 1.659 19.904-16.587 64.586-64.469 65.079-51.246-.043-69.027-47.451-67.05-65.919 9.415 17.08 15.159 25.409 29.937 34.301l4.521-4.15-10.009-8.34 12.885-3.351-6.932-11.669 13.499.985-1.696-13.588 11.834 6.925 3.703-12.648 8.503 10.187 7.965-9.658 4.337 13.123 11.059-7.694-1.418 13.346 13.257-1.556-6.215 12.338 12.834 3.824z"/></g></svg>