<svg xmlns="http://www.w3.org/2000/svg" height="480" width="640" viewBox="0 0 640 480"><defs><clipPath id="a"><path fill-opacity=".67" d="M-54.667 0h682.67v512h-682.67z"/></clipPath></defs><g fill-rule="evenodd" clip-path="url(#a)"><path fill="#002170" d="M-80.07 0h960.512v480.256h-960.512z"/><path fill="#ffb20d" d="M-80.07 219.595h960.512v41.068h-960.512z"/><path fill="#fff" d="M203.028 410.834l-30.875-30.927-9.947 42.55-11.264-42.224-29.899 31.871 11.356-42.2-41.825 12.661 30.928-30.867-42.552-9.955 42.225-11.264-31.88-29.899 42.2 11.357-12.654-41.826 30.867 30.927 9.956-42.551 11.264 42.224 29.89-31.87-11.348 42.199 41.825-12.661-30.935 30.868 42.55 9.955-42.224 11.264 31.88 29.898-42.2-11.357z"/></g></svg>