<svg xmlns="http://www.w3.org/2000/svg" height="480" width="640" viewBox="0 0 640 480"><defs><clipPath id="a"><path fill-opacity=".67" d="M0 0h496.06v372.05h-496.06z"/></clipPath></defs><g clip-path="url(#a)"><path fill-rule="evenodd" fill="#fff" d="M.017 0h644.519v320.099h-644.519z"/><path d="M.017 0l-.026 24.025 153.805 79.029 57.878 1.677-211.659-104.731z" fill="#c00"/><path d="M65.87 0l186.473 97.398v-97.397h-186.46z" fill="#006"/><path fill="#c00" d="M277.212 0v124.339h-277.187v71.051h277.187v124.339h85.29v-124.339h277.187v-71.051h-277.187v-124.339h-85.29z"/><path d="M387.37 0v91.775l182.421-91.062-182.421-.712z" fill="#006"/><path d="M393.137 101.78l51.298-.413 199.31-100.656-52.885.862-197.723 100.207z" fill="#c00"/><path d="M.017 216.108v68.09l127.936-67.374-127.936-.723z" fill="#006"/><path d="M492.663 218.921l-53.332-.414 201.039 100.094-1.322-22.9-146.386-76.78zm-442.693 101.371l188.511-98.971-49.518.335-188.95 98.494" fill="#c00"/><path d="M642.391 28.12l-152.244 75.496 150.218.563v112.498h-127.935l126.752 68.677 1.86 34.939-67.702-.809-185.299-90.966v91.775h-135.045v-91.775l-173.816 91.527-78.501.248v319.724h1279.349v-639.462l-636.288-.555m-643.049 36.088l-.675 66.403 134.684 1.688-134-68.09z" fill="#006"/><g fill-rule="evenodd" fill="#ffd900"><path d="M640.017 0h640.017v640.017h-640.017zM0 320.008h675.407v320.008h-675.407z"/></g><g fill-rule="evenodd"><path d="M375.319 161.649c0 30.473-24.705 55.178-55.179 55.178-30.473 0-55.178-24.703-55.178-55.178s24.703-55.178 55.178-55.178c30.475 0 55.178 24.703 55.178 55.178z" fill="#000067"/><path fill="#fff40d" d="M309.892 147.496l10.612-31.729 10.611 31.727 34.43-.023-27.872 19.579 10.665 31.713-27.839-19.625-27.839 19.62 10.67-31.708-27.868-19.588zm191.657 5.194l5.259-14.853 5.259 14.853 17.064-.01-13.814 9.166 5.286 14.848-13.797-9.189-13.796 9.186 5.287-14.845-13.81-9.169zm-186.666 110.364l5.259-14.853 5.259 14.853 17.064-.01-13.814 9.166 5.286 14.848-13.797-9.189-13.796 9.186 5.287-14.845-13.81-9.169zm0-215.528l5.259-14.853 5.259 14.853 17.064-.01-13.814 9.166 5.286 14.848-13.797-9.189-13.796 9.186 5.287-14.845-13.81-9.169zm-187.243 105.164l5.259-14.853 5.259 14.853 17.063-.01-13.813 9.166 5.285 14.848-13.796-9.189-13.797 9.186 5.289-14.845-13.812-9.169z"/></g></g></svg>