<svg width="640" height="480" viewBox="0 0 640 480" fill="none" xmlns="http://www.w3.org/2000/svg">
<g clip-path="url(#clip0)">
<path fill-rule="evenodd" clip-rule="evenodd" d="M0 0H720V480H0V0Z" fill="#00247D"/>
<path fill-rule="evenodd" clip-rule="evenodd" d="M96 71.1111H106.667L0 0V7.11111V14.2222L85.3333 71.1111H96Z" fill="#CC142B"/>
<path fill-rule="evenodd" clip-rule="evenodd" d="M202.667 71.1111H213.333L320 0H309.333H298.667L192 71.1111H202.667Z" fill="#CC142B"/>
<path fill-rule="evenodd" clip-rule="evenodd" d="M10.6667 213.333H21.3333L128 142.222H117.333H106.667L0 213.333H10.6667Z" fill="#CC142B"/>
<path fill-rule="evenodd" clip-rule="evenodd" d="M74.6667 142.222L0 192V213.333L106.667 142.222H124.444V144.593L21.3333 213.333H32L124.444 151.704V213.333H195.556V151.704L288 213.333H320L213.333 142.222H234.667L320 199.111V192L245.333 142.222H320V71.1111H245.333L320 21.3333V0L213.333 71.1111H195.556V68.7408L298.667 0H288L195.556 61.6297V0H124.444V61.6297L32 0H0L106.667 71.1111H85.3333L0 14.2222V21.3333L74.6667 71.1111H0V142.222H74.6667Z" fill="white"/>
<path fill-rule="evenodd" clip-rule="evenodd" d="M234.667 142.222H224H213.333L320 213.333V206.222V199.111L234.667 142.222Z" fill="#CC142B"/>
<path fill-rule="evenodd" clip-rule="evenodd" d="M138.667 213.333V128H0V85.3333H138.667V0H181.333V85.3333H320V128H181.333V213.333H138.667Z" fill="#CC142B"/>
<path fill-rule="evenodd" clip-rule="evenodd" d="M489.616 42.7277L497.883 68.3355L524.794 68.2839L502.991 84.0585L511.357 109.634L489.616 93.7756L467.876 109.634L476.239 84.0585L454.439 68.2839L481.349 68.3355L489.616 42.7277Z" fill="white"/>
<path fill-rule="evenodd" clip-rule="evenodd" d="M576.368 133.009L583.801 156.036L608 155.99L588.397 170.175L595.917 193.173L576.368 178.913L556.819 193.173L564.34 170.175L544.737 155.99L568.936 156.036L576.368 133.009Z" fill="white"/>
<path fill-rule="evenodd" clip-rule="evenodd" d="M389.177 156.159L397.444 181.766L424.352 181.715L402.552 197.489L410.918 223.065L389.177 207.207L367.437 223.065L375.8 197.489L354 181.715L380.91 181.766L389.177 156.159Z" fill="white"/>
<path fill-rule="evenodd" clip-rule="evenodd" d="M489.168 305.122L498.272 333.324L527.908 333.264L503.899 350.639L513.109 378.807L489.168 361.341L465.224 378.807L474.436 350.639L450.427 333.264L480.063 333.324L489.168 305.122Z" fill="white"/>
<path fill-rule="evenodd" clip-rule="evenodd" d="M489.168 319.401L495.004 337.486L514.008 337.449L498.613 348.592L504.521 366.653L489.168 355.453L473.815 366.653L479.72 348.592L464.324 337.449L483.328 337.486L489.168 319.401Z" fill="#CC142B"/>
<path fill-rule="evenodd" clip-rule="evenodd" d="M389.177 170.426L394.179 185.927L410.469 185.896L397.274 195.445L402.336 210.926L389.177 201.327L376.016 210.926L381.08 195.445L367.882 185.896L384.172 185.927L389.177 170.426Z" fill="#CC142B"/>
<path fill-rule="evenodd" clip-rule="evenodd" d="M576.369 147.285L580.536 160.199L594.109 160.173L583.114 168.128L587.333 181.026L576.369 173.029L565.404 181.026L569.623 168.128L558.628 160.173L572.198 160.199L576.369 147.285Z" fill="#CC142B"/>
<path fill-rule="evenodd" clip-rule="evenodd" d="M489.616 56.9952L494.621 72.4962L510.908 72.4649L497.713 82.0137L502.775 97.4956L489.616 87.896L476.455 97.4956L481.519 82.0137L468.324 72.4649L484.611 72.4962L489.616 56.9952Z" fill="#CC142B"/>
</g>
<defs>
<clipPath id="clip0">
<rect width="640" height="480" fill="white"/>
</clipPath>
</defs>
</svg>
