<svg xmlns="http://www.w3.org/2000/svg" xmlns:xlink="http://www.w3.org/1999/xlink" height="480" width="640" viewBox="0 0 640 480"><defs><g id="b"><g id="a"><path d="M0-.325v.5l1-.5zM0 0l-.294-.405 1.103-.183z"/></g><use transform="scale(-1 1)" xlink:href="#a"/><use transform="rotate(72 0 0)" xlink:href="#a"/><use transform="rotate(-72 0 0)" xlink:href="#a"/><use transform="scale(-1 1) rotate(72)" xlink:href="#a"/></g><clipPath id="c"><path d="M0 0h600v300h-600z"/></clipPath><clipPath id="d"><path d="M0 0l300 150h-300zm300 0h300l-300 150zm0 150h300v150zm0 0v150h-300z"/></clipPath></defs><path d="M.004 0h640v480h-640z" fill="#00247d" fill-rule="evenodd"/><g transform="translate(-92.947 36.115) scale(.668)"><use fill="#fff" height="100%" width="100%" xlink:href="#b" transform="matrix(45.4 0 0 45.4 900 120)"/><use fill="#cc142b" height="100%" width="100%" xlink:href="#b" transform="matrix(30 0 0 30 900 120)"/></g><g transform="rotate(82 534.179 124.977) scale(.668)"><use fill="#fff" height="100%" width="100%" xlink:href="#b" transform="rotate(-82 519.022 -457.666) scale(40.4)"/><use fill="#cc142b" height="100%" width="100%" xlink:href="#b" transform="rotate(-82 519.022 -457.666) scale(25)"/></g><g transform="rotate(82 534.179 124.977) scale(.668)"><use fill="#fff" height="100%" width="100%" xlink:href="#b" transform="rotate(-82 668.57 -327.666) scale(45.4)"/><use fill="#cc142b" height="100%" width="100%" xlink:href="#b" transform="rotate(-82 668.57 -327.666) scale(30)"/></g><g transform="translate(-92.947 36.115) scale(.668)"><use fill="#fff" height="100%" width="100%" xlink:href="#b" transform="matrix(50.4 0 0 50.4 900 480)"/><use fill="#cc142b" height="100%" width="100%" xlink:href="#b" transform="matrix(35 0 0 35 900 480)"/></g><path clip-path="url(#c)" d="M0 0l600 300m-600 0l600-300" transform="matrix(.607 0 0 .731 .004 0)" stroke="#fff" stroke-width="60"/><path clip-path="url(#d)" d="M0 0l600 300m-600 0l600-300" transform="matrix(.607 0 0 .731 .004 0)" stroke="#cc142b" stroke-width="40"/><path style="line-height:normal;text-indent:0;text-align:start;text-decoration-line:none;text-decoration-style:solid;text-decoration-color:#000;text-transform:none;block-progression:tb;isolation:auto;mix-blend-mode:normal" clip-path="url(#c)" d="M151.707-.002v79.37h-151.703v60.68h151.703v79.37h60.682v-79.37h151.703v-60.68h-151.703v-79.371z" color="#000" font-weight="400" font-family="sans-serif" overflow="visible" fill="#fff"/><path style="line-height:normal;text-indent:0;text-align:start;text-decoration-line:none;text-decoration-style:solid;text-decoration-color:#000;text-transform:none;block-progression:tb;isolation:auto;mix-blend-mode:normal" d="M163.844.002v91.502h-163.84v36.408h163.84v91.502h36.408v-91.502h163.84v-36.408h-163.84v-91.502z" color="#000" font-weight="400" font-family="sans-serif" overflow="visible" fill="#cc142b"/></svg>