<svg xmlns="http://www.w3.org/2000/svg" xmlns:xlink="http://www.w3.org/1999/xlink" height="480" width="640" viewBox="0 0 640 480"><path fill="#0038a8" d="M0 0h640v240h-640z"/><path fill="#ce1126" d="M0 240h640v240h-640z"/><path d="M415.692 240l-415.692 240v-480" fill="#fff"/><g transform="translate(149.333 240) scale(5.333)" fill="#fcd116"><circle r="9"/><g id="d"><g id="c"><g id="b"><path d="M-19 0l1.178 1.178 17.822-1.178-17.822-1.178z"/><path id="a" d="M-17.006 2.232l.962.962 16.045-3.194z"/><use height="100%" width="100%" xlink:href="#a" transform="scale(1 -1)"/></g><use height="100%" width="100%" xlink:href="#b" transform="rotate(45)"/></g><use height="100%" width="100%" xlink:href="#c" transform="rotate(90)"/></g><use height="100%" width="100%" xlink:href="#d" transform="scale(-1)"/><g transform="translate(-2.02)"><g id="f" transform="translate(37.962)"><path id="e" d="M5 0l-3.382 1.176-.073 3.58-2.163-2.854-3.427 1.037 2.045-2.939z"/><use height="100%" width="100%" xlink:href="#e" transform="scale(1 -1)"/></g><use height="100%" width="100%" xlink:href="#f" transform="rotate(120)"/><use height="100%" width="100%" xlink:href="#f" transform="rotate(-120)"/></g></g></svg>