<svg xmlns="http://www.w3.org/2000/svg" width="640" height="480" viewBox="0 0 640 480">
	<path fill="#0C590B" d="M0.3,0H640v480.3H0.3L0.3,0z"/>
	<path fill="#FFFFFF" d="M0.3,0h160.4v480.3H0.3L0.3,0z"/>
	<path fill="#FFFFFF" d="M427.7,211.4l-29.2-6.1l-15.4,25.6l-3.2-29.7l-29.1-6.7l27.3-12.2l-2.6-29.8l20,22.2L423,163l-14.9,25.9L427.7,211.4L427.7,211.4z M438.8,287.1c-26,57.2-94.1,82.2-151.4,55.6c-57.4-26.6-82.3-94.7-55.8-152c13.6-29.3,35.7-49.4,67-60.3c-3.6,3-7.2,6.2-11.1,10.2c-40.4,41.7-39.4,108.4,2.3,148.9C331.6,329.9,398.3,328.8,438.8,287.1L438.8,287.1z"/>
</svg>
