<svg xmlns="http://www.w3.org/2000/svg" height="480" width="640" viewBox="0 0 640 480"><defs><clipPath id="a"><path fill-opacity=".67" d="M-52.334 0h682.67v512h-682.67z"/></clipPath></defs><g fill-rule="evenodd" clip-path="url(#a)"><path fill="#0c590b" d="M-40.047 0h720.384v480.256h-720.384z"/><path fill="#fff" d="M-40.047 0h180.584v480.256h-180.584z"/><g fill="#fff"><path d="M427.735 211.425l-29.233-6.15-15.373 25.613-3.185-29.703-29.112-6.707 27.265-12.207-2.618-29.757 20.036 22.157 27.492-11.686-14.881 25.902 19.609 22.536zM438.76 287.109c-25.95 57.18-94.06 82.158-151.403 55.595-57.351-26.57-82.335-94.672-55.765-152.023 13.551-29.251 35.727-49.352 67.031-60.323-3.601 3.045-7.164 6.203-11.068 10.232-40.437 41.733-39.387 108.425 2.345 148.86 41.732 40.437 108.425 39.388 148.859-2.345z"/></g></g></svg>