<svg xmlns="http://www.w3.org/2000/svg" height="480" width="640" viewBox="0 0 640 480"><defs><clipPath id="a"><path fill-opacity=".67" d="M0 0h682.67v512h-682.67z"/></clipPath></defs><g fill-rule="evenodd" clip-path="url(#a)"><path d="M0 475.472l925.716-475.472h-925.716v475.472z" fill="#0000d6"/><path d="M960 0l-934.528 480h934.528v-480z" fill="#006000"/><path d="M960 0h-51.429l-908.569 455.025v24.975h51.428l908.569-454.125v-25.871z" fill="#fc0"/><path fill="#fff" d="M66.935 8.554l11.116 32.289 36.066-.024-29.197 19.926 11.171 32.274-29.161-19.973-29.162 19.969 11.177-32.27-29.192-19.935 36.066.034zm179.197 0l11.115 32.289 36.066-.024-29.197 19.926 11.171 32.274-29.161-19.973-29.162 19.969 11.177-32.27-29.192-19.935 36.066.034zm0 135.449l11.115 32.289 36.066-.024-29.197 19.926 11.171 32.274-29.161-19.973-29.162 19.969 11.177-32.27-29.192-19.935 36.066.034zm-89.075-66.935l11.116 32.289 36.066-.024-29.197 19.926 11.171 32.274-29.161-19.973-29.162 19.969 11.177-32.27-29.192-19.935 36.066.034zm-90.122 66.935l11.116 32.289 36.066-.024-29.197 19.926 11.171 32.274-29.161-19.973-29.162 19.969 11.177-32.27-29.192-19.935 36.066.034z"/></g></svg>