<svg xmlns="http://www.w3.org/2000/svg" height="480" width="640" viewBox="0 0 640 480"><defs><clipPath id="a"><path fill-opacity=".67" d="M0 0h682.67v512h-682.67z"/></clipPath></defs><g clip-path="url(#a)"><path d="M0 0h720v240h-400.003l-319.997-240z" fill-rule="evenodd" fill="#ed2939"/><path d="M0 480h720v-240h-400.003l-319.997 240z" fill-rule="evenodd" fill="#002395"/><path d="M0 0l319.997 240-319.997 240v-480z" fill-rule="evenodd" fill="#fff"/><path fill="#ff0" d="M161.548 181.095l.097-3.715s-1.995-3.178.321-6.593c0 0-4.92-2.603-3.774-6.678 0 0-4.449-1.137-4.122-6.03 0 0-4.802-.333-5.299-4.421 0 0-4.803.791-6.916-3.192 0 0-4.684.916-6.006-2.368 0 0-4.553 1.578-7.256-2.283 0 0-4.808 1.943-6.823-1.7-1.988 3.63-6.797 1.7-6.797 1.7-2.67 3.847-7.256 2.25-7.256 2.25-1.275 3.297-5.947 2.362-5.947 2.362-2.107 3.984-6.903 3.192-6.903 3.192-.471 4.075-5.266 4.408-5.266 4.408.379 4.905-4.063 6.019-4.063 6.019 1.172 4.074-3.743 6.67-3.743 6.67 2.375 3.434.399 6.587.399 6.587l-.112 3.427 79.477.367"/><path d="M377.17 843.11l.091-3.458s-1.856-2.958.299-6.136c0 0-4.578-2.422-3.513-6.215 0 0-4.14-1.059-3.835-5.613 0 0-4.468-.31-4.93-4.114 0 0-4.469.736-6.435-2.971 0 0-4.358.852-5.588-2.204 0 0-4.237 1.468-6.751-2.125 0 0-4.474 1.808-6.35-1.582-1.85 3.379-6.324 1.582-6.324 1.582-2.484 3.58-6.75 2.094-6.75 2.094-1.188 3.068-5.534 2.198-5.534 2.198-1.96 3.708-6.422 2.97-6.422 2.97-.439 3.794-4.9 4.103-4.9 4.103.352 4.566-3.78 5.601-3.78 5.601 1.089 3.793-3.483 6.209-3.483 6.209 2.21 3.196.372 6.13.372 6.13l-.104 3.19 73.949.341h-.012z" stroke="#000" stroke-width=".289" transform="matrix(1.075 0 0 1.075 -243.946 -725.187)" fill="none"/><path fill="#f00" d="M159.699 176.453c-12.484-1.249-26.857-4.212-37.953 2.034-7.439-4.382-17.796-4.114-26.614-3.257-4.789.857-10.422.857-15.428 1.674l-.785.111c-9.081.603-17.318-2.079-25.208-5.605 2.506 14.22 5.287 28.793 6.653 43.68 2.978 22.048-10.434 40.559-4.933 62.339 3.285 10.451 14.78 16.528 25.3 17.732 10.186.601 20.726 2.27 30.154 4.316 1.792.373 3.919 1.205 5.156 1.74 2.597 1.086 4.5 2.682 6.169 4.389 5.692-5.927 14.033-7.575 22.264-8.445 14.831-1.733 33.117-.79 42.197-14.225v-.759c4.934-7.43 4.28-18.764 2.14-27.183-.144-2.937-.929-5.527-1.355-8.325-9.061-23.927-1.302-50.835 2.597-74.951-4.763 2.603-10.074 3.833-15.374 5.135-4.226.563-8.936.307-13.215.078l-1.772-.477"/><path fill="#80cfe1" d="M178.335 245.123c-.058 1.576.792 2.813 1.1 4.271 1.734 10.458 3.409 24.311-7.36 30.801-11.914 7.573-27.537 4.329-41.322 8.338-2.754.766-6.548 3.297-8.485 5.089-1.243-.818-2.493-2.073-4.096-2.813-11.344-6.03-26.091-4.01-38.894-7.267-6.431-2.034-13.136-7.043-14.766-13.625-4.187-17.266 5.843-31.984 4.658-49.113-.766-13.081-2.964-25.639-5.987-37.903 10.01 4.663 21.596 5.442 32.85 3.206 8.334-1.165 18.037-1.191 25.849 2.334 4.305-1.852 9.342-2.682 13.982-3.192 8.819.857 18.298 2.453 27.38 2.388 6.066-.315 11.574-2.068 16.847-4.402-3.127 20.269-9.133 41.501-1.76 61.888"/><path fill="#fff" d="M160.333 249.163l-.097-19.059h2.348l-29.14-18.819-.052-9.778h2.813l-14.57-10.432-14.498 10.426h2.807l.052 9.772-28.983 18.792 2.316.012.098 19.047 76.899.052"/><path d="M376.04 906.46l-.091-17.739h2.185l-27.113-17.513-.049-9.1h2.618l-13.557-9.71-13.49 9.704h2.611l.05 9.094-26.968 17.49 2.155.011.091 17.727 71.551.05.006-.014z" stroke="#000" stroke-width="1.242" transform="matrix(1.075 0 0 1.075 -243.946 -725.187)" fill="none"/><path fill="#fff" d="M169.297 274.198l.007 5.964-93.876-.105-.039-5.939 93.916.08"/><path d="M384.38 929.76l.006 5.551-87.347-.097-.036-5.528 87.384.074h-.006z" stroke="#000" stroke-width="1.242" transform="matrix(1.075 0 0 1.075 -243.946 -725.187)" fill="none"/><path fill="#fff" d="M81.662 273.844l-.079-20.184 3.801-.008-.209 20.421.229-20.257-5.475-.157v-4.331l83.899.094.039 4.29h-5.175l.097 20.439-.183-20.439h3.853l.085 20.21"/><path d="M302.84 929.43l-.073-18.786 3.536-.007-.194 19.005.213-18.852-5.095-.146v-4.03l78.064.085.036 3.994h-4.815l.091 19.023-.17-19.023h3.585l.08 18.809M319.62 924.8l-.055-13.1h-10.482l.061 13.087 10.476.013M311.94 914.43l.03 7.61h4.797l-.024-7.61h-4.803m58.92 10.41l-.06-13.087-10.447-.012.049 13.099h10.458" stroke="#000" stroke-width="1.242" transform="matrix(1.075 0 0 1.075 -243.946 -725.187)" fill="none"/><path d="M363.18 914.48l.055 7.585h4.79l-.042-7.585h-4.803m7.6-10.97l-.06-13.101h-10.46l.037 13.101h10.488-.006zM363.1 893.16l.03 7.597h4.791l-.006-7.597h-4.815m-43.57 10.3l-.073-13.076-10.464-.013.049 13.082h10.488v.007zM311.85 893.11l.024 7.585 4.803.012-.036-7.597h-4.791m26.65 10.37l-.049-13.076-10.47-.012.043 13.087h10.476M330.83 893.13l.024 7.585 4.797.024-.03-7.609h-4.791m22.29 10.38l-.073-13.101-10.464-.012.049 13.087 10.488.025M345.44 893.14l.036 7.61h4.797l-.024-7.61h-4.809" stroke="#000" stroke-width="1.242" transform="matrix(1.075 0 0 1.075 -243.946 -725.187)" fill="none"/><path fill="#fff" d="M138.494 241.673l.125 32.449-32.601-.052-.117-32.422 32.587.025"/><path d="M355.72 899.49l.116 30.199-30.333-.049-.11-30.174 30.321.024h.006zm-30.51 8.62l30.54.024m-26.73 21.546l-.103-21.342m23.223 21.352l-.103-21.329m14.753-21.731l-17.081-12.474-19.193-.024-16.947 12.449 53.222.048m-34.801-22.829l.03 7.61 16.144.011-.03-7.609-16.144-.012M336.37 865.69l.024 3.792h7.415l-.025-3.792h-7.414m3.67-10.55l8.979 6.348-17.891-.023 8.912-6.325" stroke="#000" stroke-width="1.242" transform="matrix(1.075 0 0 1.075 -243.946 -725.187)" fill="none"/><path fill="#fff" d="M160.656 189.401c2.741-.066 3.448 11.289 3.455 16.914 2.355.66 7.575 3.944 9.885 6.913l-26.484-.039c2.278-2.93 7.459-6.227 9.795-6.887 0-5.632.576-16.979 3.35-16.914"/><path d="M376.34 850.84c2.55-.06 3.208 10.507 3.214 15.742 2.191.615 7.05 3.671 9.198 6.434l-24.642-.036c2.118-2.727 6.94-5.795 9.113-6.41 0-5.241.536-15.803 3.117-15.742m-49.53 49.502h2.21l-.646 1.186s1.066 1.37.019 2.94l.578 1.09h-2.13l.578-1.035s-1.09-1.82.048-2.995l-.657-1.186m4.5 0h2.21l-.64 1.186s1.066 1.334.007 2.94l.572 1.09h-2.125l.572-1.035s-1.065-1.82.055-2.995l-.651-1.186m4.92 0h2.204l-.658 1.186s1.078 1.37.018 2.94l.579 1.115-2.113-.024.567-1.036s-1.078-1.807.042-2.995l-.645-1.186h.006zm5.54.02h2.222l-.651 1.2s1.065 1.345.006 2.921l.596 1.108h-2.143l.573-1.035s-1.066-1.832.073-2.995l-.67-1.199h-.006zm4.93 0h2.204l-.652 1.2s1.072 1.345.012 2.915l.585 1.114h-2.125l.554-1.035s-1.071-1.82.085-2.995l-.663-1.199m4.9.01l2.204-.012-.652 1.199s1.09 1.346.03 2.922l.555 1.108h-2.131l.572-1.035s-1.065-1.82.073-2.995l-.651-1.187" stroke="#000" stroke-width="1.242" transform="matrix(1.075 0 0 1.075 -243.946 -725.187)" fill="none"/><path fill="#ff0" d="M122.351 315.715c12.208.039 27.223-2.453 34.256-6.088l15.446-1.369.307 18.845c-13.086 7.214-43.297 8.764-49.945 8.711-6.653.052-37.238-1.523-50.383-8.764l.171-18.857 15.479 1.393c7.033 3.618 22.506 6.128 34.701 6.128h-.033"/><path d="M340.7 968.4c11.359.036 25.329-2.283 31.873-5.667l14.372-1.273.286 17.538c-12.175 6.714-40.286 8.157-46.47 8.108-6.192.049-34.65-1.418-46.88-8.156l.158-17.55 14.403 1.296c6.544 3.367 20.94 5.704 32.287 5.704h-.03" stroke="#000" stroke-width=".289" transform="matrix(1.075 0 0 1.075 -243.946 -725.187)" fill="none"/><path fill="#ff0" d="M32.266 235.334l13.609 4.331-4.116 22.029-12.881 2.001s-2.172-11.584 3.388-28.373"/><path d="M256.88 893.59l12.662 4.03-3.829 20.503-11.986 1.862s-2.021-10.781 3.153-26.407v.012z" stroke="#000" stroke-width=".289" transform="matrix(1.075 0 0 1.075 -243.946 -725.187)" fill="none"/><path fill="#7e7e7e" d="M41.756 261.455l-12.876 2.243 8.145-11.584 4.731 9.34"/><path d="M265.71 917.9l-11.98 2.088 7.579-10.781 4.401 8.693" stroke="#000" stroke-width=".289" transform="matrix(1.075 0 0 1.075 -243.946 -725.187)" fill="none"/><path fill="#ff0" d="M24.13 251.204l13.118.948c.294 11.113 1.642 53.523 52.293 55.825l-1.577 15.429c-61.655.64-66.339-52.018-63.833-72.203"/><path d="M249.31 908.36l12.205.882c.274 10.343 1.528 49.813 48.656 51.956l-1.467 14.36c-57.367.596-61.726-48.413-59.394-67.198zm44.8 70.14l14.384-3.141" stroke="#000" stroke-width=".289" transform="matrix(1.075 0 0 1.075 -243.946 -725.187)" fill="none"/><path fill="#ff0" d="M211.362 235.495l-13.556 4.291 4.299 21.997 12.908 2.073s2.074-11.576-3.651-28.372"/><path d="M423.52 893.74l-12.613 3.993 4 20.472 12.01 1.93s1.93-10.775-3.397-26.407v.012z" stroke="#000" stroke-width=".289" transform="matrix(1.075 0 0 1.075 -243.946 -725.187)" fill="none"/><path fill="#7e7e7e" d="M202.098 261.551l12.908 2.316-8.257-11.589-4.652 9.274"/><path d="M414.9 917.99l12.01 2.155-7.682-10.786-4.328 8.631" stroke="#000" stroke-width=".289" transform="matrix(1.075 0 0 1.075 -243.946 -725.187)" fill="none"/><path fill="#ff0" d="M219.649 251.377l-13.136.896c-.19 11.1-1.159 53.528-51.81 55.778l1.721 15.416c61.642.713 65.882-51.921 63.225-72.098"/><path d="M431.23 908.52l-12.223.835c-.177 10.33-1.077 49.818-48.206 51.912l1.601 14.348c57.355.662 61.3-48.322 58.828-67.101v.005zm-44.19 70.05l-14.42-3.15" stroke="#000" stroke-width=".289" transform="matrix(1.075 0 0 1.075 -243.946 -725.187)" fill="none"/><path fill="#009fc5" d="M121.761 346.666c-.37.237-.872.3-1.451.272l-2.61-.133.223-3.257 2.59.138c.509.035.913.134 1.165.287.523.272.753.775.704 1.472-.034.6-.244.991-.628 1.22m-4.382 5.13l.258-3.971 3.043.21c.984.076 1.716-.182 2.212-.685.516-.488.782-1.13.816-1.855.063-.845-.153-1.535-.656-2.045-.481-.488-1.165-.746-2.023-.83l-4.348-.271-.6 9.348 1.291.084m9.475-7.808l3.182.035c.46.042.824.098 1.089.223.488.23.719.691.719 1.36 0 .63-.182 1.048-.538 1.3-.342.229-.837.333-1.43.333l-3.057-.035.028-3.216m-.049 8.282l.028-3.991 2.987.042c.53 0 .92.042 1.193.174.44.202.656.629.677 1.214l.077 1.57c.02.376.028.607.049.76.041.112.062.23.118.315h1.605l-.028-.203c-.181-.098-.328-.286-.39-.572-.056-.182-.084-.454-.098-.796l-.028-1.248c-.02-.566-.119-.956-.335-1.173a1.673 1.673 0 0 0-.844-.6c.446-.236.781-.508 1.026-.844.23-.37.349-.837.349-1.408 0-1.075-.44-1.808-1.333-2.205-.482-.216-1.096-.328-1.822-.342l-4.487-.042-.035 9.376h1.291m9.961-1.982c-.572-.697-.88-1.57-.95-2.602-.062-1.298.19-2.288.782-2.959.6-.725 1.375-1.073 2.387-1.13 1.019-.055 1.856.273 2.477.914.636.629.998 1.5 1.061 2.589.035 1.046-.146 1.974-.628 2.79-.474.83-1.263 1.298-2.428 1.326-1.215.063-2.122-.223-2.701-.928m-1.535-5.903c-.6.928-.845 2.003-.782 3.301.09 1.402.523 2.56 1.34 3.433.907.872 2.108 1.31 3.587 1.227 1.584-.07 2.777-.67 3.587-1.772.656-.997.97-2.156.9-3.586-.09-1.277-.46-2.317-1.151-3.091-.873-1.04-2.15-1.5-3.88-1.43-1.633.104-2.834.704-3.608 1.918m44.073-13.489c.9-.154 1.682-.111 2.394.132 1.047.328 1.752 1.103 2.191 2.289l-1.29.18c-.28-.64-.678-1.08-1.215-1.325-.523-.23-1.18-.286-1.933-.173a3.01 3.01 0 0 0-2.08 1.276c-.488.753-.635 1.758-.418 3.042.181 1.06.572 1.96 1.214 2.56.593.614 1.465.83 2.603.67.851-.14 1.535-.48 2.017-1.068.502-.557.649-1.402.481-2.49l-3.008.46-.153-1.032 4.187-.642.816 4.96-.83.126-.516-1.144c-.35.517-.698.914-1.005 1.144-.517.405-1.215.663-2.087.789-1.13.174-2.163-.029-3.098-.629-1.026-.76-1.69-1.89-1.94-3.46-.273-1.541-.028-2.86.684-3.9.676-1.004 1.66-1.59 2.986-1.78m9.47-.707l3-1.089c.412-.153.768-.202 1.075-.166.551.04.956.369 1.186 1.024.217.559.217 1.047-.027 1.39-.259.355-.663.613-1.25.829l-2.819 1.012-1.165-3m3 7.751l-1.465-3.76 2.791-1.005c.524-.168.887-.259 1.159-.23.495.062.872.363 1.123.934l.635 1.431c.14.355.252.571.342.67.042.125.133.202.203.285l1.514-.557-.084-.203c-.223 0-.44-.125-.6-.37-.118-.174-.23-.425-.39-.718l-.496-1.173c-.223-.509-.454-.822-.719-1.011a2.395 2.395 0 0 0-.998-.272c.307-.356.53-.712.614-1.13.091-.426.05-.9-.153-1.43-.384-.998-1.089-1.542-2.08-1.612-.523-.042-1.123.07-1.814.313l-4.215 1.501 3.405 8.818 1.235-.454m10.967-4.673l-5.352-7.807 5.876-3.747.649.943-4.816 3.076 1.647 2.386 4.446-2.86.607.914-4.446 2.86 1.815 2.63 4.899-3.132.649.921-5.98 3.817m4.695-13.811l1.535-1.688c.712-.754 1.466-1.096 2.29-.998.823.07 1.66.502 2.553 1.284.245.188.46.432.684.704.391.51.621.957.768 1.403.125.559.098 1.068-.098 1.556-.118.244-.328.53-.642.872l-1.542 1.675-5.548-4.821m8.11 3.676c1.088-1.2 1.325-2.49.69-3.948a6.668 6.668 0 0 0-1.717-2.226c-.984-.873-2.01-1.319-3.091-1.402-1.2-.091-2.22.342-3.106 1.31l-2.617 2.805 7.216 6.294 2.617-2.819m5.597-7.287l-8.304-4.877.677-1.074 8.318 4.85-.684 1.115m3.249-5.676l-8.967-3.587 2.645-6.307 1.088.419-2.156 5.198 2.7 1.06 2.017-4.786 1.033.426-1.996 4.78 3.022 1.227 2.212-5.26 1.089.41-2.694 6.42m4.123-11.014l-9.435-2.086.314-1.458 8.716-2.944-7.655-1.689.279-1.144 9.435 2.03-.3 1.416-8.73 3.008 7.655 1.653-.272 1.214m-.752-11.977l.118-1.186c.545.015 1.005-.07 1.354-.257.684-.37 1.082-1.074 1.186-2.115.042-.487.021-.914-.09-1.318-.203-.781-.642-1.214-1.347-1.284-.523-.056-.9.07-1.173.356-.244.328-.502.802-.697 1.472l-.433 1.235c-.28.809-.537 1.367-.817 1.681-.446.587-1.074.79-1.877.733-.858-.09-1.556-.432-2.051-1.088-.51-.6-.72-1.458-.594-2.52.084-.968.405-1.785.977-2.44.53-.6 1.354-.887 2.408-.776l-.098 1.186c-.516 0-.928.091-1.228.3-.544.3-.844.935-.935 1.863-.077.768.028 1.284.32 1.675.294.328.664.537 1.096.572.461.041.824-.105 1.075-.46.182-.245.398-.775.691-1.633l.426-1.298c.21-.6.46-1.06.753-1.388.524-.544 1.208-.775 2.066-.711 1.047.11 1.794.544 2.177 1.34.377.802.524 1.688.433 2.692-.119 1.137-.488 2.03-1.172 2.63-.684.614-1.536.823-2.568.74m-195.588-.574l.217 1.172c-.524.104-.942.314-1.25.586-.55.516-.74 1.291-.55 2.345.083.446.244.885.446 1.235.419.711.963.997 1.654.885.51-.09.844-.285 1.005-.648.153-.357.265-.9.3-1.598l.063-1.32c.041-.815.132-1.456.314-1.813.286-.642.823-1.04 1.626-1.171.858-.155 1.612.04 2.26.53.657.453 1.09 1.241 1.25 2.287.202.957.112 1.815-.265 2.589-.363.754-1.061 1.214-2.129 1.409l-.21-1.185c.496-.182.866-.357 1.11-.6.42-.468.545-1.145.384-2.072-.125-.755-.384-1.243-.774-1.486-.384-.287-.768-.399-1.187-.328-.467.07-.774.328-.92.746-.091.279-.161.858-.224 1.744l-.063 1.367c-.035.642-.132 1.173-.349 1.536-.342.669-.921 1.08-1.765 1.213-1.068.181-1.892-.063-2.478-.747-.6-.67-.97-1.472-1.158-2.47-.21-1.185-.056-2.106.419-2.845.481-.76 1.242-1.2 2.275-1.347m-.597 12.352l9.226-2.776 2.15 6.495-1.124.355-1.759-5.337-2.805.845 1.626 4.932-1.075.342-1.612-4.946-3.126.934 1.786 5.456-1.102.315-2.185-6.614m4.093 11.266l8.486-4.5.907 1.584-5.834 6.167 8.52-1.458.88 1.57-8.465 4.472-.6-1.04 4.996-2.63c.182-.105.461-.258.866-.474.397-.181.844-.426 1.29-.656l-8.485 1.444-.621-1.102 5.792-6.147-.28.14c-.18.104-.495.258-.92.502a6.979 6.979 0 0 1-.935.502l-4.983 2.672-.614-1.06m15.809 12.507c-.426-.098-.845-.342-1.256-.768l-1.794-1.849 2.415-2.212 1.807 1.843c.35.342.572.676.691.963.168.55 0 1.053-.51 1.527-.46.426-.92.6-1.353.495m-6.818.858l2.959-2.714 2.1 2.128c.677.691 1.368 1.005 2.094.992a2.953 2.953 0 0 0 1.933-.845c.628-.558.928-1.214.928-1.918-.007-.684-.321-1.326-.9-1.926l-3.015-3.077-7.02 6.446.907.914m8.483 7.532l5.087-7.975 6.015 3.656-.628.95-4.94-2.958-1.529 2.414 4.543 2.754-.586.914-4.55-2.741-1.73 2.699 5.003 3.008-.6.941-6.085-3.663m15.052-1.535l3.056.97c.433.132.747.3.956.489.391.37.496.9.266 1.541-.189.558-.475.921-.921 1.075-.398.07-.9.07-1.487-.112l-2.882-.92 1.012-3.043m-2.638 7.835l1.27-3.802 2.847.928c.51.133.88.314 1.061.502.349.314.454.781.28 1.36l-.427 1.514-.188.726c0 .119 0 .245.021.328l1.5.488.091-.216c-.16-.126-.251-.355-.244-.641.035-.176.084-.454.181-.776l.363-1.214c.147-.53.203-.927.07-1.213-.112-.3-.3-.573-.614-.83.474-.084.886-.23 1.235-.49.328-.285.607-.683.775-1.24.342-1.013.153-1.857-.6-2.499-.377-.334-.915-.62-1.62-.886l-4.27-1.318-2.987 8.895 1.249.384" transform="scale(.938)"/><path fill="#bc715f" d="M73.619 164.69c1.034-2.495 10.618-9.294 42.064-6.316 0 0 5.315 3.245 8.437 2.827 1.78-.23-1.048.111-3.371-1.82-2.369-1.93-2.874-5.889 2.54-5.785 5.387.138 25.555 1.276 25.935 3.088.353 1.833-10.664 2.598-14.761 2.494-4.118-.111-3.639 1.97.458 1.813 12.804-.459 26.78-4.968 41.54 5.47 1.761 1.269-4.452 1.473-9.256-.569 0 0-13.019.674-18.649-.249 0 0-4.327 3.52-9.962 3.174.733 1.825-2.082 8.639-19.801 3.514-2.927.897-13.589 2.683-12.424-.484-2.808 0-7.731.903-8.465-.694-.706-1.57 8.667-3.946 10.31-5.647 0 0-19.828.189-23.585-1.179 0 0-11.697 2.625-11.01.347"/><path fill="#008737" d="M79.974 192.448c.426-.575.596-1.61 1.499-1.583 1.964.523 3.299 4.116 5.714 1.786.858-.189 1.185.976 1.892 1.113.452 1.996 2.055-.406 3.253-.269 2.561-1.139 5.728-1.407 8.759-.844.091 1.957-1.441 4.117-3.365 5.229.039 1.97 1.826 3.233 1.793 5.215-.308.741-.053 1.904-1.172 2.146-1.42-.255-2.821-.405-3.999-1.197-.144-.144-.263-.426-.563-.334-.144.66.89 1.316 1.295 1.989-.713 1.218-1.898.105-2.893.118-.295.701-.013 1.584-.734 2.035-1.257-.039-1.512-1.407-2.284-2.087-.793.856.556 1.368.746 2.048-.484 2.579-.418 5.098-2.998 6.786l-1.728.858c-.472-1.296-.177-3.26-.492-4.615-1.021 1.663-1.82 3.116-3.319 4.522-1.754-.576-2.776-2.643-3.161-4.358-.734-1.996-.314-4.385 1.263-5.831-.537-1.048-2.377-.805-2.639-2.296-2.756-1.794-4.281 3.14-6.061.575-.576-2.395.112-5.373 1.846-7.16-.386-.981-1.67-.725-2.429-1.288-1.733-1.474-4.234-3.03-4.11-5.688 4.746-1.792 10.421-.477 13.871 3.128"/><path fill="#ff0" d="M82.436 192.179c-.111 2.171 1.467.588 2.639 1.903-.916-.36-1.585 1.583-2.481.471l-.563.537c.327.746.962.844.3 1.662-.981.372-1.177-.857-1.636-1.341-.079-.216.15-.622-.209-.766-.556.471-1.139.642-1.905.563-.209-.418-.615-.968-.203-1.289.752-1.015 1.917.366 2.488-.347.091-.628-.459-1.393.255-1.826.491.085 1.119-.182 1.323.433m5.864 1.784c.058.419-.216 1.007.334 1.304.713-.387 1.473-.094 1.885.614-.007.379.111.876-.386 1.06l-1.113-.209c.079-.217-.275-.354-.413-.563-.491-.15-.779.248-1.144.49.275.419.91.648.759 1.186-.655.654-.976-.563-1.695-.256-.492-.189.176-1.21-.596-1.518-.916 0-.308 1.505-1.48.916-.418-.472-.831-1.107-.379-1.636.491-.328 1.323-.244 1.741.182.713-.791.785-3.847 2.494-1.57m-7.318 3.15c.477.688-.106 1.623.503 2.389.957-1.786 1.879.386 3.018.216.347.425.117 1.015.183 1.499-1.407.372-3.103.818-4.347-.308l-.347.399c.74.688 1.441 1.466.852 2.617-1.054.23-2.685.256-3.215-.83-.275-.896.642-1.544-.327-2.264-.7.87-.668 2.035-2.127 1.243-.903-.497-1.172-1.523-.719-2.388.942-1.486 2.592.047 3.613-.681.144-1.276-.328-2.388.844-3.094 1.002-.177 1.466.575 2.075 1.203"/><path fill="#fff" d="M84.985 197.898c-.471 2.172-2.108-.112-2.873-.204 1.021-1.811 1.662.591 2.873.204m5.097 2.365c-1.139.32-.962-1.1-1.525-1.657l.439-.399c.413.497.726 1.395 1.086 2.055"/><path fill="#ff0" d="M88.544 199.822c.327.753-.74 1.355.17 1.904.288-.241.642-.575.793-.713.779.23 1.682.367 2.225 1.139.583 1.597-1.034 1.557-1.951 2.003l-.91-.039c.217-.445-.392-.635-.542-.942-.419-.105-.766.025-1.002.379.203 1.015 1.44 1.807.163 2.709-1.08-.071-2.756.347-2.657-1.144-.406-.844 1.099-2.147-.51-2.199-.531 1.139-1.113 2.237-2.495 1.158l.171-1.623c1.323.038 2.887.267 3.483-1.211.38-1.073-.661-2.062.268-2.912 1.349-.308 2.108.596 2.795 1.491"/><path d="M87.576 202.263c.34.806-.576.858-1.008 1.257-.582.046-.988-.184-1.341-.576-.263-.976.464-1.074 1.021-1.46.648-.268.916.484 1.329.779"/><path fill="#fff" d="M86.781 202.79c-.144.189-.347.131-.563.183l-.204-.975c.431.038.995.176.766.792"/></g></svg>