<svg xmlns="http://www.w3.org/2000/svg" width="640" height="480" viewBox="0 0 640 480">
<style type="text/css">
	.st0{fill:#A90000;}
	.st1{fill:#28AE66;}
	.st2{fill:#CA3745;}
	.st3{fill:#FFFFFF;}
	.st4{fill:#383739;}
	.st5{fill:#FAAE29;}
	.st6{fill:#383739;stroke:#000000;stroke-width:5.649718e-02;}
</style>
<g>
	<path id="_x34_52" class="st0" d="M208.4,440.4c4,0,7.2,3.2,7.2,7.2v7.2c0,4-3.2,7.2-7.2,7.2h-7.2v-21.6H208.4L208.4,440.4z
		 M208.4,469.2c8,0,14.4-6.4,14.4-14.4v-7.2c0-8-6.4-14.4-14.4-14.4H194v36H208.4z M179.6,433.2h7.2v36h-7.2V433.2z M165.2,433.2
		h7.2v36h-7.2l-14.4-22.6v22.6h-7.2v-36h7.2l14.4,22.6V433.2z M57.2,433.2h21.6v7.2H64.4v7.2h14.4v7.2H64.4v7.2h14.4v7.2H57.2V433.2
		L57.2,433.2z M28.4,433.2h7.2V462H50v7.2H28.4V433.2L28.4,433.2z M104,462h7.2c6,0,10.8-4.8,10.8-10.8c0-6-4.9-10.8-10.8-10.8H104
		v7.2h7.2c2,0,3.6,1.6,3.6,3.6c0,2-1.6,3.6-3.6,3.6H104V462L104,462z M111.2,426c13.9,0,25.2,11.3,25.2,25.2
		c0,13.9-11.3,25.2-25.2,25.2c-13.9,0-25.2-11.3-25.2-25.2C86,437.3,97.3,426,111.2,426z M111.2,433.2c9.9,0,18,8.1,18,18
		c0,9.9-8.1,18-18,18c-9.9,0-18-8.1-18-18C93.2,441.3,101.3,433.2,111.2,433.2z"/>
	<rect id="_x34_51" class="st1" width="640" height="480"/>
	<rect id="_x34_50" x="46.4" class="st2" width="129.6" height="480"/>
	<path id="_x34_49" class="st3" d="M317.5,53.2c21.3,9.1,36.2,30.3,36.2,54.9c0,33-26.7,59.7-59.7,59.7c-14.8,0-28.3-5.4-38.7-14.2
		c6.4,2.8,13.5,4.4,20.9,4.8c32.9,1.4,60.8-24.1,62.3-57.1C339.2,82.2,331,64.8,317.5,53.2z"/>
	<polygon id="_x34_48" class="st3" points="271.4,58.5 264.7,53.5 267.3,45.6 260.5,50.5 253.7,45.6 256.3,53.5 249.5,58.5
		257.9,58.5 260.5,66.4 263.1,58.5 	"/>
	<polygon id="_x34_47" class="st3" points="271.4,89.2 264.7,84.3 267.3,76.3 260.5,81.2 253.7,76.3 256.3,84.3 249.5,89.2
		257.9,89.2 260.5,97.1 263.1,89.2 	"/>
	<polygon id="_x34_46" class="st3" points="271.4,119.9 264.7,115 267.3,107 260.5,111.9 253.7,107 256.3,115 249.5,119.9
		257.9,119.9 260.5,127.9 263.1,119.9 	"/>
	<polygon id="_x34_45" class="st3" points="241.1,104.2 234.3,99.2 236.9,91.3 230.1,96.2 223.4,91.3 226,99.2 219.2,104.2
		227.6,104.2 230.1,112.1 232.7,104.2 	"/>
	<polygon id="_x34_44" class="st3" points="279.9,74.2 286.7,69.3 284.1,61.3 290.8,66.2 297.6,61.3 295,69.3 301.8,74.2
		293.4,74.2 290.8,82.2 288.3,74.2 	"/>
	<polygon id="_x34_43" class="st4" points="95.2,78.7 80.3,70.3 72.4,70.3 62.6,64.4 62.6,56.3 52.2,49.9 52.2,34.6 62.6,28.2
		62.6,20.1 72.4,14.2 80.3,14.2 95.2,5.8 127.2,5.8 142.1,14.2 150,14.2 159.8,20.1 159.8,28.2 170.2,34.6 170.2,49.9 159.8,56.3
		159.8,64.4 150,70.3 142.1,70.3 127.2,78.7 	"/>
	<polygon id="_x34_42" class="st1" points="127.1,78.3 142,69.9 149.9,69.9 159.4,64.2 159.4,56.1 169.8,49.7 169.8,34.8
		159.4,28.4 159.4,20.3 149.9,14.6 142,14.6 127.1,6.2 95.3,6.2 80.4,14.6 72.5,14.6 63,20.3 63,28.4 52.6,34.8 52.6,49.7 63,56.1
		63,64.2 72.5,69.9 80.4,69.9 95.3,78.3 	"/>
	<polygon id="_x34_41" class="st4" points="96.1,75.2 81.2,66.8 73.4,66.8 66.1,62.5 66.1,54.4 55.8,48 55.8,36.5 66.1,30.1
		66.1,22 73.4,17.7 81.2,17.7 96.1,9.3 126.3,9.3 141.2,17.7 149,17.7 156.2,22 156.2,30.1 166.6,36.5 166.6,48 156.2,54.4
		156.2,62.5 149,66.8 141.2,66.8 126.3,75.2 	"/>
	<polygon id="_x34_40" class="st5" points="148.9,66.5 155.9,62.3 155.9,54.2 166.3,47.8 166.3,42.4 111.4,42.4 111.4,74.9
		126.2,74.9 141.1,66.5 	"/>
	<polygon id="_x34_39" class="st5" points="66.5,22.2 66.5,30.3 56.1,36.7 56.1,42.1 111,42.1 111,9.6 96.2,9.6 81.3,18 73.5,18
		"/>
	<polygon id="_x34_38" class="st3" points="66.5,62.3 73.5,66.5 81.3,66.5 96.2,74.9 111,74.9 111,42.4 56.1,42.4 56.1,47.8
		66.5,54.2 	"/>
	<polygon id="_x34_37" class="st3" points="155.9,30.3 155.9,22.2 148.9,18 141.1,18 126.2,9.6 111.4,9.6 111.4,42.1 166.3,42.1
		166.3,36.7 	"/>
	<polygon id="_x34_36" class="st4" points="136.1,30.5 134.1,28.4 140.1,22.7 140.1,18.9 143.6,21 146.2,18.6 148.7,20.2
		146.2,22.6 149.5,24.6 142.3,24.6 	"/>
	<path id="_x34_35" class="st2" d="M146.2,19.1l-2.3,2.1l1.9,1.2l2.3-2.1L146.2,19.1z M140.5,19.5v3.4l-5.9,5.5l1.5,1.6l6-5.7h6.1
		L140.5,19.5z"/>
	<polygon id="_x34_34" class="st4" points="124,29.4 122,27.3 128,21.7 128,17.8 131.5,20 134.1,17.6 136.6,19.2 134.1,21.5
		137.4,23.6 130.2,23.6 	"/>
	<path id="_x34_33" class="st2" d="M134.1,18l-2.3,2.1l1.9,1.2l2.3-2.1L134.1,18z M128.4,18.4v3.4l-5.9,5.5l1.5,1.6l6-5.7h6.1
		L128.4,18.4z"/>
	<polygon id="_x34_32" class="st4" points="137,37.3 135,35.2 141,29.5 141,25.7 144.5,27.9 147.1,25.5 149.6,27 147.1,29.4
		150.3,31.5 143.2,31.5 	"/>
	<path id="_x34_31" class="st2" d="M147.1,25.9l-2.3,2.1l1.9,1.2l2.3-2.1L147.1,25.9z M141.4,26.3v3.4l-5.9,5.5l1.5,1.6l6-5.7h6.1
		L141.4,26.3z"/>
	<polygon id="_x34_30" class="st4" points="136.1,54 134.1,56.1 140.1,61.8 140.1,65.6 143.6,63.5 146.2,65.9 148.7,64.3
		146.2,61.9 149.5,59.9 142.3,59.9 	"/>
	<path id="_x34_29" class="st2" d="M146.2,65.4l-2.3-2.1l1.9-1.2l2.3,2.1L146.2,65.4L146.2,65.4z M140.5,65v-3.4l-5.9-5.5l1.5-1.6
		l6,5.7h6.1L140.5,65z"/>
	<polygon id="_x34_28" class="st4" points="124,55.1 122,57.2 128,62.8 128,66.7 131.5,64.5 134.1,66.9 136.6,65.3 134.1,63
		137.4,60.9 130.2,60.9 	"/>
	<path id="_x34_27" class="st2" d="M134.1,66.5l-2.3-2.1l1.9-1.2l2.3,2.1L134.1,66.5z M128.4,66.1v-3.4l-5.9-5.5l1.5-1.6l6,5.7h6.1
		L128.4,66.1z"/>
	<polygon id="_x34_26" class="st4" points="137,47.2 135,49.3 141,55 141,58.8 144.5,56.6 147.1,59 149.6,57.5 147.1,55.1 150.3,53
		143.2,53 	"/>
	<path id="_x34_25" class="st2" d="M147.1,58.6l-2.3-2.1l1.9-1.2l2.3,2.1L147.1,58.6z M141.4,58.2v-3.4l-5.9-5.5l1.5-1.6l6,5.7h6.1
		L141.4,58.2z"/>
	<polygon id="_x34_24" class="st4" points="86.3,54 88.3,56.1 82.3,61.8 82.3,65.6 78.8,63.5 76.2,65.9 73.7,64.3 76.2,61.9
		72.9,59.9 80.1,59.9 	"/>
	<path id="_x34_23" class="st2" d="M76.2,65.4l2.3-2.1l-1.9-1.2l-2.3,2.1L76.2,65.4L76.2,65.4z M81.9,65v-3.4l5.9-5.5l-1.5-1.6
		l-6,5.7h-6.1L81.9,65z"/>
	<polygon id="_x34_22" class="st4" points="98.4,55.1 100.4,57.2 94.4,62.8 94.4,66.7 90.9,64.5 88.3,66.9 85.8,65.3 88.3,63
		85,60.9 92.2,60.9 	"/>
	<path id="_x34_21" class="st2" d="M88.3,66.5l2.3-2.1l-1.9-1.2l-2.3,2.1L88.3,66.5z M94,66.1v-3.4l5.9-5.5l-1.5-1.6l-6,5.7h-6.1
		L94,66.1z"/>
	<polygon id="_x34_20" class="st4" points="85.4,47.2 87.4,49.3 81.4,55 81.4,58.8 77.9,56.6 75.3,59 72.8,57.5 75.3,55.1 72.1,53
		79.2,53 	"/>
	<path id="_x34_19" class="st2" d="M75.3,58.6l2.3-2.1l-1.9-1.2l-2.3,2.1L75.3,58.6z M81,58.2v-3.4l5.9-5.5l-1.5-1.6l-6,5.7h-6.1
		L81,58.2z"/>
	<polygon id="_x34_18" class="st4" points="86.3,30.5 88.3,28.4 82.3,22.7 82.3,18.9 78.8,21 76.2,18.6 73.7,20.2 76.2,22.6
		72.9,24.6 80.1,24.6 	"/>
	<path id="_x34_17" class="st2" d="M76.2,19.1l2.3,2.1l-1.9,1.2l-2.3-2.1L76.2,19.1z M81.9,19.5v3.4l5.9,5.5L86.3,30l-6-5.7h-6.1
		L81.9,19.5z"/>
	<polygon id="_x34_16" class="st4" points="98.4,29.4 100.4,27.3 94.4,21.7 94.4,17.8 90.9,20 88.3,17.6 85.8,19.2 88.3,21.5
		85,23.6 92.2,23.6 	"/>
	<path id="_x34_15" class="st2" d="M88.3,18l2.3,2.1l-1.9,1.2l-2.3-2.1L88.3,18z M94,18.4v3.4l5.9,5.5l-1.5,1.6l-6-5.7h-6.1L94,18.4
		L94,18.4z"/>
	<polygon id="_x34_14" class="st4" points="85.4,37.3 87.4,35.2 81.4,29.5 81.4,25.7 77.9,27.9 75.3,25.5 72.8,27 75.3,29.4
		72.1,31.5 79.2,31.5 	"/>
	<path id="_x34_13" class="st2" d="M75.3,25.9l2.3,2.1l-1.9,1.2l-2.3-2.1L75.3,25.9z M81,26.3v3.4l5.9,5.5l-1.5,1.6l-6-5.7h-6.1
		L81,26.3z"/>
	<polygon id="_x34_12" class="st4" points="131.4,17.8 132.5,15.1 127.7,12.5 121.1,12.5 117.7,9.3 104.7,9.3 101.3,12.5 94.7,12.5
		89.9,15.1 91,17.8 95.3,15.6 97.2,15.6 103.9,23.3 111.2,18.8 118.5,23.3 125.1,15.6 127.1,15.6 	"/>
	<polygon id="_x34_11" class="st4" points="131.4,66.7 132.5,69.4 127.7,72 121.1,72 117.7,75.2 104.7,75.2 101.3,72 94.7,72
		89.9,69.4 91,66.7 95.3,68.9 97.2,68.9 103.9,61.2 111.2,65.7 118.5,61.2 125.1,68.9 127.1,68.9 	"/>
	<polygon id="_x34_10" class="st4" points="76.7,36.3 73.3,36.3 72.6,35.4 72.6,33 74.4,31.8 71.4,30.6 71.3,30.7 67.3,33.4
		67.3,34.2 60.9,42.2 67.3,50.3 67.3,51.1 71.4,53.9 74.4,52.7 72.6,51.5 72.6,49.1 73.3,48.2 76.7,48.2 	"/>
	<polygon id="_x34_09" class="st2" points="67.6,50.9 67.6,50.2 61.3,42.2 67.6,34.3 67.6,33.6 71.4,31 73.7,31.9 72.2,32.8
		72.2,35.5 73.1,36.6 76.3,36.6 76.3,47.9 73.1,47.9 72.2,49 72.2,51.7 73.7,52.6 71.4,53.5 	"/>
	<polygon id="_x34_08" class="st4" points="145.7,36.3 149.1,36.3 149.8,35.4 149.8,33 148,31.8 151,30.6 151.1,30.7 155.1,33.4
		155.1,34.2 161.5,42.2 155.1,50.3 155.1,51.1 151,53.9 148,52.7 149.8,51.5 149.8,49.1 149.1,48.2 145.7,48.2 	"/>
	<polygon id="_x34_07" class="st2" points="154.8,50.9 154.8,50.2 161,42.2 154.8,34.3 154.8,33.6 151,31 148.7,31.9 150.2,32.8
		150.2,35.5 149.2,36.6 146.1,36.6 146.1,47.9 149.2,47.9 150.2,49 150.2,51.7 148.7,52.6 151,53.5 	"/>
	<path id="_x34_06" class="st2" d="M111,9.6v8.9l-7,4.3l-6.6-7.6h-2.1l-4.1,2.1l-0.9-2.1l4.5-2.3h6.7l3.4-3.3H111z M111.4,10.6v8
		l7,4.3l6.6-7.6h2.1l4.1,2.1l0.9-2.1l-4.5-2.3h-6.7l-3.4-3.3h-6.2V10.6L111.4,10.6z"/>
	<path id="_x34_05" class="st2" d="M111,74.9V66l-7-4.3l-6.6,7.6h-2.1l-4.1-2.1l-0.9,2.1l4.5,2.4h6.7l3.4,3.3H111z M111.4,73.9v-8
		l7-4.3l6.6,7.6h2.1l4.1-2.1l0.9,2.1l-4.5,2.4h-6.7l-3.4,3.3h-6.2V73.9L111.4,73.9z"/>
	<polygon id="_x34_04" class="st4" points="79,43.8 72.9,43.8 70.3,46.5 72.1,46.5 69,49 67.2,47.5 67.2,46.8 63.5,42.2 67.2,37.7
		67.2,37 69,35.5 72.1,38 70.3,38 72.9,40.7 79,40.7 83.8,37 83.8,27.1 95.8,27.1 109.7,18.6 109.7,16.3 107.6,14.9 106.9,14.9
		104.6,16.5 104.2,17.6 102.4,15.1 105.9,12.2 106.5,12.2 110.4,9.3 111.9,9.3 115.9,12.2 116.5,12.2 120,15.1 118.2,17.6
		117.8,16.5 115.5,14.9 114.8,14.9 112.7,16.3 112.7,18.6 126.6,27.1 138.6,27.1 138.6,37 143.4,40.7 149.4,40.7 152.1,38 150.3,38
		153.4,35.5 155.2,37 155.2,37.7 158.9,42.2 155.2,46.8 155.2,47.5 153.4,49 150.3,46.5 152.1,46.5 149.4,43.8 143.4,43.8
		138.6,47.5 138.6,57.4 126.6,57.4 112.7,65.9 112.7,68.2 114.8,69.6 115.5,69.6 117.8,68 118.2,66.9 120,69.4 116.5,72.3
		115.9,72.3 111.9,75.2 110.4,75.2 106.5,72.3 105.9,72.3 102.4,69.4 104.2,66.9 104.6,68 106.9,69.6 107.6,69.6 109.7,68.2
		109.7,65.9 95.8,57.4 83.8,57.4 83.8,47.5 	"/>
	<path id="_x34_03" class="st5" d="M111.4,69.9l1.5,1.2l-1.5,1.2V69.9z M106.5,72L106.5,72l4,2.9h0.5v-2.3l-2.1-1.6l2.1-1.6v-4.3
		L96.2,56h-11v-9.2l-5.7-4.4h-8.6l-2.2,2.4l-2.2-2.4l-2.5,0l3.5,4.3v0.7l1.4,1.2l2.2-1.7l-1.3,0v-0.4l2.9-3h6.4l5,3.9v9.7h11.7
		l14.1,8.7v2.6l-2.4,1.6h-0.9l-2.5-1.7l-0.2-0.6l-1.2,1.7L106,72H106.5L106.5,72z M68.8,40.2l1.7,1.9h-3.4L68.8,40.2z M111,12.3
		l-1.5,1.2l1.5,1.2V12.3z M151.9,42.4l1.7,1.9l1.7-1.9H151.9z M115.8,12.5l-4-2.9h-0.5v2.3l2.1,1.6l-2.1,1.6v4.3l14.9,9.1h11v9.2
		l5.7,4.4h8.6l2.2-2.4l2.2,2.4h2.5l-3.5-4.3v-0.7l-1.4-1.2l-2.2,1.7l1.3,0v0.4l-2.9,3h-6.4l-5-3.9v-9.7h-11.7l-14.1-8.7v-2.6
		l2.4-1.6h0.9l2.5,1.7l0.2,0.6l1.2-1.7l-3.2-2.7H115.8z"/>
	<path id="_x34_02" class="st3" d="M111,72.2l-1.5-1.2l1.5-1.2V72.2z M70.5,42.4l-1.7,1.9l-1.7-1.9H70.5z M115.9,72L115.9,72l-4,2.9
		h-0.5l0,0v-0.6v-1.7l2.1-1.6l-2.1-1.6v-4.3l14.9-9.1h11v-9.2l5.7-4.4h8.6l2.2,2.4l2.2-2.4l2.5,0l-3.5,4.3v0.7l-1.4,1.2l-2.2-1.7
		l1.3,0v-0.4l-2.9-3h-6.4l-5,3.9v9.7h-11.7l-14.1,8.7v2.6l2.4,1.6h0.9l2.5-1.7l0.2-0.6l1.2,1.7l-3.2,2.7H115.9z M153.6,40.2
		l-1.7,1.9h3.4L153.6,40.2z M106.6,12.5l4-2.9h0.5v2.3l-2.1,1.6l2.1,1.6v4.3l-14.9,9.1h-11v9.2l-5.7,4.4h-8.6l-2.2-2.4l-2.2,2.4
		h-2.5l3.5-4.3v-0.7l1.4-1.2l2.2,1.7l-1.3,0v0.4l2.9,3h6.4l5-3.9v-9.7h11.7l14.1-8.7v-2.6l-2.4-1.6h-0.9l-2.5,1.7l-0.2,0.6l-1.2-1.7
		l3.2-2.7H106.6z M111.4,14.6l1.5-1.2l-1.5-1.2V14.6z"/>
	<polygon id="_x34_01" class="st1" points="111,19.7 96.3,28.8 85.5,28.8 85.5,37.8 80,42.1 111,42.1 	"/>
	<polygon id="_x34_00" class="st1" points="111.4,64.8 126.1,55.7 136.9,55.7 136.9,46.7 142.4,42.4 111.4,42.4 	"/>
	<polygon id="_x33_99" class="st2" points="142.4,42.1 136.9,37.8 136.9,28.8 126.1,28.8 111.4,19.7 111.4,42.1 	"/>
	<polygon id="_x33_98" class="st2" points="80,42.4 85.5,46.7 85.5,55.7 96.3,55.7 111,64.8 111,42.4 	"/>
	<polygon id="_x33_97" class="st4" points="102.8,40.7 104.8,38.6 98.8,32.9 98.8,29.1 95.3,31.3 92.7,28.9 90.2,30.4 92.8,32.8
		89.5,34.9 96.7,34.9 	"/>
	<path id="_x33_96" class="st2" d="M92.7,29.3l2.3,2.1l-1.9,1.2l-2.3-2.1L92.7,29.3L92.7,29.3z M98.5,29.7v3.4l5.9,5.5l-1.5,1.6
		l-6-5.7h-6.1L98.5,29.7L98.5,29.7z"/>
	<polygon id="_x33_95" class="st4" points="119.6,43.8 117.6,45.9 123.6,51.6 123.6,55.4 127.1,53.2 129.7,55.6 132.2,54.1
		129.6,51.7 132.9,49.6 125.7,49.6 	"/>
	<path id="_x33_94" class="st2" d="M129.7,55.2l-2.3-2.1l1.9-1.2l2.3,2.1L129.7,55.2z M123.9,54.8v-3.4l-5.9-5.5l1.5-1.6l6,5.7h6.1
		L123.9,54.8L123.9,54.8z"/>
	<polygon id="_x33_93" class="st4" points="102.8,43.8 104.8,45.9 98.8,51.6 98.8,55.4 95.3,53.2 92.7,55.6 90.2,54.1 92.8,51.7
		89.5,49.6 96.7,49.6 	"/>
	<path id="_x33_92" class="st1" d="M92.7,55.2l2.3-2.1l-1.9-1.2L90.8,54L92.7,55.2z M98.5,54.8v-3.4l5.9-5.5l-1.5-1.6l-6,5.7h-6.1
		L98.5,54.8z"/>
	<polygon id="_x33_91" class="st4" points="119.6,40.7 117.6,38.6 123.6,32.9 123.6,29.1 127.1,31.3 129.7,28.9 132.2,30.4
		129.6,32.8 132.9,34.9 125.7,34.9 	"/>
	<path id="_x33_90" class="st1" d="M129.7,29.3l-2.3,2.1l1.9,1.2l2.3-2.1L129.7,29.3z M123.9,29.7v3.4l-5.9,5.5l1.5,1.6l6-5.7h6.1
		L123.9,29.7L123.9,29.7z"/>
	<polygon id="_x33_89" class="st4" points="127.1,42.2 111.2,52.8 95.3,42.2 111.2,31.7 	"/>
	<path id="_x33_88" class="st3" d="M111,32.2l-14.8,9.9H111V32.2z M111.4,42.1h14.8l-14.8-9.9V42.1z M96.2,42.4l14.8,9.9v-9.9H96.2z
		 M111.4,52.3l14.8-9.9h-14.8V52.3z"/>
	<polygon id="_x33_87" class="st6" points="115.4,35.7 115.4,38.6 120.9,38.6 120.9,45.9 115.4,45.9 115.4,48.8 106.9,48.8
		106.9,45.9 101.4,45.9 101.4,38.6 106.9,38.6 106.9,35.7 	"/>
	<path id="_x33_86" class="st2" d="M107.3,36v2.9h-5.5v3.1h9.2v-6H107.3z M111.4,42.1h9.2v-3.1h-5.5V36h-3.7V42.1z M101.8,42.4v3.1
		h5.5v2.9h3.7v-6H101.8z M111.4,48.5h3.7v-2.9h5.5v-3.1h-9.2V48.5L111.4,48.5z"/>
	<polygon id="_x33_85" class="st4" points="96.9,162.9 96.9,167.6 125.5,167.6 125.5,162.9 138.3,162.9 138.3,158.2 151.1,158.2
		151.1,153.6 163.9,153.6 163.9,111.4 151.1,111.4 151.1,106.8 138.3,106.8 138.3,102.1 125.5,102.1 125.5,97.4 96.9,97.4
		96.9,102.1 84.1,102.1 84.1,106.8 71.3,106.8 71.3,111.4 58.5,111.4 58.5,153.6 71.3,153.6 71.3,158.2 84.1,158.2 84.1,162.9 	"/>
	<polygon id="_x33_84" class="st2" points="125.2,162.5 125.2,167.2 97.2,167.2 97.2,162.5 84.4,162.5 84.4,157.9 71.6,157.9
		71.6,153.2 58.9,153.2 58.9,111.8 71.6,111.8 71.6,107.1 84.4,107.1 84.4,102.4 97.2,102.4 97.2,97.8 125.2,97.8 125.2,102.4
		138,102.4 138,107.1 150.7,107.1 150.7,111.8 163.5,111.8 163.5,153.2 150.7,153.2 150.7,157.9 138,157.9 138,162.5 	"/>
	<polygon id="_x33_83" class="st4" points="100.6,159.2 100.6,163.8 121.8,163.8 121.8,159.2 134.6,159.2 134.6,154.5 147.4,154.5
		147.4,149.8 160.2,149.8 160.2,115.1 147.4,115.1 147.4,110.5 134.6,110.5 134.6,105.8 121.8,105.8 121.8,101.2 100.6,101.2
		100.6,105.8 87.8,105.8 87.8,110.5 75,110.5 75,115.1 62.2,115.1 62.2,149.8 75,149.8 75,154.5 87.8,154.5 87.8,159.2 	"/>
	<polygon id="_x33_82" class="st2" points="121.4,158.8 121.4,163.5 101,163.5 101,158.8 88.2,158.8 88.2,154.2 75.4,154.2
		75.4,149.5 62.6,149.5 62.6,115.5 75.4,115.5 75.4,110.8 88.2,110.8 88.2,106.2 101,106.2 101,101.5 121.4,101.5 121.4,106.2
		134.2,106.2 134.2,110.8 147,110.8 147,115.5 159.8,115.5 159.8,149.5 147,149.5 147,154.2 134.2,154.2 134.2,158.8 	"/>
	<polygon id="_x33_81" class="st4" points="97.6,109.6 97.6,106.3 94.4,109.2 91.1,106.3 91.1,109.6 87.8,107.1 87.8,111.9
		84.7,113.9 84.6,110.9 81.6,113.7 78.6,110.9 78.5,113.9 75,111.7 75,116.2 72.2,118.2 72.2,115.5 68.8,117.9 65.4,115.5
		65.4,118.2 62.2,115.9 62.2,129.4 58.5,129.4 58.5,135.6 62.2,135.6 62.2,149.1 65.4,146.8 65.4,149.5 68.8,147 72.2,149.5
		72.2,146.8 75,148.8 75,153.3 78.5,151 78.6,154.1 81.6,151.3 84.6,154.1 84.7,151 87.8,153.1 87.8,157.9 91.1,155.4 91.1,158.7
		94.4,155.8 97.6,158.7 97.6,155.4 100.6,157.6 100.6,162.7 105.1,158.7 105.1,163.4 111.2,159.5 117.3,163.4 117.3,158.7
		121.8,162.7 121.8,157.6 124.8,155.4 124.8,158.7 128,155.8 131.3,158.7 131.3,155.4 134.6,157.9 134.6,153.1 137.7,151
		137.8,154.1 140.8,151.3 143.8,154.1 143.8,151 147.4,153.3 147.4,148.8 150.2,146.8 150.2,149.5 153.6,147 157,149.5 157,146.8
		160.2,149.1 160.2,135.6 163.9,135.6 163.9,129.4 160.2,129.4 160.2,115.9 157,118.2 157,115.5 153.6,117.9 150.2,115.5
		150.2,118.2 147.4,116.2 147.4,111.7 143.8,113.9 143.8,110.9 140.8,113.7 137.8,110.9 137.7,113.9 134.6,111.9 134.6,107.1
		131.3,109.6 131.3,106.3 128,109.2 124.8,106.3 124.8,109.6 121.8,107.4 121.8,102.2 117.3,106.3 117.3,101.5 111.2,105.5
		105.1,101.5 105.1,106.3 100.6,102.2 100.6,107.4 	"/>
	<polygon id="_x33_80" class="st1" points="58.9,135.2 58.9,129.8 62.6,129.8 62.6,116.6 65.8,118.9 65.8,116.1 68.8,118.3
		68.9,118.3 71.8,116.1 71.9,118.9 75,116.6 75,148.4 71.9,146.1 71.8,148.8 68.8,146.6 65.8,148.8 65.8,146.1 62.6,148.4
		62.6,135.2 	"/>
	<polygon id="_x33_79" class="st5" points="78.9,150.4 75.4,152.7 75.4,112.3 78.9,114.6 78.9,111.7 81.6,114.1 84.3,111.7
		84.3,114.6 87.8,112.3 87.8,152.7 84.3,150.4 84.3,153.3 81.6,150.9 78.9,153.3 	"/>
	<polygon id="_x33_78" class="st1" points="91.5,154.7 88.2,157.2 88.2,107.8 91.5,110.3 91.5,107 94.4,109.6 97.3,107 97.3,110.3
		100.6,107.8 100.6,157.2 97.3,154.7 97.3,158 94.4,155.4 91.5,158 	"/>
	<polygon id="_x33_77" class="st5" points="111.2,105.9 111.2,105.9 111.2,105.9 105.4,102.2 105.4,107.1 101,103 101,162
		105.4,157.9 105.4,162.8 111.2,159.1 111.2,159.1 111.2,159.1 117,162.8 117,157.9 121.4,162 121.4,103 117,107.1 117,102.2 	"/>
	<polygon id="_x33_76" class="st1" points="163.5,135.2 163.5,129.8 159.8,129.8 159.8,116.6 156.6,118.9 156.6,116.1 153.6,118.3
		153.5,118.3 150.6,116.1 150.5,118.9 147.4,116.6 147.4,148.4 150.5,146.1 150.6,148.8 153.6,146.6 156.6,148.8 156.6,146.1
		159.8,148.4 159.8,135.2 	"/>
	<polygon id="_x33_75" class="st5" points="143.5,150.4 147,152.7 147,112.3 143.5,114.6 143.5,111.7 140.8,114.1 138.1,111.7
		138.1,114.6 134.6,112.3 134.6,152.7 138.1,150.4 138.1,153.3 140.8,150.9 143.5,153.3 	"/>
	<polygon id="_x33_74" class="st1" points="130.9,154.7 134.2,157.2 134.2,107.8 130.9,110.3 130.9,107 128,109.6 125.1,107
		125.1,110.3 121.8,107.8 121.8,157.2 125.1,154.7 125.1,158 128,155.4 130.9,158 	"/>
	<polygon id="_x33_73" class="st4" points="115.1,114.8 113.7,116 113.7,112.5 116.8,110.2 111.2,106.1 105.6,110.2 108.7,112.5
		108.7,116 107.3,114.8 107.3,112.9 104,115.6 107.5,118.8 106.2,120.8 116.2,120.8 114.8,118.8 118.4,115.6 115.1,112.9 	"/>
	<polygon id="_x33_72" class="st2" points="107,113.6 107,115 109,116.7 109,112.3 106.2,110.2 111.2,106.5 116.2,110.2
		113.4,112.3 113.4,116.7 115.4,115 115.4,113.6 117.9,115.6 114.4,118.8 115.6,120.4 106.8,120.4 108,118.8 104.5,115.6 	"/>
	<polygon id="_x33_71" class="st4" points="111.2,112.1 113.8,110.2 111.2,108.3 111.1,108.4 108.6,110.2 	"/>
	<path id="_x33_70" class="st1" d="M111.2,108.7c0.2,0.1,1.7,1.2,2,1.5c-0.3,0.2-1.8,1.3-2,1.5c-0.2-0.1-1.7-1.2-2-1.5
		C109.5,110,111,108.9,111.2,108.7z"/>
	<polygon id="_x33_69" class="st4" points="133.9,136.7 151.1,136.7 151.1,134.5 156.7,134.5 156.7,130.5 151.1,130.5 151.1,128.3
		133.9,128.3 121.9,120.4 121.9,120.4 100.5,120.4 88.5,128.3 71.3,128.3 71.3,130.5 65.7,130.5 65.7,134.5 71.3,134.5 71.3,136.7
		88.5,136.7 100.5,144.6 121.9,144.6 	"/>
	<polygon id="_x33_68" class="st2" points="71.6,136.4 71.6,134.1 66,134.1 66,130.9 71.6,130.9 71.6,128.6 88.6,128.6 100.6,120.8
		121.8,120.8 133.8,128.6 150.7,128.6 150.7,130.9 156.4,130.9 156.4,134.1 150.7,134.1 150.7,136.4 133.8,136.4 121.8,144.2
		100.6,144.2 88.6,136.4 	"/>
	<polygon id="_x33_67" class="st4" points="144.7,134.8 144.7,130.2 132.5,130.2 132.5,129.1 121.5,121.9 121.5,121.9 100.9,121.9
		89.9,129.1 89.9,130.2 77.6,130.2 77.6,134.8 89.9,134.8 89.9,135.9 100.9,143.1 121.5,143.1 132.5,135.9 132.5,134.8 	"/>
	<polygon id="_x33_66" class="st2" points="78,130.5 90.3,130.5 90.3,129.3 101,122.3 121.4,122.3 132.1,129.3 132.1,130.5
		144.4,130.5 144.4,134.4 132.1,134.4 132.1,135.7 121.4,142.7 101,142.7 90.3,135.7 90.3,134.4 78,134.4 	"/>
	<path id="_x33_65" class="st4" d="M113.1,123.4l-1.9,1.4l-1.9-1.4h-3.5l3.7,2.8l-6.7,5l-3.5-2.7l1.1-0.8l1.3,1l1.8-1.3l-3-2.3
		l-4.6,3.5l5.3,4l-5.3,4l4.6,3.5l3-2.3l-1.8-1.3l-1.3,1l-1.1-0.8l3.5-2.7l6.7,5l-3.7,2.8h3.5l1.9-1.4l1.9,1.4h3.5l-3.7-2.8l6.7-5
		l3.5,2.7l-1.1,0.8l-1.3-1l-1.8,1.3l3,2.3l4.6-3.5l-5.3-4l5.3-4l-4.6-3.5l-3,2.3l1.8,1.3l1.3-1l1.1,0.8l-3.5,2.7l-6.7-5l3.7-2.8
		H113.1z M111.2,127.5l6.7,5l-6.7,5l-6.7-5L111.2,127.5z"/>
	<path id="_x33_64" class="st5" d="M115.6,123.7l-3.2,2.4l7.3,5.5l4.1-3.1l-1.7-1.2l-1.3,1l-1.2-0.9l2.5-1.9l4.1,3.1l-5.3,4l5.3,4
		l-4.1,3.1l-2.5-1.9l1.2-0.9l1.3,1l1.7-1.2l-4.1-3.1l-7.3,5.5l3.2,2.4h-2.4l-2-1.5l-2,1.5h-2.4l3.2-2.4l-7.3-5.5l-4.1,3.1l1.7,1.2
		l1.3-1l1.2,0.9l-2.5,1.9l-4.1-3.1l5.3-4l-5.3-4l4.1-3.1l2.5,1.9l-1.2,0.9l-1.3-1l-1.7,1.2l4.1,3.1l7.3-5.5l-3.2-2.4h2.4l2,1.5
		l2-1.5H115.6z M111.1,127.1l-7.2,5.4l7.3,5.5l7.3-5.5l-7.3-5.5L111.1,127.1L111.1,127.1z"/>
	<polygon id="_x33_63" class="st4" points="92.1,132.5 95.2,134.6 98.4,132.5 95.2,130.4 	"/>
	<polygon id="_x33_62" class="st1" points="95.2,130.8 97.7,132.5 95.2,134.1 92.8,132.5 	"/>
	<polygon id="_x33_61" class="st4" points="108.1,132.5 111.2,134.6 114.3,132.5 111.2,130.4 	"/>
	<polygon id="_x33_60" class="st1" points="111.2,130.8 113.7,132.5 111.2,134.1 108.7,132.5 	"/>
	<polygon id="_x33_59" class="st4" points="130.3,132.5 127.2,134.6 124,132.5 127.2,130.4 	"/>
	<polygon id="_x33_58" class="st1" points="127.2,130.8 124.7,132.5 127.2,134.1 129.6,132.5 	"/>
	<path id="_x33_57" class="st4" d="M67.4,126.7c0.4,0.4,0.9,0.6,1.4,0.6c0.5,0,1-0.2,1.4-0.6c1.2-1.2,1.3-3.4,1.2-5
		c0,0-1.4,1.5-1.7,1.8c-0.2-0.3-1-1.7-1-1.7s-0.8,1.4-1,1.7c-0.3-0.3-1.7-1.8-1.7-1.8C66.2,123.3,66.2,125.5,67.4,126.7z"/>
	<path id="_x33_56" class="st3" d="M68.8,122.4c0.2,0.4,0.9,1.6,0.9,1.6s1-1,1.4-1.4c0,1.8-0.4,3.2-1.1,3.9
		c-0.3,0.3-0.7,0.5-1.1,0.5c-0.4,0-0.8-0.2-1.1-0.5c-0.7-0.7-1.1-2.1-1.1-3.9c0.4,0.4,1.4,1.4,1.4,1.4
		C68.2,123.5,68.5,122.9,68.8,122.4z"/>
	<polygon id="_x33_55" class="st4" points="84.2,118.1 81.6,115.8 79,118.1 80.8,119.7 80.8,123.3 79.7,122.2 79.7,120.2
		77.4,122.4 81.6,126.6 85.8,122.4 83.5,120.2 83.5,122.2 82.4,123.3 82.4,119.7 	"/>
	<polygon id="_x33_54" class="st2" points="81.1,119.5 79.5,118.1 81.6,116.3 83.7,118.1 82.1,119.5 82.1,124.1 83.8,122.4
		83.8,121 85.3,122.4 81.6,126.1 77.9,122.4 79.4,121 79.4,122.4 81.1,124.1 	"/>
	<polygon id="_x33_53" class="st4" points="97,114.1 94.4,111.8 91.8,114.1 93.6,115.6 93.6,119.2 92.5,118.2 92.5,116.2
		90.2,118.3 94.4,122.5 98.6,118.3 96.2,116.2 96.2,118.2 95.2,119.2 95.2,115.6 	"/>
	<polygon id="_x33_52" class="st3" points="93.9,115.4 92.3,114.1 94.4,112.2 96.5,114.1 94.9,115.4 94.9,120 96.6,118.3
		96.6,116.9 98.1,118.3 94.4,122.1 90.7,118.3 92.2,116.9 92.2,118.3 93.9,120 	"/>
	<polygon id="_x33_51" class="st4" points="84.2,146.9 81.6,149.1 79,146.9 80.8,145.3 80.8,141.7 79.7,142.7 79.7,144.8
		77.4,142.6 81.6,138.4 85.8,142.6 83.5,144.8 83.5,142.7 82.4,141.7 82.4,145.3 	"/>
	<polygon id="_x33_50" class="st2" points="81.1,145.5 79.5,146.9 81.6,148.7 83.7,146.9 82.1,145.5 82.1,140.9 83.8,142.6
		83.8,144 85.3,142.6 81.6,138.9 77.9,142.6 79.4,144 79.4,142.6 81.1,140.9 	"/>
	<polygon id="_x33_49" class="st4" points="138.2,118.1 140.8,115.8 143.4,118.1 141.6,119.7 141.6,123.3 142.6,122.2 142.6,120.2
		145,122.4 140.8,126.6 136.6,122.4 138.9,120.2 138.9,122.2 140,123.3 140,119.7 	"/>
	<polygon id="_x33_48" class="st2" points="141.3,119.5 142.9,118.1 140.8,116.3 138.7,118.1 140.3,119.5 140.3,124.1 138.6,122.4
		138.6,121 137.1,122.4 140.8,126.1 144.5,122.4 143,121 143,122.4 141.3,124.1 	"/>
	<polygon id="_x33_47" class="st4" points="138.2,146.9 140.8,149.1 143.4,146.9 141.6,145.3 141.6,141.7 142.6,142.7 142.6,144.8
		145,142.6 140.8,138.4 136.6,142.6 138.9,144.8 138.9,142.7 140,141.7 140,145.3 	"/>
	<polygon id="_x33_46" class="st2" points="141.3,145.5 142.9,146.9 140.8,148.7 138.7,146.9 140.3,145.5 140.3,140.9 138.6,142.6
		138.6,144 137.1,142.6 140.8,138.9 144.5,142.6 143,144 143,142.6 141.3,140.9 	"/>
	<polygon id="_x33_45" class="st4" points="97,150.9 94.4,153.2 91.8,150.9 93.6,149.4 93.6,145.8 92.5,146.8 92.5,148.8
		90.2,146.6 94.4,142.4 98.6,146.6 96.2,148.8 96.2,146.8 95.2,145.8 95.2,149.4 	"/>
	<polygon id="_x33_44" class="st3" points="93.9,149.5 92.3,150.9 94.4,152.7 96.5,150.9 94.9,149.5 94.9,144.9 96.6,146.6
		96.6,148 98.1,146.6 94.4,142.9 90.7,146.6 92.2,148 92.2,146.6 93.9,144.9 	"/>
	<polygon id="_x33_43" class="st4" points="125.4,114.1 128,111.8 130.6,114.1 128.8,115.6 128.8,119.2 129.9,118.2 129.9,116.2
		132.2,118.3 128,122.5 123.8,118.3 126.2,116.2 126.2,118.2 127.2,119.2 127.2,115.6 	"/>
	<polygon id="_x33_42" class="st3" points="128.5,115.4 130.1,114.1 128,112.2 125.9,114.1 127.5,115.4 127.5,120 125.8,118.3
		125.8,116.9 124.3,118.3 128,122.1 131.7,118.3 130.2,116.9 130.2,118.3 128.5,120 	"/>
	<polygon id="_x33_41" class="st4" points="125.4,150.9 128,153.2 130.6,150.9 128.8,149.4 128.8,145.8 129.9,146.8 129.9,148.8
		132.2,146.6 128,142.4 123.8,146.6 126.2,148.8 126.2,146.8 127.2,145.8 127.2,149.4 	"/>
	<polygon id="_x33_40" class="st3" points="128.5,149.5 130.1,150.9 128,152.7 125.9,150.9 127.5,149.5 127.5,144.9 125.8,146.6
		125.8,148 124.3,146.6 128,142.9 131.7,146.6 130.2,148 130.2,146.6 128.5,144.9 	"/>
	<path id="_x33_39" class="st4" d="M67.4,138.3c0.4-0.4,0.9-0.6,1.4-0.6c0.5,0,1,0.2,1.4,0.6c1.2,1.2,1.3,3.4,1.2,5
		c0,0-1.4-1.5-1.7-1.8c-0.2,0.3-1,1.7-1,1.7s-0.8-1.4-1-1.7c-0.3,0.3-1.7,1.8-1.7,1.8C66.2,141.7,66.2,139.5,67.4,138.3z"/>
	<path id="_x33_38" class="st3" d="M68.8,142.5c0.2-0.4,0.9-1.6,0.9-1.6s1,1,1.4,1.4c0-1.8-0.4-3.2-1.1-3.9
		c-0.3-0.3-0.7-0.5-1.1-0.5c-0.4,0-0.8,0.2-1.1,0.5c-0.7,0.7-1.1,2.1-1.1,3.9c0.4-0.4,1.4-1.4,1.4-1.4
		C68.2,141.5,68.5,142,68.8,142.5z"/>
	<path id="_x33_37" class="st4" d="M155,126.7c-0.4,0.4-0.9,0.6-1.4,0.6c-0.5,0-1-0.2-1.4-0.6c-1.2-1.2-1.3-3.4-1.2-5
		c0,0,1.4,1.5,1.7,1.8c0.2-0.3,1-1.7,1-1.7s0.8,1.4,1,1.7c0.3-0.3,1.7-1.8,1.7-1.8C156.2,123.3,156.2,125.5,155,126.7z"/>
	<path id="_x33_36" class="st3" d="M153.6,122.4c-0.2,0.4-0.9,1.6-0.9,1.6s-1-1-1.4-1.4c0,1.8,0.4,3.2,1.1,3.9
		c0.3,0.3,0.7,0.5,1.1,0.5c0.4,0,0.8-0.2,1.1-0.5c0.7-0.7,1.1-2.1,1.1-3.9c-0.4,0.4-1.4,1.4-1.4,1.4
		C154.2,123.5,153.9,122.9,153.6,122.4L153.6,122.4z"/>
	<path id="_x33_35" class="st4" d="M155,138.3c-0.4-0.4-0.9-0.6-1.4-0.6c-0.5,0-1,0.2-1.4,0.6c-1.2,1.2-1.3,3.4-1.2,5
		c0,0,1.4-1.5,1.7-1.8c0.2,0.3,1,1.7,1,1.7s0.8-1.4,1-1.7c0.3,0.3,1.7,1.8,1.7,1.8C156.2,141.7,156.2,139.5,155,138.3z"/>
	<path id="_x33_34" class="st3" d="M153.6,142.5c-0.2-0.4-0.9-1.6-0.9-1.6s-1,1-1.4,1.4c0-1.8,0.4-3.2,1.1-3.9
		c0.3-0.3,0.7-0.5,1.1-0.5c0.4,0,0.8,0.2,1.1,0.5c0.7,0.7,1.1,2.1,1.1,3.9c-0.4-0.4-1.4-1.4-1.4-1.4
		C154.2,141.5,153.9,142,153.6,142.5L153.6,142.5z"/>
	<polygon id="_x33_33" class="st4" points="115.1,150.2 113.7,149 113.7,152.5 116.8,154.8 111.2,158.9 105.6,154.8 108.7,152.5
		108.7,149 107.3,150.2 107.3,152.1 104,149.4 107.5,146.1 106.2,144.2 116.2,144.2 114.8,146.1 118.4,149.4 115.1,152.1 	"/>
	<polygon id="_x33_32" class="st2" points="107,151.4 107,150 109,148.2 109,152.6 106.2,154.8 111.2,158.5 116.2,154.8
		113.4,152.6 113.4,148.2 115.4,150 115.4,151.4 117.9,149.4 114.4,146.2 115.6,144.6 106.8,144.6 108,146.2 104.5,149.4 	"/>
	<polygon id="_x33_31" class="st4" points="111.2,152.9 113.8,154.8 111.2,156.7 111.1,156.6 108.6,154.8 	"/>
	<path id="_x33_30" class="st1" d="M111.2,156.2c0.2-0.1,1.7-1.2,2-1.5c-0.3-0.2-1.8-1.3-2-1.5c-0.2,0.1-1.7,1.2-2,1.5
		C109.5,155,111,156.1,111.2,156.2z"/>
	<polygon id="_x33_29" class="st4" points="67.6,220.3 67.6,217 61.4,220.9 59,219 56.4,219.3 55.2,221 57.4,222.7 55.2,224.4
		56.4,226.1 59,226.4 61.4,224.5 67.6,228.4 67.6,225.2 63.7,222.7 	"/>
	<polygon id="_x33_28" class="st1" points="61.4,221.3 67.2,217.7 67.2,220.1 63.1,222.7 67.2,225.4 67.2,227.8 61.4,224.1
		58.9,226.1 56.6,225.8 55.7,224.5 57.9,222.7 55.7,221 56.6,219.6 58.9,219.4 	"/>
	<polygon id="_x33_27" class="st4" points="67.6,209 67.6,205.8 61.4,209.7 59,207.8 56.4,208.1 55.2,209.8 57.4,211.5 55.2,213.1
		56.4,214.9 59,215.2 61.4,213.3 67.6,217.2 67.6,213.9 63.7,211.5 	"/>
	<polygon id="_x33_26" class="st1" points="61.4,210.1 67.2,206.4 67.2,208.8 63.1,211.5 67.2,214.1 67.2,216.5 61.4,212.8
		58.9,214.8 56.6,214.5 55.7,213.2 57.9,211.5 55.7,209.7 56.6,208.4 58.9,208.1 	"/>
	<polygon id="_x33_25" class="st4" points="67.6,236.4 67.6,239.7 61.4,235.8 59,237.7 56.4,237.4 55.2,235.7 57.4,234 55.2,232.3
		56.4,230.6 59,230.3 61.4,232.2 67.6,228.3 67.6,231.5 63.7,234 	"/>
	<polygon id="_x33_24" class="st1" points="61.4,235.4 67.2,239.1 67.2,236.6 63.1,234 67.2,231.3 67.2,228.9 61.4,232.6
		58.9,230.6 56.6,230.9 55.7,232.2 57.9,234 55.7,235.7 56.6,237.1 58.9,237.3 	"/>
	<polygon id="_x33_23" class="st4" points="154.8,220.3 154.8,217 161,220.9 163.4,219 166,219.3 167.2,221 165,222.7 167.2,224.4
		166,226.1 163.4,226.4 161,224.5 154.8,228.4 154.8,225.2 158.7,222.7 	"/>
	<polygon id="_x33_22" class="st1" points="161,221.3 155.2,217.7 155.2,220.1 159.3,222.7 155.2,225.4 155.2,227.8 161,224.1
		163.5,226.1 165.8,225.8 166.7,224.5 164.5,222.7 166.7,221 165.8,219.6 163.5,219.4 	"/>
	<polygon id="_x33_21" class="st4" points="154.8,209 154.8,205.8 161,209.7 163.4,207.8 166,208.1 167.2,209.8 165,211.5
		167.2,213.1 166,214.9 163.4,215.2 161,213.3 154.8,217.2 154.8,213.9 158.7,211.5 	"/>
	<polygon id="_x33_20" class="st1" points="161,210.1 155.2,206.4 155.2,208.8 159.3,211.5 155.2,214.1 155.2,216.5 161,212.8
		163.5,214.8 165.8,214.5 166.7,213.2 164.5,211.5 166.7,209.7 165.8,208.4 163.5,208.1 	"/>
	<polygon id="_x33_19" class="st4" points="154.8,236.4 154.8,239.7 161,235.8 163.4,237.7 166,237.4 167.2,235.7 165,234
		167.2,232.3 166,230.6 163.4,230.3 161,232.2 154.8,228.3 154.8,231.5 158.7,234 	"/>
	<polygon id="_x33_18" class="st1" points="161,235.4 155.2,239.1 155.2,236.6 159.3,234 155.2,231.3 155.2,228.9 161,232.6
		163.5,230.6 165.8,230.9 166.7,232.2 164.5,234 166.7,235.7 165.8,237.1 163.5,237.3 	"/>
	<path id="_x33_17" class="st4" d="M141.4,188.6v4.7h3.4v2.1h3.3v-3.8c0,0-2.7,0-3,0c0-0.3,0-3,0-3H141.4z"/>
	<path id="_x33_16" class="st1" d="M144.8,188.9c0,0.3,0,3,0,3s2.7,0,3,0c0,0.3,0,2.8,0,3.1h-2.7v-2.1h-3.4v-4
		C142,188.9,144.5,188.9,144.8,188.9z"/>
	<path id="_x33_15" class="st4" d="M151.4,196v4.7h3.4v2.1h3.4V199c0,0-2.7,0-3,0c0-0.3,0-3,0-3H151.4z"/>
	<path id="_x33_14" class="st1" d="M154.9,196.3c0,0.3,0,3,0,3s2.7,0,3,0c0,0.3,0,2.8,0,3.1h-2.7v-2.1h-3.4v-4
		C152.1,196.3,154.6,196.3,154.9,196.3L154.9,196.3z"/>
	<path id="_x33_13" class="st4" d="M81,188.6v4.7h-3.4v2.1h-3.3v-3.8c0,0,2.7,0,3,0c0-0.3,0-3,0-3H81z"/>
	<path id="_x33_12" class="st1" d="M77.6,188.9c0,0.3,0,3,0,3s-2.7,0-3,0c0,0.3,0,2.8,0,3.1h2.7v-2.1h3.4v-4
		C80.4,188.9,77.9,188.9,77.6,188.9z"/>
	<path id="_x33_11" class="st4" d="M141.4,256.9v-4.7h3.4v-2.1h3.3v3.8c0,0-2.7,0-3,0c0,0.3,0,3,0,3H141.4z"/>
	<path id="_x33_10" class="st1" d="M144.8,256.5c0-0.3,0-3,0-3s2.7,0,3,0c0-0.3,0-2.8,0-3.1h-2.7v2.1h-3.4v4
		C142,256.5,144.5,256.5,144.8,256.5z"/>
	<path id="_x33_09" class="st4" d="M81,256.9v-4.7h-3.4v-2.1h-3.3v3.8c0,0,2.7,0,3,0c0,0.3,0,3,0,3H81z"/>
	<path id="_x33_08" class="st1" d="M77.6,256.5c0-0.3,0-3,0-3s-2.7,0-3,0c0-0.3,0-2.8,0-3.1h2.7v2.1h3.4v4
		C80.4,256.5,77.9,256.5,77.6,256.5z"/>
	<path id="_x33_07" class="st4" d="M151.4,249.5v-4.7h3.4v-2.1h3.4v3.8c0,0-2.7,0-3,0c0,0.3,0,3,0,3H151.4z"/>
	<path id="_x33_06" class="st1" d="M154.9,249.1c0-0.3,0-3,0-3s2.7,0,3,0c0-0.3,0-2.8,0-3.1h-2.7v2.1h-3.4v4
		C152.1,249.1,154.6,249.1,154.9,249.1L154.9,249.1z"/>
	<path id="_x33_05" class="st4" d="M71,196v4.7h-3.4v2.1h-3.4V199c0,0,2.7,0,3,0c0-0.3,0-3,0-3H71z"/>
	<path id="_x33_04" class="st1" d="M67.5,196.3c0,0.3,0,3,0,3s-2.7,0-3,0c0,0.3,0,2.8,0,3.1h2.7v-2.1h3.4v-4
		C70.3,196.3,67.8,196.3,67.5,196.3z"/>
	<path id="_x33_03" class="st4" d="M71,249.5v-4.7h-3.4v-2.1h-3.4v3.8c0,0,2.7,0,3,0c0,0.3,0,3,0,3H71z"/>
	<path id="_x33_02" class="st1" d="M67.5,249.1c0-0.3,0-3,0-3s-2.7,0-3,0c0-0.3,0-2.8,0-3.1h2.7v2.1h3.4v4
		C70.3,249.1,67.8,249.1,67.5,249.1z"/>
	<path id="_x33_01" class="st4" d="M123.8,188.5c-0.2-0.2-2.6-2.5-2.6-2.5l-2.6,2.4c0,0,2,1.9,2.2,2.2l-2.9,2.8h4.3l1.5-1.5l1.5,1.5
		h4.3l-2.9-2.8c0.2-0.2,2.2-2.2,2.2-2.2l-2.6-2.4C125.5,186.8,124.7,187.6,123.8,188.5L123.8,188.5z"/>
	<path id="_x33_00" class="st1" d="M121.2,186.4c0.2,0.2,2.6,2.5,2.6,2.5s2.4-2.3,2.6-2.5c0.2,0.2,1.8,1.7,2.1,1.9
		c-0.2,0.2-2.2,2.2-2.2,2.2l2.5,2.4h-3.3l-1.7-1.6l-1.7,1.6h-3.3l2.5-2.4c0,0-2-1.9-2.2-2.2C119.4,188.1,121,186.6,121.2,186.4z"/>
	<path id="_x32_99" class="st4" d="M111.2,188.5c-0.2-0.2-2.6-2.5-2.6-2.5l-2.6,2.4c0,0,2,1.9,2.2,2.2l-2.9,2.8h4.3l1.5-1.5l1.5,1.5
		h4.3l-2.9-2.8c0.2-0.2,2.2-2.2,2.2-2.2l-2.6-2.4C112.9,186.8,112.1,187.6,111.2,188.5z"/>
	<path id="_x32_98" class="st1" d="M108.6,186.4c0.2,0.2,2.6,2.5,2.6,2.5s2.4-2.3,2.6-2.5c0.2,0.2,1.8,1.7,2,1.9
		c-0.2,0.2-2.2,2.2-2.2,2.2l2.5,2.4h-3.3l-1.7-1.6l-1.7,1.6h-3.3l2.5-2.4c0,0-2-1.9-2.2-2.2C106.8,188.1,108.4,186.6,108.6,186.4z"
		/>
	<path id="_x32_97" class="st4" d="M98.6,188.5c0.2-0.2,2.6-2.5,2.6-2.5l2.6,2.4c0,0-2,1.9-2.2,2.2l2.9,2.8h-4.3l-1.5-1.5l-1.5,1.5
		h-4.3l2.9-2.8c-0.2-0.2-2.2-2.2-2.2-2.2L96,186C96.9,186.8,97.7,187.6,98.6,188.5L98.6,188.5z"/>
	<path id="_x32_96" class="st1" d="M101.2,186.4c-0.2,0.2-2.6,2.5-2.6,2.5s-2.4-2.3-2.6-2.5c-0.2,0.2-1.8,1.7-2.1,1.9
		c0.2,0.2,2.2,2.2,2.2,2.2l-2.5,2.4h3.3l1.7-1.6l1.7,1.6h3.3l-2.5-2.4c0,0,2-1.9,2.2-2.2C103,188.1,101.4,186.6,101.2,186.4z"/>
	<path id="_x32_95" class="st4" d="M123.8,257c-0.2,0.2-2.6,2.5-2.6,2.5l-2.6-2.4c0,0,2-1.9,2.2-2.2l-2.9-2.8h4.3l1.5,1.5l1.5-1.5
		h4.3l-2.9,2.8c0.2,0.2,2.2,2.2,2.2,2.2l-2.6,2.4C125.5,258.7,124.7,257.8,123.8,257L123.8,257z"/>
	<path id="_x32_94" class="st1" d="M121.2,259c0.2-0.2,2.6-2.5,2.6-2.5s2.4,2.3,2.6,2.5c0.2-0.2,1.8-1.7,2.1-1.9
		c-0.2-0.2-2.2-2.2-2.2-2.2l2.5-2.4h-3.3l-1.7,1.6l-1.7-1.6h-3.3l2.5,2.4c0,0-2,1.9-2.2,2.2C119.4,257.3,121,258.8,121.2,259z"/>
	<path id="_x32_93" class="st4" d="M111.2,257c-0.2,0.2-2.6,2.5-2.6,2.5l-2.6-2.4c0,0,2-1.9,2.2-2.2l-2.9-2.8h4.3l1.5,1.5l1.5-1.5
		h4.3l-2.9,2.8c0.2,0.2,2.2,2.2,2.2,2.2l-2.6,2.4C112.9,258.7,112.1,257.8,111.2,257z"/>
	<path id="_x32_92" class="st1" d="M108.6,259c0.2-0.2,2.6-2.5,2.6-2.5s2.4,2.3,2.6,2.5c0.2-0.2,1.8-1.7,2-1.9
		c-0.2-0.2-2.2-2.2-2.2-2.2l2.5-2.4h-3.3l-1.7,1.6l-1.7-1.6h-3.3l2.5,2.4c0,0-2,1.9-2.2,2.2C106.8,257.3,108.4,258.8,108.6,259z"/>
	<path id="_x32_91" class="st4" d="M98.6,257c0.2,0.2,2.6,2.5,2.6,2.5l2.6-2.4c0,0-2-1.9-2.2-2.2l2.9-2.8h-4.3l-1.5,1.5l-1.5-1.5
		h-4.3l2.9,2.8c-0.2,0.2-2.2,2.2-2.2,2.2l2.6,2.4C96.9,258.7,97.7,257.8,98.6,257L98.6,257z"/>
	<path id="_x32_90" class="st1" d="M101.2,259c-0.2-0.2-2.6-2.5-2.6-2.5s-2.4,2.3-2.6,2.5c-0.2-0.2-1.8-1.7-2.1-1.9
		c0.2-0.2,2.2-2.2,2.2-2.2l-2.5-2.4h3.3l1.7,1.6l1.7-1.6h3.3L101,255c0,0,2,1.9,2.2,2.2C103,257.3,101.4,258.8,101.2,259z"/>
	<polygon id="_x32_89" class="st4" points="77.3,192.9 77.3,200.3 67.2,200.3 67.2,245.1 77.3,245.1 77.3,252.5 145.1,252.5
		145.1,245.1 155.2,245.1 155.2,200.3 145.1,200.3 145.1,192.9 	"/>
	<polygon id="_x32_88" class="st2" points="144.8,193.3 144.8,200.7 154.8,200.7 154.8,244.8 144.8,244.8 144.8,252.2 77.6,252.2
		77.6,244.8 67.6,244.8 67.6,200.7 77.6,200.7 77.6,193.3 	"/>
	<polygon id="_x32_87" class="st4" points="140.4,196.1 140.3,196.1 82,196.1 82,205 70.4,205 70.4,240.5 82,240.5 82,249.3
		140.4,249.3 140.4,240.5 152,240.5 152,205 140.4,205 	"/>
	<polygon id="_x32_86" class="st2" points="140.1,196.4 140.1,205.3 151.7,205.3 151.7,240.1 140.1,240.1 140.1,249 82.3,249
		82.3,240.1 70.7,240.1 70.7,205.3 82.3,205.3 82.3,196.4 	"/>
	<polygon id="_x32_85" class="st4" points="70.4,233.7 91.6,249.3 130.8,249.3 152,233.7 152,211.7 130.8,196.1 130.8,196.1
		91.6,196.1 70.4,211.7 	"/>
	<path id="_x32_84" class="st1" d="M130.7,196.4c0.1,0.1,20.8,15.4,20.9,15.5c0,0.2,0,21.4,0,21.6c-0.1,0.1-20.9,15.4-20.9,15.5
		c-0.1,0-38.9,0-39,0c-0.1-0.1-20.8-15.4-20.9-15.5c0-0.2,0-21.4,0-21.6c0.1-0.1,20.9-15.4,20.9-15.5
		C91.8,196.4,130.6,196.4,130.7,196.4z"/>
	<path id="_x32_83" class="st4" d="M134.9,200.9H87.3c0,0,0,3.5,0,3.8c-0.3,0-6.1,0-6.1,0v36.1c0,0,5.8,0,6.1,0c0,0.3,0,3.8,0,3.8
		h47.8c0,0,0-3.5,0-3.8c0.3,0,6.1,0,6.1,0v-36.1c0,0-5.8,0-6.1,0c0-0.3,0-3.8,0-3.8H134.9z"/>
	<polygon id="_x32_82" class="st2" points="134.7,201.2 134.7,205 140.8,205 140.8,240.5 134.7,240.5 134.7,244.2 87.7,244.2
		87.7,240.5 81.6,240.5 81.6,205 87.7,205 87.7,201.2 	"/>
	<polygon id="_x32_81" class="st4" points="82.7,235.9 93.1,244.6 129.3,244.6 139.7,235.9 139.7,209.6 129.3,200.9 129.3,200.9
		93.1,200.9 82.7,209.6 	"/>
	<path id="_x32_80" class="st1" d="M129.2,201.2c0.1,0.1,10,8.4,10.1,8.5c0,0.2,0,25.8,0,26c-0.1,0.1-10,8.4-10.1,8.5
		c-0.1,0-35.9,0-36,0c-0.1-0.1-10-8.4-10.1-8.5c0-0.2,0-25.8,0-26c0.1-0.1,10-8.4,10.1-8.5C93.3,201.2,129.1,201.2,129.2,201.2z"/>
	<polygon id="_x32_79" class="st4" points="84.5,235 93.7,242.8 128.7,242.8 137.9,235 137.9,210.4 128.7,202.7 128.6,202.7
		93.7,202.7 84.5,210.4 	"/>
	<path id="_x32_78" class="st2" d="M128.5,203c0.1,0.1,8.9,7.4,9,7.5c0,0.2,0,24.2,0,24.3c-0.1,0.1-8.9,7.5-9,7.5
		c-0.1,0-34.6,0-34.7,0c-0.1-0.1-8.9-7.4-9-7.5c0-0.2,0-24.2,0-24.3c0.1-0.1,8.9-7.5,9-7.5C94,203,128.4,203,128.5,203z"/>
	<polygon id="_x32_77" class="st4" points="97.9,201.2 124.5,201.2 124.5,199.8 121.7,197.4 119.1,199.7 116.4,197.4 113.8,199.7
		111.2,197.4 108.6,199.7 105.9,197.4 103.3,199.7 100.7,197.4 97.9,199.8 	"/>
	<polygon id="_x32_76" class="st2" points="124.1,200.9 119.2,200.9 119.2,200 121.7,197.9 124.1,200 	"/>
	<polygon id="_x32_75" class="st5" points="118.9,200.9 114,200.9 114,200 116.4,197.9 118.9,200 	"/>
	<polygon id="_x32_74" class="st2" points="113.7,200.9 108.7,200.9 108.7,200 111.2,197.9 113.7,200 	"/>
	<polygon id="_x32_73" class="st5" points="108.4,200.9 103.5,200.9 103.5,200 105.9,197.9 108.4,200 	"/>
	<polygon id="_x32_72" class="st2" points="103.2,200.9 98.2,200.9 98.2,200 100.7,197.9 103.2,200 	"/>
	<polygon id="_x32_71" class="st4" points="73.3,228 75.6,230.6 73.3,233.2 75.7,236 81.6,236 81.6,209.4 75.7,209.4 73.3,212.2
		75.6,214.9 73.3,217.5 75.6,220.1 73.3,222.7 75.6,225.3 	"/>
	<polygon id="_x32_70" class="st5" points="75.9,235.7 73.8,233.2 75.9,230.8 81.2,230.8 81.2,235.7 	"/>
	<polygon id="_x32_69" class="st2" points="75.9,230.4 73.8,228 75.9,225.5 81.2,225.5 81.2,230.4 	"/>
	<polygon id="_x32_68" class="st5" points="75.9,225.2 73.8,222.7 75.9,220.3 81.2,220.3 81.2,225.2 	"/>
	<polygon id="_x32_67" class="st2" points="75.9,219.9 73.8,217.5 75.9,215 81.2,215 81.2,219.9 	"/>
	<polygon id="_x32_66" class="st5" points="75.9,214.7 73.8,212.2 75.9,209.8 81.2,209.8 81.2,214.7 	"/>
	<polygon id="_x32_65" class="st4" points="97.9,244.2 124.5,244.2 124.5,245.6 121.7,248 119.1,245.8 116.4,248 113.8,245.8
		111.2,248 108.6,245.8 105.9,248 103.3,245.8 100.7,248 97.9,245.6 	"/>
	<polygon id="_x32_64" class="st2" points="124.1,244.6 119.2,244.6 119.2,245.5 121.7,247.6 124.1,245.5 	"/>
	<polygon id="_x32_63" class="st5" points="118.9,244.6 114,244.6 114,245.5 116.4,247.6 118.9,245.5 	"/>
	<polygon id="_x32_62" class="st2" points="113.7,244.6 108.7,244.6 108.7,245.5 111.2,247.6 113.7,245.5 	"/>
	<polygon id="_x32_61" class="st5" points="108.4,244.6 103.5,244.6 103.5,245.5 105.9,247.6 108.4,245.5 	"/>
	<polygon id="_x32_60" class="st2" points="103.2,244.6 98.2,244.6 98.2,245.5 100.7,247.6 103.2,245.5 	"/>
	<polygon id="_x32_59" class="st4" points="149.1,228 146.8,230.6 149.1,233.2 146.7,236 140.8,236 140.8,209.4 146.7,209.4
		149.1,212.2 146.8,214.9 149.1,217.5 146.8,220.1 149.1,222.7 146.8,225.3 	"/>
	<polygon id="_x32_58" class="st5" points="146.5,235.7 148.6,233.2 146.5,230.8 141.2,230.8 141.2,235.7 	"/>
	<polygon id="_x32_57" class="st2" points="146.5,230.4 148.6,228 146.5,225.5 141.2,225.5 141.2,230.4 	"/>
	<polygon id="_x32_56" class="st5" points="146.5,225.2 148.6,222.7 146.5,220.3 141.2,220.3 141.2,225.2 	"/>
	<polygon id="_x32_55" class="st2" points="146.5,219.9 148.6,217.5 146.5,215 141.2,215 141.2,219.9 	"/>
	<polygon id="_x32_54" class="st5" points="146.5,214.7 148.6,212.2 146.5,209.8 141.2,209.8 141.2,214.7 	"/>
	<polygon id="_x32_53" class="st3" points="99,242.4 101,240.5 103,242.4 	"/>
	<polygon id="_x32_52" class="st4" points="101,236.6 99.1,235 97.2,235.9 96.8,238.1 98.6,239.7 95.6,242.6 99.4,242.6 101,241
		102.6,242.6 106.4,242.6 103.4,239.7 105.2,238.1 104.8,235.9 102.9,235 	"/>
	<polygon id="_x32_51" class="st1" points="97.5,236.1 99,235.4 101,237 101.1,236.9 103,235.4 104.5,236.1 104.8,237.9
		102.9,239.7 105.7,242.4 103,242.4 101,240.5 99,242.4 96.3,242.4 99.1,239.7 97.2,237.9 	"/>
	<polygon id="_x32_50" class="st3" points="109.2,242.4 111.2,240.5 113.2,242.4 	"/>
	<polygon id="_x32_49" class="st4" points="111.2,236.6 109.3,235 107.4,235.9 107,238.1 108.8,239.7 105.8,242.6 109.6,242.6
		111.2,241 112.8,242.6 116.6,242.6 113.6,239.7 115.4,238.1 115,235.9 113.1,235 	"/>
	<polygon id="_x32_48" class="st1" points="107.7,236.1 109.2,235.4 111.2,237 111.3,236.9 113.2,235.4 114.7,236.1 115,237.9
		113.1,239.7 115.9,242.4 113.2,242.4 111.2,240.5 109.2,242.4 106.5,242.4 109.3,239.7 107.4,237.9 	"/>
	<polygon id="_x32_47" class="st3" points="123.4,242.4 121.4,240.5 119.4,242.4 	"/>
	<polygon id="_x32_46" class="st4" points="121.4,236.6 123.3,235 125.2,235.9 125.6,238.1 123.8,239.7 126.8,242.6 123,242.6
		121.4,241 119.8,242.6 116,242.6 119,239.7 117.2,238.1 117.5,235.9 119.5,235 	"/>
	<polygon id="_x32_45" class="st1" points="124.9,236.1 123.4,235.4 121.4,237 121.3,236.9 119.4,235.4 117.9,236.1 117.6,237.9
		119.5,239.7 116.7,242.4 119.4,242.4 121.4,240.5 123.4,242.4 126.1,242.4 123.3,239.7 125.2,237.9 	"/>
	<polygon id="_x32_44" class="st3" points="99,203 101,204.9 103,203 	"/>
	<polygon id="_x32_43" class="st4" points="101,208.9 99.1,210.4 97.2,209.6 96.8,207.4 98.6,205.8 95.6,202.8 99.3,202.8
		101,204.4 102.7,202.8 106.4,202.8 103.4,205.8 105.2,207.4 104.8,209.6 102.9,210.4 	"/>
	<polygon id="_x32_42" class="st1" points="97.5,209.3 99,210 101,208.4 101.1,208.5 103,210 104.5,209.3 104.8,207.5 102.9,205.8
		105.7,203 103,203 101,204.9 99,203 96.3,203 99.1,205.8 97.2,207.5 	"/>
	<polygon id="_x32_41" class="st3" points="109.2,203 111.2,204.9 113.2,203 	"/>
	<polygon id="_x32_40" class="st4" points="111.2,208.9 109.3,210.4 107.4,209.6 107,207.4 108.8,205.8 105.8,202.8 109.5,202.8
		111.2,204.4 112.9,202.8 116.6,202.8 113.6,205.8 115.4,207.4 115,209.6 113.1,210.4 	"/>
	<polygon id="_x32_39" class="st1" points="107.7,209.3 109.2,210 111.2,208.4 111.3,208.5 113.2,210 114.7,209.3 115,207.5
		113.1,205.8 115.9,203 113.2,203 111.2,204.9 109.2,203 106.5,203 109.3,205.8 107.4,207.5 	"/>
	<polygon id="_x32_38" class="st3" points="123.4,203 121.4,204.9 119.4,203 	"/>
	<polygon id="_x32_37" class="st4" points="121.4,208.9 123.3,210.4 125.2,209.6 125.6,207.4 123.8,205.8 126.8,202.8 123.1,202.8
		121.4,204.4 119.7,202.8 116,202.8 119,205.8 117.2,207.4 117.5,209.6 119.5,210.4 	"/>
	<polygon id="_x32_36" class="st1" points="124.9,209.3 123.4,210 121.4,208.4 121.3,208.5 119.4,210 117.9,209.3 117.6,207.5
		119.5,205.8 116.7,203 119.4,203 121.4,204.9 123.4,203 126.1,203 123.3,205.8 125.2,207.5 	"/>
	<polygon id="_x32_35" class="st3" points="137.5,212.9 137.5,215.5 137.5,215.5 136,214.2 	"/>
	<path id="_x32_34" class="st4" d="M135.1,212.3c-0.2-0.2-1.6-1.5-1.6-1.5l-2.2,0.3l-0.9,1.6c0,0,1.3,1.3,1.5,1.5
		c-0.2,0.2-1.5,1.5-1.5,1.5l0.9,1.6l2.2,0.3c0,0,1.4-1.3,1.6-1.5l2.6,2.1v-3l-1.2-1l1.2-1v-2.7l-0.2-0.2
		C136.7,211,135.9,211.7,135.1,212.3z"/>
	<path id="_x32_33" class="st1" d="M137.5,212.9l-1.6,1.3l1.6,1.3v2.1l-2.4-2c0,0-1.6,1.5-1.7,1.6c-0.1,0-1.7-0.2-1.8-0.2
		c-0.1-0.1-0.6-1-0.7-1.2c0.2-0.2,1.6-1.6,1.6-1.6s-1.4-1.4-1.6-1.6c0.1-0.2,0.6-1.1,0.7-1.2c0.2,0,1.7-0.2,1.8-0.2
		c0.1,0.1,1.7,1.6,1.7,1.6l2.4-2V212.9z"/>
	<polygon id="_x32_32" class="st3" points="137.5,221.4 137.5,224 137.5,224 136,222.7 	"/>
	<path id="_x32_31" class="st4" d="M135.1,220.8c-0.2-0.2-1.6-1.5-1.6-1.5l-2.2,0.3l-0.9,1.6c0,0,1.3,1.3,1.5,1.5
		c-0.2,0.2-1.5,1.5-1.5,1.5l0.9,1.6l2.2,0.3c0,0,1.4-1.3,1.6-1.5l2.6,2.1v-3l-1.2-1l1.2-1v-3C136.9,219.4,136,220.1,135.1,220.8z"/>
	<path id="_x32_30" class="st1" d="M137.5,221.4l-1.6,1.3l1.6,1.3v2.1l-2.4-2c0,0-1.6,1.5-1.7,1.6c-0.1,0-1.7-0.2-1.8-0.2
		c-0.1-0.1-0.6-1-0.7-1.2c0.2-0.2,1.6-1.6,1.6-1.6s-1.4-1.4-1.6-1.6c0.1-0.2,0.6-1.1,0.7-1.2c0.2,0,1.7-0.2,1.8-0.2
		c0.1,0.1,1.7,1.6,1.7,1.6l2.4-2V221.4z"/>
	<polygon id="_x32_29" class="st3" points="137.5,232.5 137.5,229.9 137.5,229.9 136,231.2 	"/>
	<path id="_x32_28" class="st4" d="M135.1,233.1c-0.2,0.2-1.6,1.5-1.6,1.5l-2.2-0.3l-0.9-1.6c0,0,1.3-1.3,1.5-1.5
		c-0.2-0.2-1.5-1.5-1.5-1.5l0.9-1.6l2.2-0.3c0,0,1.4,1.3,1.6,1.5l2.6-2.1v3l-1.2,1l1.2,1v2.7l-0.2,0.2
		C136.7,234.4,135.9,233.8,135.1,233.1z"/>
	<path id="_x32_27" class="st1" d="M137.5,232.5l-1.6-1.3l1.6-1.3v-2.1l-2.4,2c0,0-1.6-1.5-1.7-1.6c-0.1,0-1.7,0.2-1.8,0.2
		c-0.1,0.1-0.6,1-0.7,1.2c0.2,0.2,1.6,1.6,1.6,1.6s-1.4,1.4-1.6,1.6c0.1,0.2,0.6,1.1,0.7,1.2c0.2,0,1.7,0.2,1.8,0.2
		c0.1-0.1,1.7-1.6,1.7-1.6l2.4,2V232.5z"/>
	<polygon id="_x32_26" class="st3" points="84.9,212.9 84.9,215.5 84.9,215.5 86.4,214.2 	"/>
	<path id="_x32_25" class="st4" d="M87.3,212.3c0.2-0.2,1.6-1.5,1.6-1.5l2.2,0.3l0.9,1.6c0,0-1.3,1.3-1.5,1.5
		c0.2,0.2,1.5,1.5,1.5,1.5l-0.9,1.6l-2.2,0.3c0,0-1.4-1.3-1.6-1.5l-2.6,2.1v-3l1.2-1l-1.2-1v-2.7l0.2-0.1
		C85.7,211,86.5,211.7,87.3,212.3z"/>
	<path id="_x32_24" class="st1" d="M84.9,212.9l1.6,1.3l-1.6,1.3v2.1l2.4-2c0,0,1.6,1.5,1.7,1.6c0.1,0,1.7-0.2,1.8-0.2
		c0.1-0.1,0.6-1,0.7-1.2c-0.2-0.2-1.6-1.6-1.6-1.6s1.4-1.4,1.6-1.6c-0.1-0.2-0.6-1.1-0.7-1.2c-0.2,0-1.7-0.2-1.8-0.2
		c-0.1,0.1-1.7,1.6-1.7,1.6l-2.4-2V212.9z"/>
	<polygon id="_x32_23" class="st3" points="84.9,221.4 84.9,224 84.9,224 86.4,222.7 	"/>
	<path id="_x32_22" class="st4" d="M87.3,220.8c0.2-0.2,1.6-1.5,1.6-1.5l2.2,0.3l0.9,1.6c0,0-1.3,1.3-1.5,1.5
		c0.2,0.2,1.5,1.5,1.5,1.5l-0.9,1.6l-2.2,0.3c0,0-1.4-1.3-1.6-1.5l-2.6,2.1v-3l1.2-1l-1.2-1v-3C85.6,219.4,86.4,220.1,87.3,220.8z"
		/>
	<path id="_x32_21" class="st1" d="M84.9,221.4l1.6,1.3l-1.6,1.3v2.1l2.4-2c0,0,1.6,1.5,1.7,1.6c0.1,0,1.7-0.2,1.8-0.2
		c0.1-0.1,0.6-1,0.7-1.2c-0.2-0.2-1.6-1.6-1.6-1.6s1.4-1.4,1.6-1.6c-0.1-0.2-0.6-1.1-0.7-1.2c-0.2,0-1.7-0.2-1.8-0.2
		c-0.1,0.1-1.7,1.6-1.7,1.6l-2.4-2V221.4z"/>
	<polygon id="_x32_20" class="st3" points="84.9,232.5 84.9,229.9 84.9,229.9 86.4,231.2 	"/>
	<path id="_x32_19" class="st4" d="M87.3,233.1c0.2,0.2,1.6,1.5,1.6,1.5l2.2-0.3l0.9-1.6c0,0-1.3-1.3-1.5-1.5
		c0.2-0.2,1.5-1.5,1.5-1.5l-0.9-1.6l-2.2-0.3c0,0-1.4,1.3-1.6,1.5l-2.6-2.1v3l1.2,1l-1.2,1v2.7l0.2,0.2
		C85.7,234.4,86.5,233.8,87.3,233.1z"/>
	<path id="_x32_18" class="st1" d="M84.9,232.5l1.6-1.3l-1.6-1.3v-2.1l2.4,2c0,0,1.6-1.5,1.7-1.6c0.1,0,1.7,0.2,1.8,0.2
		c0.1,0.1,0.6,1,0.7,1.2c-0.2,0.2-1.6,1.6-1.6,1.6s1.4,1.4,1.6,1.6c-0.1,0.2-0.6,1.1-0.7,1.2c-0.2,0-1.7,0.2-1.8,0.2
		c-0.1-0.1-1.7-1.6-1.7-1.6l-2.4,2V232.5z"/>
	<polygon id="_x32_17" class="st4" points="119.9,228.6 119.9,225.6 124.2,225.6 124.2,219.9 119.9,219.9 119.9,216.9 116.9,216.9
		116.9,213.5 105.5,213.5 105.5,216.9 102.5,216.9 102.5,219.9 98.2,219.9 98.2,225.6 102.5,225.6 102.5,228.6 105.5,228.6
		105.5,231.9 116.9,231.9 116.9,228.6 	"/>
	<polygon id="_x32_16" class="st5" points="102.8,220.2 102.8,217.2 105.9,217.2 105.9,213.9 111,213.9 111,217.3 106.2,220.1
		106.2,222.6 98.6,222.6 98.6,220.2 	"/>
	<polygon id="_x32_15" class="st5" points="119.6,225.2 119.6,228.3 116.5,228.3 116.5,231.6 111.4,231.6 111.4,228.2 116.2,225.4
		116.2,222.9 123.8,222.9 123.8,225.2 	"/>
	<polygon id="_x32_14" class="st3" points="119.6,217.2 119.6,220.2 123.8,220.2 123.8,222.6 116.2,222.6 116.2,220.1 111.4,217.3
		111.4,213.9 116.5,213.9 116.5,217.2 	"/>
	<polygon id="_x32_13" class="st3" points="105.9,228.3 102.8,228.3 102.8,225.2 98.6,225.2 98.6,222.9 106.2,222.9 106.2,225.4
		111,228.2 111,231.6 105.9,231.6 	"/>
	<polygon id="_x32_12" class="st2" points="106.5,222.9 106.5,225.2 111,227.8 111,222.9 	"/>
	<polygon id="_x32_11" class="st1" points="111,217.7 106.5,220.2 106.5,222.6 111,222.6 	"/>
	<polygon id="_x32_10" class="st2" points="115.9,222.6 115.9,220.2 111.4,217.7 111.4,222.6 	"/>
	<polygon id="_x32_09" class="st1" points="111.4,227.8 115.9,225.2 115.9,222.9 111.4,222.9 	"/>
	<polygon id="_x32_08" class="st4" points="70.1,283 70.1,292.4 61.2,292.4 61.2,300.9 52.1,300.9 52.1,325.1 61.2,325.1
		61.2,333.6 70.1,333.6 70.1,342.9 102.6,342.9 108.3,346.4 105.6,348 94,348 93,346.9 103.5,346.9 100.5,343.9 85.5,343.9
		92.3,351 106.4,351 111.2,348.1 116,351 130.1,351 136.9,343.9 121.9,343.9 118.9,346.9 129.4,346.9 128.4,348 116.8,348
		114.1,346.4 119.8,342.9 152.3,342.9 152.3,333.6 161.2,333.6 161.2,325.1 170.3,325.1 170.3,300.9 161.2,300.9 161.2,292.4
		152.3,292.4 152.3,283 119.8,283 114.1,279.6 116.8,277.9 128.4,277.9 129.4,279 118.9,279 121.9,282 136.9,282 130.1,274.9
		116,274.9 111.2,277.8 106.4,274.9 92.3,274.9 85.5,282 100.5,282 103.5,279 93,279 94,277.9 105.6,277.9 108.3,279.6 102.6,283
		"/>
	<polygon id="_x32_07" class="st2" points="160.9,301.2 169.9,301.2 169.9,324.7 160.9,324.7 160.9,333.2 151.9,333.2 151.9,342.6
		119.7,342.6 113.4,346.4 116.7,348.4 128.6,348.4 130.2,346.6 119.7,346.6 122,344.3 136.1,344.3 129.9,350.7 116.1,350.7
		111.2,347.7 106.3,350.7 92.5,350.7 86.3,344.3 100.4,344.3 102.7,346.6 92.2,346.6 93.8,348.4 105.7,348.4 109,346.4 102.7,342.6
		70.5,342.6 70.5,333.2 61.5,333.2 61.5,324.7 52.5,324.7 52.5,301.2 61.5,301.2 61.5,292.7 70.5,292.7 70.5,283.3 102.7,283.3
		109,279.6 105.7,277.6 93.8,277.6 92.2,279.4 102.7,279.4 100.4,281.7 86.3,281.7 92.5,275.3 106.3,275.3 111.2,278.2 116.1,275.3
		129.9,275.3 136.1,281.7 122,281.7 119.7,279.4 130.2,279.4 128.6,277.6 116.7,277.6 113.4,279.6 119.7,283.3 151.9,283.3
		151.9,292.7 160.9,292.7 	"/>
	<polygon id="_x32_06" class="st4" points="111.2,345 120.9,339.2 148.6,339.2 148.6,329.9 157.5,329.9 157.5,321.4 166.6,321.4
		166.6,304.6 157.5,304.6 157.5,296.1 148.6,296.1 148.6,286.7 120.9,286.7 111.2,280.9 101.5,286.7 73.8,286.7 73.8,296.1
		64.9,296.1 64.9,304.6 55.8,304.6 55.8,321.4 64.9,321.4 64.9,329.9 73.8,329.9 73.8,339.2 101.5,339.2 	"/>
	<polygon id="_x32_05" class="st5" points="148.2,329.5 148.2,338.9 120.8,338.9 111.2,344.6 101.6,338.9 74.2,338.9 74.2,329.5
		65.2,329.5 65.2,321 56.2,321 56.2,304.9 65.2,304.9 65.2,296.4 74.2,296.4 74.2,287 101.6,287 101.6,287 111.2,281.3 120.8,287
		148.2,287 148.2,296.4 157.2,296.4 157.2,304.9 166.2,304.9 166.2,321 157.2,321 157.2,329.5 	"/>
	<polygon id="_x32_04" class="st4" points="111.2,342.3 120.2,336.9 146.2,336.9 146.2,327.5 155.1,327.5 155.1,319 164.2,319
		164.2,306.9 155.1,306.9 155.1,298.4 146.2,298.4 146.2,289 120.2,289 111.2,283.6 102.2,289 76.2,289 76.2,298.4 67.2,298.4
		67.2,306.9 58.2,306.9 58.2,319 67.2,319 67.2,327.5 76.2,327.5 76.2,336.9 102.2,336.9 	"/>
	<polygon id="_x32_03" class="st1" points="145.9,327.2 145.9,336.5 120.1,336.5 111.2,341.9 102.3,336.5 76.5,336.5 76.5,327.2
		67.6,327.2 67.6,318.7 58.5,318.7 58.5,307.3 67.6,307.3 67.6,298.8 76.5,298.8 76.5,289.4 102.2,289.4 102.3,289.4 111.2,284
		120.1,289.4 145.9,289.4 145.9,298.8 154.8,298.8 154.8,307.3 163.9,307.3 163.9,318.7 154.8,318.7 154.8,327.2 	"/>
	<polygon id="_x32_02" class="st4" points="79.9,323.9 79.9,333 94.1,333 79.9,323.6 	"/>
	<polygon id="_x32_01" class="st2" points="80.2,324.2 92.9,332.6 80.2,332.6 	"/>
	<polygon id="_x32_00" class="st4" points="120.4,323.2 120.4,318.6 118.8,318.6 111.2,313.8 111.1,313.9 103.6,318.6 102,318.6
		102,323.2 97.5,323.2 97.5,328.2 102,328.2 102,332.8 103.6,332.8 111.2,337.5 118.8,332.8 120.4,332.8 120.4,328.2 124.9,328.2
		124.9,323.2 	"/>
	<path id="_x31_99" class="st5" d="M111.2,314.2l6.9,4.3h-13.9L111.2,314.2L111.2,314.2z M118.1,332.8l-6.9,4.3l-6.9-4.3H118.1z"/>
	<polygon id="_x31_98" class="st2" points="120,328.2 120,332.5 111.4,332.5 111.4,328.2 	"/>
	<polygon id="_x31_97" class="st2" points="111,328.2 111,332.5 102.4,332.5 102.4,328.2 	"/>
	<polygon id="_x31_96" class="st2" points="124.5,323.5 124.5,327.8 115.9,327.8 115.9,323.5 	"/>
	<polygon id="_x31_95" class="st2" points="115.5,323.5 115.5,327.8 106.9,327.8 106.9,323.5 	"/>
	<polygon id="_x31_94" class="st2" points="106.5,323.5 106.5,327.8 97.9,327.8 97.9,323.5 	"/>
	<polygon id="_x31_93" class="st2" points="120,318.9 120,323.2 111.4,323.2 111.4,318.9 	"/>
	<polygon id="_x31_92" class="st2" points="111,318.9 111,323.2 102.4,323.2 102.4,318.9 	"/>
	<polygon id="_x31_91" class="st4" points="98,310.5 98,305.8 96.4,305.8 88.8,301.1 88.7,301.2 81.2,305.8 79.6,305.8 79.6,310.5
		76.1,310.5 76.1,315.5 79.6,315.5 79.6,320.1 81.2,320.1 88.8,324.8 96.4,320.1 98,320.1 98,315.5 103.4,315.5 103.4,310.5 	"/>
	<path id="_x31_90" class="st2" d="M88.8,301.5l6.9,4.3H81.9L88.8,301.5z M95.7,320.1l-6.9,4.3l-6.9-4.3H95.7z"/>
	<polygon id="_x31_89" class="st5" points="97.6,315.5 97.6,319.7 89,319.7 89,315.5 	"/>
	<polygon id="_x31_88" class="st5" points="88.6,315.5 88.6,319.7 80,319.7 80,315.5 	"/>
	<polygon id="_x31_87" class="st5" points="103,310.8 103,315.1 94.4,315.1 94.4,310.8 	"/>
	<polygon id="_x31_86" class="st2" points="94,310.8 94,315.1 85.4,315.1 85.4,310.8 	"/>
	<polygon id="_x31_85" class="st5" points="85.1,310.8 85.1,315.1 76.4,315.1 76.4,310.8 	"/>
	<polygon id="_x31_84" class="st5" points="97.6,306.2 97.6,310.5 89,310.5 89,306.2 	"/>
	<polygon id="_x31_83" class="st5" points="88.6,306.2 88.6,310.5 80,310.5 80,306.2 	"/>
	<polygon id="_x31_82" class="st4" points="124.4,310.5 124.4,305.8 126,305.8 133.6,301.1 133.7,301.2 141.2,305.8 142.8,305.8
		142.8,310.5 146.3,310.5 146.3,315.5 142.8,315.5 142.8,320.1 141.2,320.1 133.6,324.8 126,320.1 124.4,320.1 124.4,315.5
		119,315.5 119,310.5 	"/>
	<path id="_x31_81" class="st2" d="M133.6,301.5l-6.9,4.3h13.9L133.6,301.5z M126.7,320.1l6.9,4.3l6.9-4.3H126.7z"/>
	<polygon id="_x31_80" class="st5" points="124.8,315.5 124.8,319.7 133.4,319.7 133.4,315.5 	"/>
	<polygon id="_x31_79" class="st5" points="133.8,315.5 133.8,319.7 142.4,319.7 142.4,315.5 	"/>
	<polygon id="_x31_78" class="st5" points="119.4,310.8 119.4,315.1 128,315.1 128,310.8 	"/>
	<polygon id="_x31_77" class="st2" points="128.3,310.8 128.3,315.1 137,315.1 137,310.8 	"/>
	<polygon id="_x31_76" class="st5" points="137.3,310.8 137.3,315.1 146,315.1 146,310.8 	"/>
	<polygon id="_x31_75" class="st5" points="124.8,306.2 124.8,310.5 133.4,310.5 133.4,306.2 	"/>
	<polygon id="_x31_74" class="st5" points="133.8,306.2 133.8,310.5 142.4,310.5 142.4,306.2 	"/>
	<polygon id="_x31_73" class="st4" points="120.4,302.7 120.4,307.4 118.8,307.4 111.2,312.1 111.1,312.1 103.6,307.4 102,307.4
		102,302.7 97.5,302.7 97.5,297.8 102,297.8 102,293.1 103.6,293.1 111.2,288.4 118.8,293.1 120.4,293.1 120.4,297.8 124.9,297.8
		124.9,302.7 	"/>
	<path id="_x31_72" class="st5" d="M111.2,311.7l6.9-4.3h-13.9L111.2,311.7L111.2,311.7z M118.1,293.1l-6.9-4.3l-6.9,4.3H118.1z"/>
	<polygon id="_x31_71" class="st2" points="120,297.8 120,293.5 111.4,293.5 111.4,297.8 	"/>
	<polygon id="_x31_70" class="st2" points="111,297.8 111,293.5 102.4,293.5 102.4,297.8 	"/>
	<polygon id="_x31_69" class="st2" points="124.5,302.4 124.5,298.1 115.9,298.1 115.9,302.4 	"/>
	<polygon id="_x31_68" class="st2" points="115.5,302.4 115.5,298.1 106.9,298.1 106.9,302.4 	"/>
	<polygon id="_x31_67" class="st2" points="106.5,302.4 106.5,298.1 97.9,298.1 97.9,302.4 	"/>
	<polygon id="_x31_66" class="st2" points="120,307 120,302.7 111.4,302.7 111.4,307 	"/>
	<polygon id="_x31_65" class="st2" points="111,307 111,302.7 102.4,302.7 102.4,307 	"/>
	<polygon id="_x31_64" class="st4" points="79.9,302 79.9,293 94.1,293 79.9,302.4 	"/>
	<path id="_x31_63" class="st2" d="M80.2,301.7c0.5-0.3,11.8-7.8,12.7-8.4c-1,0-12.4,0-12.7,0C80.2,293.6,80.2,301.1,80.2,301.7z"/>
	<polygon id="_x31_62" class="st4" points="142.5,323.9 142.5,333 128.3,333 142.5,323.6 	"/>
	<path id="_x31_61" class="st2" d="M142.2,324.2c-0.5,0.3-11.8,7.8-12.7,8.4c1,0,12.4,0,12.7,0C142.2,332.3,142.2,324.8,142.2,324.2
		z"/>
	<polygon id="_x31_60" class="st4" points="142.5,302 142.5,293 128.3,293 142.5,302.4 	"/>
	<path id="_x31_59" class="st2" d="M142.2,301.7c-0.5-0.3-11.8-7.8-12.7-8.4c1,0,12.4,0,12.7,0C142.2,293.6,142.2,301.1,142.2,301.7
		z"/>
	<polygon id="_x31_58" class="st4" points="82.7,311.8 82.7,314.2 78.8,314.2 78.8,311.8 	"/>
	<polygon id="_x31_57" class="st3" points="82.3,312.1 79.2,312.1 79.2,313.8 82.3,313.8 	"/>
	<polygon id="_x31_56" class="st4" points="86.2,307.1 86.2,309.5 82.4,309.5 82.4,307.1 	"/>
	<polygon id="_x31_55" class="st3" points="85.9,307.5 82.7,307.5 82.7,309.2 85.9,309.2 	"/>
	<polygon id="_x31_54" class="st4" points="95.2,307.1 95.2,309.5 91.3,309.5 91.3,307.1 	"/>
	<polygon id="_x31_53" class="st3" points="94.9,307.5 91.7,307.5 91.7,309.2 94.9,309.2 	"/>
	<polygon id="_x31_52" class="st4" points="91.7,311.8 91.7,314.2 87.8,314.2 87.8,311.8 	"/>
	<polygon id="_x31_51" class="st3" points="91.3,312.1 88.2,312.1 88.2,313.8 91.3,313.8 	"/>
	<polygon id="_x31_50" class="st4" points="100.7,311.8 100.7,314.2 96.8,314.2 96.8,311.8 	"/>
	<polygon id="_x31_49" class="st3" points="100.3,312.1 97.1,312.1 97.1,313.8 100.3,313.8 	"/>
	<polygon id="_x31_48" class="st4" points="95.2,316.4 95.2,318.8 91.3,318.8 91.3,316.4 	"/>
	<polygon id="_x31_47" class="st3" points="94.9,316.8 91.7,316.8 91.7,318.4 94.9,318.4 	"/>
	<polygon id="_x31_46" class="st4" points="86.2,316.4 86.2,318.8 82.4,318.8 82.4,316.4 	"/>
	<polygon id="_x31_45" class="st3" points="85.9,316.8 82.7,316.8 82.7,318.4 85.9,318.4 	"/>
	<polygon id="_x31_44" class="st4" points="108.6,294.4 108.6,296.8 104.8,296.8 104.8,294.4 	"/>
	<polygon id="_x31_43" class="st3" points="108.3,294.8 105.1,294.8 105.1,296.4 108.3,296.4 	"/>
	<polygon id="_x31_42" class="st4" points="117.6,294.4 117.6,296.8 113.8,296.8 113.8,294.4 	"/>
	<polygon id="_x31_41" class="st3" points="117.3,294.8 114.1,294.8 114.1,296.4 117.3,296.4 	"/>
	<polygon id="_x31_40" class="st4" points="104.1,299.1 104.1,301.4 100.3,301.4 100.3,299.1 	"/>
	<polygon id="_x31_39" class="st3" points="103.8,299.4 100.6,299.4 100.6,301.1 103.8,301.1 	"/>
	<polygon id="_x31_38" class="st4" points="113.1,299.1 113.1,301.4 109.3,301.4 109.3,299.1 	"/>
	<polygon id="_x31_37" class="st3" points="112.8,299.4 109.6,299.4 109.6,301.1 112.8,301.1 	"/>
	<polygon id="_x31_36" class="st4" points="122.1,299.1 122.1,301.4 118.2,301.4 118.2,299.1 	"/>
	<polygon id="_x31_35" class="st3" points="121.8,299.4 118.6,299.4 118.6,301.1 121.8,301.1 	"/>
	<polygon id="_x31_34" class="st4" points="108.6,303.7 108.6,306.1 104.8,306.1 104.8,303.7 	"/>
	<polygon id="_x31_33" class="st3" points="108.3,304.1 105.1,304.1 105.1,305.7 108.3,305.7 	"/>
	<polygon id="_x31_32" class="st4" points="117.6,303.7 117.6,306.1 113.8,306.1 113.8,303.7 	"/>
	<polygon id="_x31_31" class="st3" points="117.3,304.1 114.1,304.1 114.1,305.7 117.3,305.7 	"/>
	<polygon id="_x31_30" class="st4" points="131,307.1 131,309.5 127.2,309.5 127.2,307.1 	"/>
	<polygon id="_x31_29" class="st3" points="130.7,307.5 127.5,307.5 127.5,309.2 130.7,309.2 	"/>
	<polygon id="_x31_28" class="st4" points="140,307.1 140,309.5 136.2,309.5 136.2,307.1 	"/>
	<polygon id="_x31_27" class="st3" points="139.7,307.5 136.5,307.5 136.5,309.2 139.7,309.2 	"/>
	<polygon id="_x31_26" class="st4" points="125.6,311.8 125.6,314.2 121.7,314.2 121.7,311.8 	"/>
	<polygon id="_x31_25" class="st3" points="125.3,312.1 122.1,312.1 122.1,313.8 125.3,313.8 	"/>
	<polygon id="_x31_24" class="st4" points="134.6,311.8 134.6,314.2 130.7,314.2 130.7,311.8 	"/>
	<polygon id="_x31_23" class="st3" points="134.2,312.1 131.1,312.1 131.1,313.8 134.2,313.8 	"/>
	<polygon id="_x31_22" class="st4" points="143.6,311.8 143.6,314.2 139.7,314.2 139.7,311.8 	"/>
	<polygon id="_x31_21" class="st3" points="143.2,312.1 140.1,312.1 140.1,313.8 143.2,313.8 	"/>
	<polygon id="_x31_20" class="st4" points="131,316.4 131,318.8 127.2,318.8 127.2,316.4 	"/>
	<polygon id="_x31_19" class="st3" points="130.7,316.8 127.5,316.8 127.5,318.4 130.7,318.4 	"/>
	<polygon id="_x31_18" class="st4" points="140,316.4 140,318.8 136.2,318.8 136.2,316.4 	"/>
	<polygon id="_x31_17" class="st3" points="139.7,316.8 136.5,316.8 136.5,318.4 139.7,318.4 	"/>
	<polygon id="_x31_16" class="st4" points="108.6,319.9 108.6,322.2 104.8,322.2 104.8,319.9 	"/>
	<polygon id="_x31_15" class="st3" points="108.3,320.2 105.1,320.2 105.1,321.9 108.3,321.9 	"/>
	<polygon id="_x31_14" class="st4" points="117.6,319.9 117.6,322.2 113.8,322.2 113.8,319.9 	"/>
	<polygon id="_x31_13" class="st3" points="117.3,320.2 114.1,320.2 114.1,321.9 117.3,321.9 	"/>
	<polygon id="_x31_12" class="st4" points="104.1,324.5 104.1,326.9 100.3,326.9 100.3,324.5 	"/>
	<polygon id="_x31_11" class="st3" points="103.8,324.9 100.6,324.9 100.6,326.5 103.8,326.5 	"/>
	<polygon id="_110" class="st4" points="113.1,324.5 113.1,326.9 109.3,326.9 109.3,324.5 	"/>
	<polygon id="_x31_09" class="st3" points="112.8,324.9 109.6,324.9 109.6,326.5 112.8,326.5 	"/>
	<polygon id="_x31_08" class="st4" points="122.1,324.5 122.1,326.9 118.2,326.9 118.2,324.5 	"/>
	<polygon id="_x31_07" class="st3" points="121.8,324.9 118.6,324.9 118.6,326.5 121.8,326.5 	"/>
	<polygon id="_x31_06" class="st4" points="108.6,329.1 108.6,331.5 104.8,331.5 104.8,329.1 	"/>
	<polygon id="_x31_05" class="st3" points="108.3,329.5 105.1,329.5 105.1,331.1 108.3,331.1 	"/>
	<polygon id="_x31_04" class="st4" points="117.6,329.1 117.6,331.5 113.8,331.5 113.8,329.1 	"/>
	<polygon id="_x31_03" class="st3" points="117.3,329.5 114.1,329.5 114.1,331.1 117.3,331.1 	"/>
	<polygon id="_x31_02" class="st4" points="160.3,413.3 126.6,431.4 95.8,431.4 62.1,413.3 62.1,383.5 95.8,365.4 95.8,365.4
		126.6,365.4 160.3,383.5 	"/>
	<polygon id="_x31_01" class="st1" points="126.5,431.1 159.9,413.1 159.9,383.7 126.5,365.7 95.9,365.7 62.5,383.7 62.5,413.1
		95.9,431.1 	"/>
	<polygon id="_x31_00" class="st4" points="157.5,411.7 125.9,428.7 96.5,428.7 64.9,411.7 64.9,385.1 96.5,368.1 96.5,368.1
		125.9,368.1 157.5,385.1 	"/>
	<polygon id="_x39_9" class="st5" points="157.2,411.5 157.2,398.6 111.4,398.6 111.4,428.3 125.8,428.3 	"/>
	<polygon id="_x39_8" class="st5" points="65.2,398.2 111,398.2 111,368.5 96.6,368.5 65.2,385.3 	"/>
	<polygon id="_x39_7" class="st3" points="96.6,428.3 111,428.3 111,398.6 65.2,398.6 65.2,411.5 	"/>
	<polygon id="_x39_6" class="st3" points="157.2,385.3 125.8,368.5 111.4,368.5 111.4,398.2 157.2,398.2 	"/>
	<polygon id="_x39_5" class="st4" points="125.9,410.4 116.9,416.1 116.9,422.3 122.8,426.7 114,426.7 114,418 111.2,419.7
		108.4,418 108.4,426.7 99.6,426.7 105.5,422.3 105.5,416.1 96.5,410.4 90.2,410.4 90.2,386.4 96.5,386.4 105.5,380.7 105.5,374.5
		99.6,370.1 100.2,370.1 108.4,370.1 108.4,378.9 111.2,377.1 114,378.9 114,370.1 122.8,370.1 116.9,374.5 116.9,380.7
		125.9,386.4 132.2,386.4 132.2,410.4 	"/>
	<polygon id="_x39_4" class="st5" points="125.8,386.7 116.5,380.8 116.5,374.3 121.7,370.5 114.4,370.5 114.4,379.5 111.4,377.6
		111.4,398.2 131.8,398.2 131.8,386.7 	"/>
	<polygon id="_x39_3" class="st5" points="96.6,410.1 105.9,416 105.9,422.5 100.7,426.3 108,426.3 108,417.3 111,419.2 111,398.6
		90.6,398.6 90.6,410.1 	"/>
	<polygon id="_x39_2" class="st3" points="114.4,426.3 121.7,426.3 116.5,422.5 116.5,416 125.8,410.1 131.8,410.1 131.8,398.6
		111.4,398.6 111.4,419.2 114.4,417.3 	"/>
	<polygon id="_x39_1" class="st3" points="105.9,380.8 96.6,386.7 90.6,386.7 90.6,398.2 111,398.2 111,377.6 108,379.5 108,370.5
		100.7,370.5 105.9,374.3 	"/>
	<polygon id="_x39_0" class="st4" points="125.1,388.9 129.7,388.9 129.7,407.9 125.1,407.9 111.2,416.8 97.3,407.9 92.7,407.9
		92.7,388.9 97.3,388.9 111.2,380 111.3,380.1 	"/>
	<polygon id="_x38_9" class="st2" points="125,389.2 111.2,380.4 97.4,389.2 93.1,389.2 93.1,407.6 97.4,407.6 111.2,416.4
		125,407.6 129.3,407.6 129.3,389.2 125.1,389.2 	"/>
	<polygon id="_x38_8" class="st4" points="114.9,389.6 114.9,390.9 116.5,390.9 116.5,393.4 112.3,393.4 112.3,387.1 121.7,387.1
		121.7,391.5 126.3,391.5 126.3,398 121.5,398 121.5,395.4 123.7,395.4 123.7,394 120.8,394 113.6,398.4 120.8,402.8 123.7,402.8
		123.7,401.4 121.5,401.4 121.5,398.8 126.3,398.8 126.3,405.3 121.7,405.3 121.7,409.7 112.3,409.7 112.3,403.4 116.5,403.4
		116.5,405.9 114.9,405.9 114.9,407.2 119.2,407.2 119.2,404.8 111.2,399.9 103.2,404.8 103.2,407.2 107.5,407.2 107.5,405.9
		105.9,405.9 105.9,403.4 110.1,403.4 110.1,409.7 100.7,409.7 100.7,405.3 96.1,405.3 96.1,398.8 100.9,398.8 100.9,401.4
		98.7,401.4 98.7,402.8 101.6,402.8 108.8,398.4 101.6,394 98.7,394 98.7,395.4 100.9,395.4 100.9,398 96.1,398 96.1,391.5
		100.7,391.5 100.7,387.1 100.9,387.1 110.1,387.1 110.1,393.4 105.9,393.4 105.9,390.9 107.5,390.9 107.5,389.6 103.2,389.6
		103.2,392 111.2,396.9 119.2,392 119.2,389.6 	"/>
	<polygon id="_x38_7" class="st3" points="98.3,401 100.5,401 100.5,399.2 96.5,399.2 96.5,405 101,405 101,409.4 109.7,409.4
		109.7,403.7 106.3,403.7 106.3,405.6 107.9,405.6 107.9,407.5 102.9,407.5 102.9,404.6 111.2,399.5 119.5,404.6 119.5,407.5
		114.5,407.5 114.5,405.6 116.1,405.6 116.1,403.7 112.7,403.7 112.7,409.4 121.4,409.4 121.4,405 125.9,405 125.9,399.2
		121.9,399.2 121.9,401 124.1,401 124.1,403.1 120.7,403.1 113,398.4 120.7,393.7 124.1,393.7 124.1,395.8 121.9,395.8 121.9,397.6
		125.9,397.6 125.9,391.8 121.4,391.8 121.4,387.4 112.7,387.4 112.7,393.1 116.1,393.1 116.1,391.2 114.5,391.2 114.5,389.3
		119.5,389.3 119.5,392.2 111.2,397.3 102.9,392.2 102.9,389.3 107.9,389.3 107.9,391.2 106.3,391.2 106.3,393.1 109.7,393.1
		109.7,387.4 101,387.4 101,391.8 96.5,391.8 96.5,397.6 100.5,397.6 100.5,395.8 98.3,395.8 98.3,393.7 101.7,393.7 109.4,398.4
		101.7,403.1 98.3,403.1 	"/>
	<polygon id="_x38_6" class="st4" points="142.4,399.9 142.4,403.2 146.4,403.2 146.4,399.9 150.4,399.9 150.4,409.3 146.4,409.3
		146.4,406 142.4,406 142.4,409.3 138.4,409.3 138.4,399.9 	"/>
	<polygon id="_x38_5" class="st4" points="128.1,412.4 128.1,415.7 132.1,415.7 132.1,412.4 136.1,412.4 136.1,421.8 132.1,421.8
		132.1,418.5 128.1,418.5 128.1,421.8 124.1,421.8 124.1,412.4 	"/>
	<polygon id="_x38_4" class="st4" points="142.4,396.9 142.4,393.6 146.4,393.6 146.4,396.9 150.4,396.9 150.4,387.5 146.4,387.5
		146.4,390.8 142.4,390.8 142.4,387.5 138.4,387.5 138.4,396.9 	"/>
	<polygon id="_x38_3" class="st4" points="80,399.9 80,403.2 76,403.2 76,399.9 72,399.9 72,409.3 76,409.3 76,406 80,406 80,409.3
		84,409.3 84,399.9 	"/>
	<polygon id="_x38_2" class="st4" points="80,396.9 80,393.6 76,393.6 76,396.9 72,396.9 72,387.5 76,387.5 76,390.8 80,390.8
		80,387.5 84,387.5 84,396.9 	"/>
	<polygon id="_x38_1" class="st4" points="128.1,384.4 128.1,381.1 132.1,381.1 132.1,384.4 136.1,384.4 136.1,375 132.1,375
		132.1,378.3 128.1,378.3 128.1,375 124.1,375 124.1,384.4 	"/>
	<polygon id="_x38_0" class="st4" points="94.3,412.4 94.3,415.7 90.3,415.7 90.3,412.4 86.3,412.4 86.3,421.8 90.3,421.8
		90.3,418.5 94.3,418.5 94.3,421.8 98.3,421.8 98.3,412.4 	"/>
	<polygon id="_x37_9" class="st4" points="94.3,384.4 94.3,381.1 90.3,381.1 90.3,384.4 86.3,384.4 86.3,375 90.3,375 90.3,378.3
		94.3,378.3 94.3,375 98.3,375 98.3,384.4 	"/>
	<polygon id="_x37_8" class="st2" points="138.7,400.3 138.7,409 142,409 142,405.7 146.8,405.7 146.8,409 150.1,409 150.1,400.3
		146.8,400.3 146.8,403.6 142,403.6 142,400.3 	"/>
	<polygon id="_x37_7" class="st2" points="124.4,412.7 124.4,421.5 127.7,421.5 127.7,418.1 132.4,418.1 132.4,421.5 135.8,421.5
		135.8,412.7 132.4,412.7 132.4,416.1 127.7,416.1 127.7,412.7 	"/>
	<polygon id="_x37_6" class="st2" points="138.7,396.5 138.7,387.8 142,387.8 142,391.1 146.8,391.1 146.8,387.8 150.1,387.8
		150.1,396.5 146.8,396.5 146.8,393.2 142,393.2 142,396.5 	"/>
	<polygon id="_x37_5" class="st2" points="83.7,400.3 83.7,409 80.3,409 80.3,405.7 75.6,405.7 75.6,409 72.3,409 72.3,400.3
		75.6,400.3 75.6,403.6 80.3,403.6 80.3,400.3 	"/>
	<polygon id="_x37_4" class="st2" points="83.7,396.5 83.7,387.8 80.3,387.8 80.3,391.1 75.6,391.1 75.6,387.8 72.3,387.8
		72.3,396.5 75.6,396.5 75.6,393.2 80.3,393.2 80.3,396.5 	"/>
	<polygon id="_x37_3" class="st2" points="124.4,384.1 124.4,375.3 127.7,375.3 127.7,378.7 132.4,378.7 132.4,375.3 135.8,375.3
		135.8,384.1 132.4,384.1 132.4,380.7 127.7,380.7 127.7,384.1 	"/>
	<polygon id="_x37_2" class="st2" points="98,412.7 98,421.5 94.7,421.5 94.7,418.1 90,418.1 90,421.5 86.6,421.5 86.6,412.7
		90,412.7 90,416.1 94.7,416.1 94.7,412.7 	"/>
	<polygon id="_x37_1" class="st2" points="98,384.1 98,375.3 94.7,375.3 94.7,378.7 90,378.7 90,375.3 86.6,375.3 86.6,384.1
		90,384.1 90,380.7 94.7,380.7 94.7,384.1 	"/>
	<polygon id="_x37_0" class="st4" points="151.8,384.9 138.5,377.8 138.5,384.9 	"/>
	<polygon id="_x36_9" points="70.6,411.8 83.9,419 83.9,411.8 	"/>
	<polygon id="_x36_8" points="70.6,384.9 83.9,377.8 83.9,384.9 	"/>
	<polygon id="_x36_7" class="st4" points="151.8,411.8 138.5,419 138.5,411.8 	"/>
	<polygon id="_x36_6" class="st5" points="138.8,384.6 138.8,378.4 150.4,384.6 	"/>
	<polygon id="_x36_5" class="st5" points="83.6,412.2 83.6,418.4 72,412.2 	"/>
	<polygon id="_x36_4" class="st3" points="83.6,384.6 83.6,378.4 72,384.6 	"/>
	<polygon id="_x36_3" class="st3" points="138.8,412.2 138.8,418.4 150.4,412.2 	"/>
	<path id="_x36_2" class="st5" d="M56.9,424.7c0.6,2.7,2.8,4.8,3.3,7.6c1-2.9,2-5.4,1.3-8.6c-0.5-2.3-2.4-4-2.7-6.3
		C56.7,419.2,56.3,421.9,56.9,424.7z M56.4,436.1c1.8,2.5,4.3,4.3,7,5.6c-0.5-2.2,0.5-3.8,1.6-5.5c1.4-2.1,2-4.1,0.9-6.5
		c-0.5,1.2-1.2,2.3-2,3.3c-1.2,1.6-2,3.1-2.2,5.2c-1.4-1-2-2.6-2.8-4.1c-1.1-2.1-3-3.9-5.1-5.1C54.5,431.5,54.9,434,56.4,436.1z
		 M66.4,443.4c-0.4,1.4-0.7,2.7-0.6,4.1c-1.2-1.3-2.8-2.2-4.2-3.3c-1.9-1.5-4.1-2.6-5.7-4.6c0.2,2.9,1.5,5.3,3.8,7
		c2.5,1.9,5.5,2.9,7.9,4.8c-0.4-2.6,0.6-4.7,1.4-7.2c0.7-2.3,0-4.7-1.5-6.4C67.6,439.9,67,441.6,66.4,443.4z M72,452.3
		c0.5,2,1.9,3.6,2.9,5.4c-2.6-0.8-5-2.2-7.4-3.6c-2.8-1.5-5.9-2.5-8.5-4.6c1.3,4.7,4.5,7.5,9.1,8.9c3.2,1,5.8,0.5,9.7,2
		c-0.4-2.6-1.2-5.4-2.5-7.8c-1-1.7-2-3.4-2.6-5.2C72,449,71.6,450.6,72,452.3z M81.7,459.6c0.9,1.6,2.1,2.9,3.6,3.9
		c-3.7,0.2-6.8-2.1-10.4-2.2c-2.3-0.1-4.4,0.6-6.7,0.4c2.7,1.8,5.6,3.5,8.9,3.9c4.3,0.6,8.3-0.5,13.1-0.1c-2.2-1.6-3.3-3.7-4.7-5.9
		c-1.8-2.8-3.5-4.8-7-5.3C79.9,455.8,80.7,457.8,81.7,459.6L81.7,459.6z M95,465.8c-6.6,1.1-12.9,2.6-19.7,2.6
		c7.5,2.6,14.7,3.1,22.1,0.4c4-1.5,7.1-2.3,10.2-2c4.5,0.3,9.9,2.1,15.9,8.4l2.4-1.9C117.4,465.6,106.1,463.9,95,465.8L95,465.8z"/>
	<path id="_x36_1" class="st5" d="M165.5,424.7c-0.6,2.7-2.8,4.8-3.3,7.6c-1-2.9-2-5.4-1.3-8.6c0.5-2.3,2.4-4,2.7-6.3
		C165.7,419.2,166.2,421.9,165.5,424.7z M166.1,436.1c-1.8,2.5-4.3,4.3-7,5.6c0.5-2.2-0.5-3.8-1.6-5.5c-1.4-2.1-2-4.1-0.9-6.5
		c0.5,1.2,1.2,2.3,2,3.3c1.2,1.6,2,3.1,2.2,5.2c1.4-1,2-2.6,2.8-4.1c1.1-2.1,3-3.9,5.1-5.1C168,431.5,167.5,434,166.1,436.1
		L166.1,436.1z M156,443.4c0.4,1.4,0.7,2.7,0.6,4.1c1.2-1.3,2.8-2.2,4.2-3.3c1.9-1.5,4.1-2.6,5.7-4.6c-0.2,2.9-1.5,5.3-3.8,7
		c-2.5,1.9-5.5,2.9-7.9,4.8c0.4-2.6-0.6-4.7-1.4-7.2c-0.7-2.3,0-4.7,1.5-6.4C154.8,439.9,155.4,441.6,156,443.4L156,443.4z
		 M150.4,452.3c-0.5,2-1.9,3.6-2.9,5.4c2.6-0.8,5-2.2,7.4-3.6c2.8-1.5,5.9-2.5,8.5-4.6c-1.3,4.7-4.5,7.5-9.1,8.9
		c-3.2,1-5.8,0.5-9.7,2c0.4-2.6,1.2-5.4,2.5-7.8c1-1.7,2-3.4,2.6-5.2C150.4,449,150.9,450.6,150.4,452.3z M140.7,459.6
		c-0.9,1.6-2.1,2.9-3.6,3.9c3.7,0.2,6.8-2.1,10.4-2.2c2.3-0.1,4.4,0.6,6.7,0.4c-2.7,1.8-5.6,3.5-8.9,3.9c-4.3,0.6-8.3-0.5-13.1-0.1
		c2.2-1.6,3.3-3.7,4.7-5.9c1.8-2.8,3.5-4.8,7-5.3C142.6,455.8,141.8,457.8,140.7,459.6L140.7,459.6z M127.4,465.8
		c6.6,1.1,12.9,2.6,19.7,2.6c-7.5,2.6-14.7,3.1-22.1,0.4c-4-1.5-7.1-2.3-10.2-2c-4.5,0.3-9.9,2.1-15.9,8.4l-2.4-1.9
		C105.1,465.6,116.3,463.9,127.4,465.8L127.4,465.8z"/>
	<polygon id="_x36_0" class="st4" points="56.3,105.3 58.7,107.6 46.4,119 46.4,114.4 53.7,107.6 51.2,105.3 56.4,100.4 54.2,98.3
		54.2,101.3 49.7,101.3 49.7,97.7 59.8,88.4 64.8,88.4 65.4,91.7 62.5,91.7 65.6,94.6 73.6,87.4 65.6,80.1 62.5,83.1 65.4,83.1
		64.8,86.4 59.8,86.4 49.7,77 49.7,73.4 54.2,73.4 54.2,76.4 56.4,74.3 51.2,69.5 53.7,67.2 46.4,60.4 46.4,55.7 58.7,67.2
		56.3,69.5 61.5,74.3 57,78.5 59.9,81.2 65.6,75.9 78.1,87.4 65.6,98.8 59.9,93.5 57,96.3 61.5,100.4 	"/>
	<polygon id="_x35_9" class="st5" points="61.6,83.4 65.6,79.6 74.1,87.4 65.6,95.1 61.6,91.3 65,91.3 64.5,88.7 59.9,88.7
		50.1,97.9 50.1,101 53.8,101 53.8,97.5 56.9,100.4 51.7,105.3 54.2,107.6 46.4,114.8 46.4,118.6 58.2,107.6 55.7,105.3 60.9,100.4
		56.5,96.3 59.9,93.1 65.6,98.3 77.6,87.4 65.6,76.4 59.9,81.7 56.5,78.5 60.9,74.3 55.7,69.5 58.2,67.2 46.4,56.2 46.4,59.9
		54.2,67.2 51.7,69.5 56.9,74.3 53.8,77.2 53.8,73.7 50.1,73.7 50.1,76.9 59.9,86 64.5,86 65,83.4 	"/>
	<polygon id="_x35_8" class="st4" points="70,87.2 67.4,89.7 67,87.2 67.4,84.8 	"/>
	<polygon id="_x35_7" class="st5" points="67.7,85.5 67.4,87.2 67.7,89 69.5,87.2 	"/>
	<polygon id="_x35_6" class="st4" points="52.3,89.8 54.8,87.4 52.3,84.9 49.3,84.9 49.3,81.4 46.4,78.5 46.4,96.2 49.3,93.3
		49.3,89.8 	"/>
	<polygon id="_x35_5" class="st5" points="52.2,85.2 54.3,87.4 52.2,89.5 49,89.5 49,93.2 46.4,95.7 46.4,79 49,81.6 49,85.2 	"/>
	<polygon id="_x35_4" class="st4" points="56.3,195.5 58.7,197.8 46.4,209.3 46.4,204.6 53.7,197.8 51.2,195.5 56.4,190.7
		54.2,188.6 54.2,191.6 49.7,191.6 49.7,188 59.8,178.6 64.8,178.6 65.4,181.9 62.5,181.9 65.6,184.9 73.6,177.6 65.6,170.3
		62.5,173.3 65.4,173.3 64.8,176.6 59.8,176.6 49.7,167.2 49.7,163.6 54.2,163.6 54.2,166.7 56.4,164.5 51.2,159.7 53.7,157.4
		46.4,150.6 46.4,145.9 58.7,157.4 56.3,159.7 61.5,164.5 57,168.7 59.9,171.4 65.6,166.2 78.1,177.6 65.6,189.1 59.9,183.8
		57,186.5 61.5,190.7 	"/>
	<polygon id="_x35_3" class="st5" points="61.6,173.6 65.6,169.9 74.1,177.6 65.6,185.4 61.6,181.6 65,181.6 64.5,178.9 59.9,178.9
		50.1,188.1 50.1,191.2 53.8,191.2 53.8,187.7 56.9,190.7 51.7,195.5 54.2,197.8 46.4,205.1 46.4,208.8 58.2,197.8 55.7,195.5
		60.9,190.7 56.5,186.5 59.9,183.3 65.6,188.6 77.6,177.6 65.6,166.6 59.9,171.9 56.5,168.7 60.9,164.5 55.7,159.7 58.2,157.4
		46.4,146.4 46.4,150.1 54.2,157.4 51.7,159.7 56.9,164.5 53.8,167.5 53.8,164 50.1,164 50.1,167.1 59.9,176.3 64.5,176.3 65,173.6
			"/>
	<polygon id="_x35_2" class="st4" points="70,177.5 67.4,179.9 67,177.5 67.4,175 	"/>
	<polygon id="_x35_1" class="st5" points="67.7,175.7 67.4,177.5 67.7,179.2 69.5,177.5 	"/>
	<polygon id="_x35_0" class="st4" points="52.3,180.1 54.8,177.6 52.3,175.1 49.3,175.1 49.3,171.7 46.4,168.8 46.4,186.5
		49.3,183.6 49.3,180.1 	"/>
	<polygon id="_x34_9" class="st5" points="52.2,175.5 54.3,177.6 52.2,179.7 49,179.7 49,183.4 46.4,186 46.4,169.2 49,171.8
		49,175.5 	"/>
	<polygon id="_x34_8" class="st4" points="56.3,285.7 58.7,288 46.4,299.5 46.4,294.8 53.7,288 51.2,285.7 56.4,280.9 54.2,278.8
		54.2,281.8 49.7,281.8 49.7,278.2 59.8,268.8 64.8,268.8 65.4,272.1 62.5,272.1 65.6,275.1 73.6,267.8 65.6,260.6 62.5,263.5
		65.4,263.5 64.8,266.9 59.8,266.9 49.7,257.5 49.7,253.9 54.2,253.9 54.2,256.9 56.4,254.8 51.2,249.9 53.7,247.7 46.4,240.9
		46.4,236.2 58.7,247.7 56.3,249.9 61.5,254.8 57,258.9 59.9,261.7 65.6,256.4 78.1,267.8 65.6,279.3 59.9,274 57,276.8 61.5,280.9
			"/>
	<polygon id="_x34_7" class="st5" points="61.6,263.9 65.6,260.1 74.1,267.8 65.6,275.6 61.6,271.8 65,271.8 64.5,269.2 59.9,269.2
		50.1,278.3 50.1,281.5 53.8,281.5 53.8,278 56.9,280.9 51.7,285.7 54.2,288 46.4,295.3 46.4,299 58.2,288 55.7,285.7 60.9,280.9
		56.5,276.8 59.9,273.5 65.6,278.8 77.6,267.8 65.6,256.9 59.9,262.2 56.5,258.9 60.9,254.8 55.7,249.9 58.2,247.7 46.4,236.6
		46.4,240.4 54.2,247.7 51.7,249.9 56.9,254.8 53.8,257.7 53.8,254.2 50.1,254.2 50.1,257.3 59.9,266.5 64.5,266.5 65,263.9 	"/>
	<polygon id="_x34_6" class="st4" points="70,267.7 67.4,270.1 67,267.7 67.4,265.2 	"/>
	<polygon id="_x34_5" class="st5" points="67.7,266 67.4,267.7 67.7,269.4 69.5,267.7 	"/>
	<polygon id="_x34_4" class="st4" points="52.3,270.3 54.8,267.8 52.3,265.4 49.3,265.4 49.3,261.9 46.4,259 46.4,276.7 49.3,273.8
		49.3,270.3 	"/>
	<polygon id="_x34_3" class="st5" points="52.2,265.7 54.3,267.8 52.2,270 49,270 49,273.7 46.4,276.2 46.4,259.5 49,262 49,265.7
		"/>
	<polygon id="_x34_2" class="st4" points="56.3,376 58.7,378.3 46.4,389.8 46.4,385.1 53.7,378.3 51.2,376 56.4,371.1 54.2,369
		54.2,372.1 49.7,372.1 49.7,368.4 59.8,359.1 64.8,359.1 65.4,362.4 62.5,362.4 65.6,365.3 73.6,358.1 65.6,350.8 62.5,353.8
		65.4,353.8 64.8,357.1 59.8,357.1 49.7,347.7 49.7,344.1 54.2,344.1 54.2,347.1 56.4,345 51.2,340.2 53.7,337.9 46.4,331.1
		46.4,326.4 58.7,337.9 56.3,340.2 61.5,345 57,349.2 59.9,351.9 65.6,346.6 78.1,358.1 65.6,369.5 59.9,364.2 57,367 61.5,371.1
		"/>
	<polygon id="_x34_1" class="st5" points="61.6,354.1 65.6,350.3 74.1,358.1 65.6,365.8 61.6,362 65,362 64.5,359.4 59.9,359.4
		50.1,368.6 50.1,371.7 53.8,371.7 53.8,368.2 56.9,371.1 51.7,376 54.2,378.3 46.4,385.5 46.4,389.3 58.2,378.3 55.7,376
		60.9,371.1 56.5,367 59.9,363.8 65.6,369.1 77.6,358.1 65.6,347.1 59.9,352.4 56.5,349.2 60.9,345 55.7,340.2 58.2,337.9
		46.4,326.9 46.4,330.6 54.2,337.9 51.7,340.2 56.9,345 53.8,347.9 53.8,344.4 50.1,344.4 50.1,347.6 59.9,356.8 64.5,356.8
		65,354.1 	"/>
	<polygon id="_x34_0" class="st4" points="70,357.9 67.4,360.4 67,357.9 67.4,355.5 	"/>
	<polygon id="_x33_9" class="st5" points="67.7,356.2 67.4,357.9 67.7,359.7 69.5,357.9 	"/>
	<polygon id="_x33_8" class="st4" points="52.3,360.6 54.8,358.1 52.3,355.6 49.3,355.6 49.3,352.1 46.4,349.2 46.4,366.9 49.3,364
		49.3,360.6 	"/>
	<polygon id="_x33_7" class="st5" points="52.2,355.9 54.3,358.1 52.2,360.2 49,360.2 49,363.9 46.4,366.4 46.4,349.7 49,352.3
		49,355.9 	"/>
	<polygon id="_x33_6" class="st4" points="166.1,105.3 163.7,107.6 176,119 176,114.4 168.7,107.6 171.2,105.3 166,100.4
		168.2,98.3 168.2,101.3 172.7,101.3 172.7,97.7 162.6,88.4 157.6,88.4 157,91.7 159.9,91.7 156.8,94.6 148.8,87.4 156.8,80.1
		159.9,83.1 157,83.1 157.6,86.4 162.6,86.4 172.7,77 172.7,73.4 168.2,73.4 168.2,76.4 166,74.3 171.2,69.5 168.7,67.2 176,60.4
		176,55.7 163.7,67.2 166.1,69.5 160.9,74.3 165.4,78.5 162.4,81.2 156.8,75.9 144.3,87.4 156.8,98.8 162.4,93.5 165.4,96.3
		160.9,100.4 	"/>
	<polygon id="_x33_5" class="st5" points="160.8,83.4 156.8,79.6 148.3,87.4 156.8,95.1 160.8,91.3 157.4,91.3 157.9,88.7
		162.5,88.7 172.3,97.9 172.3,101 168.6,101 168.6,97.5 165.5,100.4 170.6,105.3 168.2,107.6 176,114.8 176,118.6 164.2,107.6
		166.6,105.3 161.5,100.4 165.9,96.3 162.4,93.1 156.8,98.3 144.8,87.4 156.8,76.4 162.4,81.7 165.9,78.5 161.5,74.3 166.6,69.5
		164.2,67.2 176,56.2 176,59.9 168.2,67.2 170.6,69.5 165.5,74.3 168.6,77.2 168.6,73.7 172.3,73.7 172.3,76.9 162.5,86 157.9,86
		157.4,83.4 	"/>
	<polygon id="_x33_4" class="st4" points="152.3,87.2 155,89.7 155.4,87.2 155,84.8 	"/>
	<polygon id="_x33_3" class="st5" points="154.7,85.5 155,87.2 154.7,89 152.9,87.2 	"/>
	<polygon id="_x33_2" class="st4" points="170.1,89.8 167.6,87.4 170.1,84.9 173.1,84.9 173.1,81.4 176,78.5 176,96.2 173.1,93.3
		173.1,89.8 	"/>
	<polygon id="_x33_1" class="st5" points="170.2,85.2 168.1,87.4 170.2,89.5 173.4,89.5 173.4,93.2 176,95.7 176,79 173.4,81.6
		173.4,85.2 	"/>
	<polygon id="_x33_0" class="st4" points="166.1,195.5 163.7,197.8 176,209.3 176,204.6 168.7,197.8 171.2,195.5 166,190.7
		168.2,188.6 168.2,191.6 172.7,191.6 172.7,188 162.6,178.6 157.6,178.6 157,181.9 159.9,181.9 156.8,184.9 148.8,177.6
		156.8,170.3 159.9,173.3 157,173.3 157.6,176.6 162.6,176.6 172.7,167.2 172.7,163.6 168.2,163.6 168.2,166.7 166,164.5
		171.2,159.7 168.7,157.4 176,150.6 176,145.9 163.7,157.4 166.1,159.7 160.9,164.5 165.4,168.7 162.4,171.4 156.8,166.2
		144.3,177.6 156.8,189.1 162.4,183.8 165.4,186.5 160.9,190.7 	"/>
	<polygon id="_x32_9" class="st5" points="160.8,173.6 156.8,169.9 148.3,177.6 156.8,185.4 160.8,181.6 157.4,181.6 157.9,178.9
		162.5,178.9 172.3,188.1 172.3,191.2 168.6,191.2 168.6,187.7 165.5,190.7 170.6,195.5 168.2,197.8 176,205.1 176,208.8
		164.2,197.8 166.6,195.5 161.5,190.7 165.9,186.5 162.4,183.3 156.8,188.6 144.8,177.6 156.8,166.6 162.4,171.9 165.9,168.7
		161.5,164.5 166.6,159.7 164.2,157.4 176,146.4 176,150.1 168.2,157.4 170.6,159.7 165.5,164.5 168.6,167.5 168.6,164 172.3,164
		172.3,167.1 162.5,176.3 157.9,176.3 157.4,173.6 	"/>
	<polygon id="_x32_8" class="st4" points="152.3,177.5 155,179.9 155.4,177.5 155,175 	"/>
	<polygon id="_x32_7" class="st5" points="154.7,175.7 155,177.5 154.7,179.2 152.9,177.5 	"/>
	<polygon id="_x32_6" class="st4" points="170.1,180.1 167.6,177.6 170.1,175.1 173.1,175.1 173.1,171.7 176,168.8 176,186.5
		173.1,183.6 173.1,180.1 	"/>
	<polygon id="_x32_5" class="st5" points="170.2,175.5 168.1,177.6 170.2,179.7 173.4,179.7 173.4,183.4 176,186 176,169.2
		173.4,171.8 173.4,175.5 	"/>
	<polygon id="_x32_4" class="st4" points="166.1,285.7 163.7,288 176,299.5 176,294.8 168.7,288 171.2,285.7 166,280.9 168.2,278.8
		168.2,281.8 172.7,281.8 172.7,278.2 162.6,268.8 157.6,268.8 157,272.1 159.9,272.1 156.8,275.1 148.8,267.8 156.8,260.6
		159.9,263.5 157,263.5 157.6,266.9 162.6,266.9 172.7,257.5 172.7,253.9 168.2,253.9 168.2,256.9 166,254.8 171.2,249.9
		168.7,247.7 176,240.9 176,236.2 163.7,247.7 166.1,249.9 160.9,254.8 165.4,258.9 162.4,261.7 156.8,256.4 144.3,267.8
		156.8,279.3 162.4,274 165.4,276.8 160.9,280.9 	"/>
	<polygon id="_x32_3" class="st5" points="160.8,263.9 156.8,260.1 148.3,267.8 156.8,275.6 160.8,271.8 157.4,271.8 157.9,269.2
		162.5,269.2 172.3,278.3 172.3,281.5 168.6,281.5 168.6,278 165.5,280.9 170.6,285.7 168.2,288 176,295.3 176,299 164.2,288
		166.6,285.7 161.5,280.9 165.9,276.8 162.4,273.5 156.8,278.8 144.8,267.8 156.8,256.9 162.4,262.2 165.9,258.9 161.5,254.8
		166.6,249.9 164.2,247.7 176,236.6 176,240.4 168.2,247.7 170.6,249.9 165.5,254.8 168.6,257.7 168.6,254.2 172.3,254.2
		172.3,257.3 162.5,266.5 157.9,266.5 157.4,263.9 	"/>
	<polygon id="_x32_2" class="st4" points="152.3,267.7 155,270.1 155.4,267.7 155,265.2 	"/>
	<polygon id="_x32_1" class="st5" points="154.7,266 155,267.7 154.7,269.4 152.9,267.7 	"/>
	<polygon id="_x32_0" class="st4" points="170.1,270.3 167.6,267.8 170.1,265.4 173.1,265.4 173.1,261.9 176,259 176,276.7
		173.1,273.8 173.1,270.3 	"/>
	<polygon id="_x31_9" class="st5" points="170.2,265.7 168.1,267.8 170.2,270 173.4,270 173.4,273.7 176,276.2 176,259.5 173.4,262
		173.4,265.7 	"/>
	<polygon id="_x31_8" class="st4" points="166.1,376 163.7,378.3 176,389.8 176,385.1 168.7,378.3 171.2,376 166,371.1 168.2,369
		168.2,372.1 172.7,372.1 172.7,368.4 162.6,359.1 157.6,359.1 157,362.4 159.9,362.4 156.8,365.3 148.8,358.1 156.8,350.8
		159.9,353.8 157,353.8 157.6,357.1 162.6,357.1 172.7,347.7 172.7,344.1 168.2,344.1 168.2,347.1 166,345 171.2,340.2 168.7,337.9
		176,331.1 176,326.4 163.7,337.9 166.1,340.2 160.9,345 165.4,349.2 162.4,351.9 156.8,346.6 144.3,358.1 156.8,369.5 162.4,364.2
		165.4,367 160.9,371.1 	"/>
	<polygon id="_x31_7" class="st5" points="160.8,354.1 156.8,350.3 148.3,358.1 156.8,365.8 160.8,362 157.4,362 157.9,359.4
		162.5,359.4 172.3,368.6 172.3,371.7 168.6,371.7 168.6,368.2 165.5,371.1 170.6,376 168.2,378.3 176,385.5 176,389.3 164.2,378.3
		166.6,376 161.5,371.1 165.9,367 162.4,363.8 156.8,369.1 144.8,358.1 156.8,347.1 162.4,352.4 165.9,349.2 161.5,345 166.6,340.2
		164.2,337.9 176,326.9 176,330.6 168.2,337.9 170.6,340.2 165.5,345 168.6,347.9 168.6,344.4 172.3,344.4 172.3,347.6 162.5,356.8
		157.9,356.8 157.4,354.1 	"/>
	<polygon id="_x31_6" class="st4" points="152.3,357.9 155,360.4 155.4,357.9 155,355.5 	"/>
	<polygon id="_x31_5" class="st5" points="154.7,356.2 155,357.9 154.7,359.7 152.9,357.9 	"/>
	<polygon id="_x31_4" class="st4" points="170.1,360.6 167.6,358.1 170.1,355.6 173.1,355.6 173.1,352.1 176,349.2 176,366.9
		173.1,364 173.1,360.6 	"/>
	<polygon id="_x31_3" class="st5" points="170.2,355.9 168.1,358.1 170.2,360.2 173.4,360.2 173.4,363.9 176,366.4 176,349.7
		173.4,352.3 173.4,355.9 	"/>
	<polygon id="_x31_2" class="st4" points="54.2,11 54.2,14 49.7,14 49.7,10.4 59.8,1 64.8,1 65.4,4.3 62.5,4.3 65.6,7.3 73.6,0
		78.1,0 65.6,11.5 59.9,6.2 57,8.9 61.5,13.1 56.3,17.9 58.7,20.2 46.4,31.7 46.4,27 53.7,20.2 51.2,17.9 56.4,13.1 	"/>
	<polygon id="_x31_1" class="st5" points="54.2,20.2 46.4,27.5 46.4,31.2 58.2,20.2 55.7,17.9 60.9,13.1 56.5,8.9 59.9,5.7 65.6,11
		77.6,0 74.1,0 65.6,7.7 61.6,4 65,4 64.5,1.3 59.9,1.3 50.1,10.5 50.1,13.6 53.8,13.6 53.8,10.1 56.9,13.1 51.7,17.9 	"/>
	<polygon id="_x31_0" class="st4" points="69.9,0 67.4,2.3 67,0 	"/>
	<polygon id="_x39_" class="st5" points="67.4,0 67.7,1.6 69.4,0 	"/>
	<polygon id="_x38_" class="st4" points="54.8,0 46.4,0 46.4,8.9 49.3,6 49.3,2.5 52.3,2.5 54.8,0 	"/>
	<polygon id="_x37_" class="st5" points="46.4,8.4 46.4,0 54.3,0 54.3,0 52.2,2.1 49,2.1 49,5.8 	"/>
	<polygon id="_x36_" class="st4" points="168.2,11 168.2,14 172.7,14 172.7,10.4 162.6,1 157.6,1 157,4.3 159.9,4.3 156.8,7.3
		148.8,0 144.3,0 156.8,11.5 162.4,6.2 165.4,8.9 160.9,13.1 166.1,17.9 163.7,20.2 176,31.7 176,27 168.7,20.2 171.2,17.9
		166,13.1 	"/>
	<polygon id="_x35_" class="st5" points="168.2,20.2 176,27.5 176,31.2 164.2,20.2 166.6,17.9 161.5,13.1 165.9,8.9 162.4,5.7
		156.8,11 144.8,0 148.3,0 156.8,7.7 160.8,4 157.4,4 157.9,1.3 162.5,1.3 172.3,10.5 172.3,13.6 168.6,13.6 168.6,10.1 165.5,13.1
		170.6,17.9 	"/>
	<polygon id="_x34_" class="st4" points="152.5,0 155,2.3 155.4,0 	"/>
	<polygon id="_x33_" class="st5" points="155,0 154.7,1.6 153,0 	"/>
	<polygon id="_x32_" class="st4" points="167.6,0 176,0 176,8.9 173.1,6 173.1,2.5 170.1,2.5 167.6,0 	"/>
	<polygon id="_x31_" class="st5" points="176,8.4 176,0 168.1,0 168.1,0 170.2,2.1 173.4,2.1 173.4,5.8 	"/>
</g>
</svg>
