<svg xmlns="http://www.w3.org/2000/svg" height="480" width="640" viewBox="0 0 640 480"><defs><clipPath id="a"><path fill-opacity=".67" d="M42.666 0h682.67v512h-682.67z"/></clipPath></defs><g fill-rule="evenodd" clip-path="url(#a)"><path fill="#28ae66" d="M-40 0h720.384v480.256h-720.384z"/><g fill="#fff"><path d="M206.981 128.969c26.17 12.619 57.331-.06 68.604-17.482 11.559-16.257 12.978-43.558-7.005-68.605 31.02 25.725 37.876 54.885 22.444 78.898-20.583 27.44-66.248 26.646-84.043 7.189zM253.439 65.126l5.266.068-4.168 3.309 1.563 5.178-4.346-3.061-4.303 3.132 1.485-5.199-4.22-3.239 5.262-.157 1.688-5.134zm-25.994 32.588l5.267.067-4.168 3.31 1.563 5.177-4.346-3.06-4.303 3.131 1.485-5.199-4.22-3.238 5.262-.157 1.688-5.135zm1.714-25.72l5.266.067-4.168 3.31 1.563 5.178-4.346-3.061-4.303 3.131 1.485-5.199-4.22-3.238 5.262-.157 1.688-5.135zm0-25.735l5.266.068-4.168 3.309 1.563 5.178-4.346-3.061-4.303 3.132 1.485-5.199-4.22-3.239 5.262-.156 1.688-5.135zm-28.889 32.595l5.267.068-4.168 3.309 1.563 5.178-4.346-3.06-4.303 3.131 1.485-5.199-4.22-3.239 5.262-.156 1.688-5.135z"/></g><path fill="#ca3745" d="M4.594 0h154.365v480.241h-154.365z"/><g fill="#faae29"><path d="M4.594 125.205v-3.43l6.381-8.576-1.286-1.715 3.859-5.146-1.286-1.715-2.573 3.43-1.287-1.716 9.005-12.006 1.286 1.717-1.285 1.715 2.651 3.465 6.353-8.611-6.46-8.344-2.545 3.199 1.286 1.717-1.285 1.715-9.005-12.006 1.285-1.715 2.574 3.43 1.285-1.716-3.858-5.146 1.286-1.715-6.381-8.575v-3.431l8.954 12.006-1.286 1.715 3.859 5.146-2.573 3.43 2.573 3.43 3.859-5.145 9.055 12.21-9.055 11.802-3.859-5.146-2.573 3.431 2.573 3.429-3.859 5.146 1.285 1.715-8.953 12.006zM4.593 82.328l1.287 3.429v5.146h3.859l2.573 1.715-2.573 1.716h-3.859v5.145l-1.287 3.431v-20.583z"/></g><g fill="#faae29"><path d="M4.594 207.532v-3.43l6.381-8.576-1.286-1.715 3.859-5.146-1.286-1.715-2.573 3.43-1.287-1.716 9.005-12.006 1.286 1.716-1.285 1.716 2.651 3.465 6.353-8.611-6.46-8.344-2.545 3.199 1.286 1.716-1.285 1.715-9.005-12.006 1.285-1.715 2.574 3.431 1.285-1.717-3.858-5.145 1.286-1.715-6.381-8.576v-3.43l8.954 12.006-1.286 1.715 3.859 5.146-2.573 3.43 2.573 3.43 3.859-5.145 9.055 12.21-9.055 11.802-3.859-5.146-2.573 3.43 2.573 3.43-3.859 5.146 1.285 1.715-8.953 12.006zM4.593 164.655l1.287 3.43v5.145h3.859l2.573 1.717-2.573 1.715h-3.859v5.145l-1.287 3.43v-20.582z"/></g><g fill="#faae29"><path d="M4.595 289.861v-3.43l6.381-8.576-1.286-1.715 3.859-5.146-1.286-1.715-2.573 3.429-1.287-1.715 9.005-12.006 1.286 1.716-1.285 1.716 2.651 3.465 6.353-8.611-6.46-8.345-2.545 3.2 1.286 1.716-1.285 1.715-9.005-12.006 1.285-1.715 2.574 3.43 1.285-1.715-3.858-5.146 1.286-1.715-6.381-8.576v-3.43l8.954 12.006-1.286 1.715 3.859 5.146-2.573 3.43 2.573 3.43 3.859-5.146 9.055 12.211-9.055 11.802-3.859-5.146-2.573 3.43 2.573 3.43-3.859 5.146 1.285 1.715-8.953 12.006zM4.594 246.983l1.287 3.43v5.145h3.859l2.573 1.716-2.573 1.715h-3.859v5.146l-1.287 3.43v-20.582z"/></g><g fill="#faae29"><path d="M4.595 367.039v-3.43l6.381-8.576-1.286-1.715 3.859-5.146-1.286-1.715-2.573 3.429-1.287-1.715 9.005-12.006 1.286 1.716-1.285 1.716 2.651 3.465 6.353-8.611-6.46-8.345-2.545 3.2 1.286 1.716-1.285 1.715-9.005-12.006 1.285-1.715 2.574 3.43 1.285-1.715-3.858-5.146 1.286-1.715-6.381-8.576v-3.43l8.954 12.006-1.286 1.715 3.859 5.146-2.573 3.43 2.573 3.43 3.859-5.146 9.055 12.211-9.055 11.802-3.859-5.146-2.573 3.43 2.573 3.43-3.859 5.146 1.285 1.715-8.953 12.006zM4.594 324.162l1.287 3.43v5.145h3.859l2.573 1.717-2.573 1.714h-3.859v5.146l-1.287 3.43v-20.582z"/></g><g fill="#faae29"><path d="M158.955 125.205v-3.43l-6.381-8.576 1.287-1.715-3.859-5.146 1.285-1.715 2.574 3.43 1.286-1.716-9.005-12.006-1.285 1.717 1.285 1.715-2.652 3.465-6.352-8.611 6.459-8.344 2.545 3.199-1.285 1.717 1.285 1.715 9.005-12.006-1.286-1.715-2.573 3.43-1.286-1.716 3.859-5.146-1.287-1.715 6.381-8.575v-3.431l-8.953 12.006 1.285 1.715-3.858 5.146 2.573 3.43-2.573 3.43-3.86-5.145-9.055 12.21 9.055 11.802 3.86-5.146 2.573 3.431-2.573 3.429 3.859 5.146-1.286 1.715 8.953 12.006zM158.956 82.328l-1.286 3.429v5.146h-3.859l-2.573 1.715 2.573 1.716h3.859v5.145l1.286 3.431v-20.583z"/></g><g fill="#faae29"><path d="M159.381 207.532v-3.429l-6.381-8.576 1.287-1.715-3.859-5.146 1.286-1.715 2.573 3.43 1.286-1.716-9.005-12.006-1.285 1.716 1.285 1.716-2.651 3.465-6.353-8.611 6.459-8.344 2.546 3.199-1.287 1.716 1.287 1.715 9.005-12.006-1.287-1.715-2.573 3.431-1.286-1.717 3.859-5.145-1.287-1.715 6.381-8.576v-3.43l-8.953 12.006 1.286 1.715-3.859 5.146 2.573 3.43-2.573 3.43-3.859-5.145-9.055 12.21 9.055 11.802 3.859-5.146 2.573 3.43-2.573 3.43 3.859 5.146-1.286 1.715 8.953 12.006zM159.382 164.657l-1.286 3.429v5.145h-3.859l-2.573 1.717 2.573 1.715h3.859v5.145l1.286 3.431v-20.583z"/></g><g fill="#faae29"><path d="M158.955 289.861v-3.43l-6.381-8.576 1.287-1.715-3.859-5.146 1.285-1.715 2.574 3.429 1.286-1.715-9.005-12.006-1.285 1.716 1.285 1.716-2.652 3.465-6.352-8.611 6.459-8.345 2.545 3.2-1.285 1.716 1.285 1.715 9.005-12.006-1.286-1.715-2.573 3.43-1.286-1.715 3.859-5.146-1.287-1.715 6.381-8.576v-3.43l-8.953 12.006 1.285 1.715-3.858 5.146 2.573 3.43-2.573 3.43-3.86-5.146-9.055 12.211 9.055 11.802 3.86-5.146 2.573 3.43-2.573 3.43 3.859 5.146-1.286 1.715 8.953 12.006zM158.956 246.983l-1.286 3.43v5.145h-3.859l-2.573 1.716 2.573 1.715h3.859v5.146l1.286 3.43v-20.582z"/></g><g fill="#faae29"><path d="M158.955 367.039v-3.43l-6.381-8.576 1.287-1.715-3.859-5.146 1.285-1.715 2.574 3.429 1.286-1.715-9.005-12.006-1.285 1.716 1.285 1.716-2.652 3.465-6.352-8.611 6.459-8.345 2.545 3.2-1.285 1.716 1.285 1.715 9.005-12.006-1.286-1.715-2.573 3.43-1.286-1.715 3.859-5.146-1.287-1.715 6.381-8.576v-3.43l-8.953 12.006 1.285 1.715-3.858 5.146 2.573 3.43-2.573 3.43-3.86-5.146-9.055 12.211 9.055 11.802 3.86-5.146 2.573 3.43-2.573 3.43 3.859 5.146-1.286 1.715 8.953 12.006zM158.956 324.162l-1.286 3.43v5.145h-3.859l-2.573 1.717 2.573 1.714h3.859v5.146l1.286 3.43v-20.582z"/></g><path d="M4.597 32.586v-3.429l6.381-8.576-1.286-1.715 3.859-5.146-1.286-1.714-2.573 3.43-1.286-1.716 9.005-12.006 1.285 1.716-1.285 1.716 2.651 3.465 6.353-8.611h2.624l-9.055 12.006-3.859-5.146-2.573 3.43 2.573 3.43-3.859 5.146 1.286 1.715-8.954 12.006zm0-32.586h7.719l-2.574 1.717h-3.859v5.145l-1.287 3.43v-10.291zM158.953 32.586v-3.429l-6.381-8.576 1.287-1.715-3.86-5.146 1.287-1.715 2.573 3.43 1.286-1.716-9.005-12.006-1.286 1.716 1.286 1.716-2.652 3.465-6.352-8.61h-2.625l9.055 12.006 3.86-5.146 2.572 3.43-2.572 3.43 3.859 5.146-1.287 1.715 8.954 12.006zm0-32.586h-7.718l2.572 1.716h3.859v5.145l1.287 3.43v-10.29zM68.922 473.402s5.538-9.723 19.494-12.67c13.957-2.947 16.393 6.482 24.367 6.482 7.975 0 20.602-6.482 20.602-6.482s-12.627 12.375-22.374 12.081c-9.747-.295-13.07-6.482-23.038-5.598-9.969.884-19.051 6.482-19.051 6.187zM95.865 473.402s-5.538-9.723-19.494-12.67c-13.956-2.947-16.392 6.482-24.367 6.482-7.975 0-20.601-6.482-20.601-6.482s12.626 12.375 22.373 12.081c9.748-.295 13.07-6.482 23.038-5.598 9.969.884 19.051 6.482 19.051 6.187z" fill="#faae29"/><g fill="#faae29"><path d="M50.229 457.316c-1.229-2.573-4.301-13.798-2.663-15.201 2.458-.934 9.011 10.524 8.397 20.814-4.301 2.338-18.841-.936-18.636-3.977 1.024-4.209 9.216-2.805 12.902-1.636zM41.441 447.506c-.804-2.855-2.071-14.683-.251-15.606 2.549-.238 7.188 12.777 4.994 22.677-4.57 1.104-18.291-6.102-17.619-9.02 1.654-3.836 9.451-.209 12.877 1.949zM34.301 436.529c-.544-2.962-.75-14.908 1.139-15.535 2.553.167 6 13.824 2.941 23.306-4.637.373-17.618-8.952-16.693-11.744 1.984-3.548 9.404 1.288 12.613 3.972zM28.671 424.841c-.193-3.039.991-14.883 2.931-15.113 2.503.692 4.319 14.897.195 23.633-4.623-.589-16.364-12.485-15.125-15.052 2.372-3.095 9.14 3.216 11.999 6.532zM24.756 412.596c.136-3.045 2.584-14.539 4.528-14.395 2.402 1.164 2.671 15.571-2.352 23.425-4.512-1.468-14.85-15.489-13.348-17.792 2.681-2.609 8.699 4.933 11.172 8.762zM25.848 398.663c-.332 12.192-2.548 12.335-6.593 3.323-1.79-3.405-2.011-17.544-.398-18.072 2.332-.048 6.928 10.036 6.992 14.748z"/></g><g fill="#faae29"><path d="M113.864 458.599c1.229-2.572 4.301-13.798 2.662-15.2-2.458-.935-9.01 10.524-8.397 20.814 4.301 2.337 18.841-.936 18.637-3.977-1.024-4.209-9.216-2.806-12.902-1.637zM122.651 448.789c.804-2.855 2.072-14.683.252-15.606-2.55-.238-7.188 12.777-4.994 22.676 4.57 1.104 18.29-6.101 17.619-9.02-1.654-3.836-9.452-.209-12.878 1.949zM129.791 437.813c.544-2.962.75-14.908-1.139-15.535-2.553.166-5.999 13.823-2.941 23.306 4.637.373 17.618-8.951 16.693-11.744-1.984-3.548-9.403 1.288-12.613 3.973zM135.421 426.124c.194-3.039-.991-14.882-2.93-15.112-2.503.692-4.32 14.897-.196 23.632 4.624-.589 16.364-12.485 15.125-15.051-2.371-3.095-9.14 3.215-11.999 6.531zM139.336 413.879c-.135-3.044-2.583-14.538-4.528-14.394-2.401 1.163-2.67 15.57 2.353 23.425 4.512-1.469 14.849-15.489 13.347-17.792-2.681-2.61-8.699 4.932-11.172 8.761zM138.244 399.947c.332 12.192 2.549 12.335 6.593 3.322 1.791-3.405 2.011-17.543.398-18.071-2.331-.049-6.927 10.035-6.991 14.748z"/></g><g transform="matrix(.938 0 0 1.187 136.603 -72.259)"><path d="M-3.543 290.55h-5.315v3.543h-5.315v3.543h-21.26l-3.543 3.544 1.771 1.771h8.858l1.772-1.771h-8.858l1.772-1.772h12.402l-5.315 5.315h-12.402l-3.544-1.772-3.543 1.771-12.402.001-5.315-5.317 12.402.002 1.771 1.772-8.858-.002 1.772 1.773h8.858l1.772-1.771-3.544-3.544h-19.488v-3.543h-5.315v-3.543h-5.315v-15.945h5.315v-3.543h5.315v-3.543h19.488l3.544-3.544-1.772-1.771h-8.858l-1.772 1.773 8.858-.002-1.771 1.772-12.402.002 5.315-5.317 12.402.001 3.543 1.771 3.544-1.772h12.402l5.315 5.315h-12.402l-1.772-1.772h8.858l-1.772-1.771h-8.858l-1.771 1.771 3.543 3.544h21.26v3.543h5.315v3.543h5.315v15.945z" transform="matrix(1.488 0 0 1.24 3.502 -39.474)" stroke="#000" stroke-width=".133" fill="#ca3745"/><path d="M375.59 499.67v24.803h10.629v7.019h10.63v7.087h35.433l14.174 10.63 14.173-10.63h38.976v-7.019l10.63-.068v-7.087h10.63v-24.803h-10.63v-7.086l-10.63.068v-7.155h-38.976l-14.173-10.63-14.174 10.63h-35.433v7.155h-10.63v7.086h-10.629z" transform="matrix(.744 0 0 .62 -392.03 -6.521)" stroke="#faae29" stroke-width="1.422" fill="#28ae66"/><path d="M-75.6 296.644l-15.822 10.984v-10.984h15.822zm31.63 0l15.822 10.985v-10.985h-15.822zm-31.63 28.564l-15.822-10.984v10.984h15.822zm31.635 0l15.82-10.985v10.985h-15.82zm5.276-21.975l-5.273 4.394h10.547l-5.274-4.394zm-42.188 0l-5.273 4.394h10.547l-5.274-4.394zm0 15.389l-5.273-4.394h10.547l-5.274 4.394zm42.19 0l-5.273-4.394h10.547l-5.274 4.394z" fill="#ca3745"/><path d="M-59.787 329.602l-5.273-4.394h10.547l-5.274 4.394zm0-21.97l-5.273-4.394h10.547l-5.274 4.394zm0-15.383l-5.273 4.394h10.547l-5.274-4.394zm0 21.968l-5.273 4.394h10.547l-5.274-4.394z" fill="#faae29"/><path transform="matrix(.744 0 0 .62 -392.03 -6.521)" stroke="#000" stroke-width=".133" fill="#faae29" d="M467.72 506.69h14.173v3.543h-14.173z"/><path transform="matrix(.744 0 0 .62 -392.03 -6.521)" stroke="#000" stroke-width=".133" fill="#c00" d="M414.57 510.24h7.087v3.543h-7.087zm56.69 0h7.087v3.543h-7.087z"/><path transform="matrix(.744 0 0 .62 -392.03 -6.521)" stroke="#000" stroke-width=".133" fill="#900" d="M439.37 488.98h14.173v3.543h-14.173zm0 7.08h14.173v3.543h-14.173zM435.83 492.52h21.26v3.543h-21.26zm3.54 31.89h14.173v3.543h-14.173zm0 7.09h14.173v3.543h-14.173zM435.83 527.95h21.26v3.543h-21.26z"/><path transform="matrix(.744 0 0 .62 -392.03 -6.521)" stroke="#000" stroke-width=".133" fill="#faae29" d="M467.72 513.78h14.173v3.543h-14.173zm-56.7-7.09h14.173v3.543h-14.173zm0 7.09h14.173v3.543h-14.173zM407.48 510.24h7.087v3.543h-7.087zm14.17 0h7.087v3.543h-7.087zm42.52 0h7.087v3.543h-7.087zm14.18 0h7.087v3.543h-7.087z"/><ellipse fill="#fff" transform="matrix(.744 0 0 .62 -374.14 -38.912)" cx="413.68" rx=".886" cy="581.99" ry=".886"/><ellipse fill="#fff" transform="matrix(.744 0 0 .62 -367.57 -38.912)" cx="413.68" rx=".886" cy="581.99" ry=".886"/><ellipse fill="#fff" transform="matrix(.744 0 0 .62 -361 -38.958)" cx="413.68" rx=".886" cy="581.99" ry=".886"/><ellipse fill="#fff" transform="matrix(.744 0 0 .62 -371.51 -41.102)" cx="413.68" rx=".886" cy="581.99" ry=".886"/><ellipse fill="#fff" transform="matrix(.744 0 0 .62 -363.68 -41.148)" cx="413.68" rx=".886" cy="581.99" ry=".886"/><ellipse fill="#fff" transform="matrix(.744 0 0 .62 -371.57 -36.768)" cx="413.68" rx=".886" cy="581.99" ry=".886"/><ellipse fill="#fff" transform="matrix(.744 0 0 .62 -363.68 -36.677)" cx="413.68" rx=".886" cy="581.99" ry=".886"/><ellipse fill="#fff" transform="matrix(.744 0 0 .62 -353.17 -49.999)" cx="413.68" rx=".886" cy="581.99" ry=".886"/><ellipse fill="#fff" transform="matrix(.744 0 0 .62 -346.59 -49.999)" cx="413.68" rx=".886" cy="581.99" ry=".886"/><ellipse fill="#fff" transform="matrix(.744 0 0 .62 -340.02 -50.045)" cx="413.68" rx=".886" cy="581.99" ry=".886"/><ellipse fill="#fff" transform="matrix(.744 0 0 .62 -350.54 -52.189)" cx="413.68" rx=".886" cy="581.99" ry=".886"/><ellipse fill="#fff" transform="matrix(.744 0 0 .62 -342.71 -52.235)" cx="413.68" rx=".886" cy="581.99" ry=".886"/><ellipse fill="#fff" transform="matrix(.744 0 0 .62 -350.59 -47.855)" cx="413.68" rx=".886" cy="581.99" ry=".886"/><ellipse fill="#fff" transform="matrix(.744 0 0 .62 -342.71 -47.764)" cx="413.68" rx=".886" cy="581.99" ry=".886"/><ellipse fill="#fff" transform="matrix(.744 0 0 .62 -374.2 -60.904)" cx="413.68" rx=".886" cy="581.99" ry=".886"/><ellipse fill="#fff" transform="matrix(.744 0 0 .62 -367.62 -60.904)" cx="413.68" rx=".886" cy="581.99" ry=".886"/><ellipse fill="#fff" transform="matrix(.744 0 0 .62 -361.05 -60.949)" cx="413.68" rx=".886" cy="581.99" ry=".886"/><ellipse fill="#fff" transform="matrix(.744 0 0 .62 -371.57 -63.094)" cx="413.68" rx=".886" cy="581.99" ry=".886"/><ellipse fill="#fff" transform="matrix(.744 0 0 .62 -363.74 -63.139)" cx="413.68" rx=".886" cy="581.99" ry=".886"/><ellipse fill="#fff" transform="matrix(.744 0 0 .62 -371.62 -58.759)" cx="413.68" rx=".886" cy="581.99" ry=".886"/><ellipse fill="#fff" transform="matrix(.744 0 0 .62 -363.74 -58.668)" cx="413.68" rx=".886" cy="581.99" ry=".886"/><ellipse fill="#fff" transform="matrix(.744 0 0 .62 -395.28 -49.817)" cx="413.68" rx=".886" cy="581.99" ry=".886"/><ellipse fill="#fff" transform="matrix(.744 0 0 .62 -388.71 -49.817)" cx="413.68" rx=".886" cy="581.99" ry=".886"/><ellipse fill="#fff" transform="matrix(.744 0 0 .62 -382.14 -49.862)" cx="413.68" rx=".886" cy="581.99" ry=".886"/><ellipse fill="#fff" transform="matrix(.744 0 0 .62 -392.65 -52.007)" cx="413.68" rx=".886" cy="581.99" ry=".886"/><ellipse fill="#fff" transform="matrix(.744 0 0 .62 -384.82 -52.052)" cx="413.68" rx=".886" cy="581.99" ry=".886"/><ellipse fill="#fff" transform="matrix(.744 0 0 .62 -392.71 -47.672)" cx="413.68" rx=".886" cy="581.99" ry=".886"/><ellipse fill="#fff" transform="matrix(.744 0 0 .62 -384.82 -47.581)" cx="413.68" rx=".886" cy="581.99" ry=".886"/></g><path d="M90.284 239.898l4.254-1.993 4.254 1.993h-8.508zm-12.761 0l4.254-1.993 4.253 1.993h-8.507zm-12.761 0l4.254-1.993 4.253 1.993h-8.508zm25.521-45.84l4.254 1.993 4.254-1.993h-8.508zm-12.761 0l4.254 1.993 4.253-1.993h-8.507zm-12.761 0l4.254 1.993 4.253-1.993h-8.508z" fill="#fff"/><path d="M86.738 245.881l-4.962 3.986-4.964-3.986-4.962 3.986-4.962-3.986v1.992l3.307 1.995-1.654 1.992v1.993h1.654l1.655-1.993 1.654 1.993h1.655v-1.993l-1.655-1.992 3.308-1.994 3.309 1.994-1.655 1.992v1.993h1.655l1.654-1.993 1.654 1.993h1.655v-1.993l-1.655-1.992 3.309-1.994 3.308 1.993-1.655 1.993v1.993h1.655l1.654-1.993 1.655 1.993h1.655v-1.993l-1.655-1.993 3.308-1.994v-1.992l-4.962 3.986-4.963-3.986zm.001-57.815l-4.962-3.986-4.964 3.986-4.962-3.986-4.962 3.986v-1.992l3.308-1.995-1.655-1.992v-1.993h1.655l1.654 1.993 1.654-1.993h1.655v1.993l-1.655 1.992 3.308 1.994 3.309-1.994-1.655-1.992v-1.993h1.655l1.654 1.993 1.654-1.993h1.655v1.993l-1.655 1.992 3.309 1.994 3.308-1.993-1.655-1.993v-1.993h1.655l1.655 1.993 1.654-1.993h1.655v1.993l-1.655 1.993 3.308 1.994v1.992l-4.962-3.986-4.963 3.986zm37.587 33.227l5.318-4.319-5.318-4.319 5.318-4.319-5.318-4.319h2.658l2.66 2.88 2.657-1.441h2.658v1.44l-2.658 1.44 2.658 1.44v1.44h-2.658l-2.657-1.44-2.659 2.88 2.659 2.88 2.657-1.441h2.658v1.44l-2.658 1.44 2.658 1.44v1.44h-2.658l-2.657-1.44-2.659 2.88 2.657 2.88 2.659-1.441h2.658v1.441l-2.658 1.439 2.658 1.44v1.44h-2.658l-2.659-1.44-2.658 2.88h-2.657l5.316-4.319-5.316-4.319zm-85.093 0l-5.318-4.319 5.318-4.319-5.318-4.319 5.318-4.319h-2.658l-2.66 2.88-2.657-1.441h-2.659v1.44l2.659 1.44-2.659 1.44v1.44h2.659l2.657-1.44 2.659 2.88-2.659 2.88-2.657-1.441h-2.659v1.44l2.659 1.44-2.659 1.44v1.44h2.659l2.657-1.44 2.659 2.88-2.657 2.88-2.659-1.441h-2.659v1.441l2.659 1.439-2.659 1.44v1.44h2.659l2.659-1.44 2.658 2.88h2.657l-5.316-4.319 5.316-4.319z" fill="#28ae66"/><path transform="matrix(1.201 0 0 1.126 158.34 -5.284)" stroke="#000" stroke-width=".267" fill="#28ae66" d="M-26.575 214.37h1.772v1.772h-1.772zM-28.346 216.14h1.772v1.772h-1.772zm-8.859 8.86h1.772v1.772h-1.772zm1.772-1.77h1.772v1.772h-1.772zm-58.465 0h1.772v1.772h-1.772zm-8.862-8.86h1.772v1.772h-1.772zm1.78 1.77h1.772v1.772h-1.772zm0-38.97h1.772v1.772h-1.772zm-1.78 1.77h1.772v1.772h-1.772zm10.634-10.63h1.772v1.772h-1.772zM-93.898 170.08h1.772v1.772h-1.772zm56.693-1.77h1.772v1.772h-1.772zm1.772 1.77h1.772v1.772h-1.772zm7.087 7.09h1.772v1.772h-1.772zM-26.575 178.94h1.772v1.772h-1.772zm-65.551 46.06h1.772v1.772h-1.772z"/><path d="M75.287 216.973l-6.269-.001-.001-3.918 4.18.003v-3.674h4.181v-3.373h4.18v4.216c-3.461 0-6.271 2.857-6.271 6.747z" fill="#fff"/><path d="M87.825 216.973l6.269-.001.001-3.918-4.18.003v-3.674h-4.181v-3.373h-4.18v4.216c3.461 0 6.271 2.857 6.271 6.747z" fill="#faae29"/><path d="M87.825 216.973h6.269l.001 3.918-4.18-.002v3.673h-4.181v3.374h-4.18v-4.217c3.461 0 6.271-2.856 6.271-6.746z" fill="#fff"/><path d="M75.287 216.973h-6.269l-.001 3.918 4.18-.002v3.673h4.181v3.374h4.18v-4.217c-3.461 0-6.271-2.856-6.271-6.746z" fill="#faae29"/><path d="M87.824 216.975h-6.27v-6.747c3.461 0 6.27 3.023 6.27 6.747z" fill="#28ae66"/><path d="M87.824 216.969h-6.27v6.747c3.461 0 6.27-3.022 6.27-6.746z" fill="#ca3745"/><path d="M75.288 216.969h6.27v6.747c-3.461 0-6.27-3.022-6.27-6.746z" fill="#28ae66"/><path d="M75.288 216.975h6.27v-6.747c-3.461 0-6.27 3.023-6.27 6.747z" fill="#ca3745"/><path d="M88.156 241.888l-6.38-3.987-6.38 3.986-6.38-3.986-6.38 3.986v-1.992l4.254-1.994-2.127-1.993v-1.993h2.127l2.126 1.993 2.126-1.993h2.127v1.993l-2.127 1.993 4.254 1.993 4.254-1.993-2.127-1.993v-1.993h2.127l2.126 1.993 2.126-1.993h2.127v1.993l-2.127 1.993 4.254 1.993 4.254-1.992-2.126-1.994v-1.993h2.126l2.126 1.993 2.126-1.993h2.127v1.993l-2.127 1.994 4.254 1.993v1.993l-6.38-3.986-6.38 3.986zm0-49.826l-6.38 3.986-6.38-3.986-6.38 3.986-6.38-3.986v1.992l4.254 1.995-2.127 1.992v1.994h2.127l2.126-1.994 2.126 1.994h2.127v-1.994l-2.127-1.992 4.254-1.994 4.254 1.994-2.127 1.992v1.994h2.127l2.126-1.994 2.126 1.994h2.127v-1.994l-2.127-1.992 4.254-1.994 4.254 1.993-2.126 1.993v1.994h2.126l2.126-1.994 2.126 1.994h2.127v-1.994l-2.127-1.993 4.254-1.994v-1.992l-6.38 3.986-6.38-3.986zm23.389 29.893l-3.191-4.984 3.191-4.984-3.191-4.984 3.191-4.983h-1.595l-1.596 3.322-1.595-1.662h-1.596v1.662l1.595 1.66-1.595 1.661v1.661h1.595l1.595-1.66 1.596 3.321-1.596 3.322-1.595-1.66h-1.596v1.66l1.595 1.661-1.595 1.66v1.662h1.595l1.595-1.661 1.596 3.322-1.595 3.322-1.596-1.661h-1.596v1.661l1.595 1.661-1.595 1.66v1.662h1.595l1.596-1.661 1.595 3.322h1.595l-3.189-4.984 3.189-4.984z" fill="#28ae66"/><path d="M-100.98 177.17l-7.087 7.086v26.575l7.087 7.087h31.889l7.087-7.087v-26.575l-7.087-7.086h-31.889zm-1.772-5.316l-17.717 17.716v15.945l17.717 17.717h35.433l17.716-17.717v-15.945l-17.716-17.716h-35.433z" transform="matrix(1.201 0 0 1.126 183.863 -5.283)" stroke="#000" stroke-width=".427" fill="#28ae66"/><path d="M-93.898 147.05l3.543 5.315 3.544-5.315h-7.087z" transform="matrix(.961 0 0 .75 161.743 131.597)" stroke="#000" stroke-width=".267" fill="#faae29"/><path d="M-93.898 147.05l3.543 5.315 3.544-5.315h-7.087z" transform="matrix(.961 0 0 -.75 161.743 302.359)" stroke="#000" stroke-width=".267" fill="#faae29"/><path d="M-93.898 147.05l3.543 5.315 3.544-5.315h-7.087z" transform="matrix(.961 0 0 -.75 175.355 302.359)" stroke="#000" stroke-width=".267" fill="#faae29"/><path d="M-93.898 147.05l3.543 5.315 3.544-5.315h-7.087z" transform="matrix(.961 0 0 .75 175.355 131.597)" stroke="#000" stroke-width=".267" fill="#faae29"/><path d="M-93.898 147.05l3.543 5.315 3.544-5.315h-7.087z" transform="matrix(.961 0 0 -.75 154.938 302.359)" stroke="#000" stroke-width=".267" fill="#ca3745"/><path d="M-93.898 147.05l3.543 5.315 3.544-5.315h-7.087z" transform="matrix(.961 0 0 -.75 168.549 302.359)" stroke="#000" stroke-width=".267" fill="#ca3745"/><path d="M-93.898 147.05l3.543 5.315 3.544-5.315h-7.087z" transform="matrix(.961 0 0 -.75 182.161 302.359)" stroke="#000" stroke-width=".267" fill="#ca3745"/><path d="M-104.53 180.71l3.544-3.544h-3.544v3.544z" transform="matrix(1.801 0 0 -1.687 244.46 540.877)" stroke="#000" stroke-width=".267" fill="#ca3745"/><path d="M52.003 221.955l3.191-4.984-3.191-4.984 3.191-4.984-3.191-4.983h1.595l1.596 3.322 1.595-1.662h1.595v1.662l-1.595 1.66 1.595 1.661v1.661h-1.595l-1.595-1.66-1.596 3.321 1.595 3.322 1.595-1.66h1.596v1.66l-1.595 1.661 1.595 1.66v1.662h-1.595l-1.595-1.661-1.596 3.322 1.595 3.322 1.595-1.661h1.596v1.661l-1.595 1.661 1.595 1.66v1.662h-1.595l-1.596-1.661-1.596 3.322h-1.595l3.189-4.984-3.189-4.984z" fill="#28ae66"/><path d="M-76.181 154.13h7.087l1.771 1.772-1.771 1.771h-7.087v-3.543z" transform="matrix(1.201 0 0 1.013 205.13 55.511)" stroke="#000" stroke-width=".267" fill="#ca3745"/><path d="M-99.213 180.71l-3.543 3.544v26.575l3.543 3.543h-5.316l.001-33.662h5.315z" transform="matrix(1.201 0 0 1.126 175.355 -5.283)" stroke="#000" stroke-width=".4" fill="#ca3745"/><path d="M-93.898 147.05l3.543 5.315 3.544-5.315h-7.087z" transform="matrix(.961 0 0 .75 154.938 131.597)" stroke="#000" stroke-width=".267" fill="#ca3745"/><path d="M-93.898 147.05l3.543 5.315 3.544-5.315h-7.087z" transform="matrix(.961 0 0 .75 168.549 131.597)" stroke="#000" stroke-width=".267" fill="#ca3745"/><path d="M-93.898 147.05l3.543 5.315 3.544-5.315h-7.087z" transform="matrix(.961 0 0 .75 182.161 131.597)" stroke="#000" stroke-width=".267" fill="#ca3745"/><path d="M-99.212 180.71l-3.544 3.544v26.575l3.544 3.543h-5.315v-33.662h5.315z" transform="matrix(-1.201 0 0 1.126 -11.799 -5.283)" stroke="#000" stroke-width=".4" fill="#ca3745"/><path d="M-104.53 180.71l3.544-3.544h-3.544v3.544z" transform="matrix(-1.801 0 0 -1.687 -80.913 540.877)" stroke="#000" stroke-width=".267" fill="#ca3745"/><path d="M-104.53 180.71l3.544-3.544h-3.544v3.544z" transform="matrix(-1.801 0 0 1.687 -80.913 -106.925)" stroke="#000" stroke-width=".267" fill="#ca3745"/><path d="M-104.53 180.71l3.544-3.544h-3.544v3.544z" transform="matrix(1.801 0 0 1.687 244.46 -106.925)" stroke="#000" stroke-width=".267" fill="#ca3745"/><path d="M-100.98 177.17l-7.087 7.086v26.575l7.087 7.087h31.889l7.087-7.087v-26.575l-7.087-7.086h-31.889zm-.001-1.773l-8.858 8.858v26.575l8.859 8.858h31.889l8.858-8.858v-26.575l-8.859-8.858h-31.889z" transform="matrix(1.201 0 0 1.126 183.863 -5.283)" stroke="#000" stroke-width=".427" fill="#28ae66"/><path d="M-76.181 154.13h7.087l1.771 1.772-1.771 1.771h-7.087v-3.543z" transform="matrix(1.201 0 0 1.013 205.129 59.086)" stroke="#000" stroke-width=".267" fill="#faae29"/><path d="M-76.181 154.13h7.087l1.771 1.772-1.771 1.771h-7.087v-3.543z" transform="matrix(1.201 0 0 1.013 205.13 62.687)" stroke="#000" stroke-width=".267" fill="#ca3745"/><path d="M-76.181 154.13h7.087l1.771 1.772-1.771 1.771h-7.087v-3.543z" transform="matrix(1.201 0 0 1.013 205.13 66.262)" stroke="#000" stroke-width=".267" fill="#faae29"/><path d="M-76.181 154.13h7.087l1.771 1.772-1.771 1.771h-7.087v-3.543z" transform="matrix(1.201 0 0 1.013 205.13 51.91)" stroke="#000" stroke-width=".267" fill="#faae29"/><path d="M-76.181 154.13h7.087l1.771 1.772-1.771 1.771h-7.087v-3.543z" transform="matrix(-1.201 0 0 1.013 -41.578 55.511)" stroke="#000" stroke-width=".267" fill="#ca3745"/><path d="M-76.181 154.13h7.087l1.771 1.772-1.771 1.771h-7.087v-3.543z" transform="matrix(-1.201 0 0 1.013 -41.578 59.087)" stroke="#000" stroke-width=".267" fill="#faae29"/><path d="M-76.181 154.13h7.087l1.771 1.772-1.771 1.771h-7.087v-3.543z" transform="matrix(-1.201 0 0 1.013 -41.578 62.687)" stroke="#000" stroke-width=".267" fill="#ca3745"/><path d="M-76.181 154.13h7.087l1.771 1.772-1.771 1.771h-7.087v-3.543z" transform="matrix(-1.201 0 0 1.013 -41.578 66.263)" stroke="#000" stroke-width=".267" fill="#faae29"/><path d="M-76.181 154.13h7.087l1.771 1.772-1.771 1.771h-7.087v-3.543z" transform="matrix(-1.201 0 0 1.013 -41.578 51.912)" stroke="#000" stroke-width=".267" fill="#faae29"/><path d="M-100.98 178.94v37.205h8.858v8.858h56.693v-8.858h8.858v-37.205h-8.858v-8.858h-56.693v8.858h-8.858zm1.771 1.772v33.661h8.859v8.858h53.15v-8.858h8.858v-33.661h-8.858v-8.859h-53.15v8.859h-8.859z" transform="matrix(1.201 0 0 1.126 158.34 -5.284)" stroke="#000" stroke-width=".267" fill="#970000"/><path d="M-28.347 69.094l-5.315-7.087v-5.315l-5.315-5.314h-10.63l-8.858-5.315h-28.346l-8.859 5.315h-10.63l-5.315 5.315v5.315l-5.315 7.086v14.173l5.315 7.087v5.315l5.315 5.315h10.63l8.859 5.315h28.346l8.858-5.316h10.63l5.315-5.314v-5.315l5.315-7.087v-14.174z" transform="matrix(1.201 0 0 1.082 168.972 -34.403)" stroke="#000" stroke-width=".267" fill="#ca3745"/><path d="M30.751 48.025v5.75l6.38 7.667v5.75l6.38 5.751h12.761l10.634 5.751h14.888l-.002-30.669h-51.041z" fill="#faae29"/><path d="M63.827 61.437l-7.768 4.929h-4.64l1.548 1.642-3.094 3.287 1.546 1.642 4.64-1.642 1.547 1.642.715-4.39 8.565-5.197-3.058-1.914zM55.324 57.604l-7.768 4.929h-4.64l1.548 1.642-3.094 3.287 1.546 1.643 4.64-1.643 1.547 1.643.715-4.39 8.566-5.197-3.06-1.914zm-4.257-7.663l-7.769 4.929h-4.638l1.547 1.642-3.094 3.287 1.547 1.643 4.639-1.643 1.548 1.643.714-4.39 8.566-5.197-3.058-1.914z" fill="#ca3745"/><path d="M132.802 48.025v-5.751l-6.38-7.667v-5.75l-6.38-5.751h-12.761l-10.634-5.75h-14.888l.002 30.669h51.041z" fill="#faae29"/><path d="M81.781 78.693h-3.938l-4.568-3.834h-7.247l-3.939-1.917 1.97-1.916 3.938 1.916h3.939l3.938-5.75 5.908 1.916v3.834h-5.908l5.908 5.75z" fill="#ca3745"/><path d="M30.751 48.025v-5.751l6.38-7.667v-5.75l6.38-5.751h12.761l10.634-5.75h14.888l-.002 30.669h-51.041z" fill="#fff"/><path d="M81.781 17.352h-3.938l-4.568 3.834h-7.247l-3.939 1.916 1.97 1.917 3.938-1.917h3.939l3.938 5.751 5.908-1.917v-3.833h-5.908l5.908-5.75zM81.777 17.352h3.939l4.568 3.834h7.247l3.938 1.916-1.969 1.917-3.939-1.917h-3.938l-3.939 5.751-5.908-1.917v-3.833h5.908l-5.908-5.75z" fill="#ca3745"/><path d="M132.802 48.025v5.75l-6.38 7.667v5.75l-6.38 5.751h-12.761l-10.634 5.751h-14.888l.002-30.669h51.041z" fill="#fff"/><path d="M81.777 78.693h3.939l4.568-3.834h7.247l3.938-1.917-1.969-1.916-3.939 1.916h-3.938l-3.939-5.75-5.908 1.916v3.834h5.908l-5.908 5.75zm-26.453-40.255l-7.768-4.929h-4.64l1.548-1.642-3.094-3.287 1.546-1.643 4.64 1.643 1.547-1.643.715 4.39 8.566 5.197-3.06 1.914zm44.4-3.83l7.769-4.93h4.64l-1.548-1.641 3.094-3.287-1.546-1.643-4.64 1.643-1.547-1.643-.715 4.39-8.565 5.197 3.058 1.915zM63.827 34.608l-7.768-4.93h-4.64l1.548-1.641-3.094-3.287 1.546-1.643 4.64 1.643 1.547-1.643.715 4.39 8.565 5.197-3.058 1.915zm-12.76 11.501l-7.769-4.929h-4.638l1.547-1.642-3.094-3.287 1.547-1.643 4.639 1.643 1.548-1.643.714 4.391 8.566 5.197-3.058 1.914z" fill="#ca3745"/><path d="M34.527 48.034h1.97l1.97 1.916 1.97-1.916 41.352-.002v26.839h-1.969l1.97 1.917v1.916l-5.908-5.75v-1.917h1.969v1.917h1.97v-1.917l-15.99-8.466h-13.47v-8.308l-5.986-4.312h-3.939l-1.97 1.916 1.97 1.918h-1.97l-3.939-5.751z" fill="#fff"/><path d="M34.527 48.014h1.97l1.97-1.916 1.97 1.916 41.352.002v-26.838h-1.969l1.97-1.917v-1.917l-5.908 5.75v1.917h1.969v-1.916h1.97v1.916l-15.99 8.466h-13.47v8.308l-5.986 4.312h-3.939l-1.97-1.916 1.97-1.917h-1.97l-3.939 5.75z" fill="#faae29"/><path d="M43.505 48.013h38.281v23.003l-17.013-9.584h-12.76v-7.667l-8.508-5.751z" fill="#28ae66"/><path d="M108.228 38.437l7.768-4.929h4.64l-1.548-1.642 3.094-3.287-1.546-1.643-4.64 1.643-1.547-1.643-.715 4.39-8.566 5.197 3.06 1.914zm4.257 7.671l7.769-4.929h4.639l-1.547-1.642 3.094-3.287-1.547-1.643-4.639 1.643-1.548-1.643-.714 4.391-8.566 5.197 3.058 1.914z" fill="#ca3745"/><path d="M129.026 48.014h-1.97l-1.97-1.916-1.97 1.916-41.352.002v-26.838h1.969l-1.97-1.917v-1.917l5.908 5.75v1.917h-1.969v-1.916h-1.97v1.916l15.99 8.466h13.47v8.308l5.986 4.312h3.939l1.97-1.916-1.97-1.917h1.97l3.939 5.75z" fill="#fff"/><path d="M120.047 48.035h-38.281v-23.003l17.013 9.584h12.76v7.667l8.508 5.751z" fill="#28ae66"/><path d="M99.724 61.437l7.769 4.929h4.64l-1.548 1.642 3.094 3.287-1.546 1.642-4.64-1.642-1.547 1.642-.715-4.39-8.565-5.197 3.058-1.914zM108.228 57.604l7.768 4.929h4.64l-1.548 1.642 3.094 3.287-1.546 1.643-4.64-1.643-1.547 1.643-.715-4.39-8.566-5.197 3.06-1.914zm4.257-7.663l7.769 4.929h4.639l-1.547 1.642 3.094 3.287-1.547 1.643-4.639-1.643-1.548 1.643-.714-4.39-8.566-5.197 3.058-1.914z" fill="#ca3745"/><path d="M129.026 48.034h-1.97l-1.97 1.916-1.97-1.916-41.352-.002v26.839h1.969l-1.97 1.917v1.916l5.908-5.75v-1.917h-1.969v1.917h-1.97v-1.917l15.99-8.466h13.47v-8.308l5.986-4.312h3.939l1.97 1.916-1.97 1.918h1.97l3.939-5.751z" fill="#faae29"/><path d="M120.047 48.013h-38.281v23.003l17.013-9.584h12.76v-7.667l8.508-5.751zM43.505 48.035h38.281v-23.003l-17.013 9.584h-12.76v7.667l-8.508 5.751zM85.978 48.024l10.682-5.751h6.38l-2.127-1.916 4.254-3.835-2.126-1.916-6.38 1.916-2.127-1.916-.982 5.121-11.778 6.063 4.206 2.233zm-8.404-.01l-10.682 5.752h-6.38l2.127 1.916-4.254 3.834 2.126 1.917 6.38-1.917 2.127 1.917.982-5.121 11.778-6.064-4.206-2.232z" fill="#ca3745"/><path d="M77.575 48.024l-10.682-5.751h-6.38l2.127-1.916-4.254-3.835 2.126-1.916 6.38 1.916 2.127-1.916.982 5.121 11.778 6.063-4.206 2.233zm8.404-.01l10.682 5.752h6.38l-2.127 1.916 4.254 3.834-2.126 1.917-6.38-1.917-2.127 1.917-.982-5.121-11.778-6.064 4.206-2.232z" fill="#28ae66"/><path d="M69.017 48.026l12.76-9.585 12.761 9.585-12.761 9.584-12.76-9.584z" fill="#fff"/><path d="M40.426 51.855l1.97 1.916-1.97 1.917h-1.97l-5.908-7.667h1.97l3.938 5.75h1.97l-1.97-1.916 1.97-1.917h3.938v1.917h-3.938zM40.426 44.188l1.97-1.916-1.97-1.917h-1.97l-5.908 7.667h1.97l3.938-5.75h1.97l-1.97 1.916 1.97 1.917h3.938v-1.917h-3.938zm82.704 7.666l-1.97 1.916 1.97 1.917h1.97l5.907-7.667h-1.97l-3.938 5.75h-1.97l1.97-1.916-1.97-1.917h-3.938v1.917h3.939zM123.13 44.188l-1.97-1.916 1.97-1.917h1.97l5.907 7.667h-1.97l-3.938-5.75h-1.97l1.97 1.916-1.97 1.917h-3.938v-1.917h3.939zm-43.322-3.834h3.938v15.334h-3.938zM73.9 44.189h15.753v7.667h-15.752z" fill="#ca3745"/><path d="M333.07 170.08l-10.63 5.315v8.858l10.63 5.315h10.63l10.63-5.315v-8.858l-10.63-5.315h-10.63z" transform="matrix(3.335 0 0 3.608 -1046.621 -274.115)" stroke="#000" stroke-width=".07" fill="#28ae66"/><path d="M41.765 371.702h2.143v-3.93h4.289v3.93h2.143v-9.172h-2.143v3.93h-4.289v-3.93h-2.143v9.172zm54.311 30.573h2.143v-3.931h4.289v3.93h2.143v-9.172h-2.143v3.931h-4.289v-3.93h-2.143v9.172zm-34.301-45.86h2.143v-3.93h4.289v3.93h2.143v-9.172h-2.143v3.93h-4.289v-3.93h-2.143v9.172zm31.445 0h2.143v-3.93h4.289v3.93h2.143v-9.172h-2.143v3.93h-4.289v-3.93h-2.143v9.172zm20.001 15.287h2.143v-3.93h4.289v3.93h2.143v-9.172h-2.143v3.93h-4.289v-3.93h-2.143v9.172zm0 15.287h2.143v-3.931h4.289v3.931h2.143v-9.173h-2.143v3.931h-4.289v-3.93h-2.143v9.172z" fill="#c00"/><path d="M81.778 408.395v-33.632h51.455v15.288l-34.303 18.344h-17.152zm.001-67.27v33.633h-51.455v-15.288l34.303-18.345h17.152z" fill="#faae29"/><path d="M81.778 341.125v33.633h51.455v-15.288l-34.303-18.345h-17.152zm.001 67.27l-.001-33.631-51.454-.001v15.288l34.303 18.344h17.152z" fill="#fff"/><path d="M-177.16 368.5h21.259l-21.259-10.63v10.63zm24.803-1.772l-.001 17.717h-33.661v-14.173h-7.086l-8.858-5.315v-12.402l5.314-5.315h-7.086v17.717h-1.772v-19.489h17.717l35.433 21.26z" transform="matrix(.968 0 0 .863 280.734 43.029)" stroke="#000" stroke-width=".133" fill="#faae29"/><path d="M64.596 364.053v21.4h5.144l12.008 6.116 12.006-6.116h5.145v-21.4h-5.144l-12.007-6.116-12.008 6.116h-5.144z" fill="#ca3745"/><path d="M-177.16 368.5h21.259l-21.259-10.63v10.63zm24.803-1.772l-.001 17.717h-33.661v-14.173h-7.086l-8.858-5.315v-12.402l5.314-5.315h-7.086v17.717h-1.772v-19.489h17.717l35.433 21.26z" transform="matrix(-.968 0 0 -.863 -117.178 706.492)" stroke="#000" stroke-width=".133" fill="#faae29"/><path d="M-177.16 368.5h21.259l-21.259-10.63v10.63zm24.803-1.772l-.001 17.717h-33.661v-14.173h-7.086l-8.858-5.315v-12.402l5.314-5.315h-7.086v17.717h-1.772v-19.489h17.717l35.433 21.26z" transform="matrix(-.968 0 0 .863 -117.178 43.029)" stroke="#000" stroke-width=".133" fill="#fff"/><path d="M-177.16 368.5h21.259l-21.259-10.63v10.63zm24.803-1.772l-.001 17.717h-33.661v-14.173h-7.086l-8.858-5.315v-12.402l5.314-5.315h-7.086v17.717h-1.772v-19.489h17.717l35.433 21.26z" transform="matrix(.968 0 0 -.863 280.735 706.492)" stroke="#000" stroke-width=".133" fill="#fff"/><path d="M40.622 386.998h2.143v-4.587h4.289v4.587h2.143v-10.701h-2.143v4.587h-4.289v-4.587h-2.143v10.701zm20.572 15.287h2.143v-4.587h4.289v4.587h2.143v-10.702h-2.143v4.587h-4.289v-4.587h-2.143v10.702zm-20.572-39.751h2.143v4.587h4.289v-4.587h2.143v10.701h-2.143v-4.587h-4.289v4.587h-2.143v-10.701zm20.572-15.288h2.143v4.587h4.289v-4.587h2.143v10.701h-2.143v-4.587h-4.289v4.587h-2.143v-10.701zm32.596 55.039h2.143v-4.587h4.289v4.587h2.143v-10.702h-2.143v4.587h-4.289v-4.587h-2.143v10.702zm20.582-29.053h2.143v-4.587h4.289v4.587h2.143v-10.702h-2.143v4.587h-4.289v-4.587h-2.143v10.702zM93.791 402.285h2.143v-4.587h4.289v4.587h2.143v-10.702h-2.143v4.587h-4.289v-4.587h-2.143v10.702zM93.791 402.285h2.143v-4.587h4.289v4.587h2.143v-10.702h-2.143v4.587h-4.289v-4.587h-2.143v10.702zm20.582-15.296h2.143v-4.587h4.289v4.587h2.143v-10.702h-2.143v4.587h-4.289v-4.587h-2.143v10.702zm-20.582-29.043h2.143v-4.587h4.289v4.587h2.143v-10.702h-2.143v4.587h-4.289v-4.587h-2.143v10.702z" fill="#ca3745"/><path d="M83.495 374.761l6.861-5.575h3.43v2.787h-3.43v1.394h5.145v-5.574h-5.145v-4.181h-6.861v4.18h1.716v-2.788h3.429v2.788l-6.86 5.575-6.861-5.574v-2.786h3.43v2.786h1.716v-4.181l-6.861.001v4.18h-5.147v5.575h5.146v-1.394h-3.431v-2.788h3.431l6.861 5.574-6.861 5.574h-3.43v-2.786h3.43v-1.395h-5.145v5.575h5.145v4.18l6.861.002v-4.182h-1.715v2.788h-3.43v-2.788l6.86-5.574 6.861 5.575v2.786h-3.429v-2.786h-1.717v4.18h6.861v-4.18l5.146-.002v-5.574h-5.146v1.394h3.431v2.788h-3.431l-6.861-5.575z" fill="#fff"/><g transform="matrix(.968 0 0 .899 152.102 17.029)"><path d="M-122.352 134.285l3.43-3.73h20.573l15.43-16.784h20.574l15.43 16.784h20.575l3.429 3.729-3.429 3.73h-20.574l-15.43 16.784h-20.576l-15.43-16.784h-20.574l-3.43-3.729z" fill="#ca3745"/><path d="M372.05 391.54l1.903-1.949h22.834l17.126-19.489h19.029l17.126 19.489h22.835l1.903 1.949-1.903 1.948h-22.835l-15.223 17.54h-22.834l-15.224-17.54h-22.834l-1.903-1.948z" transform="matrix(.931 0 0 .909 -466.86 -221.29)" stroke="#000" stroke-width=".29" fill="#ca3745"/><path d="M-64.071 136.148l6.858 7.458-3.428 3.73-1.715-1.865h-1.714v1.865l1.714 1.865h3.43l3.428-3.73v-3.73l-6.857-7.458 6.857-7.46v-3.73l-3.429-3.729h-3.428l-1.715 1.864v1.865h1.715l1.714-1.865 3.428 3.73-6.857 7.46-6.859-7.46 6.859-7.46v-1.863h-1.715l-6.857 7.458-6.859-7.46h-1.715v1.865l6.859 7.46-6.859 7.46-6.858-7.46 3.429-3.73 1.715 1.865h1.714v-1.865l-1.714-1.864h-3.43l-3.429 3.73v3.729l6.859 7.46-6.859 7.46v3.729l3.43 3.73h3.429l1.714-1.865v-1.865h-1.714l-1.715 1.865-3.429-3.73 6.858-7.46 6.858 7.46-6.858 7.46v1.864h1.714l6.859-7.46 6.858 7.46h1.714v-1.865l-6.858-7.46 6.858-7.458zm-8.572-9.325l-6.859 7.46 6.859 7.46 6.858-7.46-6.858-7.46zm-10.274 27.967v14.918l1.715-1.865 1.715 1.865 1.714-1.865 1.714 1.865 1.715-1.865 1.714 1.865 1.715-1.865 1.715 1.865 1.714-1.865 1.715 1.865 1.713-1.865 1.715 1.865v-14.918h-20.574zm20.564-41v-14.918l-1.715 1.865-1.715-1.865-1.714 1.865-1.714-1.865-1.715 1.865-1.714-1.865-1.715 1.865-1.715-1.865-1.714 1.865-1.715-1.865-1.713 1.865-1.715-1.865v14.918h20.574zm29.148 16.79v-14.918l-1.715 1.865-1.713-1.865-1.715 1.865-1.715-1.865-1.714 1.865-1.715-1.865-1.714 1.865-1.714-1.865v14.918h13.715zm-65.15 0v-14.918l-1.715 1.865-1.713-1.865-1.715 1.865-1.715-1.865-1.714 1.865-1.715-1.865-1.714 1.865-1.714-1.865v14.918h13.715zm65.15 7.43v14.918l-1.715-1.865-1.713 1.865-1.715-1.865-1.715 1.865-1.714-1.865-1.715 1.865-1.714-1.865-1.714 1.865v-14.918h13.715zm-65.15 0v14.918l-1.715-1.865-1.713 1.865-1.715-1.865-1.715 1.865-1.714-1.865-1.715 1.865-1.714-1.865-1.714 1.865v-14.918h13.715z" fill="#faae29"/><path d="M-62.347 154.79v9.324l1.714-1.866 1.715 1.866 1.714-1.866 1.714 1.866 1.715-1.866 1.714 1.866 1.715-1.866 1.714 1.866 1.715-1.866v-24.242l-15.43 16.784zm-20.586 0v9.325l-1.715-1.866-1.715 1.866-1.714-1.866-1.714 1.866-1.715-1.866-1.714 1.866-1.715-1.866-1.714 1.866-1.715-1.866.001-24.243 15.43 16.784zm0-41v-9.324l-1.714 1.866-1.715-1.866-1.714 1.866-1.714-1.866-1.715 1.866-1.714-1.866-1.715 1.866-1.714-1.866-1.715 1.866v24.242l15.43-16.784zm20.586 0v-9.324l1.714 1.866 1.715-1.866 1.714 1.866 1.714-1.866 1.715 1.866 1.714-1.866 1.715 1.866 1.714-1.866 1.715 1.866v24.242l-15.43-16.784zm-49.731 35.416l-1.715-1.865-1.713 1.865-1.714-1.865-1.715 1.865-1.715-1.865-1.715 1.865-1.713-1.865-1.715 1.865v-29.838l1.714 1.866 1.714-1.866 1.715 1.866 1.714-1.866 1.715 1.866 1.714-1.866 1.714 1.866 1.715-1.866v11.19h-6.857l-3.43 3.73 3.43 3.73h6.857v11.188zm78.876 0l1.715-1.865 1.713 1.865 1.714-1.865 1.715 1.865 1.715-1.865 1.715 1.865 1.713-1.865 1.715 1.865v-29.838l-1.714 1.866-1.714-1.866-1.715 1.866-1.714-1.866-1.715 1.866-1.714-1.866-1.714 1.866-1.715-1.866v11.19h6.857l3.43 3.73-3.43 3.73h-6.857v11.188z" fill="#28ae66"/><path d="M-91.36 155.978s-1.428 1.474-1.428 2.21c-.028.687 1.524 2.227 2.143 2.211.81.016 2.143-1.474 2.143-2.21 0-.737-1.43-2.211-1.43-2.211v-2.948s3.104 5.068 3.104 2.857c0-1.586-3.103-4.331-3.103-4.331h-1.429s-3.103 3.214-3.103 4.33c0 2.212 3.103-2.856 3.103-2.856v2.948z" fill="#fff"/><path d="M-73.497 161.669s-1.715 2.063-1.715 3.095c-.034.962 1.829 3.118 2.572 3.095.971.023 2.572-2.063 2.572-3.095l-1.715-3.095v-4.127s3.037 6.751 3.037 3.656c0-2.001-3.037-5.72-3.037-5.72h-1.714s-3.506 4.656-3.037 5.72c0 3.095 3.037-3.656 3.037-3.656v4.127z" fill="#ca3745"/><ellipse fill="#28ae66" transform="matrix(.968 0 0 1.053 -482.4 -277.85)" cx="403.94" rx="3.543" cy="391.54" ry="1.772"/><ellipse fill="#28ae66" transform="matrix(.968 0 0 1.053 -463.54 -277.85)" cx="403.94" rx="3.543" cy="391.54" ry="1.772"/><ellipse fill="#28ae66" transform="matrix(.968 0 0 1.053 -444.69 -277.85)" cx="403.94" rx="3.543" cy="391.54" ry="1.772"/><path d="M-91.72 112.76s-1.428-1.474-1.428-2.21c-.028-.688 1.524-2.228 2.143-2.211.81-.017 2.143 1.473 2.143 2.21 0 .737-1.43 2.211-1.43 2.211v2.948s3.104-5.068 3.104-2.857c0 1.586-3.103 4.33-3.103 4.33h-1.429s-3.103-3.213-3.103-4.33c0-2.21 3.103 2.857 3.103 2.857v-2.948z" fill="#fff"/><path d="M-73.857 107.062s-1.715-2.063-1.715-3.095c-.034-.962 1.829-3.118 2.572-3.095.971-.023 2.572 2.063 2.572 3.095l-1.715 3.095v4.127s3.037-6.751 3.037-3.656c0 2.001-3.037 5.72-3.037 5.72h-1.714s-3.506-4.656-3.037-5.72c0-3.095 3.037 3.656 3.037 3.656v-4.127z" fill="#ca3745"/><path d="M-54.86 155.978s-1.428 1.474-1.428 2.21c-.028.687 1.524 2.227 2.143 2.211.81.016 2.143-1.474 2.143-2.21 0-.737-1.43-2.211-1.43-2.211v-2.948s3.104 5.068 3.104 2.857c0-1.586-3.103-4.331-3.103-4.331h-1.429s-3.103 3.214-3.103 4.33c0 2.212 3.103-2.856 3.103-2.856v2.948zm-.36-43.218s-1.428-1.474-1.428-2.21c-.028-.688 1.524-2.228 2.143-2.211.81-.017 2.143 1.473 2.143 2.21 0 .737-1.43 2.211-1.43 2.211v2.948s3.104-5.068 3.104-2.857c0 1.586-3.103 4.33-3.103 4.33h-1.429s-3.103-3.213-3.103-4.33c0-2.21 3.103 2.857 3.103 2.857v-2.948z" fill="#fff"/><path d="M-106.273 145.593s-1.9 1.383-1.9 2.074c-.037.644 2.026 2.089 2.85 2.074 1.076.015 2.85-1.383 2.85-2.074 0-.691-1.9-2.074-1.9-2.074v-2.765s3.364 4.523 3.364 2.45c0-1.342-3.365-3.833-3.365-3.833h-1.9s-3.882 3.119-3.363 3.832c0 2.074 3.364-2.45 3.364-2.45v2.766zm-.4-21.122s-1.9-1.383-1.9-2.074c-.037-.644 2.026-2.09 2.85-2.074 1.076-.015 2.85 1.383 2.85 2.074 0 .691-1.9 2.074-1.9 2.074v2.765s3.364-4.524 3.364-2.45c0 1.342-3.365 3.833-3.365 3.833h-1.9s-3.882-3.12-3.363-3.832c0-2.074 3.364 2.45 3.364 2.45v-2.766zm66.25 20.679s-1.9 1.384-1.9 2.075c-.037.644 2.026 2.089 2.85 2.074 1.076.015 2.85-1.383 2.85-2.074 0-.691-1.9-2.074-1.9-2.074v-2.765s3.364 4.523 3.364 2.45c0-1.342-3.365-3.833-3.365-3.833h-1.9s-3.882 3.119-3.363 3.832c0 2.074 3.364-2.45 3.364-2.45v2.766zm-.4-21.119s-1.9-1.383-1.9-2.074c-.037-.644 2.026-2.09 2.85-2.074 1.076-.015 2.85 1.383 2.85 2.074 0 .691-1.9 2.074-1.9 2.074v2.765s3.364-4.524 3.364-2.45c0 1.342-3.365 3.833-3.365 3.833h-1.9s-3.882-3.12-3.363-3.832c0-2.074 3.364 2.45 3.364 2.45v-2.766z" fill="#ca3745"/><path d="M-120.285 145.363c-.615-1.277-.453-1.86-.453-2.597-.028-.687 1.716-2.025 2.336-2.009.809-.016 2.143 1.474 2.143 2.21 0 .737.034 1.374-.298 2.644l-.893-2.154c-1.084 3.056-1.143 3.127-1.787-.074l-1.048 1.98zm.06-21.433c-.615 1.278-.453 1.862-.453 2.598-.028.687 1.716 2.025 2.336 2.009.809.016 2.143-1.474 2.143-2.21 0-.737.034-1.374-.298-2.644l-.893 2.154c-1.084-3.056-1.143-3.127-1.787.074l-1.048-1.98zm92.42 21.163c-.615-1.277-.453-1.86-.453-2.597-.028-.687 1.716-2.025 2.336-2.009.809-.016 2.143 1.474 2.143 2.21 0 .737.034 1.374-.298 2.644l-.893-2.154c-1.084 3.056-1.143 3.127-1.787-.074l-1.048 1.98zm.05-21.438c-.615 1.277-.453 1.86-.453 2.597-.028.687 1.716 2.025 2.336 2.009.809.016 2.143-1.474 2.143-2.21 0-.737.034-1.374-.298-2.644l-.893 2.154c-1.084-3.056-1.143-3.127-1.787.074l-1.048-1.98z" fill="#fff"/><path d="M-83.27 170.073v-5.315h-15.944v-10.63h-14.173v-3.543h-12.402v-31.89h12.402v-3.543h14.173v-10.63h15.944v-5.315h21.26v5.315h15.945v10.63h14.173v3.543h12.402v31.89h-12.402v3.543h-14.173v10.63h-15.945v5.315h-21.26zm-1.772 1.772v-5.315h-15.944v-10.63h-14.173v-3.543h-12.402v-35.433h12.402v-3.544h14.173v-10.63h15.945v-5.315h24.803v5.315h15.945v10.63h14.173v3.544h12.402v35.433h-12.402v3.543h-14.173v10.63h-15.945v5.315h-24.804z" stroke="#000" stroke-width=".133" fill="#ca3745"/></g></g></svg>