<svg xmlns="http://www.w3.org/2000/svg" width="640" height="480" viewBox="0 0 640 480">
	<path fill="#E70013" d="M0,0h640v480H0L0,0z"/>
	<path fill="#FFFFFF" d="M441.9,239.9c0,66.9-54.2,121.1-121.1,121.1c-66.9,0-121.1-54.2-121.1-121.1s54.2-121.1,121.1-121.1C387.7,118.8,441.9,173,441.9,239.9L441.9,239.9z"/>
	<path fill="#E70013" d="M320.8,320.2c-44.3,0-80.3-36-80.3-80.3s36-80.3,80.3-80.3c11.1,0,23.7,2.6,32.3,8.8c-58.7,2.2-73.6,52-73.6,72.1s9.5,64.9,73.6,71.5C345.7,316.7,331.9,320.2,320.8,320.2L320.8,320.2z M391.5,273.7L355,260.4l-24.1,30.4l1.4-38.8l-36.4-13.6l37.3-10.7l1.6-38.8l21.7,32.2l37.4-10.4L370,241.3L391.5,273.7z"/>
</svg>
