<svg xmlns="http://www.w3.org/2000/svg" height="480" width="640" viewBox="0 0 640 480"><defs><clipPath id="a"><path fill-opacity=".67" d="M0 0h682.67v512h-682.67z"/></clipPath></defs><g fill-rule="evenodd" clip-path="url(#a)"><path fill="#de2110" d="M0 0h720v480h-720z"/><path fill="#08399c" d="M0 0h361.584v240h-361.584z"/><path fill="#fff" d="M264.467 167.395l-44.374-9.125 9.453 44.306-33.875-30.082-13.973 43.097-14.291-43-33.643 30.344 9.125-44.374-44.306 9.443 30.082-33.865-43.096-13.973 42.989-14.291-30.334-33.647 44.374 9.122-9.443-44.308 33.865 30.087 13.973-43.097 14.291 42.993 33.643-30.337-9.125 44.377 44.306-9.45-30.082 33.874 43.097 13.962-42.99 14.291z"/><path fill="#005387" d="M223.566 163.991l-14.002 7.436-13.659 8.07-15.861-.547-15.862.186-13.462-8.382-13.837-7.758-7.456-13.974-8.092-13.612.538-15.819-.176-15.828 8.405-13.425 7.779-13.796 14.002-7.438 13.659-8.069 15.862.544 15.87-.181 13.464 8.381 13.825 7.758 7.456 13.97 8.092 13.612-.538 15.819.175 15.828-8.405 13.428z"/><path d="M229.347 120.263c0 26.856-21.771 48.625-48.624 48.625s-48.625-21.77-48.625-48.624 21.771-48.624 48.625-48.624 48.624 21.77 48.624 48.624z" fill="#fff"/></g></svg>