<svg xmlns="http://www.w3.org/2000/svg" height="480" width="640" viewBox="0 0 640 480"><defs><clipPath id="a"><path fill-opacity=".67" d="M0 0h682.67v512h-682.67z"/></clipPath></defs><g fill-rule="evenodd" clip-path="url(#a)"><path d="M0 0h912.009v36.923h-912.009zm0 73.847h912.009v36.923h-912.009zm0 73.847h912.009v36.923h-912.009zm0 73.847h912.009v36.923h-912.009zm0 73.847h912.009v36.923h-912.009zm0 73.847h912.009v36.923h-912.009zm0 73.847h912.009v36.923h-912.009z" fill="#bd3d44"/><path d="M0 36.923h912.009v36.923h-912.009zm0 73.847h912.009v36.923h-912.009zm0 73.847h912.009v36.923h-912.009zm0 73.847h912.009v36.923h-912.009zm0 73.847h912.009v36.923h-912.009zm0 73.847h912.009v36.923h-912.009z" fill="#fff"/><path fill="#192f5d" d="M0 0h364.8v258.459h-364.8z"/><g fill="#fff"><path d="M30.4 11.063l3.319 10.215h10.742l-8.691 6.314 3.32 10.215-8.691-6.313-8.689 6.313 3.319-10.215-8.69-6.314h10.741zm60.8 0l3.32 10.215h10.742l-8.691 6.314 3.32 10.215-8.691-6.313-8.689 6.313 3.319-10.215-8.69-6.314h10.741zm60.802 0l3.319 10.215h10.742l-8.691 6.314 3.32 10.215-8.69-6.313-8.69 6.313 3.319-10.215-8.69-6.314h10.742zm60.799 0l3.319 10.215h10.741l-8.69 6.314 3.319 10.215-8.689-6.313-8.691 6.313 3.32-10.215-8.691-6.314h10.742zm60.802 0l3.319 10.215h10.742l-8.691 6.314 3.32 10.215-8.691-6.313-8.689 6.313 3.319-10.215-8.69-6.314h10.741zm60.802 0l3.319 10.215h10.742l-8.691 6.314 3.32 10.215-8.69-6.313-8.691 6.313 3.321-10.215-8.691-6.314h10.742zM60.802 36.909l3.319 10.215h10.742l-8.691 6.313 3.321 10.216-8.691-6.313-8.69 6.313 3.319-10.216-8.69-6.313h10.742zm60.799 0l3.319 10.215h10.741l-8.69 6.313 3.319 10.216-8.689-6.313-8.691 6.313 3.32-10.216-8.691-6.313h10.742zm60.802 0l3.319 10.215h10.742l-8.691 6.313 3.32 10.216-8.691-6.313-8.689 6.313 3.319-10.216-8.69-6.313h10.741zm60.802 0l3.319 10.215h10.742l-8.691 6.313 3.32 10.216-8.69-6.313-8.691 6.313 3.322-10.216-8.691-6.313h10.742zm60.799 0l3.319 10.215h10.741l-8.69 6.313 3.319 10.216-8.689-6.313-8.691 6.313 3.32-10.216-8.691-6.313h10.742zM30.4 62.755l3.319 10.215h10.742l-8.691 6.314 3.32 10.215-8.691-6.313-8.689 6.313 3.319-10.215-8.69-6.314h10.741zm60.8 0l3.32 10.215h10.742l-8.691 6.314 3.32 10.215-8.691-6.313-8.689 6.313 3.319-10.215-8.69-6.314h10.741zm60.802 0l3.319 10.215h10.742l-8.691 6.314 3.32 10.215-8.69-6.313-8.69 6.313 3.319-10.215-8.69-6.314h10.742zm60.799 0l3.319 10.215h10.741l-8.69 6.314 3.319 10.215-8.689-6.313-8.691 6.313 3.32-10.215-8.691-6.314h10.742zm60.802 0l3.319 10.215h10.742l-8.691 6.314 3.32 10.215-8.691-6.313-8.689 6.313 3.319-10.215-8.69-6.314h10.741zm60.802 0l3.319 10.215h10.742l-8.691 6.314 3.32 10.215-8.69-6.313-8.691 6.313 3.321-10.215-8.691-6.314h10.742zM60.802 88.601l3.319 10.216h10.742l-8.691 6.313 3.321 10.216-8.691-6.313-8.69 6.313 3.319-10.216-8.69-6.313h10.742zm60.799 0l3.319 10.216h10.741l-8.69 6.313 3.319 10.216-8.689-6.313-8.691 6.313 3.32-10.216-8.691-6.313h10.742zm60.802 0l3.319 10.216h10.742l-8.691 6.313 3.32 10.216-8.691-6.313-8.689 6.313 3.319-10.216-8.69-6.313h10.741zm60.802 0l3.319 10.216h10.742l-8.691 6.313 3.32 10.216-8.69-6.313-8.691 6.313 3.321-10.216-8.691-6.313h10.742zm60.799 0l3.319 10.216h10.741l-8.69 6.313 3.319 10.216-8.689-6.313-8.691 6.313 3.32-10.216-8.691-6.313h10.742zM30.4 114.448l3.319 10.215h10.742l-8.691 6.314 3.32 10.215-8.691-6.313-8.689 6.313 3.319-10.215-8.69-6.314h10.741zm60.8 0l3.32 10.215h10.742l-8.691 6.314 3.32 10.215-8.691-6.313-8.689 6.313 3.319-10.215-8.69-6.314h10.741zm60.802 0l3.319 10.215h10.742l-8.691 6.314 3.32 10.215-8.69-6.313-8.69 6.313 3.319-10.215-8.69-6.314h10.742zm60.799 0l3.319 10.215h10.741l-8.69 6.314 3.319 10.215-8.689-6.313-8.691 6.313 3.32-10.215-8.691-6.314h10.742zm60.802 0l3.319 10.215h10.742l-8.691 6.314 3.32 10.215-8.691-6.313-8.689 6.313 3.319-10.215-8.69-6.314h10.741zm60.802 0l3.319 10.215h10.742l-8.691 6.314 3.32 10.215-8.69-6.313-8.691 6.313 3.321-10.215-8.691-6.314h10.742zM60.802 140.294l3.319 10.216h10.742l-8.691 6.313 3.321 10.216-8.691-6.313-8.69 6.313 3.319-10.216-8.69-6.313h10.742zm60.799 0l3.319 10.216h10.741l-8.69 6.313 3.319 10.216-8.689-6.313-8.691 6.313 3.32-10.216-8.691-6.313h10.742zm60.802 0l3.319 10.216h10.742l-8.691 6.313 3.32 10.216-8.691-6.313-8.689 6.313 3.319-10.216-8.69-6.313h10.741zm60.802 0l3.319 10.216h10.742l-8.691 6.313 3.32 10.216-8.69-6.313-8.691 6.313 3.321-10.216-8.691-6.313h10.742zm60.799 0l3.319 10.216h10.741l-8.69 6.313 3.319 10.216-8.689-6.313-8.691 6.313 3.32-10.216-8.691-6.313h10.742zM30.4 166.141l3.319 10.215h10.742l-8.691 6.314 3.32 10.215-8.691-6.313-8.689 6.313 3.319-10.215-8.69-6.314h10.741zm60.8 0l3.32 10.215h10.742l-8.691 6.314 3.32 10.215-8.691-6.313-8.689 6.313 3.319-10.215-8.69-6.314h10.741zm60.802 0l3.319 10.215h10.742l-8.691 6.314 3.32 10.215-8.69-6.313-8.69 6.313 3.319-10.215-8.69-6.314h10.742zm60.799 0l3.319 10.215h10.741l-8.69 6.314 3.319 10.215-8.689-6.313-8.691 6.313 3.32-10.215-8.691-6.314h10.742zm60.802 0l3.319 10.215h10.742l-8.691 6.314 3.32 10.215-8.691-6.313-8.689 6.313 3.319-10.215-8.69-6.314h10.741zm60.802 0l3.319 10.215h10.742l-8.691 6.314 3.32 10.215-8.69-6.313-8.691 6.313 3.321-10.215-8.691-6.314h10.742zM60.802 191.987l3.319 10.216h10.742l-8.691 6.313 3.321 10.216-8.691-6.313-8.69 6.313 3.319-10.216-8.69-6.313h10.742zm60.799 0l3.319 10.216h10.741l-8.69 6.313 3.319 10.216-8.689-6.313-8.691 6.313 3.32-10.216-8.691-6.313h10.742zm60.802 0l3.319 10.216h10.742l-8.691 6.313 3.32 10.216-8.691-6.313-8.689 6.313 3.319-10.216-8.69-6.313h10.741zm60.802 0l3.319 10.216h10.742l-8.691 6.313 3.32 10.216-8.69-6.313-8.691 6.313 3.321-10.216-8.691-6.313h10.742zm60.799 0l3.319 10.216h10.741l-8.69 6.313 3.319 10.216-8.689-6.313-8.691 6.313 3.32-10.216-8.691-6.313h10.742zM30.4 217.834l3.319 10.215h10.742l-8.691 6.314 3.32 10.215-8.691-6.313-8.689 6.313 3.319-10.215-8.69-6.314h10.741zm60.8 0l3.32 10.215h10.742l-8.691 6.314 3.32 10.215-8.691-6.313-8.689 6.313 3.319-10.215-8.69-6.314h10.741zm60.802 0l3.319 10.215h10.742l-8.691 6.314 3.32 10.215-8.69-6.313-8.69 6.313 3.319-10.215-8.69-6.314h10.742zm60.799 0l3.319 10.215h10.741l-8.69 6.314 3.319 10.215-8.689-6.313-8.691 6.313 3.32-10.215-8.691-6.314h10.742zm60.802 0l3.319 10.215h10.742l-8.691 6.314 3.32 10.215-8.691-6.313-8.689 6.313 3.319-10.215-8.69-6.314h10.741zm60.802 0l3.319 10.215h10.742l-8.691 6.314 3.32 10.215-8.69-6.313-8.691 6.313 3.321-10.215-8.691-6.314h10.742z"/></g></g></svg>