<svg xmlns="http://www.w3.org/2000/svg" height="480" width="640" viewBox="0 0 640 480"><style>.prefix__st2{fill:#fff;stroke:#000;stroke-width:.6409;stroke-linejoin:round;stroke-miterlimit:10}.prefix__st2,.prefix__st3,.prefix__st5{stroke-linecap:round}.prefix__st3{stroke:#000;stroke-width:.6409;stroke-linejoin:round;stroke-miterlimit:10;fill:#ce9d09}.prefix__st5{fill:none}.prefix__st10,.prefix__st11,.prefix__st12,.prefix__st14,.prefix__st15,.prefix__st16,.prefix__st5,.prefix__st6,.prefix__st7,.prefix__st8,.prefix__st9{stroke:#000;stroke-width:.6409;stroke-linejoin:round;stroke-miterlimit:10}.prefix__st6{stroke-linecap:round;fill:#fbe704}.prefix__st10,.prefix__st11,.prefix__st12,.prefix__st14,.prefix__st15,.prefix__st16,.prefix__st7,.prefix__st8,.prefix__st9{fill:#ce9d09}.prefix__st10,.prefix__st11,.prefix__st12,.prefix__st14,.prefix__st15,.prefix__st16,.prefix__st8,.prefix__st9{fill:#fff}.prefix__st10,.prefix__st11,.prefix__st12,.prefix__st14,.prefix__st15,.prefix__st16,.prefix__st9{stroke-miterlimit:1.2818}.prefix__st10,.prefix__st11,.prefix__st12,.prefix__st14,.prefix__st15,.prefix__st16{fill:#ce9d09}.prefix__st11,.prefix__st12,.prefix__st14,.prefix__st15,.prefix__st16{fill:#ccc;stroke-miterlimit:10}.prefix__st12,.prefix__st14,.prefix__st15,.prefix__st16{fill:none}.prefix__st14,.prefix__st15,.prefix__st16{fill:#ccc;stroke-miterlimit:1.2818}.prefix__st15,.prefix__st16{fill:none}.prefix__st16{fill:#fa0204;stroke-miterlimit:10}</style><path id="prefix__rect4999" fill-rule="evenodd" clip-rule="evenodd" fill="#fff" d="M0 0h640v480H0z"/><path id="prefix__rect4998" fill-rule="evenodd" clip-rule="evenodd" fill="#ffe000" d="M0 0h320v480H0z"/><path id="prefix__path4905" class="prefix__st2" d="M499 130.2s-.9-3.3-1.7-4.8c-.5-.9-1.1-1.7-1.8-2.5-.8-.9-1.5-1.9-2.5-2.7-.8-.7-1.8-1.2-2.8-1.7-1-.6-2.1-1.1-3.2-1.4-1.2-.3-3.6-.3-3.6-.3s-2.5 0-3.6.3-2.2.9-3.2 1.4c-1 .5-2 1-2.8 1.7-.9.8-1.7 1.7-2.5 2.7-.6.8-1.3 1.6-1.8 2.5-.8 1.5-1.7 4.8-1.7 4.8l15.6-.6 15.6.6z"/><path id="prefix__path4899" class="prefix__st3" d="M484.8 116.8c.7.1 1.7.8 2.2.3.3-.2.1-.7 0-1-.3-.7-1.6-.9-1.7-1.7-.1-.7 1-1 1.2-1.6.1-.3.1-.7 0-1-.5-1.3-2.8-1.3-3.2-2.6-.2-.6 1.1-1.2 1.3-1.3.8-.4 1.9.5 2.7.2.6-.2 1.2-.8 1.2-1.4 0-.7-.7-1.2-1.3-1.5-1.2-.5-3.1 1.1-3.8.1-.7-1 1.7-2.1 1.3-3.3-.1-.5-1.3-1-1.3-1s-1.2.5-1.3 1c-.3 1.1 2 2.3 1.3 3.3-.7 1.1-2.7-.6-3.8-.1-.6.3-1.3.8-1.3 1.5 0 .6.6 1.2 1.2 1.4.8.4 1.9-.5 2.7-.2.2.1 1.5.7 1.3 1.3-.4 1.3-2.6 1.4-3.2 2.6-.1.3-.1.7 0 1 .2.6 1.3 1 1.2 1.6-.1.8-1.4.9-1.7 1.7-.1.3-.3.8 0 1 .6.5 1.5-.3 2.2-.3h1.4s1-.1 1.4 0z"/><path id="prefix__path4460" d="M470.6 154.9l-8.8 1.8-3.2-9.8 2.4-2.7 10.3-4.7 12.3-.9 12.3.9 10.3 4.7 2.4 2.7-3.2 9.8-8.8-1.8-12.8-2.1-13.2 2.1z" fill="#fff"/><path id="prefix__path4357" class="prefix__st3" d="M479.4 140c-2.3.1-4.6.3-6.9.7-2.4.4-4.7 1-7 1.9-2.1.8-4.4 4.3-6.2 2.9-.4-.3.1-1 .3-1.4.4-.9.9-1.7 1.5-2.4.5-.5 1.5-.6 1.6-1.3.1-.5-.7-.8-.8-1.3-.2-.6-.3-1.3-.1-1.9.2-.8 1.3-1.2 1.5-2 .2-.7-.5-1.5-.2-2.1.4-.8 2.2-.5 2.3-1.4.1-.4-.7-.6-.9-1-.1-.3.1-.6.1-.9 0-.4.1-.9-.1-1.3-.2-.3-.7-.4-.8-.8-.1-.3 0-.8.2-1 .2-.2.7.1.8-.2.3-.5-.5-1-.7-1.5-.3-.6-.6-1.2-.8-1.9-.1-.5-.6-1.3-.1-1.6.5-.3 1.1.6 1.5 1 .6.5 1.4.9 1.8 1.6.3.5.1 1.2.6 1.6.5.5 1.5.1 2 .6.5.4.9 1.1.7 1.6-.1.6-1.4.5-1.3 1.1.2.7 1.3.6 2 .5.4-.1.7-.4 1-.7.3-.2.5-.4.7-.5.3-.1 1-.2 1-.2l-.4-.1s-.6-.5-.7-.8c-.1-.3.1-.7.3-1 .3-.3.7-.4 1.1-.4.3 0 .7.1.9.4.2.2.4.6.3.9 0 .3-.2.6-.4.7-.2.2-.9.3-.9.3l.4.1 1.2 1.6 5.1-.3s.6-.6.5-1c-.1-.4-.5-.5-1.1-.5-1.6.1-2-1.3-1.9-2.3.1-.8 1.1-1.4 1.8-1.7.7-.3 2.1.7 2.4 0 .3-.6-1.1-1-1.3-1.6-.1-.3-.1-.6 0-.9.3-.7 1.1-1.2 1.8-1.5.3-.1 1-.2 1-.2s.7 0 1 .2c.7.3 1.5.8 1.8 1.5.1.3.1.6 0 .9-.2.7-1.6 1-1.3 1.6.3.7 1.7-.3 2.4 0 .8.3 1.8.9 1.8 1.7.1 1-.3 2.4-1.9 2.3-.6 0-1 .1-1.1.5-.1.3.5 1 .5 1l5.1.3 1.2-1.6.4-.1s-.6-.1-.9-.3c-.2-.2-.4-.4-.4-.7 0-.3.1-.7.3-.9.2-.2.6-.4.9-.4.4 0 .8.1 1.1.4.2.2.4.6.3 1-.1.4-.7.8-.7.8l-.4.1s.7 0 1 .2c.3.1.5.4.7.5.3.2.6.6 1 .7.7.1 1.8.2 2-.5.1-.6-1.2-.5-1.3-1.1-.1-.6.3-1.3.7-1.6.5-.5 1.5-.1 2-.6.4-.4.2-1.2.6-1.6.4-.7 1.2-1.1 1.8-1.6.5-.4 1-1.3 1.5-1 .5.3 0 1.1-.1 1.6-.2.7-.5 1.3-.8 1.9-.2.5-1 1-.7 1.5.1.2.6 0 .8.2.3.3.3.7.2 1-.1.4-.7.4-.8.8-.2.4-.1.8-.1 1.3 0 .3.2.6.1.9-.1.4-.9.6-.9 1 .1.9 1.9.6 2.3 1.4.3.6-.4 1.5-.2 2.1.2.8 1.2 1.2 1.5 2 .2.6.1 1.3-.1 1.9-.2.5-.9.8-.8 1.3.1.7 1.2.7 1.6 1.3.6.7 1.1 1.5 1.5 2.4.2.5.7 1.1.3 1.4-1.8 1.4-4-2.1-6.2-2.9-2.3-.8-4.6-1.4-7-1.9-2.3-.4-4.6-.6-6.9-.7-1.3-.1-4-.1-4-.1s-2.2 0-3.6.1z"/><path id="prefix__path4353" class="prefix__st3" d="M482.1 107.8c-.5-1.1.4-1.9 1.3-2.7.9.8 1.8 1.6 1.3 2.7"/><path id="prefix__path4363" class="prefix__st5" d="M468.6 128.8s-1.3.1-1.8-.3-.8-1.2-.6-1.8c.1-.5 1.1-1 1.1-1"/><path id="prefix__path4361" class="prefix__st3" d="M465.6 131.6l3.6-.9c1.3-.3 2.7-.5 4-.7 1.5-.2 3.1-.3 4.7-.4 1.8-.1 5.6-.1 5.6-.1s3.7 0 5.6.1c1.6.1 3.1.2 4.7.4 1.3.2 2.7.4 4 .7l3.6.9"/><path id="prefix__path4367" class="prefix__st6" d="M464.6 128.4l2.2.1"/><path id="prefix__path4365" class="prefix__st6" d="M464.8 126.5l1.4.2"/><path id="prefix__path4369" class="prefix__st6" d="M470.6 129.5l.5.9"/><path id="prefix__path4371" class="prefix__st3" d="M463.4 135.3s2.2-.5 3.3-.8c1.6-.4 3.1-.8 4.7-1.1 1.8-.3 3.6-.6 5.4-.7 2.2-.2 6.8-.1 6.8-.1s4.5-.1 6.8.1c1.8.1 3.6.4 5.4.7 1.6.3 3.1.7 4.7 1.1 1.1.3 3.3.8 3.3.8"/><path id="prefix__path4393" class="prefix__st3" d="M481.9 147l-1.6-1.4s-2.6 1.1-3.5 2.1c-.2.3-.5.7-.4 1 .1 1.3 2 3.5 2 3.5l3.8-1.6"/><path id="prefix__path4397" class="prefix__st7" d="M480.7 183.4c-1.7 0-3.3-.1-5 0-2.5.2-5 .8-7.5 1.4-1.2.3-3.5 1.1-3.5 1.1l-.2-1.9.7-1-1.9-3.9-2-1.8v-3.8s-1 .6-1.5.5c-.6-.1-1.1-.6-1.3-1.2-.2-.4.1-.9 0-1.4-.1-.4-.4-.7-.7-1.1-.2-.4-.5-.7-.8-1.1-.3-.4-1.1-.6-1-1.2 0-.4.8-.8.8-.8l1-.2 2.2-3.8-.2-4.1s-.9-.6-1.1-1.1c-.2-.3-.2-1.1-.2-1.1l2.3-3s-.7 0-.9-.1c-.5-.2-1.2-1.2-1.2-1.2s-1.3.9-2 .8c-.3-.1-.6-.4-.8-.7-.2-.3-.3-.7-.2-1.1.1-.3.3-.5.5-.7.4-.4 1.2-.3 1.5-.8.2-.4.1-.9 0-1.4-.3-.9-.9-1.7-1.4-2.4-.3-.5-1-.8-1.1-1.4 0-.3.4-.9.4-.9s1 0 1.5.1c.8.2 1.6.6 2.2 1.2.5.5.6 1.2.8 1.9.2.5.5 1.5.5 1.5s1.2 0 1.7.2c.7.3 1.4.8 1.7 1.5.2.5.2 1.2 0 1.7s-.7 1-1.2 1.3c-.5.3-1.9.5-1.9.5s1.2 1.2 1.9 1.4c.4.1.8.1 1.2 0 .5-.1.9-.5 1.2-.9.9-.7 1.8-1.4 2.5-2.3.4-.5 1-1.7 1-1.7s-1-.5-1.4-1c-.2-.3-.5-.6-.5-1s.1-.9.4-1.2c.3-.3.8-.4 1.2-.4.4 0 .7.1 1 .3.3.3.5.7.6 1.1 0 .3-.1.7-.3 1-.2.5-1.1 1.2-1.1 1.2s2.5 1.9 4 2.3c1.5.4 3.1.3 4.5-.1.4-.1 1-.6 1-.6 1.7-1.1 3.4-1.7 5.1-1.5 1.7-.2 3.4.4 5.1 1.5 0 0 .6.5 1 .6 1.4.4 3.1.5 4.5.1 1.5-.4 4-2.3 4-2.3s-.8-.7-1.1-1.2c-.2-.3-.3-.7-.3-1 0-.4.3-.8.6-1.1.3-.2.7-.4 1-.3.4 0 .9.1 1.2.4.3.3.5.8.4 1.2 0 .4-.3.7-.5 1-.4.4-1.4 1-1.4 1s.6 1.2 1 1.7c.7.9 1.6 1.6 2.5 2.3.4.3.8.7 1.2.9.4.1.8.1 1.2 0 .7-.2 1.9-1.4 1.9-1.4s-1.3-.2-1.9-.5c-.5-.3-1-.8-1.2-1.3-.2-.5-.2-1.2 0-1.7.3-.7 1-1.2 1.7-1.5.5-.2 1.7-.2 1.7-.2s.3-1 .5-1.5c.2-.6.4-1.4.8-1.9.6-.6 1.4-.9 2.2-1.2.5-.1 1.5-.1 1.5-.1s.4.6.4.9c-.1.6-.8.9-1.1 1.4-.5.8-1.2 1.5-1.4 2.4-.1.4-.3 1 0 1.4.3.5 1.1.4 1.5.8.2.2.5.4.5.7.1.4 0 .8-.2 1.1-.2.3-.5.6-.8.7-.7.1-2-.8-2-.8s-.7 1-1.2 1.2c-.3.1-.9.1-.9.1l2.3 3s0 .8-.2 1.1c-.2.5-1.1 1.1-1.1 1.1l-.2 4.1 2.2 3.8 1 .2s.8.4.8.8c0 .5-.7.8-1 1.2-.3.3-.5.7-.8 1.1-.2.3-.5.7-.7 1.1-.1.4.2 1 0 1.4-.2.5-.7 1-1.3 1.2-.5.1-1.5-.5-1.5-.5v3.8l-2 1.8-1.9 3.9.7 1-.2 1.9s-2.3-.8-3.5-1.1c-2.5-.6-4.9-1.2-7.5-1.4-1.7-.2-3.3 0-5 0H483h-2.3z"/><path id="prefix__path4399" class="prefix__st3" d="M460.8 148.8s-.8.7-1.1 1.1c-.3.4-.5.9-.6 1.4-.1.5 0 1.6 0 1.6"/><path id="prefix__path4401" class="prefix__st3" d="M460 159.3s2.1-1 3.2-1.3c2-.6 4.1-1 6.1-1.4 2.4-.5 4.8-.6 7.2-1.1.7-.2 1.4-.5 2.2-.7 1-.2 2.1-.6 3.2-.3.6.1 1.5.9 1.5.9s.9-.8 1.5-.9c1-.2 2.1.1 3.2.3.8.2 1.5.5 2.2.7 2.4.6 4.8.7 7.2 1.1 2.1.4 4.1.8 6.1 1.4 1.1.3 3.2 1.3 3.2 1.3"/><path id="prefix__path4403" class="prefix__st5" d="M460.2 163.5s3.4-1.1 5.1-1.7c1.8-.5 3.5-1.2 5.3-1.6 2.1-.5 4.3-.7 6.5-.9 2.1-.2 6.4-.5 6.4-.5s4.3.2 6.4.5c2.2.2 4.4.5 6.5.9 1.8.4 3.5 1 5.3 1.6 1.7.5 5.1 1.7 5.1 1.7"/><path id="prefix__path4415" class="prefix__st5" d="M480.4 166.5s-1 .2-1.4.5c-.6.4-1.1 1-1.4 1.7-.2.5-.2 1 0 1.5.3.7 1 1.1 1.6 1.4.4.2.8.3 1.3.3.6-.1 1.5-.8 1.5-.8"/><path id="prefix__path4407" class="prefix__st3" d="M459.4 168l1.1 2.3c-1.1 0-1.5.6-1.8 1.2"/><path id="prefix__path4411" class="prefix__st3" d="M461.5 171s1-1 1.7-1.2c.4-.1.9 0 1.3.3.5.3.8.9.9 1.4.1.5.1 1-.1 1.5-.2.4-.4.8-.8 1-.9.4-3-.4-3-.4"/><path id="prefix__path4409" class="prefix__st3" d="M460.4 170.1l1.1.8-.1 2.7"/><path id="prefix__path4417" class="prefix__st5" d="M480.5 171.7s-.6 1.1-1.1 1.3c-1.5.7-3.4.6-5.1.1-1-.3-2.5-.6-2.7-1.6-.1-.4.6-.6.7-.9.1-.3.2-.6.1-.9-.2-.5-.5-.9-1-1.1-.4-.2-.8-.2-1.2 0-.4.1-.7.4-.9.7-.2.4-.3.9-.1 1.4.1.5.8.6.9 1.1.1.5 0 1-.3 1.4-.6.8-1.6 1.1-2.5 1.5-.6.2-1.3.4-1.8.2-.4-.2-.9-1.1-.9-1.1"/><path id="prefix__path4419" class="prefix__st6" d="M470.1 171.8l1.6-.2"/><path id="prefix__path4895" class="prefix__st8" d="M486.1 192.2c4.2-.3 8.4-.8 12.4-1.9 1.1-.3 2.4-.5 3.3-1.3.4-.4.6-.9.7-1.4.1-.6-.1-1.2-.4-1.7-1.4-1.8-3.9-2.6-6.2-3.3-4-1.2-12.5-.9-12.5-.9s-8.5-.3-12.5.9c-2.2.6-4.7 1.5-6.2 3.3-.3.4-.5 1.1-.4 1.7.1.5.3 1 .7 1.4.9.8 2.2 1 3.3 1.3 4 1.1 8.2 1.6 12.4 1.9.9.1 2.7 0 2.7 0h2.7z"/><path id="prefix__path4903" class="prefix__st6" d="M485.4 114.3h-4"/><path id="prefix__path4911" class="prefix__st5" d="M498.3 128.8s1.3.1 1.8-.3.8-1.2.6-1.8c-.1-.5-1.1-1-1.1-1"/><path id="prefix__path4917" class="prefix__st6" d="M502.3 128.4l-2.2.1"/><path id="prefix__path4919" class="prefix__st6" d="M502.1 126.5l-1.4.2"/><path id="prefix__path4921" class="prefix__st6" d="M496.3 129.5l-.5.9"/><path id="prefix__path4925" class="prefix__st5" d="M504 140.4s-2.3-.9-3.5-1.3c-1-.3-2-.7-3-.9-1.2-.3-2.5-.5-3.7-.7-1.8-.2-3.6-.4-5.4-.5-1.6-.1-5-.1-5-.1s-3.3 0-5 .1c-1.8.1-3.6.3-5.4.5-1.3.2-2.5.4-3.7.7-1 .2-2 .6-3 .9-1.2.4-3.5 1.3-3.5 1.3"/><path id="prefix__path4359" class="prefix__st3" d="M480.7 128.5l1.5-1.2h1.2-1.3s-.7-.5-.9-.8c-.2-.3-.3-.8-.2-1.2.1-.5.4-1 .9-1.3.4-.3 1.5-.1 1.5-.1s1.1-.2 1.5.1c.4.3.7.8.9 1.3.1.4 0 .8-.2 1.2-.2.4-.9.8-.9.8h-1.3 1.2l1.5 1.2"/><path id="prefix__path4929" class="prefix__st3" d="M485 147l1.6-1.4s2.6 1.1 3.5 2.1c.2.3.5.7.4 1-.1 1.3-2 3.5-2 3.5l-3.8-1.6"/><path id="prefix__path4391" class="prefix__st3" d="M482.3 150.8s-1.2-1.1-1.5-1.9c-.1-.3-.1-.7.1-1 .2-.4 1.1-.9 1.1-.9s-1.4-.7-1.7-1.3c-.2-.4-.2-.8-.1-1.2.2-.6.6-1.1 1.1-1.6.6-.5 2.2-1 2.2-1s1.5.5 2.2 1c.5.4 1 .9 1.1 1.6.1.4.1.9-.1 1.2-.3.6-1.7 1.3-1.7 1.3s.9.5 1.1.9c.2.3.2.7.1 1-.2.8-1.5 1.9-1.5 1.9l-1.2.1-1.2-.1z"/><path id="prefix__path4933" class="prefix__st2" d="M509 167.2s-1 .8-1.6.8c-.8-.1-1.4-1-2.1-1.4-.9-.5-1.9-1-2.9-1.4-1.4-.6-2.8-1.1-4.2-1.5-1.8-.6-3.6-1.1-5.4-1.4-1.9-.3-3.8-.3-5.7-.2-1.3.1-3.8.7-3.8.7s1.1.4 1.5.7c.6.3 1.3.6 1.6 1.2.3.5.3 1.2 0 1.7-.3.6-.8 1-1.4 1.3-.5.2-1.7.1-1.7.1s1.3.1 1.8.5c.3.3.5.8.5 1.2 0 .6-.3 1.2-.8 1.6-.4.3-1.5.3-1.5.3s.6.1.8 0c.4-.1.7-.3 1-.6.3-.3.4-.7.4-1.1 0-.4 0-.9-.2-1.2-.2-.3-.9-.5-.9-.5l.9-.3c.4-.2 1.1-.9 1.1-.9s.6 0 .8.1c.6.2 1.1.6 1.4 1.2.4.5.7 1.2.6 1.8-.1.6-.6 1.1-1.1 1.5-.5.4-1.7.7-1.7.7s0 .4.2.6c.4.5 1.1.9 1.7 1.1 1 .3 2.1.2 3.1 0s1.8-.4 2.9-.9c.4-.2.7-1 .7-1s-.8-.6-.9-1.1c-.1-.5.2-1 .5-1.3.3-.3.8-.5 1.2-.5.6 0 1.3.3 1.6.8.3.5.2 1.1 0 1.6-.2.4-1.1 1-1.1 1 .2.9.5 1.4.9 1.7 1.2.7 2.4 1.1 3.6 1.4l.7-.5.5-.9s-.7-1-.7-1.6c0-.5.2-1 .5-1.4.2-.3.5-.7.9-.8.4-.1.8-.1 1.2 0 .6.2 1.5 1 1.5 1s.9-.7 1.2-1.2c.3-.5.7-1.6.7-1.6l1.7-1.3z"/><path id="prefix__path4937" class="prefix__st3" d="M506.1 148.8s.8.7 1.1 1.1c.3.4.5.9.6 1.4.1.5 0 1.6 0 1.6"/><path id="prefix__path4944" class="prefix__st5" d="M486.5 166.5s1 .2 1.4.5c.6.4 1.1 1 1.4 1.7.2.5.2 1 0 1.5-.3.7-1 1.1-1.6 1.4-.4.2-.8.3-1.3.3-.6-.1-1.5-.8-1.5-.8"/><path id="prefix__path4946" class="prefix__st3" d="M507.5 168l-1.1 2.3c1.1 0 1.5.6 1.8 1.2"/><path id="prefix__path4948" class="prefix__st3" d="M505.4 171s-1-1-1.7-1.2c-.4-.1-.9 0-1.3.3-.5.3-.8.9-.9 1.4-.1.5-.1 1 .1 1.5.2.4.4.8.8 1 .9.4 3-.4 3-.4"/><path id="prefix__path4950" class="prefix__st3" d="M506.5 170.1l-1.1.8.1 2.7"/><path id="prefix__path4952" class="prefix__st5" d="M486.4 171.7s.6 1.1 1.1 1.3c1.5.7 3.4.6 5.1.1 1-.3 2.5-.6 2.7-1.6.1-.4-.6-.6-.7-.9-.1-.3-.2-.6-.1-.9.2-.5.5-.9 1-1.1.4-.2.8-.2 1.2 0 .4.1.7.4.9.7.2.4.3.9.1 1.4-.1.5-.8.6-.9 1.1-.1.5 0 1 .3 1.4.6.8 1.6 1.1 2.5 1.5.6.2 1.3.4 1.8.2.4-.2.9-1.1.9-1.1"/><path id="prefix__path4954" class="prefix__st6" d="M496.7 171.8l-1.6-.2"/><path id="prefix__path4956" class="prefix__st3" d="M503.5 179.2s-.6-.5-1-.8c-.7-.5-1.5-.9-2.3-1.2-1.1-.4-2.2-.6-3.3-.9-1.3-.3-2.6-.6-3.9-.8-1.5-.2-3.1-.3-4.6-.3-1.7 0-5 .2-5 .2s-3.3-.2-5-.2c-1.5 0-3.1.1-4.6.3-1.3.2-2.6.5-3.9.8-1.1.3-2.3.5-3.3.9-.8.3-1.6.7-2.3 1.2-.3.2-1 .8-1 .8"/><path id="prefix__path4958" class="prefix__st5" d="M501.7 183.1s-1.4-.6-2.1-.8c-1.3-.5-2.5-.9-3.8-1.2-1.3-.3-2.5-.7-3.8-.9-2.8-.3-8.4 0-8.4 0s-5.6-.3-8.4 0c-1.3.1-2.6.5-3.8.9-1.3.4-2.6.8-3.8 1.2-.7.3-2.1.8-2.1.8"/><path id="prefix__path4843" class="prefix__st9" d="M456.8 219.2l7.9 6.9s-1.6 1.4-2.6 1.9c-1.9.9-4 1.4-6.1 1.4-1.5 0-2.9-.6-4.3-1.2-3-1.4-6.3-2.8-8.3-5.5-.7-1-1-2.2-.9-3.4 0-1.3 1.2-3.8 1.2-3.8s.5 1.7 1 2.3c.9 1.1 2.1 1.8 3.4 2.4.9.4 1.9.8 3 .8 1.3.1 2.7-.1 4-.6.6-.3 1.7-1.2 1.7-1.2z"/><path id="prefix__path4839" class="prefix__st9" d="M444.2 168.5s.6 1.3.8 1.9c.3 1.2.6 2.4.5 3.6 0 1.2-.3 2.4-.6 3.6-.5 1.7-1.2 3.4-2 5.1-.5 1-1.2 2-1.6 3-.8 1.7-1.3 3.4-2 5.2-.6 1.4-1.3 2.8-1.8 4.3-.6 2-.9 4-1.2 6-.2 1.7-.4 3.5-.4 5.3 0 2.1 0 4.2.4 6.3.4 2 1 4.1 1.9 5.9.7 1.5 1.7 2.9 2.9 4.1.9 1 2.1 1.9 3.2 2.6 1.1.6 2.3 1 3.5 1.5 1.6.6 4.9 1.8 4.9 1.8s-4.5-2.2-6.1-4.1c-1.3-1.6-2-3.6-2.5-5.5-.5-2.3-.5-4.7-.2-7 .3-2.5 1-5 1.8-7.4.8-2.5 1.9-5 3-7.4.7-1.8 1.6-3.5 2.3-5.3.8-2.1 1.7-4.2 2.4-6.4.4-1.3.9-2.6 1-4 .1-1.5-.1-3-.4-4.5-.5-2-1.1-4.2-2.3-5.9-.7-1-1.7-1.9-2.8-2.5-1.1-.6-2.4-1-3.6-.8-.5 0-1.1.6-1.1.6z"/><path id="prefix__path4831" class="prefix__st9" d="M454.4 181.6s.9-3.5 1-5.2c.1-1.5 0-3-.1-4.5-.2-1.7-.3-3.4-.9-5-.7-1.6-1.7-3.1-3-4.3-1.2-1.2-2.7-2.2-4.4-2.8-1.7-.7-3.6-.8-5.4-.9-1.6-.1-3.1 0-4.7.2-.9.1-1.8.3-2.6.5-.8.3-2.3 1.1-2.3 1.1l5.7 9.4s1.8-1.1 2.8-1.3c1.1-.3 2.2-.3 3.3-.2 1.1.1 2.3.2 3.3.6 1.3.6 2.4 1.5 3.4 2.6 1.2 1.2 2.2 2.6 2.9 4.2.6 1.5.7 3.1.9 4.6 0 .3.1 1 .1 1z"/><path id="prefix__path4833" class="prefix__st10" d="M455.4 174.1s-1-3.2-2-4.5c-1.1-1.5-2.6-3-4.3-3.8-1.8-.9-6-1.2-6-1.2l2.2 4.1-3.8-.1-2-3.3-3.7 1.7-1.8-3 3.9-1.8-1.8-2.9 3.9-.4 1.7 2.8s3 0 4.5.3c1 .2 2 .6 2.9 1 .9.5 1.7 1.1 2.4 1.7.9.8 1.7 1.7 2.3 2.7.6 1 1.3 3.2 1.3 3.2l.3 3.5z"/><path id="prefix__path4835" class="prefix__st10" d="M432.1 160.7l-2.9 1.7-2.7 2.1 5.9 9.1 2.6-2 2.7-1.6-5.6-9.3z"/><path id="prefix__path4837" class="prefix__st10" d="M429.4 162.3l6.1 8.9"/><path id="prefix__path4841" class="prefix__st10" d="M443.3 198.9l3.4-7.1 3.7 1.5 1.5-3.7-3.7-1.7 1.9-4.1-2.7-1.2-2 3.9-3.7-1.5-1.6 3.8 3.6 1.5-3.3 7 2.9 1.6z"/><path id="prefix__path4845" class="prefix__st9" d="M467.7 190.1l3.1.7 4.9.8 2.3.2-.4 9.6s-.5 6.4-1.5 9.4c-.7 2.2-3 6.4-3 6.4l-1.5 2.3-8.7-7.5s1.5-2.1 2-3.3c.7-1.5 1.5-4.6 1.5-4.6l.9-5 .5-6.3-.1-2.7z"/><path id="prefix__path4847" class="prefix__st10" d="M470.8 196.8l3.5-.1v4l3.4.2-.6 4.1-3.1-.2s-.5 2.4-1 3.6c-.5 1.2-1.9 3.3-1.9 3.3l-3.7-.9s1.3-2.1 1.9-3.3c.5-1 1.1-3.2 1.1-3.2l-3.8-.5.7-3.9 3.5.2v-3.3z"/><path id="prefix__path4843_1_" class="prefix__st9" d="M510.2 219.2l-7.9 6.9s1.6 1.4 2.6 1.9c1.9.9 4 1.4 6.1 1.4 1.5 0 2.9-.6 4.3-1.2 3-1.4 6.3-2.8 8.3-5.5.7-1 1-2.2.9-3.4 0-1.3-1.2-3.8-1.2-3.8s-.5 1.7-1 2.3c-.9 1.1-2.1 1.8-3.4 2.4-.9.4-1.9.8-3 .8-1.3.1-2.7-.1-4-.6-.7-.3-1.7-1.2-1.7-1.2z"/><path id="prefix__path4839_1_" class="prefix__st9" d="M522.7 168.5s-.6 1.3-.8 1.9c-.3 1.2-.6 2.4-.5 3.6 0 1.2.3 2.4.6 3.6.5 1.7 1.2 3.4 2 5.1.5 1 1.2 2 1.6 3 .8 1.7 1.3 3.4 2 5.2.6 1.4 1.3 2.8 1.8 4.3.6 2 .9 4 1.2 6 .2 1.7.4 3.5.4 5.3 0 2.1 0 4.2-.4 6.3-.4 2-1 4.1-1.9 5.9-.7 1.5-1.7 2.9-2.9 4.1-.9 1-2.1 1.9-3.2 2.6-1.1.6-2.3 1-3.5 1.5-1.6.6-4.9 1.8-4.9 1.8s4.5-2.2 6.1-4.1c1.3-1.6 2-3.6 2.5-5.5.5-2.3.5-4.7.2-7-.3-2.5-1-5-1.8-7.4-.8-2.5-1.9-5-3-7.4-.7-1.8-1.6-3.5-2.3-5.3-.8-2.1-1.7-4.2-2.4-6.4-.4-1.3-.9-2.6-1-4-.1-1.5.1-3 .4-4.5.5-2 1.1-4.2 2.3-5.9.7-1 1.7-1.9 2.8-2.5 1.1-.6 2.4-1 3.6-.8.5 0 1.1.6 1.1.6z"/><path id="prefix__path4831_1_" class="prefix__st9" d="M512.6 181.6s-.9-3.5-1-5.2c-.1-1.5 0-3 .1-4.5.2-1.7.3-3.4.9-5 .7-1.6 1.7-3.1 3-4.3 1.2-1.2 2.7-2.2 4.4-2.8 1.7-.7 3.6-.8 5.4-.9 1.6-.1 3.1 0 4.7.2.9.1 1.8.3 2.6.5.8.3 2.3 1.1 2.3 1.1l-5.7 9.4s-1.8-1.1-2.8-1.3c-1.1-.3-2.2-.3-3.3-.2-1.1.1-2.3.2-3.3.6-1.3.6-2.4 1.5-3.4 2.6-1.2 1.2-2.2 2.6-2.9 4.2-.6 1.5-.7 3.1-.9 4.6-.1.3-.1 1-.1 1z"/><path id="prefix__path4833_1_" class="prefix__st10" d="M511.5 174.1s1-3.2 2-4.5c1.1-1.5 2.6-3 4.3-3.8 1.8-.9 6-1.2 6-1.2l-2.2 4.1 3.8-.1 2-3.3 3.7 1.7 1.8-3-3.9-2 1.8-2.9-3.9-.4-1.7 2.8s-3 0-4.5.3c-1 .2-2 .6-2.9 1-.9.5-1.7 1.1-2.4 1.7-.9.8-1.7 1.7-2.3 2.7-.6 1-1.3 3.2-1.3 3.2l-.3 3.7z"/><path id="prefix__path4835_1_" class="prefix__st10" d="M534.8 160.7l2.9 1.7 2.7 2.1-5.9 9.1-2.6-2-2.7-1.6 5.6-9.3z"/><path id="prefix__path4837_1_" class="prefix__st10" d="M537.5 162.3l-6.1 8.9"/><path id="prefix__path4841_1_" class="prefix__st10" d="M523.6 198.9l-3.4-7.1-3.7 1.5-1.5-3.7 3.7-1.7-1.9-4.1 2.7-1.2 2 3.9 3.7-1.5 1.6 3.8-3.6 1.5 3.3 7-2.9 1.6z"/><path id="prefix__path4845_1_" class="prefix__st9" d="M499.2 190.1l-3.1.7-4.9.8-2.3.2.4 9.6s.5 6.4 1.5 9.4c.7 2.2 3 6.4 3 6.4l1.5 2.3 8.7-7.5s-1.5-2.1-2-3.3c-.7-1.5-1.5-4.6-1.5-4.6l-.9-5-.5-6.3.1-2.7z"/><path id="prefix__path4847_1_" class="prefix__st10" d="M496.2 196.8l-3.5-.1v4l-3.4.2.6 4.1 3.1-.2s.5 2.4 1 3.6c.5 1.2 1.9 3.3 1.9 3.3l3.7-.9s-1.3-2.1-1.9-3.3c-.5-1-1.1-3.2-1.1-3.2l3.8-.5-.7-3.9-3.5.2v-3.3z"/><path id="prefix__path4894" class="prefix__st7" d="M420.2 173.5s.1-1 0-1.4c-.2-.7-.7-1.4-1.3-2-.5-.4-1.1-.8-1.8-.9-.7-.1-1.4 0-2.1.2-.5.1-1.3.6-1.3.6l-2.9 1.2-1.1 3.4s-.6 1.1-.8 1.7c-.2.6-.3 1.3-.1 2 .2.7.6 1.5 1.2 2 .5.5 1.3.7 2 .8.5 0 1.6-.4 1.6-.4.5-3.7 2-6.4 6.6-7.2z"/><path id="prefix__path4892" class="prefix__st7" d="M413.8 170l-7.4-3.3-.6.6 4.1 7.3s1.1-1.7 1.8-2.4c.6-.7 2.1-2.2 2.1-2.2z"/><path id="prefix__path4890-4" class="prefix__st10" d="M408.6 166.1c0 1.7-1.4 3.1-3.1 3.1s-3.1-1.4-3.1-3.1 1.4-3.1 3.1-3.1 3.1 1.4 3.1 3.1z"/><path id="prefix__path4896" class="prefix__st11" d="M420.1 173.6l19.4 16.6s-1 2.2-1.4 3.3c-.4 1-.7 2.1-1 3.1-.4 1.6-.8 4.8-.8 4.8l-22.6-20.7c.4-4.8 3-6.5 6.4-7.1z"/><path id="prefix__path4900" class="prefix__st7" d="M426.5 179c.7 5.4 1.4 10.7 3.1 16.1l6 5.5c-1.3-5.6-3.5-11.2-3.5-16.8l-5.6-4.8z"/><path id="prefix__path4898-0" class="prefix__st7" d="M435.5 186.7l-16.4-1.2 5.2 4.8 15 .6.2-.8-4-3.4z"/><path id="prefix__path4902" class="prefix__st11" d="M417.4 184l-4.7 5.2 2.9 2.8-4.5 4.4-2.9-2.9-4.9 5.2v6.5l11.2 8.7 3.8-2.9-.2-6.2 3 1.6 3-1.8.2 5.6-2.4-1.8-2.6 3.5-.3 6.2 8.4 7.5 10.2-9-.8-2.7-.4-2.4-.2-4.8.4-5.3-19.2-17.4z"/><path id="prefix__path4904" class="prefix__st11" d="M412.7 189.2l-.1 5.8 3-2.9-2.9-2.9z"/><path id="prefix__path4906-9" class="prefix__st12" d="M403.4 198.6l11.1 9.4 3.6-3.2-2.9-2.4 3.2-3 2.5 2.1 2.8-2.9 3.6 3.5-3.3 2.6 3.1 2.8-2.9 2.7"/><path id="prefix__path4908" d="M419.1 212l8.5 7.1 8.7-7.6" fill="none" stroke="#000" stroke-width=".641" stroke-linejoin="round" stroke-miterlimit="10"/><path id="prefix__path4910" class="prefix__st12" d="M414.3 208l.1 5.9"/><path id="prefix__path4912" class="prefix__st12" d="M418.3 199.5l.1 5.6"/><path id="prefix__path4914" class="prefix__st12" d="M420.9 201.5l.2 5"/><path id="prefix__path4916" class="prefix__st12" d="M423.6 198.7l.1 6.1"/><path id="prefix__path3296" class="prefix__st11" d="M490.8 236l9.3 8.6 2.1 6-12-1.3-6.8-6.8 7.4-6.5z"/><path id="prefix__path4918" class="prefix__st11" d="M448.2 198.2l35.1 31.2-7.3 6.5-31.5-27.3s.7-2.5 1.1-3.7c.6-1.8 1.3-3.5 2-5.3.2-.5.6-1.4.6-1.4z"/><path id="prefix__path4920" class="prefix__st7" d="M455.7 204.8c-4.3 1.6-6 4.3-7.3 7.1-1.2.1-2.4.1-2.8-.8 1-6.7 5.8-8.7 6.9-9.2 2.9-.4 2.3 1.8 3.2 2.9z"/><path id="prefix__path4922" class="prefix__st7" d="M461 209.8c-4.3 1.6-6 4.3-7.3 7.1-1.2.1-2.4.1-2.8-.8 1-6.7 5.8-8.7 6.9-9.2 2.9-.4 2.3 1.8 3.2 2.9z"/><path id="prefix__path4943" class="prefix__st11" d="M546.7 173.3s-.1-1 0-1.4c.2-.7.7-1.4 1.3-2 .5-.4 1.1-.8 1.8-.9.7-.1 1.4 0 2.1.2.5.1 1.3.6 1.3.6l2.9 1.2 1.1 3.4s.6 1.1.8 1.7c.2.6.3 1.3.1 2-.2.7-.6 1.5-1.2 2-.5.5-1.3.7-2 .8-.5 0-1.6-.4-1.6-.4-1.1-4.6-3.2-6.9-6.6-7.2z"/><path id="prefix__path4945" class="prefix__st11" d="M553.1 169.8l7.4-3.3.6.6-4.1 7.3s-1.1-1.7-1.8-2.4c-.6-.8-2.1-2.2-2.1-2.2z"/><path id="prefix__path4947" class="prefix__st14" d="M558.3 165.9c0 1.7 1.4 3.1 3.1 3.1 1.7 0 3.1-1.4 3.1-3.1 0-1.7-1.4-3.1-3.1-3.1-1.8 0-3.1 1.4-3.1 3.1z"/><path id="prefix__path4949" class="prefix__st7" d="M546.7 173.4L527.3 190s1 2.2 1.4 3.3c.4 1 .7 2.1 1 3.1.4 1.6.8 4.8.8 4.8l22.6-20.7c-.6-3.4-1.7-6.6-6.4-7.1z"/><path id="prefix__path4951" class="prefix__st11" d="M540.4 178.8c-.7 5.4-1.4 10.7-3.1 16.1l-6 5.5c1.3-5.6 3.5-11.2 3.5-16.8l5.6-4.8z"/><path id="prefix__path4953" class="prefix__st11" d="M531.4 186.5l16.4-1.2-5.2 4.8-15 .6-.2-.8 4-3.4z"/><path id="prefix__path4955" class="prefix__st7" d="M549.5 183.8l4.7 5.2-2.9 2.8 4.5 4.4 2.9-2.9 4.9 5.2v6.5l-11.2 8.7-3.8-2.9.2-6.2-3 1.6-3-1.8-.2 5.6 2.4-1.8 2.6 3.5.3 6.2-8.4 7.5-10.2-9 .8-2.7.4-2.4.2-4.8-.4-5.3 19.2-17.4z"/><path id="prefix__path4957" class="prefix__st7" d="M554.1 189l.1 5.8-3-2.9 2.9-2.9z"/><path id="prefix__path4959" class="prefix__st12" d="M563.5 198.4l-11.1 9.4-3.6-3.2 2.9-2.4-3.2-3-2.5 2.1-2.8-2.9-3.6 3.5 3.3 2.6-3.1 2.8 2.9 2.7"/><path id="prefix__path4961" class="prefix__st12" d="M547.8 211.8l-8.5 7.1-8.7-7.6"/><path id="prefix__path4963" class="prefix__st12" d="M552.6 207.7l-.1 5.9"/><path id="prefix__path4965" class="prefix__st12" d="M548.6 199.3l-.1 5.6"/><path id="prefix__path4967" class="prefix__st12" d="M546 201.3l-.2 5"/><path id="prefix__path4969" class="prefix__st12" d="M543.2 198.5l-.1 6.1"/><path id="prefix__path4971" class="prefix__st7" d="M518.7 198.1l-52.6 46.5-3.7 4.4 6.6 4.6 5.6-3.5 47.7-41.7s-.7-2.5-1.1-3.7c-.6-1.8-1.3-3.5-2-5.3-.1-.4-.5-1.3-.5-1.3z"/><path id="prefix__path4973" class="prefix__st11" d="M511.2 204.8c4.3 1.6 6 4.3 7.3 7.1 1.2.1 2.4.1 2.8-.8-1-6.7-5.8-8.7-6.9-9.2-2.9-.5-2.3 1.7-3.2 2.9z"/><path id="prefix__path4975" class="prefix__st11" d="M505.9 209.7c4.3 1.6 6 4.3 7.3 7.1 1.2.1 2.4.1 2.8-.8-1-6.7-5.8-8.7-6.9-9.2-2.9-.4-2.3 1.8-3.2 2.9z"/><path id="prefix__path3179" class="prefix__st14" d="M447.3 260.4s-3.8-.8-5 .3c-1 1-.4 4.1-.4 4.1l1.2 4.7 5.3 3.4s4 .5 5.2-.7c1-1.1.5-4.5.5-4.5l-3-4-3.8-3.3z"/><path id="prefix__path3195" class="prefix__st10" d="M450.9 284.2c0 13.8-11.1 24.9-24.9 24.9-13.8 0-24.9-11.1-24.9-24.9 0-13.8 11.1-24.9 24.9-24.9 13.7 0 24.9 11.1 24.9 24.9z"/><path id="prefix__path3210" class="prefix__st9" d="M435.3 285.2c4.3 0 7.8 3.5 7.8 7.8s-3.5 7.8-7.8 7.8-7.8-3.5-7.8-7.8l-2.7-.1c0 4.3-3.5 7.8-7.8 7.8s-7.8-3.5-7.8-7.8 3.5-7.8 7.8-7.8l-.1-1.5c-4.3 0-7.8-3.5-7.8-7.8s3.5-7.8 7.8-7.8 7.8 3.5 7.8 7.8l2.7-.2c0-4.3 3.5-7.8 7.8-7.8s7.8 3.5 7.8 7.8-3.5 7.8-7.8 7.8l.1 1.8z"/><path id="prefix__path3169" class="prefix__st10" d="M466.7 237.3c-5.2 7.3-14 14.1-16.6 17.4-2.7 3.3-4.4 6.4-.5 10.7 3.9 4.2 8.3 1.8 11.7-.5s9.5-9.9 18.2-15.6l-12.8-12z"/><path id="prefix__path3171" class="prefix__st15" d="M468.6 239.2c-.5 1.5-.1 3.2-.7 4.7s-2.7 3.8-2.7 3.8 1.3.2 2 .4c.9.4 2.3.5 2.5 1.5.2.8-.8 1.5-1.4 2.2-.6.6-1.3 1-2 1.4-1.2.7-2.4 1.5-3.7 1.7-1.7.3-4.8-2.1-5.1-.4-.1.7 1.4.3 2.1.6 1.5.7 2.2 2.3.9 3.4-.8.7-2.2.5-3.3.5-1.1.1-2.3-.5-3.2 0-1.1.6-2.4 2.1-1.9 3.2.6 1.1 2.8 1.1 3.8.4.8-.5.6-1.8.7-2.8v-.8"/><path id="prefix__path3177" class="prefix__st15" d="M469.7 249.6l6.8-3"/><path id="prefix__path3181" class="prefix__st14" d="M410.2 264.1c0 1.9-1.5 3.4-3.4 3.4s-3.4-1.5-3.4-3.4 1.5-3.4 3.4-3.4 3.4 1.5 3.4 3.4z"/><path id="prefix__path3181_1_" class="prefix__st14" d="M409 303.4c0 1.9-1.5 3.4-3.4 3.4s-3.4-1.5-3.4-3.4 1.5-3.4 3.4-3.4 3.4 1.5 3.4 3.4z"/><path id="prefix__path3181_2_" class="prefix__st14" d="M447.1 305.6c0 1.9-1.5 3.4-3.4 3.4s-3.4-1.5-3.4-3.4 1.5-3.4 3.4-3.4 3.4 1.5 3.4 3.4z"/><path id="prefix__path3187" class="prefix__st10" d="M428.8 277.6c0 1.5-1.3 2.8-2.8 2.8s-2.8-1.3-2.8-2.8c0-1.5 1.3-2.8 2.8-2.8s2.8 1.3 2.8 2.8z"/><path id="prefix__path3187_1_" class="prefix__st10" d="M422.1 284.2c0 1.5-1.3 2.8-2.8 2.8-1.5 0-2.8-1.3-2.8-2.8s1.3-2.8 2.8-2.8c1.5 0 2.8 1.2 2.8 2.8z"/><path id="prefix__path3187_2_" class="prefix__st10" d="M428.7 290.2c0 1.5-1.3 2.8-2.8 2.8-1.5 0-2.8-1.3-2.8-2.8s1.3-2.8 2.8-2.8 2.8 1.2 2.8 2.8z"/><path id="prefix__path3187_3_" class="prefix__st10" d="M435.5 284.2c0 1.5-1.3 2.8-2.8 2.8s-2.8-1.3-2.8-2.8 1.3-2.8 2.8-2.8 2.8 1.2 2.8 2.8z"/><path id="prefix__path3197" class="prefix__st9" d="M425.6 269c1-2.1 2.4-3.1 4.2-4.2-2.5-1.1-5.6-.9-8.4 0 1.8.9 3.1 2.3 4.2 4.2z"/><path id="prefix__path3197_1_" class="prefix__st9" d="M410.6 284.5c-2.1-1-3.1-2.4-4.2-4.2-1.1 2.5-.9 5.6 0 8.4.8-1.8 2.3-3.1 4.2-4.2z"/><path id="prefix__path3197_2_" class="prefix__st9" d="M441.1 283.8c2.1-1 3.1-2.4 4.2-4.2 1.1 2.5.9 5.6 0 8.4-.9-1.8-2.3-3.1-4.2-4.2z"/><path id="prefix__path3197_3_" class="prefix__st9" d="M426.4 299.2c1 2.1 2.4 3.1 4.2 4.2-2.5 1.1-5.6.9-8.4 0 1.8-.9 3.1-2.3 4.2-4.2z"/><path id="prefix__path3235" class="prefix__st7" d="M518.1 260.4s3.8-.8 5 .3c1 1 .4 4.1.4 4.1l-1.2 4.7-5.3 3.4s-4 .5-5.2-.7c-1-1.1-.5-4.5-.5-4.5l3-4 3.8-3.3z"/><path id="prefix__path3237" class="prefix__st14" d="M514.5 284.2c0 13.8 11.1 24.9 24.9 24.9 13.8 0 24.9-11.1 24.9-24.9 0-13.8-11.1-24.9-24.9-24.9-13.7 0-24.9 11.1-24.9 24.9z"/><path id="prefix__path3239-4" class="prefix__st8" d="M530.1 285.2c-4.3 0-7.8 3.5-7.8 7.8s3.5 7.8 7.8 7.8 7.8-3.5 7.8-7.8l2.7-.1c0 4.3 3.5 7.8 7.8 7.8s7.8-3.5 7.8-7.8-3.5-7.8-7.8-7.8l.1-1.5c4.3 0 7.8-3.5 7.8-7.8s-3.5-7.8-7.8-7.8-7.8 3.5-7.8 7.8l-2.7-.2c0-4.3-3.5-7.8-7.8-7.8s-7.8 3.5-7.8 7.8 3.5 7.8 7.8 7.8l-.1 1.8z"/><path id="prefix__path3241-8" class="prefix__st11" d="M498.7 237.3c5.2 7.3 14 14.1 16.6 17.4 2.7 3.3 4.4 6.4.5 10.7-3.9 4.2-8.3 1.8-11.7-.5-3.5-2.3-9.5-9.9-18.2-15.6l12.8-12z"/><path id="prefix__path3243" class="prefix__st12" d="M496.8 239.2c.5 1.5.1 3.2.7 4.7s2.7 3.8 2.7 3.8-1.3.2-2 .4c-.9.4-2.3.5-2.5 1.5-.2.8.8 1.5 1.4 2.2.6.6 1.3 1 2 1.4 1.2.7 2.4 1.5 3.7 1.7 1.7.3 4.8-2.1 5.1-.4.1.7-1.4.3-2.1.6-1.5.7-2.2 2.3-.9 3.4.8.7 2.2.5 3.3.5 1.1.1 2.3-.5 3.2 0 1.1.6 2.4 2.1 1.9 3.2-.6 1.1-2.8 1.1-3.8.4-.8-.5-.6-1.8-.7-2.8v-.8"/><path id="prefix__path3245-8" class="prefix__st12" d="M495.7 249.6l-6.8-3"/><path id="prefix__path3247-2" class="prefix__st10" d="M555.2 264.1c0 1.9 1.5 3.4 3.4 3.4s3.4-1.5 3.4-3.4-1.5-3.4-3.4-3.4-3.4 1.5-3.4 3.4z"/><path id="prefix__use3249" class="prefix__st10" d="M556.4 303.4c0 1.9 1.5 3.4 3.4 3.4s3.4-1.5 3.4-3.4-1.5-3.4-3.4-3.4-3.4 1.5-3.4 3.4z"/><path id="prefix__use3251" class="prefix__st10" d="M518.3 305.6c0 1.9 1.5 3.4 3.4 3.4s3.4-1.5 3.4-3.4-1.5-3.4-3.4-3.4-3.4 1.5-3.4 3.4z"/><path id="prefix__path3253-4" class="prefix__st14" d="M536.6 277.6c0 1.5 1.3 2.8 2.8 2.8 1.5 0 2.8-1.3 2.8-2.8 0-1.5-1.3-2.8-2.8-2.8-1.5 0-2.8 1.3-2.8 2.8z"/><path id="prefix__use3255" class="prefix__st14" d="M543.3 284.2c0 1.5 1.3 2.8 2.8 2.8 1.5 0 2.8-1.3 2.8-2.8 0-1.5-1.3-2.8-2.8-2.8-1.5 0-2.8 1.2-2.8 2.8z"/><path id="prefix__use3257" class="prefix__st14" d="M536.8 290.2c0 1.5 1.3 2.8 2.8 2.8 1.5 0 2.8-1.3 2.8-2.8 0-1.5-1.3-2.8-2.8-2.8-1.6-.1-2.8 1.2-2.8 2.8 0-.1 0-.1 0 0z"/><path id="prefix__use3259" class="prefix__st14" d="M529.9 284.2c0 1.5 1.3 2.8 2.8 2.8 1.5 0 2.8-1.3 2.8-2.8 0-1.5-1.3-2.8-2.8-2.8-1.6 0-2.8 1.2-2.8 2.8z"/><path id="prefix__path3261-5" class="prefix__st8" d="M539.8 269c-1-2.1-2.4-3.1-4.2-4.2 2.5-1.1 5.6-.9 8.4 0-1.8.9-3.1 2.3-4.2 4.2z"/><path id="prefix__path3197_4_" class="prefix__st9" d="M554.9 284.5c2.1-1 3.1-2.4 4.2-4.2 1.1 2.5.9 5.6 0 8.4-.9-1.8-2.3-3.1-4.2-4.2z"/><path id="prefix__path3197_5_" class="prefix__st9" d="M524.3 283.8c-2.1-1-3.1-2.4-4.2-4.2-1.1 2.5-.9 5.6 0 8.4.9-1.8 2.3-3.1 4.2-4.2z"/><path id="prefix__path3197_6_" class="prefix__st9" d="M539 299.2c-1 2.1-2.4 3.1-4.2 4.2 2.5 1.1 5.6.9 8.4 0-1.8-.9-3.1-2.3-4.2-4.2z"/><path id="prefix__path3667" class="prefix__st16" d="M474.3 358.3c3.7 2.3 7.2 2.1 10.4.1l-7.7-8.1"/><path id="prefix__path3669" class="prefix__st16" d="M480.9 354.9c3.8 1.1 6.1 1 9.3.1l-3.3-5.4"/><path id="prefix__path3655" class="prefix__st7" d="M488.3 341l-6.1-1.6s.1-6.8 3.9-6.2c3.2.6 2.3 7.8 2.2 7.8z"/><path id="prefix__path3659" class="prefix__st16" d="M490.1 354.9c-2-1.6-7-1.1-9.2-.1-.9 0-3.2-16 4.9-15.6 7.5.5 4.8 15.8 4.3 15.7z"/><path id="prefix__path3582" class="prefix__st16" d="M486.8 308.9c-.6.7.2 2.2 1 2.8.8.7 2.5 1.2 3 .5.6-.8-.3-2.3-1.1-3-.9-.7-2.4-1.1-2.9-.3z"/><path id="prefix__path3579-5" class="prefix__st16" d="M483.3 309.3c-.6.7.2 2.2 1 2.8.8.7 2.5 1.2 3 .5.6-.8-.3-2.3-1.1-3-.9-.6-2.4-1-2.9-.3z"/><path id="prefix__path3577-1" class="prefix__st16" d="M480.6 308.8c-.8.5-.6 2.1-.1 3 .5.9 1.9 2 2.7 1.5.8-.5.5-2.2 0-3.2-.5-.9-1.8-1.8-2.6-1.3z"/><path id="prefix__path3575" class="prefix__st16" d="M477.1 308.3c-.8.5-.6 2.1-.1 3 .5.9 1.9 2 2.7 1.5.8-.5.5-2.2 0-3.2-.6-.9-1.8-1.8-2.6-1.3z"/><path id="prefix__path3380" class="prefix__st16" d="M484.6 225.7c0 1-.9 1.4-2.5 1.4-1.7 0-2.5-.5-2.5-1.5s.8-1.3 2.5-1.3c1.7.1 2.5.4 2.5 1.4z"/><path id="prefix__path3383" class="prefix__st16" d="M485.9 228.5c0 1-.9 1.4-2.5 1.4-1.7 0-2.5-.5-2.5-1.5s.8-1.3 2.5-1.3c1.6 0 2.5.4 2.5 1.4z"/><path id="prefix__path3385" class="prefix__st16" d="M486.2 232.1c-.3 1-1.3 1.1-2.9.5-1.6-.6-2.2-1.3-1.8-2.2.3-1 1.2-1 2.7-.4 1.6.5 2.3 1.1 2 2.1z"/><path id="prefix__path3387" class="prefix__st16" d="M486.2 234.7c-.2 1-1.1 1.2-2.8.9-1.6-.3-2.3-1-2.1-2 .2-1 1-1.1 2.7-.8 1.7.4 2.4.9 2.2 1.9z"/><path id="prefix__path3389" class="prefix__st16" d="M487 237.8c-.2 1-1.1 1.2-2.8.9-1.6-.3-2.3-1-2.1-2 .2-1 1-1.1 2.7-.8 1.6.4 2.4.9 2.2 1.9z"/><path id="prefix__path3391" class="prefix__st16" d="M495.2 234.4c-.5-.1-.4-1-.3-1.5.2-.8 1.6-1.7 1.6-1.7s.3 1.1.2 1.6c-.3.6-.8 1.8-1.5 1.6z"/><path id="prefix__path3393" class="prefix__st16" d="M493.4 236c-.5-.1-.6-1.1-.5-1.6.2-.8 1.9-1.8 1.9-1.8s.3 1.2.1 1.7c-.3.7-.8 1.8-1.5 1.7z"/><path id="prefix__path3395" class="prefix__st16" d="M490.8 238.1c-.8-.2-.7-1.7-.5-2.5.2-.7.7-1.8 1.4-1.6.8.2.8 1.6.6 2.4-.2.7-.7 1.9-1.5 1.7z"/><path id="prefix__path3397" class="prefix__st16" d="M488.4 240.4c-.8-.2-1.2-1.5-1-2.3.2-.9 1-2 1.9-1.8.9.2 1.2 1.6.9 2.5-.2.8-1 1.8-1.8 1.6z"/><path id="prefix__path3399" class="prefix__st16" d="M496.2 240.2c-.6.5-1.9.1-2.4-.6-.6-.6-1-2-.3-2.6.7-.6 2 0 2.5.7s.8 1.9.2 2.5z"/><path id="prefix__path3401" class="prefix__st16" d="M494.8 242.6c-.6.5-1.9.1-2.4-.6-.6-.6-1-2-.3-2.6.7-.6 2 0 2.5.7s.8 2 .2 2.5z"/><path id="prefix__path3403" class="prefix__st16" d="M492.4 244.7c-.6.5-1.9.1-2.4-.6-.6-.6-1-2-.3-2.6.7-.6 2 0 2.5.7s.8 1.9.2 2.5z"/><path id="prefix__path3405" class="prefix__st16" d="M491.5 246c-.2.8-1.5 1.1-2.3.9-.8-.2-1.9-1.1-1.7-2 .2-.8 1.7-1.1 2.5-.8.8.2 1.8 1.1 1.5 1.9z"/><path id="prefix__path3407" class="prefix__st16" d="M488 241.8c-.2 1-1.4 1.3-2.2 1.1-.8-.3-1.8-1.4-1.6-2.4.2-1 1.6-1.3 2.4-1 .6.3 1.6 1.4 1.4 2.3z"/><path id="prefix__path3409" class="prefix__st16" d="M476.5 234.1c1 .2 1 1.4.5 2.1-.5.8-2.1 1.7-3.1 1.5-1.1-.2-.9-1.5-.3-2.2.4-.8 1.9-1.6 2.9-1.4z"/><path id="prefix__path3411" class="prefix__st16" d="M471.6 232.4s1 .5 1.4.9c.4.5 1 .6.7 1.3-.3.7-1.1.5-1.6 0-.3-.5-.5-2.2-.5-2.2z"/><path id="prefix__path3413" class="prefix__st16" d="M479.8 236.3c.9.4.7 1.5 0 2.1-.7.6-2.4 1.2-3.4.8-1-.4-.6-1.7.2-2.3.7-.5 2.3-1 3.2-.6z"/><path id="prefix__path3415" class="prefix__st16" d="M482.5 238.3c.9.4.7 1.5 0 2.1-.7.6-2.4 1.2-3.4.8-1-.4-.6-1.7.2-2.3.7-.5 2.3-1 3.2-.6z"/><path id="prefix__path3417" class="prefix__st16" d="M483.4 240.1c.9.1 1.2 1.4.9 2.2-.3.9-1.4 2-2.4 1.9-1-.2-1.1-1.6-.8-2.4.3-.8 1.4-1.8 2.3-1.7z"/><path id="prefix__path3419" class="prefix__st16" d="M469.2 235.3c.8-.1 1.4 1.1 1.4 2 0 .9-.6 2.4-1.5 2.5-.9.1-1.4-1.3-1.4-2.2.1-.9.7-2.2 1.5-2.3z"/><path id="prefix__path3421" class="prefix__st16" d="M471.9 237.6c.8.2 1 1.5.7 2.4-.3.9-1.3 2.1-2.2 1.9-.8-.2-.9-1.7-.6-2.5.3-.9 1.3-1.9 2.1-1.8z"/><path id="prefix__path3423" class="prefix__st16" d="M474.4 239.3c.9.2 1.1 1.9.8 2.9-.3 1.1-1.6 2.6-2.6 2.3-1-.2-1.1-2.1-.7-3.1.4-1 1.6-2.3 2.5-2.1z"/><path id="prefix__path3425" class="prefix__st16" d="M476.4 241.3c1-.1 1.7 1.4 1.8 2.5.1 1.1-.6 3-1.6 3.1-1 .1-1.8-1.5-1.8-2.7 0-1.1.6-2.8 1.6-2.9z"/><path id="prefix__path3427" class="prefix__st16" d="M478.8 243c.9-.1 1.6 1.1 1.6 2 .1 1-.5 2.5-1.4 2.6-.9.1-1.6-1.3-1.6-2.2-.1-.9.5-2.3 1.4-2.4z"/><path id="prefix__path3521" class="prefix__st16" d="M477.4 252.1c-.7.6-.1 2.2.5 2.9.7.8 2.3 1.6 2.9.9.7-.7.1-2.3-.7-3.1-.6-.7-2.1-1.3-2.7-.7z"/><path id="prefix__path3519" class="prefix__st16" d="M479 249.9c-.7.6-.1 2.2.5 2.9.7.8 2.3 1.6 2.9.9.7-.7.1-2.3-.7-3.1-.6-.7-2-1.3-2.7-.7z"/><path id="prefix__path3523" class="prefix__st16" d="M476 254.7c-.7.6-.1 2.2.5 2.9.7.8 2.3 1.6 2.9.9.7-.7.1-2.3-.7-3.1-.6-.7-2.1-1.3-2.7-.7z"/><path id="prefix__path3429" class="prefix__st16" d="M481.2 245c.9-.1 1.6 1.1 1.6 2 .1 1-.5 2.5-1.4 2.6-.9.1-1.6-1.3-1.6-2.2 0-.9.6-2.3 1.4-2.4z"/><path id="prefix__path3431" class="prefix__st16" d="M485.8 242.9c.8.4.6 1.8.1 2.6s-1.9 1.7-2.7 1.2c-.8-.5-.5-2 0-2.8.5-.7 1.8-1.4 2.6-1z"/><path id="prefix__path3433" class="prefix__st16" d="M484.7 247.2c.8.4.6 1.8.1 2.6s-1.9 1.7-2.7 1.2c-.8-.5-.5-2 0-2.8.6-.7 1.9-1.4 2.6-1z"/><path id="prefix__path3435" class="prefix__st16" d="M488.1 245.4c.7.5.5 2 .1 2.9-.5.9-1.7 1.8-2.5 1.3-.7-.5-.5-2.2 0-3 .5-.9 1.7-1.7 2.4-1.2z"/><path id="prefix__path3437" class="prefix__st16" d="M487.1 250.2c.5.7-.3 2.1-1 2.7-.8.6-2.3 1-2.8.3-.5-.8.4-2.2 1.2-2.8.8-.6 2.2-.9 2.6-.2z"/><path id="prefix__path3439-7" class="prefix__st16" d="M487.7 253.3c.5.7-.3 2.1-1 2.7-.8.6-2.3 1-2.8.3-.5-.8.4-2.2 1.2-2.8.7-.6 2.1-.9 2.6-.2z"/><path id="prefix__path3441" class="prefix__st16" d="M487.6 256.8c.5.7-.3 2.1-1 2.7-.8.6-2.3 1-2.8.3-.5-.8.4-2.2 1.2-2.8.7-.6 2.1-.9 2.6-.2z"/><path id="prefix__path3443-1" class="prefix__st16" d="M487.6 260.3c.5.7-.3 2.1-1 2.7-.8.6-2.3 1-2.8.3-.5-.8.4-2.2 1.2-2.8.7-.6 2.1-.9 2.6-.2z"/><path id="prefix__path3445-1" class="prefix__st16" d="M487.5 263.5c.5.7-.3 2.1-1 2.7-.8.6-2.3 1-2.8.3-.5-.8.4-2.2 1.2-2.8.7-.6 2.1-.9 2.6-.2z"/><path id="prefix__path3447-5" class="prefix__st16" d="M487.7 266.9c.5.7-.3 2.1-1 2.7-.8.6-2.3 1-2.8.3-.5-.8.4-2.2 1.2-2.8.7-.6 2.1-.9 2.6-.2z"/><path id="prefix__path3449-2" class="prefix__st16" d="M487.4 270.3c.5.7-.3 2.1-1 2.7-.8.6-2.3 1-2.8.3-.5-.8.4-2.2 1.2-2.8.8-.6 2.2-.9 2.6-.2z"/><path id="prefix__path3451-7" class="prefix__st16" d="M487.3 273.8c.5.7-.3 2.2-1.1 2.8-.9.7-2.5 1.1-3.1.3-.5-.8.4-2.3 1.3-2.9.9-.6 2.4-.9 2.9-.2z"/><path id="prefix__path3453-6" class="prefix__st16" d="M487.1 277.2c.7.6.1 2.2-.5 2.9-.7.8-2.3 1.6-2.9.9-.7-.7-.1-2.3.7-3.1.6-.7 2.1-1.3 2.7-.7z"/><path id="prefix__path3455" class="prefix__st16" d="M487.2 281.1c.7.6.1 2.2-.5 2.9-.7.8-2.3 1.6-2.9.9-.7-.7-.1-2.3.7-3.1.6-.7 2.1-1.3 2.7-.7z"/><path id="prefix__path3457" class="prefix__st16" d="M487.3 284.9c.7.6.1 2.2-.5 2.9-.7.8-2.3 1.6-2.9.9-.7-.7-.1-2.3.7-3.1.6-.7 2-1.3 2.7-.7z"/><path id="prefix__path3459-1" class="prefix__st16" d="M487.2 289.1c.7.6.1 2.2-.5 2.9-.7.8-2.3 1.6-2.9.9-.7-.7-.1-2.3.7-3.1.6-.7 2-1.3 2.7-.7z"/><path id="prefix__path3461" class="prefix__st16" d="M487.3 292.9c.7.6.1 2.2-.5 2.9-.7.8-2.3 1.6-2.9.9-.7-.7-.1-2.3.7-3.1.6-.6 2-1.3 2.7-.7z"/><path id="prefix__path3463" class="prefix__st16" d="M487.2 296.9c.7.6.1 2.2-.5 2.9-.7.8-2.3 1.6-2.9.9-.7-.7-.1-2.3.7-3.1.6-.7 2-1.3 2.7-.7z"/><path id="prefix__path3465" class="prefix__st16" d="M487.2 300.8c.7.6.1 2.2-.5 2.9-.7.8-2.3 1.6-2.9.9-.7-.7-.1-2.3.7-3.1.6-.7 2.1-1.3 2.7-.7z"/><path id="prefix__path3467" class="prefix__st16" d="M487.2 304.8c.7.6.1 2.2-.5 2.9-.7.8-2.3 1.6-2.9.9-.7-.7-.1-2.3.7-3.1.6-.7 2.1-1.4 2.7-.7z"/><path id="prefix__path3469-4" class="prefix__st16" d="M487.1 308.7c.7.6.1 2.2-.5 2.9-.7.8-2.3 1.6-2.9.9-.7-.7-.1-2.3.7-3.1.6-.7 2-1.3 2.7-.7z"/><path id="prefix__path3471-2" class="prefix__st16" d="M487.3 312.4c.7.6.1 2.2-.5 2.9-.7.8-2.3 1.6-2.9.9-.7-.7-.1-2.3.7-3.1.6-.7 2-1.4 2.7-.7z"/><path id="prefix__path3473" class="prefix__st16" d="M487.3 316.2c.7.6.1 2.2-.5 2.9-.7.8-2.3 1.6-2.9.9-.7-.7-.1-2.3.7-3.1.6-.7 2-1.4 2.7-.7z"/><path id="prefix__path3475-3" class="prefix__st16" d="M487.2 320.2c.7.6.1 2.2-.5 2.9-.7.8-2.3 1.6-2.9.9-.7-.7-.1-2.3.7-3.1.6-.6 2-1.3 2.7-.7z"/><path id="prefix__path3477-2" class="prefix__st16" d="M487.2 324.3c.7.6.1 2.2-.5 2.9-.7.8-2.3 1.6-2.9.9-.7-.7-.1-2.3.7-3.1.6-.7 2-1.3 2.7-.7z"/><path id="prefix__path3479" class="prefix__st16" d="M477.6 327.2c-.7.6-.1 2.2.5 2.9.7.8 2.3 1.6 2.9.9.7-.7.1-2.3-.7-3.1-.6-.7-2-1.3-2.7-.7z"/><path id="prefix__path3481" class="prefix__st16" d="M477.7 322.9c-.7.6-.1 2.2.5 2.9.7.8 2.3 1.6 2.9.9.7-.7.1-2.3-.7-3.1-.6-.7-2-1.3-2.7-.7z"/><path id="prefix__path3483" class="prefix__st16" d="M477.7 319.1c-.7.6-.1 2.2.5 2.9.7.8 2.3 1.6 2.9.9.7-.7.1-2.3-.7-3.1-.6-.7-2-1.3-2.7-.7z"/><path id="prefix__path3485-2" class="prefix__st16" d="M477.7 315c-.7.6-.1 2.2.5 2.9.7.8 2.3 1.6 2.9.9.7-.7.1-2.3-.7-3.1-.6-.7-2-1.3-2.7-.7z"/><path id="prefix__path3487" class="prefix__st16" d="M477.9 310.7c-.7.6-.1 2.2.5 2.9.7.8 2.3 1.6 2.9.9.7-.7.1-2.3-.7-3.1-.7-.7-2.1-1.4-2.7-.7z"/><path id="prefix__path3489-1" class="prefix__st16" d="M477.9 306.5c-.7.6-.1 2.2.5 2.9.7.8 2.3 1.6 2.9.9.7-.7.1-2.3-.7-3.1-.7-.7-2.1-1.4-2.7-.7z"/><path id="prefix__path3491-6" class="prefix__st16" d="M478.1 302.6c-.7.6-.1 2.2.5 2.9.7.8 2.3 1.6 2.9.9.7-.7.1-2.3-.7-3.1-.6-.7-2.1-1.3-2.7-.7z"/><path id="prefix__path3493-8" class="prefix__st16" d="M478.2 298.8c-.7.6-.1 2.2.5 2.9.7.8 2.3 1.6 2.9.9.7-.7.1-2.3-.7-3.1-.6-.7-2.1-1.3-2.7-.7z"/><path id="prefix__path3495-5" class="prefix__st16" d="M478.2 295c-.7.6-.1 2.2.5 2.9.7.8 2.3 1.6 2.9.9.7-.7.1-2.3-.7-3.1-.6-.7-2.1-1.3-2.7-.7z"/><path id="prefix__path3497-7" class="prefix__st16" d="M478.1 291.1c-.7.6-.1 2.2.5 2.9.7.8 2.3 1.6 2.9.9.7-.7.1-2.3-.7-3.1-.6-.7-2.1-1.3-2.7-.7z"/><path id="prefix__path3499-6" class="prefix__st16" d="M478 287.4c-.7.6-.1 2.2.5 2.9.7.8 2.3 1.6 2.9.9.7-.7.1-2.3-.7-3.1-.6-.7-2-1.3-2.7-.7z"/><path id="prefix__path3501-1" class="prefix__st16" d="M478.3 283.5c-.7.6-.1 2.2.5 2.9.7.8 2.3 1.6 2.9.9.7-.7.1-2.3-.7-3.1-.6-.7-2.1-1.3-2.7-.7z"/><path id="prefix__path3503-8" class="prefix__st16" d="M478.3 279.6c-.7.6-.1 2.2.5 2.9.7.8 2.3 1.6 2.9.9.7-.7.1-2.3-.7-3.1-.6-.7-2.1-1.3-2.7-.7z"/><path id="prefix__path3505-9" class="prefix__st16" d="M477.8 276.3c-.7.6-.1 2.2.5 2.9.7.8 2.3 1.6 2.9.9.7-.7.1-2.3-.7-3.1-.6-.6-2.1-1.3-2.7-.7z"/><path id="prefix__path3507-2" class="prefix__st16" d="M478.3 273c-.7.6-.1 2.2.5 2.9.7.8 2.3 1.6 2.9.9.7-.7.1-2.3-.7-3.1-.6-.7-2.1-1.3-2.7-.7z"/><path id="prefix__path3509-7" class="prefix__st16" d="M477.8 268.9c-.7.6-.1 2.2.5 2.9.7.8 2.3 1.6 2.9.9.7-.7.1-2.3-.7-3.1-.6-.7-2.1-1.3-2.7-.7z"/><path id="prefix__path3511-9" class="prefix__st16" d="M478.4 265.2c-.7.6-.1 2.2.5 2.9.7.8 2.3 1.6 2.9.9.7-.7.1-2.3-.7-3.1-.6-.7-2-1.3-2.7-.7z"/><path id="prefix__path3513" class="prefix__st16" d="M478.3 261.3c-.7.6-.1 2.2.5 2.9.7.8 2.3 1.6 2.9.9.7-.7.1-2.3-.7-3.1-.6-.7-2.1-1.3-2.7-.7z"/><path id="prefix__path3515-5" class="prefix__st16" d="M478.2 257.2c-.7.6-.1 2.2.5 2.9.7.8 2.3 1.6 2.9.9.7-.7.1-2.3-.7-3.1-.6-.7-2.1-1.3-2.7-.7z"/><path id="prefix__path3517" class="prefix__st16" d="M478.3 253.3c-.7.6-.1 2.2.5 2.9.7.8 2.3 1.6 2.9.9.7-.7.1-2.3-.7-3.1-.6-.7-2.1-1.3-2.7-.7z"/><path id="prefix__path3525" class="prefix__st16" d="M475.4 257.2c-.8.3-.9 2-.6 2.9.4 1 1.5 2.3 2.4 1.9.9-.4.9-2.1.5-3.1-.4-.9-1.5-2-2.3-1.7z"/><path id="prefix__path3527-4" class="prefix__st16" d="M473.3 260c-.8.3-.9 2-.6 2.9.4 1 1.5 2.3 2.4 1.9.9-.4.9-2.1.5-3.1-.3-.9-1.4-2-2.3-1.7z"/><path id="prefix__path3529-3" class="prefix__st16" d="M471.9 263.2c-.9.2-1.2 1.8-1 2.8.2 1.1 1.1 2.5 2.1 2.3.9-.2 1.2-2 1-3-.3-1-1.3-2.3-2.1-2.1z"/><path id="prefix__path3531-1" class="prefix__st16" d="M469.9 266.3c-.9.2-1.2 1.8-1 2.8.2 1.1 1.1 2.5 2.1 2.3.9-.2 1.2-2 1-3-.3-1-1.2-2.3-2.1-2.1z"/><path id="prefix__path3533-2" class="prefix__st16" d="M468.3 269.4c-.9 0-1.5 1.5-1.5 2.5 0 1.1.7 2.7 1.6 2.6 1 0 1.6-1.7 1.5-2.8 0-.9-.7-2.3-1.6-2.3z"/><path id="prefix__path3535-3" class="prefix__st16" d="M466.3 273.1c-.9 0-1.5 1.5-1.5 2.5 0 1.1.7 2.7 1.6 2.6 1 0 1.6-1.7 1.5-2.8 0-.9-.7-2.3-1.6-2.3z"/><path id="prefix__path3537" class="prefix__st16" d="M464 276.5c-.9 0-1.5 1.5-1.5 2.5 0 1.1.7 2.7 1.6 2.6 1 0 1.6-1.7 1.5-2.8 0-.9-.7-2.3-1.6-2.3z"/><path id="prefix__path3539-3" class="prefix__st16" d="M461.6 279.5c-.9 0-1.5 1.5-1.5 2.5 0 1.1.7 2.7 1.6 2.6 1 0 1.6-1.7 1.5-2.8 0-.9-.7-2.4-1.6-2.3z"/><path id="prefix__path3541" class="prefix__st16" d="M459.1 282.2c-.9 0-1.5 1.5-1.5 2.5 0 1.1.7 2.7 1.6 2.6 1 0 1.6-1.7 1.5-2.8 0-.9-.7-2.3-1.6-2.3z"/><path id="prefix__path3543" class="prefix__st16" d="M456.4 284.4c-.9 0-1.5 1.5-1.5 2.5 0 1.1.7 2.7 1.6 2.6 1 0 1.6-1.7 1.5-2.8 0-.9-.7-2.3-1.6-2.3z"/><path id="prefix__path3545" class="prefix__st16" d="M453.8 286.8c-.9 0-1.5 1.5-1.5 2.5 0 1.1.7 2.7 1.6 2.6 1 0 1.6-1.7 1.5-2.8-.1-.9-.7-2.3-1.6-2.3z"/><path id="prefix__path3547-4" class="prefix__st16" d="M450.8 288l-1 4s.6 1.4 1.2 1.3c1.1-.1 1.3-1.7 1.5-2.8.1-1.6-1.7-2.5-1.7-2.5z"/><path id="prefix__path3549-1" class="prefix__st16" d="M442.2 291.4c-.8-.4-2.1.6-2.6 1.5s-.7 2.6.1 3.1c.8.4 2.2-.7 2.7-1.7s.6-2.5-.2-2.9z"/><path id="prefix__path3551-1" class="prefix__st16" d="M441 294.6c-.8-.3-2 .8-2.4 1.8-.4 1-.4 2.7.5 3 .9.3 2.1-1 2.5-2 .4-.9.3-2.5-.6-2.8z"/><path id="prefix__path3553-3" class="prefix__st16" d="M442.1 297.6c-.9-.2-1.9 1-2.2 2-.3 1-.1 2.7.8 3 .9.2 2-1.2 2.3-2.2.2-1 0-2.6-.9-2.8z"/><path id="prefix__path3555-8" class="prefix__st16" d="M444.9 298.8c-.9-.3-1.9 1-2.3 1.9-.3 1-.2 2.7.7 3 .9.3 2-1.1 2.3-2.1.4-1 .2-2.5-.7-2.8z"/><path id="prefix__path3557-7" class="prefix__st16" d="M446.8 299.3c-.9.2-1.2 1.8-1 2.8.2 1.1 1.2 2.5 2.1 2.2.9-.2 1.2-2 .9-3-.2-1-1.2-2.2-2-2z"/><path id="prefix__path3559-4" class="prefix__st16" d="M450 300.5c-.9.2-1.2 1.8-1 2.8.2 1.1 1.2 2.5 2.1 2.2.9-.2 1.2-2 .9-3-.2-1-1.2-2.2-2-2z"/><path id="prefix__path3561-2" class="prefix__st16" d="M452.5 302.5c-.8.5-.6 2.1-.1 3 .5.9 1.9 2 2.7 1.5.8-.5.5-2.2 0-3.2-.6-.8-1.9-1.8-2.6-1.3z"/><path id="prefix__path3563" class="prefix__st16" d="M456.1 304c-.8.5-.6 2.1-.1 3 .5.9 1.9 2 2.7 1.5.8-.5.5-2.2 0-3.2-.6-.9-1.8-1.8-2.6-1.3z"/><path id="prefix__path3565" class="prefix__st16" d="M459.6 304.5c-.8.5-.6 2.1-.1 3 .5.9 1.9 2 2.7 1.5.8-.5.5-2.2 0-3.2-.6-.8-1.9-1.7-2.6-1.3z"/><path id="prefix__path3567" class="prefix__st16" d="M463.4 305.5c-.8.5-.6 2.1-.1 3 .5.9 1.9 2 2.7 1.5.8-.5.5-2.2 0-3.2-.6-.9-1.9-1.8-2.6-1.3z"/><path id="prefix__path3569" class="prefix__st16" d="M466.8 306c-.8.5-.6 2.1-.1 3 .5.9 1.9 2 2.7 1.5.8-.5.5-2.2 0-3.2-.5-.9-1.8-1.8-2.6-1.3z"/><path id="prefix__path3571" class="prefix__st16" d="M470.2 306.7c-.8.5-.6 2.1-.1 3 .5.9 1.9 2 2.7 1.5.8-.5.5-2.2 0-3.2-.6-.9-1.9-1.8-2.6-1.3z"/><path id="prefix__path3573" class="prefix__st16" d="M473.7 307.6c-.8.5-.6 2.1-.1 3 .5.9 1.9 2 2.7 1.5.8-.5.5-2.2 0-3.2-.6-.8-1.9-1.7-2.6-1.3z"/><path id="prefix__path3584" class="prefix__st16" d="M490.3 308.1c-.6.7.2 2.2 1 2.8.8.7 2.5 1.2 3 .5.6-.8-.3-2.3-1.1-3-.8-.6-2.3-1-2.9-.3z"/><path id="prefix__path3586" class="prefix__st16" d="M493.7 307.9c-.4.8.5 2.1 1.4 2.6.9.6 2.6.8 3.1 0s-.6-2.2-1.6-2.8c-.9-.4-2.5-.5-2.9.2z"/><path id="prefix__path3588" class="prefix__st16" d="M497.5 307.3c-.4.8.5 2.1 1.4 2.6.9.6 2.6.8 3.1 0s-.6-2.2-1.6-2.8c-.9-.4-2.5-.6-2.9.2z"/><path id="prefix__path3590" class="prefix__st16" d="M500.8 306.3c-.4.8.7 2.1 1.6 2.5 1 .5 2.7.6 3.1-.3.4-.9-.8-2.2-1.8-2.6-.9-.4-2.5-.4-2.9.4z"/><path id="prefix__path3592" class="prefix__st16" d="M504.5 305.2c-.4.8.7 2.1 1.6 2.5 1 .5 2.7.6 3.1-.3.4-.9-.8-2.2-1.8-2.6-1-.3-2.6-.4-2.9.4z"/><path id="prefix__path3594" class="prefix__st16" d="M508.1 304.1c-.3.8.8 2 1.8 2.4 1 .4 2.7.4 3-.5.3-.9-1-2.1-2-2.5-.9-.3-2.5-.2-2.8.6z"/><path id="prefix__path3596" class="prefix__st16" d="M511.8 302.9c-.3.8.8 2 1.8 2.4 1 .4 2.7.4 3-.5.3-.9-1-2.1-2-2.5-1-.3-2.5-.2-2.8.6z"/><path id="prefix__path3598" class="prefix__st16" d="M515.3 301.4c-.3.8.8 2 1.8 2.4 1 .4 2.7.4 3-.5.3-.9-1-2.1-2-2.5-.9-.3-2.5-.2-2.8.6z"/><path id="prefix__path3600" class="prefix__st16" d="M519.1 299.9c-.3.8.8 2 1.8 2.4 1 .4 2.7.4 3-.5.3-.9-1-2.1-2-2.5-.9-.4-2.5-.3-2.8.6z"/><path id="prefix__path3602" class="prefix__st16" d="M523 298.6c-.3.8.8 2 1.8 2.4 1 .4 2.7.4 3-.5.3-.9-1-2.1-2-2.5-1-.3-2.5-.2-2.8.6z"/><path id="prefix__path3604" class="prefix__st16" d="M523.4 295.6c-.3.8.8 2 1.8 2.4 1 .4 2.7.4 3-.5.3-.9-1-2.1-2-2.5-.9-.3-2.5-.2-2.8.6z"/><path id="prefix__path3606" class="prefix__st16" d="M522.6 294.7s2.6.4 2.8-.6c.3-1.2-3-2.4-3-2.4l.2 3z"/><path id="prefix__path3608" class="prefix__st16" d="M513.1 290.5c.3 1.2 2.9 2.2 2.9 2.2l-1.3-5.3c-1.1 0-1.8 2.4-1.6 3.1z"/><path id="prefix__path3610" class="prefix__st16" d="M512.8 286.3c-.8-.3-2 .8-2.4 1.7-.4 1-.5 2.7.4 3.1.9.3 2.1-.9 2.5-1.9.4-1 .4-2.6-.5-2.9z"/><path id="prefix__path3612" class="prefix__st16" d="M509.9 283.9c-.9 0-1.7 1.4-1.8 2.4-.1 1.1.4 2.7 1.4 2.8 1 0 1.7-1.5 1.8-2.6 0-1.1-.5-2.5-1.4-2.6z"/><path id="prefix__path3614" class="prefix__st16" d="M507.3 281.3c-.9 0-1.7 1.4-1.8 2.4-.1 1.1.4 2.7 1.4 2.8 1 0 1.7-1.5 1.8-2.6.1-1.1-.5-2.6-1.4-2.6z"/><path id="prefix__path3616" class="prefix__st16" d="M504.9 278.3c-.9 0-1.7 1.4-1.8 2.4-.1 1.1.4 2.7 1.4 2.8 1 0 1.7-1.5 1.8-2.6.1-1.1-.5-2.6-1.4-2.6z"/><path id="prefix__path3618" class="prefix__st16" d="M502.5 275.8c-.9 0-1.7 1.4-1.8 2.4-.1 1.1.4 2.7 1.4 2.8 1 0 1.7-1.5 1.8-2.6 0-1.1-.5-2.6-1.4-2.6z"/><path id="prefix__path3620" class="prefix__st16" d="M500.5 272.3c-.9 0-1.7 1.4-1.8 2.4-.1 1.1.4 2.7 1.4 2.8 1 0 1.7-1.5 1.8-2.6 0-1-.5-2.5-1.4-2.6z"/><path id="prefix__path3622" class="prefix__st16" d="M498.3 269.2c-.9 0-1.7 1.4-1.8 2.4-.1 1.1.4 2.7 1.4 2.8 1 0 1.7-1.5 1.8-2.6.1-1-.5-2.5-1.4-2.6z"/><path id="prefix__path3624" class="prefix__st16" d="M496.3 266c-.9 0-1.7 1.4-1.8 2.4-.1 1.1.4 2.7 1.4 2.8 1 0 1.7-1.5 1.8-2.6.1-1.1-.5-2.6-1.4-2.6z"/><path id="prefix__path3626" class="prefix__st16" d="M494.6 262.2c-.9 0-1.7 1.4-1.8 2.4-.1 1.1.4 2.7 1.4 2.8 1 0 1.7-1.5 1.8-2.6 0-1.1-.5-2.6-1.4-2.6z"/><path id="prefix__path3628" class="prefix__st16" d="M492.7 258.7c-.9 0-1.7 1.4-1.8 2.4-.1 1.1.4 2.7 1.4 2.8 1 0 1.7-1.5 1.8-2.6 0-1.1-.5-2.5-1.4-2.6z"/><path id="prefix__path3630" class="prefix__st16" d="M491.1 254.6c-.9 0-1.7 1.4-1.8 2.4-.1 1.1.4 2.7 1.4 2.8 1 0 1.7-1.5 1.8-2.6 0-1.1-.5-2.5-1.4-2.6z"/><path id="prefix__path3632" class="prefix__st16" d="M487.5 250.5s-.3 5.1 1.5 5.5c1.2.2 2.1-2.9 2.1-2.9l-3.6-2.6z"/><path id="prefix__path3634" class="prefix__st10" d="M482.2 333.7c0 1.4-1.1 2.5-2.5 2.5s-2.5-1.1-2.5-2.5 1.1-2.5 2.5-2.5 2.5 1.2 2.5 2.5z"/><path id="prefix__path3636" class="prefix__st10" d="M487.8 330.8c0 1.4-1.1 2.5-2.5 2.5s-2.5-1.1-2.5-2.5 1.1-2.5 2.5-2.5 2.5 1.1 2.5 2.5z"/><path id="prefix__path3638" class="prefix__st7" d="M482.7 341.8l-6.3-.1s-.8-5.1 3.1-5.3c3.3-.3 3.4 5.4 3.2 5.4z"/><path id="prefix__path3657" class="prefix__st16" d="M484.7 358.5c-.9-1.2-7.7-1.7-10.4-.1-1 0-3.6-18 5.6-17.6 8.3.4 5.4 17.7 4.8 17.7z"/><path id="prefix__path3661" class="prefix__st16" d="M476.3 347.6c-1.2 4.1-.9 7.3.6 9.8"/><path id="prefix__path3663" class="prefix__st16" d="M478.7 347.8c-.3 3.5-.2 6.8 1 9.5"/><path id="prefix__path3665" class="prefix__st16" d="M487.7 344c1.4 3.4 2.2 6.4.9 10.3"/><path id="prefix__path4526" d="M427.6 219l-.3 6.6" fill="#e6e6e6" stroke="#000" stroke-width=".641"/><path id="prefix__path5296" d="M539.3 218.8l.3 6.5" fill="#e6e6e6" stroke="#000" stroke-width=".641" stroke-linejoin="round"/><path id="prefix__path4456-7" class="prefix__st5" d="M481.8 146.9l1.6-.5 1.6.5"/><path id="prefix__path4405" class="prefix__st2" d="M457.8 167.2s1 .8 1.6.8c.8-.1 1.4-1 2.1-1.4.9-.5 1.9-1 2.9-1.4 1.4-.6 2.8-1.1 4.2-1.5 1.8-.6 3.6-1.1 5.4-1.4 1.9-.3 3.8-.3 5.7-.2 1.3.1 3.8.7 3.8.7s-1.1.4-1.5.7c-.6.3-1.3.6-1.6 1.2-.3.5-.3 1.2 0 1.7.3.6.8 1 1.4 1.3.5.2 1.7.1 1.7.1s-1.3.1-1.8.5c-.3.3-.5.8-.5 1.2 0 .6.3 1.2.8 1.6.4.3 1.5.3 1.5.3s-.6.1-.8 0c-.4-.1-.7-.3-1-.6-.3-.3-.4-.7-.4-1.1 0-.4 0-.9.2-1.2.2-.3.9-.5.9-.5l-.9-.3c-.4-.2-1.1-.9-1.1-.9s-.6 0-.8.1c-.6.2-1.1.6-1.4 1.2-.4.5-.7 1.2-.6 1.8.1.6.6 1.1 1.1 1.5.5.4 1.7.7 1.7.7s0 .4-.2.6c-.4.5-1.1.9-1.7 1.1-1 .3-2.1.2-3.1 0s-1.8-.4-2.9-.9c-.4-.2-.7-1-.7-1s.8-.6.9-1.1c.1-.5-.2-1-.5-1.3-.3-.3-.8-.5-1.2-.5-.6 0-1.3.3-1.6.8-.3.5-.2 1.1 0 1.6.2.4 1.1 1 1.1 1-.2.9-.5 1.4-.9 1.7-1.2.7-2.4 1.1-3.6 1.4l-.7-.5-.5-.9s.7-1 .7-1.6c0-.5-.2-1-.5-1.4-.2-.3-.5-.7-.9-.8-.4-.1-.8-.1-1.2 0-.6.2-1.5 1-1.5 1s-.9-.7-1.2-1.2c-.3-.5-.7-1.6-.7-1.6l-1.7-1.3z"/></svg>
