<svg xmlns="http://www.w3.org/2000/svg" height="480" width="640" viewBox="0 0 640 480"><g fill-rule="evenodd"><path fill="#fff" d="M320 0h320v480h-320z"/><path d="M282.43-735.13c0 .625 55.956 222.85 118.17 300.56 69.375 87.27 113.18 87.333 113.18 87.333l70.866-17.717s-41.496 2.093-123.8-104.21c-83.45-107.78-109.42-285.96-108.17-282.84l-70.241 16.875z" transform="matrix(-.24 0 0 .199 534.09 334.357)" stroke="#000" stroke-width="1.197" fill="#fff"/><path d="M285-727.64c-1.535-9.369 33.898 220.95 140.2 327.24 53.149 53.15 88.583 53.15 88.583 53.15l88.582-17.717s-51.712 3.751-134.02-102.55c-83.45-107.78-108.58-263.25-107.96-263.87l-75.38 3.75zM282.43-735.13c0 .625 55.956 222.85 118.17 300.56 69.375 87.27 113.18 87.333 113.18 87.333l70.866-17.717s-41.496 2.093-123.8-104.21c-83.45-107.78-109.42-285.96-108.17-282.84l-70.241 16.875z" transform="matrix(.24 0 0 .199 381.891 336.17)" stroke="#000" stroke-width="1.197" fill="#fff"/><path d="M285-727.64c-1.535-9.369 33.898 220.95 140.2 327.24 53.149 53.15 88.583 53.15 88.583 53.15l88.582-17.717s-51.712 3.751-134.02-102.55c-83.45-107.78-108.58-263.25-107.96-263.87l-75.38 3.75z" transform="matrix(-.24 0 0 .199 534.09 334.357)" stroke="#000" stroke-width="1.197" fill="#fff"/><path d="M344.54-596.29l9.152 22.141s1.455-9.767 8.526-11.534l7.071-1.768s26.864 49.328 32.168 58.167c5.302 8.838-3.536 16.793-1.769 16.793 1.769 0 26.517-11.49 26.517-11.49s-10.606.883-15.026-6.188l-34.819-59.934s6.187-2.652 11.49-5.303c5.304-2.652 10.607 7.955 10.607 7.955l-13.258-26.517s0 8.839-4.42 10.607c-4.419 1.767-7.955 3.535-7.955 3.535s-3.535-6.187-7.955-13.258c-4.419-7.071 4.42-14.142 4.42-14.142l-22.981 11.49s7.955 4.42 10.607 8.839l5.303 8.839s-3.223 1.768-8.214 3.482c-3.589 1.875-7.696.054-9.464-1.714z" transform="matrix(.24 .004 -.005 .199 380.013 342.305)" stroke="#000" stroke-width="1.197" fill="#fff133"/><g stroke="#000" stroke-width="12.791" fill="#b00"><path d="M410.168 335.486c-.625-.097-.889-.607-.529-1.018s1.345-.726 1.969-.629l3.436.536c.625.097.889.607.529 1.018-.376.43-1.345.726-1.969.629l-3.436-.536zM408.356 336.871c-.613-.111-.859-.633-.492-1.044s1.347-.711 1.96-.6l3.371.61c.613.111.859.633.492 1.044-.384.43-1.347.711-1.96.6l-3.371-.61zM406.432 338.411c-.625-.097-.889-.607-.529-1.018s1.345-.726 1.969-.629l3.436.536c.625.097.889.607.529 1.018-.376.43-1.345.726-1.969.629l-3.436-.536zM430.477 318.212c-.634.039-1.045-.397-.823-.872s1.079-.989 1.713-1.028l3.486-.214c.634-.039 1.045.397.823.872-.233.497-1.079.989-1.713 1.028l-3.486.214zM429.027 319.809c-.627.013-1.013-.445-.772-.916s1.109-.957 1.736-.97l3.449-.074c.627-.013 1.013.445.772.916-.252.493-1.109.957-1.736.97l-3.449.074zM427.59 321.693c-.635.029-1.035-.414-.801-.885s1.102-.971 1.737-1l3.49-.158c.635-.029 1.035.414.801.885-.244.492-1.102.971-1.737 1l-3.49.158zM426.005 322.365c-.627-.02-.977-.497-.701-.955s1.18-.896 1.806-.876l3.447.109c.627.02.977.497.701.955-.289.478-1.18.896-1.806.876l-3.447-.109zM435.593 311.612c-.625.095-1.09-.302-.928-.794s.948-1.08 1.573-1.176l3.44-.524c.625-.095 1.09.302.928.794-.168.515-.948 1.08-1.573 1.176l-3.44.524zM434.486 313.438c-.62.079-1.072-.335-.904-.828s.957-1.065 1.577-1.144l3.41-.435c.62-.079 1.072.335.904.828-.176.515-.957 1.065-1.577 1.144l-3.41.435zM433.346 315.46c-.625.095-1.09-.302-.928-.794s.948-1.08 1.573-1.176l3.44-.524c.625-.095 1.09.302.928.794-.168.515-.948 1.08-1.573 1.176l-3.44.524zM431.905 317.092c-.621.069-1.063-.352-.884-.843s.981-1.05 1.602-1.119l3.418-.38c.621-.069 1.063.352.884.843-.188.512-.981 1.05-1.602 1.119l-3.418.38zM417.663 329.857c-.632-.055-.945-.545-.626-.979s1.27-.815 1.902-.76l3.477.302c.632.055.945.545.626.979-.333.454-1.27.815-1.902.76l-3.477-.302zM415.989 331.352c-.621-.069-.917-.572-.591-1.006s1.273-.799 1.895-.73l3.418.38c.621.069.917.572.591 1.006-.341.454-1.273.799-1.895.73l-3.418-.38zM414.221 333.024c-.632-.055-.945-.545-.626-.979s1.27-.815 1.902-.76l3.477.302c.632.055.945.545.626.979-.333.454-1.27.815-1.902.76l-3.477-.302zM412.093 333.946c-.613-.111-.859-.633-.492-1.044s1.347-.711 1.96-.6l3.371.61c.613.111.859.633.492 1.044-.384.43-1.347.711-1.96.6l-3.371-.61zM424.435 324.173c-.636-.005-1.002-.468-.733-.926s1.174-.911 1.809-.906l3.496.027c.636.005 1.002.468.733.926-.281.479-1.174.911-1.809.906l-3.496-.027zM422.933 325.789c-.627-.02-.977-.497-.701-.955s1.18-.896 1.806-.876l3.447.109c.627.02.977.497.701.955-.289.478-1.18.896-1.806.876l-3.447-.109zM421.104 326.689c-.632-.055-.945-.545-.626-.979s1.27-.815 1.902-.76l3.477.302c.632.055.945.545.626.979-.333.454-1.27.815-1.902.76l-3.477-.302zM419.431 328.184c-.621-.069-.917-.572-.591-1.006s1.273-.799 1.895-.73l3.418.38c.621.069.917.572.591 1.006-.341.454-1.273.799-1.895.73l-3.418-.38zM446.644 289.568c-.591.196-1.139-.118-1.096-.627s.677-1.214 1.269-1.41l3.251-1.076c.591-.196 1.139.118 1.096.627-.045.532-.677 1.214-1.269 1.41l-3.251 1.076zM445.992 290.461c-.605.139-1.111-.229-1.013-.735s.802-1.152 1.407-1.29l3.327-.764c.605-.139 1.111.229 1.013.735-.103.529-.802 1.152-1.407 1.29l-3.327.764zM445.143 292.575c-.608.156-1.124-.193-1.033-.698s.791-1.165 1.398-1.32l3.342-.856c.608-.156 1.124.193 1.033.698-.096.527-.791 1.165-1.398 1.32l-3.342.856zM444.296 294.502c-.605.139-1.111-.229-1.013-.735s.802-1.152 1.407-1.29l3.327-.764c.605-.139 1.111.229 1.013.735-.103.529-.802 1.152-1.407 1.29l-3.327.764zM448.601 283.261c-.59.179-1.13-.153-1.08-.665s.689-1.202 1.278-1.38l3.243-.984c.59-.179 1.13.153 1.08.665-.052.534-.689 1.202-1.278 1.38l-3.243.984zM447.949 285.427c-.591.196-1.139-.118-1.096-.627s.677-1.214 1.269-1.41l3.251-1.076c.591-.196 1.139.118 1.096.627-.045.532-.677 1.214-1.269 1.41l-3.251 1.076zM447.296 287.401c-.59.179-1.13-.153-1.08-.665s.689-1.202 1.278-1.38l3.243-.984c.59-.179 1.13.153 1.08.665-.052.534-.689 1.202-1.278 1.38l-3.243.984zM440 303.976c-.621.114-1.102-.268-.963-.765s.899-1.108 1.52-1.222l3.414-.629c.621-.114 1.102.268.963.765-.146.519-.899 1.108-1.52 1.222l-3.414.629zM438.973 305.839c-.616.098-1.085-.302-.939-.8s.909-1.095 1.524-1.193l3.387-.54c.616-.098 1.085.302.939.8-.153.521-.909 1.095-1.524 1.193l-3.387.54zM437.925 307.89c-.621.114-1.102-.268-.963-.765s.899-1.108 1.52-1.222l3.414-.629c.621-.114 1.102.268.963.765-.146.519-.899 1.108-1.52 1.222l-3.414.629zM436.732 309.59c-.62.079-1.072-.335-.904-.828s.957-1.065 1.577-1.144l3.41-.435c.62-.079 1.072.335.904.828-.176.515-.957 1.065-1.577 1.144l-3.41.435zM443.446 296.616c-.608.156-1.124-.193-1.033-.698s.791-1.165 1.398-1.32l3.342-.856c.608-.156 1.124.193 1.033.698-.096.527-.791 1.165-1.398 1.32l-3.342.856zM443.122 298.011c-.616.098-1.085-.302-.939-.8s.909-1.095 1.524-1.193l3.387-.54c.616-.098 1.085.302.939.8-.153.521-.909 1.095-1.524 1.193l-3.387.54zM442.074 300.062c-.621.114-1.102-.268-.963-.765s.899-1.108 1.52-1.222l3.414-.629c.621-.114 1.102.268.963.765-.146.519-.899 1.108-1.52 1.222l-3.414.629zM441.047 301.925c-.616.098-1.085-.302-.939-.8s.909-1.095 1.524-1.193l3.387-.54c.616-.098 1.085.302.939.8-.153.521-.909 1.095-1.524 1.193l-3.387.54zM452.834 271.384c-.546.272-1.147.036-1.201-.473s.437-1.289.983-1.561l3.003-1.497c.546-.272 1.147-.036 1.201.473.057.531-.437 1.289-.983 1.561l-3.003 1.497zM452.016 273.344c-.587.204-1.142-.101-1.11-.61s.651-1.224 1.237-1.428l3.227-1.124c.587-.204 1.142.101 1.11.61-.033.532-.651 1.224-1.237 1.428l-3.227 1.124zM451.395 275.33c-.586.188-1.132-.136-1.093-.648s.664-1.212 1.249-1.4l3.221-1.033c.586-.188 1.132.136 1.093.648-.041.535-.664 1.212-1.249 1.4l-3.221 1.033zM453.556 264.896c-.548.255-1.144-.001-1.192-.512s.451-1.278.999-1.533l3.013-1.403c.548-.255 1.144.001 1.192.512.05.534-.451 1.278-.999 1.533l-3.013 1.403zM453.332 267.122c-.546.272-1.147.036-1.201-.473s.437-1.289.983-1.561l3.003-1.497c.546-.272 1.147-.036 1.201.473.057.531-.437 1.289-.983 1.561l-3.003 1.497zM453.057 269.157c-.548.255-1.144-.001-1.192-.512s.451-1.278.999-1.533l3.013-1.403c.548-.255 1.144.001 1.192.512.05.534-.451 1.278-.999 1.533l-3.013 1.403zM450.801 277.504c-.587.204-1.142-.101-1.11-.61s.651-1.224 1.237-1.428l3.227-1.124c.587-.204 1.142.101 1.11.61-.033.532-.651 1.224-1.237 1.428l-3.227 1.124zM449.939 279.015c-.59.179-1.13-.153-1.08-.665s.689-1.202 1.278-1.38l3.243-.984c.59-.179 1.13.153 1.08.665-.052.534-.689 1.202-1.278 1.38l-3.243.984zM449.289 281.182c-.591.196-1.139-.118-1.096-.627s.677-1.214 1.269-1.41l3.251-1.076c.591-.196 1.139.118 1.096.627-.045.532-.677 1.214-1.269 1.41l-3.251 1.076z"/></g><g stroke="#000" stroke-width="12.791" fill="#b00"><path d="M503.556 329.875c.631-.063.935-.557.608-.988s-1.285-.799-1.916-.736l-3.471.347c-.631.063-.935.557-.608.988.342.45 1.285.799 1.916.736l3.471-.347zM505.256 331.35c.62-.077.906-.584.572-1.014s-1.288-.783-1.908-.707l-3.41.423c-.62.077-.906.584-.572 1.014.349.45 1.288.783 1.908.707l3.41-.423zM507.054 332.999c.631-.063.935-.557.608-.988s-1.285-.799-1.916-.736l-3.471.347c-.631.063-.935.557-.608.988.342.45 1.285.799 1.916.736l3.471-.347zM484.642 311.519c.629.074 1.074-.338.889-.825s-.999-1.047-1.628-1.121l-3.461-.407c-.629-.074-1.074.338-.889.825.193.508.999 1.047 1.628 1.121l3.461.407zM485.967 313.195c.624.048 1.045-.388.842-.872s-1.031-1.016-1.655-1.064l-3.434-.263c-.624-.048-1.045.388-.842.872.213.506 1.031 1.016 1.655 1.064l3.434.263zM487.252 315.152c.631.064 1.065-.356.869-.839s-1.023-1.03-1.654-1.094l-3.469-.351c-.631-.064-1.065.356-.869.839.205.505 1.023 1.03 1.654 1.094l3.469.351zM488.775 315.909c.627.015 1.015-.443.775-.915s-1.106-.958-1.733-.973l-3.449-.08c-.627-.015-1.015.443-.775.915.25.493 1.106.958 1.733.973l3.449.08zM480.057 304.649c.617.129 1.111-.241.989-.741s-.861-1.129-1.478-1.259l-3.391-.711c-.617-.129-1.111.241-.989.741.128.522.861 1.129 1.478 1.259l3.391.711zM481.021 306.533c.612.113 1.095-.275.966-.777s-.871-1.116-1.483-1.229l-3.368-.622c-.612-.113-1.095.275-.966.777.135.524.871 1.116 1.483 1.229l3.368.622zM481.997 308.611c.617.129 1.111-.241.989-.741s-.861-1.129-1.478-1.259l-3.391-.711c-.617-.129-1.111.241-.989.741.128.522.861 1.129 1.478 1.259l3.391.711zM483.309 310.326c.615.103 1.089-.294.947-.793s-.897-1.101-1.512-1.204l-3.381-.565c-.615-.103-1.089.294-.947.793.147.522.897 1.101 1.512 1.204l3.381.565zM496.518 323.845c.635-.02.986-.492.702-.943s-1.203-.883-1.838-.862l-3.492.111c-.635.02-.986.492-.702.943.297.472 1.203.883 1.838.862l3.492-.111zM498.074 325.428c.626-.035.96-.521.668-.972s-1.209-.867-1.835-.833l-3.442.191c-.626.035-.96.521-.668.972.305.471 1.209.867 1.835.833l3.442-.191zM499.705 327.195c.635-.02.986-.492.702-.943s-1.203-.883-1.838-.862l-3.492.111c-.635.02-.986.492-.702.943.297.472 1.203.883 1.838.862l3.492-.111zM501.757 328.227c.62-.077.906-.584.572-1.014s-1.288-.783-1.908-.707l-3.41.423c-.62.077-.906.584-.572 1.014.349.45 1.288.783 1.908.707l3.41-.423zM490.209 317.798c.634.03 1.036-.412.804-.884s-1.099-.974-1.733-1.004l-3.488-.166c-.634-.03-1.036.412-.804.884.243.493 1.099.974 1.733 1.004l3.488.166zM491.572 319.494c.627.015 1.015-.443.775-.915s-1.106-.958-1.733-.973l-3.449-.08c-.627-.015-1.015.443-.775.915.25.493 1.106.958 1.733.973l3.449.08zM493.334 320.495c.635-.02.986-.492.702-.943s-1.203-.883-1.838-.862l-3.492.111c-.635.02-.986.492-.702.943.297.472 1.203.883 1.838.862l3.492-.111zM494.888 322.078c.626-.035.96-.521.668-.972s-1.209-.867-1.835-.833l-3.442.191c-.626.035-.96.521-.668.972.305.471 1.209.867 1.835.833l3.442-.191zM470.758 282.046c.574.227 1.146-.055 1.142-.566s-.581-1.248-1.155-1.475l-3.159-1.251c-.574-.227-1.146.055-1.142.566.003.533.581 1.248 1.155 1.475l3.159 1.251zM471.338 282.974c.592.172 1.126-.167 1.068-.677s-.709-1.193-1.302-1.365l-3.258-.945c-.592-.172-1.126.167-1.068.677.061.534.709 1.193 1.302 1.365l3.258.945zM472.021 285.132c.594.189 1.137-.131 1.085-.64s-.698-1.205-1.292-1.394l-3.268-1.037c-.594-.189-1.137.131-1.085.64.054.531.698 1.205 1.292 1.394l3.268 1.037zM472.714 287.099c.592.172 1.126-.167 1.068-.677s-.709-1.193-1.302-1.365l-3.258-.945c-.592-.172-1.126.167-1.068.677.061.534.709 1.193 1.302 1.365l3.258.945zM469.303 275.645c.574.211 1.138-.091 1.129-.604s-.593-1.236-1.167-1.447l-3.157-1.16c-.574-.211-1.138.091-1.129.604.01.536.593 1.236 1.167 1.447l3.157 1.16zM469.781 277.843c.574.227 1.146-.055 1.142-.566s-.581-1.248-1.155-1.475l-3.159-1.251c-.574-.227-1.146.055-1.142.566.003.533.581 1.248 1.155 1.475l3.159 1.251zM470.281 279.848c.574.211 1.138-.091 1.129-.604s-.593-1.236-1.167-1.447l-3.157-1.16c-.574-.211-1.138.091-1.129.604.01.536.593 1.236 1.167 1.447l3.157 1.16zM476.256 296.792c.611.148 1.121-.207 1.021-.71s-.81-1.155-1.421-1.304l-3.358-.817c-.611-.148-1.121.207-1.021.71.104.526.81 1.155 1.421 1.304l3.358.817zM477.136 298.703c.607.132 1.107-.241 1-.746s-.821-1.142-1.428-1.273l-3.338-.725c-.607-.132-1.107.241-1 .746.112.528.821 1.142 1.428 1.273l3.338.725zM478.02 300.811c.611.148 1.121-.207 1.021-.71s-.81-1.155-1.421-1.304l-3.358-.817c-.611-.148-1.121.207-1.021.71.104.526.81 1.155 1.421 1.304l3.358.817zM479.081 302.571c.612.113 1.095-.275.966-.777s-.871-1.116-1.483-1.229l-3.368-.622c-.612-.113-1.095.275-.966.777.135.524.871 1.116 1.483 1.229l3.368.622zM473.397 289.257c.594.189 1.137-.131 1.085-.64s-.698-1.205-1.292-1.394l-3.268-1.037c-.594-.189-1.137.131-1.085.64.054.531.698 1.205 1.292 1.394l3.268 1.037zM473.61 290.663c.607.132 1.107-.241 1-.746s-.821-1.142-1.428-1.273l-3.338-.725c-.607-.132-1.107.241-1 .746.112.528.821 1.142 1.428 1.273l3.338.725zM474.493 292.772c.611.148 1.121-.207 1.021-.71s-.81-1.155-1.421-1.304l-3.358-.817c-.611-.148-1.121.207-1.021.71.104.526.81 1.155 1.421 1.304l3.358.817zM475.373 294.683c.607.132 1.107-.241 1-.746s-.821-1.142-1.428-1.273l-3.338-.725c-.607-.132-1.107.241-1 .746.112.528.821 1.142 1.428 1.273l3.338.725zM466.007 263.564c.524.301 1.142.098 1.236-.406s-.335-1.31-.859-1.611l-2.88-1.656c-.524-.301-1.142-.098-1.236.406-.098.527.335 1.31.859 1.611l2.88 1.656zM466.674 265.565c.569.236 1.147-.038 1.154-.548s-.554-1.257-1.123-1.493l-3.132-1.3c-.569-.236-1.147.038-1.154.548-.008.533.554 1.257 1.123 1.493l3.132 1.3zM467.13 267.58c.57.22 1.141-.074 1.142-.587s-.567-1.246-1.137-1.466l-3.134-1.208c-.57-.22-1.141.074-1.142.587-.001.536.567 1.246 1.137 1.466l3.134 1.208zM465.795 257.052c.527.285 1.141.062 1.23-.446s-.35-1.3-.877-1.585l-2.896-1.567c-.527-.285-1.141-.062-1.23.446-.092.531.35 1.3.877 1.585l2.896 1.567zM465.844 259.283c.524.301 1.142.098 1.236-.406s-.335-1.31-.859-1.611l-2.88-1.656c-.524-.301-1.142-.098-1.236.406-.098.527.335 1.31.859 1.611l2.88 1.656zM465.959 261.331c.527.285 1.141.062 1.23-.446s-.35-1.3-.877-1.585l-2.896-1.567c-.527-.285-1.141-.062-1.23.446-.092.531.35 1.3.877 1.585l2.896 1.567zM467.56 269.783c.569.236 1.147-.038 1.154-.548s-.554-1.257-1.123-1.493l-3.132-1.3c-.569-.236-1.147.038-1.154.548-.008.533.554 1.257 1.123 1.493l3.132 1.3zM468.301 271.336c.574.211 1.138-.091 1.129-.604s-.593-1.236-1.167-1.447l-3.157-1.16c-.574-.211-1.138.091-1.129.604.01.536.593 1.236 1.167 1.447l3.157 1.16zM468.777 273.534c.574.227 1.146-.055 1.142-.566s-.581-1.248-1.155-1.475l-3.159-1.251c-.574-.227-1.146.055-1.142.566.003.533.581 1.248 1.155 1.475l3.159 1.251z"/></g><path d="M344.54-596.29l9.152 22.141s1.455-9.767 8.526-11.534l7.071-1.768s26.864 49.328 32.168 58.167c5.302 8.838-3.536 16.793-1.769 16.793 1.769 0 26.517-11.49 26.517-11.49s-10.606.883-15.026-6.188l-34.819-59.934s6.187-2.652 11.49-5.303c5.304-2.652 10.607 7.955 10.607 7.955l-13.258-26.517s0 8.839-4.42 10.607c-4.419 1.767-7.955 3.535-7.955 3.535s-3.535-6.187-7.955-13.258c-4.419-7.071 4.42-14.142 4.42-14.142l-22.981 11.49s7.955 4.42 10.607 8.839l5.303 8.839s-3.223 1.768-8.214 3.482c-3.589 1.875-7.696.054-9.464-1.714z" transform="matrix(-.24 .004 .005 .199 535.969 340.492)" stroke="#000" stroke-width="1.197" fill="#fff133"/><g transform="matrix(.144 0 0 .121 423.643 295.291)"><path fill="#c0c0c0" d="M324.546-255.37l-50.11 50.11 175.384 175.386 50.11-50.11z"/><ellipse rx="35.433" ry="35.433" stroke="#000" transform="scale(-1 1) rotate(45 -177.879 -1104.595)" cy="-1428" cx="354.33" stroke-width="1.197" fill="#fff133"/><path d="M-402.046-956.911l37.583 37.583-25.055 25.054-37.583-37.582c-12.528-12.528 12.527-37.583 25.055-25.055z" stroke="#000" stroke-width="1.197" fill="#c0c0c0"/><path d="M-346.606-926.531l-50.11 50.11c-13.798 0-25.351-11.553-25.055-25.055 10.878-25.879 25.028-38.434 50.11-50.11 12.477.729 24.217 10.892 25.055 25.055z" stroke="#000" stroke-width="1.197" fill="#fff133"/><path d="M-351.926-931.851l37.583 37.583-50.11 50.11-37.583-37.583c5.027-20.028 30.082-45.084 50.11-50.11z" stroke="#000" stroke-width="1.197" fill="#c0c0c0"/><path d="M-309.026-888.951l-50.11 50.11c-13.798 0-25.351-11.553-25.055-25.055 10.878-25.879 25.028-38.434 50.11-50.11 12.477.729 24.217 10.892 25.055 25.055z" stroke="#000" stroke-width="1.197" fill="#fff133"/><path d="M-314.356-894.281l342.796 342.804-50.111 50.11-342.795-342.804c5.027-20.028 30.082-45.084 50.11-50.11z" stroke="#000" stroke-width="1.197" fill="#c0c0c0"/><path d="M48.934-530.971l-50.11 50.11c-13.798 0-25.351-11.553-25.055-25.055 10.878-25.879 25.028-38.434 50.11-50.11 12.477.729 24.217 10.892 25.055 25.055z" stroke="#000" stroke-width="1.197" fill="#fff133"/><path d="M48.944-530.976l225.496 225.496-50.11 50.11-225.496-225.496c5.027-20.028 30.082-45.084 50.11-50.11zM186.744-418.231l-75.166 75.166c-13.797 0-25.35-11.553-25.055-25.055 0 0 0-25.055 25.055-50.11l50.11-25.055c11.64 1.567 21.415 12.527 25.055 25.055zM186.744-418.231l50.11 75.166-50.11 50.11-75.165-50.111c-2.83-2.442 0-25.054 25.055-50.11s48.98-24.456 50.11-25.055z" stroke="#000" stroke-width="1.197" fill="#c0c0c0"/><path d="M336.61-506.69c0-35.433 0-86.653 17.717-129.98 17.716 43.326 17.716 94.546 17.716 129.98h-35.433z" transform="rotate(-135 434.752 18.668) scale(1 -.818)" stroke="#000" stroke-width="1.197" fill="#c0c0c0"/><path d="M318.9-506.69h17.716v-43.326c0-43.327-35.433-64.99-35.433-64.99l17.717 108.32z" transform="rotate(-45 399.396 -194.158) scale(1 .818)" stroke="#000" stroke-width="1.197" fill="#c0c0c0"/><path d="M318.9-506.69h17.716v-43.326c0-43.327-35.433-64.99-35.433-64.99l17.717 108.32z" transform="rotate(-135 434.752 18.668) scale(1 -.818)" stroke="#000" stroke-width="1.197" fill="#c0c0c0"/><path d="M-314.356-894.281l37.583 37.583c25.055 25.055 112.743 137.798 112.743 137.798s117.296 92.25 142.356 117.31l37.583 37.583c-25.056-25.055-179.937-129.835-179.937-129.835s92.244 142.363 129.828 179.946l-37.583-37.583c-25.055-25.055-117.305-142.36-117.3-142.366-.005.005-100.223-75.168-125.276-100.22l-50.111-50.111c25.055 25.055 175.382 125.281 175.382 125.281s-100.22-150.338-125.272-175.391z" stroke="#000" stroke-width="1.197" fill="#fff133"/><path d="M299.493-230.317c50.11 75.165 100.221 125.276 112.744 137.8 23.776 23.819 50.11 25.055 50.11 25.055s0-25.056-25.055-50.11c-12.527-12.528-62.638-62.639-137.8-112.745zm-62.64-112.75c87.695 87.695 187.916 137.806 250.552 200.442 50.11 50.11 15.414 88.464 1.443 100.606-13.97 12.141-51.966 50.282-101.664-.386-62.638-62.638-112.746-162.857-200.442-250.552 0-25.055 25.056-50.11 50.11-50.11z" stroke="#000" stroke-width="1.197" fill="#c0c0c0"/><path transform="matrix(-1.249 -1.421 -1.359 1.317 1166.1 -102.64)" stroke="#000" stroke-width="1.197" fill="#c0c0c0" d="M218.28 257.88h22.934v73.043h-22.934z"/><g stroke="#000" fill="#c0c0c0"><path d="M-330.511-843.274l-40.653 39.753 40.653 39.751-20.326 19.878-40.653-39.753-81.305 79.505 40.653 39.753-20.328 19.876-40.651-39.751-40.653 39.751 121.958 119.258 81.305-79.505-40.653-39.753-20.326 19.878-20.326-19.878 81.305-79.505 20.326 19.878-20.326 19.876 40.651 39.751 40.653-39.751-20.326-19.878 20.326-19.876 81.305 79.505-20.326 19.876-20.326-19.876-40.653 39.753 40.651 39.751 20.326-19.876 20.328 19.876-81.305 79.505-20.328-19.876 20.328-19.878-40.653-39.751-81.305 79.505 121.958 119.258 40.653-39.753-40.653-39.751 20.326-19.876 40.653 39.751 81.305-79.505-40.653-39.753 20.328-19.876 40.651 39.753 40.653-39.753-284.576-278.276zM-208.564-406.002v39.752l-101.63 99.381v-79.505l20.326-19.877h40.652l40.652-39.752zM-106.925-504.564l-80.748 78.96-.961 39.48 81.71-79.901v-38.54zM-188.234-386.122l-40.652-39.752v-39.752l40.652 39.752v39.752zM-86.603-485.503l-40.652-39.752v-39.752l40.652 39.752v39.752zM-127.255-565.009v39.752l-20.327-19.877 20.327-19.876zM-228.886-465.628v39.752l-20.327-19.877 20.327-19.876zM-45.543-565.009l-41.057 39.752v39.752l41.057-40.965v-38.54zM-289.865-604.758l-40.652-39.752v-39.752l40.652 39.752v39.752zM-208.561-525.26l-40.652-39.752v-39.752l40.652 39.752v39.752zM-188.231-624.638l-60.979-59.629v-39.752l81.305 79.505-20.326 19.877zM-249.213-724.016v39.752l-20.327-19.877 20.327-19.876zM-289.865-604.758l40.652-39.752v-39.752l-40.652 39.752v39.752zM-391.493-624.638l60.979-59.629v-39.752l-81.305 79.505 20.326 19.877zM-330.51-604.764l-81.305 79.505h-40.652l-20.327 19.876v79.506l142.288-139.531v-39.356zM-249.213-366.242l-121.958-119.258h-40.652l121.958 119.258h40.652zM-310.192-346.373l-121.958-119.258 20.33-19.869 121.958 119.258-20.33 19.869zM-310.192-346.373v79.505l-121.958-119.258v-79.505l121.958 119.258zM-411.82-525.249l-121.958-119.258h-40.652l121.958 119.258h40.652zM-472.799-505.38l-121.958-119.258 20.33-19.869 121.958 119.258-20.33 19.869zM-472.799-505.38v79.505l-121.958-119.258v-79.505l121.958 119.258zM-452.48-644.507l-20.327-19.877v-39.752l40.652 39.752-20.326 19.877zM-350.852-743.885l-20.327-19.877v-39.752l40.652 39.752-20.326 19.877zM-249.216-485.5v-39.752l-20.327 19.876 20.327 19.877zM-208.561-525.26l40.652-39.752-20.327-19.877-20.326 19.877v39.752zM-330.522-684.267l20.326-19.877-20.326-19.876v39.752z"/></g><path transform="matrix(-1.251 -1.419 -1.361 1.315 1166.1 -102.64)" stroke="#000" stroke-width="1.197" fill="#fff133" d="M196.5 254.15h25.197v80.26h-25.197z"/><path d="M336.61 166.54c0 14.669 35.433 35.434 35.433-17.716h-35.433v17.716zM242.1 24.803c-147.06 0-113.13 164.24-100.37 124.02 9.359-29.503 35.433-70.866 64.935-80.225 40.225-12.761 26.696 9.359 41.364 9.359 14.67 0 1.14-22.12 41.364-9.359 29.503 9.359 55.577 50.722 64.936 80.225 12.76 40.224 53.149-124.02-112.23-124.02zM389.76 166.54c0 78.237-63.496 141.73-141.73 141.73-78.236 0-141.73-63.496-141.73-141.73v-17.716c.001-29.116 35.433 124.02 141.73 124.02s141.73-124.77 141.73-124.02v17.716z" transform="matrix(-1.899 0 0 1.887 1166.1 -102.64)" stroke="#000" stroke-width="1.197" fill="#c0c0c0"/><path d="M336.61 166.54c0 14.669 35.433 35.434 35.433-17.716h-35.433v17.716z" transform="matrix(1.899 0 0 1.887 224 -100.51)" stroke="#000" stroke-width="1.197" fill="#c0c0c0"/><path d="M389.76 148.82c0 78.236-63.496 141.73-141.73 141.73-78.236 0-141.73-63.496-141.73-141.73 0-78.236 63.496-141.73 141.73-141.73 78.237 0 141.73 63.496 141.73 141.73zm-53.15 0c0 14.669 22.812 3.042 9.359 43.04-9.359 27.826-27.075 45.543-56.578 54.902-40.225 12.76-26.694-9.359-41.364-9.359-14.668 0-1.14 22.119-41.364 9.359-29.502-9.359-47.218-27.076-56.577-56.578-12.76-40.224 9.359-26.695 9.359-41.364 0-14.67-22.119-1.139-9.359-41.364 9.359-29.502 27.075-47.219 56.577-56.578 40.225-12.761 26.696 9.359 41.364 9.359 14.67 0 1.14-22.12 41.364-9.359 29.503 9.359 47.219 27.075 56.578 56.578 12.76 40.224-9.359 26.694-9.359 41.364z" transform="matrix(-1.899 0 0 1.887 1166.1 -102.64)" stroke="#000" stroke-width="1.197" fill="#c0c0c0"/><path d="M126.55 157.68c-20.248 0-1.929 67.6-9.104 51.705s-11.144-33.368-11.144-51.705 3.969-35.809 11.144-51.705c7.175-15.894-11.144 51.705 9.104 51.705z" transform="matrix(-1.662 0 0 1.761 1107.2 -99.519)" stroke="#000" stroke-width="1.197" fill="#c0c0c0"/><path d="M372.05 139.96c0 15.892-2.13 31.632-9.751 44.811-7.965 13.775 9.751-44.811-7.965-44.811 17.716 0 1.687-58.587 7.965-44.811 6.279 13.776 9.751 28.919 9.751 44.811z" transform="matrix(-1.899 0 0 2.032 1166.1 -106.24)" stroke="#000" stroke-width="1.197" fill="#c0c0c0"/><path d="M296.29 263.08c-14.836 6.279-31.144 9.751-48.258 9.751s-33.422-3.472-48.257-9.751c-14.835-6.278 48.257 9.751 48.257-7.966 0 17.717 63.093 1.688 48.258 7.966zm-48.26-220.56c0-17.716-63.092-1.688-48.257-7.966s31.143-9.75 48.257-9.75 33.422 3.472 48.258 9.75c14.835 6.278-48.258-9.75-48.258 7.966z" transform="matrix(-1.899 0 0 1.887 1166.1 -102.64)" stroke="#000" stroke-width="1.197" fill="#c0c0c0"/><ellipse rx="18.433" ry="20.109" stroke="#000" transform="matrix(-1.293 -1.382 -1.391 1.284 1257.6 -120.02)" cy="160.86" cx="82.112" stroke-width="1.197" fill="#fff133"/><path d="M276.58 287.67c-9.223 1.889-18.773 2.881-28.552 2.881s-19.329-.992-28.553-2.881l-1.432 6.965c9.686 1.984 19.715 3.025 29.985 3.025s20.299-1.041 29.985-3.025l-1.433-6.965z" transform="matrix(-1.293 -1.382 1.391 -1.284 808.89 712.05)" stroke="#000" stroke-width="1.197" fill="#fff133"/><path d="M276.58 287.67c-9.223 1.889-18.773 2.881-28.552 2.881s-19.329-.992-28.553-2.881l-1.432 6.965c9.686 1.984 19.715 3.025 29.985 3.025s20.299-1.041 29.985-3.025l-1.433-6.965zM267.7 308.51c-9.223 1.889-20.189.927-29.969.927-9.778 0-19.285-2.612-28.509-4.501l8.821-10.303c9.686 1.984 19.715 3.025 29.985 3.025s20.299-1.041 29.985-3.025l-10.313 13.877z" transform="matrix(-1.293 -1.382 -1.391 1.284 1223.2 329.88)" stroke="#000" stroke-width="1.197" fill="#fff133"/><path d="M276.58 287.67c-9.223 1.889-18.773 2.881-28.552 2.881s-19.329-.992-28.553-2.881l-1.432 6.965c9.686 1.984 19.715 3.025 29.985 3.025s20.299-1.041 29.985-3.025l-1.433-6.965z" transform="matrix(-1.391 1.284 1.293 1.382 847.44 -345.21)" stroke="#000" stroke-width="1.197" fill="#fff133"/><ellipse rx="18.433" ry="20.109" stroke="#000" transform="matrix(-1.293 -1.382 -1.391 1.284 789.14 314.38)" cy="160.86" cx="82.112" stroke-width="1.197" fill="#fff133"/><path d="M267.59 281.47c-9.223 1.889-17.098 2.943-26.877 2.943s-23.112-.712-32.336-2.601l9.672 12.822c9.686 1.984 19.715 3.025 29.985 3.025s20.299-1.041 29.985-3.025l-10.429-13.164z" transform="matrix(-1.391 1.284 1.293 1.382 850.63 -315.18)" stroke="#000" stroke-width="1.197" fill="#fff133"/><path d="M173.94 271.77l-.838 14.842-3.239 4.493.976-15.087 3.101-4.248zm156.6-6.17l3.562 4.189 1.047 13.616-2.933-2.933-1.676-14.872z" transform="matrix(-1.899 0 0 1.887 1166.1 -102.64)" stroke="#000" stroke-width="1.197" fill="#fff133"/><ellipse rx="18.433" ry="20.109" stroke="#000" transform="matrix(-1.293 -1.382 -1.391 1.284 1237.6 329.88)" cy="160.86" cx="82.112" stroke-width="1.197" fill="#fff133"/></g><path d="M513.78-790.16l35.432-17.714 35.433 17.714s-73.366 35.433-73.366 159.45c-.001 88.58 125.26 106.3 125.26 212.6 0 45.649-34.183 88.582-69.616 88.582s-88.583-17.716-141.73-70.866c35.433 17.716 76.082 37.308 106.3 36.058 19.588-.405 55.025-17.716 55.025-53.149 0-70.866-122.77-106.92-122.77-213.22 0-124.02 50.025-159.45 50.026-159.45zM520.25-790.16l46.683-17.717 10 17.717s-70.649 35.433-70.649 159.45c-.001 88.58 125.89 106.3 125.89 212.6 0 45.649-26.714 87.362-65.241 88.582-73.403 2.363-90.458-23.966-141.73-70.866 43.149 32.308 105 46.752 129.02 34.183 29.354-15.364 35.024-36.058 35.024-53.774 0-70.866-120.89-104.42-120.89-210.72 0-124.02 51.9-159.45 51.9-159.45zM513.34-789.69c7.004-2.437 35.875-18.186 71.308 17.247 17.717 17.72 17.716 53.149 17.716 70.866l53.15-53.149s-29.066-86.87-107.62-53.592c-11.127 4.901-28.139 14.538-34.549 18.628zM523.8-795.94c8.839-2.869 36.676-6.325 64.596 18.501 17.717 17.72 18.966 42.933 18.966 60.65l40.65-37.933c3.44-3.21-24.832-81.252-99.241-54.034-4.498 1.807-14.779 6.302-24.971 12.816z" transform="matrix(-.24 0 0 .199 534.09 334.357)" stroke="#000" stroke-width="1.197" fill="#fff"/><path d="M344.54-596.29l9.152 22.141s1.455-9.767 8.526-11.534l7.071-1.768s26.864 49.328 32.168 58.167c5.302 8.838-3.536 16.793-1.769 16.793 1.769 0 26.517-11.49 26.517-11.49s-10.606.883-15.026-6.188l-34.819-59.934s6.187-2.652 11.49-5.303c5.304-2.652 10.607 7.955 10.607 7.955l-13.258-26.517s0 8.839-4.42 10.607c-4.419 1.767-7.955 3.535-7.955 3.535s-3.535-6.187-7.955-13.258c-4.419-7.071 4.42-14.142 4.42-14.142l-22.981 11.49s7.955 4.42 10.607 8.839l5.303 8.839s-3.223 1.768-8.214 3.482c-3.589 1.875-7.696.054-9.464-1.714z" transform="matrix(-.195 -.021 -.067 .173 439.546 337.121)" stroke="#000" stroke-width="1.197" fill="#fff133"/><path d="M344.54-596.29l9.152 22.141s1.455-9.767 8.526-11.534l7.071-1.768s26.864 49.328 32.168 58.167c5.302 8.838-3.536 16.793-1.769 16.793 1.769 0 26.517-11.49 26.517-11.49s-10.606.883-15.026-6.188l-34.819-59.934s6.187-2.652 11.49-5.303c5.304-2.652 10.607 7.955 10.607 7.955l-13.258-26.517s0 8.839-4.42 10.607c-4.419 1.767-7.955 3.535-7.955 3.535s-3.535-6.187-7.955-13.258c-4.419-7.071 4.42-14.142 4.42-14.142l-22.981 11.49s7.955 4.42 10.607 8.839l5.303 8.839s-3.223 1.768-8.214 3.482c-3.589 1.875-7.696.054-9.464-1.714z" transform="matrix(.178 .024 .003 -.133 320.605 95.229)" stroke="#000" stroke-width="1.197" fill="#fff133"/><g transform="matrix(.144 0 0 .121 423.643 295.291)"><g transform="rotate(45 478.12 -504.573)"><ellipse rx="35.433" ry="35.433" stroke="#000" transform="translate(124.01 283.46)" cy="-1428" cx="354.33" stroke-width="1.197" fill="#c0c0c0"/><path d="M460.63-1126.77v53.15h35.432l.001-53.15c0-17.717-35.433-17.717-35.433 0z" stroke="#000" stroke-width="1.197" fill="#fff133"/><path d="M442.91-1066.09h70.866c9.757-9.756 9.757-26.095 0-35.433-25.991-10.607-44.874-9.48-70.866 0-8.307 9.338-9.422 24.826 0 35.433z" stroke="#000" stroke-width="1.197" fill="#c0c0c0"/><path d="M442.91-1073.62v53.15h70.866v-53.15c-17.717-10.607-53.15-10.607-70.866 0z" stroke="#000" stroke-width="1.197" fill="#fff133"/><path d="M442.91-1012.94h70.866c9.757-9.756 9.757-26.095 0-35.433-25.991-10.607-44.874-9.48-70.866 0-8.307 9.338-9.422 24.826 0 35.433z" stroke="#000" stroke-width="1.197" fill="#c0c0c0"/><path fill="#fff133" d="M442.91-116.93h70.866v248.03h-70.866z"/><path d="M442.91-1020.476l.006 484.79h70.867l-.007-484.79c-17.717-10.607-53.15-10.607-70.866 0z" stroke="#000" stroke-width="1.197" fill="#fff133"/><path d="M442.92-506.698h70.866c9.757-9.756 9.757-26.095 0-35.433-25.991-10.607-44.874-9.48-70.866 0-8.307 9.338-9.422 24.826 0 35.433z" stroke="#000" stroke-width="1.197" fill="#c0c0c0"/><path d="M442.92-506.7v318.9h70.866v-318.9c-17.717-10.607-53.15-10.607-70.866 0zM425.19-329.53h106.3c9.757-9.756 9.757-26.095 0-35.433 0 0-17.716-17.716-53.149-17.716l-53.15 17.716c-7.122 9.338-6.284 24.001 0 35.433zM425.19-329.53l17.717 88.583h70.866l17.716-88.583c.274-3.727-17.716-17.716-53.149-17.716s-51.928 17.341-53.15 17.716z" stroke="#000" stroke-width="1.197" fill="#fff133"/><path d="M336.61-506.69c0-35.433 0-86.653 17.717-129.98 17.716 43.326 17.716 94.546 17.716 129.98h-35.433z" transform="matrix(1 0 0 .818 124.01 173.44)" stroke="#000" stroke-width="1.197" fill="#fff133"/><path d="M318.9-506.69h17.716v-43.326c0-43.327-35.433-64.99-35.433-64.99l17.717 108.32z" transform="matrix(-1 0 0 .818 832.67 173.44)" stroke="#000" stroke-width="1.197" fill="#fff133"/><path d="M318.9-506.69h17.716v-43.326c0-43.327-35.433-64.99-35.433-64.99l17.717 108.32z" transform="matrix(1 0 0 .818 124.01 173.44)" stroke="#000" stroke-width="1.197" fill="#fff133"/><path d="M478.34-116.93c17.716 88.582 17.716 159.45 17.716 177.16.031 33.655-17.716 53.15-17.716 53.15s-17.717-17.717-17.717-53.15c0-17.716 0-88.583 17.717-177.16zm-35.433-124.02c0 124.02-35.433 230.32-35.433 318.9 0 70.866 51.654 73.453 70.118 72.16 18.464-1.294 72.3-1.191 71.614-72.16 0-88.583-35.433-194.88-35.433-318.9-17.717-17.716-53.15-17.716-70.866 0z" stroke="#000" stroke-width="1.197" fill="#fff133"/><path d="M442.91-1020.476v53.15c0 35.433 17.716 177.16 17.716 177.16s-17.71 148.17-17.71 183.61v53.15c0-35.433 35.427-219.04 35.427-219.04s35.44 165.89 35.44 219.04v-53.15c0-35.433-17.717-183.61-17.724-183.61.007 0 17.717-124.02 17.717-159.45v-70.867c0 35.433-35.426 212.6-35.426 212.6s-35.44-177.17-35.44-212.6z" stroke="#000" stroke-width="1.197" fill="#c0c0c0"/></g><path transform="matrix(1.249 -1.421 1.359 1.317 -662.45 -102.64)" stroke="#000" stroke-width="1.197" fill="#fff133" d="M218.28 257.88h22.934v73.043h-22.934z"/><path d="M336.61 166.54c0 14.669 35.433 35.434 35.433-17.716h-35.433v17.716zM242.1 24.803c-147.06 0-113.13 164.24-100.37 124.02 9.359-29.503 35.433-70.866 64.935-80.225 40.225-12.761 26.696 9.359 41.364 9.359 14.67 0 1.14-22.12 41.364-9.359 29.503 9.359 55.577 50.722 64.936 80.225 12.76 40.224 53.149-124.02-112.23-124.02zM389.76 166.54c0 78.237-63.496 141.73-141.73 141.73-78.236 0-141.73-63.496-141.73-141.73v-17.716c.001-29.116 35.433 124.02 141.73 124.02s141.73-124.77 141.73-124.02v17.716z" transform="matrix(1.899 0 0 1.887 -662.45 -102.64)" stroke="#000" stroke-width="1.197" fill="#fff133"/><ellipse rx="18.433" ry="20.109" stroke="#000" transform="matrix(1.293 -1.382 1.391 1.284 -753.9 -120.02)" cy="160.86" cx="82.112" stroke-width="1.197" fill="#c0c0c0"/><path transform="matrix(1.251 -1.419 1.361 1.315 -662.45 -102.64)" stroke="#000" stroke-width="1.197" fill="#c0c0c0" d="M196.5 254.15h25.197v80.26h-25.197z"/><path d="M336.61 166.54c0 14.669 35.433 35.434 35.433-17.716h-35.433v17.716z" transform="matrix(-1.899 0 0 1.887 279.67 -100.51)" stroke="#000" stroke-width="1.197" fill="#fff133"/><path d="M389.76 148.82c0 78.236-63.496 141.73-141.73 141.73-78.236 0-141.73-63.496-141.73-141.73 0-78.236 63.496-141.73 141.73-141.73 78.237 0 141.73 63.496 141.73 141.73zm-53.15 0c0 14.669 22.812 3.042 9.359 43.04-9.359 27.826-27.075 45.543-56.578 54.902-40.225 12.76-26.694-9.359-41.364-9.359-14.668 0-1.14 22.119-41.364 9.359-29.502-9.359-47.218-27.076-56.577-56.578-12.76-40.224 9.359-26.695 9.359-41.364 0-14.67-22.119-1.139-9.359-41.364 9.359-29.502 27.075-47.219 56.577-56.578 40.225-12.761 26.696 9.359 41.364 9.359 14.67 0 1.14-22.12 41.364-9.359 29.503 9.359 47.219 27.075 56.578 56.578 12.76 40.224-9.359 26.694-9.359 41.364z" transform="matrix(1.899 0 0 1.887 -662.45 -102.64)" stroke="#000" stroke-width="1.197" fill="#fff133"/><path d="M126.55 157.68c-20.248 0-1.929 67.6-9.104 51.705s-11.144-33.368-11.144-51.705 3.969-35.809 11.144-51.705c7.175-15.894-11.144 51.705 9.104 51.705z" transform="matrix(1.662 0 0 1.761 -603.57 -99.519)" stroke="#000" stroke-width="1.197" fill="#fff133"/><path d="M372.05 139.96c0 15.892-2.13 31.632-9.751 44.811-7.965 13.775 9.751-44.811-7.965-44.811 17.716 0 1.687-58.587 7.965-44.811 6.279 13.776 9.751 28.919 9.751 44.811z" transform="matrix(1.899 0 0 2.032 -662.45 -106.24)" stroke="#000" stroke-width="1.197" fill="#fff133"/><path d="M296.29 263.08c-14.836 6.279-31.144 9.751-48.258 9.751s-33.422-3.472-48.257-9.751c-14.835-6.278 48.257 9.751 48.257-7.966 0 17.717 63.093 1.688 48.258 7.966zm-48.26-220.56c0-17.716-63.092-1.688-48.257-7.966s31.143-9.75 48.257-9.75 33.422 3.472 48.258 9.75c14.835 6.278-48.258-9.75-48.258 7.966z" transform="matrix(1.899 0 0 1.887 -662.45 -102.64)" stroke="#000" stroke-width="1.197" fill="#fff133"/><path d="M276.58 287.67c-9.223 1.889-18.773 2.881-28.552 2.881s-19.329-.992-28.553-2.881l-1.432 6.965c9.686 1.984 19.715 3.025 29.985 3.025s20.299-1.041 29.985-3.025l-1.433-6.965z" transform="matrix(1.293 -1.382 -1.391 -1.284 -305.22 712.05)" stroke="#000" stroke-width="1.197" fill="#c0c0c0"/><path d="M276.58 287.67c-9.223 1.889-18.773 2.881-28.552 2.881s-19.329-.992-28.553-2.881l-1.432 6.965c9.686 1.984 19.715 3.025 29.985 3.025s20.299-1.041 29.985-3.025l-1.433-6.965zM267.7 308.51c-9.223 1.889-20.189.927-29.969.927-9.778 0-19.285-2.612-28.509-4.501l8.821-10.303c9.686 1.984 19.715 3.025 29.985 3.025s20.299-1.041 29.985-3.025l-10.313 13.877z" transform="matrix(1.293 -1.382 1.391 1.284 -719.56 329.88)" stroke="#000" stroke-width="1.197" fill="#c0c0c0"/><path d="M276.58 287.67c-9.223 1.889-18.773 2.881-28.552 2.881s-19.329-.992-28.553-2.881l-1.432 6.965c9.686 1.984 19.715 3.025 29.985 3.025s20.299-1.041 29.985-3.025l-1.433-6.965z" transform="matrix(1.391 1.284 -1.293 1.382 -343.78 -345.21)" stroke="#000" stroke-width="1.197" fill="#c0c0c0"/><ellipse rx="18.433" ry="20.109" stroke="#000" transform="matrix(1.293 -1.382 1.391 1.284 -285.47 314.38)" cy="160.86" cx="82.112" stroke-width="1.197" fill="#c0c0c0"/><path d="M267.59 281.47c-9.223 1.889-17.098 2.943-26.877 2.943s-23.112-.712-32.336-2.601l9.672 12.822c9.686 1.984 19.715 3.025 29.985 3.025s20.299-1.041 29.985-3.025l-10.429-13.164z" transform="matrix(1.391 1.284 -1.293 1.382 -346.96 -315.18)" stroke="#000" stroke-width="1.197" fill="#c0c0c0"/><path d="M173.94 271.77l-.838 14.842-3.239 4.493.976-15.087 3.101-4.248zm156.6-6.17l3.562 4.189 1.047 13.616-2.933-2.933-1.676-14.872z" transform="matrix(1.899 0 0 1.887 -662.45 -102.64)" stroke="#000" stroke-width="1.197" fill="#c0c0c0"/><ellipse rx="18.433" ry="20.109" stroke="#000" transform="matrix(1.293 -1.382 1.391 1.284 -733.89 329.88)" cy="160.86" cx="82.112" stroke-width="1.197" fill="#c0c0c0"/><g stroke="#000" fill="#fff133"><path d="M834.181-843.274l40.653 39.753-40.653 39.751 20.326 19.878 40.653-39.753 81.305 79.505-40.653 39.753 20.328 19.876 40.651-39.751 40.653 39.751-121.958 119.258-81.305-79.505 40.653-39.753 20.326 19.878 20.326-19.878-81.305-79.505-20.326 19.878 20.326 19.876-40.651 39.751-40.653-39.751 20.326-19.878-20.326-19.876-81.305 79.505 20.326 19.876 20.326-19.876 40.653 39.753-40.651 39.751-20.326-19.876-20.328 19.876 81.305 79.505 20.328-19.876-20.328-19.878 40.653-39.751 81.305 79.505-121.958 119.258-40.653-39.753 40.653-39.751-20.326-19.876-40.653 39.751-81.305-79.505 40.653-39.753-20.328-19.876-40.651 39.753-40.653-39.753 284.576-278.276zM712.234-406.002v39.752l101.63 99.381v-79.505l-20.326-19.877h-40.652l-40.652-39.752zM610.595-504.564l80.748 78.96.961 39.48-81.71-79.901v-38.54zM691.904-386.122l40.652-39.752v-39.752l-40.652 39.752v39.752zM590.273-485.503l40.652-39.752v-39.752l-40.652 39.752v39.752zM630.925-565.009v39.752l20.327-19.877-20.327-19.876zM732.556-465.628v39.752l20.327-19.877-20.327-19.876zM549.213-565.009l41.057 39.752v39.752l-41.057-40.965v-38.54zM793.535-604.758l40.652-39.752v-39.752l-40.652 39.752v39.752zM712.231-525.26l40.652-39.752v-39.752l-40.652 39.752v39.752zM691.901-624.638l60.979-59.629v-39.752l-81.305 79.505 20.326 19.877zM752.883-724.016v39.752l20.327-19.877-20.327-19.876zM793.535-604.758l-40.652-39.752v-39.752l40.652 39.752v39.752zM895.163-624.638l-60.979-59.629v-39.752l81.305 79.505-20.326 19.877zM834.18-604.764l81.305 79.505h40.652l20.327 19.876v79.506l-142.288-139.531v-39.356zM752.883-366.242l121.958-119.258h40.652l-121.958 119.258h-40.652zM813.862-346.373l121.958-119.258-20.33-19.869-121.958 119.258 20.33 19.869zM813.862-346.373v79.505l121.958-119.258v-79.505l-121.958 119.258zM915.49-525.249l121.958-119.258h40.652l-121.958 119.258h-40.652zM976.469-505.38l121.958-119.258-20.33-19.869-121.958 119.258 20.33 19.869zM976.469-505.38v79.505l121.958-119.258v-79.505l-121.958 119.258zM956.15-644.507l20.327-19.877v-39.752l-40.652 39.752 20.326 19.877zM854.522-743.885l20.327-19.877v-39.752l-40.652 39.752 20.326 19.877zM752.886-485.5v-39.752l20.327 19.876-20.327 19.877zM712.231-525.26l-40.652-39.752 20.327-19.877 20.326 19.877v39.752zM834.192-684.267l-20.326-19.877 20.326-19.876v39.752z"/></g></g><g stroke="#000" stroke-width="17.958" fill="#b00"><path d="M456.64 274.784c-.508-.319-1.136-.137-1.254.364s.271 1.32.78 1.639l2.797 1.754c.508.319 1.136.137 1.254-.364.124-.523-.271-1.32-.78-1.639l-2.797-1.754zM456.623 272.736c-.512-.303-1.137-.101-1.25.403s.287 1.311.799 1.614l2.818 1.664c.512.303 1.137.101 1.25-.403.118-.527-.287-1.311-.799-1.614l-2.818-1.664zM456.684 270.502c-.508-.319-1.136-.137-1.254.364s.271 1.32.78 1.639l2.797 1.754c.508.319 1.136.137 1.254-.364.124-.523-.271-1.32-.78-1.639l-2.797-1.754zM456.666 268.453c-.512-.303-1.137-.101-1.25.403s.287 1.311.799 1.614l2.818 1.664c.512.303 1.137.101 1.25-.403.118-.527-.287-1.311-.799-1.614l-2.818-1.664zM456.55 283.348c-.508-.319-1.136-.137-1.254.364s.271 1.32.78 1.639l2.797 1.754c.508.319 1.136.137 1.254-.364.124-.523-.271-1.32-.78-1.639l-2.797-1.754zM456.534 281.3c-.512-.303-1.137-.101-1.25.403s.287 1.311.799 1.614l2.818 1.664c.512.303 1.137.101 1.25-.403.118-.527-.287-1.311-.799-1.614l-2.818-1.664zM456.595 279.066c-.508-.319-1.136-.137-1.254.364s.271 1.32.78 1.639l2.797 1.754c.508.319 1.136.137 1.254-.364.124-.523-.271-1.32-.78-1.639l-2.797-1.754zM456.578 277.018c-.512-.303-1.137-.101-1.25.403s.287 1.311.799 1.614l2.818 1.664c.512.303 1.137.101 1.25-.403.118-.527-.287-1.311-.799-1.614l-2.818-1.664zM456.816 257.655c-.508-.319-1.136-.137-1.254.364s.271 1.32.78 1.639l2.797 1.754c.508.319 1.136.137 1.254-.364.124-.523-.271-1.32-.78-1.639l-2.797-1.754zM456.8 255.608c-.512-.303-1.137-.101-1.25.403s.287 1.311.799 1.614l2.818 1.664c.512.303 1.137.101 1.25-.403.118-.527-.287-1.311-.799-1.614l-2.818-1.664zM456.86 253.375c-.508-.319-1.136-.137-1.254.364s.271 1.32.78 1.639l2.797 1.754c.508.319 1.136.137 1.254-.364.124-.523-.271-1.32-.78-1.639l-2.797-1.754zM456.844 251.326c-.512-.303-1.137-.101-1.25.403s.287 1.311.799 1.614l2.818 1.664c.512.303 1.137.101 1.25-.403.118-.527-.287-1.311-.799-1.614l-2.818-1.664zM456.728 266.22c-.508-.319-1.136-.137-1.254.364s.271 1.32.78 1.639l2.797 1.754c.508.319 1.136.137 1.254-.364.124-.523-.271-1.32-.78-1.639l-2.797-1.754zM456.711 264.172c-.512-.303-1.137-.101-1.25.403s.287 1.311.799 1.614l2.818 1.664c.512.303 1.137.101 1.25-.403.118-.527-.287-1.311-.799-1.614l-2.818-1.664zM456.772 261.938c-.508-.319-1.136-.137-1.254.364s.271 1.32.78 1.639l2.797 1.754c.508.319 1.136.137 1.254-.364.124-.523-.271-1.32-.78-1.639l-2.797-1.754zM456.756 259.89c-.512-.303-1.137-.101-1.25.403s.287 1.311.799 1.614l2.818 1.664c.512.303 1.137.101 1.25-.403.118-.527-.287-1.311-.799-1.614l-2.818-1.664zM456.285 309.04c-.508-.319-1.136-.137-1.254.364s.271 1.32.78 1.639l2.797 1.754c.508.319 1.136.137 1.254-.364.124-.523-.271-1.32-.78-1.639l-2.797-1.754zM456.269 306.992c-.512-.303-1.137-.101-1.25.403s.287 1.311.799 1.614l2.818 1.664c.512.303 1.137.101 1.25-.403.118-.527-.287-1.311-.799-1.614l-2.818-1.664zM456.33 304.758c-.508-.319-1.136-.137-1.254.364s.271 1.32.78 1.639l2.797 1.754c.508.319 1.136.137 1.254-.364.124-.523-.271-1.32-.78-1.639l-2.797-1.754zM456.313 302.71c-.512-.303-1.137-.101-1.25.403s.287 1.311.799 1.614l2.818 1.664c.512.303 1.137.101 1.25-.403.118-.527-.287-1.311-.799-1.614l-2.818-1.664zM456.197 317.603c-.508-.319-1.136-.137-1.254.364s.271 1.32.78 1.639l2.797 1.754c.508.319 1.136.137 1.254-.364.124-.523-.271-1.32-.78-1.639l-2.797-1.754zM456.18 315.556c-.512-.303-1.137-.101-1.25.403s.287 1.311.799 1.614l2.818 1.664c.512.303 1.137.101 1.25-.403.118-.527-.287-1.311-.799-1.614l-2.818-1.664zM456.241 313.322c-.508-.319-1.136-.137-1.254.364s.271 1.32.78 1.639l2.797 1.754c.508.319 1.136.137 1.254-.364.124-.523-.271-1.32-.78-1.639l-2.797-1.754zM456.224 311.274c-.512-.303-1.137-.101-1.25.403s.287 1.311.799 1.614l2.818 1.664c.512.303 1.137.101 1.25-.403.118-.527-.287-1.311-.799-1.614l-2.818-1.664zM456.462 291.912c-.508-.319-1.136-.137-1.254.364s.271 1.32.78 1.639l2.797 1.754c.508.319 1.136.137 1.254-.364.124-.523-.271-1.32-.78-1.639l-2.797-1.754zM456.446 289.864c-.512-.303-1.137-.101-1.25.403s.287 1.311.799 1.614l2.818 1.664c.512.303 1.137.101 1.25-.403.118-.527-.287-1.311-.799-1.614l-2.818-1.664zM456.507 287.63c-.508-.319-1.136-.137-1.254.364s.271 1.32.78 1.639l2.797 1.754c.508.319 1.136.137 1.254-.364.124-.523-.271-1.32-.78-1.639l-2.797-1.754zM456.49 285.582c-.512-.303-1.137-.101-1.25.403s.287 1.311.799 1.614l2.818 1.664c.512.303 1.137.101 1.25-.403.118-.527-.287-1.311-.799-1.614l-2.818-1.664zM456.374 300.475c-.508-.319-1.136-.137-1.254.364s.271 1.32.78 1.639l2.797 1.754c.508.319 1.136.137 1.254-.364.124-.523-.271-1.32-.78-1.639l-2.797-1.754zM456.357 298.428c-.512-.303-1.137-.101-1.25.403s.287 1.311.799 1.614l2.818 1.664c.512.303 1.137.101 1.25-.403.118-.527-.287-1.311-.799-1.614l-2.818-1.664zM456.418 296.194c-.508-.319-1.136-.137-1.254.364s.271 1.32.78 1.639l2.797 1.754c.508.319 1.136.137 1.254-.364.124-.523-.271-1.32-.78-1.639l-2.797-1.754zM456.401 294.146c-.512-.303-1.137-.101-1.25.403s.287 1.311.799 1.614l2.818 1.664c.512.303 1.137.101 1.25-.403.118-.527-.287-1.311-.799-1.614l-2.818-1.664zM455.931 343.295c-.508-.319-1.136-.137-1.254.364s.271 1.32.78 1.639l2.797 1.754c.508.319 1.136.137 1.254-.364.124-.523-.271-1.32-.78-1.639l-2.797-1.754zM455.915 341.248c-.512-.303-1.137-.101-1.25.403s.287 1.311.799 1.614l2.818 1.664c.512.303 1.137.101 1.25-.403.118-.527-.287-1.311-.799-1.614l-2.818-1.664zM455.976 339.014c-.508-.319-1.136-.137-1.254.364s.271 1.32.78 1.639l2.797 1.754c.508.319 1.136.137 1.254-.364.124-.523-.271-1.32-.78-1.639l-2.797-1.754zM455.959 336.965c-.512-.303-1.137-.101-1.25.403s.287 1.311.799 1.614l2.818 1.664c.512.303 1.137.101 1.25-.403.118-.527-.287-1.311-.799-1.614l-2.818-1.664zM455.826 349.812c-.512-.303-1.137-.101-1.25.403s.287 1.311.799 1.614l2.818 1.664c.512.303 1.137.101 1.25-.403.118-.527-.287-1.311-.799-1.614l-2.818-1.664zM455.887 347.577c-.508-.319-1.136-.137-1.254.364s.271 1.32.78 1.639l2.797 1.754c.508.319 1.136.137 1.254-.364.124-.523-.271-1.32-.78-1.639l-2.797-1.754zM455.87 345.53c-.512-.303-1.137-.101-1.25.403s.287 1.311.799 1.614l2.818 1.664c.512.303 1.137.101 1.25-.403.118-.527-.287-1.311-.799-1.614l-2.818-1.664zM456.108 326.168c-.508-.319-1.136-.137-1.254.364s.271 1.32.78 1.639l2.797 1.754c.508.319 1.136.137 1.254-.364.124-.523-.271-1.32-.78-1.639l-2.797-1.754zM456.092 324.119c-.512-.303-1.137-.101-1.25.403s.287 1.311.799 1.614l2.818 1.664c.512.303 1.137.101 1.25-.403.118-.527-.287-1.311-.799-1.614l-2.818-1.664zM456.153 321.886c-.508-.319-1.136-.137-1.254.364s.271 1.32.78 1.639l2.797 1.754c.508.319 1.136.137 1.254-.364.124-.523-.271-1.32-.78-1.639l-2.797-1.754zM456.136 319.838c-.512-.303-1.137-.101-1.25.403s.287 1.311.799 1.614l2.818 1.664c.512.303 1.137.101 1.25-.403.118-.527-.287-1.311-.799-1.614l-2.818-1.664zM456.02 334.732c-.508-.319-1.136-.137-1.254.364s.271 1.32.78 1.639l2.797 1.754c.508.319 1.136.137 1.254-.364.124-.523-.271-1.32-.78-1.639l-2.797-1.754zM456.003 332.684c-.512-.303-1.137-.101-1.25.403s.287 1.311.799 1.614l2.818 1.664c.512.303 1.137.101 1.25-.403.118-.527-.287-1.311-.799-1.614l-2.818-1.664zM456.064 330.45c-.508-.319-1.136-.137-1.254.364s.271 1.32.78 1.639l2.797 1.754c.508.319 1.136.137 1.254-.364.124-.523-.271-1.32-.78-1.639l-2.797-1.754zM456.047 328.402c-.512-.303-1.137-.101-1.25.403s.287 1.311.799 1.614l2.818 1.664c.512.303 1.137.101 1.25-.403.118-.527-.287-1.311-.799-1.614l-2.818-1.664zM455.709 364.815c-.508-.319-1.136-.137-1.254.364s.271 1.32.78 1.639l2.797 1.754c.508.319 1.136.137 1.254-.364.124-.523-.271-1.32-.78-1.639l-2.797-1.754zM455.692 362.766c-.512-.303-1.137-.101-1.25.403s.287 1.311.799 1.614l2.818 1.664c.512.303 1.137.101 1.25-.403.118-.527-.287-1.311-.799-1.614l-2.818-1.664zM455.753 360.533c-.508-.319-1.136-.137-1.254.364s.271 1.32.78 1.639l2.797 1.754c.508.319 1.136.137 1.254-.364.124-.523-.271-1.32-.78-1.639l-2.797-1.754zM455.736 358.485c-.512-.303-1.137-.101-1.25.403s.287 1.311.799 1.614l2.818 1.664c.512.303 1.137.101 1.25-.403.118-.527-.287-1.311-.799-1.614l-2.818-1.664zM455.604 371.331c-.512-.303-1.137-.101-1.25.403s.287 1.311.799 1.614l2.818 1.664c.512.303 1.137.101 1.25-.403.118-.527-.287-1.311-.799-1.614l-2.818-1.664zM455.665 369.096c-.508-.319-1.136-.137-1.254.364s.271 1.32.78 1.639l2.797 1.754c.508.319 1.136.137 1.254-.364.124-.523-.271-1.32-.78-1.639l-2.797-1.754zM455.648 367.049c-.512-.303-1.137-.101-1.25.403s.287 1.311.799 1.614l2.818 1.664c.512.303 1.137.101 1.25-.403.118-.527-.287-1.311-.799-1.614l-2.818-1.664zM455.797 356.25c-.508-.319-1.136-.137-1.254.364s.271 1.32.78 1.639l2.797 1.754c.508.319 1.136.137 1.254-.364.124-.523-.271-1.32-.78-1.639l-2.797-1.754zM455.781 354.203c-.512-.303-1.137-.101-1.25.403s.287 1.311.799 1.614l2.818 1.664c.512.303 1.137.101 1.25-.403.118-.527-.287-1.311-.799-1.614l-2.818-1.664zM455.842 351.969c-.508-.319-1.136-.137-1.254.364s.271 1.32.78 1.639l2.797 1.754c.508.319 1.136.137 1.254-.364.124-.523-.271-1.32-.78-1.639l-2.797-1.754z"/></g><g stroke="#000" stroke-width="17.958" fill="#b00"><path d="M459.517 275.022c-.513-.314-1.137-.127-1.249.375s.289 1.318.801 1.632l2.82 1.729c.513.314 1.137.127 1.249-.375.117-.524-.289-1.318-.801-1.632l-2.82-1.729zM459.476 272.971c-.516-.298-1.139-.09-1.245.415s.304 1.308.82 1.606l2.839 1.637c.516.298 1.139.09 1.245-.415.111-.528-.304-1.308-.82-1.606l-2.839-1.637zM459.503 270.74c-.513-.314-1.137-.127-1.249.375s.289 1.318.801 1.632l2.82 1.729c.513.314 1.137.127 1.249-.375.117-.524-.289-1.318-.801-1.632l-2.82-1.729zM459.463 268.688c-.516-.298-1.139-.09-1.245.415s.304 1.308.82 1.606l2.839 1.637c.516.298 1.139.09 1.245-.415.111-.528-.304-1.308-.82-1.606l-2.839-1.637zM459.544 283.586c-.513-.314-1.137-.127-1.249.375s.289 1.318.801 1.632l2.82 1.729c.513.314 1.137.127 1.249-.375.117-.524-.289-1.318-.801-1.632l-2.82-1.729zM459.503 281.535c-.516-.298-1.139-.09-1.245.415s.304 1.308.82 1.606l2.839 1.637c.516.298 1.139.09 1.245-.415.111-.528-.304-1.308-.82-1.606l-2.839-1.637zM459.53 279.304c-.513-.314-1.137-.127-1.249.375s.289 1.318.801 1.632l2.82 1.729c.513.314 1.137.127 1.249-.375.117-.524-.289-1.318-.801-1.632l-2.82-1.729zM459.49 277.253c-.516-.298-1.139-.09-1.245.415s.304 1.308.82 1.606l2.839 1.637c.516.298 1.139.09 1.245-.415.111-.528-.304-1.308-.82-1.606l-2.839-1.637zM459.463 257.894c-.513-.314-1.137-.127-1.249.375s.289 1.318.801 1.632l2.82 1.729c.513.314 1.137.127 1.249-.375.117-.524-.289-1.318-.801-1.632l-2.82-1.729zM459.422 255.843c-.516-.298-1.139-.09-1.245.415s.304 1.308.82 1.606l2.839 1.637c.516.298 1.139.09 1.245-.415.111-.528-.304-1.308-.82-1.606l-2.839-1.637zM459.45 253.612c-.513-.314-1.137-.127-1.249.375s.289 1.318.801 1.632l2.82 1.729c.513.314 1.137.127 1.249-.375.117-.524-.289-1.318-.801-1.632l-2.82-1.729zM459.409 251.56c-.516-.298-1.139-.09-1.245.415s.304 1.308.82 1.606l2.839 1.637c.516.298 1.139.09 1.245-.415.111-.528-.304-1.308-.82-1.606l-2.839-1.637zM459.49 266.458c-.513-.314-1.137-.127-1.249.375s.289 1.318.801 1.632l2.82 1.729c.513.314 1.137.127 1.249-.375.117-.524-.289-1.318-.801-1.632l-2.82-1.729zM459.449 264.406c-.516-.298-1.139-.09-1.245.415s.304 1.308.82 1.606l2.839 1.637c.516.298 1.139.09 1.245-.415.111-.528-.304-1.308-.82-1.606l-2.839-1.637zM459.476 262.175c-.513-.314-1.137-.127-1.249.375s.289 1.318.801 1.632l2.82 1.729c.513.314 1.137.127 1.249-.375.117-.524-.289-1.318-.801-1.632l-2.82-1.729zM459.436 260.125c-.516-.298-1.139-.09-1.245.415s.304 1.308.82 1.606l2.839 1.637c.516.298 1.139.09 1.245-.415.111-.528-.304-1.308-.82-1.606l-2.839-1.637zM459.625 309.28c-.513-.314-1.137-.127-1.249.375s.289 1.318.801 1.632l2.82 1.729c.513.314 1.137.127 1.249-.375.117-.524-.289-1.318-.801-1.632l-2.82-1.729zM459.584 307.228c-.516-.298-1.139-.09-1.245.415s.304 1.308.82 1.606l2.839 1.637c.516.298 1.139.09 1.245-.415.111-.528-.304-1.308-.82-1.606l-2.839-1.637zM459.611 304.997c-.513-.314-1.137-.127-1.249.375s.289 1.318.801 1.632l2.82 1.729c.513.314 1.137.127 1.249-.375.117-.524-.289-1.318-.801-1.632l-2.82-1.729zM459.571 302.946c-.516-.298-1.139-.09-1.245.415s.304 1.308.82 1.606l2.839 1.637c.516.298 1.139.09 1.245-.415.111-.528-.304-1.308-.82-1.606l-2.839-1.637zM459.652 317.844c-.513-.314-1.137-.127-1.249.375s.289 1.318.801 1.632l2.82 1.729c.513.314 1.137.127 1.249-.375.117-.524-.289-1.318-.801-1.632l-2.82-1.729zM459.611 315.793c-.516-.298-1.139-.09-1.245.415s.304 1.308.82 1.606l2.839 1.637c.516.298 1.139.09 1.245-.415.111-.528-.304-1.308-.82-1.606l-2.839-1.637zM459.638 313.561c-.513-.314-1.137-.127-1.249.375s.289 1.318.801 1.632l2.82 1.729c.513.314 1.137.127 1.249-.375.117-.524-.289-1.318-.801-1.632l-2.82-1.729zM459.598 311.511c-.516-.298-1.139-.09-1.245.415s.304 1.308.82 1.606l2.839 1.637c.516.298 1.139.09 1.245-.415.111-.528-.304-1.308-.82-1.606l-2.839-1.637zM459.57 292.151c-.513-.314-1.137-.127-1.249.375s.289 1.318.801 1.632l2.82 1.729c.513.314 1.137.127 1.249-.375.117-.524-.289-1.318-.801-1.632l-2.82-1.729zM459.53 290.1c-.516-.298-1.139-.09-1.245.415s.304 1.308.82 1.606l2.839 1.637c.516.298 1.139.09 1.245-.415.111-.528-.304-1.308-.82-1.606l-2.839-1.637zM459.557 287.869c-.513-.314-1.137-.127-1.249.375s.289 1.318.801 1.632l2.82 1.729c.513.314 1.137.127 1.249-.375.117-.524-.289-1.318-.801-1.632l-2.82-1.729zM459.517 285.818c-.516-.298-1.139-.09-1.245.415s.304 1.308.82 1.606l2.839 1.637c.516.298 1.139.09 1.245-.415.111-.528-.304-1.308-.82-1.606l-2.839-1.637zM459.598 300.715c-.513-.314-1.137-.127-1.249.375s.289 1.318.801 1.632l2.82 1.729c.513.314 1.137.127 1.249-.375.117-.524-.289-1.318-.801-1.632l-2.82-1.729zM459.558 298.664c-.516-.298-1.139-.09-1.245.415s.304 1.308.82 1.606l2.839 1.637c.516.298 1.139.09 1.245-.415.111-.528-.304-1.308-.82-1.606l-2.839-1.637zM459.584 296.433c-.513-.314-1.137-.127-1.249.375s.289 1.318.801 1.632l2.82 1.729c.513.314 1.137.127 1.249-.375.117-.524-.289-1.318-.801-1.632l-2.82-1.729zM459.544 294.382c-.516-.298-1.139-.09-1.245.415s.304 1.308.82 1.606l2.839 1.637c.516.298 1.139.09 1.245-.415.111-.528-.304-1.308-.82-1.606l-2.839-1.637zM459.732 343.536c-.513-.314-1.137-.127-1.249.375s.289 1.318.801 1.632l2.82 1.729c.513.314 1.137.127 1.249-.375.117-.524-.289-1.318-.801-1.632l-2.82-1.729zM459.692 341.486c-.516-.298-1.139-.09-1.245.415s.304 1.308.82 1.606l2.839 1.637c.516.298 1.139.09 1.245-.415.111-.528-.304-1.308-.82-1.606l-2.839-1.637zM459.719 339.254c-.513-.314-1.137-.127-1.249.375s.289 1.318.801 1.632l2.82 1.729c.513.314 1.137.127 1.249-.375.117-.524-.289-1.318-.801-1.632l-2.82-1.729zM459.678 337.203c-.516-.298-1.139-.09-1.245.415s.304 1.308.82 1.606l2.839 1.637c.516.298 1.139.09 1.245-.415.111-.528-.304-1.308-.82-1.606l-2.839-1.637zM459.719 350.049c-.516-.298-1.139-.09-1.245.415s.304 1.308.82 1.606l2.839 1.637c.516.298 1.139.09 1.245-.415.111-.528-.304-1.308-.82-1.606l-2.839-1.637zM459.746 347.818c-.513-.314-1.137-.127-1.249.375s.289 1.318.801 1.632l2.82 1.729c.513.314 1.137.127 1.249-.375.117-.524-.289-1.318-.801-1.632l-2.82-1.729zM459.705 345.768c-.516-.298-1.139-.09-1.245.415s.304 1.308.82 1.606l2.839 1.637c.516.298 1.139.09 1.245-.415.111-.528-.304-1.308-.82-1.606l-2.839-1.637zM459.679 326.408c-.513-.314-1.137-.127-1.249.375s.289 1.318.801 1.632l2.82 1.729c.513.314 1.137.127 1.249-.375.117-.524-.289-1.318-.801-1.632l-2.82-1.729zM459.638 324.356c-.516-.298-1.139-.09-1.245.415s.304 1.308.82 1.606l2.839 1.637c.516.298 1.139.09 1.245-.415.111-.528-.304-1.308-.82-1.606l-2.839-1.637zM459.665 322.126c-.513-.314-1.137-.127-1.249.375s.289 1.318.801 1.632l2.82 1.729c.513.314 1.137.127 1.249-.375.117-.524-.289-1.318-.801-1.632l-2.82-1.729zM459.625 320.074c-.516-.298-1.139-.09-1.245.415s.304 1.308.82 1.606l2.839 1.637c.516.298 1.139.09 1.245-.415.111-.528-.304-1.308-.82-1.606l-2.839-1.637zM459.705 334.973c-.513-.314-1.137-.127-1.249.375s.289 1.318.801 1.632l2.82 1.729c.513.314 1.137.127 1.249-.375.117-.524-.289-1.318-.801-1.632l-2.82-1.729zM459.665 332.921c-.516-.298-1.139-.09-1.245.415s.304 1.308.82 1.606l2.839 1.637c.516.298 1.139.09 1.245-.415.111-.528-.304-1.308-.82-1.606l-2.839-1.637zM459.692 330.69c-.513-.314-1.137-.127-1.249.375s.289 1.318.801 1.632l2.82 1.729c.513.314 1.137.127 1.249-.375.117-.524-.289-1.318-.801-1.632l-2.82-1.729zM459.652 328.639c-.516-.298-1.139-.09-1.245.415s.304 1.308.82 1.606l2.839 1.637c.516.298 1.139.09 1.245-.415.111-.528-.304-1.308-.82-1.606l-2.839-1.637zM459.8 365.056c-.513-.314-1.137-.127-1.249.375s.289 1.318.801 1.632l2.82 1.729c.513.314 1.137.127 1.249-.375.117-.524-.289-1.318-.801-1.632l-2.82-1.729zM459.76 363.005c-.516-.298-1.139-.09-1.245.415s.304 1.308.82 1.606l2.839 1.637c.516.298 1.139.09 1.245-.415.111-.528-.304-1.308-.82-1.606l-2.839-1.637zM459.787 360.774c-.513-.314-1.137-.127-1.249.375s.289 1.318.801 1.632l2.82 1.729c.513.314 1.137.127 1.249-.375.117-.524-.289-1.318-.801-1.632l-2.82-1.729zM459.746 358.723c-.516-.298-1.139-.09-1.245.415s.304 1.308.82 1.606l2.839 1.637c.516.298 1.139.09 1.245-.415.111-.528-.304-1.308-.82-1.606l-2.839-1.637zM459.787 371.569c-.516-.298-1.139-.09-1.245.415s.304 1.308.82 1.606l2.839 1.637c.516.298 1.139.09 1.245-.415.111-.528-.304-1.308-.82-1.606l-2.839-1.637zM459.814 369.338c-.513-.314-1.137-.127-1.249.375s.289 1.318.801 1.632l2.82 1.729c.513.314 1.137.127 1.249-.375.117-.524-.289-1.318-.801-1.632l-2.82-1.729zM459.773 367.288c-.516-.298-1.139-.09-1.245.415s.304 1.308.82 1.606l2.839 1.637c.516.298 1.139.09 1.245-.415.111-.528-.304-1.308-.82-1.606l-2.839-1.637zM459.773 356.492c-.513-.314-1.137-.127-1.249.375s.289 1.318.801 1.632l2.82 1.729c.513.314 1.137.127 1.249-.375.117-.524-.289-1.318-.801-1.632l-2.82-1.729zM459.733 354.441c-.516-.298-1.139-.09-1.245.415s.304 1.308.82 1.606l2.839 1.637c.516.298 1.139.09 1.245-.415.111-.528-.304-1.308-.82-1.606l-2.839-1.637zM459.76 352.21c-.513-.314-1.137-.127-1.249.375s.289 1.318.801 1.632l2.82 1.729c.513.314 1.137.127 1.249-.375.117-.524-.289-1.318-.801-1.632l-2.82-1.729z"/></g><g stroke="#000" stroke-width="12.791" fill="#b00"><path d="M469.345 260.929c-.639-.159-1.187.186-1.096.692s.822 1.17 1.461 1.329l3.516.877c.639.159 1.187-.186 1.096-.692-.096-.528-.822-1.17-1.461-1.329l-3.516-.877zM470.34 261.487c-.178-.513-.841-.691-1.326-.356s-.792 1.183-.614 1.696l.978 2.822c.178.513.841.691 1.326.356.507-.35.792-1.183.614-1.696l-.978-2.822zM470.077 261.138c-.466-.382-1.156-.285-1.379.193s.02 1.339.486 1.721l2.565 2.101c.466.382 1.156.285 1.379-.193.233-.5-.02-1.339-.486-1.721l-2.565-2.101zM468.474 262.861c.39-.433.146-.954-.487-1.042s-1.656.257-2.046.69l-2.144 2.381c-.39.433-.146.954.487 1.042.662.092 1.656-.257 2.046-.69l2.144-2.381zM471.062 262.801c.369-.436.099-.955-.539-1.037s-1.644.27-2.013.706l-2.027 2.397c-.369.436-.099.955.539 1.037.666.087 1.644-.27 2.013-.706l2.027-2.397zM457.802 262.943c.409-.421.19-.949-.439-1.055s-1.667.209-2.076.63l-2.251 2.317c-.409.421-.19.949.439 1.055.657.111 1.667-.209 2.076-.63l2.251-2.317zM460.383 262.957c.389-.424.144-.95-.49-1.052s-1.656.222-2.044.646l-2.138 2.335c-.389.424-.144.95.49 1.052.662.106 1.656-.222 2.044-.646l2.138-2.335zM463.195 263.04c.409-.421.19-.949-.439-1.055s-1.667.209-2.076.63l-2.251 2.317c-.409.421-.19.949.439 1.055.657.111 1.667-.209 2.076-.63l2.251-2.317zM465.668 262.863c.369-.436.099-.955-.539-1.037s-1.644.27-2.013.706l-2.027 2.397c-.369.436-.099.955.539 1.037.666.087 1.644-.27 2.013-.706l2.027-2.397zM454.337 262.035c.409-.421.19-.949-.439-1.055s-1.667.209-2.076.63l-2.251 2.317c-.409.421-.19.949.439 1.055.657.111 1.667-.209 2.076-.63l2.251-2.317zM455.574 262.87c.449-.385.285-.93-.329-1.091s-1.677.065-2.126.45l-2.471 2.118c-.449.385-.285.93.329 1.091.641.167 1.677-.065 2.126-.45l2.471-2.118zM452.487 262.353c.594-.247.673-.799.157-1.104s-1.624-.364-2.218-.118l-3.266 1.356c-.594.247-.673.799-.157 1.104.538.319 1.624.364 2.218.118l3.266-1.356z"/></g><g stroke="#000" stroke-width="12.791" fill="#b00"><path d="M504.648 351.248c.516.31.497.866-.038 1.11s-1.586.179-2.102-.131l-2.837-1.707c-.516-.31-.497-.866.038-1.11.559-.256 1.586-.179 2.102.131l2.837 1.707zM506.985 350.648c.499.319.456.878-.084 1.119s-1.58.163-2.078-.155l-2.742-1.752c-.499-.319-.456-.878.084-1.119.565-.252 1.58-.163 2.078.155l2.742 1.752zM509.515 349.929c.516.31.497.866-.038 1.11s-1.586.179-2.102-.131l-2.837-1.707c-.516-.31-.497-.866.038-1.11.559-.256 1.586-.179 2.102.131l2.837 1.707zM511.852 349.329c.499.319.456.878-.084 1.119s-1.58.163-2.078-.155l-2.742-1.752c-.499-.319-.456-.878.084-1.119.565-.252 1.58-.163 2.078.155l2.742 1.752zM522.103 341.569c.615-.101 1.087.297.944.796s-.902 1.098-1.518 1.198l-3.385.553c-.615.101-1.087-.297-.944-.796.15-.521.902-1.098 1.518-1.198l3.385-.553zM520.355 337.848c.406-.409 1.067-.354 1.321.11s.102 1.338-.305 1.747l-2.235 2.251c-.406.409-1.067.354-1.321-.11-.265-.485-.102-1.338.305-1.747l2.235-2.251zM523.139 339.509c.62-.117 1.104.264.967.761s-.893 1.112-1.513 1.229l-3.41.643c-.62.117-1.104-.264-.967-.761.143-.52.893-1.112 1.513-1.229l3.41-.643zM495.022 353.547c.482.347.406.899-.152 1.104s-1.598.064-2.08-.282l-2.65-1.906c-.482-.347-.406-.899.152-1.104.583-.215 1.598-.064 2.08.282l2.65 1.906zM497.409 353.119c.464.353.365.908-.198 1.109s-1.591.049-2.055-.304l-2.553-1.943c-.464-.353-.365-.908.198-1.109.589-.21 1.591-.049 2.055.304l2.553 1.943zM499.991 352.115c.529.295.534.85.009 1.111s-1.578.227-2.107-.068l-2.91-1.621c-.529-.295-.534-.85-.009-1.111.548-.273 1.578-.227 2.107.068l2.91 1.621zM501.998 352.023c.444.371.315.921-.259 1.101s-1.592-.011-2.037-.382l-2.444-2.038c-.444-.371-.315-.921.259-1.101.6-.188 1.592.011 2.037.382l2.444 2.038zM514.382 348.61c.516.31.497.866-.038 1.11s-1.586.179-2.102-.131l-2.837-1.707c-.516-.31-.497-.866.038-1.11.559-.256 1.586-.179 2.102.131l2.837 1.707zM516.718 348.01c.499.319.456.878-.084 1.119s-1.58.163-2.078-.155l-2.742-1.752c-.499-.319-.456-.878.084-1.119.565-.252 1.58-.163 2.078.155l2.742 1.752zM464.03 356.182c.388.421.18.948-.416 1.054s-1.581-.208-1.969-.629l-2.136-2.315c-.388-.421-.18-.948.416-1.054.623-.111 1.581.208 1.969.629l2.136 2.315zM466.474 356.159c.369.424.137.951-.463 1.052s-1.57-.221-1.939-.646l-2.029-2.335c-.369-.424-.137-.951.463-1.052.628-.106 1.57.221 1.939.646l2.029 2.335zM469.143 356.082c.388.421.18.948-.416 1.054s-1.581-.208-1.969-.629l-2.136-2.315c-.388-.421-.18-.948.416-1.054.623-.111 1.581.208 1.969.629l2.136 2.315zM471.59 356.061c.369.424.137.951-.463 1.052s-1.57-.221-1.939-.646l-2.029-2.335c-.369-.424-.137-.951.463-1.052.628-.106 1.57.221 1.939.646l2.029 2.335zM453.801 356.379c.388.421.18.948-.416 1.054s-1.581-.208-1.969-.629l-2.136-2.315c-.388-.421-.18-.948.416-1.054.623-.111 1.581.208 1.969.629l2.136 2.315zM456.247 356.356c.369.424.137.951-.463 1.052s-1.57-.221-1.939-.646l-2.029-2.335c-.369-.424-.137-.951.463-1.052.628-.106 1.57.221 1.939.646l2.029 2.335zM458.915 356.279c.388.421.18.948-.416 1.054s-1.581-.208-1.969-.629l-2.136-2.315c-.388-.421-.18-.948.416-1.054.623-.111 1.581.208 1.969.629l2.136 2.315zM461.361 356.258c.369.424.137.951-.463 1.052s-1.57-.221-1.939-.646l-2.029-2.335c-.369-.424-.137-.951.463-1.052.628-.106 1.57.221 1.939.646l2.029 2.335zM484.692 355.251c.441.383.303.926-.276 1.086s-1.599-.063-2.04-.446l-2.424-2.107c-.441-.383-.303-.926.276-1.086.605-.167 1.599.063 2.04.446l2.424 2.107zM487.238 354.888c.436.377.295.925-.283 1.096s-1.591-.035-2.027-.412l-2.399-2.074c-.436-.377-.295-.925.283-1.096.604-.179 1.591.035 2.027.412l2.399 2.074zM489.864 354.495c.455.371.337.918-.235 1.093s-1.6-.021-2.055-.392l-2.502-2.042c-.455-.371-.337-.918.235-1.093.598-.183 1.6.021 2.055.392l2.502 2.042zM492.426 354.082c.464.353.365.908-.198 1.109s-1.591.049-2.055-.304l-2.553-1.943c-.464-.353-.365-.908.198-1.109.589-.21 1.591-.049 2.055.304l2.553 1.943zM474.257 355.984c.388.421.18.948-.416 1.054s-1.581-.208-1.969-.629l-2.136-2.315c-.388-.421-.18-.948.416-1.054.623-.111 1.581.208 1.969.629l2.136 2.315zM476.782 355.723c.4.404.209.941-.383 1.075s-1.584-.137-1.984-.541l-2.202-2.222c-.4-.404-.209-.941.383-1.075.618-.14 1.584.137 1.984.541l2.202 2.222zM479.525 355.405c.443.381.308.926-.27 1.089s-1.599-.055-2.042-.437l-2.436-2.097c-.443-.381-.308-.926.27-1.089.604-.17 1.599.055 2.042.437l2.436 2.097zM481.849 355.355c.392.41.19.944-.404 1.069s-1.581-.159-1.973-.569l-2.157-2.253c-.392-.41-.19-.944.404-1.069.621-.131 1.581.159 1.973.569l2.157 2.253zM422.744 355.138c.292.473-.026.961-.635.976s-1.511-.442-1.803-.915l-1.606-2.6c-.292-.473.026-.961.635-.976.637-.016 1.511.442 1.803.915l1.606 2.6zM425.154 355.488c.272.473-.068.956-.681.966s-1.497-.453-1.77-.926l-1.497-2.602c-.272-.473.068-.956.681-.966.64-.01 1.497.453 1.77.926l1.497 2.602zM428.017 355.664c.348.445.092.957-.512 1.025s-1.557-.31-1.906-.755l-1.916-2.448c-.348-.445-.092-.957.512-1.025.632-.07 1.557.31 1.906.755l1.916 2.448zM430.458 355.805c.328.447.049.957-.56 1.019s-1.545-.322-1.874-.77l-1.807-2.459c-.328-.447-.049-.957.56-1.019.636-.065 1.545.322 1.874.77l1.807 2.459zM415.049 354.147c.272.473-.068.956-.681.966s-1.497-.453-1.77-.926l-1.497-2.602c-.272-.473.068-.956.681-.966.64-.01 1.497.453 1.77.926l1.497 2.602zM417.691 354.467c.292.473-.026.961-.635.976s-1.511-.442-1.803-.915l-1.606-2.6c-.292-.473.026-.961.635-.976.637-.016 1.511.442 1.803.915l1.606 2.6zM420.102 354.817c.272.473-.068.956-.681.966s-1.497-.453-1.77-.926l-1.497-2.602c-.272-.473.068-.956.681-.966.64-.01 1.497.453 1.77.926l1.497 2.602zM443.34 356.365c.348.445.092.957-.512 1.025s-1.557-.31-1.906-.755l-1.916-2.448c-.348-.445-.092-.957.512-1.025.632-.07 1.557.31 1.906.755l1.916 2.448zM445.781 356.506c.328.447.049.957-.56 1.019s-1.545-.322-1.874-.77l-1.807-2.459c-.328-.447-.049-.957.56-1.019.636-.065 1.545.322 1.874.77l1.807 2.459zM448.687 356.476c.388.421.18.948-.416 1.054s-1.581-.208-1.969-.629l-2.136-2.315c-.388-.421-.18-.948.416-1.054.623-.111 1.581.208 1.969.629l2.136 2.315zM451.132 356.455c.369.424.137.951-.463 1.052s-1.57-.221-1.939-.646l-2.029-2.335c-.369-.424-.137-.951.463-1.052.628-.106 1.57.221 1.939.646l2.029 2.335zM433.125 355.898c.348.445.092.957-.512 1.025s-1.557-.31-1.906-.755l-1.916-2.448c-.348-.445-.092-.957.512-1.025.632-.07 1.557.31 1.906.755l1.916 2.448zM435.566 356.038c.328.447.049.957-.56 1.019s-1.545-.322-1.874-.77l-1.807-2.459c-.328-.447-.049-.957.56-1.019.636-.065 1.545.322 1.874.77l1.807 2.459zM438.233 356.131c.348.445.092.957-.512 1.025s-1.557-.31-1.906-.755l-1.916-2.448c-.348-.445-.092-.957.512-1.025.632-.07 1.557.31 1.906.755l1.916 2.448zM440.674 356.271c.328.447.049.957-.56 1.019s-1.545-.322-1.874-.77l-1.807-2.459c-.328-.447-.049-.957.56-1.019.636-.065 1.545.322 1.874.77l1.807 2.459zM401.355 344.361c-.628.08-1.078-.328-.9-.816s.985-1.057 1.613-1.137l3.455-.44c.628-.08 1.078.328.9.816-.186.51-.985 1.057-1.613 1.137l-3.455.44zM401.82 347.143c-.5.317-1.132.134-1.266-.367s.233-1.318.733-1.636l2.748-1.744c.5-.317 1.132-.134 1.266.367.139.523-.233 1.318-.733 1.636l-2.748 1.744zM403.17 349.546c-.336.452-.999.473-1.327.043s-.32-1.313.016-1.765l1.846-2.485c.336-.452.999-.473 1.327-.043.342.45.32 1.313-.016 1.765l-1.846 2.485zM404.754 351.078c-.133.513-.756.718-1.247.41s-.847-1.129-.714-1.642l.733-2.822c.133-.513.756-.718 1.247-.41.512.322.847 1.129.714 1.642l-.733 2.822zM405.473 338.893c-.626-.033-.961-.518-.671-.97s1.206-.87 1.832-.837l3.442.183c.626.033.961.518.671.97-.303.472-1.206.87-1.832.837l-3.442-.183zM403.849 340.666c-.635-.019-.988-.49-.705-.942s1.201-.885 1.836-.867l3.494.103c.635.019.988.49.705.942-.295.472-1.201.885-1.836.867l-3.494-.103zM402.566 342.371c-.623.064-1.06-.361-.874-.85s.993-1.042 1.616-1.106l3.424-.351c.623-.064 1.06.361.874.85-.194.511-.993 1.042-1.616 1.106l-3.424.351zM406.735 352.775c.035.531-.493.867-1.056.673s-1.162-.921-1.198-1.452l-.195-2.921c-.035-.531.493-.867 1.056-.673.589.204 1.162.921 1.198 1.452l.195 2.921zM409.478 353.479c.155.508-.293.926-.896.834s-1.361-.691-1.517-1.2l-.854-2.797c-.155-.508.293-.926.896-.834.63.096 1.361.691 1.517 1.2l.854 2.797zM412.51 353.779c.292.473-.026.961-.635.976s-1.511-.442-1.803-.915l-1.606-2.6c-.292-.473.026-.961.635-.976.637-.016 1.511.442 1.803.915l1.606 2.6zM517.983 345.901c.617.128.845.649.456 1.042s-1.393.659-2.01.531l-3.391-.704c-.617-.128-.845-.649-.456-1.042.406-.411 1.393-.659 2.01-.531l3.391.704zM518.634 346.344c.595.166.772.707.354 1.082s-1.431.584-2.027.417l-3.274-.914c-.595-.166-.772-.707-.354-1.082.437-.392 1.431-.584 2.027-.417l3.274.914zM522.554 343.523c.625.096.891.605.532 1.018s-1.343.729-1.968.632l-3.438-.53c-.625-.096-.891-.605-.532-1.018.375-.431 1.343-.729 1.968-.632l3.438.53zM520.558 345.168c.591.176.754.72.326 1.088s-1.446.558-2.037.382l-3.249-.971c-.591-.176-.754-.72-.326-1.088.447-.384 1.446-.558 2.037-.382l3.249.971zM509.02 335.505c-.579.22-.691.767-.224 1.096s1.513.437 2.092.217l3.184-1.208c.579-.22.691-.767.224-1.096-.488-.343-1.513-.437-2.092-.217l-3.184 1.208zM506.868 334.529c-.563.23-.653.786-.18 1.112s1.51.421 2.074.191l3.099-1.267c.563-.23.653-.786.18-1.112-.495-.34-1.51-.421-2.074-.191l-3.099 1.267zM504.437 333.198c-.597.181-.76.72-.325 1.078s1.468.534 2.065.352l3.286-.998c.597-.181.76-.72.325-1.078-.455-.374-1.468-.534-2.065-.352l-3.286.998zM515.791 338.717c-.563.23-.653.786-.18 1.112s1.51.421 2.074.191l3.099-1.267c.563-.23.653-.786.18-1.112-.495-.34-1.51-.421-2.074-.191l-3.099 1.267zM513.482 337.6c-.579.22-.691.767-.224 1.096s1.513.437 2.092.217l3.184-1.208c.579-.22.691-.767.224-1.096-.488-.343-1.513-.437-2.092-.217l-3.184 1.208zM511.329 336.623c-.563.23-.653.786-.18 1.112s1.51.421 2.074.191l3.099-1.267c.563-.23.653-.786.18-1.112-.495-.34-1.51-.421-2.074-.191l-3.099 1.267z"/></g><g transform="matrix(.081 0 0 .096 438.435 288.09)"><path d="M212.603-1994.912v53.15h-53.15v35.44h53.15v106.3h35.433v-106.3h53.149v-35.44h-53.149v-53.15h-35.433z" stroke="#000" stroke-width="1.197" fill="#fff133"/><ellipse rx="62.008" ry="57.32" stroke="#000" transform="matrix(.571 0 0 .618 93.645 -678.94)" cy="-1813.5" cx="239.17" stroke-width="1.197" fill="#fff133"/><path d="M602.36-1119.4c0 68.45-10.417 145.68-29.252 205.02-120.08-26.455-268.06-39.682-339.04-39.682-87.586 0-246.15 13.227-345.26 26.455-18.835-59.336-30.538-123.34-30.538-191.79 0-273.81 105.27-390.21 367.5-496.03 233.3 105.82 376.6 222.22 376.6 496.03z" transform="matrix(1.058 0 0 1.339 -5.764 363.72)" stroke="#000" stroke-width="1.197" fill="#fff"/><path d="M566.93-657.28c0-44.007-150.8-79.724-336.61-79.724s-336.61 35.717-336.61 79.724v26.575c0-44.007 150.8-70.866 336.61-70.866s336.61 44.576 336.61 88.583v-44.292z" transform="matrix(1.171 0 0 .745 -32.833 -634.89)" stroke="#000" stroke-width="1.197" fill="#fff133"/><g stroke="#000" stroke-width="1.197" fill="#fff133"><path d="M236.99-1381.568l-62.318 39.577 41.545 26.384-20.772 13.193-41.545-26.384-62.318 39.576 62.318 39.577 41.545-26.384 20.772 13.192v39.577h41.545v-39.577l20.773-13.192 41.545 26.384 62.318-39.577-62.318-39.576-41.545 26.384-20.773-13.193 41.546-26.384-62.318-39.577zM-181.547-1340.023l6.091 39.878 10.402 25.544-14.909 16.075-10.402-25.545-4.509 41.619 35.714 35.013-10.401-25.543 25.311 9.469 15.603 38.316 20.111-3.304-15.603-38.316 14.911-16.075 10.4 25.543 4.509-41.619-35.714-35.013 10.403 25.545-25.313-9.469-10.402-25.544-26.203-36.575zM655.283-1339.405l-23.781 37.11-9.477 25.689-24.963 9.836 9.477-25.69-34.441 35.524 6.01 41.542 9.477-25.688 15.486 15.853-14.215 38.534 20.226 3.009 14.215-38.534 24.964-9.835-9.478 25.688 34.441-35.524-6.01-41.543-9.476 25.69-15.487-15.854 9.477-25.689 3.555-40.119zM-30.97-1285.526c-3.317-13.026 9.772-27.736 26.177-29.421 16.405-1.685 36.127 9.656 39.443 22.682l-9.773 27.729 78.884 45.354-32.81 3.369-59.163-34.015-39.266 44.123-32.81 3.369 52.356-58.831s-19.72-11.334-23.037-24.36zM438.984-1292.165c3.173-13.04 22.77-24.468 39.193-22.856 16.423 1.612 29.673 16.265 26.499 29.305l-22.768 24.462 53.001 58.599-32.846-3.224-39.751-43.95-58.787 34.277-32.846-3.224 78.383-45.701s-13.252-14.646-10.078-27.686zM631.665-1163.89c0-32.769-176.813-59.365-394.675-59.365s-394.675 26.596-394.675 59.365v19.789c0-32.769 176.813-52.769 394.675-52.769s394.675 33.193 394.675 65.962v-32.981z"/></g><path d="M566.93-657.28c0-44.007-150.8-79.724-336.61-79.724s-336.61 35.717-336.61 79.724v26.575c0-44.007 150.8-70.866 336.61-70.866s336.61 44.576 336.61 88.583v-44.292z" transform="matrix(1.073 0 0 .745 -9.254 -386.86)" stroke="#000" stroke-width="1.197" fill="#fff133"/><g stroke="#000" stroke-width="1.197" fill="#fff133"><path d="M241.427-1133.538l-58.688 39.577 39.125 26.384-19.562 13.193-39.125-26.384-58.688 39.576 58.688 39.577 39.125-26.384 19.562 13.192v39.577h39.125v-39.577l19.563-13.192 39.125 26.384 58.688-39.577-58.688-39.576-39.125 26.384-19.563-13.193 39.126-26.384-58.688-39.577zM8.365-636.353l5.712 39.88 9.78 25.547-14.049 16.069-9.78-25.548-4.27 41.617 33.609 35.025-9.779-25.546 23.828 9.478 14.669 38.321 18.939-3.296-14.669-38.321 14.05-16.069 9.778 25.547 4.27-41.616-33.609-35.026 9.781 25.548-23.829-9.479-9.78-25.547-24.651-36.584zM635.353-1091.375l-22.396 37.11-8.925 25.689-23.509 9.836 8.925-25.69-32.435 35.524 5.66 41.542 8.925-25.688 14.584 15.853-13.387 38.534 19.048 3.009 13.387-38.534 23.51-9.835-8.926 25.688 32.435-35.524-5.66-41.543-8.924 25.69-14.585-15.854 8.925-25.689 3.348-40.119zM-10.918-1037.496c-3.123-13.026 9.203-27.736 24.652-29.421 15.45-1.685 34.022 9.656 37.145 22.682l-9.204 27.729 74.288 45.354-30.899 3.369-55.717-34.015-36.979 44.123-30.899 3.369 49.306-58.831s-18.571-11.334-21.695-24.36zM431.658-1044.135c2.989-13.04 21.444-24.468 36.91-22.856 15.467 1.612 27.944 16.265 24.956 29.305l-21.442 24.462 49.914 58.599-30.933-3.224-37.436-43.95-55.363 34.277-30.933-3.224 73.818-45.701s-12.48-14.646-9.491-27.686zM613.112-915.86c0-32.769-166.513-59.365-371.685-59.365s-371.685 26.596-371.685 59.365v19.789c0-32.769 166.513-52.769 371.685-52.769s371.685 33.193 371.685 65.962v-32.981z"/></g><path d="M566.93-657.28c0-44.007-150.8-79.724-336.61-79.724s-336.61 35.717-336.61 79.724v26.575c0-44.007 150.8-70.866 336.61-70.866s336.61 44.576 336.61 88.583v-44.292z" transform="matrix(1.105 0 0 .745 -16.106 -865.2)" stroke="#000" stroke-width="1.197" fill="#fff133"/><g stroke="#000" stroke-width="1.197" fill="#fff133"><path d="M242.555-1611.225l-57.397 37.331 38.264 24.887-19.132 12.444-38.264-24.887-57.397 37.331 57.397 37.331 38.264-24.887 19.132 12.443v37.331h38.264v-37.331l19.133-12.443 38.264 24.887 57.397-37.331-57.397-37.331-38.264 24.887-19.133-12.444 38.265-24.887-57.397-37.331zM-142.925-1572.032l5.61 37.615 9.58 24.094-13.732 15.163-9.58-24.095-4.153 39.258 32.893 33.026-9.58-24.094 23.312 8.932 14.37 36.142 18.523-3.116-14.37-36.142 13.733-15.162 9.579 24.094 4.153-39.257-32.893-33.026 9.581 24.095-23.313-8.932-9.58-24.094-24.133-34.499zM435.345-529.347l-21.881 35.014-8.717 24.236-22.978 9.284 8.717-24.237-31.695 33.52 5.546 39.189 8.716-24.235 14.261 14.952-13.075 36.355 18.621 2.834 13.075-36.355 22.979-9.283-8.717 24.235 31.695-33.519-5.546-39.189-8.716 24.237-14.262-14.953 8.717-24.236 3.26-37.848zM-4.235-1520.642c-3.055-12.287 9.001-26.163 24.11-27.752 15.11-1.589 33.273 9.108 36.328 21.395l-9.001 26.156 72.653 42.78-30.219 3.178-54.49-32.086-36.166 41.621-30.219 3.178 48.221-55.494s-18.163-10.691-21.217-22.978zM428.59-1526.889c2.923-12.3 20.972-23.08 36.097-21.559 15.126 1.521 27.329 15.341 24.407 27.642l-20.97 23.074 48.815 55.273-30.252-3.041-36.612-41.455-54.144 32.332-30.252-3.041 72.193-43.108s-12.205-13.815-9.282-26.115zM606.06-1405.898c0-30.91-162.849-55.997-363.505-55.997s-363.505 25.087-363.505 55.997v18.666c0-30.91 162.849-49.775 363.505-49.775s363.505 31.309 363.505 62.219v-31.11z"/></g><ellipse rx="375.87" ry="120.53" transform="matrix(.966 0 0 .414 12.936 -517.53)" cy="-822.11" cx="234.13" fill="#b90000"/></g><path d="M513.78-790.16l35.432-17.714 35.433 17.714s-73.366 35.433-73.366 159.45c-.001 88.58 125.26 106.3 125.26 212.6 0 45.649-34.183 88.582-69.616 88.582s-88.583-17.716-141.73-70.866c35.433 17.716 76.082 37.308 106.3 36.058 19.588-.405 55.025-17.716 55.025-53.149 0-70.866-122.77-106.92-122.77-213.22 0-124.02 50.025-159.45 50.026-159.45z" transform="matrix(.24 0 0 .199 381.891 336.17)" stroke="#000" stroke-width="1.197" fill="#fff"/><path d="M212.6-453.54c-35.433 0-70.866 35.433-70.866 70.866s35.433 70.866 70.866 70.866h194.88c35.433 0 70.866-35.433 70.866-70.866 0-37.027-35.433-70.866-70.866-70.866h-194.88z" transform="matrix(.021 -.001 .009 .022 454.378 384)" stroke="#000" stroke-width="17.958" fill="#b00"/><path d="M520.25-790.16l46.683-17.717 10 17.717s-70.649 35.433-70.649 159.45c-.001 88.58 125.89 106.3 125.89 212.6 0 45.649-26.714 87.362-65.241 88.582-73.403 2.363-90.458-23.966-141.73-70.866 43.149 32.308 105 46.752 129.02 34.183 29.354-15.364 35.024-36.058 35.024-53.774 0-70.866-120.89-104.42-120.89-210.72 0-124.02 51.9-159.45 51.9-159.45zM513.34-789.69c7.004-2.437 35.875-18.186 71.308 17.247 17.717 17.72 17.716 53.149 17.716 70.866l53.15-53.149s-29.066-86.87-107.62-53.592c-11.127 4.901-28.139 14.538-34.549 18.628zM523.8-795.94c8.839-2.869 36.676-6.325 64.596 18.501 17.717 17.72 18.966 42.933 18.966 60.65l40.65-37.933c3.44-3.21-24.832-81.252-99.241-54.034-4.498 1.807-14.779 6.302-24.971 12.816z" transform="matrix(.24 0 0 .199 381.891 336.17)" stroke="#000" stroke-width="1.197" fill="#fff"/><path d="M344.54-596.29l9.152 22.141s1.455-9.767 8.526-11.534l7.071-1.768s26.864 49.328 32.168 58.167c5.302 8.838-3.536 16.793-1.769 16.793 1.769 0 26.517-11.49 26.517-11.49s-10.606.883-15.026-6.188l-34.819-59.934s6.187-2.652 11.49-5.303c5.304-2.652 10.607 7.955 10.607 7.955l-13.258-26.517s0 8.839-4.42 10.607c-4.419 1.767-7.955 3.535-7.955 3.535s-3.535-6.187-7.955-13.258c-4.419-7.071 4.42-14.142 4.42-14.142l-22.981 11.49s7.955 4.42 10.607 8.839l5.303 8.839s-3.223 1.768-8.214 3.482c-3.589 1.875-7.696.054-9.464-1.714z" transform="matrix(.195 -.021 .067 .173 476.436 338.935)" stroke="#000" stroke-width="1.197" fill="#fff133"/><path d="M344.54-596.29l9.152 22.141s1.455-9.767 8.526-11.534l7.071-1.768s26.864 49.328 32.168 58.167c5.302 8.838-3.536 16.793-1.769 16.793 1.769 0 26.517-11.49 26.517-11.49s-10.606.883-15.026-6.188l-34.819-59.934s6.187-2.652 11.49-5.303c5.304-2.652 10.607 7.955 10.607 7.955l-13.258-26.517s0 8.839-4.42 10.607c-4.419 1.767-7.955 3.535-7.955 3.535s-3.535-6.187-7.955-13.258c-4.419-7.071 4.42-14.142 4.42-14.142l-22.981 11.49s7.955 4.42 10.607 8.839l5.303 8.839s-3.223 1.768-8.214 3.482c-3.589 1.875-7.696.054-9.464-1.714z" transform="matrix(-.178 .024 -.003 -.133 595.381 97.041)" stroke="#000" stroke-width="1.197" fill="#fff133"/><path d="M212.6-453.54c-35.433 0-70.866 35.433-70.866 70.866s35.433 70.866 70.866 70.866h194.88c35.433 0 70.866-35.433 70.866-70.866 0-37.027-35.433-70.866-70.866-70.866h-194.88z" transform="matrix(.021 -.001 .009 .022 457.876 383.788)" stroke="#000" stroke-width="17.958" fill="#b00"/><path d="M212.6-453.54c-35.433 0-70.866 35.433-70.866 70.866s35.433 70.866 70.866 70.866h194.88c35.433 0 70.866-35.433 70.866-70.866 0-37.027-35.433-70.866-70.866-70.866h-194.88z" transform="matrix(.035 -.001 .016 .022 452.669 386.727)" stroke="#000" stroke-width="17.958" fill="#b00"/><path d="M212.6-453.54c-35.433 0-70.866 35.433-70.866 70.866s35.433 70.866 70.866 70.866h194.88c35.433 0 70.866-35.433 70.866-70.866 0-37.027-35.433-70.866-70.866-70.866h-194.88z" transform="matrix(.035 -.001 .016 .022 455.97 386.514)" stroke="#000" stroke-width="17.958" fill="#b00"/><path d="M212.6-453.54c-35.433 0-70.866 35.433-70.866 70.866s35.433 70.866 70.866 70.866h194.88c35.433 0 70.866-35.433 70.866-70.866 0-37.027-35.433-70.866-70.866-70.866h-194.88z" transform="matrix(.043 -.001 .02 .022 451.35 389.865)" stroke="#000" stroke-width="17.958" fill="#b00"/><path d="M212.6-453.54c-35.433 0-70.866 35.433-70.866 70.866s35.433 70.866 70.866 70.866h194.88c35.433 0 70.866-35.433 70.866-70.866 0-37.027-35.433-70.866-70.866-70.866h-194.88z" transform="matrix(.043 -.001 .02 .022 455.442 389.652)" stroke="#000" stroke-width="17.958" fill="#b00"/><path fill="#ffe000" d="M0 0h320v480h-320z"/></g></svg>