<svg xmlns="http://www.w3.org/2000/svg" height="480" width="640" viewBox="0 0 640 480"><style>.prefix__st0{fill:#fff}.prefix__st1,.prefix__st2,.prefix__st4{stroke:#000;stroke-width:1.4955}.prefix__st1{stroke-linecap:round;stroke-linejoin:round;fill:#188400}.prefix__st2,.prefix__st4{fill:#00cede}.prefix__st4{fill:#ffd600;stroke-width:1.496}.prefix__st4,.prefix__st5{stroke-linecap:round;stroke-linejoin:round}.prefix__st5,.prefix__st6{fill:#ffd600;stroke:#000;stroke-width:1.4955}.prefix__st11{fill:#be0a2f}</style><path class="prefix__st0" d="M0 0h640v480H0z"/><path class="prefix__st1" d="M257.6 375.8l12.4-10.3s-2.7-5.7-12.6-5.5c-9.3-6.5-25.2-21.9-25.2-21.9l-8-21.7s6.5-1.9 8-7.2c1.5-5.3-.4-11.8-1.1-12.4-.6-.6-7.2 1.1-9 3.8-1.9 2.7-4.8 13.3-9.3 9.7-4.4-3.6.6-7.6.6-7.6s4.4-5.5 4.2-8.4c-.2-2.9-5.9-11.8-6.5-12-.6-.2-1.9 11.6-3.6 12.8-1.7 1.3-4 6.5-7.4 3.6-3.4-2.9 1.7-7.4 1.7-7.4s9.5-5 .2-21.7c-2.7 7.2-8 11.8-8 11.8s-2.5 4.4-4.8.6c-2.3-3.8 2.7-7.4 2.7-7.4s8.2-4.8 8.4-12c.2-7.2-9.9-15.4-9.9-15.4s-.6 13.3-3.8 14.9c-3.2 1.7-4.4 4.4-8 1.5s2.7-9.5 2.7-9.5 10.9-10.9 10.3-17.3c-.6-6.3-1.3-7.4-1.3-7.4s-8.2 5-9.3 7.6c-1.1 2.5-4.4 11.6-8.6 8.8-2.9-3.4 2.5-9.9 2.5-9.9s4-4.4 3.8-6.3-3.4-7.6-9.5-13c-.8-1.7-1.3-8.4-1.3-8.4s-4.6 5.5-4.4 8.4c.2 2.9-.4 8.8.2 15.4.6 6.5-5-2.1-5-2.1l1.1-21s-8-9.7-17.7-13.3c3.6 5.3 3.4 10.3 3.4 10.3s-4 8.6-4 10.9 4.6 12.4 13.3 19.1c-13-14.1-29.2-9.5-34.1-12.2 2.3 2.7 9.3 13 8.4 15.8-.8 2.7 12.4 8.4 12.4 8.4l14.1.2s6.9 4.8 7.6 8c.6 3.2-10.1-5.9-14.3-5.7-4.2.2-15.4-1.5-15.4-1.5s6.7 6.3 6.9 9c.2 2.7 3.2 9 7.2 10.7 4 1.7 14.7 2.3 14.7 2.3s4.6-2.7 5.5.2c.8 2.9-6.1 5.3-6.1 5.3s-7.2 0-9.5-1.9-2.7-5-13-6.3c-1.1 8.6 5.7 17.5 5.7 17.5s28.4-2.3 28.2 3.8c-.2 6.1-23.6.6-24.4-1.3-.8-1.9 1.1 12 6.5 14.9 5.5 2.9 17.7 1.5 19.1.8 1.5-.6 6.9-1.3 6.9 1.9s-27.8 5.7-28.2 4.8c-.4-.8 4.2 10.7 15.4 10.1 11.2-.6 16-4 16-4s6.7-1.3 7.4 1.5c.6 2.7-6.7 4-6.7 4s-17.7.4-18.3-.4c-.6-.8 4 11.2 16.4 10.9 9.3-.8 9.9-4.8 11.8-5.5 2.7-.6 8.6-.6 9.5-.4.8.2 15.6 10.5 15.6 10.5l37.5 38.5zM149 209.6s-.4 20.2 9.7 26.3M170.3 225.5s6.7 10.3-4.6 14.1M135.3 232.5s-.8 11.6 19.6 10.7M185.8 242.6s-3.4 8.2-11.6 7.8M193.4 261.1c0 1.1 1.5 12.2-9.3 12M142.1 256.5s13.5 8.4 19.6 7.8M145 276.9s6.3 6.7 17.9 5M200.5 281.5c0 .8-2.1 7.4-6.7 8.2M155.5 296.4s5 6.5 18.3 2.9M213.2 293.7s-2.1 10.3-7.6 10.5M226 304.9s-4.2 12.4-14.9 10.5M176.6 327s4.2 3.8 14.5-.8M165 314.3c.8 0 6.1 4.4 18.7-2.3M257.5 360.3s-7.9 3.5-.2 15.4"/><g><path class="prefix__st2" d="M501.5 212.8s-4 57.3-4.2 57.2c-.2-.1-8.4-10-8.4-10l-25.2 79.1 5.9 17.2-14.7 48.2-12.1-15.4-19.6 7.9 15.7-50.7 14.5-10.4 26.1-77.9-14.5 1.8 36.5-47z"/><path class="prefix__st2" d="M557.2 236.5s-30.5 48.7-30.6 48.5c-.1-.2-2.7-12.8-2.7-12.8l-50.1 46.5-53.5 51.6-.1-10.6-18.3-2.3 24.2-18.5 12.4-2 78.2-70.9-13.6-5.2 54.1-24.3z"/><path d="M420.3 359.6c.3-.7 27.8-24.2 27.8-24.2" fill="#00cede" stroke="#000" stroke-width="1.527"/><path class="prefix__st2" d="M540.9 195.3s-14.9 55.5-15.1 55.3c-.2-.2-6.3-11.4-6.3-11.4L459 343.1l2.5 18.1-21.7 39.8-8.9-17.4-20.7 4 23.2-42.1 16.2-7.5 61.1-102.6-14.6-1 44.8-39.1zM431.3 382.8c0-.3 20.9-36.8 20.9-36.8"/></g><g><g id="prefix__wing"><path class="prefix__st4" d="M259.3 187.5s-13.5 14.6-20.3 3.7 9.4-14 9.6-14.2c.2-.2 9.4-3.1 10.3-20.1.8-17-20.3-28.1-26.3-29.5-5.9-1.4-23.4-1.4-23.4-1.4s-63.8-15.4-70.4-20.1C132.3 101.1 72 90 72 90s-9.6-1.2-8.8 7.4C64 106 72 107 72 107s-6.8 5.3-5.9 10.1c.8 4.7 5.9 12.3 16.6 11.1-1.2 16.8 22.2 19.5 22.2 19.5s2.5 24.2 24 23c5.1 16.6 24.4 17.2 24.4 17.2s9 11.3 22.2 12.1c7.6 18.9 24 13.5 24 13.5s-1.2 11.9 6.4 11.9c-3.9 13.5 10.7 15.4 16.2 12.7 1.4 2.9 6.4 11.7 17.6 6.2 6.8 10.1 17.8 5.3 17.8 5.3s2.5 8 12.1 4.9c9.6-3-10.5-66.6-10.3-67z"/><path class="prefix__st5" d="M217.5 137.8s15 1.6 13.1 24.8M160.4 113.8s-28.7 19.7 25 25.9"/><path class="prefix__st5" d="M168.7 137c-.2.4-13.5 16.2 11.1 20.9C168 169 190 172.7 190 172.7s-4.5 11.7 8.6 14.8c-4.3 12.1 9.8 11.5 9.8 11.5s.4 14.8 17.2 14.6c-.2 10.1 11.5 10.7 11.5 10.7s3.5 10.9 14.8 7.6c1.2 7.6 9 5.9 9 5.9M257.7 249.9s.6-10.5-1.8-12.5M239 244.1c.2-.2 4.9-9.6 3.3-11.3M221.8 238.2l12.7-12.5M205.8 225.9c.2-.2 19.3-12.1 19.3-12.1M199 213.8c.2-.2 10.9-4.7 11.3-8.6M175.4 200s25.8 5.5 30.4-.4M153.9 187.7c1 0 38.8 4.1 42.3-.6M128.9 170.7c.6-.2 44.7 8.2 57.2 1.8M107.7 147.9c1 0 58.7 14 67.3 9.6M85.8 127.8c.4 0 68.7 16 77.3 9.4M76.9 108.3c.2 0 65.4 21.3 71 16"/></g><g id="prefix__wing_1_"><path class="prefix__st4" d="M423.1 188s13.5 14.6 20.3 3.7c6.8-10.9-9.4-14-9.6-14.2-.2-.2-9.4-3.1-10.3-20.1-.8-17 20.3-28.1 26.3-29.5 5.9-1.4 23.4-1.4 23.4-1.4s63.8-15.4 70.4-20.1c6.6-4.7 66.9-15.8 66.9-15.8s9.6-1.2 8.8 7.4-8.8 9.6-8.8 9.6 6.8 5.3 5.9 10.1c-.8 4.7-5.9 12.3-16.6 11.1 1.2 16.8-22.2 19.5-22.2 19.5s-2.5 24.2-24 23c-5.1 16.6-24.4 17.2-24.4 17.2s-9 11.3-22.2 12.1c-7.6 18.9-24 13.5-24 13.5s1.2 11.9-6.4 11.9c3.9 13.5-10.7 15.4-16.2 12.7-1.4 2.9-6.4 11.7-17.6 6.2-6.8 10.1-17.8 5.3-17.8 5.3s-2.5 8-12.1 4.9c-9.7-3.1 10.4-66.7 10.2-67.1z"/><path class="prefix__st5" d="M464.9 138.3s-15 1.6-13.1 24.8M522 114.3s28.7 19.7-25 25.9"/><path class="prefix__st5" d="M513.8 137.5c.2.4 13.5 16.2-11.1 20.9 11.7 11.1-10.3 14.8-10.3 14.8s4.5 11.7-8.6 14.8c4.3 12.1-9.8 11.5-9.8 11.5s-.4 14.8-17.2 14.6c.2 10.1-11.5 10.7-11.5 10.7s-3.5 10.9-14.8 7.6c-1.2 7.6-9 5.9-9 5.9M424.7 250.3s-.6-10.5 1.8-12.5M443.4 244.6c-.2-.2-4.9-9.6-3.3-11.3M460.6 238.6l-12.7-12.5M476.6 226.3c-.2-.2-19.3-12.1-19.3-12.1M483.4 214.2c-.2-.2-10.9-4.7-11.3-8.6M507 200.5s-25.8 5.5-30.4-.4M528.5 188.2c-1 0-38.8 4.1-42.3-.6M553.6 171.1c-.6-.2-44.7 8.2-57.2 1.8M574.7 148.4c-1 0-58.7 14-67.3 9.6M596.7 128.3c-.4 0-68.7 16-77.3 9.4M605.5 108.8c-.2 0-65.4 21.3-71 16"/></g><path class="prefix__st6" d="M383.3 177.5c0-3.1-1-9.1-4.3-11.2-4.2-2.2-4.2-3.5-4.5-6.4-.3-2.9 7.1-8.2 7.1-8.2s-6.7-3-9.2-2.7c-2.5.3-7.4.8-8.1 1.5-.7.7-4.4-12.1-2-14.1 2.4-2 7.2 4.7 7.2 4.7s3.2-7.4-8.1-21.5c3.9-27.6-21.9-34-27.7-33.8-4.9-.7-17.5 3.9-19.5 9.9-6.4 2.2-6.7 7.7-6.7 7.7s-13.1 2.4-14.8 13.8c7.7-6.4 12.8.7 12.8.7s6.7 4.7 10.3 4.9c3.5.2-3.4 11.8-5.4 13.8-2 2-10.4 9.8-10.1 10.3.3.5 6.6 2.4 6.2 5.2-.3 2.9-19.2 11.6-18.2 13.8 4.9-1.5 8.7-.3 8.7-.3.7 4.8-1.2 10.3-4.5 12.1l90.8-.2z"/><path d="M306.9 104.1l6.1 6.1c1.7.5 10.9 5.1 10.4 8.2" fill="#ffd600" stroke="#000" stroke-width="1.495"/><path d="M323.4 118.4c-.5 3.1-6.6 4.6-6.6 4.6" fill="#ffd600" stroke="#000" stroke-width="1.495" stroke-linecap="round"/><path class="prefix__st6" d="M314.2 95.9l9.3 8.9s1.7 7.6 8.3 7c6.6-.6 5.7-3.4 5.7-3.4s-8-5.6-14.2-4.2"/><g><path class="prefix__st6" d="M412 256.9s8.3 7.9 8.4 9.6c.2 1.7 2.1 9.4 4.3 10.6 2.1 1.2 10.6 7.9 11.7 10.6 1.2 2.6 8.6 13.9 8.6 13.9s6.9 14.2 11.6 15.4c4.6 1.2 17.7-.8 20.3 5.5 2.6 6.3 2 15.4 2 15.4s-3.1 2.8-4.6 1.2c-1.5-1.7-4.1 8.3-8.8 5.5-6.3-13.4-22.8-11.2-22.8-11.2s3.6-5.6-11.1-10.6c-23 4-29.7-20-29.7-20l-13.1-11.3 23.2-34.6z"/><path class="prefix__st6" d="M398.7 291l10.2 4.8-.8-8.8M413.3 289.6l9.4 4.6-3.8-7.6M412.8 277.2l9.3 5-4.3-9.6M427.5 322.7s-10.6-13.9-10.4-13.9c.2 0 18 3.5 18 3.5l-6.6-14.2 16.4 4.3M457.9 324.8s10.4 2.3 10.1 19.7M463.4 322.2s11.2-.7 10.6 16.9"/></g><g><path d="M269.6 259.1s-8.3 7.9-8.4 9.6c-.2 1.7-3.5 8.4-5.7 9.5-2.1 1.2-9.5 8.6-10.7 11.3-1.2 2.6-8.2 14.2-8.2 14.2s-8.1 11.8-12.8 13c-5.7.5-16.5 1.6-19.1 7.9-2.6 6.3 1.4 15.9 4.5 15.9 4.6 2.1 6.7 4.2 8.2 2.5 2.5.7 1.1 2.9 5.7.1-3.5-4.5-3.1-8.9.4-10 3.5-1.2 9.2 4.1 9.2 4.1s2.1-9.7 16.8-14.7c23 4 29.1-14.6 30.7-19 3.6-4.9 9.3-6.2 13.9-9.4l-24.5-35h0z" fill="#ffd600" stroke="#000" stroke-width="1.496" stroke-linecap="round"/><path class="prefix__st5" d="M283.2 291.1l-10.6 5.6.8-7.6M269.1 289.6l-10 4.6 4.6-7.8M269.4 277.4l-8.6 3.8 3.1-6.4M254.4 322.6c1.6-3.2 9.8-13.3 9.6-13.3-.2 0-16.8 3.5-16.8 3.5l5.4-14-14.5 2.9M224.3 324.8s-12.6 2.3-7.7 17.9"/><path class="prefix__st6" d="M218.9 322.6s-13.8.4-9 17.5"/></g><g><path class="prefix__st5" d="M378.3 303.5s.9 10.1-3.4 14.4c19 1.2 29.3 20.6 29.5 25.2.2 4.6-5.8 8.2-5.8 8.2s2.1 8.2-5.8 9.6c.2 7.9-5.3 7.9-5.3 7.9s-2.1 6.5-8.4 6.2c-1.9 9.4-11.6 9.3-11.6 9.3s-5.7 13.7-14 8.4c-5.3 11.6-19.4 11.1-24.7 0-2.9-.2-9.4 3.8-13.4-7.9-8.7 1.5-12.2-9.6-12.2-9.6s-5.8-.5-8.1-6.3c-6.9-1.4-5.7-8.2-5.7-8.2s-6.9-1.9-6.7-9.4c-5.5-3.3-5-9.1-5-9.1s4.3-20.2 29.1-24.5c-3.9-5.7-3.4-13.9-3.4-13.9l74.9-.3z"/><path class="prefix__st5" d="M359.5 318.2c0 .3 2.6 11.1-5.8 12.8 16.6-4.5 33.9 37.7 33.9 37.7"/><path class="prefix__st5" d="M365.1 314.3s2.2 8.6-5.1 12.8c26.7 5.8 32.9 33.6 32.9 33.6"/><path d="M371 310c0-.2 4.6 11.6-5.3 13.7 25.5-1.9 32.7 27.2 32.7 27.2" fill="none" stroke="#000" stroke-width="1.869" stroke-linecap="round" stroke-linejoin="round"/><path class="prefix__st5" d="M351.4 323s4.3 8.2-3.6 10.8c14.9 1.5 19.7 50.5 19.7 50.5"/><path class="prefix__st5" d="M346.3 325.9s2.4 9.1-5.3 11.8c15.6-8.2 12.7 55.2 12.7 55.2M336 326.4s-3.3 9.6 3.9 11.5c-14.2-3.9-11.5 55-11.5 55"/><path class="prefix__st5" d="M329.3 322.6s-2.2 8.7 6.5 13.2c-14.6-9.3-20.6 49.2-20.6 49.2M352.5 330.7s26.6 25.5 26.4 44.4M310.5 310.1c0 .2-3.3 13.7 6.2 14M317.2 315.1c0 .3-2.6 11.5 5 12M323.2 318.4s-4.6 11.1 6.7 12.7M329 331.2c-.2 0-22.1 20.4-25.5 44M324.9 329.2c-.2 0-27.9 17.3-29.8 39.4M318.7 326.2s-30.8 18-29.5 34.3M311.3 322.3s-23 4.3-28.6 29"/></g></g><g><path class="prefix__st0" d="M262.9 164.5s22.2 12.3 38.1 11.6c15.9-.7 39.8-10.9 39.8-10.9s21.2 11.9 38.4 10.3c17.2-1.7 41.1-10.9 41.1-10.9 14.2 71.1-18.2 135-79.5 163.7-65.1-29.9-96.6-101.3-77.9-163.8z"/><path class="prefix__st11" d="M271.1 216.2v44.5l12.6 21.3v-65.7h-12.6zM296.3 216.2v80.5l12.6 11.7v-92.3l-12.6.1zM321.6 216.2V318l12.6 7V216.1l-12.6.1zM409.9 216.2v44.5l-12.6 21.5v-65.9l12.6-.1zM384.6 216.2v80.9L372 308.6v-92.4h12.6zM359.4 216.2v101.6l-12.6 7.5V216.2h12.6z"/><path d="M262.9 164.5s5.6 3.1 13.1 6c7.5 3 17.1 5.9 25 5.5 15.9-.7 39.8-10.9 39.8-10.9s21.2 11.9 38.4 10.3c17.2-1.7 41.1-10.9 41.1-10.9 3.5 20.7 5.2 31.2 2.2 51.7h-164c-2.1-20.5-2-29.8 4.4-51.7z" fill="#002768"/><path d="M422.5 216.1h-164m4.4-51.6s22.2 12.3 38.1 11.6c15.9-.7 39.8-10.9 39.8-10.9s21.2 11.9 38.4 10.3c17.2-1.7 41.1-10.9 41.1-10.9 14.2 71.1-18.2 135-79.5 163.7-65.1-29.9-96.6-101.3-77.9-163.8h0z" fill="none" stroke="#000" stroke-width="1.496"/></g><g><path class="prefix__st2" d="M20.7 184.8l36.4.2-3.6 8.8 15.9 63L88.6 194l-6.8-9.1h37.9l-8.1 8.8-31.3 90 8.1 11.8H52l8.1-11.8-30.6-89.6-8.8-9.3zM579.9 187h34.6l-5.6 7.8-.2 91.6 7.8 8.6h-36.6l7.3-9.3-.2-90.8-7.1-7.9z"/></g></svg>
