<svg xmlns="http://www.w3.org/2000/svg" height="480" width="640" viewBox="0 0 640 480"><defs><clipPath id="a"><path fill-opacity=".67" d="M0 0h682.67v512h-682.67z"/></clipPath></defs><g fill-rule="evenodd" clip-path="url(#a)"><path d="M0 0l325.702 205.71h394.275v68.571h-394.275l-325.702 205.701v-479.984z"/><path d="M0 462.848l332.562-212.561h387.414v-20.57h-387.414l-332.562-212.571v30.853l311.991 191.99-311.991 192v30.854z" fill="#ff0"/><path d="M0 479.985l332.562-212.561h387.414v212.561h-719.977z" fill="#40aa40"/><path d="M0 0l332.562 212.561h387.414v-212.561h-719.977z" fill="#ce0000"/><path d="M89.818 249.959c1.15.253 1.453.581 2.593-1.089.245-.841.959-2.018 1.581-3.06.832-1.365 1.196-1.913 1.978-.875.506.593 2.522-.501 3.358.073 1.293.86.516.735 1.575-.194.813-1.733.097-1.528-1.05-2.316l-3.666.035c.281-1.731.833-1.916 1.828-2.253.754.518 2.949-.394 3.628-.379.958.201 1.811.307 2.113-1.101.473-.997.267-.309-.112-1.034l-3.666.035c-1.045-.791-.873-1.086-.263-2.412.818-.449 1.426-.232 2.437.397 1.04.714 2.677-.673 3.59-.724.82-.933 1.788-1.244 1.177-2.381-.342-.863-.599-.961-1.725-1.184-1.15-.789-2.649.656-3.087-.525.913-1.308 1.253-1.028 2.361-.292.713.244 2.863-1.031 3.553-1.069 1.024-.296.528.856 1.251-1.692-.25-1.104-2.103.678-3.148.39-1.003.134-1.802-.221-1.897-1.302.015-1.453.736-1.552 1.769-1.337.909.163 2.962-.967 3.725-.951 1.087.578 1.431.362 2.286-.982.631-1.586-.068-.931-1.147-1.744l-3.666.035c.141-.586.396-1.298.944-1.584.793.157 1.476.121 2.474.742.982.429 2.599-1.467 3.44-2.103-.159-.904-1.766.382-2.743-.289-.619-.425-1.395-.871-1.589-1.41.554-1.583.284-1.504 1.806-.992.81-.211 2.182-.199 1.252-1.692-.148-.241-.95-.156-1.649-.494-.844-.579-1.655-1.163-2.548-1.432-.645-.099-1.582-.307-2.092-.159-.054.94.183 1.537.128 2.638.42.686 1.214.703 1.38.947-.844.741-1.299.362-2.189.411-1.059-.727-.452-2.981-1.702-2.443.288.662.184 3.164.72 3.683.566.389 1.287.769 1.417 1.292-.9 1.386-1.241 1.308-2.323.638-.904-.621-.619-2.656-1.394-2.552-.953.719-.968.686-.772 1.703.051 1.328-.48 3.178.585 3.909 1.282.908 1.444.801.435 2.531-.695.842-1.085.688-1.882.303-.857-.589-.671-2.758-1.334-3.469-1.256-.75-.529-.722-1.575.196-.322 1.177-.088 1.488.436 2.531.426.647.398 2.86 1.125 3.004 1.172.671 1.214.536-.12 1.832-1.047.041-1.497.328-2.301-.623-.975-.735-.366-3.002-1.605-3.015-1.147.094-1.397.124-1.251 1.692.198 1.38-.315 3.551.795 4.372 1.039.474 1.667.443 2.032 1.075-.323.284-.933 1.163-1.289 1.348-.728.052-1.478-.452-2.302-.623-.979-.451-.536-1.325-1.319-1.863-.906.293-.922-.972-1.402.313.186 1.056-.172 2.434.818 3.112l2.316 2.228c.923 1.092.562 1.283-.007 2.865-.77.022-1.673-.511-2.511-1.087l-1.47-3.241c-.696-.684-.494-1.268-1.574.195-.101 1.038.093 1.113.36 1.841.031 1.06-.253 3.015.721 3.684.984.198 2.046.713 2.818.978.741.868.097.698-.734 2.047-.522 1.35-.528 1.589-1.349 2.263-.713.95-.994 1.367-.352 2.629zM113.361 251.108c.69-1.12 1.113-1.311.032-3.189-.675-.596-1.47-1.824-2.18-2.902-.922-1.428-1.281-2.034-.015-2.45.746-.301.544-2.878 1.403-3.537 1.303-1.029.879-.253.447-1.749-1.266-1.556-1.363-.714-2.542.189l-1.427 3.907c-1.478-.991-1.428-1.65-1.341-2.843.775-.593.812-3.289 1.096-4.003.565-.938 1.003-1.802-.169-2.685-.727-.9-.178-.407-.994-.293l-1.427 3.907c-1.144.794-1.345.493-2.32-.685-.086-1.048.356-1.607 1.334-2.428 1.07-.819.448-3.112.764-4.103-.53-1.244-.431-2.395-1.718-2.2-.929.017-1.12.251-1.773 1.357-1.183.907-.452 3.076-1.712 3.069-.837-1.493-.445-1.743.671-2.625.507-.657.194-3.452.433-4.199.135-1.207.996-.218-1.056-2.005-1.114-.175-.216 2.504-.895 3.499-.276 1.119-.921 1.826-1.95 1.494-1.327-.597-1.133-1.403-.523-2.413.512-.9.291-3.532.609-4.335.963-.923.902-1.375.009-2.82-1.206-1.304-.882-.299-2.058.52l-1.427 3.907c-.482-.384-1.035-.938-1.078-1.636.459-.779.698-1.519 1.665-2.331.785-.871-.312-3.347-.562-4.493-.893-.191-.352 2.029-1.357 2.798-.638.488-1.355 1.133-1.927 1.124-1.232-1.222-1.268-.904-.192-2.316.129-.943.686-2.396-1.055-2.004-.281.061-.521.947-1.11 1.553-.868.665-1.727 1.294-2.329 2.135-.347.645-.912 1.556-.979 2.156.842.434 1.484.422 2.473.919.797-.171 1.128-1.007 1.418-1.086.344 1.193-.186 1.524-.494 2.488-1.089.834-2.916-.712-2.921.831.723-.041 2.978 1.071 3.668.708.581-.445 1.217-1.06 1.749-.989.914 1.511.706 1.842-.339 2.723-.93.713-2.685-.403-2.898.461.281 1.298.245 1.303 1.256 1.5 1.239.477 2.726 1.779 3.821.94 1.344-.998 1.311-1.213 2.497.549.497 1.075.201 1.428-.471 2.119-.881.676-2.798-.388-3.714.032-1.189 1.034-.874.272-.447 1.749.953.815 1.331.689 2.497.549.764-.193 2.784.721 3.206.007 1.083-.977.975-1.074 1.633.859-.379 1.13-.294 1.722-1.488 2.195-1.063.741-2.902-.811-3.407.499-.37 1.256-.442 1.533 1.056 2.006 1.346.34 3.135 1.753 4.331.902.848-.913 1.07-1.593 1.795-1.727.132.457.696 1.455.724 1.907-.241.794-1.002 1.389-1.488 2.195-.803.861-1.43.04-2.235.657-.091 1.078-1.259.591-.27 1.613 1.043.225 2.166 1.155 3.183.375l2.967-1.568c1.371-.544 1.401-.082 2.628 1.153-.287.825-1.134 1.571-1.997 2.231-.827.635-2.733-.367-3.561.266-.906.465-1.36.019-.447 1.749.912.522 1.059.347 1.834.353.986.391 2.667 1.474 3.668.707.574-.966 1.469-1.887 2.019-2.602 1.092-.441.68.177 1.587 1.597 1.031 1.093 1.249 1.195 1.541 2.337.588 1.134.859 1.601 2.272 1.424zM91.882 294.848c0-4.988-.773-9.974 0-9.974 43.884 0 54.854-29.921 54.854-49.87 0-19.947-15.244-39.894-43.883-39.894-32.914 0-43.884 19.488-43.884 39.894 0 19.948 16.458 34.91 32.914 34.91 21.943 0 27.428-4.988 43.884-24.935-5.485 24.935-32.914 34.91-43.884 34.91-21.942 0-43.883-14.961-43.883-44.883 0-24.934 16.457-49.867 54.857-49.867 32.914 0 54.854 24.935 54.854 49.867 0 34.91-27.428 59.843-65.828 59.843z" fill="#ff0"/></g></svg>