<svg xmlns="http://www.w3.org/2000/svg" width="640" height="480" viewBox="0 0 640 480">
	<path fill="#000000" d="M0,382.2V97.8L211.6,240L0,382.2L0,382.2z"/>
	<path fill="#0000CC" d="M144.4,480L382,320h258v160H144.4L144.4,480z"/>
	<path fill="#FF0000" d="M640,0v160h-258L144.4,0L640,0z"/>
	<path fill="#FFCC00" d="M0,60v37.8l211.6,142.1L0,382.2V420l266.5-180.1L0,60L0,60z"/>
	<path fill="#009933" d="M0,60V0h88.9l282.3,191.1H640v97.7H371.3L88.9,479.9H0V420l266.5-180.1L0,60L0,60z"/>
	<path fill="#FFFFFF" d="M88.9,0h55.5L382,160h258v31.1H371.3L88.9,0L88.9,0z M88.9,480h55.5L382,320h258v-31.1H371.3L88.9,480L88.9,480z"/>
</svg>
