<svg xmlns="http://www.w3.org/2000/svg" height="480" width="640" viewBox="0 0 640 480"><defs><clipPath id="a"><path fill-opacity=".67" d="M-71.873-.012h682.68v512.01h-682.68z"/></clipPath></defs><g fill-rule="evenodd" clip-path="url(#a)"><path d="M.029 382.154v-284.294l211.605 142.074-211.605 142.23z"/><path d="M144.416 479.868l237.565-159.893h337.669v159.893h-575.234z" fill="#00c"/><path d="M129.143.069l590.488.012v159.92h-337.669s-249.654-161.514-252.819-159.932z" fill="#f00"/><path d="M.029 60.049v37.788l211.605 142.074-211.605 142.23v37.786l266.52-180.016-266.52-179.862z" fill="#fc0"/><path d="M.029 60.049v-59.98h88.913l282.33 191.036h348.356v97.693h-348.356l-282.33 191.007h-88.912v-59.877l266.519-180.016-266.52-179.862z" fill="#093"/><path d="M88.942.069h55.465l237.565 159.921h337.669v31.115h-348.356l-282.331-191.036zm0 479.799h55.465l237.565-159.893h337.669v-31.114h-348.356l-282.331 191.007z" fill="#fff"/></g></svg>