<svg xmlns="http://www.w3.org/2000/svg" width="48" height="48" fill="none" viewBox="0 0 48 48">
    <path
        fill="#FF385C"
        d="M5 17c0-6.627 5.373-12 12-12h14c6.627 0 12 5.373 12 12v14c0 6.627-5.373 12-12 12H17c-6.627 0-12-5.373-12-12V17Z"
    />
    <path
        fill="#fff"
        d="M34.635 30.148c-.008-.679-.167-1.35-.414-1.98-.192-.489-.415-.963-.631-1.44a271.043 271.043 0 0 0-5.43-11.158c-.267-.515-.527-1.031-.81-1.538-.276-.494-.598-.968-1.015-1.355a3.966 3.966 0 0 0-2.472-1.069h-.422a3.947 3.947 0 0 0-2.539 1.102c-.402.38-.712.844-.98 1.323-.279.498-.536 1.008-.797 1.513a274.449 274.449 0 0 0-3.701 7.459c-.713 1.498-1.42 3-2.1 4.514-.282.631-.536 1.283-.633 1.97a5.029 5.029 0 0 0 2.973 5.351 5.137 5.137 0 0 0 2.325.412c1.062-.057 2.087-.44 2.987-.997 1.004-.615 1.862-1.434 2.662-2.292.742.8 1.537 1.566 2.456 2.164.886.584 1.897 1.005 2.96 1.106a5.105 5.105 0 0 0 3.322-.808 5.066 5.066 0 0 0 1.903-2.338 5.01 5.01 0 0 0 .356-1.939ZM23.643 29.7c-.29-.341-.546-.71-.803-1.077a13.223 13.223 0 0 1-1.14-1.995c-.258-.58-.466-1.19-.547-1.821-.059-.502-.045-1.025.139-1.502.169-.45.478-.832.883-1.09.956-.617 2.32-.55 3.186.198.44.374.7.926.767 1.494.087.755-.085 1.513-.349 2.217-.497 1.307-1.285 2.478-2.136 3.576Zm9.383 1.601a3.557 3.557 0 0 1-1.673 2.098 3.654 3.654 0 0 1-2.367.4c-1.022-.159-1.94-.702-2.735-1.343-.585-.47-1.111-1.006-1.615-1.56.796-1.006 1.546-2.06 2.118-3.21.501-1.01.881-2.102.916-3.235.02-.72-.115-1.453-.45-2.093-.441-.856-1.23-1.514-2.132-1.831a4.367 4.367 0 0 0-2.644-.084 3.926 3.926 0 0 0-2.062 1.395 3.924 3.924 0 0 0-.763 2.05c-.09 1.06.176 2.117.577 3.09.597 1.423 1.473 2.712 2.441 3.907-.436.503-.91.974-1.416 1.407-.786.665-1.686 1.244-2.704 1.464a3.699 3.699 0 0 1-2.466-.289 3.546 3.546 0 0 1-1.82-2.225 3.66 3.66 0 0 1 .08-2.145c.194-.568.457-1.109.703-1.655a270.692 270.692 0 0 1 5.369-11.04c.28-.542.554-1.086.85-1.62.241-.428.522-.85.918-1.151.429-.334.96-.51 1.503-.5a2.373 2.373 0 0 1 1.541.558c.422.35.707.83.963 1.307a176.756 176.756 0 0 1 1.69 3.285 266.913 266.913 0 0 1 4.573 9.513c.221.497.457.991.606 1.515a3.628 3.628 0 0 1 0 1.992Z"
    />
</svg>
