<svg xmlns="http://www.w3.org/2000/svg" id="logosandtypes_com" data-name="logosandtypes com" viewBox="0 0 150 150">
    <defs>
        <style>
            .cls-1 {
                fill: #fd2751;
            }
        </style>
    </defs>
    <path id="Layer_3" d="M0 0h150v150H0V0Z" data-name="Layer 3" style="fill: none" />
    <path
        d="M23.16 138.3c3.7-9.74 7.02-18.52 10.89-28.72 4.86 7.06 9.38 12.9 13.02 19.24 1.98 3.45-3.67 8.96-7.97 9.4-.92.09-1.86.08-2.8.08H23.17ZM50.39 68.35l19.27-54.9h21.86l33.26 124.91h-14.09c-4.04-1.66-6.65-4.53-7.78-8.4-6.15-21.06-24.78-83.47-24.78-83.47L62.92 87.47 50.39 68.36Z"
        class="cls-1"
    />
    <path
        d="M17.2 69.78h25.88L59.95 94.7c18.94-21.52 43.45-27.61 71.82-22.96-27.49 8.43-53.47 24.55-77.12 52.2L17.2 69.78Z"
        style="fill: #fcc836"
    />
</svg>
