<?xml version="1.0" encoding="utf-8"?>
<!-- Generator: Adobe Illustrator 24.1.0, SVG Export Plug-In . SVG Version: 6.00 Build 0)  -->
<svg
    version="1.1"
    id="Layer_1"
    xmlns="http://www.w3.org/2000/svg"
    xmlns:xlink="http://www.w3.org/1999/xlink"
    x="0px"
    y="0px"
    viewBox="0 0 118 98.5"
    style="enable-background: new 0 0 118 98.5"
    xml:space="preserve"
>
    <g id="Layer_2_1_">
        <g id="Layer_1-2">
            <polygon
                points="53.2,20.7 32.5,20.7 32.5,0 20.7,0 20.7,20.7 0,20.7 0,32.5 20.7,32.5 20.7,53.2 32.5,53.2 32.5,32.5 53.2,32.5 
					"
            />
            <path
                d="M118,48.2v49.3h-16.1v-11c-5.3,8.6-13.3,12-22.8,12c-14.8,0-23.5-8.2-23.5-21.6c0-18.4,16.5-20.1,29.3-21.5
			c9.9-1.1,16.8-2,16.8-8.5c0-4.9-3.9-8.6-12.4-8.6c-9.1,0-14.4,4.3-16.6,11.6l-15.9-4c4.1-13.3,15.2-21.4,33-21.4
			C108.1,24.4,118,33.1,118,48.2z M101.6,69.3v-5.7c-4.9,1.5-9.8,2.5-14.9,3c-8.3,1.1-14.8,1.7-14.8,9.5c0,6,4.1,8.7,11.1,8.7
			C93.4,84.7,101.6,78.9,101.6,69.3L101.6,69.3z"
            />
        </g>
    </g>
</svg>
