<svg xmlns="http://www.w3.org/2000/svg" width="48" height="48" fill="none" viewBox="0 0 48 48">
    <path
        fill="#F90"
        d="M39.086 36.933c-17.013 8.098-27.573 1.323-34.332-2.792-.419-.26-1.13.061-.512.77 2.25 2.73 9.631 9.31 19.263 9.31 9.64 0 15.374-5.258 16.091-6.177.713-.91.21-1.41-.51-1.11Zm4.779-2.638c-.458-.595-2.778-.706-4.24-.526-1.463.173-3.659 1.069-3.468 1.605.098.201.298.111 1.302.02 1.008-.1 3.833-.456 4.42.313.592.774-.9 4.462-1.172 5.058-.263.595.1.749.595.352.488-.396 1.37-1.422 1.963-2.874.587-1.458.946-3.495.599-3.948Z"
    />
    <path
        fill="#000"
        fill-rule="evenodd"
        d="M27.646 20.411c0 2.124.053 3.897-1.02 5.784-.867 1.534-2.24 2.477-3.774 2.477-2.095 0-3.313-1.596-3.313-3.95 0-4.648 4.165-5.492 8.107-5.492v1.181Zm5.5 13.292c-.36.322-.883.346-1.29.132-1.81-1.504-2.131-2.202-3.129-3.637-2.992 3.053-5.108 3.966-8.99 3.966-4.586 0-8.16-2.83-8.16-8.5 0-4.424 2.4-7.439 5.813-8.911 2.962-1.305 7.096-1.534 10.255-1.895v-.705c0-1.297.1-2.83-.659-3.95-.667-1.005-1.94-1.42-3.06-1.42-2.078 0-3.935 1.066-4.387 3.275-.092.492-.453.975-.944.998l-5.292-.568c-.446-.1-.936-.46-.814-1.143C13.71 4.933 19.5 3 24.685 3c2.654 0 6.121.705 8.215 2.716 2.653 2.476 2.4 5.783 2.4 9.38v8.499c0 2.554 1.059 3.673 2.057 5.053.352.492.428 1.083-.016 1.451a230.186 230.186 0 0 0-4.18 3.62l-.015-.016Z"
        clip-rule="evenodd"
    />
    <path
        fill="#F90"
        d="M39.086 36.933c-17.013 8.098-27.573 1.323-34.332-2.792-.419-.26-1.13.061-.512.77 2.25 2.73 9.631 9.31 19.263 9.31 9.64 0 15.374-5.258 16.091-6.177.713-.91.21-1.41-.51-1.11Zm4.779-2.638c-.458-.595-2.778-.706-4.24-.526-1.463.173-3.659 1.069-3.468 1.605.098.201.298.111 1.302.02 1.008-.1 3.833-.456 4.42.313.592.774-.9 4.462-1.172 5.058-.263.595.1.749.595.352.488-.396 1.37-1.422 1.963-2.874.587-1.458.946-3.495.599-3.948Z"
    />
    <path
        fill="#000"
        fill-rule="evenodd"
        d="M27.646 20.411c0 2.124.053 3.897-1.02 5.784-.867 1.534-2.24 2.477-3.774 2.477-2.095 0-3.313-1.596-3.313-3.95 0-4.648 4.165-5.492 8.107-5.492v1.181Zm5.5 13.292c-.36.322-.883.346-1.29.132-1.81-1.504-2.131-2.202-3.129-3.637-2.992 3.053-5.108 3.966-8.99 3.966-4.586 0-8.16-2.83-8.16-8.5 0-4.424 2.4-7.439 5.813-8.911 2.962-1.305 7.096-1.534 10.255-1.895v-.705c0-1.297.1-2.83-.659-3.95-.667-1.005-1.94-1.42-3.06-1.42-2.078 0-3.935 1.066-4.387 3.275-.092.492-.453.975-.944.998l-5.292-.568c-.446-.1-.936-.46-.814-1.143C13.71 4.933 19.5 3 24.685 3c2.654 0 6.121.705 8.215 2.716 2.653 2.476 2.4 5.783 2.4 9.38v8.499c0 2.554 1.059 3.673 2.057 5.053.352.492.428 1.083-.016 1.451a230.186 230.186 0 0 0-4.18 3.62l-.015-.016Z"
        clip-rule="evenodd"
    />
</svg>
