<svg xmlns="http://www.w3.org/2000/svg" width="48" height="48" fill="none" viewBox="0 0 48 48">
    <path fill="#fff" d="M5 5v38h38V5H5Z" />
    <path
        fill="#006FCF"
        d="m36.223 14.323 1.216-3.306H43V5H5v38h38v-6.004h-5.244l-1.938-2.267-2.014 2.267H18.908V24.925h-4.915l6.144-13.908h5.978l1.444 3.154v-3.154h7.423l1.241 3.306Zm-4.192 2.191-.013-1.33.507 1.33 2.47 6.6h2.457l2.483-6.6.481-1.317v7.916H43V12.98h-4.294l-1.95 5.143-.52 1.393-.532-1.393-1.963-5.143h-4.294v10.133h2.584v-6.599Zm-5.561 6.6h2.977L24.988 12.98H21.53l-4.484 10.133h2.939l.785-1.95h4.915l.785 1.95Zm-3.75-6.701.507-1.267.507 1.267 1.051 2.558H21.67l1.052-2.558Zm-1.735 8.524v10.096h8.462V32.84h-5.878v-1.76h5.764v-2.179h-5.764v-1.773h5.878v-2.192h-8.462Zm17.873 10.096h3.357l-4.738-5.067 4.738-5.029h-3.306l-3.053 3.281-3.04-3.28h-3.37l4.725 5.066-4.724 5.029h3.268l3.078-3.294 3.065 3.294Zm1.28-5.08L43 32.867v-5.789l-2.863 2.875Z"
    />
</svg>
