<svg xmlns="http://www.w3.org/2000/svg" width="48" height="48" fill="none" viewBox="0 0 48 48">
    <path
        fill="url(#a)"
        d="M11.736 39.792a19.975 19.975 0 0 0 12.265 4.203c5.052 0 9.659-1.876 13.175-4.957.042-.037.021-.063-.021-.037-1.578 1.054-6.074 3.355-13.154 3.355-6.155 0-10.043-1.375-12.24-2.6-.04-.021-.057.01-.025.036Zm13.622 1.022c4.921 0 10.33-1.342 13.564-3.998.886-.724 1.728-1.687 2.484-2.982.434-.745.86-1.63 1.206-2.5.015-.043-.01-.063-.042-.015-3.008 4.428-11.72 7.19-20.713 7.19-6.357 0-13.198-2.035-15.876-5.916-.026-.037-.053-.021-.037.02 2.494 5.304 10.063 8.201 19.414 8.201Zm-5.377-8.799c-10.237 0-15.063-4.768-15.94-8.022-.01-.048-.041-.037-.041.005 0 1.096.11 2.51.298 3.448.09.456.462 1.173 1.007 1.744 2.478 2.585 8.658 6.207 19.36 6.207 14.582 0 17.916-4.859 18.597-6.457.486-1.143.738-3.208.738-4.943 0-.361-.008-.723-.026-1.084 0-.053-.031-.057-.042-.006-.729 3.91-13.186 9.108-23.951 9.108ZM5.928 15.419c-.587 1.164-1.236 3.128-1.43 4.145-.084.436-.05.645.104.97 1.228 2.604 7.433 6.77 21.909 6.77 8.83 0 15.691-2.17 16.803-6.13.204-.73.215-1.499-.048-2.536-.293-1.16-.844-2.511-1.309-3.46-.016-.031-.043-.026-.037.01.172 5.195-14.308 8.543-21.616 8.543-7.914 0-14.516-3.155-14.516-7.138 0-.382.08-.765.178-1.163.01-.037-.022-.043-.038-.011Zm31.28-6.377a.806.806 0 0 1 .126.461c0 2.222-6.798 6.153-17.62 6.153-7.952 0-9.441-2.951-9.441-4.827 0-.671.257-1.357.824-2.055.031-.04.004-.057-.031-.026a19.996 19.996 0 0 0-2.816 2.925c-.397.503-.644.948-.644 1.215 0 3.888 9.748 6.708 18.863 6.708 9.712 0 14.046-3.171 14.046-5.958 0-.996-.387-1.577-1.38-2.705a23.585 23.585 0 0 0-1.896-1.918c-.031-.026-.052-.005-.031.027ZM34.23 6.82A19.774 19.774 0 0 0 24.001 4c-3.78 0-7.365 1.058-10.374 2.903-.901.555-1.409 1-1.409 1.573 0 1.687 3.94 3.5 10.932 3.5 6.92 0 12.287-1.986 12.287-3.899 0-.455-.4-.775-1.206-1.257"
    />
    <defs>
        <radialGradient
            id="a"
            cx="0"
            cy="0"
            r="1"
            gradientTransform="matrix(0 24.0592 -28.9577 0 17.014 24.273)"
            gradientUnits="userSpaceOnUse"
        >
            <stop stop-color="#00A8E0" />
            <stop offset="1" stop-color="#1696D4" />
        </radialGradient>
    </defs>
</svg>
