<svg
    version="1.1"
    id="Layer_1"
    xmlns="http://www.w3.org/2000/svg"
    xmlns:xlink="http://www.w3.org/1999/xlink"
    x="0px"
    y="0px"
    viewBox="0 0 483.6 499"
    style="enable-background: new 0 0 483.6 499"
    xml:space="preserve"
    height="20"
    width="19"
>
    <style type="text/css">
        .st0 {
            fill: #5aacfa;
        }
    </style>
    <g>
        <path
            d="M274.7,157c0,37.1,30.1,67.3,67.3,67.3c37.1,0,67.3-30.1,67.3-67.3V67.3C409.3,30.1,379.2,0,342,0h-89.7   C215.2,0,185,30.1,185,67.3c0,37.1,30.1,67.3,67.3,67.3h22.4V157z M342,358.8c37.1,0,67.3-30.1,67.3-67.3   c0-37.1-30.1-67.3-67.3-67.3H72.9c-37.1,0-67.3,30.1-67.3,67.3c0,37.1,30.1,67.3,67.3,67.3H342z M89.7,157   c0,39.9,32.9,72.9,72.9,72.9c39.9,0,72.9-32.9,72.9-72.9c0-39.9-32.9-72.9-72.9-72.9C122.6,84.1,89.7,117,89.7,157z M0,426.1   C0,466.1,32.9,499,72.9,499c39.9,0,72.9-32.9,72.9-72.9c0-39.9-32.9-72.9-72.9-72.9C32.9,353.2,0,386.2,0,426.1z M269.1,426.1   c0,39.9,32.9,72.9,72.9,72.9c39.9,0,72.9-32.9,72.9-72.9c0-39.9-32.9-72.9-72.9-72.9C302.1,353.2,269.1,386.2,269.1,426.1z"
        />
        <path
            class="st0"
            d="M137.2,292.2c0,12.6,9.8,22.3,22.3,22.3c11.9,0,22.3-9.8,22.3-22.3c0-11.9-10.5-22.3-22.3-22.3   C147,269.9,137.2,280.3,137.2,292.2z M137.2,426.3c0,12.6,9.8,22.3,22.3,22.3c11.9,0,22.3-9.8,22.3-22.3   c0-11.9-10.5-22.3-22.3-22.3C147,403.9,137.2,414.4,137.2,426.3z M215.4,158.1c0,18.9,14.7,33.5,33.5,33.5   c17.5,0,33.5-14.7,33.5-33.5c0-17.5-16.1-33.5-33.5-33.5C230.1,124.6,215.4,140.7,215.4,158.1z M215.4,292.2   c0,18.9,14.7,33.5,33.5,33.5c17.5,0,33.5-14.7,33.5-33.5c0-17.5-16.1-33.5-33.5-33.5C230.1,258.7,215.4,274.7,215.4,292.2z    M293.7,68.7c0,25.1,19.6,44.7,44.7,44.7c23,0,44.7-19.6,44.7-44.7c0-23-21.6-44.7-44.7-44.7C313.2,24.1,293.7,45.7,293.7,68.7z    M293.7,292.2c0,25.1,19.6,44.7,44.7,44.7c23,0,44.7-19.6,44.7-44.7c0-23-21.6-44.7-44.7-44.7C313.2,247.5,293.7,269.2,293.7,292.2   z M371.9,68.7c0,31.4,24.4,55.9,55.9,55.9c28.6,0,55.9-24.4,55.9-55.9c0-28.6-27.2-55.9-55.9-55.9   C396.3,12.9,371.9,40.1,371.9,68.7z M371.9,158.1c0,31.4,24.4,55.9,55.9,55.9c28.6,0,55.9-24.4,55.9-55.9   c0-28.6-27.2-55.9-55.9-55.9C396.3,102.3,371.9,129.5,371.9,158.1z M371.9,426.3c0,31.4,24.4,55.9,55.9,55.9   c28.6,0,55.9-24.4,55.9-55.9c0-28.6-27.2-55.9-55.9-55.9C396.3,370.4,371.9,397.6,371.9,426.3z M371.9,292.2   c0,31.4,24.4,55.9,55.9,55.9c28.6,0,55.9-24.4,55.9-55.9c0-28.6-27.2-55.9-55.9-55.9C396.3,236.3,371.9,263.6,371.9,292.2z"
        />
    </g>
</svg>
