<svg xmlns="http://www.w3.org/2000/svg" width="48" height="48" fill="none" viewBox="0 0 48 48">
    <path
        fill="#E31837"
        d="M23.93 36.476C31.195 30.252 41.398 24.2 47 22.021c-.865-.553-2.213-1.349-3.736-2.213-7.228 2.386-15.667 7.677-23.207 13.66 1.28.968 2.629 1.971 3.874 3.008Z"
    />
    <path
        fill="#012169"
        d="M20.61 19.565c-1.072-.518-2.248-1.003-3.147-1.418-2.732 1.349-6.295 3.39-10.791 6.605.969.52 2.006 1.142 3.112 1.764 3.46-2.559 6.953-4.98 10.826-6.95Z"
    />
    <path
        fill="#E31837"
        d="M27.078 16.591c-1.314-.726-5.88-2.42-9.027-3.147-.934.346-2.248.865-3.147 1.245 1.141.311 5.395 1.452 9.027 3.285.934-.449 2.248-1.003 3.147-1.383Z"
    />
    <path
        fill="#012169"
        d="M11.618 16.141C7.571 18.01 3.317 20.568 1 22.056c.83.38 1.66.691 2.801 1.244 5.12-3.458 9.131-5.568 10.722-6.26-1.142-.415-2.213-.69-2.905-.899Z"
    />
    <path
        fill="#E31837"
        d="M30.122 15.519c.933-.311 2.006-.588 2.94-.864-2.698-1.142-6.088-2.352-9.131-3.113-.485.139-1.937.519-2.94.83 1.038.311 4.461 1.107 9.13 3.147ZM13.07 28.522c1.106.657 2.282 1.557 3.424 2.317C24.07 24.96 31.54 20.43 39.737 17.871c-1.142-.588-2.145-1.107-3.424-1.73-4.912 1.246-13.316 4.6-23.242 12.381Z"
    />
</svg>
