<svg xmlns="http://www.w3.org/2000/svg" fill="none" viewBox="0 0 48 48">
    <path
        fill="url(#a)"
        d="M45.175 2H14.889L2.349 14.54c-.222.222-.349.54-.349.889v7.174h7.397v-7.238c0-.19.159-.35.349-.35h4.032c.19 0 .349.16.349.35v7.206h7.175c.19 0 .349.16.349.35v4.031c0 .19-.159.35-.35.35h-7.174v7.206c0 .19-.159.35-.35.35h-4.03a.352.352 0 0 1-.35-.35v-7.175H2v17.429A1.24 1.24 0 0 0 3.238 46h29.365c.318 0 .635-.127.89-.35L46 33.112V2.825A.82.82 0 0 0 45.175 2Zm-5.397 32.889h-4.826a.289.289 0 0 1-.254-.127l-4.508-6.095-4.508 6.095a.289.289 0 0 1-.253.127h-4.762c-.286 0-.445-.318-.254-.54l6.857-9.27a.334.334 0 0 0 0-.412l-6.92-9.334c-.096-.127 0-.317.158-.317h5.048c.095 0 .222.063.253.127l4.381 5.905 4.35-5.937a.289.289 0 0 1 .254-.127h5.079c.159 0 .254.19.159.318l-6.89 9.396c-.094.096-.094.254 0 .381l6.89 9.334c.159.158 0 .476-.254.476Z"
    />
    <defs>
        <linearGradient id="a" x1="46.152" x2="2.566" y1="1.856" y2="45.451" gradientUnits="userSpaceOnUse">
            <stop offset=".05" stop-color="#42B8EB" />
            <stop offset=".103" stop-color="#3EAADE" />
            <stop offset=".321" stop-color="#2E73AD" />
            <stop offset=".509" stop-color="#234C89" />
            <stop offset=".658" stop-color="#1C3373" />
            <stop offset=".75" stop-color="#192A6B" />
        </linearGradient>
    </defs>
</svg>
