<svg width="20" height="19" viewBox="0 0 20 19" fill="none" xmlns="http://www.w3.org/2000/svg">
<path d="M18.3851 18.0785H1.61944C1.33535 18.0805 1.05579 18.0073 0.809186 17.8662C0.562583 17.7251 0.357847 17.5211 0.215658 17.2752C0.0735422 17.0291 -0.000854344 16.7499 7.402e-06 16.4658C0.000940961 16.1817 0.0770617 15.9028 0.220758 15.6577L8.1466 1.93055C8.33453 1.6053 8.60469 1.33522 8.93 1.14746C9.25538 0.959688 9.62435 0.86084 10 0.86084C10.3756 0.86084 10.7447 0.959688 11.07 1.14746C11.3953 1.33522 11.6655 1.6053 11.8534 1.93055L19.7792 15.6577C19.9229 15.9028 19.9991 16.1817 20 16.4658C20.0009 16.7499 19.9265 17.0291 19.7843 17.2752C19.6422 17.5211 19.4374 17.7251 19.1908 17.8662C18.9443 18.0073 18.6646 18.0805 18.3806 18.0785H18.3851ZM4.41911 14.8517H15.5901L10.0046 5.17575L4.41911 14.8517Z" fill="url(#paint0_linear_3186_1628)"/>
<defs>
<linearGradient id="paint0_linear_3186_1628" x1="3.21791" y1="20.3384" x2="16.7936" y2="6.76276" gradientUnits="userSpaceOnUse">
<stop stop-color="#0073D1"/>
<stop offset="0.06" stop-color="#0082CE"/>
<stop offset="0.22" stop-color="#00A0C9"/>
<stop offset="0.39" stop-color="#00B8C4"/>
<stop offset="0.57" stop-color="#00C9C1"/>
<stop offset="0.76" stop-color="#00D3C0"/>
<stop offset="1" stop-color="#00D6BF"/>
</linearGradient>
</defs>
</svg>
