<svg xmlns="http://www.w3.org/2000/svg" fill="none" viewBox="0 0 48 48">
    <path
        fill="#00AEEF"
        d="M44.51 17.15c.2 2.085.101 3.829-.035 5.402-.229 2.638-.669 4.216-1.304 5.905-.656 1.75-1.458 3.42-2.319 4.829l-.051.085c-.276.45-.478.78-.593.934a2.446 2.446 0 0 0-.066-.072c-.104-.108-.26-.27-.5-.51-.352-.352-1.338-1.64-1.615-2.036-.245-.346-.783-1.164-1.075-1.785l-.15-.318-.275.217c-.294.233-.465.638-.458 1.087.006.394.097.852.336 1.688.262.912.722 2.002 1.255 2.99.065.121.131.24.193.35.368.66.51.963.335 1.09a.138.138 0 0 1-.08.023c-.219 0-.62-.208-1.078-.557-.407-.31-1.495-1.23-2.813-3.072a27.607 27.607 0 0 1-2.56-4.38l-.114-.241s-.167.058-.321.154a.687.687 0 0 0-.263.26c-.151.27-.2.629-.148 1.036.12.98.695 2.476 1.159 3.556.783 1.823 2.223 3.873 3.294 5.273.04.054.09.111.14.17.056.067.152.177.199.25-.094.096-.313.273-.577.492l-.394.321a29.591 29.591 0 0 1-4.562 3.1c-1.337.749-4.06 2.13-5.864 2.613-1.805-.483-4.526-1.864-5.864-2.612a29.3 29.3 0 0 1-4.563-3.101l-.405-.33a9.163 9.163 0 0 1-.57-.487l.343-.415c1.07-1.396 2.51-3.445 3.294-5.273.462-1.078 1.04-2.57 1.162-3.557.051-.407 0-.764-.15-1.034a.737.737 0 0 0-.338-.31l-.245-.103-.115.24a27.777 27.777 0 0 1-2.56 4.381c-1.313 1.84-2.403 2.76-2.81 3.072-.451.344-.863.557-1.079.557-.019 0-.053-.001-.069-.015l-.04-.032c-.131-.14.018-.444.367-1.07l.19-.347c.535-.988.99-2.078 1.254-2.987.24-.84.331-1.297.337-1.69.007-.447-.164-.854-.46-1.087l-.275-.217-.148.318c-.271.58-.792 1.385-1.075 1.785-.28.398-1.267 1.688-1.615 2.036-.24.24-.396.403-.5.513l-.066.07c-.118-.16-.33-.505-.62-.979-.887-1.45-1.689-3.118-2.343-4.868-.635-1.691-1.075-3.27-1.304-5.905-.138-1.583-.238-3.334-.035-5.406.204-2.115.733-4.112 1.492-5.622C6.466 9.392 7.8 8.126 9.473 7.656a6.852 6.852 0 0 1 1.81-.256c1.329 0 2.39.437 3.153 1.3.424.475.59 1.2.426 1.844-.148.58-.555.957-1.096 1.21-.14.066-.3.106-.3.106s.019.075.16.307c.535.86 1.575 1.312 3.003 1.312.333 0 .68-.025 1.033-.073 2.033-.283 2.948-1.567 3.282-4.038.13-.965.255-1.776-.366-2.78-.436-.703-1.68-1.118-2.59-1.115-.813.004-1.243.215-1.503.486-.011-.04-.069-.107-.083-.143-.093-.22-.175-.47-.094-.916.095-.528.515-1.022.736-1.196.474-.38 1.01-.741 1.876-.923.41-.086.843-.164 1.329-.164.103 0 .447-.002.601.01.068.004.078-.025.127-.085.297-.36.765-.556 1.617-.537.656.015 1.53.049 2.218.269a4.67 4.67 0 0 1 1.277.616c.414.267.844.827 1.027 1.36.273.797.43 1.789.471 2.934.047 2.282.371 3.668 1.01 4.494 1.032 1.332 1.913 1.61 2.978 1.678l.116.002c2.01 0 2.744-.637 3.071-1.122 0 0 .178-.25.251-.392-.255-.047-.418-.107-.418-.107-.512-.192-.874-.601-1.022-1.153a2.082 2.082 0 0 1 .413-1.879c.954-1.107 2.373-1.288 3.133-1.298h.087c.595 0 1.176.088 1.726.263.75.236 1.398.569 1.929.99 1.043.834 1.701 1.974 2.157 2.871.748 1.467 1.307 3.57 1.492 5.62Z"
    />
</svg>
