<svg xmlns="http://www.w3.org/2000/svg" fill="none" viewBox="0 0 48 48">
    <path
        fill="#004580"
        d="M8.705 24.608c.158.053.34.131.549.236.366.21.679.497.941.863.315.523.47 1.15.47 1.881 0 2.51-1.517 3.765-4.548 3.765H.236c-.157 0-.236-.078-.236-.236V19.04c0-.157.079-.236.236-.236h6.196c1.099 0 1.986.302 2.666.902.679.602 1.02 1.4 1.02 2.393 0 .576-.131 1.085-.391 1.53-.263.445-.603.771-1.022.98Zm-2.666 4.94c.889 0 1.542-.143 1.96-.43.418-.287.628-.784.628-1.49s-.21-1.202-.627-1.49c-.42-.288-1.073-.431-1.96-.431H2.352c-.21 0-.314.078-.314.235v3.374c0 .157.104.235.314.235H6.04v-.002Zm-3.686-8.94c-.157 0-.236.078-.236.235v2.823c0 .158.079.236.236.236h3.608c1.358 0 2.039-.548 2.039-1.647s-.68-1.647-2.04-1.647H2.354Zm19.06 4c.157.053.314.131.47.236.417.21.731.497.941.863.366.523.549 1.15.549 1.881 0 2.51-1.518 3.765-4.55 3.765h-5.882c-.157 0-.235-.078-.235-.236V19.04c0-.157.078-.236.236-.236h6.196c1.046 0 1.92.302 2.628.902.706.602 1.06 1.4 1.06 2.393 0 .576-.132 1.085-.392 1.53-.264.445-.604.771-1.021.98Zm-6.433-4c-.157 0-.235.078-.235.235v2.823c0 .158.078.236.235.236h3.686c1.36 0 2.04-.548 2.04-1.647s-.68-1.647-2.04-1.647H14.98Zm3.765 8.94c.889 0 1.542-.143 1.96-.43.418-.287.628-.784.628-1.49s-.21-1.202-.628-1.49c-.418-.288-1.073-.431-1.96-.431H14.98c-.157 0-.235.078-.235.235v3.374c0 .157.078.235.235.235h3.765v-.002ZM34.588 18.96c.052-.104.105-.157.157-.157h2.04c.05 0 .104.027.157.079.051.052.051.105 0 .157l-6.51 12.236a.266.266 0 0 1-.196.078.263.263 0 0 1-.197-.078l-6.51-12.236c-.052-.052-.066-.105-.038-.157.025-.052.09-.079.196-.079h1.96c.105 0 .183.053.236.157l4.156 7.844c0 .053.052.079.157.079.105 0 .183-.026.236-.079l4.156-7.844Zm2.353 10.433c-.052.105-.13.157-.235.157h-2.039c-.053 0-.092-.026-.118-.079a.333.333 0 0 1-.04-.157L41.02 17.08c.052-.052.13-.079.236-.079.105 0 .183.027.236.079L48 29.314a.35.35 0 0 1-.04.157c-.026.053-.066.079-.117.079h-2.039c-.106 0-.184-.052-.236-.157l-4.079-7.844c-.053-.104-.131-.157-.235-.157-.106 0-.185.053-.236.157l-4.077 7.844Z"
    />
</svg>
