<svg xmlns="http://www.w3.org/2000/svg" width="48" height="48" fill="none" viewBox="0 0 48 48">
    <path
        fill="#F3BA2F"
        d="M15.455 20.489 24 11.944l8.548 8.55 4.973-4.973L24 2 10.482 15.517l4.973 4.972Zm-8.484-1.462 4.973 4.971-4.973 4.973L2 23.998l4.971-4.97Zm8.484 8.483L24 36.055l8.548-8.549 4.975 4.97-.002.003L24 45.999 10.475 32.477l4.98-4.966ZM46 24l-4.973 4.973-4.971-4.972 4.972-4.972L46 24Z"
    />
    <path
        fill="#F3BA2F"
        d="M29.043 23.997h.002L24 18.952l-3.73 3.728h-.001l-.428.428-.884.885-.007.007L24 29.048l5.046-5.045.001-.003-.003-.003Z"
    />
</svg>
