<svg xmlns="http://www.w3.org/2000/svg" width="48" height="48" fill="none" viewBox="0 0 48 48">
    <path
        fill="#0C3B7C"
        fill-rule="evenodd"
        d="M44 11.51A7.516 7.516 0 0 0 36.488 4H11.512A7.516 7.516 0 0 0 4 11.51v23.98A7.516 7.516 0 0 0 11.513 43h24.975A7.516 7.516 0 0 0 44 35.49V11.51Z"
        clip-rule="evenodd"
    />
    <path fill="#0C3B7C" fill-rule="evenodd" d="M4 27h20v16H4V27Z" clip-rule="evenodd" />
    <path
        fill="#fff"
        d="m23.18 29.817-3.223-.003V25.96c0-.823.32-1.251 1.024-1.349h2.198c1.568 0 2.582.988 2.582 2.588 0 1.643-.989 2.615-2.582 2.617Zm-3.223-10.39v-1.015c0-.887.376-1.309 1.199-1.363h1.65c1.413 0 2.26.845 2.26 2.262 0 1.078-.58 2.338-2.21 2.338h-2.899v-2.223Zm7.336 3.844-.582-.328.508-.434c.592-.51 1.584-1.653 1.584-3.627 0-3.022-2.344-4.972-5.972-4.972h-4.14v-.001h-.471a2.02 2.02 0 0 0-1.948 1.996v17.151h6.64c4.033 0 6.635-2.195 6.635-5.594 0-1.831-.84-3.395-2.254-4.191Z"
    />
    <path
        fill="#00BAFC"
        d="M31.277 30.687c0-1.31 1.056-2.37 2.358-2.37a2.37 2.37 0 0 1 0 4.74 2.365 2.365 0 0 1-2.358-2.37Z"
    />
</svg>
