<svg xmlns="http://www.w3.org/2000/svg" width="48" height="48" fill="none" viewBox="0 0 48 48">
    <path
        fill="#CC2427"
        d="M6.897 4.504c5.793-.382 11.604-.607 17.414-.457 4.142.14 8.297.41 12.365 1.251 2.294.507 4.612 1.157 6.618 2.42 1.199.778 2.375 1.867 2.629 3.342.316 1.71-.388 3.394-1.248 4.835-1.604 2.591-3.79 4.756-6.033 6.793-2.828 2.515-5.84 4.816-8.93 6.997-3.032 2.109-6.072 4.205-9.162 6.228a201.86 201.86 0 0 1-12.07 7.179H2.91c2.848-1.98 5.524-4.195 8.147-6.464 3.231-2.799 6.365-5.71 9.438-8.682.6-.577 1.244-1.121 1.698-1.828 1.464-2.053 2.812-4.417 2.743-7.018-.04-1.779-1.009-3.413-2.324-4.556-2.164-1.858-4.926-2.81-7.641-3.527-2.744-.7-5.554-1.085-8.364-1.387C5.07 9.544 3.54 9.33 2 9.32V4.893c1.626-.197 3.264-.266 4.897-.39v.001Z"
    />
</svg>
