<svg xmlns="http://www.w3.org/2000/svg" width="48" height="48" fill="none" viewBox="0 0 48 48">
    <path fill="#fff" d="M24 2c12.148 0 22 9.852 22 22s-9.852 22-22 22S2 36.148 2 24 11.852 2 24 2Z" />
    <path
        fill="#0052FF"
        d="M24.007 31.736A7.733 7.733 0 0 1 16.273 24a7.731 7.731 0 0 1 7.734-7.733c3.828 0 7.006 2.79 7.619 6.445h7.792c-.658-7.941-7.302-14.18-15.411-14.18C15.468 8.531 8.538 15.46 8.538 24s6.93 15.469 15.469 15.469c8.109 0 14.754-6.24 15.41-14.181H31.62c-.612 3.656-3.784 6.448-7.612 6.448Z"
    />
</svg>
