<svg xmlns="http://www.w3.org/2000/svg" fill="none" viewBox="0 0 48 48">
    <path
        fill="#006645"
        d="m31.238 22.774-2.858-7.217-3.715 7.975c-1.258 2.515-5.374 3.244-8.246 3.644l.529-1.072 8.317-15.706h6.488l4.644 9.532 2.044 4.516 4.201 9.075-2.9-.014-2.259-.015c-.943.015-1.872-.057-2.272-1.057l-.8-1.944-1.343-3.272-1.83-4.445Zm12.576 13.333H.971v3.687h42.843v-3.687Z"
    />
    <path
        fill="#E20613"
        d="m46.944 7.955-1.715.915-6.088 3.2s-2.1 1.13-3.444 1.416c.371 1.157.743 1.9 1.1 2.486.1.172.258.315.429.415.229.142.486.214.757.228a1.59 1.59 0 0 0 .8-.171l8.19-4.402-.03-4.087Z"
    />
    <path
        fill="#008A91"
        d="m36.469 19.96-5.16 2.857c-6.473 3.53-14.89 6.946-22.178 6.345-3.087-.257-4.93-1.414-4.76-3.386.2-2.244 2.144-4.602 5.546-6.96 2.6-1.8 4.887-2.787 6.087-3.201 1.572-.558 2.916-.8 4.345-.872.343 0 .671.029.914.1 0-.043-.014-.086-.028-.129-.658-4.187-1.744-4.744-3.473-4.687-4.83.157-10.89 3.487-14.105 7.36-1.729 2.072-2.6 4.559-2.643 6.33-.058 2.716 1.014 6.417 4.33 8.303 3.687 2.101 8.96 1.958 13.747.872 5.145-1.157 9.646-3.387 14.062-5.63l5.36-2.787L47 19.602l.029-5.302-10.561 5.66Z"
    />
</svg>
