<svg xmlns="http://www.w3.org/2000/svg" width="48" height="48" fill="none" viewBox="0 0 48 48">
    <path fill="#008600" d="M5 5h38v38H5z" />
    <path
        fill="#fff"
        d="M13.805 26.617c0-3.497 1.684-5.293 4.396-5.293 2.02 0 3.271.786 3.723 1.01.337-.336.558-.898.558-1.459 0-1.01-1.12-2.02-4.392-2.02-3.833 0-7.09 2.694-7.09 7.762s2.934 7.763 6.754 7.763c2.357 0 4.17-.786 4.728-1.01v-2.807c-.558.449-2.468 1.347-4.28 1.347-2.469 0-4.397-1.797-4.397-5.293Zm18.688-.112c1.684-2.021 3.27-4.395 4.392-7.426l-2.468-.898c-1.574 4.282-3.945 7.201-6.754 9.575V13h-2.694v21.059h2.694v-3.16c1.01-.786 1.91-1.571 2.934-2.47l2.473 4.283c.562 1.01 1.457 1.571 2.694 1.571.673 0 1.12-.224 1.236-.336l-4.507-7.426v-.016Z"
    />
</svg>
