<svg xmlns="http://www.w3.org/2000/svg" width="48" height="48" fill="none" viewBox="0 0 48 48">
    <path
        fill="#F27923"
        d="M24.9 27.819c2.08 0 3.766-1.663 3.766-3.716 0-2.052-1.686-3.715-3.766-3.715s-3.766 1.663-3.766 3.715c0 2.052 1.686 3.716 3.766 3.716Z"
    />
    <path
        fill="#1A1918"
        fill-rule="evenodd"
        d="M3.875 20.541H1.882v6.87h1.983c1.054 0 1.815-.246 2.484-.793a3.43 3.43 0 0 0 1.264-2.637c0-2.028-1.535-3.44-3.738-3.44Zm1.587 5.16c-.427.38-.981.547-1.859.547H3.24v-4.543h.364c.878 0 1.41.155 1.859.556.47.412.752 1.052.752 1.71 0 .66-.283 1.318-.752 1.73Zm2.776-5.16h1.358v6.87H8.238v-6.87Zm4.679 2.636c-.815-.297-1.054-.494-1.054-.865 0-.433.426-.761 1.011-.761.407 0 .742.165 1.095.556l.711-.918a3.07 3.07 0 0 0-2.046-.761c-1.232 0-2.172.843-2.172 1.968 0 .946.438 1.43 1.713 1.884.532.185.803.308.94.391.27.175.406.422.406.71 0 .557-.448.97-1.054.97-.648 0-1.17-.32-1.482-.916l-.878.833c.626.906 1.378 1.308 2.411 1.308 1.411 0 2.401-.926 2.401-2.256 0-1.091-.457-1.585-2.002-2.143Zm2.431.803c0 2.02 1.607 3.585 3.675 3.585.585 0 1.085-.113 1.703-.4v-1.577c-.543.536-1.024.752-1.64.752-1.368 0-2.338-.978-2.338-2.37 0-1.318 1.001-2.358 2.275-2.358.648 0 1.138.227 1.703.772v-1.576c-.596-.299-1.087-.422-1.67-.422-2.059 0-3.708 1.597-3.708 3.595Zm16.146 1.175-1.857-4.614h-1.483l2.955 7.046h.73l3.008-7.046h-1.472l-1.88 4.614Zm3.967 2.255h3.852v-1.162h-2.495v-1.855h2.403V23.23h-2.403v-1.525h2.495v-1.164h-3.852v6.87Zm9.229-4.84c0-1.287-.898-2.029-2.464-2.029h-2.014v6.87h1.357v-2.76h.177l1.88 2.76h1.67l-2.192-2.895c1.023-.205 1.586-.895 1.586-1.947Zm-2.724 1.134h-.397v-2.08h.418c.846 0 1.306.349 1.306 1.017 0 .691-.46 1.063-1.327 1.063Zm3.591-2.904c0-.12-.084-.187-.232-.187h-.196v.604h.146v-.234l.171.234h.179l-.202-.25c.087-.022.134-.084.134-.168Zm-.257.082h-.025v-.158h.026c.073 0 .11.026.11.078 0 .053-.038.08-.111.08Z"
        clip-rule="evenodd"
    />
    <path
        fill="#1A1918"
        fill-rule="evenodd"
        d="M45.355 20.387a.527.527 0 1 0 0 1.053c.29 0 .527-.237.527-.526a.529.529 0 0 0-.527-.527Zm-.002.96a.428.428 0 0 1-.425-.433c0-.24.189-.432.425-.432a.43.43 0 0 1 .422.433c0 .237-.19.431-.422.431Z"
        clip-rule="evenodd"
    />
</svg>
