<svg xmlns="http://www.w3.org/2000/svg" width="48" height="48" fill="none" viewBox="0 0 48 48">
    <path
        fill="#5865F2"
        d="M39.305 9.833c4.97 7.309 7.423 15.553 6.505 25.043a.14.14 0 0 1-.057.101c-3.763 2.764-7.409 4.442-11.004 5.554a.14.14 0 0 1-.155-.053 29.329 29.329 0 0 1-2.246-3.654.141.141 0 0 1 .075-.196 22.448 22.448 0 0 0 3.434-1.633.141.141 0 0 0 .013-.234 18.91 18.91 0 0 1-.685-.536.133.133 0 0 0-.143-.018c-7.116 3.288-14.912 3.288-22.113 0a.138.138 0 0 0-.142.02c-.223.183-.45.361-.682.534a.141.141 0 0 0-.035.186.14.14 0 0 0 .049.048 23.972 23.972 0 0 0 3.432 1.635.139.139 0 0 1 .076.194 26.133 26.133 0 0 1-2.247 3.657.143.143 0 0 1-.154.05c-3.578-1.112-7.224-2.79-10.988-5.554a.15.15 0 0 1-.056-.103c-.767-8.21.796-16.521 6.5-25.043a.138.138 0 0 1 .059-.05 36.21 36.21 0 0 1 8.955-2.779.144.144 0 0 1 .145.069c.388.687.832 1.569 1.132 2.29a33.51 33.51 0 0 1 10.06 0c.3-.705.727-1.603 1.115-2.29a.138.138 0 0 1 .144-.069 36.343 36.343 0 0 1 8.956 2.778.12.12 0 0 1 .057.053ZM20.657 25.44c.035-2.427-1.734-4.434-3.954-4.434-2.203 0-3.954 1.99-3.954 4.434s1.786 4.435 3.954 4.435c2.203 0 3.954-1.991 3.954-4.435Zm14.62 0c.035-2.427-1.734-4.434-3.953-4.434-2.204 0-3.955 1.99-3.955 4.434s1.786 4.435 3.955 4.435c2.22 0 3.953-1.991 3.953-4.435Z"
    />
</svg>
