<svg xmlns="http://www.w3.org/2000/svg" width="48" height="48" fill="none" viewBox="0 0 48 48">
    <path
        fill="#01147C"
        d="M33.097 27.508c-.609.14-2.211.221-2.211.221l-.204.637s.8-.069 1.383-.01c0 0 .19-.02.212.217.009.221-.017.458-.017.458s-.012.145-.216.18c-.22.037-1.725.093-1.725.093l-.246.827s-.088.19.115.136c.19-.052 1.768-.348 1.975-.305.22.054.465.347.393.619-.084.331-1.658 1.341-2.618 1.268 0 0-.503.035-.93-.648-.397-.65.152-1.885.152-1.885s-.25-.577-.067-.768c0 0 .11-.098.422-.123l.385-.802s-.44.029-.702-.293c-.245-.31-.262-.45-.076-.535.2-.097 2.03-.433 3.29-.39 0 0 .44-.043.816.721-.004 0 .182.31-.13.382Zm-4.74 3.081c-.161.382-.588.79-1.117.535-.524-.254-1.357-1.965-1.357-1.965s-.317-.637-.377-.624c0 0-.068-.123-.11.573-.042.696.009 2.05-.266 2.262-.262.212-.58.128-.745-.123-.148-.246-.211-.832-.13-1.858.097-1.028.334-2.122.638-2.466.305-.34.55-.094.643-.005 0 0 .406.37 1.078 1.456l.119.2s.609 1.027.672 1.022c0 0 .051.047.093.013.064-.017.038-.348.038-.348s-.127-1.116-.68-3.009c0 0-.085-.238-.026-.459.055-.224.28-.118.28-.118s.862.432 1.276 1.842c.41 1.422.132 2.69-.03 3.072Zm-4.238-3.62c-.072.145-.114.352-.478.408 0 0-3.48.237-3.645.483 0 0-.123.145.068.187.19.038.976.145 1.357.165.406.005 1.777.017 2.267.633 0 0 .292.293.279.955-.013.679-.131.917-.393 1.163-.276.229-2.635 1.29-4.158-.34 0 0-.701-.785.241-1.38 0 0 .682-.41 2.412.073 0 0 .523.191.498.382-.03.203-.431.42-1.015.408-.567-.018-.98-.29-.9-.247.076.03-.61-.33-.821-.085-.212.226-.16.366.047.505.528.302 2.571.196 3.18-.483 0 0 .24-.276-.127-.501-.368-.212-1.42-.34-1.831-.36-.393-.022-1.857.004-2.068-.387 0 0-.212-.263.02-1.01.246-.78 1.95-1.082 2.687-1.15 0 0 2.025-.072 2.397.343-.004 0 .047.098-.017.238Zm-5.751 4.58c-.245.182-.765.102-.913-.103-.149-.182-.2-.908-.17-2.045.03-1.15.055-2.576.3-2.801.263-.23.424-.03.525.127.11.153.241.323.27.683.026.361.11 2.254.11 2.254s.11 1.706-.122 1.885Zm.528-6.103c-.714.237-1.205.156-1.62-.021-.181.318-.287.415-.426.436-.203.022-.386-.305-.419-.412-.034-.08-.131-.216-.013-.538-.406-.365-.436-.858-.368-1.189.102-.382.787-1.833 2.872-2.003 0 0 1.02-.076 1.193.471h.029s.99.004.968.887c-.012.888-1.1 1.991-2.216 2.369Zm-1.945-1.966c-.211.34-.22.544-.123.684.242-.37.682-.95 1.329-1.392-.5.042-.918.259-1.206.708Zm2.88-.568c-.655.098-1.67.98-2.152 1.702.74.136 2.047.085 2.626-1.1-.004 0 .274-.734-.474-.602Zm17.796 6.837c-.394.687-1.497 2.122-2.969 1.787-.486 1.184-.892 2.376-1.124 4.167 0 0-.052.349-.34.225-.283-.101-.756-.577-.849-1.235-.102-.865.283-2.33 1.066-4.006-.229-.373-.385-.908-.25-1.668 0 0 .2-1.41 1.607-2.682 0 0 .17-.148.266-.102.11.047.06.505-.029.726-.09.22-.72 1.315-.72 1.315s-.392.739-.282 1.32c.74-1.141 2.422-3.446 3.467-2.72.352.25.512.797.512 1.388-.005.522-.127 1.073-.355 1.485Zm-.304-1.808s-.06-.454-.5.047c-.38.42-1.066 1.213-1.62 2.288.58-.064 1.138-.383 1.307-.544.276-.246.914-.908.813-1.79Zm-20.533.577c-.08 1.027-.473 2.755-3.26 3.607-1.84.557-3.577.29-4.525.047-.021.378-.064.54-.123.603-.08.08-.68.428-1.01-.063-.149-.234-.225-.658-.267-1.036-2.131-.985-3.112-2.402-3.15-2.466-.047-.047-.533-.556-.047-1.18.456-.565 1.95-1.129 3.294-1.358.047-1.155.183-2.025.343-2.424.195-.462.44-.046.651.268.178.234.283 1.24.292 2.041.88-.042 1.4.022 2.381.2 1.277.233 2.131.887 2.055 1.63-.055.73-.723 1.03-.977 1.052-.266.021-.68-.17-.68-.17-.284-.135-.022-.254.32-.403.373-.182.288-.369.288-.369-.14-.407-1.797-.692-3.446-.692-.01.912.038 2.428.059 3.31 1.155.222 2.018.18 2.018.18s4.21-.12 4.338-2.819c.131-2.704-4.2-5.297-7.401-6.12-3.196-.84-5.007-.255-5.163-.174-.17.085-.013.11-.013.11s.174.025.474.128c.317.101.071.267.071.267-.545.174-1.158.064-1.277-.187-.118-.25.08-.475.31-.798.228-.34.477-.327.477-.327 3.954-1.375 8.771 1.112 8.771 1.112 4.512 2.297 5.282 4.987 5.197 6.031Zm-11.934-.14c-.448.221-.14.54-.14.54.842.908 1.878 1.476 2.863 1.828.115-1.566.098-2.118.11-2.907-1.539.107-2.426.353-2.833.539ZM46 28.055v.56a.22.22 0 0 1-.22.222h-2.66c0 .14.004.263.004.377 0 .828-.034 1.503-.114 2.262a.22.22 0 0 1-.215.2h-.575a.204.204 0 0 1-.196-.143.206.206 0 0 1-.008-.087c.08-.755.119-1.422.119-2.232 0-.119 0-.242-.005-.377H39.5a.218.218 0 0 1-.22-.221v-.56c0-.124.097-.221.22-.221h2.592a19.567 19.567 0 0 0-.342-2.682.198.198 0 0 1 .038-.153.18.18 0 0 1 .14-.068h.622c.096 0 .177.068.198.165.171.905.284 1.82.338 2.738h2.694c.119 0 .22.102.22.22Z"
    />
    <path
        fill="url(#a)"
        d="M40.55 23.612a18.616 18.616 0 0 0-6.715-8.36A18.41 18.41 0 0 0 23.354 12a18.498 18.498 0 0 0-15.448 8.302.216.216 0 0 0-.026.19.206.206 0 0 0 .136.136l.482.166a.279.279 0 0 0 .309-.106 17.725 17.725 0 0 1 6.19-5.615 17.576 17.576 0 0 1 8.353-2.118 17.46 17.46 0 0 1 9.828 3.014 17.648 17.648 0 0 1 6.373 7.762.255.255 0 0 0 .233.157h.575a.194.194 0 0 0 .165-.09.186.186 0 0 0 .025-.186Zm-.883.2c.012.008.025.017.038.021-.013-.009-.026-.013-.038-.021Z"
    />
    <defs>
        <radialGradient
            id="a"
            cx="0"
            cy="0"
            r="1"
            gradientTransform="matrix(32.145 0 0 32.2602 40.01 23.867)"
            gradientUnits="userSpaceOnUse"
        >
            <stop offset=".007" stop-color="#021192" />
            <stop offset=".03" stop-color="#021096" />
            <stop offset=".057" stop-color="#010CB4" />
            <stop offset=".084" stop-color="#0008CE" />
            <stop offset=".111" stop-color="#0006D7" />
            <stop offset=".138" stop-color="#0004E1" />
            <stop offset=".165" stop-color="#0001FA" />
            <stop offset=".191" stop-color="#0000FE" />
            <stop offset=".216" stop-color="#0F1EFF" />
            <stop offset="1" stop-color="#0FF" stop-opacity="0" />
        </radialGradient>
    </defs>
</svg>
