<svg xmlns="http://www.w3.org/2000/svg" width="48" height="48" fill="none" viewBox="0 0 48 48">
    <path
        fill="#fff"
        d="m16.155 16.161 13.4-13.342c1-.996 2.135-1.184 3.35 0l12.456 12.4c.892.888.811 2.233 0 3.04L18.262 45.212c-.973.968-2.243 1.13-3.377 0L2.7 33.08c-.974-.968-.892-2.502 0-3.39l13.455-13.53Z"
    />
    <path
        fill="#006491"
        d="m16.371 17.532 14.022 13.96L17.64 44.19c-.784.78-1.595.807-2.404 0L3.565 32.57c-.73-.727-.676-1.534 0-2.207L16.37 17.532Z"
    />
    <path
        fill="#E31837"
        d="M31.285 30.66 17.262 16.698 30.015 4.003c.783-.782 1.593-.808 2.404 0l11.672 11.62c.73.725.676 1.534 0 2.206L31.285 30.66Z"
    />
    <path
        fill="#fff"
        d="M34.661 16.726a3.45 3.45 0 0 1-3.457 3.442 3.45 3.45 0 0 1-3.459-3.443 3.451 3.451 0 0 1 3.459-3.443 3.45 3.45 0 0 1 3.457 3.444Zm-9.699 14.767a3.45 3.45 0 0 1-3.458 3.444 3.451 3.451 0 0 1-3.458-3.444 3.451 3.451 0 0 1 3.458-3.443 3.45 3.45 0 0 1 3.458 3.443Zm-10.104 0a3.452 3.452 0 0 1-3.459 3.444 3.451 3.451 0 0 1-3.458-3.444A3.451 3.451 0 0 1 11.4 28.05a3.452 3.452 0 0 1 3.459 3.443Z"
    />
</svg>
