<svg xmlns="http://www.w3.org/2000/svg" width="48" height="48" fill="none" viewBox="0 0 48 48">
    <path
        fill="#FF3008"
        d="M33.57 35.883h-6.89c-.21 0-.42-.02-.626-.06a3.065 3.065 0 0 1-.603-.183 2.985 2.985 0 0 1-.558-.295 3.055 3.055 0 0 1-.49-.4l-6.828-6.787a1.075 1.075 0 0 1-.295-.544 1.062 1.062 0 0 1 .064-.616 1.06 1.06 0 0 1 .68-.612c.1-.031.205-.047.31-.047h15.23c1.573-.017 2.835-1.289 2.817-2.844-.014-1.556-1.302-2.805-2.875-2.787h-22.09a3.226 3.226 0 0 1-2.278-.936l-6.825-6.786a1.074 1.074 0 0 1-.188-.249 1.066 1.066 0 0 1 .352-1.388c.087-.057.182-.104.283-.136.1-.029.205-.044.31-.045h31.334c4.14-.015 7.948 2.235 9.894 5.848 5.006 9.399-1.77 18.867-10.728 18.867Z"
    />
</svg>
