<svg xmlns="http://www.w3.org/2000/svg" fill="none" viewBox="0 0 48 48">
    <g clip-path="url(#a)">
        <path fill="#0066B3" d="M48.2 7.56H.2v25.373h48V7.561Z" />
        <path fill="#F37021" d="M48.2 33.557H.2v6.88h48v-6.88Z" />
        <path
            fill="#fff"
            d="M48.2 32.307H30.364c.855-4.438 1.76-9.172 1.973-10.134.28-1.323 1.858-1.167 1.636.181a74.073 74.073 0 0 0-.37 2.433c-.214 1.742 3.945 1.964 4.43.099 1.233-4.89 2.244-9.411 2.244-9.411h-4.981c-6.92 0-7.38 1.159-8.614 6.057l-2.44 10.792h-.165l-3.871-16.85H8.255l1.405 5.87 5.482.015 2.483 10.957H.2v2.392h17.96l1.282 5.679h9.387l1.076-5.68H48.2v-2.4Z"
        />
    </g>
    <defs>
        <clipPath id="a">
            <path fill="#fff" d="M0 0h48v48H0z" />
        </clipPath>
    </defs>
</svg>
