<svg xmlns="http://www.w3.org/2000/svg" width="48" height="48" fill="none" viewBox="0 0 48 48">
    <path
        fill="#202843"
        fill-rule="evenodd"
        d="M42.923 30.459C46.49 20.008 40.909 8.644 30.458 5.077 20.008 1.51 8.644 7.091 5.078 17.541 1.51 27.992 7.09 39.356 17.541 42.923c10.45 3.566 21.814-2.014 25.38-12.464Z"
        clip-rule="evenodd"
    />
    <path
        fill="#FFC94C"
        fill-rule="evenodd"
        d="M7.07 34.639c3.112-1.485 13.702-6.683 15.79-7.907 1.714-.999 4.267-2.472 4.267-2.472l1.082 2.207 1.654 10.876 1.263-.73.84-15.19c2.552-1.595 4.8-3.148 7.153-4.772.863-.595 1.74-1.2 2.65-1.821-.288-.557-.602-1.1-.94-1.627-.993.478-1.956.934-2.902 1.384-2.584 1.226-5.052 2.396-7.71 3.808l-13.575-6.867-1.263.729 8.592 6.87 1.368 2.037.002.004s-2.552 1.474-4.275 2.46c-2.102 1.195-11.902 7.769-14.742 9.72.233.44.482.87.746 1.29Z"
        clip-rule="evenodd"
    />
</svg>
