<svg xmlns="http://www.w3.org/2000/svg" width="48" height="48" fill="none" viewBox="0 0 48 48">
    <path fill="#fff" d="M5.002 5.002h37.996v37.994H5.002V5.002Z" />
    <path
        fill="#F96302"
        d="M5.002 5.002h23.84c1.919 0 3.838-.004 5.753.003-.53.539-1.073 1.074-1.608 1.612.212.224.435.431.647.65.487-.334 1.037-.602 1.636-.646.538-.056 1.081.084 1.576.3.187.08.363.207.574.227.208-.012.363-.195.435-.38.06-.127.004-.278-.096-.37-.462-.467-.93-.926-1.388-1.393 2.21-.011 4.42 0 6.627-.003 0 2.154.004 4.312 0 6.47-.454-.446-.898-.9-1.348-1.348-.12-.123-.316-.187-.48-.111a.513.513 0 0 0-.259.251c-.06.232.044.459.136.666.28.59.403 1.257.32 1.907a3.102 3.102 0 0 1-.456 1.257 4.181 4.181 0 0 0-.18.284c.232.199.428.438.663.634.527-.543 1.07-1.073 1.604-1.612 0 3.603.004 7.205 0 10.808-.104.036-.22.108-.327.056-.144-.092-.251-.227-.371-.343-1.293-1.285-2.574-2.581-3.87-3.862-.515.515-1.022 1.033-1.545 1.536.276.311.583.586.87.886 1.038 1.037 2.075 2.074 3.117 3.112.087.091.191.171.239.291.016.132-.076.243-.112.363-.052.14.06.307.208.311.131.024.243-.064.327-.151.487-.491.977-.978 1.464-1.465v18.054H24.94c.462-.463.925-.922 1.388-1.385a2658.882 2658.882 0 0 1-4.72-4.72c-.515.495-1.01 1.01-1.52 1.509-.108.111-.228.22-.28.37-.023.148.112.288.256.296.128-.016.235-.1.363-.128.112-.007.2.08.28.152.933.941 1.87 1.875 2.808 2.813.236.247.491.47.71.726.1.112.032.255-.024.367h-10.8l2.55-2.55c.159-.151.322-.326.346-.558.036-.267-.235-.535-.502-.479-.224.044-.407.22-.639.22-.147-.012-.26-.12-.359-.216-2.03-2.027-4.058-4.057-6.085-6.084-.135-.136-.299-.267-.347-.463-.008-.231.156-.419.216-.63.076-.268-.176-.56-.447-.539-.188.012-.355.12-.483.251-.878.89-1.771 1.768-2.65 2.658-.003-9.867 0-19.738 0-29.604Z"
    />
    <path
        fill="#fff"
        d="M32.409 7.192c.036-.04.1-.076.136-.016 2.781 2.777 5.56 5.557 8.339 8.338-.976.976-1.951 1.952-2.925 2.929-.128.12-.284.22-.459.231-.243.02-.487-.2-.467-.447.008-.243.216-.43.22-.678.008-.155-.112-.271-.212-.379-2.063-2.059-4.121-4.121-6.184-6.184-.116-.112-.244-.251-.42-.24-.259.005-.454.244-.717.216-.152.004-.276-.116-.351-.24-.104-.215-.009-.474.147-.633.966-.966 1.931-1.932 2.893-2.897Zm4.006.81c.08-.148.231-.283.41-.26.2.017.344.18.475.312.797.8 1.596 1.6 2.395 2.397.151.148.33.292.367.511.02.228-.188.431-.407.455-.184.004-.352-.096-.51-.184-.34-.199-.723-.359-1.126-.339-.208-.004-.407.08-.595.164-.22-.236-.47-.447-.678-.69.064-.18.148-.351.16-.543.028-.435-.148-.85-.368-1.213-.111-.18-.2-.403-.123-.61ZM18.83 10.116c.431-.454.886-.881 1.317-1.332.41.399.81.802 1.213 1.205.131.127.012.343-.136.395-.124.016-.232-.068-.343-.108-.431-.211-.966-.235-1.397-.004-.111.048-.203.144-.323.163-.12-.095-.22-.215-.331-.319Zm-.271.256c.586.566 1.153 1.153 1.731 1.723.906.902 1.808 1.812 2.718 2.713a177.51 177.51 0 0 1-1.565 1.564c-.107.12-.323.172-.427.024-.127-.136.012-.303.052-.443.048-.103-.035-.195-.103-.267a1025.29 1025.29 0 0 1-3.129-3.128c-.095-.088-.175-.195-.29-.255-.16-.036-.284.107-.44.116-.12-.013-.231-.132-.215-.256a.409.409 0 0 1 .132-.247c.51-.515 1.03-1.022 1.536-1.544Zm2.082.638a.236.236 0 0 1 .18-.311c.104-.016.188.064.26.132.43.43.861.865 1.296 1.292.076.084.184.16.192.284.016.123-.104.243-.232.23-.167 0-.295-.13-.447-.187a.803.803 0 0 0-.714.008c-.116-.115-.231-.235-.351-.343.052-.175.1-.363.056-.546-.032-.208-.176-.367-.24-.559Zm7.641.311a.694.694 0 0 1 .395-.207c.267-.04.547.22.495.49-.036.24-.235.431-.22.683.04.175.184.295.3.419 2.039 2.035 4.078 4.065 6.108 6.104.112.1.224.232.383.232.24 0 .423-.18.65-.22.264-.044.523.215.491.479-.015.18-.123.335-.247.459-1.025 1.02-2.047 2.05-3.072 3.072-.132.131-.3.251-.495.251a.454.454 0 0 1-.45-.383c-.029-.28.23-.487.223-.766-.012-.132-.104-.24-.192-.335-1.791-1.788-3.579-3.579-5.37-5.366 1.48 2.748 2.972 5.49 4.453 8.239.023.04.043.083.063.131-.107.1-.211.207-.315.315-2.964-1.46-5.925-2.936-8.886-4.4-.466-.232-.93-.503-1.456-.567-.175-.024-.295.12-.423.212-.131.103-.307.167-.47.115-.196-.087-.332-.319-.272-.53.04-.144.14-.264.244-.368.957-.953 1.91-1.91 2.868-2.86 1.492.73 2.989 1.444 4.485 2.175.048.035.1.071.144.119.024-.028.044-.056.068-.084l-.056.008c-.786-1.496-1.612-2.972-2.398-4.468.99-.982 1.967-1.967 2.952-2.949Zm-5.239.675c.072-.132.276-.148.372-.036.402.406.814.813 1.22 1.22-.454.46-.912.916-1.372 1.369-.104-.12-.244-.215-.323-.355.131-.224.271-.451.307-.714a1.804 1.804 0 0 0-.148-1.081c-.044-.128-.14-.276-.056-.403Zm-6.699.598c.08-.084.168-.172.284-.2.115-.023.259.048.275.176.028.14-.076.255-.104.391-.016.108.072.184.136.255 1.065 1.066 2.126 2.13 3.192 3.192.072.068.147.152.251.176.128-.012.235-.096.36-.124.15-.016.29.148.243.291-.02.108-.104.188-.176.264-.519.518-1.037 1.037-1.556 1.552-.092.091-.211.187-.347.155a.302.302 0 0 1-.168-.167c-.04-.176.148-.32.104-.495-.04-.068-.096-.12-.148-.176-.486-.482-.97-.973-1.46-1.456a32.11 32.11 0 0 1-.519.519 7.395 7.395 0 0 1-.35-.355c.175-.172.346-.347.522-.519-.431-.423-.858-.854-1.285-1.28-.092-.088-.171-.184-.28-.248-.195-.064-.382.212-.57.06-.152-.108-.103-.324.02-.435.523-.53 1.053-1.05 1.576-1.576Z"
    />
    <path
        fill="#fff"
        d="M14.302 14.665c.12-.076.3-.028.356.107.055.164-.092.304-.096.463-.004.084.064.144.115.2 1.106 1.105 2.207 2.21 3.312 3.311.2.216.455-.155.67.004.14.112.092.331-.027.435-.52.523-1.042 1.037-1.557 1.56-.083.08-.167.176-.283.211-.128.036-.283-.043-.299-.179-.024-.16.12-.283.112-.439a.458.458 0 0 0-.112-.175c-1.046-1.042-2.09-2.086-3.132-3.132-.1-.092-.184-.208-.315-.256-.144-.008-.264.1-.403.116-.12.004-.224-.104-.228-.22-.012-.123.076-.223.16-.307a649.65 649.65 0 0 0 1.552-1.556c.056-.051.108-.103.175-.143Zm-2.884 2.852c.24-.231.47-.47.71-.706.419.407.83.83 1.249 1.241.072.08.16.152.2.255.047.196-.176.411-.372.324-.195-.088-.35-.244-.539-.348-.315-.195-.682-.319-1.057-.275-.107-.111-.227-.215-.323-.335.032-.064.084-.108.132-.155Zm-1.74 1.74c.447-.439.886-.882 1.329-1.325.838.843 1.679 1.683 2.521 2.522.463.459.914.926 1.38 1.376.133.148.308.024.452-.028.143-.064.311.064.307.216 0 .103-.06.191-.128.263-.542.539-1.077 1.077-1.615 1.616-.076.076-.172.152-.284.144-.124.012-.243-.108-.232-.228.009-.127.108-.231.108-.359.008-.108-.084-.175-.147-.247-1.273-1.265-2.534-2.542-3.81-3.803.04-.051.075-.1.119-.147Zm29.945-.391c.494.487.985.977 1.472 1.472.156.148.044.443-.164.475-.191.028-.339-.124-.486-.223-.395-.272-.862-.527-1.357-.443a3.022 3.022 0 0 1-.367-.383c.307-.296.603-.599.902-.898Zm-30.352.81c.148.056.24.223.36.327-.065.463.155.898.414 1.26.076.117.168.224.215.356.053.175-.12.359-.295.339-.1 0-.167-.084-.231-.144-.435-.439-.874-.87-1.309-1.308.287-.272.555-.563.846-.83Zm8.878 2.25a4.905 4.905 0 0 1 2.473-.116c1.389.296 2.618 1.11 3.6 2.119.961.973 1.727 2.194 1.986 3.555a4.811 4.811 0 0 1-.103 2.258 5.474 5.474 0 0 1-1.078 1.963c-.207-.22-.434-.423-.634-.646 0-.108.068-.2.088-.304a.998.998 0 0 0-.268-1.001c-1.97-1.975-3.95-3.95-5.92-5.925-.18-.183-.407-.33-.667-.35-.211-.029-.419.047-.618.119-.08.044-.132-.056-.184-.096-.16-.171-.335-.327-.495-.503l-.004-.048a5.317 5.317 0 0 1 1.824-1.025Zm5.378-.22c.184.06.351.152.523.24.642.311 1.28.634 1.927.95a.732.732 0 0 1 .156.115c.542.55 1.089 1.093 1.636 1.64a2.84 2.84 0 0 0 1.069.71c.283.108.602.108.886.008.143-.048.299-.104.45-.056a.447.447 0 0 1 .276.375c-.012.22-.152.403-.3.555-.488.495-.98.986-1.476 1.472-.131.12-.283.244-.467.264-.263.04-.522-.24-.442-.495.075-.26.18-.523.135-.794-.064-.455-.323-.858-.61-1.205-1.081-1.085-2.167-2.167-3.252-3.256-.168-.175-.351-.335-.51-.522Zm12.17 1.086c.299-.3.602-.599.901-.902.132.108.248.236.371.355-.052.4.084.794.292 1.13.107.19.263.354.359.554.052.096.016.203-.02.299.503.34.942.767 1.297 1.26.403.571.686 1.25.67 1.96.004.674-.288 1.32-.714 1.831-.116-.12-.252-.227-.352-.363.02-.148.092-.291.056-.439-.04-.191-.187-.327-.319-.459a2339.5 2339.5 0 0 1-3.152-3.148c-.104-.103-.227-.199-.375-.21a.94.94 0 0 0-.407.067c-.124-.116-.247-.24-.367-.36.53-.454 1.22-.745 1.927-.71.272-.007.535.056.798.116-.319-.33-.658-.642-.966-.981Zm-20.88 2.342c.22-.61.567-1.17.978-1.668.203.208.419.407.618.618.04.128-.064.248-.084.375-.103.344.032.719.284.966 1.939 1.943 3.882 3.882 5.825 5.825.188.204.415.395.702.439.255.04.507-.048.742-.136l.647.643a5.45 5.45 0 0 1-1.6.961 4.864 4.864 0 0 1-2.781.192c-1.4-.308-2.634-1.15-3.62-2.175-.909-.953-1.643-2.122-1.902-3.427a4.782 4.782 0 0 1 .191-2.613Zm18.134 1.153a2.861 2.861 0 0 1 .715-1.64c.115.12.24.24.359.36-.044.143-.112.294-.072.446.024.136.116.244.211.34 1.054 1.048 2.099 2.102 3.153 3.151.123.12.243.263.418.311.16.044.324-.012.48-.06.119.12.243.24.358.367-.502.415-1.129.707-1.791.707-.642.028-1.273-.2-1.807-.535a4.63 4.63 0 0 1-1.038-.894c.14.467.108.99-.112 1.429-.215.43-.55.782-.882 1.12-.12-.119-.243-.243-.367-.362.104-.168.172-.367.108-.563-.076-.2-.24-.343-.383-.495-.297-.3-.595-.6-.894-.897-.175-.164-.363-.351-.614-.367-.148-.016-.28.06-.403.131-.124-.12-.243-.243-.367-.363.479-.482 1.025-.981 1.727-1.069.575-.096 1.154.152 1.56.547-.255-.511-.414-1.086-.359-1.664Zm-21.03 1.392a.729.729 0 0 1 .442-.215c.276-.016.527.271.451.539-.06.203-.207.382-.215.602.016.191.175.327.303.455l6.144 6.144c.096.092.204.183.34.195.23 0 .41-.171.63-.223.263-.052.527.188.515.45-.008.18-.108.344-.232.471l-3.092 3.093c-.136.131-.303.247-.499.247a.446.446 0 0 1-.443-.463c.024-.239.224-.43.228-.678-.008-.148-.124-.26-.216-.363-.917-.922-1.839-1.836-2.753-2.753-.035-.028-.083-.108-.135-.052-.32.307-.627.63-.946.938-.215-.216-.43-.431-.646-.65.31-.324.626-.64.95-.95l.003-.068c-.866-.85-1.715-1.712-2.577-2.57-.132-.123-.256-.279-.44-.322-.25-.017-.446.179-.681.223-.304.052-.579-.291-.475-.575.052-.2.211-.343.35-.478.998-1.002 2-1.995 2.993-2.997Zm17.814 1.078c.48.446.93.925 1.401 1.384.894.898 1.792 1.795 2.69 2.693.063.052.123.124.207.14.171.016.307-.152.479-.12.103.036.199.136.187.251 0 .156-.132.264-.227.367-.563.555-1.118 1.117-1.68 1.672-.124.136-.355.068-.431-.084-.112-.187.192-.387.032-.558a1382.27 1382.27 0 0 1-3.467-3.467c-.084-.076-.156-.172-.256-.224-.171-.048-.307.096-.467.116-.123-.012-.243-.12-.235-.247-.012-.14.092-.248.18-.34a579.32 579.32 0 0 0 1.587-1.583Zm-3.558 3.555c.474-.467.937-.95 1.42-1.409.427.43.858.858 1.285 1.289.143.14-.008.35-.156.415-.104.011-.2-.052-.291-.092-.367-.18-.79-.267-1.193-.164-.256.052-.479.196-.703.327-.12-.123-.239-.247-.362-.366Zm-1.94 1.942c.551-.558 1.11-1.105 1.66-1.66.894.882 1.776 1.78 2.674 2.662.686.682 1.364 1.372 2.054 2.05-.534.551-1.085 1.086-1.62 1.632a.802.802 0 0 1-.283.176c-.1-.036-.223-.072-.255-.183-.06-.188.135-.336.112-.52-.08-.155-.22-.267-.34-.39l-2.908-2.909c-.172-.16-.316-.35-.519-.47-.204-.04-.387.219-.582.08-.168-.108-.12-.348.007-.468Zm3.87-.989c-.063-.164.088-.355.26-.327.08.02.14.072.195.127.42.424.842.838 1.257 1.261.136.14.312.26.367.459-.051.088-.107.208-.227.22-.196.02-.34-.136-.515-.2a.856.856 0 0 0-.77.004c-.127-.128-.251-.255-.379-.379.088-.188.128-.403.064-.603-.048-.203-.184-.37-.251-.562Zm2.566 1.041c.084-.127.287-.147.387-.028.431.435.87.866 1.297 1.305-.49.479-.962.981-1.464 1.448-.116-.123-.24-.243-.36-.367.427-.526.487-1.288.2-1.895-.052-.144-.164-.32-.06-.463Z"
    />
    <path
        fill="#F96302"
        d="M5.002 35.894c.16-.063.311-.163.487-.16.211.04.343.228.49.368 2.007 1.999 4.006 4.001 6.01 6 .11.124.255.248.274.423-.008.172-.1.323-.17.475-2.367-.004-4.729-.004-7.091-.004 0-2.366-.004-4.736 0-7.102Z"
    />
    <path
        fill="#fff"
        d="M23.575 35.786c.71-.06 1.417.196 2.003.583.459.307.886.662 1.213 1.105.391.523.63 1.161.634 1.82a2.842 2.842 0 0 1-.817 2.038c-.124-.119-.245-.24-.364-.363.072-.135.156-.279.132-.439-.04-.24-.204-.435-.367-.598l-2.693-2.693c-.184-.18-.391-.375-.663-.395-.147-.016-.279.06-.402.131-.116-.127-.276-.223-.348-.383.44-.45 1.038-.766 1.672-.806Z"
    />
</svg>
