<svg xmlns="http://www.w3.org/2000/svg" width="48" height="48" fill="none" viewBox="0 0 48 48">
    <path
        fill="#E73648"
        d="M35.19 43H12.81C8.505 43 5 39.497 5 35.175V12.806C5 8.503 8.505 5 12.81 5h22.38C39.514 5 43 8.481 43 12.784v22.37c.019 4.32-3.486 7.846-7.81 7.846Z"
    />
    <path
        fill="#191F3A"
        d="M18.543 21.835a.507.507 0 0 0-.533-.532h-3.703a.507.507 0 0 0-.533.532v3.688c0 .318.218.533.533.533h3.688a.507.507 0 0 0 .532-.533v-3.688h.016Zm8.161 8.176a.515.515 0 0 0-.533-.532h-3.688a.507.507 0 0 0-.532.532V33.7c0 .318.218.533.532.533h3.688a.507.507 0 0 0 .533-.533v-3.688Z"
    />
    <path
        fill="#FDDB33"
        d="M26.704 21.835a.507.507 0 0 0-.533-.532h-3.688a.507.507 0 0 0-.532.532v3.688c0 .318.218.533.532.533h3.688a.507.507 0 0 0 .533-.533v-3.688Z"
    />
    <path
        fill="#191F3A"
        d="M36.163 14.276a2.427 2.427 0 0 0-2.436-2.436H15.556c-.368 0-.586.134-.8.368l-3.654 3.638c-.268.268-.084.685.317.685h20.06v20.06c0 .401.401.585.685.317l3.653-3.638c.234-.234.352-.452.352-.82V14.277h-.006Z"
    />
</svg>
