<svg xmlns="http://www.w3.org/2000/svg" width="48" height="48" fill="none" viewBox="0 0 48 48">
    <path
        fill="url(#a)"
        d="M14.636 42.865c-2.26-.103-3.487-.478-4.304-.796-1.082-.422-1.853-.924-2.666-1.734-.812-.812-1.314-1.583-1.734-2.665-.317-.816-.695-2.043-.796-4.304C5.022 30.923 5 30.19 5 24.001c0-6.188.024-6.92.134-9.365.104-2.26.482-3.485.797-4.304.422-1.082.924-1.853 1.734-2.667.812-.81 1.583-1.314 2.666-1.734.816-.317 2.043-.694 4.303-.797C17.08 5.022 17.814 5 24 5c6.188 0 6.92.024 9.365.134 2.26.104 3.485.482 4.304.797 1.082.42 1.853.924 2.666 1.734.812.812 1.312 1.584 1.734 2.666.317.816.693 2.043.796 4.303C42.978 17.08 43 17.813 43 24c0 6.187-.022 6.921-.135 9.366-.103 2.26-.48 3.488-.796 4.304-.422 1.082-.924 1.853-1.734 2.665-.812.81-1.584 1.312-2.666 1.734-.816.317-2.043.693-4.303.796-2.444.113-3.178.135-9.366.135-6.187 0-6.921-.022-9.364-.135Z"
    />
    <path
        fill="url(#b)"
        d="M14.636 42.865c-2.26-.103-3.487-.478-4.304-.796-1.082-.422-1.853-.924-2.666-1.734-.812-.812-1.314-1.583-1.734-2.665-.317-.816-.695-2.043-.796-4.304C5.022 30.923 5 30.19 5 24.001c0-6.188.024-6.92.134-9.365.104-2.26.482-3.485.797-4.304.422-1.082.924-1.853 1.734-2.667.812-.81 1.583-1.314 2.666-1.734.816-.317 2.043-.694 4.303-.797C17.08 5.022 17.814 5 24 5c6.188 0 6.92.024 9.365.134 2.26.104 3.485.482 4.304.797 1.082.42 1.853.924 2.666 1.734.812.812 1.312 1.584 1.734 2.666.317.816.693 2.043.796 4.303C42.978 17.08 43 17.813 43 24c0 6.187-.022 6.921-.135 9.366-.103 2.26-.48 3.488-.796 4.304-.422 1.082-.924 1.853-1.734 2.665-.812.81-1.584 1.312-2.666 1.734-.816.317-2.043.693-4.303.796-2.444.113-3.178.135-9.366.135-6.187 0-6.921-.022-9.364-.135Z"
    />
    <path
        fill="#fff"
        d="M19.335 24.081a4.705 4.705 0 1 1 9.41 0 4.705 4.705 0 0 1-9.41 0Zm-2.545 0a7.25 7.25 0 1 0 14.499 0 7.25 7.25 0 0 0-14.499 0Zm13.092-7.536a1.691 1.691 0 0 0 1.693 1.694 1.691 1.691 0 0 0 1.694-1.693 1.694 1.694 0 0 0-3.387-.001M18.336 35.572c-1.376-.062-2.124-.292-2.622-.486a4.383 4.383 0 0 1-1.623-1.056 4.342 4.342 0 0 1-1.056-1.623c-.194-.496-.423-1.245-.486-2.62-.068-1.49-.082-1.936-.082-5.706 0-3.77.015-4.215.082-5.705.063-1.376.294-2.123.486-2.621a4.38 4.38 0 0 1 1.056-1.624 4.348 4.348 0 0 1 1.623-1.056c.498-.194 1.246-.424 2.622-.486 1.488-.069 1.936-.082 5.703-.082 3.77 0 4.216.014 5.706.082 1.375.062 2.123.294 2.62.486a4.38 4.38 0 0 1 1.625 1.056c.494.494.8.965 1.056 1.624.193.497.423 1.245.486 2.622.068 1.489.082 1.934.082 5.704 0 3.77-.014 4.217-.082 5.706-.063 1.376-.294 2.124-.486 2.62a4.382 4.382 0 0 1-1.056 1.624 4.39 4.39 0 0 1-1.624 1.056c-.496.193-1.246.423-2.62.485-1.49.068-1.936.083-5.707.083-3.77 0-4.215-.014-5.703-.083ZM18.22 10.05c-1.503.069-2.53.308-3.427.656a6.91 6.91 0 0 0-2.5 1.629 6.886 6.886 0 0 0-1.628 2.5c-.35.897-.588 1.924-.656 3.427-.07 1.505-.085 1.986-.085 5.82 0 3.834.015 4.315.084 5.82.069 1.503.308 2.53.657 3.427a6.88 6.88 0 0 0 1.628 2.5 6.944 6.944 0 0 0 2.5 1.629c.9.349 1.924.587 3.427.656 1.507.068 1.987.085 5.82.085 3.834 0 4.316-.015 5.82-.085 1.504-.068 2.53-.307 3.427-.656a6.958 6.958 0 0 0 2.5-1.628 6.89 6.89 0 0 0 1.629-2.5c.349-.898.59-1.924.656-3.427.069-1.507.085-1.987.085-5.821 0-3.834-.016-4.315-.085-5.82-.068-1.503-.307-2.53-.656-3.427a6.92 6.92 0 0 0-1.628-2.5 6.886 6.886 0 0 0-2.5-1.628c-.898-.35-1.924-.59-3.426-.657-1.505-.068-1.986-.086-5.82-.086-3.833 0-4.316.016-5.82.086"
    />
    <defs>
        <radialGradient
            id="a"
            cx="0"
            cy="0"
            r="1"
            gradientTransform="translate(7.46 42.166) scale(48.2433)"
            gradientUnits="userSpaceOnUse"
        >
            <stop offset=".09" stop-color="#FA8F21" />
            <stop offset=".78" stop-color="#D82D7E" />
        </radialGradient>
        <radialGradient
            id="b"
            cx="0"
            cy="0"
            r="1"
            gradientTransform="translate(31.32 40.946) scale(42.4546)"
            gradientUnits="userSpaceOnUse"
        >
            <stop offset=".64" stop-color="#8C3AAA" stop-opacity="0" />
            <stop offset="1" stop-color="#8C3AAA" />
        </radialGradient>
    </defs>
</svg>
