<svg xmlns="http://www.w3.org/2000/svg" width="48" height="48" fill="none" viewBox="0 0 48 48">
    <path
        fill="#0AAD0A"
        d="M36.99 8.298c-1.99 0-3.408.867-4.716 2.75L28.5 16.465V1h-9v15.466l-3.772-5.419C14.42 9.165 13.002 8.3 11.012 8.3 8.009 8.3 6.01 10.516 6 13.248c-.007 2.338 1.095 3.862 3.42 5.36L24 28l14.582-9.392c2.324-1.498 3.426-3.023 3.418-5.361-.007-2.732-2.008-4.949-5.01-4.949Z"
    />
    <path fill="#FF7009" d="M24 30.25c8.666 0 15.77 6.47 15.75 15.752H8.25C8.233 36.724 15.336 30.25 24 30.25Z" />
</svg>
