<svg xmlns="http://www.w3.org/2000/svg" fill="none" viewBox="0 0 48 48">
    <path
        fill="#1B618C"
        d="M40.108 26.493c.019 0 .019-.02.019-.038.208-.834 2.01-7.09 2.692-9.404.057-.17.17-.663.208-.72a.614.614 0 0 1 .531-.417c.114-.02.228-.02.342-.02h1.308c.133 0 .265.02.379.057.341.095.53.455.417.797-.265 1.005-4.36 13.86-4.436 14.01a.923.923 0 0 1-.759.494h-1.44c-.077 0-.152-.02-.21-.02a.801.801 0 0 1-.53-.36 3.3 3.3 0 0 1-.266-.587s-4.246-13.405-4.284-13.518c-.114-.323.075-.683.398-.797a.886.886 0 0 1 .322-.056h1.555c.095 0 .19.018.284.037.17.038.322.152.38.304.037.076 3.07 10.181 3.09 10.238Zm-23.7-6.579c0-.455.038-.89.152-1.327a3.724 3.724 0 0 1 .777-1.574 3.112 3.112 0 0 1 1.574-.966c.303-.076.626-.133.948-.133h4.72c.134 0 .247.019.38.038a.716.716 0 0 1 .55.53c.038.171.076.342.076.512v.967c0 .19-.02.38-.095.57a.694.694 0 0 1-.512.454 1.444 1.444 0 0 1-.398.057h-3.66a1.212 1.212 0 0 0-1.099.626 1.4 1.4 0 0 0-.17.569v9.896c0 .152 0 .304-.038.455a.705.705 0 0 1-.607.626c-.152.038-.323.038-.474.038h-1.176c-.151 0-.303-.038-.455-.095a.697.697 0 0 1-.417-.474 1.475 1.475 0 0 1-.057-.417v-.474c-.019-1.63-.019-8.228-.019-9.878Zm16.419 6.522c.095-.55.266-1.08.398-1.63.171-.626.36-1.27.531-1.896a.806.806 0 0 1 .19-.323.518.518 0 0 1 .36-.151c.057 0 .095.019.152.057.133.057.227.17.265.284.247.834.967 2.939.967 2.939a.97.97 0 0 1 .076.607c-.038.132-1.422 4.436-1.46 4.512a.659.659 0 0 1-.474.36c-.17.038-.341.057-.493.038h-1.232c-.095 0-.17-.019-.266-.038a.804.804 0 0 1-.512-.341c-.113-.17-.19-.36-.265-.569l-.796-2.465-3.09-9.859c-.076-.265-.171-.492-.228-.739-.038-.19-.114-.36-.133-.55a.55.55 0 0 1 .228-.588.663.663 0 0 1 .417-.151c.095-.02.19-.02.284-.02h1.29c.113 0 .227.02.34.039a.565.565 0 0 1 .418.265c.132.19.227.38.284.588a908.093 908.093 0 0 1 1.972 6.768c.265.91.512 1.82.758 2.73l.038.114c0 .02.02.038.02.057l-.039-.038Zm-20.95 4.835c-.133 0-.246-.019-.38-.057a.966.966 0 0 1-.644-.474c-.095-.151-.208-.303-.303-.455l-3.602-5.062a4.721 4.721 0 0 0-.38-.474 1.835 1.835 0 0 1-.34-.872c-.02-.227-.02-.436-.02-.663a1.64 1.64 0 0 1 .455-1.043c.247-.285.493-.588.702-.91l3.033-4.266c.095-.152.209-.285.322-.436.152-.228.36-.398.607-.512.17-.076.36-.114.55-.114h1.668c.133 0 .266.019.399.057a.435.435 0 0 1 .36.455 1.786 1.786 0 0 1-.247.834c-.019.02-.037.057-.056.076l-4.38 5.953c-.038.038-.057.095-.114.114-.019 0-.019.019 0 .038 0 .019.02.038.038.038l4.664 6.446c.038.057.076.095.114.152.17.208.246.493.19.758a.4.4 0 0 1-.247.303.893.893 0 0 1-.322.076c-.095.02-1.745.038-2.067.038ZM2.037 17.07c0-.17.02-.36.057-.53a.72.72 0 0 1 .512-.55c.152-.057.303-.076.474-.076h1.137c.171 0 .342.038.512.076a.708.708 0 0 1 .493.511c.038.133.057.247.057.38v13.233c0 .171-.019.36-.057.531a.734.734 0 0 1-.493.531c-.113.057-.246.076-.36.095-.474.019-.948.019-1.422 0a1.07 1.07 0 0 1-.341-.057.629.629 0 0 1-.474-.512c-.038-.19-.057-.379-.038-.569L2.037 17.07Z"
    />
    <path
        fill="#1B618C"
        d="M23.689 22.455c.133 0 .246.019.379.057a.697.697 0 0 1 .474.417c.057.133.076.265.095.417v.493c0 .227 0 .474-.02.701a2.012 2.012 0 0 1-.075.36.708.708 0 0 1-.588.531 2.085 2.085 0 0 1-.341.038h-1.877c-.133 0-.265-.019-.398-.056a.703.703 0 0 1-.531-.494 2.21 2.21 0 0 1-.076-.379 12.521 12.521 0 0 1 0-1.194c0-.095.02-.19.057-.303a.707.707 0 0 1 .588-.55c.113-.02.227-.038.341-.038h1.972Z"
    />
</svg>
