<svg xmlns="http://www.w3.org/2000/svg" width="48" height="48" fill="none" viewBox="0 0 48 48">
    <path
        fill="#0274B3"
        d="M40.192 5H7.808A2.776 2.776 0 0 0 5 7.745v32.51A2.776 2.776 0 0 0 7.808 43h32.384A2.777 2.777 0 0 0 43 40.255V7.745A2.774 2.774 0 0 0 40.192 5Z"
    />
    <path
        fill="#fff"
        d="M10.637 19.25h5.636v18.134h-5.636V19.25Zm2.829-8.972a3.272 3.272 0 1 1 0 6.544 3.272 3.272 0 0 1 0-6.544Zm6.354 8.972h5.404v2.48h.074a5.922 5.922 0 0 1 5.33-2.923c5.712 0 6.757 3.758 6.757 8.634v9.943h-5.637V28.56c0-2.111 0-4.813-2.935-4.813-2.934 0-3.377 2.29-3.377 4.655v8.972H19.82V19.25Z"
    />
</svg>
