<svg xmlns="http://www.w3.org/2000/svg" width="48" height="48" fill="none" viewBox="0 0 48 48">
    <path
        fill="#B1060F"
        stroke="#000"
        stroke-width=".048"
        d="m26.904 5.547-.014 8.021-.014 8.022-.659-1.862v-.005l-.856 17.859c.842 2.367 1.29 3.634 1.294 3.638.006.005.483.033 1.06.062a81 81 0 0 1 5.564.478c.382.048.707.07.73.052.024-.019.029-8.184.024-18.15L34.02 5.547h-7.115Zm-12.868-.025v18.136c0 9.975.01 18.144.024 18.158.013.015.63-.047 1.374-.129.746-.08 1.773-.185 2.283-.229a128.85 128.85 0 0 1 3.4-.219c.08 0 .086-.406.095-7.683l.015-7.683.568 1.605c.086.248.115.324.2.568l.855-17.854c-.181-.51-.086-.243-.291-.825-.697-1.973-1.289-3.639-1.313-3.715l-.048-.134h-7.162v.004Z"
    />
    <path
        fill="#B1060F"
        stroke="#000"
        stroke-width=".048"
        d="m26.904 5.547-.014 8.021-.014 8.022-.659-1.862v-.005l-.856 17.859c.842 2.367 1.29 3.634 1.294 3.638.006.005.483.033 1.06.062a81 81 0 0 1 5.564.478c.382.048.707.07.73.052.024-.019.029-8.184.024-18.15L34.02 5.547h-7.115Zm-12.868-.025v18.136c0 9.975.01 18.144.024 18.158.013.015.63-.047 1.374-.129.746-.08 1.773-.185 2.283-.229a128.85 128.85 0 0 1 3.4-.219c.08 0 .086-.406.095-7.683l.015-7.683.568 1.605c.086.248.115.324.2.568l.855-17.854c-.181-.51-.086-.243-.291-.825-.697-1.973-1.289-3.639-1.313-3.715l-.048-.134h-7.162v.004Z"
    />
    <path
        fill="url(#a)"
        d="M14.035 5.522v10.181l7.172 19.024c0-.435 0-.675.005-1.171l.014-7.683.57 1.604c3.15 8.94 4.845 13.733 4.855 13.743a31.1 31.1 0 0 0 1.06.063 80.86 80.86 0 0 1 5.563.477c.382.048.706.071.73.052.015-.014.024-4.015.024-9.665l-7.133-20.522-.005 1.943-.014 8.022-.66-1.862L22.55 9.367c-.697-1.973-1.29-3.639-1.313-3.716l-.047-.133h-7.154v.004Z"
    />
    <path
        fill="#E50914"
        d="m14.035 5.522 7.187 20.365v-.008l.567 1.603a4977.763 4977.763 0 0 0 4.862 13.738 31.1 31.1 0 0 0 1.06.063 80.86 80.86 0 0 1 5.563.477c.377.048.706.071.726.052l-7.124-20.226v.004l-.659-1.862L22.55 9.366c-.698-1.973-1.29-3.638-1.313-3.715l-.048-.134h-3.578l-3.576.005Z"
    />
    <defs>
        <radialGradient
            id="a"
            cx="0"
            cy="0"
            r="1"
            gradientTransform="matrix(1.24564 -.43061 15.77017 45.61877 23.722 23.485)"
            gradientUnits="userSpaceOnUse"
        >
            <stop />
            <stop offset="1" stop-opacity="0" />
        </radialGradient>
    </defs>
</svg>
