<svg xmlns="http://www.w3.org/2000/svg" width="48" height="48" fill="none" viewBox="0 0 48 48">
    <path fill="#E60012" d="M4 4h40v40H4z" />
    <path fill="#E60012" d="M44 17.333H4v13.334h40V17.333Z" />
    <path
        fill="#fff"
        d="M11.398 28.204c-2.676 0-4.465-1.897-4.465-4.197 0-2.299 1.793-4.217 4.46-4.212h25.213c2.668-.005 4.46 1.913 4.46 4.212 0 2.3-1.788 4.197-4.464 4.197H11.398Zm.008-7.374c-2.119.004-3.42 1.42-3.42 3.172 0 1.752 1.293 3.18 3.42 3.172h25.188c2.127.007 3.42-1.42 3.42-3.172 0-1.752-1.3-3.168-3.42-3.172H11.407Zm26.543 1.479c.193 0 .288.065.288.194 0 .089-.055.156-.147.18l.15.3h-.182l-.129-.276h-.08v.276h-.165v-.674h.265Zm-.015-.264a.61.61 0 1 0 0 1.218.61.61 0 0 0 0-1.218Zm.493.61a.493.493 0 1 1-.986 0 .493.493 0 0 1 .986 0Zm-.578-.047h.08c.094 0 .14-.028.14-.096 0-.07-.05-.1-.148-.1h-.072v.196Zm-13.77 1.65c-.001-.231.004-.385.08-.517a.486.486 0 0 1 .419-.24h-.001a.487.487 0 0 1 .419.24c.076.132.079.286.077.517h-.993Zm.99.793v.16c0 .481-.316.588-.492.588s-.498-.107-.498-.588v-.543l2.243-.001c0-.816-.788-1.493-1.756-1.493s-1.753.662-1.753 1.479c0 .816.785 1.477 1.753 1.477.803 0 1.482-.458 1.689-1.08l-1.186.001Zm3.745-1.833c.445-.012 1.348.28 1.342 1.321v1.433h-1.183v-1.73c0-.229-.22-.484-.544-.484-.324 0-.565.255-.565.485l.001 1.729h-1.181v-2.633h1.182s-.002.211 0 .276c.227-.217.555-.385.948-.397Zm-9.674 0c.445-.012 1.348.28 1.342 1.321v1.433h-1.183v-1.73c0-.229-.22-.484-.544-.484-.324 0-.565.255-.565.485l.001 1.729H17.01v-2.633h1.183s-.002.211 0 .276c.227-.217.555-.385.948-.397Zm13.582-1.204h1.175v3.959H32.72v-.153a1.43 1.43 0 0 1-1.37.099 1.404 1.404 0 0 1-.815-1.305c0-.695.656-1.454 1.514-1.379.282.026.483.128.674.235l-.001-1.456Zm.008 2.629v-.47c0-.408-.28-.511-.466-.511-.19 0-.467.103-.467.51v.938c0 .407.278.513.467.513.185 0 .467-.107.467-.513v-.467Zm3.772-.008v.558c0 .42-.248.593-.487.593s-.487-.173-.487-.593v-1.117c0-.418.25-.59.487-.59.238 0 .487.172.487.59v.56Zm-.478-1.475c-.961 0-1.74.662-1.74 1.479 0 .816.78 1.478 1.74 1.478s1.74-.662 1.74-1.479c0-.816-.78-1.478-1.74-1.478Zm-20.864-.338v-.809h1.194v.81H15.16Zm.003 3.15V23.34h1.19v2.633h-1.19Zm5.972 0v-2.627h-.647v-.39l.648-.001v-.533h1.19v.533h.645v.391h-.645l.001 2.628h-1.192Zm-10.816 0v-3.958h1.234l1.706 2.76-.001-2.76h1.224v3.959H13.26l-1.715-2.761v2.76h-1.226Z"
    />
</svg>
