<svg xmlns="http://www.w3.org/2000/svg" width="48" height="48" fill="none" viewBox="0 0 48 48">
    <path
        fill="#27346A"
        d="M35.246 7.847C33.497 5.853 30.336 5 26.294 5H14.559a1.68 1.68 0 0 0-1.66 1.417l-4.886 30.99a1.008 1.008 0 0 0 .995 1.164h7.246l1.819-11.541-.057.361a1.675 1.675 0 0 1 1.654-1.417h3.443c6.762 0 12.058-2.747 13.605-10.693.045-.236.086-.464.12-.688-.195-.103-.195-.103 0 0 .461-2.937-.003-4.936-1.592-6.746Z"
    />
    <path
        fill="#27346A"
        d="M20.844 13.535c.198-.094.415-.143.634-.142h9.2c1.09 0 2.106.07 3.034.219a11.757 11.757 0 0 1 1.853.443c.457.153.882.33 1.273.538.46-2.938-.003-4.936-1.592-6.746C33.496 5.853 30.336 5 26.294 5H14.558a1.68 1.68 0 0 0-1.66 1.417L8.012 37.405a1.008 1.008 0 0 0 .995 1.165h7.246l3.775-23.938a1.472 1.472 0 0 1 .816-1.097Z"
    />
    <path
        fill="#2790C3"
        d="M36.718 15.28c-1.547 7.946-6.843 10.694-13.606 10.694h-3.444a1.674 1.674 0 0 0-1.652 1.418L15.752 41.74a.88.88 0 0 0 .87 1.019h6.108a1.469 1.469 0 0 0 1.45-1.24l.06-.31 1.15-7.296.076-.403a1.467 1.467 0 0 1 1.45-1.24h.913c5.917 0 10.55-2.404 11.903-9.354.565-2.905.273-5.33-1.221-7.034a5.854 5.854 0 0 0-1.674-1.29c-.035.224-.074.452-.119.688Z"
    />
    <path
        fill="#1F264F"
        d="M35.22 13.947a11.596 11.596 0 0 0-1.507-.334 19.14 19.14 0 0 0-3.035-.22h-9.199a1.463 1.463 0 0 0-1.45 1.241l-1.956 12.395-.056.362a1.674 1.674 0 0 1 1.652-1.417h3.444c6.763 0 12.059-2.747 13.606-10.693.045-.236.085-.464.12-.688a8.307 8.307 0 0 0-1.273-.537 12.917 12.917 0 0 0-.347-.109Z"
    />
</svg>
