<svg xmlns="http://www.w3.org/2000/svg" width="48" height="48" fill="none" viewBox="0 0 48 48">
    <path
        fill="#000"
        d="M4.81 31.59c-1.5 1-1 2.898 2.198 3.799a21.52 21.52 0 0 0 10.394.798c.2 0 .4-.099.5-.099V32.69l-3.398 1.099c-1.3.4-2.599.5-3.898.2-1-.3-.799-.9.4-1.4l6.896-2.398v-3.699L8.307 29.79a12.93 12.93 0 0 0-3.498 1.8Zm23.186-14.994v9.697c4.098 1.998 7.296 0 7.296-5.198 0-5.298-1.9-7.697-7.396-9.596C24.998 10.5 22 9.6 19.001 9v28.887l6.996 2.1v-24.29c0-1.1 0-1.899.8-1.6 1.099.3 1.199 1.4 1.199 2.5Zm12.993 12.695c-2.898-1-5.997-1.4-8.995-1.1-1.599.1-3.099.5-4.497 1l-.3.1v3.898l6.496-2.399c1.299-.4 2.598-.5 3.898-.2 1 .3.8.9-.4 1.4l-9.994 3.698v3.798l13.792-5.097c1-.4 1.899-.9 2.698-1.7.7-.999.4-2.398-2.698-3.398Z"
    />
</svg>
