<svg xmlns="http://www.w3.org/2000/svg" width="48" height="48" fill="none" viewBox="0 0 48 48">
    <path
        fill="#D1EFFA"
        d="M23.8 30.537v-.022a.103.103 0 0 1 .093-.038c.157-.006.315-.006.473 0 .033 0 .071.01.093.038v.022h-.66Z"
    />
    <path
        fill="#00A8E1"
        d="M24.46 30.515c-.22-.005-.44-.005-.66 0-.303-.016-.605-.028-.908-.05a15.697 15.697 0 0 1-2.38-.363c-2.7-.627-5.07-1.886-7.137-3.717-.192-.17-.373-.347-.56-.523a.406.406 0 0 1-.105-.148.204.204 0 0 1 .14-.28.196.196 0 0 1 .118.01c.05.023.1.045.143.072a21.386 21.386 0 0 0 6.389 2.64 23.31 23.31 0 0 0 2.293.412 21.08 21.08 0 0 0 3.332.149 17.77 17.77 0 0 0 1.786-.149 21.601 21.601 0 0 0 4.08-.93 19.25 19.25 0 0 0 2.045-.802.458.458 0 0 1 .33-.044.342.342 0 0 1 .22.484.603.603 0 0 1-.182.209c-.634.496-1.315.93-2.034 1.292a16.119 16.119 0 0 1-4.305 1.458 18.92 18.92 0 0 1-2.606.28Zm-8.143-11.148c.137-.082.28-.17.429-.247a2.456 2.456 0 0 1 1.248-.275c.313.017.599.105.819.335.209.215.286.479.308.765.005.06.005.12.005.187v2.849c0 .247-.033.28-.28.28h-.671c-.044 0-.088 0-.132-.005a.153.153 0 0 1-.132-.127c-.01-.06-.01-.12-.01-.181V20.4a.938.938 0 0 0-.034-.302.411.411 0 0 0-.373-.302 1.939 1.939 0 0 0-.946.18.09.09 0 0 0-.067.1v2.893c0 .055 0 .104-.01.16 0 .076-.06.131-.138.131-.082.006-.165.006-.253.006h-.582c-.204 0-.248-.05-.248-.253v-2.602c0-.093-.005-.192-.027-.285a.415.415 0 0 0-.385-.33 1.93 1.93 0 0 0-.962.186.087.087 0 0 0-.06.105v2.931c0 .204-.045.248-.248.248h-.737c-.192 0-.242-.055-.242-.242v-3.817a.53.53 0 0 1 .017-.132.16.16 0 0 1 .154-.104h.687c.099 0 .16.06.192.153.028.077.044.149.072.232.055 0 .088-.039.126-.061.303-.187.621-.346.979-.412.275-.056.55-.056.824 0 .26.055.489.209.638.428a.224.224 0 0 0 .033.039c-.005.006 0 .006.006.016Z"
    />
    <path
        fill="#232F3E"
        d="m27.714 22.106.099-.324c.252-.853.506-1.7.759-2.552l.032-.1a.225.225 0 0 1 .22-.158h.836c.209 0 .253.06.182.258l-.33.874c-.369.957-.737 1.92-1.105 2.877-.012.033-.028.066-.039.099a.268.268 0 0 1-.275.181 16.563 16.563 0 0 0-.726 0c-.17.006-.269-.071-.33-.225-.137-.363-.28-.732-.417-1.095-.33-.863-.666-1.727-.995-2.596a.97.97 0 0 1-.072-.214c-.016-.11.022-.165.132-.165.314-.006.627 0 .935 0 .132 0 .192.088.225.204.06.209.12.423.187.632.226.764.445 1.534.67 2.299-.005.005 0 .005.012.005Z"
    />
    <path
        fill="#00A8E1"
        d="M8.19 19.577a.165.165 0 0 0 .094-.067c.1-.099.204-.192.314-.28.285-.22.643-.33 1-.303.143.006.193.05.204.188.01.187.005.379.005.566.006.077 0 .148-.01.226-.023.099-.061.137-.16.148-.077.005-.149 0-.226-.006-.368-.032-.725.039-1.072.155-.077.027-.077.082-.077.143v2.64c0 .049 0 .093-.005.142a.133.133 0 0 1-.132.127c-.039.005-.083.005-.121.005h-.715c-.038 0-.082 0-.12-.005a.147.147 0 0 1-.133-.138c-.005-.044-.005-.088-.005-.132v-3.74c0-.252.027-.28.28-.28h.528c.143 0 .209.05.247.187.039.138.072.275.105.424Zm25.72 5.576c.363.01.72.033 1.072.126.099.028.193.061.286.105a.37.37 0 0 1 .225.303c.022.153.028.313.017.472a6.064 6.064 0 0 1-.847 2.657c-.175.29-.39.555-.638.786a.452.452 0 0 1-.176.11c-.104.028-.17-.027-.175-.132a.59.59 0 0 1 .038-.165c.192-.517.38-1.028.528-1.562a5.5 5.5 0 0 0 .187-.89c.01-.11.016-.22.005-.33a.43.43 0 0 0-.308-.402 2.116 2.116 0 0 0-.527-.099 8.714 8.714 0 0 0-1.512.066l-.666.082c-.071.006-.137 0-.175-.066-.039-.065-.022-.132.016-.198a.549.549 0 0 1 .165-.154c.407-.291.863-.467 1.347-.583a6.524 6.524 0 0 1 1.138-.126Z"
    />
    <path
        fill="#232F3E"
        d="M31.606 21.116v1.98c-.01.11-.06.16-.17.165-.297.006-.588.006-.885 0-.11 0-.16-.055-.17-.16-.006-.032-.006-.071-.006-.104v-3.805c.006-.17.05-.22.22-.22h.791c.17 0 .22.05.22.22v1.924Z"
    />
    <path
        fill="#00A8E1"
        d="M10.335 21.105v-1.952c.005-.132.055-.181.187-.187.286-.006.572-.006.858 0 .126 0 .165.039.175.165.006.05.006.094.006.143v3.663c0 .06-.006.12-.011.181-.005.072-.06.121-.132.127-.033.005-.06.005-.093.005h-.765c-.027 0-.05 0-.077-.005a.16.16 0 0 1-.148-.143c-.005-.044-.005-.088-.005-.132.005-.61.005-1.238.005-1.865Zm.638-4.108a.677.677 0 0 1 .258.039c.297.098.451.357.424.692a.614.614 0 0 1-.523.561 1.041 1.041 0 0 1-.368 0c-.314-.06-.544-.29-.522-.687.033-.39.291-.605.73-.605Z"
    />
    <path
        fill="#232F3E"
        d="M30.996 16.997a.66.66 0 0 1 .325.055c.214.083.362.28.373.511.044.501-.291.754-.736.743a1.04 1.04 0 0 1-.182-.022c-.34-.082-.517-.346-.483-.726.027-.302.263-.528.588-.555a.37.37 0 0 1 .115-.006Z"
    />
    <path
        fill="#00A8E1"
        d="M6.217 20.654a2.506 2.506 0 0 0-.214-.825c-.226-.472-.572-.819-1.1-.94-.605-.132-1.15 0-1.644.368a.44.44 0 0 1-.115.083c-.011-.005-.022-.011-.022-.017-.017-.055-.028-.11-.044-.164-.044-.138-.1-.187-.248-.187-.165 0-.335.005-.5 0-.127-.006-.242.01-.33.11 0 1.924 0 3.855.006 5.774.071.116.181.137.307.132.199-.006.396 0 .594 0 .347 0 .347 0 .347-.341V23.08c0-.039-.017-.083.022-.115.276.214.608.346.956.379.484.05.924-.072 1.292-.402.27-.249.468-.566.572-.918.149-.451.16-.908.12-1.37Zm-1.314 1.139a.847.847 0 0 1-.253.44.78.78 0 0 1-.506.192 1.509 1.509 0 0 1-.802-.176.157.157 0 0 1-.094-.154V21.1c0-.33.005-.66 0-.99a.167.167 0 0 1 .11-.17c.302-.143.616-.21.946-.143a.67.67 0 0 1 .522.395c.083.177.131.367.143.561.033.352.033.704-.066 1.04Z"
    />
    <path
        fill="#232F3E"
        d="M45.989 21.512c0-.005 0-.005 0 0Zm.005-.737v.022c-.022-.022-.033-.055-.022-.082v-.044s0-.006.006-.006h-.006v-.055h.011c0-.005-.005-.005-.005-.01a1.907 1.907 0 0 0-.06-.308c-.204-.727-.66-1.205-1.403-1.392a2.694 2.694 0 0 0-1.05-.038c-.742.11-1.275.505-1.534 1.21a2.94 2.94 0 0 0 .006 2.078c.22.61.66.996 1.292 1.155.335.083.687.105 1.034.055 1.154-.137 1.632-1.012 1.71-1.77h-.006v-.078c-.006-.033-.011-.06.022-.082v.01c0-.005.005-.016.011-.021v-.633c0-.005-.006-.005-.006-.01Zm-1.319 1.045a1.017 1.017 0 0 1-.154.32.712.712 0 0 1-.522.296.985.985 0 0 1-.314-.011.704.704 0 0 1-.517-.412 1.578 1.578 0 0 1-.148-.545c-.027-.324-.033-.649.044-.968.028-.126.083-.253.148-.363a.718.718 0 0 1 .561-.34.994.994 0 0 1 .313.01c.22.045.402.187.5.39.095.195.149.407.16.622.006.1.011.198.006.297a2.02 2.02 0 0 1-.077.704Zm-8.318-4.784h-.765c-.209 0-.247.038-.247.247v1.782c0 .039.017.077-.011.115-.05-.005-.077-.038-.116-.06-.572-.335-1.17-.396-1.775-.115-.424.197-.688.555-.858.979-.165.406-.203.835-.193 1.27 0 .407.094.808.275 1.171.21.402.512.71.951.842.6.187 1.16.093 1.672-.286.038-.022.06-.06.11-.072a.76.76 0 0 1 .06.193.195.195 0 0 0 .193.148h.132c.198 0 .39.006.582 0 .155 0 .198-.05.204-.209v-5.796c-.005-.17-.05-.21-.214-.21Zm-1.007 4.048v1a.144.144 0 0 1-.088.154c-.264.149-.566.21-.863.165a.752.752 0 0 1-.588-.407 1.533 1.533 0 0 1-.154-.555 2.842 2.842 0 0 1 .066-1.034c.028-.093.06-.181.11-.27a.71.71 0 0 1 .578-.368c.29-.027.582.028.846.148a.151.151 0 0 1 .099.16c-.011.34-.006.67-.006 1.007Z"
    />
    <path
        fill="#00A8E1"
        d="M21.133 21.463c.412.077.834.082 1.248.016.242-.033.473-.104.687-.22.248-.143.43-.34.506-.616.192-.693-.105-1.391-.825-1.65a2.463 2.463 0 0 0-1.094-.104c-.869.1-1.435.578-1.693 1.408-.182.566-.16 1.144-.011 1.716.192.731.676 1.165 1.407 1.32.418.093.841.077 1.26.01.22-.038.44-.093.648-.175.127-.05.192-.127.187-.27-.005-.132 0-.27 0-.407 0-.165-.066-.214-.225-.176-.16.039-.314.072-.473.105a2.726 2.726 0 0 1-1.034.01c-.467-.093-.77-.494-.742-.99.05.006.104.012.154.023Zm-.138-.842a1.49 1.49 0 0 1 .105-.379c.165-.402.511-.539.863-.517.1.005.198.027.292.066.143.06.236.192.252.346a.633.633 0 0 1-.016.287c-.066.197-.225.28-.418.318-.115.028-.236.039-.357.028-.215 0-.435-.017-.65-.05-.081-.01-.081-.01-.07-.099Z"
    />
    <path
        fill="#232F3E"
        d="M39.677 21.518c.32-.022.638-.082.924-.237a1.02 1.02 0 0 0 .555-.73 1.496 1.496 0 0 0-.005-.606c-.116-.495-.429-.803-.902-.963a2.434 2.434 0 0 0-.819-.104c-.924.022-1.628.49-1.913 1.414-.193.61-.165 1.231.022 1.842.192.627.632 1.006 1.259 1.177.269.066.55.093.824.082a3.485 3.485 0 0 0 1.182-.225c.16-.061.198-.116.198-.286v-.396c-.005-.16-.071-.215-.23-.176a8.636 8.636 0 0 1-.358.088 2.774 2.774 0 0 1-1.127.038c-.374-.071-.627-.286-.726-.66-.027-.11-.05-.22-.06-.335.027 0 .055 0 .077.011.362.066.73.094 1.1.066Zm-1.149-.88c.039-.214.088-.424.22-.6.204-.27.484-.346.803-.313.027 0 .05.01.077.01.385.062.478.37.407.666-.055.22-.237.303-.44.341a1.414 1.414 0 0 1-.341.028 5.382 5.382 0 0 1-.665-.055c-.05-.006-.072-.028-.06-.077Z"
    />
</svg>
