<svg width="24" height="24" viewBox="0 0 24 24" fill="none" xmlns="http://www.w3.org/2000/svg">
<g clip-path="url(#clip0_3180_9618)">
<rect width="24" height="24" fill="white"/>
<path d="M16.3161 12.9196L13.4461 15.8001C13.3292 15.9176 13.2637 16.0766 13.2637 16.2423C13.2637 16.4079 13.3292 16.5669 13.4461 16.6844L15.6392 18.8806C15.8208 19.058 16.0647 19.1573 16.3186 19.1573C16.5725 19.1573 16.8163 19.058 16.9979 18.8806L23.72 12.2462C23.8088 12.1586 23.8793 12.0542 23.9274 11.9391C23.9756 11.824 24.0003 11.7005 24.0003 11.5757C24.0003 11.451 23.9756 11.3275 23.9274 11.2124C23.8793 11.0973 23.8088 10.9929 23.72 10.9052L16.9985 4.27674C16.8169 4.09933 16.5731 4 16.3192 4C16.0653 4 15.8215 4.09933 15.6398 4.27674L13.4467 6.4729C13.3299 6.59042 13.2643 6.74938 13.2643 6.91508C13.2643 7.08078 13.3299 7.23974 13.4467 7.35726L16.3167 10.2377C16.4943 10.413 16.6353 10.6218 16.7315 10.852C16.8277 11.0822 16.8772 11.3293 16.8771 11.5788C16.8771 11.8283 16.8274 12.0753 16.7311 12.3055C16.6348 12.5357 16.4937 12.7444 16.3161 12.9196Z" fill="#0A6E5C"/>
<path d="M7.68582 12.9196L10.5558 15.8001C10.6727 15.9176 10.7382 16.0766 10.7382 16.2423C10.7382 16.4079 10.6727 16.5669 10.5558 16.6844L8.36269 18.8806C8.18106 19.058 7.93724 19.1573 7.68334 19.1573C7.42944 19.1573 7.18561 19.058 7.00399 18.8806L0.280309 12.2462C0.191518 12.1586 0.121016 12.0542 0.0728975 11.9391C0.0247785 11.824 0 11.7005 0 11.5757C0 11.451 0.0247785 11.3275 0.0728975 11.2124C0.121016 11.0973 0.191518 10.9929 0.280309 10.9052L7.00368 4.27674C7.1853 4.09933 7.42913 4 7.68303 4C7.93693 4 8.18075 4.09933 8.36238 4.27674L10.5555 6.4729C10.6723 6.59042 10.7379 6.74938 10.7379 6.91508C10.7379 7.08078 10.6723 7.23974 10.5555 7.35726L7.68582 10.238C7.50825 10.4133 7.36725 10.622 7.27102 10.8522C7.17478 11.0824 7.12523 11.3293 7.12523 11.5788C7.12523 11.8283 7.17478 12.0753 7.27102 12.3055C7.36725 12.5356 7.50825 12.7444 7.68582 12.9196Z" fill="#21BF73"/>
<path d="M8.43882 12.1269C8.29353 11.9815 8.21191 11.7843 8.21191 11.5788C8.21191 11.3732 8.29353 11.1761 8.43882 11.0307L11.4534 8.0162C11.5988 7.87092 11.796 7.78931 12.0015 7.78931C12.2071 7.78931 12.4042 7.87092 12.5496 8.0162L15.5642 11.0307C15.7095 11.1761 15.7911 11.3732 15.7911 11.5788C15.7911 11.7843 15.7095 11.9815 15.5642 12.1269L12.5493 15.141C12.4039 15.2863 12.2068 15.3679 12.0012 15.3679C11.7956 15.3679 11.5985 15.2863 11.4531 15.141L8.43882 12.1269Z" fill="#21BF73"/>
</g>
<defs>
<clipPath id="clip0_3180_9618">
<rect width="24" height="24" fill="white"/>
</clipPath>
</defs>
</svg>
