<svg width="24" height="24" viewBox="2 2 20 20" fill="none" xmlns="http://www.w3.org/2000/svg">
    <g clip-path="url(#clip0_3180_9618)">
        <rect width="24" height="24" fill="white" />
        <path
            style="stroke: none; fill-rule: evenodd; fill: rgb(0%, 65.490198%, 32.941177%); fill-opacity: 1"
            d="M 9.65625 5.945312 C 9.289062 5.578125 8.691406 5.578125 8.324219 5.945312 L 2.941406 11.328125 C 2.574219 11.699219 2.574219 12.296875 2.941406 12.664062 L 8.324219 18.046875 C 8.691406 18.417969 9.289062 18.417969 9.65625 18.046875 L 11.996094 15.707031 L 8.957031 12.664062 C 8.585938 12.296875 8.585938 11.699219 8.957031 11.328125 L 11.996094 8.289062 Z M 9.65625 5.945312 "
        />
        <path
            style="stroke: none; fill-rule: evenodd; fill: rgb(3.921569%, 43.137255%, 36.078432%); fill-opacity: 1"
            d="M 15.671875 5.945312 C 15.304688 5.578125 14.707031 5.578125 14.339844 5.945312 L 11.996094 8.289062 L 15.039062 11.328125 C 15.410156 11.699219 15.410156 12.296875 15.039062 12.664062 L 11.996094 15.707031 L 14.339844 18.046875 C 14.707031 18.417969 15.304688 18.417969 15.671875 18.046875 L 21.054688 12.664062 C 21.421875 12.296875 21.421875 11.699219 21.054688 11.328125 Z M 15.671875 5.945312 "
        />
    </g>
    <defs>
        <clipPath id="clip0_3180_9618">
            <rect width="24" height="24" fill="white" />
        </clipPath>
    </defs>
</svg>
