<svg xmlns="http://www.w3.org/2000/svg" width="48" height="48" fill="none" viewBox="0 0 48 48">
    <path fill="#FF4500" d="M43.75 24c0 11.046-8.954 20-20 20s-20-8.954-20-20 8.954-20 20-20 20 8.954 20 20Z" />
    <path
        fill="#fff"
        d="M37.09 24a2.897 2.897 0 0 1-.426 1.564 2.936 2.936 0 0 1-1.194 1.096 5.138 5.138 0 0 1 0 .88c0 4.48-5.22 8.12-11.66 8.12s-11.66-3.64-11.66-8.12a5.486 5.486 0 0 1 0-.88 2.92 2.92 0 0 1 2.143-5.424c.401.134.769.354 1.077.644a14.312 14.312 0 0 1 5.736-2.278 14.26 14.26 0 0 1 2.064-.182l1.48-6.94a.616.616 0 0 1 .379-.45.62.62 0 0 1 .36-.03l4.902.98a2.002 2.002 0 0 1 3.487.054A2 2 0 1 1 30.03 14.2l-4.282-.9-1.3 6.24A14.205 14.205 0 0 1 32.15 22c.407-.39.918-.655 1.472-.761a2.911 2.911 0 0 1 2.941 1.19c.324.462.507 1.007.528 1.57Zm-19.848 2.765a1.992 1.992 0 0 0 1.082 1.083A2.001 2.001 0 1 0 19.09 24a2 2 0 0 0-1.847 2.765Zm11.456 4.8a.536.536 0 0 0 .009-.762.541.541 0 0 0-.38-.164.659.659 0 0 0-.397.14A6.551 6.551 0 0 1 23.75 32a6.572 6.572 0 0 1-4.16-1.26.544.544 0 0 0-.725.035.538.538 0 0 0-.035.725 7.707 7.707 0 0 0 4.94 1.54 7.712 7.712 0 0 0 4.94-1.54l-.012.066Zm-.368-3.405a2 2 0 0 0 2.02-2.08 2 2 0 1 0-2 2l-.02.08Z"
    />
</svg>
