<svg xmlns="http://www.w3.org/2000/svg" width="48" height="48" fill="none" viewBox="0 0 48 48">
    <path
        fill="#00C805"
        d="m21.262 36.691-.302.102a75.503 75.503 0 0 0-7.407 2.83.6.6 0 0 0-.24.24c-.046.11-.105.24-.176.404v.02c-.288.657-.686 1.647-.858 2.052l-.134.319a.137.137 0 0 0 .031.145.132.132 0 0 0 .148.024l.312-.15c.706-.334 1.601-.846 2.54-1.29l.032-.014c1.786-.85 3.8-1.802 5.013-2.382a.766.766 0 0 0 .293-.298l.909-1.821a.134.134 0 0 0-.018-.148c-.035-.037-.093-.052-.143-.037v.004Zm-7.255-2.82c.127-.24.722-1.382.852-1.635l.023-.044a112.47 112.47 0 0 1 14.274-20.836l.152-.176a.18.18 0 0 0 .022-.198.18.18 0 0 0-.178-.092l-.24.032c-3.63.5-7.302 1.202-10.919 2.058a1.43 1.43 0 0 0-.64.389A122.092 122.092 0 0 0 9.73 23.516a1.558 1.558 0 0 0-.132.598s.594 4.567 1.457 7.909c-2.14 6.147-4.047 14.25-4.047 14.25a.168.168 0 0 0 .027.153.183.183 0 0 0 .138.073H8.39a.187.187 0 0 0 .171-.117l.082-.239a114.15 114.15 0 0 1 4.226-9.993c.365-.759 1.13-2.292 1.13-2.292l.008.013Z"
    />
    <path
        fill="#00C805"
        d="M30.942 12.691v-.242a.182.182 0 0 0-.118-.16.174.174 0 0 0-.192.048l-.152.176a110.326 110.326 0 0 0-16.1 24.592l-.099.207a.174.174 0 0 0 .029.198c.033.033.08.053.127.053a.185.185 0 0 0 .07 0l.212-.09a105.282 105.282 0 0 1 10.987-3.877.833.833 0 0 0 .509-.42c1.61-3.137 5.352-9.214 5.352-9.214a.557.557 0 0 0 .068-.341s-.654-7.267-.693-10.943v.013Z"
    />
    <path
        fill="#00C805"
        d="M39.278 2.204c-.917-.794-2.241-1.166-4.308-1.201-1.872-.04-4.085.363-6.617 1.2-.357.129-.68.335-.947.606a121.358 121.358 0 0 0-7.411 7.596l-.183.199a.176.176 0 0 0-.015.204.178.178 0 0 0 .187.086l.262-.057a113.97 113.97 0 0 1 11.393-1.842.878.878 0 0 1 .978.887c-.065 3.72.07 7.443.405 11.15l.02.24a.182.182 0 0 0 .131.154h.044a.182.182 0 0 0 .154-.084l.136-.198a105.47 105.47 0 0 1 6.853-8.739c.211-.215.352-.49.396-.787.763-4.887-.413-8.497-1.47-9.412l-.008-.002Z"
    />
</svg>
