<svg xmlns="http://www.w3.org/2000/svg" fill="none" viewBox="0 0 48 48">
    <path
        fill="#EA1D25"
        d="M32.2 17.8c.8 1.3 1.2 2.8 1.3 4.3 7.4 1.9 12.4 6 12.3 10.5 0 6.6-9.8 11.9-21.9 11.9C11.8 44.5 2 39.2 2 32.6c0-4.7 5.1-8.8 12.4-10.7 0 1.8.4 3.6 1.3 5.2L22.6 39c.5.9.9 1.9 1.1 2.9l.3-.5c1.7-2.9 1.7-6.6 0-9.5l-5.5-9.5c-1.7-3-1.7-6.6 0-9.5l.3-.5c.2 1 .6 2 1.1 2.9l3.2 5.6 5 8.7c.5.9.9 1.9 1.1 2.9l.3-.5c1.7-2.9 1.7-6.6 0-9.5L24 13c-1.7-2.9-1.7-6.6 0-9.5l.3-.5c.2 1 .6 2 1.1 2.9l6.8 11.9Z"
    />
</svg>
