<svg xmlns="http://www.w3.org/2000/svg" width="48" height="48" fill="none" viewBox="0 0 48 48">
    <path
        fill="#1ED760"
        d="M24 4C12.954 4 4 12.954 4 24s8.954 20 20 20 20-8.954 20-20c0-11.045-8.954-19.999-20-20Zm9.172 28.845a1.245 1.245 0 0 1-1.714.414c-4.695-2.87-10.607-3.518-17.569-1.928a1.245 1.245 0 0 1-1.508-1.424 1.242 1.242 0 0 1 .952-1.006c7.618-1.74 14.154-.991 19.425 2.229.588.362.774 1.128.414 1.715Zm2.447-5.444a1.56 1.56 0 0 1-2.145.512c-5.375-3.303-13.57-4.26-19.93-2.33a1.562 1.562 0 0 1-1.945-1.039 1.562 1.562 0 0 1 1.04-1.944c7.263-2.205 16.293-1.137 22.466 2.657.733.452.967 1.411.514 2.144Zm.21-5.672c-6.447-3.828-17.08-4.18-23.235-2.313a1.871 1.871 0 1 1-1.086-3.58c7.066-2.144 18.81-1.73 26.231 2.675a1.871 1.871 0 0 1-1.91 3.218Z"
    />
</svg>
