<svg xmlns="http://www.w3.org/2000/svg" width="48" height="48" fill="none" viewBox="0 0 48 48">
    <path fill="#E20074" d="M5 5h38v38H5V5Z" />
    <path
        fill="#fff"
        d="M18.03 28.342h-5.428v-5.429h5.419v5.429h.009Zm-5.428-17.914v9.23h1.628v-.268c0-4.346 2.441-7.056 7.055-7.056h.27v19.541c0 2.71-1.083 3.8-3.802 3.8h-.814v1.897h14.113v-1.897h-.814c-2.71 0-3.802-1.081-3.802-3.8v-19.55h.268c4.616 0 7.057 2.708 7.057 7.054v.27h1.627v-9.22H12.602ZM29.97 28.342h5.429v-5.429h-5.42v5.429h-.01Z"
    />
</svg>
