<svg xmlns="http://www.w3.org/2000/svg" width="48" height="48" fill="none" viewBox="0 0 48 48">
    <path
        fill="#fff"
        d="M42.784 23.902c0 10.335-8.59 18.721-19.173 18.721-10.583 0-19.174-8.386-19.174-18.72S13.027 5.18 23.611 5.18c10.583 0 19.173 8.388 19.173 18.721Z"
    />
    <path
        fill="#C00"
        d="M23.75 4c-11.047 0-20 8.954-20 20s8.953 20 20 20 20-8.954 20-20-8.953-20-20-20Zm0 6.666c7.364 0 13.334 5.97 13.334 13.334 0 7.363-5.97 13.334-13.334 13.334S10.416 31.364 10.416 24c0-7.363 5.97-13.334 13.334-13.334Zm0 6.668A6.665 6.665 0 0 0 17.084 24a6.666 6.666 0 0 0 6.666 6.666A6.665 6.665 0 0 0 30.416 24a6.666 6.666 0 0 0-6.666-6.666Zm16.47 21.96c-.639 0-1.176.503-1.176 1.177 0 .681.538 1.177 1.177 1.177.631 0 1.176-.496 1.176-1.177a1.173 1.173 0 0 0-1.176-1.177Zm0 .197c.526 0 .942.422.942.98 0 .567-.416.98-.941.98-.533 0-.941-.413-.941-.98 0-.558.407-.98.94-.98Zm-.45.304v1.352h.206v-.588h.235l.353.588h.226l-.383-.598c.192-.027.352-.13.352-.372 0-.27-.156-.382-.47-.382h-.52Zm.206.175h.274c.14 0 .294.028.294.197 0 .207-.15.215-.323.215h-.245v-.412Z"
    />
</svg>
