<svg xmlns="http://www.w3.org/2000/svg" fill="none" viewBox="0 0 49 49">
    <path
        fill="#25F4EE"
        d="M22.56 15.848v-.901a6.829 6.829 0 0 0-.92-.067 6.844 6.844 0 0 0-6.837 6.836 6.831 6.831 0 0 0 2.919 5.598 6.79 6.79 0 0 1-1.814-4.655 6.805 6.805 0 0 1 6.653-6.81Z"
    />
    <path
        fill="#25F4EE"
        d="M22.722 25.803c1.682 0 3.078-1.36 3.14-3.027l.005-14.861 2.696-.023a5.173 5.173 0 0 1-.087-.943h-3.714l-.006 14.885a3.123 3.123 0 0 1-3.116 3.005 3.1 3.1 0 0 1-1.449-.36c.568.787 1.49 1.325 2.531 1.325Zm10.921-12.834v-.853a5.135 5.135 0 0 1-2.814-.836c.721.828 1.702 1.45 2.814 1.689Zm-5.158 25.355a3.285 3.285 0 0 1 3.028-3.275 4.573 4.573 0 0 0-.302-.01 3.285 3.285 0 1 0 0 6.57c.087 0 .217-.004.302-.01a3.285 3.285 0 0 1-3.028-3.275Z"
    />
    <path
        fill="#FE2C55"
        d="M30.829 11.278a5.143 5.143 0 0 1-1.27-3.387h-.996a5.177 5.177 0 0 0 2.266 3.387Zm-9.189 7.315a3.126 3.126 0 0 0-3.123 3.122c0 1.2.68 2.24 1.674 2.764a3.1 3.1 0 0 1-.591-1.821c0-1.722 1.4-3.122 3.122-3.122.321 0 .63.053.921.144v-3.792a6.829 6.829 0 0 0-.921-.066c-.054 0-.108.003-.161.004v2.912a3.075 3.075 0 0 0-.922-.145Z"
    />
    <path
        fill="#FE2C55"
        d="M33.643 12.943v2.886a8.833 8.833 0 0 1-5.168-1.661v7.547a6.844 6.844 0 0 1-6.836 6.837 6.797 6.797 0 0 1-3.917-1.24 6.817 6.817 0 0 0 5 2.182 6.844 6.844 0 0 0 6.836-6.836V15.11a8.834 8.834 0 0 0 5.167 1.662v-3.714c-.371 0-.733-.04-1.082-.115Zm-1.398 22.094c-.088 0-.218.005-.304.011a3.285 3.285 0 0 1 0 6.549c.085.006.216.011.304.011a3.285 3.285 0 1 0 0-6.57Z"
    />
    <path
        fill="#000"
        d="M28.475 21.715v-7.547a8.833 8.833 0 0 0 5.168 1.661v-2.886a5.17 5.17 0 0 1-2.814-1.665 5.177 5.177 0 0 1-2.266-3.387h-2.719l-.006 14.884a3.123 3.123 0 0 1-3.116 3.005 3.117 3.117 0 0 1-2.53-1.301 3.124 3.124 0 0 1-1.675-2.764c0-1.721 1.4-3.122 3.122-3.122.322 0 .63.053.922.145v-2.912c-3.695.086-6.675 3.116-6.675 6.832 0 1.797.698 3.433 1.836 4.654a6.796 6.796 0 0 0 3.917 1.24 6.844 6.844 0 0 0 6.836-6.837ZM6.787 33.56h5.99l-.55 1.713h-1.554v6.335H8.737v-6.335l-1.948.003-.002-1.716Zm15.801 0h6.128l-.55 1.713h-1.69v6.335h-1.938v-6.335l-1.948.003-.002-1.716Zm-9.446 2.56h1.92l-.002 5.488h-1.907l-.011-5.488Zm2.682-2.583h1.918v3.748l1.9-1.865h2.29l-2.404 2.333 2.693 3.855h-2.113l-1.797-2.673-.57.553v2.12h-1.917v-8.071Zm20.324 0h1.918v3.748l1.901-1.865h2.29l-2.404 2.333 2.693 3.855h-2.114l-1.797-2.673-.569.553v2.12h-1.918v-8.071Zm-21.08.989a.967.967 0 1 1-1.933 0 .967.967 0 0 1 1.933 0Zm16.658 5.394a1.597 1.597 0 1 1 0-3.195 1.597 1.597 0 0 1 0 3.195Zm0-4.883a3.285 3.285 0 1 0 0 6.57 3.285 3.285 0 0 0 0-6.57Z"
    />
</svg>
