<svg xmlns="http://www.w3.org/2000/svg" width="48" height="48" fill="none" viewBox="0 0 48 48">
    <path
        fill="#000"
        fill-rule="evenodd"
        d="M7.53 4.588h32.94a2.941 2.941 0 0 1 2.94 2.941v32.942a2.941 2.941 0 0 1-2.94 2.94H7.53a2.941 2.941 0 0 1-2.94-2.94V7.529a2.941 2.941 0 0 1 2.94-2.94Z"
        clip-rule="evenodd"
    />
    <path
        fill="#fff"
        fill-rule="evenodd"
        d="M40.47 5.177a2.353 2.353 0 0 1 2.353 2.352v32.942a2.353 2.353 0 0 1-2.352 2.352H7.529a2.352 2.352 0 0 1-2.352-2.352V7.529a2.353 2.353 0 0 1 2.352-2.352h32.942Zm0-1.177H7.53A3.53 3.53 0 0 0 4 7.53v32.94A3.53 3.53 0 0 0 7.53 44h32.94A3.53 3.53 0 0 0 44 40.47V7.53A3.53 3.53 0 0 0 40.47 4Z"
        clip-rule="evenodd"
    />
    <path
        fill="#fff"
        fill-rule="evenodd"
        d="M24 12.235a11.763 11.763 0 0 0-11.705 10.588h8.176V21.06c0-.326.262-.588.588-.588h5.882c.326 0 .588.262.588.588v5.882a.587.587 0 0 1-.588.588h-5.882a.587.587 0 0 1-.588-.588v-1.764h-8.176c.633 6.312 6.16 10.985 12.49 10.561 6.33-.423 11.185-5.79 10.973-12.131-.211-6.34-5.414-11.372-11.758-11.372Z"
        clip-rule="evenodd"
    />
</svg>
