<svg xmlns="http://www.w3.org/2000/svg" fill="none" viewBox="0 0 48 48">
    <g clip-path="url(#a)">
        <path
            fill="#E60000"
            d="M28.082 25.469c0 3.59-1.966 4.044-3.93 4.044-3.365 0-4.083-1.739-4.083-4.195v-6.992h-1.247v-.68h4.724v.68h-1.322v6.765c0 2.381.604 3.59 2.343 3.59 1.738 0 2.608-.869 2.608-3.363v-6.992h-1.248v-.68h3.364v.68h-1.134l-.075 7.143Zm3.288 3.212V18.326h-1.323v-.68h5.216c2.23 0 3.326 1.247 3.326 2.72 0 1.588-1.436 2.457-2.683 2.722 2.456.227 3.136 1.814 3.136 2.986 0 2.38-2.04 3.288-4.006 3.288h-5.064v-.68h1.398Zm5.102-8.163c0-1.096-.566-2.192-1.814-2.192h-1.36v4.497h1.21c1.36 0 1.964-1.096 1.964-2.305Zm.454 5.593c0-1.55-.68-2.607-2.23-2.607h-1.323v5.215h1.096c1.625-.038 2.457-1.02 2.457-2.608Zm7.37-7.937c-1.247 0-2.04.719-2.04 2.004 0 1.133 1.246 1.7 2.456 2.116.718.265 1.625.605 2.267 1.172.68.642 1.059 1.512 1.021 2.608-.038 2.04-1.474 3.439-4.006 3.439-.945 0-2.42-.227-3.288-.718l-.114-3.062h.756c.076 2.08 1.02 3.137 2.721 3.137 1.36 0 2.117-.907 2.117-2.305 0-1.21-.983-1.7-2.495-2.23-.491-.151-1.474-.529-2.154-1.21a3.09 3.09 0 0 1-.907-2.192c0-2.38 1.7-3.439 3.817-3.439.832 0 2.079.303 2.835.718l.076 2.684h-.756c-.114-1.89-.945-2.722-2.306-2.722Z"
        />
        <path
            fill="#000"
            d="m12.888 20.025-.302.264.34 1.096-.983-.529-.34.265 1.096.605-1.171.945-.303-.416.416-.34-.302-.378-.416.34-.34-.454.415-.34-.302-.416-2.116 1.777 2.04 1.625.378-.454c.265 0 .454.227.567.454l-.378.454.227.188c.492-.453 1.172-.755 1.852-.755 1.436 0 2.532 1.171 2.532 2.607 0 .454-.113.983-.377 1.399l.377.302c0 .265-.264.567-.529.643l-.378-.303a2.632 2.632 0 0 1-1.852.756c-1.436 0-2.532-1.134-2.532-2.57 0-.453.151-.945.34-1.36l-.264-.19-.378.492a.691.691 0 0 1-.567-.491l.378-.416-1.701-1.436v2.267h.567a.61.61 0 0 1 .113.34.73.73 0 0 1-.113.378h-.567v.265c1.247.227 2.306 1.285 2.306 2.57 0 1.323-1.021 2.381-2.306 2.608v.453a.762.762 0 0 1-.416.114c-.151 0-.34-.038-.453-.114v-.453a2.644 2.644 0 0 1-2.268-2.608c0-1.285.983-2.343 2.268-2.532v-.303H6.84a.638.638 0 0 1-.113-.377c0-.152.037-.265.113-.378h.605V23.35l-1.739 1.436.378.416a.691.691 0 0 1-.567.491l-.378-.491-.227.227c.227.415.378.869.378 1.36 0 1.436-1.134 2.57-2.532 2.57-.68 0-1.36-.264-1.852-.756l-.378.303c-.227-.076-.491-.378-.529-.643l.378-.302A2.976 2.976 0 0 1 0 26.563c0-1.436 1.096-2.607 2.532-2.607.68 0 1.36.302 1.852.755l.227-.15-.378-.454a.71.71 0 0 1 .567-.454l.378.454 2.04-1.625-2.116-1.777-.302.416.416.34-.303.416-.415-.34-.303.378.34.264-.302.416L3.1 21.65l1.058-.605-.302-.264-.983.529.303-1.02-.303-.265-.378 1.172-1.171-.945.302-.378.416.34.34-.378-.416-.378.303-.378.415.302.303-.378-.907-.68c.075-.302.264-.53.567-.718l4.8 3.93V18.93h-.492v.491h-.491v-.491h-.491v.491H5.48v-1.474l1.134.491v-.415l-1.058-.454 1.058-.416v-.378l-1.134.454v-1.512h.492v.53h.491v-.53h.491v.53h.492v-1.172c.15-.038.302-.076.453-.076.151 0 .303.038.416.076v6.463l4.8-3.931c.264.189.454.416.567.718l-.907.718.302.378.416-.302.302.378-.415.378.302.378.416-.34.302.377-1.172.945-.34-1.21ZM3.1 27.13c0 .416.303.68.68.718l-.604.454c-.416-.151-.794-.642-.794-1.096 0-.151.038-.227.076-.34h-.114c-.567 0-1.02-.53-1.134-1.058l.643-.492v.19c0 .34.34.642.68.642.378 0 .718-.303.718-.68 0-.454-.34-.757-.793-.757-.832 0-1.663.832-1.663 1.89 0 .303.075.605.189.87l.378-.303c.264.114.453.378.529.68l-.378.303c.378.302.831.453 1.285.453.983 0 1.738-.793 1.738-1.474 0-.415-.264-.756-.68-.756-.453.076-.756.378-.756.756Zm5.14 1.512c0 .378.303.68.68.68.265 0 .379-.113.568-.264v.794a1.109 1.109 0 0 1-.605.15c-.416 0-.756-.113-.983-.49-.227.377-.605.49-1.02.49-.19 0-.416-.037-.605-.15v-.794c.189.189.302.265.567.265.378 0 .68-.303.68-.68 0-.379-.227-.681-.642-.681-.718 0-1.02.68-1.02 1.323 0 .907.68 1.7 1.549 1.852v-.454c.151-.075.302-.075.416-.075.15 0 .302 0 .453.075v.454c.832-.114 1.55-.983 1.55-1.852 0-.643-.265-1.323-1.02-1.323-.303-.038-.568.302-.568.68Zm4.309-3.137c0 .34.378.68.718.68.34 0 .68-.302.68-.642v-.189l.605.491c-.113.605-.642 1.096-1.247 1.059.038.113.038.226.038.34 0 .453-.378.945-.794 1.096l-.567-.492c.378-.037.68-.302.68-.718 0-.415-.34-.68-.718-.68-.415 0-.68.34-.68.756 0 .491.605 1.474 1.776 1.474.454 0 .908-.151 1.248-.454l-.378-.302c.075-.302.264-.567.529-.68l.378.302c.15-.264.226-.567.226-.87 0-.83-.642-1.889-1.662-1.889-.454 0-.832.265-.832.718Z"
        />
    </g>
    <defs>
        <clipPath id="a">
            <path fill="#fff" d="M0 15h48v17.386H0z" />
        </clipPath>
    </defs>
</svg>
