<svg xmlns="http://www.w3.org/2000/svg" xml:space="preserve" viewBox="0 0 1080 1080">
    <path
        fill="#fdbb2f"
        fill-rule="evenodd"
        d="m575.483 378.73 18.112-205.987c0-20.34-23.737-37.058-53.595-37.058-14.918 0-28.327 4.208-37.958 10.89-9.652 6.75-15.57 15.975-15.57 26.168l4.5 51.502 4.546 51.48 4.5 51.525 4.567 51.48c4.658 29.002 66.127 28.935 70.875 0Zm121.995 111.375 93.78-43.65 93.712-43.65c17.618-10.17 20.25-39.105 5.288-64.958-7.448-12.915-17.775-22.41-28.396-27.427-10.664-4.995-21.644-5.49-30.464-.405l-42.346 29.655-42.344 29.7-84.645 59.332c-22.793 18.563 8.032 71.73 35.415 61.403Zm-35.415 161.393 84.644 59.354 84.668 59.333c17.595 10.193 43.987-2.025 58.905-27.9 7.47-12.893 10.53-26.595 9.54-38.317-.968-11.7-6.03-21.466-14.873-26.55l-46.845-21.826-46.89-21.847-46.867-21.825-46.868-21.825c-27.405-10.44-58.095 42.795-35.415 61.403Zm-279.54-61.38-93.736 43.627-93.712 43.65c-17.617 10.17-20.25 39.105-5.287 64.935 7.425 12.938 17.775 22.41 28.395 27.45 10.665 4.995 21.6 5.49 30.465.405l42.3-29.678 42.39-29.7 42.3-29.655 42.345-29.7c22.725-18.517-8.01-71.685-35.46-61.357Zm35.46-161.416-84.668-59.31-84.69-59.354c-17.595-10.17-43.965 2.024-58.882 27.9-7.448 12.892-10.53 26.572-9.563 38.295 1.013 11.7 6.075 21.464 14.873 26.594l46.89 21.803 46.867 21.825 46.845 21.803 46.868 21.825c27.45 10.484 58.117-42.773 35.46-61.38ZM504.54 701.47l-9.045 103.05-9.067 102.982c0 20.318 23.76 37.035 53.617 37.035 14.918 0 28.26-4.185 37.958-10.867 9.63-6.75 15.57-16.02 15.57-26.212L589.028 856l-4.5-51.503-4.568-51.48-4.5-51.524c-4.68-28.98-66.15-28.913-70.92 0Z"
        vector-effect="non-scaling-stroke"
    />
</svg>
