<svg xmlns="http://www.w3.org/2000/svg" width="48" height="48" fill="none" viewBox="0 0 48 48">
    <path
        fill="#FBFAFA"
        fill-rule="evenodd"
        d="M35.693 15.123c-1.19.186-1.823.857-1.772 1.877.052 1.02.538 1.427 2.133 1.78 1.261.277 1.504.445 1.5 1.034-.002.56-.408.826-1.252.826-.983 0-1.415-.277-1.681-1.078l-.11-.33-.3-.012-.299-.01v1.677l.342.143c2.185.915 4.464.252 4.546-1.324.058-1.103-.473-1.678-1.853-2.003-1.59-.375-1.805-.508-1.775-1.079.029-.512.355-.742 1.086-.768.92-.032 1.306.21 1.553.969l.084.257h.581l.02-1.497-.348-.139c-.836-.334-1.669-.444-2.455-.323Zm-27.532.126c-.014.016-.027.181-.027.37v.345l.342.01.342.012.324 1.096c.178.602.52 1.784.76 2.63l.437 1.534h.6c.536 0 .6-.007.62-.069l.415-1.456c.671-2.359.795-2.777.822-2.777.014 0 .127.365.25.812.123.446.393 1.414.6 2.151l.38 1.339h1.183l.318-1.105.759-2.64.44-1.537.593.012.59.01v4.537l-.363.012-.361.01v.7h5.17V19.21l-.299.01-.3.012-.09.342c-.233.877-.352.948-1.582.948l-.881.001v-1.877l1.736-.021.042-.122a.964.964 0 0 0 .002-.55l-.04-.147-.871-.01-.87-.01v-1.8l.765-.012c1.217-.018 1.404.09 1.63.94l.07.265h.61v-1.956h-7.286v.744h.411c.225 0 .41.014.41.03 0 .05-.97 3.571-.989 3.59-.007.007-.133-.413-.281-.934a976.82 976.82 0 0 1-.926-3.285l-.04-.146-.61.01-.613.01-.11.391c-.062.216-.327 1.184-.59 2.152-.5 1.847-.488 1.807-.525 1.768-.02-.02-.996-3.522-.996-3.572 0-.008.177-.014.393-.014h.39v-.744H9.551c-.75 0-1.376.012-1.39.026Zm14.86.346v.372h.706l-.01 2.277-.01 2.279-.343.011-.343.01v.701h4.859l-.02-2.013-.299-.012-.298-.01-.085.338c-.219.868-.354.962-1.424.986l-.735.017v-4.584h.784v-.743h-2.782v.372m5.407-.002v.37l.363.01.361.012v4.537l-.361.012-.363.01v.7h4.857v-2.033h-.584l-.04.166c-.255 1.03-.382 1.133-1.401 1.158-.35.009-.68.003-.736-.01l-.099-.025.01-2.257.01-2.258.402-.01.401-.012v-.74h-2.82v.37Zm.333 8.626c-1.63.254-2.574 1.406-2.581 3.147-.01 2.736 2.442 3.977 5.29 2.676l.249-.115V27.23h-2.26l-.046.1c-.055.122-.06.484-.006.622l.037.1h1.02v1.557l-.182.062c-1.818.619-3.117-.908-2.66-3.125.388-1.871 2.655-2.231 3.28-.52l.082.227h.616v-1.55l-.205-.085c-.862-.355-1.9-.512-2.634-.397Zm6.542 0c-1.92.298-3.038 2.047-2.566 4.016.718 3.003 5.235 3.122 6.143.162.728-2.371-1.144-4.557-3.577-4.178Zm-26.22.517.012.361.363.012.36.01v4.534h-.742v.744h2.898v-.744h-.862v-1.758l.892-.011.89-.01.05-.196a.795.795 0 0 0 .007-.4l-.042-.204-1.777-.021-.021-1.936h.91c1.186 0 1.306.059 1.514.745.153.505.121.472.446.46l.284-.012.021-1.937H9.072l.011.363m6.048 2.191c-1.209 3.039-1.047 2.726-1.415 2.726h-.293v.744h2.272v-.744h-.33c-.412 0-.398.039-.178-.567l.187-.508 1.133-.01 1.131-.012.186.52c.101.285.183.532.183.548 0 .016-.15.03-.334.03h-.331v.742h5.405v-.743h-.823v-1.837h.444c.983 0 1.242.244 1.38 1.293.137 1.066.427 1.327 1.465 1.326.57-.001.591-.01.618-.247.041-.36-.005-.456-.216-.457-.387-.002-.495-.15-.579-.788-.123-.954-.324-1.221-1.075-1.434l-.137-.038.128-.004c1.277-.04 1.92-1.678 1.007-2.564-.495-.48-.785-.53-3.155-.53h-1.878v.744h.705v4.538l-.593-.01-.594-.011-.29-.705c-.268-.65-.534-1.302-.8-1.954-.26-.643-.521-1.285-.785-1.927l-.277-.675-.573.001-.574.002-1.014 2.551Zm21.377-1.853c1.266.491 1.548 3.282.435 4.305-.523.483-1.454.54-2.08.129-1.166-.767-1.1-3.64.099-4.341.39-.23 1.086-.27 1.545-.093Zm-12.878.162c.531.273.648 1.09.217 1.52-.245.244-.455.294-1.237.296l-.666.001-.01-.972-.01-.97.756.012c.72.013.765.018.95.113Zm-6.68 1.476c.219.588.391 1.077.381 1.087-.01.009-.388.013-.84.008l-.821-.012.413-1.105c.227-.607.424-1.09.44-1.075.014.017.207.51.427 1.097Z"
        clip-rule="evenodd"
    />
    <path fill="#FCCC44" fill-rule="evenodd" d="M5 43.478v1.506h38v-3.011H5v1.505Z" clip-rule="evenodd" />
    <path
        fill="#D41C2C"
        fill-rule="evenodd"
        d="M5 22.967v18.967h38V4H5v18.967Zm32.418-7.826a5.71 5.71 0 0 1 .999.341l.235.104v1.515H38.3c-.276 0-.353-.011-.353-.055 0-.69-.57-1.137-1.451-1.137-.81-.001-1.173.231-1.173.75 0 .507.213.645 1.41.914.86.194 1.113.278 1.398.463 1.158.75 1.107 2.482-.089 3.085-.948.476-2.708.42-3.816-.122l-.255-.124-.02-1.7.09-.021c.049-.014.203-.018.343-.012l.253.011.084.26c.285.89.688 1.18 1.64 1.186.847.004 1.217-.195 1.263-.678.062-.636-.15-.797-1.436-1.1-1.334-.31-1.779-.567-2.061-1.184-.537-1.17.263-2.341 1.764-2.583.271-.044 1.218.01 1.528.087Zm-26.355.077c.037.023.048.132.04.4l-.011.368-.402.012c-.22.006-.4.019-.4.03 0 .021.255.934.559 1.992.117.408.253.897.302 1.086.05.188.096.336.104.329.02-.02.759-2.637.973-3.449.103-.387.203-.725.226-.752.069-.088 1.23-.068 1.278.02.033.063.716 2.489 1.067 3.79.07.262.134.473.139.468.022-.022.913-3.388.913-3.446 0-.05-.066-.06-.392-.06h-.394l.012-.4.01-.402 3.585-.01c1.972-.006 3.624-.001 3.673.01l.09.022-.012.986-.01.987h-.658l-.122-.38c-.245-.757-.344-.808-1.56-.811l-.735-.003v1.761h1.726l.037.1c.05.13.05.57 0 .698l-.037.1h-1.726v1.8h.883c1.197 0 1.273-.041 1.489-.82.056-.205.109-.396.118-.424.012-.036.102-.046.34-.038l.324.011v2.073l-2.616.01-2.617.01.012-.402.01-.4.362-.011.363-.012v-4.456h-1.125l-.12.382c-.068.21-.396 1.358-.731 2.552-.335 1.195-.627 2.21-.647 2.258-.037.086-.054.089-.648.089h-.608l-.038-.096c-.02-.052-.178-.62-.354-1.261a106.89 106.89 0 0 0-.808-2.828c-.012-.032-.117.275-.234.684a228.71 228.71 0 0 1-.503 1.72c-.136.457-.27.913-.403 1.37l-.112.391h-1.238l-.269-.9a239.26 239.26 0 0 1-.755-2.62l-.486-1.72-.715-.023v-.386c0-.273.015-.392.05-.406.083-.034 2.749-.027 2.801.007Zm14.888 0c.036.023.047.132.038.4l-.011.368-.42.012-.422.01v4.456h.735c1.06-.002 1.174-.075 1.383-.875l.102-.396.68-.023v2.115l-2.479-.008-2.478-.01-.011-.347c-.015-.45-.01-.456.428-.456h.349l-.01-2.22-.011-2.218-.372-.02-.373-.02-.011-.346c-.007-.22.005-.365.034-.401.052-.062 2.752-.083 2.849-.02Zm5.39-.01c.052.02.063.094.063.409v.386l-.402.011-.401.012-.01 2.218-.01 2.22h.722c1.056 0 1.18-.084 1.398-.954l.084-.336h.327c.405 0 .374-.099.36 1.134l-.011.958h-4.936v-.783l.362-.01.362-.012v-4.456h-.744v-.384c0-.21.011-.396.027-.41.032-.033 2.726-.035 2.81-.003Zm-.936 9.029c.377.08.858.239 1.116.365l.217.106v1.563l-.646.023-.154-.332c-.324-.7-.693-.942-1.434-.941-1.217.003-1.762.73-1.762 2.346 0 1.332.351 2.003 1.197 2.289.313.105 1.101.095 1.418-.02l.185-.068V28.09h-1.02l-.039-.1c-.065-.173-.047-.622.031-.718.067-.082.085-.082 1.205-.071l1.136.01.02 2.744-.324.139c-2.909 1.255-5.3.023-5.298-2.726.004-2.282 1.8-3.636 4.152-3.13Zm6.412.02c3.09.817 3.158 5.423.091 6.2-1.908.482-3.642-.458-4.09-2.218-.638-2.495 1.516-4.64 4-3.983Zm-22.395 1.096v.997l-.324.011c-.24.008-.328-.003-.34-.038-.007-.029-.06-.202-.115-.386-.22-.732-.314-.78-1.502-.78h-.873v1.838h.858c1.02 0 .964-.027.964.47 0 .496.056.469-.964.469h-.858v1.68h.823v.784H9.192v-.784h.705v-4.456h-.705v-.822l2.614.01 2.616.01v.997m3.245-.43c.126.312.342.84.482 1.172.238.573.472 1.147.703 1.722.248.612.514 1.268.592 1.456l.14.342h1.125v-4.458h-.704v-.828l2.007.017c2.186.018 2.204.02 2.688.256.564.275.808.685.808 1.355 0 .791-.381 1.28-1.16 1.483-.117.03-.185.064-.152.075.686.225.86.452.961 1.262.097.768.192.916.583.916.217 0 .258.06.258.382 0 .375-.01.38-.693.38-.98 0-1.308-.253-1.426-1.099-.172-1.24-.373-1.467-1.32-1.495l-.479-.014v1.765l.403.012.4.011.011.381.012.382h-5.487v-.784h.333c.394 0 .383.043.159-.546l-.17-.45h-2.214l-.185.489-.184.488.347.012.346.012v.779H13.54v-.78l.592-.022.294-.723c.162-.399.592-1.473.955-2.386a303.63 303.63 0 0 1 .827-2.064c.034-.089.042-.09.632-.078l.598.01.229.567Zm17.811.129c-.89.257-1.27.948-1.271 2.315-.002.735.021.887.214 1.399.463 1.235 2.388 1.305 2.994.11.378-.743.387-2.193.02-2.96-.335-.702-1.198-1.083-1.957-.864ZM22.08 26.076V27l.734-.012c1.028-.018 1.315-.187 1.37-.805.067-.745-.278-.998-1.389-1.02l-.715-.014v.926Zm-5.864.663-.392 1.078h.801c.747 0 .8-.005.776-.07-.128-.348-.255-.696-.381-1.045a20.604 20.604 0 0 0-.383-1.01c-.016-.016-.205.454-.421 1.047Z"
        clip-rule="evenodd"
    />
    <path
        fill="#EC8C94"
        fill-rule="evenodd"
        d="m10.803 15.585-.01.382h-.39c-.35 0-.393.007-.389.068.001.041.01.049.022.02.014-.034.131-.05.39-.05.435 0 .415.023.397-.452l-.013-.349-.008.381Zm4.044.02.001.381.39.012c.253.007.402.028.422.06.02.031.03.024.03-.023 0-.06-.045-.068-.409-.068h-.41l-.014-.372-.013-.372.003.382Zm8.03 0 .003.381.743.005-.36-.014-.36-.013-.015-.37-.013-.37.002.381Zm2.812-.021-.008.38-.403.013-.4.013.402.008c.473.01.449.034.43-.445l-.014-.349-.007.38Zm5.445.02-.008.36-.402.012-.4.01-.002 2.258v2.26l.02-4.499h.394c.459 0 .437.022.42-.433l-.014-.33-.008.362Zm-22.954.392c.103.008.261.008.353 0 .091-.008.006-.015-.188-.015-.193 0-.268.007-.165.014Zm9 0 .587.012V20.5l-.725.028.373-.002.372-.003v-4.537l-.597-.002h-.598l.588.01m1.897.023c-.01.027-.014.435-.007.909l.011.86.018-1.779 1.626-.023-.814-.009c-.63-.006-.818.003-.834.042Zm9.591-.022.342.014v4.49l-.342.015-.343.013.352-.002.352-.002v-4.537l-.352-.002-.352-.002.343.013Zm8.337-.017.134.081.118.068-.093-.08c-.05-.045-.11-.08-.133-.08-.023 0-.035.005-.026.011Zm-3.242.927c0 .14.008.197.016.127.009-.084.009-.17 0-.254-.008-.07-.016-.013-.016.127Zm-18.363.062c-.014.057-.018.112-.01.12.01.01.029-.03.043-.087.014-.057.02-.112.01-.12-.01-.01-.03.029-.043.087Zm6.055-.023c0 .032.016.094.034.137.021.05.033.057.033.02a.458.458 0 0 0-.033-.138c-.02-.049-.034-.055-.034-.02Zm-7.364.548a.4.4 0 0 0 .033.136c.02.05.033.057.033.02a.463.463 0 0 0-.033-.137c-.022-.049-.033-.057-.033-.02Zm20.13.605a.887.887 0 0 0 .152.138c.011 0-.04-.062-.113-.138a.88.88 0 0 0-.152-.136c-.012 0 .04.062.113.137Zm-24.91.06c0 .032.015.093.033.136.022.05.034.056.034.02a.415.415 0 0 0-.034-.137c-.02-.05-.033-.057-.033-.02Zm9.766.519c-.01.027-.014.454-.009.948l.012.899 1.566.002-.774-.011-.773-.013v-1.835l.872-.01.87-.012-.871-.01c-.678-.006-.877.003-.893.042Zm2.554.526c-.009.016.083.024.203.02.384-.02.43-.037.118-.043-.166-.003-.31.008-.32.023Zm5.616-.005c.234.03.5.032.484.005-.01-.016-.144-.026-.3-.023-.155.004-.237.011-.184.018Zm5.309.017c-.016.023-.017.053-.004.066.013.014.023.003.023-.021 0-.031.096-.047.294-.047h.293v2.033l-4.876.02h4.897v-2.072l-.3-.012c-.19-.006-.31.005-.327.032Zm1.203.83.01.87.01-.855.012-.852.309.012c.17.007.3 0 .29-.017-.008-.016-.157-.028-.329-.028h-.31l.008.87Zm-22.804-.65c-.007.07.04.17.078.17.019 0 .036-.028.036-.061 0-.034-.017-.05-.038-.039-.02.013-.043-.008-.054-.046-.009-.037-.02-.047-.022-.023Zm27.744.19c0 .128.007.178.016.107a1.087 1.087 0 0 0 0-.234c-.009-.06-.016-.002-.016.127Zm-17.482.656c-.112.137-.115.149-.025.068.093-.085.204-.237.17-.234a1.48 1.48 0 0 0-.145.166Zm13.63-.03a.869.869 0 0 0 .153.136c.01 0-.04-.061-.113-.136a.833.833 0 0 0-.153-.138c-.01 0 .04.062.113.138Zm2.329.147-.114.126.127-.115a.923.923 0 0 0 .127-.127c0-.03-.033-.004-.14.116Zm-14.307.527.011.382h4.819l-4.8-.02v-.701l.342-.013.344-.013-.728-.015.012.38Zm2.332-.352c.178.008.468.008.645 0 .178-.007.033-.013-.322-.013-.356 0-.502.006-.323.013Zm5.486 0c.179.008.46.008.626 0 .166-.007.021-.013-.324-.013-.344 0-.48.006-.302.013Zm7.509.254-.194.206.205-.194c.19-.18.223-.217.195-.217a2.67 2.67 0 0 0-.206.205Zm-2.358-.137a.851.851 0 0 0 .214 0c.06-.01.01-.017-.108-.017s-.167.008-.107.017Zm.43 0a.86.86 0 0 0 .215 0c.06-.01.012-.017-.108-.017-.118 0-.166.008-.107.017Zm-25.778.626c.167.008.44.008.608 0 .166-.008.03-.013-.305-.013-.332 0-.47.005-.303.013Zm3.724 0c.167.008.432.008.588 0 .154-.008.018-.013-.306-.013-.323 0-.45.005-.282.013Zm4.173 0c.718.007 1.881.007 2.586 0 .703-.005.116-.01-1.305-.01-1.422 0-1.999.005-1.281.01Zm17.431.156c.07.009.176.009.235 0 .058-.01.002-.017-.128-.015-.129 0-.178.006-.107.015Zm.705 0c.049.009.12.009.157-.001.037-.01-.003-.018-.09-.017-.085 0-.117.008-.068.018ZM19.78 24.746c0 .216.006.298.014.185.007-.13.007-.26 0-.39-.008-.102-.014-.01-.014.205Zm13.597.342-.194.206.206-.194c.19-.18.222-.216.194-.216-.006 0-.099.093-.206.204Zm4.625-.009c.083.086.16.156.172.156.01 0-.049-.07-.134-.156a1.108 1.108 0 0 0-.172-.157c-.01 0 .049.071.134.157Zm-1.47.1c.098.056.256.174.352.264l.176.163-.136-.151c-.139-.154-.451-.377-.527-.376-.022 0 .038.045.135.1Zm-23.602.023c.042.023.123.082.177.126.055.046.042.026-.028-.044-.071-.07-.152-.126-.18-.125-.026 0-.013.02.03.043Zm17.412.17a.843.843 0 0 0 .154.137c.01 0-.042-.062-.115-.137a.848.848 0 0 0-.151-.137c-.012 0 .039.062.112.137Zm-6.374.723c0 .098.008.137.017.089a.578.578 0 0 0 0-.176c-.01-.05-.017-.01-.017.087Zm3.637.044a.648.648 0 0 0-.041.168c.001.023.028-.025.06-.11.03-.084.048-.16.04-.169-.009-.008-.034.041-.059.11Zm-1.562.739c0 .075.007.105.017.068a.31.31 0 0 0 0-.138c-.01-.037-.017-.006-.017.07Zm1.41.02c.002.086.01.116.018.068a.455.455 0 0 0 0-.158c-.01-.037-.018.003-.018.09Zm6.47.488c0 .247.006.349.014.225.008-.15.008-.3 0-.45-.008-.123-.014-.022-.014.225Zm-22.899-.34c.017.015.426.024.909.019l.878-.012-.909-.02c-.499-.01-.895-.005-.878.012Zm10.812 0c.018.016.295.025.616.019l.584-.012-.615-.02c-.338-.01-.601-.005-.585.012Zm15.65.34c0 .183.007.257.016.166a2.3 2.3 0 0 0 0-.332c-.01-.091-.016-.016-.016.166Zm-11.48-.02c.002.151.008.208.017.127a1.483 1.483 0 0 0-.001-.274c-.008-.07-.015-.003-.015.148Zm1.409 0c0 .087.007.118.018.069a.427.427 0 0 0-.002-.157c-.01-.037-.018.003-.016.089Zm4.2 1.213c0 .731.005 1.026.011.652.007-.373.007-.97 0-1.33-.006-.358-.013-.053-.012.678Zm-2.397-.938c0 .106.007.146.016.087a.715.715 0 0 0 0-.195c-.009-.05-.016 0-.016.108Zm-4.675.234c.094.108.18.204.19.215.01.011 0-.016-.023-.058a1.118 1.118 0 0 0-.19-.215c-.142-.131-.14-.128.023.058Zm2.91-.039c.002.086.01.116.018.068a.455.455 0 0 0 0-.157c-.01-.037-.018.003-.018.09m-1.41.057c0 .076.007.107.017.07a.31.31 0 0 0 0-.138c-.01-.037-.017-.007-.017.068Zm-2.908.091c0 .007.057.063.127.128l.128.114-.116-.127c-.107-.119-.139-.146-.139-.115Zm6.182.073c.036.037 1.026.06 1.026.024 0-.014-.238-.032-.527-.039-.29-.006-.515 0-.5.015Zm-1.75.384a.537.537 0 0 0 .052.176c.068.15.07.081.002-.098-.03-.075-.054-.11-.054-.078Zm.484.86c.106.108.202.195.213.195.01 0-.067-.087-.174-.195a1.706 1.706 0 0 0-.212-.195c-.01 0 .067.089.173.195Zm5.347.372c.139.14.261.254.273.254.01 0-.094-.114-.233-.254a2.667 2.667 0 0 0-.273-.255c-.01 0 .095.115.233.255Zm4.582.01-.213.225.225-.215c.21-.198.243-.235.214-.235-.006 0-.108.101-.226.225Zm-9.674-.166c0 .034.4.213.47.21.033 0-.005-.025-.082-.053a2.496 2.496 0 0 1-.265-.116c-.068-.035-.123-.054-.123-.04Zm-13.412.107c.01.016.166.03.348.03h.329l.013.371.014.372-.003-.382-.002-.38-.36-.021c-.196-.01-.349-.006-.338.01Zm4.436.001c.016.017.293.026.615.02l.585-.012-.616-.02c-.338-.01-.6-.005-.584.012Zm-10.19.018c.115.008.29.008.392 0 .102-.008.01-.015-.207-.014-.216 0-.298.007-.185.014Zm2.056 0c.124.008.327.008.45 0 .124-.008.023-.014-.225-.014s-.35.007-.225.014Zm2.253 0c.093.008.233.008.314 0 .08-.009.005-.015-.167-.015-.172 0-.238.006-.147.015Zm3.748.023c-.01.029-.014.209-.007.402l.013.348.008-.38.009-.38.342-.013.343-.012-.345-.009c-.255-.006-.348.006-.363.044Zm4.813-.023c.125.008.319.008.43 0 .113-.008.01-.014-.226-.014-.238 0-.33.007-.204.014Zm7.94.049c-.078.026-.082.032-.019.034a.457.457 0 0 0 .157-.034c.1-.043-.004-.043-.138 0Zm-4.572.028a.863.863 0 0 0 .214 0c.06-.009.012-.016-.108-.016-.118 0-.165.007-.106.016Zm9.95.039c.038.01.1.01.137 0 .037-.01.006-.018-.068-.018-.076 0-.107.008-.07.018Zm.587 0c.038.01.1.01.137 0 .038-.01.007-.018-.068-.018-.075 0-.106.008-.07.018Zm-6.699.04c.06.009.157.009.216 0 .06-.01.01-.017-.108-.017s-.167.008-.108.017Zm-4.346.666c.103.008.26.008.352-.001.09-.008.006-.014-.188-.014s-.268.006-.164.015Z"
        clip-rule="evenodd"
    />
    <path
        fill="#E4545C"
        fill-rule="evenodd"
        d="M36.102 15.058c.123.008.326.008.45 0s.022-.014-.226-.014-.348.006-.224.014Zm-27.228.155c.383.008 1.01.008 1.391 0 .382-.005.07-.011-.696-.011-.765 0-1.077.006-.695.011Zm3.712-.002c.525.028 1.05.03 1.033.004-.01-.017-.296-.027-.634-.022-.338.004-.517.011-.399.018m4.218.004c.995.005 2.635.005 3.643 0 1.01-.007.196-.012-1.808-.012-2.005 0-2.83.005-1.835.012Zm6.94 0c.394.006 1.03.006 1.41-.002.382-.005.058-.011-.718-.01-.775 0-1.086.005-.691.012Zm4.685.021c-.01.029-.014.218-.006.42l.013.37.009-.401.008-.4 1.4-.01 1.4-.012-1.401-.01c-1.135-.007-1.406 0-1.422.044m-20.296.378c0 .226.007.318.015.205a3.118 3.118 0 0 0 0-.41c-.008-.113-.015-.02-.015.204m2.846-.011c-.011.22-.007.386.012.368.016-.017.025-.196.019-.399l-.012-.368-.019.399Zm11.33.591-.008.99-.33-.012c-.18-.007-.32.001-.31.016.033.053.64.035.661-.019.01-.028.014-.48.008-1.008l-.011-.957-.01.99Zm3.556-.591c-.01.22-.005.386.012.368.017-.017.026-.196.02-.399l-.012-.368-.02.399Zm-2.892 0c-.004.198.007.368.023.378.016.009.025-.1.018-.243-.02-.453-.034-.507-.04-.135Zm15.563.736c0 .429.005.61.013.402.006-.208.006-.56 0-.782-.008-.221-.013-.051-.013.38Zm-2.318-.461c.103.008.263.008.353 0 .091-.008.008-.015-.187-.014-.194 0-.268.006-.166.014Zm1.166.257c0 .007.056.065.127.127l.127.115-.116-.127c-.106-.119-.138-.144-.138-.115ZM19.52 17.793c.72.028 1.48.03 1.463.003-.01-.017-.41-.026-.887-.023-.478.005-.738.014-.576.02Zm18.141.066c.041.036.35.18.35.163 0-.022-.296-.178-.339-.178-.015 0-.02.007-.011.014Zm-3.646 1.3c.23.03.54.032.523.005-.01-.016-.154-.027-.32-.023-.165.002-.256.012-.203.018Zm-6.131 1.07c0 .58.013 1.056.03 1.056.016 0 .03-.475.03-1.055 0-.582-.014-1.056-.03-1.056-.017 0-.03.474-.03 1.056Zm5.992-.214c0 .473.004.661.012.418.007-.243.007-.63 0-.86-.008-.23-.012-.031-.012.442Zm-11.48.215c0 .57.006.802.014.518.006-.286.006-.752 0-1.036-.008-.286-.013-.052-.013.518Zm10.953.027c-.011.563-.006 1.01.01.995.017-.017.027-.478.02-1.025l-.01-.995-.02 1.025Zm1.371-.521c0 .042.117.258.14.258.01 0-.01-.056-.046-.127-.072-.143-.094-.172-.094-.131Zm-17.523.755c-.038.036-.034.794.002.794.016 0 .024-.174.016-.39l-.01-.389.363-.013.365-.012-.355-.008c-.196-.005-.367.002-.381.018Zm2.45.002c.232.007.611.007.843 0 .231-.006.043-.013-.42-.013-.465 0-.654.007-.422.013Zm3.565 0c.103.008.27.008.373 0 .102-.009.018-.015-.186-.015-.205 0-.289.006-.187.015Zm2.153 0c.188.007.505.007.706 0 .2-.008.046-.013-.341-.013-.389 0-.553.005-.365.013Zm3.065.024a2.215 2.215 0 0 0-.007.4l.013.35.009-.381.008-.38.362-.013.361-.012-.362-.008c-.273-.007-.369.004-.384.044Zm2.38-.024c.189.007.505.007.705 0 .201-.008.048-.013-.34-.013-.389 0-.552.005-.364.013Zm-7.836.389c-.004.198.007.368.023.378.016.01.025-.099.018-.242-.02-.454-.034-.507-.04-.136Zm15.388-.076-.135.146.146-.133c.137-.126.165-.16.135-.16-.006 0-.073.067-.146.147Zm-9.174 3.363c.115.007.291.007.392 0 .102-.008.008-.015-.206-.015-.217 0-.299.007-.186.015Zm6.484 0c.103.008.261.007.352 0 .092-.008.007-.015-.188-.015-.194 0-.267.007-.164.015Zm-23.977.197 2.615.01v1.96l-.33-.012c-.183-.008-.318.001-.3.018.016.017.17.026.34.02l.31-.012v-1.995h-2.626l-2.624-.001 2.615.012Zm4.443-.004a.11.11 0 0 0-.026.068c0 .027.014.024.031-.006.022-.033.21-.05.617-.059l.585-.013-.59-.007c-.325-.005-.603.003-.617.017Zm4.684.004c.513.006 1.35.006 1.861 0 .512-.007.093-.012-.93-.012-1.023 0-1.442.005-.93.012m10.81 1.117-.008.775-.33-.013c-.18-.007-.32 0-.31.017.033.053.641.034.662-.02.011-.029.014-.385.007-.792l-.011-.742-.01.775Zm-6.628-.58a.846.846 0 0 0 .153.136c.01 0-.041-.062-.115-.136a.862.862 0 0 0-.151-.138c-.012 0 .04.062.113.138Zm8.499.166-.136.146.147-.134c.081-.074.148-.14.148-.147 0-.03-.033-.002-.16.135Zm-4.237-.079c.09.008.232.008.313 0 .08-.008.004-.015-.168-.015-.173 0-.238.006-.145.015Zm6.463 0c.069.008.184.008.254 0s.012-.016-.127-.016c-.14 0-.198.008-.127.016Zm-26.269.156.343.014.01 2.227.011 2.228v-4.479h-.353l-.352-.003.341.013Zm1.692.022c-.01.027-.013.454-.007.948l.01.898 1.744.003-.863-.012-.862-.011v-1.835l.834-.012.832-.011-.833-.01c-.646-.006-.839.003-.854.042Zm9.12-.022.343.014.011 2.227.01 2.228v-4.479h-.353l-.352-.003.342.013Zm1.694.022c-.011.027-.015.454-.009.948l.01.898.657.002h.657l-.647-.01-.647-.013v-1.834l.598-.012.597-.011-.599-.01c-.454-.006-.603.003-.617.042Zm8.503.224c.084.086.162.156.172.156.01 0-.048-.07-.133-.156a1.088 1.088 0 0 0-.173-.157c-.01 0 .05.07.134.157Zm-6.719-.066c0 .006.058.063.127.127l.128.115-.115-.128c-.108-.118-.14-.145-.14-.114m1.251 1.699-.135.146.148-.135c.08-.074.147-.14.147-.146 0-.03-.034-.002-.16.135Zm2.602.342c0 .193.006.277.015.186a2.69 2.69 0 0 0 0-.352c-.008-.102-.014-.028-.015.166Zm5.014 0c0 .172.007.238.015.145a1.814 1.814 0 0 0 0-.313c-.008-.08-.015-.005-.015.168Zm-2.755-.15c1.034.029 1.91.03 1.893.003-.01-.016-.532-.026-1.161-.022-.63.006-.958.014-.732.02Zm-3.713.521c0 .075.008.106.017.068a.307.307 0 0 0 0-.136c-.009-.039-.016-.008-.016.068m-4.185.127c-.01.029-.013.438-.008.91l.012.86.018-1.777.764-.026-.383-.008c-.28-.007-.389.005-.403.041Zm-10.812.079c-.01.028-.014.419-.008.87l.012.82.018-1.7 1.743-.022-.873-.01c-.678-.006-.877.003-.892.042Zm11.973.001.134.081.119.068-.093-.08c-.052-.044-.112-.08-.134-.08-.023 0-.035.005-.026.011m7.34.907c0 .409.006.57.012.36.008-.211.008-.545 0-.744-.006-.196-.013-.024-.013.384Zm-15.035-.264c-.01.017.311.025.713.02 1.35-.018 1.482-.033.39-.04-.596-.006-1.093.005-1.103.02Zm19.25.733a.851.851 0 0 0 .151.138c.012 0-.04-.062-.113-.138a.853.853 0 0 0-.153-.136c-.01 0 .041.062.115.136Zm-1.157.372c.106.108.202.195.212.195.012 0-.066-.087-.173-.195a1.722 1.722 0 0 0-.212-.196c-.01 0 .067.09.174.196Zm4.643-.02c-.096.097-.165.177-.153.177.01 0 .096-.08.191-.176.096-.097.165-.177.154-.177-.011 0-.097.08-.192.177ZM27 29.704c.096.102.18.185.186.185.03 0-.001-.035-.175-.197l-.185-.174.174.186Zm-4.214.323c0 .215.006.298.014.184a3.64 3.64 0 0 0 0-.391c-.008-.102-.014-.008-.014.207Zm6.517-.265c.092.008.242.008.333 0 .093-.008.016-.016-.166-.016-.184 0-.259.008-.167.016Zm6.445 0c.06.01.148.008.195-.002.05-.008 0-.016-.108-.016-.106.001-.146.009-.087.018Zm-9.883.287c0 .13-.017.275-.04.322-.04.082-.04.082.018.01.057-.071.093-.57.042-.57-.01 0-.02.108-.02.238Zm3.32.533c.069.01.192.01.274.002.081-.01.025-.017-.127-.017-.15 0-.217.008-.148.015Zm6.544 0c.069.01.184.01.254 0 .07-.007.012-.015-.127-.015-.14 0-.198.008-.127.015ZM14.398 41.963c5.23.005 13.79.005 19.02 0s.95-.01-9.51-.01c-10.461 0-14.74.005-9.51.01Z"
        clip-rule="evenodd"
    />
</svg>
