<svg xmlns="http://www.w3.org/2000/svg" width="48" height="48" fill="none" viewBox="0 0 48 48">
    <path
        fill="#107B10"
        d="M22.006 43.918c-3.082-.295-6.201-1.402-8.88-3.148-2.246-1.464-2.753-2.067-2.753-3.267 0-2.414 2.655-6.641 7.197-11.458 2.578-2.737 6.171-5.943 6.56-5.856.755.169 6.794 6.056 9.057 8.827 3.574 4.382 5.217 7.971 4.382 9.57-.635 1.216-4.574 3.594-7.467 4.507-2.384.752-5.517 1.072-8.096.825ZM7.34 34.993c-1.865-2.86-2.808-5.677-3.263-9.752-.15-1.344-.098-2.113.34-4.876.546-3.438 2.506-7.42 4.864-9.869 1.003-1.04 1.092-1.068 2.316-.655 1.483.502 3.068 1.597 5.528 3.82l1.436 1.299-.785.96c-3.64 4.466-7.48 10.799-8.926 14.716-.786 2.129-1.103 4.265-.763 5.155.228.6.019.378-.748-.797Zm32.755.487c.184-.9-.05-2.55-.595-4.218-1.184-3.607-5.14-10.32-8.771-14.883l-1.144-1.436 1.238-1.135c1.614-1.483 2.735-2.37 3.946-3.125.955-.594 2.319-1.12 2.906-1.12.361 0 1.635 1.324 2.663 2.764 1.591 2.23 2.761 4.94 3.354 7.755.384 1.822.416 5.715.063 7.532-.293 1.49-.907 3.422-1.502 4.734-.451.98-1.562 2.889-2.05 3.509-.251.32-.251.32-.111-.37l.003-.007Zm-17.76-26.6c-1.675-.85-4.26-1.763-5.689-2.009a10.41 10.41 0 0 0-1.898-.107c-1.178.06-1.126-.002.764-.895 1.572-.742 2.883-1.178 4.663-1.552 2.002-.42 5.765-.424 7.735-.01 2.128.45 4.632 1.38 6.044 2.249l.42.258-.962-.049c-1.914-.096-4.703.676-7.697 2.132-.903.439-1.687.79-1.744.78-.057-.01-.794-.369-1.637-.797h.001Z"
    />
</svg>
