<svg xmlns="http://www.w3.org/2000/svg" width="48" height="48" fill="none" viewBox="0 0 48 48">
    <path
        fill="#000"
        d="M35.355 42.998H5V5h38v37.998h-2.806C35.862 36.444 31 30.23 26.549 23.753c2.27-3.198 4.574-6.306 6.88-9.589-1.086 0-1.978.034-2.862-.008-1.343-.064-2.345.452-3.11 1.56-1.189 1.664-2.339 3.316-3.625 4.909-1.278-1.665-2.448-3.327-3.681-5.013-.544-.755-1.227-1.34-2.168-1.399-1.178-.072-2.365-.018-3.72-.018 2.344 3.258 4.61 6.399 6.895 9.576a30787.92 30787.92 0 0 1-7.646 10.636c1.034 0 1.858-.034 2.683.005 1.533.077 2.656-.552 3.52-1.804 1.358-1.92 2.683-3.825 4.139-5.68 3.876 5.327 7.82 10.626 11.511 16.075l-.01-.004Z"
    />
</svg>
