<svg xmlns="http://www.w3.org/2000/svg" width="295.93" height="42.896" viewBox="0 0 295.93 42.896">
    <defs>
        <style>
            .cls-1{fill:#e60019}.cls-2{fill:#003985}.cls-3{fill:#f36a10}
        </style>
    </defs>
    <g id="Group_3643" data-name="Group 3643" transform="translate(-27.56 -23.941)">
        <path id="Path_1989" d="M59.107 33.754a10.843 10.843 0 0 1-.665 3.754 10.009 10.009 0 0 1-2.005 3.306 12.094 12.094 0 0 1-3.35 2.552 15.012 15.012 0 0 1-4.72 1.5v.113A10.793 10.793 0 0 1 51.6 46.11a8.089 8.089 0 0 1 2.37 1.921 8.177 8.177 0 0 1 1.458 2.626 10.081 10.081 0 0 1 .5 3.247 12.651 12.651 0 0 1-.921 4.734 10.854 10.854 0 0 1-2.961 4.114 15.167 15.167 0 0 1-5.311 2.9 25.5 25.5 0 0 1-8.01 1.094 26.9 26.9 0 0 1-3.389-.2 28.955 28.955 0 0 1-3.059-.532 23.115 23.115 0 0 1-2.616-.764q-1.182-.436-2.1-.867l1.586-7.39c.463.286 1.025.6 1.69.921a18.637 18.637 0 0 0 2.207.911 17.991 17.991 0 0 0 2.6.68 15.568 15.568 0 0 0 2.857.256 12.658 12.658 0 0 0 4.03-.547 7.213 7.213 0 0 0 2.545-1.414 4.84 4.84 0 0 0 1.345-1.961 6.545 6.545 0 0 0 .389-2.168 5.292 5.292 0 0 0-.448-2.207 4.243 4.243 0 0 0-1.429-1.7 7.206 7.206 0 0 0-2.5-1.084 15.584 15.584 0 0 0-3.65-.374h-3.55l1.473-6.986H41.1a15.276 15.276 0 0 0 3.68-.4 8.857 8.857 0 0 0 2.783-1.168 5.422 5.422 0 0 0 1.778-1.892 5.22 5.22 0 0 0 .616-2.567 4.58 4.58 0 0 0-.315-1.719 3.53 3.53 0 0 0-1.01-1.384 5.116 5.116 0 0 0-1.788-.941 9 9 0 0 0-2.685-.345 17.345 17.345 0 0 0-4.951.665 28.006 28.006 0 0 0-3.852 1.414l1.586-7.39c.483-.153 1.044-.325 1.69-.507s1.389-.36 2.237-.532 1.788-.315 2.828-.434a31.786 31.786 0 0 1 3.434-.172 16.708 16.708 0 0 1 5.34.764 10.669 10.669 0 0 1 3.724 2.079 8.236 8.236 0 0 1 2.192 3.1 10.212 10.212 0 0 1 .72 3.863z" class="cls-1" data-name="Path 1989"/>
        <path id="Path_1990" d="M50.753 35.014H34.964l1.355-6.38h15.789z" class="cls-2" data-name="Path 1990" transform="translate(29.079 18.427)"/>
        <path id="Path_1991" d="M81.259 40.822a30.3 30.3 0 0 1-.665 6.365 25.41 25.41 0 0 1-2.005 5.843 21.931 21.931 0 0 1-3.394 5.025 20.326 20.326 0 0 1-4.833 3.926 24.472 24.472 0 0 1-6.34 2.567 31.25 31.25 0 0 1-7.877.926H39.4l8.808-41.392h14.547a23.754 23.754 0 0 1 8.01 1.237 16.37 16.37 0 0 1 5.784 3.453 14.125 14.125 0 0 1 3.522 5.281 18.71 18.71 0 0 1 1.188 6.769zm-9.873.719a12.323 12.323 0 0 0-.65-4.138 7.775 7.775 0 0 0-2-3.1 8.922 8.922 0 0 0-3.389-1.951 15.439 15.439 0 0 0-4.848-.675h-4.527L50.4 57.912h5.685a16.408 16.408 0 0 0 6.35-1.172 13.508 13.508 0 0 0 4.823-3.315 14.819 14.819 0 0 0 3.059-5.168 20.083 20.083 0 0 0 1.069-6.716z" class="cls-3" data-name="Path 1991" transform="translate(46.493 .554)"/>
        <path id="Path_1992" d="M81.579 34.218c-.6-.365-1.256-.729-1.976-1.084a17.674 17.674 0 0 0-2.311-.936 20.382 20.382 0 0 0-2.581-.665 15.1 15.1 0 0 0-2.833-.261 7.475 7.475 0 0 0-2.769.448 5.263 5.263 0 0 0-1.788 1.113 3.983 3.983 0 0 0-.956 1.429 4.046 4.046 0 0 0-.286 1.429 4.837 4.837 0 0 0 .3 1.744 5.036 5.036 0 0 0 .956 1.532 10.6 10.6 0 0 0 1.7 1.5q1.057.769 2.557 1.69a33.277 33.277 0 0 1 3.478 2.439 15.277 15.277 0 0 1 2.581 2.631 10.293 10.293 0 0 1 1.616 3.045 11.507 11.507 0 0 1 .552 3.695 13.76 13.76 0 0 1-.276 2.6 12.229 12.229 0 0 1-.936 2.843 11.369 11.369 0 0 1-4.763 5.09 16.557 16.557 0 0 1-4.227 1.631 23.783 23.783 0 0 1-5.759.621 25.987 25.987 0 0 1-3.6-.241 29.751 29.751 0 0 1-3.32-.665 28.393 28.393 0 0 1-2.926-.941 22.058 22.058 0 0 1-2.4-1.064l1.586-8.2a21.794 21.794 0 0 0 2.325 1.468 20.181 20.181 0 0 0 2.626 1.212 17.162 17.162 0 0 0 2.851.805 15.034 15.034 0 0 0 2.971.291 9.42 9.42 0 0 0 2.8-.36 5.061 5.061 0 0 0 1.877-1 3.689 3.689 0 0 0 1.039-1.473 5.006 5.006 0 0 0 .32-1.788 4.628 4.628 0 0 0-.305-1.719 4.453 4.453 0 0 0-1-1.473 11.881 11.881 0 0 0-1.833-1.473q-1.138-.761-2.788-1.714a24.232 24.232 0 0 1-3.2-2.123 13.45 13.45 0 0 1-2.481-2.539 11.193 11.193 0 0 1-1.616-3.114 12.008 12.008 0 0 1-.576-3.828 12.94 12.94 0 0 1 .892-4.7 11.4 11.4 0 0 1 2.8-4.128 14.129 14.129 0 0 1 4.862-2.926 20.033 20.033 0 0 1 7.06-1.113 28.5 28.5 0 0 1 3.291.187 30.33 30.33 0 0 1 3.03.507c.961.212 1.867.448 2.714.719s1.616.547 2.311.837z" class="cls-2" data-name="Path 1992" transform="translate(94.462)"/>
        <path id="Path_1993" d="M86.827 34.682a9.15 9.15 0 0 1-.966 4.183 8.36 8.36 0 0 1-3.237 3.291 19.238 19.238 0 0 1-6.015 2.182 49.9 49.9 0 0 1-9.355.877.975.975 0 0 0-.059.305v.28a5.8 5.8 0 0 0 .291 1.788 4.076 4.076 0 0 0 1 1.616 5.148 5.148 0 0 0 1.862 1.168 8 8 0 0 0 2.887.448 15.3 15.3 0 0 0 2.266-.187 19.976 19.976 0 0 0 2.5-.547 25.953 25.953 0 0 0 2.527-.867 19.134 19.134 0 0 0 2.32-1.113l-1.414 6.813a19.1 19.1 0 0 1-2.049.9 25.39 25.39 0 0 1-2.5.778 23.718 23.718 0 0 1-2.857.547 22.917 22.917 0 0 1-3.1.2 15.112 15.112 0 0 1-5.744-.98 10.96 10.96 0 0 1-3.941-2.641 10.238 10.238 0 0 1-2.261-3.882 15.193 15.193 0 0 1-.724-4.734 20.6 20.6 0 0 1 1.256-7.188 18.237 18.237 0 0 1 3.577-5.976A17.055 17.055 0 0 1 76 26.337a15.545 15.545 0 0 1 4.961.695 9.49 9.49 0 0 1 3.35 1.862 7.187 7.187 0 0 1 1.907 2.67 8.249 8.249 0 0 1 .609 3.118zm-8.69.113a2.286 2.286 0 0 0-.793-1.774 3.241 3.241 0 0 0-2.237-.709 5.618 5.618 0 0 0-2.439.552 7.526 7.526 0 0 0-2.138 1.512 9.208 9.208 0 0 0-1.66 2.311 12.156 12.156 0 0 0-1.039 2.9q5.195.059 7.754-1.182a3.906 3.906 0 0 0 2.552-3.605z" class="cls-2" data-name="Path 1993" transform="translate(120.506 9.408)"/>
        <path id="Path_1994" d="M88.737 35.17a9.3 9.3 0 0 0-2.537-1.3 10.028 10.028 0 0 0-3.38-.552 7.474 7.474 0 0 0-3.808.985 9.508 9.508 0 0 0-2.887 2.537 11.741 11.741 0 0 0-1.825 3.498 12.314 12.314 0 0 0-.631 3.813 6.821 6.821 0 0 0 1.384 4.587 5.169 5.169 0 0 0 4.158 1.616 9.691 9.691 0 0 0 1.8-.172 13.937 13.937 0 0 0 1.862-.473 18.9 18.9 0 0 0 1.774-.68 12.944 12.944 0 0 0 1.553-.809l-1.419 6.986a19.687 19.687 0 0 1-4.181 1.571 18.11 18.11 0 0 1-4.449.562 13.281 13.281 0 0 1-5.064-.892 9.953 9.953 0 0 1-3.65-2.512 10.533 10.533 0 0 1-2.207-3.852 15.629 15.629 0 0 1-.739-4.922 20.535 20.535 0 0 1 .567-4.838 19.51 19.51 0 0 1 1.631-4.429 18.155 18.155 0 0 1 2.641-3.838 16.567 16.567 0 0 1 3.606-3.035 17.69 17.69 0 0 1 4.5-1.976 19.223 19.223 0 0 1 5.325-.709 18.457 18.457 0 0 1 2.512.163 18.26 18.26 0 0 1 2.163.4 13.171 13.171 0 0 1 1.734.547 10.5 10.5 0 0 1 1.212.562z" class="cls-2" data-name="Path 1994" transform="translate(145.007 9.408)"/>
        <path id="Path_1995" d="M98.482 46.236c-.163.872-.32 1.774-.463 2.7s-.271 1.838-.379 2.7-.192 1.68-.261 2.444-.123 1.419-.158 1.976l-9.237.094c.054-.562.113-1.128.172-1.7s.128-1.123.2-1.636.133-.966.187-1.37.089-.695.108-.872h-.118a20.69 20.69 0 0 1-2.384 2.591 16.338 16.338 0 0 1-2.665 2.005 13.649 13.649 0 0 1-2.872 1.31 10.027 10.027 0 0 1-3.01.493A7.21 7.21 0 0 1 72.027 55a8.093 8.093 0 0 1-1.951-5.71 10.778 10.778 0 0 1 .079-1.158c.049-.483.118-.98.2-1.5l.241-1.517c.078-.492.163-.911.237-1.256l3.439-17.124 9.178-.089-3.383 16.713c-.074.31-.143.636-.207.985s-.118.685-.163 1.01-.084.626-.108.9-.039.483-.039.636a2.925 2.925 0 0 0 .714 2.03 2.6 2.6 0 0 0 2.03.744 5.385 5.385 0 0 0 2.793-.837 9.682 9.682 0 0 0 2.429-2.128 14.162 14.162 0 0 0 1.862-2.936 13.66 13.66 0 0 0 1.108-3.242l2.838-13.971 9.208-.094z" class="cls-2" data-name="Path 1995" transform="translate(166.944 9.855)"/>
        <path id="Path_1996" d="M100.475 35.461h-.059a7.9 7.9 0 0 0-1.547-.576 6.571 6.571 0 0 0-1.744-.261 6.143 6.143 0 0 0-3.059.764 8.2 8.2 0 0 0-2.394 2.064 12.157 12.157 0 0 0-1.75 3.048 22.906 22.906 0 0 0-1.138 3.71l-2.6 12.415h-9.238l4.045-18.849c.192-.906.379-1.838.562-2.8s.355-1.907.517-2.843.31-1.833.434-2.7.227-1.655.305-2.365h9.035c-.059.557-.123 1.133-.187 1.729s-.138 1.172-.2 1.719-.138 1.044-.2 1.488l-.163 1.039h.118a17.451 17.451 0 0 1 3.764-5.01 6.861 6.861 0 0 1 4.577-1.69 7.324 7.324 0 0 1 1.473.148c.483.094.916.172 1.3.232z" class="cls-2" data-name="Path 1996" transform="translate(193.919 9.408)"/>
        <path id="Path_1997" d="M110.405 34.682a9.087 9.087 0 0 1-.966 4.183 8.36 8.36 0 0 1-3.237 3.291 19.192 19.192 0 0 1-6.015 2.182 49.9 49.9 0 0 1-9.355.877.953.953 0 0 0-.054.305v.28a5.8 5.8 0 0 0 .286 1.788 4.132 4.132 0 0 0 1 1.616 5.148 5.148 0 0 0 1.862 1.168 8 8 0 0 0 2.887.448 15.3 15.3 0 0 0 2.266-.187 19.974 19.974 0 0 0 2.5-.547 25.951 25.951 0 0 0 2.527-.867 18.788 18.788 0 0 0 2.32-1.113l-1.414 6.813a19.1 19.1 0 0 1-2.049.9 25.393 25.393 0 0 1-2.5.778 23.717 23.717 0 0 1-2.857.547 22.917 22.917 0 0 1-3.1.2 15.13 15.13 0 0 1-5.744-.98 10.94 10.94 0 0 1-3.936-2.641 10.248 10.248 0 0 1-2.266-3.882 15.192 15.192 0 0 1-.724-4.734 20.6 20.6 0 0 1 1.256-7.188 18.165 18.165 0 0 1 3.582-5.976 17.034 17.034 0 0 1 12.917-5.6 15.545 15.545 0 0 1 4.961.695 9.49 9.49 0 0 1 3.35 1.862 7.187 7.187 0 0 1 1.907 2.67 8.25 8.25 0 0 1 .596 3.112zm-8.69.113a2.27 2.27 0 0 0-.793-1.774 3.241 3.241 0 0 0-2.237-.709 5.618 5.618 0 0 0-2.439.552 7.525 7.525 0 0 0-2.138 1.512 9.208 9.208 0 0 0-1.66 2.311 12.154 12.154 0 0 0-1.039 2.9q5.2.059 7.754-1.182a3.905 3.905 0 0 0 2.552-3.605z" class="cls-2" data-name="Path 1997" transform="translate(213.084 9.408)"/>
    </g>
</svg>
