<svg xmlns="http://www.w3.org/2000/svg" width="242.832" height="81.603" viewBox="0 0 242.832 81.603">
    <defs>
        <style>
            .cls-1{fill:#4d4f53}.cls-2{fill:#8b8d8e}.cls-3{fill:#002663}
        </style>
    </defs>
    <g id="Group_3636" data-name="Group 3636" transform="translate(-288.87 -270)">
        <g id="Group_3635" data-name="Group 3635" transform="translate(288.872 292.29)">
            <path id="Path_1948" d="M288.872 325.616l6.136-3.222c2.726 5.39 6.941 7.994 12.642 7.994 5.578 0 9.359-1.8 9.359-5.95 0-3.967-2.849-5.826-10.412-8.057-8.863-2.6-15.99-5.019-15.99-13.759 0-7.808 6.384-12.953 15.681-12.953 9.047 0 14.377 4.464 17.167 9.854l-5.641 3.907a12.682 12.682 0 0 0-11.589-6.695c-5.083 0-8 1.861-8 5.206 0 4.279 3.285 5.7 10.784 7.934 8.677 2.542 15.618 5.393 15.618 14.009 0 7.5-6.383 13.386-17.291 13.386-9.106-.003-15.552-4.715-18.464-11.654zm41.4 2.849c0-7.128 6.076-11.9 21.445-13.635v-.992c0-3.284-1.734-4.709-5.39-4.709-4.588 0-8.307 2.232-11.095 4.462l-3.719-4.773a23.574 23.574 0 0 1 15.866-5.95c8.8 0 11.837 4.215 11.837 11.9v13.573c0 3.967.248 6.384.931 8.056h-7.685a11.939 11.939 0 0 1-.745-4.214c-3.347 3.41-7.25 4.71-12.148 4.71-5.329.002-9.296-2.973-9.296-8.428zm21.445-1.237v-7.251c-9.111 1.239-13.944 3.47-13.944 7.064 0 2.6 1.8 3.966 4.587 3.966a13.144 13.144 0 0 0 9.358-3.78zm20.019 9.171v-26.836h-5.7v-6.076h5.7v-3.345c0-5.516 2.294-9.792 10.662-9.792 1.426 0 3.967.247 4.523.309v5.887a14.183 14.183 0 0 0-2.6-.247c-2.725 0-4.957.745-4.957 4.277v2.91h7.189v6.076h-7.189V336.4zm18.719-16.423c0-12.522 8.863-17.107 15.681-17.107 7.376 0 14.441 4.4 14.441 17.787v1.8h-22.5c.309 5.95 3.967 8.552 8.8 8.552a11.934 11.934 0 0 0 9.235-3.841l4.028 3.966a17.762 17.762 0 0 1-13.821 5.95c-8.239-.002-15.863-5.022-15.863-17.107zm23.118-3.223c-.433-5.021-2.911-7.687-7.5-7.687-3.718 0-7.126 2.108-7.87 7.687z" class="cls-1" data-name="Path 1948" transform="translate(-288.872 -289.667)"/>
            <path id="Path_1949" d="M413.5 336.3v-45.867h5.45v23.676l20.767-23.676h6.569l-15.746 17.479 17.914 28.388h-6.259l-15.245-24.236-8 8.738V336.3zm37.931-16.363c0-11.9 7.934-17.042 14.813-17.042 7.748 0 13.635 5.453 13.635 17.291v1.114h-23.117c.186 7.376 4.462 11.343 9.854 11.343 4.709 0 7.377-1.922 9.855-5.33l3.1 2.726a15.228 15.228 0 0 1-13.324 6.942c-7.747-.002-14.815-5.644-14.815-17.047zm23.364-2.788c-.432-5.827-3.22-9.794-8.616-9.794-4.4 0-8.55 3.039-9.293 9.794zm8.991 30.928l1.238-4.276a18.942 18.942 0 0 0 4.835.556c3.345 0 4.958-1.425 6.257-4.647l1.239-3.223-12.642-32.912h5.641l9.609 26.466h.12l9.609-26.466h5.39l-14.006 36.445c-2.23 5.763-4.773 8.862-11.157 8.862a19.944 19.944 0 0 1-6.133-.809z" class="cls-2" data-name="Path 1949" transform="translate(-272.249 -289.565)"/>
        </g>
        <path id="Path_1950" d="M357.385 273.655c0-2.916-2.568-3.4-5.2-3.4h-8v10.7h4.415v-3.975h.351l3.351 3.975h6.2L354 276.739c2.159-.367 3.385-1.5 3.385-3.084zm-6.166 1.413H348.6v-2.534h2.628c.927 0 1.595.449 1.595 1.28s-.688 1.254-1.603 1.254zm24.8-5.068a12.735 12.735 0 0 1 4.225.591v2.621a13.69 13.69 0 0 0-3.457-.456c-.733 0-4.192.112-4.192 2.934s3.459 2.848 4.192 2.848a14.309 14.309 0 0 0 3.457-.46v2.631a12.9 12.9 0 0 1-4.225.584c-2.311 0-8.311-.623-8.311-5.6s6.005-5.693 8.316-5.693zm-15.634.255h4.673v10.7h-4.668zm-30.448 0h11.014v2.191h-6.139v2h6.139v2.07h-6.139v2.091h6.139v2.344h-11.009zm-34.153 0l-5.474 10.7h4.49l1.01-2.106h5.628l1.009 2.106h4.763l-5.478-10.7zm1.182 6.169l1.654-3.45 1.655 3.45zm28.041-6.169l2.586 10.7h-4.426l-1.461-6.061-2.83 6.061h-2.794l-2.83-6.061-1.461 6.061h-4.153l2.588-10.7h4.739l2.519 5.288 2.516-5.288zm126.016 5.178l4.951 5.518h-5.257l-2.889-3.43-2.886 3.43h-5.262l4.963-5.518-4.462-5.178h5.343l2.3 2.853 2.312-2.853h5.343zm38.645-5.178h11.016v2.191h-6.145v2h6.145v2.07h-6.145v2.091h6.145v2.344h-11.012zm26.269 7.51c0 1.089-.9 3.528-6.339 3.528-4.474 0-5.9-.906-6.852-1.443l1.218-1.912a10.968 10.968 0 0 0 4.4.754c1.138-.016 2.194-.226 2.2-.924.013-.73-.706-.9-2.413-1.034-1.578-.12-4.839-.561-4.862-3.079-.028-2.452 2.36-3.645 6.114-3.645a14.122 14.122 0 0 1 6.295 1.261l-1.513 1.88a9.93 9.93 0 0 0-3.511-.591c-1.154 0-2.332.206-2.332 1s1.22.826 2.095.927a13 13 0 0 1 3.721.67 2.567 2.567 0 0 1 1.783 2.608zm14.837 0c0 1.089-.887 3.528-6.331 3.528-4.479 0-6.109-.906-7.07-1.443l1.433-1.912a10.958 10.958 0 0 0 4.4.754c1.133-.016 2.191-.226 2.2-.924.016-.73-.706-.9-2.414-1.034-1.581-.12-5.051-.561-5.075-3.079-.028-2.452 2.578-3.645 6.319-3.645a14.167 14.167 0 0 1 6.3 1.261l-1.521 1.88a9.869 9.869 0 0 0-3.5-.591c-1.155 0-2.342.206-2.342 1s1.227.826 2.1.927a12.914 12.914 0 0 1 3.716.67 2.567 2.567 0 0 1 1.79 2.608zm-44.262-4.11c0-2.916-2.566-3.4-5.2-3.4h-8v10.7h4.411v-3.975h.355l3.348 3.975h6.2l-4.507-4.213c2.171-.37 3.398-1.503 3.398-3.087zm-6.166 1.413h-2.618v-2.534h2.626c.932 0 1.6.449 1.6 1.28s-.683 1.254-1.603 1.254zm-68.5-4.813h4.41v10.7h-5.075l-6.507-6.036v6.036h-4.413v-10.7h5.022l6.563 6.06zm-24.85 0l-5.477 10.7h4.492l1.007-2.106h5.63l1.011 2.106h4.757l-5.475-10.7zm1.18 6.169l1.659-3.45 1.651 3.45zm38.121-6.169h11.014v2.191h-6.144v2h6.144v2.07h-6.144v2.091h6.144v2.344H426.3zm39.657 0h-7.695v10.7h4.413v-3.8h2.886a8.922 8.922 0 0 0 3.515-.538 3.022 3.022 0 0 0 2.086-2.962c.008-2.916-2.559-3.4-5.197-3.4zm-.961 4.62h-2.32v-2.429h2.329c.924 0 1.589.341 1.589 1.17s-.678 1.259-1.591 1.259z" class="cls-3" data-name="Path 1950" transform="translate(.192)"/>
    </g>
</svg>
