<svg xmlns="http://www.w3.org/2000/svg" width="16" height="16" viewBox="0 0 16 16">
<style>.amex{fill:#006fcf}.white{fill:#fff}</style>
<g><path d="M16 8.65V0H0v16h16v-4.69-2.66" class="amex"/><path d="M16 11.31V8.68H6.19L5.94 9l-.25-.36H2.84v2.81h2.85l.25-.35.25.35H8v-.6h-.11a1.71 1.71 0 0 0 .64-.11v.75h1.28v-.36l.25.36h5.3a2.66 2.66 0 0 0 .64-.18zm-2-3.55h1.21V5H13.9v.39L13.65 5h-1.13v.5L12.3 5H10c-.07 0-.11 0-.18.08a1.22 1.22 0 0 0-.17.07V5h-6l-.18.46-.2-.46H1.85v.5L1.64 5H.5L0 6.16v1.6h.82L1 7.37h.28l.15.39h6.21V7.4l.25.36h1.75v-.22s.1 0 .14.08.1 0 .14.07a.51.51 0 0 0 .21 0h1.28l.15-.39h.28l.14.39h1.74v-.32z" class="white"/><path d="M1.71 7.3h.46l-.82-1.89H.82L0 7.3h.46l.18-.4h.92l.15.4zM1 6.12l.14-.39.14.39.18.43H.78L1 6.12zM3.27 7.3h.39l.54-1.53V7.3h.42V5.41h-.71l-.43 1.28-.42-1.28h-.71V7.3h.42V5.77l.5 1.53zm3.24-1.5v-.39H5V7.3h1.5v-.4H5.44v-.39h1v-.39h-1v-.35h1.07zm.78.82h.21l.57.68h.53L8 6.58A.57.57 0 0 0 8.46 6a.59.59 0 0 0-.64-.61h-1V7.3h.42zm.53-.82a.22.22 0 0 1 .25.2c0 .1-.07.21-.25.21h-.53v-.44zm.93 1.5h.42V5.45h-.42zm1.6 0l.17-.4h-.1a.48.48 0 0 1-.5-.53.48.48 0 0 1 .5-.54h.46v-.42h-.5a.85.85 0 0 0-.89.93.83.83 0 0 0 .86.96zm2 0h.46L12 5.41h-.57L10.6 7.3h.46l.18-.4h.92zm-.75-1.18l.14-.39.15.39.17.43h-.64zm1.85 0l.75 1.14h.53V5.41h-.43v1.25l-.1-.18-.68-1.07h-.57V7.3h.43V6zM4.8 9.5v-.39H3.31V11H4.8v-.4H3.73v-.39h1v-.39h-1v-.36H4.8zM6.4 11h.53l-.74-1 .74-.92H6.4l-.46.6-.46-.6h-.54l.75.92-.75 1h.54l.46-.61zM7 9.11V11h.43v-.64H8a.64.64 0 1 0 0-1.28zm1.24.64A.22.22 0 0 1 8 10h-.53v-.5H8a.25.25 0 0 1 .28.25zm1.14.57h.22l.56.67h.54l-.64-.71a.57.57 0 0 0 .5-.57.59.59 0 0 0-.64-.6H9V11h.43zM10 9.5a.22.22 0 1 1 0 .43h-.58v-.47zm2.41 0v-.39h-1.53V11h1.49v-.4h-1.06v-.39h1v-.39h-1v-.36h1.06zm1.25 1.14h-1V11h.92a.59.59 0 0 0 .64-.61c0-.35-.21-.53-.57-.53h-.42a.17.17 0 0 1-.18-.18.17.17 0 0 1 .18-.17H14l.18-.4h-1a.58.58 0 0 0-.64.57.5.5 0 0 0 .57.54h.43a.17.17 0 0 1 .18.17.17.17 0 0 1-.1.25zm1.74 0h-1V11h.92a.59.59 0 0 0 .64-.61.49.49 0 0 0-.56-.53H15a.17.17 0 0 1-.18-.18.17.17 0 0 1 .18-.14h.82l.17-.4H15a.58.58 0 0 0-.64.57.5.5 0 0 0 .57.54h.43a.17.17 0 0 1 .18.17c.03.15-.04.22-.18.22z" class="amex"/></g></svg>

