<svg xmlns="http://www.w3.org/2000/svg" width="16" height="16" viewBox="0 0 16 16">
<style>.dc1{fill:#004a98}.dc2{fill:#231f20}.white{fill:#fff}</style>
<path d="M15.91 12.72a1.06 1.06 0 0 1-1.07 1H1.16a1.06 1.06 0 0 1-1.07-1V3.28a1.06 1.06 0 0 1 1.07-1h13.68a1.06 1.06 0 0 1 1.07 1z" class="white"/><path d="M.18 3.28v9.44a1 1 0 0 0 1 1h13.66a1 1 0 0 0 1-1V3.28a1 1 0 0 0-1-1H1.16a1 1 0 0 0-1 1m1 10.58A1.14 1.14 0 0 1 0 12.72V3.28a1.14 1.14 0 0 1 1.16-1.14h13.68A1.14 1.14 0 0 1 16 3.28v9.44a1.14 1.14 0 0 1-1.16 1.14z" class="dc1"/><path d="M1.83 10.56c0 .23.16.25.3.25a.8.8 0 0 0 .87-.9.86.86 0 0 0-.95-.91h-.22zm-.29-1.35C1.54 9 1.41 9 1.28 9v-.11h.84a1.05 1.05 0 0 1 1.15 1c0 .29-.17 1-1.19 1h-.8v-.07c.17 0 .26 0 .26-.22zM3.68 9.14A.14.14 0 0 1 3.54 9a.15.15 0 0 1 .14-.14.14.14 0 0 1 .14.14.14.14 0 0 1-.14.14m-.31 1.69c.09 0 .14 0 .14-.1V10c0-.12 0-.14-.15-.2l.31-.11v1.1c0 .1.07.1.15.1H4v.07h-.63zM4.26 10c0-.11 0-.13-.17-.19l.38-.14v.13A.89.89 0 0 1 5 9.59c.24 0 .33.18.33.4v.74c0 .1.06.1.14.1h.06v.07H4.9v-.07H5c.08 0 .14 0 .14-.1V10c0-.17-.1-.25-.27-.25a.84.84 0 0 0-.33.14v.85c0 .1.06.1.14.1h.06v.07h-.67v-.07c.08 0 .14 0 .14-.1zM6.24 10c.08 0 .08 0 .08-.08a.24.24 0 0 0-.25-.26c-.17 0-.29.13-.33.34zm-.51.09v.17a.48.48 0 0 0 .43.49.54.54 0 0 0 .39-.19.69.69 0 0 1-.54.33c-.45 0-.55-.45-.55-.63a.64.64 0 0 1 .59-.73.45.45 0 0 1 .48.45v.05zM6.64 10.83h.08c.08 0 .13 0 .13-.1v-.81c0-.08-.1-.1-.15-.12v-.05c.21-.09.33-.16.36-.16v.25c.07-.11.19-.29.37-.29a.16.16 0 0 1 .16.15.14.14 0 0 1-.13.15c-.09 0-.09-.07-.2-.07a.24.24 0 0 0-.21.24v.67c0 .1.06.1.14.1h.16v.07h-.71zM7.75 10.5a.38.38 0 0 0 .36.36.2.2 0 0 0 .23-.21c0-.34-.62-.23-.62-.69a.39.39 0 0 1 .44-.37.72.72 0 0 1 .33.08v.3h-.05a.29.29 0 0 0-.31-.29.2.2 0 0 0-.22.19c0 .34.66.23.66.69 0 .19-.15.39-.49.39a.71.71 0 0 1-.35-.1v-.33zM11.17 9.42h-.07a.54.54 0 0 0-.61-.48.82.82 0 0 0-.82.92.94.94 0 0 0 .86 1 .59.59 0 0 0 .58-.5h.07l-.07.42a1.55 1.55 0 0 1-.64.16 1 1 0 0 1-1.1-1.09 1.06 1.06 0 0 1 1.1-1 2.24 2.24 0 0 1 .67.15zM11.28 10.83h.05c.08 0 .14 0 .14-.1v-1.6c0-.19 0-.19-.15-.22v-.05l.29-.12h.07v2c0 .1.06.1.14.1h.05v.07h-.61zM13.13 10.75c0 .05 0 .05.08.05h.11v.06a2.34 2.34 0 0 0-.41.09v-.23a.76.76 0 0 1-.51.24.31.31 0 0 1-.31-.35v-.74c0-.08 0-.15-.18-.16v-.06h.37v.83c0 .08 0 .33.25.33a.69.69 0 0 0 .35-.17v-.8c0-.06-.14-.09-.25-.12v-.05h.45zM13.7 10.58a.3.3 0 0 0 .3.29c.3 0 .43-.3.43-.56a.55.55 0 0 0-.43-.57.45.45 0 0 0-.27.14zm0-.78a.7.7 0 0 1 .43-.21.56.56 0 0 1 .53.6.73.73 0 0 1-.66.81.9.9 0 0 1-.4-.1l-.08.06h-.06a4.38 4.38 0 0 0 0-.51V9.13c0-.19-.05-.19-.15-.22v-.05l.29-.12h.07zM1.28 12.58c.05 0 .11 0 .11-.09v-.82c0-.08-.06-.09-.11-.09v-.05h.47v.05c-.05 0-.11 0-.11.09v.82c0 .08.06.09.11.09v.05h-.47z" class="dc2"/><path d="M1.75 12.62c-.05 0-.12 0-.12-.1v-.82c0-.09.07-.1.12-.1h-.47c.05 0 .12 0 .12.1v.82c0 .09-.07.1-.12.1h.47m0 0h-.48v-.05c.06 0 .11 0 .11-.08v-.82c0-.08 0-.08-.11-.08v-.06h.49v.06c-.05 0-.11 0-.11.08v.82c0 .08.06.08.11.08v.05zM2.83 12.32v-.58c0-.13-.09-.15-.13-.15v-.05h.41v.05c-.06 0-.14 0-.14.2v.71a.81.81 0 0 0 0 .16h-.11l-.8-.9v.64c0 .14 0 .19.14.19v.05h-.39v-.05c.1 0 .14-.08.14-.2v-.66a.14.14 0 0 0-.15-.14v-.05h.32z" class="dc2"/><path d="M2.83 12.31zm0 0zm0 .32h.05v-.86c0-.19.07-.21.14-.21h-.4s.14 0 .14.16v.59l-.7-.79h-.24a.15.15 0 0 1 .15.15v.66c0 .12 0 .2-.14.21h.4c-.12 0-.15-.06-.15-.2v-.66zm.06 0h-.03l-.8-.88v.62c0 .14 0 .18.14.18v.05h-.39v-.06c.1 0 .13-.07.13-.19v-.66a.13.13 0 0 0-.14-.13v-.06h.33l.69.77v-.57c0-.13-.09-.14-.13-.14v-.06h.42v.06c-.06 0-.13 0-.13.19v.71a.81.81 0 0 0 0 .16zM3.31 11.61c-.12 0-.12 0-.15.14a.59.59 0 0 1 0-.13v-.13h.99a.51.51 0 0 0 0 .13v.12H4.1c0-.06 0-.15-.12-.15h-.21v.83c0 .12 0 .14.13.14v.05h-.49v-.05c.08 0 .13 0 .13-.13v-.84z" class="dc2"/><path d="M3.93 12.63H3.4v-.06c.08 0 .12 0 .12-.12v-.83.85c0 .12 0 .14-.13.14h.51c-.08 0-.14 0-.14-.15v-.86H4c.11 0 .12.09.13.15v-.12-.13h-.95a.53.53 0 0 1 0 .13v.13c0-.11 0-.15.15-.15-.12 0-.11 0-.14.13h-.08v-.13a.62.62 0 0 0 0-.13h.97v.13a.49.49 0 0 0 0 .12h-.06c0-.06 0-.14-.11-.14h-.14v.82c0 .12 0 .13.13.13v.05zM4.26 12.58c.06 0 .12 0 .12-.09v-.82c0-.08-.06-.09-.12-.09v-.05h.79v.24H5c0-.1 0-.18-.19-.18H4.6V12h.18c.1 0 .12 0 .13-.14H5v.37c0-.09 0-.15-.13-.15H4.6v.36c0 .11.09.11.19.11s.27 0 .32-.19a1.84 1.84 0 0 0-.05.25h-.8z" class="dc2"/><path d="M5.09 12.62a2 2 0 0 1 0-.24c-.05.18-.14.19-.32.19s-.2 0-.2-.11v-.37h.19c.11 0 .12.07.13.16H5a1 1 0 0 1 0-.17 1.09 1.09 0 0 1 0-.18c0 .08 0 .14-.13.14h-.28v-.43h.22c.17 0 .19.09.2.19H5v-.23h-.74c.06 0 .12 0 .12.1v.82c0 .09-.06.09-.12.1h.83m0 0h-.84v-.05c.06 0 .11 0 .11-.08v-.82c0-.08 0-.08-.11-.08v-.06h.81a.22.22 0 0 0 0 .08v.16H5c0-.1 0-.17-.19-.17H4.6V12h.18c.09 0 .11 0 .12-.13H5v.36h-.1c0-.1 0-.15-.12-.15H4.6v.35c0 .1.08.1.19.1s.26 0 .31-.19h.06l-.06.25zM5.56 12.06h.08c.15 0 .24-.06.24-.24a.22.22 0 0 0-.23-.23h-.09zm-.2-.36c0-.12-.06-.12-.11-.12v-.05h.5c.19 0 .37.05.37.28a.3.3 0 0 1-.22.27l.27.4a.16.16 0 0 0 .15.1v.05H6c-.12-.16-.22-.33-.33-.51h-.1v.33c0 .12.06.13.13.13v.05h-.5v-.05c.06 0 .11 0 .11-.09z" class="dc2"/><path d="M5.64 12.05c.15 0 .23-.05.23-.23a.21.21 0 0 0-.22-.23h-.08v.45zm-.08 0v-.48h.1a.23.23 0 0 1 .24.24.22.22 0 0 1-.25.25zm0 0h.11a4.39 4.39 0 0 0 .32.51h.29c-.07 0-.1 0-.15-.09l-.27-.41a.3.3 0 0 0 .21-.27c0-.22-.17-.27-.36-.27h-.48s.12 0 .12.13v.79c0 .07-.06.1-.12.1h.48c-.07 0-.14 0-.14-.14v-.34zm.73.52H6a4.39 4.39 0 0 1-.32-.51h-.11v.33c0 .12 0 .12.12.12v.05h-.48v-.06c.06 0 .1 0 .1-.08v-.72c0-.11 0-.11-.1-.11v-.06h.51c.19 0 .38.06.38.29a.31.31 0 0 1-.22.28l.26.39a.18.18 0 0 0 .15.09v.05zM7.35 12.32v-.58a.13.13 0 0 0-.14-.15v-.05h.39v.05c-.07 0-.14 0-.14.2v.71a.81.81 0 0 0 0 .16h-.07l-.81-.9v.64c0 .14 0 .19.15.19v.05h-.39v-.05c.11 0 .14-.08.14-.2v-.66a.14.14 0 0 0-.14-.14v-.05h.32z" class="dc2"/><path d="M7.35 12.31zm0 0zm0 .32h.05a.76.76 0 0 1 0-.15v-.71c0-.19.08-.21.15-.21h-.4s.14 0 .14.16v.59l-.69-.79h-.26a.15.15 0 0 1 .15.15v.66c0 .12 0 .2-.15.21h.41c-.13 0-.16-.06-.16-.2v-.66zm.06 0h-.03l-.79-.88v.62c0 .14 0 .18.14.18v.05h-.4v-.06c.1 0 .13-.07.13-.19v-.66a.13.13 0 0 0-.13-.13v-.06h.33l.69.77v-.57c0-.13-.08-.14-.13-.14v-.06h.43v.06c-.07 0-.14 0-.14.19v.71a.81.81 0 0 0 0 .16zM8.08 11.71l-.15.44h.29zm-.23.69v.12c0 .02.06.06.11.06H8v.05h-.41v-.05a.16.16 0 0 0 .14-.1l.27-.72a1.52 1.52 0 0 0 .06-.2 1 1 0 0 0 .14-.06l.29.82a1 1 0 0 0 .05.16.11.11 0 0 0 .11.06v.05h-.42v-.05s.1 0 .1-.05a.36.36 0 0 0 0-.11l-.06-.18H7.9z" class="dc2"/><path d="M8.07 11.71zm-.13.43h.27l-.13-.42zm0 0l.15-.46.15.46zm.32.46h.44a.11.11 0 0 1-.11-.07l-.06-.16-.29-.82a.45.45 0 0 1-.14.06 1.46 1.46 0 0 1-.05.2l-.26.72a.14.14 0 0 1-.14.11h.34s-.12 0-.12-.07a1 1 0 0 1 0-.12l.06-.17h.36l.06.19a.51.51 0 0 1 0 .11c0 .05-.07.05-.11.06zm.45 0h-.48v-.06h.09a.36.36 0 0 0 0-.11l-.06-.18h-.35v.16a.79.79 0 0 0 0 .12s.06.05.11.05H8v.05h-.41v-.06a.13.13 0 0 0 .13-.1l.28-.72a1.06 1.06 0 0 0 0-.19l.15-.07.29.82a1.38 1.38 0 0 0 .06.16.1.1 0 0 0 .1.06v.05zM8.76 11.61c-.12 0-.13 0-.15.14a.59.59 0 0 0 0-.13.57.57 0 0 0 0-.13h.98v.13a.49.49 0 0 0 0 .12c0-.06 0-.15-.12-.15h-.26v.83c0 .12.06.14.13.14v.05h-.49v-.05c.09 0 .13 0 .13-.13v-.84z" class="dc2"/><path d="M9.37 12.63h-.52v-.06c.09 0 .12 0 .12-.12v-.83H9v.85c0 .12 0 .13-.14.14h.51c-.07 0-.13 0-.13-.15v-.86h.26c.1 0 .12.09.12.15v-.12-.12H8.71a.08.08 0 0 1-.09 0v.26c0-.11 0-.15.16-.15-.12 0-.12 0-.14.13h-.08v-.13a.62.62 0 0 0 0-.13h1.08v.25h-.05c0-.06 0-.14-.11-.14h-.26v.82c0 .12 0 .13.12.13v.05zM9.71 12.58c.06 0 .12 0 .12-.09v-.82c0-.08-.06-.09-.12-.09v-.05h.48v.05c-.06 0-.12 0-.12.09v.82c0 .08.06.09.12.09v.05h-.48z" class="dc2"/><path d="M10.18 12.62c-.06 0-.13 0-.13-.1v-.82c0-.09.07-.1.13-.1h-.46c.06 0 .12 0 .12.1v.82c0 .09-.06.1-.12.1h.46m0 0H9.7v-.05c.06 0 .11 0 .11-.08v-.82c0-.08-.05-.08-.11-.08v-.06h.49v.06c-.06 0-.11 0-.11.08v.82c0 .08 0 .08.11.08v.05zM10.84 12.58c.3 0 .35-.27.35-.5s-.12-.5-.38-.5-.36.24-.36.45.13.55.39.55m0-1.07a.55.55 0 0 1 .6.54.58.58 0 0 1-.59.6.55.55 0 0 1-.58-.56.57.57 0 0 1 .57-.58" class="dc2"/><path d="M10.45 12c0-.21.08-.46.36-.46s.39.28.39.51 0 .51-.36.51c.29 0 .35-.26.35-.49s-.13-.5-.38-.5-.35.24-.35.45.13.54.38.54c-.26 0-.39-.28-.39-.56m-.22.06a.58.58 0 0 1 .58-.59.57.57 0 0 0-.57.58.54.54 0 0 0 .58.55.57.57 0 0 0 .59-.59.56.56 0 0 0-.6-.54.56.56 0 0 1 .61.55.59.59 0 0 1-.6.61.57.57 0 0 1-.59-.57" class="dc2"/><path d="M12.47 12.32v-.58c0-.13-.09-.15-.13-.15v-.05h.41v.05c-.07 0-.14 0-.14.2v.71a.81.81 0 0 0 0 .16h-.11l-.81-.9v.64c0 .14 0 .19.15.19v.05h-.42v-.05c.11 0 .15-.08.15-.2v-.66a.14.14 0 0 0-.15-.14v-.05h.32z" class="dc2"/><path d="M12.47 12.31zm0 0zm0 .32h.05v-.86c0-.19.08-.21.15-.21h-.4a.14.14 0 0 1 .14.16v.59l-.7-.79h-.31a.15.15 0 0 1 .15.15v.66c0 .12 0 .2-.15.21h.4c-.12 0-.15-.06-.15-.2v-.66zm.06 0h-.03l-.8-.88v.62c0 .14 0 .18.14.18v.05h-.42v-.06c.11 0 .14-.07.14-.19v-.66a.13.13 0 0 0-.14-.13v-.06h.33l.69.77v-.57c0-.13-.09-.14-.13-.14h-.05v-.06h.43v.06c-.06 0-.13 0-.13.19v.71a.81.81 0 0 0 0 .16zM13.19 11.71l-.14.44h.29zm-.19.69a.54.54 0 0 0 0 .12c0 .05.07.06.12.06v.05h-.36v-.05a.14.14 0 0 0 .13-.1l.25-.72a1.52 1.52 0 0 0 .06-.2 1 1 0 0 0 .14-.06l.29.82.06.16a.1.1 0 0 0 .1.06v.05h-.45v-.05s.09 0 .09-.05a.36.36 0 0 0 0-.11l-.06-.18H13z" class="dc2"/><path d="M13.19 11.71zm-.14.43h.28l-.14-.42zm0 0l.15-.46.15.46zm.32.46h.43a.12.12 0 0 1-.11-.07l-.06-.16-.28-.82-.14.06a1.52 1.52 0 0 1-.06.2l-.25.72a.15.15 0 0 1-.14.11h.35c-.05 0-.12 0-.13-.07a.41.41 0 0 1 0-.12v-.17h.37l.06.19a.36.36 0 0 1 0 .11c0 .05-.07.05-.1.06zm.44 0h-.46v-.06h.09v-.11l-.06-.18H13v.28c0 .02.06.05.11.05v.05h-.41v-.06a.14.14 0 0 0 .13-.1l.25-.72a1.06 1.06 0 0 0 .06-.19l.14-.07.29.82a1.56 1.56 0 0 0 0 .16.1.1 0 0 0 .1.06v.05z" class="dc2"/><path d="M14.2 12.47c0 .06 0 .08.09.09h.21a.26.26 0 0 0 .15-.09.54.54 0 0 0 0-.11l-.06.27h-.82v-.05s.11 0 .11-.11v-.8c0-.08-.06-.09-.11-.09v-.05h.48v.05c-.06 0-.1 0-.1.08z" class="dc2"/><path d="M14.68 12.62c0-.09 0-.17.05-.25a.34.34 0 0 1 0 .11.24.24 0 0 1-.15.08h-.21s-.1 0-.1-.1v-.81c0-.08.05-.09.11-.09h-.47s.12 0 .12.1v.8a.11.11 0 0 1-.12.12h.82m0 0h-.83v-.06s.11 0 .11-.1v-.8c0-.08-.06-.08-.11-.08v-.06h.5v.06c-.06 0-.1 0-.1.07v.81c0 .06 0 .08.09.08h.21a.22.22 0 0 0 .14-.08.34.34 0 0 0 0-.11h.06l-.06.27zM14.69 11.65zm0 .09v-.13h.08a.06.06 0 0 1 .06 0 .07.07 0 0 1 0 .05l-.06-.08v.06zm.08 0a.13.13 0 0 0 .13-.14.13.13 0 0 0-.13-.13.13.13 0 0 0-.13.13.14.14 0 0 0 .13.14m0-.3a.16.16 0 0 1 .17.16.16.16 0 0 1-.17.17.16.16 0 0 1-.16-.17.16.16 0 0 1 .16-.16" class="dc2"/><path d="M4.94 6a2.65 2.65 0 1 1 2.65 2.65A2.64 2.64 0 0 1 4.94 6z" class="white"/><path d="M7.59 8.7A2.75 2.75 0 0 1 4.82 6a2.72 2.72 0 0 1 2.77-2.8h.72A2.81 2.81 0 0 1 11.18 6a2.86 2.86 0 0 1-2.87 2.7zm0-5.27A2.52 2.52 0 1 0 10.11 6 2.52 2.52 0 0 0 7.6 3.43zM7 7.44v-3a1.59 1.59 0 0 0 0 3zM9.19 6a1.59 1.59 0 0 0-1-1.49v3a1.59 1.59 0 0 0 1-1.51z" class="dc1"/></svg>