<svg xmlns="http://www.w3.org/2000/svg" xmlns:xlink="http://www.w3.org/1999/xlink" width="16" height="16" viewBox="0 0 16 16"><defs><linearGradient id="b7719f87-8957-452b-b743-7889d54b5b8c" x1="9.01" y1="8.17" x2="8.16" y2="6.83" gradientUnits="userSpaceOnUse"><stop offset="0" stop-color="#f89f20"/><stop offset="0.25" stop-color="#f79a20"/><stop offset="0.53" stop-color="#f68d20"/><stop offset="0.62" stop-color="#f58720"/><stop offset="0.72" stop-color="#f48120"/><stop offset="1" stop-color="#f37521"/></linearGradient><linearGradient id="b7358179-c946-4bb1-9572-211c6254ce49" x1="8.88" y1="8.15" x2="7.63" y2="5.71" gradientUnits="userSpaceOnUse"><stop offset="0" stop-color="#f58720" stop-opacity="0"/><stop offset="0.11" stop-color="#ee7f23" stop-opacity="0.14"/><stop offset="0.31" stop-color="#e37227" stop-opacity="0.35"/><stop offset="0.5" stop-color="#db682a" stop-opacity="0.52"/><stop offset="0.69" stop-color="#d5612c" stop-opacity="0.64"/><stop offset="0.85" stop-color="#d15d2e" stop-opacity="0.71"/><stop offset="0.98" stop-color="#d05b2e" stop-opacity="0.74"/></linearGradient><clipPath id="a90469a2-433e-4d6b-872e-f6a1bca50aa6"><path d="M9.61,7.18A1.23,1.23,0,1,1,8.38,6,1.23,1.23,0,0,1,9.61,7.18Z" fill="none"/></clipPath></defs><title>Shape</title><g style="isolation:isolate"><g id="f73028ea-7d65-4716-a5d9-e136fe466c4b" data-name="Export 1"><rect x="0.06" y="2.94" width="15.88" height="10.12" fill="#fff"/><path d="M15.89,8.57S11.55,11.63,3.59,13h12.3Z" fill="#f48120"/><path d="M15.94,2.88H0V13.12H16V2.88ZM15.88,3V13H.12c0-.11,0-9.89,0-10Z" fill="#231f20"/><path d="M1.4,6H.74V8.33H1.4a1.16,1.16,0,0,0,.82-.27A1.16,1.16,0,0,0,1.4,6Zm.53,1.74a.87.87,0,0,1-.62.19H1.19V6.41h.12a.87.87,0,0,1,.62.18.8.8,0,0,1,0,1.16Z" fill="#231f20"/><rect x="2.85" y="6.01" width="0.45" height="2.32" fill="#231f20"/><path d="M4.41,6.9c-.28-.1-.35-.16-.35-.29a.3.3,0,0,1,.33-.26.48.48,0,0,1,.37.19L5,6.23A1,1,0,0,0,4.31,6a.67.67,0,0,0-.72.66c0,.32.15.48.57.63a1.64,1.64,0,0,1,.31.14.28.28,0,0,1,.14.24A.33.33,0,0,1,4.26,8a.55.55,0,0,1-.5-.31l-.29.28a.9.9,0,0,0,.8.45.75.75,0,0,0,.8-.76C5.07,7.26,4.92,7.09,4.41,6.9Z" fill="#231f20"/><path d="M5.21,7.17A1.21,1.21,0,0,0,6.44,8.38,1.3,1.3,0,0,0,7,8.25V7.72A.72.72,0,0,1,6.46,8a.76.76,0,0,1-.78-.8.77.77,0,0,1,.76-.79A.73.73,0,0,1,7,6.64V6.1A1.15,1.15,0,0,0,6.45,6,1.22,1.22,0,0,0,5.21,7.17Z" fill="#231f20"/><polygon points="10.58 7.57 9.97 6.01 9.47 6.01 10.46 8.39 10.7 8.39 11.7 6.01 11.21 6.01 10.58 7.57" fill="#231f20"/><polygon points="11.9 8.33 13.18 8.33 13.18 7.94 12.35 7.94 12.35 7.31 13.15 7.31 13.15 6.92 12.35 6.92 12.35 6.41 13.18 6.41 13.18 6.01 11.9 6.01 11.9 8.33" fill="#231f20"/><path d="M15,6.7c0-.44-.3-.69-.82-.69h-.67V8.33h.45V7.4H14l.63.93h.55l-.73-1A.61.61,0,0,0,15,6.7Zm-.9.38h-.14v-.7h.14c.28,0,.44.12.44.34S14.35,7.08,14.07,7.08Z" fill="#231f20"/><path d="M9.61,7.18A1.23,1.23,0,1,1,8.38,6,1.23,1.23,0,0,1,9.61,7.18Z" fill="url(#b7719f87-8957-452b-b743-7889d54b5b8c)"/><path d="M9.61,7.18A1.23,1.23,0,1,1,8.38,6,1.23,1.23,0,0,1,9.61,7.18Z" opacity="0.65" fill="url(#b7358179-c946-4bb1-9572-211c6254ce49)" style="mix-blend-mode:multiply"/><g opacity="0.5" style="mix-blend-mode:multiply"><g clip-path="url(#a90469a2-433e-4d6b-872e-f6a1bca50aa6)"><path d="M9.64,7.18A1.26,1.26,0,1,1,8.39,5.93,1.25,1.25,0,0,1,9.64,7.18Z" fill="#231f20" style="mix-blend-mode:multiply"/><path d="M8.39,5.93A1.26,1.26,0,1,1,7.13,7.19,1.25,1.25,0,0,1,8.39,5.93Z" fill="#242021" style="mix-blend-mode:multiply"/><path d="M8.39,5.93A1.26,1.26,0,1,1,7.13,7.19,1.25,1.25,0,0,1,8.39,5.93Z" fill="#252122" style="mix-blend-mode:multiply"/><path d="M8.39,5.93A1.26,1.26,0,1,1,7.13,7.19,1.25,1.25,0,0,1,8.39,5.93Z" fill="#252223" style="mix-blend-mode:multiply"/><path d="M8.39,5.93A1.26,1.26,0,1,1,7.13,7.19,1.25,1.25,0,0,1,8.39,5.93Z" fill="#262223" style="mix-blend-mode:multiply"/><path d="M8.39,5.93A1.26,1.26,0,1,1,7.13,7.19,1.25,1.25,0,0,1,8.39,5.93Z" fill="#272324" style="mix-blend-mode:multiply"/><path d="M8.39,5.93A1.26,1.26,0,1,1,7.13,7.19,1.27,1.27,0,0,1,8.39,5.93Z" fill="#282425" style="mix-blend-mode:multiply"/><path d="M8.39,5.93A1.26,1.26,0,1,1,7.13,7.19,1.27,1.27,0,0,1,8.39,5.93Z" fill="#292526" style="mix-blend-mode:multiply"/><path d="M8.39,5.94A1.26,1.26,0,1,1,7.14,7.19,1.26,1.26,0,0,1,8.39,5.94Z" fill="#292627" style="mix-blend-mode:multiply"/><path d="M8.39,5.94A1.26,1.26,0,1,1,7.14,7.19,1.26,1.26,0,0,1,8.39,5.94Z" fill="#2a2728" style="mix-blend-mode:multiply"/><path d="M8.39,5.94A1.26,1.26,0,1,1,7.14,7.19,1.25,1.25,0,0,1,8.39,5.94Z" fill="#2b2728" style="mix-blend-mode:multiply"/><path d="M8.39,5.94A1.26,1.26,0,1,1,7.14,7.19,1.25,1.25,0,0,1,8.39,5.94Z" fill="#2c2829" style="mix-blend-mode:multiply"/><path d="M8.39,5.94A1.26,1.26,0,1,1,7.14,7.19,1.25,1.25,0,0,1,8.39,5.94Z" fill="#2d292a" style="mix-blend-mode:multiply"/><path d="M8.39,5.94A1.26,1.26,0,1,1,7.14,7.19,1.25,1.25,0,0,1,8.39,5.94Z" fill="#2d2a2b" style="mix-blend-mode:multiply"/><path d="M8.39,5.94A1.26,1.26,0,1,1,7.14,7.2,1.25,1.25,0,0,1,8.39,5.94Z" fill="#2e2b2c" style="mix-blend-mode:multiply"/><path d="M8.4,5.94A1.26,1.26,0,1,1,7.14,7.2,1.25,1.25,0,0,1,8.4,5.94Z" fill="#2f2c2d" style="mix-blend-mode:multiply"/><path d="M8.4,5.94A1.26,1.26,0,1,1,7.14,7.2,1.25,1.25,0,0,1,8.4,5.94Z" fill="#302c2d" style="mix-blend-mode:multiply"/><path d="M8.4,5.94A1.26,1.26,0,1,1,7.14,7.2,1.25,1.25,0,0,1,8.4,5.94Z" fill="#312d2e" style="mix-blend-mode:multiply"/><path d="M8.4,5.94A1.26,1.26,0,1,1,7.14,7.2,1.26,1.26,0,0,1,8.4,5.94Z" fill="#322e2f" style="mix-blend-mode:multiply"/><path d="M8.4,6A1.25,1.25,0,1,1,7.14,7.2,1.25,1.25,0,0,1,8.4,6Z" fill="#322f30" style="mix-blend-mode:multiply"/><path d="M8.4,6A1.25,1.25,0,1,1,7.14,7.2,1.25,1.25,0,0,1,8.4,6Z" fill="#333031" style="mix-blend-mode:multiply"/><path d="M8.4,6A1.25,1.25,0,1,1,7.15,7.2,1.25,1.25,0,0,1,8.4,6Z" fill="#343132" style="mix-blend-mode:multiply"/><path d="M8.4,6A1.26,1.26,0,1,1,7.15,7.2,1.25,1.25,0,0,1,8.4,6Z" fill="#353132" style="mix-blend-mode:multiply"/><path d="M8.4,6A1.26,1.26,0,1,1,7.15,7.2,1.25,1.25,0,0,1,8.4,6Z" fill="#363233" style="mix-blend-mode:multiply"/><path d="M8.4,6A1.26,1.26,0,1,1,7.15,7.2,1.26,1.26,0,0,1,8.4,6Z" fill="#363334" style="mix-blend-mode:multiply"/><path d="M8.4,6A1.26,1.26,0,1,1,7.15,7.2,1.26,1.26,0,0,1,8.4,6Z" fill="#373435" style="mix-blend-mode:multiply"/><path d="M8.4,6A1.26,1.26,0,1,1,7.15,7.2,1.25,1.25,0,0,1,8.4,6Z" fill="#383536" style="mix-blend-mode:multiply"/><path d="M8.4,6A1.26,1.26,0,1,1,7.15,7.21,1.25,1.25,0,0,1,8.4,6Z" fill="#393637" style="mix-blend-mode:multiply"/><path d="M8.4,6A1.26,1.26,0,1,1,7.15,7.21,1.25,1.25,0,0,1,8.4,6Z" fill="#3a3638" style="mix-blend-mode:multiply"/><path d="M8.41,6A1.26,1.26,0,1,1,7.15,7.21,1.26,1.26,0,0,1,8.41,6Z" fill="#3a3738" style="mix-blend-mode:multiply"/><path d="M8.41,6A1.25,1.25,0,1,1,7.15,7.21,1.25,1.25,0,0,1,8.41,6Z" fill="#3b3839" style="mix-blend-mode:multiply"/><path d="M8.41,6A1.25,1.25,0,1,1,7.15,7.21,1.25,1.25,0,0,1,8.41,6Z" fill="#3c393a" style="mix-blend-mode:multiply"/><path d="M8.41,6A1.25,1.25,0,1,1,7.15,7.21,1.25,1.25,0,0,1,8.41,6Z" fill="#3d3a3b" style="mix-blend-mode:multiply"/><path d="M8.41,6A1.25,1.25,0,1,1,7.16,7.21,1.25,1.25,0,0,1,8.41,6Z" fill="#3e3b3c" style="mix-blend-mode:multiply"/><path d="M8.41,6A1.25,1.25,0,1,1,7.16,7.21,1.25,1.25,0,0,1,8.41,6Z" fill="#3e3b3d" style="mix-blend-mode:multiply"/><path d="M8.41,6A1.25,1.25,0,1,1,7.16,7.21,1.25,1.25,0,0,1,8.41,6Z" fill="#3f3c3d" style="mix-blend-mode:multiply"/><path d="M8.41,6A1.25,1.25,0,1,1,7.16,7.21,1.25,1.25,0,0,1,8.41,6Z" fill="#403d3e" style="mix-blend-mode:multiply"/><path d="M8.41,6A1.26,1.26,0,1,1,7.16,7.21,1.25,1.25,0,0,1,8.41,6Z" fill="#413e3f" style="mix-blend-mode:multiply"/><path d="M8.41,6A1.26,1.26,0,1,1,7.16,7.21,1.25,1.25,0,0,1,8.41,6Z" fill="#423f40" style="mix-blend-mode:multiply"/><path d="M8.41,6A1.26,1.26,0,1,1,7.16,7.21,1.25,1.25,0,0,1,8.41,6Z" fill="#424041" style="mix-blend-mode:multiply"/><path d="M8.41,6A1.26,1.26,0,1,1,7.16,7.22,1.25,1.25,0,0,1,8.41,6Z" fill="#434042" style="mix-blend-mode:multiply"/><path d="M8.41,6A1.25,1.25,0,1,1,7.16,7.22,1.25,1.25,0,0,1,8.41,6Z" fill="#444142" style="mix-blend-mode:multiply"/><path d="M8.41,6A1.25,1.25,0,1,1,7.16,7.22,1.26,1.26,0,0,1,8.41,6Z" fill="#454243" style="mix-blend-mode:multiply"/><path d="M8.41,6A1.25,1.25,0,1,1,7.16,7.22,1.25,1.25,0,0,1,8.41,6Z" fill="#464344" style="mix-blend-mode:multiply"/><path d="M8.42,6A1.25,1.25,0,1,1,7.16,7.22,1.25,1.25,0,0,1,8.42,6Z" fill="#464445" style="mix-blend-mode:multiply"/><path d="M8.42,6A1.25,1.25,0,1,1,7.17,7.22,1.25,1.25,0,0,1,8.42,6Z" fill="#474546" style="mix-blend-mode:multiply"/><path d="M8.42,6A1.25,1.25,0,1,1,7.17,7.22,1.25,1.25,0,0,1,8.42,6Z" fill="#484547" style="mix-blend-mode:multiply"/><path d="M8.42,6A1.25,1.25,0,1,1,7.17,7.22,1.25,1.25,0,0,1,8.42,6Z" fill="#494648" style="mix-blend-mode:multiply"/><path d="M8.42,6A1.25,1.25,0,1,1,7.17,7.22,1.25,1.25,0,0,1,8.42,6Z" fill="#4a4748" style="mix-blend-mode:multiply"/><path d="M8.42,6A1.25,1.25,0,1,1,7.17,7.22,1.25,1.25,0,0,1,8.42,6Z" fill="#4a4849" style="mix-blend-mode:multiply"/><path d="M8.42,6A1.25,1.25,0,1,1,7.17,7.22,1.25,1.25,0,0,1,8.42,6Z" fill="#4b494a" style="mix-blend-mode:multiply"/><path d="M8.42,6A1.25,1.25,0,1,1,7.17,7.22,1.25,1.25,0,0,1,8.42,6Z" fill="#4c4a4b" style="mix-blend-mode:multiply"/><path d="M8.42,6A1.25,1.25,0,1,1,7.17,7.23,1.24,1.24,0,0,1,8.42,6Z" fill="#4d4a4c" style="mix-blend-mode:multiply"/><path d="M8.42,6A1.25,1.25,0,1,1,7.17,7.23,1.25,1.25,0,0,1,8.42,6Z" fill="#4e4b4d" style="mix-blend-mode:multiply"/><path d="M8.42,6A1.25,1.25,0,1,1,7.17,7.23,1.25,1.25,0,0,1,8.42,6Z" fill="#4f4c4d" style="mix-blend-mode:multiply"/><path d="M8.42,6A1.25,1.25,0,1,1,7.17,7.23,1.25,1.25,0,0,1,8.42,6Z" fill="#4f4d4e" style="mix-blend-mode:multiply"/><path d="M8.42,6A1.25,1.25,0,1,1,7.17,7.23,1.25,1.25,0,0,1,8.42,6Z" fill="#504e4f" style="mix-blend-mode:multiply"/><path d="M8.42,6A1.25,1.25,0,1,1,7.17,7.23,1.25,1.25,0,0,1,8.42,6Z" fill="#514f50" style="mix-blend-mode:multiply"/><path d="M8.42,6A1.25,1.25,0,1,1,7.18,7.23,1.25,1.25,0,0,1,8.42,6Z" fill="#524f51" style="mix-blend-mode:multiply"/><path d="M8.43,6A1.25,1.25,0,1,1,7.18,7.23,1.24,1.24,0,0,1,8.43,6Z" fill="#535052" style="mix-blend-mode:multiply"/><path d="M8.43,6A1.25,1.25,0,1,1,7.18,7.23,1.25,1.25,0,0,1,8.43,6Z" fill="#535152" style="mix-blend-mode:multiply"/><path d="M8.43,6A1.25,1.25,0,1,1,7.18,7.23,1.25,1.25,0,0,1,8.43,6Z" fill="#545253" style="mix-blend-mode:multiply"/><path d="M8.43,6A1.25,1.25,0,1,1,7.18,7.23,1.25,1.25,0,0,1,8.43,6Z" fill="#555354" style="mix-blend-mode:multiply"/><path d="M8.43,6A1.25,1.25,0,1,1,7.18,7.23,1.24,1.24,0,0,1,8.43,6Z" fill="#565455" style="mix-blend-mode:multiply"/><path d="M8.43,6A1.25,1.25,0,1,1,7.18,7.23,1.24,1.24,0,0,1,8.43,6Z" fill="#575456" style="mix-blend-mode:multiply"/><path d="M8.43,6A1.25,1.25,0,1,1,7.18,7.24,1.25,1.25,0,0,1,8.43,6Z" fill="#575557" style="mix-blend-mode:multiply"/><path d="M8.43,6A1.25,1.25,0,1,1,7.18,7.24,1.25,1.25,0,0,1,8.43,6Z" fill="#585657" style="mix-blend-mode:multiply"/><path d="M8.43,6A1.25,1.25,0,1,1,7.18,7.24,1.25,1.25,0,0,1,8.43,6Z" fill="#595758" style="mix-blend-mode:multiply"/><path d="M8.43,6A1.25,1.25,0,1,1,7.18,7.24,1.25,1.25,0,0,1,8.43,6Z" fill="#5a5859" style="mix-blend-mode:multiply"/><path d="M8.43,6A1.25,1.25,0,1,1,7.18,7.24,1.25,1.25,0,0,1,8.43,6Z" fill="#5b595a" style="mix-blend-mode:multiply"/><path d="M8.43,6A1.25,1.25,0,1,1,7.19,7.24,1.25,1.25,0,0,1,8.43,6Z" fill="#5b5a5b" style="mix-blend-mode:multiply"/><path d="M8.43,6A1.25,1.25,0,1,1,7.19,7.24,1.25,1.25,0,0,1,8.43,6Z" fill="#5c5a5c" style="mix-blend-mode:multiply"/><path d="M8.43,6A1.25,1.25,0,1,1,7.19,7.24,1.25,1.25,0,0,1,8.43,6Z" fill="#5d5b5d" style="mix-blend-mode:multiply"/><path d="M8.44,6A1.25,1.25,0,1,1,7.19,7.24,1.25,1.25,0,0,1,8.44,6Z" fill="#5e5c5d" style="mix-blend-mode:multiply"/><path d="M8.44,6A1.25,1.25,0,1,1,7.19,7.24,1.24,1.24,0,0,1,8.44,6Z" fill="#5f5d5e" style="mix-blend-mode:multiply"/><path d="M8.44,6a1.25,1.25,0,0,1,0,2.49A1.25,1.25,0,1,1,8.44,6Z" fill="#5f5e5f" style="mix-blend-mode:multiply"/><path d="M8.44,6A1.25,1.25,0,1,1,7.19,7.24,1.24,1.24,0,0,1,8.44,6Z" fill="#605f60" style="mix-blend-mode:multiply"/><path d="M8.44,6A1.25,1.25,0,1,1,7.19,7.24,1.24,1.24,0,0,1,8.44,6Z" fill="#615f61" style="mix-blend-mode:multiply"/><path d="M8.44,6A1.25,1.25,0,1,1,7.19,7.25,1.25,1.25,0,0,1,8.44,6Z" fill="#626062" style="mix-blend-mode:multiply"/><path d="M8.44,6A1.25,1.25,0,1,1,7.19,7.25,1.25,1.25,0,0,1,8.44,6Z" fill="#636162" style="mix-blend-mode:multiply"/><path d="M8.44,6A1.25,1.25,0,1,1,7.19,7.25,1.25,1.25,0,0,1,8.44,6Z" fill="#636263" style="mix-blend-mode:multiply"/><path d="M8.44,6A1.25,1.25,0,1,1,7.19,7.25,1.25,1.25,0,0,1,8.44,6Z" fill="#646364" style="mix-blend-mode:multiply"/><path d="M8.44,6A1.25,1.25,0,1,1,7.19,7.25,1.25,1.25,0,0,1,8.44,6Z" fill="#656465" style="mix-blend-mode:multiply"/><path d="M8.44,6A1.25,1.25,0,1,1,7.2,7.25,1.25,1.25,0,0,1,8.44,6Z" fill="#666466" style="mix-blend-mode:multiply"/><path d="M8.44,6A1.25,1.25,0,1,1,7.2,7.25,1.25,1.25,0,0,1,8.44,6Z" fill="#676567" style="mix-blend-mode:multiply"/><path d="M8.44,6A1.25,1.25,0,1,1,7.2,7.25,1.24,1.24,0,0,1,8.44,6Z" fill="#686667" style="mix-blend-mode:multiply"/><path d="M8.44,6A1.25,1.25,0,1,1,7.2,7.25,1.24,1.24,0,0,1,8.44,6Z" fill="#686768" style="mix-blend-mode:multiply"/><path d="M8.44,6A1.25,1.25,0,1,1,7.2,7.25,1.24,1.24,0,0,1,8.44,6Z" fill="#696869" style="mix-blend-mode:multiply"/><path d="M8.45,6A1.25,1.25,0,1,1,7.2,7.25,1.25,1.25,0,0,1,8.45,6Z" fill="#6a696a" style="mix-blend-mode:multiply"/><path d="M8.45,6A1.25,1.25,0,1,1,7.2,7.25,1.25,1.25,0,0,1,8.45,6Z" fill="#6b696b" style="mix-blend-mode:multiply"/><path d="M8.45,6A1.25,1.25,0,1,1,7.2,7.25,1.25,1.25,0,0,1,8.45,6Z" fill="#6c6a6c" style="mix-blend-mode:multiply"/><path d="M8.45,6A1.25,1.25,0,1,1,7.2,7.26,1.24,1.24,0,0,1,8.45,6Z" fill="#6c6b6d" style="mix-blend-mode:multiply"/><path d="M8.45,6A1.25,1.25,0,1,1,7.2,7.26,1.24,1.24,0,0,1,8.45,6Z" fill="#6d6c6d" style="mix-blend-mode:multiply"/><path d="M8.45,6A1.25,1.25,0,1,1,7.2,7.26,1.24,1.24,0,0,1,8.45,6Z" fill="#6e6d6e" style="mix-blend-mode:multiply"/><path d="M8.45,6A1.25,1.25,0,1,1,7.2,7.26,1.24,1.24,0,0,1,8.45,6Z" fill="#6f6e6f" style="mix-blend-mode:multiply"/><path d="M8.45,6A1.25,1.25,0,1,1,7.21,7.26,1.24,1.24,0,0,1,8.45,6Z" fill="#706e70" style="mix-blend-mode:multiply"/><path d="M8.45,6a1.25,1.25,0,1,1,0,2.49A1.25,1.25,0,0,1,8.45,6Z" fill="#706f71" style="mix-blend-mode:multiply"/><path d="M8.45,6A1.25,1.25,0,1,1,7.21,7.26,1.24,1.24,0,0,1,8.45,6Z" fill="#717072" style="mix-blend-mode:multiply"/><path d="M8.45,6A1.25,1.25,0,1,1,7.21,7.26,1.24,1.24,0,0,1,8.45,6Z" fill="#727172" style="mix-blend-mode:multiply"/><path d="M8.45,6A1.25,1.25,0,1,1,7.21,7.26,1.24,1.24,0,0,1,8.45,6Z" fill="#737273" style="mix-blend-mode:multiply"/><path d="M8.45,6A1.25,1.25,0,1,1,7.21,7.26,1.25,1.25,0,0,1,8.45,6Z" fill="#747374" style="mix-blend-mode:multiply"/><path d="M8.45,6A1.25,1.25,0,1,1,7.21,7.26,1.25,1.25,0,0,1,8.45,6Z" fill="#747375" style="mix-blend-mode:multiply"/><path d="M8.45,6A1.25,1.25,0,1,1,7.21,7.26,1.25,1.25,0,0,1,8.45,6Z" fill="#757476" style="mix-blend-mode:multiply"/><path d="M8.46,6A1.25,1.25,0,1,1,7.21,7.27,1.25,1.25,0,0,1,8.46,6Z" fill="#767577" style="mix-blend-mode:multiply"/><path d="M8.46,6A1.25,1.25,0,1,1,7.21,7.27,1.25,1.25,0,0,1,8.46,6Z" fill="#777677" style="mix-blend-mode:multiply"/><path d="M8.46,6A1.25,1.25,0,1,1,7.21,7.27,1.25,1.25,0,0,1,8.46,6Z" fill="#787778" style="mix-blend-mode:multiply"/><path d="M8.46,6A1.25,1.25,0,1,1,7.21,7.27,1.25,1.25,0,0,1,8.46,6Z" fill="#787879" style="mix-blend-mode:multiply"/><path d="M8.46,6A1.25,1.25,0,1,1,7.21,7.27,1.25,1.25,0,0,1,8.46,6Z" fill="#79787a" style="mix-blend-mode:multiply"/><path d="M8.46,6A1.24,1.24,0,1,1,7.22,7.27,1.23,1.23,0,0,1,8.46,6Z" fill="#7a797b" style="mix-blend-mode:multiply"/><path d="M8.46,6A1.24,1.24,0,1,1,7.22,7.27,1.23,1.23,0,0,1,8.46,6Z" fill="#7b7a7c" style="mix-blend-mode:multiply"/><path d="M8.46,6A1.24,1.24,0,1,1,7.22,7.27,1.23,1.23,0,0,1,8.46,6Z" fill="#7c7b7c" style="mix-blend-mode:multiply"/><path d="M8.46,6A1.24,1.24,0,1,1,7.22,7.27,1.24,1.24,0,0,1,8.46,6Z" fill="#7c7c7d" style="mix-blend-mode:multiply"/><path d="M8.46,6A1.24,1.24,0,1,1,7.22,7.27,1.24,1.24,0,0,1,8.46,6Z" fill="#7d7d7e" style="mix-blend-mode:multiply"/><path d="M8.46,6A1.25,1.25,0,1,1,7.22,7.27,1.24,1.24,0,0,1,8.46,6Z" fill="#7e7d7f" style="mix-blend-mode:multiply"/><path d="M8.46,6A1.25,1.25,0,1,1,7.22,7.27,1.25,1.25,0,0,1,8.46,6Z" fill="#7f7e80" style="mix-blend-mode:multiply"/><path d="M8.46,6A1.25,1.25,0,1,1,7.22,7.27,1.25,1.25,0,0,1,8.46,6Z" fill="#807f81" style="mix-blend-mode:multiply"/><path d="M8.46,6A1.25,1.25,0,1,1,7.22,7.28,1.25,1.25,0,0,1,8.46,6Z" fill="#808082" style="mix-blend-mode:multiply"/><path d="M8.46,6A1.25,1.25,0,1,1,7.22,7.28,1.25,1.25,0,0,1,8.46,6Z" fill="#818182" style="mix-blend-mode:multiply"/><path d="M8.47,6A1.25,1.25,0,1,1,7.22,7.28,1.25,1.25,0,0,1,8.47,6Z" fill="#828283" style="mix-blend-mode:multiply"/><path d="M8.47,6A1.24,1.24,0,1,1,7.22,7.28,1.24,1.24,0,0,1,8.47,6Z" fill="#838284" style="mix-blend-mode:multiply"/><path d="M8.47,6A1.24,1.24,0,1,1,7.23,7.28,1.24,1.24,0,0,1,8.47,6Z" fill="#848385" style="mix-blend-mode:multiply"/><path d="M8.47,6A1.24,1.24,0,1,1,7.23,7.28,1.24,1.24,0,0,1,8.47,6Z" fill="#858486" style="mix-blend-mode:multiply"/><path d="M8.47,6A1.24,1.24,0,1,1,7.23,7.28,1.24,1.24,0,0,1,8.47,6Z" fill="#858587" style="mix-blend-mode:multiply"/><path d="M8.47,6a1.24,1.24,0,0,1,0,2.48A1.24,1.24,0,0,1,8.47,6Z" fill="#868687" style="mix-blend-mode:multiply"/><path d="M8.47,6A1.24,1.24,0,1,1,7.23,7.28,1.24,1.24,0,0,1,8.47,6Z" fill="#878788" style="mix-blend-mode:multiply"/><path d="M8.47,6A1.24,1.24,0,1,1,7.23,7.28,1.24,1.24,0,0,1,8.47,6Z" fill="#888789" style="mix-blend-mode:multiply"/><path d="M8.47,6A1.24,1.24,0,1,1,7.23,7.28,1.24,1.24,0,0,1,8.47,6Z" fill="#89888a" style="mix-blend-mode:multiply"/><path d="M8.47,6A1.24,1.24,0,1,1,7.23,7.28,1.24,1.24,0,0,1,8.47,6Z" fill="#89898b" style="mix-blend-mode:multiply"/><path d="M8.47,6A1.25,1.25,0,1,1,7.23,7.28,1.24,1.24,0,0,1,8.47,6Z" fill="#8a8a8c" style="mix-blend-mode:multiply"/><path d="M8.47,6A1.25,1.25,0,1,1,7.23,7.29,1.24,1.24,0,0,1,8.47,6Z" fill="#8b8b8c" style="mix-blend-mode:multiply"/><path d="M8.47,6.05a1.24,1.24,0,0,1,0,2.48,1.24,1.24,0,0,1,0-2.48Z" fill="#8c8c8d" style="mix-blend-mode:multiply"/><path d="M8.47,6.05a1.24,1.24,0,0,1,0,2.48,1.24,1.24,0,0,1,0-2.48Z" fill="#8d8c8e" style="mix-blend-mode:multiply"/><path d="M8.48,6.05A1.24,1.24,0,1,1,7.23,7.29,1.24,1.24,0,0,1,8.48,6.05Z" fill="#8d8d8f" style="mix-blend-mode:multiply"/><path d="M8.48,6.05A1.24,1.24,0,1,1,7.24,7.29,1.24,1.24,0,0,1,8.48,6.05Z" fill="#8e8e90" style="mix-blend-mode:multiply"/><path d="M8.48,6.05A1.24,1.24,0,1,1,7.24,7.29,1.24,1.24,0,0,1,8.48,6.05Z" fill="#8f8f91" style="mix-blend-mode:multiply"/><path d="M8.48,6.05a1.24,1.24,0,0,1,0,2.48,1.24,1.24,0,0,1,0-2.48Z" fill="#909092" style="mix-blend-mode:multiply"/><path d="M8.48,6.05a1.24,1.24,0,0,1,0,2.48,1.24,1.24,0,0,1,0-2.48Z" fill="#919192" style="mix-blend-mode:multiply"/><path d="M8.48,6.05a1.24,1.24,0,0,1,0,2.48,1.24,1.24,0,0,1,0-2.48Z" fill="#919293" style="mix-blend-mode:multiply"/><path d="M8.48,6.05a1.24,1.24,0,0,1,0,2.48,1.24,1.24,0,0,1,0-2.48Z" fill="#929294" style="mix-blend-mode:multiply"/><path d="M8.48,6.05A1.24,1.24,0,1,1,7.24,7.29,1.25,1.25,0,0,1,8.48,6.05Z" fill="#939395" style="mix-blend-mode:multiply"/><path d="M8.48,6.05A1.24,1.24,0,1,1,7.24,7.29,1.24,1.24,0,0,1,8.48,6.05Z" fill="#949496" style="mix-blend-mode:multiply"/><path d="M8.48,6.06A1.24,1.24,0,1,1,7.24,7.29,1.23,1.23,0,0,1,8.48,6.06Z" fill="#959597" style="mix-blend-mode:multiply"/><path d="M8.48,6.06A1.24,1.24,0,1,1,7.24,7.3,1.23,1.23,0,0,1,8.48,6.06Z" fill="#959697" style="mix-blend-mode:multiply"/><path d="M8.48,6.06a1.24,1.24,0,0,1,0,2.48,1.24,1.24,0,0,1,0-2.48Z" fill="#969798" style="mix-blend-mode:multiply"/><path d="M8.48,6.06a1.24,1.24,0,0,1,0,2.48,1.24,1.24,0,0,1,0-2.48Z" fill="#979799" style="mix-blend-mode:multiply"/><path d="M8.48,6.06A1.24,1.24,0,1,1,7.25,7.3,1.23,1.23,0,0,1,8.48,6.06Z" fill="#98989a" style="mix-blend-mode:multiply"/><path d="M8.48,6.06A1.24,1.24,0,1,1,7.25,7.3,1.23,1.23,0,0,1,8.48,6.06Z" fill="#99999b" style="mix-blend-mode:multiply"/><path d="M8.49,6.06A1.24,1.24,0,1,1,7.25,7.3,1.24,1.24,0,0,1,8.49,6.06Z" fill="#999a9c" style="mix-blend-mode:multiply"/><path d="M8.49,6.06A1.24,1.24,0,1,1,7.25,7.3,1.24,1.24,0,0,1,8.49,6.06Z" fill="#9a9b9c" style="mix-blend-mode:multiply"/><path d="M8.49,6.06A1.24,1.24,0,1,1,7.25,7.3,1.24,1.24,0,0,1,8.49,6.06Z" fill="#9b9c9d" style="mix-blend-mode:multiply"/><path d="M8.49,6.06a1.24,1.24,0,0,1,0,2.48,1.24,1.24,0,0,1,0-2.48Z" fill="#9c9c9e" style="mix-blend-mode:multiply"/><path d="M8.49,6.06a1.24,1.24,0,0,1,0,2.48,1.24,1.24,0,0,1,0-2.48Z" fill="#9d9d9f" style="mix-blend-mode:multiply"/><path d="M8.49,6.07A1.24,1.24,0,1,1,7.25,7.3,1.24,1.24,0,0,1,8.49,6.07Z" fill="#9e9ea0" style="mix-blend-mode:multiply"/><path d="M8.49,6.07A1.24,1.24,0,1,1,7.25,7.3,1.24,1.24,0,0,1,8.49,6.07Z" fill="#9e9fa1" style="mix-blend-mode:multiply"/><path d="M8.49,6.07A1.24,1.24,0,1,1,7.25,7.31,1.24,1.24,0,0,1,8.49,6.07Z" fill="#9fa0a1" style="mix-blend-mode:multiply"/><path d="M8.49,6.07A1.24,1.24,0,1,1,7.25,7.31,1.24,1.24,0,0,1,8.49,6.07Z" fill="#a0a1a2" style="mix-blend-mode:multiply"/><path d="M8.49,6.07A1.24,1.24,0,1,1,7.25,7.31,1.24,1.24,0,0,1,8.49,6.07Z" fill="#a1a1a3" style="mix-blend-mode:multiply"/><path d="M8.49,6.07A1.24,1.24,0,1,1,7.26,7.31,1.23,1.23,0,0,1,8.49,6.07Z" fill="#a2a2a4" style="mix-blend-mode:multiply"/><path d="M8.49,6.07A1.24,1.24,0,1,1,7.26,7.31,1.24,1.24,0,0,1,8.49,6.07Z" fill="#a2a3a5" style="mix-blend-mode:multiply"/><path d="M8.49,6.07A1.24,1.24,0,1,1,7.26,7.31,1.24,1.24,0,0,1,8.49,6.07Z" fill="#a3a4a6" style="mix-blend-mode:multiply"/><path d="M8.49,6.07A1.24,1.24,0,1,1,7.26,7.31,1.24,1.24,0,0,1,8.49,6.07Z" fill="#a4a5a7" style="mix-blend-mode:multiply"/><path d="M8.49,6.07A1.24,1.24,0,1,1,7.26,7.31,1.24,1.24,0,0,1,8.49,6.07Z" fill="#a5a6a7" style="mix-blend-mode:multiply"/><path d="M8.5,6.07A1.24,1.24,0,1,1,7.26,7.31,1.24,1.24,0,0,1,8.5,6.07Z" fill="#a6a6a8" style="mix-blend-mode:multiply"/><path d="M8.5,6.08A1.24,1.24,0,1,1,7.26,7.31,1.23,1.23,0,0,1,8.5,6.08Z" fill="#a6a7a9" style="mix-blend-mode:multiply"/><path d="M8.5,6.08A1.24,1.24,0,1,1,7.26,7.31,1.23,1.23,0,0,1,8.5,6.08Z" fill="#a7a8aa" style="mix-blend-mode:multiply"/><path d="M8.5,6.08A1.24,1.24,0,1,1,7.26,7.31,1.23,1.23,0,0,1,8.5,6.08Z" fill="#a8a9ab" style="mix-blend-mode:multiply"/><path d="M8.5,6.08A1.24,1.24,0,1,1,7.26,7.31,1.23,1.23,0,0,1,8.5,6.08Z" fill="#a9aaac" style="mix-blend-mode:multiply"/><path d="M8.5,6.08A1.24,1.24,0,1,1,7.26,7.32,1.24,1.24,0,0,1,8.5,6.08Z" fill="#aaabac" style="mix-blend-mode:multiply"/><path d="M8.5,6.08A1.24,1.24,0,1,1,7.26,7.32,1.24,1.24,0,0,1,8.5,6.08Z" fill="#aaabad" style="mix-blend-mode:multiply"/><path d="M8.5,6.08A1.24,1.24,0,1,1,7.26,7.32,1.24,1.24,0,0,1,8.5,6.08Z" fill="#abacae" style="mix-blend-mode:multiply"/><path d="M8.5,6.08a1.24,1.24,0,1,1,0,2.47,1.24,1.24,0,0,1,0-2.47Z" fill="#acadaf" style="mix-blend-mode:multiply"/><path d="M8.5,6.08a1.24,1.24,0,1,1,0,2.47,1.24,1.24,0,0,1,0-2.47Z" fill="#adaeb0" style="mix-blend-mode:multiply"/><path d="M8.5,6.08a1.24,1.24,0,1,1,0,2.47,1.24,1.24,0,0,1,0-2.47Z" fill="#aeafb1" style="mix-blend-mode:multiply"/><path d="M8.5,6.08A1.24,1.24,0,1,1,7.27,7.32,1.24,1.24,0,0,1,8.5,6.08Z" fill="#aeb0b1" style="mix-blend-mode:multiply"/><path d="M8.5,6.09A1.24,1.24,0,1,1,7.27,7.32,1.23,1.23,0,0,1,8.5,6.09Z" fill="#afb0b2" style="mix-blend-mode:multiply"/><path d="M8.5,6.09A1.24,1.24,0,1,1,7.27,7.32,1.23,1.23,0,0,1,8.5,6.09Z" fill="#b0b1b3" style="mix-blend-mode:multiply"/><path d="M8.51,6.09A1.24,1.24,0,1,1,7.27,7.32,1.23,1.23,0,0,1,8.51,6.09Z" fill="#b1b2b4" style="mix-blend-mode:multiply"/><path d="M8.51,6.09A1.24,1.24,0,1,1,7.27,7.32,1.23,1.23,0,0,1,8.51,6.09Z" fill="#b2b3b5" style="mix-blend-mode:multiply"/><path d="M8.51,6.09A1.24,1.24,0,1,1,7.27,7.32,1.23,1.23,0,0,1,8.51,6.09Z" fill="#b2b4b6" style="mix-blend-mode:multiply"/><path d="M8.51,6.09A1.24,1.24,0,1,1,7.27,7.32,1.23,1.23,0,0,1,8.51,6.09Z" fill="#b3b5b7" style="mix-blend-mode:multiply"/><path d="M8.51,6.09A1.24,1.24,0,1,1,7.27,7.33,1.23,1.23,0,0,1,8.51,6.09Z" fill="#b4b5b7" style="mix-blend-mode:multiply"/><path d="M8.51,6.09A1.24,1.24,0,1,1,7.27,7.33,1.23,1.23,0,0,1,8.51,6.09Z" fill="#b5b6b8" style="mix-blend-mode:multiply"/><path d="M8.51,6.09A1.24,1.24,0,1,1,7.28,7.33,1.24,1.24,0,0,1,8.51,6.09Z" fill="#b6b7b9" style="mix-blend-mode:multiply"/><path d="M8.51,6.09A1.24,1.24,0,1,1,7.28,7.33,1.24,1.24,0,0,1,8.51,6.09Z" fill="#b6b8ba" style="mix-blend-mode:multiply"/><path d="M8.51,6.09A1.24,1.24,0,1,1,7.28,7.33,1.24,1.24,0,0,1,8.51,6.09Z" fill="#b7b9bb" style="mix-blend-mode:multiply"/><path d="M8.51,6.1A1.23,1.23,0,1,1,7.28,7.33,1.24,1.24,0,0,1,8.51,6.1Z" fill="#b8babc" style="mix-blend-mode:multiply"/><path d="M8.51,6.1A1.23,1.23,0,1,1,7.28,7.33,1.24,1.24,0,0,1,8.51,6.1Z" fill="#b9babc" style="mix-blend-mode:multiply"/><path d="M8.51,6.1A1.23,1.23,0,1,1,7.28,7.33,1.24,1.24,0,0,1,8.51,6.1Z" fill="#babbbd" style="mix-blend-mode:multiply"/><path d="M8.51,6.1A1.24,1.24,0,1,1,7.28,7.33,1.24,1.24,0,0,1,8.51,6.1Z" fill="#bbbcbe" style="mix-blend-mode:multiply"/><path d="M8.51,6.1A1.24,1.24,0,1,1,7.28,7.33,1.23,1.23,0,0,1,8.51,6.1Z" fill="#bbbdbf" style="mix-blend-mode:multiply"/><path d="M8.51,6.1A1.24,1.24,0,1,1,7.28,7.33,1.23,1.23,0,0,1,8.51,6.1Z" fill="#bcbec0" style="mix-blend-mode:multiply"/><path d="M8.52,6.1A1.24,1.24,0,1,1,7.28,7.33,1.23,1.23,0,0,1,8.52,6.1Z" fill="#bdbfc1" style="mix-blend-mode:multiply"/><path d="M8.52,6.1A1.24,1.24,0,1,1,7.28,7.33,1.23,1.23,0,0,1,8.52,6.1Z" fill="#bebfc1" style="mix-blend-mode:multiply"/><path d="M8.52,6.1A1.24,1.24,0,1,1,7.28,7.34,1.23,1.23,0,0,1,8.52,6.1Z" fill="#bfc0c2" style="mix-blend-mode:multiply"/><path d="M8.52,6.1A1.24,1.24,0,1,1,7.28,7.34,1.24,1.24,0,0,1,8.52,6.1Z" fill="#bfc1c3" style="mix-blend-mode:multiply"/><path d="M8.52,6.1A1.24,1.24,0,1,1,7.29,7.34,1.24,1.24,0,0,1,8.52,6.1Z" fill="#c0c2c4" style="mix-blend-mode:multiply"/><path d="M8.52,6.11A1.23,1.23,0,1,1,7.29,7.34,1.23,1.23,0,0,1,8.52,6.11Z" fill="#c1c3c5" style="mix-blend-mode:multiply"/><path d="M8.52,6.11A1.23,1.23,0,1,1,7.29,7.34,1.23,1.23,0,0,1,8.52,6.11Z" fill="#c2c4c6" style="mix-blend-mode:multiply"/><path d="M8.52,6.11A1.23,1.23,0,1,1,7.29,7.34,1.23,1.23,0,0,1,8.52,6.11Z" fill="#c3c4c6" style="mix-blend-mode:multiply"/><path d="M8.52,6.11A1.23,1.23,0,1,1,7.29,7.34,1.23,1.23,0,0,1,8.52,6.11Z" fill="#c3c5c7" style="mix-blend-mode:multiply"/><path d="M8.52,6.11A1.23,1.23,0,1,1,7.29,7.34,1.23,1.23,0,0,1,8.52,6.11Z" fill="#c4c6c8" style="mix-blend-mode:multiply"/><path d="M9.75,7.34A1.23,1.23,0,1,1,8.52,6.11,1.23,1.23,0,0,1,9.75,7.34Z" fill="#c5c7c9" style="mix-blend-mode:multiply"/><path d="M8.52,6.11A1.23,1.23,0,1,1,7.29,7.34,1.23,1.23,0,0,1,8.52,6.11Z" fill="#c5c7c9" style="mix-blend-mode:multiply"/><path d="M8.52,6.11A1.24,1.24,0,1,1,7.29,7.34,1.24,1.24,0,0,1,8.52,6.11Z" fill="#c6c8ca" opacity="0.99" style="mix-blend-mode:multiply"/><path d="M8.52,6.11A1.24,1.24,0,1,1,7.29,7.34,1.24,1.24,0,0,1,8.52,6.11Z" fill="#c6c8ca" opacity="0.99" style="mix-blend-mode:multiply"/><path d="M8.52,6.11A1.24,1.24,0,1,1,7.29,7.34,1.24,1.24,0,0,1,8.52,6.11Z" fill="#c6c8ca" opacity="0.98" style="mix-blend-mode:multiply"/><path d="M8.53,6.11A1.24,1.24,0,1,1,7.29,7.35,1.24,1.24,0,0,1,8.53,6.11Z" fill="#c6c8ca" opacity="0.98" style="mix-blend-mode:multiply"/><path d="M8.53,6.11A1.24,1.24,0,1,1,7.29,7.35,1.24,1.24,0,0,1,8.53,6.11Z" fill="#c7c9cb" opacity="0.97" style="mix-blend-mode:multiply"/><path d="M8.53,6.12A1.23,1.23,0,1,1,7.29,7.35,1.23,1.23,0,0,1,8.53,6.12Z" fill="#c7c9cb" opacity="0.97" style="mix-blend-mode:multiply"/><path d="M8.53,6.12A1.23,1.23,0,1,1,7.3,7.35,1.23,1.23,0,0,1,8.53,6.12Z" fill="#c7c9cb" opacity="0.96" style="mix-blend-mode:multiply"/><path d="M8.53,6.12A1.23,1.23,0,1,1,7.3,7.35,1.23,1.23,0,0,1,8.53,6.12Z" fill="#c8cacb" opacity="0.96" style="mix-blend-mode:multiply"/><path d="M8.53,6.12A1.23,1.23,0,1,1,7.3,7.35,1.23,1.23,0,0,1,8.53,6.12Z" fill="#c8cacc" opacity="0.95" style="mix-blend-mode:multiply"/><path d="M8.53,6.12A1.23,1.23,0,1,1,7.3,7.35,1.23,1.23,0,0,1,8.53,6.12Z" fill="#c8cacc" opacity="0.95" style="mix-blend-mode:multiply"/><path d="M8.53,6.12A1.23,1.23,0,1,1,7.3,7.35,1.23,1.23,0,0,1,8.53,6.12Z" fill="#c8cacc" opacity="0.94" style="mix-blend-mode:multiply"/><path d="M8.53,6.12A1.23,1.23,0,1,1,7.3,7.35,1.23,1.23,0,0,1,8.53,6.12Z" fill="#c9cbcc" opacity="0.94" style="mix-blend-mode:multiply"/><path d="M8.53,6.12A1.23,1.23,0,1,1,7.3,7.35,1.23,1.23,0,0,1,8.53,6.12Z" fill="#c9cbcd" opacity="0.93" style="mix-blend-mode:multiply"/><path d="M8.53,6.12A1.23,1.23,0,1,1,7.3,7.35,1.23,1.23,0,0,1,8.53,6.12Z" fill="#c9cbcd" opacity="0.93" style="mix-blend-mode:multiply"/><path d="M8.53,6.12A1.24,1.24,0,1,1,7.3,7.35,1.23,1.23,0,0,1,8.53,6.12Z" fill="#cacbcd" opacity="0.92" style="mix-blend-mode:multiply"/><path d="M8.53,6.12A1.24,1.24,0,1,1,7.3,7.35,1.23,1.23,0,0,1,8.53,6.12Z" fill="#caccce" opacity="0.92" style="mix-blend-mode:multiply"/><path d="M8.53,6.12A1.24,1.24,0,1,1,7.3,7.35,1.23,1.23,0,0,1,8.53,6.12Z" fill="#caccce" opacity="0.91" style="mix-blend-mode:multiply"/><path d="M8.53,6.12a1.24,1.24,0,1,1,0,2.47,1.24,1.24,0,0,1,0-2.47Z" fill="#caccce" opacity="0.91" style="mix-blend-mode:multiply"/><path d="M8.53,6.12a1.24,1.24,0,1,1,0,2.47,1.24,1.24,0,0,1,0-2.47Z" fill="#cbcdce" opacity="0.9" style="mix-blend-mode:multiply"/><path d="M8.53,6.13A1.23,1.23,0,1,1,7.3,7.36,1.24,1.24,0,0,1,8.53,6.13Z" fill="#cbcdcf" opacity="0.9" style="mix-blend-mode:multiply"/><path d="M8.54,6.13A1.23,1.23,0,1,1,7.3,7.36,1.23,1.23,0,0,1,8.54,6.13Z" fill="#cbcdcf" opacity="0.89" style="mix-blend-mode:multiply"/><path d="M8.54,6.13A1.23,1.23,0,1,1,7.3,7.36,1.23,1.23,0,0,1,8.54,6.13Z" fill="#cccdcf" opacity="0.89" style="mix-blend-mode:multiply"/><path d="M8.54,6.13A1.23,1.23,0,1,1,7.3,7.36,1.23,1.23,0,0,1,8.54,6.13Z" fill="#cccecf" opacity="0.88" style="mix-blend-mode:multiply"/><path d="M8.54,6.13A1.23,1.23,0,1,1,7.31,7.36,1.23,1.23,0,0,1,8.54,6.13Z" fill="#ccced0" opacity="0.88" style="mix-blend-mode:multiply"/><path d="M8.54,6.13A1.23,1.23,0,1,1,7.31,7.36,1.23,1.23,0,0,1,8.54,6.13Z" fill="#cdced0" opacity="0.87" style="mix-blend-mode:multiply"/><path d="M8.54,6.13A1.23,1.23,0,1,1,7.31,7.36,1.23,1.23,0,0,1,8.54,6.13Z" fill="#cdcfd0" opacity="0.87" style="mix-blend-mode:multiply"/><path d="M8.54,6.13A1.23,1.23,0,1,1,7.31,7.36,1.23,1.23,0,0,1,8.54,6.13Z" fill="#cdcfd1" opacity="0.86" style="mix-blend-mode:multiply"/><path d="M8.54,6.13A1.23,1.23,0,1,1,7.31,7.36,1.23,1.23,0,0,1,8.54,6.13Z" fill="#cdcfd1" opacity="0.86" style="mix-blend-mode:multiply"/><path d="M8.54,6.13A1.24,1.24,0,1,1,7.31,7.36,1.23,1.23,0,0,1,8.54,6.13Z" fill="#cecfd1" opacity="0.85" style="mix-blend-mode:multiply"/><path d="M8.54,6.13A1.24,1.24,0,1,1,7.31,7.36,1.23,1.23,0,0,1,8.54,6.13Z" fill="#ced0d1" opacity="0.85" style="mix-blend-mode:multiply"/><path d="M8.54,6.13A1.24,1.24,0,1,1,7.31,7.36,1.23,1.23,0,0,1,8.54,6.13Z" fill="#ced0d2" opacity="0.84" style="mix-blend-mode:multiply"/><path d="M8.54,6.13A1.24,1.24,0,1,1,7.31,7.37,1.24,1.24,0,0,1,8.54,6.13Z" fill="#cfd0d2" opacity="0.84" style="mix-blend-mode:multiply"/><path d="M8.54,6.13A1.24,1.24,0,1,1,7.31,7.37,1.24,1.24,0,0,1,8.54,6.13Z" fill="#cfd0d2" opacity="0.83" style="mix-blend-mode:multiply"/><path d="M8.54,6.14A1.23,1.23,0,1,1,7.31,7.37,1.23,1.23,0,0,1,8.54,6.14Z" fill="#cfd1d2" opacity="0.83" style="mix-blend-mode:multiply"/><path d="M8.54,6.14A1.23,1.23,0,1,1,7.31,7.37,1.24,1.24,0,0,1,8.54,6.14Z" fill="#cfd1d3" opacity="0.82" style="mix-blend-mode:multiply"/><path d="M8.54,6.14A1.23,1.23,0,1,1,7.31,7.37,1.24,1.24,0,0,1,8.54,6.14Z" fill="#d0d1d3" opacity="0.82" style="mix-blend-mode:multiply"/><path d="M8.54,6.14A1.23,1.23,0,1,1,7.31,7.37,1.24,1.24,0,0,1,8.54,6.14Z" fill="#d0d2d3" opacity="0.81" style="mix-blend-mode:multiply"/><path d="M8.55,6.14A1.23,1.23,0,1,1,7.31,7.37,1.23,1.23,0,0,1,8.55,6.14Z" fill="#d0d2d3" opacity="0.81" style="mix-blend-mode:multiply"/><path d="M8.55,6.14A1.23,1.23,0,1,1,7.31,7.37,1.23,1.23,0,0,1,8.55,6.14Z" fill="#d1d2d4" opacity="0.8" style="mix-blend-mode:multiply"/><path d="M8.55,6.14A1.23,1.23,0,1,1,7.31,7.37,1.23,1.23,0,0,1,8.55,6.14Z" fill="#d1d2d4" opacity="0.8" style="mix-blend-mode:multiply"/><path d="M8.55,6.14A1.23,1.23,0,1,1,7.32,7.37,1.23,1.23,0,0,1,8.55,6.14Z" fill="#d1d3d4" opacity="0.79" style="mix-blend-mode:multiply"/><path d="M8.55,6.14A1.23,1.23,0,1,1,7.32,7.37,1.23,1.23,0,0,1,8.55,6.14Z" fill="#d1d3d5" opacity="0.79" style="mix-blend-mode:multiply"/><path d="M8.55,6.14A1.24,1.24,0,1,1,7.32,7.37,1.23,1.23,0,0,1,8.55,6.14Z" fill="#d2d3d5" opacity="0.78" style="mix-blend-mode:multiply"/><path d="M8.55,6.14A1.24,1.24,0,1,1,7.32,7.37,1.23,1.23,0,0,1,8.55,6.14Z" fill="#d2d4d5" opacity="0.78" style="mix-blend-mode:multiply"/><path d="M8.55,6.14A1.24,1.24,0,1,1,7.32,7.37,1.23,1.23,0,0,1,8.55,6.14Z" fill="#d2d4d5" opacity="0.77" style="mix-blend-mode:multiply"/><path d="M8.55,6.14A1.24,1.24,0,1,1,7.32,7.38,1.24,1.24,0,0,1,8.55,6.14Z" fill="#d3d4d6" opacity="0.77" style="mix-blend-mode:multiply"/><path d="M8.55,6.14A1.24,1.24,0,1,1,7.32,7.38,1.24,1.24,0,0,1,8.55,6.14Z" fill="#d3d4d6" opacity="0.76" style="mix-blend-mode:multiply"/><path d="M8.55,6.15A1.23,1.23,0,1,1,7.32,7.38,1.23,1.23,0,0,1,8.55,6.15Z" fill="#d3d5d6" opacity="0.76" style="mix-blend-mode:multiply"/><path d="M8.55,6.15A1.23,1.23,0,1,1,7.32,7.38,1.23,1.23,0,0,1,8.55,6.15Z" fill="#d3d5d6" opacity="0.75" style="mix-blend-mode:multiply"/><path d="M8.55,6.15A1.23,1.23,0,1,1,7.32,7.38,1.23,1.23,0,0,1,8.55,6.15Z" fill="#d4d5d7" opacity="0.75" style="mix-blend-mode:multiply"/><path d="M8.55,6.15A1.23,1.23,0,1,1,7.32,7.38,1.23,1.23,0,0,1,8.55,6.15Z" fill="#d4d5d7" opacity="0.74" style="mix-blend-mode:multiply"/><path d="M8.55,6.15A1.23,1.23,0,1,1,7.32,7.38,1.24,1.24,0,0,1,8.55,6.15Z" fill="#d4d6d7" opacity="0.74" style="mix-blend-mode:multiply"/><path d="M8.55,6.15A1.23,1.23,0,1,1,7.32,7.38,1.24,1.24,0,0,1,8.55,6.15Z" fill="#d5d6d8" opacity="0.73" style="mix-blend-mode:multiply"/><path d="M8.55,6.15A1.23,1.23,0,1,1,7.32,7.38,1.24,1.24,0,0,1,8.55,6.15Z" fill="#d5d6d8" opacity="0.73" style="mix-blend-mode:multiply"/><path d="M8.56,6.15A1.23,1.23,0,1,1,7.32,7.38,1.23,1.23,0,0,1,8.56,6.15Z" fill="#d5d7d8" opacity="0.72" style="mix-blend-mode:multiply"/><path d="M8.56,6.15A1.23,1.23,0,1,1,7.32,7.38,1.23,1.23,0,0,1,8.56,6.15Z" fill="#d5d7d8" opacity="0.72" style="mix-blend-mode:multiply"/><path d="M8.56,6.15a1.24,1.24,0,0,1,0,2.47,1.24,1.24,0,1,1,0-2.47Z" fill="#d6d7d9" opacity="0.71" style="mix-blend-mode:multiply"/><path d="M8.56,6.15A1.24,1.24,0,1,1,7.33,7.38,1.23,1.23,0,0,1,8.56,6.15Z" fill="#d6d7d9" opacity="0.71" style="mix-blend-mode:multiply"/><path d="M8.56,6.15A1.24,1.24,0,1,1,7.33,7.38,1.23,1.23,0,0,1,8.56,6.15Z" fill="#d6d8d9" opacity="0.7" style="mix-blend-mode:multiply"/><path d="M8.56,6.15A1.24,1.24,0,1,1,7.33,7.39,1.24,1.24,0,0,1,8.56,6.15Z" fill="#d7d8d9" opacity="0.7" style="mix-blend-mode:multiply"/><path d="M8.56,6.15A1.24,1.24,0,1,1,7.33,7.39,1.24,1.24,0,0,1,8.56,6.15Z" fill="#d7d8da" opacity="0.69" style="mix-blend-mode:multiply"/><path d="M8.56,6.15A1.24,1.24,0,1,1,7.33,7.39,1.24,1.24,0,0,1,8.56,6.15Z" fill="#d7d9da" opacity="0.69" style="mix-blend-mode:multiply"/><path d="M8.56,6.16A1.23,1.23,0,1,1,7.33,7.39,1.23,1.23,0,0,1,8.56,6.16Z" fill="#d7d9da" opacity="0.68" style="mix-blend-mode:multiply"/><path d="M8.56,6.16A1.23,1.23,0,1,1,7.33,7.39,1.23,1.23,0,0,1,8.56,6.16Z" fill="#d8d9da" opacity="0.68" style="mix-blend-mode:multiply"/><path d="M8.56,6.16A1.23,1.23,0,1,1,7.33,7.39,1.23,1.23,0,0,1,8.56,6.16Z" fill="#d8d9db" opacity="0.67" style="mix-blend-mode:multiply"/><path d="M8.56,6.16A1.23,1.23,0,1,1,7.33,7.39,1.23,1.23,0,0,1,8.56,6.16Z" fill="#d8dadb" opacity="0.67" style="mix-blend-mode:multiply"/><path d="M8.56,6.16A1.23,1.23,0,1,1,7.33,7.39,1.23,1.23,0,0,1,8.56,6.16Z" fill="#d9dadb" opacity="0.66" style="mix-blend-mode:multiply"/><path d="M8.56,6.16A1.23,1.23,0,1,1,7.33,7.39,1.23,1.23,0,0,1,8.56,6.16Z" fill="#d9dadc" opacity="0.66" style="mix-blend-mode:multiply"/><path d="M8.56,6.16A1.23,1.23,0,1,1,7.33,7.39,1.24,1.24,0,0,1,8.56,6.16Z" fill="#d9dbdc" opacity="0.65" style="mix-blend-mode:multiply"/><path d="M8.56,6.16A1.23,1.23,0,1,1,7.33,7.39,1.24,1.24,0,0,1,8.56,6.16Z" fill="#d9dbdc" opacity="0.65" style="mix-blend-mode:multiply"/><path d="M8.56,6.16A1.23,1.23,0,1,1,7.33,7.39,1.24,1.24,0,0,1,8.56,6.16Z" fill="#dadbdc" opacity="0.64" style="mix-blend-mode:multiply"/><path d="M8.57,6.16A1.24,1.24,0,1,1,7.33,7.39,1.23,1.23,0,0,1,8.57,6.16Z" fill="#dadbdd" opacity="0.64" style="mix-blend-mode:multiply"/><path d="M8.57,6.16a1.24,1.24,0,0,1,0,2.47,1.24,1.24,0,1,1,0-2.47Z" fill="#dadcdd" opacity="0.63" style="mix-blend-mode:multiply"/><path d="M8.57,6.16A1.24,1.24,0,1,1,7.33,7.4,1.23,1.23,0,0,1,8.57,6.16Z" fill="#dbdcdd" opacity="0.63" style="mix-blend-mode:multiply"/><path d="M8.57,6.16A1.24,1.24,0,1,1,7.34,7.4,1.24,1.24,0,0,1,8.57,6.16Z" fill="#dbdcdd" opacity="0.62" style="mix-blend-mode:multiply"/><path d="M8.57,6.16A1.24,1.24,0,1,1,7.34,7.4,1.24,1.24,0,0,1,8.57,6.16Z" fill="#dbdcde" opacity="0.62" style="mix-blend-mode:multiply"/><path d="M8.57,6.17A1.23,1.23,0,1,1,7.34,7.4,1.23,1.23,0,0,1,8.57,6.17Z" fill="#dcddde" opacity="0.61" style="mix-blend-mode:multiply"/><path d="M8.57,6.17A1.23,1.23,0,1,1,7.34,7.4,1.23,1.23,0,0,1,8.57,6.17Z" fill="#dcddde" opacity="0.61" style="mix-blend-mode:multiply"/><path d="M8.57,6.17A1.23,1.23,0,1,1,7.34,7.4,1.23,1.23,0,0,1,8.57,6.17Z" fill="#dcddde" opacity="0.6" style="mix-blend-mode:multiply"/><path d="M8.57,6.17A1.23,1.23,0,1,1,7.34,7.4,1.23,1.23,0,0,1,8.57,6.17Z" fill="#dcdedf" opacity="0.6" style="mix-blend-mode:multiply"/><path d="M8.57,6.17A1.23,1.23,0,1,1,7.34,7.4,1.23,1.23,0,0,1,8.57,6.17Z" fill="#dddedf" opacity="0.59" style="mix-blend-mode:multiply"/><path d="M8.57,6.17A1.23,1.23,0,1,1,7.34,7.4,1.23,1.23,0,0,1,8.57,6.17Z" fill="#dddedf" opacity="0.59" style="mix-blend-mode:multiply"/><path d="M8.57,6.17A1.23,1.23,0,1,1,7.34,7.4,1.23,1.23,0,0,1,8.57,6.17Z" fill="#dddee0" opacity="0.58" style="mix-blend-mode:multiply"/><path d="M8.57,6.17A1.23,1.23,0,1,1,7.34,7.4,1.23,1.23,0,0,1,8.57,6.17Z" fill="#dedfe0" opacity="0.58" style="mix-blend-mode:multiply"/><path d="M8.57,6.17A1.23,1.23,0,1,1,7.34,7.4,1.23,1.23,0,0,1,8.57,6.17Z" fill="#dedfe0" opacity="0.57" style="mix-blend-mode:multiply"/><path d="M8.57,6.17A1.24,1.24,0,1,1,7.34,7.4,1.24,1.24,0,0,1,8.57,6.17Z" fill="#dedfe0" opacity="0.57" style="mix-blend-mode:multiply"/><path d="M8.57,6.17A1.24,1.24,0,1,1,7.34,7.4,1.24,1.24,0,0,1,8.57,6.17Z" fill="#dee0e1" opacity="0.56" style="mix-blend-mode:multiply"/><path d="M8.57,6.17A1.24,1.24,0,1,1,7.34,7.41,1.24,1.24,0,0,1,8.57,6.17Z" fill="#dfe0e1" opacity="0.56" style="mix-blend-mode:multiply"/><path d="M8.58,6.17A1.24,1.24,0,1,1,7.34,7.41,1.24,1.24,0,0,1,8.58,6.17Z" fill="#dfe0e1" opacity="0.55" style="mix-blend-mode:multiply"/><path d="M8.58,6.17A1.24,1.24,0,1,1,7.34,7.41,1.24,1.24,0,0,1,8.58,6.17Z" fill="#dfe0e1" opacity="0.55" style="mix-blend-mode:multiply"/><path d="M8.58,6.18A1.23,1.23,0,1,1,7.34,7.41,1.23,1.23,0,0,1,8.58,6.18Z" fill="#e0e1e2" opacity="0.54" style="mix-blend-mode:multiply"/><path d="M8.58,6.18A1.23,1.23,0,1,1,7.35,7.41,1.23,1.23,0,0,1,8.58,6.18Z" fill="#e0e1e2" opacity="0.54" style="mix-blend-mode:multiply"/><path d="M8.58,6.18A1.23,1.23,0,1,1,7.35,7.41,1.23,1.23,0,0,1,8.58,6.18Z" fill="#e0e1e2" opacity="0.53" style="mix-blend-mode:multiply"/><path d="M8.58,6.18A1.23,1.23,0,1,1,7.35,7.41,1.23,1.23,0,0,1,8.58,6.18Z" fill="#e0e1e3" opacity="0.53" style="mix-blend-mode:multiply"/><path d="M8.58,6.18A1.23,1.23,0,1,1,7.35,7.41,1.23,1.23,0,0,1,8.58,6.18Z" fill="#e1e2e3" opacity="0.52" style="mix-blend-mode:multiply"/><path d="M8.58,6.18A1.23,1.23,0,1,1,7.35,7.41,1.23,1.23,0,0,1,8.58,6.18Z" fill="#e1e2e3" opacity="0.52" style="mix-blend-mode:multiply"/><path d="M8.58,6.18A1.23,1.23,0,1,1,7.35,7.41,1.23,1.23,0,0,1,8.58,6.18Z" fill="#e1e2e3" opacity="0.51" style="mix-blend-mode:multiply"/><path d="M8.58,6.18A1.23,1.23,0,1,1,7.35,7.41,1.23,1.23,0,0,1,8.58,6.18Z" fill="#e2e3e4" opacity="0.51" style="mix-blend-mode:multiply"/><path d="M8.58,6.18A1.23,1.23,0,1,1,7.35,7.41,1.23,1.23,0,0,1,8.58,6.18Z" fill="#e2e3e4" opacity="0.5" style="mix-blend-mode:multiply"/><path d="M8.58,6.18A1.24,1.24,0,1,1,7.35,7.41,1.23,1.23,0,0,1,8.58,6.18Z" fill="#e2e3e4" opacity="0.5" style="mix-blend-mode:multiply"/><path d="M8.58,6.18A1.24,1.24,0,1,1,7.35,7.41,1.23,1.23,0,0,1,8.58,6.18Z" fill="#e2e3e4" opacity="0.49" style="mix-blend-mode:multiply"/><path d="M8.58,6.18A1.24,1.24,0,1,1,7.35,7.42,1.23,1.23,0,0,1,8.58,6.18Z" fill="#e3e4e5" opacity="0.49" style="mix-blend-mode:multiply"/><path d="M8.58,6.18a1.24,1.24,0,1,1,0,2.47,1.24,1.24,0,0,1,0-2.47Z" fill="#e3e4e5" opacity="0.48" style="mix-blend-mode:multiply"/><path d="M8.58,6.18a1.24,1.24,0,1,1,0,2.47,1.24,1.24,0,0,1,0-2.47Z" fill="#e3e4e5" opacity="0.48" style="mix-blend-mode:multiply"/><path d="M8.58,6.19A1.23,1.23,0,1,1,7.35,7.42,1.24,1.24,0,0,1,8.58,6.19Z" fill="#e4e5e5" opacity="0.47" style="mix-blend-mode:multiply"/><path d="M8.59,6.19A1.23,1.23,0,1,1,7.35,7.42,1.23,1.23,0,0,1,8.59,6.19Z" fill="#e4e5e6" opacity="0.47" style="mix-blend-mode:multiply"/><path d="M8.59,6.19A1.23,1.23,0,1,1,7.35,7.42,1.23,1.23,0,0,1,8.59,6.19Z" fill="#e4e5e6" opacity="0.46" style="mix-blend-mode:multiply"/><path d="M8.59,6.19A1.23,1.23,0,1,1,7.35,7.42,1.23,1.23,0,0,1,8.59,6.19Z" fill="#e4e5e6" opacity="0.46" style="mix-blend-mode:multiply"/><path d="M8.59,6.19A1.23,1.23,0,1,1,7.36,7.42,1.23,1.23,0,0,1,8.59,6.19Z" fill="#e5e6e7" opacity="0.45" style="mix-blend-mode:multiply"/><path d="M8.59,6.19A1.23,1.23,0,1,1,7.36,7.42,1.23,1.23,0,0,1,8.59,6.19Z" fill="#e5e6e7" opacity="0.45" style="mix-blend-mode:multiply"/><path d="M8.59,6.19A1.23,1.23,0,1,1,7.36,7.42,1.23,1.23,0,0,1,8.59,6.19Z" fill="#e5e6e7" opacity="0.44" style="mix-blend-mode:multiply"/><path d="M8.59,6.19A1.23,1.23,0,1,1,7.36,7.42,1.23,1.23,0,0,1,8.59,6.19Z" fill="#e6e6e7" opacity="0.44" style="mix-blend-mode:multiply"/><path d="M8.59,6.19A1.23,1.23,0,1,1,7.36,7.42,1.23,1.23,0,0,1,8.59,6.19Z" fill="#e6e7e8" opacity="0.43" style="mix-blend-mode:multiply"/><path d="M8.59,6.19A1.24,1.24,0,1,1,7.36,7.42,1.23,1.23,0,0,1,8.59,6.19Z" fill="#e6e7e8" opacity="0.43" style="mix-blend-mode:multiply"/><path d="M8.59,6.19A1.24,1.24,0,1,1,7.36,7.42,1.23,1.23,0,0,1,8.59,6.19Z" fill="#e6e7e8" opacity="0.42" style="mix-blend-mode:multiply"/><path d="M8.59,6.19A1.24,1.24,0,1,1,7.36,7.42,1.23,1.23,0,0,1,8.59,6.19Z" fill="#e7e8e8" opacity="0.42" style="mix-blend-mode:multiply"/><path d="M8.59,6.19A1.24,1.24,0,1,1,7.36,7.43,1.24,1.24,0,0,1,8.59,6.19Z" fill="#e7e8e9" opacity="0.41" style="mix-blend-mode:multiply"/><path d="M8.59,6.19A1.24,1.24,0,1,1,7.36,7.43,1.24,1.24,0,0,1,8.59,6.19Z" fill="#e7e8e9" opacity="0.41" style="mix-blend-mode:multiply"/><path d="M8.59,6.2A1.23,1.23,0,1,1,7.36,7.43,1.23,1.23,0,0,1,8.59,6.2Z" fill="#e8e8e9" opacity="0.4" style="mix-blend-mode:multiply"/><path d="M8.59,6.2A1.23,1.23,0,1,1,7.36,7.43,1.24,1.24,0,0,1,8.59,6.2Z" fill="#e8e9ea" opacity="0.4" style="mix-blend-mode:multiply"/><path d="M8.59,6.2A1.23,1.23,0,1,1,7.36,7.43,1.24,1.24,0,0,1,8.59,6.2Z" fill="#e8e9ea" opacity="0.39" style="mix-blend-mode:multiply"/><path d="M8.59,6.2A1.23,1.23,0,1,1,7.36,7.43,1.24,1.24,0,0,1,8.59,6.2Z" fill="#e8e9ea" opacity="0.39" style="mix-blend-mode:multiply"/><path d="M8.6,6.2A1.23,1.23,0,1,1,7.36,7.43,1.23,1.23,0,0,1,8.6,6.2Z" fill="#e9eaea" opacity="0.38" style="mix-blend-mode:multiply"/><path d="M8.6,6.2A1.23,1.23,0,1,1,7.36,7.43,1.23,1.23,0,0,1,8.6,6.2Z" fill="#e9eaeb" opacity="0.38" style="mix-blend-mode:multiply"/><path d="M8.6,6.2A1.23,1.23,0,1,1,7.36,7.43,1.23,1.23,0,0,1,8.6,6.2Z" fill="#e9eaeb" opacity="0.37" style="mix-blend-mode:multiply"/><path d="M8.6,6.2A1.23,1.23,0,1,1,7.37,7.43,1.23,1.23,0,0,1,8.6,6.2Z" fill="#eaeaeb" opacity="0.37" style="mix-blend-mode:multiply"/><path d="M8.6,6.2A1.23,1.23,0,1,1,7.37,7.43,1.23,1.23,0,0,1,8.6,6.2Z" fill="#eaebeb" opacity="0.36" style="mix-blend-mode:multiply"/><path d="M8.6,6.2A1.24,1.24,0,1,1,7.37,7.43,1.23,1.23,0,0,1,8.6,6.2Z" fill="#eaebec" opacity="0.36" style="mix-blend-mode:multiply"/><path d="M8.6,6.2A1.24,1.24,0,1,1,7.37,7.43,1.23,1.23,0,0,1,8.6,6.2Z" fill="#ebebec" opacity="0.35" style="mix-blend-mode:multiply"/><path d="M8.6,6.2A1.24,1.24,0,1,1,7.37,7.43,1.23,1.23,0,0,1,8.6,6.2Z" fill="#ebebec" opacity="0.35" style="mix-blend-mode:multiply"/><path d="M8.6,6.2A1.24,1.24,0,1,1,7.37,7.44,1.24,1.24,0,0,1,8.6,6.2Z" fill="#ebecec" opacity="0.34" style="mix-blend-mode:multiply"/><path d="M8.6,6.2A1.24,1.24,0,1,1,7.37,7.44,1.24,1.24,0,0,1,8.6,6.2Z" fill="#ebeced" opacity="0.34" style="mix-blend-mode:multiply"/><path d="M8.6,6.21A1.23,1.23,0,1,1,7.37,7.44,1.23,1.23,0,0,1,8.6,6.21Z" fill="#ececed" opacity="0.33" style="mix-blend-mode:multiply"/><path d="M8.6,6.21A1.23,1.23,0,1,1,7.37,7.44,1.23,1.23,0,0,1,8.6,6.21Z" fill="#eceded" opacity="0.33" style="mix-blend-mode:multiply"/><path d="M8.6,6.21A1.23,1.23,0,1,1,7.37,7.44,1.23,1.23,0,0,1,8.6,6.21Z" fill="#ecedee" opacity="0.32" style="mix-blend-mode:multiply"/><path d="M8.6,6.21A1.23,1.23,0,1,1,7.37,7.44,1.23,1.23,0,0,1,8.6,6.21Z" fill="#ededee" opacity="0.32" style="mix-blend-mode:multiply"/><path d="M8.6,6.21A1.23,1.23,0,1,1,7.37,7.44,1.24,1.24,0,0,1,8.6,6.21Z" fill="#ededee" opacity="0.31" style="mix-blend-mode:multiply"/><path d="M8.6,6.21A1.23,1.23,0,1,1,7.37,7.44,1.24,1.24,0,0,1,8.6,6.21Z" fill="#edeeee" opacity="0.31" style="mix-blend-mode:multiply"/><path d="M8.6,6.21A1.23,1.23,0,1,1,7.37,7.44,1.24,1.24,0,0,1,8.6,6.21Z" fill="#edeeef" opacity="0.3" style="mix-blend-mode:multiply"/><path d="M8.61,6.21A1.23,1.23,0,1,1,7.37,7.44,1.23,1.23,0,0,1,8.61,6.21Z" fill="#eeeeef" opacity="0.3" style="mix-blend-mode:multiply"/><path d="M8.61,6.21A1.23,1.23,0,1,1,7.37,7.44,1.23,1.23,0,0,1,8.61,6.21Z" fill="#eeefef" opacity="0.29" style="mix-blend-mode:multiply"/><path d="M8.61,6.21a1.24,1.24,0,0,1,0,2.47,1.24,1.24,0,1,1,0-2.47Z" fill="#eeefef" opacity="0.29" style="mix-blend-mode:multiply"/><path d="M8.61,6.21A1.24,1.24,0,1,1,7.38,7.44,1.23,1.23,0,0,1,8.61,6.21Z" fill="#efeff0" opacity="0.28" style="mix-blend-mode:multiply"/><path d="M8.61,6.21A1.24,1.24,0,1,1,7.38,7.44,1.23,1.23,0,0,1,8.61,6.21Z" fill="#efeff0" opacity="0.28" style="mix-blend-mode:multiply"/><path d="M8.61,6.21A1.24,1.24,0,1,1,7.38,7.45,1.24,1.24,0,0,1,8.61,6.21Z" fill="#eff0f0" opacity="0.27" style="mix-blend-mode:multiply"/><path d="M8.61,6.21A1.24,1.24,0,1,1,7.38,7.45,1.24,1.24,0,0,1,8.61,6.21Z" fill="#eff0f0" opacity="0.27" style="mix-blend-mode:multiply"/><path d="M8.61,6.22A1.23,1.23,0,1,1,7.38,7.45,1.23,1.23,0,0,1,8.61,6.22Z" fill="#f0f0f1" opacity="0.26" style="mix-blend-mode:multiply"/><path d="M8.61,6.22A1.23,1.23,0,1,1,7.38,7.45,1.23,1.23,0,0,1,8.61,6.22Z" fill="#f0f1f1" opacity="0.26" style="mix-blend-mode:multiply"/><path d="M8.61,6.22A1.23,1.23,0,1,1,7.38,7.45,1.23,1.23,0,0,1,8.61,6.22Z" fill="#f0f1f1" opacity="0.25" style="mix-blend-mode:multiply"/><path d="M8.61,6.22A1.23,1.23,0,1,1,7.38,7.45,1.23,1.23,0,0,1,8.61,6.22Z" fill="#f1f1f2" opacity="0.25" style="mix-blend-mode:multiply"/><path d="M8.61,6.22A1.23,1.23,0,1,1,7.38,7.45,1.23,1.23,0,0,1,8.61,6.22Z" fill="#f1f1f2" opacity="0.24" style="mix-blend-mode:multiply"/><path d="M8.61,6.22A1.23,1.23,0,1,1,7.38,7.45,1.23,1.23,0,0,1,8.61,6.22Z" fill="#f1f2f2" opacity="0.24" style="mix-blend-mode:multiply"/><path d="M8.61,6.22A1.23,1.23,0,1,1,7.38,7.45,1.23,1.23,0,0,1,8.61,6.22Z" fill="#f1f2f2" opacity="0.23" style="mix-blend-mode:multiply"/><path d="M8.61,6.22A1.23,1.23,0,1,1,7.38,7.45,1.24,1.24,0,0,1,8.61,6.22Z" fill="#f2f2f3" opacity="0.23" style="mix-blend-mode:multiply"/><path d="M8.61,6.22A1.23,1.23,0,1,1,7.38,7.45,1.24,1.24,0,0,1,8.61,6.22Z" fill="#f2f2f3" opacity="0.22" style="mix-blend-mode:multiply"/><path d="M8.61,6.22A1.24,1.24,0,1,1,7.38,7.45,1.24,1.24,0,0,1,8.61,6.22Z" fill="#f2f3f3" opacity="0.22" style="mix-blend-mode:multiply"/><path d="M8.62,6.22A1.24,1.24,0,1,1,7.38,7.45,1.23,1.23,0,0,1,8.62,6.22Z" fill="#f3f3f3" opacity="0.21" style="mix-blend-mode:multiply"/><path d="M8.62,6.22A1.24,1.24,0,1,1,7.38,7.45,1.23,1.23,0,0,1,8.62,6.22Z" fill="#f3f3f4" opacity="0.21" style="mix-blend-mode:multiply"/><path d="M8.62,6.22A1.24,1.24,0,1,1,7.38,7.46,1.24,1.24,0,0,1,8.62,6.22Z" fill="#f3f4f4" opacity="0.2" style="mix-blend-mode:multiply"/><path d="M8.62,6.22A1.24,1.24,0,1,1,7.39,7.46,1.24,1.24,0,0,1,8.62,6.22Z" fill="#f3f4f4" opacity="0.2" style="mix-blend-mode:multiply"/><path d="M8.62,6.23A1.23,1.23,0,1,1,7.39,7.46,1.23,1.23,0,0,1,8.62,6.23Z" fill="#f4f4f5" opacity="0.19" style="mix-blend-mode:multiply"/><path d="M8.62,6.23A1.23,1.23,0,1,1,7.39,7.46,1.23,1.23,0,0,1,8.62,6.23Z" fill="#f4f4f5" opacity="0.19" style="mix-blend-mode:multiply"/><path d="M8.62,6.23A1.23,1.23,0,1,1,7.39,7.46,1.23,1.23,0,0,1,8.62,6.23Z" fill="#f4f5f5" opacity="0.18" style="mix-blend-mode:multiply"/><path d="M8.62,6.23A1.23,1.23,0,1,1,7.39,7.46,1.23,1.23,0,0,1,8.62,6.23Z" fill="#f5f5f5" opacity="0.18" style="mix-blend-mode:multiply"/><path d="M8.62,6.23A1.23,1.23,0,1,1,7.39,7.46,1.23,1.23,0,0,1,8.62,6.23Z" fill="#f5f5f6" opacity="0.17" style="mix-blend-mode:multiply"/><path d="M8.62,6.23A1.23,1.23,0,1,1,7.39,7.46,1.23,1.23,0,0,1,8.62,6.23Z" fill="#f5f6f6" opacity="0.17" style="mix-blend-mode:multiply"/><path d="M8.62,6.23A1.23,1.23,0,1,1,7.39,7.46,1.23,1.23,0,0,1,8.62,6.23Z" fill="#f5f6f6" opacity="0.16" style="mix-blend-mode:multiply"/><path d="M8.62,6.23A1.23,1.23,0,1,1,7.39,7.46,1.23,1.23,0,0,1,8.62,6.23Z" fill="#f6f6f6" opacity="0.16" style="mix-blend-mode:multiply"/><path d="M8.62,6.23A1.23,1.23,0,1,1,7.39,7.46,1.23,1.23,0,0,1,8.62,6.23Z" fill="#f6f6f7" opacity="0.15" style="mix-blend-mode:multiply"/><path d="M8.62,6.23A1.24,1.24,0,1,1,7.39,7.46,1.23,1.23,0,0,1,8.62,6.23Z" fill="#f6f7f7" opacity="0.15" style="mix-blend-mode:multiply"/><path d="M8.62,6.23A1.24,1.24,0,1,1,7.39,7.46,1.24,1.24,0,0,1,8.62,6.23Z" fill="#f7f7f7" opacity="0.14" style="mix-blend-mode:multiply"/><path d="M8.62,6.23A1.24,1.24,0,1,1,7.39,7.46,1.24,1.24,0,0,1,8.62,6.23Z" fill="#f7f7f7" opacity="0.14" style="mix-blend-mode:multiply"/><path d="M8.62,6.23a1.24,1.24,0,1,1,0,2.47,1.24,1.24,0,0,1,0-2.47Z" fill="#f7f7f8" opacity="0.13" style="mix-blend-mode:multiply"/><path d="M8.63,6.23A1.24,1.24,0,1,1,7.39,7.47,1.24,1.24,0,0,1,8.63,6.23Z" fill="#f7f8f8" opacity="0.13" style="mix-blend-mode:multiply"/><path d="M8.63,6.24A1.23,1.23,0,1,1,7.39,7.47,1.23,1.23,0,0,1,8.63,6.24Z" fill="#f8f8f8" opacity="0.12" style="mix-blend-mode:multiply"/><path d="M8.63,6.24A1.23,1.23,0,1,1,7.39,7.47,1.23,1.23,0,0,1,8.63,6.24Z" fill="#f8f8f9" opacity="0.12" style="mix-blend-mode:multiply"/><path d="M8.63,6.24A1.23,1.23,0,1,1,7.4,7.47,1.23,1.23,0,0,1,8.63,6.24Z" fill="#f8f9f9" opacity="0.11" style="mix-blend-mode:multiply"/><path d="M8.63,6.24A1.23,1.23,0,1,1,7.4,7.47,1.23,1.23,0,0,1,8.63,6.24Z" fill="#f9f9f9" opacity="0.11" style="mix-blend-mode:multiply"/><path d="M8.63,6.24A1.23,1.23,0,1,1,7.4,7.47,1.23,1.23,0,0,1,8.63,6.24Z" fill="#f9f9f9" opacity="0.1" style="mix-blend-mode:multiply"/><path d="M8.63,6.24A1.23,1.23,0,1,1,7.4,7.47,1.23,1.23,0,0,1,8.63,6.24Z" fill="#f9f9fa" opacity="0.1" style="mix-blend-mode:multiply"/><path d="M8.63,6.24A1.23,1.23,0,1,1,7.4,7.47,1.23,1.23,0,0,1,8.63,6.24Z" fill="#fafafa" opacity="0.09" style="mix-blend-mode:multiply"/><path d="M8.63,6.24A1.23,1.23,0,1,1,7.4,7.47,1.23,1.23,0,0,1,8.63,6.24Z" fill="#fafafa" opacity="0.09" style="mix-blend-mode:multiply"/><path d="M8.63,6.24A1.23,1.23,0,1,1,7.4,7.47,1.23,1.23,0,0,1,8.63,6.24Z" fill="#fafafa" opacity="0.08" style="mix-blend-mode:multiply"/><path d="M8.63,6.24A1.24,1.24,0,1,1,7.4,7.47,1.23,1.23,0,0,1,8.63,6.24Z" fill="#fafbfb" opacity="0.08" style="mix-blend-mode:multiply"/><path d="M8.63,6.24A1.24,1.24,0,1,1,7.4,7.47,1.23,1.23,0,0,1,8.63,6.24Z" fill="#fbfbfb" opacity="0.07" style="mix-blend-mode:multiply"/><path d="M8.63,6.24A1.24,1.24,0,1,1,7.4,7.47,1.23,1.23,0,0,1,8.63,6.24Z" fill="#fbfbfb" opacity="0.07" style="mix-blend-mode:multiply"/><path d="M8.63,6.24A1.24,1.24,0,1,1,7.4,7.48,1.24,1.24,0,0,1,8.63,6.24Z" fill="#fbfbfc" opacity="0.06" style="mix-blend-mode:multiply"/><path d="M8.63,6.24a1.24,1.24,0,1,1,0,2.47,1.24,1.24,0,0,1,0-2.47Z" fill="#fcfcfc" opacity="0.06" style="mix-blend-mode:multiply"/><path d="M8.63,6.24a1.24,1.24,0,1,1,0,2.47,1.24,1.24,0,0,1,0-2.47Z" fill="#fcfcfc" opacity="0.05" style="mix-blend-mode:multiply"/><path d="M8.63,6.25A1.23,1.23,0,1,1,7.4,7.48,1.24,1.24,0,0,1,8.63,6.25Z" fill="#fcfcfc" opacity="0.05" style="mix-blend-mode:multiply"/><path d="M8.64,6.25A1.23,1.23,0,1,1,7.4,7.48,1.23,1.23,0,0,1,8.64,6.25Z" fill="#fcfcfd" opacity="0.04" style="mix-blend-mode:multiply"/><path d="M8.64,6.25A1.23,1.23,0,1,1,7.4,7.48,1.23,1.23,0,0,1,8.64,6.25Z" fill="#fdfdfd" opacity="0.04" style="mix-blend-mode:multiply"/><path d="M8.64,6.25A1.23,1.23,0,1,1,7.4,7.48,1.23,1.23,0,0,1,8.64,6.25Z" fill="#fdfdfd" opacity="0.03" style="mix-blend-mode:multiply"/><path d="M8.64,6.25A1.23,1.23,0,1,1,7.41,7.48,1.23,1.23,0,0,1,8.64,6.25Z" fill="#fdfdfd" opacity="0.03" style="mix-blend-mode:multiply"/><path d="M8.64,6.25A1.23,1.23,0,1,1,7.41,7.48,1.23,1.23,0,0,1,8.64,6.25Z" fill="#fefefe" opacity="0.02" style="mix-blend-mode:multiply"/><path d="M8.64,6.25A1.23,1.23,0,1,1,7.41,7.48,1.23,1.23,0,0,1,8.64,6.25Z" fill="#fefefe" opacity="0.02" style="mix-blend-mode:multiply"/><path d="M8.64,6.25A1.23,1.23,0,1,1,7.41,7.48,1.23,1.23,0,0,1,8.64,6.25Z" fill="#fefefe" opacity="0.01" style="mix-blend-mode:multiply"/><path d="M8.64,6.25A1.24,1.24,0,1,1,7.41,7.48,1.23,1.23,0,0,1,8.64,6.25Z" fill="#fefefe" opacity="0.01" style="mix-blend-mode:multiply"/><path d="M8.64,6.25A1.24,1.24,0,1,1,7.41,7.48,1.23,1.23,0,0,1,8.64,6.25Z" fill="#fff" opacity="0" style="mix-blend-mode:multiply"/><path d="M9.87,7.48A1.23,1.23,0,1,1,8.64,6.25,1.24,1.24,0,0,1,9.87,7.48Z" fill="#fff" opacity="0" style="mix-blend-mode:multiply"/></g></g><path d="M15.26,6.1s0-.06-.08-.06h-.06v.2h.05V6.16l.05.08h.06l-.06-.08A.07.07,0,0,0,15.26,6.1Zm-.09,0h0v0h0s0,0,0,0S15.2,6.13,15.17,6.13Z" fill="#231f20"/><path d="M15.19,6a.18.18,0,0,0,0,.36.18.18,0,1,0,0-.36Zm0,.33a.15.15,0,1,1,.14-.15A.15.15,0,0,1,15.19,6.29Z" fill="#231f20"/></g></g></svg>