<svg xmlns="http://www.w3.org/2000/svg" width="16" height="16" viewBox="0 0 16 16">
<style>.mae1{fill:#0099df}.mae2{fill:#eb001b}.mae3{fill:#231f20}.mae4{fill:#6c6bbd}</style>
<g><path d="M15.54 9.77v-.16h.06-.16.06v.16zm.32 0v-.19l-.06.13-.06-.13v.19-.14l.05.12.05-.12v.14z" class="mae1"/><path class="mae4" d="M5.85 2.82h4.33v7.77H5.85z"/><path d="M6.12 6.71A4.93 4.93 0 0 1 8 2.82a4.94 4.94 0 1 0-3 8.83 4.87 4.87 0 0 0 3-1.06 4.93 4.93 0 0 1-1.88-3.88" class="mae2"/><path d="M16 6.71a5 5 0 0 1-5 4.94 4.87 4.87 0 0 1-3-1.06 5 5 0 0 0 0-7.77 4.94 4.94 0 0 1 8 3.89" class="mae1"/><path d="M4.7 14.14v-.83a.48.48 0 0 0-.51-.52.51.51 0 0 0-.46.23.5.5 0 0 0-.44-.23.41.41 0 0 0-.38.2v-.17h-.29v1.32h.29v-.73a.31.31 0 0 1 .32-.35c.19 0 .29.12.29.35v.73h.29v-.73a.31.31 0 0 1 .32-.35c.19 0 .29.12.29.35v.73zm1.61-.66v-.66H6V13a.5.5 0 0 0-.42-.19.69.69 0 0 0 0 1.38A.5.5 0 0 0 6 14v.16h.28zm-1.06 0a.4.4 0 1 1 .4.42.39.39 0 0 1-.4-.42m7.42-.69a.88.88 0 0 1 .29.05.86.86 0 0 1 .22.15.48.48 0 0 1 .15.22.62.62 0 0 1 .05.27.64.64 0 0 1-.05.28.54.54 0 0 1-.15.22.86.86 0 0 1-.22.15.88.88 0 0 1-.29 0 .87.87 0 0 1-.28 0 .71.71 0 0 1-.22-.15.54.54 0 0 1-.15-.22.64.64 0 0 1 0-.28.62.62 0 0 1 0-.27.48.48 0 0 1 .15-.22.71.71 0 0 1 .22-.15.87.87 0 0 1 .28-.05m0 .27a.45.45 0 0 0-.16 0 .44.44 0 0 0-.22.22.51.51 0 0 0 0 .17.52.52 0 0 0 0 .18.44.44 0 0 0 .22.22.45.45 0 0 0 .16 0 .47.47 0 0 0 .17 0 .44.44 0 0 0 .22-.22.52.52 0 0 0 0-.18.51.51 0 0 0 0-.17.44.44 0 0 0-.22-.22.47.47 0 0 0-.17 0m-3.52.1a.84.84 0 0 0-.41-.11c-.15 0-.25 0-.25.15s.1.11.23.13h.13c.29 0 .46.16.46.39s-.22.43-.6.43a1 1 0 0 1-.57-.15l.14-.22a.69.69 0 0 0 .43.13c.2 0 .3-.05.3-.16s-.07-.11-.23-.13h-.13c-.3 0-.46-.17-.46-.39s.22-.42.55-.42a1 1 0 0 1 .54.14zm-1.25.32a.64.64 0 1 0-1.28 0 .65.65 0 0 0 .67.69.82.82 0 0 0 .54-.17l-.14-.22a.62.62 0 0 1-.38.14.35.35 0 0 1-.39-.32h1v-.11m-1-.12a.33.33 0 0 1 .35-.31.32.32 0 0 1 .33.31zm3.65-.28h-.46v.6c0 .13 0 .22.19.22a.56.56 0 0 0 .25-.08l.08.25a.68.68 0 0 1-.35.1c-.34 0-.46-.18-.46-.49v-.6h-.27v-.26h.27v-.39h.29v.39h.46zm1.06-.29a.48.48 0 0 1 .2 0l-.08.27a.42.42 0 0 0-.18 0c-.19 0-.28.12-.28.34v.74H11v-1.33h.28V13a.42.42 0 0 1 .35-.19M13.71 14h.06a.43.43 0 0 1 0 .05.43.43 0 0 0 0 .05h-.11a.11.11 0 0 1 0-.05.07.07 0 0 1 0-.05h.05m0 .23h-.08m0-.16v.05-.05.05V14zm0 0h.05-.05z" class="mae3"/></g></svg>