<svg xmlns="http://www.w3.org/2000/svg" width="16" height="16" viewBox="0 0 16 16">
<style>.mas1{fill:#231f20}.mas2{fill:#f79410}.mas3{fill:#ff5f00}.mas4{fill:#eb001b}.mas5{fill:#f79e1b}</style>
<g><path d="M2.9 14.13v-.82a.5.5 0 0 0-.51-.53.53.53 0 0 0-.47.24.47.47 0 0 0-.43-.24.43.43 0 0 0-.38.2v-.16H.82v1.31h.29v-.73c0-.23.12-.35.32-.35s.29.13.29.35v.73H2v-.73a.32.32 0 0 1 .33-.35c.19 0 .28.13.28.35v.73zm4.27-1.31H6.7v-.4h-.29v.4h-.26v.26h.26v.6c0 .3.12.48.46.48a.72.72 0 0 0 .36-.1l-.08-.24a.54.54 0 0 1-.26.07c-.14 0-.19-.09-.19-.22v-.59h.47zm2.44 0a.38.38 0 0 0-.35.2v-.16H9v1.31h.28v-.74c0-.21.1-.33.28-.33a.38.38 0 0 1 .18 0l.09-.27a.51.51 0 0 0-.2 0m-3.69.14a1 1 0 0 0-.53-.14c-.33 0-.55.16-.55.42s.16.35.45.39h.14c.16 0 .23.06.23.14s-.1.16-.3.16a.74.74 0 0 1-.44-.14l-.15.2a.92.92 0 0 0 .57.17c.38 0 .6-.18.6-.43s-.18-.35-.46-.39h-.14c-.12 0-.22 0-.22-.13s.09-.15.25-.15a.84.84 0 0 1 .41.11zm7.66-.14a.38.38 0 0 0-.35.2v-.16H13v1.31h.28v-.74c0-.21.1-.33.28-.33a.38.38 0 0 1 .18 0l.09-.27a.51.51 0 0 0-.2 0m-3.69.69a.67.67 0 0 0 .71.69.72.72 0 0 0 .47-.15l-.14-.23a.62.62 0 0 1-.34.11.39.39 0 0 1-.4-.42.4.4 0 0 1 .4-.42.56.56 0 0 1 .34.12l.14-.23a.72.72 0 0 0-.47-.16.67.67 0 0 0-.71.69m2.68 0v-.65h-.29V13a.48.48 0 0 0-.41-.2.69.69 0 0 0 0 1.38.48.48 0 0 0 .41-.19v.16h.29zm-1.06 0a.4.4 0 1 1 .4.42.39.39 0 0 1-.4-.42m-3.45-.69a.69.69 0 0 0 0 1.38.82.82 0 0 0 .51-.22l-.14-.21a.6.6 0 0 1-.38.13.36.36 0 0 1-.4-.32h1v-.11a.62.62 0 0 0-.62-.69m0 .26a.33.33 0 0 1 .34.32h-.71a.33.33 0 0 1 .34-.38m7.17.43v-1.14h-.29V13a.48.48 0 0 0-.41-.2.69.69 0 0 0 0 1.38.48.48 0 0 0 .41-.19v.16h.29zm-1.06 0a.4.4 0 1 1 .4.42.39.39 0 0 1-.4-.42m-9.65 0v-.65h-.28V13a.5.5 0 0 0-.42-.2.69.69 0 0 0 0 1.38.5.5 0 0 0 .42-.18v.16h.28zm-1.06 0a.4.4 0 1 1 .4.42.39.39 0 0 1-.4-.42m12.25.47h.05a.13.13 0 0 1 0 .1h-.11v-.05h.06m0 .23V14h-.08v.08m0-.16v.05-.05.08zm0 0h.06-.05z" class="mas1"/><path d="M15.53 9.76V9.6h.07-.17.07v.16zm.32 0v-.19l-.06.13-.05-.13h-.06v.19-.14l.05.12.06-.12v.14z" class="mas2"/><path class="mas3" d="M5.84 2.81h4.33v7.77H5.84z"/><path d="M6.12 6.7A5 5 0 0 1 8 2.81a5 5 0 1 0 0 7.78A5 5 0 0 1 6.12 6.7" class="mas4"/><path d="M16 6.7a4.94 4.94 0 0 1-8 3.89 4.95 4.95 0 0 0 0-7.78 5 5 0 0 1 8 3.89" class="mas5"/></g></svg>

