<svg xmlns="http://www.w3.org/2000/svg" viewBox="0 0 63 16.1" enable-background="new 0 0 63 16.1"><script/><style type="text/css">.st0{fill:#139AD6;} .st1{fill:#fff;} .st2{filter:url(#Adobe_OpacityMaskFilter);} .st3{fill:#FFFFFF;} .st4{mask:url(#b_2_);fill:#fff;} .st5{fill:#fff;}</style><path class="st0" d="M49.1 7.5c-.2 1.2-1.1 1.2-2 1.2h-.6l.4-2.3c0-.1.1-.2.3-.2h.2c.6 0 1.2 0 1.5.4.2.1.2.4.2.9m-.4-3.3h-3.4c-.2 0-.4.2-.5.4l-1.4 8.8c0 .2.1.3.3.3h1.8c.2 0 .3-.1.3-.3l.4-2.5c0-.2.2-.4.5-.4h1.1c2.3 0 3.6-1.1 3.9-3.3.2-.9 0-1.7-.4-2.2-.6-.5-1.5-.8-2.6-.8"/><path class="st1" d="M32.2 10.6c-.2.9-.9 1.6-1.9 1.6-.5 0-.9-.2-1.1-.4-.2-.3-.3-.7-.3-1.2.1-.9.9-1.6 1.8-1.6.5 0 .8.2 1.1.4.3.3.4.8.4 1.2m2.3-3.2h-1.6c-.1 0-.3.1-.3.2l-.1.5-.1-.2c-.4-.5-1.1-.7-1.9-.7-1.8 0-3.4 1.4-3.7 3.3-.2 1 .1 1.9.6 2.5.5.6 1.2.8 2.1.8 1.5 0 2.3-.9 2.3-.9l-.1.5c0 .2.1.3.3.3h1.5c.2 0 .4-.2.5-.4l.9-5.6c-.1-.1-.3-.3-.4-.3m-9.9.1c-.2 1.2-1.1 1.2-2 1.2h-.5l.4-2.3c0-.1.1-.2.3-.2h.2c.6 0 1.2 0 1.5.4.1.1.2.4.1.9m-.4-3.3h-3.4c-.2 0-.4.2-.5.4l-1.4 8.8c0 .2.1.3.3.3h1.6c.2 0 .4-.2.5-.4l.4-2.4c0-.2.2-.4.5-.4h1.1c2.3 0 3.6-1.1 3.9-3.3.2-.9 0-1.7-.4-2.2-.6-.5-1.4-.8-2.6-.8"/><path class="st0" d="M56.6 10.6c-.2.9-.9 1.6-1.9 1.6-.5 0-.9-.2-1.1-.4-.2-.3-.3-.7-.3-1.2.1-.9.9-1.6 1.8-1.6.5 0 .8.2 1.1.4.4.3.5.8.4 1.2m2.3-3.2h-1.6c-.1 0-.3.1-.3.2l-.1.5-.1-.2c-.4-.5-1.1-.7-1.9-.7-1.8 0-3.4 1.4-3.7 3.3-.2 1 .1 1.9.6 2.5.5.6 1.2.8 2.1.8 1.5 0 2.3-.9 2.3-.9l-.1.5c0 .2.1.3.3.3h1.5c.2 0 .4-.2.5-.4l.9-5.6c-.1-.1-.2-.3-.4-.3"/><path class="st1" d="M43.2 7.4h-1.7c-.2 0-.3.1-.4.2l-2.2 3.4-1-3.2c-.1-.2-.2-.3-.5-.3h-1.6c-.2 0-.3.2-.3.4l1.8 5.3-1.7 2.4c-.1.2 0 .5.2.5h1.6c.2 0 .3-.1.4-.2l5.5-7.9c.3-.3.1-.6-.1-.6"/><path class="st0" d="M60.8 4.5l-1.4 9c0 .2.1.3.3.3h1.4c.2 0 .4-.2.5-.4l1.4-8.8c0-.2-.1-.3-.3-.3h-1.6c-.1-.1-.2 0-.3.2"/><g transform="translate(0 3.1)"><defs><filter id="Adobe_OpacityMaskFilter" filterUnits="userSpaceOnUse" x="0" y="-3.1" width="12.3" height="14.2"><feColorMatrix values="1 0 0 0 0 0 1 0 0 0 0 0 1 0 0 0 0 0 1 0"/></filter></defs><mask maskUnits="userSpaceOnUse" x="0" y="-3.1" width="12.3" height="14.2" id="b_2_"><path id="a_2_" class="st3" d="M0 4v-7.1h12.3v14.2h-12.3v-7.1z"/></mask><path class="st4" d="M11.5-1.9c-.7-.8-2-1.2-3.8-1.2h-5c-.3 0-.6.3-.7.6l-2 13.1c0 .3.2.5.4.5h3.1l.8-4.9v.2c.1-.3.4-.6.7-.6h1.5c2.9 0 5.1-1.2 5.8-4.5v-.3c.1-1.3-.1-2.1-.8-2.9"/></g><path class="st0" d="M12.2 4.1v.3c-.7 3.4-2.9 4.5-5.8 4.5h-1.5c-.3 0-.6.3-.7.6l-1 6.1c0 .2.1.4.4.4h2.6c.3 0 .6-.2.6-.5v-.1l.5-3.1v-.2c0-.3.3-.5.6-.5h.4c2.5 0 4.5-1 5-4 .2-1.2.1-2.3-.5-3-.1-.2-.3-.4-.6-.5"/><path class="st5" d="M11.5 3.8l-.3-.1s-.2 0-.3-.1c-.4-.1-.8-.1-1.3-.1h-3.9c-.1 0-.2 0-.3.1-.2.1-.3.3-.3.5l-.8 5.2v.2c.1-.3.4-.6.7-.6h1.5c2.9 0 5.1-1.2 5.8-4.5 0-.1 0-.2.1-.3-.2-.1-.3-.2-.5-.2-.3-.1-.3-.1-.4-.1"/></svg>
