<svg xmlns="http://www.w3.org/2000/svg" width="16" height="16" viewBox="0 0 16 16"><path class="white" d="M0 2.92h16v10.16H0z"/>
<style>.vi1{fill:#006fcf}.vi2{fill:#f7b600}.vi3{fill:#1a1f71}.white{fill:#fff}</style><path class="vi2" d="M.27 11.43h15.46v1.39H.27z"/><path class="vi3" d="M.27 3.19h15.46v1.39H.27z"/><path fill="none" d="M0 2.92h16v10.16H0z"/><g class="vi3"><path d="M6.35 5.82L4.83 9.45h-1L3.1 6.56c-.05-.18-.09-.25-.23-.32A3.42 3.42 0 0 0 2 5.93v-.11h1.6a.44.44 0 0 1 .4.37l.39 2.1 1-2.47zm3.89 2.44c0-1-1.33-1-1.32-1.43 0-.13.13-.27.4-.31a1.8 1.8 0 0 1 .92.17l.17-.77a2.61 2.61 0 0 0-.88-.16C8.6 5.76 8 6.25 8 7c0 .52.46.81.82 1s.49.29.48.45-.29.35-.56.36a2.06 2.06 0 0 1-1-.23l-.17.79a2.76 2.76 0 0 0 1 .19c1 0 1.63-.48 1.64-1.24m2.44 1.19h.87l-.76-3.63H12a.44.44 0 0 0-.4.27l-1.4 3.36h1l.2-.54h1.2zm-1-1.29l.49-1.36.28 1.36zm-3.96-2.4l-.77 3.63H6l.78-3.63zM8.89 10.44h-.38v.36h.43v.1h-.56v-.98h.53v.11h-.4v.31h.38v.1zM9.13 9.87h.13v1.04h-.13zM9.59 10.58a.22.22 0 0 0 .24.24.41.41 0 0 0 .19 0v.1a.65.65 0 0 1-.24 0 .33.33 0 0 1-.35-.36.35.35 0 0 1 .33-.38.31.31 0 0 1 .3.34.13.13 0 0 1 0 .06zm.37-.1a.18.18 0 0 0-.18-.2.2.2 0 0 0-.19.2zM10.79 10.88a.48.48 0 0 1-.21 0 .33.33 0 0 1-.35-.36.36.36 0 0 1 .38-.38.4.4 0 0 1 .18 0v.1a.28.28 0 0 0-.15 0 .24.24 0 0 0-.25.26.25.25 0 0 0 .25.27.27.27 0 0 0 .15 0zM11.15 10v.17h.18v.1h-.18v.38c0 .09 0 .13.09.13h.08v.09h-.11a.2.2 0 0 1-.14-.05.26.26 0 0 1-.05-.19v-.33h-.11v-.1H11v-.13zM11.51 10.42a1.48 1.48 0 0 0 0-.22h.11v.14a.21.21 0 0 1 .19-.16v.12a.17.17 0 0 0-.17.16v.44h-.13zM12.65 10.55a.35.35 0 0 1-.36.37.33.33 0 0 1-.33-.36.34.34 0 0 1 .35-.38.34.34 0 0 1 .34.37m-.56 0c0 .16.08.27.21.27s.21-.11.21-.27 0-.27-.21-.27-.21.14-.21.27M12.84 10.39v-.19H13v.12a.27.27 0 0 1 .23-.14c.1 0 .25.06.25.3v.43h-.12v-.41c0-.12-.05-.21-.17-.21a.18.18 0 0 0-.17.13.13.13 0 0 0 0 .06v.43h-.13z"/></g></svg>

