<svg xmlns="http://www.w3.org/2000/svg" width="16" height="16" viewBox="0 0 16 16">
<style>.v1{fill:#fff}.v2{fill:#faa61a}</style>
<g><path class="v1" d="M6.93 10.51H5.64l.81-5.01h1.29l-.81 5.01zM11.63 5.62a3.2 3.2 0 0 0-1.16-.21c-1.28 0-2.18.68-2.19 1.66 0 .72.65 1.12 1.14 1.36s.67.4.67.62-.4.49-.78.49a2.51 2.51 0 0 1-1.21-.27l-.17-.08-.19 1.13a4.06 4.06 0 0 0 1.45.27c1.36 0 2.25-.68 2.26-1.72 0-.57-.35-1-1.09-1.36-.46-.23-.73-.38-.73-.62s.23-.43.74-.43a2.28 2.28 0 0 1 1 .19h.12zM15 5.5h-1a.65.65 0 0 0-.68.41l-1.92 4.6h1.36l.24-.75h1.67c0 .18.15.75.15.75H16L15 5.5zm-1.6 3.24l.52-1.41S14 7 14 6.85l.09.44.3 1.45zM4.55 5.5L3.29 8.92l-.14-.7a3.83 3.83 0 0 0-1.8-2.1l1.17 4.39h1.37l2-5z"/><path d="M2.11 5.5H0v.1a4.37 4.37 0 0 1 3.15 2.62l-.46-2.3a.53.53 0 0 0-.58-.42z" class="v2"/></g></svg>

