<svg xmlns="http://www.w3.org/2000/svg" width="153.5" height="135.74" viewBox="0 0 153.5 135.74">
    <defs>
        <style>
            .cls-1{fill:#262a33}.cls-2,.cls-3{fill:#fd0c15;fill-rule:evenodd}.cls-3{fill:#f3ae12}
        </style>
    </defs>
    <g id="Group_3630" data-name="Group 3630" transform="translate(-680 -441.783)">
        <path id="Path_1881" d="M2494.48 2729.889h121.661a15.956 15.956 0 0 1 15.92 15.92v73.33a15.97 15.97 0 0 1-15.92 15.92H2494.48a15.97 15.97 0 0 1-15.92-15.92v-73.33a15.956 15.956 0 0 1 15.92-15.92zm-11.666 30.843h144.991v-14.922a11.721 11.721 0 0 0-11.665-11.686h-121.66a11.721 11.721 0 0 0-11.666 11.686zm144.991 4.255h-144.99v54.153a11.721 11.721 0 0 0 11.666 11.686h121.661a11.721 11.721 0 0 0 11.665-11.686z" data-name="Path 1881" transform="translate(-1798.561 -2288.106)"/>
        <path id="Path_1928" d="M1.077-.344v-2.014a4.065 4.065 0 0 0 2.461.769 2.216 2.216 0 0 0 1.38-.381 1.265 1.265 0 0 0 .494-1.062A1.207 1.207 0 0 0 4.8-4.116 3.168 3.168 0 0 0 3.12-4.5h-.945v-1.77h.872Q5.1-6.27 5.1-7.632q0-1.282-1.575-1.282a3.59 3.59 0 0 0-2.051.681v-1.89a5.664 5.664 0 0 1 2.578-.557 3.891 3.891 0 0 1 2.509.725 2.308 2.308 0 0 1 .9 1.882 2.447 2.447 0 0 1-2.092 2.58v.037a2.838 2.838 0 0 1 1.758.809A2.282 2.282 0 0 1 7.771-3 2.818 2.818 0 0 1 6.694-.674a4.655 4.655 0 0 1-2.973.857 5.747 5.747 0 0 1-2.644-.527zm12.6-2.849H9.675v-1.619h4.006zM15.894 0v-10.5h3.721q5.6 0 5.6 5.12a5.177 5.177 0 0 1-1.527 3.918A5.631 5.631 0 0 1 19.614 0zm2.366-8.577v6.658h1.172a3.167 3.167 0 0 0 2.413-.923 3.5 3.5 0 0 0 .875-2.512 3.177 3.177 0 0 0-.868-2.362 3.309 3.309 0 0 0-2.435-.861zM30.374-.2v-1.873a4.928 4.928 0 0 0 1.139.513 3.776 3.776 0 0 0 1.073.168 2.3 2.3 0 0 0 .97-.168.544.544 0 0 0 .355-.513.474.474 0 0 0-.161-.366 1.5 1.5 0 0 0-.414-.256 4.7 4.7 0 0 0-.553-.2q-.3-.088-.579-.2a5.544 5.544 0 0 1-.787-.363 2.276 2.276 0 0 1-.571-.45 1.77 1.77 0 0 1-.352-.593 2.367 2.367 0 0 1-.121-.8 2.055 2.055 0 0 1 .275-1.084 2.243 2.243 0 0 1 .732-.743 3.347 3.347 0 0 1 1.047-.425 5.461 5.461 0 0 1 1.227-.135 6.807 6.807 0 0 1 1.011.077 7.544 7.544 0 0 1 1.011.223V-5.6a3.652 3.652 0 0 0-.941-.385 3.97 3.97 0 0 0-.985-.128 2.183 2.183 0 0 0-.428.04 1.411 1.411 0 0 0-.355.117.652.652 0 0 0-.242.2.455.455 0 0 0-.088.275.507.507 0 0 0 .132.352 1.145 1.145 0 0 0 .344.253 3.4 3.4 0 0 0 .472.19q.26.084.516.172a6.713 6.713 0 0 1 .835.352 2.67 2.67 0 0 1 .641.447 1.755 1.755 0 0 1 .41.6 2.135 2.135 0 0 1 .143.82 2.14 2.14 0 0 1-.289 1.139 2.316 2.316 0 0 1-.769.769 3.488 3.488 0 0 1-1.106.432 6.131 6.131 0 0 1-1.3.135 6.7 6.7 0 0 1-2.292-.38zM44.2-3.091h-4.891q.117 1.633 2.058 1.633a4.018 4.018 0 0 0 2.175-.586v1.67a5.715 5.715 0 0 1-2.7.557A3.8 3.8 0 0 1 38.02-.824a3.8 3.8 0 0 1-1-2.809 4.014 4.014 0 0 1 1.08-2.959 3.611 3.611 0 0 1 2.666-1.091 3.278 3.278 0 0 1 2.538.974 3.751 3.751 0 0 1 .9 2.644zm-2.144-1.421q0-1.611-1.3-1.611a1.245 1.245 0 0 0-.963.461 2.094 2.094 0 0 0-.494 1.15zm9.206 4.241A4.576 4.576 0 0 1 49 .183a3.828 3.828 0 0 1-2.8-1.047 3.617 3.617 0 0 1-1.069-2.7 3.985 3.985 0 0 1 1.146-3.014 4.236 4.236 0 0 1 3.065-1.1 3.933 3.933 0 0 1 1.919.352v1.963a2.638 2.638 0 0 0-1.619-.542 2.133 2.133 0 0 0-1.578.582 2.173 2.173 0 0 0-.582 1.608 2.137 2.137 0 0 0 .557 1.564 2.046 2.046 0 0 0 1.531.568 3.055 3.055 0 0 0 1.692-.542zM59.9 0h-2.3v-1.143h-.037A2.617 2.617 0 0 1 55.269.183q-2.607 0-2.607-3.157V-7.5h2.307v4.321q0 1.589 1.26 1.589a1.246 1.246 0 0 0 1-.436 1.757 1.757 0 0 0 .371-1.182V-7.5h2.3zm6.841-5.413a2.008 2.008 0 0 0-.974-.227 1.4 1.4 0 0 0-1.179.553 2.412 2.412 0 0 0-.425 1.505V0h-2.31v-7.5h2.314v1.392h.033a2 2 0 0 1 1.978-1.523 1.49 1.49 0 0 1 .571.088zM74.5-3.091h-4.891q.117 1.633 2.058 1.633a4.018 4.018 0 0 0 2.175-.586v1.67a5.715 5.715 0 0 1-2.7.557A3.8 3.8 0 0 1 68.32-.824a3.8 3.8 0 0 1-1-2.809 4.014 4.014 0 0 1 1.08-2.959 3.611 3.611 0 0 1 2.666-1.091 3.278 3.278 0 0 1 2.538.974 3.751 3.751 0 0 1 .9 2.644zm-2.144-1.421q0-1.611-1.3-1.611a1.245 1.245 0 0 0-.963.461 2.094 2.094 0 0 0-.494 1.15zm10 3.64h-.029V3.45h-2.31V-7.5h2.314v1.128h.029a2.721 2.721 0 0 1 2.41-1.311 2.711 2.711 0 0 1 2.252 1 4.257 4.257 0 0 1 .795 2.721 4.614 4.614 0 0 1-.927 3.01A3.021 3.021 0 0 1 84.426.183a2.335 2.335 0 0 1-2.065-1.055zm-.066-3.076v.6a1.909 1.909 0 0 0 .41 1.267 1.335 1.335 0 0 0 1.077.491 1.419 1.419 0 0 0 1.232-.61 2.953 2.953 0 0 0 .436-1.732q0-1.978-1.538-1.978a1.444 1.444 0 0 0-1.161.538 2.147 2.147 0 0 0-.451 1.424zM95.413 0h-2.19v-1.077h-.029a2.444 2.444 0 0 1-2.235 1.26 2.337 2.337 0 0 1-1.718-.619 2.218 2.218 0 0 1-.626-1.652q0-2.183 2.585-2.52l2.036-.271q0-1.23-1.333-1.23a4.55 4.55 0 0 0-2.549.8v-1.744a5.734 5.734 0 0 1 1.322-.439 6.949 6.949 0 0 1 1.527-.19q3.208 0 3.208 3.2zm-2.176-3.047v-.505l-1.362.176q-1.128.146-1.128 1.018a.841.841 0 0 0 .275.648 1.055 1.055 0 0 0 .743.253 1.37 1.37 0 0 0 1.062-.45 1.627 1.627 0 0 0 .41-1.14zM104.385-7.5L101.338.6q-1.1 2.922-3.311 2.922a4.241 4.241 0 0 1-1.384-.19V1.487a1.946 1.946 0 0 0 1 .271 1.253 1.253 0 0 0 1.249-.842l.4-.93L96.24-7.5h2.56l1.4 4.563a5.93 5.93 0 0 1 .205 1h.029a7 7 0 0 1 .242-.989l1.416-4.574zM117.224 0h-2.307v-4.277q0-1.633-1.2-1.633a1.1 1.1 0 0 0-.93.491 2.017 2.017 0 0 0-.359 1.223V0h-2.314v-4.321q0-1.589-1.179-1.589a1.13 1.13 0 0 0-.948.469 2.063 2.063 0 0 0-.355 1.274V0h-2.314v-7.5h2.314v1.172h.029a2.767 2.767 0 0 1 1.007-.978 2.768 2.768 0 0 1 1.417-.377 2.16 2.16 0 0 1 2.175 1.4 2.774 2.774 0 0 1 2.52-1.4q2.446 0 2.446 3.018zm8.569-3.091H120.9q.117 1.633 2.058 1.633a4.018 4.018 0 0 0 2.175-.586v1.67a5.715 5.715 0 0 1-2.7.557 3.8 3.8 0 0 1-2.82-1.007 3.8 3.8 0 0 1-1-2.809 4.014 4.014 0 0 1 1.084-2.959 3.611 3.611 0 0 1 2.666-1.091 3.278 3.278 0 0 1 2.538.974 3.751 3.751 0 0 1 .9 2.644zm-2.146-1.421q0-1.611-1.3-1.611a1.245 1.245 0 0 0-.963.461 2.094 2.094 0 0 0-.494 1.15zM134.414 0h-2.307v-4.167q0-1.743-1.245-1.743a1.235 1.235 0 0 0-.989.461 1.758 1.758 0 0 0-.388 1.172V0h-2.315v-7.5h2.314v1.187h.029a2.652 2.652 0 0 1 2.41-1.37q2.49 0 2.49 3.091zm6.365-.088a3.421 3.421 0 0 1-1.545.271q-2.446 0-2.446-2.542v-3.434h-1.216V-7.5h1.216v-1.619l2.307-.659V-7.5h1.685v1.707h-1.685v3.032q0 1.172.93 1.172a1.568 1.568 0 0 0 .754-.212z" class="cls-1" data-name="Path 1928" transform="translate(686 574)"/>
        <g id="Group_3629" data-name="Group 3629" transform="translate(753.133 484.799)">
            <path id="Path_1905" d="M133.151 30.11a1.5 1.5 0 1 1 1.5 1.565 1.512 1.512 0 0 1-1.5-1.565zm1.5 1.225a1.168 1.168 0 0 0 1.134-1.2 1.183 1.183 0 0 0-1.134-1.2 1.2 1.2 0 0 0 0 2.4zm-.2-.522h-.318v-1.384h.567a.578.578 0 0 1 .34.068.383.383 0 0 1 .159.341.349.349 0 0 1-.227.34l.249.612h-.34l-.2-.544h-.227v.567zm0-.771h.181a.446.446 0 0 0 .182-.023.177.177 0 0 0 .068-.159.162.162 0 0 0-.068-.136.5.5 0 0 0-.182-.023h-.159l-.023.34z" class="cls-2" data-name="Path 1905" transform="translate(-94.907 -12.017)"/>
            <path id="Path_1906" d="M74.089 7.635l-.408 2.676a4.53 4.53 0 0 0-2.246-.658c-1.86 0-3.176 1.906-3.176 4.6 0 1.86.885 2.994 2.337 2.994a4.74 4.74 0 0 0 2.132-.635l-.428 2.819a7.281 7.281 0 0 1-2.223.363c-2.7 0-4.378-2.042-4.378-5.308C65.7 10.085 68.01 7 71.344 7a4.206 4.206 0 0 1 1.134.136l1.043.272c.272.113.341.136.567.227z" class="cls-2" data-name="Path 1906" transform="translate(-57.282)"/>
            <path id="Path_1907" d="M58.411 12.563a.839.839 0 0 0-.249-.023c-.817 0-1.293.431-2.064 1.634l.227-1.52h-2.27l-1.542 10h2.518c.907-6.125 1.134-7.168 2.336-7.168h.181a9.9 9.9 0 0 1 .953-2.9l-.091-.023z" class="cls-2" data-name="Path 1907" transform="translate(-49.929 -3.09)"/>
            <path id="Path_1908" d="M27.193 20.776a5.514 5.514 0 0 1-1.792.34c-1.27 0-1.973-.771-1.973-2.2a6.627 6.627 0 0 1 .068-.907l.159-.976.114-.794 1.089-6.828h2.5l-.295 1.474h1.287l-.363 2.427h-1.27l-.658 4.174c-.023.182-.046.318-.046.409 0 .522.272.749.862.749a1.893 1.893 0 0 0 .68-.091l-.363 2.223z" class="cls-2" data-name="Path 1908" transform="translate(-33.706 -1.345)"/>
            <path id="Path_1909" d="M8.4 15.663a2.92 2.92 0 0 0 1.906 2.79c1 .5 1.18.658 1.18 1.112 0 .612-.454.907-1.429.907a6.287 6.287 0 0 1-2.246-.409l-.341 2.314.114.023.454.091c.159.023.363.068.658.091.59.046 1.066.091 1.384.091 2.632 0 3.857-1.066 3.857-3.334a2.745 2.745 0 0 0-1.77-2.79c-1.043-.5-1.157-.612-1.157-1.089q0-.817 1.225-.817a13.751 13.751 0 0 1 1.792.159l.363-2.314a15.609 15.609 0 0 0-2.2-.2c-2.835 0-3.811 1.52-3.788 3.38z" class="cls-2" data-name="Path 1909" transform="translate(-24.807 -2.947)"/>
            <path id="Path_1910" d="M120.254 19.831h-2.382l.113-.976a2.914 2.914 0 0 1-2.314 1.112c-1.837 0-3.04-1.656-3.04-4.151 0-3.335 1.86-6.148 4.083-6.148a2.865 2.865 0 0 1 2.4 1.361l.544-3.516h2.473l-1.883 12.318zm-3.7-2.336c1.179 0 2-1.384 2-3.38 0-1.27-.476-1.974-1.339-1.974-1.134 0-1.951 1.406-1.951 3.357 0 1.316.431 2 1.293 2z" class="cls-2" data-name="Path 1910" transform="translate(-83.462 -.286)"/>
            <path id="Path_1911" d="M41.256 22.23a8.327 8.327 0 0 1-2.586.409c-2.79 0-4.265-1.542-4.265-4.492 0-3.448 1.86-5.966 4.378-5.966 2.064 0 3.38 1.429 3.38 3.652a10.986 10.986 0 0 1-.318 2.472h-4.99a1.864 1.864 0 0 0-.023.318c0 1.18.749 1.77 2.2 1.77a5.882 5.882 0 0 0 2.609-.635l-.386 2.472zm-1.407-5.966a4.423 4.423 0 0 0 .023-.5 1.131 1.131 0 0 0-1.179-1.293c-.794 0-1.361.635-1.588 1.792z" class="cls-2" data-name="Path 1911" transform="translate(-39.828 -2.89)"/>
            <path id="Path_1912" d="M-25.874 19.859h-2.5l1.434-9.459-3.221 9.459h-1.7l-.2-9.391-1.52 9.391h-2.337l1.951-12.295h3.607l.091 7.622 2.45-7.622h3.9l-1.951 12.295z" class="cls-2" data-name="Path 1912" transform="translate(-.601 -.315)"/>
            <path id="Path_1913" d="M-5.074 18.017c-.272-.023-.386-.045-.567-.045-1.429 0-2.132.521-2.132 1.519a.916.916 0 0 0 .907 1.021c1 0 1.747-1.021 1.792-2.5zm1.815 4.446h-2.087l.046-1.043a3.028 3.028 0 0 1-2.631 1.2c-1.361 0-2.291-1.111-2.291-2.722 0-2.45 1.633-3.857 4.4-3.857a8.608 8.608 0 0 1 1.021.068 3.1 3.1 0 0 0 .091-.658c0-.658-.431-.907-1.611-.907a7.465 7.465 0 0 0-2.087.295l-.318.113-.226.068.34-2.246a9.659 9.659 0 0 1 2.994-.545c2.155 0 3.289 1.021 3.289 2.927a13.57 13.57 0 0 1-.2 2l-.5 3.561-.091.635-.068.5-.046.363-.023.249z" class="cls-2" data-name="Path 1913" transform="translate(-14.936 -2.918)"/>
            <path id="Path_1914" d="M87.978 17.988c-.249-.023-.386-.045-.567-.045-1.429 0-2.155.521-2.155 1.519a.916.916 0 0 0 .907 1.021c1.021 0 1.769-1.021 1.814-2.5zm1.815 4.446h-2.087l.045-1.043a3.028 3.028 0 0 1-2.631 1.2c-1.361 0-2.291-1.111-2.291-2.722 0-2.45 1.634-3.857 4.4-3.857a8.922 8.922 0 0 1 1.021.068 3.1 3.1 0 0 0 .091-.658c0-.658-.431-.907-1.611-.907a7.465 7.465 0 0 0-2.087.295l-.363.091-.227.068.341-2.246a9.656 9.656 0 0 1 2.994-.544c2.155 0 3.289 1.021 3.289 2.926a13.57 13.57 0 0 1-.2 2l-.522 3.539-.068.635-.068.5-.045.34.023.318z" class="cls-2" data-name="Path 1914" transform="translate(-66.838 -2.89)"/>
            <path id="Path_1915" d="M106.989 12.563a.839.839 0 0 0-.249-.023c-.817 0-1.293.431-2.065 1.634l.227-1.52h-2.269l-1.542 10h2.518c.907-6.125 1.134-7.168 2.336-7.168h.182a10.617 10.617 0 0 1 .953-2.9l-.091-.023z" class="cls-2" data-name="Path 1915" transform="translate(-77.025 -3.09)"/>
            <path id="Path_1916" d="M83.616 51.737c0 2.269-.7 3.607-1.814 3.607-.817.023-1.293-.885-1.293-2.223 0-1.588.726-3.4 1.86-3.4.93 0 1.247.976 1.247 2.019zm2.473.023c0-2.518-1.248-4.492-3.585-4.492-2.7 0-4.446 2.382-4.446 5.9 0 2.518 1.043 4.582 3.584 4.582 2.564 0 4.447-1.815 4.447-5.989z" class="cls-3" data-name="Path 1916" transform="translate(-64.178 -22.461)"/>
            <path id="Path_1917" d="M69.925 42.517l-.386 2.677a4.023 4.023 0 0 0-2.087-.658c-1.746 0-2.971 1.905-2.971 4.6 0 1.86.816 2.994 2.177 2.994a4.131 4.131 0 0 0 2-.635l-.408 2.813a6.406 6.406 0 0 1-2.087.363c-2.518 0-4.106-2.042-4.106-5.308 0-4.4 2.177-7.486 5.285-7.486a3.519 3.519 0 0 1 1.044.136l.953.272a2.142 2.142 0 0 1 .59.227z" class="cls-3" data-name="Path 1917" transform="translate(-55.251 -19.457)"/>
            <path id="Path_1918" d="M37.894 47.393a.839.839 0 0 0-.249-.023c-.771 0-1.2.431-1.928 1.634l.227-1.52h-2.11l-1.429 10h2.337c.839-6.125 1.066-7.168 2.177-7.168a.632.632 0 0 1 .182.023 10.722 10.722 0 0 1 .884-2.9l-.091-.045z" class="cls-3" data-name="Path 1918" transform="translate(-38.712 -22.518)"/>
            <path id="Path_1919" d="M104.982 54.536h-2.223l.113-.976a2.665 2.665 0 0 1-2.177 1.112c-1.7 0-2.835-1.656-2.835-4.152 0-3.334 1.747-6.147 3.811-6.147a2.6 2.6 0 0 1 2.246 1.384l.522-3.516h2.314l-1.769 12.295zm-3.471-2.359c1.111 0 1.86-1.384 1.86-3.38 0-1.27-.431-1.951-1.248-1.951-1.066 0-1.815 1.384-1.815 3.357 0 1.316.408 1.974 1.2 1.974z" class="cls-3" data-name="Path 1919" transform="translate(-75.222 -19.657)"/>
            <path id="Path_1920" d="M-12.877 57.266a7.23 7.23 0 0 1-2.4.409c-2.609 0-3.97-1.543-3.97-4.492 0-3.425 1.747-5.966 4.083-5.966 1.928 0 3.153 1.406 3.153 3.652a12.23 12.23 0 0 1-.295 2.472h-4.65a1.828 1.828 0 0 0-.023.318c0 1.157.7 1.747 2.065 1.747a5.1 5.1 0 0 0 2.427-.635l-.386 2.5zm-1.315-5.966c0-.2.023-.386.023-.5 0-.817-.408-1.293-1.111-1.293-.749 0-1.27.635-1.5 1.792z" class="cls-3" data-name="Path 1920" transform="translate(-9.9 -22.432)"/>
            <path id="Path_1921" d="M50.087 57.266a7.23 7.23 0 0 1-2.4.409c-2.632 0-3.992-1.543-3.992-4.492 0-3.425 1.746-5.966 4.083-5.966 1.928 0 3.176 1.406 3.176 3.652a12.23 12.23 0 0 1-.295 2.472H46a1.828 1.828 0 0 0-.023.318c0 1.157.7 1.747 2.065 1.747a5.1 5.1 0 0 0 2.427-.635l-.386 2.5zM48.771 51.3a4.431 4.431 0 0 0 .023-.5c0-.817-.408-1.293-1.111-1.293-.749 0-1.27.635-1.5 1.792z" class="cls-3" data-name="Path 1921" transform="translate(-45.007 -22.432)"/>
            <path id="Path_1922" d="M123.954 57.266a7.434 7.434 0 0 1-2.4.409c-2.609 0-3.992-1.543-3.992-4.492 0-3.425 1.747-5.966 4.106-5.966 1.928 0 3.153 1.406 3.153 3.652a12.231 12.231 0 0 1-.295 2.472h-4.65a1.865 1.865 0 0 0-.023.318c0 1.157.7 1.747 2.064 1.747a5.1 5.1 0 0 0 2.427-.635l-.386 2.5zm-1.316-5.966c0-.2.023-.386.023-.5 0-.817-.409-1.293-1.112-1.293-.749 0-1.27.635-1.5 1.792z" class="cls-3" data-name="Path 1922" transform="translate(-86.209 -22.432)"/>
            <path id="Path_1923" d="M-29.718 44.614a3.323 3.323 0 0 0-1.951-.567c-.953 0-1.7.2-1.7 1.2 0 1.769 3.448 1.112 3.448 4.922 0 3.471-2.269 4.378-4.333 4.378A6.973 6.973 0 0 1-37 53.892l.567-2.541a3.6 3.6 0 0 0 2.2.726c.749 0 1.883-.2 1.883-1.5 0-2.019-3.448-1.27-3.448-4.809 0-3.244 2.019-4.2 3.97-4.2a5.169 5.169 0 0 1 2.722.567l-.612 2.472z" class="cls-3" data-name="Path 1923" transform="translate(0 -19.285)"/>
            <path id="Path_1924" d="M3.845 57.323a4.8 4.8 0 0 1-2.087.386c-2.041 0-3.312-2.042-3.312-4.537 0-3.267 1.837-5.853 4.537-5.853a4.944 4.944 0 0 1 2.2.658l-.522 2.382a2.783 2.783 0 0 0-1.561-.545c-1.248 0-2.155 1.157-2.155 3.2 0 1.179.658 2.155 1.679 2.155a2.906 2.906 0 0 0 1.565-.431l-.34 2.586z" class="cls-3" data-name="Path 1924" transform="translate(-19.771 -22.489)"/>
            <path id="Path_1925" d="M21.271 55.005c-.113.862-.227 1.7-.295 2.586H18.73l.181-1.611h-.023a3.147 3.147 0 0 1-2.722 1.837c-1.406 0-2.177-1.5-2.177-3.425a13.8 13.8 0 0 1 .181-2.087l.635-4.628h2.518l-.68 4.65a11.121 11.121 0 0 0-.159 1.52c0 .59.272 1.179.953 1.134 1.021 0 1.633-1.248 1.815-2.722l.7-4.582h2.427l-1.112 7.327z" class="cls-3" data-name="Path 1925" transform="translate(-28.441 -22.689)"/>
            <path id="Path_1926" d="M136.133 67.292h-.386v-1.656h-.547v-.363h1.474v.363h-.544v1.656z" class="cls-3" data-name="Path 1926" transform="translate(-96.052 -32.504)"/>
            <path id="Path_1927" d="M140.768 67.292h-.363v-1.679l-.34 1.679h-.365l-.34-1.679v1.679H139v-2.019h.567l.318 1.588h.023l.318-1.588h.544v2.019z" class="cls-3" data-name="Path 1927" transform="translate(-98.169 -32.504)"/>
        </g>
    </g>
</svg>
