<svg xmlns="http://www.w3.org/2000/svg" width="253.529" height="90.097" viewBox="0 0 253.529 90.097">
    <defs>
        <style>
            .cls-1,.cls-2{fill:#fd0c15;fill-rule:evenodd}.cls-2{fill:#f3ae12}
        </style>
    </defs>
    <g id="Group_3629" data-name="Group 3629" transform="translate(37 -7)">
        <path id="Path_1905" d="M133.151 33.53a4.773 4.773 0 1 1 4.769 4.986 4.817 4.817 0 0 1-4.769-4.986zm4.769 3.9a3.72 3.72 0 0 0 3.613-3.83 3.768 3.768 0 0 0-3.613-3.828 3.835 3.835 0 0 0 0 7.658zm-.651-1.662h-1.011v-4.406h1.806a1.84 1.84 0 0 1 1.084.217 1.218 1.218 0 0 1 .506 1.085 1.112 1.112 0 0 1-.723 1.083l.794 1.951h-1.083l-.651-1.734h-.723v1.806zm0-2.456h.577a1.422 1.422 0 0 0 .579-.072.564.564 0 0 0 .217-.506.517.517 0 0 0-.217-.434 1.6 1.6 0 0 0-.579-.072h-.506l-.072 1.083z" class="cls-1" data-name="Path 1905" transform="translate(69.506 8.801)"/>
        <path id="Path_1906" d="M92.429 9.024l-1.3 8.524a14.429 14.429 0 0 0-7.154-2.094c-5.924 0-10.116 6.069-10.116 14.667 0 5.924 2.818 9.537 7.443 9.537a15.1 15.1 0 0 0 6.792-2.023l-1.373 8.959a23.19 23.19 0 0 1-7.081 1.156c-8.6 0-13.944-6.5-13.944-16.908C65.7 16.826 73.065 7 83.687 7a13.4 13.4 0 0 1 3.613.434l3.323.868c.868.361 1.085.432 1.807.723z" class="cls-1" data-name="Path 1906" transform="translate(41.951)"/>
        <path id="Path_1907" d="M71.3 12.613a2.673 2.673 0 0 0-.794-.073c-2.6 0-4.118 1.373-6.575 5.2l.723-4.841h-7.228l-4.913 31.865h8.02c2.889-19.508 3.611-22.83 7.441-22.83h.577a31.542 31.542 0 0 1 3.035-9.248l-.289-.072z" class="cls-1" data-name="Path 1907" transform="translate(36.566 2.263)"/>
        <path id="Path_1908" d="M35.421 45.609a17.562 17.562 0 0 1-5.709 1.083c-4.045 0-6.285-2.456-6.285-7.009a21.107 21.107 0 0 1 .215-2.889l.506-3.107.362-2.53 3.469-21.746h7.948l-.939 4.7h4.118l-1.156 7.727H33.9l-2.091 13.294c-.072.579-.145 1.013-.145 1.3 0 1.662.868 2.385 2.747 2.385a6.03 6.03 0 0 0 2.166-.289l-1.155 7.081z" class="cls-1" data-name="Path 1908" transform="translate(24.685 .985)"/>
        <path id="Path_1909" d="M10.436 23.05c0 4.045 1.879 6.792 6.069 8.886 3.179 1.59 3.758 2.1 3.758 3.541 0 1.951-1.445 2.89-4.552 2.89a20.026 20.026 0 0 1-7.152-1.3l-1.085 7.369.362.072 1.445.289c.506.072 1.155.217 2.094.289 1.879.145 3.4.289 4.407.289 8.382 0 12.283-3.4 12.283-10.62 0-4.335-1.59-6.937-5.637-8.888-3.323-1.589-3.685-1.951-3.685-3.468q0-2.6 3.9-2.6a43.8 43.8 0 0 1 5.709.506l1.156-7.369a49.717 49.717 0 0 0-7.009-.651c-9.031 0-12.138 4.842-12.067 10.767z" class="cls-1" data-name="Path 1909" transform="translate(18.167 2.158)"/>
        <path id="Path_1910" d="M136.909 46.745h-7.586l.361-3.107a9.28 9.28 0 0 1-7.369 3.541c-5.852 0-9.682-5.275-9.682-13.222 0-10.621 5.926-19.581 13.006-19.581 3.107 0 5.419 1.373 7.658 4.335l1.734-11.2h7.876l-6 39.232zM125.132 39.3c3.757 0 6.358-4.409 6.358-10.765 0-4.047-1.517-6.286-4.263-6.286-3.613 0-6.213 4.479-6.213 10.692 0 4.192 1.373 6.359 4.118 6.359z" class="cls-1" data-name="Path 1910" transform="translate(61.124 .21)"/>
        <path id="Path_1911" d="M56.225 44.188a26.523 26.523 0 0 1-8.237 1.3C39.1 45.489 34.4 40.576 34.4 31.183c0-10.982 5.924-19 13.944-19 6.575 0 10.767 4.552 10.767 11.633a34.992 34.992 0 0 1-1.011 7.873H42.208a5.936 5.936 0 0 0-.072 1.011c0 3.758 2.385 5.637 7.009 5.637a18.736 18.736 0 0 0 8.309-2.024l-1.228 7.875zm-4.48-19a14.086 14.086 0 0 0 .072-1.589c0-2.6-1.372-4.118-3.756-4.118-2.528 0-4.335 2.023-5.058 5.707z" class="cls-1" data-name="Path 1911" transform="translate(29.169 2.116)"/>
        <path id="Path_1912" d="M-3.915 46.724h-7.948L-7.311 16.6l-10.26 30.129h-5.419l-.65-29.912-4.841 29.912h-7.442l6.214-39.16h11.488l.289 24.276 7.8-24.276H2.3l-6.214 39.16z" class="cls-1" data-name="Path 1912" transform="translate(.44 .231)"/>
        <path id="Path_1913" d="M6.178 30.657c-.866-.072-1.228-.144-1.806-.144-4.552 0-6.792 1.661-6.792 4.84C-2.42 37.3-1.264 38.6.47 38.6c3.179 0 5.564-3.252 5.707-7.948zm5.78 14.161H5.311l.144-3.323c-2.023 2.672-4.7 3.828-8.381 3.828-4.335 0-7.3-3.54-7.3-8.669 0-7.8 5.2-12.283 14.017-12.283a27.418 27.418 0 0 1 3.251.217 9.886 9.886 0 0 0 .289-2.094c0-2.1-1.373-2.89-5.13-2.89a23.778 23.778 0 0 0-6.647.939l-1.013.361-.721.217 1.083-7.152a30.763 30.763 0 0 1 9.537-1.735c6.864 0 10.476 3.252 10.476 9.321a43.223 43.223 0 0 1-.651 6.358l-1.584 11.341-.289 2.024-.217 1.589-.145 1.156-.072.794z" class="cls-1" data-name="Path 1913" transform="translate(10.938 2.137)"/>
        <path id="Path_1914" d="M99.23 30.677c-.794-.072-1.228-.144-1.806-.144-4.552 0-6.864 1.661-6.864 4.84 0 1.951 1.156 3.252 2.89 3.252 3.251 0 5.635-3.252 5.779-7.948zm5.78 14.161h-6.647l.144-3.323c-2.023 2.672-4.7 3.828-8.381 3.828-4.335 0-7.3-3.54-7.3-8.669 0-7.8 5.2-12.283 14.017-12.283a28.416 28.416 0 0 1 3.251.217 9.887 9.887 0 0 0 .289-2.094c0-2.1-1.373-2.89-5.13-2.89a23.778 23.778 0 0 0-6.647.939l-1.156.289-.723.217 1.085-7.154a30.756 30.756 0 0 1 9.537-1.734c6.864 0 10.476 3.251 10.476 9.32a43.22 43.22 0 0 1-.651 6.359l-1.662 11.271-.217 2.023-.217 1.59-.144 1.083.072 1.011z" class="cls-1" data-name="Path 1914" transform="translate(48.95 2.116)"/>
        <path id="Path_1915" d="M119.876 12.613a2.673 2.673 0 0 0-.794-.073c-2.6 0-4.118 1.373-6.576 5.2l.724-4.841H106l-4.913 31.862h8.02c2.889-19.508 3.611-22.83 7.441-22.83h.579a33.817 33.817 0 0 1 3.034-9.248l-.289-.072z" class="cls-1" data-name="Path 1915" transform="translate(56.41 2.263)"/>
        <path id="Path_1916" d="M95.76 61.5c0 7.226-2.239 11.489-5.779 11.489-2.6.072-4.118-2.818-4.118-7.081 0-5.058 2.311-10.838 5.924-10.838 2.962 0 3.973 3.107 3.973 6.43zm7.876.073c0-8.02-3.975-14.306-11.417-14.306-8.6 0-14.16 7.586-14.16 18.785 0 8.02 3.323 14.595 11.414 14.595 8.165 0 14.162-5.78 14.162-19.074z" class="cls-2" data-name="Path 1916" transform="translate(47.001 16.449)"/>
        <path id="Path_1917" d="M87.125 43.9L85.9 52.43a12.813 12.813 0 0 0-6.648-2.094c-5.562 0-9.464 6.068-9.464 14.667 0 5.924 2.6 9.537 6.935 9.537a13.156 13.156 0 0 0 6.358-2.024l-1.3 8.959a20.4 20.4 0 0 1-6.648 1.156c-8.019 0-13.076-6.5-13.076-16.906 0-14.017 6.935-23.843 16.834-23.843a11.209 11.209 0 0 1 3.324.434l3.034.866a6.822 6.822 0 0 1 1.879.723z" class="cls-2" data-name="Path 1917" transform="translate(40.463 14.249)"/>
        <path id="Path_1918" d="M49.889 47.443a2.672 2.672 0 0 0-.794-.073c-2.456 0-3.83 1.373-6.141 5.2l.723-4.841h-6.72L32.4 79.595h7.442c2.673-19.508 3.4-22.832 6.935-22.832a2.014 2.014 0 0 1 .579.073 34.149 34.149 0 0 1 2.817-9.25l-.289-.144z" class="cls-2" data-name="Path 1918" transform="translate(28.351 16.491)"/>
        <path id="Path_1919" d="M120.546 81.4h-7.081l.361-3.107a8.49 8.49 0 0 1-6.935 3.541c-5.419 0-9.031-5.275-9.031-13.223 0-10.62 5.564-19.579 12.138-19.579 2.889 0 5.13 1.372 7.152 4.407l1.662-11.2h7.369L120.546 81.4zm-11.054-7.514c3.54 0 5.924-4.407 5.924-10.765 0-4.047-1.373-6.214-3.973-6.214-3.4 0-5.78 4.407-5.78 10.693 0 4.19 1.3 6.286 3.83 6.286z" class="cls-2" data-name="Path 1919" transform="translate(55.089 14.396)"/>
        <path id="Path_1920" d="M1.051 79.224a23.029 23.029 0 0 1-7.658 1.3c-8.31 0-12.644-4.914-12.644-14.306 0-10.91 5.564-19 13-19C-.105 47.217 3.8 51.7 3.8 58.85a38.955 38.955 0 0 1-.939 7.875h-14.81a5.823 5.823 0 0 0-.073 1.011c0 3.685 2.241 5.564 6.576 5.564a16.256 16.256 0 0 0 7.73-2.024l-1.233 7.948zm-4.19-19c0-.651.072-1.228.072-1.589 0-2.6-1.3-4.118-3.54-4.118-2.385 0-4.047 2.023-4.769 5.707z" class="cls-2" data-name="Path 1920" transform="translate(7.25 16.428)"/>
        <path id="Path_1921" d="M64.064 79.224a23.029 23.029 0 0 1-7.658 1.3c-8.382 0-12.716-4.914-12.716-14.306 0-10.91 5.562-19 13-19 6.141 0 10.116 4.479 10.116 11.633a38.955 38.955 0 0 1-.939 7.875H51.059a5.823 5.823 0 0 0-.073 1.011c0 3.685 2.241 5.564 6.576 5.564a16.248 16.248 0 0 0 7.73-2.024l-1.228 7.948zm-4.19-19a14.113 14.113 0 0 0 .072-1.589c0-2.6-1.3-4.118-3.54-4.118-2.385 0-4.047 2.023-4.769 5.707z" class="cls-2" data-name="Path 1921" transform="translate(32.962 16.428)"/>
        <path id="Path_1922" d="M137.932 79.224a23.677 23.677 0 0 1-7.659 1.3c-8.309 0-12.716-4.914-12.716-14.306 0-10.91 5.564-19 13.078-19 6.141 0 10.043 4.479 10.043 11.633a38.955 38.955 0 0 1-.94 7.875h-14.812a5.939 5.939 0 0 0-.072 1.011c0 3.685 2.239 5.564 6.575 5.564a16.257 16.257 0 0 0 7.731-2.024l-1.228 7.948zm-4.192-19c0-.651.073-1.228.073-1.589 0-2.6-1.3-4.118-3.541-4.118-2.385 0-4.045 2.023-4.769 5.707z" class="cls-2" data-name="Path 1922" transform="translate(63.136 16.428)"/>
        <path id="Path_1923" d="M-13.808 51.256a10.585 10.585 0 0 0-6.213-1.807c-3.035 0-5.42.651-5.42 3.83 0 5.635 10.983 3.541 10.983 15.678 0 11.055-7.226 13.946-13.8 13.946A22.208 22.208 0 0 1-37 80.806l1.806-8.092a11.476 11.476 0 0 0 7.009 2.311c2.385 0 6-.649 6-4.768 0-6.431-10.982-4.047-10.982-15.317 0-10.331 6.43-13.367 12.644-13.367 3.468 0 6.792.506 8.669 1.807l-1.951 7.875z" class="cls-2" data-name="Path 1923" transform="translate(0 14.123)"/>
        <path id="Path_1924" d="M15.642 79.182a15.291 15.291 0 0 1-6.648 1.228c-6.5 0-10.548-6.5-10.548-14.45 0-10.4 5.852-18.641 14.45-18.641a15.748 15.748 0 0 1 7.009 2.1L18.242 57a8.864 8.864 0 0 0-4.985-1.734c-3.975 0-6.864 3.685-6.864 10.188 0 3.756 2.094 6.864 5.347 6.864a9.254 9.254 0 0 0 4.985-1.373l-1.083 8.237z" class="cls-2" data-name="Path 1924" transform="translate(14.48 16.47)"/>
        <path id="Path_1925" d="M37.181 71.015c-.361 2.745-.723 5.42-.939 8.237h-7.153l.577-5.13H29.6c-2.24 3.468-4.552 5.852-8.671 5.852-4.479 0-6.935-4.769-6.935-10.91a43.944 43.944 0 0 1 .577-6.647l2.024-14.74h8.019L22.443 62.49a35.422 35.422 0 0 0-.506 4.841c0 1.879.866 3.756 3.034 3.613 3.252 0 5.2-3.975 5.78-8.671l2.24-14.595h7.731l-3.541 23.337z" class="cls-2" data-name="Path 1925" transform="translate(20.829 16.617)"/>
        <path id="Path_1926" d="M138.165 71.7h-1.228v-5.271H135.2v-1.156h4.7v1.156h-1.734V71.7z" class="cls-2" data-name="Path 1926" transform="translate(70.344 23.804)"/>
        <path id="Path_1927" d="M144.634 71.7h-1.156v-5.343l-1.083 5.343h-1.156l-1.084-5.346V71.7H139v-6.43h1.806l1.012 5.057h.072l1.012-5.057h1.734v6.43z" class="cls-2" data-name="Path 1927" transform="translate(71.895 23.804)"/>
    </g>
</svg>
