<svg xmlns="http://www.w3.org/2000/svg" width="153.5" height="135.74" viewBox="0 0 153.5 135.74">
    <defs>
        <style>
            .cls-1{fill:#262a33}.cls-2,.cls-3{fill:#164697;fill-rule:evenodd}.cls-3{fill:#f9820a}
        </style>
    </defs>
    <g id="Group_3632" data-name="Group 3632" transform="translate(-680 -441.783)">
        <path id="Path_1881" d="M2494.48 2729.889h121.661a15.956 15.956 0 0 1 15.92 15.92v73.33a15.97 15.97 0 0 1-15.92 15.92H2494.48a15.97 15.97 0 0 1-15.92-15.92v-73.33a15.956 15.956 0 0 1 15.92-15.92zm-11.666 30.843h144.991v-14.922a11.721 11.721 0 0 0-11.665-11.686h-121.66a11.721 11.721 0 0 0-11.666 11.686zm144.991 4.255h-144.99v54.153a11.721 11.721 0 0 0 11.666 11.686h121.661a11.721 11.721 0 0 0 11.665-11.686z" data-name="Path 1881" transform="translate(-1798.561 -2288.106)"/>
        <path id="Path_1928" d="M1.077-.344v-2.014a4.065 4.065 0 0 0 2.461.769 2.216 2.216 0 0 0 1.38-.381 1.265 1.265 0 0 0 .494-1.062A1.207 1.207 0 0 0 4.8-4.116 3.168 3.168 0 0 0 3.12-4.5h-.945v-1.77h.872Q5.1-6.27 5.1-7.632q0-1.282-1.575-1.282a3.59 3.59 0 0 0-2.051.681v-1.89a5.664 5.664 0 0 1 2.578-.557 3.891 3.891 0 0 1 2.509.725 2.308 2.308 0 0 1 .9 1.882 2.447 2.447 0 0 1-2.092 2.58v.037a2.838 2.838 0 0 1 1.758.809A2.282 2.282 0 0 1 7.771-3 2.818 2.818 0 0 1 6.694-.674a4.655 4.655 0 0 1-2.973.857 5.747 5.747 0 0 1-2.644-.527zm12.6-2.849H9.675v-1.619h4.006zM15.894 0v-10.5h3.721q5.6 0 5.6 5.12a5.177 5.177 0 0 1-1.527 3.918A5.631 5.631 0 0 1 19.614 0zm2.366-8.577v6.658h1.172a3.167 3.167 0 0 0 2.413-.923 3.5 3.5 0 0 0 .875-2.512 3.177 3.177 0 0 0-.868-2.362 3.309 3.309 0 0 0-2.435-.861zM30.374-.2v-1.873a4.928 4.928 0 0 0 1.139.513 3.776 3.776 0 0 0 1.073.168 2.3 2.3 0 0 0 .97-.168.544.544 0 0 0 .355-.513.474.474 0 0 0-.161-.366 1.5 1.5 0 0 0-.414-.256 4.7 4.7 0 0 0-.553-.2q-.3-.088-.579-.2a5.544 5.544 0 0 1-.787-.363 2.276 2.276 0 0 1-.571-.45 1.77 1.77 0 0 1-.352-.593 2.367 2.367 0 0 1-.121-.8 2.055 2.055 0 0 1 .275-1.084 2.243 2.243 0 0 1 .732-.743 3.347 3.347 0 0 1 1.047-.425 5.461 5.461 0 0 1 1.227-.135 6.807 6.807 0 0 1 1.011.077 7.544 7.544 0 0 1 1.011.223V-5.6a3.652 3.652 0 0 0-.941-.385 3.97 3.97 0 0 0-.985-.128 2.183 2.183 0 0 0-.428.04 1.411 1.411 0 0 0-.355.117.652.652 0 0 0-.242.2.455.455 0 0 0-.088.275.507.507 0 0 0 .132.352 1.145 1.145 0 0 0 .344.253 3.4 3.4 0 0 0 .472.19q.26.084.516.172a6.713 6.713 0 0 1 .835.352 2.67 2.67 0 0 1 .641.447 1.755 1.755 0 0 1 .41.6 2.135 2.135 0 0 1 .143.82 2.14 2.14 0 0 1-.289 1.139 2.316 2.316 0 0 1-.769.769 3.488 3.488 0 0 1-1.106.432 6.131 6.131 0 0 1-1.3.135 6.7 6.7 0 0 1-2.292-.38zM44.2-3.091h-4.891q.117 1.633 2.058 1.633a4.018 4.018 0 0 0 2.175-.586v1.67a5.715 5.715 0 0 1-2.7.557A3.8 3.8 0 0 1 38.02-.824a3.8 3.8 0 0 1-1-2.809 4.014 4.014 0 0 1 1.08-2.959 3.611 3.611 0 0 1 2.666-1.091 3.278 3.278 0 0 1 2.538.974 3.751 3.751 0 0 1 .9 2.644zm-2.144-1.421q0-1.611-1.3-1.611a1.245 1.245 0 0 0-.963.461 2.094 2.094 0 0 0-.494 1.15zm9.206 4.241A4.576 4.576 0 0 1 49 .183a3.828 3.828 0 0 1-2.8-1.047 3.617 3.617 0 0 1-1.069-2.7 3.985 3.985 0 0 1 1.146-3.014 4.236 4.236 0 0 1 3.065-1.1 3.933 3.933 0 0 1 1.919.352v1.963a2.638 2.638 0 0 0-1.619-.542 2.133 2.133 0 0 0-1.578.582 2.173 2.173 0 0 0-.582 1.608 2.137 2.137 0 0 0 .557 1.564 2.046 2.046 0 0 0 1.531.568 3.055 3.055 0 0 0 1.692-.542zM59.9 0h-2.3v-1.143h-.037A2.617 2.617 0 0 1 55.269.183q-2.607 0-2.607-3.157V-7.5h2.307v4.321q0 1.589 1.26 1.589a1.246 1.246 0 0 0 1-.436 1.757 1.757 0 0 0 .371-1.182V-7.5h2.3zm6.841-5.413a2.008 2.008 0 0 0-.974-.227 1.4 1.4 0 0 0-1.179.553 2.412 2.412 0 0 0-.425 1.505V0h-2.31v-7.5h2.314v1.392h.033a2 2 0 0 1 1.978-1.523 1.49 1.49 0 0 1 .571.088zM74.5-3.091h-4.891q.117 1.633 2.058 1.633a4.018 4.018 0 0 0 2.175-.586v1.67a5.715 5.715 0 0 1-2.7.557A3.8 3.8 0 0 1 68.32-.824a3.8 3.8 0 0 1-1-2.809 4.014 4.014 0 0 1 1.08-2.959 3.611 3.611 0 0 1 2.666-1.091 3.278 3.278 0 0 1 2.538.974 3.751 3.751 0 0 1 .9 2.644zm-2.144-1.421q0-1.611-1.3-1.611a1.245 1.245 0 0 0-.963.461 2.094 2.094 0 0 0-.494 1.15zm10 3.64h-.029V3.45h-2.31V-7.5h2.314v1.128h.029a2.721 2.721 0 0 1 2.41-1.311 2.711 2.711 0 0 1 2.252 1 4.257 4.257 0 0 1 .795 2.721 4.614 4.614 0 0 1-.927 3.01A3.021 3.021 0 0 1 84.426.183a2.335 2.335 0 0 1-2.065-1.055zm-.066-3.076v.6a1.909 1.909 0 0 0 .41 1.267 1.335 1.335 0 0 0 1.077.491 1.419 1.419 0 0 0 1.232-.61 2.953 2.953 0 0 0 .436-1.732q0-1.978-1.538-1.978a1.444 1.444 0 0 0-1.161.538 2.147 2.147 0 0 0-.451 1.424zM95.413 0h-2.19v-1.077h-.029a2.444 2.444 0 0 1-2.235 1.26 2.337 2.337 0 0 1-1.718-.619 2.218 2.218 0 0 1-.626-1.652q0-2.183 2.585-2.52l2.036-.271q0-1.23-1.333-1.23a4.55 4.55 0 0 0-2.549.8v-1.744a5.734 5.734 0 0 1 1.322-.439 6.949 6.949 0 0 1 1.527-.19q3.208 0 3.208 3.2zm-2.176-3.047v-.505l-1.362.176q-1.128.146-1.128 1.018a.841.841 0 0 0 .275.648 1.055 1.055 0 0 0 .743.253 1.37 1.37 0 0 0 1.062-.45 1.627 1.627 0 0 0 .41-1.14zM104.385-7.5L101.338.6q-1.1 2.922-3.311 2.922a4.241 4.241 0 0 1-1.384-.19V1.487a1.946 1.946 0 0 0 1 .271 1.253 1.253 0 0 0 1.249-.842l.4-.93L96.24-7.5h2.56l1.4 4.563a5.93 5.93 0 0 1 .205 1h.029a7 7 0 0 1 .242-.989l1.416-4.574zM117.224 0h-2.307v-4.277q0-1.633-1.2-1.633a1.1 1.1 0 0 0-.93.491 2.017 2.017 0 0 0-.359 1.223V0h-2.314v-4.321q0-1.589-1.179-1.589a1.13 1.13 0 0 0-.948.469 2.063 2.063 0 0 0-.355 1.274V0h-2.314v-7.5h2.314v1.172h.029a2.767 2.767 0 0 1 1.007-.978 2.768 2.768 0 0 1 1.417-.377 2.16 2.16 0 0 1 2.175 1.4 2.774 2.774 0 0 1 2.52-1.4q2.446 0 2.446 3.018zm8.569-3.091H120.9q.117 1.633 2.058 1.633a4.018 4.018 0 0 0 2.175-.586v1.67a5.715 5.715 0 0 1-2.7.557 3.8 3.8 0 0 1-2.82-1.007 3.8 3.8 0 0 1-1-2.809 4.014 4.014 0 0 1 1.084-2.959 3.611 3.611 0 0 1 2.666-1.091 3.278 3.278 0 0 1 2.538.974 3.751 3.751 0 0 1 .9 2.644zm-2.146-1.421q0-1.611-1.3-1.611a1.245 1.245 0 0 0-.963.461 2.094 2.094 0 0 0-.494 1.15zM134.414 0h-2.307v-4.167q0-1.743-1.245-1.743a1.235 1.235 0 0 0-.989.461 1.758 1.758 0 0 0-.388 1.172V0h-2.315v-7.5h2.314v1.187h.029a2.652 2.652 0 0 1 2.41-1.37q2.49 0 2.49 3.091zm6.365-.088a3.421 3.421 0 0 1-1.545.271q-2.446 0-2.446-2.542v-3.434h-1.216V-7.5h1.216v-1.619l2.307-.659V-7.5h1.685v1.707h-1.685v3.032q0 1.172.93 1.172a1.568 1.568 0 0 0 .754-.212z" class="cls-1" data-name="Path 1928" transform="translate(686 574)"/>
        <g id="Group_3631" data-name="Group 3631" transform="translate(684.169 442.544)">
            <path id="Path_1930" d="M200.532 123.988q-.127 1.024-.336 1.967a5.28 5.28 0 0 0-2.207-.432c-.567.038-1.238.256-1.247.767-.01.567.921.9 1.439 1.151.934.447 1.937 1.043 2.015 2.255a2.854 2.854 0 0 1-.863 2.207c-1.307 1.236-4.209 1.366-6.189.576q.186-.99.336-2.015a5.8 5.8 0 0 0 2.974.623c.526-.065 1.17-.372 1.151-.911-.023-.658-1.252-1.05-1.871-1.391a2.367 2.367 0 0 1-1.007-3.79c1.022-1.271 3.65-1.722 5.805-1.007z" class="cls-2" data-name="Path 1930" transform="translate(-106.462 -53.724)"/>
            <path id="Path_1931" d="M135.086 81.592h2.645L136.1 91.856h-2.645l1.629-10.264z" class="cls-2" data-name="Path 1931" transform="translate(-64.528 -24.176)"/>
            <path id="Path_1932" d="M104.272 81.59h4.05c2.577 0 3.246 1.484 2.965 3.256a3.436 3.436 0 0 1-2.679 2.819l2.565 4.189h-3.32l-1.924-4.031-.639 4.031h-2.645l1.629-10.264zm2.321 2.041l-.409 2.575h.765a1.623 1.623 0 0 0 1.563-1.288 1.094 1.094 0 0 0-1.139-1.287z" class="cls-2" data-name="Path 1932" transform="translate(-42.878 -24.175)"/>
            <path id="Path_1933" d="M175.7 81.592h2.645l-1.628 10.264h-2.647l1.63-10.264z" class="cls-2" data-name="Path 1933" transform="translate(-93.061 -24.176)"/>
            <path id="Path_1934" d="M191.349 81.59h5.808l-.354 2.232h-3.163l-.278 1.754h3.006l-.354 2.232h-3.006l-.288 1.815h3.162l-.354 2.232h-5.807l1.628-10.264z" class="cls-2" data-name="Path 1934" transform="translate(-104.057 -24.175)"/>
            <path id="Path_1935" d="M79.459 81.59h5.807l-.354 2.232H81.75l-.278 1.754h3.006l-.354 2.232h-3.007l-.288 1.815h3.162l-.354 2.232H77.83l1.629-10.265z" class="cls-2" data-name="Path 1935" transform="translate(-25.445 -24.175)"/>
            <path id="Path_1936" d="M150.713 81.59h5.872l-.354 2.232H153l-.283 1.754h2.937l-.355 2.232h-2.936l-.642 4.047h-2.641l1.629-10.264z" class="cls-2" data-name="Path 1936" transform="translate(-75.507 -24.175)"/>
            <path id="Path_1937" d="M216.108 81.59h3.447c4.107 0 5.043 3.106 4.721 5.135a6.246 6.246 0 0 1-6.35 5.129h-3.447l1.629-10.264zm2.291 2.232h.546a2.358 2.358 0 0 1 2.594 2.8 3.326 3.326 0 0 1-3.354 3h-.707l.921-5.8z" class="cls-2" data-name="Path 1937" transform="translate(-121.452 -24.175)"/>
            <path id="Path_1938" d="M41.613 56.017h4.893l.581 7.456c3.237-5.6 6.528-11 9.842-16.293h1.6c-3.509 6.767-6.973 13.578-10.329 20.5h-3.6l-.876-8.223c-.217-2.041-.63-2.908-2.116-3.127v-.312z" class="cls-2" data-name="Path 1938"/>
            <path id="Path_1939" d="M47.841 61.879l4.172 1.768.362 4.646h.308l3.787-6.411v-.322h-8.63v.319z" class="cls-3" data-name="Path 1939" transform="translate(-4.375 -10.103)"/>
            <path id="Path_1940" d="M104.606 129.153a1.04 1.04 0 0 1 .96 1.294 1.465 1.465 0 0 1-1.331 1.294 1.04 1.04 0 0 1-.96-1.294 1.466 1.466 0 0 1 1.331-1.294zm-2.137-4.938h1.712l-.577 4.045a2.518 2.518 0 0 1 1.755-.764c1.373 0 2.274 1.324 2.031 2.957a3.3 3.3 0 0 1-2.911 2.958 1.683 1.683 0 0 1-1.493-.818l-.091.642h-1.712l1.286-9.02z" class="cls-2" data-name="Path 1940" transform="translate(-41.853 -54.122)"/>
            <path id="Path_1941" d="M121.482 135.711h2.054l.919 2.867 1.785-2.867h1.985l-5.21 8.368h-1.985l2.2-3.529-1.745-4.84z" class="cls-2" data-name="Path 1941" transform="translate(-55.796 -62.199)"/>
            <path id="Path_1942" d="M179.544 133.226l1.5-9.02h2.462l-1.5 9.02z" class="cls-2" data-name="Path 1942" transform="translate(-96.907 -54.116)"/>
            <path id="Path_1943" d="M158.277 124.144c-.849 2-1.572 4.12-2.447 6.092l-.256-1.183v-.014l.043.211a5.561 5.561 0 0 0-.925-1.749l-.033-.042a6.41 6.41 0 0 0-.227-.272q-.07-.082-.144-.164a8.977 8.977 0 0 0-2.081-1.66l2.188 7.8h2.639c1.242-3.044 2.582-5.989 3.838-9.019z" class="cls-2" data-name="Path 1943" transform="translate(-77.698 -54.072)"/>
            <path id="Path_1944" d="M147.5 124.148h-4.024v.2c2.317.451 5.241 2.395 6.007 4.908l-.864-4.2a1.034 1.034 0 0 0-1.119-.908z" class="cls-3" data-name="Path 1944" transform="translate(-71.564 -54.075)"/>
            <path id="Path_1945" d="M225.037 133.211h-2.255c-.146-.43-.186-.965-.336-1.391h-3.07l-.576 1.391h-2.59l3.358-7.723c.148-.339.415-.8.528-1.007.171-.312.831-.336 1.111-.336h1.863zm-3.736-6.568L220.048 130h2.027z" class="cls-2" data-name="Path 1945" transform="translate(-122.668 -54.072)"/>
        </g>
    </g>
</svg>
