<svg xmlns="http://www.w3.org/2000/svg" width="122" height="78" fill="none">
  <path fill="#FAF9F7" d="M0 4a4 4 0 0 1 4-4h114a4 4 0 0 1 4 4v70a4 4 0 0 1-4 4H4a4 4 0 0 1-4-4V4z"/>
  <path fill="#fff" d="M34 10a2 2 0 0 1 2-2h86v66a4 4 0 0 1-4 4H34V10z"/>
  <rect width="18" height="2" x="5" y="29" fill="#AEABA7" rx="1"/>
  <rect width="16" height="2" x="5" y="23" fill="#AEABA7" rx="1"/>
  <rect width="20" height="2" x="5" y="17" fill="#AEABA7" rx="1"/>
  <path fill="url(#a)" d="M0 4a4 4 0 0 1 4-4h114a4 4 0 0 1 4 4v70a4 4 0 0 1-4 4H4a4 4 0 0 1-4-4V4z"/>
  <rect width="24" height="5" x="5" y="8" fill="#6D4AFF" rx="1.5"/>
  <defs>
    <linearGradient id="a" x1="60.803" x2="93.951" y1="-8.578" y2="89.109" gradientUnits="userSpaceOnUse">
      <stop stop-color="#fff" stop-opacity=".2"/>
      <stop offset="1" stop-color="#F2EFE9" stop-opacity=".3"/>
    </linearGradient>
  </defs>
</svg>
