<svg xmlns="http://www.w3.org/2000/svg" width="122" height="78" fill="none">
  <path fill="#13151A" d="M0 4a4 4 0 0 1 4-4h114a4 4 0 0 1 4 4v70a4 4 0 0 1-4 4H4a4 4 0 0 1-4-4V4z"/>
  <path fill="#262A33" d="M34 10a2 2 0 0 1 2-2h86v66a4 4 0 0 1-4 4H34V10z"/>
  <rect width="24" height="5" x="5" y="8" fill="#E64663" rx="1.5"/>
  <g fill="#fff" opacity=".3">
    <rect width="18" height="2" x="5" y="29" rx="1"/>
    <rect width="16" height="2" x="5" y="23" rx="1"/>
    <rect width="20" height="2" x="5" y="17" rx="1"/>
  </g>
  <rect width="122" height="78" fill="url(#a)" rx="4"/>
  <defs>
    <linearGradient id="a" x1="43.5" x2="124.964" y1="3" y2="53.265" gradientUnits="userSpaceOnUse">
      <stop stop-color="#EEBEFF" stop-opacity=".2"/>
      <stop offset="1" stop-color="#6D4AFF" stop-opacity=".1"/>
    </linearGradient>
  </defs>
</svg>
