<svg xmlns="http://www.w3.org/2000/svg" width="106" height="44" fill="none">
  <path fill="url(#a)" d="M0 4a4 4 0 0 1 4-4h98a4 4 0 0 1 4 4v36a4 4 0 0 1-4 4H4a4 4 0 0 1-4-4V4z"/>
  <path fill="url(#b)" d="M34 10a2 2 0 0 1 2-2h70v32a4 4 0 0 1-4 4H34V10z"/>
  <rect width="24" height="5" x="5" y="8" fill="#6D4AFF" rx="1.5"/>
  <rect width="18" height="2" x="5" y="29" fill="#000" fill-opacity=".8" rx="1"/>
  <rect width="16" height="2" x="5" y="23" fill="#000" fill-opacity=".8" rx="1"/>
  <rect width="20" height="2" x="5" y="17" fill="#000" fill-opacity=".8" rx="1"/>
  <defs>
    <linearGradient id="a" x1="41.27" x2="25.242" y1="45.692" y2="-5.582" gradientUnits="userSpaceOnUse">
      <stop stop-color="#F8F8F8"/>
      <stop offset="1" stop-color="#F5F5F5"/>
    </linearGradient>
    <linearGradient id="b" x1="49.136" x2="58.008" y1="8" y2="46.746" gradientUnits="userSpaceOnUse">
      <stop stop-color="#fff"/>
      <stop offset="1" stop-color="#F5F5F5"/>
    </linearGradient>
  </defs>
</svg>
