<svg xmlns="http://www.w3.org/2000/svg" width="122" height="78" fill="none">
  <path fill="url(#a)" d="M0 4a4 4 0 0 1 4-4h114a4 4 0 0 1 4 4v70a4 4 0 0 1-4 4H4a4 4 0 0 1-4-4V4z"/>
  <path fill="url(#b)" d="M34 10a2 2 0 0 1 2-2h86v66a4 4 0 0 1-4 4H34V10z"/>
  <rect width="24" height="5" x="5" y="8" fill="#4630A6" rx="1.5"/>
  <rect width="18" height="2" x="5" y="29" fill="#000" fill-opacity=".8" rx="1"/>
  <rect width="16" height="2" x="5" y="23" fill="#000" fill-opacity=".8" rx="1"/>
  <rect width="20" height="2" x="5" y="17" fill="#000" fill-opacity=".8" rx="1"/>
  <defs>
    <linearGradient id="a" x1="47.5" x2="8.5" y1="81" y2="0" gradientUnits="userSpaceOnUse">
      <stop stop-color="#F8F8F8"/>
      <stop offset="1" stop-color="#F5F5F5"/>
    </linearGradient>
    <linearGradient id="b" x1="52.5" x2="78" y1="8" y2="78" gradientUnits="userSpaceOnUse">
      <stop stop-color="#fff"/>
      <stop offset="1" stop-color="#F5F5F5"/>
    </linearGradient>
  </defs>
</svg>
