<svg xmlns="http://www.w3.org/2000/svg" width="122" height="78" fill="none" viewBox="0 0 122 78">
  <path fill="#13151A" d="M0 3a3 3 0 013-3h116a3 3 0 013 3v5H0V3zM0 8h122v67a3 3 0 01-3 3H3a3 3 0 01-3-3V8z"/>
  <path fill="#262A33" d="M34 9a1 1 0 011-1h82a1 1 0 011 1v69H34V9z"/>
  <rect width="24" height="5" x="5" y="8" fill="#657EE4" rx="1"/>
  <rect width="18" height="2" x="5" y="29" fill="#464B56" rx="1"/>
  <rect width="16" height="2" x="5" y="23" fill="#464B56" rx="1"/>
  <rect width="20" height="2" x="5" y="17" fill="#464B56" rx="1"/>
</svg>
