<svg xmlns="http://www.w3.org/2000/svg" width="106" height="44" fill="none">
  <path fill="#16141C" d="M0 4a4 4 0 0 1 4-4h98a4 4 0 0 1 4 4v36a4 4 0 0 1-4 4H4a4 4 0 0 1-4-4V4z"/>
  <path fill="#2A2833" d="M34 10a2 2 0 0 1 2-2h70v32a4 4 0 0 1-4 4H34V10z"/>
  <rect width="24" height="5" x="5" y="8" fill="#6D4AFF" rx="1.5"/>
  <g fill="#fff" opacity=".3">
    <rect width="18" height="2" x="5" y="29" rx="1"/>
    <rect width="16" height="2" x="5" y="23" rx="1"/>
    <rect width="20" height="2" x="5" y="17" rx="1"/>
  </g>
  <rect width="106" height="44" fill="url(#a)" rx="4"/>
  <defs>
    <linearGradient id="a" x1="37.795" x2="89.144" y1="1.692" y2="50.493" gradientUnits="userSpaceOnUse">
      <stop stop-color="#EEBEFF" stop-opacity=".2"/>
      <stop offset="1" stop-color="#6D4AFF" stop-opacity=".1"/>
    </linearGradient>
  </defs>
</svg>
