<svg xmlns="http://www.w3.org/2000/svg" width="106" height="44" fill="none">
  <path fill="url(#a)" d="M0 4a4 4 0 0 1 4-4h98a4 4 0 0 1 4 4v36a4 4 0 0 1-4 4H4a4 4 0 0 1-4-4V4z"/>
  <rect width="24" height="5" x="5" y="8" fill="#936DFF" rx="1.5"/>
  <path fill="url(#b)" d="M34 10a2 2 0 0 1 2-2h70v32a4 4 0 0 1-4 4H34V10z"/>
  <g fill="#fff" opacity=".4">
    <rect width="18" height="2" x="5" y="29" rx="1"/>
    <rect width="16" height="2" x="5" y="23" rx="1"/>
    <rect width="20" height="2" x="5" y="17" rx="1"/>
  </g>
  <defs>
    <linearGradient id="a" x1="12.598" x2="57.517" y1="0" y2="79.338" gradientUnits="userSpaceOnUse">
      <stop stop-color="#4C399D"/>
      <stop offset="1" stop-color="#342969"/>
    </linearGradient>
    <linearGradient id="b" x1="106" x2="76.097" y1="44" y2="8.767" gradientUnits="userSpaceOnUse">
      <stop stop-color="#FCF7FF"/>
      <stop offset="1" stop-color="#fff"/>
    </linearGradient>
  </defs>
</svg>
