<svg width="48" height="56" viewBox="0 0 48 56" fill="none" xmlns="http://www.w3.org/2000/svg">
    <g clip-path="url(#clip0_35826_13694)">
        <path
            fill-rule="evenodd"
            clip-rule="evenodd"
            d="M20.5826 0.602066C22.7901 -0.200688 25.2099 -0.200689 27.4174 0.602066L46.6835 7.6079C47.4739 7.89531 48 8.64648 48 9.48749V31.9894C48 38.5764 44.402 44.6373 38.6193 47.7915L24.9577 55.2433C24.3607 55.5689 23.6392 55.5689 23.0423 55.2433L9.38066 47.7915C3.59797 44.6373 0 38.5764 0 31.9894V9.48749C0 8.64648 0.526136 7.89531 1.31651 7.6079L20.5826 0.602066Z"
            fill="url(#paint0_linear_35826_13694)"
        />
        <path
            fill-rule="evenodd"
            clip-rule="evenodd"
            d="M35.5607 18.4237C36.1464 19.0095 36.1464 19.9592 35.5607 20.545L21.5607 34.545C20.9749 35.1308 20.0251 35.1308 19.4393 34.545L13.4393 28.545C12.8536 27.9592 12.8536 27.0095 13.4393 26.4237C14.0251 25.8379 14.9749 25.8379 15.5607 26.4237L20.5 31.3631L33.4393 18.4237C34.0251 17.8379 34.9749 17.8379 35.5607 18.4237Z"
            fill="white"
        />
    </g>
    <defs>
        <linearGradient
            id="paint0_linear_35826_13694"
            x1="6.01454e-07"
            y1="0.484375"
            x2="48"
            y2="55.4844"
            gradientUnits="userSpaceOnUse"
        >
            <stop stop-color="#1EA885" />
            <stop offset="1" stop-color="#1EA885" stop-opacity="0.5" />
        </linearGradient>
        <clipPath id="clip0_35826_13694">
            <rect width="48" height="56" fill="white" />
        </clipPath>
    </defs>
</svg>
