<svg
    xmlns="http://www.w3.org/2000/svg"
    xmlns:xlink="http://www.w3.org/1999/xlink"
    preserveAspectRatio="xMidYMid meet"
    width="1285"
    height="798"
    viewBox="0 0 1285 798"
    style="width: 100%; height: 100%"
>
    <defs>
        <animate
            repeatCount="indefinite"
            dur="2s"
            begin="0s"
            xlink:href="#_R_G_L_11_G_M"
            fill="freeze"
            attributeName="opacity"
            from="0"
            to="1"
            keyTimes="0;0.65;0.6500008;1"
            values="0;0;1;1"
            keySplines="0 0 0 0;0 0 0 0;0 0 0 0"
            calcMode="spline"
        />
        <animate
            repeatCount="indefinite"
            dur="2s"
            begin="0s"
            xlink:href="#_R_G_L_10_G_M"
            fill="freeze"
            attributeName="opacity"
            from="0"
            to="0"
            keyTimes="0;0.575;0.5750008;0.65;0.65;1"
            values="0;0;1;1;0;0"
            keySplines="0 0 0 0;0 0 0 0;0 0 0 0;0 0 0 0;0 0 0 0"
            calcMode="spline"
        />
        <animate
            repeatCount="indefinite"
            dur="2s"
            begin="0s"
            xlink:href="#_R_G_L_9_G_M"
            fill="freeze"
            attributeName="opacity"
            from="0"
            to="0"
            keyTimes="0;0.5;0.5000008;0.575;0.575;1"
            values="0;0;1;1;0;0"
            keySplines="0 0 0 0;0 0 0 0;0 0 0 0;0 0 0 0;0 0 0 0"
            calcMode="spline"
        />
        <animate
            repeatCount="indefinite"
            dur="2s"
            begin="0s"
            xlink:href="#_R_G_L_8_G_M"
            fill="freeze"
            attributeName="opacity"
            from="0"
            to="0"
            keyTimes="0;0.425;0.4250008;0.5;0.5;1"
            values="0;0;1;1;0;0"
            keySplines="0 0 0 0;0 0 0 0;0 0 0 0;0 0 0 0;0 0 0 0"
            calcMode="spline"
        />
        <animate
            repeatCount="indefinite"
            dur="2s"
            begin="0s"
            xlink:href="#_R_G_L_7_G_M"
            fill="freeze"
            attributeName="opacity"
            from="0"
            to="0"
            keyTimes="0;0.35;0.3500008;0.425;0.425;1"
            values="0;0;1;1;0;0"
            keySplines="0 0 0 0;0 0 0 0;0 0 0 0;0 0 0 0;0 0 0 0"
            calcMode="spline"
        />
        <animate
            repeatCount="indefinite"
            dur="2s"
            begin="0s"
            xlink:href="#_R_G_L_6_G_M"
            fill="freeze"
            attributeName="opacity"
            from="0"
            to="0"
            keyTimes="0;0.2833333;0.2833342;0.35;0.35;1"
            values="0;0;1;1;0;0"
            keySplines="0 0 0 0;0 0 0 0;0 0 0 0;0 0 0 0;0 0 0 0"
            calcMode="spline"
        />
        <animate
            repeatCount="indefinite"
            dur="2s"
            begin="0s"
            xlink:href="#_R_G_L_5_G_M"
            fill="freeze"
            attributeName="opacity"
            from="0"
            to="0"
            keyTimes="0;0.175;0.1750008;0.2833333;0.2833333;1"
            values="0;0;1;1;0;0"
            keySplines="0 0 0 0;0 0 0 0;0 0 0 0;0 0 0 0;0 0 0 0"
            calcMode="spline"
        />
        <animate
            repeatCount="indefinite"
            dur="2s"
            begin="0s"
            xlink:href="#_R_G_L_4_G_M"
            fill="freeze"
            attributeName="opacity"
            from="0"
            to="0"
            keyTimes="0;0.1;0.1000008;0.175;0.175;1"
            values="0;0;1;1;0;0"
            keySplines="0 0 0 0;0 0 0 0;0 0 0 0;0 0 0 0;0 0 0 0"
            calcMode="spline"
        />
        <animate
            repeatCount="indefinite"
            dur="2s"
            begin="0s"
            xlink:href="#_R_G_L_3_G_M"
            fill="freeze"
            attributeName="opacity"
            from="0"
            to="0"
            keyTimes="0;0.025;0.0250008;0.1;0.1;1"
            values="0;0;1;1;0;0"
            keySplines="0 0 0 0;0 0 0 0;0 0 0 0;0 0 0 0;0 0 0 0"
            calcMode="spline"
        />
        <animate attributeType="XML" attributeName="opacity" dur="2s" from="0" to="1" xlink:href="#time_group" />
    </defs>
    <g id="_R_G">
        <g id="_R_G_L_13_G" transform=" translate(966.5, 507) scale(4, 4) translate(-39.5, -31.5)">
            <path
                id="_R_G_L_13_G_D_0_P_0"
                fill="#4d34b3"
                fill-opacity="1"
                fill-rule="nonzero"
                d=" M57.27 0.5 C56.18,0.5 55.12,0.83 54.22,1.43 C54.22,1.43 51.33,4.74 51.33,4.74 C50.17,5.67 49.36,5.67 48.27,5.67 C48.27,5.67 2.89,5.67 2.89,5.67 C1.39,5.67 0.17,6.88 0.17,8.37 C0.17,8.37 0.17,49.05 0.17,49.05 C0.17,56.75 6.45,62.99 14.2,62.99 C14.2,62.99 74.83,62.99 74.83,62.99 C77.08,62.99 78.9,61.17 78.9,58.94 C78.9,58.94 78.9,3.2 78.9,3.2 C78.9,1.71 77.69,0.5 76.19,0.5 C76.19,0.5 57.27,0.5 57.27,0.5z "
            />
        </g>
        <g id="_R_G_L_12_G" transform=" translate(371.5, 507) scale(4, 4) translate(-39.5, -31.5)">
            <path
                id="_R_G_L_12_G_D_0_P_0"
                fill="#4d34b3"
                fill-opacity="1"
                fill-rule="nonzero"
                d=" M57.27 0.5 C56.18,0.5 55.12,0.83 54.22,1.43 C54.22,1.43 51.33,4.74 51.33,4.74 C50.17,5.67 49.36,5.67 48.27,5.67 C48.27,5.67 2.89,5.67 2.89,5.67 C1.39,5.67 0.17,6.88 0.17,8.37 C0.17,8.37 0.17,49.05 0.17,49.05 C0.17,56.75 6.45,62.99 14.2,62.99 C14.2,62.99 74.83,62.99 74.83,62.99 C77.08,62.99 78.9,61.17 78.9,58.94 C78.9,58.94 78.9,3.2 78.9,3.2 C78.9,1.71 77.69,0.5 76.19,0.5 C76.19,0.5 57.27,0.5 57.27,0.5z "
            />
        </g>
        <g id="_R_G_L_11_G_M">
            <g id="_R_G_L_11_G" transform=" translate(954, 466) scale(5.47, 5.47) translate(-30.5, -30.5)">
                <path
                    id="_R_G_L_11_G_D_0_P_0"
                    fill="#ececec"
                    fill-opacity="1"
                    fill-rule="nonzero"
                    d=" M34.89 13.15 C32.12,14.05 27.63,15.65 23.27,17.82 C23.27,17.82 15.89,21.83 15.89,21.83 C14.62,22.52 14.02,24.03 14.47,25.4 C14.47,25.4 16.02,30.09 16.02,30.09 C16.02,30.09 21.26,46.27 21.26,46.27 C22.23,48.5 24.84,49.51 27.05,48.5 C27.05,48.5 44.36,40.62 44.36,40.62 C46.74,39.54 47.64,36.61 46.35,34.34 C43.82,29.89 40.2,19.84 38.52,15.01 C38.1,13.8 36.98,13.01 35.77,13.01 C35.48,13.01 35.18,13.06 34.89,13.15z "
                />
            </g>
        </g>
        <g id="_R_G_L_10_G_M">
            <g id="_R_G_L_10_G" transform=" translate(875.75, 352) scale(5.47, 5.47) translate(-29.5, -30)">
                <path
                    id="_R_G_L_10_G_D_0_P_0"
                    fill="#ececec"
                    fill-opacity="1"
                    fill-rule="nonzero"
                    d=" M20.2 18.38 C20.2,18.38 19.65,18.7 19.65,18.7 C19.65,18.7 14.2,29.61 14.2,29.61 C14.2,29.61 19.45,45.79 19.45,45.79 C20.42,48.02 23.02,49.03 25.24,48.02 C25.24,48.02 42.54,40.14 42.54,40.14 C44.92,39.06 45.83,36.14 44.53,33.86 C41.14,27.9 35.56,17.27 36.12,12.85 C36.21,12.09 35.78,11.76 34.96,11.76 C32.27,11.76 25.46,15.34 20.2,18.38z "
                />
                <path
                    id="_R_G_L_10_G_D_1_P_0"
                    fill="#f9f9f9"
                    fill-opacity="1"
                    fill-rule="nonzero"
                    d=" M14.1 29.66 C14.1,29.66 19.91,18.33 19.91,18.33 C21.5,20.94 21.1,21.97 21.79,25.32 C20.58,26.53 18.46,26.98 14.1,29.66z "
                />
            </g>
        </g>
        <g id="_R_G_L_9_G_M">
            <g id="_R_G_L_9_G" transform=" translate(807, 272.25) scale(5.47, 5.47) translate(-29, -30)">
                <path
                    id="_R_G_L_9_G_D_0_P_0"
                    fill="#ececec"
                    fill-opacity="1"
                    fill-rule="nonzero"
                    d=" M21.15 16.85 C21.15,16.85 20.99,17.23 20.99,17.23 C20.99,17.23 13.68,35.8 13.68,35.8 C13.68,35.8 17.98,45.77 17.98,45.77 C18.95,48 21.56,49 23.77,48 C23.77,48 41.08,40.12 41.08,40.12 C43.46,39.03 44.36,36.11 43.07,33.84 C39.68,27.87 34.1,17.25 34.65,12.83 C34.77,11.89 34.28,11.49 33.36,11.49 C31.06,11.49 26.04,14.02 21.15,16.85z "
                />
                <path
                    id="_R_G_L_9_G_D_1_P_0"
                    fill="#f9f9f9"
                    fill-opacity="1"
                    fill-rule="nonzero"
                    d=" M13.68 35.8 C13.68,35.8 21.14,16.83 21.14,16.83 C22.73,19.44 26.56,24.37 28.25,26.28 C27.05,27.48 18.03,33.13 13.68,35.8z "
                />
            </g>
        </g>
        <g id="_R_G_L_8_G_M">
            <g id="_R_G_L_8_G" transform=" translate(744, 248.75) scale(5.47, 5.47) translate(-14.5, -21.5)">
                <path
                    id="_R_G_L_8_G_D_0_P_0"
                    fill="#ececec"
                    fill-opacity="1"
                    fill-rule="nonzero"
                    d=" M2.19 30.42 C2.19,30.42 11.02,39.07 11.02,39.07 C16.19,36.91 26.52,31.86 26.52,28.98 C23.06,27.1 18.47,22.31 16.61,20.15 C16.61,20.15 15.34,1.41 15.34,1.41 C14.77,1.84 6.33,20.93 2.19,30.42z "
                />
                <path
                    id="_R_G_L_8_G_D_1_P_0"
                    fill="#f9f9f9"
                    fill-opacity="1"
                    fill-rule="nonzero"
                    d=" M2.19 30.42 C6.34,20.93 9.83,7.2 15.34,1.41 C15.34,1.41 22.19,24.47 22.19,24.47 C11.67,25.92 3.75,29.04 2.19,30.42z "
                />
            </g>
        </g>
        <g id="_R_G_L_7_G_M">
            <g id="_R_G_L_7_G" transform=" translate(689, 224) scale(5.47, 5.47) translate(-16.5, -19)">
                <path
                    id="_R_G_L_7_G_D_0_P_0"
                    fill="#ececec"
                    fill-opacity="1"
                    fill-rule="nonzero"
                    d=" M8.03 34.87 C8.03,34.87 2.71,26.67 2.71,26.67 C2.71,26.67 12.38,7.2 12.38,7.2 C12.38,7.2 26.95,23.45 26.95,23.45 C26.95,23.45 8.03,34.87 8.03,34.87z "
                />
                <path
                    id="_R_G_L_7_G_D_1_P_0"
                    fill="#f9f9f9"
                    fill-opacity="1"
                    fill-rule="nonzero"
                    d=" M2.68 26.68 C2.68,26.68 12.37,7.14 12.37,7.14 C19.31,8.88 26.05,3.93 28.13,1.24 C29.72,3.33 30.3,4.97 30.3,7.14 C10.94,30.47 3.82,29.89 2.68,26.68z "
                />
            </g>
        </g>
        <g id="_R_G_L_6_G_M">
            <g id="_R_G_L_6_G" transform=" translate(644, 195.5) scale(5.47, 5.47) translate(-21.5, -17.5)">
                <path
                    id="_R_G_L_6_G_D_0_P_0"
                    fill="#f9f9f9"
                    fill-opacity="1"
                    fill-rule="nonzero"
                    d=" M2.88 31.15 C3.2,19.56 8.12,8.02 10.53,3.7 C19.56,9.49 34.45,4.33 40.76,1.03 C32.97,11.07 14.48,31.15 2.88,31.15z "
                />
            </g>
        </g>
        <g id="_R_G_L_5_G_M">
            <g id="_R_G_L_5_G" transform=" translate(580.5, 230) scale(5.47, 5.47) translate(-24, -17)">
                <path
                    id="_R_G_L_5_G_D_0_P_0"
                    fill="#ececec"
                    fill-opacity="1"
                    fill-rule="nonzero"
                    d=" M2.12 30.15 C28.08,28.11 40.94,21.15 45.28,12.24 C40.23,10.12 24,2.78 17.22,1.08 C16.57,11.38 5.87,24.83 2.12,30.15z "
                />
                <path
                    id="_R_G_L_5_G_D_1_P_0"
                    fill="#f9f9f9"
                    fill-opacity="1"
                    fill-rule="nonzero"
                    d=" M7.8 29.6 C29.98,27.04 41.27,20.47 45.28,12.24 C45.28,12.24 29.11,16.06 7.8,12.24 C5.57,19.08 7.8,29.6 7.8,29.6z "
                />
            </g>
        </g>
        <g id="_R_G_L_4_G_M">
            <g id="_R_G_L_4_G" transform=" translate(548.5, 267) scale(5.47, 5.47) translate(-24, -19)">
                <path
                    id="_R_G_L_4_G_D_0_P_0"
                    fill="#ececec"
                    fill-opacity="1"
                    fill-rule="nonzero"
                    d=" M2.75 30.85 C23.25,42.72 41.57,21.85 45.92,12.94 C40.86,10.82 24.63,3.48 17.85,1.78 C17.2,12.08 6.5,25.53 2.75,30.85z "
                />
                <path
                    id="_R_G_L_4_G_D_1_P_0"
                    fill="#f9f9f9"
                    fill-opacity="1"
                    fill-rule="nonzero"
                    d=" M17.73 24.5 C24.18,29.47 17.73,34.41 17.73,34.41 C27.58,33.88 35.47,27.25 40.55,20.75 C40.55,20.75 35.48,23.73 17.73,24.5z "
                />
            </g>
        </g>
        <g id="_R_G_L_3_G_M">
            <g id="_R_G_L_3_G" transform=" translate(478, 385.5) scale(5.47, 5.47) translate(-28, -27.5)">
                <path
                    id="_R_G_L_3_G_D_0_P_0"
                    fill="#ececec"
                    fill-opacity="1"
                    fill-rule="nonzero"
                    d=" M25.35 5.16 C20.06,11.83 9.11,24.89 3.22,26.41 C-0.94,27.48 6.47,34.38 14.48,40.71 C14.48,40.71 14.48,40.66 14.48,40.66 C14.48,40.66 40.81,40.66 40.81,40.66 C40.81,40.66 51.65,29.82 51.65,29.82 C53.37,28.1 53.34,25.31 51.59,23.63 C51.59,23.63 31.91,4.69 31.91,4.69 C31.05,3.86 29.96,3.46 28.86,3.46 C27.55,3.46 26.24,4.04 25.35,5.16z "
                />
                <path
                    id="_R_G_L_3_G_D_1_P_0"
                    fill="#f9f9f9"
                    fill-opacity="1"
                    fill-rule="nonzero"
                    d=" M41.52 40.6 C41.52,40.6 14.33,40.6 14.33,40.6 C14.33,40.6 14.39,40.54 14.39,40.54 C14.49,40.44 14.61,40.36 14.73,40.3 C14.73,40.3 28.34,33.18 28.34,33.18 C29.88,32.37 31.76,32.57 33.11,33.67 C33.11,33.67 41.52,40.6 41.52,40.6z "
                />
            </g>
        </g>
        <g id="_R_G_L_2_G" transform=" translate(323.5, 508.5) scale(5.47, 5.47) translate(-26.5, -26.5)">
            <path
                id="_R_G_L_2_G_D_0_P_0"
                fill="#dedede"
                fill-opacity="1"
                fill-rule="nonzero"
                d=" M22.76 4.07 C22.76,4.07 3.76,23.07 3.76,23.07 C2.05,24.79 2.07,27.58 3.82,29.27 C3.82,29.27 14.21,39.26 14.21,39.26 C14.21,39.26 39.42,39.26 39.42,39.26 C39.42,39.26 49.06,29.61 49.06,29.61 C50.78,27.89 50.76,25.1 49,23.41 C49,23.41 28.84,4.01 28.84,4.01 C28,3.2 26.92,2.8 25.83,2.8 C24.72,2.8 23.61,3.22 22.76,4.07z "
            />
            <path
                id="_R_G_L_2_G_D_1_P_0"
                fill="#f9f9f9"
                fill-opacity="1"
                fill-rule="nonzero"
                d=" M39.43 39.41 C39.43,39.41 14.79,39.41 14.79,39.41 C14.79,39.41 24.04,30.16 24.04,30.16 C25.73,28.46 28.48,28.46 30.18,30.16 C30.18,30.16 39.43,39.41 39.43,39.41z "
            />
        </g>
        <g id="_R_G_L_1_G" transform=" translate(954.5, 563) scale(4, 4) translate(-49, -25)">
            <path
                id="_R_G_L_1_G_D_0_P_0"
                fill="#8a6eff"
                fill-opacity="1"
                fill-rule="nonzero"
                d=" M8.12 2.53 C3.65,2.53 0.49,6.91 1.91,11.15 C1.91,11.15 10.6,37.03 10.6,37.03 C11.79,40.59 15.12,42.98 18.87,42.98 C18.87,42.98 87.15,42.98 87.15,42.98 C89.2,42.98 90.65,40.97 90,39.03 C90,39.03 79.75,8.48 79.75,8.48 C78.55,4.92 75.22,2.53 71.47,2.53 C71.47,2.53 8.12,2.53 8.12,2.53z "
            />
        </g>
        <g id="_R_G_L_0_G" transform=" translate(359.5, 563) scale(4, 4) translate(-49, -25)">
            <path
                id="_R_G_L_0_G_D_0_P_0"
                fill="#8a6eff"
                fill-opacity="1"
                fill-rule="nonzero"
                d=" M8.12 2.53 C3.65,2.53 0.49,6.91 1.91,11.15 C1.91,11.15 10.6,37.03 10.6,37.03 C11.79,40.59 15.12,42.98 18.87,42.98 C18.87,42.98 87.15,42.98 87.15,42.98 C89.2,42.98 90.65,40.97 90,39.03 C90,39.03 79.75,8.48 79.75,8.48 C78.55,4.92 75.22,2.53 71.47,2.53 C71.47,2.53 8.12,2.53 8.12,2.53z "
            />
        </g>
    </g>
    <g id="time_group" />
</svg>
