<svg width="16" height="16" viewBox="0 0 43 42" fill="none" xmlns="http://www.w3.org/2000/svg">
    <path
        d="M3.24219 7.24891C3.24219 3.24545 6.48763 0 10.4911 0H24.1888C26.0567 0 27.8525 0.72102 29.2017 2.01272L37.0062 9.48433C38.4345 10.8517 39.2422 12.7432 39.2422 14.7205V34.7511C39.2422 38.7546 35.9967 42 31.9933 42H10.4911C6.48763 42 3.24219 38.7546 3.24219 34.7511V7.24891Z"
        fill="#34B8EE"
    />
    <path d="M28.9229 0.0410156H18.6172V10.3467H28.9229V0.0410156Z" fill="#85D4F5" />
    <path
        d="M39.2471 6.97551V10.3467H28.9414V0.0410156H32.103C32.9065 0.0410156 33.675 0.180754 34.3912 0.407828C37.151 1.33359 39.1597 3.91874 39.2471 6.95805V6.97551Z"
        fill="#D6F1FC"
    />
    <path d="M39.2471 10.3477H28.9414V20.6533H39.2471V10.3477Z" fill="#85D4F5" />
    <path
        fill-rule="evenodd"
        clip-rule="evenodd"
        d="M9.35938 20.4107C9.35938 19.4325 10.1454 18.6465 11.1236 18.6465H18.5821C19.5602 18.6465 20.3463 19.4325 20.3463 20.4107C20.3463 21.3888 19.5602 22.1749 18.5821 22.1749H11.1236C10.1454 22.1749 9.35938 21.3888 9.35938 20.4107Z"
        fill="white"
    />
    <path
        fill-rule="evenodd"
        clip-rule="evenodd"
        d="M9.35938 27.2603C9.35938 26.2821 10.1454 25.4961 11.1236 25.4961H23.438C24.4161 25.4961 25.2022 26.2821 25.2022 27.2603C25.2022 28.2385 24.4161 29.0245 23.438 29.0245H11.1236C10.1454 29.0245 9.35938 28.2385 9.35938 27.2603Z"
        fill="white"
    />
    <path
        fill-rule="evenodd"
        clip-rule="evenodd"
        d="M9.35938 34.1255C9.35938 33.1474 10.1454 32.3613 11.1236 32.3613H23.438C24.4161 32.3613 25.2022 33.1474 25.2022 34.1255C25.2022 35.1037 24.4161 35.8897 23.438 35.8897H11.1236C10.1454 35.8897 9.35938 35.1037 9.35938 34.1255Z"
        fill="white"
    />
</svg>
