<svg xmlns="http://www.w3.org/2000/svg" width="16" height="16" fill="none">
    <path
        fill="#6D4AFF"
        d="M1.15 2.29A2.28 2.28 0 0 1 3.43 0h5.9c.61 0 1.2.24 1.62.67L14.2 3.9c.42.43.67 1.01.67 1.62v8.2A2.28 2.28 0 0 1 12.57 16H3.43a2.28 2.28 0 0 1-2.28-2.29V2.3Z"
    />
    <path
        fill="#B380FF"
        d="M14.65 4.57h-3.22c-.63 0-1.15-.5-1.15-1.14V.21c.25.11.48.27.67.46L14.2 3.9c.2.2.35.43.46.67Z"
    />
    <path
        fill="#501AFF"
        d="M14.86 5.71h-3.43a2.28 2.28 0 0 1-2.29-2.28V0h.2c.33 0 .65.07.95.2v3.23c0 .63.5 1.14 1.14 1.14h3.22c.13.3.2.62.2.95v.2Z"
    />
    <path
        fill="#fff"
        d="M5.97 11.35v1.6H7.1v-1.53a.56.56 0 0 1 .56-.56H8.8a2.03 2.03 0 0 0 0-4.06H5.97v2H7.1v-.94h1.64a.96.96 0 0 1 0 1.92h-1.2a1.57 1.57 0 0 0-1.57 1.57Z"
    />
</svg>
