<?xml version="1.0" encoding="utf-8"?>
<!-- Generator: Adobe Illustrator 24.1.0, SVG Export Plug-In . SVG Version: 6.00 Build 0)  -->
<svg version="1.1" id="Layer_1" xmlns="http://www.w3.org/2000/svg" xmlns:xlink="http://www.w3.org/1999/xlink" x="0px" y="0px"
	 viewBox="0 0 322.3 233.8" style="enable-background:new 0 0 322.3 233.8;" xml:space="preserve">
<style type="text/css">
	.st0{fill:url(#Path_2412_1_);}
	.st1{fill:#FFFFFF;}
	.st2{fill:url(#Path_2414_1_);}
	.st3{clip-path:url(#SVGID_2_);}
	.st4{fill:#E0E0E0;}
	.st5{fill:#F5F5F5;}
	.st6{fill:url(#Path_2408_1_);}
	.st7{fill:#657EE4;}
</style>
<g id="Group_6092" transform="translate(-623.061 -286.843)">
	<g id="Group_4009" transform="translate(622.566 368.159) rotate(-8)">
		
			<linearGradient id="Path_2412_1_" gradientUnits="userSpaceOnUse" x1="-1089.2634" y1="-71.6113" x2="-1089.2634" y2="-70.6113" gradientTransform="matrix(153.333 2.586643e-05 2.979959e-05 106.912 167111.9219 7632.7329)">
			<stop  offset="0" style="stop-color:#808080;stop-opacity:0.251"/>
			<stop  offset="0.54" style="stop-color:#808080;stop-opacity:0.122"/>
			<stop  offset="1" style="stop-color:#808080;stop-opacity:0.102"/>
		</linearGradient>
		<path id="Path_2412" class="st0" d="M153.5,101.2c0,1.8-1.5,3.4-3.3,3.4l-146.7,0c-1.8,0-3.3-1.5-3.3-3.4l0,0L0.2,1
			c0-1.8,1.5-3.4,3.3-3.4l146.7,0c1.8,0,3.3,1.5,3.3,3.4l0,0"/>
		<path id="Path_2413" class="st1" d="M151.8,99.6c0,1.8-1.5,3.3-3.3,3.3l-143.3,0c-1.8,0-3.3-1.5-3.3-3.3l0,0L2,2.8
			C2,1,3.5-0.5,5.3-0.5l143.3,0c1.8,0,3.3,1.5,3.3,3.3"/>
		<g id="_x35_f7f4fba-1df4-4c9b-ab6f-3f66810cb66e_1_" transform="translate(8.044 6.436)">
			
				<linearGradient id="Path_2414_1_" gradientUnits="userSpaceOnUse" x1="-1105.7051" y1="-71.8928" x2="-1105.7051" y2="-70.8928" gradientTransform="matrix(138.474 -5.079752e-05 5.624719e-05 94.584 153189.3125 6800.979)">
				<stop  offset="0" style="stop-color:#808080;stop-opacity:0.251"/>
				<stop  offset="0.54" style="stop-color:#808080;stop-opacity:0.122"/>
				<stop  offset="1" style="stop-color:#808080;stop-opacity:0.102"/>
			</linearGradient>
			<path id="Path_2414" class="st2" d="M1.2-2.3l135.4,0c0.9,0,1.6,0.7,1.5,1.6l0,0v91.5c0,0.9-0.7,1.5-1.5,1.5l-135.4,0
				c-0.9,0-1.6-0.7-1.6-1.5l0-91.5C-0.3-1.6,0.4-2.3,1.2-2.3z"/>
		</g>
		<path id="Path_2415" class="st1" d="M11,6.3l131.8,0c0.9,0,1.5,0.7,1.5,1.5v86.6c0,0.9-0.7,1.5-1.5,1.5L11,96
			c-0.9,0-1.6-0.7-1.6-1.5l0-86.6C9.4,7,10.1,6.3,11,6.3z"/>
		<g id="Group_4008" transform="translate(9.749 8.616)">
			<g>
				<g>
					<defs>
						<path id="SVGID_1_" d="M1.2-2.3l131.8,0c0.9,0,1.6,0.7,1.5,1.6l0,0v86.6c0,0.9-0.7,1.5-1.5,1.5l-131.8,0
							c-0.9,0-1.6-0.7-1.6-1.5l0-86.7C-0.3-1.6,0.4-2.3,1.2-2.3z"/>
					</defs>
					<clipPath id="SVGID_2_">
						<use xlink:href="#SVGID_1_"  style="overflow:visible;"/>
					</clipPath>
					<g id="Group_4007" class="st3">
						<path id="Path_2416" class="st4" d="M-7.8,86.6l37.7-43.2c2.7-3.1,7.5-3.4,10.6-0.7l0,0L51,52.1c2.8,2.5,6.9,2.5,9.8,0.1
							L93,25.1c3.1-2.6,7.7-2.3,10.4,0.7L143,69.3c1.1,1.2,1.8,2.7,1.9,4.4l1.5,17.2c0.4,4.1-2.7,7.8-6.8,8.1l0,0
							c-0.2,0-0.4,0-0.7,0L-2.2,99c-4.1,0-7.4-3.2-7.5-7.3l0,0C-9.7,89.9-9,88-7.8,86.6z"/>
					</g>
				</g>
			</g>
		</g>
		<circle id="Ellipse_856" class="st4" cx="25.7" cy="20.7" r="8.4"/>
	</g>
	
		<rect id="Rectangle_1798" x="805" y="337.5" transform="matrix(0.259 -0.9659 0.9659 0.259 262.0932 1043.3237)" class="st5" width="12" height="26.6"/>
	
		<linearGradient id="Path_2408_1_" gradientUnits="userSpaceOnUse" x1="210.3541" y1="1.2812" x2="210.3541" y2="2.2815" gradientTransform="matrix(146.1809 39.1934 -52.0849 194.2626 -29819.5449 -8158.8877)">
		<stop  offset="1.000000e-02" style="stop-color:#808080;stop-opacity:0.251"/>
		<stop  offset="0.54" style="stop-color:#808080;stop-opacity:0.122"/>
		<stop  offset="1" style="stop-color:#808080;stop-opacity:0.102"/>
	</linearGradient>
	<path id="Path_2408" class="st6" d="M892.6,518.1l-146.2-39.2L792,309.1l28.6-18.6l124.1,33.3L892.6,518.1z"/>
	<path id="Path_2409" class="st1" d="M891.8,512.3l-141.4-37.9l43.8-163.3l27.7-17.8l120,32.2L891.8,512.3z"/>
	
		<rect id="Rectangle_1802" x="835.8" y="290.8" transform="matrix(0.259 -0.9659 0.9659 0.259 308.4832 1055.0171)" class="st4" width="12" height="71.3"/>
	
		<rect id="Rectangle_1803" x="818.2" y="329.7" transform="matrix(0.259 -0.9659 0.9659 0.259 267.075 1059.7328)" class="st4" width="12" height="52.2"/>
	
		<rect id="Rectangle_1804" x="816.6" y="368.8" transform="matrix(0.259 -0.9659 0.9659 0.259 208.6183 1126.7974)" class="st4" width="44.1" height="117.2"/>
	
		<rect id="Rectangle_1805" x="901.9" y="331.1" transform="matrix(0.259 -0.9659 0.9659 0.259 340.1521 1132.0959)" class="st4" width="12" height="26.6"/>
	
		<rect id="Rectangle_1806" x="897" y="349.1" transform="matrix(0.259 -0.9659 0.9659 0.259 319.1298 1140.7096)" class="st4" width="12" height="26.6"/>
	
		<rect id="Rectangle_1807" x="892.2" y="367.2" transform="matrix(0.259 -0.9659 0.9659 0.259 298.0415 1149.4822)" class="st4" width="12" height="26.6"/>
	<path id="Path_2426" class="st7" d="M813.4,451.1h-5.9v-11.6c0.2-13.1-10.3-23.9-23.4-24.1c-13.1-0.2-23.9,10.3-24.1,23.4
		c0,0.1,0,0.2,0,0.2v12h-6c-5.5,0-9.9,4.5-9.9,9.9v47.5c0,5.5,4.4,9.9,9.9,9.9h59.4c5.5,0,9.9-4.4,9.9-9.9V461
		C823.3,455.6,818.9,451.2,813.4,451.1C813.5,451.1,813.4,451.1,813.4,451.1z M787.2,482v17c0,1.9-1.4,3.4-3.3,3.6
		c-1.9,0.1-3.5-1.4-3.6-3.3V482c-3.9-1.9-5.6-6.7-3.6-10.6c1.9-3.9,6.7-5.6,10.6-3.6s5.6,6.7,3.6,10.6
		C790.1,480,788.8,481.2,787.2,482L787.2,482z M800.6,451.1h-33.7v-11.9c0-9.3,7.5-16.8,16.8-16.8s16.8,7.5,16.8,16.8L800.6,451.1z"
		/>
</g>
</svg>
