<svg width="220" height="156" viewBox="0 0 220 156" fill="none" xmlns="http://www.w3.org/2000/svg">
    <path
        fill-rule="evenodd"
        clip-rule="evenodd"
        d="M165.333 75.4863C182.773 75.4863 197.53 84.8772 205.58 99.2988C211.281 109.361 203.567 121.436 192.164 121.436H138.502C127.099 121.436 119.385 109.025 125.087 99.2988C132.801 85.2128 147.893 75.4864 165.333 75.4863ZM164.999 29.2051C175.557 29.2052 184.116 37.7642 184.116 48.3223C184.116 58.8804 175.557 67.4394 164.999 67.4395C154.441 67.4395 145.882 58.8804 145.882 48.3223C145.882 37.7641 154.441 29.2051 164.999 29.2051Z"
        fill="url(#paint0_linear_7858_272681)"
    />
    <path
        fill-rule="evenodd"
        clip-rule="evenodd"
        d="M54.3318 75.4863C71.7719 75.4863 86.5295 84.8772 94.5789 99.2988C100.281 109.361 92.5661 121.436 81.1629 121.436H27.5008C16.0975 121.436 8.38411 109.025 14.0857 99.2988C21.7997 85.2128 36.8919 75.4864 54.3318 75.4863ZM53.9978 29.2051C64.5559 29.2052 73.115 37.7642 73.115 48.3223C73.115 58.8804 64.5559 67.4394 53.9978 67.4395C43.4397 67.4395 34.8806 58.8804 34.8806 48.3223C34.8807 37.7641 43.4397 29.2051 53.9978 29.2051Z"
        fill="url(#paint1_linear_7858_272681)"
    />
    <g filter="url(#filter0_d_7858_272681)">
        <path
            d="M110.129 67.772C122.397 67.772 132.342 57.7494 132.342 45.386C132.342 33.0225 122.397 23 110.129 23C97.861 23 87.9158 33.0225 87.9158 45.386C87.9158 57.7494 97.861 67.772 110.129 67.772Z"
            fill="url(#paint2_linear_7858_272681)"
        />
        <path
            d="M79.341 131C66.0909 131 57.1276 116.469 63.7526 105.079C72.7159 88.5844 90.2528 77.195 110.518 77.195C130.782 77.195 147.93 88.1917 157.283 105.079C163.908 116.861 154.944 131 141.694 131H79.341Z"
            fill="url(#paint3_linear_7858_272681)"
        />
    </g>
    <path
        d="M30 27L24 24.7841L21.2386 23.7614L20.2159 21L18 15L15.7841 21L14.7614 23.7614L12 24.7841L6 27L12 29.2159L14.7614 30.2386L15.7841 33L18 39L20.2159 33L21.2386 30.2386L24 29.2159L30 27Z"
        fill="url(#paint4_linear_7858_272681)"
        fill-opacity="0.5"
    />
    <path
        d="M206 65L203 63.892L201.619 63.3807L201.108 62L200 59L198.892 62L198.381 63.3807L197 63.892L194 65L197 66.108L198.381 66.6193L198.892 68L200 71L201.108 68L201.619 66.6193L203 66.108L206 65Z"
        fill="url(#paint5_linear_7858_272681)"
        fill-opacity="0.5"
    />
    <defs>
        <filter
            id="filter0_d_7858_272681"
            x="45.5176"
            y="11"
            width="130"
            height="140"
            filterUnits="userSpaceOnUse"
            color-interpolation-filters="sRGB"
        >
            <feFlood flood-opacity="0" result="BackgroundImageFix" />
            <feColorMatrix
                in="SourceAlpha"
                type="matrix"
                values="0 0 0 0 0 0 0 0 0 0 0 0 0 0 0 0 0 0 127 0"
                result="hardAlpha"
            />
            <feOffset dy="4" />
            <feGaussianBlur stdDeviation="8" />
            <feComposite in2="hardAlpha" operator="out" />
            <feColorMatrix type="matrix" values="0 0 0 0 0 0 0 0 0 0 0 0 0 0 0 0 0 0 0.16 0" />
            <feBlend mode="normal" in2="BackgroundImageFix" result="effect1_dropShadow_7858_272681" />
            <feBlend mode="normal" in="SourceGraphic" in2="effect1_dropShadow_7858_272681" result="shape" />
        </filter>
        <linearGradient
            id="paint0_linear_7858_272681"
            x1="165.571"
            y1="29.2051"
            x2="165.571"
            y2="121.177"
            gradientUnits="userSpaceOnUse"
        >
            <stop stop-color="#F0F0F0" />
            <stop offset="1" stop-color="#D9D9D9" />
        </linearGradient>
        <linearGradient
            id="paint1_linear_7858_272681"
            x1="54.5698"
            y1="29.2051"
            x2="54.5698"
            y2="121.177"
            gradientUnits="userSpaceOnUse"
        >
            <stop stop-color="#F0F0F0" />
            <stop offset="1" stop-color="#D9D9D9" />
        </linearGradient>
        <linearGradient
            id="paint2_linear_7858_272681"
            x1="110.794"
            y1="23"
            x2="110.794"
            y2="130.697"
            gradientUnits="userSpaceOnUse"
        >
            <stop stop-color="#D9D9D9" />
            <stop offset="1" stop-color="#BABABA" />
        </linearGradient>
        <linearGradient
            id="paint3_linear_7858_272681"
            x1="110.794"
            y1="23"
            x2="110.794"
            y2="130.697"
            gradientUnits="userSpaceOnUse"
        >
            <stop stop-color="#D9D9D9" />
            <stop offset="1" stop-color="#BABABA" />
        </linearGradient>
        <linearGradient
            id="paint4_linear_7858_272681"
            x1="18.0676"
            y1="15"
            x2="18.0676"
            y2="38.9327"
            gradientUnits="userSpaceOnUse"
        >
            <stop stop-color="#F9F9F9" />
            <stop offset="1" stop-color="#D9D9D9" />
        </linearGradient>
        <linearGradient
            id="paint5_linear_7858_272681"
            x1="200.034"
            y1="59"
            x2="200.034"
            y2="70.9663"
            gradientUnits="userSpaceOnUse"
        >
            <stop stop-color="#F9F9F9" />
            <stop offset="1" stop-color="#D9D9D9" />
        </linearGradient>
    </defs>
</svg>
