<svg id="ac7f0019-3d0b-4c40-adcc-bc0e79946693"
    xmlns="http://www.w3.org/2000/svg"
    xmlns:xlink="http://www.w3.org/1999/xlink" viewBox="0 0 738 722">
    <defs>
        <linearGradient id="af9f8e26-3022-4ad9-8997-deed0d0f30bf" x1="713.43" y1="-718.07" x2="377.71" y2="1324.28" gradientTransform="matrix(1, 0, 0, -1, 0, 1021.89)" gradientUnits="userSpaceOnUse">
            <stop offset="0.27" stop-color="#e2dbff"/>
            <stop offset="1" stop-color="#6d4aff"/>
        </linearGradient>
        <mask id="bb7226c5-8bce-403b-956d-73a03c7563fe" x="0" y="95" width="627" height="627" maskUnits="userSpaceOnUse">
            <g transform="translate(-198 -103)">
                <g id="f0ee2efa-fac2-4c55-a265-b888ebede4e6" data-name="mask0 410 62822">
                    <path d="M817.93,477A209.4,209.4,0,0,1,764,484c-115.43,0-209-93.57-209-209a209,209,0,0,1,8.67-59.76,87.54,87.54,0,0,0-114.06,8.39l-226,226a87.55,87.55,0,0,0,0,123.78l226,226a87.55,87.55,0,0,0,123.78,0l226-226A87.56,87.56,0,0,0,817.93,477Z" style="fill-rule:evenodd;fill:url(#af9f8e26-3022-4ad9-8997-deed0d0f30bf)"/>
                </g>
            </g>
        </mask>
        <linearGradient id="b6f618ac-3aba-4803-a1d6-4ec29d6d4142" x1="713.43" y1="-718.07" x2="377.71" y2="1324.28" xlink:href="#af9f8e26-3022-4ad9-8997-deed0d0f30bf"/>
        <radialGradient id="ab2f798e-5176-4d9e-8e7e-1662d81d26b2" cx="213.46" cy="932.08" r="1" gradientTransform="matrix(393, -11, -14.01, -500.66, -70670.73, 469527.76)" gradientUnits="userSpaceOnUse">
            <stop offset="0.11" stop-color="#ff8686"/>
            <stop offset="0.99" stop-color="#6d4aff"/>
        </radialGradient>
    </defs>
    <g style="mask:url(#bb7226c5-8bce-403b-956d-73a03c7563fe)">
        <path d="M449.61,223.63a87.55,87.55,0,0,1,123.78,0l226,226a87.55,87.55,0,0,1,0,123.78l-226,226a87.55,87.55,0,0,1-123.78,0l-226-226a87.55,87.55,0,0,1,0-123.78Z" transform="translate(-198 -103)" style="fill:url(#b6f618ac-3aba-4803-a1d6-4ec29d6d4142)"/>
        <path d="M403.11,270.62a58.35,58.35,0,0,1,82.51,0L683.25,468.25a58.35,58.35,0,0,1,0,82.51L483.4,750.61a58.35,58.35,0,0,1-82.51,0L223.52,573.24a87,87,0,0,1,0-123Z" transform="translate(-198 -103)" style="fill:url(#ab2f798e-5176-4d9e-8e7e-1662d81d26b2)"/>
    </g>
    <circle cx="566" cy="172" r="172" style="fill:#ca3434"/>
    <path d="M699,340,829,210" transform="translate(-198 -103)" style="fill:none;stroke:#fff;stroke-linecap:round;stroke-linejoin:round;stroke-width:38px"/>
    <path d="M829,340,699,210" transform="translate(-198 -103)" style="fill:none;stroke:#fff;stroke-linecap:round;stroke-linejoin:round;stroke-width:38px"/>
</svg>
