<svg xmlns="http://www.w3.org/2000/svg" width="16" height="16" fill="none" viewBox="0 0 16 16">
  <path fill="#fff" d="M0 3.5a1 1 0 011-1h14a1 1 0 011 1v9a1 1 0 01-1 1H1a1 1 0 01-1-1v-9z"/>
  <path fill="#EEEFF3" fill-rule="evenodd" d="M15 3H1a.5.5 0 00-.5.5v9a.5.5 0 00.5.5h14a.5.5 0 00.5-.5v-9A.5.5 0 0015 3zM1 2.5a1 1 0 00-1 1v9a1 1 0 001 1h14a1 1 0 001-1v-9a1 1 0 00-1-1H1z" clip-rule="evenodd"/>
  <path fill="#fff" d="M12 11.333a.667.667 0 01-.667.667H4V4h7.333c.368 0 .667.298.667.667v6.666z"/>
  <path fill="#0690FF" d="M12 12v-1.268h-.965l-.497-.55-.5.55H6.857v-2.56H5.83l1.274-2.883h1.229l.439.987V5.29h1.52l.264.744.266-.744H12V4H4v8h8zm-.803-1.588H12l-1.062-1.126L12 8.173h-.79l-.655.716-.65-.716h-.803l1.056 1.12-1.056 1.119h.78l.66-.723.655.723zm.188-1.125L12 9.94V8.638l-.615.649zm-3.578.607v-.349H9.07V9.04H7.807V8.69h1.295v-.518H7.196v2.239h1.906v-.518H7.807zm3.588-2.046H12V5.609h-.94l-.503 1.395-.498-1.395h-.957v2.239h.605V6.281l.575 1.567h.538l.575-1.57v1.57zm-2.98 0h.687l-.988-2.239h-.787L6.34 7.848h.672l.185-.448h1.03l.189.448zm-.4-.95h-.608l.304-.732.304.732z"/>
</svg>
