<svg xmlns="http://www.w3.org/2000/svg" width="16" height="16" fill="none" viewBox="0 0 16 16">
  <path fill="#fff" d="M0 3.5a1 1 0 011-1h14a1 1 0 011 1v9a1 1 0 01-1 1H1a1 1 0 01-1-1v-9z"/>
  <path fill="#EEEFF3" fill-rule="evenodd" d="M15 3H1a.5.5 0 00-.5.5v9a.5.5 0 00.5.5h14a.5.5 0 00.5-.5v-9A.5.5 0 0015 3zM1 2.5a1 1 0 00-1 1v9a1 1 0 001 1h14a1 1 0 001-1v-9a1 1 0 00-1-1H1z" clip-rule="evenodd"/>
  <path fill="#fff" d="M15 3H1a.5.5 0 00-.5.5v9a.5.5 0 00.5.5h14a.5.5 0 00.5-.5v-9A.5.5 0 0015 3z"/>
  <path fill="url(#paint0_radial)" d="M8.577 8.84c.637 0 1.153-.51 1.153-1.138 0-.628-.516-1.137-1.153-1.137-.636 0-1.153.51-1.153 1.137 0 .629.517 1.138 1.153 1.138z"/>
  <path fill="#E7792B" fill-rule="evenodd" d="M4.125 13H15a.5.5 0 00.5-.5V9s-4.017 2.763-11.375 4z" clip-rule="evenodd"/>
  <path fill="#1A1918" fill-rule="evenodd" d="M2.14 6.612h-.61v2.103h.607c.323 0 .556-.075.76-.243a1.05 1.05 0 00.388-.807c0-.62-.47-1.053-1.144-1.053zm.486 1.58c-.13.116-.3.167-.569.167h-.111v-1.39h.111c.269 0 .432.047.57.17a.717.717 0 010 1.053zM3.476 6.612h.416v2.103h-.416V6.612zM4.909 7.419c-.25-.091-.323-.151-.323-.265 0-.132.13-.233.31-.233.124 0 .227.05.335.17l.217-.28a.94.94 0 00-.626-.234c-.377 0-.665.258-.665.603 0 .29.134.438.525.576.162.057.245.095.287.12.083.054.125.13.125.218 0 .17-.138.296-.323.296a.492.492 0 01-.454-.28l-.269.255c.192.278.422.4.739.4.432 0 .735-.283.735-.69 0-.334-.14-.485-.613-.656zM5.653 7.665c0 .618.492 1.097 1.125 1.097.179 0 .332-.034.521-.122v-.483c-.166.164-.313.23-.502.23-.418 0-.716-.3-.716-.725 0-.404.307-.722.697-.722.198 0 .348.07.521.236v-.482a1.073 1.073 0 00-.511-.13c-.63 0-1.135.49-1.135 1.1zM10.596 8.024l-.568-1.412h-.455l.905 2.157h.224l.92-2.157h-.45l-.576 1.412zM11.81 8.715h1.18v-.356h-.764V7.79h.736v-.356h-.736v-.467h.764v-.356h-1.18v2.103zM14.636 7.233c0-.394-.275-.621-.754-.621h-.617v2.103h.415V7.87h.055l.575.845h.511l-.67-.886c.313-.063.485-.274.485-.596zm-.834.347h-.122v-.637h.128c.26 0 .4.107.4.312 0 .211-.14.325-.406.325zM14.901 6.69c0-.036-.025-.056-.07-.056h-.06v.185h.044v-.072l.052.072h.055l-.062-.076c.027-.007.041-.026.041-.052zm-.079.026h-.007v-.048h.008c.022 0 .034.008.034.024s-.012.024-.034.024z" clip-rule="evenodd"/>
  <path fill="#1A1918" fill-rule="evenodd" d="M14.84 6.565a.161.161 0 100 .322.162.162 0 00.16-.161.162.162 0 00-.16-.161zm-.001.293a.131.131 0 01-.13-.132.13.13 0 01.13-.132c.071 0 .13.06.13.132a.131.131 0 01-.13.132z" clip-rule="evenodd"/>
  <defs>
    <radialGradient id="paint0_radial" cx="0" cy="0" r="1" gradientTransform="matrix(2.61965 0 0 2.58456 9.73 8.84)" gradientUnits="userSpaceOnUse">
      <stop stop-color="#F59900"/>
      <stop offset=".21" stop-color="#F39501"/>
      <stop offset=".908" stop-color="#CE3C0B"/>
      <stop offset="1" stop-color="#A4420A"/>
    </radialGradient>
  </defs>
</svg>
