<svg xmlns="http://www.w3.org/2000/svg" width="16" height="16" fill="none" viewBox="0 0 16 16">
  <path fill="#fff" d="M0 3.5a1 1 0 011-1h14a1 1 0 011 1v9a1 1 0 01-1 1H1a1 1 0 01-1-1v-9z"/>
  <path fill="#EEEFF3" fill-rule="evenodd" d="M15 3H1a.5.5 0 00-.5.5v9a.5.5 0 00.5.5h14a.5.5 0 00.5-.5v-9A.5.5 0 0015 3zM1 2.5a1 1 0 00-1 1v9a1 1 0 001 1h14a1 1 0 001-1v-9a1 1 0 00-1-1H1z" clip-rule="evenodd"/>
  <path fill="#E21F28" d="M11.578 7.74l1.926 2.233a3.421 3.421 0 00-.068-4.05L11.578 7.74zM6.133 5.766c1.433 0 2.518.32 2.631 1.49l1.517-1.55h3.033a3.544 3.544 0 00-1.236-.902A3.605 3.605 0 0010.57 4.5H4.791c-.52.005-1.031.12-1.5.34a3.564 3.564 0 00-1.215.926h4.057zm-2.366 1.49L3.259 8.61h2.063c.614 0 .758-.246.932-.745.175-.499-.204-.61-.622-.61H3.767zm6.514 2.918l-1.593-1.98c-.295 1.348-1.266 1.98-3.078 1.98H2c.333.414.758.747 1.24.977.484.23 1.014.349 1.55.349h5.78a3.62 3.62 0 001.557-.346c.486-.23.913-.565 1.248-.98h-3.094z"/>
</svg>
