<svg xmlns="http://www.w3.org/2000/svg" width="16" height="16" fill="none" viewBox="0 0 16 16">
  <path fill="#fff" d="M0 3.5a1 1 0 011-1h14a1 1 0 011 1v9a1 1 0 01-1 1H1a1 1 0 01-1-1v-9z"/>
  <path fill="#EEEFF3" fill-rule="evenodd" d="M15 3H1a.5.5 0 00-.5.5v9a.5.5 0 00.5.5h14a.5.5 0 00.5-.5v-9A.5.5 0 0015 3zM1 2.5a1 1 0 00-1 1v9a1 1 0 001 1h14a1 1 0 001-1v-9a1 1 0 00-1-1H1z" clip-rule="evenodd"/>
  <path fill="#FFFFFE" fill-rule="evenodd" d="M3.667 8.07a3.86 3.86 0 013.86-3.863 3.86 3.86 0 013.858 3.862 3.86 3.86 0 01-3.859 3.862A3.86 3.86 0 013.667 8.07z" clip-rule="evenodd"/>
  <path fill="#0167AA" fill-rule="evenodd" d="M9.86 7.993a2.323 2.323 0 00-1.49-2.166v4.332a2.323 2.323 0 001.49-2.166zm-3.15 2.165V5.827A2.325 2.325 0 005.22 7.993c.002.989.62 1.83 1.489 2.165zm.83-5.827a3.66 3.66 0 00-3.658 3.662 3.66 3.66 0 003.658 3.661 3.661 3.661 0 000-7.323zM7.531 12c-2.21.01-4.031-1.783-4.031-3.965C3.5 5.649 5.32 4 7.531 4h1.037c2.185 0 4.18 1.649 4.18 4.035 0 2.182-1.995 3.965-4.18 3.965H7.53z" clip-rule="evenodd"/>
</svg>
