<svg xmlns="http://www.w3.org/2000/svg" width="16" height="16" fill="none" viewBox="0 0 16 16">
  <path fill="#fff" d="M0 3.5a1 1 0 011-1h14a1 1 0 011 1v9a1 1 0 01-1 1H1a1 1 0 01-1-1v-9z"/>
  <path fill="#EEEFF3" fill-rule="evenodd" d="M15 3H1a.5.5 0 00-.5.5v9a.5.5 0 00.5.5h14a.5.5 0 00.5-.5v-9A.5.5 0 0015 3zM1 2.5a1 1 0 00-1 1v9a1 1 0 001 1h14a1 1 0 001-1v-9a1 1 0 00-1-1H1z" clip-rule="evenodd"/>
  <path fill="#6193C8" d="M5.577 10.564a.957.957 0 00.767-.368 1.07 1.07 0 00.262-.674V8.475H3.75c0 .153 0 .337.037.545.127 1.746.609 2.696 1.754 3.15l.036-1.606zm-1.742-3.59h2.753s.049-1.875.493-2.42a2.55 2.55 0 012.004-.999h.067c-.298 0-.609-.049-.974-.055h-.33C5.066 3.53 4 4.333 3.794 6.974h.042zm8.399.024c-.146-1.96-.762-2.91-2.18-3.277v1.972c-.171 0-1.06 0-1.37.46a1.395 1.395 0 00-.202.472v.049a.105.105 0 000 .042.08.08 0 010 .037v.153h1.608v1.569H8.446v1.513c-.028.37-.105.736-.232 1.085a2.094 2.094 0 01-1.626 1.329h-.037c.43.064.864.097 1.298.098h.329c2.789-.037 3.855-.84 4.056-3.504.042-.582.042-.987.042-.987s0-.404-.042-1.01z"/>
</svg>
