<svg xmlns="http://www.w3.org/2000/svg" width="16" height="16" fill="none" viewBox="0 0 16 16">
  <path fill="#fff" d="M0 3.5a1 1 0 011-1h14a1 1 0 011 1v9a1 1 0 01-1 1H1a1 1 0 01-1-1v-9z"/>
  <path fill="#EEEFF3" fill-rule="evenodd" d="M15 3H1a.5.5 0 00-.5.5v9a.5.5 0 00.5.5h14a.5.5 0 00.5-.5v-9A.5.5 0 0015 3zM1 2.5a1 1 0 00-1 1v9a1 1 0 001 1h14a1 1 0 001-1v-9a1 1 0 00-1-1H1z" clip-rule="evenodd"/>
  <path fill="#6C6BBD" fill-rule="evenodd" d="M6.648 10.43h2.704V5.57H6.648v4.86z" clip-rule="evenodd"/>
  <path fill="#EB001B" fill-rule="evenodd" d="M6.82 8c0-.985.461-1.863 1.18-2.43a3.09 3.09 0 100 4.86A3.085 3.085 0 016.82 8z" clip-rule="evenodd"/>
  <path fill="#0099DF" fill-rule="evenodd" d="M12.903 9.915v-.12h-.03l-.037.083-.036-.083h-.031v.12h.022v-.09l.034.078h.023l.033-.078v.09h.022zm-.198 0v-.1h.04v-.02h-.102v.02h.04v.1h.022zM13 8a3.09 3.09 0 01-5 2.43A3.085 3.085 0 009.18 8c0-.985-.461-1.863-1.18-2.43A3.09 3.09 0 0113 8z" clip-rule="evenodd"/>
</svg>
