<svg xmlns="http://www.w3.org/2000/svg" width="16" height="16" fill="none" viewBox="0 0 16 16">
  <path fill="#fff" d="M0 3.5a1 1 0 011-1h14a1 1 0 011 1v9a1 1 0 01-1 1H1a1 1 0 01-1-1v-9z"/>
  <path fill="#EEEFF3" fill-rule="evenodd" d="M15 3H1a.5.5 0 00-.5.5v9a.5.5 0 00.5.5h14a.5.5 0 00.5-.5v-9A.5.5 0 0015 3zM1 2.5a1 1 0 00-1 1v9a1 1 0 001 1h14a1 1 0 001-1v-9a1 1 0 00-1-1H1z" clip-rule="evenodd"/>
  <path fill="#253B80" d="M6.705 11.34l.122-.78-.273-.006H5.249l.907-5.75a.074.074 0 01.074-.063h2.2c.73 0 1.235.151 1.498.451.123.141.202.288.24.45.04.17.04.373.002.62l-.003.018v.159l.123.07a.866.866 0 01.25.19c.105.12.174.274.203.455.03.186.02.408-.03.66-.056.289-.147.54-.27.746-.113.19-.257.347-.428.47a1.736 1.736 0 01-.576.26 2.875 2.875 0 01-.721.083h-.171a.52.52 0 00-.51.435l-.012.07-.217 1.373-.01.05c-.003.017-.007.025-.014.03a.036.036 0 01-.022.008H6.705z"/>
  <path fill="#179BD7" d="M10.407 6.299a3.793 3.793 0 01-.023.129c-.29 1.49-1.283 2.004-2.55 2.004h-.646a.314.314 0 00-.31.266l-.33 2.096-.094.594c-.016.1.061.191.163.191h1.145c.135 0 .25-.098.272-.232l.011-.058.216-1.368.014-.075a.275.275 0 01.272-.233h.171c1.11 0 1.978-.45 2.232-1.754.106-.544.05-.999-.23-1.319a1.097 1.097 0 00-.313-.241z"/>
  <path fill="#222D65" d="M10.103 6.178a2.294 2.294 0 00-.282-.063 3.586 3.586 0 00-.569-.042H7.527a.274.274 0 00-.272.233L6.888 8.63l-.01.068a.314.314 0 01.31-.266h.645c1.268 0 2.261-.515 2.551-2.004.009-.044.016-.087.023-.13a1.547 1.547 0 00-.304-.12z"/>
  <path fill="#253B80" d="M7.255 6.306a.274.274 0 01.272-.232h1.725a3.585 3.585 0 01.714.069 2.29 2.29 0 01.203.055c.085.028.165.062.238.1.086-.55 0-.925-.298-1.264C9.78 4.66 9.189 4.5 8.43 4.5h-2.2a.314.314 0 00-.311.266l-.917 5.81a.19.19 0 00.187.218h1.358l.341-2.164.367-2.324z"/>
</svg>
