<svg xmlns="http://www.w3.org/2000/svg" width="16" height="16" fill="none" viewBox="0 0 16 16">
  <path fill="#fff" d="M0 3.5a1 1 0 011-1h14a1 1 0 011 1v9a1 1 0 01-1 1H1a1 1 0 01-1-1v-9z"/>
  <path fill="#EEEFF3" fill-rule="evenodd" d="M15 3H1a.5.5 0 00-.5.5v9a.5.5 0 00.5.5h14a.5.5 0 00.5-.5v-9A.5.5 0 0015 3zM1 2.5a1 1 0 00-1 1v9a1 1 0 001 1h14a1 1 0 001-1v-9a1 1 0 00-1-1H1z" clip-rule="evenodd"/>
  <path fill="#01798A" fill-rule="evenodd" d="M10.217 4.501c-.377.012-.839.31-.923.676l-1.276 5.646c-.084.37.145.671.513.677h2.834a.902.902 0 00.797-.674l1.276-5.647c.086-.373-.149-.677-.523-.677h-2.697z" clip-rule="evenodd"/>
  <path fill="#024381" fill-rule="evenodd" d="M8.018 10.823l1.276-5.646c.084-.367.546-.664.917-.675L9.138 4.5H7.205c-.372.007-.84.307-.923.676l-1.276 5.646c-.085.37.144.671.512.677H8.53c-.368-.005-.597-.307-.513-.677" clip-rule="evenodd"/>
  <path fill="#DD0228" fill-rule="evenodd" d="M5.006 10.823l1.276-5.646c.084-.37.552-.669.923-.676L4.73 4.5c-.373 0-.853.303-.938.677l-1.276 5.646a.709.709 0 00-.015.102v.104c.025.27.231.466.527.471h2.491c-.368-.005-.597-.307-.512-.677" clip-rule="evenodd"/>
  <path fill="#fff" fill-rule="evenodd" d="M7.257 8.615h.047c.043 0 .072-.015.086-.043l.122-.182h.326l-.068.12h.39l-.049.183h-.465c-.054.08-.12.119-.199.114h-.242l.052-.192zm-.053.263h.856l-.054.2H7.66l-.052.192h.335l-.055.2h-.335l-.078.284c-.019.048.006.07.076.064h.273l-.05.186H7.25c-.1 0-.134-.057-.102-.171l.1-.363h-.215l.054-.2h.215l.052-.192H7.15l.055-.2zm1.367-.49l-.014.117s.162-.121.309-.121h.542l-.207.75c-.018.086-.091.129-.222.129h-.614l-.144.527c-.008.028.003.043.034.043h.121l-.044.163h-.308c-.118 0-.167-.035-.147-.106l.407-1.502h.287zm.46.212h-.485l-.058.203s.08-.058.216-.06c.134-.002.287 0 .287 0l.04-.143zm-.176.47c.036.005.056-.009.058-.042l.03-.107h-.485l-.04.15h.437zm-.327.243h.28l-.006.12h.074c.038 0 .057-.011.057-.035l.022-.078h.232l-.031.114c-.026.095-.096.145-.209.15h-.149v.206c-.003.033.027.05.088.05h.14l-.045.164h-.335c-.094.004-.14-.04-.14-.136l.022-.555zM5.142 7.388a.683.683 0 01-.262.43c-.135.1-.309.15-.522.15-.2 0-.348-.052-.442-.154a.4.4 0 01-.097-.277.74.74 0 01.016-.149l.228-1.095h.343l-.224 1.083a.35.35 0 00-.01.083c0 .055.014.1.042.136.04.053.106.079.198.079a.414.414 0 00.26-.078.358.358 0 00.132-.22l.224-1.083h.342l-.228 1.095zM6.583 6.957h.269l-.21.978h-.269l.21-.978zm.085-.356h.27l-.05.237h-.27l.05-.237zM7.09 7.86a.36.36 0 01-.106-.272.636.636 0 01.014-.138.663.663 0 01.204-.378.547.547 0 01.378-.14c.12 0 .216.033.287.1.07.069.105.16.105.277a.668.668 0 01-.016.14.645.645 0 01-.203.373.55.55 0 01-.376.138.4.4 0 01-.287-.1zm.512-.193a.477.477 0 00.102-.233.577.577 0 00.01-.096.198.198 0 00-.046-.14c-.031-.034-.075-.05-.13-.05a.235.235 0 00-.183.078.492.492 0 00-.104.237.349.349 0 00-.01.093c0 .06.016.107.047.14.03.032.074.048.131.048a.236.236 0 00.183-.077M9.715 8.623l.065-.228h.328l-.014.084s.167-.084.288-.084h.405l-.065.228h-.063L10.353 9.7h.064l-.061.213h-.064l-.026.093h-.317l.026-.093h-.626L9.41 9.7h.063l.306-1.076h-.064zm.354 0l-.084.291s.143-.054.266-.07c.027-.102.063-.22.063-.22h-.245zm-.122.428l-.084.305s.158-.078.267-.085c.031-.118.062-.22.062-.22h-.245zm.061.648l.063-.221h-.245l-.063.22h.245zM10.8 8.38h.308l.013.114c-.002.029.016.042.052.042h.054l-.055.193h-.226c-.086.004-.13-.029-.135-.1l-.01-.249zm.908.413l-.059.207h-.317l-.055.192h.317l-.058.206h-.354l-.08.121h.173l.04.243c.005.024.026.035.063.035h.053l-.056.2h-.19c-.099.005-.15-.028-.154-.1l-.046-.22-.157.234a.17.17 0 01-.172.093h-.29l.056-.2h.091c.037 0 .068-.016.096-.05l.247-.356h-.318l.059-.206h.344l.055-.192h-.345l.06-.207h.997zM5.458 6.957h.243l-.028.141.035-.04a.377.377 0 01.286-.126c.102 0 .176.03.222.09.046.059.058.141.036.247l-.133.666h-.25l.121-.604c.013-.062.01-.109-.01-.139-.019-.03-.055-.044-.107-.044a.233.233 0 00-.162.06.296.296 0 00-.087.165l-.111.562h-.25l.195-.978zM8.237 6.957h.243l-.028.141.035-.04a.378.378 0 01.287-.126c.101 0 .175.03.221.09.045.059.058.141.036.247l-.133.666h-.25l.121-.604c.013-.062.01-.109-.01-.139-.02-.03-.055-.044-.107-.044a.235.235 0 00-.162.06.292.292 0 00-.087.165l-.112.562h-.249l.195-.978M9.436 6.35h.704c.136 0 .24.031.313.091.071.061.107.149.107.263v.003a.944.944 0 01-.004.073 1.037 1.037 0 01-.013.08.606.606 0 01-.61.502h-.378l-.117.573h-.327l.325-1.585zm.176.737h.313a.304.304 0 00.194-.057.296.296 0 00.095-.174l.007-.04.002-.034c0-.056-.02-.096-.06-.122a.357.357 0 00-.19-.038h-.265l-.096.465M12.023 8.124c-.103.22-.202.348-.26.408-.057.059-.172.196-.448.186l.024-.168c.232-.072.358-.395.43-.538l-.086-1.052.18-.003h.15l.017.66.283-.66h.286l-.576 1.167M11.223 7.037l-.114.078c-.119-.093-.227-.15-.437-.053-.285.132-.523 1.146.262.812l.045.053.309.008.203-.922-.268.024zm-.176.504c-.05.146-.16.243-.247.215-.087-.026-.118-.168-.068-.314.05-.147.161-.244.248-.216.086.027.118.168.067.315z" clip-rule="evenodd"/>
</svg>
