<svg xmlns="http://www.w3.org/2000/svg" width="16" height="16" fill="none" viewBox="0 0 16 16">
  <path fill="#fff" d="M0 3.5a1 1 0 011-1h14a1 1 0 011 1v9a1 1 0 01-1 1H1a1 1 0 01-1-1v-9z"/>
  <path fill="#EEEFF3" fill-rule="evenodd" d="M15 3H1a.5.5 0 00-.5.5v9a.5.5 0 00.5.5h14a.5.5 0 00.5-.5v-9A.5.5 0 0015 3zM1 2.5a1 1 0 00-1 1v9a1 1 0 001 1h14a1 1 0 001-1v-9a1 1 0 00-1-1H1z" clip-rule="evenodd"/>
  <g clip-path="url(#clip0)">
    <path fill="#1A1F71" d="M6.556 5.568l-1.57 3.748H3.96l-.773-2.99c-.047-.185-.088-.252-.23-.33-.234-.127-.619-.245-.957-.319l.023-.109h1.65c.21 0 .4.14.447.382l.409 2.17 1.008-2.552h1.02zm1.386 0L7.14 9.316h-.97l.802-3.748h.97zm2.63 2.525c.004-.99-1.367-1.044-1.358-1.486.003-.134.13-.277.411-.314.139-.018.522-.032.956.168l.17-.795a2.614 2.614 0 00-.907-.166c-.958 0-1.633.51-1.638 1.239-.006.54.482.84.848 1.02.378.184.505.302.503.466-.002.251-.301.363-.58.367-.487.007-.77-.132-.995-.237l-.176.821c.226.104.645.195 1.078.2 1.019 0 1.685-.504 1.688-1.283zm2.532 1.223H14l-.783-3.748h-.828a.441.441 0 00-.412.275l-1.455 3.473h1.018l.202-.56h1.244l.117.56zM12.02 7.99l.51-1.408.294 1.408h-.804zm-2.838 2.36h-.394v.366h.44v.11h-.573V9.808h.55v.11H8.79v.321h.394v.11zm.25-.596h.133v1.072h-.133V9.753zm.468.73c.003.18.116.255.25.255a.477.477 0 00.203-.038l.024.095a.596.596 0 01-.245.047c-.225 0-.359-.15-.359-.37s.13-.393.343-.393c.24 0 .301.209.301.343a.316.316 0 01-.004.062H9.9zm.39-.094c0-.083-.036-.214-.185-.214-.136 0-.193.122-.204.214h.388zm.85.41a.514.514 0 01-.21.043c-.22 0-.363-.15-.363-.373 0-.225.154-.39.392-.39.079 0 .148.02.184.04l-.03.1a.325.325 0 00-.154-.034c-.168 0-.258.125-.258.276 0 .17.109.274.254.274a.38.38 0 00.162-.035l.023.1zm.373-.88v.176h.19v.1h-.19v.395c0 .09.025.142.1.142a.246.246 0 00.076-.01l.006.102a.364.364 0 01-.117.018.19.19 0 01-.144-.056c-.036-.04-.051-.106-.051-.192v-.398h-.113v-.101h.113v-.136l.13-.04zm.375.403c0-.086-.001-.16-.006-.227H12l.006.144h.004c.033-.098.115-.16.204-.16.013 0 .024.002.036.003v.126c-.014-.003-.027-.003-.045-.003-.094 0-.16.07-.178.169a.412.412 0 00-.005.062v.39h-.133v-.504zm1.177.132c0 .27-.188.388-.363.388-.197 0-.35-.145-.35-.376 0-.243.161-.386.362-.386.21 0 .351.152.351.374zm-.578.007c0 .16.09.281.22.281.127 0 .223-.12.223-.284 0-.123-.062-.279-.22-.279-.155 0-.223.145-.223.282zm.782-.169a2.65 2.65 0 00-.006-.197h.118l.007.12h.003a.27.27 0 01.242-.136c.1 0 .258.06.258.311v.435h-.133v-.421c0-.118-.044-.216-.17-.216a.192.192 0 00-.177.136.19.19 0 00-.01.062v.44h-.132v-.534z"/>
  </g>
  <defs>
    <clipPath id="clip0">
      <path fill="#fff" d="M0 0h12v5.344H0z" transform="translate(2 5.5)"/>
    </clipPath>
  </defs>
</svg>
