<svg xmlns="http://www.w3.org/2000/svg" width="16" height="16" fill="none" viewBox="0 0 16 16">
  <path fill="#C4C4C4" d="M0 3a2 2 0 012-2h2.035c.392 0 .777.102 1.117.296l.943.54c.188.107.402.164.62.164H14a2 2 0 012 2v8a2 2 0 01-2 2H2a2 2 0 01-2-2V3z"/>
  <path fill="url(#paint0_linear_6351_19678)" d="M0 3a2 2 0 012-2h2.035c.392 0 .777.102 1.117.296l.943.54c.188.107.402.164.62.164H14a2 2 0 012 2v8a2 2 0 01-2 2H2a2 2 0 01-2-2V3z"/>
  <path fill="url(#paint1_radial_6351_19678)" d="M0 3a2 2 0 012-2h2.035c.392 0 .777.102 1.117.296l.943.54c.188.107.402.164.62.164H14a2 2 0 012 2v8a2 2 0 01-2 2H2a2 2 0 01-2-2V3z"/>
  <path fill="url(#paint2_linear_6351_19678)" fill-rule="evenodd" d="M2 1a2 2 0 00-2 2h2.894a2.5 2.5 0 011.387.42l.493.328A1.5 1.5 0 005.606 4H11a2 2 0 012 2v8h1a2 2 0 002-2V4a2 2 0 00-2-2H6.715a1.25 1.25 0 01-.62-.165l-.943-.539A2.25 2.25 0 004.035 1H2z" clip-rule="evenodd"/>
  <defs>
    <linearGradient id="paint0_linear_6351_19678" x1="8.011" x2="9.207" y1="-5.58" y2="11.556" gradientUnits="userSpaceOnUse">
      <stop offset=".989" stop-color="#6D4AFF"/>
    </linearGradient>
    <linearGradient id="paint2_linear_6351_19678" x1="-5.379" x2="14.219" y1="-1.167" y2="20.769" gradientUnits="userSpaceOnUse">
      <stop stop-color="#6D4AFF"/>
      <stop offset=".359" stop-color="#AE8CFF"/>
      <stop offset="1" stop-color="#F8CCFF"/>
    </linearGradient>
    <radialGradient id="paint1_radial_6351_19678" cx="0" cy="0" r="1" gradientTransform="matrix(-10.14204 20.34623 -32.01015 -15.95619 13.13 -4.699)" gradientUnits="userSpaceOnUse">
      <stop offset=".556" stop-color="#FF62C0" stop-opacity="0"/>
      <stop offset=".994" stop-color="#FF62C0"/>
    </radialGradient>
  </defs>
</svg>
