<svg width="199" height="120" viewBox="0 0 199 120" fill="none" xmlns="http://www.w3.org/2000/svg">
    <path
        fill-rule="evenodd"
        clip-rule="evenodd"
        d="M83 14C78.5817 14 75 17.5817 75 22V98C75 102.418 78.5817 106 83 106H115C119.418 106 123 102.418 123 98V22C123 17.5817 119.418 14 115 14H83ZM77 22C77 18.6863 79.6863 16 83 16H91C91 18.2091 92.7909 20 95 20H103C105.209 20 107 18.2091 107 16H115C118.314 16 121 18.6863 121 22V98C121 101.314 118.314 104 115 104H83C79.6863 104 77 101.314 77 98V22Z"
        fill="#738099"
        fill-opacity="0.775"
    />
    <rect x="83" y="34" width="14" height="17" rx="4" fill="#8695B2" fill-opacity="0.28" />
    <path
        fill-rule="evenodd"
        clip-rule="evenodd"
        d="M90.25 47.5C92.5972 47.5 94.5 45.5972 94.5 43.25C94.5 40.9028 92.5972 39 90.25 39C87.9028 39 86 40.9028 86 43.25C86 45.5972 87.9028 47.5 90.25 47.5ZM93.4659 43.25C93.4659 45.0261 92.0261 46.4659 90.25 46.4659C89.6363 46.4659 89.0627 46.2939 88.5748 45.9956L92.9956 41.5748C93.2939 42.0627 93.4659 42.6363 93.4659 43.25ZM92.3195 40.7884C91.7602 40.3177 91.0382 40.0341 90.25 40.0341C88.4739 40.0341 87.0341 41.4739 87.0341 43.25C87.0341 44.0382 87.3177 44.7602 87.7884 45.3195L92.3195 40.7884Z"
        fill="#737F99"
        fill-opacity="0.55"
    />
    <rect x="83" y="71" width="32" height="19" rx="4" fill="#8695B3" fill-opacity="0.08" />
    <path
        fill-rule="evenodd"
        clip-rule="evenodd"
        d="M99.25 84.5C101.597 84.5 103.5 82.5972 103.5 80.25C103.5 77.9028 101.597 76 99.25 76C96.9028 76 95 77.9028 95 80.25C95 82.5972 96.9028 84.5 99.25 84.5ZM102.466 80.25C102.466 82.0261 101.026 83.4659 99.25 83.4659C98.6363 83.4659 98.0627 83.2939 97.5748 82.9956L101.996 78.5748C102.294 79.0627 102.466 79.6363 102.466 80.25ZM101.319 77.7884C100.76 77.3177 100.038 77.0341 99.25 77.0341C97.4739 77.0341 96.0341 78.4739 96.0341 80.25C96.0341 81.0382 96.3177 81.7602 96.7884 82.3195L101.319 77.7884Z"
        fill="#737F99"
        fill-opacity="0.55"
    />
    <rect x="83" y="66" width="17" height="2" rx="1" fill="#737F99" fill-opacity="0.55" />
    <rect x="98" y="49" width="17" height="2" rx="1" fill="#737F99" fill-opacity="0.55" />
    <rect x="98" y="44" width="17" height="2" rx="1" fill="#737F99" fill-opacity="0.55" />
    <rect x="98" y="39" width="17" height="2" rx="1" fill="#737F99" fill-opacity="0.55" />
    <rect x="98" y="34" width="17" height="2" rx="1" fill="#737F99" fill-opacity="0.55" />
    <rect x="83" y="60" width="32" height="2" rx="1" fill="#737F99" fill-opacity="0.55" />
    <rect x="83" y="54" width="32" height="2" rx="1" fill="#737F99" fill-opacity="0.55" />
    <path
        fill-rule="evenodd"
        clip-rule="evenodd"
        d="M58 60C50.268 60 44 66.268 44 74C44 81.732 50.268 88 58 88H72V74C72 66.268 65.732 60 58 60ZM66.3951 68.1897C66.546 68.0202 66.5325 67.7589 66.365 67.6062C66.1975 67.4535 65.9393 67.4671 65.7884 67.6366L52.7259 82.3103C52.575 82.4798 52.5885 82.7411 52.756 82.8938C52.9235 83.0465 53.1817 83.0329 53.3326 82.8634L56.3949 79.4234C56.652 79.5298 56.9312 79.5873 57.219 79.5873H59.1178C59.9511 79.5873 60.7113 79.1059 61.0758 78.3477H62.4947L63.8539 79.8648C64.0054 80.0339 64.2636 80.0466 64.4306 79.8934C64.5977 79.7401 64.6103 79.4788 64.4588 79.3097L62.9781 77.657C62.9007 77.5707 62.7909 77.5214 62.6756 77.5214H61.4717L61.5079 77.4458C61.9121 76.6021 62.0916 75.6801 62.0465 74.7669H62.4947L63.8539 76.2839C64.0054 76.453 64.2636 76.4658 64.4306 76.3125C64.5977 76.1592 64.6103 75.8979 64.4588 75.7289L62.9781 74.0761C62.9007 73.9898 62.7909 73.9405 62.6756 73.9405H61.9434C61.9039 73.7448 61.8538 73.5508 61.7931 73.3593L66.3951 68.1897ZM60.8177 71.3237L61.0758 71.6533L55.2203 78.3477H53.5699L52.2107 79.8648C52.0593 80.0339 51.8011 80.0466 51.634 79.8934C51.467 79.7401 51.4544 79.4788 51.6058 79.3097L53.0866 77.657C53.164 77.5707 53.2738 77.5214 53.389 77.5214H54.8651L54.8289 77.4458C54.4247 76.6021 54.2452 75.6801 54.2903 74.7669H53.5699L52.2107 76.2839C52.0593 76.453 51.8011 76.4658 51.634 76.3125C51.467 76.1592 51.4544 75.8979 51.6058 75.7289L53.0866 74.0761C53.164 73.9898 53.2738 73.9405 53.389 73.9405H54.3935C54.4834 73.4945 54.6286 73.057 54.8289 72.6389L55.0631 72.1501H53.389C53.2738 72.1501 53.164 72.1008 53.0866 72.0144L51.6058 70.3617C51.4544 70.1927 51.467 69.9314 51.634 69.7781C51.8011 69.6248 52.0593 69.6376 52.2107 69.8066L53.5699 71.3237H55.5192C55.927 70.8082 56.5494 70.4974 57.219 70.4974H59.1178C59.7875 70.4974 60.4099 70.8082 60.8177 71.3237ZM57.5159 67.893C56.9204 68.1557 56.5353 68.7506 56.5353 69.408V69.671C56.5353 69.8231 56.6572 69.9465 56.8075 69.9465H59.5293C59.6796 69.9465 59.8015 69.8231 59.8015 69.671V69.408C59.8015 68.7506 59.4165 68.1557 58.821 67.893C58.4048 67.7094 57.932 67.7094 57.5159 67.893Z"
        fill="#738099"
        fill-opacity="0.775"
    />
    <path
        d="M149.994 52.2902C150.314 52.8442 150.314 53.5266 149.994 54.0806L139.838 71.6716C139.518 72.2256 138.927 72.5668 138.287 72.5668L117.975 72.5668C117.335 72.5668 116.744 72.2256 116.424 71.6716L106.268 54.0806C105.948 53.5266 105.948 52.8442 106.268 52.2902L116.424 34.6992C116.744 34.1452 117.335 33.804 117.975 33.804L138.287 33.804C138.927 33.804 139.518 34.1452 139.838 34.6992L149.994 52.2902Z"
        fill="url(#paint0_linear_10021_4952)"
    />
    <path
        d="M129.221 41.0996C128.429 41.0996 127.787 41.7489 127.787 42.5498V51.3961C127.787 51.6097 127.616 51.7828 127.405 51.7828C127.194 51.7828 127.022 51.6097 127.022 51.3961V43.5166C127.022 42.7157 126.38 42.0664 125.588 42.0664C124.796 42.0664 124.154 42.7157 124.154 43.5166V52.4112C124.154 52.6248 123.983 52.7979 123.772 52.7979C123.561 52.7979 123.39 52.6248 123.39 52.4112V46.3204C123.39 45.5194 122.748 44.8701 121.956 44.8701C121.164 44.8701 120.521 45.5194 120.521 46.3204V59.5656H120.54C120.784 62.7569 123.422 65.2697 126.64 65.2697C131.102 65.2697 133.821 65.2687 128.079 65.2697C132.889 65.2697 134.209 63.0306 136.039 60.1653L136.04 60.1635C136.186 59.9356 136.334 59.7038 136.487 59.4689L139.075 54.9444C139.58 54.0597 139.28 52.9284 138.406 52.4176C137.531 51.9068 136.412 52.21 135.907 53.0947L134.734 55.1491C134.612 55.3633 134.288 55.2756 134.288 55.0283V44.3384C134.288 43.5375 133.646 42.8882 132.854 42.8882C132.062 42.8882 131.42 43.5375 131.42 44.3384V51.3961C131.42 51.6097 131.249 51.7828 131.038 51.7828C130.826 51.7828 130.655 51.6097 130.655 51.3961V42.5498C130.655 41.7489 130.013 41.0996 129.221 41.0996Z"
        fill="white"
    />
    <defs>
        <linearGradient
            id="paint0_linear_10021_4952"
            x1="165.574"
            y1="55.3373"
            x2="108.334"
            y2="67.8183"
            gradientUnits="userSpaceOnUse"
        >
            <stop stop-color="#ECAAFF" />
            <stop offset="1" stop-color="#6A48F6" />
        </linearGradient>
    </defs>
</svg>
