<svg width="42" height="42" viewBox="0 0 42 42" fill="none" xmlns="http://www.w3.org/2000/svg">
    <path
        d="M21 2.03401C20.4592 2.03401 19.9184 2.14225 19.4118 2.35872C14.4679 4.47163 8.78489 5.44112 6.08431 5.80989C5.18831 5.93224 4.50002 6.69192 4.50003 7.59624L4.5002 25.4332C4.50024 29.3198 6.64722 32.8885 10.0809 34.7094L20.1804 40.0652C20.4367 40.2011 20.7183 40.2691 21 40.2692V2.03401Z"
        fill="url(#paint0_linear_10021_3963)"
    />
    <path
        d="M21 40.2692C21.2818 40.2692 21.5637 40.2012 21.8201 40.0652L31.9195 34.7095C35.3532 32.8886 37.5002 29.3198 37.5002 25.4331L37.5 7.59621C37.5 6.6919 36.8117 5.93224 35.9157 5.80989C33.2152 5.44113 27.5321 4.47164 22.5882 2.35872C22.0817 2.14225 21.5408 2.03401 21 2.03401V40.2692Z"
        fill="url(#paint1_linear_10021_3963)"
    />
    <defs>
        <linearGradient
            id="paint0_linear_10021_3963"
            x1="21.7691"
            y1="1.60406"
            x2="21.7691"
            y2="40.5329"
            gradientUnits="userSpaceOnUse"
        >
            <stop offset="1" stop-color="#6F4DFF" />
            <stop stop-color="#8466FF" />
        </linearGradient>
        <linearGradient
            id="paint1_linear_10021_3963"
            x1="26.5938"
            y1="2.42619"
            x2="26.5938"
            y2="40.6613"
            gradientUnits="userSpaceOnUse"
        >
            <stop stop-color="#AC99FE" />
            <stop offset="1" stop-color="#6F4CFE" />
            <stop offset="1.0001" stop-color="#8366FE" />
        </linearGradient>
    </defs>
</svg>
