<svg width="48" height="48" viewBox="0 0 48 48" fill="none" xmlns="http://www.w3.org/2000/svg">
    <path
        fill-rule="evenodd"
        clip-rule="evenodd"
        d="M39 16C42.866 16 46 12.866 46 9C46 5.13401 42.866 2 39 2C35.134 2 32 5.13401 32 9C32 12.866 35.134 16 39 16ZM39 18C40.0519 18 41.0617 17.8195 42 17.4879V27.9391C42 32.2971 39.6373 36.3126 35.8277 38.429L24.9713 44.4604C24.3672 44.796 23.6328 44.796 23.0287 44.4604L12.1723 38.429C8.3627 36.3126 6 32.2971 6 27.9391V9.80996C6 8.78246 6.77442 7.91723 7.79072 7.76596C10.7023 7.3326 16.6914 6.22352 22.1867 3.84353C23.3421 3.34317 24.6579 3.34317 25.8133 3.84353C27.4157 4.53751 29.06 5.12343 30.6578 5.61605C30.2337 6.66071 30 7.80306 30 8.99998C30 13.9705 34.0294 18 39 18Z"
        fill="url(#paint0_linear_10021_4059)"
    />
    <path
        d="M21.5111 30.3953C21.4615 30.6265 21.5808 30.8609 21.7969 30.9569C22.013 31.053 22.2669 30.9845 22.4053 30.7928L28.9053 21.7928C29.0153 21.6406 29.0307 21.4396 28.9452 21.2724C28.8597 21.1052 28.6878 21 28.5 21L25.0902 21L25.9932 15.5822C26.0311 15.3549 25.9086 15.131 25.6967 15.0404C25.4848 14.9497 25.2383 15.0156 25.1 15.2L19.1 23.2C18.9864 23.3515 18.9681 23.5543 19.0528 23.7236C19.1375 23.893 19.3106 24 19.5 24H22.8815L21.5111 30.3953Z"
        fill="white"
    />
    <path
        fill-rule="evenodd"
        clip-rule="evenodd"
        d="M38.0084 6.12692L38.4608 9.66186C38.4959 9.93685 38.73 10.1429 39.0072 10.1429C39.2845 10.1429 39.5185 9.93683 39.5537 9.66183L40.0058 6.12687C40.0823 5.5291 39.6098 5 39.0071 5C38.4045 5 37.932 5.52913 38.0084 6.12692ZM39.0067 12.9999C39.4887 12.9999 39.8795 12.6162 39.8795 12.1428C39.8795 11.6694 39.4887 11.2856 39.0067 11.2856C38.5246 11.2856 38.1338 11.6694 38.1338 12.1428C38.1338 12.6162 38.5246 12.9999 39.0067 12.9999Z"
        fill="white"
    />
    <defs>
        <linearGradient
            id="paint0_linear_10021_4059"
            x1="46"
            y1="2"
            x2="-0.931647"
            y2="36.153"
            gradientUnits="userSpaceOnUse"
        >
            <stop stop-color="#FF5977" />
            <stop offset="1" stop-color="#DC3251" />
        </linearGradient>
    </defs>
</svg>
