<svg width="490" height="360" fill="none" xmlns="http://www.w3.org/2000/svg"><path d="M6 46c0-8.837 7.163-16 16-16h144v280H22c-8.837 0-16-7.163-16-16V46z" fill="#262A33"/><path d="M166 151h300v143c0 8.837-7.163 16-16 16H166V151z" fill="#F6F7FA"/><rect x="28" y="113" width="118" height="36" rx="3" fill="#3C4B88"/><rect x="28" y="49" width="72" height="42" rx="4" fill="#323641"/><path d="M166 30h284c8.837 0 16 7.163 16 16v65H166V30z" fill="#262A33"/><rect x="166" y="56" width="150" height="28" rx="3" fill="#1B1D24"/><path fill-rule="evenodd" clip-rule="evenodd" d="M185.6 72.89c.65-.8 1.003-1.8 1-2.83a4.56 4.56 0 1 0-4.56 4.56 4.467 4.467 0 0 0 2.83-1l4.26 4.25.7-.7-4.23-4.28zm-3.54.73a3.56 3.56 0 1 1 3.56-3.56 3.57 3.57 0 0 1-3.56 3.56z" fill="#fff" opacity=".2"/><g opacity=".2" fill="#fff"><path fill-rule="evenodd" clip-rule="evenodd" d="M443 54h-29a2 2 0 0 0-2 2v29a2 2 0 0 0 2 2h29a2 2 0 0 0 2-2V56a2 2 0 0 0-2-2zm-29-1a3 3 0 0 0-3 3v29a3 3 0 0 0 3 3h29a3 3 0 0 0 3-3V56a3 3 0 0 0-3-3h-29z"/><path d="M420.434 72.295V76h-1.149v-9.803h2.694c1.048 0 1.859.255 2.433.766.579.51.868 1.23.868 2.16 0 .93-.321 1.69-.964 2.283-.638.593-1.501.889-2.59.889h-1.292zm0-5.059v4.02h1.203c.793 0 1.397-.18 1.811-.54.42-.365.629-.877.629-1.538 0-1.294-.765-1.942-2.297-1.942h-1.346zM437.377 76h-1.142v-6.576c0-.52.032-1.155.096-1.907h-.027c-.11.442-.208.758-.294.95L432.66 76h-.56l-3.343-7.478c-.096-.22-.194-.554-.294-1.005h-.027c.036.392.054 1.032.054 1.92V76h-1.107v-9.803h1.517l3.008 6.836c.233.524.383.916.451 1.176h.041c.196-.538.354-.939.472-1.203l3.069-6.809h1.436V76z"/></g><rect x="28" y="173" width="94" height="8" rx="1" fill="#3C414E"/><rect x="341" y="61" width="63" height="6" rx="1" fill="#3C414E"/><rect x="28" y="213" width="98" height="8" rx="1" fill="#3C414E"/><rect x="28" y="253" width="98" height="8" rx="1" fill="#3C414E"/><rect x="28" y="193" width="81" height="8" rx="1" fill="#3C414E"/><rect x="361" y="74" width="43" height="6" rx="1" fill="#3C414E"/><rect x="28" y="233" width="69" height="8" rx="1" fill="#3C414E"/><rect x="28" y="273" width="69" height="8" rx="1" fill="#3C414E"/><rect x="215" y="172" width="181" height="8" rx="1" fill="#EEEFF3"/><rect x="215" y="188" width="157" height="8" rx="1" fill="#EEEFF3"/><rect x="183" y="172" width="24" height="24" rx="3" fill="#EEEFF3"/><rect x="215" y="215" width="181" height="8" rx="1" fill="#EEEFF3"/><rect x="215" y="231" width="157" height="8" rx="1" fill="#EEEFF3"/><rect x="183" y="215" width="24" height="24" rx="3" fill="#EEEFF3"/><rect x="215" y="258" width="181" height="8" rx="1" fill="#EEEFF3"/><rect x="215" y="274" width="157" height="8" rx="1" fill="#EEEFF3"/><rect x="183" y="258" width="24" height="24" rx="3" fill="#EEEFF3"/><path fill="#262A33" d="M166 111H173V118H166z"/><path d="M166 114a3 3 0 0 1 3-3h297v40H166v-37z" fill="#3C414E"/><circle cx="137.5" cy="70.5" r="61.5" fill="#657EE4" fill-opacity=".5"/><path fill="#fff" d="M128 61H132V65H128z"/><path fill="#fff" d="M128 68H132V72H128z"/><path fill="#fff" d="M128 75H132V79H128z"/><path fill="#fff" d="M135 75H139V79H135z"/><path fill="#fff" d="M142 75H146V79H142z"/><path fill="#fff" d="M142 68H146V72H142z"/><path fill="#fff" d="M135 68H139V72H135z"/><path fill="#fff" d="M135 61H139V65H135z"/><path fill="#fff" d="M142 61H146V65H142z"/><path d="M388 352c0 3.866-23.917 7-143.5 7-79.253 0-143.5-.891-143.5-7s64.247-7 143.5-7 143.5 0 143.5 7z" fill="#EEEFF3"/></svg>