<svg width="240" height="135" viewBox="0 0 240 135" fill="none" xmlns="http://www.w3.org/2000/svg">
    <g clip-path="url(#clip0_3712_65620)">
        <g opacity="0.7" filter="url(#filter0_f_3712_65620)">
            <ellipse cx="122.519" cy="38.3046" rx="40.9291" ry="3.1484" fill="white" />
        </g>
        <path
            opacity="0.3"
            d="M104.011 112.084C104.365 112.288 104.593 112.56 104.522 112.694L89.1799 142.022C88.9711 142.421 87.9376 142.252 86.8849 141.646C85.8322 141.04 85.1684 140.233 85.4108 139.853L103.225 111.947C103.307 111.82 103.657 111.881 104.011 112.084Z"
            fill="url(#paint0_linear_3712_65620)"
        />
        <path
            opacity="0.3"
            d="M104.378 23.1333C104.732 22.9295 104.96 22.6582 104.89 22.5239L89.5471 -6.80394C89.3383 -7.20311 88.3048 -7.0339 87.2521 -6.42818C86.1993 -5.82247 85.5356 -5.01509 85.778 -4.63528L103.592 23.2703C103.674 23.3981 104.024 23.3371 104.378 23.1333Z"
            fill="url(#paint1_linear_3712_65620)"
        />
        <path
            opacity="0.3"
            d="M137.799 112.084C137.445 112.288 137.217 112.559 137.288 112.693L152.63 142.021C152.839 142.42 153.872 142.251 154.925 141.645C155.978 141.04 156.642 140.232 156.399 139.852L138.585 111.947C138.503 111.819 138.154 111.88 137.799 112.084Z"
            fill="url(#paint2_linear_3712_65620)"
        />
        <path
            opacity="0.3"
            d="M137.799 23.1333C137.445 22.9295 137.217 22.6582 137.288 22.5239L152.63 -6.80394C152.839 -7.20311 153.872 -7.0339 154.925 -6.42818C155.978 -5.82247 156.642 -5.01509 156.399 -4.63528L138.585 23.2703C138.503 23.3981 138.154 23.3371 137.799 23.1333Z"
            fill="url(#paint3_linear_3712_65620)"
        />
        <path
            opacity="0.3"
            d="M181.093 38.6279C180.887 38.2749 180.967 37.8445 181.272 37.6609L247.873 -2.43614C248.779 -2.98188 250.022 -2.56972 250.632 -1.52088C251.243 -0.472033 250.984 0.806855 250.058 1.31908L182.024 38.9533C181.713 39.1256 181.298 38.9808 181.093 38.6279Z"
            fill="url(#paint4_linear_3712_65620)"
        />
        <path
            opacity="0.3"
            d="M181.093 97.878C180.887 98.2309 180.967 98.6614 181.272 98.845L247.873 138.942C248.779 139.488 250.022 139.076 250.632 138.027C251.243 136.978 250.984 135.699 250.058 135.187L182.024 97.5526C181.713 97.3802 181.298 97.5251 181.093 97.878Z"
            fill="url(#paint5_linear_3712_65620)"
        />
        <path
            opacity="0.3"
            d="M57.8828 38.6279C58.0882 38.2749 58.0082 37.8445 57.7032 37.6609L-8.89736 -2.43614C-9.80383 -2.98188 -11.0465 -2.56972 -11.6568 -1.52088C-12.2672 -0.472033 -12.0086 0.806855 -11.0826 1.31908L56.9512 38.9533C57.2627 39.1256 57.6775 38.9808 57.8828 38.6279Z"
            fill="url(#paint6_linear_3712_65620)"
        />
        <path
            opacity="0.3"
            d="M57.8828 97.878C58.0882 98.2309 58.0082 98.6614 57.7032 98.845L-8.89736 138.942C-9.80383 139.488 -11.0465 139.076 -11.6568 138.027C-12.2672 136.978 -12.0086 135.699 -11.0826 135.187L56.9512 97.5526C57.2627 97.3802 57.6775 97.5251 57.8828 97.878Z"
            fill="url(#paint7_linear_3712_65620)"
        />
        <path
            opacity="0.6"
            d="M29.7014 69.7099L28.3606 73.062C28.1693 73.5403 27.7903 73.9193 27.312 74.1106L23.9599 75.4514C23.0134 75.83 23.0134 77.17 23.9599 77.5486L27.312 78.8894C27.7903 79.0807 28.1693 79.4597 28.3606 79.938L29.7014 83.2901C30.08 84.2366 31.42 84.2366 31.7986 83.2901L33.1394 79.938C33.3307 79.4597 33.7097 79.0807 34.188 78.8894L37.5401 77.5486C38.4866 77.17 38.4866 75.83 37.5401 75.4514L34.188 74.1106C33.7097 73.9193 33.3307 73.5403 33.1394 73.062L31.7986 69.7099C31.42 68.7634 30.08 68.7634 29.7014 69.7099Z"
            fill="#7226ED"
        />
        <path
            opacity="0.6"
            d="M75.5243 20.645L76.1947 18.969C76.2904 18.7299 76.4799 18.5404 76.719 18.4447L78.395 17.7743C78.8683 17.585 78.8683 16.915 78.395 16.7257L76.719 16.0553C76.4799 15.9596 76.2904 15.7701 76.1947 15.531L75.5243 13.855C75.335 13.3817 74.665 13.3817 74.4757 13.855L73.8053 15.531C73.7096 15.7701 73.5201 15.9596 73.281 16.0553L71.605 16.7257C71.1317 16.915 71.1317 17.585 71.605 17.7743L73.281 18.4447C73.5201 18.5404 73.7096 18.7299 73.8053 18.969L74.4757 20.645C74.665 21.1183 75.335 21.1183 75.5243 20.645Z"
            fill="#7226ED"
        />
        <path
            opacity="0.6"
            d="M204.524 79.895L205.195 78.219C205.29 77.9798 205.48 77.7904 205.719 77.6947L207.395 77.0243C207.868 76.835 207.868 76.165 207.395 75.9757L205.719 75.3053C205.48 75.2096 205.29 75.0201 205.195 74.7809L204.524 73.1049C204.335 72.6316 203.665 72.6316 203.476 73.1049L202.805 74.7809C202.71 75.0201 202.52 75.2096 202.281 75.3053L200.605 75.9757C200.132 76.165 200.132 76.835 200.605 77.0243L202.281 77.6947C202.52 77.7904 202.71 77.9798 202.805 78.219L203.476 79.895C203.665 80.3683 204.335 80.3683 204.524 79.895Z"
            fill="#7226ED"
        />
        <path
            d="M156.178 49.8213L146.868 40.5113L153.535 33.8447C154.186 33.193 154.186 32.138 153.535 31.488L151.178 29.1313C150.526 28.4797 149.471 28.4797 148.821 29.1313L106.808 71.1413C107.701 71.7963 108.565 72.5029 109.363 73.2996C110.166 74.1029 110.87 74.9679 111.52 75.8579L132.843 54.5329L142.153 63.8429C142.478 64.1679 142.905 64.3313 143.331 64.3313C143.758 64.3313 144.185 64.1679 144.51 63.8429L156.176 52.1763C156.828 51.5246 156.828 50.4713 156.176 49.8196L156.178 49.8213Z"
            fill="url(#paint8_linear_3712_65620)"
        />
        <path
            d="M112.963 69.7033C105.815 62.555 94.1834 62.555 87.0351 69.7033C79.8867 76.8516 79.8867 88.4833 87.0351 95.6316C90.6101 99.2066 95.3034 100.992 99.9984 100.992C104.693 100.992 109.388 99.205 112.962 95.6316C120.112 88.4816 120.113 76.8516 112.963 69.7033ZM96.6667 91C93.9051 91 91.6667 88.7616 91.6667 86C91.6667 83.2383 93.9051 81 96.6667 81C99.4284 81 101.667 83.2383 101.667 86C101.667 88.7616 99.4284 91 96.6667 91Z"
            fill="url(#paint9_linear_3712_65620)"
        />
    </g>
    <defs>
        <filter
            id="filter0_f_3712_65620"
            x="74.0332"
            y="27.6001"
            width="96.9707"
            height="21.4092"
            filterUnits="userSpaceOnUse"
            color-interpolation-filters="sRGB"
        >
            <feFlood flood-opacity="0" result="BackgroundImageFix" />
            <feBlend mode="normal" in="SourceGraphic" in2="BackgroundImageFix" result="shape" />
            <feGaussianBlur stdDeviation="3.77807" result="effect1_foregroundBlur_3712_65620" />
        </filter>
        <linearGradient
            id="paint0_linear_3712_65620"
            x1="103.667"
            y1="110.994"
            x2="89.4736"
            y2="134.072"
            gradientUnits="userSpaceOnUse"
        >
            <stop stop-color="#BF7AF5" />
            <stop offset="1" stop-color="#D289EC" stop-opacity="0" />
        </linearGradient>
        <linearGradient
            id="paint1_linear_3712_65620"
            x1="104.034"
            y1="24.2242"
            x2="89.8408"
            y2="1.14607"
            gradientUnits="userSpaceOnUse"
        >
            <stop stop-color="#BF7AF5" />
            <stop offset="1" stop-color="#D289EC" stop-opacity="0" />
        </linearGradient>
        <linearGradient
            id="paint2_linear_3712_65620"
            x1="138.143"
            y1="110.993"
            x2="152.336"
            y2="134.071"
            gradientUnits="userSpaceOnUse"
        >
            <stop stop-color="#BF7AF5" />
            <stop offset="1" stop-color="#D289EC" stop-opacity="0" />
        </linearGradient>
        <linearGradient
            id="paint3_linear_3712_65620"
            x1="138.143"
            y1="24.2242"
            x2="152.336"
            y2="1.14607"
            gradientUnits="userSpaceOnUse"
        >
            <stop stop-color="#BF7AF5" />
            <stop offset="1" stop-color="#D289EC" stop-opacity="0" />
        </linearGradient>
        <linearGradient
            id="paint4_linear_3712_65620"
            x1="179.941"
            y1="40.2667"
            x2="236.948"
            y2="12.147"
            gradientUnits="userSpaceOnUse"
        >
            <stop stop-color="#BF7AF5" />
            <stop offset="1" stop-color="#D289EC" stop-opacity="0" />
        </linearGradient>
        <linearGradient
            id="paint5_linear_3712_65620"
            x1="179.941"
            y1="96.2392"
            x2="236.948"
            y2="124.359"
            gradientUnits="userSpaceOnUse"
        >
            <stop stop-color="#BF7AF5" />
            <stop offset="1" stop-color="#D289EC" stop-opacity="0" />
        </linearGradient>
        <linearGradient
            id="paint6_linear_3712_65620"
            x1="59.0344"
            y1="40.2667"
            x2="2.02714"
            y2="12.147"
            gradientUnits="userSpaceOnUse"
        >
            <stop stop-color="#BF7AF5" />
            <stop offset="1" stop-color="#D289EC" stop-opacity="0" />
        </linearGradient>
        <linearGradient
            id="paint7_linear_3712_65620"
            x1="59.0344"
            y1="96.2392"
            x2="2.02714"
            y2="124.359"
            gradientUnits="userSpaceOnUse"
        >
            <stop stop-color="#BF7AF5" />
            <stop offset="1" stop-color="#D289EC" stop-opacity="0" />
        </linearGradient>
        <linearGradient
            id="paint8_linear_3712_65620"
            x1="131.737"
            y1="28.6426"
            x2="131.737"
            y2="75.8579"
            gradientUnits="userSpaceOnUse"
        >
            <stop stop-color="#F6B828" />
            <stop offset="1" stop-color="#C88509" />
        </linearGradient>
        <linearGradient
            id="paint9_linear_3712_65620"
            x1="99.999"
            y1="64.3421"
            x2="99.999"
            y2="100.992"
            gradientUnits="userSpaceOnUse"
        >
            <stop stop-color="#FFD36E" />
            <stop offset="1" stop-color="#F6B828" />
        </linearGradient>
        <clipPath id="clip0_3712_65620">
            <rect width="240" height="135" fill="white" />
        </clipPath>
    </defs>
</svg>
