<svg xmlns="http://www.w3.org/2000/svg" width="120" height="120" fill="none">
    <path
        fill="#484356"
        fill-rule="evenodd"
        d="M60 1C27.415 1 1 27.415 1 60s26.415 59 59 59 59-26.415 59-59S92.585 1 60 1Zm0-1C26.863 0 0 26.863 0 60s26.863 60 60 60 60-26.863 60-60S93.137 0 60 0Zm0 5C29.624 5 5 29.624 5 60s24.624 55 55 55 55-24.624 55-55S90.376 5 60 5Zm0-1C29.072 4 4 29.072 4 60s25.072 56 56 56 56-25.072 56-56S90.928 4 60 4Z"
        clip-rule="evenodd"
    />
    <g clip-path="url(#a)">
        <mask id="b" fill="#fff">
            <path
                fill-rule="evenodd"
                d="M60 26c-8.284 0-15 6.716-15 15v8h30v-8c0-8.284-6.716-15-15-15Zm0 4c-6.075 0-11 4.925-11 11v4h22v-4c0-6.075-4.925-11-11-11Z"
                clip-rule="evenodd"
            />
        </mask>
        <path
            fill="#3C3847"
            fill-opacity=".2"
            fill-rule="evenodd"
            d="M60 26c-8.284 0-15 6.716-15 15v8h30v-8c0-8.284-6.716-15-15-15Zm0 4c-6.075 0-11 4.925-11 11v4h22v-4c0-6.075-4.925-11-11-11Z"
            clip-rule="evenodd"
        />
        <path
            fill="#6C6581"
            d="M45 49h-1v1h1v-1Zm30 0v1h1v-1h-1Zm-26-4h-1v1h1v-1Zm22 0v1h1v-1h-1Zm-25-4c0-7.732 6.268-14 14-14v-2c-8.837 0-16 7.163-16 16h2Zm0 8v-8h-2v8h2Zm29-1H45v2h30v-2Zm-1-7v8h2v-8h-2ZM60 27c7.732 0 14 6.268 14 14h2c0-8.837-7.163-16-16-16v2ZM50 41c0-5.523 4.477-10 10-10v-2c-6.627 0-12 5.373-12 12h2Zm0 4v-4h-2v4h2Zm21-1H49v2h22v-2Zm-1-3v4h2v-4h-2ZM60 31c5.523 0 10 4.477 10 10h2c0-6.627-5.373-12-12-12v2Z"
            mask="url(#b)"
        />
    </g>
    <mask id="c" fill="#fff">
        <path
            fill-rule="evenodd"
            d="M43 45a6 6 0 0 0-6 6v30a6 6 0 0 0 6 6h34a6 6 0 0 0 6-6V51a6 6 0 0 0-6-6H43Zm17 35c7.732 0 14-6.268 14-14s-6.268-14-14-14-14 6.268-14 14 6.268 14 14 14Z"
            clip-rule="evenodd"
        />
    </mask>
    <path
        fill="#3C3847"
        fill-opacity=".2"
        fill-rule="evenodd"
        d="M43 45a6 6 0 0 0-6 6v30a6 6 0 0 0 6 6h34a6 6 0 0 0 6-6V51a6 6 0 0 0-6-6H43Zm17 35c7.732 0 14-6.268 14-14s-6.268-14-14-14-14 6.268-14 14 6.268 14 14 14Z"
        clip-rule="evenodd"
    />
    <path
        fill="#6C6581"
        d="M38 51a5 5 0 0 1 5-5v-2a7 7 0 0 0-7 7h2Zm0 30V51h-2v30h2Zm5 5a5 5 0 0 1-5-5h-2a7 7 0 0 0 7 7v-2Zm34 0H43v2h34v-2Zm5-5a5 5 0 0 1-5 5v2a7 7 0 0 0 7-7h-2Zm0-30v30h2V51h-2Zm-5-5a5 5 0 0 1 5 5h2a7 7 0 0 0-7-7v2Zm-34 0h34v-2H43v2Zm30 20c0 7.18-5.82 13-13 13v2c8.284 0 15-6.716 15-15h-2ZM60 53c7.18 0 13 5.82 13 13h2c0-8.284-6.716-15-15-15v2ZM47 66c0-7.18 5.82-13 13-13v-2c-8.284 0-15 6.716-15 15h2Zm13 13c-7.18 0-13-5.82-13-13h-2c0 8.284 6.716 15 15 15v-2Z"
        mask="url(#c)"
    />
    <path
        fill="#3C3847"
        fill-opacity=".2"
        stroke="#6C6581"
        d="m58.218 67.424 5.401-5.46a1.567 1.567 0 0 1 2.218-.008 1.57 1.57 0 0 1 .009 2.218m-7.629 3.25 7.629-3.25m-7.629 3.25-2.036-2.06a1.567 1.567 0 0 0-2.218-.009 1.57 1.57 0 0 0-.009 2.218m4.264-.149-4.263.15m11.891-3.4-6.515 6.584a1.567 1.567 0 0 1-2.227 0l-3.15-3.184m11.892-3.4-11.891 3.4"
    />
    <path
        fill="#484356"
        d="M112 62h-9v1h9zM110 72h-9v1h9zM106 82h-9v1h9zM105 57H93v1h12zM112 57h-4v1h4zM99 27H89v1h10zM111 67H97v1h14zM111 52H97v1h14zM110 77H96v1h14zM108 42H84v1h24zM106 37H86v1h20zM102 32H83v1h19zM110 47H88v1h22zM7 62h9v1H7zM9 72h9v1H9zM15 82h9v1h-9zM7 57h12v1H7zM23 57h4v1h-4zM36 37h4v1h-4zM8 67h14v1H8zM12 77h14v1H12zM8 52h14v1H8zM20 27h16v1H20zM11 42h21v1H11zM13 37h20v1H13zM17 32h19v1H17zM9 47h22v1H9z"
    />
    <defs>
        <clipPath id="a">
            <path fill="#fff" d="M45 26h30v19H45z" />
        </clipPath>
    </defs>
</svg>
