<svg width="160" height="160" fill="none" xmlns="http://www.w3.org/2000/svg"><path d="M80 160c44.183 0 80-35.817 80-80S124.183 0 80 0 0 35.817 0 80s35.817 80 80 80Z" fill="url(#a)"/><path d="M102.701 67.046H57.969a6.588 6.588 0 0 0-6.588 6.588v56.146a6.588 6.588 0 0 0 6.588 6.588h44.732a6.589 6.589 0 0 0 6.588-6.588V73.634a6.588 6.588 0 0 0-6.588-6.588Z" fill="#fff"/><path d="M75.472 113.883h-10.65a.822.822 0 1 0 0 1.643h10.65a.822.822 0 0 0 0-1.643ZM94.886 113.883H79.428a.822.822 0 0 0 0 1.643h15.458a.822.822 0 0 0 0-1.643ZM86.214 120.516H73.292a.82.82 0 1 0 0 1.643h12.922a.822.822 0 0 0 0-1.643Z" fill="#D1CFCD"/><path d="M80.502 108.051c7.764 0 14.059-6.294 14.059-14.059 0-7.764-6.295-14.058-14.06-14.058-7.763 0-14.058 6.294-14.058 14.058 0 7.765 6.295 14.059 14.059 14.059Z" fill="#F5F4F2"/><path d="M80.502 96.736a5.356 5.356 0 1 0 0-10.712 5.356 5.356 0 0 0 0 10.712ZM80.502 108.051c3.95 0 7.498-1.607 10.042-4.218-2.343-2.979-5.959-4.853-10.042-4.853-4.084 0-7.699 1.907-10.042 4.853 2.544 2.577 6.092 4.218 10.042 4.218Z" fill="#D1CFCD"/><path d="M86.605 73.412H74.337a.939.939 0 0 1-.925-.942c0-.515.419-.94.925-.94h12.268c.506 0 .925.425.925.94a.939.939 0 0 1-.925.942Z" fill="#6D4AFF"/><path fill-rule="evenodd" clip-rule="evenodd" d="M91.21.78 73.413 67.112h15.732l16.818-62.806A79.47 79.47 0 0 0 91.211.779Z" fill="#372580"/><path fill-rule="evenodd" clip-rule="evenodd" d="m54.96 3.997 16.902 63.116h15.732L69.76.65a79.526 79.526 0 0 0-14.8 3.348Z" fill="url(#b)"/><path d="M126.737 60.535a4.385 4.385 0 1 0 0-8.77 4.385 4.385 0 0 0 0 8.77Z" fill="#372580"/><path d="m41.448 82.37-5.892-2.175-2.71-1.005-1.005-2.71-2.176-5.892-2.175 5.891-1.005 2.711-2.711 1.005-5.891 2.175 5.891 2.176 2.711 1.004 1.005 2.712 2.175 5.89 2.176-5.89 1.004-2.712 2.712-1.004 5.89-2.176Z" fill="#fff"/><defs><linearGradient id="a" x1="80" y1="0" x2="80" y2="160" gradientUnits="userSpaceOnUse"><stop stop-color="#F5F2EB"/><stop offset="1" stop-color="#E6E2DC"/></linearGradient><linearGradient id="b" x1="58.823" y1="-7.999" x2="78.117" y2="76.236" gradientUnits="userSpaceOnUse"><stop stop-color="#D7B7FF"/><stop offset="1" stop-color="#6D4AFF"/></linearGradient></defs></svg>