<svg width="130" height="64" viewBox="0 0 130 64" fill="none" xmlns="http://www.w3.org/2000/svg">
    <path
        d="M45.233 63.637H84.4188C89.1169 63.637 92.9226 59.8747 92.9226 55.2303L92.9375 45.9882H36.9375V55.23C36.9375 59.8745 40.5349 63.637 45.233 63.637Z"
        fill="url(#paint0_linear_538_10387)"
    />
    <g filter="url(#filter0_i_538_10387)">
        <path
            d="M45.6982 57.8184H84.6648C89.3532 57.8184 92.9375 53.9042 92.9375 49.138V19.0002H36.9375V49.148C36.9375 53.9141 41.0097 57.8184 45.6982 57.8184Z"
            fill="url(#paint1_linear_538_10387)"
        />
    </g>
    <path
        fill-rule="evenodd"
        clip-rule="evenodd"
        d="M74.2914 29.266C74.8772 29.8518 74.8772 30.8015 74.2914 31.3873L63.3536 42.3251C62.7678 42.9109 61.8181 42.9109 61.2323 42.3251L55.7636 36.8563C55.1778 36.2705 55.1778 35.3208 55.7636 34.735C56.3493 34.1492 57.2991 34.1492 57.8849 34.735L62.293 39.1431L72.1701 29.266C72.7558 28.6802 73.7056 28.6802 74.2914 29.266Z"
        fill="url(#paint2_radial_538_10387)"
    />
    <path
        d="M36.9375 19.0911H92.9375V13.304C92.9375 8.76662 89.1318 5.09106 84.4337 5.09106H45.4413C40.7432 5.09106 36.9375 8.76662 36.9375 13.304V19.0911Z"
        fill="url(#paint3_linear_538_10387)"
    />
    <path
        d="M82.4264 10C83.2708 10 83.9375 9.26829 83.9375 8.36585V1.63415C83.9375 0.731707 83.2708 0 82.4264 0C81.6042 0 80.9375 0.731707 80.9375 1.63415V8.34146C80.9375 9.26829 81.6042 10 82.4264 10Z"
        fill="#E5DBE9"
    />
    <path
        d="M47.4375 10C48.2659 10 48.9375 9.26829 48.9375 8.36585V1.63415C48.9375 0.731707 48.2659 0 47.4375 0C46.6091 0 45.9375 0.731707 45.9375 1.63415V8.34146C45.9375 9.26829 46.6091 10 47.4375 10Z"
        fill="#E5DBE9"
    />
    <path
        d="M92.9375 49.0988C92.9375 54.385 89.1193 57.9092 84.5676 57.9092H71.9375L92.9375 36.9092V49.0988Z"
        fill="url(#paint4_linear_538_10387)"
    />
    <path
        d="M71.9375 45.5001C71.9375 40.5938 75.7655 36.9092 80.6718 36.9092H92.9375L71.9375 57.9092V45.5001Z"
        fill="white"
    />
    <path
        fill-rule="evenodd"
        clip-rule="evenodd"
        d="M16.1757 52.4086C7.2848 48.0716 0.872076 37.7321 0.938004 27.8399C0.950084 26.0273 2.03357 24.4356 3.57398 23.4802L6.29713 21.7913C7.25123 21.1995 8.50438 21.4933 9.09613 22.4474L12.186 27.4293C12.6656 28.2027 12.5729 29.2005 11.9589 29.8722L9.26378 32.8209C8.95681 33.1568 8.91044 33.6557 9.15025 34.0424L14.3979 42.5035C14.6464 42.9041 15.1376 43.0813 15.5846 42.9316L19.2058 41.7184C20.0997 41.4189 21.0823 41.7734 21.5791 42.5745L24.6319 47.4967C25.2237 48.4508 24.9299 49.704 23.9758 50.2957L21.2528 51.9846C19.7124 52.94 17.8049 53.2033 16.1757 52.4086Z"
        fill="url(#paint5_linear_538_10387)"
    />
    <g filter="url(#filter1_i_538_10387)">
        <path
            fill-rule="evenodd"
            clip-rule="evenodd"
            d="M117.063 24C123.691 24 129.063 18.6274 129.063 12C129.063 5.37258 123.691 0 117.063 0C110.436 0 105.063 5.37258 105.063 12C105.063 14.8245 105.062 24 105.062 24C105.062 24 113.26 24 117.063 24Z"
            fill="white"
        />
        <path
            fill-rule="evenodd"
            clip-rule="evenodd"
            d="M117.063 24C123.691 24 129.063 18.6274 129.063 12C129.063 5.37258 123.691 0 117.063 0C110.436 0 105.063 5.37258 105.063 12C105.063 14.8245 105.062 24 105.062 24C105.062 24 113.26 24 117.063 24Z"
            fill="url(#paint6_linear_538_10387)"
            fill-opacity="0.2"
        />
    </g>
    <path
        fill-rule="evenodd"
        clip-rule="evenodd"
        d="M119.671 17.8052C119.671 18.309 119.257 18.7174 118.746 18.7174H115.38C114.869 18.7174 114.454 18.309 114.454 17.8052C114.454 17.3015 114.869 16.8931 115.38 16.8931H116.137L116.137 12.0834H115.885C115.373 12.0834 114.959 11.675 114.959 11.1712C114.959 10.6674 115.373 10.259 115.885 10.259H117.063C117.308 10.259 117.544 10.3551 117.717 10.5262C117.891 10.6972 117.988 10.9293 117.988 11.1712L117.988 16.8931H118.746C119.257 16.8931 119.671 17.3015 119.671 17.8052Z"
        fill="url(#paint7_linear_538_10387)"
    />
    <path
        fill-rule="evenodd"
        clip-rule="evenodd"
        d="M116.802 8.28265C117.522 8.28265 118.106 7.69867 118.106 6.9783C118.106 6.25793 117.522 5.67395 116.802 5.67395C116.082 5.67395 115.498 6.25793 115.498 6.9783C115.498 7.69867 116.082 8.28265 116.802 8.28265Z"
        fill="url(#paint8_linear_538_10387)"
    />
    <path
        d="M116.802 8.28265C117.522 8.28265 118.106 7.69867 118.106 6.9783C118.106 6.25793 117.522 5.67395 116.802 5.67395C116.082 5.67395 115.498 6.25793 115.498 6.9783C115.498 7.69867 116.082 8.28265 116.802 8.28265Z"
        fill="url(#paint9_linear_538_10387)"
    />
    <defs>
        <filter
            id="filter0_i_538_10387"
            x="36.9375"
            y="16.4876"
            width="56"
            height="41.3309"
            filterUnits="userSpaceOnUse"
            color-interpolation-filters="sRGB"
        >
            <feFlood flood-opacity="0" result="BackgroundImageFix" />
            <feBlend mode="normal" in="SourceGraphic" in2="BackgroundImageFix" result="shape" />
            <feColorMatrix
                in="SourceAlpha"
                type="matrix"
                values="0 0 0 0 0 0 0 0 0 0 0 0 0 0 0 0 0 0 127 0"
                result="hardAlpha"
            />
            <feOffset dy="-2.51268" />
            <feGaussianBlur stdDeviation="3.35024" />
            <feComposite in2="hardAlpha" operator="arithmetic" k2="-1" k3="1" />
            <feColorMatrix type="matrix" values="0 0 0 0 0.989333 0 0 0 0 0.96 0 0 0 0 1 0 0 0 1 0" />
            <feBlend mode="normal" in2="shape" result="effect1_innerShadow_538_10387" />
        </filter>
        <filter
            id="filter1_i_538_10387"
            x="105.062"
            y="0"
            width="24.001"
            height="24"
            filterUnits="userSpaceOnUse"
            color-interpolation-filters="sRGB"
        >
            <feFlood flood-opacity="0" result="BackgroundImageFix" />
            <feBlend mode="normal" in="SourceGraphic" in2="BackgroundImageFix" result="shape" />
            <feColorMatrix
                in="SourceAlpha"
                type="matrix"
                values="0 0 0 0 0 0 0 0 0 0 0 0 0 0 0 0 0 0 127 0"
                result="hardAlpha"
            />
            <feOffset />
            <feGaussianBlur stdDeviation="4" />
            <feComposite in2="hardAlpha" operator="arithmetic" k2="-1" k3="1" />
            <feColorMatrix type="matrix" values="0 0 0 0 0.427451 0 0 0 0 0.290196 0 0 0 0 1 0 0 0 0.25 0" />
            <feBlend mode="normal" in2="shape" result="effect1_innerShadow_538_10387" />
        </filter>
        <linearGradient
            id="paint0_linear_538_10387"
            x1="54.674"
            y1="28.8804"
            x2="92.7462"
            y2="62.6713"
            gradientUnits="userSpaceOnUse"
        >
            <stop stop-color="#F6EBFA" />
            <stop offset="1" stop-color="#8882A1" />
        </linearGradient>
        <linearGradient
            id="paint1_linear_538_10387"
            x1="64.9133"
            y1="12.0815"
            x2="84.4638"
            y2="62.2072"
            gradientUnits="userSpaceOnUse"
        >
            <stop stop-color="white" />
            <stop offset="1" stop-color="#EDDFF2" />
        </linearGradient>
        <radialGradient
            id="paint2_radial_538_10387"
            cx="0"
            cy="0"
            r="1"
            gradientUnits="userSpaceOnUse"
            gradientTransform="translate(62.438 40.9995) rotate(-135) scale(9.19239 16.6558)"
        >
            <stop offset="0.0001" stop-color="#342376" />
            <stop offset="1" stop-color="#8E68FF" />
        </radialGradient>
        <linearGradient
            id="paint3_linear_538_10387"
            x1="81.0914"
            y1="-20.1127"
            x2="44.1135"
            y2="43.5237"
            gradientUnits="userSpaceOnUse"
        >
            <stop stop-color="#EEBEFF" />
            <stop offset="1" stop-color="#6D4AFF" />
        </linearGradient>
        <linearGradient
            id="paint4_linear_538_10387"
            x1="80.7797"
            y1="45.2775"
            x2="85.5689"
            y2="68.2153"
            gradientUnits="userSpaceOnUse"
        >
            <stop stop-color="#D1CEDB" />
            <stop offset="1" stop-color="#DAD1DE" stop-opacity="0" />
        </linearGradient>
        <linearGradient
            id="paint5_linear_538_10387"
            x1="19.8388"
            y1="14.5842"
            x2="19.2629"
            y2="51.5747"
            gradientUnits="userSpaceOnUse"
        >
            <stop stop-color="#ECAAFF" />
            <stop offset="1" stop-color="#6A48F6" />
        </linearGradient>
        <linearGradient
            id="paint6_linear_538_10387"
            x1="105.062"
            y1="24"
            x2="124.367"
            y2="4.17414"
            gradientUnits="userSpaceOnUse"
        >
            <stop stop-color="#6A48F6" />
            <stop offset="1" stop-color="#ECAAFF" />
        </linearGradient>
        <linearGradient
            id="paint7_linear_538_10387"
            x1="117.585"
            y1="5.21743"
            x2="123.903"
            y2="19.6729"
            gradientUnits="userSpaceOnUse"
        >
            <stop stop-color="#5F48BF" />
            <stop offset="1" stop-color="#CA75FF" />
        </linearGradient>
        <linearGradient
            id="paint8_linear_538_10387"
            x1="117.585"
            y1="5.21743"
            x2="123.903"
            y2="19.6729"
            gradientUnits="userSpaceOnUse"
        >
            <stop stop-color="#5F48BF" />
            <stop offset="1" stop-color="#CA75FF" />
        </linearGradient>
        <linearGradient
            id="paint9_linear_538_10387"
            x1="117.585"
            y1="5.21743"
            x2="123.903"
            y2="19.6729"
            gradientUnits="userSpaceOnUse"
        >
            <stop stop-color="#5F48BF" />
            <stop offset="1" stop-color="#CA75FF" />
        </linearGradient>
    </defs>
</svg>
