<svg xmlns="http://www.w3.org/2000/svg" width="120" height="120" fill="none" viewBox="0 0 120 120">
    <path
        fill="#D6CCFF"
        fill-rule="evenodd"
        d="M60 1C27.415 1 1 27.415 1 60s26.415 59 59 59 59-26.415 59-59S92.585 1 60 1Zm0-1C26.863 0 0 26.863 0 60s26.863 60 60 60 60-26.863 60-60S93.137 0 60 0Zm0 5C29.624 5 5 29.624 5 60s24.624 55 55 55 55-24.624 55-55S90.376 5 60 5Zm0-1C29.072 4 4 29.072 4 60s25.072 56 56 56 56-25.072 56-56S90.928 4 60 4Z"
        clip-rule="evenodd"
    />
    <g clip-path="url(#a)">
        <path
            fill="#6D4AFF"
            fill-opacity=".08"
            fill-rule="evenodd"
            d="M60 26c-8.284 0-15 6.716-15 15v8h30v-8c0-8.284-6.716-15-15-15Zm0 4c-6.075 0-11 4.925-11 11v4h22v-4c0-6.075-4.925-11-11-11Z"
            clip-rule="evenodd"
        />
        <path
            fill="#6D4AFF"
            fill-opacity=".4"
            fill-rule="evenodd"
            d="M48 46v-5c0-6.627 5.373-12 12-12s12 5.373 12 12v5H48Zm12-19c-7.732 0-14 6.268-14 14v7h28v-7c0-7.732-6.268-14-14-14ZM45 41c0-8.284 6.716-15 15-15 8.284 0 15 6.716 15 15v8H45v-8Zm4 0c0-6.075 4.925-11 11-11s11 4.925 11 11v4H49v-4Z"
            clip-rule="evenodd"
        />
    </g>
    <path
        fill="#6D4AFF"
        fill-opacity=".08"
        fill-rule="evenodd"
        d="M43 45a6 6 0 0 0-6 6v30a6 6 0 0 0 6 6h34a6 6 0 0 0 6-6V51a6 6 0 0 0-6-6H43Zm17 35c7.732 0 14-6.268 14-14s-6.268-14-14-14-14 6.268-14 14 6.268 14 14 14Z"
        clip-rule="evenodd"
    />
    <path
        fill="#6D4AFF"
        fill-opacity=".4"
        fill-rule="evenodd"
        d="M43 46a5 5 0 0 0-5 5v30a5 5 0 0 0 5 5h34a5 5 0 0 0 5-5V51a5 5 0 0 0-5-5H43Zm32 20c0 8.284-6.716 15-15 15-8.284 0-15-6.716-15-15 0-8.284 6.716-15 15-15 8.284 0 15 6.716 15 15ZM37 51a6 6 0 0 1 6-6h34a6 6 0 0 1 6 6v30a6 6 0 0 1-6 6H43a6 6 0 0 1-6-6V51Zm37 15c0 7.732-6.268 14-14 14s-14-6.268-14-14 6.268-14 14-14 14 6.268 14 14Z"
        clip-rule="evenodd"
    />
    <path
        fill="#6D4AFF"
        fill-opacity=".08"
        fill-rule="evenodd"
        d="M65.485 62.31a1.07 1.07 0 0 1 .006 1.512l-6.516 6.584a1.067 1.067 0 0 1-1.516 0l-3.15-3.184a1.07 1.07 0 0 1 .007-1.512 1.067 1.067 0 0 1 1.51.006l2.391 2.42 5.758-5.82a1.067 1.067 0 0 1 1.51-.006Z"
        clip-rule="evenodd"
    />
    <path
        fill="#6D4AFF"
        fill-opacity=".4"
        fill-rule="evenodd"
        d="M59.686 71.11a2.067 2.067 0 0 1-2.937 0l-3.15-3.184A2.07 2.07 0 0 1 53.611 65c.81-.805 2.12-.8 2.925.012l1.682 1.7 5.046-5.1a2.068 2.068 0 1 1 2.938 2.913l-6.516 6.585Zm5.805-7.288a1.07 1.07 0 0 0-.006-1.512 1.067 1.067 0 0 0-1.51.006l-5.758 5.819-2.391-2.42a1.067 1.067 0 0 0-1.51-.005 1.07 1.07 0 0 0-.006 1.512l3.15 3.184a1.067 1.067 0 0 0 1.515 0l6.516-6.584Z"
        clip-rule="evenodd"
    />
    <path
        fill="#D6CCFF"
        d="M112 62h-9v1h9v-1Zm-2 10h-9v1h9v-1Zm-4 10h-9v1h9v-1Zm-1-25H93v1h12v-1Zm7 0h-4v1h4v-1ZM99 27H89v1h10v-1Zm12 40H97v1h14v-1Zm0-15H97v1h14v-1Zm-1 25H96v1h14v-1Zm-2-35H84v1h24v-1Zm-2-5H86v1h20v-1Zm-4-5H83v1h19v-1Zm8 15H88v1h22v-1ZM7 62h9v1H7v-1Zm2 10h9v1H9v-1Zm6 10h9v1h-9v-1ZM7 57h12v1H7v-1Zm16 0h4v1h-4v-1Zm13-20h4v1h-4v-1ZM8 67h14v1H8v-1Zm4 10h14v1H12v-1ZM8 52h14v1H8v-1Zm12-25h16v1H20v-1Zm-9 15h21v1H11v-1Zm2-5h20v1H13v-1Zm4-5h19v1H17v-1ZM9 47h22v1H9v-1Z"
    />
    <defs>
        <clipPath id="a">
            <path fill="#fff" d="M45 26h30v19H45z" />
        </clipPath>
    </defs>
</svg>
