<svg width="46" height="48" viewBox="0 0 46 48" fill="none" xmlns="http://www.w3.org/2000/svg">
<g clip-path="url(#clip0_1514_18884)">
<path d="M0 7.1111C0 3.18375 3.18375 0 7.1111 0H21.3333C25.2607 0 28.4444 3.18375 28.4444 7.1111V21.3333C28.4444 25.2607 25.2607 28.4444 21.3333 28.4444H7.1111C3.18375 28.4444 0 25.2607 0 21.3333V7.1111Z" fill="white"/>
<path d="M9.33765 17.6005V21.294H11.9271V17.7603C11.9271 17.4165 12.0635 17.0868 12.3063 16.8437C12.5491 16.6006 12.8784 16.464 13.2218 16.464H15.8769C17.1155 16.4636 18.3032 15.9707 19.179 15.0937C20.0547 14.2168 20.5467 13.0275 20.5468 11.7873C20.5468 10.5471 20.0547 9.35755 19.1788 8.48046C18.3029 7.60338 17.115 7.11054 15.8762 7.11035H9.33765V11.7273H11.9271V9.5506H15.7017C16.2877 9.5506 16.8498 9.78365 17.2643 10.1985C17.6788 10.6134 17.9117 11.1761 17.9119 11.7628C17.9119 12.3497 17.6791 12.9126 17.2645 13.3276C16.85 13.7426 16.2879 13.9758 15.7017 13.9758H12.9576C12.4821 13.9756 12.0112 14.0692 11.5719 14.2512C11.1326 14.4333 10.7334 14.7003 10.3972 15.0369C10.0611 15.3736 9.79443 15.7732 9.61262 16.2131C9.43081 16.653 9.33737 17.1244 9.33765 17.6005Z" fill="url(#paint0_radial_1514_18884)"/>
<path d="M13.2211 16.4639C12.1912 16.464 11.2035 16.8736 10.4752 17.6028C9.74692 18.332 9.33774 19.3209 9.33765 20.3521V21.2939H11.9271V17.7602C11.9271 17.4165 12.0634 17.0869 12.3061 16.8438C12.5487 16.6007 12.8779 16.4641 13.2211 16.4639Z" fill="url(#paint1_linear_1514_18884)"/>
<path d="M16.8889 26.6665C16.8889 22.7392 20.0727 19.5554 24 19.5554H38.2222C42.1496 19.5554 45.3333 22.7392 45.3333 26.6665V40.8887C45.3333 44.8161 42.1496 47.9998 38.2222 47.9998H24C20.0727 47.9998 16.8889 44.8161 16.8889 40.8887V26.6665Z" fill="url(#paint2_linear_1514_18884)"/>
<path fill-rule="evenodd" clip-rule="evenodd" d="M28.9547 41.0834C28.8642 41.0335 28.8201 40.9277 28.8482 40.8283L30.4719 35.094L26.2226 35.094C26.1348 35.094 26.0553 35.0423 26.0196 34.9622C25.9839 34.882 25.9987 34.7884 26.0574 34.7231L33.4401 26.518C33.5092 26.4412 33.6222 26.4221 33.7126 26.4721C33.8031 26.522 33.8472 26.6277 33.8191 26.7272L32.1954 32.4615L36.4448 32.4615C36.5325 32.4615 36.6121 32.5132 36.6478 32.5933C36.6835 32.6735 36.6687 32.7671 36.61 32.8324L29.2273 41.0375C29.1581 41.1143 29.0452 41.1333 28.9547 41.0834Z" fill="white"/>
<path fill-rule="evenodd" clip-rule="evenodd" d="M28.9547 41.0834C28.8642 41.0335 28.8201 40.9277 28.8482 40.8283L30.4719 35.094L26.2226 35.094C26.1348 35.094 26.0553 35.0423 26.0196 34.9622C25.9839 34.882 25.9987 34.7884 26.0574 34.7231L33.4401 26.518C33.5092 26.4412 33.6222 26.4221 33.7126 26.4721C33.8031 26.522 33.8472 26.6277 33.8191 26.7272L32.1954 32.4615L36.4448 32.4615C36.5325 32.4615 36.6121 32.5132 36.6478 32.5933C36.6835 32.6735 36.6687 32.7671 36.61 32.8324L29.2273 41.0375C29.1581 41.1143 29.0452 41.1333 28.9547 41.0834Z" fill="url(#paint3_linear_1514_18884)" fill-opacity="0.05"/>
</g>
<defs>
<radialGradient id="paint0_radial_1514_18884" cx="0" cy="0" r="1" gradientUnits="userSpaceOnUse" gradientTransform="translate(20.5876 5.14104) scale(14.2586 14.276)">
<stop stop-color="#A995FF"/>
<stop offset="1" stop-color="#6652F5"/>
</radialGradient>
<linearGradient id="paint1_linear_1514_18884" x1="11.2794" y1="20.5953" x2="11.2794" y2="15.1679" gradientUnits="userSpaceOnUse">
<stop stop-color="#6D4BFD"/>
<stop offset="1" stop-color="#1C0554"/>
</linearGradient>
<linearGradient id="paint2_linear_1514_18884" x1="42.3782" y1="11.4317" x2="26.0238" y2="51.8969" gradientUnits="userSpaceOnUse">
<stop stop-color="#EEBEFF"/>
<stop offset="1" stop-color="#5228FF"/>
</linearGradient>
<linearGradient id="paint3_linear_1514_18884" x1="37.0867" y1="41.6464" x2="22.6496" y2="37.8603" gradientUnits="userSpaceOnUse">
<stop stop-color="#ECAAFF"/>
<stop offset="1" stop-color="#6A48F6"/>
</linearGradient>
<clipPath id="clip0_1514_18884">
<rect width="45.3333" height="48" fill="white"/>
</clipPath>
</defs>
</svg>
