<svg width="64" height="64" viewBox="0 0 64 64" fill="none" xmlns="http://www.w3.org/2000/svg">
    <g clip-path="url(#clip0_12755_74219)">
        <g opacity="0.5">
            <path
                d="M19.7258 2.83054C20.0351 1.67637 21.2214 0.991427 22.3756 1.30069L52.6536 9.41366C53.8078 9.72292 54.4927 10.9093 54.1835 12.0634L41.2694 60.2595C40.9601 61.4136 39.7738 62.0986 38.6196 61.7893L8.34157 53.6763C7.1874 53.3671 6.50246 52.1807 6.81172 51.0266L19.7258 2.83054Z"
                fill="url(#paint0_linear_12755_74219)"
            />
            <g filter="url(#filter0_i_12755_74219)">
                <path
                    d="M31.0692 31.6822L30.4976 31.5442C30.7388 31.6088 30.981 31.6618 31.2225 31.7101C31.1717 31.6999 31.1201 31.6931 31.0692 31.6822ZM33.6699 31.9301C33.4379 31.9344 33.2051 31.932 32.9714 31.9219C33.2051 31.932 33.4379 31.9345 33.6699 31.9301ZM27.6985 30.3766C27.7749 30.4212 27.8516 30.4654 27.9292 30.5082C27.8516 30.4654 27.7749 30.4211 27.6985 30.3766ZM35.0086 31.8278C36.2885 31.6508 37.5199 31.2586 38.6529 30.6782L39.1332 30.4176C37.8712 31.1418 36.4719 31.6259 35.0086 31.8278ZM24.9449 28.1263C25.114 28.3158 25.2896 28.4996 25.4715 28.6779C25.2896 28.4996 25.114 28.3158 24.9449 28.1263ZM23.5681 26.2278C23.8512 26.7177 24.1709 27.1865 24.5238 27.6303C24.1708 27.1865 23.8512 26.7178 23.5681 26.2278ZM36.4065 9.49203C37.9289 9.89997 39.2964 10.5975 40.4661 11.5089C43.9753 14.2432 45.7028 18.9056 44.479 23.4728C44.2636 24.2767 43.9653 25.0363 43.5996 25.7475C43.0111 26.8915 42.2441 27.9078 41.3412 28.7689C41.3272 28.7823 41.3132 28.7958 41.2991 28.8091C40.6414 29.4301 39.9137 29.9698 39.1332 30.4176C37.8905 27.6399 35.4771 25.4354 32.3414 24.5952C29.2139 23.7573 26.0305 24.4538 23.5681 26.2278C22.9437 25.1469 22.4979 23.9637 22.2529 22.726C22.196 22.4385 22.1508 22.1482 22.1162 21.8553C22.0891 21.6264 22.0686 21.3963 22.0555 21.1647C22.0336 20.7777 22.031 20.3877 22.0494 19.9954C22.0871 19.1894 22.2086 18.375 22.4259 17.5637C23.4967 13.5674 26.5605 10.6371 30.2615 9.55613C31.3189 9.2473 32.4283 9.08959 33.5581 9.10087C34.123 9.1065 34.693 9.15408 35.2641 9.24658C35.6448 9.30825 36.0259 9.39007 36.4065 9.49203ZM35.0182 14.6806C32.7256 14.0663 30.3749 15.4042 29.7681 17.6687C29.1613 19.9332 30.5282 22.2673 32.8208 22.8815C35.1133 23.4958 37.4641 22.1579 38.0709 19.8934C38.6777 17.6289 37.3108 15.2949 35.0182 14.6806Z"
                    fill="url(#paint1_linear_12755_74219)"
                />
            </g>
            <path
                d="M32.3388 24.5956C35.475 25.4359 37.8887 27.6408 39.1313 30.4192C36.6065 31.8676 33.5315 32.3581 30.4978 31.5454C27.4536 30.7297 25.0285 28.7569 23.5676 26.2277C26.0298 24.4546 29.2119 23.7579 32.3388 24.5956ZM35.0156 14.681C37.3081 15.2954 38.675 17.6294 38.0683 19.8939C37.4614 22.1582 35.1106 23.4962 32.8181 22.882C30.5256 22.2677 29.1588 19.9336 29.7654 17.6691C30.3722 15.4046 32.723 14.0667 35.0156 14.681Z"
                fill="white"
            />
            <rect
                x="19.0525"
                y="32.9102"
                width="21.4039"
                height="1.42693"
                rx="0.713464"
                transform="rotate(15 19.0525 32.9102)"
                fill="#FFD0AE"
            />
            <rect
                x="21.7598"
                y="36.5898"
                width="14.2693"
                height="1.42693"
                rx="0.713464"
                transform="rotate(15 21.7598 36.5898)"
                fill="#FFD0AE"
            />
            <path
                d="M53.0076 8.03136C54.9311 8.54675 56.0732 10.5239 55.558 12.4474L42.6517 60.6144C42.136 62.5377 40.1584 63.679 38.235 63.1636L7.98657 55.0586C6.06352 54.543 4.92215 52.5661 5.43712 50.6428L18.3434 2.47578C18.859 0.552608 20.8359 -0.588663 22.7592 -0.073672L53.0076 8.03136ZM22.3758 1.30068C21.2217 0.991554 20.0346 1.6768 19.7254 2.8309L6.81147 51.0263C6.50235 52.1803 7.18771 53.3674 8.3417 53.6767L38.6193 61.7896C39.7734 62.0988 40.9595 61.4131 41.2688 60.2591L54.1827 12.0637C54.492 10.9096 53.8076 9.72282 52.6534 9.41354L22.3758 1.30068Z"
                fill="url(#paint2_linear_12755_74219)"
            />
        </g>
        <path
            d="M2.76135 6.23419C2.76135 5.00689 3.75628 4.01196 4.98357 4.01196L37.5762 4.01196C38.8035 4.01196 39.7984 5.00689 39.7984 6.23419V58.086C39.7984 59.3133 38.8035 60.3083 37.5762 60.3083H4.98358C3.75628 60.3083 2.76135 59.3133 2.76135 58.086L2.76135 6.23419Z"
            fill="url(#paint3_linear_12755_74219)"
        />
        <path
            d="M21.9458 32.1399C21.8265 32.1465 21.7067 32.1525 21.5864 32.1555L21.2798 32.1594C21.5033 32.1594 21.7253 32.1521 21.9458 32.1399ZM19.771 32.0637C19.8777 32.0773 19.9848 32.0891 20.0923 32.0999C20.0842 32.099 20.076 32.0987 20.0679 32.0979L19.771 32.0637ZM18.8921 31.9182L19.4751 32.0227C19.2338 31.9858 18.9956 31.9382 18.7593 31.887C18.8037 31.8966 18.8475 31.9091 18.8921 31.9182ZM17.395 31.5042C17.5668 31.5638 17.7403 31.6193 17.9155 31.6711C17.7403 31.6193 17.5668 31.5637 17.395 31.5042ZM29.6372 28.7092C28.4327 29.9073 26.9727 30.8484 25.3452 31.4426C26.9723 30.848 28.4328 29.9072 29.6372 28.7092ZM12.9019 28.6897C13.4835 29.271 14.1271 29.7895 14.8188 30.2405C14.127 29.7896 13.4835 29.2711 12.9019 28.6897ZM21.5854 8.46021C26.2794 8.57904 30.2927 11.4282 32.103 15.4778C32.7625 16.9532 33.1323 18.5872 33.1323 20.3079C33.1323 20.8274 33.0985 21.3392 33.0337 21.8411C32.9448 22.5286 32.7968 23.1977 32.5952 23.843C32.5225 24.0761 32.4395 24.3048 32.353 24.5315C31.7483 26.1144 30.817 27.5357 29.6372 28.7092C27.6445 26.2573 24.6318 24.6956 21.2612 24.6956C17.8998 24.6957 14.8946 26.2491 12.9019 28.6897C12.3978 28.1859 11.9408 27.6356 11.5337 27.0481C11.4503 26.9277 11.3696 26.8055 11.2905 26.6819C11.1313 26.4329 10.98 26.1784 10.8394 25.9172C9.9401 24.2472 9.42826 22.3375 9.42822 20.3079C9.42822 18.5872 9.79798 16.9533 10.4575 15.4778C12.0716 11.8668 15.4365 9.21013 19.4751 8.59302C20.0635 8.5031 20.6662 8.45631 21.2798 8.4563L21.5854 8.46021ZM21.2817 14.0334C18.8175 14.0334 16.8198 16.0066 16.8198 18.4407C16.8201 20.8745 18.8177 22.8479 21.2817 22.8479C23.7456 22.8477 25.7434 20.8744 25.7437 18.4407C25.7437 16.0068 23.7458 14.0337 21.2817 14.0334ZM23.2583 31.9915C23.1984 32.0015 23.1388 32.0135 23.0786 32.0227C23.1388 32.0135 23.1984 32.0015 23.2583 31.9915Z"
            fill="url(#paint4_linear_12755_74219)"
        />
        <path
            d="M21.2587 24.696C24.6298 24.696 27.6429 26.2591 29.6356 28.7117C27.4929 30.8424 24.5407 32.1598 21.2802 32.1599C18.0082 32.1599 15.0459 30.8339 12.9012 28.6902C14.894 26.2504 17.8978 24.6962 21.2587 24.696ZM21.2792 14.0339C23.7432 14.0341 25.741 16.0073 25.7411 18.4412C25.7411 20.8751 23.7433 22.8483 21.2792 22.8484C18.815 22.8484 16.8173 20.8752 16.8173 18.4412C16.8174 16.0072 18.815 14.0339 21.2792 14.0339Z"
            fill="white"
        />
        <rect x="7" y="43" width="28" height="4" rx="2" fill="#FFD0AE" />
        <rect x="13" y="51" width="17" height="4" rx="2" fill="#FFD0AE" />
        <path
            d="M37.5758 2.53027C39.6213 2.53027 41.2799 4.18888 41.2799 6.23437V58.0859C41.2799 60.1314 39.6213 61.7891 37.5758 61.7891H4.98401C2.93854 61.7891 1.27996 60.1314 1.27991 58.0859L1.27991 6.23438C1.27991 4.18888 2.93851 2.53027 4.98401 2.53027L37.5758 2.53027ZM4.98401 4.01172C3.75671 4.01172 2.76135 5.00708 2.76135 6.23438L2.76135 58.0859C2.76135 59.3132 3.75671 60.3086 4.98401 60.3086H37.5758C38.8031 60.3086 39.7985 59.3132 39.7985 58.0859V6.23437C39.7985 5.00708 38.8031 4.01172 37.5758 4.01172L4.98401 4.01172Z"
            fill="url(#paint5_linear_12755_74219)"
        />
        <g filter="url(#filter1_i_12755_74219)">
            <path
                d="M33.5876 39.7617C33.2146 39.3913 33.2146 38.7906 33.5876 38.4202L37.3023 34.731C37.6753 34.3605 38.2801 34.3605 38.6531 34.731L53.4196 49.3963C54.8184 50.7855 54.8184 53.0378 53.4196 54.427C52.0208 55.8162 49.7529 55.8162 48.3541 54.427L33.5876 39.7617Z"
                fill="url(#paint6_linear_12755_74219)"
            />
        </g>
        <path
            d="M30.5483 34.0606L32.9122 31.7129L36.6269 35.4021L34.263 37.7498L30.5483 34.0606Z"
            fill="url(#paint7_linear_12755_74219)"
        />
        <g filter="url(#filter2_i_12755_74219)">
            <path
                fill-rule="evenodd"
                clip-rule="evenodd"
                d="M33.2501 34.0606C39.5913 27.7628 39.5913 17.5522 33.2501 11.2545C26.909 4.95682 16.6279 4.95682 10.2868 11.2545C3.94559 17.5522 3.94559 27.7629 10.2868 34.0606C16.6279 40.3583 26.909 40.3583 33.2501 34.0606ZM31.5617 32.3836C36.9703 27.0121 36.9703 18.303 31.5617 12.9314C26.153 7.55987 17.3839 7.55987 11.9752 12.9314C6.5666 18.303 6.5666 27.0121 11.9752 32.3836C17.3839 37.7552 26.153 37.7552 31.5617 32.3836Z"
                fill="#3B3747"
            />
            <path
                fill-rule="evenodd"
                clip-rule="evenodd"
                d="M33.2501 34.0606C39.5913 27.7628 39.5913 17.5522 33.2501 11.2545C26.909 4.95682 16.6279 4.95682 10.2868 11.2545C3.94559 17.5522 3.94559 27.7629 10.2868 34.0606C16.6279 40.3583 26.909 40.3583 33.2501 34.0606ZM31.5617 32.3836C36.9703 27.0121 36.9703 18.303 31.5617 12.9314C26.153 7.55987 17.3839 7.55987 11.9752 12.9314C6.5666 18.303 6.5666 27.0121 11.9752 32.3836C17.3839 37.7552 26.153 37.7552 31.5617 32.3836Z"
                fill="url(#paint8_linear_12755_74219)"
                fill-opacity="0.2"
            />
        </g>
        <mask
            id="mask0_12755_74219"
            style="mask-type: alpha"
            maskUnits="userSpaceOnUse"
            x="7"
            y="8"
            width="29"
            height="29"
        >
            <path
                d="M31.5616 12.9313C36.9702 18.3028 36.9702 27.0119 31.5616 32.3835C26.153 37.755 17.3838 37.755 11.9752 32.3835C6.56654 27.0119 6.56654 18.3028 11.9752 12.9313C17.3838 7.55969 26.153 7.55969 31.5616 12.9313Z"
                fill="#D9D9D9"
            />
        </mask>
        <g mask="url(#mask0_12755_74219)">
            <rect
                width="220.707"
                height="89.0518"
                rx="3.31891"
                transform="matrix(-1 0 0 1 98.2106 -6.9624)"
                fill="url(#paint9_linear_12755_74219)"
            />
            <rect width="206.582" height="0.201743" transform="matrix(-1 0 0 1 91.1479 9.94214)" fill="#EBE5FF" />
            <mask id="path-19-inside-1_12755_74219" fill="white">
                <path d="M91.1479 10.1438H-115.434V27.0031H91.1479V10.1438Z" />
            </mask>
            <path
                d="M-115.434 27.0031V26.8013H91.1479V27.0031V27.2048H-115.434V27.0031Z"
                fill="#EBE5FF"
                mask="url(#path-19-inside-1_12755_74219)"
            />
            <path
                fill-rule="evenodd"
                clip-rule="evenodd"
                d="M31.8355 13.9771C32.2812 13.9771 32.6425 14.3383 32.6425 14.784V14.8849C32.6425 14.9406 32.5973 14.9858 32.5416 14.9858C32.4859 14.9858 32.4407 14.9406 32.4407 14.8849V14.784C32.4407 14.4498 32.1697 14.1788 31.8355 14.1788C31.5012 14.1788 31.2303 14.4498 31.2303 14.784C31.4296 14.7842 31.5342 14.7867 31.6152 14.828C31.6911 14.8667 31.7528 14.9284 31.7915 15.0043C31.8355 15.0906 31.8355 15.2036 31.8355 15.4296V16.1559C31.8355 16.3819 31.8355 16.4948 31.7915 16.5812C31.7528 16.6571 31.6911 16.7188 31.6152 16.7575C31.5289 16.8015 31.4159 16.8015 31.1899 16.8015H30.0601C29.8342 16.8015 29.7212 16.8015 29.6349 16.7575C29.5589 16.7188 29.4972 16.6571 29.4585 16.5812C29.4146 16.4948 29.4146 16.3819 29.4146 16.1559V15.4296C29.4146 15.2036 29.4146 15.0906 29.4585 15.0043C29.4972 14.9284 29.5589 14.8667 29.6349 14.828C29.7212 14.784 29.8342 14.784 30.0601 14.784H31.0285C31.0285 14.3383 31.3898 13.9771 31.8355 13.9771ZM30.5301 15.769C30.4665 15.7351 30.4233 15.6681 30.4233 15.591C30.4233 15.4796 30.5136 15.3893 30.625 15.3893C30.7364 15.3893 30.8268 15.4796 30.8268 15.591C30.8268 15.6681 30.7835 15.7351 30.72 15.769L30.808 16.121C30.8175 16.1592 30.7886 16.1962 30.7492 16.1962H30.5008C30.4614 16.1962 30.4325 16.1592 30.4421 16.121L30.5301 15.769Z"
                fill="#DC3251"
            />
            <path
                d="M26.4983 16.3716H27.1944V14.3175H26.4843C25.8724 14.3175 25.5013 14.7026 25.5013 15.3425C25.5013 15.9844 25.8724 16.3716 26.4983 16.3716ZM26.8223 16.0496H26.5164C26.0881 16.0496 25.8704 15.8149 25.8704 15.3425C25.8704 14.8721 26.0881 14.6394 26.5053 14.6394H26.8223V16.0496ZM25.1638 16.3716V14.831H24.8007V16.3716H25.1638ZM24.9813 14.6123C25.0976 14.6123 25.1919 14.5241 25.1919 14.4158C25.1919 14.3064 25.0976 14.2182 24.9813 14.2182C24.8659 14.2182 24.7717 14.3064 24.7717 14.4158C24.7717 14.5241 24.8659 14.6123 24.9813 14.6123ZM23.2098 15.2382L23.5407 15.2743C23.5688 15.173 23.6571 15.0817 23.8246 15.0817C23.976 15.0817 24.0914 15.154 24.0904 15.2583C24.0914 15.3475 24.0292 15.4017 23.8727 15.4368L23.6099 15.493C23.3191 15.5562 23.1777 15.6906 23.1767 15.9102C23.1777 16.2021 23.4495 16.4017 23.8346 16.4017C24.2127 16.4017 24.4505 16.2342 24.4956 15.9513L24.1415 15.9172C24.1104 16.0556 24.0021 16.1279 23.8356 16.1279C23.6631 16.1279 23.5488 16.0486 23.5488 15.9433C23.5488 15.856 23.615 15.7989 23.7564 15.7678L24.0192 15.7126C24.315 15.6514 24.4535 15.503 24.4525 15.2783C24.4535 14.9935 24.2007 14.8109 23.8296 14.8109C23.4685 14.8109 23.2599 14.9774 23.2098 15.2382ZM22.2053 16.4017C22.6656 16.4017 22.9435 16.0737 22.9435 15.6073C22.9435 15.1369 22.6586 14.8109 22.2073 14.8109C21.8312 14.8109 21.5704 15.0306 21.5453 15.3646H21.8923C21.9204 15.2161 22.0277 15.1038 22.2023 15.1038C22.4259 15.1038 22.5754 15.2904 22.5754 15.6013C22.5754 15.9162 22.4289 16.1058 22.2023 16.1058C22.0428 16.1058 21.9234 16.0105 21.8923 15.845H21.5453C21.5714 16.172 21.8181 16.4017 22.2053 16.4017ZM20.5752 16.4017C21.0265 16.4017 21.3134 16.0837 21.3134 15.6073C21.3134 15.1299 21.0265 14.8109 20.5752 14.8109C20.1238 14.8109 19.837 15.1299 19.837 15.6073C19.837 16.0837 20.1238 16.4017 20.5752 16.4017ZM20.5732 16.1108C20.3274 16.1108 20.2051 15.8881 20.2051 15.6063C20.2051 15.3245 20.3274 15.0988 20.5732 15.0988C20.8229 15.0988 20.9453 15.3245 20.9453 15.6063C20.9453 15.8881 20.8229 16.1108 20.5732 16.1108ZM19.1657 15.4689V16.3716H19.5288V14.831H19.1818V15.0928H19.1637C19.0935 14.9213 18.935 14.8109 18.7043 14.8109C18.3864 14.8109 18.1758 15.0216 18.1768 15.3907V16.3716H18.5399V15.4468C18.5399 15.2412 18.6522 15.1178 18.8397 15.1178C19.0313 15.1178 19.1657 15.2462 19.1657 15.4689ZM17.4446 15.4689V16.3716H17.8077V14.831H17.4606V15.0928H17.4426C17.3724 14.9213 17.2139 14.8109 16.9832 14.8109C16.6653 14.8109 16.4546 15.0216 16.4556 15.3907V16.3716H16.8187V15.4468C16.8187 15.2412 16.9311 15.1178 17.1186 15.1178C17.3102 15.1178 17.4446 15.2462 17.4446 15.4689ZM15.4045 16.4017C15.8689 16.4017 16.1527 16.0938 16.1527 15.6103C16.1527 15.1349 15.8649 14.8109 15.4236 14.8109C15.0444 14.8109 14.7195 15.0486 14.7195 15.5893V15.7006H15.7927C15.7897 15.9644 15.6342 16.1188 15.3995 16.1188C15.243 16.1188 15.1227 16.0506 15.0735 15.9202L14.7345 15.9584C14.7987 16.2261 15.0455 16.4017 15.4045 16.4017ZM15.7917 15.4559H15.0675C15.0695 15.2462 15.2099 15.0938 15.4186 15.0938C15.6352 15.0938 15.7806 15.2593 15.7917 15.4559ZM13.7403 16.4017C14.2007 16.4017 14.4785 16.0737 14.4785 15.6073C14.4785 15.1369 14.1937 14.8109 13.7423 14.8109C13.3662 14.8109 13.1054 15.0306 13.0804 15.3646H13.4274C13.4555 15.2161 13.5628 15.1038 13.7373 15.1038C13.961 15.1038 14.1104 15.2904 14.1104 15.6013C14.1104 15.9162 13.964 16.1058 13.7373 16.1058C13.5778 16.1058 13.4585 16.0105 13.4274 15.845H13.0804C13.1064 16.172 13.3532 16.4017 13.7403 16.4017ZM12.0129 14.831V15.1118H12.3168V15.9082C12.3168 16.0546 12.2436 16.0867 12.1523 16.0867C12.1072 16.0867 12.0661 16.0777 12.046 16.0727L11.9848 16.3565C12.024 16.3696 12.0952 16.3896 12.1985 16.3926C12.4713 16.4007 12.6819 16.2582 12.6799 15.9684V15.1118H12.8986V14.831H12.6799V14.4619H12.3168V14.831H12.0129ZM11.0438 16.4017C11.5082 16.4017 11.792 16.0938 11.792 15.6103C11.792 15.1349 11.5042 14.8109 11.0628 14.8109C10.6837 14.8109 10.3587 15.0486 10.3587 15.5893V15.7006H11.4319C11.4289 15.9644 11.2735 16.1188 11.0388 16.1188C10.8823 16.1188 10.7619 16.0506 10.7128 15.9202L10.3738 15.9584C10.438 16.2261 10.6847 16.4017 11.0438 16.4017ZM11.4309 15.4559H10.7068C10.7088 15.2462 10.8492 15.0938 11.0578 15.0938C11.2745 15.0938 11.4199 15.2593 11.4309 15.4559ZM9.47988 16.3987C9.84296 16.3987 10.1148 16.1108 10.1148 15.6033C10.1148 15.0898 9.83494 14.8109 9.47888 14.8109C9.20707 14.8109 9.09373 14.9744 9.03857 15.0858H9.02352V14.3175H8.65944V16.3716H9.0165V16.1289H9.03857C9.09574 16.2412 9.21509 16.3987 9.47988 16.3987ZM9.37858 16.1008C9.14689 16.1008 9.0165 15.9002 9.0165 15.6013C9.0165 15.3024 9.14489 15.1088 9.37858 15.1088C9.6203 15.1088 9.74467 15.3144 9.74467 15.6013C9.74467 15.8901 9.61829 16.1008 9.37858 16.1008Z"
                fill="#DC3251"
            />
            <path
                d="M26.4903 21.8032C26.8885 21.8032 27.1733 21.5846 27.1884 21.2616H26.9356C26.9206 21.4602 26.732 21.5826 26.4943 21.5826C26.2305 21.5826 26.0409 21.4351 26.0409 21.2175C26.0409 20.9908 26.2145 20.8323 26.5264 20.8323H26.6909V20.6117H26.5264C26.2827 20.6117 26.1132 20.4713 26.1132 20.2546C26.1132 20.047 26.2596 19.9096 26.4863 19.9096C26.6999 19.9096 26.8945 20.03 26.9035 20.2346H27.1442C27.1322 19.9116 26.8373 19.6929 26.4822 19.6929C26.1021 19.6929 25.8724 19.9517 25.8724 20.2426C25.8724 20.4743 26.0018 20.6448 26.2094 20.708V20.724C25.9507 20.7671 25.7962 20.9567 25.7962 21.2175C25.7962 21.5535 26.0921 21.8032 26.4903 21.8032ZM24.6638 19.721V21.7751H24.9126V19.9818H24.9246L25.4261 20.3148V20.062L24.9126 19.721H24.6638ZM22.4563 19.721H22.2075V21.1894C22.2075 21.5836 22.4362 21.8032 22.7933 21.8032C23.1303 21.8032 23.375 21.6097 23.375 21.2937H23.1303C23.1303 21.4682 22.9888 21.5826 22.7933 21.5826C22.5786 21.5826 22.4563 21.4452 22.4563 21.1894V19.721ZM20.7702 21.1453V20.2346H20.5335V21.7751H20.7702V21.5144H20.7863C20.8585 21.6708 21.011 21.7952 21.2437 21.7952C21.5325 21.7952 21.7411 21.6066 21.7411 21.2135V20.2346H21.5044V21.1974C21.5044 21.4221 21.364 21.5665 21.1674 21.5665C20.9909 21.5665 20.7702 21.4341 20.7702 21.1453ZM19.8633 19.721V21.7751H20.1V19.721H19.8633ZM18.6394 21.7751V21.5946L17.9614 20.8524C17.7237 20.5926 17.6123 20.4522 17.6123 20.2626C17.6123 20.046 17.7829 19.9096 18.0055 19.9096C18.2432 19.9096 18.3947 20.0651 18.3947 20.2988H18.6314C18.6314 19.9377 18.3576 19.6929 17.9975 19.6929C17.6364 19.6929 17.3797 19.9457 17.3797 20.2626C17.3797 20.4903 17.484 20.6668 17.837 21.045L18.2984 21.5384V21.5545H17.3435V21.7751H18.6394ZM16.2593 21.8032C16.7127 21.8032 16.9734 21.4191 16.9734 20.7481C16.9734 20.0821 16.7087 19.6929 16.2593 19.6929C15.81 19.6929 15.5452 20.0821 15.5452 20.7481C15.5452 21.4191 15.806 21.8032 16.2593 21.8032ZM16.2593 21.5826C15.9604 21.5826 15.7859 21.2827 15.7859 20.7481C15.7859 20.2145 15.9624 19.9096 16.2593 19.9096C16.5562 19.9096 16.7327 20.2145 16.7327 20.7481C16.7327 21.2827 16.5582 21.5826 16.2593 21.5826ZM15.1641 21.7751V21.5946L14.486 20.8524C14.2483 20.5926 14.137 20.4522 14.137 20.2626C14.137 20.046 14.3075 19.9096 14.5302 19.9096C14.7679 19.9096 14.9193 20.0651 14.9193 20.2988H15.156C15.156 19.9377 14.8822 19.6929 14.5221 19.6929C14.1611 19.6929 13.9043 19.9457 13.9043 20.2626C13.9043 20.4903 14.0086 20.6668 14.3617 21.045L14.823 21.5384V21.5545H13.8682V21.7751H15.1641ZM13.5462 21.3539V21.1493L12.6436 19.721H12.3427V21.1332H12.0618V21.3539H12.3427V21.7751H12.5794V21.3539H13.5462ZM12.5794 21.1332V20.038H12.5954L13.2774 21.1172V21.1332H12.5794ZM11.4254 21.4943L11.4415 21.6026C11.4756 21.8313 11.5779 22.1402 11.626 22.2766H11.8066C11.7805 22.1493 11.7233 21.8785 11.6942 21.6066L11.6822 21.4943H11.4254ZM9.47437 19.721V21.7751H9.72311V19.9818H9.73514L10.2366 20.3148V20.062L9.72311 19.721H9.47437ZM8.16146 19.721V21.7751H8.4102V19.9818H8.42223L8.92373 20.3148V20.062L8.4102 19.721H8.16146ZM7.39417 21.5124C7.49347 21.5124 7.57471 21.4311 7.57471 21.3318C7.57471 21.2325 7.49347 21.1513 7.39417 21.1513C7.29488 21.1513 7.21364 21.2325 7.21364 21.3318C7.21364 21.4311 7.29488 21.5124 7.39417 21.5124ZM7.39417 20.4733C7.49347 20.4733 7.57471 20.392 7.57471 20.2927C7.57471 20.1934 7.49347 20.1122 7.39417 20.1122C7.29488 20.1122 7.21364 20.1934 7.21364 20.2927C7.21364 20.392 7.29488 20.4733 7.39417 20.4733ZM6.07074 19.721V21.7751H6.31948V19.9818H6.33151L6.833 20.3148V20.062L6.31948 19.721H6.07074ZM5.52812 21.3539V21.1493L4.62543 19.721H4.32454V21.1332H4.0437V21.3539H4.32454V21.7751H4.56124V21.3539H5.52812ZM4.56124 21.1332V20.038H4.57729L5.25932 21.1172V21.1332H4.56124Z"
                fill="#5C5958"
            />
            <mask id="path-24-inside-2_12755_74219" fill="white">
                <path d="M91.1479 27.0032H-115.434V43.8624H91.1479V27.0032Z" />
            </mask>
            <path
                d="M-115.434 43.8624V43.6607H91.1479V43.8624V44.0642H-115.434V43.8624Z"
                fill="#EBE5FF"
                mask="url(#path-24-inside-2_12755_74219)"
            />
            <path
                fill-rule="evenodd"
                clip-rule="evenodd"
                d="M31.5934 31.6429H31.6338C31.6338 31.3087 31.3628 31.0377 31.0286 31.0377C30.6943 31.0377 30.4233 31.3087 30.4233 31.6429H30.4637H31.5934ZM31.8355 31.6468V31.6429C31.8355 31.1972 31.4742 30.8359 31.0286 30.8359C30.5829 30.8359 30.2216 31.1972 30.2216 31.6429V31.6468C30.1425 31.6516 30.0863 31.6625 30.0384 31.6869C29.9625 31.7256 29.9008 31.7873 29.8621 31.8632C29.8181 31.9495 29.8181 32.0625 29.8181 32.2885V33.0148C29.8181 33.2407 29.8181 33.3537 29.8621 33.44C29.9008 33.516 29.9625 33.5777 30.0384 33.6164C30.1247 33.6603 30.2377 33.6603 30.4637 33.6603H31.5934C31.8194 33.6603 31.9324 33.6603 32.0187 33.6164C32.0946 33.5777 32.1564 33.516 32.195 33.44C32.239 33.3537 32.239 33.2407 32.239 33.0148V32.2885C32.239 32.0625 32.239 31.9495 32.195 31.8632C32.1564 31.7873 32.0946 31.7256 32.0187 31.6869C31.9708 31.6625 31.9147 31.6516 31.8355 31.6468ZM30.9336 32.6279C30.8701 32.594 30.8268 32.527 30.8268 32.4499C30.8268 32.3385 30.9171 32.2481 31.0286 32.2481C31.14 32.2481 31.2303 32.3385 31.2303 32.4499C31.2303 32.527 31.1871 32.594 31.1235 32.6279L31.2115 32.9799C31.221 33.0181 31.1922 33.0551 31.1528 33.0551H30.9043C30.865 33.0551 30.8361 33.0181 30.8456 32.9799L30.9336 32.6279Z"
                fill="#1EA885"
            />
            <path
                d="M25.4361 31.8699H25.8113C25.8544 31.6242 26.05 31.4828 26.2997 31.4828C26.6357 31.4828 26.8724 31.7405 26.8724 32.2039C26.8724 32.6753 26.6337 32.925 26.3007 32.925C26.055 32.925 25.8584 32.7896 25.8113 32.5489L25.4361 32.5509C25.4933 32.9431 25.8173 33.259 26.3057 33.259C26.8473 33.259 27.2465 32.8669 27.2465 32.2039C27.2465 31.5399 26.8423 31.1488 26.3057 31.1488C25.8504 31.1488 25.4993 31.4135 25.4361 31.8699ZM24.4394 33.261C24.8908 33.261 25.1776 32.9431 25.1776 32.4667C25.1776 31.9893 24.8908 31.6703 24.4394 31.6703C23.9881 31.6703 23.7012 31.9893 23.7012 32.4667C23.7012 32.9431 23.9881 33.261 24.4394 33.261ZM24.4374 32.9702C24.1917 32.9702 24.0693 32.7475 24.0693 32.4657C24.0693 32.1838 24.1917 31.9582 24.4374 31.9582C24.6872 31.9582 24.8095 32.1838 24.8095 32.4657C24.8095 32.7475 24.6872 32.9702 24.4374 32.9702ZM23.03 32.3283V33.231H23.3931V31.6904H23.046V31.9521H23.028C22.9578 31.7806 22.7993 31.6703 22.5686 31.6703C22.2507 31.6703 22.04 31.8809 22.041 32.25V33.231H22.4041V32.3062C22.4041 32.1006 22.5164 31.9772 22.704 31.9772C22.8956 31.9772 23.03 32.1056 23.03 32.3283ZM21.3088 32.3283V33.231H21.6719V31.6904H21.3249V31.9521H21.3068C21.2366 31.7806 21.0782 31.6703 20.8475 31.6703C20.5295 31.6703 20.3189 31.8809 20.3199 32.25V33.231H20.683V32.3062C20.683 32.1006 20.7953 31.9772 20.9829 31.9772C21.1744 31.9772 21.3088 32.1056 21.3088 32.3283ZM19.2688 33.261C19.7332 33.261 20.017 32.9531 20.017 32.4697C20.017 31.9943 19.7291 31.6703 19.2878 31.6703C18.9087 31.6703 18.5837 31.908 18.5837 32.4486V32.56H19.6569C19.6539 32.8237 19.4985 32.9782 19.2638 32.9782C19.1073 32.9782 18.9869 32.91 18.9378 32.7796L18.5988 32.8177C18.663 33.0855 18.9097 33.261 19.2688 33.261ZM19.6559 32.3152H18.9318C18.9338 32.1056 19.0742 31.9532 19.2828 31.9532C19.4995 31.9532 19.6449 32.1186 19.6559 32.3152ZM17.6046 33.261C18.0649 33.261 18.3428 32.9331 18.3428 32.4667C18.3428 31.9963 18.0579 31.6703 17.6066 31.6703C17.2305 31.6703 16.9697 31.89 16.9446 32.224H17.2916C17.3197 32.0755 17.427 31.9632 17.6016 31.9632C17.8252 31.9632 17.9747 32.1497 17.9747 32.4607C17.9747 32.7756 17.8282 32.9652 17.6016 32.9652C17.4421 32.9652 17.3227 32.8699 17.2916 32.7044H16.9446C16.9707 33.0314 17.2174 33.261 17.6046 33.261ZM15.8772 31.6904V31.9712H16.1811V32.7676C16.1811 32.914 16.1079 32.9461 16.0166 32.9461C15.9715 32.9461 15.9303 32.9371 15.9103 32.9321L15.8491 33.2159C15.8882 33.229 15.9594 33.249 16.0627 33.252C16.3355 33.26 16.5462 33.1176 16.5442 32.8278V31.9712H16.7628V31.6904H16.5442V31.3213H16.1811V31.6904H15.8772ZM14.908 33.261C15.3724 33.261 15.6563 32.9531 15.6563 32.4697C15.6563 31.9943 15.3684 31.6703 14.9271 31.6703C14.548 31.6703 14.223 31.908 14.223 32.4486V32.56H15.2962C15.2932 32.8237 15.1377 32.9782 14.903 32.9782C14.7466 32.9782 14.6262 32.91 14.5771 32.7796L14.238 32.8177C14.3022 33.0855 14.549 33.261 14.908 33.261ZM15.2952 32.3152H14.571C14.573 32.1056 14.7135 31.9532 14.9221 31.9532C15.1387 31.9532 15.2842 32.1186 15.2952 32.3152ZM13.3441 33.258C13.7072 33.258 13.979 32.9702 13.979 32.4627C13.979 31.9491 13.6992 31.6703 13.3431 31.6703C13.0713 31.6703 12.958 31.8338 12.9028 31.9451H12.8878V31.1768H12.5237V33.231H12.8808V32.9882H12.9028C12.96 33.1006 13.0793 33.258 13.3441 33.258ZM13.2428 32.9602C13.0111 32.9602 12.8808 32.7596 12.8808 32.4607C12.8808 32.1618 13.0091 31.9682 13.2428 31.9682C13.4846 31.9682 13.6089 32.1738 13.6089 32.4607C13.6089 32.7495 13.4825 32.9602 13.2428 32.9602Z"
                fill="#1EA885"
            />
            <g filter="url(#filter3_i_12755_74219)">
                <path
                    d="M36.1714 22.5143C36.1714 14.4194 29.6092 7.85718 21.5142 7.85718C13.4193 7.85718 6.8571 14.4194 6.8571 22.5143C6.8571 30.6092 13.4193 37.1715 21.5142 37.1715C29.6092 37.1715 36.1714 30.6092 36.1714 22.5143Z"
                    fill="url(#paint10_linear_12755_74219)"
                />
            </g>
            <path
                d="M21.7469 21.0629C19.9799 21.0629 18.5474 19.6305 18.5474 17.8635C18.5474 16.0965 19.9799 14.6641 21.7469 14.6641C23.5139 14.6641 24.9463 16.0965 24.9463 17.8635C24.9463 19.6305 23.5139 21.0629 21.7469 21.0629Z"
                fill="#8F4E18"
            />
            <path
                d="M26.1815 30.1022C28.09 30.1022 29.381 28.0254 28.4267 26.3976C27.1357 24.0401 24.6099 22.4124 21.6911 22.4124C18.7723 22.4124 16.3026 23.984 14.9554 26.3976C14.0012 28.0815 15.2922 30.1022 17.2007 30.1022H26.1815Z"
                fill="#8F4E18"
            />
            <rect
                opacity="0.4"
                x="50.5685"
                y="-4"
                width="8"
                height="80"
                transform="rotate(45 50.5685 -4)"
                fill="white"
            />
            <rect
                opacity="0.4"
                x="41.0837"
                y="-11.4849"
                width="2.93848"
                height="80"
                transform="rotate(45 41.0837 -11.4849)"
                fill="white"
            />
        </g>
    </g>
    <defs>
        <filter
            id="filter0_i_12755_74219"
            x="22.0371"
            y="9.10034"
            width="22.8336"
            height="26.6752"
            filterUnits="userSpaceOnUse"
            color-interpolation-filters="sRGB"
        >
            <feFlood flood-opacity="0" result="BackgroundImageFix" />
            <feBlend mode="normal" in="SourceGraphic" in2="BackgroundImageFix" result="shape" />
            <feColorMatrix
                in="SourceAlpha"
                type="matrix"
                values="0 0 0 0 0 0 0 0 0 0 0 0 0 0 0 0 0 0 127 0"
                result="hardAlpha"
            />
            <feOffset dy="3.84339" />
            <feGaussianBlur stdDeviation="1.9217" />
            <feComposite in2="hardAlpha" operator="arithmetic" k2="-1" k3="1" />
            <feColorMatrix type="matrix" values="0 0 0 0 1 0 0 0 0 1 0 0 0 0 1 0 0 0 0.8 0" />
            <feBlend mode="normal" in2="shape" result="effect1_innerShadow_12755_74219" />
        </filter>
        <filter
            id="filter1_i_12755_74219"
            x="33.3079"
            y="34.4531"
            width="21.1608"
            height="22.7034"
            filterUnits="userSpaceOnUse"
            color-interpolation-filters="sRGB"
        >
            <feFlood flood-opacity="0" result="BackgroundImageFix" />
            <feBlend mode="normal" in="SourceGraphic" in2="BackgroundImageFix" result="shape" />
            <feColorMatrix
                in="SourceAlpha"
                type="matrix"
                values="0 0 0 0 0 0 0 0 0 0 0 0 0 0 0 0 0 0 127 0"
                result="hardAlpha"
            />
            <feOffset dy="1.6875" />
            <feGaussianBlur stdDeviation="0.84375" />
            <feComposite in2="hardAlpha" operator="arithmetic" k2="-1" k3="1" />
            <feColorMatrix type="matrix" values="0 0 0 0 1 0 0 0 0 1 0 0 0 0 1 0 0 0 0.4 0" />
            <feBlend mode="normal" in2="shape" result="effect1_innerShadow_12755_74219" />
        </filter>
        <filter
            id="filter2_i_12755_74219"
            x="4.68713"
            y="6.53125"
            width="33.3188"
            height="33.2652"
            filterUnits="userSpaceOnUse"
            color-interpolation-filters="sRGB"
        >
            <feFlood flood-opacity="0" result="BackgroundImageFix" />
            <feBlend mode="normal" in="SourceGraphic" in2="BackgroundImageFix" result="shape" />
            <feColorMatrix
                in="SourceAlpha"
                type="matrix"
                values="0 0 0 0 0 0 0 0 0 0 0 0 0 0 0 0 0 0 127 0"
                result="hardAlpha"
            />
            <feOffset dx="-0.84375" dy="1.0125" />
            <feGaussianBlur stdDeviation="0.506798" />
            <feComposite in2="hardAlpha" operator="arithmetic" k2="-1" k3="1" />
            <feColorMatrix type="matrix" values="0 0 0 0 1 0 0 0 0 1 0 0 0 0 1 0 0 0 0.4 0" />
            <feBlend mode="normal" in2="shape" result="effect1_innerShadow_12755_74219" />
        </filter>
        <filter
            id="filter3_i_12755_74219"
            x="6.85706"
            y="7.85718"
            width="29.3143"
            height="33.1576"
            filterUnits="userSpaceOnUse"
            color-interpolation-filters="sRGB"
        >
            <feFlood flood-opacity="0" result="BackgroundImageFix" />
            <feBlend mode="normal" in="SourceGraphic" in2="BackgroundImageFix" result="shape" />
            <feColorMatrix
                in="SourceAlpha"
                type="matrix"
                values="0 0 0 0 0 0 0 0 0 0 0 0 0 0 0 0 0 0 127 0"
                result="hardAlpha"
            />
            <feOffset dy="3.84339" />
            <feGaussianBlur stdDeviation="1.9217" />
            <feComposite in2="hardAlpha" operator="arithmetic" k2="-1" k3="1" />
            <feColorMatrix type="matrix" values="0 0 0 0 1 0 0 0 0 1 0 0 0 0 1 0 0 0 0.8 0" />
            <feBlend mode="normal" in2="shape" result="effect1_innerShadow_12755_74219" />
        </filter>
        <linearGradient
            id="paint0_linear_12755_74219"
            x1="55.0204"
            y1="8.93989"
            x2="3.08298"
            y2="51.1594"
            gradientUnits="userSpaceOnUse"
        >
            <stop stop-color="white" />
            <stop offset="1" stop-color="#F9EEE8" />
        </linearGradient>
        <linearGradient
            id="paint1_linear_12755_74219"
            x1="33"
            y1="9.5"
            x2="48.0007"
            y2="31.9995"
            gradientUnits="userSpaceOnUse"
        >
            <stop stop-color="#FFD66C" />
            <stop offset="1" stop-color="#FF8E4F" />
        </linearGradient>
        <linearGradient
            id="paint2_linear_12755_74219"
            x1="48.3691"
            y1="5.44549"
            x2="-3.55926"
            y2="32.6533"
            gradientUnits="userSpaceOnUse"
        >
            <stop stop-color="#FFD7B3" />
            <stop offset="1" stop-color="#FFB39B" />
        </linearGradient>
        <linearGradient
            id="paint3_linear_12755_74219"
            x1="39.7984"
            y1="2.90085"
            x2="-0.942351"
            y2="59.1971"
            gradientUnits="userSpaceOnUse"
        >
            <stop stop-color="white" />
            <stop offset="1" stop-color="#F9EEE8" />
        </linearGradient>
        <linearGradient
            id="paint4_linear_12755_74219"
            x1="31.2804"
            y1="4.98879"
            x2="10.5378"
            y2="31.2377"
            gradientUnits="userSpaceOnUse"
        >
            <stop stop-color="#EF9279" />
            <stop offset="1" stop-color="#FFD7B3" />
        </linearGradient>
        <linearGradient
            id="paint5_linear_12755_74219"
            x1="32.189"
            y1="1.18348"
            x2="-12.576"
            y2="42.4225"
            gradientUnits="userSpaceOnUse"
        >
            <stop stop-color="#FFD7B3" />
            <stop offset="1" stop-color="#FFB39B" />
        </linearGradient>
        <linearGradient
            id="paint6_linear_12755_74219"
            x1="44.9056"
            y1="27.3805"
            x2="50.7292"
            y2="54.2731"
            gradientUnits="userSpaceOnUse"
        >
            <stop stop-color="#ECAAFF" />
            <stop offset="1" stop-color="#6A48F6" />
        </linearGradient>
        <linearGradient
            id="paint7_linear_12755_74219"
            x1="21.6761"
            y1="27.839"
            x2="23.0158"
            y2="39.1355"
            gradientUnits="userSpaceOnUse"
        >
            <stop stop-color="#A7A4B5" />
            <stop offset="1" stop-color="#1C1B24" />
        </linearGradient>
        <linearGradient
            id="paint8_linear_12755_74219"
            x1="30.127"
            y1="52.5528"
            x2="0.512054"
            y2="34.5748"
            gradientUnits="userSpaceOnUse"
        >
            <stop stop-color="white" />
            <stop offset="0.553424" stop-color="white" stop-opacity="0" />
        </linearGradient>
        <linearGradient
            id="paint9_linear_12755_74219"
            x1="110.354"
            y1="0"
            x2="110.354"
            y2="89.0518"
            gradientUnits="userSpaceOnUse"
        >
            <stop stop-color="white" />
            <stop offset="1" stop-color="#F4F1FF" />
        </linearGradient>
        <linearGradient
            id="paint10_linear_12755_74219"
            x1="18.3734"
            y1="7.85718"
            x2="33.6346"
            y2="41.3995"
            gradientUnits="userSpaceOnUse"
        >
            <stop stop-color="#FFD66C" />
            <stop offset="1" stop-color="#FF8E4F" />
        </linearGradient>
        <clipPath id="clip0_12755_74219">
            <rect width="64" height="64" fill="white" />
        </clipPath>
    </defs>
</svg>
