<svg width="32" height="32" viewBox="0 0 32 32" fill="none" xmlns="http://www.w3.org/2000/svg">
    <rect width="32" height="32" rx="16" fill="#3D2A3D" />
    <g clip-path="url(#clip0_311_1978)">
        <path
            fill-rule="evenodd"
            clip-rule="evenodd"
            d="M21.1931 11.2129C21.1568 11.1251 21.103 11.0428 21.0319 10.9713C21.0314 10.9707 21.0309 10.9702 21.0303 10.9697C21.0298 10.9691 21.0293 10.9686 21.0287 10.9681C20.8931 10.8333 20.7063 10.75 20.5 10.75H14.5C14.0858 10.75 13.75 11.0858 13.75 11.5C13.75 11.9142 14.0858 12.25 14.5 12.25H18.6893L10.9697 19.9697C10.6768 20.2626 10.6768 20.7374 10.9697 21.0303C11.2626 21.3232 11.7374 21.3232 12.0303 21.0303L19.75 13.3107V17.5C19.75 17.9142 20.0858 18.25 20.5 18.25C20.9142 18.25 21.25 17.9142 21.25 17.5V11.5C21.25 11.3983 21.2298 11.3013 21.1931 11.2129Z"
            fill="#FF8A8A"
        />
    </g>
    <defs>
        <clipPath id="clip0_311_1978">
            <rect width="12" height="12" fill="white" transform="translate(10 10)" />
        </clipPath>
    </defs>
</svg>
