<svg width="39" height="39" viewBox="0 0 39 39" fill="none" xmlns="http://www.w3.org/2000/svg">
<path d="M35.8921 15.3099L34.7726 14.1905C34.6242 14.0421 34.4229 13.9587 34.2129 13.9587C34.003 13.9587 33.8017 14.0421 33.6532 14.1905L15.5407 32.3031V24.2502C15.5407 24.0403 15.4573 23.8389 15.3088 23.6904C15.1604 23.542 14.959 23.4586 14.749 23.4586H13.1657C12.9557 23.4586 12.7544 23.542 12.6059 23.6904C12.4574 23.8389 12.374 24.0403 12.374 24.2502V36.9169C12.374 37.1269 12.4574 37.3282 12.6059 37.4767C12.7544 37.6252 12.9557 37.7086 13.1657 37.7086H25.8324C26.0423 37.7086 26.2437 37.6252 26.3922 37.4767C26.5406 37.3282 26.624 37.1269 26.624 36.9169V35.3336C26.624 35.1236 26.5406 34.9222 26.3922 34.7738C26.2437 34.6253 26.0423 34.5419 25.8324 34.5419H17.7795L35.8921 16.4294C36.0405 16.2809 36.1239 16.0796 36.1239 15.8697C36.1239 15.6597 36.0405 15.4584 35.8921 15.3099Z" fill="#AEB5C4"/>
<path d="M23.4572 14.7503C23.4572 14.9603 23.5406 15.1617 23.6891 15.3101C23.8375 15.4586 24.0389 15.542 24.2489 15.542H25.8322C26.0422 15.542 26.2435 15.4586 26.392 15.3101C26.5404 15.1617 26.6239 14.9603 26.6239 14.7503V2.08366C26.6239 1.8737 26.5404 1.67233 26.392 1.52387C26.2435 1.3754 26.0422 1.29199 25.8322 1.29199H13.1655C12.9556 1.29199 12.7542 1.3754 12.6057 1.52387C12.4573 1.67233 12.3739 1.8737 12.3739 2.08366V3.66699C12.3739 3.87696 12.4573 4.07832 12.6057 4.22679C12.7542 4.37525 12.9556 4.45866 13.1655 4.45866H21.2184L3.10581 22.5712C2.9574 22.7197 2.87402 22.921 2.87402 23.1309C2.87402 23.3408 2.9574 23.5422 3.10581 23.6906L4.22523 24.81C4.37369 24.9585 4.57502 25.0418 4.78494 25.0418C4.99486 25.0418 5.19619 24.9585 5.34465 24.81L23.4572 6.69749V14.7503Z" fill="#D0D7E4"/>
</svg>
