<svg xmlns="http://www.w3.org/2000/svg" width="264" height="148" fill="none">
    <path
        fill="#fff"
        fill-opacity=".5"
        d="M67 22.5a6.5 6.5 0 0 1 6.5-6.5h112a6.5 6.5 0 0 1 6.5 6.5v13.25c0 .69-.56 1.25-1.25 1.25s-1.25.56-1.25 1.25V96a6.5 6.5 0 0 1-6.5 6.5H73.5A6.5 6.5 0 0 1 67 96V22.5Z"
    />
    <mask id="b" width="138" height="112" x="54" y="16" maskUnits="userSpaceOnUse" style="mask-type: alpha">
        <path
            fill="url(#a)"
            d="M166.5 49.039V33.5H192v-17H54.5v111h112v-9.539c0-2.385.564-4.737 1.646-6.861a143.378 143.378 0 0 1 15.033-23.535l.696-.886a5.147 5.147 0 0 0 0-6.358l-.696-.885A143.397 143.397 0 0 1 168.146 55.9a15.12 15.12 0 0 1-1.646-6.861Z"
        />
        <path
            fill="#fff"
            fill-opacity=".2"
            d="M166.5 49.039V33.5H192v-17H54.5v111h112v-9.539c0-2.385.564-4.737 1.646-6.861a143.378 143.378 0 0 1 15.033-23.535l.696-.886a5.147 5.147 0 0 0 0-6.358l-.696-.885A143.397 143.397 0 0 1 168.146 55.9a15.12 15.12 0 0 1-1.646-6.861Z"
        />
    </mask>
    <g mask="url(#b)">
        <path fill="url(#c)" d="M72.5 21.5h114v79h-114v-79Z" />
        <path
            fill="#372580"
            fill-rule="evenodd"
            d="M73.5 16.5a6 6 0 0 0-6 6v78h7a2 2 0 0 1-2-2v-75a2 2 0 0 1 2-2h110a2 2 0 0 1 2 2v75a2 2 0 0 1-2 2h7v-78a6 6 0 0 0-6-6h-112Z"
            clip-rule="evenodd"
        />
        <path
            fill="url(#d)"
            fill-opacity=".2"
            fill-rule="evenodd"
            d="M73.5 16.5a6 6 0 0 0-6 6v78h7a2 2 0 0 1-2-2v-75a2 2 0 0 1 2-2h110a2 2 0 0 1 2 2v75a2 2 0 0 1-2 2h7v-78a6 6 0 0 0-6-6h-112Z"
            clip-rule="evenodd"
        />
        <path
            fill="url(#e)"
            d="M203.178 106.5H56.822c-1.303 0-2.322-1.029-2.322-2.343v-1.314c0-1.314 1.02-2.343 2.322-2.343h146.356c1.303 0 2.322 1.029 2.322 2.343v1.314a2.343 2.343 0 0 1-2.322 2.343Z"
        />
        <path fill="#fff" d="M137.5 103.5h-15c-2 0-3-1-3-3h21c0 2-1 3-3 3Z" />
        <g filter="url(#f)">
            <path
                fill="#fff"
                d="M106.5 49.833c0-7.364 5.97-13.333 13.333-13.333h21.334c7.363 0 13.333 5.97 13.333 13.333v21.334c0 7.364-5.97 13.333-13.333 13.333h-21.334c-7.363 0-13.333-5.97-13.333-13.333V49.833Z"
            />
            <path
                stroke="url(#g)"
                stroke-width=".5"
                d="M119.833 36.75h21.334c7.225 0 13.083 5.858 13.083 13.083v21.334c0 7.225-5.858 13.083-13.083 13.083h-21.334c-7.225 0-13.083-5.858-13.083-13.083V49.833c0-7.225 5.858-13.083 13.083-13.083Z"
            />
        </g>
        <g filter="url(#h)">
            <ellipse cx="124.226" cy="72.907" fill="#6D4AFF" fill-opacity=".3" rx="3.435" ry=".573" />
        </g>
        <g filter="url(#i)">
            <path
                fill="url(#j)"
                fill-rule="evenodd"
                d="M146.335 49.794a.572.572 0 0 1-.004.81l-21.462 21.294a1.145 1.145 0 0 1-1.613 0l-8.417-8.353a1.145 1.145 0 0 1-.007-1.619l1.613-1.626a1.145 1.145 0 0 1 1.619-.006l5.246 5.205a1.145 1.145 0 0 0 1.555.054l19.579-16.914a.573.573 0 0 1 .782.031l1.109 1.124Z"
                clip-rule="evenodd"
            />
        </g>
    </g>
    <mask id="l" width="51" height="88" x="166" y="38" maskUnits="userSpaceOnUse" style="mask-type: alpha">
        <path
            fill="url(#k)"
            d="M166.5 47.539V38h50v9.539a15.12 15.12 0 0 1-1.646 6.861 143.397 143.397 0 0 1-15.033 23.536l-.696.885a5.147 5.147 0 0 0 0 6.358l.696.885a143.383 143.383 0 0 1 15.033 23.536 15.118 15.118 0 0 1 1.646 6.861V126h-50v-9.539c0-2.385.564-4.737 1.646-6.861a143.383 143.383 0 0 1 15.033-23.535l.696-.886a5.147 5.147 0 0 0 0-6.358l-.696-.885A143.397 143.397 0 0 1 168.146 54.4a15.12 15.12 0 0 1-1.646-6.861Z"
        />
        <path
            fill="#fff"
            fill-opacity=".2"
            d="M166.5 47.539V38h50v9.539a15.12 15.12 0 0 1-1.646 6.861 143.397 143.397 0 0 1-15.033 23.536l-.696.885a5.147 5.147 0 0 0 0 6.358l.696.885a143.383 143.383 0 0 1 15.033 23.536 15.118 15.118 0 0 1 1.646 6.861V126h-50v-9.539c0-2.385.564-4.737 1.646-6.861a143.383 143.383 0 0 1 15.033-23.535l.696-.886a5.147 5.147 0 0 0 0-6.358l-.696-.885A143.397 143.397 0 0 1 168.146 54.4a15.12 15.12 0 0 1-1.646-6.861Z"
        />
    </mask>
    <g mask="url(#l)">
        <path fill="url(#m)" d="M161.5 38h61v89h-61V38Z" />
        <path fill="url(#n)" d="M161.5 38h61v89h-61V38Z" />
        <path fill="url(#o)" d="M161.5 38h61v89h-61V38Z" />
    </g>
    <path
        stroke="#fff"
        stroke-opacity=".5"
        d="M217 37.5v10.04c0 2.31-.512 4.588-1.497 6.673l-.203.414a144.011 144.011 0 0 1-14.01 22.23l-1.075 1.387-.696.886a4.647 4.647 0 0 0 0 5.74l.696.886 1.075 1.387a144.006 144.006 0 0 1 14.01 22.23l.203.414a15.624 15.624 0 0 1 1.497 6.674V126.5h-51v-10.039c0-2.464.583-4.893 1.7-7.088l.807-1.56a143.938 143.938 0 0 1 14.278-22.057l.696-.886.121-.16a4.65 4.65 0 0 0 0-5.42l-.121-.16-.696-.886a143.919 143.919 0 0 1-14.278-22.057l-.807-1.56a15.63 15.63 0 0 1-1.7-7.088V37.5h51Z"
    />
    <g filter="url(#p)">
        <path
            stroke="#A6A9D1"
            stroke-opacity=".25"
            stroke-width=".5"
            d="M216.75 37.75v9.79c0 2.272-.504 4.515-1.473 6.566l-.2.408a143.732 143.732 0 0 1-13.985 22.192l-1.074 1.384-.696.886a4.897 4.897 0 0 0 0 6.048l.696.886 1.074 1.384a143.753 143.753 0 0 1 13.985 22.192l.2.408a15.374 15.374 0 0 1 1.473 6.567v9.789h-50.5v-9.789c0-2.425.573-4.815 1.673-6.975l.805-1.556c4.07-7.76 8.842-15.13 14.254-22.02l.696-.886.127-.168a4.897 4.897 0 0 0 0-5.712l-.127-.168-.696-.886a143.72 143.72 0 0 1-14.254-22.02l-.805-1.556a15.368 15.368 0 0 1-1.673-6.975V37.75h50.5Z"
            shape-rendering="crispEdges"
        />
    </g>
    <path
        fill="url(#q)"
        d="M184.508 96.687c3.864-3.521 10.12-3.521 13.984 0 5.824 5.308 12.658 11.416 15.428 16.012 1.039 1.723 1.58 3.63 1.58 5.564V126h-48v-7.737c0-1.934.541-3.841 1.58-5.564 2.77-4.596 9.604-10.704 15.428-16.012Z"
    />
    <rect width="60" height="6" x="161.5" y="32" fill="url(#r)" rx="3" />
    <rect width="60" height="6" x="161.5" y="126" fill="url(#s)" rx="3" />
    <path
        fill="#fff"
        fill-opacity=".5"
        d="M77.7 125H49.3c-3.463 0-6.3-2.929-6.3-6.542V58.504C43 54.93 45.837 52 49.3 52H67v.5h10l6.5 7v47h.5v11.958c.037 3.613-2.8 6.542-6.3 6.542Z"
    />
    <path
        fill="#372580"
        d="M77.354 124.5H49.645c-3.378 0-6.145-2.889-6.145-6.452V58.915c0-3.526 2.767-6.415 6.145-6.415h27.71c3.413 0 6.145 2.889 6.145 6.415v59.133c.036 3.563-2.732 6.452-6.146 6.452Z"
    />
    <path
        fill="#fff"
        d="M77.13 54.5h-3.852l-.778 1.746a2.857 2.857 0 0 1-2.593 1.709H57.056c-1.112 0-2.112-.684-2.593-1.709l-.74-1.708H49.87c-2.407 0-4.37 2.012-4.37 4.48v59.002c0 2.468 1.963 4.48 4.37 4.48h27.26c2.407 0 4.37-2.012 4.37-4.48V58.98c-.037-2.468-1.963-4.48-4.37-4.48Z"
    />
    <rect width="5.014" height="4.999" x="49.5" y="91.918" fill="#E6E4ED" rx="1.417" />
    <path
        fill="#E6E4ED"
        d="M56.395 96.138c0-.432.35-.782.78-.782h17.913a.781.781 0 0 1 0 1.563H57.176a.781.781 0 0 1-.782-.781ZM56.395 92.699c0-.432.35-.781.78-.781h17.913a.781.781 0 1 1 0 1.562H57.176a.781.781 0 0 1-.782-.781Z"
    />
    <rect width="5.014" height="4.999" x="49.5" y="105.979" fill="#E6E4ED" rx="1.417" />
    <path
        fill="#E6E4ED"
        d="M56.395 110.197c0-.431.35-.781.78-.781h17.913a.781.781 0 0 1 0 1.562H57.176a.78.78 0 0 1-.782-.781ZM56.395 106.76a.78.78 0 0 1 .78-.781h17.913a.78.78 0 1 1 0 1.562H57.176a.781.781 0 0 1-.782-.781Z"
    />
    <rect width="5.014" height="4.999" x="49.5" y="62.391" fill="#E6E4ED" rx="1.417" />
    <rect width="5.014" height="4.999" x="49.5" y="77.155" fill="#E6E4ED" rx="1.417" />
    <path
        fill="#E6E4ED"
        d="M56.395 77.936c0-.431.35-.78.78-.78h17.913a.781.781 0 1 1 0 1.561H57.176a.781.781 0 0 1-.782-.78ZM56.395 99.574c0-.432.35-.781.78-.781h5.49a.781.781 0 1 1 0 1.562h-5.49a.781.781 0 0 1-.78-.781ZM56.395 81.373c0-.431.35-.781.78-.781h17.913a.781.781 0 1 1 0 1.562H57.176a.781.781 0 0 1-.782-.781ZM56.395 84.81c0-.43.35-.78.78-.78h5.49a.781.781 0 1 1 0 1.562h-5.49a.781.781 0 0 1-.78-.781ZM56.395 63.172c0-.431.35-.78.78-.78h17.913a.781.781 0 1 1 0 1.561H57.176a.781.781 0 0 1-.782-.78ZM56.395 113.634a.78.78 0 0 1 .78-.781h5.49a.78.78 0 1 1 0 1.562h-5.49a.781.781 0 0 1-.78-.781ZM56.395 66.609c0-.432.35-.781.78-.781h17.913a.781.781 0 0 1 0 1.562H57.176a.781.781 0 0 1-.782-.781ZM56.395 70.046c0-.431.35-.78.78-.78h5.49a.781.781 0 0 1 0 1.561h-5.49a.781.781 0 0 1-.78-.78Z"
    />
    <defs>
        <linearGradient id="a" x1="216.5" x2="150.491" y1="37.763" y2="116.538" gradientUnits="userSpaceOnUse">
            <stop stop-color="#F5F5F5" />
            <stop offset="1" stop-color="#F4E1D7" />
        </linearGradient>
        <linearGradient id="c" x1="129.4" x2="93.791" y1="12.812" y2="110.112" gradientUnits="userSpaceOnUse">
            <stop stop-color="#fff" />
            <stop offset="1" stop-color="#EFEBFF" />
        </linearGradient>
        <linearGradient id="d" x1="159.514" x2="74.171" y1="135.531" y2="65.886" gradientUnits="userSpaceOnUse">
            <stop stop-color="#fff" />
            <stop offset=".553" stop-color="#fff" stop-opacity="0" />
        </linearGradient>
        <linearGradient id="e" x1="191.421" x2="80.284" y1="103.891" y2="103.891" gradientUnits="userSpaceOnUse">
            <stop stop-color="#DBE2F0" />
            <stop offset="1" stop-color="#C9CFD5" />
        </linearGradient>
        <linearGradient id="g" x1="130.5" x2="130.5" y1="36.5" y2="84.5" gradientUnits="userSpaceOnUse">
            <stop stop-color="#6D4AFF" stop-opacity=".1" />
            <stop offset="1" stop-color="#6D4AFF" stop-opacity="0" />
        </linearGradient>
        <linearGradient id="j" x1="132.076" x2="132.161" y1="46.509" y2="72.698" gradientUnits="userSpaceOnUse">
            <stop stop-color="#21F9B1" />
            <stop offset="1" stop-color="#0BC" />
        </linearGradient>
        <linearGradient id="k" x1="216.5" x2="150.491" y1="36.263" y2="115.038" gradientUnits="userSpaceOnUse">
            <stop stop-color="#F5F5F5" />
            <stop offset="1" stop-color="#F4E1D7" />
        </linearGradient>
        <linearGradient id="n" x1="192" x2="192" y1="38" y2="127" gradientUnits="userSpaceOnUse">
            <stop offset=".356" stop-color="#FFFCFA" stop-opacity="0" />
            <stop offset=".563" stop-color="#FFFCFA" stop-opacity=".5" />
            <stop offset=".679" stop-color="#fff" stop-opacity=".5" />
            <stop offset=".745" stop-color="#fff" stop-opacity=".5" />
        </linearGradient>
        <linearGradient id="q" x1="191.99" x2="191.99" y1="126.419" y2="87.5" gradientUnits="userSpaceOnUse">
            <stop stop-color="#FFB95E" />
            <stop offset=".565" stop-color="#FFCF90" />
            <stop offset="1" stop-color="#FFB95E" />
        </linearGradient>
        <linearGradient id="r" x1="218.071" x2="217.876" y1="32.045" y2="39.262" gradientUnits="userSpaceOnUse">
            <stop stop-color="#E2E8F3" />
            <stop offset="1" stop-color="#C9CDD5" />
        </linearGradient>
        <linearGradient id="s" x1="218.071" x2="217.876" y1="126.045" y2="133.262" gradientUnits="userSpaceOnUse">
            <stop stop-color="#E2E8F3" />
            <stop offset="1" stop-color="#C9CDD5" />
        </linearGradient>
        <filter
            id="f"
            width="91.13"
            height="91.13"
            x="84.935"
            y="20.326"
            color-interpolation-filters="sRGB"
            filterUnits="userSpaceOnUse"
        >
            <feFlood flood-opacity="0" result="BackgroundImageFix" />
            <feColorMatrix in="SourceAlpha" result="hardAlpha" values="0 0 0 0 0 0 0 0 0 0 0 0 0 0 0 0 0 0 127 0" />
            <feOffset dy="5.391" />
            <feGaussianBlur stdDeviation="10.783" />
            <feComposite in2="hardAlpha" operator="out" />
            <feColorMatrix values="0 0 0 0 0.105882 0 0 0 0 0.0745098 0 0 0 0 0.25098 0 0 0 0.1 0" />
            <feBlend in2="BackgroundImageFix" result="effect1_dropShadow_15503_3372" />
            <feBlend in="SourceGraphic" in2="effect1_dropShadow_15503_3372" result="shape" />
        </filter>
        <filter
            id="h"
            width="22.87"
            height="17.145"
            x="112.791"
            y="64.335"
            color-interpolation-filters="sRGB"
            filterUnits="userSpaceOnUse"
        >
            <feFlood flood-opacity="0" result="BackgroundImageFix" />
            <feBlend in="SourceGraphic" in2="BackgroundImageFix" result="shape" />
            <feGaussianBlur result="effect1_foregroundBlur_15503_3372" stdDeviation="4" />
        </filter>
        <filter
            id="i"
            width="32"
            height="26.73"
            x="114.5"
            y="48.5"
            color-interpolation-filters="sRGB"
            filterUnits="userSpaceOnUse"
        >
            <feFlood flood-opacity="0" result="BackgroundImageFix" />
            <feBlend in="SourceGraphic" in2="BackgroundImageFix" result="shape" />
            <feColorMatrix in="SourceAlpha" result="hardAlpha" values="0 0 0 0 0 0 0 0 0 0 0 0 0 0 0 0 0 0 127 0" />
            <feOffset dy="3" />
            <feGaussianBlur stdDeviation="2" />
            <feComposite in2="hardAlpha" k2="-1" k3="1" operator="arithmetic" />
            <feColorMatrix values="0 0 0 0 1 0 0 0 0 1 0 0 0 0 1 0 0 0 0.25 0" />
            <feBlend in2="shape" result="effect1_innerShadow_15503_3372" />
        </filter>
        <filter
            id="p"
            width="53"
            height="91"
            x="165"
            y="36.5"
            color-interpolation-filters="sRGB"
            filterUnits="userSpaceOnUse"
        >
            <feFlood flood-opacity="0" result="BackgroundImageFix" />
            <feColorMatrix in="SourceAlpha" result="hardAlpha" values="0 0 0 0 0 0 0 0 0 0 0 0 0 0 0 0 0 0 127 0" />
            <feOffset />
            <feGaussianBlur stdDeviation=".5" />
            <feComposite in2="hardAlpha" operator="out" />
            <feColorMatrix values="0 0 0 0 1 0 0 0 0 1 0 0 0 0 1 0 0 0 1 0" />
            <feBlend in2="BackgroundImageFix" result="effect1_dropShadow_15503_3372" />
            <feBlend in="SourceGraphic" in2="effect1_dropShadow_15503_3372" result="shape" />
        </filter>
        <radialGradient
            id="m"
            cx="0"
            cy="0"
            r="1"
            gradientTransform="matrix(-24.5 .49994 -1.1006 -53.93537 192.5 61)"
            gradientUnits="userSpaceOnUse"
        >
            <stop offset=".202" stop-color="#B19EFF" stop-opacity=".5" />
            <stop offset=".8" stop-color="#DED6FF" stop-opacity=".5" />
        </radialGradient>
        <radialGradient
            id="o"
            cx="0"
            cy="0"
            r="1"
            gradientTransform="matrix(-37.5 0 0 -82.5542 192.5 127)"
            gradientUnits="userSpaceOnUse"
        >
            <stop offset=".202" stop-color="#FFAD42" stop-opacity=".25" />
            <stop offset=".8" stop-color="#FFAD42" stop-opacity="0" />
        </radialGradient>
    </defs>
</svg>
