<svg width="36" height="36" viewBox="0 0 36 36" fill="none" xmlns="http://www.w3.org/2000/svg">
    <circle cx="18" cy="18" r="18" fill="#5D4335" />
    <path
        fill-rule="evenodd"
        clip-rule="evenodd"
        d="M24.3458 16.2783C24.6283 14.4291 23.1881 13.4349 21.2189 12.7718L21.8577 10.2667L20.2975 9.88671L19.6756 12.3257C19.266 12.2259 18.8449 12.1316 18.4264 12.0382L19.0528 9.58314L17.494 9.20312L16.8548 11.7073C16.5154 11.6317 16.1822 11.557 15.8588 11.4784L15.8606 11.4706L13.7096 10.9455L13.2947 12.5742C13.2947 12.5742 14.4519 12.8334 14.4275 12.8495C15.0592 13.0037 15.1738 13.4124 15.1542 13.7363L14.4266 16.5901C14.4701 16.601 14.5266 16.6166 14.5887 16.6409L14.4244 16.601L13.404 20.5987C13.3267 20.7863 13.1308 21.0678 12.6892 20.9609C12.7048 20.9831 11.5555 20.6843 11.5555 20.6843L10.7812 22.4302L12.8114 22.9248C13.0406 22.981 13.267 23.0387 13.4909 23.0958C13.6359 23.1328 13.7798 23.1695 13.9228 23.2054L13.2774 25.7395L14.8353 26.1195L15.475 23.6128C15.9001 23.7257 16.3132 23.8299 16.7175 23.9281L16.0805 26.4231L17.6402 26.8031L18.2856 24.2742C20.9452 24.7663 22.9456 24.5678 23.7865 22.2165C24.4649 20.3229 23.7532 19.2307 22.3539 18.518C23.3729 18.2874 24.141 17.632 24.3458 16.2783ZM20.7818 21.1637C20.339 22.9017 17.5559 22.1826 16.2836 21.8538C16.1697 21.8244 16.0679 21.7981 15.981 21.777L16.8374 18.4203C16.9437 18.4462 17.0735 18.4747 17.2205 18.5069C18.5367 18.7957 21.2337 19.3874 20.7818 21.1637ZM17.4851 16.9493C18.5467 17.2262 20.8606 17.8297 21.2637 16.2509C21.6759 14.6358 19.4258 14.149 18.3269 13.9113C18.2033 13.8845 18.0943 13.861 18.0053 13.8393L17.2288 16.8837C17.3023 16.9016 17.3885 16.9241 17.4851 16.9493Z"
        fill="#FF8D52"
    />
</svg>
