<svg xmlns="http://www.w3.org/2000/svg" width="200" height="172" fill="none" viewBox="0 0 200 172">
    <ellipse cx="100" cy="160" fill="url(#a)" fill-opacity=".2" rx="100" ry="12" />
    <path
        fill="url(#b)"
        d="M99 3c44.65 0 81.869 31.808 90.238 74h-3.06C177.854 36.476 141.987 6 99 6 56.013 6 20.146 36.476 11.822 77h-3.06C17.13 34.808 54.35 3 99 3Z"
    />
    <path
        fill="url(#c)"
        d="M99 3c50.81 0 92 41.19 92 92a92.58 92.58 0 0 1-1.219 15H8.218A92.64 92.64 0 0 1 7 95C7 44.19 48.19 3 99 3Z"
    />
    <g filter="url(#d)">
        <path
            fill="url(#e)"
            d="m46 79 50.753-34.473a4 4 0 0 1 4.494 0L152 79l-50.753 34.474a4 4 0 0 1-4.494 0L46 79Z"
        />
    </g>
    <path fill="#FDF9FF" stroke="#000" stroke-opacity=".02" d="M59 63a4 4 0 0 1 4-4h72a4 4 0 0 1 4 4v63H59V63Z" />
    <g clip-path="url(#f)">
        <path fill="#4285F4" d="M86.832 95.16H91.5V83.825l-6.666-5V93.16a2 2 0 0 0 2 2Z" />
        <path fill="#34A853" d="M107.501 95.16h4.667a2 2 0 0 0 2-2V78.825l-6.667 5" />
        <path fill="#FBBC04" d="M107.501 75.171v8.667l6.667-5V76.17c0-2.473-2.824-3.883-4.8-2.4" />
        <path fill="#EA4335" d="M91.501 83.84v-8.666l8 6 8-6v8.666l-8 6" />
        <path fill="#C5221F" d="M84.832 76.174v2.667l6.667 5v-8.667l-1.867-1.4c-1.98-1.483-4.8-.073-4.8 2.4Z" />
    </g>
    <g filter="url(#g)">
        <path
            fill="url(#h)"
            d="m46 79 50.752 34.473a3.999 3.999 0 0 0 4.496 0L152 79v53a6 6 0 0 1-6 6H52a6 6 0 0 1-6-6V79Z"
        />
    </g>
    <rect width="42" height="28" x="150" y="8" fill="url(#i)" rx="8" />
    <path
        fill="#000"
        fill-opacity=".8"
        d="m175.066 26-2.258-8h1.559l1.441 5.879h.074L177.421 18h1.418l1.543 5.883h.071L181.894 18h1.559l-2.258 8h-1.43l-1.601-5.613h-.063L176.496 26h-1.43Zm-8.365 0v-8h5.203v1.215h-3.754v2.172h3.484v1.215h-3.484v2.183h3.785V26h-5.234Zm-1.579-8v8h-1.289l-3.77-5.45h-.066V26h-1.45v-8h1.297l3.766 5.453h.07V18h1.442Z"
    />
    <defs>
        <linearGradient id="b" x1="103.5" x2="103.5" y1="3" y2="42.5" gradientUnits="userSpaceOnUse">
            <stop stop-color="#9372E1" stop-opacity=".2" />
            <stop offset="1" stop-color="#573BCC" stop-opacity="0" />
        </linearGradient>
        <linearGradient id="e" x1="128" x2="90.001" y1="37.001" y2="121" gradientUnits="userSpaceOnUse">
            <stop stop-color="#D783FF" />
            <stop offset="1" stop-color="#6D4AFF" />
        </linearGradient>
        <linearGradient id="h" x1="152" x2="35" y1="67" y2="154" gradientUnits="userSpaceOnUse">
            <stop stop-color="#D783FF" />
            <stop offset="1" stop-color="#6D4AFF" />
        </linearGradient>
        <linearGradient id="i" x1="188.192" x2="167.053" y1="6.362" y2="40.301" gradientUnits="userSpaceOnUse">
            <stop stop-color="#B4FDDA" />
            <stop offset="1" stop-color="#33D0CB" />
        </linearGradient>
        <radialGradient
            id="a"
            cx="0"
            cy="0"
            r="1"
            gradientTransform="matrix(0 8.4 -70 0 100 160)"
            gradientUnits="userSpaceOnUse"
        >
            <stop stop-color="#6633F1" stop-opacity=".8" />
            <stop offset="1" stop-color="#6633F1" stop-opacity="0" />
        </radialGradient>
        <radialGradient
            id="c"
            cx="0"
            cy="0"
            r="1"
            gradientTransform="matrix(0 184 -288.243 0 99 3)"
            gradientUnits="userSpaceOnUse"
        >
            <stop stop-color="#6243E6" stop-opacity=".1" />
            <stop offset=".518" stop-color="#6242E6" stop-opacity="0" />
        </radialGradient>
        <filter
            id="d"
            width="108"
            height="75.329"
            x="44"
            y="40.836"
            color-interpolation-filters="sRGB"
            filterUnits="userSpaceOnUse"
        >
            <feFlood flood-opacity="0" result="BackgroundImageFix" />
            <feBlend in="SourceGraphic" in2="BackgroundImageFix" result="shape" />
            <feColorMatrix in="SourceAlpha" result="hardAlpha" values="0 0 0 0 0 0 0 0 0 0 0 0 0 0 0 0 0 0 127 0" />
            <feOffset dy="-3" />
            <feGaussianBlur stdDeviation="1.5" />
            <feComposite in2="hardAlpha" k2="-1" k3="1" operator="arithmetic" />
            <feColorMatrix values="0 0 0 0 0.427451 0 0 0 0 0.290196 0 0 0 0 1 0 0 0 0.2 0" />
            <feBlend in2="shape" result="effect1_innerShadow_1438_3172" />
            <feColorMatrix in="SourceAlpha" result="hardAlpha" values="0 0 0 0 0 0 0 0 0 0 0 0 0 0 0 0 0 0 127 0" />
            <feOffset dx="-2" dy="2" />
            <feGaussianBlur stdDeviation="1" />
            <feComposite in2="hardAlpha" k2="-1" k3="1" operator="arithmetic" />
            <feColorMatrix values="0 0 0 0 1 0 0 0 0 1 0 0 0 0 1 0 0 0 0.1 0" />
            <feBlend in2="effect1_innerShadow_1438_3172" result="effect2_innerShadow_1438_3172" />
        </filter>
        <filter
            id="g"
            width="108"
            height="63"
            x="44"
            y="77"
            color-interpolation-filters="sRGB"
            filterUnits="userSpaceOnUse"
        >
            <feFlood flood-opacity="0" result="BackgroundImageFix" />
            <feBlend in="SourceGraphic" in2="BackgroundImageFix" result="shape" />
            <feColorMatrix in="SourceAlpha" result="hardAlpha" values="0 0 0 0 0 0 0 0 0 0 0 0 0 0 0 0 0 0 127 0" />
            <feOffset dy="-2" />
            <feGaussianBlur stdDeviation="1.5" />
            <feComposite in2="hardAlpha" k2="-1" k3="1" operator="arithmetic" />
            <feColorMatrix values="0 0 0 0 0.188235 0 0 0 0 0.705882 0 0 0 0 0.619608 0 0 0 0.2 0" />
            <feBlend in2="shape" result="effect1_innerShadow_1438_3172" />
            <feColorMatrix in="SourceAlpha" result="hardAlpha" values="0 0 0 0 0 0 0 0 0 0 0 0 0 0 0 0 0 0 127 0" />
            <feOffset dx="-3" dy="2" />
            <feGaussianBlur stdDeviation="1" />
            <feComposite in2="hardAlpha" k2="-1" k3="1" operator="arithmetic" />
            <feColorMatrix values="0 0 0 0 1 0 0 0 0 1 0 0 0 0 1 0 0 0 0.1 0" />
            <feBlend in2="effect1_innerShadow_1438_3172" result="effect2_innerShadow_1438_3172" />
        </filter>
        <clipPath id="f">
            <path fill="#fff" d="M84.832 73.174h29.333v22H84.832z" />
        </clipPath>
    </defs>
</svg>
