<svg xmlns="http://www.w3.org/2000/svg" width="200" height="172" fill="none" viewBox="0 0 200 172">
    <ellipse cx="100" cy="160" fill="url(#a)" fill-opacity=".2" rx="100" ry="12" />
    <path
        fill="url(#b)"
        d="M99 3c44.65 0 81.869 31.808 90.238 74h-3.06C177.854 36.476 141.987 6 99 6S20.146 36.476 11.822 77h-3.06C17.13 34.808 54.35 3 99 3"
    />
    <g filter="url(#c)" opacity=".8">
        <ellipse cx="164.5" cy="50" fill="#7a7f99" fill-opacity=".2" rx="13.875" ry="1.5" />
    </g>
    <path
        fill="url(#d)"
        d="M150.625 28.625a4.5 4.5 0 0 1 4.5-4.5h18.75a4.5 4.5 0 0 1 4.5 4.5v17.25a4.5 4.5 0 0 1-4.5 4.5h-18.75a4.5 4.5 0 0 1-4.5-4.5z"
    />
    <path stroke="url(#e)" stroke-width="3" d="M172.375 24.125V20.75a7.875 7.875 0 0 0-15.75 0v3.375" />
    <mask id="g" width="7" height="10" x="161.25" y="32.875" fill="#000" maskUnits="userSpaceOnUse">
        <path fill="#fff" d="M161.25 32.875h7v10h-7z" />
        <path
            d="M164.5 33.875a2.25 2.25 0 0 1 .855 4.33l.484 2.661a.75.75 0 0 1-.737.884h-1.204a.75.75 0 0 1-.737-.884l.483-2.66a2.25 2.25 0 0 1 .856-4.331"
        />
    </mask>
    <path
        fill="#492fb7"
        d="M164.5 33.875a2.25 2.25 0 0 1 .855 4.33l.484 2.661a.75.75 0 0 1-.737.884h-1.204a.75.75 0 0 1-.737-.884l.483-2.66a2.25 2.25 0 0 1 .856-4.331"
    />
    <path
        fill="url(#f)"
        d="m165.355 38.205-.285-.693-.561.23.109.597zm.484 2.661.738-.134zm-.737.884v.75zm-1.204 0v.75zm-.737-.884.738.134zm.483-2.66.738.133.108-.596-.561-.231zm.856-4.331v.75a1.5 1.5 0 0 1 1.5 1.5h1.5a3 3 0 0 0-3-3zm2.25 2.25H166c0 .624-.382 1.161-.93 1.387l.285.693.286.694a3 3 0 0 0 1.859-2.774zm-1.395 2.08-.737.134.483 2.661.738-.134.738-.134-.484-2.661zm.484 2.661-.738.134.001.75v.75a1.5 1.5 0 0 0 1.475-1.768zm-.737.884V41h-1.204v1.5h1.204zm-1.204 0 .001-.75-.738-.134-.738-.134a1.5 1.5 0 0 0 1.475 1.768zm-.737-.884.738.134.483-2.661-.738-.134-.738-.134-.483 2.661zm.483-2.66.285-.694a1.5 1.5 0 0 1-.929-1.387h-1.5a3 3 0 0 0 1.858 2.773zm-1.394-2.081h.75a1.5 1.5 0 0 1 1.5-1.5v-1.5a3 3 0 0 0-3 3z"
        mask="url(#g)"
    />
    <path
        fill="url(#h)"
        d="M99 3c50.81 0 92 41.19 92 92a92.6 92.6 0 0 1-1.219 15H8.218A92.6 92.6 0 0 1 7 95C7 44.19 48.19 3 99 3"
    />
    <g clip-path="url(#i)">
        <g filter="url(#j)" opacity=".8">
            <ellipse cx="99" cy="138" fill="#6d4aff" fill-opacity=".5" rx="52" ry="4" />
        </g>
        <g filter="url(#k)">
            <path fill="url(#l)" d="m46 79 50.753-34.474a4 4 0 0 1 4.494 0L152 79l-50.753 34.474a4 4 0 0 1-4.494 0z" />
        </g>
        <path fill="#fdf9ff" stroke="#000" stroke-opacity=".02" d="M59 63a4 4 0 0 1 4-4h72a4 4 0 0 1 4 4v63H59z" />
        <g clip-path="url(#m)">
            <path fill="#4285f4" d="M86.833 95.16h4.666V83.825l-6.666-5V93.16a2 2 0 0 0 2 2" />
            <path fill="#34a853" d="M107.501 95.16h4.667a2 2 0 0 0 2-2V78.825l-6.667 5" />
            <path fill="#fbbc04" d="M107.501 75.172v8.666l6.667-5v-2.666c0-2.474-2.824-3.884-4.8-2.4" />
            <path fill="#ea4335" d="M91.501 83.84v-8.666l8 6 8-6v8.667l-8 6" />
            <path fill="#c5221f" d="M84.833 76.175v2.666l6.666 5v-8.666l-1.867-1.4c-1.98-1.484-4.8-.074-4.8 2.4" />
        </g>
        <g filter="url(#n)">
            <path fill="url(#o)" d="m46 79 50.753 34.473a4 4 0 0 0 4.495 0L152 79v53a6 6 0 0 1-6 6H52a6 6 0 0 1-6-6z" />
        </g>
    </g>
    <defs>
        <linearGradient id="b" x1="103.5" x2="103.5" y1="3" y2="42.5" gradientUnits="userSpaceOnUse">
            <stop stop-color="#9372e1" stop-opacity=".2" />
            <stop offset="1" stop-color="#573bcc" stop-opacity="0" />
        </linearGradient>
        <linearGradient id="e" x1="169.75" x2="155.5" y1="11.75" y2="29" gradientUnits="userSpaceOnUse">
            <stop stop-color="#e2dbff" />
            <stop offset="1" stop-color="#a792ff" />
        </linearGradient>
        <linearGradient id="f" x1="168" x2="157.581" y1="31" y2="39.363" gradientUnits="userSpaceOnUse">
            <stop stop-color="#6141ea" />
            <stop offset="1" stop-color="#a792ff" />
        </linearGradient>
        <linearGradient id="l" x1="128" x2="90.001" y1="37.001" y2="120.999" gradientUnits="userSpaceOnUse">
            <stop stop-color="#d783ff" />
            <stop offset="1" stop-color="#6d4aff" />
        </linearGradient>
        <linearGradient id="o" x1="152" x2="35" y1="67" y2="154" gradientUnits="userSpaceOnUse">
            <stop stop-color="#d783ff" />
            <stop offset="1" stop-color="#6d4aff" />
        </linearGradient>
        <filter
            id="c"
            width="36.75"
            height="12"
            x="146.125"
            y="44"
            color-interpolation-filters="sRGB"
            filterUnits="userSpaceOnUse"
        >
            <feFlood flood-opacity="0" result="BackgroundImageFix" />
            <feBlend in="SourceGraphic" in2="BackgroundImageFix" result="shape" />
            <feGaussianBlur result="effect1_foregroundBlur_59650_51830" stdDeviation="2.25" />
        </filter>
        <filter
            id="j"
            width="128"
            height="32"
            x="35"
            y="122"
            color-interpolation-filters="sRGB"
            filterUnits="userSpaceOnUse"
        >
            <feFlood flood-opacity="0" result="BackgroundImageFix" />
            <feBlend in="SourceGraphic" in2="BackgroundImageFix" result="shape" />
            <feGaussianBlur result="effect1_foregroundBlur_59650_51830" stdDeviation="6" />
        </filter>
        <filter
            id="k"
            width="108"
            height="75.328"
            x="44"
            y="40.836"
            color-interpolation-filters="sRGB"
            filterUnits="userSpaceOnUse"
        >
            <feFlood flood-opacity="0" result="BackgroundImageFix" />
            <feBlend in="SourceGraphic" in2="BackgroundImageFix" result="shape" />
            <feColorMatrix in="SourceAlpha" result="hardAlpha" values="0 0 0 0 0 0 0 0 0 0 0 0 0 0 0 0 0 0 127 0" />
            <feOffset dy="-3" />
            <feGaussianBlur stdDeviation="1.5" />
            <feComposite in2="hardAlpha" k2="-1" k3="1" operator="arithmetic" />
            <feColorMatrix values="0 0 0 0 0.427451 0 0 0 0 0.290196 0 0 0 0 1 0 0 0 0.2 0" />
            <feBlend in2="shape" result="effect1_innerShadow_59650_51830" />
            <feColorMatrix in="SourceAlpha" result="hardAlpha" values="0 0 0 0 0 0 0 0 0 0 0 0 0 0 0 0 0 0 127 0" />
            <feOffset dx="-2" dy="2" />
            <feGaussianBlur stdDeviation="1" />
            <feComposite in2="hardAlpha" k2="-1" k3="1" operator="arithmetic" />
            <feColorMatrix values="0 0 0 0 1 0 0 0 0 1 0 0 0 0 1 0 0 0 0.1 0" />
            <feBlend in2="effect1_innerShadow_59650_51830" result="effect2_innerShadow_59650_51830" />
        </filter>
        <filter
            id="n"
            width="108"
            height="63"
            x="44"
            y="77"
            color-interpolation-filters="sRGB"
            filterUnits="userSpaceOnUse"
        >
            <feFlood flood-opacity="0" result="BackgroundImageFix" />
            <feBlend in="SourceGraphic" in2="BackgroundImageFix" result="shape" />
            <feColorMatrix in="SourceAlpha" result="hardAlpha" values="0 0 0 0 0 0 0 0 0 0 0 0 0 0 0 0 0 0 127 0" />
            <feOffset dy="-2" />
            <feGaussianBlur stdDeviation="1.5" />
            <feComposite in2="hardAlpha" k2="-1" k3="1" operator="arithmetic" />
            <feColorMatrix values="0 0 0 0 0.188235 0 0 0 0 0.705882 0 0 0 0 0.619608 0 0 0 0.2 0" />
            <feBlend in2="shape" result="effect1_innerShadow_59650_51830" />
            <feColorMatrix in="SourceAlpha" result="hardAlpha" values="0 0 0 0 0 0 0 0 0 0 0 0 0 0 0 0 0 0 127 0" />
            <feOffset dx="-3" dy="2" />
            <feGaussianBlur stdDeviation="1" />
            <feComposite in2="hardAlpha" k2="-1" k3="1" operator="arithmetic" />
            <feColorMatrix values="0 0 0 0 1 0 0 0 0 1 0 0 0 0 1 0 0 0 0.1 0" />
            <feBlend in2="effect1_innerShadow_59650_51830" result="effect2_innerShadow_59650_51830" />
        </filter>
        <radialGradient
            id="a"
            cx="0"
            cy="0"
            r="1"
            gradientTransform="matrix(0 8.4 -70 0 100 160)"
            gradientUnits="userSpaceOnUse"
        >
            <stop stop-color="#6633f1" stop-opacity=".8" />
            <stop offset="1" stop-color="#6633f1" stop-opacity="0" />
        </radialGradient>
        <radialGradient
            id="d"
            cx="0"
            cy="0"
            r="1"
            gradientTransform="rotate(136.591 84.386 47.563)scale(38.1985 40.3813)"
            gradientUnits="userSpaceOnUse"
        >
            <stop stop-color="#a792ff" />
            <stop offset="1" stop-color="#573bcc" />
        </radialGradient>
        <radialGradient
            id="h"
            cx="0"
            cy="0"
            r="1"
            gradientTransform="matrix(0 184 -288.243 0 99 3)"
            gradientUnits="userSpaceOnUse"
        >
            <stop stop-color="#6243e6" stop-opacity=".1" />
            <stop offset=".518" stop-color="#6242e6" stop-opacity="0" />
        </radialGradient>
        <clipPath id="i"><path fill="#fff" d="M44 42h112v112H44z" /></clipPath>
        <clipPath id="m"><path fill="#fff" d="M84.832 73.174h29.333v22H84.832z" /></clipPath>
    </defs>
</svg>
