<svg width="328" height="164" viewBox="0 0 328 164" fill="none" xmlns="http://www.w3.org/2000/svg">
    <g clip-path="url(#clip0_31543_378918)">
        <rect width="328" height="164" rx="12" fill="url(#paint0_linear_31543_378918)" fill-opacity="0.09" />
        <g filter="url(#filter0_ddd_31543_378918)">
            <path
                d="M133.036 138H194.613C201.996 138 207.977 132.088 207.977 124.79L208 110.266H120V124.789C120 132.088 125.653 138 133.036 138Z"
                fill="url(#paint1_linear_31543_378918)"
            />
            <g filter="url(#filter1_i_31543_378918)">
                <path
                    d="M133.767 129H195C202.368 129 208 122.849 208 115.359V68H120V115.375C120 122.865 126.399 129 133.767 129Z"
                    fill="url(#paint2_linear_31543_378918)"
                />
            </g>
            <path
                d="M169.062 78.2646V107.379H162.631V85.3346C162.277 85.6391 161.855 85.9304 161.365 86.2084C160.889 86.4732 160.378 86.7181 159.834 86.9432C159.289 87.155 158.725 87.3404 158.139 87.4993C157.554 87.6449 156.976 87.7508 156.404 87.817V82.5344C158.078 82.0578 159.657 81.4487 161.141 80.7073C162.624 79.9659 163.965 79.1517 165.163 78.2646H169.062Z"
                fill="#1B1340"
            />
            <path
                d="M120 68H208V58.9061C208 51.7758 202.02 46 194.637 46H133.363C125.98 46 120 51.7758 120 58.9061V68Z"
                fill="url(#paint3_linear_31543_378918)"
            />
            <path
                d="M192.978 55C194.667 55 196 53.7561 196 52.222V40.778C196 39.2439 194.667 38 192.978 38C191.333 38 190 39.2439 190 40.778V52.1805C190 53.7561 191.333 55 192.978 55Z"
                fill="#E9E4DB"
            />
            <path
                d="M135 55C136.657 55 138 53.7561 138 52.222V40.778C138 39.2439 136.657 38 135 38C133.343 38 132 39.2439 132 40.778V52.1805C132 53.7561 133.343 55 135 55Z"
                fill="#E9E4DB"
            />
            <path
                d="M208 115.155C208 123.462 202 129 194.847 129H175L208 96V115.155Z"
                fill="url(#paint4_linear_31543_378918)"
            />
            <path d="M175 109.5C175 101.79 181.016 96 188.725 96H208L175 129V109.5Z" fill="white" />
        </g>
        <path
            opacity="0.3"
            d="M228 58C230.209 58 232 56.2091 232 54C232 51.7909 230.209 50 228 50C225.791 50 224 51.7909 224 54C224 56.2091 225.791 58 228 58Z"
            fill="#6D4AFF"
        />
        <path
            opacity="0.3"
            d="M103.787 113.318L97.7875 111.102L95.0261 110.079L94.0034 107.318L91.7875 101.318L89.5716 107.318L88.5488 110.079L85.7875 111.102L79.7875 113.318L85.7875 115.533L88.5488 116.556L89.5716 119.318L91.7875 125.318L94.0034 119.318L95.0261 116.556L97.7875 115.533L103.787 113.318Z"
            fill="#6D4AFF"
        />
        <path
            d="M224 94C224 80.7452 234.745 70 248 70C261.255 70 272 80.7452 272 94C272 107.255 261.255 118 248 118H224V94Z"
            fill="url(#paint5_linear_31543_378918)"
        />
        <path
            d="M246.23 90.4597C248.566 90.4597 250.46 88.5659 250.46 86.2299C250.46 83.8938 248.566 82 246.23 82C243.894 82 242 83.8938 242 86.2299C242 88.5659 243.894 90.4597 246.23 90.4597Z"
            fill="white"
        />
        <path
            d="M237.428 97.869C236.159 100.124 237.876 103 240.414 103H248C248 103 248 103 248 103C248 99.3679 250.42 96.3011 253.736 95.3247C251.844 93.3246 249.26 92 246.449 92C242.568 92 239.145 94.6039 237.428 97.869Z"
            fill="white"
        />
        <path
            d="M257 99C257 98.4477 256.552 98 256 98C255.448 98 255 98.4477 255 99V102H252C251.448 102 251 102.448 251 103C251 103.552 251.448 104 252 104H255V107C255 107.552 255.448 108 256 108C256.552 108 257 107.552 257 107V104H260C260.552 104 261 103.552 261 103C261 102.448 260.552 102 260 102H257V99Z"
            fill="white"
        />
        <path
            d="M56 50C56 36.7452 66.7452 26 80 26C93.2548 26 104 36.7452 104 50V74H80C66.7452 74 56 63.2548 56 50Z"
            fill="url(#paint6_linear_31543_378918)"
        />
        <path
            d="M79.2298 47.4597C81.5659 47.4597 83.4597 45.5659 83.4597 43.2299C83.4597 40.8938 81.5659 39 79.2298 39C76.8938 39 75 40.8938 75 43.2299C75 45.5659 76.8938 47.4597 79.2298 47.4597Z"
            fill="white"
        />
        <path
            d="M70.4281 54.869C69.1591 57.1236 70.876 60 73.414 60H81C81 60 81 60 81 60C81 56.3679 83.4205 53.3011 86.7364 52.3247C84.8443 50.3246 82.2602 49 79.4494 49C75.5678 49 72.145 51.6039 70.4281 54.869Z"
            fill="white"
        />
        <path
            d="M90 56C90 55.4477 89.5523 55 89 55C88.4477 55 88 55.4477 88 56V59H85C84.4477 59 84 59.4477 84 60C84 60.5523 84.4477 61 85 61H88V64C88 64.5523 88.4477 65 89 65C89.5523 65 90 64.5523 90 64V61H93C93.5523 61 94 60.5523 94 60C94 59.4477 93.5523 59 93 59H90V56Z"
            fill="white"
        />
    </g>
    <defs>
        <filter
            id="filter0_ddd_31543_378918"
            x="25.5954"
            y="-28.1529"
            width="276.809"
            height="288.809"
            filterUnits="userSpaceOnUse"
            color-interpolation-filters="sRGB"
        >
            <feFlood flood-opacity="0" result="BackgroundImageFix" />
            <feColorMatrix
                in="SourceAlpha"
                type="matrix"
                values="0 0 0 0 0 0 0 0 0 0 0 0 0 0 0 0 0 0 127 0"
                result="hardAlpha"
            />
            <feOffset dy="2.30199" />
            <feGaussianBlur stdDeviation="3.84611" />
            <feColorMatrix
                type="matrix"
                values="0 0 0 0 0.290196 0 0 0 0 0.176471 0 0 0 0 0.772549 0 0 0 0.0431852 0"
            />
            <feBlend mode="normal" in2="BackgroundImageFix" result="effect1_dropShadow_31543_378918" />
            <feColorMatrix
                in="SourceAlpha"
                type="matrix"
                values="0 0 0 0 0 0 0 0 0 0 0 0 0 0 0 0 0 0 127 0"
                result="hardAlpha"
            />
            <feOffset dy="10.8822" />
            <feGaussianBlur stdDeviation="15.0348" />
            <feColorMatrix
                type="matrix"
                values="0 0 0 0 0.290196 0 0 0 0 0.176471 0 0 0 0 0.772549 0 0 0 0.0668148 0"
            />
            <feBlend mode="normal" in2="effect1_dropShadow_31543_378918" result="effect2_dropShadow_31543_378918" />
            <feColorMatrix
                in="SourceAlpha"
                type="matrix"
                values="0 0 0 0 0 0 0 0 0 0 0 0 0 0 0 0 0 0 127 0"
                result="hardAlpha"
            />
            <feOffset dy="28.2518" />
            <feGaussianBlur stdDeviation="47.2023" />
            <feColorMatrix type="matrix" values="0 0 0 0 0.290196 0 0 0 0 0.176471 0 0 0 0 0.772549 0 0 0 0.11 0" />
            <feBlend mode="normal" in2="effect2_dropShadow_31543_378918" result="effect3_dropShadow_31543_378918" />
            <feBlend mode="normal" in="SourceGraphic" in2="effect3_dropShadow_31543_378918" result="shape" />
        </filter>
        <filter
            id="filter1_i_31543_378918"
            x="120"
            y="65.4873"
            width="88"
            height="63.5127"
            filterUnits="userSpaceOnUse"
            color-interpolation-filters="sRGB"
        >
            <feFlood flood-opacity="0" result="BackgroundImageFix" />
            <feBlend mode="normal" in="SourceGraphic" in2="BackgroundImageFix" result="shape" />
            <feColorMatrix
                in="SourceAlpha"
                type="matrix"
                values="0 0 0 0 0 0 0 0 0 0 0 0 0 0 0 0 0 0 127 0"
                result="hardAlpha"
            />
            <feOffset dy="-2.51268" />
            <feGaussianBlur stdDeviation="3.35024" />
            <feComposite in2="hardAlpha" operator="arithmetic" k2="-1" k3="1" />
            <feColorMatrix type="matrix" values="0 0 0 0 1 0 0 0 0 0.986667 0 0 0 0 0.96 0 0 0 1 0" />
            <feBlend mode="normal" in2="shape" result="effect1_innerShadow_31543_378918" />
        </filter>
        <linearGradient
            id="paint0_linear_31543_378918"
            x1="-12.9074"
            y1="-5.9854"
            x2="299.229"
            y2="219.118"
            gradientUnits="userSpaceOnUse"
        >
            <stop stop-color="#ECAAFF" />
            <stop offset="1" stop-color="#6A48F6" />
        </linearGradient>
        <linearGradient
            id="paint1_linear_31543_378918"
            x1="147.872"
            y1="83.3825"
            x2="207.699"
            y2="136.483"
            gradientUnits="userSpaceOnUse"
        >
            <stop stop-color="#FAF5EB" />
            <stop offset="1" stop-color="#7D7A73" />
        </linearGradient>
        <linearGradient
            id="paint2_linear_31543_378918"
            x1="163.962"
            y1="57.1276"
            x2="194.684"
            y2="135.897"
            gradientUnits="userSpaceOnUse"
        >
            <stop stop-color="white" />
            <stop offset="1" stop-color="#F2ECDF" />
        </linearGradient>
        <linearGradient
            id="paint3_linear_31543_378918"
            x1="189.385"
            y1="6.39402"
            x2="131.277"
            y2="106.394"
            gradientUnits="userSpaceOnUse"
        >
            <stop stop-color="#EEBEFF" />
            <stop offset="1" stop-color="#6D4AFF" />
        </linearGradient>
        <linearGradient
            id="paint4_linear_31543_378918"
            x1="188.895"
            y1="109.15"
            x2="196.421"
            y2="145.195"
            gradientUnits="userSpaceOnUse"
        >
            <stop stop-color="#DBD7CE" />
            <stop offset="1" stop-color="#DED9D1" stop-opacity="0" />
        </linearGradient>
        <linearGradient
            id="paint5_linear_31543_378918"
            x1="272"
            y1="53"
            x2="224"
            y2="118"
            gradientUnits="userSpaceOnUse"
        >
            <stop stop-color="#2AF091" />
            <stop offset="1" stop-color="#00C5A1" />
        </linearGradient>
        <linearGradient
            id="paint6_linear_31543_378918"
            x1="100.308"
            y1="11.6923"
            x2="84.1538"
            y2="69.3846"
            gradientUnits="userSpaceOnUse"
        >
            <stop stop-color="#4CFED3" />
            <stop offset="1" stop-color="#00C1FE" />
        </linearGradient>
        <clipPath id="clip0_31543_378918">
            <rect width="328" height="164" rx="12" fill="white" />
        </clipPath>
    </defs>
</svg>
