<svg xmlns="http://www.w3.org/2000/svg" width="344" height="230" fill="none" viewBox="0 0 344 230">
    <g clip-path="url(#a)">
        <rect width="344" height="230" fill="url(#b)" rx="12" />
        <g filter="url(#c)">
            <path fill="url(#d)" fill-opacity=".6" d="M114 86h116v92a6 6 0 0 1-6 6H120a6 6 0 0 1-6-6V86Z" />
        </g>
        <g filter="url(#e)">
            <rect width="66" height="8" x="127" y="153" fill="#6D4AFF" fill-opacity=".2" rx="3" />
        </g>
        <g filter="url(#f)">
            <rect width="60" height="8" x="127" y="137" fill="#6D4AFF" fill-opacity=".2" rx="3" />
        </g>
        <g filter="url(#g)">
            <rect width="49" height="8" x="127" y="121" fill="#6D4AFF" fill-opacity=".2" rx="3" />
        </g>
        <g filter="url(#h)">
            <rect width="70" height="8" x="127" y="105" fill="#6D4AFF" fill-opacity=".2" rx="3" />
        </g>
        <path fill="url(#i)" fill-opacity=".3" d="M0 94h344v136H0z" />
        <path
            fill="#fff"
            fill-rule="evenodd"
            d="M306.4 192h-.4a6 6 0 1 1 12 0h-11.6Zm-2.4.038V192a8 8 0 0 1 16 0v.038c.784.048 1.341.156 1.816.398a3.991 3.991 0 0 1 1.748 1.748c.436.856.436 1.976.436 4.216v7.2c0 2.24 0 3.36-.436 4.216a3.991 3.991 0 0 1-1.748 1.748c-.856.436-1.976.436-4.216.436h-11.2c-2.24 0-3.36 0-4.216-.436a3.991 3.991 0 0 1-1.748-1.748C300 208.96 300 207.84 300 205.6v-7.2c0-2.24 0-3.36.436-4.216a3.991 3.991 0 0 1 1.748-1.748c.475-.242 1.032-.35 1.816-.398Zm8.941 9.727a2 2 0 1 0-1.882 0l-.873 3.489a.6.6 0 0 0 .582.746h2.464a.6.6 0 0 0 .582-.746l-.873-3.489Z"
            clip-rule="evenodd"
        />
        <g filter="url(#j)">
            <path fill="url(#k)" d="M187.087 37H120a6 6 0 0 0-6 6v51h116V79.913L199 67.5 187.087 37Z" />
        </g>
        <path fill="url(#l)" d="m187 37 43 43-36.392-.001a6.403 6.403 0 0 1-6.408-6.398L187 37Z" />
    </g>
    <defs>
        <filter
            id="c"
            width="399.214"
            height="381.214"
            x="-27.607"
            y="-13.229"
            color-interpolation-filters="sRGB"
            filterUnits="userSpaceOnUse"
        >
            <feFlood flood-opacity="0" result="BackgroundImageFix" />
            <feColorMatrix in="SourceAlpha" result="hardAlpha" values="0 0 0 0 0 0 0 0 0 0 0 0 0 0 0 0 0 0 127 0" />
            <feOffset dy="3.453" />
            <feGaussianBlur stdDeviation="5.769" />
            <feColorMatrix values="0 0 0 0 0.290196 0 0 0 0 0.176471 0 0 0 0 0.772549 0 0 0 0.0431852 0" />
            <feBlend in2="BackgroundImageFix" result="effect1_dropShadow_3313_58418" />
            <feColorMatrix in="SourceAlpha" result="hardAlpha" values="0 0 0 0 0 0 0 0 0 0 0 0 0 0 0 0 0 0 127 0" />
            <feOffset dy="16.323" />
            <feGaussianBlur stdDeviation="22.552" />
            <feColorMatrix values="0 0 0 0 0.290196 0 0 0 0 0.176471 0 0 0 0 0.772549 0 0 0 0.0668148 0" />
            <feBlend in2="effect1_dropShadow_3313_58418" result="effect2_dropShadow_3313_58418" />
            <feColorMatrix in="SourceAlpha" result="hardAlpha" values="0 0 0 0 0 0 0 0 0 0 0 0 0 0 0 0 0 0 127 0" />
            <feOffset dy="42.378" />
            <feGaussianBlur stdDeviation="70.803" />
            <feColorMatrix values="0 0 0 0 0.290196 0 0 0 0 0.176471 0 0 0 0 0.772549 0 0 0 0.11 0" />
            <feBlend in2="effect2_dropShadow_3313_58418" result="effect3_dropShadow_3313_58418" />
            <feBlend in="SourceGraphic" in2="effect3_dropShadow_3313_58418" result="shape" />
            <feGaussianBlur result="effect4_foregroundBlur_3313_58418" stdDeviation="2" />
        </filter>
        <filter
            id="e"
            width="74"
            height="16"
            x="123"
            y="149"
            color-interpolation-filters="sRGB"
            filterUnits="userSpaceOnUse"
        >
            <feFlood flood-opacity="0" result="BackgroundImageFix" />
            <feBlend in="SourceGraphic" in2="BackgroundImageFix" result="shape" />
            <feGaussianBlur result="effect1_foregroundBlur_3313_58418" stdDeviation="2" />
        </filter>
        <filter
            id="f"
            width="68"
            height="16"
            x="123"
            y="133"
            color-interpolation-filters="sRGB"
            filterUnits="userSpaceOnUse"
        >
            <feFlood flood-opacity="0" result="BackgroundImageFix" />
            <feBlend in="SourceGraphic" in2="BackgroundImageFix" result="shape" />
            <feGaussianBlur result="effect1_foregroundBlur_3313_58418" stdDeviation="2" />
        </filter>
        <filter
            id="g"
            width="57"
            height="16"
            x="123"
            y="117"
            color-interpolation-filters="sRGB"
            filterUnits="userSpaceOnUse"
        >
            <feFlood flood-opacity="0" result="BackgroundImageFix" />
            <feBlend in="SourceGraphic" in2="BackgroundImageFix" result="shape" />
            <feGaussianBlur result="effect1_foregroundBlur_3313_58418" stdDeviation="2" />
        </filter>
        <filter
            id="h"
            width="78"
            height="16"
            x="123"
            y="101"
            color-interpolation-filters="sRGB"
            filterUnits="userSpaceOnUse"
        >
            <feFlood flood-opacity="0" result="BackgroundImageFix" />
            <feBlend in="SourceGraphic" in2="BackgroundImageFix" result="shape" />
            <feGaussianBlur result="effect1_foregroundBlur_3313_58418" stdDeviation="2" />
        </filter>
        <filter
            id="j"
            width="399.214"
            height="340.214"
            x="-27.607"
            y="-62.229"
            color-interpolation-filters="sRGB"
            filterUnits="userSpaceOnUse"
        >
            <feFlood flood-opacity="0" result="BackgroundImageFix" />
            <feColorMatrix in="SourceAlpha" result="hardAlpha" values="0 0 0 0 0 0 0 0 0 0 0 0 0 0 0 0 0 0 127 0" />
            <feOffset dy="3.453" />
            <feGaussianBlur stdDeviation="5.769" />
            <feColorMatrix values="0 0 0 0 0.290196 0 0 0 0 0.176471 0 0 0 0 0.772549 0 0 0 0.0431852 0" />
            <feBlend in2="BackgroundImageFix" result="effect1_dropShadow_3313_58418" />
            <feColorMatrix in="SourceAlpha" result="hardAlpha" values="0 0 0 0 0 0 0 0 0 0 0 0 0 0 0 0 0 0 127 0" />
            <feOffset dy="16.323" />
            <feGaussianBlur stdDeviation="22.552" />
            <feColorMatrix values="0 0 0 0 0.290196 0 0 0 0 0.176471 0 0 0 0 0.772549 0 0 0 0.0668148 0" />
            <feBlend in2="effect1_dropShadow_3313_58418" result="effect2_dropShadow_3313_58418" />
            <feColorMatrix in="SourceAlpha" result="hardAlpha" values="0 0 0 0 0 0 0 0 0 0 0 0 0 0 0 0 0 0 127 0" />
            <feOffset dy="42.378" />
            <feGaussianBlur stdDeviation="70.803" />
            <feColorMatrix values="0 0 0 0 0.290196 0 0 0 0 0.176471 0 0 0 0 0.772549 0 0 0 0.11 0" />
            <feBlend in2="effect2_dropShadow_3313_58418" result="effect3_dropShadow_3313_58418" />
            <feBlend in="SourceGraphic" in2="effect3_dropShadow_3313_58418" result="shape" />
        </filter>
        <linearGradient id="b" x1="0" x2="376.749" y1="230" y2="144.782" gradientUnits="userSpaceOnUse">
            <stop stop-color="#EAE4FF" />
            <stop offset="1" stop-color="#F7F5FF" />
        </linearGradient>
        <linearGradient id="d" x1="172" x2="172" y1="80" y2="184" gradientUnits="userSpaceOnUse">
            <stop stop-color="#fff" />
            <stop offset="1" stop-color="#fff" />
        </linearGradient>
        <linearGradient id="i" x1="0" x2="353.478" y1="230" y2="63.552" gradientUnits="userSpaceOnUse">
            <stop stop-color="#6D4AFF" />
            <stop offset="1" stop-color="#DED7FF" />
        </linearGradient>
        <linearGradient id="k" x1="172" x2="172" y1="37" y2="94" gradientUnits="userSpaceOnUse">
            <stop stop-color="#fff" />
            <stop offset="1" stop-color="#fff" />
        </linearGradient>
        <linearGradient id="l" x1="208.5" x2="187" y1="37" y2="100" gradientUnits="userSpaceOnUse">
            <stop stop-color="#EEBEFF" />
            <stop offset="1" stop-color="#6D4AFF" />
        </linearGradient>
        <clipPath id="a">
            <rect width="344" height="230" fill="#fff" rx="12" />
        </clipPath>
    </defs>
</svg>
