<svg xmlns="http://www.w3.org/2000/svg" width="88" height="48" fill="none" viewBox="0 0 88 48">
    <path
        fill="#fff"
        d="M0 19C0 13.477 4.477 9 10 9h16c5.523 0 10 4.477 10 10v16c0 5.523-4.477 10-10 10H10C4.477 45 0 40.523 0 35V19Z"
    />
    <mask id="a" width="19" height="18" x="9" y="18" maskUnits="userSpaceOnUse" style="mask-type: alpha">
        <path fill="#D9D9D9" d="M9 18h16v9c0 6.75 2.5 9 2.5 9H9V18Z" />
    </mask>
    <g mask="url(#a)">
        <path
            fill="#0274B3"
            d="M25.67 18H10.33A1.316 1.316 0 0 0 9 19.3v15.4a1.315 1.315 0 0 0 1.33 1.3h15.34A1.316 1.316 0 0 0 27 34.7V19.3a1.316 1.316 0 0 0-1.33-1.3Z"
        />
        <path
            fill="#fff"
            d="M11.67 24.75h2.67v8.59h-2.67v-8.59Zm1.34-4.25a1.55 1.55 0 1 1 0 3.1 1.55 1.55 0 0 1 0-3.1Zm3.01 4.25h2.56v1.174h.035a2.805 2.805 0 0 1 2.525-1.385c2.704 0 3.2 1.78 3.2 4.09v4.71h-2.67v-4.18c0-1 0-2.28-1.39-2.28s-1.6 1.085-1.6 2.205v4.25h-2.66v-8.585Z"
        />
    </g>
    <g clip-path="url(#b)">
        <rect width="36" height="36" x="26" y="3" fill="#fff" rx="10" />
        <path
            fill="#333"
            fill-rule="evenodd"
            d="M45.24 20.918c0 .86.021 1.576-.416 2.341-.355.623-.918 1.004-1.544 1.004-.855 0-1.356-.646-1.356-1.6 0-1.88 1.704-2.22 3.316-2.22v.475Zm2.248 5.38a.464.464 0 0 1-.527.052c-.74-.609-.872-.89-1.278-1.47-1.223 1.232-2.09 1.603-3.675 1.603-1.879 0-3.337-1.147-3.337-3.44 0-1.789.98-3.006 2.376-3.604 1.21-.525 2.901-.62 4.194-.763v-.288c0-.524.041-1.146-.27-1.6-.272-.407-.793-.572-1.252-.572-.85 0-1.607.43-1.793 1.323-.039.199-.185.395-.387.406l-2.16-.232c-.184-.04-.387-.184-.334-.46.496-2.595 2.863-3.378 4.986-3.378 1.085 0 2.503.287 3.357 1.099 1.085 1.002.98 2.339.98 3.796v3.436c0 1.035.435 1.488.842 2.044.143.2.175.44-.007.587a98.846 98.846 0 0 0-1.71 1.466l-.005-.006Z"
            clip-rule="evenodd"
        />
        <path
            fill="#FF9201"
            fill-rule="evenodd"
            d="M51.876 28c-2.135 1.575-5.23 2.413-7.896 2.413-3.734 0-7.098-1.38-9.644-3.679-.2-.18-.021-.427.219-.287 2.746 1.599 6.142 2.56 9.65 2.56 2.367 0 4.967-.49 7.36-1.506.362-.152.664.238.31.499Z"
            clip-rule="evenodd"
        />
        <path
            fill="#FF9201"
            fill-rule="evenodd"
            d="M52.764 26.986c-.273-.35-1.805-.166-2.493-.083-.209.024-.24-.157-.053-.29 1.222-.858 3.224-.61 3.457-.323.235.29-.061 2.298-1.206 3.255-.177.148-.344.07-.266-.125.257-.644.834-2.085.56-2.434Z"
            clip-rule="evenodd"
        />
    </g>
    <rect width="36" height="36" x="52" y="9" fill="#fff" rx="10" />
    <g clip-path="url(#c)">
        <path
            fill="#001C64"
            d="M68.432 21.6a.507.507 0 0 0-.332.124.521.521 0 0 0-.173.313l-.839 5.4-.77 4.962v.005-.005l.771-4.962a.513.513 0 0 1 .504-.437h2.458c2.473 0 4.572-1.832 4.955-4.314.03-.19.045-.376.048-.56a4.604 4.604 0 0 0-2.175-.526h-4.447Z"
        />
        <path
            fill="#0070E0"
            d="M75.054 22.127a4.16 4.16 0 0 1-.049.56C74.623 25.169 72.523 27 70.05 27h-2.457a.513.513 0 0 0-.505.438l-.77 4.962-.484 3.113a.428.428 0 0 0 .095.34.414.414 0 0 0 .315.147h2.667c.122 0 .24-.044.332-.125a.52.52 0 0 0 .173-.313l.703-4.524a.514.514 0 0 1 .504-.438h1.57c2.474 0 4.573-1.832 4.956-4.314.272-1.762-.601-3.365-2.095-4.16Z"
        />
        <path
            fill="#003087"
            d="M65.402 18a.506.506 0 0 0-.332.124.52.52 0 0 0-.173.314l-2.093 13.475a.429.429 0 0 0 .094.34.417.417 0 0 0 .316.147h3.104l.77-4.962.84-5.4a.52.52 0 0 1 .172-.313.507.507 0 0 1 .332-.125h4.447a4.61 4.61 0 0 1 2.175.526c.043-2.26-1.794-4.126-4.32-4.126h-5.332Z"
        />
    </g>
    <defs>
        <clipPath id="b">
            <path fill="#fff" d="M0 0h36v36H0z" transform="translate(26 3)" />
        </clipPath>
        <clipPath id="c">
            <path fill="#fff" d="M0 0h14.4v18H0z" transform="translate(62.8 18)" />
        </clipPath>
    </defs>
</svg>
