<svg xmlns="http://www.w3.org/2000/svg" width="28" height="24" fill="none" viewBox="0 0 28 24">
    <rect width="16" height="16" y="4" fill="#fff" rx="4" />
    <g clip-path="url(#a)">
        <path
            fill="#0274B3"
            d="M10.409 8H3.59a.584.584 0 0 0-.59.578v6.844a.584.584 0 0 0 .591.578h6.818a.586.586 0 0 0 .591-.578V8.578A.585.585 0 0 0 10.409 8Z"
        />
        <path
            fill="#fff"
            d="M4.187 11h1.186v3.818H4.187V11Zm.595-1.889a.689.689 0 1 1 0 1.378.689.689 0 0 1 0-1.378ZM6.12 11h1.138v.523h.015a1.246 1.246 0 0 1 1.123-.616c1.202 0 1.422.791 1.422 1.818v2.093H8.63V12.96c0-.444 0-1.013-.618-1.013-.617 0-.71.482-.71.98v1.889H6.12V11Z"
        />
    </g>
    <rect width="20" height="20" x="8" y="2" fill="#fff" rx="6" />
    <g clip-path="url(#b)">
        <path
            fill="#333"
            fill-rule="evenodd"
            d="M18.802 11.601c0 .564.014 1.034-.27 1.536-.228.408-.593.658-.997.658-.552 0-.876-.424-.876-1.05 0-1.232 1.102-1.456 2.143-1.456v.312Zm1.452 3.529a.296.296 0 0 1-.34.034c-.478-.4-.564-.583-.826-.965-.79.81-1.35 1.052-2.375 1.052-1.213 0-2.156-.752-2.156-2.256 0-1.174.633-1.972 1.536-2.365.782-.344 1.874-.407 2.71-.5v-.19c0-.343.026-.751-.175-1.048-.176-.267-.513-.376-.809-.376-.55 0-1.038.282-1.158.868-.026.13-.12.26-.25.266l-1.397-.152c-.118-.026-.25-.12-.215-.302.32-1.702 1.85-2.216 3.221-2.216.701 0 1.618.188 2.17.721.7.658.633 1.535.633 2.49v2.255c0 .679.281.976.544 1.34.092.132.113.29-.005.386a63.94 63.94 0 0 0-1.104.961l-.004-.003Z"
            clip-rule="evenodd"
        />
        <path
            fill="#FF9201"
            fill-rule="evenodd"
            d="M23.089 16.247c-1.38 1.033-3.38 1.583-5.102 1.583a9.155 9.155 0 0 1-6.231-2.413c-.13-.119-.014-.28.141-.189 1.775 1.049 3.97 1.68 6.236 1.68 1.529 0 3.21-.322 4.756-.988.233-.1.428.156.2.327Z"
            clip-rule="evenodd"
        />
        <path
            fill="#FF9201"
            fill-rule="evenodd"
            d="M23.663 15.582c-.176-.23-1.166-.109-1.61-.054-.136.015-.156-.104-.035-.19.79-.564 2.084-.4 2.234-.213.152.191-.04 1.508-.78 2.136-.114.097-.222.046-.172-.082.167-.423.54-1.368.363-1.597Z"
            clip-rule="evenodd"
        />
    </g>
    <defs>
        <clipPath id="a">
            <path fill="#fff" d="M0 0h5v8H0z" transform="translate(3 8)" />
        </clipPath>
        <clipPath id="b">
            <path fill="#fff" d="M0 0h12v15H0z" transform="translate(12 5)" />
        </clipPath>
    </defs>
</svg>
