<svg xmlns="http://www.w3.org/2000/svg" width="88" height="48" fill="none" viewBox="0 0 88 48">
    <rect width="36" height="36" x="6" y="6" fill="#fff" rx="8" />
    <path fill="#EA4335" d="m23.339 23.54-9.256 9.696a2.526 2.526 0 0 0 3.676 1.49l10.415-5.931-4.835-5.256Z" />
    <path
        fill="#FBBC04"
        d="m32.698 21.89-4.504-2.58-5.069 4.45 5.09 5.02 4.47-2.552a2.44 2.44 0 0 0 1.034-3.303 2.5 2.5 0 0 0-1.035-1.035h.014Z"
    />
    <path
        fill="#4285F4"
        d="M14.083 14.836c-.055.207-.083.42-.083.634v17.133c0 .214.028.427.083.634l9.573-9.449-9.573-8.952Z"
    />
    <path
        fill="#34A853"
        d="m23.408 24.035 4.787-4.724-10.401-5.96a2.573 2.573 0 0 0-1.29-.351 2.51 2.51 0 0 0-2.421 1.828l9.325 9.207Z"
    />
    <g clip-path="url(#a)">
        <path
            fill="url(#b)"
            d="M74.728 6H53.272A7.27 7.27 0 0 0 46 13.272v21.46A7.268 7.268 0 0 0 53.272 42h21.46a7.272 7.272 0 0 0 7.272-7.272V13.272A7.276 7.276 0 0 0 74.728 6Z"
        />
        <path
            fill="#fff"
            d="m63.847 14.272.729-1.26a1.64 1.64 0 1 1 2.844 1.638l-7.025 12.159h5.08c1.648 0 2.57 1.935 1.855 3.276H52.435a1.632 1.632 0 0 1-1.638-1.638c0-.91.729-1.638 1.638-1.638h4.176l5.346-9.266-1.67-2.898a1.642 1.642 0 0 1 2.844-1.638l.716 1.265Zm-6.318 17.5-1.575 2.732a1.64 1.64 0 1 1-2.844-1.638l1.17-2.025c1.323-.41 2.398-.095 3.249.931Zm13.563-4.954h4.261c.91 0 1.638.729 1.638 1.638 0 .909-.729 1.638-1.638 1.638h-2.367l1.598 2.772a1.642 1.642 0 0 1-2.844 1.638c-2.691-4.667-4.712-8.159-6.053-10.485-1.372-2.367-.391-4.743.576-5.549 1.076 1.845 2.682 4.63 4.829 8.348Z"
        />
    </g>
    <defs>
        <linearGradient id="b" x1="64.002" x2="64.002" y1="6" y2="42" gradientUnits="userSpaceOnUse">
            <stop stop-color="#18BFFB" />
            <stop offset="1" stop-color="#2072F3" />
        </linearGradient>
        <clipPath id="a">
            <path fill="#fff" d="M0 0h36v36H0z" transform="translate(46 6)" />
        </clipPath>
    </defs>
</svg>
