<svg width="328" height="184" viewBox="0 0 328 184" fill="none" xmlns="http://www.w3.org/2000/svg">
    <path
        d="M164 169.519H117.826C115.974 169.519 114.458 167.995 114.458 166.134V115H164V169.519Z"
        fill="url(#paint0_linear_3602_59295)"
    />
    <path d="M114.305 115.001H164L150.487 101.371H100.792L114.305 115.001Z" fill="#FFE3BA" />
    <path
        d="M164 169.519H210.97C212.854 169.519 214.396 167.995 214.396 166.134V115H164V169.519Z"
        fill="url(#paint1_linear_3602_59295)"
    />
    <path d="M213.695 115.001H164L177.513 101.371H227.208L213.695 115.001Z" fill="#FFD390" />
    <path d="M144.354 156.742H129.833V169.52H144.354V156.742Z" fill="#FFE3BA" />
    <path d="M210.979 122.666H196.458V124.37H210.979V122.666Z" fill="#FFD390" />
    <path d="M210.979 126.928H196.458V128.631H210.979V126.928Z" fill="#FFD390" />
    <path
        d="M93.8791 54.2952L92.9628 53.5934C92.401 53.1632 91.5956 53.269 91.1639 53.8296L85.3442 61.388C84.9125 61.9487 85.018 62.752 85.5798 63.1822L86.4962 63.8839C87.058 64.3142 87.8634 64.2084 88.2951 63.6477L94.1147 56.0894C94.5464 55.5287 94.4409 54.7254 93.8791 54.2952Z"
        fill="#55E6B2"
    />
    <path
        d="M216.773 56.2696L215.698 55.8433C215.04 55.5825 214.294 55.904 214.032 56.5613L211.453 63.0313C211.191 63.6887 211.512 64.4329 212.17 64.6937L213.246 65.12C213.903 65.3808 214.649 65.0593 214.911 64.402L217.49 57.932C217.752 57.2746 217.431 56.5304 216.773 56.2696Z"
        fill="#FFD585"
    />
    <path
        d="M116.288 74.1044L115.421 74.8656C114.889 75.3325 114.838 76.141 115.306 76.6715L121.621 83.8249C122.089 84.3554 122.9 84.407 123.432 83.9401L124.299 83.179C124.83 82.7121 124.882 81.9036 124.414 81.3731L118.099 74.2196C117.631 73.6892 116.82 73.6376 116.288 74.1044Z"
        fill="#6847F2"
    />
    <path
        d="M264.682 75.4055L264.141 74.3904C263.808 73.766 263.031 73.5284 262.406 73.8599L253.965 78.3343C253.34 78.6657 253.103 79.4406 253.436 80.0651L253.977 81.0801C254.31 81.7046 255.086 81.9421 255.712 81.6107L264.152 77.1363C264.777 76.8048 265.014 76.03 264.682 75.4055Z"
        fill="#C867F6"
    />
    <path
        d="M82.0419 104.009C83.4803 104.009 84.6464 102.846 84.6464 101.412C84.6464 99.9773 83.4803 98.8145 82.0419 98.8145C80.6035 98.8145 79.4375 99.9773 79.4375 101.412C79.4375 102.846 80.6035 104.009 82.0419 104.009Z"
        fill="#FF69B8"
    />
    <path
        d="M106.651 21.0756C106.421 20.685 106.001 20.4453 105.548 20.4453H103.359C102.902 20.4453 102.48 20.6886 102.251 21.0837L101.163 22.9596C100.933 23.3554 100.932 23.8437 101.16 24.2406L102.252 26.1411C102.48 26.5389 102.904 26.7842 103.363 26.7842H105.544C106 26.7842 106.421 26.5424 106.65 26.1492L107.761 24.2487C107.995 23.8477 107.994 23.3515 107.758 22.9515L106.651 21.0756Z"
        fill="#FFA8A8"
    />
    <path
        d="M263.817 31.3044C263.587 30.9093 263.165 30.666 262.708 30.666H260.526C260.069 30.666 259.647 30.9093 259.417 31.3044L258.329 33.1803C258.1 33.5761 258.099 34.0644 258.327 34.4613L259.418 36.3618C259.647 36.7596 260.071 37.0049 260.529 37.0049H262.705C263.163 37.0049 263.587 36.7596 263.816 36.3618L264.907 34.4613C265.135 34.0644 265.134 33.5762 264.905 33.1803L263.817 31.3044Z"
        fill="#321E86"
    />
    <path
        d="M57.532 64.5429C56.939 63.7528 55.7119 63.9001 55.3255 64.8077L53.7696 68.4623C53.3836 69.3688 54.126 70.3535 55.1059 70.2349L59.0467 69.7579C60.0254 69.6394 60.5083 68.5087 59.9168 67.7205L57.532 64.5429Z"
        fill="#321E86"
    />
    <path
        d="M241.826 112.923C241.681 111.95 240.54 111.498 239.767 112.105L236.651 114.557C235.873 115.168 236.052 116.393 236.973 116.756L240.675 118.215C241.592 118.577 242.558 117.809 242.412 116.833L241.826 112.923Z"
        fill="#FF69B8"
    />
    <g clip-path="url(#clip0_3602_59295)">
        <path
            d="M149.735 65.955V79.28H159.088V66.5328C159.088 65.2925 159.58 64.103 160.457 63.2259C161.334 62.3489 162.524 61.8562 163.764 61.8562H173.354C175.57 61.8562 177.764 61.4198 179.811 60.5719C181.858 59.7239 183.718 58.481 185.285 56.9142C186.852 55.3474 188.094 53.4874 188.942 51.4403C189.79 49.3932 190.226 47.1992 190.226 44.9835C190.226 42.7676 189.79 40.5735 188.942 38.5262C188.095 36.479 186.852 34.6188 185.285 33.0519C183.719 31.4849 181.859 30.242 179.811 29.3939C177.764 28.5459 175.57 28.1094 173.354 28.1094H149.735V44.7656H159.088V36.9116H172.721C174.839 36.9116 176.869 37.7525 178.366 39.2494C179.863 40.7463 180.705 42.7766 180.705 44.8937C180.705 47.0111 179.864 49.0418 178.367 50.5389C176.869 52.0361 174.839 52.8772 172.721 52.8772H162.808C161.091 52.8766 159.39 53.2144 157.804 53.8714C156.217 54.5285 154.775 55.4918 153.561 56.7063C152.347 57.9209 151.384 59.3629 150.727 60.9499C150.071 62.5368 149.733 64.2376 149.735 65.955Z"
            fill="url(#paint2_radial_3602_59295)"
        />
        <path
            d="M163.762 61.8555C161.92 61.8553 160.095 62.218 158.394 62.9229C156.692 63.6278 155.145 64.661 153.843 65.9635C152.54 67.2661 151.507 68.8125 150.802 70.5144C150.097 72.2163 149.734 74.0405 149.735 75.8826V79.2792H159.088V66.532C159.088 65.2922 159.58 64.103 160.457 63.2261C161.333 62.3491 162.522 61.8561 163.762 61.8555Z"
            fill="url(#paint3_linear_3602_59295)"
        />
    </g>
    <defs>
        <linearGradient
            id="paint0_linear_3602_59295"
            x1="147.201"
            y1="115.432"
            x2="125.674"
            y2="169.444"
            gradientUnits="userSpaceOnUse"
        >
            <stop stop-color="#FFD391" />
            <stop offset="1" stop-color="#FFA26D" />
        </linearGradient>
        <linearGradient
            id="paint1_linear_3602_59295"
            x1="214.867"
            y1="169.519"
            x2="164.557"
            y2="114.828"
            gradientUnits="userSpaceOnUse"
        >
            <stop stop-color="#FF7E62" />
            <stop offset="1" stop-color="#FFA26D" />
        </linearGradient>
        <radialGradient
            id="paint2_radial_3602_59295"
            cx="0"
            cy="0"
            r="1"
            gradientUnits="userSpaceOnUse"
            gradientTransform="translate(190.369 21.0048) scale(51.5024 51.5025)"
        >
            <stop stop-color="#A995FF" />
            <stop offset="1" stop-color="#6652F5" />
        </radialGradient>
        <linearGradient
            id="paint3_linear_3602_59295"
            x1="156.748"
            y1="76.7589"
            x2="156.748"
            y2="57.1789"
            gradientUnits="userSpaceOnUse"
        >
            <stop stop-color="#6D4BFD" />
            <stop offset="1" stop-color="#1C0554" />
        </linearGradient>
        <clipPath id="clip0_3602_59295">
            <rect width="51.25" height="51.1111" fill="white" transform="translate(144.354 28.1113)" />
        </clipPath>
    </defs>
</svg>
