<svg xmlns="http://www.w3.org/2000/svg" width="344" height="230" fill="none" viewBox="0 0 344 230">
    <g clip-path="url(#a)">
        <rect width="344" height="230" fill="url(#b)" rx="12" />
        <g filter="url(#c)">
            <path
                fill="#FCFCFF"
                d="M465 400c0 161.819-131.181 293-293 293-161.82 0-293-131.181-293-293S10.18 115 172 115c161.819 0 293 123.181 293 285Z"
            />
        </g>
        <g filter="url(#d)">
            <rect width="56" height="56" x="144" y="28" fill="#fff" rx="14" />
            <path
                fill="#D3C9FF"
                d="M172.046 53.031v6.326h8.79c-.386 2.034-1.544 3.757-3.281 4.915l5.301 4.113c3.088-2.85 4.87-7.038 4.87-12.013 0-1.158-.104-2.272-.297-3.34h-15.383Z"
            />
            <path
                fill="#D3C9FF"
                d="m162.892 59.11-1.195.915-4.232 3.296c2.687 5.33 8.196 9.014 14.581 9.014 4.41 0 8.107-1.456 10.809-3.95l-5.301-4.114c-1.455.98-3.311 1.575-5.508 1.575-4.247 0-7.855-2.866-9.147-6.727l-.007-.01Z"
            />
            <path
                fill="#D3C9FF"
                d="M157.465 48.682a16.128 16.128 0 0 0-1.752 7.32c0 2.643.638 5.123 1.752 7.32 0 .016 5.435-4.216 5.435-4.216a9.779 9.779 0 0 1-.52-3.104c0-1.084.193-2.123.52-3.104l-5.435-4.216Z"
            />
            <path
                fill="#D3C9FF"
                d="M172.046 46.172c2.405 0 4.544.832 6.251 2.435l4.677-4.677c-2.836-2.643-6.518-4.262-10.928-4.262-6.385 0-11.894 3.668-14.581 9.014l5.434 4.217c1.292-3.861 4.9-6.727 9.147-6.727Z"
            />
        </g>
        <g filter="url(#e)">
            <rect width="48" height="48" x="69" y="53" fill="#fff" rx="12" />
            <g clip-path="url(#f)">
                <path
                    fill="#6D4AFF"
                    d="M93 90.504c7.456 0 13.5-6.044 13.5-13.5s-6.044-13.5-13.5-13.5-13.5 6.044-13.5 13.5 6.044 13.5 13.5 13.5Z"
                    opacity=".3"
                />
                <path
                    fill="#fff"
                    d="M98.255 80.905 98.853 77h-3.744v-2.53c0-1.067.522-2.11 2.2-2.11h1.703v-3.322s-1.545-.264-3.022-.264c-3.083 0-5.1 1.868-5.1 5.254V77h-3.428v3.904h3.428v9.433a13.79 13.79 0 0 0 4.218 0v-9.433h3.147Z"
                />
            </g>
        </g>
        <g filter="url(#g)">
            <rect width="48" height="48" x="227" y="53" fill="#fff" rx="12" />
            <g opacity=".3">
                <path
                    fill="#6D4AFF"
                    fill-rule="evenodd"
                    d="M252.717 75.502c0 1.19.029 2.182-.577 3.242-.491.861-1.271 1.389-2.138 1.389-1.183 0-1.877-.894-1.877-2.216 0-2.601 2.36-3.074 4.592-3.074v.66Zm3.112 7.448a.643.643 0 0 1-.729.073c-1.025-.843-1.208-1.231-1.77-2.036-1.693 1.707-2.894 2.22-5.088 2.22-2.601 0-4.621-1.587-4.621-4.762 0-2.478 1.357-4.163 3.29-4.992 1.676-.727 4.017-.858 5.806-1.056v-.399c0-.725.059-1.587-.374-2.214-.376-.563-1.097-.793-1.732-.793-1.178 0-2.226.595-2.482 1.833-.054.275-.257.547-.537.561l-2.991-.32c-.255-.057-.535-.256-.462-.638.687-3.593 3.965-4.677 6.904-4.677 1.502 0 3.466.397 4.648 1.522 1.502 1.387 1.357 3.238 1.357 5.255v4.759c0 1.433.603 2.06 1.166 2.83.198.278.242.609-.01.813-.631.523-1.751 1.486-2.367 2.028l-.008-.007Zm6.076 2.356c-2.956 2.18-7.242 3.34-10.932 3.34-5.171 0-9.829-1.91-13.354-5.093-.276-.25-.029-.592.303-.397 3.803 2.213 8.505 3.545 13.362 3.545 3.277 0 6.877-.68 10.191-2.086.5-.211.919.33.43.69Z"
                    clip-rule="evenodd"
                />
                <path
                    fill="#6D4AFF"
                    fill-rule="evenodd"
                    d="M263.134 83.901c-.377-.483-2.499-.229-3.451-.114-.289.033-.334-.218-.074-.402 1.693-1.188 4.465-.844 4.788-.447.324.403-.085 3.182-1.671 4.508-.244.204-.476.097-.368-.173.356-.892 1.155-2.888.776-3.371Z"
                    clip-rule="evenodd"
                />
            </g>
        </g>
        <circle cx="209.5" cy="83.5" r="1.5" fill="#6D4AFF" opacity=".3" />
        <circle cx="123.5" cy="32.5" r="1.5" fill="#6D4AFF" opacity=".3" />
        <circle cx="49.5" cy="95.5" r="1.5" fill="#6D4AFF" opacity=".3" />
        <circle cx="300.5" cy="65.5" r="1.5" fill="#6D4AFF" opacity=".3" />
        <circle cx="297.5" cy="95.5" r="1.5" fill="#6D4AFF" opacity=".3" />
        <circle cx="321.5" cy="109.5" r="1.5" fill="#6D4AFF" opacity=".3" />
        <circle cx="314.5" cy="76.5" r="1.5" fill="#6D4AFF" opacity=".3" />
        <circle cx="35.5" cy="67.5" r="1.5" fill="#6D4AFF" opacity=".3" />
        <circle cx="21.5" cy="112.5" r="1.5" fill="#6D4AFF" opacity=".3" />
        <path fill="url(#h)" d="M0 195h344v35H0z" />
        <g filter="url(#i)">
            <path
                fill="url(#j)"
                d="M194 151.224a4 4 0 0 0-3.15-3.909l-18.218-3.961a8.018 8.018 0 0 0-3.269-.027l-20.147 4.03a4 4 0 0 0-3.216 3.922v25.158C146 183 156 193 170 198c14-5 24-16 24-22.532v-24.244Z"
            />
        </g>
        <path
            fill="#fff"
            d="M164.39 172.78v4.434h3.112v-4.242a1.555 1.555 0 0 1 1.556-1.556h3.191a5.615 5.615 0 1 0 0-11.228h-7.859v5.542h3.112v-2.614h4.536a2.655 2.655 0 0 1 1.879 4.534 2.656 2.656 0 0 1-1.879.779h-3.298a4.338 4.338 0 0 0-3.077 1.274 4.33 4.33 0 0 0-1.273 3.077Z"
        />
        <path
            fill="#fff"
            d="M169.057 171.418a4.657 4.657 0 0 0-3.3 1.367 4.648 4.648 0 0 0-1.367 3.3v1.13h3.112v-4.241a1.558 1.558 0 0 1 1.555-1.556Z"
        />
    </g>
    <defs>
        <filter
            id="c"
            width="652"
            height="644"
            x="-154"
            y="86"
            color-interpolation-filters="sRGB"
            filterUnits="userSpaceOnUse"
        >
            <feFlood flood-opacity="0" result="BackgroundImageFix" />
            <feColorMatrix in="SourceAlpha" result="hardAlpha" values="0 0 0 0 0 0 0 0 0 0 0 0 0 0 0 0 0 0 127 0" />
            <feOffset dy="4" />
            <feGaussianBlur stdDeviation="16.5" />
            <feComposite in2="hardAlpha" operator="out" />
            <feColorMatrix values="0 0 0 0 0.427451 0 0 0 0 0.290196 0 0 0 0 1 0 0 0 0.5 0" />
            <feBlend in2="BackgroundImageFix" result="effect1_dropShadow_3313_58246" />
            <feBlend in="SourceGraphic" in2="effect1_dropShadow_3313_58246" result="shape" />
            <feColorMatrix in="SourceAlpha" result="hardAlpha" values="0 0 0 0 0 0 0 0 0 0 0 0 0 0 0 0 0 0 127 0" />
            <feOffset dy="4" />
            <feGaussianBlur stdDeviation="15" />
            <feComposite in2="hardAlpha" k2="-1" k3="1" operator="arithmetic" />
            <feColorMatrix values="0 0 0 0 0.427451 0 0 0 0 0.290196 0 0 0 0 1 0 0 0 0.2 0" />
            <feBlend in2="shape" result="effect2_innerShadow_3313_58246" />
        </filter>
        <filter
            id="d"
            width="276.277"
            height="276.277"
            x="33.861"
            y="-49.178"
            color-interpolation-filters="sRGB"
            filterUnits="userSpaceOnUse"
        >
            <feFlood flood-opacity="0" result="BackgroundImageFix" />
            <feColorMatrix in="SourceAlpha" result="hardAlpha" values="0 0 0 0 0 0 0 0 0 0 0 0 0 0 0 0 0 0 127 0" />
            <feOffset dy="2.686" />
            <feGaussianBlur stdDeviation="4.487" />
            <feColorMatrix values="0 0 0 0 0.290196 0 0 0 0 0.176471 0 0 0 0 0.772549 0 0 0 0.0431852 0" />
            <feBlend in2="BackgroundImageFix" result="effect1_dropShadow_3313_58246" />
            <feColorMatrix in="SourceAlpha" result="hardAlpha" values="0 0 0 0 0 0 0 0 0 0 0 0 0 0 0 0 0 0 127 0" />
            <feOffset dy="12.696" />
            <feGaussianBlur stdDeviation="17.541" />
            <feColorMatrix values="0 0 0 0 0.290196 0 0 0 0 0.176471 0 0 0 0 0.772549 0 0 0 0.0668148 0" />
            <feBlend in2="effect1_dropShadow_3313_58246" result="effect2_dropShadow_3313_58246" />
            <feColorMatrix in="SourceAlpha" result="hardAlpha" values="0 0 0 0 0 0 0 0 0 0 0 0 0 0 0 0 0 0 127 0" />
            <feOffset dy="32.96" />
            <feGaussianBlur stdDeviation="55.069" />
            <feColorMatrix values="0 0 0 0 0.290196 0 0 0 0 0.176471 0 0 0 0 0.772549 0 0 0 0.11 0" />
            <feBlend in2="effect2_dropShadow_3313_58246" result="effect3_dropShadow_3313_58246" />
            <feBlend in="SourceGraphic" in2="effect3_dropShadow_3313_58246" result="shape" />
        </filter>
        <filter
            id="e"
            width="331.214"
            height="331.214"
            x="-72.607"
            y="-46.229"
            color-interpolation-filters="sRGB"
            filterUnits="userSpaceOnUse"
        >
            <feFlood flood-opacity="0" result="BackgroundImageFix" />
            <feColorMatrix in="SourceAlpha" result="hardAlpha" values="0 0 0 0 0 0 0 0 0 0 0 0 0 0 0 0 0 0 127 0" />
            <feOffset dy="3.453" />
            <feGaussianBlur stdDeviation="5.769" />
            <feColorMatrix values="0 0 0 0 0.290196 0 0 0 0 0.176471 0 0 0 0 0.772549 0 0 0 0.0431852 0" />
            <feBlend in2="BackgroundImageFix" result="effect1_dropShadow_3313_58246" />
            <feColorMatrix in="SourceAlpha" result="hardAlpha" values="0 0 0 0 0 0 0 0 0 0 0 0 0 0 0 0 0 0 127 0" />
            <feOffset dy="16.323" />
            <feGaussianBlur stdDeviation="22.552" />
            <feColorMatrix values="0 0 0 0 0.290196 0 0 0 0 0.176471 0 0 0 0 0.772549 0 0 0 0.0668148 0" />
            <feBlend in2="effect1_dropShadow_3313_58246" result="effect2_dropShadow_3313_58246" />
            <feColorMatrix in="SourceAlpha" result="hardAlpha" values="0 0 0 0 0 0 0 0 0 0 0 0 0 0 0 0 0 0 127 0" />
            <feOffset dy="42.378" />
            <feGaussianBlur stdDeviation="70.803" />
            <feColorMatrix values="0 0 0 0 0.290196 0 0 0 0 0.176471 0 0 0 0 0.772549 0 0 0 0.11 0" />
            <feBlend in2="effect2_dropShadow_3313_58246" result="effect3_dropShadow_3313_58246" />
            <feBlend in="SourceGraphic" in2="effect3_dropShadow_3313_58246" result="shape" />
        </filter>
        <filter
            id="g"
            width="331.214"
            height="331.214"
            x="85.393"
            y="-46.229"
            color-interpolation-filters="sRGB"
            filterUnits="userSpaceOnUse"
        >
            <feFlood flood-opacity="0" result="BackgroundImageFix" />
            <feColorMatrix in="SourceAlpha" result="hardAlpha" values="0 0 0 0 0 0 0 0 0 0 0 0 0 0 0 0 0 0 127 0" />
            <feOffset dy="3.453" />
            <feGaussianBlur stdDeviation="5.769" />
            <feColorMatrix values="0 0 0 0 0.290196 0 0 0 0 0.176471 0 0 0 0 0.772549 0 0 0 0.0431852 0" />
            <feBlend in2="BackgroundImageFix" result="effect1_dropShadow_3313_58246" />
            <feColorMatrix in="SourceAlpha" result="hardAlpha" values="0 0 0 0 0 0 0 0 0 0 0 0 0 0 0 0 0 0 127 0" />
            <feOffset dy="16.323" />
            <feGaussianBlur stdDeviation="22.552" />
            <feColorMatrix values="0 0 0 0 0.290196 0 0 0 0 0.176471 0 0 0 0 0.772549 0 0 0 0.0668148 0" />
            <feBlend in2="effect1_dropShadow_3313_58246" result="effect2_dropShadow_3313_58246" />
            <feColorMatrix in="SourceAlpha" result="hardAlpha" values="0 0 0 0 0 0 0 0 0 0 0 0 0 0 0 0 0 0 127 0" />
            <feOffset dy="42.378" />
            <feGaussianBlur stdDeviation="70.803" />
            <feColorMatrix values="0 0 0 0 0.290196 0 0 0 0 0.176471 0 0 0 0 0.772549 0 0 0 0.11 0" />
            <feBlend in2="effect2_dropShadow_3313_58246" result="effect3_dropShadow_3313_58246" />
            <feBlend in="SourceGraphic" in2="effect3_dropShadow_3313_58246" result="shape" />
        </filter>
        <filter
            id="i"
            width="85.895"
            height="93.346"
            x="127.053"
            y="136.856"
            color-interpolation-filters="sRGB"
            filterUnits="userSpaceOnUse"
        >
            <feFlood flood-opacity="0" result="BackgroundImageFix" />
            <feColorMatrix in="SourceAlpha" result="hardAlpha" values="0 0 0 0 0 0 0 0 0 0 0 0 0 0 0 0 0 0 127 0" />
            <feOffset dy="2.804" />
            <feGaussianBlur stdDeviation="1.263" />
            <feColorMatrix values="0 0 0 0 0.290196 0 0 0 0 0.176471 0 0 0 0 0.772549 0 0 0 0.04 0" />
            <feBlend in2="BackgroundImageFix" result="effect1_dropShadow_3313_58246" />
            <feColorMatrix in="SourceAlpha" result="hardAlpha" values="0 0 0 0 0 0 0 0 0 0 0 0 0 0 0 0 0 0 127 0" />
            <feOffset dy="13.255" />
            <feGaussianBlur stdDeviation="9.474" />
            <feColorMatrix values="0 0 0 0 0.290196 0 0 0 0 0.176471 0 0 0 0 0.772549 0 0 0 0.05 0" />
            <feBlend in2="effect1_dropShadow_3313_58246" result="effect2_dropShadow_3313_58246" />
            <feColorMatrix in="SourceAlpha" result="hardAlpha" values="0 0 0 0 0 0 0 0 0 0 0 0 0 0 0 0 0 0 127 0" />
            <feOffset dy="6.316" />
            <feGaussianBlur stdDeviation="6.316" />
            <feColorMatrix values="0 0 0 0 0.290196 0 0 0 0 0.176471 0 0 0 0 0.772549 0 0 0 0.05 0" />
            <feBlend in2="effect2_dropShadow_3313_58246" result="effect3_dropShadow_3313_58246" />
            <feBlend in="SourceGraphic" in2="effect3_dropShadow_3313_58246" result="shape" />
        </filter>
        <linearGradient id="b" x1="0" x2="376.749" y1="230" y2="144.782" gradientUnits="userSpaceOnUse">
            <stop stop-color="#EAE4FF" />
            <stop offset="1" stop-color="#F7F5FF" />
        </linearGradient>
        <linearGradient id="h" x1="172" x2="172" y1="195" y2="230" gradientUnits="userSpaceOnUse">
            <stop stop-color="#6D4AFF" stop-opacity="0" />
            <stop offset="1" stop-color="#6D4AFF" stop-opacity=".05" />
        </linearGradient>
        <linearGradient id="j" x1="189.558" x2="155.489" y1="127.294" y2="202.971" gradientUnits="userSpaceOnUse">
            <stop stop-color="#EEBEFF" />
            <stop offset="1" stop-color="#5228FF" />
        </linearGradient>
        <clipPath id="a">
            <rect width="344" height="230" fill="#fff" rx="12" />
        </clipPath>
        <clipPath id="f">
            <path fill="#fff" d="M0 0h27v27H0z" transform="translate(79.5 63.5)" />
        </clipPath>
    </defs>
</svg>
