<svg xmlns="http://www.w3.org/2000/svg" width="376" height="212" fill="none" viewBox="0 0 376 212">
    <path
        fill="url(#a)"
        d="M231.26 105.645H175.3l-1.797-6.093a2.864 2.864 0 0 0-2.736-1.952h-26.026a2.717 2.717 0 0 0-2.735 2.734v68.348h91.989v-60.225c0-1.562-1.172-2.812-2.735-2.812z"
    />
    <path
        fill="url(#b)"
        d="M186.955 117.461h-50.097a3.19 3.19 0 0 0-3.174 3.697l8.362 52.762c.155 1.232 1.239 2.08 2.478 2.08h86.953c1.239 0 2.246-.848 2.478-2.08l8.363-52.762c.309-1.925-1.239-3.697-3.175-3.697h-52.188z"
    />
    <path
        fill="url(#c)"
        fill-rule="evenodd"
        d="M213.392 73.451h-26.335a2.877 2.877 0 0 0-2.877 2.878v51.794a2.877 2.877 0 0 0 2.877 2.877h40.284a2.877 2.877 0 0 0 2.878-2.877V90.278l-16.827-16.827z"
        clip-rule="evenodd"
    />
    <path
        fill="#F9F9F9"
        fill-rule="evenodd"
        d="m213.39 73.45 16.829 16.83h-13.951a2.878 2.878 0 0 1-2.878-2.878V73.45z"
        clip-rule="evenodd"
    />
    <path
        fill="#1B1340"
        fill-rule="evenodd"
        d="M207.199 95.719h-4.152c-.874 0-1.603-.743-1.603-1.634v-.297c0-.891.729-1.634 1.603-1.634h4.152v3.565zm4.153 3.563H207.2v-3.564h4.152c.874 0 1.603.742 1.603 1.634v.297c0 .89-.729 1.633-1.603 1.633zm-8.305 3.563h4.152V99.28h-4.152c-.874 0-1.603.743-1.603 1.634v.297c0 .891.729 1.634 1.603 1.634zm8.305 3.628H207.2v-3.564h4.152c.874 0 1.603.742 1.603 1.633v.297c0 .966-.729 1.634-1.603 1.634zm-7.212 2.647h6.119c.874 0 1.603.668 1.53 1.634v8.54c0 .891-.729 1.634-1.603 1.634h-6.046c-.874 0-1.603-.743-1.603-1.634v-8.54c0-.891.729-1.634 1.603-1.634zm5.026 9.877c.51 0 .947-.446.947-.966v-1.708c0-.519-.437-.965-.947-.965h-3.934c-.51 0-.947.446-.947.965v1.708c0 .52.437.966.947.966h3.934z"
        clip-rule="evenodd"
    />
    <mask id="e" width="47" height="48" x="184" y="73" maskUnits="userSpaceOnUse" style="mask-type: alpha">
        <path fill="#F0ECE6" d="M230.116 73.451h-45.937v47.343h45.937V73.451z" />
    </mask>
    <g filter="url(#d)" mask="url(#e)" opacity=".3">
        <path fill="#221548" d="m195.393 69.482-15.215 9.494v32.18a26.53 26.53 0 0 0 15.215-23.995V69.482z" />
    </g>
    <path
        fill="url(#f)"
        fill-rule="evenodd"
        d="M173.852 35.002h-25.036a4.34 4.34 0 0 0-4.341 4.34V88.54a4.34 4.34 0 0 0 4.341 4.34h37.621a4.341 4.341 0 0 0 4.341-4.34V51.927l-16.926-16.925z"
        clip-rule="evenodd"
    />
    <path
        fill="#F9F9F9"
        fill-rule="evenodd"
        d="m173.854 35 16.925 16.926h-12.584a4.34 4.34 0 0 1-4.341-4.341V35z"
        clip-rule="evenodd"
    />
    <path
        fill="#1B1340"
        d="m172.017 67.21-6.579 8.622c0 .032-.032.032-.064 0l-3.64-4.63a1.018 1.018 0 0 0-1.629 0l-5.237 6.706c-.543.67-.064 1.66.798 1.66h25.644c.735 0 1.15-.861.703-1.436l-8.335-10.922a1.05 1.05 0 0 0-1.661 0zm-7.089.737a3.45 3.45 0 1 0-.001-6.9 3.45 3.45 0 0 0 .001 6.9z"
    />
    <path
        fill="#C2BFBC"
        fill-rule="evenodd"
        d="M12.384 1.365c-.612 0-1.212.05-1.796.146a.683.683 0 0 1-.22-1.347A12.387 12.387 0 0 1 12.383 0h2.438a.683.683 0 1 1 0 1.365h-2.438zm8.582-.682c0-.377.306-.683.683-.683h4.875a.683.683 0 1 1 0 1.365H21.65a.683.683 0 0 1-.683-.682zm11.702 0c0-.377.306-.683.682-.683h4.876a.683.683 0 1 1 0 1.365H33.35a.683.683 0 0 1-.682-.682zm11.702 0c0-.377.305-.683.682-.683h4.876a.683.683 0 1 1 0 1.365h-4.876a.683.683 0 0 1-.682-.682zm11.702 0c0-.377.305-.683.682-.683h4.876a.683.683 0 1 1 0 1.365h-4.876a.683.683 0 0 1-.682-.682zm11.702 0c0-.377.305-.683.682-.683h4.876a.683.683 0 1 1 0 1.365h-4.876a.683.683 0 0 1-.682-.682zm11.702 0c0-.377.305-.683.682-.683h4.876a.683.683 0 1 1 0 1.365h-4.876a.683.683 0 0 1-.682-.682zm11.702 0c0-.377.305-.683.682-.683h4.876a.683.683 0 1 1 0 1.365H91.86a.683.683 0 0 1-.682-.682zm11.701 0c0-.377.306-.683.683-.683h4.876a.683.683 0 1 1 0 1.365h-4.876a.683.683 0 0 1-.683-.682zm11.702 0c0-.377.306-.683.683-.683h4.876a.682.682 0 0 1 0 1.365h-4.876a.683.683 0 0 1-.683-.682zm11.702 0c0-.377.306-.683.683-.683h4.876a.682.682 0 0 1 0 1.365h-4.876a.683.683 0 0 1-.683-.682zm11.702 0c0-.377.306-.683.683-.683h4.876a.682.682 0 0 1 0 1.365h-4.876a.683.683 0 0 1-.683-.682zm11.702 0c0-.377.306-.683.683-.683h4.876a.682.682 0 0 1 0 1.365h-4.876a.683.683 0 0 1-.683-.682zm11.702 0c0-.377.306-.683.683-.683h4.876a.682.682 0 0 1 0 1.365h-4.876a.683.683 0 0 1-.683-.682zm11.702 0c0-.377.306-.683.683-.683h4.875a.683.683 0 1 1 0 1.365h-4.875a.683.683 0 0 1-.683-.682zm11.702 0c0-.377.306-.683.683-.683h4.875a.683.683 0 1 1 0 1.365h-4.875a.683.683 0 0 1-.683-.682zm11.702 0c0-.377.306-.683.683-.683h4.875a.683.683 0 1 1 0 1.365h-4.875a.683.683 0 0 1-.683-.682zm11.702 0c0-.377.305-.683.683-.683h4.875a.683.683 0 1 1 0 1.365h-4.875a.682.682 0 0 1-.683-.682zm11.702 0c0-.377.305-.683.682-.683h4.876a.683.683 0 1 1 0 1.365h-4.876a.682.682 0 0 1-.682-.682zm11.702 0c0-.377.305-.683.682-.683h4.876a.683.683 0 1 1 0 1.365h-4.876a.682.682 0 0 1-.682-.682zm11.702 0c0-.377.305-.683.682-.683h4.876a.683.683 0 1 1 0 1.365h-4.876a.682.682 0 0 1-.682-.682zm11.702 0c0-.377.305-.683.682-.683h4.876a.683.683 0 1 1 0 1.365h-4.876a.682.682 0 0 1-.682-.682zm11.702 0c0-.377.305-.683.682-.683h4.876a.683.683 0 1 1 0 1.365h-4.876a.682.682 0 0 1-.682-.682zm11.702 0c0-.377.305-.683.682-.683h4.876a.683.683 0 1 1 0 1.365h-4.876a.682.682 0 0 1-.682-.682zm11.701 0c0-.377.306-.683.683-.683h4.876a.682.682 0 0 1 0 1.365h-4.876a.683.683 0 0 1-.683-.682zm11.702 0c0-.377.306-.683.683-.683h4.876a.682.682 0 0 1 0 1.365h-4.876a.683.683 0 0 1-.683-.682zm11.702 0c0-.377.306-.683.683-.683h4.876a.682.682 0 0 1 0 1.365h-4.876a.683.683 0 0 1-.683-.682zm11.702 0c0-.377.306-.683.683-.683h4.876a.682.682 0 0 1 0 1.365h-4.876a.683.683 0 0 1-.683-.682zm11.702 0c0-.377.306-.683.683-.683h4.876a.682.682 0 0 1 0 1.365h-4.876a.683.683 0 0 1-.683-.682zm11.702 0c0-.377.306-.683.683-.683h4.875a.683.683 0 1 1 0 1.365h-4.875a.683.683 0 0 1-.683-.682zm11.702 0c0-.377.306-.683.683-.683h2.438c.686 0 1.36.056 2.017.164a.682.682 0 1 1-.221 1.347 11.094 11.094 0 0 0-1.796-.146h-2.438a.683.683 0 0 1-.683-.682zm9.383 1.79a.682.682 0 0 1 .952-.156 12.456 12.456 0 0 1 2.853 2.853.682.682 0 1 1-1.109.796 11.11 11.11 0 0 0-2.54-2.54.683.683 0 0 1-.156-.952zm-363.582 0c.22.307.15.734-.157.953a11.086 11.086 0 0 0-2.54 2.54.683.683 0 1 1-1.109-.796A12.451 12.451 0 0 1 5.17 2.317a.683.683 0 0 1 .953.157zm368.756 7.33a.683.683 0 0 1 .784.564c.108.657.164 1.331.164 2.017v2.438a.683.683 0 0 1-1.365 0v-2.438c0-.612-.05-1.212-.146-1.796a.682.682 0 0 1 .563-.784zm-373.931 0a.683.683 0 0 1 .563.785 11.103 11.103 0 0 0-.146 1.797v2.437a.683.683 0 1 1-1.365 0v-2.437c0-.687.056-1.36.164-2.018a.683.683 0 0 1 .784-.563zm374.196 11.163c.377 0 .683.306.683.683v4.875a.683.683 0 0 1-1.365 0V21.65c0-.377.305-.683.682-.683zm-374.461 0c.377 0 .682.306.682.683v4.875a.683.683 0 0 1-1.365 0V21.65c0-.377.306-.683.683-.683zm374.461 11.702c.377 0 .683.306.683.682v4.876a.683.683 0 0 1-1.365 0V33.35c0-.377.305-.682.682-.682zm-374.461 0c.377 0 .682.306.682.682v4.876a.683.683 0 0 1-1.365 0V33.35c0-.377.306-.682.683-.682zM375.144 44.37c.377 0 .683.305.683.682v4.876a.683.683 0 0 1-1.365 0v-4.876c0-.377.305-.682.682-.682zm-374.461 0c.377 0 .682.306.682.682v4.876a.683.683 0 1 1-1.365 0v-4.876c0-.377.306-.682.683-.682zm374.461 11.702c.377 0 .683.305.683.682v4.876a.683.683 0 0 1-1.365 0v-4.876c0-.377.305-.682.682-.682zm-374.461 0c.377 0 .682.305.682.682v4.876a.683.683 0 0 1-1.365 0v-4.876c0-.377.306-.682.683-.682zm374.461 11.702c.377 0 .683.305.683.682v4.876a.683.683 0 0 1-1.365 0v-4.876c0-.377.305-.682.682-.682zm-374.461 0c.377 0 .682.305.682.682v4.876a.683.683 0 0 1-1.365 0v-4.876c0-.377.306-.682.683-.682zm374.461 11.702c.377 0 .683.305.683.682v4.876a.683.683 0 0 1-1.365 0v-4.876c0-.377.305-.682.682-.682zm-374.461 0c.377 0 .682.305.682.682v4.876a.683.683 0 0 1-1.365 0v-4.876c0-.377.306-.682.683-.682zm374.461 11.702c.377 0 .683.305.683.682v4.876a.683.683 0 0 1-1.365 0V91.86c0-.377.305-.682.682-.682zm-374.461 0c.377 0 .682.305.682.682v4.876a.683.683 0 0 1-1.365 0V91.86c0-.377.306-.682.683-.682zm374.461 11.701c.377 0 .683.306.683.683v4.876a.683.683 0 0 1-1.365 0v-4.876c0-.377.305-.683.682-.683zm-374.461 0c.377 0 .682.306.682.683v4.876a.683.683 0 1 1-1.365 0v-4.876c0-.377.306-.683.683-.683zm0 11.702c.377 0 .682.306.682.683v4.876a.682.682 0 0 1-1.365 0v-4.876c0-.377.306-.683.683-.683zm374.461 0c.377 0 .683.306.683.683v4.876a.682.682 0 0 1-1.365 0v-4.876c0-.377.305-.683.682-.683zM.683 126.283c.377 0 .682.306.682.683v4.876a.682.682 0 0 1-1.365 0v-4.876c0-.377.306-.683.683-.683zm374.461 0c.377 0 .683.306.683.683v4.876a.682.682 0 0 1-1.365 0v-4.876c0-.377.305-.683.682-.683zM.683 137.985c.377 0 .682.306.682.683v4.876a.682.682 0 0 1-1.365 0v-4.876c0-.377.306-.683.683-.683zm374.461 0c.377 0 .683.306.683.683v4.876a.682.682 0 0 1-1.365 0v-4.876c0-.377.305-.683.682-.683zM.683 149.687c.377 0 .682.306.682.683v4.876a.682.682 0 0 1-1.365 0v-4.876c0-.377.306-.683.683-.683zm374.461 0c.377 0 .683.306.683.683v4.876a.682.682 0 0 1-1.365 0v-4.876c0-.377.305-.683.682-.683zM.683 161.389c.377 0 .682.306.682.683v4.876a.682.682 0 0 1-1.365 0v-4.876c0-.377.306-.683.683-.683zm374.461 0c.377 0 .683.306.683.683v4.876a.682.682 0 0 1-1.365 0v-4.876c0-.377.305-.683.682-.683zM.683 173.091c.377 0 .682.306.682.683v4.875a.683.683 0 1 1-1.365 0v-4.875c0-.377.306-.683.683-.683zm374.461 0c.377 0 .683.306.683.683v4.875a.683.683 0 0 1-1.365 0v-4.875c0-.377.305-.683.682-.683zM.683 184.793c.377 0 .682.306.682.683v4.875a.683.683 0 1 1-1.365 0v-4.875c0-.377.306-.683.683-.683zm374.461 0c.377 0 .683.306.683.683v4.875a.683.683 0 0 1-1.365 0v-4.875c0-.377.305-.683.682-.683zM.683 196.495c.377 0 .682.306.682.683v2.437c0 .613.05 1.213.146 1.797a.683.683 0 0 1-1.347.221A12.47 12.47 0 0 1 0 199.615v-2.437c0-.377.306-.683.683-.683zm374.461 0c.377 0 .683.306.683.683v2.437c0 .687-.056 1.361-.164 2.018a.682.682 0 1 1-1.347-.221 11.07 11.07 0 0 0 .146-1.797v-2.437c0-.377.305-.683.682-.683zm-372.67 9.382a.684.684 0 0 1 .952.157 11.11 11.11 0 0 0 2.54 2.54.682.682 0 1 1-.796 1.109 12.456 12.456 0 0 1-2.853-2.853.683.683 0 0 1 .157-.953zm370.879 0c.307.22.377.647.157.953a12.46 12.46 0 0 1-2.853 2.853.683.683 0 0 1-.796-1.109 11.132 11.132 0 0 0 2.54-2.54.683.683 0 0 1 .952-.157zm-363.55 5.175a.682.682 0 0 1 .785-.563c.584.096 1.184.146 1.796.146h2.438a.682.682 0 1 1 0 1.365h-2.438c-.686 0-1.36-.056-2.017-.164a.683.683 0 0 1-.563-.784zm356.22 0a.682.682 0 0 1-.563.784 12.43 12.43 0 0 1-2.017.164h-2.438a.683.683 0 0 1 0-1.365h2.438c.612 0 1.212-.05 1.796-.146a.682.682 0 0 1 .784.563zm-345.057.265c0-.377.306-.682.683-.682h4.875a.682.682 0 1 1 0 1.365H21.65a.683.683 0 0 1-.683-.683zm11.702 0c0-.377.306-.682.682-.682h4.876a.682.682 0 1 1 0 1.365H33.35a.683.683 0 0 1-.682-.683zm11.702 0c0-.377.305-.682.682-.682h4.876a.682.682 0 1 1 0 1.365h-4.876a.683.683 0 0 1-.682-.683zm11.702 0c0-.377.305-.682.682-.682h4.876a.682.682 0 1 1 0 1.365h-4.876a.683.683 0 0 1-.682-.683zm11.702 0c0-.377.305-.682.682-.682h4.876a.682.682 0 1 1 0 1.365h-4.876a.683.683 0 0 1-.682-.683zm11.702 0c0-.377.305-.682.682-.682h4.876a.682.682 0 1 1 0 1.365h-4.876a.683.683 0 0 1-.682-.683zm11.702 0c0-.377.305-.682.682-.682h4.876a.682.682 0 1 1 0 1.365H91.86a.683.683 0 0 1-.682-.683zm11.701 0c0-.377.306-.682.683-.682h4.876a.682.682 0 1 1 0 1.365h-4.876a.683.683 0 0 1-.683-.683zm11.702 0c0-.377.306-.682.683-.682h4.876a.682.682 0 1 1 0 1.365h-4.876a.683.683 0 0 1-.683-.683zm11.702 0c0-.377.306-.682.683-.682h4.876a.682.682 0 1 1 0 1.365h-4.876a.683.683 0 0 1-.683-.683zm11.702 0c0-.377.306-.682.683-.682h4.876a.682.682 0 1 1 0 1.365h-4.876a.683.683 0 0 1-.683-.683zm11.702 0c0-.377.306-.682.683-.682h4.876a.682.682 0 1 1 0 1.365h-4.876a.683.683 0 0 1-.683-.683zm11.702 0c0-.377.306-.682.683-.682h4.876a.682.682 0 1 1 0 1.365h-4.876a.683.683 0 0 1-.683-.683zm11.702 0c0-.377.306-.682.683-.682h4.875a.682.682 0 1 1 0 1.365h-4.875a.683.683 0 0 1-.683-.683zm11.702 0c0-.377.306-.682.683-.682h4.875a.682.682 0 1 1 0 1.365h-4.875a.683.683 0 0 1-.683-.683zm11.702 0c0-.377.306-.682.683-.682h4.875a.682.682 0 1 1 0 1.365h-4.875a.683.683 0 0 1-.683-.683zm11.702 0c0-.377.305-.682.682-.682h4.876a.682.682 0 1 1 0 1.365h-4.876a.682.682 0 0 1-.682-.683zm11.702 0c0-.377.305-.682.682-.682h4.876a.682.682 0 1 1 0 1.365h-4.876a.682.682 0 0 1-.682-.683zm11.702 0c0-.377.305-.682.682-.682h4.876a.682.682 0 1 1 0 1.365h-4.876a.682.682 0 0 1-.682-.683zm11.702 0c0-.377.305-.682.682-.682h4.876a.682.682 0 1 1 0 1.365h-4.876a.682.682 0 0 1-.682-.683zm11.702 0c0-.377.305-.682.682-.682h4.876a.682.682 0 1 1 0 1.365h-4.876a.682.682 0 0 1-.682-.683zm11.702 0c0-.377.305-.682.682-.682h4.876a.682.682 0 1 1 0 1.365h-4.876a.682.682 0 0 1-.682-.683zm11.701 0c0-.377.306-.682.683-.682h4.876a.682.682 0 1 1 0 1.365h-4.876a.683.683 0 0 1-.683-.683zm11.702 0c0-.377.306-.682.683-.682h4.876a.682.682 0 1 1 0 1.365h-4.876a.683.683 0 0 1-.683-.683zm11.702 0c0-.377.306-.682.683-.682h4.876a.682.682 0 1 1 0 1.365h-4.876a.683.683 0 0 1-.683-.683zm11.702 0c0-.377.306-.682.683-.682h4.876a.682.682 0 1 1 0 1.365h-4.876a.683.683 0 0 1-.683-.683zm11.702 0c0-.377.306-.682.683-.682h4.876a.682.682 0 1 1 0 1.365h-4.876a.683.683 0 0 1-.683-.683zm11.702 0c0-.377.306-.682.683-.682h4.876a.682.682 0 1 1 0 1.365h-4.876a.683.683 0 0 1-.683-.683zm11.702 0c0-.377.306-.682.683-.682h4.875a.682.682 0 1 1 0 1.365h-4.875a.683.683 0 0 1-.683-.683z"
        clip-rule="evenodd"
    />
    <path
        fill="#1B1340"
        stroke="#fff"
        stroke-width="1.585"
        d="M226.816 140.632a.397.397 0 0 0 .106-.707l-18.909-12.783a.528.528 0 0 0-.823.472l1.471 22.776a.396.396 0 0 0 .663.267l5.379-4.939 6.355 11.097c.363.633 1.17.853 1.803.49l2.842-1.629a1.321 1.321 0 0 0 .489-1.802l-6.356-11.098 6.98-2.144z"
    />
    <defs>
        <linearGradient id="a" x1="227.5" x2="208.463" y1="35.5" y2="159.732" gradientUnits="userSpaceOnUse">
            <stop stop-color="#EEBEFF" />
            <stop offset="1" stop-color="#6D4AFF" />
        </linearGradient>
        <linearGradient id="b" x1="208.517" x2="240.254" y1="101.701" y2="191.633" gradientUnits="userSpaceOnUse">
            <stop stop-color="#EEBEFF" />
            <stop offset="1" stop-color="#6D4AFF" />
        </linearGradient>
        <linearGradient id="c" x1="224.093" x2="191.141" y1="78.555" y2="130.999" gradientUnits="userSpaceOnUse">
            <stop stop-color="#EAE8E5" />
            <stop offset="1" stop-color="#F5F4F2" />
        </linearGradient>
        <linearGradient id="f" x1="184.616" x2="151.476" y1="40.135" y2="92.88" gradientUnits="userSpaceOnUse">
            <stop stop-color="#EAE8E5" />
            <stop offset="1" stop-color="#F5F4F2" />
        </linearGradient>
        <filter
            id="d"
            width="67.736"
            height="94.195"
            x="153.918"
            y="43.222"
            color-interpolation-filters="sRGB"
            filterUnits="userSpaceOnUse"
        >
            <feFlood flood-opacity="0" result="BackgroundImageFix" />
            <feBlend in="SourceGraphic" in2="BackgroundImageFix" result="shape" />
            <feGaussianBlur result="effect1_foregroundBlur_5741_18644" stdDeviation="13.13" />
        </filter>
    </defs>
</svg>
