<svg xmlns="http://www.w3.org/2000/svg" width="283" height="171" fill="none" viewBox="0 0 283 171">
    <path stroke="#D1CFCD" stroke-dasharray="3 3" stroke-linecap="round" stroke-width="2" d="M25 46.9v14m0 50v14" />
    <path fill="#F5F4F2" d="M0 8.9a8 8 0 0 1 8-8h267a8 8 0 0 1 8 8v26a8 8 0 0 1-8 8H8a8 8 0 0 1-8-8v-26Z" />
    <path
        fill="#5C5958"
        fill-rule="evenodd"
        d="M18 20.12v4.58c0 .58 0 .95.02 1.23.03.27.06.38.09.42a1 1 0 0 0 .44.44c.05.03.15.06.42.09.28.02.65.02 1.23.02h7.6c.58 0 .95 0 1.23-.02.27-.03.37-.06.42-.09a1 1 0 0 0 .44-.44c.03-.05.06-.15.09-.42.02-.28.02-.65.02-1.23v-4.58l-5.21 3.2a1.5 1.5 0 0 1-1.58 0L18 20.13Zm11.98-1.17-5.72 3.52a.5.5 0 0 1-.52 0l-5.72-3.52a5.91 5.91 0 0 1 0-.08c.03-.27.06-.37.09-.42a1 1 0 0 1 .44-.44c.05-.03.15-.06.42-.09.28-.02.65-.02 1.23-.02h7.6c.58 0 .95 0 1.23.02.27.03.37.06.42.09a1 1 0 0 1 .44.44c.03.05.06.15.09.42v.08ZM17.22 18c-.22.43-.22.99-.22 2.11v4.6c0 1.12 0 1.68.22 2.1a2 2 0 0 0 .87.88c.43.22.99.22 2.11.22h7.6c1.12 0 1.68 0 2.1-.22a2 2 0 0 0 .88-.87c.22-.43.22-.99.22-2.11v-4.6c0-1.12 0-1.68-.22-2.1a2 2 0 0 0-.87-.88c-.43-.22-.99-.22-2.11-.22h-7.6c-1.12 0-1.68 0-2.1.22a2 2 0 0 0-.88.87Z"
        clip-rule="evenodd"
    />
    <path
        fill="#5C5958"
        d="M44.82 16.26V27.9H43.4V16.26h1.41Zm3.98 6.39v5.25h-1.34v-8.73h1.3v1.37h.11c.41-.89 1.23-1.48 2.55-1.48 1.76 0 2.95 1.07 2.95 3.3v5.54h-1.34v-5.45c0-1.37-.76-2.19-2-2.19-1.28 0-2.23.87-2.23 2.39Zm14.85-3.48-3.23 8.73h-1.37l-3.22-8.73h1.45l2.41 6.96h.1l2.4-6.96h1.46Zm1.76 8.73v-8.73h1.34v8.73h-1.34Zm.69-10.18c-.53 0-.96-.41-.96-.91s.43-.91.96-.91c.52 0 .95.41.95.91s-.43.9-.95.9Zm6.9 1.45v1.14h-1.86v5.09c0 1.14.57 1.32 1.16 1.32.3 0 .48-.05.6-.07l.27 1.2c-.19.07-.5.16-1 .16-1.14 0-2.37-.72-2.37-2.25v-5.45h-1.32v-1.14h1.32v-2.09h1.34v2.1h1.87Zm4.6 8.94c-1.67 0-2.99-.98-2.99-2.69 0-2 1.77-2.35 3.4-2.56 1.58-.21 2.24-.15 2.24-.8V22c0-1.12-.6-1.77-1.84-1.77-1.28 0-1.98.68-2.27 1.32l-1.28-.45c.69-1.6 2.19-2.05 3.5-2.05 1.12 0 3.23.32 3.23 3.09v5.75h-1.34v-1.18h-.07c-.27.57-1.07 1.39-2.59 1.39Zm.2-1.21c1.59 0 2.45-1.07 2.45-2.16v-1.23c-.23.28-1.75.44-2.32.5-1.04.14-1.97.46-1.97 1.48 0 .93.77 1.41 1.84 1.41Zm10.03-7.73v1.14h-1.86v5.09c0 1.14.57 1.32 1.16 1.32.3 0 .48-.05.6-.07l.26 1.2c-.18.07-.5.16-1 .16-1.13 0-2.36-.72-2.36-2.25v-5.45h-1.32v-1.14h1.32v-2.09h1.34v2.1h1.86Zm2.02 8.73v-8.73h1.34v8.73h-1.34Zm.68-10.18c-.52 0-.95-.41-.95-.91s.43-.91.95-.91c.53 0 .96.41.96.91s-.43.9-.96.9Zm6.66 10.36c-2.36 0-3.95-1.8-3.95-4.5 0-2.72 1.6-4.52 3.95-4.52 2.37 0 3.96 1.8 3.96 4.52 0 2.7-1.6 4.5-3.96 4.5Zm0-1.2c1.8 0 2.62-1.55 2.62-3.3 0-1.75-.82-3.32-2.62-3.32-1.8 0-2.6 1.57-2.6 3.32s.8 3.3 2.6 3.3Zm7.35-4.23v5.25h-1.34v-8.73h1.3v1.37h.1c.41-.89 1.23-1.48 2.55-1.48 1.77 0 2.95 1.07 2.95 3.3v5.54h-1.34v-5.45c0-1.37-.75-2.19-2-2.19-1.28 0-2.22.87-2.22 2.39Zm12.51 5.25v-8.73h1.3v1.32h.1a2.37 2.37 0 0 1 2.26-1.45c.2 0 .56 0 .7.02v1.36a4.1 4.1 0 0 0-.8-.09c-1.28 0-2.21.87-2.21 2.05v5.52h-1.35Zm9.35.18c-2.52 0-4.07-1.8-4.07-4.47 0-2.69 1.57-4.55 3.94-4.55 1.81 0 3.75 1.11 3.75 4.36V24h-6.34c.06 1.87 1.15 2.89 2.72 2.89 1.05 0 1.84-.46 2.18-1.37l1.3.37c-.41 1.32-1.7 2.2-3.48 2.2Zm-2.72-5.25h4.97c0-1.47-.93-2.57-2.38-2.57-1.54 0-2.5 1.21-2.59 2.57Zm11.92 5.25c-2.45 0-3.95-1.88-3.95-4.5 0-2.66 1.56-4.52 3.93-4.52 1.84 0 3.22 1.09 3.45 2.73h-1.34c-.2-.8-.9-1.53-2.09-1.53-1.57 0-2.61 1.3-2.61 3.28 0 2.02 1.02 3.34 2.61 3.34 1.05 0 1.84-.57 2.1-1.52h1.33c-.23 1.54-1.5 2.72-3.43 2.72Zm9.05 0c-2.52 0-4.07-1.8-4.07-4.47 0-2.69 1.57-4.55 3.94-4.55 1.81 0 3.75 1.11 3.75 4.36V24h-6.34c.06 1.87 1.15 2.89 2.72 2.89 1.05 0 1.84-.46 2.18-1.37l1.3.37c-.41 1.32-1.7 2.2-3.48 2.2Zm-2.72-5.25h4.97c0-1.47-.93-2.57-2.38-2.57-1.54 0-2.5 1.21-2.59 2.57Zm8.37 5.07v-8.73h1.35v8.73h-1.35Zm.69-10.18c-.53 0-.96-.41-.96-.91s.43-.91.96-.91c.52 0 .95.41.95.91s-.43.9-.95.9Zm10.25 1.45L158 27.9h-1.36l-3.23-8.73h1.45l2.41 6.96h.1l2.4-6.96h1.46Zm5.11 8.91c-2.52 0-4.06-1.8-4.06-4.47 0-2.69 1.56-4.55 3.93-4.55 1.82 0 3.75 1.11 3.75 4.36V24h-6.34c.07 1.87 1.15 2.89 2.72 2.89 1.06 0 1.85-.46 2.19-1.37l1.3.37c-.42 1.32-1.71 2.2-3.49 2.2Zm-2.72-5.25h4.97c0-1.47-.93-2.57-2.38-2.57-1.54 0-2.5 1.21-2.59 2.57Zm11.67 5.25c-2.18 0-3.7-1.75-3.7-4.52 0-2.75 1.52-4.5 3.73-4.5 1.7 0 2.22 1.05 2.52 1.5h.11v-4.3h1.34V27.9H178v-1.34h-.15c-.3.48-.86 1.52-2.55 1.52Zm.19-1.2c1.6 0 2.5-1.37 2.5-3.34 0-1.96-.87-3.28-2.5-3.28-1.7 0-2.55 1.44-2.55 3.28 0 1.86.86 3.34 2.55 3.34Z"
    />
    <path
        fill="#1EA885"
        fill-rule="evenodd"
        d="M259 28.9a7 7 0 1 0 0-14 7 7 0 0 0 0 14Zm3.85-8.15a.5.5 0 0 0-.7-.7l-3.65 3.64-2.15-2.14a.5.5 0 0 0-.7.7l2.35 2.36a.7.7 0 0 0 1 0l3.85-3.86Z"
        clip-rule="evenodd"
    />
    <path fill="#F5F4F2" d="M0 73a8 8 0 0 1 8-8h267a8 8 0 0 1 8 8v26a8 8 0 0 1-8 8H8a8 8 0 0 1-8-8V73Z" />
    <path
        fill="#5C5958"
        fill-rule="evenodd"
        d="M30 86.2v3.6c0 .58 0 .95-.02 1.23-.03.27-.06.37-.09.42a1 1 0 0 1-.44.44c-.05.03-.15.06-.42.09-.28.02-.65.02-1.23.02h-7.6c-.58 0-.95 0-1.23-.02a1.17 1.17 0 0 1-.42-.09 1 1 0 0 1-.44-.44 1.14 1.14 0 0 1-.09-.42c-.02-.28-.02-.65-.02-1.23v-3.6l5.21 3.21a1.5 1.5 0 0 0 1.58 0L30 86.2Zm0-1.18-5.74 3.54a.5.5 0 0 1-.52 0L18 85.02c0-.2.02-.28.04-.35a1.02 1.02 0 0 1 .15-.32c.06-.08.16-.17.65-.55l3.8-3c.36-.29.6-.47.78-.6a.94.94 0 0 1 .32-.16 1 1 0 0 1 .52 0c.05.01.14.04.31.16.2.13.43.31.8.6l3.8 3c.48.38.57.47.64.55.07.1.12.2.15.33.02.06.03.13.04.34Zm-13 .5c0-.56 0-.85.07-1.11.07-.23.17-.45.32-.65.16-.22.38-.4.83-.75l3.8-3c.7-.55 1.06-.83 1.45-.94a2 2 0 0 1 1.06 0c.39.11.74.39 1.45.95l3.8 3c.45.34.67.52.83.74.15.2.25.42.32.65.07.26.07.55.07 1.12v4.27c0 1.12 0 1.68-.22 2.1a2 2 0 0 1-.87.88c-.43.22-.99.22-2.11.22h-7.6c-1.12 0-1.68 0-2.1-.22a2 2 0 0 1-.88-.87c-.22-.43-.22-.99-.22-2.11v-4.28Z"
        clip-rule="evenodd"
    />
    <path
        fill="#5C5958"
        d="M44.82 80.36V92H43.4V80.36h1.41Zm3.98 6.39V92h-1.34v-8.73h1.3v1.37h.11c.41-.89 1.23-1.48 2.55-1.48 1.76 0 2.95 1.07 2.95 3.3V92h-1.34v-5.45c0-1.37-.76-2.19-2-2.19-1.28 0-2.23.87-2.23 2.39Zm14.85-3.48L60.41 92h-1.37l-3.22-8.73h1.45l2.41 6.96h.1l2.4-6.96h1.46ZM65.41 92v-8.73h1.34V92h-1.34Zm.68-10.18c-.53 0-.96-.41-.96-.91s.43-.91.96-.91c.52 0 .95.41.95.91s-.43.9-.95.9Zm6.9 1.45v1.14h-1.86v5.09c0 1.14.57 1.32 1.16 1.32.3 0 .48-.05.6-.07l.27 1.2c-.19.07-.5.16-1 .16-1.14 0-2.37-.72-2.37-2.25v-5.45h-1.32v-1.14h1.32v-2.09h1.34v2.1H73Zm4.6 8.93c-1.67 0-2.98-.97-2.98-2.68 0-2 1.76-2.35 3.38-2.57 1.6-.2 2.25-.14 2.25-.8v-.04c0-1.12-.6-1.77-1.84-1.77-1.28 0-1.98.68-2.27 1.32l-1.28-.46c.69-1.59 2.19-2.04 3.5-2.04 1.12 0 3.23.32 3.23 3.09V92h-1.34v-1.18h-.07c-.27.57-1.07 1.38-2.59 1.38Zm.2-1.2c1.59 0 2.45-1.07 2.45-2.16v-1.23c-.23.28-1.75.44-2.32.5-1.04.14-1.97.46-1.97 1.48 0 .93.77 1.41 1.84 1.41Zm10.04-7.73v1.14h-1.87v5.09c0 1.14.57 1.32 1.16 1.32.3 0 .48-.05.6-.07l.26 1.2c-.18.07-.5.16-1 .16-1.13 0-2.36-.72-2.36-2.25v-5.45H83.3v-1.14h1.32v-2.09h1.34v2.1h1.87ZM89.84 92v-8.73h1.34V92h-1.34Zm.68-10.18c-.52 0-.95-.41-.95-.91s.43-.91.95-.91c.53 0 .96.41.96.91s-.43.9-.96.9Zm6.66 10.36c-2.36 0-3.95-1.8-3.95-4.5 0-2.73 1.6-4.52 3.96-4.52s3.95 1.8 3.95 4.52c0 2.7-1.6 4.5-3.96 4.5Zm0-1.2c1.8 0 2.62-1.55 2.62-3.3s-.82-3.32-2.61-3.32c-1.8 0-2.62 1.57-2.62 3.32s.82 3.3 2.62 3.3Zm7.35-4.23V92h-1.34v-8.73h1.3v1.37h.1c.41-.89 1.23-1.48 2.55-1.48 1.77 0 2.96 1.07 2.96 3.3V92h-1.35v-5.45c0-1.37-.75-2.19-2-2.19-1.28 0-2.22.87-2.22 2.39Zm15.08 5.45c-1.66 0-2.97-.97-2.97-2.68 0-2 1.76-2.35 3.38-2.57 1.6-.2 2.25-.14 2.25-.8v-.04c0-1.12-.6-1.77-1.84-1.77-1.28 0-1.98.68-2.27 1.32l-1.27-.46c.68-1.59 2.18-2.04 3.5-2.04 1.11 0 3.22.32 3.22 3.09V92h-1.34v-1.18h-.07c-.27.57-1.06 1.38-2.59 1.38Zm.2-1.2c1.6 0 2.46-1.07 2.46-2.16v-1.23c-.22.28-1.75.44-2.32.5-1.04.14-1.97.46-1.97 1.48 0 .93.77 1.41 1.84 1.41Zm9.8 1.18c-2.46 0-3.96-1.88-3.96-4.5 0-2.66 1.57-4.52 3.93-4.52 1.85 0 3.23 1.09 3.46 2.73h-1.34c-.2-.8-.91-1.53-2.1-1.53-1.56 0-2.6 1.3-2.6 3.28 0 2.02 1.02 3.34 2.6 3.34 1.05 0 1.85-.57 2.1-1.53h1.34c-.23 1.55-1.5 2.73-3.43 2.73Zm8.93 0c-2.45 0-3.95-1.88-3.95-4.5 0-2.66 1.57-4.52 3.93-4.52 1.84 0 3.23 1.09 3.46 2.73h-1.35c-.2-.8-.9-1.53-2.09-1.53-1.56 0-2.61 1.3-2.61 3.28 0 2.02 1.02 3.34 2.61 3.34 1.05 0 1.84-.57 2.1-1.53h1.34c-.23 1.55-1.5 2.73-3.44 2.73Zm9.05 0c-2.52 0-4.06-1.8-4.06-4.48 0-2.68 1.56-4.54 3.93-4.54 1.82 0 3.75 1.11 3.75 4.36v.57h-6.34c.07 1.87 1.15 2.89 2.72 2.89 1.06 0 1.85-.46 2.19-1.37l1.3.37c-.42 1.32-1.71 2.2-3.49 2.2Zm-2.72-5.25h4.97c0-1.48-.93-2.57-2.38-2.57-1.54 0-2.5 1.21-2.59 2.57Zm8.38 8.34v-12h1.3v1.39h.15c.3-.46.82-1.5 2.53-1.5 2.2 0 3.72 1.75 3.72 4.5 0 2.77-1.52 4.52-3.7 4.52-1.68 0-2.25-1.04-2.55-1.52h-.11v4.61h-1.34Zm1.32-7.63c0 1.97.88 3.34 2.5 3.34 1.68 0 2.54-1.48 2.54-3.34 0-1.84-.84-3.28-2.54-3.28-1.64 0-2.5 1.32-2.5 3.28Zm12.22-4.37v1.14h-1.86v5.09c0 1.14.57 1.32 1.16 1.32.3 0 .48-.05.59-.07l.27 1.2c-.18.07-.5.16-1 .16-1.13 0-2.36-.72-2.36-2.25v-5.45h-1.32v-1.14h1.32v-2.09h1.34v2.1h1.86Zm5.59 8.91c-2.53 0-4.07-1.8-4.07-4.48 0-2.68 1.57-4.54 3.93-4.54 1.82 0 3.75 1.11 3.75 4.36v.57h-6.34c.07 1.87 1.15 2.89 2.73 2.89 1.05 0 1.84-.46 2.18-1.37l1.3.37c-.42 1.32-1.71 2.2-3.48 2.2Zm-2.72-5.25h4.97c0-1.48-.93-2.57-2.39-2.57-1.53 0-2.5 1.21-2.58 2.57Zm11.67 5.25c-2.19 0-3.7-1.75-3.7-4.52 0-2.75 1.51-4.5 3.72-4.5 1.7 0 2.22 1.04 2.52 1.5h.11v-4.3h1.34V92h-1.29v-1.34h-.16c-.3.48-.86 1.52-2.54 1.52Zm.18-1.2c1.61 0 2.5-1.37 2.5-3.34 0-1.96-.87-3.28-2.5-3.28-1.7 0-2.55 1.44-2.55 3.28 0 1.86.86 3.34 2.55 3.34Z"
    />
    <path
        fill="#1EA885"
        fill-rule="evenodd"
        d="M259 93a7 7 0 1 0 0-14 7 7 0 0 0 0 14Zm3.85-8.15a.5.5 0 0 0-.7-.7l-3.65 3.64-2.15-2.14a.5.5 0 0 0-.7.7l2.35 2.36a.7.7 0 0 0 1 0l3.85-3.86Z"
        clip-rule="evenodd"
    />
    <path fill="#F5F4F2" d="M0 136.9a8 8 0 0 1 8-8h267a8 8 0 0 1 8 8v26a8 8 0 0 1-8 8H8a8 8 0 0 1-8-8v-26Z" />
    <path
        fill="#5C5958"
        fill-rule="evenodd"
        d="M22.19 144.83a4.87 4.87 0 1 1 1.88 8.06l-.37-.13-.27.28-.65.65H21.3a.63.63 0 0 0-.63.63v1.1h-1.1a.63.63 0 0 0-.63.63v1.1h-2.2v-2.57l4.11-4.1.28-.28-.13-.37a4.87 4.87 0 0 1 1.18-5Zm7.77-.89a6.12 6.12 0 0 0-10.25 5.9l-3.85 3.85a1.24 1.24 0 0 0-.36.88v3.2a.63.63 0 0 0 .63.63h2.84a1.24 1.24 0 0 0 1.24-1.24v-.49h1.1a.63.63 0 0 0 .63-.63v-1.1h1.1a.63.63 0 0 0 .44-.18l.57-.57a6.12 6.12 0 0 0 5.9-10.25Zm-3.07 4.34a1.26 1.26 0 1 0 0-2.53 1.26 1.26 0 0 0 0 2.53Z"
        clip-rule="evenodd"
    />
    <path
        fill="#5C5958"
        d="M43.15 155.9v-11.64h7.45v1.77h-5.34v3.16h4.83v1.77h-4.83v4.94h-2.11Zm9.28 0v-8.73h2.06v8.73h-2.06Zm1.04-9.97c-.66 0-1.2-.5-1.2-1.1 0-.63.54-1.13 1.2-1.13.65 0 1.18.5 1.18 1.12 0 .61-.53 1.11-1.18 1.11Zm5.19 4.86v5.11H56.6v-8.73h1.97v1.49h.1c.4-.98 1.3-1.6 2.6-1.6 1.8 0 3 1.2 3 3.28v5.56H62.2v-5.24c0-1.16-.64-1.86-1.7-1.86-1.09 0-1.85.72-1.85 1.99Zm10.2 5.29c-1.66 0-2.91-.91-2.91-2.63 0-1.96 1.61-2.47 3.3-2.65 1.55-.17 2.17-.2 2.17-.79v-.03c0-.86-.53-1.35-1.48-1.35-1 0-1.59.52-1.8 1.11l-1.91-.27c.45-1.6 1.86-2.41 3.7-2.41 1.66 0 3.54.7 3.54 3v5.84H71.5v-1.2h-.07c-.38.73-1.2 1.38-2.57 1.38Zm.54-1.52c1.24 0 2.02-.82 2.02-1.79v-1.03c-.26.22-1.34.35-1.88.43-.92.13-1.61.46-1.61 1.25 0 .75.61 1.15 1.47 1.15Zm8.2-10.3v11.64h-2.06v-11.64h2.06Zm8.6 11.82c-1.67 0-2.93-.91-2.93-2.63 0-1.96 1.62-2.47 3.32-2.65 1.54-.17 2.16-.2 2.16-.79v-.03c0-.86-.53-1.35-1.48-1.35-1 0-1.59.52-1.8 1.11l-1.91-.27c.45-1.6 1.86-2.41 3.7-2.41 1.66 0 3.54.7 3.54 3v5.84h-1.98v-1.2h-.06c-.38.73-1.2 1.38-2.57 1.38Zm.53-1.52c1.24 0 2.02-.82 2.02-1.79v-1.03c-.27.22-1.35.35-1.89.43-.92.13-1.6.46-1.6 1.25 0 .75.6 1.15 1.47 1.15Zm6.14 4.61v-12h2.02v1.45h.12a2.6 2.6 0 0 1 2.5-1.56c2.01 0 3.6 1.58 3.6 4.49 0 2.87-1.54 4.5-3.6 4.5-1.5 0-2.17-.89-2.5-1.52h-.08v4.64h-2.06Zm2.02-7.63c0 1.69.74 2.83 2.05 2.83 1.36 0 2.07-1.2 2.07-2.83 0-1.63-.7-2.8-2.07-2.8-1.33 0-2.05 1.1-2.05 2.8Zm7.98 7.63v-12h2.02v1.45h.12a2.6 2.6 0 0 1 2.5-1.56c2.01 0 3.6 1.58 3.6 4.49 0 2.87-1.54 4.5-3.6 4.5-1.5 0-2.17-.89-2.5-1.52h-.08v4.64h-2.06Zm2.02-7.63c0 1.69.74 2.83 2.05 2.83 1.36 0 2.07-1.2 2.07-2.83 0-1.63-.7-2.8-2.07-2.8-1.33 0-2.05 1.1-2.05 2.8Zm7.98 4.36v-8.73h2v1.46h.09a2.18 2.18 0 0 1 2.15-1.58c.23 0 .55.02.74.05v1.9a3.83 3.83 0 0 0-.96-.12c-1.13 0-1.96.78-1.96 1.89v5.13h-2.06Zm9.8.17c-2.57 0-4.2-1.8-4.2-4.5s1.63-4.51 4.2-4.51c2.55 0 4.17 1.8 4.17 4.51 0 2.7-1.62 4.5-4.18 4.5Zm0-1.65c1.4 0 2.09-1.26 2.09-2.85 0-1.6-.7-2.88-2.09-2.88-1.41 0-2.1 1.28-2.1 2.88 0 1.6.69 2.85 2.1 2.85Zm13.42-7.25-3.11 8.73h-2.27l-3.11-8.73h2.2l2 6.49h.09l2-6.49h2.2Zm3.68 8.9c-1.66 0-2.92-.9-2.92-2.62 0-1.96 1.62-2.47 3.31-2.65 1.54-.17 2.16-.2 2.16-.79v-.03c0-.86-.52-1.35-1.47-1.35-1.01 0-1.59.52-1.8 1.11l-1.91-.27c.45-1.6 1.86-2.41 3.7-2.41 1.66 0 3.54.7 3.54 3v5.84h-1.98v-1.2h-.07c-.37.73-1.19 1.38-2.56 1.38Zm.54-1.5c1.23 0 2.02-.83 2.02-1.8v-1.03c-.27.22-1.35.35-1.89.43-.92.13-1.6.46-1.6 1.25 0 .75.6 1.15 1.46 1.15Zm8.2-10.3v11.63h-2.06v-11.64h2.05Zm6.08 14.9v-12h2.02v1.45h.12a2.6 2.6 0 0 1 2.5-1.56c2.01 0 3.6 1.58 3.6 4.49 0 2.87-1.54 4.5-3.6 4.5-1.5 0-2.18-.89-2.5-1.52h-.08v4.64h-2.06Zm2.02-7.63c0 1.69.73 2.83 2.05 2.83 1.35 0 2.07-1.2 2.07-2.83 0-1.63-.7-2.8-2.07-2.8-1.33 0-2.05 1.1-2.05 2.8Zm11.84 4.53c-2.63 0-4.24-1.74-4.24-4.48 0-2.7 1.63-4.53 4.13-4.53 2.15 0 4 1.35 4 4.4v.64h-6.09c.02 1.5.9 2.37 2.23 2.37.89 0 1.57-.39 1.85-1.13l1.92.22c-.37 1.52-1.76 2.51-3.8 2.51Zm-2.2-5.36h4.11c-.01-1.19-.8-2.05-1.99-2.05a2.1 2.1 0 0 0-2.11 2.05Zm9.88.08v5.11h-2.06v-8.73h1.97v1.49h.1c.4-.98 1.3-1.6 2.6-1.6 1.8 0 3 1.2 3 3.28v5.56h-2.06v-5.24c0-1.16-.64-1.86-1.7-1.86-1.09 0-1.85.72-1.85 1.99Zm10.93 5.26c-2.06 0-3.6-1.63-3.6-4.5 0-2.91 1.59-4.5 3.6-4.5a2.6 2.6 0 0 1 2.5 1.57h.09v-4.36h2.06v11.64h-2.02v-1.38h-.13c-.32.64-1 1.53-2.5 1.53Zm.58-1.68c1.3 0 2.05-1.14 2.05-2.83 0-1.7-.73-2.8-2.05-2.8-1.37 0-2.08 1.17-2.08 2.8s.72 2.83 2.08 2.83Zm6.26 1.53v-8.73h2.06v8.73h-2.06Zm1.04-9.97c-.66 0-1.2-.5-1.2-1.1 0-.63.54-1.13 1.2-1.13.65 0 1.18.5 1.18 1.12 0 .61-.53 1.11-1.18 1.11Zm5.19 4.86v5.11h-2.06v-8.73h1.97v1.49h.1c.4-.98 1.3-1.6 2.6-1.6 1.8 0 3 1.2 3 3.28v5.56h-2.06v-5.24c0-1.16-.64-1.86-1.7-1.86-1.09 0-1.85.72-1.85 1.99Zm11.49 8.57c-2.22 0-3.48-.99-3.85-2.21l1.85-.45c.25.51.8 1.1 2.03 1.1 1.17 0 2.02-.53 2.02-1.81v-1.66h-.1c-.32.64-1.02 1.44-2.5 1.44-2.02 0-3.6-1.42-3.6-4.26 0-2.87 1.58-4.45 3.6-4.45a2.6 2.6 0 0 1 2.5 1.56h.12v-1.45h2.02v8.87c0 2.23-1.73 3.31-4.1 3.31Zm.01-5.2c1.32 0 2.06-1 2.06-2.66 0-1.66-.73-2.75-2.06-2.75-1.36 0-2.07 1.16-2.07 2.75 0 1.6.72 2.66 2.07 2.66Z"
    />
    <path
        fill="#F90"
        fill-rule="evenodd"
        d="M267 149.9a7 7 0 1 1-14 0 7 7 0 0 1 14 0Zm-4.85 2.85a.5.5 0 0 0 .7-.7l-2.35-2.36v-3.79a.5.5 0 0 0-1 0v4c0 .13.05.26.15.35l2.5 2.5Z"
        clip-rule="evenodd"
    />
</svg>
