<svg xmlns="http://www.w3.org/2000/svg" width="179" height="170" fill="none" viewBox="0 0 179 170">
    <path
        fill="url(#a)"
        d="M89.98 134.57H20.23v25.83c0 5.03 4.25 9.17 9.52 9.17h120.97c5.22 0 9.51-4.1 9.51-9.17v-25.83H89.98Z"
    />
    <g filter="url(#b)">
        <path
            fill="url(#c)"
            d="M160.17 134.44 147.9 34.37c-.33-2.72-2.99-4.8-6.12-4.8H38.69c-3.13 0-5.79 2.08-6.12 4.8L20.3 134.44c-.65 5.41 4.2 10.13 10.45 10.13h118.98c6.25.04 11.15-4.68 10.45-10.13Z"
        />
    </g>
    <path
        fill="#fff"
        d="M142.14 160.02a3.14 3.14 0 0 0 3.2-3.07c0-1.7-1.43-3.07-3.2-3.07s-3.21 1.37-3.21 3.07c0 1.7 1.43 3.07 3.2 3.07Z"
    />
    <g filter="url(#d)">
        <path
            fill="url(#e)"
            d="m151.94 108.83-8.32-73c-.14-1.2-1.26-2.07-2.6-2.07H39.03c-1.35 0-2.47.91-2.6 2.08l-8.29 73c-.32 2.82 2.14 5.23 5.3 5.23h113.2c3.16 0 5.62-2.45 5.3-5.24Z"
        />
    </g>
    <path
        fill="url(#f)"
        fill-rule="evenodd"
        d="M118.52 61.14v-.08c0-2.22-1.92-4.01-4.3-4.01H89.44a8.53 8.53 0 0 1-4.81-1.48l-4.13-2.83a3.74 3.74 0 0 0-2.11-.64h-8.92a4.2 4.2 0 0 0-4.3 3.8h5.09c1.54 0 3.04.44 4.29 1.27l5.55 3.69a2.97 2.97 0 0 0 1.66.49h23.7c2.46 0 4.48 1.82 4.57 4.11l.98 26.19h5.5c2.35 0 4.25-1.76 4.3-3.94l-2.29-26.57Zm4.57 26.5c0 3.4-2.94 6.14-6.58 6.14H66.54c-3.82 0-6.88-2.88-6.57-6.59l2.55-31.32c.12-3.3 3.4-5.9 6.95-5.9h8.92a6.1 6.1 0 0 1 3.46 1.05l4.13 2.83a6.13 6.13 0 0 0 3.46 1.06h24.78c3.64 0 6.59 2.75 6.59 6.15l2.28 26.58Z"
        clip-rule="evenodd"
    />
    <mask id="i" width="141" height="116" x="20" y="29" maskUnits="userSpaceOnUse" style="mask-type: alpha">
        <path
            fill="url(#g)"
            d="M160.17 134.44 147.9 34.37c-.33-2.72-2.98-4.8-6.11-4.8H38.69c-3.14 0-5.8 2.08-6.12 4.8L20.3 134.44c-.66 5.41 4.2 10.13 10.45 10.13h118.97c6.25.04 11.15-4.68 10.45-10.13Z"
        />
    </mask>
    <g filter="url(#h)" mask="url(#i)" opacity=".2">
        <path
            fill="#221548"
            fill-rule="evenodd"
            d="M165.24 79.57a35 35 0 1 0 0-70 35 35 0 0 0 0 70Z"
            clip-rule="evenodd"
        />
    </g>
    <path fill="url(#j)" d="M118.7 30.58a30.15 30.15 0 1 1 60.3 0 30.15 30.15 0 0 1-60.3 0Z" />
    <path
        fill="#fff"
        fill-rule="evenodd"
        d="M162.32 22.1c.8.76.8 2 .01 2.76l-14.6 14.19a2.06 2.06 0 0 1-1.45.58 2.06 2.06 0 0 1-1.43-.58l-7.48-7.26a1.9 1.9 0 0 1-.43-2.13c.1-.24.26-.45.44-.63a2.08 2.08 0 0 1 2.87 0l6.03 5.88 13.18-12.8a2.08 2.08 0 0 1 2.86-.01Z"
        clip-rule="evenodd"
    />
    <defs>
        <linearGradient id="a" x1="-15.88" x2="199.88" y1="151.89" y2="159.52" gradientUnits="userSpaceOnUse">
            <stop stop-color="#E8A8FF" />
            <stop offset="1" stop-color="#6A45FF" />
        </linearGradient>
        <linearGradient id="c" x1="138.29" x2="26.27" y1="20.17" y2="143.73" gradientUnits="userSpaceOnUse">
            <stop offset=".42" stop-color="#AB96FF" />
            <stop offset="1" stop-color="#F1CCFF" />
        </linearGradient>
        <linearGradient id="e" x1="132.56" x2="58.16" y1="27.19" y2="131.15" gradientUnits="userSpaceOnUse">
            <stop stop-color="#FAF9FF" />
            <stop offset="1" stop-color="#FFFDFF" />
        </linearGradient>
        <linearGradient id="f" x1="147.88" x2="56.73" y1="26.9" y2="164.07" gradientUnits="userSpaceOnUse">
            <stop offset=".42" stop-color="#8161FF" />
            <stop offset="1" stop-color="#E499FF" />
        </linearGradient>
        <linearGradient id="g" x1="138.3" x2="26.27" y1="20.17" y2="143.73" gradientUnits="userSpaceOnUse">
            <stop offset=".42" stop-color="#AB96FF" />
            <stop offset="1" stop-color="#F1CCFF" />
        </linearGradient>
        <linearGradient id="j" x1="151.97" x2="152.25" y1="-3.97" y2="60.73" gradientUnits="userSpaceOnUse">
            <stop stop-color="#2AF091" />
            <stop offset="1" stop-color="#00C5A1" />
        </linearGradient>
        <filter
            id="b"
            width="140"
            height="115"
            x="20.23"
            y="29.57"
            color-interpolation-filters="sRGB"
            filterUnits="userSpaceOnUse"
        >
            <feFlood flood-opacity="0" result="BackgroundImageFix" />
            <feBlend in="SourceGraphic" in2="BackgroundImageFix" result="shape" />
            <feColorMatrix in="SourceAlpha" result="hardAlpha" values="0 0 0 0 0 0 0 0 0 0 0 0 0 0 0 0 0 0 127 0" />
            <feOffset dy="-5" />
            <feComposite in2="hardAlpha" k2="-1" k3="1" operator="arithmetic" />
            <feColorMatrix values="0 0 0 0 1 0 0 0 0 1 0 0 0 0 1 0 0 0 0.57 0" />
            <feBlend in2="shape" result="effect1_innerShadow_3433_8908" />
        </filter>
        <filter
            id="d"
            width="123.85"
            height="81.56"
            x="28.13"
            y="33.76"
            color-interpolation-filters="sRGB"
            filterUnits="userSpaceOnUse"
        >
            <feFlood flood-opacity="0" result="BackgroundImageFix" />
            <feBlend in="SourceGraphic" in2="BackgroundImageFix" result="shape" />
            <feColorMatrix in="SourceAlpha" result="hardAlpha" values="0 0 0 0 0 0 0 0 0 0 0 0 0 0 0 0 0 0 127 0" />
            <feOffset dy="1.25" />
            <feGaussianBlur stdDeviation="1.25" />
            <feComposite in2="hardAlpha" k2="-1" k3="1" operator="arithmetic" />
            <feColorMatrix values="0 0 0 0 0.427451 0 0 0 0 0.290196 0 0 0 0 1 0 0 0 0.5 0" />
            <feBlend in2="shape" result="effect1_innerShadow_3433_8908" />
        </filter>
        <filter
            id="h"
            width="110"
            height="110"
            x="110.24"
            y="-10.43"
            color-interpolation-filters="sRGB"
            filterUnits="userSpaceOnUse"
        >
            <feFlood flood-opacity="0" result="BackgroundImageFix" />
            <feBlend in="SourceGraphic" in2="BackgroundImageFix" result="shape" />
            <feGaussianBlur result="effect1_foregroundBlur_3433_8908" stdDeviation="10" />
        </filter>
    </defs>
</svg>
