<svg width="195" height="105" fill="none" xmlns="http://www.w3.org/2000/svg">
    <path
        d="M191.85 104.206H2.907c-1.63 0-2.907-1.269-2.907-2.89v-1.621c0-1.621 1.276-2.89 2.907-2.89H191.85c1.631 0 2.907 1.268 2.907 2.89v1.621c0 1.621-1.347 2.89-2.907 2.89Z"
        fill="url(#a)"
    />
    <path
        d="M105.779 100.893H88.197a4.027 4.027 0 0 1-4.04-4.018h25.663a4.027 4.027 0 0 1-4.041 4.018Z"
        fill="#D1CFCD"
    />
    <path
        d="M174.57 96.805H18.765V8.459C18.765 3.807 22.594 0 27.273 0h138.79c4.679 0 8.507 3.807 8.507 8.46v88.345Z"
        fill="#372580"
    />
    <path
        d="M167.979 96.805H26.07V9.799c0-1.128.922-2.045 2.056-2.045h137.726c1.135 0 2.056.917 2.056 2.045v87.006h.071Z"
        fill="#fff"
    />
    <mask id="b" style="mask-type: alpha" maskUnits="userSpaceOnUse" x="49" y="2" width="125" height="80">
        <path d="M173.044 2.264H61.787l-11.943 78.75 123.2-22.71V2.264Z" fill="#C4C4C4" />
    </mask>
    <g opacity=".3" filter="url(#c)" mask="url(#b)">
        <path d="m136.65-19.248 53.994 12.456v43.766c-29.395 1.401-53.994-22.054-53.994-51.482v-4.74Z" fill="#221548" />
    </g>
    <path
        d="M123.492 52.409c0-14.163-11.554-25.645-25.717-25.645-14.244 0-25.865 11.547-25.865 25.791v25.498h25.938c14.163 0 25.644-11.481 25.644-25.644Z"
        fill="url(#d)"
    />
    <path
        d="M102.355 45.008a.936.936 0 0 0 0 1.872v-1.872Zm4.237.936v-.936.936Zm.471-.468h.936-.936Zm.936-4.213a.936.936 0 1 0-1.872 0h1.872Zm-21.56 23.17a.936.936 0 0 0 1.873 0h-1.873Zm.937-4.213h.936-.936Zm.47-.468v.936-.936Zm4.237.936a.936.936 0 1 0 0-1.872v1.872ZM89.7 60.46a.936.936 0 0 0-1.32 1.328l1.32-1.328Zm15.324-15.223a.936.936 0 1 0 1.32-1.328l-1.32 1.328Zm-20.362 7.209a.936.936 0 1 0 1.872.06l-1.872-.06Zm25.405.276a.936.936 0 1 0-1.872.019l1.872-.019Zm-7.712-5.842h4.237v-1.872h-4.237v1.872Zm5.644-1.404v-4.213h-1.872v4.213h1.872Zm-1.407 1.404c.772 0 1.407-.623 1.407-1.404h-1.872c0-.263.213-.468.465-.468v1.872Zm-18.28 17.553V60.22h-1.873v4.213h1.873Zm-.466-3.745h4.237v-1.872h-4.237v1.872Zm.466-.468a.467.467 0 0 1-.466.468v-1.872c-.772 0-1.407.623-1.407 1.404h1.873Zm16.712.24c-4.231 4.207-11.093 4.207-15.324 0l-1.32 1.328c4.96 4.933 13.003 4.933 17.964 0l-1.32-1.328ZM89.7 45.237c4.23-4.207 11.093-4.207 15.324 0l1.32-1.328c-4.961-4.933-13.003-4.933-17.965 0l1.32 1.328Zm-3.166 7.269a10.694 10.694 0 0 1 3.166-7.269l-1.32-1.328a12.566 12.566 0 0 0-3.718 8.537l1.872.06Zm21.661.235a10.694 10.694 0 0 1-3.171 7.719l1.32 1.328a12.568 12.568 0 0 0 3.723-9.066l-1.872.019Z"
        fill="#fff"
    />
    <defs>
        <linearGradient id="a" x1="45.936" y1="100.823" x2="-74.516" y2="104.245" gradientUnits="userSpaceOnUse">
            <stop stop-color="#EAE8E5" />
            <stop offset="1" stop-color="#372580" />
        </linearGradient>
        <linearGradient id="d" x1="75.878" y1="11.476" x2="93.055" y2="73.172" gradientUnits="userSpaceOnUse">
            <stop stop-color="#4CFED3" />
            <stop offset="1" stop-color="#00C1FE" />
        </linearGradient>
        <filter
            id="c"
            x="109.95"
            y="-45.948"
            width="107.394"
            height="109.681"
            filterUnits="userSpaceOnUse"
            color-interpolation-filters="sRGB"
        >
            <feFlood flood-opacity="0" result="BackgroundImageFix" />
            <feBlend in="SourceGraphic" in2="BackgroundImageFix" result="shape" />
            <feGaussianBlur stdDeviation="13.35" result="effect1_foregroundBlur_8876_6590" />
        </filter>
    </defs>
</svg>
