<svg xmlns="http://www.w3.org/2000/svg" width="210" height="160" fill="none" viewBox="0 0 210 160">
  <path fill="url(#paint0_linear_5741_18675)" d="M138.014 44.23H75.758a7.391 7.391 0 00-6.932 4.823L50.57 98.261a14.074 14.074 0 00-.879 4.894v28.848a8.085 8.085 0 008.087 8.087h98.207a8.096 8.096 0 005.718-2.369 8.08 8.08 0 002.369-5.718v-28.848a14.09 14.09 0 00-.879-4.894L144.94 49.053a7.395 7.395 0 00-6.926-4.822z"/>
  <path fill="#6745F3" d="M155.07 94.385l-15.488-43.128a2.79 2.79 0 00-2.628-1.846H76.816a2.789 2.789 0 00-2.628 1.846l-15.49 43.128a3.307 3.307 0 003.112 4.425h18.652a3.855 3.855 0 013.586 2.44l3.305 8.369a3.853 3.853 0 003.586 2.438h31.887a3.86 3.86 0 003.586-2.438l3.303-8.369a3.863 3.863 0 013.588-2.44h18.649a3.314 3.314 0 002.708-1.403 3.301 3.301 0 00.41-3.022z"/>
  <path fill="url(#paint1_linear_5741_18675)" fill-opacity=".35" d="M133.686 73.173a2.392 2.392 0 00-2.291-1.695h-49.02a2.396 2.396 0 00-2.291 1.695l-7.846 25.63h8.22a3.854 3.854 0 013.585 2.44l3.306 8.368a3.851 3.851 0 003.586 2.44h31.887a3.853 3.853 0 003.586-2.437l3.303-8.369a3.851 3.851 0 013.588-2.44h8.22l-7.833-25.632z"/>
  <path fill="#BEB8FF" d="M155.07 94.385a3.312 3.312 0 01-.409 3.02 3.302 3.302 0 01-2.705 1.405h-18.65a3.855 3.855 0 00-3.588 2.44l-3.303 8.369a3.858 3.858 0 01-3.585 2.44H90.942a3.856 3.856 0 01-3.585-2.44l-3.306-8.369a3.853 3.853 0 00-3.586-2.44H61.813a3.307 3.307 0 01-3.112-4.425 5.195 5.195 0 004.755 7.299H79.47a2.876 2.876 0 012.644 1.744l3.35 7.804a6.621 6.621 0 006.089 4.012h30.65a6.624 6.624 0 006.086-4.012l3.35-7.804a2.878 2.878 0 012.646-1.744H150.3a5.197 5.197 0 004.77-7.3z"/>
  <path fill="url(#paint2_linear_5741_18675)" d="M182 36.462c0-14.062-11.399-25.461-25.461-25.461s-25.462 11.4-25.462 25.461c0 14.062 11.4 25.462 25.462 25.462S182 50.524 182 36.462z"/>
  <path fill="#fff" fill-rule="evenodd" d="M156.539 6.371c16.619 0 30.091 13.472 30.091 30.09 0 16.62-13.472 30.092-30.091 30.092s-30.091-13.472-30.091-30.091S139.92 6.372 156.539 6.37zm0 4.63c14.062 0 25.462 11.399 25.462 25.46 0 14.063-11.4 25.462-25.462 25.462s-25.461-11.4-25.461-25.461C131.078 22.4 142.477 11 156.539 11z" clip-rule="evenodd"/>
  <path fill="#fff" fill-rule="evenodd" d="M169.715 27.903c.945.938.951 2.465.014 3.41l-14.697 14.852a2.41 2.41 0 01-3.42 0l-7.105-7.183a2.413 2.413 0 01.014-3.41 2.406 2.406 0 013.406.013l5.395 5.457 12.987-13.126a2.406 2.406 0 013.406-.013z" clip-rule="evenodd"/>
  <path fill="#F2EFE8" d="M72.953 22.077a5.538 5.538 0 100-11.077 5.538 5.538 0 000 11.077zM57.446 49.77l-8.861-3.273-4.079-1.51-1.51-4.079-3.273-8.861-3.273 8.861-1.51 4.079-4.078 1.51L22 49.77l8.861 3.273 4.079 1.51 1.51 4.078 3.273 8.862 3.273-8.862 1.51-4.078 4.078-1.51 8.862-3.273z"/>
  <defs>
    <linearGradient id="paint0_linear_5741_18675" x1="-30.371" x2="112.278" y1="122.683" y2="18.994" gradientUnits="userSpaceOnUse">
      <stop offset=".12" stop-color="#EEBEFF"/>
      <stop offset="1" stop-color="#6D4AFF"/>
    </linearGradient>
    <linearGradient id="paint1_linear_5741_18675" x1="87.354" x2="167.666" y1="136.168" y2="54.205" gradientUnits="userSpaceOnUse">
      <stop stop-color="#17036B" stop-opacity="0"/>
      <stop offset="1" stop-color="#17036B"/>
    </linearGradient>
    <linearGradient id="paint2_linear_5741_18675" x1="156.539" x2="156.539" y1="11.001" y2="61.924" gradientUnits="userSpaceOnUse">
      <stop stop-color="#2AF091"/>
      <stop offset="1" stop-color="#00C5A1"/>
    </linearGradient>
  </defs>
</svg>
