<svg xmlns="http://www.w3.org/2000/svg" width="238" height="140" fill="none" viewBox="0 0 238 140">
  <path fill="#E1E4F5" d="M190.581 93.998a5.583 5.583 0 100-11.167 5.583 5.583 0 000 11.167zM53.166 23.915l-7.291-2.693-3.356-1.243-1.243-3.355-2.693-7.292-2.693 7.292-1.243 3.355-3.355 1.243L24 23.915l7.292 2.693 3.355 1.243 1.243 3.356 2.693 7.291 2.693-7.291 1.243-3.356 3.356-1.243 7.291-2.693z"/>
  <path fill="url(#paint0_linear_5741_18669)" d="M77.374 139.999h85.749L174.498 3.5H65.999l11.375 136.499z"/>
  <path fill="url(#paint1_linear_5741_18669)" fill-opacity=".5" d="M67.458 30.625l103.424 23.624L173.975 7H65.971l1.487 23.625z"/>
  <g filter="url(#filter0_d_5741_18669)">
    <path fill="url(#paint2_linear_5741_18669)" d="M117.332 31.5a2.625 2.625 0 115.25 0v80.499a2.625 2.625 0 11-5.25 0V31.5z"/>
  </g>
  <g filter="url(#filter1_d_5741_18669)">
    <path fill="#6541EF" d="M147.247 31.654a2.62 2.62 0 115.236.267l-4.107 80.506a2.62 2.62 0 11-5.236-.267l4.107-80.506z"/>
  </g>
  <g filter="url(#filter2_d_5741_18669)">
    <path fill="url(#paint3_linear_5741_18669)" d="M87.724 31.63a2.622 2.622 0 015.236-.267l4.107 80.506a2.622 2.622 0 01-5.236.267L87.724 31.63z"/>
  </g>
  <path fill="url(#paint4_linear_5741_18669)" d="M124.682 128.494h109.127c2.133 0 3.849 1.49 3.849 3.342V140H120.832v-8.164c0-1.852 1.717-3.342 3.85-3.342z"/>
  <path fill="url(#paint5_linear_5741_18669)" d="M167.101 128.54c2.387-4.107 6.899-6.887 12.094-6.887 5.194 0 9.706 2.78 12.093 6.887h8.212c-2.834-8.239-10.861-14.208-20.305-14.208-9.445 0-17.446 5.969-20.305 14.208h8.211z"/>
  <rect width="117.249" height="8.75" x="61.333" fill="url(#paint6_linear_5741_18669)" rx="3.5"/>
  <defs>
    <linearGradient id="paint0_linear_5741_18669" x1="18.312" x2="170.56" y1="42" y2="14.875" gradientUnits="userSpaceOnUse">
      <stop offset=".129" stop-color="#EEBEFF"/>
      <stop offset="1" stop-color="#6D4AFF"/>
    </linearGradient>
    <linearGradient id="paint1_linear_5741_18669" x1="102.167" x2="96.995" y1="-22.166" y2="32.674" gradientUnits="userSpaceOnUse">
      <stop stop-color="#200F66"/>
      <stop offset="1" stop-color="#200F66" stop-opacity="0"/>
    </linearGradient>
    <linearGradient id="paint2_linear_5741_18669" x1="122.582" x2="119.957" y1="238.873" y2="39.812" gradientUnits="userSpaceOnUse">
      <stop stop-color="#EEBEFF"/>
      <stop offset="1" stop-color="#6D4AFF"/>
    </linearGradient>
    <linearGradient id="paint3_linear_5741_18669" x1="90.645" x2="90.645" y1="165.811" y2="27.125" gradientUnits="userSpaceOnUse">
      <stop stop-color="#EEBEFF"/>
      <stop offset="1" stop-color="#6D4AFF"/>
    </linearGradient>
    <linearGradient id="paint4_linear_5741_18669" x1="175.263" x2="261.112" y1="117.431" y2="136.902" gradientUnits="userSpaceOnUse">
      <stop offset=".129" stop-color="#EEBEFF"/>
      <stop offset="1" stop-color="#6D4AFF"/>
    </linearGradient>
    <linearGradient id="paint5_linear_5741_18669" x1="141.041" x2="218.072" y1="118.339" y2="88.786" gradientUnits="userSpaceOnUse">
      <stop offset=".129" stop-color="#EEBEFF"/>
      <stop offset="1" stop-color="#6D4AFF"/>
    </linearGradient>
    <linearGradient id="paint6_linear_5741_18669" x1="63.032" x2="201.727" y1="-51.187" y2="1.602" gradientUnits="userSpaceOnUse">
      <stop offset=".129" stop-color="#EEBEFF"/>
      <stop offset="1" stop-color="#6D4AFF"/>
    </linearGradient>
    <filter id="filter0_d_5741_18669" width="5.25" height="86.917" x="117.332" y="28.875" color-interpolation-filters="sRGB" filterUnits="userSpaceOnUse">
      <feFlood flood-opacity="0" result="BackgroundImageFix"/>
      <feColorMatrix in="SourceAlpha" result="hardAlpha" values="0 0 0 0 0 0 0 0 0 0 0 0 0 0 0 0 0 0 127 0"/>
      <feOffset dy="1.167"/>
      <feComposite in2="hardAlpha" operator="out"/>
      <feColorMatrix values="0 0 0 0 1 0 0 0 0 1 0 0 0 0 1 0 0 0 0.25 0"/>
      <feBlend in2="BackgroundImageFix" result="effect1_dropShadow_5741_18669"/>
      <feBlend in="SourceGraphic" in2="effect1_dropShadow_5741_18669" result="shape"/>
    </filter>
    <filter id="filter1_d_5741_18669" width="9.352" height="86.917" x="143.136" y="29.166" color-interpolation-filters="sRGB" filterUnits="userSpaceOnUse">
      <feFlood flood-opacity="0" result="BackgroundImageFix"/>
      <feColorMatrix in="SourceAlpha" result="hardAlpha" values="0 0 0 0 0 0 0 0 0 0 0 0 0 0 0 0 0 0 127 0"/>
      <feOffset dy="1.167"/>
      <feColorMatrix values="0 0 0 0 1 0 0 0 0 1 0 0 0 0 1 0 0 0 0.25 0"/>
      <feBlend in2="BackgroundImageFix" result="effect1_dropShadow_5741_18669"/>
      <feBlend in="SourceGraphic" in2="effect1_dropShadow_5741_18669" result="shape"/>
    </filter>
    <filter id="filter2_d_5741_18669" width="9.352" height="86.917" x="87.72" y="28.875" color-interpolation-filters="sRGB" filterUnits="userSpaceOnUse">
      <feFlood flood-opacity="0" result="BackgroundImageFix"/>
      <feColorMatrix in="SourceAlpha" result="hardAlpha" values="0 0 0 0 0 0 0 0 0 0 0 0 0 0 0 0 0 0 127 0"/>
      <feOffset dy="1.167"/>
      <feComposite in2="hardAlpha" operator="out"/>
      <feColorMatrix values="0 0 0 0 1 0 0 0 0 1 0 0 0 0 1 0 0 0 0.25 0"/>
      <feBlend in2="BackgroundImageFix" result="effect1_dropShadow_5741_18669"/>
      <feBlend in="SourceGraphic" in2="effect1_dropShadow_5741_18669" result="shape"/>
    </filter>
  </defs>
</svg>
