<svg width="178" height="135" viewBox="0 0 178 135" fill="none" xmlns="http://www.w3.org/2000/svg">
    <path
        fill-rule="evenodd"
        clip-rule="evenodd"
        d="M58.5412 27.6H51.9286C24.6299 27.6 2.5 50.523 2.5 78.8C2.5 107.077 24.6299 130 51.9286 130H138.429C158.903 130 175.5 112.808 175.5 91.6C175.5 74.8804 165.184 60.6565 150.786 55.385V53.2C150.786 24.923 128.656 2 101.357 2C83.0616 2 67.0877 12.2963 58.5412 27.6Z"
        fill="#F9F8FE"
    />
    <path
        d="M65.6108 17.8387C64.097 19.4802 62.6875 21.2258 61.3934 23.0641C61.3907 23.0622 61.388 23.0604 61.3853 23.0586C60.9276 22.7495 60.306 22.87 59.9969 23.3277C59.2794 24.3902 58.5992 25.4817 57.9581 26.6H56.8881C56.3358 26.6 55.8881 27.0477 55.8881 27.6H54.5817C54.5817 27.0477 54.134 26.6 53.5817 26.6H51.9286C50.2297 26.6 48.5501 26.687 46.8938 26.857C46.3444 26.9134 45.9447 27.4045 46.0011 27.9539C46.0014 27.9573 46.0018 27.9608 46.0022 27.9642C43.364 28.2908 40.7897 28.8325 38.296 29.5721C38.295 29.5688 38.2939 29.5655 38.2929 29.5621C38.1248 29.036 37.562 28.7458 37.0359 28.9139C33.81 29.9446 30.7229 31.3011 27.8102 32.946C27.3293 33.2176 27.1597 33.8276 27.4312 34.3085C27.4329 34.3115 27.4346 34.3145 27.4363 34.3174C25.174 35.6568 23.0238 37.176 21.0036 38.8563C21.0015 38.8537 20.9993 38.8512 20.9971 38.8487C20.6356 38.4312 20.004 38.3859 19.5866 38.7475C17.0549 40.9402 14.7346 43.3851 12.6617 46.0445C12.3222 46.4801 12.4 47.1085 12.8356 47.448C12.8382 47.45 12.8408 47.452 12.8434 47.454C11.2773 49.5461 9.86438 51.7673 8.62193 54.0996C8.61908 54.0981 8.61621 54.0966 8.61333 54.0952C8.12097 53.845 7.51901 54.0413 7.26883 54.5337C5.76341 57.4963 4.52512 60.627 3.58694 63.8912C3.4344 64.422 3.74103 64.976 4.27182 65.1285C4.27489 65.1294 4.27797 65.1303 4.28104 65.1311C3.61203 67.6388 3.1226 70.2237 2.82796 72.8701C2.82484 72.8697 2.82172 72.8694 2.81859 72.8691C2.26865 72.8184 1.78166 73.223 1.7309 73.773C1.57812 75.4276 1.5 77.1045 1.5 78.8C1.5 80.4955 1.57812 82.1724 1.7309 83.827C1.78166 84.377 2.26865 84.7816 2.81859 84.7308C2.82172 84.7306 2.82484 84.7303 2.82796 84.7299C3.1226 87.3763 3.61203 89.9612 4.28104 92.4689C4.27797 92.4697 4.27489 92.4706 4.27182 92.4715C3.74103 92.624 3.4344 93.178 3.58694 93.7088C4.52512 96.973 5.76341 100.104 7.26883 103.066C7.51901 103.559 8.12097 103.755 8.61333 103.505C8.61621 103.503 8.61908 103.502 8.62193 103.5C9.86438 105.833 11.2773 108.054 12.8434 110.146C12.8408 110.148 12.8382 110.15 12.8356 110.152C12.4 110.492 12.3222 111.12 12.6617 111.555C14.7346 114.215 17.0549 116.66 19.5866 118.852C20.004 119.214 20.6356 119.169 20.9971 118.751C20.9993 118.749 21.0015 118.746 21.0036 118.744C23.0238 120.424 25.174 121.943 27.4363 123.283C27.4346 123.286 27.4329 123.288 27.4312 123.291C27.1597 123.772 27.3293 124.382 27.8102 124.654C30.7228 126.299 33.81 127.655 37.0359 128.686C37.562 128.854 38.1248 128.564 38.2928 128.038C38.2939 128.035 38.295 128.031 38.296 128.028C40.7897 128.767 43.364 129.309 46.0022 129.636C46.0018 129.639 46.0014 129.643 46.0011 129.646C45.9447 130.196 46.3444 130.687 46.8938 130.743C48.5501 130.913 50.2297 131 51.9286 131H57.3348C57.8871 131 58.3348 130.552 58.3348 130H67.1473C67.1473 130.552 67.595 131 68.1473 131H78.9598C79.5121 131 79.9598 130.552 79.9598 130H88.7723C88.7723 130.552 89.22 131 89.7723 131H100.585C101.137 131 101.585 130.552 101.585 130H110.397C110.397 130.552 110.845 131 111.397 131H122.21C122.762 131 123.21 130.552 123.21 130H132.022C132.022 130.552 132.47 131 133.022 131H138.429C140.145 131 141.835 130.882 143.492 130.654C144.039 130.579 144.422 130.075 144.347 129.527C144.346 129.523 144.345 129.518 144.345 129.514C146.97 129.078 149.503 128.356 151.913 127.381C151.915 127.385 151.917 127.389 151.919 127.393C152.14 127.899 152.73 128.13 153.236 127.909C156.35 126.547 159.252 124.769 161.877 122.643C162.306 122.295 162.372 121.665 162.024 121.236C162.021 121.233 162.019 121.229 162.016 121.226C164.006 119.524 165.822 117.611 167.431 115.519C167.435 115.522 167.438 115.525 167.442 115.527C167.888 115.853 168.514 115.755 168.839 115.308C170.81 112.605 172.452 109.63 173.704 106.448C173.906 105.934 173.653 105.353 173.139 105.151C173.135 105.15 173.131 105.148 173.127 105.147C174.013 102.713 174.667 100.162 175.062 97.5213C175.066 97.5219 175.07 97.5224 175.074 97.523C175.623 97.5908 176.122 97.2014 176.19 96.6533C176.394 94.9984 176.5 93.3117 176.5 91.6C176.5 89.5746 176.352 87.5843 176.067 85.6402C175.987 85.0937 175.479 84.7157 174.933 84.7958C174.928 84.7964 174.924 84.7971 174.92 84.7977C174.362 81.5627 173.413 78.4681 172.124 75.5682C172.128 75.5664 172.132 75.5646 172.136 75.5628C172.635 75.3257 172.847 74.7291 172.61 74.2303C170.877 70.5848 168.616 67.2564 165.928 64.3525C165.553 63.9471 164.921 63.9226 164.515 64.2977C164.512 64.3007 164.509 64.3037 164.506 64.3067C162.25 61.9945 159.71 59.9802 156.944 58.3252C156.946 58.3213 156.949 58.3173 156.951 58.3133C157.221 57.8319 157.05 57.2222 156.569 56.9517C155.032 56.0881 153.431 55.3306 151.775 54.689C151.753 54.5444 151.7 54.4099 151.623 54.2925C151.726 54.1355 151.786 53.9478 151.786 53.7463V53.2C151.786 51.5045 151.708 49.8276 151.555 48.173C151.504 47.623 151.017 47.2184 150.467 47.2692C150.464 47.2694 150.461 47.2697 150.458 47.2701C150.163 44.6237 149.674 42.0388 149.005 39.5311C149.008 39.5303 149.011 39.5294 149.014 39.5285C149.545 39.376 149.851 38.822 149.699 38.2912C148.761 35.027 147.522 31.8963 146.017 28.9337C145.767 28.4413 145.165 28.245 144.672 28.4952C144.67 28.4966 144.667 28.4981 144.664 28.4996C143.421 26.1673 142.008 23.9461 140.442 21.854C140.445 21.852 140.448 21.85 140.45 21.848C140.886 21.5085 140.964 20.8801 140.624 20.4445C138.551 17.7851 136.231 15.3402 133.699 13.1475C133.282 12.7859 132.65 12.8312 132.289 13.2487C132.286 13.2512 132.284 13.2537 132.282 13.2563C130.262 11.576 128.112 10.0568 125.849 8.71741C125.851 8.71446 125.853 8.71149 125.854 8.70852C126.126 8.22762 125.956 7.61762 125.475 7.34603C122.563 5.70114 119.476 4.34461 116.25 3.31391C115.724 3.14583 115.161 3.43604 114.993 3.96212C114.992 3.96545 114.991 3.96878 114.99 3.97211C112.496 3.23253 109.922 2.69075 107.284 2.36423C107.284 2.36077 107.284 2.35732 107.285 2.35385C107.341 1.80445 106.941 1.31337 106.392 1.25699C104.736 1.087 103.056 1 101.357 1C99.8593 1 98.3765 1.06762 96.9115 1.20012C96.3614 1.24986 95.9559 1.73608 96.0056 2.28612C96.0059 2.28958 96.0063 2.29304 96.0066 2.29649C93.7567 2.54735 91.552 2.95458 89.4029 3.50749C89.402 3.50412 89.4011 3.50075 89.4001 3.49738C89.2513 2.96552 88.6995 2.65498 88.1677 2.80377C85.2879 3.60939 82.5106 4.67231 79.8602 5.96702C79.3639 6.20943 79.1581 6.80823 79.4006 7.30447C79.4021 7.30756 79.4036 7.31064 79.4051 7.31371C77.4095 8.34005 75.4904 9.50195 73.6589 10.7878C73.6569 10.7851 73.655 10.7823 73.653 10.7796C73.3266 10.3341 72.7008 10.2376 72.2553 10.564C69.866 12.3145 67.6308 14.2746 65.5744 16.418C65.192 16.8166 65.2051 17.4496 65.6037 17.8319C65.606 17.8342 65.6084 17.8365 65.6108 17.8387Z"
        stroke="#6D4AFF"
        stroke-opacity="0.3"
        stroke-width="2"
        stroke-linecap="round"
        stroke-dasharray="10 10"
    />
    <path
        d="M91.8998 46.7104C90.3145 46.9776 88.2304 47.7257 86.6629 48.5985C84.6501 49.7207 81.9248 52.4282 80.8383 54.352C77.2579 60.711 78.2733 68.3882 83.3854 73.4825C86.4136 76.5284 90.1898 78.0781 94.5005 78.0781C98.8111 78.0781 102.587 76.5284 105.615 73.4825C110.728 68.3882 111.743 60.711 108.163 54.352C107.076 52.4282 104.351 49.7207 102.338 48.5985C99.1673 46.8351 95.3376 46.1404 91.8998 46.7104Z"
        fill="#6D4AFF"
    />
    <path
        d="M63.72 61.6538C60.211 62.58 57.1829 65.2341 55.7935 68.6006C55.1344 70.2037 54.9385 71.2725 54.9385 73.1606C54.9385 75.0665 55.2769 76.5806 56.1141 78.3084C57.5747 81.3365 60.5316 83.7234 63.8625 84.5606C65.3766 84.9524 68.0485 84.9346 69.5625 84.5427C72.1988 83.8659 74.9775 81.9065 76.4916 79.6621C78.8963 76.0996 79.1279 71.3794 77.0972 67.4784C76.1888 65.7328 74.0335 63.5775 72.2879 62.6691C69.6872 61.3153 66.481 60.9413 63.72 61.6538Z"
        fill="#E0D9FF"
    />
    <path
        d="M119.295 61.6538C116.284 62.4553 113.31 64.7887 111.902 67.4784C110.281 70.5956 110.068 74.2472 111.35 77.4712C112.704 80.8378 115.875 83.6165 119.437 84.5427C120.951 84.9346 123.623 84.9524 125.137 84.5606C129.341 83.4918 132.69 80.1431 133.776 75.9215C134.115 74.6212 134.168 71.9672 133.883 70.649C132.939 66.3206 129.483 62.7403 125.208 61.6538C123.427 61.1906 121.058 61.1906 119.295 61.6538Z"
        fill="#E0D9FF"
    />
    <path
        d="M82.8898 81.3945C79.8725 82.0238 77.8873 83.0602 75.6243 85.1703C73.7384 86.9286 72.726 88.4278 71.8923 90.7044L71.3761 92.1296L71.3166 107.677C71.2769 122.965 71.2769 123.243 71.6739 123.835C71.8923 124.168 72.3489 124.594 72.7062 124.798C73.3414 125.168 73.7583 125.168 94.8998 125.168C116.041 125.168 116.458 125.168 117.093 124.798C117.451 124.594 117.907 124.168 118.126 123.835C118.523 123.243 118.523 122.965 118.483 107.677L118.423 92.1296L117.907 90.7044C117.074 88.4278 116.061 86.9286 114.175 85.1703C112.289 83.4119 110.682 82.468 108.24 81.6906L106.711 81.2094L95.3961 81.1723C86.4432 81.1538 83.8228 81.1909 82.8898 81.3945Z"
        fill="#6D4AFF"
    />
    <path
        d="M60.2047 88.5704C55.1116 89.2509 50.9235 93.0026 49.3086 98.2991C48.9004 99.6784 48.9004 99.7152 48.9004 109.242V118.805L49.3086 119.853C50.1426 122.005 51.864 123.77 53.9226 124.635C54.8986 125.039 55.1116 125.058 61.6244 125.113L68.3148 125.168L68.1018 124.561C67.8356 123.752 67.6936 95.6508 67.9598 93.1497C68.0663 92.1934 68.2793 90.906 68.439 90.2991C68.5987 89.6922 68.7762 89.0118 68.8117 88.7727L68.9004 88.3681L65.1204 88.3865C63.0264 88.4049 60.8081 88.4784 60.2047 88.5704Z"
        fill="#E0D9FF"
    />
    <path
        d="M120.188 88.7727C120.224 89.0118 120.401 89.6922 120.561 90.2991C120.721 90.906 120.934 92.1934 121.04 93.1497C121.306 95.6508 121.164 123.752 120.898 124.561L120.685 125.168L127.376 125.113C133.888 125.058 134.101 125.039 135.077 124.635C137.136 123.77 138.857 122.005 139.691 119.853L140.1 118.805V109.242C140.1 99.6968 140.1 99.6784 139.674 98.2991C138.343 93.8853 135.344 90.6118 131.315 89.1957C129.523 88.5704 127.713 88.3681 123.631 88.3681H120.1L120.188 88.7727Z"
        fill="#E0D9FF"
    />
</svg>
