<svg xmlns="http://www.w3.org/2000/svg" width="161" height="172" fill="none">
    <path
        fill="#E0D9FF"
        d="M91.23 8.4 59.3 23.54l-31.22 87.6a6 6 0 0 0 3.64 7.67l81.95 29.2a6 6 0 0 0 7.67-3.64l37.6-105.5a6 6 0 0 0-3.64-7.66L91.23 8.39Z"
    />
    <path
        fill="#6D4AFF"
        fill-rule="evenodd"
        d="m89.96 69.62-1.16-.41c-4.8-1.7-10.12.95-11.9 5.95-1.78 5 .66 10.43 5.46 12.13l15.19 5.42c3.6 1.28 7.59-.72 8.92-4.47a7.2 7.2 0 0 0-2.06-7.94l.14-.38c1.78-5-.66-10.43-5.46-12.14a9.15 9.15 0 0 0-9.13 1.84Z"
        clip-rule="evenodd"
    />
    <path fill="#EEEAFF" d="m82.84 31.94 8.4-23.55-31.95 15.16 23.55 8.4Z" />
    <path fill="#C8BCFF" d="M59.3 23.55 50.9 47.1l31.94-15.16-23.55-8.4Z" />
    <path
        fill="url(#a)"
        d="M6.06 172h123.4a6 6 0 0 0 6-6V81.47a6 6 0 0 0-6-6H65.63a6 6 0 0 1-4.79-2.38L48.96 57.4A6 6 0 0 0 44.17 55H6.07a6 6 0 0 0-6 6v105a6 6 0 0 0 6 6Z"
    />
    <defs>
        <linearGradient id="a" x1="56" x2="223.5" y1="127.01" y2="1.01" gradientUnits="userSpaceOnUse">
            <stop stop-color="#F9F9FA" />
            <stop offset="1" stop-color="#E9F0FD" stop-opacity="0" />
        </linearGradient>
    </defs>
</svg>
