<svg xmlns="http://www.w3.org/2000/svg" width="195" height="130" fill="none">
    <path fill="#E0D9FF" d="M0 129.9h130.2v-9.1H0zM12.35 43h106v70h-106z" />
    <path
        fill="#6D4AFF"
        fill-rule="evenodd"
        d="M108.3 17.4h-4.23c-17.52 0-31.72 14.69-31.72 32.8S86.55 83 104.07 83h55.5c13.13 0 23.78-11.01 23.78-24.6 0-10.71-6.62-19.82-15.86-23.2v-1.4c0-18.11-14.2-32.8-31.71-32.8-11.74 0-21.99 6.6-27.47 16.4Z"
        clip-rule="evenodd"
    />
    <path
        fill="#fff"
        d="M102.5 56.32a6.26 6.26 0 0 0-10.4 4.48.62.62 0 0 1-1.25-.04 7.5 7.5 0 0 1 12.54-5.31v-1.26a.63.63 0 0 1 1.26 0v2.5c0 .49-.4.88-.88.88h-2.5a.63.63 0 0 1 0-1.25h1.23ZM105.86 60.92a.63.63 0 0 0-1.25.02 6.26 6.26 0 0 1-10.4 4.74h1.06a.63.63 0 0 0 0-1.25h-2.5c-.49 0-.88.39-.88.87v2.5a.62.62 0 1 0 1.25 0v-1.4a7.5 7.5 0 0 0 12.72-5.48Z"
    />
    <mask id="a" fill="#fff">
        <path d="M4.2 39.6a4.2 4.2 0 0 1 4.2-4.2h113.4a4.2 4.2 0 0 1 4.2 4.2v81.2H4.2V39.6Z" />
    </mask>
    <path
        stroke="#EBE7FF"
        stroke-width="16"
        d="M4.2 39.6a4.2 4.2 0 0 1 4.2-4.2h113.4a4.2 4.2 0 0 1 4.2 4.2v81.2H4.2V39.6Z"
        mask="url(#a)"
    />
</svg>
