<svg xmlns="http://www.w3.org/2000/svg" width="237" height="169" fill="none">
    <path
        fill="#F9F8FE"
        fill-rule="evenodd"
        d="M86.54 51.62h-6.61c-27.3 0-49.43 22.93-49.43 51.2 0 28.28 22.13 51.2 49.43 51.2h86.5c20.47 0 37.07-17.19 37.07-38.4 0-16.72-10.32-30.94-24.71-36.21v-2.19c0-28.27-22.13-51.2-49.43-51.2-18.3 0-34.27 10.3-42.82 25.6Z"
        clip-rule="evenodd"
    />
    <circle cx="176" cy="52.02" r="2" fill="#D3C8FF" />
    <circle cx="166" cy="56.02" r="2" fill="#D3C8FF" />
    <circle cx="140" cy="56.02" r="2" fill="#D3C8FF" />
    <circle cx="106" cy="48.02" r="2" fill="#D3C8FF" />
    <circle cx="72" cy="34.02" r="2" fill="#D3C8FF" />
    <circle cx="62" cy="30.02" r="2" fill="#D3C8FF" />
    <circle cx="38" cy="28.02" r="2" fill="#D3C8FF" />
    <circle cx="28" cy="34.02" r="2" fill="#D3C8FF" />
    <circle cx="26" cy="46.02" r="2" fill="#D3C8FF" />
    <circle cx="32" cy="58.02" r="2" fill="#D3C8FF" />
    <circle cx="40" cy="64.02" r="2" fill="#D3C8FF" />
    <circle cx="48" cy="70.02" r="2" fill="#D3C8FF" />
    <circle cx="56" cy="76.02" r="2" fill="#D3C8FF" />
    <circle cx="64" cy="82.02" r="2" fill="#D3C8FF" />
    <circle cx="72" cy="88.02" r="2" fill="#D3C8FF" />
    <circle cx="76" cy="98.02" r="2" fill="#D3C8FF" />
    <circle cx="72" cy="120.03" r="2" fill="#D3C8FF" />
    <circle cx="62" cy="124.03" r="2" fill="#D3C8FF" />
    <circle cx="52" cy="128.03" r="2" fill="#D3C8FF" />
    <circle cx="40" cy="130.03" r="2" fill="#D3C8FF" />
    <circle cx="28" cy="132.03" r="2" fill="#D3C8FF" />
    <circle cx="16" cy="134.03" r="2" fill="#D3C8FF" />
    <circle cx="4" cy="140.03" r="2" fill="#D3C8FF" />
    <circle cx="2" cy="150.03" r="2" fill="#D3C8FF" />
    <circle cx="8" cy="162.03" r="2" fill="#D3C8FF" />
    <circle cx="18" cy="166.03" r="2" fill="#D3C8FF" />
    <circle cx="30" cy="166.03" r="2" fill="#D3C8FF" />
    <circle cx="42" cy="166.03" r="2" fill="#D3C8FF" />
    <circle cx="54" cy="164.03" r="2" fill="#D3C8FF" />
    <circle cx="66" cy="162.03" r="2" fill="#D3C8FF" />
    <circle cx="78" cy="160.03" r="2" fill="#D3C8FF" />
    <circle cx="90" cy="158.03" r="2" fill="#D3C8FF" />
    <circle cx="102" cy="156.03" r="2" fill="#D3C8FF" />
    <circle cx="114" cy="158.03" r="2" fill="#D3C8FF" />
    <circle cx="78" cy="108.03" r="2" fill="#D3C8FF" />
    <circle cx="50" cy="28.02" r="2" fill="#D3C8FF" />
    <circle cx="96" cy="44.02" r="2" fill="#D3C8FF" />
    <circle cx="84" cy="38.02" r="2" fill="#D3C8FF" />
    <circle cx="118" cy="52.02" r="2" fill="#D3C8FF" />
    <circle cx="130" cy="54.02" r="2" fill="#D3C8FF" />
    <circle cx="154" cy="56.02" r="2" fill="#D3C8FF" />
    <path
        fill="#6D4AFF"
        d="M205.11 17.35a2387.3 2387.3 0 0 0-30.87 2.1 2.73 2.73 0 0 0-1.76 3.85c.43.85 15.1 15.37 15.87 15.72.65.27 1.4.36 2.02.23.24-.05 3.7-1.33 7.7-2.84 9-3.42 8.37-3.19 8.18-2.99l-6.15 5.06c-3.28 2.7-6.2 5.09-6.47 5.33a3.7 3.7 0 0 0-1.23 2.21c-.09.84 5.15 20.81 5.67 21.6.94 1.41 3.02 1.65 4.17.47.22-.22 2.68-3.83 5.47-8.02l11.83-17.73c3.73-5.57 9.08-13.62 11.9-17.9 4.7-7.08 5.13-7.78 5.05-8.12-.1-.4-.5-.82-.88-.89-.12-.03-13.85.84-30.5 1.92Z"
    />
</svg>
