<svg xmlns="http://www.w3.org/2000/svg" width="375" height="140" fill="none">
    <g fill-rule="evenodd" clip-path="url(#a)" clip-rule="evenodd">
        <path fill="url(#b)"
            d="M90.47 10.082C90.47 4.514 94.982 0 100.55 0s10.082 4.514 10.082 10.082v39.55h10.857V23.266a7.755 7.755 0 1 1 15.51 0V58.94a7.755 7.755 0 0 1-8.134 7.746c-.131.006-.264.009-.397.009h-17.836v113.224H90.469V99.265H68.755A7.755 7.755 0 0 1 61 91.51V57.388a7.755 7.755 0 1 1 15.51 0v26.367h13.96V10.082Z" />
        <path fill="url(#c)"
            d="M282 41.5a6.5 6.5 0 1 1 13 0V67h7V50a5 5 0 0 1 10 0v23a5 5 0 0 1-5.244 4.994c-.085.004-.17.006-.256.006H295v73h-13V99h-14a5 5 0 0 1-5-5V72a5 5 0 0 1 10 0v17h9V41.5Z" />
        <path fill="url(#d)"
            d="M243 16a4 4 0 0 1 8 0v18h5V22.5a3.5 3.5 0 1 1 7 0v15a3.5 3.5 0 0 1-3.5 3.5H251v50h-8V56h-9.5c-.087 0-.174-.003-.26-.01A3 3 0 0 1 230 53V37a3 3 0 1 1 6 0v12h7V16Z" />
        <path fill="url(#e)"
            d="M178.553 128.797c10.148 3.536 20.867 2.733 30.019-1.528 8.742-4.07 16.043-11.29 20.039-20.893a39.819 39.819 0 0 0 2.857-19.547 2 2 0 0 1 3.978-.421 43.813 43.813 0 0 1-3.142 21.504 44.573 44.573 0 0 1-2.247 4.628c.882 2.888 1.614 8.706-3.672 12.817a2 2 0 1 1-2.455-3.158c1.661-1.292 2.408-2.864 2.656-4.384a43.92 43.92 0 0 1-16.326 13.08 44.207 44.207 0 0 1-6.446 2.411c-.75 1.398-2.149 3.02-4.008 4.299-2.197 1.513-5.182 2.647-8.735 2.293a2 2 0 1 1 .395-3.98c2.13.212 3.97-.345 5.452-1.213a43.792 43.792 0 0 1-22.14-3.07 43.948 43.948 0 0 1-11.877-7.325c-.103.028-.21.047-.32.058-2.603.26-9.416-.024-12.26-6.872a2 2 0 0 1 3.694-1.534c1.017 2.448 2.846 3.614 4.626 4.123a44.151 44.151 0 0 1-10.826-25.508c-2.576-1.56-7.026-5.42-5.811-12.027a2 2 0 1 1 3.934.724c-.496 2.694.482 4.712 1.76 6.115a43.877 43.877 0 0 1 3.357-15.28 43.88 43.88 0 0 1 9.038-13.746c-.421-3-.229-8.831 5.606-12.068a2 2 0 0 1 1.94 3.498c-2.266 1.257-3.227 3.147-3.555 4.937a44.137 44.137 0 0 1 27.182-9.728 43.86 43.86 0 0 1 17.314 3.385 2 2 0 1 1-1.536 3.693 39.867 39.867 0 0 0-15.739-3.078 40.138 40.138 0 0 0-19.139 5.09 39.817 39.817 0 0 0-17.418 19.554c-4.372 10.508-3.93 21.812.317 31.471 3.779 8.595 10.568 15.877 19.658 20.123.173-2.227-.346-5.253-3.469-7.114a2 2 0 0 1 2.047-3.436c5.653 3.367 5.744 9.087 5.252 12.107Zm11.107-57.833c1.231-2.013 3.304-3.056 5.608-3.056a2 2 0 1 0 0-4c-4.834 0-9.1 3.027-10.389 8.298a20.072 20.072 0 0 0-5.956 3.7 2 2 0 0 0 2.671 2.978 16.047 16.047 0 0 1 5.284-3.159 15.422 15.422 0 0 1 5.484-.914c2.027.035 4.07.48 6.019 1.382a14.928 14.928 0 0 1 5.344 4.154 2 2 0 1 0 3.105-2.52 18.923 18.923 0 0 0-6.77-5.265 18.919 18.919 0 0 0-7.628-1.75c-.93-.017-1.856.035-2.772.152Zm17.499 20.6a2.001 2.001 0 0 1 3.988.312 20.48 20.48 0 0 1-1.837 6.999 20.532 20.532 0 0 1-2.738 4.382 20.199 20.199 0 0 1-3.41 3.298 20.036 20.036 0 0 1-5.111 2.825 19.558 19.558 0 0 1-5.073 1.163 2.001 2.001 0 0 1-.364-3.984 15.556 15.556 0 0 0 4.035-.925 16.058 16.058 0 0 0 4.09-2.261 16.236 16.236 0 0 0 2.735-2.646 16.585 16.585 0 0 0 2.205-3.531 16.465 16.465 0 0 0 1.48-5.633Zm-34.884-2.91a2 2 0 1 1 3.97.49 16.15 16.15 0 0 0 .262 5.492 15.82 15.82 0 0 0 1.141 3.33 15.341 15.341 0 0 0 2.35 3.581 14.941 14.941 0 0 0 4.952 3.691 2 2 0 0 1-1.679 3.63 18.99 18.99 0 0 1-3.597-2.173 19.016 19.016 0 0 1-2.678-2.505 19.317 19.317 0 0 1-2.964-4.513 19.865 19.865 0 0 1-1.43-4.17 20.156 20.156 0 0 1-.327-6.854Zm2.552 18.191a23.254 23.254 0 0 0 8.462 6.016 23.252 23.252 0 0 0 9.304 1.794c2.856-.043 5.67-.61 8.307-1.647a24.07 24.07 0 0 0 7.822-5.005 2 2 0 1 1 2.766 2.89 28.078 28.078 0 0 1-9.123 5.837 27.633 27.633 0 0 1-9.713 1.924 27.266 27.266 0 0 1-10.9-2.1 27.264 27.264 0 0 1-9.912-7.048 27.579 27.579 0 0 1-2.998-4.062 2 2 0 0 1 3.422-2.071 23.522 23.522 0 0 0 2.563 3.472Zm-5.811-12.703a2 2 0 0 1-3.965.532 28.031 28.031 0 0 1-.11-6.52c-2.358-1.896-6.217-6.284-4.172-12.642a2 2 0 1 1 3.808 1.224c-.913 2.837.007 5.105 1.251 6.688a28.496 28.496 0 0 1 1.154-3.341 28.397 28.397 0 0 1 3.613-6.287 28.06 28.06 0 0 1 11.713-8.984 2 2 0 1 1 1.513 3.703 24.068 24.068 0 0 0-10.042 7.703 24.402 24.402 0 0 0-3.244 5.746c.458.04.956.042 1.454-.03 1.075-.157 2.131-.639 2.939-1.852a2 2 0 0 1 3.328 2.22c-1.55 2.324-3.712 3.302-5.692 3.59-1.174.17-2.29.102-3.215-.05a24.025 24.025 0 0 0-.333 8.3Zm51.11-1.472a2 2 0 0 1-3.988-.315 24.025 24.025 0 0 0-1.991-11.647c-.082.068-.17.13-.265.185-.61.358-1.532 1.05-2.176 2.002-.609.9-.964 2.005-.612 3.419a2 2 0 0 1-3.882.965c-.674-2.712.059-4.968 1.181-6.626 1.085-1.604 2.534-2.663 3.464-3.21.131-.076.268-.137.407-.181a23.435 23.435 0 0 0-2.707-3.383 23.123 23.123 0 0 0-3.368-2.882 23.363 23.363 0 0 0-4.463-2.453 2 2 0 0 1 1.537-3.694 27.253 27.253 0 0 1 9.173 6.251 27.575 27.575 0 0 1 4.488 6.182 28.074 28.074 0 0 1 3.202 15.387Zm-37.282 28.49a2 2 0 0 0-1.151 3.831 35.532 35.532 0 0 0 12.048 1.461 35.965 35.965 0 0 0 13.412-3.352 36.023 36.023 0 0 0 10.885-7.853 36.034 36.034 0 0 0 7.111-10.965 36.163 36.163 0 0 0 2.45-9.003c.394-2.878.432-5.757.138-8.581a36.087 36.087 0 0 0-2.181-9.134c1.676.479 3.363 1.564 4.537 3.946a2 2 0 1 0 3.588-1.768c-2.608-5.29-7.102-6.358-10.117-6.512a35.964 35.964 0 0 0-3.285-5.01 35.555 35.555 0 0 0-7.296-6.996c1.457-.158 3.159.092 5.112 1.155a2 2 0 0 0 1.911-3.515c-4.83-2.626-8.841-1.717-11.561-.403a36.227 36.227 0 0 0-2.57-1.189 35.843 35.843 0 0 0-7.411-2.185 35.487 35.487 0 0 0-6.705-.561 35.816 35.816 0 0 0-9.769 1.477 36.154 36.154 0 0 0-7.4 3.125 35.964 35.964 0 0 0-9.633 7.861 2 2 0 1 0 3.027 2.615 31.98 31.98 0 0 1 8.562-6.986 32.151 32.151 0 0 1 6.581-2.78 31.809 31.809 0 0 1 8.677-1.313c1.975-.022 3.966.14 5.95.498a31.85 31.85 0 0 1 6.585 1.943 31.572 31.572 0 0 1 12.79 9.72 31.997 31.997 0 0 1 4.281 7.286 32.128 32.128 0 0 1 2.348 9.14 31.828 31.828 0 0 1-.911 11.548c-2.965-.323-6.908.182-10.539 4.059a2 2 0 0 0 2.92 2.734c2.183-2.331 4.401-2.909 6.298-2.877l-.07.17a32.048 32.048 0 0 1-6.322 9.751 32.03 32.03 0 0 1-9.677 6.98 31.97 31.97 0 0 1-11.92 2.98c-3.54.18-7.151-.232-10.693-1.297Zm-16.524-5.488a1.999 1.999 0 1 0 2.869-2.787 31.872 31.872 0 0 1-6.338-9.447 32.075 32.075 0 0 1-2.68-12.126 2 2 0 1 0-3.999.09 36.085 36.085 0 0 0 3.014 13.638 35.862 35.862 0 0 0 7.134 10.632ZM194.545 86a5.993 5.993 0 0 1 2.483 2.674c-3.436.11-5.653 1.933-6.975 3.448a2 2 0 0 0 3.014 2.63c.924-1.06 2.262-2.141 4.491-2.079a6.169 6.169 0 0 1-.689 1.9 6.226 6.226 0 0 1-1.535 1.805 5.968 5.968 0 0 1-1.993 1.052 5.798 5.798 0 0 1-2.151.23c-2.137-.171-4.067-1.567-4.961-3.566a6.28 6.28 0 0 1-.467-1.57 6.418 6.418 0 0 1-.059-1.53 6.422 6.422 0 0 1 .681-2.407 6.238 6.238 0 0 1 2.01-2.286 5.919 5.919 0 0 1 1.894-.858 2 2 0 1 0-.979-3.878A9.919 9.919 0 0 0 186.134 83a10.173 10.173 0 0 0-3.308 3.757 10.374 10.374 0 0 0-1.11 3.918c-.068.845-.032 1.677.097 2.481.143.898.403 1.76.764 2.568 1.467 3.283 4.643 5.63 8.294 5.922a9.823 9.823 0 0 0 3.63-.389 9.97 9.97 0 0 0 3.329-1.754 10.23 10.23 0 0 0 2.523-2.967c2.725-4.832 1.09-11.279-3.864-14.033A2 2 0 1 0 194.545 86Z" />
    </g>
    <defs>
        <linearGradient id="b" x1="99" x2="99" y1="0" y2="179.918" gradientUnits="userSpaceOnUse">
            <stop stop-color="#FFFAF2" />
            <stop offset=".756" stop-color="#BFBAB3" stop-opacity="0" />
        </linearGradient>
        <linearGradient id="c" x1="287.5" x2="287.5" y1="35" y2="151" gradientUnits="userSpaceOnUse">
            <stop stop-color="#E7E3DD" />
            <stop offset=".85" stop-color="#D2CFCA" stop-opacity="0" />
        </linearGradient>
        <linearGradient id="d" x1="246.5" x2="246.5" y1="12" y2="91" gradientUnits="userSpaceOnUse">
            <stop stop-color="#FFFAF2" />
            <stop offset=".756" stop-color="#BFBAB3" stop-opacity="0" />
        </linearGradient>
        <radialGradient id="e" cx="0" cy="0" r="1" gradientTransform="rotate(114.708 89.22 92.451) scale(89.7134 90.61)"
            gradientUnits="userSpaceOnUse">
            <stop stop-color="#C094FF" />
            <stop offset=".44" stop-color="#AF95EF" />
            <stop offset="1" stop-color="#6E4BFF" />
        </radialGradient>
        <clipPath id="a">
            <path fill="#fff" d="M0 0h375v140H0z" />
        </clipPath>
    </defs>
</svg>