<svg xmlns="http://www.w3.org/2000/svg" width="276" height="169" fill="none">
    <g filter="url(#a)">
        <path
            fill="url(#b)"
            d="M230.45 64.23c0 4.66-.47 9.2-1.37 13.59 23.26.67 41.92 20.66 41.92 45.2 0 23.46-17.02 42.74-38.82 45.02v.22H50.98C29.57 165.58 13 146.17 13 123.03c0-24.52 18.61-44.49 41.84-45.21 2.92-21.5 20.55-38.02 41.85-38.02 5.2 0 10.2.99 14.8 2.8 8.47-24.84 31.1-42.6 57.7-42.6 33.83 0 61.26 28.76 61.26 64.23Z"
        />
        <path
            fill="url(#c)"
            fill-opacity=".3"
            d="M230.45 64.23c0 4.66-.47 9.2-1.37 13.59 23.26.67 41.92 20.66 41.92 45.2 0 23.46-17.02 42.74-38.82 45.02v.22H50.98C29.57 165.58 13 146.17 13 123.03c0-24.52 18.61-44.49 41.84-45.21 2.92-21.5 20.55-38.02 41.85-38.02 5.2 0 10.2.99 14.8 2.8 8.47-24.84 31.1-42.6 57.7-42.6 33.83 0 61.26 28.76 61.26 64.23Z"
        />
    </g>
    <path fill="#fff" d="M196.35 162.36H88V95.57c0-.87.7-1.57 1.57-1.57h105.16c.87 0 1.57.7 1.57 1.57v66.8h.05Z" />
    <g filter="url(#d)">
        <path
            fill="url(#e)"
            d="M10 99.71A5.71 5.71 0 0 1 15.71 94h8.1c1.24 0 2.44.4 3.43 1.14l4.04 3.03c.1.08.22.12.34.12h12.67A5.71 5.71 0 0 1 50 104v18.57a5.71 5.71 0 0 1-5.71 5.72H15.7a5.71 5.71 0 0 1-5.71-5.72V99.71Z"
        />
        <path
            fill="url(#f)"
            d="M10 99.71A5.71 5.71 0 0 1 15.71 94h8.1c1.24 0 2.44.4 3.43 1.14l4.04 3.03c.1.08.22.12.34.12h12.67A5.71 5.71 0 0 1 50 104v18.57a5.71 5.71 0 0 1-5.71 5.72H15.7a5.71 5.71 0 0 1-5.71-5.72V99.71Z"
        />
    </g>
    <g filter="url(#g)">
        <path
            fill="url(#h)"
            d="M243 128.71a3.71 3.71 0 0 1 3.71-3.71h5.27c.8 0 1.58.26 2.23.74l2.62 1.97c.06.05.14.08.22.08h8.24a3.71 3.71 0 0 1 3.71 3.71v12.07a3.71 3.71 0 0 1-3.71 3.72H246.7a3.71 3.71 0 0 1-3.71-3.72v-14.86Z"
        />
        <path
            fill="url(#i)"
            d="M243 128.72a3.71 3.71 0 0 1 3.71-3.72h5.27c.8 0 1.58.26 2.23.74l2.62 1.97c.06.05.14.08.22.08h8.24a3.71 3.71 0 0 1 3.71 3.71v12.07a3.71 3.71 0 0 1-3.71 3.72H246.7a3.71 3.71 0 0 1-3.71-3.72v-14.85Z"
        />
    </g>
    <g filter="url(#j)">
        <path
            fill="url(#k)"
            d="M95 24.57a8.57 8.57 0 0 1 8.57-8.57h12.14c1.86 0 3.66.6 5.15 1.71l6.05 4.55c.15.1.33.17.52.17h19A8.57 8.57 0 0 1 155 31v27.86a8.57 8.57 0 0 1-8.57 8.57h-42.86A8.57 8.57 0 0 1 95 58.86V24.57Z"
        />
        <path
            fill="url(#l)"
            d="M95 24.57a8.57 8.57 0 0 1 8.57-8.57h12.14c1.86 0 3.66.6 5.15 1.71l6.05 4.55c.15.1.33.17.52.17h19A8.57 8.57 0 0 1 155 31v27.86a8.57 8.57 0 0 1-8.57 8.57h-42.86A8.57 8.57 0 0 1 95 58.86V24.57Z"
        />
    </g>
    <path
        fill="#C1B1FF"
        d="M214.49 168H70.22a2.2 2.2 0 0 1-2.22-2.22v-1.24a2.2 2.2 0 0 1 2.22-2.22h144.26a2.2 2.2 0 0 1 2.23 2.22v1.24a2.23 2.23 0 0 1-2.22 2.22Z"
    />
    <path
        fill="#967BFF"
        d="M148.77 165.46h-13.43a3.05 3.05 0 0 1-2.85-1.9 3.12 3.12 0 0 1-.23-1.19h19.6a3.1 3.1 0 0 1-3.1 3.09Z"
    />
    <g fill-rule="evenodd" clip-rule="evenodd" filter="url(#m)">
        <path
            fill="url(#n)"
            d="M196.2 162.32h5.1V94.49a6.52 6.52 0 0 0-6.5-6.49H88.82a6.51 6.51 0 0 0-6.5 6.5v67.82h5.59v-66.8c0-.86.7-1.56 1.57-1.56h105.15c.87 0 1.58.7 1.58 1.57v66.79Z"
        />
        <path
            fill="url(#o)"
            fill-opacity=".3"
            d="M196.2 162.32h5.1V94.49a6.52 6.52 0 0 0-6.5-6.49H88.82a6.51 6.51 0 0 0-6.5 6.5v67.82h5.59v-66.8c0-.86.7-1.56 1.57-1.56h105.15c.87 0 1.58.7 1.58 1.57v66.79Z"
        />
    </g>
    <g filter="url(#p)">
        <path fill="#1FE596" d="M229 88a23 23 0 1 0-46 0 23 23 0 1 0 46 0Z" />
    </g>
    <g filter="url(#q)">
        <path fill="url(#r)" d="M228.93 87.96a22.96 22.96 0 0 0-45.93 0v22.97h22.96a22.96 22.96 0 0 0 22.97-22.97Z" />
    </g>
    <path
        fill="#fff"
        d="M212.73 80.4a10.16 10.16 0 0 0-16.87 7.28 1.02 1.02 0 0 1-2.03-.07 12.19 12.19 0 0 1 20.36-8.63v-2.03a1.01 1.01 0 1 1 2.03 0v4.06c0 .79-.63 1.42-1.42 1.42h-4.06a1.01 1.01 0 0 1 0-2.03h1.99Zm5.45 7.48a1.01 1.01 0 1 0-2.03.02 10.16 10.16 0 0 1-16.88 7.7H201a1.02 1.02 0 0 0 0-2.03h-4.06c-.78 0-1.42.64-1.42 1.42v4.06a1.01 1.01 0 1 0 2.03 0v-2.29a12.19 12.19 0 0 0 20.64-8.88Z"
    />
    <defs>
        <linearGradient id="b" x1="191.54" x2="276.8" y1="168.26" y2="69.02" gradientUnits="userSpaceOnUse">
            <stop stop-color="#9177FF" stop-opacity=".19" />
            <stop offset="1" stop-color="#F7F5FF" stop-opacity=".4" />
        </linearGradient>
        <linearGradient id="c" x1="198.8" x2="123.05" y1="-5.63" y2="63.12" gradientUnits="userSpaceOnUse">
            <stop stop-color="#fff" />
            <stop offset="1" stop-color="#fff" stop-opacity="0" />
        </linearGradient>
        <linearGradient id="e" x1="30" x2="30" y1="94" y2="128.29" gradientUnits="userSpaceOnUse">
            <stop stop-color="#D1C6FF" stop-opacity=".2" />
            <stop offset="1" stop-color="#6D4AFF" stop-opacity=".4" />
            <stop offset="1" stop-color="#8F75F0" stop-opacity=".24" />
        </linearGradient>
        <linearGradient id="f" x1="30" x2="30" y1="94" y2="128.29" gradientUnits="userSpaceOnUse">
            <stop stop-color="#D1C6FF" stop-opacity=".2" />
            <stop offset="1" stop-color="#6D4AFF" stop-opacity=".4" />
            <stop offset="1" stop-color="#8F75F0" stop-opacity=".24" />
        </linearGradient>
        <linearGradient id="h" x1="256" x2="256" y1="125" y2="147.29" gradientUnits="userSpaceOnUse">
            <stop stop-color="#D1C6FF" stop-opacity=".2" />
            <stop offset="1" stop-color="#6D4AFF" stop-opacity=".4" />
            <stop offset="1" stop-color="#8F75F0" stop-opacity=".24" />
        </linearGradient>
        <linearGradient id="i" x1="256" x2="256" y1="125" y2="147.29" gradientUnits="userSpaceOnUse">
            <stop stop-color="#D1C6FF" stop-opacity=".2" />
            <stop offset="1" stop-color="#6D4AFF" stop-opacity=".4" />
            <stop offset="1" stop-color="#8F75F0" stop-opacity=".24" />
        </linearGradient>
        <linearGradient id="k" x1="125" x2="125" y1="16" y2="67.43" gradientUnits="userSpaceOnUse">
            <stop stop-color="#C5B7FF" stop-opacity=".2" />
            <stop offset="1" stop-color="#6D4AFF" stop-opacity=".4" />
            <stop offset="1" stop-color="#8F75F0" stop-opacity=".24" />
        </linearGradient>
        <linearGradient id="l" x1="125" x2="125" y1="16" y2="67.43" gradientUnits="userSpaceOnUse">
            <stop stop-color="#C5B7FF" stop-opacity=".2" />
            <stop offset="1" stop-color="#6D4AFF" stop-opacity=".4" />
            <stop offset="1" stop-color="#8F75F0" stop-opacity=".24" />
        </linearGradient>
        <linearGradient id="n" x1="164.5" x2="166.39" y1="149.33" y2="82.46" gradientUnits="userSpaceOnUse">
            <stop stop-color="#7E60FF" />
            <stop offset="1" stop-color="#D9C9FF" />
        </linearGradient>
        <linearGradient id="o" x1="168" x2="134.44" y1="85.51" y2="117.32" gradientUnits="userSpaceOnUse">
            <stop stop-color="#fff" />
            <stop offset="1" stop-color="#fff" stop-opacity="0" />
        </linearGradient>
        <linearGradient id="r" x1="205.96" x2="205.96" y1="110.93" y2="65" gradientUnits="userSpaceOnUse">
            <stop stop-color="#01C2FF" />
            <stop offset="1" stop-color="#34EBE2" />
        </linearGradient>
        <filter
            id="a"
            width="258.94"
            height="170.13"
            x="12.07"
            y="0"
            color-interpolation-filters="sRGB"
            filterUnits="userSpaceOnUse"
        >
            <feFlood flood-opacity="0" result="BackgroundImageFix" />
            <feBlend in="SourceGraphic" in2="BackgroundImageFix" result="shape" />
            <feColorMatrix in="SourceAlpha" result="hardAlpha" values="0 0 0 0 0 0 0 0 0 0 0 0 0 0 0 0 0 0 127 0" />
            <feOffset dx="-.93" dy="1.87" />
            <feGaussianBlur stdDeviation="1.87" />
            <feComposite in2="hardAlpha" k2="-1" k3="1" operator="arithmetic" />
            <feColorMatrix values="0 0 0 0 1 0 0 0 0 1 0 0 0 0 1 0 0 0 0.35 0" />
            <feBlend in2="shape" result="effect1_innerShadow_101_88" />
        </filter>
        <filter
            id="d"
            width="60"
            height="54.29"
            x="0"
            y="89"
            color-interpolation-filters="sRGB"
            filterUnits="userSpaceOnUse"
        >
            <feFlood flood-opacity="0" result="BackgroundImageFix" />
            <feColorMatrix in="SourceAlpha" result="hardAlpha" values="0 0 0 0 0 0 0 0 0 0 0 0 0 0 0 0 0 0 127 0" />
            <feOffset dy="5" />
            <feGaussianBlur stdDeviation="5" />
            <feComposite in2="hardAlpha" operator="out" />
            <feColorMatrix values="0 0 0 0 0 0 0 0 0 0 0 0 0 0 0 0 0 0 0.1 0" />
            <feBlend in2="BackgroundImageFix" result="effect1_dropShadow_101_88" />
            <feBlend in="SourceGraphic" in2="effect1_dropShadow_101_88" result="shape" />
        </filter>
        <filter
            id="g"
            width="39"
            height="35.29"
            x="236.5"
            y="121.75"
            color-interpolation-filters="sRGB"
            filterUnits="userSpaceOnUse"
        >
            <feFlood flood-opacity="0" result="BackgroundImageFix" />
            <feColorMatrix in="SourceAlpha" result="hardAlpha" values="0 0 0 0 0 0 0 0 0 0 0 0 0 0 0 0 0 0 127 0" />
            <feOffset dy="3.25" />
            <feGaussianBlur stdDeviation="3.25" />
            <feComposite in2="hardAlpha" operator="out" />
            <feColorMatrix values="0 0 0 0 0 0 0 0 0 0 0 0 0 0 0 0 0 0 0.1 0" />
            <feBlend in2="BackgroundImageFix" result="effect1_dropShadow_101_88" />
            <feBlend in="SourceGraphic" in2="effect1_dropShadow_101_88" result="shape" />
        </filter>
        <filter
            id="j"
            width="90"
            height="81.43"
            x="80"
            y="8.5"
            color-interpolation-filters="sRGB"
            filterUnits="userSpaceOnUse"
        >
            <feFlood flood-opacity="0" result="BackgroundImageFix" />
            <feColorMatrix in="SourceAlpha" result="hardAlpha" values="0 0 0 0 0 0 0 0 0 0 0 0 0 0 0 0 0 0 127 0" />
            <feOffset dy="7.5" />
            <feGaussianBlur stdDeviation="7.5" />
            <feComposite in2="hardAlpha" operator="out" />
            <feColorMatrix values="0 0 0 0 0 0 0 0 0 0 0 0 0 0 0 0 0 0 0.1 0" />
            <feBlend in2="BackgroundImageFix" result="effect1_dropShadow_101_88" />
            <feBlend in="SourceGraphic" in2="effect1_dropShadow_101_88" result="shape" />
        </filter>
        <filter
            id="m"
            width="120.2"
            height="76.79"
            x="81.09"
            y="88"
            color-interpolation-filters="sRGB"
            filterUnits="userSpaceOnUse"
        >
            <feFlood flood-opacity="0" result="BackgroundImageFix" />
            <feBlend in="SourceGraphic" in2="BackgroundImageFix" result="shape" />
            <feColorMatrix in="SourceAlpha" result="hardAlpha" values="0 0 0 0 0 0 0 0 0 0 0 0 0 0 0 0 0 0 127 0" />
            <feOffset dx="-1.24" dy="2.47" />
            <feGaussianBlur stdDeviation="2.47" />
            <feComposite in2="hardAlpha" k2="-1" k3="1" operator="arithmetic" />
            <feColorMatrix values="0 0 0 0 1 0 0 0 0 1 0 0 0 0 1 0 0 0 0.35 0" />
            <feBlend in2="shape" result="effect1_innerShadow_101_88" />
        </filter>
        <filter
            id="p"
            width="102.06"
            height="102.06"
            x="154.97"
            y="50.99"
            color-interpolation-filters="sRGB"
            filterUnits="userSpaceOnUse"
        >
            <feFlood flood-opacity="0" result="BackgroundImageFix" />
            <feColorMatrix in="SourceAlpha" result="hardAlpha" values="0 0 0 0 0 0 0 0 0 0 0 0 0 0 0 0 0 0 127 0" />
            <feOffset dy="14.01" />
            <feGaussianBlur stdDeviation="14.01" />
            <feComposite in2="hardAlpha" operator="out" />
            <feColorMatrix values="0 0 0 0 0 0 0 0 0 0 0 0 0 0 0 0 0 0 0.25 0" />
            <feBlend in2="BackgroundImageFix" result="effect1_dropShadow_101_88" />
            <feBlend in="SourceGraphic" in2="effect1_dropShadow_101_88" result="shape" />
        </filter>
        <filter
            id="q"
            width="45.93"
            height="45.93"
            x="183"
            y="65"
            color-interpolation-filters="sRGB"
            filterUnits="userSpaceOnUse"
        >
            <feFlood flood-opacity="0" result="BackgroundImageFix" />
            <feBlend in="SourceGraphic" in2="BackgroundImageFix" result="shape" />
            <feColorMatrix in="SourceAlpha" result="hardAlpha" values="0 0 0 0 0 0 0 0 0 0 0 0 0 0 0 0 0 0 127 0" />
            <feOffset dy="1.24" />
            <feComposite in2="hardAlpha" k2="-1" k3="1" operator="arithmetic" />
            <feColorMatrix values="0 0 0 0 1 0 0 0 0 1 0 0 0 0 1 0 0 0 0.5 0" />
            <feBlend in2="shape" result="effect1_innerShadow_101_88" />
        </filter>
    </defs>
</svg>
