<svg xmlns="http://www.w3.org/2000/svg" width="219" height="131" fill="none">
    <path fill="#E0D9FF" d="M.65 130.9h130.2v-9.1H.65zM13 44h106v70H13z" />
    <path
        fill="#6D4AFF"
        fill-rule="evenodd"
        d="M119.96 17.4h-4.25C98.2 17.4 84 32.09 84 50.2S98.2 83 115.71 83h55.5C184.35 83 195 71.99 195 58.4c0-10.71-6.62-19.82-15.86-23.2v-1.4c0-18.11-14.2-32.8-31.71-32.8-11.74 0-21.99 6.6-27.47 16.4Z"
        clip-rule="evenodd"
    />
    <mask id="a" fill="#fff">
        <path d="M4.85 40.6a4.2 4.2 0 0 1 4.2-4.2h113.4a4.2 4.2 0 0 1 4.2 4.2v81.2H4.85V40.6Z" />
    </mask>
    <path
        stroke="#E9F0FD"
        stroke-width="16"
        d="M4.85 40.6a4.2 4.2 0 0 1 4.2-4.2h113.4a4.2 4.2 0 0 1 4.2 4.2v81.2H4.85V40.6Z"
        mask="url(#a)"
    />
    <path
        fill="#fff"
        d="M108.85 53.58a6.57 6.57 0 0 0-10.9 4.7.66.66 0 0 1-1.32-.03 7.88 7.88 0 0 1 13.17-5.58v-1.32a.66.66 0 1 1 1.31 0v2.63c0 .5-.41.92-.92.92h-2.62a.66.66 0 0 1 0-1.32h1.28ZM112.38 58.42a.66.66 0 1 0-1.31.01 6.57 6.57 0 0 1-10.91 4.98h1.1a.66.66 0 1 0 0-1.31h-2.62c-.5 0-.92.41-.92.92v2.62a.66.66 0 1 0 1.31 0v-1.48a7.88 7.88 0 0 0 13.35-5.74Z"
    />
    <path
        stroke="#fff"
        stroke-linecap="round"
        d="M108.85 53.58a6.57 6.57 0 0 0-10.9 4.7.66.66 0 0 1-1.32-.03 7.88 7.88 0 0 1 13.17-5.58v-1.32a.66.66 0 1 1 1.31 0v2.63c0 .5-.41.92-.92.92h-2.62a.66.66 0 0 1 0-1.32h1.28ZM112.38 58.42a.66.66 0 1 0-1.31.01 6.57 6.57 0 0 1-10.91 4.98h1.1a.66.66 0 1 0 0-1.31h-2.62c-.5 0-.92.41-.92.92v2.62a.66.66 0 1 0 1.31 0v-1.48a7.88 7.88 0 0 0 13.35-5.74Z"
    />
</svg>
