<svg xmlns="http://www.w3.org/2000/svg" width="218" height="150" fill="none" viewBox="0 0 218 150">
    <path
        fill="#F0EDE6"
        fill-rule="evenodd"
        d="M122.354 1.002H65.016a5.6 5.6 0 00-5.6 5.6V119.4a5.6 5.6 0 005.6 5.6h87.999a5.6 5.6 0 005.6-5.6V37.263L122.354 1.002z"
        clip-rule="evenodd"
    />
    <path
        fill="#D8DDEA"
        d="M72.216 100.481c0-.818.663-1.481 1.481-1.481h53.071c.818 0 1.482.663 1.482 1.481v.741c0 .818-.664 1.482-1.482 1.482h-53.07a1.482 1.482 0 01-1.482-1.482v-.741zM72.216 108.632c0-.818.663-1.482 1.481-1.482h13.704c.818 0 1.481.664 1.481 1.482v.741c0 .818-.663 1.481-1.481 1.481H73.697a1.481 1.481 0 01-1.481-1.481v-.741z"
    />
    <path
        fill="#E4B6FF"
        d="M5.668 26.413c-.493-1.48-.274-3.125.658-4.386C7.258 20.767 8.683 20 10.273 20h5.868v-4.386h-5.868c-3.015 0-5.756 1.426-7.51 3.838-1.755 2.412-2.248 5.482-1.261 8.333L12.084 70.27l4.167-1.371L5.668 26.413z"
    />
    <path
        fill="#453583"
        d="M21.679 21.478l-5.537-1.48v-4.386l5.537-1.535c1.425-.384 2.85.713 2.85 2.193v3.015a2.252 2.252 0 01-2.85 2.193z"
    />
    <path
        fill="#453583"
        fill-rule="evenodd"
        d="M36.827 111.702V87.787h4.675v23.915c0 18.344 14.907 33.251 33.252 33.251 18.344 0 33.251-14.907 33.251-33.251V81.787h4.676v29.915c0 20.926-17 37.926-37.927 37.926s-37.927-17-37.927-37.926z"
        clip-rule="evenodd"
    />
    <path
        fill="#453583"
        fill-rule="evenodd"
        d="M62.081 68.844A24.097 24.097 0 0139.166 85.4v4.386c12.335 0 23.19-7.895 27.082-19.572l-4.167-1.37zm-45.83 0A24.097 24.097 0 0039.165 85.4v4.386c-12.335 0-23.19-7.894-27.082-19.571l4.166-1.37z"
        clip-rule="evenodd"
    />
    <path
        fill="#A77EFF"
        d="M72.72 26.413c.493-1.48.273-3.125-.659-4.386C71.13 20.767 69.704 20 68.114 20h-5.868v-4.386h5.868c3.015 0 5.757 1.426 7.51 3.838 1.755 2.412 2.249 5.482 1.262 8.333L66.303 70.27 62.137 68.9l10.582-42.487z"
    />
    <path
        fill="#453583"
        d="M56.654 21.478l5.537-1.48v-4.386l-5.537-1.48c-1.425-.384-2.85.713-2.85 2.193v3.015c0 1.48 1.425 2.522 2.85 2.138z"
    />
    <path
        fill="url(#paint0_linear_5741_18643)"
        d="M110.216 85c9.941 0 18-8.059 18-18s-8.059-18-18-18-18 8.059-18 18 8.059 18 18 18z"
    />
    <path fill="#EFBFFF" d="M110.216 78c6.075 0 11-4.925 11-11s-4.925-11-11-11-11 4.925-11 11 4.925 11 11 11z" />
    <path
        fill="#FAF7F0"
        fill-rule="evenodd"
        d="M122.355 1l36.258 36.258h-30.658a5.6 5.6 0 01-5.6-5.6V1z"
        clip-rule="evenodd"
    />
    <defs>
        <linearGradient
            id="paint0_linear_5741_18643"
            x1="120.5"
            x2="118.422"
            y1="46"
            y2="100.577"
            gradientUnits="userSpaceOnUse"
        >
            <stop stop-color="#EEBEFF" />
            <stop offset="1" stop-color="#6D4AFF" />
        </linearGradient>
    </defs>
</svg>
