<svg xmlns="http://www.w3.org/2000/svg" width="290" height="194" fill="none" viewBox="0 0 290 194">
  <path fill="url(#paint0_linear_5741_18667)" d="M37 60a6 6 0 016-6h41.806a12 12 0 016.748 2.077l6.392 7.346c2.554 2.077 4.341 2.077 6.747 2.077H205a6 6 0 016 6V162c0 17.121-13.879 31-31 31H46a9 9 0 01-9-9V60z"/>
  <path fill="url(#paint1_linear_5741_18667)" fill-rule="evenodd" d="M172.162 40.002H132.35a4.35 4.35 0 00-4.35 4.35v78.3a4.35 4.35 0 004.35 4.35h60.9a4.35 4.35 0 004.35-4.35V65.44l-25.438-25.438z" clip-rule="evenodd"/>
  <path fill="#F9F9F9" fill-rule="evenodd" d="M172.16 40l25.44 25.44h-21.09a4.35 4.35 0 01-4.35-4.35V40z" clip-rule="evenodd"/>
  <path fill="#1B1340" fill-rule="evenodd" d="M162.8 73.664h-6.277c-1.322 0-2.423-1.123-2.423-2.47v-.449c0-1.347 1.101-2.47 2.423-2.47h6.277v5.39zm0 5.39h6.277c1.321 0 2.422-1.123 2.422-2.47v-.45c0-1.346-1.101-2.469-2.422-2.469h-6.278v5.386h-6.277c-1.321 0-2.422 1.123-2.422 2.47v.45c0 1.346 1.101 2.47 2.422 2.47h6.278v-5.387zm6.277 10.87h-6.278v-5.388h6.278c1.321 0 2.422 1.123 2.422 2.47v.449c0 1.46-1.101 2.47-2.422 2.47zm-10.902 4.002h9.251c1.321 0 2.423 1.01 2.312 2.47v12.91c0 1.347-1.101 2.47-2.422 2.47h-9.141c-1.321 0-2.423-1.123-2.423-2.47v-12.91c0-1.348 1.102-2.47 2.423-2.47zm7.599 14.931c.771 0 1.431-.674 1.431-1.459v-2.583c0-.785-.66-1.459-1.431-1.459h-5.947c-.771 0-1.432.674-1.432 1.459v2.583c0 .785.661 1.459 1.432 1.459h5.947z" clip-rule="evenodd"/>
  <g>
    <mask id="a" width="70" height="72" x="128" y="40" maskUnits="userSpaceOnUse" style="mask-type:alpha">
      <path fill="#F0ECE6" d="M197.446 40H128v71.571h69.446V40z"/>
    </mask>
    <g filter="url(#filter0_f_5741_18667)" mask="url(#a)" opacity=".3">
      <path fill="#221548" d="M151 34l-23 14.352V97a40.104 40.104 0 0023-36.274V34z"/>
    </g>
  </g>
  <g>
    <path fill="url(#paint2_linear_5741_18667)" fill-rule="evenodd" d="M115.412 0h-37.85A6.562 6.562 0 0071 6.562v74.374a6.562 6.562 0 006.562 6.563h56.874a6.562 6.562 0 006.563-6.563V25.587L115.412 0z" clip-rule="evenodd"/>
    <path fill="#F9F9F9" fill-rule="evenodd" d="M115.414 0l25.587 25.586h-19.024a6.563 6.563 0 01-6.563-6.563V0z" clip-rule="evenodd"/>
    <path fill="#1B1340" d="M112.638 48.692l-9.946 13.035c0 .048-.048.048-.096 0l-5.504-7a1.539 1.539 0 00-2.462 0l-7.918 10.138c-.82 1.014-.097 2.51 1.207 2.51h38.768c1.11 0 1.738-1.303 1.062-2.172l-12.601-16.511a1.587 1.587 0 00-2.51 0zM101.92 49.803a5.214 5.214 0 100-10.427 5.214 5.214 0 000 10.427z"/>
  </g>
  <g>
    <path fill="url(#paint3_linear_5741_18667)" d="M290 57c0-17.673-14.327-32-32-32-17.673 0-32 14.327-32 32v32h32c17.673 0 32-14.327 32-32z"/>
    <path fill="#fff" d="M259.599 64.357h.4a4.534 4.534 0 003.36-1.413l8-8a5.332 5.332 0 00-.587-7.547l-3.173-3.2a5.333 5.333 0 00-7.547-.56l-4.053 4.053 1.867 1.894 4.053-4.054a2.8 2.8 0 013.813.694l3.2 3.2a2.8 2.8 0 01.56 3.786l-8 8c-.44.4-1.039.577-1.626.48a3.544 3.544 0 01-2.16-1.066l-1.574-1.6-1.893 1.893 1.6 1.6a6.213 6.213 0 003.76 1.84z"/>
    <path fill="#fff" d="M246.266 71.904a6.078 6.078 0 004.293 1.866 4.56 4.56 0 003.253-1.28l4.054-4.053-1.867-1.893-4.053 4.053a2.8 2.8 0 01-3.787-.56l-3.2-3.2a2.8 2.8 0 01-.56-3.787l8-8a2.854 2.854 0 013.787.587l1.573 1.6 1.893-1.893-1.6-1.6a5.334 5.334 0 00-7.546-.56l-8 8a5.334 5.334 0 00.586 7.546l3.174 3.174z"/>
  </g>
  <path fill="url(#paint4_linear_5741_18667)" d="M67.177 108.47a8 8 0 017.59-5.47h159.908c4.096 0 6.988 4.012 5.693 7.897l-25.545 76.633a8 8 0 01-7.589 5.47H47.324c-4.095 0-6.987-4.012-5.691-7.897l25.544-76.633z"/>
  <defs>
    <linearGradient id="paint0_linear_5741_18667" x1="211" x2="162.177" y1="9.5" y2="153.121" gradientUnits="userSpaceOnUse">
      <stop stop-color="#EEBEFF"/>
      <stop offset="1" stop-color="#6D4AFF"/>
    </linearGradient>
    <linearGradient id="paint1_linear_5741_18667" x1="188.339" x2="138.524" y1="47.718" y2="127.001" gradientUnits="userSpaceOnUse">
      <stop stop-color="#EAE8E5"/>
      <stop offset="1" stop-color="#F5F4F2"/>
    </linearGradient>
    <linearGradient id="paint2_linear_5741_18667" x1="131.685" x2="81.585" y1="7.761" y2="87.497" gradientUnits="userSpaceOnUse">
      <stop stop-color="#EAE8E5"/>
      <stop offset="1" stop-color="#F5F4F2"/>
    </linearGradient>
    <linearGradient id="paint3_linear_5741_18667" x1="251.143" x2="284.462" y1="25" y2="98.231" gradientUnits="userSpaceOnUse">
      <stop stop-color="#FFD66C"/>
      <stop offset="1" stop-color="#FF8E4F"/>
    </linearGradient>
    <linearGradient id="paint4_linear_5741_18667" x1="179.5" x2="220.989" y1="78.769" y2="222.259" gradientUnits="userSpaceOnUse">
      <stop stop-color="#EEBEFF"/>
      <stop offset="1" stop-color="#6D4AFF"/>
    </linearGradient>
    <filter id="filter0_f_5741_18667" width="102.4" height="142.4" x="88.3" y="-5.7" color-interpolation-filters="sRGB" filterUnits="userSpaceOnUse">
      <feFlood flood-opacity="0" result="BackgroundImageFix"/>
      <feBlend in="SourceGraphic" in2="BackgroundImageFix" result="shape"/>
      <feGaussianBlur result="effect1_foregroundBlur_5741_18667" stdDeviation="19.85"/>
    </filter>
  </defs>
</svg>
