<svg xmlns="http://www.w3.org/2000/svg" width="358" height="202" fill="none">
    <path fill="#3F2B87" d="M329.018 162.607a.89.89 0 0 1 1.619.036l4.056 9.431h-10.255l4.58-9.467Z" />
    <path
        fill="#27DDA6"
        d="M229.262 162.607a.89.89 0 0 1 1.62.036l4.056 9.431h-10.256l4.58-9.467ZM336.79 163.307c.488-.734 1.632-.389 1.632.493v8.274h-7.458l5.826-8.767Z"
    />
    <path
        fill="url(#a)"
        d="M254.042 119.825H111.614c-1.407 0-2.536-1.162-2.536-2.57V92.348c0-1.409 1.146-2.57 2.536-2.57h142.411c1.407 0 2.536 1.161 2.536 2.57v24.907a2.531 2.531 0 0 1-2.519 2.57Z"
        opacity=".2"
    />
    <path fill="#FFA24D" d="M299.011 106.326h-14.456v65.572h14.456v-65.572Z" />
    <path fill="url(#b)" d="m299.011 145.536-14.456-7.836v-27.134h14.456v34.97Z" />
    <path
        fill="url(#c)"
        d="M338.487 119.154h-91.129a2.643 2.643 0 0 1-2.641-2.649V90.654c0-11.796 9.535-21.333 21.267-21.333h51.18c11.759 0 21.267 9.565 21.267 21.333v28.5h.056Z"
    />
    <path
        fill="url(#d)"
        d="M284.555 119.155h-37.003V90.599c0-10.234 8.285-18.544 18.488-18.544 10.202 0 18.487 8.31 18.487 18.544v28.556h.028Z"
    />
    <path
        fill="url(#e)"
        d="M266.756 119.509h-39.877c-1.407 0-2.535-1.162-2.535-2.57V92.032c0-1.408 1.146-2.57 2.535-2.57h39.859c1.407 0 2.536 1.162 2.536 2.57v24.907a2.53 2.53 0 0 1-2.518 2.57Z"
    />
    <path
        fill="url(#f)"
        d="M245.171 106.762c.942.78 2.32.78 3.262 0l20.13-16.625a2.563 2.563 0 0 0-1.727-.675h-40.051a2.56 2.56 0 0 0-1.727.675l20.113 16.625Z"
    />
    <path
        fill="url(#g)"
        fill-rule="evenodd"
        d="M302.513 59.697h15.904c.889 0 1.612-.725 1.612-1.618v-7.832c0-.892-.723-1.617-1.612-1.617h-20.072c-.89 0-1.612.725-1.612 1.617v5.193h-.002V95.2c0 1.59 1.306 2.9 2.891 2.9a2.894 2.894 0 0 0 2.891-2.9V59.697Z"
        clip-rule="evenodd"
    />
    <path
        fill="#734FFF"
        d="M284.555 119.155h-3.586v1.617h-33.416l-9.202 6.637s-2.363 1.729-3.058 4.155l-.194-.223v1.562c0 1.199.5 2.538 1.862 3.848 4.337 3.681 20.155 4.797 31.859-4.043 11.676-8.84 15.735-11.964 15.735-11.964v-1.589Z"
    />
    <path
        fill="url(#h)"
        d="m247.553 119.155-9.202 6.637s-6.282 4.629-1.39 9.37c4.337 3.681 20.156 4.796 31.859-4.044 11.704-8.84 15.735-11.963 15.735-11.963h-37.002Z"
    />
    <path
        fill="#fff"
        d="M299.623 96.65c.752 0 1.362-.612 1.362-1.367s-.61-1.366-1.362-1.366c-.753 0-1.363.611-1.363 1.366 0 .755.61 1.367 1.363 1.367Z"
    />
    <g opacity=".7">
        <path fill="#706D6B" d="M38.65 162.433a.89.89 0 0 1 1.594.037l4.506 9.604H33.562l5.089-9.641Z" />
        <path
            fill="#E1DED8"
            d="M31.193 162.433a.89.89 0 0 1 1.593.037l4.506 9.604H26.104l5.089-9.641ZM127.985 162.996c.513-.685 1.604-.323 1.604.534v8.544h-8.391l6.787-9.078Z"
        />
        <path fill="#E1DDD4" d="M65.987 106.326h14.456v65.572H65.987v-65.572Z" />
        <path fill="url(#i)" d="m65.987 145.536 14.456-7.836v-27.133H65.987v34.969Z" />
        <path
            fill="url(#j)"
            d="M26.104 119.037h91.129a2.643 2.643 0 0 0 2.641-2.649V90.537c0-11.796-9.535-21.333-21.267-21.333h-51.18c-11.76 0-21.267 9.565-21.267 21.333v28.5h-.056Z"
        />
        <path
            fill="url(#k)"
            d="M80.609 118.843h37.002V90.287c0-10.234-8.285-18.544-18.487-18.544-10.203 0-18.488 8.31-18.488 18.544v28.556h-.027Z"
        />
        <path
            fill="url(#l)"
            fill-rule="evenodd"
            d="M30.46 97.953v15.953c0 .892-.723 1.617-1.613 1.617H21.04c-.89 0-1.612-.725-1.612-1.617V93.771c0-.892.723-1.617 1.612-1.617h5.177v-.002h39.637c1.584 0 2.891 1.311 2.891 2.9 0 1.618-1.307 2.9-2.891 2.9H30.46Z"
            clip-rule="evenodd"
        />
        <path
            fill="url(#m)"
            d="M80.442 119.154h3.587v1.617h33.415l9.202 6.637s2.363 1.729 3.058 4.155l.195-.223v1.562c0 1.199-.5 2.538-1.863 3.848-4.337 3.681-20.155 4.797-31.859-4.043-11.676-8.84-15.735-11.964-15.735-11.964v-1.589Z"
        />
        <path
            fill="#E1DED8"
            d="m117.444 119.154 9.202 6.637s6.283 4.629 1.39 9.37c-4.337 3.681-20.155 4.796-31.859-4.044s-15.735-11.963-15.735-11.963h37.002Z"
        />
        <path
            fill="#fff"
            d="M65.375 96.649a1.364 1.364 0 0 1-1.362-1.367c0-.754.61-1.366 1.362-1.366.752 0 1.362.612 1.362 1.367 0 .754-.61 1.366-1.362 1.366Z"
        />
    </g>
    <defs>
        <linearGradient id="a" x1="122.13" x2="256.38" y1="104.741" y2="104.741" gradientUnits="userSpaceOnUse">
            <stop stop-color="#BEBBB6" stop-opacity="0" />
            <stop offset="1" stop-color="#BEBCB7" />
        </linearGradient>
        <linearGradient id="b" x1="289.01" x2="294.635" y1="115.495" y2="132.318" gradientUnits="userSpaceOnUse">
            <stop stop-color="#0D0A44" />
            <stop offset="1" stop-color="#0D0A44" stop-opacity="0" />
        </linearGradient>
        <linearGradient id="c" x1="291.602" x2="291.602" y1="77.153" y2="119.154" gradientUnits="userSpaceOnUse">
            <stop stop-color="#EEBEFF" />
            <stop offset="1" stop-color="#6D4AFF" />
        </linearGradient>
        <linearGradient id="d" x1="279.221" x2="239.008" y1="79.023" y2="119.111" gradientUnits="userSpaceOnUse">
            <stop stop-color="#372580" />
            <stop offset="1" stop-color="#372580" stop-opacity="0" />
        </linearGradient>
        <linearGradient id="e" x1="246.809" x2="246.809" y1="89.462" y2="113.07" gradientUnits="userSpaceOnUse">
            <stop stop-color="#C1CDF8" />
            <stop offset="1" stop-color="#E7ECFA" />
        </linearGradient>
        <linearGradient id="f" x1="246.81" x2="246.81" y1="81.95" y2="102.697" gradientUnits="userSpaceOnUse">
            <stop stop-color="#DEDEF7" />
            <stop offset="1" stop-color="#fff" />
        </linearGradient>
        <linearGradient id="g" x1="319.776" x2="294.006" y1="43.954" y2="100.472" gradientUnits="userSpaceOnUse">
            <stop stop-color="#FA8D7E" />
            <stop offset="1" stop-color="#E02626" />
        </linearGradient>
        <linearGradient id="h" x1="247.989" x2="258.296" y1="126.718" y2="106.169" gradientUnits="userSpaceOnUse">
            <stop stop-color="#EEBEFF" />
            <stop offset="1" stop-color="#6D4AFF" />
        </linearGradient>
        <linearGradient id="i" x1="73.283" x2="73.283" y1="119.403" y2="135.397" gradientUnits="userSpaceOnUse">
            <stop stop-color="#6D6C69" />
            <stop offset="1" stop-color="#6D6D6D" stop-opacity="0" />
        </linearGradient>
        <linearGradient id="j" x1="72.989" x2="72.989" y1="80.777" y2="119.037" gradientUnits="userSpaceOnUse">
            <stop stop-color="#E6E1D8" />
            <stop offset="1" stop-color="#D6D2C9" />
        </linearGradient>
        <linearGradient id="k" x1="86.603" x2="117.395" y1="86.303" y2="118.595" gradientUnits="userSpaceOnUse">
            <stop stop-color="#1F1E1E" />
            <stop offset="1" stop-color="#6D6C69" stop-opacity="0" />
        </linearGradient>
        <linearGradient id="l" x1="21.909" x2="41.102" y1="84.635" y2="112.635" gradientUnits="userSpaceOnUse">
            <stop stop-color="#DFDCD6" />
            <stop offset=".969" stop-color="#9E9C98" />
        </linearGradient>
        <linearGradient id="m" x1="118.724" x2="94.357" y1="120.202" y2="137.723" gradientUnits="userSpaceOnUse">
            <stop stop-color="#E9E6DF" />
            <stop offset="1" stop-color="#A5A39E" />
        </linearGradient>
    </defs>
</svg>
