<svg width="320" height="180" viewBox="0 0 320 180" fill="none" xmlns="http://www.w3.org/2000/svg">
    <g clip-path="url(#clip0_767_99898)">
        <rect x="63" y="114" width="110" height="39" fill="#BDB9B3" />
        <path
            d="M118.384 100.672L178.328 100.672L170.448 86.1576C168.815 83.2728 166.799 80.9992 162.268 80.9992L118.184 80.9992L74.0588 80.9992C69.568 80.9992 67.849 83.2728 65.8791 86.1576L57.9988 100.672L118.384 100.672Z"
            fill="url(#paint0_linear_767_99898)"
        />
        <g filter="url(#filter0_i_767_99898)">
            <rect x="58.0039" y="129" width="120.329" height="27.6166" rx="4" fill="url(#paint1_linear_767_99898)" />
        </g>
        <rect opacity="0.5" x="65.8945" y="140.836" width="62.1373" height="3.94522" rx="1.97261" fill="#C7C1B6" />
        <rect x="159.594" y="140.836" width="3.94522" height="3.94522" rx="1.97261" fill="white" />
        <rect x="151.703" y="140.836" width="3.94522" height="3.94522" rx="1.97261" fill="white" />
        <rect x="167.484" y="140.836" width="3.94522" height="3.94522" rx="1.97261" fill="#29FFB2" />
        <g filter="url(#filter1_i_767_99898)">
            <rect x="58.0039" y="97" width="120.329" height="27.6166" rx="4" fill="url(#paint2_linear_767_99898)" />
        </g>
        <rect opacity="0.5" x="65.8945" y="108.836" width="62.1373" height="3.94522" rx="1.97261" fill="#C7C1B6" />
        <rect x="159.594" y="108.836" width="3.94522" height="3.94522" rx="1.97261" fill="white" />
        <rect x="151.703" y="108.836" width="3.94522" height="3.94522" rx="1.97261" fill="#29FFB2" />
        <rect x="167.484" y="108.836" width="3.94522" height="3.94522" rx="1.97261" fill="#29FFB2" />
        <rect opacity="0.5" x="80" y="81" width="32" height="75" fill="url(#paint3_linear_767_99898)" />
    </g>
    <g clip-path="url(#clip1_767_99898)">
        <rect x="148" y="114" width="110" height="39" fill="#BDB9B3" />
        <path
            d="M203.384 100.672L263.328 100.672L255.448 86.1576C253.815 83.2728 251.799 80.9992 247.268 80.9992L203.184 80.9992L159.059 80.9992C154.568 80.9992 152.849 83.2728 150.879 86.1576L142.999 100.672L203.384 100.672Z"
            fill="url(#paint4_linear_767_99898)"
        />
        <g filter="url(#filter2_i_767_99898)">
            <rect x="143.004" y="129" width="120.329" height="27.6166" rx="4" fill="url(#paint5_linear_767_99898)" />
        </g>
        <rect x="150.895" y="140.836" width="62.1373" height="3.94522" rx="1.97261" fill="#C7C1B6" />
        <rect opacity="0.5" x="244.594" y="140.836" width="3.94522" height="3.94522" rx="1.97261" fill="#C7C1B6" />
        <rect opacity="0.5" x="236.703" y="140.836" width="3.94522" height="3.94522" rx="1.97261" fill="#C7C1B6" />
        <rect x="252.484" y="140.836" width="3.94522" height="3.94522" rx="1.97261" fill="#10C282" />
        <g filter="url(#filter3_i_767_99898)">
            <rect x="143.004" y="97" width="120.329" height="27.6166" rx="4" fill="url(#paint6_linear_767_99898)" />
        </g>
        <rect x="150.895" y="108.836" width="62.1373" height="3.94522" rx="1.97261" fill="#C7C1B6" />
        <rect opacity="0.5" x="244.594" y="108.836" width="3.94522" height="3.94522" rx="1.97261" fill="#C7C1B6" />
        <rect x="236.703" y="108.836" width="3.94522" height="3.94522" rx="1.97261" fill="#10C282" />
        <rect x="252.484" y="108.836" width="3.94522" height="3.94522" rx="1.97261" fill="#10C282" />
        <rect
            opacity="0.5"
            width="32"
            height="75"
            transform="matrix(-1 0 0 1 245 81)"
            fill="url(#paint7_linear_767_99898)"
        />
    </g>
    <rect x="104.929" y="90.6836" width="110.466" height="65.0962" fill="#BDB9B3" />
    <rect x="99.9971" y="138" width="120.329" height="27.6166" rx="4" fill="url(#paint8_linear_767_99898)" />
    <rect opacity="0.5" x="107.888" y="149.836" width="62.1373" height="3.94522" rx="1.97261" fill="#C7C1B6" />
    <rect x="201.586" y="149.836" width="3.94522" height="3.94522" rx="1.97261" fill="#10C282" />
    <rect opacity="0.5" x="193.696" y="149.836" width="3.94522" height="3.94522" rx="1.97261" fill="#C7C1B6" />
    <rect opacity="0.5" x="209.477" y="149.836" width="3.94522" height="3.94522" rx="1.97261" fill="#C7C1B6" />
    <path
        d="M160.381 77.6719L220.325 77.6719L212.445 63.1576C210.812 60.2728 208.796 57.9992 204.265 57.9992L160.181 57.9992L116.056 57.9992C111.565 57.9992 109.846 60.2728 107.876 63.1576L99.9959 77.6719L160.381 77.6719Z"
        fill="url(#paint9_linear_767_99898)"
    />
    <mask
        id="mask0_767_99898"
        style="mask-type: alpha"
        maskUnits="userSpaceOnUse"
        x="99"
        y="58"
        width="122"
        height="20"
    >
        <path
            opacity="0.8"
            d="M160.382 77.6719L220.326 77.6719L212.446 63.1576C210.813 60.2728 208.797 57.9992 204.266 57.9992L160.182 57.9992L116.057 57.9992C111.566 57.9992 109.847 60.2728 107.877 63.1576L99.9969 77.6719L160.382 77.6719Z"
            fill="url(#paint10_linear_767_99898)"
        />
    </mask>
    <g mask="url(#mask0_767_99898)">
        <g filter="url(#filter4_f_767_99898)">
            <path
                d="M136 63C136 60.7909 145.402 59 157 59C168.598 59 178 60.7909 178 63C178 65.2091 168.598 67 157 67C145.402 67 136 65.2091 136 63Z"
                fill="#414B59"
                fill-opacity="0.8"
            />
        </g>
    </g>
    <g filter="url(#filter5_i_767_99898)">
        <rect x="99.998" y="106" width="120.329" height="27.6166" rx="4" fill="url(#paint11_linear_767_99898)" />
    </g>
    <rect opacity="0.5" x="107.888" y="117.836" width="62.1373" height="3.94522" rx="1.97261" fill="#C7C1B6" />
    <rect opacity="0.5" x="201.587" y="117.836" width="3.94522" height="3.94522" rx="1.97261" fill="#C7C1B6" />
    <rect opacity="0.5" x="193.696" y="117.836" width="3.94522" height="3.94522" rx="1.97261" fill="#C7C1B6" />
    <rect x="209.478" y="117.836" width="3.94522" height="3.94522" rx="1.97261" fill="#10C282" />
    <g filter="url(#filter6_i_767_99898)">
        <rect x="99.998" y="74" width="120.329" height="27.6166" rx="4" fill="url(#paint12_linear_767_99898)" />
    </g>
    <rect opacity="0.5" x="107.889" y="85.8359" width="62.1373" height="3.94522" rx="1.97261" fill="#C7C1B6" />
    <rect opacity="0.5" x="201.587" y="85.8359" width="3.94522" height="3.94522" rx="1.97261" fill="#C7C1B6" />
    <rect x="193.696" y="85.8359" width="3.94522" height="3.94522" rx="1.97261" fill="#10C282" />
    <rect x="209.478" y="85.8359" width="3.94522" height="3.94522" rx="1.97261" fill="#10C282" />
    <path
        d="M134 8C127.373 8 122 13.3726 122 20V42.5724C122 49.1998 127.373 54.5724 134 54.5724H146.911L157.5 63.5L167.5 54.5724H178C184.627 54.5724 190 49.1999 190 42.5724V20C190 13.3726 184.627 8 178 8H134Z"
        fill="url(#paint13_linear_767_99898)"
    />
    <path
        fill-rule="evenodd"
        clip-rule="evenodd"
        d="M167.296 41.2959C172.854 35.7379 172.854 26.7266 167.296 21.1685C161.738 15.6105 152.727 15.6105 147.169 21.1685C141.61 26.7266 141.61 35.7379 147.169 41.2959C152.727 46.854 161.738 46.854 167.296 41.2959ZM166.428 25.6222C168.962 29.7689 168.435 35.2591 164.847 38.8472C161.259 42.4353 155.769 42.9621 151.622 40.4277L166.428 25.6222ZM164.163 22.9891L148.989 38.1632C145.423 33.9321 145.633 27.6019 149.617 23.6173C153.602 19.6327 159.932 19.4233 164.163 22.9891Z"
        fill="white"
    />
    <defs>
        <filter
            id="filter0_i_767_99898"
            x="58.0039"
            y="129"
            width="120.329"
            height="27.6172"
            filterUnits="userSpaceOnUse"
            color-interpolation-filters="sRGB"
        >
            <feFlood flood-opacity="0" result="BackgroundImageFix" />
            <feBlend mode="normal" in="SourceGraphic" in2="BackgroundImageFix" result="shape" />
            <feColorMatrix
                in="SourceAlpha"
                type="matrix"
                values="0 0 0 0 0 0 0 0 0 0 0 0 0 0 0 0 0 0 127 0"
                result="hardAlpha"
            />
            <feOffset dy="-1" />
            <feComposite in2="hardAlpha" operator="arithmetic" k2="-1" k3="1" />
            <feColorMatrix type="matrix" values="0 0 0 0 1 0 0 0 0 1 0 0 0 0 1 0 0 0 0.3 0" />
            <feBlend mode="normal" in2="shape" result="effect1_innerShadow_767_99898" />
        </filter>
        <filter
            id="filter1_i_767_99898"
            x="58.0039"
            y="97"
            width="120.329"
            height="27.6172"
            filterUnits="userSpaceOnUse"
            color-interpolation-filters="sRGB"
        >
            <feFlood flood-opacity="0" result="BackgroundImageFix" />
            <feBlend mode="normal" in="SourceGraphic" in2="BackgroundImageFix" result="shape" />
            <feColorMatrix
                in="SourceAlpha"
                type="matrix"
                values="0 0 0 0 0 0 0 0 0 0 0 0 0 0 0 0 0 0 127 0"
                result="hardAlpha"
            />
            <feOffset dy="-1" />
            <feComposite in2="hardAlpha" operator="arithmetic" k2="-1" k3="1" />
            <feColorMatrix type="matrix" values="0 0 0 0 1 0 0 0 0 1 0 0 0 0 1 0 0 0 0.3 0" />
            <feBlend mode="normal" in2="shape" result="effect1_innerShadow_767_99898" />
        </filter>
        <filter
            id="filter2_i_767_99898"
            x="143.004"
            y="129"
            width="120.329"
            height="27.6172"
            filterUnits="userSpaceOnUse"
            color-interpolation-filters="sRGB"
        >
            <feFlood flood-opacity="0" result="BackgroundImageFix" />
            <feBlend mode="normal" in="SourceGraphic" in2="BackgroundImageFix" result="shape" />
            <feColorMatrix
                in="SourceAlpha"
                type="matrix"
                values="0 0 0 0 0 0 0 0 0 0 0 0 0 0 0 0 0 0 127 0"
                result="hardAlpha"
            />
            <feOffset dy="-1" />
            <feComposite in2="hardAlpha" operator="arithmetic" k2="-1" k3="1" />
            <feColorMatrix type="matrix" values="0 0 0 0 1 0 0 0 0 1 0 0 0 0 1 0 0 0 0.3 0" />
            <feBlend mode="normal" in2="shape" result="effect1_innerShadow_767_99898" />
        </filter>
        <filter
            id="filter3_i_767_99898"
            x="143.004"
            y="97"
            width="120.329"
            height="27.6172"
            filterUnits="userSpaceOnUse"
            color-interpolation-filters="sRGB"
        >
            <feFlood flood-opacity="0" result="BackgroundImageFix" />
            <feBlend mode="normal" in="SourceGraphic" in2="BackgroundImageFix" result="shape" />
            <feColorMatrix
                in="SourceAlpha"
                type="matrix"
                values="0 0 0 0 0 0 0 0 0 0 0 0 0 0 0 0 0 0 127 0"
                result="hardAlpha"
            />
            <feOffset dy="-1" />
            <feComposite in2="hardAlpha" operator="arithmetic" k2="-1" k3="1" />
            <feColorMatrix type="matrix" values="0 0 0 0 1 0 0 0 0 1 0 0 0 0 1 0 0 0 0.3 0" />
            <feBlend mode="normal" in2="shape" result="effect1_innerShadow_767_99898" />
        </filter>
        <filter
            id="filter4_f_767_99898"
            x="124"
            y="47"
            width="66"
            height="32"
            filterUnits="userSpaceOnUse"
            color-interpolation-filters="sRGB"
        >
            <feFlood flood-opacity="0" result="BackgroundImageFix" />
            <feBlend mode="normal" in="SourceGraphic" in2="BackgroundImageFix" result="shape" />
            <feGaussianBlur stdDeviation="6" result="effect1_foregroundBlur_767_99898" />
        </filter>
        <filter
            id="filter5_i_767_99898"
            x="99.998"
            y="106"
            width="120.329"
            height="27.6172"
            filterUnits="userSpaceOnUse"
            color-interpolation-filters="sRGB"
        >
            <feFlood flood-opacity="0" result="BackgroundImageFix" />
            <feBlend mode="normal" in="SourceGraphic" in2="BackgroundImageFix" result="shape" />
            <feColorMatrix
                in="SourceAlpha"
                type="matrix"
                values="0 0 0 0 0 0 0 0 0 0 0 0 0 0 0 0 0 0 127 0"
                result="hardAlpha"
            />
            <feOffset dy="-1" />
            <feComposite in2="hardAlpha" operator="arithmetic" k2="-1" k3="1" />
            <feColorMatrix type="matrix" values="0 0 0 0 1 0 0 0 0 1 0 0 0 0 1 0 0 0 0.3 0" />
            <feBlend mode="normal" in2="shape" result="effect1_innerShadow_767_99898" />
        </filter>
        <filter
            id="filter6_i_767_99898"
            x="99.998"
            y="74"
            width="120.329"
            height="27.6172"
            filterUnits="userSpaceOnUse"
            color-interpolation-filters="sRGB"
        >
            <feFlood flood-opacity="0" result="BackgroundImageFix" />
            <feBlend mode="normal" in="SourceGraphic" in2="BackgroundImageFix" result="shape" />
            <feColorMatrix
                in="SourceAlpha"
                type="matrix"
                values="0 0 0 0 0 0 0 0 0 0 0 0 0 0 0 0 0 0 127 0"
                result="hardAlpha"
            />
            <feOffset dy="-1" />
            <feComposite in2="hardAlpha" operator="arithmetic" k2="-1" k3="1" />
            <feColorMatrix type="matrix" values="0 0 0 0 1 0 0 0 0 1 0 0 0 0 1 0 0 0 0.3 0" />
            <feBlend mode="normal" in2="shape" result="effect1_innerShadow_767_99898" />
        </filter>
        <linearGradient
            id="paint0_linear_767_99898"
            x1="110.501"
            y1="138"
            x2="144.16"
            y2="51.8194"
            gradientUnits="userSpaceOnUse"
        >
            <stop stop-color="#BDB9B3" />
            <stop offset="1" stop-color="#F0EDE6" />
        </linearGradient>
        <linearGradient
            id="paint1_linear_767_99898"
            x1="70.3181"
            y1="129"
            x2="78.8715"
            y2="173.499"
            gradientUnits="userSpaceOnUse"
        >
            <stop stop-color="#EBE7E1" />
            <stop offset="0.385417" stop-color="#F5F2EB" />
            <stop offset="1" stop-color="#D6D3CE" />
        </linearGradient>
        <linearGradient
            id="paint2_linear_767_99898"
            x1="70.3181"
            y1="97"
            x2="78.8715"
            y2="141.499"
            gradientUnits="userSpaceOnUse"
        >
            <stop stop-color="#EBE7E1" />
            <stop offset="0.385417" stop-color="#F5F2EB" />
            <stop offset="1" stop-color="#D6D3CE" />
        </linearGradient>
        <linearGradient id="paint3_linear_767_99898" x1="112" y1="156" x2="80" y2="156" gradientUnits="userSpaceOnUse">
            <stop stop-color="#414B59" />
            <stop offset="1" stop-color="#414B59" stop-opacity="0" />
        </linearGradient>
        <linearGradient
            id="paint4_linear_767_99898"
            x1="195.501"
            y1="138"
            x2="229.16"
            y2="51.8194"
            gradientUnits="userSpaceOnUse"
        >
            <stop stop-color="#BDB9B3" />
            <stop offset="1" stop-color="#F0EDE6" />
        </linearGradient>
        <linearGradient
            id="paint5_linear_767_99898"
            x1="155.318"
            y1="129"
            x2="163.872"
            y2="173.499"
            gradientUnits="userSpaceOnUse"
        >
            <stop stop-color="#EBE7E1" />
            <stop offset="0.385417" stop-color="#F5F2EB" />
            <stop offset="1" stop-color="#D6D3CE" />
        </linearGradient>
        <linearGradient
            id="paint6_linear_767_99898"
            x1="155.318"
            y1="97"
            x2="163.872"
            y2="141.499"
            gradientUnits="userSpaceOnUse"
        >
            <stop stop-color="#EBE7E1" />
            <stop offset="0.385417" stop-color="#F5F2EB" />
            <stop offset="1" stop-color="#D6D3CE" />
        </linearGradient>
        <linearGradient id="paint7_linear_767_99898" x1="32" y1="75" x2="0" y2="75" gradientUnits="userSpaceOnUse">
            <stop stop-color="#414B59" />
            <stop offset="1" stop-color="#414B59" stop-opacity="0" />
        </linearGradient>
        <linearGradient
            id="paint8_linear_767_99898"
            x1="112.311"
            y1="138"
            x2="120.865"
            y2="182.499"
            gradientUnits="userSpaceOnUse"
        >
            <stop stop-color="#EBE7E1" />
            <stop offset="0.385417" stop-color="#F5F2EB" />
            <stop offset="1" stop-color="#D6D3CE" />
        </linearGradient>
        <linearGradient
            id="paint9_linear_767_99898"
            x1="152.498"
            y1="115"
            x2="186.157"
            y2="28.8194"
            gradientUnits="userSpaceOnUse"
        >
            <stop stop-color="#BDB9B3" />
            <stop offset="1" stop-color="#F0EDE6" />
        </linearGradient>
        <linearGradient
            id="paint10_linear_767_99898"
            x1="192.498"
            y1="39"
            x2="116.552"
            y2="63.8325"
            gradientUnits="userSpaceOnUse"
        >
            <stop stop-color="#C7C1B6" />
            <stop offset="1" stop-color="white" />
        </linearGradient>
        <linearGradient
            id="paint11_linear_767_99898"
            x1="112.312"
            y1="106"
            x2="120.866"
            y2="150.499"
            gradientUnits="userSpaceOnUse"
        >
            <stop stop-color="#EBE7E1" />
            <stop offset="0.385417" stop-color="#F5F2EB" />
            <stop offset="1" stop-color="#D6D3CE" />
        </linearGradient>
        <linearGradient
            id="paint12_linear_767_99898"
            x1="112.312"
            y1="74"
            x2="120.866"
            y2="118.499"
            gradientUnits="userSpaceOnUse"
        >
            <stop stop-color="#EBE7E1" />
            <stop offset="0.385417" stop-color="#F5F2EB" />
            <stop offset="1" stop-color="#D6D3CE" />
        </linearGradient>
        <linearGradient
            id="paint13_linear_767_99898"
            x1="180"
            y1="-5.5"
            x2="161.652"
            y2="66.829"
            gradientUnits="userSpaceOnUse"
        >
            <stop stop-color="#FFD66C" />
            <stop offset="1" stop-color="#FF8E4F" />
        </linearGradient>
        <clipPath id="clip0_767_99898">
            <rect width="120" height="75" fill="white" transform="translate(58 81)" />
        </clipPath>
        <clipPath id="clip1_767_99898">
            <rect width="120" height="75" fill="white" transform="translate(143 81)" />
        </clipPath>
    </defs>
</svg>
