<svg width="320" height="180" viewBox="0 0 320 180" fill="none" xmlns="http://www.w3.org/2000/svg">
    <g clip-path="url(#clip0_767_99808)">
        <rect x="63" y="114" width="110" height="39" fill="#BDB9B3" />
        <path
            d="M118.384 100.672L178.328 100.672L170.448 86.1576C168.815 83.2728 166.799 80.9992 162.268 80.9992L118.184 80.9992L74.0588 80.9992C69.568 80.9992 67.849 83.2728 65.8791 86.1576L57.9988 100.672L118.384 100.672Z"
            fill="url(#paint0_linear_767_99808)"
        />
        <g filter="url(#filter0_i_767_99808)">
            <rect x="58.0039" y="129" width="120.329" height="27.6166" rx="4" fill="url(#paint1_linear_767_99808)" />
        </g>
        <rect opacity="0.5" x="65.8945" y="140.836" width="62.1373" height="3.94522" rx="1.97261" fill="#C7C1B6" />
        <rect x="159.594" y="140.836" width="3.94522" height="3.94522" rx="1.97261" fill="white" />
        <rect x="151.703" y="140.836" width="3.94522" height="3.94522" rx="1.97261" fill="white" />
        <rect x="167.484" y="140.836" width="3.94522" height="3.94522" rx="1.97261" fill="#29FFB2" />
        <g filter="url(#filter1_i_767_99808)">
            <rect x="58.0039" y="97" width="120.329" height="27.6166" rx="4" fill="url(#paint2_linear_767_99808)" />
        </g>
        <rect opacity="0.5" x="65.8945" y="108.836" width="62.1373" height="3.94522" rx="1.97261" fill="#C7C1B6" />
        <rect x="159.594" y="108.836" width="3.94522" height="3.94522" rx="1.97261" fill="white" />
        <rect x="151.703" y="108.836" width="3.94522" height="3.94522" rx="1.97261" fill="#29FFB2" />
        <rect x="167.484" y="108.836" width="3.94522" height="3.94522" rx="1.97261" fill="#29FFB2" />
        <rect opacity="0.5" x="80" y="81" width="32" height="75" fill="url(#paint3_linear_767_99808)" />
    </g>
    <g clip-path="url(#clip1_767_99808)">
        <rect x="148" y="114" width="110" height="39" fill="#BDB9B3" />
        <path
            d="M203.384 100.672L263.328 100.672L255.448 86.1576C253.815 83.2728 251.799 80.9992 247.268 80.9992L203.184 80.9992L159.059 80.9992C154.568 80.9992 152.849 83.2728 150.879 86.1576L142.999 100.672L203.384 100.672Z"
            fill="url(#paint4_linear_767_99808)"
        />
        <g filter="url(#filter2_i_767_99808)">
            <rect x="143.004" y="129" width="120.329" height="27.6166" rx="4" fill="url(#paint5_linear_767_99808)" />
        </g>
        <rect x="150.895" y="140.836" width="62.1373" height="3.94522" rx="1.97261" fill="#C7C1B6" />
        <rect opacity="0.5" x="244.594" y="140.836" width="3.94522" height="3.94522" rx="1.97261" fill="#C7C1B6" />
        <rect opacity="0.5" x="236.703" y="140.836" width="3.94522" height="3.94522" rx="1.97261" fill="#C7C1B6" />
        <rect x="252.484" y="140.836" width="3.94522" height="3.94522" rx="1.97261" fill="#10C282" />
        <g filter="url(#filter3_i_767_99808)">
            <rect x="143.004" y="97" width="120.329" height="27.6166" rx="4" fill="url(#paint6_linear_767_99808)" />
        </g>
        <rect x="150.895" y="108.836" width="62.1373" height="3.94522" rx="1.97261" fill="#C7C1B6" />
        <rect opacity="0.5" x="244.594" y="108.836" width="3.94522" height="3.94522" rx="1.97261" fill="#C7C1B6" />
        <rect x="236.703" y="108.836" width="3.94522" height="3.94522" rx="1.97261" fill="#10C282" />
        <rect x="252.484" y="108.836" width="3.94522" height="3.94522" rx="1.97261" fill="#10C282" />
        <rect
            opacity="0.5"
            width="32"
            height="75"
            transform="matrix(-1 0 0 1 245 81)"
            fill="url(#paint7_linear_767_99808)"
        />
    </g>
    <rect x="104.929" y="90.6836" width="110.466" height="65.0962" fill="#BDB9B3" />
    <rect x="99.9971" y="138" width="120.329" height="27.6166" rx="4" fill="url(#paint8_linear_767_99808)" />
    <rect opacity="0.5" x="107.888" y="149.836" width="62.1373" height="3.94522" rx="1.97261" fill="#C7C1B6" />
    <rect x="201.586" y="149.836" width="3.94522" height="3.94522" rx="1.97261" fill="#10C282" />
    <rect opacity="0.5" x="193.696" y="149.836" width="3.94522" height="3.94522" rx="1.97261" fill="#C7C1B6" />
    <rect opacity="0.5" x="209.477" y="149.836" width="3.94522" height="3.94522" rx="1.97261" fill="#C7C1B6" />
    <path
        d="M160.381 77.6719L220.325 77.6719L212.445 63.1576C210.812 60.2728 208.796 57.9992 204.265 57.9992L160.181 57.9992L116.056 57.9992C111.565 57.9992 109.846 60.2728 107.876 63.1576L99.9959 77.6719L160.381 77.6719Z"
        fill="url(#paint9_linear_767_99808)"
    />
    <mask
        id="mask0_767_99808"
        style="mask-type: alpha"
        maskUnits="userSpaceOnUse"
        x="99"
        y="58"
        width="122"
        height="20"
    >
        <path
            opacity="0.8"
            d="M160.382 77.6719L220.326 77.6719L212.446 63.1576C210.813 60.2728 208.797 57.9992 204.266 57.9992L160.182 57.9992L116.057 57.9992C111.566 57.9992 109.847 60.2728 107.877 63.1576L99.9969 77.6719L160.382 77.6719Z"
            fill="url(#paint10_linear_767_99808)"
        />
    </mask>
    <g mask="url(#mask0_767_99808)">
        <g filter="url(#filter4_f_767_99808)">
            <path
                d="M77.001 67C77.001 51.536 89.537 39 105.001 39C120.465 39 133.001 51.536 133.001 67C133.001 82.464 120.465 95 105.001 95C89.537 95 77.001 82.464 77.001 67Z"
                fill="#414B59"
                fill-opacity="0.6"
            />
        </g>
        <g filter="url(#filter5_f_767_99808)">
            <path
                d="M189.001 53C189.001 41.402 198.403 32 210.001 32C221.599 32 231.001 41.402 231.001 53C231.001 64.598 221.599 74 210.001 74C198.403 74 189.001 64.598 189.001 53Z"
                fill="#414B59"
                fill-opacity="0.6"
            />
        </g>
    </g>
    <g filter="url(#filter6_i_767_99808)">
        <rect x="99.998" y="106" width="120.329" height="27.6166" rx="4" fill="url(#paint11_linear_767_99808)" />
    </g>
    <rect opacity="0.5" x="107.888" y="117.836" width="62.1373" height="3.94522" rx="1.97261" fill="#C7C1B6" />
    <rect opacity="0.5" x="201.587" y="117.836" width="3.94522" height="3.94522" rx="1.97261" fill="#C7C1B6" />
    <rect opacity="0.5" x="193.696" y="117.836" width="3.94522" height="3.94522" rx="1.97261" fill="#C7C1B6" />
    <rect x="209.478" y="117.836" width="3.94522" height="3.94522" rx="1.97261" fill="#10C282" />
    <g filter="url(#filter7_i_767_99808)">
        <rect x="99.998" y="74" width="120.329" height="27.6166" rx="4" fill="url(#paint12_linear_767_99808)" />
    </g>
    <rect opacity="0.5" x="107.889" y="85.8359" width="62.1373" height="3.94522" rx="1.97261" fill="#C7C1B6" />
    <rect opacity="0.5" x="201.587" y="85.8359" width="3.94522" height="3.94522" rx="1.97261" fill="#C7C1B6" />
    <rect x="193.696" y="85.8359" width="3.94522" height="3.94522" rx="1.97261" fill="#10C282" />
    <rect x="209.478" y="85.8359" width="3.94522" height="3.94522" rx="1.97261" fill="#10C282" />
    <mask
        id="mask1_767_99808"
        style="mask-type: alpha"
        maskUnits="userSpaceOnUse"
        x="99"
        y="74"
        width="122"
        height="28"
    >
        <rect x="99.998" y="74" width="120.329" height="27.6166" rx="4" fill="url(#paint13_linear_767_99808)" />
    </mask>
    <g mask="url(#mask1_767_99808)">
        <g filter="url(#filter8_f_767_99808)">
            <path
                d="M74.998 66C74.998 50.536 87.5341 38 102.998 38C118.462 38 130.998 50.536 130.998 66C130.998 81.464 118.462 94 102.998 94C87.5341 94 74.998 81.464 74.998 66Z"
                fill="#414B59"
                fill-opacity="0.6"
            />
        </g>
    </g>
    <path
        d="M72 58C72 42.536 84.536 30 100 30C115.464 30 128 42.536 128 58C128 73.464 115.464 86 100 86C84.536 86 72 73.464 72 58Z"
        fill="url(#paint14_linear_767_99808)"
    />
    <path
        d="M99.5538 55.224C102.929 55.224 105.666 52.4875 105.666 49.112C105.666 45.7364 102.929 43 99.5538 43C96.1783 43 93.4419 45.7364 93.4419 49.112C93.4419 52.4875 96.1783 55.224 99.5538 55.224Z"
        fill="white"
    />
    <path
        d="M91.0828 72.4871C87.4371 72.4871 84.9708 68.5196 86.7937 65.41C89.2599 60.9065 94.0852 57.7969 99.661 57.7969C105.237 57.7969 109.955 60.7993 112.528 65.41C114.351 68.6269 111.885 72.4871 108.239 72.4871H91.0828Z"
        fill="white"
    />
    <path
        d="M197 47C197 35.402 206.402 26 218 26C229.598 26 239 35.402 239 47C239 58.598 229.598 68 218 68C206.402 68 197 58.598 197 47Z"
        fill="url(#paint15_linear_767_99808)"
    />
    <path
        d="M217.667 44.918C220.199 44.918 222.251 42.8656 222.251 40.334C222.251 37.8023 220.199 35.75 217.667 35.75C215.135 35.75 213.083 37.8023 213.083 40.334C213.083 42.8656 215.135 44.918 217.667 44.918Z"
        fill="white"
    />
    <path
        d="M211.315 57.8653C208.58 57.8653 206.731 54.8897 208.098 52.5575C209.948 49.1799 213.567 46.8477 217.748 46.8477C221.93 46.8477 225.469 49.0994 227.399 52.5575C228.766 54.9702 226.916 57.8653 224.182 57.8653H211.315Z"
        fill="white"
    />
    <path
        d="M134 30C134 21.7157 140.716 15 149 15C157.284 15 164 21.7157 164 30C164 38.2843 157.284 45 149 45C140.716 45 134 38.2843 134 30Z"
        fill="url(#paint16_linear_767_99808)"
    />
    <path
        d="M148.762 28.5134C150.57 28.5134 152.036 27.0474 152.036 25.2391C152.036 23.4308 150.57 21.9648 148.762 21.9648C146.953 21.9648 145.487 23.4308 145.487 25.2391C145.487 27.0474 146.953 28.5134 148.762 28.5134Z"
        fill="white"
    />
    <path
        d="M144.225 37.7604C142.272 37.7604 140.951 35.635 141.927 33.9691C143.248 31.5565 145.833 29.8906 148.82 29.8906C151.807 29.8906 154.335 31.499 155.714 33.9691C156.69 35.6924 155.369 37.7604 153.416 37.7604H144.225Z"
        fill="white"
    />
    <path
        d="M280 67L274 64.7841L271.239 63.7614L270.216 61L268 55L265.784 61L264.761 63.7614L262 64.7841L256 67L262 69.2159L264.761 70.2386L265.784 73L268 79L270.216 73L271.239 70.2386L274 69.2159L280 67Z"
        fill="#E5BFEF"
        fill-opacity="0.5"
    />
    <path
        d="M58 22L55 20.892L53.6193 20.3807L53.108 19L52 16L50.892 19L50.3807 20.3807L49 20.892L46 22L49 23.108L50.3807 23.6193L50.892 25L52 28L53.108 25L53.6193 23.6193L55 23.108L58 22Z"
        fill="#E5BFEF"
        fill-opacity="0.5"
    />
    <defs>
        <filter
            id="filter0_i_767_99808"
            x="58.0039"
            y="129"
            width="120.329"
            height="27.6172"
            filterUnits="userSpaceOnUse"
            color-interpolation-filters="sRGB"
        >
            <feFlood flood-opacity="0" result="BackgroundImageFix" />
            <feBlend mode="normal" in="SourceGraphic" in2="BackgroundImageFix" result="shape" />
            <feColorMatrix
                in="SourceAlpha"
                type="matrix"
                values="0 0 0 0 0 0 0 0 0 0 0 0 0 0 0 0 0 0 127 0"
                result="hardAlpha"
            />
            <feOffset dy="-1" />
            <feComposite in2="hardAlpha" operator="arithmetic" k2="-1" k3="1" />
            <feColorMatrix type="matrix" values="0 0 0 0 1 0 0 0 0 1 0 0 0 0 1 0 0 0 0.3 0" />
            <feBlend mode="normal" in2="shape" result="effect1_innerShadow_767_99808" />
        </filter>
        <filter
            id="filter1_i_767_99808"
            x="58.0039"
            y="97"
            width="120.329"
            height="27.6172"
            filterUnits="userSpaceOnUse"
            color-interpolation-filters="sRGB"
        >
            <feFlood flood-opacity="0" result="BackgroundImageFix" />
            <feBlend mode="normal" in="SourceGraphic" in2="BackgroundImageFix" result="shape" />
            <feColorMatrix
                in="SourceAlpha"
                type="matrix"
                values="0 0 0 0 0 0 0 0 0 0 0 0 0 0 0 0 0 0 127 0"
                result="hardAlpha"
            />
            <feOffset dy="-1" />
            <feComposite in2="hardAlpha" operator="arithmetic" k2="-1" k3="1" />
            <feColorMatrix type="matrix" values="0 0 0 0 1 0 0 0 0 1 0 0 0 0 1 0 0 0 0.3 0" />
            <feBlend mode="normal" in2="shape" result="effect1_innerShadow_767_99808" />
        </filter>
        <filter
            id="filter2_i_767_99808"
            x="143.004"
            y="129"
            width="120.329"
            height="27.6172"
            filterUnits="userSpaceOnUse"
            color-interpolation-filters="sRGB"
        >
            <feFlood flood-opacity="0" result="BackgroundImageFix" />
            <feBlend mode="normal" in="SourceGraphic" in2="BackgroundImageFix" result="shape" />
            <feColorMatrix
                in="SourceAlpha"
                type="matrix"
                values="0 0 0 0 0 0 0 0 0 0 0 0 0 0 0 0 0 0 127 0"
                result="hardAlpha"
            />
            <feOffset dy="-1" />
            <feComposite in2="hardAlpha" operator="arithmetic" k2="-1" k3="1" />
            <feColorMatrix type="matrix" values="0 0 0 0 1 0 0 0 0 1 0 0 0 0 1 0 0 0 0.3 0" />
            <feBlend mode="normal" in2="shape" result="effect1_innerShadow_767_99808" />
        </filter>
        <filter
            id="filter3_i_767_99808"
            x="143.004"
            y="97"
            width="120.329"
            height="27.6172"
            filterUnits="userSpaceOnUse"
            color-interpolation-filters="sRGB"
        >
            <feFlood flood-opacity="0" result="BackgroundImageFix" />
            <feBlend mode="normal" in="SourceGraphic" in2="BackgroundImageFix" result="shape" />
            <feColorMatrix
                in="SourceAlpha"
                type="matrix"
                values="0 0 0 0 0 0 0 0 0 0 0 0 0 0 0 0 0 0 127 0"
                result="hardAlpha"
            />
            <feOffset dy="-1" />
            <feComposite in2="hardAlpha" operator="arithmetic" k2="-1" k3="1" />
            <feColorMatrix type="matrix" values="0 0 0 0 1 0 0 0 0 1 0 0 0 0 1 0 0 0 0.3 0" />
            <feBlend mode="normal" in2="shape" result="effect1_innerShadow_767_99808" />
        </filter>
        <filter
            id="filter4_f_767_99808"
            x="62.001"
            y="24"
            width="86"
            height="86"
            filterUnits="userSpaceOnUse"
            color-interpolation-filters="sRGB"
        >
            <feFlood flood-opacity="0" result="BackgroundImageFix" />
            <feBlend mode="normal" in="SourceGraphic" in2="BackgroundImageFix" result="shape" />
            <feGaussianBlur stdDeviation="7.5" result="effect1_foregroundBlur_767_99808" />
        </filter>
        <filter
            id="filter5_f_767_99808"
            x="174.001"
            y="17"
            width="72"
            height="72"
            filterUnits="userSpaceOnUse"
            color-interpolation-filters="sRGB"
        >
            <feFlood flood-opacity="0" result="BackgroundImageFix" />
            <feBlend mode="normal" in="SourceGraphic" in2="BackgroundImageFix" result="shape" />
            <feGaussianBlur stdDeviation="7.5" result="effect1_foregroundBlur_767_99808" />
        </filter>
        <filter
            id="filter6_i_767_99808"
            x="99.998"
            y="106"
            width="120.329"
            height="27.6172"
            filterUnits="userSpaceOnUse"
            color-interpolation-filters="sRGB"
        >
            <feFlood flood-opacity="0" result="BackgroundImageFix" />
            <feBlend mode="normal" in="SourceGraphic" in2="BackgroundImageFix" result="shape" />
            <feColorMatrix
                in="SourceAlpha"
                type="matrix"
                values="0 0 0 0 0 0 0 0 0 0 0 0 0 0 0 0 0 0 127 0"
                result="hardAlpha"
            />
            <feOffset dy="-1" />
            <feComposite in2="hardAlpha" operator="arithmetic" k2="-1" k3="1" />
            <feColorMatrix type="matrix" values="0 0 0 0 1 0 0 0 0 1 0 0 0 0 1 0 0 0 0.3 0" />
            <feBlend mode="normal" in2="shape" result="effect1_innerShadow_767_99808" />
        </filter>
        <filter
            id="filter7_i_767_99808"
            x="99.998"
            y="74"
            width="120.329"
            height="27.6172"
            filterUnits="userSpaceOnUse"
            color-interpolation-filters="sRGB"
        >
            <feFlood flood-opacity="0" result="BackgroundImageFix" />
            <feBlend mode="normal" in="SourceGraphic" in2="BackgroundImageFix" result="shape" />
            <feColorMatrix
                in="SourceAlpha"
                type="matrix"
                values="0 0 0 0 0 0 0 0 0 0 0 0 0 0 0 0 0 0 127 0"
                result="hardAlpha"
            />
            <feOffset dy="-1" />
            <feComposite in2="hardAlpha" operator="arithmetic" k2="-1" k3="1" />
            <feColorMatrix type="matrix" values="0 0 0 0 1 0 0 0 0 1 0 0 0 0 1 0 0 0 0.3 0" />
            <feBlend mode="normal" in2="shape" result="effect1_innerShadow_767_99808" />
        </filter>
        <filter
            id="filter8_f_767_99808"
            x="59.998"
            y="23"
            width="86"
            height="86"
            filterUnits="userSpaceOnUse"
            color-interpolation-filters="sRGB"
        >
            <feFlood flood-opacity="0" result="BackgroundImageFix" />
            <feBlend mode="normal" in="SourceGraphic" in2="BackgroundImageFix" result="shape" />
            <feGaussianBlur stdDeviation="7.5" result="effect1_foregroundBlur_767_99808" />
        </filter>
        <linearGradient
            id="paint0_linear_767_99808"
            x1="110.501"
            y1="138"
            x2="144.16"
            y2="51.8194"
            gradientUnits="userSpaceOnUse"
        >
            <stop stop-color="#BDB9B3" />
            <stop offset="1" stop-color="#F0EDE6" />
        </linearGradient>
        <linearGradient
            id="paint1_linear_767_99808"
            x1="70.3181"
            y1="129"
            x2="78.8715"
            y2="173.499"
            gradientUnits="userSpaceOnUse"
        >
            <stop stop-color="#EBE7E1" />
            <stop offset="0.385417" stop-color="#F5F2EB" />
            <stop offset="1" stop-color="#D6D3CE" />
        </linearGradient>
        <linearGradient
            id="paint2_linear_767_99808"
            x1="70.3181"
            y1="97"
            x2="78.8715"
            y2="141.499"
            gradientUnits="userSpaceOnUse"
        >
            <stop stop-color="#EBE7E1" />
            <stop offset="0.385417" stop-color="#F5F2EB" />
            <stop offset="1" stop-color="#D6D3CE" />
        </linearGradient>
        <linearGradient id="paint3_linear_767_99808" x1="112" y1="156" x2="80" y2="156" gradientUnits="userSpaceOnUse">
            <stop stop-color="#414B59" />
            <stop offset="1" stop-color="#414B59" stop-opacity="0" />
        </linearGradient>
        <linearGradient
            id="paint4_linear_767_99808"
            x1="195.501"
            y1="138"
            x2="229.16"
            y2="51.8194"
            gradientUnits="userSpaceOnUse"
        >
            <stop stop-color="#BDB9B3" />
            <stop offset="1" stop-color="#F0EDE6" />
        </linearGradient>
        <linearGradient
            id="paint5_linear_767_99808"
            x1="155.318"
            y1="129"
            x2="163.872"
            y2="173.499"
            gradientUnits="userSpaceOnUse"
        >
            <stop stop-color="#EBE7E1" />
            <stop offset="0.385417" stop-color="#F5F2EB" />
            <stop offset="1" stop-color="#D6D3CE" />
        </linearGradient>
        <linearGradient
            id="paint6_linear_767_99808"
            x1="155.318"
            y1="97"
            x2="163.872"
            y2="141.499"
            gradientUnits="userSpaceOnUse"
        >
            <stop stop-color="#EBE7E1" />
            <stop offset="0.385417" stop-color="#F5F2EB" />
            <stop offset="1" stop-color="#D6D3CE" />
        </linearGradient>
        <linearGradient id="paint7_linear_767_99808" x1="32" y1="75" x2="0" y2="75" gradientUnits="userSpaceOnUse">
            <stop stop-color="#414B59" />
            <stop offset="1" stop-color="#414B59" stop-opacity="0" />
        </linearGradient>
        <linearGradient
            id="paint8_linear_767_99808"
            x1="112.311"
            y1="138"
            x2="120.865"
            y2="182.499"
            gradientUnits="userSpaceOnUse"
        >
            <stop stop-color="#EBE7E1" />
            <stop offset="0.385417" stop-color="#F5F2EB" />
            <stop offset="1" stop-color="#D6D3CE" />
        </linearGradient>
        <linearGradient
            id="paint9_linear_767_99808"
            x1="152.498"
            y1="115"
            x2="186.157"
            y2="28.8194"
            gradientUnits="userSpaceOnUse"
        >
            <stop stop-color="#BDB9B3" />
            <stop offset="1" stop-color="#F0EDE6" />
        </linearGradient>
        <linearGradient
            id="paint10_linear_767_99808"
            x1="192.498"
            y1="39"
            x2="116.552"
            y2="63.8325"
            gradientUnits="userSpaceOnUse"
        >
            <stop stop-color="#C7C1B6" />
            <stop offset="1" stop-color="white" />
        </linearGradient>
        <linearGradient
            id="paint11_linear_767_99808"
            x1="112.312"
            y1="106"
            x2="120.866"
            y2="150.499"
            gradientUnits="userSpaceOnUse"
        >
            <stop stop-color="#EBE7E1" />
            <stop offset="0.385417" stop-color="#F5F2EB" />
            <stop offset="1" stop-color="#D6D3CE" />
        </linearGradient>
        <linearGradient
            id="paint12_linear_767_99808"
            x1="112.312"
            y1="74"
            x2="120.866"
            y2="118.499"
            gradientUnits="userSpaceOnUse"
        >
            <stop stop-color="#EBE7E1" />
            <stop offset="0.385417" stop-color="#F5F2EB" />
            <stop offset="1" stop-color="#D6D3CE" />
        </linearGradient>
        <linearGradient
            id="paint13_linear_767_99808"
            x1="112.312"
            y1="74"
            x2="120.866"
            y2="118.499"
            gradientUnits="userSpaceOnUse"
        >
            <stop stop-color="#EBE7E1" />
            <stop offset="0.385417" stop-color="#F5F2EB" />
            <stop offset="1" stop-color="#D6D3CE" />
        </linearGradient>
        <linearGradient
            id="paint14_linear_767_99808"
            x1="100.158"
            y1="30"
            x2="100.158"
            y2="85.8429"
            gradientUnits="userSpaceOnUse"
        >
            <stop stop-color="#ECAAFF" />
            <stop offset="1" stop-color="#6A48F6" />
        </linearGradient>
        <linearGradient
            id="paint15_linear_767_99808"
            x1="218.118"
            y1="26"
            x2="218.118"
            y2="67.8821"
            gradientUnits="userSpaceOnUse"
        >
            <stop stop-color="#ECAAFF" />
            <stop offset="1" stop-color="#6A48F6" />
        </linearGradient>
        <linearGradient
            id="paint16_linear_767_99808"
            x1="149.085"
            y1="15"
            x2="149.085"
            y2="44.9158"
            gradientUnits="userSpaceOnUse"
        >
            <stop stop-color="#ECAAFF" />
            <stop offset="1" stop-color="#6A48F6" />
        </linearGradient>
        <clipPath id="clip0_767_99808">
            <rect width="120" height="75" fill="white" transform="translate(58 81)" />
        </clipPath>
        <clipPath id="clip1_767_99808">
            <rect width="120" height="75" fill="white" transform="translate(143 81)" />
        </clipPath>
    </defs>
</svg>
