<svg viewBox="0 0 64 64" fill="none" xmlns="http://www.w3.org/2000/svg">
    <rect x="15" y="30" width="42" height="18" fill="#AFA9A0" />
    <path
        d="M36.3722 25.4531L59.0796 25.4531L56.0945 19.955C55.4759 18.8622 54.7123 18.0009 52.9959 18.0009L36.2963 18.0009L19.5814 18.0009C17.8802 18.0009 17.2291 18.8622 16.4829 19.955L13.4977 25.4531L36.3722 25.4531Z"
        fill="url(#paint0_linear_767_97554)"
    />
    <mask id="mask0_767_97554" style="mask-type: alpha" maskUnits="userSpaceOnUse" x="13" y="18" width="47" height="8">
        <path
            opacity="0.8"
            d="M36.3722 25.4531L59.0796 25.4531L56.0945 19.955C55.4759 18.8622 54.7123 18.0009 52.9959 18.0009L36.2963 18.0009L19.5814 18.0009C17.8802 18.0009 17.2291 18.8622 16.4829 19.955L13.4977 25.4531L36.3722 25.4531Z"
            fill="url(#paint1_linear_767_97554)"
        />
    </mask>
    <g mask="url(#mask0_767_97554)">
        <g filter="url(#filter0_f_767_97554)">
            <path
                d="M3.00049 17.5C3.00049 8.93959 9.94007 2 18.5005 2C27.0609 2 34.0005 8.93959 34.0005 17.5C34.0005 26.0604 27.0609 33 18.5005 33C9.94007 33 3.00049 26.0604 3.00049 17.5Z"
                fill="#414B59"
                fill-opacity="0.6"
            />
        </g>
    </g>
    <g filter="url(#filter1_i_767_97554)">
        <rect x="13" y="44" width="46" height="16" rx="2.68" fill="url(#paint2_linear_767_97554)" />
    </g>
    <rect opacity="0.7" x="17" y="51" width="19" height="3" rx="1.5" fill="white" />
    <rect
        opacity="0.7"
        x="47.0288"
        y="50.9727"
        width="3"
        height="3"
        rx="1.5"
        transform="rotate(1.08964 47.0288 50.9727)"
        fill="white"
    />
    <rect opacity="0.7" x="42" y="51" width="3" height="3" rx="1.5" fill="white" />
    <rect x="52" y="51" width="3" height="3" rx="1.5" fill="#10C282" />
    <g filter="url(#filter2_i_767_97554)">
        <rect x="13" y="24" width="46" height="16" rx="1.6813" fill="url(#paint3_linear_767_97554)" />
    </g>
    <rect opacity="0.7" x="17" y="31" width="19" height="3" rx="1.5" fill="white" />
    <rect opacity="0.7" x="47" y="31" width="3" height="3" rx="1.5" fill="white" />
    <rect x="42" y="31" width="3" height="3" rx="1.5" fill="#10C282" />
    <rect x="52" y="31" width="3" height="3" rx="1.5" fill="#10C282" />
    <mask id="mask1_767_97554" style="mask-type: alpha" maskUnits="userSpaceOnUse" x="13" y="24" width="46" height="16">
        <rect x="13" y="24" width="46" height="16" rx="1.6813" fill="url(#paint4_linear_767_97554)" />
    </mask>
    <g mask="url(#mask1_767_97554)">
        <g filter="url(#filter3_f_767_97554)">
            <path
                d="M2 17.5C2 8.93959 8.93959 2 17.5 2C26.0604 2 33 8.93959 33 17.5C33 26.0604 26.0604 33 17.5 33C8.93959 33 2 26.0604 2 17.5Z"
                fill="#414B59"
                fill-opacity="0.6"
            />
        </g>
    </g>
    <path
        d="M2 16C2 8.26801 8.26801 2 16 2C23.732 2 30 8.26801 30 16C30 23.732 23.732 30 16 30C8.26801 30 2 23.732 2 16Z"
        fill="url(#paint5_linear_767_97554)"
    />
    <path
        d="M15.7777 14.6139C17.4654 14.6139 18.8337 13.2457 18.8337 11.5579C18.8337 9.87016 17.4654 8.50195 15.7777 8.50195C14.0899 8.50195 12.7217 9.87016 12.7217 11.5579C12.7217 13.2457 14.0899 14.6139 15.7777 14.6139Z"
        fill="white"
    />
    <path
        d="M11.5419 23.2474C9.71902 23.2474 8.4859 21.2637 9.39733 19.7089C10.6304 17.4571 13.0431 15.9023 15.831 15.9023C18.6189 15.9023 20.9779 17.4035 22.2646 19.7089C23.1761 21.3173 21.943 23.2474 20.1201 23.2474H11.5419Z"
        fill="white"
    />
    <path
        d="M8 38L6 37.2614L5.07955 36.9205L4.73864 36L4 34L3.26136 36L2.92045 36.9205L2 37.2614L0 38L2 38.7386L2.92045 39.0795L3.26136 40L4 42L4.73864 40L5.07955 39.0795L6 38.7386L8 38Z"
        fill="#E5BFEF"
        fill-opacity="0.8"
    />
    <path
        d="M53 7L50 5.89205L48.6193 5.38068L48.108 4L47 1L45.892 4L45.3807 5.38068L44 5.89205L41 7L44 8.10795L45.3807 8.61932L45.892 10L47 13L48.108 10L48.6193 8.61932L50 8.10795L53 7Z"
        fill="#E5BFEF"
        fill-opacity="0.8"
    />
    <defs>
        <filter
            id="filter0_f_767_97554"
            x="-3.30437"
            y="-4.30486"
            width="43.6097"
            height="43.6097"
            filterUnits="userSpaceOnUse"
            color-interpolation-filters="sRGB"
        >
            <feFlood flood-opacity="0" result="BackgroundImageFix" />
            <feBlend mode="normal" in="SourceGraphic" in2="BackgroundImageFix" result="shape" />
            <feGaussianBlur stdDeviation="3.15243" result="effect1_foregroundBlur_767_97554" />
        </filter>
        <filter
            id="filter1_i_767_97554"
            x="13"
            y="43"
            width="46"
            height="17"
            filterUnits="userSpaceOnUse"
            color-interpolation-filters="sRGB"
        >
            <feFlood flood-opacity="0" result="BackgroundImageFix" />
            <feBlend mode="normal" in="SourceGraphic" in2="BackgroundImageFix" result="shape" />
            <feColorMatrix
                in="SourceAlpha"
                type="matrix"
                values="0 0 0 0 0 0 0 0 0 0 0 0 0 0 0 0 0 0 127 0"
                result="hardAlpha"
            />
            <feOffset dy="-1" />
            <feGaussianBlur stdDeviation="0.5" />
            <feComposite in2="hardAlpha" operator="arithmetic" k2="-1" k3="1" />
            <feColorMatrix type="matrix" values="0 0 0 0 0 0 0 0 0 0 0 0 0 0 0 0 0 0 0.15 0" />
            <feBlend mode="normal" in2="shape" result="effect1_innerShadow_767_97554" />
        </filter>
        <filter
            id="filter2_i_767_97554"
            x="13"
            y="23"
            width="46"
            height="17"
            filterUnits="userSpaceOnUse"
            color-interpolation-filters="sRGB"
        >
            <feFlood flood-opacity="0" result="BackgroundImageFix" />
            <feBlend mode="normal" in="SourceGraphic" in2="BackgroundImageFix" result="shape" />
            <feColorMatrix
                in="SourceAlpha"
                type="matrix"
                values="0 0 0 0 0 0 0 0 0 0 0 0 0 0 0 0 0 0 127 0"
                result="hardAlpha"
            />
            <feOffset dy="-1" />
            <feGaussianBlur stdDeviation="0.5" />
            <feComposite in2="hardAlpha" operator="arithmetic" k2="-1" k3="1" />
            <feColorMatrix type="matrix" values="0 0 0 0 1 0 0 0 0 1 0 0 0 0 1 0 0 0 0.6 0" />
            <feBlend mode="normal" in2="shape" result="effect1_innerShadow_767_97554" />
        </filter>
        <filter
            id="filter3_f_767_97554"
            x="-4.30486"
            y="-4.30486"
            width="43.6097"
            height="43.6097"
            filterUnits="userSpaceOnUse"
            color-interpolation-filters="sRGB"
        >
            <feFlood flood-opacity="0" result="BackgroundImageFix" />
            <feBlend mode="normal" in="SourceGraphic" in2="BackgroundImageFix" result="shape" />
            <feGaussianBlur stdDeviation="3.15243" result="effect1_foregroundBlur_767_97554" />
        </filter>
        <linearGradient
            id="paint0_linear_767_97554"
            x1="24"
            y1="34"
            x2="61.4582"
            y2="7.02482"
            gradientUnits="userSpaceOnUse"
        >
            <stop stop-color="#BDB9B3" />
            <stop offset="1" stop-color="#F0EDE6" />
        </linearGradient>
        <linearGradient
            id="paint1_linear_767_97554"
            x1="48.538"
            y1="10.8039"
            x2="19.7689"
            y2="20.2106"
            gradientUnits="userSpaceOnUse"
        >
            <stop stop-color="#C7C1B6" />
            <stop offset="1" stop-color="white" />
        </linearGradient>
        <linearGradient
            id="paint2_linear_767_97554"
            x1="17.7075"
            y1="44"
            x2="23.7296"
            y2="68.8507"
            gradientUnits="userSpaceOnUse"
        >
            <stop stop-color="#D3CAB8" />
            <stop offset="0.385417" stop-color="#E9E2D5" />
            <stop offset="1" stop-color="#ABA18C" />
        </linearGradient>
        <linearGradient
            id="paint3_linear_767_97554"
            x1="17.7075"
            y1="24"
            x2="24.8861"
            y2="48.6426"
            gradientUnits="userSpaceOnUse"
        >
            <stop stop-color="#EBE7E1" />
            <stop offset="0.385417" stop-color="#F5F2EB" />
            <stop offset="1" stop-color="#CAC2B2" />
        </linearGradient>
        <linearGradient
            id="paint4_linear_767_97554"
            x1="17.7075"
            y1="24"
            x2="24.8861"
            y2="48.6426"
            gradientUnits="userSpaceOnUse"
        >
            <stop stop-color="#EBE7E1" />
            <stop offset="0.385417" stop-color="#F5F2EB" />
            <stop offset="1" stop-color="#D6D3CE" />
        </linearGradient>
        <linearGradient
            id="paint5_linear_767_97554"
            x1="16.0789"
            y1="2"
            x2="16.0789"
            y2="29.9214"
            gradientUnits="userSpaceOnUse"
        >
            <stop stop-color="#ECAAFF" />
            <stop offset="1" stop-color="#6A48F6" />
        </linearGradient>
    </defs>
</svg>
