<svg width="328" height="188" viewBox="0 0 328 188" fill="none" xmlns="http://www.w3.org/2000/svg">
    <g clip-path="url(#clip0_1269_44174)">
        <path
            d="M0 12C0 5.37258 5.37258 0 12 0H316C322.627 0 328 5.37258 328 12V176C328 182.627 322.627 188 316 188H12C5.37259 188 0 182.627 0 176V12Z"
            fill="white"
        />
        <path
            d="M0 12C0 5.37258 5.37258 0 12 0H316C322.627 0 328 5.37258 328 12V176C328 182.627 322.627 188 316 188H12C5.37259 188 0 182.627 0 176V12Z"
            fill="url(#paint0_linear_1269_44174)"
            fill-opacity="0.12"
        />
        <g filter="url(#filter0_ddd_1269_44174)">
            <rect x="113" y="36" width="64" height="64" rx="16" fill="white" />
            <rect
                x="113"
                y="36"
                width="64"
                height="64"
                rx="16"
                fill="url(#paint1_linear_1269_44174)"
                fill-opacity="0.05"
            />
            <path
                d="M134.01 75.6013V83.9119H139.836V75.9609C139.836 75.1874 140.143 74.4455 140.689 73.8985C141.236 73.3515 141.977 73.0442 142.749 73.0442H148.723C151.51 73.0434 154.182 71.9344 156.153 69.9612C158.123 67.988 159.23 65.312 159.23 62.5218C159.23 59.7311 158.123 57.0547 156.153 55.0813C154.182 53.1078 151.509 51.999 148.722 51.9985H134.01V62.3867H139.836V57.4891H148.329C149.648 57.4891 150.912 58.0135 151.845 58.9469C152.777 59.8803 153.302 61.1464 153.302 62.4666C153.302 63.7872 152.778 65.0537 151.845 65.9874C150.913 66.9212 149.648 67.4458 148.329 67.4458H142.155C141.085 67.4453 140.025 67.6559 139.037 68.0655C138.048 68.4752 137.15 69.0759 136.394 69.8334C135.638 70.5908 135.038 71.4901 134.629 72.4798C134.219 73.4695 134.009 74.5302 134.01 75.6013Z"
                fill="url(#paint2_radial_1269_44174)"
            />
            <path
                d="M142.748 73.0442C140.43 73.0444 138.208 73.9662 136.569 75.6068C134.931 77.2474 134.01 79.4725 134.01 81.7926V83.9118H139.836V75.9609C139.836 75.1876 140.143 74.446 140.689 73.899C141.235 73.3521 141.975 73.0446 142.748 73.0442Z"
                fill="url(#paint3_linear_1269_44174)"
            />
            <rect
                x="111.5"
                y="34.5"
                width="67"
                height="67"
                rx="17.5"
                stroke="url(#paint4_linear_1269_44174)"
                stroke-width="3"
            />
            <rect x="113.5" y="36.5" width="63" height="63" rx="15.5" stroke="white" stroke-opacity="0.5" />
        </g>
        <g filter="url(#filter1_ddd_1269_44174)">
            <rect x="151" y="80" width="64" height="64" rx="16" fill="url(#paint5_linear_1269_44174)" />
        </g>
        <path
            d="M154.5 83.5001L160.5 89.5001M160.5 89.5001L183 112M160.5 89.5001L152 89.5001M160.5 89.5001L183 89.5001M160.5 89.5001L160.5 80.607M160.5 89.5001L160.5 112M183 112L205.5 134.5M183 112L160.5 134.5M183 112L205.5 89.5001M183 112L160.5 112M183 112L205.5 112M183 112L183 134.5M183 112L183 89.5001M205.5 134.5L211.5 140.5M205.5 134.5H183M205.5 134.5H214M205.5 134.5L205.5 112M205.5 134.5L205.5 144M154.5 140.5L160.5 134.5M160.5 134.5H152M160.5 134.5L183 134.5M160.5 134.5L160.5 112M160.5 134.5L160.5 143.5M205.5 89.5001L211.5 83.5001M205.5 89.5001L183 89.5001M205.5 89.5001L214 89.5001M205.5 89.5001L205.5 81.0001M205.5 89.5001L205.5 112M151 112H160.5M160.5 112C160.5 124.427 170.574 134.5 183 134.5M160.5 112C160.5 99.5737 170.574 89.5001 183 89.5001M205.5 112H215M205.5 112C205.5 124.427 195.426 134.5 183 134.5M205.5 112C205.5 99.5737 195.426 89.5001 183 89.5001M183 89.5001V80M183 134.5V144M214.5 112C214.5 129.397 200.397 143.5 183 143.5C165.603 143.5 151.5 129.397 151.5 112C151.5 94.603 165.603 80.5 183 80.5C200.397 80.5 214.5 94.603 214.5 112Z"
            stroke="url(#paint6_radial_1269_44174)"
            stroke-opacity="0.25"
        />
        <path
            fill-rule="evenodd"
            clip-rule="evenodd"
            d="M178.147 128.438C177.944 128.325 177.844 128.087 177.908 127.864L181.561 114.962L172 114.962C171.803 114.962 171.624 114.845 171.543 114.665C171.463 114.485 171.496 114.274 171.628 114.127L188.239 95.6655C188.395 95.4927 188.649 95.4499 188.853 95.5622C189.056 95.6746 189.156 95.9125 189.092 96.1362L185.439 109.038L195 109.038C195.197 109.038 195.376 109.155 195.457 109.335C195.537 109.515 195.504 109.726 195.372 109.873L178.761 128.334C178.605 128.507 178.351 128.55 178.147 128.438Z"
            fill="white"
        />
        <path
            fill-rule="evenodd"
            clip-rule="evenodd"
            d="M178.147 128.438C177.944 128.325 177.844 128.087 177.908 127.864L181.561 114.962L172 114.962C171.803 114.962 171.624 114.845 171.543 114.665C171.463 114.485 171.496 114.274 171.628 114.127L188.239 95.6655C188.395 95.4927 188.649 95.4499 188.853 95.5622C189.056 95.6746 189.156 95.9125 189.092 96.1362L185.439 109.038L195 109.038C195.197 109.038 195.376 109.155 195.457 109.335C195.537 109.515 195.504 109.726 195.372 109.873L178.761 128.334C178.605 128.507 178.351 128.55 178.147 128.438Z"
            fill="url(#paint7_linear_1269_44174)"
            fill-opacity="0.05"
        />
        <rect
            x="149.5"
            y="78.5"
            width="67"
            height="67"
            rx="17.5"
            stroke="url(#paint8_linear_1269_44174)"
            stroke-width="3"
        />
    </g>
    <defs>
        <filter
            id="filter0_ddd_1269_44174"
            x="95"
            y="28"
            width="100"
            height="100.493"
            filterUnits="userSpaceOnUse"
            color-interpolation-filters="sRGB"
        >
            <feFlood flood-opacity="0" result="BackgroundImageFix" />
            <feColorMatrix
                in="SourceAlpha"
                type="matrix"
                values="0 0 0 0 0 0 0 0 0 0 0 0 0 0 0 0 0 0 127 0"
                result="hardAlpha"
            />
            <feOffset dy="2.21977" />
            <feGaussianBlur stdDeviation="1" />
            <feColorMatrix type="matrix" values="0 0 0 0 0.290196 0 0 0 0 0.176471 0 0 0 0 0.772549 0 0 0 0.04 0" />
            <feBlend mode="normal" in2="BackgroundImageFix" result="effect1_dropShadow_1269_44174" />
            <feColorMatrix
                in="SourceAlpha"
                type="matrix"
                values="0 0 0 0 0 0 0 0 0 0 0 0 0 0 0 0 0 0 127 0"
                result="hardAlpha"
            />
            <feOffset dy="10.4934" />
            <feGaussianBlur stdDeviation="7.5" />
            <feColorMatrix type="matrix" values="0 0 0 0 0.290196 0 0 0 0 0.176471 0 0 0 0 0.772549 0 0 0 0.05 0" />
            <feBlend mode="normal" in2="effect1_dropShadow_1269_44174" result="effect2_dropShadow_1269_44174" />
            <feColorMatrix
                in="SourceAlpha"
                type="matrix"
                values="0 0 0 0 0 0 0 0 0 0 0 0 0 0 0 0 0 0 127 0"
                result="hardAlpha"
            />
            <feOffset dy="5" />
            <feGaussianBlur stdDeviation="5" />
            <feColorMatrix type="matrix" values="0 0 0 0 0.290196 0 0 0 0 0.176471 0 0 0 0 0.772549 0 0 0 0.05 0" />
            <feBlend mode="normal" in2="effect2_dropShadow_1269_44174" result="effect3_dropShadow_1269_44174" />
            <feBlend mode="normal" in="SourceGraphic" in2="effect3_dropShadow_1269_44174" result="shape" />
        </filter>
        <filter
            id="filter1_ddd_1269_44174"
            x="131"
            y="60"
            width="124"
            height="124"
            filterUnits="userSpaceOnUse"
            color-interpolation-filters="sRGB"
        >
            <feFlood flood-opacity="0" result="BackgroundImageFix" />
            <feColorMatrix
                in="SourceAlpha"
                type="matrix"
                values="0 0 0 0 0 0 0 0 0 0 0 0 0 0 0 0 0 0 127 0"
                result="hardAlpha"
            />
            <feOffset dx="2" dy="2" />
            <feGaussianBlur stdDeviation="2" />
            <feColorMatrix type="matrix" values="0 0 0 0 0.290196 0 0 0 0 0.176471 0 0 0 0 0.772549 0 0 0 0.16 0" />
            <feBlend mode="normal" in2="BackgroundImageFix" result="effect1_dropShadow_1269_44174" />
            <feColorMatrix
                in="SourceAlpha"
                type="matrix"
                values="0 0 0 0 0 0 0 0 0 0 0 0 0 0 0 0 0 0 127 0"
                result="hardAlpha"
            />
            <feOffset dx="10" dy="10" />
            <feGaussianBlur stdDeviation="15" />
            <feColorMatrix type="matrix" values="0 0 0 0 0.290196 0 0 0 0 0.176471 0 0 0 0 0.772549 0 0 0 0.2 0" />
            <feBlend mode="normal" in2="effect1_dropShadow_1269_44174" result="effect2_dropShadow_1269_44174" />
            <feColorMatrix
                in="SourceAlpha"
                type="matrix"
                values="0 0 0 0 0 0 0 0 0 0 0 0 0 0 0 0 0 0 127 0"
                result="hardAlpha"
            />
            <feOffset dx="5" dy="5" />
            <feGaussianBlur stdDeviation="10" />
            <feColorMatrix type="matrix" values="0 0 0 0 0.290196 0 0 0 0 0.176471 0 0 0 0 0.772549 0 0 0 0.2 0" />
            <feBlend mode="normal" in2="effect2_dropShadow_1269_44174" result="effect3_dropShadow_1269_44174" />
            <feBlend mode="normal" in="SourceGraphic" in2="effect3_dropShadow_1269_44174" result="shape" />
        </filter>
        <linearGradient
            id="paint0_linear_1269_44174"
            x1="-12.9074"
            y1="-6.86131"
            x2="327.029"
            y2="206.994"
            gradientUnits="userSpaceOnUse"
        >
            <stop stop-color="#ECAAFF" />
            <stop offset="1" stop-color="#6A48F6" />
        </linearGradient>
        <linearGradient
            id="paint1_linear_1269_44174"
            x1="110.481"
            y1="33.6642"
            x2="192.409"
            y2="63.2062"
            gradientUnits="userSpaceOnUse"
        >
            <stop stop-color="#ECAAFF" />
            <stop offset="1" stop-color="#6A48F6" />
        </linearGradient>
        <radialGradient
            id="paint2_radial_1269_44174"
            cx="0"
            cy="0"
            r="1"
            gradientUnits="userSpaceOnUse"
            gradientTransform="translate(159.322 47.5676) scale(32.082 32.1211)"
        >
            <stop stop-color="#A995FF" />
            <stop offset="1" stop-color="#6652F5" />
        </radialGradient>
        <linearGradient
            id="paint3_linear_1269_44174"
            x1="138.379"
            y1="82.34"
            x2="138.379"
            y2="70.1283"
            gradientUnits="userSpaceOnUse"
        >
            <stop stop-color="#6D4BFD" />
            <stop offset="1" stop-color="#1C0554" />
        </linearGradient>
        <linearGradient
            id="paint4_linear_1269_44174"
            x1="113"
            y1="36"
            x2="177"
            y2="101.5"
            gradientUnits="userSpaceOnUse"
        >
            <stop stop-color="#F4F2FD" />
            <stop offset="1" stop-color="#E9E5FA" />
        </linearGradient>
        <linearGradient
            id="paint5_linear_1269_44174"
            x1="208.351"
            y1="61.7217"
            x2="171.554"
            y2="152.768"
            gradientUnits="userSpaceOnUse"
        >
            <stop stop-color="#EEBEFF" />
            <stop offset="1" stop-color="#5228FF" />
        </linearGradient>
        <radialGradient
            id="paint6_radial_1269_44174"
            cx="0"
            cy="0"
            r="1"
            gradientUnits="userSpaceOnUse"
            gradientTransform="translate(183 112) rotate(135) scale(44.5477 44.5476)"
        >
            <stop stop-color="#E5CCFF" />
            <stop offset="1" stop-color="#D6CCFF" />
        </radialGradient>
        <linearGradient
            id="paint7_linear_1269_44174"
            x1="196.444"
            y1="129.704"
            x2="163.961"
            y2="121.186"
            gradientUnits="userSpaceOnUse"
        >
            <stop stop-color="#ECAAFF" />
            <stop offset="1" stop-color="#6A48F6" />
        </linearGradient>
        <linearGradient
            id="paint8_linear_1269_44174"
            x1="151"
            y1="80"
            x2="215"
            y2="145.5"
            gradientUnits="userSpaceOnUse"
        >
            <stop stop-color="#EFE0FF" />
            <stop offset="1" stop-color="#7F66E4" />
        </linearGradient>
        <clipPath id="clip0_1269_44174">
            <rect width="328" height="188" rx="12" fill="white" />
        </clipPath>
    </defs>
</svg>
