<svg width="36" height="36" viewBox="0 0 36 36" fill="none" xmlns="http://www.w3.org/2000/svg">
    <rect width="36" height="36" rx="18" fill="#6D4AFF" />
    <path
        fill-rule="evenodd"
        clip-rule="evenodd"
        d="M17.525 9.97127C17.2331 10.2652 17.2348 10.74 17.5287 11.0319L24.5449 17.9998L9.74984 17.9998C9.33562 17.9998 8.99984 18.3355 8.99984 18.7498C8.99984 19.164 9.33562 19.4998 9.74984 19.4998L24.5449 19.4998L17.5287 26.4676C17.2348 26.7595 17.2331 27.2343 17.525 27.5282C17.8169 27.8222 18.2918 27.8238 18.5857 27.5319L26.6801 19.4933C26.8458 19.3288 26.945 19.1228 26.9777 18.9087C26.9888 18.8575 26.9946 18.8043 26.9946 18.7498C26.9946 18.6952 26.9888 18.642 26.9777 18.5908C26.945 18.3767 26.8458 18.1708 26.6801 18.0062L18.5857 9.96759C18.2918 9.67572 17.8169 9.67736 17.525 9.97127Z"
        fill="white"
    />
</svg>
