<svg width="48" height="52" viewBox="0 0 48 52" fill="none" xmlns="http://www.w3.org/2000/svg">
    <path
        d="M11.6007 17.084L8.65763 18.3453C8.23768 18.5253 7.76232 18.5253 7.34237 18.3453L4.39929 17.084C3.56818 16.7278 2.72784 17.5682 3.08403 18.3993L4.34535 21.3424C4.52533 21.7623 4.52533 22.2377 4.34535 22.6576L3.08403 25.6007C2.72784 26.4318 3.56818 27.2722 4.39929 26.916L7.34237 25.6546C7.76232 25.4747 8.23768 25.4747 8.65763 25.6546L11.6007 26.916C12.4318 27.2722 13.2722 26.4318 12.916 25.6007L11.6546 22.6576C11.4747 22.2377 11.4747 21.7623 11.6547 21.3424L12.916 18.3993C13.2722 17.5682 12.4318 16.7278 11.6007 17.084Z"
        fill="url(#paint0_linear_990_1869)"
    />
    <path
        d="M21.4407 7.37864L20.7256 9.16638C20.6236 9.42148 20.4215 9.6236 20.1664 9.72564L18.3786 10.4407C17.8738 10.6427 17.8738 11.3573 18.3786 11.5593L20.1664 12.2744C20.4215 12.3764 20.6236 12.5785 20.7256 12.8336L21.4407 14.6214C21.6427 15.1262 22.3573 15.1262 22.5593 14.6214L23.2744 12.8336C23.3764 12.5785 23.5785 12.3764 23.8336 12.2744L25.6214 11.5593C26.1262 11.3573 26.1262 10.6427 25.6214 10.4407L23.8336 9.72564C23.5785 9.6236 23.3764 9.42148 23.2744 9.16638L22.5593 7.37864C22.3573 6.87379 21.6427 6.87379 21.4407 7.37864Z"
        fill="#FFEBC5"
    />
    <path
        d="M35.1611 35.568L34.0885 38.2496C33.9354 38.6322 33.6322 38.9354 33.2496 39.0885L30.568 40.1611C29.8107 40.464 29.8107 41.536 30.568 41.8389L33.2496 42.9115C33.6322 43.0646 33.9354 43.3678 34.0885 43.7504L35.1611 46.432C35.464 47.1893 36.536 47.1893 36.8389 46.432L37.9115 43.7504C38.0646 43.3678 38.3678 43.0646 38.7504 42.9115L41.432 41.8389C42.1893 41.536 42.1893 40.464 41.432 40.1611L38.7504 39.0885C38.3678 38.9354 38.0646 38.6322 37.9115 38.2496L36.8389 35.568C36.536 34.8107 35.464 34.8107 35.1611 35.568Z"
        fill="url(#paint1_linear_990_1869)"
    />
    <path
        d="M36.577 12.4142C37.358 11.6332 38.6244 11.6332 39.4054 12.4142L40.8196 13.8284C41.6007 14.6095 41.6007 15.8758 40.8196 16.6569L11.4747 46.0018C10.8889 46.5876 9.93917 46.5876 9.35339 46.0018L7.23207 43.8805C6.64628 43.2947 6.64628 42.3449 7.23207 41.7591L36.577 12.4142Z"
        fill="url(#paint2_linear_990_1869)"
    />
    <path
        d="M36.9306 12.0607C37.5163 11.4749 38.4661 11.4749 39.0519 12.0607L41.1732 14.182C41.759 14.7678 41.759 15.7175 41.1732 16.3033L35.1628 22.3137L30.9201 18.0711L36.9306 12.0607Z"
        fill="url(#paint3_linear_990_1869)"
    />
    <defs>
        <linearGradient id="paint0_linear_990_1869" x1="8" y1="17" x2="8" y2="27" gradientUnits="userSpaceOnUse">
            <stop stop-color="#FFE76C" />
            <stop offset="1" stop-color="#FFB94F" />
        </linearGradient>
        <linearGradient id="paint1_linear_990_1869" x1="36" y1="35" x2="36" y2="47" gradientUnits="userSpaceOnUse">
            <stop stop-color="#FFE76C" />
            <stop offset="1" stop-color="#FFB94F" />
        </linearGradient>
        <linearGradient id="paint2_linear_990_1869" x1="28" y1="33.5" x2="21.5" y2="27" gradientUnits="userSpaceOnUse">
            <stop offset="0.56205" stop-color="#19192D" />
            <stop offset="1" stop-color="white" />
        </linearGradient>
        <linearGradient
            id="paint3_linear_990_1869"
            x1="38.5"
            y1="18.7291"
            x2="36.2709"
            y2="16.5"
            gradientUnits="userSpaceOnUse"
        >
            <stop stop-color="#ADADAD" />
            <stop offset="1" stop-color="#F8F8FC" />
        </linearGradient>
    </defs>
</svg>
