<svg width="384" height="216" viewBox="0 0 384 216" fill="none" xmlns="http://www.w3.org/2000/svg">
<path d="M205.025 115.911H188.248V191.776H205.025V115.911Z" fill="#EA795A"/>
<path d="M205.025 161.276L188.248 152.21V120.817H205.025V161.276Z" fill="url(#paint0_linear)"/>
<path d="M261.616 132.712H140.725C138.86 132.712 137.318 131.206 137.318 129.306V96.0682C137.318 80.9015 149.617 68.639 164.748 68.639H234.115C249.282 68.639 261.545 80.9374 261.545 96.0682V132.712H261.616Z" fill="url(#paint1_linear)"/>
<path d="M188.484 132.313H140.761V95.5972C140.761 82.4384 151.446 71.7535 164.604 71.7535C177.763 71.7535 188.448 82.4384 188.448 95.5972V132.313H188.484Z" fill="url(#paint2_linear)"/>
<path d="M165.744 133.169H114.313C112.499 133.169 111.043 131.675 111.043 129.865V97.8403C111.043 96.0297 112.521 94.536 114.313 94.536H165.722C167.536 94.536 168.992 96.0297 168.992 97.8403V129.865C169.014 131.698 167.536 133.169 165.744 133.169Z" fill="url(#paint3_linear)"/>
<path d="M137.906 116.78C139.121 117.782 140.898 117.782 142.113 116.78L168.075 95.4043C167.49 94.8699 166.703 94.5359 165.848 94.5359H114.193C113.338 94.5359 112.551 94.8699 111.966 95.4043L137.906 116.78Z" fill="url(#paint4_linear)"/>
<path fill-rule="evenodd" clip-rule="evenodd" d="M214.914 59.0391H235.425C236.573 59.0391 237.505 58.1069 237.505 56.9595V42.0796C237.505 40.9322 236.573 40 235.425 40H209.538C208.391 40 207.458 40.9322 207.458 42.0796V50.7917H207.456V101.913C207.456 103.956 209.141 105.642 211.185 105.642C213.265 105.642 214.914 103.956 214.914 101.913V59.0391Z" fill="url(#paint5_linear)"/>
<path d="M188.7 132.713H184.075V134.792H140.977L129.109 143.326C129.109 143.326 126.061 145.549 125.165 148.668L124.914 148.381V150.389C124.914 151.931 125.559 153.652 127.316 155.337C132.91 160.07 153.311 161.504 168.406 150.138C183.466 138.772 188.7 134.756 188.7 134.756V132.713Z" fill="url(#paint6_linear)"/>
<path d="M140.978 132.713L129.11 141.246C129.11 141.246 121.007 147.198 127.317 153.294C132.911 158.026 153.312 159.461 168.407 148.095C183.502 136.728 188.701 132.713 188.701 132.713H140.978Z" fill="#B8E2FF"/>
<path d="M211.188 103.777C212.158 103.777 212.944 102.99 212.944 102.02C212.944 101.05 212.158 100.263 211.188 100.263C210.217 100.263 209.431 101.05 209.431 102.02C209.431 102.99 210.217 103.777 211.188 103.777Z" fill="white"/>
<path d="M249.705 178.356C250.075 177.648 251.095 177.672 251.431 178.396L257.74 192H242.587L249.705 178.356Z" fill="#38385F"/>
<path d="M131.329 178.356C131.699 177.648 132.719 177.672 133.055 178.396L139.364 192H124.211L131.329 178.356Z" fill="#5AD098"/>
<path d="M262.25 178.92C262.806 178.182 263.98 178.576 263.98 179.499L263.981 192H252.393L262.25 178.92Z" fill="#5AD098"/>
<path opacity="0.45" d="M73.3849 154.77C75.8067 154.77 77.7699 152.807 77.7699 150.385C77.7699 147.963 75.8067 146 73.3849 146C70.9632 146 69 147.963 69 150.385C69 152.807 70.9632 154.77 73.3849 154.77Z" fill="#CED2E2"/>
<path opacity="0.45" d="M315 80L309.5 71L304 80L315 80Z" fill="#CED2E2"/>
<path d="M77 62C77 47.6406 88.6406 36 103 36C117.359 36 129 47.6406 129 62V88H103C88.6406 88 77 76.3594 77 62Z" fill="url(#paint7_linear)"/>
<path fill-rule="evenodd" clip-rule="evenodd" d="M112.26 51.2614C109.363 49.3959 105.551 49.8383 103.159 52.3177L92.156 63.3203C91.1206 64.3257 90.5798 65.7357 90.6772 67.1756C90.79 68.6178 91.522 69.9405 92.6841 70.8021C93.5108 71.4095 94.5102 71.7364 95.536 71.7351C96.9779 71.7182 98.3557 71.1367 99.3737 70.1155L108.88 60.6093C109.933 59.4574 109.895 57.6815 108.794 56.5756C107.693 55.4698 105.917 55.4243 104.761 56.4723L98.4231 62.8098L99.673 64.0597L105.993 57.7222C106.454 57.3333 107.137 57.3624 107.563 57.7891C107.99 58.2157 108.019 58.898 107.63 59.3594L98.1414 68.8656C96.9832 70.0589 95.148 70.2791 93.7404 69.3937C93.0029 68.8343 92.5416 67.9847 92.4742 67.0615C92.4069 66.1383 92.7398 65.2308 93.3883 64.5702L104.391 53.5676C106.189 51.6927 109.057 51.3397 111.257 52.7226C112.561 53.6004 113.406 55.0136 113.563 56.5779C113.695 58.1235 113.142 59.6492 112.049 60.7501L102.754 70.0099L103.986 71.2598L113.263 62C114.725 60.5196 115.458 58.4685 115.264 56.3969C115.071 54.3253 113.971 52.4453 112.26 51.2614Z" fill="white"/>
<path d="M273 135C273 120.641 284.641 109 299 109C313.359 109 325 120.641 325 135C325 149.359 313.359 161 299 161C284.641 161 273 149.359 273 135Z" fill="url(#paint8_linear)"/>
<path fill-rule="evenodd" clip-rule="evenodd" d="M305.335 127.247V129.909H307.929C308.816 129.909 309.566 130.625 309.566 131.546V145.433C309.566 146.321 308.85 147.071 307.929 147.071H290.425C289.538 147.071 288.787 146.355 288.787 145.433V131.546C288.787 130.659 289.504 129.909 290.425 129.909H292.984V127.247C292.984 123.835 295.747 121.071 299.159 121.071C302.571 121.071 305.335 123.835 305.335 127.247ZM302.735 127.247V129.909H295.652V127.247C295.652 124.79 297.528 123.706 299.193 123.706C300.859 123.706 302.735 124.79 302.735 127.247ZM299.508 134.549C300.702 134.549 301.657 135.504 301.657 136.698C301.657 137.517 301.214 138.234 300.531 138.575L301.418 142.396H297.597L298.484 138.575C297.802 138.2 297.358 137.517 297.358 136.698C297.358 135.504 298.313 134.549 299.508 134.549Z" fill="white"/>
<defs>
<linearGradient id="paint0_linear" x1="196.558" y1="131.041" x2="196.558" y2="149.545" gradientUnits="userSpaceOnUse">
<stop stop-color="#0D0A44"/>
<stop offset="1" stop-color="#0D0A44" stop-opacity="0"/>
</linearGradient>
<linearGradient id="paint1_linear" x1="197.788" y1="68.639" x2="197.788" y2="132.712" gradientUnits="userSpaceOnUse">
<stop stop-color="#B9E2FF"/>
<stop offset="1" stop-color="#73B5E4"/>
</linearGradient>
<linearGradient id="paint2_linear" x1="180.753" y1="90.4746" x2="141.167" y2="132.117" gradientUnits="userSpaceOnUse">
<stop stop-color="#0D0A44"/>
<stop offset="1" stop-color="#0D0A44" stop-opacity="0"/>
</linearGradient>
<linearGradient id="paint3_linear" x1="140.018" y1="94.536" x2="140.018" y2="124.89" gradientUnits="userSpaceOnUse">
<stop stop-color="#C1DEF8"/>
<stop offset="1" stop-color="#ECFAFF"/>
</linearGradient>
<linearGradient id="paint4_linear" x1="140.021" y1="84.8777" x2="140.021" y2="111.553" gradientUnits="userSpaceOnUse">
<stop stop-color="#DEEBF7"/>
<stop offset="1" stop-color="white"/>
</linearGradient>
<linearGradient id="paint5_linear" x1="222.481" y1="42.0351" x2="222.481" y2="105.642" gradientUnits="userSpaceOnUse">
<stop stop-color="#EB7A75"/>
<stop offset="1" stop-color="#E02626"/>
</linearGradient>
<linearGradient id="paint6_linear" x1="139.327" y1="134.06" x2="170.688" y2="156.68" gradientUnits="userSpaceOnUse">
<stop stop-color="#B9E2FF"/>
<stop offset="1" stop-color="#1571B3"/>
</linearGradient>
<linearGradient id="paint7_linear" x1="84.0027" y1="37.9081" x2="123.257" y2="86.6992" gradientUnits="userSpaceOnUse">
<stop offset="0.0117204" stop-color="#66A3FF"/>
<stop offset="1" stop-color="#CC63FE"/>
</linearGradient>
<linearGradient id="paint8_linear" x1="299" y1="115.036" x2="299" y2="166.571" gradientUnits="userSpaceOnUse">
<stop stop-color="#FFD66C"/>
<stop offset="1" stop-color="#FF658A"/>
</linearGradient>
</defs>
</svg>
