<svg xmlns="http://www.w3.org/2000/svg" width="36" height="20" fill="none"><rect width="35" height="19" x=".5" y=".5" fill="#F1F3FD" rx="5.5"/><path fill="#6D4AFF" fill-rule="evenodd" d="M8.61 4.711a1 1 0 0 0-1.612.791v7.995a2 2 0 0 0 2 2h10.004a2 2 0 0 0 2-2V5.502a1 1 0 0 0-1.611-.791l-5.085 3.932a.5.5 0 0 1-.612 0L8.61 4.711Zm-.612.791 5.084 3.932c.18.139.383.232.595.278l-.518.463a.9.9 0 0 1-1.165.03L7.998 6.988V5.502Zm11.004 8.995h-.817v-7.59l1.817-1.405v7.995a1 1 0 0 1-1 1Z" clip-rule="evenodd"/><path fill="#6D4AFF" d="M23 10.5a.5.5 0 0 1 .5-.5h6a.5.5 0 0 1 0 1h-6a.5.5 0 0 1-.5-.5Z"/><path fill="#6D4AFF" d="M26.5 7a.5.5 0 0 1 .5.5v6a.5.5 0 0 1-1 0v-6a.5.5 0 0 1 .5-.5Z"/><rect width="35" height="19" x=".5" y=".5" stroke="url(#a)" rx="5.5"/><defs><radialGradient id="a" cx="0" cy="0" r="1" gradientTransform="matrix(28.21622 4.5 -4.8935 30.68354 7.784 7.5)" gradientUnits="userSpaceOnUse"><stop stop-color="#6E4BFF"/><stop offset=".355" stop-color="#FD4BAF"/><stop offset="1" stop-color="#22D8FF"/></radialGradient></defs></svg>
