<svg xmlns="http://www.w3.org/2000/svg" width="60" height="60" fill="none" viewBox="0 0 60 60">
    <rect width="60" height="60" fill="#8A6EFF" fill-opacity=".2" rx="4" />
    <path
        fill="#6D4AFF"
        fill-rule="evenodd"
        d="M26 22.002c-1.165.008-1.831.055-2.362.325a3 3 0 0 0-1.311 1.311C22 24.28 22 25.12 22 26.8v8.4c0 1.68 0 2.52.327 3.162a3 3 0 0 0 1.311 1.311C24.28 40 25.12 40 26.8 40h10.4c1.68 0 2.52 0 3.162-.327a3 3 0 0 0 1.311-1.311C42 37.72 42 36.88 42 35.2v-8.4c0-1.68 0-2.52-.327-3.162a3 3 0 0 0-1.311-1.311c-.53-.27-1.197-.317-2.362-.325A6.001 6.001 0 0 0 32 16c-3.314 0-6 2.688-6 6.002ZM27.714 22h8.572a4.286 4.286 0 0 0-8.572 0Zm5.227 8.765a2 2 0 1 0-1.882 0l-.873 3.49a.6.6 0 0 0 .582.745h2.463a.6.6 0 0 0 .583-.745l-.873-3.49Z"
        clip-rule="evenodd"
    />
    <path
        fill="#6D4AFF"
        d="M20 27a5 5 0 0 0-1.455 1.73C18 29.8 18 31.2 18 34v2c0 2.8 0 4.2.545 5.27a5 5 0 0 0 2.185 2.185C21.8 44 23.2 44 26 44h4c2.8 0 4.2 0 5.27-.545A5 5 0 0 0 37 42H26.4c-2.24 0-3.36 0-4.216-.436a4 4 0 0 1-1.748-1.748C20 38.96 20 37.84 20 35.6V27Z"
    />
</svg>
