<svg xmlns="http://www.w3.org/2000/svg" width="210" height="160" fill="none" viewBox="0 0 210 160">
    <path
        fill="url(#paint0_linear_7725_32663)"
        d="M205.244 60.667h-59.463c-2.098 0-3.781-1.727-3.781-3.82V19.82c0-2.093 1.709-3.82 3.781-3.82h59.438c2.097 0 3.781 1.727 3.781 3.82v37.026a3.768 3.768 0 01-3.756 3.82z"
    />
    <path
        fill="url(#paint1_linear_7725_32663)"
        d="M173.056 41.718a3.838 3.838 0 004.864 0l30.017-24.714A3.822 3.822 0 00205.362 16H145.64c-.989 0-1.899.386-2.576 1.004l29.992 24.714z"
    />
    <path
        fill="url(#paint2_linear_7725_32663)"
        d="M148.723 139H133V40h15.723a6.777 6.777 0 016.777 6.777v85.446c-.024 3.743-3.058 6.777-6.777 6.777z"
    />
    <path
        fill="#fff"
        d="M153.25 132.25c0 2.485-2.287 4.5-5.108 4.5H130.75v-94.5h17.392c2.821 0 5.108 2.015 5.108 4.5v85.5z"
    />
    <path
        fill="url(#paint3_linear_7725_32663)"
        d="M140.973 139H66V40h74.973a6.777 6.777 0 016.777 6.777v85.446a6.777 6.777 0 01-6.777 6.777z"
    />
    <path
        fill="#fff"
        d="M110.472 87.116a5.933 5.933 0 10-.001-11.867 5.933 5.933 0 00.001 11.867zM102.234 103.75c-3.522 0-5.88-3.788-4.158-6.887 2.41-4.343 7.072-7.31 12.396-7.31 5.324 0 9.985 2.94 12.396 7.31 1.721 3.073-.636 6.887-4.159 6.887h-16.475z"
    />
    <path fill="url(#paint4_linear_7725_32663)" d="M73.5 40H66v99h7.5V40z" />
    <g>
        <path
            stroke="#C2BFBC"
            stroke-miterlimit="10"
            stroke-width="1.449"
            d="M47.457 138.476c6.758 0 12.237-5.479 12.237-12.238 0-6.759-5.479-12.238-12.237-12.238-6.76 0-12.238 5.479-12.238 12.238 0 6.759 5.479 12.238 12.238 12.238z"
        />
        <path
            stroke="#C2BFBC"
            stroke-miterlimit="10"
            stroke-width="1.449"
            d="M28.442 127.182a3.396 3.396 0 013.405-3.405 3.396 3.396 0 013.405 3.405"
        />
        <path
            stroke="#C2BFBC"
            stroke-linecap="round"
            stroke-miterlimit="10"
            stroke-width="1.449"
            d="M59.66 126.238h15.947a5.194 5.194 0 015.191 5.192v7.046"
        />
        <path
            stroke="#EAE8E5"
            stroke-linecap="round"
            stroke-miterlimit="10"
            stroke-width="1.449"
            d="M4 126.238h15.946a5.194 5.194 0 015.192 5.192v7.046"
        />
        <path
            stroke="#C2BFBC"
            stroke-miterlimit="10"
            stroke-width="1.449"
            d="M16.239 138.476c6.759 0 12.238-5.479 12.238-12.238 0-6.759-5.48-12.238-12.238-12.238C9.48 114 4 119.479 4 126.238c0 6.759 5.48 12.238 12.238 12.238z"
        />
    </g>
    <g>
        <path
            fill="url(#paint5_linear_7725_32663)"
            d="M12 32C5.373 32 0 37.373 0 44v14.81c0 6.628 5.373 12 12 12h11.251L40.41 84.5V70.81h5.258c6.627 0 12-5.372 12-12V44c0-6.627-5.373-12-12-12H12z"
        />
        <circle cx="19.334" cy="52.834" r="2.5" fill="#fff" />
        <circle cx="29.333" cy="52.834" r="2.5" fill="#fff" />
        <circle cx="39.333" cy="52.834" r="2.5" fill="#fff" />
    </g>
    <defs>
        <linearGradient
            id="paint0_linear_7725_32663"
            x1="175.5"
            x2="175.5"
            y1="16"
            y2="56.726"
            gradientUnits="userSpaceOnUse"
        >
            <stop stop-color="#EAE8E5" />
            <stop offset="1" stop-color="#F5F4F2" />
        </linearGradient>
        <linearGradient
            id="paint1_linear_7725_32663"
            x1="175.501"
            x2="175.501"
            y1="9.869"
            y2="33.079"
            gradientUnits="userSpaceOnUse"
        >
            <stop stop-color="#F5F4F2" />
            <stop offset="1" stop-color="#fff" />
        </linearGradient>
        <linearGradient
            id="paint2_linear_7725_32663"
            x1="144.25"
            x2="144.25"
            y1="40"
            y2="145"
            gradientUnits="userSpaceOnUse"
        >
            <stop stop-color="#FF9A61" />
            <stop offset="1" stop-color="#E36425" />
        </linearGradient>
        <linearGradient
            id="paint3_linear_7725_32663"
            x1="107.104"
            x2="107.104"
            y1="40"
            y2="145"
            gradientUnits="userSpaceOnUse"
        >
            <stop stop-color="#FFB341" />
            <stop offset="1" stop-color="#EE7C3E" />
        </linearGradient>
        <linearGradient
            id="paint4_linear_7725_32663"
            x1="69.75"
            x2="69.75"
            y1="40"
            y2="145"
            gradientUnits="userSpaceOnUse"
        >
            <stop stop-color="#614B37" />
            <stop offset="1" stop-color="#651B30" />
        </linearGradient>
        <linearGradient
            id="paint5_linear_7725_32663"
            x1="31.606"
            x2="45.038"
            y1="14.332"
            y2="81.997"
            gradientUnits="userSpaceOnUse"
        >
            <stop stop-color="#ECAAFF" />
            <stop offset="1" stop-color="#6A48F6" />
        </linearGradient>
    </defs>
</svg>
