<svg width="384" height="216" viewBox="0 0 384 216" fill="none" xmlns="http://www.w3.org/2000/svg">
<g filter="url(#filter0_i)">
<path d="M191.867 150.015H131.012V172.359C131.012 176.719 134.716 180.3 139.316 180.3H192.07H244.865C249.424 180.3 253.169 176.758 253.169 172.359V150.015H191.867Z" fill="url(#paint0_linear)"/>
</g>
<g filter="url(#filter1_i)">
<path d="M253.087 149.353L242.381 53.5934C242.096 50.9853 239.776 49 237.049 49H192.069H147.089C144.362 49 142.042 50.9853 141.757 53.5934L131.051 149.353C130.482 154.53 134.715 159.046 140.17 159.046H192.069H243.969C249.423 159.085 253.697 154.569 253.087 149.353Z" fill="url(#paint1_linear)"/>
</g>
<path d="M246.249 123.311L238.963 54.878C238.841 53.7491 237.864 52.9316 236.683 52.9316H192.07H147.457C146.276 52.9316 145.299 53.788 145.177 54.878L137.932 123.311C137.647 125.958 139.804 128.216 142.572 128.216H192.07H241.609C244.377 128.216 246.534 125.919 246.249 123.311Z" fill="url(#paint2_linear)"/>
<path d="M211.074 81.7224C209.015 75.0459 202.152 70.0386 193.917 70.0386C187.225 70.0386 181.392 73.3768 178.304 78.2324C177.618 78.0807 176.76 77.9289 175.902 77.9289C170.755 77.9289 166.466 81.7224 166.466 86.2745C166.466 86.7297 166.466 87.3367 166.637 87.7919C160.632 88.854 156 93.7096 156 99.3239C156 105.849 162.005 111.159 169.382 111.159H176.588H195.632H209.358C218.623 111.159 226 104.483 226 96.4409C226 88.854 219.48 82.4811 211.074 81.7224Z" fill="white"/>
<path d="M192.578 89.6285C192.269 89.3618 191.812 89.3612 191.502 89.6269L179.687 99.7746C179.107 100.273 179.459 101.223 180.224 101.223H185.339V112.159H198.742V101.223H203.786C204.549 101.223 204.902 100.275 204.325 99.7761L192.578 89.6285Z" fill="#94ADD0"/>
<path d="M237.66 171.892C239.211 171.892 240.469 170.689 240.469 169.206C240.469 167.723 239.211 166.52 237.66 166.52C236.109 166.52 234.852 167.723 234.852 169.206C234.852 170.689 236.109 171.892 237.66 171.892Z" fill="white"/>
<path d="M219 49C219 35.7452 229.745 25 243 25C256.255 25 267 35.7452 267 49C267 62.2548 256.255 73 243 73C229.745 73 219 62.2548 219 49Z" fill="url(#paint3_linear)"/>
<path fill-rule="evenodd" clip-rule="evenodd" d="M248.249 42.5772L252.012 38.7622L253.254 39.9697L234.004 59.2197L232.779 57.9947L236.279 54.4947C234.468 53.1237 232.935 51.4189 231.764 49.4722L231.449 48.9997L231.764 48.4747C234.512 44.2922 237.469 41.4747 242.999 41.4747C244.812 41.4211 246.611 41.799 248.249 42.5772ZM241.123 47.1065C240.329 47.9011 240.133 49.1153 240.637 50.1197L244.137 46.6197C243.132 46.1157 241.918 46.3119 241.123 47.1065ZM245.397 45.3772C244.692 44.8896 243.856 44.6272 242.999 44.6247C240.583 44.6247 238.624 46.5835 238.624 48.9997C238.627 49.8566 238.889 50.6926 239.377 51.3972L237.522 53.2347C235.93 52.1001 234.58 50.6606 233.549 48.9997C235.999 45.4997 238.449 43.2247 242.999 43.2247C244.314 43.2041 245.621 43.4357 246.849 43.9072L245.397 45.3772Z" fill="white"/>
<path d="M254.234 48.5272C253.274 46.9464 252.096 45.5089 250.734 44.2572L249.474 45.4997C250.628 46.5185 251.63 47.6971 252.449 48.9997C249.999 52.4997 247.549 54.7747 242.999 54.7747C242.146 54.7823 241.295 54.6943 240.462 54.5122L239.044 55.9997C240.326 56.3863 241.661 56.5636 242.999 56.5247C248.529 56.5247 251.487 53.7072 254.234 49.5247L254.549 48.9997L254.234 48.5272Z" fill="white"/>
<path d="M243.384 51.5897L241.774 53.1997C242.171 53.3203 242.584 53.3793 242.999 53.3747C244.16 53.3747 245.272 52.9138 246.093 52.0933C246.913 51.2728 247.374 50.16 247.374 48.9997C247.379 48.5848 247.32 48.1717 247.199 47.7747L245.589 49.3847C245.429 50.5294 244.529 51.4291 243.384 51.5897Z" fill="white"/>
<defs>
<filter id="filter0_i" x="125.012" y="150.015" width="128.158" height="34.285" filterUnits="userSpaceOnUse" color-interpolation-filters="sRGB">
<feFlood flood-opacity="0" result="BackgroundImageFix"/>
<feBlend mode="normal" in="SourceGraphic" in2="BackgroundImageFix" result="shape"/>
<feColorMatrix in="SourceAlpha" type="matrix" values="0 0 0 0 0 0 0 0 0 0 0 0 0 0 0 0 0 0 127 0" result="hardAlpha"/>
<feOffset dx="-6" dy="4"/>
<feGaussianBlur stdDeviation="3.5"/>
<feComposite in2="hardAlpha" operator="arithmetic" k2="-1" k3="1"/>
<feColorMatrix type="matrix" values="0 0 0 0 0.21217 0 0 0 0 0.291124 0 0 0 0 0.420833 0 0 0 0.31 0"/>
<feBlend mode="normal" in2="shape" result="effect1_innerShadow"/>
</filter>
<filter id="filter1_i" x="131" y="48" width="122.145" height="111.046" filterUnits="userSpaceOnUse" color-interpolation-filters="sRGB">
<feFlood flood-opacity="0" result="BackgroundImageFix"/>
<feBlend mode="normal" in="SourceGraphic" in2="BackgroundImageFix" result="shape"/>
<feColorMatrix in="SourceAlpha" type="matrix" values="0 0 0 0 0 0 0 0 0 0 0 0 0 0 0 0 0 0 127 0" result="hardAlpha"/>
<feOffset dy="-1"/>
<feGaussianBlur stdDeviation="1"/>
<feComposite in2="hardAlpha" operator="arithmetic" k2="-1" k3="1"/>
<feColorMatrix type="matrix" values="0 0 0 0 1 0 0 0 0 1 0 0 0 0 1 0 0 0 1 0"/>
<feBlend mode="normal" in2="shape" result="effect1_innerShadow"/>
</filter>
<linearGradient id="paint0_linear" x1="131" y1="165" x2="234.868" y2="168.703" gradientUnits="userSpaceOnUse">
<stop stop-color="#BACAE3"/>
<stop offset="1" stop-color="#ADC1DE"/>
</linearGradient>
<linearGradient id="paint1_linear" x1="143.5" y1="49" x2="231.907" y2="166.165" gradientUnits="userSpaceOnUse">
<stop stop-color="#C2D9F4"/>
<stop offset="0.385417" stop-color="#E7F4FF"/>
<stop offset="1" stop-color="#AFC1DB"/>
</linearGradient>
<linearGradient id="paint2_linear" x1="155.5" y1="53" x2="192.09" y2="128.216" gradientUnits="userSpaceOnUse">
<stop stop-color="#BFD2EC"/>
<stop offset="1" stop-color="#8DA7CB"/>
</linearGradient>
<linearGradient id="paint3_linear" x1="225.464" y1="26.7614" x2="261.699" y2="71.7993" gradientUnits="userSpaceOnUse">
<stop offset="0.0117204" stop-color="#66A3FF"/>
<stop offset="1" stop-color="#CC63FE"/>
</linearGradient>
</defs>
</svg>
