<svg width="384" height="216" viewBox="0 0 384 216" fill="none" xmlns="http://www.w3.org/2000/svg">
<path d="M212.339 89.0493H207.136V81.8388C207.136 80.9468 206.392 80.2035 205.5 80.2035H172.124C171.232 80.2035 170.489 80.9468 170.489 81.8388V88.5662H165.285V81.8388C165.285 78.0477 168.37 75 172.124 75H205.463C209.254 75 212.302 78.0849 212.302 81.8388V89.0493H212.339Z" fill="#50506A"/>
<path d="M253.41 191H153.392C147.371 191 142.502 186.131 142.502 180.11V115.661H265.527V178.883C265.527 185.574 260.1 191 253.41 191Z" fill="#8B1C1C"/>
<path d="M231.517 191H132.726C126.036 191 120.609 185.574 120.609 178.883V105.998C120.609 97.7094 127.337 90.9821 135.625 90.9821H243.597V178.921C243.634 185.574 238.208 191 231.517 191Z" fill="url(#paint0_linear)"/>
<path d="M256.011 90.9449H243.634H135.662C127.374 90.9449 120.646 97.6723 120.646 105.961V120.382V130.789V139.56C120.646 143.463 123.806 146.622 127.708 146.622H236.572C240.475 146.622 243.634 143.463 243.634 139.56V130.789V121.311H256.011V90.9449Z" fill="url(#paint1_linear)"/>
<path d="M172.718 90.9449H163.055V88.8635C163.055 87.8972 163.835 87.1538 164.764 87.1538H171.009C171.975 87.1538 172.718 87.9343 172.718 88.8635V90.9449Z" fill="white"/>
<path d="M214.569 90.9449H204.905V88.8635C204.905 87.8972 205.686 87.1538 206.615 87.1538H212.822C213.788 87.1538 214.532 87.9343 214.532 88.8635V90.9449H214.569Z" fill="white"/>
<path d="M265.526 151.119H243.672V101.872C243.672 95.8139 248.578 90.9449 254.599 90.9449C260.62 90.9449 265.526 95.8511 265.526 101.872V151.119Z" fill="url(#paint2_linear)"/>
<path d="M154.894 146.696H145.603V127.444C145.603 124.879 147.684 122.798 150.248 122.798C152.813 122.798 154.894 124.879 154.894 127.444V146.696Z" fill="#EC7454"/>
<path d="M154.894 146.696H145.603V165.169H154.894V146.696Z" fill="#8B1C1C"/>
<path d="M150.248 173.011C147.684 173.011 145.603 170.929 145.603 168.365V165.206H154.894V168.365C154.894 170.929 152.813 173.011 150.248 173.011Z" fill="white"/>
<path d="M219.409 146.696H210.117V127.444C210.117 124.879 212.199 122.798 214.763 122.798C217.328 122.798 219.409 124.879 219.409 127.444V146.696Z" fill="#EC7454"/>
<path d="M219.409 146.696H210.117V165.169H219.409V146.696Z" fill="#8B1C1C"/>
<path d="M214.763 173.011C212.199 173.011 210.117 170.929 210.117 168.365V165.206H219.409V168.365C219.409 170.929 217.328 173.011 214.763 173.011Z" fill="white"/>
<path d="M104.725 191C111.786 191 117.51 185.276 117.51 178.215C117.51 171.153 111.786 165.429 104.725 165.429C97.6637 165.429 91.9395 171.153 91.9395 178.215C91.9395 185.276 97.6637 191 104.725 191Z" stroke="#FDC760" stroke-width="1.64904" stroke-miterlimit="10"/>
<path d="M84.8604 179.201C84.8604 177.228 86.4453 175.643 88.4177 175.643C90.3901 175.643 91.9751 177.228 91.9751 179.201" stroke="#FDC760" stroke-width="1.64904" stroke-miterlimit="10"/>
<path d="M117.476 178.215H134.135C137.129 178.215 139.56 180.645 139.56 183.639V191" stroke="#FDC760" stroke-width="1.64904" stroke-miterlimit="10" stroke-linecap="round"/>
<path d="M59.3242 178.215H75.984C78.9779 178.215 81.4082 180.645 81.4082 183.639V191" stroke="#FFEDC9" stroke-width="1.64904" stroke-miterlimit="10" stroke-linecap="round"/>
<path d="M72.1097 191C79.1709 191 84.8951 185.276 84.8951 178.215C84.8951 171.153 79.1709 165.429 72.1097 165.429C65.0485 165.429 59.3242 171.153 59.3242 178.215C59.3242 185.276 65.0485 191 72.1097 191Z" stroke="#FDC760" stroke-width="1.64904" stroke-miterlimit="10"/>
<path d="M285.351 93.008V59.0237C285.351 58.3987 285.858 57.9299 286.444 57.9299H286.64C287.265 57.9299 287.733 58.4377 287.733 59.0237V93.008C287.733 94.7659 287.812 96.4846 287.929 98.2424L288.866 110.703H286.64H286.444H284.218L285.155 98.2424C285.272 96.4846 285.351 94.7268 285.351 93.008Z" fill="#50506A"/>
<path d="M282 110.978V189.103C282 190.274 282.938 191.212 284.109 191.212H314.891C316.062 191.212 317 190.274 317 189.103V185.47C317 184.571 316.648 183.673 316.023 183.009L309.227 175.821C308.562 175.118 308.211 174.181 308.211 173.243V139.22C308.211 138.868 308.25 138.517 308.367 138.165L316.219 111.603C316.609 110.274 315.594 108.907 314.227 108.907H284.148C282.937 108.907 282 109.845 282 110.978Z" fill="url(#paint3_linear)"/>
<path d="M57.8535 91C57.8535 76.6406 69.4941 65 83.8535 65C98.2129 65 109.854 76.6406 109.854 91V117H83.8535C69.4941 117 57.8535 105.359 57.8535 91Z" fill="url(#paint4_linear)"/>
<path d="M83.4581 88.8985C85.9547 88.8985 87.9787 86.8745 87.9787 84.3779C87.9787 81.8812 85.9547 79.8573 83.4581 79.8573C80.9614 79.8573 78.9375 81.8812 78.9375 84.3779C78.9375 86.8745 80.9614 88.8985 83.4581 88.8985Z" fill="white"/>
<path d="M77.1926 101.667C74.4961 101.667 72.672 98.7326 74.0203 96.4327C75.8444 93.1017 79.4133 90.8018 83.5373 90.8018C87.6614 90.8018 91.1509 93.0224 93.0543 96.4327C94.4026 98.8119 92.5785 101.667 89.882 101.667H77.1926Z" fill="white"/>
<defs>
<linearGradient id="paint0_linear" x1="182.103" y1="118.188" x2="182.103" y2="165.674" gradientUnits="userSpaceOnUse">
<stop stop-color="#FC451C"/>
<stop offset="1" stop-color="#E38C70"/>
</linearGradient>
<linearGradient id="paint1_linear" x1="188.329" y1="90.9449" x2="188.329" y2="146.622" gradientUnits="userSpaceOnUse">
<stop stop-color="#FFD7B3"/>
<stop offset="1" stop-color="#FFB39B"/>
</linearGradient>
<linearGradient id="paint2_linear" x1="254.599" y1="90.9449" x2="254.599" y2="140.876" gradientUnits="userSpaceOnUse">
<stop stop-color="#290000"/>
<stop offset="1" stop-color="#8A1C1C"/>
</linearGradient>
<linearGradient id="paint3_linear" x1="299.5" y1="108.907" x2="299.5" y2="191.212" gradientUnits="userSpaceOnUse">
<stop stop-color="#DFEAF4"/>
<stop offset="1" stop-color="#E2DFF4"/>
</linearGradient>
<linearGradient id="paint4_linear" x1="57.9271" y1="65" x2="89.8086" y2="117.17" gradientUnits="userSpaceOnUse">
<stop stop-color="#72D5FF"/>
<stop offset="1" stop-color="#72B9FF"/>
</linearGradient>
</defs>
</svg>
