<svg xmlns="http://www.w3.org/2000/svg" width="186" height="137" fill="none" viewBox="0 0 186 137">
    <path fill="#F0ECE6" d="M1 9.43A9.43 9.43 0 0110.43 0h165.88a9.43 9.43 0 019.43 9.43v10.223H1V9.43z" />
    <path
        fill="url(#paint0_linear_5741_18638)"
        d="M1 19.654h184.74v106.914c0 5.21-4.224 9.433-9.434 9.433H10.433A9.433 9.433 0 011 126.568V19.654z"
    />
    <path
        stroke="#F0ECE6"
        stroke-width="1.4"
        d="M.7 9.434A8.734 8.734 0 019.434.7h167.132a8.734 8.734 0 018.734 8.734v118.132a8.734 8.734 0 01-8.734 8.734H9.434A8.734 8.734 0 01.7 127.566V9.434z"
    />
    <circle cx="13.578" cy="10.219" r="3.145" fill="#CCC8C0" />
    <circle cx="23.012" cy="10.219" r="3.145" fill="#CCC8C0" />
    <circle cx="32.445" cy="10.219" r="3.145" fill="#CCC8C0" />
    <path
        fill="#fff"
        stroke="#F0ECE6"
        stroke-width="1.4"
        d="M18.02 69a7.3 7.3 0 017.3-7.3h136a7.3 7.3 0 017.3 7.3v18a7.3 7.3 0 01-7.3 7.3h-136a7.3 7.3 0 01-7.3-7.3V69z"
    />
    <g filter="url(#filter0_f_5741_18638)" opacity=".3">
        <path fill="#1F1548" d="M69.32 81a8 8 0 018-8h33a8 8 0 018 8v21a8 8 0 01-8 8h-33a8 8 0 01-8-8V81z" />
    </g>
    <g>
        <path
            fill="#706D6B"
            fill-rule="evenodd"
            d="M73.331 61.59v-9.556C73.331 40.965 82.296 32 93.365 32c11.068 0 20.033 8.965 20.033 20.034v17.342h-6.525V52.034c0-7.97-5.65-13.62-13.619-13.62-7.969 0-13.619 5.65-13.619 13.62v9.556h-6.304z"
            clip-rule="evenodd"
        />
        <path
            fill="url(#paint1_linear_5741_18638)"
            d="M117.048 104.155H69.746c-2.397 0-4.426-1.936-4.426-4.426V62.201c0-2.397 1.937-4.426 4.426-4.426h47.302c2.398 0 4.426 1.937 4.426 4.426V99.73c0 2.398-1.936 4.426-4.426 4.426z"
        />
        <path
            fill="#3D3C3A"
            d="M99.16 76.125a5.785 5.785 0 00-5.809-5.809 5.785 5.785 0 00-5.809 5.81c0 2.212 1.199 4.056 3.043 5.07l-2.398 10.328h10.328l-2.398-10.327c1.844-.922 3.043-2.859 3.043-5.072z"
        />
    </g>
    <path
        fill="#706D6B"
        d="M38.665 77.345h-2.767l1.954-1.96a.656.656 0 00-.922-.923l-1.96 1.96v-2.767a.655.655 0 00-1.31 0v2.767l-1.955-1.96a.657.657 0 10-.922.923l1.96 1.96h-2.768a.655.655 0 100 1.31h2.768l-1.96 1.96a.655.655 0 10.922.923l1.955-1.96v2.767a.655.655 0 001.31 0v-2.767l1.96 1.96a.653.653 0 00.966.044.655.655 0 00-.044-.967l-1.954-1.96h2.767a.655.655 0 000-1.31zM135.665 77.345h-2.767l1.954-1.96a.656.656 0 00-.473-1.074.654.654 0 00-.449.151l-1.96 1.96v-2.767a.655.655 0 10-1.31 0v2.767l-1.955-1.96a.66.66 0 00-.746-.201.653.653 0 00-.42.648.657.657 0 00.243.476l1.961 1.96h-2.768a.656.656 0 00-.463 1.118c.123.123.29.192.463.192h2.768l-1.961 1.96a.66.66 0 00-.043.966.651.651 0 00.754.124.646.646 0 00.212-.167l1.955-1.96v2.767a.657.657 0 001.31 0v-2.768l1.96 1.96a.646.646 0 00.473.236.658.658 0 00.641-.418.672.672 0 00-.024-.528.664.664 0 00-.168-.212l-1.954-1.96h2.767a.652.652 0 00.655-.655.655.655 0 00-.655-.655zM60.665 77.345h-2.767l1.954-1.96a.656.656 0 00-.922-.923l-1.96 1.96v-2.767a.655.655 0 00-1.31 0v2.767l-1.955-1.96a.657.657 0 10-.922.923l1.96 1.96h-2.768a.655.655 0 100 1.31h2.768l-1.96 1.96a.655.655 0 10.922.923l1.955-1.96v2.767a.655.655 0 001.31 0v-2.767l1.96 1.96a.653.653 0 00.966.044.655.655 0 00-.044-.967l-1.954-1.96h2.767a.655.655 0 000-1.31z"
    />
    <path fill="#EBEDED" d="M143.32 83h16v1h-16z" />
    <defs>
        <linearGradient
            id="paint0_linear_5741_18638"
            x1="93.37"
            x2="93.37"
            y1="46.776"
            y2="136.001"
            gradientUnits="userSpaceOnUse"
        >
            <stop stop-color="#fff" />
            <stop offset="1" stop-color="#FDFEFE" />
        </linearGradient>
        <linearGradient
            id="paint1_linear_5741_18638"
            x1="93.397"
            x2="93.397"
            y1="57.775"
            y2="104.155"
            gradientUnits="userSpaceOnUse"
        >
            <stop stop-color="#FFE26D" />
            <stop offset="1" stop-color="#FFA16D" />
        </linearGradient>
        <filter
            id="filter0_f_5741_18638"
            width="68.4"
            height="56.4"
            x="59.62"
            y="63.3"
            color-interpolation-filters="sRGB"
            filterUnits="userSpaceOnUse"
        >
            <feFlood flood-opacity="0" result="BackgroundImageFix" />
            <feBlend in="SourceGraphic" in2="BackgroundImageFix" result="shape" />
            <feGaussianBlur result="effect1_foregroundBlur_5741_18638" stdDeviation="4.85" />
        </filter>
    </defs>
</svg>
