<svg xmlns="http://www.w3.org/2000/svg" width="244" height="160" fill="none">
    <rect width="244" height="160" fill="#1B1340" rx="8" />
    <rect width="244" height="160" fill="url(#a)" rx="8" />
    <rect width="210" height="42" x="17" y="17" fill="#000" fill-opacity=".1" rx="11" />
    <rect width="210" height="42" x="17" y="17" stroke="url(#b)" stroke-width="2" rx="11" />
    <g clip-path="url(#c)">
        <path
            fill="#fff"
            d="M32.19 43.157c-1.347 0-2.395-.766-2.395-2.16 0-1.612 1.375-1.963 2.719-2.12 1.274-.147 1.791-.138 1.791-.641v-.032c0-.804-.457-1.27-1.348-1.27-.928 0-1.445.485-1.648.988l-1.297-.296c.461-1.292 1.643-1.81 2.927-1.81 1.126 0 2.751.412 2.751 2.475V43h-1.348v-.97h-.055c-.264.531-.924 1.127-2.096 1.127Zm.3-1.108c1.15 0 1.82-.766 1.82-1.606v-.915c-.199.199-1.26.319-1.708.379-.8.106-1.455.37-1.455 1.108 0 .683.564 1.034 1.344 1.034Zm5.038.951v-7.09h1.325v1.153h.088c.296-.78.993-1.246 1.93-1.246.946 0 1.597.47 1.906 1.246h.074c.342-.757 1.108-1.246 2.129-1.246 1.283 0 2.188.808 2.188 2.428V43h-1.38v-4.626c0-.96-.6-1.366-1.33-1.366-.9 0-1.422.618-1.422 1.472V43H41.66v-4.713c0-.771-.53-1.28-1.297-1.28-.785 0-1.454.666-1.454 1.621V43h-1.38Zm13.553.157c-1.348 0-2.396-.766-2.396-2.16 0-1.612 1.376-1.963 2.72-2.12 1.274-.147 1.79-.138 1.79-.641v-.032c0-.804-.456-1.27-1.347-1.27-.928 0-1.445.485-1.648.988l-1.298-.296c.462-1.292 1.644-1.81 2.927-1.81 1.127 0 2.752.412 2.752 2.475V43h-1.348v-.97h-.056c-.263.531-.923 1.127-2.096 1.127Zm.3-1.108c1.15 0 1.82-.766 1.82-1.606v-.915c-.2.199-1.261.319-1.709.379-.798.106-1.454.37-1.454 1.108 0 .683.563 1.034 1.343 1.034Zm4.89.951v-.946l3.841-4.88v-.065h-3.716v-1.2h5.438v1.007l-3.693 4.82v.064h3.823V43H56.27Zm10.105.143c-2 0-3.306-1.463-3.306-3.656 0-2.207 1.307-3.67 3.306-3.67s3.305 1.463 3.305 3.67c0 2.193-1.306 3.656-3.305 3.656Zm.004-1.159c1.298 0 1.907-1.14 1.907-2.502 0-1.357-.61-2.511-1.907-2.511-1.306 0-1.915 1.154-1.915 2.511 0 1.362.609 2.502 1.915 2.502Zm6.222-3.194V43h-1.38v-7.09h1.325v1.153h.088c.327-.752 1.024-1.246 2.09-1.246 1.45 0 2.415.918 2.415 2.673V43h-1.38v-4.344c0-1.03-.568-1.644-1.505-1.644-.96 0-1.653.647-1.653 1.778Zm7.299 4.298a.923.923 0 0 1-.923-.924c0-.503.415-.918.923-.918.503 0 .923.415.923.918 0 .513-.42.924-.923.924Z"
        />
        <path
            fill="#FF7E7E"
            d="M85.918 43.13c-1.832 0-3.143-1.007-3.213-2.494h1.164c.069.914.937 1.478 2.03 1.478 1.215 0 2.088-.679 2.088-1.68 0-1.044-.8-1.773-2.235-1.773h-.757v-1.016h.757c1.122 0 1.902-.646 1.902-1.644 0-.955-.674-1.588-1.717-1.588-.983 0-1.879.554-1.92 1.496h-1.108c.055-1.486 1.412-2.493 3.046-2.493 1.75 0 2.807 1.191 2.807 2.53 0 1.066-.595 1.851-1.551 2.142v.074c1.191.198 1.902 1.071 1.902 2.271 0 1.547-1.362 2.696-3.195 2.696Z"
        />
        <path
            fill="#5096FF"
            d="M91.02 35.91h1.09v7.607c0 1.311-.666 2.142-2.032 2.142h-.222v-1.015h.203c.665 0 .96-.407.96-1.127v-7.608Zm.535-1.183c-.425 0-.775-.332-.775-.738 0-.407.35-.739.775-.739.425 0 .776.332.776.739 0 .406-.351.738-.776.738Z"
        />
        <path
            fill="#BBD03C"
            d="M94.252 43v-9.455h1.09v3.49h.092c.24-.369.665-1.218 2.05-1.218 1.791 0 3.028 1.422 3.028 3.656 0 2.253-1.237 3.675-3.01 3.675-1.366 0-1.828-.85-2.068-1.238h-.13V43h-1.052Zm1.071-3.545c0 1.606.72 2.714 2.032 2.714 1.366 0 2.068-1.2 2.068-2.714 0-1.496-.683-2.66-2.068-2.66-1.33 0-2.032 1.072-2.032 2.66Z"
        />
        <path
            fill="#37F962"
            d="M105.115 43.13c-1.625 0-2.867-1.053-2.936-2.494h1.108c.087.854.858 1.478 1.828 1.478 1.163 0 2.013-.891 2.013-2.105 0-1.238-.882-2.152-2.087-2.161-.582-.005-1.251.199-1.643.48l-1.071-.13.572-4.653h4.912v1.016h-3.952l-.332 2.788h.055c.388-.309 1.007-.535 1.644-.535 1.735 0 3.01 1.343 3.01 3.176 0 1.81-1.321 3.14-3.121 3.14Z"
        />
        <path
            fill="#FF7AF2"
            d="M113.024 43.13c-1.625 0-2.867-1.053-2.936-2.494h1.108c.088.854.859 1.478 1.828 1.478 1.163 0 2.013-.891 2.013-2.105 0-1.238-.882-2.152-2.087-2.161-.581-.005-1.251.199-1.643.48l-1.071-.13.572-4.653h4.912v1.016h-3.952l-.332 2.788h.055c.388-.309 1.007-.535 1.644-.535 1.736 0 3.01 1.343 3.01 3.176 0 1.81-1.321 3.14-3.121 3.14Z"
        />
        <path
            fill="#fff"
            d="M123.775 45.571c-3.818 0-5.937-2.137-5.942-5.881.005-3.638 2.179-5.895 5.877-5.895 3.527 0 5.429 2.419 5.429 5.198 0 1.948-.374 3.887-2.345 3.924-.789.028-1.593-.3-1.703-1.043h-.056c-.217.544-.9 1.034-1.953.987-1.555-.06-2.525-1.329-2.525-3.226 0-1.82 1.145-2.923 2.479-3.08.965-.115 1.768.25 1.907.656h.06v-.517h1.135v4.284c0 .485.264.872.739.872.84 0 1.099-.9 1.094-2.903.005-2.345-1.606-4.081-4.307-4.081-2.955 0-4.603 1.897-4.603 4.833 0 3.066 1.667 4.778 4.774 4.778 1.034 0 2.1-.337 2.488-.475l.323 1.01c-.572.269-1.805.56-2.871.56Zm-.425-3.84c1.2 0 1.667-.716 1.662-2.156-.005-1.404-.512-1.902-1.643-1.902-1.044 0-1.639.844-1.644 1.906.005 1.117.42 2.151 1.625 2.151Zm7.314 3.928v-9.75h1.348v1.15h.115c.245-.439.72-1.242 2.036-1.242 1.713 0 2.978 1.352 2.978 3.651 0 2.295-1.247 3.67-2.964 3.67-1.293 0-1.801-.789-2.05-1.241h-.083v3.762h-1.38Zm1.352-6.204c0 1.49.665 2.506 1.852 2.506 1.232 0 1.878-1.085 1.878-2.506 0-1.408-.627-2.466-1.878-2.466-1.205 0-1.852.984-1.852 2.466Zm8.735 3.702c-1.348 0-2.396-.766-2.396-2.16 0-1.612 1.376-1.963 2.719-2.12 1.274-.147 1.791-.138 1.791-.641v-.032c0-.804-.457-1.27-1.348-1.27-.928 0-1.445.485-1.648.988l-1.297-.296c.461-1.292 1.643-1.81 2.927-1.81 1.126 0 2.751.412 2.751 2.475V43h-1.348v-.97h-.055c-.264.531-.924 1.127-2.096 1.127Zm.3-1.108c1.149 0 1.819-.766 1.819-1.606v-.915c-.199.199-1.261.319-1.708.379-.799.106-1.455.37-1.455 1.108 0 .683.564 1.034 1.344 1.034Zm10.351-4.409-1.251.222c-.162-.476-.559-.951-1.417-.951-.785 0-1.376.388-1.371.932-.005.48.332.744 1.112.928l1.127.259c1.302.3 1.939.919 1.939 1.92 0 1.284-1.187 2.193-2.9 2.193-1.592 0-2.636-.706-2.866-1.962l1.334-.203c.166.697.697 1.053 1.523 1.053.905 0 1.491-.43 1.491-.98 0-.442-.318-.747-1.001-.9l-1.201-.263c-1.329-.295-1.939-.964-1.939-1.97 0-1.256 1.136-2.101 2.738-2.101 1.533 0 2.396.72 2.682 1.823Zm6.97 0-1.251.222c-.162-.476-.559-.951-1.417-.951-.785 0-1.376.388-1.372.932-.004.48.333.744 1.113.928l1.126.259c1.302.3 1.939.919 1.939 1.92 0 1.284-1.186 2.193-2.899 2.193-1.592 0-2.636-.706-2.867-1.962l1.335-.203c.166.697.697 1.053 1.523 1.053.905 0 1.491-.43 1.491-.98 0-.442-.318-.747-1.002-.9l-1.2-.263c-1.33-.295-1.939-.964-1.939-1.97 0-1.256 1.136-2.101 2.738-2.101 1.532 0 2.396.72 2.682 1.823Zm1.656 5.36v-7.09h1.325v1.153h.088c.295-.78.992-1.246 1.929-1.246.947 0 1.598.47 1.907 1.246h.074c.341-.757 1.108-1.246 2.128-1.246 1.283 0 2.188.808 2.188 2.428V43h-1.38v-4.626c0-.96-.6-1.366-1.33-1.366-.9 0-1.422.618-1.422 1.472V43h-1.375v-4.713c0-.771-.531-1.28-1.297-1.28-.785 0-1.455.666-1.455 1.621V43h-1.38Zm13.553.157c-1.348 0-2.396-.766-2.396-2.16 0-1.612 1.376-1.963 2.719-2.12 1.274-.147 1.791-.138 1.791-.641v-.032c0-.804-.457-1.27-1.348-1.27-.928 0-1.445.485-1.648.988l-1.297-.296c.462-1.292 1.643-1.81 2.927-1.81 1.126 0 2.751.412 2.751 2.475V43h-1.348v-.97h-.055c-.263.531-.924 1.127-2.096 1.127Zm.3-1.108c1.149 0 1.819-.766 1.819-1.606v-.915c-.199.199-1.261.319-1.708.379-.799.106-1.454.37-1.454 1.108 0 .683.563 1.034 1.343 1.034Zm5.038.951v-7.09h1.38V43h-1.38Zm.697-8.185c-.48 0-.873-.37-.873-.822 0-.452.393-.826.873-.826.475 0 .872.374.872.826 0 .453-.397.822-.872.822Zm3.92-1.27V43h-1.38v-9.455h1.38Zm2.767 9.543a.924.924 0 0 1-.924-.924c0-.503.416-.918.924-.918.503 0 .923.415.923.918 0 .513-.42.924-.923.924Zm5.759.055c-2.059 0-3.306-1.519-3.306-3.656 0-2.165 1.293-3.67 3.292-3.67 1.611 0 2.779.95 2.927 2.382h-1.344c-.147-.665-.683-1.219-1.56-1.219-1.154 0-1.92.956-1.92 2.475 0 1.546.752 2.52 1.92 2.52.789 0 1.385-.452 1.56-1.219h1.344c-.153 1.38-1.237 2.387-2.913 2.387Zm7.376 0c-1.999 0-3.306-1.463-3.306-3.656 0-2.207 1.307-3.67 3.306-3.67s3.305 1.463 3.305 3.67c0 2.193-1.306 3.656-3.305 3.656Zm.004-1.159c1.298 0 1.907-1.14 1.907-2.502 0-1.357-.609-2.511-1.907-2.511-1.306 0-1.915 1.154-1.915 2.511 0 1.362.609 2.502 1.915 2.502ZM204.284 43v-7.09h1.325v1.153h.088c.295-.78.992-1.246 1.929-1.246.947 0 1.597.47 1.907 1.246h.074c.341-.757 1.108-1.246 2.128-1.246 1.283 0 2.188.808 2.188 2.428V43h-1.38v-4.626c0-.96-.6-1.366-1.33-1.366-.9 0-1.422.618-1.422 1.472V43h-1.375v-4.713c0-.771-.531-1.28-1.298-1.28-.784 0-1.454.666-1.454 1.621V43h-1.38Z"
        />
    </g>
    <path fill="url(#d)" d="M119 64h6v23h-6z" />
    <g filter="url(#e)">
        <circle cx="122" cy="88" r="4" fill="#fff" />
    </g>
    <circle cx="122" cy="88" r="4" fill="#fff" />
    <rect width="2" height="2" x="121" y="69" fill="#fff" rx="1" />
    <rect width="2" height="2" x="121" y="64" fill="#fff" rx="1" />
    <rect width="2" height="2" x="121" y="74" fill="#fff" rx="1" />
    <rect width="2" height="2" x="121" y="79" fill="#fff" rx="1" />
    <rect width="56" height="56" x="94" y="88" fill="url(#f)" rx="12" />
    <path
        fill="#fff"
        fill-rule="evenodd"
        d="M108.043 117.292c.054-.363.158-.717.309-1.053l.016-.037 4.559-9.878a4 4 0 0 1 3.632-2.324h10.882a4 4 0 0 1 3.632 2.324l4.559 9.878.016.037a4.006 4.006 0 0 1 .352 1.64V124a4 4 0 0 1-4 4h-20a4 4 0 0 1-4-4v-6.121c0-.197.015-.393.043-.587ZM134 118v6a2 2 0 0 1-2 2h-20a2 2 0 0 1-2-2v-6h5.172a1 1 0 0 1 .707.293l1.828 1.828a3 3 0 0 0 2.121.879h4.344a3 3 0 0 0 2.121-.879l1.828-1.828a1 1 0 0 1 .707-.293H134Zm-.664-2h-4.508a3 3 0 0 0-2.121.879l-1.828 1.828a1 1 0 0 1-.707.293h-4.344a1 1 0 0 1-.707-.293l-1.828-1.828a3 3 0 0 0-2.121-.879h-4.508l4.079-8.838a2 2 0 0 1 1.816-1.162h10.882a2 2 0 0 1 1.816 1.162l4.079 8.838Z"
        clip-rule="evenodd"
    />
    <g filter="url(#g)">
        <rect width="210" height="42" x="17" y="17" stroke="url(#h)" stroke-width="2" rx="11" />
    </g>
    <defs>
        <linearGradient id="b" x1="228.579" x2="-1.209" y1="38" y2="38" gradientUnits="userSpaceOnUse">
            <stop stop-color="#CDC0FF" />
            <stop offset=".542" stop-color="#E2B4E8" />
            <stop offset="1" stop-color="#FFEDC8" />
        </linearGradient>
        <linearGradient id="d" x1="122" x2="122" y1="64" y2="87" gradientUnits="userSpaceOnUse">
            <stop stop-color="#4D428F" stop-opacity="0" />
            <stop offset="1" stop-color="#FA8AB9" stop-opacity=".5" />
        </linearGradient>
        <linearGradient id="f" x1="122" x2="122" y1="88" y2="144" gradientUnits="userSpaceOnUse">
            <stop stop-color="#fff" stop-opacity=".2" />
            <stop offset="1" stop-color="#fff" stop-opacity=".1" />
        </linearGradient>
        <linearGradient id="h" x1="228.579" x2="-1.209" y1="38" y2="38" gradientUnits="userSpaceOnUse">
            <stop stop-color="#CDC0FF" />
            <stop offset=".542" stop-color="#E2B4E8" />
            <stop offset="1" stop-color="#FFEDC8" />
        </linearGradient>
        <filter
            id="e"
            width="16"
            height="16"
            x="114"
            y="80"
            color-interpolation-filters="sRGB"
            filterUnits="userSpaceOnUse"
        >
            <feFlood flood-opacity="0" result="BackgroundImageFix" />
            <feBlend in="SourceGraphic" in2="BackgroundImageFix" result="shape" />
            <feGaussianBlur result="effect1_foregroundBlur_29861_20264" stdDeviation="2" />
        </filter>
        <filter
            id="g"
            width="224"
            height="56"
            x="10"
            y="10"
            color-interpolation-filters="sRGB"
            filterUnits="userSpaceOnUse"
        >
            <feFlood flood-opacity="0" result="BackgroundImageFix" />
            <feBlend in="SourceGraphic" in2="BackgroundImageFix" result="shape" />
            <feGaussianBlur result="effect1_foregroundBlur_29861_20264" stdDeviation="3" />
        </filter>
        <radialGradient
            id="a"
            cx="0"
            cy="0"
            r="1"
            gradientTransform="matrix(-397.2441 160.6503 -133.61636 -330.39662 340.707 -120.976)"
            gradientUnits="userSpaceOnUse"
        >
            <stop stop-color="#FFD580" />
            <stop offset=".063" stop-color="#F6CC88" />
            <stop offset=".182" stop-color="#E4BB98" />
            <stop offset=".292" stop-color="#D2AAA8" />
            <stop offset=".344" stop-color="#C9A2AB" />
            <stop offset=".453" stop-color="#BB95B1" />
            <stop offset=".583" stop-color="#9A75A3" />
            <stop offset=".724" stop-color="#724C91" />
            <stop offset=".896" stop-color="#312255" />
            <stop offset="1" stop-color="#1B1340" />
        </radialGradient>
        <clipPath id="c">
            <path fill="#fff" d="M21 28h202v20H21z" />
        </clipPath>
    </defs>
</svg>
