<svg width="131" height="16" viewBox="0 0 131 16" fill="none" xmlns="http://www.w3.org/2000/svg">
    <g id="Frame 9446009">
        <g id="Wallet Logotype">
            <g id="logo-text-proton">
                <path
                    d="M0 11.648V15.7504H2.86439V11.8272C2.86439 11.4464 3.01398 11.0784 3.28451 10.8096C3.55185 10.5408 3.91785 10.3872 4.29659 10.3872H7.23419C8.60273 10.3872 9.91717 9.83998 10.8847 8.86398C11.8522 7.89118 12.3965 6.56958 12.3965 5.19359C12.3965 3.81759 11.8522 2.49599 10.8847 1.52C9.91717 0.547199 8.60273 0 7.23101 0H0V5.12639H2.86439V2.71039H7.04005C7.68931 2.71039 8.30992 2.96959 8.76823 3.43039C9.22653 3.89119 9.48433 4.51519 9.48433 5.16799C9.48433 5.82079 9.22653 6.44478 8.76823 6.90558C8.30992 7.36638 7.68931 7.62558 7.04005 7.62558H4.00697C3.48183 7.62558 2.95988 7.72798 2.47611 7.93278C1.98916 8.13438 1.54996 8.43198 1.17758 8.80638C0.805213 9.18078 0.512411 9.62558 0.30872 10.112C0.10503 10.5952 0 11.12 0 11.648Z"
                    fill="white"
                />
                <path
                    d="M12.8389 15.7504V9.50077C12.8389 6.95038 14.3188 4.92158 17.2819 4.92158C17.7561 4.91518 18.2303 4.96638 18.695 5.07838V7.64797C18.3576 7.62557 18.068 7.62557 17.9311 7.62557C16.3621 7.62557 15.6874 8.34877 15.6874 9.81437V15.7504H12.8389Z"
                    fill="white"
                />
                <path
                    d="M19.5478 10.4512C19.5478 7.31522 21.903 4.92483 25.1811 4.92483C28.4593 4.92483 30.8144 7.31522 30.8144 10.4512C30.8144 13.5872 28.4593 16 25.1811 16C21.903 16 19.5478 13.584 19.5478 10.4512ZM28.0073 10.4512C28.0073 8.66882 26.817 7.40482 25.1811 7.40482C23.5421 7.40482 22.3549 8.66562 22.3549 10.4512C22.3549 12.256 23.5452 13.4976 25.1811 13.4976C26.8202 13.4976 28.0073 12.2528 28.0073 10.4512Z"
                    fill="white"
                />
                <path
                    d="M39.9233 10.4512C39.9233 7.31522 42.2785 4.92483 45.5566 4.92483C48.8316 4.92483 51.1867 7.31522 51.1867 10.4512C51.1867 13.5872 48.8316 16 45.5566 16C42.2785 16 39.9233 13.584 39.9233 10.4512ZM48.3796 10.4512C48.3796 8.66882 47.1893 7.40482 45.5534 7.40482C43.9175 7.40482 42.7272 8.66562 42.7272 10.4512C42.7272 12.256 43.9175 13.4976 45.5534 13.4976C47.1893 13.4976 48.3796 12.2528 48.3796 10.4512Z"
                    fill="white"
                />
                <path
                    d="M52.6667 15.7504V9.72802C52.6667 6.93122 54.4395 4.92163 57.603 4.92163C60.7443 4.92163 62.517 6.92802 62.517 9.72802V15.7504H59.6909V9.95202C59.6909 8.39682 58.9938 7.42402 57.603 7.42402C56.2122 7.42402 55.5152 8.39362 55.5152 9.95202V15.7504H52.6667Z"
                    fill="white"
                />
                <path
                    d="M39.0703 7.42707H35.9959V11.3759C35.9959 12.7519 36.4892 13.3823 37.9023 13.3823C38.036 13.3823 38.3733 13.3823 38.7998 13.3599V15.683C38.2174 15.8398 37.7018 15.9326 37.1385 15.9326C34.761 15.9326 33.1442 14.4894 33.1442 11.7599V7.42707H31.2346V5.14867H31.712C31.8998 5.14867 32.0876 5.11027 32.2594 5.03987C32.4345 4.96627 32.5904 4.86067 32.7241 4.72627C32.8578 4.59187 32.9628 4.43507 33.036 4.25907C33.1092 4.08307 33.1442 3.89747 33.1442 3.70868V1.56148H35.9927V5.14867H39.0672V7.42707H39.0703Z"
                    fill="white"
                />
            </g>
            <g id="Group 1533213">
                <path
                    id="Vector"
                    d="M116.712 15.9954C115.058 15.9954 113.72 15.4766 112.698 14.4391C111.675 13.3865 111.164 12.0558 111.164 10.4469C111.164 8.85303 111.675 7.52982 112.698 6.47727C113.72 5.42472 115.028 4.89844 116.622 4.89844C118.216 4.89844 119.517 5.42472 120.524 6.47727C121.531 7.52982 122.035 8.85303 122.035 10.4469C122.035 10.8379 122.028 11.1762 122.013 11.4619H114.051C114.382 12.8151 115.246 13.4918 116.645 13.4918C117.727 13.4918 118.479 13.176 118.9 12.5445H121.719C121.404 13.7023 120.78 14.5669 119.847 15.1383C118.915 15.7097 117.87 15.9954 116.712 15.9954ZM114.028 9.38683H119.193C119.088 8.81544 118.795 8.34931 118.314 7.98844C117.833 7.61252 117.269 7.42457 116.622 7.42457C115.961 7.42457 115.397 7.60501 114.931 7.96588C114.48 8.31172 114.179 8.78537 114.028 9.38683Z"
                    fill="#7474FF"
                />
                <path id="Vector_2" d="M106.852 15.7495V0.367188H109.964V15.7495H106.852Z" fill="#7474FF" />
                <path id="Vector_3" d="M101.5 15.7495V0.367188H104.612V15.7495H101.5Z" fill="#7474FF" />
                <path
                    id="Vector_4"
                    d="M71.8867 15.7495L67.3984 0.367188H70.6462L72.9919 9.29886C73.2475 10.3063 73.4279 11.1559 73.5332 11.8475H73.5783C73.6986 11.0957 73.8865 10.2311 74.1421 9.25375L76.6006 0.367188H80.7054L83.1638 9.25375C83.4495 10.2612 83.645 11.1258 83.7502 11.8475H83.7953C83.9307 10.9303 84.1036 10.0808 84.3141 9.29886L86.6597 0.367188H89.9075L85.4192 15.7495H81.9233L79.0364 4.99091C78.8409 4.23908 78.7206 3.59252 78.6755 3.0512H78.6304C78.5853 3.59252 78.465 4.23908 78.2696 4.99091L75.3826 15.7495H71.8867Z"
                    fill="#7474FF"
                />
                <path
                    id="logo-text-proton_2"
                    d="M130.143 7.4123H127.064V11.3662C127.064 12.744 127.558 13.3753 128.973 13.3753C129.107 13.3753 129.445 13.3753 129.872 13.3528V15.6791C129.289 15.8361 128.772 15.929 128.208 15.929C125.828 15.929 124.209 14.4839 124.209 11.7507V7.4123H122.297V5.13094H122.775C122.963 5.13094 123.151 5.09249 123.323 5.02199C123.498 4.9483 123.654 4.84256 123.788 4.70799C123.922 4.57341 124.027 4.41641 124.101 4.24018C124.174 4.06395 124.209 3.87811 124.209 3.68906V1.53906H127.061V5.13094H130.14V7.4123H130.143Z"
                    fill="#7474FF"
                />
                <path
                    id="logo-text-product"
                    d="M97.1529 5.62121C97.9895 6.0598 98.6818 6.73211 99.1466 7.55488C99.6434 8.44808 99.8934 9.45973 99.8742 10.481V15.7506H97.342L97.1625 14.169C96.8324 14.7421 96.3484 15.2095 95.765 15.5233C95.1399 15.8466 94.4412 16.0099 93.736 15.9939C92.8353 16.0035 91.9506 15.7634 91.1782 15.2992C90.3961 14.8253 89.7614 14.1466 89.3383 13.3399C88.8767 12.4499 88.6459 11.4606 88.6652 10.4586C88.6524 9.47254 88.9056 8.5025 89.396 7.64452C89.8768 6.81214 90.5723 6.12703 91.4153 5.66282C92.2872 5.17941 93.268 4.9297 94.2649 4.9425C95.2682 4.92329 96.2618 5.157 97.1529 5.62121ZM96.2266 12.7092C96.7779 12.1842 97.0503 11.4446 97.0503 10.4586C97.0856 9.65182 96.8003 8.86426 96.2618 8.2656C96.0054 7.99667 95.6977 7.78538 95.3547 7.63811C95.0117 7.49085 94.6463 7.41721 94.2745 7.41721C93.9027 7.41721 93.5341 7.49085 93.1943 7.63811C92.8513 7.78538 92.5436 7.99667 92.2872 8.2656C91.7744 8.88027 91.4923 9.65502 91.4923 10.4554C91.4923 11.2557 91.7744 12.0305 92.2872 12.6452C92.5404 12.9205 92.8481 13.135 93.1943 13.2823C93.5373 13.4263 93.9091 13.4999 94.2809 13.4903C94.6399 13.4967 94.9989 13.4295 95.3355 13.2951C95.6656 13.1638 95.9701 12.9621 96.2266 12.7092Z"
                    fill="#7474FF"
                />
            </g>
        </g>
    </g>
</svg>
