<svg width="328" height="136" viewBox="0 0 328 136" fill="none" xmlns="http://www.w3.org/2000/svg">
    <path
        d="M257.093 131.962L67.907 132.205C66.277 132.205 65 130.936 65 129.315V127.694C65 126.073 66.276 124.804 67.907 124.804L257.093 124.561C258.724 124.561 260 125.829 260 127.451V129.072C260 130.693 258.653 131.962 257.093 131.962Z"
        fill="#EAE8E5"
    />
    <path
        d="M170.778 128.893H153.196C152.667 128.895 152.143 128.792 151.653 128.591C151.164 128.39 150.719 128.094 150.344 127.721C149.968 127.348 149.67 126.905 149.467 126.416C149.263 125.928 149.157 125.404 149.156 124.875H174.819C174.818 125.404 174.713 125.928 174.509 126.417C174.305 126.905 174.007 127.348 173.632 127.722C173.256 128.095 172.811 128.39 172.322 128.591C171.832 128.792 171.308 128.895 170.778 128.893Z"
        fill="#D1CFCD"
    />
    <path
        d="M239.571 124.805H83.7656V36.459C83.7656 31.807 87.5946 28 92.2736 28H231.064C235.743 28 239.571 31.807 239.571 36.46V124.805Z"
        fill="url(#paint0_linear_5346_63754)"
    />
    <path
        d="M232.979 124.805H91.0703V37.7989C91.0703 36.6709 91.9923 35.7539 93.1263 35.7539H230.852C231.987 35.7539 232.908 36.6709 232.908 37.7989V124.805H232.979Z"
        fill="url(#paint1_linear_5346_63754)"
    />
    <path
        d="M297.049 35.0982C298.733 35.0982 300.098 33.7331 300.098 32.0491C300.098 30.3651 298.733 29 297.049 29C295.365 29 294 30.3651 294 32.0491C294 33.7331 295.365 35.0982 297.049 35.0982Z"
        fill="#59CA6C"
    />
    <path
        d="M276.107 44.9632L275.002 42.883C274.742 42.3953 274.137 42.2101 273.649 42.4694L262.883 48.1922C262.395 48.4514 262.21 49.0569 262.469 49.5445L263.575 51.6248C263.834 52.1124 264.44 52.2976 264.927 52.0384L275.694 46.3156C276.181 46.0564 276.367 45.4509 276.107 44.9632Z"
        fill="#C867F5"
    />
    <path
        d="M297.45 73.22C297.356 72.8758 297.085 72.6082 296.74 72.5177L293.712 71.7248C293.367 71.6344 292.999 71.7349 292.748 71.9885L290.549 74.2088C290.299 74.462 290.202 74.8295 290.295 75.1735L291.118 78.2177C291.211 78.5637 291.483 78.8332 291.83 78.9241L294.852 79.7155C295.198 79.8063 295.567 79.7046 295.819 79.4488L298.028 77.1988C298.278 76.9446 298.373 76.5767 298.279 76.2331L297.45 73.22Z"
        fill="#321E86"
    />
    <path
        d="M276.113 103.558C275.943 102.419 274.606 101.888 273.701 102.602L270.047 105.484C269.139 106.2 269.349 107.631 270.424 108.056L274.765 109.772C275.839 110.197 276.97 109.298 276.8 108.156L276.113 103.558Z"
        fill="#FF69B8"
    />
    <path
        d="M35.7976 91.6863C36.2349 90.6205 35.3572 89.48 34.2149 89.6297L29.6005 90.2345C28.4536 90.3848 27.9013 91.7217 28.6076 92.6377L31.4574 96.3335C32.1629 97.2485 33.5945 97.0558 34.033 95.987L35.7976 91.6863Z"
        fill="#59CA6C"
    />
    <path
        d="M53.3051 20.0437L51.4367 18.609C50.9986 18.2727 50.3709 18.3551 50.0346 18.7931L42.6091 28.4633C42.2728 28.9013 42.3552 29.529 42.7932 29.8654L44.6616 31.3001C45.0997 31.6364 45.7274 31.554 46.0637 31.116L53.4892 21.4458C53.8255 21.0078 53.7431 20.3801 53.3051 20.0437Z"
        fill="#55E5B2"
    />
    <path
        d="M61.2186 55.9248L60.0508 56.9528C59.4705 57.4638 59.4142 58.3484 59.9251 58.9287L67.4532 67.4799C67.9641 68.0602 68.8487 68.1165 69.429 67.6056L70.5968 66.5775C71.1772 66.0666 71.2335 65.182 70.7225 64.6016L63.1945 56.0505C62.6836 55.4702 61.7989 55.4139 61.2186 55.9248Z"
        fill="#6847F2"
    />
    <path
        d="M62.0491 103.098C63.7331 103.098 65.0982 101.733 65.0982 100.049C65.0982 98.3651 63.7331 97 62.0491 97C60.3651 97 59 98.3651 59 100.049C59 101.733 60.3651 103.098 62.0491 103.098Z"
        fill="#FF69B8"
    />
    <path d="M85.4249 5H81.1416L79 8.70249L81.1416 12.4413H85.4249L87.6028 8.70249L85.4249 5Z" fill="#FFB7B7" />
    <path
        d="M197.355 10.3375L193.695 8.11251L189.942 10.1637L189.83 14.471L193.49 16.696L197.293 14.6326L197.355 10.3375Z"
        fill="#55E5B2"
    />
    <path
        d="M15.8322 51.0698C15.3701 50.4524 14.4126 50.5683 14.1112 51.2782L11.6091 57.1709C11.3085 57.8789 11.8865 58.6471 12.6501 58.5544L18.987 57.7853C19.7504 57.6926 20.1279 56.809 19.6671 56.1934L15.8322 51.0698Z"
        fill="#321E86"
    />
    <path
        d="M231.248 7.23966L229.059 6.3694C228.546 6.16539 227.964 6.41606 227.76 6.9293L224.369 15.4603C224.165 15.9736 224.416 16.555 224.929 16.759L227.119 17.6293C227.632 17.8333 228.213 17.5826 228.417 17.0694L231.808 8.53836C232.012 8.02512 231.762 7.44367 231.248 7.23966Z"
        fill="#FFD585"
    />
    <rect x="132" y="50" width="60" height="60" rx="13.8462" fill="url(#paint2_radial_5346_63754)" />
    <path
        d="M143.539 73.5334L158.539 83.4628L172.385 72.3857L177 84.3281L172.385 96.155H147.395C145.265 96.155 143.539 94.4283 143.539 92.2983L143.539 73.5334Z"
        fill="url(#paint3_radial_5346_63754)"
    />
    <path
        fill-rule="evenodd"
        clip-rule="evenodd"
        d="M164.464 78.7675L159.596 83.2072C158.329 84.3266 156.434 84.3549 155.134 83.2736L143.539 73.655V67.2806C143.539 66.5546 144.385 66.1574 144.943 66.6212L159.536 78.7675C160.965 79.9538 163.036 79.9538 164.464 78.7675Z"
        fill="url(#paint4_radial_5346_63754)"
    />
    <path
        fill-rule="evenodd"
        clip-rule="evenodd"
        d="M172.385 72.3848V96.154H176.605C178.735 96.154 180.462 94.4271 180.462 92.2973V67.1614C180.462 66.4355 179.616 66.0382 179.057 66.5021L172.385 72.3848Z"
        fill="url(#paint5_radial_5346_63754)"
    />
    <path
        fill-rule="evenodd"
        clip-rule="evenodd"
        d="M178.154 51.1538H145.846C138.836 51.1538 133.154 56.8364 133.154 63.8462V96.1538C133.154 103.164 138.836 108.846 145.846 108.846H178.154C185.164 108.846 190.846 103.164 190.846 96.1538V63.8462C190.846 56.8364 185.164 51.1538 178.154 51.1538ZM145.846 50C138.199 50 132 56.1991 132 63.8462V96.1538C132 103.801 138.199 110 145.846 110H178.154C185.801 110 192 103.801 192 96.1538V63.8462C192 56.1991 185.801 50 178.154 50H145.846Z"
        fill="url(#paint6_linear_5346_63754)"
    />
    <defs>
        <linearGradient
            id="paint0_linear_5346_63754"
            x1="161.668"
            y1="6.5"
            x2="161.668"
            y2="125"
            gradientUnits="userSpaceOnUse"
        >
            <stop stop-color="#6447D9" />
            <stop offset="1" stop-color="#1C0D59" />
        </linearGradient>
        <linearGradient
            id="paint1_linear_5346_63754"
            x1="162.025"
            y1="35.7539"
            x2="162.025"
            y2="124.805"
            gradientUnits="userSpaceOnUse"
        >
            <stop stop-color="#EAE5FF" />
            <stop offset="1" stop-color="white" />
        </linearGradient>
        <radialGradient
            id="paint2_radial_5346_63754"
            cx="0"
            cy="0"
            r="1"
            gradientUnits="userSpaceOnUse"
            gradientTransform="translate(152.039 52.6367) rotate(59.8421) scale(73.5942)"
        >
            <stop stop-color="white" />
            <stop offset="0.639344" stop-color="#F5F4F2" />
            <stop offset="1" stop-color="#D1CFCD" />
        </radialGradient>
        <radialGradient
            id="paint3_radial_5346_63754"
            cx="0"
            cy="0"
            r="1"
            gradientUnits="userSpaceOnUse"
            gradientTransform="translate(159.692 92.6935) rotate(135) scale(17.1337 24.1203)"
        >
            <stop stop-color="#6B4DE6" />
            <stop offset="1" stop-color="#401ADD" />
        </radialGradient>
        <radialGradient
            id="paint4_radial_5346_63754"
            cx="0"
            cy="0"
            r="1"
            gradientUnits="userSpaceOnUse"
            gradientTransform="translate(154.5 83.4625) rotate(-128.211) scale(34.5095 76.3044)"
        >
            <stop stop-color="#D3C9FF" />
            <stop offset="1" stop-color="#572FFF" />
        </radialGradient>
        <radialGradient
            id="paint5_radial_5346_63754"
            cx="0"
            cy="0"
            r="1"
            gradientUnits="userSpaceOnUse"
            gradientTransform="translate(176.423 93.8463) rotate(-97.3058) scale(45.3683 27.9692)"
        >
            <stop stop-color="#CBBFFF" />
            <stop offset="1" stop-color="#572FFF" />
        </radialGradient>
        <linearGradient id="paint6_linear_5346_63754" x1="162" y1="50" x2="162" y2="110" gradientUnits="userSpaceOnUse">
            <stop stop-color="white" stop-opacity="0.05" />
            <stop offset="1" stop-opacity="0.03" />
        </linearGradient>
    </defs>
</svg>
