<svg width="28" height="28" viewBox="0 0 28 28" fill="none" xmlns="http://www.w3.org/2000/svg">
    <rect width="28" height="28" rx="8" fill="#6D4AFF" fill-opacity="0.1" />
    <path
        fill-rule="evenodd"
        clip-rule="evenodd"
        d="M13.1456 7.27942C13.4216 7.17908 13.7108 7.12891 14 7.12891C14.2892 7.12891 14.5784 7.17908 14.8544 7.27942L19.6709 9.03088C19.8685 9.10273 20 9.29053 20 9.50078V15.1262C20 16.773 19.1005 18.2882 17.6548 19.0768L14.2394 20.9397C14.1648 20.9804 14.0824 21 14 21C13.9176 21 13.8352 20.9804 13.7606 20.9397L10.3452 19.0768C8.89949 18.2882 8 16.773 8 15.1262V9.50078C8 9.29053 8.13153 9.10273 8.32913 9.03088L13.1456 7.27942Z"
        fill="url(#paint0_linear_33694_59018)"
    />
    <path
        d="M13.7606 20.9397L10.3452 19.0768C8.89949 18.2882 8 16.773 8 15.1262V9.50078C8 9.29053 8.13153 9.10273 8.32913 9.03088L13.1456 7.27942C13.4216 7.17908 13.7108 7.12891 14 7.12891V21C13.9176 21 13.8352 20.9804 13.7606 20.9397Z"
        fill="#6D4AFF"
    />
    <rect x="21" y="3" width="1" height="7" fill="#6D4AFF" />
    <rect x="25" y="6" width="1" height="7" transform="rotate(90 25 6)" fill="#6D4AFF" />
    <defs>
        <linearGradient
            id="paint0_linear_33694_59018"
            x1="14"
            y1="7.12891"
            x2="14"
            y2="21"
            gradientUnits="userSpaceOnUse"
        >
            <stop stop-color="#6D4AFF" />
            <stop offset="1" stop-color="#6D4AFF" stop-opacity="0.2" />
        </linearGradient>
    </defs>
</svg>
