<svg xmlns="http://www.w3.org/2000/svg" width="48" height="40" fill="none">
    <path
        fill="url(#a)"
        d="M36.355 39.588H2.33A2.315 2.315 0 0 1 0 37.258V14.925h38.722v22.333c-.038 1.26-1.069 2.33-2.367 2.33Z"
    />
    <path
        fill="url(#b)"
        fill-rule="evenodd"
        d="M38.722 14.925 19.287 28.55 0 14.926H0L18.142 2.16a1.949 1.949 0 0 1 2.292 0l18.289 12.765Z"
        clip-rule="evenodd"
    />
    <path
        fill="url(#c)"
        fill-rule="evenodd"
        d="M3.722 39.56h32.522c1.299 0 2.33-1.07 2.368-2.33V15.004L3.722 39.56Z"
        clip-rule="evenodd"
    />
    <mask id="d" width="32" height="30" x="7" y="2" maskUnits="userSpaceOnUse" style="mask-type: alpha">
        <path fill="#C4C4C4" d="M38.757 14.682 20.432 2.196 7.135 31.732l31.622-2.455V14.682Z" />
    </mask>
    <g filter="url(#e)" mask="url(#d)" opacity=".3">
        <path fill="#221548" d="m28.232-.263 10.83 7.486V24.9l-1.226-.703a19.112 19.112 0 0 1-9.604-16.58v-7.88Z" />
    </g>
    <path fill="url(#f)" d="M38.919 18.574a9.081 9.081 0 1 0 0-18.162 9.081 9.081 0 0 0 0 18.162Z" />
    <path fill="#fff" d="M37.977 5.89a.942.942 0 0 1 1.884 0l.026 4.576a.968.968 0 1 1-1.935 0l.025-4.577Z" />
    <circle cx="38.919" cy="13.774" r=".973" fill="#fff" />
    <defs>
        <linearGradient id="a" x1="16.48" x2="0" y1="17.461" y2="39.588" gradientUnits="userSpaceOnUse">
            <stop stop-color="#EEBEFF" />
            <stop offset="1" stop-color="#6D4AFF" />
        </linearGradient>
        <linearGradient id="b" x1="19.485" x2="19.485" y1="11.53" y2="31.599" gradientUnits="userSpaceOnUse">
            <stop stop-color="#5C7BEC" />
            <stop offset="1" stop-color="#4D34B3" />
        </linearGradient>
        <linearGradient id="c" x1="45.96" x2="10.425" y1="18.983" y2="39.529" gradientUnits="userSpaceOnUse">
            <stop stop-color="#EBBEFF" />
            <stop offset="1" stop-color="#6D4AFF" />
        </linearGradient>
        <linearGradient id="f" x1="38.919" x2="38.919" y1="2.234" y2="25.819" gradientUnits="userSpaceOnUse">
            <stop stop-color="#FA5284" />
            <stop offset="1" stop-color="#DC3251" />
        </linearGradient>
        <filter
            id="e"
            width="21.66"
            height="35.994"
            x="22.817"
            y="-5.678"
            color-interpolation-filters="sRGB"
            filterUnits="userSpaceOnUse"
        >
            <feFlood flood-opacity="0" result="BackgroundImageFix" />
            <feBlend in="SourceGraphic" in2="BackgroundImageFix" result="shape" />
            <feGaussianBlur result="effect1_foregroundBlur_5157_709" stdDeviation="2.708" />
        </filter>
    </defs>
</svg>
