<svg width="384" height="216" viewBox="0 0 384 216" fill="none" xmlns="http://www.w3.org/2000/svg">
<path fill-rule="evenodd" clip-rule="evenodd" d="M102.727 123.11C105.413 108.664 118.436 109.092 118.436 109.092C118.436 109.092 131.459 108.667 134.145 123.11V132.95C134.145 132.95 134.034 134.003 131.073 136.142C130.559 136.513 129.903 137.001 129.16 137.554C125.62 140.189 120.095 144.303 118.436 144.303C116.777 144.303 111.253 140.189 107.713 137.554C106.97 137.001 106.314 136.513 105.8 136.142C102.839 134.003 102.727 132.95 102.727 132.95V123.11ZM109.519 123.11V128.474H127.354V123.11C125.544 115.937 118.436 115.838 118.436 115.838C118.436 115.838 111.328 115.937 109.519 123.11Z" fill="#657EE4"/>
<path d="M114.838 145.227C116.418 146.323 118.436 146.52 118.436 146.52C118.436 146.52 120.456 146.321 122.036 145.224C123.615 144.127 134.145 136.602 134.145 136.602V151.501C134.145 151.501 134.056 153.233 132.147 153.233H104.726C102.817 153.233 102.729 151.501 102.729 151.501V136.605C102.729 136.605 113.259 144.13 114.838 145.227Z" fill="#657EE4"/>
<path fill-rule="evenodd" clip-rule="evenodd" d="M150.4 118.661H159.545C163.629 118.661 166.886 119.521 169.231 121.329C171.616 123.136 172.771 125.836 172.771 129.307C172.771 132.993 171.572 135.838 169.086 137.711C166.658 139.541 163.472 140.423 159.592 140.423H156.165V152.291H150.4V118.661ZM156.165 123.442V135.595H159.404C161.932 135.595 163.739 135.106 164.924 134.224L164.93 134.22C166.062 133.396 166.724 131.855 166.724 129.354C166.724 127.169 166.08 125.727 164.922 124.859L164.916 124.854C163.73 123.944 161.955 123.442 159.498 123.442H156.165Z" fill="#657EE4"/>
<path d="M227.176 120.079V126.261H233.138L232.484 130.9H227.176V144.975C227.176 146.194 227.386 146.957 227.693 147.385C227.992 147.734 228.53 147.979 229.476 147.979C230.301 147.979 231.287 147.699 232.45 147.073L233.011 146.771L235.269 150.706L234.774 151.049C233.034 152.254 231.057 152.854 228.866 152.854C226.643 152.854 224.818 152.219 223.478 150.879L223.466 150.867C222.157 149.488 221.551 147.552 221.551 145.163V130.9H217.235V126.261H221.551V120.752L227.176 120.079Z" fill="#657EE4"/>
<path d="M188.115 125.698C186.465 125.698 185.002 126.218 183.756 127.257C183.063 127.834 182.461 128.558 181.946 129.42L181.681 126.261H176.719V152.291H182.343V137.589C182.864 135.292 183.563 133.681 184.396 132.682C185.204 131.713 186.251 131.229 187.599 131.229C188.228 131.229 188.893 131.314 189.598 131.49L190.272 131.659L191.312 126.148L190.713 125.999C189.905 125.796 189.038 125.698 188.115 125.698Z" fill="#657EE4"/>
<path fill-rule="evenodd" clip-rule="evenodd" d="M197.503 127.445C199.284 126.271 201.399 125.698 203.818 125.698C207.449 125.698 210.337 126.917 212.389 129.405C214.453 131.87 215.449 135.177 215.449 139.252C215.449 141.891 214.998 144.252 214.079 146.32L214.078 146.323C213.155 148.367 211.81 149.983 210.042 151.15L210.035 151.155C208.256 152.296 206.159 152.854 203.771 152.854C200.138 152.854 197.237 151.634 195.154 149.148C193.089 146.683 192.093 143.375 192.093 139.299C192.093 136.661 192.543 134.315 193.463 132.277C194.385 130.203 195.73 128.584 197.503 127.445ZM199.54 132.56C198.576 133.981 198.046 136.194 198.046 139.299C198.046 142.389 198.572 144.591 199.528 146.004C200.454 147.371 201.831 148.073 203.771 148.073C205.709 148.073 207.087 147.369 208.013 145.993C208.969 144.572 209.496 142.358 209.496 139.252C209.496 136.162 208.973 133.959 208.024 132.546C207.106 131.178 205.74 130.478 203.818 130.478C201.861 130.478 200.472 131.184 199.54 132.56Z" fill="#657EE4"/>
<path fill-rule="evenodd" clip-rule="evenodd" d="M248.162 125.698C245.742 125.698 243.628 126.271 241.847 127.445C240.074 128.584 238.729 130.203 237.807 132.277C236.887 134.315 236.436 136.661 236.436 139.299C236.436 143.375 237.432 146.683 239.498 149.148C241.58 151.634 244.482 152.854 248.115 152.854C250.502 152.854 252.6 152.296 254.379 151.155L254.386 151.15C256.154 149.983 257.499 148.367 258.421 146.323L258.423 146.32C259.342 144.252 259.793 141.891 259.793 139.252C259.793 135.177 258.797 131.87 256.733 129.405C254.681 126.917 251.793 125.698 248.162 125.698ZM256.733 129.405L256.735 129.407L256.23 129.823L256.732 129.403L256.733 129.405ZM241.847 127.445L241.851 127.443L242.204 127.994L241.843 127.448L241.847 127.445ZM242.39 139.299C242.39 136.194 242.92 133.981 243.883 132.56C244.816 131.184 246.205 130.478 248.162 130.478C250.084 130.478 251.449 131.178 252.368 132.546C253.317 133.959 253.84 136.162 253.84 139.252C253.84 142.358 253.313 144.572 252.356 145.993C251.431 147.369 250.053 148.073 248.115 148.073C246.175 148.073 244.797 147.371 243.872 146.004C242.916 144.591 242.39 142.389 242.39 139.299Z" fill="#657EE4"/>
<path d="M272.323 126.91C273.738 126.101 275.289 125.698 276.963 125.698C279.351 125.698 281.291 126.415 282.693 127.92C284.118 129.416 284.795 131.439 284.795 133.905V152.291H279.17V134.514C279.17 132.809 278.843 131.783 278.356 131.25C277.859 130.706 277.091 130.384 275.931 130.384C274.752 130.384 273.734 130.718 272.852 131.379C271.97 132.041 271.116 133 270.3 134.281V152.291H264.675V126.261H269.626L269.895 128.886C270.606 128.101 271.413 127.442 272.317 126.913L272.323 126.91Z" fill="#657EE4"/>
</svg>
