<svg xmlns="http://www.w3.org/2000/svg" width="84" height="120" fill="none">
    <rect width="84" height="120" fill="url(#a)" rx="4" />
    <rect width="83" height="119" x=".5" y=".5" stroke="#6D4AFF" stroke-opacity=".2" rx="3.5" />
    <path
        fill="url(#b)"
        d="M10.003 13.9v2.078h1.457V13.99a.73.73 0 0 1 .728-.729h1.493a2.626 2.626 0 0 0 2.627-2.63A2.632 2.632 0 0 0 13.681 8h-3.678v2.597h1.457V9.372h2.123a1.243 1.243 0 0 1 1.243 1.245 1.246 1.246 0 0 1-1.243 1.245h-1.544a2.032 2.032 0 0 0-1.881 1.258 2.04 2.04 0 0 0-.155.78Z"
    />
    <path fill="url(#c)" d="M12.187 13.261a2.183 2.183 0 0 0-2.184 2.187v.53h1.457V13.99a.73.73 0 0 1 .727-.729Z" />
    <path fill="#6D4AFF" fill-opacity=".5" d="M60 12a1 1 0 0 1 1-1h14a1 1 0 1 1 0 2H61a1 1 0 0 1-1-1Z" />
    <rect width="68" height="35" x="8" y="24" fill="#6D4AFF" fill-opacity=".06" rx="4" />
    <rect width="67" height="34" x="8.5" y="24.5" stroke="#6D4AFF" stroke-opacity=".33" rx="3.5" />
    <path
        fill="#15006F"
        d="M14 29a1 1 0 1 1-2 0 1 1 0 0 1 2 0ZM18 29a1 1 0 1 1-2 0 1 1 0 0 1 2 0ZM22 29a1 1 0 1 1-2 0 1 1 0 0 1 2 0ZM26 29a1 1 0 1 1-2 0 1 1 0 0 1 2 0ZM34 29a1 1 0 1 1-2 0 1 1 0 0 1 2 0ZM38 29a1 1 0 1 1-2 0 1 1 0 0 1 2 0ZM42 29a1 1 0 1 1-2 0 1 1 0 0 1 2 0ZM46 29a1 1 0 1 1-2 0 1 1 0 0 1 2 0ZM50 29a1 1 0 1 1-2 0 1 1 0 0 1 2 0ZM54 29a1 1 0 1 1-2 0 1 1 0 0 1 2 0ZM58 29a1 1 0 1 1-2 0 1 1 0 0 1 2 0ZM14 34a1 1 0 1 1-2 0 1 1 0 0 1 2 0ZM18 34a1 1 0 1 1-2 0 1 1 0 0 1 2 0ZM22 34a1 1 0 1 1-2 0 1 1 0 0 1 2 0ZM30 34a1 1 0 1 1-2 0 1 1 0 0 1 2 0ZM34 34a1 1 0 1 1-2 0 1 1 0 0 1 2 0ZM38 34a1 1 0 1 1-2 0 1 1 0 0 1 2 0ZM42 34a1 1 0 1 1-2 0 1 1 0 0 1 2 0ZM46 34a1 1 0 1 1-2 0 1 1 0 0 1 2 0ZM50 34a1 1 0 1 1-2 0 1 1 0 0 1 2 0ZM14 39a1 1 0 1 1-2 0 1 1 0 0 1 2 0ZM18 39a1 1 0 1 1-2 0 1 1 0 0 1 2 0ZM22 39a1 1 0 1 1-2 0 1 1 0 0 1 2 0ZM26 39a1 1 0 1 1-2 0 1 1 0 0 1 2 0ZM30 39a1 1 0 1 1-2 0 1 1 0 0 1 2 0ZM34 39a1 1 0 1 1-2 0 1 1 0 0 1 2 0ZM42 39a1 1 0 1 1-2 0 1 1 0 0 1 2 0ZM46 39a1 1 0 1 1-2 0 1 1 0 0 1 2 0ZM50 39a1 1 0 1 1-2 0 1 1 0 0 1 2 0ZM54 39a1 1 0 1 1-2 0 1 1 0 0 1 2 0ZM14 44a1 1 0 1 1-2 0 1 1 0 0 1 2 0ZM18 44a1 1 0 1 1-2 0 1 1 0 0 1 2 0ZM22 44a1 1 0 1 1-2 0 1 1 0 0 1 2 0ZM26 44a1 1 0 1 1-2 0 1 1 0 0 1 2 0ZM34 44a1 1 0 1 1-2 0 1 1 0 0 1 2 0ZM38 44a1 1 0 1 1-2 0 1 1 0 0 1 2 0ZM42 44a1 1 0 1 1-2 0 1 1 0 0 1 2 0ZM46 44a1 1 0 1 1-2 0 1 1 0 0 1 2 0ZM50 44a1 1 0 1 1-2 0 1 1 0 0 1 2 0ZM54 44a1 1 0 1 1-2 0 1 1 0 0 1 2 0ZM14 49a1 1 0 1 1-2 0 1 1 0 0 1 2 0ZM18 49a1 1 0 1 1-2 0 1 1 0 0 1 2 0ZM22 49a1 1 0 1 1-2 0 1 1 0 0 1 2 0ZM26 49a1 1 0 1 1-2 0 1 1 0 0 1 2 0ZM34 49a1 1 0 1 1-2 0 1 1 0 0 1 2 0ZM38 49a1 1 0 1 1-2 0 1 1 0 0 1 2 0ZM42 49a1 1 0 1 1-2 0 1 1 0 0 1 2 0ZM46 49a1 1 0 1 1-2 0 1 1 0 0 1 2 0ZM50 49a1 1 0 1 1-2 0 1 1 0 0 1 2 0ZM54 49a1 1 0 1 1-2 0 1 1 0 0 1 2 0ZM58 49a1 1 0 1 1-2 0 1 1 0 0 1 2 0ZM14 54a1 1 0 1 1-2 0 1 1 0 0 1 2 0ZM18 54a1 1 0 1 1-2 0 1 1 0 0 1 2 0ZM22 54a1 1 0 1 1-2 0 1 1 0 0 1 2 0ZM26 54a1 1 0 1 1-2 0 1 1 0 0 1 2 0ZM30 54a1 1 0 1 1-2 0 1 1 0 0 1 2 0ZM38 54a1 1 0 1 1-2 0 1 1 0 0 1 2 0ZM42 54a1 1 0 1 1-2 0 1 1 0 0 1 2 0ZM46 54a1 1 0 1 1-2 0 1 1 0 0 1 2 0ZM50 54a1 1 0 1 1-2 0 1 1 0 0 1 2 0Z"
    />
    <rect width="68" height="8" x="8" y="63" fill="#6D4AFF" fill-opacity=".06" rx="4" />
    <rect width="67" height="7" x="8.5" y="63.5" stroke="#6D4AFF" stroke-opacity=".33" rx="3.5" />
    <path
        fill="#6D4AFF"
        fill-opacity=".25"
        d="M8 76a1 1 0 0 1 1-1h20.44a1 1 0 1 1 0 2H9a1 1 0 0 1-1-1ZM8 80a1 1 0 0 1 1-1h66a1 1 0 1 1 0 2H9a1 1 0 0 1-1-1ZM8 84a1 1 0 0 1 1-1h49a1 1 0 1 1 0 2H9a1 1 0 0 1-1-1Z"
    />
    <rect width="68" height="14" x="8" y="89" fill="#F5385A" fill-opacity=".06" rx="4" />
    <rect width="67" height="13" x="8.5" y="89.5" stroke="#F5385A" stroke-opacity=".33" rx="3.5" />
    <path
        fill="#F5385A"
        fill-opacity=".33"
        d="M12 94a1 1 0 0 1 1-1h29a1 1 0 1 1 0 2H13a1 1 0 0 1-1-1ZM12 98a1 1 0 0 1 1-1h58a1 1 0 1 1 0 2H13a1 1 0 0 1-1-1Z"
    />
    <path fill="#6D4AFF" fill-opacity=".25" d="M8 108a1 1 0 0 1 1-1h29a1 1 0 0 1 0 2H9a1 1 0 0 1-1-1Z" />
    <defs>
        <linearGradient id="a" x1="0" x2="84" y1="41.5" y2="83.5" gradientUnits="userSpaceOnUse">
            <stop stop-color="#F7F5FF" />
            <stop offset="1" stop-color="#FBFAFF" />
        </linearGradient>
        <linearGradient id="c" x1="11.095" x2="11.095" y1="15.585" y2="12.532" gradientUnits="userSpaceOnUse">
            <stop stop-color="#6D4BFD" />
            <stop offset="1" stop-color="#1C0554" />
        </linearGradient>
        <radialGradient
            id="b"
            cx="0"
            cy="0"
            r="1"
            gradientTransform="matrix(8.02049 0 0 8.03027 16.331 6.892)"
            gradientUnits="userSpaceOnUse"
        >
            <stop stop-color="#A995FF" />
            <stop offset="1" stop-color="#6652F5" />
        </radialGradient>
    </defs>
</svg>
