<svg width="32" height="32" viewBox="0 0 32 32" fill="none" xmlns="http://www.w3.org/2000/svg">
    <g clip-path="url(#clip0_6131_29061)">
        <path
            d="M28.0161 5.09974L17.3764 1.71303C16.4806 1.42899 15.5194 1.42899 14.6236 1.71303L3.98394 5.09974C3.43776 5.27453 3.0445 5.77708 3.02266 6.36702C2.86973 10.4529 3.13189 26.2939 15.7815 30.4672C15.9345 30.5109 16.0874 30.5109 16.2185 30.4672C28.8681 26.2939 29.1303 10.4529 28.9773 6.36702C28.9555 5.77708 28.5622 5.27453 28.0161 5.09974Z"
            fill="url(#paint0_linear_6131_29061)"
        />
        <path
            d="M16 21.5C19.3137 21.5 22 18.8137 22 15.5C22 12.1863 19.3137 9.5 16 9.5C12.6863 9.5 10 12.1863 10 15.5C10 18.8137 12.6863 21.5 16 21.5Z"
            fill="white"
        />
        <path
            fill-rule="evenodd"
            clip-rule="evenodd"
            d="M18.8804 13.6268C19.0399 13.7958 19.0399 14.0699 18.8804 14.2389L15.4516 17.8732C15.2922 18.0423 15.0336 18.0423 14.8741 17.8732L13.1196 16.0136C12.9601 15.8445 12.9601 15.5705 13.1196 15.4014C13.2791 15.2324 13.5377 15.2324 13.6971 15.4014L15.1629 16.955L18.3029 13.6268C18.4623 13.4577 18.7209 13.4577 18.8804 13.6268Z"
            fill="#372580"
        />
    </g>
    <defs>
        <linearGradient
            id="paint0_linear_6131_29061"
            x1="17.3474"
            y1="-0.614583"
            x2="17.4985"
            y2="30.5"
            gradientUnits="userSpaceOnUse"
        >
            <stop stop-color="#2AF091" />
            <stop offset="1" stop-color="#00C5A1" />
        </linearGradient>
        <clipPath id="clip0_6131_29061">
            <rect width="26" height="29" fill="white" transform="translate(3 1.5)" />
        </clipPath>
    </defs>
</svg>
