<svg xmlns="http://www.w3.org/2000/svg" width="134" height="185" fill="none" viewBox="0 0 134 185">
  <path fill="url(#paint0_linear_5741_18673)" d="M0 44c0-7.732 6.268-14 14-14h106c7.732 0 14 6.268 14 14v127c0 7.732-6.268 14-14 14H14c-7.732 0-14-6.268-14-14V44z"/>
  <mask id="a" width="134" height="33" x="0" y="152" maskUnits="userSpaceOnUse" style="mask-type:alpha">
    <path fill="#C4C4C4" d="M0 152h134v27a6 6 0 01-6 6H0v-33z"/>
  </mask>
  <g filter="url(#filter0_f_5741_18673)" mask="url(#a)" opacity=".6">
    <path fill="#221548" d="M12.5 178.822L10 165.857h113a18.384 18.384 0 01-17.567 12.965H12.5z"/>
  </g>
  <path fill="url(#paint1_linear_5741_18673)" d="M6 140a9 9 0 019-9h113v38c0 5.523-4.477 10-10 10H16c-5.523 0-10-4.477-10-10v-29z"/>
  <path fill="url(#paint2_linear_5741_18673)" d="M6 46c0-5.523 4.477-10 10-10h102c5.523 0 10 4.477 10 10v85l-47 48H16c-5.523 0-10-4.477-10-10V46z"/>
  <path fill="#BBB6AC" d="M45 117.5a1.5 1.5 0 011.5-1.5h40a1.5 1.5 0 010 3h-40a1.5 1.5 0 01-1.5-1.5zM50 125.5a1.5 1.5 0 011.5-1.5H59a1.5 1.5 0 010 3h-7.5a1.5 1.5 0 01-1.5-1.5zM64 125.5a1.5 1.5 0 011.5-1.5h16a1.5 1.5 0 010 3h-16a1.5 1.5 0 01-1.5-1.5z"/>
  <path fill="url(#paint3_linear_5741_18673)" d="M128 131l-47 48v-42a6 6 0 016-6h41z"/>
  <mask id="b" width="122" height="33" x="6" y="40" maskUnits="userSpaceOnUse" style="mask-type:alpha">
    <path fill="#C4C4C4" d="M6 40h122v27a6 6 0 01-6 6H6V40z"/>
  </mask>
  <g filter="url(#filter1_f_5741_18673)" mask="url(#b)" opacity=".4">
    <path fill="#4B25BB" d="M31 49V36h73v13H31z"/>
  </g>
  <path fill="url(#paint4_linear_5741_18673)" d="M66.986 0C59.25 0 53 6.27 53 13.965V33h28V13.965C81 6.27 74.72 0 66.986 0zm0 20.377a6.123 6.123 0 01-6.137-6.127 6.123 6.123 0 016.137-6.128 6.123 6.123 0 016.136 6.128 6.123 6.123 0 01-6.136 6.127z"/>
  <path fill="url(#paint5_linear_5741_18673)" d="M107.971 47H26V31.89c0-4.9 3.891-8.89 8.733-8.89h64.534c4.813 0 8.733 3.96 8.733 8.89V47h-.029z"/>
  <path fill="#8674F2" d="M26 44h82v3H26z"/>
  <path fill="url(#paint6_linear_5741_18673)" d="M26.029 34H108v-2.11c0-4.9-3.891-8.89-8.733-8.89H34.733C29.92 23 26 26.96 26 31.89V34h.029z"/>
  <g>
    <path fill="#BBB6AC" d="M66.69 83.167a8.084 8.084 0 100-16.167 8.084 8.084 0 000 16.167zM55.486 106c-4.822 0-8.084-5.247-5.673-9.36 3.262-5.956 9.644-10.069 17.019-10.069 7.374 0 13.614 3.971 17.018 10.07 2.41 4.254-.851 9.359-5.673 9.359h-22.69z"/>
  </g>
  <defs>
    <linearGradient id="paint0_linear_5741_18673" x1="67" x2="67" y1="20" y2="185" gradientUnits="userSpaceOnUse">
      <stop stop-color="#E8916C"/>
      <stop offset="1" stop-color="#CE775B"/>
    </linearGradient>
    <linearGradient id="paint1_linear_5741_18673" x1="71.5" x2="169" y1="168" y2="138.5" gradientUnits="userSpaceOnUse">
      <stop stop-color="#C9C5BD"/>
      <stop offset="1" stop-color="#F9F6F0"/>
    </linearGradient>
    <linearGradient id="paint2_linear_5741_18673" x1="108.5" x2="49.892" y1="241" y2="43.057" gradientUnits="userSpaceOnUse">
      <stop stop-color="#E2DFD9"/>
      <stop offset="1" stop-color="#F9F9F9"/>
    </linearGradient>
    <linearGradient id="paint3_linear_5741_18673" x1="114" x2="96.302" y1="171.5" y2="136.098" gradientUnits="userSpaceOnUse">
      <stop stop-color="#E2DFD9"/>
      <stop offset="1" stop-color="#fff"/>
    </linearGradient>
    <linearGradient id="paint4_linear_5741_18673" x1="67" x2="67" y1="-1" y2="26" gradientUnits="userSpaceOnUse">
      <stop stop-color="#B6B8FF"/>
      <stop offset="1" stop-color="#8365FF"/>
    </linearGradient>
    <linearGradient id="paint5_linear_5741_18673" x1="67" x2="67" y1="23" y2="47" gradientUnits="userSpaceOnUse">
      <stop stop-color="#D6EEF9"/>
      <stop offset="1" stop-color="#969BFF"/>
    </linearGradient>
    <linearGradient id="paint6_linear_5741_18673" x1="57" x2="67" y1="16" y2="34" gradientUnits="userSpaceOnUse">
      <stop stop-color="#fff"/>
      <stop offset="1" stop-color="#fff" stop-opacity="0"/>
    </linearGradient>
    <filter id="filter0_f_5741_18673" width="146.393" height="46.357" x="-6.696" y="149.161" color-interpolation-filters="sRGB" filterUnits="userSpaceOnUse">
      <feFlood flood-opacity="0" result="BackgroundImageFix"/>
      <feBlend in="SourceGraphic" in2="BackgroundImageFix" result="shape"/>
      <feGaussianBlur result="effect1_foregroundBlur_5741_18673" stdDeviation="8.348"/>
    </filter>
    <filter id="filter1_f_5741_18673" width="85" height="25" x="25" y="30" color-interpolation-filters="sRGB" filterUnits="userSpaceOnUse">
      <feFlood flood-opacity="0" result="BackgroundImageFix"/>
      <feBlend in="SourceGraphic" in2="BackgroundImageFix" result="shape"/>
      <feGaussianBlur result="effect1_foregroundBlur_5741_18673" stdDeviation="3"/>
    </filter>
  </defs>
</svg>
