<svg xmlns="http://www.w3.org/2000/svg" width="168" height="133" fill="none">
    <g filter="url(#a)">
        <path
            fill="#D9D8D9"
            d="M24.381 82.16 6.995 115.72c-1.372 2.648.532 5.812 3.515 5.839l97.089.887c2.828.026 4.789-2.811 3.765-5.447L97.991 82.552A4 4 0 0 0 94.262 80h-66.33a4 4 0 0 0-3.551 2.16Z"
        />
    </g>
    <g filter="url(#b)">
        <path
            fill="#CFCFCF"
            fill-opacity=".7"
            d="m150.076 54.758 10.97 43a3 3 0 0 1-2.907 3.742h-103.2a3 3 0 0 1-2.893-3.797l11.847-43a3 3 0 0 1 2.892-2.203h80.384a3 3 0 0 1 2.907 2.258Z"
            shape-rendering="crispEdges"
        />
    </g>
    <g filter="url(#c)">
        <path
            fill="#EBEBEC"
            d="m16.464 64.595 8.182-60A3 3 0 0 1 27.62 2h93.301a3 3 0 0 1 2.966 2.55l9.091 60a3 3 0 0 1-2.966 3.45H19.437a3 3 0 0 1-2.973-3.405Z"
        />
    </g>
    <defs>
        <filter
            id="a"
            width="117.098"
            height="54.446"
            x=".541"
            y="78"
            color-interpolation-filters="sRGB"
            filterUnits="userSpaceOnUse"
        >
            <feFlood flood-opacity="0" result="BackgroundImageFix" />
            <feColorMatrix in="SourceAlpha" result="hardAlpha" values="0 0 0 0 0 0 0 0 0 0 0 0 0 0 0 0 0 0 127 0" />
            <feOffset dy="4" />
            <feGaussianBlur stdDeviation="3" />
            <feComposite in2="hardAlpha" operator="out" />
            <feColorMatrix values="0 0 0 0 0 0 0 0 0 0 0 0 0 0 0 0 0 0 0.04 0" />
            <feBlend in2="BackgroundImageFix" result="effect1_dropShadow_11000_305438" />
            <feBlend in="SourceGraphic" in2="effect1_dropShadow_11000_305438" result="shape" />
        </filter>
        <filter
            id="b"
            width="121.204"
            height="61"
            x="45.937"
            y="50.5"
            color-interpolation-filters="sRGB"
            filterUnits="userSpaceOnUse"
        >
            <feFlood flood-opacity="0" result="BackgroundImageFix" />
            <feColorMatrix in="SourceAlpha" result="hardAlpha" values="0 0 0 0 0 0 0 0 0 0 0 0 0 0 0 0 0 0 127 0" />
            <feOffset dy="4" />
            <feGaussianBlur stdDeviation="3" />
            <feComposite in2="hardAlpha" operator="out" />
            <feColorMatrix values="0 0 0 0 0 0 0 0 0 0 0 0 0 0 0 0 0 0 0.05 0" />
            <feBlend in2="BackgroundImageFix" result="effect1_dropShadow_11000_305438" />
            <feBlend in="SourceGraphic" in2="effect1_dropShadow_11000_305438" result="shape" />
        </filter>
        <filter
            id="c"
            width="128.576"
            height="78"
            x="10.436"
            y="0"
            color-interpolation-filters="sRGB"
            filterUnits="userSpaceOnUse"
        >
            <feFlood flood-opacity="0" result="BackgroundImageFix" />
            <feColorMatrix in="SourceAlpha" result="hardAlpha" values="0 0 0 0 0 0 0 0 0 0 0 0 0 0 0 0 0 0 127 0" />
            <feOffset dy="4" />
            <feGaussianBlur stdDeviation="3" />
            <feComposite in2="hardAlpha" operator="out" />
            <feColorMatrix values="0 0 0 0 0 0 0 0 0 0 0 0 0 0 0 0 0 0 0.04 0" />
            <feBlend in2="BackgroundImageFix" result="effect1_dropShadow_11000_305438" />
            <feBlend in="SourceGraphic" in2="effect1_dropShadow_11000_305438" result="shape" />
        </filter>
    </defs>
</svg>
