<svg width="172" height="124" viewBox="0 0 172 124" fill="none" xmlns="http://www.w3.org/2000/svg">
    <path
        d="M24 22C24 19.7909 25.7909 18 28 18H144C146.209 18 148 19.7909 148 22V102H24V22Z"
        fill="url(#paint0_linear_46044_4281)"
        fill-opacity="0.75"
    />
    <path
        d="M28 23C28 22.4477 28.4477 22 29 22H143C143.552 22 144 22.4477 144 23V102H28V23Z"
        fill="url(#paint1_linear_46044_4281)"
    />
    <path
        d="M87.0001 82.2C97.6042 82.2 106.2 73.6039 106.2 63C106.2 52.3961 97.6042 43.8 87.0001 43.8C76.3961 43.8 67.7998 52.3961 67.7998 63C67.7998 73.6039 76.3961 82.2 87.0001 82.2Z"
        fill="white"
    />
    <path
        d="M87.0001 82.2C97.6042 82.2 106.2 73.6039 106.2 63C106.2 52.3961 97.6042 43.8 87.0001 43.8C76.3961 43.8 67.7998 52.3961 67.7998 63C67.7998 73.6039 76.3961 82.2 87.0001 82.2Z"
        fill="url(#paint2_linear_46044_4281)"
        fill-opacity="0.25"
    />
    <path
        d="M87.0005 70.2001C92.4909 70.2003 97.4426 72.5055 100.942 76.2001C97.4426 79.8947 92.4909 82.2 87.0005 82.2001C81.5098 82.2001 76.5575 79.8948 73.0581 76.2001C76.5575 72.5054 81.5098 70.2001 87.0005 70.2001ZM86.9995 52.1191C90.976 52.1191 94.1997 55.3428 94.1997 59.3193C94.1996 63.2956 90.9759 66.5195 86.9995 66.5195C83.0232 66.5193 79.7994 63.2956 79.7993 59.3193C79.7993 55.3429 83.0232 52.1192 86.9995 52.1191Z"
        fill="url(#paint3_linear_46044_4281)"
    />
    <g opacity="0.2" filter="url(#filter0_f_46044_4281)">
        <path
            d="M93.792 45.0377C98.9315 46.9818 103.017 51.0675 104.962 56.2066C103.88 56.714 102.674 56.9995 101.4 56.9996C96.7612 56.9996 93.0001 53.2393 93 48.6002C93 47.3264 93.2846 46.1193 93.792 45.0377Z"
            fill="#251953"
        />
    </g>
    <path
        d="M111 47C111 42.5817 107.418 39 103 39C98.5817 39 95 42.5817 95 47C95 51.4183 98.5817 55 103 55C107.418 55 111 51.4183 111 47Z"
        fill="url(#paint4_linear_46044_4281)"
    />
    <g filter="url(#filter1_d_46044_4281)">
        <path
            d="M102 42C102 41.4477 102.448 41 103 41C103.552 41 104 41.4477 104 42V48C104 48.5523 103.552 49 103 49C102.448 49 102 48.5523 102 48V42Z"
            fill="url(#paint5_linear_46044_4281)"
        />
        <path
            d="M104 51C104 51.5523 103.552 52 103 52C102.448 52 102 51.5523 102 51C102 50.4477 102.448 50 103 50C103.552 50 104 50.4477 104 51Z"
            fill="url(#paint6_linear_46044_4281)"
        />
    </g>
    <path
        d="M159.678 108H13.3218C12.0193 108 11 106.971 11 105.657V104.343C11 103.029 12.0193 102 13.3218 102H159.678C160.981 102 162 103.029 162 104.343V105.657C162 106.971 160.924 108 159.678 108Z"
        fill="url(#paint7_linear_46044_4281)"
    />
    <path d="M94 105L79 105C77 105 76 104 76 102H97C97 104 96 105 94 105Z" fill="white" />
    <path
        d="M33.8545 36C37.2685 36.0002 40 38.8888 40 42.415V101.548C40.0357 105.111 37.2684 108 33.8545 108H6.14551C2.76739 108 0.000182809 105.112 0 101.548V42.415C0 38.8887 2.76728 36 6.14551 36H33.8545ZM29 39.7461C28.5556 40.7711 27.5183 41.4541 26.4072 41.4541H13.5557C12.4446 41.4541 11.4444 40.7711 10.9629 39.7461L10.2227 38.0381H6.37012C3.96283 38.0382 2 40.0501 2 42.5176V101.521C2.00003 103.988 3.96284 106 6.37012 106H33.6299C36.0372 106 38 103.988 38 101.521V42.4795C37.9629 40.0121 36.0372 38.0001 33.6299 38H29.7773L29 39.7461Z"
        fill="white"
    />
    <path
        d="M33.8545 36C37.2685 36.0002 40 38.8888 40 42.415V101.548C40.0357 105.111 37.2684 108 33.8545 108H6.14551C2.76739 108 0.000182809 105.112 0 101.548V42.415C0 38.8887 2.76728 36 6.14551 36H33.8545ZM29 39.7461C28.5556 40.7711 27.5183 41.4541 26.4072 41.4541H13.5557C12.4446 41.4541 11.4444 40.7711 10.9629 39.7461L10.2227 38.0381H6.37012C3.96283 38.0382 2 40.0501 2 42.5176V101.521C2.00003 103.988 3.96284 106 6.37012 106H33.6299C36.0372 106 38 103.988 38 101.521V42.4795C37.9629 40.0121 36.0372 38.0001 33.6299 38H29.7773L29 39.7461Z"
        fill="url(#paint8_linear_46044_4281)"
        fill-opacity="0.75"
    />
    <path
        d="M33.6296 38H29.7778L29 39.7463C28.5556 40.7712 27.5185 41.4546 26.4074 41.4546H13.5556C12.4444 41.4546 11.4444 40.7712 10.963 39.7463L10.2222 38.038H6.37037C3.96296 38.038 2 40.05 2 42.5175V101.52C2 103.988 3.96296 106 6.37037 106H33.6296C36.037 106 38 103.988 38 101.52V42.4795C37.963 40.012 36.037 38 33.6296 38Z"
        fill="url(#paint9_linear_46044_4281)"
    />
    <g clip-path="url(#clip0_46044_4281)">
        <path
            d="M20 83.2C26.1857 83.2 31.2002 78.1856 31.2002 72C31.2002 65.8144 26.1857 60.8 20 60.8C13.8143 60.8 8.7998 65.8144 8.7998 72C8.7998 78.1856 13.8143 83.2 20 83.2Z"
            fill="white"
        />
        <path
            d="M20 83.2C26.1857 83.2 31.2002 78.1856 31.2002 72C31.2002 65.8144 26.1857 60.8 20 60.8C13.8143 60.8 8.7998 65.8144 8.7998 72C8.7998 78.1856 13.8143 83.2 20 83.2Z"
            fill="url(#paint10_linear_46044_4281)"
            fill-opacity="0.25"
        />
        <path
            d="M20.0005 76.2001C23.2021 76.2003 26.0873 77.5463 28.1284 79.7001C26.0873 81.854 23.2021 83.2 20.0005 83.2001C16.7987 83.2001 13.9128 81.8541 11.8716 79.7001C13.9128 77.5461 16.7987 76.2001 20.0005 76.2001ZM19.9995 65.6533C22.319 65.6533 24.1995 67.533 24.1997 69.8525C24.1997 72.1721 22.3191 74.0527 19.9995 74.0527C17.68 74.0525 15.7993 72.172 15.7993 69.8525C15.7995 67.5331 17.6802 65.6534 19.9995 65.6533Z"
            fill="url(#paint11_linear_46044_4281)"
        />
        <g opacity="0.2" filter="url(#filter2_f_46044_4281)">
            <path
                d="M23.9609 61.524C26.9591 62.658 29.342 65.0398 30.4766 68.0377C29.846 68.3332 29.1428 68.4995 28.4004 68.4996C25.6942 68.4996 23.5001 66.3063 23.5 63.6002C23.5 62.858 23.6656 62.1544 23.9609 61.524Z"
                fill="#4A161C"
            />
        </g>
        <path
            d="M34 62.6667C34 60.0893 31.9107 58 29.3333 58C26.756 58 24.6667 60.0893 24.6667 62.6667C24.6667 65.244 26.756 67.3333 29.3333 67.3333C31.9107 67.3333 34 65.244 34 62.6667Z"
            fill="url(#paint12_linear_46044_4281)"
        />
        <g filter="url(#filter3_d_46044_4281)">
            <path
                d="M28.75 59.75C28.75 59.4279 29.0112 59.1667 29.3333 59.1667C29.6555 59.1667 29.9167 59.4279 29.9167 59.75V63.25C29.9167 63.5722 29.6555 63.8334 29.3333 63.8334C29.0112 63.8334 28.75 63.5722 28.75 63.25V59.75Z"
                fill="url(#paint13_linear_46044_4281)"
            />
            <path
                d="M29.9167 65C29.9167 65.3222 29.6555 65.5834 29.3333 65.5834C29.0112 65.5834 28.75 65.3222 28.75 65C28.75 64.6779 29.0112 64.4167 29.3333 64.4167C29.6555 64.4167 29.9167 64.6779 29.9167 65Z"
                fill="url(#paint14_linear_46044_4281)"
            />
        </g>
    </g>
    <path
        d="M122 22C122 9.84974 131.85 0 144 0C156.15 0 166 9.84974 166 22C166 34.1503 156.15 44 144 44H122V22Z"
        fill="url(#paint15_linear_46044_4281)"
    />
    <path
        d="M148.625 15.7942C148.625 13.0403 146.555 10.8079 144.001 10.8079C141.448 10.8079 139.377 13.0403 139.377 15.7942V18.434H137.202V15.7942C137.202 11.7444 140.246 8.46143 144.001 8.46143C147.756 8.46143 150.801 11.7444 150.801 15.7942V18.434H148.625V15.7942Z"
        fill="url(#paint16_linear_46044_4281)"
    />
    <g filter="url(#filter4_d_46044_4281)">
        <path
            d="M133.802 19.4919C133.802 17.4891 135.425 15.8655 137.428 15.8655H150.574C152.577 15.8655 154.2 17.4891 154.2 19.4919V30.2199C154.2 32.2227 152.577 33.8463 150.574 33.8463H137.428C135.425 33.8463 133.802 32.2227 133.802 30.2199V19.4919Z"
            fill="url(#paint17_linear_46044_4281)"
        />
    </g>
    <path
        d="M143.822 22.1382C144.719 22.1382 145.446 22.8927 145.446 23.8233C145.446 24.527 145.03 25.1294 144.439 25.3816L144.789 27.3737C144.849 27.7185 144.594 28.0358 144.256 28.0358H143.387C143.05 28.0358 142.794 27.7185 142.854 27.3737L143.203 25.3816C142.613 25.1293 142.197 24.5268 142.197 23.8233C142.197 22.8927 142.924 22.1382 143.822 22.1382Z"
        fill="url(#paint18_linear_46044_4281)"
    />
    <path
        d="M145.448 23.8227C145.448 22.8921 144.721 22.1377 143.823 22.1377C142.926 22.1377 142.198 22.8921 142.198 23.8227C142.198 24.5263 142.614 25.1287 143.205 25.381L142.856 27.3732C142.795 27.7179 143.051 28.0353 143.389 28.0353H144.257C144.595 28.0353 144.851 27.7179 144.791 27.3732L144.441 25.381C145.032 25.1289 145.448 24.5264 145.448 23.8227ZM145.99 23.8227C145.99 24.595 145.613 25.2738 145.043 25.6778L145.323 27.2728H145.324C145.444 27.9626 144.933 28.5969 144.257 28.5969H143.389C142.714 28.5969 142.202 27.9626 142.323 27.2728L142.602 25.6772C142.032 25.2731 141.657 24.5943 141.657 23.8227C141.657 22.5819 142.627 21.576 143.823 21.576C145.02 21.576 145.99 22.5819 145.99 23.8227Z"
        fill="url(#paint19_linear_46044_4281)"
    />
    <defs>
        <filter
            id="filter0_f_46044_4281"
            x="89"
            y="41.0377"
            width="19.9619"
            height="19.9619"
            filterUnits="userSpaceOnUse"
            color-interpolation-filters="sRGB"
        >
            <feFlood flood-opacity="0" result="BackgroundImageFix" />
            <feBlend mode="normal" in="SourceGraphic" in2="BackgroundImageFix" result="shape" />
            <feGaussianBlur stdDeviation="2" result="effect1_foregroundBlur_46044_4281" />
        </filter>
        <filter
            id="filter1_d_46044_4281"
            x="98"
            y="39"
            width="10"
            height="19"
            filterUnits="userSpaceOnUse"
            color-interpolation-filters="sRGB"
        >
            <feFlood flood-opacity="0" result="BackgroundImageFix" />
            <feColorMatrix
                in="SourceAlpha"
                type="matrix"
                values="0 0 0 0 0 0 0 0 0 0 0 0 0 0 0 0 0 0 127 0"
                result="hardAlpha"
            />
            <feOffset dy="2" />
            <feGaussianBlur stdDeviation="2" />
            <feComposite in2="hardAlpha" operator="out" />
            <feColorMatrix type="matrix" values="0 0 0 0 0.956863 0 0 0 0 0.568627 0 0 0 0 0.592157 0 0 0 1 0" />
            <feBlend mode="normal" in2="BackgroundImageFix" result="effect1_dropShadow_46044_4281" />
            <feBlend mode="normal" in="SourceGraphic" in2="effect1_dropShadow_46044_4281" result="shape" />
        </filter>
        <filter
            id="filter2_f_46044_4281"
            x="19.5"
            y="57.524"
            width="14.9766"
            height="14.9756"
            filterUnits="userSpaceOnUse"
            color-interpolation-filters="sRGB"
        >
            <feFlood flood-opacity="0" result="BackgroundImageFix" />
            <feBlend mode="normal" in="SourceGraphic" in2="BackgroundImageFix" result="shape" />
            <feGaussianBlur stdDeviation="2" result="effect1_foregroundBlur_46044_4281" />
        </filter>
        <filter
            id="filter3_d_46044_4281"
            x="24.75"
            y="57.1667"
            width="9.1665"
            height="14.4167"
            filterUnits="userSpaceOnUse"
            color-interpolation-filters="sRGB"
        >
            <feFlood flood-opacity="0" result="BackgroundImageFix" />
            <feColorMatrix
                in="SourceAlpha"
                type="matrix"
                values="0 0 0 0 0 0 0 0 0 0 0 0 0 0 0 0 0 0 127 0"
                result="hardAlpha"
            />
            <feOffset dy="2" />
            <feGaussianBlur stdDeviation="2" />
            <feComposite in2="hardAlpha" operator="out" />
            <feColorMatrix type="matrix" values="0 0 0 0 0.956863 0 0 0 0 0.568627 0 0 0 0 0.592157 0 0 0 1 0" />
            <feBlend mode="normal" in2="BackgroundImageFix" result="effect1_dropShadow_46044_4281" />
            <feBlend mode="normal" in="SourceGraphic" in2="effect1_dropShadow_46044_4281" result="shape" />
        </filter>
        <filter
            id="filter4_d_46044_4281"
            x="129.802"
            y="13.8655"
            width="28.3984"
            height="25.9808"
            filterUnits="userSpaceOnUse"
            color-interpolation-filters="sRGB"
        >
            <feFlood flood-opacity="0" result="BackgroundImageFix" />
            <feColorMatrix
                in="SourceAlpha"
                type="matrix"
                values="0 0 0 0 0 0 0 0 0 0 0 0 0 0 0 0 0 0 127 0"
                result="hardAlpha"
            />
            <feOffset dy="2" />
            <feGaussianBlur stdDeviation="2" />
            <feComposite in2="hardAlpha" operator="out" />
            <feColorMatrix type="matrix" values="0 0 0 0 0.972549 0 0 0 0 0.662745 0 0 0 0 0.47451 0 0 0 1 0" />
            <feBlend mode="normal" in2="BackgroundImageFix" result="effect1_dropShadow_46044_4281" />
            <feBlend mode="normal" in="SourceGraphic" in2="effect1_dropShadow_46044_4281" result="shape" />
        </filter>
        <linearGradient
            id="paint0_linear_46044_4281"
            x1="96.5"
            y1="8"
            x2="128"
            y2="102.5"
            gradientUnits="userSpaceOnUse"
        >
            <stop stop-color="#5A40BF" />
            <stop offset="1" stop-color="#311E71" />
        </linearGradient>
        <linearGradient
            id="paint1_linear_46044_4281"
            x1="86.4998"
            y1="23.5"
            x2="88.9935"
            y2="102.421"
            gradientUnits="userSpaceOnUse"
        >
            <stop stop-color="white" />
            <stop offset="1" stop-color="#F2EBFF" />
        </linearGradient>
        <linearGradient
            id="paint2_linear_46044_4281"
            x1="88.8463"
            y1="30.8769"
            x2="99.5538"
            y2="79.9847"
            gradientUnits="userSpaceOnUse"
        >
            <stop stop-color="#C495F4" />
            <stop offset="1" stop-color="#6D4AFF" />
        </linearGradient>
        <linearGradient
            id="paint3_linear_46044_4281"
            x1="88.3406"
            y1="41.9956"
            x2="97.3228"
            y2="80.1808"
            gradientUnits="userSpaceOnUse"
        >
            <stop stop-color="#ECAAFF" />
            <stop offset="1" stop-color="#6A48F6" />
        </linearGradient>
        <linearGradient id="paint4_linear_46044_4281" x1="103" y1="39" x2="103" y2="55" gradientUnits="userSpaceOnUse">
            <stop stop-color="#F7C4C6" />
            <stop offset="1" stop-color="#F78647" />
        </linearGradient>
        <linearGradient
            id="paint5_linear_46044_4281"
            x1="102.875"
            y1="43.4586"
            x2="99.418"
            y2="44.9769"
            gradientUnits="userSpaceOnUse"
        >
            <stop stop-color="white" />
            <stop offset="1" stop-color="#FFDBD0" />
        </linearGradient>
        <linearGradient
            id="paint6_linear_46044_4281"
            x1="102.875"
            y1="43.4586"
            x2="99.418"
            y2="44.9769"
            gradientUnits="userSpaceOnUse"
        >
            <stop stop-color="white" />
            <stop offset="1" stop-color="#FFDBD0" />
        </linearGradient>
        <linearGradient
            id="paint7_linear_46044_4281"
            x1="162"
            y1="105"
            x2="36.7845"
            y2="105.391"
            gradientUnits="userSpaceOnUse"
        >
            <stop stop-color="#E1DBFA" />
            <stop offset="1" stop-color="#BDB3E6" />
        </linearGradient>
        <linearGradient
            id="paint8_linear_46044_4281"
            x1="20"
            y1="28.5"
            x2="50.5444"
            y2="95.9344"
            gradientUnits="userSpaceOnUse"
        >
            <stop stop-color="#5A40BF" />
            <stop offset="1" stop-color="#311E71" />
        </linearGradient>
        <linearGradient
            id="paint9_linear_46044_4281"
            x1="20.1578"
            y1="38.4304"
            x2="25.9713"
            y2="105.93"
            gradientUnits="userSpaceOnUse"
        >
            <stop stop-color="white" />
            <stop offset="1" stop-color="#F2EBFF" />
        </linearGradient>
        <linearGradient
            id="paint10_linear_46044_4281"
            x1="21.0769"
            y1="53.2615"
            x2="27.323"
            y2="81.9077"
            gradientUnits="userSpaceOnUse"
        >
            <stop stop-color="#C495F4" />
            <stop offset="1" stop-color="#6D4AFF" />
        </linearGradient>
        <linearGradient
            id="paint11_linear_46044_4281"
            x1="20.7816"
            y1="59.7481"
            x2="26.0235"
            y2="82.021"
            gradientUnits="userSpaceOnUse"
        >
            <stop stop-color="#ECAAFF" />
            <stop offset="1" stop-color="#6A48F6" />
        </linearGradient>
        <linearGradient
            id="paint12_linear_46044_4281"
            x1="29.3333"
            y1="58"
            x2="29.3333"
            y2="67.3333"
            gradientUnits="userSpaceOnUse"
        >
            <stop stop-color="#F7C4C6" />
            <stop offset="1" stop-color="#F78647" />
        </linearGradient>
        <linearGradient
            id="paint13_linear_46044_4281"
            x1="29.2607"
            y1="60.6009"
            x2="27.2439"
            y2="61.4866"
            gradientUnits="userSpaceOnUse"
        >
            <stop stop-color="white" />
            <stop offset="1" stop-color="#FFDBD0" />
        </linearGradient>
        <linearGradient
            id="paint14_linear_46044_4281"
            x1="29.2607"
            y1="60.6009"
            x2="27.2439"
            y2="61.4866"
            gradientUnits="userSpaceOnUse"
        >
            <stop stop-color="white" />
            <stop offset="1" stop-color="#FFDBD0" />
        </linearGradient>
        <linearGradient
            id="paint15_linear_46044_4281"
            x1="161.346"
            y1="4.23077"
            x2="120.513"
            y2="42.4096"
            gradientUnits="userSpaceOnUse"
        >
            <stop stop-color="#F9D0B3" />
            <stop offset="1" stop-color="#F78647" />
        </linearGradient>
        <linearGradient
            id="paint16_linear_46044_4281"
            x1="151.481"
            y1="6.55491"
            x2="139.23"
            y2="17.5087"
            gradientUnits="userSpaceOnUse"
        >
            <stop stop-color="#FEF5ED" />
            <stop offset="1" stop-color="#FCECDE" />
        </linearGradient>
        <linearGradient
            id="paint17_linear_46044_4281"
            x1="142.731"
            y1="19.8844"
            x2="137.787"
            y2="33.4312"
            gradientUnits="userSpaceOnUse"
        >
            <stop stop-color="white" />
            <stop offset="1" stop-color="#FFDBD0" />
        </linearGradient>
        <linearGradient
            id="paint18_linear_46044_4281"
            x1="143.822"
            y1="22.1382"
            x2="143.822"
            y2="27.0319"
            gradientUnits="userSpaceOnUse"
        >
            <stop stop-color="#CC8366" />
            <stop offset="1" stop-color="#F8A979" />
        </linearGradient>
        <linearGradient
            id="paint19_linear_46044_4281"
            x1="145.448"
            y1="21.2952"
            x2="140.731"
            y2="25.2739"
            gradientUnits="userSpaceOnUse"
        >
            <stop stop-color="#F8A979" />
            <stop offset="1" stop-color="white" />
        </linearGradient>
        <clipPath id="clip0_46044_4281">
            <rect width="28" height="28" fill="white" transform="translate(6 58)" />
        </clipPath>
    </defs>
</svg>
