<svg width="416" height="164" viewBox="0 0 416 164" fill="none" xmlns="http://www.w3.org/2000/svg">
<g clip-path="url(#clip0_22611_222945)">
<rect width="416" height="164" rx="12" fill="white"/>
<rect width="416" height="164" rx="12" fill="url(#paint0_linear_22611_222945)" fill-opacity="0.08"/>
<g filter="url(#filter0_ddd_22611_222945)">
<path d="M78 40.5H338C342.142 40.5 345.5 43.8579 345.5 48V70C345.5 74.1421 342.142 77.5 338 77.5H78C73.8579 77.5 70.5 74.1421 70.5 70V48C70.5 43.8579 73.8579 40.5 78 40.5Z" stroke="#E2DBFF"/>
</g>
<path d="M103.247 59.4062C103.247 58.0739 104.097 57.3182 105.256 57.3182C106.359 57.3182 107.026 58.0142 107.026 59.2273V64H108.199V59.1477C108.199 57.1839 107.155 56.2642 105.594 56.2642C104.391 56.2642 103.705 56.7663 103.347 57.5568H103.247V53.8182H102.074V64H103.247V59.4062ZM113.666 56.3636H112.036V54.5341H110.862V56.3636H109.709V57.358H110.862V62.1307C110.862 63.4631 111.936 64.0994 112.931 64.0994C113.368 64.0994 113.646 64.0199 113.806 63.9602L113.567 62.9062C113.468 62.9261 113.308 62.9659 113.05 62.9659C112.533 62.9659 112.036 62.8068 112.036 61.8125V57.358H113.666V56.3636ZM118.752 56.3636H117.122V54.5341H115.948V56.3636H114.795V57.358H115.948V62.1307C115.948 63.4631 117.022 64.0994 118.017 64.0994C118.454 64.0994 118.732 64.0199 118.892 63.9602L118.653 62.9062C118.553 62.9261 118.394 62.9659 118.136 62.9659C117.619 62.9659 117.122 62.8068 117.122 61.8125V57.358H118.752V56.3636ZM120.517 66.8636H121.691V62.8267H121.79C122.048 63.2443 122.546 64.1591 124.017 64.1591C125.926 64.1591 127.259 62.6278 127.259 60.2017C127.259 57.7955 125.926 56.2642 123.997 56.2642C122.506 56.2642 122.048 57.179 121.79 57.5767H121.651V56.3636H120.517V66.8636ZM121.671 60.1818C121.671 58.4716 122.426 57.3182 123.858 57.3182C125.35 57.3182 126.085 58.571 126.085 60.1818C126.085 61.8125 125.33 63.1051 123.858 63.1051C122.446 63.1051 121.671 61.9119 121.671 60.1818ZM134.458 58.0739C134.09 56.9901 133.264 56.2642 131.753 56.2642C130.142 56.2642 128.949 57.179 128.949 58.4716C128.949 59.5256 129.575 60.2315 130.977 60.5597L132.25 60.858C133.021 61.0369 133.384 61.4048 133.384 61.9318C133.384 62.5881 132.688 63.125 131.594 63.125C130.634 63.125 130.033 62.7124 129.824 61.892L128.71 62.1705C128.984 63.468 130.053 64.1591 131.614 64.1591C133.389 64.1591 134.597 63.1896 134.597 61.8722C134.597 60.8082 133.931 60.1371 132.568 59.804L131.435 59.5256C130.53 59.3018 130.122 58.9986 130.122 58.4119C130.122 57.7557 130.818 57.2784 131.753 57.2784C132.777 57.2784 133.2 57.8452 133.404 58.3722L134.458 58.0739ZM137.218 64.0795C137.71 64.0795 138.113 63.6768 138.113 63.1847C138.113 62.6925 137.71 62.2898 137.218 62.2898C136.726 62.2898 136.323 62.6925 136.323 63.1847C136.323 63.6768 136.726 64.0795 137.218 64.0795ZM137.218 58.4119C137.71 58.4119 138.113 58.0092 138.113 57.517C138.113 57.0249 137.71 56.6222 137.218 56.6222C136.726 56.6222 136.323 57.0249 136.323 57.517C136.323 58.0092 136.726 58.4119 137.218 58.4119ZM143.818 53.3409H142.744L139.463 65.5312H140.537L143.818 53.3409ZM148.808 53.3409H147.734L144.453 65.5312H145.527L148.808 53.3409ZM152.446 64.179C153.778 64.179 154.474 63.4631 154.713 62.9659H154.773V64H155.946V58.9688C155.946 56.5426 154.097 56.2642 153.122 56.2642C151.969 56.2642 150.656 56.6619 150.06 58.054L151.173 58.4517C151.432 57.8949 152.043 57.2983 153.162 57.2983C154.241 57.2983 154.773 57.87 154.773 58.8494V58.8892C154.773 59.456 154.196 59.4062 152.804 59.5852C151.387 59.7692 149.841 60.0824 149.841 61.8324C149.841 63.3239 150.994 64.179 152.446 64.179ZM152.625 63.125C151.69 63.125 151.014 62.7074 151.014 61.892C151.014 60.9972 151.83 60.7188 152.744 60.5994C153.241 60.5398 154.574 60.4006 154.773 60.1619V61.2358C154.773 62.1903 154.017 63.125 152.625 63.125ZM161.19 64.1591C162.88 64.1591 163.994 63.125 164.193 61.7727H163.019C162.801 62.608 162.105 63.1051 161.19 63.1051C159.798 63.1051 158.903 61.9517 158.903 60.1818C158.903 58.4517 159.818 57.3182 161.19 57.3182C162.224 57.3182 162.84 57.9545 163.019 58.6506H164.193C163.994 57.2188 162.781 56.2642 161.17 56.2642C159.102 56.2642 157.73 57.8949 157.73 60.2216C157.73 62.5085 159.042 64.1591 161.19 64.1591ZM169.01 64.1591C170.7 64.1591 171.814 63.125 172.013 61.7727H170.84C170.621 62.608 169.925 63.1051 169.01 63.1051C167.618 63.1051 166.723 61.9517 166.723 60.1818C166.723 58.4517 167.638 57.3182 169.01 57.3182C170.044 57.3182 170.661 57.9545 170.84 58.6506H172.013C171.814 57.2188 170.601 56.2642 168.99 56.2642C166.922 56.2642 165.55 57.8949 165.55 60.2216C165.55 62.5085 166.862 64.1591 169.01 64.1591ZM176.83 64.1591C178.899 64.1591 180.291 62.5881 180.291 60.2216C180.291 57.8352 178.899 56.2642 176.83 56.2642C174.762 56.2642 173.37 57.8352 173.37 60.2216C173.37 62.5881 174.762 64.1591 176.83 64.1591ZM176.83 63.1051C175.259 63.1051 174.544 61.7528 174.544 60.2216C174.544 58.6903 175.259 57.3182 176.83 57.3182C178.401 57.3182 179.117 58.6903 179.117 60.2216C179.117 61.7528 178.401 63.1051 176.83 63.1051ZM186.894 60.8778C186.894 62.3097 185.8 62.9659 184.925 62.9659C183.951 62.9659 183.255 62.25 183.255 61.1364V56.3636H182.082V61.2159C182.082 63.1648 183.116 64.0994 184.548 64.0994C185.701 64.0994 186.457 63.483 186.815 62.7074H186.894V64H188.067V56.3636H186.894V60.8778ZM191.39 59.4062C191.39 58.0739 192.215 57.3182 193.339 57.3182C194.427 57.3182 195.089 58.0291 195.089 59.2273V64H196.262V59.1477C196.262 57.1989 195.223 56.2642 193.677 56.2642C192.523 56.2642 191.807 56.7812 191.449 57.5568H191.35V56.3636H190.216V64H191.39V59.4062ZM201.727 56.3636H200.096V54.5341H198.923V56.3636H197.77V57.358H198.923V62.1307C198.923 63.4631 199.997 64.0994 200.991 64.0994C201.429 64.0994 201.707 64.0199 201.866 63.9602L201.627 62.9062C201.528 62.9261 201.369 62.9659 201.11 62.9659C200.593 62.9659 200.096 62.8068 200.096 61.8125V57.358H201.727V56.3636ZM204.347 64.0795C204.839 64.0795 205.242 63.6768 205.242 63.1847C205.242 62.6925 204.839 62.2898 204.347 62.2898C203.855 62.2898 203.452 62.6925 203.452 63.1847C203.452 63.6768 203.855 64.0795 204.347 64.0795ZM207.347 66.8636H208.521V62.8267H208.62C208.879 63.2443 209.376 64.1591 210.847 64.1591C212.756 64.1591 214.089 62.6278 214.089 60.2017C214.089 57.7955 212.756 56.2642 210.827 56.2642C209.336 56.2642 208.879 57.179 208.62 57.5767H208.481V56.3636H207.347V66.8636ZM208.501 60.1818C208.501 58.4716 209.256 57.3182 210.688 57.3182C212.18 57.3182 212.915 58.571 212.915 60.1818C212.915 61.8125 212.16 63.1051 210.688 63.1051C209.276 63.1051 208.501 61.9119 208.501 60.1818ZM215.879 64H217.052V59.1676C217.052 58.1335 217.867 57.3778 218.981 57.3778C219.294 57.3778 219.617 57.4375 219.697 57.4574V56.2642C219.562 56.2543 219.254 56.2443 219.08 56.2443C218.165 56.2443 217.37 56.7614 217.092 57.517H217.012V56.3636H215.879V64ZM223.957 64.1591C226.026 64.1591 227.418 62.5881 227.418 60.2216C227.418 57.8352 226.026 56.2642 223.957 56.2642C221.889 56.2642 220.497 57.8352 220.497 60.2216C220.497 62.5881 221.889 64.1591 223.957 64.1591ZM223.957 63.1051C222.386 63.1051 221.67 61.7528 221.67 60.2216C221.67 58.6903 222.386 57.3182 223.957 57.3182C225.528 57.3182 226.244 58.6903 226.244 60.2216C226.244 61.7528 225.528 63.1051 223.957 63.1051ZM232.53 56.3636H230.899V54.5341H229.726V56.3636H228.572V57.358H229.726V62.1307C229.726 63.4631 230.8 64.0994 231.794 64.0994C232.231 64.0994 232.51 64.0199 232.669 63.9602L232.43 62.9062C232.331 62.9261 232.172 62.9659 231.913 62.9659C231.396 62.9659 230.899 62.8068 230.899 61.8125V57.358H232.53V56.3636ZM237.315 64.1591C239.383 64.1591 240.775 62.5881 240.775 60.2216C240.775 57.8352 239.383 56.2642 237.315 56.2642C235.247 56.2642 233.855 57.8352 233.855 60.2216C233.855 62.5881 235.247 64.1591 237.315 64.1591ZM237.315 63.1051C235.744 63.1051 235.028 61.7528 235.028 60.2216C235.028 58.6903 235.744 57.3182 237.315 57.3182C238.886 57.3182 239.602 58.6903 239.602 60.2216C239.602 61.7528 238.886 63.1051 237.315 63.1051ZM243.739 59.4062C243.739 58.0739 244.565 57.3182 245.688 57.3182C246.777 57.3182 247.438 58.0291 247.438 59.2273V64H248.612V59.1477C248.612 57.1989 247.572 56.2642 246.026 56.2642C244.873 56.2642 244.157 56.7812 243.799 57.5568H243.7V56.3636H242.566V64H243.739V59.4062ZM250.756 64H251.929V59.2273C251.929 58.1087 252.744 57.3182 253.659 57.3182C254.549 57.3182 255.17 57.8999 255.17 58.7699V64H256.363V59.0284C256.363 58.044 256.98 57.3182 258.054 57.3182C258.889 57.3182 259.605 57.7607 259.605 58.8892V64H260.778V58.8892C260.778 57.0945 259.814 56.2642 258.452 56.2642C257.358 56.2642 256.557 56.7663 256.165 57.5568H256.085C255.707 56.7415 255.041 56.2642 254.037 56.2642C253.042 56.2642 252.307 56.7415 251.988 57.5568H251.889V56.3636H250.756V64ZM265.171 64.179C266.503 64.179 267.199 63.4631 267.438 62.9659H267.497V64H268.671V58.9688C268.671 56.5426 266.821 56.2642 265.847 56.2642C264.693 56.2642 263.381 56.6619 262.784 58.054L263.898 58.4517C264.156 57.8949 264.768 57.2983 265.887 57.2983C266.965 57.2983 267.497 57.87 267.497 58.8494V58.8892C267.497 59.456 266.921 59.4062 265.529 59.5852C264.112 59.7692 262.566 60.0824 262.566 61.8324C262.566 63.3239 263.719 64.179 265.171 64.179ZM265.35 63.125C264.415 63.125 263.739 62.7074 263.739 61.892C263.739 60.9972 264.554 60.7188 265.469 60.5994C265.966 60.5398 267.298 60.4006 267.497 60.1619V61.2358C267.497 62.1903 266.742 63.125 265.35 63.125ZM270.812 64H271.985V56.3636H270.812V64ZM271.409 55.0909C271.866 55.0909 272.244 54.733 272.244 54.2955C272.244 53.858 271.866 53.5 271.409 53.5C270.951 53.5 270.574 53.858 270.574 54.2955C270.574 54.733 270.951 55.0909 271.409 55.0909ZM275.308 53.8182H274.134V64H275.308V53.8182ZM278.312 64.0795C278.804 64.0795 279.207 63.6768 279.207 63.1847C279.207 62.6925 278.804 62.2898 278.312 62.2898C277.82 62.2898 277.417 62.6925 277.417 63.1847C277.417 63.6768 277.82 64.0795 278.312 64.0795ZM284.414 64.1591C286.105 64.1591 287.218 63.125 287.417 61.7727H286.244C286.025 62.608 285.329 63.1051 284.414 63.1051C283.022 63.1051 282.127 61.9517 282.127 60.1818C282.127 58.4517 283.042 57.3182 284.414 57.3182C285.449 57.3182 286.065 57.9545 286.244 58.6506H287.417C287.218 57.2188 286.005 56.2642 284.395 56.2642C282.326 56.2642 280.954 57.8949 280.954 60.2216C280.954 62.5085 282.267 64.1591 284.414 64.1591ZM292.235 64.1591C294.303 64.1591 295.695 62.5881 295.695 60.2216C295.695 57.8352 294.303 56.2642 292.235 56.2642C290.167 56.2642 288.775 57.8352 288.775 60.2216C288.775 62.5881 290.167 64.1591 292.235 64.1591ZM292.235 63.1051C290.664 63.1051 289.948 61.7528 289.948 60.2216C289.948 58.6903 290.664 57.3182 292.235 57.3182C293.806 57.3182 294.522 58.6903 294.522 60.2216C294.522 61.7528 293.806 63.1051 292.235 63.1051ZM297.486 64H298.659V59.2273C298.659 58.1087 299.475 57.3182 300.389 57.3182C301.279 57.3182 301.901 57.8999 301.901 58.7699V64H303.094V59.0284C303.094 58.044 303.71 57.3182 304.784 57.3182C305.619 57.3182 306.335 57.7607 306.335 58.8892V64H307.509V58.8892C307.509 57.0945 306.544 56.2642 305.182 56.2642C304.088 56.2642 303.288 56.7663 302.895 57.5568H302.816C302.438 56.7415 301.771 56.2642 300.767 56.2642C299.773 56.2642 299.037 56.7415 298.719 57.5568H298.619V56.3636H297.486V64Z" fill="#8366FF"/>
<path d="M206.273 59.4162H308.583V60.3707H206.273V59.4162Z" fill="#8366FF"/>
<g opacity="0.5">
<path fill-rule="evenodd" clip-rule="evenodd" d="M86 56H86.2H91.8H92C92 54.3431 90.6569 53 89 53C87.3431 53 86 54.3431 86 56ZM85 56V56.0192C84.6078 56.0431 84.3295 56.097 84.092 56.218C83.7157 56.4097 83.4097 56.7157 83.218 57.092C83 57.5198 83 58.0799 83 59.2V62.8C83 63.9201 83 64.4802 83.218 64.908C83.4097 65.2843 83.7157 65.5903 84.092 65.782C84.5198 66 85.0799 66 86.2 66H91.8C92.9201 66 93.4802 66 93.908 65.782C94.2843 65.5903 94.5903 65.2843 94.782 64.908C95 64.4802 95 63.9201 95 62.8V59.2C95 58.0799 95 57.5198 94.782 57.092C94.5903 56.7157 94.2843 56.4097 93.908 56.218C93.6705 56.097 93.3922 56.0431 93 56.0192V56C93 53.7909 91.2091 52 89 52C86.7909 52 85 53.7909 85 56ZM84.9678 57.0239C85.2512 57.0008 85.6234 57 86.2 57H91.8C92.3766 57 92.7488 57.0008 93.0322 57.0239C93.3038 57.0461 93.4045 57.0838 93.454 57.109C93.6422 57.2049 93.7951 57.3578 93.891 57.546C93.9162 57.5955 93.9539 57.6962 93.9761 57.9678C93.9992 58.2512 94 58.6234 94 59.2V62.8C94 63.3766 93.9992 63.7488 93.9761 64.0322C93.9539 64.3038 93.9162 64.4045 93.891 64.454C93.7951 64.6422 93.6422 64.7951 93.454 64.891C93.4045 64.9162 93.3038 64.9539 93.0322 64.9761C92.7488 64.9992 92.3766 65 91.8 65H86.2C85.6234 65 85.2512 64.9992 84.9678 64.9761C84.6962 64.9539 84.5955 64.9162 84.546 64.891C84.3578 64.7951 84.2049 64.6422 84.109 64.454C84.0838 64.4045 84.0461 64.3038 84.0239 64.0322C84.0008 63.7488 84 63.3766 84 62.8V59.2C84 58.6234 84.0008 58.2512 84.0239 57.9678C84.0461 57.6962 84.0838 57.5955 84.109 57.546C84.2049 57.3578 84.3578 57.2049 84.546 57.109C84.5955 57.0838 84.6962 57.0461 84.9678 57.0239ZM90 60C90 60.3821 89.7857 60.7142 89.4706 60.8826L89.9068 62.6272C89.9541 62.8166 89.8109 63 89.6158 63H88.3842C88.1891 63 88.0459 62.8166 88.0932 62.6272L88.5294 60.8826C88.2143 60.7142 88 60.3821 88 60C88 59.4477 88.4477 59 89 59C89.5523 59 90 59.4477 90 60Z" fill="#8366FF"/>
</g>
<path fill-rule="evenodd" clip-rule="evenodd" d="M327 66C330.866 66 334 62.866 334 59C334 55.134 330.866 52 327 52C323.134 52 320 55.134 320 59C320 62.866 323.134 66 327 66Z" fill="white"/>
<path fill-rule="evenodd" clip-rule="evenodd" d="M327 66C330.866 66 334 62.866 334 59C334 55.134 330.866 52 327 52C323.134 52 320 55.134 320 59C320 62.866 323.134 66 327 66ZM329.854 61.8536C329.658 62.0488 329.342 62.0488 329.146 61.8536L327 59.7071L324.854 61.8536C324.658 62.0488 324.342 62.0488 324.146 61.8536C323.951 61.6583 323.951 61.3417 324.146 61.1464L326.293 59L324.146 56.8536C323.951 56.6583 323.951 56.3417 324.146 56.1464C324.342 55.9512 324.658 55.9512 324.854 56.1464L327 58.2929L329.146 56.1464C329.342 55.9512 329.658 55.9512 329.854 56.1464C330.049 56.3417 330.049 56.6583 329.854 56.8536L327.707 59L329.854 61.1464C330.049 61.3417 330.049 61.6583 329.854 61.8536Z" fill="url(#paint1_linear_22611_222945)"/>
<g filter="url(#filter1_ddd_22611_222945)">
<path d="M70 94C70 89.5817 73.5817 86 78 86H338C342.418 86 346 89.5817 346 94V116C346 120.418 342.418 124 338 124H78C73.5817 124 70 120.418 70 116V94Z" fill="white"/>
<path d="M78 86.5H338C342.142 86.5 345.5 89.8579 345.5 94V116C345.5 120.142 342.142 123.5 338 123.5H78C73.8579 123.5 70.5 120.142 70.5 116V94C70.5 89.8579 73.8579 86.5 78 86.5Z" stroke="#E2DBFF"/>
</g>
<path d="M103.247 105.406C103.247 104.074 104.097 103.318 105.256 103.318C106.359 103.318 107.026 104.014 107.026 105.227V110H108.199V105.148C108.199 103.184 107.155 102.264 105.594 102.264C104.391 102.264 103.705 102.766 103.347 103.557H103.247V99.8182H102.074V110H103.247V105.406ZM113.666 102.364H112.036V100.534H110.862V102.364H109.709V103.358H110.862V108.131C110.862 109.463 111.936 110.099 112.931 110.099C113.368 110.099 113.646 110.02 113.806 109.96L113.567 108.906C113.468 108.926 113.308 108.966 113.05 108.966C112.533 108.966 112.036 108.807 112.036 107.812V103.358H113.666V102.364ZM118.752 102.364H117.122V100.534H115.948V102.364H114.795V103.358H115.948V108.131C115.948 109.463 117.022 110.099 118.017 110.099C118.454 110.099 118.732 110.02 118.892 109.96L118.653 108.906C118.553 108.926 118.394 108.966 118.136 108.966C117.619 108.966 117.122 108.807 117.122 107.812V103.358H118.752V102.364ZM120.517 112.864H121.691V108.827H121.79C122.048 109.244 122.546 110.159 124.017 110.159C125.926 110.159 127.259 108.628 127.259 106.202C127.259 103.795 125.926 102.264 123.997 102.264C122.506 102.264 122.048 103.179 121.79 103.577H121.651V102.364H120.517V112.864ZM121.671 106.182C121.671 104.472 122.426 103.318 123.858 103.318C125.35 103.318 126.085 104.571 126.085 106.182C126.085 107.812 125.33 109.105 123.858 109.105C122.446 109.105 121.671 107.912 121.671 106.182ZM134.458 104.074C134.09 102.99 133.264 102.264 131.753 102.264C130.142 102.264 128.949 103.179 128.949 104.472C128.949 105.526 129.575 106.232 130.977 106.56L132.25 106.858C133.021 107.037 133.384 107.405 133.384 107.932C133.384 108.588 132.688 109.125 131.594 109.125C130.634 109.125 130.033 108.712 129.824 107.892L128.71 108.17C128.984 109.468 130.053 110.159 131.614 110.159C133.389 110.159 134.597 109.19 134.597 107.872C134.597 106.808 133.931 106.137 132.568 105.804L131.435 105.526C130.53 105.302 130.122 104.999 130.122 104.412C130.122 103.756 130.818 103.278 131.753 103.278C132.777 103.278 133.2 103.845 133.404 104.372L134.458 104.074ZM137.218 110.08C137.71 110.08 138.113 109.677 138.113 109.185C138.113 108.692 137.71 108.29 137.218 108.29C136.726 108.29 136.323 108.692 136.323 109.185C136.323 109.677 136.726 110.08 137.218 110.08ZM137.218 104.412C137.71 104.412 138.113 104.009 138.113 103.517C138.113 103.025 137.71 102.622 137.218 102.622C136.726 102.622 136.323 103.025 136.323 103.517C136.323 104.009 136.726 104.412 137.218 104.412ZM143.818 99.3409H142.744L139.463 111.531H140.537L143.818 99.3409ZM148.808 99.3409H147.734L144.453 111.531H145.527L148.808 99.3409ZM152.446 110.179C153.778 110.179 154.474 109.463 154.713 108.966H154.773V110H155.946V104.969C155.946 102.543 154.097 102.264 153.122 102.264C151.969 102.264 150.656 102.662 150.06 104.054L151.173 104.452C151.432 103.895 152.043 103.298 153.162 103.298C154.241 103.298 154.773 103.87 154.773 104.849V104.889C154.773 105.456 154.196 105.406 152.804 105.585C151.387 105.769 149.841 106.082 149.841 107.832C149.841 109.324 150.994 110.179 152.446 110.179ZM152.625 109.125C151.69 109.125 151.014 108.707 151.014 107.892C151.014 106.997 151.83 106.719 152.744 106.599C153.241 106.54 154.574 106.401 154.773 106.162V107.236C154.773 108.19 154.017 109.125 152.625 109.125ZM161.19 110.159C162.88 110.159 163.994 109.125 164.193 107.773H163.019C162.801 108.608 162.105 109.105 161.19 109.105C159.798 109.105 158.903 107.952 158.903 106.182C158.903 104.452 159.818 103.318 161.19 103.318C162.224 103.318 162.84 103.955 163.019 104.651H164.193C163.994 103.219 162.781 102.264 161.17 102.264C159.102 102.264 157.73 103.895 157.73 106.222C157.73 108.509 159.042 110.159 161.19 110.159ZM169.01 110.159C170.7 110.159 171.814 109.125 172.013 107.773H170.84C170.621 108.608 169.925 109.105 169.01 109.105C167.618 109.105 166.723 107.952 166.723 106.182C166.723 104.452 167.638 103.318 169.01 103.318C170.044 103.318 170.661 103.955 170.84 104.651H172.013C171.814 103.219 170.601 102.264 168.99 102.264C166.922 102.264 165.55 103.895 165.55 106.222C165.55 108.509 166.862 110.159 169.01 110.159ZM176.83 110.159C178.899 110.159 180.291 108.588 180.291 106.222C180.291 103.835 178.899 102.264 176.83 102.264C174.762 102.264 173.37 103.835 173.37 106.222C173.37 108.588 174.762 110.159 176.83 110.159ZM176.83 109.105C175.259 109.105 174.544 107.753 174.544 106.222C174.544 104.69 175.259 103.318 176.83 103.318C178.401 103.318 179.117 104.69 179.117 106.222C179.117 107.753 178.401 109.105 176.83 109.105ZM186.894 106.878C186.894 108.31 185.8 108.966 184.925 108.966C183.951 108.966 183.255 108.25 183.255 107.136V102.364H182.082V107.216C182.082 109.165 183.116 110.099 184.548 110.099C185.701 110.099 186.457 109.483 186.815 108.707H186.894V110H188.067V102.364H186.894V106.878ZM191.39 105.406C191.39 104.074 192.215 103.318 193.339 103.318C194.427 103.318 195.089 104.029 195.089 105.227V110H196.262V105.148C196.262 103.199 195.223 102.264 193.677 102.264C192.523 102.264 191.807 102.781 191.449 103.557H191.35V102.364H190.216V110H191.39V105.406ZM201.727 102.364H200.096V100.534H198.923V102.364H197.77V103.358H198.923V108.131C198.923 109.463 199.997 110.099 200.991 110.099C201.429 110.099 201.707 110.02 201.866 109.96L201.627 108.906C201.528 108.926 201.369 108.966 201.11 108.966C200.593 108.966 200.096 108.807 200.096 107.812V103.358H201.727V102.364ZM204.347 110.08C204.839 110.08 205.242 109.677 205.242 109.185C205.242 108.692 204.839 108.29 204.347 108.29C203.855 108.29 203.452 108.692 203.452 109.185C203.452 109.677 203.855 110.08 204.347 110.08Z" fill="#8366FF"/>
<path d="M207.347 112.864H208.521V108.827H208.62C208.879 109.244 209.376 110.159 210.847 110.159C212.756 110.159 214.089 108.628 214.089 106.202C214.089 103.795 212.756 102.264 210.827 102.264C209.336 102.264 208.879 103.179 208.62 103.577H208.481V102.364H207.347V112.864ZM208.501 106.182C208.501 104.472 209.256 103.318 210.688 103.318C212.18 103.318 212.915 104.571 212.915 106.182C212.915 107.812 212.16 109.105 210.688 109.105C209.276 109.105 208.501 107.912 208.501 106.182ZM215.879 110H217.052V105.168C217.052 104.134 217.867 103.378 218.981 103.378C219.294 103.378 219.617 103.438 219.697 103.457V102.264C219.562 102.254 219.254 102.244 219.08 102.244C218.165 102.244 217.37 102.761 217.092 103.517H217.012V102.364H215.879V110ZM223.957 110.159C226.026 110.159 227.418 108.588 227.418 106.222C227.418 103.835 226.026 102.264 223.957 102.264C221.889 102.264 220.497 103.835 220.497 106.222C220.497 108.588 221.889 110.159 223.957 110.159ZM223.957 109.105C222.386 109.105 221.67 107.753 221.67 106.222C221.67 104.69 222.386 103.318 223.957 103.318C225.528 103.318 226.244 104.69 226.244 106.222C226.244 107.753 225.528 109.105 223.957 109.105ZM232.53 102.364H230.899V100.534H229.726V102.364H228.572V103.358H229.726V108.131C229.726 109.463 230.8 110.099 231.794 110.099C232.231 110.099 232.51 110.02 232.669 109.96L232.43 108.906C232.331 108.926 232.172 108.966 231.913 108.966C231.396 108.966 230.899 108.807 230.899 107.812V103.358H232.53V102.364ZM237.315 110.159C239.383 110.159 240.775 108.588 240.775 106.222C240.775 103.835 239.383 102.264 237.315 102.264C235.247 102.264 233.855 103.835 233.855 106.222C233.855 108.588 235.247 110.159 237.315 110.159ZM237.315 109.105C235.744 109.105 235.028 107.753 235.028 106.222C235.028 104.69 235.744 103.318 237.315 103.318C238.886 103.318 239.602 104.69 239.602 106.222C239.602 107.753 238.886 109.105 237.315 109.105ZM243.739 105.406C243.739 104.074 244.565 103.318 245.688 103.318C246.777 103.318 247.438 104.029 247.438 105.227V110H248.612V105.148C248.612 103.199 247.572 102.264 246.026 102.264C244.873 102.264 244.157 102.781 243.799 103.557H243.7V102.364H242.566V110H243.739V105.406ZM251.611 110.08C252.103 110.08 252.506 109.677 252.506 109.185C252.506 108.692 252.103 108.29 251.611 108.29C251.118 108.29 250.716 108.692 250.716 109.185C250.716 109.677 251.118 110.08 251.611 110.08ZM254.611 110H255.784V105.227C255.784 104.109 256.6 103.318 257.514 103.318C258.404 103.318 259.026 103.9 259.026 104.77V110H260.219V105.028C260.219 104.044 260.835 103.318 261.909 103.318C262.744 103.318 263.46 103.761 263.46 104.889V110H264.634V104.889C264.634 103.094 263.669 102.264 262.307 102.264C261.213 102.264 260.413 102.766 260.02 103.557H259.941C259.563 102.741 258.896 102.264 257.892 102.264C256.898 102.264 256.162 102.741 255.844 103.557H255.744V102.364H254.611V110ZM269.981 110.159C271.532 110.159 272.665 109.384 273.023 108.23L271.89 107.912C271.591 108.707 270.9 109.105 269.981 109.105C268.604 109.105 267.654 108.215 267.599 106.58H273.143V106.082C273.143 103.239 271.452 102.264 269.861 102.264C267.793 102.264 266.421 103.895 266.421 106.241C266.421 108.588 267.773 110.159 269.981 110.159ZM267.599 105.565C267.679 104.377 268.519 103.318 269.861 103.318C271.134 103.318 271.949 104.273 271.949 105.565H267.599Z" fill="#632FFF"/>
<path fill-rule="evenodd" clip-rule="evenodd" d="M86 102H86.2H91.8H92C92 100.343 90.6569 99 89 99C87.3431 99 86 100.343 86 102ZM85 102V102.019C84.6078 102.043 84.3295 102.097 84.092 102.218C83.7157 102.41 83.4097 102.716 83.218 103.092C83 103.52 83 104.08 83 105.2V108.8C83 109.92 83 110.48 83.218 110.908C83.4097 111.284 83.7157 111.59 84.092 111.782C84.5198 112 85.0799 112 86.2 112H91.8C92.9201 112 93.4802 112 93.908 111.782C94.2843 111.59 94.5903 111.284 94.782 110.908C95 110.48 95 109.92 95 108.8V105.2C95 104.08 95 103.52 94.782 103.092C94.5903 102.716 94.2843 102.41 93.908 102.218C93.6705 102.097 93.3922 102.043 93 102.019V102C93 99.7909 91.2091 98 89 98C86.7909 98 85 99.7909 85 102ZM84.9678 103.024C85.2512 103.001 85.6234 103 86.2 103H91.8C92.3766 103 92.7488 103.001 93.0322 103.024C93.3038 103.046 93.4045 103.084 93.454 103.109C93.6422 103.205 93.7951 103.358 93.891 103.546C93.9162 103.595 93.9539 103.696 93.9761 103.968C93.9992 104.251 94 104.623 94 105.2V108.8C94 109.377 93.9992 109.749 93.9761 110.032C93.9539 110.304 93.9162 110.405 93.891 110.454C93.7951 110.642 93.6422 110.795 93.454 110.891C93.4045 110.916 93.3038 110.954 93.0322 110.976C92.7488 110.999 92.3766 111 91.8 111H86.2C85.6234 111 85.2512 110.999 84.9678 110.976C84.6962 110.954 84.5955 110.916 84.546 110.891C84.3578 110.795 84.2049 110.642 84.109 110.454C84.0838 110.405 84.0461 110.304 84.0239 110.032C84.0008 109.749 84 109.377 84 108.8V105.2C84 104.623 84.0008 104.251 84.0239 103.968C84.0461 103.696 84.0838 103.595 84.109 103.546C84.2049 103.358 84.3578 103.205 84.546 103.109C84.5955 103.084 84.6962 103.046 84.9678 103.024ZM90 106C90 106.382 89.7857 106.714 89.4706 106.883L89.9068 108.627C89.9541 108.817 89.8109 109 89.6158 109H88.3842C88.1891 109 88.0459 108.817 88.0932 108.627L88.5294 106.883C88.2143 106.714 88 106.382 88 106C88 105.448 88.4477 105 89 105C89.5523 105 90 105.448 90 106Z" fill="#8366FF"/>
<path fill-rule="evenodd" clip-rule="evenodd" d="M327 112C330.866 112 334 108.866 334 105C334 101.134 330.866 98 327 98C323.134 98 320 101.134 320 105C320 108.866 323.134 112 327 112ZM330.854 103.854C331.049 103.658 331.049 103.342 330.854 103.146C330.658 102.951 330.342 102.951 330.146 103.146L326.5 106.793L324.354 104.646C324.158 104.451 323.842 104.451 323.646 104.646C323.451 104.842 323.451 105.158 323.646 105.354L326.005 107.712C326.278 107.985 326.722 107.985 326.995 107.712L330.854 103.854Z" fill="url(#paint2_linear_22611_222945)"/>
<g style="mix-blend-mode:multiply" opacity="0.1">
<path d="M204 93H275V117H204V93Z" fill="#6D4AFF"/>
</g>
</g>
<defs>
<filter id="filter0_ddd_22611_222945" x="1.81293" y="-7.78125" width="412.374" height="174.374" filterUnits="userSpaceOnUse" color-interpolation-filters="sRGB">
<feFlood flood-opacity="0" result="BackgroundImageFix"/>
<feColorMatrix in="SourceAlpha" type="matrix" values="0 0 0 0 0 0 0 0 0 0 0 0 0 0 0 0 0 0 127 0" result="hardAlpha"/>
<feOffset dy="1.6627"/>
<feGaussianBlur stdDeviation="2.77799"/>
<feColorMatrix type="matrix" values="0 0 0 0 0.290196 0 0 0 0 0.176471 0 0 0 0 0.772549 0 0 0 0.0431852 0"/>
<feBlend mode="normal" in2="BackgroundImageFix" result="effect1_dropShadow_22611_222945"/>
<feColorMatrix in="SourceAlpha" type="matrix" values="0 0 0 0 0 0 0 0 0 0 0 0 0 0 0 0 0 0 127 0" result="hardAlpha"/>
<feOffset dy="7.86002"/>
<feGaussianBlur stdDeviation="10.8594"/>
<feColorMatrix type="matrix" values="0 0 0 0 0.290196 0 0 0 0 0.176471 0 0 0 0 0.772549 0 0 0 0.0668148 0"/>
<feBlend mode="normal" in2="effect1_dropShadow_22611_222945" result="effect2_dropShadow_22611_222945"/>
<feColorMatrix in="SourceAlpha" type="matrix" values="0 0 0 0 0 0 0 0 0 0 0 0 0 0 0 0 0 0 127 0" result="hardAlpha"/>
<feOffset dy="20.4058"/>
<feGaussianBlur stdDeviation="34.0935"/>
<feColorMatrix type="matrix" values="0 0 0 0 0.290196 0 0 0 0 0.176471 0 0 0 0 0.772549 0 0 0 0.11 0"/>
<feBlend mode="normal" in2="effect2_dropShadow_22611_222945" result="effect3_dropShadow_22611_222945"/>
<feBlend mode="normal" in="SourceGraphic" in2="effect3_dropShadow_22611_222945" result="shape"/>
</filter>
<filter id="filter1_ddd_22611_222945" x="1.81293" y="38.2187" width="412.374" height="174.374" filterUnits="userSpaceOnUse" color-interpolation-filters="sRGB">
<feFlood flood-opacity="0" result="BackgroundImageFix"/>
<feColorMatrix in="SourceAlpha" type="matrix" values="0 0 0 0 0 0 0 0 0 0 0 0 0 0 0 0 0 0 127 0" result="hardAlpha"/>
<feOffset dy="1.6627"/>
<feGaussianBlur stdDeviation="2.77799"/>
<feColorMatrix type="matrix" values="0 0 0 0 0.290196 0 0 0 0 0.176471 0 0 0 0 0.772549 0 0 0 0.0431852 0"/>
<feBlend mode="normal" in2="BackgroundImageFix" result="effect1_dropShadow_22611_222945"/>
<feColorMatrix in="SourceAlpha" type="matrix" values="0 0 0 0 0 0 0 0 0 0 0 0 0 0 0 0 0 0 127 0" result="hardAlpha"/>
<feOffset dy="7.86002"/>
<feGaussianBlur stdDeviation="10.8594"/>
<feColorMatrix type="matrix" values="0 0 0 0 0.290196 0 0 0 0 0.176471 0 0 0 0 0.772549 0 0 0 0.0668148 0"/>
<feBlend mode="normal" in2="effect1_dropShadow_22611_222945" result="effect2_dropShadow_22611_222945"/>
<feColorMatrix in="SourceAlpha" type="matrix" values="0 0 0 0 0 0 0 0 0 0 0 0 0 0 0 0 0 0 127 0" result="hardAlpha"/>
<feOffset dy="20.4058"/>
<feGaussianBlur stdDeviation="34.0935"/>
<feColorMatrix type="matrix" values="0 0 0 0 0.290196 0 0 0 0 0.176471 0 0 0 0 0.772549 0 0 0 0.11 0"/>
<feBlend mode="normal" in2="effect2_dropShadow_22611_222945" result="effect3_dropShadow_22611_222945"/>
<feBlend mode="normal" in="SourceGraphic" in2="effect3_dropShadow_22611_222945" result="shape"/>
</filter>
<linearGradient id="paint0_linear_22611_222945" x1="-16.3704" y1="-5.9854" x2="311.287" y2="293.707" gradientUnits="userSpaceOnUse">
<stop stop-color="#ECAAFF"/>
<stop offset="1" stop-color="#6A48F6"/>
</linearGradient>
<linearGradient id="paint1_linear_22611_222945" x1="328.5" y1="52" x2="321.212" y2="68.0192" gradientUnits="userSpaceOnUse">
<stop stop-color="#FFA56C"/>
<stop offset="1" stop-color="#FF554F"/>
</linearGradient>
<linearGradient id="paint2_linear_22611_222945" x1="327.673" y1="93.2885" x2="331.577" y2="111.192" gradientUnits="userSpaceOnUse">
<stop stop-color="#ECAAFF"/>
<stop offset="1" stop-color="#6A48F6"/>
</linearGradient>
<clipPath id="clip0_22611_222945">
<rect width="416" height="164" rx="12" fill="white"/>
</clipPath>
</defs>
</svg>
