<svg xmlns="http://www.w3.org/2000/svg" width="48" height="48" fill="none" viewBox="0 0 48 48">
    <path
        fill="url(#paint0_linear_6396_20135)"
        d="M23.103 10.817a1 1 0 011.794 0l3.279 6.644a1 1 0 00.753.547l7.332 1.065a1 1 0 01.554 1.706l-5.306 5.172a1 1 0 00-.287.885l1.252 7.302a1 1 0 01-1.45 1.054l-6.559-3.447a1 1 0 00-.93 0l-6.558 3.447a1 1 0 01-1.451-1.054l1.252-7.302a1 1 0 00-.287-.885l-5.306-5.172a1 1 0 01.554-1.706l7.332-1.065a1 1 0 00.753-.547l3.28-6.644z"
    />
    <path fill="#48D3FF" d="M39.155 10.567l1.34-1.484a1 1 0 10-1.484-1.34l-1.34 1.483a1 1 0 101.484 1.34z" />
    <path fill="#55E5B2" d="M8.95 34.535L6.12 31.707a1 1 0 10-1.414 1.414l2.829 2.829a1 1 0 001.414-1.415z" />
    <path fill="#C867F5" d="M39.12 41.95l2.83-2.829a1 1 0 00-1.415-1.414l-2.828 2.828a1 1 0 101.414 1.415z" />
    <path
        fill="#FFA8A8"
        d="M20.567 42.541a1 1 0 00-.686-.722l-1.084-.325a1 1 0 00-.975.232l-.83.788a1 1 0 00-.287.95l.26 1.129a1 1 0 00.687.733l1.08.324a1 1 0 00.972-.23l.847-.798a1 1 0 00.286-.964l-.27-1.117z"
    />
    <path
        fill="#FF69B8"
        d="M11.4 5.076c.711.41.711 1.437 0 1.848L8.6 8.54c-.711.41-1.6-.102-1.6-.923V4.383c0-.82.889-1.334 1.6-.923l2.8 1.616z"
    />
    <defs>
        <linearGradient id="paint0_linear_6396_20135" x1="24" x2="24" y1="9" y2="39" gradientUnits="userSpaceOnUse">
            <stop stop-color="#FFE76C" />
            <stop offset="1" stop-color="#FFB94F" />
        </linearGradient>
    </defs>
</svg>
