<svg xmlns="http://www.w3.org/2000/svg" width="49" height="48" fill="none">
    <path fill="#F1F3F5" d="m20 1 5.182 33.913H39L20 1Z"/>
    <g filter="url(#a)">
        <path fill="url(#b)" d="M20 41V1l5.182 33.913L20 41Z"/>
    </g>
    <mask id="c" width="19" height="40" x="20" y="1" maskUnits="userSpaceOnUse" style="mask-type:alpha">
        <path fill="#F1F3F5" d="M39 34.913 20 1v40l5.182-6.087H39Z"/>
    </mask>
    <g filter="url(#d)" mask="url(#c)">
        <path fill="url(#e)" fill-opacity=".6" d="M39.15 31.936 27 29v46h27L39.15 31.936Z"/>
    </g>
    <path fill="url(#f)" d="m20 1-5.182 33.913H1L20 1Z"/>
    <path fill="url(#g)" d="M20 41V1l-5.182 33.913L20 41Z"/>
    <rect width="22" height="22" x="27" y="25" fill="url(#h)" rx="5.833"/>
    <g filter="url(#i)">
        <circle cx="38" cy="36" r="8.8" fill="url(#j)"/>
    </g>
    <path fill="#fff"
          d="M38.6 31a.6.6 0 1 0-1.2 0h1.2Zm-.6 5.552h-.6a.6.6 0 0 0 .142.388l.458-.388Zm2.042 3.336a.6.6 0 1 0 .916-.776l-.916.776ZM37.4 31v5.552h1.2V31h-1.2Zm.142 5.94 2.5 2.948.916-.776-2.5-2.948-.916.776Z"/>
    <defs>
        <linearGradient id="b" x1="16" x2="22.591" y1="1" y2="54" gradientUnits="userSpaceOnUse">
            <stop stop-color="#CAD5DF"/>
            <stop offset="1" stop-color="#DDE6ED"/>
        </linearGradient>
        <linearGradient id="e" x1="40.5" x2="40.5" y1="29" y2="75" gradientUnits="userSpaceOnUse">
            <stop stop-color="#0B073B"/>
            <stop offset="1" stop-color="#0B073B" stop-opacity="0"/>
        </linearGradient>
        <linearGradient id="f" x1="-5" x2="24" y1="-9.5" y2="31" gradientUnits="userSpaceOnUse">
            <stop stop-color="#F1F3F5"/>
            <stop offset="1" stop-color="#F1F3F5"/>
        </linearGradient>
        <linearGradient id="g" x1="21" x2="17" y1="-.5" y2="38" gradientUnits="userSpaceOnUse">
            <stop stop-color="#9CADBC"/>
            <stop offset="1" stop-color="#D5E0EA"/>
        </linearGradient>
        <linearGradient id="h" x1="60.458" x2="32.729" y1="11.938" y2="53.188" gradientUnits="userSpaceOnUse">
            <stop offset=".217" stop-color="#fff"/>
            <stop offset=".622" stop-color="#E6EAEC"/>
            <stop offset=".937" stop-color="#ABC4CC"/>
        </linearGradient>
        <linearGradient id="j" x1="38" x2="38" y1="27.2" y2="44.8" gradientUnits="userSpaceOnUse">
            <stop stop-color="#8F8F8F"/>
            <stop offset="1"/>
        </linearGradient>
        <filter id="a" width="5.182" height="40" x="20" y="1" color-interpolation-filters="sRGB"
                filterUnits="userSpaceOnUse">
            <feFlood flood-opacity="0" result="BackgroundImageFix"/>
            <feBlend in="SourceGraphic" in2="BackgroundImageFix" result="shape"/>
            <feColorMatrix in="SourceAlpha" result="hardAlpha" values="0 0 0 0 0 0 0 0 0 0 0 0 0 0 0 0 0 0 127 0"/>
            <feOffset dy="2"/>
            <feComposite in2="hardAlpha" k2="-1" k3="1" operator="arithmetic"/>
            <feColorMatrix values="0 0 0 0 1 0 0 0 0 1 0 0 0 0 1 0 0 0 1 0"/>
            <feBlend in2="shape" result="effect1_innerShadow_16871_285672"/>
        </filter>
        <filter id="d" width="47" height="66" x="17" y="19" color-interpolation-filters="sRGB"
                filterUnits="userSpaceOnUse">
            <feFlood flood-opacity="0" result="BackgroundImageFix"/>
            <feBlend in="SourceGraphic" in2="BackgroundImageFix" result="shape"/>
            <feGaussianBlur result="effect1_foregroundBlur_16871_285672" stdDeviation="5"/>
        </filter>
        <filter id="i" width="17.6" height="17.933" x="29.2" y="27.2" color-interpolation-filters="sRGB"
                filterUnits="userSpaceOnUse">
            <feFlood flood-opacity="0" result="BackgroundImageFix"/>
            <feBlend in="SourceGraphic" in2="BackgroundImageFix" result="shape"/>
            <feColorMatrix in="SourceAlpha" result="hardAlpha" values="0 0 0 0 0 0 0 0 0 0 0 0 0 0 0 0 0 0 127 0"/>
            <feOffset dy=".333"/>
            <feGaussianBlur stdDeviation=".167"/>
            <feComposite in2="hardAlpha" k2="-1" k3="1" operator="arithmetic"/>
            <feColorMatrix values="0 0 0 0 0 0 0 0 0 0 0 0 0 0 0 0 0 0 0.16 0"/>
            <feBlend in2="shape" result="effect1_innerShadow_16871_285672"/>
        </filter>
    </defs>
</svg>
