<svg xmlns="http://www.w3.org/2000/svg" width="40" height="39" fill="none" viewBox="0 0 40 39">
  <path fill="url(#a)" d="M38.3 17.78c.55.95.55 2.12 0 3.06l-7.86 13.62A3.07 3.07 0 0 1 27.78 36H12.06c-1.1 0-2.11-.59-2.66-1.54L1.54 20.84a3.07 3.07 0 0 1 0-3.06L9.4 4.16a3.07 3.07 0 0 1 2.66-1.53h15.72c1.1 0 2.1.58 2.66 1.53l7.86 13.62Z"/>
  <path fill="#fff" d="M20.86 8.9c-.69 0-1.24.57-1.24 1.25v7.62c0 .18-.15.33-.33.33a.33.33 0 0 1-.33-.33v-6.78a1.23 1.23 0 1 0-2.47 0v7.65c0 .19-.14.34-.32.34a.33.33 0 0 1-.33-.34V13.4c0-.69-.56-1.25-1.24-1.25-.68 0-1.23.56-1.23 1.25v11.4h.01a5.3 5.3 0 0 0 5.25 4.91h1.24c4.14 0 5.28-1.93 6.85-4.4l.39-.6 2.23-3.89a1.6 1.6 0 0 0-.58-2.17 1.57 1.57 0 0 0-2.15.58l-1 1.77c-.11.18-.4.1-.4-.1v-9.2a1.23 1.23 0 1 0-2.46-.01v6.08c0 .18-.15.33-.33.33a.33.33 0 0 1-.33-.33v-7.62c0-.68-.55-1.24-1.23-1.24Z"/>
  <defs>
    <linearGradient id="a" x1="37.16" x2="-1.63" y1="19.31" y2="19.31" gradientUnits="userSpaceOnUse">
      <stop stop-color="#FF7171"/>
      <stop offset="1" stop-color="#E63757"/>
    </linearGradient>
  </defs>
</svg>
