<svg xmlns="http://www.w3.org/2000/svg" width="220" height="120" fill="none">
    <g clip-path="url(#a)">
        <path
            fill="#EAE8E5"
            d="m211.093 114.963-189.186.243c-1.63 0-2.907-1.269-2.907-2.89v-1.621c0-1.621 1.276-2.89 2.907-2.89l189.186-.243c1.631 0 2.907 1.268 2.907 2.89v1.621c0 1.621-1.347 2.89-2.907 2.89Z"
        />
        <path
            fill="#D1CFCD"
            d="M124.778 111.893h-17.582a4.025 4.025 0 0 1-4.04-4.018h25.663a4.024 4.024 0 0 1-4.041 4.018Z"
        />
        <path
            fill="url(#b)"
            d="M193.571 107.805H37.766V19.459c0-4.652 3.829-8.459 8.508-8.459h138.79c4.679 0 8.507 3.807 8.507 8.46v88.345Z"
        />
        <path
            fill="#fff"
            d="M186.979 107.805H45.07V20.799c0-1.128.922-2.045 2.056-2.045h137.726c1.135 0 2.056.917 2.056 2.045v87.006h.071Z"
        />
        <path
            fill="url(#c)"
            d="M116 74.338c13.255 0 24-10.597 24-23.67C140 37.598 129.255 27 116 27S92 37.597 92 50.669c0 13.072 10.745 23.669 24 23.669Z"
        />
        <path
            fill="url(#d)"
            d="M116.285 55.685c5.057 0 9.156-4.093 9.156-9.143 0-5.05-4.099-9.143-9.156-9.143s-9.156 4.093-9.156 9.143c0 5.05 4.099 9.143 9.156 9.143Z"
        />
        <path
            fill="url(#e)"
            d="M116.285 75c6.752 0 12.818-2.743 17.167-7.2-4.005-5.086-10.186-8.286-17.167-8.286-6.982 0-13.162 3.257-17.168 8.286 4.349 4.4 10.415 7.2 17.168 7.2Z"
        />
        <g filter="url(#f)" opacity=".25"><path fill="#221548" d="M168 28h24v24h-24z" /></g>
        <path fill="url(#g)" d="M168 26c0-14.36 11.641-26 26-26s26 11.64 26 26-11.641 26-26 26h-26V26Z" />
        <circle cx="194" cy="26" r="14" stroke="#fff" stroke-width="2" />
        <path stroke="#fff" stroke-linecap="round" stroke-linejoin="round" stroke-width="2" d="M189.5 30.5 194 26V16" />
        <circle cx="194" cy="26" r="12" fill="#fff" fill-opacity=".2" />
        <path
            fill="#E1EBF2"
            d="M91.5 90.886A2.886 2.886 0 0 1 94.386 88h44.227a2.886 2.886 0 0 1 2.887 2.886v4.228A2.886 2.886 0 0 1 138.613 98H94.386a2.886 2.886 0 0 1-2.886-2.886v-4.228Z"
        />
        <circle cx="101.027" cy="93" r="1" fill="#140D4B" />
        <circle cx="113.623" cy="93" r="1" fill="#140D4B" />
        <circle cx="126.221" cy="93" r="1" fill="#140D4B" />
        <circle cx="107.324" cy="93" r="1" fill="#140D4B" />
        <circle cx="119.922" cy="93" r="1" fill="#140D4B" />
        <circle cx="132.52" cy="93" r="1" fill="#140D4B" />
        <path fill="#E1EBF2" d="M102.5 81a2 2 0 0 1 2-2h24a2 2 0 1 1 0 4h-24a2 2 0 0 1-2-2Z" />
        <g filter="url(#h)" opacity=".25"><path fill="#221548" d="M19 28h35v83H19V28Z" /></g>
        <path
            fill="url(#i)"
            d="M45.727 115.443H8.547c-4.533 0-8.246-3.692-8.246-8.247v-75.58c0-4.507 3.713-8.199 8.246-8.199h37.18c4.58 0 8.246 3.692 8.246 8.2v75.579c.048 4.555-3.665 8.247-8.246 8.247Z"
        />
        <path
            fill="url(#j)"
            d="M44.907 26.486H41.51c-.986 0-1.882.574-2.294 1.47l-.337.736c-.579 1.294-1.929 2.157-3.375 2.157H18.77c-1.447 0-2.749-.863-3.375-2.157l-.297-.664a2.524 2.524 0 0 0-2.305-1.494H9.415c-3.135 0-5.69 2.541-5.69 5.658v74.525c0 3.116 2.555 5.658 5.69 5.658h35.492c3.135 0 5.69-2.542 5.69-5.658V32.144c-.048-3.117-2.556-5.658-5.69-5.658Z"
        />
        <path
            fill="url(#k)"
            d="M27.5 65.669c6.627 0 12-5.299 12-11.835C39.5 47.298 34.127 42 27.5 42s-12 5.298-12 11.834 5.373 11.835 12 11.835Z"
        />
        <path
            fill="url(#l)"
            d="M27.643 56.343a4.575 4.575 0 0 0 4.578-4.572 4.575 4.575 0 0 0-4.578-4.571 4.575 4.575 0 0 0-4.578 4.571 4.575 4.575 0 0 0 4.578 4.572Z"
        />
        <path
            fill="url(#m)"
            d="M27.642 66a11.93 11.93 0 0 0 8.584-3.6 10.859 10.859 0 0 0-8.584-4.143c-3.49 0-6.58 1.629-8.583 4.143 2.174 2.2 5.207 3.6 8.583 3.6Z"
        />
        <path
            fill="#E1EBF2"
            d="M13.5 75a2 2 0 0 1 2-2h24a2 2 0 1 1 0 4h-24a2 2 0 0 1-2-2ZM7.5 83.886A2.886 2.886 0 0 1 10.386 81h32.228a2.886 2.886 0 0 1 2.886 2.886v2.228A2.886 2.886 0 0 1 42.614 89H10.387A2.886 2.886 0 0 1 7.5 86.114v-2.228Z"
        />
        <circle cx="14.5" cy="85" r="1" fill="#140D4B" />
        <circle cx="19.5" cy="85" r="1" fill="#140D4B" />
        <circle cx="24.5" cy="85" r="1" fill="#140D4B" />
        <circle cx="29.5" cy="85" r="1" fill="#140D4B" />
        <circle cx="34.5" cy="85" r="1" fill="#140D4B" />
        <circle cx="39.5" cy="85" r="1" fill="#140D4B" />
    </g>
    <defs>
        <linearGradient id="b" x1="115.668" x2="115.668" y1="-10.5" y2="108" gradientUnits="userSpaceOnUse">
            <stop stop-color="#6447D9" />
            <stop offset="1" stop-color="#1C0D59" />
        </linearGradient>
        <linearGradient id="c" x1="118.308" x2="131.342" y1="11.069" y2="71.682" gradientUnits="userSpaceOnUse">
            <stop stop-color="#ECAAFF" />
            <stop offset="1" stop-color="#6A48F6" />
        </linearGradient>
        <linearGradient id="d" x1="116.285" x2="116.285" y1="37.399" y2="75" gradientUnits="userSpaceOnUse">
            <stop stop-color="#fff" stop-opacity=".8" />
            <stop offset="1" stop-color="#E1EBF2" />
        </linearGradient>
        <linearGradient id="e" x1="116.285" x2="116.285" y1="37.399" y2="75" gradientUnits="userSpaceOnUse">
            <stop stop-color="#fff" stop-opacity=".8" />
            <stop offset="1" stop-color="#E1EBF2" />
        </linearGradient>
        <linearGradient id="g" x1="217.863" x2="164.17" y1="26" y2="26" gradientUnits="userSpaceOnUse">
            <stop stop-color="#FF7171" />
            <stop offset="1" stop-color="#E63757" />
        </linearGradient>
        <linearGradient id="i" x1="27.137" x2="27.137" y1="23.417" y2="147.567" gradientUnits="userSpaceOnUse">
            <stop stop-color="#6447D9" />
            <stop offset="1" stop-color="#1C0D59" />
        </linearGradient>
        <linearGradient id="j" x1="27.161" x2="27.161" y1="79.242" y2="132.36" gradientUnits="userSpaceOnUse">
            <stop stop-color="#fff" />
            <stop offset="1" stop-color="#EDEDED" stop-opacity=".92" />
        </linearGradient>
        <linearGradient id="k" x1="28.654" x2="35.171" y1="34.035" y2="64.341" gradientUnits="userSpaceOnUse">
            <stop stop-color="#ECAAFF" />
            <stop offset="1" stop-color="#6A48F6" />
        </linearGradient>
        <linearGradient id="l" x1="27.642" x2="27.642" y1="47.2" y2="66" gradientUnits="userSpaceOnUse">
            <stop stop-color="#fff" stop-opacity=".8" />
            <stop offset="1" stop-color="#E1EBF2" />
        </linearGradient>
        <linearGradient id="m" x1="27.642" x2="27.642" y1="47.2" y2="66" gradientUnits="userSpaceOnUse">
            <stop stop-color="#fff" stop-opacity=".8" />
            <stop offset="1" stop-color="#E1EBF2" />
        </linearGradient>
        <filter
            id="f"
            width="46.624"
            height="46.624"
            x="156.688"
            y="16.688"
            color-interpolation-filters="sRGB"
            filterUnits="userSpaceOnUse"
        >
            <feFlood flood-opacity="0" result="BackgroundImageFix" />
            <feBlend in="SourceGraphic" in2="BackgroundImageFix" result="shape" />
            <feGaussianBlur result="effect1_foregroundBlur_35506_25674" stdDeviation="5.656" />
        </filter>
        <filter
            id="h"
            width="57.624"
            height="105.625"
            x="7.688"
            y="16.688"
            color-interpolation-filters="sRGB"
            filterUnits="userSpaceOnUse"
        >
            <feFlood flood-opacity="0" result="BackgroundImageFix" />
            <feBlend in="SourceGraphic" in2="BackgroundImageFix" result="shape" />
            <feGaussianBlur result="effect1_foregroundBlur_35506_25674" stdDeviation="5.656" />
        </filter>
        <clipPath id="a"><path fill="#fff" d="M0 0h220v120H0z" /></clipPath>
    </defs>
</svg>
