<svg xmlns="http://www.w3.org/2000/svg" width="346" height="160" fill="none" viewBox="0 0 346 160">
    <path
        fill="#F0EDE6"
        d="M85.68 28.433A9.433 9.433 0 0195.113 19h165.873a9.434 9.434 0 019.434 9.433v10.22H85.68v-10.22z"
    />
    <path
        fill="url(#paint0_linear_5741_18642)"
        d="M85.68 38.654h184.74v96.914c0 5.21-4.224 9.433-9.434 9.433H95.113a9.433 9.433 0 01-9.433-9.433V38.654z"
    />
    <path
        fill="#F0EDE6"
        fill-rule="evenodd"
        d="M260.986 20.4H95.113a8.033 8.033 0 00-8.033 8.034v107.132a8.034 8.034 0 008.033 8.034h165.873a8.034 8.034 0 008.034-8.034V28.433a8.034 8.034 0 00-8.034-8.033zM95.113 19a9.433 9.433 0 00-9.433 9.433v107.133A9.434 9.434 0 0095.113 145h165.873a9.434 9.434 0 009.434-9.434V28.433A9.434 9.434 0 00260.986 19H95.113z"
        clip-rule="evenodd"
    />
    <circle cx="98.258" cy="29.219" r="3.145" fill="#CCC8C0" />
    <circle cx="107.691" cy="29.219" r="3.145" fill="#CCC8C0" />
    <circle cx="117.125" cy="29.219" r="3.145" fill="#CCC8C0" />
    <path fill="#F0EDE6" d="M177.543 120h2v24h-2v-24z" />
    <path fill="#5338C0" d="M184.927 130h-12.905l3.475-6.977h5.928l3.502 6.977z" />
    <path
        fill="url(#paint1_linear_5741_18642)"
        d="M226.235 58.42c0 30.608-24.79 65.458-47.787 65.458s-47.76-34.85-47.76-65.458c0-30.608 21.398-52.42 47.788-52.42 26.389 0 47.759 21.784 47.759 52.42z"
    />
    <ellipse
        cx="156.372"
        cy="37.856"
        fill="url(#paint2_linear_5741_18642)"
        rx="12.245"
        ry="18.93"
        transform="rotate(39.424 156.372 37.856)"
    />
    <path
        fill="url(#paint3_linear_5741_18642)"
        d="M246 26c0-14.36 11.641-26 26-26s26 11.64 26 26-11.641 26-26 26-26-11.64-26-26z"
    />
    <path
        fill="#fff"
        fill-rule="evenodd"
        d="M282.496 18.5c.668.672.672 1.764.01 2.44l-12.299 12.55a1.693 1.693 0 01-2.419 0l-6.294-6.421a1.742 1.742 0 01.01-2.44 1.69 1.69 0 012.41.009l5.083 5.187 11.089-11.315a1.69 1.69 0 012.41-.01z"
        clip-rule="evenodd"
    />
    <path
        fill="#55E5B2"
        d="M45.305 36.044l-1.868-1.435a1 1 0 00-1.402.184l-7.426 9.67a1 1 0 00.184 1.402l1.869 1.435a1 1 0 001.402-.184l7.425-9.67a1 1 0 00-.184-1.402z"
    />
    <path
        fill="#6847F2"
        d="M82.219 77.926l-1.168 1.028a1.4 1.4 0 00-.126 1.976l7.528 8.55a1.4 1.4 0 001.976.127l1.168-1.028a1.4 1.4 0 00.126-1.976l-7.528-8.551a1.4 1.4 0 00-1.976-.126z"
    />
    <path fill="#FF69B8" d="M54.05 119.098a3.049 3.049 0 100-6.098 3.049 3.049 0 000 6.098z" />
    <path fill="#59CA6C" d="M342.049 98.098a3.049 3.049 0 100-6.098 3.049 3.049 0 000 6.098z" />
    <path fill="#FFB7B7" d="M75.425 4h-4.283L69 7.702l2.142 3.74h4.283l2.178-3.74L75.425 4z" />
    <path
        fill="#321E86"
        d="M7.832 67.07a1 1 0 00-1.72.208l-2.503 5.893a1 1 0 001.041 1.383l6.337-.769a1 1 0 00.68-1.592L7.832 67.07z"
    />
    <path
        fill="#FFD585"
        d="M247.248 63.24l-2.189-.87a1 1 0 00-1.299.56l-3.391 8.53a1 1 0 00.56 1.299l2.19.87a1 1 0 001.298-.56l3.391-8.53a1 1 0 00-.56-1.3z"
    />
    <path
        fill="#C867F5"
        d="M316.107 68.963l-1.105-2.08a1 1 0 00-1.353-.414l-10.766 5.723a1 1 0 00-.414 1.353l1.106 2.08a1 1 0 001.352.413l10.767-5.722a1 1 0 00.413-1.353z"
    />
    <path
        fill="#321E86"
        d="M342.714 22.5a1 1 0 00-.866-.5h-3.13a1 1 0 00-.865.5l-1.565 2.704a1.001 1.001 0 00-.002.998l1.568 2.736a1 1 0 00.867.503h3.124a1 1 0 00.868-.503l1.567-2.736a.997.997 0 00-.002-.998l-1.564-2.705z"
    />
    <path
        fill="#FF69B8"
        d="M316.113 127.558a1.5 1.5 0 00-2.412-.956l-3.654 2.882a1.5 1.5 0 00.377 2.572l4.341 1.716a1.5 1.5 0 002.035-1.616l-.687-4.598z"
    />
    <path
        fill="url(#paint4_linear_5741_18642)"
        d="M114 128h-14v28.979c0 2.27 2.423 3.717 4.422 2.642l8.156-4.39a3.005 3.005 0 012.844 0l8.156 4.39c1.999 1.075 4.422-.372 4.422-2.642V128h-14z"
    />
    <path
        fill="url(#paint5_linear_5741_18642)"
        d="M114 141c10.493 0 19-8.507 19-19s-8.507-19-19-19-19 8.507-19 19 8.507 19 19 19z"
    />
    <path
        fill="#040404"
        d="M114 133c6.075 0 11-4.925 11-11s-4.925-11-11-11-11 4.925-11 11 4.925 11 11 11z"
        opacity=".2"
    />
    <g>
        <path
            fill="#fff"
            stroke="#fff"
            d="M161.348 51.095a.8.8 0 011.311-.616L176.7 62.14a3.6 3.6 0 004.6 0l14.041-11.66a.8.8 0 011.311.615v23.913a3.6 3.6 0 01-3.6 3.6h-28.104a3.6 3.6 0 01-3.6-3.6V51.095z"
        />
        <path
            fill="#B68CFF"
            fill-rule="evenodd"
            stroke="#fff"
            d="M183.766 60.092l.002.002-7.045 6.223a3.246 3.246 0 01-4.225.063l-11.15-9.274V51.12a.812.812 0 011.33-.625l13.989 11.617a3.651 3.651 0 004.666 0l2.433-2.02z"
            clip-rule="evenodd"
        />
        <path
            fill="#9B74FF"
            fill-rule="evenodd"
            stroke="#fff"
            d="M189.145 55.625v22.983H193a3.652 3.652 0 003.652-3.652V51.12a.811.811 0 00-1.33-.624l-6.177 5.13z"
            clip-rule="evenodd"
        />
    </g>
    <defs>
        <linearGradient
            id="paint0_linear_5741_18642"
            x1="178.05"
            x2="178.05"
            y1="63.445"
            y2="145.001"
            gradientUnits="userSpaceOnUse"
        >
            <stop stop-color="#fff" />
            <stop offset="1" stop-color="#FDFEFE" />
        </linearGradient>
        <linearGradient
            id="paint1_linear_5741_18642"
            x1="200.241"
            x2="250.404"
            y1="-8"
            y2="56.466"
            gradientUnits="userSpaceOnUse"
        >
            <stop stop-color="#EEBEFF" />
            <stop offset="1" stop-color="#6D4AFF" />
        </linearGradient>
        <linearGradient
            id="paint2_linear_5741_18642"
            x1="66.726"
            x2="160.636"
            y1="33.468"
            y2="9.736"
            gradientUnits="userSpaceOnUse"
        >
            <stop stop-color="#fff" />
            <stop offset="1" stop-color="#fff" stop-opacity="0" />
        </linearGradient>
        <linearGradient
            id="paint3_linear_5741_18642"
            x1="274.695"
            x2="274.938"
            y1="-3.792"
            y2="52"
            gradientUnits="userSpaceOnUse"
        >
            <stop stop-color="#2AF091" />
            <stop offset="1" stop-color="#00C5A1" />
        </linearGradient>
        <linearGradient
            id="paint4_linear_5741_18642"
            x1="114"
            x2="114"
            y1="128"
            y2="159.983"
            gradientUnits="userSpaceOnUse"
        >
            <stop stop-color="#991F4A" />
            <stop offset="1" stop-color="#FA528E" />
        </linearGradient>
        <linearGradient
            id="paint5_linear_5741_18642"
            x1="114"
            x2="114"
            y1="103"
            y2="141"
            gradientUnits="userSpaceOnUse"
        >
            <stop stop-color="#FF79A9" />
            <stop offset="1" stop-color="#DB2C6B" />
        </linearGradient>
    </defs>
</svg>
