<svg xmlns="http://www.w3.org/2000/svg" width="346" height="160" fill="none" viewBox="0 0 346 160">
    <path
        fill="#F0ECE6"
        d="M85.68 28.433A9.433 9.433 0 0195.113 19h165.873a9.434 9.434 0 019.434 9.433v10.22H85.68v-10.22z"
    />
    <path
        fill="url(#paint0_linear_5741_18641)"
        d="M85.68 38.654h184.74v96.914c0 5.21-4.224 9.433-9.434 9.433H95.113a9.433 9.433 0 01-9.433-9.433V38.654z"
    />
    <path
        fill="#F0EDE6"
        fill-rule="evenodd"
        d="M260.986 20.4H95.113a8.033 8.033 0 00-8.033 8.034v107.132a8.034 8.034 0 008.033 8.034h165.873a8.034 8.034 0 008.034-8.034V28.433a8.034 8.034 0 00-8.034-8.033zM95.113 19a9.433 9.433 0 00-9.433 9.433v107.133A9.434 9.434 0 0095.113 145h165.873a9.434 9.434 0 009.434-9.434V28.433A9.434 9.434 0 00260.986 19H95.113z"
        clip-rule="evenodd"
    />
    <circle cx="98.258" cy="29.219" r="3.145" fill="#CCC8C0" />
    <circle cx="107.691" cy="29.219" r="3.145" fill="#CCC8C0" />
    <circle cx="117.125" cy="29.219" r="3.145" fill="#CCC8C0" />
    <path fill="#F0EDE6" d="M177.543 120h2v24h-2v-24z" />
    <path fill="#5338C0" d="M184.927 130h-12.905l3.475-6.977h5.928l3.502 6.977z" />
    <path
        fill="url(#paint1_linear_5741_18641)"
        d="M226.235 58.42c0 30.608-24.79 65.458-47.787 65.458s-47.76-34.85-47.76-65.458c0-30.608 21.398-52.42 47.788-52.42 26.389 0 47.759 21.784 47.759 52.42z"
    />
    <ellipse
        cx="156.372"
        cy="37.856"
        fill="url(#paint2_linear_5741_18641)"
        rx="12.245"
        ry="18.93"
        transform="rotate(39.424 156.372 37.856)"
    />
    <path
        fill="url(#paint3_linear_5741_18641)"
        d="M246 26c0-14.36 11.641-26 26-26s26 11.64 26 26-11.641 26-26 26-26-11.64-26-26z"
    />
    <path
        fill="#fff"
        fill-rule="evenodd"
        d="M277.845 18.684v2.45h2.387c.816 0 1.507.66 1.507 1.507v12.781c0 .817-.659 1.508-1.507 1.508h-16.11c-.817 0-1.508-.66-1.508-1.508v-12.78c0-.817.66-1.508 1.508-1.508h2.355v-2.45A5.682 5.682 0 01272.161 13a5.683 5.683 0 015.684 5.684zm-2.394 0v2.45h-6.518v-2.45c0-2.261 1.727-3.26 3.259-3.26 1.532 0 3.259.999 3.259 3.26zm-2.97 6.721c1.1 0 1.979.88 1.979 1.979 0 .753-.408 1.413-1.036 1.727l.816 3.517h-3.517l.816-3.517c-.628-.346-1.036-.974-1.036-1.727 0-1.1.879-1.979 1.978-1.979z"
        clip-rule="evenodd"
    />
    <path
        fill="#55E5B2"
        d="M45.305 36.044l-1.868-1.435a1 1 0 00-1.402.184l-7.426 9.67a1 1 0 00.184 1.402l1.869 1.435a1 1 0 001.402-.184l7.425-9.67a1 1 0 00-.184-1.402z"
    />
    <path
        fill="#6847F2"
        d="M82.219 77.926l-1.168 1.028a1.4 1.4 0 00-.126 1.976l7.528 8.55a1.4 1.4 0 001.976.127l1.168-1.028a1.4 1.4 0 00.126-1.976l-7.528-8.551a1.4 1.4 0 00-1.976-.126z"
    />
    <path fill="#FF69B8" d="M54.05 119.098a3.049 3.049 0 100-6.098 3.049 3.049 0 000 6.098z" />
    <path fill="#59CA6C" d="M342.049 98.098a3.049 3.049 0 100-6.098 3.049 3.049 0 000 6.098z" />
    <path fill="#FFB7B7" d="M75.425 4h-4.283L69 7.702l2.142 3.74h4.283l2.178-3.74L75.425 4z" />
    <path
        fill="#321E86"
        d="M7.832 67.07a1 1 0 00-1.72.208l-2.503 5.893a1 1 0 001.041 1.383l6.337-.769a1 1 0 00.68-1.592L7.832 67.07z"
    />
    <path
        fill="#FFD585"
        d="M247.248 63.24l-2.189-.87a1 1 0 00-1.299.56l-3.391 8.53a1 1 0 00.56 1.299l2.19.87a1 1 0 001.298-.56l3.391-8.53a1 1 0 00-.56-1.3z"
    />
    <path
        fill="#C867F5"
        d="M316.107 68.963l-1.105-2.08a1 1 0 00-1.353-.414l-10.766 5.723a1 1 0 00-.414 1.353l1.106 2.08a1 1 0 001.352.413l10.767-5.722a1 1 0 00.413-1.353z"
    />
    <path
        fill="#321E86"
        d="M342.714 22.5a1 1 0 00-.866-.5h-3.13a1 1 0 00-.865.5l-1.565 2.704a1.001 1.001 0 00-.002.998l1.568 2.736a1 1 0 00.867.503h3.124a1 1 0 00.868-.503l1.567-2.736a.997.997 0 00-.002-.998l-1.564-2.705z"
    />
    <path
        fill="#FF69B8"
        d="M316.113 127.558a1.5 1.5 0 00-2.412-.956l-3.654 2.882a1.5 1.5 0 00.377 2.572l4.341 1.716a1.5 1.5 0 002.035-1.616l-.687-4.598z"
    />
    <path
        fill="url(#paint4_linear_5741_18641)"
        d="M114 128h-14v28.979c0 2.27 2.423 3.717 4.422 2.642l8.156-4.39a3.005 3.005 0 012.844 0l8.156 4.39c1.999 1.075 4.422-.372 4.422-2.642V128h-14z"
    />
    <path
        fill="url(#paint5_linear_5741_18641)"
        d="M114 141c10.493 0 19-8.507 19-19s-8.507-19-19-19-19 8.507-19 19 8.507 19 19 19z"
    />
    <path
        fill="#040404"
        d="M114 133c6.075 0 11-4.925 11-11s-4.925-11-11-11-11 4.925-11 11 4.925 11 11 11z"
        opacity=".2"
    />
    <g>
        <path
            fill="#fff"
            stroke="#fff"
            stroke-width="1.014"
            d="M182.543 81.54c-1.299 1.98-4.238 1.868-5.382-.205l-13.585-24.612c-1.235-2.238.573-4.936 3.112-4.645l27.654 3.171c2.327.267 3.556 2.892 2.271 4.85l-14.07 21.441z"
        />
        <mask id="a" fill="#fff">
            <path
                fill-rule="evenodd"
                d="M178.706 77.535l-1.197 1.8a1.217 1.217 0 01-2.079-.086l1.287 2.331c.229.416.521.764.854 1.043 1.597 1.337 4.148 1.097 5.396-.805l14.07-21.44c1.492-2.275.065-5.323-2.637-5.633l-27.654-3.171c-2.949-.338-5.048 2.795-3.614 5.393l.109.198 23.539 2.724c1.5.173 2.291 1.867 1.462 3.129l-9.536 14.517z"
                clip-rule="evenodd"
            />
        </mask>
        <path
            fill="url(#paint6_linear_5741_18641)"
            fill-rule="evenodd"
            d="M178.706 77.535l-1.197 1.8a1.217 1.217 0 01-2.079-.086l1.287 2.331c.229.416.521.764.854 1.043 1.597 1.337 4.148 1.097 5.396-.805l14.07-21.44c1.492-2.275.065-5.323-2.637-5.633l-27.654-3.171c-2.949-.338-5.048 2.795-3.614 5.393l.109.198 23.539 2.724c1.5.173 2.291 1.867 1.462 3.129l-9.536 14.517z"
            clip-rule="evenodd"
        />
        <path
            fill="#fff"
            d="M177.509 79.335l.845.562-.845-.562zm1.197-1.8l.845.562.003-.005-.848-.557zm-3.276 1.714l.888-.49-1.776.98.888-.49zm1.287 2.331l.888-.49-.888.49zm.854 1.043l-.651.778 1.149.963.466-1.426-.964-.315zm0 0l.652-.778-1.15-.963-.466 1.426.964.315zm5.396-.805l.849.557-.849-.557zm14.07-21.44l.848.556-.848-.557zm-2.637-5.633l-.116 1.008.116-1.008zm-27.654-3.171l.115-1.008-.115 1.008zm-3.614 5.393l-.888.49.888-.49zm.109.198l-.888.49.252.458.52.06.116-1.008zm23.539 2.724l-.117 1.007.117-1.008zm1.462 3.129l.848.557-.848-.557zm-9.888 16.879l1.197-1.8-1.689-1.124-1.198 1.8 1.69 1.124zm-3.812-.158c.809 1.466 2.884 1.552 3.812.157l-1.69-1.123a.202.202 0 01-.346-.015l-1.776.981zm3.063 1.351l-1.287-2.332-1.776.981 1.287 2.332 1.776-.98zm.618.756c-.238-.2-.449-.45-.618-.756l-1.776.98c.29.526.662.972 1.091 1.33l1.303-1.554zm-1.616.462l1.928.63h.001l-1.929-.63zm.313 1.092c2.037 1.706 5.297 1.411 6.896-1.025l-1.697-1.113c-.897 1.368-2.74 1.551-3.896.583L176.92 83.4zm6.896-1.025l14.069-21.441-1.696-1.113-14.07 21.44 1.697 1.114zm14.069-21.441c1.907-2.906.083-6.8-3.37-7.197l-.231 2.016c1.951.224 2.982 2.425 1.905 4.068l1.696 1.113zm-3.37-7.197l-27.654-3.17-.231 2.015 27.654 3.171.231-2.016zm-27.654-3.17c-3.767-.433-6.45 3.57-4.617 6.89l1.776-.98c-1.036-1.876.481-4.14 2.61-3.895l.231-2.016zm-4.617 6.89l.109.198 1.776-.98-.109-.198-1.776.98zm.881.716l23.538 2.723.233-2.015-23.538-2.724-.233 2.016zm23.538 2.723c.75.087 1.146.934.731 1.565l1.696 1.114c1.244-1.894.057-4.434-2.194-4.694l-.233 2.015zm.731 1.565l-9.536 14.517 1.696 1.114 9.536-14.517-1.696-1.114z"
            mask="url(#a)"
        />
    </g>
    <defs>
        <linearGradient
            id="paint0_linear_5741_18641"
            x1="178.05"
            x2="178.05"
            y1="65.776"
            y2="155.001"
            gradientUnits="userSpaceOnUse"
        >
            <stop stop-color="#fff" />
            <stop offset="1" stop-color="#FDFEFE" />
        </linearGradient>
        <linearGradient
            id="paint1_linear_5741_18641"
            x1="200.241"
            x2="250.404"
            y1="-8"
            y2="56.466"
            gradientUnits="userSpaceOnUse"
        >
            <stop stop-color="#EEBEFF" />
            <stop offset="1" stop-color="#6D4AFF" />
        </linearGradient>
        <linearGradient
            id="paint2_linear_5741_18641"
            x1="66.726"
            x2="160.636"
            y1="33.468"
            y2="9.736"
            gradientUnits="userSpaceOnUse"
        >
            <stop stop-color="#fff" />
            <stop offset="1" stop-color="#fff" stop-opacity="0" />
        </linearGradient>
        <linearGradient
            id="paint3_linear_5741_18641"
            x1="277.571"
            x2="250.5"
            y1="0"
            y2="59.5"
            gradientUnits="userSpaceOnUse"
        >
            <stop stop-color="#FFD66C" />
            <stop offset="1" stop-color="#FF8E4F" />
        </linearGradient>
        <linearGradient
            id="paint4_linear_5741_18641"
            x1="114"
            x2="114"
            y1="128"
            y2="159.983"
            gradientUnits="userSpaceOnUse"
        >
            <stop stop-color="#991F4A" />
            <stop offset="1" stop-color="#FA528E" />
        </linearGradient>
        <linearGradient
            id="paint5_linear_5741_18641"
            x1="114"
            x2="114"
            y1="103"
            y2="141"
            gradientUnits="userSpaceOnUse"
        >
            <stop stop-color="#FF79A9" />
            <stop offset="1" stop-color="#DB2C6B" />
        </linearGradient>
        <linearGradient
            id="paint6_linear_5741_18641"
            x1="180.155"
            x2="180.155"
            y1="56.5"
            y2="83.467"
            gradientUnits="userSpaceOnUse"
        >
            <stop stop-color="#A77EFF" />
            <stop offset="1" stop-color="#8F69FF" />
        </linearGradient>
    </defs>
</svg>
