<svg xmlns="http://www.w3.org/2000/svg" width="162" height="162" fill="none" viewBox="0 0 162 162">
    <path
        fill="url(#paint0_linear_5741_18658)"
        d="M162 81c0 44.735-36.265 81-81 81S0 125.735 0 81 36.265 0 81 0s81 36.265 81 81z"
    />
    <path
        fill="#fff"
        fill-rule="evenodd"
        d="M59 103a2 2 0 002 2h40a2 2 0 002-2V79a3 3 0 013-3h14.926c1.816 0 2.692-2.224 1.365-3.462L83.047 35.91a3 3 0 00-4.094 0L39.71 72.538C38.383 73.776 39.26 76 41.074 76H56a3 3 0 013 3v24z"
        clip-rule="evenodd"
    />
    <path fill="#fff" d="M103 114a2 2 0 00-2-2H61a2 2 0 00-2 2v3a2 2 0 002 2h40a2 2 0 002-2v-3z" />
    <defs>
        <linearGradient
            id="paint0_linear_5741_18658"
            x1="149.538"
            x2="95.019"
            y1="-48.288"
            y2="146.423"
            gradientUnits="userSpaceOnUse"
        >
            <stop stop-color="#4CFED3" />
            <stop offset="1" stop-color="#00C1FE" />
        </linearGradient>
    </defs>
</svg>
