<svg width="352" height="112" viewBox="0 0 352 112" fill="none" xmlns="http://www.w3.org/2000/svg">
    <path
        d="M78.806 80.0001H1.19396C0.524179 80.0001 0 79.4156 0 78.6688V77.922C0 77.1752 0.524179 76.5907 1.19396 76.5907H78.806C79.4758 76.5907 80 77.1752 80 77.922V78.6688C80 79.4156 79.4467 80.0001 78.806 80.0001Z"
        fill="url(#paint0_linear_9378_396863)"
    />
    <path
        d="M43.4508 78.474H36.2287C35.2969 78.474 34.5688 77.6297 34.5688 76.6232H45.1107C45.1107 77.6297 44.3826 78.474 43.4508 78.474Z"
        fill="#D1CFCD"
    />
    <path
        d="M71.7082 76.5907H7.7085V35.8964C7.7085 33.7534 9.28103 32 11.203 32H68.2137C70.1357 32 71.7082 33.7534 71.7082 35.8964V76.5907Z"
        fill="#372580"
    />
    <path
        d="M69.0005 76.5907H10.7085V36.5133C10.7085 35.9938 11.0871 35.5717 11.553 35.5717H68.1269C68.5928 35.5717 68.9714 35.9938 68.9714 36.5133V76.5907H69.0005Z"
        fill="white"
    />
    <mask
        id="mask0_9378_396863"
        style="mask-type: alpha"
        maskUnits="userSpaceOnUse"
        x="20"
        y="33"
        width="52"
        height="37"
    >
        <path d="M71.0811 33.0427L25.38 33.0427L20.4742 69.3171L71.0811 58.8565V33.0427Z" fill="#C4C4C4" />
    </mask>
    <g mask="url(#mask0_9378_396863)">
        <g opacity="0.3" filter="url(#filter0_f_9378_396863)">
            <path
                d="M56.1318 23.1343L78.311 28.8717V49.0315V49.0315C66.258 49.6756 56.1318 40.0761 56.1318 28.006V23.1343Z"
                fill="#221548"
            />
        </g>
    </g>
    <rect x="13.5859" y="41.5217" width="8" height="8" rx="3" fill="#E7E3E0" />
    <path
        d="M26.9077 42.472C26.9077 41.9472 27.3332 41.5217 27.858 41.5217H63.5813C64.1061 41.5217 64.5316 41.9472 64.5316 42.472V42.472C64.5316 42.9969 64.1061 43.4223 63.5813 43.4223H27.858C27.3332 43.4223 26.9077 42.9969 26.9077 42.472V42.472Z"
        fill="#E7E3E0"
    />
    <path
        d="M26.9077 46.6537C26.9077 46.1288 27.3332 45.7034 27.858 45.7034H63.5813C64.1061 45.7034 64.5316 46.1288 64.5316 46.6537V46.6537C64.5316 47.1785 64.1061 47.604 63.5813 47.604H27.858C27.3332 47.604 26.9077 47.1785 26.9077 46.6537V46.6537Z"
        fill="#E7E3E0"
    />
    <path
        d="M26.9077 50.8351C26.9077 50.3102 27.3332 49.8848 27.858 49.8848H39.5789C40.1037 49.8848 40.5292 50.3102 40.5292 50.8351V50.8351C40.5292 51.3599 40.1037 51.7854 39.5789 51.7854H27.858C27.3332 51.7854 26.9077 51.3599 26.9077 50.8351V50.8351Z"
        fill="#E7E3E0"
    />
    <rect x="13.5859" y="58.6606" width="7.13409" height="8" rx="3" fill="#E7E3E0" />
    <path
        d="M26.9077 59.6108C26.9077 59.086 27.3332 58.6605 27.858 58.6605H63.5813C64.1061 58.6605 64.5316 59.086 64.5316 59.6108V59.6108C64.5316 60.1357 64.1061 60.5611 63.5813 60.5611H27.858C27.3332 60.5611 26.9077 60.1357 26.9077 59.6108V59.6108Z"
        fill="#E7E3E0"
    />
    <path
        d="M26.9077 63.7922C26.9077 63.2674 27.3332 62.8419 27.858 62.8419H63.5813C64.1061 62.8419 64.5316 63.2674 64.5316 63.7922V63.7922C64.5316 64.3171 64.1061 64.7425 63.5813 64.7425H27.858C27.3332 64.7425 26.9077 64.3171 26.9077 63.7922V63.7922Z"
        fill="#E7E3E0"
    />
    <path
        d="M26.9077 67.9737C26.9077 67.4489 27.3332 67.0234 27.858 67.0234H39.5789C40.1037 67.0234 40.5292 67.4489 40.5292 67.9737V67.9737C40.5292 68.4986 40.1037 68.924 39.5789 68.924H27.858C27.3332 68.924 26.9077 68.4986 26.9077 67.9737V67.9737Z"
        fill="#E7E3E0"
    />
    <path
        fill-rule="evenodd"
        clip-rule="evenodd"
        d="M165 40H165.2H170.8H171C171 38.3431 169.657 37 168 37C166.343 37 165 38.3431 165 40ZM164 40V40.0192C163.608 40.0431 163.33 40.097 163.092 40.218C162.716 40.4097 162.41 40.7157 162.218 41.092C162 41.5198 162 42.0799 162 43.2V46.8C162 47.9201 162 48.4802 162.218 48.908C162.41 49.2843 162.716 49.5903 163.092 49.782C163.52 50 164.08 50 165.2 50H170.8C171.92 50 172.48 50 172.908 49.782C173.284 49.5903 173.59 49.2843 173.782 48.908C174 48.4802 174 47.9201 174 46.8V43.2C174 42.0799 174 41.5198 173.782 41.092C173.59 40.7157 173.284 40.4097 172.908 40.218C172.67 40.097 172.392 40.0431 172 40.0192V40C172 37.7909 170.209 36 168 36C165.791 36 164 37.7909 164 40ZM163.968 41.0239C164.251 41.0008 164.623 41 165.2 41H170.8C171.377 41 171.749 41.0008 172.032 41.0239C172.304 41.0461 172.405 41.0838 172.454 41.109C172.642 41.2049 172.795 41.3578 172.891 41.546C172.916 41.5955 172.954 41.6962 172.976 41.9678C172.999 42.2512 173 42.6234 173 43.2V46.8C173 47.3766 172.999 47.7488 172.976 48.0322C172.954 48.3038 172.916 48.4045 172.891 48.454C172.795 48.6422 172.642 48.7951 172.454 48.891C172.405 48.9162 172.304 48.9539 172.032 48.9761C171.749 48.9992 171.377 49 170.8 49H165.2C164.623 49 164.251 48.9992 163.968 48.9761C163.696 48.9539 163.595 48.9162 163.546 48.891C163.358 48.7951 163.205 48.6422 163.109 48.454C163.084 48.4045 163.046 48.3038 163.024 48.0322C163.001 47.7488 163 47.3766 163 46.8V43.2C163 42.6234 163.001 42.2512 163.024 41.9678C163.046 41.6962 163.084 41.5955 163.109 41.546C163.205 41.3578 163.358 41.2049 163.546 41.109C163.595 41.0838 163.696 41.0461 163.968 41.0239ZM169 44C169 44.3821 168.786 44.7142 168.471 44.8826L168.907 46.6272C168.954 46.8166 168.811 47 168.616 47H167.384C167.189 47 167.046 46.8166 167.093 46.6272L167.529 44.8826C167.214 44.7142 167 44.3821 167 44C167 43.4477 167.448 43 168 43C168.552 43 169 43.4477 169 44Z"
        fill="#706D6B"
    />
    <path
        d="M226.803 59.1315L226.803 54.8685C226.803 54.0698 227.693 53.5934 228.357 54.0365L231.555 56.1679C232.148 56.5638 232.148 57.4362 231.555 57.832L228.357 59.9635C227.693 60.4066 226.803 59.9302 226.803 59.1315Z"
        fill="#C2BFBC"
    />
    <path d="M226.803 57L104 57" stroke="#C2BFBC" stroke-width="2" stroke-linecap="round" stroke-dasharray="0.1 5" />
    <path
        d="M149.315 72.0283V73H145.541V72.0283H149.315ZM145.887 65.8906V73H144.662V65.8906H145.887ZM148.822 68.8594V69.8164H145.541V68.8594H148.822ZM149.291 65.8906V66.8672H145.541V65.8906H149.291ZM151.766 68.8447V73H150.589V67.7168H151.697L151.766 68.8447ZM151.556 70.1631L151.175 70.1582C151.178 69.7839 151.23 69.4404 151.331 69.1279C151.435 68.8154 151.579 68.5469 151.761 68.3223C151.946 68.0977 152.168 67.9251 152.425 67.8047C152.682 67.681 152.969 67.6191 153.284 67.6191C153.538 67.6191 153.768 67.6549 153.973 67.7266C154.181 67.7949 154.359 67.9072 154.505 68.0635C154.655 68.2197 154.769 68.4232 154.847 68.6738C154.925 68.9212 154.964 69.2256 154.964 69.5869V73H153.782V69.582C153.782 69.3281 153.745 69.1279 153.67 68.9814C153.599 68.8317 153.493 68.7259 153.353 68.6641C153.216 68.599 153.045 68.5664 152.84 68.5664C152.638 68.5664 152.458 68.6087 152.298 68.6934C152.139 68.778 152.003 68.8936 151.893 69.04C151.785 69.1865 151.702 69.3558 151.644 69.5479C151.585 69.7399 151.556 69.945 151.556 70.1631ZM158.723 72.1602C158.915 72.1602 159.088 72.1227 159.241 72.0479C159.397 71.9697 159.523 71.8623 159.617 71.7256C159.715 71.5889 159.768 71.431 159.778 71.252H160.887C160.88 71.5938 160.779 71.9046 160.584 72.1846C160.388 72.4645 160.13 72.6875 159.807 72.8535C159.485 73.0163 159.129 73.0977 158.738 73.0977C158.334 73.0977 157.983 73.0293 157.683 72.8926C157.384 72.7526 157.135 72.5605 156.936 72.3164C156.738 72.0723 156.588 71.7907 156.487 71.4717C156.389 71.1527 156.341 70.8109 156.341 70.4463V70.2754C156.341 69.9108 156.389 69.569 156.487 69.25C156.588 68.9277 156.738 68.6445 156.936 68.4004C157.135 68.1562 157.384 67.9658 157.683 67.8291C157.983 67.6891 158.333 67.6191 158.733 67.6191C159.156 67.6191 159.527 67.7038 159.846 67.873C160.165 68.0391 160.416 68.2718 160.598 68.5713C160.784 68.8675 160.88 69.2126 160.887 69.6064H159.778C159.768 69.4111 159.72 69.2354 159.632 69.0791C159.547 68.9196 159.427 68.7926 159.27 68.6982C159.117 68.6038 158.933 68.5566 158.719 68.5566C158.481 68.5566 158.284 68.6055 158.128 68.7031C157.971 68.7975 157.849 68.9277 157.762 69.0938C157.674 69.2565 157.61 69.4404 157.571 69.6455C157.535 69.8473 157.517 70.0573 157.517 70.2754V70.4463C157.517 70.6644 157.535 70.876 157.571 71.0811C157.607 71.2861 157.669 71.4701 157.757 71.6328C157.848 71.7923 157.971 71.9209 158.128 72.0186C158.284 72.113 158.483 72.1602 158.723 72.1602ZM163.371 68.7227V73H162.195V67.7168H163.318L163.371 68.7227ZM164.988 67.6826L164.978 68.7764C164.906 68.7633 164.828 68.7536 164.744 68.7471C164.662 68.7406 164.581 68.7373 164.499 68.7373C164.298 68.7373 164.12 68.7666 163.967 68.8252C163.814 68.8805 163.686 68.9619 163.581 69.0693C163.481 69.1735 163.402 69.3005 163.347 69.4502C163.292 69.5999 163.259 69.7676 163.249 69.9531L162.981 69.9727C162.981 69.6406 163.013 69.333 163.079 69.0498C163.144 68.7666 163.241 68.5176 163.371 68.3027C163.505 68.0879 163.671 67.9202 163.87 67.7998C164.071 67.6794 164.304 67.6191 164.568 67.6191C164.639 67.6191 164.716 67.6257 164.797 67.6387C164.882 67.6517 164.945 67.6663 164.988 67.6826ZM167.746 72.4238L169.182 67.7168H170.441L168.322 73.8057C168.273 73.9359 168.21 74.0775 168.132 74.2305C168.054 74.3835 167.951 74.5283 167.824 74.665C167.701 74.805 167.546 74.9173 167.36 75.002C167.175 75.0898 166.95 75.1338 166.687 75.1338C166.582 75.1338 166.481 75.124 166.384 75.1045C166.289 75.0882 166.2 75.0703 166.115 75.0508L166.11 74.1523C166.143 74.1556 166.182 74.1589 166.228 74.1621C166.276 74.1654 166.315 74.167 166.345 74.167C166.54 74.167 166.703 74.1426 166.833 74.0938C166.963 74.0482 167.069 73.9733 167.15 73.8691C167.235 73.765 167.307 73.625 167.365 73.4492L167.746 72.4238ZM166.936 67.7168L168.19 71.6719L168.4 72.9121L167.585 73.1221L165.666 67.7168H166.936ZM172.697 68.7324V75.0312H171.52V67.7168H172.604L172.697 68.7324ZM176.139 70.3096V70.4121C176.139 70.7962 176.094 71.1527 176.003 71.4814C175.915 71.807 175.783 72.0918 175.607 72.3359C175.435 72.5768 175.221 72.764 174.967 72.8975C174.713 73.0309 174.421 73.0977 174.088 73.0977C173.76 73.0977 173.472 73.0374 173.224 72.917C172.98 72.7933 172.773 72.6191 172.604 72.3945C172.435 72.1699 172.298 71.9062 172.194 71.6035C172.093 71.2975 172.021 70.9622 171.979 70.5977V70.2021C172.021 69.8148 172.093 69.4632 172.194 69.1475C172.298 68.8317 172.435 68.5599 172.604 68.332C172.773 68.1042 172.98 67.9284 173.224 67.8047C173.468 67.681 173.753 67.6191 174.079 67.6191C174.411 67.6191 174.705 67.6842 174.963 67.8145C175.22 67.9414 175.436 68.1237 175.612 68.3613C175.788 68.5957 175.92 68.8789 176.007 69.2109C176.095 69.5397 176.139 69.9059 176.139 70.3096ZM174.963 70.4121V70.3096C174.963 70.0654 174.94 69.8392 174.894 69.6309C174.849 69.4193 174.777 69.2337 174.679 69.0742C174.582 68.9147 174.456 68.791 174.303 68.7031C174.154 68.612 173.973 68.5664 173.761 68.5664C173.553 68.5664 173.374 68.6022 173.224 68.6738C173.074 68.7422 172.949 68.8382 172.848 68.9619C172.747 69.0856 172.669 69.2305 172.614 69.3965C172.559 69.5592 172.519 69.7367 172.497 69.9287V70.876C172.536 71.1104 172.602 71.3252 172.697 71.5205C172.791 71.7158 172.925 71.8721 173.097 71.9893C173.273 72.1032 173.498 72.1602 173.771 72.1602C173.983 72.1602 174.163 72.1146 174.313 72.0234C174.463 71.9323 174.585 71.807 174.679 71.6475C174.777 71.4847 174.849 71.2975 174.894 71.0859C174.94 70.8743 174.963 70.6497 174.963 70.4121ZM179.962 67.7168V68.5762H176.984V67.7168H179.962ZM177.843 66.4229H179.02V71.54C179.02 71.7028 179.043 71.8281 179.088 71.916C179.137 72.0007 179.204 72.0576 179.288 72.0869C179.373 72.1162 179.472 72.1309 179.586 72.1309C179.668 72.1309 179.746 72.126 179.821 72.1162C179.895 72.1064 179.956 72.0967 180.001 72.0869L180.006 72.9854C179.908 73.0146 179.794 73.0407 179.664 73.0635C179.537 73.0863 179.391 73.0977 179.225 73.0977C178.955 73.0977 178.715 73.0505 178.507 72.9561C178.299 72.8584 178.136 72.7005 178.019 72.4824C177.902 72.2643 177.843 71.9746 177.843 71.6133V66.4229ZM183.599 73.0977C183.209 73.0977 182.856 73.0342 182.54 72.9072C182.227 72.777 181.96 72.5964 181.739 72.3652C181.521 72.1341 181.353 71.8623 181.236 71.5498C181.119 71.2373 181.06 70.9004 181.06 70.5391V70.3438C181.06 69.9303 181.121 69.556 181.241 69.2207C181.361 68.8854 181.529 68.599 181.744 68.3613C181.959 68.1204 182.213 67.9365 182.506 67.8096C182.799 67.6826 183.116 67.6191 183.458 67.6191C183.835 67.6191 184.166 67.6826 184.449 67.8096C184.732 67.9365 184.967 68.1156 185.152 68.3467C185.341 68.5745 185.481 68.8464 185.572 69.1621C185.666 69.4779 185.714 69.8262 185.714 70.207V70.71H181.632V69.8652H184.552V69.7725C184.545 69.5609 184.503 69.3623 184.425 69.1768C184.35 68.9912 184.234 68.8415 184.078 68.7275C183.922 68.6136 183.713 68.5566 183.453 68.5566C183.258 68.5566 183.083 68.599 182.93 68.6836C182.781 68.765 182.655 68.8838 182.554 69.04C182.454 69.1963 182.375 69.3851 182.32 69.6064C182.268 69.8245 182.242 70.0703 182.242 70.3438V70.5391C182.242 70.7702 182.273 70.985 182.335 71.1836C182.4 71.3789 182.494 71.5498 182.618 71.6963C182.742 71.8428 182.891 71.9583 183.067 72.043C183.243 72.1243 183.443 72.165 183.668 72.165C183.951 72.165 184.203 72.1081 184.425 71.9941C184.646 71.8802 184.838 71.7191 185.001 71.5107L185.621 72.1113C185.507 72.2773 185.359 72.4368 185.177 72.5898C184.994 72.7396 184.771 72.8617 184.508 72.9561C184.247 73.0505 183.944 73.0977 183.599 73.0977ZM190.254 71.9062V65.5H191.436V73H190.367L190.254 71.9062ZM186.817 70.417V70.3145C186.817 69.9141 186.864 69.5495 186.958 69.2207C187.053 68.8887 187.19 68.6038 187.369 68.3662C187.548 68.1253 187.766 67.9414 188.023 67.8145C188.28 67.6842 188.57 67.6191 188.892 67.6191C189.211 67.6191 189.491 67.681 189.732 67.8047C189.973 67.9284 190.178 68.1058 190.347 68.3369C190.516 68.5648 190.651 68.8382 190.752 69.1572C190.853 69.473 190.925 69.8245 190.967 70.2119V70.5391C190.925 70.9167 190.853 71.2617 190.752 71.5742C190.651 71.8867 190.516 72.1569 190.347 72.3848C190.178 72.6126 189.971 72.7884 189.727 72.9121C189.486 73.0358 189.204 73.0977 188.882 73.0977C188.563 73.0977 188.275 73.0309 188.018 72.8975C187.764 72.764 187.548 72.5768 187.369 72.3359C187.19 72.0951 187.053 71.8118 186.958 71.4863C186.864 71.1576 186.817 70.8011 186.817 70.417ZM187.994 70.3145V70.417C187.994 70.6579 188.015 70.8825 188.057 71.0908C188.103 71.2992 188.173 71.4831 188.267 71.6426C188.361 71.7988 188.483 71.9225 188.633 72.0137C188.786 72.1016 188.968 72.1455 189.18 72.1455C189.447 72.1455 189.667 72.0869 189.839 71.9697C190.012 71.8525 190.147 71.6947 190.245 71.4961C190.345 71.2943 190.414 71.0697 190.45 70.8223V69.9385C190.43 69.7464 190.389 69.5674 190.328 69.4014C190.269 69.2354 190.189 69.0905 190.088 68.9668C189.987 68.8398 189.862 68.7422 189.712 68.6738C189.566 68.6022 189.392 68.5664 189.19 68.5664C188.975 68.5664 188.793 68.612 188.643 68.7031C188.493 68.7943 188.37 68.9196 188.272 69.0791C188.177 69.2386 188.107 69.4242 188.062 69.6357C188.016 69.8473 187.994 70.0736 187.994 70.3145Z"
        fill="#706D6B"
    />
    <path
        fill-rule="evenodd"
        clip-rule="evenodd"
        d="M314.127 49.0776C314.127 50.3171 314 51.5258 313.76 52.6904C319.978 52.871 324.965 58.1842 324.965 64.7121C324.965 70.9474 320.415 76.0744 314.588 76.679V76.7391H266.151V76.653C260.433 75.941 256 70.8664 256 64.712C256 58.1918 260.976 52.8834 267.184 52.6909C267.965 46.9767 272.676 42.5833 278.372 42.5833C279.763 42.5833 281.096 42.8454 282.326 43.3249C284.591 36.7234 290.642 32 297.751 32C306.795 32 314.127 39.6459 314.127 49.0776Z"
        fill="url(#paint1_linear_9378_396863)"
    />
    <g filter="url(#filter1_d_9378_396863)">
        <path
            d="M303.705 54.7882C303.705 50.4987 307.11 47.0215 311.311 47.0215H328.394C332.595 47.0215 336 50.4987 336 54.7882V72.2333C336 76.5227 332.595 80 328.394 80H311.311C307.11 80 303.705 76.5227 303.705 72.2333V54.7882Z"
            fill="white"
        />
    </g>
    <path
        d="M309.673 69.963V57.0584C309.673 55.8705 310.616 54.9076 311.779 54.9076H315.729C316.128 54.9076 316.516 55.0375 316.837 55.2783L318.159 56.2694C318.48 56.5103 318.868 56.6402 319.267 56.6402H327.926C329.09 56.6402 330.033 57.6031 330.033 58.7909V69.963C330.033 71.1508 329.09 72.1138 327.926 72.1138H311.779C310.616 72.1138 309.673 71.1508 309.673 69.963Z"
        fill="url(#paint2_linear_9378_396863)"
    />
    <path
        d="M309.673 69.963V57.0584C309.673 55.8705 310.616 54.9076 311.779 54.9076H315.729C316.128 54.9076 316.516 55.0375 316.837 55.2783L318.159 56.2694C318.48 56.5103 318.868 56.6402 319.267 56.6402H327.926C329.09 56.6402 330.033 57.6031 330.033 58.7909V69.963C330.033 71.1508 329.09 72.1138 327.926 72.1138H311.779C310.616 72.1138 309.673 71.1508 309.673 69.963Z"
        fill="url(#paint3_radial_9378_396863)"
    />
    <path
        fill-rule="evenodd"
        clip-rule="evenodd"
        d="M319.267 56.6402H320.613H325.82H327.926C329.09 56.6402 330.033 57.6031 330.033 58.7909V69.963C330.033 71.1509 329.09 72.1138 327.926 72.1138H325.703V60.8916C325.703 59.964 324.964 59.2135 324.056 59.2188L316.081 59.2657C315.737 59.2678 315.402 59.1595 315.122 58.9563L313.346 57.6667C313.069 57.4652 312.737 57.3571 312.397 57.3571H309.673V57.0584C309.673 55.8705 310.616 54.9076 311.779 54.9076H315.729C316.128 54.9076 316.516 55.0375 316.837 55.2783L318.159 56.2694C318.48 56.5103 318.868 56.6402 319.267 56.6402Z"
        fill="url(#paint4_linear_9378_396863)"
    />
    <defs>
        <filter
            id="filter0_f_9378_396863"
            x="29.4318"
            y="-3.56572"
            width="75.5792"
            height="79.3279"
            filterUnits="userSpaceOnUse"
            color-interpolation-filters="sRGB"
        >
            <feFlood flood-opacity="0" result="BackgroundImageFix" />
            <feBlend mode="normal" in="SourceGraphic" in2="BackgroundImageFix" result="shape" />
            <feGaussianBlur stdDeviation="13.35" result="effect1_foregroundBlur_9378_396863" />
        </filter>
        <filter
            id="filter1_d_9378_396863"
            x="287.705"
            y="35.0215"
            width="64.2949"
            height="64.9785"
            filterUnits="userSpaceOnUse"
            color-interpolation-filters="sRGB"
        >
            <feFlood flood-opacity="0" result="BackgroundImageFix" />
            <feColorMatrix
                in="SourceAlpha"
                type="matrix"
                values="0 0 0 0 0 0 0 0 0 0 0 0 0 0 0 0 0 0 127 0"
                result="hardAlpha"
            />
            <feOffset dy="4" />
            <feGaussianBlur stdDeviation="8" />
            <feComposite in2="hardAlpha" operator="out" />
            <feColorMatrix type="matrix" values="0 0 0 0 0.105882 0 0 0 0 0.0745098 0 0 0 0 0.25098 0 0 0 0.13 0" />
            <feBlend mode="normal" in2="BackgroundImageFix" result="effect1_dropShadow_9378_396863" />
            <feBlend mode="normal" in="SourceGraphic" in2="effect1_dropShadow_9378_396863" result="shape" />
        </filter>
        <linearGradient
            id="paint0_linear_9378_396863"
            x1="18.869"
            y1="78.4416"
            x2="-30.6175"
            y2="79.6953"
            gradientUnits="userSpaceOnUse"
        >
            <stop stop-color="#B4B4B4" />
            <stop offset="1" stop-color="#3200FF" />
        </linearGradient>
        <linearGradient
            id="paint1_linear_9378_396863"
            x1="320.878"
            y1="73.7743"
            x2="268.145"
            y2="24.2398"
            gradientUnits="userSpaceOnUse"
        >
            <stop stop-color="#D6D6D6" />
            <stop offset="1" stop-color="#BDBCC4" />
        </linearGradient>
        <linearGradient
            id="paint2_linear_9378_396863"
            x1="319.867"
            y1="46.1987"
            x2="321.512"
            y2="68.8693"
            gradientUnits="userSpaceOnUse"
        >
            <stop offset="0.988738" stop-color="#6D4AFF" />
        </linearGradient>
        <radialGradient
            id="paint3_radial_9378_396863"
            cx="0"
            cy="0"
            r="1"
            gradientUnits="userSpaceOnUse"
            gradientTransform="translate(326.381 47.3651) rotate(115.606) scale(29.862 45.8592)"
        >
            <stop offset="0.556057" stop-color="#FF62C0" stop-opacity="0" />
            <stop offset="0.994421" stop-color="#FF62C0" />
        </radialGradient>
        <linearGradient
            id="paint4_linear_9378_396863"
            x1="302.828"
            y1="52.0399"
            x2="328.862"
            y2="80.0544"
            gradientUnits="userSpaceOnUse"
        >
            <stop stop-color="#6D4AFF" />
            <stop offset="0.35934" stop-color="#AE8CFF" />
            <stop offset="1" stop-color="#F8CCFF" />
        </linearGradient>
    </defs>
</svg>
