<svg xmlns="http://www.w3.org/2000/svg" width="344" height="156" fill="none">
    <rect width="344" height="156" fill="url(#a)" rx="16" />
    <path
        fill="url(#b)"
        d="M78 75.2c0-17.922 0-26.883 3.488-33.728a32 32 0 0 1 13.984-13.984C102.317 24 111.278 24 129.2 24h85.6c17.922 0 26.883 0 33.728 3.488a32 32 0 0 1 13.984 13.984C266 48.318 266 57.278 266 75.2v5.6c0 17.922 0 26.883-3.488 33.728a32 32 0 0 1-13.984 13.984C241.683 132 232.722 132 214.8 132h-85.6c-17.922 0-26.883 0-33.728-3.488a32 32 0 0 1-13.984-13.984C78 107.683 78 98.722 78 80.8v-5.6Z"
    />
    <path fill="#fff" d="M237 75a3 3 0 0 1 3 3v2a3 3 0 0 1-3 3h-30a3 3 0 0 1-3-3v-2a3 3 0 0 1 3-3h30Z" />
    <path
        fill="#fff"
        d="M226 94a3 3 0 0 1-3 3h-2a3 3 0 0 1-3-3V64a3 3 0 0 1 3-3h2a3 3 0 0 1 3 3v30ZM84 56.667C84 41.939 95.94 30 110.667 30h42.666C168.061 30 180 41.94 180 56.667v42.666C180 114.061 168.061 126 153.333 126h-42.666C95.939 126 84 114.061 84 99.333V56.667Z"
    />
    <path
        fill="url(#c)"
        d="M108.953 54a6.286 6.286 0 0 0-6.286 6.286v2.095l2.095 2.096v35.619l41.905-20.953 2.095 2.096h12.572V60.286a6.286 6.286 0 0 0-6.286-6.285h-46.095Z"
    />
    <path
        fill="url(#d)"
        d="M143.823 62.381h-41.156v33.583a6.036 6.036 0 0 0 6.036 6.036h21.202l10.209-15.158a6.856 6.856 0 0 1 6.74-5.603h1.908V67.32a4.939 4.939 0 0 0-4.939-4.939Z"
    />
    <path
        fill="#B8D7FF"
        d="M129.905 102v-2.126a5.24 5.24 0 0 1 1.188-3.322l10.102-12.316c.264-.396.566-.763.9-1.098l-.9 1.098A7.111 7.111 0 0 0 140 88.193V102h-10.095Z"
    />
    <path
        fill="#8F69FF"
        d="M145.829 94.618h2.138a1.6 1.6 0 0 0 .614.922c.303.227.681.344 1.066.326.967 0 1.605-.529 1.605-1.303 0-.775-.663-1.205-1.977-1.205h-.849v-1.746h.737c1.271 0 1.791-.467 1.791-1.162 0-.694-.564-1.174-1.344-1.174a1.343 1.343 0 0 0-.955.32 1.322 1.322 0 0 0-.459.891h-2.064c.075-1.217 1.042-2.963 3.465-2.963 1.946 0 3.291 1.1 3.291 2.65 0 .497-.155.983-.452 1.383-.298.4-.713.7-1.19.848v.03a2.338 2.338 0 0 1 1.934 2.38c0 1.678-1.55 2.784-3.552 2.784-2.126.012-3.644-1.186-3.799-2.981Zm11.088-6.927h1.556v9.767h-2.008v-7.492l-1.934 1.303v-1.974l2.386-1.604Z"
    />
    <path
        fill="#625AC1"
        d="m295.881 89.067-2.355 1.01a1.335 1.335 0 0 1-1.052 0l-2.355-1.01c-.664-.285-1.337.388-1.052 1.052l1.009 2.355c.144.336.144.716 0 1.052l-1.009 2.355c-.285.665.388 1.337 1.052 1.052l2.355-1.01a1.335 1.335 0 0 1 1.052 0l2.355 1.01c.664.285 1.337-.388 1.052-1.052l-1.009-2.355a1.335 1.335 0 0 1 0-1.052l1.009-2.355c.285-.665-.388-1.337-1.052-1.052Z"
    />
    <path
        fill="#3E3693"
        d="m314.441 63.379-.715 1.787a1.005 1.005 0 0 1-.56.56l-1.787.715a.602.602 0 0 0 0 1.118l1.787.715c.255.102.458.305.56.56l.715 1.787a.602.602 0 0 0 1.118 0l.715-1.787c.102-.255.305-.458.56-.56l1.787-.715a.602.602 0 0 0 0-1.118l-1.787-.715a1.005 1.005 0 0 1-.56-.56l-.715-1.787a.602.602 0 0 0-1.118 0Z"
    />
    <path
        fill="#625AC1"
        d="m42.3 54.473-.893 2.235c-.127.319-.38.572-.699.7l-2.235.893a.753.753 0 0 0 0 1.398l2.235.894c.319.127.572.38.7.699l.893 2.235a.753.753 0 0 0 1.398 0l.894-2.235c.127-.319.38-.572.699-.7l2.235-.893a.753.753 0 0 0 0-1.398l-2.235-.894a1.256 1.256 0 0 1-.7-.699l-.893-2.235a.753.753 0 0 0-1.398 0Z"
    />
    <defs>
        <radialGradient
            id="b"
            cx="0"
            cy="0"
            r="1"
            gradientTransform="rotate(45 -10.474 106.162) scale(216.375 160.50999)"
            gradientUnits="userSpaceOnUse"
        >
            <stop offset=".19" stop-color="#6E4BFF" />
            <stop offset=".604" stop-color="#FF4BAD" />
            <stop offset="1" stop-color="#22D7FF" />
        </radialGradient>
        <radialGradient
            id="d"
            cx="0"
            cy="0"
            r="1"
            gradientTransform="matrix(94.1146 0 0 83.7022 146.999 29.329)"
            gradientUnits="userSpaceOnUse"
        >
            <stop offset=".503" stop-color="#6D4AFF" />
            <stop offset=".994" stop-color="#06B8FF" />
        </radialGradient>
        <linearGradient id="a" x1="172" x2="172" y1="0" y2="156" gradientUnits="userSpaceOnUse">
            <stop stop-color="#372580" />
            <stop offset="1" stop-color="#1B1340" />
        </linearGradient>
        <linearGradient id="c" x1="151.952" x2="117.733" y1="85.505" y2="35.789" gradientUnits="userSpaceOnUse">
            <stop stop-color="#BFE8FF" />
            <stop offset=".307" stop-color="#BFABFF" />
            <stop offset="1" stop-color="#7341FF" />
        </linearGradient>
    </defs>
</svg>
