<svg width="54" height="61" viewBox="0 0 54 61" fill="none" xmlns="http://www.w3.org/2000/svg">
    <path
        fill-rule="evenodd"
        clip-rule="evenodd"
        d="M23.7825 3.10182C24.8863 2.70044 26.0431 2.49976 27.2 2.49976C28.3568 2.49976 29.5136 2.70044 30.6174 3.10182L49.8834 10.1077C50.6738 10.3951 51.2 11.1462 51.2 11.9872V34.4891C51.2 41.0761 47.602 47.137 41.8193 50.2912L28.1577 57.743C27.8592 57.9058 27.5296 57.9841 27.2 57.9841C26.8703 57.9841 26.5407 57.9058 26.2422 57.743L12.5806 50.2912C6.79792 47.137 3.19995 41.0761 3.19995 34.4891V11.9872C3.19995 11.1462 3.72609 10.3951 4.51647 10.1077L23.7825 3.10182Z"
        fill="url(#paint0_linear_33795_23651)"
        stroke="#6D4AFF"
        stroke-opacity="0.2"
        stroke-width="5"
    />
    <defs>
        <linearGradient
            id="paint0_linear_33795_23651"
            x1="27"
            y1="27.6998"
            x2="48.7"
            y2="27.6998"
            gradientUnits="userSpaceOnUse"
        >
            <stop offset="0.0001" stop-color="#7C5DFF" />
            <stop offset="0.0002" stop-color="#987FFE" />
            <stop offset="1" stop-color="#CBC0F9" />
        </linearGradient>
    </defs>
</svg>
