<svg width="328" height="128" viewBox="0 0 328 128" fill="none" xmlns="http://www.w3.org/2000/svg">
    <rect width="328" height="128" rx="12" fill="#1B1340" />
    <rect width="328" height="128" rx="12" fill="url(#paint0_linear_32507_33772)" />
    <path
        fill-rule="evenodd"
        clip-rule="evenodd"
        d="M159.404 24.8601C160.981 24.2867 162.633 24 164.286 24C165.938 24 167.591 24.2867 169.168 24.8601L196.691 34.8684C197.82 35.279 198.571 36.3521 198.571 37.5536V69.6991C198.571 79.1091 193.431 87.7675 185.17 92.2735L165.654 102.919C165.227 103.152 164.757 103.263 164.286 103.263C163.815 103.263 163.344 103.152 162.918 102.919L143.401 92.2735C135.14 87.7675 130 79.1091 130 69.6991V37.5536C130 36.3521 130.752 35.279 131.881 34.8684L159.404 24.8601Z"
        fill="url(#paint1_linear_32507_33772)"
        stroke="#6D4AFF"
        stroke-opacity="0.2"
        stroke-width="8"
    />
    <path
        fill-rule="evenodd"
        clip-rule="evenodd"
        d="M163.625 63H152L167 39L164.375 60L176 60L161 84L163.625 63Z"
        fill="white"
    />
    <defs>
        <linearGradient
            id="paint0_linear_32507_33772"
            x1="418"
            y1="-52.4445"
            x2="99.5612"
            y2="229.809"
            gradientUnits="userSpaceOnUse"
        >
            <stop stop-color="#8366FF" />
            <stop offset="1" stop-color="#1B1340" />
        </linearGradient>
        <linearGradient id="paint1_linear_32507_33772" x1="164" y1="60" x2="195" y2="60" gradientUnits="userSpaceOnUse">
            <stop offset="0.0001" stop-color="#7C5DFF" />
            <stop offset="0.0002" stop-color="#987FFE" />
            <stop offset="1" stop-color="#CBC0F9" />
        </linearGradient>
    </defs>
</svg>
