<svg xmlns="http://www.w3.org/2000/svg" viewBox="0 0 45 23" width="45" height="23" fill="none">
    <rect width="36" fill="#fff" height="20" x="4.5" rx="6" shape-rendering="crispEdges" />
    <path
        fill="#6D4AFF"
        fill-rule="evenodd"
        d="M13.11 4.711a1 1 0 0 0-1.612.791v7.995a2 2 0 0 0 2 2h10.004a2 2 0 0 0 2-2V5.502a1 1 0 0 0-1.611-.79l-5.085 3.931a.5.5 0 0 1-.612 0L13.11 4.711Zm-.612.791 5.084 3.932c.18.14.383.232.595.279l-.518.463a.9.9 0 0 1-1.165.03l-3.996-3.218V5.502Zm11.004 8.995h-.817V6.908l1.817-1.406v7.995a1 1 0 0 1-1 1Z"
        clip-rule="evenodd"
    />
    <path fill="#6D4AFF" d="M27.5 10.5a.5.5 0 0 1 .5-.5h6a.5.5 0 0 1 0 1h-6a.5.5 0 0 1-.5-.5Z" />
    <path fill="#6D4AFF" d="M31 7a.5.5 0 0 1 .5.5v6a.5.5 0 0 1-1 0v-6A.5.5 0 0 1 31 7Z" />
    <rect width="35" height="19" x="5" y=".5" stroke="url(#a)" rx="5.5" shape-rendering="crispEdges" />
    <defs>
        <radialGradient
            id="a"
            cx="0"
            cy="0"
            r="1"
            gradientTransform="matrix(28.21622 4.5 -4.8935 30.68354 12.284 7.5)"
            gradientUnits="userSpaceOnUse"
        >
            <stop stop-color="#6E4BFF" />
            <stop offset=".355" stop-color="#FD4BAF" />
            <stop offset="1" stop-color="#22D8FF" />
        </radialGradient>
    </defs>
</svg>
