<svg width="86" height="88" viewBox="0 0 86 88" fill="none" xmlns="http://www.w3.org/2000/svg">
    <path
        d="M41.3888 85.3992C60.1115 85.3992 75.2892 70.2217 75.2892 51.4993C75.2892 32.777 60.1115 17.5995 41.3888 17.5995C22.6662 17.5995 7.48844 32.777 7.48844 51.4993C7.48844 70.2217 22.6662 85.3992 41.3888 85.3992Z"
        fill="white"
        stroke="url(#paint0_linear_6221_134431)"
        stroke-width="1.73845"
    />
    <path
        fill-rule="evenodd"
        clip-rule="evenodd"
        d="M53.5582 44.4387C53.5582 51.1595 48.1099 56.6079 41.389 56.6079C34.6682 56.6079 29.2199 51.1595 29.2199 44.4387C29.2199 37.7179 34.6682 32.2695 41.389 32.2695C48.1099 32.2695 53.5582 37.7179 53.5582 44.4387ZM41.3868 84.5298C50.9785 84.5298 59.6153 80.4414 65.6497 73.9123C59.7562 66.5429 50.6887 61.8224 40.5187 61.8224C30.8208 61.8224 22.1254 66.1148 16.2288 72.9033C22.2873 80.0175 31.3101 84.5298 41.3868 84.5298Z"
        fill="url(#paint1_linear_6221_134431)"
    />
    <g opacity="0.2" filter="url(#filter0_f_6221_134431)">
        <path
            fill-rule="evenodd"
            clip-rule="evenodd"
            d="M73.0349 40.4256C69.9648 31.7983 63.4097 24.8235 55.0636 21.1953C54.3567 22.8995 53.9666 24.7682 53.9666 26.7281C53.9666 34.7091 60.4364 41.179 68.4174 41.179C70.0321 41.179 71.585 40.9142 73.0349 40.4256Z"
            fill="#1C008A"
        />
    </g>
    <path
        d="M83.9786 25.5307C83.9786 17.8497 77.752 11.623 70.071 11.623C62.39 11.623 56.1634 17.8497 56.1634 25.5307C56.1634 33.2116 62.3901 39.4383 70.071 39.4383C77.752 39.4383 83.9786 33.2116 83.9786 25.5307Z"
        fill="url(#paint2_linear_6221_134431)"
    />
    <path
        d="M68.3325 16.8381C68.3325 15.8779 69.1109 15.0996 70.071 15.0996C71.0311 15.0996 71.8094 15.8779 71.8094 16.8381V27.2688C71.8094 28.2289 71.0311 29.0072 70.071 29.0072C69.1109 29.0072 68.3325 28.2289 68.3325 27.2688V16.8381Z"
        fill="white"
    />
    <circle cx="70.071" cy="32.4845" r="1.73845" fill="white" />
    <defs>
        <filter
            id="filter0_f_6221_134431"
            x="47.0127"
            y="14.2415"
            width="32.976"
            height="33.892"
            filterUnits="userSpaceOnUse"
            color-interpolation-filters="sRGB"
        >
            <feFlood flood-opacity="0" result="BackgroundImageFix" />
            <feBlend mode="normal" in="SourceGraphic" in2="BackgroundImageFix" result="shape" />
            <feGaussianBlur stdDeviation="3.47691" result="effect1_foregroundBlur_6221_134431" />
        </filter>
        <linearGradient
            id="paint0_linear_6221_134431"
            x1="41.3888"
            y1="18.4688"
            x2="41.3888"
            y2="84.53"
            gradientUnits="userSpaceOnUse"
        >
            <stop stop-color="#D6C4FF" />
            <stop offset="1" stop-color="#F8E0FF" />
        </linearGradient>
        <linearGradient
            id="paint1_linear_6221_134431"
            x1="43.2637"
            y1="15.4098"
            x2="58.3157"
            y2="79.4082"
            gradientUnits="userSpaceOnUse"
        >
            <stop stop-color="#ECAAFF" />
            <stop offset="1" stop-color="#6A48F6" />
        </linearGradient>
        <linearGradient
            id="paint2_linear_6221_134431"
            x1="70.071"
            y1="14.4144"
            x2="70.071"
            y2="50.5338"
            gradientUnits="userSpaceOnUse"
        >
            <stop stop-color="#FA5284" />
            <stop offset="1" stop-color="#DC3251" />
        </linearGradient>
    </defs>
</svg>
