<svg width="40" height="40" viewBox="0 0 40 40" fill="none" xmlns="http://www.w3.org/2000/svg">
    <path
        d="M10.8332 35.8328C10.6649 35.8328 14.2049 21.4178 14.2049 21.4178C14.2915 21.1394 14.5174 20.9261 14.8007 20.8569C15.0832 20.7853 15.3832 20.8711 15.589 21.0769L21.4224 26.9103C21.5932 27.0811 21.6815 27.3169 21.664 27.5586C21.6465 27.7994 21.5265 28.0211 21.3332 28.1661L11.3332 35.6661C11.1857 35.7778 11.009 35.8328 10.8332 35.8328Z"
        fill="url(#paint0_linear_3838_7673)"
    />
    <path
        d="M29.9933 37.5001C29.8158 37.5001 29.6391 37.4435 29.4933 37.3335L2.8333 17.3335C2.59164 17.1526 2.46747 16.8568 2.50664 16.5576C2.5458 16.2593 2.7433 16.0051 3.0233 15.8926L36.3575 2.55933C36.6416 2.44683 36.965 2.49599 37.2 2.69266C37.435 2.88766 37.5441 3.19599 37.4841 3.49683L30.8108 36.8301C30.755 37.111 30.5583 37.3426 30.2908 37.4451C30.195 37.4818 30.0941 37.4993 29.9941 37.4993L29.9933 37.5001Z"
        fill="url(#paint1_linear_3838_7673)"
    />
    <path
        d="M10.8342 35.8334C10.7892 35.8334 10.745 35.8301 10.7 35.8226C10.2967 35.7568 10 35.4084 10 35.0001V22.5001C10 22.2368 10.125 21.9884 10.3367 21.8309L36.17 2.6643C36.5242 2.4018 37.0192 2.46013 37.3025 2.7943C37.5867 3.13013 37.5608 3.62847 37.2442 3.93347L14.3325 25.9593L11.6242 35.2634C11.5092 35.6076 11.1875 35.8334 10.8342 35.8334Z"
        fill="url(#paint2_linear_3838_7673)"
    />
    <defs>
        <linearGradient
            id="paint0_linear_3838_7673"
            x1="16.2468"
            y1="20.832"
            x2="16.2468"
            y2="35.8328"
            gradientUnits="userSpaceOnUse"
        >
            <stop stop-color="#A2A3B4" />
            <stop offset="1" stop-color="#83849B" />
        </linearGradient>
        <linearGradient
            id="paint1_linear_3838_7673"
            x1="20"
            y1="2.5"
            x2="20"
            y2="37.5001"
            gradientUnits="userSpaceOnUse"
        >
            <stop stop-color="#E0E0E6" />
            <stop offset="1" stop-color="#C2C3CD" />
        </linearGradient>
        <linearGradient
            id="paint2_linear_3838_7673"
            x1="23.7499"
            y1="2.5"
            x2="23.7499"
            y2="35.8334"
            gradientUnits="userSpaceOnUse"
        >
            <stop stop-color="#C2C3CD" />
            <stop offset="1" stop-color="#A2A3B4" />
        </linearGradient>
    </defs>
</svg>
