<svg width="240" height="167" viewBox="0 0 240 167" fill="none" xmlns="http://www.w3.org/2000/svg">
    <g clip-path="url(#clip0_5639_1474)">
        <g opacity="0.7" filter="url(#filter0_f_5639_1474)">
            <ellipse cx="122.519" cy="54.3046" rx="40.9291" ry="3.1484" fill="white" />
        </g>
        <path
            opacity="0.3"
            d="M104.011 128.083C104.365 128.287 104.593 128.559 104.522 128.693L89.1799 158.021C88.9711 158.42 87.9376 158.251 86.8849 157.645C85.8322 157.039 85.1684 156.232 85.4108 155.852L103.225 127.947C103.307 127.819 103.657 127.88 104.011 128.083Z"
            fill="url(#paint0_linear_5639_1474)"
        />
        <path
            opacity="0.3"
            d="M104.378 39.1333C104.732 38.9295 104.96 38.6582 104.89 38.5239L89.5472 9.19606C89.3384 8.79689 88.3049 8.9661 87.2522 9.57182C86.1995 10.1775 85.5357 10.9849 85.7781 11.3647L103.593 39.2703C103.674 39.3981 104.024 39.3371 104.378 39.1333Z"
            fill="url(#paint1_linear_5639_1474)"
        />
        <path
            opacity="0.3"
            d="M137.799 128.084C137.445 128.288 137.217 128.559 137.288 128.693L152.63 158.021C152.839 158.42 153.872 158.251 154.925 157.645C155.978 157.04 156.642 156.232 156.399 155.852L138.585 127.947C138.503 127.819 138.154 127.88 137.799 128.084Z"
            fill="url(#paint2_linear_5639_1474)"
        />
        <path
            opacity="0.3"
            d="M137.799 39.1333C137.445 38.9295 137.217 38.6582 137.288 38.5239L152.63 9.19606C152.839 8.79689 153.872 8.9661 154.925 9.57182C155.978 10.1775 156.642 10.9849 156.399 11.3647L138.585 39.2703C138.503 39.3981 138.154 39.3371 137.799 39.1333Z"
            fill="url(#paint3_linear_5639_1474)"
        />
        <path
            opacity="0.3"
            d="M181.093 54.6279C180.887 54.2749 180.967 53.8445 181.272 53.6609L247.873 13.5639C248.779 13.0181 250.022 13.4303 250.632 14.4791C251.243 15.528 250.984 16.8069 250.058 17.3191L182.024 54.9533C181.713 55.1256 181.298 54.9808 181.093 54.6279Z"
            fill="url(#paint4_linear_5639_1474)"
        />
        <path
            opacity="0.3"
            d="M181.093 113.878C180.887 114.231 180.967 114.661 181.272 114.845L247.873 154.942C248.779 155.488 250.022 155.076 250.632 154.027C251.243 152.978 250.984 151.699 250.058 151.187L182.024 113.553C181.713 113.38 181.298 113.525 181.093 113.878Z"
            fill="url(#paint5_linear_5639_1474)"
        />
        <path
            opacity="0.3"
            d="M57.8828 54.6279C58.0882 54.2749 58.0082 53.8445 57.7032 53.6609L-8.89736 13.5639C-9.80383 13.0181 -11.0465 13.4303 -11.6568 14.4791C-12.2672 15.528 -12.0086 16.8069 -11.0826 17.3191L56.9512 54.9533C57.2627 55.1256 57.6775 54.9808 57.8828 54.6279Z"
            fill="url(#paint6_linear_5639_1474)"
        />
        <path
            opacity="0.3"
            d="M57.8828 113.878C58.0882 114.231 58.0082 114.661 57.7032 114.845L-8.89736 154.942C-9.80383 155.488 -11.0465 155.076 -11.6568 154.027C-12.2672 152.978 -12.0086 151.699 -11.0826 151.187L56.9512 113.553C57.2627 113.38 57.6775 113.525 57.8828 113.878Z"
            fill="url(#paint7_linear_5639_1474)"
        />
        <path
            opacity="0.6"
            d="M29.7014 85.7099L28.3606 89.062C28.1693 89.5403 27.7903 89.9193 27.312 90.1106L23.9599 91.4514C23.0134 91.83 23.0134 93.17 23.9599 93.5486L27.312 94.8894C27.7903 95.0807 28.1693 95.4597 28.3606 95.938L29.7014 99.2901C30.08 100.237 31.42 100.237 31.7986 99.2901L33.1394 95.938C33.3307 95.4597 33.7097 95.0807 34.188 94.8894L37.5401 93.5486C38.4866 93.17 38.4866 91.83 37.5401 91.4514L34.188 90.1106C33.7097 89.9193 33.3307 89.5403 33.1394 89.062L31.7986 85.7099C31.42 84.7634 30.08 84.7634 29.7014 85.7099Z"
            fill="#7226ED"
        />
        <path
            opacity="0.6"
            d="M75.5243 36.645L76.1947 34.969C76.2904 34.7299 76.4799 34.5404 76.719 34.4447L78.395 33.7743C78.8683 33.585 78.8683 32.915 78.395 32.7257L76.719 32.0553C76.4799 31.9596 76.2904 31.7701 76.1947 31.531L75.5243 29.855C75.335 29.3817 74.665 29.3817 74.4757 29.855L73.8053 31.531C73.7096 31.7701 73.5201 31.9596 73.281 32.0553L71.605 32.7257C71.1317 32.915 71.1317 33.585 71.605 33.7743L73.281 34.4447C73.5201 34.5404 73.7096 34.7299 73.8053 34.969L74.4757 36.645C74.665 37.1183 75.335 37.1183 75.5243 36.645Z"
            fill="#7226ED"
        />
        <path
            opacity="0.6"
            d="M204.524 95.895L205.195 94.219C205.29 93.9798 205.48 93.7904 205.719 93.6947L207.395 93.0243C207.868 92.835 207.868 92.165 207.395 91.9757L205.719 91.3053C205.48 91.2096 205.29 91.0201 205.195 90.7809L204.524 89.1049C204.335 88.6316 203.665 88.6316 203.476 89.1049L202.805 90.7809C202.71 91.0201 202.52 91.2096 202.281 91.3053L200.605 91.9757C200.132 92.165 200.132 92.835 200.605 93.0243L202.281 93.6947C202.52 93.7904 202.71 93.9798 202.805 94.219L203.476 95.895C203.665 96.3683 204.335 96.3683 204.524 95.895Z"
            fill="#7226ED"
        />
        <g clip-path="url(#clip1_5639_1474)">
            <path
                d="M123.389 121.898C142.111 121.898 157.289 106.721 157.289 87.9986C157.289 69.2762 142.111 54.0988 123.389 54.0988C104.666 54.0988 89.4884 69.2762 89.4884 87.9986C89.4884 106.721 104.666 121.898 123.389 121.898Z"
                fill="white"
                stroke="url(#paint8_linear_5639_1474)"
                stroke-width="1.73845"
            />
            <path
                fill-rule="evenodd"
                clip-rule="evenodd"
                d="M135.558 80.9372C135.558 87.6581 130.11 93.1064 123.389 93.1064C116.668 93.1064 111.22 87.6581 111.22 80.9372C111.22 74.2164 116.668 68.7681 123.389 68.7681C130.11 68.7681 135.558 74.2164 135.558 80.9372ZM123.387 121.029C132.979 121.029 141.615 116.94 147.65 110.411C141.756 103.042 132.689 98.3211 122.519 98.3211C112.821 98.3211 104.125 102.613 98.2288 109.402C104.287 116.516 113.31 121.029 123.387 121.029Z"
                fill="url(#paint9_linear_5639_1474)"
            />
        </g>
    </g>
    <defs>
        <filter
            id="filter0_f_5639_1474"
            x="74.0332"
            y="43.6001"
            width="96.9706"
            height="21.4092"
            filterUnits="userSpaceOnUse"
            color-interpolation-filters="sRGB"
        >
            <feFlood flood-opacity="0" result="BackgroundImageFix" />
            <feBlend mode="normal" in="SourceGraphic" in2="BackgroundImageFix" result="shape" />
            <feGaussianBlur stdDeviation="3.77807" result="effect1_foregroundBlur_5639_1474" />
        </filter>
        <linearGradient
            id="paint0_linear_5639_1474"
            x1="103.667"
            y1="126.993"
            x2="89.4736"
            y2="150.071"
            gradientUnits="userSpaceOnUse"
        >
            <stop stop-color="#BF7AF5" />
            <stop offset="1" stop-color="#D289EC" stop-opacity="0" />
        </linearGradient>
        <linearGradient
            id="paint1_linear_5639_1474"
            x1="104.034"
            y1="40.2242"
            x2="89.8409"
            y2="17.1461"
            gradientUnits="userSpaceOnUse"
        >
            <stop stop-color="#BF7AF5" />
            <stop offset="1" stop-color="#D289EC" stop-opacity="0" />
        </linearGradient>
        <linearGradient
            id="paint2_linear_5639_1474"
            x1="138.143"
            y1="126.993"
            x2="152.336"
            y2="150.071"
            gradientUnits="userSpaceOnUse"
        >
            <stop stop-color="#BF7AF5" />
            <stop offset="1" stop-color="#D289EC" stop-opacity="0" />
        </linearGradient>
        <linearGradient
            id="paint3_linear_5639_1474"
            x1="138.143"
            y1="40.2242"
            x2="152.336"
            y2="17.1461"
            gradientUnits="userSpaceOnUse"
        >
            <stop stop-color="#BF7AF5" />
            <stop offset="1" stop-color="#D289EC" stop-opacity="0" />
        </linearGradient>
        <linearGradient
            id="paint4_linear_5639_1474"
            x1="179.941"
            y1="56.2667"
            x2="236.948"
            y2="28.147"
            gradientUnits="userSpaceOnUse"
        >
            <stop stop-color="#BF7AF5" />
            <stop offset="1" stop-color="#D289EC" stop-opacity="0" />
        </linearGradient>
        <linearGradient
            id="paint5_linear_5639_1474"
            x1="179.941"
            y1="112.239"
            x2="236.948"
            y2="140.359"
            gradientUnits="userSpaceOnUse"
        >
            <stop stop-color="#BF7AF5" />
            <stop offset="1" stop-color="#D289EC" stop-opacity="0" />
        </linearGradient>
        <linearGradient
            id="paint6_linear_5639_1474"
            x1="59.0344"
            y1="56.2667"
            x2="2.02714"
            y2="28.147"
            gradientUnits="userSpaceOnUse"
        >
            <stop stop-color="#BF7AF5" />
            <stop offset="1" stop-color="#D289EC" stop-opacity="0" />
        </linearGradient>
        <linearGradient
            id="paint7_linear_5639_1474"
            x1="59.0344"
            y1="112.239"
            x2="2.02714"
            y2="140.359"
            gradientUnits="userSpaceOnUse"
        >
            <stop stop-color="#BF7AF5" />
            <stop offset="1" stop-color="#D289EC" stop-opacity="0" />
        </linearGradient>
        <linearGradient
            id="paint8_linear_5639_1474"
            x1="123.389"
            y1="54.968"
            x2="123.389"
            y2="121.029"
            gradientUnits="userSpaceOnUse"
        >
            <stop stop-color="#D6C4FF" />
            <stop offset="1" stop-color="#F8E0FF" />
        </linearGradient>
        <linearGradient
            id="paint9_linear_5639_1474"
            x1="125.264"
            y1="51.9084"
            x2="140.316"
            y2="115.907"
            gradientUnits="userSpaceOnUse"
        >
            <stop stop-color="#ECAAFF" />
            <stop offset="1" stop-color="#6A48F6" />
        </linearGradient>
        <clipPath id="clip0_5639_1474">
            <rect width="240" height="135" fill="white" transform="translate(0 16)" />
        </clipPath>
        <clipPath id="clip1_5639_1474">
            <rect width="80" height="80" fill="white" transform="translate(80 43)" />
        </clipPath>
    </defs>
</svg>
