<svg width="240" height="215" viewBox="0 0 240 215" fill="none" xmlns="http://www.w3.org/2000/svg">
    <g clip-path="url(#clip0_2904_7738)">
        <g opacity="0.7" filter="url(#filter0_f_2904_7738)">
            <ellipse cx="122.519" cy="78.3046" rx="40.9291" ry="3.1484" fill="white" />
        </g>
        <path
            opacity="0.3"
            d="M104.378 152.083C104.732 152.287 104.96 152.559 104.89 152.693L89.5471 182.021C89.3383 182.42 88.3048 182.251 87.2521 181.645C86.1993 181.039 85.5356 180.232 85.778 179.852L103.592 151.947C103.674 151.819 104.024 151.88 104.378 152.083Z"
            fill="url(#paint0_linear_2904_7738)"
        />
        <path
            opacity="0.3"
            d="M104.378 63.1313C104.732 62.9275 104.96 62.6563 104.89 62.522L89.5471 33.1941C89.3383 32.7949 88.3048 32.9641 87.2521 33.5699C86.1993 34.1756 85.5356 34.983 85.778 35.3628L103.592 63.2683C103.674 63.3961 104.024 63.3352 104.378 63.1313Z"
            fill="url(#paint1_linear_2904_7738)"
        />
        <path
            opacity="0.3"
            d="M137.8 152.083C137.446 152.287 137.218 152.559 137.288 152.693L152.631 182.021C152.839 182.42 153.873 182.251 154.926 181.645C155.978 181.039 156.642 180.232 156.4 179.852L138.585 151.947C138.504 151.819 138.154 151.88 137.8 152.083Z"
            fill="url(#paint2_linear_2904_7738)"
        />
        <path
            opacity="0.3"
            d="M137.8 63.1313C137.446 62.9275 137.218 62.6563 137.288 62.522L152.631 33.1941C152.839 32.7949 153.873 32.9641 154.926 33.5699C155.978 34.1756 156.642 34.983 156.4 35.3628L138.585 63.2683C138.504 63.3961 138.154 63.3352 137.8 63.1313Z"
            fill="url(#paint3_linear_2904_7738)"
        />
        <path
            opacity="0.3"
            d="M181.093 78.6279C180.887 78.2749 180.967 77.8445 181.272 77.6609L247.873 37.5639C248.779 37.0181 250.022 37.4303 250.632 38.4791C251.243 39.528 250.984 40.8069 250.058 41.3191L182.024 78.9533C181.713 79.1256 181.298 78.9808 181.093 78.6279Z"
            fill="url(#paint4_linear_2904_7738)"
        />
        <path
            opacity="0.3"
            d="M181.093 137.88C180.887 138.233 180.967 138.663 181.272 138.847L247.873 178.944C248.779 179.49 250.022 179.078 250.632 178.029C251.243 176.98 250.984 175.701 250.058 175.189L182.024 137.555C181.713 137.382 181.298 137.527 181.093 137.88Z"
            fill="url(#paint5_linear_2904_7738)"
        />
        <path
            opacity="0.3"
            d="M57.8828 78.6279C58.0882 78.2749 58.0082 77.8445 57.7032 77.6609L-8.89736 37.5639C-9.80383 37.0181 -11.0465 37.4303 -11.6568 38.4791C-12.2672 39.528 -12.0086 40.8069 -11.0826 41.3191L56.9512 78.9533C57.2627 79.1256 57.6775 78.9808 57.8828 78.6279Z"
            fill="url(#paint6_linear_2904_7738)"
        />
        <path
            opacity="0.3"
            d="M57.8828 137.88C58.0882 138.233 58.0082 138.663 57.7032 138.847L-8.89736 178.944C-9.80383 179.49 -11.0465 179.078 -11.6568 178.029C-12.2672 176.98 -12.0086 175.701 -11.0826 175.189L56.9512 137.555C57.2627 137.382 57.6775 137.527 57.8828 137.88Z"
            fill="url(#paint7_linear_2904_7738)"
        />
        <path
            opacity="0.6"
            d="M29.7014 109.71L28.3606 113.062C28.1693 113.54 27.7903 113.919 27.312 114.111L23.9599 115.451C23.0134 115.83 23.0134 117.17 23.9599 117.549L27.312 118.889C27.7903 119.081 28.1693 119.46 28.3606 119.938L29.7014 123.29C30.08 124.237 31.42 124.237 31.7986 123.29L33.1394 119.938C33.3307 119.46 33.7097 119.081 34.188 118.889L37.5401 117.549C38.4866 117.17 38.4866 115.83 37.5401 115.451L34.188 114.111C33.7097 113.919 33.3307 113.54 33.1394 113.062L31.7986 109.71C31.42 108.763 30.08 108.763 29.7014 109.71Z"
            fill="#7226ED"
        />
        <path
            opacity="0.6"
            d="M75.5243 60.645L76.1947 58.969C76.2904 58.7299 76.4799 58.5404 76.719 58.4447L78.395 57.7743C78.8683 57.585 78.8683 56.915 78.395 56.7257L76.719 56.0553C76.4799 55.9596 76.2904 55.7701 76.1947 55.531L75.5243 53.855C75.335 53.3817 74.665 53.3817 74.4757 53.855L73.8053 55.531C73.7096 55.7701 73.5201 55.9596 73.281 56.0553L71.605 56.7257C71.1317 56.915 71.1317 57.585 71.605 57.7743L73.281 58.4447C73.5201 58.5404 73.7096 58.7299 73.8053 58.969L74.4757 60.645C74.665 61.1183 75.335 61.1183 75.5243 60.645Z"
            fill="#7226ED"
        />
        <path
            opacity="0.6"
            d="M204.524 119.895L205.195 118.219C205.29 117.98 205.48 117.79 205.719 117.695L207.395 117.024C207.868 116.835 207.868 116.165 207.395 115.976L205.719 115.305C205.48 115.21 205.29 115.02 205.195 114.781L204.524 113.105C204.335 112.632 203.665 112.632 203.476 113.105L202.805 114.781C202.71 115.02 202.52 115.21 202.281 115.305L200.605 115.976C200.132 116.165 200.132 116.835 200.605 117.024L202.281 117.695C202.52 117.79 202.71 117.98 202.805 118.219L203.476 119.895C203.665 120.368 204.335 120.368 204.524 119.895Z"
            fill="#7226ED"
        />
        <path
            d="M96.6659 142.666C96.3293 142.666 103.409 113.836 103.409 113.836C103.583 113.279 104.034 112.852 104.601 112.714C105.166 112.571 105.766 112.742 106.178 113.154L117.844 124.821C118.186 125.162 118.363 125.634 118.328 126.117C118.293 126.599 118.053 127.042 117.666 127.332L97.6659 142.332C97.3709 142.556 97.0176 142.666 96.6659 142.666Z"
            fill="url(#paint8_linear_2904_7738)"
        />
        <path
            d="M134.986 146C134.631 146 134.277 145.887 133.986 145.667L80.6656 105.667C80.1823 105.305 79.934 104.714 80.0123 104.115C80.0906 103.519 80.4856 103.01 81.0456 102.785L147.714 76.1187C148.282 75.8937 148.929 75.992 149.399 76.3853C149.869 76.7753 150.087 77.392 149.967 77.9937L136.621 144.66C136.509 145.222 136.116 145.685 135.581 145.89C135.389 145.964 135.187 145.999 134.987 145.999L134.986 146Z"
            fill="url(#paint9_linear_2904_7738)"
        />
        <path
            d="M96.6683 142.667C96.5783 142.667 96.49 142.66 96.4 142.645C95.5933 142.514 95 141.817 95 141V116C95 115.474 95.25 114.977 95.6733 114.662L147.34 76.3286C148.048 75.8036 149.038 75.9203 149.605 76.5886C150.173 77.2603 150.122 78.2569 149.488 78.8669L103.665 122.919L98.2483 141.527C98.0183 142.215 97.375 142.667 96.6683 142.667Z"
            fill="url(#paint10_linear_2904_7738)"
        />
    </g>
    <defs>
        <filter
            id="filter0_f_2904_7738"
            x="74.0337"
            y="67.6001"
            width="96.9707"
            height="21.4092"
            filterUnits="userSpaceOnUse"
            color-interpolation-filters="sRGB"
        >
            <feFlood flood-opacity="0" result="BackgroundImageFix" />
            <feBlend mode="normal" in="SourceGraphic" in2="BackgroundImageFix" result="shape" />
            <feGaussianBlur stdDeviation="3.77807" result="effect1_foregroundBlur_2904_7738" />
        </filter>
        <linearGradient
            id="paint0_linear_2904_7738"
            x1="104.034"
            y1="150.993"
            x2="89.8408"
            y2="174.071"
            gradientUnits="userSpaceOnUse"
        >
            <stop stop-color="#BF7AF5" />
            <stop offset="1" stop-color="#D289EC" stop-opacity="0" />
        </linearGradient>
        <linearGradient
            id="paint1_linear_2904_7738"
            x1="104.034"
            y1="64.2222"
            x2="89.8408"
            y2="41.1441"
            gradientUnits="userSpaceOnUse"
        >
            <stop stop-color="#BF7AF5" />
            <stop offset="1" stop-color="#D289EC" stop-opacity="0" />
        </linearGradient>
        <linearGradient
            id="paint2_linear_2904_7738"
            x1="138.143"
            y1="150.993"
            x2="152.337"
            y2="174.071"
            gradientUnits="userSpaceOnUse"
        >
            <stop stop-color="#BF7AF5" />
            <stop offset="1" stop-color="#D289EC" stop-opacity="0" />
        </linearGradient>
        <linearGradient
            id="paint3_linear_2904_7738"
            x1="138.143"
            y1="64.2222"
            x2="152.337"
            y2="41.1441"
            gradientUnits="userSpaceOnUse"
        >
            <stop stop-color="#BF7AF5" />
            <stop offset="1" stop-color="#D289EC" stop-opacity="0" />
        </linearGradient>
        <linearGradient
            id="paint4_linear_2904_7738"
            x1="179.941"
            y1="80.2667"
            x2="236.948"
            y2="52.147"
            gradientUnits="userSpaceOnUse"
        >
            <stop stop-color="#BF7AF5" />
            <stop offset="1" stop-color="#D289EC" stop-opacity="0" />
        </linearGradient>
        <linearGradient
            id="paint5_linear_2904_7738"
            x1="179.941"
            y1="136.241"
            x2="236.948"
            y2="164.361"
            gradientUnits="userSpaceOnUse"
        >
            <stop stop-color="#BF7AF5" />
            <stop offset="1" stop-color="#D289EC" stop-opacity="0" />
        </linearGradient>
        <linearGradient
            id="paint6_linear_2904_7738"
            x1="59.0344"
            y1="80.2667"
            x2="2.02714"
            y2="52.147"
            gradientUnits="userSpaceOnUse"
        >
            <stop stop-color="#BF7AF5" />
            <stop offset="1" stop-color="#D289EC" stop-opacity="0" />
        </linearGradient>
        <linearGradient
            id="paint7_linear_2904_7738"
            x1="59.0344"
            y1="136.241"
            x2="2.02714"
            y2="164.361"
            gradientUnits="userSpaceOnUse"
        >
            <stop stop-color="#BF7AF5" />
            <stop offset="1" stop-color="#D289EC" stop-opacity="0" />
        </linearGradient>
        <linearGradient
            id="paint8_linear_2904_7738"
            x1="107.493"
            y1="112.664"
            x2="107.493"
            y2="142.666"
            gradientUnits="userSpaceOnUse"
        >
            <stop stop-color="#A2A3B4" />
            <stop offset="1" stop-color="#83849B" />
        </linearGradient>
        <linearGradient
            id="paint9_linear_2904_7738"
            x1="114.999"
            y1="76"
            x2="114.999"
            y2="146"
            gradientUnits="userSpaceOnUse"
        >
            <stop stop-color="#E0E0E6" />
            <stop offset="1" stop-color="#C2C3CD" />
        </linearGradient>
        <linearGradient
            id="paint10_linear_2904_7738"
            x1="122.5"
            y1="76"
            x2="122.5"
            y2="142.667"
            gradientUnits="userSpaceOnUse"
        >
            <stop stop-color="#C2C3CD" />
            <stop offset="1" stop-color="#A2A3B4" />
        </linearGradient>
        <clipPath id="clip0_2904_7738">
            <rect width="240" height="135" fill="white" transform="translate(0 40)" />
        </clipPath>
    </defs>
</svg>
