<svg width="240" height="175" viewBox="0 0 240 175" fill="none" xmlns="http://www.w3.org/2000/svg">
    <g clip-path="url(#clip0_2472_24202)">
        <g opacity="0.2" filter="url(#filter0_f_2472_24202)">
            <path
                d="M55.4997 107.5C55.4997 95.0208 55.4997 88.7812 57.8933 83.9996C60.0817 79.6276 63.6273 76.082 67.9993 73.8936C72.781 71.5 79.0205 71.5 91.4997 71.5H152.25C164.729 71.5 170.968 71.5 175.75 73.8936C180.122 76.082 183.668 79.6276 185.856 83.9996C188.25 88.7812 188.25 95.0208 188.25 107.5C188.25 119.979 188.25 126.219 185.856 131C183.668 135.372 180.122 138.918 175.75 141.106C170.968 143.5 164.729 143.5 152.25 143.5H91.4997C79.0205 143.5 72.781 143.5 67.9993 141.106C63.6273 138.918 60.0817 135.372 57.8933 131C55.4997 126.219 55.4997 119.979 55.4997 107.5Z"
                fill="#4B27DD"
            />
        </g>
        <g filter="url(#filter1_ii_2472_24202)">
            <path
                d="M66.5 106.473C66.5 95.9815 66.5 90.7357 68.5418 86.7285C70.3378 83.2036 73.2036 80.3378 76.7285 78.5418C80.7357 76.5 85.9815 76.5 96.4731 76.5H146.584C157.076 76.5 162.322 76.5 166.329 78.5418C169.854 80.3378 172.72 83.2036 174.516 86.7285C176.557 90.7357 176.557 95.9815 176.557 106.473V109.751C176.557 120.243 176.557 125.489 174.516 129.496C172.72 133.021 169.854 135.887 166.329 137.683C162.322 139.724 157.076 139.724 146.584 139.724H96.4731C85.9815 139.724 80.7357 139.724 76.7285 137.683C73.2036 135.887 70.3378 133.021 68.5418 129.496C66.5 125.489 66.5 120.243 66.5 109.751V106.473Z"
                fill="url(#paint0_radial_2472_24202)"
            />
            <path
                d="M66.5 106.473C66.5 95.9815 66.5 90.7357 68.5418 86.7285C70.3378 83.2036 73.2036 80.3378 76.7285 78.5418C80.7357 76.5 85.9815 76.5 96.4731 76.5H146.584C157.076 76.5 162.322 76.5 166.329 78.5418C169.854 80.3378 172.72 83.2036 174.516 86.7285C176.557 90.7357 176.557 95.9815 176.557 106.473V109.751C176.557 120.243 176.557 125.489 174.516 129.496C172.72 133.021 169.854 135.887 166.329 137.683C162.322 139.724 157.076 139.724 146.584 139.724H96.4731C85.9815 139.724 80.7357 139.724 76.7285 137.683C73.2036 135.887 70.3378 133.021 68.5418 129.496C66.5 125.489 66.5 120.243 66.5 109.751V106.473Z"
                fill="url(#paint1_radial_2472_24202)"
                fill-opacity="0.4"
            />
        </g>
        <path
            d="M150.776 119.313C152.07 119.313 153.118 118.265 153.118 116.971V111.117H158.972C160.265 111.117 161.314 110.069 161.314 108.776C161.314 107.482 160.265 106.434 158.972 106.434H153.118V100.58C153.118 99.2867 152.07 98.2383 150.776 98.2383C149.483 98.2383 148.435 99.2867 148.435 100.58V106.434H142.581C141.287 106.434 140.239 107.482 140.239 108.776C140.239 110.069 141.287 111.117 142.581 111.117H148.435L148.435 116.971C148.435 118.265 149.483 119.313 150.776 119.313Z"
            fill="white"
        />
        <path
            d="M70.5 96.0556C70.5 87.4645 77.4645 80.5 86.0556 80.5H110.944C119.536 80.5 126.5 87.4645 126.5 96.0556V120.944C126.5 129.536 119.536 136.5 110.944 136.5H86.0556C77.4645 136.5 70.5 129.536 70.5 120.944V96.0556Z"
            fill="white"
        />
        <mask
            id="mask0_2472_24202"
            style="mask-type: alpha"
            maskUnits="userSpaceOnUse"
            x="82"
            y="94"
            width="34"
            height="29"
        >
            <path
                fill-rule="evenodd"
                clip-rule="evenodd"
                d="M86.4071 122.5C84.4074 122.5 82.7864 120.879 82.7864 118.879V118.085L89.4997 118.085C91.9321 118.085 93.9044 115.978 93.9044 113.379C93.9044 110.78 91.9321 108.673 89.4997 108.673L82.7864 108.673V98.1207C82.7864 96.121 84.4074 94.5 86.4071 94.5H100.629C108.627 94.5 115.112 100.984 115.112 108.983V118.879C115.112 120.879 113.491 122.5 111.491 122.5L86.4071 122.5ZM82.7864 108.673H82.7499L82.7499 118.085H82.7864V108.673ZM91.6645 113.394C91.6645 112.011 90.5434 110.89 89.1604 110.89C87.7775 110.89 86.6564 112.011 86.6564 113.394C86.6564 114.777 87.7775 115.898 89.1604 115.898C90.5434 115.898 91.6645 114.777 91.6645 113.394Z"
                fill="white"
            />
        </mask>
        <g mask="url(#mask0_2472_24202)">
            <path
                d="M86.4071 122.5C84.4074 122.5 82.7864 120.879 82.7864 118.879L82.7864 98.1207C82.7864 96.121 84.4074 94.5 86.4071 94.5L100.629 94.5C108.627 94.5 115.112 100.984 115.112 108.983L115.112 118.879C115.112 120.879 113.491 122.5 111.491 122.5L86.4071 122.5Z"
                fill="url(#paint2_linear_2472_24202)"
            />
            <path
                d="M86.4071 122.5C84.4074 122.5 82.7864 120.879 82.7864 118.879L82.7864 99.0528L97.4202 99.0528C103.419 99.0528 108.282 103.916 108.282 109.915L108.282 122.5L86.4071 122.5Z"
                fill="#6D4AFF"
            />
            <path
                d="M86.4071 122.5C84.4075 122.5 82.7864 120.879 82.7864 118.879L82.7864 99.0528L97.4203 99.0528C103.419 99.0528 108.282 103.916 108.282 109.915L108.282 122.5L86.4071 122.5Z"
                fill="url(#paint3_linear_2472_24202)"
                fill-opacity="0.9"
            />
            <path
                d="M87.5927 122.503L92.8026 116.584L82.7864 117.836V118.882C82.7864 120.882 84.4074 122.503 86.4071 122.503H87.5927Z"
                fill="#FFBB93"
            />
        </g>
        <g opacity="0.7" filter="url(#filter2_f_2472_24202)">
            <ellipse cx="122.519" cy="78.3046" rx="40.9291" ry="3.1484" fill="white" />
        </g>
        <path
            opacity="0.3"
            d="M104.378 152.083C104.732 152.287 104.96 152.559 104.89 152.693L89.5472 182.021C89.3384 182.42 88.3049 182.251 87.2522 181.645C86.1994 181.039 85.5356 180.232 85.7781 179.852L103.593 151.947C103.674 151.819 104.024 151.88 104.378 152.083Z"
            fill="url(#paint4_linear_2472_24202)"
        />
        <path
            opacity="0.3"
            d="M104.378 63.1333C104.732 62.9295 104.96 62.6582 104.89 62.5239L89.5472 33.1961C89.3384 32.7969 88.3049 32.9661 87.2522 33.5718C86.1994 34.1775 85.5356 34.9849 85.7781 35.3647L103.593 63.2703C103.674 63.3981 104.024 63.3371 104.378 63.1333Z"
            fill="url(#paint5_linear_2472_24202)"
        />
        <path
            opacity="0.3"
            d="M137.799 152.083C137.445 152.287 137.217 152.559 137.288 152.693L152.63 182.021C152.839 182.42 153.873 182.251 154.925 181.645C155.978 181.039 156.642 180.232 156.399 179.852L138.585 151.947C138.503 151.819 138.154 151.88 137.799 152.083Z"
            fill="url(#paint6_linear_2472_24202)"
        />
        <path
            opacity="0.3"
            d="M137.799 63.1333C137.445 62.9295 137.217 62.6582 137.288 62.5239L152.63 33.1961C152.839 32.7969 153.873 32.9661 154.925 33.5718C155.978 34.1775 156.642 34.9849 156.399 35.3647L138.585 63.2703C138.503 63.3981 138.154 63.3371 137.799 63.1333Z"
            fill="url(#paint7_linear_2472_24202)"
        />
        <path
            opacity="0.3"
            d="M181.093 78.6279C180.887 78.2749 180.967 77.8445 181.272 77.6609L247.873 37.5639C248.779 37.0181 250.022 37.4303 250.632 38.4791C251.243 39.528 250.984 40.8069 250.058 41.3191L182.024 78.9533C181.713 79.1256 181.298 78.9808 181.093 78.6279Z"
            fill="url(#paint8_linear_2472_24202)"
        />
        <path
            opacity="0.3"
            d="M181.093 137.878C180.887 138.231 180.967 138.661 181.272 138.845L247.873 178.942C248.779 179.488 250.022 179.076 250.632 178.027C251.243 176.978 250.984 175.699 250.058 175.187L182.024 137.553C181.713 137.38 181.298 137.525 181.093 137.878Z"
            fill="url(#paint9_linear_2472_24202)"
        />
        <path
            opacity="0.3"
            d="M57.8829 78.6279C58.0882 78.2749 58.0083 77.8445 57.7033 77.6609L-8.89733 37.5639C-9.8038 37.0181 -11.0464 37.4303 -11.6568 38.4791C-12.2671 39.528 -12.0086 40.8069 -11.0826 41.3191L56.9512 78.9533C57.2628 79.1256 57.6775 78.9808 57.8829 78.6279Z"
            fill="url(#paint10_linear_2472_24202)"
        />
        <path
            opacity="0.3"
            d="M57.8829 137.878C58.0882 138.231 58.0083 138.661 57.7033 138.845L-8.89733 178.942C-9.8038 179.488 -11.0464 179.076 -11.6568 178.027C-12.2671 176.978 -12.0086 175.699 -11.0826 175.187L56.9512 137.553C57.2628 137.38 57.6775 137.525 57.8829 137.878Z"
            fill="url(#paint11_linear_2472_24202)"
        />
        <path
            opacity="0.6"
            d="M29.7014 109.71L28.3606 113.062C28.1693 113.54 27.7903 113.919 27.312 114.111L23.9599 115.451C23.0134 115.83 23.0134 117.17 23.9599 117.549L27.312 118.889C27.7903 119.081 28.1693 119.46 28.3606 119.938L29.7014 123.29C30.08 124.237 31.42 124.237 31.7986 123.29L33.1394 119.938C33.3307 119.46 33.7097 119.081 34.188 118.889L37.5401 117.549C38.4866 117.17 38.4866 115.83 37.5401 115.451L34.188 114.111C33.7097 113.919 33.3307 113.54 33.1394 113.062L31.7986 109.71C31.42 108.763 30.08 108.763 29.7014 109.71Z"
            fill="#7226ED"
        />
        <path
            opacity="0.6"
            d="M75.5243 60.645L76.1947 58.969C76.2904 58.7299 76.4799 58.5404 76.719 58.4447L78.395 57.7743C78.8683 57.585 78.8683 56.915 78.395 56.7257L76.719 56.0553C76.4799 55.9596 76.2904 55.7701 76.1947 55.531L75.5243 53.855C75.335 53.3817 74.665 53.3817 74.4757 53.855L73.8053 55.531C73.7096 55.7701 73.5201 55.9596 73.281 56.0553L71.605 56.7257C71.1317 56.915 71.1317 57.585 71.605 57.7743L73.281 58.4447C73.5201 58.5404 73.7096 58.7299 73.8053 58.969L74.4757 60.645C74.665 61.1183 75.335 61.1183 75.5243 60.645Z"
            fill="#7226ED"
        />
        <path
            opacity="0.6"
            d="M204.524 119.895L205.195 118.219C205.29 117.98 205.48 117.79 205.719 117.695L207.395 117.024C207.868 116.835 207.868 116.165 207.395 115.976L205.719 115.305C205.48 115.21 205.29 115.02 205.195 114.781L204.524 113.105C204.335 112.632 203.665 112.632 203.476 113.105L202.805 114.781C202.71 115.02 202.52 115.21 202.281 115.305L200.605 115.976C200.132 116.165 200.132 116.835 200.605 117.024L202.281 117.695C202.52 117.79 202.71 117.98 202.805 118.219L203.476 119.895C203.665 120.368 204.335 120.368 204.524 119.895Z"
            fill="#7226ED"
        />
    </g>
    <defs>
        <filter
            id="filter0_f_2472_24202"
            x="29.9997"
            y="46"
            width="183.75"
            height="123"
            filterUnits="userSpaceOnUse"
            color-interpolation-filters="sRGB"
        >
            <feFlood flood-opacity="0" result="BackgroundImageFix" />
            <feBlend mode="normal" in="SourceGraphic" in2="BackgroundImageFix" result="shape" />
            <feGaussianBlur stdDeviation="12.75" result="effect1_foregroundBlur_2472_24202" />
        </filter>
        <filter
            id="filter1_ii_2472_24202"
            x="66.5"
            y="75"
            width="110.057"
            height="65.9369"
            filterUnits="userSpaceOnUse"
            color-interpolation-filters="sRGB"
        >
            <feFlood flood-opacity="0" result="BackgroundImageFix" />
            <feBlend mode="normal" in="SourceGraphic" in2="BackgroundImageFix" result="shape" />
            <feColorMatrix
                in="SourceAlpha"
                type="matrix"
                values="0 0 0 0 0 0 0 0 0 0 0 0 0 0 0 0 0 0 127 0"
                result="hardAlpha"
            />
            <feOffset dy="1.21231" />
            <feGaussianBlur stdDeviation="0.606154" />
            <feComposite in2="hardAlpha" operator="arithmetic" k2="-1" k3="1" />
            <feColorMatrix type="matrix" values="0 0 0 0 1 0 0 0 0 1 0 0 0 0 1 0 0 0 0.55 0" />
            <feBlend mode="normal" in2="shape" result="effect1_innerShadow_2472_24202" />
            <feColorMatrix
                in="SourceAlpha"
                type="matrix"
                values="0 0 0 0 0 0 0 0 0 0 0 0 0 0 0 0 0 0 127 0"
                result="hardAlpha"
            />
            <feOffset dy="-1.5" />
            <feGaussianBlur stdDeviation="2.25" />
            <feComposite in2="hardAlpha" operator="arithmetic" k2="-1" k3="1" />
            <feColorMatrix type="matrix" values="0 0 0 0 0 0 0 0 0 0 0 0 0 0 0 0 0 0 0.25 0" />
            <feBlend mode="normal" in2="effect1_innerShadow_2472_24202" result="effect2_innerShadow_2472_24202" />
        </filter>
        <filter
            id="filter2_f_2472_24202"
            x="74.0333"
            y="67.6001"
            width="96.9706"
            height="21.4092"
            filterUnits="userSpaceOnUse"
            color-interpolation-filters="sRGB"
        >
            <feFlood flood-opacity="0" result="BackgroundImageFix" />
            <feBlend mode="normal" in="SourceGraphic" in2="BackgroundImageFix" result="shape" />
            <feGaussianBlur stdDeviation="3.77807" result="effect1_foregroundBlur_2472_24202" />
        </filter>
        <radialGradient
            id="paint0_radial_2472_24202"
            cx="0"
            cy="0"
            r="1"
            gradientUnits="userSpaceOnUse"
            gradientTransform="translate(61.5 53) rotate(41.7108) scale(154.049 114.276)"
        >
            <stop offset="0.561358" stop-color="#6E4BFF" />
            <stop offset="0.840445" stop-color="#F7AE8F" />
            <stop offset="1" stop-color="#F9BD24" />
        </radialGradient>
        <radialGradient
            id="paint1_radial_2472_24202"
            cx="0"
            cy="0"
            r="1"
            gradientUnits="userSpaceOnUse"
            gradientTransform="translate(121.529 76.6719) rotate(90) scale(44.25 77.0278)"
        >
            <stop stop-color="white" />
            <stop offset="1" stop-color="white" stop-opacity="0" />
        </radialGradient>
        <linearGradient
            id="paint2_linear_2472_24202"
            x1="78.6888"
            y1="97.7586"
            x2="118.722"
            y2="113.353"
            gradientUnits="userSpaceOnUse"
        >
            <stop stop-color="#957AFD" />
            <stop offset="1" stop-color="#FFC6C6" />
        </linearGradient>
        <linearGradient
            id="paint3_linear_2472_24202"
            x1="106.842"
            y1="102.653"
            x2="94.4137"
            y2="127.905"
            gradientUnits="userSpaceOnUse"
        >
            <stop offset="0.149916" stop-color="#FA528E" stop-opacity="0" />
            <stop offset="0.720842" stop-color="#FF8065" />
            <stop offset="1" stop-color="#FFA51F" />
        </linearGradient>
        <linearGradient
            id="paint4_linear_2472_24202"
            x1="104.034"
            y1="150.993"
            x2="89.8409"
            y2="174.071"
            gradientUnits="userSpaceOnUse"
        >
            <stop stop-color="#BF7AF5" />
            <stop offset="1" stop-color="#D289EC" stop-opacity="0" />
        </linearGradient>
        <linearGradient
            id="paint5_linear_2472_24202"
            x1="104.034"
            y1="64.2242"
            x2="89.8409"
            y2="41.1461"
            gradientUnits="userSpaceOnUse"
        >
            <stop stop-color="#BF7AF5" />
            <stop offset="1" stop-color="#D289EC" stop-opacity="0" />
        </linearGradient>
        <linearGradient
            id="paint6_linear_2472_24202"
            x1="138.143"
            y1="150.993"
            x2="152.337"
            y2="174.071"
            gradientUnits="userSpaceOnUse"
        >
            <stop stop-color="#BF7AF5" />
            <stop offset="1" stop-color="#D289EC" stop-opacity="0" />
        </linearGradient>
        <linearGradient
            id="paint7_linear_2472_24202"
            x1="138.143"
            y1="64.2242"
            x2="152.337"
            y2="41.1461"
            gradientUnits="userSpaceOnUse"
        >
            <stop stop-color="#BF7AF5" />
            <stop offset="1" stop-color="#D289EC" stop-opacity="0" />
        </linearGradient>
        <linearGradient
            id="paint8_linear_2472_24202"
            x1="179.941"
            y1="80.2667"
            x2="236.948"
            y2="52.147"
            gradientUnits="userSpaceOnUse"
        >
            <stop stop-color="#BF7AF5" />
            <stop offset="1" stop-color="#D289EC" stop-opacity="0" />
        </linearGradient>
        <linearGradient
            id="paint9_linear_2472_24202"
            x1="179.941"
            y1="136.239"
            x2="236.948"
            y2="164.359"
            gradientUnits="userSpaceOnUse"
        >
            <stop stop-color="#BF7AF5" />
            <stop offset="1" stop-color="#D289EC" stop-opacity="0" />
        </linearGradient>
        <linearGradient
            id="paint10_linear_2472_24202"
            x1="59.0344"
            y1="80.2667"
            x2="2.02717"
            y2="52.147"
            gradientUnits="userSpaceOnUse"
        >
            <stop stop-color="#BF7AF5" />
            <stop offset="1" stop-color="#D289EC" stop-opacity="0" />
        </linearGradient>
        <linearGradient
            id="paint11_linear_2472_24202"
            x1="59.0344"
            y1="136.239"
            x2="2.02717"
            y2="164.359"
            gradientUnits="userSpaceOnUse"
        >
            <stop stop-color="#BF7AF5" />
            <stop offset="1" stop-color="#D289EC" stop-opacity="0" />
        </linearGradient>
        <clipPath id="clip0_2472_24202">
            <rect width="240" height="135" fill="white" transform="translate(0 40)" />
        </clipPath>
    </defs>
</svg>
