<svg xmlns="http://www.w3.org/2000/svg" fill="none" viewBox="0 0 238 135">
    <g clip-path="url(#a)" filter="url(#b)">
        <path
            fill="#302D3F"
            d="M186.261 111.004H51.739V31.52c0-4.186 3.306-7.61 7.345-7.61h119.832c4.04 0 7.345 3.424 7.345 7.61v79.484Z"
        />
        <path
            fill="#fff"
            d="M180.225 111.004H57.775V31.807c0-1.027.796-1.861 1.774-1.861H178.39c.978 0 1.774.834 1.774 1.86v79.198h.061Z"
        />
        <path
            fill="#8B8B8B"
            d="M200.985 113.591H37.015c-1.415 0-2.522-1.183-2.522-2.694v-1.511c0-1.511 1.107-2.694 2.522-2.694h163.97c1.415 0 2.522 1.183 2.522 2.694v1.511c0 1.511-1.169 2.694-2.522 2.694Z"
        />
        <path
            fill="#999"
            d="M127.27 110.142h-16.541c-2.134 0-3.802-1.574-3.802-3.45h24.145c0 1.876-1.667 3.45-3.802 3.45Z"
        />
        <path
            fill="#fff"
            stroke="#F0ECE6"
            stroke-width="1.207"
            d="M68.727 68.75a6.295 6.295 0 0 1 6.295-6.295h87.956a6.295 6.295 0 0 1 6.295 6.295v8.624a6.295 6.295 0 0 1-6.295 6.294H75.022a6.295 6.295 0 0 1-6.295-6.294V68.75Z"
        />
        <path
            fill="#706D6B"
            d="M81.468 72.765H79.56l1.348-1.353a.452.452 0 0 0-.636-.636l-1.352 1.352V70.22a.452.452 0 0 0-.904 0v1.91l-1.348-1.353a.454.454 0 0 0-.776.122.452.452 0 0 0 .14.514l1.351 1.353h-1.909a.452.452 0 0 0 0 .903h1.91l-1.353 1.353a.452.452 0 1 0 .637.636l1.348-1.352v1.909a.451.451 0 1 0 .904 0v-1.91l1.352 1.353a.452.452 0 1 0 .636-.636l-1.348-1.353h1.91a.452.452 0 0 0 0-.903ZM94.978 72.765h-1.91l1.35-1.353a.451.451 0 0 0-.637-.636l-1.353 1.352V70.22a.452.452 0 0 0-.903 0v1.91l-1.349-1.353a.452.452 0 1 0-.636.636l1.352 1.353h-1.909a.452.452 0 1 0 0 .903h1.91l-1.353 1.353a.452.452 0 1 0 .636.636l1.349-1.352v1.909a.452.452 0 1 0 .903 0v-1.91l1.353 1.353a.452.452 0 1 0 .636-.636l-1.348-1.353h1.909a.452.452 0 0 0 0-.903ZM108.488 72.765h-1.909l1.348-1.353a.453.453 0 0 0-.327-.74.45.45 0 0 0-.309.104l-1.353 1.352V70.22a.45.45 0 0 0-.771-.32.452.452 0 0 0-.133.32v1.91l-1.348-1.353a.46.46 0 0 0-.328-.168.45.45 0 0 0-.447.29.456.456 0 0 0 .02.368.447.447 0 0 0 .119.146l1.352 1.353h-1.909a.453.453 0 0 0 0 .903h1.909l-1.352 1.353a.445.445 0 0 0-.162.326.444.444 0 0 0 .132.34.443.443 0 0 0 .339.132.453.453 0 0 0 .327-.162l1.348-1.352v1.909a.451.451 0 0 0 .904 0v-1.91l1.353 1.353a.451.451 0 1 0 .636-.636l-1.348-1.353h1.909a.451.451 0 0 0 0-.903ZM121.997 72.765h-1.909l1.349-1.353a.453.453 0 0 0-.637-.636l-1.352 1.352V70.22a.455.455 0 0 0-.452-.452.45.45 0 0 0-.452.452v1.91l-1.348-1.353a.46.46 0 0 0-.328-.168.455.455 0 0 0-.448.29.461.461 0 0 0 .139.514l1.353 1.353h-1.909a.453.453 0 0 0-.32.77c.085.086.2.133.32.133h1.909l-1.353 1.353a.454.454 0 0 0-.03.666.462.462 0 0 0 .34.132.456.456 0 0 0 .327-.162l1.348-1.352v1.909a.452.452 0 0 0 .904 0v-1.91l1.352 1.353a.445.445 0 0 0 .327.162.454.454 0 0 0 .472-.472.453.453 0 0 0-.162-.326l-1.349-1.353h1.909a.453.453 0 0 0 0-.903ZM135.507 72.765h-1.909l1.348-1.353a.453.453 0 0 0-.327-.74.45.45 0 0 0-.309.104l-1.353 1.352V70.22a.45.45 0 1 0-.903 0v1.91l-1.349-1.353a.46.46 0 0 0-.328-.168.45.45 0 0 0-.447.29.456.456 0 0 0 .02.368.447.447 0 0 0 .119.146l1.352 1.353h-1.909a.453.453 0 0 0 0 .903h1.909l-1.352 1.353a.458.458 0 0 0-.162.326.444.444 0 0 0 .132.34.443.443 0 0 0 .34.132.453.453 0 0 0 .326-.162l1.349-1.352v1.909a.45.45 0 0 0 .771.32.45.45 0 0 0 .132-.32v-1.91l1.353 1.353a.451.451 0 1 0 .636-.636l-1.348-1.353h1.909a.45.45 0 0 0 .452-.452.451.451 0 0 0-.452-.451ZM149.017 72.765h-1.91l1.349-1.353a.453.453 0 0 0-.637-.636l-1.352 1.352V70.22a.455.455 0 0 0-.452-.452.45.45 0 0 0-.452.452v1.91l-1.348-1.353a.46.46 0 0 0-.328-.168.457.457 0 0 0-.345.132.456.456 0 0 0-.083.527.45.45 0 0 0 .12.145l1.352 1.353h-1.909a.453.453 0 0 0 0 .903h1.909l-1.352 1.353a.445.445 0 0 0-.162.326.444.444 0 0 0 .131.34.462.462 0 0 0 .34.132.458.458 0 0 0 .327-.162l1.348-1.352v1.909a.451.451 0 0 0 .904 0v-1.91l1.352 1.353a.455.455 0 0 0 .667.03.462.462 0 0 0 .132-.34.454.454 0 0 0-.162-.326l-1.349-1.353h1.91a.453.453 0 0 0 0-.903ZM162.526 72.765h-1.909l1.348-1.353a.45.45 0 0 0-.027-.609.452.452 0 0 0-.609-.027l-1.352 1.352V70.22a.452.452 0 0 0-.904 0v1.91l-1.348-1.353a.453.453 0 1 0-.637.636l1.353 1.353h-1.91a.452.452 0 0 0 0 .903h1.91l-1.353 1.353a.455.455 0 0 0-.03.666.462.462 0 0 0 .34.132.449.449 0 0 0 .327-.162l1.348-1.352v1.909a.454.454 0 0 0 .452.452.451.451 0 0 0 .452-.452v-1.91l1.352 1.353a.451.451 0 1 0 .636-.636l-1.348-1.353h1.909a.453.453 0 0 0 .32-.771.453.453 0 0 0-.32-.132Z"
        />
        <g filter="url(#c)" opacity=".3">
            <path
                fill="#1F1548"
                d="M103.479 74.941a6.898 6.898 0 0 1 6.898-6.898h18.109a6.898 6.898 0 0 1 6.898 6.898v10.423a6.898 6.898 0 0 1-6.898 6.899h-18.109a6.898 6.898 0 0 1-6.898-6.899V74.941Z"
            />
        </g>
        <path
            fill="#706D6B"
            fill-rule="evenodd"
            d="M132.32 63.577V51.73c0-7.245-5.86-13.114-13.096-13.114-7.235 0-13.096 5.869-13.096 13.114v11.353h4.266V51.73c0-5.217 3.693-8.915 8.903-8.915 5.209 0 8.902 3.698 8.902 8.915v11.846h4.121Z"
            clip-rule="evenodd"
        />
        <path
            fill="url(#d)"
            d="M134.706 90.162h-30.921a2.896 2.896 0 0 1-2.893-2.898V62.698a2.895 2.895 0 0 1 2.893-2.897h30.921a2.896 2.896 0 0 1 2.893 2.897v24.566a2.896 2.896 0 0 1-2.893 2.898Z"
        />
        <path
            fill="#3D3C3A"
            d="M123.013 71.813a3.784 3.784 0 0 0-3.798-3.802 3.784 3.784 0 0 0-3.797 3.802c0 1.449.784 2.656 1.989 3.32l-1.567 6.76h6.751l-1.567-6.76c1.205-.604 1.989-1.871 1.989-3.32Z"
        />
    </g>
    <defs>
        <filter
            id="b"
            width="199.924"
            height="120.59"
            x="19.038"
            y="14.637"
            color-interpolation-filters="sRGB"
            filterUnits="userSpaceOnUse"
        >
            <feFlood flood-opacity="0" result="BackgroundImageFix" />
            <feColorMatrix in="SourceAlpha" result="hardAlpha" values="0 0 0 0 0 0 0 0 0 0 0 0 0 0 0 0 0 0 127 0" />
            <feOffset dy="6.182" />
            <feGaussianBlur stdDeviation="7.727" />
            <feComposite in2="hardAlpha" operator="out" />
            <feColorMatrix values="0 0 0 0 0 0 0 0 0 0 0 0 0 0 0 0 0 0 0.2 0" />
            <feBlend in2="BackgroundImageFix" result="effect1_dropShadow_239_8000" />
            <feColorMatrix in="SourceAlpha" result="hardAlpha" values="0 0 0 0 0 0 0 0 0 0 0 0 0 0 0 0 0 0 127 0" />
            <feOffset dy="1.545" />
            <feGaussianBlur stdDeviation="1.545" />
            <feComposite in2="hardAlpha" operator="out" />
            <feColorMatrix values="0 0 0 0 0 0 0 0 0 0 0 0 0 0 0 0 0 0 0.25 0" />
            <feBlend in2="effect1_dropShadow_239_8000" result="effect2_dropShadow_239_8000" />
            <feBlend in="SourceGraphic" in2="effect2_dropShadow_239_8000" result="shape" />
        </filter>
        <filter
            id="c"
            width="48.635"
            height="40.949"
            x="95.114"
            y="59.678"
            color-interpolation-filters="sRGB"
            filterUnits="userSpaceOnUse"
        >
            <feFlood flood-opacity="0" result="BackgroundImageFix" />
            <feBlend in="SourceGraphic" in2="BackgroundImageFix" result="shape" />
            <feGaussianBlur result="effect1_foregroundBlur_239_8000" stdDeviation="4.182" />
        </filter>
        <linearGradient id="d" x1="119.245" x2="119.245" y1="59.801" y2="90.162" gradientUnits="userSpaceOnUse">
            <stop stop-color="#FFE26D" />
            <stop offset="1" stop-color="#FFA16D" />
        </linearGradient>
        <clipPath id="a"><path fill="#fff" d="M0 0h238v134.522H0z" /></clipPath>
    </defs>
</svg>
