<svg width="47" height="46" viewBox="0 0 47 46" fill="none" xmlns="http://www.w3.org/2000/svg">
<path d="M21.2664 45.1854C32.2732 45.1854 41.1961 36.2628 41.1961 25.256C41.1961 14.2493 32.2732 5.32664 21.2664 5.32664C10.2595 5.32664 1.33665 14.2493 1.33665 25.256C1.33665 36.2628 10.2595 45.1854 21.2664 45.1854Z" fill="white" stroke="url(#paint0_linear_1948_19014)" stroke-width="1.02202"/>
<path fill-rule="evenodd" clip-rule="evenodd" d="M28.3942 21.1019C28.3942 25.053 25.1912 28.256 21.2401 28.256C17.289 28.256 14.086 25.053 14.086 21.1019C14.086 17.1508 17.289 13.9478 21.2401 13.9478C25.1912 13.9478 28.3942 17.1508 28.3942 21.1019ZM21.2192 44.6701C26.8568 44.6701 31.9332 42.2677 35.4807 38.4308C32.0159 34.0997 26.686 31.3255 20.7082 31.3255C15.0082 31.3255 9.89732 33.8478 6.43079 37.8371C9.99254 42.0183 15.2962 44.6701 21.2192 44.6701Z" fill="url(#paint1_linear_1948_19014)"/>
<g opacity="0.2" filter="url(#filter0_f_1948_19014)">
<path fill-rule="evenodd" clip-rule="evenodd" d="M39.8358 18.7421C38.0315 13.6723 34.1802 9.57332 29.2765 7.4397C28.8624 8.44004 28.6339 9.53667 28.6339 10.6867C28.6339 15.3786 32.4375 19.1822 37.1295 19.1822C38.0757 19.1822 38.9857 19.0275 39.8358 18.7421Z" fill="#1C008A"/>
</g>
<path d="M46.2891 9.98061C46.2891 5.46504 42.6285 1.80444 38.1129 1.80444C33.5973 1.80444 29.9367 5.46504 29.9367 9.98061C29.9367 14.4962 33.5973 18.1568 38.1129 18.1568C42.6285 18.1568 46.2891 14.4962 46.2891 9.98061Z" fill="url(#paint2_linear_1948_19014)"/>
<path d="M37.0977 4.8792C37.0977 4.31475 37.5552 3.85718 38.1197 3.85718C38.6841 3.85718 39.1417 4.31475 39.1417 4.8792V11.0113C39.1417 11.5758 38.6841 12.0333 38.1197 12.0333C37.5552 12.0333 37.0977 11.5758 37.0977 11.0113V4.8792Z" fill="white"/>
<ellipse cx="38.1197" cy="14.0667" rx="1.02202" ry="1.02202" fill="white"/>
<defs>
<filter id="filter0_f_1948_19014" x="24.5458" y="3.35161" width="19.3781" height="19.9186" filterUnits="userSpaceOnUse" color-interpolation-filters="sRGB">
<feFlood flood-opacity="0" result="BackgroundImageFix"/>
<feBlend mode="normal" in="SourceGraphic" in2="BackgroundImageFix" result="shape"/>
<feGaussianBlur stdDeviation="2.04404" result="effect1_foregroundBlur_1948_19014"/>
</filter>
<linearGradient id="paint0_linear_1948_19014" x1="21.2664" y1="5.83765" x2="21.2664" y2="44.6744" gradientUnits="userSpaceOnUse">
<stop stop-color="#D6C4FF"/>
<stop offset="1" stop-color="#F8E0FF"/>
</linearGradient>
<linearGradient id="paint1_linear_1948_19014" x1="22.3221" y1="4.03645" x2="31.1716" y2="41.6588" gradientUnits="userSpaceOnUse">
<stop stop-color="#ECAAFF"/>
<stop offset="1" stop-color="#6A48F6"/>
</linearGradient>
<linearGradient id="paint2_linear_1948_19014" x1="38.1129" y1="3.44544" x2="38.1129" y2="24.6797" gradientUnits="userSpaceOnUse">
<stop stop-color="#FA5284"/>
<stop offset="1" stop-color="#DC3251"/>
</linearGradient>
</defs>
</svg>
