<svg width="80" height="96" viewBox="0 0 80 96" fill="none" xmlns="http://www.w3.org/2000/svg">
    <g clip-path="url(#clip0_2607_7947)">
        <path
            d="M55.652 45.5655H52.1737V31.6523C52.1737 24.9288 46.7233 19.4783 39.9998 19.4783C33.2764 19.4783 27.8259 24.9288 27.8259 31.6523V45.5655H24.3477V31.6523C24.3477 23.007 31.3546 16 39.9998 16C48.6451 16 55.652 23.007 55.652 31.6523V45.5655Z"
            fill="url(#paint0_linear_2607_7947)"
        />
        <path
            d="M22.6085 95.9993C25.4901 95.9993 27.8259 93.6635 27.8259 90.7819C27.8259 87.9003 25.4901 85.5645 22.6085 85.5645C19.7269 85.5645 17.3911 87.9003 17.3911 90.7819C17.3911 93.6635 19.7269 95.9993 22.6085 95.9993Z"
            fill="#767DFF"
        />
        <path
            d="M40.0001 95.9993C42.8817 95.9993 45.2175 93.6635 45.2175 90.7819C45.2175 87.9003 42.8817 85.5645 40.0001 85.5645C37.1185 85.5645 34.7827 87.9003 34.7827 90.7819C34.7827 93.6635 37.1185 95.9993 40.0001 95.9993Z"
            fill="#767DFF"
        />
        <path
            d="M57.3912 95.9993C60.2728 95.9993 62.6086 93.6635 62.6086 90.7819C62.6086 87.9003 60.2728 85.5645 57.3912 85.5645C54.5097 85.5645 52.1738 87.9003 52.1738 90.7819C52.1738 93.6635 54.5097 95.9993 57.3912 95.9993Z"
            fill="#767DFF"
        />
        <path
            d="M74.7828 95.9993C77.6644 95.9993 80.0002 93.6635 80.0002 90.7819C80.0002 87.9003 77.6644 85.5645 74.7828 85.5645C71.9013 85.5645 69.5654 87.9003 69.5654 90.7819C69.5654 93.6635 71.9013 95.9993 74.7828 95.9993Z"
            fill="#767DFF"
        />
        <path
            d="M5.21739 95.9993C8.09887 95.9993 10.4348 93.6635 10.4348 90.7819C10.4348 87.9003 8.09887 85.5645 5.21739 85.5645C2.33591 85.5645 0 87.9003 0 90.7819C0 93.6635 2.33591 95.9993 5.21739 95.9993Z"
            fill="#767DFF"
        />
        <path
            d="M60.8696 43.8262H19.1305C16.2487 43.8262 13.9131 46.1618 13.9131 49.0436V73.3916C13.9131 76.2734 16.2487 78.6091 19.1305 78.6091H60.8696C63.7514 78.6091 66.087 76.2734 66.087 73.3916V49.0436C66.087 46.1618 63.7514 43.8262 60.8696 43.8262Z"
            fill="url(#paint1_linear_2607_7947)"
        />
        <path
            d="M41.7392 64.4497V69.9124C41.7392 70.8724 40.9601 71.6515 40.0001 71.6515C39.0401 71.6515 38.2609 70.8724 38.2609 69.9124V64.4497C34.5409 63.4897 32.3044 59.6949 33.2644 55.9748C34.2244 52.2548 38.0192 50.0183 41.7392 50.9783C45.4592 51.9383 47.6957 55.7331 46.7357 59.4531C46.1027 61.9036 44.1896 63.8166 41.7392 64.4497Z"
            fill="url(#paint2_linear_2607_7947)"
        />
    </g>
    <defs>
        <linearGradient
            id="paint0_linear_2607_7947"
            x1="39.9998"
            y1="16"
            x2="39.9998"
            y2="45.5655"
            gradientUnits="userSpaceOnUse"
        >
            <stop stop-color="#E0E0E6" />
            <stop offset="1" stop-color="#C2C3CD" />
        </linearGradient>
        <linearGradient
            id="paint1_linear_2607_7947"
            x1="40"
            y1="43.8262"
            x2="40"
            y2="78.6091"
            gradientUnits="userSpaceOnUse"
        >
            <stop stop-color="#FFD36E" />
            <stop offset="1" stop-color="#F6B828" />
        </linearGradient>
        <linearGradient
            id="paint2_linear_2607_7947"
            x1="40.0001"
            y1="50.7558"
            x2="40.0001"
            y2="78.6081"
            gradientUnits="userSpaceOnUse"
        >
            <stop stop-color="#C88509" />
            <stop offset="1" stop-color="#F6B828" />
        </linearGradient>
        <clipPath id="clip0_2607_7947">
            <rect width="80" height="95.9993" fill="white" />
        </clipPath>
    </defs>
</svg>
