<svg width="80" height="80" viewBox="0 0 80 80" fill="none" xmlns="http://www.w3.org/2000/svg">
    <path
        d="M75.8685 65.0673L45.8785 8.55728C44.1768 5.31061 40.1668 4.05894 36.9202 5.75894C35.7252 6.38561 34.7485 7.36061 34.1218 8.55728L4.13184 65.0673C3.00517 67.174 3.07351 69.719 4.31184 71.7623C5.50517 73.774 7.6735 75.0057 10.0118 75.0006H69.9885C72.3268 75.0057 74.4951 73.774 75.6885 71.7623C76.9268 69.719 76.9951 67.174 75.8685 65.0673Z"
        fill="#FF6464"
    />
    <path
        d="M38.3867 25H41.6151C42.5567 25 43.3101 25.7783 43.2817 26.7183L42.5517 50.0517C42.5234 50.9517 41.7867 51.6667 40.8851 51.6667H39.1151C38.2151 51.6667 37.4767 50.9517 37.4484 50.0517L36.7184 26.7183C36.6884 25.7783 37.4451 25 38.3867 25Z"
        fill="white"
    />
    <path
        d="M40 66.667C42.7615 66.667 45 64.4285 45 61.667C45 58.9055 42.7615 56.667 40 56.667C37.2385 56.667 35 58.9055 35 61.667C35 64.4285 37.2385 66.667 40 66.667Z"
        fill="white"
    />
</svg>
