<svg width="24" height="24" viewBox="0 0 24 24" fill="none" xmlns="http://www.w3.org/2000/svg">
    <g clip-path="url(#clip0_29_12)">
        <path d="M24 0H0V24H24V0Z" fill="white" />
        <mask id="mask0_29_12" style="mask-type: alpha" maskUnits="userSpaceOnUse" x="6" y="7" width="12" height="11">
            <path
                fill-rule="evenodd"
                clip-rule="evenodd"
                d="M6.16665 15.8822C6.16665 16.5621 6.71779 17.1132 7.39766 17.1132L16.6023 17.0942C17.2822 17.0942 17.8333 16.5431 17.8333 15.8632V11.924C17.8333 9.20456 15.6287 7 12.9093 7L7.39766 7.01899C6.71779 7.01899 6.16665 7.57013 6.16665 8.25L6.16665 12.1095H6.16663V15.5027H6.16665V15.8822ZM6.16665 15.5027H8.59999C9.47687 15.5027 10.1879 14.743 10.1879 13.8061C10.1879 12.8692 9.47687 12.1095 8.59999 12.1095L6.16665 12.1095L6.16665 15.5027ZM8.47765 12.9088C8.97621 12.9088 9.38038 13.313 9.38038 13.8115C9.38038 14.3101 8.97621 14.7143 8.47765 14.7143C7.97908 14.7143 7.57491 14.3101 7.57491 13.8115C7.57491 13.313 7.97908 12.9088 8.47765 12.9088Z"
                fill="white"
            />
        </mask>
        <g mask="url(#mask0_29_12)">
            <path
                d="M7.39928 17.0942C6.71941 17.0942 6.16827 16.5431 6.16827 15.8632L6.16827 8.231C6.16827 7.55113 6.71941 6.99999 7.39928 6.99999L12.9092 6.99999C15.6287 6.99999 17.8333 9.20455 17.8333 11.924L17.8333 15.8632C17.8333 16.5431 17.2821 17.0942 16.6023 17.0942L7.39928 17.0942Z"
                fill="url(#paint0_linear_29_12)"
            />
            <path
                d="M7.39763 17.1196C6.71777 17.1196 6.16663 16.5684 6.16663 15.8886L6.16663 8.66666L11.6782 8.66666C13.7178 8.66666 15.3712 10.3201 15.3712 12.3597V17.1196H7.39763Z"
                fill="#6D4AFF"
            />
            <path
                d="M7.39763 17.1196C6.71777 17.1196 6.16663 16.5684 6.16663 15.8886L6.16663 8.66666L11.6782 8.66666C13.7178 8.66666 15.3712 10.3201 15.3712 12.3597V17.1196H7.39763Z"
                fill="url(#paint1_linear_29_12)"
                fill-opacity="0.9"
            />
            <path
                d="M7.91246 17.0942L9.79067 14.9605L6.16663 15.4118V15.8632C6.16663 16.5431 6.71777 17.0942 7.39763 17.0942H7.91246Z"
                fill="#FFBB93"
            />
            <path
                fill-rule="evenodd"
                clip-rule="evenodd"
                d="M8.59999 15.5026C9.47687 15.5026 10.1879 14.7429 10.1879 13.8061C10.1879 12.8692 9.47687 12.1095 8.59999 12.1095L6.16663 12.1095V15.5026H8.59999ZM9.38038 13.8115C9.38038 13.313 8.97621 12.9088 8.47765 12.9088C7.97908 12.9088 7.57491 13.313 7.57491 13.8115C7.57491 14.3101 7.97908 14.7143 8.47765 14.7143C8.97621 14.7143 9.38038 14.3101 9.38038 13.8115Z"
                fill="white"
            />
        </g>
    </g>
    <defs>
        <linearGradient
            id="paint0_linear_29_12"
            x1="4.70254"
            y1="8.17475"
            x2="19.1347"
            y2="13.7967"
            gradientUnits="userSpaceOnUse"
        >
            <stop stop-color="#957AFD" />
            <stop offset="1" stop-color="#FFC6C6" />
        </linearGradient>
        <linearGradient
            id="paint1_linear_29_12"
            x1="14.851"
            y1="9.96439"
            x2="10.3746"
            y2="19.0733"
            gradientUnits="userSpaceOnUse"
        >
            <stop offset="0.149916" stop-color="#FA528E" stop-opacity="0" />
            <stop offset="0.720842" stop-color="#FF8065" />
            <stop offset="1" stop-color="#FFA51F" />
        </linearGradient>
        <clipPath id="clip0_29_12">
            <rect width="24" height="24" fill="white" />
        </clipPath>
    </defs>
</svg>
