<svg width="24" height="24" viewBox="0 0 24 24" fill="none" xmlns="http://www.w3.org/2000/svg">
<g clip-path="url(#clip0_1_648)">
<path d="M24 0H0V24H24V0Z" fill="white"/>
<path d="M15.6032 10.0347V16.3521C15.4123 16.2304 15.2215 16.1075 15.0294 15.9859C14.9743 15.9513 14.9179 15.9154 14.8564 15.8975C14.7936 15.8796 14.7219 15.8809 14.6668 15.9154C14.6233 15.9436 14.5938 15.9897 14.572 16.0371C14.5554 16.0704 14.5413 16.1037 14.5272 16.1382C14.4426 16.4365 14.262 16.6939 14.0225 16.8783C14.0148 16.8834 14.0071 16.8898 13.9994 16.8949C13.9521 16.9308 13.9021 16.9641 13.8495 16.9922C13.8483 16.9922 13.8457 16.9961 13.8432 16.9974C13.8432 16.9974 13.8418 16.9974 13.8406 16.9986C13.7919 17.0242 13.7419 17.0486 13.6894 17.0691C13.6779 17.0742 13.6664 17.078 13.6548 17.0819C13.6151 17.0972 13.5729 17.1113 13.5306 17.1228C13.5165 17.1267 13.5012 17.1305 13.487 17.1344C13.446 17.1433 13.4038 17.151 13.3615 17.1574C13.3474 17.16 13.3333 17.1625 13.3192 17.1638C13.2641 17.1702 13.2091 17.174 13.1527 17.174H7.10907C6.33024 17.174 5.7 16.5441 5.7 15.7656V8.6263H10.4563C10.5126 8.6263 10.5677 8.63012 10.6228 8.63651C10.6369 8.63782 10.6509 8.64038 10.6663 8.64295C10.7073 8.64934 10.7496 8.65703 10.7906 8.66725C10.8047 8.66981 10.8201 8.67364 10.8354 8.67877C10.8764 8.69029 10.9187 8.70311 10.9584 8.71846C10.9699 8.72233 10.9827 8.72615 10.9942 8.73128C11.0455 8.75176 11.0968 8.7761 11.1441 8.80297H11.1467C11.1467 8.80297 11.1518 8.80684 11.1544 8.8081C11.2056 8.83753 11.2556 8.86957 11.303 8.90539C11.3106 8.91052 11.3183 8.91691 11.326 8.92334C11.5669 9.1064 11.7462 9.36376 11.832 9.66211C11.8448 9.69667 11.8589 9.72997 11.8756 9.76327C11.8986 9.81061 11.9268 9.85673 11.9716 9.8849C12.0255 9.91946 12.0972 9.92072 12.16 9.90281C12.2214 9.8849 12.2778 9.84904 12.3329 9.81448C12.616 9.63394 12.8991 9.4534 13.1809 9.27286C13.1835 9.2716 13.1847 9.27029 13.186 9.26903L13.195 9.2639C13.195 9.2639 13.1975 9.2639 13.1988 9.26134C13.2257 9.24469 13.2526 9.22678 13.2808 9.20887H13.2834C13.3 9.19604 13.3167 9.18583 13.3346 9.17426C13.4319 9.11153 13.5306 9.05011 13.6305 8.98607C14.0878 8.69416 14.6412 8.73128 15.0447 8.99503C15.347 9.19222 15.5648 9.51356 15.5981 9.91816C15.6006 9.95659 15.6032 9.99502 15.6032 10.0347Z" fill="#6D4AFF"/>
<path d="M15.6032 10.0347V16.3521C15.4123 16.2304 15.2215 16.1075 15.0294 15.9859C14.9743 15.9513 14.9179 15.9154 14.8564 15.8975C14.7936 15.8796 14.7219 15.8809 14.6668 15.9154C14.6233 15.9436 14.5938 15.9897 14.572 16.0371C14.5554 16.0704 14.5413 16.1037 14.5272 16.1382C14.4426 16.4365 14.262 16.6939 14.0225 16.8783C14.0148 16.8834 14.0071 16.8898 13.9994 16.8949C13.9521 16.9308 13.9021 16.9641 13.8495 16.9922C13.8483 16.9922 13.8457 16.9961 13.8432 16.9974C13.8432 16.9974 13.8418 16.9974 13.8406 16.9986C13.7919 17.0242 13.7419 17.0486 13.6894 17.0691C13.6779 17.0742 13.6664 17.078 13.6548 17.0819C13.6151 17.0972 13.5729 17.1113 13.5306 17.1228C13.5165 17.1267 13.5012 17.1305 13.487 17.1344C13.446 17.1433 13.4038 17.151 13.3615 17.1574C13.3474 17.16 13.3333 17.1625 13.3192 17.1638C13.2641 17.1702 13.2091 17.174 13.1527 17.174H7.10907C6.33024 17.174 5.7 16.5441 5.7 15.7656V8.6263H10.4563C10.5126 8.6263 10.5677 8.63012 10.6228 8.63651C10.6369 8.63782 10.6509 8.64038 10.6663 8.64295C10.7073 8.64934 10.7496 8.65703 10.7906 8.66725C10.8047 8.66981 10.8201 8.67364 10.8354 8.67877C10.8764 8.69029 10.9187 8.70311 10.9584 8.71846C10.9699 8.72233 10.9827 8.72615 10.9942 8.73128C11.0455 8.75176 11.0968 8.7761 11.1441 8.80297H11.1467C11.1467 8.80297 11.1518 8.80684 11.1544 8.8081C11.2056 8.83753 11.2556 8.86957 11.303 8.90539C11.3106 8.91052 11.3183 8.91691 11.326 8.92334C11.5669 9.1064 11.7462 9.36376 11.832 9.66211C11.8448 9.69667 11.8589 9.72997 11.8756 9.76327C11.8986 9.81061 11.9268 9.85673 11.9716 9.8849C12.0255 9.91946 12.0972 9.92072 12.16 9.90281C12.2214 9.8849 12.2778 9.84904 12.3329 9.81448C12.616 9.63394 12.8991 9.4534 13.1809 9.27286C13.1835 9.2716 13.1847 9.27029 13.186 9.26903L13.195 9.2639C13.195 9.2639 13.1975 9.2639 13.1988 9.26134C13.2257 9.24469 13.2526 9.22678 13.2808 9.20887H13.2834C13.3 9.19604 13.3167 9.18583 13.3346 9.17426C13.4319 9.11153 13.5306 9.05011 13.6305 8.98607C14.0878 8.69416 14.6412 8.73128 15.0447 8.99503C15.347 9.19222 15.5648 9.51356 15.5981 9.91816C15.6006 9.95659 15.6032 9.99502 15.6032 10.0347Z" fill="url(#paint0_radial_1_648)"/>
<path d="M15.6032 10.0347V16.3521C15.4123 16.2304 15.2215 16.1075 15.0294 15.9859C14.9743 15.9513 14.9179 15.9154 14.8564 15.8975C14.7936 15.8796 14.7219 15.8809 14.6668 15.9154C14.6233 15.9436 14.5938 15.9897 14.572 16.0371C14.5554 16.0704 14.5413 16.1037 14.5272 16.1382C14.4426 16.4365 14.262 16.6939 14.0225 16.8783C14.0148 16.8834 14.0071 16.8898 13.9994 16.8949C13.9521 16.9308 13.9021 16.9641 13.8495 16.9922C13.8483 16.9922 13.8457 16.9961 13.8432 16.9974C13.8432 16.9974 13.8418 16.9974 13.8406 16.9986C13.7919 17.0242 13.7419 17.0486 13.6894 17.0691C13.6779 17.0742 13.6664 17.078 13.6548 17.0819C13.6151 17.0972 13.5729 17.1113 13.5306 17.1228C13.5165 17.1267 13.5012 17.1305 13.487 17.1344C13.446 17.1433 13.4038 17.151 13.3615 17.1574C13.3474 17.16 13.3333 17.1625 13.3192 17.1638C13.2641 17.1702 13.2091 17.174 13.1527 17.174H7.10907C6.33024 17.174 5.7 16.5441 5.7 15.7656V8.6263H10.4563C10.5126 8.6263 10.5677 8.63012 10.6228 8.63651C10.6369 8.63782 10.6509 8.64038 10.6663 8.64295C10.7073 8.64934 10.7496 8.65703 10.7906 8.66725C10.8047 8.66981 10.8201 8.67364 10.8354 8.67877C10.8764 8.69029 10.9187 8.70311 10.9584 8.71846C10.9699 8.72233 10.9827 8.72615 10.9942 8.73128C11.0455 8.75176 11.0968 8.7761 11.1441 8.80297H11.1467C11.1467 8.80297 11.1518 8.80684 11.1544 8.8081C11.2056 8.83753 11.2556 8.86957 11.303 8.90539C11.3106 8.91052 11.3183 8.91691 11.326 8.92334C11.5669 9.1064 11.7462 9.36376 11.832 9.66211C11.8448 9.69667 11.8589 9.72997 11.8756 9.76327C11.8986 9.81061 11.9268 9.85673 11.9716 9.8849C12.0255 9.91946 12.0972 9.92072 12.16 9.90281C12.2214 9.8849 12.2778 9.84904 12.3329 9.81448C12.616 9.63394 12.8991 9.4534 13.1809 9.27286C13.1835 9.2716 13.1847 9.27029 13.186 9.26903L13.195 9.2639C13.195 9.2639 13.1975 9.2639 13.1988 9.26134C13.2257 9.24469 13.2526 9.22678 13.2808 9.20887H13.2834C13.3 9.19604 13.3167 9.18583 13.3346 9.17426C13.4319 9.11153 13.5306 9.05011 13.6305 8.98607C14.0878 8.69416 14.6412 8.73128 15.0447 8.99503C15.347 9.19222 15.5648 9.51356 15.5981 9.91816C15.6006 9.95659 15.6032 9.99502 15.6032 10.0347Z" fill="#1B1340" fill-opacity="0.1"/>
<path d="M15.6032 10.0347V16.3521C15.4123 16.2304 15.2215 16.1075 15.0294 15.9859C14.9743 15.9513 14.9179 15.9154 14.8564 15.8975C14.7936 15.8796 14.7219 15.8809 14.6668 15.9154C14.6233 15.9436 14.5938 15.9897 14.572 16.0371C14.5554 16.0704 14.5413 16.1037 14.5272 16.1382C14.4426 16.4365 14.262 16.6939 14.0225 16.8783C14.0148 16.8834 14.0071 16.8898 13.9994 16.8949C13.9521 16.9308 13.9021 16.9641 13.8495 16.9922C13.8483 16.9922 13.8457 16.9961 13.8432 16.9974C13.8432 16.9974 13.8418 16.9974 13.8406 16.9986C13.7919 17.0242 13.7419 17.0486 13.6894 17.0691C13.6779 17.0742 13.6664 17.078 13.6548 17.0819C13.6151 17.0972 13.5729 17.1113 13.5306 17.1228C13.5165 17.1267 13.5012 17.1305 13.487 17.1344C13.446 17.1433 13.4038 17.151 13.3615 17.1574C13.3474 17.16 13.3333 17.1625 13.3192 17.1638C13.2641 17.1702 13.2091 17.174 13.1527 17.174H7.10907C6.33024 17.174 5.7 16.5441 5.7 15.7656V8.6263H10.4563C10.5126 8.6263 10.5677 8.63012 10.6228 8.63651C10.6369 8.63782 10.6509 8.64038 10.6663 8.64295C10.7073 8.64934 10.7496 8.65703 10.7906 8.66725C10.8047 8.66981 10.8201 8.67364 10.8354 8.67877C10.8764 8.69029 10.9187 8.70311 10.9584 8.71846C10.9699 8.72233 10.9827 8.72615 10.9942 8.73128C11.0455 8.75176 11.0968 8.7761 11.1441 8.80297H11.1467C11.1467 8.80297 11.1518 8.80684 11.1544 8.8081C11.2056 8.83753 11.2556 8.86957 11.303 8.90539C11.3106 8.91052 11.3183 8.91691 11.326 8.92334C11.5669 9.1064 11.7462 9.36376 11.832 9.66211C11.8448 9.69667 11.8589 9.72997 11.8756 9.76327C11.8986 9.81061 11.9268 9.85673 11.9716 9.8849C12.0255 9.91946 12.0972 9.92072 12.16 9.90281C12.2214 9.8849 12.2778 9.84904 12.3329 9.81448C12.616 9.63394 12.8991 9.4534 13.1809 9.27286C13.1835 9.2716 13.1847 9.27029 13.186 9.26903L13.195 9.2639C13.195 9.2639 13.1975 9.2639 13.1988 9.26134C13.2257 9.24469 13.2526 9.22678 13.2808 9.20887H13.2834C13.3 9.19604 13.3167 9.18583 13.3346 9.17426C13.4319 9.11153 13.5306 9.05011 13.6305 8.98607C14.0878 8.69416 14.6412 8.73128 15.0447 8.99503C15.347 9.19222 15.5648 9.51356 15.5981 9.91816C15.6006 9.95659 15.6032 9.99502 15.6032 10.0347Z" fill="url(#paint1_radial_1_648)"/>
<path d="M15.8773 7.4725L13.3346 9.17413C13.3167 9.18565 13.3 9.19587 13.2834 9.20739H13.2808C13.2526 9.2266 13.2257 9.24456 13.1988 9.26116C13.1975 9.26247 13.1963 9.26247 13.195 9.26373L13.186 9.26886C13.186 9.26886 13.1835 9.27142 13.1809 9.27268C12.8991 9.45322 12.616 9.63376 12.3329 9.8143C12.2778 9.84886 12.2214 9.88473 12.16 9.90264C12.0972 9.92059 12.0255 9.91929 11.9716 9.88473C11.9268 9.85656 11.8986 9.81048 11.8756 9.76309C11.8589 9.72979 11.8448 9.69649 11.832 9.66193C11.7462 9.36363 11.5669 9.10627 11.326 8.92317C11.3183 8.91678 11.3106 8.91034 11.303 8.90526C11.2556 8.86939 11.2056 8.8374 11.1544 8.80792C11.1518 8.80792 11.1493 8.8041 11.1467 8.80279H11.1441C11.0968 8.77593 11.0455 8.75158 10.9942 8.73111C10.9827 8.72598 10.9699 8.72215 10.9584 8.71828C10.9187 8.70294 10.8764 8.69011 10.8354 8.67859C10.8201 8.67351 10.8047 8.66964 10.7906 8.66707C10.7496 8.65686 10.7073 8.64916 10.6663 8.64277C10.6509 8.64021 10.6369 8.63764 10.6228 8.63634C10.5677 8.62995 10.5126 8.62612 10.4563 8.62612H5.7V8.23432C5.7 7.45714 6.33024 6.82591 7.10907 6.82591H13.1527C13.2091 6.82591 13.2641 6.82976 13.3192 6.83615C13.3333 6.83871 13.3474 6.84128 13.3615 6.84256C13.4038 6.84896 13.446 6.85664 13.487 6.86689C13.5012 6.87072 13.5165 6.87457 13.5306 6.87841C13.5729 6.88993 13.6151 6.90401 13.6548 6.9181C13.6664 6.92322 13.6779 6.92706 13.6894 6.9309C13.7419 6.95267 13.7919 6.97572 13.8406 7.00261C13.8418 7.00261 13.8432 7.00388 13.8432 7.00388C13.8457 7.00517 13.8483 7.00644 13.8495 7.00773C13.9021 7.03717 13.9521 7.07047 13.9994 7.10503C14.0071 7.11144 14.0148 7.11656 14.0225 7.12296C14.262 7.30733 14.4426 7.56469 14.5272 7.86174C14.5413 7.8963 14.5554 7.93087 14.572 7.96288C14.5938 8.01026 14.6233 8.05635 14.6668 8.08452C14.7219 8.12037 14.7936 8.12165 14.8564 8.10245C14.9179 8.08452 14.9743 8.04995 15.0294 8.0141C15.3124 7.83485 15.5942 7.65304 15.8773 7.4725Z" fill="white"/>
<path d="M15.8773 7.4725L13.3346 9.17413C13.3167 9.18565 13.3 9.19587 13.2834 9.20739H13.2808C13.2526 9.2266 13.2257 9.24456 13.1988 9.26116C13.1975 9.26247 13.1963 9.26247 13.195 9.26373L13.186 9.26886C13.186 9.26886 13.1835 9.27142 13.1809 9.27268C12.8991 9.45322 12.616 9.63376 12.3329 9.8143C12.2778 9.84886 12.2214 9.88473 12.16 9.90264C12.0972 9.92059 12.0255 9.91929 11.9716 9.88473C11.9268 9.85656 11.8986 9.81048 11.8756 9.76309C11.8589 9.72979 11.8448 9.69649 11.832 9.66193C11.7462 9.36363 11.5669 9.10627 11.326 8.92317C11.3183 8.91678 11.3106 8.91034 11.303 8.90526C11.2556 8.86939 11.2056 8.8374 11.1544 8.80792C11.1518 8.80792 11.1493 8.8041 11.1467 8.80279H11.1441C11.0968 8.77593 11.0455 8.75158 10.9942 8.73111C10.9827 8.72598 10.9699 8.72215 10.9584 8.71828C10.9187 8.70294 10.8764 8.69011 10.8354 8.67859C10.8201 8.67351 10.8047 8.66964 10.7906 8.66707C10.7496 8.65686 10.7073 8.64916 10.6663 8.64277C10.6509 8.64021 10.6369 8.63764 10.6228 8.63634C10.5677 8.62995 10.5126 8.62612 10.4563 8.62612H5.7V8.23432C5.7 7.45714 6.33024 6.82591 7.10907 6.82591H13.1527C13.2091 6.82591 13.2641 6.82976 13.3192 6.83615C13.3333 6.83871 13.3474 6.84128 13.3615 6.84256C13.4038 6.84896 13.446 6.85664 13.487 6.86689C13.5012 6.87072 13.5165 6.87457 13.5306 6.87841C13.5729 6.88993 13.6151 6.90401 13.6548 6.9181C13.6664 6.92322 13.6779 6.92706 13.6894 6.9309C13.7419 6.95267 13.7919 6.97572 13.8406 7.00261C13.8418 7.00261 13.8432 7.00388 13.8432 7.00388C13.8457 7.00517 13.8483 7.00644 13.8495 7.00773C13.9021 7.03717 13.9521 7.07047 13.9994 7.10503C14.0071 7.11144 14.0148 7.11656 14.0225 7.12296C14.262 7.30733 14.4426 7.56469 14.5272 7.86174C14.5413 7.8963 14.5554 7.93087 14.572 7.96288C14.5938 8.01026 14.6233 8.05635 14.6668 8.08452C14.7219 8.12037 14.7936 8.12165 14.8564 8.10245C14.9179 8.08452 14.9743 8.04995 15.0294 8.0141C15.3124 7.83485 15.5942 7.65304 15.8773 7.4725Z" fill="url(#paint2_linear_1_648)" fill-opacity="0.65"/>
<path d="M18.3 8.2345V15.7656C18.3 15.8053 18.2974 15.8438 18.2949 15.8822C18.2167 16.8271 17.1254 17.3252 16.3273 16.8143L15.8828 16.5313C15.8828 16.5313 15.8803 16.5288 15.8777 16.5275C15.7867 16.4686 15.6945 16.411 15.6035 16.3521V10.0347C15.6035 9.99503 15.601 9.9566 15.5984 9.91821C15.5651 9.51362 15.3474 9.19223 15.0451 8.99504C14.6415 8.73129 14.0882 8.69417 13.6308 8.98608C13.5309 9.05012 13.4323 9.11154 13.335 9.17432L15.8777 7.47269L15.8828 7.47012L15.9161 7.44836C15.9545 7.42403 15.993 7.3997 16.0314 7.37537C16.1287 7.31264 16.2274 7.2499 16.3273 7.18588C17.1254 6.67629 18.2167 7.17308 18.2949 8.11799C18.2974 8.1564 18.3 8.19481 18.3 8.2345Z" fill="white"/>
<path d="M18.3 8.2345V15.7656C18.3 15.8053 18.2974 15.8438 18.2949 15.8822C18.2167 16.8271 17.1254 17.3252 16.3273 16.8143L15.8828 16.5313C15.8828 16.5313 15.8803 16.5288 15.8777 16.5275C15.7867 16.4686 15.6945 16.411 15.6035 16.3521V10.0347C15.6035 9.99503 15.601 9.9566 15.5984 9.91821C15.5651 9.51362 15.3474 9.19223 15.0451 8.99504C14.6415 8.73129 14.0882 8.69417 13.6308 8.98608C13.5309 9.05012 13.4323 9.11154 13.335 9.17432L15.8777 7.47269L15.8828 7.47012L15.9161 7.44836C15.9545 7.42403 15.993 7.3997 16.0314 7.37537C16.1287 7.31264 16.2274 7.2499 16.3273 7.18588C17.1254 6.67629 18.2167 7.17308 18.2949 8.11799C18.2974 8.1564 18.3 8.19481 18.3 8.2345Z" fill="url(#paint3_linear_1_648)" fill-opacity="0.65"/>
<g style="mix-blend-mode:multiply" opacity="0.1">
<path d="M13.1527 6.82672C13.209 6.82672 13.2642 6.83087 13.3192 6.83727C13.3333 6.83982 13.3474 6.84214 13.3614 6.84342C13.4037 6.84982 13.4461 6.85735 13.4871 6.86759C13.5012 6.87142 13.5165 6.87562 13.5306 6.87946C13.5728 6.89097 13.6153 6.90494 13.655 6.91901C13.6664 6.92407 13.6778 6.92794 13.6893 6.93175C13.7417 6.9535 13.7918 6.97653 13.8404 7.00338C13.8415 7.00338 13.8431 7.0047 13.8431 7.0047C13.8456 7.00598 13.8484 7.00737 13.8497 7.00866C13.9021 7.03809 13.9521 7.07123 13.9995 7.10578C14.0072 7.11216 14.0147 7.11742 14.0223 7.12379C14.2619 7.30815 14.4427 7.5655 14.5273 7.86251C14.5414 7.89705 14.5555 7.9316 14.5721 7.96359C14.5939 8.0109 14.6231 8.05714 14.6666 8.08531C14.7217 8.12116 14.7937 8.12254 14.8565 8.10333C14.9178 8.08541 14.9741 8.05081 15.0291 8.015C15.3122 7.83577 15.5942 7.65411 15.8773 7.4736L15.8777 7.47316L15.8826 7.47052L15.9159 7.44899C15.9544 7.42466 15.9931 7.40036 16.0315 7.37604C16.1289 7.31332 16.2274 7.2502 16.3273 7.18619C17.1253 6.67674 18.2166 7.17385 18.2947 8.11871C18.2973 8.15706 18.3 8.19554 18.3 8.23517V15.7661C18.3 15.8057 18.2973 15.8442 18.2947 15.8826C18.2166 16.8275 17.1253 17.3255 16.3273 16.8146L15.8826 16.532C15.8826 16.532 15.8803 16.5294 15.8777 16.5281C15.7868 16.4692 15.6945 16.4116 15.6035 16.3528V10.0352C15.6035 9.99552 15.6008 9.95709 15.5982 9.9187C15.5649 9.51411 15.3473 9.19258 15.045 8.99544C14.6415 8.73169 14.0881 8.69475 13.6308 8.98662C13.5309 9.05061 13.4323 9.11203 13.3351 9.17472L13.3346 9.17517C13.3167 9.18669 13.2998 9.19659 13.2832 9.20811H13.2806C13.2524 9.22732 13.2257 9.24555 13.1988 9.26215C13.1975 9.26346 13.1961 9.26355 13.1949 9.26481L13.1861 9.26962C13.1861 9.26962 13.1834 9.27232 13.1808 9.27358C12.899 9.45412 12.6157 9.63448 12.3327 9.81502C12.2776 9.84954 12.2214 9.8854 12.16 9.90331C12.0972 9.92127 12.0252 9.92032 11.9714 9.88576C11.9266 9.85759 11.8987 9.81133 11.8756 9.76404C11.859 9.73078 11.8449 9.69748 11.8321 9.66297C11.7463 9.36462 11.5667 9.10731 11.3259 8.92425C11.3182 8.91786 11.3107 8.91133 11.303 8.9062C11.2557 8.87038 11.2057 8.83812 11.1545 8.80864C11.1519 8.80864 11.1491 8.80509 11.1466 8.80383H11.144C11.0966 8.77696 11.0453 8.75266 10.9941 8.73219C10.9826 8.7271 10.97 8.72283 10.9585 8.719C10.9188 8.70366 10.8764 8.69097 10.8354 8.67945C10.8201 8.67436 10.8047 8.67058 10.7906 8.66802C10.7496 8.6578 10.7072 8.65024 10.6662 8.64385C10.6509 8.64129 10.6368 8.63854 10.6228 8.63728C10.5676 8.63085 10.5126 8.62716 10.4562 8.62716H5.7V8.23517C5.70002 7.45805 6.33013 6.82679 7.10888 6.82672H13.1527Z" fill="#6D4AFF"/>
</g>
</g>
<defs>
<radialGradient id="paint0_radial_1_648" cx="0" cy="0" r="1" gradientTransform="matrix(4.2782 -7.44484 9.14143 6.98652 7.50307 16.9544)" gradientUnits="userSpaceOnUse">
<stop stop-color="#B8C6E5"/>
<stop offset="0.418768" stop-color="#9388F2"/>
<stop offset="0.716275" stop-color="#6D4AFF"/>
</radialGradient>
<radialGradient id="paint1_radial_1_648" cx="0" cy="0" r="1" gradientTransform="matrix(8.98898 -8.73446 10.0302 13.4703 4.90775 18.1664)" gradientUnits="userSpaceOnUse">
<stop stop-color="#82F8E1"/>
<stop offset="1" stop-color="#6E45E2"/>
</radialGradient>
<linearGradient id="paint2_linear_1_648" x1="6.67015" y1="5.41816" x2="7.06497" y2="11.9427" gradientUnits="userSpaceOnUse">
<stop offset="0.1" stop-color="#6E45E2"/>
<stop offset="0.9" stop-color="#45E1CC"/>
</linearGradient>
<linearGradient id="paint3_linear_1_648" x1="15.2933" y1="7.9333" x2="20.509" y2="9.39719" gradientUnits="userSpaceOnUse">
<stop offset="0.1" stop-color="#6E45E2"/>
<stop offset="1" stop-color="#45E1CC" stop-opacity="0.9"/>
</linearGradient>
<clipPath id="clip0_1_648">
<rect width="24" height="24" fill="white"/>
</clipPath>
</defs>
</svg>
