<svg width="72" height="72" viewBox="0 0 72 72" fill="none" xmlns="http://www.w3.org/2000/svg">
    <path
        d="M36 1.5C16.9455 1.5 1.5 16.9455 1.5 36C1.5 55.0545 16.9455 70.5 36 70.5C55.0545 70.5 70.5 55.0545 70.5 36C70.5 16.9455 55.0545 1.5 36 1.5Z"
        fill="url(#paint0_linear_12145_835)"
    />
    <path
        d="M49.7923 45.543C50.3788 46.1295 50.3788 47.079 49.7923 47.664L47.6698 49.7865C47.0833 50.373 46.1338 50.373 45.5488 49.7865L36.0028 40.239L26.4568 49.7865C25.8703 50.373 24.9208 50.373 24.3358 49.7865L22.2133 47.664C21.6268 47.0775 21.6268 46.128 22.2133 45.543L31.7608 35.997L22.2133 26.451C21.6268 25.8645 21.6268 24.915 22.2133 24.33L24.3358 22.2075C24.9223 21.621 25.8718 21.621 26.4568 22.2075L36.0028 31.755L45.5488 22.2075C46.1353 21.621 47.0848 21.621 47.6698 22.2075L49.7923 24.33C50.3788 24.9165 50.3788 25.866 49.7923 26.451L40.2448 35.997L49.7923 45.543Z"
        fill="url(#paint1_linear_12145_835)"
    />
    <defs>
        <linearGradient id="paint0_linear_12145_835" x1="36" y1="1.5" x2="36" y2="70.5" gradientUnits="userSpaceOnUse">
            <stop stop-color="#FFD6DA" />
            <stop offset="1" stop-color="#FF9EA8" />
        </linearGradient>
        <linearGradient
            id="paint1_linear_12145_835"
            x1="36.0028"
            y1="21.7677"
            x2="36.0028"
            y2="50.2264"
            gradientUnits="userSpaceOnUse"
        >
            <stop stop-color="#FF666D" />
            <stop offset="1" stop-color="#E0211F" />
        </linearGradient>
    </defs>
</svg>
