<svg width="170" height="43" viewBox="0 0 170 43" fill="none" xmlns="http://www.w3.org/2000/svg">
    <g clip-path="url(#clip0_10742_4490)">
        <path
            d="M1.11133 12.2224C1.11133 6.08594 6.08594 1.11133 12.2224 1.11133H30.0002C36.1367 1.11133 41.1113 6.08594 41.1113 12.2224V30.0002C41.1113 36.1367 36.1367 41.1113 30.0002 41.1113H12.2224C6.08594 41.1113 1.11133 36.1367 1.11133 30.0002V12.2224Z"
            fill="white"
        />
        <path
            d="M28.1024 17.2982V29.5561C27.732 29.3201 27.3617 29.0816 26.9889 28.8456C26.882 28.7785 26.7726 28.7089 26.6533 28.6741C26.5315 28.6394 26.3923 28.6418 26.2854 28.7089C26.2009 28.7636 26.1438 28.853 26.1015 28.9449C26.0692 29.0095 26.0419 29.0741 26.0145 29.1412C25.8505 29.7201 25.5 30.2194 25.0352 30.5772C25.0203 30.5871 25.0054 30.5995 24.9905 30.6095C24.8985 30.679 24.8016 30.7436 24.6997 30.7983C24.6972 30.7983 24.6922 30.8057 24.6872 30.8082C24.6872 30.8082 24.6848 30.8082 24.6823 30.8107C24.5878 30.8604 24.4909 30.9076 24.389 30.9473C24.3666 30.9573 24.3442 30.9647 24.3219 30.9722C24.2448 31.002 24.1628 31.0293 24.0808 31.0517C24.0534 31.0591 24.0236 31.0666 23.9963 31.074C23.9167 31.0914 23.8347 31.1063 23.7527 31.1188C23.7253 31.1237 23.698 31.1287 23.6707 31.1312C23.5638 31.1436 23.4569 31.1511 23.3475 31.1511H11.6208C10.1096 31.1511 8.88672 29.9288 8.88672 28.4183V14.5654H18.1155C18.2249 14.5654 18.3317 14.5729 18.4386 14.5853C18.466 14.5878 18.4933 14.5928 18.5231 14.5977C18.6027 14.6101 18.6847 14.6251 18.7642 14.6449C18.7916 14.6499 18.8214 14.6574 18.8512 14.6673C18.9308 14.6896 19.0128 14.7145 19.0898 14.7443C19.1122 14.7518 19.1371 14.7592 19.1594 14.7691C19.2588 14.8089 19.3583 14.8561 19.4502 14.9083H19.4552C19.4552 14.9083 19.4651 14.9157 19.4701 14.9182C19.5695 14.9753 19.6665 15.0375 19.7584 15.107C19.7734 15.117 19.7883 15.1294 19.8032 15.1418C20.2705 15.4971 20.6184 15.9964 20.785 16.5753C20.8098 16.6424 20.8372 16.707 20.8695 16.7715C20.9142 16.8635 20.9689 16.9529 21.0559 17.0076C21.1603 17.0746 21.2995 17.0771 21.4213 17.0423C21.5406 17.0076 21.6499 16.938 21.7568 16.8709C22.3061 16.5206 22.8554 16.1703 23.4022 15.82C23.4072 15.8176 23.4097 15.8151 23.4122 15.8126L23.4296 15.8026C23.4296 15.8026 23.4345 15.8026 23.437 15.7977C23.4892 15.7654 23.5414 15.7306 23.5961 15.6958H23.6011C23.6334 15.671 23.6657 15.6511 23.7005 15.6287C23.8894 15.507 24.0808 15.3878 24.2747 15.2635C25.162 14.6971 26.2357 14.7691 27.0187 15.2809C27.6053 15.6635 28.0278 16.2871 28.0924 17.0722C28.0974 17.1467 28.1024 17.2212 28.1024 17.2982Z"
            fill="#6D4AFF"
        />
        <path
            d="M28.1024 17.2982V29.5561C27.732 29.3201 27.3617 29.0816 26.9889 28.8456C26.882 28.7785 26.7726 28.7089 26.6533 28.6741C26.5315 28.6394 26.3923 28.6418 26.2854 28.7089C26.2009 28.7636 26.1438 28.853 26.1015 28.9449C26.0692 29.0095 26.0419 29.0741 26.0145 29.1412C25.8505 29.7201 25.5 30.2194 25.0352 30.5772C25.0203 30.5871 25.0054 30.5995 24.9905 30.6095C24.8985 30.679 24.8016 30.7436 24.6997 30.7983C24.6972 30.7983 24.6922 30.8057 24.6872 30.8082C24.6872 30.8082 24.6848 30.8082 24.6823 30.8107C24.5878 30.8604 24.4909 30.9076 24.389 30.9473C24.3666 30.9573 24.3442 30.9647 24.3219 30.9722C24.2448 31.002 24.1628 31.0293 24.0808 31.0517C24.0534 31.0591 24.0236 31.0666 23.9963 31.074C23.9167 31.0914 23.8347 31.1063 23.7527 31.1188C23.7253 31.1237 23.698 31.1287 23.6707 31.1312C23.5638 31.1436 23.4569 31.1511 23.3475 31.1511H11.6208C10.1096 31.1511 8.88672 29.9288 8.88672 28.4183V14.5654H18.1155C18.2249 14.5654 18.3317 14.5729 18.4386 14.5853C18.466 14.5878 18.4933 14.5928 18.5231 14.5977C18.6027 14.6101 18.6847 14.6251 18.7642 14.6449C18.7916 14.6499 18.8214 14.6574 18.8512 14.6673C18.9308 14.6896 19.0128 14.7145 19.0898 14.7443C19.1122 14.7518 19.1371 14.7592 19.1594 14.7691C19.2588 14.8089 19.3583 14.8561 19.4502 14.9083H19.4552C19.4552 14.9083 19.4651 14.9157 19.4701 14.9182C19.5695 14.9753 19.6665 15.0375 19.7584 15.107C19.7734 15.117 19.7883 15.1294 19.8032 15.1418C20.2705 15.4971 20.6184 15.9964 20.785 16.5753C20.8098 16.6424 20.8372 16.707 20.8695 16.7715C20.9142 16.8635 20.9689 16.9529 21.0559 17.0076C21.1603 17.0746 21.2995 17.0771 21.4213 17.0423C21.5406 17.0076 21.6499 16.938 21.7568 16.8709C22.3061 16.5206 22.8554 16.1703 23.4022 15.82C23.4072 15.8176 23.4097 15.8151 23.4122 15.8126L23.4296 15.8026C23.4296 15.8026 23.4345 15.8026 23.437 15.7977C23.4892 15.7654 23.5414 15.7306 23.5961 15.6958H23.6011C23.6334 15.671 23.6657 15.6511 23.7005 15.6287C23.8894 15.507 24.0808 15.3878 24.2747 15.2635C25.162 14.6971 26.2357 14.7691 27.0187 15.2809C27.6053 15.6635 28.0278 16.2871 28.0924 17.0722C28.0974 17.1467 28.1024 17.2212 28.1024 17.2982Z"
            fill="url(#paint0_radial_10742_4490)"
        />
        <path
            d="M28.1024 17.2982V29.5561C27.732 29.3201 27.3617 29.0816 26.9889 28.8456C26.882 28.7785 26.7726 28.7089 26.6533 28.6741C26.5315 28.6394 26.3923 28.6418 26.2854 28.7089C26.2009 28.7636 26.1438 28.853 26.1015 28.9449C26.0692 29.0095 26.0419 29.0741 26.0145 29.1412C25.8505 29.7201 25.5 30.2194 25.0352 30.5772C25.0203 30.5871 25.0054 30.5995 24.9905 30.6095C24.8985 30.679 24.8016 30.7436 24.6997 30.7983C24.6972 30.7983 24.6922 30.8057 24.6872 30.8082C24.6872 30.8082 24.6848 30.8082 24.6823 30.8107C24.5878 30.8604 24.4909 30.9076 24.389 30.9473C24.3666 30.9573 24.3442 30.9647 24.3219 30.9722C24.2448 31.002 24.1628 31.0293 24.0808 31.0517C24.0534 31.0591 24.0236 31.0666 23.9963 31.074C23.9167 31.0914 23.8347 31.1063 23.7527 31.1188C23.7253 31.1237 23.698 31.1287 23.6707 31.1312C23.5638 31.1436 23.4569 31.1511 23.3475 31.1511H11.6208C10.1096 31.1511 8.88672 29.9288 8.88672 28.4183V14.5654H18.1155C18.2249 14.5654 18.3317 14.5729 18.4386 14.5853C18.466 14.5878 18.4933 14.5928 18.5231 14.5977C18.6027 14.6101 18.6847 14.6251 18.7642 14.6449C18.7916 14.6499 18.8214 14.6574 18.8512 14.6673C18.9308 14.6896 19.0128 14.7145 19.0898 14.7443C19.1122 14.7518 19.1371 14.7592 19.1594 14.7691C19.2588 14.8089 19.3583 14.8561 19.4502 14.9083H19.4552C19.4552 14.9083 19.4651 14.9157 19.4701 14.9182C19.5695 14.9753 19.6665 15.0375 19.7584 15.107C19.7734 15.117 19.7883 15.1294 19.8032 15.1418C20.2705 15.4971 20.6184 15.9964 20.785 16.5753C20.8098 16.6424 20.8372 16.707 20.8695 16.7715C20.9142 16.8635 20.9689 16.9529 21.0559 17.0076C21.1603 17.0746 21.2995 17.0771 21.4213 17.0423C21.5406 17.0076 21.6499 16.938 21.7568 16.8709C22.3061 16.5206 22.8554 16.1703 23.4022 15.82C23.4072 15.8176 23.4097 15.8151 23.4122 15.8126L23.4296 15.8026C23.4296 15.8026 23.4345 15.8026 23.437 15.7977C23.4892 15.7654 23.5414 15.7306 23.5961 15.6958H23.6011C23.6334 15.671 23.6657 15.6511 23.7005 15.6287C23.8894 15.507 24.0808 15.3878 24.2747 15.2635C25.162 14.6971 26.2357 14.7691 27.0187 15.2809C27.6053 15.6635 28.0278 16.2871 28.0924 17.0722C28.0974 17.1467 28.1024 17.2212 28.1024 17.2982Z"
            fill="#1B1340"
            fill-opacity="0.1"
        />
        <path
            opacity="0.2"
            d="M28.1024 17.2982V29.5561C27.732 29.3201 27.3617 29.0816 26.9889 28.8456C26.882 28.7785 26.7726 28.7089 26.6533 28.6741C26.5315 28.6394 26.3923 28.6418 26.2854 28.7089C26.2009 28.7636 26.1438 28.853 26.1015 28.9449C26.0692 29.0095 26.0419 29.0741 26.0145 29.1412C25.8505 29.7201 25.5 30.2194 25.0352 30.5772C25.0203 30.5871 25.0054 30.5995 24.9905 30.6095C24.8985 30.679 24.8016 30.7436 24.6997 30.7983C24.6972 30.7983 24.6922 30.8057 24.6872 30.8082C24.6872 30.8082 24.6848 30.8082 24.6823 30.8107C24.5878 30.8604 24.4909 30.9076 24.389 30.9473C24.3666 30.9573 24.3442 30.9647 24.3219 30.9722C24.2448 31.002 24.1628 31.0293 24.0808 31.0517C24.0534 31.0591 24.0236 31.0666 23.9963 31.074C23.9167 31.0914 23.8347 31.1063 23.7527 31.1188C23.7253 31.1237 23.698 31.1287 23.6707 31.1312C23.5638 31.1436 23.4569 31.1511 23.3475 31.1511H11.6208C10.1096 31.1511 8.88672 29.9288 8.88672 28.4183V14.5654H18.1155C18.2249 14.5654 18.3317 14.5729 18.4386 14.5853C18.466 14.5878 18.4933 14.5928 18.5231 14.5977C18.6027 14.6101 18.6847 14.6251 18.7642 14.6449C18.7916 14.6499 18.8214 14.6574 18.8512 14.6673C18.9308 14.6896 19.0128 14.7145 19.0898 14.7443C19.1122 14.7518 19.1371 14.7592 19.1594 14.7691C19.2588 14.8089 19.3583 14.8561 19.4502 14.9083H19.4552C19.4552 14.9083 19.4651 14.9157 19.4701 14.9182C19.5695 14.9753 19.6665 15.0375 19.7584 15.107C19.7734 15.117 19.7883 15.1294 19.8032 15.1418C20.2705 15.4971 20.6184 15.9964 20.785 16.5753C20.8098 16.6424 20.8372 16.707 20.8695 16.7715C20.9142 16.8635 20.9689 16.9529 21.0559 17.0076C21.1603 17.0746 21.2995 17.0771 21.4213 17.0423C21.5406 17.0076 21.6499 16.938 21.7568 16.8709C22.3061 16.5206 22.8554 16.1703 23.4022 15.82C23.4072 15.8176 23.4097 15.8151 23.4122 15.8126L23.4296 15.8026C23.4296 15.8026 23.4345 15.8026 23.437 15.7977C23.4892 15.7654 23.5414 15.7306 23.5961 15.6958H23.6011C23.6334 15.671 23.6657 15.6511 23.7005 15.6287C23.8894 15.507 24.0808 15.3878 24.2747 15.2635C25.162 14.6971 26.2357 14.7691 27.0187 15.2809C27.6053 15.6635 28.0278 16.2871 28.0924 17.0722C28.0974 17.1467 28.1024 17.2212 28.1024 17.2982Z"
            fill="#6D4AFF"
        />
        <path
            d="M28.6343 12.3269L23.7005 15.6286C23.6657 15.651 23.6334 15.6708 23.6011 15.6932H23.5961C23.5414 15.7305 23.4892 15.7652 23.437 15.7975C23.4345 15.8 23.4321 15.8 23.4296 15.8025L23.4122 15.8124C23.4122 15.8124 23.4072 15.8174 23.4022 15.8199C22.8554 16.1702 22.3061 16.5205 21.7568 16.8708C21.6499 16.9379 21.5406 17.0074 21.4213 17.0422C21.2995 17.077 21.1603 17.0745 21.0559 17.0074C20.9689 16.9528 20.9142 16.8633 20.8695 16.7714C20.8372 16.7068 20.8098 16.6422 20.785 16.5751C20.6184 15.9963 20.2705 15.4969 19.8032 15.1417C19.7883 15.1292 19.7734 15.1168 19.7584 15.1069C19.6665 15.0373 19.5695 14.9752 19.4701 14.9181C19.4651 14.9181 19.4602 14.9106 19.4552 14.9081H19.4502C19.3583 14.856 19.2588 14.8088 19.1594 14.769C19.1371 14.7591 19.1122 14.7516 19.0898 14.7442C19.0128 14.7143 18.9308 14.6895 18.8512 14.6671C18.8214 14.6572 18.7916 14.6498 18.7642 14.6448C18.6847 14.6249 18.6027 14.61 18.5231 14.5976C18.4933 14.5926 18.466 14.5876 18.4386 14.5852C18.3317 14.5727 18.2249 14.5653 18.1155 14.5653H8.88672V13.8051C8.88672 12.2971 10.1096 11.0723 11.6208 11.0723H23.3475C23.4569 11.0723 23.5638 11.0797 23.6707 11.0921C23.698 11.0971 23.7253 11.1021 23.7527 11.1046C23.8347 11.117 23.9167 11.1319 23.9963 11.1518C24.0236 11.1592 24.0534 11.1667 24.0808 11.1741C24.1628 11.1965 24.2448 11.2238 24.3219 11.2511C24.3442 11.2611 24.3666 11.2685 24.389 11.276C24.4909 11.3182 24.5878 11.3629 24.6823 11.4151C24.6848 11.4151 24.6873 11.4176 24.6873 11.4176C24.6922 11.4201 24.6972 11.4226 24.6997 11.425C24.8016 11.4822 24.8985 11.5468 24.9905 11.6139C25.0054 11.6263 25.0203 11.6362 25.0352 11.6486C25.5 12.0064 25.8505 12.5057 26.0145 13.0821C26.0419 13.1492 26.0692 13.2163 26.1015 13.2784C26.1438 13.3703 26.2009 13.4597 26.2854 13.5144C26.3923 13.584 26.5315 13.5864 26.6533 13.5492C26.7726 13.5144 26.882 13.4473 26.9889 13.3778C27.5382 13.0299 28.085 12.6772 28.6343 12.3269Z"
            fill="url(#paint1_linear_10742_4490)"
        />
        <path
            d="M33.3351 13.8049V28.418C33.3351 28.495 33.3301 28.5695 33.3252 28.6441C33.1735 30.4775 31.0559 31.444 29.5074 30.4527L28.6449 29.9036C28.6449 29.9036 28.6399 29.8987 28.635 29.8962C28.4585 29.7819 28.2795 29.6701 28.1031 29.5558V17.298C28.1031 17.221 28.0981 17.1464 28.0931 17.0719C28.0285 16.2868 27.6059 15.6633 27.0194 15.2807C26.2364 14.7689 25.1627 14.6968 24.2753 15.2633C24.0815 15.3875 23.8901 15.5067 23.7012 15.6285L28.635 12.3268L28.6449 12.3218L28.7095 12.2795C28.7841 12.2323 28.8587 12.1851 28.9332 12.1379C29.1221 12.0162 29.3135 11.8945 29.5074 11.7703C31.0559 10.7815 33.1735 11.7454 33.3252 13.5789C33.3301 13.6534 33.3351 13.7279 33.3351 13.8049Z"
            fill="url(#paint2_linear_10742_4490)"
        />
        <g opacity="0.1" style="mix-blend-mode: multiply">
            <path
                d="M24.2754 15.2656C24.0815 15.3898 23.8891 15.5091 23.7002 15.6309C23.6655 15.6532 23.6328 15.673 23.6006 15.6953H23.5957C23.5411 15.7325 23.4886 15.7676 23.4365 15.7998C23.4342 15.802 23.4321 15.8024 23.4297 15.8047L23.4121 15.8145C23.4121 15.8145 23.4073 15.8198 23.4023 15.8223C22.8555 16.1726 22.3061 16.5228 21.7568 16.873C21.65 16.9401 21.5402 17.0092 21.4209 17.0439C21.2992 17.0787 21.16 17.0768 21.0557 17.0098C20.9687 16.9551 20.9139 16.8653 20.8691 16.7734C20.8369 16.7089 20.81 16.6442 20.7852 16.5771C20.6186 15.9983 20.27 15.4988 19.8027 15.1436C19.7881 15.1314 19.7734 15.1192 19.7588 15.1094C19.6668 15.0398 19.5691 14.9771 19.4697 14.9199C19.4649 14.9196 19.4599 14.9126 19.4551 14.9102H19.4502C19.3582 14.858 19.2586 14.8112 19.1592 14.7715C19.1368 14.7616 19.1122 14.7535 19.0898 14.7461C19.0129 14.7163 18.931 14.6913 18.8516 14.6689C18.8219 14.6591 18.7919 14.6515 18.7646 14.6465C18.6852 14.6266 18.6029 14.612 18.5234 14.5996C18.4936 14.5946 18.4658 14.5894 18.4385 14.5869C18.3316 14.5745 18.2245 14.5674 18.1152 14.5674H8.88672V13.8076C8.88672 12.2996 10.1099 11.0742 11.6211 11.0742H23.3477C23.457 11.0742 23.5641 11.0823 23.6709 11.0947C23.6981 11.0997 23.7257 11.104 23.7529 11.1064C23.8349 11.1189 23.9166 11.1344 23.9961 11.1543C24.0234 11.1617 24.0537 11.1693 24.0811 11.1768C24.1629 11.1991 24.2453 11.2256 24.3223 11.2529C24.3445 11.2628 24.3664 11.2709 24.3887 11.2783C24.4906 11.3206 24.5882 11.3648 24.6826 11.417C24.685 11.4172 24.6875 11.4199 24.6875 11.4199C24.6921 11.4222 24.6967 11.4245 24.6992 11.4268C24.8011 11.4839 24.8983 11.5491 24.9902 11.6162C25.0051 11.6286 25.0203 11.6381 25.0352 11.6504C25.4999 12.0081 25.8506 12.5077 26.0146 13.084C26.042 13.151 26.0693 13.2182 26.1016 13.2803C26.1438 13.3721 26.2007 13.4619 26.2852 13.5166C26.392 13.5861 26.5315 13.589 26.6533 13.5518C26.7726 13.517 26.8824 13.4494 26.9893 13.3799C27.5383 13.0322 28.0847 12.6793 28.6338 12.3291L26.4248 13.8076L28.6348 12.3291L28.6445 12.3232L28.709 12.2812C28.7835 12.2341 28.8581 12.1868 28.9326 12.1396C29.1214 12.018 29.3131 11.8966 29.5068 11.7725C31.0553 10.7837 33.1736 11.7476 33.3252 13.5811C33.3302 13.6554 33.335 13.7298 33.335 13.8066V28.4199C33.335 28.4968 33.3302 28.5711 33.3252 28.6455C33.1736 30.479 31.0553 31.4454 29.5068 30.4541L28.6445 29.9053C28.6435 29.9043 28.6391 29.9006 28.6348 29.8984C28.4583 29.7842 28.279 29.6719 28.1025 29.5576V17.2998C28.1025 17.223 28.0977 17.1486 28.0928 17.0742C28.0282 16.2892 27.6061 15.6648 27.0195 15.2822C26.2366 14.7704 25.1627 14.6992 24.2754 15.2656Z"
                fill="#6D4AFF"
            />
        </g>
    </g>
    <g clip-path="url(#clip1_10742_4490)">
        <path
            d="M52.2227 24.7311V28.8015H55.0646V24.909C55.0646 24.5307 55.2133 24.1659 55.4813 23.899C55.747 23.6321 56.1096 23.4801 56.4856 23.4801H59.4008C60.7588 23.4801 62.0627 22.9374 63.0231 21.9691C63.9836 21.0041 64.5229 19.6923 64.5229 18.3265C64.5229 16.9607 63.9825 15.65 63.0231 14.6817C62.0638 13.7156 60.7588 13.1729 59.3974 13.1729H52.2227V18.2601H55.0646V15.8628H59.2083C59.8523 15.8628 60.4683 16.1196 60.9232 16.5767C61.3781 17.0339 61.6337 17.6532 61.6337 18.3006C61.6337 18.948 61.3781 19.5673 60.9232 20.0245C60.4683 20.4816 59.8523 20.7384 59.2083 20.7384H56.1985C55.6772 20.7384 55.1592 20.8397 54.6796 21.0435C54.1965 21.2439 53.7608 21.5389 53.3914 21.9105C53.0221 22.2821 52.7316 22.7235 52.5289 23.2065C52.3262 23.6862 52.2227 24.2064 52.2227 24.7311Z"
            fill="white"
        />
        <path
            d="M64.9629 28.8014V22.6006C64.9629 20.0694 66.4312 18.0572 69.3711 18.0572C69.8418 18.0505 70.3125 18.1011 70.773 18.2126V20.7619C70.4386 20.7393 70.1503 20.7393 70.0152 20.7393C68.458 20.7393 67.7891 21.4566 67.7891 22.9114V28.8014H64.9629Z"
            fill="white"
        />
        <path
            d="M71.6191 23.5431C71.6191 20.4309 73.9567 18.0596 77.2085 18.0596C80.4604 18.0596 82.7979 20.4309 82.7979 23.5431C82.7979 26.6554 80.4604 29.0492 77.2085 29.0492C73.9567 29.0492 71.6191 26.652 71.6191 23.5431ZM80.0134 23.5431C80.0134 21.7742 78.8322 20.5199 77.2085 20.5199C75.5849 20.5199 74.4037 21.7708 74.4037 23.5431C74.4037 25.3154 75.5849 26.5664 77.2085 26.5664C78.8322 26.5664 80.0134 25.3312 80.0134 23.5431Z"
            fill="white"
        />
        <path
            d="M91.8379 23.5431C91.8379 20.4309 94.1754 18.0596 97.4273 18.0596C100.679 18.0596 103.014 20.4309 103.014 23.5431C103.014 26.6554 100.677 29.0492 97.4273 29.0492C94.1777 29.0492 91.8379 26.652 91.8379 23.5431ZM100.229 23.5431C100.229 21.7742 99.0476 20.5199 97.4239 20.5199C95.8002 20.5199 94.6191 21.7708 94.6191 23.5431C94.6191 25.3154 95.8002 26.5664 97.4239 26.5664C99.0476 26.5664 100.229 25.3312 100.229 23.5431Z"
            fill="white"
        />
        <path
            d="M104.482 28.8019V22.8263C104.482 20.0508 106.241 18.0566 109.38 18.0566C112.52 18.0566 114.257 20.0474 114.257 22.8263V28.8019H111.452V23.0481C111.452 21.5044 110.761 20.5394 109.38 20.5394C108 20.5394 107.309 21.501 107.309 23.0481V28.8019H104.482Z"
            fill="white"
        />
        <path
            d="M90.9917 20.5429H87.9414V24.4613C87.9414 25.8271 88.4312 26.4521 89.8331 26.4521C89.966 26.4521 90.3004 26.4521 90.7237 26.4295V28.7344C90.1461 28.8898 89.6338 28.9822 89.0753 28.9822C86.7164 28.9822 85.1118 27.5499 85.1118 24.8419V20.5429H83.2168V18.2819H83.6908C83.8778 18.2819 84.0635 18.2436 84.2336 18.1738C84.407 18.1006 84.5624 17.9959 84.6941 17.863C84.827 17.7302 84.9305 17.5737 85.0037 17.3991C85.0769 17.2246 85.1107 17.0399 85.1107 16.853V14.7227H87.9369V18.2819H90.9872V20.5429H90.9906H90.9917Z"
            fill="white"
        />
        <path
            d="M168.339 20.5429H165.289V24.4613C165.289 25.8271 165.779 26.4521 167.181 26.4521C167.314 26.4521 167.648 26.4521 168.071 26.4295V28.7344C167.494 28.8898 166.981 28.9822 166.423 28.9822C164.064 28.9822 162.459 27.5499 162.459 24.8419V20.5429H160.564V18.2819H161.038C161.225 18.2819 161.411 18.2436 161.581 18.1738C161.755 18.1006 161.91 17.9959 162.042 17.863C162.175 17.7302 162.278 17.5737 162.351 17.3991C162.425 17.2246 162.458 17.0399 162.458 16.853V14.7227H165.285V18.2819H168.335V20.5429H168.338H168.339Z"
            fill="white"
        />
        <path
            d="M119.857 13.5322H123.819L127.536 22.6899C127.871 23.5186 128.186 24.3237 128.387 25.0409H128.432C128.634 24.3248 128.947 23.5186 129.283 22.6899L132.999 13.5322H136.961V28.8017H134.073V18.5699C134.073 18.2343 134.073 17.9652 134.118 17.5621H134.073C133.983 17.9202 133.872 18.2332 133.715 18.6149L129.595 28.6227H127.222L123.102 18.6149C122.945 18.2343 122.833 17.9213 122.721 17.5621H122.676C122.721 17.9652 122.721 18.2332 122.721 18.5699V28.8017H119.855V13.5322H119.857Z"
            fill="white"
        />
        <path
            d="M138.237 23.5423C138.237 20.385 140.476 18.0576 143.633 18.0576C146.79 18.0576 148.917 20.4087 148.917 23.5423C148.917 23.9454 148.917 24.1019 148.872 24.505H140.924C141.26 25.9384 142.267 26.6996 143.633 26.6996C144.865 26.6996 145.559 26.364 145.984 25.6254H148.603C147.954 27.9539 145.827 29.0506 143.7 29.0506C140.431 29.0506 138.236 26.7221 138.236 23.5434L138.237 23.5423ZM146.252 22.5345C146.073 21.3027 144.998 20.4076 143.633 20.4076C142.268 20.4076 141.216 21.2588 140.902 22.5345H146.252Z"
            fill="white"
        />
        <path
            d="M149.792 23.5423C149.792 20.385 152.031 18.0576 155.188 18.0576C158.345 18.0576 160.472 20.4087 160.472 23.5423C160.472 23.9454 160.472 24.1019 160.427 24.505H152.479C152.814 25.9384 153.822 26.6996 155.188 26.6996C156.42 26.6996 157.113 26.364 157.539 25.6254H160.158C159.508 27.9539 157.381 29.0506 155.254 29.0506C151.986 29.0506 149.791 26.7221 149.791 23.5434L149.792 23.5423ZM157.808 22.5345C157.629 21.3027 156.554 20.4076 155.189 20.4076C153.824 20.4076 152.772 21.2588 152.457 22.5345H157.808Z"
            fill="white"
        />
    </g>
    <defs>
        <radialGradient
            id="paint0_radial_10742_4490"
            cx="0"
            cy="0"
            r="1"
            gradientTransform="matrix(8.3012 -14.4455 17.7375 13.5562 12.3853 30.7248)"
            gradientUnits="userSpaceOnUse"
        >
            <stop stop-color="#B8C6E5" />
            <stop offset="0.418768" stop-color="#9388F2" />
            <stop offset="0.716275" stop-color="#6D4AFF" />
        </radialGradient>
        <linearGradient
            id="paint1_linear_10742_4490"
            x1="10.2855"
            y1="9.05684"
            x2="15.2487"
            y2="19.8022"
            gradientUnits="userSpaceOnUse"
        >
            <stop stop-color="#6652F5" />
            <stop offset="0.33754" stop-color="#9A9CF9" />
            <stop offset="0.868809" stop-color="#D9DAFC" />
        </linearGradient>
        <linearGradient
            id="paint2_linear_10742_4490"
            x1="25.781"
            y1="9.83437"
            x2="37.244"
            y2="13.3671"
            gradientUnits="userSpaceOnUse"
        >
            <stop stop-color="#6652F5" />
            <stop offset="0.33754" stop-color="#9A9CF9" />
            <stop offset="0.868809" stop-color="#D9DAFC" />
        </linearGradient>
        <clipPath id="clip0_10742_4490">
            <rect width="44.4444" height="40" fill="white" transform="translate(1.11133 1.11133)" />
        </clipPath>
        <clipPath id="clip1_10742_4490">
            <rect width="116.116" height="15.8764" fill="white" transform="translate(52.2227 13.1729)" />
        </clipPath>
    </defs>
</svg>
