<svg width="64" height="64" viewBox="0 0 64 64" fill="none" xmlns="http://www.w3.org/2000/svg">
    <path
        fill-rule="evenodd"
        clip-rule="evenodd"
        d="M32 56C45.2548 56 56 45.2548 56 32C56 18.7452 45.2548 8 32 8C18.7452 8 8 18.7452 8 32C8 45.2548 18.7452 56 32 56ZM32 60C47.464 60 60 47.464 60 32C60 16.536 47.464 4 32 4C16.536 4 4 16.536 4 32C4 47.464 16.536 60 32 60Z"
        fill="url(#paint0_linear_6820_77241)"
    />
    <path
        d="M48 32C48 40.8366 40.8366 48 32 48C23.1634 48 16 40.8366 16 32C16 23.1634 23.1634 16 32 16C40.8366 16 48 23.1634 48 32Z"
        fill="url(#paint1_linear_6820_77241)"
    />
    <defs>
        <linearGradient
            id="paint0_linear_6820_77241"
            x1="19.4674"
            y1="3.75461"
            x2="25.2895"
            y2="44.1294"
            gradientUnits="userSpaceOnUse"
        >
            <stop stop-color="white" />
            <stop offset="0.647491" stop-color="#CDCBFC" />
            <stop offset="1" stop-color="#9696F9" />
        </linearGradient>
        <linearGradient
            id="paint1_linear_6820_77241"
            x1="19.4674"
            y1="3.75461"
            x2="25.2895"
            y2="44.1294"
            gradientUnits="userSpaceOnUse"
        >
            <stop stop-color="white" />
            <stop offset="0.647491" stop-color="#CDCBFC" />
            <stop offset="1" stop-color="#9696F9" />
        </linearGradient>
    </defs>
</svg>
