<svg width="72" height="72" viewBox="0 0 72 72" fill="none" xmlns="http://www.w3.org/2000/svg">
    <path
        d="M36 1.50146C16.9455 1.50146 1.5 16.947 1.5 36.0015C1.5 55.056 16.9455 70.5015 36 70.5015C55.0545 70.5015 70.5 55.056 70.5 36.0015C70.5 16.947 55.0545 1.50146 36 1.50146Z"
        fill="url(#paint0_linear_12159_616)"
    />
    <path
        d="M37.5 15.0015H34.5C33.6715 15.0015 33 15.673 33 16.5015V43.5015C33 44.3299 33.6715 45.0015 34.5 45.0015H37.5C38.3284 45.0015 39 44.3299 39 43.5015V16.5015C39 15.673 38.3284 15.0015 37.5 15.0015Z"
        fill="url(#paint1_linear_12159_616)"
    />
    <path
        d="M36 58.5015C38.0711 58.5015 39.75 56.8225 39.75 54.7515C39.75 52.6804 38.0711 51.0015 36 51.0015C33.929 51.0015 32.25 52.6804 32.25 54.7515C32.25 56.8225 33.929 58.5015 36 58.5015Z"
        fill="url(#paint2_linear_12159_616)"
    />
    <defs>
        <linearGradient
            id="paint0_linear_12159_616"
            x1="36"
            y1="1.50146"
            x2="36"
            y2="70.5015"
            gradientUnits="userSpaceOnUse"
        >
            <stop stop-color="#FFD6DA" />
            <stop offset="1" stop-color="#FF9EA8" />
        </linearGradient>
        <linearGradient
            id="paint1_linear_12159_616"
            x1="36"
            y1="15.0015"
            x2="36"
            y2="45.0015"
            gradientUnits="userSpaceOnUse"
        >
            <stop stop-color="#FF666D" />
            <stop offset="1" stop-color="#E0211F" />
        </linearGradient>
        <linearGradient
            id="paint2_linear_12159_616"
            x1="36"
            y1="51.0015"
            x2="36"
            y2="58.5015"
            gradientUnits="userSpaceOnUse"
        >
            <stop stop-color="#FF666D" />
            <stop offset="1" stop-color="#E0211F" />
        </linearGradient>
    </defs>
</svg>
