<svg width="92" height="44" viewBox="0 0 92 44" fill="none" xmlns="http://www.w3.org/2000/svg">
<path d="M89.4845 1.32463C89.3876 0.780907 88.8684 0.418644 88.3246 0.515497L79.4641 2.0938C78.9204 2.19065 78.5581 2.70994 78.655 3.25367C78.7518 3.79739 79.2711 4.15966 79.8148 4.0628L87.6909 2.65987L89.0938 10.5359C89.1907 11.0796 89.7099 11.4419 90.2537 11.345C90.7974 11.2482 91.1597 10.7289 91.0628 10.1852L89.4845 1.32463ZM0.898088 42.4948C17.2933 44.1744 33.0308 43.228 47.8744 37.2557C62.7277 31.2795 76.6005 20.3053 89.3202 2.07215L87.6798 0.927854C75.1442 18.8973 61.5628 29.5924 47.1278 35.4003C32.6831 41.2121 17.2983 42.1644 1.10191 40.5052L0.898088 42.4948Z" fill="#7777F8"/>
</svg>
