<svg width="24" height="24" viewBox="0 0 24 24" fill="none" xmlns="http://www.w3.org/2000/svg">
    <rect width="24" height="24" fill="white" />
    <path
        d="M8 17.2028V14.8754C7.99973 14.4727 8.07883 14.0738 8.23281 13.7016C8.38678 13.3295 8.61259 12.9913 8.89734 12.7065C9.18208 12.4216 9.52018 12.1957 9.89229 12.0416C10.2644 11.8875 10.6632 11.8083 11.066 11.8085H13.3907C13.8873 11.8085 14.3635 11.6112 14.7146 11.2601C15.0657 10.909 15.2629 10.4328 15.2629 9.93621C15.2628 9.43971 15.0656 8.96358 14.7145 8.61253C14.3634 8.26148 13.8872 8.06426 13.3907 8.06426H10.1934V9.90617H8V6H13.5391C14.0588 6 14.5733 6.10237 15.0534 6.30125C15.5335 6.50013 15.9697 6.79163 16.3371 7.1591C16.7045 7.52657 16.9959 7.96281 17.1947 8.44292C17.3935 8.92303 17.4958 9.43761 17.4957 9.95725C17.4957 10.4769 17.3934 10.9914 17.1946 11.4715C16.9958 11.9516 16.7044 12.3878 16.337 12.7552C15.9696 13.1227 15.5334 13.4141 15.0533 13.613C14.5733 13.8118 14.0587 13.9142 13.5391 13.9142H11.2901C10.8581 13.9142 10.4298 13.9989 10.0306 14.1642C9.63151 14.3295 9.26887 14.5718 8.9634 14.8773C8.65793 15.1827 8.41562 15.5454 8.25032 15.9445C8.0851 16.3435 8.00004 16.771 8 17.2028Z"
        fill="url(#paint0_radial_13875_14105)"
    />
    <path
        d="M11.2895 13.914C10.8575 13.914 10.4298 13.999 10.0306 14.1643C9.63151 14.3296 9.26887 14.5719 8.9634 14.8774C8.65793 15.1829 8.41562 15.5455 8.25032 15.9447C8.08502 16.3438 7.99996 16.7716 8 17.2036V18.0001H10.1934V15.0107C10.1934 14.72 10.3089 14.4411 10.5144 14.2354C10.72 14.0298 10.9988 13.9142 11.2895 13.914V13.914Z"
        fill="url(#paint1_linear_13875_14105)"
    />
    <defs>
        <radialGradient
            id="paint0_radial_13875_14105"
            cx="0"
            cy="0"
            r="1"
            gradientUnits="userSpaceOnUse"
            gradientTransform="translate(17.5294 4.33387) scale(12.0779 12.0782)"
        >
            <stop stop-color="#A995FF" />
            <stop offset="1" stop-color="#6652F5" />
        </radialGradient>
        <linearGradient
            id="paint1_linear_13875_14105"
            x1="9.64476"
            y1="17.4091"
            x2="9.64476"
            y2="12.8173"
            gradientUnits="userSpaceOnUse"
        >
            <stop stop-color="#6D4BFD" />
            <stop offset="1" stop-color="#1C0554" />
        </linearGradient>
    </defs>
</svg>
