<svg xmlns="http://www.w3.org/2000/svg" width="32" height="32" fill="none" viewBox="0 0 32 32">
  <rect width="28" height="26" x="2" y="4" fill="#657EE4" rx="4"/>
  <path fill="#fff" d="M13.18 10.886V23H10.91v-9.792l-2.7 1.638-1.008-1.548 3.942-2.412h2.034zm6.86-.216c1.417 0 2.49.54 3.223 1.62.744 1.08 1.116 2.634 1.116 4.662 0 2.04-.372 3.606-1.116 4.698-.732 1.08-1.806 1.62-3.222 1.62s-2.496-.54-3.24-1.62c-.732-1.092-1.098-2.658-1.098-4.698 0-2.028.366-3.582 1.098-4.662.744-1.08 1.824-1.62 3.24-1.62zm0 1.746c-.683 0-1.181.348-1.493 1.044-.312.684-.468 1.848-.468 3.492 0 1.656.156 2.832.468 3.528.312.696.81 1.044 1.494 1.044.684 0 1.182-.342 1.494-1.026.312-.696.468-1.878.468-3.546 0-1.656-.156-2.826-.468-3.51-.312-.684-.81-1.026-1.494-1.026z"/>
  <path fill="#657EE4" d="M8 4a2 2 0 114 0H8zM20 4a2 2 0 114 0h-4z"/>
</svg>
