<svg width="24" height="24" viewBox="0 0 24 24" fill="none" xmlns="http://www.w3.org/2000/svg">
<rect width="24" height="24" rx="3" fill="#272B33"/>
<path fill-rule="evenodd" clip-rule="evenodd" d="M17.3096 3.66488H18.59C19.2 3.71456 19.7738 3.97494 20.2134 4.4015C20.653 4.82806 20.931 5.39433 21 6.00351V19.5858C20.9957 20.2248 20.7404 20.8363 20.2894 21.2882C19.8384 21.74 19.2279 21.9957 18.59 22.0001H5.41021C4.77237 21.9957 4.16189 21.74 3.71086 21.2882C3.25983 20.8363 3.00451 20.2248 3.00017 19.5858V6.07893V6.06033C2.99644 5.74942 3.05389 5.44084 3.16923 5.15219C3.28457 4.86353 3.45555 4.60047 3.6724 4.37802C3.88924 4.15558 4.14769 3.97811 4.43301 3.85574C4.71832 3.73339 5.02492 3.66853 5.33526 3.66488H6.54011V3.21204C6.53381 3.14475 6.53381 3.07701 6.54011 3.00971C6.55335 2.86444 6.59504 2.7232 6.66277 2.59407C6.73051 2.46493 6.82298 2.35044 6.9349 2.2571C7.04681 2.16378 7.17599 2.09346 7.31504 2.05015C7.45409 2.00683 7.60029 1.99139 7.7453 2.00469H7.77847C7.93453 2.00686 8.08863 2.03981 8.23198 2.10167C8.37532 2.16352 8.5051 2.25308 8.61388 2.36521C8.72266 2.47732 8.80832 2.60983 8.86597 2.75514C8.92361 2.90044 8.9521 3.0557 8.94983 3.21204V3.66488H14.8995V3.21204C14.8995 2.89183 15.0265 2.58474 15.2525 2.35832C15.4784 2.13189 15.785 2.00469 16.1046 2.00469C16.2629 2.00469 16.4197 2.03592 16.5658 2.0966C16.712 2.15728 16.8449 2.24622 16.9567 2.35834C17.0686 2.47046 17.1574 2.60355 17.2179 2.75003C17.2784 2.89652 17.3096 3.0535 17.3096 3.21204V3.66488ZM19.2193 19.7673C19.2526 19.6853 19.2692 19.5974 19.2685 19.5089L19.2644 8.04079H4.65705V19.5192C4.6577 19.6078 4.67578 19.6955 4.71024 19.7769C4.74471 19.8585 4.79488 19.9325 4.8579 19.9947C4.92092 20.0568 4.99556 20.1058 5.07753 20.139C5.15949 20.1722 5.24718 20.1889 5.33559 20.1881H18.6013C18.6896 20.1874 18.777 20.1692 18.8583 20.1347C18.9396 20.1002 19.0133 20.0501 19.0753 19.9869C19.1373 19.9239 19.1862 19.8492 19.2193 19.7673ZM15.9926 10.2014C15.6156 10.0277 15.1595 9.94081 14.6242 9.94081C13.629 9.94081 12.7695 10.2845 12.0458 10.9718L12.9279 11.9348C13.3878 11.4892 13.8854 11.2663 14.4207 11.2663C14.7373 11.2663 14.9861 11.3456 15.1671 11.5043C15.348 11.6553 15.4385 11.8706 15.4385 12.15C15.4385 12.4673 15.3405 12.7127 15.1444 12.8864C14.9484 13.0602 14.6808 13.147 14.3415 13.147H13.9004L13.7082 14.3819H14.3415C14.7562 14.3819 15.0653 14.4688 15.2688 14.6425C15.4799 14.8086 15.5855 15.0881 15.5855 15.4809C15.5855 15.8283 15.4762 16.1002 15.2575 16.2966C15.0389 16.4929 14.7524 16.5911 14.398 16.5911C14.104 16.5911 13.8326 16.5345 13.5838 16.4212C13.3425 16.3003 13.0937 16.1115 12.8374 15.8547L11.8761 16.7951C12.5094 17.5654 13.384 17.9506 14.4998 17.9506C15.1105 17.9506 15.6345 17.8449 16.0718 17.6334C16.5166 17.4219 16.8521 17.1387 17.0783 16.7837C17.3045 16.4212 17.4175 16.0247 17.4175 15.5941C17.4175 15.0201 17.2554 14.5783 16.9313 14.2686C16.6071 13.9514 16.1886 13.7663 15.676 13.7135C16.1509 13.5775 16.5166 13.3547 16.7729 13.045C17.0368 12.7354 17.1687 12.3502 17.1687 11.8895C17.1687 11.5269 17.067 11.1984 16.8634 10.9038C16.6674 10.6092 16.3771 10.3751 15.9926 10.2014ZM11.0295 17.758V10.0994H9.4349L6.85645 11.6629L7.63677 12.8524L9.27657 11.8441V17.758H11.0295Z" fill="white"/>
</svg>
