<svg xmlns="http://www.w3.org/2000/svg" width="32" height="32" fill="none" viewBox="0 0 32 32">
  <rect width="28" height="26" x="2" y="4" fill="#657EE4" rx="4"/>
  <path fill="#fff" d="M13.662 10.886V23h-2.268v-9.792l-2.7 1.638-1.008-1.548 3.943-2.412h2.034zm9.616 1.71h-4.536v3.006c.6-.3 1.212-.45 1.836-.45.672 0 1.272.156 1.8.468.528.312.936.762 1.224 1.35.3.588.45 1.284.45 2.088 0 .828-.186 1.56-.558 2.196a3.887 3.887 0 01-1.584 1.494c-.684.348-1.476.522-2.376.522-.804 0-1.518-.144-2.142-.432a5.608 5.608 0 01-1.674-1.278l1.314-1.224c.696.768 1.512 1.152 2.448 1.152.684 0 1.218-.21 1.602-.63.396-.42.594-1.02.594-1.8 0-1.5-.648-2.25-1.944-2.25-.276 0-.534.036-.774.108a3.93 3.93 0 00-.792.306h-1.638v-6.336h7.02l-.27 1.71z"/>
  <path fill="#657EE4" d="M8 4a2 2 0 114 0H8zM20 4a2 2 0 114 0h-4z"/>
</svg>
