<svg width="24" height="24" viewBox="0 0 24 24" fill="none" xmlns="http://www.w3.org/2000/svg">
<rect width="24" height="24" rx="3" fill="#272B33"/>
<path fill-rule="evenodd" clip-rule="evenodd" d="M17.3096 3.66488H18.59C19.2 3.71456 19.7738 3.97494 20.2134 4.4015C20.653 4.82806 20.931 5.39433 21 6.00351V19.5858C20.9957 20.2248 20.7404 20.8363 20.2894 21.2882C19.8384 21.74 19.2279 21.9957 18.59 22.0001H5.41021C4.77237 21.9957 4.16189 21.74 3.71086 21.2882C3.25983 20.8363 3.00451 20.2248 3.00017 19.5858V6.07893V6.06033C2.99644 5.74942 3.05389 5.44084 3.16923 5.15219C3.28457 4.86353 3.45555 4.60047 3.6724 4.37802C3.88924 4.15558 4.14769 3.97811 4.43301 3.85574C4.71832 3.73339 5.02492 3.66853 5.33526 3.66488H6.54011V3.21204C6.53381 3.14475 6.53381 3.07701 6.54011 3.00971C6.55335 2.86444 6.59504 2.7232 6.66277 2.59407C6.73051 2.46493 6.82298 2.35044 6.9349 2.2571C7.04681 2.16378 7.17599 2.09346 7.31504 2.05015C7.45409 2.00683 7.60029 1.99139 7.7453 2.00469H7.77847C7.93453 2.00686 8.08863 2.03981 8.23198 2.10167C8.37532 2.16352 8.5051 2.25308 8.61388 2.36521C8.72266 2.47732 8.80832 2.60983 8.86597 2.75514C8.92361 2.90044 8.9521 3.0557 8.94983 3.21204V3.66488H14.8995V3.21204C14.8995 2.89183 15.0265 2.58474 15.2525 2.35832C15.4784 2.13189 15.785 2.00469 16.1046 2.00469C16.2629 2.00469 16.4197 2.03592 16.5658 2.0966C16.712 2.15728 16.8449 2.24622 16.9567 2.35834C17.0686 2.47046 17.1574 2.60355 17.2179 2.75003C17.2784 2.89652 17.3096 3.0535 17.3096 3.21204V3.66488ZM19.2193 19.7673C19.2526 19.6853 19.2692 19.5974 19.2685 19.5089L19.2644 8.04079H4.65705V19.5192C4.6577 19.6078 4.67578 19.6955 4.71024 19.7769C4.74471 19.8585 4.79488 19.9325 4.8579 19.9947C4.92092 20.0568 4.99556 20.1058 5.07753 20.139C5.15949 20.1722 5.24718 20.1889 5.33559 20.1881H18.6013C18.6896 20.1874 18.777 20.1692 18.8583 20.1347C18.9396 20.1002 19.0133 20.0501 19.0753 19.9869C19.1373 19.9239 19.1862 19.8492 19.2193 19.7673ZM16.7 12.9091C16.3682 12.7052 15.9913 12.6032 15.5691 12.6032C14.9508 12.6032 14.4118 12.8373 13.9519 13.3056C14.0047 12.641 14.163 12.1274 14.4269 11.7648C14.6907 11.4023 15.0375 11.221 15.4673 11.221C15.8216 11.221 16.1684 11.3192 16.5077 11.5156L17.1636 10.4506C16.6585 10.1108 16.078 9.94081 15.422 9.94081C14.7435 9.94081 14.1517 10.1221 13.6465 10.4846C13.1489 10.8396 12.7644 11.3419 12.493 11.9914C12.2291 12.641 12.0972 13.3963 12.0972 14.2573C12.0972 15.4053 12.3347 16.3079 12.8097 16.965C13.2846 17.6221 14.0122 17.9506 14.9923 17.9506C15.5502 17.9506 16.0365 17.826 16.4512 17.5768C16.8734 17.3275 17.1976 16.9914 17.4237 16.5685C17.6499 16.138 17.763 15.6621 17.763 15.141C17.763 14.6123 17.6688 14.1591 17.4803 13.7815C17.2918 13.3963 17.0317 13.1055 16.7 12.9091ZM15.7274 16.2739C15.5691 16.5383 15.3316 16.6704 15.0149 16.6704C14.638 16.6704 14.3703 16.5005 14.212 16.1606C14.0537 15.8207 13.967 15.2467 13.9519 14.4386C14.2912 14.0383 14.6643 13.8381 15.0715 13.8381C15.373 13.8381 15.5992 13.9401 15.75 14.144C15.9008 14.3479 15.9762 14.6878 15.9762 15.1636C15.9762 15.6319 15.8933 16.002 15.7274 16.2739ZM10.7756 17.758V10.0994H9.18099L6.60254 11.6629L7.38286 12.8524L9.02266 11.8441V17.758H10.7756Z" fill="white"/>
</svg>
