<svg xmlns="http://www.w3.org/2000/svg" width="32" height="32" fill="none" viewBox="0 0 32 32">
  <rect width="28" height="26" x="2" y="4" fill="#657EE4" rx="4"/>
  <path fill="#fff" d="M13.232 10.886V23h-2.268v-9.792l-2.7 1.638-1.008-1.548 3.942-2.412h2.034zm8.787 5.616c1.656.744 2.484 1.824 2.484 3.24 0 .66-.186 1.26-.558 1.8-.372.528-.9.948-1.584 1.26-.672.312-1.458.468-2.358.468-.888 0-1.662-.15-2.322-.45-.66-.312-1.17-.732-1.53-1.26a3.09 3.09 0 01-.54-1.782c0-1.392.768-2.412 2.304-3.06-1.212-.66-1.818-1.614-1.818-2.862 0-.636.174-1.194.522-1.674.36-.492.84-.864 1.44-1.116a4.99 4.99 0 011.998-.396c.732 0 1.398.12 1.998.36.6.24 1.074.594 1.422 1.062.36.468.54 1.026.54 1.674 0 1.14-.666 2.052-1.998 2.736zm-1.962-4.212c-.54 0-.966.138-1.278.414-.3.276-.45.672-.45 1.188 0 .48.144.864.432 1.152.288.276.75.528 1.386.756l.342.126c.468-.288.798-.588.99-.9.204-.324.306-.708.306-1.152 0-.492-.15-.876-.45-1.152-.3-.288-.726-.432-1.278-.432zm0 9.27c.66 0 1.176-.168 1.548-.504.372-.336.558-.774.558-1.314 0-.552-.162-.984-.486-1.296-.324-.324-.9-.636-1.728-.936l-.558-.198c-.972.516-1.458 1.314-1.458 2.394 0 .576.192 1.032.576 1.368.384.324.9.486 1.548.486z"/>
  <path fill="#657EE4" d="M8 4a2 2 0 114 0H8zM20 4a2 2 0 114 0h-4z"/>
</svg>
