<svg width="24" height="24" viewBox="0 0 24 24" fill="none" xmlns="http://www.w3.org/2000/svg">
<rect width="24" height="24" rx="3" fill="#272B33"/>
<path fill-rule="evenodd" clip-rule="evenodd" d="M17.3096 3.66488H18.59C19.2 3.71456 19.7738 3.97494 20.2134 4.4015C20.653 4.82806 20.931 5.39433 21 6.00351V19.5858C20.9957 20.2248 20.7404 20.8363 20.2894 21.2882C19.8384 21.74 19.2279 21.9957 18.59 22.0001H5.41021C4.77237 21.9957 4.16189 21.74 3.71086 21.2882C3.25983 20.8363 3.00451 20.2248 3.00017 19.5858V6.07893V6.06033C2.99644 5.74942 3.05389 5.44084 3.16923 5.15219C3.28457 4.86353 3.45555 4.60047 3.6724 4.37802C3.88924 4.15558 4.14769 3.97811 4.43301 3.85574C4.71832 3.73339 5.02492 3.66853 5.33526 3.66488H6.54011V3.21204C6.53381 3.14475 6.53381 3.07701 6.54011 3.00971C6.55335 2.86444 6.59504 2.7232 6.66277 2.59407C6.73051 2.46493 6.82298 2.35044 6.9349 2.2571C7.04681 2.16378 7.17599 2.09346 7.31504 2.05015C7.45409 2.00683 7.60029 1.99139 7.7453 2.00469H7.77847C7.93453 2.00686 8.08863 2.03981 8.23198 2.10167C8.37532 2.16352 8.5051 2.25308 8.61388 2.36521C8.72266 2.47732 8.80832 2.60983 8.86597 2.75514C8.92361 2.90044 8.9521 3.0557 8.94983 3.21204V3.66488H14.8995V3.21204C14.8995 2.89183 15.0265 2.58474 15.2525 2.35832C15.4784 2.13189 15.785 2.00469 16.1046 2.00469C16.2629 2.00469 16.4197 2.03592 16.5658 2.0966C16.712 2.15728 16.8449 2.24622 16.9567 2.35834C17.0686 2.47046 17.1574 2.60355 17.2179 2.75003C17.2784 2.89652 17.3096 3.0535 17.3096 3.21204V3.66488ZM19.2193 19.7673C19.2526 19.6853 19.2692 19.5974 19.2685 19.5089L19.2644 8.04079H4.65705V19.5192C4.6577 19.6078 4.67578 19.6955 4.71024 19.7769C4.74471 19.8585 4.79488 19.9325 4.8579 19.9947C4.92092 20.0568 4.99556 20.1058 5.07753 20.139C5.15949 20.1722 5.24718 20.1889 5.33559 20.1881H18.6013C18.6896 20.1874 18.777 20.1692 18.8583 20.1347C18.9396 20.1002 19.0133 20.0501 19.0753 19.9869C19.1373 19.9239 19.1862 19.8492 19.2193 19.7673ZM17.4313 14.5292C17.1825 14.1893 16.8017 13.8947 16.2891 13.6455C16.7037 13.4265 17.0091 13.1697 17.2051 12.8751C17.4087 12.573 17.5104 12.252 17.5104 11.9121C17.5104 11.3003 17.2616 10.8207 16.7641 10.4733C16.274 10.1183 15.6407 9.94081 14.8641 9.94081C14.3515 9.94081 13.8916 10.0277 13.4844 10.2014C13.0849 10.3751 12.772 10.6168 12.5458 10.9265C12.3196 11.2361 12.2065 11.5949 12.2065 12.0027C12.2065 12.7731 12.5797 13.3774 13.3261 13.8154C12.3762 14.2308 11.9012 14.8653 11.9012 15.7188C11.9012 16.1342 12.018 16.5118 12.2518 16.8517C12.4855 17.184 12.821 17.4522 13.2583 17.6561C13.7031 17.8525 14.2233 17.9506 14.8189 17.9506C15.4296 17.9506 15.9611 17.8487 16.4135 17.6448C16.8658 17.4408 17.2089 17.1689 17.4426 16.829C17.6839 16.4816 17.8045 16.1002 17.8045 15.6848C17.8045 15.2467 17.6801 14.8615 17.4313 14.5292ZM14.1856 11.3796C14.359 11.2286 14.589 11.1531 14.8755 11.1531C15.1695 11.1531 15.3919 11.2324 15.5427 11.391C15.701 11.542 15.7802 11.746 15.7802 12.0027C15.7802 12.2595 15.7312 12.4824 15.6332 12.6712C15.5351 12.8524 15.358 13.0262 15.1016 13.1923L14.8641 13.1017C14.54 12.9657 14.3025 12.8185 14.1517 12.6599C14.0084 12.4937 13.9368 12.2822 13.9368 12.0254C13.9368 11.746 14.0197 11.5307 14.1856 11.3796ZM15.7123 16.3985C15.5163 16.5798 15.2373 16.6704 14.8755 16.6704C14.5136 16.6704 14.2271 16.576 14.016 16.3872C13.8049 16.1984 13.6993 15.9454 13.6993 15.6281C13.6993 15.0315 13.9557 14.5896 14.4683 14.3026L14.8415 14.4386C15.2788 14.5972 15.5841 14.7671 15.7576 14.9484C15.931 15.1221 16.0177 15.3638 16.0177 15.6734C16.0177 15.968 15.9159 16.2097 15.7123 16.3985ZM10.6813 17.758V10.0994H9.08675L6.5083 11.6629L7.28862 12.8524L8.92842 11.8441V17.758H10.6813Z" fill="white"/>
</svg>
