<svg xmlns="http://www.w3.org/2000/svg" width="32" height="32" fill="none" viewBox="0 0 32 32">
  <rect width="28" height="26" x="2" y="4" fill="#657EE4" rx="4"/>
  <path fill="#fff" d="M13.443 10.886V23h-2.268v-9.792l-2.7 1.638-1.008-1.548 3.942-2.412h2.034zm6.555-.216c1.368 0 2.418.426 3.15 1.278.732.84 1.098 1.98 1.098 3.42 0 1.644-.246 2.994-.738 4.05-.492 1.044-1.248 1.878-2.268 2.502-1.02.624-2.37 1.134-4.05 1.53l-.486-1.638c1.584-.42 2.784-.96 3.6-1.62.828-.672 1.32-1.584 1.476-2.736-.66.84-1.524 1.26-2.592 1.26-.624 0-1.2-.156-1.728-.468-.516-.324-.924-.786-1.224-1.386-.3-.6-.45-1.296-.45-2.088 0-.828.186-1.548.558-2.16a3.794 3.794 0 011.512-1.44 4.583 4.583 0 012.142-.504zm-.18 6.372c.816 0 1.506-.414 2.07-1.242.012-1.236-.132-2.112-.432-2.628-.288-.528-.774-.792-1.458-.792-.6 0-1.068.204-1.404.612-.336.408-.504.99-.504 1.746 0 .792.156 1.374.468 1.746.324.372.744.558 1.26.558z"/>
  <path fill="#657EE4" d="M8 4a2 2 0 114 0H8zM20 4a2 2 0 114 0h-4z"/>
</svg>
