<svg xmlns="http://www.w3.org/2000/svg" width="32" height="32" fill="none" viewBox="0 0 32 32">
  <rect width="28" height="26" x="2" y="4" fill="#657EE4" rx="4"/>
  <path fill="#fff" d="M15.633 10.67c.816 0 1.518.15 2.105.45.6.3 1.056.708 1.369 1.224.312.516.468 1.092.468 1.728a4.59 4.59 0 01-.45 1.98c-.288.624-.774 1.32-1.459 2.088-.683.768-1.686 1.782-3.005 3.042h5.184L19.593 23H12.05v-1.692c1.536-1.56 2.634-2.712 3.294-3.456.673-.756 1.147-1.398 1.423-1.926.288-.54.431-1.098.431-1.674 0-.552-.162-.984-.486-1.296-.311-.312-.732-.468-1.26-.468-.467 0-.882.102-1.242.306-.348.192-.714.516-1.098.972L11.71 12.65c1.02-1.32 2.328-1.98 3.924-1.98z"/>
  <path fill="#657EE4" d="M8 4a2 2 0 114 0H8zM20 4a2 2 0 114 0h-4z"/>
</svg>
