<svg width="24" height="24" viewBox="0 0 24 24" fill="none" xmlns="http://www.w3.org/2000/svg">
<rect width="24" height="24" rx="3" fill="#272B33"/>
<path fill-rule="evenodd" clip-rule="evenodd" d="M17.3096 3.66488H18.59C19.2 3.71456 19.7738 3.97494 20.2134 4.4015C20.653 4.82806 20.931 5.39433 21 6.00351V19.5858C20.9957 20.2248 20.7404 20.8363 20.2894 21.2882C19.8384 21.74 19.2279 21.9957 18.59 22.0001H5.41021C4.77237 21.9957 4.16189 21.74 3.71086 21.2882C3.25983 20.8363 3.00451 20.2248 3.00017 19.5858V6.07893V6.06033C2.99644 5.74942 3.05389 5.44084 3.16923 5.15219C3.28457 4.86353 3.45555 4.60047 3.6724 4.37802C3.88924 4.15558 4.14769 3.97811 4.43301 3.85574C4.71832 3.73339 5.02492 3.66853 5.33526 3.66488H6.54011V3.21204C6.53381 3.14475 6.53381 3.07701 6.54011 3.00971C6.55335 2.86444 6.59504 2.7232 6.66277 2.59407C6.73051 2.46493 6.82298 2.35044 6.9349 2.2571C7.04681 2.16378 7.17599 2.09346 7.31504 2.05015C7.45409 2.00683 7.60029 1.99139 7.7453 2.00469H7.77847C7.93453 2.00686 8.08863 2.03981 8.23198 2.10167C8.37532 2.16352 8.5051 2.25308 8.61388 2.36521C8.72266 2.47732 8.80832 2.60983 8.86597 2.75514C8.92361 2.90044 8.9521 3.0557 8.94983 3.21204V3.66488H14.8995V3.21204C14.8995 2.89183 15.0265 2.58474 15.2525 2.35832C15.4784 2.13189 15.785 2.00469 16.1046 2.00469C16.2629 2.00469 16.4197 2.03592 16.5658 2.0966C16.712 2.15728 16.8449 2.24622 16.9567 2.35834C17.0686 2.47046 17.1574 2.60355 17.2179 2.75003C17.2784 2.89652 17.3096 3.0535 17.3096 3.21204V3.66488ZM19.2193 19.7673C19.2526 19.6853 19.2692 19.5974 19.2685 19.5089L19.2644 8.04079H4.65705V19.5192C4.6577 19.6078 4.67578 19.6955 4.71024 19.7769C4.74471 19.8585 4.79488 19.9325 4.8579 19.9947C4.92092 20.0568 4.99556 20.1058 5.07753 20.139C5.15949 20.1722 5.24718 20.1889 5.33559 20.1881H18.6013C18.6896 20.1874 18.777 20.1692 18.8583 20.1347C18.9396 20.1002 19.0133 20.0501 19.0753 19.9869C19.1373 19.9239 19.1862 19.8492 19.2193 19.7673ZM10.1462 10.2354C9.75415 10.039 9.28294 9.94081 8.73257 9.94081C8.1822 9.94081 7.68461 10.0579 7.23979 10.292C6.8025 10.5262 6.42554 10.8509 6.10889 11.2663L7.16062 12.1047C7.39434 11.8253 7.61675 11.6251 7.82785 11.5043C8.03895 11.3759 8.28021 11.3117 8.55163 11.3117C8.8532 11.3117 9.09069 11.4023 9.2641 11.5836C9.44504 11.7573 9.53551 11.999 9.53551 12.3086C9.53551 12.6334 9.44881 12.9506 9.2754 13.2603C9.10954 13.57 8.81551 13.9589 8.3933 14.4272C7.9711 14.8879 7.29633 15.5753 6.36899 16.4892V17.758H11.3449L11.5259 16.3872H8.3933C9.20001 15.6546 9.81447 15.0503 10.2367 14.5745C10.6589 14.0911 10.9529 13.6644 11.1188 13.2943C11.2846 12.9242 11.3676 12.5352 11.3676 12.1274C11.3676 11.7271 11.262 11.3608 11.0509 11.0284C10.8474 10.6961 10.5458 10.4318 10.1462 10.2354ZM17.3003 10.9718C16.8102 10.2845 16.0978 9.94081 15.1629 9.94081C14.228 9.94081 13.5118 10.2845 13.0142 10.9718C12.5241 11.6591 12.2791 12.6485 12.2791 13.9401C12.2791 15.2241 12.5241 16.2135 13.0142 16.9083C13.5118 17.6032 14.228 17.9506 15.1629 17.9506C16.0978 17.9506 16.8102 17.6032 17.3003 16.9083C17.7979 16.2135 18.0467 15.2241 18.0467 13.9401C18.0467 12.6485 17.7979 11.6591 17.3003 10.9718ZM14.5522 11.5156C14.703 11.3494 14.9065 11.2663 15.1629 11.2663C15.4192 11.2663 15.6228 11.3456 15.7736 11.5043C15.9244 11.6629 16.0337 11.9385 16.1015 12.3313C16.1769 12.7165 16.2146 13.2528 16.2146 13.9401C16.2146 14.6274 16.1769 15.1674 16.1015 15.5602C16.0337 15.9454 15.9244 16.221 15.7736 16.3872C15.6228 16.5458 15.4192 16.6251 15.1629 16.6251C14.9065 16.6251 14.703 16.542 14.5522 16.3759C14.4014 16.2097 14.2883 15.934 14.2129 15.5488C14.1451 15.1561 14.1111 14.6198 14.1111 13.9401C14.1111 13.2603 14.1451 12.7278 14.2129 12.3426C14.2883 11.9574 14.4014 11.6818 14.5522 11.5156Z" fill="white"/>
</svg>
