<svg xmlns="http://www.w3.org/2000/svg" width="32" height="32" fill="none" viewBox="0 0 32 32">
  <rect width="28" height="26" x="2" y="4" fill="#657EE4" rx="4"/>
  <path fill="#fff" d="M10.473 10.67c.816 0 1.518.15 2.106.45.6.3 1.056.708 1.368 1.224.312.516.468 1.092.468 1.728a4.59 4.59 0 01-.45 1.98c-.288.624-.774 1.32-1.458 2.088-.684.768-1.686 1.782-3.006 3.042h5.184L14.433 23H6.891v-1.692c1.536-1.56 2.634-2.712 3.294-3.456.672-.756 1.146-1.398 1.422-1.926.288-.54.432-1.098.432-1.674 0-.552-.162-.984-.486-1.296-.312-.312-.732-.468-1.26-.468-.468 0-.882.102-1.242.306-.348.192-.714.516-1.098.972L6.55 12.65c1.02-1.32 2.328-1.98 3.924-1.98zm10.077 0c1.416 0 2.49.54 3.222 1.62.744 1.08 1.116 2.634 1.116 4.662 0 2.04-.372 3.606-1.116 4.698-.732 1.08-1.806 1.62-3.222 1.62s-2.496-.54-3.24-1.62c-.732-1.092-1.098-2.658-1.098-4.698 0-2.028.366-3.582 1.098-4.662.744-1.08 1.824-1.62 3.24-1.62zm0 1.746c-.684 0-1.182.348-1.494 1.044-.312.684-.468 1.848-.468 3.492 0 1.656.156 2.832.468 3.528.312.696.81 1.044 1.494 1.044.684 0 1.182-.342 1.494-1.026.312-.696.468-1.878.468-3.546 0-1.656-.156-2.826-.468-3.51-.312-.684-.81-1.026-1.494-1.026z"/>
  <path fill="#657EE4" d="M8 4a2 2 0 114 0H8zM20 4a2 2 0 114 0h-4z"/>
</svg>
