<svg width="24" height="24" viewBox="0 0 24 24" fill="none" xmlns="http://www.w3.org/2000/svg">
<rect width="24" height="24" rx="3" fill="#272B33"/>
<path fill-rule="evenodd" clip-rule="evenodd" d="M17.3096 3.66488H18.59C19.2 3.71456 19.7738 3.97494 20.2134 4.4015C20.653 4.82806 20.931 5.39433 21 6.00351V19.5858C20.9957 20.2248 20.7404 20.8363 20.2894 21.2882C19.8384 21.74 19.2279 21.9957 18.59 22.0001H5.41021C4.77237 21.9957 4.16189 21.74 3.71086 21.2882C3.25983 20.8363 3.00451 20.2248 3.00017 19.5858V6.07893V6.06033C2.99644 5.74942 3.05389 5.44084 3.16923 5.15219C3.28457 4.86353 3.45555 4.60047 3.6724 4.37802C3.88924 4.15558 4.14769 3.97811 4.43301 3.85574C4.71832 3.73339 5.02492 3.66853 5.33526 3.66488H6.54011V3.21204C6.53381 3.14475 6.53381 3.07701 6.54011 3.00971C6.55335 2.86444 6.59504 2.7232 6.66277 2.59407C6.73051 2.46493 6.82298 2.35044 6.9349 2.2571C7.04681 2.16378 7.17599 2.09346 7.31504 2.05015C7.45409 2.00683 7.60029 1.99139 7.7453 2.00469H7.77847C7.93453 2.00686 8.08863 2.03981 8.23198 2.10167C8.37532 2.16352 8.5051 2.25308 8.61388 2.36521C8.72266 2.47732 8.80832 2.60983 8.86597 2.75514C8.92361 2.90044 8.9521 3.0557 8.94983 3.21204V3.66488H14.8995V3.21204C14.8995 2.89183 15.0265 2.58474 15.2525 2.35832C15.4784 2.13189 15.785 2.00469 16.1046 2.00469C16.2629 2.00469 16.4197 2.03592 16.5658 2.0966C16.712 2.15728 16.8449 2.24622 16.9567 2.35834C17.0686 2.47046 17.1574 2.60355 17.2179 2.75003C17.2784 2.89652 17.3096 3.0535 17.3096 3.21204V3.66488ZM19.2193 19.7673C19.2526 19.6853 19.2692 19.5974 19.2685 19.5089L19.2644 8.04079H4.65705V19.5192C4.6577 19.6078 4.67578 19.6955 4.71024 19.7769C4.74471 19.8585 4.79488 19.9325 4.8579 19.9947C4.92092 20.0568 4.99556 20.1058 5.07753 20.139C5.15949 20.1722 5.24718 20.1889 5.33559 20.1881H18.6013C18.6896 20.1874 18.777 20.1692 18.8583 20.1347C18.9396 20.1002 19.0133 20.0501 19.0753 19.9869C19.1373 19.9239 19.1862 19.8492 19.2193 19.7673ZM10.9577 10.2354C10.5657 10.039 10.0945 9.94081 9.5441 9.94081C8.99372 9.94081 8.49613 10.0579 8.05131 10.292C7.61403 10.5262 7.23706 10.8509 6.92041 11.2663L7.97215 12.1047C8.20587 11.8253 8.42828 11.6251 8.63938 11.5043C8.85048 11.3759 9.09174 11.3117 9.36315 11.3117C9.66473 11.3117 9.90221 11.4023 10.0756 11.5836C10.2566 11.7573 10.347 11.999 10.347 12.3086C10.347 12.6334 10.2603 12.9506 10.0869 13.2603C9.92106 13.57 9.62703 13.9589 9.20483 14.4272C8.78262 14.8879 8.10785 15.5753 7.18052 16.4892V17.758H12.1565L12.3374 16.3872H9.20483C10.0115 15.6546 10.626 15.0503 11.0482 14.5745C11.4704 14.0911 11.7644 13.6644 11.9303 13.2943C12.0962 12.9242 12.1791 12.5352 12.1791 12.1274C12.1791 11.7271 12.0735 11.3608 11.8624 11.0284C11.6589 10.6961 11.3573 10.4318 10.9577 10.2354ZM16.7269 17.758V10.0994H15.1323L12.5539 11.6629L13.3342 12.8524L14.974 11.8441V17.758H16.7269Z" fill="white"/>
</svg>
