<svg width="24" height="24" viewBox="0 0 24 24" fill="none" xmlns="http://www.w3.org/2000/svg">
<rect width="24" height="24" rx="3" fill="#272B33"/>
<path fill-rule="evenodd" clip-rule="evenodd" d="M17.3096 3.66488H18.59C19.2 3.71456 19.7738 3.97494 20.2134 4.4015C20.653 4.82806 20.931 5.39433 21 6.00351V19.5858C20.9957 20.2248 20.7404 20.8363 20.2894 21.2882C19.8384 21.74 19.2279 21.9957 18.59 22.0001H5.41021C4.77237 21.9957 4.16189 21.74 3.71086 21.2882C3.25983 20.8363 3.00451 20.2248 3.00017 19.5858V6.07893V6.06033C2.99644 5.74942 3.05389 5.44084 3.16923 5.15219C3.28457 4.86353 3.45555 4.60047 3.6724 4.37802C3.88924 4.15558 4.14769 3.97811 4.43301 3.85574C4.71832 3.73339 5.02492 3.66853 5.33526 3.66488H6.54011V3.21204C6.53381 3.14475 6.53381 3.07701 6.54011 3.00971C6.55335 2.86444 6.59504 2.7232 6.66277 2.59407C6.73051 2.46493 6.82298 2.35044 6.9349 2.2571C7.04681 2.16378 7.17599 2.09346 7.31504 2.05015C7.45409 2.00683 7.60029 1.99139 7.7453 2.00469H7.77847C7.93453 2.00686 8.08863 2.03981 8.23198 2.10167C8.37532 2.16352 8.5051 2.25308 8.61388 2.36521C8.72266 2.47732 8.80832 2.60983 8.86597 2.75514C8.92361 2.90044 8.9521 3.0557 8.94983 3.21204V3.66488H14.8995V3.21204C14.8995 2.89183 15.0265 2.58474 15.2525 2.35832C15.4784 2.13189 15.785 2.00469 16.1046 2.00469C16.2629 2.00469 16.4197 2.03592 16.5658 2.0966C16.712 2.15728 16.8449 2.24622 16.9567 2.35834C17.0686 2.47046 17.1574 2.60355 17.2179 2.75003C17.2784 2.89652 17.3096 3.0535 17.3096 3.21204V3.66488ZM19.2193 19.7673C19.2526 19.6853 19.2692 19.5974 19.2685 19.5089L19.2644 8.04079H4.65705V19.5192C4.6577 19.6078 4.67578 19.6955 4.71024 19.7769C4.74471 19.8585 4.79488 19.9325 4.8579 19.9947C4.92092 20.0568 4.99556 20.1058 5.07753 20.139C5.15949 20.1722 5.24718 20.1889 5.33559 20.1881H18.6013C18.6896 20.1874 18.777 20.1692 18.8583 20.1347C18.9396 20.1002 19.0133 20.0501 19.0753 19.9869C19.1373 19.9239 19.1862 19.8492 19.2193 19.7673ZM10.5329 10.2354C10.1409 10.039 9.66966 9.94081 9.11929 9.94081C8.56892 9.94081 8.07132 10.0579 7.6265 10.292C7.18922 10.5262 6.81226 10.8509 6.49561 11.2663L7.54734 12.1047C7.78106 11.8253 8.00347 11.6251 8.21457 11.5043C8.42567 11.3759 8.66693 11.3117 8.93835 11.3117C9.23992 11.3117 9.47741 11.4023 9.65081 11.5836C9.83176 11.7573 9.92223 11.999 9.92223 12.3086C9.92223 12.6334 9.83553 12.9506 9.66212 13.2603C9.49626 13.57 9.20222 13.9589 8.78002 14.4272C8.35782 14.8879 7.68305 15.5753 6.75571 16.4892V17.758H11.7317L11.9126 16.3872H8.78002C9.58673 15.6546 10.2012 15.0503 10.6234 14.5745C11.0456 14.0911 11.3396 13.6644 11.5055 13.2943C11.6714 12.9242 11.7543 12.5352 11.7543 12.1274C11.7543 11.7271 11.6487 11.3608 11.4376 11.0284C11.2341 10.6961 10.9325 10.4318 10.5329 10.2354ZM16.3412 10.2354C15.9492 10.039 15.478 9.94081 14.9276 9.94081C14.3772 9.94081 13.8796 10.0579 13.4348 10.292C12.9975 10.5262 12.6206 10.8509 12.3039 11.2663L13.3557 12.1047C13.5894 11.8253 13.8118 11.6251 14.0229 11.5043C14.234 11.3759 14.4752 11.3117 14.7467 11.3117C15.0482 11.3117 15.2857 11.4023 15.4591 11.5836C15.6401 11.7573 15.7305 11.999 15.7305 12.3086C15.7305 12.6334 15.6438 12.9506 15.4704 13.2603C15.3046 13.57 15.0105 13.9589 14.5883 14.4272C14.1661 14.8879 13.4914 15.5753 12.564 16.4892V17.758H17.54L17.7209 16.3872H14.5883C15.395 15.6546 16.0095 15.0503 16.4317 14.5745C16.8539 14.0911 17.1479 13.6644 17.3138 13.2943C17.4797 12.9242 17.5626 12.5352 17.5626 12.1274C17.5626 11.7271 17.4571 11.3608 17.2459 11.0284C17.0424 10.6961 16.7408 10.4318 16.3412 10.2354Z" fill="white"/>
</svg>
