<svg xmlns="http://www.w3.org/2000/svg" width="32" height="32" fill="none" viewBox="0 0 32 32">
  <rect width="28" height="26" x="2" y="4" fill="#657EE4" rx="4"/>
  <path fill="#fff" d="M11.088 10.67c.817 0 1.519.15 2.107.45.6.3 1.056.708 1.367 1.224.313.516.469 1.092.469 1.728a4.59 4.59 0 01-.45 1.98c-.288.624-.774 1.32-1.458 2.088-.684.768-1.686 1.782-3.006 3.042H15.3L15.048 23H7.508v-1.692c1.536-1.56 2.633-2.712 3.293-3.456.672-.756 1.146-1.398 1.422-1.926.289-.54.433-1.098.433-1.674 0-.552-.162-.984-.486-1.296-.313-.312-.732-.468-1.26-.468-.469 0-.883.102-1.242.306-.348.192-.714.516-1.098.972L7.165 12.65c1.02-1.32 2.328-1.98 3.923-1.98zm9.018 0c.804 0 1.494.138 2.07.414.588.276 1.026.648 1.314 1.116.3.468.45.984.45 1.548 0 .732-.21 1.344-.63 1.836-.42.48-.996.816-1.728 1.008.804.072 1.464.36 1.98.864s.774 1.2.774 2.088a3.44 3.44 0 01-.54 1.89c-.348.564-.852 1.014-1.512 1.35-.66.324-1.44.486-2.34.486-1.656 0-2.964-.582-3.924-1.746l1.278-1.224c.408.408.81.708 1.206.9.396.18.834.27 1.314.27.648 0 1.164-.18 1.548-.54.396-.372.594-.87.594-1.494 0-.696-.186-1.194-.558-1.494-.36-.3-.9-.45-1.62-.45h-.954l.27-1.638h.648c.588 0 1.056-.162 1.404-.486.36-.324.54-.774.54-1.35 0-.492-.162-.876-.486-1.152-.324-.288-.756-.432-1.296-.432-.468 0-.894.09-1.278.27-.384.168-.768.432-1.152.792l-1.17-1.278c1.092-1.032 2.358-1.548 3.798-1.548z"/>
  <path fill="#657EE4" d="M8 4a2 2 0 114 0H8zM20 4a2 2 0 114 0h-4z"/>
</svg>
