<svg width="24" height="24" viewBox="0 0 24 24" fill="none" xmlns="http://www.w3.org/2000/svg">
<rect width="24" height="24" rx="3" fill="#272B33"/>
<path fill-rule="evenodd" clip-rule="evenodd" d="M17.3096 3.66488H18.59C19.2 3.71456 19.7738 3.97494 20.2134 4.4015C20.653 4.82806 20.931 5.39433 21 6.00351V19.5858C20.9957 20.2248 20.7404 20.8363 20.2894 21.2882C19.8384 21.74 19.2279 21.9957 18.59 22.0001H5.41021C4.77237 21.9957 4.16189 21.74 3.71086 21.2882C3.25983 20.8363 3.00451 20.2248 3.00017 19.5858V6.07893V6.06033C2.99644 5.74942 3.05389 5.44084 3.16923 5.15219C3.28457 4.86353 3.45555 4.60047 3.6724 4.37802C3.88924 4.15558 4.14769 3.97811 4.43301 3.85574C4.71832 3.73339 5.02492 3.66853 5.33526 3.66488H6.54011V3.21204C6.53381 3.14475 6.53381 3.07701 6.54011 3.00971C6.55335 2.86444 6.59504 2.7232 6.66277 2.59407C6.73051 2.46493 6.82298 2.35044 6.9349 2.2571C7.04681 2.16378 7.17599 2.09346 7.31504 2.05015C7.45409 2.00683 7.60029 1.99139 7.7453 2.00469H7.77847C7.93453 2.00686 8.08863 2.03981 8.23198 2.10167C8.37532 2.16352 8.5051 2.25308 8.61388 2.36521C8.72266 2.47732 8.80832 2.60983 8.86597 2.75514C8.92361 2.90044 8.9521 3.0557 8.94983 3.21204V3.66488H14.8995V3.21204C14.8995 2.89183 15.0265 2.58474 15.2525 2.35832C15.4784 2.13189 15.785 2.00469 16.1046 2.00469C16.2629 2.00469 16.4197 2.03592 16.5658 2.0966C16.712 2.15728 16.8449 2.24622 16.9567 2.35834C17.0686 2.47046 17.1574 2.60355 17.2179 2.75003C17.2784 2.89652 17.3096 3.0535 17.3096 3.21204V3.66488ZM19.2193 19.7673C19.2526 19.6853 19.2692 19.5974 19.2685 19.5089L19.2644 8.04079H4.65705V19.5192C4.6577 19.6078 4.67578 19.6955 4.71024 19.7769C4.74471 19.8585 4.79488 19.9325 4.8579 19.9947C4.92092 20.0568 4.99556 20.1058 5.07753 20.139C5.15949 20.1722 5.24718 20.1889 5.33559 20.1881H18.6013C18.6896 20.1874 18.777 20.1692 18.8583 20.1347C18.9396 20.1002 19.0133 20.0501 19.0753 19.9869C19.1373 19.9239 19.1862 19.8492 19.2193 19.7673ZM10.5437 10.2354C10.1516 10.039 9.6804 9.94081 9.13003 9.94081C8.57966 9.94081 8.08207 10.0579 7.63725 10.292C7.19997 10.5262 6.823 10.8509 6.50635 11.2663L7.55808 12.1047C7.7918 11.8253 8.01421 11.6251 8.22531 11.5043C8.43642 11.3759 8.67767 11.3117 8.94909 11.3117C9.25066 11.3117 9.48815 11.4023 9.66156 11.5836C9.8425 11.7573 9.93297 11.999 9.93297 12.3086C9.93297 12.6334 9.84627 12.9506 9.67287 13.2603C9.507 13.57 9.21297 13.9589 8.79076 14.4272C8.36856 14.8879 7.69379 15.5753 6.76645 16.4892V17.758H11.7424L11.9234 16.3872H8.79076C9.59747 15.6546 10.2119 15.0503 10.6341 14.5745C11.0563 14.0911 11.3504 13.6644 11.5162 13.2943C11.6821 12.9242 11.765 12.5352 11.765 12.1274C11.765 11.7271 11.6595 11.3608 11.4484 11.0284C11.2448 10.6961 10.9432 10.4318 10.5437 10.2354ZM16.2628 10.2014C15.8859 10.0277 15.4297 9.94081 14.8944 9.94081C13.8992 9.94081 13.0398 10.2845 12.316 10.9718L13.1981 11.9348C13.658 11.4892 14.1556 11.2663 14.6909 11.2663C15.0075 11.2663 15.2563 11.3456 15.4373 11.5043C15.6182 11.6553 15.7087 11.8706 15.7087 12.15C15.7087 12.4673 15.6107 12.7127 15.4147 12.8864C15.2186 13.0602 14.951 13.147 14.6117 13.147H14.1707L13.9784 14.3819H14.6117C15.0264 14.3819 15.3355 14.4688 15.539 14.6425C15.7502 14.8086 15.8557 15.0881 15.8557 15.4809C15.8557 15.8283 15.7464 16.1002 15.5277 16.2966C15.3091 16.4929 15.0226 16.5911 14.6683 16.5911C14.3742 16.5911 14.1028 16.5345 13.854 16.4212C13.6128 16.3003 13.364 16.1115 13.1076 15.8547L12.1464 16.7951C12.7797 17.5654 13.6542 17.9506 14.77 17.9506C15.3807 17.9506 15.9047 17.8449 16.342 17.6334C16.7868 17.4219 17.1223 17.1387 17.3485 16.7837C17.5747 16.4212 17.6878 16.0247 17.6878 15.5941C17.6878 15.0201 17.5257 14.5783 17.2015 14.2686C16.8773 13.9514 16.4588 13.7663 15.9462 13.7135C16.4212 13.5775 16.7868 13.3547 17.0431 13.045C17.307 12.7354 17.439 12.3502 17.439 11.8895C17.439 11.5269 17.3372 11.1984 17.1336 10.9038C16.9376 10.6092 16.6473 10.3751 16.2628 10.2014Z" fill="white"/>
</svg>
