<svg xmlns="http://www.w3.org/2000/svg" width="32" height="32" fill="none" viewBox="0 0 32 32">
  <rect width="28" height="26" x="2" y="4" fill="#657EE4" rx="4"/>
  <path fill="#fff" d="M10.94 10.67c.815 0 1.517.15 2.105.45.6.3 1.056.708 1.368 1.224.312.516.468 1.092.468 1.728a4.59 4.59 0 01-.45 1.98c-.288.624-.774 1.32-1.458 2.088-.684.768-1.686 1.782-3.006 3.042h5.184L14.9 23H7.357v-1.692c1.536-1.56 2.634-2.712 3.294-3.456.672-.756 1.146-1.398 1.422-1.926.288-.54.432-1.098.432-1.674 0-.552-.162-.984-.486-1.296-.312-.312-.732-.468-1.26-.468-.468 0-.882.102-1.242.306-.348.192-.714.516-1.098.972L7.015 12.65c1.02-1.32 2.328-1.98 3.924-1.98zm13.868 7.794v1.764H23.35V23H21.1v-2.772h-5.148v-1.584l3.528-7.992 1.962.738-3.096 7.074h2.772l.234-3.042h1.998v3.042h1.458z"/>
  <path fill="#657EE4" d="M8 4a2 2 0 114 0H8zM20 4a2 2 0 114 0h-4z"/>
</svg>
