<svg xmlns="http://www.w3.org/2000/svg" width="32" height="32" fill="none" viewBox="0 0 32 32">
  <rect width="28" height="26" x="2" y="4" fill="#657EE4" rx="4"/>
  <path fill="#fff" d="M10.957 10.67c.816 0 1.518.15 2.106.45.6.3 1.056.708 1.368 1.224.312.516.468 1.092.468 1.728a4.59 4.59 0 01-.45 1.98c-.288.624-.774 1.32-1.458 2.088-.684.768-1.686 1.782-3.006 3.042h5.184L14.917 23H7.375v-1.692c1.536-1.56 2.634-2.712 3.294-3.456.672-.756 1.146-1.398 1.422-1.926.288-.54.432-1.098.432-1.674 0-.552-.162-.984-.486-1.296-.312-.312-.732-.468-1.26-.468-.468 0-.882.102-1.242.306-.348.192-.714.516-1.098.972L7.033 12.65c1.02-1.32 2.328-1.98 3.924-1.98zm12.83 1.926h-4.535v3.006c.6-.3 1.212-.45 1.836-.45.672 0 1.272.156 1.8.468.528.312.936.762 1.224 1.35.3.588.45 1.284.45 2.088 0 .828-.186 1.56-.558 2.196a3.887 3.887 0 01-1.584 1.494c-.684.348-1.476.522-2.376.522-.804 0-1.518-.144-2.142-.432a5.608 5.608 0 01-1.674-1.278l1.314-1.224c.696.768 1.512 1.152 2.448 1.152.684 0 1.218-.21 1.602-.63.396-.42.594-1.02.594-1.8 0-1.5-.648-2.25-1.944-2.25-.276 0-.534.036-.774.108a3.93 3.93 0 00-.792.306h-1.638v-6.336h7.02l-.27 1.71z"/>
  <path fill="#657EE4" d="M8 4a2 2 0 114 0H8zM20 4a2 2 0 114 0h-4z"/>
</svg>
