<svg width="24" height="24" viewBox="0 0 24 24" fill="none" xmlns="http://www.w3.org/2000/svg">
<rect width="24" height="24" rx="3" fill="#272B33"/>
<path fill-rule="evenodd" clip-rule="evenodd" d="M17.3096 3.66488H18.59C19.2 3.71456 19.7738 3.97494 20.2134 4.4015C20.653 4.82806 20.931 5.39433 21 6.00351V19.5858C20.9957 20.2248 20.7404 20.8363 20.2894 21.2882C19.8384 21.74 19.2279 21.9957 18.59 22.0001H5.41021C4.77237 21.9957 4.16189 21.74 3.71086 21.2882C3.25983 20.8363 3.00451 20.2248 3.00017 19.5858V6.07893V6.06033C2.99644 5.74942 3.05389 5.44084 3.16923 5.15219C3.28457 4.86353 3.45555 4.60047 3.6724 4.37802C3.88924 4.15558 4.14769 3.97811 4.43301 3.85574C4.71832 3.73339 5.02492 3.66853 5.33526 3.66488H6.54011V3.21204C6.53381 3.14475 6.53381 3.07701 6.54011 3.00971C6.55335 2.86444 6.59504 2.7232 6.66277 2.59407C6.73051 2.46493 6.82298 2.35044 6.9349 2.2571C7.04681 2.16378 7.17599 2.09346 7.31504 2.05015C7.45409 2.00683 7.60029 1.99139 7.7453 2.00469H7.77847C7.93453 2.00686 8.08863 2.03981 8.23198 2.10167C8.37532 2.16352 8.5051 2.25308 8.61388 2.36521C8.72266 2.47732 8.80832 2.60983 8.86597 2.75514C8.92361 2.90044 8.9521 3.0557 8.94983 3.21204V3.66488H14.8995V3.21204C14.8995 2.89183 15.0265 2.58474 15.2525 2.35832C15.4784 2.13189 15.785 2.00469 16.1046 2.00469C16.2629 2.00469 16.4197 2.03592 16.5658 2.0966C16.712 2.15728 16.8449 2.24622 16.9567 2.35834C17.0686 2.47046 17.1574 2.60355 17.2179 2.75003C17.2784 2.89652 17.3096 3.0535 17.3096 3.21204V3.66488ZM19.2193 19.7673C19.2526 19.6853 19.2692 19.5974 19.2685 19.5089L19.2644 8.04079H4.65705V19.5192C4.6577 19.6078 4.67578 19.6955 4.71024 19.7769C4.74471 19.8585 4.79488 19.9325 4.8579 19.9947C4.92092 20.0568 4.99556 20.1058 5.07753 20.139C5.15949 20.1722 5.24718 20.1889 5.33559 20.1881H18.6013C18.6896 20.1874 18.777 20.1692 18.8583 20.1347C18.9396 20.1002 19.0133 20.0501 19.0753 19.9869C19.1373 19.9239 19.1862 19.8492 19.2193 19.7673ZM10.2619 10.2354C9.86987 10.039 9.39867 9.94081 8.8483 9.94081C8.29792 9.94081 7.80033 10.0579 7.35551 10.292C6.91823 10.5262 6.54126 10.8509 6.22461 11.2663L7.27635 12.1047C7.51006 11.8253 7.73247 11.6251 7.94358 11.5043C8.15468 11.3759 8.39594 11.3117 8.66735 11.3117C8.96892 11.3117 9.20641 11.4023 9.37982 11.5836C9.56076 11.7573 9.65123 11.999 9.65123 12.3086C9.65123 12.6334 9.56453 12.9506 9.39113 13.2603C9.22526 13.57 8.93123 13.9589 8.50903 14.4272C8.08682 14.8879 7.41205 15.5753 6.48472 16.4892V17.758H11.4607L11.6416 16.3872H8.50903C9.31573 15.6546 9.93019 15.0503 10.3524 14.5745C10.7746 14.0911 11.0686 13.6644 11.2345 13.2943C11.4004 12.9242 11.4833 12.5352 11.4833 12.1274C11.4833 11.7271 11.3777 11.3608 11.1666 11.0284C10.9631 10.6961 10.6615 10.4318 10.2619 10.2354ZM16.9976 12.9091C16.6658 12.7052 16.2889 12.6032 15.8667 12.6032C15.2484 12.6032 14.7094 12.8373 14.2495 13.3056C14.3023 12.641 14.4606 12.1274 14.7245 11.7648C14.9883 11.4023 15.3351 11.221 15.7649 11.221C16.1192 11.221 16.466 11.3192 16.8053 11.5156L17.4612 10.4506C16.9561 10.1108 16.3756 9.94081 15.7197 9.94081C15.0411 9.94081 14.4493 10.1221 13.9441 10.4846C13.4465 10.8396 13.062 11.3419 12.7906 11.9914C12.5268 12.641 12.3948 13.3963 12.3948 14.2573C12.3948 15.4053 12.6323 16.3079 13.1073 16.965C13.5823 17.6221 14.3098 17.9506 15.2899 17.9506C15.8478 17.9506 16.3341 17.826 16.7488 17.5768C17.171 17.3275 17.4952 16.9914 17.7213 16.5685C17.9475 16.138 18.0606 15.6621 18.0606 15.141C18.0606 14.6123 17.9664 14.1591 17.7779 13.7815C17.5894 13.3963 17.3293 13.1055 16.9976 12.9091ZM16.025 16.2739C15.8667 16.5383 15.6292 16.6704 15.3125 16.6704C14.9356 16.6704 14.6679 16.5005 14.5096 16.1606C14.3513 15.8207 14.2646 15.2467 14.2495 14.4386C14.5888 14.0383 14.962 13.8381 15.3691 13.8381C15.6706 13.8381 15.8968 13.9401 16.0476 14.144C16.1984 14.3479 16.2738 14.6878 16.2738 15.1636C16.2738 15.6319 16.1909 16.002 16.025 16.2739Z" fill="white"/>
</svg>
