<svg width="24" height="24" viewBox="0 0 24 24" fill="none" xmlns="http://www.w3.org/2000/svg">
<rect width="24" height="24" rx="3" fill="#272B33"/>
<path fill-rule="evenodd" clip-rule="evenodd" d="M17.3096 3.66488H18.59C19.2 3.71456 19.7738 3.97494 20.2134 4.4015C20.653 4.82806 20.931 5.39433 21 6.00351V19.5858C20.9957 20.2248 20.7404 20.8363 20.2894 21.2882C19.8384 21.74 19.2279 21.9957 18.59 22.0001H5.41021C4.77237 21.9957 4.16189 21.74 3.71086 21.2882C3.25983 20.8363 3.00451 20.2248 3.00017 19.5858V6.07893V6.06033C2.99644 5.74942 3.05389 5.44084 3.16923 5.15219C3.28457 4.86353 3.45555 4.60047 3.6724 4.37802C3.88924 4.15558 4.14769 3.97811 4.43301 3.85574C4.71832 3.73339 5.02492 3.66853 5.33526 3.66488H6.54011V3.21204C6.53381 3.14475 6.53381 3.07701 6.54011 3.00971C6.55335 2.86444 6.59504 2.7232 6.66277 2.59407C6.73051 2.46493 6.82298 2.35044 6.9349 2.2571C7.04681 2.16378 7.17599 2.09346 7.31504 2.05015C7.45409 2.00683 7.60029 1.99139 7.7453 2.00469H7.77847C7.93453 2.00686 8.08863 2.03981 8.23198 2.10167C8.37532 2.16352 8.5051 2.25308 8.61388 2.36521C8.72266 2.47732 8.80832 2.60983 8.86597 2.75514C8.92361 2.90044 8.9521 3.0557 8.94983 3.21204V3.66488H14.8995V3.21204C14.8995 2.89183 15.0265 2.58474 15.2525 2.35832C15.4784 2.13189 15.785 2.00469 16.1046 2.00469C16.2629 2.00469 16.4197 2.03592 16.5658 2.0966C16.712 2.15728 16.8449 2.24622 16.9567 2.35834C17.0686 2.47046 17.1574 2.60355 17.2179 2.75003C17.2784 2.89652 17.3096 3.0535 17.3096 3.21204V3.66488ZM19.2193 19.7673C19.2526 19.6853 19.2692 19.5974 19.2685 19.5089L19.2644 8.04079H4.65705V19.5192C4.6577 19.6078 4.67578 19.6955 4.71024 19.7769C4.74471 19.8585 4.79488 19.9325 4.8579 19.9947C4.92092 20.0568 4.99556 20.1058 5.07753 20.139C5.15949 20.1722 5.24718 20.1889 5.33559 20.1881H18.6013C18.6896 20.1874 18.777 20.1692 18.8583 20.1347C18.9396 20.1002 19.0133 20.0501 19.0753 19.9869C19.1373 19.9239 19.1862 19.8492 19.2193 19.7673ZM10.1682 10.2354C9.77612 10.039 9.30492 9.94081 8.75455 9.94081C8.20417 9.94081 7.70658 10.0579 7.26176 10.292C6.82448 10.5262 6.44751 10.8509 6.13086 11.2663L7.1826 12.1047C7.41631 11.8253 7.63872 11.6251 7.84983 11.5043C8.06093 11.3759 8.30219 11.3117 8.5736 11.3117C8.87517 11.3117 9.11266 11.4023 9.28607 11.5836C9.46701 11.7573 9.55748 11.999 9.55748 12.3086C9.55748 12.6334 9.47078 12.9506 9.29738 13.2603C9.13151 13.57 8.83748 13.9589 8.41528 14.4272C7.99307 14.8879 7.3183 15.5753 6.39097 16.4892V17.758H11.3669L11.5479 16.3872H8.41528C9.22198 15.6546 9.83644 15.0503 10.2586 14.5745C10.6808 14.0911 10.9749 13.6644 11.1407 13.2943C11.3066 12.9242 11.3895 12.5352 11.3895 12.1274C11.3895 11.7271 11.284 11.3608 11.0729 11.0284C10.8693 10.6961 10.5678 10.4318 10.1682 10.2354ZM17.7294 14.5292C17.4806 14.1893 17.0998 13.8947 16.5872 13.6455C17.0018 13.4265 17.3072 13.1697 17.5032 12.8751C17.7068 12.573 17.8085 12.252 17.8085 11.9121C17.8085 11.3003 17.5597 10.8207 17.0621 10.4733C16.5721 10.1183 15.9388 9.94081 15.1622 9.94081C14.6496 9.94081 14.1897 10.0277 13.7825 10.2014C13.383 10.3751 13.0701 10.6168 12.8439 10.9265C12.6177 11.2361 12.5046 11.5949 12.5046 12.0027C12.5046 12.7731 12.8778 13.3774 13.6242 13.8154C12.6743 14.2308 12.1993 14.8653 12.1993 15.7188C12.1993 16.1342 12.3161 16.5118 12.5499 16.8517C12.7836 17.184 13.1191 17.4522 13.5564 17.6561C14.0012 17.8525 14.5214 17.9506 15.117 17.9506C15.7277 17.9506 16.2592 17.8487 16.7116 17.6448C17.1639 17.4408 17.507 17.1689 17.7407 16.829C17.9819 16.4816 18.1026 16.1002 18.1026 15.6848C18.1026 15.2467 17.9782 14.8615 17.7294 14.5292ZM14.4837 11.3796C14.6571 11.2286 14.8871 11.1531 15.1735 11.1531C15.4676 11.1531 15.69 11.2324 15.8408 11.391C15.9991 11.542 16.0783 11.746 16.0783 12.0027C16.0783 12.2595 16.0293 12.4824 15.9312 12.6712C15.8332 12.8524 15.6561 13.0262 15.3997 13.1923L15.1622 13.1017C14.838 12.9657 14.6006 12.8185 14.4498 12.6599C14.3065 12.4937 14.2349 12.2822 14.2349 12.0254C14.2349 11.746 14.3178 11.5307 14.4837 11.3796ZM16.0104 16.3985C15.8144 16.5798 15.5354 16.6704 15.1735 16.6704C14.8117 16.6704 14.5252 16.576 14.3141 16.3872C14.103 16.1984 13.9974 15.9454 13.9974 15.6281C13.9974 15.0315 14.2537 14.5896 14.7664 14.3026L15.1396 14.4386C15.5769 14.5972 15.8822 14.7671 16.0556 14.9484C16.2291 15.1221 16.3158 15.3638 16.3158 15.6734C16.3158 15.968 16.214 16.2097 16.0104 16.3985Z" fill="white"/>
</svg>
