<svg width="24" height="24" viewBox="0 0 24 24" fill="none" xmlns="http://www.w3.org/2000/svg">
<rect width="24" height="24" rx="3" fill="#272B33"/>
<path fill-rule="evenodd" clip-rule="evenodd" d="M17.3096 3.66488H18.59C19.2 3.71456 19.7738 3.97494 20.2134 4.4015C20.653 4.82806 20.931 5.39433 21 6.00351V19.5858C20.9957 20.2248 20.7404 20.8363 20.2894 21.2882C19.8384 21.74 19.2279 21.9957 18.59 22.0001H5.41021C4.77237 21.9957 4.16189 21.74 3.71086 21.2882C3.25983 20.8363 3.00451 20.2248 3.00017 19.5858V6.07893V6.06033C2.99644 5.74942 3.05389 5.44084 3.16923 5.15219C3.28457 4.86353 3.45555 4.60047 3.6724 4.37802C3.88924 4.15558 4.14769 3.97811 4.43301 3.85574C4.71832 3.73339 5.02492 3.66853 5.33526 3.66488H6.54011V3.21204C6.53381 3.14475 6.53381 3.07701 6.54011 3.00971C6.55335 2.86444 6.59504 2.7232 6.66277 2.59407C6.73051 2.46493 6.82298 2.35044 6.9349 2.2571C7.04681 2.16378 7.17599 2.09346 7.31504 2.05015C7.45409 2.00683 7.60029 1.99139 7.7453 2.00469H7.77847C7.93453 2.00686 8.08863 2.03981 8.23198 2.10167C8.37532 2.16352 8.5051 2.25308 8.61388 2.36521C8.72266 2.47732 8.80832 2.60983 8.86597 2.75514C8.92361 2.90044 8.9521 3.0557 8.94983 3.21204V3.66488H14.8995V3.21204C14.8995 2.89183 15.0265 2.58474 15.2525 2.35832C15.4784 2.13189 15.785 2.00469 16.1046 2.00469C16.2629 2.00469 16.4197 2.03592 16.5658 2.0966C16.712 2.15728 16.8449 2.24622 16.9567 2.35834C17.0686 2.47046 17.1574 2.60355 17.2179 2.75003C17.2784 2.89652 17.3096 3.0535 17.3096 3.21204V3.66488ZM19.2193 19.7673C19.2526 19.6853 19.2692 19.5974 19.2685 19.5089L19.2644 8.04079H4.65705V19.5192C4.6577 19.6078 4.67578 19.6955 4.71024 19.7769C4.74471 19.8585 4.79488 19.9325 4.8579 19.9947C4.92092 20.0568 4.99556 20.1058 5.07753 20.139C5.15949 20.1722 5.24718 20.1889 5.33559 20.1881H18.6013C18.6896 20.1874 18.777 20.1692 18.8583 20.1347C18.9396 20.1002 19.0133 20.0501 19.0753 19.9869C19.1373 19.9239 19.1862 19.8492 19.2193 19.7673ZM10.3449 10.2354C9.95288 10.039 9.48167 9.94084 8.9313 9.94084C8.38093 9.94084 7.88334 10.0579 7.43852 10.2921C7.00124 10.5262 6.62427 10.851 6.30762 11.2664L7.35935 12.1047C7.59307 11.8253 7.81548 11.6251 8.02658 11.5043C8.23768 11.3759 8.47894 11.3117 8.75036 11.3117C9.05193 11.3117 9.28942 11.4023 9.46283 11.5836C9.64377 11.7573 9.73424 11.999 9.73424 12.3087C9.73424 12.6334 9.64754 12.9507 9.47413 13.2603C9.30827 13.57 9.01424 13.959 8.59203 14.4273C8.16983 14.888 7.49506 15.5753 6.56772 16.4892V17.7581H11.5437L11.7246 16.3872H8.59203C9.39874 15.6546 10.0132 15.0504 10.4354 14.5745C10.8576 14.0912 11.1516 13.6644 11.3175 13.2943C11.4834 12.9242 11.5663 12.5353 11.5663 12.1274C11.5663 11.7271 11.4607 11.3608 11.2496 11.0285C11.0461 10.6961 10.7445 10.4318 10.3449 10.2354ZM17.185 10.7566C16.695 10.2127 15.99 9.94084 15.0702 9.94084C14.5425 9.94084 14.06 10.0504 13.6227 10.2694C13.1929 10.4884 12.8537 10.7981 12.6049 11.1984C12.3561 11.5987 12.2317 12.0594 12.2317 12.5806C12.2317 13.0866 12.3297 13.5322 12.5257 13.9174C12.7217 14.3026 12.9856 14.5972 13.3173 14.8011C13.6491 15.0051 14.0147 15.107 14.4143 15.107C15.0702 15.107 15.598 14.8615 15.9976 14.3706C15.8468 15.0353 15.5226 15.5526 15.025 15.9227C14.5274 16.2853 13.7848 16.5874 12.7971 16.8291L13.159 18.0753C14.2748 17.8487 15.1795 17.5315 15.8732 17.1236C16.5668 16.7082 17.0795 16.1606 17.4112 15.4809C17.7505 14.8011 17.9201 13.9439 17.9201 12.9091C17.9201 12.0103 17.6751 11.2928 17.185 10.7566ZM15.5791 13.6795C15.3907 13.7928 15.1871 13.8495 14.9684 13.8495C14.682 13.8495 14.452 13.7475 14.2786 13.5436C14.1127 13.3321 14.0298 12.9922 14.0298 12.5239C14.0298 12.101 14.1203 11.78 14.3012 11.5609C14.4897 11.3344 14.746 11.2211 15.0702 11.2211C15.4472 11.2211 15.7148 11.3683 15.8732 11.6629C16.0315 11.9575 16.1069 12.4597 16.0993 13.1697C15.9486 13.3887 15.7752 13.5587 15.5791 13.6795Z" fill="white"/>
</svg>
