<svg width="24" height="24" viewBox="0 0 24 24" fill="none" xmlns="http://www.w3.org/2000/svg">
<rect width="24" height="24" rx="3" fill="#272B33"/>
<path fill-rule="evenodd" clip-rule="evenodd" d="M17.3096 3.66488H18.59C19.2 3.71456 19.7738 3.97494 20.2134 4.4015C20.653 4.82806 20.931 5.39433 21 6.00351V19.5858C20.9957 20.2248 20.7404 20.8363 20.2894 21.2882C19.8384 21.74 19.2279 21.9957 18.59 22.0001H5.41021C4.77237 21.9957 4.16189 21.74 3.71086 21.2882C3.25983 20.8363 3.00451 20.2248 3.00017 19.5858V6.07893V6.06033C2.99644 5.74942 3.05389 5.44084 3.16923 5.15219C3.28457 4.86353 3.45555 4.60047 3.6724 4.37802C3.88924 4.15558 4.14769 3.97811 4.43301 3.85574C4.71832 3.73339 5.02492 3.66853 5.33526 3.66488H6.54011V3.21204C6.53381 3.14475 6.53381 3.07701 6.54011 3.00971C6.55335 2.86444 6.59504 2.7232 6.66277 2.59407C6.73051 2.46493 6.82298 2.35044 6.9349 2.2571C7.04681 2.16378 7.17599 2.09346 7.31504 2.05015C7.45409 2.00683 7.60029 1.99139 7.7453 2.00469H7.77847C7.93453 2.00686 8.08863 2.03981 8.23198 2.10167C8.37532 2.16352 8.5051 2.25308 8.61388 2.36521C8.72266 2.47732 8.80832 2.60983 8.86597 2.75514C8.92361 2.90044 8.9521 3.0557 8.94983 3.21204V3.66488H14.8995V3.21204C14.8995 2.89183 15.0265 2.58474 15.2525 2.35832C15.4784 2.13189 15.785 2.00469 16.1046 2.00469C16.2629 2.00469 16.4197 2.03592 16.5658 2.0966C16.712 2.15728 16.8449 2.24622 16.9567 2.35834C17.0686 2.47046 17.1574 2.60355 17.2179 2.75003C17.2784 2.89652 17.3096 3.0535 17.3096 3.21204V3.66488ZM19.2193 19.7673C19.2526 19.6853 19.2692 19.5974 19.2685 19.5089L19.2644 8.04079H4.65705V19.5192C4.6577 19.6078 4.67578 19.6955 4.71024 19.7769C4.74471 19.8585 4.79488 19.9325 4.8579 19.9947C4.92092 20.0568 4.99556 20.1058 5.07753 20.139C5.15949 20.1722 5.24718 20.1889 5.33559 20.1881H18.6013C18.6896 20.1874 18.777 20.1692 18.8583 20.1347C18.9396 20.1002 19.0133 20.0501 19.0753 19.9869C19.1373 19.9239 19.1862 19.8492 19.2193 19.7673ZM13.3865 10.2014C13.0095 10.0277 12.5534 9.94081 12.0181 9.94081C11.0229 9.94081 10.1634 10.2845 9.43965 10.9718L10.3218 11.9348C10.7817 11.4892 11.2793 11.2663 11.8145 11.2663C12.1312 11.2663 12.38 11.3456 12.5609 11.5043C12.7419 11.6553 12.8324 11.8706 12.8324 12.15C12.8324 12.4673 12.7343 12.7127 12.5383 12.8864C12.3423 13.0602 12.0746 13.147 11.7354 13.147H11.2943L11.1021 14.3819H11.7354C12.15 14.3819 12.4592 14.4688 12.6627 14.6425C12.8738 14.8086 12.9794 15.0881 12.9794 15.4809C12.9794 15.8283 12.87 16.1002 12.6514 16.2966C12.4328 16.4929 12.1463 16.5911 11.7919 16.5911C11.4979 16.5911 11.2265 16.5345 10.9777 16.4212C10.7364 16.3003 10.4876 16.1115 10.2313 15.8547L9.27002 16.7951C9.90332 17.5654 10.7779 17.9506 11.8937 17.9506C12.5044 17.9506 13.0284 17.8449 13.4657 17.6334C13.9105 17.4219 14.246 17.1387 14.4722 16.7837C14.6983 16.4212 14.8114 16.0247 14.8114 15.5941C14.8114 15.0201 14.6493 14.5783 14.3251 14.2686C14.0009 13.9514 13.5825 13.7663 13.0698 13.7135C13.5448 13.5775 13.9105 13.3547 14.1668 13.045C14.4307 12.7354 14.5626 12.3502 14.5626 11.8895C14.5626 11.5269 14.4608 11.1984 14.2573 10.9038C14.0613 10.6092 13.771 10.3751 13.3865 10.2014Z" fill="white"/>
</svg>
