<svg width="24" height="24" viewBox="0 0 24 24" fill="none" xmlns="http://www.w3.org/2000/svg">
<rect width="24" height="24" rx="3" fill="#272B33"/>
<path fill-rule="evenodd" clip-rule="evenodd" d="M17.3096 3.66488H18.59C19.2 3.71456 19.7738 3.97494 20.2134 4.4015C20.653 4.82806 20.931 5.39433 21 6.00351V19.5858C20.9957 20.2248 20.7404 20.8363 20.2894 21.2882C19.8384 21.74 19.2279 21.9957 18.59 22.0001H5.41021C4.77237 21.9957 4.16189 21.74 3.71086 21.2882C3.25983 20.8363 3.00451 20.2248 3.00017 19.5858V6.07893V6.06033C2.99644 5.74942 3.05389 5.44084 3.16923 5.15219C3.28457 4.86353 3.45555 4.60047 3.6724 4.37802C3.88924 4.15558 4.14769 3.97811 4.43301 3.85574C4.71832 3.73339 5.02492 3.66853 5.33526 3.66488H6.54011V3.21204C6.53381 3.14475 6.53381 3.07701 6.54011 3.00971C6.55335 2.86444 6.59504 2.7232 6.66277 2.59407C6.73051 2.46493 6.82298 2.35044 6.9349 2.2571C7.04681 2.16378 7.17599 2.09346 7.31504 2.05015C7.45409 2.00683 7.60029 1.99139 7.7453 2.00469H7.77847C7.93453 2.00686 8.08863 2.03981 8.23198 2.10167C8.37532 2.16352 8.5051 2.25308 8.61388 2.36521C8.72266 2.47732 8.80832 2.60983 8.86597 2.75514C8.92361 2.90044 8.9521 3.0557 8.94983 3.21204V3.66488H14.8995V3.21204C14.8995 2.89183 15.0265 2.58474 15.2525 2.35832C15.4784 2.13189 15.785 2.00469 16.1046 2.00469C16.2629 2.00469 16.4197 2.03592 16.5658 2.0966C16.712 2.15728 16.8449 2.24622 16.9567 2.35834C17.0686 2.47046 17.1574 2.60355 17.2179 2.75003C17.2784 2.89652 17.3096 3.0535 17.3096 3.21204V3.66488ZM19.2193 19.7673C19.2526 19.6853 19.2692 19.5974 19.2685 19.5089L19.2644 8.04079H4.65705V19.5192C4.6577 19.6078 4.67578 19.6955 4.71024 19.7769C4.74471 19.8585 4.79488 19.9325 4.8579 19.9947C4.92092 20.0568 4.99556 20.1058 5.07753 20.139C5.15949 20.1722 5.24718 20.1889 5.33559 20.1881H18.6013C18.6896 20.1874 18.777 20.1692 18.8583 20.1347C18.9396 20.1002 19.0133 20.0501 19.0753 19.9869C19.1373 19.9239 19.1862 19.8492 19.2193 19.7673ZM10.096 10.2014C9.719 10.0277 9.26287 9.94084 8.72758 9.94084C7.73239 9.94084 6.8729 10.2845 6.14913 10.9718L7.03123 11.9348C7.49113 11.4892 7.98872 11.2664 8.52402 11.2664C8.84067 11.2664 9.08946 11.3457 9.27041 11.5043C9.45135 11.6553 9.54182 11.8706 9.54182 12.1501C9.54182 12.4673 9.44381 12.7128 9.24779 12.8865C9.05177 13.0602 8.78412 13.147 8.44485 13.147H8.0038L7.81155 14.3819H8.44485C8.85952 14.3819 9.16863 14.4688 9.37219 14.6425C9.58329 14.8087 9.68884 15.0881 9.68884 15.4809C9.68884 15.8283 9.57952 16.1002 9.36088 16.2966C9.14224 16.493 8.85575 16.5912 8.5014 16.5912C8.20736 16.5912 7.93595 16.5345 7.68715 16.4212C7.44589 16.3004 7.19709 16.1115 6.94076 15.8548L5.97949 16.7951C6.6128 17.5655 7.48736 17.9507 8.60318 17.9507C9.21386 17.9507 9.73785 17.8449 10.1751 17.6335C10.6199 17.422 10.9554 17.1387 11.1816 16.7838C11.4078 16.4212 11.5209 16.0247 11.5209 15.5942C11.5209 15.0202 11.3588 14.5783 11.0346 14.2686C10.7104 13.9514 10.292 13.7664 9.77931 13.7135C10.2543 13.5776 10.6199 13.3547 10.8763 13.0451C11.1402 12.7354 11.2721 12.3502 11.2721 11.8895C11.2721 11.5269 11.1703 11.1984 10.9668 10.9038C10.7707 10.6093 10.4805 10.3751 10.096 10.2014ZM17.3171 10.9718C16.8271 10.2845 16.1146 9.94084 15.1797 9.94084C14.2448 9.94084 13.5286 10.2845 13.031 10.9718C12.5409 11.6591 12.2959 12.6486 12.2959 13.9401C12.2959 15.2241 12.5409 16.2135 13.031 16.9084C13.5286 17.6032 14.2448 17.9507 15.1797 17.9507C16.1146 17.9507 16.8271 17.6032 17.3171 16.9084C17.8147 16.2135 18.0635 15.2241 18.0635 13.9401C18.0635 12.6486 17.8147 11.6591 17.3171 10.9718ZM14.569 11.5156C14.7198 11.3495 14.9234 11.2664 15.1797 11.2664C15.436 11.2664 15.6396 11.3457 15.7904 11.5043C15.9412 11.6629 16.0505 11.9386 16.1184 12.3313C16.1937 12.7165 16.2314 13.2528 16.2314 13.9401C16.2314 14.6274 16.1937 15.1674 16.1184 15.5602C16.0505 15.9454 15.9412 16.2211 15.7904 16.3872C15.6396 16.5458 15.436 16.6251 15.1797 16.6251C14.9234 16.6251 14.7198 16.5421 14.569 16.3759C14.4182 16.2097 14.3051 15.9341 14.2298 15.5489C14.1619 15.1561 14.128 14.6199 14.128 13.9401C14.128 13.2603 14.1619 12.7279 14.2298 12.3427C14.3051 11.9575 14.4182 11.6818 14.569 11.5156Z" fill="white"/>
</svg>
