<svg xmlns="http://www.w3.org/2000/svg" width="32" height="32" fill="none" viewBox="0 0 32 32">
  <rect width="28" height="26" x="2" y="4" fill="#657EE4" rx="4"/>
  <path fill="#fff" d="M10.429 10.67c.804 0 1.494.138 2.07.414.588.276 1.026.648 1.314 1.116.3.468.45.984.45 1.548 0 .732-.21 1.344-.63 1.836-.42.48-.996.816-1.728 1.008.804.072 1.464.36 1.98.864s.774 1.2.774 2.088a3.44 3.44 0 01-.54 1.89c-.348.564-.852 1.014-1.512 1.35-.66.324-1.44.486-2.34.486-1.656 0-2.964-.582-3.924-1.746L7.62 20.3c.408.408.81.708 1.206.9.396.18.834.27 1.314.27.648 0 1.164-.18 1.548-.54.396-.372.594-.87.594-1.494 0-.696-.186-1.194-.558-1.494-.36-.3-.9-.45-1.62-.45H9.15l.27-1.638h.648c.588 0 1.056-.162 1.404-.486.36-.324.54-.774.54-1.35 0-.492-.162-.876-.486-1.152-.324-.288-.756-.432-1.296-.432-.468 0-.894.09-1.278.27-.384.168-.768.432-1.152.792l-1.17-1.278c1.092-1.032 2.358-1.548 3.798-1.548zm10.148 0c1.416 0 2.49.54 3.222 1.62.744 1.08 1.116 2.634 1.116 4.662 0 2.04-.372 3.606-1.116 4.698-.732 1.08-1.806 1.62-3.222 1.62s-2.496-.54-3.24-1.62c-.732-1.092-1.098-2.658-1.098-4.698 0-2.028.366-3.582 1.098-4.662.744-1.08 1.824-1.62 3.24-1.62zm0 1.746c-.684 0-1.182.348-1.494 1.044-.312.684-.468 1.848-.468 3.492 0 1.656.156 2.832.468 3.528.312.696.81 1.044 1.494 1.044.684 0 1.182-.342 1.494-1.026.312-.696.468-1.878.468-3.546 0-1.656-.156-2.826-.468-3.51-.312-.684-.81-1.026-1.494-1.026z"/>
  <path fill="#657EE4" d="M8 4a2 2 0 114 0H8zM20 4a2 2 0 114 0h-4z"/>
</svg>
