<svg width="24" height="24" viewBox="0 0 24 24" fill="none" xmlns="http://www.w3.org/2000/svg">
<rect width="24" height="24" rx="3" fill="#272B33"/>
<path fill-rule="evenodd" clip-rule="evenodd" d="M17.3096 3.66488H18.59C19.2 3.71456 19.7738 3.97494 20.2134 4.4015C20.653 4.82806 20.931 5.39433 21 6.00351V19.5858C20.9957 20.2248 20.7404 20.8363 20.2894 21.2882C19.8384 21.74 19.2279 21.9957 18.59 22.0001H5.41021C4.77237 21.9957 4.16189 21.74 3.71086 21.2882C3.25983 20.8363 3.00451 20.2248 3.00017 19.5858V6.07893V6.06033C2.99644 5.74942 3.05389 5.44084 3.16923 5.15219C3.28457 4.86353 3.45555 4.60047 3.6724 4.37802C3.88924 4.15558 4.14769 3.97811 4.43301 3.85574C4.71832 3.73339 5.02492 3.66853 5.33526 3.66488H6.54011V3.21204C6.53381 3.14475 6.53381 3.07701 6.54011 3.00971C6.55335 2.86444 6.59504 2.7232 6.66277 2.59407C6.73051 2.46493 6.82298 2.35044 6.9349 2.2571C7.04681 2.16378 7.17599 2.09346 7.31504 2.05015C7.45409 2.00683 7.60029 1.99139 7.7453 2.00469H7.77847C7.93453 2.00686 8.08863 2.03981 8.23198 2.10167C8.37532 2.16352 8.5051 2.25308 8.61388 2.36521C8.72266 2.47732 8.80832 2.60983 8.86597 2.75514C8.92361 2.90044 8.9521 3.0557 8.94983 3.21204V3.66488H14.8995V3.21204C14.8995 2.89183 15.0265 2.58474 15.2525 2.35832C15.4784 2.13189 15.785 2.00469 16.1046 2.00469C16.2629 2.00469 16.4197 2.03592 16.5658 2.0966C16.712 2.15728 16.8449 2.24622 16.9567 2.35834C17.0686 2.47046 17.1574 2.60355 17.2179 2.75003C17.2784 2.89652 17.3096 3.0535 17.3096 3.21204V3.66488ZM19.2193 19.7673C19.2526 19.6853 19.2692 19.5974 19.2685 19.5089L19.2644 8.04079H4.65705V19.5192C4.6577 19.6078 4.67578 19.6955 4.71024 19.7769C4.74471 19.8585 4.79488 19.9325 4.8579 19.9947C4.92092 20.0568 4.99556 20.1058 5.07753 20.139C5.15949 20.1722 5.24718 20.1889 5.33559 20.1881H18.6013C18.6896 20.1874 18.777 20.1692 18.8583 20.1347C18.9396 20.1002 19.0133 20.0501 19.0753 19.9869C19.1373 19.9239 19.1862 19.8492 19.2193 19.7673ZM10.9075 10.2014C10.5305 10.0277 10.0744 9.94084 9.5391 9.94084C8.54391 9.94084 7.68443 10.2845 6.96065 10.9718L7.84275 11.9348C8.30265 11.4892 8.80025 11.2664 9.33554 11.2664C9.65219 11.2664 9.90099 11.3457 10.0819 11.5043C10.2629 11.6553 10.3533 11.8706 10.3533 12.1501C10.3533 12.4673 10.2553 12.7128 10.0593 12.8865C9.86329 13.0602 9.59565 13.147 9.25638 13.147H8.81533L8.62307 14.3819H9.25638C9.67104 14.3819 9.98015 14.4688 10.1837 14.6425C10.3948 14.8087 10.5004 15.0881 10.5004 15.4809C10.5004 15.8283 10.391 16.1002 10.1724 16.2966C9.95376 16.493 9.66727 16.5912 9.31292 16.5912C9.01889 16.5912 8.74747 16.5345 8.49867 16.4212C8.25741 16.3004 8.00862 16.1115 7.75228 15.8548L6.79102 16.7951C7.42432 17.5655 8.29888 17.9507 9.4147 17.9507C10.0254 17.9507 10.5494 17.8449 10.9867 17.6335C11.4315 17.422 11.767 17.1387 11.9932 16.7838C12.2193 16.4212 12.3324 16.0247 12.3324 15.5942C12.3324 15.0202 12.1703 14.5783 11.8461 14.2686C11.5219 13.9514 11.1035 13.7664 10.5908 13.7135C11.0658 13.5776 11.4315 13.3547 11.6878 13.0451C11.9517 12.7354 12.0836 12.3502 12.0836 11.8895C12.0836 11.5269 11.9818 11.1984 11.7783 10.9038C11.5823 10.6093 11.292 10.3751 10.9075 10.2014ZM16.7437 17.7581V10.0995H15.1492L12.5707 11.6629L13.351 12.8525L14.9908 11.8442V17.7581H16.7437Z" fill="white"/>
</svg>
