<svg xmlns="http://www.w3.org/2000/svg" width="32" height="32" fill="none" viewBox="0 0 32 32">
  <rect width="28" height="26" x="2" y="4" fill="#657EE4" rx="4"/>
  <path fill="#fff" d="M16.956 14.936c.636 0 1.212.156 1.728.468.528.3.942.75 1.242 1.35.3.588.45 1.296.45 2.124 0 .84-.174 1.596-.522 2.268a3.945 3.945 0 01-1.476 1.566c-.624.372-1.338.558-2.142.558-1.488 0-2.592-.522-3.312-1.566-.708-1.044-1.062-2.478-1.062-4.302 0-1.344.198-2.52.594-3.528.408-1.02.984-1.806 1.728-2.358.756-.564 1.638-.846 2.646-.846.996 0 1.878.258 2.646.774l-.864 1.422a3.397 3.397 0 00-1.746-.486c-.768 0-1.386.348-1.854 1.044-.456.684-.714 1.632-.774 2.844.732-.888 1.638-1.332 2.718-1.332zm-.72 6.624c.6 0 1.05-.234 1.35-.702.312-.48.468-1.128.468-1.944 0-.828-.144-1.416-.432-1.764-.276-.36-.684-.54-1.224-.54-.408 0-.798.114-1.17.342-.36.216-.684.516-.972.9.024 1.308.186 2.256.486 2.844.312.576.81.864 1.494.864z"/>
  <path fill="#657EE4" d="M8 4a2 2 0 114 0H8zM20 4a2 2 0 114 0h-4z"/>
</svg>
