<svg width="24" height="24" viewBox="0 0 24 24" fill="none" xmlns="http://www.w3.org/2000/svg">
<rect width="24" height="24" rx="3" fill="#272B33"/>
<path fill-rule="evenodd" clip-rule="evenodd" d="M16.9186 3.61649H18.164C18.7574 3.66472 19.3155 3.91753 19.7431 4.33169C20.1707 4.74585 20.4411 5.29566 20.5082 5.88714V19.0746C20.504 19.695 20.2557 20.2888 19.817 20.7275C19.3783 21.1662 18.7845 21.4145 18.164 21.4187H5.34436C4.72395 21.4145 4.13015 21.1662 3.69144 20.7275C3.25273 20.2888 3.00439 19.695 3.00017 19.0746V5.96036V5.9423C2.99654 5.64043 3.05242 5.34082 3.16461 5.06056C3.2768 4.78029 3.44311 4.52488 3.65403 4.3089C3.86495 4.09292 4.11634 3.92061 4.39386 3.8018C4.67138 3.683 4.9696 3.62003 5.27146 3.61649H6.44339V3.17681C6.43726 3.11147 6.43726 3.0457 6.44339 2.98036C6.45627 2.83931 6.49682 2.70218 6.5627 2.5768C6.62859 2.45142 6.71853 2.34025 6.82739 2.24963C6.93625 2.15902 7.0619 2.09074 7.19715 2.04869C7.3324 2.00663 7.4746 1.99164 7.61565 2.00455H7.64791C7.79971 2.00666 7.9496 2.03865 8.08903 2.09871C8.22846 2.15877 8.35469 2.24572 8.4605 2.35459C8.56631 2.46345 8.64963 2.5921 8.7057 2.73319C8.76177 2.87427 8.78948 3.02501 8.78727 3.17681V3.61649H14.5744V3.17681C14.5744 2.86591 14.6979 2.56774 14.9177 2.3479C15.1375 2.12806 15.4357 2.00455 15.7466 2.00455C15.9005 2.00455 16.053 2.03488 16.1952 2.09379C16.3374 2.15271 16.4666 2.23906 16.5754 2.34792C16.6842 2.45678 16.7706 2.58601 16.8294 2.72823C16.8883 2.87046 16.9186 3.02288 16.9186 3.17681V3.61649ZM18.7762 19.2508C18.8085 19.1712 18.8247 19.0859 18.824 19L18.82 7.8652H4.61178V19.01C4.61241 19.096 4.63 19.1811 4.66352 19.2602C4.69704 19.3394 4.74584 19.4112 4.80714 19.4716C4.86844 19.5319 4.94104 19.5795 5.02077 19.6117C5.10049 19.644 5.18579 19.6602 5.27178 19.6594H18.175C18.2609 19.6587 18.3459 19.6411 18.425 19.6076C18.5041 19.5741 18.5758 19.5254 18.6361 19.4641C18.6964 19.4029 18.744 19.3304 18.7762 19.2508ZM13.7905 12.592C13.4678 12.394 13.1011 12.295 12.6905 12.295C12.0891 12.295 11.5648 12.5223 11.1175 12.977C11.1688 12.3317 11.3228 11.833 11.5795 11.481C11.8361 11.129 12.1735 10.953 12.5915 10.953C12.9361 10.953 13.2735 11.0483 13.6035 11.239L14.2415 10.205C13.7501 9.87499 13.1855 9.70999 12.5475 9.70999C11.8875 9.70999 11.3118 9.88599 10.8205 10.238C10.3365 10.5827 9.96248 11.0703 9.69848 11.701C9.44181 12.3317 9.31348 13.065 9.31348 13.901C9.31348 15.0157 9.54448 15.892 10.0065 16.53C10.4685 17.168 11.1761 17.487 12.1295 17.487C12.6721 17.487 13.1451 17.366 13.5485 17.124C13.9591 16.882 14.2745 16.5557 14.4945 16.145C14.7145 15.727 14.8245 15.265 14.8245 14.759C14.8245 14.2457 14.7328 13.8057 14.5495 13.439C14.3661 13.065 14.1131 12.7827 13.7905 12.592ZM12.8445 15.859C12.6905 16.1157 12.4595 16.244 12.1515 16.244C11.7848 16.244 11.5245 16.079 11.3705 15.749C11.2165 15.419 11.1321 14.8617 11.1175 14.077C11.4475 13.6883 11.8105 13.494 12.2065 13.494C12.4998 13.494 12.7198 13.593 12.8665 13.791C13.0131 13.989 13.0865 14.319 13.0865 14.781C13.0865 15.2357 13.0058 15.595 12.8445 15.859Z" fill="white"/>
</svg>
