<svg width="24" height="24" viewBox="0 0 24 24" fill="none" xmlns="http://www.w3.org/2000/svg">
<rect width="24" height="24" rx="3" fill="#272B33"/>
<path fill-rule="evenodd" clip-rule="evenodd" d="M17.3096 3.66488H18.59C19.2 3.71456 19.7738 3.97494 20.2134 4.4015C20.653 4.82806 20.931 5.39433 21 6.00351V19.5858C20.9957 20.2248 20.7404 20.8363 20.2894 21.2882C19.8384 21.74 19.2279 21.9957 18.59 22.0001H5.41021C4.77237 21.9957 4.16189 21.74 3.71086 21.2882C3.25983 20.8363 3.00451 20.2248 3.00017 19.5858V6.07893V6.06033C2.99644 5.74942 3.05389 5.44084 3.16923 5.15219C3.28457 4.86353 3.45555 4.60047 3.6724 4.37802C3.88924 4.15558 4.14769 3.97811 4.43301 3.85574C4.71832 3.73339 5.02492 3.66853 5.33526 3.66488H6.54011V3.21204C6.53381 3.14475 6.53381 3.07701 6.54011 3.00971C6.55335 2.86444 6.59504 2.7232 6.66277 2.59407C6.73051 2.46493 6.82298 2.35044 6.9349 2.2571C7.04681 2.16378 7.17599 2.09346 7.31504 2.05015C7.45409 2.00683 7.60029 1.99139 7.7453 2.00469H7.77847C7.93453 2.00686 8.08863 2.03981 8.23198 2.10167C8.37532 2.16352 8.5051 2.25308 8.61388 2.36521C8.72266 2.47732 8.80832 2.60983 8.86597 2.75514C8.92361 2.90044 8.9521 3.0557 8.94983 3.21204V3.66488H14.8995V3.21204C14.8995 2.89183 15.0265 2.58474 15.2525 2.35832C15.4784 2.13189 15.785 2.00469 16.1046 2.00469C16.2629 2.00469 16.4197 2.03592 16.5658 2.0966C16.712 2.15728 16.8449 2.24622 16.9567 2.35834C17.0686 2.47046 17.1574 2.60355 17.2179 2.75003C17.2784 2.89652 17.3096 3.0535 17.3096 3.21204V3.66488ZM19.2193 19.7673C19.2526 19.6853 19.2692 19.5974 19.2685 19.5089L19.2644 8.04079H4.65705V19.5192C4.6577 19.6078 4.67578 19.6955 4.71024 19.7769C4.74471 19.8585 4.79488 19.9325 4.8579 19.9947C4.92092 20.0568 4.99556 20.1058 5.07753 20.139C5.15949 20.1722 5.24718 20.1889 5.33559 20.1881H18.6013C18.6896 20.1874 18.777 20.1692 18.8583 20.1347C18.9396 20.1002 19.0133 20.0501 19.0753 19.9869C19.1373 19.9239 19.1862 19.8492 19.2193 19.7673ZM14.825 14.5292C14.5762 14.1893 14.1955 13.8947 13.6828 13.6455C14.0975 13.4265 14.4028 13.1697 14.5988 12.8751C14.8024 12.573 14.9042 12.252 14.9042 11.9121C14.9042 11.3003 14.6554 10.8207 14.1578 10.4733C13.6677 10.1183 13.0344 9.94081 12.2579 9.94081C11.7452 9.94081 11.2853 10.0277 10.8782 10.2014C10.4786 10.3751 10.1657 10.6168 9.93953 10.9265C9.71335 11.2361 9.60026 11.5949 9.60026 12.0027C9.60026 12.7731 9.97346 13.3774 10.7199 13.8154C9.7699 14.2308 9.29492 14.8653 9.29492 15.7188C9.29492 16.1342 9.41178 16.5118 9.6455 16.8517C9.87922 17.184 10.2147 17.4522 10.652 17.6561C11.0968 17.8525 11.617 17.9506 12.2126 17.9506C12.8233 17.9506 13.3548 17.8487 13.8072 17.6448C14.2596 17.4408 14.6026 17.1689 14.8363 16.829C15.0776 16.4816 15.1982 16.1002 15.1982 15.6848C15.1982 15.2467 15.0738 14.8615 14.825 14.5292ZM11.5793 11.3796C11.7527 11.2286 11.9827 11.1531 12.2692 11.1531C12.5632 11.1531 12.7856 11.2324 12.9364 11.391C13.0947 11.542 13.1739 11.746 13.1739 12.0027C13.1739 12.2595 13.1249 12.4824 13.0269 12.6712C12.9289 12.8524 12.7517 13.0262 12.4954 13.1923L12.2579 13.1017C11.9337 12.9657 11.6962 12.8185 11.5454 12.6599C11.4022 12.4937 11.3305 12.2822 11.3305 12.0254C11.3305 11.746 11.4135 11.5307 11.5793 11.3796ZM13.1061 16.3985C12.91 16.5798 12.6311 16.6704 12.2692 16.6704C11.9073 16.6704 11.6208 16.576 11.4097 16.3872C11.1986 16.1984 11.0931 15.9454 11.0931 15.6281C11.0931 15.0315 11.3494 14.5896 11.8621 14.3026L12.2353 14.4386C12.6725 14.5972 12.9779 14.7671 13.1513 14.9484C13.3247 15.1221 13.4114 15.3638 13.4114 15.6734C13.4114 15.968 13.3096 16.2097 13.1061 16.3985Z" fill="white"/>
</svg>
