<svg xmlns="http://www.w3.org/2000/svg" width="32" height="32" fill="none" viewBox="0 0 32 32">
  <rect width="28" height="26" x="2" y="4" fill="#657EE4" rx="4"/>
  <path fill="#fff" d="M15.947 10.67c1.367 0 2.418.426 3.15 1.278.731.84 1.098 1.98 1.098 3.42 0 1.644-.247 2.994-.739 4.05-.491 1.044-1.247 1.878-2.267 2.502-1.02.624-2.37 1.134-4.05 1.53l-.486-1.638c1.583-.42 2.784-.96 3.6-1.62.828-.672 1.32-1.584 1.476-2.736-.66.84-1.524 1.26-2.592 1.26-.625 0-1.2-.156-1.729-.468-.515-.324-.923-.786-1.223-1.386-.3-.6-.45-1.296-.45-2.088 0-.828.186-1.548.558-2.16a3.794 3.794 0 011.512-1.44 4.583 4.583 0 012.142-.504zm-.18 6.372c.816 0 1.506-.414 2.07-1.242.012-1.236-.133-2.112-.433-2.628-.288-.528-.773-.792-1.457-.792-.6 0-1.068.204-1.404.612-.336.408-.504.99-.504 1.746 0 .792.155 1.374.468 1.746.324.372.744.558 1.26.558z"/>
  <path fill="#657EE4" d="M8 4a2 2 0 114 0H8zM20 4a2 2 0 114 0h-4z"/>
</svg>
