<svg width="24" height="24" viewBox="0 0 24 24" fill="none" xmlns="http://www.w3.org/2000/svg">
<rect width="24" height="24" rx="3" fill="#272B33"/>
<path fill-rule="evenodd" clip-rule="evenodd" d="M17.3096 3.66488H18.59C19.2 3.71456 19.7738 3.97494 20.2134 4.4015C20.653 4.82806 20.931 5.39433 21 6.00351V19.5858C20.9957 20.2248 20.7404 20.8363 20.2894 21.2882C19.8384 21.74 19.2279 21.9957 18.59 22.0001H5.41021C4.77237 21.9957 4.16189 21.74 3.71086 21.2882C3.25983 20.8363 3.00451 20.2248 3.00017 19.5858V6.07893V6.06033C2.99644 5.74942 3.05389 5.44084 3.16923 5.15219C3.28457 4.86353 3.45555 4.60047 3.6724 4.37802C3.88924 4.15558 4.14769 3.97811 4.43301 3.85574C4.71832 3.73339 5.02492 3.66853 5.33526 3.66488H6.54011V3.21204C6.53381 3.14475 6.53381 3.07701 6.54011 3.00971C6.55335 2.86444 6.59504 2.7232 6.66277 2.59407C6.73051 2.46493 6.82298 2.35044 6.9349 2.2571C7.04681 2.16378 7.17599 2.09346 7.31504 2.05015C7.45409 2.00683 7.60029 1.99139 7.7453 2.00469H7.77847C7.93453 2.00686 8.08863 2.03981 8.23198 2.10167C8.37532 2.16352 8.5051 2.25308 8.61388 2.36521C8.72266 2.47732 8.80832 2.60983 8.86597 2.75514C8.92361 2.90044 8.9521 3.0557 8.94983 3.21204V3.66488H14.8995V3.21204C14.8995 2.89183 15.0265 2.58474 15.2525 2.35832C15.4784 2.13189 15.785 2.00469 16.1046 2.00469C16.2629 2.00469 16.4197 2.03592 16.5658 2.0966C16.712 2.15728 16.8449 2.24622 16.9567 2.35834C17.0686 2.47046 17.1574 2.60355 17.2179 2.75003C17.2784 2.89652 17.3096 3.0535 17.3096 3.21204V3.66488ZM19.2193 19.7673C19.2526 19.6853 19.2692 19.5974 19.2685 19.5089L19.2644 8.04079H4.65705V19.5192C4.6577 19.6078 4.67578 19.6955 4.71024 19.7769C4.74471 19.8585 4.79488 19.9325 4.8579 19.9947C4.92092 20.0568 4.99556 20.1058 5.07753 20.139C5.15949 20.1722 5.24718 20.1889 5.33559 20.1881H18.6013C18.6896 20.1874 18.777 20.1692 18.8583 20.1347C18.9396 20.1002 19.0133 20.0501 19.0753 19.9869C19.1373 19.9239 19.1862 19.8492 19.2193 19.7673ZM14.3362 10.7565C13.8461 10.2127 13.1412 9.94081 12.2214 9.94081C11.6936 9.94081 11.2111 10.0503 10.7738 10.2694C10.3441 10.4884 10.0048 10.7981 9.75601 11.1984C9.50721 11.5987 9.38281 12.0594 9.38281 12.5805C9.38281 13.0866 9.48082 13.5322 9.67685 13.9174C9.87287 14.3026 10.1367 14.5972 10.4685 14.8011C10.8002 15.005 11.1659 15.107 11.5654 15.107C12.2214 15.107 12.7491 14.8615 13.1487 14.3706C12.9979 15.0352 12.6737 15.5526 12.1761 15.9227C11.6785 16.2852 10.9359 16.5873 9.94826 16.829L10.3102 18.0753C11.426 17.8487 12.3307 17.5315 13.0243 17.1236C13.7179 16.7082 14.2306 16.1606 14.5623 15.4809C14.9016 14.8011 15.0712 13.9438 15.0712 12.9091C15.0712 12.0103 14.8262 11.2928 14.3362 10.7565ZM12.7303 13.6795C12.5418 13.7928 12.3382 13.8494 12.1196 13.8494C11.8331 13.8494 11.6031 13.7475 11.4297 13.5435C11.2639 13.3321 11.1809 12.9922 11.1809 12.5239C11.1809 12.1009 11.2714 11.7799 11.4524 11.5609C11.6408 11.3343 11.8972 11.221 12.2214 11.221C12.5983 11.221 12.866 11.3683 13.0243 11.6629C13.1826 11.9574 13.258 12.4597 13.2505 13.1697C13.0997 13.3887 12.9263 13.5586 12.7303 13.6795Z" fill="white"/>
</svg>
