<svg xmlns="http://www.w3.org/2000/svg" width="16" height="16" fill="none" viewBox="0 0 16 16">
  <path fill="#fff" d="M6 5h10v7.5a2.5 2.5 0 0 1-2.5 2.5H6V5Z"/>
  <path fill="url(#a)" fill-rule="evenodd" d="M0 3a2 2 0 0 1 2-2h12a2 2 0 0 1 2 2v10a2 2 0 0 1-2 2H2a2 2 0 0 1-2-2V3Z" clip-rule="evenodd"/>
  <path fill="url(#b)" fill-rule="evenodd" d="M0 3a2 2 0 0 1 2-2h12a2 2 0 0 1 2 2v10a2 2 0 0 1-2 2H2a2 2 0 0 1-2-2V3Z" clip-rule="evenodd"/>
  <path fill="url(#c)" fill-rule="evenodd" d="M0 3h11.5A1.5 1.5 0 0 1 13 4.5V15h1a2 2 0 0 0 2-2V3a2 2 0 0 0-2-2H2a2 2 0 0 0-2 2Z" clip-rule="evenodd"/>
  <path fill="#fff" d="m6.49 12 1.467-2.304c.513-.801.684-1.314.684-1.89 0-1.188-.891-2.034-2.124-2.034-1.224 0-2.115.873-2.115 2.061 0 1.206.909 1.926 1.827 1.926.252 0 .45-.063.567-.144l.018.018L5.149 12h1.34Zm.027-3.177c-.585 0-1-.423-1-1.026 0-.594.415-1.017 1-1.017s1.008.423 1.008 1.017c0 .603-.423 1.026-1.008 1.026Z"/>
  <defs>
    <linearGradient id="a" x1="8" x2="9.218" y1="-4.593" y2="11.766" gradientUnits="userSpaceOnUse">
      <stop offset=".989" stop-color="#6D4AFF"/>
    </linearGradient>
    <linearGradient id="c" x1="19" x2="-.508" y1="23.75" y2="-10.353" gradientUnits="userSpaceOnUse">
      <stop stop-color="#C8E8FF"/>
      <stop offset=".411" stop-color="#BDAEFF"/>
      <stop offset=".775" stop-color="#6D4AFF"/>
    </linearGradient>
    <radialGradient id="b" cx="0" cy="0" r="1" gradientTransform="rotate(109.399 7.624 .785) scale(24.0163 30.6627)" gradientUnits="userSpaceOnUse">
      <stop offset=".556" stop-color="#54B7FF" stop-opacity="0"/>
      <stop offset=".994" stop-color="#54B7FF"/>
    </radialGradient>
  </defs>
</svg>
