<svg xmlns="http://www.w3.org/2000/svg" width="16" height="16" fill="none" viewBox="0 0 16 16">
  <path fill="#fff" d="M6 5h10v7.5a2.5 2.5 0 0 1-2.5 2.5H6V5Z"/>
  <path fill="url(#a)" fill-rule="evenodd" d="M0 3a2 2 0 0 1 2-2h12a2 2 0 0 1 2 2v10a2 2 0 0 1-2 2H2a2 2 0 0 1-2-2V3Z" clip-rule="evenodd"/>
  <path fill="url(#b)" fill-rule="evenodd" d="M0 3a2 2 0 0 1 2-2h12a2 2 0 0 1 2 2v10a2 2 0 0 1-2 2H2a2 2 0 0 1-2-2V3Z" clip-rule="evenodd"/>
  <path fill="url(#c)" fill-rule="evenodd" d="M0 3h11.5A1.5 1.5 0 0 1 13 4.5V15h1a2 2 0 0 0 2-2V3a2 2 0 0 0-2-2H2a2 2 0 0 0-2 2Z" clip-rule="evenodd"/>
  <path fill="#fff" d="M5.93 12v-1.071H3.42v-.009l.693-.495c1.07-.756 1.863-1.647 1.863-2.565 0-1.449-1.008-2.088-2.178-2.088-1.503 0-2.286 1.062-2.304 2.268h1.16c.019-.666.37-1.242 1.144-1.242.594 0 1.026.405 1.026 1.062 0 .738-.558 1.26-1.962 2.295l-1.197.882V12H5.93Zm3.059.099c1.458 0 2.295-1.296 2.295-3.168s-.837-3.159-2.295-3.159c-1.467 0-2.304 1.287-2.304 3.159 0 1.872.837 3.168 2.304 3.168Zm0-1.071c-.81 0-1.161-.864-1.161-2.097s.35-2.088 1.16-2.088c.802 0 1.153.855 1.153 2.088s-.351 2.097-1.152 2.097Z"/>
  <defs>
    <linearGradient id="a" x1="8" x2="9.218" y1="-4.593" y2="11.766" gradientUnits="userSpaceOnUse">
      <stop offset=".989" stop-color="#6D4AFF"/>
    </linearGradient>
    <linearGradient id="c" x1="19" x2="-.508" y1="23.75" y2="-10.353" gradientUnits="userSpaceOnUse">
      <stop stop-color="#C8E8FF"/>
      <stop offset=".411" stop-color="#BDAEFF"/>
      <stop offset=".775" stop-color="#6D4AFF"/>
    </linearGradient>
    <radialGradient id="b" cx="0" cy="0" r="1" gradientTransform="rotate(109.399 7.624 .785) scale(24.0163 30.6627)" gradientUnits="userSpaceOnUse">
      <stop offset=".556" stop-color="#54B7FF" stop-opacity="0"/>
      <stop offset=".994" stop-color="#54B7FF"/>
    </radialGradient>
  </defs>
</svg>
