<svg width="64" height="64" viewBox="0 0 64 64" fill="none" xmlns="http://www.w3.org/2000/svg">
<mask id="mask0_26_114" style="mask-type:alpha" maskUnits="userSpaceOnUse" x="0" y="0" width="64" height="64">
<circle cx="32" cy="32" r="32" fill="#EFEBFF"/>
</mask>
<g mask="url(#mask0_26_114)">
<path d="M42.4499 12.1097L49.6457 7.48831C52.1406 5.8859 55.4516 7.43191 55.8298 10.3713L57.5715 23.9337L42.4465 12.1097H42.4499Z" fill="#6D4AFF"/>
<path d="M22.9165 12.1097L15.7206 7.48831C13.2257 5.8859 9.91475 7.43191 9.53654 10.3713L7.7948 23.9337L22.9198 12.1097H22.9165Z" fill="#6D4AFF"/>
<path d="M13.735 12.9391L17.2284 15.1851L11.5321 19.0136L12.2222 13.6424C12.3151 12.9225 13.1246 12.5476 13.7317 12.9391H13.735Z" fill="#4A2DC5"/>
<path d="M51.0915 12.9391L47.598 15.1851L53.2944 19.0136L52.6043 13.6424C52.5114 12.9225 51.7019 12.5476 51.0948 12.9391H51.0915Z" fill="#4A2DC5"/>
<path d="M62.5401 38.1462C62.5401 51.9873 46.1147 56.9206 32.413 56.9206C20.37 56.9206 2.28577 51.9873 2.28577 38.1462C2.28577 24.3052 15.7752 10.3148 32.413 10.3148C49.0508 10.3148 62.5401 24.3052 62.5401 38.1462Z" fill="#6D4AFF"/>
<path d="M47.1845 42.6603C52.1662 40.5117 54.6588 35.1856 52.7519 30.7641C50.845 26.3426 45.2606 24.5 40.2788 26.6486C35.2971 28.7972 32.8044 34.1233 34.7114 38.5448C36.6183 42.9663 42.2027 44.8088 47.1845 42.6603Z" fill="white"/>
<path d="M34.418 33.0505C35.4099 27.875 41.0499 24.4877 46.1358 25.2773C51.6463 26.0171 55.3653 31.594 52.8705 36.7994C53.4809 34.4472 53.1658 31.8926 51.7691 29.9187C47.2637 23.6484 37.0488 26.2328 34.418 33.0505Z" fill="#4129A3"/>
<path d="M24.7442 38.542C26.6511 34.1205 24.1585 28.7944 19.1768 26.6458C14.195 24.4973 8.61062 26.3398 6.70368 30.7613C4.79674 35.1828 7.28936 40.5089 12.2711 42.6575C17.2529 44.8061 22.8373 42.9635 24.7442 38.542Z" fill="white"/>
<path d="M46.5833 39.8431C48.3991 39.8431 49.871 37.4443 49.871 34.4852C49.871 31.5261 48.3991 29.1273 46.5833 29.1273C44.7675 29.1273 43.2955 31.5261 43.2955 34.4852C43.2955 37.4443 44.7675 39.8431 46.5833 39.8431Z" fill="#4129A3"/>
<path d="M18.7383 40.2558C20.5541 40.2558 22.0261 37.857 22.0261 34.8979C22.0261 31.9387 20.5541 29.5399 18.7383 29.5399C16.9225 29.5399 15.4506 31.9387 15.4506 34.8979C15.4506 37.857 16.9225 40.2558 18.7383 40.2558Z" fill="#4129A3"/>
<path d="M25.0387 33.0505C22.4079 26.2328 12.1929 23.6484 7.68763 29.9187C6.29423 31.8893 5.97574 34.4472 6.58618 36.7994C4.08803 31.5874 7.80706 26.0171 13.3209 25.2773C18.4068 24.4877 24.0501 27.875 25.0387 33.0505Z" fill="#4129A3"/>
<path d="M26.7131 42.4526C27.814 42.4526 28.7027 43.3446 28.7027 44.4422" stroke="white" stroke-width="0.577346" stroke-miterlimit="10" stroke-linecap="round"/>
<path d="M30.6947 42.4526C29.5939 42.4526 28.7052 43.3446 28.7052 44.4422" stroke="white" stroke-width="0.577346" stroke-miterlimit="10" stroke-linecap="round"/>
<path opacity="0.7" d="M21.074 33.3022C21.7593 33.3022 22.3148 32.7467 22.3148 32.0614C22.3148 31.3761 21.7593 30.8206 21.074 30.8206C20.3888 30.8206 19.8333 31.3761 19.8333 32.0614C19.8333 32.7467 20.3888 33.3022 21.074 33.3022Z" fill="white"/>
<path opacity="0.7" d="M48.9189 32.8895C49.6041 32.8895 50.1597 32.334 50.1597 31.6487C50.1597 30.9634 49.6041 30.4079 48.9189 30.4079C48.2336 30.4079 47.6781 30.9634 47.6781 31.6487C47.6781 32.334 48.2336 32.8895 48.9189 32.8895Z" fill="white"/>
</g>
</svg>
