<svg width="20" height="20" viewBox="0 0 20 20" fill="none" xmlns="http://www.w3.org/2000/svg">
    <path
        d="M19.5579 5.9579C17.0105 3.41053 13.6211 2 10 2C6.37895 2 2.98947 3.41053 0.442105 5.9579C-0.147368 6.54737 -0.147368 7.47368 0.442105 8.06316C0.736842 8.35789 1.11579 8.50526 1.49474 8.50526C1.87368 8.50526 2.25263 8.35789 2.54737 8.06316C4.52632 6.06316 7.17895 4.96842 10 4.96842C12.8211 4.96842 15.4737 6.06316 17.4526 8.06316C18.0421 8.65263 18.9684 8.65263 19.5579 8.06316C20.1474 7.47368 20.1474 6.52632 19.5579 5.9579Z"
        fill="url(#paint0_linear_1005_112114)"
    />
    <path
        d="M4.39996 9.93718C3.81048 10.5267 3.81048 11.453 4.39996 12.0424C4.6947 12.3372 5.07364 12.4845 5.45259 12.4845C5.83154 12.4845 6.21049 12.3372 6.50522 12.0424C8.44206 10.1056 11.5789 10.1056 13.4947 12.0214C14.0631 12.6109 15.0105 12.6109 15.6 12.0214C16.1894 11.4319 16.1894 10.5056 15.6 9.91612C12.5052 6.84244 7.4947 6.84244 4.39996 9.93718Z"
        fill="url(#paint1_linear_1005_112114)"
    />
    <path
        d="M10.021 17.8314C11.2999 17.8314 12.3368 16.7946 12.3368 15.5156C12.3368 14.2366 11.2999 13.1998 10.021 13.1998C8.74199 13.1998 7.70518 14.2366 7.70518 15.5156C7.70518 16.7946 8.74199 17.8314 10.021 17.8314Z"
        fill="url(#paint2_linear_1005_112114)"
    />
    <defs>
        <linearGradient
            id="paint0_linear_1005_112114"
            x1="10.8333"
            y1="1.24612"
            x2="12.3121"
            y2="18.3328"
            gradientUnits="userSpaceOnUse"
        >
            <stop stop-color="#DDDFEC" />
            <stop offset="1" stop-color="#414351" />
        </linearGradient>
        <linearGradient
            id="paint1_linear_1005_112114"
            x1="10.8333"
            y1="1.24612"
            x2="12.3121"
            y2="18.3328"
            gradientUnits="userSpaceOnUse"
        >
            <stop stop-color="#DDDFEC" />
            <stop offset="1" stop-color="#414351" />
        </linearGradient>
        <linearGradient
            id="paint2_linear_1005_112114"
            x1="10.8333"
            y1="1.24612"
            x2="12.3121"
            y2="18.3328"
            gradientUnits="userSpaceOnUse"
        >
            <stop stop-color="#DDDFEC" />
            <stop offset="1" stop-color="#414351" />
        </linearGradient>
    </defs>
</svg>
