<svg width="20" height="20" viewBox="0 0 20 20" fill="none" xmlns="http://www.w3.org/2000/svg">
    <g clip-path="url(#clip0_1005_112010)">
        <path
            fill-rule="evenodd"
            clip-rule="evenodd"
            d="M10.3563 0.651652C10.1953 0.377183 9.79854 0.377184 9.63755 0.651653L7.71239 3.93368C7.61781 4.09492 7.42742 4.17344 7.24667 4.12574L3.5257 3.14374C3.21542 3.06186 2.93292 3.34673 3.01741 3.65631L4.01006 7.29375C4.06021 7.47751 3.97935 7.67188 3.81367 7.76586L0.496332 9.64763C0.214886 9.80728 0.214887 10.2128 0.496333 10.3725L3.81367 12.2542C3.97935 12.3482 4.06021 12.5426 4.01006 12.7263L3.01741 16.3638C2.93292 16.6734 3.21541 16.9582 3.5257 16.8763L7.24667 15.8944C7.42742 15.8467 7.61781 15.9252 7.71239 16.0864L9.63755 19.3684C9.79854 19.6429 10.1953 19.6429 10.3563 19.3684L12.2815 16.0864C12.3761 15.9252 12.5665 15.8467 12.7472 15.8944L16.4682 16.8763C16.7785 16.9582 17.061 16.6734 16.9765 16.3638L15.9838 12.7263C15.9337 12.5426 16.0145 12.3482 16.1802 12.2542L19.4976 10.3725C19.779 10.2128 19.779 9.80728 19.4976 9.64763L16.1802 7.76586C16.0145 7.67188 15.9337 7.47751 15.9838 7.29375L16.9765 3.65631C17.061 3.34673 16.7785 3.06186 16.4682 3.14374L12.7472 4.12574C12.5665 4.17344 12.3761 4.09492 12.2815 3.93368L10.3563 0.651652ZM10.7551 8.724C10.7145 8.61345 10.7923 8.50191 10.9071 8.47543C11.7365 8.28405 12.4081 8.09545 12.9969 7.88138C13.0984 7.84448 13.2149 7.8822 13.2549 7.98251C13.3029 8.1028 13.329 8.23215 13.329 8.36686C13.329 9.0077 12.7386 9.5272 12.0102 9.5272C11.4235 9.5272 10.9263 9.19009 10.7551 8.724ZM9.08121 8.47543C9.19596 8.50191 9.27378 8.61345 9.23318 8.724C9.06199 9.19009 8.56477 9.5272 7.97805 9.5272C7.24971 9.5272 6.65928 9.0077 6.65928 8.36686C6.65928 8.23215 6.68537 8.1028 6.73335 7.98251C6.77336 7.8822 6.88987 7.84448 6.99136 7.88138C7.58024 8.09545 8.25181 8.28405 9.08121 8.47543ZM7.0254 10.4817C7.0254 10.3918 7.11245 10.3289 7.1986 10.3548C7.97084 10.5865 9.02402 10.871 9.96096 10.871C11.0159 10.871 11.8316 10.5681 12.5994 10.2756C12.7404 10.2219 12.8911 10.3203 12.8913 10.4711L12.8914 10.4817C12.8914 11.3606 11.5808 12.7327 9.96096 12.7327C8.34113 12.7327 7.0254 11.3606 7.0254 10.4817Z"
            fill="url(#paint0_linear_1005_112010)"
        />
    </g>
    <defs>
        <linearGradient
            id="paint0_linear_1005_112010"
            x1="10.7837"
            y1="-0.186993"
            x2="12.9403"
            y2="19.8283"
            gradientUnits="userSpaceOnUse"
        >
            <stop stop-color="#DDDFEC" />
            <stop offset="1" stop-color="#414351" />
        </linearGradient>
        <clipPath id="clip0_1005_112010">
            <rect width="20" height="20" fill="white" />
        </clipPath>
    </defs>
</svg>
