<svg width="20" height="20" viewBox="0 0 20 20" fill="none" xmlns="http://www.w3.org/2000/svg">
    <path
        fill-rule="evenodd"
        clip-rule="evenodd"
        d="M18.3346 10.0013C18.3346 14.6037 14.6037 18.3346 10.0013 18.3346C5.39893 18.3346 1.66797 14.6037 1.66797 10.0013C1.66797 5.39893 5.39893 1.66797 10.0013 1.66797C14.6037 1.66797 18.3346 5.39893 18.3346 10.0013ZM15.3046 10.0016C15.3046 12.9304 12.9304 15.3046 10.0016 15.3046C7.07281 15.3046 4.69857 12.9304 4.69857 10.0016C4.69857 7.07281 7.07281 4.69857 10.0016 4.69857C12.9304 4.69857 15.3046 7.07281 15.3046 10.0016Z"
        fill="url(#paint0_linear_1005_112031)"
    />
    <path
        d="M10.7583 7.73204C10.7583 8.98723 9.74081 10.0048 8.48562 10.0048C8.05359 10.0048 7.64971 9.88422 7.30579 9.67493C6.88889 9.42122 6.21289 9.51436 6.21289 10.0024C6.21289 12.0944 7.90878 13.7903 10.0008 13.7903C12.0928 13.7903 13.7886 12.0944 13.7886 10.0024C13.7886 8.54811 12.9691 7.28524 11.7666 6.65045C11.2217 6.36276 10.7583 7.1158 10.7583 7.73204Z"
        fill="url(#paint1_linear_1005_112031)"
    />
    <defs>
        <linearGradient
            id="paint0_linear_1005_112031"
            x1="10.6764"
            y1="1.11662"
            x2="12.5837"
            y2="18.5497"
            gradientUnits="userSpaceOnUse"
        >
            <stop stop-color="#DDDFEC" />
            <stop offset="1" stop-color="#414351" />
        </linearGradient>
        <linearGradient
            id="paint1_linear_1005_112031"
            x1="10.3076"
            y1="5.96827"
            x2="11.1736"
            y2="13.8881"
            gradientUnits="userSpaceOnUse"
        >
            <stop stop-color="#DDDFEC" />
            <stop offset="1" stop-color="#414351" />
        </linearGradient>
    </defs>
</svg>
