<svg width="20" height="20" viewBox="0 0 20 20" fill="none" xmlns="http://www.w3.org/2000/svg">
    <path
        d="M10.001 13.6029C11.99 13.6029 13.6023 11.9906 13.6023 10.0016C13.6023 9.25414 13.3746 8.55986 12.9848 7.98436L7.81681 12.8652C8.42266 13.328 9.17973 13.6029 10.001 13.6029Z"
        fill="url(#paint0_linear_1005_112023)"
    />
    <path
        d="M12.3284 7.25328L7.12418 12.1684C6.66935 11.5655 6.39967 10.815 6.39967 10.0016C6.39967 8.01265 8.01204 6.40028 10.001 6.40028C10.8883 6.40028 11.7007 6.72119 12.3284 7.25328Z"
        fill="url(#paint1_linear_1005_112023)"
    />
    <path
        fill-rule="evenodd"
        clip-rule="evenodd"
        d="M19.0567 10.4155C19.2051 10.1594 19.2051 9.84385 19.0567 9.58775L14.8886 2.39433C14.7402 2.13823 14.4659 1.98047 14.1692 1.98047H5.83285C5.53606 1.98047 5.26182 2.13823 5.11343 2.39433L0.945278 9.58775C0.796886 9.84385 0.796886 10.1594 0.945278 10.4155L5.11343 17.6089C5.26182 17.865 5.53606 18.0228 5.83285 18.0228H14.1692C14.4659 18.0228 14.7402 17.865 14.8886 17.6089L19.0567 10.4155ZM10.001 14.5851C12.5324 14.5851 14.5845 12.533 14.5845 10.0016C14.5845 7.47021 12.5324 5.4181 10.001 5.4181C7.4696 5.4181 5.41749 7.47021 5.41749 10.0016C5.41749 12.533 7.4696 14.5851 10.001 14.5851Z"
        fill="url(#paint2_linear_1005_112023)"
    />
    <defs>
        <linearGradient
            id="paint0_linear_1005_112023"
            x1="10.7436"
            y1="1.44977"
            x2="12.3545"
            y2="18.2764"
            gradientUnits="userSpaceOnUse"
        >
            <stop stop-color="#DDDFEC" />
            <stop offset="1" stop-color="#414351" />
        </linearGradient>
        <linearGradient
            id="paint1_linear_1005_112023"
            x1="10.7436"
            y1="1.44977"
            x2="12.3545"
            y2="18.2764"
            gradientUnits="userSpaceOnUse"
        >
            <stop stop-color="#DDDFEC" />
            <stop offset="1" stop-color="#414351" />
        </linearGradient>
        <linearGradient
            id="paint2_linear_1005_112023"
            x1="10.7436"
            y1="1.44977"
            x2="12.3545"
            y2="18.2764"
            gradientUnits="userSpaceOnUse"
        >
            <stop stop-color="#DDDFEC" />
            <stop offset="1" stop-color="#414351" />
        </linearGradient>
    </defs>
</svg>
