<svg width="20" height="20" viewBox="0 0 20 20" fill="none" xmlns="http://www.w3.org/2000/svg">
    <path
        fill-rule="evenodd"
        clip-rule="evenodd"
        d="M9.92961 0.832031C13.7869 0.832031 16.9217 3.91113 16.9217 7.69991C16.9217 11.4286 13.2577 16.357 11.2344 18.7942C10.5461 19.6233 9.31311 19.6233 8.62485 18.7942C6.60153 16.357 2.9375 11.4286 2.9375 7.69991C2.9375 3.91113 6.0723 0.832031 9.92961 0.832031ZM9.929 5.15675C8.4499 5.15675 7.23973 6.37293 7.23973 7.85938C7.23973 9.34584 8.4499 10.562 9.929 10.562C11.4215 10.562 12.6183 9.34584 12.6183 7.85938C12.6183 6.37293 11.4081 5.15675 9.929 5.15675Z"
        fill="url(#paint0_linear_1005_112041)"
    />
    <defs>
        <linearGradient
            id="paint0_linear_1005_112041"
            x1="10.496"
            y1="0.217251"
            x2="13.2969"
            y2="19.4813"
            gradientUnits="userSpaceOnUse"
        >
            <stop stop-color="#DDDFEC" />
            <stop offset="1" stop-color="#414351" />
        </linearGradient>
    </defs>
</svg>
