<svg
    fill="none"
    height="100"
    viewBox="0 0 320 100"
    width="320"
    xmlns="http://www.w3.org/2000/svg"
    xmlns:xlink="http://www.w3.org/1999/xlink"
>
    <filter
        id="a"
        color-interpolation-filters="sRGB"
        filterUnits="userSpaceOnUse"
        height="50.3188"
        width="3.07304"
        x="169.622"
        y="34.1445"
    >
        <feFlood flood-opacity="0" result="BackgroundImageFix" />
        <feBlend in="SourceGraphic" in2="BackgroundImageFix" mode="normal" result="shape" />
        <feColorMatrix
            in="SourceAlpha"
            result="hardAlpha"
            type="matrix"
            values="0 0 0 0 0 0 0 0 0 0 0 0 0 0 0 0 0 0 127 0"
        />
        <feOffset dx="-.754783" />
        <feGaussianBlur stdDeviation=".188696" />
        <feComposite in2="hardAlpha" k2="-1" k3="1" operator="arithmetic" />
        <feColorMatrix type="matrix" values="0 0 0 0 1 0 0 0 0 1 0 0 0 0 1 0 0 0 0.5 0" />
        <feBlend in2="shape" mode="normal" result="effect1_innerShadow_1005_113486" />
    </filter>
    <filter
        id="b"
        color-interpolation-filters="sRGB"
        filterUnits="userSpaceOnUse"
        height="36.3297"
        width="67.2757"
        x="149.969"
        y="30.1237"
    >
        <feFlood flood-opacity="0" result="BackgroundImageFix" />
        <feBlend in="SourceGraphic" in2="BackgroundImageFix" mode="normal" result="shape" />
        <feGaussianBlur result="effect1_foregroundBlur_1005_113486" stdDeviation="5.1198" />
    </filter>
    <filter
        id="c"
        color-interpolation-filters="sRGB"
        filterUnits="userSpaceOnUse"
        height="55.5363"
        width="55.5362"
        x="143.131"
        y="3.1875"
    >
        <feFlood flood-opacity="0" result="BackgroundImageFix" />
        <feColorMatrix
            in="SourceAlpha"
            result="hardAlpha"
            type="matrix"
            values="0 0 0 0 0 0 0 0 0 0 0 0 0 0 0 0 0 0 127 0"
        />
        <feOffset dy="4" />
        <feGaussianBlur stdDeviation="4" />
        <feComposite in2="hardAlpha" operator="out" />
        <feColorMatrix type="matrix" values="0 0 0 0 0 0 0 0 0 0 0 0 0 0 0 0 0 0 0.45 0" />
        <feBlend in2="BackgroundImageFix" mode="normal" result="effect1_dropShadow_1005_113486" />
        <feBlend in="SourceGraphic" in2="effect1_dropShadow_1005_113486" mode="normal" result="shape" />
    </filter>
    <filter
        id="d"
        color-interpolation-filters="sRGB"
        filterUnits="userSpaceOnUse"
        height="35.4536"
        width="29.6522"
        x="156.073"
        y="9.65851"
    >
        <feFlood flood-opacity="0" result="BackgroundImageFix" />
        <feBlend in="SourceGraphic" in2="BackgroundImageFix" mode="normal" result="shape" />
        <feColorMatrix
            in="SourceAlpha"
            result="hardAlpha"
            type="matrix"
            values="0 0 0 0 0 0 0 0 0 0 0 0 0 0 0 0 0 0 127 0"
        />
        <feOffset dy="1.2892" />
        <feGaussianBlur stdDeviation=".429735" />
        <feComposite in2="hardAlpha" k2="-1" k3="1" operator="arithmetic" />
        <feColorMatrix type="matrix" values="0 0 0 0 1 0 0 0 0 1 0 0 0 0 1 0 0 0 0.5 0" />
        <feBlend in2="shape" mode="normal" result="effect1_innerShadow_1005_113486" />
    </filter>
    <linearGradient id="e" gradientUnits="userSpaceOnUse" x1="237.456" x2="236.502" y1="0" y2="110.084">
        <stop offset="0" stop-color="#338c92" />
        <stop offset="1" stop-color="#17151d" stop-opacity="0" />
    </linearGradient>
    <linearGradient id="f">
        <stop offset="0" stop-color="#fff" />
        <stop offset="1" stop-color="#fff" stop-opacity="0" />
    </linearGradient>
    <linearGradient
        id="g"
        gradientUnits="userSpaceOnUse"
        x1="144.657"
        x2="226.624"
        xlink:href="#f"
        y1="61.7368"
        y2="60.535"
    />
    <linearGradient id="h" gradientUnits="userSpaceOnUse" x1="170.385" x2="117.898" y1="39.8159" y2="39.8159">
        <stop offset="0" stop-color="#2ddccc" />
        <stop offset="1" stop-color="#2ddccc" stop-opacity="0" />
    </linearGradient>
    <linearGradient
        id="i"
        gradientUnits="userSpaceOnUse"
        x1="170.899"
        x2="170.899"
        xlink:href="#f"
        y1="9.65851"
        y2="44.2527"
    />
    <path d="m0 0h320v100h-320z" fill="#16141c" />
    <path d="m0 0h320v100h-320z" fill="url(#e)" />
    <path
        d="m115.152 55.6471-2.352.4212 1.641 2.0007-1.255.86-1.29-2.2377-1.307 2.2377-1.255-.86 1.641-2.0007-2.361-.4212.5-1.404 2.229.86-.254-2.5535h1.597l-.246 2.5535 2.22-.86zm7.757 0-2.352.4212 1.641 2.0007-1.255.86-1.29-2.2377-1.307 2.2377-1.255-.86 1.641-2.0007-2.361-.4212.5-1.404 2.229.86-.254-2.5535h1.597l-.246 2.5535 2.22-.86zm7.757 0-2.352.4212 1.641 2.0007-1.255.86-1.29-2.2377-1.307 2.2377-1.255-.86 1.641-2.0007-2.361-.4212.5-1.404 2.229.86-.254-2.5535h1.597l-.246 2.5535 2.22-.86zm2.746 9.6875c-.363 0-.667-.1199-.912-.3597-.246-.2399-.369-.5353-.369-.8863s.123-.6464.369-.8863c.251-.2398.558-.3597.921-.3597.368 0 .676.1199.921.3597.252.2399.378.5353.378.8863 0 .3568-.126.6552-.378.895-.245.234-.555.351-.93.351zm9.31-9.6875-2.351.4212 1.641 2.0007-1.255.86-1.29-2.2377-1.308 2.2377-1.254-.86 1.64-2.0007-2.36-.4212.5-1.404 2.229.86-.254-2.5535h1.597l-.246 2.5535 2.22-.86zm7.757 0-2.351.4212 1.641 2.0007-1.255.86-1.29-2.2377-1.308 2.2377-1.254-.86 1.64-2.0007-2.36-.4212.5-1.404 2.229.86-.254-2.5535h1.597l-.246 2.5535 2.22-.86zm2.747 9.6875c-.363 0-.667-.1199-.913-.3597-.245-.2399-.368-.5353-.368-.8863s.123-.6464.368-.8863c.252-.2398.559-.3597.922-.3597.368 0 .675.1199.921.3597.252.2399.377.5353.377.8863 0 .3568-.125.6552-.377.895-.246.234-.556.351-.93.351zm9.31-9.6875-2.352.4212 1.641 2.0007-1.255.86-1.289-2.2377-1.308 2.2377-1.255-.86 1.641-2.0007-2.36-.4212.5-1.404 2.229.86-.255-2.5535h1.597l-.245 2.5535 2.22-.86zm7.757 0-2.352.4212 1.641 2.0007-1.254.86-1.29-2.2377-1.308 2.2377-1.255-.86 1.641-2.0007-2.36-.4212.5-1.404 2.229.86-.255-2.5535h1.597l-.245 2.5535 2.22-.86zm8.95-3.1589v8.2221h1.317v1.676h-1.317v2.8167h-2.018v-2.8167h-5.782v-1.676c.532-.5909 1.07-1.2285 1.614-1.913.55-.6903 1.077-1.3923 1.58-2.106.503-.7136.971-1.4273 1.404-2.141.433-.7196.795-1.4069 1.088-2.0621zm-5.747 8.2221h3.729v-5.3878c-.345.5967-.684 1.1524-1.018 1.6672-.327.5148-.646.9916-.956 1.4303-.316.4446-.62.8541-.913 1.2285-.292.3744-.573.7283-.842 1.0618zm9.793 4.6243c-.363 0-.667-.1199-.913-.3597-.246-.2399-.368-.5353-.368-.8863s.122-.6464.368-.8863c.252-.2398.559-.3597.922-.3597.368 0 .675.1199.921.3597.251.2399.377.5353.377.8863 0 .3568-.126.6552-.377.895-.246.234-.556.351-.93.351zm7.415-.2018h-2.036v-10.2491c-.293.2106-.676.4212-1.15.6318-.468.2106-.924.3803-1.369.509l-.552-1.6848c.719-.1989 1.439-.4856 2.158-.86.726-.3744 1.334-.778 1.825-1.2109h1.124zm3.071 0v-.7722c0-.585.082-1.1056.245-1.5619.164-.4563.392-.8775.685-1.2636.298-.3861.655-.7488 1.07-1.0881.416-.3451.875-.702 1.378-1.0705.415-.2925.766-.5733 1.053-.8424.293-.275.538-.547.737-.8161.187-.2457.328-.5148.421-.8073.094-.2925.141-.6054.141-.9389 0-.5908-.173-1.0647-.518-1.4215-.345-.3569-.816-.5353-1.413-.5353-.497 0-.983.117-1.456.351-.474.2281-.913.5762-1.317 1.0442l-1.254-1.1056c.561-.6552 1.187-1.1466 1.877-1.4742.697-.3276 1.486-.4914 2.37-.4914 1.164 0 2.082.3305 2.755.9916.673.6552 1.009 1.4741 1.009 2.4569 0 .5558-.076 1.0501-.228 1.483-.146.4329-.348.8219-.606 1.1671-.263.3685-.573.7166-.93 1.0442-.351.3217-.751.6435-1.202.9652-.444.3159-.831.5967-1.158.8424-.328.2457-.597.4797-.807.702-.211.234-.366.4621-.465.6844-.1.2165-.15.4534-.15.7108h5.809v1.7462zm18.085-6.976c0 2.3048-.416 4.0803-1.246 5.3263-.831 1.2461-2.1 1.8691-3.809 1.8691-.678 0-1.289-.1199-1.833-.3598-.539-.2457-1.024-.6172-1.457-1.1144l1.211-1.1495c.281.3217.588.5645.921.7283.339.1638.752.2457 1.237.2457.96 0 1.703-.3773 2.229-1.132.533-.7605.799-1.8836.799-3.3695l-.044-.0088c-.275.4446-.635.7839-1.079 1.0179-.439.2281-.966.3422-1.58.3422-1.065 0-1.933-.3627-2.606-1.0881-.667-.7312-1-1.6643-1-2.7992 0-1.2987.389-2.3429 1.167-3.1326.784-.7956 1.784-1.1934 3.001-1.1934 1.293 0 2.296.506 3.01 1.5181.719 1.012 1.079 2.4452 1.079 4.2997zm-2.053-1.3777c0-.8131-.199-1.483-.597-2.0095-.398-.5323-.913-.7985-1.545-.7985-.596 0-1.094.2369-1.491.7108-.398.468-.597 1.0588-.597 1.7725 0 .7781.196 1.3835.588 1.8164.398.4271.921.6406 1.571.6406.596 0 1.091-.2047 1.483-.6142.392-.4154.588-.9214.588-1.5181z"
        fill="url(#g)"
        opacity=".8"
    />
    <g filter="url(#a)">
        <path
            d="m172.695 35.4924c0-.7444-.603-1.3479-1.348-1.3479-.744 0-1.347.6035-1.347 1.3479v47.6231c0 .7444.603 1.3479 1.347 1.3479.745 0 1.348-.6035 1.348-1.3479z"
            fill="#2ddccc"
        />
    </g>
    <path d="m117.898 34.1445h52.487v48.5218h-52.487z" fill="url(#h)" fill-opacity=".8" opacity=".5" />
    <path d="m161.898 25h10.567v13.5861h-10.567z" fill="#2a666d" />
    <g filter="url(#b)" opacity=".6">
        <path d="m168.141 40.3633h30.933l7.932 15.8504h-46.797z" fill="#202020" fill-opacity=".73" />
    </g>
    <g filter="url(#c)">
        <g clip-rule="evenodd" fill-rule="evenodd" filter="url(#d)">
            <path
                d="m163.98 19.5426h-.494c0-4.0941 3.319-7.4131 7.413-7.4131s7.413 3.319 7.413 7.4131h-.494zm-2.965.0474v-.0474c0-5.4588 4.425-9.88409 9.884-9.88409s9.884 4.42529 9.884 9.88409v.0474c.969.0592 1.657.1922 2.244.4912.93.4738 1.686 1.2299 2.159 2.1598.539 1.0571.539 2.441.539 5.2088v8.8957c0 2.7678 0 4.1517-.539 5.2088-.473.9299-1.229 1.6859-2.159 2.1598-1.057.5386-2.441.5386-5.209.5386h-13.838c-2.768 0-4.152 0-5.209-.5386-.93-.4739-1.686-1.2299-2.159-2.1598-.539-1.0571-.539-2.441-.539-5.2088v-8.8957c0-2.7678 0-4.1517.539-5.2088.473-.9299 1.229-1.686 2.159-2.1598.587-.299 1.275-.432 2.244-.4912zm11.047 12.0174c.778-.416 1.308-1.2365 1.308-2.1808 0-1.3647-1.106-2.471-2.471-2.471s-2.471 1.1063-2.471 2.471c0 .9443.53 1.7648 1.308 2.1808l-1.078 4.3112c-.117.4678.237.9211.719.9211h3.044c.482 0 .836-.4533.719-.9211z"
                fill="#35fbcb"
            />
            <path
                d="m163.98 19.5426h-.494c0-4.0941 3.319-7.4131 7.413-7.4131s7.413 3.319 7.413 7.4131h-.494zm-2.965.0474v-.0474c0-5.4588 4.425-9.88409 9.884-9.88409s9.884 4.42529 9.884 9.88409v.0474c.969.0592 1.657.1922 2.244.4912.93.4738 1.686 1.2299 2.159 2.1598.539 1.0571.539 2.441.539 5.2088v8.8957c0 2.7678 0 4.1517-.539 5.2088-.473.9299-1.229 1.6859-2.159 2.1598-1.057.5386-2.441.5386-5.209.5386h-13.838c-2.768 0-4.152 0-5.209-.5386-.93-.4739-1.686-1.2299-2.159-2.1598-.539-1.0571-.539-2.441-.539-5.2088v-8.8957c0-2.7678 0-4.1517.539-5.2088.473-.9299 1.229-1.686 2.159-2.1598.587-.299 1.275-.432 2.244-.4912zm11.047 12.0174c.778-.416 1.308-1.2365 1.308-2.1808 0-1.3647-1.106-2.471-2.471-2.471s-2.471 1.1063-2.471 2.471c0 .9443.53 1.7648 1.308 2.1808l-1.078 4.3112c-.117.4678.237.9211.719.9211h3.044c.482 0 .836-.4533.719-.9211z"
                fill="url(#i)"
                fill-opacity=".7"
            />
        </g>
    </g>
</svg>
