<svg width="136" height="93" viewBox="0 0 136 93" fill="none" xmlns="http://www.w3.org/2000/svg">
    <g clip-path="url(#clip0_1713_14206)">
        <rect x="1" y="1" width="134" height="91" rx="5" fill="#1F1F31" />
        <g clip-path="url(#clip1_1713_14206)">
            <rect width="31" height="91" transform="translate(1 1)" fill="#191926" />
            <rect x="4" y="13.5" width="3" height="3" rx="1.5" fill="#302D45" />
            <g opacity="0.3" clip-path="url(#clip2_1713_14206)">
                <rect width="19" height="2" transform="translate(10 14)" fill="#1C1C2C" />
                <rect x="10" y="14" width="10.5" height="2" rx="1" fill="white" />
                <rect x="26.5" y="14" width="2.5" height="2" rx="1" fill="#BFB9D8" />
            </g>
            <rect opacity="0.3" x="4" y="19.5" width="3" height="3" rx="1.5" fill="#9EE2E6" />
            <g opacity="0.3" clip-path="url(#clip3_1713_14206)">
                <rect width="19" height="2" transform="translate(10 20)" fill="#1C1C2C" />
                <rect x="10" y="20" width="5.5" height="2" rx="1" fill="white" />
                <rect x="26.5" y="20" width="2.5" height="2" rx="1" fill="#BFB9D8" />
            </g>
            <rect x="4" y="25.5" width="3" height="3" rx="1.5" fill="#30284A" />
            <g opacity="0.3" clip-path="url(#clip4_1713_14206)">
                <rect width="19" height="2" transform="translate(10 26)" fill="#1C1C2C" />
                <rect x="10" y="26" width="8" height="2" rx="1" fill="white" />
                <rect x="26.5" y="26" width="2.5" height="2" rx="1" fill="#BFB9D8" />
            </g>
            <rect opacity="0.2" x="4" y="31.5" width="3" height="3" rx="1.5" fill="#D55E7B" />
            <g opacity="0.3" clip-path="url(#clip5_1713_14206)">
                <rect width="19" height="2" transform="translate(10 32)" fill="#1C1C2C" />
                <rect x="10" y="32" width="9" height="2" rx="1" fill="white" />
                <rect x="26.5" y="32" width="2.5" height="2" rx="1" fill="#BFB9D8" />
            </g>
            <rect x="4" y="37.5" width="3" height="3" rx="1.5" fill="#62626F" />
            <g opacity="0.3" clip-path="url(#clip6_1713_14206)">
                <rect width="19" height="2" transform="translate(10 38)" fill="#1C1C2C" />
                <rect x="10" y="38" width="5.5" height="2" rx="1" fill="white" />
                <rect x="26.5" y="38" width="2.5" height="2" rx="1" fill="#BFB9D8" />
            </g>
            <rect opacity="0.2" x="4" y="67" width="3" height="3" rx="1.5" fill="#BFB9D8" />
            <g opacity="0.3" clip-path="url(#clip7_1713_14206)">
                <rect width="19" height="2" transform="translate(10 67.5)" fill="#1C1C2C" />
                <rect x="10" y="67.5" width="10.5" height="2" rx="1" fill="white" />
            </g>
            <rect opacity="0.2" x="4" y="73" width="3" height="3" rx="1.5" fill="#BFB9D8" />
            <g opacity="0.3" clip-path="url(#clip8_1713_14206)">
                <rect width="19" height="2" transform="translate(10 73.5)" fill="#1C1C2C" />
                <rect x="10" y="73.5" width="12.5" height="2" rx="1" fill="white" />
            </g>
            <rect opacity="0.2" x="4" y="79" width="3" height="3" rx="1.5" fill="#BFB9D8" />
            <g opacity="0.3" clip-path="url(#clip9_1713_14206)">
                <rect width="19" height="2" transform="translate(10 79.5)" fill="#1C1C2C" />
                <rect x="10" y="79.5" width="10.5" height="2" rx="1" fill="white" />
            </g>
            <rect opacity="0.2" x="4" y="85" width="3" height="3" rx="1.5" fill="#BFB9D8" />
            <g opacity="0.3" clip-path="url(#clip10_1713_14206)">
                <rect width="19" height="2" transform="translate(10 85.5)" fill="#1C1C2C" />
                <rect x="10" y="85.5" width="8" height="2" rx="1" fill="white" />
            </g>
            <path
                d="M5.36375 4.29549C5.52877 4.13232 5.61128 4.05073 5.70642 4.02017C5.79011 3.99328 5.88026 3.99328 5.96395 4.02017C6.0591 4.05073 6.14161 4.13232 6.30662 4.29549L7.54414 5.51917C7.70916 5.68234 7.79167 5.76393 7.82258 5.85801C7.84977 5.94076 7.84977 6.0299 7.82258 6.11266C7.79167 6.20674 7.70916 6.28832 7.54414 6.45149L6.30662 7.67517C6.1416 7.83834 6.0591 7.91993 5.96395 7.9505C5.88026 7.97738 5.79011 7.97738 5.70642 7.9505C5.61128 7.91993 5.52877 7.83834 5.36375 7.67517L4.59767 6.91766C4.26763 6.59131 4.10262 6.42814 4.04079 6.23998C3.9864 6.07447 3.9864 5.89619 4.04079 5.73068C4.10262 5.54252 4.26763 5.37935 4.59767 5.05301L5.36375 4.29549Z"
                fill="url(#paint0_radial_1713_14206)"
            />
            <g opacity="0.3" clip-path="url(#clip11_1713_14206)">
                <rect x="9.34277" y="4.48535" width="6.5" height="3" rx="1.5" fill="white" />
                <rect x="16.8428" y="4.48535" width="5" height="3" rx="1.5" fill="white" />
            </g>
        </g>
        <rect width="45" height="91" transform="translate(32 1)" fill="#1F1F31" />
        <rect width="45" height="91" transform="translate(32 1)" fill="#1F1F31" />
        <rect width="58" height="91" transform="translate(77 1)" fill="#1F1F31" />
        <rect x="119" y="4" width="13" height="5" rx="2.5" fill="#B6B6FF" />
        <g opacity="0.2">
            <rect x="81.5" y="11.5" width="14" height="4" rx="2" fill="white" />
            <g clip-path="url(#clip12_1713_14206)">
                <rect width="49.5" height="6" transform="translate(81.5 22.5)" fill="#1C1C2C" />
                <rect x="81.5" y="22.5" width="11" height="2" rx="1" fill="#BFB9D8" />
                <rect x="81.5" y="26.5" width="24.5" height="2" rx="1" fill="white" />
            </g>
            <g clip-path="url(#clip13_1713_14206)">
                <rect width="49.5" height="6" transform="translate(81.5 34.5)" fill="#1C1C2C" />
                <rect x="81.5" y="34.5" width="9" height="2" rx="1" fill="#BFB9D8" />
                <rect x="81.5" y="38.5" width="19.5" height="2" rx="1" fill="white" />
            </g>
            <g clip-path="url(#clip14_1713_14206)">
                <rect width="49.5" height="6" transform="translate(81.5 46.5)" fill="#1C1C2C" />
                <rect x="81.5" y="46.5" width="14" height="2" rx="1" fill="#BFB9D8" />
                <rect x="81.5" y="50.5" width="24.5" height="2" rx="1" fill="white" />
            </g>
            <g clip-path="url(#clip15_1713_14206)">
                <rect width="49.5" height="6" transform="translate(81.5 58.5)" fill="#1C1C2C" />
                <rect x="81.5" y="58.5" width="9" height="2" rx="1" fill="#BFB9D8" />
                <rect x="81.5" y="62.5" width="14.5" height="2" rx="1" fill="white" />
            </g>
        </g>
        <rect x="36.5" y="12.5" width="6" height="6" rx="1.5" fill="#26333D" />
        <g opacity="0.2" clip-path="url(#clip16_1713_14206)">
            <rect width="28" height="6" transform="translate(45.5 12.5)" fill="#1C1C2C" />
            <rect x="45.5" y="12.5" width="9.5" height="2" rx="1" fill="white" />
            <rect x="45.5" y="16.5" width="19" height="2" rx="1" fill="#BFB9D8" />
        </g>
        <rect opacity="0.3" x="36.5" y="23.5" width="6" height="6" rx="1.5" fill="#BFB9D8" />
        <g opacity="0.2" clip-path="url(#clip17_1713_14206)">
            <rect width="28" height="6" transform="translate(45.5 23.5)" fill="#1C1C2C" />
            <rect x="45.5" y="23.5" width="14.5" height="2" rx="1" fill="white" />
            <rect x="45.5" y="27.5" width="24.5" height="2" rx="1" fill="#BFB9D8" />
        </g>
        <rect x="36.5" y="34.5" width="6" height="6" rx="1.5" fill="#3E3537" />
        <g opacity="0.2" clip-path="url(#clip18_1713_14206)">
            <rect width="28" height="6" transform="translate(45.5 34.5)" fill="#1C1C2C" />
            <rect x="45.5" y="34.5" width="11.5" height="2" rx="1" fill="white" />
            <rect x="45.5" y="38.5" width="22.5" height="2" rx="1" fill="#BFB9D8" />
        </g>
        <rect x="36.5" y="45.5" width="6" height="6" rx="1.5" fill="#30284A" />
        <g opacity="0.2" clip-path="url(#clip19_1713_14206)">
            <rect width="28" height="6" transform="translate(45.5 45.5)" fill="#1C1C2C" />
            <rect x="45.5" y="45.5" width="15" height="2" rx="1" fill="white" />
            <rect x="45.5" y="49.5" width="21.5" height="2" rx="1" fill="#BFB9D8" />
        </g>
        <rect opacity="0.3" x="36.5" y="56.5" width="6" height="6" rx="1.5" fill="#BFB9D8" />
        <g opacity="0.2" clip-path="url(#clip20_1713_14206)">
            <rect width="28" height="6" transform="translate(45.5 56.5)" fill="#1C1C2C" />
            <rect x="45.5" y="56.5" width="8.5" height="2" rx="1" fill="white" />
            <rect x="45.5" y="60.5" width="19" height="2" rx="1" fill="#BFB9D8" />
        </g>
        <rect opacity="0.3" x="36.5" y="67.5" width="6" height="6" rx="1.5" fill="#BFB9D8" />
        <g opacity="0.2" clip-path="url(#clip21_1713_14206)">
            <rect width="28" height="6" transform="translate(45.5 67.5)" fill="#1C1C2C" />
            <rect x="45.5" y="67.5" width="11.5" height="2" rx="1" fill="white" />
            <rect x="45.5" y="71.5" width="22.5" height="2" rx="1" fill="#BFB9D8" />
        </g>
        <rect x="36.5" y="78.5" width="6" height="6" rx="1.5" fill="#30284A" />
        <g opacity="0.2" clip-path="url(#clip22_1713_14206)">
            <rect width="28" height="6" transform="translate(45.5 78.5)" fill="#1C1C2C" />
            <rect x="45.5" y="78.5" width="9.5" height="2" rx="1" fill="white" />
            <rect x="45.5" y="82.5" width="14" height="2" rx="1" fill="#BFB9D8" />
        </g>
        <rect x="36.5" y="89.5" width="6" height="6" rx="1.5" fill="#26333D" />
        <g opacity="0.2" clip-path="url(#clip23_1713_14206)">
            <rect width="28" height="6" transform="translate(45.5 89.5)" fill="#1C1C2C" />
            <rect x="45.5" y="89.5" width="14.5" height="2" rx="1" fill="white" />
        </g>
        <rect x="36" y="4" width="79.5" height="5" rx="2.5" fill="#191926" />
    </g>
    <rect x="0.5" y="0.5" width="135" height="92" rx="5.5" stroke="#7A7AAD" />
    <defs>
        <radialGradient
            id="paint0_radial_1713_14206"
            cx="0"
            cy="0"
            r="1"
            gradientUnits="userSpaceOnUse"
            gradientTransform="translate(5.08094 7.94011) rotate(-57.8524) scale(3.15103 4.95192)"
        >
            <stop stop-color="#FFD580" />
            <stop offset="0.09375" stop-color="#F6C592" />
            <stop offset="0.205" stop-color="#EBB6A2" />
            <stop offset="0.324466" stop-color="#DFA5AF" />
            <stop offset="0.42875" stop-color="#D397BE" />
            <stop offset="0.53375" stop-color="#C486CB" />
            <stop offset="0.64875" stop-color="#B578D9" />
            <stop offset="0.77125" stop-color="#A166E5" />
            <stop offset="0.89125" stop-color="#8B57F2" />
            <stop offset="1" stop-color="#704CFF" />
        </radialGradient>
        <clipPath id="clip0_1713_14206">
            <rect x="1" y="1" width="134" height="91" rx="5" fill="white" />
        </clipPath>
        <clipPath id="clip1_1713_14206">
            <rect width="31" height="91" fill="white" transform="translate(1 1)" />
        </clipPath>
        <clipPath id="clip2_1713_14206">
            <rect width="19" height="2" fill="white" transform="translate(10 14)" />
        </clipPath>
        <clipPath id="clip3_1713_14206">
            <rect width="19" height="2" fill="white" transform="translate(10 20)" />
        </clipPath>
        <clipPath id="clip4_1713_14206">
            <rect width="19" height="2" fill="white" transform="translate(10 26)" />
        </clipPath>
        <clipPath id="clip5_1713_14206">
            <rect width="19" height="2" fill="white" transform="translate(10 32)" />
        </clipPath>
        <clipPath id="clip6_1713_14206">
            <rect width="19" height="2" fill="white" transform="translate(10 38)" />
        </clipPath>
        <clipPath id="clip7_1713_14206">
            <rect width="19" height="2" fill="white" transform="translate(10 67.5)" />
        </clipPath>
        <clipPath id="clip8_1713_14206">
            <rect width="19" height="2" fill="white" transform="translate(10 73.5)" />
        </clipPath>
        <clipPath id="clip9_1713_14206">
            <rect width="19" height="2" fill="white" transform="translate(10 79.5)" />
        </clipPath>
        <clipPath id="clip10_1713_14206">
            <rect width="19" height="2" fill="white" transform="translate(10 85.5)" />
        </clipPath>
        <clipPath id="clip11_1713_14206">
            <rect width="28" height="3" fill="white" transform="translate(9.34277 4.48535)" />
        </clipPath>
        <clipPath id="clip12_1713_14206">
            <rect width="49.5" height="6" fill="white" transform="translate(81.5 22.5)" />
        </clipPath>
        <clipPath id="clip13_1713_14206">
            <rect width="49.5" height="6" fill="white" transform="translate(81.5 34.5)" />
        </clipPath>
        <clipPath id="clip14_1713_14206">
            <rect width="49.5" height="6" fill="white" transform="translate(81.5 46.5)" />
        </clipPath>
        <clipPath id="clip15_1713_14206">
            <rect width="49.5" height="6" fill="white" transform="translate(81.5 58.5)" />
        </clipPath>
        <clipPath id="clip16_1713_14206">
            <rect width="28" height="6" fill="white" transform="translate(45.5 12.5)" />
        </clipPath>
        <clipPath id="clip17_1713_14206">
            <rect width="28" height="6" fill="white" transform="translate(45.5 23.5)" />
        </clipPath>
        <clipPath id="clip18_1713_14206">
            <rect width="28" height="6" fill="white" transform="translate(45.5 34.5)" />
        </clipPath>
        <clipPath id="clip19_1713_14206">
            <rect width="28" height="6" fill="white" transform="translate(45.5 45.5)" />
        </clipPath>
        <clipPath id="clip20_1713_14206">
            <rect width="28" height="6" fill="white" transform="translate(45.5 56.5)" />
        </clipPath>
        <clipPath id="clip21_1713_14206">
            <rect width="28" height="6" fill="white" transform="translate(45.5 67.5)" />
        </clipPath>
        <clipPath id="clip22_1713_14206">
            <rect width="28" height="6" fill="white" transform="translate(45.5 78.5)" />
        </clipPath>
        <clipPath id="clip23_1713_14206">
            <rect width="28" height="6" fill="white" transform="translate(45.5 89.5)" />
        </clipPath>
    </defs>
</svg>
