<svg width="134" height="91" viewBox="0 0 134 91" fill="none" xmlns="http://www.w3.org/2000/svg">
    <g clip-path="url(#clip0_1713_9873)">
        <rect width="134" height="91" rx="5" fill="#1F1F31" />
        <g clip-path="url(#clip1_1713_9873)">
            <rect width="31" height="91" fill="#F4F0FE" />
            <rect x="3" y="12.5" width="3" height="3" rx="1.5" fill="#ECE5FF" />
            <g opacity="0.3" clip-path="url(#clip2_1713_9873)">
                <rect width="19" height="2" transform="translate(9 13)" fill="white" />
                <rect x="9" y="13" width="10.5" height="2" rx="1" fill="#2B2442" />
                <rect x="25.5" y="13" width="2.5" height="2" rx="1" fill="#52527A" />
            </g>
            <rect opacity="0.3" x="3" y="18.5" width="3" height="3" rx="1.5" fill="#149AA1" />
            <g opacity="0.3" clip-path="url(#clip3_1713_9873)">
                <rect width="19" height="2" transform="translate(9 19)" fill="white" />
                <rect x="9" y="19" width="5.5" height="2" rx="1" fill="#2B2442" />
                <rect x="25.5" y="19" width="2.5" height="2" rx="1" fill="#52527A" />
            </g>
            <rect x="3" y="24.5" width="3" height="3" rx="1.5" fill="#ECDFFA" />
            <g opacity="0.3" clip-path="url(#clip4_1713_9873)">
                <rect width="19" height="2" transform="translate(9 25)" fill="white" />
                <rect x="9" y="25" width="8" height="2" rx="1" fill="#2B2442" />
                <rect x="25.5" y="25" width="2.5" height="2" rx="1" fill="#52527A" />
            </g>
            <rect opacity="0.2" x="3" y="30.5" width="3" height="3" rx="1.5" fill="#D55E7B" />
            <g opacity="0.3" clip-path="url(#clip5_1713_9873)">
                <rect width="19" height="2" transform="translate(9 31)" fill="white" />
                <rect x="9" y="31" width="9" height="2" rx="1" fill="#2B2442" />
                <rect x="25.5" y="31" width="2.5" height="2" rx="1" fill="#52527A" />
            </g>
            <rect x="3" y="36.5" width="3" height="3" rx="1.5" fill="#62626F" />
            <g opacity="0.3" clip-path="url(#clip6_1713_9873)">
                <rect width="19" height="2" transform="translate(9 37)" fill="white" />
                <rect x="9" y="37" width="5.5" height="2" rx="1" fill="#2B2442" />
                <rect x="25.5" y="37" width="2.5" height="2" rx="1" fill="#52527A" />
            </g>
            <rect opacity="0.2" x="3" y="66" width="3" height="3" rx="1.5" fill="#52527A" />
            <g opacity="0.3" clip-path="url(#clip7_1713_9873)">
                <rect width="19" height="2" transform="translate(9 66.5)" fill="white" />
                <rect x="9" y="66.5" width="10.5" height="2" rx="1" fill="#2B2442" />
            </g>
            <rect opacity="0.2" x="3" y="72" width="3" height="3" rx="1.5" fill="#52527A" />
            <g opacity="0.3" clip-path="url(#clip8_1713_9873)">
                <rect width="19" height="2" transform="translate(9 72.5)" fill="white" />
                <rect x="9" y="72.5" width="12.5" height="2" rx="1" fill="#2B2442" />
            </g>
            <rect opacity="0.2" x="3" y="78" width="3" height="3" rx="1.5" fill="#52527A" />
            <g opacity="0.3" clip-path="url(#clip9_1713_9873)">
                <rect width="19" height="2" transform="translate(9 78.5)" fill="white" />
                <rect x="9" y="78.5" width="10.5" height="2" rx="1" fill="#2B2442" />
            </g>
            <rect opacity="0.2" x="3" y="84" width="3" height="3" rx="1.5" fill="#52527A" />
            <g opacity="0.3" clip-path="url(#clip10_1713_9873)">
                <rect width="19" height="2" transform="translate(9 84.5)" fill="white" />
                <rect x="9" y="84.5" width="8" height="2" rx="1" fill="#2B2442" />
            </g>
            <path
                d="M4.36375 3.29549C4.52877 3.13232 4.61128 3.05073 4.70642 3.02017C4.79011 2.99328 4.88026 2.99328 4.96395 3.02017C5.0591 3.05073 5.14161 3.13232 5.30662 3.29549L6.54414 4.51917C6.70916 4.68234 6.79167 4.76393 6.82258 4.85801C6.84977 4.94076 6.84977 5.0299 6.82258 5.11266C6.79167 5.20674 6.70916 5.28832 6.54414 5.45149L5.30662 6.67517C5.1416 6.83834 5.0591 6.91993 4.96395 6.9505C4.88026 6.97738 4.79011 6.97738 4.70642 6.9505C4.61128 6.91993 4.52877 6.83834 4.36375 6.67517L3.59767 5.91766C3.26763 5.59131 3.10262 5.42814 3.04079 5.23998C2.9864 5.07447 2.9864 4.89619 3.04079 4.73068C3.10262 4.54252 3.26763 4.37935 3.59767 4.05301L4.36375 3.29549Z"
                fill="url(#paint0_radial_1713_9873)"
            />
            <g opacity="0.3" clip-path="url(#clip11_1713_9873)">
                <rect x="8.34277" y="3.48535" width="6.5" height="3" rx="1.5" fill="#2B2442" />
                <rect x="15.8428" y="3.48535" width="5" height="3" rx="1.5" fill="#2B2442" />
            </g>
        </g>
        <rect width="45" height="91" transform="translate(31)" fill="#FBF9FE" />
        <rect width="45" height="91" transform="translate(31)" fill="#FBF9FE" />
        <rect width="58" height="91" transform="translate(76)" fill="#FBF9FE" />
        <rect x="118" y="3" width="13" height="5" rx="2.5" fill="#5817D1" />
        <g opacity="0.2">
            <rect x="80.5" y="10.5" width="14" height="4" rx="2" fill="white" />
            <g clip-path="url(#clip12_1713_9873)">
                <rect width="49.5" height="6" transform="translate(80.5 21.5)" fill="white" />
                <rect x="80.5" y="21.5" width="11" height="2" rx="1" fill="#52527A" />
                <rect x="80.5" y="25.5" width="24.5" height="2" rx="1" fill="#2B2442" />
            </g>
            <g clip-path="url(#clip13_1713_9873)">
                <rect width="49.5" height="6" transform="translate(80.5 33.5)" fill="white" />
                <rect x="80.5" y="33.5" width="9" height="2" rx="1" fill="#52527A" />
                <rect x="80.5" y="37.5" width="19.5" height="2" rx="1" fill="#2B2442" />
            </g>
            <g clip-path="url(#clip14_1713_9873)">
                <rect width="49.5" height="6" transform="translate(80.5 45.5)" fill="white" />
                <rect x="80.5" y="45.5" width="14" height="2" rx="1" fill="#52527A" />
                <rect x="80.5" y="49.5" width="24.5" height="2" rx="1" fill="#2B2442" />
            </g>
            <g clip-path="url(#clip15_1713_9873)">
                <rect width="49.5" height="6" transform="translate(80.5 57.5)" fill="white" />
                <rect x="80.5" y="57.5" width="9" height="2" rx="1" fill="#52527A" />
                <rect x="80.5" y="61.5" width="14.5" height="2" rx="1" fill="#2B2442" />
            </g>
        </g>
        <rect x="35.5" y="11.5" width="6" height="6" rx="1.5" fill="#DBF0ED" />
        <g opacity="0.2" clip-path="url(#clip16_1713_9873)">
            <rect width="28" height="6" transform="translate(44.5 11.5)" fill="white" />
            <rect x="44.5" y="11.5" width="9.5" height="2" rx="1" fill="#2B2442" />
            <rect x="44.5" y="15.5" width="19" height="2" rx="1" fill="#52527A" />
        </g>
        <rect opacity="0.3" x="35.5" y="22.5" width="6" height="6" rx="1.5" fill="#52527A" />
        <g opacity="0.2" clip-path="url(#clip17_1713_9873)">
            <rect width="28" height="6" transform="translate(44.5 22.5)" fill="white" />
            <rect x="44.5" y="22.5" width="14.5" height="2" rx="1" fill="#2B2442" />
            <rect x="44.5" y="26.5" width="24.5" height="2" rx="1" fill="#52527A" />
        </g>
        <rect x="35.5" y="33.5" width="6" height="6" rx="1.5" fill="#F0EBDB" />
        <g opacity="0.2" clip-path="url(#clip18_1713_9873)">
            <rect width="28" height="6" transform="translate(44.5 33.5)" fill="white" />
            <rect x="44.5" y="33.5" width="11.5" height="2" rx="1" fill="#2B2442" />
            <rect x="44.5" y="37.5" width="22.5" height="2" rx="1" fill="#52527A" />
        </g>
        <rect x="35.5" y="44.5" width="6" height="6" rx="1.5" fill="#ECDFFA" />
        <g opacity="0.2" clip-path="url(#clip19_1713_9873)">
            <rect width="28" height="6" transform="translate(44.5 44.5)" fill="white" />
            <rect x="44.5" y="44.5" width="15" height="2" rx="1" fill="#2B2442" />
            <rect x="44.5" y="48.5" width="21.5" height="2" rx="1" fill="#52527A" />
        </g>
        <rect opacity="0.3" x="35.5" y="55.5" width="6" height="6" rx="1.5" fill="#52527A" />
        <g opacity="0.2" clip-path="url(#clip20_1713_9873)">
            <rect width="28" height="6" transform="translate(44.5 55.5)" fill="white" />
            <rect x="44.5" y="55.5" width="8.5" height="2" rx="1" fill="#2B2442" />
            <rect x="44.5" y="59.5" width="19" height="2" rx="1" fill="#52527A" />
        </g>
        <rect opacity="0.3" x="35.5" y="66.5" width="6" height="6" rx="1.5" fill="#52527A" />
        <g opacity="0.2" clip-path="url(#clip21_1713_9873)">
            <rect width="28" height="6" transform="translate(44.5 66.5)" fill="white" />
            <rect x="44.5" y="66.5" width="11.5" height="2" rx="1" fill="#2B2442" />
            <rect x="44.5" y="70.5" width="22.5" height="2" rx="1" fill="#52527A" />
        </g>
        <rect x="35.5" y="77.5" width="6" height="6" rx="1.5" fill="#ECDFFA" />
        <g opacity="0.2" clip-path="url(#clip22_1713_9873)">
            <rect width="28" height="6" transform="translate(44.5 77.5)" fill="white" />
            <rect x="44.5" y="77.5" width="9.5" height="2" rx="1" fill="#2B2442" />
            <rect x="44.5" y="81.5" width="14" height="2" rx="1" fill="#52527A" />
        </g>
        <rect x="35.5" y="88.5" width="6" height="6" rx="1.5" fill="#DBF0ED" />
        <g opacity="0.2" clip-path="url(#clip23_1713_9873)">
            <rect width="28" height="6" transform="translate(44.5 88.5)" fill="white" />
            <rect x="44.5" y="88.5" width="14.5" height="2" rx="1" fill="#2B2442" />
        </g>
        <rect x="35" y="3" width="79.5" height="5" rx="2.5" fill="#F4F0FE" />
    </g>
    <rect x="0.5" y="0.5" width="133" height="90" rx="4.5" stroke="#9994D1" />
    <defs>
        <radialGradient
            id="paint0_radial_1713_9873"
            cx="0"
            cy="0"
            r="1"
            gradientUnits="userSpaceOnUse"
            gradientTransform="translate(4.08094 6.94011) rotate(-57.8524) scale(3.15103 4.95192)"
        >
            <stop stop-color="#FFD580" />
            <stop offset="0.09375" stop-color="#F6C592" />
            <stop offset="0.205" stop-color="#EBB6A2" />
            <stop offset="0.324466" stop-color="#DFA5AF" />
            <stop offset="0.42875" stop-color="#D397BE" />
            <stop offset="0.53375" stop-color="#C486CB" />
            <stop offset="0.64875" stop-color="#B578D9" />
            <stop offset="0.77125" stop-color="#A166E5" />
            <stop offset="0.89125" stop-color="#8B57F2" />
            <stop offset="1" stop-color="#704CFF" />
        </radialGradient>
        <clipPath id="clip0_1713_9873">
            <rect width="134" height="91" rx="5" fill="white" />
        </clipPath>
        <clipPath id="clip1_1713_9873">
            <rect width="31" height="91" fill="white" />
        </clipPath>
        <clipPath id="clip2_1713_9873">
            <rect width="19" height="2" fill="white" transform="translate(9 13)" />
        </clipPath>
        <clipPath id="clip3_1713_9873">
            <rect width="19" height="2" fill="white" transform="translate(9 19)" />
        </clipPath>
        <clipPath id="clip4_1713_9873">
            <rect width="19" height="2" fill="white" transform="translate(9 25)" />
        </clipPath>
        <clipPath id="clip5_1713_9873">
            <rect width="19" height="2" fill="white" transform="translate(9 31)" />
        </clipPath>
        <clipPath id="clip6_1713_9873">
            <rect width="19" height="2" fill="white" transform="translate(9 37)" />
        </clipPath>
        <clipPath id="clip7_1713_9873">
            <rect width="19" height="2" fill="white" transform="translate(9 66.5)" />
        </clipPath>
        <clipPath id="clip8_1713_9873">
            <rect width="19" height="2" fill="white" transform="translate(9 72.5)" />
        </clipPath>
        <clipPath id="clip9_1713_9873">
            <rect width="19" height="2" fill="white" transform="translate(9 78.5)" />
        </clipPath>
        <clipPath id="clip10_1713_9873">
            <rect width="19" height="2" fill="white" transform="translate(9 84.5)" />
        </clipPath>
        <clipPath id="clip11_1713_9873">
            <rect width="28" height="3" fill="white" transform="translate(8.34277 3.48535)" />
        </clipPath>
        <clipPath id="clip12_1713_9873">
            <rect width="49.5" height="6" fill="white" transform="translate(80.5 21.5)" />
        </clipPath>
        <clipPath id="clip13_1713_9873">
            <rect width="49.5" height="6" fill="white" transform="translate(80.5 33.5)" />
        </clipPath>
        <clipPath id="clip14_1713_9873">
            <rect width="49.5" height="6" fill="white" transform="translate(80.5 45.5)" />
        </clipPath>
        <clipPath id="clip15_1713_9873">
            <rect width="49.5" height="6" fill="white" transform="translate(80.5 57.5)" />
        </clipPath>
        <clipPath id="clip16_1713_9873">
            <rect width="28" height="6" fill="white" transform="translate(44.5 11.5)" />
        </clipPath>
        <clipPath id="clip17_1713_9873">
            <rect width="28" height="6" fill="white" transform="translate(44.5 22.5)" />
        </clipPath>
        <clipPath id="clip18_1713_9873">
            <rect width="28" height="6" fill="white" transform="translate(44.5 33.5)" />
        </clipPath>
        <clipPath id="clip19_1713_9873">
            <rect width="28" height="6" fill="white" transform="translate(44.5 44.5)" />
        </clipPath>
        <clipPath id="clip20_1713_9873">
            <rect width="28" height="6" fill="white" transform="translate(44.5 55.5)" />
        </clipPath>
        <clipPath id="clip21_1713_9873">
            <rect width="28" height="6" fill="white" transform="translate(44.5 66.5)" />
        </clipPath>
        <clipPath id="clip22_1713_9873">
            <rect width="28" height="6" fill="white" transform="translate(44.5 77.5)" />
        </clipPath>
        <clipPath id="clip23_1713_9873">
            <rect width="28" height="6" fill="white" transform="translate(44.5 88.5)" />
        </clipPath>
    </defs>
</svg>
