<svg xmlns="http://www.w3.org/2000/svg" fill="none" viewBox="0 0 411 204">
    <g clip-path="url(#a)">
        <rect width="410" height="204" x=".5" fill="#F5F4F2" rx="20" />
        <rect width="512" height="204" x="-50" fill="url(#b)" rx="12" />
        <g filter="url(#c)"><path fill="#FF50C3" d="M151 71.2h116.2l-9.15 68.6h-97.9L151 71.2Z" /></g>
        <g filter="url(#d)"><ellipse cx="208.4" cy="75.4" fill="#fff" rx="54.6" ry="8.4" /></g>
        <path
            fill="url(#e)"
            fill-opacity=".3"
            d="M180.072 83.072c1.53 0 3.019.495 4.242 1.412l5.658 4.246a7.068 7.068 0 0 0 4.242 1.412h24.75a5.896 5.896 0 0 1 5.894 5.894V130h-44.786a7.073 7.073 0 0 1-7.072-7.072V83.072h7.072Z"
        />
        <path
            fill="url(#f)"
            fill-opacity=".3"
            d="M180.072 83.072c1.53 0 3.019.495 4.242 1.412l5.658 4.246a7.068 7.068 0 0 0 4.242 1.412h24.75a5.896 5.896 0 0 1 5.894 5.894V130h-44.786a7.073 7.073 0 0 1-7.072-7.072V83.072h7.072Z"
        />
        <path
            fill="url(#g)"
            d="M231.928 127v3h-51.856v-3h51.856Zm4.072-4.072V87.786a4.073 4.073 0 0 0-4.072-4.072h-28.931c-1.864 0-3.685-.517-5.265-1.486l-.659-.442-2.762-2.007a4.078 4.078 0 0 0-2.397-.779h-11.842a4.073 4.073 0 0 0-4.046 3.606l-.026.551v39.771a4.073 4.073 0 0 0 4.072 4.072v3a7.073 7.073 0 0 1-7.072-7.072V83.072l.035-.723A7.075 7.075 0 0 1 180.072 76h11.842c1.495 0 2.952.475 4.16 1.353l2.763 2.007a7.077 7.077 0 0 0 4.16 1.354h28.931A7.073 7.073 0 0 1 239 87.786v35.142a7.073 7.073 0 0 1-7.072 7.072v-3a4.073 4.073 0 0 0 4.072-4.072Z"
        />
        <path
            fill="url(#h)"
            d="M221.858 96.036a2.895 2.895 0 0 0-2.894-2.894h-24.75a10.07 10.07 0 0 1-6.041-2.013l-5.66-4.245a4.067 4.067 0 0 0-2.113-.797l-.328-.015H176v36.856a4.073 4.073 0 0 0 4.072 4.072v3a7.073 7.073 0 0 1-7.072-7.072V83.072h7.072c1.53 0 3.019.495 4.242 1.412l5.658 4.246a7.068 7.068 0 0 0 4.242 1.412h24.75a5.896 5.896 0 0 1 5.894 5.894V130h-44.786v-3h41.786V96.036Z"
        />
        <path
            fill="#B3A3F5"
            fill-opacity=".3"
            d="m270.805 49.809 2.488-6.226a2.144 2.144 0 0 0-1.203-2.791A2.163 2.163 0 0 0 269.288 42l-2.488 6.225a2.143 2.143 0 0 0 1.203 2.791 2.163 2.163 0 0 0 2.802-1.207ZM302.423 72.785 300.4 69 288 75.556l2.023 3.785 12.4-6.556ZM322.357 35h-4.238L316 38.644l2.119 3.68h4.238l2.119-3.68L322.357 35ZM300.65 112l-7.65 6.001 9.087 3.573L300.65 112ZM351.675 112.726l6.609-1.122a2.144 2.144 0 0 0 1.755-2.482 2.163 2.163 0 0 0-2.491-1.762l-6.61 1.122a2.144 2.144 0 0 0-1.755 2.482 2.164 2.164 0 0 0 2.492 1.762ZM348.548 151.686l2.176-3.7-12.059-7.165-2.176 3.699 12.059 7.166ZM391.185 149.002l-2.209-3.617-4.214.09-2.036 3.727 2.209 3.617 4.245-.11 2.005-3.707ZM314.158 170.613l-9.11-3.4 1.688 9.617 7.422-6.217ZM385.675 22.726l6.609-1.122a2.144 2.144 0 0 0 1.755-2.482 2.163 2.163 0 0 0-2.491-1.762l-6.61 1.122a2.145 2.145 0 0 0-1.755 2.482 2.164 2.164 0 0 0 2.492 1.762ZM382.548 61.685l2.176-3.699-12.059-7.165-2.176 3.7 12.059 7.164ZM348.158 80.613l-9.11-3.4 1.688 9.617 7.422-6.217ZM120.339 159.993l-4.014 5.369a2.143 2.143 0 0 0 .44 3.008 2.164 2.164 0 0 0 3.019-.442l4.014-5.369a2.144 2.144 0 0 0-.44-3.008 2.162 2.162 0 0 0-3.019.442ZM95.745 129.616l.975 4.179 13.674-3.123-.974-4.179-13.675 3.123ZM66.71 160.954l4.095 1.097 2.99-2.971-1.095-4.103-4.094-1.097-2.999 3.006 1.104 4.068ZM107.606 92.195l8.943-3.816-7.852-5.803-1.091 9.62ZM58.51 78.289l-6.675-.627a2.144 2.144 0 0 0-2.338 1.943 2.163 2.163 0 0 0 1.95 2.346l6.675.628a2.144 2.144 0 0 0 2.338-1.944 2.163 2.163 0 0 0-1.95-2.346ZM71.613 41.466l-3.06 3.01 9.794 10.043 3.059-3.01-9.793-10.043ZM29.734 33.023l1.197 4.066 4.095 1.003 2.93-3.073-1.198-4.066-4.128-.992-2.896 3.062ZM109.73 32.084l7.919 5.642.859-9.726-8.778 4.084ZM2.374 156.422l-6.675-.627a2.144 2.144 0 0 0-2.338 1.943 2.164 2.164 0 0 0 1.951 2.347l6.675.627a2.144 2.144 0 0 0 2.337-1.944 2.163 2.163 0 0 0-1.95-2.346ZM15.477 119.599l-3.059 3.01 9.793 10.043 3.06-3.011-9.794-10.042ZM53.595 110.217l7.919 5.642.858-9.726-8.777 4.084Z"
        />
    </g>
    <defs>
        <linearGradient id="e" x1="198.966" x2="203.767" y1="59.32" y2="121.104" gradientUnits="userSpaceOnUse">
            <stop offset=".989" stop-color="#fff" />
        </linearGradient>
        <linearGradient id="g" x1="209.3" x2="174.125" y1="88.462" y2="128.495" gradientUnits="userSpaceOnUse">
            <stop stop-color="#fff" />
            <stop offset="1" stop-color="#fff" />
        </linearGradient>
        <linearGradient id="h" x1="209.3" x2="174.125" y1="88.462" y2="128.495" gradientUnits="userSpaceOnUse">
            <stop stop-color="#fff" />
            <stop offset="1" stop-color="#fff" />
        </linearGradient>
        <radialGradient
            id="b"
            cx="0"
            cy="0"
            r="1"
            gradientTransform="matrix(-299.47853 285.71826 -391.84745 -410.71893 388.061 -65.413)"
            gradientUnits="userSpaceOnUse"
        >
            <stop stop-color="#6D4AFF" />
            <stop offset="1" stop-color="#1C1B24" />
        </radialGradient>
        <radialGradient
            id="f"
            cx="0"
            cy="0"
            r="1"
            gradientTransform="rotate(114.112 87.528 101.093) scale(80.4669 118.228)"
            gradientUnits="userSpaceOnUse"
        >
            <stop offset=".556" stop-color="#FF62C0" stop-opacity="0" />
            <stop offset=".994" stop-color="#FF62C0" />
        </radialGradient>
        <filter
            id="c"
            width="200.2"
            height="152.6"
            x="109"
            y="29.2"
            color-interpolation-filters="sRGB"
            filterUnits="userSpaceOnUse"
        >
            <feFlood flood-opacity="0" result="BackgroundImageFix" />
            <feBlend in="SourceGraphic" in2="BackgroundImageFix" result="shape" />
            <feGaussianBlur result="effect1_foregroundBlur_110_123322" stdDeviation="21" />
        </filter>
        <filter
            id="d"
            width="203.829"
            height="111.429"
            x="106.486"
            y="19.686"
            color-interpolation-filters="sRGB"
            filterUnits="userSpaceOnUse"
        >
            <feFlood flood-opacity="0" result="BackgroundImageFix" />
            <feBlend in="SourceGraphic" in2="BackgroundImageFix" result="shape" />
            <feGaussianBlur result="effect1_foregroundBlur_110_123322" stdDeviation="23.657" />
        </filter>
        <clipPath id="a"><rect width="410" height="204" x=".5" fill="#fff" rx="20" /></clipPath>
    </defs>
</svg>
