<svg width="24" height="24" viewBox="0 0 24 24" fill="none" xmlns="http://www.w3.org/2000/svg">
    <rect width="24" height="24" fill="white" />
    <path
        d="M7.28571 6.99997C6.57563 6.99997 6 7.56281 6 8.25711V8.87618L6.42857 9.29523V16.419L15 12.2286L15.4286 12.6476H18V8.25711C18 7.56281 17.4244 6.99997 16.7143 6.99997H7.28571Z"
        fill="url(#paint0_linear_13875_14087)"
    />
    <path
        d="M14.4184 8.87619H6.00002L6 15.7927C6 16.4595 6.55279 17 7.23469 17L11.5714 17L13.6596 13.7683C13.7798 13.1306 14.3513 12.6476 15.0382 12.6476L15.4286 12.6476L15.4286 9.86395C15.4286 9.31842 14.9763 8.87619 14.4184 8.87619Z"
        fill="url(#paint1_radial_13875_14087)"
    />
    <path
        d="M11.5714 17V16.3747C11.5714 16.1324 11.6573 15.8976 11.8144 15.7103L13.8808 13.247C13.9347 13.168 13.9964 13.0944 14.0649 13.0275L13.8808 13.247C13.7264 13.4736 13.6363 13.7458 13.6363 14.0385V17H11.5714Z"
        fill="#B8D7FF"
    />
    <path
        d="M14.8286 15.3234H15.2659C15.2837 15.3972 15.3281 15.4624 15.3915 15.5078C15.4536 15.5533 15.5309 15.5767 15.6095 15.573C15.8073 15.573 15.9379 15.4673 15.9379 15.3124C15.9379 15.1575 15.8022 15.0714 15.5335 15.0714H15.3598V14.7223H15.5106C15.7705 14.7223 15.877 14.6288 15.877 14.4899C15.877 14.351 15.7617 14.2551 15.6019 14.2551C15.5309 14.2514 15.4599 14.2736 15.4067 14.319C15.3522 14.3645 15.3192 14.4285 15.3129 14.4973H14.8907C14.9059 14.2539 15.1037 13.9048 15.5994 13.9048C15.9975 13.9048 16.2726 14.1248 16.2726 14.4346C16.2726 14.5342 16.2409 14.6313 16.18 14.7112C16.1192 14.7911 16.0342 14.8514 15.9366 14.8809V14.887C16.0507 14.9067 16.1534 14.9657 16.2257 15.053C16.2979 15.1403 16.336 15.2497 16.3322 15.3628C16.3322 15.6984 16.0152 15.9197 15.6057 15.9197C15.1709 15.9221 14.8602 15.6824 14.8286 15.3234Z"
        fill="#A282FF"
    />
    <path d="M17.0967 13.9381H17.4149V15.8916H17.0041V14.393L16.6086 14.6536V14.259L17.0967 13.9381Z" fill="#A282FF" />
    <defs>
        <linearGradient
            id="paint0_linear_13875_14087"
            x1="16.0811"
            y1="13.5008"
            x2="9.29345"
            y2="3.41528"
            gradientUnits="userSpaceOnUse"
        >
            <stop stop-color="#BFE8FF" />
            <stop offset="0.3075" stop-color="#BFABFF" />
            <stop offset="1" stop-color="#7341FF" />
        </linearGradient>
        <radialGradient
            id="paint1_radial_13875_14087"
            cx="0"
            cy="0"
            r="1"
            gradientUnits="userSpaceOnUse"
            gradientTransform="translate(15.068 2.26565) scale(19.2507 16.7404)"
        >
            <stop offset="0.502942" stop-color="#6D4AFF" />
            <stop offset="0.9944" stop-color="#06B8FF" />
        </radialGradient>
    </defs>
</svg>
