<svg width="158" height="99" viewBox="0 0 158 99" fill="none" xmlns="http://www.w3.org/2000/svg">
    <path
        d="M115.654 60.5639C115.654 53.9399 121.024 48.5701 127.648 48.5701C134.272 48.5701 139.642 53.9399 139.642 60.5639C139.642 67.1879 134.272 72.5577 127.648 72.5577C121.024 72.5577 115.654 67.1879 115.654 60.5639Z"
        fill="url(#paint0_linear_39068_20618)"
    />
    <path
        d="M134.836 65.0455C135.04 65.0455 135.205 64.8802 135.205 64.6763C135.205 64.4723 135.04 64.307 134.836 64.307L132.986 64.307L132.986 62.457C132.986 62.2531 132.821 62.0878 132.617 62.0878C132.413 62.0878 132.248 62.2531 132.248 62.457L132.248 64.307L130.398 64.307C130.194 64.307 130.028 64.4723 130.028 64.6763C130.028 64.8802 130.194 65.0455 130.398 65.0455L132.248 65.0455L132.248 66.8955C132.248 67.0994 132.413 67.2647 132.617 67.2647C132.821 67.2647 132.986 67.0994 132.986 66.8955L132.986 65.0455L134.836 65.0455Z"
        fill="white"
    />
    <path
        d="M126.938 58.5421C128.272 58.5421 129.354 57.4605 129.354 56.1263C129.354 54.792 128.272 53.7104 126.938 53.7104C125.604 53.7104 124.522 54.792 124.522 56.1263C124.522 57.4605 125.604 58.5421 126.938 58.5421Z"
        fill="white"
    />
    <path
        d="M126.981 59.5591C128.274 59.5592 129.449 59.97 130.406 60.6763C129 61.4552 128.048 62.9547 128.048 64.6763C128.048 64.9106 128.066 65.1409 128.1 65.3657H123.59C122.149 65.3657 121.174 63.797 121.895 62.5679C122.869 60.788 124.777 59.5591 126.981 59.5591Z"
        fill="white"
    />
    <path
        d="M12.8503 24.5827C12.8503 16.0661 19.7544 9.16211 28.2709 9.16211C36.7875 9.16211 43.6916 16.0661 43.6916 24.5827V40.0033H28.2709C19.7544 40.0033 12.8503 33.0993 12.8503 24.5827Z"
        fill="url(#paint1_linear_39068_20618)"
    />
    <path
        d="M22.3922 26.4196L26.8887 31.2573C27.4898 31.904 28.5135 31.904 29.1146 31.2573L33.6111 26.4196C34.9397 24.9903 34.9062 22.7507 33.5355 21.3627C32.1349 19.9445 29.8641 19.9445 28.4634 21.3627L28.0017 21.8303L27.5399 21.3627C26.1393 19.9445 23.8684 19.9445 22.4678 21.3627C21.0971 22.7507 21.0636 24.9903 22.3922 26.4196Z"
        fill="white"
    />
    <g filter="url(#filter0_d_39068_20618)">
        <path
            d="M53.972 33.34C53.972 25.1914 60.5778 18.5857 68.7263 18.5857H92.3332C100.482 18.5857 107.087 25.1914 107.087 33.34V56.9468C107.087 65.0954 100.482 71.7011 92.3332 71.7011H68.7263C60.5778 71.7011 53.972 65.0954 53.972 56.9468V33.34Z"
            fill="white"
        />
    </g>
    <path
        d="M68.7263 52.9204V61.373H74.6594V53.287C74.6594 52.5002 74.9719 51.7456 75.5282 51.1893C76.0846 50.633 76.8391 50.3205 77.6259 50.3205H83.7093C85.1148 50.3205 86.5065 50.0436 87.805 49.5057C89.1035 48.9678 90.2834 48.1794 91.2772 47.1856C92.271 46.1917 93.0593 45.0118 93.5971 43.7133C94.1349 42.4147 94.4116 41.0229 94.4115 39.6174C94.4117 38.2119 94.135 36.82 93.5973 35.5214C93.0596 34.2227 92.2713 33.0428 91.2775 32.0488C90.2837 31.0548 89.1038 30.2664 87.8052 29.7284C86.5067 29.1905 85.1149 28.9136 83.7093 28.9136H68.7263V39.4792H74.6594V34.4971H83.3078C84.6508 34.4971 85.9387 35.0306 86.8884 35.9801C87.8381 36.9297 88.3718 38.2176 88.372 39.5605C88.372 40.9036 87.8384 42.1918 86.8887 43.1415C85.939 44.0912 84.6509 44.6247 83.3078 44.6247H77.0196C75.9302 44.6243 74.8514 44.8386 73.8448 45.2554C72.8383 45.6722 71.9238 46.2832 71.1535 47.0537C70.3833 47.8241 69.7725 48.7388 69.356 49.7455C68.9396 50.7522 68.7256 51.831 68.7263 52.9204Z"
        fill="url(#paint2_radial_39068_20618)"
    />
    <path
        d="M77.6242 50.3196C76.4557 50.3195 75.2986 50.5496 74.219 50.9967C73.1394 51.4438 72.1585 52.0992 71.3322 52.9255C70.506 53.7518 69.8505 54.7327 69.4034 55.8123C68.9563 56.8919 68.7262 58.049 68.7263 59.2175V61.3721H74.6594V53.2861C74.6594 52.4996 74.9717 51.7453 75.5277 51.189C76.0836 50.6327 76.8378 50.32 77.6242 50.3196Z"
        fill="url(#paint3_linear_39068_20618)"
    />
    <path d="M135.086 12.9809L142.121 15.0018L140.257 18.587L135.086 12.9809Z" fill="url(#paint4_linear_39068_20618)" />
    <path d="M150.924 28.4841L147.131 7.72968L135.471 23.2629L150.924 28.4841Z" fill="#FFE3BA" />
    <path
        d="M150.924 28.4844L143.326 12.7996L138.607 19.0851L150.924 28.4844Z"
        fill="url(#paint5_linear_39068_20618)"
    />
    <path d="M20.8732 67.1191L15.9758 61.6792L13.569 64.9253L20.8732 67.1191Z" fill="url(#paint6_linear_39068_20618)" />
    <path d="M8.83901e-05 59.6693L20.3197 53.9909L11.4607 71.2756L8.83901e-05 59.6693Z" fill="#FFE3BA" />
    <path
        d="M0.000111249 59.6691L17.4283 59.6321L13.8435 66.6263L0.000111249 59.6691Z"
        fill="url(#paint7_linear_39068_20618)"
    />
    <path
        d="M131.503 11.7318C125.792 5.4493 110.429 -2.91781 94.6653 13.8735"
        stroke="#CAC5FF"
        stroke-width="2"
        stroke-linecap="round"
        stroke-dasharray="6 6"
    />
    <path
        d="M25.6077 69.5925C29.8407 72.5195 44.7776 75.1291 51.8306 68.0762"
        stroke="#CAC5FF"
        stroke-width="2"
        stroke-linecap="round"
        stroke-dasharray="6 6"
    />
    <defs>
        <filter
            id="filter0_d_39068_20618"
            x="32.4068"
            y="2.41178"
            width="96.2459"
            height="96.2459"
            filterUnits="userSpaceOnUse"
            color-interpolation-filters="sRGB"
        >
            <feFlood flood-opacity="0" result="BackgroundImageFix" />
            <feColorMatrix
                in="SourceAlpha"
                type="matrix"
                values="0 0 0 0 0 0 0 0 0 0 0 0 0 0 0 0 0 0 127 0"
                result="hardAlpha"
            />
            <feOffset dy="5.3913" />
            <feGaussianBlur stdDeviation="10.7826" />
            <feComposite in2="hardAlpha" operator="out" />
            <feColorMatrix type="matrix" values="0 0 0 0 0.234217 0 0 0 0 0.164819 0 0 0 0 0.555181 0 0 0 0.13 0" />
            <feBlend mode="normal" in2="BackgroundImageFix" result="effect1_dropShadow_39068_20618" />
            <feBlend mode="normal" in="SourceGraphic" in2="effect1_dropShadow_39068_20618" result="shape" />
        </filter>
        <linearGradient
            id="paint0_linear_39068_20618"
            x1="137.797"
            y1="41.4199"
            x2="129.724"
            y2="70.2512"
            gradientUnits="userSpaceOnUse"
        >
            <stop stop-color="#4CFED3" />
            <stop offset="1" stop-color="#00C1FE" />
        </linearGradient>
        <linearGradient
            id="paint1_linear_39068_20618"
            x1="28.2709"
            y1="-2.60265"
            x2="28.2709"
            y2="40.0033"
            gradientUnits="userSpaceOnUse"
        >
            <stop stop-color="#FF8E7E" />
            <stop offset="1" stop-color="#F34262" />
        </linearGradient>
        <radialGradient
            id="paint2_radial_39068_20618"
            cx="0"
            cy="0"
            r="1"
            gradientUnits="userSpaceOnUse"
            gradientTransform="translate(94.5025 24.4069) scale(32.6699 32.6699)"
        >
            <stop stop-color="#A995FF" />
            <stop offset="1" stop-color="#6652F5" />
        </radialGradient>
        <linearGradient
            id="paint3_linear_39068_20618"
            x1="73.1753"
            y1="59.7734"
            x2="73.1753"
            y2="47.3531"
            gradientUnits="userSpaceOnUse"
        >
            <stop stop-color="#6D4BFD" />
            <stop offset="1" stop-color="#1C0554" />
        </linearGradient>
        <linearGradient
            id="paint4_linear_39068_20618"
            x1="141.355"
            y1="15.1591"
            x2="134.502"
            y2="13.8741"
            gradientUnits="userSpaceOnUse"
        >
            <stop stop-color="#FFBF83" />
            <stop offset="1" stop-color="#FF8F68" />
        </linearGradient>
        <linearGradient
            id="paint5_linear_39068_20618"
            x1="151.778"
            y1="28.4167"
            x2="148.311"
            y2="14.9934"
            gradientUnits="userSpaceOnUse"
        >
            <stop stop-color="#FFC889" />
            <stop offset="1" stop-color="#FF986A" />
        </linearGradient>
        <linearGradient
            id="paint6_linear_39068_20618"
            x1="16.1698"
            y1="62.4368"
            x2="20.3261"
            y2="68.0357"
            gradientUnits="userSpaceOnUse"
        >
            <stop stop-color="#FFBF83" />
            <stop offset="1" stop-color="#FF8F68" />
        </linearGradient>
        <linearGradient
            id="paint7_linear_39068_20618"
            x1="-0.313042"
            y1="58.8717"
            x2="13.2731"
            y2="56.1106"
            gradientUnits="userSpaceOnUse"
        >
            <stop stop-color="#FFC889" />
            <stop offset="1" stop-color="#FF986A" />
        </linearGradient>
    </defs>
</svg>
