<svg width="48" height="48" viewBox="0 0 48 48" fill="none" xmlns="http://www.w3.org/2000/svg">
<g filter="url(#filter0_ii_42197_9882)">
<rect width="48" height="48" rx="8" fill="url(#paint0_linear_42197_9882)"/>
<g clip-path="url(#clip0_42197_9882)">
<path d="M25.3891 35.1105H11.1113C10.5591 35.1105 10.1113 34.6627 10.1113 34.1105L10.1113 16.666C10.1113 16.1137 10.559 15.666 11.1113 15.666H25.3891V35.1105Z" fill="url(#paint1_linear_42197_9882)"/>
<path d="M25.3888 35.1105H36.8888C37.4411 35.1105 37.8888 34.6627 37.8888 34.1105V16.666C37.8888 16.1137 37.4411 15.666 36.8888 15.666H25.3888V35.1105Z" fill="url(#paint2_linear_42197_9882)"/>
<path d="M33.7221 17.0557H29.5554V35.1112H33.7221V17.0557Z" fill="#FFE3BA" fill-opacity="0.7"/>
<path d="M19.8334 17.0557H15.6667V35.1112H19.8334V17.0557Z" fill="#FFE3BA"/>
<path d="M30.9447 10.8057C30.9445 12.7231 29.3896 14.2773 27.472 14.2773L24.0004 14.2773L24.0004 10.8057C24.0004 8.88808 25.5545 7.33313 27.472 7.33301C29.3897 7.33301 30.9447 8.88801 30.9447 10.8057ZM29.556 10.8057C29.556 9.65507 28.6226 8.72168 27.472 8.72168C26.3216 8.7218 25.389 9.65514 25.389 10.8057L25.389 12.8887L27.472 12.8887C28.6225 12.8887 29.5558 11.9561 29.556 10.8057Z" fill="url(#paint3_linear_42197_9882)"/>
<path d="M18.4447 10.8057C18.4449 12.723 19.999 14.2772 21.9164 14.2773L25.389 14.2773L25.389 10.8057C25.389 8.88801 23.834 7.33301 21.9164 7.33301C19.9989 7.33318 18.4447 8.88812 18.4447 10.8057ZM19.8334 10.8057C19.8334 9.65518 20.7659 8.72186 21.9164 8.72168C23.067 8.72168 24.0004 9.65507 24.0004 10.8057L24.0004 12.8887L21.9164 12.8887C20.7661 12.8885 19.8336 11.9559 19.8334 10.8057Z" fill="url(#paint4_linear_42197_9882)"/>
<path d="M8.72217 12.8887H25.3888V17.0553H8.72217V12.8887Z" fill="url(#paint5_linear_42197_9882)"/>
<path d="M25.3888 12.8887H39.2777V17.0553H25.3888V12.8887Z" fill="url(#paint6_linear_42197_9882)"/>
<path d="M33.7222 12.8887H29.5555V17.0553H33.7222V12.8887Z" fill="#FFE3BA" fill-opacity="0.5"/>
<path d="M19.8333 12.8887H15.6666V17.0553H19.8333V12.8887Z" fill="#FFE3BA" fill-opacity="0.5"/>
</g>
</g>
<defs>
<filter id="filter0_ii_42197_9882" x="0" y="-1.875" width="48" height="51.125" filterUnits="userSpaceOnUse" color-interpolation-filters="sRGB">
<feFlood flood-opacity="0" result="BackgroundImageFix"/>
<feBlend mode="normal" in="SourceGraphic" in2="BackgroundImageFix" result="shape"/>
<feColorMatrix in="SourceAlpha" type="matrix" values="0 0 0 0 0 0 0 0 0 0 0 0 0 0 0 0 0 0 127 0" result="hardAlpha"/>
<feOffset dy="-1.875"/>
<feGaussianBlur stdDeviation="1.25"/>
<feComposite in2="hardAlpha" operator="arithmetic" k2="-1" k3="1"/>
<feColorMatrix type="matrix" values="0 0 0 0 0.988235 0 0 0 0 0.825098 0 0 0 0 0.580392 0 0 0 0.15 0"/>
<feBlend mode="normal" in2="shape" result="effect1_innerShadow_42197_9882"/>
<feColorMatrix in="SourceAlpha" type="matrix" values="0 0 0 0 0 0 0 0 0 0 0 0 0 0 0 0 0 0 127 0" result="hardAlpha"/>
<feOffset dy="1.25"/>
<feGaussianBlur stdDeviation="1.25"/>
<feComposite in2="hardAlpha" operator="arithmetic" k2="-1" k3="1"/>
<feColorMatrix type="matrix" values="0 0 0 0 1 0 0 0 0 1 0 0 0 0 1 0 0 0 0.1 0"/>
<feBlend mode="normal" in2="effect1_innerShadow_42197_9882" result="effect2_innerShadow_42197_9882"/>
</filter>
<linearGradient id="paint0_linear_42197_9882" x1="24" y1="0" x2="24" y2="48" gradientUnits="userSpaceOnUse">
<stop stop-color="#FFD699" stop-opacity="0.12"/>
<stop offset="1" stop-color="#FFAD33" stop-opacity="0.24"/>
</linearGradient>
<linearGradient id="paint1_linear_42197_9882" x1="20.2087" y1="15.8201" x2="11.7217" y2="34.2319" gradientUnits="userSpaceOnUse">
<stop stop-color="#FFD391"/>
<stop offset="1" stop-color="#FFA26D"/>
</linearGradient>
<linearGradient id="paint2_linear_42197_9882" x1="38.0056" y1="35.1105" x2="20.6819" y2="22.0136" gradientUnits="userSpaceOnUse">
<stop stop-color="#FF7E62"/>
<stop offset="1" stop-color="#FFA26D"/>
</linearGradient>
<linearGradient id="paint3_linear_42197_9882" x1="28.167" y1="7.33301" x2="28.167" y2="14.2773" gradientUnits="userSpaceOnUse">
<stop stop-color="#FFBF83"/>
<stop offset="1" stop-color="#FF8F68"/>
</linearGradient>
<linearGradient id="paint4_linear_42197_9882" x1="21.2224" y1="7.33301" x2="21.2224" y2="14.2773" gradientUnits="userSpaceOnUse">
<stop stop-color="#FFBF83"/>
<stop offset="1" stop-color="#FF8F68"/>
</linearGradient>
<linearGradient id="paint5_linear_42197_9882" x1="17.0555" y1="12.8887" x2="17.0555" y2="17.0553" gradientUnits="userSpaceOnUse">
<stop stop-color="#FFC889"/>
<stop offset="1" stop-color="#FF986A"/>
</linearGradient>
<linearGradient id="paint6_linear_42197_9882" x1="32.3332" y1="12.8887" x2="32.3332" y2="17.0553" gradientUnits="userSpaceOnUse">
<stop stop-color="#FF9168"/>
<stop offset="1" stop-color="#FF8464"/>
</linearGradient>
<clipPath id="clip0_42197_9882">
<rect width="33.3333" height="33.3333" fill="white" transform="translate(7.33337 7.33301)"/>
</clipPath>
</defs>
</svg>
