<svg width="48" height="48" viewBox="0 0 48 48" fill="none" xmlns="http://www.w3.org/2000/svg">
<g filter="url(#filter0_ii_42197_9872)">
<rect width="48" height="48" rx="8" fill="url(#paint0_linear_42197_9872)"/>
<g filter="url(#filter1_d_42197_9872)">
<rect x="14.2" y="36.5996" width="19.6" height="1.39996" rx="0.699978" fill="url(#paint1_linear_42197_9872)"/>
</g>
<g filter="url(#filter2_ii_42197_9872)">
<path d="M15.5996 14.1309V11.3994H32.3996V14.1309C32.3996 14.814 32.2101 15.4873 31.8466 16.0957C30.4238 18.4772 28.7321 20.7344 26.7956 22.8351L26.5617 23.0888C26.0695 23.6228 26.0695 24.3752 26.5617 24.9092L26.7956 25.1629C28.7321 27.2636 30.4238 29.5208 31.8466 31.9023C32.2101 32.5107 32.3996 33.184 32.3996 33.8671V36.5986H15.5996V33.8671C15.5996 33.184 15.7891 32.5107 16.1526 31.9023C17.5754 29.5208 19.2671 27.2636 21.2036 25.1629L21.4375 24.9092C21.9297 24.3752 21.9297 23.6228 21.4375 23.0888L21.2036 22.8351C19.2671 20.7344 17.5754 18.4772 16.1526 16.0957C15.7891 15.4873 15.5996 14.814 15.5996 14.1309Z" fill="white" fill-opacity="0.5"/>
<path d="M15.5996 14.1309V11.3994H32.3996V14.1309C32.3996 14.814 32.2101 15.4873 31.8466 16.0957C30.4238 18.4772 28.7321 20.7344 26.7956 22.8351L26.5617 23.0888C26.0695 23.6228 26.0695 24.3752 26.5617 24.9092L26.7956 25.1629C28.7321 27.2636 30.4238 29.5208 31.8466 31.9023C32.2101 32.5107 32.3996 33.184 32.3996 33.8671V36.5986H15.5996V33.8671C15.5996 33.184 15.7891 32.5107 16.1526 31.9023C17.5754 29.5208 19.2671 27.2636 21.2036 25.1629L21.4375 24.9092C21.9297 24.3752 21.9297 23.6228 21.4375 23.0888L21.2036 22.8351C19.2671 20.7344 17.5754 18.4772 16.1526 16.0957C15.7891 15.4873 15.5996 14.814 15.5996 14.1309Z" fill="#0081CC" fill-opacity="0.1"/>
</g>
<path d="M16.2997 14.2021H31.6997C31.6997 14.87 31.4578 15.569 30.9997 16.3021C29.2497 19.102 27.1497 21.9019 25.0497 23.3019C24.4358 23.7111 24.3497 24.7018 24.3497 24.7018C24.3497 27.2036 24.507 30.5818 24.507 32.9617C24.507 32.9617 24.507 34.6415 26.7769 36.6014H21.2928C23.492 34.6415 23.492 32.9617 23.492 32.9617C23.492 30.5818 23.6497 27.4836 23.6497 24.7018C23.6497 24.7018 23.5375 23.6937 22.9497 23.3019C20.8497 21.9019 18.7497 19.102 16.9997 16.3021C16.5415 15.569 16.2997 14.87 16.2997 14.2021Z" fill="url(#paint2_linear_42197_9872)"/>
<g filter="url(#filter3_ii_42197_9872)">
<rect x="14.2" y="10" width="19.6" height="1.39995" rx="0.699977" fill="url(#paint3_linear_42197_9872)"/>
</g>
<g filter="url(#filter4_ii_42197_9872)">
<rect x="14.2" y="36.5996" width="19.6" height="1.39996" rx="0.699978" fill="url(#paint4_linear_42197_9872)"/>
</g>
</g>
<defs>
<filter id="filter0_ii_42197_9872" x="0" y="-1.875" width="48" height="51.125" filterUnits="userSpaceOnUse" color-interpolation-filters="sRGB">
<feFlood flood-opacity="0" result="BackgroundImageFix"/>
<feBlend mode="normal" in="SourceGraphic" in2="BackgroundImageFix" result="shape"/>
<feColorMatrix in="SourceAlpha" type="matrix" values="0 0 0 0 0 0 0 0 0 0 0 0 0 0 0 0 0 0 127 0" result="hardAlpha"/>
<feOffset dy="-1.875"/>
<feGaussianBlur stdDeviation="1.25"/>
<feComposite in2="hardAlpha" operator="arithmetic" k2="-1" k3="1"/>
<feColorMatrix type="matrix" values="0 0 0 0 0 0 0 0 0 0.692308 0 0 0 0 1 0 0 0 0.1 0"/>
<feBlend mode="normal" in2="shape" result="effect1_innerShadow_42197_9872"/>
<feColorMatrix in="SourceAlpha" type="matrix" values="0 0 0 0 0 0 0 0 0 0 0 0 0 0 0 0 0 0 127 0" result="hardAlpha"/>
<feOffset dy="1.25"/>
<feGaussianBlur stdDeviation="1.25"/>
<feComposite in2="hardAlpha" operator="arithmetic" k2="-1" k3="1"/>
<feColorMatrix type="matrix" values="0 0 0 0 1 0 0 0 0 1 0 0 0 0 1 0 0 0 0.1 0"/>
<feBlend mode="normal" in2="effect1_innerShadow_42197_9872" result="effect2_innerShadow_42197_9872"/>
</filter>
<filter id="filter1_d_42197_9872" x="12.2" y="35.5996" width="23.6" height="5.40039" filterUnits="userSpaceOnUse" color-interpolation-filters="sRGB">
<feFlood flood-opacity="0" result="BackgroundImageFix"/>
<feColorMatrix in="SourceAlpha" type="matrix" values="0 0 0 0 0 0 0 0 0 0 0 0 0 0 0 0 0 0 127 0" result="hardAlpha"/>
<feOffset dy="1"/>
<feGaussianBlur stdDeviation="1"/>
<feComposite in2="hardAlpha" operator="out"/>
<feColorMatrix type="matrix" values="0 0 0 0 0 0 0 0 0 0.338758 0 0 0 0 0.53488 0 0 0 0.15 0"/>
<feBlend mode="normal" in2="BackgroundImageFix" result="effect1_dropShadow_42197_9872"/>
<feBlend mode="normal" in="SourceGraphic" in2="effect1_dropShadow_42197_9872" result="shape"/>
</filter>
<filter id="filter2_ii_42197_9872" x="15.0996" y="11.3994" width="17.8" height="25.1992" filterUnits="userSpaceOnUse" color-interpolation-filters="sRGB">
<feFlood flood-opacity="0" result="BackgroundImageFix"/>
<feBlend mode="normal" in="SourceGraphic" in2="BackgroundImageFix" result="shape"/>
<feColorMatrix in="SourceAlpha" type="matrix" values="0 0 0 0 0 0 0 0 0 0 0 0 0 0 0 0 0 0 127 0" result="hardAlpha"/>
<feOffset dx="0.5"/>
<feGaussianBlur stdDeviation="1.5"/>
<feComposite in2="hardAlpha" operator="arithmetic" k2="-1" k3="1"/>
<feColorMatrix type="matrix" values="0 0 0 0 0 0 0 0 0 0.317647 0 0 0 0 0.501961 0 0 0 0.25 0"/>
<feBlend mode="normal" in2="shape" result="effect1_innerShadow_42197_9872"/>
<feColorMatrix in="SourceAlpha" type="matrix" values="0 0 0 0 0 0 0 0 0 0 0 0 0 0 0 0 0 0 127 0" result="hardAlpha"/>
<feOffset dx="-0.5"/>
<feGaussianBlur stdDeviation="1.5"/>
<feComposite in2="hardAlpha" operator="arithmetic" k2="-1" k3="1"/>
<feColorMatrix type="matrix" values="0 0 0 0 0 0 0 0 0 0.316667 0 0 0 0 0.5 0 0 0 0.25 0"/>
<feBlend mode="normal" in2="effect1_innerShadow_42197_9872" result="effect2_innerShadow_42197_9872"/>
</filter>
<filter id="filter3_ii_42197_9872" x="12.325" y="8.125" width="21.475" height="5.15039" filterUnits="userSpaceOnUse" color-interpolation-filters="sRGB">
<feFlood flood-opacity="0" result="BackgroundImageFix"/>
<feBlend mode="normal" in="SourceGraphic" in2="BackgroundImageFix" result="shape"/>
<feColorMatrix in="SourceAlpha" type="matrix" values="0 0 0 0 0 0 0 0 0 0 0 0 0 0 0 0 0 0 127 0" result="hardAlpha"/>
<feOffset dy="-1.875"/>
<feGaussianBlur stdDeviation="1.25"/>
<feComposite in2="hardAlpha" operator="arithmetic" k2="-1" k3="1"/>
<feColorMatrix type="matrix" values="0 0 0 0 0.172549 0 0 0 0 0.513726 0 0 0 0 0.862745 0 0 0 0.2 0"/>
<feBlend mode="normal" in2="shape" result="effect1_innerShadow_42197_9872"/>
<feColorMatrix in="SourceAlpha" type="matrix" values="0 0 0 0 0 0 0 0 0 0 0 0 0 0 0 0 0 0 127 0" result="hardAlpha"/>
<feOffset dx="-2.5" dy="1.875"/>
<feGaussianBlur stdDeviation="0.9375"/>
<feComposite in2="hardAlpha" operator="arithmetic" k2="-1" k3="1"/>
<feColorMatrix type="matrix" values="0 0 0 0 1 0 0 0 0 1 0 0 0 0 1 0 0 0 0.1 0"/>
<feBlend mode="normal" in2="effect1_innerShadow_42197_9872" result="effect2_innerShadow_42197_9872"/>
</filter>
<filter id="filter4_ii_42197_9872" x="12.325" y="34.7246" width="21.475" height="5.15039" filterUnits="userSpaceOnUse" color-interpolation-filters="sRGB">
<feFlood flood-opacity="0" result="BackgroundImageFix"/>
<feBlend mode="normal" in="SourceGraphic" in2="BackgroundImageFix" result="shape"/>
<feColorMatrix in="SourceAlpha" type="matrix" values="0 0 0 0 0 0 0 0 0 0 0 0 0 0 0 0 0 0 127 0" result="hardAlpha"/>
<feOffset dy="-1.875"/>
<feGaussianBlur stdDeviation="1.25"/>
<feComposite in2="hardAlpha" operator="arithmetic" k2="-1" k3="1"/>
<feColorMatrix type="matrix" values="0 0 0 0 0.172549 0 0 0 0 0.513726 0 0 0 0 0.862745 0 0 0 0.2 0"/>
<feBlend mode="normal" in2="shape" result="effect1_innerShadow_42197_9872"/>
<feColorMatrix in="SourceAlpha" type="matrix" values="0 0 0 0 0 0 0 0 0 0 0 0 0 0 0 0 0 0 127 0" result="hardAlpha"/>
<feOffset dx="-2.5" dy="1.875"/>
<feGaussianBlur stdDeviation="0.9375"/>
<feComposite in2="hardAlpha" operator="arithmetic" k2="-1" k3="1"/>
<feColorMatrix type="matrix" values="0 0 0 0 1 0 0 0 0 1 0 0 0 0 1 0 0 0 0.1 0"/>
<feBlend mode="normal" in2="effect1_innerShadow_42197_9872" result="effect2_innerShadow_42197_9872"/>
</filter>
<linearGradient id="paint0_linear_42197_9872" x1="18.6667" y1="2.21778e-08" x2="18.5389" y2="47.9997" gradientUnits="userSpaceOnUse">
<stop stop-color="#99E7FF" stop-opacity="0.12"/>
<stop offset="1" stop-color="#33CEFF" stop-opacity="0.24"/>
</linearGradient>
<linearGradient id="paint1_linear_42197_9872" x1="33.8" y1="36.8332" x2="14.3289" y2="39.1049" gradientUnits="userSpaceOnUse">
<stop stop-color="#8AE3FF"/>
<stop offset="1" stop-color="#51BAF6"/>
</linearGradient>
<linearGradient id="paint2_linear_42197_9872" x1="24.1653" y1="36.5996" x2="24.1653" y2="15.1874" gradientUnits="userSpaceOnUse">
<stop stop-color="#E0EDF5"/>
<stop offset="0.155037" stop-color="white"/>
<stop offset="0.708049" stop-color="#E0EDF5"/>
<stop offset="1" stop-color="white"/>
</linearGradient>
<linearGradient id="paint3_linear_42197_9872" x1="33.8" y1="10.2336" x2="14.3289" y2="12.5053" gradientUnits="userSpaceOnUse">
<stop stop-color="#8AE3FF"/>
<stop offset="1" stop-color="#51BAF6"/>
</linearGradient>
<linearGradient id="paint4_linear_42197_9872" x1="33.8" y1="36.8332" x2="14.3289" y2="39.1049" gradientUnits="userSpaceOnUse">
<stop stop-color="#8AE3FF"/>
<stop offset="1" stop-color="#51BAF6"/>
</linearGradient>
</defs>
</svg>
