<svg width="512" height="512" viewBox="0 0 512 512" fill="none" xmlns="http://www.w3.org/2000/svg">
<g clip-path="url(#clip0_2581_203)">
<path d="M0 142.222C0 63.6751 63.6751 0 142.222 0H369.778C448.325 0 512 63.6751 512 142.222V369.778C512 448.325 448.325 512 369.778 512H142.222C63.6751 512 0 448.325 0 369.778V142.222Z" fill="white"/>
<path fill-rule="evenodd" clip-rule="evenodd" d="M298.241 221.43L298.258 221.444L211.302 317.968L99.5557 194.968V141.911C99.5557 135.819 106.657 132.485 111.344 136.378L235.321 239.336C247.31 249.292 264.691 249.292 276.679 239.336L298.241 221.43Z" fill="url(#paint0_linear_2581_203)"/>
<path d="M345.397 182.269L298.241 221.43L298.258 221.445L235.822 276.597C225.186 285.992 209.288 286.229 198.377 277.154L99.5557 194.969V352.649C99.5557 370.525 114.047 384 131.924 384L345.397 384L367.746 283.643L345.397 182.269Z" fill="url(#paint1_radial_2581_203)"/>
<path fill-rule="evenodd" clip-rule="evenodd" d="M345.397 182.309V384L380.077 384C397.953 384 412.444 369.507 412.444 351.632V141.912C412.444 135.819 405.343 132.485 400.656 136.378L345.397 182.309Z" fill="url(#paint2_linear_2581_203)"/>
</g>
<defs>
<linearGradient id="paint0_linear_2581_203" x1="216.968" y1="319.67" x2="112.03" y2="-44.8653" gradientUnits="userSpaceOnUse">
<stop stop-color="#E3D9FF"/>
<stop offset="1" stop-color="#7341FF"/>
</linearGradient>
<radialGradient id="paint1_radial_2581_203" cx="0" cy="0" r="1" gradientUnits="userSpaceOnUse" gradientTransform="translate(366.578 206.963) scale(312.757 293.319)">
<stop offset="0.5561" stop-color="#6D4AFF"/>
<stop offset="0.9944" stop-color="#AA8EFF"/>
</radialGradient>
<linearGradient id="paint2_linear_2581_203" x1="513.632" y1="545.62" x2="273.866" y2="26.2882" gradientUnits="userSpaceOnUse">
<stop offset="0.271" stop-color="#E3D9FF"/>
<stop offset="1" stop-color="#7341FF"/>
</linearGradient>
<clipPath id="clip0_2581_203">
<rect width="512" height="512" fill="white"/>
</clipPath>
</defs>
</svg>
