<svg width="512" height="512" viewBox="0 0 512 512" fill="none" xmlns="http://www.w3.org/2000/svg">
<g clip-path="url(#clip0_2584_884)">
<rect width="512" height="512" rx="121" fill="white"/>
<rect width="512" height="512" fill="#F5F5F5"/>
<rect width="512" height="512" fill="white"/>
<path d="M0 120.58C0 53.9854 53.9854 0 120.58 0H391.42C458.015 0 512 53.9854 512 120.58V391.42C512 458.015 458.015 512 391.42 512H120.58C53.9854 512 0 458.015 0 391.42V120.58Z" fill="white"/>
<path fill-rule="evenodd" clip-rule="evenodd" d="M229.38 380.398C240.218 400.033 268.049 401.096 280.353 382.346L395.084 207.504C407.251 188.963 395.61 164.104 373.577 161.577L148.071 135.719C124.029 132.962 106.911 158.511 118.605 179.698L229.38 380.398Z" fill="url(#paint0_linear_2584_884)"/>
<path fill-rule="evenodd" clip-rule="evenodd" d="M229.38 380.398C240.218 400.033 268.049 401.096 280.353 382.346L395.084 207.504C407.251 188.963 395.61 164.104 373.577 161.577L148.071 135.719C124.029 132.962 106.911 158.511 118.605 179.698L229.38 380.398Z" fill="url(#paint1_linear_2584_884)"/>
<path fill-rule="evenodd" clip-rule="evenodd" d="M246.024 346.78L235.841 362.085C231.716 368.287 222.484 367.905 218.885 361.384L229.38 380.399C231.252 383.79 233.63 386.627 236.347 388.903L236.348 388.902C249.367 399.808 270.174 397.857 280.354 382.344L395.084 207.503C407.251 188.962 395.61 164.103 373.577 161.577L148.071 135.718C124.029 132.961 106.911 158.51 118.605 179.697L119.495 181.309L311.439 203.518C323.674 204.934 330.128 218.743 323.366 229.038L246.024 346.78Z" fill="url(#paint2_linear_2584_884)"/>
<path fill-rule="evenodd" clip-rule="evenodd" d="M306.551 0H77.9131H0.927612V102.957H249.971C281.219 102.957 306.551 77.6249 306.551 46.3768V0Z" fill="url(#paint3_linear_2584_884)"/>
<path d="M80.2139 46.2563C80.2139 44.3171 80.2139 42.3953 80.2139 40.4907C80.2139 38.5862 80.2139 36.7855 80.2139 35.0888H92.7319C96.6795 35.0888 100.108 35.8333 103.016 37.3223C105.96 38.8113 108.211 40.9236 109.769 43.6592C111.362 46.3948 112.158 49.5633 112.158 53.1646C112.158 56.8005 111.362 59.9863 109.769 62.7219C108.211 65.4229 105.96 67.5179 103.016 69.0069C100.108 70.4613 96.6795 71.1885 92.7319 71.1885H80.2139C80.2139 69.4917 80.2139 67.691 80.2139 65.7865C80.2139 63.882 80.2139 61.9601 80.2139 60.0209V46.2563ZM91.2256 65.5787C93.9612 65.5787 96.3159 65.1978 98.2897 64.436C100.298 63.6742 101.874 62.393 103.016 60.5923C104.194 58.757 104.782 56.2811 104.782 53.1646C104.782 50.0827 104.194 47.6241 103.016 45.7888C101.874 43.9189 100.298 42.603 98.2897 41.8412C96.3159 41.0794 93.9612 40.6985 91.2256 40.6985H87.1741V65.5787H91.2256Z" fill="white"/>
<path d="M133.734 71.9157C131.102 71.9157 128.747 71.3789 126.67 70.3055C124.626 69.1974 123.016 67.6391 121.839 65.6307C120.696 63.5876 120.125 61.2156 120.125 58.5146C120.125 56.1599 120.644 54.013 121.683 52.0738C122.722 50.1346 124.142 48.611 125.942 47.5029C127.778 46.3602 129.803 45.7888 132.02 45.7888C134.097 45.7888 135.915 46.239 137.473 47.1393C139.066 48.0396 140.296 49.3555 141.161 51.0869C142.027 52.7837 142.46 54.8094 142.46 57.1641V59.6573H124.644V55.3981H139.551L136.175 56.3331C136.175 55.0172 136.002 53.9264 135.656 53.0607C135.309 52.195 134.79 51.5371 134.097 51.0869C133.439 50.6367 132.643 50.4117 131.708 50.4117C130.808 50.4117 129.977 50.6714 129.215 51.1908C128.453 51.7102 127.83 52.5067 127.345 53.5801C126.895 54.619 126.67 55.9348 126.67 57.5277C126.67 59.7439 127.033 61.5446 127.76 62.9297C128.522 64.2802 129.526 65.2498 130.773 65.8384C132.02 66.4271 133.422 66.7215 134.98 66.7215C136.123 66.7215 137.266 66.5656 138.408 66.254C139.586 65.9423 140.763 65.4402 141.94 64.7477V69.5783C140.729 70.3747 139.413 70.9634 137.993 71.3443C136.608 71.7252 135.188 71.9157 133.734 71.9157Z" fill="white"/>
<path d="M166.347 71.9157C165.343 71.9157 164.373 71.7598 163.438 71.4482C162.503 71.1365 161.638 70.6691 160.841 70.0458C160.079 69.3878 159.439 68.5741 158.919 67.6045H158.764V71.1885H152.115V43.2437C152.115 41.6161 152.115 40.0579 152.115 38.5689C152.115 37.0452 152.115 35.6255 152.115 34.3096H158.764V50.1H158.919C159.716 48.7149 160.807 47.6587 162.192 46.9315C163.577 46.1697 165.031 45.7888 166.555 45.7888C168.563 45.7888 170.399 46.3429 172.061 47.451C173.758 48.5591 175.091 50.1173 176.06 52.1257C177.065 54.0995 177.567 56.3331 177.567 58.8263C177.567 61.3541 177.065 63.6223 176.06 65.6307C175.056 67.6045 173.688 69.1454 171.957 70.2535C170.26 71.3616 168.39 71.9157 166.347 71.9157ZM164.529 66.8773C165.707 66.8773 166.763 66.5483 167.698 65.8904C168.633 65.1978 169.36 64.2456 169.879 63.0336C170.433 61.8216 170.71 60.4192 170.71 58.8263C170.71 56.4369 170.139 54.5151 168.996 53.0607C167.853 51.5717 166.416 50.8272 164.685 50.8272C163.508 50.8272 162.434 51.1562 161.465 51.8141C160.53 52.472 159.785 53.407 159.231 54.619C158.712 55.7963 158.452 57.1641 158.452 58.7224V58.8263C158.452 60.4192 158.712 61.8216 159.231 63.0336C159.751 64.2456 160.478 65.1978 161.413 65.8904C162.348 66.5483 163.386 66.8773 164.529 66.8773Z" fill="white"/>
<path d="M194.544 71.9157C193.055 71.9157 191.704 71.5348 190.492 70.7729C189.315 69.9765 188.38 68.8338 187.687 67.3448C186.995 65.8558 186.648 64.0551 186.648 61.9428V55.45C186.648 53.8225 186.648 52.2643 186.648 50.7753C186.648 49.2516 186.648 47.8319 186.648 46.516H193.297V62.3583C193.297 63.8473 193.609 64.9554 194.232 65.6826C194.89 66.3752 195.756 66.7215 196.829 66.7215C197.729 66.7215 198.526 66.4617 199.218 65.9423C199.946 65.3883 200.5 64.5918 200.881 63.553C201.296 62.4795 201.504 61.2156 201.504 59.7612V55.45C201.504 53.8225 201.504 52.2643 201.504 50.7753C201.504 49.2516 201.504 47.8319 201.504 46.516H208.152V62.7739C208.152 64.1936 208.152 65.6134 208.152 67.0331C208.152 68.4529 208.152 69.838 208.152 71.1885H201.504V67.5006H201.348C200.586 68.955 199.617 70.0631 198.439 70.8249C197.297 71.5521 195.998 71.9157 194.544 71.9157Z" fill="white"/>
<path d="M228.257 82.3041C225.868 82.3041 223.773 82.0097 221.972 81.4211C220.206 80.8324 218.856 80.0013 217.921 78.9278C216.986 77.889 216.518 76.7116 216.518 75.3958C216.518 74.4262 216.83 73.5432 217.453 72.7467C218.077 71.9849 218.908 71.3097 219.946 70.721V68.4875L225.037 71.2924C224.136 71.5694 223.409 71.9676 222.855 72.487C222.336 73.0064 222.076 73.6124 222.076 74.305C222.076 75.3785 222.63 76.2095 223.738 76.7982C224.846 77.4215 226.405 77.7332 228.413 77.7332C229.833 77.7332 231.131 77.5947 232.309 77.3176C233.486 77.0752 234.421 76.677 235.114 76.123C235.806 75.5689 236.152 74.8937 236.152 74.0972C236.152 73.3354 235.91 72.7814 235.425 72.4351C234.94 72.0888 234.144 71.9157 233.036 71.9157H224.05C222.907 71.9157 221.851 71.6906 220.881 71.2404C219.946 70.7903 219.185 70.1496 218.596 69.3186C218.042 68.4875 217.765 67.5525 217.765 66.5137C217.765 65.4749 218.077 64.4706 218.7 63.5011C219.358 62.5315 220.327 61.7177 221.609 61.0598V59.1899L226.024 62.3583C225.089 62.6007 224.344 62.9643 223.79 63.4491C223.271 63.9339 223.011 64.4706 223.011 65.0593C223.011 65.6134 223.271 66.0635 223.79 66.4098C224.31 66.7215 225.002 66.8773 225.868 66.8773H233.036C236.152 66.8773 238.524 67.4313 240.152 68.5394C241.814 69.6129 242.645 71.2058 242.645 73.3181C242.645 75.0841 242.039 76.6424 240.827 77.9929C239.615 79.378 237.918 80.4342 235.737 81.1613C233.59 81.9232 231.097 82.3041 228.257 82.3041ZM228.984 63.3452C227.011 63.3452 225.227 62.9643 223.634 62.2025C222.041 61.4407 220.778 60.4018 219.843 59.086C218.942 57.7355 218.492 56.2465 218.492 54.619C218.492 52.8183 218.942 51.26 219.843 49.9442C220.743 48.5937 221.972 47.5722 223.53 46.8796C225.123 46.1524 226.941 45.7888 228.984 45.7888C230.647 45.7888 232.239 46.0485 233.763 46.5679C235.321 47.0527 236.776 47.8665 238.126 49.0092V51.3466C238.403 51.7622 238.628 52.2816 238.801 52.9049C239.009 53.4936 239.113 54.1169 239.113 54.7748C239.113 56.3331 238.698 57.7701 237.866 59.086C237.035 60.4018 235.841 61.4407 234.282 62.2025C232.759 62.9643 230.993 63.3452 228.984 63.3452ZM228.984 58.8263C229.85 58.8263 230.595 58.6704 231.218 58.3588C231.876 58.0125 232.378 57.5277 232.724 56.9044C233.071 56.2465 233.244 55.4847 233.244 54.619C233.244 53.2685 232.863 52.2123 232.101 51.4505C231.339 50.6541 230.3 50.2558 228.984 50.2558C228.119 50.2558 227.357 50.429 226.699 50.7753C226.076 51.1215 225.574 51.6236 225.193 52.2816C224.846 52.9395 224.673 53.7186 224.673 54.619C224.673 55.9348 225.054 56.9737 225.816 57.7355C226.612 58.4627 227.669 58.8263 228.984 58.8263ZM235.062 51.0869L232.568 46.516H243.165V51.2427L235.062 51.0869Z" fill="white"/>
<path d="M0 120.58C0 53.9854 53.9854 0 120.58 0H391.42C458.015 0 512 53.9854 512 120.58V391.42C512 458.015 458.015 512 391.42 512H120.58C53.9854 512 0 458.015 0 391.42V120.58Z" fill="white"/>
<path d="M94.6086 138.242C94.6086 131.957 101.934 128.518 106.77 132.534L234.667 238.748C247.035 249.018 264.965 249.018 277.333 238.748L405.23 132.534C410.066 128.518 417.391 131.957 417.391 138.242V356.174C417.391 374.615 402.442 389.565 384 389.565H128C109.558 389.565 94.6086 374.615 94.6086 356.174V138.242Z" fill="#6D4AFF"/>
<path fill-rule="evenodd" clip-rule="evenodd" d="M299.576 220.25L299.594 220.265L235.184 277.161C224.212 286.853 207.811 287.097 196.555 277.736L94.6086 192.952V138.217C94.6086 131.932 101.934 128.493 106.77 132.509L234.667 238.722C247.035 248.993 264.965 248.993 277.333 238.722L299.576 220.25Z" fill="url(#paint4_linear_2584_884)"/>
<path fill-rule="evenodd" clip-rule="evenodd" d="M348.753 179.436V389.565H384C402.441 389.565 417.391 374.614 417.391 356.174V138.243C417.391 131.957 410.065 128.518 405.23 132.534L348.753 179.436Z" fill="url(#paint5_linear_2584_884)"/>
<path fill-rule="evenodd" clip-rule="evenodd" d="M249.507 0L76.9855 7.07654e-06H0V102.957L192.928 102.957C224.176 102.957 249.507 77.6249 249.507 46.3768V0Z" fill="url(#paint6_linear_2584_884)"/>
<path d="M80.4211 71.4204C80.4211 67.5074 80.4211 63.5944 80.4211 59.6815V45.2416C80.4211 41.3286 80.4211 37.4156 80.4211 33.5027H94.4974C97.4062 33.5027 99.8475 33.9182 101.821 34.7493C103.795 35.5804 105.267 36.7231 106.236 38.1775C107.206 39.6318 107.691 41.294 107.691 43.1639C107.691 45.207 107.05 46.973 105.769 48.462C104.522 49.951 102.67 51.0071 100.211 51.6304V51.8382C103.328 52.3923 105.665 53.483 107.223 55.1106C108.781 56.7035 109.561 58.608 109.561 60.8242C109.561 62.7287 109.024 64.4948 107.95 66.1223C106.877 67.7152 105.301 68.9964 103.224 69.966C101.146 70.9356 98.6701 71.4204 95.796 71.4204H80.4211ZM93.2508 49.1892C94.6359 49.1892 95.8479 49.0333 96.8868 48.7217C97.9602 48.3754 98.8086 47.8387 99.4319 47.1115C100.055 46.3497 100.367 45.3801 100.367 44.2027C100.367 42.4713 99.7263 41.242 98.445 40.5149C97.1638 39.7877 95.4324 39.4241 93.2508 39.4241H87.6411V49.1892H93.2508ZM87.6411 65.5509H93.6144C95.3458 65.5509 96.8348 65.3951 98.0814 65.0834C99.328 64.7372 100.298 64.1831 100.99 63.4213C101.683 62.6248 102.029 61.586 102.029 60.3048C102.029 58.331 101.302 56.9632 99.8475 56.2013C98.4277 55.4395 96.35 55.0586 93.6144 55.0586H87.6411V65.5509Z" fill="white"/>
<path d="M131.722 72.1995C128.952 72.1995 126.476 71.6281 124.295 70.4854C122.148 69.3427 120.468 67.7152 119.256 65.6029C118.044 63.4559 117.438 60.9627 117.438 58.1232C117.438 55.6646 117.975 53.4138 119.049 51.3707C120.157 49.3277 121.663 47.7175 123.568 46.5401C125.472 45.3628 127.584 44.7741 129.904 44.7741C132.086 44.7741 134.008 45.2589 135.67 46.2285C137.332 47.1634 138.613 48.5312 139.514 50.3319C140.414 52.0979 140.864 54.2102 140.864 56.6688V59.3179H122.165V54.8509H137.8L134.268 55.8378C134.268 54.4526 134.077 53.3099 133.696 52.4096C133.35 51.4746 132.831 50.7821 132.138 50.3319C131.445 49.8471 130.597 49.6047 129.593 49.6047C128.623 49.6047 127.74 49.8817 126.944 50.4358C126.147 50.9552 125.507 51.7863 125.022 52.929C124.537 54.0371 124.295 55.4222 124.295 57.0844C124.295 59.4044 124.676 61.2917 125.437 62.746C126.234 64.1658 127.29 65.1873 128.606 65.8106C129.922 66.4339 131.393 66.7456 133.021 66.7456C134.198 66.7456 135.393 66.5898 136.605 66.2781C137.817 65.9318 139.064 65.3951 140.345 64.6679V69.7063C139.029 70.572 137.626 71.1953 136.137 71.5762C134.683 71.9917 133.211 72.1995 131.722 72.1995Z" fill="white"/>
<path d="M161.769 72.1995C160.141 72.1995 158.67 71.8705 157.354 71.2126C156.073 70.5547 155.034 69.5504 154.237 68.2C153.475 66.8495 153.095 65.2219 153.095 63.3174V50.9552H147.641V45.6571C149.476 45.6571 150.774 45.5186 151.536 45.2416C152.298 44.9299 152.8 44.3239 153.043 43.4236C153.285 42.5233 153.406 40.9997 153.406 38.8527H159.847V45.5013H166.911V50.9552H159.847V62.6941C159.847 64.1138 160.193 65.1527 160.886 65.8106C161.578 66.4339 162.513 66.7456 163.691 66.7456C164.764 66.7456 165.838 66.5551 166.911 66.1742V71.0568C166.184 71.403 165.387 71.6801 164.522 71.8878C163.691 72.0956 162.773 72.1995 161.769 72.1995Z" fill="white"/>
<path d="M182.025 72.1995C180.674 72.1995 179.445 71.9225 178.337 71.3684C177.229 70.7797 176.346 69.9487 175.688 68.8752C175.03 67.7671 174.701 66.4859 174.701 65.0315C174.701 62.6768 175.618 60.8934 177.454 59.6815C179.289 58.4695 181.921 57.4653 185.349 56.6688L191.011 55.3703L191.322 59.4218L186.388 60.8242C185.245 61.1358 184.327 61.4648 183.635 61.8111C182.977 62.1227 182.475 62.5036 182.128 62.9538C181.817 63.3693 181.661 63.8541 181.661 64.4082C181.661 65.2393 181.903 65.8799 182.388 66.33C182.908 66.7802 183.566 67.0053 184.362 67.0053C185.055 67.0053 185.799 66.7629 186.595 66.2781C187.392 65.7933 188.067 65.0315 188.621 63.9927C189.175 62.9538 189.452 61.6379 189.452 60.0451V54.747C189.452 53.1541 188.846 51.994 187.634 51.2669C186.457 50.505 185.089 50.1241 183.531 50.1241C182.25 50.1241 180.968 50.3319 179.687 50.7474C178.441 51.1283 177.194 51.6824 175.947 52.4096V47.3193C177.09 46.5574 178.441 45.9515 179.999 45.5013C181.592 45.0165 183.202 44.7741 184.829 44.7741C186.734 44.7741 188.535 45.0858 190.231 45.7091C191.928 46.2977 193.348 47.3712 194.491 48.9295C195.668 50.4531 196.257 52.5308 196.257 55.1625V64.7718C196.257 65.6029 196.378 66.2088 196.62 66.5898C196.863 66.936 197.33 67.1092 198.023 67.1092C198.508 67.1092 198.958 67.0226 199.373 66.8495V71.3165C198.646 71.6281 197.988 71.8359 197.399 71.9398C196.811 72.0783 196.17 72.1475 195.478 72.1475C193.85 72.1475 192.482 71.6974 191.374 70.7971C190.266 69.8967 189.625 68.8233 189.452 67.5766H189.296C188.639 69.0657 187.652 70.2084 186.336 71.0048C185.02 71.8013 183.583 72.1995 182.025 72.1995Z" fill="white"/>
</g>
<defs>
<linearGradient id="paint0_linear_2584_884" x1="271.516" y1="-22.2343" x2="281.219" y2="307.652" gradientUnits="userSpaceOnUse">
<stop offset="0.988738" stop-color="#6D4AFF"/>
</linearGradient>
<linearGradient id="paint1_linear_2584_884" x1="273.413" y1="23.4338" x2="192.783" y2="370.587" gradientUnits="userSpaceOnUse">
<stop offset="0.47989" stop-color="#24ECC6" stop-opacity="0"/>
<stop offset="0.994421" stop-color="#24ECC6"/>
</linearGradient>
<linearGradient id="paint2_linear_2584_884" x1="300.083" y1="408.622" x2="121.309" y2="102.902" gradientUnits="userSpaceOnUse">
<stop offset="0.0660125" stop-color="#ABFFEF"/>
<stop offset="0.44988" stop-color="#CAC9FF"/>
<stop offset="1" stop-color="#6D4AFF"/>
</linearGradient>
<linearGradient id="paint3_linear_2584_884" x1="50.7987" y1="191.072" x2="173.512" y2="-32.4292" gradientUnits="userSpaceOnUse">
<stop stop-color="#3F97E5"/>
<stop offset="1" stop-color="#C1B2FF"/>
</linearGradient>
<linearGradient id="paint4_linear_2584_884" x1="338.087" y1="257.366" x2="264.512" y2="-56.7357" gradientUnits="userSpaceOnUse">
<stop stop-color="#E2DBFF"/>
<stop offset="1" stop-color="#6D4AFF"/>
</linearGradient>
<linearGradient id="paint5_linear_2584_884" x1="515.71" y1="559.768" x2="264.628" y2="23.4027" gradientUnits="userSpaceOnUse">
<stop offset="0.271019" stop-color="#E2DBFF"/>
<stop offset="1" stop-color="#6D4AFF"/>
</linearGradient>
<linearGradient id="paint6_linear_2584_884" x1="38.8122" y1="165.101" x2="182.136" y2="-56.4915" gradientUnits="userSpaceOnUse">
<stop stop-color="#56BBFF"/>
<stop offset="1" stop-color="#30E3AE"/>
</linearGradient>
<clipPath id="clip0_2584_884">
<rect width="512" height="512" rx="121" fill="white"/>
</clipPath>
</defs>
</svg>
