<svg width="48" height="48" viewBox="0 0 48 48" fill="none" xmlns="http://www.w3.org/2000/svg">
    <rect width="48" height="48" rx="8" fill="url(#paint0_linear_40922_41054)" fill-opacity="0.25" />
    <rect x="9" y="17.4537" width="25.7143" height="17.1429" rx="1" fill="url(#paint1_linear_40922_41054)" />
    <path
        d="M13.2856 14.1666C13.2856 13.6143 13.7334 13.1666 14.2856 13.1666H37.9999C38.5522 13.1666 38.9999 13.6143 38.9999 14.1666V29.3095C38.9999 29.8618 38.5522 30.3095 37.9999 30.3095H14.2856C13.7334 30.3095 13.2856 29.8618 13.2856 29.3095V14.1666Z"
        fill="url(#paint2_linear_40922_41054)"
    />
    <path
        opacity="0.5"
        d="M13.2856 14.1666C13.2856 13.6143 13.7334 13.1666 14.2856 13.1666H20.7856C20.7856 17.3088 17.4278 20.6666 13.2856 20.6666V14.1666Z"
        fill="url(#paint3_linear_40922_41054)"
    />
    <path
        opacity="0.5"
        d="M39 14.1666C39 13.6143 38.5523 13.1666 38 13.1666H31.5C31.5 17.3088 34.8579 20.6666 39 20.6666V14.1666Z"
        fill="url(#paint4_linear_40922_41054)"
    />
    <path
        opacity="0.5"
        d="M13.2856 29.3086C13.2856 29.8609 13.7334 30.3086 14.2856 30.3086H20.7856C20.7856 26.1665 17.4278 22.8086 13.2856 22.8086V29.3086Z"
        fill="url(#paint5_linear_40922_41054)"
    />
    <path
        opacity="0.5"
        d="M39 29.3086C39 29.8609 38.5523 30.3086 38 30.3086H31.5C31.5 26.1665 34.8579 22.8086 39 22.8086V29.3086Z"
        fill="url(#paint6_linear_40922_41054)"
    />
    <ellipse opacity="0.5" cx="26.3808" cy="21.3809" rx="3.21429" ry="3.21429" fill="url(#paint7_linear_40922_41054)" />
    <defs>
        <linearGradient id="paint0_linear_40922_41054" x1="24" y1="0" x2="24" y2="48" gradientUnits="userSpaceOnUse">
            <stop stop-color="#A5F3E4" />
            <stop offset="1" stop-color="#25ECC6" />
        </linearGradient>
        <linearGradient
            id="paint1_linear_40922_41054"
            x1="21.8571"
            y1="17.4537"
            x2="21.8571"
            y2="34.5966"
            gradientUnits="userSpaceOnUse"
        >
            <stop stop-color="#25ECC6" />
            <stop offset="1" stop-color="#158670" />
        </linearGradient>
        <linearGradient
            id="paint2_linear_40922_41054"
            x1="26.1428"
            y1="13.1666"
            x2="26.1428"
            y2="30.3095"
            gradientUnits="userSpaceOnUse"
        >
            <stop stop-color="#BCF6EB" />
            <stop offset="1" stop-color="#25ECC6" />
        </linearGradient>
        <linearGradient
            id="paint3_linear_40922_41054"
            x1="17.0356"
            y1="13.1666"
            x2="17.0356"
            y2="20.6666"
            gradientUnits="userSpaceOnUse"
        >
            <stop stop-color="#25ECC6" />
            <stop offset="1" stop-color="#158670" />
        </linearGradient>
        <linearGradient
            id="paint4_linear_40922_41054"
            x1="35.25"
            y1="13.1666"
            x2="35.25"
            y2="20.6666"
            gradientUnits="userSpaceOnUse"
        >
            <stop stop-color="#25ECC6" />
            <stop offset="1" stop-color="#158670" />
        </linearGradient>
        <linearGradient
            id="paint5_linear_40922_41054"
            x1="17.0356"
            y1="30.3086"
            x2="17.0356"
            y2="22.8086"
            gradientUnits="userSpaceOnUse"
        >
            <stop stop-color="#25ECC6" />
            <stop offset="1" stop-color="#158670" />
        </linearGradient>
        <linearGradient
            id="paint6_linear_40922_41054"
            x1="35.25"
            y1="30.3086"
            x2="35.25"
            y2="22.8086"
            gradientUnits="userSpaceOnUse"
        >
            <stop stop-color="#25ECC6" />
            <stop offset="1" stop-color="#158670" />
        </linearGradient>
        <linearGradient
            id="paint7_linear_40922_41054"
            x1="26.3808"
            y1="18.1666"
            x2="26.3808"
            y2="24.5952"
            gradientUnits="userSpaceOnUse"
        >
            <stop stop-color="#25ECC6" />
            <stop offset="1" stop-color="#158670" />
        </linearGradient>
    </defs>
</svg>
