<svg width="48" height="48" viewBox="0 0 48 48" fill="none" xmlns="http://www.w3.org/2000/svg">
    <rect width="48" height="48" rx="8" fill="#FFE3BA" fill-opacity="0.3" />
    <g clip-path="url(#clip0_40922_41049)">
        <path
            d="M25.3891 35.1112H11.1113C10.5591 35.1112 10.1113 34.6635 10.1113 34.1112L10.1113 16.6667C10.1113 16.1145 10.559 15.6667 11.1113 15.6667H25.3891V35.1112Z"
            fill="url(#paint0_linear_40922_41049)"
        />
        <path
            d="M25.3892 35.1112H36.8892C37.4414 35.1112 37.8892 34.6635 37.8892 34.1112V16.6667C37.8892 16.1145 37.4414 15.6667 36.8892 15.6667H25.3892V35.1112Z"
            fill="url(#paint1_linear_40922_41049)"
        />
        <path d="M33.7223 17.0555H29.5557V35.1111H33.7223V17.0555Z" fill="#FFE3BA" fill-opacity="0.7" />
        <path d="M19.8337 17.0555H15.667V35.1111H19.8337V17.0555Z" fill="#FFE3BA" />
        <path
            d="M30.9448 10.806C30.9446 12.7235 29.3897 14.2777 27.4722 14.2777L24.0005 14.2777L24.0005 10.806C24.0005 8.88845 25.5546 7.33349 27.4722 7.33337C29.3898 7.33337 30.9448 8.88838 30.9448 10.806ZM29.5562 10.806C29.5562 9.65544 28.6228 8.72205 27.4722 8.72205C26.3217 8.72216 25.3892 9.65551 25.3892 10.806L25.3892 12.889L27.4722 12.889C28.6226 12.889 29.5559 11.9564 29.5562 10.806Z"
            fill="url(#paint2_linear_40922_41049)"
        />
        <path
            d="M18.4448 10.806C18.4451 12.7234 19.9991 14.2775 21.9165 14.2777L25.3892 14.2777L25.3892 10.806C25.3892 8.88837 23.8342 7.33337 21.9165 7.33337C19.999 7.33355 18.4448 8.88848 18.4448 10.806ZM19.8335 10.806C19.8335 9.65555 20.7661 8.72222 21.9165 8.72205C23.0671 8.72205 24.0005 9.65544 24.0005 10.806L24.0005 12.889L21.9165 12.889C20.7662 12.8889 19.8337 11.9563 19.8335 10.806Z"
            fill="url(#paint3_linear_40922_41049)"
        />
        <path d="M8.72217 12.8889H25.3888V17.0556H8.72217V12.8889Z" fill="url(#paint4_linear_40922_41049)" />
        <path d="M25.3892 12.8889H39.278V17.0556H25.3892V12.8889Z" fill="url(#paint5_linear_40922_41049)" />
        <path d="M33.7223 12.8889H29.5557V17.0556H33.7223V12.8889Z" fill="#FFE3BA" fill-opacity="0.5" />
        <path d="M19.8332 12.8889H15.6665V17.0556H19.8332V12.8889Z" fill="#FFE3BA" fill-opacity="0.5" />
    </g>
    <defs>
        <linearGradient
            id="paint0_linear_40922_41049"
            x1="20.2087"
            y1="15.8209"
            x2="11.7217"
            y2="34.2326"
            gradientUnits="userSpaceOnUse"
        >
            <stop stop-color="#FFD391" />
            <stop offset="1" stop-color="#FFA26D" />
        </linearGradient>
        <linearGradient
            id="paint1_linear_40922_41049"
            x1="38.006"
            y1="35.1112"
            x2="20.6822"
            y2="22.0143"
            gradientUnits="userSpaceOnUse"
        >
            <stop stop-color="#FF7E62" />
            <stop offset="1" stop-color="#FFA26D" />
        </linearGradient>
        <linearGradient
            id="paint2_linear_40922_41049"
            x1="28.1671"
            y1="7.33337"
            x2="28.1671"
            y2="14.2777"
            gradientUnits="userSpaceOnUse"
        >
            <stop stop-color="#FFBF83" />
            <stop offset="1" stop-color="#FF8F68" />
        </linearGradient>
        <linearGradient
            id="paint3_linear_40922_41049"
            x1="21.2226"
            y1="7.33337"
            x2="21.2226"
            y2="14.2777"
            gradientUnits="userSpaceOnUse"
        >
            <stop stop-color="#FFBF83" />
            <stop offset="1" stop-color="#FF8F68" />
        </linearGradient>
        <linearGradient
            id="paint4_linear_40922_41049"
            x1="17.0555"
            y1="12.8889"
            x2="17.0555"
            y2="17.0556"
            gradientUnits="userSpaceOnUse"
        >
            <stop stop-color="#FFC889" />
            <stop offset="1" stop-color="#FF986A" />
        </linearGradient>
        <linearGradient
            id="paint5_linear_40922_41049"
            x1="32.3336"
            y1="12.8889"
            x2="32.3336"
            y2="17.0556"
            gradientUnits="userSpaceOnUse"
        >
            <stop stop-color="#FF9168" />
            <stop offset="1" stop-color="#FF8464" />
        </linearGradient>
        <clipPath id="clip0_40922_41049">
            <rect width="33.3333" height="33.3333" fill="white" transform="translate(7.3335 7.33337)" />
        </clipPath>
    </defs>
</svg>
