<svg width="48" height="48" viewBox="0 0 48 48" fill="none" xmlns="http://www.w3.org/2000/svg">
    <path
        d="M0 8C0 3.58172 3.58172 0 8 0H40C44.4183 0 48 3.58172 48 8V40C48 44.4183 44.4183 48 40 48H8C3.58172 48 0 44.4183 0 40V8Z"
        fill="url(#paint0_linear_40922_41044)"
        fill-opacity="0.3"
    />
    <g clip-path="url(#clip0_40922_41044)">
        <path
            d="M17.376 24.0151C21.1346 24.0151 24.315 26.039 26.0498 29.147C27.2786 31.3154 25.6166 33.9173 23.1592 33.9175H11.5938C9.13623 33.9174 7.47349 31.2431 8.70215 29.147C10.3646 26.1112 13.6175 24.0153 17.376 24.0151ZM17.3047 14.0405C19.58 14.0407 21.4248 15.8853 21.4248 18.1606C21.4248 20.436 19.58 22.2806 17.3047 22.2808C15.0292 22.2808 13.1846 20.4361 13.1846 18.1606C13.1846 15.8852 15.0292 14.0405 17.3047 14.0405Z"
            fill="url(#paint1_linear_40922_41044)"
        />
        <g filter="url(#filter0_d_40922_41044)">
            <path
                d="M29.4024 22.3524C32.0464 22.3524 34.1898 20.1924 34.1898 17.5278C34.1898 14.8633 32.0464 12.7032 29.4024 12.7032C26.7584 12.7032 24.6151 14.8633 24.6151 17.5278C24.6151 20.1924 26.7584 22.3524 29.4024 22.3524Z"
                fill="url(#paint2_linear_40922_41044)"
            />
            <path
                d="M22.767 35.9791C19.9114 35.9791 17.9797 32.8474 19.4075 30.3928C21.3392 26.8378 25.1187 24.3832 29.4861 24.3832C33.8535 24.3832 37.549 26.7532 39.5648 30.3928C40.9926 32.932 39.0608 35.9791 36.2052 35.9791H22.767Z"
                fill="url(#paint3_linear_40922_41044)"
            />
        </g>
        <path
            d="M15.2837 12.003L13.9906 11.5254L13.3955 11.305L13.1751 10.7099L12.6975 9.41675L12.22 10.7099L11.9996 11.305L11.4044 11.5254L10.1113 12.003L11.4044 12.4805L11.9996 12.7009L12.22 13.2961L12.6975 14.5892L13.1751 13.2961L13.3955 12.7009L13.9906 12.4805L15.2837 12.003Z"
            fill="url(#paint4_linear_40922_41044)"
            fill-opacity="0.5"
        />
        <path
            d="M37.6975 22.8626L37.051 22.6238L36.7534 22.5136L36.6432 22.216L36.4044 21.5695L36.1656 22.216L36.0554 22.5136L35.7579 22.6238L35.1113 22.8626L35.7579 23.1013L36.0554 23.2116L36.1656 23.5091L36.4044 24.1557L36.6432 23.5091L36.7534 23.2116L37.051 23.1013L37.6975 22.8626Z"
            fill="url(#paint5_linear_40922_41044)"
            fill-opacity="0.5"
        />
    </g>
    <defs>
        <filter
            id="filter0_d_40922_41044"
            x="15.2016"
            y="10.8412"
            width="28.5689"
            height="30.7242"
            filterUnits="userSpaceOnUse"
            color-interpolation-filters="sRGB"
        >
            <feFlood flood-opacity="0" result="BackgroundImageFix" />
            <feColorMatrix
                in="SourceAlpha"
                type="matrix"
                values="0 0 0 0 0 0 0 0 0 0 0 0 0 0 0 0 0 0 127 0"
                result="hardAlpha"
            />
            <feOffset dy="1.86207" />
            <feGaussianBlur stdDeviation="1.86207" />
            <feComposite in2="hardAlpha" operator="out" />
            <feColorMatrix type="matrix" values="0 0 0 0 0.32317 0 0 0 0 0.155642 0 0 0 0 0.679167 0 0 0 0.1 0" />
            <feBlend mode="normal" in2="BackgroundImageFix" result="effect1_dropShadow_40922_41044" />
            <feBlend mode="normal" in="SourceGraphic" in2="effect1_dropShadow_40922_41044" result="shape" />
        </filter>
        <linearGradient
            id="paint0_linear_40922_41044"
            x1="35.9895"
            y1="-0.265436"
            x2="25.9975"
            y2="48.2489"
            gradientUnits="userSpaceOnUse"
        >
            <stop stop-color="#FAEBFF" />
            <stop offset="1" stop-color="#EBAAFF" />
        </linearGradient>
        <linearGradient
            id="paint1_linear_40922_41044"
            x1="21.9166"
            y1="13.9306"
            x2="17.4276"
            y2="33.8617"
            gradientUnits="userSpaceOnUse"
        >
            <stop stop-color="#FAEBFF" />
            <stop offset="1" stop-color="#EBAAFF" />
        </linearGradient>
        <linearGradient
            id="paint2_linear_40922_41044"
            x1="35.1115"
            y1="12.5417"
            x2="18.792"
            y2="35.8056"
            gradientUnits="userSpaceOnUse"
        >
            <stop stop-color="#EBAAFF" />
            <stop offset="1" stop-color="#A171FA" />
        </linearGradient>
        <linearGradient
            id="paint3_linear_40922_41044"
            x1="35.1115"
            y1="12.5417"
            x2="18.792"
            y2="35.8056"
            gradientUnits="userSpaceOnUse"
        >
            <stop stop-color="#EBAAFF" />
            <stop offset="1" stop-color="#A171FA" />
        </linearGradient>
        <linearGradient
            id="paint4_linear_40922_41044"
            x1="12.7121"
            y1="9.41675"
            x2="12.7121"
            y2="14.5746"
            gradientUnits="userSpaceOnUse"
        >
            <stop stop-color="#F9E6FF" />
            <stop offset="1" stop-color="#CEC5F6" />
        </linearGradient>
        <linearGradient
            id="paint5_linear_40922_41044"
            x1="36.4117"
            y1="21.5695"
            x2="36.4117"
            y2="24.1484"
            gradientUnits="userSpaceOnUse"
        >
            <stop stop-color="#F9E6FF" />
            <stop offset="1" stop-color="#CEC5F6" />
        </linearGradient>
        <clipPath id="clip0_40922_41044">
            <rect width="33.3333" height="33.3333" fill="white" transform="translate(7.3335 7.33337)" />
        </clipPath>
    </defs>
</svg>
