<svg xmlns="http://www.w3.org/2000/svg" viewBox="0 0 93 101" enable-background="new 0 0 93 101"><style type="text/css">.st0{fill:#55B366;}</style><path d="M92.4 11.5c0-6.2-5-11.2-11.2-11.2s-11.2 5-11.2 11.2v.3l-49 15.8c-3.5-5.1-10.5-6.5-15.6-3s-6.5 10.5-3 15.6c2.1 3.2 5.7 5 9.5 4.9 1.2 0 2.3-.2 3.4-.6l32.2 40.7c-2.4 5.7.2 12.3 5.9 14.8 5.7 2.4 12.3-.2 14.8-5.9 1.9-4.5.7-9.8-3-12.9l17.1-58.5c5.7-.5 10.1-5.4 10.1-11.2zm-34.8 66.8c-1.7 0-3.4.4-5 1.2l-31.4-39.8c.9-1.4 1.4-3 1.6-4.7l50.1-16c.5.6 1.1 1.1 1.7 1.6l-17 57.7z" class="st0"/></svg>