<?xml version="1.0" encoding="utf-8"?>
<!--Generator: Adobe Illustrator 23.0.6, SVG Export Plug-In . SVG Version: 6.00 Build 0)-->
<svg xmlns="http://www.w3.org/2000/svg" xmlns:xlink="http://www.w3.org/1999/xlink" id="Layer_1" x="0px" y="0px" style="enable-background:new 0 0 93 101" version="1.1" viewBox="0 0 93 101" xml:space="preserve">
  <style type="text/css">
    .st0{fill:#55B366;}
  </style>
  <path d="M92.4,11.5c0-6.2-5-11.2-11.2-11.2s-11.2,5-11.2,11.2c0,0,0,0,0,0.3l-49,15.8c-3.5-5.1-10.5-6.5-15.6-3
	s-6.5,10.5-3,15.6c2.1,3.2,5.7,5,9.5,4.9c1.2,0,2.3-0.2,3.4-0.6l32.2,40.7c-2.4,5.7,0.2,12.3,5.9,14.8c5.7,2.4,12.3-0.2,14.8-5.9
	c1.9-4.5,0.7-9.8-3-12.9l17.1-58.5C88,22.2,92.4,17.3,92.4,11.5z M57.6,78.3c-1.7,0-3.4,0.4-5,1.2L21.2,39.7c0.9-1.4,1.4-3,1.6-4.7
	l50.1-16c0.5,0.6,1.1,1.1,1.7,1.6L57.6,78.3L57.6,78.3z" class="st0"/>
</svg>
