<?xml version="1.0" encoding="utf-8"?>
<!--Generator: Adobe Illustrator 23.0.6, SVG Export Plug-In . SVG Version: 6.00 Build 0)-->
<svg xmlns="http://www.w3.org/2000/svg" xmlns:xlink="http://www.w3.org/1999/xlink" id="Layer_1" x="0px" y="0px" style="enable-background:new 0 0 113 50" version="1.1" viewBox="0 0 113 50" xml:space="preserve">
  <style type="text/css">
    .st0{fill:#55B366;} .st1{fill:#56B366;} .st2{fill:#8B88C2;}
  </style>
  <path d="M46,5.6C46,2.5,43.5,0,40.4,0c-3.1,0-5.6,2.5-5.6,5.6c0,0,0,0,0,0.2l-24.3,7.9c-1.7-2.6-5.2-3.2-7.8-1.5
	s-3.2,5.2-1.5,7.8c1.1,1.6,2.8,2.5,4.7,2.4c0.6,0,1.2-0.1,1.7-0.3l16,20.2c-1.2,2.8,0.1,6.1,2.9,7.3c2.8,1.2,6.1-0.1,7.3-2.9
	c1-2.2,0.3-4.8-1.5-6.4l8.5-29C43.8,10.9,46,8.5,46,5.6z M28.7,38.7c-0.9,0-1.7,0.2-2.5,0.6L10.6,19.6c0.4-0.7,0.7-1.5,0.8-2.3
	l24.9-7.9c0.3,0.3,0.5,0.6,0.9,0.8L28.7,38.7L28.7,38.7z" class="st0"/>
  <g>
    <path d="M56.5,30.7v-4.9h-4.9v-2.1h4.9v-4.9h2.1v4.9h4.9v2.1h-4.9v4.9H56.5z" class="st1"/>
  </g>
  <g>
    <path d="M95.5,0c0,0-14.8-0.5-17.8,15.9v11.1c0,0,0.1,1.2,3.5,3.6c3.4,2.4,12,9.2,14.3,9.2s11-6.8,14.3-9.2
		c3.4-2.4,3.5-3.6,3.5-3.6V15.9C110.3-0.4,95.5,0,95.5,0 M105.6,22H95.5H85.4v-6.1c2-8.1,10.1-8.2,10.1-8.2s8.1,0.1,10.1,8.2V22z" class="st2"/>
    <path d="M95.5,42.4c0,0-2.3-0.2-4.1-1.5c-1.8-1.2-13.7-9.8-13.7-9.8v16.9c0,0,0.1,2,2.3,2h15.5H111c2.2,0,2.3-2,2.3-2
		V31.2c0,0-11.9,8.5-13.7,9.8C97.8,42.2,95.5,42.4,95.5,42.4" class="st2"/>
  </g>
</svg>
