<svg id="Groupe_3909" data-name="Groupe 3909" xmlns="http://www.w3.org/2000/svg" width="89.719" height="52.623" viewBox="0 0 89.719 52.623">
  <path id="Tracé_2012" data-name="Tracé 2012" d="M872.589,142.738h0a4.115,4.115,0,0,0-3.885,4.311v3.025h.93l.539-1.121-.135,1.121h5.98l.49-1.019-.122,1.019h.673V147.7A4.735,4.735,0,0,0,872.589,142.738Z" transform="translate(-802.123 -141.264)" fill="#2f2e41"/>
  <ellipse id="Ellipse_903" data-name="Ellipse 903" cx="42.15" cy="2.829" rx="42.15" ry="2.829" transform="translate(5.418 46.965)" fill="#f2f2f2"/>
  <path id="Tracé_2013" data-name="Tracé 2013" d="M274.744,493.613a5.757,5.757,0,0,1-.608-2.277,15.788,15.788,0,0,1,1.167-7.008,14.133,14.133,0,0,0-.56-11.248l.14-.081a12.413,12.413,0,0,1,1.171,3.318,14.474,14.474,0,0,1-.6,8.068c-2.3,6.187-.59,9.116-.573,9.145Z" transform="translate(-255.571 -444.827)" fill="#3f3d56"/>
  <circle id="Ellipse_904" data-name="Ellipse 904" cx="1.051" cy="1.051" r="1.051" transform="translate(17.221 25.786)" fill="#4da358"/>
  <circle id="Ellipse_905" data-name="Ellipse 905" cx="1.051" cy="1.051" r="1.051" transform="translate(20.535 29.666)" fill="#3f3d56"/>
  <circle id="Ellipse_906" data-name="Ellipse 906" cx="1.051" cy="1.051" r="1.051" transform="translate(18.272 32.253)" fill="#4da358"/>
  <circle id="Ellipse_907" data-name="Ellipse 907" cx="1.051" cy="1.051" r="1.051" transform="translate(21.02 34.435)" fill="#4da358"/>
  <circle id="Ellipse_908" data-name="Ellipse 908" cx="1.051" cy="1.051" r="1.051" transform="translate(17.463 37.83)" fill="#3f3d56"/>
  <path id="Tracé_2014" data-name="Tracé 2014" d="M288.153,677.027s-1.051-2.587,2.1-4.527Z" transform="translate(-268.346 -628.203)" fill="#3f3d56"/>
  <path id="Tracé_2015" data-name="Tracé 2015" d="M226.548,696.908s-.478-2.751-4.18-2.727Z" transform="translate(-208.033 -648.131)" fill="#3f3d56"/>
  <path id="Tracé_2016" data-name="Tracé 2016" d="M888.969,207.243s1.213,2.829-.4,3.4l1.617,5.335,2.748-.162.727-1.778-.162-2.668-.242-1.778s-1.7.4-1.536-2.587Z" transform="translate(-820.378 -200.331)" fill="#ffb8b8"/>
  <path id="Tracé_2017" data-name="Tracé 2017" d="M803.5,250.89s-2.668-.243-2.425,1.7a7.761,7.761,0,0,0,.485,2.344l.242,2.91-1.455.889h-1.374s-4.2.97-2.1,2.021a1.877,1.877,0,0,0,2.829-.808s3.88,0,4.122-.647S803.5,250.89,803.5,250.89Z" transform="translate(-735.558 -240.664)" fill="#ffb8b8"/>
  <path id="Tracé_2018" data-name="Tracé 2018" d="M949.565,238.687s2.506-.889,2.668,1.051.162,2.1.162,2.1l.485,2.748a16.568,16.568,0,0,1,.97,3.153,17.856,17.856,0,0,0,.728,2.991s.97,3.153-.081,3.072-1.213-3.4-1.213-3.4l-2.182-4.365-.647-2.668Z" transform="translate(-876.448 -229.27)" fill="#ffb8b8"/>
  <path id="Tracé_2019" data-name="Tracé 2019" d="M877.713,236.889h-.647l-.081,3.4a2.132,2.132,0,0,0,.243,2.748l.323,2.1,5.9-.242.4-2.183a3.655,3.655,0,0,0-.323-3.4L882.483,236h-.566s1.311,4.832-1.455,4.931C878.2,241.012,877.713,236.889,877.713,236.889Z" transform="translate(-809.365 -226.987)" fill="#4da358"/>
  <path id="Tracé_2020" data-name="Tracé 2020" d="M800.474,342.162l-.485,1.617s-10.1,28.454-7.033,29.181,7.356,1.7,7.76.97,2.506-21.987,2.506-21.987-.323,22.229.728,22.229,8,.162,8.407-.889-3.638-29.181-5.982-29.828L805.728,342Z" transform="translate(-731.964 -324.419)" fill="#2f2e41"/>
  <path id="Tracé_2021" data-name="Tracé 2021" d="M890.478,334l-6.386.242s-.291,2.183,0,2.183c.081,0,6.709.566,6.628-.4S890.478,334,890.478,334Z" transform="translate(-816.148 -317.065)" fill="#3f3d56"/>
  <path id="Tracé_2022" data-name="Tracé 2022" d="M348.3,420.627a9.136,9.136,0,0,1-5.169,8.231h0a8.909,8.909,0,0,1-.852.358c-.046.018-.093.034-.141.049-.1.035-.2.066-.3.1q-.307.095-.622.167h0l-.006,0-.013,0-.084.019q-.235.052-.475.09a9.062,9.062,0,0,1-1.476.12c-.265,0-.529-.011-.788-.034l-.042,0a9.17,9.17,0,0,1-2.09-.439c-.1-.034-.2-.069-.3-.107a9.135,9.135,0,1,1,12.354-8.55Z" transform="translate(-306.992 -388.294)" fill="#3f3d56"/>
  <path id="Tracé_2023" data-name="Tracé 2023" d="M429.639,521.222s2.142-.934,3.149.053S430.093,521.937,429.639,521.222Z" transform="translate(-398.549 -488.786)" fill="#3f3d56"/>
  <path id="Tracé_2024" data-name="Tracé 2024" d="M412.231,456.467a2.8,2.8,0,0,0-2.144-1.273s-1.388-.178-2.278,1.675c-.83,1.727-1.975,3.394-.184,3.8l.323-1.007.2,1.082a7,7,0,0,0,.766.013c1.918-.062,3.745.018,3.686-.67C412.521,459.171,412.924,457.638,412.231,456.467Z" transform="translate(-377.442 -428.458)" fill="#2f2e41"/>
  <path id="Tracé_2025" data-name="Tracé 2025" d="M424.74,627.693c.048-.015.095-.031.141-.049l-.01-.015-.13-.007-.842-.045h0l-.141-.007-.67-.036-1.459-.079-.782-.042-.04,0h-.01l-.55-.03-.179-.01L419.9,628a8.849,8.849,0,0,0,1.043.155l.042,0c.259.023.523.034.788.034a9.065,9.065,0,0,0,1.476-.12q.24-.038.475-.09l.084-.019.013,0,.006,0h0q.315-.073.622-.167Z" transform="translate(-389.593 -586.721)" fill="#2f2e41"/>
  <path id="Tracé_2026" data-name="Tracé 2026" d="M428.858,498.1s.325,2.142-.325,2.4,1.3,1.363,1.3,1.363h1.1l.714-1.493a3.119,3.119,0,0,1-.26-2.272C431.78,497,428.858,498.1,428.858,498.1Z" transform="translate(-397.411 -467.452)" fill="#a0616a"/>
  <path id="Tracé_2027" data-name="Tracé 2027" d="M425.209,534.674v-7.6s-.082-.78-.736-.577a1.232,1.232,0,0,0-.194.081,2.244,2.244,0,0,0-.309.2c-.037.028-.075.059-.115.092l-.01.008c-1.234,1.039-1.817.325-1.947.195-.048-.047-.172-.18-.312-.331h0c-.061-.065-.124-.133-.184-.2-.185-.2-.348-.378-.348-.378l-.649.519.158,3.935.037.928h0l.012.289v0l.1,2.517.015.38a6.9,6.9,0,0,0,.669.176l.209.04a2.9,2.9,0,0,0,1.72-.087,1.6,1.6,0,0,1,.285-.119,1.975,1.975,0,0,1,.6-.083l.129,0h0a2.909,2.909,0,0,1,.57.1Z" transform="translate(-390.062 -493.701)" fill="#3f3d56"/>
  <path id="Tracé_2028" data-name="Tracé 2028" d="M396.916,533.108a3.955,3.955,0,0,1-.489.522c-.055.05-.11.1-.166.146l-.034.028a9.171,9.171,0,0,1-2.09-.439c-.1-.034-.2-.07-.3-.108a3.017,3.017,0,0,0,.146-.487c.447-2.1-.853-5.275-.966-5.785-.041-.183.111-.438.354-.709a8.28,8.28,0,0,1,1.854-1.433,1.338,1.338,0,0,1,.861-.079h0a1.554,1.554,0,0,1,.264.079h0c0,.012.01.1.025.262.008.087.018.192.03.314h0c.022.23.049.516.082.842h0c.195,2.012.547,5.514.685,6.109A.949.949,0,0,1,396.916,533.108Z" transform="translate(-364.883 -492.374)" fill="#d0cde1"/>
  <path id="Tracé_2029" data-name="Tracé 2029" d="M460.478,534.674c.048-.015.095-.032.141-.049a8.891,8.891,0,0,0,.852-.358c-.415-1.214.812-5.074,1.164-6.269v0c.041-.14.07-.243.083-.3.13-.584-1.85-1.136-1.915-1.266a4.294,4.294,0,0,0-1.234-.239l-.194-.02a1.146,1.146,0,0,0-.237.625c-.006.026-.01.053-.015.081-.043.251-.076.554-.1.894-.147,1.856-.1,4.789-.231,6a2.46,2.46,0,0,0,.033.748,2.343,2.343,0,0,0,.057.237,2.767,2.767,0,0,0,.1.3q.24-.038.475-.09l.084-.019.013,0,.006,0h0q.315-.073.622-.167Z" transform="translate(-425.331 -493.701)" fill="#d0cde1"/>
  <ellipse id="Ellipse_909" data-name="Ellipse 909" cx="0.13" cy="0.26" rx="0.13" ry="0.26" transform="translate(34.531 29.515)" fill="#a0616a"/>
  <ellipse id="Ellipse_910" data-name="Ellipse 910" cx="0.13" cy="0.26" rx="0.13" ry="0.26" transform="translate(30.7 29.515)" fill="#a0616a"/>
  <path id="Tracé_2030" data-name="Tracé 2030" d="M469.393,544.27c.048-.015.095-.032.141-.049a8.891,8.891,0,0,0,.852-.358,0,0,0,0,0,0,0,0,0,0,0,1,0,0c.485-2.561,1-5.3,1.162-6.268v0c.028-.168.046-.282.051-.333.065-.649-1.558-.649-1.558-.649l-.259,1.307-.39,1.975-.134.678-.709,3.583-.023.115-.053.265h0q.315-.073.622-.167Z" transform="translate(-434.246 -503.297)" fill="#d0cde1"/>
  <path id="Tracé_2031" data-name="Tracé 2031" d="M393.354,546.943a9.177,9.177,0,0,1-2.09-.439c-.051-.2-.1-.4-.153-.595a52.873,52.873,0,0,1-1.225-5.59,1.1,1.1,0,0,1,.614-.9,3.482,3.482,0,0,1,1.01-.394s.207.861.5,2.1c.159.663.344,1.434.535,2.241h0c.223.936.457,1.919.673,2.837q.052.223.1.44v0a.007.007,0,0,1,0,0l.019.08c.015.063.029.125.043.187,0,.01.006.021.008.032Z" transform="translate(-362.009 -505.513)" fill="#d0cde1"/>
  <path id="Tracé_2032" data-name="Tracé 2032" d="M414.379,562.713l1.461,5.713S415.158,563.427,414.379,562.713Z" transform="translate(-384.523 -527.29)" opacity="0.2"/>
  <path id="Tracé_2033" data-name="Tracé 2033" d="M461.325,634.972l.475-.092v0Q461.565,634.935,461.325,634.972Z" transform="translate(-427.674 -593.624)" opacity="0.2"/>
  <path id="Tracé_2034" data-name="Tracé 2034" d="M468.616,552.78l-.39,1.975-.134.678-.708,3.583h0l-.022.115h0l-.052.265h0l-.006,0-.013,0-.084.016c.007-.09.016-.187.026-.29,0-.038.006-.077.011-.117a26,26,0,0,1,.985-5.7A.97.97,0,0,1,468.616,552.78Z" transform="translate(-433.079 -518.16)" opacity="0.2"/>
  <circle id="Ellipse_911" data-name="Ellipse 911" cx="1.883" cy="1.883" r="1.883" transform="translate(30.862 27.924)" fill="#a0616a"/>
  <path id="Tracé_2035" data-name="Tracé 2035" d="M383.73,336.664l-1.407-.737-1.943.3-.4,1.776,1-.038.28-.652v.642l.462-.018.268-1.039.168,1.106,1.642-.033Z" transform="translate(-349.259 -308.773)" fill="#2f2e41"/>
  <path id="Tracé_2036" data-name="Tracé 2036" d="M63.3,277.626a9.134,9.134,0,0,1-3.807,7.42,8.994,8.994,0,0,1-1.008.63,9.158,9.158,0,0,1-6.254.878,8.939,8.939,0,0,1-1.327-.394,9.135,9.135,0,1,1,12.4-8.534Z" transform="translate(-45.028 -256.852)" fill="#3f3d56"/>
  <circle id="Ellipse_912" data-name="Ellipse 912" cx="2.101" cy="2.101" r="2.101" transform="translate(6.46 15.977)" fill="#ffb8b8"/>
  <path id="Tracé_2037" data-name="Tracé 2037" d="M140.786,360.575s.263,1.247.263,1.379,1.247.722,1.247.722l1.116-.2.394-1.182a4.483,4.483,0,0,1-.656-1.379Z" transform="translate(-133.045 -340.889)" fill="#ffb8b8"/>
  <path id="Tracé_2038" data-name="Tracé 2038" d="M113.072,382.49a9.141,9.141,0,0,1-1.935-.206c-.032-.643-.053-1.351-.053-1.351l-.64-1.858-1.329-3.853,2.736-2.089s.677,1.1,1.662.775a1.358,1.358,0,0,0,.964-1.269l3.238,1.138-.559,4.539-.032.254.267,2.836A9.089,9.089,0,0,1,113.072,382.49Z" transform="translate(-103.935 -352.582)" fill="#d0cde1"/>
  <path id="Tracé_2039" data-name="Tracé 2039" d="M122.783,314s.667-1.445,1.945-1.112,2,.834,2.057,1.334a7.138,7.138,0,0,1-.028,1.251s-.139-1.028-1.028-.806a7.932,7.932,0,0,1-2.279.056l-.222,2s-.25-.361-.528-.139S121.893,314.44,122.783,314Z" transform="translate(-116.043 -297.61)" fill="#2f2e41"/>
  <path id="Tracé_2040" data-name="Tracé 2040" d="M94.135,410.256l.423-3.565a2.668,2.668,0,0,1,.788-2.1h.985l.722,2.429-.377,1.424-.475,1.792-.132.2s.132.2.065.263a1.109,1.109,0,0,0-.131.328s.014.094.038.234A9.051,9.051,0,0,1,94.135,410.256Z" transform="translate(-90.165 -381.949)" fill="#d0cde1"/>
  <path id="Tracé_2041" data-name="Tracé 2041" d="M203.62,389.992a9.12,9.12,0,0,1-1.614,1.483,3.049,3.049,0,0,1-.225-.5l-1.019-1.96-.688-1.322.131-3.414,1.116.2a4.294,4.294,0,0,1,.919,1.445l.525,2.363.853,1.707Z" transform="translate(-187.542 -363.281)" fill="#d0cde1"/>
  <path id="Tracé_2042" data-name="Tracé 2042" d="M615.311,212.625a9.128,9.128,0,0,1-4.387,7.8c-.162.1-.327.192-.495.28-.251.133-.508.254-.772.361h0c-.084.035-.168.068-.253.1l-.12.045a9.195,9.195,0,0,1-5.174.308,9.029,9.029,0,0,1-1.039-.307h0a9.091,9.091,0,0,1-1.253-.564q-.158-.085-.31-.177c-.071-.042-.141-.085-.21-.129a9.135,9.135,0,1,1,14.014-7.723Z" transform="translate(-552.419 -197.105)" fill="#3f3d56"/>
  <path id="Tracé_2043" data-name="Tracé 2043" d="M693.55,300s.054,1.406-.27,1.73,1.622,1.46,1.622,1.46l1.135-1.784a2.543,2.543,0,0,1-.324-1.406Z" transform="translate(-640.845 -285.817)" fill="#a0616a"/>
  <circle id="Ellipse_913" data-name="Ellipse 913" cx="1.947" cy="1.947" r="1.947" transform="translate(51.704 11.078)" fill="#a0616a"/>
  <path id="Tracé_2044" data-name="Tracé 2044" d="M667.464,319.641q.018.226.036.451l-.12.045a9.195,9.195,0,0,1-5.174.308,9.035,9.035,0,0,1-1.039-.307v.007a.011.011,0,0,1,0-.007,2.194,2.194,0,0,1,.092-.486h0c.045-.167.107-.359.177-.571a4.433,4.433,0,0,0,.065-1.19c0-.036,0-.072,0-.107-.007-.151-.015-.3-.023-.424-.019-.29-.038-.5-.038-.5l-1.19-3.191,2.874-2.1c.17.551.534.531.534.531,1.542.106,1.826-.96,1.835-.994h0l2.76,1.806-1.135,2.757s.046.467.112,1.18c.01.105.019.216.031.331C667.318,317.885,667.395,318.757,667.464,319.641Z" transform="translate(-610.514 -296.025)" fill="#d0cde1"/>
  <path id="Tracé_2045" data-name="Tracé 2045" d="M654.262,385.56l-.057.411-.014.1-.24,1.754,0,.007h0l-.091.486v.007a.011.011,0,0,1,0-.007,9.1,9.1,0,0,1-1.253-.564q-.158-.085-.31-.177a5.628,5.628,0,0,1,.238-.614l.165-1.284.051-.393,1.417.253Z" transform="translate(-603.207 -364.209)" fill="#a0616a"/>
  <path id="Tracé_2046" data-name="Tracé 2046" d="M656.676,341.811l-.784.081a30.269,30.269,0,0,0-.352,3.812,16.018,16.018,0,0,0,2.055.324C657.649,345.92,656.676,341.811,656.676,341.811Z" transform="translate(-606.161 -324.245)" fill="#d0cde1"/>
  <path id="Tracé_2047" data-name="Tracé 2047" d="M682.432,248.062l-.351-.128a2.5,2.5,0,0,1,1.755-.67l-.287-.287a1.3,1.3,0,0,1,1.34.415,5.7,5.7,0,0,1,.965,1.232h.376l-.157.314.549.314-.563-.056a1.583,1.583,0,0,1-.053.812l-.128.351a10.119,10.119,0,0,1-.51-1.148v.319s-.351-.287-.351-.478l-.191.223-.1-.351-1.18.351.191-.287-.734.1.287-.351s-.829.415-.861.766a1.835,1.835,0,0,1-.447.8l-.191-.319S681.507,248.541,682.432,248.062Z" transform="translate(-630.282 -237.034)" fill="#2f2e41"/>
  <path id="Tracé_2048" data-name="Tracé 2048" d="M746.184,380.769c-.162.1-.327.192-.495.28-.251.133-.508.254-.772.361h0c-.084.035-.168.068-.253.1l-.12.045.085-.5-.385-2.445-.049-.306.193-.036,1.807-.342v2.217S746.2,380.387,746.184,380.769Z" transform="translate(-687.678 -357.444)" fill="#a0616a"/>
  <path id="Tracé_2049" data-name="Tracé 2049" d="M741.285,331.777l1.054.135s1.271,3.866.946,4.028a15.789,15.789,0,0,1-2.433.27Z" transform="translate(-684.606 -315.022)" fill="#d0cde1"/>
  <circle id="Ellipse_914" data-name="Ellipse 914" cx="2.668" cy="2.668" r="2.668" transform="translate(12.371 11.155)" fill="#4da358"/>
  <circle id="Ellipse_915" data-name="Ellipse 915" cx="2.668" cy="2.668" r="2.668" transform="translate(35.813 22.876)" fill="#4da358"/>
  <circle id="Ellipse_916" data-name="Ellipse 916" cx="2.668" cy="2.668" r="2.668" transform="translate(57.719 6.386)" fill="#4da358"/>
  <circle id="Ellipse_917" data-name="Ellipse 917" cx="2.271" cy="2.271" r="2.271" transform="translate(67.569 3.295)" fill="#ffb8b8"/>
  <path id="Tracé_2050" data-name="Tracé 2050" d="M881,148.1a2.037,2.037,0,0,0-1.607-.82h-.076a2.83,2.83,0,0,0-2.663,2.972h.493l.08-.606.117.606h2.922l.245-.512-.061.512h.575a4.813,4.813,0,0,1-1.156,4h.979l.49-1.025-.122,1.025h1.867l.367-2.357A3.984,3.984,0,0,0,881,148.1Z" transform="translate(-809.431 -145.439)" fill="#2f2e41"/>
  <circle id="Ellipse_918" data-name="Ellipse 918" cx="1.455" cy="1.455" r="1.455" transform="translate(70.652)" fill="#2f2e41"/>
</svg>
