<svg xmlns="http://www.w3.org/2000/svg" viewBox="0 0 113 50" enable-background="new 0 0 113 50"><style type="text/css">.st0{fill:#55B366;} .st1{fill:#56B366;} .st2{fill:#8B88C2;}</style><path d="M46 5.6c0-3.1-2.5-5.6-5.6-5.6-3.1 0-5.6 2.5-5.6 5.6v.2l-24.3 7.9c-1.7-2.6-5.2-3.2-7.8-1.5s-3.2 5.2-1.5 7.8c1.1 1.6 2.8 2.5 4.7 2.4.6 0 1.2-.1 1.7-.3l16 20.2c-1.2 2.8.1 6.1 2.9 7.3 2.8 1.2 6.1-.1 7.3-2.9 1-2.2.3-4.8-1.5-6.4l8.5-29c3-.4 5.2-2.8 5.2-5.7zm-17.3 33.1c-.9 0-1.7.2-2.5.6l-15.6-19.7c.4-.7.7-1.5.8-2.3l24.9-7.9c.3.3.5.6.9.8l-8.5 28.5z" class="st0"/><path d="M56.5 30.7v-4.9h-4.9v-2.1h4.9v-4.9h2.1v4.9h4.9v2.1h-4.9v4.9h-2.1z" class="st1"/><path d="M95.5 0s-14.8-.5-17.8 15.9v11.1s.1 1.2 3.5 3.6c3.4 2.4 12 9.2 14.3 9.2s11-6.8 14.3-9.2c3.4-2.4 3.5-3.6 3.5-3.6v-11.1c-3-16.3-17.8-15.9-17.8-15.9m10.1 22h-20.2v-6.1c2-8.1 10.1-8.2 10.1-8.2s8.1.1 10.1 8.2v6.1zM95.5 42.4s-2.3-.2-4.1-1.5c-1.8-1.2-13.7-9.8-13.7-9.8v16.9s.1 2 2.3 2h31c2.2 0 2.3-2 2.3-2v-16.8s-11.9 8.5-13.7 9.8c-1.8 1.2-4.1 1.4-4.1 1.4" class="st2"/></svg>