<svg xmlns="http://www.w3.org/2000/svg" width="150" height="154" fill="none" viewBox="0 0 150 154">
  <defs/>
  <path fill="#4C4B69" d="M75.59 154H13.72A13.78 13.78 0 010 140.2V13.72C0 6.18 6.18 0 13.72 0H75.6C83.2 0 89.3 6.18 89.3 13.72V140.2c.08 7.62-6.1 13.8-13.72 13.8z"/>
  <path fill="#fff" d="M74.22 5.13h-4.95a5.28 5.28 0 00-4.8 3.1l-.28.6a6.2 6.2 0 01-5.61 3.6H30.73a6.29 6.29 0 01-5.61-3.6l-.22-.48a5.28 5.28 0 00-4.82-3.13h-4.91a9.49 9.49 0 00-9.47 9.46V139.4a9.49 9.49 0 009.47 9.46h59.05a9.49 9.49 0 009.47-9.46V14.6a9.54 9.54 0 00-9.47-9.47z"/>
  <rect width="11.85" height="11.85" x="11" y="106" fill="#F0F3F9" rx="2.22"/>
  <path fill="#F0F3F9" d="M27.3 115.63c0-.82.66-1.48 1.48-1.48h43.07c.82 0 1.48.66 1.48 1.48v.74c0 .82-.66 1.48-1.48 1.48H28.78c-.82 0-1.48-.66-1.48-1.48v-.74zM27.3 107.48c0-.82.66-1.48 1.48-1.48h43.07c.82 0 1.48.66 1.48 1.48v.74c0 .82-.66 1.48-1.48 1.48H28.78c-.82 0-1.48-.66-1.48-1.48v-.74z"/>
  <mask id="a" width="87" height="89" x="1" y="65" maskUnits="userSpaceOnUse">
    <path fill="#C4C4C4" d="M2 153.57h75.45a10 10 0 0010-10V65H2v88.57z"/>
  </mask>
  <g filter="url(#filter0_f)" mask="url(#a)" opacity=".3">
    <path fill="#221548" d="M59.05 172l28.4-18.43V74.5l-6.07 4.8a58.93 58.93 0 00-22.33 46.19V172z"/>
  </g>
  <rect width="11.85" height="11.85" x="11" y="36" fill="#F0F3F9" rx="2.22"/>
  <rect width="11.85" height="11.85" x="11" y="71" fill="#F0F3F9" rx="2.22"/>
  <path fill="#F0F3F9" d="M27.3 72.48c0-.82.66-1.48 1.48-1.48h43.07c.82 0 1.48.66 1.48 1.48v.74c0 .82-.66 1.48-1.48 1.48H28.78c-.82 0-1.48-.66-1.48-1.48v-.74zM27.3 80.63c0-.82.66-1.48 1.48-1.48h43.07c.82 0 1.48.66 1.48 1.48v.74c0 .82-.66 1.48-1.48 1.48H28.78c-.82 0-1.48-.66-1.48-1.48v-.74zM27.3 88.78c0-.82.66-1.48 1.48-1.48h13.7c.82 0 1.48.66 1.48 1.48v.74c0 .82-.66 1.48-1.48 1.48h-13.7c-.82 0-1.48-.66-1.48-1.48v-.74zM27.3 37.48c0-.82.66-1.48 1.48-1.48h43.07c.82 0 1.48.66 1.48 1.48v.74c0 .82-.66 1.48-1.48 1.48H28.78c-.82 0-1.48-.66-1.48-1.48v-.74zM27.3 123.78c0-.82.66-1.48 1.48-1.48h13.7c.82 0 1.48.66 1.48 1.48v.74c0 .82-.66 1.48-1.48 1.48h-13.7c-.82 0-1.48-.66-1.48-1.48v-.74zM27.3 45.63c0-.82.66-1.48 1.48-1.48h43.07c.82 0 1.48.66 1.48 1.48v.74c0 .82-.66 1.48-1.48 1.48H28.78c-.82 0-1.48-.66-1.48-1.48v-.74zM27.3 53.78c0-.82.66-1.48 1.48-1.48h13.7c.82 0 1.48.66 1.48 1.48v.74c0 .82-.66 1.48-1.48 1.48h-13.7c-.82 0-1.48-.66-1.48-1.48v-.74z"/>
  <rect width="80" height="80" x="70" y="74" fill="url(#paint0_linear)" rx="19.75"/>
  <path fill="#fff" d="M109.53 94.6s-10.14-.34-12.26 10.92v7.69s.06.82 2.4 2.52c2.36 1.7 8.28 6.4 9.86 6.4 1.59 0 7.57-4.76 9.86-6.4 2.29-1.65 2.4-2.53 2.4-2.53v-7.68c-2.05-11.26-12.26-10.91-12.26-10.91zm6.99 15.14h-13.9v-4.16a7.58 7.58 0 016.97-5.7 7.5 7.5 0 016.98 5.7v4.16h-.05z"/>
  <path fill="#fff" d="M109.53 123.82c-1-.11-1.93-.46-2.81-1l-9.45-6.74v11.62c.06.82.77 1.4 1.53 1.35h21.41c.82.05 1.53-.53 1.59-1.3v-11.67l-9.45 6.75c-.82.53-1.76.88-2.82 1z"/>
  <defs>
    <linearGradient id="paint0_linear" x1="109.39" x2="109.39" y1="154" y2="74" gradientUnits="userSpaceOnUse">
      <stop stop-color="#5D7CF7"/>
      <stop offset="1" stop-color="#64A2FF"/>
    </linearGradient>
    <filter id="filter0_f" width="61.79" height="130.89" x="42.36" y="57.8" color-interpolation-filters="sRGB" filterUnits="userSpaceOnUse">
      <feFlood flood-opacity="0" result="BackgroundImageFix"/>
      <feBlend in="SourceGraphic" in2="BackgroundImageFix" result="shape"/>
      <feGaussianBlur result="effect1_foregroundBlur" stdDeviation="8.35"/>
    </filter>
  </defs>
</svg>
