<svg xmlns="http://www.w3.org/2000/svg" width="128" height="128" fill="none" viewBox="0 0 128 128">
    <g filter="url(#a)">
        <ellipse cx="64" cy="113" fill="#000" fill-opacity=".95" rx="52" ry="3" />
    </g>
    <path
        fill="url(#b)"
        fill-rule="evenodd"
        d="M13.946 39.185a2 2 0 0 0-2.176 1.756l-8.373 70.706A3 3 0 0 0 6.377 115H62a1 1 0 0 0 1 1h3a1 1 0 0 0 1-1h54.668a3 3 0 0 0 2.983-3.314l-7.444-70.717a1.999 1.999 0 0 0-2.178-1.781L64.5 44l-50.554-4.815Z"
        clip-rule="evenodd"
    />
    <path
        fill="#232533"
        d="M12.825 41.601c.06-.56.092-.84.224-1.041a1 1 0 0 1 .486-.387c.226-.084.505-.052 1.065.013L64.5 46l43.482-5.798c.533-.07.8-.106 1.021-.032a1 1 0 0 1 .486.355c.138.188.185.453.28.983l12.396 69.611c.115.647.173.97.081 1.222-.08.221-.236.407-.439.525-.233.134-.561.134-1.217.134H8.57c-1.236 0-1.854 0-2.305-.249a1.996 1.996 0 0 1-.88-.982c-.198-.475-.13-1.089.004-2.318l7.436-67.85Z"
    />
    <path
        fill="url(#c)"
        d="m15 31.5 42.383 4.71c2.517.279 3.775.419 4.725 1a5 5 0 0 1 1.92 2.144c.472 1.008.472 2.274.472 4.806V113a30.065 30.065 0 0 0-7.138-1.135L7 110l8-78.5Z"
    />
    <path
        fill="url(#d)"
        d="m113.5 41-39.842-3.286c-3.006-.248-4.509-.372-5.668.137a5 5 0 0 0-2.388 2.2C65 41.162 65 42.67 65 45.686V113a39.332 39.332 0 0 1 14.43-2.273L121 112l-7.5-71Z"
    />
    <path
        fill="url(#e)"
        d="m115 38.5-32-4-6.161-1C70.369 32.453 64.5 37.447 64.5 44v69a12.352 12.352 0 0 1 12.018-6.156L87.5 108l35.5 3-8-72.5Z"
    />
    <path
        fill="url(#f)"
        d="m12.5 26 45.656 9.658c2.262.478 3.393.718 4.238 1.317a5 5 0 0 1 1.694 2.09c.412.952.412 2.108.412 4.42V113l-3.5-1-57.5-11.5 9-74.5Z"
    />
    <path
        fill="url(#g)"
        d="m21 13 26.959 14.874c6.019 3.32 9.028 4.981 11.22 7.35a20 20 0 0 1 4.306 7.293c1.015 3.063 1.015 6.5 1.015 13.375V113l-1.655-1.379c-.503-.419-.754-.629-1.025-.808a6.033 6.033 0 0 0-.753-.426c-.294-.139-.603-.246-1.221-.461L12.5 93.5 21 13Z"
    />
    <path
        fill="url(#h)"
        d="m31.5 5 18 18 9.409 8.782c2.06 1.923 3.09 2.884 3.829 4.026a10.997 10.997 0 0 1 1.43 3.294c.332 1.318.332 2.728.332 5.546V113c-.442-.884-.663-1.326-.926-1.735a8.991 8.991 0 0 0-1.753-1.999c-.372-.314-.781-.591-1.6-1.145L45.25 98 24 82.5 31.5 5Z"
    />
    <path
        fill="#666A80"
        d="M91.01 59.804c1.878.018 3.413-1.266 3.428-2.869.016-1.602-1.493-2.916-3.37-2.935-1.879-.018-3.413 1.266-3.43 2.868-.015 1.603 1.494 2.917 3.372 2.936Zm-4.793 8.149c-2.028-.02-3.381-1.917-2.353-3.383 1.393-2.125 4.092-3.575 7.193-3.544 3.102.03 5.712 1.481 7.122 3.685 1 1.537-.39 3.356-2.419 3.336l-9.543-.094Z"
    />
    <rect width="23" height="2" x="79.117" y="75.78" fill="#666A80" rx="1" transform="rotate(1.1 79.117 75.78)" />
    <rect width="19" height="2" x="81.022" y="80.817" fill="#666A80" rx="1" transform="rotate(1.1 81.022 80.817)" />
    <rect width="23" height="2" x="78.926" y="85.778" fill="#666A80" rx="1" transform="rotate(1.1 78.926 85.778)" />
    <path
        stroke="#666A80"
        stroke-width="1.5"
        d="M104.25 61.614c-.05 5.806-5.88 10.7-13.342 10.636-7.462-.064-13.207-5.058-13.157-10.863.05-5.806 5.88-10.7 13.342-10.636 7.462.064 13.207 5.058 13.157 10.863Z"
    />
    <defs>
        <linearGradient id="b" x1="118" x2="-19" y1="37.5" y2="131.5" gradientUnits="userSpaceOnUse">
            <stop stop-color="#4D5166" />
            <stop offset="1" stop-color="#232533" />
        </linearGradient>
        <linearGradient id="c" x1="-35.5" x2="110.062" y1="44" y2="54.93" gradientUnits="userSpaceOnUse">
            <stop stop-color="#666A80" />
            <stop offset="1" stop-color="#232533" />
        </linearGradient>
        <linearGradient id="d" x1="165" x2="19.438" y1="44" y2="54.93" gradientUnits="userSpaceOnUse">
            <stop stop-color="#666A80" />
            <stop offset="1" stop-color="#232533" />
        </linearGradient>
        <linearGradient id="e" x1="70.5" x2="65" y1="81" y2="81" gradientUnits="userSpaceOnUse">
            <stop stop-color="#9598A6" />
            <stop offset="1" stop-color="#878A99" />
        </linearGradient>
        <linearGradient id="f" x1="-6.5" x2="73.789" y1="33" y2="85.645" gradientUnits="userSpaceOnUse">
            <stop stop-color="#777B8C" />
            <stop offset="1" stop-color="#4D5166" />
        </linearGradient>
        <linearGradient id="g" x1="15" x2="110.578" y1="22" y2="94.865" gradientUnits="userSpaceOnUse">
            <stop stop-color="#878A99" />
            <stop offset="1" stop-color="#666A80" />
        </linearGradient>
        <linearGradient id="h" x1="53" x2="63.509" y1="66" y2="66.474" gradientUnits="userSpaceOnUse">
            <stop stop-color="#9598A6" />
            <stop offset="1" stop-color="#878A99" />
        </linearGradient>
        <filter
            id="a"
            width="128"
            height="30"
            x="0"
            y="98"
            color-interpolation-filters="sRGB"
            filterUnits="userSpaceOnUse"
        >
            <feFlood flood-opacity="0" result="BackgroundImageFix" />
            <feBlend in="SourceGraphic" in2="BackgroundImageFix" result="shape" />
            <feGaussianBlur result="effect1_foregroundBlur_193_18647" stdDeviation="6" />
        </filter>
    </defs>
</svg>
