<svg xmlns="http://www.w3.org/2000/svg" width="376" height="212" fill="none" viewBox="0 0 376 212">
  <defs/>
  <path fill="url(#paint0_linear)" d="M231.26 105.64H175.3l-1.8-6.09a2.86 2.86 0 00-2.73-1.95h-26.03a2.72 2.72 0 00-2.74 2.73v68.35h92v-60.22a2.74 2.74 0 00-2.74-2.81z"/>
  <path fill="url(#paint1_linear)" d="M186.96 117.46h-50.1a3.19 3.19 0 00-3.18 3.7l8.37 52.76a2.43 2.43 0 002.47 2.08h86.96a2.5 2.5 0 002.48-2.08l8.36-52.76a3.23 3.23 0 00-3.18-3.7h-52.18z"/>
  <path fill="#EBEDF3" fill-rule="evenodd" d="M212.11 77.16h-25.36a2.77 2.77 0 00-2.77 2.77v49.87a2.77 2.77 0 002.78 2.77h38.78a2.77 2.77 0 002.77-2.77V93.36l-16.2-16.2z" clip-rule="evenodd"/>
  <path fill="#F8F8F8" fill-rule="evenodd" d="M212.11 77.16l16.2 16.2h-13.43a2.77 2.77 0 01-2.77-2.77V77.16z" clip-rule="evenodd"/>
  <path fill="#3F434B" fill-rule="evenodd" d="M206.15 98.6h-4c-.84 0-1.54-.72-1.54-1.57v-.3c0-.85.7-1.56 1.54-1.56h4v3.43zm0 3.43h4c.84 0 1.54-.71 1.54-1.57v-.29c0-.86-.7-1.57-1.54-1.57h-4v3.43h-4c-.84 0-1.54.71-1.54 1.57v.29c0 .86.7 1.57 1.54 1.57h4v-3.43zm4 6.93h-4v-3.44h4c.84 0 1.54.72 1.54 1.58v.28c0 .93-.7 1.58-1.54 1.58zm-6.95 2.54h5.9c.84 0 1.54.65 1.47 1.58v8.22c0 .86-.7 1.57-1.55 1.57h-5.82c-.84 0-1.54-.71-1.54-1.57v-8.22c0-.86.7-1.58 1.54-1.58zm4.84 9.51c.5 0 .91-.43.91-.93v-1.64c0-.5-.42-.93-.9-.93h-3.8c-.49 0-.9.43-.9.93v1.64c0 .5.41.93.9.93h3.8z" clip-rule="evenodd"/>
  <mask id="a" width="46" height="46" x="183" y="77" maskUnits="userSpaceOnUse">
    <path fill="#C4C4C4" d="M228.22 77.16h-44.24v45.58h44.24V77.16z"/>
  </mask>
  <g filter="url(#filter0_f)" mask="url(#a)" opacity=".37">
    <path fill="#221548" d="M199.75 65.5l-14.65 9.14v30.98a25.54 25.54 0 0014.65-23.1V65.5z"/>
  </g>
  <path fill="#EBEDF3" fill-rule="evenodd" d="M175.97 36h-24.11a4.18 4.18 0 00-4.18 4.18v47.37a4.18 4.18 0 004.18 4.18h36.22a4.18 4.18 0 004.18-4.18V52.3L175.96 36z" clip-rule="evenodd"/>
  <path fill="#F8F8F8" fill-rule="evenodd" d="M175.97 36l16.3 16.3h-12.12a4.18 4.18 0 01-4.18-4.18V36z" clip-rule="evenodd"/>
  <path fill="#494D55" d="M174.2 67.01l-6.33 8.3c0 .03-.04.03-.07 0l-3.5-4.46a.98.98 0 00-1.57 0l-5.04 6.46a.98.98 0 00.77 1.6h24.69c.7 0 1.1-.83.67-1.38L175.8 67a1.01 1.01 0 00-1.6 0zm-6.83.71a3.32 3.32 0 100-6.64 3.32 3.32 0 000 6.64z"/>
  <path fill="#9CA0AA" fill-rule="evenodd" d="M12.38 1.36c-.6 0-1.2.05-1.8.15a.68.68 0 01-.21-1.35C11.02.06 11.7 0 12.38 0h2.44a.68.68 0 110 1.36h-2.44zm8.59-.68c0-.37.3-.68.68-.68h4.87a.68.68 0 110 1.36h-4.87a.68.68 0 01-.68-.68zm11.7 0c0-.37.3-.68.68-.68h4.88a.68.68 0 110 1.36h-4.88a.68.68 0 01-.68-.68zm11.7 0c0-.37.3-.68.68-.68h4.88a.68.68 0 110 1.36h-4.88a.68.68 0 01-.68-.68zm11.7 0c0-.37.3-.68.68-.68h4.88a.68.68 0 110 1.36h-4.88a.68.68 0 01-.68-.68zm11.7 0c0-.37.3-.68.69-.68h4.87a.68.68 0 110 1.36h-4.87a.68.68 0 01-.69-.68zm11.7 0c0-.37.31-.68.69-.68h4.87a.68.68 0 110 1.36h-4.87a.68.68 0 01-.68-.68zm11.7 0c0-.37.31-.68.69-.68h4.88a.68.68 0 110 1.36h-4.88a.68.68 0 01-.68-.68zm11.7 0c0-.37.31-.68.7-.68h4.87a.68.68 0 110 1.36h-4.88a.68.68 0 01-.68-.68zm11.71 0c0-.37.3-.68.68-.68h4.88a.68.68 0 010 1.36h-4.88a.68.68 0 01-.68-.68zm11.7 0c0-.37.3-.68.69-.68h4.87a.68.68 0 010 1.36h-4.87a.68.68 0 01-.69-.68zm11.7 0c0-.37.31-.68.69-.68h4.87a.68.68 0 010 1.36h-4.87a.68.68 0 01-.69-.68zm11.7 0c0-.37.31-.68.69-.68h4.88a.68.68 0 010 1.36h-4.88a.68.68 0 01-.68-.68zm11.7 0c0-.37.31-.68.7-.68h4.87a.68.68 0 010 1.36h-4.88a.68.68 0 01-.68-.68zm11.71 0c0-.37.3-.68.68-.68h4.88a.68.68 0 110 1.36h-4.88a.68.68 0 01-.68-.68zm11.7 0c0-.37.3-.68.69-.68h4.87a.68.68 0 110 1.36h-4.87a.68.68 0 01-.69-.68zm11.7 0c0-.37.31-.68.69-.68h4.87a.68.68 0 110 1.36h-4.87a.68.68 0 01-.69-.68zm11.7 0c0-.37.31-.68.69-.68h4.87a.68.68 0 110 1.36h-4.87a.68.68 0 01-.68-.68zm11.7 0c0-.37.31-.68.7-.68h4.87a.68.68 0 110 1.36h-4.88a.68.68 0 01-.68-.68zm11.71 0c0-.37.3-.68.68-.68h4.88a.68.68 0 110 1.36h-4.88a.68.68 0 01-.68-.68zm11.7 0c0-.37.3-.68.68-.68h4.88a.68.68 0 110 1.36h-4.88a.68.68 0 01-.68-.68zm11.7 0c0-.37.31-.68.69-.68h4.87a.68.68 0 110 1.36h-4.87a.68.68 0 01-.69-.68zm11.7 0c0-.37.31-.68.69-.68h4.88a.68.68 0 110 1.36h-4.88a.68.68 0 01-.68-.68zm11.7 0c0-.37.31-.68.7-.68h4.87a.68.68 0 110 1.36h-4.88a.68.68 0 01-.68-.68zm11.71 0c0-.37.3-.68.68-.68h4.88a.68.68 0 010 1.36h-4.88a.68.68 0 01-.68-.68zm11.7 0c0-.37.3-.68.69-.68h4.87a.68.68 0 010 1.36h-4.88a.68.68 0 01-.68-.68zm11.7 0c0-.37.31-.68.69-.68h4.87a.68.68 0 010 1.36h-4.87a.68.68 0 01-.69-.68zm11.7 0c0-.37.31-.68.69-.68h4.88a.68.68 0 010 1.36h-4.88a.68.68 0 01-.68-.68zm11.7 0c0-.37.31-.68.7-.68h4.87a.68.68 0 010 1.36h-4.88a.68.68 0 01-.68-.68zm11.71 0c0-.37.3-.68.68-.68h4.88a.68.68 0 110 1.36h-4.88a.68.68 0 01-.68-.68zm11.7 0c0-.37.3-.68.69-.68h2.43c.69 0 1.36.06 2.02.16a.68.68 0 11-.22 1.35 11.1 11.1 0 00-1.8-.15H361a.68.68 0 01-.68-.68zm9.39 1.8a.68.68 0 01.95-.16 12.46 12.46 0 012.85 2.85.68.68 0 11-1.1.8 11.11 11.11 0 00-2.55-2.54.68.68 0 01-.16-.96zm-363.59 0c.22.3.15.73-.15.95a11.09 11.09 0 00-2.54 2.54.68.68 0 11-1.11-.8 12.45 12.45 0 012.85-2.85.68.68 0 01.95.15zM374.88 9.8a.68.68 0 01.78.57c.11.65.17 1.33.17 2.01v2.44a.68.68 0 01-1.37 0v-2.44c0-.6-.05-1.2-.14-1.8a.68.68 0 01.56-.78zM.95 9.8a.68.68 0 01.56.79 11.1 11.1 0 00-.15 1.8v2.43a.68.68 0 11-1.36 0V12.4c0-.7.06-1.36.16-2.02a.68.68 0 01.79-.57zm374.2 11.17c.37 0 .68.3.68.68v4.87a.68.68 0 01-1.37 0v-4.87c0-.38.3-.68.68-.68zm-374.47 0c.38 0 .68.3.68.68v4.87a.68.68 0 01-1.36 0v-4.87c0-.38.3-.68.68-.68zm374.46 11.7c.38 0 .69.3.69.68v4.88a.68.68 0 01-1.37 0v-4.88c0-.38.3-.68.68-.68zm-374.46 0c.38 0 .68.3.68.68v4.88a.68.68 0 01-1.36 0v-4.88c0-.38.3-.68.68-.68zm374.46 11.7c.38 0 .69.3.69.68v4.88a.68.68 0 01-1.37 0v-4.88c0-.37.3-.68.68-.68zm-374.46 0c.38 0 .68.3.68.68v4.88a.68.68 0 11-1.36 0v-4.88c0-.37.3-.68.68-.68zm374.46 11.7c.38 0 .69.3.69.68v4.88a.68.68 0 01-1.37 0v-4.88c0-.37.3-.68.68-.68zm-374.46 0c.38 0 .68.3.68.68v4.88a.68.68 0 01-1.36 0v-4.88c0-.37.3-.68.68-.68zm374.46 11.7c.38 0 .69.3.69.69v4.87a.68.68 0 01-1.37 0v-4.87c0-.38.3-.69.68-.69zm-374.46 0c.38 0 .68.3.68.69v4.87a.68.68 0 01-1.36 0v-4.87c0-.38.3-.69.68-.69zm374.46 11.7c.38 0 .69.31.69.69v4.87a.68.68 0 01-1.37 0v-4.87c0-.38.3-.68.68-.68zm-374.46 0c.38 0 .68.31.68.69v4.87a.68.68 0 01-1.36 0v-4.87c0-.38.3-.68.68-.68zm374.46 11.7c.38 0 .69.31.69.69v4.88a.68.68 0 01-1.37 0v-4.88c0-.38.3-.68.68-.68zm-374.46 0c.38 0 .68.31.68.69v4.88a.68.68 0 01-1.36 0v-4.88c0-.38.3-.68.68-.68zm374.46 11.7c.38 0 .69.31.69.7v4.87a.68.68 0 01-1.37 0v-4.88c0-.38.3-.68.68-.68zm-374.46 0c.38 0 .68.31.68.7v4.87a.68.68 0 11-1.36 0v-4.88c0-.38.3-.68.68-.68zm0 11.71c.38 0 .68.3.68.68v4.88a.68.68 0 01-1.36 0v-4.88c0-.37.3-.68.68-.68zm374.46 0c.38 0 .69.3.69.68v4.88a.68.68 0 01-1.37 0v-4.88c0-.37.3-.68.68-.68zM.68 126.28c.38 0 .68.3.68.69v4.87a.68.68 0 01-1.36 0v-4.87c0-.38.3-.69.68-.69zm374.46 0c.38 0 .69.3.69.69v4.87a.68.68 0 01-1.37 0v-4.87c0-.38.3-.69.68-.69zM.68 137.98c.38 0 .68.31.68.69v4.87a.68.68 0 01-1.36 0v-4.87c0-.38.3-.68.68-.68zm374.46 0c.38 0 .69.31.69.69v4.87a.68.68 0 01-1.37 0v-4.87c0-.38.3-.68.68-.68zM.68 149.69c.38 0 .68.31.68.69v4.88a.68.68 0 01-1.36 0v-4.88c0-.38.3-.68.68-.68zm374.46 0c.38 0 .69.31.69.69v4.88a.68.68 0 01-1.37 0v-4.88c0-.38.3-.68.68-.68zM.68 161.39c.38 0 .68.32.68.7v4.87a.68.68 0 01-1.36 0v-4.88c0-.37.3-.68.68-.68zm374.46 0c.38 0 .69.32.69.7v4.87a.68.68 0 01-1.37 0v-4.88c0-.37.3-.68.68-.68zM.68 173.1c.38 0 .68.3.68.68v4.88a.68.68 0 11-1.36 0v-4.88c0-.37.3-.68.68-.68zm374.46 0c.38 0 .69.3.69.68v4.88a.68.68 0 01-1.37 0v-4.88c0-.37.3-.68.68-.68zM.68 184.8c.38 0 .68.3.68.69v4.87a.68.68 0 11-1.36 0v-4.87c0-.38.3-.69.68-.69zm374.46 0c.38 0 .69.3.69.69v4.87a.68.68 0 01-1.37 0v-4.87c0-.38.3-.69.68-.69zM.68 196.5c.38 0 .68.31.68.69v2.43c0 .62.05 1.22.15 1.8a.68.68 0 01-1.35.22 12.47 12.47 0 01-.16-2.01v-2.44c0-.38.3-.69.68-.69zm374.46 0c.38 0 .69.31.69.69v2.43c0 .7-.06 1.37-.17 2.02a.68.68 0 11-1.34-.22 11.07 11.07 0 00.14-1.8v-2.43c0-.38.3-.69.68-.69zM2.47 205.88a.68.68 0 01.96.15 11.11 11.11 0 002.54 2.54.68.68 0 11-.8 1.11 12.46 12.46 0 01-2.85-2.85.68.68 0 01.15-.95zm370.88 0c.31.22.38.64.16.95a12.46 12.46 0 01-2.85 2.85.68.68 0 01-.8-1.1 11.13 11.13 0 002.54-2.55.68.68 0 01.95-.15zM9.8 211.05a.68.68 0 01.79-.56c.58.1 1.18.15 1.8.15h2.43a.68.68 0 110 1.36h-2.44c-.68 0-1.36-.06-2.01-.16a.68.68 0 01-.57-.79zm356.22 0a.68.68 0 01-.56.79 12.43 12.43 0 01-2.02.16h-2.43a.68.68 0 010-1.36h2.43c.62 0 1.22-.05 1.8-.15a.68.68 0 01.78.56zm-345.05.27c0-.38.3-.68.68-.68h4.87a.68.68 0 110 1.36h-4.87a.68.68 0 01-.68-.68zm11.7 0c0-.38.3-.68.68-.68h4.88a.68.68 0 110 1.36h-4.88a.68.68 0 01-.68-.68zm11.7 0c0-.38.3-.68.68-.68h4.88a.68.68 0 110 1.36h-4.88a.68.68 0 01-.68-.68zm11.7 0c0-.38.3-.68.68-.68h4.88a.68.68 0 110 1.36h-4.88a.68.68 0 01-.68-.68zm11.7 0c0-.38.3-.68.69-.68h4.87a.68.68 0 110 1.36h-4.87a.68.68 0 01-.69-.68zm11.7 0c0-.38.31-.68.69-.68h4.87a.68.68 0 110 1.36h-4.87a.68.68 0 01-.68-.68zm11.7 0c0-.38.31-.68.69-.68h4.88a.68.68 0 110 1.36h-4.88a.68.68 0 01-.68-.68zm11.7 0c0-.38.31-.68.7-.68h4.87a.68.68 0 110 1.36h-4.88a.68.68 0 01-.68-.68zm11.71 0c0-.38.3-.68.68-.68h4.88a.68.68 0 110 1.36h-4.88a.68.68 0 01-.68-.68zm11.7 0c0-.38.3-.68.69-.68h4.87a.68.68 0 110 1.36h-4.87a.68.68 0 01-.69-.68zm11.7 0c0-.38.31-.68.69-.68h4.87a.68.68 0 110 1.36h-4.87a.68.68 0 01-.69-.68zm11.7 0c0-.38.31-.68.69-.68h4.88a.68.68 0 110 1.36h-4.88a.68.68 0 01-.68-.68zm11.7 0c0-.38.31-.68.7-.68h4.87a.68.68 0 110 1.36h-4.88a.68.68 0 01-.68-.68zm11.71 0c0-.38.3-.68.68-.68h4.88a.68.68 0 110 1.36h-4.88a.68.68 0 01-.68-.68zm11.7 0c0-.38.3-.68.69-.68h4.87a.68.68 0 110 1.36h-4.87a.68.68 0 01-.69-.68zm11.7 0c0-.38.31-.68.69-.68h4.87a.68.68 0 110 1.36h-4.87a.68.68 0 01-.69-.68zm11.7 0c0-.38.31-.68.69-.68h4.87a.68.68 0 110 1.36h-4.87a.68.68 0 01-.68-.68zm11.7 0c0-.38.31-.68.7-.68h4.87a.68.68 0 110 1.36h-4.88a.68.68 0 01-.68-.68zm11.71 0c0-.38.3-.68.68-.68h4.88a.68.68 0 110 1.36h-4.88a.68.68 0 01-.68-.68zm11.7 0c0-.38.3-.68.68-.68h4.88a.68.68 0 110 1.36h-4.88a.68.68 0 01-.68-.68zm11.7 0c0-.38.31-.68.69-.68h4.87a.68.68 0 110 1.36h-4.87a.68.68 0 01-.69-.68zm11.7 0c0-.38.31-.68.69-.68h4.88a.68.68 0 110 1.36h-4.88a.68.68 0 01-.68-.68zm11.7 0c0-.38.31-.68.7-.68h4.87a.68.68 0 110 1.36h-4.88a.68.68 0 01-.68-.68zm11.71 0c0-.38.3-.68.68-.68h4.88a.68.68 0 110 1.36h-4.88a.68.68 0 01-.68-.68zm11.7 0c0-.38.3-.68.69-.68h4.87a.68.68 0 110 1.36h-4.88a.68.68 0 01-.68-.68zm11.7 0c0-.38.31-.68.69-.68h4.87a.68.68 0 110 1.36h-4.87a.68.68 0 01-.69-.68zm11.7 0c0-.38.31-.68.69-.68h4.88a.68.68 0 110 1.36h-4.88a.68.68 0 01-.68-.68zm11.7 0c0-.38.31-.68.7-.68h4.87a.68.68 0 110 1.36h-4.88a.68.68 0 01-.68-.68zm11.71 0c0-.38.3-.68.68-.68h4.88a.68.68 0 110 1.36h-4.88a.68.68 0 01-.68-.68z" clip-rule="evenodd"/>
  <path fill="#3F434B" stroke="#fff" stroke-width="1.58" d="M226.82 140.63a.4.4 0 00.1-.7l-18.9-12.79a.53.53 0 00-.83.47l1.47 22.78a.4.4 0 00.66.27l5.38-4.94 6.36 11.1c.36.63 1.17.85 1.8.49l2.84-1.63a1.32 1.32 0 00.5-1.8l-6.36-11.1 6.98-2.15z"/>
  <defs>
    <linearGradient id="paint0_linear" x1="188.78" x2="188.78" y1="97.6" y2="141.34" gradientUnits="userSpaceOnUse">
      <stop stop-color="#7CCDFE"/>
      <stop offset="1" stop-color="#388FE5"/>
    </linearGradient>
    <linearGradient id="paint1_linear" x1="188.58" x2="188.58" y1="117.38" y2="173.23" gradientUnits="userSpaceOnUse">
      <stop stop-color="#81D2FF"/>
      <stop offset="1" stop-color="#6EB7FF"/>
    </linearGradient>
    <filter id="filter0_f" width="65.22" height="90.7" x="159.82" y="40.21" color-interpolation-filters="sRGB" filterUnits="userSpaceOnUse">
      <feFlood flood-opacity="0" result="BackgroundImageFix"/>
      <feBlend in="SourceGraphic" in2="BackgroundImageFix" result="shape"/>
      <feGaussianBlur result="effect1_foregroundBlur" stdDeviation="12.64"/>
    </filter>
  </defs>
</svg>
