<svg xmlns="http://www.w3.org/2000/svg" width="218" height="139" fill="none" viewBox="0 0 218 139">
  <defs/>
  <path fill="url(#paint0_linear)" d="M10 6a6 6 0 016-6h41.8a12 12 0 015.42 1.29 8 8 0 012.35 1.96l4.7 5.4c.45.51.94 1 1.5 1.4 2.14 1.45 3.78 1.45 5.92 1.45H178a6 6 0 016 6V108a31 31 0 01-31 31H19a9 9 0 01-9-9V6z"/>
  <path fill="url(#paint1_linear)" d="M40.33 40.78A8 8 0 0148.02 35h160a6 6 0 015.77 7.66l-26.12 90.56a8 8 0 01-7.69 5.78h-160a6 6 0 01-5.77-7.66l26.12-90.56z"/>
  <defs>
    <linearGradient id="paint0_linear" x1="127.5" x2="127.5" y1="165" y2="-6" gradientUnits="userSpaceOnUse">
      <stop stop-color="#1B74DB"/>
      <stop offset="1" stop-color="#81D1FF"/>
    </linearGradient>
    <linearGradient id="paint1_linear" x1="144.09" x2="120.9" y1="36.82" y2="150.33" gradientUnits="userSpaceOnUse">
      <stop stop-color="#81D1FF"/>
      <stop offset="1" stop-color="#68B0FF"/>
    </linearGradient>
  </defs>
</svg>
