<svg xmlns="http://www.w3.org/2000/svg" width="184" height="156" fill="none" viewBox="0 0 184 156">
  <defs/>
  <path fill="#EA795A" d="M105.9 56.11H83.93v99.42h21.99V56.11z"/>
  <path fill="url(#paint0_linear)" d="M105.9 115.56l-21.98-11.88V62.54h21.99v53.02z"/>
  <path fill="url(#paint1_linear)" d="M165.95 75.56H27.35a4.01 4.01 0 01-4.02-4.02v-39.2A32.35 32.35 0 0155.68 0h77.84a32.35 32.35 0 0132.35 32.35v43.21h.08z"/>
  <path fill="url(#paint2_linear)" d="M83.92 75.56H27.64v-43.3A28.13 28.13 0 0155.76 4.14a28.13 28.13 0 0128.12 28.12v43.3h.04z"/>
  <path fill="url(#paint3_linear)" d="M83.67 75.09H27.39v-43.3A28.13 28.13 0 0155.51 3.67 28.13 28.13 0 0183.63 31.8v43.3h.04z"/>
  <path fill="url(#paint4_linear)" fill-rule="evenodd" d="M155.41 43.42v24.19a2.45 2.45 0 002.45 2.45h17.55c1.35 0 2.45-1.1 2.45-2.45V37.08a2.45 2.45 0 00-2.45-2.45h-68.16a4.42 4.42 0 00-4.4 4.4 4.4 4.4 0 004.4 4.4h48.16z" clip-rule="evenodd"/>
  <path fill="url(#paint5_linear)" d="M83.92 75.56h-5.45v2.45H27.64l-14 10.07S10.06 90.7 9 94.38l-.3-.34v2.37c0 1.81.76 3.84 2.83 5.83 6.6 5.58 30.66 7.27 48.46-6.13a4657.01 4657.01 0 0023.93-18.14v-2.4z"/>
  <path fill="#B8E2FF" d="M27.64 75.56l-14 10.06s-9.55 7.02-2.1 14.21c6.59 5.58 30.65 7.27 48.45-6.13 17.8-13.4 23.93-18.14 23.93-18.14H27.64z"/>
  <path fill="#fff" d="M106.84 41.44a2.07 2.07 0 100-4.14 2.07 2.07 0 000 4.14z"/>
  <path fill="#38385F" d="M164.56 137.75a1.15 1.15 0 012.07.05l8.36 18.03h-19.86l9.43-18.08z"/>
  <path fill="#5AD098" d="M9.43 137.75a1.15 1.15 0 012.07.05l8.36 18.03H0l9.43-18.08zm171.66.68a1.15 1.15 0 012.08.7v16.7H168l13.1-17.4z"/>
  <defs>
    <linearGradient id="paint0_linear" x1="94.81" x2="94.81" y1="75.94" y2="100.19" gradientUnits="userSpaceOnUse">
      <stop stop-color="#0D0A44"/>
      <stop offset="1" stop-color="#0D0A44" stop-opacity="0"/>
    </linearGradient>
    <linearGradient id="paint1_linear" x1="94.64" x2="94.64" y1="0" y2="75.56" gradientUnits="userSpaceOnUse">
      <stop stop-color="#B9E2FF"/>
      <stop offset="1" stop-color="#73B5E4"/>
    </linearGradient>
    <linearGradient id="paint2_linear" x1="74.81" x2="28.12" y1="26.22" y2="75.33" gradientUnits="userSpaceOnUse">
      <stop stop-color="#0D0A44"/>
      <stop offset="1" stop-color="#0D0A44" stop-opacity="0"/>
    </linearGradient>
    <linearGradient id="paint3_linear" x1="74.55" x2="27.87" y1="25.75" y2="74.86" gradientUnits="userSpaceOnUse">
      <stop stop-color="#0D0A44"/>
      <stop offset="1" stop-color="#0D0A44" stop-opacity="0"/>
    </linearGradient>
    <linearGradient id="paint4_linear" x1="148.2" x2="148.2" y1="34.8" y2="69.6" gradientUnits="userSpaceOnUse">
      <stop stop-color="#EB7A75"/>
      <stop offset="1" stop-color="#E02626"/>
    </linearGradient>
    <linearGradient id="paint5_linear" x1="25.7" x2="62.68" y1="77.15" y2="103.83" gradientUnits="userSpaceOnUse">
      <stop stop-color="#B9E2FF"/>
      <stop offset="1" stop-color="#1571B3"/>
    </linearGradient>
  </defs>
</svg>
