<svg xmlns="http://www.w3.org/2000/svg" width="134" height="186" fill="none" viewBox="0 0 134 186">
  <defs/>
  <path fill="url(#paint0_linear)" d="M0 44a14 14 0 0114-14h106a14 14 0 0114 14v127a14 14 0 01-14 14H14a14 14 0 01-14-14V44z"/>
  <mask id="a" width="134" height="33" x="0" y="152" maskUnits="userSpaceOnUse">
    <path fill="#C4C4C4" d="M0 152h134v27a6 6 0 01-6 6H0v-33z"/>
  </mask>
  <g filter="url(#filter0_f)" mask="url(#a)" opacity=".6">
    <path fill="#221548" d="M12.5 178.82L10 165.86h113a18.38 18.38 0 01-17.57 12.96H12.5z"/>
  </g>
  <path fill="url(#paint1_linear)" d="M6 140a9 9 0 019-9h113v38a10 10 0 01-10 10H16a10 10 0 01-10-10v-29z"/>
  <path fill="url(#paint2_linear)" d="M6 46a10 10 0 0110-10h102a10 10 0 0110 10v85l-47 48H16a10 10 0 01-10-10V46z"/>
  <path fill="#CBCBD8" d="M45 117.5a1.5 1.5 0 011.5-1.5h40a1.5 1.5 0 010 3h-40a1.5 1.5 0 01-1.5-1.5zm5 8a1.5 1.5 0 011.5-1.5H59a1.5 1.5 0 010 3h-7.5a1.5 1.5 0 01-1.5-1.5zm14 0a1.5 1.5 0 011.5-1.5h16a1.5 1.5 0 010 3h-16a1.5 1.5 0 01-1.5-1.5z" opacity=".46"/>
  <path fill="url(#paint3_linear)" d="M128 131l-47 48v-42a6 6 0 016-6h41z"/>
  <mask id="b" width="122" height="33" x="6" y="40" maskUnits="userSpaceOnUse">
    <path fill="#C4C4C4" d="M6 40h122v27a6 6 0 01-6 6H6V40z"/>
  </mask>
  <g filter="url(#filter1_f)" mask="url(#b)" opacity=".4">
    <path fill="#221548" d="M31 49V36h73v13H31z"/>
  </g>
  <path fill="url(#paint4_linear)" d="M66.99 0A13.98 13.98 0 0053 13.96V33h28V13.96A14 14 0 0066.99 0zm0 20.38a6.12 6.12 0 01-6.14-6.13 6.12 6.12 0 016.14-6.13 6.12 6.12 0 016.13 6.13A6.12 6.12 0 0167 20.38z"/>
  <path fill="url(#paint5_linear)" d="M107.97 47H26V31.89A8.8 8.8 0 0134.73 23h64.54a8.8 8.8 0 018.73 8.89V47h-.03z"/>
  <path fill="#4A769F" d="M26 44h82v3H26z"/>
  <path fill="url(#paint6_linear)" d="M26.03 34H108v-2.11A8.8 8.8 0 0099.27 23H34.73A8.8 8.8 0 0026 31.89V34h.03z"/>
  <path fill="#CBCBD8" fill-rule="evenodd" d="M63.74 67.5a7.99 7.99 0 012.8-.5c.97 0 1.92.18 2.8.5a1.5 1.5 0 01-1.06 2.81 4.99 4.99 0 00-1.75-.31c-.61 0-1.2.11-1.74.31a1.5 1.5 0 11-1.05-2.8zm8.36 3.82a1.5 1.5 0 011.93.88 8 8 0 010 5.6 1.5 1.5 0 01-2.8-1.05 5 5 0 000-3.5 1.5 1.5 0 01.87-1.93zm-11.13 0a1.5 1.5 0 01.88 1.93 4.99 4.99 0 00-.32 1.75c0 .62.11 1.2.32 1.75a1.5 1.5 0 01-2.81 1.05 7.99 7.99 0 01-.5-2.8c0-.98.17-1.92.5-2.8a1.5 1.5 0 011.93-.88zm1.89 9.25a1.5 1.5 0 011.93-.88 5 5 0 003.5 0 1.5 1.5 0 111.04 2.8 7.99 7.99 0 01-2.8.51 7.99 7.99 0 01-2.8-.5 1.5 1.5 0 01-.87-1.93zm3.17 8.93c-.7 0-1.4.04-2.08.12a1.5 1.5 0 01-.36-2.98 21.08 21.08 0 014.88 0 1.5 1.5 0 01-.34 2.98 18.1 18.1 0 00-2.1-.12zm5.27-.83a1.5 1.5 0 011.94-.88 18.99 18.99 0 014.33 2.32 1.5 1.5 0 01-1.74 2.44 15.99 15.99 0 00-3.66-1.95 1.5 1.5 0 01-.87-1.93zm-10.53 0a1.5 1.5 0 01-.87 1.94 16.35 16.35 0 00-3.66 1.96 1.5 1.5 0 01-1.74-2.45 19.35 19.35 0 014.34-2.31 1.5 1.5 0 011.93.87zm-7.76 4.6a1.5 1.5 0 01.22 2.1 14.24 14.24 0 00-1.18 1.7 8.7 8.7 0 00-1.08 2.52 1.5 1.5 0 11-2.94-.64c.24-1.08.73-2.23 1.45-3.43.42-.7.9-1.39 1.42-2.03a1.5 1.5 0 012.11-.22zm26.04 0a1.5 1.5 0 012.11.22c.52.64 1 1.32 1.43 2.02.72 1.2 1.22 2.34 1.45 3.44a1.5 1.5 0 11-2.93.63 8.36 8.36 0 00-1.09-2.5 15.31 15.31 0 00-1.19-1.7 1.5 1.5 0 01.22-2.1zm2.51 10.43a1.5 1.5 0 01-1.03 1.86c-1.07.3-2.98.44-4.32.44h-2.54a1.5 1.5 0 010-3h2.54c1.13 0 2.76-.11 3.5-.33a1.5 1.5 0 011.85 1.03zm-31.03 0a1.5 1.5 0 011.85-1.03c.75.2 2.34.33 3.47.33h2.55a1.5 1.5 0 010 3h-2.54c-1.34 0-3.22-.14-4.29-.45a1.5 1.5 0 01-1.04-1.85zm11.46.8a1.5 1.5 0 011.5-1.5h5.09a1.5 1.5 0 010 3h-5.09a1.5 1.5 0 01-1.5-1.5z" clip-rule="evenodd" opacity=".46"/>
  <defs>
    <linearGradient id="paint0_linear" x1="67" x2="67" y1="20" y2="185" gradientUnits="userSpaceOnUse">
      <stop stop-color="#E8916C"/>
      <stop offset="1" stop-color="#CE775B"/>
    </linearGradient>
    <linearGradient id="paint1_linear" x1="71.5" x2="169" y1="168" y2="138.5" gradientUnits="userSpaceOnUse">
      <stop stop-color="#C2C0C9"/>
      <stop offset="1" stop-color="#F9F9F9"/>
    </linearGradient>
    <linearGradient id="paint2_linear" x1="108.5" x2="49.89" y1="241" y2="43.06" gradientUnits="userSpaceOnUse">
      <stop stop-color="#E0DFE2"/>
      <stop offset="1" stop-color="#F9F9F9"/>
    </linearGradient>
    <linearGradient id="paint3_linear" x1="114" x2="96.3" y1="171.5" y2="136.1" gradientUnits="userSpaceOnUse">
      <stop stop-color="#E0DFE2"/>
      <stop offset="1" stop-color="#fff"/>
    </linearGradient>
    <linearGradient id="paint4_linear" x1="67" x2="67" y1="-1" y2="26" gradientUnits="userSpaceOnUse">
      <stop stop-color="#B5EDFF"/>
      <stop offset="1" stop-color="#6CB0FF"/>
    </linearGradient>
    <linearGradient id="paint5_linear" x1="67" x2="67" y1="23" y2="47" gradientUnits="userSpaceOnUse">
      <stop stop-color="#D7E0E3"/>
      <stop offset="1" stop-color="#92C3FC"/>
    </linearGradient>
    <linearGradient id="paint6_linear" x1="57" x2="67" y1="16" y2="34" gradientUnits="userSpaceOnUse">
      <stop stop-color="#fff"/>
      <stop offset="1" stop-color="#fff" stop-opacity="0"/>
    </linearGradient>
    <filter id="filter0_f" width="146.39" height="46.36" x="-6.7" y="149.16" color-interpolation-filters="sRGB" filterUnits="userSpaceOnUse">
      <feFlood flood-opacity="0" result="BackgroundImageFix"/>
      <feBlend in="SourceGraphic" in2="BackgroundImageFix" result="shape"/>
      <feGaussianBlur result="effect1_foregroundBlur" stdDeviation="8.35"/>
    </filter>
    <filter id="filter1_f" width="85" height="25" x="25" y="30" color-interpolation-filters="sRGB" filterUnits="userSpaceOnUse">
      <feFlood flood-opacity="0" result="BackgroundImageFix"/>
      <feBlend in="SourceGraphic" in2="BackgroundImageFix" result="shape"/>
      <feGaussianBlur result="effect1_foregroundBlur" stdDeviation="3"/>
    </filter>
  </defs>
</svg>
