<svg xmlns="http://www.w3.org/2000/svg" width="134" height="185" fill="none" viewBox="0 0 134 185">
  <defs/>
  <path fill="url(#paint0_linear)" d="M0 44a14 14 0 0114-14h106a14 14 0 0114 14v127a14 14 0 01-14 14H14a14 14 0 01-14-14V44z"/>
  <mask id="a" width="134" height="33" x="0" y="152" maskUnits="userSpaceOnUse">
    <path fill="#C4C4C4" d="M0 152h134v27a6 6 0 01-6 6H0v-33z"/>
  </mask>
  <g filter="url(#filter0_f)" mask="url(#a)" opacity=".6">
    <path fill="#221548" d="M12.5 178.82L10 165.86h113a18.38 18.38 0 01-17.57 12.96H12.5z"/>
  </g>
  <path fill="url(#paint1_linear)" d="M6 140a9 9 0 019-9h113v38a10 10 0 01-10 10H16a10 10 0 01-10-10v-29z"/>
  <path fill="url(#paint2_linear)" d="M6 46a10 10 0 0110-10h102a10 10 0 0110 10v85l-47 48H16a10 10 0 01-10-10V46z"/>
  <g fill="#CBCBD8" opacity=".46">
    <path d="M45 117.5c0-.83.67-1.5 1.5-1.5h40a1.5 1.5 0 010 3h-40a1.5 1.5 0 01-1.5-1.5zM50 125.5c0-.83.67-1.5 1.5-1.5H59a1.5 1.5 0 010 3h-7.5a1.5 1.5 0 01-1.5-1.5zM64 125.5c0-.83.67-1.5 1.5-1.5h16a1.5 1.5 0 010 3h-16a1.5 1.5 0 01-1.5-1.5z"/>
  </g>
  <path fill="url(#paint3_linear)" d="M128 131l-47 48v-42a6 6 0 016-6h41z"/>
  <mask id="b" width="122" height="33" x="6" y="40" maskUnits="userSpaceOnUse">
    <path fill="#C4C4C4" d="M6 40h122v27a6 6 0 01-6 6H6V40z"/>
  </mask>
  <g filter="url(#filter1_f)" mask="url(#b)" opacity=".4">
    <path fill="#221548" d="M31 49V36h73v13H31z"/>
  </g>
  <path fill="url(#paint4_linear)" d="M66.99 0A13.98 13.98 0 0053 13.96V33h28V13.96A14 14 0 0066.99 0zm0 20.38a6.12 6.12 0 110-12.26 6.12 6.12 0 110 12.26z"/>
  <path fill="url(#paint5_linear)" d="M107.97 47H26V31.89A8.8 8.8 0 0134.73 23h64.54a8.8 8.8 0 018.73 8.89V47h-.03z"/>
  <path fill="#4A769F" d="M26 44h82v3H26z"/>
  <path fill="url(#paint6_linear)" d="M26.03 34H108v-2.11A8.8 8.8 0 0099.27 23H34.73A8.8 8.8 0 0026 31.89V34h.03z"/>
  <g fill="#CBCBD8" fill-rule="evenodd" clip-rule="evenodd" opacity=".46">
    <path d="M64.7 67.5a7.99 7.99 0 015.6 0 1.5 1.5 0 01-1.05 2.81 4.99 4.99 0 00-3.5 0 1.5 1.5 0 11-1.05-2.8zm8.37 3.82a1.5 1.5 0 011.93.88 7.99 7.99 0 010 5.6 1.5 1.5 0 01-2.81-1.05 4.99 4.99 0 000-3.5 1.5 1.5 0 01.88-1.93zm-11.14 0a1.5 1.5 0 01.88 1.93 4.99 4.99 0 000 3.5 1.5 1.5 0 01-2.8 1.05 7.99 7.99 0 010-5.6 1.5 1.5 0 011.92-.88zm1.9 9.25a1.5 1.5 0 011.92-.88 4.99 4.99 0 003.5 0 1.5 1.5 0 111.05 2.8 7.99 7.99 0 01-5.6 0 1.5 1.5 0 01-.88-1.92zM67 89.5c-.7 0-1.4.04-2.09.12a1.5 1.5 0 01-.35-2.98 20.63 20.63 0 014.88 0 1.5 1.5 0 11-.35 2.98A18.1 18.1 0 0067 89.5zm5.27-.83a1.5 1.5 0 011.93-.88c1.56.6 3.02 1.38 4.34 2.32a1.5 1.5 0 11-1.75 2.44c-1.1-.8-2.33-1.45-3.65-1.95a1.5 1.5 0 01-.87-1.93zm-10.53 0c.3.78-.1 1.65-.87 1.94-1.33.5-2.55 1.17-3.66 1.95a1.5 1.5 0 01-1.74-2.44 19.35 19.35 0 014.33-2.31c.78-.3 1.64.1 1.94.87zm-7.76 4.6c.64.52.74 1.47.21 2.1-.43.54-.82 1.1-1.17 1.7-.6 1-.94 1.84-1.09 2.52a1.5 1.5 0 11-2.93-.64c.24-1.08.73-2.23 1.44-3.43.43-.7.9-1.39 1.43-2.03a1.5 1.5 0 012.1-.22zm26.04 0a1.5 1.5 0 012.1.22c.53.64 1 1.32 1.43 2.02.73 1.2 1.22 2.34 1.46 3.44a1.5 1.5 0 11-2.93.63 8.38 8.38 0 00-1.1-2.5 15.3 15.3 0 00-1.18-1.7 1.5 1.5 0 01.22-2.1zm2.5 10.43a1.5 1.5 0 01-1.02 1.86c-1.07.3-2.99.44-4.32.44h-2.55a1.5 1.5 0 010-3h2.55c1.13 0 2.75-.11 3.5-.33a1.5 1.5 0 011.85 1.03zm-31.02 0a1.5 1.5 0 011.85-1.03c.74.2 2.34.33 3.47.33h2.54a1.5 1.5 0 010 3h-2.54c-1.33 0-3.21-.14-4.28-.45a1.5 1.5 0 01-1.04-1.85zm11.45.8c0-.83.68-1.5 1.5-1.5h5.1a1.5 1.5 0 010 3h-5.1a1.5 1.5 0 01-1.5-1.5z"/>
  </g>
  <defs>
    <linearGradient id="paint0_linear" x1="67" x2="67" y1="20" y2="185" gradientUnits="userSpaceOnUse">
      <stop stop-color="#E8916C"/>
      <stop offset="1" stop-color="#CE775B"/>
    </linearGradient>
    <linearGradient id="paint1_linear" x1="71.5" x2="169" y1="168" y2="138.5" gradientUnits="userSpaceOnUse">
      <stop stop-color="#C2C0C9"/>
      <stop offset="1" stop-color="#F9F9F9"/>
    </linearGradient>
    <linearGradient id="paint2_linear" x1="108.5" x2="49.89" y1="241" y2="43.06" gradientUnits="userSpaceOnUse">
      <stop stop-color="#E0DFE2"/>
      <stop offset="1" stop-color="#F9F9F9"/>
    </linearGradient>
    <linearGradient id="paint3_linear" x1="114" x2="96.3" y1="171.5" y2="136.1" gradientUnits="userSpaceOnUse">
      <stop stop-color="#E0DFE2"/>
      <stop offset="1" stop-color="#fff"/>
    </linearGradient>
    <linearGradient id="paint4_linear" x1="67" x2="67" y1="-1" y2="26" gradientUnits="userSpaceOnUse">
      <stop stop-color="#B5EDFF"/>
      <stop offset="1" stop-color="#6CB0FF"/>
    </linearGradient>
    <linearGradient id="paint5_linear" x1="67" x2="67" y1="23" y2="47" gradientUnits="userSpaceOnUse">
      <stop stop-color="#D7E0E3"/>
      <stop offset="1" stop-color="#92C3FC"/>
    </linearGradient>
    <linearGradient id="paint6_linear" x1="57" x2="67" y1="16" y2="34" gradientUnits="userSpaceOnUse">
      <stop stop-color="#fff"/>
      <stop offset="1" stop-color="#fff" stop-opacity="0"/>
    </linearGradient>
    <filter id="filter0_f" width="146.39" height="46.36" x="-6.7" y="149.16" color-interpolation-filters="sRGB" filterUnits="userSpaceOnUse">
      <feFlood flood-opacity="0" result="BackgroundImageFix"/>
      <feBlend in="SourceGraphic" in2="BackgroundImageFix" result="shape"/>
      <feGaussianBlur result="effect1_foregroundBlur" stdDeviation="8.35"/>
    </filter>
    <filter id="filter1_f" width="85" height="25" x="25" y="30" color-interpolation-filters="sRGB" filterUnits="userSpaceOnUse">
      <feFlood flood-opacity="0" result="BackgroundImageFix"/>
      <feBlend in="SourceGraphic" in2="BackgroundImageFix" result="shape"/>
      <feGaussianBlur result="effect1_foregroundBlur" stdDeviation="3"/>
    </filter>
  </defs>
</svg>
