<svg xmlns="http://www.w3.org/2000/svg" width="163" height="149" fill="none" viewBox="0 0 163 149">
  <defs/>
  <path fill="url(#paint0_linear)" fill-rule="evenodd" d="M126.14 0H68.8a5.6 5.6 0 00-5.6 5.6v112.8c0 3.1 2.5 5.6 5.6 5.6h88c3.1 0 5.6-2.5 5.6-5.6V36.26L126.14 0z" clip-rule="evenodd"/>
  <path fill="#D8DDEA" d="M76 99.48c0-.82.66-1.48 1.48-1.48h53.07c.82 0 1.48.66 1.48 1.48v.74c0 .82-.66 1.48-1.48 1.48H77.48c-.82 0-1.48-.66-1.48-1.48v-.74zM76 107.63c0-.82.66-1.48 1.48-1.48h13.7c.82 0 1.49.66 1.49 1.48v.74c0 .82-.67 1.48-1.49 1.48h-13.7c-.82 0-1.48-.66-1.48-1.48v-.74z"/>
  <path fill="url(#paint1_linear)" d="M5.45 25.41a4.88 4.88 0 014.6-6.41h9.88V14.6h-9.87a9.22 9.22 0 00-7.51 3.84 9.05 9.05 0 00-1.26 8.33l14.58 42.5 4.16-1.38L5.45 25.41z"/>
  <path fill="#515A6D" d="M25.46 20.48L19.92 19V14.6l5.54-1.53a2.28 2.28 0 012.85 2.19v3.02a2.25 2.25 0 01-2.85 2.19z"/>
  <path fill="url(#paint2_linear)" fill-rule="evenodd" d="M40.61 110.7V86.8h4.68v23.91a33.28 33.28 0 0033.25 33.25 33.28 33.28 0 0033.25-33.25V80.8h4.67v29.91c0 20.93-17 37.93-37.92 37.93-20.93 0-37.93-17-37.93-37.93z" clip-rule="evenodd"/>
  <path fill="url(#paint3_linear)" fill-rule="evenodd" d="M65.87 67.84A24.1 24.1 0 0142.95 84.4v4.39c12.34 0 23.19-7.9 27.08-19.58l-4.16-1.37zm-45.84 0A24.1 24.1 0 0042.95 84.4v4.39A28.53 28.53 0 0115.87 69.2l4.16-1.37z" clip-rule="evenodd"/>
  <path fill="url(#paint4_linear)" d="M80.5 25.41c.5-1.48.28-3.12-.65-4.38A4.88 4.88 0 0075.9 19h-9.87V14.6h9.87a9.22 9.22 0 017.5 3.84 9.05 9.05 0 011.27 8.33l-14.58 42.5-4.17-1.38L80.5 25.41z"/>
  <path fill="#515A6D" d="M60.44 20.48L65.98 19V14.6l-5.54-1.48a2.28 2.28 0 00-2.85 2.2v3.01a2.24 2.24 0 002.85 2.14z"/>
  <path fill="url(#paint5_linear)" d="M114 84a18 18 0 100-36 18 18 0 000 36z"/>
  <path fill="url(#paint6_linear)" d="M114 77a11 11 0 100-22 11 11 0 000 22z"/>
  <path fill="#F8F8F8" fill-rule="evenodd" d="M126.14 0l36.26 36.26h-30.66a5.6 5.6 0 01-5.6-5.6V0z" clip-rule="evenodd"/>
  <defs>
    <linearGradient id="paint0_linear" x1="94" x2="48" y1="33" y2="139" gradientUnits="userSpaceOnUse">
      <stop stop-color="#EBEDF3"/>
      <stop offset="1" stop-color="#E1E5EF"/>
    </linearGradient>
    <linearGradient id="paint1_linear" x1="36.9" x2="-2.97" y1="61.78" y2="15.82" gradientUnits="userSpaceOnUse">
      <stop stop-color="#AEE4FB"/>
      <stop offset="1" stop-color="#ECF9FF"/>
    </linearGradient>
    <linearGradient id="paint2_linear" x1="56.93" x2="132.72" y1="67.23" y2="102.51" gradientUnits="userSpaceOnUse">
      <stop stop-color="#515A6D"/>
      <stop offset="1" stop-color="#373F51"/>
    </linearGradient>
    <linearGradient id="paint3_linear" x1="27.52" x2="58.01" y1="63.66" y2="96.49" gradientUnits="userSpaceOnUse">
      <stop stop-color="#515A6D"/>
      <stop offset="1" stop-color="#373F51"/>
    </linearGradient>
    <linearGradient id="paint4_linear" x1="86.62" x2="58.95" y1="71.16" y2="16.75" gradientUnits="userSpaceOnUse">
      <stop stop-color="#AED8FB"/>
      <stop offset="1" stop-color="#AFE4FB"/>
    </linearGradient>
    <linearGradient id="paint5_linear" x1="125.5" x2="121.63" y1="84" y2="45.52" gradientUnits="userSpaceOnUse">
      <stop stop-color="#95CEFF"/>
      <stop offset="1" stop-color="#AFE4FB"/>
    </linearGradient>
    <linearGradient id="paint6_linear" x1="121.5" x2="105.5" y1="71.5" y2="58.5" gradientUnits="userSpaceOnUse">
      <stop stop-color="#B7E7FC"/>
      <stop offset="1" stop-color="#E5F7FF"/>
    </linearGradient>
  </defs>
</svg>
