<svg xmlns="http://www.w3.org/2000/svg" width="246" height="193" fill="none" viewBox="0 0 246 193">
  <defs/>
  <path fill="url(#paint0_linear)" d="M0 60a6 6 0 016-6h41.8a12 12 0 015.42 1.29 7.98 7.98 0 012.35 1.96l4.7 5.4c.45.51.94 1 1.5 1.4 2.14 1.45 3.79 1.45 5.92 1.45H168a6 6 0 016 6V162a31 31 0 01-31 31H9a9 9 0 01-9-9V60z"/>
  <path fill="#EBEDF3" fill-rule="evenodd" d="M135.16 40H95.35A4.35 4.35 0 0091 44.35v78.3c0 2.4 1.95 4.35 4.35 4.35h60.9c2.4 0 4.35-1.95 4.35-4.35V65.44L135.16 40z" clip-rule="evenodd"/>
  <path fill="#F8F8F8" fill-rule="evenodd" d="M135.16 40l25.44 25.44h-21.09a4.35 4.35 0 01-4.35-4.35V40z" clip-rule="evenodd"/>
  <path fill="#3F434B" fill-rule="evenodd" d="M125.8 73.66h-6.28a2.47 2.47 0 01-2.42-2.47v-.44c0-1.35 1.1-2.47 2.42-2.47h6.28v5.38zm0 5.4h6.28a2.47 2.47 0 002.42-2.48v-.45c0-1.34-1.1-2.46-2.42-2.46h-6.28v5.38h-6.28a2.47 2.47 0 00-2.42 2.47v.45c0 1.35 1.1 2.47 2.42 2.47h6.28v-5.39zm6.28 10.86h-6.28v-5.38h6.28A2.47 2.47 0 01134.5 87v.44a2.4 2.4 0 01-2.42 2.47zm-10.9 4h9.25a2.25 2.25 0 012.3 2.48v12.9c0 1.35-1.1 2.48-2.41 2.48h-9.14a2.47 2.47 0 01-2.43-2.47V96.4c0-1.35 1.1-2.47 2.42-2.47zm7.6 14.94c.76 0 1.43-.68 1.43-1.46v-2.59c0-.78-.67-1.45-1.44-1.45h-5.94c-.77 0-1.43.67-1.43 1.45v2.59c0 .78.66 1.46 1.43 1.46h5.94z" clip-rule="evenodd"/>
  <mask id="a" width="71" height="72" x="90" y="40" maskUnits="userSpaceOnUse">
    <path fill="#C4C4C4" d="M160.45 40H91v71.57h69.45V40z"/>
  </mask>
  <g filter="url(#filter0_f)" mask="url(#a)" opacity=".3">
    <path fill="#221548" d="M114 34L91 48.35V97a40.1 40.1 0 0023-36.27V34z"/>
  </g>
  <path fill="#EBEDF3" fill-rule="evenodd" d="M78.41 0H40.56A6.56 6.56 0 0034 6.56v74.38a6.56 6.56 0 006.56 6.56h56.88a6.56 6.56 0 006.56-6.56V25.59L78.4 0z" clip-rule="evenodd"/>
  <path fill="#F8F8F8" fill-rule="evenodd" d="M78.41 0l25.6 25.59H84.97a6.56 6.56 0 01-6.57-6.57V0z" clip-rule="evenodd"/>
  <path fill="#494D55" d="M75.64 48.7l-9.95 13.03c0 .05-.05.05-.1 0l-5.5-7a1.54 1.54 0 00-2.46 0l-7.92 10.13a1.54 1.54 0 001.2 2.52H89.7c1.1 0 1.73-1.3 1.06-2.18l-12.6-16.5a1.59 1.59 0 00-2.51 0zM64.92 49.8a5.21 5.21 0 100-10.42 5.21 5.21 0 000 10.42z"/>
  <path fill="url(#paint1_linear)" d="M246 59a30 30 0 10-60 0v30h30a30 30 0 0030-30z"/>
  <path fill="#fff" d="M217.5 65.9h.38a4.25 4.25 0 003.15-1.32l7.5-7.5a5 5 0 00-.56-7.08L225 47a5 5 0 00-7.07-.52l-3.8 3.8 1.75 1.77 3.8-3.8a2.63 2.63 0 013.57.65l3 3a2.63 2.63 0 01.53 3.55l-7.5 7.5c-.42.38-.98.54-1.53.45a3.33 3.33 0 01-2.03-1l-1.47-1.5-1.78 1.78 1.5 1.5a5.82 5.82 0 003.53 1.72z"/>
  <path fill="#fff" d="M205 72.98a5.7 5.7 0 004.03 1.75 4.27 4.27 0 003.04-1.2l3.8-3.8-1.75-1.78-3.8 3.8a2.62 2.62 0 01-3.54-.52l-3-3a2.62 2.62 0 01-.53-3.55l7.5-7.5a2.67 2.67 0 013.55.55l1.47 1.5 1.78-1.78-1.5-1.5a5 5 0 00-7.08-.52l-7.5 7.5a5 5 0 00.56 7.07l2.97 2.98z"/>
  <path fill="url(#paint2_linear)" d="M30.18 108.47a8 8 0 017.59-5.47h159.9a6 6 0 015.7 7.9l-25.55 76.63a8 8 0 01-7.59 5.47H10.33a6 6 0 01-5.7-7.9l25.55-76.63z"/>
  <defs>
    <linearGradient id="paint0_linear" x1="117.5" x2="117.5" y1="219" y2="48" gradientUnits="userSpaceOnUse">
      <stop stop-color="#1B74DB"/>
      <stop offset="1" stop-color="#81D1FF"/>
    </linearGradient>
    <linearGradient id="paint1_linear" x1="237.43" x2="186" y1="35.96" y2="99.71" gradientUnits="userSpaceOnUse">
      <stop stop-color="#FFDE67"/>
      <stop offset="1" stop-color="#FA7456"/>
    </linearGradient>
    <linearGradient id="paint2_linear" x1="134.09" x2="110.9" y1="90.82" y2="204.33" gradientUnits="userSpaceOnUse">
      <stop stop-color="#81D1FF"/>
      <stop offset="1" stop-color="#68B0FF"/>
    </linearGradient>
    <filter id="filter0_f" width="102.4" height="142.4" x="51.3" y="-5.7" color-interpolation-filters="sRGB" filterUnits="userSpaceOnUse">
      <feFlood flood-opacity="0" result="BackgroundImageFix"/>
      <feBlend in="SourceGraphic" in2="BackgroundImageFix" result="shape"/>
      <feGaussianBlur result="effect1_foregroundBlur" stdDeviation="19.85"/>
    </filter>
  </defs>
</svg>
