<svg xmlns="http://www.w3.org/2000/svg" width="128" height="128" fill="none" viewBox="0 0 128 128">
    <g filter="url(#a)" opacity=".8">
        <ellipse cx="64" cy="102" fill="#000" fill-opacity=".95" rx="52" ry="4" />
    </g>
    <path
        fill="url(#b)"
        d="M87.95 38.5H38.19a6 6 0 0 0-4.48 2.009L11 66v1a2 2 0 0 0 2 2h30v9h42v-9h30a2 2 0 0 0 2-2v-1L92.27 40.337a6 6 0 0 0-4.32-1.837Z"
    />
    <path fill="url(#c)" d="M21 25h86v54H21V25Z" />
    <path fill="url(#d)" d="m84 16 23 9H21l23-9h40Z" />
    <path fill="#4D5166" d="M21 53h86v2H21v-2Z" opacity=".25" />
    <path fill="#4D5166" d="M21 52h86v1H21v-1Z" opacity=".5" />
    <path fill="#4D5166" d="M21 40h86v1H21v-1Z" opacity=".2" />
    <path fill="#4D5166" d="M21 59h86v1H21v-1Z" opacity=".5" />
    <path fill="#4D5166" d="M21 64h86v1H21v-1Z" opacity=".6" />
    <path fill="#4D5166" d="M21 72h86v1H21v-1Z" opacity=".7" />
    <path fill="#4D5166" d="M21 32h86v1H21v-1Zm0-7h86v1H21v-1Z" opacity=".3" />
    <path fill="#4D5166" d="M21 60h86v2H21v-2Z" opacity=".25" />
    <path fill="#4D5166" d="M21 65h86v2H21v-2Zm0 8h86v2H21v-2Z" opacity=".3" />
    <path fill="#4D5166" d="M21 33h86v2H21v-2Z" opacity=".1" />
    <path fill="#4D5166" d="M21 26h86v2H21v-2Z" opacity=".15" />
    <path
        fill="url(#e)"
        fill-rule="evenodd"
        d="m21 52.68-9.984 11.18A4 4 0 0 0 10 66.526V98a6 6 0 0 0 6 6h96a6 6 0 0 0 6-6V66.614a4 4 0 0 0-1.121-2.776L107 53.592v3.335l7.298 7.697c1.209 1.274.306 3.376-1.451 3.376H84.141a4 4 0 0 0-3.329 1.78l-3.624 5.439a4 4 0 0 1-3.329 1.78H54.141a4 4 0 0 1-3.328-1.78l-3.626-5.438A4 4 0 0 0 43.86 68H14.922c-1.72 0-2.638-2.029-1.502-3.321l7.58-8.62v-3.38Z"
        clip-rule="evenodd"
    />
    <path fill="#4D5166" d="M21 46v-3l37-1-37 8.5V46Zm86 11v-3l-34-1.5 34 9V57Z" opacity=".4" />
    <path fill="#878A99" d="m15.5 44 5.5-5v2h86l-91.5 3Z" />
    <path fill="#4D5166" d="M21 47h86v2H21v-2Z" opacity=".15" />
    <path fill="#4D5166" d="M21 46h86v1H21v-1Z" opacity=".3" />
    <path fill="#878A99" d="m113.5 55-6.5-5v2H58.5l55 3Z" />
    <defs>
        <linearGradient id="b" x1="64" x2="64" y1="54" y2="78" gradientUnits="userSpaceOnUse">
            <stop stop-color="#4D5166" />
            <stop offset="1" stop-color="#232533" />
        </linearGradient>
        <linearGradient id="c" x1="64" x2="38.332" y1="25" y2="103.945" gradientUnits="userSpaceOnUse">
            <stop stop-color="#878A99" />
            <stop offset="1" stop-color="#4D5166" />
        </linearGradient>
        <linearGradient id="d" x1="4" x2="86.5" y1="28.5" y2="16" gradientUnits="userSpaceOnUse">
            <stop stop-color="#878A99" />
            <stop offset="1" stop-color="#9598A6" />
        </linearGradient>
        <linearGradient id="e" x1="15.5" x2="10" y1="44" y2="104" gradientUnits="userSpaceOnUse">
            <stop stop-color="#9598A6" />
            <stop offset="1" stop-color="#666A80" />
        </linearGradient>
        <filter
            id="a"
            width="128"
            height="32"
            x="0"
            y="86"
            color-interpolation-filters="sRGB"
            filterUnits="userSpaceOnUse"
        >
            <feFlood flood-opacity="0" result="BackgroundImageFix" />
            <feBlend in="SourceGraphic" in2="BackgroundImageFix" result="shape" />
            <feGaussianBlur result="effect1_foregroundBlur_193_18644" stdDeviation="6" />
        </filter>
    </defs>
</svg>
