<svg xmlns="http://www.w3.org/2000/svg" width="128" height="128" fill="none" viewBox="0 0 128 128">
    <g filter="url(#a)" opacity=".8">
        <ellipse cx="64" cy="102" fill="#7A7F99" fill-opacity=".2" rx="52" ry="4" />
    </g>
    <path
        fill="url(#b)"
        d="M87.482 39.5H38.727a6 6 0 0 0-4.52 2.055L12 67v1a2 2 0 0 0 2 2h29v9h42v-9h30a2 2 0 0 0 2-2v-1L91.764 41.297a6 6 0 0 0-4.282-1.797Z"
    />
    <path fill="url(#c)" d="M21 66h86v14H21V66Z" />
    <path fill="url(#d)" d="m87 44 20 22H21l18-22h48Z" />
    <path fill="#B8BBCC" d="M21 66h86v1H21v-1Z" opacity=".3" />
    <path fill="#B8BBCC" d="M21 70h86v1H21v-1Zm0 5h86v1H21v-1Z" opacity=".6" />
    <path fill="#B8BBCC" d="M21 71h86v1H21v-1Zm0 5h86v1H21v-1Z" opacity=".3" />
    <path fill="#B8BBCC" d="M21 67h86v2H21v-2Z" opacity=".1" />
    <path
        fill="url(#e)"
        fill-rule="evenodd"
        d="M10 67.567V99a6 6 0 0 0 6 6h96a6 6 0 0 0 6-6V67.657a4 4 0 0 0-1.172-2.829l-24.07-24.07A6 6 0 0 0 88.514 39H37.62a6 6 0 0 0-4.402 1.924L11.065 64.85A4 4 0 0 0 10 67.568Zm37.188 3.214A4 4 0 0 0 43.858 69H14.922c-1.72 0-2.638-2.028-1.502-3.32l20.788-23.642A6 6 0 0 1 38.714 40H87.42a6 6 0 0 1 4.354 1.871l22.523 23.753c1.209 1.274.306 3.376-1.451 3.376H84.141a4 4 0 0 0-3.329 1.781l-3.624 5.438A4 4 0 0 1 73.859 78H54.141a4 4 0 0 1-3.328-1.781l-3.626-5.438Z"
        clip-rule="evenodd"
    />
    <defs>
        <linearGradient id="b" x1="64" x2="64" y1="40" y2="104.5" gradientUnits="userSpaceOnUse">
            <stop stop-color="#D3D6E5" />
            <stop offset="1" stop-color="#7A7F99" />
        </linearGradient>
        <linearGradient id="c" x1="58.5" x2="58" y1="58.5" y2="99.5" gradientUnits="userSpaceOnUse">
            <stop stop-color="#EDEFF7" />
            <stop offset="1" stop-color="#B8BBCC" />
        </linearGradient>
        <linearGradient id="d" x1="21" x2="87" y1="66" y2="45.5" gradientUnits="userSpaceOnUse">
            <stop stop-color="#EDEFF7" />
            <stop offset="1" stop-color="#F5F6FC" />
        </linearGradient>
        <linearGradient id="e" x1="15.5" x2="6.453" y1="27.837" y2="104.582" gradientUnits="userSpaceOnUse">
            <stop stop-color="#F5F6FC" />
            <stop offset="1" stop-color="#D3D6E5" />
        </linearGradient>
        <filter
            id="a"
            width="128"
            height="32"
            x="0"
            y="86"
            color-interpolation-filters="sRGB"
            filterUnits="userSpaceOnUse"
        >
            <feFlood flood-opacity="0" result="BackgroundImageFix" />
            <feBlend in="SourceGraphic" in2="BackgroundImageFix" result="shape" />
            <feGaussianBlur result="effect1_foregroundBlur_349_2077" stdDeviation="6" />
        </filter>
    </defs>
</svg>
