<svg xmlns="http://www.w3.org/2000/svg" width="140" height="128" fill="none" viewBox="0 0 140 128">
    <g clip-path="url(#a)">
        <g filter="url(#b)" opacity=".9">
            <ellipse cx="61.5" cy="51" fill="#000" fill-opacity=".95" rx="42.5" ry="31" />
        </g>
        <ellipse
            cx="100.607"
            cy="98.755"
            fill="url(#c)"
            opacity=".8"
            rx="37.981"
            ry="14.596"
            transform="rotate(44.088 100.607 98.755)"
        />
        <path
            fill="url(#d)"
            fill-rule="evenodd"
            d="M62.361 68.07c18.64 0 33.75-12.592 33.75-28.125 0-8.743-4.787-16.554-12.296-21.712 8.915 4.7 15.43 12.243 17.684 21.087h.862v7.5h-.007c-.402 18.006-18.153 32.5-39.993 32.5-21.839 0-39.59-14.494-39.993-32.5h-.007v-7.5h.863c2.254-8.844 8.77-16.387 17.683-21.087-7.509 5.158-12.296 12.97-12.296 21.712 0 15.533 15.11 28.125 33.75 28.125Z"
            clip-rule="evenodd"
        />
        <path
            fill="#4D5166"
            fill-rule="evenodd"
            d="M7.5 34a1.5 1.5 0 0 0 0 3h11a1.5 1.5 0 0 0 0-3h-11Zm100 0a1.5 1.5 0 0 0 0 3h22a1.5 1.5 0 0 0 0-3h-22Zm9.5 7.5a1.5 1.5 0 0 1 1.5-1.5h15a1.5 1.5 0 0 1 0 3h-15a1.5 1.5 0 0 1-1.5-1.5Zm-7.5-1.5a1.5 1.5 0 0 0 0 3h4a1.5 1.5 0 0 0 0-3h-4ZM13 47.5a1.5 1.5 0 0 1 1.5-1.5h3a1.5 1.5 0 0 1 0 3h-3a1.5 1.5 0 0 1-1.5-1.5ZM6.5 46a1.5 1.5 0 0 0 0 3h3a1.5 1.5 0 0 0 0-3h-3ZM2 41.5A1.5 1.5 0 0 1 3.5 40h13a1.5 1.5 0 0 1 0 3h-13A1.5 1.5 0 0 1 2 41.5ZM107.5 46a1.5 1.5 0 0 0 0 3h18a1.5 1.5 0 0 0 0-3h-18Z"
            clip-rule="evenodd"
            opacity=".5"
        />
        <ellipse cx="62.361" cy="39.945" fill="url(#e)" rx="40" ry="33.125" />
        <path
            fill="#232533"
            fill-rule="evenodd"
            d="M94.638 48.188a23.825 23.825 0 0 0 1.472-8.243C96.11 24.412 81 11.82 62.36 11.82c-17.324 0-31.599 10.877-33.528 24.883C33.06 25.192 45.912 16.82 61.11 16.82c18.64 0 33.75 12.592 33.75 28.125a23.84 23.84 0 0 1-.222 3.243Z"
            clip-rule="evenodd"
        />
        <path
            fill="url(#f)"
            fill-rule="evenodd"
            d="M89.22 67.166a.596.596 0 0 0-.064-.077l-.091-.109-.023.02c-.759-.466-2.802.393-4.77 2.044-1.968 1.652-3.168 3.514-2.842 4.342l-.026.022 5.785 6.894 7.66-6.427-5.628-6.709Z"
            clip-rule="evenodd"
        />
        <path
            fill="url(#g)"
            fill-rule="evenodd"
            d="M95.862 70.414c-1.42-1.692-5.315-.761-8.7 2.079-3.384 2.84-4.977 6.514-3.557 8.206l33.425 39.834 6.129-5.142 6.128-5.142-33.425-39.835Z"
            clip-rule="evenodd"
        />
        <ellipse cx="123.158" cy="115.391" fill="url(#h)" rx="8" ry="4" transform="rotate(-40 123.158 115.391)" />
        <path
            fill="url(#i)"
            fill-rule="evenodd"
            d="M98.707 73.901a2.056 2.056 0 0 0-.274-.422c-1.42-1.693-5.315-.762-8.7 2.078-3.384 2.84-4.976 6.514-3.556 8.206.108.13.232.244.368.343-.89-1.827.706-5.161 3.832-7.783 3.125-2.623 6.685-3.617 8.33-2.422Z"
            clip-rule="evenodd"
        />
        <path
            fill="url(#j)"
            fill-rule="evenodd"
            d="M126.99 107.607a2.056 2.056 0 0 0-.274-.423c-1.42-1.692-5.315-.762-8.699 2.078-3.385 2.84-4.978 6.515-3.558 8.207.109.13.233.244.369.343-.891-1.828.706-5.161 3.831-7.783 3.125-2.623 6.686-3.617 8.331-2.422Z"
            clip-rule="evenodd"
        />
        <path
            fill="#4D5166"
            fill-rule="evenodd"
            d="M28.833 36.697c4.23-11.508 17.08-19.877 32.275-19.877 18.64 0 33.75 12.592 33.75 28.125a23.74 23.74 0 0 1-.222 3.248C90.406 59.702 77.556 68.07 62.36 68.07c-18.64 0-33.75-12.592-33.75-28.125 0-1.099.076-2.182.223-3.248Z"
            clip-rule="evenodd"
        />
        <ellipse cx="62.25" cy="40" fill="url(#k)" opacity=".7" rx="35" ry="29.25" />
        <path
            fill="#9598A6"
            d="M87.408 34.825c.588 1.81-1.541 2.451-2.733.967-4.223-5.26-9.518-8.586-19.733-10.703-4.37-.906-8.687-1.372-12.7-1.255-2.24.065-3.382-2.539-1.218-3.122 4.966-1.337 10.696-1.397 16.504-.193 7.535 1.065 17.275 6.281 19.88 14.306Z"
        />
        <ellipse cx="87.611" cy="41.445" fill="#9598A6" rx="2.5" ry="1.875" />
    </g>
    <defs>
        <linearGradient id="d" x1="78.5" x2="38.5" y1="15" y2="100" gradientUnits="userSpaceOnUse">
            <stop stop-color="#666A80" />
            <stop offset="1" stop-color="#232533" />
        </linearGradient>
        <linearGradient id="e" x1="87.361" x2="30.126" y1="10.57" y2="88.158" gradientUnits="userSpaceOnUse">
            <stop stop-color="#9598A6" />
            <stop offset="1" stop-color="#4D5166" />
        </linearGradient>
        <linearGradient id="f" x1="94.001" x2="80.108" y1="72" y2="70.776" gradientUnits="userSpaceOnUse">
            <stop stop-color="#666A80" />
            <stop offset="1" stop-color="#232533" />
        </linearGradient>
        <linearGradient id="g" x1="106.786" x2="91.165" y1="88.17" y2="101.713" gradientUnits="userSpaceOnUse">
            <stop stop-color="#878A99" />
            <stop offset="1" stop-color="#4D5166" />
        </linearGradient>
        <linearGradient id="h" x1="130.697" x2="113.424" y1="116.235" y2="116.729" gradientUnits="userSpaceOnUse">
            <stop stop-color="#666A80" />
            <stop offset="1" stop-color="#4D5166" />
        </linearGradient>
        <linearGradient id="i" x1="77.786" x2="98.763" y1="88.17" y2="70.755" gradientUnits="userSpaceOnUse">
            <stop stop-color="#232533" />
            <stop offset="1" stop-color="#777B8C" />
        </linearGradient>
        <linearGradient id="j" x1="105.429" x2="127.046" y1="122.798" y2="104.461" gradientUnits="userSpaceOnUse">
            <stop stop-color="#232533" />
            <stop offset="1" stop-color="#777B8C" />
        </linearGradient>
        <radialGradient
            id="c"
            cx="0"
            cy="0"
            r="1"
            gradientTransform="matrix(0 12.2913 -37.3202 0 99.946 97.987)"
            gradientUnits="userSpaceOnUse"
        >
            <stop stop-opacity=".95" />
            <stop offset="1" stop-opacity="0" />
        </radialGradient>
        <radialGradient
            id="k"
            cx="0"
            cy="0"
            r="1"
            gradientTransform="rotate(141.489 35.65 26.465) scale(60.964 73.2039)"
            gradientUnits="userSpaceOnUse"
        >
            <stop stop-color="#9598A6" />
            <stop offset="1" stop-color="#4D5166" />
        </radialGradient>
        <clipPath id="a">
            <path fill="#fff" d="M0 0h140v128H0z" />
        </clipPath>
        <filter
            id="b"
            width="117"
            height="94"
            x="3"
            y="4"
            color-interpolation-filters="sRGB"
            filterUnits="userSpaceOnUse"
        >
            <feFlood flood-opacity="0" result="BackgroundImageFix" />
            <feBlend in="SourceGraphic" in2="BackgroundImageFix" result="shape" />
            <feGaussianBlur result="effect1_foregroundBlur_193_18648" stdDeviation="8" />
        </filter>
    </defs>
</svg>
