<svg xmlns="http://www.w3.org/2000/svg" width="216" height="152" fill="none" viewBox="0 0 216 152">
  <defs/>
  <g clip-path="url(#clip0)">
    <path fill="url(#paint0_linear)" d="M180.15 64.74a34.72 34.72 0 110 69.43h-15.11L142.91 152v-17.83h-4.98a34.72 34.72 0 010-69.43h42.22z"/>
    <path fill="#fff" d="M136.05 94.3a2.35 2.35 0 012.34-2.35h13.14a2.35 2.35 0 110 4.7h-13.14a2.35 2.35 0 01-2.34-2.35zm24.4 0a2.35 2.35 0 012.34-2.35h21.58a2.35 2.35 0 010 4.7h-21.58a2.35 2.35 0 01-2.35-2.35zm-24.4 13.13a2.35 2.35 0 012.34-2.34h21.59a2.35 2.35 0 010 4.69h-21.59a2.35 2.35 0 01-2.34-2.35z"/>
    <path fill="url(#paint1_linear)" d="M17.83 0A17.83 17.83 0 000 17.83v35.65c0 9.85 7.98 17.83 17.83 17.83h33.3l30.2 23.93V71.3h4.05c9.85 0 17.83-7.98 17.83-17.83V17.83C103.21 7.98 95.23 0 85.38 0H17.83z"/>
    <circle cx="34.72" cy="36.59" r="4.69" fill="#fff"/>
    <circle cx="51.6" cy="36.59" r="4.69" fill="#fff"/>
    <circle cx="68.49" cy="36.59" r="4.69" fill="#fff"/>
  </g>
  <defs>
    <linearGradient id="paint0_linear" x1="178.27" x2="177.55" y1="152" y2="46.45" gradientUnits="userSpaceOnUse">
      <stop stop-color="#A3CEF4"/>
      <stop offset="1" stop-color="#D0F4FF"/>
    </linearGradient>
    <linearGradient id="paint1_linear" x1="54.89" x2="56.77" y1="0" y2="96.64" gradientUnits="userSpaceOnUse">
      <stop stop-color="#46D3FF"/>
      <stop offset="1" stop-color="#438EFF"/>
    </linearGradient>
    <clipPath id="clip0">
      <path fill="#fff" d="M0 0h216v152H0z"/>
    </clipPath>
  </defs>
</svg>
