<svg xmlns="http://www.w3.org/2000/svg" width="128" height="128" fill="none" viewBox="0 0 128 128">
    <g filter="url(#a)">
        <ellipse cx="59" cy="112" fill="#000" fill-opacity=".95" rx="47" ry="4" />
    </g>
    <path
        fill="url(#b)"
        fill-rule="evenodd"
        d="M111 25H33l10 81c0 4.971 12.984 9 29 9s29-4.029 29-9l10-81Z"
        clip-rule="evenodd"
    />
    <ellipse cx="72" cy="25" fill="url(#c)" rx="39" ry="6" />
    <ellipse cx="72" cy="25" stroke="#9598A6" stroke-width="1.5" rx="39" ry="6" />
    <path
        fill="#4D5166"
        d="M70.019 49a1.981 1.981 0 1 1 3.962 0l-.467 49.5a1.514 1.514 0 0 1-3.028 0L70.019 49Zm-19.833-1.855a1.975 1.975 0 1 1 3.938-.303l3.267 48.547a1.51 1.51 0 0 1-3.01.231l-4.195-48.475Zm38.69.697a1.975 1.975 0 1 1 3.938.303L88.62 96.62a1.51 1.51 0 0 1-3.01-.231l3.267-48.547Z"
    />
    <path
        fill="url(#d)"
        fill-rule="evenodd"
        d="M101.692 100.389C93.085 104.578 82.906 107 71.999 107c-10.906 0-21.085-2.422-29.692-6.611l.692 5.611c0 4.971 12.984 9 29 9 16.017 0 29-4.029 29-9l.693-5.611Z"
        clip-rule="evenodd"
    />
    <path
        fill="url(#e)"
        fill-rule="evenodd"
        d="M55.314 113.362c7.305-4.008 9.85-22.19 5.608-42.722-4.583-22.175-15.349-38.694-24.047-36.897a6.816 6.816 0 0 0-2.648 1.196L43 106c0 3.043 4.865 5.734 12.314 7.362Z"
        clip-rule="evenodd"
        opacity=".2"
    />
    <path
        fill="url(#f)"
        fill-rule="evenodd"
        d="M18.106 113.75c3.2.858 11.57-16.135 17.502-38.274 5.932-22.139 7.18-41.04 3.98-41.898a1.046 1.046 0 0 0-.617.037l-5.697.343-10.223 38.154-10.223 38.154 4.762 3.144c.153.175.325.289.516.34Z"
        clip-rule="evenodd"
    />
    <ellipse cx="23.051" cy="72.112" fill="url(#g)" rx="6" ry="39.5" transform="rotate(15 23.051 72.112)" />
    <path
        fill="url(#h)"
        fill-rule="evenodd"
        d="M14.168 66.626a4.5 4.5 0 0 1 5.512-3.182l3.38.906.483.129a1.5 1.5 0 1 1-.776 2.898l-.483-.13-3.38-.906a1.5 1.5 0 0 0-1.838 1.061l-1.812 6.762A1.5 1.5 0 0 0 16.315 76l3.38.906.484.13a1.5 1.5 0 1 1-.777 2.897l-.483-.13-3.38-.905a4.5 4.5 0 0 1-3.182-5.512l1.811-6.761Z"
        clip-rule="evenodd"
    />
    <path
        fill="#4D5166"
        d="M103.531 10.267a.5.5 0 0 1 .938 0l.802 2.167c.05.137.158.245.295.295l2.167.802a.5.5 0 0 1 0 .938l-2.167.802a.497.497 0 0 0-.295.295l-.802 2.167a.5.5 0 0 1-.938 0l-.802-2.167a.497.497 0 0 0-.295-.295l-2.167-.802a.5.5 0 0 1 0-.938l2.167-.802a.497.497 0 0 0 .295-.295l.802-2.167Zm-83-4a.5.5 0 0 1 .938 0l2.152 5.817a.5.5 0 0 0 .296.295l5.816 2.152a.5.5 0 0 1 0 .938l-5.817 2.152a.5.5 0 0 0-.295.296l-2.152 5.816a.5.5 0 0 1-.938 0l-2.152-5.817a.5.5 0 0 0-.296-.295l-5.816-2.152a.5.5 0 0 1 0-.938l5.817-2.152a.5.5 0 0 0 .295-.295l2.152-5.817Z"
        opacity=".5"
    />
    <defs>
        <linearGradient id="c" x1="72" x2="73.472" y1="10.5" y2="47.441" gradientUnits="userSpaceOnUse">
            <stop stop-color="#232533" />
            <stop offset="1" stop-color="#666A80" />
        </linearGradient>
        <linearGradient id="d" x1="141.808" x2="33.808" y1="85.58" y2="115.537" gradientUnits="userSpaceOnUse">
            <stop stop-color="#777B8C" />
            <stop offset="1" stop-color="#4D5166" />
        </linearGradient>
        <linearGradient id="e" x1="42.499" x2="54.499" y1="37" y2="124" gradientUnits="userSpaceOnUse">
            <stop stop-opacity=".95" />
            <stop offset="1" stop-opacity="0" />
        </linearGradient>
        <linearGradient id="f" x1="26" x2="16" y1="16" y2="114.5" gradientUnits="userSpaceOnUse">
            <stop stop-color="#777B8C" />
            <stop offset="1" stop-color="#4D5166" />
        </linearGradient>
        <linearGradient id="g" x1="29.051" x2="4.51" y1="32.611" y2="36.721" gradientUnits="userSpaceOnUse">
            <stop stop-color="#777B8C" />
            <stop offset="1" stop-color="#4D5166" />
        </linearGradient>
        <linearGradient id="h" x1="9" x2="36" y1="66" y2="73.5" gradientUnits="userSpaceOnUse">
            <stop stop-color="#666A80" />
            <stop offset="1" stop-color="#232533" />
        </linearGradient>
        <radialGradient
            id="b"
            cx="0"
            cy="0"
            r="1"
            gradientTransform="rotate(135.027 48.281 40.413) scale(110.257 105.563)"
            gradientUnits="userSpaceOnUse"
        >
            <stop stop-color="#878A99" />
            <stop offset="1" stop-color="#666A80" />
        </radialGradient>
        <filter
            id="a"
            width="118"
            height="32"
            x="0"
            y="96"
            color-interpolation-filters="sRGB"
            filterUnits="userSpaceOnUse"
        >
            <feFlood flood-opacity="0" result="BackgroundImageFix" />
            <feBlend in="SourceGraphic" in2="BackgroundImageFix" result="shape" />
            <feGaussianBlur result="effect1_foregroundBlur_193_18643" stdDeviation="6" />
        </filter>
    </defs>
</svg>
