<svg xmlns="http://www.w3.org/2000/svg" width="168" height="164" fill="none" viewBox="0 0 168 164">
  <defs/>
  <path fill="url(#paint0_linear)" d="M157.73 164H10.1C4.47 164 0 159.53 0 153.9V57h168v96.9a10.4 10.4 0 01-10.27 10.1z"/>
  <path fill="#3D4F82" d="M0 57l83.68 59.11L168 57H0z"/>
  <path fill="#3B4C80" d="M168 57L88.65 1.62a8.46 8.46 0 00-9.94 0L0 57h168z"/>
  <path fill="url(#paint1_linear)" d="M143.66 73.86L83.68 116.1 23.86 73.86V14.7h119.8v59.15z"/>
  <path fill="#6191FC" d="M83.54 40s-13.57-.47-16.4 14.6v10.27s.08 1.1 3.22 3.37 11.06 8.55 13.18 8.55c2.12 0 10.12-6.36 13.18-8.55 3.06-2.2 3.21-3.37 3.21-3.37V54.59C97.2 39.53 83.54 40 83.54 40zm9.33 20.24H74.28v-5.57a10.13 10.13 0 019.34-7.6c4.47.15 8.23 3.29 9.33 7.6v5.57h-.08z"/>
  <path fill="#6191FC" d="M83.54 79.06a9.44 9.44 0 01-3.77-1.33L67.14 68.7v15.53a1.92 1.92 0 002.04 1.8h28.63c1.1.08 2.04-.7 2.12-1.72V68.7L87.3 77.73a8.66 8.66 0 01-3.76 1.33z"/>
  <path fill="url(#paint2_linear)" fill-rule="evenodd" d="M16.15 163.88h141.1a10.4 10.4 0 0010.27-10.11V57.34L16.15 163.87z" clip-rule="evenodd"/>
  <defs>
    <linearGradient id="paint0_linear" x1="24.5" x2="6" y1="57" y2="181.5" gradientUnits="userSpaceOnUse">
      <stop stop-color="#9AD6FF"/>
      <stop offset="1" stop-color="#4FB6FF"/>
    </linearGradient>
    <linearGradient id="paint1_linear" x1="83.76" x2="83.76" y1="14.71" y2="116.11" gradientUnits="userSpaceOnUse">
      <stop stop-color="#fff"/>
      <stop offset="1" stop-color="#FFF3EF"/>
    </linearGradient>
    <linearGradient id="paint2_linear" x1="159.5" x2="91.81" y1="57" y2="163.88" gradientUnits="userSpaceOnUse">
      <stop stop-color="#9AD6FF"/>
      <stop offset="1" stop-color="#4FB6FF"/>
    </linearGradient>
  </defs>
</svg>
