<svg width="36" height="36" viewBox="0 0 36 36" fill="none" xmlns="http://www.w3.org/2000/svg">
    <rect width="36" height="36" fill="#006699" />
    <path
        fill-rule="evenodd"
        clip-rule="evenodd"
        d="M13.6325 25.6465V15.3279H10.2027V25.6465H13.6325ZM11.9176 13.919C13.1136 13.919 13.858 13.1267 13.858 12.1364C13.8357 11.1239 13.1136 10.3536 11.9403 10.3536C10.7671 10.3536 10 11.1239 10 12.1364C10 13.1267 10.7443 13.919 11.8952 13.919H11.9176Z"
        fill="white"
    />
    <path
        fill-rule="evenodd"
        clip-rule="evenodd"
        d="M15.5308 25.6465H18.9605V19.8841C18.9605 19.5757 18.9828 19.2676 19.0734 19.0472C19.3213 18.431 19.8856 17.7929 20.8331 17.7929C22.0741 17.7929 22.5706 18.7391 22.5706 20.1263V25.6465H26V19.7299C26 16.5605 24.308 15.0857 22.0515 15.0857C20.2013 15.0857 19.389 16.1199 18.9377 16.8243H18.9606V15.3279H15.5309C15.5759 16.2961 15.5308 25.6465 15.5308 25.6465Z"
        fill="white"
    />
</svg>
