<svg width="36" height="36" viewBox="0 0 36 36" fill="none" xmlns="http://www.w3.org/2000/svg">
    <rect width="36" height="36" fill="#FF4500" />
    <path
        d="M24.4831 20.6558C25.9581 20.6558 27.1539 19.4601 27.1539 17.9851C27.1539 16.5102 25.9581 15.3145 24.4831 15.3145C23.008 15.3145 21.8122 16.5102 21.8122 17.9851C21.8122 19.4601 23.008 20.6558 24.4831 20.6558Z"
        fill="url(#paint0_radial_42456_27204)"
    />
    <path
        d="M11.5169 20.6558C12.992 20.6558 14.1878 19.4601 14.1878 17.9851C14.1878 16.5102 12.992 15.3145 11.5169 15.3145C10.0419 15.3145 8.84607 16.5102 8.84607 17.9851C8.84607 19.4601 10.0419 20.6558 11.5169 20.6558Z"
        fill="url(#paint1_radial_42456_27204)"
    />
    <path
        d="M18.0064 26.0002C22.2175 26.0002 25.6313 23.44 25.6313 20.2818C25.6313 17.1237 22.2175 14.5635 18.0064 14.5635C13.7952 14.5635 10.3814 17.1237 10.3814 20.2818C10.3814 23.44 13.7952 26.0002 18.0064 26.0002Z"
        fill="url(#paint2_radial_42456_27204)"
    />
    <path
        d="M15.7528 19.7368C15.7083 20.6983 15.0655 21.0478 14.3167 21.0478C13.568 21.0478 12.9972 20.5257 13.0417 19.5642C13.0862 18.6027 13.729 17.9736 14.4777 17.9736C15.2264 17.9736 15.7973 18.7763 15.7528 19.7379V19.7368Z"
        fill="url(#paint3_radial_42456_27204)"
    />
    <path
        d="M20.2608 19.7368C20.3053 20.6983 20.9481 21.0478 21.6968 21.0478C22.4456 21.0478 23.0164 20.5257 22.9719 19.5642C22.9274 18.6027 22.2846 17.9736 21.5359 17.9736C20.7871 17.9736 20.2163 18.7763 20.2608 19.7379V19.7368Z"
        fill="url(#paint4_radial_42456_27204)"
    />
    <path
        d="M14.9951 19.3081C15.1589 19.3081 15.2917 19.1635 15.2917 18.9851C15.2917 18.8067 15.1589 18.6621 14.9951 18.6621C14.8314 18.6621 14.6986 18.8067 14.6986 18.9851C14.6986 19.1635 14.8314 19.3081 14.9951 19.3081Z"
        fill="#FFC49C"
    />
    <path
        d="M22.0466 19.3081C22.2104 19.3081 22.3432 19.1635 22.3432 18.9851C22.3432 18.8067 22.2104 18.6621 22.0466 18.6621C21.8829 18.6621 21.7501 18.8067 21.7501 18.9851C21.7501 19.1635 21.8829 19.3081 22.0466 19.3081Z"
        fill="#FFC49C"
    />
    <path
        d="M18.0067 21.7949C17.079 21.7949 16.1894 21.8405 15.3676 21.9241C15.2267 21.9379 15.1378 22.084 15.1928 22.2143C15.6535 23.3145 16.7401 24.0876 18.0067 24.0876C19.2732 24.0876 20.3609 23.3145 20.8205 22.2143C20.8756 22.084 20.7855 21.9379 20.6457 21.9241C19.8229 21.8405 18.9344 21.7949 18.0067 21.7949Z"
        fill="url(#paint5_radial_42456_27204)"
    />
    <path
        d="M22.1821 13.7847C23.2273 13.7847 24.0746 12.9375 24.0746 11.8924C24.0746 10.8472 23.2273 10 22.1821 10C21.137 10 20.2897 10.8472 20.2897 11.8924C20.2897 12.9375 21.137 13.7847 22.1821 13.7847Z"
        fill="url(#paint6_radial_42456_27204)"
    />
    <path
        d="M17.9791 14.8088C17.7525 14.8088 17.5693 14.7145 17.5693 14.5684C17.5693 12.873 18.9492 11.4932 20.6447 11.4932C20.8713 11.4932 21.0545 11.6764 21.0545 11.903C21.0545 12.1296 20.8713 12.3128 20.6447 12.3128C19.4014 12.3128 18.39 13.3241 18.39 14.5673C18.39 14.7134 18.2068 14.8077 17.9802 14.8077L17.9791 14.8088Z"
        fill="url(#paint7_radial_42456_27204)"
    />
    <path
        d="M13.2154 19.6489C13.2567 18.7424 13.8592 18.1494 14.5593 18.1494C15.2222 18.1494 15.7348 18.8261 15.7538 19.6669C15.7718 18.7265 15.2106 17.9736 14.4777 17.9736C13.7449 17.9736 13.0862 18.6143 13.0417 19.5832C12.9972 20.5522 13.568 21.0478 14.3167 21.0478C14.3347 21.0478 14.3538 21.0478 14.3718 21.0478C13.6898 21.0308 13.1751 20.5405 13.2164 19.65L13.2154 19.6489Z"
        fill="#842123"
    />
    <path
        d="M22.7973 19.6489C22.756 18.7424 22.1534 18.1494 21.4534 18.1494C20.7904 18.1494 20.2778 18.8261 20.2588 19.6669C20.2408 18.7265 20.8021 17.9736 21.5349 17.9736C22.2836 17.9736 22.9265 18.6143 22.9709 19.5832C23.0154 20.5522 22.4446 21.0478 21.6959 21.0478C21.6779 21.0478 21.6588 21.0478 21.6408 21.0478C22.3228 21.0308 22.8375 20.5405 22.7962 19.65L22.7973 19.6489Z"
        fill="#842123"
    />
    <defs>
        <radialGradient
            id="paint0_radial_42456_27204"
            cx="0"
            cy="0"
            r="1"
            gradientUnits="userSpaceOnUse"
            gradientTransform="translate(24.5392 16.3824) scale(5.3989 4.69674)"
        >
            <stop stop-color="#FEFFFF" />
            <stop offset="0.4" stop-color="#FEFFFF" />
            <stop offset="0.51" stop-color="#F9FCFC" />
            <stop offset="0.62" stop-color="#EDF3F5" />
            <stop offset="0.7" stop-color="#DEE9EC" />
            <stop offset="0.72" stop-color="#D8E4E8" />
            <stop offset="0.76" stop-color="#CCD8DF" />
            <stop offset="0.8" stop-color="#C8D5DD" />
            <stop offset="0.83" stop-color="#CCD6DE" />
            <stop offset="0.85" stop-color="#D8DBE2" />
            <stop offset="0.88" stop-color="#EDE3E9" />
            <stop offset="0.9" stop-color="#FFEBEF" />
        </radialGradient>
        <radialGradient
            id="paint1_radial_42456_27204"
            cx="0"
            cy="0"
            r="1"
            gradientUnits="userSpaceOnUse"
            gradientTransform="translate(11.5731 7.93513) scale(5.3989 4.69674)"
        >
            <stop stop-color="#FEFFFF" />
            <stop offset="0.4" stop-color="#FEFFFF" />
            <stop offset="0.51" stop-color="#F9FCFC" />
            <stop offset="0.62" stop-color="#EDF3F5" />
            <stop offset="0.7" stop-color="#DEE9EC" />
            <stop offset="0.72" stop-color="#D8E4E8" />
            <stop offset="0.76" stop-color="#CCD8DF" />
            <stop offset="0.8" stop-color="#C8D5DD" />
            <stop offset="0.83" stop-color="#CCD6DE" />
            <stop offset="0.85" stop-color="#D8DBE2" />
            <stop offset="0.88" stop-color="#EDE3E9" />
            <stop offset="0.9" stop-color="#FFEBEF" />
        </radialGradient>
        <radialGradient
            id="paint2_radial_42456_27204"
            cx="0"
            cy="0"
            r="1"
            gradientUnits="userSpaceOnUse"
            gradientTransform="translate(18.1705 15.7106) scale(16.2857 11.3992)"
        >
            <stop stop-color="#FEFFFF" />
            <stop offset="0.4" stop-color="#FEFFFF" />
            <stop offset="0.51" stop-color="#F9FCFC" />
            <stop offset="0.62" stop-color="#EDF3F5" />
            <stop offset="0.7" stop-color="#DEE9EC" />
            <stop offset="0.72" stop-color="#D8E4E8" />
            <stop offset="0.76" stop-color="#CCD8DF" />
            <stop offset="0.8" stop-color="#C8D5DD" />
            <stop offset="0.83" stop-color="#CCD6DE" />
            <stop offset="0.85" stop-color="#D8DBE2" />
            <stop offset="0.88" stop-color="#EDE3E9" />
            <stop offset="0.9" stop-color="#FFEBEF" />
        </radialGradient>
        <radialGradient
            id="paint3_radial_42456_27204"
            cx="0"
            cy="0"
            r="1"
            gradientUnits="userSpaceOnUse"
            gradientTransform="translate(14.4681 20.164) scale(1.4561 2.10917)"
        >
            <stop stop-color="#FF6600" />
            <stop offset="0.5" stop-color="#FF4500" />
            <stop offset="0.7" stop-color="#FC4301" />
            <stop offset="0.82" stop-color="#F43F07" />
            <stop offset="0.92" stop-color="#E53812" />
            <stop offset="1" stop-color="#D4301F" />
        </radialGradient>
        <radialGradient
            id="paint4_radial_42456_27204"
            cx="0"
            cy="0"
            r="1"
            gradientUnits="userSpaceOnUse"
            gradientTransform="translate(21.5548 20.164) rotate(180) scale(1.4561 2.10917)"
        >
            <stop stop-color="#FF6600" />
            <stop offset="0.5" stop-color="#FF4500" />
            <stop offset="0.7" stop-color="#FC4301" />
            <stop offset="0.82" stop-color="#F43F07" />
            <stop offset="0.92" stop-color="#E53812" />
            <stop offset="1" stop-color="#D4301F" />
        </radialGradient>
        <radialGradient
            id="paint5_radial_42456_27204"
            cx="0"
            cy="0"
            r="1"
            gradientUnits="userSpaceOnUse"
            gradientTransform="translate(17.9929 24.4077) scale(4.79737 3.16606)"
        >
            <stop stop-color="#172E35" />
            <stop offset="0.29" stop-color="#0E1C21" />
            <stop offset="0.73" stop-color="#030708" />
            <stop offset="1" />
        </radialGradient>
        <radialGradient
            id="paint6_radial_42456_27204"
            cx="0"
            cy="0"
            r="1"
            gradientUnits="userSpaceOnUse"
            gradientTransform="translate(22.2234 10.1336) scale(4.21173 4.12723)"
        >
            <stop stop-color="#FEFFFF" />
            <stop offset="0.4" stop-color="#FEFFFF" />
            <stop offset="0.51" stop-color="#F9FCFC" />
            <stop offset="0.62" stop-color="#EDF3F5" />
            <stop offset="0.7" stop-color="#DEE9EC" />
            <stop offset="0.72" stop-color="#D8E4E8" />
            <stop offset="0.76" stop-color="#CCD8DF" />
            <stop offset="0.8" stop-color="#C8D5DD" />
            <stop offset="0.83" stop-color="#CCD6DE" />
            <stop offset="0.85" stop-color="#D8DBE2" />
            <stop offset="0.88" stop-color="#EDE3E9" />
            <stop offset="0.9" stop-color="#FFEBEF" />
        </radialGradient>
        <radialGradient
            id="paint7_radial_42456_27204"
            cx="0"
            cy="0"
            r="1"
            gradientUnits="userSpaceOnUse"
            gradientTransform="translate(20.4689 14.4021) scale(3.45241 3.45219)"
        >
            <stop offset="0.48" stop-color="#7A9299" />
            <stop offset="0.67" stop-color="#172E35" />
            <stop offset="0.75" />
            <stop offset="0.82" stop-color="#172E35" />
        </radialGradient>
    </defs>
</svg>
