<svg width="282" height="120" viewBox="0 0 282 120" fill="none" xmlns="http://www.w3.org/2000/svg">
    <rect x="0.333984" width="281.333" height="120" rx="8" fill="url(#paint0_linear_38546_61866)" />
    <rect x="0.833984" y="0.5" width="280.333" height="119" rx="7.5" stroke="#6D4AFF" stroke-opacity="0.08" />
    <g filter="url(#filter0_d_38546_61866)">
        <g clip-path="url(#clip0_38546_61866)">
            <rect x="16.002" y="29.999" width="250" height="60" rx="12" fill="white" />
            <g clip-path="url(#clip1_38546_61866)">
                <rect x="32.002" y="41.999" width="36" height="36" rx="10" fill="white" />
                <rect x="32.502" y="42.499" width="35" height="35" rx="9.5" stroke="black" stroke-opacity="0.1" />
                <path
                    d="M48.002 52.999C48.002 55.7604 45.7634 57.999 43.002 57.999C40.2405 57.999 38.002 55.7604 38.002 52.999C38.002 50.2376 40.2405 47.999 43.002 47.999C45.7634 47.999 48.002 50.2376 48.002 52.999Z"
                    fill="url(#paint1_linear_38546_61866)"
                />
                <circle cx="57.002" cy="66.999" r="5" fill="url(#paint2_linear_38546_61866)" />
                <circle cx="43.002" cy="66.999" r="5" fill="url(#paint3_linear_38546_61866)" />
                <circle cx="57.002" cy="52.999" r="5" fill="url(#paint4_linear_38546_61866)" />
                <mask
                    id="mask0_38546_61866"
                    style="mask-type: alpha"
                    maskUnits="userSpaceOnUse"
                    x="38"
                    y="47"
                    width="25"
                    height="25"
                >
                    <path
                        d="M62.002 52.999C62.002 55.7604 59.7634 57.999 57.002 57.999C54.2405 57.999 52.002 55.7604 52.002 52.999C52.002 50.2376 54.2405 47.999 57.002 47.999C59.7634 47.999 62.002 50.2376 62.002 52.999Z"
                        fill="url(#paint5_linear_38546_61866)"
                    />
                    <path
                        d="M48.002 66.999C48.002 69.7604 45.7634 71.999 43.002 71.999C40.2405 71.999 38.002 69.7604 38.002 66.999C38.002 64.2376 40.2405 61.999 43.002 61.999C45.7634 61.999 48.002 64.2376 48.002 66.999Z"
                        fill="url(#paint6_linear_38546_61866)"
                    />
                    <path
                        fill-rule="evenodd"
                        clip-rule="evenodd"
                        d="M57.002 57.999C52.502 57.999 48.002 62.499 48.002 66.999L43.002 61.999C47.502 61.999 52.002 57.499 52.002 52.999L57.002 57.999Z"
                        fill="url(#paint7_linear_38546_61866)"
                    />
                </mask>
                <g mask="url(#mask0_38546_61866)">
                    <circle cx="50.002" cy="59.999" r="7" fill="url(#paint8_linear_38546_61866)" />
                </g>
                <path
                    d="M87.3734 44.8172V54.999H85.7328L80.9352 48.0637H80.8507V54.999H79.0062V44.8172H80.6568L85.4494 51.7575H85.5389V44.8172H87.3734ZM92.6843 55.1482C90.3825 55.1482 88.9755 53.6219 88.9755 51.2256C88.9755 48.8691 90.4023 47.2632 92.5898 47.2632C94.4691 47.2632 96.0799 48.4415 96.0799 51.1212V51.673H90.7603C90.7752 52.9806 91.5458 53.7462 92.7092 53.7462C93.4847 53.7462 94.0813 53.4081 94.3249 52.7618L96.0053 52.9507C95.6871 54.2781 94.4641 55.1482 92.6843 55.1482ZM90.7653 50.46H94.3548C94.3448 49.4209 93.6488 48.6652 92.6147 48.6652C91.5408 48.6652 90.82 49.4855 90.7653 50.46ZM99.1374 54.999L96.9798 47.3627H98.8143L100.157 52.732H100.226L101.598 47.3627H103.413L104.785 52.7021H104.86L106.182 47.3627H108.022L105.859 54.999H103.985L102.553 49.8385H102.449L101.017 54.999H99.1374ZM108.199 46.3634V44.8172H116.323V46.3634H113.176V54.999H111.346V46.3634H108.199ZM120.083 55.1482C117.781 55.1482 116.374 53.6219 116.374 51.2256C116.374 48.8691 117.801 47.2632 119.988 47.2632C121.868 47.2632 123.478 48.4415 123.478 51.1212V51.673H118.159C118.174 52.9806 118.944 53.7462 120.108 53.7462C120.883 53.7462 121.48 53.4081 121.723 52.7618L123.404 52.9507C123.086 54.2781 121.863 55.1482 120.083 55.1482ZM118.164 50.46H121.753C121.743 49.4209 121.047 48.6652 120.013 48.6652C118.939 48.6652 118.218 49.4855 118.164 50.46ZM128.332 55.1482C126.05 55.1482 124.673 53.5225 124.673 51.2107C124.673 48.879 126.085 47.2632 128.322 47.2632C130.186 47.2632 131.479 48.352 131.603 50.0075H129.883C129.744 49.2718 129.212 48.7149 128.347 48.7149C127.238 48.7149 126.497 49.6396 126.497 51.1808C126.497 52.7419 127.223 53.6816 128.347 53.6816C129.137 53.6816 129.729 53.2093 129.883 52.3889H131.603C131.474 54.0097 130.251 55.1482 128.332 55.1482ZM142.167 47.6162C142.072 46.7512 141.346 46.2391 140.248 46.2391C139.094 46.2391 138.408 46.8009 138.403 47.5665C138.393 48.4166 139.298 48.7696 140.133 48.9685L141.088 49.2071C142.619 49.57 144.076 50.3754 144.081 52.1404C144.076 53.9351 142.659 55.1531 140.218 55.1531C137.846 55.1531 136.34 54.0146 136.265 51.9912H138.08C138.154 53.0601 139.049 53.5771 140.203 53.5771C141.406 53.5771 142.231 52.9955 142.236 52.1254C142.231 51.335 141.505 50.9919 140.407 50.7135L139.248 50.4152C137.573 49.9827 136.534 49.1425 136.534 47.6808C136.529 45.8811 138.135 44.678 140.272 44.678C142.44 44.678 143.907 45.896 143.941 47.6162H142.167ZM148.976 55.1482C146.739 55.1482 145.317 53.5722 145.317 51.2107C145.317 48.8442 146.739 47.2632 148.976 47.2632C151.214 47.2632 152.635 48.8442 152.635 51.2107C152.635 53.5722 151.214 55.1482 148.976 55.1482ZM148.986 53.7064C150.204 53.7064 150.811 52.6027 150.811 51.2057C150.811 49.8087 150.204 48.6901 148.986 48.6901C147.748 48.6901 147.142 49.8087 147.142 51.2057C147.142 52.6027 147.748 53.7064 148.986 53.7064ZM155.963 44.8172V54.999H154.163V44.8172H155.963ZM162.681 51.7874V47.3627H164.48V54.999H162.735V53.6418H162.656C162.308 54.4969 161.502 55.0985 160.359 55.0985C158.857 55.0985 157.813 54.0594 157.813 52.2249V47.3627H159.613V51.9465C159.613 52.9159 160.19 53.5274 161.055 53.5274C161.85 53.5274 162.681 52.9507 162.681 51.7874ZM170.144 47.3627V48.7547H168.638V52.7021C168.638 53.428 169.001 53.5871 169.453 53.5871C169.677 53.5871 169.881 53.5423 169.98 53.5175L170.283 54.9244C170.089 54.9891 169.737 55.0885 169.224 55.1034C167.872 55.1432 166.828 54.4372 166.838 53.0004V48.7547H165.754V47.3627H166.838V45.5331H168.638V47.3627H170.144ZM171.649 54.999V47.3627H173.449V54.999H171.649ZM172.554 46.2789C171.977 46.2789 171.51 45.8414 171.51 45.3044C171.51 44.7625 171.977 44.325 172.554 44.325C173.126 44.325 173.593 44.7625 173.593 45.3044C173.593 45.8414 173.126 46.2789 172.554 46.2789ZM178.631 55.1482C176.393 55.1482 174.972 53.5722 174.972 51.2107C174.972 48.8442 176.393 47.2632 178.631 47.2632C180.868 47.2632 182.29 48.8442 182.29 51.2107C182.29 53.5722 180.868 55.1482 178.631 55.1482ZM178.641 53.7064C179.859 53.7064 180.465 52.6027 180.465 51.2057C180.465 49.8087 179.859 48.6901 178.641 48.6901C177.403 48.6901 176.796 49.8087 176.796 51.2057C176.796 52.6027 177.403 53.7064 178.641 53.7064ZM185.617 50.5246V54.999H183.817V47.3627H185.537V48.6602H185.627C185.975 47.8101 186.76 47.2632 187.904 47.2632C189.48 47.2632 190.524 48.3073 190.519 50.1368V54.999H188.719V50.4152C188.719 49.396 188.162 48.7845 187.233 48.7845C186.283 48.7845 185.617 49.4209 185.617 50.5246ZM198.384 49.3811L196.743 49.5601C196.604 49.058 196.167 48.6056 195.336 48.6056C194.586 48.6056 194.014 48.9635 194.019 49.4806C194.014 49.923 194.322 50.1915 195.098 50.3655L196.4 50.6439C197.842 50.9571 198.543 51.6233 198.548 52.7121C198.543 54.1588 197.196 55.1482 195.287 55.1482C193.412 55.1482 192.234 54.3179 192.01 52.9159L193.765 52.7469C193.92 53.433 194.456 53.7909 195.282 53.7909C196.137 53.7909 196.704 53.3982 196.704 52.8762C196.704 52.4436 196.376 52.1602 195.675 52.0061L194.372 51.7327C192.905 51.4294 192.219 50.6936 192.224 49.58C192.219 48.1681 193.472 47.2632 195.312 47.2632C197.101 47.2632 198.135 48.0885 198.384 49.3811Z"
                    fill="#0C0C14"
                />
                <path
                    d="M84.7235 69.227L83.3762 69.4656C83.2022 68.9536 82.7747 68.4415 81.85 68.4415C81.0048 68.4415 80.3684 68.8591 80.3734 69.4458C80.3684 69.9628 80.7314 70.2462 81.5716 70.445L82.7846 70.7235C84.1866 71.0466 84.8727 71.7128 84.8727 72.7916C84.8727 74.1737 83.595 75.1531 81.7505 75.1531C80.0353 75.1531 78.9118 74.3925 78.6632 73.0402L80.1 72.8215C80.2789 73.5722 80.8507 73.955 81.7406 73.955C82.715 73.955 83.3464 73.4926 83.3464 72.901C83.3464 72.4237 83.0034 72.0956 82.2676 71.9316L80.975 71.6482C79.5431 71.33 78.8869 70.6091 78.8869 69.5253C78.8869 68.173 80.1099 67.2632 81.835 67.2632C83.4856 67.2632 84.4153 68.0388 84.7235 69.227ZM88.7294 75.1681C87.2777 75.1681 86.1491 74.3428 86.1491 72.8414C86.1491 71.1063 87.6307 70.7284 89.0774 70.5594C90.4496 70.4003 91.0064 70.4102 91.0064 69.8683V69.8335C91.0064 68.9685 90.5142 68.4664 89.5547 68.4664C88.5554 68.4664 87.9986 68.9884 87.7798 69.5303L86.3828 69.2121C86.88 67.82 88.1527 67.2632 89.5348 67.2632C90.7479 67.2632 92.4979 67.7057 92.4979 69.928V74.999H91.0462V73.955H90.9865C90.7031 74.5267 89.9922 75.1681 88.7294 75.1681ZM89.0526 73.9749C90.2905 73.9749 91.0114 73.1496 91.0114 72.2448V71.2604C90.7976 71.4742 89.6541 71.6034 89.1719 71.6681C88.3118 71.7824 87.6058 72.0658 87.6058 72.8612C87.6058 73.597 88.2124 73.9749 89.0526 73.9749ZM95.9643 64.8172V74.999H94.4778V64.8172H95.9643ZM101.255 75.1531C99.0032 75.1531 97.6211 73.602 97.6211 71.2306C97.6211 68.884 99.0231 67.2632 101.151 67.2632C102.881 67.2632 104.532 68.3421 104.532 71.1013V71.6283H99.1026C99.1424 73.0999 99.9975 73.9252 101.27 73.9252C102.115 73.9252 102.762 73.5573 103.03 72.8364L104.437 73.0899C104.099 74.3328 102.921 75.1531 101.255 75.1531ZM99.1076 70.5146H103.075C103.07 69.3463 102.314 68.4912 101.161 68.4912C99.9528 68.4912 99.1673 69.4308 99.1076 70.5146ZM111.903 69.227L110.556 69.4656C110.382 68.9536 109.954 68.4415 109.03 68.4415C108.184 68.4415 107.548 68.8591 107.553 69.4458C107.548 69.9628 107.911 70.2462 108.751 70.445L109.964 70.7235C111.366 71.0466 112.052 71.7128 112.052 72.7916C112.052 74.1737 110.775 75.1531 108.93 75.1531C107.215 75.1531 106.091 74.3925 105.843 73.0402L107.28 72.8215C107.459 73.5722 108.03 73.955 108.92 73.955C109.895 73.955 110.526 73.4926 110.526 72.901C110.526 72.4237 110.183 72.0956 109.447 71.9316L108.155 71.6482C106.723 71.33 106.067 70.6091 106.067 69.5253C106.067 68.173 107.29 67.2632 109.015 67.2632C110.665 67.2632 111.595 68.0388 111.903 69.227ZM119.817 77.7682C115.705 77.7682 113.423 75.4664 113.418 71.4344C113.423 67.5168 115.765 65.0857 119.747 65.0857C123.545 65.0857 125.594 67.6908 125.594 70.6837C125.594 72.7817 125.191 74.8698 123.068 74.9095C122.218 74.9394 121.353 74.5864 121.234 73.786H121.174C120.94 74.3726 120.205 74.8996 119.071 74.8499C117.396 74.7852 116.352 73.4181 116.352 71.3747C116.352 69.4159 117.585 68.2277 119.021 68.0587C120.06 67.9344 120.925 68.3271 121.075 68.7646H121.139V68.2078H122.362V72.8215C122.362 73.3435 122.646 73.7611 123.158 73.7611C124.062 73.7611 124.341 72.7916 124.336 70.634C124.341 68.1084 122.606 66.2391 119.697 66.2391C116.516 66.2391 114.741 68.2824 114.741 71.4443C114.741 74.7455 116.536 76.5899 119.881 76.5899C120.995 76.5899 122.143 76.227 122.561 76.0779L122.909 77.1666C122.293 77.455 120.965 77.7682 119.817 77.7682ZM119.359 73.6318C120.652 73.6318 121.154 72.8612 121.149 71.3101C121.144 69.7987 120.597 69.2618 119.379 69.2618C118.256 69.2618 117.614 70.1716 117.609 71.3151C117.614 72.5182 118.062 73.6318 119.359 73.6318ZM128.722 70.4649V74.999H127.236V67.3627H128.662V68.6056H128.757C129.11 67.7952 129.861 67.2632 131.009 67.2632C132.57 67.2632 133.609 68.2526 133.609 70.1418V74.999H132.123V70.3208C132.123 69.2121 131.511 68.5509 130.502 68.5509C129.468 68.5509 128.722 69.2469 128.722 70.4649ZM138.894 75.1531C136.642 75.1531 135.26 73.602 135.26 71.2306C135.26 68.884 136.662 67.2632 138.79 67.2632C140.52 67.2632 142.17 68.3421 142.17 71.1013V71.6283H136.741C136.781 73.0999 137.636 73.9252 138.909 73.9252C139.754 73.9252 140.4 73.5573 140.669 72.8364L142.076 73.0899C141.738 74.3328 140.559 75.1531 138.894 75.1531ZM136.746 70.5146H140.714C140.709 69.3463 139.953 68.4912 138.8 68.4912C137.591 68.4912 136.806 69.4308 136.746 70.5146ZM145.461 74.999L143.214 67.3627H144.751L146.247 72.9706H146.322L147.823 67.3627H149.359L150.851 72.9458H150.925L152.412 67.3627H153.948L151.706 74.999H150.189L148.638 69.4855H148.524L146.973 74.999H145.461ZM158.923 67.3627V68.5558H157.357V72.7568C157.357 73.6169 157.79 73.776 158.272 73.776C158.511 73.776 158.695 73.7313 158.794 73.7114L159.062 74.9394C158.888 75.004 158.57 75.0935 158.098 75.0985C156.925 75.1233 155.866 74.4521 155.871 73.0651V68.5558H154.752V67.3627H155.871V65.5331H157.357V67.3627H158.923ZM163.777 75.1531C161.525 75.1531 160.143 73.602 160.143 71.2306C160.143 68.884 161.545 67.2632 163.672 67.2632C165.403 67.2632 167.053 68.3421 167.053 71.1013V71.6283H161.624C161.664 73.0999 162.519 73.9252 163.792 73.9252C164.637 73.9252 165.283 73.5573 165.552 72.8364L166.959 73.0899C166.621 74.3328 165.442 75.1531 163.777 75.1531ZM161.629 70.5146H165.596C165.591 69.3463 164.836 68.4912 163.682 68.4912C162.474 68.4912 161.689 69.4308 161.629 70.5146ZM171.919 75.1531C169.702 75.1531 168.359 73.5175 168.359 71.2156C168.359 68.884 169.751 67.2632 171.904 67.2632C173.639 67.2632 174.897 68.2874 175.056 69.8286H173.609C173.45 69.1127 172.874 68.5161 171.929 68.5161C170.686 68.5161 169.861 69.5452 169.861 71.1808C169.861 72.8463 170.671 73.8953 171.929 73.8953C172.779 73.8953 173.42 73.4081 173.609 72.5828H175.056C174.892 74.0693 173.724 75.1531 171.919 75.1531ZM177.625 75.0935C177.078 75.0935 176.631 74.651 176.631 74.0992C176.631 73.5573 177.078 73.1098 177.625 73.1098C178.167 73.1098 178.619 73.5573 178.619 74.0992C178.619 74.651 178.167 75.0935 177.625 75.0935ZM183.827 75.1531C181.61 75.1531 180.268 73.5175 180.268 71.2156C180.268 68.884 181.66 67.2632 183.812 67.2632C185.547 67.2632 186.805 68.2874 186.964 69.8286H185.518C185.358 69.1127 184.782 68.5161 183.837 68.5161C182.594 68.5161 181.769 69.5452 181.769 71.1808C181.769 72.8463 182.579 73.8953 183.837 73.8953C184.687 73.8953 185.329 73.4081 185.518 72.5828H186.964C186.8 74.0693 185.632 75.1531 183.827 75.1531ZM191.771 75.1531C189.618 75.1531 188.211 73.5771 188.211 71.2156C188.211 68.8392 189.618 67.2632 191.771 67.2632C193.923 67.2632 195.33 68.8392 195.33 71.2156C195.33 73.5771 193.923 75.1531 191.771 75.1531ZM191.776 73.9053C193.173 73.9053 193.829 72.6773 193.829 71.2107C193.829 69.749 193.173 68.5061 191.776 68.5061C190.369 68.5061 189.712 69.749 189.712 71.2107C189.712 72.6773 190.369 73.9053 191.776 73.9053ZM196.99 74.999V67.3627H198.416V68.6056H198.511C198.829 67.7654 199.58 67.2632 200.589 67.2632C201.608 67.2632 202.309 67.7703 202.642 68.6056H202.722C203.09 67.7902 203.915 67.2632 205.014 67.2632C206.396 67.2632 207.37 68.1333 207.37 69.8783V74.999H205.884V70.0175C205.884 68.9834 205.237 68.5459 204.452 68.5459C203.482 68.5459 202.921 69.2121 202.921 70.1318V74.999H201.439V69.923C201.439 69.0928 200.867 68.5459 200.042 68.5459C199.197 68.5459 198.476 69.2618 198.476 70.2909V74.999H196.99Z"
                    fill="#5C5958"
                />
            </g>
        </g>
    </g>
    <defs>
        <filter
            id="filter0_d_38546_61866"
            x="4.00195"
            y="21.999"
            width="274"
            height="84"
            filterUnits="userSpaceOnUse"
            color-interpolation-filters="sRGB"
        >
            <feFlood flood-opacity="0" result="BackgroundImageFix" />
            <feColorMatrix
                in="SourceAlpha"
                type="matrix"
                values="0 0 0 0 0 0 0 0 0 0 0 0 0 0 0 0 0 0 127 0"
                result="hardAlpha"
            />
            <feOffset dy="4" />
            <feGaussianBlur stdDeviation="6" />
            <feComposite in2="hardAlpha" operator="out" />
            <feColorMatrix type="matrix" values="0 0 0 0 0 0 0 0 0 0 0 0 0 0 0 0 0 0 0.1 0" />
            <feBlend mode="normal" in2="BackgroundImageFix" result="effect1_dropShadow_38546_61866" />
            <feBlend mode="normal" in="SourceGraphic" in2="effect1_dropShadow_38546_61866" result="shape" />
        </filter>
        <linearGradient
            id="paint0_linear_38546_61866"
            x1="0.33403"
            y1="120"
            x2="273.473"
            y2="-16.4079"
            gradientUnits="userSpaceOnUse"
        >
            <stop stop-color="#6D4AFF" stop-opacity="0.15" />
            <stop offset="1" stop-color="#461AFF" stop-opacity="0.04" />
        </linearGradient>
        <linearGradient
            id="paint1_linear_38546_61866"
            x1="48.002"
            y1="47.999"
            x2="38.002"
            y2="57.999"
            gradientUnits="userSpaceOnUse"
        >
            <stop stop-color="#3A00E0" />
            <stop offset="1" stop-color="#3DADFF" />
        </linearGradient>
        <linearGradient
            id="paint2_linear_38546_61866"
            x1="62.002"
            y1="61.999"
            x2="52.002"
            y2="71.999"
            gradientUnits="userSpaceOnUse"
        >
            <stop stop-color="#3A00E0" />
            <stop offset="1" stop-color="#3DADFF" />
        </linearGradient>
        <linearGradient
            id="paint3_linear_38546_61866"
            x1="48.002"
            y1="61.999"
            x2="38.002"
            y2="71.999"
            gradientUnits="userSpaceOnUse"
        >
            <stop stop-color="#3A00E0" />
            <stop offset="1" stop-color="#3DADFF" />
        </linearGradient>
        <linearGradient
            id="paint4_linear_38546_61866"
            x1="62.002"
            y1="47.999"
            x2="52.002"
            y2="57.999"
            gradientUnits="userSpaceOnUse"
        >
            <stop stop-color="#DA61FF" />
            <stop offset="1" stop-color="#4D3DFF" />
        </linearGradient>
        <linearGradient
            id="paint5_linear_38546_61866"
            x1="62.002"
            y1="47.999"
            x2="38.002"
            y2="71.999"
            gradientUnits="userSpaceOnUse"
        >
            <stop stop-color="#3DADFF" />
            <stop offset="1" stop-color="#3A00E0" />
        </linearGradient>
        <linearGradient
            id="paint6_linear_38546_61866"
            x1="62.002"
            y1="47.999"
            x2="38.002"
            y2="71.999"
            gradientUnits="userSpaceOnUse"
        >
            <stop stop-color="#3DADFF" />
            <stop offset="1" stop-color="#3A00E0" />
        </linearGradient>
        <linearGradient
            id="paint7_linear_38546_61866"
            x1="62.002"
            y1="47.999"
            x2="38.002"
            y2="71.999"
            gradientUnits="userSpaceOnUse"
        >
            <stop stop-color="#3DADFF" />
            <stop offset="1" stop-color="#3A00E0" />
        </linearGradient>
        <linearGradient
            id="paint8_linear_38546_61866"
            x1="57.002"
            y1="52.999"
            x2="43.002"
            y2="66.999"
            gradientUnits="userSpaceOnUse"
        >
            <stop stop-color="#403DFF" />
            <stop offset="1" stop-color="#6105FF" />
        </linearGradient>
        <clipPath id="clip0_38546_61866">
            <rect x="16.002" y="29.999" width="250" height="60" rx="12" fill="white" />
        </clipPath>
        <clipPath id="clip1_38546_61866">
            <rect width="226" height="60" fill="white" transform="translate(28.002 29.999)" />
        </clipPath>
    </defs>
</svg>
