<svg width="282" height="120" viewBox="0 0 282 120" fill="none" xmlns="http://www.w3.org/2000/svg">
    <g clip-path="url(#clip0_38546_61698)">
        <rect width="281.333" height="120" rx="8" fill="url(#paint0_linear_38546_61698)" />
        <g filter="url(#filter0_d_38546_61698)">
            <g clip-path="url(#clip1_38546_61698)">
                <rect
                    x="32.2773"
                    y="30.1279"
                    width="297.447"
                    height="60.2979"
                    rx="7.65957"
                    fill="url(#paint1_linear_38546_61698)"
                    shape-rendering="crispEdges"
                />
                <rect x="42.4902" y="40.3408" width="17.8723" height="17.8723" rx="5.10638" fill="#E5E4E1" />
                <path
                    d="M51.3471 47.9476H50.6725C50.5093 47.1751 49.8456 46.7616 49.1058 46.7616C48.0939 46.7616 47.2997 47.545 47.2997 48.992C47.2997 50.4391 48.0939 51.2225 49.1058 51.2225C49.8456 51.2225 50.5093 50.809 50.6725 50.0365H51.3471C51.1403 51.1789 50.2264 51.8535 49.1058 51.8535C47.6805 51.8535 46.6469 50.7546 46.6469 48.992C46.6469 47.2295 47.6805 46.1306 49.1058 46.1306C50.2264 46.1306 51.1403 46.8051 51.3471 47.9476ZM52.4371 51.7773V46.2067H54.3194C55.625 46.2067 56.2125 46.9303 56.2125 47.9149C56.2125 48.6548 55.8807 49.2341 55.1707 49.4762L56.4301 51.7773H55.6467L54.4717 49.5986C54.4254 49.6013 54.3792 49.6013 54.3302 49.6013H53.1117V51.7773H52.4371ZM53.1117 48.992H54.3085C55.2007 48.992 55.5488 48.584 55.5488 47.9149C55.5488 47.2458 55.2007 46.8051 54.2976 46.8051H53.1117V48.992Z"
                    fill="#0C0C14"
                />
                <path
                    fill-rule="evenodd"
                    clip-rule="evenodd"
                    d="M72.9278 43.0377C72.8118 42.9868 72.6767 43.0092 72.5835 43.0949L68.7627 46.6055C68.697 46.666 68.6595 46.7512 68.6595 46.8405C68.6595 46.9299 68.697 47.0151 68.7627 47.0755L72.5835 50.5862C72.6767 50.6719 72.8118 50.6943 72.9278 50.6434C73.0437 50.5925 73.1186 50.4778 73.1186 50.3512L73.1186 48.4236C73.8037 48.4305 75.5849 48.6439 76.9913 50.5287C77.0574 50.6173 77.1664 50.6693 77.2822 50.6589C77.3428 50.6535 77.4143 50.6295 77.475 50.5727C77.5383 50.5135 77.5696 50.4373 77.5762 50.3658C77.5864 50.2553 77.6335 49.6581 77.5295 48.9265C77.4263 48.2006 77.1684 47.2996 76.5348 46.6225C75.9637 46.0121 75.1795 45.6781 74.4993 45.4925C73.9409 45.34 73.4302 45.2816 73.1186 45.259L73.1186 43.3299C73.1186 43.2033 73.0437 43.0886 72.9278 43.0377ZM72.4803 44.0566L72.4803 45.4363C72.4803 45.6798 72.6728 45.876 72.9119 45.8863C73.1477 45.8965 73.7091 45.9384 74.3312 46.1082C74.9577 46.2792 75.6125 46.571 76.0687 47.0586C76.573 47.5975 76.8024 48.347 76.8976 49.0163C76.9215 49.1843 76.9365 49.3444 76.9455 49.4914C75.2976 47.7944 73.4008 47.7638 72.8953 47.7898C72.6503 47.8023 72.4803 48.0068 72.4803 48.2299L72.4803 49.6245L69.4504 46.8405L72.4803 44.0566Z"
                    fill="#0C0C14"
                />
                <path
                    d="M86.991 46.0346H85.8042C85.6677 45.2571 85.0489 44.8097 84.2588 44.8097C83.1957 44.8097 82.4468 45.6252 82.4468 47.0913C82.4468 48.5828 83.202 49.3729 84.2556 49.3729C85.0331 49.3729 85.655 48.9445 85.8042 48.1829L86.991 48.1893C86.8101 49.4301 85.7851 50.4297 84.2397 50.4297C82.5261 50.4297 81.2631 49.1889 81.2631 47.0913C81.2631 44.9905 82.542 43.7529 84.2397 43.7529C85.6804 43.7529 86.7911 44.5907 86.991 46.0346ZM89.1671 43.8418V50.3408H88.0184V43.8418H89.1671ZM91.7511 50.4392C90.8213 50.4392 90.1199 49.9315 90.1199 48.9731C90.1199 47.8751 91.0244 47.5927 91.97 47.4911C92.83 47.3991 93.1759 47.3833 93.1759 47.0532V47.0342C93.1759 46.555 92.8839 46.2821 92.3508 46.2821C91.7891 46.2821 91.4655 46.5677 91.3512 46.9009L90.2786 46.7486C90.5325 45.86 91.3195 45.4031 92.3445 45.4031C93.2743 45.4031 94.3246 45.7902 94.3246 47.0786V50.3408H93.2203V49.6712H93.1822C92.9728 50.0806 92.5158 50.4392 91.7511 50.4392ZM92.0493 49.5951C92.7411 49.5951 93.1791 49.1349 93.1791 48.5923V48.0179C93.0299 48.1385 92.427 48.2147 92.1255 48.2559C91.6114 48.3289 91.2275 48.513 91.2275 48.9541C91.2275 49.3761 91.5702 49.5951 92.0493 49.5951ZM95.4797 50.3408V45.4665H96.5936V46.2789H96.6444C96.8221 45.7141 97.2886 45.3967 97.8471 45.3967C97.974 45.3967 98.1549 45.4094 98.2596 45.4285V46.4852C98.1612 46.4535 97.9201 46.4186 97.7265 46.4186C97.095 46.4186 96.6285 46.8565 96.6285 47.4753V50.3408H95.4797ZM100.329 50.4392C99.3996 50.4392 98.6983 49.9315 98.6983 48.9731C98.6983 47.8751 99.6027 47.5927 100.548 47.4911C101.408 47.3991 101.754 47.3833 101.754 47.0532V47.0342C101.754 46.555 101.462 46.2821 100.929 46.2821C100.368 46.2821 100.044 46.5677 99.9296 46.9009L98.857 46.7486C99.1109 45.86 99.8979 45.4031 100.923 45.4031C101.853 45.4031 102.903 45.7902 102.903 47.0786V50.3408H101.799V49.6712H101.761C101.551 50.0806 101.094 50.4392 100.329 50.4392ZM100.628 49.5951C101.32 49.5951 101.757 49.1349 101.757 48.5923V48.0179C101.608 48.1385 101.005 48.2147 100.704 48.2559C100.19 48.3289 99.8058 48.513 99.8058 48.9541C99.8058 49.3761 100.149 49.5951 100.628 49.5951ZM106.325 50.3408V43.8418H108.763C110.254 43.8418 111.054 44.6796 111.054 45.9203C111.054 46.8025 110.651 47.4562 109.886 47.7641L111.292 50.3408H109.978L108.702 47.9608H107.503V50.3408H106.325ZM107.503 46.9834H108.588C109.461 46.9834 109.854 46.6121 109.854 45.9203C109.854 45.2285 109.461 44.8255 108.582 44.8255H107.503V46.9834ZM114.143 50.436C112.715 50.436 111.807 49.4301 111.807 47.9227C111.807 46.4122 112.715 45.4031 114.143 45.4031C115.571 45.4031 116.479 46.4122 116.479 47.9227C116.479 49.4301 115.571 50.436 114.143 50.436ZM114.149 49.5157C114.927 49.5157 115.314 48.8113 115.314 47.9195C115.314 47.0278 114.927 46.3138 114.149 46.3138C113.359 46.3138 112.972 47.0278 112.972 47.9195C112.972 48.8113 113.359 49.5157 114.149 49.5157ZM119.262 50.4265C118.114 50.4265 117.254 49.5157 117.254 47.91C117.254 46.2853 118.139 45.4031 119.266 45.4031C120.126 45.4031 120.484 45.9203 120.659 46.2726H120.706V43.8418H121.858V50.3408H120.729V49.5729H120.659C120.478 49.9283 120.1 50.4265 119.262 50.4265ZM119.583 49.484C120.316 49.484 120.729 48.8493 120.729 47.9037C120.729 46.958 120.322 46.3456 119.583 46.3456C118.818 46.3456 118.425 46.9961 118.425 47.9037C118.425 48.8176 118.825 49.484 119.583 49.484ZM123.082 50.3408V45.4665H124.196V46.2789H124.247C124.425 45.7141 124.891 45.3967 125.45 45.3967C125.577 45.3967 125.758 45.4094 125.862 45.4285V46.4852C125.764 46.4535 125.523 46.4186 125.329 46.4186C124.698 46.4186 124.231 46.8565 124.231 47.4753V50.3408H123.082ZM126.625 50.3408V45.4665H127.774V50.3408H126.625ZM127.203 44.7748C126.835 44.7748 126.537 44.4955 126.537 44.1528C126.537 43.8069 126.835 43.5276 127.203 43.5276C127.568 43.5276 127.866 43.8069 127.866 44.1528C127.866 44.4955 127.568 44.7748 127.203 44.7748ZM131.075 52.2702C129.834 52.2702 129.133 51.7212 128.924 51.039L129.958 50.7883C130.098 51.0739 130.403 51.4007 131.094 51.4007C131.748 51.4007 132.224 51.1056 132.224 50.3884V49.465H132.167C131.989 49.8236 131.599 50.271 130.764 50.271C129.641 50.271 128.756 49.4777 128.756 47.8878C128.756 46.2853 129.641 45.4031 130.767 45.4031C131.627 45.4031 131.992 45.9203 132.167 46.2726H132.23V45.4665H133.363V50.4202C133.363 51.6673 132.392 52.2702 131.075 52.2702ZM131.085 49.3698C131.818 49.3698 132.23 48.8113 132.23 47.8815C132.23 46.958 131.824 46.3456 131.085 46.3456C130.32 46.3456 129.927 46.9961 129.927 47.8815C129.927 48.7795 130.326 49.3698 131.085 49.3698ZM137.647 48.2908V45.4665H138.796V50.3408H137.682V49.4745H137.631C137.409 50.0203 136.895 50.4043 136.165 50.4043C135.207 50.4043 134.541 49.7411 134.541 48.5701V45.4665H135.689V48.3924C135.689 49.0112 136.057 49.4015 136.61 49.4015C137.117 49.4015 137.647 49.0334 137.647 48.2908ZM142.135 50.436C140.666 50.436 139.768 49.4618 139.768 47.9322C139.768 46.4281 140.679 45.4031 142.075 45.4031C143.274 45.4031 144.303 46.1552 144.303 47.8656V48.2178H140.907C140.917 49.0524 141.409 49.5411 142.151 49.5411C142.646 49.5411 143.027 49.3253 143.182 48.9128L144.255 49.0334C144.052 49.8807 143.271 50.436 142.135 50.436ZM140.91 47.4435H143.201C143.195 46.7803 142.751 46.298 142.091 46.298C141.405 46.298 140.945 46.8216 140.91 47.4435ZM145.211 50.3408V49.6109L147.724 46.4598V46.4186H145.293V45.4665H149.13V46.2504L146.737 49.3476V49.3888H149.213V50.3408H145.211Z"
                    fill="#0C0C14"
                />
                <path
                    d="M74.4697 60.0913C74.4697 62.1921 73.1877 63.4297 71.4836 63.4297C69.7764 63.4297 68.4975 62.1889 68.4975 60.0913C68.4975 57.9905 69.7764 56.7529 71.4836 56.7529C73.1877 56.7529 74.4697 57.9905 74.4697 60.0913ZM73.2861 60.0913C73.2861 58.6125 72.5435 57.8097 71.4836 57.8097C70.4269 57.8097 69.6811 58.6125 69.6811 60.0913C69.6811 61.5701 70.4269 62.3729 71.4836 62.3729C72.5435 62.3729 73.2861 61.5701 73.2861 60.0913ZM78.6387 61.2908V58.4665H79.7875V63.3408H78.6736V62.4745H78.6229C78.4007 63.0203 77.8867 63.4043 77.1568 63.4043C76.1984 63.4043 75.532 62.7411 75.532 61.5701V58.4665H76.6808V61.3924C76.6808 62.0112 77.0489 62.4015 77.6011 62.4015C78.1088 62.4015 78.6387 62.0334 78.6387 61.2908ZM80.9688 63.3408V58.4665H82.0826V59.2789H82.1334C82.3111 58.7141 82.7776 58.3967 83.3361 58.3967C83.463 58.3967 83.6439 58.4094 83.7486 58.4285V59.4852C83.6503 59.4535 83.4091 59.4186 83.2155 59.4186C82.584 59.4186 82.1175 59.8565 82.1175 60.4753V63.3408H80.9688ZM86.7284 63.3408V58.4665H87.8264V59.2948H87.8835C88.0866 58.7395 88.5753 58.4031 89.229 58.4031C89.8859 58.4031 90.3587 58.7426 90.546 59.2948H90.5967C90.8125 58.7521 91.352 58.4031 92.0597 58.4031C92.9545 58.4031 93.5829 58.9806 93.5829 60.0691V63.3408H92.4309V60.2468C92.4309 59.6439 92.0628 59.371 91.5995 59.371C91.0442 59.371 90.7173 59.7518 90.7173 60.3007V63.3408H89.5908V60.1992C89.5908 59.6978 89.2576 59.371 88.7721 59.371C88.277 59.371 87.8772 59.7771 87.8772 60.3769V63.3408H86.7284ZM96.9062 63.436C95.4369 63.436 94.5388 62.4618 94.5388 60.9322C94.5388 59.4281 95.4496 58.4031 96.8459 58.4031C98.0454 58.4031 99.0736 59.1552 99.0736 60.8656V61.2178H95.6781C95.6876 62.0524 96.1795 62.5411 96.922 62.5411C97.4171 62.5411 97.7979 62.3253 97.9534 61.9128L99.026 62.0334C98.8229 62.8807 98.0422 63.436 96.9062 63.436ZM95.6812 60.4435H97.9724C97.9661 59.7803 97.5218 59.298 96.8617 59.298C96.1763 59.298 95.7162 59.8216 95.6812 60.4435ZM102.203 63.436C100.734 63.436 99.836 62.4618 99.836 60.9322C99.836 59.4281 100.747 58.4031 102.143 58.4031C103.343 58.4031 104.371 59.1552 104.371 60.8656V61.2178H100.975C100.985 62.0524 101.477 62.5411 102.219 62.5411C102.714 62.5411 103.095 62.3253 103.25 61.9128L104.323 62.0334C104.12 62.8807 103.339 63.436 102.203 63.436ZM100.978 60.4435H103.27C103.263 59.7803 102.819 59.298 102.159 59.298C101.473 59.298 101.013 59.8216 100.978 60.4435ZM107.776 58.4665V59.3551H106.815V61.8747C106.815 62.338 107.047 62.4396 107.335 62.4396C107.478 62.4396 107.608 62.411 107.672 62.3952L107.865 63.2932C107.742 63.3345 107.516 63.3979 107.189 63.4075C106.326 63.4328 105.66 62.9822 105.666 62.0651V59.3551H104.974V58.4665H105.666V57.2988H106.815V58.4665H107.776ZM108.737 63.3408V58.4665H109.886V63.3408H108.737ZM109.315 57.7748C108.947 57.7748 108.648 57.4955 108.648 57.1528C108.648 56.8069 108.947 56.5276 109.315 56.5276C109.68 56.5276 109.978 56.8069 109.978 57.1528C109.978 57.4955 109.68 57.7748 109.315 57.7748ZM112.216 60.4848V63.3408H111.067V58.4665H112.165V59.2948H112.222C112.444 58.7521 112.946 58.4031 113.676 58.4031C114.682 58.4031 115.348 59.0695 115.345 60.2373V63.3408H114.196V60.415C114.196 59.7644 113.841 59.3741 113.247 59.3741C112.641 59.3741 112.216 59.7803 112.216 60.4848ZM118.633 65.2702C117.392 65.2702 116.69 64.7212 116.481 64.039L117.516 63.7883C117.655 64.0739 117.96 64.4007 118.652 64.4007C119.305 64.4007 119.781 64.1056 119.781 63.3884V62.465H119.724C119.546 62.8236 119.156 63.271 118.322 63.271C117.198 63.271 116.313 62.4777 116.313 60.8878C116.313 59.2853 117.198 58.4031 118.325 58.4031C119.185 58.4031 119.55 58.9203 119.724 59.2726H119.788V58.4665H120.921V63.4202C120.921 64.6673 119.949 65.2702 118.633 65.2702ZM118.642 62.3698C119.375 62.3698 119.788 61.8113 119.788 60.8815C119.788 59.958 119.381 59.3456 118.642 59.3456C117.877 59.3456 117.484 59.9961 117.484 60.8815C117.484 61.7795 117.884 62.3698 118.642 62.3698Z"
                    fill="#0C0C14"
                />
                <rect x="68.0215" y="68.6602" width="41.6596" height="11.5532" rx="2.55319" fill="#F78400" />
                <path
                    d="M73.2803 71.8301V76.9365H72.3552V71.8301H73.2803ZM74.2421 76.9365V73.1067H75.1048V73.7575H75.1496C75.3092 73.3212 75.6932 73.0569 76.2068 73.0569C76.7229 73.0569 77.0945 73.3237 77.2416 73.7575H77.2815C77.451 73.3311 77.8749 73.0569 78.4309 73.0569C79.134 73.0569 79.6277 73.5107 79.6277 74.3659V76.9365H78.7226V74.5055C78.7226 74.0318 78.4334 73.8173 78.0694 73.8173C77.633 73.8173 77.3762 74.1165 77.3762 74.5479V76.9365H76.4911V74.4681C76.4911 74.0742 76.2293 73.8173 75.8478 73.8173C75.4588 73.8173 75.1447 74.1365 75.1447 74.6077V76.9365H74.2421ZM80.5434 78.3727V73.1067H81.431V73.74H81.4834C81.6205 73.4633 81.9023 73.0569 82.578 73.0569C83.4631 73.0569 84.1587 73.75 84.1587 75.0266C84.1587 76.2883 83.483 77.0038 82.5805 77.0038C81.9222 77.0038 81.6255 76.6124 81.4834 76.3331H81.446V78.3727H80.5434ZM81.4285 75.0216C81.4285 75.7646 81.7527 76.2633 82.3286 76.2633C82.9245 76.2633 83.2387 75.7397 83.2387 75.0216C83.2387 74.3085 82.9295 73.7974 82.3286 73.7974C81.7477 73.7974 81.4285 74.2786 81.4285 75.0216ZM86.6022 77.0113C85.4802 77.0113 84.7671 76.2209 84.7671 75.0366C84.7671 73.8498 85.4802 73.0569 86.6022 73.0569C87.7242 73.0569 88.4373 73.8498 88.4373 75.0366C88.4373 76.2209 87.7242 77.0113 86.6022 77.0113ZM86.6072 76.2883C87.2181 76.2883 87.5223 75.7347 87.5223 75.0341C87.5223 74.3335 87.2181 73.7725 86.6072 73.7725C85.9864 73.7725 85.6822 74.3335 85.6822 75.0341C85.6822 75.7347 85.9864 76.2883 86.6072 76.2883ZM89.2034 76.9365V73.1067H90.0786V73.745H90.1185C90.2581 73.3012 90.6246 73.0519 91.0635 73.0519C91.1632 73.0519 91.3053 73.0619 91.3876 73.0768V73.9071C91.3103 73.8822 91.1208 73.8547 90.9687 73.8547C90.4725 73.8547 90.106 74.1988 90.106 74.685V76.9365H89.2034ZM94.1053 73.1067V73.8049H93.3499V75.7846C93.3499 76.1486 93.5319 76.2284 93.7588 76.2284C93.871 76.2284 93.9732 76.206 94.0231 76.1935L94.1752 76.8991C94.0779 76.9315 93.9009 76.9814 93.6441 76.9889C92.9659 77.0088 92.4423 76.6548 92.4473 75.9342V73.8049H91.9037V73.1067H92.4473V72.1892H93.3499V73.1067H94.1053ZM95.9623 77.0138C95.2317 77.0138 94.6807 76.6149 94.6807 75.8619C94.6807 74.9992 95.3913 74.7773 96.1343 74.6975C96.81 74.6252 97.0818 74.6127 97.0818 74.3534V74.3385C97.0818 73.962 96.8524 73.7475 96.4335 73.7475C95.9922 73.7475 95.7379 73.9719 95.6481 74.2337L94.8054 74.114C95.0048 73.4159 95.6232 73.0569 96.4285 73.0569C97.1591 73.0569 97.9844 73.3611 97.9844 74.3734V76.9365H97.1167V76.4104H97.0868C96.9222 76.7321 96.5632 77.0138 95.9623 77.0138ZM96.1966 76.3506C96.7402 76.3506 97.0843 75.9891 97.0843 75.5627V75.1114C96.9671 75.2061 96.4934 75.266 96.2565 75.2984C95.8526 75.3557 95.5509 75.5004 95.5509 75.8469C95.5509 76.1785 95.8201 76.3506 96.1966 76.3506ZM99.7945 74.6925V76.9365H98.892V73.1067H99.7547V73.7575H99.7995C99.9741 73.3311 100.368 73.0569 100.941 73.0569C101.732 73.0569 102.255 73.5805 102.253 74.498V76.9365H101.35V74.6377C101.35 74.1265 101.071 73.8198 100.605 73.8198C100.129 73.8198 99.7945 74.139 99.7945 74.6925ZM105.083 73.1067V73.8049H104.327V75.7846C104.327 76.1486 104.509 76.2284 104.736 76.2284C104.849 76.2284 104.951 76.206 105.001 76.1935L105.153 76.8991C105.056 76.9315 104.878 76.9814 104.622 76.9889C103.943 77.0088 103.42 76.6548 103.425 75.9342V73.8049H102.881V73.1067H103.425V72.1892H104.327V73.1067H105.083Z"
                    fill="white"
                />
                <rect x="112.234" y="68.6602" width="25.6596" height="11.5532" rx="2.55319" fill="#1DA583" />
                <path
                    d="M117.643 76.9365L116.202 71.8301H117.196L118.116 75.5826H118.164L119.146 71.8301H120.051L121.036 75.5851H121.081L122.001 71.8301H122.996L121.555 76.9365H120.642L119.62 73.3536H119.58L118.555 76.9365H117.643ZM124.877 77.0113C123.755 77.0113 123.042 76.2209 123.042 75.0366C123.042 73.8498 123.755 73.0569 124.877 73.0569C125.999 73.0569 126.712 73.8498 126.712 75.0366C126.712 76.2209 125.999 77.0113 124.877 77.0113ZM124.882 76.2883C125.493 76.2883 125.797 75.7347 125.797 75.0341C125.797 74.3335 125.493 73.7725 124.882 73.7725C124.261 73.7725 123.957 74.3335 123.957 75.0341C123.957 75.7347 124.261 76.2883 124.882 76.2883ZM127.478 76.9365V73.1067H128.354V73.745H128.393C128.533 73.3012 128.9 73.0519 129.338 73.0519C129.438 73.0519 129.58 73.0619 129.663 73.0768V73.9071C129.585 73.8822 129.396 73.8547 129.244 73.8547C128.748 73.8547 128.381 74.1988 128.381 74.685V76.9365H127.478ZM130.262 76.9365V71.8301H131.165V74.6451H131.227L132.603 73.1067H133.658L132.175 74.7598L133.745 76.9365H132.666L131.494 75.2984L131.165 75.65V76.9365H130.262Z"
                    fill="white"
                />
            </g>
        </g>
        <rect x="186" y="1" width="1" height="118" fill="#6D4AFF" fill-opacity="0.5" />
        <rect x="187" y="1" width="94" height="118" fill="url(#paint2_linear_38546_61698)" fill-opacity="0.2" />
        <path
            fill-rule="evenodd"
            clip-rule="evenodd"
            d="M228.4 54H228C228 50.6863 230.686 48 234 48C237.314 48 240 50.6863 240 54H239.6H228.4ZM226 54.0384V54C226 49.5817 229.582 46 234 46C238.418 46 242 49.5817 242 54V54.0384C242.784 54.0863 243.341 54.1939 243.816 54.436C244.569 54.8195 245.181 55.4314 245.564 56.184C246 57.0397 246 58.1598 246 60.4V67.6C246 69.8402 246 70.9603 245.564 71.816C245.181 72.5686 244.569 73.1805 243.816 73.564C242.96 74 241.84 74 239.6 74H228.4C226.16 74 225.04 74 224.184 73.564C223.431 73.1805 222.819 72.5686 222.436 71.816C222 70.9603 222 69.8402 222 67.6V60.4C222 58.1598 222 57.0397 222.436 56.184C222.819 55.4314 223.431 54.8195 224.184 54.436C224.659 54.1939 225.216 54.0863 226 54.0384ZM234.941 63.7651C235.571 63.4284 236 62.7643 236 62C236 60.8954 235.105 60 234 60C232.895 60 232 60.8954 232 62C232 62.7643 232.429 63.4284 233.059 63.7651L232.186 67.2545C232.092 67.6332 232.378 68 232.768 68H235.232C235.622 68 235.908 67.6332 235.814 67.2545L234.941 63.7651Z"
            fill="#6D4AFF"
        />
    </g>
    <rect x="0.5" y="0.5" width="280.333" height="119" rx="7.5" stroke="#6D4AFF" stroke-opacity="0.08" />
    <defs>
        <filter
            id="filter0_d_38546_61698"
            x="20.2773"
            y="22.1279"
            width="321.447"
            height="84.2979"
            filterUnits="userSpaceOnUse"
            color-interpolation-filters="sRGB"
        >
            <feFlood flood-opacity="0" result="BackgroundImageFix" />
            <feColorMatrix
                in="SourceAlpha"
                type="matrix"
                values="0 0 0 0 0 0 0 0 0 0 0 0 0 0 0 0 0 0 127 0"
                result="hardAlpha"
            />
            <feOffset dy="4" />
            <feGaussianBlur stdDeviation="6" />
            <feComposite in2="hardAlpha" operator="out" />
            <feColorMatrix type="matrix" values="0 0 0 0 0 0 0 0 0 0 0 0 0 0 0 0 0 0 0.1 0" />
            <feBlend mode="normal" in2="BackgroundImageFix" result="effect1_dropShadow_38546_61698" />
            <feBlend mode="normal" in="SourceGraphic" in2="effect1_dropShadow_38546_61698" result="shape" />
        </filter>
        <linearGradient
            id="paint0_linear_38546_61698"
            x1="4.61141e-05"
            y1="120"
            x2="273.139"
            y2="-16.4079"
            gradientUnits="userSpaceOnUse"
        >
            <stop stop-color="#6D4AFF" stop-opacity="0.15" />
            <stop offset="1" stop-color="#461AFF" stop-opacity="0.04" />
        </linearGradient>
        <linearGradient
            id="paint1_linear_38546_61698"
            x1="32.2773"
            y1="60.2769"
            x2="329.724"
            y2="60.2769"
            gradientUnits="userSpaceOnUse"
        >
            <stop stop-color="white" />
            <stop offset="0.365" stop-color="white" />
            <stop offset="0.67" stop-color="white" stop-opacity="0" />
        </linearGradient>
        <linearGradient id="paint2_linear_38546_61698" x1="187" y1="60" x2="281" y2="60" gradientUnits="userSpaceOnUse">
            <stop stop-color="#3100FF" />
            <stop offset="1" stop-color="#6D4AFF" stop-opacity="0.2" />
        </linearGradient>
        <clipPath id="clip0_38546_61698">
            <rect width="281.333" height="120" rx="8" fill="white" />
        </clipPath>
        <clipPath id="clip1_38546_61698">
            <rect x="32.2773" y="30.1279" width="297.447" height="60.2979" rx="7.65957" fill="white" />
        </clipPath>
    </defs>
</svg>
