<svg width="128" height="128" viewBox="0 0 128 128" fill="none" xmlns="http://www.w3.org/2000/svg">
    <path
        d="M26.6667 33.3334H90.6667V110.667H33.3334C29.6515 110.667 26.6667 107.682 26.6667 104V33.3334Z"
        fill="url(#paint0_linear_1132_1369)"
    />
    <path
        d="M101.333 104C101.333 107.682 98.349 110.667 94.6672 110.667H33.3333C29.7665 110.667 26.8544 107.866 26.676 104.343L26.6741 104.275C26.8169 107.093 29.1468 109.333 32.0002 109.333C34.9458 109.333 37.3333 106.946 37.3333 104V97.3334H101.333V104Z"
        fill="url(#paint1_linear_1132_1369)"
    />
    <path
        d="M16 26.6667C16 22.9848 18.9848 20 22.6667 20H84C87.6819 20 90.6667 22.9848 90.6667 26.6667V33.3333H16V26.6667Z"
        fill="url(#paint2_linear_1132_1369)"
    />
    <path
        d="M26.6667 33.3334L16.0001 33.3334L16.0001 26.6667C16.0001 23.7212 18.3879 21.3334 21.3334 21.3334C24.2789 21.3334 26.6667 23.7212 26.6667 26.6667L26.6667 33.3334Z"
        fill="url(#paint3_linear_1132_1369)"
    />
    <rect x="90" y="34" width="17.3333" height="18.6667" rx="8.66667" stroke="#30B49E" stroke-width="4" />
    <path
        d="M84 48C84 45.7909 85.7909 44 88 44H109.333C111.542 44 113.333 45.7909 113.333 48V65.3333C113.333 67.5425 111.542 69.3333 109.333 69.3333H88C85.7909 69.3333 84 67.5425 84 65.3333V48Z"
        fill="url(#paint4_linear_1132_1369)"
    />
    <path
        d="M98.667 52.334C99.9555 52.334 101 53.3785 101 54.667C101 55.4934 100.569 56.2174 99.9209 56.6318L100.799 60.7246C100.903 61.2087 100.533 61.666 100.038 61.666H97.2959C96.8008 61.666 96.4314 61.2087 96.5352 60.7246L97.4111 56.6318C96.7638 56.2172 96.334 55.4928 96.334 54.667C96.334 53.3785 97.3785 52.334 98.667 52.334Z"
        fill="#299986"
    />
    <g filter="url(#filter0_d_1132_1369)">
        <path
            d="M67.3328 81.3334C68.4372 81.3334 69.3326 82.229 69.3328 83.3334C69.3328 84.4379 68.4373 85.3334 67.3328 85.3334H40.6667C39.5622 85.3334 38.6667 84.4379 38.6667 83.3334C38.6669 82.229 39.5623 81.3334 40.6667 81.3334H67.3328ZM73.9998 73.3334C75.1042 73.3334 75.9996 74.229 75.9998 75.3334C75.9998 76.4379 75.1043 77.3334 73.9998 77.3334H40.6667C39.5622 77.3334 38.6667 76.4379 38.6667 75.3334C38.6669 74.229 39.5623 73.3334 40.6667 73.3334H73.9998ZM67.3328 65.3334C68.4372 65.3334 69.3326 66.229 69.3328 67.3334C69.3328 68.4379 68.4373 69.3334 67.3328 69.3334H40.6667C39.5622 69.3334 38.6667 68.4379 38.6667 67.3334C38.6669 66.229 39.5623 65.3334 40.6667 65.3334H67.3328ZM73.9998 57.3334C75.1042 57.3334 75.9996 58.229 75.9998 59.3334C75.9998 60.4379 75.1043 61.3334 73.9998 61.3334H40.6667C39.5622 61.3334 38.6667 60.4379 38.6667 59.3334C38.6669 58.229 39.5623 57.3334 40.6667 57.3334H73.9998Z"
            fill="url(#paint5_linear_1132_1369)"
        />
    </g>
    <g clip-path="url(#clip0_1132_1369)">
        <path
            d="M46.3128 48.465C46.9631 49.6558 48.6331 49.7203 49.3714 48.5831L56.2558 37.9796C56.9859 36.8552 56.2873 35.3476 54.9653 35.1943L41.4339 33.6261C39.9913 33.4589 38.9641 35.0084 39.6658 36.2933L46.3128 48.465Z"
            fill="url(#paint6_radial_1132_1369)"
        />
        <path
            d="M47.3115 46.4263L46.7005 47.3545C46.4529 47.7306 45.899 47.7074 45.683 47.3119L46.3128 48.4652C46.4251 48.6708 46.5678 48.8428 46.7309 48.9809C47.5121 49.6423 48.7606 49.5239 49.3714 48.5831L56.2558 37.9796C56.9859 36.8552 56.2873 35.3476 54.9653 35.1944L41.4339 33.6261C39.9913 33.4589 38.9641 35.0084 39.6658 36.2933L39.7192 36.3911L51.2367 37.738C51.9709 37.8238 52.3581 38.6613 51.9524 39.2856L47.3115 46.4263Z"
            fill="url(#paint7_linear_1132_1369)"
        />
    </g>
    <defs>
        <filter
            id="filter0_d_1132_1369"
            x="30.6667"
            y="51.3334"
            width="53.333"
            height="44"
            filterUnits="userSpaceOnUse"
            color-interpolation-filters="sRGB"
        >
            <feFlood flood-opacity="0" result="BackgroundImageFix" />
            <feColorMatrix
                in="SourceAlpha"
                type="matrix"
                values="0 0 0 0 0 0 0 0 0 0 0 0 0 0 0 0 0 0 127 0"
                result="hardAlpha"
            />
            <feOffset dy="2" />
            <feGaussianBlur stdDeviation="4" />
            <feComposite in2="hardAlpha" operator="out" />
            <feColorMatrix type="matrix" values="0 0 0 0 0.431373 0 0 0 0 0.486275 0 0 0 0 0.580392 0 0 0 0.1 0" />
            <feBlend mode="normal" in2="BackgroundImageFix" result="effect1_dropShadow_1132_1369" />
            <feBlend mode="normal" in="SourceGraphic" in2="effect1_dropShadow_1132_1369" result="shape" />
        </filter>
        <linearGradient
            id="paint0_linear_1132_1369"
            x1="58.6667"
            y1="33.3334"
            x2="58.6667"
            y2="110.667"
            gradientUnits="userSpaceOnUse"
        >
            <stop offset="0.725" stop-color="#D5DADE" />
            <stop offset="1" stop-color="#BCC1C4" />
        </linearGradient>
        <linearGradient
            id="paint1_linear_1132_1369"
            x1="70.0031"
            y1="97.3334"
            x2="70.0031"
            y2="110.667"
            gradientUnits="userSpaceOnUse"
        >
            <stop stop-color="#EDF3F7" />
            <stop offset="1" stop-color="#BCC1C4" />
        </linearGradient>
        <linearGradient
            id="paint2_linear_1132_1369"
            x1="53.3333"
            y1="20"
            x2="53.3333"
            y2="33.3333"
            gradientUnits="userSpaceOnUse"
        >
            <stop stop-color="#EDF3F7" />
            <stop offset="1" stop-color="#D5DADE" />
        </linearGradient>
        <linearGradient
            id="paint3_linear_1132_1369"
            x1="21.3334"
            y1="33.3334"
            x2="21.3334"
            y2="21.3334"
            gradientUnits="userSpaceOnUse"
        >
            <stop stop-color="#D5DADE" />
            <stop offset="1" stop-color="#BCC1C4" />
        </linearGradient>
        <linearGradient
            id="paint4_linear_1132_1369"
            x1="113.333"
            y1="44"
            x2="94.9757"
            y2="75.6912"
            gradientUnits="userSpaceOnUse"
        >
            <stop stop-color="#B6FFCE" />
            <stop offset="1" stop-color="#30B49E" />
        </linearGradient>
        <linearGradient
            id="paint5_linear_1132_1369"
            x1="59.3332"
            y1="44.8469"
            x2="52.4779"
            y2="102.122"
            gradientUnits="userSpaceOnUse"
        >
            <stop stop-color="white" />
            <stop offset="1" stop-color="#D5DADE" />
        </linearGradient>
        <radialGradient
            id="paint6_radial_1132_1369"
            cx="0"
            cy="0"
            r="1"
            gradientTransform="matrix(-1.38476 20.4986 -27.2072 -1.73512 47.9078 30.6581)"
            gradientUnits="userSpaceOnUse"
        >
            <stop offset="0.403126" stop-color="#6D4AFF" />
            <stop offset="0.9944" stop-color="#00F0C3" />
        </radialGradient>
        <linearGradient
            id="paint7_linear_1132_1369"
            x1="53.0071"
            y1="48.631"
            x2="44.0138"
            y2="32.3785"
            gradientUnits="userSpaceOnUse"
        >
            <stop offset="0.0660125" stop-color="#8EFFEE" />
            <stop offset="0.4499" stop-color="#C9C7FF" />
            <stop offset="1" stop-color="#7341FF" />
        </linearGradient>
        <clipPath id="clip0_1132_1369">
            <rect width="17.1111" height="16.3333" fill="white" transform="translate(39.4438 33.0365)" />
        </clipPath>
    </defs>
</svg>
