<?xml version="1.0" standalone="no"?>
<!DOCTYPE svg PUBLIC "-//W3C//DTD SVG 20010904//EN"
 "http://www.w3.org/TR/2001/REC-SVG-20010904/DTD/svg10.dtd">
<svg version="1.0" xmlns="http://www.w3.org/2000/svg"
 width="700.000000pt" height="700.000000pt" viewBox="0 0 700.000000 700.000000"
 preserveAspectRatio="xMidYMid meet">
<metadata>
Created by potrace 1.11, written by Peter Selinger 2001-2013
</metadata>
<g transform="translate(0.000000,700.000000) scale(0.100000,-0.100000)"
fill="#000000" stroke="none">
<path d="M3215 6989 c-745 -64 -1437 -353 -1995 -835 -551 -475 -938 -1101
-1114 -1799 -73 -291 -101 -529 -101 -860 1 -404 50 -722 171 -1090 254 -772
784 -1445 1476 -1876 447 -278 924 -443 1483 -511 130 -16 600 -16 730 0 451
55 818 163 1195 351 729 364 1312 973 1639 1714 144 325 238 674 283 1052 16
139 16 595 0 730 -61 497 -198 932 -418 1327 -538 964 -1489 1620 -2569 1772
-249 35 -546 45 -780 25z m490 -1409 c640 -73 1088 -397 1231 -890 50 -170 54
-232 54 -838 0 -474 -2 -567 -15 -591 -20 -40 -57 -69 -530 -418 -535 -395
-648 -474 -753 -526 -84 -41 -88 -42 -187 -42 -101 0 -102 0 -196 47 -124 61
-354 225 -1125 799 -110 82 -161 137 -169 181 -4 18 -4 288 -2 598 5 626 6
639 73 840 154 462 582 761 1199 839 100 12 314 13 420 1z m-1325 -2852 c901
-639 850 -605 956 -642 193 -67 348 -28 599 152 398 285 1044 742 1049 742 3
0 6 -330 6 -732 0 -566 -3 -739 -13 -758 -7 -13 -28 -35 -46 -47 l-34 -23
-1389 0 c-1511 0 -1433 -3 -1473 56 -19 28 -20 54 -23 773 -2 602 0 742 10
734 7 -6 168 -120 358 -255z"/>
<path d="M3335 4935 c-298 -54 -519 -195 -616 -390 -59 -120 -62 -140 -66
-517 l-5 -348 851 0 851 0 0 333 c0 300 -2 342 -20 411 -29 113 -73 190 -160
276 -188 187 -548 288 -835 235z"/>
</g>
</svg>
