<svg width="28" height="28" viewBox="0 0 28 28" fill="none" xmlns="http://www.w3.org/2000/svg">
    <g clip-path="url(#clip0_9992_73441)">
        <g opacity="0.8" filter="url(#filter0_f_9992_73441)">
            <ellipse cx="14.0344" cy="29.5584" rx="10.4778" ry="1.25375" fill="#7A7F99" fill-opacity="0.2" />
        </g>
        <path
            d="M19.1 8.08824C19.1 5.05067 16.8167 2.58824 14 2.58824C11.1833 2.58824 8.9 5.05067 8.9 8.08824V11H6.5V8.08824C6.5 3.62123 9.85786 0 14 0C18.1421 0 21.5 3.62123 21.5 8.08824V11H19.1V8.08824Z"
            fill="url(#paint0_linear_9992_73441)"
        />
        <path
            d="M2.75 12.167C2.75 9.95786 4.54086 8.16699 6.75 8.16699H21.25C23.4591 8.16699 25.25 9.95785 25.25 12.167V24.0003C25.25 26.2095 23.4591 28.0003 21.25 28.0003H6.75C4.54086 28.0003 2.75 26.2095 2.75 24.0003V12.167Z"
            fill="url(#paint1_radial_9992_73441)"
        />
        <path
            d="M13.802 15.0859C14.7918 15.0859 15.5943 15.9181 15.5943 16.9446C15.5943 17.7208 15.1352 18.3853 14.4834 18.6634L14.8691 20.8609C14.9356 21.2411 14.6537 21.5911 14.281 21.5911H13.323C12.9503 21.5911 12.6684 21.2411 12.7349 20.8609L13.12 18.6634C12.4685 18.3851 12.0098 17.7206 12.0098 16.9446C12.0098 15.9181 12.8122 15.0859 13.802 15.0859Z"
            fill="#7A7F99"
        />
        <path
            d="M15.596 16.944C15.596 15.9175 14.7935 15.0854 13.8037 15.0854C12.8139 15.0854 12.0115 15.9175 12.0115 16.944C12.0115 17.72 12.4702 18.3846 13.1217 18.6628L12.7367 20.8603C12.6701 21.2405 12.9521 21.5905 13.3247 21.5905H14.2827C14.6554 21.5905 14.9374 21.2405 14.8708 20.8603L14.4851 18.6628C15.1369 18.3847 15.596 17.7202 15.596 16.944ZM16.1934 16.944C16.1934 17.7958 15.7784 18.5446 15.1491 18.9902L15.4583 20.7496H15.4589C15.5921 21.5104 15.0277 22.2101 14.2827 22.2101H13.3247C12.5797 22.2101 12.0154 21.5104 12.1486 20.7496L12.4566 18.9896C11.8281 18.5438 11.4141 17.795 11.4141 16.944C11.4141 15.5753 12.4839 14.4658 13.8037 14.4658C15.1235 14.4658 16.1934 15.5753 16.1934 16.944Z"
            fill="url(#paint2_linear_9992_73441)"
        />
        <g filter="url(#filter1_d_9992_73441)">
            <circle cx="23" cy="9" r="5" fill="white" />
            <path
                fill-rule="evenodd"
                clip-rule="evenodd"
                d="M23 14C25.7614 14 28 11.7614 28 9C28 6.23858 25.7614 4 23 4C20.2386 4 18 6.23858 18 9C18 11.7614 20.2386 14 23 14ZM23 6.14286C23.4045 6.14286 23.7174 6.49735 23.6672 6.89868L23.3544 9.40144C23.332 9.58017 23.1801 9.71429 23 9.71429C22.8199 9.71429 22.668 9.58017 22.6456 9.40144L22.3328 6.89868C22.2826 6.49735 22.5955 6.14286 23 6.14286ZM23 11.4286C23.2762 11.4286 23.5 11.2047 23.5 10.9286C23.5 10.6524 23.2762 10.4286 23 10.4286C22.7239 10.4286 22.5 10.6524 22.5 10.9286C22.5 11.2047 22.7239 11.4286 23 11.4286Z"
                fill="url(#paint3_linear_9992_73441)"
            />
        </g>
    </g>
    <defs>
        <filter
            id="filter0_f_9992_73441"
            x="-2.44336"
            y="22.3047"
            width="32.9561"
            height="14.5078"
            filterUnits="userSpaceOnUse"
            color-interpolation-filters="sRGB"
        >
            <feFlood flood-opacity="0" result="BackgroundImageFix" />
            <feBlend mode="normal" in="SourceGraphic" in2="BackgroundImageFix" result="shape" />
            <feGaussianBlur stdDeviation="3" result="effect1_foregroundBlur_9992_73441" />
        </filter>
        <filter
            id="filter1_d_9992_73441"
            x="15"
            y="3"
            width="14"
            height="14"
            filterUnits="userSpaceOnUse"
            color-interpolation-filters="sRGB"
        >
            <feFlood flood-opacity="0" result="BackgroundImageFix" />
            <feColorMatrix
                in="SourceAlpha"
                type="matrix"
                values="0 0 0 0 0 0 0 0 0 0 0 0 0 0 0 0 0 0 127 0"
                result="hardAlpha"
            />
            <feOffset dx="-1" dy="1" />
            <feGaussianBlur stdDeviation="1" />
            <feComposite in2="hardAlpha" operator="out" />
            <feColorMatrix type="matrix" values="0 0 0 0 0.125754 0 0 0 0 0.524105 0 0 0 0 0.457206 0 0 0 0.15 0" />
            <feBlend mode="normal" in2="BackgroundImageFix" result="effect1_dropShadow_9992_73441" />
            <feBlend mode="normal" in="SourceGraphic" in2="effect1_dropShadow_9992_73441" result="shape" />
        </filter>
        <linearGradient
            id="paint0_linear_9992_73441"
            x1="22.25"
            y1="-2.10294"
            x2="8.73743"
            y2="9.97941"
            gradientUnits="userSpaceOnUse"
        >
            <stop stop-color="#D3D6E5" />
            <stop offset="1" stop-color="#B8BBCC" />
        </linearGradient>
        <radialGradient
            id="paint1_radial_9992_73441"
            cx="0"
            cy="0"
            r="1"
            gradientTransform="matrix(-22.5 19.8333 -22.5 -22.1648 25.25 8.16699)"
            gradientUnits="userSpaceOnUse"
        >
            <stop stop-color="#EDEFF7" />
            <stop offset="1" stop-color="#B8BBCC" />
        </radialGradient>
        <linearGradient
            id="paint2_linear_9992_73441"
            x1="15.596"
            y1="14.156"
            x2="10.3934"
            y2="18.5446"
            gradientUnits="userSpaceOnUse"
        >
            <stop stop-color="#7A7F99" />
            <stop offset="1" stop-color="#D3D6E5" />
        </linearGradient>
        <linearGradient
            id="paint3_linear_9992_73441"
            x1="27.007"
            y1="4.32298"
            x2="18.8531"
            y2="13.9359"
            gradientUnits="userSpaceOnUse"
        >
            <stop stop-color="#F8A23F" />
            <stop offset="1" stop-color="#FD6812" />
        </linearGradient>
        <clipPath id="clip0_9992_73441">
            <rect width="28" height="28" fill="white" />
        </clipPath>
    </defs>
</svg>
