<?xml version="1.0" ?><!DOCTYPE svg  PUBLIC '-//W3C//DTD SVG 1.1//EN'  'http://www.w3.org/Graphics/SVG/1.1/DTD/svg11.dtd'><svg enable-background="new 0 0 50 50" height="50px" id="Layer_1" version="1.1" viewBox="0 0 50 50" width="50px" xml:space="preserve" xmlns="http://www.w3.org/2000/svg" xmlns:xlink="http://www.w3.org/1999/xlink"><g><path clip-rule="evenodd" d="M49.555,31.195c0,1.269-0.777,1.86-2.17,1.86h-2.66v-1.27h2.66   c0.246,0,0.45-0.041,0.533-0.126c0.082-0.085,0.163-0.212,0.163-0.381c0-0.17-0.081-0.338-0.163-0.422   c-0.083-0.085-0.246-0.127-0.492-0.127c-1.269-0.043-2.865,0.042-2.865-1.819c0-0.846,0.533-1.776,1.965-1.776h2.742v1.269H46.73   c-0.245,0-0.41,0-0.532,0.085c-0.122,0.126-0.204,0.253-0.204,0.466c0,0.211,0.123,0.338,0.285,0.422   c0.164,0.043,0.328,0.085,0.533,0.085h0.736c0.777,0,1.269,0.169,1.596,0.466C49.391,30.223,49.555,30.604,49.555,31.195   L49.555,31.195L49.555,31.195z M43.784,29.927c-0.327-0.297-0.819-0.466-1.597-0.466h-0.736c-0.205,0-0.369-0.042-0.531-0.085   c-0.164-0.084-0.287-0.211-0.287-0.422c0-0.213,0.041-0.34,0.205-0.466c0.122-0.085,0.285-0.085,0.531-0.085h2.537v-1.269h-2.742   c-1.473,0-1.965,0.931-1.965,1.776c0,1.861,1.598,1.776,2.865,1.819c0.246,0,0.41,0.042,0.492,0.127   c0.081,0.084,0.164,0.252,0.164,0.422c0,0.169-0.083,0.296-0.164,0.381c-0.123,0.085-0.287,0.126-0.532,0.126h-2.66v1.27h2.66   c1.391,0,2.169-0.592,2.169-1.86C44.193,30.604,44.029,30.223,43.784,29.927L43.784,29.927L43.784,29.927z M38.545,31.829h-3.232   v-1.184h3.15v-1.185h-3.15v-1.1h3.232v-1.227h-4.582v5.921h4.582V31.829L38.545,31.829z M32.488,27.432   c-0.449-0.255-0.981-0.297-1.678-0.297h-3.15v5.921h1.391v-2.157h1.475c0.49,0,0.777,0.043,0.981,0.254   c0.245,0.296,0.245,0.804,0.245,1.185v0.719h1.35v-1.143c0-0.549-0.04-0.804-0.203-1.099c-0.123-0.169-0.369-0.381-0.695-0.508   c0.367-0.127,0.981-0.634,0.981-1.565C33.185,28.065,32.939,27.685,32.488,27.432L32.488,27.432L32.488,27.432z M24.714,27.135   h-4.379l-1.76,1.946l-1.678-1.946h-5.525v5.921h5.443l1.76-1.946l1.678,1.946h2.66v-1.987h1.719c1.187,0,2.373-0.338,2.373-1.987   C27.005,27.474,25.777,27.135,24.714,27.135L24.714,27.135L24.714,27.135z M31.384,29.588c-0.204,0.085-0.409,0.085-0.655,0.085   l-1.678,0.042v-1.354h1.678c0.246,0,0.49,0,0.655,0.127c0.163,0.085,0.286,0.253,0.286,0.507S31.547,29.461,31.384,29.588   L31.384,29.588L31.384,29.588z M24.714,29.884h-1.801v-1.522h1.801c0.491,0,0.817,0.212,0.817,0.72   C25.531,29.588,25.205,29.884,24.714,29.884L24.714,29.884L24.714,29.884z M19.435,30.095l2.128-2.325v4.778L19.435,30.095   L19.435,30.095z M16.119,31.829h-3.396v-1.184h3.028v-1.185h-3.028v-1.1h3.438l1.514,1.733L16.119,31.829L16.119,31.829z    M45.748,22.864h-1.964l-2.579-4.44v4.44h-2.783l-0.531-1.312h-2.865l-0.531,1.312h-1.596c-0.655,0-1.515-0.17-2.006-0.678   c-0.449-0.507-0.695-1.184-0.695-2.24c0-0.889,0.123-1.691,0.736-2.326c0.409-0.465,1.146-0.676,2.087-0.676h1.31v1.268h-1.31   c-0.491,0-0.777,0.085-1.063,0.339c-0.246,0.254-0.369,0.719-0.369,1.353c0,0.635,0.123,1.1,0.369,1.396   c0.205,0.211,0.572,0.296,0.941,0.296h0.613l1.965-4.651h2.046l2.292,5.582v-5.582h2.128l2.415,4.102v-4.102h1.391V22.864   L45.748,22.864z M29.502,16.944h-1.393v5.92h1.393V16.944L29.502,16.944z M26.596,17.198c-0.45-0.254-0.94-0.254-1.637-0.254h-3.15   v5.92h1.35v-2.157h1.474c0.491,0,0.818,0.042,1.023,0.254c0.245,0.296,0.204,0.804,0.204,1.142v0.762h1.391V21.68   c0-0.507-0.041-0.761-0.245-1.058c-0.122-0.169-0.368-0.38-0.655-0.507c0.369-0.169,0.982-0.635,0.982-1.564   C27.332,17.874,27.046,17.493,26.596,17.198L26.596,17.198L26.596,17.198z M20.826,21.638h-3.192v-1.185h3.151v-1.227h-3.151V18.17   h3.192v-1.226h-4.584v5.92h4.584V21.638L20.826,21.638z M15.219,16.944h-2.251l-1.678,4.017l-1.801-4.017h-2.21v5.582l-2.332-5.582   H2.901l-2.456,5.92h1.474l0.532-1.312h2.864l0.532,1.312h2.783v-4.652l2.005,4.652h1.187l2.005-4.652v4.652h1.392V16.944   L15.219,16.944z M37.4,20.284l-0.941-2.326l-0.941,2.326H37.4L37.4,20.284z M25.531,19.354c-0.203,0.126-0.408,0.126-0.694,0.126   h-1.679V18.17h1.679c0.245,0,0.531,0,0.694,0.085c0.164,0.127,0.246,0.296,0.246,0.55C25.777,19.058,25.695,19.27,25.531,19.354   L25.531,19.354L25.531,19.354z M2.942,20.284l0.94-2.326l0.941,2.326H2.942L2.942,20.284z" fill="#FFF" fill-rule="evenodd"/></g></svg>
