<?xml version="1.0" ?><!DOCTYPE svg  PUBLIC '-//W3C//DTD SVG 1.1//EN'  'http://www.w3.org/Graphics/SVG/1.1/DTD/svg11.dtd'><svg enable-background="new 0 0 50 50" height="50px" id="Layer_1" version="1.1" viewBox="0 0 50 50" width="50px" xml:space="preserve" xmlns="http://www.w3.org/2000/svg" xmlns:xlink="http://www.w3.org/1999/xlink"><g><g><g><polygon fill="#fff" points="7.169,28.537 5.49,28.537 6.449,23.16 4.307,28.537 3.164,28.537 3.017,23.189 2.012,28.537      0.441,28.537 1.752,21.539 4.162,21.539 4.23,25.873 5.861,21.539 8.466,21.539    "/><path d="M11.298,26.004c-0.177-0.02-0.255-0.025-0.373-0.025c-0.951,0-1.43,0.291-1.43,0.867     c0,0.355,0.232,0.58,0.597,0.58C10.777,27.426,11.27,26.846,11.298,26.004z M12.519,28.537c-0.223,0-1.39,0-1.39,0l0.033-0.59     c-0.426,0.465-0.992,0.688-1.758,0.688c-0.91,0-1.536-0.635-1.536-1.555c0-1.387,1.086-2.191,2.95-2.191     c0.188,0,0.429,0.016,0.681,0.045c0.05-0.189,0.066-0.268,0.066-0.371c0-0.377-0.292-0.516-1.078-0.516     c-0.821-0.01-1.496,0.172-1.775,0.256c0.018-0.094,0.233-1.279,0.233-1.279c0.836-0.217,1.388-0.303,2.008-0.303     c1.44,0,2.205,0.58,2.201,1.67c0.005,0.291-0.051,0.652-0.135,1.125C12.873,26.34,12.563,28.105,12.519,28.537z" fill="#FFF"/><path d="M35.02,21.73l-0.272,1.52c-0.6-0.268-1.033-0.379-1.501-0.379c-1.251,0-2.131,1.078-2.131,2.619     c0,1.063,0.591,1.703,1.567,1.703c0.412,0,0.869-0.113,1.424-0.357l-0.292,1.594c-0.622,0.148-1.021,0.205-1.483,0.205     c-1.811,0-2.936-1.158-2.936-3.02c0-2.498,1.561-4.25,3.782-4.25C33.909,21.365,34.772,21.643,35.02,21.73z" fill="#FFF"/><path d="M37.729,26.004c-0.177-0.02-0.255-0.025-0.375-0.025c-0.952,0-1.434,0.291-1.434,0.867     c0,0.355,0.235,0.58,0.604,0.58C37.202,27.426,37.697,26.846,37.729,26.004z M38.946,28.537c-0.221,0-1.39,0-1.39,0l0.031-0.59     c-0.424,0.465-0.989,0.688-1.755,0.688c-0.914,0-1.534-0.635-1.534-1.555c0-1.387,1.088-2.191,2.945-2.191     c0.19,0,0.433,0.016,0.683,0.045c0.051-0.189,0.065-0.268,0.065-0.371c0-0.377-0.291-0.516-1.077-0.516     c-0.816-0.01-1.498,0.172-1.775,0.256c0.019-0.094,0.234-1.279,0.234-1.279c0.839-0.217,1.388-0.303,2.006-0.303     c1.442,0,2.205,0.58,2.201,1.67c0.008,0.291-0.05,0.652-0.131,1.125C39.3,26.34,38.99,28.105,38.946,28.537z" fill="#FFF"/><path d="M19.974,28.449c-0.459,0.129-0.816,0.186-1.205,0.186c-0.858,0-1.327-0.441-1.327-1.252     c-0.013-0.25,0.124-0.908,0.231-1.516c0.101-0.529,0.729-3.879,0.729-3.879h1.668l-0.196,0.861h0.858l-0.229,1.363h-0.86     c-0.192,1.086-0.472,2.432-0.474,2.607c0,0.295,0.177,0.426,0.578,0.426c0.192,0,0.341-0.02,0.454-0.055L19.974,28.449z" fill="#FFF"/><path d="M25.086,28.406c-0.572,0.154-1.126,0.229-1.711,0.229c-1.865-0.002-2.84-0.871-2.84-2.537     c0-1.943,1.236-3.377,2.917-3.377c1.378,0,2.256,0.803,2.256,2.059c0,0.418-0.061,0.824-0.206,1.4H22.18     c-0.111,0.824,0.482,1.168,1.449,1.168c0.599,0,1.136-0.109,1.737-0.357L25.086,28.406z M24.149,25.029     c0.008-0.115,0.175-1.014-0.776-1.014c-0.529,0-0.906,0.365-1.065,1.014H24.149z" fill="#FFF"/><path d="M13.524,24.646c0,0.721,0.39,1.215,1.278,1.588c0.676,0.283,0.784,0.367,0.784,0.627     c0,0.355-0.3,0.516-0.965,0.516c-0.498,0-0.962-0.066-1.503-0.223c0,0-0.218,1.254-0.23,1.311     c0.382,0.074,0.724,0.143,1.747,0.17c1.769,0,2.591-0.602,2.591-1.902c0-0.779-0.348-1.238-1.186-1.586     c-0.705-0.287-0.785-0.352-0.785-0.615c0-0.309,0.28-0.467,0.823-0.467c0.33,0,0.78,0.031,1.203,0.09l0.238-1.322     c-0.433-0.061-1.095-0.111-1.477-0.111C14.168,22.721,13.52,23.598,13.524,24.646z" fill="#FFF"/><path d="M47.826,28.537h-1.585l0.079-0.531c-0.463,0.438-0.935,0.629-1.55,0.629     c-1.216,0-2.024-0.938-2.024-2.363c0-1.889,1.253-3.486,2.729-3.486c0.648,0,1.145,0.24,1.602,0.777l0.373-2.023h1.652     L47.826,28.537z M45.353,27.221c0.78,0,1.33-0.789,1.33-1.916c0-0.723-0.314-1.115-0.889-1.115c-0.76,0-1.301,0.793-1.301,1.912     C44.493,26.846,44.78,27.221,45.353,27.221z" fill="#FFF"/><path d="M40.458,22.85c-0.207,1.76-0.584,3.543-0.877,5.305l-0.075,0.383h1.677     c0.603-3.479,0.744-4.156,1.689-4.074c0.149-0.713,0.428-1.334,0.637-1.648c-0.704-0.131-1.096,0.221-1.609,0.895     c0.041-0.291,0.115-0.57,0.101-0.859H40.458z" fill="#FFF"/><path d="M26.649,22.85c-0.211,1.76-0.586,3.543-0.875,5.305l-0.078,0.383h1.682     c0.596-3.479,0.744-4.156,1.682-4.074c0.152-0.713,0.43-1.334,0.637-1.648c-0.702-0.131-1.096,0.221-1.607,0.895     c0.041-0.291,0.117-0.57,0.102-0.859H26.649z" fill="#FFF"/><g><path d="M48.562,28.092c0-0.246,0.226-0.449,0.501-0.449c0.277,0,0.497,0.203,0.497,0.449      c0,0.244-0.22,0.445-0.497,0.445C48.787,28.537,48.562,28.336,48.562,28.092z M49.063,28.43c0.208,0,0.379-0.152,0.379-0.338      c0-0.189-0.171-0.34-0.379-0.34c-0.212,0-0.377,0.15-0.377,0.34C48.686,28.277,48.851,28.43,49.063,28.43z M48.993,28.285      h-0.102v-0.391h0.184c0.043,0,0.079,0.002,0.115,0.02c0.035,0.021,0.057,0.057,0.057,0.098c0,0.047-0.031,0.086-0.077,0.102      l0.077,0.172H49.14l-0.07-0.156h-0.076V28.285z M48.993,28.064h0.057c0.023,0,0.043,0.004,0.061-0.006      c0.021-0.012,0.031-0.029,0.031-0.047s-0.01-0.029-0.025-0.041c-0.021-0.008-0.051-0.006-0.066-0.006h-0.057V28.064z" fill="#FFF"/></g></g></g></g></svg>
