<?xml version="1.0" encoding="UTF-8" standalone="no"?>
<svg
   xmlns:dc="http://purl.org/dc/elements/1.1/"
   xmlns:cc="http://creativecommons.org/ns#"
   xmlns:rdf="http://www.w3.org/1999/02/22-rdf-syntax-ns#"
   xmlns:svg="http://www.w3.org/2000/svg"
   xmlns="http://www.w3.org/2000/svg"
   xmlns:sodipodi="http://sodipodi.sourceforge.net/DTD/sodipodi-0.dtd"
   xmlns:inkscape="http://www.inkscape.org/namespaces/inkscape"
   width="69.481857"
   height="75.962372"
   viewBox="58.919 358.337 69.481859 75.962374"
   enable-background="new 58.919 358.337 451.356 75.989"
   id="svg2"
   version="1.1"
   inkscape:version="0.91 r13725"
   sodipodi:docname="protonvpn-white-transparent-ico.svg">
  <metadata
     id="metadata12">
    <rdf:RDF>
      <cc:Work
         rdf:about="">
        <dc:format>image/svg+xml</dc:format>
        <dc:type
           rdf:resource="http://purl.org/dc/dcmitype/StillImage" />
        <dc:title>protonvpn-white-transparent</dc:title>
      </cc:Work>
    </rdf:RDF>
  </metadata>
  <defs
     id="defs10" />
  <sodipodi:namedview
     pagecolor="#ffffff"
     bordercolor="#666666"
     borderopacity="1"
     objecttolerance="10"
     gridtolerance="10"
     guidetolerance="10"
     inkscape:pageopacity="0"
     inkscape:pageshadow="2"
     inkscape:window-width="1183"
     inkscape:window-height="764"
     id="namedview8"
     showgrid="false"
     fit-margin-top="0"
     fit-margin-left="0"
     fit-margin-right="0"
     fit-margin-bottom="0"
     inkscape:zoom="1.48"
     inkscape:cx="117.08796"
     inkscape:cy="42.63908"
     inkscape:window-x="671"
     inkscape:window-y="178"
     inkscape:window-maximized="0"
     inkscape:current-layer="svg2" />
  <title
     id="title4">protonvpn-white-transparent</title>
  <path
     d="m 128.40086,366.81701 c 0,-4.68 -3.8,-8.48 -8.5,-8.48 -4.7,0 -8.5,3.8 -8.5,8.48 l 0,0.27 -36.970004,11.91 c -2.64,-3.88 -7.92,-4.9 -11.8,-2.25 -3.87,2.63 -4.88,7.9 -2.24,11.8 1.6,2.37 4.3,3.76 7.2,3.7 0.86,0 1.74,-0.16 2.57,-0.45 l 24.3,30.68 c -1.84,4.32 0.17,9.3 4.48,11.14 4.300004,1.84 9.300004,-0.17 11.130004,-4.48 1.44,-3.4 0.52,-7.36 -2.3,-9.77 l 12.92,-44.14 c 4.36,-0.4 7.7,-4.07 7.67,-8.45 z m -26.26,50.36 c -1.3,0.02 -2.600004,0.34 -3.760004,0.94 l -23.73,-30.04 c 0.66,-1.08 1.07,-2.28 1.2,-3.53 l 37.780004,-12.06 c 0.4,0.43 0.83,0.83 1.3,1.2 l -12.75,43.47 -0.04,0 z"
     id="path6"
     inkscape:connector-curvature="0"
     style="fill:#ffffff"
     sodipodi:nodetypes="csscccccccccccccccccccccc" />
</svg>
