<svg width="24" height="24" viewBox="0 0 24 24" fill="none" xmlns="http://www.w3.org/2000/svg">
    <rect x="0.5" y="0.5" width="23" height="23" rx="7.5" fill="white" />
    <rect x="0.5" y="0.5" width="23" height="23" rx="7.5" stroke="url(#paint0_linear_1468_84123)" />
    <path
        d="M15.8162 6.05127L16.2628 4.71147C16.3388 4.48355 16.6611 4.48355 16.7371 4.71147L17.1837 6.05127C17.3828 6.64848 17.8514 7.11712 18.4486 7.31619L19.7884 7.76279C20.0164 7.83876 20.0164 8.16115 19.7884 8.23713L18.4486 8.68373C17.8514 8.8828 17.3828 9.35143 17.1837 9.94864L16.7371 11.2884C16.6611 11.5164 16.3388 11.5164 16.2628 11.2884L15.8162 9.94864C15.6171 9.35143 15.1485 8.8828 14.5513 8.68373L13.2115 8.23713C12.9835 8.16115 12.9835 7.83876 13.2115 7.76279L14.5513 7.31619C15.1485 7.11712 15.6171 6.64848 15.8162 6.05127Z"
        fill="url(#paint1_radial_1468_84123)"
    />
    <path
        d="M8.49634 11.1971L9.35062 8.95451C9.43426 8.73495 9.74713 8.74156 9.82142 8.96445L10.5256 11.0771C10.8242 11.9729 11.5272 12.6759 12.4231 12.9745L14.5355 13.6785C14.7584 13.7528 14.765 14.0657 14.5454 14.1493L12.3029 15.0036C11.4767 15.3184 10.8314 15.9816 10.5393 16.816L9.8203 18.8704C9.74398 19.0885 9.43803 19.0952 9.35222 18.8807L8.47745 16.6938C8.17253 15.9315 7.5685 15.3274 6.80619 15.0225L4.61931 14.1478C4.40479 14.0619 4.4115 13.756 4.62958 13.6797L6.68379 12.9608C7.51835 12.6687 8.18158 12.0234 8.49634 11.1971Z"
        fill="url(#paint2_radial_1468_84123)"
    />
    <defs>
        <linearGradient id="paint0_linear_1468_84123" x1="12" y1="0" x2="12" y2="24" gradientUnits="userSpaceOnUse">
            <stop stop-color="#85ECD3" />
            <stop offset="1" stop-color="#A792FF" />
        </linearGradient>
        <radialGradient
            id="paint1_radial_1468_84123"
            cx="0"
            cy="0"
            r="1"
            gradientUnits="userSpaceOnUse"
            gradientTransform="translate(38.1686 -5.55582) rotate(142.958) scale(42.9612 57.4477)"
        >
            <stop offset="0.149261" stop-color="#85ECD3" />
            <stop offset="1" stop-color="#A792FF" />
        </radialGradient>
        <radialGradient
            id="paint2_radial_1468_84123"
            cx="0"
            cy="0"
            r="1"
            gradientUnits="userSpaceOnUse"
            gradientTransform="translate(38.1686 -5.55582) rotate(142.958) scale(42.9612 57.4477)"
        >
            <stop offset="0.149261" stop-color="#85ECD3" />
            <stop offset="1" stop-color="#A792FF" />
        </radialGradient>
    </defs>
</svg>
