<svg width="40" height="37" viewBox="0 0 40 37" fill="none" xmlns="http://www.w3.org/2000/svg">
    <path
        d="M22.291 12.3017H2.82294C1.4727 12.3017 0.36795 13.4064 0.36795 14.7567V30.5374C0.36795 31.8876 1.4727 32.9924 2.82294 32.9924H19.2812C19.9342 32.9924 20.5578 33.2526 21.0193 33.7092L23.0766 35.7665C23.6953 36.3852 24.7509 35.9482 24.7509 35.0742V14.7567C24.7509 13.4064 23.6462 12.3017 22.2959 12.3017H22.291Z"
        fill="#F68C08"
    />
    <path
        d="M17.6609 0.424194H37.1289C38.4792 0.424194 39.5839 1.52894 39.5839 2.87919V18.6599C39.5839 20.0101 38.4792 21.1149 37.1289 21.1149H20.6707C20.0177 21.1149 19.3941 21.3751 18.9325 21.8317L16.8753 23.889C16.2566 24.5077 15.201 24.0707 15.201 23.1967V18.6599V2.87919C15.201 1.52894 16.3057 0.424194 17.656 0.424194H17.6609Z"
        fill="#FFAC2E"
    />
    <path
        fill-rule="evenodd"
        clip-rule="evenodd"
        d="M26.1197 7.44733C26.1197 6.36259 26.9985 5.48378 28.0833 5.48378C29.168 5.48378 30.0468 6.36259 30.0468 7.44733V8.27353H26.1197V7.44733ZM25.0603 8.3005V7.44733C25.0603 5.77746 26.4134 4.42432 28.0833 4.42432C29.7532 4.42432 31.1063 5.77746 31.1063 7.44733V8.30382C31.7035 8.43363 32.1508 8.96527 32.1508 9.60139V15.0965C32.1508 15.8299 31.5563 16.4244 30.823 16.4244H25.3279C24.5945 16.4244 24 15.8299 24 15.0965V9.60139C24 8.95969 24.4552 8.42431 25.0603 8.3005Z"
        fill="#FBFBFD"
    />
</svg>
