<svg fill="none" height="40" viewBox="0 0 40 40" width="40" xmlns="http://www.w3.org/2000/svg">
    <g fill="#ffac2e">
        <path
            d="m5.88388 4.11612c-.48815-.48816-1.27961-.48816-1.76776 0-.48816.48815-.48816 1.27961 0 1.76776l29.99998 30.00002c.4882.4881 1.2796.4881 1.7678 0 .4881-.4882.4881-1.2796 0-1.7678z"
        />
        <path
            d="m37.7931 20.9222c-.9067 2.7256-2.4221 5.1736-4.3852 7.1824l-5.1642-5.1642c.3278-.919.5063-1.9088.5063-2.9404 0-4.8325-3.9175-8.75-8.75-8.75-1.0316 0-2.0214.1785-2.9404.5063l-4.128-4.12797c2.1815-.88864 4.568-1.37833 7.0693-1.37833 8.2838 0 15.3098 5.3712 17.7917 12.8174.2005.6018.2007 1.2529.0005 1.8548z"
        />
        <path
            d="m26.25 20c0 .3003-.0212.5956-.0621.8846l-7.0725-7.0725c.289-.0409.5843-.0621.8846-.0621 3.4518 0 6.25 2.7982 6.25 6.25z"
        />
        <path
            d="m20.8846 26.1879-7.0725-7.0725c-.0409.289-.0621.5843-.0621.8846 0 3.4518 2.7982 6.25 6.25 6.25.3003 0 .5956-.0212.8846-.0621z"
        />
        <path
            d="m11.25 20c0-1.0316.1785-2.0214.5063-2.9404l-5.16476-5.1648c-1.96343 2.0089-3.47909 4.4571-4.38586 7.183-.20021.6019-.20002 1.253.00055 1.8548 2.48183 7.4462 9.50787 12.8174 17.79167 12.8174 2.5016 0 4.8885-.4898 7.0701-1.3787l-4.1276-4.1276c-.919.3278-1.9088.5063-2.9404.5063-4.8325 0-8.75-3.9175-8.75-8.75z"
        />
    </g>
</svg>
