<svg width="79" height="23" viewBox="0 0 79 23" fill="none" xmlns="http://www.w3.org/2000/svg">
    <path d="M10.7988 14.6455C10.7989 15.347 10.9126 15.8998 11.1396 16.3027C11.3818 16.6906 11.715 16.9667 12.1387 17.1309C12.5624 17.295 13.0543 17.3769 13.6143 17.377C14.4165 17.377 15.0982 17.1981 15.6582 16.8398C16.2181 16.4816 16.6641 16.0409 16.9971 15.5186C17.2368 15.1487 17.4181 14.7891 17.543 14.4404V8.12988H20.0625V19.2803H17.543V15.3848C17.528 15.4416 17.514 15.5017 17.4971 15.5635C17.4063 15.9516 17.2475 16.3773 17.0205 16.8398C16.8086 17.2876 16.5205 17.7208 16.1572 18.1387C15.8091 18.5415 15.3704 18.8779 14.8408 19.1465C14.311 19.4003 13.667 19.5264 12.9102 19.5264C12.3653 19.5263 11.8129 19.452 11.2529 19.3027C10.708 19.1684 10.208 18.9367 9.75391 18.6084C9.31528 18.2802 8.95985 17.8324 8.6875 17.2656C8.4151 16.6985 8.27838 15.9816 8.27832 15.1162V8.12988H10.7988V14.6455ZM50.6416 7.88184C51.8981 7.88184 53.019 8.11343 54.0029 8.57617C54.9867 9.03891 55.7583 9.7112 56.3184 10.5918C56.8935 11.4575 57.1816 12.5026 57.1816 13.7266C57.1815 14.9652 56.8935 16.0181 56.3184 16.8838C55.7584 17.7491 54.9865 18.4059 54.0029 18.8535C53.019 19.3013 51.8981 19.5254 50.6416 19.5254C49.3854 19.5253 48.2577 19.3013 47.2588 18.8535C46.2599 18.4059 45.4727 17.7492 44.8975 16.8838C44.3224 16.0181 44.0343 14.9652 44.0342 13.7266C44.0342 12.5026 44.3225 11.4575 44.8975 10.5918C45.4727 9.71113 46.2598 9.03891 47.2588 8.57617C48.2577 8.1135 49.3854 7.88188 50.6416 7.88184ZM2.52051 14.4141C2.52053 15.1155 2.63429 15.6683 2.86133 16.0713C2.9712 16.2472 3.09984 16.4004 3.24707 16.5303C3.60265 16.844 4.10494 16.8994 4.58203 16.8994H7.56836V19.2949C7.02208 19.2949 3.53504 19.2205 2.97461 19.0713C2.42971 18.937 1.92967 18.7053 1.47559 18.377C1.03683 18.0487 0.680587 17.6011 0.408203 17.0342C0.135797 16.4671 6.61283e-05 15.7503 0 14.8848V3.62109H2.52051V14.4141ZM38.2422 7.88184C38.908 7.88187 39.5138 7.97228 40.0586 8.15137C40.6033 8.33048 41.0724 8.60647 41.4658 8.97949C41.8744 9.33773 42.1929 9.78592 42.4199 10.3232C42.6468 10.8604 42.7607 11.4947 42.7607 12.2256V19.2793H40.2168V12.7188C40.2168 11.8083 39.9902 11.136 39.5361 10.7031C39.0973 10.2554 38.4008 10.0323 37.4473 10.0322C36.7207 10.0322 36.0547 10.1886 35.4492 10.502C34.8591 10.8004 34.3744 11.196 33.9961 11.6885C33.8916 11.8258 33.8001 11.9683 33.7207 12.1143C33.7213 12.151 33.7236 12.1883 33.7236 12.2256V19.2793H31.2031V12.7188C31.2031 11.8083 30.9755 11.136 30.5215 10.7031C30.0825 10.2555 29.3861 10.0322 28.4326 10.0322C27.7062 10.0322 27.04 10.1885 26.4346 10.502C25.8443 10.8005 25.3599 11.196 24.9814 11.6885C24.7456 11.9861 24.5713 12.3044 24.459 12.6426V19.2793H21.9385V8.12891H24.459V11.3398C24.5455 11.0517 24.6586 10.7721 24.7998 10.502C25.0571 9.99449 25.3975 9.54627 25.8213 9.1582C26.2451 8.7552 26.7451 8.44167 27.3203 8.21777C27.8955 7.99394 28.5313 7.88184 29.2275 7.88184C29.8784 7.88184 30.4765 7.97225 31.0215 8.15137C31.5814 8.33049 32.0586 8.60641 32.4521 8.97949C32.8607 9.33769 33.171 9.78603 33.3828 10.3232C33.4703 10.5304 33.54 10.7523 33.5938 10.9883C33.6635 10.8162 33.7446 10.6464 33.8369 10.4795C34.1093 9.97207 34.4571 9.52378 34.8809 9.13574C35.3047 8.74765 35.7974 8.44168 36.3574 8.21777C36.9326 7.99397 37.5611 7.88184 38.2422 7.88184ZM50.6416 9.89746C49.9001 9.89751 49.2264 10.0472 48.6211 10.3457C48.0158 10.6442 47.5238 11.0766 47.1455 11.6436C46.7823 12.2108 46.6006 12.9057 46.6006 13.7266C46.6007 14.5323 46.7823 15.219 47.1455 15.7861C47.5088 16.3532 47.9933 16.7789 48.5986 17.0625C49.2191 17.346 49.9002 17.4882 50.6416 17.4883C51.3682 17.4883 52.0352 17.3461 52.6406 17.0625C53.2459 16.7789 53.7222 16.3531 54.0703 15.7861C54.4335 15.219 54.6151 14.5323 54.6152 13.7266C54.6152 12.9205 54.4336 12.2332 54.0703 11.666C53.7222 11.0991 53.2459 10.6657 52.6406 10.3672C52.0502 10.0537 51.3834 9.89746 50.6416 9.89746Z" fill="black"/>
    <path d="M63.3017 16.0884V14.0524H71.0194V16.0884H63.3017ZM60.3026 19.2788L65.9609 5.67773H68.4002L74.0985 19.2788H71.6393L66.6807 7.00006H67.6804L62.7419 19.2788H60.3026Z" fill="#6439ED"/>
    <path d="M75.8093 5.67773H78.0886V19.2788H75.8093V5.67773Z" fill="#6439ED"/>
</svg>
