<svg width="112" height="32" viewBox="0 0 112 32" fill="none" xmlns="http://www.w3.org/2000/svg">
<g clip-path="url(#clip0_13318_16177)">
<path d="M16.0017 32.0013C24.8386 32.0013 32.0024 24.8375 32.0024 16.0006C32.0024 7.16364 24.8386 -0.00012207 16.0017 -0.00012207C7.16474 -0.00012207 0.000976562 7.16364 0.000976562 16.0006C0.000976562 24.8375 7.16474 32.0013 16.0017 32.0013Z" fill="#EEEBFD"/>
<path d="M20.3164 6.19679L23.4098 4.21007C24.4823 3.52121 25.9057 4.18582 26.0683 5.44945L26.8171 11.2798L20.3149 6.19679H20.3164Z" fill="#6D4AFF"/>
<path d="M11.9191 6.19679L8.82569 4.21007C7.75317 3.52121 6.32981 4.18582 6.16722 5.44945L5.41846 11.2798L11.9206 6.19679H11.9191Z" fill="#6D4AFF"/>
<path d="M7.97093 6.55334L9.47274 7.51889L7.02393 9.16474L7.32058 6.8557C7.36051 6.54621 7.70851 6.38505 7.96951 6.55334H7.97093Z" fill="#4A2DC5"/>
<path d="M24.0316 6.55334L22.5298 7.51889L24.9786 9.16474L24.6819 6.8557C24.642 6.54621 24.294 6.38505 24.033 6.55334H24.0316Z" fill="#4A2DC5"/>
<path d="M24.344 22.6453H7.65869V27.0124H24.344V22.6453Z" fill="#4129A3"/>
<path d="M16.4341 31.0458C17.9764 31.0458 19.2267 29.7956 19.2267 28.2533C19.2267 26.711 17.9764 25.4608 16.4341 25.4608C14.8919 25.4608 13.6416 26.711 13.6416 28.2533C13.6416 29.7956 14.8919 31.0458 16.4341 31.0458Z" fill="#FC8F00"/>
<path d="M15.3932 31.0444H16.4629V25.4607H15.3932V31.0444Z" fill="#FC8F00"/>
<path d="M15.3931 31.0458C16.9354 31.0458 18.1856 29.7955 18.1856 28.2532C18.1856 26.711 16.9354 25.4607 15.3931 25.4607C13.8508 25.4607 12.6006 26.711 12.6006 28.2532C12.6006 29.7955 13.8508 31.0458 15.3931 31.0458Z" fill="#FFAC2E"/>
<path d="M15.393 28.7125C15.8727 28.7125 16.2615 28.3236 16.2615 27.8439C16.2615 27.3642 15.8727 26.9754 15.393 26.9754C14.9133 26.9754 14.5244 27.3642 14.5244 27.8439C14.5244 28.3236 14.9133 28.7125 15.393 28.7125Z" fill="#372580"/>
<path d="M15.3931 29.2031V27.8439" stroke="#372580" stroke-width="0.807238" stroke-miterlimit="10" stroke-linecap="round"/>
<path d="M28.9522 17.3897C28.9522 23.3399 21.8911 25.4607 16.0008 25.4607C10.8236 25.4607 3.04932 23.3399 3.04932 17.3897C3.04932 11.4396 8.84831 5.4252 16.0022 5.4252C23.1561 5.4252 28.9537 11.4396 28.9537 17.3897H28.9522Z" fill="#6D4AFF"/>
<path d="M13.5503 19.241C14.0238 19.241 14.406 19.6246 14.406 20.0967" stroke="white" stroke-width="0.356554" stroke-miterlimit="10" stroke-linecap="round"/>
<path d="M15.2634 19.241C14.7899 19.241 14.4077 19.6246 14.4077 20.0967" stroke="white" stroke-width="0.356554" stroke-miterlimit="10" stroke-linecap="round"/>
<path d="M22.3508 19.3313C24.4925 18.4076 25.564 16.118 24.7442 14.2172C23.9245 12.3164 21.5238 11.5243 19.3821 12.448C17.2405 13.3717 16.169 15.6613 16.9887 17.5621C17.8085 19.4628 20.2092 20.2549 22.3508 19.3313Z" fill="white"/>
<path d="M12.7057 17.5605C13.5254 15.6597 12.4539 13.3701 10.3123 12.4464C8.17064 11.5228 5.76995 12.3149 4.95016 14.2156C4.13038 16.1164 5.20195 18.4061 7.34357 19.3297C9.48519 20.2534 11.8859 19.4613 12.7057 17.5605Z" fill="white"/>
<path d="M22.4456 18.2097C23.2262 18.2097 23.859 17.1785 23.859 15.9064C23.859 14.6343 23.2262 13.6031 22.4456 13.6031C21.665 13.6031 21.0322 14.6343 21.0322 15.9064C21.0322 17.1785 21.665 18.2097 22.4456 18.2097Z" fill="#4129A3"/>
<path d="M12.8312 15.199C11.6546 12.3394 7.35027 11.247 5.4149 13.8797C4.81161 14.7155 4.66471 15.7966 4.89861 16.8106C4.07568 15.2675 4.69751 13.285 6.17935 12.3836C8.59964 10.802 12.3506 12.328 12.8312 15.2004V15.199Z" fill="#372480"/>
<path d="M16.8618 15.199C17.3425 12.3266 21.0934 10.802 23.5137 12.3822C24.9955 13.2836 25.6174 15.2674 24.7944 16.8092C25.0298 15.7966 24.8814 14.7141 24.2781 13.8783C22.3428 11.2455 18.0384 12.338 16.8618 15.1976V15.199Z" fill="#372480"/>
<path opacity="0.7" d="M23.3068 14.9351C23.6014 14.9351 23.8402 14.6963 23.8402 14.4017C23.8402 14.1071 23.6014 13.8683 23.3068 13.8683C23.0123 13.8683 22.7734 14.1071 22.7734 14.4017C22.7734 14.6963 23.0123 14.9351 23.3068 14.9351Z" fill="white"/>
<path d="M10.2586 18.2097C11.0392 18.2097 11.672 17.1785 11.672 15.9064C11.672 14.6343 11.0392 13.6031 10.2586 13.6031C9.47801 13.6031 8.84521 14.6343 8.84521 15.9064C8.84521 17.1785 9.47801 18.2097 10.2586 18.2097Z" fill="#4129A3"/>
<path opacity="0.7" d="M11.1213 14.9351C11.4159 14.9351 11.6547 14.6963 11.6547 14.4017C11.6547 14.1071 11.4159 13.8683 11.1213 13.8683C10.8267 13.8683 10.5879 14.1071 10.5879 14.4017C10.5879 14.6963 10.8267 14.9351 11.1213 14.9351Z" fill="white"/>
</g>
<path d="M102.865 26.1497C101.281 26.1497 99.8591 25.8634 98.5993 25.2908C97.3395 24.7182 96.347 23.8783 95.6217 22.7713C94.8963 21.6642 94.5337 20.3185 94.5337 18.7343C94.5337 17.1691 94.8963 15.833 95.6217 14.726C96.347 13.5998 97.3395 12.7409 98.5993 12.1492C99.8591 11.5575 101.281 11.2616 102.865 11.2616C104.45 11.2616 105.862 11.5575 107.103 12.1492C108.343 12.7409 109.317 13.5998 110.023 14.726C110.748 15.833 111.111 17.1691 111.111 18.7343C111.111 20.3185 110.748 21.6642 110.023 22.7713C109.317 23.8783 108.343 24.7182 107.103 25.2908C105.862 25.8634 104.45 26.1497 102.865 26.1497ZM102.865 23.5443C103.782 23.5443 104.621 23.363 105.385 23.0003C106.148 22.6377 106.75 22.0937 107.189 21.3683C107.647 20.643 107.876 19.765 107.876 18.7343C107.876 17.7036 107.647 16.8256 107.189 16.1002C106.75 15.3749 106.148 14.8214 105.385 14.4396C104.64 14.0388 103.801 13.8384 102.865 13.8384C101.93 13.8384 101.081 14.0293 100.317 14.411C99.5537 14.7928 98.9333 15.3463 98.4561 16.0716C97.998 16.7969 97.769 17.6845 97.769 18.7343C97.769 19.765 97.998 20.643 98.4561 21.3683C98.9142 22.0937 99.525 22.6377 100.289 23.0003C101.071 23.363 101.93 23.5443 102.865 23.5443Z" fill="#0C0C14"/>
<path d="M66.6743 11.5765H69.8524V25.8348H66.6743V11.5765ZM75.8649 11.2616C76.6856 11.2616 77.4396 11.3761 78.1267 11.6052C78.833 11.8342 79.4342 12.1873 79.9305 12.6645C80.4458 13.1226 80.8371 13.6952 81.1044 14.3824C81.3907 15.0695 81.5338 15.8807 81.5338 16.816V25.8348H78.3558V17.4459C78.3558 16.2816 78.0695 15.4226 77.4968 14.8691C76.9433 14.2965 76.0653 14.0102 74.8628 14.0102C73.9466 14.0102 73.1068 14.2106 72.3433 14.6114C71.5989 14.9932 70.9881 15.499 70.5109 16.1289C70.0337 16.7397 69.7569 17.4173 69.6806 18.1617L69.6519 16.6156C69.7474 15.9094 69.9573 15.2413 70.2818 14.6114C70.6063 13.9625 71.0358 13.3898 71.5702 12.8936C72.1047 12.3782 72.7346 11.9774 73.4599 11.6911C74.1852 11.4048 74.9869 11.2616 75.8649 11.2616ZM87.2314 11.2616C88.0712 11.2616 88.8347 11.3761 89.5219 11.6052C90.209 11.8342 90.8007 12.1873 91.297 12.6645C91.8124 13.1226 92.2132 13.6952 92.4995 14.3824C92.7858 15.0695 92.929 15.8807 92.929 16.816V25.8348H89.7223V17.4459C89.7223 16.2816 89.436 15.4226 88.8634 14.8691C88.3098 14.2965 87.4318 14.0102 86.2293 14.0102C85.3131 14.0102 84.4733 14.2106 83.7098 14.6114C82.9654 14.9932 82.3546 15.499 81.8774 16.1289C81.4193 16.7397 81.1521 17.4173 81.0757 18.1617L81.0185 16.5583C81.1139 15.8712 81.3334 15.2127 81.677 14.5828C82.0205 13.9338 82.4596 13.3612 82.994 12.8649C83.5284 12.3687 84.1488 11.9774 84.855 11.6911C85.5803 11.4048 86.3725 11.2616 87.2314 11.2616Z" fill="#0C0C14"/>
<path d="M64.3097 25.8348H61.1317V11.5765H64.3097V25.8348ZM61.3034 19.0492L61.3321 19.9654C61.2939 20.2136 61.208 20.5858 61.0744 21.082C60.9599 21.5783 60.7595 22.1223 60.4731 22.714C60.2059 23.2866 59.8433 23.8402 59.3852 24.3746C58.9462 24.89 58.3926 25.3194 57.7246 25.663C57.0565 25.9875 56.2453 26.1497 55.2909 26.1497C54.6038 26.1497 53.9071 26.0543 53.2009 25.8634C52.5137 25.6916 51.8838 25.3958 51.3112 24.9759C50.7577 24.5559 50.3091 23.9833 49.9656 23.258C49.622 22.5327 49.4502 21.6165 49.4502 20.5094V11.5765H52.6282V19.9082C52.6282 20.8053 52.7714 21.5115 53.0577 22.0269C53.3631 22.5231 53.783 22.8763 54.3175 23.0862C54.8519 23.2962 55.4723 23.4012 56.1785 23.4012C57.1901 23.4012 58.049 23.1721 58.7553 22.714C59.4615 22.2559 60.0246 21.6928 60.4445 21.0248C60.8835 20.3376 61.1698 19.6791 61.3034 19.0492Z" fill="#0C0C14"/>
<path d="M43.5557 5.85025H46.7337V25.8347H43.5557V5.85025Z" fill="#0C0C14"/>
<defs>
<clipPath id="clip0_13318_16177">
<rect width="32" height="32" fill="white"/>
</clipPath>
</defs>
</svg>
