<svg width="32" height="32" viewBox="0 0 32 32" fill="none" xmlns="http://www.w3.org/2000/svg">
    <g clip-path="url(#clip0_13784_3364)">
        <path
            d="M16.0017 32.0014C24.8386 32.0014 32.0024 24.8377 32.0024 16.0007C32.0024 7.16376 24.8386 0 16.0017 0C7.16474 0 0.000976562 7.16376 0.000976562 16.0007C0.000976562 24.8377 7.16474 32.0014 16.0017 32.0014Z"
            fill="#EEEBFD"
        />
        <path
            d="M20.3161 6.19725L23.4096 4.21053C24.4821 3.52166 25.9055 4.18628 26.0681 5.44991L26.8168 11.2803L20.3147 6.19725H20.3161Z"
            fill="#6D4AFF"
        />
        <path
            d="M11.9187 6.19725L8.8252 4.21053C7.75268 3.52166 6.32932 4.18628 6.16673 5.44991L5.41797 11.2803L11.9201 6.19725H11.9187Z"
            fill="#6D4AFF"
        />
        <path
            d="M7.97093 6.55419L9.47274 7.51974L7.02393 9.16559L7.32058 6.85655C7.36051 6.54706 7.70851 6.3859 7.96951 6.55419H7.97093Z"
            fill="#4A2DC5"
        />
        <path
            d="M24.0316 6.55419L22.5298 7.51974L24.9786 9.16559L24.6819 6.85655C24.642 6.54706 24.294 6.3859 24.033 6.55419H24.0316Z"
            fill="#4A2DC5"
        />
        <path d="M24.344 22.6455H7.65869V27.0126H24.344V22.6455Z" fill="#4129A3" />
        <path
            d="M16.4339 31.046C17.9762 31.046 19.2264 29.7957 19.2264 28.2535C19.2264 26.7112 17.9762 25.4609 16.4339 25.4609C14.8916 25.4609 13.6414 26.7112 13.6414 28.2535C13.6414 29.7957 14.8916 31.046 16.4339 31.046Z"
            fill="#FC8F00"
        />
        <path d="M15.393 31.0449H16.4626V25.4613H15.393V31.0449Z" fill="#FC8F00" />
        <path
            d="M15.3929 31.046C16.9351 31.046 18.1854 29.7957 18.1854 28.2535C18.1854 26.7112 16.9351 25.4609 15.3929 25.4609C13.8506 25.4609 12.6003 26.7112 12.6003 28.2535C12.6003 29.7957 13.8506 31.046 15.3929 31.046Z"
            fill="#FFAC2E"
        />
        <path
            d="M15.393 28.7127C15.8727 28.7127 16.2615 28.3238 16.2615 27.8442C16.2615 27.3645 15.8727 26.9756 15.393 26.9756C14.9133 26.9756 14.5244 27.3645 14.5244 27.8442C14.5244 28.3238 14.9133 28.7127 15.393 28.7127Z"
            fill="#372580"
        />
        <path
            d="M15.3928 29.2029V27.8438"
            stroke="#372580"
            stroke-width="0.807238"
            stroke-miterlimit="10"
            stroke-linecap="round"
        />
        <path
            d="M28.952 17.3903C28.952 23.3405 21.8908 25.4613 16.0005 25.4613C10.8234 25.4613 3.04907 23.3405 3.04907 17.3903C3.04907 11.4401 8.84806 5.42578 16.002 5.42578C23.1559 5.42578 28.9534 11.4401 28.9534 17.3903H28.952Z"
            fill="#6D4AFF"
        />
        <path
            d="M13.5503 19.2412C14.0238 19.2412 14.406 19.6249 14.406 20.0969"
            stroke="white"
            stroke-width="0.356554"
            stroke-miterlimit="10"
            stroke-linecap="round"
        />
        <path
            d="M15.2632 19.2412C14.7897 19.2412 14.4075 19.6249 14.4075 20.0969"
            stroke="white"
            stroke-width="0.356554"
            stroke-miterlimit="10"
            stroke-linecap="round"
        />
        <path
            d="M22.3506 19.332C24.4922 18.4083 25.5638 16.1187 24.744 14.2179C23.9242 12.3171 21.5235 11.525 19.3819 12.4487C17.2403 13.3723 16.1687 15.662 16.9885 17.5627C17.8083 19.4635 20.209 20.2556 22.3506 19.332Z"
            fill="white"
        />
        <path
            d="M12.7057 17.5614C13.5254 15.6606 12.4539 13.371 10.3123 12.4473C8.17064 11.5237 5.76995 12.3158 4.95016 14.2166C4.13038 16.1173 5.20195 18.407 7.34357 19.3306C9.48519 20.2543 11.8859 19.4622 12.7057 17.5614Z"
            fill="white"
        />
        <path
            d="M22.4454 18.2102C23.2259 18.2102 23.8587 17.179 23.8587 15.9069C23.8587 14.6348 23.2259 13.6035 22.4454 13.6035C21.6648 13.6035 21.032 14.6348 21.032 15.9069C21.032 17.179 21.6648 18.2102 22.4454 18.2102Z"
            fill="#4129A3"
        />
        <path
            d="M12.8312 15.1999C11.6546 12.3403 7.35027 11.2478 5.4149 13.8806C4.81161 14.7164 4.66471 15.7974 4.89861 16.8115C4.07568 15.2683 4.69751 13.2859 6.17935 12.3845C8.59964 10.8028 12.3506 12.3289 12.8312 15.2013V15.1999Z"
            fill="#372480"
        />
        <path
            d="M16.8616 15.1997C17.3422 12.3273 21.0932 10.8027 23.5134 12.3829C24.9953 13.2843 25.6171 15.2681 24.7942 16.8099C25.0295 15.7973 24.8812 14.7148 24.2779 13.879C22.3425 11.2462 18.0382 12.3387 16.8616 15.1983V15.1997Z"
            fill="#372480"
        />
        <path
            opacity="0.7"
            d="M23.3066 14.936C23.6012 14.936 23.84 14.6971 23.84 14.4025C23.84 14.108 23.6012 13.8691 23.3066 13.8691C23.012 13.8691 22.7732 14.108 22.7732 14.4025C22.7732 14.6971 23.012 14.936 23.3066 14.936Z"
            fill="white"
        />
        <path
            d="M10.2584 18.2102C11.0389 18.2102 11.6717 17.179 11.6717 15.9069C11.6717 14.6348 11.0389 13.6035 10.2584 13.6035C9.47776 13.6035 8.84497 14.6348 8.84497 15.9069C8.84497 17.179 9.47776 18.2102 10.2584 18.2102Z"
            fill="#4129A3"
        />
        <path
            opacity="0.7"
            d="M11.1211 14.936C11.4156 14.936 11.6545 14.6971 11.6545 14.4025C11.6545 14.108 11.4156 13.8691 11.1211 13.8691C10.8265 13.8691 10.5876 14.108 10.5876 14.4025C10.5876 14.6971 10.8265 14.936 11.1211 14.936Z"
            fill="white"
        />
    </g>
    <defs>
        <clipPath id="clip0_13784_3364">
            <rect width="32" height="32" fill="white" />
        </clipPath>
    </defs>
</svg>
