<svg width="84" height="92" viewBox="0 0 84 92" fill="none" xmlns="http://www.w3.org/2000/svg">
    <g clip-path="url(#clip0_9045_38779)">
        <path
            d="M42.0024 91.6092C65.1994 91.6092 84.0042 72.8043 84.0042 49.6073C84.0042 26.4103 65.1994 7.60547 42.0024 7.60547C18.8054 7.60547 0.000488281 26.4103 0.000488281 49.6073C0.000488281 72.8043 18.8054 91.6092 42.0024 91.6092Z"
            fill="#EEEBFD"
        />
        <path
            d="M32.815 23.1309L25.0616 17.3841C22.3735 15.3924 18.5286 16.8787 17.881 20.1583L14.8896 35.2946L32.815 23.1309Z"
            fill="#6D4AFF"
        />
        <path
            d="M22.4111 23.3683L26.1736 26.1612L19.4722 30.0398L20.6552 24.046C20.8125 23.2448 21.7522 22.8816 22.4111 23.3683Z"
            fill="#4A2DC5"
        />
        <path d="M63.9 67.0547H20.1011V78.5183H63.9V67.0547Z" fill="#4129A3" />
        <path
            d="M43.137 89.1061C47.1855 89.1061 50.4674 85.8242 50.4674 81.7757C50.4674 77.7272 47.1855 74.4453 43.137 74.4453C39.0886 74.4453 35.8066 77.7272 35.8066 81.7757C35.8066 85.8242 39.0886 89.1061 43.137 89.1061Z"
            fill="#FC8F00"
        />
        <path d="M40.4041 89.1055H43.2119V74.4484H40.4041V89.1055Z" fill="#FC8F00" />
        <path
            d="M40.4041 89.1061C44.4526 89.1061 47.7345 85.8242 47.7345 81.7757C47.7345 77.7272 44.4526 74.4453 40.4041 74.4453C36.3557 74.4453 33.0737 77.7272 33.0737 81.7757C33.0737 85.8242 36.3557 89.1061 40.4041 89.1061Z"
            fill="#FFAC2E"
        />
        <path
            d="M40.404 82.9818C41.6632 82.9818 42.684 81.9611 42.684 80.7019C42.684 79.4427 41.6632 78.4219 40.404 78.4219C39.1448 78.4219 38.124 79.4427 38.124 80.7019C38.124 81.9611 39.1448 82.9818 40.404 82.9818Z"
            fill="#372580"
        />
        <path
            d="M40.4043 84.2672V80.7031"
            stroke="#372580"
            stroke-width="2.119"
            stroke-miterlimit="10"
            stroke-linecap="round"
        />
        <path
            d="M70.4478 44.8263L78.0702 35.8898C80.2416 33.344 79.0211 29.4055 75.7902 28.537L55.2329 24.707L70.4478 44.8263Z"
            fill="#6D4AFF"
        />
        <path
            d="M73.6638 36.2667L70.1745 39.9843L63.9561 33.4102L73.0236 35.0574C73.8173 35.2334 74.158 35.8848 73.66 36.2704L73.6638 36.2667Z"
            fill="#4A2DC5"
        />
        <path
            d="M75.4462 55.4569C74.3942 71.0424 55.5291 75.3478 40.1008 74.307C26.5407 73.3935 6.55624 66.4637 7.60826 50.8782C8.66027 35.2927 24.9084 20.5646 43.6425 21.83C62.3765 23.0954 76.4982 39.8714 75.4462 55.4569Z"
            fill="#6D4AFF"
        />
        <path
            d="M57.8116 59.373C63.5838 57.3323 66.7949 51.525 64.9837 46.4019C63.1726 41.2788 57.025 38.7801 51.2528 40.8207C45.4806 42.8614 42.2695 48.6687 44.0807 53.7918C45.8918 58.9148 52.0393 61.4136 57.8116 59.373Z"
            fill="white"
        />
        <path
            d="M32.8661 53.0316C35.349 48.1983 32.9471 42.0122 27.5014 39.2147C22.0556 36.4171 15.6281 38.0675 13.1452 42.9008C10.6622 47.7341 13.0641 53.9202 18.5099 56.7178C23.9557 59.5153 30.3831 57.865 32.8661 53.0316Z"
            fill="white"
        />
        <path
            d="M55.35 48.9787C55.5748 45.647 54.0997 42.8343 52.0553 42.6964C50.0109 42.5584 48.1714 45.1475 47.9466 48.4792C47.7218 51.8109 49.1969 54.6235 51.2413 54.7615C53.2857 54.8994 55.1252 52.3104 55.35 48.9787Z"
            fill="#4129A3"
        />
        <path
            d="M33.6125 46.8689C31.0367 39.1716 19.955 35.5513 14.4217 42.103C12.6958 44.1846 12.1155 46.9924 12.5535 49.688C10.6704 45.5024 12.6471 40.4183 16.6904 38.318C23.3058 34.6042 32.8637 39.2615 33.6162 46.8689H33.6125Z"
            fill="#372480"
        />
        <path
            d="M44.1702 47.5826C45.9373 40.1436 56.0307 36.8116 62.0882 41.3828C65.8095 44.0073 67.0861 49.3122 64.6602 53.2058C65.4538 50.5926 65.2592 47.7323 63.8253 45.4411C59.2204 38.2043 47.7531 40.3046 44.1665 47.5863L44.1702 47.5826Z"
            fill="#372480"
        />
        <path
            d="M34.7808 57.582C36.02 57.6644 36.9559 58.7389 36.8736 59.9743"
            stroke="white"
            stroke-width="0.935954"
            stroke-miterlimit="10"
            stroke-linecap="round"
        />
        <path
            d="M39.2658 57.884C38.0266 57.8016 36.9559 58.7375 36.8735 59.9767"
            stroke="white"
            stroke-width="0.935954"
            stroke-miterlimit="10"
            stroke-linecap="round"
        />
        <path
            opacity="0.7"
            d="M54.1736 46.3394C54.9469 46.3394 55.5738 45.7126 55.5738 44.9393C55.5738 44.1659 54.9469 43.5391 54.1736 43.5391C53.4003 43.5391 52.7734 44.1659 52.7734 44.9393C52.7734 45.7126 53.4003 46.3394 54.1736 46.3394Z"
            fill="white"
        />
        <path
            d="M23.4354 46.8224C23.6602 43.4908 22.1852 40.6781 20.1408 40.5401C18.0964 40.4022 16.2568 42.9912 16.032 46.3229C15.8072 49.6546 17.2823 52.4673 19.3267 52.6052C21.3711 52.7432 23.2106 50.1541 23.4354 46.8224Z"
            fill="#4129A3"
        />
        <path
            opacity="0.7"
            d="M22.2576 44.1871C23.0309 44.1871 23.6578 43.5602 23.6578 42.7869C23.6578 42.0136 23.0309 41.3867 22.2576 41.3867C21.4843 41.3867 20.8574 42.0136 20.8574 42.7869C20.8574 43.5602 21.4843 44.1871 22.2576 44.1871Z"
            fill="white"
        />
        <path d="M1.82715 17.9458L14.0507 18.7058L3.59423 12.1953L1.82715 17.9458Z" fill="#4A2DC5" />
        <path d="M4.9873 4.61007L16.9151 15.3473L10.7603 0.394531L4.9873 4.61007Z" fill="#4A2DC5" />
        <path d="M18.3823 4.37666L20.988 13.6164L23.1332 4.05469L18.3823 4.37666Z" fill="#4A2DC5" />
    </g>
    <defs>
        <clipPath id="clip0_9045_38779">
            <rect width="84" height="91.2143" fill="white" transform="translate(0 0.394531)" />
        </clipPath>
    </defs>
</svg>
