<svg width="308" height="248" viewBox="0 0 308 248" fill="none" xmlns="http://www.w3.org/2000/svg">
<path d="M63.7253 145.201C83.7669 145.201 100.014 141.278 100.014 136.439C100.014 131.6 83.7669 127.677 63.7253 127.677C43.6837 127.677 27.4367 131.6 27.4367 136.439C27.4367 141.278 43.6837 145.201 63.7253 145.201Z" fill="#FC8F00"/>
<path d="M62.0085 242.355C62.0085 242.355 77.5187 242.578 91.718 242.355C105.561 242.135 117.17 239.229 123.18 233.459C144.216 213.27 131.565 197.684 131.565 197.684C131.565 197.684 128.5 193.267 123.18 194.758C117.859 196.249 116.517 203.195 116.873 211.116C117.233 219.037 112.797 226.995 104.47 229.447C95.1478 232.192 82.3573 231.487 82.3573 231.487L60.9948 234.794L62.0085 242.351V242.355Z" fill="#6D4AFF"/>
<path d="M125.343 194.454C129.321 194.454 131.569 197.688 131.569 197.688C131.569 197.688 144.22 213.271 123.182 233.463C117.17 239.233 105.565 242.139 91.7216 242.358C86.989 242.432 82.1086 242.46 77.7076 242.46C68.9056 242.46 62.0122 242.358 62.0122 242.358L60.9984 234.801L82.3602 231.494C82.3602 231.494 83.8389 231.574 86.1598 231.574C90.6589 231.574 98.3217 231.267 104.474 229.454C112.801 227.003 117.233 219.043 116.877 211.123C116.517 203.202 117.862 196.256 123.182 194.765C123.952 194.548 124.672 194.457 125.347 194.457M125.343 193.231C124.525 193.231 123.686 193.35 122.851 193.584C117.614 195.054 115.192 200.97 115.653 211.175C115.821 214.912 114.845 218.642 112.902 221.677C110.829 224.914 107.795 227.198 104.128 228.277C98.0102 230.079 90.2465 230.349 86.1598 230.349C83.9053 230.349 82.4409 230.268 82.4265 230.268L82.2975 230.261L82.1713 230.282L60.8095 233.589L59.6249 233.771L59.7857 234.958L60.7994 242.515L60.9393 243.56L61.9949 243.574C62.0648 243.574 68.9965 243.675 77.7076 243.675C82.8252 243.675 87.5478 243.64 91.7389 243.574C106.603 243.339 118.068 240.057 124.029 234.336C128.95 229.612 132.474 224.726 134.498 219.812C136.141 215.827 136.809 211.818 136.483 207.896C135.946 201.418 132.886 197.377 132.544 196.944C132.237 196.521 129.709 193.224 125.343 193.224V193.231Z" fill="white"/>
<mask id="mask0_84_557" style="mask-type:luminance" maskUnits="userSpaceOnUse" x="60" y="194" width="76" height="49">
<path d="M62.0085 242.355C62.0085 242.355 77.5187 242.578 91.718 242.355C105.561 242.135 117.17 239.229 123.18 233.459C144.216 213.27 131.565 197.684 131.565 197.684C131.565 197.684 128.5 193.267 123.18 194.758C117.859 196.249 116.517 203.195 116.873 211.116C117.233 219.037 112.797 226.995 104.47 229.447C95.1478 232.192 82.3573 231.487 82.3573 231.487L60.9948 234.794L62.0085 242.351V242.355Z" fill="white"/>
</mask>
<g mask="url(#mask0_84_557)">
<path d="M105.956 176.793C118.799 176.793 125.833 168.349 125.833 168.349C125.833 168.349 132.865 176.793 145.709 176.793C145.709 176.793 147.848 201.798 125.833 215.241C103.813 201.798 105.956 176.793 105.956 176.793Z" fill="#4129A3"/>
</g>
<path d="M92.9451 238.821C99.3736 234.336 103.963 220.821 97.0563 205.79C91.8442 194.45 90.1102 187.096 90.1102 187.096L72.8488 204.749L76.6239 237.047" fill="#6D4AFF"/>
<path d="M34.3892 238.821C27.9608 234.336 23.3709 220.821 30.2788 205.79C35.4909 194.45 37.2242 187.096 37.2242 187.096L54.4864 204.749L50.7105 237.047" fill="#6D4AFF"/>
<path d="M87.803 170.196H43.3001V241.859H87.803V170.196Z" fill="#6D4AFF"/>
<path d="M57.2125 242.554C57.2125 242.554 48.4877 232.779 40.0001 233.722C31.5125 234.665 32.0893 239.906 32.0893 239.906C32.0893 239.906 32.1802 242.554 34.858 242.554C38.2034 242.554 57.2089 242.554 57.2089 242.554H57.2125Z" fill="#4129A3"/>
<path d="M70.1219 242.554C70.1219 242.554 78.8475 232.779 87.3351 233.722C95.8219 234.665 95.2451 239.906 95.2451 239.906C95.2451 239.906 95.1543 242.554 92.4765 242.554H70.1256H70.1219Z" fill="#4129A3"/>
<path d="M87.8066 170.196C87.8066 170.196 96.2625 179.772 83.4511 208.577C83.4511 208.577 77.1416 220.647 76.5785 236.159C76.5785 236.159 76.554 237.004 76.6239 237.051C79.2246 238.824 78.9174 240.783 78.4488 241.859C77.0327 245.093 67.5177 246.134 64.1831 242.041C63.6135 241.342 63.669 240.871 63.669 239.107C63.669 237.93 63.669 230.408 63.669 221.541V169.802L87.8066 170.196Z" fill="#6D4AFF"/>
<mask id="mask1_84_557" style="mask-type:luminance" maskUnits="userSpaceOnUse" x="63" y="169" width="28" height="76">
<path d="M87.8066 170.196C87.8066 170.196 96.2625 179.772 83.4511 208.577C83.4511 208.577 77.1416 220.647 76.5785 236.159C76.5785 236.159 76.554 237.004 76.6239 237.051C79.2246 238.824 78.9174 240.783 78.4488 241.859C77.0327 245.093 67.5177 246.134 64.1831 242.041C63.6135 241.342 63.669 240.871 63.669 239.107C63.669 237.93 63.669 230.408 63.669 221.541V169.802L87.8066 170.196Z" fill="white"/>
</mask>
<g mask="url(#mask1_84_557)">
<path d="M57.4295 228.099C65.889 228.18 70.5769 222.662 70.5769 222.662C70.5769 222.662 75.156 228.267 83.6155 228.347C83.6155 228.347 84.8671 244.832 70.2792 253.548C55.8635 244.556 57.4295 228.099 57.4295 228.099Z" fill="#4129A3"/>
</g>
<path d="M39.5314 170.196C39.5314 170.196 31.0756 179.772 43.887 208.577C43.887 208.577 50.1972 220.647 50.7596 236.159C50.7596 236.159 50.7841 237.004 50.7141 237.051C48.1135 238.824 48.4214 240.783 48.8893 241.859C50.3053 245.093 59.8203 246.134 63.155 242.041C63.7253 241.342 63.669 240.871 63.669 239.107V169.802L39.5314 170.196Z" fill="#6D4AFF"/>
<mask id="mask2_84_557" style="mask-type:luminance" maskUnits="userSpaceOnUse" x="36" y="169" width="28" height="76">
<path d="M39.5314 170.196C39.5314 170.196 31.0756 179.772 43.887 208.577C43.887 208.577 50.1972 220.647 50.7596 236.159C50.7596 236.159 50.7841 237.004 50.7141 237.051C48.1135 238.824 48.4214 240.783 48.8893 241.859C50.3053 245.093 59.8203 246.134 63.155 242.041C63.7253 241.342 63.669 240.871 63.669 239.107V169.802L39.5314 170.196Z" fill="white"/>
</mask>
<g mask="url(#mask2_84_557)">
<path d="M69.9057 228.099C61.4462 228.18 56.7583 222.662 56.7583 222.662C56.7583 222.662 52.1792 228.267 43.7197 228.347C43.7197 228.347 42.4681 244.832 57.0553 253.548C71.4717 244.556 69.9057 228.099 69.9057 228.099Z" fill="#4129A3"/>
</g>
<path d="M87.8066 161.891H39.5314V170.193C39.6367 170.248 39.7376 170.304 39.8465 170.356C48.4423 174.729 58.4605 175.382 63.669 175.382C68.8775 175.382 78.8965 174.729 87.4923 170.356C87.5968 170.304 87.7021 170.245 87.8066 170.193V161.891Z" fill="#4129A3"/>
<path d="M74.2432 122.623L81.8252 117.758C84.454 116.071 87.9429 117.699 88.3416 120.793L90.1765 135.07L74.2403 122.623H74.2432Z" fill="#6D4AFF"/>
<path d="M53.6608 122.623L46.0788 117.758C43.45 116.071 39.9619 117.699 39.5631 120.793L37.7275 135.07L53.6644 122.623H53.6608Z" fill="#6D4AFF"/>
<path d="M43.985 123.5L47.6657 125.864L41.6641 129.894L42.3909 124.24C42.489 123.482 43.3419 123.088 43.9814 123.5H43.985Z" fill="#4A2DC5"/>
<path d="M83.3494 123.5L79.6687 125.864L85.671 129.894L84.9435 124.24C84.8455 123.482 83.9925 123.088 83.353 123.5H83.3494Z" fill="#4A2DC5"/>
<path d="M63.669 120.734C46.1387 120.734 31.9249 135.461 31.9249 150.031C31.9249 164.601 49.2318 169.795 63.669 169.795C78.1063 169.795 95.4132 164.601 95.4132 150.031C95.4132 135.461 81.2001 120.734 63.669 120.734Z" fill="#6D4AFF"/>
<path d="M82.0574 155.835C87.307 153.574 89.9328 147.967 87.9241 143.313C85.9147 138.658 80.0306 136.719 74.781 138.981C69.5322 141.243 66.9056 146.849 68.915 151.503C70.9244 156.157 76.8085 158.097 82.0574 155.835Z" fill="white"/>
<path d="M58.4172 151.498C60.4267 146.844 57.8001 141.237 52.5505 138.976C47.3016 136.714 41.4175 138.654 39.4081 143.308C37.3987 147.962 40.0253 153.569 45.2741 155.831C50.5237 158.093 56.4078 156.153 58.4172 151.498Z" fill="white"/>
<path d="M75.5057 154.512C77.4185 154.512 78.9693 151.987 78.9693 148.872C78.9693 145.757 77.4185 143.231 75.5057 143.231C73.5921 143.231 72.0413 145.757 72.0413 148.872C72.0413 151.987 73.5921 154.512 75.5057 154.512Z" fill="#4129A3"/>
<path d="M58.7295 145.718C55.8462 138.716 45.2958 136.04 40.5524 142.487C39.0736 144.534 38.7138 147.181 39.287 149.664C37.2697 145.886 38.7938 141.031 42.4262 138.824C48.3579 134.951 57.5521 138.687 58.7295 145.721V145.718Z" fill="#372480"/>
<path d="M68.605 145.718C69.7831 138.684 78.9765 134.951 84.9089 138.821C88.5406 141.028 90.0648 145.886 88.0481 149.661C88.6249 147.181 88.2608 144.531 86.7821 142.484C82.0386 136.037 71.489 138.712 68.605 145.714V145.718Z" fill="#6D4AFF"/>
<path d="M61.568 155.615C62.7288 155.615 63.6654 156.555 63.6654 157.711" stroke="white" stroke-width="1.21209" stroke-miterlimit="10" stroke-linecap="round"/>
<path d="M65.7664 155.615C64.6056 155.615 63.669 156.555 63.669 157.711" stroke="white" stroke-width="1.21209" stroke-miterlimit="10" stroke-linecap="round"/>
<path opacity="0.7" d="M77.6167 146.493C78.3385 146.493 78.9239 145.909 78.9239 145.187C78.9239 144.466 78.3385 143.881 77.6167 143.881C76.895 143.881 76.3096 144.466 76.3096 145.187C76.3096 145.909 76.895 146.493 77.6167 146.493Z" fill="white"/>
<path d="M46.6838 154.512C48.5973 154.512 50.1482 151.987 50.1482 148.872C50.1482 145.757 48.5973 143.231 46.6838 143.231C44.7702 143.231 43.2194 145.757 43.2194 148.872C43.2194 151.987 44.7702 154.512 46.6838 154.512Z" fill="#4129A3"/>
<path opacity="0.7" d="M48.7984 146.493C49.5209 146.493 50.1056 145.909 50.1056 145.187C50.1056 144.466 49.5209 143.881 48.7984 143.881C48.0767 143.881 47.4913 144.466 47.4913 145.187C47.4913 145.909 48.0767 146.493 48.7984 146.493Z" fill="white"/>
<path d="M82.0574 155.835C87.3069 153.574 89.9335 147.967 87.9241 143.313C85.9147 138.658 80.0306 136.719 74.7818 138.981C69.5322 141.243 66.9056 146.849 68.915 151.503C70.9244 156.157 76.8085 158.097 82.0574 155.835Z" fill="white"/>
<path d="M74.9217 154.512C76.8352 154.512 78.3861 151.987 78.3861 148.872C78.3861 145.757 76.8352 143.231 74.9217 143.231C73.0081 143.231 71.4573 145.757 71.4573 148.872C71.4573 151.987 73.0081 154.512 74.9217 154.512Z" fill="#4129A3"/>
<path d="M66.4968 146.239C66.4968 146.239 71.7269 146.881 75.7255 144.593C80.0184 142.138 82.053 138.66 88.4988 139.645L85.0416 134.284L68.2308 133.861L66.4968 135.81V146.239Z" fill="#6D4AFF"/>
<path opacity="0.7" d="M77.0328 146.493C77.7552 146.493 78.3406 145.909 78.3406 145.187C78.3406 144.466 77.7552 143.881 77.0328 143.881C76.311 143.881 75.7256 144.466 75.7256 145.187C75.7256 145.909 76.311 146.493 77.0328 146.493Z" fill="white"/>
<path d="M67.3988 146.305C77.5331 145.47 77.9801 139.512 84.4929 139.522C85.4194 139.547 86.3242 139.659 87.2053 139.889C85.4086 140.099 83.6436 140.336 82.1576 141.077C80.6723 141.782 79.4452 143.018 77.9347 144.098C75.0017 146.326 70.9648 147.318 67.3951 146.305H67.3988Z" fill="#372480"/>
<path d="M82.1475 234.322C86.5729 232.66 92.8997 233.317 95.8464 237.389L94.9553 237.941C92.4138 234.067 86.3804 233.274 82.1475 234.322Z" fill="white"/>
<path d="M45.1423 234.322C40.9122 233.274 34.8752 234.067 32.3344 237.941L31.4426 237.389C34.3893 233.317 40.7132 232.66 45.1423 234.322Z" fill="white"/>
<path d="M87.8066 161.891H39.5314V170.193C39.6367 170.248 39.7376 170.304 39.8465 170.356C48.4423 174.729 58.4605 175.382 63.669 175.382C68.8775 175.382 78.8965 174.729 87.4923 170.356C87.5968 170.304 87.7021 170.245 87.8066 170.193V161.891Z" fill="#4129A3"/>
<path d="M69.8566 177.914C69.8566 181.689 66.7945 184.752 63.0122 184.752C59.2334 184.752 56.1677 181.692 56.1677 177.914C56.1677 174.135 59.2298 171.076 63.0122 171.076C66.7909 171.076 69.8566 174.135 69.8566 177.914Z" fill="#FC8F00"/>
<path d="M64.323 171.076H63.0122V184.748H64.323V171.076Z" fill="#FC8F00"/>
<path d="M64.323 184.752C68.1031 184.752 71.1674 181.69 71.1674 177.914C71.1674 174.137 68.1031 171.076 64.323 171.076C60.5428 171.076 57.4785 174.137 57.4785 177.914C57.4785 181.69 60.5428 184.752 64.323 184.752Z" fill="#FFAC2E"/>
<path d="M64.3229 179.038C65.4989 179.038 66.4513 178.087 66.4513 176.912C66.4513 175.737 65.4989 174.785 64.3229 174.785C63.147 174.785 62.1938 175.737 62.1938 176.912C62.1938 178.087 63.147 179.038 64.3229 179.038Z" fill="#372580"/>
<path d="M64.323 180.236V176.912" stroke="#372580" stroke-width="2.74417" stroke-miterlimit="10" stroke-linecap="round"/>
<path d="M50.3962 236.526C51.6269 236.069 52.9723 236.065 54.2413 236.233C53.0949 236.467 51.9377 236.844 51.0292 237.574L50.3962 236.526Z" fill="white"/>
<path d="M48.5922 221.62C49.6723 225.833 50.5677 230.823 50.7631 236.226C50.7631 236.226 50.784 237.004 50.7141 237.05C48.1134 238.824 48.4213 240.783 48.8892 241.859C50.3053 245.093 60.6559 246.011 63.1549 242.041C63.6344 241.279 63.669 240.871 63.669 239.107V221.541" stroke="white" stroke-width="1.69693" stroke-miterlimit="10"/>
<path d="M41.9893 204.163C43.1184 206.698 44.9115 210.11 46.0024 212.621C47.2468 215.495 48.2988 218.453 49.1863 221.467L48.0017 221.771C47.3233 218.754 46.4811 215.768 45.4321 212.845C44.52 210.299 42.9396 206.737 41.9893 204.163Z" fill="white"/>
<path d="M37.1406 186.411C37.3086 189.103 37.8082 191.81 38.4232 194.482C37.4203 191.925 36.5147 189.313 35.9279 186.575L37.1406 186.411Z" fill="white"/>
<path d="M78.7422 221.62C77.6622 225.833 76.7674 230.823 76.572 236.226C76.572 236.226 76.5504 237.004 76.6203 237.05C79.2217 238.824 78.9138 240.783 78.4452 241.859C77.0298 245.093 66.6792 246.011 64.1795 242.041C63.7007 241.279 63.6654 240.871 63.6654 239.107C63.6654 237.93 63.6654 230.408 63.6654 221.541" stroke="white" stroke-width="1.69693" stroke-miterlimit="10"/>
<path d="M85.3459 204.163C84.3877 206.754 82.8188 210.289 81.9024 212.845C80.8576 215.768 80.0112 218.754 79.3335 221.771L78.1481 221.467C79.0364 218.453 80.0883 215.492 81.3328 212.621C82.4164 210.124 84.2204 206.681 85.3459 204.163Z" fill="white"/>
<path d="M91.4073 186.575C90.8168 189.313 89.9148 191.925 88.9112 194.482C89.5262 191.807 90.0266 189.1 90.1939 186.411L91.4073 186.575Z" fill="white"/>
<path d="M76.306 237.574C75.3968 236.847 74.2403 236.467 73.0932 236.233C74.3622 236.065 75.7083 236.069 76.939 236.526L76.306 237.574Z" fill="white"/>
<path d="M63.0576 221.537L63.6445 196.93L64.2811 221.537H63.0576Z" fill="white"/>
<path d="M63.669 120.734C46.1387 120.734 31.9249 135.461 31.9249 150.031C31.9249 164.601 49.2318 169.795 63.669 169.795C78.1063 169.795 95.4132 164.601 95.4132 150.031C95.4132 135.461 81.2001 120.734 63.669 120.734Z" fill="#6D4AFF"/>
<path d="M82.0574 155.835C87.3069 153.574 89.9335 147.967 87.9241 143.313C85.9147 138.658 80.0306 136.719 74.7818 138.981C69.5322 141.243 66.9056 146.849 68.915 151.503C70.9244 156.157 76.8085 158.097 82.0574 155.835Z" fill="white"/>
<path d="M58.4173 151.498C60.4267 146.844 57.8001 141.237 52.5505 138.976C47.3017 136.714 41.4176 138.654 39.4082 143.308C37.3987 147.962 40.0253 153.569 45.2749 155.831C50.5238 158.093 56.4079 156.153 58.4173 151.498Z" fill="white"/>
<path d="M81.8079 153.569C83.7214 153.569 85.2723 151.044 85.2723 147.929C85.2723 144.814 83.7214 142.289 81.8079 142.289C79.8951 142.289 78.3442 144.814 78.3442 147.929C78.3442 151.044 79.8951 153.569 81.8079 153.569Z" fill="#4129A3"/>
<path d="M58.7295 145.718C55.8462 138.716 45.2958 136.04 40.5524 142.487C39.0736 144.534 38.7138 147.181 39.287 149.664C37.2697 145.886 38.7938 141.031 42.4262 138.824C48.3579 134.951 57.5521 138.687 58.7295 145.721V145.718Z" fill="#372480"/>
<path d="M68.605 145.718C69.7831 138.684 78.9765 134.951 84.9089 138.821C88.5406 141.028 90.0648 145.886 88.0481 149.661C88.6249 147.181 88.2608 144.531 86.7828 142.484C82.0386 136.037 71.489 138.712 68.605 145.714V145.718Z" fill="#372480"/>
<path d="M61.568 155.615C62.7288 155.615 63.6654 156.555 63.6654 157.711" stroke="white" stroke-width="1.21209" stroke-miterlimit="10" stroke-linecap="round"/>
<path d="M65.7664 155.615C64.6063 155.615 63.669 156.555 63.669 157.711" stroke="white" stroke-width="1.21209" stroke-miterlimit="10" stroke-linecap="round"/>
<path opacity="0.7" d="M83.9197 145.55C84.6414 145.55 85.2269 144.966 85.2269 144.244C85.2269 143.523 84.6414 142.938 83.9197 142.938C83.1973 142.938 82.6118 143.523 82.6118 144.244C82.6118 144.966 83.1973 145.55 83.9197 145.55Z" fill="white"/>
<path d="M52.9896 153.569C54.9031 153.569 56.4539 151.044 56.4539 147.929C56.4539 144.814 54.9031 142.289 52.9896 142.289C51.0767 142.289 49.5259 144.814 49.5259 147.929C49.5259 151.044 51.0767 153.569 52.9896 153.569Z" fill="#4129A3"/>
<path opacity="0.7" d="M55.1014 145.55C55.8231 145.55 56.4085 144.966 56.4085 144.244C56.4085 143.523 55.8231 142.938 55.1014 142.938C54.3789 142.938 53.7942 143.523 53.7942 144.244C53.7942 144.966 54.3789 145.55 55.1014 145.55Z" fill="white"/>
<path d="M64.7736 130.345C75.9426 130.345 86.1879 131.972 94.2177 134.685C94.3893 133.208 94.4902 131.71 94.4902 130.181C94.4902 110.969 80.3889 95.3965 62.9977 95.3965C45.6073 95.3965 31.5052 110.969 31.5052 130.181C31.5052 132.146 31.6595 134.071 31.9422 135.946C40.3706 132.486 51.9693 130.345 64.7736 130.345Z" fill="#FFAC2E"/>
<path d="M99.7795 136.529C98.3007 139.722 82.5736 135.409 63.6654 135.583C44.7579 135.409 29.0308 139.722 27.552 136.529C25.9125 133.585 41.5553 125.13 63.6654 125.197C85.7756 125.13 101.419 133.585 99.7795 136.529Z" fill="#FFAC2E"/>
<path d="M68.8703 93.5459H56.4295C54.9724 93.5459 53.7906 94.7258 53.7906 96.1823V117.772C53.7906 119.228 54.9724 120.409 56.4295 120.409H68.8703C70.3282 120.409 71.5099 119.228 71.5099 117.772V96.1823C71.5099 94.7258 70.3282 93.5459 68.8703 93.5459Z" fill="#FFAC2E"/>
<path d="M30.5824 131.434C37.186 128.762 44.1004 126.712 51.2138 126.077C45.9389 126.786 40.8213 128.358 35.8789 130.292C34.2357 130.942 32.5998 131.634 31.0229 132.388L30.586 131.434H30.5824Z" fill="white"/>
<path d="M96.3151 132.384C89.9148 129.423 83.1367 127.048 76.1243 126.077C81.4517 126.527 86.6703 127.858 91.7288 129.552C93.421 130.128 95.088 130.74 96.752 131.431L96.3151 132.384Z" fill="white"/>
<path d="M53.7798 96.7451L53.2556 118.073L52.7314 96.7451H53.7798Z" fill="white"/>
<path d="M72.5726 96.7451L72.0485 118.073L71.5236 96.7451H72.5726Z" fill="white"/>
<path d="M68.871 93.546C70.3217 93.546 71.5099 94.7331 71.5099 96.1823V96.6815C84.7654 100.785 94.4903 114.228 94.4903 130.177C94.4903 130.589 94.4831 130.997 94.4694 131.407C95.8991 132.122 97.07 132.838 97.9547 133.516C99.29 134.427 100.02 135.412 100.02 136.435C100.02 138.258 97.7203 139.949 93.7808 141.349C94.84 144.167 95.4132 147.101 95.4132 150.031C95.4132 156.125 92.3857 160.578 87.8066 163.697V170.192C87.8066 170.192 91.8442 174.767 90.1102 187.096C90.1102 187.096 91.8442 194.45 97.0563 205.79C103.345 219.477 100.097 231.906 94.6164 237.403C95.3749 238.737 95.2452 239.906 95.2452 239.906C95.2452 239.906 95.1543 242.554 92.4765 242.554H77.9837C76.7919 243.895 74.0824 244.712 71.2965 244.712C68.5105 244.712 65.7138 243.916 64.1831 242.037C63.7498 241.506 63.6798 241.104 63.669 240.165C63.6589 241.104 63.589 241.506 63.155 242.037C61.6243 243.916 58.7965 244.712 56.0416 244.712C53.2874 244.712 50.5461 243.895 49.3543 242.554H34.8615C32.1801 242.554 32.0929 239.906 32.0929 239.906C32.0929 239.906 31.9667 238.737 32.7223 237.403C27.2377 231.906 23.9896 219.477 30.2818 205.79C35.4939 194.45 37.2279 187.096 37.2279 187.096C35.4975 174.767 39.5314 170.192 39.5314 170.192V163.697C34.956 160.578 31.9249 156.125 31.9249 150.031C31.9249 147.091 32.5053 144.143 33.5717 141.314C29.6985 139.921 27.4367 138.241 27.4367 136.435C27.4367 136.359 27.4403 136.285 27.4468 136.208C27.3004 135.185 28.7756 133.676 31.5579 132.105C31.5262 131.466 31.5024 130.827 31.5024 130.177C31.5024 114.504 40.8876 101.253 53.7906 96.9055V96.1823C53.7906 94.7331 54.9788 93.546 56.4295 93.546H68.8674M76.6239 237.05L76.5749 236.641C76.5785 236.841 76.5929 237.029 76.6239 237.05ZM50.7141 237.05C50.7459 237.029 50.7596 236.841 50.7632 236.641L50.7141 237.05ZM68.871 92.3236H56.4331C54.3494 92.3236 52.6471 93.9789 52.5707 96.0426C46.3377 98.3512 40.7622 102.786 36.7981 108.608C32.5334 114.87 30.2789 122.33 30.2789 130.177C30.2789 130.568 30.2854 130.973 30.3034 131.42C27.4857 133.121 26.1151 134.731 26.2204 136.219C26.2168 136.292 26.2132 136.362 26.2132 136.435C26.2132 138.576 28.1671 140.455 32.023 142.026C31.1455 144.688 30.7014 147.377 30.7014 150.031C30.7014 155.884 33.2602 160.693 38.3079 164.332V169.787C37.3468 171.187 34.5328 176.339 35.9834 187.022C35.6582 188.296 33.7779 195.247 29.1707 205.276C26.1995 211.744 25.0596 218.502 25.8743 224.82C26.5311 229.901 28.4785 234.515 31.2609 237.633C30.8167 238.786 30.8485 239.725 30.8694 239.98C30.9357 241.517 32.0475 243.769 34.8615 243.769H48.8511C50.3717 245.11 53.0531 245.928 56.0416 245.928C59.2544 245.928 61.9877 244.971 63.669 243.284C65.3504 244.971 68.0844 245.928 71.2965 245.928C74.2821 245.928 76.9664 245.11 78.487 243.769H92.4765C95.2906 243.769 96.3988 241.517 96.4687 239.98C96.4896 239.725 96.5249 238.786 96.0772 237.633C98.8602 234.515 100.811 229.901 101.465 224.82C102.279 218.502 101.139 211.744 98.1681 205.276C93.5602 195.25 91.6798 188.3 91.3547 187.022C92.8089 176.307 89.9985 171.184 89.0302 169.784V164.329C94.0779 160.69 96.6367 155.881 96.6367 150.027C96.6367 147.387 96.1962 144.716 95.3295 142.069C99.2546 140.486 101.244 138.594 101.244 136.431C101.244 135.01 100.381 133.697 98.675 132.524C97.8638 131.909 96.871 131.288 95.7138 130.67C95.7138 130.502 95.7174 130.338 95.7174 130.173C95.7174 122.179 93.3857 114.612 88.9811 108.284C84.8736 102.389 79.1273 97.9774 72.7197 95.784C72.52 93.8392 70.874 92.3164 68.8739 92.3164L68.871 92.3236Z" fill="white"/>
<path d="M198.915 0V126.055" stroke="#2E2E2E" stroke-width="0.727254" stroke-miterlimit="10"/>
<path d="M307.364 219.434H0.363647V247.434H307.364V219.434Z" fill="#E4E4E4"/>
<path d="M307.364 219.434H0.363647" stroke="#2E2E2E" stroke-width="0.727254" stroke-miterlimit="10"/>
<path d="M307.364 223.434H0.363647" stroke="#2E2E2E" stroke-width="0.727254" stroke-miterlimit="10"/>
<path d="M307.364 227.434H0.363647V247.434H307.364V227.434Z" fill="#2E2E2E" stroke="#2E2E2E" stroke-width="0.727254" stroke-miterlimit="10"/>
<path d="M9.89333 246.685C14.8826 246.685 18.9267 242.645 18.9267 237.661C18.9267 232.677 14.8826 228.637 9.89333 228.637C4.90474 228.637 0.860657 232.677 0.860657 237.661C0.860657 242.645 4.90474 246.685 9.89333 246.685Z" fill="#E4E4E4" stroke="#2E2E2E" stroke-width="0.727254" stroke-miterlimit="10"/>
<path d="M9.89336 243.798C13.2857 243.798 16.0355 241.05 16.0355 237.661C16.0355 234.272 13.2857 231.525 9.89336 231.525C6.50178 231.525 3.75189 234.272 3.75189 237.661C3.75189 241.05 6.50178 243.798 9.89336 243.798Z" fill="#E4E4E4" stroke="#2E2E2E" stroke-width="1.45451" stroke-miterlimit="10" stroke-linecap="round" stroke-dasharray="0.03 4.85"/>
<path d="M35.1694 246.685C40.158 246.685 44.2021 242.645 44.2021 237.661C44.2021 232.677 40.158 228.637 35.1694 228.637C30.1808 228.637 26.1367 232.677 26.1367 237.661C26.1367 242.645 30.1808 246.685 35.1694 246.685Z" fill="#E4E4E4" stroke="#2E2E2E" stroke-width="0.727254" stroke-miterlimit="10"/>
<path d="M35.1694 243.798C38.561 243.798 41.3109 241.05 41.3109 237.661C41.3109 234.272 38.561 231.525 35.1694 231.525C31.7771 231.525 29.0272 234.272 29.0272 237.661C29.0272 241.05 31.7771 243.798 35.1694 243.798Z" fill="#E4E4E4" stroke="#2E2E2E" stroke-width="1.45451" stroke-miterlimit="10" stroke-linecap="round" stroke-dasharray="0.03 4.85"/>
<path d="M60.4447 246.685C65.4333 246.685 69.4774 242.645 69.4774 237.661C69.4774 232.677 65.4333 228.637 60.4447 228.637C55.4561 228.637 51.412 232.677 51.412 237.661C51.412 242.645 55.4561 246.685 60.4447 246.685Z" fill="#E4E4E4" stroke="#2E2E2E" stroke-width="0.727254" stroke-miterlimit="10"/>
<path d="M60.4447 243.798C63.837 243.798 66.5869 241.05 66.5869 237.661C66.5869 234.272 63.837 231.525 60.4447 231.525C57.0524 231.525 54.3032 234.272 54.3032 237.661C54.3032 241.05 57.0524 243.798 60.4447 243.798Z" fill="#E4E4E4" stroke="#2E2E2E" stroke-width="1.45451" stroke-miterlimit="10" stroke-linecap="round" stroke-dasharray="0.03 4.85"/>
<path d="M85.72 246.685C90.7094 246.685 94.7534 242.645 94.7534 237.661C94.7534 232.677 90.7094 228.637 85.72 228.637C80.7315 228.637 76.6874 232.677 76.6874 237.661C76.6874 242.645 80.7315 246.685 85.72 246.685Z" fill="#E4E4E4" stroke="#2E2E2E" stroke-width="0.727254" stroke-miterlimit="10"/>
<path d="M85.7201 243.798C89.1124 243.798 91.8623 241.05 91.8623 237.661C91.8623 234.272 89.1124 231.525 85.7201 231.525C82.3285 231.525 79.5786 234.272 79.5786 237.661C79.5786 241.05 82.3285 243.798 85.7201 243.798Z" fill="#E4E4E4" stroke="#2E2E2E" stroke-width="1.45451" stroke-miterlimit="10" stroke-linecap="round" stroke-dasharray="0.03 4.85"/>
<path d="M110.996 246.685C115.985 246.685 120.029 242.645 120.029 237.661C120.029 232.677 115.985 228.637 110.996 228.637C106.007 228.637 101.963 232.677 101.963 237.661C101.963 242.645 106.007 246.685 110.996 246.685Z" fill="#E4E4E4" stroke="#2E2E2E" stroke-width="0.727254" stroke-miterlimit="10"/>
<path d="M110.996 243.798C114.388 243.798 117.138 241.05 117.138 237.661C117.138 234.272 114.388 231.525 110.996 231.525C107.604 231.525 104.854 234.272 104.854 237.661C104.854 241.05 107.604 243.798 110.996 243.798Z" fill="#E4E4E4" stroke="#2E2E2E" stroke-width="1.45451" stroke-miterlimit="10" stroke-linecap="round" stroke-dasharray="0.03 4.85"/>
<path d="M136.271 246.685C141.26 246.685 145.304 242.645 145.304 237.661C145.304 232.677 141.26 228.637 136.271 228.637C131.283 228.637 127.239 232.677 127.239 237.661C127.239 242.645 131.283 246.685 136.271 246.685Z" fill="#E4E4E4" stroke="#2E2E2E" stroke-width="0.727254" stroke-miterlimit="10"/>
<path d="M136.271 243.798C139.664 243.798 142.414 241.05 142.414 237.661C142.414 234.272 139.664 231.525 136.271 231.525C132.879 231.525 130.129 234.272 130.129 237.661C130.129 241.05 132.879 243.798 136.271 243.798Z" fill="#E4E4E4" stroke="#2E2E2E" stroke-width="1.45451" stroke-miterlimit="10" stroke-linecap="round" stroke-dasharray="0.03 4.85"/>
<path d="M161.547 246.685C166.536 246.685 170.58 242.645 170.58 237.661C170.58 232.677 166.536 228.637 161.547 228.637C156.558 228.637 152.514 232.677 152.514 237.661C152.514 242.645 156.558 246.685 161.547 246.685Z" fill="#E4E4E4" stroke="#2E2E2E" stroke-width="0.727254" stroke-miterlimit="10"/>
<path d="M161.547 243.798C164.939 243.798 167.689 241.05 167.689 237.661C167.689 234.272 164.939 231.525 161.547 231.525C158.155 231.525 155.405 234.272 155.405 237.661C155.405 241.05 158.155 243.798 161.547 243.798Z" fill="#E4E4E4" stroke="#2E2E2E" stroke-width="1.45451" stroke-miterlimit="10" stroke-linecap="round" stroke-dasharray="0.03 4.85"/>
<path d="M186.823 246.685C191.811 246.685 195.855 242.645 195.855 237.661C195.855 232.677 191.811 228.637 186.823 228.637C181.834 228.637 177.79 232.677 177.79 237.661C177.79 242.645 181.834 246.685 186.823 246.685Z" fill="#E4E4E4" stroke="#2E2E2E" stroke-width="0.727254" stroke-miterlimit="10"/>
<path d="M186.823 243.798C190.214 243.798 192.964 241.05 192.964 237.661C192.964 234.272 190.214 231.525 186.823 231.525C183.431 231.525 180.681 234.272 180.681 237.661C180.681 241.05 183.431 243.798 186.823 243.798Z" fill="#E4E4E4" stroke="#2E2E2E" stroke-width="1.45451" stroke-miterlimit="10" stroke-linecap="round" stroke-dasharray="0.03 4.85"/>
<path d="M212.098 246.685C217.087 246.685 221.131 242.645 221.131 237.661C221.131 232.677 217.087 228.637 212.098 228.637C207.11 228.637 203.065 232.677 203.065 237.661C203.065 242.645 207.11 246.685 212.098 246.685Z" fill="#E4E4E4" stroke="#2E2E2E" stroke-width="0.727254" stroke-miterlimit="10"/>
<path d="M212.098 243.798C215.49 243.798 218.24 241.05 218.24 237.661C218.24 234.272 215.49 231.525 212.098 231.525C208.706 231.525 205.956 234.272 205.956 237.661C205.956 241.05 208.706 243.798 212.098 243.798Z" fill="#E4E4E4" stroke="#2E2E2E" stroke-width="1.45451" stroke-miterlimit="10" stroke-linecap="round" stroke-dasharray="0.03 4.85"/>
<path d="M237.373 246.685C242.362 246.685 246.406 242.645 246.406 237.661C246.406 232.677 242.362 228.637 237.373 228.637C232.385 228.637 228.341 232.677 228.341 237.661C228.341 242.645 232.385 246.685 237.373 246.685Z" fill="#E4E4E4" stroke="#2E2E2E" stroke-width="0.727254" stroke-miterlimit="10"/>
<path d="M237.373 243.798C240.766 243.798 243.516 241.05 243.516 237.661C243.516 234.272 240.766 231.525 237.373 231.525C233.982 231.525 231.232 234.272 231.232 237.661C231.232 241.05 233.982 243.798 237.373 243.798Z" fill="#E4E4E4" stroke="#2E2E2E" stroke-width="1.45451" stroke-miterlimit="10" stroke-linecap="round" stroke-dasharray="0.03 4.85"/>
<path d="M262.649 246.685C267.638 246.685 271.682 242.645 271.682 237.661C271.682 232.677 267.638 228.637 262.649 228.637C257.661 228.637 253.617 232.677 253.617 237.661C253.617 242.645 257.661 246.685 262.649 246.685Z" fill="#E4E4E4" stroke="#2E2E2E" stroke-width="0.727254" stroke-miterlimit="10"/>
<path d="M262.649 243.798C266.041 243.798 268.791 241.05 268.791 237.661C268.791 234.272 266.041 231.525 262.649 231.525C259.257 231.525 256.507 234.272 256.507 237.661C256.507 241.05 259.257 243.798 262.649 243.798Z" fill="#E4E4E4" stroke="#2E2E2E" stroke-width="1.45451" stroke-miterlimit="10" stroke-linecap="round" stroke-dasharray="0.03 4.85"/>
<path d="M287.925 246.685C292.913 246.685 296.957 242.645 296.957 237.661C296.957 232.677 292.913 228.637 287.925 228.637C282.936 228.637 278.892 232.677 278.892 237.661C278.892 242.645 282.936 246.685 287.925 246.685Z" fill="#E4E4E4" stroke="#2E2E2E" stroke-width="0.727254" stroke-miterlimit="10"/>
<path d="M287.925 243.798C291.317 243.798 294.067 241.05 294.067 237.661C294.067 234.272 291.317 231.525 287.925 231.525C284.532 231.525 281.783 234.272 281.783 237.661C281.783 241.05 284.532 243.798 287.925 243.798Z" fill="#E4E4E4" stroke="#2E2E2E" stroke-width="1.45451" stroke-miterlimit="10" stroke-linecap="round" stroke-dasharray="0.03 4.85"/>
<path d="M196.92 123.332H200.985C201.535 123.332 201.978 123.776 201.978 124.324V128.414H195.924V124.324C195.924 123.776 196.368 123.332 196.917 123.332H196.92Z" fill="#FFAC2E"/>
<path d="M198.955 125.875C194.316 125.875 190.558 129.632 190.558 134.263H207.355C207.355 129.629 203.593 125.875 198.958 125.875H198.955Z" fill="#FFAC2E"/>
<path d="M219.607 134.263H179.344C175.338 134.263 172.091 137.507 172.091 141.51V198.229C172.091 202.231 175.338 205.476 179.344 205.476H219.607C223.613 205.476 226.861 202.231 226.861 198.229V141.51C226.861 137.507 223.613 134.263 219.607 134.263Z" fill="white" stroke="#E4E4E4" stroke-width="0.969672" stroke-miterlimit="10"/>
<path d="M217.482 144.792H181.466C180.271 144.792 179.302 145.76 179.302 146.954V146.957C179.302 148.152 180.271 149.12 181.466 149.12H217.482C218.676 149.12 219.646 148.152 219.646 146.957V146.954C219.646 145.76 218.676 144.792 217.482 144.792Z" fill="#E4E4E4"/>
<path d="M217.482 153.621H181.466C180.271 153.621 179.302 154.589 179.302 155.783V155.786C179.302 156.981 180.271 157.948 181.466 157.948H217.482C218.676 157.948 219.646 156.981 219.646 155.786V155.783C219.646 154.589 218.676 153.621 217.482 153.621Z" fill="#E4E4E4"/>
<path d="M217.482 162.446H181.466C180.271 162.446 179.302 163.414 179.302 164.608V164.612C179.302 165.805 180.271 166.773 181.466 166.773H217.482C218.676 166.773 219.646 165.805 219.646 164.612V164.608C219.646 163.414 218.676 162.446 217.482 162.446Z" fill="#E4E4E4"/>
<path d="M202.929 171.275H181.466C180.271 171.275 179.302 172.243 179.302 173.437V173.44C179.302 174.634 180.271 175.603 181.466 175.603H202.929C204.125 175.603 205.093 174.634 205.093 173.44V173.437C205.093 172.243 204.125 171.275 202.929 171.275Z" fill="#E4E4E4"/>
<path d="M211.529 171.076H147.425V219.273H211.529V171.076Z" fill="white"/>
<path d="M211.528 171.076H147.341V201.84H211.528V171.076Z" fill="#E4E4E4"/>
<path d="M241.983 171.076H211.606V219.273H241.983V171.076Z" fill="#E4E4E4" stroke="#2E2E2E" stroke-width="0.727254" stroke-linecap="round" stroke-linejoin="round"/>
<path d="M241.983 171.076H211.529V219.273H241.983V171.076Z" stroke="#2E2E2E" stroke-width="0.727254" stroke-linecap="round" stroke-linejoin="round"/>
<path d="M211.529 171.076H147.425V219.273H211.529V171.076Z" stroke="#2E2E2E" stroke-width="0.727254" stroke-linecap="round" stroke-linejoin="round"/>
<path d="M241.983 171.076H211.606L222.662 189.177H253.039L241.983 171.076Z" fill="white" stroke="#2E2E2E" stroke-width="0.727254" stroke-linecap="round" stroke-linejoin="round"/>
<path d="M200.472 189.177H136.369L147.425 171.076H211.529L200.472 189.177Z" fill="white" stroke="#2E2E2E" stroke-width="0.727254" stroke-linecap="round" stroke-linejoin="round"/>
<path d="M272.457 0V70.411" stroke="#2E2E2E" stroke-width="0.727254" stroke-miterlimit="10"/>
<path d="M270.49 68.6172H274.555C275.104 68.6172 275.548 69.0608 275.548 69.6091V73.6986H269.494V69.6091C269.494 69.0608 269.937 68.6172 270.487 68.6172H270.49Z" fill="#FFAC2E"/>
<path d="M272.521 71.1597C267.882 71.1597 264.125 74.9174 264.125 79.548H280.921C280.921 74.9139 277.16 71.1597 272.524 71.1597H272.521Z" fill="#FFAC2E"/>
<path d="M293.173 79.5483H252.91C248.904 79.5483 245.657 82.7926 245.657 86.7954V143.515C245.657 147.517 248.904 150.761 252.91 150.761H293.173C297.179 150.761 300.427 147.517 300.427 143.515V86.7954C300.427 82.7926 297.179 79.5483 293.173 79.5483Z" fill="white" stroke="#E4E4E4" stroke-width="0.969672" stroke-miterlimit="10"/>
<path d="M291.051 90.0776H255.036C253.84 90.0776 252.872 91.0457 252.872 92.2393V92.2429C252.872 93.4372 253.84 94.4046 255.036 94.4046H291.051C292.246 94.4046 293.215 93.4372 293.215 92.2429V92.2393C293.215 91.0457 292.246 90.0776 291.051 90.0776Z" fill="#E4E4E4"/>
<path d="M291.051 98.9067H255.036C253.84 98.9067 252.872 99.8741 252.872 101.068V101.072C252.872 102.266 253.84 103.234 255.036 103.234H291.051C292.246 103.234 293.215 102.266 293.215 101.072V101.068C293.215 99.8741 292.246 98.9067 291.051 98.9067Z" fill="#E4E4E4"/>
</svg>
