<svg width="116" height="141" viewBox="0 0 116 141" fill="none" xmlns="http://www.w3.org/2000/svg">
    <path d="M76.0205 136.448C76.0205 136.448 60.2053 136.676 45.7267 136.448C31.6118 136.223 19.7744 133.257 13.6472 127.369C-7.80324 106.763 5.09628 90.8554 5.09628 90.8554C5.09628 90.8554 8.22225 86.3465 13.6472 87.8685C19.0722 89.3905 20.441 96.48 20.0774 104.564C19.7103 112.648 24.2335 120.771 32.7239 123.274C42.2301 126.075 55.2722 125.355 55.2722 125.355L77.0541 128.731L76.0205 136.444V136.448Z" fill="#6D4AFF"/>
    <path d="M11.4412 87.5561C12.1256 87.5561 12.8634 87.6488 13.6476 87.8698C19.0725 89.3918 20.4413 96.4814 20.0777 104.565C19.7141 112.649 24.2338 120.773 32.7242 123.275C38.9975 125.125 46.8106 125.438 51.398 125.438C53.7647 125.438 55.2725 125.356 55.2725 125.356L77.0544 128.732L76.0208 136.445C76.0208 136.445 68.9918 136.549 60.0167 136.549C55.5291 136.549 50.5532 136.524 45.727 136.445C31.6121 136.221 19.7747 133.255 13.6476 127.367C-7.80293 106.761 5.09658 90.8532 5.09658 90.8532C5.09658 90.8532 7.38492 87.5526 11.4412 87.5526M11.4412 86.3086C6.98927 86.3086 4.41222 89.6698 4.09856 90.1047C3.74925 90.5467 0.630407 94.6707 0.0814914 101.283C-0.249997 105.285 0.430802 109.377 2.10606 113.444C4.16984 118.459 7.76275 123.446 12.7814 128.269C18.8587 134.107 30.5534 137.454 45.7057 137.696C49.9829 137.764 54.7948 137.8 60.0131 137.8C68.8956 137.8 75.9637 137.7 76.035 137.696L77.1115 137.682L77.254 136.616L78.2877 128.903L78.4481 127.691L77.2398 127.502L55.4578 124.127L55.3295 124.105L55.1976 124.112C55.1976 124.112 53.6899 124.194 51.3909 124.194C47.2241 124.194 39.3076 123.92 33.0699 122.081C29.3344 120.979 26.2405 118.648 24.1233 115.344C22.1415 112.247 21.1435 108.44 21.3181 104.626C21.7886 94.2108 19.3185 88.1692 13.979 86.6722C13.1272 86.4333 12.2717 86.3122 11.4376 86.3122L11.4412 86.3086Z" fill="#4129A3"/>
    <mask id="mask0_2_817" style="mask-type:luminance" maskUnits="userSpaceOnUse" x="1" y="87" width="77" height="50">
        <path d="M76.0205 136.448C76.0205 136.448 60.2053 136.676 45.7267 136.448C31.6118 136.223 19.7744 133.257 13.6472 127.369C-7.80324 106.763 5.09628 90.8554 5.09628 90.8554C5.09628 90.8554 8.22225 86.3465 13.6472 87.8685C19.0722 89.3905 20.441 96.48 20.0774 104.564C19.7103 112.648 24.2335 120.771 32.7239 123.274C42.2301 126.075 55.2722 125.355 55.2722 125.355L77.0541 128.731L76.0205 136.444V136.448Z" fill="white"/>
    </mask>
    <g mask="url(#mask0_2_817)">
        <path d="M31.2097 69.5328C18.1141 69.5328 10.9425 60.9141 10.9425 60.9141C10.9425 60.9141 3.771 69.5328 -9.32456 69.5328C-9.32456 69.5328 -11.506 95.0538 10.9425 108.773C33.3946 95.0538 31.2097 69.5328 31.2097 69.5328Z" fill="#4129A3"/>
    </g>
    <path d="M106.557 132.839C113.112 128.262 117.792 114.468 110.748 99.127C105.434 87.5535 103.666 80.0469 103.666 80.0469L86.0649 98.0649L89.9145 131.028" fill="#6D4AFF"/>
    <path d="M46.8536 132.839C40.2987 128.262 35.6186 114.468 42.6619 99.127C47.9764 87.5535 49.7443 80.0469 49.7443 80.0469L67.3452 98.0649L63.4957 131.028" fill="#6D4AFF"/>
    <path d="M101.317 62.8008H55.939V135.942H101.317V62.8008Z" fill="#6D4AFF"/>
    <path d="M70.1213 136.65C70.1213 136.65 61.2246 126.673 52.5702 127.636C43.9159 128.598 44.504 133.948 44.504 133.948C44.504 133.948 44.5967 136.65 47.327 136.65C50.7381 136.65 70.1177 136.65 70.1177 136.65H70.1213Z" fill="#4129A3"/>
    <path d="M83.2847 136.65C83.2847 136.65 92.1814 126.673 100.836 127.636C109.49 128.598 108.902 133.948 108.902 133.948C108.902 133.948 108.809 136.65 106.079 136.65H83.2882H83.2847Z" fill="#4129A3"/>
    <path d="M101.317 62.8012C101.317 62.8012 109.939 72.5748 96.876 101.974C96.876 101.974 90.4423 114.292 89.8684 130.125C89.8684 130.125 89.8435 130.988 89.9148 131.034C92.5667 132.845 92.253 134.845 91.7754 135.942C90.3318 139.243 80.6295 140.305 77.2291 136.128C76.6481 135.415 76.7051 134.934 76.7051 133.134C76.7051 131.933 76.7051 124.255 76.7051 115.205V62.3984L101.317 62.8012Z" fill="#6D4AFF"/>
    <mask id="mask1_2_817" style="mask-type:luminance" maskUnits="userSpaceOnUse" x="76" y="62" width="29" height="77">
        <path d="M101.317 62.8012C101.317 62.8012 109.939 72.5748 96.876 101.974C96.876 101.974 90.4423 114.292 89.8684 130.125C89.8684 130.125 89.8435 130.988 89.9148 131.034C92.5667 132.845 92.253 134.845 91.7754 135.942C90.3318 139.243 80.6295 140.305 77.2291 136.128C76.6481 135.415 76.7051 134.934 76.7051 133.134C76.7051 131.933 76.7051 124.255 76.7051 115.205V62.3984L101.317 62.8012Z" fill="white"/>
    </mask>
    <g mask="url(#mask1_2_817)">
        <path d="M70.3429 121.901C78.9687 121.983 83.7485 116.352 83.7485 116.352C83.7485 116.352 88.4179 122.072 97.0437 122.154C97.0437 122.154 98.3197 138.978 83.4455 147.875C68.746 138.697 70.3429 121.901 70.3429 121.901Z" fill="#4129A3"/>
    </g>
    <path d="M52.0926 62.8012C52.0926 62.8012 43.4703 72.5748 56.5338 101.974C56.5338 101.974 62.9675 114.292 63.5414 130.125C63.5414 130.125 63.5663 130.988 63.4951 131.034C60.8432 132.845 61.1568 134.845 61.6344 135.942C63.078 139.243 72.7803 140.305 76.1807 136.128C76.7617 135.415 76.7047 134.934 76.7047 133.134V62.3984L52.0926 62.8012Z" fill="#6D4AFF"/>
    <mask id="mask2_2_817" style="mask-type:luminance" maskUnits="userSpaceOnUse" x="49" y="62" width="28" height="77">
        <path d="M52.0926 62.8012C52.0926 62.8012 43.4703 72.5748 56.5338 101.974C56.5338 101.974 62.9675 114.292 63.5414 130.125C63.5414 130.125 63.5663 130.988 63.4951 131.034C60.8432 132.845 61.1568 134.845 61.6344 135.942C63.078 139.243 72.7803 140.305 76.1807 136.128C76.7617 135.415 76.7047 134.934 76.7047 133.134V62.3984L52.0926 62.8012Z" fill="white"/>
    </mask>
    <g mask="url(#mask2_2_817)">
        <path d="M83.0636 121.901C74.4378 121.983 69.658 116.352 69.658 116.352C69.658 116.352 64.9886 122.072 56.3628 122.154C56.3628 122.154 55.0868 138.978 69.961 147.875C84.6605 138.697 83.0636 121.901 83.0636 121.901Z" fill="#4129A3"/>
    </g>
    <path d="M101.317 54.3242H52.0928V62.7968C52.1997 62.8538 52.3031 62.9108 52.4136 62.9643C61.1784 67.4269 71.3939 68.0934 76.7049 68.0934C82.0158 68.0934 92.2313 67.4269 100.996 62.9643C101.103 62.9108 101.21 62.8502 101.317 62.7968V54.3242Z" fill="#4129A3"/>
    <path d="M66.5038 14.2471L58.7726 9.28195C56.0922 7.56035 52.535 9.22136 52.1286 12.3794L50.2573 26.9506L66.5074 14.2471H66.5038Z" fill="#6D4AFF"/>
    <path d="M56.6373 15.1384L60.3906 17.5514L54.2705 21.6648L55.0119 15.894C55.1117 15.1205 55.9814 14.7178 56.6337 15.1384H56.6373Z" fill="#4A2DC5"/>
    <path d="M76.7046 12.3164C58.8292 12.3164 44.3364 27.3474 44.3364 42.2181C44.3364 57.0887 61.9837 62.3889 76.7046 62.3889C91.4256 62.3889 109.073 57.0887 109.073 42.2181C109.073 27.3474 94.58 12.3164 76.7046 12.3164Z" fill="#6D4AFF"/>
    <path d="M95.4582 48.1401C100.811 45.8317 103.489 40.1095 101.44 35.3591C99.391 30.6087 93.3912 28.6291 88.0389 30.9375C82.6866 33.2459 80.0085 38.9681 82.0573 43.7185C84.1061 48.4689 90.1059 50.4485 95.4582 48.1401Z" fill="white"/>
    <path d="M71.3485 43.7151C73.3973 38.9647 70.7192 33.2425 65.3669 30.9341C60.0146 28.6257 54.0148 30.6053 51.966 35.3557C49.9172 40.1061 52.5953 45.8284 57.9476 48.1368C63.2999 50.4452 69.2997 48.4655 71.3485 43.7151Z" fill="white"/>
    <path d="M88.774 46.7942C90.7248 46.7942 92.3063 44.217 92.3063 41.0377C92.3063 37.8585 90.7248 35.2812 88.774 35.2812C86.8232 35.2812 85.2417 37.8585 85.2417 41.0377C85.2417 44.217 86.8232 46.7942 88.774 46.7942Z" fill="#4129A3"/>
    <path d="M71.6685 37.8181C68.7279 30.6715 57.9706 27.9412 53.1337 34.5211C51.626 36.6098 51.2588 39.3116 51.8434 41.8459C49.7867 37.9892 51.3408 33.0347 55.0442 30.782C61.093 26.8291 70.4673 30.643 71.6685 37.8217V37.8181Z" fill="#372480"/>
    <path d="M81.7417 37.8162C82.9429 30.6376 92.3172 26.8272 98.366 30.7766C102.069 33.0293 103.623 37.9873 101.567 41.8404C102.155 39.3097 101.784 36.6044 100.277 34.5156C95.4396 27.9358 84.6823 30.6661 81.7417 37.8127V37.8162Z" fill="#6D4AFF"/>
    <path d="M74.563 47.918C75.7464 47.918 76.7016 48.8768 76.7016 50.0566" stroke="white" stroke-width="2.42213" stroke-miterlimit="10" stroke-linecap="round"/>
    <path d="M78.8437 47.918C77.6603 47.918 76.7051 48.8768 76.7051 50.0566" stroke="white" stroke-width="2.42213" stroke-miterlimit="10" stroke-linecap="round"/>
    <path opacity="0.7" d="M90.9268 38.6076C91.6631 38.6076 92.2599 38.0107 92.2599 37.2745C92.2599 36.5382 91.6631 35.9414 90.9268 35.9414C90.1906 35.9414 89.5938 36.5382 89.5938 37.2745C89.5938 38.0107 90.1906 38.6076 90.9268 38.6076Z" fill="white"/>
    <path d="M59.3892 46.7942C61.3401 46.7942 62.9216 44.217 62.9216 41.0377C62.9216 37.8585 61.3401 35.2812 59.3892 35.2812C57.4384 35.2812 55.8569 37.8585 55.8569 41.0377C55.8569 44.217 57.4384 46.7942 59.3892 46.7942Z" fill="#4129A3"/>
    <path opacity="0.7" d="M61.5416 38.6076C62.2778 38.6076 62.8747 38.0107 62.8747 37.2745C62.8747 36.5382 62.2778 35.9414 61.5416 35.9414C60.8053 35.9414 60.2085 36.5382 60.2085 37.2745C60.2085 38.0107 60.8053 38.6076 61.5416 38.6076Z" fill="white"/>
    <path d="M95.4582 48.1401C100.811 45.8317 103.489 40.1095 101.44 35.3591C99.391 30.6087 93.3912 28.6291 88.0389 30.9375C82.6866 33.2459 80.0085 38.9681 82.0573 43.7185C84.1061 48.4689 90.1059 50.4485 95.4582 48.1401Z" fill="white"/>
    <path d="M88.1783 46.7864C90.1291 46.7864 91.7106 44.2091 91.7106 41.0299C91.7106 37.8507 90.1291 35.2734 88.1783 35.2734C86.2275 35.2734 84.646 37.8507 84.646 41.0299C84.646 44.2091 86.2275 46.7864 88.1783 46.7864Z" fill="#4129A3"/>
    <path d="M79.5884 38.347C79.5884 38.347 84.9207 39.0029 88.9984 36.6682C93.3754 34.1624 95.4499 30.6123 102.023 31.6175L98.4975 26.1461L81.3563 25.7148L79.5884 27.7038V38.347Z" fill="#6D4AFF"/>
    <path opacity="0.7" d="M90.3316 38.6076C91.0679 38.6076 91.6647 38.0107 91.6647 37.2745C91.6647 36.5382 91.0679 35.9414 90.3316 35.9414C89.5954 35.9414 88.9985 36.5382 88.9985 37.2745C88.9985 38.0107 89.5954 38.6076 90.3316 38.6076Z" fill="white"/>
    <path d="M80.5088 38.4142C90.8419 37.5624 91.2982 31.4815 97.9386 31.4922C98.8832 31.5172 99.8064 31.6312 100.705 31.8665C98.8725 32.0803 97.0725 32.3227 95.5576 33.0784C94.0428 33.7984 92.7917 35.0602 91.2518 36.1615C88.2613 38.4356 84.1445 39.4479 80.5088 38.4142Z" fill="#372480"/>
    <path d="M95.5459 128.253C100.058 126.556 106.51 127.226 109.515 131.383L108.606 131.946C106.014 127.993 99.8624 127.184 95.5459 128.253Z" fill="#4129A3"/>
    <path d="M57.8141 128.253C53.5011 127.184 47.3454 127.993 44.7541 131.946L43.8452 131.383C46.85 127.226 53.298 126.556 57.8141 128.253Z" fill="#4129A3"/>
    <path d="M101.317 54.3242H52.0928V62.7968C52.1997 62.8538 52.3031 62.9108 52.4136 62.9643C61.1784 67.4269 71.3939 68.0934 76.7049 68.0934C82.0158 68.0934 92.2313 67.4269 100.996 62.9643C101.103 62.9108 101.21 62.8502 101.317 62.7968V54.3242Z" fill="#4129A3"/>
    <path d="M66.5038 14.2471L58.7726 9.28195C56.0922 7.56035 52.535 9.22136 52.1286 12.3794L50.2573 26.9506L66.5074 14.2471H66.5038Z" fill="#6D4AFF"/>
    <path d="M56.6373 15.1384L60.3906 17.5514L54.2705 21.6648L55.0119 15.894C55.1117 15.1205 55.9814 14.7178 56.6337 15.1384H56.6373Z" fill="#4A2DC5"/>
    <path d="M76.7046 12.3164C58.8292 12.3164 44.3364 27.3474 44.3364 42.2181C44.3364 57.0887 61.9837 62.3889 76.7046 62.3889C91.4256 62.3889 109.073 57.0887 109.073 42.2181C109.073 27.3474 94.58 12.3164 76.7046 12.3164Z" fill="#6D4AFF"/>
    <path d="M95.4582 48.1401C100.811 45.8317 103.489 40.1095 101.44 35.3591C99.391 30.6087 93.3912 28.6291 88.0389 30.9375C82.6866 33.2459 80.0085 38.9681 82.0573 43.7185C84.1061 48.4689 90.1059 50.4485 95.4582 48.1401Z" fill="white"/>
    <path d="M71.3485 43.7151C73.3973 38.9647 70.7192 33.2425 65.3669 30.9341C60.0146 28.6257 54.0148 30.6053 51.966 35.3557C49.9172 40.1061 52.5953 45.8284 57.9476 48.1368C63.2999 50.4452 69.2997 48.4655 71.3485 43.7151Z" fill="white"/>
    <path d="M93.5684 44.1927C95.5193 44.1927 97.1007 41.6154 97.1007 38.4362C97.1007 35.257 95.5193 32.6797 93.5684 32.6797C91.6176 32.6797 90.0361 35.257 90.0361 38.4362C90.0361 41.6154 91.6176 44.1927 93.5684 44.1927Z" fill="#4129A3"/>
    <path d="M71.6685 37.8181C68.7279 30.6715 57.9706 27.9412 53.1337 34.5211C51.626 36.6098 51.2588 39.3116 51.8434 41.8459C49.7867 37.9892 51.3408 33.0347 55.0442 30.782C61.093 26.8291 70.4673 30.643 71.6685 37.8217V37.8181Z" fill="#372480"/>
    <path d="M81.7417 37.8162C82.9429 30.6376 92.3172 26.8272 98.366 30.7766C102.069 33.0293 103.623 37.9873 101.567 41.8404C102.155 39.3097 101.784 36.6044 100.277 34.5156C95.4396 27.9358 84.6823 30.6661 81.7417 37.8127V37.8162Z" fill="#372480"/>
    <path d="M74.563 47.918C75.7464 47.918 76.7016 48.8768 76.7016 50.0566" stroke="white" stroke-width="1.42" stroke-miterlimit="10" stroke-linecap="round"/>
    <path d="M78.8437 47.918C77.6603 47.918 76.7051 48.8768 76.7051 50.0566" stroke="white" stroke-width="1.42" stroke-miterlimit="10" stroke-linecap="round"/>
    <path opacity="0.7" d="M95.7208 36.006C96.457 36.006 97.0539 35.4092 97.0539 34.6729C97.0539 33.9367 96.457 33.3398 95.7208 33.3398C94.9845 33.3398 94.3877 33.9367 94.3877 34.6729C94.3877 35.4092 94.9845 36.006 95.7208 36.006Z" fill="white"/>
    <path d="M64.1798 44.1927C66.1306 44.1927 67.7121 41.6154 67.7121 38.4362C67.7121 35.257 66.1306 32.6797 64.1798 32.6797C62.2289 32.6797 60.6475 35.257 60.6475 38.4362C60.6475 41.6154 62.2289 44.1927 64.1798 44.1927Z" fill="#4129A3"/>
    <path opacity="0.7" d="M66.336 36.006C67.0722 36.006 67.6691 35.4092 67.6691 34.6729C67.6691 33.9367 67.0722 33.3398 66.336 33.3398C65.5998 33.3398 65.0029 33.9367 65.0029 34.6729C65.0029 35.4092 65.5998 36.006 66.336 36.006Z" fill="white"/>
    <path d="M78.0416 77.6535C81.896 77.6535 85.0206 74.5288 85.0206 70.6744C85.0206 66.8199 81.896 63.6953 78.0416 63.6953C74.1871 63.6953 71.0625 66.8199 71.0625 70.6744C71.0625 74.5288 74.1871 77.6535 78.0416 77.6535Z" fill="#FC8F00"/>
    <path d="M76.7049 77.6562H78.0415V63.7017H76.7049V77.6562Z" fill="#FC8F00"/>
    <path d="M76.7051 77.6535C80.5596 77.6535 83.6842 74.5288 83.6842 70.6744C83.6842 66.8199 80.5596 63.6953 76.7051 63.6953C72.8507 63.6953 69.7261 66.8199 69.7261 70.6744C69.7261 74.5288 72.8507 77.6535 76.7051 77.6535Z" fill="#FFAC2E"/>
    <path d="M76.7054 71.8219C77.9042 71.8219 78.8761 70.85 78.8761 69.6512C78.8761 68.4523 77.9042 67.4805 76.7054 67.4805C75.5065 67.4805 74.5347 68.4523 74.5347 69.6512C74.5347 70.85 75.5065 71.8219 76.7054 71.8219Z" fill="#372580"/>
    <path d="M76.7051 73.0456V69.6523" stroke="#372580" stroke-width="5.4837" stroke-miterlimit="10" stroke-linecap="round"/>
    <path d="M61.3319 115.285C62.4333 119.584 63.3458 124.677 63.5454 130.191C63.5454 130.191 63.5668 130.986 63.4955 131.033C60.8436 132.843 61.1572 134.843 61.6349 135.941C63.0784 139.241 73.6326 140.179 76.1811 136.126C76.6694 135.349 76.7051 134.932 76.7051 133.132V115.203" stroke="#4129A3" stroke-width="1.39" stroke-miterlimit="10"/>
    <path d="M54.5991 97.4688C55.7504 100.056 57.5789 103.539 58.691 106.102C59.96 109.035 61.0328 112.054 61.9382 115.13L60.7299 115.44C60.0384 112.361 59.1794 109.313 58.11 106.33C57.1797 103.731 55.5686 100.096 54.5991 97.4688Z" fill="#4129A3"/>
    <path d="M49.6548 79.3516C49.8259 82.0997 50.3356 84.8621 50.9629 87.5889C49.94 84.9797 49.0168 82.3136 48.418 79.5191L49.6548 79.3516Z" fill="#4129A3"/>
    <path d="M92.0749 115.285C90.9735 119.584 90.061 124.677 89.8614 130.191C89.8614 130.191 89.84 130.986 89.9113 131.033C92.5632 132.843 92.2495 134.843 91.7719 135.941C90.3283 139.241 79.7742 140.179 77.2256 136.126C76.7373 135.349 76.7017 134.932 76.7017 133.132C76.7017 131.931 76.7017 124.253 76.7017 115.203" stroke="#4129A3" stroke-width="1.39" stroke-miterlimit="10"/>
    <path d="M98.8078 97.4688C97.8312 100.114 96.2308 103.721 95.2969 106.33C94.2311 109.313 93.3686 112.361 92.6771 115.44L91.4688 115.13C92.3741 112.054 93.447 109.032 94.7159 106.102C95.8209 103.553 97.6601 100.039 98.8078 97.4688Z" fill="#4129A3"/>
    <path d="M104.992 79.5191C104.389 82.3136 103.47 84.9797 102.447 87.5889C103.074 84.8585 103.584 82.0961 103.755 79.3516L104.992 79.5191Z" fill="#4129A3"/>
    <path d="M76.0815 115.201L76.6804 90.0859L77.3291 115.201H76.0815Z" fill="#4129A3"/>
    <path d="M72.6949 1.24754C78.5726 1.24754 87.9719 4.55885 95.9775 9.63098C96.8721 8.54027 98.2088 7.39254 100.073 6.96125C100.141 6.94699 100.208 6.93986 100.276 6.93986C100.682 6.93986 101.046 7.21789 101.142 7.63135C101.253 8.11255 100.953 8.59018 100.476 8.70067C99.1712 9.00364 98.1838 9.81276 97.4852 10.6183C102.468 13.9938 106.756 18.0465 109.073 22.3772C114.48 32.493 109.943 33.4161 108.1 33.4161C107.686 33.4161 107.408 33.3698 107.408 33.3698C108.488 36.2463 109.073 39.2368 109.073 42.2237C109.073 48.4436 105.986 52.9882 101.317 56.1712V62.801C101.317 62.801 105.434 67.4703 103.666 80.0526C103.666 80.0526 105.434 87.5592 110.748 99.1328C117.161 113.102 113.849 125.787 108.26 131.398C109.034 132.759 108.902 133.953 108.902 133.953C108.902 133.953 108.809 136.655 106.079 136.655H91.301C90.0855 138.024 87.3231 138.858 84.4823 138.858C81.6415 138.858 78.79 138.045 77.2288 136.128C76.7868 135.586 76.7155 135.176 76.7048 134.217C76.6941 135.176 76.6229 135.586 76.1809 136.128C74.6197 138.045 71.7361 138.858 68.9273 138.858C66.1186 138.858 63.3241 138.024 62.1087 136.655H47.3307C44.5968 136.655 44.5077 133.953 44.5077 133.953C44.5077 133.953 44.3794 132.759 45.1493 131.398C39.5568 125.787 36.2455 113.102 42.6614 99.1328C47.9759 87.5592 49.7438 80.0526 49.7438 80.0526C47.9794 67.4703 52.0927 62.801 52.0927 62.801V56.1712C47.4234 52.9882 44.3366 48.4436 44.3366 42.2237C44.3366 36.3461 46.6036 30.4399 50.446 25.4497L52.1248 12.3791C52.4171 10.0908 54.3668 8.59018 56.4377 8.59018C57.2255 8.59018 58.031 8.8076 58.7688 9.28167L66.2434 14.0793C66.3146 14.0544 66.3895 14.0294 66.4608 14.0045C66.2255 12.5395 65.1526 4.75133 68.2038 2.37745C69.2018 1.60397 70.7559 1.24397 72.6949 1.24397M63.4952 131.034C63.5273 131.013 63.5416 130.82 63.5451 130.617L63.4952 131.034ZM89.9144 131.034L89.8646 130.617C89.8681 130.82 89.8788 131.013 89.9144 131.034ZM72.6949 0C70.3994 0 68.6315 0.470499 67.4374 1.39724C64.7641 3.47528 64.6679 8.47611 64.9352 11.7625L59.4389 8.23374C58.5336 7.65274 57.4928 7.34264 56.4342 7.34264C53.629 7.34264 51.2408 9.4385 50.8844 12.2187L49.2484 24.9578C45.2741 30.2296 43.0855 36.3461 43.0855 42.2202C43.0855 48.0943 45.6947 53.1023 50.8416 56.8163V62.3839C49.8614 63.8132 46.9921 69.0672 48.4713 79.9777C48.1398 81.2823 46.2222 88.3719 41.5243 98.6088C38.4946 105.21 37.3326 112.107 38.1631 118.555C38.8332 123.741 40.8186 128.45 43.6558 131.633C43.2032 132.809 43.2352 133.768 43.2566 134.028C43.3243 135.596 44.4578 137.899 47.3272 137.899H61.5918C63.1423 139.268 65.8762 140.102 68.9238 140.102C72.1994 140.102 74.9868 139.125 76.7013 137.404C78.4157 139.125 81.2031 140.102 84.4788 140.102C87.5227 140.102 90.2602 139.268 91.8107 137.899H106.075C108.945 137.899 110.075 135.6 110.146 134.028C110.167 133.764 110.203 132.809 109.747 131.633C112.584 128.45 114.573 123.741 115.239 118.555C116.07 112.107 114.908 105.21 111.878 98.6088C107.18 88.3754 105.263 81.2823 104.931 79.9777C106.414 69.0422 103.548 63.8132 102.561 62.3839V56.8163C107.708 53.1023 110.317 48.1941 110.317 42.2202C110.317 39.6895 109.921 37.1231 109.137 34.5781C110.509 34.3536 111.586 33.6728 112.228 32.6035C113.553 30.39 112.88 26.8505 110.171 21.7855C108.107 17.9253 104.425 14.0366 99.4741 10.4793C99.8805 10.2013 100.308 10.0124 100.754 9.909C101.901 9.64523 102.621 8.49394 102.358 7.34264C102.133 6.366 101.274 5.6852 100.276 5.6852C100.116 5.6852 99.9553 5.70302 99.7949 5.73867C98.3086 6.08085 96.9327 6.86145 95.7601 8.01631C87.8578 3.20082 78.7009 0 72.6949 0Z" fill="#4129A3"/>
    <path d="M95.3647 13.2085C95.2542 13.2085 95.1437 13.1871 95.0367 13.1443C94.5805 12.9625 94.3559 12.4457 94.5377 11.9895C94.6054 11.8219 96.213 7.84763 100.073 6.95654C100.554 6.84604 101.032 7.14545 101.143 7.62308C101.253 8.10427 100.954 8.5819 100.476 8.69239C97.5389 9.36963 96.2094 12.6132 96.1952 12.6453C96.0562 12.9946 95.7211 13.2049 95.3647 13.2049V13.2085Z" fill="#372480"/>
    <path d="M66.5038 14.2474C66.5038 14.2474 64.8321 5.00492 68.2076 2.38153C74.349 -2.39475 101.702 8.5907 109.073 22.3742C115.692 34.7569 107.409 33.3668 107.409 33.3668C107.409 33.3668 95.3646 16.4359 66.5038 14.2438V14.2474Z" fill="#372480"/>
    <path d="M65.5487 25.1163C65.4881 24.4177 65.9586 23.9864 66.5895 23.8046C67.0707 23.6656 67.7266 23.8046 68.0188 23.2985C68.3432 22.746 67.9618 22.3004 67.919 21.7979C67.8192 20.5503 68.7068 20.3186 68.8351 19.3634C68.8636 19.1424 68.8351 18.9036 68.8672 18.679C69.081 17.1356 70.881 16.38 72.2426 16.936C73.5009 17.4529 73.6969 18.9321 74.8054 19.4489C75.9995 20.005 77.1437 19.1852 78.491 20.1012C80.1378 21.2169 79.8597 23.5301 78.1595 24.4498C77.2898 24.9203 76.0066 24.6387 75.7856 25.986C75.5896 27.173 76.6874 28.1068 75.7642 29.1904C74.9266 30.1777 74.0034 29.4078 73.0268 29.4648C72.4636 29.5005 71.9183 29.8427 71.3765 29.9389C70.0577 30.1706 69.024 29.0835 69.1773 27.7718C69.2521 27.1373 69.7084 26.4922 69.0988 25.8898C68.3717 25.1733 67.6303 26.182 66.8925 26.2284C66.2081 26.2712 65.6093 25.8078 65.5487 25.1127V25.1163Z" fill="#FFAC2E"/>
    <path d="M75.9888 24.3786C76.2739 24.3109 76.4771 24.7101 76.5199 25.2732C76.584 26.1323 76.1991 27.6543 76.1313 28.6594C75.9995 30.659 76.8086 32.4662 76.4307 34.4373C76.0779 36.2729 74.8874 35.749 74.8838 33.9062C74.8802 31.9208 75.668 30.3169 75.5753 28.2745C75.5325 27.3085 75.3329 26.6384 75.422 25.5833C75.4684 25.0059 75.7036 24.4499 75.9923 24.3821L75.9888 24.3786Z" fill="#FFAC2E"/>
</svg>
