<svg width="155" height="147" viewBox="0 0 155 147" fill="none" xmlns="http://www.w3.org/2000/svg">
    <path d="M42.2559 129.446H25.8295L8.99208 78.5605H42.2559V129.446Z" fill="#E7E1FF" />
    <path
        d="M71.7878 144.203C71.7878 144.203 89.329 144.456 105.388 144.203C121.043 143.953 134.172 140.662 140.968 134.127C164.76 111.258 150.452 93.6023 150.452 93.6023C150.452 93.6023 146.985 88.5981 140.968 90.2872C134.951 91.9764 133.433 99.8448 133.836 108.817C134.243 117.789 129.227 126.804 119.81 129.582C109.266 132.691 94.8005 131.892 94.8005 131.892L70.6413 135.638L71.7878 144.199V144.203Z"
        fill="url(#paint0_linear_11866_27622)"
    />
    <path d="M28.2999 136.824H54.0325V145.385H28.2999V136.824Z" fill="#E7E1FF" />
    <path d="M44.6371 107.736H73.311V141.528H44.6371V107.736Z" fill="#E7E1FF" />
    <path
        d="M63.8458 63.1916C63.8458 63.1916 67.9771 78.2321 78.8054 83.7269C109.329 99.2144 105.767 121.534 105.767 121.534L77.7736 112.558L56.0102 119.607L30.8666 114.631L29.0009 59.4832L62.141 55.77L63.8458 63.1916Z"
        fill="#E7E1FF"
    />
    <path
        d="M49.8805 118.053C49.8805 132.939 61.9423 145.009 76.8189 145.009C91.6955 145.009 104.232 139.969 105.347 121.534C106.244 106.672 91.6955 91.0972 76.8189 91.0972C61.9423 91.0972 49.8805 103.167 49.8805 118.053Z"
        fill="#E7E1FF"
    />
    <path
        d="M29.5647 130.189C29.5647 130.189 42.6188 142.769 49.9207 144.256V140.063C49.9207 140.063 44.9196 132.895 44.6468 127.887C44.378 122.882 34.8306 124.504 34.8306 124.504L29.5647 130.185V130.189Z"
        fill="#E7E1FF"
    />
    <path
        d="M27.5769 97.489C23.3018 97.489 19.8362 94.0211 19.8362 89.7433C19.8362 85.4654 23.3018 81.9976 27.5769 81.9976C31.852 81.9976 35.3176 85.4654 35.3176 89.7433C35.3176 94.0211 31.852 97.489 27.5769 97.489Z"
        fill="#FFAC2E"
    />
    <path
        d="M27.5775 91.0183C26.2478 91.0183 25.1699 89.9397 25.1699 88.6091C25.1699 87.2786 26.2478 86.2 27.5775 86.2C28.9072 86.2 29.9851 87.2786 29.9851 88.6091C29.9851 89.9397 28.9072 91.0183 27.5775 91.0183Z"
        fill="#372480"
    />
    <path
        d="M27.5769 92.3806V88.6106"
        stroke="#372480"
        stroke-width="4.40769"
        stroke-miterlimit="10"
        stroke-linecap="round"
    />
    <path
        d="M55.2625 104.593C55.2625 104.593 53.7404 125.796 37.1125 143.246C37.1125 143.246 34.78 146.569 27.2764 146.569C20.2789 146.569 19.5713 143.958 19.5713 143.958C19.5713 143.958 17.5432 139.8 23.6275 137.668C23.6275 137.668 29.3045 136.45 30.0161 107.737"
        fill="#E7E1FF"
    />
    <mask
        id="mask0_11866_27622"
        style="mask-type: luminance"
        maskUnits="userSpaceOnUse"
        x="19"
        y="104"
        width="37"
        height="43"
    >
        <path
            d="M55.2617 104.593C55.2617 104.593 53.7397 125.796 37.1117 143.246C37.1117 143.246 34.7792 146.569 27.2757 146.569C20.2782 146.569 19.5705 143.958 19.5705 143.958C19.5705 143.958 17.5425 139.8 23.6267 137.668C23.6267 137.668 29.3038 136.45 30.0154 107.737"
            fill="white"
        />
    </mask>
    <g mask="url(#mask0_11866_27622)">
        <path
            d="M34.8263 124.507C34.8263 124.507 38.0602 130.919 46.4453 130.943L42.6422 142.225L29.3311 152.238L12.0627 145.746L27.4374 130.737C27.4374 130.737 33.0038 130.326 34.8263 124.511V124.507Z"
            fill="#E7E1FF"
        />
    </g>
    <path
        d="M29.4789 121.578C29.894 116.965 30.0166 112.349 30.0126 107.736C29.7754 112.341 29.4077 116.942 28.7554 121.495L29.4789 121.578Z"
        fill="#A094CF"
    />
    <path
        d="M55.2625 104.593C54.7564 108.505 53.7206 112.334 52.4595 116.065L53.1553 116.278C54.1871 112.453 54.9936 108.548 55.2625 104.593Z"
        fill="#A094CF"
    />
    <path
        d="M23.8066 137.983C25.4868 137.156 27.5386 137.362 29.3413 137.667L28.6416 137.457C26.9614 137.034 25.127 136.713 23.4508 137.35L23.8066 137.983Z"
        fill="#A094CF"
    />
    <path
        d="M67.0969 139.282C63.7128 137.252 59.716 135.816 55.723 136.465C53.3233 136.801 50.892 137.506 49.0932 139.274L49.619 139.776C51.1806 138.099 53.5566 137.304 55.7942 136.916C59.7041 136.129 63.6772 137.411 67.0969 139.286V139.282Z"
        fill="#A094CF"
    />
    <path
        d="M76.1482 144.208C76.1482 144.208 66.2805 133.135 56.6817 134.203C47.0829 135.271 47.7352 141.209 47.7352 141.209C47.7352 141.209 47.0829 144.208 50.8663 144.208H76.1442H76.1482Z"
        fill="#E7E1FF"
    />
    <path d="M42.7559 129.479H26.3295L10.5194 58.5886L42.7559 63.89V129.479Z" fill="#E7E1FF" />
    <path
        d="M12.1405 55.364C12.1405 55.364 5.20747 77.3345 9.96339 96.501C13.897 112.356 15.7828 131.61 14.4544 137.089C14.4544 137.089 9.19248 138.153 8.83668 142.465C8.48087 146.777 15.1226 146.828 15.1226 146.828C15.1226 146.828 18.8743 147.283 22.5233 145.966C26.1723 144.649 29.6196 128.92 29.6196 128.92"
        fill="#E7E1FF"
    />
    <path
        d="M12.1405 55.364C12.1405 55.364 5.20747 77.3345 9.96339 96.501C13.897 112.356 15.7828 131.61 14.4544 137.089C14.4544 137.089 9.19248 138.153 8.83668 142.465C8.48087 146.777 15.1226 146.828 15.1226 146.828C15.1226 146.828 18.8743 147.283 22.5233 145.966C26.1723 144.649 29.6196 128.92 29.6196 128.92"
        fill="url(#paint1_linear_11866_27622)"
    />
    <path d="M45.1369 107.769H73.8108V141.561H45.1369V107.769Z" fill="#E7E1FF" />
    <path
        d="M50.3817 118.088C50.3817 132.974 62.4435 145.044 77.3201 145.044C92.1967 145.044 104.733 140.004 105.848 121.569C106.745 106.707 92.1967 91.1323 77.3201 91.1323C62.4435 91.1323 50.3817 103.202 50.3817 118.088Z"
        fill="#E7E1FF"
    />
    <path
        d="M30.0688 130.223C30.0688 130.223 43.1229 142.803 50.4248 144.291V140.097C50.4248 140.097 45.4238 132.929 45.151 127.921C44.8822 122.917 35.3347 124.539 35.3347 124.539L30.0688 130.219V130.223Z"
        fill="#E7E1FF"
    />
    <path
        d="M80.3999 145.117C80.3999 145.117 70.5715 132.14 61.0108 133.392C51.4502 134.644 52.0999 141.603 52.0999 141.603C52.0999 141.603 51.4502 145.117 55.2185 145.117H80.396H80.3999Z"
        fill="url(#paint2_linear_11866_27622)"
    />
    <path
        d="M0.896843 42.0203C0.896843 58.5245 20.4701 64.407 36.7975 64.407C51.1483 64.407 72.6982 58.5245 72.6982 42.0203C72.6982 25.5162 56.6238 8.83398 36.7975 8.83398C16.9713 8.83398 0.896843 25.5162 0.896843 42.0203Z"
        fill="#E7E1FF"
    />
    <path
        d="M25.4868 12.2602L10.519 3.28333C7.28574 1.56635 3.65333 4.13936 3.73381 8.08304L3.73381 29.9736L25.4868 12.2602Z"
        fill="#E7E1FF"
    />
    <path
        d="M25.4868 12.2602L10.519 3.28333C7.28574 1.56635 3.65333 4.13936 3.73381 8.08304L3.73381 29.9736L25.4868 12.2602Z"
        fill="url(#paint3_linear_11866_27622)"
    />
    <path
        d="M50.0669 11.161L61.4662 4.03715C64.6193 2.07954 68.3657 4.55452 68.464 8.65349L68.914 27.5658L50.0669 11.161Z"
        fill="#E7E1FF"
    />
    <path
        d="M50.0669 11.161L61.4662 4.03715C64.6193 2.07954 68.3657 4.55452 68.464 8.65349L68.914 27.5658L50.0669 11.161Z"
        fill="url(#paint4_linear_11866_27622)"
    />
    <mask
        id="mask1_11866_27622"
        style="mask-type: luminance"
        maskUnits="userSpaceOnUse"
        x="0"
        y="8"
        width="73"
        height="57"
    >
        <path
            d="M0.898308 42.0211C0.898308 58.5252 20.4715 64.4077 36.799 64.4077C51.1498 64.4077 72.6997 58.5252 72.6997 42.0211C72.6997 25.5169 56.6252 8.83472 36.799 8.83472C16.9728 8.83472 0.898308 25.5169 0.898308 42.0211Z"
            fill="white"
        />
    </mask>
    <g mask="url(#mask1_11866_27622)">
        <path
            d="M21.1085 11.7724C36.7995 12.2155 40.7054 19.9889 40.7054 19.9889C45.5839 12.4805 54.5383 11.9425 54.5383 11.9425C54.5383 11.9425 46.7778 5.72777 39.2862 5.70007C30.1183 5.66843 21.1125 11.7724 21.1125 11.7724H21.1085Z"
            fill="#E7E1FF"
        />
    </g>
    <path
        d="M25.7529 46.9702C27.6638 46.9378 29.5465 46.7218 31.3275 45.9485C34.1298 44.7321 35.849 42.4585 37.0007 39.6427C37.9991 37.2011 38.5046 34.638 38.7679 32.0121C38.8749 30.9407 39.378 30.4943 40.4089 30.48C40.9733 30.4725 41.5377 30.4757 42.1016 30.4775C43.3891 30.4825 43.8375 30.9507 43.9541 32.2829C44.2084 35.1896 44.8852 37.9818 46.1331 40.6139C47.8306 44.1936 50.5999 46.1969 54.403 46.7311C56.6277 47.0436 58.8361 47.0698 61.0355 46.54C64.3211 45.7481 66.5241 43.7055 67.6602 40.4184C68.4663 38.0863 68.8317 35.6652 69.0578 33.2118C69.1467 32.2468 69.5579 31.8023 70.4908 31.6859C72.1594 31.4786 72.029 31.0858 72.0194 29.8114C72.0139 29.1191 72.0212 28.4268 72.017 27.7352C72.0127 27.0392 71.8042 26.7447 71.1484 26.6133C68.9279 26.1676 66.7093 25.7094 64.4804 25.3128C61.9786 24.8665 59.4564 24.5938 56.9132 24.6753C53.3565 24.7899 49.8581 25.3483 46.4475 26.3861C44.1128 27.0964 41.7409 27.2652 39.357 27.0317C38.0003 26.8991 36.6682 26.4552 35.3344 26.1116C31.7116 25.179 28.0503 24.4904 24.3055 24.6959C21.9269 24.8266 19.5508 25.1217 17.1909 25.4685C15.2884 25.748 13.4082 26.2012 11.5238 26.6034C10.7916 26.7596 10.6137 27.0323 10.6161 27.7825C10.6191 28.7051 10.6203 29.6284 10.6293 30.551C10.6353 31.1835 10.8818 31.4724 11.4829 31.5807C11.8333 31.6436 12.1868 31.6927 12.5318 31.7787C13.1678 31.9374 13.4695 32.3184 13.5735 32.9926C13.8644 34.8815 14.0959 36.7846 14.4836 38.6522C14.8262 40.3026 15.4141 41.882 16.4233 43.2523C17.6784 44.9562 19.3789 45.9573 21.3511 46.4111C22.7907 46.7429 24.273 46.8755 25.7367 47.0972C25.7421 47.0548 25.7481 47.0119 25.7535 46.9695L25.7529 46.9702ZM27.0675 26.8624C27.0675 26.8568 27.0675 26.8505 27.0675 26.8449C27.2154 26.853 27.3633 26.8624 27.5117 26.8698C30.486 27.0118 32.4624 28.9361 33.3147 31.7102C33.4337 32.0986 33.3622 32.4759 33.0563 32.7654C32.7449 33.0592 32.3902 33.1209 31.9857 32.9802C31.5156 32.8164 31.3552 32.4105 31.2079 31.9866C30.7757 30.739 30.0039 29.8151 28.8077 29.3077C27.9409 28.9398 27.0249 28.9106 26.1028 28.9106C25.4674 28.9106 25.0893 28.5725 25.0527 28.0296C25.0106 27.4108 25.3748 26.9427 26.0036 26.8698C26.354 26.8287 26.7129 26.8624 27.0681 26.8624H27.0675ZM58.8734 26.853C58.9768 26.8586 59.0807 26.8661 59.1841 26.8692C61.9973 26.9371 64.0644 28.9 64.8609 31.7071C65.0142 32.2481 64.7803 32.7224 64.2983 32.9671C63.8931 33.1725 63.3792 33.0449 63.0768 32.6197C62.9314 32.4149 62.8394 32.1634 62.751 31.9225C62.2107 30.4489 61.2663 29.4211 59.7468 29.078C59.2178 28.9585 58.6624 28.9535 58.1178 28.9174C57.4734 28.8751 57.0635 28.5358 57.04 27.9954C57.013 27.3704 57.4157 26.9171 58.0745 26.858C58.339 26.8344 58.6071 26.8543 58.8734 26.8536V26.853ZM13.0632 29.3694C12.6947 29.3638 12.3942 29.0481 12.393 28.6659C12.3918 28.2401 12.7079 27.8964 13.1028 27.8952C13.4761 27.8939 13.823 28.2451 13.8188 28.6186C13.8145 29.0021 13.4389 29.375 13.0632 29.3694ZM68.9237 28.6609C68.9357 28.2363 69.3078 27.8709 69.7039 27.8952C70.067 27.9176 70.3447 28.2426 70.3351 28.6335C70.3249 29.0369 69.9991 29.3843 69.6432 29.3719C69.2537 29.3582 68.9141 29.0226 68.9243 28.6603L68.9237 28.6609Z"
        fill="#6D4AFF"
    />
    <path
        d="M44.9722 45.9175C43.9551 46.0501 41.9209 46.8461 41.9209 48.9687"
        stroke="#1B1340"
        stroke-width="1.76"
        stroke-linecap="round"
    />
    <path
        d="M38.8691 45.9175C39.8862 46.0501 41.9204 46.8461 41.9204 48.9687"
        stroke="#1B1340"
        stroke-width="1.76"
        stroke-linecap="round"
    />
    <path
        d="M55.7617 104.964C55.7617 104.964 54.2397 126.168 37.6117 143.617C37.6117 143.617 35.2792 146.94 27.7757 146.94C20.7782 146.94 20.0706 144.329 20.0706 144.329C20.0706 144.329 18.0425 140.172 24.1267 138.039C24.1267 138.039 29.8038 136.821 30.5154 108.109"
        fill="url(#paint5_linear_11866_27622)"
    />
    <path
        d="M13.9507 61.77C20.143 64.7885 38.0122 69.0144 59.9507 61.77"
        stroke="#D3C8FD"
        stroke-width="6"
        stroke-linecap="square"
    />
    <path
        d="M30.037 79.2998C25.9777 79.2998 22.687 76.0091 22.687 71.9498C22.687 67.8905 25.9777 64.5999 30.037 64.5999C34.0963 64.5999 37.387 67.8905 37.387 71.9498C37.387 76.0091 34.0963 79.2998 30.037 79.2998Z"
        fill="#FC8F00"
    />
    <path d="M27.3006 64.5999H30.116V79.296H27.3006V64.5999Z" fill="#FC8F00" />
    <path
        d="M27.3007 79.2998C23.2414 79.2998 19.9507 76.0091 19.9507 71.9498C19.9507 67.8905 23.2414 64.5999 27.3007 64.5999C31.36 64.5999 34.6506 67.8905 34.6506 71.9498C34.6506 76.0091 31.36 79.2998 27.3007 79.2998Z"
        fill="#FFAC2E"
    />
    <path
        d="M27.3004 73.1583C26.0378 73.1583 25.0143 72.1348 25.0143 70.8723C25.0143 69.6097 26.0378 68.5862 27.3004 68.5862C28.5629 68.5862 29.5864 69.6097 29.5864 70.8723C29.5864 72.1348 28.5629 73.1583 27.3004 73.1583Z"
        fill="#372580"
    />
    <path
        d="M27.2998 74.4495V70.8721"
        stroke="#372580"
        stroke-width="1.63588"
        stroke-miterlimit="10"
        stroke-linecap="round"
    />
    <defs>
        <linearGradient
            id="paint0_linear_11866_27622"
            x1="166.357"
            y1="77.7674"
            x2="90.9466"
            y2="136.224"
            gradientUnits="userSpaceOnUse"
        >
            <stop stop-color="#AE9CFA" />
            <stop offset="1" stop-color="#DAD1FF" stop-opacity="0.3" />
        </linearGradient>
        <linearGradient
            id="paint1_linear_11866_27622"
            x1="30.8006"
            y1="125.63"
            x2="18.9581"
            y2="146.904"
            gradientUnits="userSpaceOnUse"
        >
            <stop stop-color="#DAD1FF" stop-opacity="0" />
            <stop offset="1" stop-color="#C0B2FA" />
        </linearGradient>
        <linearGradient
            id="paint2_linear_11866_27622"
            x1="66.2285"
            y1="133.307"
            x2="66.2285"
            y2="145.117"
            gradientUnits="userSpaceOnUse"
        >
            <stop stop-color="#DAD1FF" stop-opacity="0" />
            <stop offset="1" stop-color="#C0B2FA" />
        </linearGradient>
        <linearGradient
            id="paint3_linear_11866_27622"
            x1="5.41023"
            y1="5.17372"
            x2="10.7365"
            y2="16.6225"
            gradientUnits="userSpaceOnUse"
        >
            <stop offset="0.0912181" stop-color="#AE9CFA" />
            <stop offset="0.85025" stop-color="#DAD1FF" stop-opacity="0" />
        </linearGradient>
        <linearGradient
            id="paint4_linear_11866_27622"
            x1="65.6384"
            y1="5.17551"
            x2="57.3717"
            y2="17.5755"
            gradientUnits="userSpaceOnUse"
        >
            <stop offset="0.0912181" stop-color="#AE9CFA" />
            <stop offset="0.748036" stop-color="#DAD1FF" stop-opacity="0" />
        </linearGradient>
        <linearGradient
            id="paint5_linear_11866_27622"
            x1="37.7539"
            y1="104.964"
            x2="24.3052"
            y2="146.297"
            gradientUnits="userSpaceOnUse"
        >
            <stop stop-color="#DAD1FF" stop-opacity="0" />
            <stop offset="1" stop-color="#AE9CFA" />
        </linearGradient>
    </defs>
</svg>
