<svg
    fill="none"
    height="147"
    viewBox="0 0 161 147"
    width="161"
    xmlns="http://www.w3.org/2000/svg"
    xmlns:xlink="http://www.w3.org/1999/xlink"
>
    <mask id="a" height="55" maskUnits="userSpaceOnUse" width="85" x="74" y="90">
        <path
            d="m75.2576 144.674s17.6371.254 33.7834 0c15.741-.251 28.942-3.558 35.775-10.125 23.922-22.979 9.536-40.7194 9.536-40.7194s-3.486-5.0284-9.536-3.3311c-6.05 1.6974-7.576 9.6035-7.171 18.6185.41 9.016-4.635 18.075-14.103 20.865-10.601 3.124-25.1459 2.322-25.1459 2.322l-24.2912 3.764 1.1527 8.602z"
            fill="#fff"
        />
    </mask>
    <mask id="b" height="84" maskUnits="userSpaceOnUse" width="23" x="9" y="61">
        <path
            d="m12.1228 61.2064s-5.71999 13.6979-.4174 32.8215c4.5037 16.2501 5.8512 35.2781 4.5156 40.7831 0 0-5.2907 1.07-5.6484 5.402-.3578 4.333 6.3202 4.385 6.3202 4.385s3.7723.457 7.4412-.867c3.6689-1.323 7.1351-17.128 7.1351-17.128"
            fill="#fff"
        />
    </mask>
    <mask id="c" height="85" maskUnits="userSpaceOnUse" width="25" x="9" y="60">
        <path
            d="m12.1228 60.809s-5.19933 13.9601-.4174 33.219c1.2958 5.2271 2.3731 10.82 3.1879 16.17 1.6656 10.963 2.23 20.913 1.3317 24.609 0 0-5.2908 1.07-5.6485 5.402-.3578 4.333 6.3202 4.385 6.3202 4.385s3.7206.302 7.4412-.867c5.9347-1.864 8.7291-23.607 8.7291-23.607"
            fill="#fff"
        />
    </mask>
    <mask id="d" height="45" maskUnits="userSpaceOnUse" width="26" x="22" y="100">
        <path
            d="m29.9109 100.901c-.0239 3.359.0278 6.293 0 7.938 0 0 0 4.949-.4174 10.685-1.1448 15.757-2.6593 16.206-2.6593 16.206-6.1175 2.143-4.0783 6.32-4.0783 6.32s.9421 2.624 7.7473 2.624c6.3321 0 9.1067-3.141 9.1067-3.141 4.3248-4.181 6.3878-11.467 7.8267-18.746"
            fill="#fff"
        />
    </mask>
    <path
        d="m75.2576 144.674s17.6371.254 33.7834 0c15.741-.251 28.942-3.558 35.775-10.125 23.922-22.979 9.536-40.7194 9.536-40.7194s-3.486-5.0284-9.536-3.3311c-6.05 1.6974-7.576 9.6035-7.171 18.6185.41 9.016-4.635 18.075-14.103 20.865-10.601 3.124-25.1459 2.322-25.1459 2.322l-24.2912 3.764 1.1527 8.602z"
        fill="#6d4aff"
    />
    <g mask="url(#a)">
        <path
            d="m125.231 70.0475c14.604 0 22.602-9.6116 22.602-9.6116s7.998 9.6116 22.602 9.6116c0 0 2.433 28.4609-22.602 43.7605-25.038-15.2996-22.602-43.7605-22.602-43.7605z"
            fill="#4129a3"
        />
    </g>
    <path
        d="m31.5326 122.084h25.8733v22.59h-25.8733z"
        fill="#4129a3"
        stroke="#fff"
        stroke-miterlimit="10"
        stroke-width=".731399"
    />
    <path
        d="m9.45171 77.381c.39353-9.6473 2.67119-16.1743 2.67119-16.1743h.1272l-.1272-.3975 7.6081.1709 5.8274-.1709s.0318.1073.0954.3061l19.9107.4531v1.1448l21.457-2.7467s1.4509 6.8211 5.3146 12.5888c2.3254 3.4742 5.4656 6.9046 9.5599 8.9795 30.691 15.5621 27.109 37.9892 27.109 37.9892-1.121 18.523-13.7252 23.587-28.6831 23.587-4.8416 0-9.381-1.276-13.3123-3.498h-13.7336c-10.5258-2.015-22.0055-11.01-22.6296-11.555-17.1004-14.954-21.66374-38.9826-21.18674-50.6731z"
        fill="#6d4aff"
    />
    <path
        d="m25.9517 8.39464-8.6217-5.53717c-2.9892-1.919923-6.9563-.06758-7.40943 3.45427l-2.08688 16.24976 18.12201-14.16686z"
        fill="#6d4aff"
    />
    <path
        d="m12.1228 60.809s-5.19933 13.9601-.4174 33.219c1.2958 5.2271 2.3731 10.82 3.1879 16.17 1.6656 10.963 2.23 20.913 1.3317 24.609 0 0-5.2908 1.07-5.6485 5.402-.3578 4.333 6.3202 4.385 6.3202 4.385s3.7206.302 7.4412-.867c5.9347-1.864 8.7291-23.607 8.7291-23.607"
        fill="#6d4aff"
    />
    <g mask="url(#b)">
        <path
            d="m19.3654 122.831s2.87 5.323 10.8875 5.935l-.6121 11.973-13.9204 11.197-9.39296-13.109 2.51618-7.835s9.51218-3.47 10.52178-8.161z"
            fill="#4a2dc5"
        />
    </g>
    <path
        d="m20.7167 134.776c-1.6496-.266-3.3192-.548-5.0006-.322l.1749.708c1.5463-.438 3.2198-.41 4.8257-.386z"
        fill="#fff"
    />
    <g mask="url(#c)">
        <path
            d="m19.7508 122.119s2.8699 5.323 10.8875 5.935l-.6121 11.973-13.9205 11.197-9.39288-13.109 2.51617-7.835s9.51221-3.47 10.52181-8.161z"
            fill="#4129a3"
        />
    </g>
    <path
        d="m22.1637 134.812c-1.6098-.664-3.3548-1.082-5.1078-1.221-.5963-.055-1.1965-.047-1.8047-.027-.3855.011-.6876.337-.6757.723.0079.437.4333.759.8586.66 2.1942-.545 4.4997-.553 6.7336-.131z"
        fill="#fff"
    />
    <path
        d="m79.642 144.673s-9.9216-11.126-19.5729-10.052c-9.6513 1.073-8.9954 7.039-8.9954 7.039s.1033 3.013 3.1482 3.013h25.4161z"
        fill="#4129a3"
    />
    <path
        d="m13.8638 51.8258c13.7535 7.5604 42.6477 1.109 53.1537-1.6258v9.7626c-13.4315 9.6513-42.5961 12.6405-54.8947 1.2402v-10.0011c.5803-1.0534 1.1607 1.6735 1.741.6201z"
        fill="#4129a3"
    />
    <path
        d="m32.9081 79.1061c-4.2984 0-7.783-3.4845-7.783-7.783s3.4846-7.783 7.783-7.783c4.2985 0 7.7831 3.4845 7.7831 7.783s-3.4846 7.783-7.7831 7.783z"
        fill="#fc8f00"
    />
    <path d="m30.0102 63.5399h2.9813v15.5621h-2.9813z" fill="#fc8f00" />
    <path
        d="m30.0103 79.106c-4.2984 0-7.783-3.4846-7.783-7.783 0-4.2985 3.4846-7.7831 7.783-7.7831 4.2985 0 7.783 3.4846 7.783 7.7831 0 4.2984-3.4845 7.783-7.783 7.783z"
        fill="#ffac2e"
    />
    <path
        d="m30.0104 72.6029c-1.337 0-2.4208-1.0838-2.4208-2.4208 0-1.3369 1.0838-2.4207 2.4208-2.4207 1.3369 0 2.4208 1.0838 2.4208 2.4207 0 1.337-1.0839 2.4208-2.4208 2.4208z"
        fill="#372580"
    />
    <path
        d="m30.0104 73.97v-3.7882"
        stroke="#372580"
        stroke-linecap="round"
        stroke-miterlimit="10"
        stroke-width="2.24985"
    />
    <path
        d="m49.3567 8.39464 8.6218-5.53717c2.9892-1.919923 6.9562-.06758 7.4094 3.45427l2.0868 16.24976-18.122-14.16686z"
        fill="#6d4aff"
    />
    <path
        d="m60.3593 9.3887-4.1857 2.6911 6.8251 4.5871-.8268-6.4355c-.1113-.86257-1.0812-1.31175-1.8087-.8427z"
        fill="#4a2dc5"
    />
    <path
        d="m15.6008 9.3887 4.1857 2.6911-6.8251 4.5871.8268-6.4355c.1113-.86257 1.0812-1.31175 1.8087-.8427z"
        fill="#4a2dc5"
    />
    <path
        d="m1.88319 39.5909c0 16.5837 19.68021 22.4945 36.09691 22.4945 14.4292 0 36.0969-5.9108 36.0969-22.4945s-16.1623-33.34624-36.0969-33.34624-36.09691 16.76254-36.09691 33.34624z"
        fill="#6d4aff"
    />
    <path
        d="m20.2826 44.9991c-5.9689-2.5743-8.9554-8.9558-6.6706-14.2534s8.9757-7.5053 14.9446-4.931 8.9555 8.9558 6.6707 14.2534-8.9758 7.5053-14.9447 4.931z"
        fill="#fff"
    />
    <path
        d="m35.5793 33.4848c-1.1885-6.201-7.946-10.2595-14.0396-9.3134-6.6025.8864-11.0585 7.5684-8.0693 13.8051-.7314-2.8182-.3537-5.879 1.3197-8.2441 5.3981-7.5127 17.6371-4.4162 20.7892 3.7524z"
        fill="#4129a3"
    />
    <path
        d="m47.1675 40.0647c-2.2848-5.2976.7018-11.6791 6.6707-14.2534 5.9688-2.5743 12.6598-.3666 14.9446 4.931s-.7017 11.6791-6.6706 14.2534-12.6599.3666-14.9447-4.931z"
        fill="#fff"
    />
    <path
        d="m27.9076 41.7097c-2.1756 0-3.9392-2.8742-3.9392-6.4197 0-3.5454 1.7636-6.4196 3.9392-6.4196s3.9392 2.8742 3.9392 6.4196c0 3.5455-1.7636 6.4197-3.9392 6.4197z"
        fill="#4129a3"
    />
    <path
        d="m60.28 41.7097c-2.1756 0-3.9392-2.8742-3.9392-6.4197 0-3.5454 1.7636-6.4196 3.9392-6.4196s3.9392 2.8742 3.9392 6.4196c0 3.5455-1.7636 6.4197-3.9392 6.4197z"
        fill="#4129a3"
    />
    <path
        d="m46.8128 33.4848c3.1521-8.1686 15.3911-11.2651 20.7892-3.7524 1.6695 2.3611 2.0511 5.4259 1.3197 8.2441 2.9931-6.2447-1.4628-12.9187-8.0693-13.8051-6.0936-.9461-12.8551 3.1124-14.0396 9.3134z"
        fill="#4129a3"
    />
    <path
        d="m44.8092 44.75c-1.3197 0-2.385 1.0693-2.385 2.385"
        stroke="#fff"
        stroke-linecap="round"
        stroke-miterlimit="10"
        stroke-width=".993749"
    />
    <path
        d="m40.0393 44.75c1.3197 0 2.385 1.0693 2.385 2.385"
        stroke="#fff"
        stroke-linecap="round"
        stroke-miterlimit="10"
        stroke-width=".993749"
    />
    <g mask="url(#d)">
        <path
            d="m34.4465 122.14s3.2516 6.443 11.6825 6.467l-3.8239 11.337-13.3838 10.06-17.3628-6.523 15.4588-15.081s5.5968-.413 7.4292-6.256z"
            fill="#4129a3"
        />
    </g>
    <path
        d="m29.9109 100.901c-.0239 3.359.0278 6.293 0 7.938 0 0 0 4.949-.4174 10.685-1.1448 15.757-2.6593 16.206-2.6593 16.206-6.1175 2.143-4.0783 6.32-4.0783 6.32s.9421 2.624 7.7473 2.624c6.3321 0 9.1067-3.141 9.1067-3.141 4.3248-4.181 6.3878-11.467 7.8267-18.746"
        stroke="#fff"
        stroke-miterlimit="10"
        stroke-width="1.39125"
    />
    <g fill="#fff">
        <path
            d="m29.8194 85.0328c-.0755 5.2907-.3419 10.5775-.6042 15.8602l1.3912.012c-.2027-5.2908-.4014-10.5894-.787-15.8722z"
        />
        <path
            d="m50.6128 106.108c-1.1329 5.545-2.4685 11.051-3.8557 16.532l1.3594.29c.9381-5.593 1.8166-11.193 2.4963-16.822z"
        />
        <path
            d="m27.0527 136.39c1.9001-.708 4.0426-.716 6.0579-.66-.5128-.135-1.0256-.263-1.5502-.37-1.6338-.31-3.2715-.568-4.9449-.29z"
        />
        <path
            d="m14.7266 2.08651c-2.3095 0-4.4799 1.67347-4.80978 4.22541l-2.00737 15.62968c-3.80804 5.3344-6.02609 11.5036-6.02609 17.649 0 7.62 4.15389 12.9863 10.23964 16.5638v5.0522s-1.28 3.0408-1.9836 8.8523c-.31797 2.1425-.57634 4.611-.68763 7.3219-.23453 5.6962.73933 14.3259 3.76823 23.4052.64 3.14 1.2005 6.316 1.6695 9.412 1.6656 10.963 2.23 20.913 1.3317 24.61 0 0-5.6246 1.057-5.6485 5.402-.0199 3.82 5.7876 3.891 6.2209 3.891h.0238s.795.076 2.0829.076c1.3754 0 3.3072-.088 5.4338-.45l.3459-.051c1.1567.532 2.9772.994 5.8233.994 0 0 27.7296.115 50.9992.115 11.6348 0 22.1565-.028 27.5385-.115 15.741-.251 28.942-3.558 35.775-10.125 23.922-22.979 9.536-40.7196 9.536-40.7196s-2.552-3.6809-7.075-3.6809c-.763 0-1.586.1034-2.461.3498-6.05 1.6973-7.576 9.6037-7.171 18.6187.406 9.015-4.635 18.074-14.103 20.865-5.72 1.685-12.982 2.238-18.094 2.381.207-.358.405-.724.596-1.101 1.638-3.228 2.675-7.115 2.957-11.746 0 0 3.582-22.4232-27.109-37.9892-4.5712-2.3175-7.9579-6.3322-10.3469-10.2038l.1988.31c-3.4225-5.5491-4.7263-11.6745-4.7263-11.6745v-6.4038c4.2572-3.4264 7.0556-8.0056 7.0556-13.9681 0-6.5587-2.5241-13.1413-6.8131-18.7063l-1.8722-14.57233c-.326-2.55194-2.5003-4.22541-4.8098-4.22541-.8785 0-1.7768.24247-2.5996.77115l-8.3316 5.35034c-3.661-1.26008-7.5843-1.96365-11.6666-1.96365s-8.3078.75922-12.088 2.11072l-8.5621-5.49741c-.8228-.52868-1.7212-.77115-2.5997-.77115m57.0134 69.55844c.1908.306.3855.6121.5883.9182zm-57.0173-70.941741c1.1806 0 2.3412.341851 3.3509.993751l7.9937 5.13171c3.8637-1.30379 7.8625-1.96762 11.9051-1.96762s7.7473.61215 11.4758 1.82452l7.7711-4.98861c1.0097-.64793 2.1704-.993751 3.3509-.993751 3.1284 0 5.7876 2.337301 6.1891 5.437791l1.8245 14.20265c4.4361 5.879 6.8728 12.7041 6.8728 19.2549 0 5.7359-2.3731 10.6529-7.0556 14.624v5.5928c.2107.9103 1.5423 6.2646 4.5116 11.0862l.5843.9063c2.6394 3.9393 5.6684 6.7933 9.0193 8.4906 7.147 3.6252 13.0578 7.9301 17.5739 12.7955 3.641 3.9273 6.383 8.22 8.156 12.772 2.894 7.429 2.238 13.062 2.135 13.805-.259 4.185-1.137 7.954-2.616 11.217 4.273-.21 10.427-.771 15.383-2.234 4.166-1.228 7.617-3.828 9.978-7.512 2.21-3.455 3.323-7.7 3.128-11.953-.525-11.6152 2.23-18.3528 8.185-20.0223.95-.2663 1.904-.4015 2.834-.4015 4.964 0 7.838 3.7485 8.188 4.2334.39.4929 3.868 5.092 4.48 12.4654.37 4.464-.39 9.027-2.258 13.563-2.301 5.593-6.308 11.154-11.905 16.532-6.777 6.511-19.819 10.243-36.717 10.514-4.77.075-14.0396.115-27.5585.115-23.0073 0-50.7289-.111-51.0032-.115-2.4247 0-4.4401-.318-6.0022-.95-2.2499.377-4.2811.457-5.5928.457-1.1329 0-1.908-.056-2.1426-.076-.787 0-4.3327-.131-6.2844-2.098-.85067-.855-1.29586-1.96-1.29189-3.192.01193-2.302 1.23219-4.214 3.53379-5.534.8466-.485 1.6894-.799 2.3055-.985.6002-4.003.0119-13.277-1.5065-23.278-.4691-3.096-1.0216-6.213-1.6417-9.266-2.67123-8.0292-4.09426-16.9292-3.81205-23.8218.10336-2.4883.33789-4.9966.69962-7.4531.60817-5.0085 1.63373-8.0335 1.97163-8.9278v-4.0068c-6.70189-4.1857-10.239639-10.1681-10.239639-17.3469 0-6.2129 2.102779-12.4855 6.081759-18.1697l1.96364-15.28783c.3975-3.10049 3.05674-5.437786 6.18904-5.437786z"
        />
        <path
            d="m11.6498 100.754c2.071 3.836 4.4957 7.525 7.5406 10.645-1.3476-1.697-2.5003-3.522-3.5298-5.41-1.0176-1.872-1.9557-3.832-2.7428-5.803z"
        />
        <path
            d="m70.5392 137.352c-3.3906-2.091-7.4133-3.582-11.4599-2.973-2.4645.318-4.929.997-6.8091 2.802l.8625.827c1.4907-1.658 3.8637-2.485 6.0659-2.894 3.9034-.835 7.8903.401 11.3446 2.238z"
        />
    </g>
    <path
        d="m52.6995 137.594c-1.8643 1.94-1.6297 4.067-1.6297 4.067s-.1272 3.637 3.6808 3.637"
        stroke="#fff"
        stroke-miterlimit="10"
        stroke-width="1.1925"
    />
    <path
        d="m57.4815 33.3777c-.8211 0-1.4867-.6656-1.4867-1.4867 0-.821.6656-1.4866 1.4867-1.4866.821 0 1.4866.6656 1.4866 1.4866 0 .8211-.6656 1.4867-1.4866 1.4867z"
        fill="#fff"
        opacity=".7"
    />
    <path
        d="m25.1052 33.3777c-.8211 0-1.4867-.6656-1.4867-1.4867 0-.821.6656-1.4866 1.4867-1.4866.821 0 1.4866.6656 1.4866 1.4866 0 .8211-.6656 1.4867-1.4866 1.4867z"
        fill="#fff"
        opacity=".7"
    />
</svg>
