<svg width="45" height="45" viewBox="0 0 45 45" fill="none" xmlns="http://www.w3.org/2000/svg">
<g clip-path="url(#clip0_12467_11562)">
<path d="M22.401 44.802C34.7727 44.802 44.802 34.7727 44.802 22.401C44.802 10.0293 34.7727 0 22.401 0C10.0293 0 0 10.0293 0 22.401C0 34.7727 10.0293 44.802 22.401 44.802Z" fill="#EEEBFD"/>
<path d="M28.4415 8.6757L32.7723 5.8943C34.2738 4.92989 36.2665 5.86035 36.4942 7.62943L37.5424 15.7919L28.4395 8.6757H28.4415Z" fill="#6D4AFF"/>
<path d="M16.685 8.6757L12.3541 5.8943C10.8526 4.92989 8.85988 5.86035 8.63225 7.62943L7.58398 15.7919L16.6869 8.6757H16.685Z" fill="#6D4AFF"/>
<path d="M11.1578 9.17509L13.2604 10.5269L9.83203 12.8311L10.2473 9.59839C10.3033 9.16511 10.7904 8.93948 11.1558 9.17509H11.1578Z" fill="#4A2DC5"/>
<path d="M33.6426 9.17509L31.54 10.5269L34.9684 12.8311L34.5531 9.59839C34.4972 9.16511 34.01 8.93948 33.6446 9.17509H33.6426Z" fill="#4A2DC5"/>
<path d="M34.0801 31.7036H10.7207V37.8175H34.0801V31.7036Z" fill="#4129A3"/>
<path d="M40.5307 24.3458C40.5307 32.676 30.645 35.6451 22.3987 35.6451C15.1506 35.6451 4.2666 32.676 4.2666 24.3458C4.2666 16.0156 12.3852 7.59546 22.4006 7.59546C32.4161 7.59546 40.5327 16.0156 40.5327 24.3458H40.5307Z" fill="#6D4AFF"/>
<path d="M18.9688 26.9375C19.6317 26.9375 20.1668 27.4746 20.1668 28.1355" stroke="white" stroke-width="0.499176" stroke-miterlimit="10" stroke-linecap="round"/>
<path d="M21.367 26.9375C20.7041 26.9375 20.1689 27.4746 20.1689 28.1355" stroke="white" stroke-width="0.499176" stroke-miterlimit="10" stroke-linecap="round"/>
<path d="M29.7484 40.623C28.2329 40.9644 27.9554 41.242 27.614 42.7575C27.2725 41.242 26.995 40.9644 25.4795 40.623C26.995 40.2816 27.2725 40.004 27.614 38.4885C27.9554 40.004 28.2329 40.2816 29.7484 40.623Z" fill="white"/>
<path d="M16.2865 34.7607C14.771 35.1021 14.4935 35.3797 14.1521 36.8952C13.8106 35.3797 13.5331 35.1021 12.0176 34.7607C13.5331 34.4193 13.8106 34.1417 14.1521 32.6262C14.4935 34.1417 14.771 34.4193 16.2865 34.7607Z" fill="white"/>
<path d="M24.791 23.6031C24.791 23.6031 27.828 20.5082 32.7259 22.4969" stroke="#372480" stroke-width="1.59736" stroke-miterlimit="10" stroke-linecap="round"/>
<path d="M25.5957 24.1221C25.5957 24.1221 27.862 22.375 30.9309 23.0639C31.4001 23.1697 31.9193 23.3973 32.3965 23.7068" stroke="#372480" stroke-width="0.898516" stroke-miterlimit="10" stroke-linecap="round"/>
<path d="M31.4297 22.429C31.7372 22.5128 32.0387 22.6166 32.3322 22.7384" stroke="#4129A3" stroke-width="0.599011" stroke-miterlimit="10" stroke-linecap="round"/>
<path d="M26.0488 23.054C27.3527 22.3531 28.8921 22.0596 30.3637 22.2253" stroke="#4129A3" stroke-width="0.599011" stroke-miterlimit="10" stroke-linecap="round"/>
<path d="M15.8392 23.6031C15.8392 23.6031 12.8022 20.5082 7.9043 22.4969" stroke="#372480" stroke-width="1.59736" stroke-miterlimit="10" stroke-linecap="round"/>
<path d="M15.0351 24.1221C15.0351 24.1221 12.7689 22.375 9.69995 23.0639C9.23073 23.1697 8.71159 23.3973 8.23438 23.7068" stroke="#372480" stroke-width="0.898516" stroke-miterlimit="10" stroke-linecap="round"/>
<path d="M8.97104 22.5669C8.76937 22.6328 8.5697 22.7087 8.37402 22.7905" stroke="#4129A3" stroke-width="0.599011" stroke-miterlimit="10" stroke-linecap="round"/>
<path d="M13.6674 22.6267C12.5053 22.2233 11.2354 22.1095 10.0254 22.3072" stroke="#4129A3" stroke-width="0.599011" stroke-miterlimit="10" stroke-linecap="round"/>
<path d="M21.33 33.0435H20.2578V35.3556H21.33V33.0435Z" fill="#FC8F00"/>
<path d="M24.3535 40.054H23.2812V43.3325H24.3535V40.054Z" fill="#FC8F00"/>
<path d="M18.3796 40.054H17.2295V43.3325H18.3796V40.054Z" fill="#FC8F00"/>
<path d="M20.8688 33.295L19.3054 35.735C19.2714 35.7869 19.2195 35.8249 19.1596 35.8408L16.3562 36.5736C15.9709 36.6755 15.8191 37.1407 16.0707 37.4502L17.9077 39.6925C17.9476 39.7404 17.9676 39.8023 17.9636 39.8642L17.7939 42.7574C17.7699 43.1548 18.1672 43.4443 18.5386 43.2985L21.2382 42.2443C21.2961 42.2223 21.36 42.2223 21.4179 42.2443L24.1174 43.2985C24.4888 43.4443 24.8861 43.1548 24.8622 42.7574L24.6925 39.8642C24.6885 39.8023 24.7084 39.7404 24.7484 39.6925L26.5853 37.4502C26.8389 37.1427 26.6872 36.6755 26.2998 36.5736L23.4964 35.8408C23.4365 35.8249 23.3846 35.7869 23.3507 35.735L21.7873 33.295C21.5716 32.9596 21.0824 32.9596 20.8668 33.295H20.8688Z" fill="#FC8F00"/>
<path d="M19.7965 33.295L18.2331 35.735C18.1991 35.7869 18.1472 35.8249 18.0873 35.8408L15.284 36.5736C14.8986 36.6755 14.7468 37.1407 14.9984 37.4502L16.8354 39.6925C16.8753 39.7404 16.8953 39.8023 16.8913 39.8642L16.7216 42.7574C16.6976 43.1548 17.095 43.4443 17.4664 43.2985L20.1659 42.2443C20.2238 42.2223 20.2877 42.2223 20.3456 42.2443L23.0451 43.2985C23.4165 43.4443 23.8139 43.1548 23.7899 42.7574L23.6202 39.8642C23.6162 39.8023 23.6362 39.7404 23.6761 39.6925L25.5131 37.4502C25.7666 37.1427 25.6149 36.6755 25.2275 36.5736L22.4242 35.8408C22.3643 35.8249 22.3124 35.7869 22.2784 35.735L20.715 33.295C20.4993 32.9596 20.0102 32.9596 19.7945 33.295H19.7965Z" fill="#FFAC2E"/>
<path d="M20.258 39.0836C20.9296 39.0836 21.474 38.5392 21.474 37.8676C21.474 37.196 20.9296 36.6516 20.258 36.6516C19.5864 36.6516 19.042 37.196 19.042 37.8676C19.042 38.5392 19.5864 39.0836 20.258 39.0836Z" fill="#372580"/>
<path d="M20.2578 39.7705V37.8677" stroke="#372580" stroke-width="1.13013" stroke-miterlimit="10" stroke-linecap="round"/>
</g>
<defs>
<clipPath id="clip0_12467_11562">
<rect width="44.8" height="44.8" fill="white"/>
</clipPath>
</defs>
</svg>
