<svg width="98" height="72" viewBox="0 0 98 72" fill="none" xmlns="http://www.w3.org/2000/svg">
    <path
        d="M13.2842 11.5729H82.3613C87.937 11.5729 92.4569 16.0929 92.457 21.6686V45.5797C92.457 51.1555 87.9371 55.6754 82.3613 55.6754H3.18848V21.6686C3.18861 16.093 7.70859 11.573 13.2842 11.5729Z"
        fill="white"
        stroke="#E4E4E4"
        stroke-width="1.06272"
    />
    <path
        d="M56.8682 37.6096C59.2087 37.6096 61.1064 39.394 61.1064 41.595C61.1064 43.7959 59.2087 45.5803 56.8682 45.5803H14.8652C12.5247 45.5803 10.627 43.7959 10.627 41.595C10.627 39.394 12.5247 37.6096 14.8652 37.6096H56.8682ZM79.1777 21.592C81.325 21.5921 83.0654 23.3325 83.0654 25.4797C83.0654 27.627 81.325 29.3674 79.1777 29.3674H14.5146C12.3674 29.3674 10.627 27.627 10.627 25.4797C10.627 23.3325 12.3674 21.592 14.5146 21.592H79.1777Z"
        fill="#D9D9D9"
    />
    <path
        d="M23.9112 9.71335C15.4226 11.2008 13.868 12.4099 11.9556 19.0122C10.0432 12.4099 8.48859 11.2008 0 9.71335C8.48859 8.22589 10.0432 7.01679 11.9556 0.414551C13.868 7.01679 15.4226 8.22589 23.9112 9.71335Z"
        fill="#FFAC2F"
    />
    <path
        d="M82.8809 61.8539C88.0063 61.8539 92.1612 57.699 92.1612 52.5736C92.1612 47.4482 88.0063 43.2933 82.8809 43.2933C77.7555 43.2933 73.6006 47.4482 73.6006 52.5736C73.6006 57.699 77.7555 61.8539 82.8809 61.8539Z"
        fill="#FFAC2E"
    />
    <path
        d="M74.6583 45.4964C75.7478 44.6574 75.597 42.6345 74.3215 40.9781C73.0459 39.3218 71.1287 38.6593 70.0392 39.4983C68.9496 40.3373 69.1004 42.3602 70.376 44.0166C71.6515 45.6729 73.5688 46.3354 74.6583 45.4964Z"
        fill="#FFC880"
    />
    <path
        d="M95.3879 44.0192C96.6634 42.3629 96.8142 40.34 95.7247 39.501C94.6352 38.6619 92.7179 39.3245 91.4424 40.9808C90.1668 42.6371 90.016 44.66 91.1056 45.4991C92.1951 46.3381 94.1123 45.6756 95.3879 44.0192Z"
        fill="#FFC880"
    />
    <path
        d="M79.5972 41.3881C81.1638 41.1316 82.1175 38.9922 81.7274 36.6097C81.3372 34.2272 79.751 32.5037 78.1843 32.7603C76.6177 33.0168 75.6639 35.1562 76.0541 37.5387C76.4442 39.9212 78.0305 41.6447 79.5972 41.3881Z"
        fill="#FFC880"
    />
    <path
        d="M89.7079 37.5412C90.098 35.1587 89.1443 33.0193 87.5776 32.7628C86.011 32.5062 84.4247 34.2296 84.0346 36.6122C83.6444 38.9947 84.5981 41.1341 86.1648 41.3906C87.7314 41.6472 89.3177 39.9237 89.7079 37.5412Z"
        fill="#FFC880"
    />
    <path
        d="M82.881 71.4145C80.4993 71.4145 78.5693 69.4846 78.5693 67.1029V52.5776C78.5693 50.196 80.4993 48.266 82.881 48.266C85.2627 48.266 87.1926 50.196 87.1926 52.5776V67.1029C87.1926 69.4846 85.2627 71.4145 82.881 71.4145Z"
        fill="#FFAC2E"
    />
    <path
        d="M79.6969 57.5649C78.6217 57.5649 77.752 56.6951 77.752 55.62C77.752 54.5448 78.6217 53.675 79.6969 53.675C80.772 53.675 81.6418 54.5448 81.6418 55.62"
        stroke="white"
        stroke-width="0.746607"
        stroke-miterlimit="10"
    />
    <path d="M81.6416 55.6196V67.1248" stroke="white" stroke-width="0.746607" stroke-miterlimit="10" />
    <path d="M79.6973 57.5649H82.8815" stroke="white" stroke-width="0.746607" stroke-miterlimit="10" />
    <path
        d="M86.065 57.5649C87.1401 57.5649 88.0099 56.6951 88.0099 55.62C88.0099 54.5448 87.1401 53.675 86.065 53.675C84.9899 53.675 84.1201 54.5448 84.1201 55.62"
        stroke="white"
        stroke-width="0.746607"
        stroke-miterlimit="10"
    />
    <path d="M84.1201 55.6196V67.1248" stroke="white" stroke-width="0.746607" stroke-miterlimit="10" />
    <path d="M86.0651 57.5649H82.8809" stroke="white" stroke-width="0.746607" stroke-miterlimit="10" />
    <path
        d="M82.8808 71.4146C85.2625 71.4146 87.1925 69.4846 87.1925 67.103H78.5654C78.5654 69.4846 80.4954 71.4146 82.8771 71.4146H82.8808Z"
        fill="#EAE7E4"
    />
</svg>
