<svg width="294" height="186" viewBox="0 0 294 186" fill="none" xmlns="http://www.w3.org/2000/svg">
    <path
        d="M182.594 176.27C227.515 176.27 263.931 172.566 263.931 167.998C263.931 163.43 227.515 159.727 182.594 159.727C137.673 159.727 101.258 163.43 101.258 167.998C101.258 172.566 137.673 176.27 182.594 176.27Z"
        fill="#6D4AFF"
        fill-opacity="0.08"
    />
    <path
        d="M162.944 126.422C162.944 126.422 145.875 136.243 129.982 144.76C114.488 153.06 99.8153 157.001 89.5809 154.302C53.7648 144.867 58.1719 119.751 58.1719 119.751C58.1719 119.751 58.8465 112.952 65.668 111.328C72.4895 109.699 78.2768 116.582 82.7727 125.605C87.2686 134.624 97.1036 140.722 107.857 138.307C119.898 135.604 133.652 126.919 133.652 126.919L159.398 117.408L162.944 126.426V126.422Z"
        fill="#6D4AFF"
    />
    <mask
        id="mask0_13048_56702"
        style="mask-type: luminance"
        maskUnits="userSpaceOnUse"
        x="58"
        y="111"
        width="105"
        height="45"
    >
        <path
            d="M162.944 126.422C162.944 126.422 145.875 136.243 129.982 144.76C114.488 153.06 99.8153 157.001 89.5809 154.302C53.7648 144.867 58.1719 119.751 58.1719 119.751C58.1719 119.751 58.8465 112.952 65.668 111.328C72.4895 109.699 78.2768 116.582 82.7727 125.605C87.2686 134.624 97.1036 140.722 107.857 138.307C119.898 135.604 133.652 126.919 133.652 126.919L159.398 117.408L162.944 126.426V126.422Z"
            fill="white"
        />
    </mask>
    <g mask="url(#mask0_13048_56702)">
        <path
            d="M73.6803 80.7383C59.4338 88.6649 46.4121 83.632 46.4121 83.632C46.4121 83.632 43.8247 97.3504 29.5781 105.277C29.5781 105.277 42.653 134.365 75.3846 135.705C91.504 107.185 73.6803 80.7383 73.6803 80.7383Z"
            fill="#4129A3"
        />
    </g>
    <path
        d="M159.007 139.567C159.007 139.567 150.068 153.117 149.553 156.982C149.176 159.8 149.464 161.451 150.321 163.12C151.049 164.54 152.225 165.654 153.805 165.437C155.864 165.153 158.794 163.959 161.709 160.062L170.253 148.621L160.405 136.451"
        fill="#4129A3"
    />
    <path
        d="M152.796 155.539C152.796 155.539 151.776 156.786 151.767 160.239C151.767 161.384 152.548 162.339 153.644 162.667C154.74 162.995 155.934 164.016 156.658 165.476C158.033 168.259 157.416 171.588 155.082 171.943C148.025 173.017 139.309 171.57 139.309 171.57C139.309 171.57 136.406 171.33 135.172 165.374C134.254 160.923 132.106 150.067 129.172 146.934"
        fill="#6D4AFF"
    />
    <path
        d="M133.467 152.835L125.957 142.507C119.353 133.426 118.111 121.505 122.695 111.253C127.453 100.628 134.452 92.0537 147.243 88.3833L162.821 84.9304C167.991 83.7853 172.256 80.1416 174.2 75.2152L180.893 58.248L212.843 70.8392L202.223 139.888C202.223 139.888 194.9 141.118 186.587 143.79C179.171 146.173 167.681 150.114 156.199 151.081C156.199 151.081 154.273 152.457 152.804 155.546"
        fill="#6D4AFF"
    />
    <mask
        id="mask1_13048_56702"
        style="mask-type: luminance"
        maskUnits="userSpaceOnUse"
        x="129"
        y="134"
        width="38"
        height="39"
    >
        <path
            d="M129.172 146.935C132.106 150.068 134.254 160.928 135.172 165.375C136.406 171.331 139.309 171.571 139.309 171.571C139.309 171.571 148.025 173.018 155.082 171.944C157.421 171.589 158.038 168.26 156.658 165.477C155.934 164.013 154.767 163.005 153.644 162.668C152.521 162.331 151.758 161.385 151.767 160.24C151.815 154.861 155.53 151.617 155.53 151.617C155.53 151.617 163.514 151.617 165.933 138.493C168.352 125.369 129.172 146.935 129.172 146.935Z"
            fill="white"
        />
    </mask>
    <g mask="url(#mask1_13048_56702)">
        <path
            d="M148.104 150.365C148.104 150.365 140.626 158.46 131.812 156.965L130.352 169.849L148.166 179.555L167.486 175.867L155.299 156.352C155.299 156.352 151.815 156.628 148.104 150.365Z"
            fill="#4129A3"
        />
    </g>
    <path
        d="M155.006 163.774C153.391 162.376 150.897 162.922 149.024 163.579L148.109 163.947L148.939 163.401C150.919 162.198 153.533 161.275 155.752 162.429C155.85 162.487 155.925 162.522 156.063 162.633L155.002 163.769L155.006 163.774Z"
        fill="white"
    />
    <path
        d="M165.015 119.15C167.877 124.618 168.632 131.178 167.034 137.161C165.45 143.241 161.473 148.447 156.751 152.477L155.766 151.274C158.136 149.414 160.301 147.297 162.126 144.905C167.833 137.724 168.991 127.428 165.015 119.15Z"
        fill="white"
    />
    <path
        d="M233.594 71.9966L237.459 94.1476C238.458 99.8728 237.974 105.762 236.057 111.248L223.488 154.138L201.665 135.405L197.516 74.4376L233.598 71.9922L233.594 71.9966Z"
        fill="#6D4AFF"
    />
    <path
        d="M234.13 70.4347L233.62 69.8533L231.907 66.427C213.524 75.6096 191.728 74.7575 174.117 64.168V75.3611C188.31 84.5037 212.982 86.7272 234.126 75.0548V70.4302L234.13 70.4347Z"
        fill="url(#paint0_linear_13048_56702)"
    />
    <path
        d="M190.845 19.0967L180.957 13.3404C177.53 11.3432 173.194 13.5978 172.857 17.5522L171.312 35.7798L190.84 19.1011L190.845 19.0967Z"
        fill="#6D4AFF"
    />
    <path
        d="M178.623 20.7398L183.421 23.5403L176.031 28.9859L176.644 21.7694C176.724 20.8019 177.784 20.2516 178.623 20.7398Z"
        fill="#4A2DC5"
    />
    <path
        d="M215.77 17.5969L225.396 11.4145C228.734 9.27087 233.163 11.3391 233.669 15.2713L235.999 33.4146L215.766 17.5969H215.77Z"
        fill="#6D4AFF"
    />
    <path
        d="M227.334 18.7073L222.66 21.7119L230.281 26.8336L229.357 19.6482C229.233 18.6851 228.15 18.1836 227.338 18.7073H227.334Z"
        fill="#4A2DC5"
    />
    <path
        d="M244.02 49.0467C244.806 67.1767 223.574 74.5707 205.626 75.3473C189.852 76.0308 165.886 70.5941 165.101 52.4641C164.315 34.3341 181.193 15.2455 202.985 14.3002C224.776 13.3549 243.235 30.9167 244.02 49.0467Z"
        fill="#6D4AFF"
    />
    <path
        d="M231.478 33.6813C234.243 38.9272 231.301 45.4779 224.91 48.3139C218.514 51.1499 211.094 49.1927 208.324 43.9468C205.559 38.7008 208.502 32.1501 214.893 29.3141C221.288 26.4781 228.709 28.4353 231.478 33.6813Z"
        fill="white"
    />
    <path
        d="M212.669 46.3848C215.093 46.22 216.84 42.8847 216.571 38.9352C216.303 34.9858 214.12 31.9177 211.697 32.0825C209.273 32.2473 207.526 35.5825 207.795 39.532C208.063 43.4815 210.246 46.5496 212.669 46.3848Z"
        fill="#4129A3"
    />
    <path
        opacity="0.7"
        d="M215.047 36.8959C215.963 36.8959 216.706 36.1528 216.706 35.2361C216.706 34.3193 215.963 33.5762 215.047 33.5762C214.13 33.5762 213.387 34.3193 213.387 35.2361C213.387 36.1528 214.13 36.8959 215.047 36.8959Z"
        fill="white"
    />
    <path
        d="M207.605 37.3306C208.759 30.7399 215.98 26.7367 222.331 27.327C229.179 27.7974 235.016 34.1085 231.998 40.9655C232.712 37.9697 232.042 34.7831 229.987 32.5063C223.694 25.6449 210.841 28.7472 207.61 37.3306H207.605Z"
        fill="#372480"
    />
    <path
        d="M171.181 35.9036C168.953 41.3359 172.539 47.6426 179.196 49.9992C185.849 52.3515 193.052 49.8617 195.28 44.4293C197.508 38.997 193.922 32.6903 187.265 30.3337C180.612 27.9814 173.409 30.4712 171.181 35.9036Z"
        fill="white"
    />
    <path
        d="M177.126 46.9925C179.538 46.7024 181.109 43.2811 180.637 39.3508C180.164 35.4206 177.825 32.4697 175.414 32.7598C173.002 33.05 171.43 36.4713 171.903 40.4015C172.376 44.3318 174.714 47.2826 177.126 46.9925Z"
        fill="#4129A3"
    />
    <path
        opacity="0.7"
        d="M178.914 37.4057C179.831 37.4057 180.574 36.6625 180.574 35.7458C180.574 34.8291 179.831 34.0859 178.914 34.0859C177.997 34.0859 177.254 34.8291 177.254 35.7458C177.254 36.6625 177.997 37.4057 178.914 37.4057Z"
        fill="white"
    />
    <path
        d="M195.333 37.7815C191.343 29.6419 178.321 27.2053 172.569 34.586C170.719 37.0403 170.395 40.2846 171.398 43.1961C167.692 36.5699 172.902 29.815 179.821 28.8785C186.128 27.8843 193.54 31.3728 195.333 37.7815Z"
        fill="#372480"
    />
    <path
        d="M205.03 151.215C205.03 151.215 204.64 156.838 204.329 158.391C204.018 159.945 202.656 164.436 205.776 166.598C207.822 168.018 216.978 170.295 220.515 166.669C224.057 163.043 216.782 153.669 216.782 153.669L205.026 151.215H205.03Z"
        fill="#4129A3"
    />
    <path
        d="M186.254 127.554C186.254 127.554 202.884 148.125 221.142 168.931C221.142 168.931 223.486 172.566 231.479 172.881C238.931 173.174 239.796 170.422 239.796 170.422C239.796 170.422 242.131 166.077 235.74 163.557C235.74 163.557 228.11 153.291 214.636 124.088"
        fill="#6D4AFF"
    />
    <mask
        id="mask2_13048_56702"
        style="mask-type: luminance"
        maskUnits="userSpaceOnUse"
        x="186"
        y="124"
        width="55"
        height="49"
    >
        <path
            d="M186.254 127.554C186.254 127.554 205.032 151.218 221.142 168.931C221.142 168.931 223.486 172.566 231.479 172.881C238.931 173.174 239.796 170.422 239.796 170.422C239.796 170.422 242.131 166.077 235.74 163.557C235.74 163.557 228.11 153.291 214.636 124.088"
            fill="white"
        />
    </mask>
    <g mask="url(#mask2_13048_56702)">
        <path
            d="M222.281 150.006C222.281 150.006 219.352 158.918 210.418 158.589L215.287 167.617L229.049 178.836L247.721 172.645L233.097 153.392C233.097 153.392 226.693 154.519 222.286 150.006H222.281Z"
            fill="#4129A3"
        />
    </g>
    <path
        d="M225.948 147.022C221.728 138.523 217.68 129.94 213.93 121.236C218.146 129.722 222.655 138.061 227.32 146.294L225.948 147.027V147.022Z"
        fill="white"
    />
    <path
        d="M182.914 124.904C187.725 130.585 192.714 136.115 197.795 141.547L196.628 142.568C191.924 136.781 187.326 130.909 182.914 124.904Z"
        fill="white"
    />
    <path
        d="M236.14 163.631C234.054 163.081 231.804 163.134 229.656 163.311C230.726 162.952 231.813 162.646 232.923 162.428C234.09 162.211 235.222 162.038 236.433 162.104L236.14 163.631Z"
        fill="white"
    />
    <path
        d="M197.812 46.3462C199.282 46.284 200.524 47.4246 200.591 48.8937"
        stroke="white"
        stroke-width="1.10954"
        stroke-miterlimit="10"
        stroke-linecap="round"
    />
    <path
        d="M203.136 46.1172C201.667 46.1793 200.526 47.4265 200.588 48.8955"
        stroke="white"
        stroke-width="1.10954"
        stroke-miterlimit="10"
        stroke-linecap="round"
    />
    <path
        d="M155.531 163.205C155.531 163.205 158.097 165.207 158.074 169.618"
        stroke="white"
        stroke-width="1.55336"
        stroke-miterlimit="10"
        stroke-linecap="round"
    />
    <path
        d="M228.304 10.5534C230.883 10.5534 233.306 12.4218 233.674 15.2711L235.383 28.5591C240.514 34.5107 243.709 41.7316 244.024 49.0501C244.371 57.0211 240.46 62.915 234.447 67.0824L234.132 75.0712L237.46 94.1509C238.459 99.8761 237.975 105.766 236.058 111.251L225.712 146.557C232.214 158.797 235.747 163.551 235.747 163.551C242.138 166.076 239.804 170.417 239.804 170.417C239.804 170.417 239.022 172.897 232.561 172.897C232.219 172.897 231.859 172.889 231.482 172.875C223.489 172.56 221.146 168.925 221.146 168.925C212.194 158.726 203.637 148.585 197.237 140.894C194.397 141.537 190.606 142.492 186.585 143.783C179.169 146.166 167.475 150.125 155.993 151.088C155.993 151.088 154.129 152.659 152.873 155.202C152.447 156.108 151.777 157.892 151.772 160.235C151.772 161.38 152.553 162.335 153.65 162.663C154.777 163.005 155.94 164.012 156.663 165.472C158.039 168.255 157.422 171.584 155.088 171.939C153.175 172.232 151.142 172.338 149.194 172.338C143.948 172.338 139.314 171.57 139.314 171.57C139.314 171.57 136.412 171.331 135.178 165.375C134.357 161.398 132.551 152.304 130.083 148.177L129.178 146.93L125.955 142.5C119.351 133.42 118.109 121.499 122.693 111.247C127.451 100.622 134.45 92.0472 147.241 88.3768L162.819 84.9239C167.932 83.7878 172.157 80.215 174.127 75.3685C174.127 75.3685 174.123 75.3685 174.119 75.3641V67.8547C168.957 64.2775 165.398 59.2624 165.105 52.4631C164.794 45.2954 167.244 37.9857 171.664 31.6968L172.863 17.5479C173.111 14.601 175.588 12.5994 178.251 12.5994C179.16 12.5994 180.088 12.8301 180.958 13.3405L188.538 17.7565C192.968 15.7638 197.836 14.5255 202.984 14.3036C203.548 14.2814 204.107 14.2681 204.667 14.2681C209.167 14.2681 213.507 15.0492 217.555 16.4517L225.397 11.4188C226.316 10.8285 227.319 10.5578 228.3 10.5578M228.304 9C226.986 9 225.69 9.38168 224.563 10.1095L217.346 14.743C213.219 13.3982 208.958 12.7148 204.667 12.7148C204.085 12.7148 203.499 12.7281 202.918 12.7547C198.009 12.9677 193.207 14.064 188.64 16.0212L181.743 12.0046C180.674 11.3833 179.467 11.0549 178.255 11.0549C174.607 11.0549 171.624 13.7932 171.318 17.4281L170.155 31.1643C165.588 37.8038 163.245 45.3797 163.556 52.543C163.84 59.0627 166.871 64.4861 172.57 68.6669V75.0934C170.737 79.3229 166.991 82.4252 162.486 83.4238L146.908 86.8767L146.864 86.8856L146.819 86.8989C135.142 90.2453 127.029 97.7858 121.282 110.625C116.48 121.352 117.794 133.921 124.704 143.428L127.926 147.857L128.791 149.047C131.006 152.801 132.728 161.15 133.554 165.175L133.665 165.703C135.014 172.223 138.382 173.022 139.097 173.119C139.55 173.195 144.054 173.905 149.203 173.905C151.462 173.905 153.521 173.767 155.327 173.488C156.619 173.292 157.68 172.511 158.314 171.291C159.237 169.52 159.135 166.968 158.061 164.798C157.182 163.023 155.7 161.673 154.102 161.19C153.632 161.048 153.33 160.679 153.33 160.253C153.335 158.198 153.925 156.645 154.275 155.89C155.061 154.306 156.131 153.134 156.663 152.602C167.439 151.608 178.37 148.079 185.645 145.731L187.06 145.274C190.096 144.298 193.318 143.41 196.651 142.634C204.835 152.455 212.664 161.625 219.929 169.906C220.471 170.638 223.471 174.127 231.424 174.438C231.81 174.451 232.197 174.46 232.565 174.46C239.293 174.46 240.887 171.89 241.228 171.051C241.463 170.559 242.205 168.743 241.432 166.626C240.762 164.798 239.191 163.342 236.755 162.29C235.876 161.034 232.618 156.201 227.381 146.393L237.54 111.731C239.533 106.019 240.034 99.8495 238.991 93.889L235.694 74.9735L235.973 67.9079C242.591 63.0703 245.911 56.5418 245.582 48.9835C245.267 41.6694 242.174 34.2044 236.87 27.9066L235.223 15.0803C234.78 11.6185 231.81 9.00888 228.313 9.00888L228.304 9Z"
        fill="white"
    />
    <path
        d="M213.205 84.601L210.919 87.8364C210.733 88.1027 210.462 88.298 210.156 88.3912L206.37 89.5629C205.403 89.8646 205.021 91.0319 205.629 91.8441L207.999 95.0174C208.194 95.2748 208.296 95.5943 208.292 95.9139L208.239 99.8772C208.225 100.889 209.22 101.613 210.178 101.289L213.928 100.015C214.235 99.9127 214.568 99.9127 214.874 100.015L218.624 101.289C219.583 101.613 220.577 100.894 220.564 99.8772L220.51 95.9139C220.51 95.5899 220.608 95.2748 220.803 95.0174L223.173 91.8441C223.781 91.0319 223.4 89.8646 222.432 89.5629L218.646 88.3912C218.336 88.2935 218.069 88.0983 217.883 87.8364L215.597 84.601C215.011 83.771 213.782 83.771 213.201 84.601H213.205Z"
        fill="#FC8F00"
    />
    <path d="M217.731 83.9805H214.402V93.7933H217.731V83.9805Z" fill="#FC8F00" />
    <path d="M222.614 91.543H219.285V101.356H222.614V91.543Z" fill="#FC8F00" />
    <path d="M212.836 91.543H209.508V101.356H212.836V91.543Z" fill="#FC8F00" />
    <path
        d="M216.533 84.601L214.248 87.8364C214.061 88.1027 213.79 88.298 213.484 88.3912L209.698 89.5629C208.731 89.8646 208.349 91.0319 208.957 91.8441L211.327 95.0174C211.522 95.2748 211.625 95.5943 211.62 95.9139L211.567 99.8772C211.554 100.889 212.548 101.613 213.506 101.289L217.257 100.015C217.563 99.9127 217.896 99.9127 218.202 100.015L221.952 101.289C222.911 101.613 223.905 100.894 223.892 99.8772L223.838 95.9139C223.838 95.5899 223.936 95.2748 224.131 95.0174L226.501 91.8441C227.109 91.0319 226.728 89.8646 225.76 89.5629L221.974 88.3912C221.664 88.2935 221.397 88.0983 221.211 87.8364L218.925 84.601C218.34 83.771 217.11 83.771 216.529 84.601H216.533Z"
        fill="url(#paint1_linear_13048_56702)"
    />
    <path
        d="M217.734 94.6498C219.227 94.6498 220.437 93.4397 220.437 91.947C220.437 90.4543 219.227 89.2441 217.734 89.2441C216.241 89.2441 215.031 90.4543 215.031 91.947C215.031 93.4397 216.241 94.6498 217.734 94.6498Z"
        fill="#372580"
    />
    <path
        d="M217.738 96.1768V91.9473"
        stroke="#372580"
        stroke-width="2.51201"
        stroke-miterlimit="10"
        stroke-linecap="round"
    />
    <path
        d="M233.56 84.9615C230.71 85.747 230.071 86.3861 229.286 89.2354C228.5 86.3861 227.861 85.747 225.012 84.9615C227.861 84.1759 228.5 83.5368 229.286 80.6875C230.071 83.5368 230.71 84.1759 233.56 84.9615Z"
        fill="white"
    />
    <path
        d="M208.892 104.725C207.001 105.249 206.575 105.671 206.051 107.566C205.528 105.675 205.106 105.249 203.211 104.725C205.102 104.201 205.528 103.78 206.051 101.885C206.575 103.775 206.997 104.201 208.892 104.725Z"
        fill="white"
    />
    <path
        d="M32.0371 44.0586C32.0371 45.3351 32.2441 46.34 32.6572 47.0732C33.0979 47.7793 33.7034 48.2822 34.4746 48.5811C35.2458 48.8799 36.1411 49.0293 37.1602 49.0293C38.6199 49.0293 39.8589 48.7026 40.8779 48.0508C41.8969 47.399 42.7096 46.5981 43.3154 45.6475C43.7511 44.9753 44.0804 44.3213 44.3076 43.6875V32.2031H48.8936V52.4922H44.3076V45.416C44.2813 45.5159 44.2542 45.6203 44.2246 45.7285C44.0595 46.4347 43.7705 47.2091 43.3574 48.0508C42.9718 48.8657 42.4482 49.6536 41.7871 50.4141C41.1538 51.1472 40.3552 51.7583 39.3916 52.2471C38.4275 52.7089 37.256 52.9404 35.8789 52.9404C34.8875 52.9404 33.8822 52.8038 32.8633 52.5322C31.8718 52.2878 30.9629 51.8669 30.1367 51.2695C29.338 50.6721 28.6911 49.8572 28.1953 48.8252C27.6996 47.7931 27.4512 46.4892 27.4512 44.9141V32.2031H32.0371V44.0586ZM104.532 31.752C106.818 31.752 108.856 32.1728 110.646 33.0146C112.437 33.8566 113.842 35.0792 114.861 36.6816C115.908 38.2567 116.431 40.1579 116.431 42.3848C116.431 44.6389 115.908 46.5545 114.861 48.1299C113.842 49.705 112.437 50.9002 110.646 51.7148C108.856 52.5296 106.818 52.9375 104.532 52.9375C102.246 52.9375 100.194 52.5297 98.376 51.7148C96.5583 50.9002 95.1257 49.705 94.0791 48.1299C93.0327 46.5545 92.5098 44.6389 92.5098 42.3848C92.5098 40.1579 93.0329 38.2567 94.0791 36.6816C95.1257 35.0792 96.5582 33.8566 98.376 33.0146C100.194 32.1727 102.246 31.752 104.532 31.752ZM20.5859 43.6377C20.5859 44.9141 20.793 45.9191 21.2061 46.6523C21.4061 46.9728 21.6401 47.2517 21.9082 47.4883C22.5553 48.0593 23.4696 48.1602 24.3379 48.1602H24.9482V52.5195C23.9567 52.5195 22.4311 52.3839 21.4121 52.1123C20.4206 51.8679 19.5118 51.4461 18.6855 50.8486C17.8869 50.2512 17.2399 49.4363 16.7441 48.4043C16.2484 47.3722 16 46.0685 16 44.4932V24H20.5859V43.6377ZM81.9707 31.752C83.1824 31.752 84.284 31.9153 85.2754 32.2412C86.2668 32.5671 87.1209 33.0692 87.8369 33.748C88.5804 34.3998 89.1591 35.2148 89.5723 36.1924C89.9854 37.1701 90.1924 38.3247 90.1924 39.6553V52.4893H85.5654V40.5518C85.5654 38.895 85.1515 37.6724 84.3252 36.8848C83.5266 36.0702 82.2595 35.6631 80.5244 35.6631C79.2023 35.6631 77.9905 35.9482 76.8887 36.5186C75.8148 37.0617 74.9335 37.7816 74.2451 38.6777C74.0551 38.9276 73.8896 39.1866 73.7451 39.4521C73.7462 39.5194 73.749 39.5871 73.749 39.6553V52.4893H69.1631V40.5518C69.1631 38.895 68.75 37.6724 67.9238 36.8848C67.1251 36.0701 65.858 35.6632 64.123 35.6631C62.8012 35.6631 61.5889 35.9483 60.4873 36.5186C59.4131 37.0617 58.5314 37.7815 57.8428 38.6777C57.4137 39.2192 57.0971 39.7978 56.8926 40.4131V52.4893H52.3066V32.2002H56.8926V38.043C57.0499 37.5187 57.2558 37.0102 57.5127 36.5186C57.9808 35.5953 58.6 34.7803 59.3711 34.0742C60.1423 33.3409 61.052 32.7707 62.0986 32.3633C63.1451 31.956 64.3016 31.752 65.5684 31.752C66.7528 31.752 67.8413 31.9153 68.833 32.2412C69.8518 32.5671 70.7194 33.0692 71.4355 33.748C72.1791 34.3998 72.7433 35.2148 73.1289 36.1924C73.2884 36.5698 73.4157 36.9743 73.5137 37.4043C73.6406 37.0909 73.7869 36.7815 73.9551 36.4775C74.4508 35.5542 75.0844 34.7393 75.8555 34.0332C76.6266 33.3271 77.5221 32.7707 78.541 32.3633C79.5877 31.9559 80.7311 31.752 81.9707 31.752ZM134.237 39.2861H142.628L141.761 43.6445H133.37L131.489 52.3818H127.305L129.186 43.6445H120.795L121.661 39.2861H130.052L131.934 30.5488H136.118L134.237 39.2861ZM104.532 35.4189C103.183 35.4189 101.957 35.6902 100.855 36.2334C99.7536 36.7766 98.8584 37.5645 98.1699 38.5967C97.509 39.6286 97.1778 40.8913 97.1777 42.3848C97.1777 43.8512 97.509 45.1008 98.1699 46.1328C98.8309 47.1647 99.7121 47.939 100.813 48.4551C101.943 48.9711 103.183 49.2295 104.532 49.2295C105.854 49.2295 107.066 48.9711 108.168 48.4551C109.27 47.939 110.137 47.1648 110.771 46.1328C111.431 45.1008 111.763 43.8512 111.763 42.3848C111.763 40.9182 111.431 39.6687 110.771 38.6367C110.137 37.6049 109.27 36.8176 108.168 36.2744C107.094 35.7041 105.882 35.419 104.532 35.4189Z"
        fill="url(#paint2_linear_13048_56702)"
    />
    <defs>
        <linearGradient
            id="paint0_linear_13048_56702"
            x1="172.411"
            y1="80.2713"
            x2="232.219"
            y2="40.9877"
            gradientUnits="userSpaceOnUse"
        >
            <stop offset="0.157704" stop-color="#FFAC2E" />
            <stop offset="0.534519" stop-color="#DD5DCC" />
            <stop offset="0.759336" stop-color="#1BA3FD" />
            <stop offset="0.998442" stop-color="#5325A2" />
        </linearGradient>
        <linearGradient
            id="paint1_linear_13048_56702"
            x1="191.667"
            y1="109.518"
            x2="205.212"
            y2="81.59"
            gradientUnits="userSpaceOnUse"
        >
            <stop offset="0.662874" stop-color="#FFAC2E" />
            <stop offset="0.864415" stop-color="#FFDBA4" />
            <stop offset="1" stop-color="#FFAC2E" />
        </linearGradient>
        <linearGradient
            id="paint2_linear_13048_56702"
            x1="15.2086"
            y1="66.3848"
            x2="64.2747"
            y2="-14.4963"
            gradientUnits="userSpaceOnUse"
        >
            <stop offset="0.157704" stop-color="#FFAC2E" />
            <stop offset="0.383967" stop-color="#DD5DCC" />
            <stop offset="0.759336" stop-color="#1BA3FD" />
            <stop offset="0.998442" stop-color="#5325A2" />
        </linearGradient>
    </defs>
</svg>
