<svg width="76" height="22" viewBox="0 0 76 22" fill="none" xmlns="http://www.w3.org/2000/svg">
    <path
        d="M12.1357 15.1787C12.1357 16.1447 12.2919 16.906 12.6045 17.4609C12.938 17.9952 13.3969 18.3754 13.9805 18.6016C14.564 18.8277 15.2416 18.9404 16.0127 18.9404C17.1173 18.9404 18.055 18.6934 18.8262 18.2002C19.5972 17.707 20.2124 17.1011 20.6709 16.3818C21.0004 15.8735 21.2499 15.3787 21.4219 14.8994V6.20801H24.8916V21.5605H21.4219V16.1963C21.4012 16.2749 21.3817 16.358 21.3584 16.4434C21.2334 16.9777 21.0147 17.5633 20.7021 18.2002C20.4104 18.8167 20.0147 19.4129 19.5146 19.9883C19.0353 20.5431 18.4305 21.0061 17.7012 21.376C16.9717 21.7254 16.0859 21.9003 15.0439 21.9004C14.2936 21.9004 13.5319 21.7973 12.7607 21.5918C12.0106 21.4068 11.3224 21.0878 10.6973 20.6357C10.093 20.1837 9.6036 19.567 9.22852 18.7861C8.85336 18.0051 8.66602 17.0181 8.66602 15.8262V6.20801H12.1357V15.1787ZM66.9961 5.86621C68.7261 5.86625 70.2683 6.18514 71.623 6.82227C72.9777 7.4594 74.0404 8.38415 74.8115 9.59668C75.6036 10.7887 76 12.2276 76 13.9131C76 15.6188 75.6035 17.0677 74.8115 18.2598C74.0404 19.4517 72.9777 20.3562 71.623 20.9727C70.2683 21.5893 68.7261 21.8974 66.9961 21.8975C65.2663 21.8975 63.7135 21.5892 62.3379 20.9727C60.9622 20.3562 59.878 19.4517 59.0859 18.2598C58.2941 17.0677 57.8985 15.6188 57.8984 13.9131C57.8984 12.2277 58.2941 10.7887 59.0859 9.59668C59.878 8.38404 60.9622 7.45942 62.3379 6.82227C63.7135 6.18518 65.2663 5.86621 66.9961 5.86621ZM3.4707 14.8613C3.47076 15.8271 3.62686 16.5878 3.93945 17.1426C4.09074 17.3849 4.26795 17.5955 4.4707 17.7744C4.96037 18.2066 5.65252 18.2832 6.30957 18.2832H6.77148V21.582C6.02115 21.582 4.86681 21.479 4.0957 21.2734C3.34537 21.0885 2.6575 20.7695 2.03223 20.3174C1.42785 19.8653 0.937641 19.2487 0.5625 18.4678C0.1874 17.6868 4.3811e-06 16.6998 0 15.5078V0H3.4707V14.8613ZM49.9229 5.86621C50.8397 5.86624 51.6736 5.98972 52.4238 6.23633C53.174 6.48296 53.8205 6.86318 54.3623 7.37695C54.9249 7.87016 55.3622 8.48684 55.6748 9.22656C55.9874 9.96636 56.1445 10.8399 56.1445 11.8467V21.5586H52.6426V12.5254C52.6426 11.2716 52.3294 10.347 51.7041 9.75098C51.0998 9.13444 50.1412 8.82617 48.8281 8.82617C47.8277 8.82619 46.9109 9.04204 46.0771 9.47363C45.2644 9.88469 44.5971 10.4292 44.0762 11.1074C43.9324 11.2965 43.8076 11.4924 43.6982 11.6934C43.6991 11.7441 43.7012 11.7952 43.7012 11.8467V21.5586H40.2305V12.5254C40.2305 11.2718 39.918 10.347 39.293 9.75098C38.6885 9.13438 37.7292 8.82617 36.416 8.82617C35.4158 8.82621 34.4986 9.04205 33.665 9.47363C32.8522 9.88468 32.1851 10.4292 31.6641 11.1074C31.3398 11.5167 31.1 11.9539 30.9453 12.4189V21.5586H27.4746V6.20508H30.9453V10.627C31.0644 10.2303 31.2197 9.84559 31.4141 9.47363C31.7683 8.77483 32.2377 8.15742 32.8213 7.62305C33.4048 7.0683 34.0929 6.63732 34.8848 6.3291C35.6768 6.02085 36.5521 5.86621 37.5107 5.86621C38.4069 5.86623 39.2301 5.98971 39.9805 6.23633C40.7516 6.48296 41.4082 6.86314 41.9502 7.37695C42.5128 7.87018 42.9397 8.48678 43.2314 9.22656C43.3522 9.51222 43.4493 9.81807 43.5234 10.1436C43.6195 9.90647 43.7302 9.67238 43.8574 9.44238C44.2325 8.74375 44.7115 8.12705 45.2949 7.59277C45.8784 7.0585 46.5562 6.63738 47.3271 6.3291C48.1192 6.0208 48.9848 5.86621 49.9229 5.86621ZM66.9961 8.64062C65.9749 8.64062 65.0465 8.84674 64.2129 9.25781C63.3793 9.66886 62.7025 10.265 62.1816 11.0459C61.6814 11.8269 61.4307 12.7827 61.4307 13.9131C61.4307 15.0228 61.6814 15.9681 62.1816 16.749C62.6818 17.5299 63.3481 18.1163 64.1816 18.5068C65.0362 18.8974 65.9749 19.0918 66.9961 19.0918C67.9964 19.0918 68.9136 18.8973 69.7471 18.5068C70.5809 18.1163 71.2374 17.5301 71.7168 16.749C72.217 15.9681 72.4668 15.0227 72.4668 13.9131C72.4668 12.8031 72.217 11.8572 71.7168 11.0762C71.2374 10.2953 70.5808 9.69914 69.7471 9.28809C68.9342 8.85655 68.0173 8.64067 66.9961 8.64062Z"
        fill="#0C0C14"
    />
</svg>
