<svg width="238" height="152" viewBox="0 0 238 152" fill="none" xmlns="http://www.w3.org/2000/svg">
    <g clip-path="url(#clip0_7348_52794)">
        <path
            d="M140.492 135.467C144.683 135.467 144.683 139.746 148.873 139.746C153.064 139.746 153.064 135.467 157.254 135.467C161.445 135.467 161.445 139.746 165.635 139.746C169.826 139.746 169.826 135.467 174.016 135.467C178.207 135.467 178.207 139.746 182.397 139.746C186.587 139.746 186.587 135.467 190.778 135.467C194.968 135.467 194.968 139.746 199.159 139.746C201.57 139.746 203.524 137.792 203.524 135.381V128.694"
            stroke="#E4E4E4"
            stroke-width="1.0699"
            stroke-miterlimit="10"
        />
        <path
            d="M83.7342 144.901C114.851 144.901 140.075 141.612 140.075 137.555C140.075 133.497 114.851 130.208 83.7342 130.208C52.6178 130.208 27.3931 133.497 27.3931 137.555C27.3931 141.612 52.6178 144.901 83.7342 144.901Z"
            fill="#ECEAF9"
        />
        <path
            d="M134.095 145.992C148.237 145.992 159.701 144.291 159.701 142.194C159.701 140.096 148.237 138.396 134.095 138.396C119.953 138.396 108.488 140.096 108.488 142.194C108.488 144.291 119.953 145.992 134.095 145.992Z"
            fill="#ECEAF9"
        />
        <path
            d="M85.4497 139.709C85.4497 139.709 69.6258 139.937 55.1393 139.709C41.0166 139.484 29.1728 136.517 23.0422 130.625C1.57997 110.008 14.4866 94.0916 14.4866 94.0916C14.4866 94.0916 17.6143 89.5802 23.0422 91.103C28.4702 92.6259 29.8397 99.7193 29.4759 107.808C29.1086 115.896 33.6343 124.024 42.1293 126.528C51.6408 129.331 64.69 128.61 64.69 128.61L86.4839 131.988L85.4497 139.705V139.709Z"
            fill="#6D4AFF"
        />
        <path
            d="M20.8347 90.7892C21.5194 90.7892 22.2577 90.882 23.0423 91.1031C28.4702 92.6259 29.8397 99.7194 29.4759 107.808C29.1122 115.896 33.6343 124.024 42.1293 126.528C48.4061 128.379 56.22 128.692 60.8134 128.692C63.1815 128.692 64.69 128.61 64.69 128.61L86.484 131.988L85.4497 139.705C85.4497 139.705 78.4169 139.809 69.4368 139.809C64.9468 139.809 59.9682 139.784 55.1394 139.705C41.0166 139.481 29.1728 136.513 23.0423 130.622C1.57999 110.005 14.4866 94.0881 14.4866 94.0881C14.4866 94.0881 16.7762 90.7857 20.8347 90.7857M20.8347 89.541C16.3803 89.541 13.8019 92.9041 13.488 93.3392C13.1385 93.7814 10.018 97.9077 9.46874 104.523C9.13707 108.528 9.81825 112.622 11.4944 116.692C13.5593 121.709 17.1542 126.699 22.1756 131.524C28.2562 137.366 39.9574 140.714 55.118 140.957C59.3976 141.025 64.2121 141.06 69.4333 141.06C78.3206 141.06 85.3927 140.961 85.464 140.957L86.541 140.943L86.6837 139.876L87.7179 132.159L87.882 130.946L86.673 130.761L64.879 127.383L64.7507 127.362L64.6187 127.369C64.6187 127.369 63.1101 127.451 60.8098 127.451C56.6408 127.451 48.7199 127.177 42.4788 125.336C38.7413 124.234 35.6457 121.902 33.5273 118.596C31.5444 115.497 30.5458 111.688 30.7206 107.872C31.1914 97.4512 28.7199 91.4062 23.3775 89.9083C22.5251 89.6694 21.6692 89.5481 20.8347 89.5481V89.541Z"
            fill="white"
        />
        <mask
            id="mask0_7348_52794"
            style="mask-type: luminance"
            maskUnits="userSpaceOnUse"
            x="10"
            y="90"
            width="77"
            height="50"
        >
            <path
                d="M85.4497 139.709C85.4497 139.709 69.6258 139.937 55.1393 139.709C41.0166 139.484 29.1728 136.517 23.0422 130.625C1.57997 110.008 14.4866 94.0916 14.4866 94.0916C14.4866 94.0916 17.6143 89.5802 23.0422 91.103C28.4702 92.6259 29.8397 99.7193 29.4759 107.808C29.1086 115.896 33.6343 124.024 42.1293 126.528C51.6408 129.331 64.69 128.61 64.69 128.61L86.4839 131.988L85.4497 139.705V139.709Z"
                fill="white"
            />
        </mask>
        <g mask="url(#mask0_7348_52794)">
            <path
                d="M40.6135 72.7553C27.5108 72.7553 20.3353 64.1318 20.3353 64.1318C20.3353 64.1318 13.1598 72.7553 0.05706 72.7553C0.05706 72.7553 -2.12554 98.2903 20.3353 112.017C42.7997 98.2903 40.6135 72.7553 40.6135 72.7553Z"
                fill="#4129A3"
            />
        </g>
        <path
            d="M113.627 136.098C120.186 131.519 124.868 117.718 117.821 102.368C112.504 90.7881 110.735 83.2773 110.735 83.2773L93.1243 101.305L96.9759 134.287"
            fill="#6D4AFF"
        />
        <path
            d="M53.891 136.098C47.3325 131.519 42.6499 117.718 49.697 102.368C55.0144 90.7881 56.7833 83.2773 56.7833 83.2773L74.3939 101.305L70.5423 134.287"
            fill="#6D4AFF"
        />
        <path d="M108.385 66.0166H62.9814V139.198H108.385V66.0166Z" fill="#6D4AFF" />
        <path
            d="M77.1759 139.912C77.1759 139.912 68.2743 129.93 59.6152 130.893C50.9561 131.856 51.5446 137.209 51.5446 137.209C51.5446 137.209 51.6373 139.912 54.3691 139.912C57.7821 139.912 77.1723 139.912 77.1723 139.912H77.1759Z"
            fill="#4129A3"
        />
        <path
            d="M90.3428 139.912C90.3428 139.912 99.2444 129.93 107.903 130.893C116.563 131.856 115.974 137.209 115.974 137.209C115.974 137.209 115.881 139.912 113.15 139.912H90.3463H90.3428Z"
            fill="#4129A3"
        />
        <path
            d="M108.385 66.0163C108.385 66.0163 117.012 75.7952 103.941 105.21C103.941 105.21 97.5038 117.536 96.9296 133.377C96.9296 133.377 96.9047 134.24 96.976 134.287C99.6293 136.099 99.3155 138.099 98.8376 139.198C97.3932 142.5 87.6857 143.563 84.2834 139.383C83.702 138.67 83.7591 138.188 83.7591 136.387C83.7591 135.186 83.7591 127.504 83.7591 118.449V65.6133L108.385 66.0163Z"
            fill="#6D4AFF"
        />
        <mask
            id="mask1_7348_52794"
            style="mask-type: luminance"
            maskUnits="userSpaceOnUse"
            x="83"
            y="65"
            width="29"
            height="78"
        >
            <path
                d="M108.385 66.0182C108.385 66.0182 117.012 75.7972 103.941 105.212C103.941 105.212 97.5038 117.538 96.9296 133.379C96.9296 133.379 96.9047 134.242 96.976 134.289C99.6293 136.1 99.3155 138.101 98.8376 139.2C97.3932 142.502 87.6857 143.565 84.2834 139.385C83.702 138.672 83.7591 138.19 83.7591 136.389C83.7591 135.187 83.7591 127.506 83.7591 118.451V65.6152L108.385 66.0182Z"
                fill="white"
            />
        </mask>
        <g mask="url(#mask1_7348_52794)">
            <path
                d="M77.3968 125.151C86.0274 125.233 90.8099 119.599 90.8099 119.599C90.8099 119.599 95.4818 125.323 104.112 125.405C104.112 125.405 105.389 142.238 90.5067 151.139C75.7991 141.956 77.3968 125.151 77.3968 125.151Z"
                fill="#4129A3"
            />
        </g>
        <path
            d="M59.1337 66.0163C59.1337 66.0163 50.5067 75.7952 63.5773 105.21C63.5773 105.21 70.0146 117.536 70.5888 133.377C70.5888 133.377 70.6137 134.24 70.5424 134.287C67.889 136.099 68.2029 138.099 68.6808 139.198C70.1251 142.5 79.8327 143.563 83.235 139.383C83.8163 138.67 83.7593 138.188 83.7593 136.387V65.6133L59.1337 66.0163Z"
            fill="#6D4AFF"
        />
        <mask
            id="mask2_7348_52794"
            style="mask-type: luminance"
            maskUnits="userSpaceOnUse"
            x="56"
            y="65"
            width="28"
            height="78"
        >
            <path
                d="M59.1337 66.0182C59.1337 66.0182 50.5067 75.7972 63.5773 105.212C63.5773 105.212 70.0146 117.538 70.5888 133.379C70.5888 133.379 70.6137 134.242 70.5424 134.289C67.889 136.1 68.2029 138.101 68.6808 139.2C70.1251 142.502 79.8327 143.565 83.235 139.385C83.8163 138.672 83.7593 138.19 83.7593 136.389V65.6152L59.1337 66.0182Z"
                fill="white"
            />
        </mask>
        <g mask="url(#mask2_7348_52794)">
            <path
                d="M90.1215 125.151C81.491 125.233 76.7085 119.599 76.7085 119.599C76.7085 119.599 72.0366 125.323 63.406 125.405C63.406 125.405 62.1293 142.238 77.0117 151.139C91.7193 141.956 90.1215 125.151 90.1215 125.151Z"
                fill="#4129A3"
            />
        </g>
        <path
            d="M108.385 57.5361H59.1335V66.0133C59.2405 66.0704 59.344 66.1275 59.4545 66.181C68.2242 70.646 78.4453 71.3129 83.7592 71.3129C89.073 71.3129 99.2942 70.646 108.064 66.181C108.171 66.1275 108.278 66.0668 108.385 66.0133V57.5361Z"
            fill="#4129A3"
        />
        <path
            d="M94.5509 17.4417L102.286 12.4737C104.968 10.7512 108.527 12.4131 108.934 15.5729L110.806 30.1521L94.5474 17.4417H94.5509Z"
            fill="#6D4AFF"
        />
        <path
            d="M73.5523 17.4417L65.8169 12.4737C63.135 10.7512 59.5758 12.4131 59.1692 15.5729L57.2969 30.1521L73.5558 17.4417H73.5523Z"
            fill="#6D4AFF"
        />
        <path
            d="M63.6808 18.3328L67.4362 20.7472L61.3127 24.8628L62.0545 19.0889C62.1544 18.315 63.0246 17.912 63.6772 18.3328H63.6808Z"
            fill="#4A2DC5"
        />
        <path
            d="M103.838 18.3328L100.083 20.7472L106.206 24.8628L105.464 19.0889C105.364 18.315 104.494 17.912 103.841 18.3328H103.838Z"
            fill="#4A2DC5"
        />
        <path
            d="M83.7593 15.5127C65.874 15.5127 51.3733 30.552 51.3733 45.4308C51.3733 60.3096 69.0303 65.6127 83.7593 65.6127C98.4883 65.6127 116.145 60.3096 116.145 45.4308C116.145 30.552 101.644 15.5127 83.7593 15.5127Z"
            fill="#6D4AFF"
        />
        <path
            d="M102.526 51.3553C107.881 49.0456 110.561 43.3202 108.511 38.5672C106.461 33.8142 100.458 31.8335 95.1026 34.1432C89.7473 36.4528 87.0678 42.1783 89.1177 46.9313C91.1676 51.6843 97.1707 53.665 102.526 51.3553Z"
            fill="white"
        />
        <path
            d="M78.4054 46.9259C80.4553 42.1729 77.7758 36.4475 72.4205 34.1379C67.0652 31.8282 61.0622 33.8089 59.0122 38.5619C56.9623 43.3149 59.6418 49.0403 64.9971 51.35C70.3524 53.6597 76.3554 51.6789 78.4054 46.9259Z"
            fill="white"
        />
        <path
            d="M95.8345 50.0027C97.7865 50.0027 99.3688 47.424 99.3688 44.243C99.3688 41.0621 97.7865 38.4834 95.8345 38.4834C93.8826 38.4834 92.3003 41.0621 92.3003 44.243C92.3003 47.424 93.8826 50.0027 95.8345 50.0027Z"
            fill="#4129A3"
        />
        <path
            d="M78.7202 41.0221C75.778 33.8716 65.0147 31.1397 60.1752 37.7232C58.6666 39.8131 58.2993 42.5164 58.8842 45.0521C56.8264 41.1933 58.3813 36.2361 62.0868 33.9821C68.1388 30.027 77.5183 33.843 78.7202 41.0257V41.0221Z"
            fill="#372480"
        />
        <path
            d="M88.7983 41.0222C90.0002 33.8395 99.3797 30.0271 105.432 33.9786C109.137 36.2326 110.692 41.1933 108.634 45.0486C109.223 42.5165 108.852 39.8096 107.343 37.7197C102.504 31.1362 91.7406 33.8681 88.7983 41.0186V41.0222Z"
            fill="#6D4AFF"
        />
        <path
            d="M81.6196 51.1289C82.8037 51.1289 83.7594 52.0883 83.7594 53.2687"
            stroke="white"
            stroke-width="0.891586"
            stroke-miterlimit="10"
            stroke-linecap="round"
        />
        <path
            d="M85.8991 51.1289C84.7151 51.1289 83.7593 52.0883 83.7593 53.2687"
            stroke="white"
            stroke-width="0.891586"
            stroke-miterlimit="10"
            stroke-linecap="round"
        />
        <path
            opacity="0.7"
            d="M97.9925 41.8141C98.7291 41.8141 99.3263 41.2169 99.3263 40.4803C99.3263 39.7437 98.7291 39.1465 97.9925 39.1465C97.2559 39.1465 96.6587 39.7437 96.6587 40.4803C96.6587 41.2169 97.2559 41.8141 97.9925 41.8141Z"
            fill="white"
        />
        <path
            d="M66.4339 50.0027C68.3858 50.0027 69.9682 47.424 69.9682 44.243C69.9682 41.0621 68.3858 38.4834 66.4339 38.4834C64.482 38.4834 62.8997 41.0621 62.8997 44.243C62.8997 47.424 64.482 50.0027 66.4339 50.0027Z"
            fill="#4129A3"
        />
        <path
            opacity="0.7"
            d="M68.588 41.8141C69.3246 41.8141 69.9218 41.2169 69.9218 40.4803C69.9218 39.7437 69.3246 39.1465 68.588 39.1465C67.8513 39.1465 67.2542 39.7437 67.2542 40.4803C67.2542 41.2169 67.8513 41.8141 68.588 41.8141Z"
            fill="white"
        />
        <path
            d="M102.526 51.3543C107.881 49.0447 110.561 43.3192 108.511 38.5662C106.461 33.8133 100.458 31.8325 95.1026 34.1422C89.7473 36.4519 87.0678 42.1773 89.1177 46.9303C91.1676 51.6833 97.1707 53.664 102.526 51.3543Z"
            fill="white"
        />
        <path
            d="M95.2393 50.0007C97.1912 50.0007 98.7736 47.4221 98.7736 44.2411C98.7736 41.0601 97.1912 38.4814 95.2393 38.4814C93.2874 38.4814 91.7051 41.0601 91.7051 44.2411C91.7051 47.4221 93.2874 50.0007 95.2393 50.0007Z"
            fill="#4129A3"
        />
        <path
            d="M86.6443 41.5561C86.6443 41.5561 91.9795 42.2123 96.0594 39.8764C100.439 37.3692 102.515 33.8171 109.091 34.8229L105.564 29.3485L88.4132 28.917L86.6443 30.907V41.5561Z"
            fill="#6D4AFF"
        />
        <path
            opacity="0.7"
            d="M97.3934 41.8122C98.13 41.8122 98.7272 41.215 98.7272 40.4783C98.7272 39.7417 98.13 39.1445 97.3934 39.1445C96.6567 39.1445 96.0596 39.7417 96.0596 40.4783C96.0596 41.215 96.6567 41.8122 97.3934 41.8122Z"
            fill="white"
        />
        <path
            d="M87.5645 41.6231C97.9033 40.7708 98.3598 34.6866 105.004 34.6973C105.949 34.7222 106.873 34.8364 107.771 35.0717C105.938 35.2857 104.137 35.5282 102.622 36.2843C101.106 37.0047 99.8541 38.2672 98.3134 39.3692C95.3213 41.6445 91.2021 42.6574 87.5645 41.6231Z"
            fill="#372480"
        />
        <path
            d="M102.611 131.505C107.126 129.808 113.581 130.478 116.587 134.637L115.678 135.2C113.085 131.245 106.93 130.436 102.611 131.505Z"
            fill="white"
        />
        <path
            d="M64.8579 131.505C60.5426 130.436 54.3835 131.245 51.7908 135.2L50.8813 134.637C53.8878 130.478 60.3393 129.808 64.8579 131.505Z"
            fill="white"
        />
        <path
            d="M108.385 57.5361H59.1335V66.0133C59.2405 66.0704 59.344 66.1275 59.4545 66.181C68.2242 70.646 78.4453 71.3129 83.7592 71.3129C89.073 71.3129 99.2942 70.646 108.064 66.181C108.171 66.1275 108.278 66.0668 108.385 66.0133V57.5361Z"
            fill="#4129A3"
        />
        <path
            d="M94.5512 17.4397L102.287 12.4718C104.968 10.7492 108.528 12.4112 108.934 15.5709L110.807 30.1502L94.5476 17.4397H94.5512Z"
            fill="#6D4AFF"
        />
        <path
            d="M73.5525 17.4397L65.8171 12.4718C63.1352 10.7492 59.576 12.4112 59.1695 15.5709L57.2971 30.1502L73.5561 17.4397H73.5525Z"
            fill="#6D4AFF"
        />
        <path
            d="M63.681 18.3308L67.4364 20.7452L61.313 24.8608L62.0548 19.0869C62.1546 18.313 63.0248 17.91 63.6775 18.3308H63.681Z"
            fill="#4A2DC5"
        />
        <path
            d="M103.838 18.3308L100.083 20.7452L106.206 24.8608L105.464 19.0869C105.364 18.313 104.494 17.91 103.841 18.3308H103.838Z"
            fill="#4A2DC5"
        />
        <path
            d="M83.7595 15.5107C65.8743 15.5107 51.3735 30.55 51.3735 45.4288C51.3735 60.3076 69.0305 65.6108 83.7595 65.6108C98.4885 65.6108 116.145 60.3076 116.145 45.4288C116.145 30.55 101.645 15.5107 83.7595 15.5107Z"
            fill="#6D4AFF"
        />
        <path
            d="M102.526 51.3533C107.881 49.0437 110.561 43.3183 108.511 38.5653C106.461 33.8123 100.458 31.8316 95.1028 34.1412C89.7475 36.4509 87.068 42.1763 89.1179 46.9293C91.1679 51.6823 97.1709 53.663 102.526 51.3533Z"
            fill="white"
        />
        <path
            d="M78.4056 46.924C80.4555 42.171 77.776 36.4456 72.4207 34.1359C67.0655 31.8262 61.0624 33.807 59.0125 38.56C56.9626 43.313 59.6421 49.0384 64.9973 51.348C70.3526 53.6577 76.3557 51.677 78.4056 46.924Z"
            fill="white"
        />
        <path
            d="M102.269 48.864C104.221 48.864 105.803 46.2853 105.803 43.1044C105.803 39.9234 104.221 37.3447 102.269 37.3447C100.317 37.3447 98.7346 39.9234 98.7346 43.1044C98.7346 46.2853 100.317 48.864 102.269 48.864Z"
            fill="#4129A3"
        />
        <path
            d="M78.7202 41.0201C75.778 33.8696 65.0147 31.1378 60.1752 37.7213C58.6666 39.8111 58.2993 42.5144 58.8842 45.0501C56.8264 41.1913 58.3813 36.2341 62.0868 33.9802C68.1388 30.0251 77.5183 33.8411 78.7202 41.0237V41.0201Z"
            fill="#372480"
        />
        <path
            d="M88.7986 41.0202C90.0004 33.8376 99.3799 30.0252 105.432 33.9767C109.137 36.2306 110.692 41.1914 108.635 45.0466C109.223 42.5145 108.852 39.8076 107.344 37.7178C102.504 31.1343 91.7408 33.8661 88.7986 41.0166V41.0202Z"
            fill="#372480"
        />
        <path
            d="M81.6196 51.127C82.8037 51.127 83.7594 52.0863 83.7594 53.2668"
            stroke="white"
            stroke-width="0.891586"
            stroke-miterlimit="10"
            stroke-linecap="round"
        />
        <path
            d="M85.8991 51.127C84.7151 51.127 83.7593 52.0863 83.7593 53.2668"
            stroke="white"
            stroke-width="0.891586"
            stroke-miterlimit="10"
            stroke-linecap="round"
        />
        <path
            opacity="0.7"
            d="M104.423 40.6754C105.16 40.6754 105.757 40.0783 105.757 39.3416C105.757 38.605 105.16 38.0078 104.423 38.0078C103.686 38.0078 103.089 38.605 103.089 39.3416C103.089 40.0783 103.686 40.6754 104.423 40.6754Z"
            fill="white"
        />
        <path
            d="M72.8643 48.864C74.8162 48.864 76.3986 46.2853 76.3986 43.1044C76.3986 39.9234 74.8162 37.3447 72.8643 37.3447C70.9124 37.3447 69.3301 39.9234 69.3301 43.1044C69.3301 46.2853 70.9124 48.864 72.8643 48.864Z"
            fill="#4129A3"
        />
        <path
            opacity="0.7"
            d="M75.0184 40.6754C75.755 40.6754 76.3522 40.0783 76.3522 39.3416C76.3522 38.605 75.755 38.0078 75.0184 38.0078C74.2817 38.0078 73.6846 38.605 73.6846 39.3416C73.6846 40.0783 74.2817 40.6754 75.0184 40.6754Z"
            fill="white"
        />
        <path
            d="M85.0964 80.8818C88.953 80.8818 92.0793 77.7555 92.0793 73.8989C92.0793 70.0424 88.953 66.916 85.0964 66.916C81.2399 66.916 78.1135 70.0424 78.1135 73.8989C78.1135 77.7555 81.2399 80.8818 85.0964 80.8818Z"
            fill="#FC8F00"
        />
        <path d="M83.7591 80.8789H85.0964V66.9167H83.7591V80.8789Z" fill="#FC8F00" />
        <path
            d="M83.759 80.8818C87.6156 80.8818 90.7419 77.7555 90.7419 73.8989C90.7419 70.0424 87.6156 66.916 83.759 66.916C79.9025 66.916 76.7761 70.0424 76.7761 73.8989C76.7761 77.7555 79.9025 80.8818 83.759 80.8818Z"
            fill="#FFAC2E"
        />
        <path
            d="M83.7591 75.0469C84.9586 75.0469 85.931 74.0745 85.931 72.875C85.931 71.6755 84.9586 70.7031 83.7591 70.7031C82.5596 70.7031 81.5872 71.6755 81.5872 72.875C81.5872 74.0745 82.5596 75.0469 83.7591 75.0469Z"
            fill="#372580"
        />
        <path
            d="M83.759 76.2747V72.876"
            stroke="#372580"
            stroke-width="2.01855"
            stroke-miterlimit="10"
            stroke-linecap="round"
        />
        <path
            d="M70.2214 133.753C71.4768 133.286 72.8498 133.282 74.1444 133.453C72.9747 133.692 71.7942 134.077 70.8669 134.823L70.2214 133.753Z"
            fill="white"
        />
        <path
            d="M68.3776 118.532C69.4796 122.833 70.3925 127.93 70.5923 133.447C70.5923 133.447 70.6137 134.242 70.5423 134.288C67.889 136.1 68.2028 138.101 68.6807 139.199C70.1251 142.502 80.685 143.44 83.2349 139.385C83.7235 138.607 83.7592 138.19 83.7592 136.389V118.45"
            stroke="white"
            stroke-width="1.24822"
            stroke-miterlimit="10"
        />
        <path
            d="M61.6406 100.704C62.7926 103.293 64.6221 106.778 65.7348 109.342C67.0044 112.277 68.0779 115.298 68.9837 118.375L67.7747 118.686C67.0829 115.604 66.2234 112.555 65.1535 109.57C64.2227 106.97 62.6107 103.332 61.6406 100.704Z"
            fill="white"
        />
        <path
            d="M56.6942 82.5762C56.8653 85.3258 57.3753 88.0897 58.0066 90.818C56.983 88.2074 56.0594 85.5398 55.4602 82.7438L56.6977 82.5762H56.6942Z"
            fill="white"
        />
        <path
            d="M99.1407 118.532C98.0387 122.833 97.1257 127.93 96.926 133.447C96.926 133.447 96.9046 134.242 96.9759 134.288C99.6293 136.1 99.3154 138.101 98.8375 139.199C97.3932 142.502 86.8332 143.44 84.2833 139.385C83.7947 138.607 83.759 138.19 83.759 136.389C83.759 135.187 83.759 127.505 83.759 118.45"
            stroke="white"
            stroke-width="1.24822"
            stroke-miterlimit="10"
        />
        <path
            d="M105.878 100.704C104.901 103.35 103.299 106.959 102.365 109.57C101.299 112.555 100.436 115.604 99.7437 118.686L98.5347 118.375C99.4405 115.298 100.514 112.273 101.784 109.342C102.889 106.792 104.729 103.275 105.878 100.704Z"
            fill="white"
        />
        <path
            d="M112.062 82.7438C111.459 85.5398 110.539 88.2074 109.515 90.818C110.143 88.0862 110.653 85.3223 110.828 82.5762L112.065 82.7438H112.062Z"
            fill="white"
        />
        <path
            d="M96.6549 134.823C95.7277 134.081 94.5472 133.692 93.3774 133.453C94.672 133.282 96.0451 133.286 97.3004 133.753L96.6549 134.823Z"
            fill="white"
        />
        <path d="M83.1353 118.446L83.7344 93.3174L84.3835 118.446H83.1353Z" fill="white" />
        <path
            d="M104.622 11.7801C106.694 11.7801 108.642 13.2815 108.938 15.5711L110.739 29.5976C114.155 34.38 116.145 39.915 116.145 45.4286C116.145 51.6518 113.057 56.1989 108.385 59.3837V66.0171C108.385 66.0171 112.5 70.689 110.735 83.2782C110.735 83.2782 112.504 90.7889 117.821 102.369C124.237 116.345 120.928 129.038 115.332 134.651C116.106 136.014 115.974 137.208 115.974 137.208C115.974 137.208 115.881 139.912 113.15 139.912H98.3635C97.1473 141.278 94.387 142.112 91.5446 142.112C90.7992 142.112 90.0503 142.055 89.3192 141.934C87.1366 141.641 85.193 140.832 84.28 139.38C84.23 139.316 84.1837 139.256 84.1409 139.195H83.367C83.3242 139.256 83.2814 139.316 83.2279 139.38C82.3149 140.832 80.3713 141.641 78.1887 141.934C77.4576 142.055 76.7086 142.112 75.9633 142.112C73.1209 142.112 70.3605 141.278 69.1444 139.912H54.3583C51.623 139.912 51.5338 137.208 51.5338 137.208C51.5338 137.208 51.4054 136.014 52.1757 134.651C46.5801 129.038 43.267 116.345 49.6864 102.369C55.0039 90.7889 56.7728 83.2782 56.7728 83.2782C55.0074 70.689 59.123 66.0171 59.123 66.0171V59.3837C54.4546 56.1989 51.3626 51.6518 51.3626 45.4286C51.3626 39.5477 53.6308 33.6382 57.4753 28.6454L59.1551 15.5676C59.4475 13.278 61.3983 11.7765 63.4704 11.7765C64.2585 11.7765 65.0645 11.9941 65.8027 12.4684L73.2814 17.2687C76.566 16.1382 80.0859 15.5069 83.7486 15.5069C87.4112 15.5069 91.2022 16.1881 94.5903 17.4042L102.276 12.472C103.014 11.9977 103.82 11.7801 104.608 11.7801M104.622 10.5319C103.563 10.5319 102.522 10.8386 101.616 11.4199L94.4405 16.0241C90.9704 14.8507 87.3827 14.2587 83.7628 14.2587C80.143 14.2587 76.8156 14.8079 73.4668 15.8957L66.491 11.4199C65.5852 10.8386 64.5438 10.5319 63.4846 10.5319C60.6779 10.5319 58.292 12.6289 57.9318 15.4106L56.2949 28.1568C52.3184 33.4314 50.1287 39.5512 50.1287 45.4286C50.1287 51.3059 52.7392 56.3166 57.889 60.0327V65.6034C56.9083 67.0335 54.0374 72.2938 55.5174 83.2033C55.1857 84.505 53.267 91.602 48.5666 101.845C45.5352 108.449 44.3726 115.35 45.2035 121.802C45.874 126.991 47.8605 131.702 50.6993 134.887C50.2463 136.064 50.2784 137.023 50.2998 137.283C50.3676 138.853 51.5017 141.156 54.3726 141.156H68.6451C70.1965 142.526 72.9319 143.357 75.974 143.357C76.7942 143.357 77.6073 143.293 78.3812 143.168C80.7457 142.847 82.6181 141.998 83.7593 140.743C84.9005 141.998 86.7728 142.847 89.1373 143.168C89.9148 143.293 90.7244 143.357 91.5446 143.357C94.5867 143.357 97.3221 142.526 98.8734 141.156H113.146C116.017 141.156 117.147 138.856 117.219 137.283C117.24 137.019 117.276 136.064 116.819 134.887C119.658 131.702 121.648 126.991 122.315 121.802C123.146 115.35 121.983 108.449 118.952 101.845C114.252 91.6056 112.333 84.5086 112.001 83.2033C113.481 72.2796 110.614 67.0299 109.63 65.5998V60.0292C114.779 56.3131 117.39 51.4022 117.39 45.425C117.39 39.8544 115.503 34.2267 111.933 29.1268L110.172 15.4071C109.815 12.6253 107.426 10.5283 104.619 10.5283L104.622 10.5319Z"
            fill="white"
        />
        <path
            d="M128.032 127.996H140.222V122.329H128.032V127.996Z"
            fill="#E4E4E4"
            stroke="#2E2E2E"
            stroke-width="0.534952"
            stroke-miterlimit="10"
        />
        <path
            d="M134.416 112.592C140.079 112.592 144.812 116.575 145.963 121.896C146.242 123.187 145.272 124.411 143.952 124.411H124.876C123.556 124.411 122.586 123.187 122.864 121.896C124.016 116.579 128.749 112.592 134.412 112.592H134.416Z"
            fill="#FFAC2E"
        />
        <path
            d="M126.117 127.777H142.073C148.742 127.777 154.198 133.234 154.198 139.903V141.693C154.198 142.585 145.197 143.305 134.095 143.305C122.993 143.305 113.991 142.585 113.991 141.693V139.903C113.991 133.234 119.448 127.777 126.117 127.777Z"
            fill="white"
            stroke="#2E2E2E"
            stroke-width="0.534952"
            stroke-miterlimit="10"
        />
        <path
            d="M134.095 140.453C144.779 140.453 153.513 139.786 154.155 138.94C154.18 139.258 154.198 139.579 154.198 139.903V141.694C154.198 142.585 145.197 143.306 134.095 143.306C122.993 143.306 113.991 142.585 113.991 141.694V139.903C113.991 139.579 114.009 139.258 114.034 138.94C114.676 139.782 123.41 140.453 134.095 140.453Z"
            fill="#E4E4E4"
            stroke="#2E2E2E"
            stroke-width="0.534952"
            stroke-miterlimit="10"
        />
        <path
            d="M229.587 34.2351L224.444 27.3164H182.072L176.93 34.2351V49.5633H229.587V34.2351Z"
            fill="#E4E4E4"
            stroke="#2E2E2E"
            stroke-width="0.534952"
            stroke-miterlimit="10"
        />
        <path
            d="M209.751 -0.000976562H189.358C187.222 -0.000976562 185.475 1.74653 185.475 3.88277V39.3322C185.475 41.4685 187.222 43.216 189.358 43.216H219.284C221.42 43.216 223.167 41.4685 223.167 39.3322V13.4156L209.751 -0.000976562Z"
            fill="#D94528"
        />
        <path
            d="M223.168 13.4156L209.751 -0.000976562H208.196V9.53186C208.196 12.5312 210.635 14.967 213.631 14.967H223.164V13.4156H223.168Z"
            fill="#B22A1A"
        />
        <path
            d="M209.751 -0.000976562V9.53186C209.751 11.6681 211.498 13.4156 213.634 13.4156H223.167L209.751 -0.000976562Z"
            fill="#ED7F46"
        />
        <path
            d="M221.908 129.879L228.103 142.375C228.991 144.116 231.302 143.306 231.27 141.312L231.302 128.695C230.931 126.74 226.413 124.376 224.458 124.747C222.147 125.15 220.839 127.803 221.905 129.882L221.908 129.879Z"
            fill="#E4E4E4"
            stroke="#2E2E2E"
            stroke-width="0.534952"
            stroke-miterlimit="10"
        />
        <path
            d="M184.608 129.879L178.413 142.375C177.525 144.116 175.214 143.306 175.246 141.312L175.214 128.695C175.585 126.74 180.104 124.376 182.058 124.747C184.369 125.15 185.678 127.803 184.612 129.882L184.608 129.879Z"
            fill="#E4E4E4"
            stroke="#2E2E2E"
            stroke-width="0.534952"
            stroke-miterlimit="10"
        />
        <path
            d="M224.444 38.7682C224.444 39.5813 223.784 40.2375 222.975 40.2375H183.542C182.729 40.2375 182.072 39.5777 182.072 38.7682C182.072 37.955 181.413 37.2988 180.603 37.2988H174.137C171.184 37.2988 168.788 39.6954 168.788 42.6483V123.34C168.788 126.293 171.184 128.69 174.137 128.69H232.383C235.336 128.69 237.732 126.293 237.732 123.34V42.6483C237.732 39.6954 235.336 37.2988 232.383 37.2988H225.917C225.104 37.2988 224.448 37.9586 224.448 38.7682H224.444Z"
            fill="white"
            stroke="#2E2E2E"
            stroke-width="0.534952"
            stroke-miterlimit="10"
        />
        <path
            d="M229.284 48.3525H177.761C175.425 48.3525 173.531 50.2462 173.531 52.5822V104.362C173.531 106.698 175.425 108.592 177.761 108.592H229.284C231.62 108.592 233.513 106.698 233.513 104.362V52.5822C233.513 50.2462 231.62 48.3525 229.284 48.3525Z"
            fill="#E4E4E4"
        />
        <path
            d="M226.02 52.2949H181.027C179.058 52.2949 177.461 53.8916 177.461 55.8613V100.854C177.461 102.824 179.058 104.421 181.027 104.421H226.02C227.99 104.421 229.587 102.824 229.587 100.854V55.8613C229.587 53.8916 227.99 52.2949 226.02 52.2949Z"
            fill="#372480"
            stroke="#372480"
            stroke-width="0.534952"
            stroke-miterlimit="10"
        />
        <path
            d="M189.99 68.3965V75.8858H188.845V75.4685L188.16 75.8858H185.892L184.961 74.5056V68.3965H186.106V74.3024L186.449 74.8266H188.588L188.845 74.5591V68.3965H189.99Z"
            fill="#01FBF7"
        />
        <path
            d="M195.489 70.0654L196.399 71.4456V74.9121L195.457 75.8857H193.221L192.536 75.4898V78.1967H191.392V70.0654H192.536V70.472L193.2 70.0654H195.489ZM192.889 74.8265H195.019L195.254 74.5804V71.6489L194.912 71.1246H192.782L192.536 71.3707V74.3129L192.889 74.8265Z"
            fill="#01FBF7"
        />
        <path
            d="M199.534 67.8838L200.507 68.4508V74.3246L200.85 74.8275H202.679V75.8867H200.293L199.362 74.5172V68.943H197.939V67.8838H199.534Z"
            fill="#01FBF7"
        />
        <path
            d="M205.182 70.0654H208.339L209.259 71.4456V74.9121L208.317 75.8857H205.172L204.241 74.5055V71.039L205.182 70.0654ZM205.375 74.3129L205.728 74.8265H207.868L208.103 74.5697V71.6275L207.761 71.1139H205.621L205.375 71.3814V74.3129Z"
            fill="#01FBF7"
        />
        <path
            d="M214.972 69.9688L215.7 71.0387V75.8853H214.533V75.4681L213.849 75.8853H211.548L210.607 74.4837V73.9595L212.308 72.1835H214.533V71.028H211.474V69.9688H214.972ZM212.073 74.8047H214.512V73.2748H212.747L211.795 74.2484V74.2912L212.073 74.8047Z"
            fill="#01FBF7"
        />
        <path
            d="M220.974 67.7334H222.13V75.8861H220.974V75.4795L220.311 75.8861H218.053L217.101 74.4952V71.0501L218.053 70.0551H220.3L220.974 70.4617V67.7334ZM218.257 74.3026L218.599 74.8162H220.749L220.974 74.5808V71.6386L220.632 71.1143H218.513L218.257 71.3818V74.3026Z"
            fill="#01FBF7"
        />
        <path
            d="M196.377 81.2354V82.2946H193.21L192.782 82.7439V84.3274H195.115V85.3973H192.782V88.7247H191.638V82.3908L192.772 81.2354H196.377Z"
            fill="#01FBF7"
        />
        <path
            d="M199.951 82.7014L200.871 84.0709V87.6871H202.818V88.7249H197.811V87.6871H199.758V84.2527L199.405 83.7392H198.249V82.7014H199.951ZM200.988 81.4389V80.0908H199.64V81.4389H200.988Z"
            fill="#01FBF7"
        />
        <path
            d="M205.953 80.7227L206.926 81.2897V87.1635L207.269 87.6663H209.098V88.7255H206.712L205.782 87.3561V81.7819H204.359V80.7227H205.953Z"
            fill="#01FBF7"
        />
        <path
            d="M214.705 82.8828L215.646 84.2844L213.795 86.1888H211.784V87.0982L212.148 87.6439H214.277L214.865 87.034L215.529 87.8579L214.694 88.7245H211.591L210.682 87.3657V83.835L211.602 82.8828H214.705ZM211.784 85.2045H213.378L214.266 84.2737L214.052 83.9741H212.062L211.784 84.2523V85.2045Z"
            fill="#01FBF7"
        />
        <path
            d="M175.653 118.58C176.823 118.58 177.771 117.631 177.771 116.461C177.771 115.291 176.823 114.343 175.653 114.343C174.483 114.343 173.535 115.291 173.535 116.461C173.535 117.631 174.483 118.58 175.653 118.58Z"
            fill="#E4E4E4"
        />
        <path
            d="M182.803 118.58C183.973 118.58 184.922 117.631 184.922 116.461C184.922 115.291 183.973 114.343 182.803 114.343C181.634 114.343 180.685 115.291 180.685 116.461C180.685 117.631 181.634 118.58 182.803 118.58Z"
            fill="#E4E4E4"
        />
        <path
            d="M231.399 114.343H220.461C219.291 114.343 218.342 115.291 218.342 116.461V116.465C218.342 117.635 219.291 118.583 220.461 118.583H231.399C232.569 118.583 233.517 117.635 233.517 116.465V116.461C233.517 115.291 232.569 114.343 231.399 114.343Z"
            fill="#E4E4E4"
        />
    </g>
    <defs>
        <clipPath id="clip0_7348_52794">
            <rect width="238" height="151.138" fill="white" />
        </clipPath>
    </defs>
</svg>
