<svg width="343" height="206" viewBox="0 0 343 206" fill="none" xmlns="http://www.w3.org/2000/svg">
    <path
        d="M0 16C0 7.16345 7.16344 0 16 0H327C335.837 0 343 7.16344 343 16V190C343 198.837 335.837 206 327 206H16C7.16345 206 0 198.837 0 190V16Z"
        fill="#F2F2F2"
    />
    <path
        d="M187.285 33.5516H256.362C261.938 33.5517 266.458 38.0717 266.458 43.6473V67.5585C266.458 73.1342 261.938 77.6541 256.362 77.6542H177.189V43.6473C177.19 38.0718 181.71 33.5518 187.285 33.5516Z"
        fill="white"
        stroke="#E4E4E4"
        stroke-width="1.06272"
    />
    <path
        d="M230.869 59.5884C233.21 59.5884 235.107 61.3728 235.107 63.5737C235.107 65.7747 233.21 67.5591 230.869 67.5591H188.866C186.526 67.5591 184.628 65.7747 184.628 63.5737C184.628 61.3728 186.526 59.5884 188.866 59.5884H230.869ZM253.179 43.5708C255.326 43.5708 257.066 45.3112 257.066 47.4585C257.066 49.6057 255.326 51.3462 253.179 51.3462H188.516C186.368 51.3462 184.628 49.6057 184.628 47.4585C184.628 45.3112 186.368 43.5708 188.516 43.5708H253.179Z"
        fill="#D9D9D9"
    />
    <path
        d="M197.912 31.6921C189.424 33.1796 187.869 34.3887 185.957 40.9909C184.044 34.3887 182.49 33.1796 174.001 31.6921C182.49 30.2047 184.044 28.9955 185.957 22.3933C187.869 28.9955 189.424 30.2047 197.912 31.6921Z"
        fill="#FFAC2F"
    />
    <path
        d="M256.882 83.8327C262.007 83.8327 266.162 79.6777 266.162 74.5524C266.162 69.427 262.007 65.272 256.882 65.272C251.757 65.272 247.602 69.427 247.602 74.5524C247.602 79.6777 251.757 83.8327 256.882 83.8327Z"
        fill="#FFAC2E"
    />
    <path
        d="M248.659 67.4752C249.749 66.6361 249.598 64.6132 248.322 62.9569C247.047 61.3006 245.13 60.638 244.04 61.4771C242.951 62.3161 243.101 64.339 244.377 65.9953C245.653 67.6517 247.57 68.3142 248.659 67.4752Z"
        fill="#FFC880"
    />
    <path
        d="M269.389 65.998C270.664 64.3417 270.815 62.3188 269.726 61.4797C268.636 60.6407 266.719 61.3032 265.443 62.9596C264.168 64.6159 264.017 66.6388 265.107 67.4778C266.196 68.3169 268.113 67.6543 269.389 65.998Z"
        fill="#FFC880"
    />
    <path
        d="M253.598 63.3669C255.165 63.1103 256.119 60.971 255.728 58.5884C255.338 56.2059 253.752 54.4825 252.185 54.739C250.619 54.9956 249.665 57.135 250.055 59.5175C250.445 61.9 252.032 63.6234 253.598 63.3669Z"
        fill="#FFC880"
    />
    <path
        d="M263.709 59.52C264.099 57.1374 263.145 54.9981 261.579 54.7415C260.012 54.485 258.426 56.2084 258.036 58.5909C257.645 60.9734 258.599 63.1128 260.166 63.3694C261.732 63.6259 263.319 61.9025 263.709 59.52Z"
        fill="#FFC880"
    />
    <path
        d="M256.882 93.3933C254.5 93.3933 252.57 91.4633 252.57 89.0816V74.5564C252.57 72.1747 254.5 70.2448 256.882 70.2448C259.264 70.2448 261.194 72.1747 261.194 74.5564V89.0816C261.194 91.4633 259.264 93.3933 256.882 93.3933Z"
        fill="#FFAC2E"
    />
    <path
        d="M253.698 79.5436C252.623 79.5436 251.753 78.6738 251.753 77.5987C251.753 76.5236 252.623 75.6538 253.698 75.6538C254.773 75.6538 255.643 76.5236 255.643 77.5987"
        stroke="white"
        stroke-width="0.746607"
        stroke-miterlimit="10"
    />
    <path d="M255.643 77.5984V89.1036" stroke="white" stroke-width="0.746607" stroke-miterlimit="10" />
    <path d="M253.698 79.5436H256.883" stroke="white" stroke-width="0.746607" stroke-miterlimit="10" />
    <path
        d="M260.066 79.5436C261.141 79.5436 262.011 78.6738 262.011 77.5987C262.011 76.5236 261.141 75.6538 260.066 75.6538C258.991 75.6538 258.121 76.5236 258.121 77.5987"
        stroke="white"
        stroke-width="0.746607"
        stroke-miterlimit="10"
    />
    <path d="M258.121 77.5984V89.1036" stroke="white" stroke-width="0.746607" stroke-miterlimit="10" />
    <path d="M260.066 79.5436H256.882" stroke="white" stroke-width="0.746607" stroke-miterlimit="10" />
    <path
        d="M256.882 93.3934C259.263 93.3934 261.193 91.4634 261.193 89.0817H252.566C252.566 91.4634 254.496 93.3934 256.878 93.3934H256.882Z"
        fill="#EAE7E4"
    />
    <path
        d="M124.139 154.037C124.139 154.037 110.801 161.712 98.3815 168.367C86.2744 174.853 74.809 177.932 66.8116 175.824C38.8243 168.451 42.2681 148.825 42.2681 148.825C42.2681 148.825 42.7953 143.512 48.1257 142.243C53.4561 140.97 57.9785 146.349 61.4916 153.399C65.0048 160.446 72.69 165.212 81.0931 163.325C90.502 161.213 101.25 154.426 101.25 154.426L121.368 146.994L124.139 154.041V154.037Z"
        fill="#6D4AFF"
    />
    <mask
        id="mask0_13298_86063"
        style="mask-type: luminance"
        maskUnits="userSpaceOnUse"
        x="42"
        y="142"
        width="83"
        height="35"
    >
        <path
            d="M124.139 154.037C124.139 154.037 110.801 161.712 98.3815 168.367C86.2744 174.853 74.809 177.932 66.8116 175.824C38.8243 168.451 42.2681 148.825 42.2681 148.825C42.2681 148.825 42.7953 143.512 48.1257 142.243C53.4561 140.97 57.9785 146.349 61.4916 153.399C65.0048 160.446 72.69 165.212 81.0931 163.325C90.502 161.213 101.25 154.426 101.25 154.426L121.368 146.994L124.139 154.041V154.037Z"
            fill="white"
        />
    </mask>
    <g mask="url(#mask0_13298_86063)">
        <path
            d="M54.3851 118.341C43.2526 124.535 33.0772 120.602 33.0772 120.602C33.0772 120.602 31.0554 131.322 19.9229 137.516C19.9229 137.516 30.1398 160.245 55.7168 161.293C68.3128 139.007 54.3851 118.341 54.3851 118.341Z"
            fill="#4129A3"
        />
    </g>
    <path
        d="M124.139 154.037C124.139 154.037 110.801 161.712 98.3815 168.367C86.2744 174.853 74.809 177.932 66.8116 175.824C38.8243 168.451 42.2681 148.825 42.2681 148.825C42.2681 148.825 42.7953 143.512 48.1257 142.243C53.4561 140.97 57.9785 146.349 61.4916 153.399C65.0048 160.446 72.69 165.212 81.0931 163.325C90.502 161.213 101.25 154.426 101.25 154.426L121.368 146.994L124.139 154.041V154.037Z"
        stroke="white"
        stroke-width="1.21382"
        stroke-miterlimit="10"
    />
    <path
        d="M121.062 164.31C121.062 164.31 114.077 174.898 113.675 177.919C113.38 180.121 113.606 181.411 114.275 182.715C114.844 183.825 115.763 184.695 116.997 184.525C118.607 184.303 120.895 183.37 123.174 180.325L129.85 171.385L122.154 161.875"
        fill="#4129A3"
    />
    <path
        d="M121.062 164.31C121.062 164.31 114.077 174.898 113.675 177.919C113.38 180.121 113.606 181.411 114.275 182.715C114.844 183.825 115.763 184.695 116.997 184.525C118.607 184.303 120.895 183.37 123.174 180.325L129.85 171.385L122.154 161.875"
        stroke="white"
        stroke-width="1.21382"
        stroke-miterlimit="10"
        stroke-linecap="round"
    />
    <path
        d="M116.211 176.791C116.211 176.791 115.413 177.766 115.406 180.464C115.406 181.359 116.016 182.104 116.873 182.361C117.73 182.618 118.662 183.415 119.228 184.556C120.303 186.731 119.821 189.332 117.997 189.609C112.482 190.449 105.671 189.318 105.671 189.318C105.671 189.318 103.403 189.131 102.439 184.477C101.721 180.998 100.042 172.515 97.75 170.067"
        fill="#6D4AFF"
    />
    <path
        d="M101.104 174.676L95.2364 166.606C90.0759 159.51 89.1049 150.195 92.6874 142.184C96.4052 133.881 101.874 127.181 111.869 124.313L124.042 121.614C128.083 120.72 131.415 117.872 132.934 114.023L138.164 100.764L163.131 110.603L154.832 164.56C154.832 164.56 149.109 165.52 142.614 167.608C136.819 169.47 127.84 172.55 118.868 173.306C118.868 173.306 117.363 174.381 116.215 176.795"
        fill="#6D4AFF"
    />
    <mask
        id="mask1_13298_86063"
        style="mask-type: luminance"
        maskUnits="userSpaceOnUse"
        x="97"
        y="160"
        width="30"
        height="30"
    >
        <path
            d="M97.751 170.067C100.043 172.515 101.722 181.002 102.44 184.477C103.404 189.131 105.672 189.318 105.672 189.318C105.672 189.318 112.483 190.449 117.998 189.609C119.825 189.332 120.307 186.731 119.229 184.556C118.663 183.412 117.751 182.625 116.874 182.361C115.996 182.098 115.4 181.359 115.407 180.464C115.445 176.261 118.348 173.726 118.348 173.726C118.348 173.726 124.587 173.726 126.477 163.471C128.367 153.215 97.751 170.067 97.751 170.067Z"
            fill="white"
        />
    </mask>
    <g mask="url(#mask1_13298_86063)">
        <path
            d="M112.546 172.748C112.546 172.748 106.702 179.073 99.8148 177.905L98.6738 187.972L112.595 195.557L127.691 192.675L118.168 177.426C118.168 177.426 115.445 177.641 112.546 172.748Z"
            fill="#4129A3"
        />
    </g>
    <path
        d="M117.935 183.225C116.673 182.132 114.724 182.559 113.26 183.072L112.546 183.36L113.194 182.933C114.741 181.993 116.784 181.272 118.518 182.174C118.594 182.219 118.653 182.247 118.761 182.333L117.932 183.221L117.935 183.225Z"
        fill="white"
    />
    <path
        d="M125.756 148.357C127.993 152.629 128.582 157.755 127.334 162.43C126.096 167.181 122.988 171.249 119.298 174.398L118.528 173.459C120.38 172.006 122.073 170.351 123.498 168.482C127.958 162.871 128.863 154.825 125.756 148.357Z"
        fill="white"
    />
    <path
        d="M179.343 111.508L182.364 128.818C183.144 133.291 182.766 137.894 181.268 142.18L171.447 175.695L154.394 161.057L151.151 113.416L179.347 111.505L179.343 111.508Z"
        fill="#6D4AFF"
    />
    <path
        d="M179.763 110.288L179.365 109.833L178.026 107.156C163.661 114.331 146.629 113.666 132.868 105.391V114.137C143.959 121.282 163.238 123.019 179.76 113.898V110.284L179.763 110.288Z"
        fill="#4129A3"
    />
    <path d="M180.113 105.155L173.467 104.894L173.123 113.644L179.77 113.905L180.113 105.155Z" fill="#4129A3" />
    <path
        d="M145.942 70.1726L138.215 65.6745C135.537 64.1138 132.149 65.8756 131.886 68.9657L130.679 83.209L145.938 70.176L145.942 70.1726Z"
        fill="#6D4AFF"
    />
    <path
        d="M136.392 71.4558L140.141 73.6441L134.366 77.8995L134.845 72.2604C134.907 71.5043 135.736 71.0743 136.392 71.4558Z"
        fill="#4A2DC5"
    />
    <path
        d="M165.419 69.0003L172.941 64.1693C175.549 62.4942 179.01 64.1104 179.405 67.1831L181.226 81.3605L165.415 69.0003H165.419Z"
        fill="#6D4AFF"
    />
    <path
        d="M174.454 69.8674L170.802 72.2152L176.756 76.2174L176.035 70.6026C175.938 69.85 175.092 69.4581 174.457 69.8674H174.454Z"
        fill="#4A2DC5"
    />
    <path
        d="M187.494 93.5751C188.107 107.742 171.516 113.52 157.491 114.127C145.166 114.661 126.438 110.413 125.824 96.2455C125.21 82.0784 138.396 67.1623 155.424 66.4236C172.452 65.6849 186.876 79.408 187.49 93.5751H187.494Z"
        fill="#6D4AFF"
    />
    <path
        d="M177.692 81.5686C179.853 85.6679 177.553 90.7868 172.559 93.0029C167.562 95.219 161.763 93.6895 159.599 89.5903C157.439 85.491 159.738 80.3722 164.732 78.1561C169.729 75.94 175.528 77.4694 177.692 81.5686Z"
        fill="white"
    />
    <path
        d="M172.645 88.7111C174.539 88.5823 175.904 85.9761 175.694 82.8899C175.484 79.8037 173.779 77.4063 171.885 77.535C169.991 77.6638 168.626 80.27 168.836 83.3562C169.046 86.4424 170.751 88.8399 172.645 88.7111Z"
        fill="#4129A3"
    />
    <path
        opacity="0.7"
        d="M174.502 81.2947C175.218 81.2947 175.799 80.714 175.799 79.9976C175.799 79.2813 175.218 78.7006 174.502 78.7006C173.786 78.7006 173.205 79.2813 173.205 79.9976C173.205 80.714 173.786 81.2947 174.502 81.2947Z"
        fill="white"
    />
    <path
        d="M159.038 84.4194C159.94 79.2693 165.582 76.1411 170.545 76.6024C175.896 76.97 180.457 81.9016 178.099 87.2598C178.657 84.9188 178.133 82.4287 176.528 80.6496C171.61 75.288 161.566 77.7122 159.042 84.4194H159.038Z"
        fill="#372480"
    />
    <path
        d="M130.575 83.3061C128.834 87.551 131.636 92.4792 136.838 94.3207C142.037 96.1588 147.666 94.2132 149.407 89.9683C151.148 85.7234 148.346 80.7952 143.143 78.9537C137.945 77.1156 132.316 79.0612 130.575 83.3061Z"
        fill="white"
    />
    <path
        d="M144.178 90.2264C146.063 89.9996 147.291 87.3262 146.921 84.255C146.552 81.1838 144.725 78.878 142.84 79.1047C140.955 79.3314 139.727 82.0049 140.097 85.076C140.466 88.1472 142.293 90.4531 144.178 90.2264Z"
        fill="#4129A3"
    />
    <path
        opacity="0.7"
        d="M145.575 82.7339C146.292 82.7339 146.872 82.1532 146.872 81.4368C146.872 80.7205 146.292 80.1398 145.575 80.1398C144.859 80.1398 144.278 80.7205 144.278 81.4368C144.278 82.1532 144.859 82.7339 145.575 82.7339Z"
        fill="white"
    />
    <path
        d="M149.448 84.7731C146.331 78.4127 136.155 76.5087 131.661 82.2761C130.215 84.194 129.961 86.7291 130.745 89.0042C127.849 83.8263 131.921 78.5479 137.328 77.8162C142.256 77.0393 148.047 79.7652 149.448 84.7731Z"
        fill="#372480"
    />
    <path
        d="M157.026 173.41C157.026 173.41 156.721 177.804 156.478 179.018C156.235 180.232 155.171 183.741 157.609 185.43C159.208 186.54 166.362 188.319 169.126 185.486C171.89 182.652 166.21 175.328 166.21 175.328L157.023 173.41H157.026Z"
        fill="#4129A3"
    />
    <path
        d="M157.026 173.41L166.213 175.328C166.213 175.328 171.897 182.652 169.13 185.486C168.03 186.613 166.237 187.008 164.375 187.008C161.552 187.008 158.573 186.096 157.612 185.427C155.174 183.738 156.239 180.225 156.482 179.014C156.724 177.804 157.03 173.407 157.03 173.407M155.913 171.94L155.816 173.327C155.733 174.527 155.476 177.849 155.289 178.782C155.268 178.886 155.24 179.007 155.209 179.146C154.859 180.728 154.033 184.432 156.919 186.433C158.171 187.3 161.465 188.229 164.375 188.229C166.882 188.229 168.773 187.594 169.997 186.342C173.406 182.854 167.819 175.428 167.17 174.593L166.896 174.239L166.459 174.149L157.272 172.231L155.909 171.947L155.913 171.94Z"
        fill="white"
    />
    <path
        d="M142.353 154.922C142.353 154.922 155.347 170.996 169.615 187.255C169.615 187.255 171.446 190.095 177.692 190.341C183.515 190.57 184.191 188.42 184.191 188.42C184.191 188.42 186.016 185.025 181.022 183.055C181.022 183.055 175.06 175.033 164.531 152.213"
        fill="#6D4AFF"
    />
    <mask
        id="mask2_13298_86063"
        style="mask-type: luminance"
        maskUnits="userSpaceOnUse"
        x="142"
        y="152"
        width="43"
        height="39"
    >
        <path
            d="M142.353 154.922C142.353 154.922 157.026 173.414 169.615 187.255C169.615 187.255 171.446 190.095 177.692 190.341C183.515 190.57 184.191 188.42 184.191 188.42C184.191 188.42 186.016 185.025 181.022 183.055C181.022 183.055 175.06 175.033 164.531 152.213"
            fill="white"
        />
    </mask>
    <g mask="url(#mask2_13298_86063)">
        <path
            d="M170.506 172.467C170.506 172.467 168.218 179.431 161.236 179.174L165.041 186.228L175.795 194.995L190.385 190.157L178.958 175.113C178.958 175.113 173.954 175.994 170.51 172.467H170.506Z"
            fill="#4129A3"
        />
    </g>
    <path
        d="M173.372 170.136C170.074 163.495 166.911 156.788 163.98 149.987C167.275 156.618 170.799 163.134 174.444 169.567L173.372 170.14V170.136Z"
        fill="white"
    />
    <path
        d="M139.745 152.851C143.505 157.29 147.403 161.612 151.374 165.857L150.461 166.654C146.785 162.132 143.192 157.544 139.745 152.851Z"
        fill="white"
    />
    <path
        d="M181.338 183.114C179.708 182.684 177.95 182.725 176.271 182.864C177.107 182.583 177.957 182.344 178.824 182.174C179.736 182.004 180.62 181.869 181.567 181.921L181.338 183.114Z"
        fill="white"
    />
    <path
        d="M151.384 91.4664C152.532 91.4179 153.503 92.3092 153.555 93.4571"
        stroke="white"
        stroke-width="0.867017"
        stroke-miterlimit="10"
        stroke-linecap="round"
    />
    <path
        d="M155.544 91.2861C154.396 91.3347 153.505 92.3092 153.554 93.4571"
        stroke="white"
        stroke-width="0.867017"
        stroke-miterlimit="10"
        stroke-linecap="round"
    />
    <path
        d="M118.348 182.781C118.348 182.781 120.352 184.345 120.335 187.792"
        stroke="white"
        stroke-width="1.21382"
        stroke-miterlimit="10"
        stroke-linecap="round"
    />
    <path
        d="M175.214 63.4965C177.229 63.4965 179.122 64.9566 179.41 67.1831L180.745 77.5665C184.754 82.2172 187.251 87.8597 187.498 93.5786C187.768 99.8072 184.713 104.413 180.013 107.669L179.767 113.912L182.368 128.821C183.149 133.295 182.771 137.897 181.272 142.184L173.188 169.772C178.269 179.337 181.03 183.051 181.03 183.051C186.024 185.025 184.199 188.416 184.199 188.416C184.199 188.416 183.589 190.355 178.54 190.355C178.272 190.355 177.992 190.348 177.697 190.338C171.451 190.091 169.62 187.251 169.62 187.251C162.625 179.281 155.938 171.357 150.937 165.347C148.718 165.85 145.756 166.595 142.614 167.605C136.819 169.467 127.68 172.56 118.708 173.313C118.708 173.313 117.252 174.541 116.27 176.528C115.937 177.235 115.414 178.63 115.41 180.461C115.41 181.355 116.021 182.101 116.877 182.358C117.758 182.625 118.667 183.412 119.232 184.553C120.307 186.727 119.825 189.328 118.001 189.606C116.506 189.835 114.918 189.918 113.395 189.918C109.296 189.918 105.675 189.318 105.675 189.318C105.675 189.318 103.407 189.131 102.443 184.477C101.802 181.369 100.39 174.263 98.4618 171.038L97.7543 170.063L95.2365 166.602C90.076 159.507 89.1049 150.191 92.6875 142.18C96.4052 133.878 101.874 127.177 111.869 124.309L124.042 121.611C128.037 120.723 131.339 117.931 132.879 114.144C132.879 114.144 132.875 114.144 132.872 114.141V108.273C128.839 105.478 126.057 101.559 125.828 96.2455C125.586 90.6446 127.5 84.9327 130.954 80.0184L131.89 68.9622C132.085 66.6594 134.02 65.0953 136.101 65.0953C136.812 65.0953 137.537 65.2757 138.216 65.6745L144.14 69.1252C147.601 67.5681 151.405 66.6005 155.428 66.4271C155.869 66.4097 156.306 66.3993 156.743 66.3993C160.259 66.3993 163.651 67.0097 166.814 68.1056L172.942 64.1728C173.66 63.7116 174.444 63.5 175.21 63.5M175.214 62.2827C174.184 62.2827 173.171 62.581 172.29 63.1497L166.651 66.7704C163.426 65.7196 160.096 65.1855 156.743 65.1855C156.288 65.1855 155.831 65.1959 155.376 65.2167C151.541 65.3832 147.788 66.2398 144.219 67.7692L138.83 64.6306C137.994 64.1451 137.051 63.8884 136.104 63.8884C133.253 63.8884 130.923 66.0282 130.684 68.8686L129.775 79.6023C126.206 84.7905 124.375 90.7105 124.618 96.3079C124.84 101.403 127.209 105.641 131.662 108.907V113.929C130.229 117.234 127.302 119.658 123.782 120.439L111.609 123.137L111.575 123.144L111.54 123.154C102.415 125.769 96.0758 131.661 91.5846 141.695C87.8322 150.077 88.8587 159.898 94.2585 167.327L96.7763 170.788L97.4526 171.718C99.1831 174.652 100.529 181.175 101.174 184.321L101.261 184.733C102.315 189.828 104.947 190.452 105.505 190.528C105.859 190.587 109.379 191.142 113.402 191.142C115.167 191.142 116.777 191.035 118.188 190.816C119.197 190.664 120.026 190.053 120.522 189.1C121.244 187.712 121.164 185.722 120.324 184.026C119.638 182.639 118.479 181.584 117.231 181.206C116.863 181.095 116.628 180.807 116.628 180.475C116.631 178.869 117.092 177.655 117.366 177.065C117.98 175.827 118.816 174.912 119.232 174.496C127.653 173.719 136.194 170.962 141.879 169.127L142.985 168.77C145.357 168.007 147.875 167.313 150.479 166.706C156.874 174.381 162.992 181.55 168.669 188.018C169.092 188.59 171.437 191.316 177.652 191.558C177.953 191.569 178.255 191.576 178.54 191.576C183.797 191.576 185.042 189.568 185.309 188.912C185.493 188.531 186.072 187.109 185.469 185.455C184.945 184.026 183.717 182.888 181.813 182.066C181.127 181.085 178.581 177.308 174.489 169.644L182.427 142.558C183.981 138.095 184.376 133.274 183.561 128.616L180.984 113.836L181.203 108.314C186.374 104.534 188.968 99.4327 188.711 93.5265C188.465 87.8112 186.048 81.9779 181.904 77.0567L180.617 67.034C180.27 64.3289 177.95 62.2897 175.217 62.2897L175.214 62.2827Z"
        fill="white"
    />
    <path
        d="M161.087 129.889C164.838 129.889 167.878 126.849 167.878 123.099C167.878 119.348 164.838 116.308 161.087 116.308C157.337 116.308 154.297 119.348 154.297 123.099C154.297 126.849 157.337 129.889 161.087 129.889Z"
        fill="#FC8F00"
    />
    <path d="M163.62 116.308H161.019V129.886H163.62V116.308Z" fill="#FC8F00" />
    <path
        d="M163.62 129.889C167.37 129.889 170.41 126.849 170.41 123.099C170.41 119.348 167.37 116.308 163.62 116.308C159.869 116.308 156.829 119.348 156.829 123.099C156.829 126.849 159.869 129.889 163.62 129.889Z"
        fill="#FFAC2E"
    />
    <path
        d="M163.619 124.215C164.785 124.215 165.731 123.27 165.731 122.103C165.731 120.937 164.785 119.991 163.619 119.991C162.452 119.991 161.507 120.937 161.507 122.103C161.507 123.27 162.452 124.215 163.619 124.215Z"
        fill="#372580"
    />
    <path
        d="M163.62 125.408V122.103"
        stroke="#372580"
        stroke-width="1.96293"
        stroke-miterlimit="10"
        stroke-linecap="round"
    />
</svg>
