<svg width="87" height="92" viewBox="0 0 87 92" fill="none" xmlns="http://www.w3.org/2000/svg">
<path d="M57.4874 7.76041L67.7823 1.09982C71.3516 -1.20963 76.0885 1.01853 76.6296 5.25492L79.1215 24.8016L57.4827 7.76041H57.4874Z" fill="#6D4AFF"/>
<path d="M29.5412 7.76041L19.2462 1.09982C15.677 -1.20963 10.9401 1.01853 10.399 5.25492L7.9071 24.8016L29.5459 7.76041H29.5412Z" fill="#6D4AFF"/>
<path d="M16.4027 8.95555L21.4007 12.1926L13.2511 17.7104L14.2383 9.96922C14.3712 8.93164 15.5294 8.39134 16.398 8.95555H16.4027Z" fill="#4A2DC5"/>
<path d="M69.8473 8.95555L64.8494 12.1926L72.9989 17.7104L72.0117 9.96922C71.8788 8.93164 70.7207 8.39134 69.8521 8.95555H69.8473Z" fill="#4A2DC5"/>
<path d="M70.8916 62.905H15.3635V77.5459H70.8916V62.905Z" fill="#4129A3"/>
<path d="M44.5679 91.0678C49.7005 91.0678 53.8613 86.8762 53.8613 81.7056C53.8613 76.5351 49.7005 72.3435 44.5679 72.3435C39.4352 72.3435 35.2744 76.5351 35.2744 81.7056C35.2744 86.8762 39.4352 91.0678 44.5679 91.0678Z" fill="#FC8F00"/>
<path d="M41.0979 91.0681H44.6577V72.3487H41.0979V91.0681Z" fill="#FC8F00"/>
<path d="M41.1025 91.068C46.2352 91.068 50.396 86.8764 50.396 81.7059C50.396 76.5353 46.2352 72.3438 41.1025 72.3438C35.9699 72.3438 31.8091 76.5353 31.8091 81.7059C31.8091 86.8764 35.9699 91.068 41.1025 91.068Z" fill="#FFAC2E"/>
<path d="M41.1028 83.2457C42.6992 83.2457 43.9934 81.942 43.9934 80.3338C43.9934 78.7256 42.6992 77.4219 41.1028 77.4219C39.5064 77.4219 38.2123 78.7256 38.2123 80.3338C38.2123 81.942 39.5064 83.2457 41.1028 83.2457Z" fill="#372580"/>
<path d="M41.103 84.8903V80.3335" stroke="#372580" stroke-width="3.23122" stroke-miterlimit="10" stroke-linecap="round"/>
<path d="M86.227 45.2856C86.227 65.2339 62.7276 72.344 43.125 72.344C25.8956 72.344 0.0229492 65.2339 0.0229492 45.2856C0.0229492 25.3373 19.3218 5.17383 43.125 5.17383C66.9282 5.17383 86.227 25.3373 86.227 45.2856Z" fill="#6D4AFF"/>
<path d="M64.2552 51.7957C71.3824 48.6991 74.9485 41.0229 72.2203 34.6504C69.4921 28.278 61.5027 25.6224 54.3755 28.719C47.2482 31.8156 43.6821 39.4918 46.4103 45.8643C49.1385 52.2367 57.1279 54.8923 64.2552 51.7957Z" fill="white"/>
<path d="M32.1578 45.8623C34.886 39.4898 31.3199 31.8136 24.1927 28.717C17.0654 25.6204 9.07601 28.276 6.34781 34.6484C3.6196 41.0209 7.18573 48.6971 14.313 51.7937C21.4402 54.8903 29.4296 52.2347 32.1578 45.8623Z" fill="white"/>
<path d="M60.1549 48.0347C62.7526 48.0347 64.8585 44.5774 64.8585 40.3127C64.8585 36.0479 62.7526 32.5906 60.1549 32.5906C57.5571 32.5906 55.4512 36.0479 55.4512 40.3127C55.4512 44.5774 57.5571 48.0347 60.1549 48.0347Z" fill="#4129A3"/>
<path d="M32.5785 37.941C28.6627 28.3542 14.3381 24.6916 7.89722 33.5182C5.88949 36.3201 5.40062 39.9445 6.17903 43.3441C3.44035 38.1705 5.50978 31.5243 10.4413 28.5024C18.4959 23.1998 30.979 28.3159 32.5785 37.9458V37.941Z" fill="#372480"/>
<path d="M45.9917 37.9411C47.5912 28.3112 60.0743 23.1998 68.1289 28.4976C73.0604 31.5195 75.1298 38.1706 72.3912 43.3393C73.1743 39.9445 72.6807 36.3154 70.673 33.5134C64.2321 24.6868 49.9075 28.3494 45.9917 37.9363V37.9411Z" fill="#372480"/>
<path d="M34.9708 51.4963C36.5466 51.4963 37.8187 52.7826 37.8187 54.3652" stroke="white" stroke-width="1.42722" stroke-miterlimit="10" stroke-linecap="round"/>
<path d="M40.6664 51.4963C39.0906 51.4963 37.8186 52.7826 37.8186 54.3652" stroke="white" stroke-width="1.42722" stroke-miterlimit="10" stroke-linecap="round"/>
<path opacity="0.7" d="M63.0258 37.0609C64.0061 37.0609 64.8009 36.2603 64.8009 35.2726C64.8009 34.285 64.0061 33.4844 63.0258 33.4844C62.0454 33.4844 61.2506 34.285 61.2506 35.2726C61.2506 36.2603 62.0454 37.0609 63.0258 37.0609Z" fill="white"/>
<path d="M19.6013 48.0347C22.199 48.0347 24.3049 44.5774 24.3049 40.3127C24.3049 36.0479 22.199 32.5906 19.6013 32.5906C17.0035 32.5906 14.8976 36.0479 14.8976 40.3127C14.8976 44.5774 17.0035 48.0347 19.6013 48.0347Z" fill="#4129A3"/>
<path opacity="0.7" d="M22.4685 37.0609C23.4489 37.0609 24.2437 36.2603 24.2437 35.2726C24.2437 34.285 23.4489 33.4844 22.4685 33.4844C21.4881 33.4844 20.6934 34.285 20.6934 35.2726C20.6934 36.2603 21.4881 37.0609 22.4685 37.0609Z" fill="white"/>
</svg>
