<svg width="76" height="36" viewBox="0 0 76 36" fill="none" xmlns="http://www.w3.org/2000/svg">
    <path
        d="M70.5294 33.4572H71.6299C71.6596 33.8834 71.8182 34.2304 72.1057 34.4981C72.4031 34.7658 72.8294 34.8996 73.3846 34.8996C73.7216 34.8996 73.9843 34.855 74.1727 34.7658C74.371 34.6765 74.5147 34.5576 74.6039 34.4089C74.6932 34.2503 74.7378 34.0768 74.7378 33.8884C74.7378 33.6604 74.6783 33.4819 74.5593 33.3531C74.4503 33.2143 74.2966 33.1003 74.0983 33.0111C73.91 32.9218 73.6919 32.8376 73.444 32.7583C73.1565 32.6492 72.8591 32.5352 72.5518 32.4162C72.2544 32.2874 71.9719 32.1387 71.7042 31.9701C71.4465 31.7917 71.2383 31.5785 71.0796 31.3307C70.921 31.0729 70.8417 30.7656 70.8417 30.4087C70.8417 30.1113 70.9012 29.8337 71.0202 29.576C71.1391 29.3083 71.3077 29.0803 71.5258 28.892C71.7538 28.6937 72.0165 28.54 72.3139 28.431C72.6212 28.3219 72.9583 28.2674 73.3251 28.2674C73.8208 28.2674 74.2371 28.3665 74.5742 28.5648C74.9212 28.7631 75.1839 29.0456 75.3623 29.4124C75.5507 29.7693 75.6498 30.1857 75.6597 30.6615H74.6337C74.5643 30.2154 74.4205 29.8932 74.2024 29.695C73.9942 29.4868 73.6919 29.3827 73.2953 29.3827C72.8889 29.3827 72.5766 29.4719 72.3585 29.6503C72.1404 29.8288 72.0314 30.0667 72.0314 30.3641C72.0314 30.5822 72.1107 30.7656 72.2693 30.9143C72.4279 31.0531 72.6311 31.182 72.879 31.301C73.1367 31.41 73.4093 31.524 73.6968 31.643C73.9843 31.7619 74.2619 31.8809 74.5296 31.9999C74.7973 32.1188 75.0352 32.2576 75.2434 32.4162C75.4515 32.5749 75.6151 32.7731 75.7341 33.0111C75.863 33.2391 75.9274 33.5266 75.9274 33.8735C75.9274 34.2899 75.8283 34.6617 75.63 34.9888C75.4416 35.3061 75.1591 35.5539 74.7824 35.7323C74.4156 35.9108 73.9645 36 73.4292 36C72.9434 36 72.527 35.9405 72.1801 35.8216C71.843 35.6927 71.5605 35.5291 71.3324 35.3308C71.1044 35.1226 70.926 34.9045 70.7971 34.6765C70.6781 34.4485 70.5988 34.2255 70.5592 34.0074C70.5195 33.7893 70.5096 33.6059 70.5294 33.4572Z"
        fill="white"
    />
    <path
        d="M64.2633 33.4572H65.3637C65.3935 33.8834 65.5521 34.2304 65.8396 34.4981C66.137 34.7658 66.5633 34.8996 67.1184 34.8996C67.4555 34.8996 67.7182 34.855 67.9066 34.7658C68.1049 34.6765 68.2486 34.5576 68.3378 34.4089C68.427 34.2503 68.4717 34.0768 68.4717 33.8884C68.4717 33.6604 68.4122 33.4819 68.2932 33.3531C68.1842 33.2143 68.0305 33.1003 67.8322 33.0111C67.6439 32.9218 67.4258 32.8376 67.1779 32.7583C66.8904 32.6492 66.593 32.5352 66.2857 32.4162C65.9883 32.2874 65.7058 32.1387 65.4381 31.9701C65.1803 31.7917 64.9722 31.5785 64.8135 31.3307C64.6549 31.0729 64.5756 30.7656 64.5756 30.4087C64.5756 30.1113 64.6351 29.8337 64.7541 29.576C64.873 29.3083 65.0415 29.0803 65.2596 28.892C65.4877 28.6937 65.7504 28.54 66.0478 28.431C66.3551 28.3219 66.6922 28.2674 67.059 28.2674C67.5546 28.2674 67.971 28.3665 68.3081 28.5648C68.6551 28.7631 68.9178 29.0456 69.0962 29.4124C69.2846 29.7693 69.3837 30.1857 69.3936 30.6615H68.3676C68.2982 30.2154 68.1544 29.8932 67.9363 29.695C67.7281 29.4868 67.4258 29.3827 67.0292 29.3827C66.6228 29.3827 66.3105 29.4719 66.0924 29.6503C65.8743 29.8288 65.7652 30.0667 65.7652 30.3641C65.7652 30.5822 65.8446 30.7656 66.0032 30.9143C66.1618 31.0531 66.365 31.182 66.6129 31.301C66.8706 31.41 67.1432 31.524 67.4307 31.643C67.7182 31.7619 67.9958 31.8809 68.2635 31.9999C68.5311 32.1188 68.7691 32.2576 68.9772 32.4162C69.1854 32.5749 69.349 32.7731 69.468 33.0111C69.5968 33.2391 69.6613 33.5266 69.6613 33.8735C69.6613 34.2899 69.5622 34.6617 69.3639 34.9888C69.1755 35.3061 68.893 35.5539 68.5163 35.7323C68.1495 35.9108 67.6984 36 67.1631 36C66.6773 36 66.2609 35.9405 65.9139 35.8216C65.5769 35.6927 65.2943 35.5291 65.0663 35.3308C64.8383 35.1226 64.6599 34.9045 64.531 34.6765C64.412 34.4485 64.3327 34.2255 64.2931 34.0074C64.2534 33.7893 64.2435 33.6059 64.2633 33.4572Z"
        fill="white"
    />
    <path
        d="M62.2235 33.4572H63.3387C63.2594 33.9429 63.081 34.3791 62.8034 34.7658C62.5357 35.1425 62.1788 35.4448 61.7327 35.6729C61.2965 35.891 60.7909 36 60.216 36C59.522 36 58.8974 35.8364 58.3423 35.5093C57.7871 35.1722 57.346 34.7162 57.0188 34.1412C56.7016 33.5563 56.543 32.8921 56.543 32.1486C56.543 31.405 56.6966 30.7408 57.0039 30.1559C57.3212 29.571 57.7524 29.1101 58.2977 28.773C58.8429 28.4359 59.4576 28.2674 60.1416 28.2674C60.8653 28.2674 61.475 28.431 61.9707 28.7581C62.4763 29.0754 62.848 29.5462 63.0859 30.1708C63.3338 30.7854 63.4329 31.5438 63.3834 32.446H57.7326C57.7822 32.9317 57.916 33.358 58.1341 33.7248C58.3522 34.0916 58.6397 34.3791 58.9966 34.5873C59.3535 34.7856 59.7599 34.8847 60.216 34.8847C60.7215 34.8847 61.1478 34.7558 61.4948 34.4981C61.8517 34.2304 62.0946 33.8834 62.2235 33.4572ZM60.1862 29.3827C59.5716 29.3827 59.0561 29.5611 58.6397 29.918C58.2233 30.2749 57.9457 30.7607 57.807 31.3753H62.164C62.1243 30.721 61.9112 30.2253 61.5246 29.8883C61.1478 29.5512 60.7017 29.3827 60.1862 29.3827Z"
        fill="white"
    />
    <path
        d="M49.0229 28.4161H50.2126V35.8513H49.0229V28.4161ZM52.7703 28.2674C53.1668 28.2674 53.5237 28.3269 53.841 28.4458C54.1582 28.5648 54.4259 28.7383 54.644 28.9663C54.8621 29.1943 55.0306 29.4719 55.1496 29.799C55.2685 30.1163 55.328 30.4781 55.328 30.8846V35.8513H54.1384V31.182C54.1384 30.607 54.0045 30.1758 53.7369 29.8883C53.4692 29.6008 53.0677 29.457 52.5324 29.457C52.1259 29.457 51.7492 29.5611 51.4022 29.7693C51.0552 29.9775 50.7677 30.265 50.5397 30.6318C50.3216 30.9887 50.1878 31.405 50.1382 31.8809L50.1234 31.0184C50.1729 30.602 50.2721 30.2253 50.4208 29.8883C50.5794 29.5512 50.7727 29.2637 51.0007 29.0258C51.2386 28.7779 51.5063 28.5896 51.8037 28.4607C52.111 28.3318 52.4332 28.2674 52.7703 28.2674Z"
        fill="white"
    />
    <path
        d="M47.4669 25.442V26.8844H45.9204V25.442H47.4669ZM46.0989 28.4161H47.2885V35.8513H46.0989V28.4161Z"
        fill="white"
    />
    <path
        d="M39.3712 33.4572H40.4717C40.5014 33.8834 40.66 34.2304 40.9475 34.4981C41.2449 34.7658 41.6712 34.8996 42.2264 34.8996C42.5634 34.8996 42.8261 34.855 43.0145 34.7658C43.2128 34.6765 43.3565 34.5576 43.4457 34.4089C43.535 34.2503 43.5796 34.0768 43.5796 33.8884C43.5796 33.6604 43.5201 33.4819 43.4011 33.3531C43.2921 33.2143 43.1384 33.1003 42.9401 33.0111C42.7518 32.9218 42.5337 32.8376 42.2858 32.7583C41.9983 32.6492 41.7009 32.5352 41.3936 32.4162C41.0962 32.2874 40.8137 32.1387 40.546 31.9701C40.2883 31.7917 40.0801 31.5785 39.9214 31.3307C39.7628 31.0729 39.6835 30.7656 39.6835 30.4087C39.6835 30.1113 39.743 29.8337 39.862 29.576C39.9809 29.3083 40.1495 29.0803 40.3676 28.892C40.5956 28.6937 40.8583 28.54 41.1557 28.431C41.463 28.3219 41.8001 28.2674 42.1669 28.2674C42.6626 28.2674 43.0789 28.3665 43.416 28.5648C43.763 28.7631 44.0257 29.0456 44.2041 29.4124C44.3925 29.7693 44.4916 30.1857 44.5015 30.6615H43.4755C43.4061 30.2154 43.2623 29.8932 43.0442 29.695C42.836 29.4868 42.5337 29.3827 42.1371 29.3827C41.7307 29.3827 41.4184 29.4719 41.2003 29.6503C40.9822 29.8288 40.8732 30.0667 40.8732 30.3641C40.8732 30.5822 40.9525 30.7656 41.1111 30.9143C41.2697 31.0531 41.4729 31.182 41.7208 31.301C41.9785 31.41 42.2511 31.524 42.5386 31.643C42.8261 31.7619 43.1037 31.8809 43.3714 31.9999C43.639 32.1188 43.877 32.2576 44.0852 32.4162C44.2933 32.5749 44.4569 32.7731 44.5759 33.0111C44.7048 33.2391 44.7692 33.5266 44.7692 33.8735C44.7692 34.2899 44.6701 34.6617 44.4718 34.9888C44.2834 35.3061 44.0009 35.5539 43.6242 35.7323C43.2574 35.9108 42.8063 36 42.271 36C41.7852 36 41.3688 35.9405 41.0219 35.8216C40.6848 35.6927 40.4023 35.5291 40.1742 35.3308C39.9462 35.1226 39.7678 34.9045 39.6389 34.6765C39.5199 34.4485 39.4406 34.2255 39.401 34.0074C39.3613 33.7893 39.3514 33.6059 39.3712 33.4572Z"
        fill="white"
    />
    <path
        d="M38.097 35.8513H36.9074V28.4161H38.097V35.8513ZM36.9818 32.3865L36.9966 32.8028C36.9867 32.9218 36.957 33.1052 36.9074 33.353C36.8678 33.6009 36.7934 33.8785 36.6844 34.1858C36.5852 34.4832 36.4365 34.7707 36.2382 35.0483C36.0499 35.3259 35.802 35.5539 35.4947 35.7323C35.1973 35.9108 34.8256 36 34.3794 36C34.0919 36 33.7945 35.9554 33.4872 35.8661C33.1898 35.7868 32.9122 35.653 32.6545 35.4646C32.3967 35.2664 32.1885 34.9937 32.0299 34.6468C31.8713 34.2998 31.792 33.8686 31.792 33.353V28.4161H32.9816V33.0556C32.9816 33.5018 33.051 33.8537 33.1898 34.1114C33.3385 34.3593 33.5368 34.5377 33.7846 34.6468C34.0325 34.7558 34.31 34.8103 34.6174 34.8103C35.123 34.8103 35.5443 34.6815 35.8813 34.4237C36.2184 34.166 36.4762 33.8487 36.6546 33.472C36.8331 33.0953 36.9421 32.7334 36.9818 32.3865Z"
        fill="white"
    />
    <path
        d="M23.1489 35.8513V26.1855H26.9557C27.957 26.1855 28.7352 26.4136 29.2904 26.8696C29.8555 27.3256 30.138 27.9601 30.138 28.773C30.138 29.2786 30.0339 29.69 29.8257 30.0072C29.6275 30.3245 29.3449 30.5624 28.9781 30.721C28.6113 30.8796 28.1801 30.9837 27.6844 31.0333L27.7141 30.9441C28.0809 30.9639 28.4279 31.0135 28.7551 31.0928C29.0822 31.1622 29.3697 31.2762 29.6176 31.4348C29.8753 31.5934 30.0785 31.8115 30.2272 32.0891C30.3759 32.3667 30.4503 32.7236 30.4503 33.1598C30.4503 33.7447 30.3214 34.2304 30.0637 34.6171C29.8059 35.0037 29.4441 35.3011 28.9781 35.5093C28.5221 35.7076 27.9967 35.8216 27.4019 35.8513H23.1489ZM24.3386 34.736H27.1044C27.7786 34.736 28.304 34.6121 28.6807 34.3643C29.0673 34.1065 29.2607 33.705 29.2607 33.1598C29.2607 32.7236 29.1367 32.3964 28.8889 32.1783C28.651 31.9602 28.3437 31.8165 27.9669 31.7471C27.5902 31.6678 27.2036 31.6281 26.807 31.6281H24.3386V34.736ZM24.3386 30.5128H26.807C27.4812 30.5128 28.0066 30.3691 28.3833 30.0816C28.7699 29.7842 28.9632 29.3629 28.9632 28.8176C28.9632 28.2823 28.7699 27.8956 28.3833 27.6577C28.0066 27.4198 27.5307 27.3008 26.9557 27.3008H24.3386V30.5128Z"
        fill="white"
    />
    <path
        d="M15.4902 28.4161H16.6799V35.8513H15.4902V28.4161ZM19.0591 29.5314C18.5535 29.5314 18.1273 29.6603 17.7803 29.918C17.4432 30.1658 17.1755 30.4732 16.9773 30.84C16.7889 31.1969 16.665 31.5438 16.6055 31.8809L16.5906 31.0184C16.5906 30.9292 16.6105 30.7805 16.6501 30.5723C16.6898 30.3641 16.7641 30.1312 16.8732 29.8734C16.9822 29.6057 17.126 29.3529 17.3044 29.115C17.4928 28.8672 17.7307 28.6639 18.0182 28.5053C18.3057 28.3467 18.6527 28.2674 19.0591 28.2674V29.5314Z"
        fill="white"
    />
    <path
        d="M10.6642 36C10.0298 36 9.43496 35.8463 8.8798 35.539C8.32463 35.2317 7.87357 34.7905 7.52659 34.2156C7.18953 33.6307 7.021 32.9417 7.021 32.1486C7.021 31.3555 7.18953 30.6714 7.52659 30.0965C7.87357 29.5116 8.32463 29.0605 8.8798 28.7432C9.43496 28.426 10.0298 28.2674 10.6642 28.2674C11.2987 28.2674 11.8886 28.426 12.4338 28.7432C12.989 29.0605 13.4351 29.5116 13.7722 30.0965C14.1092 30.6714 14.2777 31.3555 14.2777 32.1486C14.2777 32.9417 14.1092 33.6307 13.7722 34.2156C13.4351 34.7905 12.989 35.2317 12.4338 35.539C11.8886 35.8463 11.2987 36 10.6642 36ZM10.6642 34.8847C11.0806 34.8847 11.4722 34.7806 11.839 34.5724C12.2058 34.3643 12.5032 34.0569 12.7312 33.6505C12.9692 33.2341 13.0881 32.7335 13.0881 32.1486C13.0881 31.5637 12.9692 31.068 12.7312 30.6615C12.5032 30.2452 12.2058 29.9279 11.839 29.7098C11.4722 29.4917 11.0806 29.3827 10.6642 29.3827C10.2479 29.3827 9.85133 29.4917 9.47461 29.7098C9.10781 29.918 8.80544 30.2303 8.56752 30.6467C8.32959 31.0531 8.21063 31.5538 8.21063 32.1486C8.21063 32.7335 8.32463 33.2341 8.55265 33.6505C8.79057 34.0569 9.09789 34.3643 9.47461 34.5724C9.85133 34.7806 10.2479 34.8847 10.6642 34.8847Z"
        fill="white"
    />
    <path
        d="M6.84038 26.1855V27.3008H1.18963V30.4831H5.81433V31.5984H1.18963V35.8513H0V26.1855H6.84038Z"
        fill="white"
    />
    <path
        d="M12.124 15.165C12.1241 16.13 12.2805 16.89 12.5928 17.4443C12.9259 17.9779 13.3839 18.3581 13.9668 18.584C14.5497 18.8099 15.2268 18.9218 15.9971 18.9219C17.1006 18.9219 18.0382 18.6764 18.8086 18.1836C19.5789 17.6908 20.1933 17.0849 20.6514 16.3662C20.9806 15.8582 21.2296 15.3638 21.4014 14.8848V6.20215H24.8682V21.54H21.4014V16.1836C21.3809 16.2613 21.3619 16.3433 21.3389 16.4277C21.214 16.9616 20.995 17.5472 20.6826 18.1836C20.3911 18.7995 19.9957 19.395 19.4961 19.9697C19.0173 20.524 18.4131 20.9859 17.6846 21.3555C16.9557 21.7046 16.0704 21.8789 15.0293 21.8789C14.2797 21.8789 13.5195 21.7766 12.749 21.5713C11.9994 21.3865 11.3122 21.0679 10.6875 20.6162C10.0838 20.1646 9.5945 19.5487 9.21973 18.7686C8.84492 17.9883 8.65723 17.0024 8.65723 15.8115V6.20215H12.124V15.165ZM66.9316 5.86035C68.66 5.86036 70.2012 6.1789 71.5547 6.81543C72.908 7.45188 73.9698 8.3757 74.7402 9.58691C75.5315 10.7778 75.9277 12.2156 75.9277 13.8994C75.9277 15.6037 75.5315 17.0512 74.7402 18.2422C73.9698 19.433 72.9081 20.3372 71.5547 20.9531C70.2013 21.5691 68.66 21.8769 66.9316 21.877C65.2037 21.8769 63.6525 21.569 62.2783 20.9531C60.904 20.3372 59.8206 19.433 59.0293 18.2422C58.2383 17.0512 57.8428 15.6035 57.8428 13.8994C57.8428 12.2156 58.2382 10.7778 59.0293 9.58691C59.8206 8.37553 60.9041 7.45194 62.2783 6.81543C63.6525 6.17899 65.2036 5.86039 66.9316 5.86035ZM3.4668 14.8467C3.4668 15.8118 3.6232 16.5716 3.93555 17.126C4.08678 17.3683 4.26408 17.579 4.4668 17.7578C4.95598 18.1894 5.64737 18.2656 6.30371 18.2656H6.76562V21.5615C6.01601 21.5615 4.86225 21.4583 4.0918 21.2529C3.34227 21.0682 2.65488 20.7504 2.03027 20.2988C1.4264 19.8471 0.937316 19.2305 0.5625 18.4502C0.187685 17.6699 0 16.6842 0 15.4932V0H3.4668V14.8467ZM49.875 5.86035C50.7911 5.86035 51.6245 5.98407 52.374 6.23047C53.1234 6.47687 53.7693 6.85687 54.3105 7.37012C54.8725 7.86286 55.3098 8.47875 55.6221 9.21777C55.9344 9.95698 56.0908 10.8299 56.0908 11.8359V21.5381H52.5928V12.5137C52.5928 11.2611 52.28 10.3367 51.6553 9.74121C51.0516 9.12534 50.0938 8.81746 48.7822 8.81738C47.7828 8.81738 46.8661 9.03275 46.0332 9.46387C45.2212 9.87453 44.5546 10.4191 44.0342 11.0967C43.8906 11.2855 43.7655 11.481 43.6562 11.6816C43.6571 11.7327 43.6592 11.7842 43.6592 11.8359V21.5381H40.1924V12.5137C40.1924 11.2611 39.8795 10.3367 39.2549 9.74121C38.651 9.12543 37.6934 8.81743 36.3818 8.81738C35.3825 8.81738 34.4657 9.03267 33.6328 9.46387C32.8207 9.87453 32.1544 10.4191 31.6338 11.0967C31.3091 11.5065 31.0696 11.9444 30.915 12.4102V21.5381H27.4482V6.19922H30.915V10.6201C31.0341 10.2225 31.189 9.83659 31.3838 9.46387C31.7377 8.76578 32.207 8.15005 32.79 7.61621C33.373 7.06189 34.0604 6.63023 34.8516 6.32227C35.6427 6.01441 36.5171 5.86037 37.4746 5.86035C38.37 5.86036 39.1926 5.98407 39.9424 6.23047C40.7128 6.47687 41.3687 6.85681 41.9102 7.37012C42.4722 7.86288 42.8989 8.47868 43.1904 9.21777C43.3109 9.50284 43.4074 9.80804 43.4814 10.1328C43.5773 9.89625 43.6885 9.6631 43.8154 9.43359C44.1902 8.73546 44.6689 8.11883 45.252 7.58496C45.835 7.05113 46.5119 6.63025 47.2822 6.32227C48.0735 6.01427 48.9379 5.86035 49.875 5.86035ZM66.9316 8.63281C65.9115 8.63286 64.9851 8.8384 64.1523 9.24902C63.3194 9.65969 62.6425 10.2548 62.1221 11.0352C61.6223 11.8154 61.3721 12.7701 61.3721 13.8994C61.3721 15.0082 61.6223 15.9531 62.1221 16.7334C62.6218 17.5135 63.2884 18.0982 64.1211 18.4883C64.9747 18.8784 65.9115 19.0742 66.9316 19.0742C67.9312 19.0742 68.8478 18.8784 69.6807 18.4883C70.5135 18.0982 71.1696 17.5135 71.6484 16.7334C72.1482 15.9531 72.3984 15.0082 72.3984 13.8994C72.3984 12.7906 72.1482 11.8457 71.6484 11.0654C71.1695 10.2854 70.5136 9.68993 69.6807 9.2793C68.8685 8.84811 67.952 8.63282 66.9316 8.63281Z"
        fill="white"
    />
</svg>
