<svg width="301" height="119" viewBox="0 0 301 119" fill="none" xmlns="http://www.w3.org/2000/svg">
<path d="M0.181641 13.8162L18.6352 4.60547L50.9289 23.0269H106.29V101.318L101.676 105.923H14.0218C6.37809 105.923 0.181641 99.7378 0.181641 92.1074V13.8162Z" fill="url(#paint0_radial_11971_63176)"/>
<path fill-rule="evenodd" clip-rule="evenodd" d="M50.7491 6.56821C53.1147 8.28563 55.9645 9.21073 58.8895 9.21073L115.516 9.21073C123.16 9.21073 129.356 15.3964 129.356 23.0268V92.1073C129.356 99.7377 123.16 105.923 115.516 105.923H101.676V39.1456C101.676 32.7869 96.5125 27.6322 90.1427 27.6322H41.7021C38.7075 27.6322 35.7937 26.6626 33.398 24.869L22.3259 16.5793C19.9302 14.7857 17.0164 13.8161 14.0218 13.8161L0.181641 13.8161C0.181641 6.18568 6.37809 0 14.0218 0H37.2015C40.1265 0 42.9764 0.925101 45.3419 2.64252L50.7491 6.56821Z" fill="url(#paint1_linear_11971_63176)"/>
<path d="M212.672 90.5875C212.672 90.5875 230.155 92.9937 246.219 94.7079C261.882 96.3823 275.392 94.7079 282.985 89.0205C309.545 69.1185 297.422 49.7455 297.422 49.7455C297.422 49.7455 294.57 44.3285 288.358 45.2751C282.146 46.2217 279.66 53.8897 278.964 62.8902C278.268 71.8946 272.155 80.2706 262.415 81.8893C251.505 83.6989 237.159 81.1257 237.159 81.1257L212.576 81.9013L212.672 90.5835V90.5875Z" fill="#6D4AFF"/>
<mask id="mask0_11971_63176" style="mask-type:luminance" maskUnits="userSpaceOnUse" x="212" y="45" width="89" height="51">
<path d="M212.672 90.5836C212.672 90.5836 230.155 92.9898 246.219 94.704C261.882 96.3784 275.392 94.704 282.985 89.0166C309.545 69.1146 297.422 49.7416 297.422 49.7416C297.422 49.7416 294.57 44.3246 288.358 45.2712C282.146 46.2178 279.66 53.8858 278.964 62.8863C278.268 71.8907 272.155 80.2667 262.415 81.8854C251.505 83.695 237.159 81.1218 237.159 81.1218L212.576 81.8973L212.672 90.5796V90.5836Z" fill="white"/>
</mask>
<g mask="url(#mask0_11971_63176)">
<path d="M271.404 22.5742C285.905 24.356 295.021 15.7891 295.021 15.7891C295.021 15.7891 301.794 26.3088 316.295 28.0906C316.295 28.0906 315.241 56.6509 288.51 68.7894C265.514 50.538 271.404 22.5742 271.404 22.5742Z" fill="#4129A3"/>
</g>
<path d="M212.672 90.5875C212.672 90.5875 230.155 92.9937 246.219 94.7079C261.882 96.3823 275.392 94.7079 282.985 89.0205C309.545 69.1185 297.422 49.7455 297.422 49.7455C297.422 49.7455 294.57 44.3285 288.358 45.2751C282.146 46.2217 279.66 53.8897 278.964 62.8902C278.268 71.8946 272.155 80.2706 262.415 81.8893C251.505 83.6989 237.159 81.1257 237.159 81.1257L212.576 81.9013L212.672 90.5835V90.5875Z" stroke="#372480" stroke-width="0.603171" stroke-miterlimit="10" stroke-linecap="round"/>
<path d="M173.17 49.2485C173.17 49.2485 172.884 44.7424 177.032 49.4673C180.994 53.9854 198.147 51.2928 200.53 50.736C209.697 48.5883 224.19 49.8929 236.177 61.212C247.608 72.0101 256.644 86.2048 267.152 87.39C277.66 88.5752 284.023 87.39 284.023 87.39C284.023 87.39 291.504 86.6145 293.644 92.274C295.979 98.4467 293.071 103.231 285.376 103.526C277.68 103.82 263.481 103.526 254.29 103.51C245.385 103.494 195.542 103.51 195.542 103.51L159.946 94.7956L151.033 67.0028L174.861 47.1406" fill="#6D4AFF"/>
<mask id="mask1_11971_63176" style="mask-type:luminance" maskUnits="userSpaceOnUse" x="151" y="47" width="144" height="57">
<path d="M173.17 49.2485C173.17 49.2485 172.884 44.7424 177.032 49.4673C180.994 53.9854 198.155 51.3286 200.53 50.736C206.837 49.161 224.19 49.8929 236.177 61.212C247.608 72.0101 256.644 86.2048 267.152 87.39C277.66 88.5752 284.023 87.39 284.023 87.39C284.023 87.39 291.504 86.6145 293.644 92.274C295.979 98.4467 293.071 103.231 285.376 103.526C277.68 103.82 263.481 103.526 254.29 103.51C245.385 103.494 195.542 103.51 195.542 103.51L159.946 94.7956L151.033 67.0028L174.861 47.1406" fill="white"/>
</mask>
<g mask="url(#mask1_11971_63176)">
<path d="M275.814 109.7C276.112 100.079 269.947 94.614 269.947 94.614C269.947 94.614 276.442 89.5391 276.74 79.9222C276.74 79.9222 295.537 78.9 305.106 95.7077C294.515 111.887 275.814 109.704 275.814 109.704V109.7Z" fill="#4129A3"/>
</g>
<path d="M155.225 3.72015C156.975 3.72015 158.713 4.65479 159.58 6.43261L166.039 19.6409C171.89 23.5386 176.4 28.9635 178.508 35.1759C179.896 39.2725 179.657 43.1542 178.301 46.7377C179.534 48.0621 181.216 49.7206 181.865 50.5956C182.099 50.9138 182.127 51.2876 182.04 51.6575C183.627 51.928 185.416 52.0353 187.242 52.0353C193.013 52.0353 199.154 50.9734 200.53 50.7388C202.721 50.3609 205.219 50.1143 207.911 50.1143C216.482 50.1143 227.054 52.6001 236.178 61.2147C247.608 72.0129 256.644 86.2076 267.152 87.3928C270.656 87.7865 273.695 87.9178 276.196 87.9178C281.196 87.9178 284.023 87.3928 284.023 87.3928C284.023 87.3928 284.369 87.357 284.934 87.357C286.994 87.357 291.966 87.8342 293.644 92.2768C295.979 98.4494 293.072 103.234 285.376 103.528C282.834 103.628 279.585 103.66 276.041 103.66C268.85 103.66 260.446 103.524 254.29 103.512C251.323 103.508 243.806 103.504 235.1 103.504C227.066 103.504 218.022 103.504 210.612 103.504C209.292 105.024 207.323 105.433 207.323 105.433C207.323 105.433 201.715 106.117 194.329 106.117C187.325 106.117 166.023 105.895 166.023 105.895C166.023 105.895 165.936 105.895 165.773 105.895C163.367 105.895 144.372 105.7 138.97 99.563C130.602 92.8137 129.457 84.7877 128.148 78.0543C128.121 77.919 128.093 77.7798 128.061 77.6367C127.727 77.585 127.393 77.5372 127.063 77.4816C126.558 77.3941 126.14 77.048 125.993 76.5588L124.283 70.8356C124.259 70.7481 124.247 70.6646 124.239 70.5811C117.732 69.0141 112.45 65.2874 110.108 58.379C108.135 52.5563 108.258 46.0019 110.148 39.7298L107.026 24.2625C106.405 21.1841 108.803 18.4637 111.75 18.4637C112.136 18.4637 112.534 18.5114 112.936 18.6108L122.823 21.0688C125.969 18.575 129.572 16.5427 133.589 15.1825C137.399 13.8899 141.285 13.2933 145.103 13.2933C145.163 13.2933 145.219 13.2933 145.278 13.2933L151.455 5.54569C152.437 4.31673 153.837 3.72413 155.229 3.72413M155.225 2.32812C153.324 2.32812 151.55 3.18323 150.361 4.67468L144.598 11.9013C140.673 11.953 136.819 12.6092 133.14 13.862C129.322 15.1546 125.746 17.0717 122.501 19.5534L113.27 17.2586C112.769 17.1353 112.256 17.0717 111.746 17.0717C109.885 17.0717 108.131 17.9069 106.938 19.3665C105.753 20.8142 105.287 22.6994 105.657 24.5369L108.712 39.6622C106.767 46.328 106.791 52.9461 108.787 58.8244C110.991 65.3272 115.93 69.7697 123.089 71.7225L124.653 76.9566C124.947 77.9429 125.774 78.6707 126.812 78.8537C126.832 78.8537 126.856 78.8616 126.876 78.8656C126.908 79.0366 126.943 79.2116 126.975 79.3866C128.212 85.8456 129.747 93.8796 137.996 100.581C143.791 106.969 162.13 107.295 165.761 107.295C165.892 107.295 165.98 107.295 166.012 107.295C166.66 107.303 187.461 107.517 194.317 107.517C201.703 107.517 207.247 106.849 207.482 106.821L207.542 106.813L207.601 106.802C207.828 106.754 209.673 106.332 211.193 104.9C218.491 104.9 227.269 104.9 235.092 104.9C245.198 104.9 251.653 104.9 254.278 104.908C257.058 104.912 260.279 104.944 263.692 104.976C267.82 105.016 272.092 105.056 276.033 105.056C279.975 105.056 283.113 105.012 285.419 104.924C290.781 104.717 293.318 102.546 294.503 100.76C296.074 98.3898 296.229 95.204 294.937 91.7876C294.078 89.5166 292.348 87.8143 289.934 86.8598C288.068 86.124 286.179 85.9689 284.926 85.9689C284.306 85.9689 283.912 86.0087 283.872 86.0127H283.817L283.761 86.0286C283.733 86.0326 280.973 86.5297 276.188 86.5297C273.337 86.5297 270.346 86.3547 267.299 86.0127C260.379 85.2331 253.733 77.931 246.693 70.1993C243.647 66.8544 240.501 63.3943 237.124 60.2045C227.078 50.7149 215.687 48.7223 207.904 48.7223C205.326 48.7223 202.761 48.9371 200.283 49.3666C195.439 50.2018 190.929 50.6433 187.234 50.6433C185.79 50.6433 184.482 50.5757 183.328 50.4365C183.245 50.1979 183.129 49.9751 182.974 49.7683C182.473 49.0922 181.531 48.1098 180.528 47.0678C180.318 46.8451 180.099 46.6223 179.888 46.3996C181.157 42.5378 181.137 38.6162 179.816 34.7305C177.712 28.526 173.21 22.8426 167.117 18.6983L160.821 5.8241C159.779 3.66845 157.632 2.32812 155.225 2.32812Z" fill="white"/>
<path d="M125.133 69.2374C125.133 69.2374 127.507 74.7737 128.144 78.0509C129.452 84.7843 130.598 92.8103 138.966 99.5597L176.868 96.5529L146.952 61.8438L125.129 69.2334L125.133 69.2374Z" fill="#6D4AFF"/>
<path d="M178.615 53.457C178.615 53.457 183.646 54.7218 187.274 55.7121C187.274 55.7121 198.744 62.7041 207.876 72.7584C214.529 80.0845 221.629 93.7184 225.18 98.491C228.732 103.264 231.993 106.986 230.884 112.312C229.122 120.759 219.314 117.677 219.314 117.677C219.314 117.677 215.703 116.365 214.144 109.961C211.853 100.555 203.489 94.0882 199.492 91.3161C195.495 88.54 189.501 86.6548 189.501 86.6548" fill="#6D4AFF"/>
<mask id="mask2_11971_63176" style="mask-type:luminance" maskUnits="userSpaceOnUse" x="178" y="53" width="54" height="66">
<path d="M178.615 53.457C178.615 53.457 183.646 54.7218 187.274 55.7121C187.274 55.7121 198.744 62.7041 207.876 72.7584C214.529 80.0845 221.629 93.7184 225.18 98.491C228.732 103.264 231.993 106.986 230.884 112.312C229.122 120.759 219.314 117.677 219.314 117.677C219.314 117.677 215.703 116.365 214.144 109.961C211.853 100.555 203.489 94.0882 199.492 91.3161C195.495 88.54 189.501 86.6548 189.501 86.6548" fill="white"/>
</mask>
<g mask="url(#mask2_11971_63176)">
<path d="M205.633 108.902C214.2 104.516 216.005 96.4737 216.005 96.4737C216.005 96.4737 223.586 99.7072 232.153 95.3203C232.153 95.3203 242.132 111.285 232.042 127.782C212.756 126.327 205.637 108.902 205.637 108.902H205.633Z" fill="#4129A3"/>
</g>
<path d="M209.692 75.0859C217.312 84.7665 218.943 90.8277 225.179 98.4958C228.934 103.109 232.135 107.023 230.883 112.317C228.643 121.766 219.313 117.682 219.313 117.682C219.313 117.682 216.159 116.819 214.143 109.966C211.844 102.139 205.973 96.2049 201.666 92.9039" stroke="#372480" stroke-width="0.603171" stroke-miterlimit="10" stroke-linecap="round"/>
<path d="M187.271 55.0508C191.646 57.5922 195.886 60.3683 199.764 63.6336C203.701 66.8154 207.058 70.7329 210.228 74.6386C210.832 75.3465 209.771 76.2573 209.166 75.5374C206.155 71.4647 203.105 67.5273 199.307 64.1546C195.604 60.7422 191.503 57.7752 187.271 55.0508Z" fill="#372480"/>
<path d="M124.277 70.8313L125.987 76.5546C126.134 77.0438 126.552 77.3898 127.057 77.4773C145.428 80.7068 170.874 73.7904 181.843 52.1742C182.109 51.6492 182.213 51.0606 181.863 50.5873C181.028 49.4538 178.45 47.0078 177.361 45.6715C176.848 45.0431 175.897 45.0232 175.364 45.6317C163.878 58.7128 145.65 69.5149 125.625 69.145C124.706 69.1291 124.01 69.9484 124.273 70.8274L124.277 70.8313Z" fill="#4129A3"/>
<path d="M163.09 83.481C167.391 83.481 170.877 79.9945 170.877 75.6936C170.877 71.3928 167.391 67.9062 163.09 67.9062C158.789 67.9062 155.303 71.3928 155.303 75.6936C155.303 79.9945 158.789 83.481 163.09 83.481Z" fill="#FC8F00"/>
<path d="M162.708 67.4034L159.965 68.5742L166.076 82.8955L168.82 81.7247L162.708 67.4034Z" fill="#FC8F00"/>
<path d="M165.764 82.3404C170.065 82.3404 173.551 78.8539 173.551 74.553C173.551 70.2522 170.065 66.7656 165.764 66.7656C161.463 66.7656 157.977 70.2522 157.977 74.553C157.977 78.8539 161.463 82.3404 165.764 82.3404Z" fill="#FFAC2E"/>
<path d="M165.315 75.9302C166.652 75.9302 167.737 74.8458 167.737 73.5081C167.737 72.1704 166.652 71.0859 165.315 71.0859C163.977 71.0859 162.893 72.1704 162.893 73.5081C162.893 74.8458 163.977 75.9302 165.315 75.9302Z" fill="#372580"/>
<path d="M166.802 76.9918L165.314 73.5078" stroke="#372580" stroke-width="0.975414" stroke-miterlimit="10" stroke-linecap="round"/>
<path d="M151.03 76.9062C151.03 76.9062 151.404 80.0801 158.364 83.4806C160.865 84.7056 165.447 82.5897 168.267 84.7652C172.34 87.9072 176.957 88.639 181.964 89.8203C188.821 91.435 192.834 92.6401 195.69 92.4412C201.322 92.0475 208.433 91.4947 210.724 96.2991C214.375 103.959 207.319 105.439 207.319 105.439C207.319 105.439 201.711 106.123 194.326 106.123C187.322 106.123 166.02 105.9 166.02 105.9C166.02 105.9 144.738 106.123 138.967 99.5684" fill="#6D4AFF"/>
<mask id="mask3_11971_63176" style="mask-type:luminance" maskUnits="userSpaceOnUse" x="138" y="76" width="74" height="31">
<path d="M151.028 76.907C151.028 76.907 153.227 75.8332 160.187 79.2337C162.689 80.4587 165.449 82.5904 168.265 84.766C172.338 87.908 176.955 88.6398 181.962 89.821C188.819 91.4358 192.832 92.6409 195.688 92.442C201.32 92.0483 208.431 91.4954 210.722 96.2999C214.373 103.96 207.317 105.44 207.317 105.44C207.317 105.44 201.709 106.124 194.324 106.124C187.32 106.124 166.018 105.901 166.018 105.901C166.018 105.901 144.736 106.124 138.965 99.5692" fill="white"/>
</mask>
<g mask="url(#mask3_11971_63176)">
<path d="M192.008 114.173C193.086 104.608 187.383 98.6616 187.383 98.6616C187.383 98.6616 194.267 94.1316 195.345 84.5664C195.345 84.5664 214.165 85.0715 222.339 102.595C210.471 117.864 192.012 114.169 192.012 114.169L192.008 114.173Z" fill="#4129A3"/>
</g>
<path d="M181.963 89.8203C188.82 91.4351 192.833 92.6402 195.688 92.4413C201.32 92.0476 208.555 91.439 210.722 96.2992C214.675 105.16 206.432 105.92 206.432 105.92" stroke="#372480" stroke-width="0.603171" stroke-miterlimit="10" stroke-linecap="round"/>
<path d="M166.803 84.8789C171.77 86.8039 176.909 88.1362 182.131 89.1425C183.022 89.3334 182.763 90.6737 181.86 90.5106C176.706 89.051 171.611 87.2453 166.803 84.8789Z" fill="#372480"/>
<path d="M122.884 21.0782L112.933 18.6043C109.485 17.7453 106.319 20.7759 107.023 24.256L110.268 40.3239L122.884 21.0742V21.0782Z" fill="#6D4AFF"/>
<path d="M145.061 13.5569L151.452 5.53884C153.667 2.75876 158.022 3.23603 159.581 6.42973L166.784 21.1574L145.061 13.5569Z" fill="#6D4AFF"/>
<path d="M155.807 10.9633L152.705 14.857L160.644 17.0086L157.792 11.178C157.41 10.3985 156.348 10.2832 155.807 10.9593V10.9633Z" fill="#4A2DC5"/>
<path d="M113.393 25.3527L118.226 26.5578L113.234 33.0963L111.95 26.7328C111.779 25.8817 112.55 25.1419 113.393 25.3527Z" fill="#4A2DC5"/>
<path d="M110.103 58.375C115.433 74.0889 135.979 73.3651 151.534 68.0873C165.208 63.4499 183.837 50.8859 178.504 35.1719C173.174 19.458 152.473 8.76721 133.585 15.1745C114.697 21.5818 104.77 42.657 110.103 58.375Z" fill="#6D4AFF"/>
<path d="M141.849 48.1069C142.311 42.3528 137.43 37.2663 130.947 36.7459C124.464 36.2254 118.834 40.468 118.372 46.222C117.91 51.9761 122.791 57.0626 129.274 57.583C135.757 58.1035 141.387 53.8609 141.849 48.1069Z" fill="white"/>
<path d="M168.909 44.1388C173.737 39.7808 174.515 32.7743 170.648 28.4892C166.78 24.204 159.73 24.2631 154.902 28.621C150.074 32.9789 149.296 39.9855 153.163 44.2706C157.031 48.5557 164.081 48.4967 168.909 44.1388Z" fill="white"/>
<path d="M131.457 54.1491C133.519 53.4497 134.266 50.1595 133.126 46.8001C131.986 43.4408 129.392 41.2844 127.33 41.9837C125.269 42.6831 124.522 45.9733 125.661 49.3327C126.801 52.6921 129.396 54.8484 131.457 54.1491Z" fill="#42299D"/>
<path d="M150.717 38.1467C149.412 30.1327 157.951 22.743 165.763 24.7515C170.484 25.8055 173.9 30.4866 173.109 35.2951C172.822 32.4076 171.462 29.6832 169.119 28.0168C161.65 22.7987 151.258 29.5401 150.717 38.1428V38.1467Z" fill="#37247C"/>
<path d="M140.074 41.7595C134.406 35.2607 122.061 36.2351 119.305 44.9214C118.461 47.6696 119.038 50.6565 120.565 53.1224C117.01 49.7855 116.875 43.9947 119.981 40.2839C124.956 33.9403 136.232 34.6084 140.07 41.7634L140.074 41.7595Z" fill="#37247C"/>
<path d="M152.438 49.4688C151.189 49.8943 150.521 51.2466 150.943 52.4954" stroke="white" stroke-width="0.430836" stroke-miterlimit="10" stroke-linecap="round"/>
<path d="M147.916 51.0028C149.165 50.5773 150.521 51.2494 150.943 52.4983" stroke="white" stroke-width="0.430836" stroke-miterlimit="10" stroke-linecap="round"/>
<path opacity="0.7" d="M125.773 46.3539C126.594 46.3539 127.26 45.6879 127.26 44.8664C127.26 44.0449 126.594 43.3789 125.773 43.3789C124.951 43.3789 124.285 44.0449 124.285 44.8664C124.285 45.6879 124.951 46.3539 125.773 46.3539Z" fill="white"/>
<path d="M163.639 43.2272C165.7 42.5279 166.448 39.2376 165.308 35.8783C164.168 32.5189 161.573 30.3625 159.512 31.0618C157.45 31.7612 156.703 35.0514 157.843 38.4108C158.983 41.7702 161.578 43.9266 163.639 43.2272Z" fill="#42299D"/>
<path opacity="0.7" d="M157.95 35.4398C158.772 35.4398 159.438 34.7738 159.438 33.9523C159.438 33.1308 158.772 32.4648 157.95 32.4648C157.129 32.4648 156.463 33.1308 156.463 33.9523C156.463 34.7738 157.129 35.4398 157.95 35.4398Z" fill="white"/>
<path d="M188.898 86.6836C191.965 88.2904 195.007 89.929 197.99 91.7426C198.766 92.2318 198.058 93.3971 197.266 92.9358C194.566 90.7722 191.746 88.7 188.898 86.6836Z" fill="#372480"/>
<defs>
<radialGradient id="paint0_radial_11971_63176" cx="0" cy="0" r="1" gradientUnits="userSpaceOnUse" gradientTransform="translate(115.177 -64.9981) scale(197.996 209.783)">
<stop offset="0.5561" stop-color="#6D4AFF"/>
<stop offset="1" stop-color="#FF50C3"/>
</radialGradient>
<linearGradient id="paint1_linear_11971_63176" x1="-1.52127" y1="-55.2789" x2="158.321" y2="122.003" gradientUnits="userSpaceOnUse">
<stop stop-color="#7341FF"/>
<stop offset="0.3593" stop-color="#B487FF"/>
<stop offset="1" stop-color="#FFC8FF"/>
</linearGradient>
</defs>
</svg>
