<svg width="294" height="251" viewBox="0 0 294 251" fill="none" xmlns="http://www.w3.org/2000/svg">
<path d="M285.081 12.9152H9.34042C6.04392 12.9152 3.37158 15.326 3.37158 18.2998V185.825C3.37158 188.799 6.04392 191.21 9.34042 191.21H285.081C288.377 191.21 291.049 188.799 291.049 185.825V18.2998C291.049 15.326 288.377 12.9152 285.081 12.9152Z" fill="#E4E4E4" stroke="#AFAFAF" stroke-width="0.596382" stroke-miterlimit="10"/>
<path d="M282.298 183.553V20.5721L11.0279 20.5721V183.553L282.298 183.553Z" fill="white" stroke="#AFAFAF" stroke-width="0.596382" stroke-miterlimit="10"/>
<path d="M12.2124 182.57V179.95H2.59473V186.224C2.59473 189.516 5.26652 192.188 8.55855 192.188H14.8325V182.57H12.2124Z" fill="#2E2E2E"/>
<path d="M12.2124 21.1177H14.8325V11.5H8.55855C5.26652 11.5 2.59473 14.1718 2.59473 17.4638V23.7378H12.2124V21.1177Z" fill="#2E2E2E"/>
<path d="M282.209 182.57V179.95H291.827V182.57V186.224C291.827 189.516 289.155 192.188 285.863 192.188H282.209H279.589V182.57H282.209Z" fill="#2E2E2E"/>
<path d="M282.209 21.1177H279.589V11.5H282.209H285.863C289.155 11.5 291.827 14.1718 291.827 17.4638V21.1177V23.7378H282.209V21.1177Z" fill="#2E2E2E"/>
<mask id="mask0_16121_8056" style="mask-type:luminance" maskUnits="userSpaceOnUse" x="41" y="81" width="141" height="144">
<path d="M181.58 224.59H41V81.5H179.292L181.58 224.59Z" fill="white"/>
</mask>
<g mask="url(#mask0_16121_8056)">
<path d="M131.223 129.814C131.223 129.814 130.333 133.99 136.204 135.207C140.733 136.146 145.553 130.096 146.228 124.74C146.819 120.062 144.699 113.332 146.006 109.895C148.524 103.282 157.575 101.575 162.225 105.543C165.826 108.618 165.931 115.206 160.029 116.351C158.868 116.577 158.868 118.968 158.868 118.968C158.868 118.968 158.716 126.526 160.215 133.419C162.901 145.775 156.085 153.403 156.085 153.403C156.085 153.403 144.325 167.15 137.686 170.377C137.686 170.377 128.122 149.779 124.032 140.928" fill="#6D4AFF"/>
<path d="M121.003 218.241C121.003 218.241 104.981 218.474 90.3102 218.241C76.0093 218.014 64.0165 215.01 57.8071 209.042C36.0734 188.165 49.1441 172.049 49.1441 172.049C49.1441 172.049 52.3126 167.482 57.8071 169.023C63.3016 170.565 64.6909 177.749 64.3212 185.942C63.9515 194.134 68.5317 202.36 77.1342 204.897C86.7675 207.738 99.9794 207.005 99.9794 207.005L122.049 210.427L121.003 218.241Z" fill="#6D4AFF"/>
<path d="M55.573 168.705C56.2676 168.705 57.0116 168.799 57.8071 169.023C63.3016 170.565 64.6909 177.749 64.3211 185.942C63.9514 194.134 68.5316 202.36 77.1341 204.897C83.4891 206.77 91.4059 207.09 96.0534 207.09C98.4511 207.09 99.9793 207.005 99.9793 207.005L122.049 210.427L121.003 218.241C121.003 218.241 113.881 218.344 104.788 218.344C100.241 218.344 95.2019 218.317 90.3102 218.241C76.0093 218.014 64.0164 215.01 57.8071 209.042C36.0734 188.165 49.1441 172.049 49.1441 172.049C49.1441 172.049 51.4633 168.705 55.5752 168.705M55.573 167.412C51.051 167.412 48.4315 170.825 48.111 171.269C47.7548 171.721 44.593 175.905 44.0372 182.607C43.7011 186.668 44.3913 190.818 46.0898 194.943C48.1827 200.027 51.8241 205.085 56.913 209.972C63.0752 215.892 74.9292 219.287 90.2922 219.532C94.626 219.601 99.5043 219.635 104.79 219.635C113.789 219.635 120.953 219.532 121.025 219.532L122.139 219.516L122.287 218.411L123.333 210.597L123.501 209.343L122.251 209.15L100.181 205.728L100.047 205.708L99.9121 205.715C99.8964 205.715 98.3861 205.798 96.0579 205.798C91.8384 205.798 83.8185 205.52 77.5039 203.658C73.7236 202.544 70.5954 200.187 68.4554 196.843C66.4499 193.708 65.4415 189.859 65.6163 186C65.827 181.337 65.4505 177.496 64.4959 174.587C63.2904 170.912 61.1593 168.622 58.1611 167.782C57.2962 167.54 56.4267 167.417 55.5775 167.417L55.573 167.412Z" fill="white"/>
<mask id="mask1_16121_8056" style="mask-type:luminance" maskUnits="userSpaceOnUse" x="45" y="168" width="78" height="51">
<path d="M121.003 218.241C121.003 218.241 104.981 218.474 90.3102 218.241C76.0093 218.014 64.0165 215.01 57.8071 209.042C36.0734 188.165 49.1441 172.049 49.1441 172.049C49.1441 172.049 52.3126 167.482 57.8071 169.023C63.3016 170.565 64.6909 177.749 64.3212 185.942C63.9515 194.134 68.5317 202.36 77.1342 204.897C86.7675 207.738 99.9794 207.005 99.9794 207.005L122.049 210.427L121.003 218.241Z" fill="white"/>
</mask>
<g mask="url(#mask1_16121_8056)">
<path d="M75.601 150.44C62.3331 150.44 55.0662 141.71 55.0662 141.71C55.0662 141.71 47.7992 150.44 34.5313 150.44C34.5313 150.44 32.3196 176.297 55.0662 190.199C77.8127 176.297 75.601 150.44 75.601 150.44Z" fill="#4129A3"/>
</g>
<path d="M89.044 214.38C82.4044 209.744 77.6606 195.765 84.7976 180.225C90.1801 168.501 91.9727 160.894 91.9727 160.894L109.805 179.15L105.906 212.547" fill="#6D4AFF"/>
<path d="M149.535 214.38C156.175 209.744 160.918 195.765 153.781 180.225C150.407 172.873 148.345 167.17 147.447 163.887C144.224 152.087 144.224 141.215 144.224 141.215L128.801 146.091L132.671 212.545" fill="#6D4AFF"/>
<path d="M94.3524 218.239H140.33V143.411H94.3524V218.239Z" fill="#6D4AFF"/>
<path d="M125.959 218.241C125.959 218.241 134.974 208.135 143.743 209.109C152.511 210.084 151.915 215.505 151.915 215.505C151.915 215.505 151.823 218.241 149.053 218.241H125.959Z" fill="#4129A3"/>
<path d="M112.622 218.241C112.622 218.241 103.607 208.135 94.8385 209.109C86.0702 210.084 86.6663 215.505 86.6663 215.505C86.6663 215.505 86.7581 218.241 89.5278 218.241C92.9854 218.241 112.622 218.241 112.622 218.241Z" fill="#4129A3"/>
<path d="M94.3545 146.501C94.3545 146.501 85.6198 156.403 98.8541 186.19C98.8541 186.19 105.37 194.454 105.953 210.494C105.953 210.494 105.978 211.368 105.906 211.418C103.221 213.25 103.535 215.278 104.021 216.39C105.482 219.733 115.315 220.809 118.759 216.576C119.346 215.854 119.29 215.368 119.29 213.542V146.091L94.3545 146.501Z" fill="#6D4AFF"/>
<mask id="mask2_16121_8056" style="mask-type:luminance" maskUnits="userSpaceOnUse" x="124" y="103" width="41" height="68">
<path d="M131.223 129.814C131.223 129.814 130.333 133.99 136.204 135.207C140.733 136.146 145.553 130.096 146.228 124.74C146.819 120.062 144.699 113.332 146.006 109.895C148.524 103.282 157.575 101.575 162.225 105.543C165.826 108.618 165.931 115.206 160.029 116.351C158.868 116.577 158.868 118.968 158.868 118.968C158.868 118.968 158.716 126.526 160.215 133.419C162.901 145.775 156.085 153.403 156.085 153.403C156.085 153.403 144.325 167.15 137.686 170.377C137.686 170.377 128.122 149.779 124.032 140.928" fill="white"/>
</mask>
<g mask="url(#mask2_16121_8056)">
<path d="M168.862 121.354C160.132 121.731 155.596 127.683 155.596 127.683C155.596 127.683 150.566 122.143 141.836 122.52C141.836 122.52 139.646 105.568 154.221 95.771C169.584 104.273 168.864 121.352 168.864 121.352L168.862 121.354Z" fill="#4129A3"/>
</g>
<path d="M94.3545 134.826L144.228 132.364V141.098C144.072 141.224 144 141.307 143.904 141.385C136.146 147.704 124.72 149.723 119.378 150.366C114.076 151.003 103.972 151.901 94.3142 147.115C94.2044 147.061 94.0991 147.001 93.9893 146.945L94.3545 134.826Z" fill="#4129A3"/>
<path d="M100.201 209.728C96.6426 208.874 92.6674 209.222 89.4922 211.088C88.4681 211.704 87.5471 212.504 86.9802 213.475L86.0391 212.89C86.8121 211.733 87.9057 210.913 89.053 210.306C92.4702 208.502 96.6135 208.408 100.201 209.726V209.728Z" fill="white"/>
<path d="M138.43 209.728C142.017 208.41 146.161 208.504 149.578 210.308C150.725 210.916 151.819 211.736 152.592 212.892L151.651 213.477C151.084 212.504 150.163 211.704 149.139 211.09C145.963 209.224 141.988 208.876 138.43 209.73V209.728Z" fill="white"/>
<path d="M118.699 161.053C122.604 161.053 125.769 157.888 125.769 153.983C125.769 150.079 122.604 146.913 118.699 146.913C114.795 146.913 111.629 150.079 111.629 153.983C111.629 157.888 114.795 161.053 118.699 161.053Z" fill="#FC8F00"/>
<path d="M120.052 146.913H118.699V161.053H120.052V146.913Z" fill="#FC8F00"/>
<path d="M120.053 161.053C123.957 161.053 127.122 157.888 127.122 153.983C127.122 150.079 123.957 146.913 120.053 146.913C116.148 146.913 112.983 150.079 112.983 153.983C112.983 157.888 116.148 161.053 120.053 161.053Z" fill="#FFAC2E"/>
<path d="M120.053 155.144C121.267 155.144 122.251 154.16 122.251 152.946C122.251 151.732 121.267 150.747 120.053 150.747C118.839 150.747 117.854 151.732 117.854 152.946C117.854 154.16 118.839 155.144 120.053 155.144Z" fill="#34267B"/>
<path d="M120.052 156.385V152.946" stroke="#34267B" stroke-width="2.08844" stroke-miterlimit="10" stroke-linecap="round"/>
<path d="M87.5762 114.327L82.4559 106.552C80.6812 103.856 82.3192 100.233 85.5146 99.7844L103.461 97.2634L87.5762 114.325V114.327Z" fill="#6D4AFF"/>
<path d="M121.258 94.4086L130.699 86.9557C133.231 84.9568 136.982 86.2767 137.704 89.4206L141.031 103.928L121.258 94.4086Z" fill="#6D4AFF"/>
<path d="M132.35 91.9101L128.803 94.7134L135.38 98.2561L134.062 92.5129C133.885 91.7443 132.968 91.4216 132.35 91.9101Z" fill="#462EBC"/>
<path d="M86.6127 106.623L89.1023 110.397L94.7827 103.925L87.3589 104.967C86.5791 105.077 86.178 105.962 86.6127 106.621V106.623Z" fill="#462EBC"/>
<path d="M144.747 131.803C144.543 135.355 144.348 138.909 144.247 142.47C143.917 138.92 143.68 135.364 143.454 131.803H144.744H144.747Z" fill="white"/>
<path d="M112.754 93.3599C130.58 90.16 147.722 102.556 150.384 117.388C153.046 132.22 136.397 140.664 121.715 143.297C107.035 145.932 88.4881 143.803 85.826 128.973C83.1639 114.141 94.926 96.5598 112.752 93.3599H112.754Z" fill="#6D4AFF"/>
<path d="M147.554 107.087C151.343 113.527 152.392 122.549 148.237 129.036C146.882 131.185 145.071 132.998 143.072 134.513C145.004 132.913 146.72 131.03 147.957 128.868C150.507 124.548 150.64 119.244 149.385 114.486C148.766 112.104 147.823 109.796 146.472 107.789L147.556 107.087H147.554Z" fill="white"/>
<path d="M113.037 125.635C114.23 120.532 110.535 115.304 104.785 113.96C99.0342 112.615 93.4051 115.662 92.2118 120.766C91.0186 125.869 94.713 131.097 100.464 132.441C106.214 133.786 111.843 130.738 113.037 125.635Z" fill="white"/>
<path d="M137.865 125.739C142.79 122.479 144.437 116.294 141.544 111.924C138.652 107.553 132.314 106.652 127.39 109.912C122.465 113.172 120.818 119.357 123.71 123.727C126.603 128.098 132.941 128.999 137.865 125.739Z" fill="white"/>
<path d="M105.582 126.614C107.528 126.265 108.643 123.412 108.075 120.241C107.506 117.07 105.468 114.783 103.522 115.132C101.577 115.481 100.461 118.334 101.03 121.505C101.599 124.676 103.637 126.963 105.582 126.614Z" fill="#4129A3"/>
<path d="M122.338 117.886C122.273 111.246 129.193 106.117 135.566 107.273C140.807 108.127 144.428 113.162 142.831 118.354C142.952 115.764 142.114 113.097 140.22 111.293C138.555 109.651 136.231 108.792 133.912 108.779C128.55 108.725 123.613 112.593 122.338 117.886Z" fill="#372480"/>
<path d="M112.295 119.687C109.261 115.168 103.287 113.258 98.2785 115.174C96.1094 115.992 94.2271 117.606 93.2389 119.725C92.0894 122.074 92.2328 124.866 93.2456 127.252C89.806 122.755 91.7465 116.532 96.683 114.079C102.209 111.152 110.144 113.646 112.295 119.69V119.687Z" fill="#372480"/>
<path d="M121.178 128.024C121.429 127.98 121.668 128.147 121.713 128.397C121.757 128.648 121.59 128.888 121.34 128.933C120.412 129.098 119.795 129.986 119.963 130.913C120.008 131.164 119.841 131.404 119.591 131.449C119.527 131.461 119.464 131.458 119.404 131.444C119.229 131.405 119.085 131.264 119.052 131.075C118.886 130.149 117.999 129.532 117.07 129.698C116.819 129.743 116.58 129.576 116.535 129.325C116.491 129.074 116.657 128.835 116.908 128.79C117.794 128.632 118.656 128.936 119.244 129.531C119.589 128.768 120.291 128.183 121.178 128.024Z" fill="white"/>
<path opacity="0.7" d="M101.735 118.853C102.482 118.853 103.087 118.248 103.087 117.502C103.087 116.755 102.482 116.151 101.735 116.151C100.989 116.151 100.384 116.755 100.384 117.502C100.384 118.248 100.989 118.853 101.735 118.853Z" fill="white"/>
<path d="M129.183 123.232C131.128 122.883 132.244 120.03 131.675 116.859C131.106 113.688 129.068 111.401 127.123 111.75C125.178 112.099 124.062 114.952 124.63 118.123C125.199 121.294 127.237 123.581 129.183 123.232Z" fill="#4129A3"/>
<path opacity="0.7" d="M125.336 115.472C126.082 115.472 126.687 114.867 126.687 114.12C126.687 113.374 126.082 112.769 125.336 112.769C124.589 112.769 123.984 113.374 123.984 114.12C123.984 114.867 124.589 115.472 125.336 115.472Z" fill="white"/>
<path d="M148 165.759C147.021 162.868 146.346 159.915 145.862 156.912C146.53 159.063 147.317 161.178 148.229 163.233C148.531 163.912 148.849 164.598 149.183 165.239L148 165.759Z" fill="white"/>
<path d="M160.869 117.503C157.868 117.626 153.869 117.572 151.321 115.853C152.757 116.595 154.393 116.712 155.977 116.712C157.548 116.7 159.159 116.519 160.69 116.223L160.869 117.503Z" fill="white"/>
<path d="M91.6971 161.492C91.8024 163.202 92.0086 164.918 92.4052 166.594C91.7979 165.438 91.296 164.21 90.8501 162.978C90.7022 162.561 90.5588 162.151 90.4243 161.716L91.6971 161.49V161.492Z" fill="white"/>
<mask id="mask3_16121_8056" style="mask-type:luminance" maskUnits="userSpaceOnUse" x="103" y="196" width="17" height="25">
<path d="M103.718 196.59C104.833 200.946 105.757 206.107 105.961 211.691C105.961 211.691 105.981 212.495 105.909 212.545C103.225 214.378 103.538 216.406 104.024 217.517C105.486 220.86 116.181 221.81 118.762 217.703C119.258 216.914 119.293 216.495 119.293 214.669C119.293 213.452 119.293 205.674 119.293 196.503" fill="white"/>
</mask>
<g mask="url(#mask3_16121_8056)">
<path d="M125.735 203.292C116.996 203.375 112.154 197.67 112.154 197.67C112.154 197.67 107.421 203.467 98.684 203.55C98.684 203.55 97.391 220.594 112.461 229.609C127.355 220.309 125.735 203.292 125.735 203.292Z" fill="#4129A3"/>
</g>
<path d="M119.936 196.502H119.939V214.668C119.939 215.566 119.932 216.185 119.851 216.679C119.763 217.217 119.589 217.6 119.309 218.046C118.551 219.252 117.237 220.032 115.77 220.493C114.294 220.956 112.591 221.122 110.945 221.048C109.299 220.975 107.671 220.661 106.343 220.134C105.045 219.619 103.903 218.849 103.434 217.776L103.333 217.524C103.103 216.906 102.942 216.08 103.149 215.16C103.375 214.154 104.02 213.121 105.312 212.176C105.313 212.148 105.316 212.118 105.317 212.086C105.319 211.991 105.319 211.896 105.318 211.824C105.318 211.788 105.317 211.758 105.317 211.738L105.316 211.714L105.27 210.682C104.999 205.55 104.131 200.802 103.093 196.75L103.09 196.751C102.393 193.632 101.522 190.542 100.444 187.519C99.9038 186.006 99.319 184.514 98.6558 183.048L96.894 178.538L98.9468 182.908C99.7086 184.328 100.401 185.798 101.044 187.282C102.333 190.252 103.421 193.313 104.339 196.429H104.343C105.398 200.545 106.283 205.38 106.559 210.615L106.606 211.667V211.678C106.606 211.68 106.607 211.682 106.607 211.685V211.714C107.576 211.537 108.583 211.57 109.554 211.702C108.404 211.941 107.226 212.325 106.3 213.054C106.292 213.061 106.284 213.07 106.275 213.077L106.273 213.078C106.264 213.084 106.255 213.089 106.247 213.095C106.245 213.097 106.243 213.099 106.242 213.1L106.241 213.099C105.029 213.935 104.56 214.764 104.408 215.443C104.271 216.054 104.373 216.621 104.541 217.072L104.617 217.258L104.671 217.371C104.973 217.932 105.696 218.489 106.819 218.934C107.988 219.398 109.47 219.691 111.002 219.759C112.535 219.828 114.082 219.67 115.383 219.261C116.692 218.85 117.684 218.207 118.216 217.36L118.356 217.123C118.475 216.901 118.538 216.715 118.578 216.47C118.638 216.101 118.649 215.596 118.649 214.668V196.504H118.645L119.315 171.058L119.936 196.502Z" fill="white"/>
<path d="M133.408 86.0056C135.349 86.0056 137.217 87.2963 137.704 89.4206L140.343 100.927C142.905 103.083 145.096 105.577 146.799 108.297C148.778 105.095 152.484 103.43 156.038 103.43C158.33 103.43 160.562 104.123 162.227 105.545C165.828 108.62 165.934 115.208 160.031 116.353C158.87 116.579 158.868 118.97 158.868 118.97C158.868 118.97 158.716 126.529 160.215 133.421C162.902 145.777 156.085 153.405 156.085 153.405C156.085 153.405 151.937 158.254 147.178 162.868C147.265 163.206 147.355 163.545 147.449 163.885C148.345 167.168 150.407 172.871 153.784 180.223C160.282 194.376 156.928 207.232 151.263 212.917C152.045 214.295 151.913 215.503 151.913 215.503C151.913 215.503 151.821 218.239 149.051 218.239H118.352C116.981 219.756 114.343 220.419 111.69 220.419C108.75 220.419 105.79 219.605 104.51 218.239H89.5283C86.7587 218.239 86.6668 215.503 86.6668 215.503C86.6668 215.503 86.5346 214.295 87.3166 212.917C81.6518 207.232 78.2973 194.376 84.7957 180.223C89.0533 170.948 91.0655 164.25 91.7198 161.857C90.8482 152.789 93.1338 148.316 94.0189 146.96C94.0077 146.956 93.9987 146.949 93.9875 146.945L94.1803 140.552C89.9093 138.138 86.8012 134.41 85.8265 128.973C84.9615 124.156 85.6203 119.046 87.5138 114.233L82.4563 106.552C80.6816 103.856 82.3196 100.233 85.515 99.7844L101.741 97.5054C105.042 95.5246 108.743 94.077 112.754 93.3577C114.668 93.0148 116.575 92.8513 118.457 92.8513C119.941 92.8513 121.411 92.9521 122.854 93.1493L130.701 86.9534C131.524 86.3036 132.476 86.0056 133.41 86.0056M133.408 84.7126C132.129 84.7126 130.916 85.1361 129.899 85.9406L122.477 91.8003C121.142 91.6412 119.791 91.5605 118.455 91.5605C116.47 91.5605 114.475 91.7376 112.526 92.0871C108.575 92.7952 104.802 94.2002 101.304 96.2618L85.3357 98.5048C83.3952 98.7782 81.7527 100.006 80.946 101.794C80.1393 103.58 80.3006 105.626 81.3785 107.262L86.073 114.39C84.2333 119.362 83.7089 124.469 84.5582 129.2C85.4926 134.407 88.2869 138.465 92.8694 141.275L92.708 146.629C91.5921 148.52 89.6359 153.174 90.4157 161.741C89.6986 164.32 87.7065 170.796 83.626 179.683C80.5538 186.376 79.3752 193.37 80.2177 199.909C80.8944 205.161 82.9067 209.932 85.7794 213.161C85.3245 214.346 85.3604 215.314 85.3806 215.583C85.4523 217.185 86.6063 219.529 89.5328 219.529H104.006C105.615 220.867 108.539 221.71 111.692 221.71C114.845 221.71 117.317 220.921 118.883 219.529H149.053C151.978 219.529 153.134 217.183 153.206 215.583C153.226 215.314 153.262 214.349 152.807 213.161C155.68 209.932 157.692 205.161 158.369 199.909C159.211 193.37 158.032 186.376 154.96 179.683C152.094 173.442 149.755 167.408 148.699 163.545C148.675 163.451 148.648 163.359 148.623 163.267C153.051 158.917 156.869 154.481 157.064 154.254C157.232 154.061 158.969 152.043 160.363 148.522C161.678 145.206 162.938 139.846 161.481 133.146C160.033 126.488 160.163 119.071 160.163 118.995V118.981V118.968C160.166 118.466 160.291 117.832 160.426 117.588C163.191 117.005 165.145 115.257 165.799 112.772C166.556 109.897 165.458 106.596 163.07 104.56C161.239 102.995 158.743 102.135 156.04 102.135C152.453 102.135 149.092 103.607 146.866 106.068C145.356 103.95 143.561 101.987 141.511 100.217L138.968 89.127C138.371 86.5254 136.086 84.7104 133.413 84.7104L133.408 84.7126Z" fill="white"/>
</g>
<path opacity="0.5" d="M255.165 81.1248L228.406 78.5514L230.884 54.1589L255.372 54.2711L255.165 81.1248Z" fill="#E4E4E4"/>
<path d="M255.372 54.2711L229.749 52.9283L228.406 78.5514L254.029 79.8942L255.372 54.2711Z" fill="#FFAC2E"/>
<path d="M255.372 54.2711L229.749 52.9283L229.55 56.7193L255.173 58.0622L255.372 54.2711Z" fill="#FC9E22"/>
<g clip-path="url(#clip0_16121_8056)">
<path d="M245.966 70.7353C245.919 70.693 245.871 70.6507 245.824 70.6084C245.55 70.886 245.182 71.0462 244.804 71.0888C244.048 71.1734 243.287 70.846 242.738 70.3326C242.736 70.3312 242.735 70.3298 242.733 70.3285C242.45 70.0538 241.939 70.0747 241.676 70.3802C241.676 70.3801 241.676 70.3806 241.672 70.3842C241.323 70.765 240.879 71.0573 240.394 71.1977C239.821 71.3685 239.177 71.2904 238.754 70.9071C237.935 70.1895 238.178 68.7627 238.934 67.9455C238.993 67.8776 239.056 67.8124 239.122 67.7502C239.665 67.2357 240.124 66.6267 240.451 65.9501C240.725 65.3683 241.265 64.9021 241.892 64.8655C242.517 64.8151 243.125 65.2062 243.482 65.7546C243.894 66.377 244.425 66.9134 245.025 67.3453C245.1 67.3995 245.173 67.4571 245.244 67.5179C245.828 68.0207 246.238 68.767 246.22 69.5418C246.211 69.9293 246.078 70.3144 245.824 70.6085C245.75 70.6912 245.846 70.8097 245.942 70.7546C245.943 70.7546 245.943 70.7546 245.943 70.7546C245.911 70.6994 245.879 70.6443 245.848 70.5892C245.848 70.5892 245.847 70.5892 245.847 70.5892L245.966 70.7353C246.263 70.4163 246.428 69.984 246.451 69.5521C246.498 68.688 246.071 67.8604 245.446 67.2906C245.371 67.2217 245.292 67.1561 245.211 67.0942C244.65 66.6672 244.162 66.1472 243.79 65.5555C243.4 64.9217 242.676 64.4081 241.868 64.4551C241.059 64.4875 240.38 65.0736 240.05 65.7523C239.738 66.3722 239.307 66.9305 238.796 67.4032C238.72 67.4745 238.646 67.5492 238.576 67.6271C237.708 68.5541 237.314 70.2647 238.418 71.2842C238.995 71.8095 239.845 71.8945 240.535 71.6864C241.125 71.5153 241.642 71.1596 242.035 70.7069C242.034 70.7076 242.036 70.7052 242.042 70.6991C242.128 70.5896 242.314 70.5701 242.429 70.6695C242.431 70.6711 242.432 70.6724 242.434 70.6736C243.09 71.237 243.989 71.5598 244.853 71.3901C245.285 71.3056 245.695 71.0765 245.966 70.7353ZM245.824 70.6084L245.966 70.7353C246.036 70.6487 245.944 70.5336 245.848 70.5892L245.943 70.7546L245.824 70.6084Z" fill="#0C0C14"/>
<path d="M238.706 65.5673C238.642 65.5709 238.579 65.5746 238.515 65.5783C238.502 65.7128 238.478 65.843 238.443 65.9684C238.313 66.4634 237.968 66.9081 237.587 66.9203C237.094 66.955 236.681 66.2898 236.651 65.6864C236.593 65.0881 236.877 64.3453 237.434 64.282C237.876 64.2305 238.288 64.6969 238.434 65.1899C238.473 65.3155 238.5 65.4455 238.515 65.5783C238.579 65.5746 238.642 65.5709 238.706 65.5673C238.704 65.4216 238.689 65.2759 238.658 65.1315C238.543 64.581 238.146 63.9146 237.413 63.9153C236.48 63.9984 236.144 64.9857 236.178 65.7138C236.209 66.4386 236.612 67.4202 237.616 67.4282C238.409 67.3563 238.737 66.5823 238.745 66.0107C238.749 65.8598 238.735 65.7113 238.706 65.5673ZM238.515 65.5783L238.706 65.5673L238.515 65.5783Z" fill="#0C0C14"/>
<path d="M241.156 62.5864C241.093 62.5901 241.029 62.5938 240.966 62.5975C240.952 62.7319 240.928 62.8622 240.894 62.9876C240.763 63.4825 240.419 63.9273 240.038 63.9395C239.545 63.9741 239.132 63.309 239.101 62.7056C239.044 62.1072 239.328 61.3645 239.885 61.3012C240.326 61.2497 240.739 61.7161 240.885 62.209C240.924 62.3347 240.951 62.4646 240.966 62.5975C241.029 62.5938 241.093 62.5901 241.156 62.5864C241.155 62.4407 241.14 62.2951 241.109 62.1507C240.994 61.6002 240.597 60.9338 239.863 60.9344C238.93 61.0176 238.594 62.0049 238.629 62.733C238.66 63.4578 239.063 64.4394 240.067 64.4473C240.859 64.3755 241.188 63.6015 241.196 63.0299C241.2 62.8789 241.186 62.7305 241.156 62.5864ZM240.966 62.5975L241.156 62.5864L240.966 62.5975Z" fill="#0C0C14"/>
<path d="M244.746 62.3783C244.682 62.382 244.619 62.3857 244.555 62.3893C244.542 62.5238 244.518 62.654 244.483 62.7795C244.353 63.2744 244.008 63.7192 243.627 63.7314C243.134 63.766 242.722 63.1009 242.691 62.4974C242.633 61.8991 242.917 61.1564 243.474 61.0931C243.916 61.0416 244.328 61.508 244.474 62.0009C244.513 62.1266 244.54 62.2565 244.555 62.3893C244.619 62.3857 244.682 62.382 244.746 62.3783C244.744 62.2326 244.729 62.0869 244.698 61.9425C244.583 61.3921 244.186 60.7256 243.453 60.7263C242.52 60.8095 242.184 61.7967 242.218 62.5248C242.249 63.2496 242.652 64.2313 243.656 64.2392C244.449 64.1673 244.777 63.3934 244.785 62.8217C244.789 62.6708 244.775 62.5224 244.746 62.3783ZM244.555 62.3893L244.746 62.3783L244.555 62.3893Z" fill="#0C0C14"/>
<path d="M247.523 65.0561C247.459 65.0597 247.396 65.0634 247.332 65.0671C247.319 65.2016 247.294 65.3318 247.26 65.4572C247.13 65.9522 246.785 66.3969 246.404 66.4091C246.404 66.4091 246.404 66.4091 246.404 66.4091C245.911 66.4438 245.498 65.7786 245.468 65.1752C245.41 64.5769 245.694 63.8341 246.251 63.7708C246.693 63.7193 247.105 64.1857 247.251 64.6787C247.29 64.8043 247.317 64.9343 247.332 65.0671C247.396 65.0634 247.459 65.0597 247.523 65.0561C247.521 64.9104 247.506 64.7647 247.475 64.6203C247.36 64.0698 246.963 63.4034 246.229 63.4041C245.296 63.4872 244.96 64.4745 244.995 65.2026C245.026 65.9274 245.429 66.909 246.433 66.917C246.433 66.917 246.433 66.917 246.433 66.917C247.226 66.8451 247.554 66.0711 247.562 65.4995C247.566 65.3486 247.552 65.2001 247.523 65.0561ZM247.332 65.0671L247.523 65.0561L247.332 65.0671Z" fill="#0C0C14"/>
</g>
<rect x="235.895" y="61.0963" width="11.535" height="10.9063" transform="rotate(-3.31824 235.895 61.0963)" stroke="#0C0C14" stroke-width="0.00501422"/>
<path opacity="0.5" d="M129.812 120.351L103.946 122.308L102.284 98.7081L125.59 94.7827L129.812 120.351Z" fill="#4A2DC5"/>
<path d="M101.007 97.7263L103.949 122.309L128.532 119.367L125.59 94.7845L101.007 97.7263Z" fill="#FFAC2E"/>
<path d="M101.009 97.7257L101.445 101.364L126.027 98.4222L125.592 94.7839L101.009 97.7257Z" fill="#FC9E22"/>
<path d="M115.051 105.039C116.809 104.426 118.774 104.564 120.463 105.267C121.118 105.538 121.747 105.875 122.315 106.305C122.337 106.323 122.353 106.363 122.347 106.391C122.199 107.089 121.948 107.754 121.632 108.389C120.821 110.03 119.437 111.429 117.712 112.134C115.629 113.02 113.196 112.849 111.167 111.867C110.901 112.292 110.608 112.701 110.285 113.085C109.819 113.639 109.296 114.145 108.728 114.595C108.567 114.721 108.377 114.638 108.364 114.434C108.303 113.489 108.243 112.543 108.184 111.597C107.635 110.902 107.086 110.207 106.539 109.511C106.408 109.344 106.503 109.147 106.715 109.146C107.35 109.147 107.986 109.206 108.61 109.321C109.172 109.426 109.725 109.579 110.263 109.774C111.098 107.608 112.836 105.772 115.051 105.039ZM115.162 105.359C112.998 106.115 111.327 107.982 110.59 110.112C110.551 110.232 110.43 110.29 110.311 110.245C109.734 110.029 109.137 109.865 108.531 109.756C108.087 109.676 107.638 109.626 107.188 109.606C107.654 110.195 108.121 110.784 108.586 111.373C108.605 111.398 108.631 111.467 108.634 111.499C108.634 111.5 108.634 111.503 108.634 111.504C108.686 112.324 108.735 113.144 108.785 113.965C109.202 113.608 109.594 113.22 109.95 112.802C110.303 112.389 110.622 111.946 110.907 111.483C110.966 111.385 111.089 111.353 111.19 111.407C113.128 112.422 115.529 112.657 117.586 111.821C118.294 111.546 118.947 111.148 119.528 110.66C119.488 110.644 119.448 110.627 119.408 110.608C118.442 110.113 117.943 109.088 117.617 108.137C117.297 107.164 117.149 106.148 117.12 105.142C117.119 105.079 117.119 105.017 117.119 104.955C116.451 104.995 115.792 105.128 115.162 105.359ZM117.344 105.12C117.524 106.094 117.742 107.066 118.048 107.994C118.363 108.907 118.743 109.853 119.521 110.414C119.575 110.451 119.632 110.486 119.691 110.518C120.397 109.89 120.99 109.127 121.432 108.285C121.746 107.691 122.004 107.059 122.165 106.409C121.619 106.025 121.006 105.716 120.381 105.476C119.404 105.098 118.353 104.914 117.314 104.948C117.324 105.005 117.334 105.062 117.344 105.12ZM113.899 110.892C113.919 110.887 113.943 110.889 113.962 110.897C114.014 110.918 114.068 110.936 114.122 110.951C114.612 111.081 115.127 111.011 115.638 110.927C116.149 110.838 116.667 110.718 117.19 110.588C117.248 110.573 117.309 110.558 117.362 110.544C117.382 110.538 117.404 110.538 117.424 110.546C117.444 110.554 117.46 110.569 117.469 110.588C117.477 110.606 117.479 110.628 117.473 110.649C117.466 110.669 117.451 110.686 117.434 110.698C117.383 110.731 117.33 110.764 117.276 110.796C116.796 111.073 116.271 111.279 115.715 111.376C115.166 111.468 114.543 111.465 114.03 111.156C113.975 111.122 113.92 111.084 113.871 111.042C113.855 111.028 113.844 111.009 113.84 110.988C113.835 110.967 113.838 110.945 113.849 110.927C113.86 110.91 113.878 110.898 113.899 110.892ZM119.498 106.486C119.615 106.461 119.727 106.536 119.75 106.624C119.756 106.645 119.757 106.667 119.755 106.687C119.77 106.7 119.783 106.718 119.793 106.738C119.833 106.82 119.797 106.95 119.692 107.008C119.562 107.088 119.355 107.016 119.3 106.855C119.237 106.698 119.348 106.51 119.498 106.486ZM119.558 106.648C119.521 106.681 119.533 106.738 119.569 106.747C119.577 106.75 119.587 106.749 119.595 106.746C119.587 106.749 119.579 106.755 119.575 106.763C119.553 106.793 119.582 106.844 119.631 106.846C119.694 106.852 119.756 106.769 119.726 106.697C119.701 106.624 119.602 106.602 119.558 106.648Z" fill="#0C0C14"/>
<path d="M210.298 122.108L183.172 118.987L186.152 94.2618L211.018 94.8406L210.298 122.108Z" fill="#E4E4E4"/>
<path d="M211.018 94.8406L185.022 92.9905L183.172 118.987L209.168 120.837L211.018 94.8406Z" fill="#FC8F00"/>
<path d="M211.018 94.8406L185.022 92.9905L184.748 96.8368L210.744 98.6868L211.018 94.8406Z" fill="#F28400"/>
<path d="M196.992 105.002C197.021 104.966 197.05 104.929 197.079 104.892C196.717 104.59 196.353 104.289 195.99 103.988C195.843 103.867 195.646 103.806 195.456 103.819C195.445 103.82 195.436 103.821 195.427 103.822C194.056 103.921 192.685 104.028 191.316 104.142C190.879 104.168 190.521 104.596 190.568 105.033C190.642 105.898 190.719 106.763 190.799 107.628C190.95 109.272 191.103 110.917 191.257 112.561C191.296 113.118 191.843 113.57 192.396 113.505C195.594 113.205 198.791 112.9 201.988 112.591C202.528 112.551 202.964 112.021 202.899 111.487C202.698 109.421 202.496 107.356 202.291 105.291C202.263 104.887 201.864 104.565 201.468 104.613C200.618 104.697 199.768 104.782 198.918 104.867C198.441 104.915 197.963 104.962 197.486 105.01C197.341 105.026 197.191 104.982 197.075 104.892L197.032 105.018C197.033 105.018 197.034 105.018 197.036 105.018C197.036 104.971 197.036 104.924 197.036 104.877C197.034 104.877 197.033 104.877 197.032 104.877L196.828 104.878L196.988 105.003C197.13 105.117 197.317 105.175 197.5 105.158C197.978 105.118 198.456 105.078 198.934 105.037C199.785 104.965 200.636 104.893 201.487 104.82C201.774 104.79 202.055 105.026 202.071 105.311C202.248 107.379 202.427 109.447 202.608 111.514C202.65 111.893 202.337 112.264 201.96 112.287C198.761 112.568 195.561 112.853 192.362 113.142C192.002 113.184 191.648 112.887 191.624 112.527C191.475 110.883 191.324 109.238 191.173 107.593C191.093 106.729 191.011 105.864 190.925 105C190.895 104.753 191.095 104.503 191.347 104.484C192.715 104.345 194.081 104.199 195.447 104.046C195.457 104.045 195.466 104.044 195.475 104.043C195.611 104.028 195.752 104.065 195.863 104.149C196.239 104.434 196.615 104.718 196.992 105.002ZM197.079 104.892L196.992 105.002L197.036 104.877V105.018L197.236 105.019L197.079 104.892Z" fill="#0C0C14"/>
<path d="M202.364 112.403L192.256 113.336C191.892 113.369 191.6 113.015 191.677 112.638L192.789 107.14C192.848 106.848 193.077 106.633 193.357 106.607L203.318 105.689C203.754 105.649 204.106 106.073 204.014 106.528L202.932 111.87C202.873 112.162 202.644 112.377 202.364 112.403Z" fill="#FC8F00"/>
<path d="M202.37 112.473C202.366 112.426 202.362 112.38 202.357 112.333C201.772 112.371 201.186 112.411 200.601 112.452C198.26 112.618 195.921 112.809 193.584 113.024C193.136 113.066 192.687 113.107 192.238 113.149C192.013 113.181 191.801 112.916 191.86 112.675C192.229 110.842 192.596 109.009 192.962 107.175C193.001 106.967 193.173 106.797 193.373 106.781C196.693 106.465 200.012 106.143 203.33 105.816C203.673 105.77 203.978 106.155 203.897 106.504C203.607 107.985 203.319 109.466 203.032 110.947C202.973 111.25 202.915 111.552 202.856 111.855C202.813 112.1 202.606 112.311 202.357 112.333C202.362 112.38 202.366 112.426 202.37 112.473C202.686 112.451 202.95 112.188 203.009 111.886C203.072 111.584 203.136 111.283 203.2 110.981C203.511 109.505 203.822 108.028 204.131 106.552C204.249 106.071 203.842 105.506 203.307 105.561C199.984 105.846 196.662 106.137 193.341 106.433C192.977 106.461 192.678 106.766 192.615 107.105C192.24 108.937 191.866 110.768 191.494 112.601C191.384 113.049 191.768 113.576 192.273 113.522C192.722 113.481 193.17 113.44 193.619 113.398C195.955 113.183 198.29 112.942 200.622 112.677C201.205 112.611 201.788 112.543 202.37 112.473ZM202.357 112.333L202.37 112.473L202.357 112.333L202.357 112.333Z" fill="#0C0C14"/>
<path opacity="0.5" d="M71.8023 79.5949L45.4691 71.622L52.8685 47.6417L77.4223 52.6881L71.8023 79.5949Z" fill="#E4E4E4"/>
<path d="M77.4326 52.6738L51.9883 46.1649L45.4794 71.6092L70.9238 78.1181L77.4326 52.6738Z" fill="#E5E8EB"/>
<path d="M77.4322 52.6741L51.9878 46.1652L51.0248 49.9299L76.4691 56.4387L77.4322 52.6741Z" fill="#DBDBDB"/>
<path opacity="0.5" d="M47.7664 153.257L20.4276 150.159L23.3849 125.238L48.4461 125.778L47.7664 153.257Z" fill="#E4E4E4"/>
<path d="M48.4541 125.762L22.2534 123.944L20.4359 150.145L46.6366 151.962L48.4541 125.762Z" fill="#E2DBFF"/>
<path d="M48.4536 125.762L22.2529 123.945L21.984 127.821L48.1847 129.639L48.4536 125.762Z" fill="#C5B7FF" fill-opacity="0.4"/>
<path d="M39.8735 134.991C39.8765 134.928 39.8795 134.865 39.8825 134.802C39.1708 134.747 38.459 134.694 37.7472 134.644C34.9803 134.447 32.212 134.282 29.4422 134.148C29.3429 134.144 29.2431 134.15 29.1451 134.167C28.5295 134.266 28.0293 134.827 28.0103 135.452C27.9123 137.548 27.8164 139.645 27.7225 141.741C27.6754 142.464 28.2938 143.143 29.0177 143.159C29.6107 143.185 30.2042 143.212 30.7978 143.238L30.5762 142.995C30.553 143.532 30.5299 144.069 30.5069 144.606L30.48 145.153L30.8864 144.785C31.4475 144.271 32.0083 143.756 32.569 143.241L32.4126 143.297C34.7651 143.398 37.1178 143.496 39.4705 143.592C40.1585 143.634 40.7988 143.043 40.8106 142.36C40.889 140.391 40.9656 138.422 41.0404 136.454C41.0452 136.325 41.0501 136.197 41.0549 136.069C41.0934 135.416 40.5307 134.81 39.8848 134.801L39.8749 134.801L39.8633 134.803C39.8625 134.803 39.8617 134.803 39.8608 134.803C39.8723 134.865 39.8838 134.927 39.8952 134.99C39.896 134.989 39.8969 134.989 39.8977 134.989L39.8762 134.991C40.4196 135.009 40.8747 135.526 40.832 136.059C40.8248 136.187 40.8176 136.315 40.8104 136.443C40.6994 138.41 40.5903 140.377 40.4829 142.345C40.4672 142.851 39.9847 143.278 39.4869 143.239C37.136 143.111 34.7847 142.986 32.4332 142.863L32.3423 142.86L32.2768 142.92C31.7113 143.429 31.146 143.939 30.5809 144.449L30.9604 144.628C30.9876 144.091 31.0147 143.554 31.0417 143.016L31.0518 142.783L30.8201 142.773C30.2267 142.742 29.6334 142.712 29.04 142.682C28.5742 142.67 28.1748 142.226 28.2087 141.764C28.3127 139.668 28.4146 137.572 28.5144 135.476C28.5254 135.083 28.8445 134.726 29.2316 134.665C29.2931 134.654 29.3559 134.65 29.4187 134.653C32.1883 134.783 34.9598 134.88 37.7328 134.946C38.4463 134.963 39.1599 134.978 39.8735 134.991ZM39.8825 134.802L39.8735 134.991L39.8865 134.991L39.8952 134.99L39.8608 134.803L39.8825 134.802Z" fill="#0C0C14"/>
<path opacity="0.5" d="M263.457 154.204L235.946 154.588L235.728 129.493L260.657 126.86L263.457 154.204Z" fill="#E4E4E4"/>
<path d="M260.718 126.899L234.498 128.409L236.007 154.629L262.228 153.12L260.718 126.899Z" fill="#E2DBFF"/>
<g clip-path="url(#clip1_16121_8056)">
<path d="M254.596 144.518C254.117 143.907 252.807 144.096 252.236 144.213C252.555 143.377 252.647 142.46 252.482 141.563C252.39 141.062 252.221 140.58 251.98 140.13C251.651 139.514 251.204 138.986 250.651 138.559C249.228 137.459 247.318 137.223 245.668 137.943C245.341 138.086 245.026 138.267 244.733 138.482C244.359 138.756 244.027 139.079 243.745 139.443C243.464 139.808 243.235 140.211 243.064 140.641C242.942 140.947 242.852 141.267 242.795 141.59C242.474 143.402 243.178 145.225 244.631 146.348C245.183 146.776 245.808 147.075 246.485 147.238C246.835 147.323 247.192 147.368 247.546 147.375C247.776 147.379 248.005 147.367 248.231 147.339C249.528 147.18 250.73 146.507 251.536 145.463C251.757 145.178 251.943 144.871 252.094 144.549C252.64 144.411 253.972 144.203 254.363 144.701C254.574 144.971 254.498 145.442 254.136 146.101C254.096 146.173 254.123 146.263 254.195 146.304C254.223 146.319 254.255 146.325 254.284 146.321C254.331 146.315 254.373 146.288 254.398 146.245C254.823 145.472 254.89 144.891 254.598 144.518L254.596 144.518ZM247.802 145.373C246.722 145.413 245.661 145.073 244.807 144.412C243.912 143.72 243.304 142.728 243.093 141.617C243.128 141.425 243.177 141.236 243.236 141.05C243.544 141.545 243.934 141.978 244.4 142.338C245.433 143.137 246.724 143.487 248.006 143.329C248.112 143.316 248.218 143.299 248.323 143.279C248.317 144.008 248.139 144.726 247.803 145.372L247.802 145.373ZM245.758 138.23C246.745 138.255 247.68 138.588 248.463 139.194C249.402 139.919 250.016 140.959 250.201 142.129C249.728 142.486 249.183 142.753 248.609 142.907C248.514 141.502 247.83 140.212 246.711 139.347C246.245 138.987 245.727 138.719 245.171 138.546C245.36 138.427 245.556 138.321 245.758 138.231L245.758 138.23ZM248.623 143.213C249.201 143.066 249.755 142.812 250.243 142.469C250.312 143.284 250.165 144.094 249.816 144.832C249.302 145.106 248.73 145.281 248.15 145.348C248.465 144.683 248.627 143.952 248.623 143.214L248.623 143.213ZM250.52 142.256C250.81 142.019 251.075 141.75 251.305 141.452C251.52 141.173 251.704 140.873 251.855 140.554C252.004 140.885 252.113 141.232 252.182 141.59C252.048 142.321 251.75 142.991 251.293 143.581C250.996 143.966 250.646 144.297 250.25 144.567C250.523 143.833 250.616 143.044 250.52 142.256ZM250.468 138.795C250.969 139.182 251.378 139.658 251.683 140.209C251.525 140.59 251.319 140.947 251.069 141.27C250.889 141.503 250.686 141.719 250.466 141.913C250.239 140.737 249.599 139.695 248.645 138.958C247.988 138.449 247.229 138.121 246.424 137.992C247.812 137.614 249.311 137.901 250.468 138.795ZM243.982 139.625C244.232 139.302 244.525 139.011 244.854 138.764C245.465 138.921 246.028 139.196 246.529 139.584C247.593 140.407 248.24 141.638 248.318 142.977C247.001 143.241 245.647 142.924 244.583 142.101C244.082 141.714 243.673 141.238 243.368 140.687C243.526 140.307 243.732 139.95 243.983 139.626L243.982 139.625ZM243.016 142.454C243.333 143.317 243.888 144.078 244.625 144.648C245.487 145.315 246.546 145.675 247.633 145.675C247.548 145.813 247.456 145.945 247.359 146.07C247.108 146.394 246.815 146.684 246.487 146.932C245.876 146.775 245.312 146.499 244.812 146.112C243.664 145.225 243.014 143.874 243.016 142.454ZM247.517 147.076C247.3 147.071 247.081 147.048 246.865 147.012C247.135 146.786 247.38 146.531 247.594 146.253C247.737 146.068 247.869 145.868 247.986 145.661C248.067 145.655 248.149 145.649 248.229 145.64C248.691 145.583 249.145 145.46 249.571 145.279C249.485 145.418 249.393 145.553 249.293 145.682C248.825 146.286 248.211 146.768 247.516 147.077L247.517 147.076ZM251.298 145.282C250.533 146.272 249.435 146.893 248.219 147.043C248.72 146.733 249.166 146.333 249.53 145.863C249.726 145.609 249.898 145.334 250.042 145.047C250.621 144.723 251.121 144.291 251.53 143.763C251.842 143.359 252.09 142.907 252.264 142.428C252.269 143.453 251.934 144.461 251.299 145.281L251.298 145.282Z" fill="#0C0C14"/>
</g>
<path d="M260.662 126.843L234.442 128.353L234.665 132.233L260.886 130.723L260.662 126.843Z" fill="#C5B7FF" fill-opacity="0.4"/>
<defs>
<clipPath id="clip0_16121_8056">
<rect x="235.893" y="61.0939" width="11.54" height="10.9113" transform="rotate(-3.31824 235.893 61.0939)" fill="white"/>
</clipPath>
<clipPath id="clip1_16121_8056">
<rect width="11.6943" height="9.84449" fill="white" transform="translate(242.154 138.167) rotate(-6.98905)"/>
</clipPath>
</defs>
</svg>
