<svg width="145" height="41" viewBox="0 0 145 41" fill="none" xmlns="http://www.w3.org/2000/svg">
    <path
        fill-rule="evenodd"
        clip-rule="evenodd"
        d="M2.90002 23.1679V10.6304H6.56665V23.1679C6.56665 24.9643 8.02292 26.4205 9.81931 26.4205H11.9483V30.0872H9.81931C5.99789 30.0872 2.90002 26.9893 2.90002 23.1679Z"
        fill="#1B1340"
    />
    <path
        d="M19.8142 30.3691C15.9064 30.342 13.7626 27.8996 13.7626 24.4532V17.3161H17.5075V24.1818C17.5075 25.9729 18.2945 27.0855 19.8142 27.1126C21.4696 27.1398 22.1751 26.0272 22.1751 24.209V17.3161H25.9201V24.4803C25.9201 27.7639 23.3963 30.3963 19.8142 30.3691Z"
        fill="#1B1340"
    />
    <path
        d="M28.7358 22.9335C28.7358 19.27 30.6625 17.0176 34.4346 17.0176C36.9584 17.0176 38.261 18.483 38.7766 19.3514H38.8308C39.3465 18.483 40.649 17.0176 43.1728 17.0176C46.9449 17.0176 48.8716 19.27 48.8716 22.9335V30.0706H45.1267V23.2049C45.1267 21.4138 44.4211 20.2741 42.9014 20.2741C41.3818 20.2741 40.6762 21.4138 40.6762 23.2049V30.0706H36.9312V23.2049C36.9312 21.4138 36.2257 20.2741 34.706 20.2741C33.1863 20.2741 32.4807 21.4138 32.4807 23.2049V30.0706H28.7358V22.9335Z"
        fill="#1B1340"
    />
    <path
        d="M57.873 30.3691C53.8296 30.3691 50.9802 27.4926 50.9802 23.6933C50.9802 19.8941 53.8296 17.0176 57.873 17.0176C61.9165 17.0176 64.7659 19.8941 64.7659 23.6933C64.7659 27.4926 61.9165 30.3691 57.873 30.3691ZM57.873 27.1398C59.7455 27.1398 61.0752 25.7286 61.0752 23.6933C61.0752 21.6581 59.7455 20.2469 57.873 20.2469C56.0006 20.2469 54.6708 21.6581 54.6708 23.6933C54.6708 25.7286 56.0006 27.1398 57.873 27.1398Z"
        fill="#1B1340"
    />
</svg>
