<svg width="76" height="36" viewBox="0 0 76 36" fill="none" xmlns="http://www.w3.org/2000/svg">
    <path
        d="M70.5297 33.4572H71.6301C71.6598 33.8834 71.8185 34.2304 72.106 34.4981C72.4034 34.7658 72.8296 34.8996 73.3848 34.8996C73.7219 34.8996 73.9846 34.855 74.1729 34.7658C74.3712 34.6765 74.515 34.5576 74.6042 34.4089C74.6934 34.2503 74.738 34.0768 74.738 33.8884C74.738 33.6604 74.6785 33.4819 74.5596 33.3531C74.4505 33.2143 74.2969 33.1003 74.0986 33.0111C73.9102 32.9218 73.6921 32.8376 73.4443 32.7583C73.1568 32.6492 72.8594 32.5352 72.5521 32.4162C72.2547 32.2874 71.9721 32.1387 71.7045 31.9701C71.4467 31.7917 71.2385 31.5785 71.0799 31.3307C70.9213 31.0729 70.842 30.7656 70.842 30.4087C70.842 30.1113 70.9014 29.8337 71.0204 29.576C71.1394 29.3083 71.3079 29.0803 71.526 28.892C71.754 28.6937 72.0167 28.54 72.3141 28.431C72.6215 28.3219 72.9585 28.2674 73.3253 28.2674C73.821 28.2674 74.2374 28.3665 74.5744 28.5648C74.9214 28.7631 75.1841 29.0456 75.3626 29.4124C75.5509 29.7693 75.6501 30.1857 75.66 30.6615H74.6339C74.5645 30.2154 74.4208 29.8932 74.2027 29.695C73.9945 29.4868 73.6921 29.3827 73.2956 29.3827C72.8891 29.3827 72.5768 29.4719 72.3588 29.6503C72.1407 29.8288 72.0316 30.0667 72.0316 30.3641C72.0316 30.5822 72.1109 30.7656 72.2695 30.9143C72.4281 31.0531 72.6314 31.182 72.8792 31.301C73.137 31.41 73.4096 31.524 73.6971 31.643C73.9846 31.7619 74.2622 31.8809 74.5298 31.9999C74.7975 32.1188 75.0354 32.2576 75.2436 32.4162C75.4518 32.5749 75.6154 32.7731 75.7343 33.0111C75.8632 33.2391 75.9276 33.5266 75.9276 33.8735C75.9276 34.2899 75.8285 34.6617 75.6302 34.9888C75.4419 35.3061 75.1593 35.5539 74.7826 35.7323C74.4158 35.9108 73.9648 36 73.4294 36C72.9437 36 72.5273 35.9405 72.1803 35.8216C71.8432 35.6927 71.5607 35.5291 71.3327 35.3308C71.1047 35.1226 70.9262 34.9045 70.7974 34.6765C70.6784 34.4485 70.5991 34.2255 70.5594 34.0074C70.5198 33.7893 70.5099 33.6059 70.5297 33.4572Z"
        fill="#372580"
    />
    <path
        d="M64.2631 33.4572H65.3635C65.3932 33.8834 65.5519 34.2304 65.8394 34.4981C66.1368 34.7658 66.563 34.8996 67.1182 34.8996C67.4553 34.8996 67.718 34.855 67.9063 34.7658C68.1046 34.6765 68.2484 34.5576 68.3376 34.4089C68.4268 34.2503 68.4714 34.0768 68.4714 33.8884C68.4714 33.6604 68.4119 33.4819 68.293 33.3531C68.1839 33.2143 68.0303 33.1003 67.832 33.0111C67.6436 32.9218 67.4255 32.8376 67.1777 32.7583C66.8902 32.6492 66.5928 32.5352 66.2855 32.4162C65.9881 32.2874 65.7055 32.1387 65.4379 31.9701C65.1801 31.7917 64.9719 31.5785 64.8133 31.3307C64.6547 31.0729 64.5754 30.7656 64.5754 30.4087C64.5754 30.1113 64.6348 29.8337 64.7538 29.576C64.8728 29.3083 65.0413 29.0803 65.2594 28.892C65.4874 28.6937 65.7501 28.54 66.0475 28.431C66.3549 28.3219 66.6919 28.2674 67.0587 28.2674C67.5544 28.2674 67.9708 28.3665 68.3078 28.5648C68.6548 28.7631 68.9175 29.0456 69.096 29.4124C69.2843 29.7693 69.3835 30.1857 69.3934 30.6615H68.3673C68.2979 30.2154 68.1542 29.8932 67.9361 29.695C67.7279 29.4868 67.4255 29.3827 67.029 29.3827C66.6225 29.3827 66.3102 29.4719 66.0921 29.6503C65.8741 29.8288 65.765 30.0667 65.765 30.3641C65.765 30.5822 65.8443 30.7656 66.0029 30.9143C66.1615 31.0531 66.3648 31.182 66.6126 31.301C66.8704 31.41 67.143 31.524 67.4305 31.643C67.718 31.7619 67.9956 31.8809 68.2632 31.9999C68.5309 32.1188 68.7688 32.2576 68.977 32.4162C69.1852 32.5749 69.3488 32.7731 69.4677 33.0111C69.5966 33.2391 69.661 33.5266 69.661 33.8735C69.661 34.2899 69.5619 34.6617 69.3636 34.9888C69.1753 35.3061 68.8927 35.5539 68.516 35.7323C68.1492 35.9108 67.6982 36 67.1628 36C66.677 36 66.2607 35.9405 65.9137 35.8216C65.5766 35.6927 65.2941 35.5291 65.0661 35.3308C64.8381 35.1226 64.6596 34.9045 64.5308 34.6765C64.4118 34.4485 64.3325 34.2255 64.2928 34.0074C64.2532 33.7893 64.2433 33.6059 64.2631 33.4572Z"
        fill="#372580"
    />
    <path
        d="M62.2235 33.4572H63.3387C63.2594 33.9429 63.081 34.3791 62.8034 34.7658C62.5357 35.1425 62.1788 35.4448 61.7327 35.6729C61.2965 35.891 60.7909 36 60.216 36C59.522 36 58.8974 35.8364 58.3423 35.5093C57.7871 35.1722 57.346 34.7162 57.0188 34.1412C56.7016 33.5563 56.543 32.8921 56.543 32.1486C56.543 31.405 56.6966 30.7408 57.0039 30.1559C57.3212 29.571 57.7524 29.1101 58.2977 28.773C58.8429 28.4359 59.4576 28.2674 60.1416 28.2674C60.8653 28.2674 61.475 28.431 61.9707 28.7581C62.4763 29.0754 62.848 29.5462 63.0859 30.1708C63.3338 30.7854 63.4329 31.5438 63.3834 32.446H57.7326C57.7822 32.9317 57.916 33.358 58.1341 33.7248C58.3522 34.0916 58.6397 34.3791 58.9966 34.5873C59.3535 34.7856 59.7599 34.8847 60.216 34.8847C60.7215 34.8847 61.1478 34.7558 61.4948 34.4981C61.8517 34.2304 62.0946 33.8834 62.2235 33.4572ZM60.1862 29.3827C59.5716 29.3827 59.0561 29.5611 58.6397 29.918C58.2233 30.2749 57.9457 30.7607 57.807 31.3753H62.164C62.1243 30.721 61.9112 30.2253 61.5246 29.8883C61.1478 29.5512 60.7017 29.3827 60.1862 29.3827Z"
        fill="#372580"
    />
    <path
        d="M49.0229 28.4161H50.2126V35.8513H49.0229V28.4161ZM52.7703 28.2674C53.1668 28.2674 53.5237 28.3269 53.841 28.4458C54.1582 28.5648 54.4259 28.7383 54.644 28.9663C54.8621 29.1943 55.0306 29.4719 55.1496 29.799C55.2685 30.1163 55.328 30.4781 55.328 30.8846V35.8513H54.1384V31.182C54.1384 30.607 54.0045 30.1758 53.7369 29.8883C53.4692 29.6008 53.0677 29.457 52.5324 29.457C52.1259 29.457 51.7492 29.5611 51.4022 29.7693C51.0552 29.9775 50.7677 30.265 50.5397 30.6318C50.3216 30.9887 50.1878 31.405 50.1382 31.8809L50.1234 31.0184C50.1729 30.602 50.2721 30.2253 50.4208 29.8883C50.5794 29.5512 50.7727 29.2637 51.0007 29.0258C51.2386 28.7779 51.5063 28.5896 51.8037 28.4607C52.111 28.3318 52.4332 28.2674 52.7703 28.2674Z"
        fill="#372580"
    />
    <path
        d="M47.4669 25.442V26.8844H45.9204V25.442H47.4669ZM46.0989 28.4161H47.2885V35.8513H46.0989V28.4161Z"
        fill="#372580"
    />
    <path
        d="M39.3715 33.4572H40.4719C40.5016 33.8834 40.6603 34.2304 40.9477 34.4981C41.2452 34.7658 41.6714 34.8996 42.2266 34.8996C42.5637 34.8996 42.8264 34.855 43.0147 34.7658C43.213 34.6765 43.3568 34.5576 43.446 34.4089C43.5352 34.2503 43.5798 34.0768 43.5798 33.8884C43.5798 33.6604 43.5203 33.4819 43.4014 33.3531C43.2923 33.2143 43.1387 33.1003 42.9404 33.0111C42.752 32.9218 42.5339 32.8376 42.2861 32.7583C41.9986 32.6492 41.7012 32.5352 41.3939 32.4162C41.0965 32.2874 40.8139 32.1387 40.5462 31.9701C40.2885 31.7917 40.0803 31.5785 39.9217 31.3307C39.7631 31.0729 39.6838 30.7656 39.6838 30.4087C39.6838 30.1113 39.7432 29.8337 39.8622 29.576C39.9812 29.3083 40.1497 29.0803 40.3678 28.892C40.5958 28.6937 40.8585 28.54 41.1559 28.431C41.4633 28.3219 41.8003 28.2674 42.1671 28.2674C42.6628 28.2674 43.0792 28.3665 43.4162 28.5648C43.7632 28.7631 44.0259 29.0456 44.2044 29.4124C44.3927 29.7693 44.4919 30.1857 44.5018 30.6615H43.4757C43.4063 30.2154 43.2626 29.8932 43.0445 29.695C42.8363 29.4868 42.5339 29.3827 42.1374 29.3827C41.7309 29.3827 41.4186 29.4719 41.2005 29.6503C40.9824 29.8288 40.8734 30.0667 40.8734 30.3641C40.8734 30.5822 40.9527 30.7656 41.1113 30.9143C41.2699 31.0531 41.4732 31.182 41.721 31.301C41.9788 31.41 42.2514 31.524 42.5389 31.643C42.8264 31.7619 43.104 31.8809 43.3716 31.9999C43.6393 32.1188 43.8772 32.2576 44.0854 32.4162C44.2936 32.5749 44.4572 32.7731 44.5761 33.0111C44.705 33.2391 44.7694 33.5266 44.7694 33.8735C44.7694 34.2899 44.6703 34.6617 44.472 34.9888C44.2837 35.3061 44.0011 35.5539 43.6244 35.7323C43.2576 35.9108 42.8065 36 42.2712 36C41.7854 36 41.3691 35.9405 41.0221 35.8216C40.685 35.6927 40.4025 35.5291 40.1745 35.3308C39.9465 35.1226 39.768 34.9045 39.6392 34.6765C39.5202 34.4485 39.4409 34.2255 39.4012 34.0074C39.3616 33.7893 39.3517 33.6059 39.3715 33.4572Z"
        fill="#372580"
    />
    <path
        d="M38.0968 35.8513H36.9072V28.4161H38.0968V35.8513ZM36.9815 32.3865L36.9964 32.8028C36.9865 32.9218 36.9567 33.1052 36.9072 33.353C36.8675 33.6009 36.7932 33.8785 36.6841 34.1858C36.585 34.4832 36.4363 34.7707 36.238 35.0483C36.0496 35.3259 35.8018 35.5539 35.4945 35.7323C35.1971 35.9108 34.8253 36 34.3792 36C34.0917 36 33.7943 35.9554 33.487 35.8661C33.1896 35.7868 32.912 35.653 32.6542 35.4646C32.3965 35.2664 32.1883 34.9937 32.0297 34.6468C31.8711 34.2998 31.7917 33.8686 31.7917 33.353V28.4161H32.9814V33.0556C32.9814 33.5018 33.0508 33.8537 33.1896 34.1114C33.3383 34.3593 33.5365 34.5377 33.7844 34.6468C34.0322 34.7558 34.3098 34.8103 34.6171 34.8103C35.1227 34.8103 35.544 34.6815 35.8811 34.4237C36.2182 34.166 36.4759 33.8487 36.6544 33.472C36.8328 33.0953 36.9419 32.7334 36.9815 32.3865Z"
        fill="#372580"
    />
    <path
        d="M23.1489 35.8513V26.1855H26.9557C27.957 26.1855 28.7352 26.4136 29.2904 26.8696C29.8555 27.3256 30.138 27.9601 30.138 28.773C30.138 29.2786 30.0339 29.69 29.8257 30.0072C29.6275 30.3245 29.3449 30.5624 28.9781 30.721C28.6113 30.8796 28.1801 30.9837 27.6844 31.0333L27.7141 30.9441C28.0809 30.9639 28.4279 31.0135 28.7551 31.0928C29.0822 31.1622 29.3697 31.2762 29.6176 31.4348C29.8753 31.5934 30.0785 31.8115 30.2272 32.0891C30.3759 32.3667 30.4503 32.7236 30.4503 33.1598C30.4503 33.7447 30.3214 34.2304 30.0637 34.6171C29.8059 35.0037 29.4441 35.3011 28.9781 35.5093C28.5221 35.7076 27.9967 35.8216 27.4019 35.8513H23.1489ZM24.3386 34.736H27.1044C27.7786 34.736 28.304 34.6121 28.6807 34.3643C29.0673 34.1065 29.2607 33.705 29.2607 33.1598C29.2607 32.7236 29.1367 32.3964 28.8889 32.1783C28.651 31.9602 28.3437 31.8165 27.9669 31.7471C27.5902 31.6678 27.2036 31.6281 26.807 31.6281H24.3386V34.736ZM24.3386 30.5128H26.807C27.4812 30.5128 28.0066 30.3691 28.3833 30.0816C28.7699 29.7842 28.9632 29.3629 28.9632 28.8176C28.9632 28.2823 28.7699 27.8956 28.3833 27.6577C28.0066 27.4198 27.5307 27.3008 26.9557 27.3008H24.3386V30.5128Z"
        fill="#372580"
    />
    <path
        d="M15.4902 28.4161H16.6799V35.8513H15.4902V28.4161ZM19.0591 29.5314C18.5535 29.5314 18.1273 29.6603 17.7803 29.918C17.4432 30.1658 17.1755 30.4732 16.9773 30.84C16.7889 31.1969 16.665 31.5438 16.6055 31.8809L16.5906 31.0184C16.5906 30.9292 16.6105 30.7805 16.6501 30.5723C16.6898 30.3641 16.7641 30.1312 16.8732 29.8734C16.9822 29.6057 17.126 29.3529 17.3044 29.115C17.4928 28.8672 17.7307 28.6639 18.0182 28.5053C18.3057 28.3467 18.6527 28.2674 19.0591 28.2674V29.5314Z"
        fill="#372580"
    />
    <path
        d="M10.6642 36C10.0298 36 9.43496 35.8463 8.8798 35.539C8.32463 35.2317 7.87357 34.7905 7.52659 34.2156C7.18953 33.6307 7.021 32.9417 7.021 32.1486C7.021 31.3555 7.18953 30.6714 7.52659 30.0965C7.87357 29.5116 8.32463 29.0605 8.8798 28.7432C9.43496 28.426 10.0298 28.2674 10.6642 28.2674C11.2987 28.2674 11.8886 28.426 12.4338 28.7432C12.989 29.0605 13.4351 29.5116 13.7722 30.0965C14.1092 30.6714 14.2777 31.3555 14.2777 32.1486C14.2777 32.9417 14.1092 33.6307 13.7722 34.2156C13.4351 34.7905 12.989 35.2317 12.4338 35.539C11.8886 35.8463 11.2987 36 10.6642 36ZM10.6642 34.8847C11.0806 34.8847 11.4722 34.7806 11.839 34.5724C12.2058 34.3643 12.5032 34.0569 12.7312 33.6505C12.9692 33.2341 13.0881 32.7335 13.0881 32.1486C13.0881 31.5637 12.9692 31.068 12.7312 30.6615C12.5032 30.2452 12.2058 29.9279 11.839 29.7098C11.4722 29.4917 11.0806 29.3827 10.6642 29.3827C10.2479 29.3827 9.85133 29.4917 9.47461 29.7098C9.10781 29.918 8.80544 30.2303 8.56752 30.6467C8.32959 31.0531 8.21063 31.5538 8.21063 32.1486C8.21063 32.7335 8.32463 33.2341 8.55265 33.6505C8.79057 34.0569 9.09789 34.3643 9.47461 34.5724C9.85133 34.7806 10.2479 34.8847 10.6642 34.8847Z"
        fill="#372580"
    />
    <path
        d="M6.84038 26.1855V27.3008H1.18963V30.4831H5.81433V31.5984H1.18963V35.8513H0V26.1855H6.84038Z"
        fill="#372580"
    />
    <path
        d="M12.124 15.165C12.1241 16.13 12.2805 16.89 12.5928 17.4443C12.9259 17.9779 13.3839 18.3581 13.9668 18.584C14.5497 18.8099 15.2268 18.9218 15.9971 18.9219C17.1006 18.9219 18.0382 18.6764 18.8086 18.1836C19.5789 17.6908 20.1933 17.0849 20.6514 16.3662C20.9806 15.8582 21.2296 15.3638 21.4014 14.8848V6.20215H24.8682V21.54H21.4014V16.1836C21.3809 16.2613 21.3619 16.3433 21.3389 16.4277C21.214 16.9616 20.995 17.5472 20.6826 18.1836C20.3911 18.7995 19.9957 19.395 19.4961 19.9697C19.0173 20.524 18.4131 20.9859 17.6846 21.3555C16.9557 21.7046 16.0704 21.8789 15.0293 21.8789C14.2797 21.8789 13.5195 21.7766 12.749 21.5713C11.9994 21.3865 11.3122 21.0679 10.6875 20.6162C10.0838 20.1646 9.5945 19.5487 9.21973 18.7686C8.84492 17.9883 8.65723 17.0024 8.65723 15.8115V6.20215H12.124V15.165ZM66.9316 5.86035C68.66 5.86036 70.2012 6.1789 71.5547 6.81543C72.908 7.45188 73.9698 8.3757 74.7402 9.58691C75.5315 10.7778 75.9277 12.2156 75.9277 13.8994C75.9277 15.6037 75.5315 17.0512 74.7402 18.2422C73.9698 19.433 72.9081 20.3372 71.5547 20.9531C70.2013 21.5691 68.66 21.8769 66.9316 21.877C65.2037 21.8769 63.6525 21.569 62.2783 20.9531C60.904 20.3372 59.8206 19.433 59.0293 18.2422C58.2383 17.0512 57.8428 15.6035 57.8428 13.8994C57.8428 12.2156 58.2382 10.7778 59.0293 9.58691C59.8206 8.37553 60.9041 7.45194 62.2783 6.81543C63.6525 6.17899 65.2036 5.86039 66.9316 5.86035ZM3.4668 14.8467C3.4668 15.8118 3.6232 16.5716 3.93555 17.126C4.08678 17.3683 4.26408 17.579 4.4668 17.7578C4.95598 18.1894 5.64737 18.2656 6.30371 18.2656H6.76562V21.5615C6.01601 21.5615 4.86225 21.4583 4.0918 21.2529C3.34227 21.0682 2.65488 20.7504 2.03027 20.2988C1.4264 19.8471 0.937316 19.2305 0.5625 18.4502C0.187685 17.6699 0 16.6842 0 15.4932V0H3.4668V14.8467ZM49.875 5.86035C50.7911 5.86035 51.6245 5.98407 52.374 6.23047C53.1234 6.47687 53.7693 6.85687 54.3105 7.37012C54.8725 7.86286 55.3098 8.47875 55.6221 9.21777C55.9344 9.95698 56.0908 10.8299 56.0908 11.8359V21.5381H52.5928V12.5137C52.5928 11.2611 52.28 10.3367 51.6553 9.74121C51.0516 9.12534 50.0938 8.81746 48.7822 8.81738C47.7828 8.81738 46.8661 9.03275 46.0332 9.46387C45.2212 9.87453 44.5546 10.4191 44.0342 11.0967C43.8906 11.2855 43.7655 11.481 43.6562 11.6816C43.6571 11.7327 43.6592 11.7842 43.6592 11.8359V21.5381H40.1924V12.5137C40.1924 11.2611 39.8795 10.3367 39.2549 9.74121C38.651 9.12543 37.6934 8.81743 36.3818 8.81738C35.3825 8.81738 34.4657 9.03267 33.6328 9.46387C32.8207 9.87453 32.1544 10.4191 31.6338 11.0967C31.3091 11.5065 31.0696 11.9444 30.915 12.4102V21.5381H27.4482V6.19922H30.915V10.6201C31.0341 10.2225 31.189 9.83659 31.3838 9.46387C31.7377 8.76578 32.207 8.15005 32.79 7.61621C33.373 7.06189 34.0604 6.63023 34.8516 6.32227C35.6427 6.01441 36.5171 5.86037 37.4746 5.86035C38.37 5.86036 39.1926 5.98407 39.9424 6.23047C40.7128 6.47687 41.3687 6.85681 41.9102 7.37012C42.4722 7.86288 42.8989 8.47868 43.1904 9.21777C43.3109 9.50284 43.4074 9.80804 43.4814 10.1328C43.5773 9.89625 43.6885 9.6631 43.8154 9.43359C44.1902 8.73546 44.6689 8.11883 45.252 7.58496C45.835 7.05113 46.5119 6.63025 47.2822 6.32227C48.0735 6.01427 48.9379 5.86035 49.875 5.86035ZM66.9316 8.63281C65.9115 8.63286 64.9851 8.8384 64.1523 9.24902C63.3194 9.65969 62.6425 10.2548 62.1221 11.0352C61.6223 11.8154 61.3721 12.7701 61.3721 13.8994C61.3721 15.0082 61.6223 15.9531 62.1221 16.7334C62.6218 17.5135 63.2884 18.0982 64.1211 18.4883C64.9747 18.8784 65.9115 19.0742 66.9316 19.0742C67.9312 19.0742 68.8478 18.8784 69.6807 18.4883C70.5135 18.0982 71.1696 17.5135 71.6484 16.7334C72.1482 15.9531 72.3984 15.0082 72.3984 13.8994C72.3984 12.7906 72.1482 11.8457 71.6484 11.0654C71.1695 10.2854 70.5136 9.68993 69.6807 9.2793C68.8685 8.84811 67.952 8.63282 66.9316 8.63281Z"
        fill="#372580"
    />
</svg>
