<svg width="204" height="140" viewBox="0 0 204 140" fill="none" xmlns="http://www.w3.org/2000/svg">
    <g clip-path="url(#clip0_9518_42238)">
        <path
            d="M33.8468 133.621H142.594C147.214 133.621 150.66 129.366 149.697 124.843L133.468 48.6273C132.752 45.2738 129.791 42.875 126.365 42.875H17.6174C12.9978 42.875 9.55127 47.1306 10.514 51.6531L26.7434 127.869C27.4594 131.222 30.4205 133.621 33.8468 133.621Z"
            fill="#E4E4E4"
            stroke="#2E2E2E"
            stroke-width="0.606781"
            stroke-miterlimit="10"
        />
        <path
            d="M38.421 133.621H147.168C151.788 133.621 155.234 129.366 154.272 124.843L138.042 48.6273C137.326 45.2738 134.365 42.875 130.939 42.875H22.1916C17.572 42.875 14.1255 47.1306 15.0883 51.6531L31.3176 127.869C32.0336 131.222 34.9947 133.621 38.421 133.621Z"
            fill="white"
            stroke="#2E2E2E"
            stroke-width="0.606781"
            stroke-miterlimit="10"
        />
        <path
            d="M147.169 129.575C148.503 129.575 149.308 128.827 149.673 128.382C150.033 127.937 150.599 126.995 150.32 125.688L134.09 49.4723C133.775 47.9958 132.452 46.9238 130.943 46.9238H22.2C20.8651 46.9238 20.06 47.6722 19.696 48.1172C19.336 48.5621 18.7696 49.5047 19.0488 50.8113L35.2781 127.027C35.5936 128.504 36.9164 129.575 38.4253 129.575H147.169Z"
            fill="#E4E4E4"
        />
        <path
            d="M147.169 129.575C148.503 129.575 149.308 128.827 149.673 128.382C150.033 127.937 150.599 126.995 150.32 125.688L134.09 49.4723C133.775 47.9958 132.452 46.9238 130.943 46.9238H22.2C20.8651 46.9238 20.06 47.6722 19.696 48.1172C19.336 48.5621 18.7696 49.5047 19.0488 50.8113L35.2781 127.027C35.5936 128.504 36.9164 129.575 38.4253 129.575H147.169Z"
            fill="#E4E4E4"
            stroke="#2E2E2E"
            stroke-width="0.606781"
            stroke-miterlimit="10"
        />
        <path
            d="M34.1535 57.4844H128.192C130.46 57.4844 132.298 59.3226 132.298 61.5903C132.298 63.8579 130.46 65.6961 128.192 65.6961H34.1535C31.8859 65.6961 30.0477 63.8579 30.0477 61.5903C30.0477 59.3226 31.8859 57.4844 34.1535 57.4844Z"
            fill="white"
        />
        <path
            d="M37.5471 73.416H131.586C133.854 73.416 135.692 75.2543 135.692 77.5219C135.692 79.7895 133.854 81.6278 131.586 81.6278H37.5471C35.2795 81.6278 33.4412 79.7895 33.4412 77.5219C33.4412 75.2543 35.2795 73.416 37.5471 73.416Z"
            fill="white"
        />
        <path
            d="M40.9372 89.3555H134.976C137.244 89.3555 139.082 91.1937 139.082 93.4614C139.082 95.729 137.244 97.5672 134.976 97.5672H40.9372C38.6696 97.5672 36.8314 95.729 36.8314 93.4614C36.8314 91.1937 38.6696 89.3555 40.9372 89.3555Z"
            fill="white"
        />
        <path
            d="M80.6488 121.032C80.6488 121.032 58.5741 121.854 47.7815 118.67C38.1458 115.83 33.0165 106.611 33.4291 97.4367C33.8458 88.2622 32.2884 80.2162 26.1316 78.4889C19.9748 76.7616 16.4271 81.8788 16.4271 81.8788C16.4271 81.8788 1.78751 99.9285 26.1316 123.318C32.4866 129.426 44.2541 132.759 58.4568 133.484L71.4743 133.467C75.9887 129.414 79.1157 125.264 81.1707 121.15L80.6488 121.036V121.032Z"
            fill="#6D4AFF"
        />
        <mask
            id="mask0_9518_42238"
            style="mask-type: luminance"
            maskUnits="userSpaceOnUse"
            x="12"
            y="78"
            width="70"
            height="56"
        >
            <path
                d="M80.6461 121.032C80.6461 121.032 58.5714 121.854 47.7788 118.67C38.1431 115.83 33.0138 106.611 33.4264 97.4367C33.8431 88.2622 32.2857 80.2162 26.1289 78.4889C19.9721 76.7616 16.4244 81.8788 16.4244 81.8788C16.4244 81.8788 1.78483 99.9285 26.1289 123.318C32.4839 129.426 44.2514 132.759 58.4541 133.484L71.4716 133.467C75.9861 129.414 79.113 125.264 81.168 121.15L80.6461 121.036V121.032Z"
                fill="white"
            />
        </mask>
        <g mask="url(#mask0_9518_42238)">
            <path
                d="M46.065 57.6758C31.2029 57.6758 23.064 47.8945 23.064 47.8945C23.064 47.8945 14.925 57.6758 0.0629425 57.6758C0.0629425 57.6758 -2.41272 86.6395 23.064 102.21C48.5448 86.6395 46.065 57.6758 46.065 57.6758Z"
                fill="#4129A3"
            />
        </g>
        <path
            d="M47.7806 118.674C38.1449 115.834 33.0156 106.615 33.4282 97.4406C33.8449 88.2661 32.2875 80.2202 26.1307 78.4929C19.9739 76.7655 16.4262 81.8827 16.4262 81.8827C16.4262 81.8827 1.78662 99.9324 26.1307 123.322C32.4857 129.43 44.2532 132.763 58.4559 133.487L71.4734 133.471"
            stroke="white"
            stroke-width="1.41582"
            stroke-miterlimit="10"
        />
        <path
            d="M68.7927 121.062C61.8067 120.585 54.6952 120.063 47.9801 117.996L47.5797 119.355C54.5253 121.002 61.7015 121.054 68.7927 121.062Z"
            fill="white"
        />
        <path
            d="M133.269 133.484C128.884 123.775 126.53 110.199 131.372 94.3462L182.682 91.7168C182.682 91.7168 197.305 110.434 183.45 133.484H133.269Z"
            fill="#6D4AFF"
        />
        <path
            d="M133.14 68.8818C133.14 68.8818 129.038 68.9101 124.268 64.9296C119.499 60.9491 84.678 43.4576 63.9827 75.1761C63.9827 75.1761 51.5477 80.8111 47.5187 100.774C45.5244 110.665 47.5956 129.572 60.164 133.468L169.66 133.621"
            fill="#6D4AFF"
        />
        <path
            d="M136.518 89.1924C136.518 89.1924 143.54 101.025 156.521 101.025H170.801C170.801 101.025 181.97 99.4753 186.375 90.147C190.78 80.8188 136.518 89.1924 136.518 89.1924Z"
            fill="#4129A3"
        />
        <path
            d="M150.474 40.5259L141.7 34.8909C138.658 32.9371 134.621 34.8222 134.159 38.4062L132.036 54.943L150.478 40.5259H150.474Z"
            fill="#6D4AFF"
        />
        <path
            d="M174.291 40.5259L183.065 34.8909C186.107 32.9371 190.145 34.8222 190.606 38.4062L192.729 54.943L174.287 40.5259H174.291Z"
            fill="#6D4AFF"
        />
        <path
            d="M185.49 41.5362L181.23 44.2748L188.176 48.943L187.334 42.3938C187.221 41.516 186.234 41.0589 185.494 41.5362H185.49Z"
            fill="#4A2DC5"
        />
        <path
            d="M139.936 41.5362L144.195 44.2748L137.25 48.943L138.091 42.3938C138.204 41.516 139.191 41.0589 139.932 41.5362H139.936Z"
            fill="#4A2DC5"
        />
        <path
            d="M125.979 72.2731C125.979 89.1497 146.007 95.165 162.714 95.165C177.398 95.165 199.448 89.1497 199.448 72.2731C199.448 55.3965 182.997 38.3379 162.71 38.3379C142.423 38.3379 125.975 55.3965 125.975 72.2731H125.979Z"
            fill="#6D4AFF"
        />
        <path
            d="M139.05 34.1053C136.7 34.1053 134.491 35.8083 134.156 38.4053L132.113 54.3151C129.415 58.0974 127.497 62.2923 126.587 66.6045C125.843 66.1433 125.07 65.5932 124.273 64.9297C121.664 62.7534 110.07 56.5359 96.7092 56.5359C85.6415 56.5359 73.3643 60.8077 63.9875 75.1763C63.9875 75.1763 51.5525 80.8112 47.5235 100.774C45.5292 110.665 47.6003 129.572 60.1688 133.468L169.664 133.621L169.588 133.484H183.451C194.583 114.961 187.33 99.2371 184.049 93.7761C184.931 92.7203 185.728 91.5229 186.375 90.1516C193.826 86.5433 199.445 80.7951 199.445 72.2758C199.445 65.6053 196.873 58.9024 192.512 53.2391L190.606 38.4053C190.275 35.8083 188.062 34.1053 185.712 34.1053C184.818 34.1053 183.904 34.352 183.066 34.89L174.583 40.3349C170.858 39.0526 166.865 38.3366 162.711 38.3366C158.556 38.3366 154.256 39.1092 150.413 40.4886L141.696 34.8941C140.859 34.3561 139.944 34.1093 139.05 34.1093M139.05 32.6895C140.252 32.6895 141.433 33.0373 142.46 33.7008L150.599 38.9231C154.535 37.5922 158.605 36.9207 162.711 36.9207C166.817 36.9207 170.591 37.5437 174.389 38.7775L182.302 33.7008C183.329 33.0373 184.51 32.6895 185.712 32.6895C188.895 32.6895 191.602 35.068 192.01 38.2233L193.867 52.6809C198.377 58.6637 200.861 65.6053 200.861 72.2718C200.861 80.2773 196.221 86.8143 187.435 91.2074C186.958 92.1459 186.399 93.0439 185.756 93.8975C187.391 96.806 189.769 101.984 190.558 108.561C191.61 117.323 189.628 125.952 184.66 134.212L184.247 134.9H172.007L172.088 135.041H169.66L60.1647 134.888H59.9504L59.7481 134.823C53.6965 132.95 49.2953 127.74 47.0219 119.763C44.9588 112.534 45.2137 105.074 46.136 100.499C47.3212 94.6297 50.0315 86.2278 56.2288 79.5329C59.2869 76.228 62.0215 74.6099 63.0166 74.0881C67.4583 67.3811 72.8586 62.3772 79.0761 59.2098C84.3996 56.4995 90.3339 55.1242 96.7132 55.1242C104.16 55.1242 110.778 57.0133 115.022 58.595C119.852 60.3991 123.606 62.5309 125.183 63.8456C125.357 63.9913 125.535 64.1328 125.713 64.2704C126.745 60.6499 128.468 57.0659 130.758 53.7893L132.756 38.2273C133.156 35.068 135.867 32.6895 139.05 32.6895Z"
            fill="white"
        />
        <path
            d="M144.704 77.7738C138.63 75.154 135.591 68.6599 137.916 63.2687C140.241 57.8775 147.05 55.6308 153.125 58.2506C159.199 60.8704 162.238 67.3646 159.913 72.7558C157.588 78.147 150.779 80.3936 144.704 77.7738Z"
            fill="white"
        />
        <path
            d="M172.063 72.7548C169.737 67.3636 172.777 60.8694 178.851 58.2496C184.925 55.6298 191.735 57.8765 194.06 63.2677C196.385 68.6589 193.346 75.1531 187.271 77.7728C181.197 80.3926 174.388 78.146 172.063 72.7548Z"
            fill="white"
        />
        <path
            d="M151.978 72.7652C149.764 72.7652 147.969 69.8403 147.969 66.2322C147.969 62.6241 149.764 59.6992 151.978 59.6992C154.192 59.6992 155.987 62.6241 155.987 66.2322C155.987 69.8403 154.192 72.7652 151.978 72.7652Z"
            fill="#4129A3"
        />
        <path
            d="M171.702 66.058C175.04 57.9474 187.248 54.8487 192.737 62.3162C194.449 64.6867 194.865 67.753 194.202 70.6291C196.536 66.2522 194.772 60.6293 190.569 58.0728C183.704 53.5866 173.066 57.915 171.702 66.0621V66.058Z"
            fill="#372480"
        />
        <path
            d="M160.271 66.0583C158.908 57.9113 148.269 53.587 141.404 58.0691C137.201 60.6256 135.437 66.2525 137.771 70.6254C137.104 67.7533 137.525 64.683 139.236 62.3125C144.725 54.845 156.933 57.9437 160.271 66.0543V66.0583Z"
            fill="#372480"
        />
        <path
            d="M169.663 77.5234C168.32 77.5234 167.236 78.6116 167.236 79.9506"
            stroke="white"
            stroke-width="1.0113"
            stroke-miterlimit="10"
            stroke-linecap="round"
        />
        <path
            d="M164.806 77.5234C166.149 77.5234 167.233 78.6116 167.233 79.9506"
            stroke="white"
            stroke-width="1.0113"
            stroke-miterlimit="10"
            stroke-linecap="round"
        />
        <path
            opacity="0.7"
            d="M149.533 63.477C148.697 63.477 148.02 62.7996 148.02 61.9641C148.02 61.1285 148.697 60.4512 149.533 60.4512C150.368 60.4512 151.045 61.1285 151.045 61.9641C151.045 62.7996 150.368 63.477 149.533 63.477Z"
            fill="white"
        />
        <path
            d="M185.732 72.7652C183.518 72.7652 181.723 69.8403 181.723 66.2322C181.723 62.6241 183.518 59.6992 185.732 59.6992C187.946 59.6992 189.74 62.6241 189.74 66.2322C189.74 69.8403 187.946 72.7652 185.732 72.7652Z"
            fill="#4129A3"
        />
        <path
            opacity="0.7"
            d="M183.288 63.477C182.452 63.477 181.775 62.7996 181.775 61.9641C181.775 61.1285 182.452 60.4512 183.288 60.4512C184.123 60.4512 184.801 61.1285 184.801 61.9641C184.801 62.7996 184.123 63.477 183.288 63.477Z"
            fill="white"
        />
        <path
            d="M161.484 111.005C157.11 111.005 153.564 107.459 153.564 103.085C153.564 98.7102 157.11 95.1641 161.484 95.1641C165.858 95.1641 169.405 98.7102 169.405 103.085C169.405 107.459 165.858 111.005 161.484 111.005Z"
            fill="#FC8F00"
        />
        <path d="M164.437 111.006H161.403V95.1689H164.437V111.006Z" fill="#FC8F00" />
        <path
            d="M164.437 111.005C160.063 111.005 156.517 107.459 156.517 103.085C156.517 98.7102 160.063 95.1641 164.437 95.1641C168.812 95.1641 172.358 98.7102 172.358 103.085C172.358 107.459 168.812 111.005 164.437 111.005Z"
            fill="#FFAC2E"
        />
        <path
            d="M164.437 104.388C163.077 104.388 161.974 103.285 161.974 101.924C161.974 100.564 163.077 99.4609 164.437 99.4609C165.798 99.4609 166.901 100.564 166.901 101.924C166.901 103.285 165.798 104.388 164.437 104.388Z"
            fill="#372580"
        />
        <path
            d="M164.436 105.779V101.924"
            stroke="#372580"
            stroke-width="2.28959"
            stroke-miterlimit="10"
            stroke-linecap="round"
        />
        <path
            d="M161.484 111.005C157.109 111.005 153.563 107.459 153.563 103.085C153.563 98.7102 157.109 95.1641 161.484 95.1641C165.858 95.1641 169.404 98.7102 169.404 103.085C169.404 107.459 165.858 111.005 161.484 111.005Z"
            fill="#FC8F00"
        />
        <path d="M164.437 111.006H161.403V95.1689H164.437V111.006Z" fill="#FC8F00" />
        <path
            d="M164.437 111.005C160.063 111.005 156.517 107.459 156.517 103.085C156.517 98.7102 160.063 95.1641 164.437 95.1641C168.812 95.1641 172.358 98.7102 172.358 103.085C172.358 107.459 168.812 111.005 164.437 111.005Z"
            fill="#FFAC2E"
        />
        <path
            d="M164.437 104.388C163.077 104.388 161.974 103.285 161.974 101.924C161.974 100.564 163.077 99.4609 164.437 99.4609C165.798 99.4609 166.901 100.564 166.901 101.924C166.901 103.285 165.798 104.388 164.437 104.388Z"
            fill="#372580"
        />
        <path
            d="M164.436 105.779V101.924"
            stroke="#372580"
            stroke-width="2.28959"
            stroke-miterlimit="10"
            stroke-linecap="round"
        />
        <path
            d="M169.664 77.5234C168.321 77.5234 167.237 78.6116 167.237 79.9506"
            stroke="white"
            stroke-width="1.0113"
            stroke-miterlimit="10"
            stroke-linecap="round"
        />
        <path
            d="M164.806 77.5234C166.149 77.5234 167.233 78.6116 167.233 79.9506"
            stroke="white"
            stroke-width="1.0113"
            stroke-miterlimit="10"
            stroke-linecap="round"
        />
        <path
            d="M125.382 65.4746C125.163 69.5481 125.665 73.5933 126.696 77.5212C126.413 75.5431 126.272 73.5488 126.288 71.5505C126.304 69.5967 126.442 67.5741 126.785 65.6728L125.382 65.4746Z"
            fill="white"
        />
        <path
            d="M61.8595 76.3133C62.8344 75.747 64.1005 75.5649 65.221 75.5609C67.4945 75.569 69.7921 76.3578 71.8269 77.3448C74.6787 78.7849 77.2879 80.8035 79.6746 82.9191L77.8259 81.1069C75.2855 78.7647 72.4215 76.5884 69.1773 75.3263C66.6369 74.3757 63.6313 73.87 61.0949 75.12L61.8595 76.3093V76.3133Z"
            fill="white"
        />
        <path
            d="M196.941 139.713H39.6065C36.4269 139.713 33.8461 137.132 33.8461 133.953V133.617H187.839H203.037C203.037 136.983 200.306 139.713 196.941 139.713Z"
            fill="white"
            stroke="#2E2E2E"
            stroke-width="0.574419"
            stroke-miterlimit="10"
        />
    </g>
    <path
        fill-rule="evenodd"
        clip-rule="evenodd"
        d="M29.7606 4.05893C30.2137 4.05893 30.6118 4.35927 30.7363 4.7949L31.8365 8.64573C32.3181 10.3312 33.6356 11.6488 35.3211 12.1303L39.172 13.2306C39.6076 13.355 39.9079 13.7532 39.9079 14.2063C39.9079 14.6593 39.6076 15.0575 39.172 15.1819L35.3211 16.2822C33.6356 16.7638 32.3181 18.0813 31.8365 19.7668L30.7363 23.6176C30.6118 24.0533 30.2137 24.3536 29.7606 24.3536C29.3076 24.3536 28.9094 24.0533 28.7849 23.6176L27.6847 19.7668C27.2031 18.0813 25.8856 16.7638 24.2001 16.2822L20.3492 15.1819C19.9136 15.0575 19.6133 14.6593 19.6133 14.2063C19.6133 13.7532 19.9136 13.355 20.3492 13.2306L24.2001 12.1303C25.8856 11.6488 27.2031 10.3312 27.6847 8.64572L28.7849 4.7949C28.9094 4.35927 29.3076 4.05893 29.7606 4.05893Z"
        fill="#FFB43B"
    />
    <path
        fill-rule="evenodd"
        clip-rule="evenodd"
        d="M41.9374 0C42.403 0 42.8089 0.316898 42.9218 0.768624L43.2721 2.16958C43.5902 3.44205 44.5837 4.4356 45.8562 4.75372L47.2572 5.10396C47.7089 5.21689 48.0258 5.62277 48.0258 6.0884C48.0258 6.55403 47.7089 6.9599 47.2572 7.07283L45.8562 7.42307C44.5837 7.74119 43.5902 8.73474 43.2721 10.0072L42.9218 11.4082C42.8089 11.8599 42.403 12.1768 41.9374 12.1768C41.4718 12.1768 41.0659 11.8599 40.953 11.4082L40.6027 10.0072C40.2846 8.73474 39.2911 7.74119 38.0186 7.42307L36.6176 7.07283C36.1659 6.9599 35.849 6.55403 35.849 6.0884C35.849 5.62277 36.1659 5.21689 36.6176 5.10396L38.0186 4.75372C39.2911 4.4356 40.2846 3.44205 40.6027 2.16958L40.953 0.768624C41.0659 0.316898 41.4718 0 41.9374 0Z"
        fill="#FFB43B"
    />
    <path
        fill-rule="evenodd"
        clip-rule="evenodd"
        d="M39.9079 18.2652C40.3447 18.2652 40.7325 18.5447 40.8706 18.959L41.404 20.5592C41.606 21.1653 42.0815 21.6408 42.6875 21.8428L44.2878 22.3762C44.7021 22.5143 44.9816 22.9021 44.9816 23.3389C44.9816 23.7756 44.7021 24.1634 44.2878 24.3015L42.6875 24.8349C42.0815 25.0369 41.606 25.5125 41.404 26.1185L40.8706 27.7187C40.7325 28.133 40.3447 28.4125 39.9079 28.4125C39.4712 28.4125 39.0834 28.133 38.9453 27.7187L38.4119 26.1185C38.2099 25.5125 37.7343 25.0369 37.1283 24.8349L35.5281 24.3015C35.1138 24.1634 34.8343 23.7756 34.8343 23.3389C34.8343 22.9021 35.1138 22.5143 35.5281 22.3762L37.1283 21.8428C37.7343 21.6408 38.2099 21.1653 38.4119 20.5592L38.9453 18.959C39.0834 18.5447 39.4712 18.2652 39.9079 18.2652Z"
        fill="#FFB43B"
    />
    <defs>
        <clipPath id="clip0_9518_42238">
            <rect width="203.324" height="107.311" fill="white" transform="matrix(-1 0 0 1 203.324 32.6895)" />
        </clipPath>
    </defs>
</svg>
