<svg width="132" height="76" viewBox="0 0 132 76" fill="none" xmlns="http://www.w3.org/2000/svg">
    <rect width="132" height="76" rx="8" fill="white" />
    <g filter="url(#filter0_dd_14287_111200)">
        <path
            d="M12 25.7836C12 21.8724 15.1707 18.7017 19.082 18.7017H112.918C116.829 18.7017 120 21.8724 120 25.7836V50.2164C120 54.1277 116.829 57.2984 112.918 57.2984H19.082C15.1707 57.2984 12 54.1277 12 50.2164V25.7836Z"
            fill="#F8FAFC"
            shape-rendering="crispEdges"
        />
        <path
            d="M19.082 18.8784H112.918C116.731 18.8784 119.823 21.9702 119.823 25.7837V50.2163C119.823 54.0298 116.731 57.1216 112.918 57.1216H19.082C15.2686 57.1216 12.1768 54.0298 12.1768 50.2163V25.7837C12.1768 21.9702 15.2686 18.8784 19.082 18.8784Z"
            stroke="white"
            stroke-width="0.354098"
            shape-rendering="crispEdges"
        />
        <rect x="13.9477" y="20.6494" width="104.105" height="18.7672" rx="5.84262" fill="white" />
        <rect
            x="13.9477"
            y="20.6494"
            width="104.105"
            height="18.7672"
            rx="5.84262"
            stroke="#EAE7E4"
            stroke-width="0.354098"
        />
        <rect x="19.7903" y="26.033" width="0.354098" height="7.08197" fill="#6D4AFF" />
        <path
            d="M20.7288 31.033H20.271L21.5949 27.4276H22.0456L23.3694 31.033H22.9117L22.549 30.0119H21.0914L20.7288 31.033ZM21.2287 29.6246H22.4117L21.8343 27.998H21.8061L21.2287 29.6246ZM25.79 28.9345L25.4168 29.0401C25.3446 28.8535 25.195 28.6529 24.8323 28.6529C24.5014 28.6529 24.2549 28.8219 24.2549 29.0542C24.2549 29.262 24.3993 29.3694 24.7197 29.4486L25.121 29.5472C25.6034 29.6651 25.8393 29.9028 25.8393 30.2795C25.8393 30.746 25.4115 31.0893 24.783 31.0893C24.2303 31.0893 23.8518 30.8446 23.7549 30.3851L24.1493 30.2865C24.2232 30.577 24.4362 30.7231 24.776 30.7231C25.1633 30.7231 25.4097 30.533 25.4097 30.3006C25.4097 30.114 25.2812 29.9837 25.0084 29.9204L24.5577 29.8147C24.0612 29.6986 23.8394 29.4486 23.8394 29.0754C23.8394 28.6176 24.2619 28.2937 24.8323 28.2937C25.3675 28.2937 25.6597 28.5507 25.79 28.9345ZM26.4647 31.033V27.4276H26.8801V29.5331H26.9294L28.1124 28.3289H28.6265L27.484 29.4838L28.711 31.033H28.1829L27.1706 29.7514L26.8801 30.0207V31.033H26.4647ZM31.3512 31.0963C30.8372 31.0963 30.4287 30.7935 30.4287 30.2654C30.4287 29.6457 30.9762 29.5348 31.4779 29.4697C31.9709 29.4063 32.1751 29.4239 32.1751 29.2232V29.2092C32.1751 28.8623 31.9867 28.6599 31.6047 28.6599C31.2086 28.6599 30.9921 28.8711 30.9005 29.0683L30.5062 28.9275C30.7174 28.4346 31.1822 28.2937 31.5906 28.2937C31.9357 28.2937 32.5905 28.3923 32.5905 29.2514V31.033H32.1751V30.6668H32.154C32.0695 30.8428 31.823 31.0963 31.3512 31.0963ZM31.4146 30.7231C31.9075 30.7231 32.1751 30.3922 32.1751 30.0542V29.6739C32.1047 29.7584 31.6329 29.8077 31.4568 29.8288C31.1329 29.8711 30.8442 29.9697 30.8442 30.2865C30.8442 30.5752 31.0836 30.7231 31.4146 30.7231ZM33.7643 29.4063V31.033H33.3488V28.3289H33.7502V28.7514H33.7854C33.9122 28.4768 34.1657 28.2937 34.5741 28.2937C35.1216 28.2937 35.4895 28.6247 35.4895 29.3148V31.033H35.0741V29.3429C35.0741 28.9187 34.8399 28.6669 34.4544 28.6669C34.0565 28.6669 33.7643 28.9345 33.7643 29.4063ZM36.4195 32.047C36.2786 32.047 36.1589 32.0188 36.1167 31.9977L36.2223 31.6315C36.5251 31.709 36.7117 31.6702 36.8631 31.2583L36.9406 31.047L35.9406 28.3289H36.3913L37.1377 30.4837H37.1659L37.9123 28.3289H38.363L37.2152 31.4273C37.0585 31.848 36.7945 32.047 36.4195 32.047ZM40.0873 28.3289V28.681H39.5099V30.2584C39.5099 30.6105 39.686 30.6668 39.869 30.6668C39.9606 30.6668 40.0169 30.6527 40.0521 30.6457L40.1366 31.0189C40.0803 31.04 39.9817 31.0682 39.8268 31.0682C39.4747 31.0682 39.0945 30.8428 39.0945 30.371V28.681H38.686V28.3289H39.0945V27.6811H39.5099V28.3289H40.0873ZM41.1859 29.4063V31.033H40.7704V27.4276H41.1859V28.7514H41.2211C41.3478 28.4715 41.5908 28.2937 42.0168 28.2937C42.5696 28.2937 42.9392 28.6194 42.9392 29.3148V31.033H42.5238V29.3429C42.5238 28.9134 42.2879 28.6669 41.8971 28.6669C41.4869 28.6669 41.1859 28.9345 41.1859 29.4063ZM43.6993 31.033V28.3289H44.1148V31.033H43.6993ZM43.9106 27.8783C43.7486 27.8783 43.6148 27.7515 43.6148 27.5966C43.6148 27.4417 43.7486 27.3149 43.9106 27.3149C44.0725 27.3149 44.2063 27.4417 44.2063 27.5966C44.2063 27.7515 44.0725 27.8783 43.9106 27.8783ZM45.2912 29.4063V31.033H44.8757V28.3289H45.2771V28.7514H45.3123C45.4391 28.4768 45.6926 28.2937 46.101 28.2937C46.6485 28.2937 47.0164 28.6247 47.0164 29.3148V31.033H46.6009V29.3429C46.6009 28.9187 46.3668 28.6669 45.9813 28.6669C45.5834 28.6669 45.2912 28.9345 45.2912 29.4063ZM48.8671 32.1033C48.2632 32.1033 47.9305 31.8445 47.7615 31.5611L48.0925 31.3287C48.2034 31.4783 48.3759 31.7371 48.8671 31.7371C49.3036 31.7371 49.6205 31.5329 49.6205 31.0823V30.533H49.5853C49.4938 30.6809 49.3248 30.9907 48.7966 30.9907C48.1418 30.9907 47.6488 30.5119 47.6488 29.6669C47.6488 28.8359 48.1206 28.2937 48.8037 28.2937C49.3318 28.2937 49.5008 28.6176 49.5924 28.7585H49.6346V28.3289H50.036V31.1104C50.036 31.8075 49.5149 32.1033 48.8671 32.1033ZM48.853 30.6175C49.3529 30.6175 49.6276 30.2584 49.6276 29.6598C49.6276 29.0754 49.36 28.6669 48.853 28.6669C48.3248 28.6669 48.0643 29.1106 48.0643 29.6598C48.0643 30.2232 48.3319 30.6175 48.853 30.6175Z"
            fill="#5C5958"
        />
        <path
            fill-rule="evenodd"
            clip-rule="evenodd"
            d="M23.4045 46.0715C23.0559 45.7356 22.488 45.7356 22.1394 46.0715L20.3994 47.7485C19.8627 48.2657 19.8627 49.1013 20.3994 49.6185C20.9402 50.1397 21.8197 50.1397 22.3605 49.6185L23.8917 48.1428C23.968 48.0693 24.0894 48.0716 24.1629 48.1479C24.2364 48.2242 24.2341 48.3457 24.1578 48.4192L22.6266 49.8949C21.9373 50.5592 20.8226 50.5592 20.1333 49.8949C19.4399 49.2267 19.4399 48.1403 20.1333 47.472L21.8733 45.7951C22.3704 45.316 23.1735 45.316 23.6706 45.7951C24.1718 46.2781 24.1718 47.0642 23.6706 47.5472L21.9306 49.2242C21.6257 49.518 21.1342 49.518 20.8293 49.2242C20.5203 48.9264 20.5203 48.4406 20.8293 48.1428L22.3605 46.6671C22.4368 46.5936 22.5582 46.5959 22.6317 46.6722C22.7052 46.7485 22.7029 46.87 22.6266 46.9435L21.0954 48.4192C20.9431 48.566 20.9431 48.8009 21.0954 48.9477C21.2518 49.0984 21.5081 49.0984 21.6645 48.9477L23.4045 47.2708C23.749 46.9388 23.749 46.4035 23.4045 46.0715Z"
            fill="#5C5958"
        />
        <path
            d="M30.3832 46.3092H30.8198V48.6963C30.8198 49.4357 30.267 49.9779 29.4185 49.9779C28.5699 49.9779 28.0172 49.4357 28.0172 48.6963V46.3092H28.4537V48.6611C28.4537 49.1893 28.8164 49.5695 29.4185 49.5695C30.0205 49.5695 30.3832 49.1893 30.3832 48.6611V46.3092ZM31.4866 50.9286V47.2105H31.8879V47.6401H31.9372C32.0288 47.4992 32.1907 47.1753 32.7189 47.1753C33.4019 47.1753 33.8737 47.7175 33.8737 48.5696C33.8737 49.4287 33.4019 49.9709 32.7259 49.9709C32.2048 49.9709 32.0288 49.647 31.9372 49.4991H31.902V50.9286H31.4866ZM31.895 48.5625C31.895 49.1752 32.1696 49.5977 32.6696 49.5977C33.1907 49.5977 33.4582 49.14 33.4582 48.5625C33.4582 47.9922 33.1977 47.5485 32.6696 47.5485C32.1626 47.5485 31.895 47.957 31.895 48.5625ZM34.7742 46.3092V49.9146H34.3587V46.3092H34.7742ZM36.4849 49.9709C35.7526 49.9709 35.2597 49.4146 35.2597 48.5766C35.2597 47.7316 35.7526 47.1753 36.4849 47.1753C37.2173 47.1753 37.7102 47.7316 37.7102 48.5766C37.7102 49.4146 37.2173 49.9709 36.4849 49.9709ZM36.4849 49.5977C37.0412 49.5977 37.2947 49.1188 37.2947 48.5766C37.2947 48.0344 37.0412 47.5485 36.4849 47.5485C35.9286 47.5485 35.6751 48.0344 35.6751 48.5766C35.6751 49.1188 35.9286 49.5977 36.4849 49.5977ZM38.9914 49.9779C38.4773 49.9779 38.0689 49.6751 38.0689 49.147C38.0689 48.5273 38.6164 48.4164 39.1181 48.3513C39.6111 48.2879 39.8153 48.3055 39.8153 48.1048V48.0907C39.8153 47.7439 39.6269 47.5415 39.2449 47.5415C38.8488 47.5415 38.6323 47.7527 38.5407 47.9499L38.1464 47.8091C38.3576 47.3162 38.8224 47.1753 39.2308 47.1753C39.5759 47.1753 40.2307 47.2739 40.2307 48.133V49.9146H39.8153V49.5484H39.7941C39.7096 49.7244 39.4632 49.9779 38.9914 49.9779ZM39.0548 49.6047C39.5477 49.6047 39.8153 49.2738 39.8153 48.9358V48.5555C39.7449 48.64 39.2731 48.6893 39.097 48.7104C38.7731 48.7527 38.4844 48.8512 38.4844 49.1681C38.4844 49.4568 38.7238 49.6047 39.0548 49.6047ZM41.8614 49.9709C41.1854 49.9709 40.7136 49.4287 40.7136 48.5696C40.7136 47.7175 41.1854 47.1753 41.8684 47.1753C42.3965 47.1753 42.5585 47.4992 42.65 47.6401H42.6853V46.3092H43.1007V49.9146H42.6993V49.4991H42.65C42.5585 49.647 42.3825 49.9709 41.8614 49.9709ZM41.9177 49.5977C42.4177 49.5977 42.6923 49.1752 42.6923 48.5625C42.6923 47.957 42.4247 47.5485 41.9177 47.5485C41.3896 47.5485 41.129 47.9922 41.129 48.5625C41.129 49.14 41.3966 49.5977 41.9177 49.5977Z"
            fill="#5C5958"
        />
        <path
            fill-rule="evenodd"
            clip-rule="evenodd"
            d="M53.1841 45.8125C53.2272 45.8062 53.2708 45.8011 53.3148 45.7974L53.3148 47.7379L52.2614 47.7399C52.3051 47.0367 52.6126 46.3457 53.1841 45.8125ZM51.9067 47.7405C51.9398 47.137 52.1453 46.5406 52.5233 46.0247C51.8872 46.3526 51.438 46.9922 51.3776 47.7416L51.9067 47.7405ZM51.3783 48.0957L51.9071 48.0946C51.9413 48.6961 52.1468 49.2903 52.5237 49.8044C51.8897 49.4778 51.4413 48.8416 51.3783 48.0957ZM52.2618 48.094L53.3148 48.092L53.3148 50.0315C53.271 50.0278 53.2275 50.0228 53.1844 50.0165C52.6141 49.4846 52.3066 48.7954 52.2618 48.094ZM53.6689 48.0913L53.6689 50.0321C53.7188 50.028 53.7682 50.0223 53.8171 50.0149C54.3874 49.4819 54.6945 48.7916 54.7381 48.0892L53.6689 48.0913ZM55.0928 48.0886C55.0599 48.6891 54.8561 49.2826 54.4816 49.7968C55.11 49.4668 55.553 48.8312 55.6129 48.0876L55.0928 48.0886ZM55.6123 47.7335L55.0925 47.7345C55.0585 47.1359 54.8549 46.5446 54.4815 46.0322C55.1078 46.361 55.5498 46.9932 55.6123 47.7335ZM54.7378 47.7351L53.6689 47.7372L53.6689 45.7969C53.7188 45.8009 53.7682 45.8067 53.817 45.8141C54.3862 46.3458 54.6931 47.0343 54.7378 47.7351ZM53.0255 45.4803L53.0247 45.4794L53.0232 45.4807C51.88 45.7012 51.0166 46.707 51.0166 47.9145C51.0166 49.1221 51.8802 50.128 53.0236 50.3483L53.0247 50.3493L53.0253 50.3487C53.1775 50.3779 53.3346 50.3932 53.4953 50.3932C53.6586 50.3932 53.8183 50.3774 53.9728 50.3472L53.9749 50.3495L53.9788 50.346C55.1163 50.1211 55.974 49.118 55.974 47.9145C55.974 46.711 55.1162 45.7078 53.9787 45.4829L53.9749 45.4795L53.9729 45.4818C53.8184 45.4516 53.6587 45.4358 53.4953 45.4358C53.3347 45.4358 53.1776 45.4511 53.0255 45.4803Z"
            fill="#5C5958"
        />
        <path
            d="M60.2524 49.9146L59.2665 46.3092H59.7101L60.4636 49.2456H60.4988L61.2664 46.3092H61.7593L62.5268 49.2456H62.562L63.3155 46.3092H63.7591L62.7733 49.9146H62.3226L61.5269 47.0415H61.4987L60.703 49.9146H60.2524ZM64.98 49.9709C64.1984 49.9709 63.7196 49.4146 63.7196 48.5837C63.7196 47.7527 64.2054 47.1753 64.9378 47.1753C65.5011 47.1753 66.0997 47.5204 66.0997 48.5273V48.7034H64.1368C64.1562 49.2826 64.4924 49.5977 64.98 49.5977C65.3057 49.5977 65.5504 49.4568 65.656 49.1752L66.0574 49.2878C65.9307 49.6963 65.5293 49.9709 64.98 49.9709ZM64.1368 48.3442H65.6772C65.6772 47.8865 65.3885 47.5485 64.9378 47.5485C64.4625 47.5485 64.165 47.9235 64.1368 48.3442ZM66.6393 49.9146V46.3092H67.0547V47.6401H67.0899C67.1815 47.4992 67.3434 47.1753 67.8716 47.1753C68.5546 47.1753 69.0264 47.7175 69.0264 48.5696C69.0264 49.4287 68.5546 49.9709 67.8786 49.9709C67.3575 49.9709 67.1815 49.647 67.0899 49.4991H67.0407V49.9146H66.6393ZM67.0477 48.5625C67.0477 49.1752 67.3223 49.5977 67.8223 49.5977C68.3434 49.5977 68.611 49.14 68.611 48.5625C68.611 47.9922 68.3504 47.5485 67.8223 47.5485C67.3153 47.5485 67.0477 47.957 67.0477 48.5625ZM72.6741 47.8161L72.3009 47.9217C72.2287 47.7351 72.0791 47.5344 71.7164 47.5344C71.3855 47.5344 71.139 47.7034 71.139 47.9358C71.139 48.1436 71.2834 48.2509 71.6038 48.3302L72.0051 48.4287C72.4875 48.5467 72.7234 48.7844 72.7234 49.1611C72.7234 49.6276 72.2956 49.9709 71.6671 49.9709C71.1144 49.9709 70.7359 49.7262 70.639 49.2667L71.0334 49.1681C71.1073 49.4586 71.3203 49.6047 71.6601 49.6047C72.0474 49.6047 72.2939 49.4146 72.2939 49.1822C72.2939 48.9956 72.1653 48.8653 71.8925 48.802L71.4418 48.6963C70.9454 48.5801 70.7235 48.3302 70.7235 47.957C70.7235 47.4992 71.1461 47.1753 71.7164 47.1753C72.2516 47.1753 72.5438 47.4323 72.6741 47.8161ZM74.3338 49.9709C73.5522 49.9709 73.0733 49.4146 73.0733 48.5837C73.0733 47.7527 73.5592 47.1753 74.2915 47.1753C74.8549 47.1753 75.4534 47.5204 75.4534 48.5273V48.7034H73.4905C73.5099 49.2826 73.8461 49.5977 74.3338 49.5977C74.6595 49.5977 74.9042 49.4568 75.0098 49.1752L75.4112 49.2878C75.2844 49.6963 74.883 49.9709 74.3338 49.9709ZM73.4905 48.3442H75.0309C75.0309 47.8865 74.7422 47.5485 74.2915 47.5485C73.8162 47.5485 73.5187 47.9235 73.4905 48.3442ZM76.7324 49.9779C76.2184 49.9779 75.8099 49.6751 75.8099 49.147C75.8099 48.5273 76.3574 48.4164 76.8592 48.3513C77.3521 48.2879 77.5563 48.3055 77.5563 48.1048V48.0907C77.5563 47.7439 77.3679 47.5415 76.9859 47.5415C76.5898 47.5415 76.3733 47.7527 76.2817 47.9499L75.8874 47.8091C76.0987 47.3162 76.5634 47.1753 76.9718 47.1753C77.3169 47.1753 77.9718 47.2739 77.9718 48.133V49.9146H77.5563V49.5484H77.5352C77.4507 49.7244 77.2042 49.9779 76.7324 49.9779ZM76.7958 49.6047C77.2887 49.6047 77.5563 49.2738 77.5563 48.9358V48.5555C77.4859 48.64 77.0141 48.6893 76.838 48.7104C76.5141 48.7527 76.2254 48.8512 76.2254 49.1681C76.2254 49.4568 76.4648 49.6047 76.7958 49.6047ZM78.5813 49.9146V47.2105H78.9827V47.6189H79.0109C79.1095 47.3514 79.3911 47.1683 79.7151 47.1683C79.7767 47.1683 79.8858 47.1718 79.9334 47.1753V47.5978C79.9052 47.5908 79.7908 47.5697 79.6799 47.5697C79.2855 47.5697 78.9968 47.8372 78.9968 48.2034V49.9146H78.5813ZM81.2933 49.9709C80.5328 49.9709 80.0681 49.3864 80.0681 48.5766C80.0681 47.7527 80.5539 47.1753 81.2863 47.1753C81.8567 47.1753 82.2862 47.5133 82.3566 48.0203H81.9412C81.8778 47.7739 81.6595 47.5485 81.2933 47.5485C80.8074 47.5485 80.4835 47.9499 80.4835 48.5625C80.4835 49.1893 80.8004 49.5977 81.2933 49.5977C81.6172 49.5977 81.8637 49.4216 81.9412 49.1259H82.3566C82.2862 49.6047 81.8919 49.9709 81.2933 49.9709ZM83.2307 48.2879V49.9146H82.8153V46.3092H83.2307V47.633H83.2659C83.3927 47.3531 83.6356 47.1753 84.0616 47.1753C84.6144 47.1753 84.9841 47.501 84.9841 48.1964V49.9146H84.5686V48.2245C84.5686 47.795 84.3327 47.5485 83.9419 47.5485C83.5317 47.5485 83.2307 47.8161 83.2307 48.2879Z"
            fill="#5C5958"
        />
    </g>
    <defs>
        <filter
            id="filter0_dd_14287_111200"
            x="3.50164"
            y="13.0361"
            width="124.997"
            height="55.5934"
            filterUnits="userSpaceOnUse"
            color-interpolation-filters="sRGB"
        >
            <feFlood flood-opacity="0" result="BackgroundImageFix" />
            <feColorMatrix
                in="SourceAlpha"
                type="matrix"
                values="0 0 0 0 0 0 0 0 0 0 0 0 0 0 0 0 0 0 127 0"
                result="hardAlpha"
            />
            <feOffset />
            <feGaussianBlur stdDeviation="0.177049" />
            <feComposite in2="hardAlpha" operator="out" />
            <feColorMatrix type="matrix" values="0 0 0 0 0 0 0 0 0 0 0 0 0 0 0 0 0 0 0.05 0" />
            <feBlend mode="normal" in2="BackgroundImageFix" result="effect1_dropShadow_14287_111200" />
            <feColorMatrix
                in="SourceAlpha"
                type="matrix"
                values="0 0 0 0 0 0 0 0 0 0 0 0 0 0 0 0 0 0 127 0"
                result="hardAlpha"
            />
            <feOffset dy="2.83279" />
            <feGaussianBlur stdDeviation="4.24918" />
            <feComposite in2="hardAlpha" operator="out" />
            <feColorMatrix type="matrix" values="0 0 0 0 0 0 0 0 0 0 0 0 0 0 0 0 0 0 0.16 0" />
            <feBlend mode="normal" in2="effect1_dropShadow_14287_111200" result="effect2_dropShadow_14287_111200" />
            <feBlend mode="normal" in="SourceGraphic" in2="effect2_dropShadow_14287_111200" result="shape" />
        </filter>
    </defs>
</svg>
