<svg width="417" height="348" viewBox="0 0 417 348" fill="none" xmlns="http://www.w3.org/2000/svg">
    <g clip-path="url(#clip0_4096_15171)">
        <rect width="417" height="348" fill="url(#paint0_linear_4096_15171)" />
        <g opacity="0.8" filter="url(#filter0_f_4096_15171)">
            <circle cx="429" cy="93" r="224" fill="#372580" fill-opacity="0.7" />
        </g>
        <g filter="url(#filter1_dd_4096_15171)">
            <path
                d="M68 80C68 73.3726 73.3726 68 80 68H580C586.627 68 592 73.3726 592 80V444C592 450.627 586.627 456 580 456H80C73.3726 456 68 450.627 68 444V80Z"
                fill="white"
                fill-opacity="0.05"
                shape-rendering="crispEdges"
            />
            <path
                d="M68.5 80C68.5 73.6487 73.6487 68.5 80 68.5H580C586.351 68.5 591.5 73.6487 591.5 80V444C591.5 450.351 586.351 455.5 580 455.5H80C73.6487 455.5 68.5 450.351 68.5 444V80Z"
                stroke="url(#paint1_linear_4096_15171)"
                shape-rendering="crispEdges"
            />
            <rect x="172" y="164" width="316" height="52" rx="26" fill="white" />
            <path
                d="M196.75 185.5C196.75 185.086 196.414 184.75 196 184.75C195.586 184.75 195.25 185.086 195.25 185.5V189.25H191.5C191.086 189.25 190.75 189.586 190.75 190C190.75 190.414 191.086 190.75 191.5 190.75H195.25V194.5C195.25 194.914 195.586 195.25 196 195.25C196.414 195.25 196.75 194.914 196.75 194.5V190.75H200.5C200.914 190.75 201.25 190.414 201.25 190C201.25 189.586 200.914 189.25 200.5 189.25H196.75V185.5Z"
                fill="#6D4AFF"
            />
            <path
                fill-rule="evenodd"
                clip-rule="evenodd"
                d="M196 178.75C189.787 178.75 184.75 183.787 184.75 190C184.75 196.213 189.787 201.25 196 201.25C202.213 201.25 207.25 196.213 207.25 190C207.25 183.787 202.213 178.75 196 178.75ZM186.25 190C186.25 184.615 190.615 180.25 196 180.25C201.385 180.25 205.75 184.615 205.75 190C205.75 195.385 201.385 199.75 196 199.75C190.615 199.75 186.25 195.385 186.25 190Z"
                fill="#6D4AFF"
            />
            <path
                d="M225.651 195H224.358L228.097 184.818H229.369L233.108 195H231.815L230.791 192.116H226.675L225.651 195ZM227.062 191.023H230.403L228.773 186.429H228.693L227.062 191.023ZM239.944 189.074L238.89 189.372C238.686 188.845 238.263 188.278 237.239 188.278C236.305 188.278 235.609 188.756 235.609 189.412C235.609 189.999 236.016 190.302 236.921 190.526L238.055 190.804C239.417 191.137 240.083 191.808 240.083 192.872C240.083 194.19 238.875 195.159 237.1 195.159C235.539 195.159 234.47 194.468 234.197 193.17L235.31 192.892C235.519 193.712 236.121 194.125 237.08 194.125C238.174 194.125 238.87 193.588 238.87 192.932C238.87 192.405 238.507 192.037 237.737 191.858L236.464 191.56C235.062 191.232 234.435 190.526 234.435 189.472C234.435 188.179 235.629 187.264 237.239 187.264C238.751 187.264 239.576 187.99 239.944 189.074ZM241.849 195V184.818H243.023V190.764H243.162L246.503 187.364H247.954L244.728 190.625L248.193 195H246.702L243.843 191.381L243.023 192.141V195H241.849ZM255.649 195.179C254.197 195.179 253.044 194.324 253.044 192.832C253.044 191.082 254.59 190.769 256.007 190.585C257.399 190.406 257.976 190.456 257.976 189.889V189.849C257.976 188.87 257.444 188.298 256.365 188.298C255.246 188.298 254.635 188.895 254.376 189.452L253.263 189.054C253.859 187.662 255.172 187.264 256.325 187.264C257.3 187.264 259.149 187.543 259.149 189.969V195H257.976V193.966H257.916C257.678 194.463 256.982 195.179 255.649 195.179ZM255.828 194.125C257.22 194.125 257.976 193.19 257.976 192.236V191.162C257.777 191.401 256.445 191.54 255.947 191.599C255.033 191.719 254.217 191.997 254.217 192.892C254.217 193.707 254.893 194.125 255.828 194.125ZM262.464 190.406V195H261.291V187.364H262.424V188.557H262.524C262.882 187.781 263.597 187.264 264.751 187.264C266.297 187.264 267.336 188.199 267.336 190.148V195H266.163V190.227C266.163 189.029 265.502 188.318 264.413 188.318C263.289 188.318 262.464 189.074 262.464 190.406ZM269.962 197.864C269.565 197.864 269.227 197.784 269.107 197.724L269.406 196.69C270.261 196.909 270.788 196.8 271.215 195.636L271.434 195.04L268.61 187.364H269.883L271.991 193.449H272.07L274.178 187.364H275.451L272.21 196.114C271.767 197.302 271.021 197.864 269.962 197.864ZM280.321 187.364V188.358H278.69V192.812C278.69 193.807 279.187 193.966 279.704 193.966C279.963 193.966 280.122 193.926 280.221 193.906L280.46 194.96C280.301 195.02 280.022 195.099 279.585 195.099C278.591 195.099 277.517 194.463 277.517 193.131V188.358H276.363V187.364H277.517V185.534H278.69V187.364H280.321ZM283.423 190.406V195H282.25V184.818H283.423V188.557H283.522C283.88 187.766 284.566 187.264 285.77 187.264C287.331 187.264 288.375 188.184 288.375 190.148V195H287.201V190.227C287.201 189.014 286.535 188.318 285.431 188.318C284.273 188.318 283.423 189.074 283.423 190.406ZM290.521 195V187.364H291.694V195H290.521ZM291.118 186.091C290.66 186.091 290.282 185.733 290.282 185.295C290.282 184.858 290.66 184.5 291.118 184.5C291.575 184.5 291.953 184.858 291.953 185.295C291.953 185.733 291.575 186.091 291.118 186.091ZM295.017 190.406V195H293.843V187.364H294.977V188.557H295.076C295.434 187.781 296.15 187.264 297.304 187.264C298.85 187.264 299.889 188.199 299.889 190.148V195H298.716V190.227C298.716 189.029 298.054 188.318 296.966 188.318C295.842 188.318 295.017 189.074 295.017 190.406ZM305.115 198.023C303.41 198.023 302.47 197.292 301.993 196.491L302.928 195.835C303.241 196.258 303.728 196.989 305.115 196.989C306.348 196.989 307.243 196.412 307.243 195.139V193.588H307.144C306.885 194.006 306.408 194.881 304.916 194.881C303.067 194.881 301.675 193.528 301.675 191.142C301.675 188.795 303.007 187.264 304.936 187.264C306.428 187.264 306.905 188.179 307.164 188.577H307.283V187.364H308.416V195.219C308.416 197.188 306.945 198.023 305.115 198.023ZM305.075 193.827C306.487 193.827 307.263 192.812 307.263 191.122C307.263 189.472 306.507 188.318 305.075 188.318C303.584 188.318 302.848 189.571 302.848 191.122C302.848 192.713 303.604 193.827 305.075 193.827ZM311.419 195.08C310.927 195.08 310.524 194.677 310.524 194.185C310.524 193.692 310.927 193.29 311.419 193.29C311.911 193.29 312.314 193.692 312.314 194.185C312.314 194.677 311.911 195.08 311.419 195.08ZM315.275 195.08C314.782 195.08 314.38 194.677 314.38 194.185C314.38 193.692 314.782 193.29 315.275 193.29C315.767 193.29 316.17 193.692 316.17 194.185C316.17 194.677 315.767 195.08 315.275 195.08ZM319.13 195.08C318.638 195.08 318.235 194.677 318.235 194.185C318.235 193.692 318.638 193.29 319.13 193.29C319.622 193.29 320.025 193.692 320.025 194.185C320.025 194.677 319.622 195.08 319.13 195.08Z"
                fill="#8F8D8A"
            />
            <g clip-path="url(#clip1_4096_15171)">
                <path
                    d="M89.233 101V90.8182H90.4659V95.3523H95.8949V90.8182H97.1278V101H95.8949V96.446H90.4659V101H89.233ZM102.639 101.159C100.431 101.159 99.0792 99.5881 99.0792 97.2415C99.0792 94.8949 100.451 93.2642 102.52 93.2642C104.11 93.2642 105.801 94.2386 105.801 97.0824V97.5795H100.257C100.312 99.2152 101.262 100.105 102.639 100.105C103.559 100.105 104.25 99.7074 104.548 98.9119L105.681 99.2301C105.324 100.384 104.19 101.159 102.639 101.159ZM100.257 96.5653H104.608C104.608 95.2727 103.792 94.3182 102.52 94.3182C101.177 94.3182 100.337 95.3771 100.257 96.5653ZM108.759 90.8182V101H107.586V90.8182H108.759ZM112.081 90.8182V101H110.908V90.8182H112.081ZM117.332 101.159C115.264 101.159 113.872 99.5881 113.872 97.2216C113.872 94.8352 115.264 93.2642 117.332 93.2642C119.401 93.2642 120.793 94.8352 120.793 97.2216C120.793 99.5881 119.401 101.159 117.332 101.159ZM117.332 100.105C118.903 100.105 119.619 98.7528 119.619 97.2216C119.619 95.6903 118.903 94.3182 117.332 94.3182C115.761 94.3182 115.045 95.6903 115.045 97.2216C115.045 98.7528 115.761 100.105 117.332 100.105ZM126.68 101V90.8182H127.913V99.9062H132.646V101H126.68ZM139.209 97.8778V93.3636H140.382V101H139.209V99.7074H139.129C138.771 100.483 138.015 101.099 136.862 101.099C135.43 101.099 134.396 100.165 134.396 98.2159V93.3636H135.569V98.1364C135.569 99.25 136.265 99.9659 137.24 99.9659C138.115 99.9659 139.209 99.3097 139.209 97.8778ZM142.531 101V93.3636H143.664V94.5568H143.764C144.082 93.7415 144.818 93.2642 145.812 93.2642C146.816 93.2642 147.483 93.7415 147.86 94.5568H147.94C148.333 93.7663 149.133 93.2642 150.227 93.2642C151.589 93.2642 152.554 94.0945 152.554 95.8892V101H151.38V95.8892C151.38 94.7607 150.664 94.3182 149.829 94.3182C148.755 94.3182 148.139 95.044 148.139 96.0284V101H146.946V95.7699C146.946 94.8999 146.324 94.3182 145.434 94.3182C144.52 94.3182 143.704 95.1087 143.704 96.2273V101H142.531ZM157.801 101.159C155.733 101.159 154.341 99.5881 154.341 97.2216C154.341 94.8352 155.733 93.2642 157.801 93.2642C159.869 93.2642 161.261 94.8352 161.261 97.2216C161.261 99.5881 159.869 101.159 157.801 101.159ZM157.801 100.105C159.372 100.105 160.088 98.7528 160.088 97.2216C160.088 95.6903 159.372 94.3182 157.801 94.3182C156.23 94.3182 155.514 95.6903 155.514 97.2216C155.514 98.7528 156.23 100.105 157.801 100.105Z"
                    fill="white"
                />
            </g>
            <path
                d="M189.502 89.7877C189.717 89.4041 190.283 89.4041 190.498 89.7877L192.347 93.0836C192.429 93.2292 192.573 93.3314 192.741 93.3619L196.536 94.0529C196.978 94.1333 197.153 94.6572 196.844 94.9747L194.192 97.7027C194.075 97.8232 194.019 97.9886 194.041 98.153L194.538 101.876C194.596 102.309 194.138 102.633 193.732 102.446L190.243 100.836C190.089 100.765 189.911 100.765 189.757 100.836L186.268 102.446C185.862 102.633 185.404 102.309 185.462 101.876L185.959 98.153C185.981 97.9886 185.925 97.8232 185.808 97.7027L183.156 94.9747C182.847 94.6572 183.022 94.1333 183.464 94.0529L187.259 93.3619C187.427 93.3314 187.571 93.2292 187.653 93.0836L189.502 89.7877Z"
                fill="#FFB84D"
            />
            <path
                d="M222 96C222 96.5523 221.552 97 221 97C220.448 97 220 96.5523 220 96C220 95.4477 220.448 95 221 95C221.552 95 222 95.4477 222 96Z"
                fill="white"
            />
            <path
                d="M227 96C227 96.5523 226.552 97 226 97C225.448 97 225 96.5523 225 96C225 95.4477 225.448 95 226 95C226.552 95 227 95.4477 227 96Z"
                fill="white"
            />
            <path
                d="M232 96C232 96.5523 231.552 97 231 97C230.448 97 230 96.5523 230 96C230 95.4477 230.448 95 231 95C231.552 95 232 95.4477 232 96Z"
                fill="white"
            />
            <path
                fill-rule="evenodd"
                clip-rule="evenodd"
                d="M368 93H368.2H373.8H374C374 91.3431 372.657 90 371 90C369.343 90 368 91.3431 368 93ZM367 93V93.0192C366.608 93.0431 366.33 93.097 366.092 93.218C365.716 93.4097 365.41 93.7157 365.218 94.092C365 94.5198 365 95.0799 365 96.2V99.8C365 100.92 365 101.48 365.218 101.908C365.41 102.284 365.716 102.59 366.092 102.782C366.52 103 367.08 103 368.2 103H373.8C374.92 103 375.48 103 375.908 102.782C376.284 102.59 376.59 102.284 376.782 101.908C377 101.48 377 100.92 377 99.8V96.2C377 95.0799 377 94.5198 376.782 94.092C376.59 93.7157 376.284 93.4097 375.908 93.218C375.67 93.097 375.392 93.0431 375 93.0192V93C375 90.7909 373.209 89 371 89C368.791 89 367 90.7909 367 93ZM366.968 94.0239C367.251 94.0008 367.623 94 368.2 94H373.8C374.377 94 374.749 94.0008 375.032 94.0239C375.304 94.0461 375.405 94.0838 375.454 94.109C375.642 94.2049 375.795 94.3578 375.891 94.546C375.916 94.5955 375.954 94.6962 375.976 94.9678C375.999 95.2512 376 95.6234 376 96.2V99.8C376 100.377 375.999 100.749 375.976 101.032C375.954 101.304 375.916 101.405 375.891 101.454C375.795 101.642 375.642 101.795 375.454 101.891C375.405 101.916 375.304 101.954 375.032 101.976C374.749 101.999 374.377 102 373.8 102H368.2C367.623 102 367.251 101.999 366.968 101.976C366.696 101.954 366.595 101.916 366.546 101.891C366.358 101.795 366.205 101.642 366.109 101.454C366.084 101.405 366.046 101.304 366.024 101.032C366.001 100.749 366 100.377 366 99.8V96.2C366 95.6234 366.001 95.2512 366.024 94.9678C366.046 94.6962 366.084 94.5955 366.109 94.546C366.205 94.3578 366.358 94.2049 366.546 94.109C366.595 94.0838 366.696 94.0461 366.968 94.0239Z"
                fill="#4BB99D"
            />
            <path
                fill-rule="evenodd"
                clip-rule="evenodd"
                d="M374.151 96.1481C374.347 96.3454 374.347 96.6653 374.151 96.8626L370.831 100.254C370.558 100.53 370.115 100.53 369.841 100.254L368.146 98.5298C367.951 98.3325 367.951 98.0126 368.146 97.8153C368.342 97.618 368.658 97.618 368.854 97.8153L370.336 99.3253L373.444 96.1481C373.64 95.9508 373.956 95.9508 374.151 96.1481Z"
                fill="#4BB99D"
            />
            <path
                d="M395.08 94H394.023C393.767 92.7898 392.727 92.142 391.568 92.142C389.983 92.142 388.739 93.3693 388.739 95.6364C388.739 97.9034 389.983 99.1307 391.568 99.1307C392.727 99.1307 393.767 98.483 394.023 97.2727H395.08C394.756 99.0625 393.324 100.119 391.568 100.119C389.335 100.119 387.716 98.3977 387.716 95.6364C387.716 92.875 389.335 91.1534 391.568 91.1534C393.324 91.1534 394.756 92.2102 395.08 94ZM399.31 100.136C397.537 100.136 396.344 98.7898 396.344 96.7614C396.344 94.7159 397.537 93.3693 399.31 93.3693C401.083 93.3693 402.276 94.7159 402.276 96.7614C402.276 98.7898 401.083 100.136 399.31 100.136ZM399.31 99.233C400.657 99.233 401.27 98.0739 401.27 96.7614C401.27 95.4489 400.657 94.2727 399.31 94.2727C397.963 94.2727 397.35 95.4489 397.35 96.7614C397.35 98.0739 397.963 99.233 399.31 99.233ZM404.817 96.0625V100H403.811V93.4545H404.783V94.4773H404.868C405.175 93.8125 405.788 93.3693 406.777 93.3693C408.102 93.3693 408.993 94.1705 408.993 95.8409V100H407.987V95.9091C407.987 94.8821 407.42 94.2727 406.487 94.2727C405.524 94.2727 404.817 94.9205 404.817 96.0625ZM415.949 93.4545L413.528 100H412.505L410.085 93.4545H411.176L412.983 98.6705H413.051L414.858 93.4545H415.949ZM419.786 100.136C417.894 100.136 416.735 98.7898 416.735 96.7784C416.735 94.767 417.911 93.3693 419.684 93.3693C421.047 93.3693 422.496 94.2045 422.496 96.642V97.0682H417.745C417.792 98.4702 418.605 99.233 419.786 99.233C420.574 99.233 421.167 98.892 421.422 98.2102L422.394 98.483C422.087 99.4716 421.115 100.136 419.786 100.136ZM417.745 96.1989H421.473C421.473 95.0909 420.775 94.2727 419.684 94.2727C418.533 94.2727 417.813 95.1804 417.745 96.1989ZM424.026 100V93.4545H424.998V94.4432H425.066C425.304 93.7955 425.986 93.3523 426.77 93.3523C426.919 93.3523 427.184 93.3608 427.299 93.3693V94.392C427.23 94.375 426.953 94.3239 426.685 94.3239C425.73 94.3239 425.032 94.9716 425.032 95.858V100H424.026ZM433.127 94.9205L432.224 95.1761C432.049 94.7244 431.687 94.2386 430.809 94.2386C430.008 94.2386 429.411 94.6477 429.411 95.2102C429.411 95.7131 429.761 95.973 430.536 96.1648L431.508 96.4034C432.675 96.6889 433.246 97.2642 433.246 98.1761C433.246 99.3054 432.211 100.136 430.69 100.136C429.352 100.136 428.435 99.544 428.201 98.4318L429.156 98.1932C429.335 98.8963 429.85 99.25 430.673 99.25C431.61 99.25 432.207 98.7898 432.207 98.2273C432.207 97.7756 431.896 97.4602 431.235 97.3068L430.144 97.0511C428.942 96.7699 428.406 96.1648 428.406 95.2614C428.406 94.1534 429.428 93.3693 430.809 93.3693C432.104 93.3693 432.812 93.9915 433.127 94.9205ZM436.686 100.153C435.442 100.153 434.453 99.4205 434.453 98.142C434.453 96.642 435.779 96.3736 436.993 96.2159C438.186 96.0625 438.681 96.1051 438.681 95.6193V95.5852C438.681 94.7457 438.225 94.2557 437.3 94.2557C436.341 94.2557 435.817 94.767 435.596 95.2443L434.641 94.9034C435.152 93.7102 436.277 93.3693 437.266 93.3693C438.101 93.3693 439.686 93.608 439.686 95.6875V100H438.681V99.1136H438.63C438.425 99.5398 437.828 100.153 436.686 100.153ZM436.84 99.25C438.033 99.25 438.681 98.4489 438.681 97.6307V96.7102C438.51 96.9148 437.368 97.0341 436.942 97.0852C436.158 97.1875 435.459 97.4261 435.459 98.1932C435.459 98.892 436.039 99.25 436.84 99.25ZM444.369 93.4545V94.3068H442.971V98.125C442.971 98.9773 443.397 99.1136 443.84 99.1136C444.062 99.1136 444.198 99.0795 444.283 99.0625L444.488 99.9659C444.352 100.017 444.113 100.085 443.738 100.085C442.886 100.085 441.965 99.5398 441.965 98.3977V94.3068H440.977V93.4545H441.965V91.8864H442.971V93.4545H444.369ZM445.881 100V93.4545H446.887V100H445.881ZM446.393 92.3636C446.001 92.3636 445.677 92.0568 445.677 91.6818C445.677 91.3068 446.001 91 446.393 91C446.785 91 447.109 91.3068 447.109 91.6818C447.109 92.0568 446.785 92.3636 446.393 92.3636ZM451.388 100.136C449.615 100.136 448.422 98.7898 448.422 96.7614C448.422 94.7159 449.615 93.3693 451.388 93.3693C453.161 93.3693 454.354 94.7159 454.354 96.7614C454.354 98.7898 453.161 100.136 451.388 100.136ZM451.388 99.233C452.735 99.233 453.348 98.0739 453.348 96.7614C453.348 95.4489 452.735 94.2727 451.388 94.2727C450.042 94.2727 449.428 95.4489 449.428 96.7614C449.428 98.0739 450.042 99.233 451.388 99.233ZM456.895 96.0625V100H455.889V93.4545H456.861V94.4773H456.946C457.253 93.8125 457.866 93.3693 458.855 93.3693C460.18 93.3693 461.071 94.1705 461.071 95.8409V100H460.065V95.9091C460.065 94.8821 459.499 94.2727 458.565 94.2727C457.602 94.2727 456.895 94.9205 456.895 96.0625ZM469.028 100.136C467.136 100.136 465.977 98.7898 465.977 96.7784C465.977 94.767 467.153 93.3693 468.926 93.3693C470.289 93.3693 471.738 94.2045 471.738 96.642V97.0682H466.987C467.034 98.4702 467.848 99.233 469.028 99.233C469.816 99.233 470.409 98.892 470.664 98.2102L471.636 98.483C471.329 99.4716 470.358 100.136 469.028 100.136ZM466.987 96.1989H470.716C470.716 95.0909 470.017 94.2727 468.926 94.2727C467.775 94.2727 467.055 95.1804 466.987 96.1989ZM474.274 96.0625V100H473.268V93.4545H474.24V94.4773H474.325C474.632 93.8125 475.245 93.3693 476.234 93.3693C477.559 93.3693 478.45 94.1705 478.45 95.8409V100H477.444V95.9091C477.444 94.8821 476.877 94.2727 475.944 94.2727C474.981 94.2727 474.274 94.9205 474.274 96.0625ZM482.947 100.136C481.106 100.136 479.981 98.7216 479.981 96.7614C479.981 94.767 481.157 93.3693 482.93 93.3693C484.31 93.3693 485.35 94.1875 485.521 95.4148H484.515C484.362 94.8182 483.833 94.2727 482.947 94.2727C481.771 94.2727 480.987 95.2443 480.987 96.7273C480.987 98.2443 481.754 99.233 482.947 99.233C483.731 99.233 484.327 98.8068 484.515 98.0909H485.521C485.35 99.25 484.396 100.136 482.947 100.136ZM486.991 100V93.4545H487.962V94.4432H488.031C488.269 93.7955 488.951 93.3523 489.735 93.3523C489.884 93.3523 490.148 93.3608 490.263 93.3693V94.392C490.195 94.375 489.918 94.3239 489.65 94.3239C488.695 94.3239 487.996 94.9716 487.996 95.858V100H486.991ZM492.303 102.455C491.962 102.455 491.672 102.386 491.57 102.335L491.825 101.449C492.558 101.636 493.01 101.543 493.376 100.545L493.564 100.034L491.143 93.4545H492.234L494.041 98.6705H494.109L495.916 93.4545H497.007L494.229 100.955C493.849 101.973 493.21 102.455 492.303 102.455ZM498.335 102.455V93.4545H499.306V94.4943H499.425C499.647 94.1534 500.039 93.3693 501.317 93.3693C502.971 93.3693 504.113 94.6818 504.113 96.7443C504.113 98.8239 502.971 100.136 501.335 100.136C500.073 100.136 499.647 99.3523 499.425 98.9943H499.34V102.455H498.335ZM499.323 96.7273C499.323 98.2102 499.988 99.233 501.198 99.233C502.46 99.233 503.107 98.125 503.107 96.7273C503.107 95.3466 502.477 94.2727 501.198 94.2727C499.971 94.2727 499.323 95.2614 499.323 96.7273ZM508.494 93.4545V94.3068H507.096V98.125C507.096 98.9773 507.522 99.1136 507.965 99.1136C508.187 99.1136 508.323 99.0795 508.408 99.0625L508.613 99.9659C508.477 100.017 508.238 100.085 507.863 100.085C507.011 100.085 506.09 99.5398 506.09 98.3977V94.3068H505.102V93.4545H506.09V91.8864H507.096V93.4545H508.494ZM512.68 100.136C510.788 100.136 509.629 98.7898 509.629 96.7784C509.629 94.767 510.805 93.3693 512.578 93.3693C513.942 93.3693 515.391 94.2045 515.391 96.642V97.0682H510.639C510.686 98.4702 511.5 99.233 512.68 99.233C513.469 99.233 514.061 98.892 514.317 98.2102L515.288 98.483C514.982 99.4716 514.01 100.136 512.68 100.136ZM510.639 96.1989H514.368C514.368 95.0909 513.669 94.2727 512.578 94.2727C511.428 94.2727 510.707 95.1804 510.639 96.1989ZM519.392 100.136C517.756 100.136 516.614 98.8239 516.614 96.7443C516.614 94.6818 517.756 93.3693 519.409 93.3693C520.688 93.3693 521.08 94.1534 521.301 94.4943H521.386V91.2727H522.392V100H521.42V98.9943H521.301C521.08 99.3523 520.653 100.136 519.392 100.136ZM519.528 99.233C520.739 99.233 521.403 98.2102 521.403 96.7273C521.403 95.2614 520.756 94.2727 519.528 94.2727C518.25 94.2727 517.619 95.3466 517.619 96.7273C517.619 98.125 518.267 99.233 519.528 99.233Z"
                fill="#A7A4B5"
            />
            <path
                d="M172 280C172 271.163 179.163 264 188 264H472C480.837 264 488 271.163 488 280V320H172V280Z"
                fill="#C5B7FF"
                fill-opacity="0.15"
            />
            <path
                d="M196 288C196 283.582 199.582 280 204 280H212C216.418 280 220 283.582 220 288V296C220 300.418 216.418 304 212 304H204C199.582 304 196 300.418 196 296V288Z"
                fill="#6D4AFF"
            />
            <path
                d="M205.471 296V287.273H210.738V288.21H206.528V291.159H210.465V292.097H206.528V295.062H210.806V296H205.471Z"
                fill="white"
            />
            <path
                d="M237.233 297V286.818H238.466V295.906H243.199V297H237.233ZM248.051 297.159C245.983 297.159 244.591 295.588 244.591 293.222C244.591 290.835 245.983 289.264 248.051 289.264C250.119 289.264 251.511 290.835 251.511 293.222C251.511 295.588 250.119 297.159 248.051 297.159ZM248.051 296.105C249.622 296.105 250.338 294.753 250.338 293.222C250.338 291.69 249.622 290.318 248.051 290.318C246.48 290.318 245.764 291.69 245.764 293.222C245.764 294.753 246.48 296.105 248.051 296.105ZM253.302 297V289.364H254.436V290.517H254.515C254.794 289.761 255.589 289.244 256.504 289.244C256.678 289.244 256.986 289.254 257.121 289.264V290.457C257.041 290.438 256.718 290.378 256.405 290.378C255.291 290.378 254.476 291.134 254.476 292.168V297H253.302ZM261.481 297.159C259.273 297.159 257.921 295.588 257.921 293.241C257.921 290.895 259.293 289.264 261.361 289.264C262.952 289.264 264.643 290.239 264.643 293.082V293.58H259.099C259.154 295.215 260.104 296.105 261.481 296.105C262.4 296.105 263.091 295.707 263.39 294.912L264.523 295.23C264.165 296.384 263.032 297.159 261.481 297.159ZM259.099 292.565H263.449C263.449 291.273 262.634 290.318 261.361 290.318C260.019 290.318 259.179 291.377 259.099 292.565ZM266.427 297V289.364H267.561V290.557H267.66C267.979 289.741 268.714 289.264 269.709 289.264C270.713 289.264 271.379 289.741 271.757 290.557H271.836C272.229 289.766 273.03 289.264 274.123 289.264C275.486 289.264 276.45 290.094 276.45 291.889V297H275.277V291.889C275.277 290.761 274.561 290.318 273.726 290.318C272.652 290.318 272.035 291.044 272.035 292.028V297H270.842V291.77C270.842 290.9 270.221 290.318 269.331 290.318C268.416 290.318 267.601 291.109 267.601 292.227V297H266.427ZM282.533 297V289.364H283.706V297H282.533ZM283.129 288.091C282.672 288.091 282.294 287.733 282.294 287.295C282.294 286.858 282.672 286.5 283.129 286.5C283.587 286.5 283.965 286.858 283.965 287.295C283.965 287.733 283.587 288.091 283.129 288.091ZM285.855 299.864V289.364H286.989V290.577H287.128C287.386 290.179 287.844 289.264 289.335 289.264C291.264 289.264 292.597 290.795 292.597 293.202C292.597 295.628 291.264 297.159 289.355 297.159C287.884 297.159 287.386 296.244 287.128 295.827H287.028V299.864H285.855ZM287.009 293.182C287.009 294.912 287.784 296.105 289.196 296.105C290.668 296.105 291.423 294.812 291.423 293.182C291.423 291.571 290.688 290.318 289.196 290.318C287.764 290.318 287.009 291.472 287.009 293.182ZM299.795 291.074L298.741 291.372C298.538 290.845 298.115 290.278 297.091 290.278C296.156 290.278 295.46 290.756 295.46 291.412C295.46 291.999 295.868 292.302 296.773 292.526L297.906 292.804C299.268 293.137 299.935 293.808 299.935 294.872C299.935 296.19 298.727 297.159 296.952 297.159C295.391 297.159 294.322 296.468 294.048 295.17L295.162 294.892C295.371 295.712 295.972 296.125 296.932 296.125C298.026 296.125 298.722 295.588 298.722 294.932C298.722 294.405 298.359 294.037 297.588 293.858L296.315 293.56C294.913 293.232 294.287 292.526 294.287 291.472C294.287 290.179 295.48 289.264 297.091 289.264C298.602 289.264 299.428 289.99 299.795 291.074ZM306.513 293.878V289.364H307.687V297H306.513V295.707H306.434C306.076 296.483 305.32 297.099 304.167 297.099C302.735 297.099 301.701 296.165 301.701 294.216V289.364H302.874V294.136C302.874 295.25 303.57 295.966 304.545 295.966C305.42 295.966 306.513 295.31 306.513 293.878ZM309.836 297V289.364H310.969V290.557H311.069C311.387 289.741 312.123 289.264 313.117 289.264C314.121 289.264 314.787 289.741 315.165 290.557H315.245C315.637 289.766 316.438 289.264 317.532 289.264C318.894 289.264 319.858 290.094 319.858 291.889V297H318.685V291.889C318.685 290.761 317.969 290.318 317.134 290.318C316.06 290.318 315.444 291.044 315.444 292.028V297H314.25V291.77C314.25 290.9 313.629 290.318 312.739 290.318C311.824 290.318 311.009 291.109 311.009 292.227V297H309.836ZM328.825 297.159C326.915 297.159 325.583 295.628 325.583 293.202C325.583 290.795 326.915 289.264 328.844 289.264C330.336 289.264 330.793 290.179 331.052 290.577H331.151V286.818H332.325V297H331.191V295.827H331.052C330.793 296.244 330.296 297.159 328.825 297.159ZM328.984 296.105C330.396 296.105 331.171 294.912 331.171 293.182C331.171 291.472 330.415 290.318 328.984 290.318C327.492 290.318 326.756 291.571 326.756 293.182C326.756 294.812 327.512 296.105 328.984 296.105ZM337.739 297.159C335.67 297.159 334.278 295.588 334.278 293.222C334.278 290.835 335.67 289.264 337.739 289.264C339.807 289.264 341.199 290.835 341.199 293.222C341.199 295.588 339.807 297.159 337.739 297.159ZM337.739 296.105C339.31 296.105 340.026 294.753 340.026 293.222C340.026 291.69 339.31 290.318 337.739 290.318C336.168 290.318 335.452 291.69 335.452 293.222C335.452 294.753 336.168 296.105 337.739 296.105ZM344.163 286.818V297H342.99V286.818H344.163ZM349.414 297.159C347.346 297.159 345.954 295.588 345.954 293.222C345.954 290.835 347.346 289.264 349.414 289.264C351.483 289.264 352.875 290.835 352.875 293.222C352.875 295.588 351.483 297.159 349.414 297.159ZM349.414 296.105C350.985 296.105 351.701 294.753 351.701 293.222C351.701 291.69 350.985 290.318 349.414 290.318C347.843 290.318 347.127 291.69 347.127 293.222C347.127 294.753 347.843 296.105 349.414 296.105ZM354.666 297V289.364H355.799V290.517H355.879C356.157 289.761 356.953 289.244 357.867 289.244C358.041 289.244 358.35 289.254 358.484 289.264V290.457C358.404 290.438 358.081 290.378 357.768 290.378C356.654 290.378 355.839 291.134 355.839 292.168V297H354.666ZM369.221 291.074L368.167 291.372C367.963 290.845 367.541 290.278 366.517 290.278C365.582 290.278 364.886 290.756 364.886 291.412C364.886 291.999 365.294 292.302 366.199 292.526L367.332 292.804C368.694 293.137 369.36 293.808 369.36 294.872C369.36 296.19 368.152 297.159 366.377 297.159C364.816 297.159 363.748 296.468 363.474 295.17L364.588 294.892C364.797 295.712 365.398 296.125 366.358 296.125C367.451 296.125 368.147 295.588 368.147 294.932C368.147 294.405 367.784 294.037 367.014 293.858L365.741 293.56C364.339 293.232 363.713 292.526 363.713 291.472C363.713 290.179 364.906 289.264 366.517 289.264C368.028 289.264 368.853 289.99 369.221 291.074ZM371.127 297V289.364H372.3V297H371.127ZM371.723 288.091C371.266 288.091 370.888 287.733 370.888 287.295C370.888 286.858 371.266 286.5 371.723 286.5C372.181 286.5 372.558 286.858 372.558 287.295C372.558 287.733 372.181 288.091 371.723 288.091ZM377.77 289.364V290.358H376.139V294.812C376.139 295.807 376.636 295.966 377.153 295.966C377.412 295.966 377.571 295.926 377.67 295.906L377.909 296.96C377.75 297.02 377.472 297.099 377.034 297.099C376.04 297.099 374.966 296.463 374.966 295.131V290.358H373.812V289.364H374.966V287.534H376.139V289.364H377.77ZM385.719 297.179C384.268 297.179 383.114 296.324 383.114 294.832C383.114 293.082 384.661 292.769 386.077 292.585C387.469 292.406 388.046 292.456 388.046 291.889V291.849C388.046 290.87 387.514 290.298 386.435 290.298C385.317 290.298 384.705 290.895 384.447 291.452L383.333 291.054C383.93 289.662 385.242 289.264 386.396 289.264C387.37 289.264 389.219 289.543 389.219 291.969V297H388.046V295.966H387.987C387.748 296.463 387.052 297.179 385.719 297.179ZM385.898 296.125C387.29 296.125 388.046 295.19 388.046 294.236V293.162C387.847 293.401 386.515 293.54 386.018 293.599C385.103 293.719 384.288 293.997 384.288 294.892C384.288 295.707 384.964 296.125 385.898 296.125ZM391.361 297V289.364H392.494V290.557H392.594C392.912 289.741 393.648 289.264 394.642 289.264C395.646 289.264 396.313 289.741 396.691 290.557H396.77C397.163 289.766 397.963 289.264 399.057 289.264C400.419 289.264 401.384 290.094 401.384 291.889V297H400.21V291.889C400.21 290.761 399.494 290.318 398.659 290.318C397.585 290.318 396.969 291.044 396.969 292.028V297H395.776V291.77C395.776 290.9 395.154 290.318 394.264 290.318C393.35 290.318 392.534 291.109 392.534 292.227V297H391.361ZM406.731 297.159C404.523 297.159 403.171 295.588 403.171 293.241C403.171 290.895 404.543 289.264 406.611 289.264C408.202 289.264 409.893 290.239 409.893 293.082V293.58H404.349C404.404 295.215 405.354 296.105 406.731 296.105C407.65 296.105 408.341 295.707 408.64 294.912L409.773 295.23C409.415 296.384 408.282 297.159 406.731 297.159ZM404.349 292.565H408.699C408.699 291.273 407.884 290.318 406.611 290.318C405.269 290.318 404.429 291.377 404.349 292.565ZM414.998 289.364V290.358H413.368V294.812C413.368 295.807 413.865 295.966 414.382 295.966C414.64 295.966 414.8 295.926 414.899 295.906L415.138 296.96C414.979 297.02 414.7 297.099 414.263 297.099C413.268 297.099 412.194 296.463 412.194 295.131V290.358H411.041V289.364H412.194V287.534H413.368V289.364H414.998ZM418.513 295.608L418.434 296.145C418.265 297.278 417.758 298.81 417.519 299.486H416.624C416.753 298.854 417.037 297.512 417.181 296.165L417.241 295.608H418.513ZM427.727 297.159C425.579 297.159 424.267 295.509 424.267 293.222C424.267 290.895 425.639 289.264 427.707 289.264C429.318 289.264 430.531 290.219 430.73 291.651H429.556C429.377 290.955 428.761 290.318 427.727 290.318C426.355 290.318 425.44 291.452 425.44 293.182C425.44 294.952 426.335 296.105 427.727 296.105C428.642 296.105 429.338 295.608 429.556 294.773H430.73C430.531 296.125 429.417 297.159 427.727 297.159ZM435.547 297.159C433.479 297.159 432.087 295.588 432.087 293.222C432.087 290.835 433.479 289.264 435.547 289.264C437.615 289.264 439.007 290.835 439.007 293.222C439.007 295.588 437.615 297.159 435.547 297.159ZM435.547 296.105C437.118 296.105 437.834 294.753 437.834 293.222C437.834 291.69 437.118 290.318 435.547 290.318C433.976 290.318 433.26 291.69 433.26 293.222C433.26 294.753 433.976 296.105 435.547 296.105ZM441.972 292.406V297H440.798V289.364H441.932V290.557H442.031C442.389 289.781 443.105 289.264 444.259 289.264C445.805 289.264 446.844 290.199 446.844 292.148V297H445.671V292.227C445.671 291.029 445.009 290.318 443.921 290.318C442.797 290.318 441.972 291.074 441.972 292.406ZM454.397 291.074L453.343 291.372C453.139 290.845 452.717 290.278 451.692 290.278C450.758 290.278 450.062 290.756 450.062 291.412C450.062 291.999 450.469 292.302 451.374 292.526L452.508 292.804C453.87 293.137 454.536 293.808 454.536 294.872C454.536 296.19 453.328 297.159 451.553 297.159C449.992 297.159 448.923 296.468 448.65 295.17L449.763 294.892C449.972 295.712 450.574 296.125 451.533 296.125C452.627 296.125 453.323 295.588 453.323 294.932C453.323 294.405 452.96 294.037 452.19 293.858L450.917 293.56C449.515 293.232 448.888 292.526 448.888 291.472C448.888 290.179 450.082 289.264 451.692 289.264C453.204 289.264 454.029 289.99 454.397 291.074ZM459.504 297.159C457.297 297.159 455.944 295.588 455.944 293.241C455.944 290.895 457.317 289.264 459.385 289.264C460.976 289.264 462.666 290.239 462.666 293.082V293.58H457.123C457.177 295.215 458.127 296.105 459.504 296.105C460.424 296.105 461.115 295.707 461.413 294.912L462.547 295.23C462.189 296.384 461.055 297.159 459.504 297.159ZM457.123 292.565H461.473C461.473 291.273 460.657 290.318 459.385 290.318C458.042 290.318 457.202 291.377 457.123 292.565ZM467.553 297.159C465.405 297.159 464.093 295.509 464.093 293.222C464.093 290.895 465.465 289.264 467.533 289.264C469.144 289.264 470.357 290.219 470.556 291.651H469.383C469.204 290.955 468.587 290.318 467.553 290.318C466.181 290.318 465.266 291.452 465.266 293.182C465.266 294.952 466.161 296.105 467.553 296.105C468.468 296.105 469.164 295.608 469.383 294.773H470.556C470.357 296.125 469.243 297.159 467.553 297.159ZM475.592 289.364V290.358H473.961V294.812C473.961 295.807 474.459 295.966 474.976 295.966C475.234 295.966 475.393 295.926 475.493 295.906L475.731 296.96C475.572 297.02 475.294 297.099 474.856 297.099C473.862 297.099 472.788 296.463 472.788 295.131V290.358H471.635V289.364H472.788V287.534H473.961V289.364H475.592ZM480.477 297.159C478.269 297.159 476.917 295.588 476.917 293.241C476.917 290.895 478.289 289.264 480.357 289.264C481.948 289.264 483.639 290.239 483.639 293.082V293.58H478.095C478.15 295.215 479.1 296.105 480.477 296.105C481.396 296.105 482.088 295.707 482.386 294.912L483.519 295.23C483.161 296.384 482.028 297.159 480.477 297.159ZM478.095 292.565H482.445C482.445 291.273 481.63 290.318 480.357 290.318C479.015 290.318 478.175 291.377 478.095 292.565ZM488.744 289.364V290.358H487.114V294.812C487.114 295.807 487.611 295.966 488.128 295.966C488.387 295.966 488.546 295.926 488.645 295.906L488.884 296.96C488.725 297.02 488.446 297.099 488.009 297.099C487.014 297.099 485.941 296.463 485.941 295.131V290.358H484.787V289.364H485.941V287.534H487.114V289.364H488.744ZM495.322 293.878V289.364H496.495V297H495.322V295.707H495.242C494.884 296.483 494.129 297.099 492.975 297.099C491.544 297.099 490.509 296.165 490.509 294.216V289.364H491.683V294.136C491.683 295.25 492.379 295.966 493.353 295.966C494.228 295.966 495.322 295.31 495.322 293.878ZM498.644 297V289.364H499.778V290.517H499.857C500.136 289.761 500.931 289.244 501.846 289.244C502.02 289.244 502.328 289.254 502.462 289.264V290.457C502.383 290.438 502.06 290.378 501.746 290.378C500.633 290.378 499.817 291.134 499.817 292.168V297H498.644ZM510.038 297.179C508.586 297.179 507.433 296.324 507.433 294.832C507.433 293.082 508.979 292.769 510.396 292.585C511.788 292.406 512.365 292.456 512.365 291.889V291.849C512.365 290.87 511.833 290.298 510.754 290.298C509.635 290.298 509.024 290.895 508.765 291.452L507.651 291.054C508.248 289.662 509.561 289.264 510.714 289.264C511.688 289.264 513.538 289.543 513.538 291.969V297H512.365V295.966H512.305C512.066 296.463 511.37 297.179 510.038 297.179ZM510.217 296.125C511.609 296.125 512.365 295.19 512.365 294.236V293.162C512.166 293.401 510.833 293.54 510.336 293.599C509.421 293.719 508.606 293.997 508.606 294.892C508.606 295.707 509.282 296.125 510.217 296.125ZM518.563 297.159C516.654 297.159 515.321 295.628 515.321 293.202C515.321 290.795 516.654 289.264 518.583 289.264C520.074 289.264 520.532 290.179 520.79 290.577H520.89V286.818H522.063V297H520.929V295.827H520.79C520.532 296.244 520.034 297.159 518.563 297.159ZM518.722 296.105C520.134 296.105 520.909 294.912 520.909 293.182C520.909 291.472 520.154 290.318 518.722 290.318C517.23 290.318 516.495 291.571 516.495 293.182C516.495 294.812 517.25 296.105 518.722 296.105ZM524.375 297V289.364H525.548V297H524.375ZM524.971 288.091C524.514 288.091 524.136 287.733 524.136 287.295C524.136 286.858 524.514 286.5 524.971 286.5C525.429 286.5 525.806 286.858 525.806 287.295C525.806 287.733 525.429 288.091 524.971 288.091ZM527.697 299.864V289.364H528.83V290.577H528.97C529.228 290.179 529.686 289.264 531.177 289.264C533.106 289.264 534.438 290.795 534.438 293.202C534.438 295.628 533.106 297.159 531.197 297.159C529.725 297.159 529.228 296.244 528.97 295.827H528.87V299.864H527.697ZM528.85 293.182C528.85 294.912 529.626 296.105 531.038 296.105C532.509 296.105 533.265 294.812 533.265 293.182C533.265 291.571 532.529 290.318 531.038 290.318C529.606 290.318 528.85 291.472 528.85 293.182ZM536.228 297V289.364H537.401V297H536.228ZM536.825 288.091C536.367 288.091 535.99 287.733 535.99 287.295C535.99 286.858 536.367 286.5 536.825 286.5C537.282 286.5 537.66 286.858 537.66 287.295C537.66 287.733 537.282 288.091 536.825 288.091ZM544.96 291.074L543.906 291.372C543.702 290.845 543.279 290.278 542.255 290.278C541.32 290.278 540.624 290.756 540.624 291.412C540.624 291.999 541.032 292.302 541.937 292.526L543.07 292.804C544.433 293.137 545.099 293.808 545.099 294.872C545.099 296.19 543.891 297.159 542.116 297.159C540.555 297.159 539.486 296.468 539.212 295.17L540.326 294.892C540.535 295.712 541.136 296.125 542.096 296.125C543.19 296.125 543.886 295.588 543.886 294.932C543.886 294.405 543.523 294.037 542.752 293.858L541.479 293.56C540.077 293.232 539.451 292.526 539.451 291.472C539.451 290.179 540.644 289.264 542.255 289.264C543.766 289.264 544.592 289.99 544.96 291.074ZM549.967 297.159C547.819 297.159 546.507 295.509 546.507 293.222C546.507 290.895 547.879 289.264 549.947 289.264C551.558 289.264 552.771 290.219 552.97 291.651H551.797C551.618 290.955 551.001 290.318 549.967 290.318C548.595 290.318 547.68 291.452 547.68 293.182C547.68 294.952 548.575 296.105 549.967 296.105C550.882 296.105 551.578 295.608 551.797 294.773H552.97C552.771 296.125 551.657 297.159 549.967 297.159ZM554.685 297V289.364H555.858V297H554.685ZM555.282 288.091C554.824 288.091 554.447 287.733 554.447 287.295C554.447 286.858 554.824 286.5 555.282 286.5C555.739 286.5 556.117 286.858 556.117 287.295C556.117 287.733 555.739 288.091 555.282 288.091ZM559.181 292.406V297H558.007V289.364H559.141V290.557H559.24C559.598 289.781 560.314 289.264 561.468 289.264C563.014 289.264 564.053 290.199 564.053 292.148V297H562.88V292.227C562.88 291.029 562.218 290.318 561.13 290.318C560.006 290.318 559.181 291.074 559.181 292.406ZM569.279 300.023C567.574 300.023 566.634 299.292 566.157 298.491L567.092 297.835C567.405 298.258 567.892 298.989 569.279 298.989C570.512 298.989 571.407 298.412 571.407 297.139V295.588H571.308C571.049 296.006 570.572 296.881 569.08 296.881C567.231 296.881 565.839 295.528 565.839 293.142C565.839 290.795 567.171 289.264 569.1 289.264C570.592 289.264 571.069 290.179 571.328 290.577H571.447V289.364H572.58V297.219C572.58 299.188 571.109 300.023 569.279 300.023ZM569.24 295.827C570.651 295.827 571.427 294.812 571.427 293.122C571.427 291.472 570.671 290.318 569.24 290.318C567.748 290.318 567.012 291.571 567.012 293.122C567.012 294.713 567.768 295.827 569.24 295.827ZM581.867 297.159C579.66 297.159 578.308 295.588 578.308 293.241C578.308 290.895 579.68 289.264 581.748 289.264C583.339 289.264 585.029 290.239 585.029 293.082V293.58H579.486C579.541 295.215 580.49 296.105 581.867 296.105C582.787 296.105 583.478 295.707 583.776 294.912L584.91 295.23C584.552 296.384 583.419 297.159 581.867 297.159ZM579.486 292.565H583.836C583.836 291.273 583.021 290.318 581.748 290.318C580.406 290.318 579.566 291.377 579.486 292.565ZM587.987 286.818V297H586.814V286.818H587.987ZM590.136 297V289.364H591.31V297H590.136ZM590.733 288.091C590.276 288.091 589.898 287.733 589.898 287.295C589.898 286.858 590.276 286.5 590.733 286.5C591.19 286.5 591.568 286.858 591.568 287.295C591.568 287.733 591.19 288.091 590.733 288.091ZM596.78 289.364V290.358H595.149V294.812C595.149 295.807 595.646 295.966 596.163 295.966C596.422 295.966 596.581 295.926 596.68 295.906L596.919 296.96C596.76 297.02 596.481 297.099 596.044 297.099C595.05 297.099 593.976 296.463 593.976 295.131V290.358H592.822V289.364H593.976V287.534H595.149V289.364H596.78ZM600.076 294.136V294.077C600.091 292.183 600.672 291.606 601.647 291.014C602.229 290.661 602.681 290.094 602.681 289.304C602.681 288.33 601.925 287.713 600.991 287.713C600.175 287.713 599.355 288.19 599.28 289.364H598.028C598.102 287.673 599.38 286.679 600.991 286.679C602.741 286.679 603.874 287.812 603.874 289.364C603.874 290.462 603.357 291.228 602.482 291.76C601.607 292.307 601.289 292.844 601.269 294.077V294.136H600.076ZM600.712 297.08C600.22 297.08 599.817 296.677 599.817 296.185C599.817 295.692 600.22 295.29 600.712 295.29C601.204 295.29 601.607 295.692 601.607 296.185C601.607 296.677 601.204 297.08 600.712 297.08Z"
                fill="white"
            />
            <path
                d="M172 319H488V751C488 759.837 480.837 767 472 767H188C179.163 767 172 759.837 172 751V319Z"
                fill="#C5B7FF"
                fill-opacity="0.05"
            />
            <rect x="196" y="343" width="24" height="24" rx="5.84204" fill="#6D4AFF" />
            <g filter="url(#filter2_i_4096_15171)">
                <path
                    fill-rule="evenodd"
                    clip-rule="evenodd"
                    d="M216.071 359.08C216.851 357.805 217.301 356.305 217.301 354.701C217.301 350.062 213.54 346.301 208.901 346.301C204.262 346.301 200.501 350.062 200.501 354.701C200.501 359.34 204.262 363.101 208.901 363.101C210.516 363.101 212.024 362.645 213.305 361.855L216.703 363.68C216.933 363.803 217.199 363.596 217.136 363.343L216.071 359.08Z"
                    fill="#F7F5FF"
                />
            </g>
        </g>
        <g filter="url(#filter3_dd_4096_15171)">
            <path
                d="M68 80C68 73.3726 73.3726 68 80 68H580C586.627 68 592 73.3726 592 80V444C592 450.627 586.627 456 580 456H80C73.3726 456 68 450.627 68 444V80Z"
                fill="url(#paint2_linear_4096_15171)"
                shape-rendering="crispEdges"
            />
            <path
                d="M68.5 80C68.5 73.6487 73.6487 68.5 80 68.5H580C586.351 68.5 591.5 73.6487 591.5 80V444C591.5 450.351 586.351 455.5 580 455.5H80C73.6487 455.5 68.5 450.351 68.5 444V80Z"
                stroke="url(#paint3_linear_4096_15171)"
                shape-rendering="crispEdges"
            />
        </g>
    </g>
    <defs>
        <filter
            id="filter0_f_4096_15171"
            x="-75"
            y="-411"
            width="1008"
            height="1008"
            filterUnits="userSpaceOnUse"
            color-interpolation-filters="sRGB"
        >
            <feFlood flood-opacity="0" result="BackgroundImageFix" />
            <feBlend mode="normal" in="SourceGraphic" in2="BackgroundImageFix" result="shape" />
            <feGaussianBlur stdDeviation="140" result="effect1_foregroundBlur_4096_15171" />
        </filter>
        <filter
            id="filter1_dd_4096_15171"
            x="44"
            y="52"
            width="585"
            height="747"
            filterUnits="userSpaceOnUse"
            color-interpolation-filters="sRGB"
        >
            <feFlood flood-opacity="0" result="BackgroundImageFix" />
            <feColorMatrix
                in="SourceAlpha"
                type="matrix"
                values="0 0 0 0 0 0 0 0 0 0 0 0 0 0 0 0 0 0 127 0"
                result="hardAlpha"
            />
            <feOffset />
            <feGaussianBlur stdDeviation="0.5" />
            <feComposite in2="hardAlpha" operator="out" />
            <feColorMatrix type="matrix" values="0 0 0 0 0 0 0 0 0 0 0 0 0 0 0 0 0 0 0.05 0" />
            <feBlend mode="normal" in2="BackgroundImageFix" result="effect1_dropShadow_4096_15171" />
            <feColorMatrix
                in="SourceAlpha"
                type="matrix"
                values="0 0 0 0 0 0 0 0 0 0 0 0 0 0 0 0 0 0 127 0"
                result="hardAlpha"
            />
            <feOffset dy="8" />
            <feGaussianBlur stdDeviation="12" />
            <feComposite in2="hardAlpha" operator="out" />
            <feColorMatrix type="matrix" values="0 0 0 0 0 0 0 0 0 0 0 0 0 0 0 0 0 0 0.16 0" />
            <feBlend mode="normal" in2="effect1_dropShadow_4096_15171" result="effect2_dropShadow_4096_15171" />
            <feBlend mode="normal" in="SourceGraphic" in2="effect2_dropShadow_4096_15171" result="shape" />
        </filter>
        <filter
            id="filter2_i_4096_15171"
            x="200.501"
            y="344.501"
            width="17.1"
            height="19.2141"
            filterUnits="userSpaceOnUse"
            color-interpolation-filters="sRGB"
        >
            <feFlood flood-opacity="0" result="BackgroundImageFix" />
            <feBlend mode="normal" in="SourceGraphic" in2="BackgroundImageFix" result="shape" />
            <feColorMatrix
                in="SourceAlpha"
                type="matrix"
                values="0 0 0 0 0 0 0 0 0 0 0 0 0 0 0 0 0 0 127 0"
                result="hardAlpha"
            />
            <feOffset dx="0.3" dy="-1.8" />
            <feGaussianBlur stdDeviation="0.9" />
            <feComposite in2="hardAlpha" operator="arithmetic" k2="-1" k3="1" />
            <feColorMatrix type="matrix" values="0 0 0 0 0.713726 0 0 0 0 0.643137 0 0 0 0 1 0 0 0 1 0" />
            <feBlend mode="normal" in2="shape" result="effect1_innerShadow_4096_15171" />
        </filter>
        <filter
            id="filter3_dd_4096_15171"
            x="44"
            y="52"
            width="572"
            height="436"
            filterUnits="userSpaceOnUse"
            color-interpolation-filters="sRGB"
        >
            <feFlood flood-opacity="0" result="BackgroundImageFix" />
            <feColorMatrix
                in="SourceAlpha"
                type="matrix"
                values="0 0 0 0 0 0 0 0 0 0 0 0 0 0 0 0 0 0 127 0"
                result="hardAlpha"
            />
            <feOffset />
            <feGaussianBlur stdDeviation="0.5" />
            <feComposite in2="hardAlpha" operator="out" />
            <feColorMatrix type="matrix" values="0 0 0 0 0 0 0 0 0 0 0 0 0 0 0 0 0 0 0.05 0" />
            <feBlend mode="normal" in2="BackgroundImageFix" result="effect1_dropShadow_4096_15171" />
            <feColorMatrix
                in="SourceAlpha"
                type="matrix"
                values="0 0 0 0 0 0 0 0 0 0 0 0 0 0 0 0 0 0 127 0"
                result="hardAlpha"
            />
            <feOffset dy="8" />
            <feGaussianBlur stdDeviation="12" />
            <feComposite in2="hardAlpha" operator="out" />
            <feColorMatrix type="matrix" values="0 0 0 0 0 0 0 0 0 0 0 0 0 0 0 0 0 0 0.16 0" />
            <feBlend mode="normal" in2="effect1_dropShadow_4096_15171" result="effect2_dropShadow_4096_15171" />
            <feBlend mode="normal" in="SourceGraphic" in2="effect2_dropShadow_4096_15171" result="shape" />
        </filter>
        <linearGradient
            id="paint0_linear_4096_15171"
            x1="208.5"
            y1="0"
            x2="208.5"
            y2="348"
            gradientUnits="userSpaceOnUse"
        >
            <stop stop-color="#08031F" />
            <stop offset="1" stop-color="#130D2C" />
        </linearGradient>
        <linearGradient
            id="paint1_linear_4096_15171"
            x1="57.8196"
            y1="71.2743"
            x2="170.994"
            y2="223.757"
            gradientUnits="userSpaceOnUse"
        >
            <stop stop-color="#E2DBFF" stop-opacity="0.3" />
            <stop offset="1" stop-color="#E2DBFF" stop-opacity="0" />
        </linearGradient>
        <linearGradient id="paint2_linear_4096_15171" x1="68" y1="262" x2="592" y2="262" gradientUnits="userSpaceOnUse">
            <stop stop-color="#615591" stop-opacity="0" />
            <stop offset="0.937786" stop-color="#615591" stop-opacity="0.3" />
            <stop offset="1" stop-color="#615591" />
        </linearGradient>
        <linearGradient
            id="paint3_linear_4096_15171"
            x1="57.8196"
            y1="71.2743"
            x2="170.994"
            y2="223.757"
            gradientUnits="userSpaceOnUse"
        >
            <stop stop-color="#E2DBFF" stop-opacity="0.3" />
            <stop offset="1" stop-color="#E2DBFF" stop-opacity="0" />
        </linearGradient>
        <clipPath id="clip0_4096_15171">
            <rect width="417" height="348" fill="white" />
        </clipPath>
        <clipPath id="clip1_4096_15171">
            <rect width="74" height="20" fill="white" transform="translate(88 86)" />
        </clipPath>
    </defs>
</svg>
