<svg width="16" height="17" viewBox="0 0 16 17" fill="none" xmlns="http://www.w3.org/2000/svg">
    <path
        d="M7.57129 12.9863C7.80804 12.9863 7.99915 13.1782 7.99915 13.4142"
        stroke="white"
        stroke-width="0.2102"
        stroke-miterlimit="10"
        stroke-linecap="round"
    />
    <path
        d="M8.42884 12.9863C8.19209 12.9863 8.00098 13.1782 8.00098 13.4142"
        stroke="white"
        stroke-width="0.2102"
        stroke-miterlimit="10"
        stroke-linecap="round"
    />
    <path
        d="M9.83343 6.55059L10.2958 6.71563L12.0624 5.58086L12.209 7.02194H13.2139L13.0331 5.24248C12.9518 4.61067 12.2403 4.27842 11.704 4.62285L10.1689 5.60869L10.1474 5.60137C9.55951 5.39315 8.93287 5.26488 8.2812 5.23613L8.00044 5.23027C7.2881 5.23027 6.60244 5.34925 5.96139 5.56377L5.9067 5.58233L4.41208 4.62285C3.87584 4.27842 3.16429 4.61067 3.08299 5.24248L2.85449 7.02194H3.86234L3.87669 6.91021L4.04783 5.57744L5.77389 6.68584L6.23238 6.52813C6.24776 6.52283 6.26333 6.51718 6.27877 6.51201C6.82181 6.33029 7.40045 6.23028 8.00044 6.23028C8.63422 6.2303 9.24399 6.34209 9.81341 6.54375L9.83343 6.55059Z"
        fill="#0C0C14"
    />
    <path
        d="M9.95978 12.2998C10.3112 12.4524 10.7199 12.5014 11.0598 12.5014C11.3997 12.5014 11.5723 12.4865 11.9284 12.3911C12.2845 12.2957 12.6531 12.104 12.9008 11.7678C13.0999 11.4974 13.2159 11.1857 13.2835 10.86C13.3601 10.4915 13.4156 10.2145 13.4631 9.74325C13.5106 9.27197 13.5337 8.77242 13.4631 8.4396C13.1514 8.32066 12.7493 8.25852 12.7493 8.25852C12.2836 8.1901 11.8148 8.13187 11.3454 8.10607C10.6065 8.06553 9.88398 8.2014 9.1691 8.38542C8.9059 8.45324 8.64305 8.54083 8.37534 8.56699C7.90492 8.61306 7.43688 8.57977 6.97619 8.4396C6.30318 8.23482 5.61285 8.12462 4.91102 8.10202C4.40917 8.08593 3.91147 8.13973 3.4178 8.22781C3.4178 8.22781 2.71289 8.344 2.57131 8.4396C2.47896 8.61259 2.51456 9.78649 2.51456 9.78649C2.55916 10.2706 2.63128 10.7484 2.79034 11.2086C3.01452 11.8572 3.44923 12.2602 4.09757 12.4165C4.53157 12.5211 4.96736 12.5159 5.40634 12.4542C6.15681 12.3488 6.70326 11.9535 7.03822 11.2471C7.28446 10.7277 7.41802 10.1768 7.46819 9.6032C7.4912 9.34031 7.57969 9.24793 7.83376 9.24695C7.94502 9.24658 8.05639 9.24596 8.16777 9.24744C8.37119 9.25026 8.47047 9.33834 8.49159 9.54976C8.54354 10.0679 8.64329 10.5737 8.84031 11.0555C9.06757 11.6111 9.4068 12.0598 9.95978 12.2998Z"
        fill="black"
    />
</svg>
