<svg width="134" height="144" viewBox="0 0 134 144" fill="none" xmlns="http://www.w3.org/2000/svg">
    <path
        d="M77.0006 143.741C108.204 143.741 133.5 139.651 133.5 134.605C133.5 129.56 108.204 125.47 77.0006 125.47C45.797 125.47 20.5015 129.56 20.5015 134.605C20.5015 139.651 45.797 143.741 77.0006 143.741Z"
        fill="#ECEAF9"
    />
    <path
        d="M76.0205 136.451C76.0205 136.451 60.2053 136.68 45.7267 136.451C31.6118 136.227 19.7744 133.261 13.6472 127.373C-7.80324 106.767 5.09628 90.8594 5.09628 90.8594C5.09628 90.8594 8.22225 86.3504 13.6472 87.8724C19.0722 89.3944 20.441 96.484 20.0774 104.568C19.7103 112.652 24.2335 120.775 32.7239 123.277C42.2301 126.079 55.2722 125.359 55.2722 125.359L77.0541 128.735L76.0205 136.448V136.451Z"
        fill="#6D4AFF"
    />
    <path
        d="M11.4412 87.5591C12.1256 87.5591 12.8634 87.6517 13.6476 87.8727C19.0725 89.3947 20.4413 96.4843 20.0777 104.568C19.7141 112.652 24.2338 120.776 32.7242 123.278C38.9975 125.128 46.8106 125.441 51.398 125.441C53.7647 125.441 55.2725 125.359 55.2725 125.359L77.0544 128.735L76.0208 136.448C76.0208 136.448 68.9918 136.552 60.0167 136.552C55.5291 136.552 50.5532 136.527 45.727 136.448C31.6121 136.224 19.7747 133.258 13.6476 127.37C-7.80293 106.764 5.09658 90.8561 5.09658 90.8561C5.09658 90.8561 7.38492 87.5555 11.4412 87.5555M11.4412 86.3115C6.98927 86.3115 4.41222 89.6727 4.09856 90.1076C3.74925 90.5496 0.630407 94.6736 0.0814914 101.286C-0.249997 105.288 0.430802 109.38 2.10606 113.447C4.16984 118.462 7.76275 123.449 12.7814 128.271C18.8587 134.11 30.5534 137.457 45.7057 137.699C49.9829 137.767 54.7948 137.803 60.0131 137.803C68.8956 137.803 75.9637 137.703 76.035 137.699L77.1115 137.685L77.2541 136.619L78.2877 128.906L78.4481 127.694L77.2398 127.505L55.4578 124.13L55.3295 124.108L55.1976 124.115C55.1976 124.115 53.6899 124.197 51.3909 124.197C47.2241 124.197 39.3076 123.923 33.0699 122.084C29.3344 120.982 26.2405 118.651 24.1233 115.347C22.1415 112.25 21.1435 108.443 21.3181 104.629C21.7886 94.2138 19.3185 88.1721 13.979 86.6751C13.1272 86.4363 12.2717 86.3151 11.4376 86.3151L11.4412 86.3115Z"
        fill="white"
    />
    <mask
        id="mask0_18712_17381"
        style="mask-type: luminance"
        maskUnits="userSpaceOnUse"
        x="1"
        y="87"
        width="77"
        height="50"
    >
        <path
            d="M76.0205 136.451C76.0205 136.451 60.2053 136.68 45.7267 136.451C31.6118 136.227 19.7744 133.261 13.6472 127.373C-7.80324 106.767 5.09628 90.8594 5.09628 90.8594C5.09628 90.8594 8.22225 86.3504 13.6472 87.8724C19.0722 89.3944 20.441 96.484 20.0774 104.568C19.7103 112.652 24.2335 120.775 32.7239 123.277C42.2301 126.079 55.2722 125.359 55.2722 125.359L77.0541 128.735L76.0205 136.448V136.451Z"
            fill="white"
        />
    </mask>
    <g mask="url(#mask0_18712_17381)">
        <path
            d="M31.2092 69.5347C18.1136 69.5347 10.9421 60.916 10.9421 60.916C10.9421 60.916 3.77051 69.5347 -9.32505 69.5347C-9.32505 69.5347 -11.5065 95.0557 10.9421 108.775C33.3941 95.0557 31.2092 69.5347 31.2092 69.5347Z"
            fill="#4129A3"
        />
    </g>
    <path
        d="M106.556 132.841C113.111 128.264 117.791 114.47 110.748 99.129C105.434 87.5554 103.666 80.0488 103.666 80.0488L86.0647 98.0668L89.9142 131.03"
        fill="#6D4AFF"
    />
    <path
        d="M46.8536 132.841C40.2987 128.264 35.6186 114.47 42.6619 99.129C47.9764 87.5554 49.7443 80.0488 49.7443 80.0488L67.3452 98.0668L63.4957 131.03"
        fill="#6D4AFF"
    />
    <path d="M101.317 62.8018H55.939V135.943H101.317V62.8018Z" fill="#6D4AFF" />
    <path
        d="M70.1213 136.652C70.1213 136.652 61.2246 126.675 52.5702 127.638C43.9159 128.6 44.504 133.95 44.504 133.95C44.504 133.95 44.5967 136.652 47.327 136.652C50.7381 136.652 70.1177 136.652 70.1177 136.652H70.1213Z"
        fill="#4129A3"
    />
    <path
        d="M83.2847 136.652C83.2847 136.652 92.1814 126.675 100.836 127.638C109.49 128.6 108.902 133.95 108.902 133.95C108.902 133.95 108.809 136.652 106.079 136.652H83.2882H83.2847Z"
        fill="#4129A3"
    />
    <path
        d="M101.317 62.8012C101.317 62.8012 109.939 72.5748 96.876 101.974C96.876 101.974 90.4423 114.292 89.8684 130.125C89.8684 130.125 89.8435 130.988 89.9148 131.034C92.5667 132.845 92.253 134.845 91.7754 135.942C90.3318 139.243 80.6295 140.305 77.2291 136.128C76.6481 135.415 76.7051 134.934 76.7051 133.134C76.7051 131.933 76.7051 124.255 76.7051 115.205V62.3984L101.317 62.8012Z"
        fill="#6D4AFF"
    />
    <mask
        id="mask1_18712_17381"
        style="mask-type: luminance"
        maskUnits="userSpaceOnUse"
        x="76"
        y="62"
        width="29"
        height="77"
    >
        <path
            d="M101.317 62.8012C101.317 62.8012 109.939 72.5748 96.876 101.974C96.876 101.974 90.4423 114.292 89.8684 130.125C89.8684 130.125 89.8435 130.988 89.9148 131.034C92.5667 132.845 92.253 134.845 91.7754 135.942C90.3318 139.243 80.6295 140.305 77.2291 136.128C76.6481 135.415 76.7051 134.934 76.7051 133.134C76.7051 131.933 76.7051 124.255 76.7051 115.205V62.3984L101.317 62.8012Z"
            fill="white"
        />
    </mask>
    <g mask="url(#mask1_18712_17381)">
        <path
            d="M70.3434 121.901C78.9692 121.983 83.749 116.352 83.749 116.352C83.749 116.352 88.4184 122.072 97.0442 122.154C97.0442 122.154 98.3202 138.978 83.446 147.875C68.7465 138.697 70.3434 121.901 70.3434 121.901Z"
            fill="#4129A3"
        />
    </g>
    <path
        d="M52.0926 62.8012C52.0926 62.8012 43.4703 72.5748 56.5338 101.974C56.5338 101.974 62.9675 114.292 63.5414 130.125C63.5414 130.125 63.5663 130.988 63.4951 131.034C60.8432 132.845 61.1568 134.845 61.6344 135.942C63.078 139.243 72.7803 140.305 76.1807 136.128C76.7617 135.415 76.7047 134.934 76.7047 133.134V62.3984L52.0926 62.8012Z"
        fill="#6D4AFF"
    />
    <mask
        id="mask2_18712_17381"
        style="mask-type: luminance"
        maskUnits="userSpaceOnUse"
        x="49"
        y="62"
        width="28"
        height="77"
    >
        <path
            d="M52.0926 62.8012C52.0926 62.8012 43.4703 72.5748 56.5338 101.974C56.5338 101.974 62.9675 114.292 63.5414 130.125C63.5414 130.125 63.5663 130.988 63.4951 131.034C60.8432 132.845 61.1568 134.845 61.6344 135.942C63.078 139.243 72.7803 140.305 76.1807 136.128C76.7617 135.415 76.7047 134.934 76.7047 133.134V62.3984L52.0926 62.8012Z"
            fill="white"
        />
    </mask>
    <g mask="url(#mask2_18712_17381)">
        <path
            d="M83.0641 121.901C74.4383 121.983 69.6585 116.352 69.6585 116.352C69.6585 116.352 64.9891 122.072 56.3633 122.154C56.3633 122.154 55.0873 138.978 69.9614 147.875C84.661 138.697 83.0641 121.901 83.0641 121.901Z"
            fill="#4129A3"
        />
    </g>
    <path
        d="M101.317 54.3252H52.0928V62.7977C52.1997 62.8548 52.3031 62.9118 52.4136 62.9653C61.1784 67.4279 71.3939 68.0944 76.7049 68.0944C82.0158 68.0944 92.2313 67.4279 100.996 62.9653C101.103 62.9118 101.21 62.8512 101.317 62.7977V54.3252Z"
        fill="#4129A3"
    />
    <path
        d="M66.5043 14.2491L58.7731 9.28391C56.0927 7.56231 52.5355 9.22331 52.1291 12.3814L50.2578 26.9526L66.5079 14.2491H66.5043Z"
        fill="#6D4AFF"
    />
    <path
        d="M56.6377 15.1413L60.391 17.5544L54.271 21.6677L55.0124 15.8969C55.1122 15.1235 55.9819 14.7207 56.6342 15.1413H56.6377Z"
        fill="#4A2DC5"
    />
    <path
        d="M76.7054 12.3193C58.83 12.3193 44.3372 27.3504 44.3372 42.221C44.3372 57.0916 61.9844 62.3918 76.7054 62.3918C91.4263 62.3918 109.074 57.0916 109.074 42.221C109.074 27.3504 94.5808 12.3193 76.7054 12.3193Z"
        fill="#6D4AFF"
    />
    <path
        d="M95.4585 48.1441C100.811 45.8357 103.489 40.1134 101.44 35.363C99.3912 30.6126 93.3915 28.633 88.0391 30.9414C82.6868 33.2498 80.0088 38.972 82.0576 43.7224C84.1064 48.4728 90.1061 50.4524 95.4585 48.1441Z"
        fill="white"
    />
    <path
        d="M71.349 43.719C73.3978 38.9687 70.7197 33.2464 65.3674 30.938C60.0151 28.6296 54.0153 30.6092 51.9665 35.3596C49.9177 40.11 52.5958 45.8323 57.9481 48.1407C63.3004 50.4491 69.3002 48.4694 71.349 43.719Z"
        fill="white"
    />
    <path
        d="M88.7743 46.7942C90.7251 46.7942 92.3066 44.217 92.3066 41.0377C92.3066 37.8585 90.7251 35.2812 88.7743 35.2812C86.8234 35.2812 85.2419 37.8585 85.2419 41.0377C85.2419 44.217 86.8234 46.7942 88.7743 46.7942Z"
        fill="#4129A3"
    />
    <path
        d="M71.669 37.8191C68.7284 30.6725 57.9711 27.9422 53.1342 34.5221C51.6265 36.6108 51.2593 39.3126 51.8439 41.8469C49.7872 37.9902 51.3413 33.0357 55.0447 30.783C61.0935 26.8301 70.4678 30.644 71.669 37.8227V37.8191Z"
        fill="#372480"
    />
    <path
        d="M81.7422 37.8182C82.9434 30.6395 92.3177 26.8292 98.3665 30.7785C102.07 33.0312 103.624 37.9893 101.567 41.8424C102.155 39.3117 101.785 36.6063 100.277 34.5176C95.4401 27.9377 84.6828 30.668 81.7422 37.8146V37.8182Z"
        fill="#6D4AFF"
    />
    <path
        d="M74.5637 47.9189C75.7471 47.9189 76.7024 48.8778 76.7024 50.0576"
        stroke="white"
        stroke-width="2.42213"
        stroke-miterlimit="10"
        stroke-linecap="round"
    />
    <path
        d="M78.8442 47.9189C77.6608 47.9189 76.7056 48.8778 76.7056 50.0576"
        stroke="white"
        stroke-width="2.42213"
        stroke-miterlimit="10"
        stroke-linecap="round"
    />
    <path
        opacity="0.7"
        d="M90.9276 38.6095C91.6638 38.6095 92.2606 38.0127 92.2606 37.2764C92.2606 36.5402 91.6638 35.9434 90.9276 35.9434C90.1913 35.9434 89.5945 36.5402 89.5945 37.2764C89.5945 38.0127 90.1913 38.6095 90.9276 38.6095Z"
        fill="white"
    />
    <path
        d="M59.3897 46.7942C61.3406 46.7942 62.922 44.217 62.922 41.0377C62.922 37.8585 61.3406 35.2812 59.3897 35.2812C57.4389 35.2812 55.8574 37.8585 55.8574 41.0377C55.8574 44.217 57.4389 46.7942 59.3897 46.7942Z"
        fill="#4129A3"
    />
    <path
        opacity="0.7"
        d="M61.5423 38.6095C62.2785 38.6095 62.8754 38.0127 62.8754 37.2764C62.8754 36.5402 62.2785 35.9434 61.5423 35.9434C60.8061 35.9434 60.2092 36.5402 60.2092 37.2764C60.2092 38.0127 60.8061 38.6095 61.5423 38.6095Z"
        fill="white"
    />
    <path
        d="M95.458 48.1431C100.81 45.8347 103.488 40.1124 101.44 35.362C99.3907 30.6116 93.391 28.632 88.0386 30.9404C82.6863 33.2488 80.0083 38.9711 82.0571 43.7215C84.1059 48.4718 90.1057 50.4515 95.458 48.1431Z"
        fill="white"
    />
    <path
        d="M88.1783 46.7903C90.1291 46.7903 91.7106 44.213 91.7106 41.0338C91.7106 37.8546 90.1291 35.2773 88.1783 35.2773C86.2275 35.2773 84.646 37.8546 84.646 41.0338C84.646 44.213 86.2275 46.7903 88.1783 46.7903Z"
        fill="#4129A3"
    />
    <path
        d="M79.5886 38.349C79.5886 38.349 84.921 39.0048 88.9986 36.6702C93.3757 34.1644 95.4501 30.6143 102.023 31.6194L98.4977 26.1481L81.3566 25.7168L79.5886 27.7057V38.349Z"
        fill="#6D4AFF"
    />
    <path
        opacity="0.7"
        d="M90.3316 38.6085C91.0679 38.6085 91.6647 38.0117 91.6647 37.2755C91.6647 36.5392 91.0679 35.9424 90.3316 35.9424C89.5954 35.9424 88.9985 36.5392 88.9985 37.2755C88.9985 38.0117 89.5954 38.6085 90.3316 38.6085Z"
        fill="white"
    />
    <path
        d="M80.5085 38.4152C90.8417 37.5633 91.2979 31.4825 97.9384 31.4932C98.883 31.5181 99.8061 31.6322 100.704 31.8674C98.8723 32.0813 97.0723 32.3237 95.5574 33.0793C94.0425 33.7993 92.7914 35.0611 91.2516 36.1625C88.2611 38.4366 84.1442 39.4489 80.5085 38.4152Z"
        fill="#372480"
    />
    <path
        d="M95.5461 128.254C100.059 126.557 106.51 127.227 109.515 131.384L108.606 131.947C106.015 127.994 99.8626 127.185 95.5461 128.254Z"
        fill="white"
    />
    <path
        d="M57.8141 128.254C53.5011 127.185 47.3454 127.994 44.7541 131.947L43.8452 131.384C46.85 127.227 53.298 126.557 57.8141 128.254Z"
        fill="white"
    />
    <path
        d="M101.317 54.3252H52.0928V62.7977C52.1997 62.8548 52.3031 62.9118 52.4136 62.9653C61.1784 67.4279 71.3939 68.0944 76.7049 68.0944C82.0158 68.0944 92.2313 67.4279 100.996 62.9653C101.103 62.9118 101.21 62.8512 101.317 62.7977V54.3252Z"
        fill="#4129A3"
    />
    <path
        d="M66.504 14.2491L58.7729 9.28391C56.0925 7.56231 52.5352 9.22331 52.1289 12.3814L50.2576 26.9526L66.5076 14.2491H66.504Z"
        fill="#6D4AFF"
    />
    <path
        d="M56.6375 15.1413L60.3908 17.5544L54.2708 21.6677L55.0121 15.8969C55.1119 15.1235 55.9817 14.7207 56.6339 15.1413H56.6375Z"
        fill="#4A2DC5"
    />
    <path
        d="M76.7051 12.3193C58.8297 12.3193 44.3369 27.3504 44.3369 42.221C44.3369 57.0916 61.9842 62.3918 76.7051 62.3918C91.426 62.3918 109.073 57.0916 109.073 42.221C109.073 27.3504 94.5805 12.3193 76.7051 12.3193Z"
        fill="#6D4AFF"
    />
    <path
        d="M95.4582 48.1441C100.811 45.8357 103.489 40.1134 101.44 35.363C99.391 30.6126 93.3912 28.633 88.0389 30.9414C82.6866 33.2498 80.0085 38.972 82.0573 43.7224C84.1061 48.4728 90.1059 50.4524 95.4582 48.1441Z"
        fill="white"
    />
    <path
        d="M71.3487 43.719C73.3975 38.9687 70.7195 33.2464 65.3672 30.938C60.0148 28.6296 54.015 30.6092 51.9663 35.3596C49.9175 40.11 52.5955 45.8323 57.9478 48.1407C63.3001 50.4491 69.2999 48.4694 71.3487 43.719Z"
        fill="white"
    />
    <path
        d="M93.5684 44.1927C95.5193 44.1927 97.1007 41.6154 97.1007 38.4362C97.1007 35.257 95.5193 32.6797 93.5684 32.6797C91.6176 32.6797 90.0361 35.257 90.0361 38.4362C90.0361 41.6154 91.6176 44.1927 93.5684 44.1927Z"
        fill="#4129A3"
    />
    <path
        d="M71.6688 37.8191C68.7281 30.6725 57.9708 27.9422 53.1339 34.5221C51.6262 36.6108 51.2591 39.3126 51.8436 41.8469C49.787 37.9902 51.3411 33.0357 55.0445 30.783C61.0932 26.8301 70.4676 30.644 71.6688 37.8227V37.8191Z"
        fill="#372480"
    />
    <path
        d="M81.7419 37.8182C82.9431 30.6395 92.3175 26.8292 98.3663 30.7785C102.07 33.0312 103.624 37.9893 101.567 41.8424C102.155 39.3117 101.784 36.6063 100.277 34.5176C95.4399 27.9377 84.6826 30.668 81.7419 37.8146V37.8182Z"
        fill="#372480"
    />
    <path
        d="M74.5635 47.9189C75.7469 47.9189 76.7021 48.8778 76.7021 50.0576"
        stroke="white"
        stroke-width="2.42213"
        stroke-miterlimit="10"
        stroke-linecap="round"
    />
    <path
        d="M78.844 47.9189C77.6606 47.9189 76.7053 48.8778 76.7053 50.0576"
        stroke="white"
        stroke-width="2.42213"
        stroke-miterlimit="10"
        stroke-linecap="round"
    />
    <path
        opacity="0.7"
        d="M95.721 36.0089C96.4573 36.0089 97.0541 35.4121 97.0541 34.6759C97.0541 33.9396 96.4573 33.3428 95.721 33.3428C94.9848 33.3428 94.3879 33.9396 94.3879 34.6759C94.3879 35.4121 94.9848 36.0089 95.721 36.0089Z"
        fill="white"
    />
    <path
        d="M64.18 44.1927C66.1309 44.1927 67.7123 41.6154 67.7123 38.4362C67.7123 35.257 66.1309 32.6797 64.18 32.6797C62.2292 32.6797 60.6477 35.257 60.6477 38.4362C60.6477 41.6154 62.2292 44.1927 64.18 44.1927Z"
        fill="#4129A3"
    />
    <path
        opacity="0.7"
        d="M66.3365 36.0089C67.0727 36.0089 67.6696 35.4121 67.6696 34.6759C67.6696 33.9396 67.0727 33.3428 66.3365 33.3428C65.6003 33.3428 65.0034 33.9396 65.0034 34.6759C65.0034 35.4121 65.6003 36.0089 66.3365 36.0089Z"
        fill="white"
    />
    <path
        d="M78.0418 77.6574C81.8962 77.6574 85.0209 74.5327 85.0209 70.6783C85.0209 66.8239 81.8962 63.6992 78.0418 63.6992C74.1874 63.6992 71.0627 66.8239 71.0627 70.6783C71.0627 74.5327 74.1874 77.6574 78.0418 77.6574Z"
        fill="#FC8F00"
    />
    <path d="M76.7051 77.6582H78.0417V63.7036H76.7051V77.6582Z" fill="#FC8F00" />
    <path
        d="M76.7051 77.6574C80.5596 77.6574 83.6842 74.5327 83.6842 70.6783C83.6842 66.8239 80.5596 63.6992 76.7051 63.6992C72.8507 63.6992 69.7261 66.8239 69.7261 70.6783C69.7261 74.5327 72.8507 77.6574 76.7051 77.6574Z"
        fill="#FFAC2E"
    />
    <path
        d="M76.7051 71.8277C77.904 71.8277 78.8759 70.8559 78.8759 69.657C78.8759 68.4582 77.904 67.4863 76.7051 67.4863C75.5063 67.4863 74.5344 68.4582 74.5344 69.657C74.5344 70.8559 75.5063 71.8277 76.7051 71.8277Z"
        fill="#372580"
    />
    <path
        d="M76.7051 73.0476V69.6543"
        stroke="#372580"
        stroke-width="5.4837"
        stroke-miterlimit="10"
        stroke-linecap="round"
    />
    <path
        d="M63.1743 130.499C64.429 130.032 65.8013 130.028 67.0951 130.199C65.926 130.438 64.7462 130.823 63.8195 131.568L63.1743 130.499Z"
        fill="white"
    />
    <path
        d="M61.3321 115.286C62.4335 119.585 63.346 124.678 63.5456 130.192C63.5456 130.192 63.567 130.987 63.4957 131.034C60.8438 132.844 61.1575 134.844 61.6351 135.942C63.0787 139.242 73.6328 140.18 76.1814 136.127C76.6697 135.35 76.7053 134.933 76.7053 133.133V115.204"
        stroke="white"
        stroke-width="3.39098"
        stroke-miterlimit="10"
    />
    <path
        d="M54.5991 97.4688C55.7504 100.056 57.5789 103.539 58.691 106.102C59.96 109.035 61.0328 112.054 61.9382 115.13L60.7299 115.44C60.0384 112.361 59.1794 109.313 58.11 106.33C57.1797 103.731 55.5686 100.096 54.5991 97.4688Z"
        fill="white"
    />
    <path
        d="M49.6548 79.3516C49.8259 82.0997 50.3356 84.8621 50.9629 87.5889C49.94 84.9797 49.0168 82.3136 48.418 79.5191L49.6548 79.3516Z"
        fill="white"
    />
    <path
        d="M92.0749 115.286C90.9735 119.585 90.061 124.678 89.8614 130.192C89.8614 130.192 89.84 130.987 89.9113 131.034C92.5632 132.844 92.2495 134.844 91.7719 135.942C90.3283 139.242 79.7742 140.18 77.2256 136.127C76.7373 135.35 76.7017 134.933 76.7017 133.133C76.7017 131.932 76.7017 124.254 76.7017 115.204"
        stroke="white"
        stroke-width="3.39098"
        stroke-miterlimit="10"
    />
    <path
        d="M98.8078 97.4688C97.8312 100.114 96.2308 103.721 95.2969 106.33C94.2311 109.313 93.3686 112.361 92.6771 115.44L91.4688 115.13C92.3741 112.054 93.447 109.032 94.7159 106.102C95.8209 103.553 97.6601 100.039 98.8078 97.4688Z"
        fill="white"
    />
    <path
        d="M104.992 79.5191C104.39 82.3136 103.47 84.9797 102.447 87.5889C103.074 84.8585 103.584 82.0961 103.755 79.3516L104.992 79.5191Z"
        fill="white"
    />
    <path
        d="M89.5901 131.568C88.6634 130.827 87.4836 130.438 86.3145 130.199C87.6083 130.028 88.9806 130.032 90.2353 130.499L89.5901 131.568Z"
        fill="white"
    />
    <path d="M76.0813 115.202L76.6801 90.0869L77.3288 115.202H76.0813Z" fill="white" />
    <path
        d="M72.6951 1.24754C78.5728 1.24754 87.9721 4.55885 95.9777 9.63098C96.8724 8.54027 98.209 7.39254 100.073 6.96125C100.141 6.94699 100.209 6.93986 100.276 6.93986C100.683 6.93986 101.046 7.21789 101.143 7.63135C101.253 8.11255 100.954 8.59018 100.476 8.70067C99.1714 9.00364 98.1841 9.81276 97.4855 10.6183C102.468 13.9938 106.756 18.0465 109.073 22.3772C114.48 32.493 109.943 33.4161 108.1 33.4161C107.687 33.4161 107.409 33.3698 107.409 33.3698C108.489 36.2463 109.073 39.2368 109.073 42.2237C109.073 48.4436 105.987 52.9882 101.317 56.1712V62.801C101.317 62.801 105.434 67.4703 103.666 80.0526C103.666 80.0526 105.434 87.5592 110.749 99.1328C117.161 113.102 113.85 125.787 108.261 131.398C109.034 132.759 108.902 133.953 108.902 133.953C108.902 133.953 108.81 136.655 106.079 136.655H91.3012C90.0858 138.024 87.3234 138.858 84.4826 138.858C81.6418 138.858 78.7902 138.045 77.229 136.128C76.7871 135.586 76.7158 135.176 76.7051 134.217C76.6944 135.176 76.6231 135.586 76.1811 136.128C74.6199 138.045 71.7363 138.858 68.9276 138.858C66.1188 138.858 63.3244 138.024 62.1089 136.655H47.331C44.5971 136.655 44.508 133.953 44.508 133.953C44.508 133.953 44.3796 132.759 45.1496 131.398C39.557 125.787 36.2457 113.102 42.6616 99.1328C47.9761 87.5592 49.744 80.0526 49.744 80.0526C47.9797 67.4703 52.093 62.801 52.093 62.801V56.1712C47.4236 52.9882 44.3369 48.4436 44.3369 42.2237C44.3369 36.3461 46.6038 30.4399 50.4462 25.4497L52.1251 12.3791C52.4173 10.0908 54.3671 8.59018 56.438 8.59018C57.2257 8.59018 58.0312 8.8076 58.7691 9.28167L66.2436 14.0793C66.3149 14.0544 66.3897 14.0294 66.461 14.0045C66.2258 12.5395 65.1529 4.75133 68.204 2.37745C69.202 1.60397 70.7561 1.24397 72.6951 1.24397M63.4955 131.034C63.5275 131.013 63.5418 130.82 63.5454 130.617L63.4955 131.034ZM89.9147 131.034L89.8648 130.617C89.8684 130.82 89.879 131.013 89.9147 131.034ZM72.6951 0C70.3997 0 68.6317 0.470499 67.4377 1.39724C64.7644 3.47528 64.6681 8.47612 64.9355 11.7625L59.4392 8.23374C58.5338 7.65274 57.493 7.34264 56.4344 7.34264C53.6292 7.34264 51.2411 9.4385 50.8847 12.2187L49.2486 24.9578C45.2743 30.2296 43.0858 36.3461 43.0858 42.2202C43.0858 48.0943 45.6949 53.1023 50.8419 56.8163V62.3839C49.8617 63.8132 46.9923 69.0672 48.4716 79.9777C48.1401 81.2823 46.2224 88.3719 41.5246 98.6088C38.4948 105.21 37.3329 112.107 38.1634 118.555C38.8335 123.741 40.8188 128.45 43.6561 131.633C43.2034 132.809 43.2355 133.768 43.2569 134.028C43.3246 135.596 44.4581 137.899 47.3274 137.899H61.5921C63.1426 139.268 65.8765 140.102 68.924 140.102C72.1997 140.102 74.987 139.125 76.7015 137.404C78.416 139.125 81.2033 140.102 84.479 140.102C87.523 140.102 90.2604 139.268 91.8109 137.899H106.076C108.945 137.899 110.075 135.6 110.146 134.028C110.168 133.764 110.203 132.809 109.747 131.633C112.584 128.45 114.573 123.741 115.24 118.555C116.07 112.107 114.908 105.21 111.878 98.6088C107.181 88.3754 105.263 81.2823 104.931 79.9777C106.414 69.0422 103.548 63.8132 102.561 62.3839V56.8163C107.708 53.1023 110.317 48.1941 110.317 42.2202C110.317 39.6895 109.922 37.1231 109.137 34.5781C110.51 34.3536 111.586 33.6728 112.228 32.6035C113.554 30.39 112.88 26.8505 110.171 21.7855C108.107 17.9253 104.425 14.0366 99.4744 10.4793C99.8807 10.2013 100.308 10.0124 100.754 9.909C101.902 9.64523 102.622 8.49394 102.358 7.34264C102.133 6.366 101.274 5.6852 100.276 5.6852C100.116 5.6852 99.9556 5.70302 99.7952 5.73867C98.3088 6.08085 96.933 6.86145 95.7603 8.01631C87.858 3.20082 78.7011 0 72.6951 0Z"
        fill="white"
    />
    <path
        d="M95.3649 13.2094C95.2544 13.2094 95.1439 13.1881 95.037 13.1453C94.5807 12.9635 94.3562 12.4467 94.538 11.9904C94.6057 11.8229 96.2132 7.84861 100.073 6.95751C100.555 6.84702 101.032 7.14642 101.143 7.62405C101.253 8.10524 100.954 8.58287 100.476 8.69337C97.5392 9.3706 96.2097 12.6142 96.1954 12.6463C96.0564 12.9956 95.7213 13.2059 95.3649 13.2059V13.2094Z"
        fill="#372480"
    />
    <path
        d="M66.5043 14.2474C66.5043 14.2474 64.8326 5.00492 68.2081 2.38153C74.3495 -2.39475 101.703 8.5907 109.074 22.3742C115.693 34.7569 107.409 33.3668 107.409 33.3668C107.409 33.3668 95.3651 16.4359 66.5043 14.2438V14.2474Z"
        fill="#372480"
    />
    <path
        d="M65.5482 25.1163C65.4876 24.4177 65.9581 23.9864 66.589 23.8046C67.0702 23.6656 67.7261 23.8046 68.0183 23.2985C68.3427 22.746 67.9613 22.3004 67.9185 21.7979C67.8187 20.5503 68.7063 20.3186 68.8346 19.3634C68.8631 19.1424 68.8346 18.9036 68.8667 18.679C69.0805 17.1356 70.8805 16.38 72.2421 16.936C73.5004 17.4529 73.6964 18.9321 74.8049 19.4489C75.999 20.005 77.1432 19.1852 78.4905 20.1012C80.1373 21.2169 79.8592 23.5301 78.159 24.4498C77.2893 24.9203 76.0061 24.6387 75.7851 25.986C75.5891 27.1729 76.6869 28.1068 75.7638 29.1904C74.9261 30.1777 74.003 29.4078 73.0263 29.4648C72.4631 29.5005 71.9178 29.8427 71.376 29.9389C70.0572 30.1706 69.0235 29.0835 69.1768 27.7718C69.2516 27.1373 69.7079 26.4922 69.0984 25.8898C68.3712 25.1733 67.6298 26.182 66.892 26.2284C66.2076 26.2712 65.6088 25.8078 65.5482 25.1127V25.1163Z"
        fill="#FFAC2E"
    />
    <path
        d="M75.9883 24.3815C76.2734 24.3138 76.4766 24.713 76.5194 25.2762C76.5835 26.1352 76.1986 27.6572 76.1308 28.6623C75.999 30.662 76.8081 32.4691 76.4303 34.4402C76.0774 36.2759 74.8869 35.7519 74.8833 33.9091C74.8797 31.9238 75.6675 30.3198 75.5748 28.2774C75.532 27.3114 75.3324 26.6413 75.4215 25.5863C75.4679 25.0088 75.7031 24.4528 75.9918 24.3851L75.9883 24.3815Z"
        fill="#FFAC2E"
    />
</svg>
