<svg width="80" height="36" viewBox="0 0 80 36" fill="none" xmlns="http://www.w3.org/2000/svg">
    <path
        d="M70.7237 29.4186C68.9414 29.4186 67.3416 29.0965 65.9244 28.4523C64.5072 27.8081 63.3905 26.8633 62.5746 25.6178C61.7586 24.3724 61.3506 22.8585 61.3506 21.0762C61.3506 19.3154 61.7586 17.8123 62.5746 16.5668C63.3905 15.2999 64.5072 14.3336 65.9244 13.6679C67.3416 13.0023 68.9414 12.6694 70.7237 12.6694C72.5059 12.6694 74.095 13.0023 75.4907 13.6679C76.8865 14.3336 77.9816 15.2999 78.7761 16.5668C79.5921 17.8123 80.0001 19.3154 80.0001 21.0762C80.0001 22.8585 79.5921 24.3724 78.7761 25.6178C77.9816 26.8633 76.8865 27.8081 75.4907 28.4523C74.095 29.0965 72.5059 29.4186 70.7237 29.4186ZM70.7237 26.4875C71.7544 26.4875 72.6992 26.2835 73.5581 25.8755C74.4171 25.4675 75.0935 24.8555 75.5874 24.0395C76.1027 23.2235 76.3604 22.2358 76.3604 21.0762C76.3604 19.9167 76.1027 18.9289 75.5874 18.1129C75.0935 17.2969 74.4171 16.6742 73.5581 16.2447C72.7207 15.7938 71.7759 15.5683 70.7237 15.5683C69.6715 15.5683 68.7159 15.7831 67.857 16.2125C66.9981 16.642 66.3002 17.2647 65.7633 18.0807C65.248 18.8967 64.9903 19.8952 64.9903 21.0762C64.9903 22.2358 65.248 23.2235 65.7633 24.0395C66.2787 24.8555 66.9658 25.4675 67.8248 25.8755C68.7052 26.2835 69.6715 26.4875 70.7237 26.4875Z"
        fill="#0C0C14"
    />
    <path
        d="M30.0078 13.0237H33.5831V29.0643H30.0078V13.0237ZM40.3472 12.6694C41.2705 12.6694 42.1187 12.7983 42.8918 13.056C43.6863 13.3136 44.3627 13.7109 44.921 14.2477C45.5008 14.7631 45.941 15.4073 46.2416 16.1803C46.5637 16.9534 46.7248 17.866 46.7248 18.9182V29.0643H43.1495V19.6268C43.1495 18.3169 42.8274 17.3506 42.1832 16.7279C41.5604 16.0837 40.5727 15.7616 39.2198 15.7616C38.1891 15.7616 37.2443 15.9871 36.3854 16.438C35.5479 16.8675 34.8608 17.4365 34.3239 18.1451C33.7871 18.8323 33.4757 19.5946 33.3899 20.432L33.3576 18.6927C33.465 17.8982 33.7012 17.1466 34.0663 16.438C34.4313 15.7079 34.9145 15.0637 35.5157 14.5054C36.117 13.9256 36.8256 13.4747 37.6416 13.1526C38.4575 12.8305 39.3594 12.6694 40.3472 12.6694ZM53.1345 12.6694C54.0793 12.6694 54.9383 12.7983 55.7113 13.056C56.4844 13.3136 57.15 13.7109 57.7083 14.2477C58.2881 14.7631 58.739 15.4073 59.0611 16.1803C59.3832 16.9534 59.5443 17.866 59.5443 18.9182V29.0643H55.9368V19.6268C55.9368 18.3169 55.6147 17.3506 54.9705 16.7279C54.3478 16.0837 53.36 15.7616 52.0072 15.7616C50.9765 15.7616 50.0316 15.9871 49.1727 16.438C48.3352 16.8675 47.6481 17.4365 47.1113 18.1451C46.5959 18.8323 46.2953 19.5946 46.2094 20.432L46.145 18.6283C46.2523 17.8552 46.4993 17.1144 46.8858 16.4058C47.2723 15.6757 47.7662 15.0315 48.3675 14.4732C48.9687 13.9149 49.6666 13.4747 50.4611 13.1526C51.2771 12.8305 52.1682 12.6694 53.1345 12.6694Z"
        fill="#0C0C14"
    />
    <path
        d="M27.3478 29.064H23.7725V13.0234H27.3478V29.064ZM23.9658 21.4302L23.998 22.4609C23.955 22.7401 23.8584 23.1588 23.7081 23.7171C23.5792 24.2754 23.3538 24.8874 23.0317 25.5531C22.731 26.1973 22.3231 26.82 21.8077 27.4213C21.3138 28.001 20.6911 28.4842 19.9395 28.8707C19.188 29.2358 18.2753 29.4183 17.2017 29.4183C16.4286 29.4183 15.6449 29.3109 14.8504 29.0962C14.0773 28.9029 13.3687 28.5701 12.7245 28.0977C12.1018 27.6253 11.5972 26.9811 11.2106 26.1651C10.8241 25.3491 10.6309 24.3184 10.6309 23.0729V13.0234H14.2062V22.3965C14.2062 23.4058 14.3672 24.2003 14.6893 24.7801C15.0329 25.3384 15.5053 25.7356 16.1065 25.9718C16.7078 26.208 17.4057 26.3261 18.2002 26.3261C19.3383 26.3261 20.3046 26.0684 21.0991 25.5531C21.8936 25.0377 22.5271 24.4043 22.9995 23.6527C23.4933 22.8797 23.8154 22.1388 23.9658 21.4302Z"
        fill="#0C0C14"
    />
    <path d="M4 6.58154H7.5753V29.0641H4V6.58154Z" fill="#0C0C14" />
</svg>
