<svg width="56" height="56" viewBox="0 0 56 56" fill="none" xmlns="http://www.w3.org/2000/svg">
    <mask id="mask0_13893_7623" style="mask-type: alpha" maskUnits="userSpaceOnUse" x="0" y="0" width="56" height="56">
        <circle cx="28" cy="28" r="28" fill="#292733" />
    </mask>
    <g mask="url(#mask0_13893_7623)">
        <ellipse cx="28" cy="29.5" rx="28" ry="28.5" fill="#292733" />
        <path d="M31.061 81.687H21.6669L12.0376 52.5859H31.061V81.687Z" fill="#E7E1FF" />
        <path
            d="M43.4082 43.7961C43.4082 43.7961 45.7709 52.3977 51.9636 55.5402C69.4202 64.3974 67.3831 77.1618 67.3831 77.1618L51.3735 72.0284L38.9271 76.06L24.5476 73.2139L23.4806 41.6753L42.4333 39.5518L43.4082 43.7961Z"
            fill="#E7E1FF"
        />
        <path
            d="M22.6664 63.4103C20.2215 63.4103 18.2395 61.427 18.2395 58.9805C18.2395 56.534 20.2215 54.5508 22.6664 54.5508C25.1113 54.5508 27.0933 56.534 27.0933 58.9805C27.0933 61.427 25.1113 63.4103 22.6664 63.4103Z"
            fill="#FFAC2E"
        />
        <path d="M31.3467 81.7053H21.9525L12.9108 41.1631L31.3467 44.1949V81.7053Z" fill="#E7E1FF" />
        <path
            d="M13.8382 39.3193C13.8382 39.3193 9.87325 51.8842 12.5931 62.8454C14.8428 71.9131 15.9212 82.9241 15.1616 86.0575C15.1616 86.0575 12.1523 86.6661 11.9488 89.1321C11.7453 91.5981 15.5437 91.6275 15.5437 91.6275C15.5437 91.6275 17.6893 91.8877 19.7761 91.1343C21.8629 90.3809 23.8345 81.3857 23.8345 81.3857"
            fill="#E7E1FF"
        />
        <path
            d="M13.8382 39.3193C13.8382 39.3193 9.87325 51.8842 12.5931 62.8454C14.8428 71.9131 15.9212 82.9241 15.1616 86.0575C15.1616 86.0575 12.1523 86.6661 11.9488 89.1321C11.7453 91.5981 15.5437 91.6275 15.5437 91.6275C15.5437 91.6275 17.6893 91.8877 19.7761 91.1343C21.8629 90.3809 23.8345 81.3857 23.8345 81.3857"
            fill="url(#paint0_linear_13893_7623)"
        />
        <path
            d="M7.40775 31.6881C7.40775 41.1268 18.6016 44.491 27.9392 44.491C36.1464 44.491 48.4707 41.1268 48.4707 31.6881C48.4707 22.2495 39.2778 12.709 27.9392 12.709C16.6007 12.709 7.40775 22.2495 7.40775 31.6881Z"
            fill="#E7E1FF"
        />
        <path
            d="M21.4706 14.6685L12.9106 9.53467C11.0615 8.55274 8.98412 10.0242 9.03014 12.2796L9.03014 24.7987L21.4706 14.6685Z"
            fill="#E7E1FF"
        />
        <path
            d="M21.4706 14.6685L12.9106 9.53467C11.0615 8.55274 8.98412 10.0242 9.03014 12.2796L9.03014 24.7987L21.4706 14.6685Z"
            fill="url(#paint1_linear_13893_7623)"
        />
        <path
            d="M35.5282 14.0401L42.0474 9.96602C43.8506 8.84647 45.9932 10.2619 46.0494 12.6061L46.3068 23.422L35.5282 14.0401Z"
            fill="#E7E1FF"
        />
        <path
            d="M35.5282 14.0401L42.0474 9.96602C43.8506 8.84647 45.9932 10.2619 46.0494 12.6061L46.3068 23.422L35.5282 14.0401Z"
            fill="url(#paint2_linear_13893_7623)"
        />
        <mask
            id="mask1_13893_7623"
            style="mask-type: luminance"
            maskUnits="userSpaceOnUse"
            x="7"
            y="12"
            width="42"
            height="33"
        >
            <path
                d="M7.40873 31.6891C7.40873 41.1278 18.6026 44.4919 27.9402 44.4919C36.1474 44.4919 48.4717 41.1278 48.4717 31.6891C48.4717 22.2504 39.2788 12.71 27.9402 12.71C16.6017 12.71 7.40873 22.2504 7.40873 31.6891Z"
                fill="white"
            />
        </mask>
        <g mask="url(#mask1_13893_7623)">
            <path
                d="M18.9671 14.3898C27.9407 14.6432 30.1745 19.0888 30.1745 19.0888C32.9645 14.7948 38.0854 14.4871 38.0854 14.4871C38.0854 14.4871 33.6473 10.9329 29.3628 10.9171C24.1197 10.899 18.9693 14.3898 18.9693 14.3898H18.9671Z"
                fill="#E7E1FF"
            />
        </g>
        <path
            d="M21.6229 34.5192C22.7157 34.5007 23.7924 34.3771 24.811 33.9349C26.4136 33.2392 27.3968 31.939 28.0554 30.3287C28.6264 28.9323 28.9155 27.4665 29.0661 25.9647C29.1273 25.352 29.415 25.0967 30.0046 25.0885C30.3274 25.0843 30.6502 25.086 30.9726 25.0871C31.709 25.09 31.9654 25.3577 32.0321 26.1196C32.1775 27.7819 32.5646 29.3788 33.2782 30.8841C34.249 32.9313 35.8328 34.077 38.0078 34.3825C39.28 34.5612 40.543 34.5762 41.8009 34.2732C43.6799 33.8203 44.9398 32.6521 45.5895 30.7723C46.0505 29.4386 46.2595 28.054 46.3888 26.6508C46.4396 26.099 46.6748 25.8448 47.2083 25.7782C48.1626 25.6596 48.088 25.435 48.0825 24.7062C48.0794 24.3102 48.0835 23.9143 48.0811 23.5188C48.0787 23.1207 47.9594 22.9523 47.5844 22.8772C46.3145 22.6223 45.0457 22.3602 43.771 22.1334C42.3402 21.8782 40.8978 21.7222 39.4433 21.7689C37.4093 21.8344 35.4086 22.1537 33.458 22.7473C32.1229 23.1535 30.7664 23.25 29.403 23.1165C28.6271 23.0406 27.8653 22.7868 27.1025 22.5902C25.0306 22.0569 22.9368 21.6631 20.7951 21.7806C19.4348 21.8554 18.0759 22.0241 16.7263 22.2225C15.6383 22.3823 14.563 22.6415 13.4853 22.8715C13.0666 22.9609 12.9648 23.1168 12.9662 23.5458C12.9679 24.0735 12.9686 24.6015 12.9738 25.1291C12.9772 25.4909 13.1181 25.6561 13.4619 25.718C13.6623 25.754 13.8645 25.7821 14.0618 25.8312C14.4255 25.922 14.5981 26.1399 14.6575 26.5255C14.8239 27.6057 14.9563 28.6941 15.178 29.7622C15.3739 30.7061 15.7101 31.6093 16.2873 32.3929C17.0051 33.3674 17.9776 33.9399 19.1055 34.1995C19.9288 34.3892 20.7765 34.4651 21.6136 34.5918C21.6167 34.5676 21.6201 34.543 21.6232 34.5188L21.6229 34.5192ZM22.3747 23.0196C22.3747 23.0164 22.3747 23.0129 22.3747 23.0097C22.4593 23.0143 22.5438 23.0196 22.6287 23.0239C24.3297 23.1051 25.46 24.2056 25.9475 25.7921C26.0155 26.0142 25.9746 26.23 25.7996 26.3955C25.6216 26.5636 25.4187 26.5988 25.1874 26.5184C24.9186 26.4247 24.8268 26.1926 24.7426 25.9501C24.4954 25.2366 24.054 24.7083 23.3699 24.4181C22.8742 24.2077 22.3503 24.191 21.823 24.191C21.4596 24.191 21.2434 23.9976 21.2224 23.6872C21.1983 23.3333 21.4067 23.0655 21.7662 23.0239C21.9667 23.0004 22.1719 23.0196 22.375 23.0196H22.3747ZM40.5643 23.0143C40.6235 23.0175 40.6829 23.0218 40.7421 23.0235C42.3509 23.0623 43.5331 24.1849 43.9886 25.7903C44.0762 26.0997 43.9425 26.371 43.6668 26.5109C43.4351 26.6284 43.1412 26.5554 42.9683 26.3122C42.8851 26.1951 42.8325 26.0513 42.782 25.9135C42.4729 25.0707 41.9329 24.4829 41.0638 24.2867C40.7613 24.2184 40.4437 24.2155 40.1322 24.1949C39.7637 24.1707 39.5293 23.9766 39.5159 23.6676C39.5004 23.3101 39.7307 23.051 40.1075 23.0171C40.2587 23.0036 40.4121 23.015 40.5643 23.0146V23.0143ZM14.3657 24.4534C14.1549 24.4502 13.9831 24.2697 13.9824 24.0511C13.9817 23.8075 14.1625 23.611 14.3884 23.6103C14.6018 23.6096 14.8002 23.8104 14.7978 24.024C14.7954 24.2433 14.5805 24.4566 14.3657 24.4534ZM46.3121 24.0482C46.319 23.8054 46.5318 23.5964 46.7583 23.6103C46.9659 23.6231 47.1248 23.8089 47.1193 24.0325C47.1134 24.2632 46.9271 24.4619 46.7236 24.4548C46.5008 24.447 46.3066 24.2551 46.3124 24.0478L46.3121 24.0482Z"
            fill="#6D4AFF"
        />
        <path
            d="M32.6143 33.917C32.0326 33.9929 30.8693 34.4481 30.8693 35.662"
            stroke="#1B1340"
            stroke-width="1.00654"
            stroke-linecap="round"
        />
        <path
            d="M29.124 33.917C29.7057 33.9929 30.869 34.4481 30.869 35.662"
            stroke="#1B1340"
            stroke-width="1.00654"
            stroke-linecap="round"
        />
        <path
            d="M14.873 42.9834C18.4144 44.7097 28.6338 47.1264 41.1803 42.9834"
            stroke="#D3C8FD"
            stroke-width="3.43138"
            stroke-linecap="square"
        />
        <path
            d="M24.0729 53.0084C21.7515 53.0084 19.8695 51.1265 19.8695 48.805C19.8695 46.4835 21.7515 44.6016 24.0729 44.6016C26.3944 44.6016 28.2764 46.4835 28.2764 48.805C28.2764 51.1265 26.3944 53.0084 24.0729 53.0084Z"
            fill="#FC8F00"
        />
        <path d="M22.5081 44.6016H24.1182V53.0062H22.5081V44.6016Z" fill="#FC8F00" />
        <path
            d="M22.508 53.0084C20.1865 53.0084 18.3046 51.1265 18.3046 48.805C18.3046 46.4835 20.1865 44.6016 22.508 44.6016C24.8295 44.6016 26.7114 46.4835 26.7114 48.805C26.7114 51.1265 24.8295 53.0084 22.508 53.0084Z"
            fill="#FFAC2E"
        />
        <path
            d="M22.508 49.4966C21.786 49.4966 21.2006 48.9113 21.2006 48.1892C21.2006 47.4672 21.786 46.8818 22.508 46.8818C23.2301 46.8818 23.8154 47.4672 23.8154 48.1892C23.8154 48.9113 23.2301 49.4966 22.508 49.4966Z"
            fill="#372580"
        />
        <path
            d="M22.5073 50.2344V48.1885"
            stroke="#372580"
            stroke-width="0.935556"
            stroke-miterlimit="10"
            stroke-linecap="round"
        />
    </g>
    <defs>
        <linearGradient
            id="paint0_linear_13893_7623"
            x1="24.5099"
            y1="79.5044"
            x2="17.7372"
            y2="91.6709"
            gradientUnits="userSpaceOnUse"
        >
            <stop stop-color="#DAD1FF" stop-opacity="0" />
            <stop offset="1" stop-color="#C0B2FA" />
        </linearGradient>
        <linearGradient
            id="paint1_linear_13893_7623"
            x1="9.98888"
            y1="10.6158"
            x2="13.0349"
            y2="17.1633"
            gradientUnits="userSpaceOnUse"
        >
            <stop offset="0.0912181" stop-color="#AE9CFA" />
            <stop offset="0.85025" stop-color="#DAD1FF" stop-opacity="0" />
        </linearGradient>
        <linearGradient
            id="paint2_linear_13893_7623"
            x1="44.4334"
            y1="10.617"
            x2="39.7058"
            y2="17.7085"
            gradientUnits="userSpaceOnUse"
        >
            <stop offset="0.0912181" stop-color="#AE9CFA" />
            <stop offset="0.748036" stop-color="#DAD1FF" stop-opacity="0" />
        </linearGradient>
    </defs>
</svg>
