<svg width="200" height="122" viewBox="0 0 200 122" fill="none" xmlns="http://www.w3.org/2000/svg">
    <g clip-path="url(#clip0_9067_36623)">
        <path
            d="M179.125 44.9883H55.1233V103.939H179.125V44.9883Z"
            fill="#E4E4E4"
            stroke="#2E2E2E"
            stroke-width="0.532623"
            stroke-miterlimit="10"
        />
        <path
            d="M55.1231 103.939L16.7423 119.843V60.8889L55.1231 44.9883V103.939Z"
            fill="#E4E4E4"
            stroke="#2E2E2E"
            stroke-width="0.532623"
            stroke-miterlimit="10"
        />
        <path
            d="M86.5616 102.539C90.4107 90.3416 90.9256 65.7486 86.6752 45.832L43.1883 50.0575C43.1883 50.0575 30.3521 73.5781 42.5137 102.539H86.5616Z"
            fill="#6D4AFF"
        />
        <path
            d="M86.6751 45.8299C86.6751 45.8299 90.2756 45.8547 94.462 42.3607C98.6485 38.8667 129.214 23.5129 147.38 51.3549C147.38 51.3549 158.295 56.3012 161.832 73.8245C163.582 82.5063 161.764 99.1028 150.732 102.522L54.6183 102.657"
            fill="#6D4AFF"
        />
        <path
            d="M83.7103 49.5983C83.7103 49.5983 77.5461 59.9845 66.1515 59.9845H53.6171C53.6171 59.9845 43.8133 58.6245 39.9465 50.4363C36.0796 42.2481 83.7103 49.5983 83.7103 49.5983Z"
            fill="#4129A3"
        />
        <path
            d="M71.4597 6.87796L79.1615 1.93166C81.8317 0.216615 85.3754 1.8713 85.7802 5.01733L87.6444 19.5331L71.4562 6.87796H71.4597Z"
            fill="#6D4AFF"
        />
        <path
            d="M50.5528 6.87796L42.8511 1.93166C40.1809 0.216615 36.6371 1.8713 36.2323 5.01733L34.3682 19.5331L50.5564 6.87796H50.5528Z"
            fill="#6D4AFF"
        />
        <path
            d="M40.7241 7.76662L44.4631 10.1705L38.3663 14.2682L39.1049 8.51939C39.2043 7.74886 40.0707 7.34762 40.7205 7.76662H40.7241Z"
            fill="#4A2DC5"
        />
        <path
            d="M80.7097 7.76662L76.9707 10.1705L83.0675 14.2682L82.3289 8.51939C82.2295 7.74886 81.3631 7.34762 80.7133 7.76662H80.7097Z"
            fill="#4A2DC5"
        />
        <path
            d="M92.9602 34.7449C92.9602 49.5589 75.3801 54.839 60.7152 54.839C47.8257 54.839 28.4702 49.5589 28.4702 34.7449C28.4702 19.9308 42.9114 4.95703 60.7188 4.95703C78.5261 4.95703 92.9638 19.9308 92.9638 34.7449H92.9602Z"
            fill="#6D4AFF"
        />
        <path
            d="M81.4875 1.24279C83.5505 1.24279 85.4893 2.73768 85.784 5.01731L87.5772 18.9827C90.9789 23.7443 92.9602 29.2552 92.9602 34.7448C92.9602 39.0874 91.4476 42.6099 88.9442 45.4186C90.3717 44.9925 92.3388 44.1261 94.4586 42.3577C96.7489 40.4474 106.926 34.9898 118.654 34.9898C128.369 34.9898 139.146 38.7395 147.377 51.352C147.377 51.352 158.292 56.2983 161.828 73.8216C163.579 82.5033 161.761 99.0999 150.729 102.519L54.6149 102.654L54.6824 102.534H42.5137C33.0366 79.9574 38.7427 60.6906 41.7219 53.2907C41.0543 52.4456 40.4507 51.4976 39.9464 50.4359C33.4058 47.2685 28.4737 42.2228 28.4737 34.7448C28.4737 28.8895 30.7321 23.0058 34.5599 18.0346L36.2323 5.01376C36.5235 2.73413 38.4658 1.23924 40.5288 1.23924C41.3135 1.23924 42.116 1.45584 42.851 1.9281L50.2971 6.7075C53.5674 5.58189 57.0721 4.9534 60.7188 4.9534C64.3654 4.9534 68.14 5.6316 71.5132 6.84243L79.1653 1.93165C79.9003 1.45939 80.7028 1.24279 81.4875 1.24279ZM81.4875 0C80.4329 0 79.3961 0.305371 78.4942 0.887705L71.3499 5.47182C67.895 4.3036 64.3228 3.71416 60.7188 3.71416C57.1147 3.71416 53.8018 4.26099 50.4675 5.34399L43.5221 0.887705C42.6202 0.305371 41.5834 0 40.5288 0C37.7343 0 35.3588 2.08788 35.0002 4.85752L33.3703 17.5482C29.4112 22.7998 27.231 28.8966 27.231 34.7448C27.231 41.7719 31.3037 47.51 39.0161 51.3662C39.389 52.1012 39.8222 52.8114 40.3086 53.486C37.2656 61.3582 31.9642 80.6214 41.3668 103.016L41.6863 103.776H52.5519L52.4808 103.901H54.6113L150.725 103.766H150.913L151.091 103.709C156.403 102.065 160.266 97.4913 162.262 90.4891C164.073 84.1438 163.849 77.5961 163.039 73.5801C161.999 68.4279 159.62 61.0528 154.18 55.1762C151.495 52.2752 149.095 50.8549 148.222 50.3968C144.323 44.5095 139.582 40.1172 134.125 37.3369C129.452 34.9578 124.243 33.7506 118.643 33.7506C112.106 33.7506 106.297 35.4088 102.572 36.7972C98.3326 38.3808 95.0374 40.2521 93.6526 41.4061C93.2727 41.7221 92.9034 42.0062 92.5377 42.2619C93.6384 39.9787 94.1923 37.4647 94.1923 34.7448C94.1923 29.1984 92.314 23.5952 88.7596 18.5175L87.0055 4.85752C86.6611 2.08788 84.282 0 81.4875 0Z"
            fill="white"
        />
        <path
            d="M61.7941 68.741C65.6338 68.741 68.7466 65.6282 68.7466 61.7884C68.7466 57.9487 65.6338 54.8359 61.7941 54.8359C57.9543 54.8359 54.8416 57.9487 54.8416 61.7884C54.8416 65.6282 57.9543 68.741 61.7941 68.741Z"
            fill="#FC8F00"
        />
        <path d="M59.2024 68.7422H61.8655V54.8407H59.2024V68.7422Z" fill="#FC8F00" />
        <path
            d="M59.2023 68.741C63.042 68.741 66.1548 65.6282 66.1548 61.7884C66.1548 57.9487 63.042 54.8359 59.2023 54.8359C55.3625 54.8359 52.2498 57.9487 52.2498 61.7884C52.2498 65.6282 55.3625 68.741 59.2023 68.741Z"
            fill="#FFAC2E"
        />
        <path
            d="M59.2024 62.9304C60.3967 62.9304 61.3648 61.9622 61.3648 60.7679C61.3648 59.5736 60.3967 58.6055 59.2024 58.6055C58.0081 58.6055 57.0399 59.5736 57.0399 60.7679C57.0399 61.9622 58.0081 62.9304 59.2024 62.9304Z"
            fill="#372580"
        />
        <path
            d="M59.2021 64.1535V60.7695"
            stroke="#372580"
            stroke-width="2.00976"
            stroke-miterlimit="10"
            stroke-linecap="round"
        />
        <path d="M140.744 60.8906H16.7423V121.12H140.744V60.8906Z" fill="white" />
        <path
            d="M179.125 105.217L140.744 121.118V60.8889L179.125 44.9883V105.217Z"
            fill="#E4E4E4"
            stroke="#2E2E2E"
            stroke-width="0.532623"
            stroke-miterlimit="10"
        />
        <path
            d="M199.56 69.141L161.179 85.0415L140.744 60.8889L179.125 44.9883L199.56 69.141Z"
            fill="white"
            stroke="#2E2E2E"
            stroke-width="0.532623"
            stroke-miterlimit="10"
        />
        <path d="M140.744 60.8906H16.7423V95.2697H140.744V60.8906Z" fill="#E4E4E4" />
        <path
            d="M140.744 60.8906H16.7423V121.12H140.744V60.8906Z"
            stroke="#2E2E2E"
            stroke-width="0.532623"
            stroke-miterlimit="10"
        />
        <path
            d="M124.478 87.5466H0.47583L16.7421 60.8906H140.744L124.478 87.5466Z"
            fill="white"
            stroke="#2E2E2E"
            stroke-width="0.532623"
            stroke-miterlimit="10"
        />
        <path
            d="M22.4586 111.217V115.549H25.4981V111.402C25.4981 110.997 25.6579 110.61 25.942 110.326C26.226 110.042 26.6131 109.882 27.0143 109.882H30.1284C31.5807 109.882 32.9762 109.303 34.0023 108.273C35.0285 107.244 35.6073 105.848 35.6073 104.396C35.6073 102.94 35.0285 101.545 34.0023 100.515C32.9762 99.485 31.5807 98.9062 30.1284 98.9062H22.4586V104.325H25.4981V101.772H29.926C30.6149 101.772 31.2718 102.045 31.7582 102.532C32.2447 103.018 32.5181 103.679 32.5181 104.367C32.5181 105.056 32.2447 105.717 31.7582 106.203C31.2718 106.69 30.6113 106.963 29.926 106.963H26.7054C26.1479 106.963 25.594 107.073 25.0791 107.286C24.5643 107.499 24.0955 107.812 23.7014 108.209C23.3073 108.604 22.9948 109.072 22.7817 109.591C22.5687 110.106 22.4586 110.659 22.4586 111.217Z"
            fill="url(#paint0_radial_9067_36623)"
        />
        <path
            d="M27.0142 109.886C25.8069 109.886 24.6458 110.365 23.7936 111.221C22.9379 112.077 22.4585 113.238 22.4585 114.445V115.55H25.498V111.402C25.498 110.997 25.6578 110.614 25.9419 110.326C26.2259 110.042 26.613 109.882 27.0142 109.879V109.886Z"
            fill="url(#paint1_linear_9067_36623)"
        />
        <path
            d="M76.5271 39.575C81.8591 37.2753 84.5269 31.5748 82.4859 26.8425C80.4449 22.1102 74.468 20.1381 69.136 22.4377C63.8041 24.7374 61.1362 30.4379 63.1772 35.1702C65.2182 39.9025 71.1952 41.8746 76.5271 39.575Z"
            fill="white"
        />
        <path
            d="M52.5099 35.1692C54.5508 30.4369 51.883 24.7364 46.551 22.4368C41.2191 20.1372 35.2421 22.1092 33.2012 26.8416C31.1602 31.5739 33.828 37.2744 39.16 39.574C44.4919 41.8736 50.4689 39.9015 52.5099 35.1692Z"
            fill="white"
        />
        <path
            d="M76.762 36.7856C78.7054 36.7856 80.2809 34.2181 80.2809 31.051C80.2809 27.8839 78.7054 25.3164 76.762 25.3164C74.8186 25.3164 73.2432 27.8839 73.2432 31.051C73.2432 34.2181 74.8186 36.7856 76.762 36.7856Z"
            fill="#42299D"
        />
        <path
            d="M52.8257 29.2892C49.8962 22.1698 39.1799 19.4499 34.3614 26.0047C32.8594 28.0855 32.4937 30.777 33.076 33.3016C31.0272 29.4596 32.5753 24.524 36.2646 22.2799C42.2904 18.342 51.629 22.1414 52.8257 29.2928V29.2892Z"
            fill="#37247C"
        />
        <path
            d="M62.8604 29.2912C64.057 22.1399 73.3956 18.344 79.4214 22.2783C83.1107 24.5225 84.6588 29.4617 82.61 33.3001C83.1959 30.779 82.8266 28.0839 81.3246 26.0032C76.5062 19.4483 65.7898 22.1683 62.8604 29.2877V29.2912Z"
            fill="#37247C"
        />
        <path
            d="M54.6156 39.3555C55.7945 39.3555 56.7461 40.3106 56.7461 41.486"
            stroke="white"
            stroke-width="0.887705"
            stroke-miterlimit="10"
            stroke-linecap="round"
        />
        <path
            d="M58.8798 39.3555C57.7009 39.3555 56.7493 40.3106 56.7493 41.486"
            stroke="white"
            stroke-width="0.887705"
            stroke-miterlimit="10"
            stroke-linecap="round"
        />
        <path
            opacity="0.7"
            d="M78.9066 28.6326C79.6401 28.6326 80.2346 28.038 80.2346 27.3046C80.2346 26.5711 79.6401 25.9766 78.9066 25.9766C78.1732 25.9766 77.5786 26.5711 77.5786 27.3046C77.5786 28.038 78.1732 28.6326 78.9066 28.6326Z"
            fill="white"
        />
        <path
            d="M46.42 36.7856C48.3634 36.7856 49.9389 34.2181 49.9389 31.051C49.9389 27.8839 48.3634 25.3164 46.42 25.3164C44.4766 25.3164 42.9011 27.8839 42.9011 31.051C42.9011 34.2181 44.4766 36.7856 46.42 36.7856Z"
            fill="#42299D"
        />
        <path
            opacity="0.7"
            d="M48.5681 28.6326C49.3016 28.6326 49.8961 28.038 49.8961 27.3046C49.8961 26.5711 49.3016 25.9766 48.5681 25.9766C47.8347 25.9766 47.2401 26.5711 47.2401 27.3046C47.2401 28.038 47.8347 28.6326 48.5681 28.6326Z"
            fill="white"
        />
    </g>
    <defs>
        <radialGradient
            id="paint0_radial_9067_36623"
            cx="0"
            cy="0"
            r="1"
            gradientUnits="userSpaceOnUse"
            gradientTransform="translate(36.0727 97.4916) scale(16.0196 16.0391)"
        >
            <stop stop-color="#A794F8" />
            <stop offset="1" stop-color="#6851EC" />
        </radialGradient>
        <linearGradient
            id="paint1_linear_9067_36623"
            x1="24.7346"
            y1="114.733"
            x2="24.7346"
            y2="108.366"
            gradientUnits="userSpaceOnUse"
        >
            <stop stop-color="#6E4BF4" />
            <stop offset="1" stop-color="#1C0551" />
        </linearGradient>
        <clipPath id="clip0_9067_36623">
            <rect width="200" height="121.516" fill="white" />
        </clipPath>
    </defs>
</svg>
