<svg width="237" height="314" viewBox="0 0 237 314" fill="none" xmlns="http://www.w3.org/2000/svg">
<path opacity="0.2" d="M99.7936 314C154.908 314 199.587 309.844 199.587 304.718C199.587 299.592 154.908 295.436 99.7936 295.436C44.6791 295.436 0 299.592 0 304.718C0 309.844 44.6791 314 99.7936 314Z" fill="#ECEAF9"/>
<path d="M87.5832 106.91C129.023 106.91 162.617 98.7906 162.617 88.7748C162.617 78.7591 129.023 70.6397 87.5832 70.6397C46.1428 70.6397 12.5488 78.7591 12.5488 88.7748C12.5488 98.7906 46.1428 106.91 87.5832 106.91Z" fill="#FC8F00"/>
<path d="M84.5084 304.798C84.5084 304.798 116.088 305.253 144.999 304.798C173.184 304.349 196.821 298.428 209.055 286.67C251.888 245.524 226.13 213.76 226.13 213.76C226.13 213.76 219.888 204.756 209.055 207.795C198.223 210.834 195.49 224.991 196.216 241.133C196.949 257.275 187.917 273.496 170.963 278.492C151.981 284.086 125.939 282.648 125.939 282.648L82.4443 289.389L84.5084 304.791V304.798Z" fill="#6D4AFF"/>
<path d="M213.461 207.169C221.561 207.169 226.137 213.76 226.137 213.76C226.137 213.76 251.895 245.517 209.062 286.67C196.821 298.428 173.191 304.349 145.006 304.798C135.369 304.947 125.433 305.004 116.472 305.004C98.5509 305.004 84.5155 304.798 84.5155 304.798L82.4514 289.396L125.946 282.656C125.946 282.656 128.956 282.819 133.682 282.819C142.842 282.819 158.444 282.193 170.97 278.499C187.924 273.503 196.949 257.282 196.223 241.14C195.49 224.998 198.23 210.841 209.062 207.802C210.628 207.361 212.094 207.176 213.468 207.176M213.461 204.678C211.796 204.678 210.087 204.92 208.386 205.397C197.724 208.393 192.792 220.45 193.732 241.247C194.073 248.862 192.088 256.464 188.13 262.649C183.91 269.247 177.732 273.901 170.266 276.101C157.81 279.773 142.003 280.321 133.682 280.321C129.092 280.321 126.109 280.157 126.081 280.157L125.818 280.143L125.561 280.186L82.0671 286.926L79.6543 287.296L79.9817 289.716L82.0457 305.118L82.3304 307.246L84.4799 307.275C84.6222 307.275 98.736 307.481 116.472 307.481C126.892 307.481 136.508 307.41 145.042 307.275C175.305 306.798 198.65 300.107 210.785 288.449C220.806 278.819 227.98 268.862 232.101 258.848C235.447 250.727 236.806 242.556 236.144 234.564C235.048 221.361 228.82 213.126 228.123 212.244C227.496 211.382 222.351 204.664 213.461 204.664V204.678Z" fill="white"/>
<mask id="mask0_356_1102" style="mask-type:luminance" maskUnits="userSpaceOnUse" x="82" y="207" width="152" height="98">
<path d="M84.5064 304.795C84.5064 304.795 116.086 305.25 144.997 304.795C173.182 304.347 196.819 298.425 209.053 286.667C251.886 245.522 226.128 213.757 226.128 213.757C226.128 213.757 219.886 204.753 209.053 207.792C198.221 210.832 195.488 224.988 196.214 241.13C196.947 257.272 187.915 273.493 170.961 278.489C151.979 284.083 125.937 282.646 125.937 282.646L82.4424 289.386L84.5064 304.788V304.795Z" fill="white"/>
</mask>
<g mask="url(#mask0_356_1102)">
<path d="M173.988 171.175C200.137 171.175 214.457 153.965 214.457 153.965C214.457 153.965 228.777 171.175 254.927 171.175C254.927 171.175 259.283 222.135 214.457 249.53C169.625 222.135 173.988 171.175 173.988 171.175Z" fill="#4129A3"/>
</g>
<path d="M147.498 297.596C160.587 288.457 169.932 260.913 155.868 230.28C145.256 207.17 141.726 192.18 141.726 192.18L106.58 228.159L114.267 293.98" fill="#6D4AFF"/>
<path d="M28.2743 297.596C15.1855 288.457 5.84034 260.913 19.9043 230.28C30.5163 207.17 34.0465 192.18 34.0465 192.18L69.1921 228.159L61.5054 293.98" fill="#6D4AFF"/>
<path d="M137.028 157.732H46.417V303.78H137.028V157.732Z" fill="#6D4AFF"/>
<path d="M74.7446 305.204C74.7446 305.204 56.9796 285.283 39.6986 287.204C22.4176 289.126 23.592 299.809 23.592 299.809C23.592 299.809 23.7771 305.204 29.229 305.204C36.0403 305.204 74.7375 305.204 74.7375 305.204H74.7446Z" fill="#4129A3"/>
<path d="M101.029 305.204C101.029 305.204 118.794 285.283 136.075 287.204C153.356 289.126 152.182 299.809 152.182 299.809C152.182 299.809 151.997 305.204 146.545 305.204H101.036H101.029Z" fill="#4129A3"/>
<path d="M137.035 157.731C137.035 157.731 154.252 177.247 128.167 235.951C128.167 235.951 115.32 260.549 114.174 292.164C114.174 292.164 114.124 293.887 114.267 293.979C119.562 297.595 118.936 301.588 117.982 303.78C115.1 310.371 95.726 312.492 88.936 304.15C87.7759 302.726 87.8898 301.766 87.8898 298.171C87.8898 295.773 87.8898 280.442 87.8898 262.371V156.927L137.035 157.731Z" fill="#6D4AFF"/>
<mask id="mask1_356_1102" style="mask-type:luminance" maskUnits="userSpaceOnUse" x="87" y="156" width="56" height="154">
<path d="M137.034 157.733C137.034 157.733 154.251 177.248 128.166 235.952C128.166 235.952 115.319 260.55 114.173 292.165C114.173 292.165 114.123 293.888 114.266 293.98C119.561 297.596 118.935 301.589 117.981 303.781C115.099 310.372 95.725 312.493 88.9351 304.151C87.7749 302.728 87.8888 301.767 87.8888 298.172C87.8888 295.774 87.8888 280.443 87.8888 262.372V156.928L137.034 157.733Z" fill="white"/>
</mask>
<g mask="url(#mask1_356_1102)">
<path d="M75.1836 275.743C92.4077 275.907 101.952 264.661 101.952 264.661C101.952 264.661 111.276 276.085 128.5 276.249C128.5 276.249 131.048 309.843 101.347 327.607C71.995 309.28 75.1836 275.743 75.1836 275.743Z" fill="#4129A3"/>
</g>
<path d="M38.7446 157.731C38.7446 157.731 21.5277 177.247 47.6129 235.951C47.6129 235.951 60.4597 260.549 61.6056 292.164C61.6056 292.164 61.6554 293.887 61.5131 293.979C56.2178 297.595 56.8441 301.588 57.7978 303.78C60.6804 310.371 80.0539 312.492 86.8438 304.15C88.004 302.726 87.8901 301.766 87.8901 298.171V156.927L38.7446 157.731Z" fill="#6D4AFF"/>
<mask id="mask2_356_1102" style="mask-type:luminance" maskUnits="userSpaceOnUse" x="33" y="156" width="55" height="154">
<path d="M38.7456 157.733C38.7456 157.733 21.5286 177.248 47.6138 235.952C47.6138 235.952 60.4607 260.55 61.6066 292.165C61.6066 292.165 61.6564 293.888 61.5141 293.98C56.2187 297.596 56.8451 301.589 57.7988 303.781C60.6813 310.372 80.0548 312.493 86.8448 304.151C88.005 302.728 87.8911 301.767 87.8911 298.172V156.928L38.7456 157.733Z" fill="white"/>
</mask>
<g mask="url(#mask2_356_1102)">
<path d="M100.588 275.743C83.3637 275.907 73.8193 264.661 73.8193 264.661C73.8193 264.661 64.4955 276.085 47.2714 276.249C47.2714 276.249 44.7234 309.843 74.4242 327.607C103.776 309.28 100.588 275.743 100.588 275.743Z" fill="#4129A3"/>
</g>
<path d="M137.034 140.807H38.7432V157.725C38.9567 157.839 39.1631 157.953 39.3837 158.06C56.8854 166.971 77.2838 168.302 87.8887 168.302C98.4936 168.302 118.892 166.971 136.394 158.06C136.607 157.953 136.821 157.832 137.034 157.725V140.807Z" fill="#4129A3"/>
<path d="M109.421 60.7892L124.859 50.8747C130.211 47.437 137.314 50.7537 138.126 57.0597L141.862 86.1555L109.414 60.7892H109.421Z" fill="#6D4AFF"/>
<path d="M67.5133 60.7892L52.0757 50.8747C46.7234 47.437 39.6203 50.7537 38.8089 57.0597L35.0723 86.1555L67.5204 60.7892H67.5133Z" fill="#6D4AFF"/>
<path d="M47.8119 62.5689L55.3065 67.3874L43.0859 75.6008L44.5664 64.0778C44.7656 62.5333 46.5023 61.7291 47.8048 62.5689H47.8119Z" fill="#4A2DC5"/>
<path d="M127.962 62.5689L120.468 67.3874L132.688 75.6008L131.208 64.0778C131.009 62.5333 129.272 61.7291 127.969 62.5689H127.962Z" fill="#4A2DC5"/>
<path d="M87.8907 56.9381C52.1971 56.9381 23.2578 86.952 23.2578 116.646C23.2578 146.339 58.4959 156.923 87.8907 156.923C117.285 156.923 152.524 146.339 152.524 116.646C152.524 86.952 123.584 56.9381 87.8907 56.9381Z" fill="#6D4AFF"/>
<path d="M125.332 128.468C136.02 123.859 141.367 112.433 137.276 102.947C133.185 93.4615 121.205 89.5086 110.518 94.118C99.83 98.7274 94.4824 110.154 98.5735 119.639C102.665 129.125 114.645 133.078 125.332 128.468Z" fill="white"/>
<path d="M77.1944 119.633C81.2855 110.147 75.9379 98.7209 65.2504 94.1115C54.5629 89.5021 42.5825 93.455 38.4914 102.941C34.4004 112.426 39.7479 123.852 50.4355 128.462C61.123 133.071 73.1034 129.118 77.1944 119.633Z" fill="white"/>
<path d="M111.99 125.772C115.885 125.772 119.043 120.625 119.043 114.277C119.043 107.929 115.885 102.783 111.99 102.783C108.094 102.783 104.937 107.929 104.937 114.277C104.937 120.625 108.094 125.772 111.99 125.772Z" fill="#4129A3"/>
<path d="M77.8332 107.849C71.9614 93.5788 50.4811 88.1269 40.8229 101.266C37.8122 105.436 37.0791 110.831 38.2464 115.892C34.1396 108.191 37.2428 98.2976 44.6378 93.7995C56.716 85.9063 75.4347 93.5219 77.8332 107.856V107.849Z" fill="#372480"/>
<path d="M97.9395 107.849C100.338 93.5147 119.057 85.9062 131.135 93.7922C138.53 98.2904 141.633 108.191 137.526 115.885C138.701 110.831 137.96 105.429 134.95 101.258C125.292 88.1197 103.811 93.5716 97.9395 107.842V107.849Z" fill="#6D4AFF"/>
<path d="M83.6143 128.02C85.9772 128.02 87.8847 129.935 87.8847 132.291" stroke="white" stroke-width="2.1935" stroke-miterlimit="10" stroke-linecap="round"/>
<path d="M92.1601 128.02C89.7971 128.02 87.8896 129.935 87.8896 132.291" stroke="white" stroke-width="2.1935" stroke-miterlimit="10" stroke-linecap="round"/>
<path opacity="0.7" d="M116.288 109.43C117.758 109.43 118.95 108.238 118.95 106.768C118.95 105.298 117.758 104.106 116.288 104.106C114.818 104.106 113.626 105.298 113.626 106.768C113.626 108.238 114.818 109.43 116.288 109.43Z" fill="white"/>
<path d="M53.3063 125.772C57.2017 125.772 60.3596 120.625 60.3596 114.277C60.3596 107.929 57.2017 102.783 53.3063 102.783C49.4108 102.783 46.2529 107.929 46.2529 114.277C46.2529 120.625 49.4108 125.772 53.3063 125.772Z" fill="#4129A3"/>
<path opacity="0.7" d="M57.6141 109.43C59.0842 109.43 60.2759 108.238 60.2759 106.768C60.2759 105.298 59.0842 104.106 57.6141 104.106C56.1439 104.106 54.9521 105.298 54.9521 106.768C54.9521 108.238 56.1439 109.43 57.6141 109.43Z" fill="white"/>
<path d="M125.331 128.467C136.019 123.858 141.367 112.432 137.275 102.946C133.184 93.4605 121.204 89.5075 110.517 94.1169C99.829 98.7264 94.4815 110.153 98.5725 119.638C102.664 129.124 114.644 133.077 125.331 128.467Z" fill="white"/>
<path d="M110.801 125.769C114.697 125.769 117.855 120.623 117.855 114.274C117.855 107.926 114.697 102.78 110.801 102.78C106.906 102.78 103.748 107.926 103.748 114.274C103.748 120.623 106.906 125.769 110.801 125.769Z" fill="#4129A3"/>
<path d="M93.6475 108.915C93.6475 108.915 104.295 110.224 112.437 105.563C121.177 100.559 125.32 93.4701 138.444 95.4772L131.405 84.5521L97.1777 83.6909L93.6475 87.6624V108.915Z" fill="#6D4AFF"/>
<path opacity="0.7" d="M115.099 109.427C116.57 109.427 117.761 108.235 117.761 106.765C117.761 105.295 116.57 104.103 115.099 104.103C113.629 104.103 112.438 105.295 112.438 106.765C112.438 108.235 113.629 109.427 115.099 109.427Z" fill="white"/>
<path d="M95.4844 109.044C116.118 107.343 117.029 95.2004 130.288 95.2218C132.174 95.2716 134.018 95.4994 135.811 95.9691C132.153 96.3962 128.559 96.8801 125.534 98.389C122.509 99.8267 120.011 102.346 116.936 104.546C110.965 109.086 102.744 111.108 95.4844 109.044Z" fill="#372480"/>
<path d="M125.512 288.428C134.522 285.04 147.405 286.378 153.405 294.677L151.59 295.802C146.415 287.909 134.131 286.293 125.512 288.428Z" fill="white"/>
<path d="M50.1664 288.428C41.5544 286.293 29.2627 287.909 24.0884 295.802L22.2734 294.677C28.2734 286.378 41.1487 285.04 50.1664 288.428Z" fill="white"/>
<path d="M137.034 140.807H38.7432V157.725C38.9567 157.839 39.1631 157.953 39.3837 158.06C56.8854 166.971 77.2838 168.302 87.8887 168.302C98.4936 168.302 118.892 166.971 136.394 158.06C136.607 157.953 136.821 157.832 137.034 157.725V140.807Z" fill="#4129A3"/>
<path d="M109.421 60.7878L124.859 50.8734C130.211 47.4357 137.314 50.7524 138.126 57.0583L141.862 86.1541L109.414 60.7878H109.421Z" fill="#6D4AFF"/>
<path d="M67.5143 60.7878L52.0767 50.8734C46.7244 47.4357 39.6212 50.7524 38.8099 57.0583L35.0732 86.1541L67.5214 60.7878H67.5143Z" fill="#6D4AFF"/>
<path d="M47.8119 62.5676L55.3065 67.3861L43.0859 75.5995L44.5664 64.0765C44.7656 62.532 46.5023 61.7278 47.8048 62.5676H47.8119Z" fill="#4A2DC5"/>
<path d="M127.962 62.5676L120.468 67.3861L132.688 75.5995L131.208 64.0765C131.009 62.532 129.272 61.7278 127.969 62.5676H127.962Z" fill="#4A2DC5"/>
<path d="M87.8907 56.9368C52.1971 56.9368 23.2578 86.9507 23.2578 116.644C23.2578 146.338 58.4959 156.922 87.8907 156.922C117.285 156.922 152.524 146.338 152.524 116.644C152.524 86.9507 123.584 56.9368 87.8907 56.9368Z" fill="#6D4AFF"/>
<path d="M125.332 128.467C136.02 123.858 141.367 112.431 137.276 102.946C133.185 93.4603 121.205 89.5074 110.518 94.1168C99.83 98.7262 94.4824 110.152 98.5735 119.638C102.665 129.124 114.645 133.077 125.332 128.467Z" fill="white"/>
<path d="M77.1944 119.632C81.2855 110.146 75.9379 98.7197 65.2504 94.1103C54.5629 89.5009 42.5825 93.4538 38.4914 102.939C34.4004 112.425 39.7479 123.851 50.4355 128.461C61.123 133.07 73.1034 129.117 77.1944 119.632Z" fill="white"/>
<path d="M116.994 123.492C120.889 123.492 124.047 118.346 124.047 111.997C124.047 105.649 120.889 100.503 116.994 100.503C113.098 100.503 109.94 105.649 109.94 111.997C109.94 118.346 113.098 123.492 116.994 123.492Z" fill="#4129A3"/>
<path d="M77.8332 107.848C71.9614 93.5775 50.4811 88.1256 40.8229 101.264C37.8122 105.435 37.0791 110.83 38.2464 115.89C34.1396 108.189 37.2428 98.2963 44.6378 93.7981C56.716 85.9049 75.4347 93.5205 77.8332 107.855V107.848Z" fill="#372480"/>
<path d="M97.9404 107.848C100.339 93.5133 119.058 85.9049 131.136 93.7909C138.531 98.2891 141.634 108.189 137.527 115.883C138.702 110.83 137.961 105.428 134.951 101.257C125.293 88.1184 103.812 93.5703 97.9404 107.841V107.848Z" fill="#372480"/>
<path d="M83.6143 128.019C85.9772 128.019 87.8847 129.933 87.8847 132.289" stroke="white" stroke-width="2.1935" stroke-miterlimit="10" stroke-linecap="round"/>
<path d="M92.1611 128.019C89.7981 128.019 87.8906 129.933 87.8906 132.289" stroke="white" stroke-width="2.1935" stroke-miterlimit="10" stroke-linecap="round"/>
<path opacity="0.7" d="M121.293 107.157C122.763 107.157 123.955 105.965 123.955 104.495C123.955 103.025 122.763 101.833 121.293 101.833C119.823 101.833 118.631 103.025 118.631 104.495C118.631 105.965 119.823 107.157 121.293 107.157Z" fill="white"/>
<path d="M58.317 123.492C62.2124 123.492 65.3703 118.346 65.3703 111.997C65.3703 105.649 62.2124 100.503 58.317 100.503C54.4215 100.503 51.2637 105.649 51.2637 111.997C51.2637 118.346 54.4215 123.492 58.317 123.492Z" fill="#4129A3"/>
<path opacity="0.7" d="M62.616 107.157C64.0861 107.157 65.2779 105.965 65.2779 104.495C65.2779 103.025 64.0861 101.833 62.616 101.833C61.1459 101.833 59.9541 103.025 59.9541 104.495C59.9541 105.965 61.1459 107.157 62.616 107.157Z" fill="white"/>
<path d="M90.5569 187.397C98.2535 187.397 104.493 181.158 104.493 173.461C104.493 165.765 98.2535 159.525 90.5569 159.525C82.8604 159.525 76.6211 165.765 76.6211 173.461C76.6211 181.158 82.8604 187.397 90.5569 187.397Z" fill="#FC8F00"/>
<path d="M87.8808 187.397H90.5498V159.533H87.8808V187.397Z" fill="#FC8F00"/>
<path d="M87.888 187.397C95.5845 187.397 101.824 181.158 101.824 173.461C101.824 165.765 95.5845 159.525 87.888 159.525C80.1914 159.525 73.9521 165.765 73.9521 173.461C73.9521 181.158 80.1914 187.397 87.888 187.397Z" fill="#FFAC2E"/>
<path d="M87.8882 175.753C90.2821 175.753 92.2227 173.812 92.2227 171.418C92.2227 169.024 90.2821 167.084 87.8882 167.084C85.4943 167.084 83.5537 169.024 83.5537 171.418C83.5537 173.812 85.4943 175.753 87.8882 175.753Z" fill="#372580"/>
<path d="M87.8877 178.202V171.419" stroke="#372580" stroke-width="4.96609" stroke-miterlimit="10" stroke-linecap="round"/>
<path d="M33.8767 190.778C34.2183 196.265 35.2361 201.781 36.4959 207.226C34.4532 202.016 32.6098 196.692 31.4141 191.112L33.8838 190.778H33.8767Z" fill="white"/>
<path d="M144.367 191.112C143.164 196.692 141.328 202.016 139.285 207.226C140.538 201.774 141.556 196.258 141.904 190.778L144.374 191.112H144.367Z" fill="white"/>
<path d="M119.792 262.845C117.611 271.358 115.806 281.434 115.41 292.332L115.411 292.333L115.41 292.334V292.348C115.41 292.358 115.41 292.374 115.409 292.394C115.408 292.434 115.407 292.493 115.406 292.564C115.405 292.707 115.404 292.895 115.407 293.083C115.408 293.146 115.41 293.207 115.412 293.264C117.966 295.128 119.238 297.16 119.682 299.141C120.144 301.206 119.665 303.031 119.122 304.278L119.121 304.281C118.2 306.388 115.956 307.904 113.398 308.918C110.785 309.955 107.578 310.575 104.336 310.72C101.093 310.865 97.7403 310.539 94.835 309.626C92.0362 308.747 89.5238 307.28 88.0146 305.035L87.8867 304.838C86.3942 307.195 83.8175 308.721 80.9375 309.626C78.0321 310.539 74.6793 310.865 71.4365 310.72C68.194 310.575 64.9889 309.955 62.375 308.918C59.8172 307.903 57.5728 306.388 56.6514 304.281L56.6504 304.278C56.1079 303.031 55.6294 301.206 56.0918 299.141C56.5353 297.16 57.8064 295.127 60.3594 293.264C60.3613 293.207 60.3641 293.147 60.3652 293.083C60.3685 292.895 60.3679 292.707 60.3662 292.564C60.3654 292.493 60.3641 292.434 60.3633 292.394C60.3629 292.374 60.3626 292.358 60.3623 292.348V292.345C59.9676 281.442 58.1635 271.361 55.9814 262.845L58.4033 262.225C60.5505 270.605 62.3435 280.497 62.8193 291.215L62.8613 292.254V292.272C62.8614 292.276 62.8621 292.282 62.8623 292.288C62.8626 292.301 62.8628 292.32 62.8633 292.343C62.8634 292.349 62.8632 292.356 62.8633 292.362C64.7872 292 66.7843 292.061 68.6953 292.314C66.4596 292.77 64.2048 293.496 62.3926 294.863C62.3417 294.913 62.2835 294.964 62.2158 295.01L62.2168 295.012C59.776 296.678 58.8348 298.331 58.5312 299.687C58.2219 301.068 58.5318 302.335 58.9424 303.279L59.0508 303.502C59.6494 304.615 61.0817 305.716 63.2969 306.595C65.6039 307.51 68.5267 308.087 71.5488 308.223C74.5706 308.358 77.6214 308.047 80.1885 307.24C82.6107 306.479 84.484 305.318 85.5771 303.794L85.7852 303.484C86.2083 302.811 86.3919 302.371 86.498 301.725C86.5987 301.111 86.6282 300.31 86.6357 298.988C86.6344 298.73 86.6338 298.458 86.6338 298.172V262.371H89.1396V298.172C89.1396 298.458 89.138 298.73 89.1367 298.988C89.144 300.31 89.1738 301.111 89.2744 301.725C89.3805 302.371 89.5642 302.811 89.9873 303.484C91.0415 305.161 93.0014 306.429 95.585 307.24C98.1521 308.047 101.203 308.358 104.225 308.223C107.247 308.087 110.17 307.51 112.477 306.595C114.839 305.658 116.311 304.468 116.831 303.279C117.242 302.335 117.552 301.068 117.242 299.687C116.939 298.331 115.997 296.679 113.556 295.012V295.01C113.486 294.962 113.425 294.91 113.373 294.858C111.562 293.501 109.311 292.77 107.079 292.314C108.99 292.061 110.986 292 112.909 292.362C112.909 292.356 112.91 292.349 112.91 292.343C112.911 292.32 112.911 292.301 112.911 292.288V292.267L112.912 292.254C113.315 281.136 115.154 270.875 117.37 262.225L119.792 262.845ZM43.748 226.955C46.0469 232.122 49.6983 239.076 51.9189 244.193C54.4527 250.051 56.5955 256.079 58.4033 262.222L55.9902 262.841C54.6095 256.692 52.8939 250.607 50.7588 244.649C48.9012 239.461 45.684 232.201 43.748 226.955ZM132.024 226.955C130.074 232.236 126.879 239.44 125.015 244.649C122.887 250.607 121.164 256.692 119.783 262.841L117.37 262.222C119.178 256.079 121.321 250.044 123.854 244.193C126.061 239.104 129.733 232.087 132.024 226.955ZM89.1348 262.365H86.6445L87.8398 212.216L89.1348 262.365Z" fill="white"/>
<path d="M129.519 49.4911C133.655 49.4911 137.541 52.4875 138.131 57.0569L141.726 85.0495C148.544 94.5939 152.516 105.64 152.516 116.643C152.516 129.063 146.352 138.138 137.028 144.494V157.732C137.028 157.732 145.242 167.056 141.719 192.18C141.719 192.18 145.249 207.169 155.861 230.279C168.665 258.172 162.06 283.503 150.893 294.706C152.437 297.425 152.174 299.809 152.174 299.809C152.174 299.809 151.989 305.204 146.537 305.204H117.028C114.601 307.93 109.092 309.595 103.42 309.595C101.932 309.595 100.438 309.481 98.9787 309.239C94.6229 308.656 90.7439 307.04 88.9218 304.143C88.8222 304.015 88.7297 303.894 88.6443 303.773H87.0998C87.0144 303.894 86.929 304.015 86.8222 304.143C85.0002 307.04 81.1212 308.656 76.7654 309.239C75.3063 309.481 73.8116 309.595 72.3241 309.595C66.6516 309.595 61.1427 307.93 58.7157 305.204H29.207C23.748 305.204 23.5701 299.809 23.5701 299.809C23.5701 299.809 23.3138 297.425 24.8512 294.706C13.684 283.503 7.07198 258.172 19.8833 230.279C30.4953 207.169 34.0255 192.18 34.0255 192.18C30.5024 167.056 38.7158 157.732 38.7158 157.732V144.494C29.3992 138.138 23.2284 129.063 23.2284 116.643C23.2284 104.907 27.7551 93.1135 35.4276 83.1491L38.7799 57.0498C39.3635 52.4804 43.2567 49.484 47.3919 49.484C48.9649 49.484 50.5734 49.9182 52.0467 50.8648L66.9718 60.4447C73.5269 58.1885 80.5518 56.9288 87.8614 56.9288C95.1709 56.9288 102.737 58.2882 109.498 60.7152L124.836 50.8719C126.309 49.9253 127.918 49.4911 129.491 49.4911M129.519 47C127.406 47 125.327 47.6121 123.519 48.7723L109.199 57.9608C102.274 55.6192 95.114 54.4377 87.8898 54.4377C80.6657 54.4377 74.0252 55.5338 67.3419 57.7046L53.4204 48.7723C51.6125 47.6121 49.5343 47 47.4204 47C41.8119 47 37.0504 51.185 36.3386 56.7366L33.0718 82.1741C25.1359 92.7006 20.7658 104.914 20.7658 116.643C20.7658 128.373 25.9757 138.373 36.2532 145.789V156.906C34.2959 159.76 28.5665 170.259 31.5202 192.031C30.8583 194.628 27.0291 208.792 17.6484 229.233C11.5986 242.414 9.27836 256.187 10.9367 269.062C12.2748 279.418 16.2392 288.82 21.9046 295.176C21.0007 297.524 21.0647 299.439 21.1074 299.958C21.2427 303.09 23.506 307.688 29.2355 307.688H57.7192C60.8153 310.421 66.2743 312.079 72.3455 312.079C73.9825 312.079 75.6052 311.951 77.1497 311.702C81.8685 311.061 85.6051 309.368 87.8827 306.862C90.1603 309.368 93.8969 311.061 98.6157 311.702C100.167 311.951 101.783 312.079 103.42 312.079C109.491 312.079 114.95 310.421 118.046 307.688H146.53C152.259 307.688 154.516 303.097 154.658 299.958C154.701 299.432 154.772 297.524 153.861 295.176C159.526 288.82 163.498 279.418 164.829 269.062C166.487 256.187 164.167 242.414 158.117 229.233C148.736 208.799 144.907 194.636 144.245 192.031C147.199 170.23 141.477 159.753 139.512 156.899V145.782C149.79 138.366 155 128.565 155 116.636C155 105.519 151.234 94.2878 144.11 84.11L140.594 56.7295C139.889 51.185 135.121 47 129.519 47Z" fill="white"/>
<g clip-path="url(#clip0_356_1102)">
<path d="M89.7516 76.1619C112.845 76.1619 134.031 79.5302 150.633 85.1463C150.988 82.0889 151.197 78.988 151.197 75.8222C151.197 36.0607 122.039 3.83084 86.0798 3.83084C50.1202 3.83084 20.9551 36.0607 20.9551 75.8222C20.9551 79.8915 21.2731 83.8742 21.8586 87.7557C39.2854 80.5927 63.2681 76.1619 89.7444 76.1619H89.7516Z" fill="#FFAC2E"/>
<path d="M162.133 88.9628C159.076 95.5692 126.557 86.6426 87.4605 87.004C48.364 86.6426 15.845 95.5692 12.7876 88.9628C9.39762 82.8695 41.7431 65.3704 87.4605 65.5078C133.178 65.3704 165.523 82.8695 162.133 88.9628Z" fill="#FFAC2E"/>
<path d="M98.2218 0H72.4972C69.4833 0 67.04 2.44326 67.04 5.45717V50.1409C67.04 53.1549 69.4833 55.5981 72.4972 55.5981H98.2218C101.236 55.5981 103.679 53.1549 103.679 50.1409V5.45717C103.679 2.44326 101.236 0 98.2218 0Z" fill="#FFAC2E"/>
<path d="M19.0537 78.417C32.7075 72.8876 47.0046 68.6447 61.7136 67.3292C50.8065 68.7965 40.2247 72.0491 30.0042 76.0535C26.607 77.3979 23.2243 78.829 19.9644 80.3903L19.0609 78.417H19.0537Z" fill="white"/>
<path d="M154.97 80.3831C141.735 74.2537 127.72 69.3386 113.221 67.3292C124.236 68.2616 135.028 71.0155 145.487 74.5211C148.985 75.7138 152.433 76.9787 155.873 78.4098L154.97 80.3831Z" fill="white"/>
<path d="M67.019 6.62088L65.9348 50.7553L64.8506 6.62088H67.019Z" fill="white"/>
<path d="M105.87 6.62088L104.785 50.7553L103.701 6.62088H105.87Z" fill="white"/>
</g>
<defs>
<clipPath id="clip0_356_1102">
<rect width="150.076" height="106.91" fill="white" transform="translate(12.5488)"/>
</clipPath>
</defs>
</svg>
