<svg width="55" height="18" viewBox="0 0 55 18" fill="none" xmlns="http://www.w3.org/2000/svg">
    <path
        fill-rule="evenodd"
        clip-rule="evenodd"
        d="M0.773438 11.2978V0.5H3.9313V11.2978C3.9313 12.845 5.1855 14.0992 6.73263 14.0992H8.56623V17.257H6.73263C3.44146 17.257 0.773438 14.589 0.773438 11.2978Z"
        fill="white"
    />
    <path
        d="M15.3406 17.4999C11.975 17.4765 10.1287 15.3731 10.1287 12.4049V6.25807H13.354V12.1711C13.354 13.7137 14.0318 14.6719 15.3406 14.6953C16.7663 14.7187 17.3739 13.7604 17.3739 12.1945V6.25807H20.5992V12.4282C20.5992 15.2562 18.4257 17.5233 15.3406 17.4999Z"
        fill="white"
    />
    <path
        d="M23.0242 11.096C23.0242 7.94084 24.6836 6.00098 27.9323 6.00098C30.1059 6.00098 31.2278 7.26306 31.6718 8.01095H31.7186C32.1626 7.26306 33.2845 6.00098 35.4581 6.00098C38.7067 6.00098 40.3661 7.94084 40.3661 11.096V17.2428H37.1408V11.3298C37.1408 9.78721 36.5332 8.8056 35.2243 8.8056C33.9155 8.8056 33.3078 9.78721 33.3078 11.3298V17.2428H30.0825V11.3298C30.0825 9.78721 29.4749 8.8056 28.166 8.8056C26.8572 8.8056 26.2496 9.78721 26.2496 11.3298V17.2428H23.0242V11.096Z"
        fill="white"
    />
    <path
        d="M48.1186 17.4999C44.6362 17.4999 42.1821 15.0225 42.1821 11.7504C42.1821 8.47839 44.6362 6.00098 48.1186 6.00098C51.601 6.00098 54.055 8.47839 54.055 11.7504C54.055 15.0225 51.601 17.4999 48.1186 17.4999ZM48.1186 14.7187C49.7312 14.7187 50.8764 13.5033 50.8764 11.7504C50.8764 9.99756 49.7312 8.78222 48.1186 8.78222C46.5059 8.78222 45.3607 9.99756 45.3607 11.7504C45.3607 13.5033 46.5059 14.7187 48.1186 14.7187Z"
        fill="white"
    />
</svg>
