<svg width="84" height="84" viewBox="0 0 84 84" fill="none" xmlns="http://www.w3.org/2000/svg">
    <g clip-path="url(#clip0_9045_38331)">
        <path
            d="M42.0023 84.0037C65.1993 84.0037 84.0042 65.1989 84.0042 42.0019C84.0042 18.8049 65.1993 0 42.0023 0C18.8053 0 0.000427246 18.8049 0.000427246 42.0019C0.000427246 65.1989 18.8053 84.0037 42.0023 84.0037Z"
            fill="#EEEBFD"
        />
        <path
            d="M53.3272 16.2663L61.4476 11.0512C64.2629 9.2429 67.9992 10.9875 68.426 14.3045L70.3915 29.6093L53.3235 16.2663H53.3272Z"
            fill="#6D4AFF"
        />
        <path
            d="M31.2839 16.2663L23.1636 11.0512C20.3482 9.2429 16.6119 10.9875 16.1851 14.3045L14.2196 29.6093L31.2877 16.2663H31.2839Z"
            fill="#6D4AFF"
        />
        <path
            d="M20.921 17.2016L24.8632 19.7361L18.4351 24.0565L19.2138 17.9953C19.3186 17.1829 20.2321 16.7598 20.9172 17.2016H20.921Z"
            fill="#4A2DC5"
        />
        <path
            d="M63.08 17.2016L59.1378 19.7361L65.5659 24.0565L64.7872 17.9953C64.6823 17.1829 63.7689 16.7598 63.0837 17.2016H63.08Z"
            fill="#4A2DC5"
        />
        <path d="M63.9 59.4453H20.1011V70.9089H63.9V59.4453Z" fill="#4129A3" />
        <path
            d="M43.4066 81.4967C47.455 81.4967 50.737 78.2148 50.737 74.1663C50.737 70.1179 47.455 66.8359 43.4066 66.8359C39.3581 66.8359 36.0762 70.1179 36.0762 74.1663C36.0762 78.2148 39.3581 81.4967 43.4066 81.4967Z"
            fill="#FC8F00"
        />
        <path d="M41.9988 81.4922H43.5974V66.8351H41.9988V81.4922Z" fill="#FC8F00" />
        <path
            d="M42.0025 81.4967C46.0509 81.4967 49.3328 78.2148 49.3328 74.1663C49.3328 70.1179 46.0509 66.8359 42.0025 66.8359C37.954 66.8359 34.6721 70.1179 34.6721 74.1663C34.6721 78.2148 37.954 81.4967 42.0025 81.4967Z"
            fill="#FFAC2E"
        />
        <path
            d="M42.0027 75.3725C43.2619 75.3725 44.2827 74.3517 44.2827 73.0925C44.2827 71.8333 43.2619 70.8125 42.0027 70.8125C40.7435 70.8125 39.7227 71.8333 39.7227 73.0925C39.7227 74.3517 40.7435 75.3725 42.0027 75.3725Z"
            fill="#372580"
        />
        <path
            d="M42.0026 76.6616V73.0938"
            stroke="#372580"
            stroke-width="2.119"
            stroke-miterlimit="10"
            stroke-linecap="round"
        />
        <path
            d="M75.9962 45.6491C75.9962 61.2683 57.4605 66.8353 41.9986 66.8353C28.4085 66.8353 8.00098 61.2683 8.00098 45.6491C8.00098 30.0299 23.2233 14.2422 42.0023 14.2422C60.7813 14.2422 75.9999 30.0299 75.9999 45.6491H75.9962Z"
            fill="#6D4AFF"
        />
        <path
            d="M39.7521 50.5078C40.9951 50.5078 41.9984 51.5149 41.9984 52.7541"
            stroke="white"
            stroke-width="0.935954"
            stroke-miterlimit="10"
            stroke-linecap="round"
        />
        <path
            d="M44.2487 50.5078C43.0058 50.5078 42.0024 51.5149 42.0024 52.7541"
            stroke="white"
            stroke-width="0.935954"
            stroke-miterlimit="10"
            stroke-linecap="round"
        />
        <path d="M38.7712 37.1836H45.2331" stroke="white" stroke-width="1.87191" stroke-miterlimit="10" />
        <path
            d="M39.7521 50.5078C40.9951 50.5078 41.9984 51.5149 41.9984 52.7541"
            stroke="white"
            stroke-width="0.935954"
            stroke-miterlimit="10"
            stroke-linecap="round"
        />
        <path
            d="M44.2484 50.5078C43.0054 50.5078 42.0021 51.5149 42.0021 52.7541"
            stroke="white"
            stroke-width="0.935954"
            stroke-miterlimit="10"
            stroke-linecap="round"
        />
        <path
            d="M35.0165 45.5889C36.9203 41.1746 34.4311 35.857 29.4568 33.7117C24.4825 31.5663 18.9066 33.4056 17.0028 37.8198C15.099 42.234 17.5882 47.5517 22.5625 49.697C27.5368 51.8424 33.1127 50.0031 35.0165 45.5889Z"
            fill="white"
        />
        <path
            d="M35.3046 40.1057C32.5603 33.4567 22.5868 30.9259 18.083 37.0432C16.6828 38.9825 16.3384 41.4946 16.885 43.8495C14.2306 38.6606 18.0418 32.9101 23.5864 32.1988C28.7042 31.3901 34.4322 34.8643 35.3083 40.1094L35.3046 40.1057Z"
            fill="#372480"
        />
        <path
            d="M27.3976 47.0983C29.2089 47.0983 30.6772 44.703 30.6772 41.7483C30.6772 38.7937 29.2089 36.3984 27.3976 36.3984C25.5864 36.3984 24.118 38.7937 24.118 41.7483C24.118 44.703 25.5864 47.0983 27.3976 47.0983Z"
            fill="#4129A3"
        />
        <path
            opacity="0.7"
            d="M29.4005 39.4979C30.0849 39.4979 30.6397 38.9431 30.6397 38.2587C30.6397 37.5743 30.0849 37.0195 29.4005 37.0195C28.7161 37.0195 28.1613 37.5743 28.1613 38.2587C28.1613 38.9431 28.7161 39.4979 29.4005 39.4979Z"
            fill="white"
        />
        <path
            d="M61.4412 49.7024C66.4156 47.557 68.9047 42.2394 67.0009 37.8252C65.0971 33.4109 59.5213 31.5716 54.5469 33.717C49.5726 35.8624 47.0834 41.18 48.9873 45.5943C50.8911 50.0085 56.4669 51.8478 61.4412 49.7024Z"
            fill="white"
        />
        <path
            d="M48.696 40.1046C49.572 34.8596 55.2963 31.389 60.4179 32.194C65.9587 32.9053 69.7699 38.6595 67.1193 43.8447C67.6659 41.4936 67.3215 38.9778 65.9213 37.0385C61.4175 30.9211 51.4439 33.4556 48.6997 40.1009L48.696 40.1046Z"
            fill="#372480"
        />
        <path
            d="M56.6031 47.0983C58.4143 47.0983 59.8827 44.703 59.8827 41.7483C59.8827 38.7937 58.4143 36.3984 56.6031 36.3984C54.7918 36.3984 53.3235 38.7937 53.3235 41.7483C53.3235 44.703 54.7918 47.0983 56.6031 47.0983Z"
            fill="#4129A3"
        />
        <path
            opacity="0.7"
            d="M54.6036 39.4979C55.288 39.4979 55.8429 38.9431 55.8429 38.2587C55.8429 37.5743 55.288 37.0195 54.6036 37.0195C53.9193 37.0195 53.3644 37.5743 53.3644 38.2587C53.3644 38.9431 53.9193 39.4979 54.6036 39.4979Z"
            fill="white"
        />
        <path
            opacity="0.95"
            d="M60.7512 28.891L63.72 33.5221C63.9671 33.9077 64.349 34.1847 64.7945 34.3008L70.1182 35.6935C71.9676 36.1764 72.694 38.4152 71.481 39.894L67.9917 44.147C67.7034 44.5027 67.5537 44.9519 67.5836 45.4087L67.9056 50.9009C68.0179 52.8102 66.1123 54.1917 64.334 53.4953L59.2087 51.4924C58.7819 51.3277 58.3102 51.3277 57.8834 51.4924L52.7581 53.4953C50.9761 54.1917 49.0742 52.8102 49.1865 50.9009L49.5085 45.4087C49.5347 44.9519 49.3887 44.5027 49.1004 44.147L45.6112 39.894C44.3982 38.4152 45.1245 36.1764 46.9739 35.6935L52.2976 34.3008C52.7394 34.1847 53.125 33.9077 53.3721 33.5221L56.341 28.891C57.3743 27.2811 59.7254 27.2811 60.7587 28.891H60.7512Z"
            fill="#FFAC2E"
        />
        <g opacity="0.35">
            <mask
                id="mask0_9045_38331"
                style="mask-type: luminance"
                maskUnits="userSpaceOnUse"
                x="45"
                y="27"
                width="28"
                height="27"
            >
                <path
                    d="M56.3336 28.891L53.3648 33.5221C53.1177 33.9077 52.7358 34.1847 52.2903 34.3008L46.9666 35.6935C45.1172 36.1764 44.3909 38.4152 45.6039 39.894L49.0931 44.147C49.3814 44.5027 49.5311 44.9519 49.5012 45.4087L49.1792 50.9009C49.0669 52.8102 50.9725 54.1917 52.7508 53.4953L57.8761 51.4924C58.3029 51.3277 58.7746 51.3277 59.2014 51.4924L64.3267 53.4953C66.1087 54.1917 68.0106 52.8102 67.8983 50.9009L67.5763 45.4087C67.5501 44.9519 67.6961 44.5027 67.9844 44.147L71.4736 39.894C72.6866 38.4152 71.9603 36.1764 70.1109 35.6935L64.7872 34.3008C64.3454 34.1847 63.9598 33.9077 63.7127 33.5221L60.7439 28.891C59.7106 27.2811 57.3594 27.2811 56.3262 28.891H56.3336Z"
                    fill="white"
                />
            </mask>
            <g mask="url(#mask0_9045_38331)">
                <path
                    d="M63.0317 27.3642L42.142 48.2539L47.3625 53.4743L68.2521 32.5847L63.0317 27.3642Z"
                    fill="white"
                />
                <path
                    d="M71.9869 34.747L51.0972 55.6367L54.0569 58.5964L74.9466 37.7067L71.9869 34.747Z"
                    fill="white"
                />
            </g>
        </g>
        <path
            d="M60.7512 28.891L63.72 33.5221C63.9671 33.9077 64.349 34.1847 64.7945 34.3008L70.1182 35.6935C71.9676 36.1764 72.6939 38.4152 71.481 39.894L67.9917 44.147C67.7034 44.5027 67.5537 44.9519 67.5836 45.4087L67.9056 50.9009C68.0179 52.8102 66.1123 54.1917 64.334 53.4953L59.2087 51.4924C58.7819 51.3277 58.3102 51.3277 57.8834 51.4924L52.7581 53.4953C50.9761 54.1917 49.0742 52.8102 49.1865 50.9009L49.5085 45.4087C49.5347 44.9519 49.3887 44.5027 49.1004 44.147L45.6112 39.894C44.3982 38.4152 45.1245 36.1764 46.9739 35.6935L52.2976 34.3008C52.7394 34.1847 53.125 33.9077 53.3721 33.5221L56.341 28.891C57.3743 27.2811 59.7254 27.2811 60.7587 28.891H60.7512Z"
            stroke="white"
            stroke-width="1.87191"
            stroke-miterlimit="10"
        />
        <path
            opacity="0.95"
            d="M23.2531 28.891L20.2843 33.5221C20.0372 33.9077 19.6553 34.1847 19.2098 34.3008L13.8861 35.6935C12.0367 36.1764 11.3104 38.4152 12.5234 39.894L16.0126 44.147C16.3009 44.5027 16.4506 44.9519 16.4207 45.4087L16.0987 50.9009C15.9864 52.8102 17.892 54.1917 19.6703 53.4953L24.7956 51.4924C25.2224 51.3277 25.6941 51.3277 26.1209 51.4924L31.2462 53.4953C33.0282 54.1917 34.9301 52.8102 34.8178 50.9009L34.4958 45.4087C34.4696 44.9519 34.6156 44.5027 34.9039 44.147L38.3931 39.894C39.6061 38.4152 38.8798 36.1764 37.0304 35.6935L31.7067 34.3008C31.2649 34.1847 30.8793 33.9077 30.6322 33.5221L27.6634 28.891C26.6301 27.2811 24.2789 27.2811 23.2456 28.891H23.2531Z"
            fill="#FFAC2E"
            stroke="white"
            stroke-width="1.59112"
            stroke-miterlimit="10"
        />
        <g opacity="0.35">
            <mask
                id="mask1_9045_38331"
                style="mask-type: luminance"
                maskUnits="userSpaceOnUse"
                x="11"
                y="27"
                width="28"
                height="27"
            >
                <path
                    d="M23.2531 28.891L20.2843 33.5221C20.0372 33.9077 19.6553 34.1847 19.2098 34.3008L13.8861 35.6935C12.0367 36.1764 11.3104 38.4152 12.5234 39.894L16.0126 44.147C16.3009 44.5027 16.4506 44.9519 16.4207 45.4087L16.0987 50.9009C15.9864 52.8102 17.892 54.1917 19.6703 53.4953L24.7956 51.4924C25.2224 51.3277 25.6941 51.3277 26.1209 51.4924L31.2462 53.4953C33.0282 54.1917 34.9301 52.8102 34.8178 50.9009L34.4958 45.4087C34.4696 44.9519 34.6156 44.5027 34.9039 44.147L38.3931 39.894C39.6061 38.4152 38.8798 36.1764 37.0304 35.6935L31.7067 34.3008C31.2649 34.1847 30.8793 33.9077 30.6322 33.5221L27.6634 28.891C26.6301 27.2811 24.2789 27.2811 23.2456 28.891H23.2531Z"
                    fill="white"
                />
            </mask>
            <g mask="url(#mask1_9045_38331)">
                <path
                    d="M29.9481 27.3642L9.05847 48.2539L14.2789 53.4743L35.1686 32.5847L29.9481 27.3642Z"
                    fill="white"
                />
                <path
                    d="M38.9022 34.7431L18.0126 55.6328L20.9722 58.5925L41.8619 37.7028L38.9022 34.7431Z"
                    fill="white"
                />
            </g>
        </g>
        <path
            d="M23.2531 28.891L20.2843 33.5221C20.0372 33.9077 19.6553 34.1847 19.2098 34.3008L13.8861 35.6935C12.0367 36.1764 11.3104 38.4152 12.5234 39.894L16.0126 44.147C16.3009 44.5027 16.4506 44.9519 16.4207 45.4087L16.0987 50.9009C15.9864 52.8102 17.892 54.1917 19.6703 53.4953L24.7956 51.4924C25.2224 51.3277 25.6941 51.3277 26.1209 51.4924L31.2462 53.4953C33.0282 54.1917 34.9301 52.8102 34.8178 50.9009L34.4958 45.4087C34.4696 44.9519 34.6156 44.5027 34.9039 44.147L38.3931 39.894C39.6061 38.4152 38.8798 36.1764 37.0304 35.6935L31.7067 34.3008C31.2649 34.1847 30.8793 33.9077 30.6322 33.5221L27.6634 28.891C26.6301 27.2811 24.2789 27.2811 23.2456 28.891H23.2531Z"
            stroke="white"
            stroke-width="1.59112"
            stroke-miterlimit="10"
        />
        <path
            d="M11.8945 37.1836H8.00464"
            stroke="white"
            stroke-width="1.87191"
            stroke-miterlimit="10"
            stroke-linecap="round"
        />
        <path
            d="M72.1552 37.1836H75.9963"
            stroke="white"
            stroke-width="1.87191"
            stroke-miterlimit="10"
            stroke-linecap="round"
        />
        <path
            d="M61.9308 40.338C63.2355 40.338 64.2931 39.2803 64.2931 37.9756C64.2931 36.6709 63.2355 35.6133 61.9308 35.6133C60.6261 35.6133 59.5684 36.6709 59.5684 37.9756C59.5684 39.2803 60.6261 40.338 61.9308 40.338Z"
            fill="white"
        />
        <path
            d="M65.1053 42.6011C65.7545 42.6011 66.2809 42.0748 66.2809 41.4256C66.2809 40.7763 65.7545 40.25 65.1053 40.25C64.4561 40.25 63.9297 40.7763 63.9297 41.4256C63.9297 42.0748 64.4561 42.6011 65.1053 42.6011Z"
            fill="white"
        />
        <path
            d="M28.8503 40.338C30.155 40.338 31.2126 39.2803 31.2126 37.9756C31.2126 36.6709 30.155 35.6133 28.8503 35.6133C27.5456 35.6133 26.4879 36.6709 26.4879 37.9756C26.4879 39.2803 27.5456 40.338 28.8503 40.338Z"
            fill="white"
        />
        <path
            d="M32.0252 42.6011C32.6744 42.6011 33.2007 42.0748 33.2007 41.4256C33.2007 40.7763 32.6744 40.25 32.0252 40.25C31.3759 40.25 30.8496 40.7763 30.8496 41.4256C30.8496 42.0748 31.3759 42.6011 32.0252 42.6011Z"
            fill="white"
        />
        <path
            d="M22.0028 25.8227C16.8026 26.9983 15.8517 27.9492 14.6761 33.1494C13.5006 27.9492 12.5496 26.9983 7.34949 25.8227C12.5496 24.6472 13.5006 23.6963 14.6761 18.4961C15.8517 23.6963 16.8026 24.6472 22.0028 25.8227Z"
            fill="white"
        />
    </g>
    <defs>
        <clipPath id="clip0_9045_38331">
            <rect width="84" height="84" fill="white" />
        </clipPath>
    </defs>
</svg>
