<svg width="56" height="57" viewBox="0 0 56 57" fill="none" xmlns="http://www.w3.org/2000/svg">
    <path
        d="M27.8638 55.2296C42.7003 55.2296 54.7276 43.2022 54.7276 28.3658C54.7276 13.5293 42.7003 1.50195 27.8638 1.50195C13.0273 1.50195 1 13.5293 1 28.3658C1 43.2022 13.0273 55.2296 27.8638 55.2296Z"
        fill="#EEEBFD"
    />
    <mask id="mask0_8137_19568" style="mask-type: alpha" maskUnits="userSpaceOnUse" x="1" y="1" width="54" height="55">
        <path
            d="M27.8638 55.2257C42.7003 55.2257 54.7276 43.1983 54.7276 28.3619C54.7276 13.5254 42.7003 1.49805 27.8638 1.49805C13.0273 1.49805 1 13.5254 1 28.3619C1 43.1983 13.0273 55.2257 27.8638 55.2257Z"
            fill="#EEEBFD"
        />
    </mask>
    <g mask="url(#mask0_8137_19568)">
        <path
            d="M46.04 24.8499L50.4331 18.8915C51.6846 17.1956 50.7525 14.7639 48.6956 14.3524L35.6711 12.8125L46.04 24.8476V24.8499Z"
            fill="#6D4AFF"
        />
        <path
            d="M47.6903 19.3182L45.664 21.8089L41.4962 17.9297L47.2419 18.5825C47.7467 18.6606 47.9862 19.0556 47.6903 19.3182Z"
            fill="#4A2DC5"
        />
        <path
            d="M10.552 24.8499L6.15883 18.8915C4.90733 17.1956 5.8395 14.7639 7.89638 14.3524L20.9209 12.8125L10.552 24.8476V24.8499Z"
            fill="#6D4AFF"
        />
        <path
            d="M8.9016 19.3182L10.9279 21.8089L15.0957 17.9297L9.35008 18.5825C8.84525 18.6606 8.60575 19.0556 8.9016 19.3182Z"
            fill="#4A2DC5"
        />
        <path d="M14.5597 40.0527H42.0293V47.2955H14.5597V40.0527Z" fill="#4129A3" />
        <path
            d="M6.97421 31.3393C6.97421 41.2077 18.5993 44.725 28.2967 44.725C36.82 44.725 49.6191 41.2077 49.6191 31.3393C49.6191 21.4709 40.072 11.4961 28.2967 11.4961C16.5213 11.4961 6.97421 21.4709 6.97421 31.3393Z"
            fill="#6D4AFF"
        />
        <path
            d="M27.5822 53.9894C25.0431 53.9894 22.9848 51.9158 22.9848 49.358C22.9848 46.8001 25.0431 44.7266 27.5822 44.7266C30.1213 44.7266 32.1797 46.8001 32.1797 49.358C32.1797 51.9158 30.1213 53.9894 27.5822 53.9894Z"
            fill="#FC8F00"
        />
        <path d="M29.2962 53.9844H27.5352V44.7239H29.2962V53.9844Z" fill="#FC8F00" />
        <path
            d="M29.2951 53.9894C26.756 53.9894 24.6977 51.9158 24.6977 49.358C24.6977 46.8001 26.756 44.7266 29.2951 44.7266C31.8342 44.7266 33.8926 46.8001 33.8926 49.358C33.8926 51.9158 31.8342 53.9894 29.2951 53.9894Z"
            fill="#FFAC2E"
        />
        <path
            d="M29.2947 50.1193C28.5049 50.1193 27.8647 49.4744 27.8647 48.6788C27.8647 47.8832 28.5049 47.2383 29.2947 47.2383C30.0844 47.2383 30.7246 47.8832 30.7246 48.6788C30.7246 49.4744 30.0844 50.1193 29.2947 50.1193Z"
            fill="#372580"
        />
        <path
            d="M29.2969 50.9315V48.6797"
            stroke="#372580"
            stroke-width="1.59848"
            stroke-miterlimit="10"
            stroke-linecap="round"
        />
        <path
            d="M32.3301 34.4102C31.5505 34.4102 30.9213 35.0464 30.9213 35.8294"
            stroke="#EEEBFD"
            stroke-width="0.706041"
            stroke-miterlimit="10"
            stroke-linecap="round"
        />
        <path
            d="M29.5101 34.4102C30.2897 34.4102 30.9189 35.0464 30.9189 35.8294"
            stroke="#EEEBFD"
            stroke-width="0.706041"
            stroke-miterlimit="10"
            stroke-linecap="round"
        />
        <mask
            id="mask1_8137_19568"
            style="mask-type: luminance"
            maskUnits="userSpaceOnUse"
            x="6"
            y="11"
            width="44"
            height="34"
        >
            <path
                d="M6.97421 31.3451C6.97421 41.2135 18.5993 44.7309 28.2967 44.7309C36.82 44.7309 49.6191 41.2135 49.6191 31.3451C49.6191 21.4768 40.072 11.502 28.2967 11.502C16.5213 11.502 6.97421 21.4768 6.97421 31.3451Z"
                fill="white"
            />
        </mask>
        <g mask="url(#mask1_8137_19568)">
            <path d="M36.6359 33.9531H42.0293V46.5795H36.6359V33.9531Z" fill="#1BA3FD" />
            <path d="M23.7547 46.582H18.3613V33.9556H23.7547V46.582Z" fill="#1BA3FD" />
        </g>
        <path
            d="M17.8437 34.5641C14.3179 33.0322 12.5537 29.2348 13.9034 26.0824C15.253 22.93 19.2053 21.6163 22.7312 23.1481C26.257 24.68 28.0211 28.4774 26.6715 31.6299C25.3219 34.7823 21.3695 36.096 17.8437 34.5641Z"
            fill="#EEEBFD"
        />
        <path
            d="M33.7237 31.6188C32.374 28.4663 34.1382 24.669 37.664 23.1371C41.1898 21.6052 45.1422 22.9189 46.4918 26.0713C47.8414 29.2237 46.0773 33.0211 42.5515 34.553C39.0256 36.0849 35.0733 34.7712 33.7237 31.6188Z"
            fill="#EEEBFD"
        />
        <path
            d="M22.0647 32.7007C20.7796 32.7007 19.7378 30.9904 19.7378 28.8806C19.7378 26.7709 20.7796 25.0605 22.0647 25.0605C23.3498 25.0605 24.3916 26.7709 24.3916 28.8806C24.3916 30.9904 23.3498 32.7007 22.0647 32.7007Z"
            fill="#4129A3"
        />
        <path
            d="M32.3301 34.4121C31.5505 34.4121 30.9213 35.0484 30.9213 35.8313"
            stroke="#EEEBFD"
            stroke-width="0.706041"
            stroke-miterlimit="10"
            stroke-linecap="round"
        />
        <path
            d="M29.5101 34.4121C30.2897 34.4121 30.9189 35.0484 30.9189 35.8313"
            stroke="#EEEBFD"
            stroke-width="0.706041"
            stroke-miterlimit="10"
            stroke-linecap="round"
        />
        <path
            opacity="0.7"
            d="M16.2683 27.2732C15.7833 27.2732 15.3901 26.8771 15.3901 26.3886C15.3901 25.9 15.7833 25.5039 16.2683 25.5039C16.7533 25.5039 17.1465 25.9 17.1465 26.3886C17.1465 26.8771 16.7533 27.2732 16.2683 27.2732Z"
            fill="#EEEBFD"
        />
        <path
            d="M41.4221 32.7007C40.137 32.7007 39.0952 30.9904 39.0952 28.8806C39.0952 26.7709 40.137 25.0605 41.4221 25.0605C42.7072 25.0605 43.749 26.7709 43.749 28.8806C43.749 30.9904 42.7072 32.7007 41.4221 32.7007Z"
            fill="#4129A3"
        />
        <path
            opacity="0.7"
            d="M40.238 27.2732C39.7531 27.2732 39.3599 26.8771 39.3599 26.3886C39.3599 25.9 39.7531 25.5039 40.238 25.5039C40.723 25.5039 41.1162 25.9 41.1162 26.3886C41.1162 26.8771 40.723 27.2732 40.238 27.2732Z"
            fill="#EEEBFD"
        />
        <path
            d="M47.9688 29.9374L47.8185 25.9021L45.6653 21.8124L39.6192 20.9727L33.1104 24.5373L47.9688 29.9374Z"
            fill="#6D4AFF"
        />
        <path
            d="M34.799 25.3976L46.6377 30.0196C47.2905 30.2562 47.6662 29.2982 47.0204 29.0262C47.0204 29.0238 34.9657 24.9553 34.9586 24.9506C34.6769 24.8584 34.5148 25.2794 34.799 25.3953V25.3976Z"
            fill="#372480"
        />
        <path
            d="M12.4239 29.9374L12.5718 25.9021L14.7273 21.8124L20.7735 20.9727L27.2822 24.5373L12.4239 29.9374Z"
            fill="#6D4AFF"
        />
        <path
            d="M25.4336 24.9526L13.3952 29.021C13.1182 29.1157 12.9702 29.4161 13.0618 29.6952C13.1557 29.9743 13.4539 30.1233 13.731 30.0311C13.731 30.0334 25.5839 25.402 25.5933 25.3996C25.868 25.2885 25.7247 24.8603 25.4336 24.955V24.9526Z"
            fill="#372480"
        />
    </g>
</svg>
