<svg width="37" height="36" viewBox="0 0 37 36" fill="none" xmlns="http://www.w3.org/2000/svg">
    <path
        fill-rule="evenodd"
        clip-rule="evenodd"
        d="M13.6144 4.49993L5.27342 12.8409L3.68243 11.2499L12.0234 2.90894L13.6144 4.49993ZM20.3644 4.49993L5.27342 19.5909L3.68243 17.9999L18.7734 2.90894L20.3644 4.49993ZM27.1144 4.49993L5.27342 26.3409L3.68243 24.7499L25.5234 2.90894L27.1144 4.49993ZM33.8644 4.49993L5.27342 33.0909L3.68243 31.4999L32.2734 2.90894L33.8644 4.49993ZM33.8644 11.2499L12.0234 33.0909L10.4324 31.4999L32.2734 9.65894L33.8644 11.2499ZM33.8644 17.9999L18.7734 33.0909L17.1824 31.4999L32.2734 16.4089L33.8644 17.9999ZM33.8644 24.7499L25.5234 33.0909L23.9324 31.4999L32.2734 23.1589L33.8644 24.7499Z"
        fill="#8F8D8A"
    />
</svg>
