<svg
    fill="none"
    height="50"
    viewBox="0 0 65 50"
    width="65"
    xmlns="http://www.w3.org/2000/svg"
    xmlns:xlink="http://www.w3.org/1999/xlink"
>
    <clipPath id="a"><path d="m0 0h65v50h-65z" /></clipPath>
    <g clip-path="url(#a)">
        <g stroke="#2e2e2e" stroke-miterlimit="10" stroke-width="1.16317">
            <path
                d="m.460938 40.3594h62.531862c0 2.303-1.8766 4.1796-4.1796 4.1796h-54.17261c-2.30308 0-4.179652-1.8766-4.179652-4.1796z"
                fill="#e4e4e4"
            />
            <path
                d="m10.0667 6h44.9525c2.1402 0 3.8772 1.737 3.8772 3.87722v30.40518h-52.70695v-30.40518c0-2.14022 1.737-3.87722 3.87725-3.87722z"
            />
            <path
                d="m56.668 36.287v-26.50112c0-.69696-.565-1.26195-1.262-1.26195h-45.43051c-.69696 0-1.26196.56499-1.26196 1.26195v26.50112c0 .697.565 1.262 1.26196 1.262h45.43051c.697 0 1.262-.565 1.262-1.262z"
            />
        </g>
        <path
            d="m31.7893 32.4333c5.0872 0 9.2112-4.124 9.2112-9.2111 0-5.0872-4.124-9.2112-9.2112-9.2112s-9.2112 4.124-9.2112 9.2112c0 5.0871 4.124 9.2111 9.2112 9.2111z"
            fill="#ffac2e"
        />
        <path
            d="m27.9443 19.5973c.959-1.0205 2.3226-1.6539 3.8358-1.6539 2.9121 0 5.2786 2.3577 5.2786 5.2786"
            stroke="#fff"
            stroke-miterlimit="10"
            stroke-width="1.36364"
        />
        <path d="m37.0586 25.363 1.9795-2.2082h-3.959z" fill="#fff" />
        <path
            d="m35.6242 27.3519c-.959 1.0206-2.3226 1.654-3.8358 1.654-2.9121 0-5.2786-2.3578-5.2786-5.2786"
            stroke="#fff"
            stroke-miterlimit="10"
            stroke-width="1.36364"
        />
        <path d="m26.6299 22.4194-1.9795 2.217h3.9589z" fill="#fff" />
    </g>
</svg>
