<svg
    fill="none"
    height="50"
    viewBox="0 0 56 50"
    width="56"
    xmlns="http://www.w3.org/2000/svg"
    xmlns:xlink="http://www.w3.org/1999/xlink"
>
    <clipPath id="a"><path d="m0 0h55.7024v50h-55.7024z" /></clipPath>
    <g clip-path="url(#a)">
        <path
            d="m36.3569 45.5641h-17.0112c1.9921 0 3.6076-1.6155 3.6076-3.6076v-3.7993h9.796v3.7993c0 1.9921 1.6156 3.6076 3.6076 3.6076z"
            fill="#e4e4e4"
        />
        <path
            d="m27.8545 29.0527c5.3648 0 9.7138-4.349 9.7138-9.7138 0-5.3649-4.349-9.7139-9.7138-9.7139s-9.7139 4.349-9.7139 9.7139c0 5.3648 4.3491 9.7138 9.7139 9.7138z"
            fill="#ffac2e"
        />
        <path
            d="m27.8548 20.9338c1.6673 0 3.0189-1.3516 3.0189-3.0189s-1.3516-3.0189-3.0189-3.0189-3.0189 1.3516-3.0189 3.0189 1.3516 3.0189 3.0189 3.0189z"
            fill="#1d1d1b"
        />
        <g stroke-miterlimit="10">
            <path d="m27.8545 22.6385v-4.7235" stroke="#1d1d1b" stroke-linecap="round" stroke-width="2.80668" />
            <path
                d="m51.7664.513428h-47.82995c-1.89035 0-3.422778 1.532432-3.422778 3.422782v30.79819c0 1.8904 1.532428 3.4228 3.422778 3.4228h47.82995c1.8904 0 3.4228-1.5324 3.4228-3.4228v-30.79819c0-1.89035-1.5324-3.422782-3.4228-3.422782z"
                stroke="#2e2e2e"
                stroke-width="1.02683"
            />
            <path d="m51.7666 34.7345v-30.79822h-47.82995v30.79822z" stroke="#2e2e2e" stroke-width="1.02683" />
            <path
                d="m22.9534 38.1572v3.7993c0 1.9921-1.6156 3.6076-3.6076 3.6076-1.5677 0-2.8341 1.2665-2.8341 2.8341v1.0816h11.3431"
                stroke="#2e2e2e"
                stroke-width="1.02683"
            />
            <path
                d="m32.7491 38.1572v3.7993c0 1.9921 1.6155 3.6076 3.6076 3.6076 1.5676 0 2.8341 1.2665 2.8341 2.8341v1.0816h-11.3431"
                stroke="#2e2e2e"
                stroke-width="1.02683"
            />
            <path d="m19.3457 45.571h17.0112" stroke="#2e2e2e" stroke-width="1.02683" />
        </g>
    </g>
</svg>
