<svg width="56" height="50" viewBox="0 0 56 50" fill="none" xmlns="http://www.w3.org/2000/svg">
    <g clip-path="url(#clip0_14081_48058)">
        <path
            d="M36.3569 45.5641H19.3457C21.3378 45.5641 22.9533 43.9486 22.9533 41.9565V38.1572H32.7493V41.9565C32.7493 43.9486 34.3649 45.5641 36.3569 45.5641Z"
            fill="#E4E4E4"
        />
        <path
            d="M27.8547 29.0527C33.2195 29.0527 37.5686 24.7037 37.5686 19.3389C37.5686 13.974 33.2195 9.625 27.8547 9.625C22.4899 9.625 18.1409 13.974 18.1409 19.3389C18.1409 24.7037 22.4899 29.0527 27.8547 29.0527Z"
            fill="#FFAC2E"
        />
        <path
            d="M27.8546 20.9333C29.5219 20.9333 30.8735 19.5817 30.8735 17.9144C30.8735 16.2471 29.5219 14.8955 27.8546 14.8955C26.1873 14.8955 24.8357 16.2471 24.8357 17.9144C24.8357 19.5817 26.1873 20.9333 27.8546 20.9333Z"
            fill="#1D1D1B"
        />
        <path
            d="M27.8547 22.6385V17.915"
            stroke="#16141C"
            stroke-width="2.80668"
            stroke-miterlimit="10"
            stroke-linecap="round"
        />
        <path
            d="M51.7662 0.513672H3.93621C2.04586 0.513672 0.513428 2.0461 0.513428 3.93645V34.7346C0.513428 36.625 2.04586 38.1574 3.93621 38.1574H51.7662C53.6565 38.1574 55.1889 36.625 55.1889 34.7346V3.93645C55.1889 2.0461 53.6565 0.513672 51.7662 0.513672Z"
            stroke="#BCB9CC"
            stroke-width="1.02683"
            stroke-miterlimit="10"
        />
        <path
            d="M51.7664 34.7347V3.93652L3.9364 3.93652V34.7347H51.7664Z"
            stroke="#BCB9CC"
            stroke-width="1.02683"
            stroke-miterlimit="10"
        />
        <path
            d="M22.9534 38.1572V41.9565C22.9534 43.9486 21.3378 45.5641 19.3458 45.5641C17.7781 45.5641 16.5117 46.8306 16.5117 48.3982V49.4798H27.8548"
            stroke="#BCB9CC"
            stroke-width="1.02683"
            stroke-miterlimit="10"
        />
        <path
            d="M32.7493 38.1572V41.9565C32.7493 43.9486 34.3649 45.5641 36.3569 45.5641C37.9246 45.5641 39.191 46.8306 39.191 48.3982V49.4798H27.8479"
            stroke="#BCB9CC"
            stroke-width="1.02683"
            stroke-miterlimit="10"
        />
        <path d="M19.3457 45.5713H36.3569" stroke="#BCB9CC" stroke-width="1.02683" stroke-miterlimit="10" />
    </g>
    <defs>
        <clipPath id="clip0_14081_48058">
            <rect width="55.7024" height="50" fill="white" />
        </clipPath>
    </defs>
</svg>
