<svg fill="none" height="40" viewBox="0 0 40 40" width="40" xmlns="http://www.w3.org/2000/svg">
    <path d="m9 14h22v13h-22z" fill="#fff" />
    <path
        clip-rule="evenodd"
        d="m20.8595 3.61634c-.4821-.45655-1.2369-.45655-1.719 0-3.3613 3.18328-7.8968 5.13384-12.8905 5.13384-.07945 0-.15878-.0005-.23799-.00148-.5456-.00678-1.03256.34113-1.20299.85949-.68757 2.09131-1.05902 4.32451-1.05902 6.64211 0 9.9033 6.7734 18.2215 15.9384 20.5804.2044.0526.4188.0526.6232 0 9.165-2.3589 15.9384-10.6771 15.9384-20.5804 0-2.3176-.3715-4.5508-1.059-6.64211-.1704-.51836-.6574-.86627-1.203-.85949-.0792.00098-.1585.00148-.238.00148-4.9937 0-9.5292-1.95056-12.8905-5.13384zm5.1577 13.36016c.4012-.5617.2711-1.3424-.2907-1.7437-.5617-.4012-1.3424-.2711-1.7437.2907l-5.3923 7.5492-2.7066-2.7066c-.4882-.4881-1.2796-.4881-1.7678 0-.4881.4882-.4881 1.2796 0 1.7678l3.75 3.75c.2598.2598.6208.3921.987.3618s.7005-.2202.9141-.5192z"
        fill="#ffac2f"
        fill-rule="evenodd"
    />
</svg>
