<svg width="39" height="43" viewBox="0 0 39 43" fill="none" xmlns="http://www.w3.org/2000/svg">
    <g filter="url(#filter0_d_9421_2871)">
        <path
            d="M35.615 10.8957C35.5998 10.3485 35.1442 9.94363 34.5971 9.92566C27.3617 9.68798 22.5909 6.04845 20.7229 4.32122C20.239 3.87388 19.4403 3.8816 18.9652 4.33818C17.1307 6.10107 12.4308 9.83165 5.1979 10.2082C4.65133 10.2366 4.20364 10.65 4.1989 11.1973C4.16485 15.1217 4.96369 30.1792 18.5562 39.3858C19.5385 40.0512 20.8288 40.0388 21.7982 39.3546C35.2113 29.8887 35.7236 14.819 35.615 10.8957Z"
            fill="#FFAC2E"
        />
        <path
            fill-rule="evenodd"
            clip-rule="evenodd"
            d="M28.7137 17.4005C29.1056 17.799 29.1056 18.445 28.7137 18.8435L18.9172 28.806C18.729 28.9974 18.4738 29.1049 18.2077 29.1049C17.9416 29.1049 17.6864 28.9974 17.4983 28.806L12.297 23.5166C11.9052 23.1181 11.9052 22.4721 12.297 22.0736C12.6888 21.6752 13.3241 21.6752 13.7159 22.0736L18.2077 26.6416L27.2948 17.4005C27.6866 17.0021 28.3219 17.0021 28.7137 17.4005Z"
            fill="white"
        />
        <path
            d="M14.7017 7.50419C14.9087 7.55517 14.9088 7.85952 14.7018 7.91062C10.5593 8.93337 9.5054 9.984 8.48567 14.126C8.4347 14.333 8.13035 14.3331 8.07924 14.1261C7.05649 9.98363 6.00587 8.92972 1.86388 7.90999C1.65683 7.85901 1.65672 7.55467 1.86373 7.50356C6.00623 6.48081 7.06014 5.43018 8.07988 1.28819C8.13085 1.08114 8.4352 1.08103 8.48631 1.28805C9.50905 5.43055 10.5597 6.48446 14.7017 7.50419Z"
            fill="#F68C08"
        />
        <path
            d="M35.5794 32.1642C35.786 32.217 35.7859 32.5242 35.5794 32.577C32.6692 33.3216 31.859 34.1344 31.115 37.0416C31.0621 37.2481 30.755 37.2481 30.7022 37.0416C29.9576 34.1314 29.1447 33.3212 26.2376 32.5771C26.0311 32.5243 26.0311 32.2171 26.2376 32.1643C29.1478 31.4198 29.958 30.6069 30.702 27.6997C30.7549 27.4932 31.062 27.4932 31.1149 27.6998C31.8594 30.6099 32.6723 31.4201 35.5794 32.1642Z"
            fill="#F68C08"
        />
    </g>
    <defs>
        <filter
            id="filter0_d_9421_2871"
            x="0.708557"
            y="0.132874"
            width="38.0258"
            height="42.7435"
            filterUnits="userSpaceOnUse"
            color-interpolation-filters="sRGB"
        >
            <feFlood flood-opacity="0" result="BackgroundImageFix" />
            <feColorMatrix
                in="SourceAlpha"
                type="matrix"
                values="0 0 0 0 0 0 0 0 0 0 0 0 0 0 0 0 0 0 127 0"
                result="hardAlpha"
            />
            <feOffset dx="1" dy="1" />
            <feGaussianBlur stdDeviation="1" />
            <feComposite in2="hardAlpha" operator="out" />
            <feColorMatrix type="matrix" values="0 0 0 0 0 0 0 0 0 0 0 0 0 0 0 0 0 0 0.07 0" />
            <feBlend mode="normal" in2="BackgroundImageFix" result="effect1_dropShadow_9421_2871" />
            <feBlend mode="normal" in="SourceGraphic" in2="effect1_dropShadow_9421_2871" result="shape" />
        </filter>
    </defs>
</svg>
