<svg width="50" height="50" viewBox="0 0 50 50" fill="none" xmlns="http://www.w3.org/2000/svg">
    <g clip-path="url(#clip0_14081_48042)">
        <path
            d="M49.539 0.460938H0.460693V49.5392H49.539V0.460938Z"
            stroke="#BCB9CC"
            stroke-width="0.921716"
            stroke-miterlimit="10"
        />
        <path d="M0.460693 10.7412H49.539" stroke="#BCB9CC" stroke-width="0.921716" stroke-miterlimit="10" />
        <path
            d="M4.87904 6.72243C5.67316 6.72243 6.31691 6.07867 6.31691 5.28456C6.31691 4.49044 5.67316 3.84668 4.87904 3.84668C4.08492 3.84668 3.44116 4.49044 3.44116 5.28456C3.44116 6.07867 4.08492 6.72243 4.87904 6.72243Z"
            fill="#FFAC2E"
        />
        <path
            d="M36.5368 6.72243C37.3309 6.72243 37.9746 6.07867 37.9746 5.28456C37.9746 4.49044 37.3309 3.84668 36.5368 3.84668C35.7426 3.84668 35.0989 4.49044 35.0989 5.28456C35.0989 6.07867 35.7426 6.72243 36.5368 6.72243Z"
            fill="#E4E4E4"
        />
        <path
            d="M40.8319 6.72243C41.626 6.72243 42.2698 6.07867 42.2698 5.28456C42.2698 4.49044 41.626 3.84668 40.8319 3.84668C40.0378 3.84668 39.394 4.49044 39.394 5.28456C39.394 6.07867 40.0378 6.72243 40.8319 6.72243Z"
            fill="#E4E4E4"
        />
        <path
            d="M45.1271 6.72243C45.9212 6.72243 46.565 6.07867 46.565 5.28456C46.565 4.49044 45.9212 3.84668 45.1271 3.84668C44.333 3.84668 43.6892 4.49044 43.6892 5.28456C43.6892 6.07867 44.333 6.72243 45.1271 6.72243Z"
            fill="#E4E4E4"
        />
        <path
            d="M25.0032 37.5937C29.1197 37.5937 32.4568 34.2566 32.4568 30.1401C32.4568 26.0236 29.1197 22.6865 25.0032 22.6865C20.8867 22.6865 17.5496 26.0236 17.5496 30.1401C17.5496 34.2566 20.8867 37.5937 25.0032 37.5937Z"
            fill="#FFAC2E"
        />
        <path
            d="M25.0029 42.1164C31.6147 42.1164 39.7073 37.1268 42.3803 30.1402C39.7073 23.1536 31.6147 18.1641 25.0029 18.1641C18.3911 18.1641 10.2985 23.1536 7.62549 30.1402C10.2985 37.1268 18.3911 42.1164 25.0029 42.1164Z"
            stroke="#BCB9CC"
            stroke-width="0.921716"
            stroke-miterlimit="10"
        />
        <path
            d="M25.0029 32.0699C26.0686 32.0699 26.9324 31.206 26.9324 30.1404C26.9324 29.0748 26.0686 28.2109 25.0029 28.2109C23.9373 28.2109 23.0735 29.0748 23.0735 30.1404C23.0735 31.206 23.9373 32.0699 25.0029 32.0699Z"
            fill="#16141C"
        />
        <path d="M7.61938 15.374L42.3804 44.9058" stroke="#BCB9CC" stroke-width="0.921716" stroke-miterlimit="10" />
        <path d="M42.3804 15.374L7.61938 44.9058" stroke="#BCB9CC" stroke-width="0.921716" stroke-miterlimit="10" />
    </g>
    <defs>
        <clipPath id="clip0_14081_48042">
            <rect width="50" height="50" fill="white" />
        </clipPath>
    </defs>
</svg>
