<svg width="48" height="48" viewBox="0 0 48 48" fill="none" xmlns="http://www.w3.org/2000/svg">
    <g clip-path="url(#clip0_1_29605)">
        <path
            d="M24.0003 43.1998C34.6044 43.1998 43.2006 34.6037 43.2006 23.9998C43.2006 13.3959 34.6044 4.7998 24.0003 4.7998C13.3963 4.7998 4.79999 13.3959 4.79999 23.9998C4.79999 34.6037 13.3963 43.1998 24.0003 43.1998Z"
            fill="white"
        />
        <path
            d="M24.0003 43.1998C34.6044 43.1998 43.2006 34.6037 43.2006 23.9998C43.2006 13.3959 34.6044 4.7998 24.0003 4.7998C13.3963 4.7998 4.79999 13.3959 4.79999 23.9998C4.79999 34.6037 13.3963 43.1998 24.0003 43.1998Z"
            fill="url(#paint0_linear_1_29605)"
            fill-opacity="0.2"
        />
        <path
            fill-rule="evenodd"
            clip-rule="evenodd"
            d="M31.1999 20.3191C31.1999 24.2956 27.9764 27.5191 23.9999 27.5191C20.0235 27.5191 16.7999 24.2956 16.7999 20.3191C16.7999 16.3427 20.0235 13.1191 23.9999 13.1191C27.9764 13.1191 31.1999 16.3427 31.1999 20.3191ZM24.0003 43.2C29.4912 43.2 34.4439 40.8951 37.9433 37.2C34.4439 33.5049 29.4912 31.2 24.0003 31.2C18.5093 31.2 13.5567 33.5049 10.0573 37.2C13.5567 40.8951 18.5093 43.2 24.0003 43.2Z"
            fill="url(#paint1_linear_1_29605)"
        />
        <g opacity="0.3" filter="url(#filter0_f_1_29605)">
            <path
                fill-rule="evenodd"
                clip-rule="evenodd"
                d="M41.9647 17.2081C40.02 12.0675 35.9322 7.97997 30.7914 6.03564C30.2837 7.11762 29.9999 8.32558 29.9999 9.59981C29.9999 14.239 33.7607 17.9998 38.3999 17.9998C39.6744 17.9998 40.8825 17.716 41.9647 17.2081Z"
                fill="#1C008A"
            />
        </g>
        <path
            d="M48.0001 8C48.0001 3.58172 44.4183 3.13124e-07 40.0001 6.99382e-07C35.5818 1.08564e-06 32.0001 3.58172 32.0001 8C32.0001 12.4183 35.5818 16 40.0001 16C44.4183 16 48.0001 12.4183 48.0001 8Z"
            fill="url(#paint2_linear_1_29605)"
        />
        <path
            d="M38.9999 3C38.9999 2.44772 39.4477 2 39.9999 2C40.5522 2 40.9999 2.44772 40.9999 3V9C40.9999 9.55228 40.5522 10 39.9999 10C39.4477 10 38.9999 9.55228 38.9999 9V3Z"
            fill="white"
        />
        <circle cx="39.9999" cy="12" r="1" fill="white" />
    </g>
    <defs>
        <filter
            id="filter0_f_1_29605"
            x="25.9999"
            y="2.03564"
            width="19.9647"
            height="19.9644"
            filterUnits="userSpaceOnUse"
            color-interpolation-filters="sRGB"
        >
            <feFlood flood-opacity="0" result="BackgroundImageFix" />
            <feBlend mode="normal" in="SourceGraphic" in2="BackgroundImageFix" result="shape" />
            <feGaussianBlur stdDeviation="2" result="effect1_foregroundBlur_1_29605" />
        </filter>
        <linearGradient
            id="paint0_linear_1_29605"
            x1="25.8465"
            y1="-8.12327"
            x2="36.554"
            y2="40.9845"
            gradientUnits="userSpaceOnUse"
        >
            <stop stop-color="#ECAAFF" />
            <stop offset="1" stop-color="#6A48F6" />
        </linearGradient>
        <linearGradient
            id="paint1_linear_1_29605"
            x1="25.341"
            y1="2.99577"
            x2="34.3224"
            y2="41.181"
            gradientUnits="userSpaceOnUse"
        >
            <stop stop-color="#ECAAFF" />
            <stop offset="1" stop-color="#6A48F6" />
        </linearGradient>
        <linearGradient
            id="paint2_linear_1_29605"
            x1="40"
            y1="1.60564"
            x2="40"
            y2="22.3824"
            gradientUnits="userSpaceOnUse"
        >
            <stop stop-color="#FA5284" />
            <stop offset="1" stop-color="#DC3251" />
        </linearGradient>
        <clipPath id="clip0_1_29605">
            <rect width="48" height="48" fill="white" />
        </clipPath>
    </defs>
</svg>
