<svg width="111" height="30" viewBox="0 0 111 30" fill="none" xmlns="http://www.w3.org/2000/svg">
<path d="M18.128 13.784C18.099 10.561 20.767 8.993 20.889 8.92C19.378 6.717 17.036 6.416 16.213 6.392C14.246 6.185 12.338 7.569 11.336 7.569C10.314 7.569 8.771 6.412 7.108 6.446C4.968 6.479 2.966 7.718 1.868 9.642C-0.398004 13.565 1.292 19.33 3.463 22.501C4.549 24.054 5.818 25.788 7.479 25.727C9.104 25.66 9.711 24.691 11.672 24.691C13.615 24.691 14.185 25.727 15.879 25.688C17.623 25.66 18.721 24.128 19.769 22.561C21.024 20.781 21.528 19.028 21.548 18.938C21.507 18.924 18.161 17.647 18.128 13.784Z" fill="white"/>
<path d="M14.928 4.30599C15.802 3.21299 16.4 1.726 16.234 0.216995C14.969 0.272995 13.387 1.092 12.476 2.161C11.67 3.103 10.95 4.647 11.136 6.099C12.557 6.205 14.016 5.38199 14.928 4.30599Z" fill="white"/>
<path d="M41.645 25.504H39.374L38.13 21.595H33.806L32.621 25.504H30.41L34.694 12.196H37.34L41.645 25.504ZM37.755 19.955L36.63 16.48C36.511 16.125 36.288 15.289 35.959 13.973H35.919C35.788 14.539 35.577 15.375 35.287 16.48L34.182 19.955H37.755Z" fill="white"/>
<path d="M52.662 20.588C52.662 22.22 52.221 23.51 51.339 24.457C50.549 25.3 49.568 25.721 48.397 25.721C47.133 25.721 46.225 25.267 45.672 24.359H45.632V29.414H43.5V19.067C43.5 18.041 43.473 16.988 43.421 15.908H45.296L45.415 17.429H45.455C46.166 16.283 47.245 15.711 48.693 15.711C49.825 15.711 50.77 16.158 51.526 17.053C52.284 17.949 52.662 19.127 52.662 20.588ZM50.49 20.666C50.49 19.732 50.28 18.962 49.858 18.356C49.397 17.724 48.778 17.408 48.002 17.408C47.476 17.408 46.998 17.584 46.571 17.931C46.143 18.281 45.863 18.738 45.732 19.304C45.666 19.568 45.633 19.784 45.633 19.954V21.554C45.633 22.252 45.847 22.841 46.275 23.322C46.703 23.803 47.259 24.043 47.943 24.043C48.746 24.043 49.371 23.733 49.818 23.115C50.266 22.496 50.49 21.68 50.49 20.666Z" fill="white"/>
<path d="M63.699 20.588C63.699 22.22 63.258 23.51 62.375 24.457C61.586 25.3 60.605 25.721 59.434 25.721C58.17 25.721 57.262 25.267 56.71 24.359H56.67V29.414H54.538V19.067C54.538 18.041 54.511 16.988 54.459 15.908H56.334L56.453 17.429H56.493C57.203 16.283 58.282 15.711 59.731 15.711C60.862 15.711 61.807 16.158 62.565 17.053C63.32 17.949 63.699 19.127 63.699 20.588ZM61.527 20.666C61.527 19.732 61.316 18.962 60.894 18.356C60.433 17.724 59.816 17.408 59.039 17.408C58.512 17.408 58.035 17.584 57.607 17.931C57.179 18.281 56.9 18.738 56.769 19.304C56.704 19.568 56.67 19.784 56.67 19.954V21.554C56.67 22.252 56.884 22.841 57.31 23.322C57.738 23.802 58.294 24.043 58.98 24.043C59.783 24.043 60.408 23.733 60.855 23.115C61.303 22.496 61.527 21.68 61.527 20.666Z" fill="white"/>
<path d="M76.039 21.772C76.039 22.904 75.646 23.825 74.857 24.536C73.99 25.313 72.783 25.701 71.232 25.701C69.8 25.701 68.652 25.425 67.783 24.872L68.277 23.095C69.213 23.661 70.24 23.945 71.359 23.945C72.162 23.945 72.787 23.763 73.236 23.401C73.683 23.039 73.906 22.553 73.906 21.947C73.906 21.407 73.722 20.952 73.353 20.583C72.986 20.214 72.373 19.871 71.517 19.554C69.187 18.685 68.023 17.412 68.023 15.738C68.023 14.644 68.431 13.747 69.248 13.049C70.062 12.35 71.148 12.001 72.506 12.001C73.717 12.001 74.723 12.212 75.526 12.633L74.993 14.371C74.243 13.963 73.395 13.759 72.446 13.759C71.696 13.759 71.11 13.944 70.69 14.312C70.335 14.641 70.157 15.042 70.157 15.517C70.157 16.043 70.36 16.478 70.768 16.82C71.123 17.136 71.768 17.478 72.704 17.847C73.849 18.308 74.69 18.847 75.231 19.465C75.77 20.081 76.039 20.852 76.039 21.772Z" fill="white"/>
<path d="M83.088 17.508H80.738V22.167C80.738 23.352 81.152 23.944 81.982 23.944C82.363 23.944 82.679 23.911 82.929 23.845L82.988 25.464C82.568 25.621 82.015 25.7 81.33 25.7C80.488 25.7 79.83 25.443 79.355 24.93C78.882 24.416 78.644 23.554 78.644 22.343V17.506H77.244V15.906H78.644V14.149L80.738 13.517V15.906H83.088V17.508Z" fill="white"/>
<path d="M93.691 20.627C93.691 22.102 93.269 23.313 92.427 24.26C91.544 25.235 90.372 25.721 88.911 25.721C87.503 25.721 86.382 25.254 85.546 24.32C84.71 23.386 84.292 22.207 84.292 20.786C84.292 19.299 84.722 18.081 85.585 17.134C86.446 16.186 87.608 15.712 89.069 15.712C90.477 15.712 91.61 16.179 92.465 17.114C93.283 18.021 93.691 19.192 93.691 20.627ZM91.479 20.696C91.479 19.811 91.29 19.052 90.907 18.419C90.46 17.653 89.821 17.271 88.993 17.271C88.136 17.271 87.485 17.654 87.038 18.419C86.655 19.053 86.466 19.824 86.466 20.736C86.466 21.621 86.655 22.38 87.038 23.012C87.499 23.778 88.143 24.16 88.974 24.16C89.788 24.16 90.427 23.77 90.888 22.992C91.281 22.347 91.479 21.58 91.479 20.696Z" fill="white"/>
<path d="M100.621 17.783C100.41 17.744 100.185 17.724 99.949 17.724C99.199 17.724 98.619 18.007 98.211 18.574C97.856 19.074 97.678 19.706 97.678 20.469V25.504H95.547L95.567 18.93C95.567 17.824 95.54 16.817 95.487 15.909H97.344L97.422 17.745H97.481C97.706 17.114 98.061 16.606 98.547 16.225C99.022 15.882 99.535 15.711 100.088 15.711C100.285 15.711 100.463 15.725 100.621 15.75V17.783Z" fill="white"/>
<path d="M110.156 20.252C110.156 20.634 110.131 20.956 110.078 21.219H103.682C103.707 22.167 104.016 22.892 104.61 23.392C105.149 23.839 105.846 24.063 106.702 24.063C107.649 24.063 108.513 23.912 109.29 23.609L109.624 25.089C108.716 25.485 107.644 25.682 106.407 25.682C104.919 25.682 103.751 25.244 102.901 24.369C102.053 23.494 101.628 22.319 101.628 20.845C101.628 19.398 102.023 18.193 102.814 17.232C103.642 16.206 104.761 15.693 106.169 15.693C107.552 15.693 108.599 16.206 109.31 17.232C109.873 18.047 110.156 19.055 110.156 20.252ZM108.123 19.699C108.137 19.067 107.998 18.521 107.709 18.06C107.34 17.467 106.773 17.171 106.01 17.171C105.313 17.171 104.746 17.46 104.313 18.04C103.958 18.501 103.747 19.054 103.682 19.698L108.123 19.699Z" fill="white"/>
<path d="M37.05 4.00899C37.05 5.18599 36.697 6.07199 35.992 6.66699C35.339 7.21599 34.411 7.49099 33.209 7.49099C32.613 7.49099 32.103 7.46499 31.676 7.41299V0.981993C32.233 0.891993 32.833 0.845993 33.481 0.845993C34.626 0.845993 35.489 1.09499 36.071 1.59299C36.723 2.15599 37.05 2.96099 37.05 4.00899ZM35.945 4.03799C35.945 3.27499 35.743 2.68999 35.339 2.28199C34.935 1.87499 34.345 1.67099 33.568 1.67099C33.238 1.67099 32.957 1.69299 32.724 1.73899V6.62799C32.853 6.64799 33.089 6.65699 33.432 6.65699C34.234 6.65699 34.853 6.43399 35.289 5.98799C35.725 5.54199 35.945 4.89199 35.945 4.03799Z" fill="white"/>
<path d="M42.909 5.037C42.909 5.762 42.702 6.356 42.288 6.822C41.854 7.301 41.279 7.54 40.561 7.54C39.869 7.54 39.318 7.311 38.907 6.851C38.497 6.392 38.292 5.813 38.292 5.115C38.292 4.385 38.503 3.786 38.927 3.321C39.351 2.856 39.921 2.623 40.639 2.623C41.331 2.623 41.887 2.852 42.308 3.311C42.708 3.757 42.909 4.333 42.909 5.037ZM41.822 5.071C41.822 4.636 41.728 4.263 41.541 3.952C41.321 3.576 41.008 3.388 40.601 3.388C40.18 3.388 39.86 3.576 39.64 3.952C39.452 4.263 39.359 4.642 39.359 5.09C39.359 5.525 39.453 5.898 39.64 6.209C39.867 6.585 40.183 6.773 40.591 6.773C40.991 6.773 41.305 6.582 41.531 6.199C41.725 5.882 41.822 5.506 41.822 5.071Z" fill="white"/>
<path d="M50.765 2.71899L49.29 7.43299H48.33L47.719 5.38599C47.564 4.87499 47.438 4.36699 47.34 3.86299H47.321C47.23 4.38099 47.104 4.88799 46.942 5.38599L46.293 7.43299H45.322L43.935 2.71899H45.012L45.545 4.95999C45.674 5.48999 45.78 5.99499 45.865 6.47299H45.884C45.962 6.07899 46.091 5.57699 46.273 4.96999L46.942 2.71999H47.796L48.437 4.92199C48.592 5.45899 48.718 5.97599 48.815 6.47399H48.844C48.915 5.98899 49.022 5.47199 49.164 4.92199L49.736 2.71999H50.765V2.71899Z" fill="white"/>
<path d="M56.198 7.43299H55.15V4.733C55.15 3.901 54.834 3.48499 54.2 3.48499C53.889 3.48499 53.638 3.599 53.443 3.828C53.25 4.057 53.152 4.32699 53.152 4.63599V7.432H52.104V4.066C52.104 3.652 52.091 3.203 52.066 2.717H52.987L53.036 3.454H53.065C53.187 3.225 53.369 3.036 53.608 2.885C53.892 2.709 54.21 2.62 54.558 2.62C54.998 2.62 55.364 2.762 55.655 3.047C56.017 3.396 56.198 3.917 56.198 4.609V7.43299Z" fill="white"/>
<path d="M59.088 7.433H58.041V0.556H59.088V7.433Z" fill="white"/>
<path d="M65.258 5.037C65.258 5.762 65.051 6.356 64.637 6.822C64.203 7.301 63.627 7.54 62.91 7.54C62.217 7.54 61.666 7.311 61.256 6.851C60.846 6.392 60.641 5.813 60.641 5.115C60.641 4.385 60.852 3.786 61.276 3.321C61.7 2.856 62.27 2.623 62.987 2.623C63.68 2.623 64.235 2.852 64.657 3.311C65.057 3.757 65.258 4.333 65.258 5.037ZM64.17 5.071C64.17 4.636 64.076 4.263 63.889 3.952C63.67 3.576 63.356 3.388 62.95 3.388C62.528 3.388 62.208 3.576 61.989 3.952C61.801 4.263 61.708 4.642 61.708 5.09C61.708 5.525 61.802 5.898 61.989 6.209C62.216 6.585 62.532 6.773 62.94 6.773C63.34 6.773 63.653 6.582 63.879 6.199C64.074 5.882 64.17 5.506 64.17 5.071Z" fill="white"/>
<path d="M70.33 7.433H69.389L69.311 6.89H69.282C68.96 7.323 68.501 7.54 67.905 7.54C67.46 7.54 67.1 7.397 66.829 7.113C66.583 6.855 66.46 6.534 66.46 6.153C66.46 5.577 66.7 5.138 67.183 4.834C67.665 4.53 68.343 4.381 69.216 4.388V4.3C69.216 3.679 68.89 3.369 68.237 3.369C67.772 3.369 67.362 3.486 67.008 3.718L66.795 3.03C67.233 2.759 67.774 2.623 68.412 2.623C69.644 2.623 70.262 3.273 70.262 4.573V6.309C70.262 6.78 70.285 7.155 70.33 7.433ZM69.242 5.813V5.086C68.086 5.066 67.508 5.383 67.508 6.036C67.508 6.282 67.574 6.466 67.709 6.589C67.844 6.712 68.016 6.773 68.221 6.773C68.451 6.773 68.666 6.7 68.862 6.555C69.059 6.409 69.18 6.224 69.225 5.997C69.236 5.946 69.242 5.884 69.242 5.813Z" fill="white"/>
<path d="M76.285 7.433H75.355L75.306 6.676H75.277C74.98 7.252 74.474 7.54 73.763 7.54C73.195 7.54 72.722 7.317 72.347 6.871C71.972 6.425 71.785 5.846 71.785 5.135C71.785 4.372 71.988 3.754 72.396 3.282C72.791 2.842 73.275 2.622 73.851 2.622C74.484 2.622 74.927 2.835 75.179 3.262H75.199V0.556H76.248V6.163C76.248 6.622 76.26 7.045 76.285 7.433ZM75.199 5.445V4.659C75.199 4.523 75.189 4.413 75.17 4.329C75.111 4.077 74.984 3.865 74.791 3.694C74.596 3.523 74.361 3.437 74.09 3.437C73.699 3.437 73.393 3.592 73.168 3.903C72.945 4.214 72.832 4.611 72.832 5.096C72.832 5.562 72.939 5.94 73.154 6.231C73.381 6.541 73.687 6.696 74.07 6.696C74.414 6.696 74.689 6.567 74.898 6.308C75.1 6.069 75.199 5.781 75.199 5.445Z" fill="white"/>
<path d="M85.248 5.037C85.248 5.762 85.041 6.356 84.627 6.822C84.193 7.301 83.619 7.54 82.9 7.54C82.209 7.54 81.658 7.311 81.246 6.851C80.836 6.392 80.631 5.813 80.631 5.115C80.631 4.385 80.842 3.786 81.266 3.321C81.69 2.856 82.26 2.623 82.979 2.623C83.67 2.623 84.227 2.852 84.647 3.311C85.047 3.757 85.248 4.333 85.248 5.037ZM84.162 5.071C84.162 4.636 84.068 4.263 83.881 3.952C83.66 3.576 83.348 3.388 82.94 3.388C82.52 3.388 82.2 3.576 81.979 3.952C81.791 4.263 81.698 4.642 81.698 5.09C81.698 5.525 81.792 5.898 81.979 6.209C82.206 6.585 82.522 6.773 82.93 6.773C83.33 6.773 83.645 6.582 83.871 6.199C84.064 5.882 84.162 5.506 84.162 5.071Z" fill="white"/>
<path d="M90.883 7.43299H89.836V4.733C89.836 3.901 89.52 3.48499 88.885 3.48499C88.574 3.48499 88.323 3.599 88.129 3.828C87.935 4.057 87.838 4.32699 87.838 4.63599V7.432H86.789V4.066C86.789 3.652 86.777 3.203 86.752 2.717H87.672L87.721 3.454H87.75C87.873 3.225 88.055 3.036 88.293 2.885C88.578 2.709 88.895 2.62 89.244 2.62C89.683 2.62 90.049 2.762 90.34 3.047C90.703 3.396 90.883 3.917 90.883 4.609V7.43299Z" fill="white"/>
<path d="M97.936 3.504H96.782V5.794C96.782 6.376 96.987 6.667 97.393 6.667C97.581 6.667 97.737 6.651 97.86 6.618L97.887 7.413C97.68 7.491 97.408 7.53 97.073 7.53C96.659 7.53 96.337 7.404 96.104 7.152C95.87 6.9 95.754 6.476 95.754 5.881V3.504H95.065V2.719H95.754V1.855L96.781 1.545V2.718H97.935L97.936 3.504Z" fill="white"/>
<path d="M103.484 7.433H102.435V4.753C102.435 3.908 102.119 3.485 101.486 3.485C101 3.485 100.668 3.73 100.486 4.22C100.455 4.323 100.437 4.449 100.437 4.597V7.432H99.39V0.556H100.437V3.397H100.457C100.787 2.88 101.26 2.622 101.873 2.622C102.307 2.622 102.666 2.764 102.951 3.049C103.306 3.404 103.484 3.932 103.484 4.63V7.433Z" fill="white"/>
<path d="M109.207 4.853C109.207 5.041 109.193 5.199 109.168 5.328H106.025C106.039 5.794 106.189 6.149 106.48 6.395C106.746 6.615 107.089 6.725 107.509 6.725C107.974 6.725 108.398 6.651 108.78 6.502L108.944 7.23C108.497 7.424 107.971 7.521 107.362 7.521C106.632 7.521 106.057 7.306 105.641 6.876C105.223 6.446 105.016 5.869 105.016 5.145C105.016 4.434 105.209 3.842 105.598 3.37C106.004 2.866 106.553 2.614 107.246 2.614C107.924 2.614 108.439 2.866 108.787 3.37C109.068 3.77 109.207 4.265 109.207 4.853ZM108.207 4.582C108.215 4.271 108.146 4.003 108.004 3.777C107.822 3.486 107.545 3.34 107.17 3.34C106.828 3.34 106.549 3.482 106.336 3.767C106.162 3.994 106.059 4.265 106.025 4.582H108.207Z" fill="white"/>
</svg>
