<svg
    fill="none"
    height="200"
    viewBox="0 0 400 200"
    width="400"
    xmlns="http://www.w3.org/2000/svg"
    xmlns:xlink="http://www.w3.org/1999/xlink"
>
    <linearGradient id="a" gradientUnits="userSpaceOnUse" x1="317" x2="271" y1="40" y2="82">
        <stop offset="0" stop-color="#ff5977" />
        <stop offset="1" stop-color="#dc3251" />
    </linearGradient>
    <rect fill="#8695b2" fill-opacity=".08" height="4" rx="2" width="203" x="35" y="184" />
    <rect fill="#8695b2" fill-opacity=".08" height="4" rx="2" width="78" x="245" y="184" />
    <rect fill="#8695b2" fill-opacity=".08" height="4" rx="2" width="35" x="327" y="184" />
    <path
        d="m135 178c0-1.105.895-2 2-2h120c1.105 0 2 .895 2 2s-.895 2-2 2h-120c-1.105 0-2-.895-2-2z"
        fill="#8695b2"
        fill-opacity=".08"
    />
    <path
        d="m264 178c0-1.105.895-2 2-2h69c1.105 0 2 .895 2 2s-.895 2-2 2h-69c-1.105 0-2-.895-2-2z"
        fill="#8695b2"
        fill-opacity=".08"
    />
    <path
        d="m200.2 113.2c11.046 0 20-8.954 20-19.9986 0-11.0448-8.954-19.9983-20-19.9983-11.045 0-20 8.9535-20 19.9983 0 11.0446 8.955 19.9986 20 19.9986z"
        fill="#8695b2"
        fill-opacity=".08"
    />
    <path
        clip-rule="evenodd"
        d="m207.7 89.368c0 4.1418-3.358 7.4993-7.5 7.4993s-7.5-3.3575-7.5-7.4993 3.358-7.4993 7.5-7.4993 7.5 3.3575 7.5 7.4993zm-7.5 23.836c5.72 0 10.88-2.401 14.525-6.25-3.645-3.849-8.805-6.25-14.525-6.25s-10.879 2.401-14.524 6.25c3.645 3.849 8.804 6.25 14.524 6.25z"
        fill="#738099"
        fill-opacity=".4"
        fill-rule="evenodd"
    />
    <rect fill="#737f99" fill-opacity=".25" height="3" rx="1.5" width="21" x="190" y="118" />
    <rect fill="#737f99" fill-opacity=".25" height="9" rx="4" width="54" x="173" y="126" />
    <g fill="#738099" fill-opacity=".4">
        <circle cx="182.5" cy="130.5" r="1.5" />
        <circle cx="189.5" cy="130.5" r="1.5" />
        <circle cx="196.5" cy="130.5" r="1.5" />
        <circle cx="203.5" cy="130.5" r="1.5" />
        <circle cx="210.5" cy="130.5" r="1.5" />
        <circle cx="217.5" cy="130.5" r="1.5" />
        <path
            clip-rule="evenodd"
            d="m86 86c-4.4183 0-8 3.5817-8 8v76c0 4.418 3.5817 8 8 8h32c4.418 0 8-3.582 8-8v-76c0-4.4183-3.582-8-8-8zm-6 8c0-3.3137 2.6863-6 6-6h8c0 2.2091 1.7909 4 4 4h8c2.209 0 4-1.7909 4-4h8c3.314 0 6 2.6863 6 6v76c0 3.314-2.686 6-6 6h-32c-3.3137 0-6-2.686-6-6z"
            fill-rule="evenodd"
        />
    </g>
    <path d="m119 176h-33c-3.3137 0-6-2.686-6-6v-31c11.6923 35.311 39 37 39 37z" fill="#8695b2" fill-opacity=".08" />
    <path
        d="m102 129.999c5.523 0 10-4.477 10-10 0-5.522-4.477-9.999-10-9.999-5.5228 0-10 4.477-10 9.999 0 5.523 4.4772 10 10 10z"
        fill="#8695b2"
        fill-opacity=".08"
    />
    <path
        clip-rule="evenodd"
        d="m105.75 118.082c0 2.071-1.679 3.749-3.75 3.749-2.0714 0-3.7503-1.678-3.7503-3.749s1.6789-3.75 3.7503-3.75c2.071 0 3.75 1.679 3.75 3.75zm-3.75 11.917c2.859 0 5.438-1.201 7.261-3.125-1.823-1.924-4.402-3.124-7.261-3.124-2.8599 0-5.4391 1.2-7.2617 3.124 1.8226 1.924 4.4018 3.125 7.2617 3.125z"
        fill="#738099"
        fill-opacity=".4"
        fill-rule="evenodd"
    />
    <rect fill="#737f99" fill-opacity=".25" height="3" rx="1.5" width="19" x="93" y="133" />
    <path
        d="m322.749 105.062c-.781-.782-.781-2.048 0-2.829l7.778-7.7781c.781-.781 2.047-.781 2.828 0l24.047 24.0471c2.929 2.929 2.929 7.678 0 10.607-2.928 2.928-7.677 2.928-10.606 0z"
        fill="#737f99"
        fill-opacity=".25"
    />
    <path
        clip-rule="evenodd"
        d="m322.764 89.5189c5.758-6.7291 9.236-15.4678 9.236-25.0189 0-21.263-17.237-38.5-38.5-38.5s-38.5 17.237-38.5 38.5 17.237 38.5 38.5 38.5c9.191 0 17.63-3.2208 24.25-8.5953l5.095 5.0953 4.95-4.9497zm5.236-25.0189c0 19.0538-15.446 34.5-34.5 34.5s-34.5-15.4462-34.5-34.5 15.446-34.5 34.5-34.5 34.5 15.4462 34.5 34.5z"
        fill="#738099"
        fill-opacity=".4"
        fill-rule="evenodd"
    />
    <path
        d="m289.014 42.4817c2.027-3.3089 6.945-3.3089 8.972 0l18.267 29.8132c2.08 3.3951-.429 7.7051-4.486 7.7051h-36.534c-4.057 0-6.566-4.31-4.486-7.7051z"
        fill="url(#a)"
    />
    <path
        d="m289.889 73.2441c-.062.2891.087.582.357.7021.27.12.588.0344.761-.2052l8.125-11.25c.137-.1903.156-.4415.049-.6505-.106-.209-.321-.3405-.556-.3405h-4.262l1.128-6.7722c.048-.2842-.105-.564-.37-.6774-.265-.1133-.573-.0309-.746.1996l-7.5 10c-.142.1894-.165.4428-.059.6546.106.2117.322.3454.559.3454h4.227z"
        fill="#fff"
    />
    <path
        d="m268.666 22.2412.94.7988c.712.6049 1.752-.1669 1.379-1.0234-2.289-5.2647-5.828-9.8911-10.311-13.47742l-1.318-1.05442c-.908-.72641-2.149.3399-1.568 1.34712l.668 1.15841c2.676 4.63861 6.13 8.78261 10.21 12.25091z"
        fill="#8695b2"
        fill-opacity=".08"
    />
    <path
        d="m297.809 19.8265v.5215c0 .9461 1.27 1.2568 1.707.4176 2.463-4.7324 3.85-9.9512 4.059-15.28238l.085-2.1685c.05-1.27517-1.707-1.66578-2.202-.48944l-.42.99953c-2.131 5.06576-3.229 10.50609-3.229 16.00169z"
        fill="#8695b2"
        fill-opacity=".08"
    />
    <path
        d="m339.046 20.9192-.602.4046c-4.376 2.9392-8.05 6.8076-10.759 11.3294-.486.8112.46 1.7202 1.257 1.2115 3.991-2.5461 7.454-5.8614 10.168-9.7409l1.282-1.8334c.62-.8868-.447-1.9746-1.346-1.3712z"
        fill="#8695b2"
        fill-opacity=".08"
    />
    <path
        d="m347.218 14.4086-.03.0821c-.074.1995.121.3934.32.3187 2.251-.8442 4.12-2.4759 5.26-4.5928l1.025-1.9037c.191-.35514-.213-.73308-.555-.51809l-1.346.84791c-2.15 1.35476-3.793 3.38158-4.674 5.76588z"
        fill="#8695b2"
        fill-opacity=".08"
    />
    <path
        d="m356.865 53.1613-.722-.072c-5.245-.5234-10.541.1169-15.511 1.8751-.891.3154-.742 1.6187.197 1.7348 4.698.5811 9.48.233 14.043-1.0278l2.157-.5958c1.043-.2883.913-1.8068-.164-1.9143z"
        fill="#8695b2"
        fill-opacity=".08"
    />
    <path
        clip-rule="evenodd"
        d="m287.955 106.642c-1.354-.177-2.688-.417-3.999-.718l-.041 54.076h-9.915s-93.719-2.421-146-49.257v53.257h64c0 2.209 1.791 4 4 4h8c2.209 0 4-1.791 4-4h75.912 4l.003-4zm-33.633-58.642h-136.322c-3.314 0-6 2.6863-6 6v30h4v-30c0-1.1046.895-2 2-2h134.868c.419-1.3638.905-2.6984 1.454-4z"
        fill="#8695b2"
        fill-opacity=".08"
        fill-rule="evenodd"
    />
    <path
        clip-rule="evenodd"
        d="m289.994 106.857c-.671-.054-1.338-.125-2-.21v57.353h-79.994c0 2.209-1.791 4-4 4h-8c-2.209 0-4-1.791-4-4h-64v6c0 .691-.088 1.361-.252 2h173.252c2.209 0 4-1.791 4-4s-1.791-4-4-4h-11.006zm-34.767-60.857h-137.227c-4.418 0-8 3.5817-8 8v30h2v-30c0-3.3137 2.686-6 6-6h136.322c.285-.6758.587-1.3426.905-2z"
        fill="#738099"
        fill-opacity=".4"
        fill-rule="evenodd"
    />
    <rect fill="#737f99" fill-opacity=".25" height="6" rx="2" width="30" x="87" y="140" />
    <path
        clip-rule="evenodd"
        d="m92 144c.5523 0 1-.448 1-1s-.4477-1-1-1-1 .448-1 1 .4477 1 1 1zm4 0c.5523 0 1-.448 1-1s-.4477-1-1-1-1 .448-1 1 .4477 1 1 1zm5-1c0 .552-.448 1-1 1-.5523 0-1-.448-1-1s.4477-1 1-1c.552 0 1 .448 1 1zm3 1c.552 0 1-.448 1-1s-.448-1-1-1-1 .448-1 1 .448 1 1 1zm5-1c0 .552-.448 1-1 1s-1-.448-1-1 .448-1 1-1 1 .448 1 1zm3 1c.552 0 1-.448 1-1s-.448-1-1-1-1 .448-1 1 .448 1 1 1z"
        fill="#738099"
        fill-opacity=".4"
        fill-rule="evenodd"
    />
</svg>
