<svg
    fill="none"
    height="120"
    viewBox="0 0 199 120"
    width="199"
    xmlns="http://www.w3.org/2000/svg"
    xmlns:xlink="http://www.w3.org/1999/xlink"
>
    <linearGradient id="a" gradientUnits="userSpaceOnUse" x1="165.574" x2="108.334" y1="55.3373" y2="67.8183">
        <stop offset="0" stop-color="#ecaaff" />
        <stop offset="1" stop-color="#6a48f6" />
    </linearGradient>
    <path
        clip-rule="evenodd"
        d="m83 14c-4.4183 0-8 3.5817-8 8v76c0 4.418 3.5817 8 8 8h32c4.418 0 8-3.582 8-8v-76c0-4.4183-3.582-8-8-8zm-6 8c0-3.3137 2.6863-6 6-6h8c0 2.2091 1.7909 4 4 4h8c2.209 0 4-1.7909 4-4h8c3.314 0 6 2.6863 6 6v76c0 3.314-2.686 6-6 6h-32c-3.3137 0-6-2.686-6-6z"
        fill="#738099"
        fill-opacity=".375"
        fill-rule="evenodd"
    />
    <rect fill="#8695b2" fill-opacity=".08" height="17" rx="4" width="14" x="83" y="34" />
    <path
        clip-rule="evenodd"
        d="m90.25 47.5c2.3472 0 4.25-1.9028 4.25-4.25s-1.9028-4.25-4.25-4.25-4.25 1.9028-4.25 4.25 1.9028 4.25 4.25 4.25zm3.2159-4.25c0 1.7761-1.4398 3.2159-3.2159 3.2159-.6137 0-1.1873-.172-1.6752-.4703l4.4208-4.4208c.2983.4879.4703 1.0615.4703 1.6752zm-1.1464-2.4616c-.5593-.4707-1.2813-.7543-2.0695-.7543-1.7761 0-3.2159 1.4398-3.2159 3.2159 0 .7882.2836 1.5102.7543 2.0695z"
        fill="#737f99"
        fill-opacity=".25"
        fill-rule="evenodd"
    />
    <rect fill="#8695b3" fill-opacity=".08" height="19" rx="4" width="32" x="83" y="71" />
    <g fill="#737f99" fill-opacity=".25">
        <path
            clip-rule="evenodd"
            d="m99.25 84.5c2.347 0 4.25-1.9028 4.25-4.25s-1.903-4.25-4.25-4.25c-2.3472 0-4.25 1.9028-4.25 4.25s1.9028 4.25 4.25 4.25zm3.216-4.25c0 1.7761-1.44 3.2159-3.216 3.2159-.6137 0-1.1873-.172-1.6752-.4703l4.4212-4.4208c.298.4879.47 1.0615.47 1.6752zm-1.147-2.4616c-.559-.4707-1.281-.7543-2.069-.7543-1.7761 0-3.2159 1.4398-3.2159 3.2159 0 .7882.2836 1.5102.7543 2.0695z"
            fill-rule="evenodd"
        />
        <rect height="2" rx="1" width="17" x="83" y="66" />
        <rect height="2" rx="1" width="17" x="98" y="49" />
        <rect height="2" rx="1" width="17" x="98" y="44" />
        <rect height="2" rx="1" width="17" x="98" y="39" />
        <rect height="2" rx="1" width="17" x="98" y="34" />
        <rect height="2" rx="1" width="32" x="83" y="60" />
        <rect height="2" rx="1" width="32" x="83" y="54" />
    </g>
    <path
        clip-rule="evenodd"
        d="m58 60c-7.732 0-14 6.268-14 14s6.268 14 14 14h14v-14c0-7.732-6.268-14-14-14zm8.3951 8.1897c.1509-.1695.1374-.4308-.0301-.5835s-.4257-.1391-.5766.0304l-13.0625 14.6737c-.1509.1695-.1374.4308.0301.5835s.4257.1391.5766-.0304l3.0623-3.44c.2571.1064.5363.1639.8241.1639h1.8988c.8333 0 1.5935-.4814 1.958-1.2396h1.4189l1.3592 1.5171c.1515.1691.4097.1818.5767.0286.1671-.1533.1797-.4146.0282-.5837l-1.4807-1.6527c-.0774-.0863-.1872-.1356-.3025-.1356h-1.2039l.0362-.0756c.4042-.8437.5837-1.7657.5386-2.6789h.4482l1.3592 1.517c.1515.1691.4097.1819.5767.0286.1671-.1533.1797-.4146.0282-.5836l-1.4807-1.6528c-.0774-.0863-.1872-.1356-.3025-.1356h-.7322c-.0395-.1957-.0896-.3897-.1503-.5812zm-5.5774 3.134.2581.3296-5.8555 6.6944h-1.6504l-1.3592 1.5171c-.1514.1691-.4096.1818-.5767.0286-.167-.1533-.1796-.4146-.0282-.5837l1.4808-1.6527c.0774-.0863.1872-.1356.3024-.1356h1.4761l-.0362-.0756c-.4042-.8437-.5837-1.7657-.5386-2.6789h-.7204l-1.3592 1.517c-.1514.1691-.4096.1819-.5767.0286-.167-.1533-.1796-.4146-.0282-.5836l1.4808-1.6528c.0774-.0863.1872-.1356.3024-.1356h1.0045c.0899-.446.2351-.8835.4354-1.3016l.2342-.4888h-1.6741c-.1152 0-.225-.0493-.3024-.1357l-1.4808-1.6527c-.1514-.169-.1388-.4303.0282-.5836.1671-.1533.4253-.1405.5767.0285l1.3592 1.5171h1.9493c.4078-.5155 1.0302-.8263 1.6998-.8263h1.8988c.6697 0 1.2921.3108 1.6999.8263zm-3.3018-3.4307c-.5955.2627-.9806.8576-.9806 1.515v.263c0 .1521.1219.2755.2722.2755h2.7218c.1503 0 .2722-.1234.2722-.2755v-.263c0-.6574-.385-1.2523-.9805-1.515-.4162-.1836-.889-.1836-1.3051 0z"
        fill="#738099"
        fill-opacity=".375"
        fill-rule="evenodd"
    />
    <path
        d="m149.994 52.2902c.32.554.32 1.2364 0 1.7904l-10.156 17.591c-.32.554-.911.8952-1.551.8952h-20.312c-.64 0-1.231-.3412-1.551-.8952l-10.156-17.591c-.32-.554-.32-1.2364 0-1.7904l10.156-17.591c.32-.554.911-.8952 1.551-.8952h20.312c.64 0 1.231.3412 1.551.8952z"
        fill="url(#a)"
    />
    <path
        d="m129.221 41.0996c-.792 0-1.434.6493-1.434 1.4502v8.8463c0 .2136-.171.3867-.382.3867s-.383-.1731-.383-.3867v-7.8795c0-.8009-.642-1.4502-1.434-1.4502s-1.434.6493-1.434 1.4502v8.8946c0 .2136-.171.3867-.382.3867s-.382-.1731-.382-.3867v-6.0908c0-.801-.642-1.4503-1.434-1.4503s-1.435.6493-1.435 1.4503v13.2452h.019c.244 3.1913 2.882 5.7041 6.1 5.7041 4.462 0 7.181-.001 1.439 0 4.81 0 6.13-2.2391 7.96-5.1044l.001-.0018c.146-.2279.294-.4597.447-.6946l2.588-4.5245c.505-.8847.205-2.016-.669-2.5268-.875-.5108-1.994-.2076-2.499.6771l-1.173 2.0544c-.122.2142-.446.1265-.446-.1208v-10.6899c0-.8009-.642-1.4502-1.434-1.4502s-1.434.6493-1.434 1.4502v7.0577c0 .2136-.171.3867-.382.3867-.212 0-.383-.1731-.383-.3867v-8.8463c0-.8009-.642-1.4502-1.434-1.4502z"
        fill="#fff"
    />
</svg>
