<svg
    fill="none"
    height="120"
    viewBox="0 0 199 120"
    width="199"
    xmlns="http://www.w3.org/2000/svg"
    xmlns:xlink="http://www.w3.org/1999/xlink"
>
    <linearGradient id="a" gradientUnits="userSpaceOnUse" x1="101.019" x2="110.202" y1="37.5481" y2="85.3512">
        <stop offset="0" stop-color="#ecaaff" />
        <stop offset="1" stop-color="#6a48f6" />
    </linearGradient>
    <path d="m20 28h159v78c0 3.314-2.686 6-6 6h-147c-3.3137 0-6-2.686-6-6z" fill="#606a80" fill-opacity=".08" />
    <path d="m20 14c0-3.3137 2.6863-6 6-6h147c3.314 0 6 2.6863 6 6v14h-159z" fill="#606a80" fill-opacity=".25" />
    <circle cx="29" cy="18" fill="#738099" fill-opacity=".4" r="4" />
    <circle cx="41" cy="18" fill="#738099" fill-opacity=".4" r="4" />
    <circle cx="53" cy="18" fill="#738099" fill-opacity=".4" r="4" />
    <path
        d="m117.281 73h-36.2806c-1.5793 0-2.9966-1.343-3.0004-3-.0036-1.5813 1.1402-3 2.7195-3h36.2805c1.579 0 2.996 1.3432 3 3 .004 1.5812-1.14 3-2.719 3z"
        fill="url(#a)"
    />
    <path
        d="m105.915 50h1.152c2.646 0 4.866 1.9297 5.293 4.4886l1.382 7.1735c.134.6939-.397 1.3379-1.104 1.3379h-27.2482c-.7155 0-1.2492-.6592-1.1004-1.3591l1.5216-7.1523c.3415-2.5589 2.561-4.4886 5.2073-4.4886h1.1524c1.2805 0 2.5183.5453 3.5 1.3424.8964.7551 2.0915 1.2165 3.372 1.2165 1.2803 0 2.4333-.4614 3.3723-1.2165.981-.839 2.219-1.3424 3.5-1.3424z"
        fill="url(#a)"
    />
    <path
        d="m107.324 74.2475c-3.031 0-5.592 2.0555-6.317 4.8661-.555-.4615-1.238-.7132-2.0062-.7132-.7683 0-1.4513.2517-1.9635.7132-.6829-2.7687-3.2439-4.8661-6.317-4.8661-3.5854 0-6.4878 2.8525-6.4878 6.3762 0 3.5238 2.9024 6.3763 6.4878 6.3763 3.5 0 6.317-2.6847 6.4878-6.0826.2134-.7971.939-1.3843 1.7927-1.3843.8963 0 1.6222.5872 1.7922 1.4262.171 3.356 2.988 6.0407 6.488 6.0407 3.586 0 6.488-2.8525 6.488-6.3763.043-3.5237-2.86-6.3762-6.445-6.3762zm-16.6037 11.536c-2.8598 0-5.2073-2.3072-5.2073-5.1178s2.3475-5.1178 5.2073-5.1178c2.8597 0 5.2073 2.3072 5.2073 5.1178s-2.3476 5.1178-5.2073 5.1178zm16.6037 0c-2.86 0-5.207-2.3072-5.207-5.1178s2.347-5.1178 5.207-5.1178 5.207 2.3072 5.207 5.1178-2.347 5.1178-5.207 5.1178z"
        fill="url(#a)"
    />
    <g fill="#8695b2" fill-opacity=".08">
        <path d="m125 57c0-.5523.448-1 1-1h35c.552 0 1 .4477 1 1s-.448 1-1 1h-35c-.552 0-1-.4477-1-1z" />
        <path d="m38 52c0-.5523.4477-1 1-1h36c.5523 0 1 .4477 1 1s-.4477 1-1 1h-36c-.5523 0-1-.4477-1-1z" />
        <path d="m44 57c0-.5523.4477-1 1-1h27c.5523 0 1 .4477 1 1s-.4477 1-1 1h-27c-.5523 0-1-.4477-1-1z" />
        <path d="m38 62c0-.5523.4477-1 1-1h25c.5523 0 1 .4477 1 1s-.4477 1-1 1h-25c-.5523 0-1-.4477-1-1z" />
        <path d="m35 67c0-.5523.4477-1 1-1h28c.5523 0 1 .4477 1 1s-.4477 1-1 1h-28c-.5523 0-1-.4477-1-1z" />
        <path d="m25 67c0-.5523.4477-1 1-1h5c.5523 0 1 .4477 1 1s-.4477 1-1 1h-5c-.5523 0-1-.4477-1-1z" />
        <path d="m38 72c0-.5523.4477-1 1-1h27c.5523 0 1 .4477 1 1s-.4477 1-1 1h-27c-.5523 0-1-.4477-1-1z" />
        <path d="m121 52c0-.5523.448-1 1-1h28c.552 0 1 .4477 1 1s-.448 1-1 1h-28c-.552 0-1-.4477-1-1z" />
        <path d="m127 62c0-.5523.448-1 1-1h26c.552 0 1 .4477 1 1s-.448 1-1 1h-26c-.552 0-1-.4477-1-1z" />
        <path d="m132 67c0-.5523.448-1 1-1h27c.552 0 1 .4477 1 1s-.448 1-1 1h-27c-.552 0-1-.4477-1-1z" />
        <path d="m128 72c0-.5523.448-1 1-1h36c.552 0 1 .4477 1 1s-.448 1-1 1h-36c-.552 0-1-.4477-1-1z" />
    </g>
</svg>
