<svg
    fill="none"
    height="120"
    viewBox="0 0 199 120"
    width="199"
    xmlns="http://www.w3.org/2000/svg"
    xmlns:xlink="http://www.w3.org/1999/xlink"
>
    <linearGradient id="a">
        <stop offset="0" stop-color="#eebeff" />
        <stop offset="1" stop-color="#6d4aff" />
    </linearGradient>
    <linearGradient
        id="b"
        gradientUnits="userSpaceOnUse"
        x1="94.0893"
        x2="66"
        xlink:href="#a"
        y1="41.7143"
        y2="79.4285"
    />
    <linearGradient
        id="c"
        gradientUnits="userSpaceOnUse"
        x1="144.488"
        x2="84.1499"
        xlink:href="#a"
        y1="44.0955"
        y2="79.0488"
    />
    <path
        d="m96.7812 16.4792-30.7812 20.5208 33 24 33-24-30.781-20.5208c-1.3438-.8957-3.0942-.8957-4.4378 0z"
        fill="#4d34b3"
    />
    <path d="m76 23c0-1.1046.8954-2 2-2h42c1.105 0 2 .8954 2 2v38h-46z" fill="#fff" />
    <path d="m74.5 78.9998h-4.5292c-2.2132 0-3.9708-1.7576-3.9708-3.9709v-38.0289l33 24z" fill="url(#b)" />
    <path d="m74.25 79.0002h53.713c2.213 0 3.971-1.8227 4.036-3.9709v-38.0293z" fill="url(#c)" />
    <path
        clip-rule="evenodd"
        d="m76 101c-2.2091 0-4 1.791-4 4v3c0 2.209 1.7909 4 4 4h46c2.209 0 4-1.791 4-4v-3c0-2.209-1.791-4-4-4zm7 5.5c0 .828-.6716 1.5-1.5 1.5s-1.5-.672-1.5-1.5.6716-1.5 1.5-1.5 1.5.672 1.5 1.5zm7 0c0 .828-.6716 1.5-1.5 1.5s-1.5-.672-1.5-1.5.6716-1.5 1.5-1.5 1.5.672 1.5 1.5zm5.5 1.5c.8284 0 1.5-.672 1.5-1.5s-.6716-1.5-1.5-1.5-1.5.672-1.5 1.5.6716 1.5 1.5 1.5zm8.5-1.5c0 .828-.672 1.5-1.5 1.5s-1.5-.672-1.5-1.5.672-1.5 1.5-1.5 1.5.672 1.5 1.5zm5.5 1.5c.828 0 1.5-.672 1.5-1.5s-.672-1.5-1.5-1.5-1.5.672-1.5 1.5.672 1.5 1.5 1.5zm8.5-1.5c0 .828-.672 1.5-1.5 1.5s-1.5-.672-1.5-1.5.672-1.5 1.5-1.5 1.5.672 1.5 1.5z"
        fill="#737f99"
        fill-opacity=".25"
        fill-rule="evenodd"
    />
    <path
        clip-rule="evenodd"
        d="m16 101c-2.2091 0-4 1.791-4 4v3c0 2.209 1.7909 4 4 4h46c2.2091 0 4-1.791 4-4v-3c0-2.209-1.7909-4-4-4zm7 5.5c0 .828-.6716 1.5-1.5 1.5s-1.5-.672-1.5-1.5.6716-1.5 1.5-1.5 1.5.672 1.5 1.5zm7 0c0 .828-.6716 1.5-1.5 1.5s-1.5-.672-1.5-1.5.6716-1.5 1.5-1.5 1.5.672 1.5 1.5zm5.5 1.5c.8284 0 1.5-.672 1.5-1.5s-.6716-1.5-1.5-1.5-1.5.672-1.5 1.5.6716 1.5 1.5 1.5zm8.5-1.5c0 .828-.6716 1.5-1.5 1.5s-1.5-.672-1.5-1.5.6716-1.5 1.5-1.5 1.5.672 1.5 1.5zm5.5 1.5c.8284 0 1.5-.672 1.5-1.5s-.6716-1.5-1.5-1.5-1.5.672-1.5 1.5.6716 1.5 1.5 1.5zm8.5-1.5c0 .828-.6716 1.5-1.5 1.5s-1.5-.672-1.5-1.5.6716-1.5 1.5-1.5 1.5.672 1.5 1.5z"
        fill="#737f99"
        fill-opacity=".25"
        fill-rule="evenodd"
    />
    <path
        d="m39 101v-8c0-2.2091 1.7909-4 4-4h56m60 12v-8c0-2.2091-1.791-4-4-4h-56m0 0v12m0-12v-10"
        stroke="#737f99"
        stroke-opacity=".25"
        stroke-width="2"
    />
    <path
        clip-rule="evenodd"
        d="m136 101c-2.209 0-4 1.791-4 4v3c0 2.209 1.791 4 4 4h46c2.209 0 4-1.791 4-4v-3c0-2.209-1.791-4-4-4zm7 5.5c0 .828-.672 1.5-1.5 1.5s-1.5-.672-1.5-1.5.672-1.5 1.5-1.5 1.5.672 1.5 1.5zm7 0c0 .828-.672 1.5-1.5 1.5s-1.5-.672-1.5-1.5.672-1.5 1.5-1.5 1.5.672 1.5 1.5zm5.5 1.5c.828 0 1.5-.672 1.5-1.5s-.672-1.5-1.5-1.5-1.5.672-1.5 1.5.672 1.5 1.5 1.5zm8.5-1.5c0 .828-.672 1.5-1.5 1.5s-1.5-.672-1.5-1.5.672-1.5 1.5-1.5 1.5.672 1.5 1.5zm5.5 1.5c.828 0 1.5-.672 1.5-1.5s-.672-1.5-1.5-1.5-1.5.672-1.5 1.5.672 1.5 1.5 1.5zm8.5-1.5c0 .828-.672 1.5-1.5 1.5s-1.5-.672-1.5-1.5.672-1.5 1.5-1.5 1.5.672 1.5 1.5z"
        fill="#737f99"
        fill-opacity=".25"
        fill-rule="evenodd"
    />
</svg>
