<svg
    fill="none"
    height="120"
    viewBox="0 0 199 120"
    width="199"
    xmlns="http://www.w3.org/2000/svg"
    xmlns:xlink="http://www.w3.org/1999/xlink"
>
    <linearGradient id="a">
        <stop offset="0" stop-color="#ecaaff" />
        <stop offset="1" stop-color="#6a48f6" />
    </linearGradient>
    <linearGradient
        id="b"
        gradientUnits="userSpaceOnUse"
        x1="101.923"
        x2="113.075"
        xlink:href="#a"
        y1="2.53965"
        y2="53.6894"
    />
    <linearGradient
        id="c"
        gradientUnits="userSpaceOnUse"
        x1="101.397"
        x2="110.753"
        xlink:href="#a"
        y1="14.1199"
        y2="53.8978"
    />
    <linearGradient
        id="d"
        gradientUnits="userSpaceOnUse"
        x1="39.9231"
        x2="51.0751"
        xlink:href="#a"
        y1="22.5396"
        y2="73.6894"
    />
    <linearGradient
        id="e"
        gradientUnits="userSpaceOnUse"
        x1="39.3967"
        x2="48.7527"
        xlink:href="#a"
        y1="34.1199"
        y2="73.8978"
    />
    <linearGradient
        id="f"
        gradientUnits="userSpaceOnUse"
        x1="163.923"
        x2="175.075"
        xlink:href="#a"
        y1="22.5396"
        y2="73.6894"
    />
    <linearGradient
        id="g"
        gradientUnits="userSpaceOnUse"
        x1="163.397"
        x2="172.753"
        xlink:href="#a"
        y1="34.1199"
        y2="73.8978"
    />
    <path
        d="m100 55.9965c11.046 0 20-8.9535 20-19.9983 0-11.0447-8.954-19.9982-20-19.9982-11.0457 0-20 8.9535-20 19.9982 0 11.0448 8.9543 19.9983 20 19.9983z"
        fill="url(#b)"
        fill-opacity=".2"
    />
    <path
        clip-rule="evenodd"
        d="m107.5 32.1649c0 4.1417-3.358 7.4993-7.5003 7.4993-4.1421 0-7.4999-3.3576-7.4999-7.4993 0-4.1418 3.3578-7.4994 7.4999-7.4994 4.1423 0 7.5003 3.3576 7.5003 7.4994zm-7.5 23.8361c5.72 0 10.879-2.4011 14.525-6.2502-3.646-3.8492-8.805-6.2503-14.525-6.2503s-10.8791 2.4011-14.5244 6.2502c3.6453 3.8492 8.8045 6.2503 14.5244 6.2503z"
        fill="url(#c)"
        fill-rule="evenodd"
    />
    <rect fill="#606a80" fill-opacity=".08" height="11" rx="4" width="54" x="73" y="64.001" />
    <g fill="#738099" fill-opacity=".4">
        <circle cx="82.5" cy="69.501" r="1.5" />
        <circle cx="89.5" cy="69.501" r="1.5" />
        <circle cx="96.5" cy="69.501" r="1.5" />
        <circle cx="103.5" cy="69.501" r="1.5" />
        <circle cx="110.5" cy="69.501" r="1.5" />
        <circle cx="117.5" cy="69.501" r="1.5" />
    </g>
    <path
        d="m38 75.9965c11.0457 0 20-8.9535 20-19.9983 0-11.0447-8.9543-19.9982-20-19.9982s-20 8.9535-20 19.9982c0 11.0448 8.9543 19.9983 20 19.9983z"
        fill="url(#d)"
        fill-opacity=".2"
    />
    <path
        clip-rule="evenodd"
        d="m45.4996 52.1649c0 4.1417-3.3578 7.4993-7.4999 7.4993s-7.4999-3.3576-7.4999-7.4993c0-4.1418 3.3578-7.4994 7.4999-7.4994s7.4999 3.3576 7.4999 7.4994zm-7.4995 23.8361c5.72 0 10.8792-2.4011 14.5245-6.2502-3.6453-3.8492-8.8045-6.2503-14.5245-6.2503-5.7201 0-10.8792 2.4011-14.5245 6.2502 3.6453 3.8492 8.8045 6.2503 14.5245 6.2503z"
        fill="url(#e)"
        fill-rule="evenodd"
    />
    <rect fill="#606a80" fill-opacity=".08" height="11" rx="4" width="54" x="11" y="84.001" />
    <circle cx="20.5" cy="89.501" fill="#738099" fill-opacity=".4" r="1.5" />
    <circle cx="27.5" cy="89.501" fill="#738099" fill-opacity=".4" r="1.5" />
    <circle cx="34.5" cy="89.501" fill="#738099" fill-opacity=".4" r="1.5" />
    <circle cx="41.5" cy="89.501" fill="#738099" fill-opacity=".4" r="1.5" />
    <circle cx="48.5" cy="89.501" fill="#738099" fill-opacity=".4" r="1.5" />
    <circle cx="55.5" cy="89.501" fill="#738099" fill-opacity=".4" r="1.5" />
    <path
        d="m162 75.9965c11.046 0 20-8.9535 20-19.9983 0-11.0447-8.954-19.9982-20-19.9982s-20 8.9535-20 19.9982c0 11.0448 8.954 19.9983 20 19.9983z"
        fill="url(#f)"
        fill-opacity=".2"
    />
    <path
        clip-rule="evenodd"
        d="m169.5 52.1649c0 4.1417-3.358 7.4993-7.5 7.4993s-7.5-3.3576-7.5-7.4993c0-4.1418 3.358-7.4994 7.5-7.4994s7.5 3.3576 7.5 7.4994zm-7.5 23.8361c5.72 0 10.879-2.4011 14.525-6.2502-3.646-3.8492-8.805-6.2503-14.525-6.2503s-10.879 2.4011-14.524 6.2502c3.645 3.8492 8.804 6.2503 14.524 6.2503z"
        fill="url(#g)"
        fill-rule="evenodd"
    />
    <rect fill="#606a80" fill-opacity=".08" height="11" rx="4" width="54" x="135" y="84.001" />
    <circle cx="144.5" cy="89.501" fill="#738099" fill-opacity=".4" r="1.5" />
    <circle cx="151.5" cy="89.501" fill="#738099" fill-opacity=".4" r="1.5" />
    <circle cx="158.5" cy="89.501" fill="#738099" fill-opacity=".4" r="1.5" />
    <circle cx="165.5" cy="89.501" fill="#738099" fill-opacity=".4" r="1.5" />
    <circle cx="172.5" cy="89.501" fill="#738099" fill-opacity=".4" r="1.5" />
    <circle cx="179.5" cy="89.501" fill="#738099" fill-opacity=".4" r="1.5" />
</svg>
