<svg
    fill="none"
    height="28"
    viewBox="0 0 28 28"
    width="28"
    xmlns="http://www.w3.org/2000/svg"
    xmlns:xlink="http://www.w3.org/1999/xlink"
>
    <linearGradient id="a" gradientUnits="userSpaceOnUse" x1="28" x2="-1.44665" y1="-.000002" y2="21.3083">
        <stop offset="0" stop-color="#ff5977" />
        <stop offset="1" stop-color="#dc3251" />
    </linearGradient>
    <path
        clip-rule="evenodd"
        d="m23 10c2.7614 0 5-2.23858 5-5s-2.2386-5-5-5-5 2.23858-5 5 2.2386 5 5 5zm0 1c.7013 0 1.3745-.1203 2.0001-.3414v6.2967c0 2.5912-1.4313 4.9704-3.7205 6.1843l-6.7329 3.5705c-.3418.1813-.7513.1813-1.0931 0l-6.73301-3.5705c-2.28913-1.214-3.72045-3.5931-3.72048-6.1842l-.00011-11.89129c-.00001-.60288.45885-1.10934 1.05619-1.1909 1.80038-.24585 5.58906-.89217 8.88501-2.30078.6754-.28863 1.4422-.28863 2.1176 0 .8136.34773 1.6573.64901 2.4937.90928-.3546.76577-.5525 1.61892-.5525 2.51829 0 3.31371 2.6863 6 6 6zm-10.8667 7.9632c-.0371.1734.0523.3492.2144.4212.1621.0721.3525.0207.4563-.1231l4.875-6.75c.0825-.1141.094-.2649.0299-.3902-.0641-.1254-.1931-.2043-.3339-.2043h-2.5573l.6772-4.06337c.0284-.17054-.0634-.3384-.2224-.40642-.1589-.06801-.3438-.01854-.4475.11977l-4.5 6.00002c-.0852.1136-.0989.2656-.0354.3927.0635.127.1934.2073.3354.2073h2.5361zm10.3987-13.39734-.3931-3.07209c-.0665-.51952.3442-.97937.8679-.97937.5238 0 .9344.45982.868.97933l-.393 3.07211c-.0305.23899-.2339.41804-.4749.41804-.2409 0-.4443-.17904-.4749-.41802zm1.233 2.03196c0 .41141-.3396.74492-.7586.74492-.4189 0-.7586-.33351-.7586-.74492 0-.4114.3397-.74491.7586-.74491.419 0 .7586.33351.7586.74491z"
        fill="url(#a)"
        fill-rule="evenodd"
    />
</svg>
