<svg
    fill="none"
    height="28"
    viewBox="0 0 28 28"
    width="28"
    xmlns="http://www.w3.org/2000/svg"
    xmlns:xlink="http://www.w3.org/1999/xlink"
>
    <linearGradient id="a" gradientUnits="userSpaceOnUse" x1="25.0002" x2="-2.51152" y1="1.08325" y2="19.2307">
        <stop offset="0" stop-color="#ffcc80" />
        <stop offset="1" stop-color="#f90" />
    </linearGradient>
    <path
        clip-rule="evenodd"
        d="m3 5.06411.00011 11.89129c.00003 2.5911 1.43135 4.9702 3.72048 6.1842l6.73301 3.5705c.3418.1813.7513.1813 1.0931 0l6.7329-3.5705c2.2892-1.2139 3.7205-3.5931 3.7205-6.1843l-.0001-11.89121c0-.60287-.4589-1.10931-1.0562-1.19088-1.8004-.24584-5.5891-.89217-8.885-2.30078-.6754-.28863-1.4422-.28863-2.1176 0-3.29595 1.40861-7.08463 2.05493-8.88501 2.30078-.59734.08156-1.0562.58802-1.05619 1.1909zm9.3477 14.32029c-.1621-.0721-.2515-.2478-.2144-.4212l1.0278-4.7965h-2.5361c-.142 0-.2719-.0802-.3354-.2073-.0635-.127-.0498-.279.0354-.3927l4.5-5.99997c.1037-.13831.2886-.18778.4475-.11977.159.06802.2508.23588.2224.40642l-.6772 4.06332h2.5573c.1408 0 .2698.0789.3339.2043s.0525.2761-.0299.3903l-4.875 6.75c-.1039.1438-.2942.1951-.4563.1231z"
        fill="url(#a)"
        fill-rule="evenodd"
    />
</svg>
