<svg
    fill="none"
    height="48"
    viewBox="0 0 48 48"
    width="48"
    xmlns="http://www.w3.org/2000/svg"
    xmlns:xlink="http://www.w3.org/1999/xlink"
>
    <linearGradient id="a" gradientUnits="userSpaceOnUse" x1="42" x2="-2.75328" y1="3" y2="32.8079">
        <stop offset="0" stop-color="#ffcc80" />
        <stop offset="1" stop-color="#f90" />
    </linearGradient>
    <path
        clip-rule="evenodd"
        d="m6 9.80996v18.12914c0 4.358 2.3627 8.3735 6.1723 10.4899l10.8564 6.0314c.6041.3356 1.3385.3356 1.9426 0l10.8564-6.0314c3.8096-2.1164 6.1723-6.1319 6.1723-10.4899v-18.12914c0-1.0275-.7744-1.89273-1.7907-2.044-2.9116-.43336-8.9007-1.54245-14.396-3.92243-1.1554-.50036-2.4712-.50036-3.6266 0-5.4953 2.37999-11.4844 3.48907-14.39598 3.92243-1.0163.15127-1.79072 1.0165-1.79072 2.044zm15.7969 21.14694c-.2161-.0961-.3354-.3304-.2858-.5616l1.3704-6.3953h-3.3815c-.1894 0-.3625-.107-.4472-.2764s-.0664-.3721.0472-.5236l6-8c.1383-.1844.3848-.2503.5967-.1597.2119.0907.3344.3145.2965.5419l-.903 5.4178h3.4098c.1878 0 .3597.1052.4452.2724s.0701.3681-.0399.5204l-6.5 9c-.1384.1917-.3923.2602-.6084.1641z"
        fill="url(#a)"
        fill-rule="evenodd"
    />
</svg>
