<!--


	viewbox 16X16

	Size = sm (Small)


-->
<svg class="proton-hidden">
    <g id="ic-file-shapes">
        <path
            fill-rule="evenodd"
            d="M13 13a1 1 0 0 1-1 1H4a1 1 0 0 1-1-1V3a1 1 0 0 1 1-1h5v2.5A1.5 1.5 0 0 0 10.5 6H13v7Zm-.414-8L10 2.414V4.5a.5.5 0 0 0 .5.5h2.086ZM2 3a2 2 0 0 1 2-2h5.172a2 2 0 0 1 1.414.586l2.828 2.828A2 2 0 0 1 14 5.828V13a2 2 0 0 1-2 2H4a2 2 0 0 1-2-2V3Zm3 8v1h1v-1H5Zm-.5-1a.5.5 0 0 0-.5.5v2a.5.5 0 0 0 .5.5h2a.5.5 0 0 0 .5-.5v-2a.5.5 0 0 0-.5-.5h-2Z"
        />
        <path fill-rule="evenodd" d="M9.5 9a.5.5 0 1 0 0-1 .5.5 0 0 0 0 1Zm0 1a1.5 1.5 0 1 0 0-3 1.5 1.5 0 0 0 0 3Z" />
    </g>
    <g id="ic-cross-circle">
        <path fill-rule="evenodd" d="M8 14A6 6 0 1 0 8 2a6 6 0 0 0 0 12Zm0 1A7 7 0 1 0 8 1a7 7 0 0 0 0 14Z" />
        <path
            fill-rule="evenodd"
            d="M5.146 5.146a.5.5 0 0 1 .708 0L8 7.293l2.146-2.147a.5.5 0 0 1 .708.708L8.707 8l2.147 2.146a.5.5 0 0 1-.708.708L8 8.707l-2.146 2.147a.5.5 0 0 1-.708-.708L7.293 8 5.146 5.854a.5.5 0 0 1 0-.708Z"
        />
    </g>

    <g id="ic-file-slash">
        <path
            fill-rule="evenodd"
            d="M0.853553 0.146447C0.658291 -0.0488155 0.341709 -0.0488155 0.146447 0.146447C-0.0488155 0.341709 -0.0488155 0.658291 0.146447 0.853553L15.1464 15.8536C15.3417 16.0488 15.6583 16.0488 15.8536 15.8536C16.0488 15.6583 16.0488 15.3417 15.8536 15.1464L14.7231 14.016C14.899 13.7182 15 13.3709 15 13V6.5L9.5 1H3C2.6291 1 2.28177 1.10096 1.98402 1.27691L0.853553 0.146447ZM2.74098 2.03387L13.9661 13.259C13.9882 13.1764 14 13.0896 14 13V7H11C9.89543 7 9 6.10457 9 5V2H3C2.91042 2 2.82359 2.01178 2.74098 2.03387ZM13.0858 6L10 2.91421V5C10 5.55228 10.4477 6 11 6H13.0858Z"
        />
        <path
            d="M1 13V3.81421L2 4.81421V13C2 13.5523 2.44772 14 3 14H11.1858L12.1858 15H3C1.89543 15 1 14.1046 1 13Z"
        />
    </g>

    <g id="ic-file-image">
        <path
            fill-rule="evenodd"
            d="M13 6v7a1 1 0 0 1-1 1H4a1 1 0 0 1-1-1V3a1 1 0 0 1 1-1h5v2.5A1.5 1.5 0 0 0 10.5 6H13Zm-.414-1L10 2.414V4.5a.5.5 0 0 0 .5.5h2.086ZM2 3a2 2 0 0 1 2-2h5.172a2 2 0 0 1 1.414.586l2.828 2.828A2 2 0 0 1 14 5.828V13a2 2 0 0 1-2 2H4a2 2 0 0 1-2-2V3Zm9.557 9.3c.361 0 .57-.386.358-.663L9.433 8.404a.275.275 0 0 0-.43 0L7.2 10.755 6.195 9.448a.275.275 0 0 0-.43 0l-1.68 2.19c-.212.276-.003.662.358.662h7.114ZM6.8 8.3a.8.8 0 1 0 0-1.6.8.8 0 0 0 0 1.6Z"
        />
    </g>

    <g id="ic-three-dots-horizontal">
        <path d="M4 8a1 1 0 1 1-2 0 1 1 0 0 1 2 0Z" />
        <path d="M9 8a1 1 0 1 1-2 0 1 1 0 0 1 2 0Z" />
        <path d="M14 8a1 1 0 1 1-2 0 1 1 0 0 1 2 0Z" />
    </g>
</svg>
