<svg class="hidden">
<defs>

<!--

    viewbox 16x16

-->


<g id="ic-address-card">
    <path d="M5.32,9.64A1.6,1.6,0,1,0,3.73,8.05,1.59,1.59,0,0,0,5.32,9.64Zm0-2.19a.6.6,0,0,1,0,1.19.6.6,0,0,1,0-1.19Z"></path>
    <path d="M1,4V14H15V4Zm2.64,9v-.51l.9-.92H6.1l.9.92V13ZM14,13H8v-.92L6.52,10.57H4.12L2.64,12.08V13H2V5H14Z"></path>
    <rect x="9" y="8" width="4" height="1"></rect>
    <rect x="9" y="10" width="4" height="1"></rect>
</g>

<g id="ic-align-center">
    <rect x="3" y="12" width="10" height="1"></rect>
    <rect x="5" y="9" width="6" height="1"></rect>
    <rect x="3" y="6" width="10" height="1"></rect>
    <rect x="5" y="3" width="6" height="1"></rect>
</g>

<g id="ic-align-justify">
    <rect x="3" y="12" width="10" height="1"></rect>
    <rect x="3" y="9" width="10" height="1"></rect>
    <rect x="3" y="6" width="10" height="1"></rect>
    <rect x="3" y="3" width="10" height="1"></rect>
</g>

<g id="ic-align-left">
    <rect x="2" y="3" width="7" height="1"></rect>
    <rect x="2" y="6" width="11" height="1"></rect>
    <rect x="2" y="9" width="7" height="1"></rect>
    <rect x="2" y="12" width="11" height="1"></rect>
</g>

<g id="ic-align-right">
    <rect x="3" y="12" width="11" height="1"></rect>
    <rect x="7" y="9" width="7" height="1"></rect>
    <rect x="3" y="6" width="11" height="1"></rect>
    <rect x="7" y="3" width="7" height="1"></rect>
</g>

<g id="ic-angle-down">
    <path d="M7.982 9.356l-4.44-4.111-.75.694 5.19 4.805 5.19-4.805-.749-.694z"></path>
</g>

<g id="ic-angles-left">
    <path d="M3.89,8,8,3.56l-.69-.75L2.5,8l4.81,5.19L8,12.44Z"></path>
    <path d="M9.39,8,13.5,3.56l-.7-.75L8,8l4.8,5.19.7-.75Z"></path>
</g>

<g id="ic-arrow-down">
    <polygon points="12.98 8.31 8.5 12.79 8.5 2 7.5 2 7.5 12.79 3.02 8.31 2.31 9.02 8 14.71 13.69 9.02 12.98 8.31"></polygon>
</g>

<g id="ic-arrow-down-arrow-up">
    <path d="M4 11.793V3h1v8.793l1.146-1.146.708.707L4.5 13.707l-2.354-2.353.708-.707L4 11.793zM12 4.207V13h-1V4.207L9.854 5.354l-.708-.708L11.5 2.293l2.354 2.353-.707.708L12 4.207z"></path>
</g>

<g id="ic-arrow-down-left-and-arrow-up-right-to-center">
    <polygon points="15.35 1.35 14.65 0.65 10 5.29 10 1 9 1 9 7 15 7 15 6 10.71 6 15.35 1.35"></polygon>
    <polygon points="1 10 5.29 10 0.65 14.65 1.35 15.35 6 10.71 6 15 7 15 7 9 1 9 1 10"></polygon>
</g>

<g id="ic-arrow-down-short-wide">
    <polygon points="4 12.97 4 2.88 3 2.88 3 12.97 2.52 12.48 1.98 13.02 3.5 14.53 5.02 13.02 4.48 12.48 4 12.97"></polygon>
    <rect x="6" y="9" width="6" height="1"></rect>
    <rect x="6" y="12" width="8" height="1"></rect>
    <rect x="6" y="6" width="4" height="1"></rect>
    <rect x="6" y="3" width="2" height="1"></rect>
</g>

<g id="ic-arrow-down-to-rectangle">
    <polygon points="12.35 5.85 11.65 5.15 8.5 8.29 8.5 1 7.5 1 7.5 8.29 4.35 5.15 3.65 5.85 8 10.21 12.35 5.85"></polygon>
    <path d="M1,12v3H15V12Zm13,2H2V13H14Z"></path>
</g>

<g id="ic-arrow-down-to-screen">
    <polygon points="11.35 6.23 10.65 5.52 8.5 7.67 8.5 2.13 7.5 2.13 7.5 7.67 5.35 5.52 4.65 6.23 8 9.58 11.35 6.23"></polygon>
    <polygon points="15 12 15 3 12 3 12 4 14 4 14 11 2 11 2 4 4 4 4 3 1 3 1 12 7.5 12 7.5 14 4 14 4 15 12 15 12 14 8.5 14 8.5 12 15 12"></polygon>
</g>

<g id="ic-arrow-down-wide-short">
    <polygon points="4 12.97 4 2.88 3 2.88 3 12.97 2.52 12.48 1.98 13.02 3.5 14.53 5.02 13.02 4.48 12.48 4 12.97"></polygon>
    <rect x="6" y="6" width="6" height="1"></rect>
    <rect x="6" y="3" width="8" height="1"></rect>
    <rect x="6" y="9" width="4" height="1"></rect>
    <rect x="6" y="12" width="2" height="1"></rect>
</g>

<g id="ic-arrow-left">
    <polygon points="14 7.5 3.21 7.5 7.69 3.02 6.98 2.31 1.29 8 6.98 13.69 7.69 12.98 3.21 8.5 14 8.5 14 7.5"></polygon>
</g>

<g id="ic-arrow-right">
    <polygon points="9.02 2.31 8.31 3.02 12.79 7.5 2 7.5 2 8.5 12.79 8.5 8.31 12.98 9.02 13.69 14.71 8 9.02 2.31"></polygon>
</g>

<g id="ic-arrow-right-arrow-left">
    <path d="M15.53,9.6H4.05V8.38a.24.24,0,0,0-.38-.19L.28,10.26c-.19.09-.19.28,0,.38l3.39,2.07c.19.09.38,0,.38-.19V11.29H15.53a.44.44,0,0,0,.47-.47V10A.43.43,0,0,0,15.53,9.6Z"></path>
    <path d="M12,6.4V7.62a.24.24,0,0,0,.38.19l3.39-2.07c.19-.09.19-.28,0-.38L12.33,3.29c-.19-.09-.38,0-.38.19V4.71H.47A.44.44,0,0,0,0,5.18V6a.44.44,0,0,0,.47.47H12Z"></path>
</g>

<g id="ic-arrow-right-big">
    <path d="M2 7.94V10c1 0 3.93 0 3.92-.01l2.71.01v2.8l5.91-4.86-5.91-4.71V6H2v1.94zM3 9V7H9.63V5.3L13 8l-3.37 2.68V9H3z"></path>
</g>

<g id="ic-arrow-right-from-rectangle">
    <path d="M1 2h9v3H9V3H2v11h7v-2h1v3H1V2z"></path>
    <path d="M11.146 5.854L13.293 8H6v1h7.293l-2.147 2.146.707.708L15.207 8.5l-3.354-3.354-.707.708z"></path>
</g>

<g id="ic-arrow-rotate-right">
    <path d="M11.19,7.35l2.35,2.36L15.9,7.35l-.71-.7L14,7.79v0h0A6,6,0,1,0,13,11.44l-.82-.57A5,5,0,1,1,13,7.77L11.9,6.65Z"></path>
</g>

<g id="ic-arrow-up">
    <polygon points="8 1.29 2.31 6.98 3.02 7.69 7.5 3.21 7.5 14 8.5 14 8.5 3.21 12.98 7.69 13.69 6.98 8 1.29"></polygon>
</g>

<g id="ic-arrow-up-and-left-big">
    <path d="M13.33,7.17A4.36,4.36,0,0,0,10.42,6H8V3.23L2.09,7.94,8,12.8V10h2.71a2.91,2.91,0,0,1,1.94.39,6.32,6.32,0,0,1,1,1.08l.88,1.24,0-2.67A4,4,0,0,0,13.33,7.17ZM13.26,9.6A3.77,3.77,0,0,0,10.7,9H7v1.68L3.68,8,7,5.3V7h3.39a3.41,3.41,0,0,1,2.25.88,3.06,3.06,0,0,1,.9,2Z"></path>
</g>

<g id="ic-arrow-up-and-left-double-big">
    <path d="M13.63,7.12A4.73,4.73,0,0,0,10.55,6H10V3.23L4.09,7.94,10,12.8V10h.59a3.46,3.46,0,0,1,2.22.42,3.34,3.34,0,0,1,.91.92l.89,1.47L14.67,10A3.93,3.93,0,0,0,13.63,7.12Zm-.28,2.46A4.61,4.61,0,0,0,10.59,9H9v1.68L5.68,8,9,5.3V7h1.52a3.75,3.75,0,0,1,2.41.83,2.88,2.88,0,0,1,.74,2A2.57,2.57,0,0,0,13.35,9.58Z"></path>
    <polygon points="6.97 4.39 6.34 3.61 0.92 7.94 6.34 12.39 6.97 11.61 2.51 7.95 6.97 4.39"></polygon>
</g>

<g id="ic-arrow-up-big-line">
    <path d="M5,13h6v1H5Z"></path>
    <path d="M11,12V8h3L8,2,2,8H5v4ZM4.41,7,8,3.41,11.59,7H10v4H6V7Z"></path>
</g>

<g id="ic-arrow-up-from-rectangle">
    <polygon points="7.5 2.71 7.5 10 8.5 10 8.5 2.71 11.65 5.85 12.35 5.15 8 0.79 3.65 5.15 4.35 5.85 7.5 2.71"></polygon>
    <path d="M1,12v3H15V12Zm13,2H2V13H14Z"></path>
</g>

<g id="ic-arrow-up-from-screen">
    <polygon points="7.5 3.33 7.5 8.88 8.5 8.88 8.5 3.33 10.65 5.48 11.35 4.77 8 1.42 4.65 4.77 5.35 5.48 7.5 3.33"></polygon>
    <polygon points="15 12 15 3 12 3 12 4 14 4 14 11 2 11 2 4 4 4 4 3 1 3 1 12 7.5 12 7.5 14 4 14 4 15 12 15 12 14 8.5 14 8.5 12 15 12"></polygon>
</g>

<g id="ic-arrow-up-right-and-arrow-down-left-from-center">
    <polygon points="8 2 8 3 12.29 3 3 12.29 3 8 2 8 2 14 8 14 8 13 3.71 13 13 3.71 13 8 14 8 14 2 8 2"></polygon>
</g>

<g id="ic-arrow-up-right-from-square">
    <path id="icon" fill-rule="evenodd" clip-rule="evenodd" d="M14 2.00001L13.2427 2.00001L13.2427 2L13.2426 2.00001L13 2.00001L9 2.00001V3.00001H12.2426L5.76613 9.47653L6.47324 10.1836L13 3.65687V7.00001H14V3.00001V2.00001ZM2 2.00001H5V3.00001H3L3 13L13 13V11H14V14H13H3H2V13V3.00001V2.00001Z"></path>
</g>

<g id="ic-arrows-left-right">
    <polygon points="12.44 4.72 11.73 5.43 13.74 7.46 2.24 7.46 4.27 5.44 3.57 4.73 0.29 7.98 3.56 11.28 4.28 10.57 2.18 8.46 13.85 8.46 11.73 10.56 12.43 11.27 15.71 8.02 12.44 4.72"></polygon>
</g>

<g id="ic-arrows-rotate">
    <path d="M14,7.83,13,7.9a5,5,0,0,1-1.46,3.91A5,5,0,0,1,4.73,12H6.08V11h-3v3h1V12.76A6,6,0,0,0,14,7.83Z"></path>
    <path d="M4.44,4.44a5,5,0,0,1,7.07,0h0q.28.27.57.51V5h-2V6h3V3h-1v.6l0,0,0,0A6,6,0,0,0,2,8.42l1-.07A5,5,0,0,1,4.44,4.44Z"></path>
</g>

<g id="ic-arrows-up-down-left-right">
    <polygon points="12.43 4.73 11.72 5.43 13.77 7.5 8.46 7.5 8.46 2.16 10.56 4.27 11.27 3.57 8.02 0.3 4.72 3.57 5.43 4.28 7.46 2.27 7.46 7.5 2.19 7.5 4.27 5.44 3.57 4.73 0.3 7.97 3.57 11.27 4.28 10.56 2.23 8.5 7.46 8.5 7.46 13.76 5.44 11.72 4.73 12.43 7.98 15.7 11.28 12.43 10.57 11.72 8.46 13.82 8.46 8.5 13.81 8.5 11.73 10.56 12.43 11.27 15.7 8.03 12.43 4.73"></polygon>
</g>

<g id="ic-bag-percent">
    <path d="M11,4V3.7A3,3,0,0,0,9.69,1.23,3,3,0,0,0,6.83.93,3,3,0,0,0,5,3.75V4H2V15H14V4ZM6,3.75A2,2,0,0,1,7.19,1.86a2.05,2.05,0,0,1,1.94.2A2,2,0,0,1,10,3.7V4H6ZM13,14H3V5H13Z"></path>
    <path d="M9.78,9.35a1.49,1.49,0,0,0-1.11,1.81,1.48,1.48,0,0,0,.67.93,1.46,1.46,0,0,0,.78.22,1.34,1.34,0,0,0,.35,0,1.48,1.48,0,0,0,.93-.67,1.5,1.5,0,0,0,.19-1.13,1.48,1.48,0,0,0-.67-.93A1.53,1.53,0,0,0,9.78,9.35Zm.77,1.72a.5.5,0,0,1-.91-.14.49.49,0,0,1,.37-.6l.12,0a.51.51,0,0,1,.48.39A.44.44,0,0,1,10.55,11.07Z"></path>
    <path d="M6.22,9.65a1.49,1.49,0,1,0-.35,0A2.09,2.09,0,0,0,6.22,9.65Zm-.61-1a.5.5,0,0,1-.22-.31.44.44,0,0,1,.06-.37.48.48,0,0,1,.31-.23h.11a.48.48,0,0,1,.26.07.51.51,0,0,1,.17.69h0A.5.5,0,0,1,6,8.67.46.46,0,0,1,5.61,8.61Z"></path>
    <rect x="4" y="9" width="8" height="1" transform="translate(-4.29 11.32) rotate(-58.33)"></rect>
    <path d="M5.47 12.64l4.2-6.808.851.525-4.2 6.809z"></path>
</g>

<g id="ic-bars">
    <rect x="2" y="2" width="12" height="2"></rect>
    <rect x="2" y="7" width="12" height="2"></rect>
    <rect x="2" y="12" width="12" height="2"></rect>
</g>

<g id="ic-bell">
    <path d="M12.43,10.24A4.93,4.93,0,0,1,12,9.38,18.19,18.19,0,0,1,12,6,4,4,0,0,0,8,2,4,4,0,0,0,4,6,17.76,17.76,0,0,1,4,9.38a5.36,5.36,0,0,1-.46.9L2.19,13H6a2,2,0,0,0,4,0h3.81ZM8,14a1,1,0,0,1-1-1H9A1,1,0,0,1,8,14Zm1.76-2H3.81l.62-1.24A6.38,6.38,0,0,0,5,9.62,18.82,18.82,0,0,0,5,6,3,3,0,0,1,8,3a2.94,2.94,0,0,1,2.12.89A2.91,2.91,0,0,1,11,6a19.28,19.28,0,0,0,0,3.66,5.93,5.93,0,0,0,.54,1.1L12.19,12Z"></path>
</g>

<g id="ic-bell-slash">
    <path d="M4,9.37,5.09,8.3C5.09,7.29,5,6.16,5,6A3,3,0,0,1,8,3a3,3,0,0,1,1.78.6l.71-.7A3.94,3.94,0,0,0,8,2,4,4,0,0,0,4,6,18.55,18.55,0,0,1,4,9.37Z"></path>
    <path d="M12,9.38A18.19,18.19,0,0,1,12,6a3.79,3.79,0,0,0-.33-1.53l2.59-2.58-.71-.71L1.05,13.68l.71.71L3.14,13H6a2,2,0,0,0,4,0h3.81l-1.38-2.76A4.93,4.93,0,0,1,12,9.38ZM8,14a1,1,0,0,1-1-1H9A1,1,0,0,1,8,14Zm1.76-2H4.14L10.9,5.24A3,3,0,0,1,11,6a19.28,19.28,0,0,0,0,3.66,5.93,5.93,0,0,0,.54,1.1L12.19,12Z"></path>
</g>

<g id="ic-bold">
    <path d="M13.59,10.17a3.86,3.86,0,0,0-3-3.07,3,3,0,0,0,.79-2.81A3.06,3.06,0,0,0,8.38,2H2V3H3V14H2v1H9.94a3.55,3.55,0,0,0,2.64-1.19A4.19,4.19,0,0,0,13.59,10.17ZM5,7H5V8H5v6H4V3H5ZM6,3H8.38a2.07,2.07,0,0,1,2,1.51,2,2,0,0,1-.54,1.9A2,2,0,0,1,8.48,7H6Zm5.84,10.13a2.54,2.54,0,0,1-1.9.87H6V8H9.81a2.87,2.87,0,0,1,2.8,2.35A3.17,3.17,0,0,1,11.84,13.13Z"></path>
</g>

<g id="ic-book">
    <path d="M12.15,2H2V15H14V3.85A1.85,1.85,0,0,0,12.15,2ZM4,14H3V3H4Zm9,0H5V3h7.15a.84.84,0,0,1,.85.85Z"></path>
    <rect x="7" y="6" width="2" height="1"></rect>
    <rect x="7" y="8" width="4" height="1"></rect>
    <rect x="7" y="10" width="4" height="1"></rect>
</g>

<g id="ic-book-user">
    <path d="M9,9.31a2,2,0,1,0-2-2A2,2,0,0,0,9,9.31Zm0-3a1,1,0,1,1-1,1A1,1,0,0,1,9,6.31Z"></path>
    <path d="M7.7,10,6,11.24V13h6V11.24L10.3,10ZM11,12H7v-.24L8,11H10l1,.76Z"></path>
    <path d="M12.5,2H2V15H12.5A1.5,1.5,0,0,0,14,13.5V3.5A1.5,1.5,0,0,0,12.5,2ZM4,14H3V3H4Zm9-.5a.5.5,0,0,1-.5.5H5V3h7.5a.5.5,0,0,1,.5.5Z"></path>
</g>

<g id="ic-box-archive">
    <polygon points="10 9 9 9 9 10 7 10 7 9 6 9 6 11 10 11 10 9"></polygon>
    <path d="M2,3V7H3v8H13V7h1V3ZM12,14H4V7h8Zm1-8H3V4H13Z"></path>
</g>

<g id="ic-brand-amex">
    <path d="M1,3V13H15V3Zm13,9H2V4H14Z"></path>
    <polygon points="10.38 7.46 9.23 7.46 9.23 7.46 9.23 7.79 10.23 7.79 10.23 8.17 9.23 8.17 9.23 8.54 10.35 8.54 10.88 8 10.38 7.46"></polygon>
    <polygon points="4.28 8.13 4.91 8.13 4.59 7.39 4.28 8.13"></polygon>
    <path d="M4.4,8.88h.39L5,9.29H6.51V9l.13.31h.8L7.58,9v.32h3.2l.39-.4.36.4h1.65L12,8l1.18-1.3H11.56l-.38.39-.35-.39H7.34L7,7.37l-.3-.66H5.34V7l-.15-.3H4L2.82,9.29h1.4ZM8.77,7.07h1.84l.56.61.58-.61h.57L11.46,8l.86.92h-.59l-.56-.62-.59.62H8.77ZM3.94,8.93h-.5l.82-1.86h.68l.78,1.76V7.07h.75l.59,1.26.56-1.26h.74V8.93H7.91V7.47L7.24,8.93h-.4L6.18,7.47V8.93H5.25l-.18-.42h-1Z"></path>
</g>

<g id="ic-brand-android">
    <path d="M14.46,6.24a.94.94,0,0,0-1.88,0v3.94a.94.94,0,0,0,1.88,0V6.23h0ZM3.8,5.48v6.1a1,1,0,0,0,1,1h.68v2.08a.94.94,0,1,0,1.87,0V12.6H8.62v2.09a.94.94,0,1,0,1.88,0V12.6h.69a1,1,0,0,0,1-1V5.47H3.8ZM9.94,3.61a.36.36,0,1,1,0-.71.36.36,0,0,1,0,.71m-3.86,0a.36.36,0,1,1,.36-.35.36.36,0,0,1-.36.35m4-1.84L10.73.57a.13.13,0,0,0-.05-.18.14.14,0,0,0-.18.06L9.83,1.66A4.31,4.31,0,0,0,8,1.26a4.69,4.69,0,0,0-1.84.38L5.5.43a.14.14,0,0,0-.18,0,.12.12,0,0,0-.05.17l.65,1.2A3.83,3.83,0,0,0,3.76,5.14h8.48a3.83,3.83,0,0,0-2.16-3.39M2.48,5.29a.94.94,0,0,0-.94.94v3.94a.95.95,0,1,0,1.89,0V6.24a.94.94,0,0,0-.94-.94"></path>
</g>

<g id="ic-brand-apple">
    <path d="M4.87,15.35a3.48,3.48,0,0,1-.79-.74,10.41,10.41,0,0,1-.68-.92,9.24,9.24,0,0,1-1.13-2.32A8.61,8.61,0,0,1,1.8,8.61,5,5,0,0,1,2.44,6,3.56,3.56,0,0,1,3.77,4.62a3.61,3.61,0,0,1,1.81-.54,3.27,3.27,0,0,1,.72.1c.18.05.41.13.68.23l.6.24a1.46,1.46,0,0,0,.51.11,1.53,1.53,0,0,0,.41-.08c.1,0,.27-.09.52-.2l.59-.22a5.49,5.49,0,0,1,.67-.17,3,3,0,0,1,.73,0,4.33,4.33,0,0,1,1.24.27,3.29,3.29,0,0,1,1.56,1.24,2.66,2.66,0,0,0-.46.35,4,4,0,0,0-.78,1,3.1,3.1,0,0,0-.41,1.6,3.27,3.27,0,0,0,.53,1.82,3.39,3.39,0,0,0,1,1,2.58,2.58,0,0,0,.53.29,5.89,5.89,0,0,1-.26.7,9.47,9.47,0,0,1-.79,1.47,10.87,10.87,0,0,1-.66.89,3.2,3.2,0,0,1-.75.7,1.66,1.66,0,0,1-.92.28,2.1,2.1,0,0,1-.66-.08,5,5,0,0,1-.54-.21A5.71,5.71,0,0,0,9,15.11,2.64,2.64,0,0,0,8.3,15a3,3,0,0,0-.74.1,4,4,0,0,0-.58.2c-.26.11-.44.19-.54.22a2.78,2.78,0,0,1-.63.11,1.79,1.79,0,0,1-.95-.29ZM9.23,3.6A2.32,2.32,0,0,1,8,3.88a2.51,2.51,0,0,1,.17-1.3,3.54,3.54,0,0,1,.64-1.07,3.49,3.49,0,0,1,1-.8A2.9,2.9,0,0,1,11,.36a2.91,2.91,0,0,1-.16,1.32,3.92,3.92,0,0,1-.64,1.12,3.28,3.28,0,0,1-1,.8Z"></path>
</g>

<g id="ic-brand-bitcoin">
    <path d="M8,1a7,7,0,1,0,7,7A7,7,0,0,0,8,1ZM8,14a6,6,0,1,1,6-6A6,6,0,0,1,8,14Z"></path>
    <path d="M9.76,7.7A1.6,1.6,0,0,0,10,6.82V6.63a1.63,1.63,0,0,0-.68-1.31V4.5h-1V5H8V4.5H7V5H5.8V6h.51v4.1H5.8v1H7v.45H8v-.45h.36v.45h1V11A1.7,1.7,0,0,0,10.7,9.37V9.18A1.65,1.65,0,0,0,9.76,7.7ZM8.27,6A.73.73,0,0,1,9,6.63v.19a.72.72,0,0,1-.76.68h-1V6ZM9.7,9.37a.72.72,0,0,1-.75.68H7.31V8.5H9a.71.71,0,0,1,.75.68Z"></path>
</g>

<g id="ic-brand-chrome">
    <path d="M5.226 8.015a2.78 2.78 0 002.777 2.777 2.78 2.78 0 002.777-2.777 2.78 2.78 0 00-2.777-2.777 2.78 2.78 0 00-2.777 2.777z"></path><path d="M14.398 4.35a.122.122 0 00-.001-.123A7.425 7.425 0 008.004.584a7.398 7.398 0 00-5.81 2.798.122.122 0 00-.01.137l2.092 3.623a.122.122 0 00.224-.03 3.618 3.618 0 013.828-2.7h5.964a.122.122 0 00.106-.062z"></path><path d="M9.102 11.544a.122.122 0 00-.13-.042c-.314.087-.64.132-.969.132a3.637 3.637 0 01-3.281-2.095L1.738 4.371a.122.122 0 00-.212.001 7.434 7.434 0 005.369 10.992.122.122 0 00.124-.06L9.11 11.68a.122.122 0 00-.01-.136z"></path><path d="M14.81 5.224h-4.19a.122.122 0 00-.085.209 3.59 3.59 0 011.087 2.582 3.592 3.592 0 01-.652 2.07l-2.99 5.177a.122.122 0 00.106.183h.002a7.385 7.385 0 005.197-2.203 7.384 7.384 0 002.15-5.227c0-.936-.173-1.849-.512-2.714a.122.122 0 00-.114-.077z"></path>
</g>

<g id="ic-brand-gmail">
    <path d="M14.4,1.6H1.6A1.6,1.6,0,0,0,0,3.2v9.6a1.6,1.6,0,0,0,1.6,1.6H14.4A1.6,1.6,0,0,0,16,12.8V3.2A1.6,1.6,0,0,0,14.4,1.6Zm0,11.2H12.8v-7L8,8.8l-4.8-3v7H1.6V3.2h1L8,6.56,13.44,3.2h1Z"></path>
</g>

<g id="ic-brand-linux">
    <path d="M7.141 4.334c-.005-.04.055-.066.092-.083a.189.189 0 0 1 .157 0c.012.005.023.02.018.032-.011.034-.069.028-.1.045-.032.018-.052.05-.087.05-.034 0-.077-.012-.08-.041zm.707-.006c.029.014.052.049.087.049.034 0 .08-.011.083-.043.003-.032-.055-.066-.092-.083a.189.189 0 0 0-.158 0c-.01.005-.022.02-.017.032.009.037.066.031.097.048zm6.148 8.882a.692.692 0 0 1-.398.523 5.013 5.013 0 0 0-1.457.923l-.074-.062.074.062a2.087 2.087 0 0 1-1.383.798 1.148 1.148 0 0 1-1.154-.658.91.91 0 0 1-.071-.192c-.615.034-1.15-.152-1.577-.118-.63.034-1.025.186-1.383.186a1.037 1.037 0 0 1-.744.579 2.399 2.399 0 0 1-1.6-.298l.046-.086-.046.086a6.05 6.05 0 0 0-1.698-.358.77.77 0 0 1-.576-.352 1.159 1.159 0 0 1 .062-.907 1.482 1.482 0 0 0-.023-.595 2.253 2.253 0 0 1-.034-.338.733.733 0 0 1 .08-.355.886.886 0 0 1 .53-.416 1.23 1.23 0 0 0 .486-.237c.15-.157.29-.412.476-.578a3.292 3.292 0 0 1 .177-1.526 9.143 9.143 0 0 1 1.667-2.772 3.32 3.32 0 0 0 .644-1.853c.03-.91-.706-3.877 2.23-3.87 2.316 0 2.184 2.444 2.169 3.759a3.203 3.203 0 0 0 .957 2.06 7.639 7.639 0 0 1 1.33 2.131 3.315 3.315 0 0 1 .107 2.265.635.635 0 0 1 .117.057.774.774 0 0 1 .115.083 1.11 1.11 0 0 1 .3.641 1.395 1.395 0 0 0 .207.564 1.293 1.293 0 0 1 .443.85zM7.848 3.919a2.04 2.04 0 0 1 .372.124c-.062-.35.13-.673.338-.66.255.01.398.445.26.782a.512.512 0 0 1-.111.132 3.541 3.541 0 0 1 .36.14 1.14 1.14 0 0 0 .124-1.156.658.658 0 0 0-1.26.011 1.14 1.14 0 0 0-.083.624zm-1.322.538c.223-.163.198-.134.169-.157-.23-.198-.186-.785.051-.806.18-.014.31.306.275.561a1.03 1.03 0 0 1 .292-.132c.049-.553-.258-.96-.547-.96-.541.001-.687 1.076-.24 1.494zm-.27.599a.833.833 0 0 0 .422.438c.223.132.343.33.572.43a.798.798 0 0 0 .275.062c.527.031.776-.324 1.094-.427a.995.995 0 0 0 .65-.518c.092-.243-.062-.42-.3-.521a4.796 4.796 0 0 1-.648-.267A1.378 1.378 0 0 0 7.578 4a1.142 1.142 0 0 0-.8.406c-.014.014-.226.17-.403.3a.31.31 0 0 0-.12.353zm-.959 7.238l-.56-1.02a1 1 0 0 0-.628-.458.518.518 0 0 0-.507.198c-.137.146-.252.352-.41.515a1.287 1.287 0 0 1-.56.284.655.655 0 0 0-.424.323.964.964 0 0 0-.026.573 1.538 1.538 0 0 1 .017.682v.005a.998.998 0 0 0-.074.756c.226.441 1.334.175 2.19.628.9.47 2.079.49 2.156-.516.06-.585-.902-1.4-1.174-1.97zm4.407 1.025a4.483 4.483 0 0 0 .195-.83 6.322 6.322 0 0 1 .124-1.143 1.002 1.002 0 0 1 .613-.782c.065-.604.535-.604 1.096-.357.541.243.744.458.653.747h.12c.149-.484-.41-.802-.88-.996a2.163 2.163 0 0 0-.01-1.022 3.533 3.533 0 0 0-1.008-1.69c-.066 0-.062.055.074.186a2.5 2.5 0 0 1 .667 2.43 1.139 1.139 0 0 0-.31-.04 6.446 6.446 0 0 0-.675-1.849 14.789 14.789 0 0 1-1.066-2.74 1.223 1.223 0 0 1-.639.43 3.16 3.16 0 0 0-.455.257 1.049 1.049 0 0 1-1.215-.034 3.328 3.328 0 0 0-.361-.295 2.674 2.674 0 0 1-.177-.117C6.393 6.556 5.668 7.916 5.324 8.7a4.945 4.945 0 0 0-.395 1.761c-.624-.833-.17-1.898.074-2.36.272-.503.315-.643.248-.595a5.955 5.955 0 0 0-.78 1.695 1.939 1.939 0 0 0 .01 1.008 1.55 1.55 0 0 0 .71.856 4.209 4.209 0 0 1 1.096.93.806.806 0 0 1 .212.713.466.466 0 0 1-.479.254 6.145 6.145 0 0 1 .412.561 2.824 2.824 0 0 0 3.273-.206zm3.705-.828c-.286-.323-.206-.947-.49-1.19a.81.81 0 0 0-.647-.147 1.342 1.342 0 0 1-1.1.467.878.878 0 0 1-.538-.845c-.008.005-.02.008-.028.014a.868.868 0 0 0-.393.604 6.446 6.446 0 0 0-.12 1.109 7.096 7.096 0 0 1-.283 1.162 1.588 1.588 0 0 0-.032 1.04.936.936 0 0 0 .965.552 1.912 1.912 0 0 0 1.249-.73c.63-.761 1.783-.85 1.81-1.331.008-.146-.09-.372-.393-.704zm-6.92-7.437c.057.055.134.129.229.203a1.266 1.266 0 0 0 .782.304 2.03 2.03 0 0 0 .91-.31 2.546 2.546 0 0 0 .424-.297c.111-.098.17-.18.088-.186-.08-.006-.074.074-.171.146-.124.092-.278.212-.398.28a1.951 1.951 0 0 1-.856.293 1.148 1.148 0 0 1-.713-.278c-.088-.071-.163-.143-.22-.198-.043-.04-.055-.132-.124-.14-.04 0-.052.106.049.186z"></path>
</g>

<g id="ic-brand-macos">
    <path d="M10.6047 5.22292C10.6047 5.04351 10.7504 4.89808 10.9302 4.89808C11.11 4.89808 11.2558 5.04351 11.2558 5.22292V6.03501C11.2558 6.21442 11.11 6.35985 10.9302 6.35985C10.7504 6.35985 10.6047 6.21442 10.6047 6.03501V5.22292Z"></path>
    <path d="M4.5814 4.89808C4.40158 4.89808 4.25581 5.04351 4.25581 5.22292V6.03501C4.25581 6.21442 4.40158 6.35985 4.5814 6.35985C4.76121 6.35985 4.90698 6.21442 4.90698 6.03501V5.22292C4.90698 5.04351 4.76121 4.89808 4.5814 4.89808Z"></path>
    <path fill-rule="evenodd" clip-rule="evenodd" d="M8.90391 14.9681H6.2093C4.38588 14.9681 3.47416 14.9681 2.77771 14.6141C2.16508 14.3026 1.66701 13.8057 1.35486 13.1944C1 12.4996 1 11.5899 1 9.77067V6.19743C1 4.37816 1 3.46853 1.35486 2.77366C1.66701 2.16243 2.16508 1.66549 2.77771 1.35405C3.47416 1 4.38588 1 6.2093 1H9.7907C11.6141 1 12.5258 1 13.2223 1.35405C13.8349 1.66549 14.333 2.16243 14.6451 2.77366C15 3.46853 15 4.37816 15 6.19743V9.77067C15 11.5899 15 12.4996 14.6451 13.1944C14.333 13.8057 13.8349 14.3026 13.2223 14.6141C12.5258 14.9681 11.6141 14.9681 9.7907 14.9681H9.00179L8.91572 15C8.91177 14.9894 8.90783 14.9787 8.90391 14.9681ZM8.35406 1.64968H9.7907C10.7132 1.64968 11.3658 1.65018 11.8761 1.69178C12.3787 1.73275 12.6855 1.81034 12.9267 1.93292C13.4168 2.18207 13.8152 2.57962 14.0649 3.0686C14.1878 3.30919 14.2656 3.6153 14.3066 4.1168C14.3483 4.62588 14.3488 5.27708 14.3488 6.19743V9.77067C14.3488 10.691 14.3483 11.3422 14.3066 11.8513C14.2656 12.3528 14.1878 12.6589 14.0649 12.8995C13.8152 13.3885 13.4168 13.786 12.9267 14.0352C12.6855 14.1578 12.3787 14.2354 11.8761 14.2763C11.3658 14.3179 10.7132 14.3184 9.7907 14.3184H9.36985C9.14217 13.5972 8.9964 12.8516 8.90618 12.1423C9.30491 12.0913 9.64192 12.0125 9.93547 11.9146C10.4688 11.7369 10.8508 11.4988 11.1906 11.2643C11.5366 11.0255 11.7814 10.7849 11.9417 10.6005C12.0036 10.5293 12.0529 10.4665 12.0906 10.4153L12.1004 10.4217L12.1857 10.2744L12.1861 10.2738L12.1864 10.2732L12.1865 10.273L12.1867 10.2728L12.187 10.2722C12.2739 10.1223 12.2343 9.92188 12.0848 9.82302C11.9286 9.71977 11.7279 9.77553 11.6371 9.93025L11.6367 9.93097L11.6366 9.93118C11.6357 9.9326 11.6339 9.93547 11.6312 9.9397C11.6256 9.94859 11.6158 9.96344 11.6018 9.98341C11.5737 10.0234 11.5284 10.0837 11.464 10.1578C11.3352 10.3059 11.1302 10.5088 10.8338 10.7134L10.8099 10.7299C10.5099 10.937 10.2256 11.1334 9.79443 11.283C9.5401 11.3713 9.23168 11.4443 8.83711 11.4904C8.74448 10.4052 8.77208 9.46024 8.81309 8.90107L8.83865 8.55252H6.70105C6.76546 5.44383 7.73817 2.87381 8.35406 1.64968ZM8.18764 11.5378C8.10884 10.6104 8.11482 9.78565 8.14273 9.2022H6.53514C6.26565 9.2022 6.04458 8.98304 6.04736 8.71114C6.07872 5.63987 6.97182 3.05638 7.63076 1.64968H6.2093C5.28684 1.64968 4.63416 1.65018 4.12392 1.69178C3.62127 1.73275 3.31446 1.81034 3.07333 1.93292C2.58323 2.18207 2.18477 2.57962 1.93505 3.0686C1.81219 3.30919 1.73443 3.6153 1.69336 4.1168C1.65167 4.62588 1.65116 5.27708 1.65116 6.19743V9.77067C1.65116 10.691 1.65167 11.3422 1.69336 11.8513C1.73443 12.3528 1.81219 12.6589 1.93505 12.8995C2.18477 13.3885 2.58323 13.786 3.07333 14.0352C3.31446 14.1578 3.62127 14.2354 4.12392 14.2763C4.63416 14.3179 5.28684 14.3184 6.2093 14.3184H8.68921C8.47978 13.6088 8.34319 12.8851 8.25683 12.197C8.11164 12.2036 7.95955 12.207 7.8 12.207C6.44966 12.207 5.51724 11.898 4.8675 11.4976C4.21801 11.0974 3.86259 10.6129 3.65583 10.2816C3.56391 10.1343 3.59773 9.93294 3.74331 9.82928C3.89601 9.72054 4.09962 9.76907 4.19536 9.92248C4.35677 10.1811 4.65461 10.5839 5.20885 10.9232C5.76276 11.2623 6.58336 11.5443 7.8 11.5443C7.93601 11.5443 8.06505 11.5421 8.18764 11.5378Z"></path>
</g>

<g id="ic-brand-mastercard">
    <path d="M1,3.35v10H15v-10Zm13,9H2v-8H14Z"></path>
    <path d="M6,11.35a2.93,2.93,0,0,0,2-.77A2.93,2.93,0,1,0,8,6.27a2.92,2.92,0,1,0-2,5.08Zm5.85-2.93A1.92,1.92,0,0,1,10,10.35a2,2,0,0,1-1.35-.56,2.84,2.84,0,0,0,0-2.73A2,2,0,0,1,10,6.5,1.92,1.92,0,0,1,11.89,8.42ZM6,6.5a2,2,0,0,1,1.35.56,2.84,2.84,0,0,0,0,2.73A2,2,0,0,1,6,10.35,1.93,1.93,0,1,1,6,6.5Z"></path>
</g>

<g id="ic-brand-paypal">
    <path d="M11.66,4.14A3,3,0,0,0,8.77,2H4.14a1,1,0,0,0-1,.85l-1.33,9a1,1,0,0,0,1,1.2h2a1,1,0,0,0,.24.67A1,1,0,0,0,5.8,14H8.73l.5-3h.55a4,4,0,0,0,4-4A3,3,0,0,0,11.66,4.14ZM10.8,5a3,3,0,0,1-3,3H6.36L6.7,5h4.1ZM5.71,4.89,4.91,12l-2.1,0L4.14,3H8.77a2,2,0,0,1,1.75,1H6.7A1,1,0,0,0,5.71,4.89ZM9.78,10H8.38l-.5,3H5.8l.45-4H7.76a4,4,0,0,0,4-3.73A2,2,0,0,1,12.8,7,3,3,0,0,1,9.78,10Z"></path>
</g>

<g id="ic-brand-proton-account">
    <path d="M8,1.85A6.16,6.16,0,0,1,14.15,8,6.08,6.08,0,0,1,8,14.15,6.08,6.08,0,0,1,1.85,8,6.16,6.16,0,0,1,8,1.85M8,0a8,8,0,1,0,8,8A8,8,0,0,0,8,0Z"></path>
    <path d="M8,4.18a2.16,2.16,0,0,0-2.09,2.1A2.16,2.16,0,0,0,8,8.37a2.16,2.16,0,0,0,2.09-2.09A2.16,2.16,0,0,0,8,4.18Z"></path>
    <path d="M3.82,11.2c0-1.48,2.58-2.09,4.43-2.09s3.93.86,3.93,2.09a4.44,4.44,0,0,1-3.93,2.09A5.08,5.08,0,0,1,3.82,11.2Z"></path>
</g>

<g id="ic-brand-proton-calendar">
    <path d="M12.974 2.169h-.9v-.318a.85.85 0 00-1.7 0v.318H6.188v-.318a.836.836 0 00-.848-.845.78.78 0 00-.848.848v.318h-.849A1.664 1.664 0 002 3.866v9.49a1.708 1.708 0 001.7 1.7h9.278a1.708 1.708 0 001.7-1.7V3.813a1.859 1.859 0 00-1.7-1.643l-.004-.001m.477 11.137a.473.473 0 01-.477.477H3.643a.473.473 0 01-.477-.477V5.244h10.285v8.062"></path>
    <path d="M7.781 8.105a1.219 1.219 0 01-1.018 1.252 1.226 1.226 0 011.192 1.311c0 .894-.715 1.609-2.026 1.609a2.155 2.155 0 01-1.848-.775l.656-.656c.263.326.655.521 1.073.536a.768.768 0 00.834-.775c0-.536-.3-.775-.834-.775h-.418l.119-.835h.3c.477 0 .775-.238.775-.715a.636.636 0 00-.715-.6c-.39.007-.76.18-1.013.477l-.6-.656a2.426 2.426 0 011.79-.706 1.462 1.462 0 011.733 1.308"></path>
    <path d="M12.484 9.535c0 1.788-.715 2.8-2.026 2.8s-2.026-1.013-2.026-2.8.715-2.741 2.026-2.741 2.026.953 2.026 2.741m-2.682 0c0 1.43.238 1.847.715 1.847.536 0 .715-.417.715-1.847s-.238-1.847-.715-1.847c-.536 0-.715.417-.715 1.847"></path>
</g>

<g id="ic-brand-proton-contacts">
    <path d="M13.497.004H2.516A1.5 1.5 0 001 1.48v13.007a1.5 1.5 0 001.476 1.516h11.02a1.5 1.5 0 001.516-1.476V1.52A1.558 1.558 0 0013.497.004M9.516 4.736h.008a1.193 1.193 0 011.231 1.155v.076a1.279 1.279 0 11-2.557 0 1.276 1.276 0 011.318-1.235v.004M4.03 15.054H2.516a.6.6 0 01-.475-.567V1.519a.446.446 0 01.478-.474h1.516v14.009H4.03m8.236-4.068a.3.3 0 01-.285.285H6.964a.3.3 0 01-.285-.285v-.474A2.369 2.369 0 018.952 8.24h1.041a2.306 2.306 0 012.273 2.272v.474"></path>
</g>

<g id="ic-brand-proton-drive">
    <path d="M12,2.9C12,2.9,12.1,2.9,12,2.9c-0.9-2.3-3.5-3.5-5.8-2.6C4.9,0.8,3.9,1.8,3.5,3.1C1.4,3.3-0.2,5.1,0,7.2c0.2,2,1.8,3.5,3.8,3.5h2.7V8.9h-2L8,5.4l3.5,3.5h-2v1.8l-3,0v1.8h-2L7.9,16l3.5-3.5h-2v-1.8l2.8,0v0c2.1-0.1,3.8-1.9,3.7-4c-0.1-2.1-1.8-3.7-3.9-3.7L12,2.9z"></path>
</g>

<g id="ic-brand-proton-mail">
    <path d="M8.037.972S3.923.837 3.075 5.401v3.108s.035.333.97 1.009c.936.675 3.358 2.578 3.992 2.578.635 0 3.057-1.903 3.992-2.578.936-.676.971-1.009.971-1.009V5.401C12.151.837 8.037.972 8.037.972zm2.818 6.123H5.22V5.401c.572-2.266 2.817-2.297 2.817-2.297s2.246.03 2.818 2.297z"></path>
    <path d="M8.037 12.796s-.637-.063-1.136-.41c-.5-.346-3.826-2.723-3.826-2.723v4.706s.028.547.63.547h8.664A.59.59 0 0 0 13 14.37V9.663s-3.327 2.377-3.826 2.724c-.499.346-1.137.409-1.137.409z"></path>
</g>

<g id="ic-brand-proton-vpn">
    <path d="M12.53,1.44A1.46,1.46,0,0,0,11.07,2.9V3L4.68,5A1.47,1.47,0,1,0,3.5,7.3,1.42,1.42,0,0,0,4,7.22l4.19,5.3A1.47,1.47,0,1,0,10.45,12l2.23-7.62a1.46,1.46,0,0,0-.15-2.92ZM9.47,11.6h0a1.45,1.45,0,0,0-.65.16L4.72,6.57A1.58,1.58,0,0,0,4.93,6l6.52-2.08a1.15,1.15,0,0,0,.23.21Z"></path>
</g>

<g id="ic-brand-tor">
    <path d="M11.7,8.14A8.76,8.76,0,0,0,9.93,6.92,1.76,1.76,0,0,1,9,5.05l-.56-.28a22.65,22.65,0,0,1,3.46-4A5.21,5.21,0,0,0,9,2.81,17.69,17.69,0,0,1,11,0,8.65,8.65,0,0,0,8.33,2.9l.38-1.68A10.81,10.81,0,0,0,7.49,4.49l-.84-.37-.09.18c.75,1.41.37,2.16,0,2.34A28.65,28.65,0,0,0,4.12,8.42a4.35,4.35,0,0,0,1.78,7.3A6.22,6.22,0,0,0,8.15,16a5.16,5.16,0,0,0,3.46-1.12,4.3,4.3,0,0,0,1.59-3.37A4.84,4.84,0,0,0,11.7,8.14ZM9.27,14A7.39,7.39,0,0,1,8.8,15c.1-.19.19-.28.19-.47a6.86,6.86,0,0,0,.37-3.37A3.74,3.74,0,0,0,9.08,10a13.08,13.08,0,0,0-.84-1.68A11.41,11.41,0,0,1,8,6.18a14.64,14.64,0,0,0,.19,2.24c0,.19.47.84.75,1.59a6.6,6.6,0,0,1,.28,1.22,6.82,6.82,0,0,1-.28,2.9,3.62,3.62,0,0,1-.57,1.22,1.84,1.84,0,0,0,.38-.75,7.6,7.6,0,0,0,.28-2,7.39,7.39,0,0,0-.37-1.5,2.73,2.73,0,0,0-.47-.84C8,10.11,8,9.54,8,9a5.13,5.13,0,0,0,.09,1.31c.1.28.38.66.47.94a7.56,7.56,0,0,1,.28,1.31,6.3,6.3,0,0,1-.18,1.68,2.1,2.1,0,0,1-.75,1.31.85.85,0,0,0,.28-.65,3.33,3.33,0,0,0,.09-.94,4.71,4.71,0,0,0-.09-1.12,14,14,0,0,0-.38-1.4,14.22,14.22,0,0,0,.28,1.49,4.26,4.26,0,0,1,0,1.13,7.81,7.81,0,0,1-.28,1.49,1.15,1.15,0,0,1-.37-.28.83.83,0,0,1-.28-.65,1.32,1.32,0,0,1-.19-.66,2.12,2.12,0,0,1,.38-1.5,2,2,0,0,0,.46-1,4.89,4.89,0,0,1-.56.93,2.48,2.48,0,0,0-.47,1.59,1.83,1.83,0,0,0,.19.66,4.66,4.66,0,0,0,.28.65c.1.19.19.28.28.28a3.35,3.35,0,0,1-1-.47,3.74,3.74,0,0,1-1.21-2.24,2.48,2.48,0,0,1,1.4-2.06c.75-.37.84-.84,1-1.59a2.15,2.15,0,0,1-1.12,1.59A2.47,2.47,0,0,0,5.15,13a2.92,2.92,0,0,0,1.31,2.34,5.83,5.83,0,0,0,.75.37c-1-.28-1.21-.37-1.59-.84l-.09-.1a7.84,7.84,0,0,1-1.31-2.34,2.9,2.9,0,0,1,0-.93A4.08,4.08,0,0,1,6.28,9a4.23,4.23,0,0,1,.65-.47c.47-.37.56-1.31.66-1.87a4,4,0,0,1-.75,1.78,2.49,2.49,0,0,1-.66.38A4.14,4.14,0,0,0,4,11.42a2,2,0,0,0,.09,1,6.88,6.88,0,0,0,1.31,2.44l.1.09a1.34,1.34,0,0,0,.84.56l-.84-.28A4,4,0,0,1,3.19,12c-.1-2.44,1-3.09,2.06-3.93.56-.47,1.4-.75,1.87-1.59a1.3,1.3,0,0,0,0-1,3.18,3.18,0,0,0-.38-.85l1.31.57a7.59,7.59,0,0,0,.1,1.59c.09.46.75,1.21,1,2.06A9.17,9.17,0,0,1,9.27,14Z"></path>
</g>

<g id="ic-brand-visa">
    <path d="M1,3V13H15V3Zm13,9H2V4H14Z"></path>
    <path d="M8.81,9A1.63,1.63,0,0,1,8,8.79l-.15.66a1.9,1.9,0,0,0,.89.18c.59,0,1.4-.45,1.4-1.11S9,7.67,9,7.32c0-.18.14-.31.55-.31a1.24,1.24,0,0,1,.57.2l.14-.68a2.45,2.45,0,0,0-.78-.16c-.86,0-1.3.43-1.3,1,0,1,1.13.84,1.13,1.35C9.35,8.77,9.28,9,8.81,9Z"></path>
    <path d="M11,9.53l.17-.44h1l.08.44H13l-.63-3.1H11.5l-1.34,3.1Zm.85-2.2L12,8.5h-.67Z"></path>
    <path d="M3.9,7l.67,2.5h.9l1.25-3.1H5.84L5.1,8.64A1.66,1.66,0,0,1,5,8.34,2.76,2.76,0,0,0,3.9,7Z"></path>
    <path d="M5,8.16,4.71,6.75a.5.5,0,0,0-.44-.31H3S4.62,6.94,5,8.16Z"></path>
    <polygon points="7.38 9.53 7.88 6.43 7.04 6.43 6.56 9.53 7.38 9.53"></polygon>
</g>

<g id="ic-brand-windows">
    <path d="M.873 2.817l5.743-.828v5.81H.873zm0 10.631l5.743.83v-5.74H.873zm6.374.917l7.639 1.103v-6.93H7.247zm0-12.465v5.898h7.64V.795z"></path>
</g>

<g id="ic-brand-yahoo">
    <path d="M0,3.9H3.17L5,9,6.88,3.9H10L5.32,16H2.22l1.27-3.21Z"></path>
    <path d="M10.4,8.74a2,2,0,0,1,1.92,2.08A2,2,0,0,1,10.4,12.9a2,2,0,0,1-1.92-2.08A2,2,0,0,1,10.4,8.74Z"></path>
    <path d="M12.94,8H9.49l3.07-8H16Z"></path>
</g>

<g id="ic-briefcase">
    <path d="M11,5V4.5A1.5,1.5,0,0,0,9.5,3h-3A1.5,1.5,0,0,0,5,4.5V5H2v8H14V5Zm2,1.5A1.5,1.5,0,0,1,11.5,8h-2V7h-3V8h-2A1.5,1.5,0,0,1,3,6.5V6H13ZM8.5,8V9h-1V8ZM6,4.5A.5.5,0,0,1,6.5,4h3a.5.5,0,0,1,.5.5V5H6ZM3,12V8.49A2.51,2.51,0,0,0,4.5,9h2v1h3V9h2A2.51,2.51,0,0,0,13,8.49V12Z"></path>
</g>

<g id="ic-broom">
    <path d="M14.69,7.56l-3.14-1.7L14.44.54l-1-.54L10.56,5.32,7.42,3.62,6.78,4.79,1.31,9.71,7.39,13l1.7-.54.54,1.76L12.92,16,14,8.76Zm-4.11,5.88L9.83,11l-2.33.75L3.26,9.48l4-3.62,5.59,3-.83,5.35Z"></path>
</g>

<g id="ic-brush">
    <path d="M13.91,9.74,11.13,7,16,2.09,13.91,0,9,4.87,6.26,2.09,0,8.35,7.65,16Zm-2.78,1.39,1.39-1.39L9.74,7,14.6,2.09l-.69-.7L9,6.26,6.26,3.48,4.87,4.87Zm-.7.7L4.18,5.56,1.4,8.35,2.79,9.74,4.18,8.35l.69.7L3.48,10.44l.7.69L6.26,9l.7.7-2.1,2.09.71.69L7,11.13l.69.7L6.26,13.22l1.39,1.39Z" fill-rule="evenodd"/>
</g>

<g id="ic-bug">
    <path d="M12,5a3,3,0,0,0-2-2.58V1H9V2.11a4.6,4.6,0,0,0-2,0V1H6V2.42A3,3,0,0,0,4,5V6h8ZM5,5C5,3.92,6.37,3,8,3s3,.92,3,2Z"></path>
    <path d="M14,9V8H12V7H4V8H2V9H4v2H2v1H4.25A3.13,3.13,0,0,0,5.4,13.26l-.84,1.5.88.48L6.3,13.7a5,5,0,0,0,3.4,0l.86,1.54.88-.48-.84-1.5A3.13,3.13,0,0,0,11.75,12H14V11H12V9Zm-3,2c0,1.08-1.37,2-3,2s-3-.92-3-2V8h6Z"></path>
</g>

<g id="ic-buildings">
    <path d="M9,8V2H1V15H15V8ZM8,14H2V3H8V14Zm6,0H9V9h5Z"></path>
    <rect x="3" y="6" width="1" height="1"></rect>
    <rect x="3" y="4" width="1" height="1"></rect>
    <rect x="6" y="4" width="1" height="1"></rect>
    <rect x="6" y="6" width="1" height="1"></rect>
    <rect x="10" y="10" width="1" height="1"></rect>
    <rect x="10" y="12" width="1" height="1"></rect>
    <rect x="12" y="10" width="1" height="1"></rect>
    <rect x="12" y="12" width="1" height="1"></rect>
    <rect x="3" y="8" width="1" height="1"></rect>
    <rect x="6" y="8" width="1" height="1"></rect>
</g>

<g id="ic-calendar-day">
    <path d="M12,3.2V1H11V3.2H5V1H4V3.2H2V15H14V3.2ZM13,14H3V7H13ZM3,6V4.2H13V6Z"></path>
    <rect x="4" y="8" width="2" height="2"></rect>
</g>

<g id="ic-calendar-days">
    <path d="M12,3.2V1H11V3.2H5V1H4V3.2H2V15H14V3.2ZM13,14H3V7H13ZM3,6V4.2H13V6Z"></path>
    <rect x="4" y="11" width="2" height="2"></rect>
    <rect x="7" y="11" width="2" height="2"></rect>
    <rect x="4" y="8" width="2" height="2"></rect>
    <rect x="7" y="8" width="2" height="2"></rect>
    <rect x="10" y="8" width="2" height="2"></rect>
</g>

<g id="ic-check">
    <path fill-rule="evenodd" clip-rule="evenodd" d="M2 8.5L2.7 7.8L6.05 11.14L13.2 4L13.9 4.7L6.05 12.56L2 8.5Z"></path>
</g>

<g id="ic-check-triple">
    <polygon points="7.1 10.62 4.05 7.56 4.75 6.86 7.1 9.2 11.25 5.06 11.95 5.76 7.1 10.62"></polygon>
    <polygon points="7.1 14.62 4.05 11.56 4.75 10.86 7.1 13.2 11.25 9.06 11.95 9.76 7.1 14.62"></polygon>
    <polygon points="7.1 6.62 4.05 3.56 4.75 2.86 7.1 5.2 11.25 1.06 11.95 1.76 7.1 6.62"></polygon>
</g>

<g id="ic-circle-check">
    <polygon points="7.25 9.96 4.63 6.83 3.87 7.47 7.25 11.54 12.14 5.57 11.36 4.93 7.25 9.96"></polygon>
    <path d="M8,1a7,7,0,1,0,7,7A7,7,0,0,0,8,1ZM8,14a6,6,0,1,1,6-6A6,6,0,0,1,8,14Z"></path>
</g>

<g id="ic-circle-check-filled">
    <path fill-rule="evenodd" clip-rule="evenodd" d="M8 1C4.13401 1 1 4.13401 1 8C1 11.866 4.13401 15 8 15C9.85651 15 11.637 14.2625 12.9497 12.9497C14.2625 11.637 15 9.85651 15 8C15 4.13401 11.866 1 8 1ZM11.5921 5.08343L12.2921 5.78343L6.55 11.56L3.5 8.5L4.2 7.8L6.55 10.14L11.5921 5.08343Z"></path>
</g>

<g id="ic-circle-exclamation">
    <path d="M8,0a8,8,0,1,0,8,8A8,8,0,0,0,8,0ZM8,15a7,7,0,1,1,7-7h0A7.06,7.06,0,0,1,8,15Z"></path>
    <rect x="7.32" y="4.03" width="1.22" height="5.72"></rect>
    <rect x="7.32" y="10.74" width="1.22" height="1.45"></rect>
</g>

<g id="ic-circle-exclamation-filled">
    <path fill-rule="evenodd" d="M8 15A7 7 0 108 1a7 7 0 000 14zM7.5 5v4h1V5h-1zm0 5v1h1v-1h-1z" clip-rule="evenodd"></path>
</g>

<g id="ic-circle-filled">
    <circle cx="8" cy="8" r="8"></circle>
</g>

<g id="ic-circle-info">
    <path d="M8,1a7,7,0,1,0,7,7A7,7,0,0,0,8,1ZM8,14a6,6,0,1,1,6-6A6,6,0,0,1,8,14Z" />
    <polygon points="8.5 6 6.5 6 6.5 7 7.5 7 7.5 11 6.5 11 6.5 12 9.5 12 9.5 11 8.5 11 8.5 6" />
    <rect x="7.5" y="4" width="1" height="1" />
</g>

<g id="ic-circle-question">
    <path d="M8.69,3.92a2.66,2.66,0,0,0-2.3.46,2.62,2.62,0,0,0-1,2.08h1A1.62,1.62,0,0,1,7,5.17a1.64,1.64,0,0,1,1.43-.28A1.61,1.61,0,0,1,9.57,6,1.62,1.62,0,0,1,8,8.08H7.5V10h1V9a2.63,2.63,0,0,0,.19-5.12Z"></path>
    <rect x="7.5" y="11" width="1" height="1"></rect>
    <path d="M8,1a7,7,0,1,0,7,7A7,7,0,0,0,8,1ZM8,14a6,6,0,1,1,6-6A6,6,0,0,1,8,14Z"></path>
</g>

<g id="ic-circle-question">
    <path d="M8.69,3.92a2.66,2.66,0,0,0-2.3.46,2.62,2.62,0,0,0-1,2.08h1A1.62,1.62,0,0,1,7,5.17a1.64,1.64,0,0,1,1.43-.28A1.61,1.61,0,0,1,9.57,6,1.62,1.62,0,0,1,8,8.08H7.5V10h1V9a2.63,2.63,0,0,0,.19-5.12Z"></path>
    <rect x="7.5" y="11" width="1" height="1"></rect>
    <path d="M8,1a7,7,0,1,0,7,7A7,7,0,0,0,8,1ZM8,14a6,6,0,1,1,6-6A6,6,0,0,1,8,14Z"></path>
</g>

<g id="ic-circle-user">
    <path d="M8,4a3,3,0,1,0,3,3A3,3,0,0,0,8,4ZM8,9a2,2,0,1,1,2-2A2,2,0,0,1,8,9Z"></path>
    <path d="M15,8A7,7,0,1,0,2.9,12.79l0,0,.51.45A7.08,7.08,0,0,0,8,15l.63,0a7,7,0,0,0,3.5-1.32,6.25,6.25,0,0,0,.5-.4h0l.5-.44,0,0A7,7,0,0,0,15,8Zm-3.77,5a3.47,3.47,0,0,1-.37.21l-.44.22c-.2.08-.39.16-.58.22l-.15,0a6.26,6.26,0,0,1-3.38,0l-.14,0a6,6,0,0,1-.59-.22l-.43-.21c-.13-.07-.26-.14-.38-.22l-.17-.12L6.09,12H9.91l1.49.92Zm1-.79-2-1.25H5.81l-2,1.25A6,6,0,1,1,14,8,6,6,0,0,1,12.23,12.25Z"></path>
</g>

<g id="ic-circle-xmark">
    <path d="M8,1a7,7,0,1,0,7,7A7,7,0,0,0,8,1ZM8,14a6,6,0,1,1,6-6A6,6,0,0,1,8,14Z"></path>
    <polygon points="11.15 4.15 8 7.29 4.85 4.15 4.15 4.85 7.29 8 4.15 11.15 4.85 11.85 8 8.71 11.15 11.85 11.85 11.15 8.71 8 11.85 4.85 11.15 4.15"></polygon>
</g>

<g id="ic-circle-xmark-filled">
    <path fill-rule="evenodd" clip-rule="evenodd" d="M8 1C4.13401 1 1 4.13401 1 8C1 11.866 4.13401 15 8 15C11.866 15 15 11.866 15 8C15 6.14348 14.2625 4.36301 12.9497 3.05025C11.637 1.7375 9.85652 1 8 1ZM11.15 4.15L8 7.29L4.85 4.15L4.15 4.85L7.29 8L4.15 11.15L4.85 11.85L8 8.71L11.15 11.85L11.85 11.15L8.71 8L11.85 4.85L11.15 4.15Z"></path>
</g>

<g id="ic-clock">
    <polygon points="8 4 7 4 7 9 12 9 12 8 8 8 8 4"></polygon>
    <path d="M8,.5A7.5,7.5,0,1,0,15.5,8,7.5,7.5,0,0,0,8,.5Zm0,14A6.5,6.5,0,1,1,14.5,8,6.51,6.51,0,0,1,8,14.5Z"></path>
</g>

<g id="ic-clock-rotate-left">
    <path d="M9,2A6,6,0,0,0,3,7.8L1.85,6.65l-.7.7L3.5,9.71,5.85,7.35l-.7-.7L4,7.77a5,5,0,1,1,.89,3.1l-.82.57A6,6,0,1,0,9,2Z"></path>
    <polygon points="11 7 8 7 8 8 8 11 9 11 9 8 11 8 11 7"></polygon>
</g>

<g id="ic-clock-rotate-right">
    <polygon points="5 9 8 9 8 8 8 5 7 5 7 8 5 8 5 9"></polygon>
    <path d="M10.15,7.35,12.5,9.71l2.35-2.36-.7-.7L13,7.8a6,6,0,1,0-1.08,3.64l-.82-.57A5,5,0,1,1,12,7.77L10.85,6.65Z"></path>
</g>

<g id="ic-code">
    <path d="M6.459 11.954l1.921-8.41.981.225-1.92 8.41zM11.262 4.019l-.714.704 3.14 3.13-3.14 3.131.714.705 3.856-3.835-3.856-3.835zM4.559 4.019L.703 7.854l3.856 3.835.714-.705-3.14-3.13 3.14-3.13-.714-.705z"></path>
</g>

<g id="ic-copy">
    <path d="M2,5V15h8V5H2ZM9,6v8H3V6H9Z"></path>
    <polygon points="6 2 6 4 7 4 7 3 13 3 13 11 11 11 11 12 14 12 14 2 6 2"></polygon>
</g>

<g id="ic-credit-card">
    <path d="M1,3V13H15V3Zm13,9H2V8H14Zm0-6H2V4H14Z"></path>
    <rect x="3" y="10" width="5" height="1"></rect>
    <rect x="10" y="10" width="2.5" height="1"></rect>
</g>

<g id="ic-dash">
    <rect x="3" y="7" width="10" height="1"></rect>
</g>

<g id="ic-earth">
    <path d="M13.68,3.92A7,7,0,0,0,1.22,6.25,7.11,7.11,0,0,0,1,8a6.92,6.92,0,0,0,1.32,4.08A7,7,0,0,0,15,8,6.92,6.92,0,0,0,13.68,3.92ZM14,8c0,.06,0,.11,0,.17H11.68A2.18,2.18,0,0,1,9.51,6a2.09,2.09,0,0,1,.65-1.53,2.08,2.08,0,0,1,1.52-.64h.61a7.68,7.68,0,0,1,.58.68A5.92,5.92,0,0,1,14,8ZM2,8a6,6,0,0,1,.19-1.5H3.65A1.52,1.52,0,0,1,5.16,8a1.47,1.47,0,0,1-.09.5l-.24.67h1.5a1.49,1.49,0,0,1,1.5,1.5,1.51,1.51,0,0,1-1.5,1.51H3.71a7.68,7.68,0,0,1-.58-.68A5.92,5.92,0,0,1,2,8Zm6,6a6.06,6.06,0,0,1-3-.82H6.33a2.51,2.51,0,0,0,0-5H6.15a1,1,0,0,0,0-.17A2.52,2.52,0,0,0,3.65,5.49H2.56a5.95,5.95,0,0,1,8.53-2.61,3,3,0,0,0-1.64.87A3.06,3.06,0,0,0,8.51,6a3.18,3.18,0,0,0,3.17,3.18h2.19c0,.11,0,.22-.07.33A6,6,0,0,1,8,14Z"></path>
</g>

<g id="ic-ellipsis">
    <circle cx="2" cy="8" r="1"></circle>
    <circle cx="8" cy="8" r="1"></circle>
    <circle cx="14" cy="8" r="1"></circle>
</g>

<g id="ic-ellipsis-vertical">
    <circle cx="8" cy="2" r="1"></circle>
    <circle cx="8" cy="8" r="1"></circle>
    <circle cx="8" cy="14" r="1"></circle>
</g>

<g id="ic-envelope">
    <path d="M1,3V13H15V3ZM13.15,4,8,8.41,2.85,4ZM14,11.5,10.8,9.1l-.6.8L13,12H3L5.8,9.9l-.6-.8L2,11.5V4.59L8,9.73l6-5.14Z"></path>
</g>

<g id="ic-envelope-fast">
    <path d="M3,4V7H4V6.3L9,9.67,14,6.3V12H3v1H15V4ZM14,5.1,9,8.47,4,5.1V5H14Z"></path>
    <rect x="1" y="8" width="4" height="1"></rect>
    <rect x="2" y="10" width="3" height="1"></rect>
</g>

<g id="ic-envelope-open-image">
    <path d="M14.7,7,14,6.33V3H10.51L8,.6,5.49,3H2V6.33L1.3,7H1v8H15V7ZM8,2,9.06,3H6.94ZM3,4H13V7.94l-.85.6L10.09,5.79,7.42,7.93l-2.54-1L3.5,8.29,3,7.94Zm8.33,5.12L8,11.46,4.33,8.88l.79-.79,2.46,1L9.91,7.21ZM14,14H2V8.46l6,4.22,6-4.22Z"></path>
    <path d="M6.74,7A1,1,0,1,0,6,5.74,1,1,0,0,0,6.74,7Z"></path>
</g>

<g id="ic-envelopes">
    <path d="M2,6v9H14V6Zm11,8H3V8.3l5,3.37L13,8.3Zm0-6.91L8,10.47,3,7.09V7H13Z"></path>
    <rect x="3" y="4" width="10" height="1"></rect>
    <rect x="5" y="2" width="6" height="1"></rect>
</g>

<g id="ic-eraser">
    <path d="M6,12.8a1.45,1.45,0,0,0,1.06.44,1.48,1.48,0,0,0,1.06-.44L13.8,7.15A1.49,1.49,0,0,0,13.8,5L11,2.2a1.49,1.49,0,0,0-2.12,0L3.2,7.85A1.49,1.49,0,0,0,3.2,10ZM9.56,2.9a.52.52,0,0,1,.71,0L13.1,5.73a.51.51,0,0,1,0,.71L10.62,8.91,7.09,5.38ZM3.9,8.56,6.38,6.09,9.91,9.62,7.44,12.1a.51.51,0,0,1-.71,0L3.9,9.27A.51.51,0,0,1,3.9,8.56Z"></path>
    <rect x="2" y="14" width="12" height="1"></rect>
</g>

<g id="ic-eye">
    <path d="M14.42,7.73c-1.57-2.42-3.26-4-6.42-4s-4.85,1.61-6.42,4L1.4,8l.18.27c1.57,2.42,3.26,4,6.42,4s4.85-1.61,6.42-4L14.6,8ZM8,11.3C5.4,11.3,4,10,2.6,8,4,6,5.4,4.7,8,4.7S12,6,13.4,8C12,10,10.6,11.3,8,11.3Z"></path>
    <path d="M8,5.5A2.5,2.5,0,1,0,10.5,8,2.5,2.5,0,0,0,8,5.5Zm0,4A1.5,1.5,0,1,1,9.5,8,1.5,1.5,0,0,1,8,9.5Z"></path>
</g>

<g id="ic-eye-slash">
    <path d="M14.42,7.73a11.24,11.24,0,0,0-2-2.44L11.7,6a9.22,9.22,0,0,1,1.7,2C12,10,10.6,11.3,8,11.3a6.52,6.52,0,0,1-1.45-.15L5.74,12A7.11,7.11,0,0,0,8,12.3c3.16,0,4.85-1.61,6.42-4L14.6,8Z"></path>
    <path d="M8.22,9.48l-.92.92a2.32,2.32,0,0,0,.7.1A2.5,2.5,0,0,0,10.5,8a2.32,2.32,0,0,0-.1-.7l-.92.92A1.48,1.48,0,0,1,8.22,9.48Z"></path>
    <path d="M13.15,2.15,11,4.33A6.54,6.54,0,0,0,8,3.7c-3.16,0-4.85,1.61-6.42,4L1.4,8l.18.27a10.18,10.18,0,0,0,2.58,2.87l-2,2,.7.7,11-11ZM6.65,8.64a1.49,1.49,0,0,1,2-2ZM9.37,5.93A2.42,2.42,0,0,0,8,5.5,2.5,2.5,0,0,0,5.5,8a2.42,2.42,0,0,0,.43,1.37L4.87,10.42A8.43,8.43,0,0,1,2.6,8C4,6,5.4,4.7,8,4.7a5.88,5.88,0,0,1,2.2.39Z"></path>
</g>

<g id="ic-fax">
    <path d="M13,5V3.29L11.71,2H6V5H5.89A1.56,1.56,0,0,0,4.44,4H3.56A1.56,1.56,0,0,0,2,5.56v6.88A1.56,1.56,0,0,0,3.56,14H14V5ZM5,12.44a.57.57,0,0,1-.56.56H3.56A.57.57,0,0,1,3,12.44V5.56A.57.57,0,0,1,3.56,5h.88A.57.57,0,0,1,5,5.56ZM7,3h4V4h1V5H7Zm6,10H5.89A1.47,1.47,0,0,0,6,12.44V6h7Z"></path>
    <rect x="9" y="11" width="1" height="1"></rect>
    <rect x="7" y="11" width="1" height="1"></rect>
    <rect x="11" y="11" width="1" height="1"></rect>
    <rect x="9" y="9" width="1" height="1"></rect>
    <rect x="7" y="9" width="1" height="1"></rect>
    <rect x="11" y="9" width="1" height="1"></rect>
    <rect x="9" y="7" width="1" height="1"></rect>
    <rect x="7" y="7" width="1" height="1"></rect>
    <rect x="11" y="7" width="1" height="1"></rect>
</g>

<g id="ic-file-arrow-up">
    <path d="M4.9,1L2,3.9V15h4v-1H3V5h3V2h7v12h-3v1h4V1H4.9z M5,4H3.3L5,2.3V4z"></path>
    <path d="M11.7,10.1L8,6.4l-3.7,3.7L5,10.8l2.5-2.5V15h1V8.3l2.5,2.5L11.7,10.1z"></path>
</g>

<g id="ic-file-image">
    <path d="M12.85,4.74c-1-1-1.59-1.57-2.59-2.59L10.11,2H3V15H13V4.89ZM10,3.31l.11.11c.51.52,1,1,1.47,1.47l.11.11H10ZM12,14H4V12H5.38L7.6,13.11,9.71,11H12Zm0-4H9.29L7.4,11.89,5.62,11H4V3H9V6h3Z"></path>
    <path d="M5.59,6.59a2,2,0,1,0,2.82,0A2,2,0,0,0,5.59,6.59ZM7.71,8.71A1,1,0,0,1,6.29,7.29a1,1,0,0,1,1.42,0A1,1,0,0,1,7.71,8.71Z"></path>
</g>

<g id="ic-file-lines">
    <rect x="5" y="6" width="3" height="1"></rect>
    <rect x="5" y="12" width="3" height="1"></rect>
    <rect x="5" y="8" width="6" height="1"></rect>
    <path d="M12.85,4.75c-1-1-1.59-1.58-2.59-2.6L10.11,2H3V15H13V4.89ZM10,3.31l0,0L11.69,5H10ZM12,14H4V3H9V6h3Z"></path>
</g>

<g id="ic-file-pdf">
    <path d="M13,6.94V4.89l-.15-.15c-1-1-1.59-1.57-2.59-2.59L10.11,2H3V6.94H1v5.87H3V15H13V12.81h2V6.94ZM10,3.31l.11.11c.51.52,1,1,1.47,1.47l.11.11H10ZM4,3H9V6h3v.94H4Zm8,11H4V12.81h8Zm2-2.19H2V7.94H14Z"></path>
    <path d="M5,10.32h.43a1.18,1.18,0,0,0,.8-.26.83.83,0,0,0,.3-.67.85.85,0,0,0-.3-.68,1.18,1.18,0,0,0-.8-.26H4.36v2.84H5ZM5,9h.43a.45.45,0,0,1,.33.12.45.45,0,0,1,.11.31.42.42,0,0,1-.11.3.45.45,0,0,1-.33.12H5Z"></path>
    <path d="M8.89,11a1.11,1.11,0,0,0,.34-.84V9.62a1.11,1.11,0,0,0-.34-.84,1.14,1.14,0,0,0-.84-.33H7v2.84h1A1.13,1.13,0,0,0,8.89,11ZM7.67,9h.38a.45.45,0,0,1,.37.18.72.72,0,0,1,.15.47v.52a.72.72,0,0,1-.15.47.43.43,0,0,1-.37.19H7.67Z"></path>
    <polygon points="10.39 10.15 11.43 10.15 11.43 9.64 10.39 9.64 10.39 8.96 11.63 8.96 11.63 8.45 9.73 8.45 9.73 11.29 10.39 11.29 10.39 10.15"></polygon>
</g>

<g id="ic-file-shapes">
    <path d="M14 15L14 3.89L13.85 3.74C12.85 2.74 12.26 2.17 11.26 1.15L11.11 1L2 1L2 15L14 15ZM11 2.31L12.69 4L11 4V2.31ZM3 2L10 2V5L13 5L13 14L3 14L3 2Z"></path>
    <path d="M7 10H6V11H7V10ZM5 9V12H8V9H5Z"></path>
    <path d="M9.5 8C9.77614 8 10 7.77614 10 7.5C10 7.22386 9.77614 7 9.5 7C9.22386 7 9 7.22386 9 7.5C9 7.77614 9.22386 8 9.5 8ZM9.5 9C10.3284 9 11 8.32843 11 7.5C11 6.67157 10.3284 6 9.5 6C8.67157 6 8 6.67157 8 7.5C8 8.32843 8.67157 9 9.5 9Z"></path>
</g>

<g id="ic-filing-cabinet">
    <path d="M2,2V15H14V2ZM13,3V6H3V3Zm0,4v3H3V7ZM3,14V11H13v3Z"></path>
    <rect x="7" y="4" width="2" height="1"></rect>
    <rect x="7" y="8" width="2" height="1"></rect>
    <rect x="7" y="12" width="2" height="1"></rect>
</g>

<g id="ic-filter">
    <path d="M2,2V5.73L6,9.19v5l4-1.33V9.19l4-3.46V2ZM13,5.27,9,8.73v3.41l-2,.67V8.73L3,5.27V3H13Z"></path>
</g>

<g id="ic-fire">
    <path d="M12.94,4.27l-.35-.69L10.88,5.76a5.65,5.65,0,0,0-.69-1.66,11.5,11.5,0,0,0-3.44-3L5.94.61,6,1.53A23.2,23.2,0,0,1,6,4.46a10.37,10.37,0,0,1-.52,2l-2.1-3L3,4.31a11.83,11.83,0,0,0-.73,6.3C3,13.63,4.76,15,8,15h.14c2.94,0,4.66-1.41,5.4-4.42A9.72,9.72,0,0,0,12.94,4.27Zm-.43,6.11C11.88,13,10.5,14.07,8,14c-2.72,0-4.08-1.1-4.68-3.65a10,10,0,0,1,.38-4.81l2.09,3,.34-.87A16.73,16.73,0,0,0,7,4.54a18.9,18.9,0,0,0,0-2.1A8.71,8.71,0,0,1,9.35,4.65,5.43,5.43,0,0,1,10.06,7l.06,1.35L12.35,5.5A9,9,0,0,1,12.51,10.38Z"></path>
</g>

<g id="ic-fire-slash">
    <path d="M12.68,6.9a9.4,9.4,0,0,1-.17,3.48C11.87,13,10.57,14.08,8,14a5.2,5.2,0,0,1-3.17-.88,3.63,3.63,0,0,1-1-1.21L3,12.44C3.91,14.19,5.51,15,8,15h.14c2.92,0,4.62-1.41,5.36-4.42a10.32,10.32,0,0,0,.12-4.25Z"></path>
    <path d="M14.75,3.57l-1.67.95L13,4.24l-.36-.7L10.86,5.76a5.18,5.18,0,0,0-.67-1.56A12.28,12.28,0,0,0,6.76,1.07L5.93.57l.07,1a22.67,22.67,0,0,1,0,2.9,10.72,10.72,0,0,1-.52,2l-2.1-3L3,4.28a13.42,13.42,0,0,0-.92,4.59,7.31,7.31,0,0,0,.19,1.74.14.14,0,0,0,0,.06l-1.58.9.5.86,14-8Zm-11.09,2,2.09,3,.34-.88A17.48,17.48,0,0,0,7,4.51a17.82,17.82,0,0,0,0-2A9.51,9.51,0,0,1,9.35,4.74,4.6,4.6,0,0,1,10,6.3L3.24,10.15A10.47,10.47,0,0,1,3.66,5.56Z"></path>
</g>

<g id="ic-folder">
    <path d="M15,14H1V2H6V4h9ZM2,13H14V5H5V3H2Z"></path>
</g>

<g id="ic-folder-arrow-up">
    <path d="M6,4V2H1v12h5v-1H2V3h3v2h9v8h-4v1h5V4H6z"></path>
    <path d="M11.7,10.1L8,6.4l-3.7,3.7L5,10.8l2.5-2.5V15h1V8.3l2.5,2.5L11.7,10.1z"></path>
</g>

<g id="ic-folder-filled">
    <path d="M15 14H1V2h5v2h9v10z"></path>
</g>

<g id="ic-folder-plus">
    <path d="M6,4V2H1v12h8v-1H2V3h3v2h9v3h1V4H6z"></path>
    <path d="M12.5,8h-1v2.5H9v1h2.5V14h1v-2.5H15v-1h-2.5V8z"></path>
</g>

<g id="ic-folders">
    <path d="M8,2H3V5H1v9H13V12h2V4H8Zm4,11H2V6H5V8h7Zm2-8v6H13V7H6V5H4V3H7V5Z"></path>
</g>

<g id="ic-folders-filled">
    <path d="M15 15H1V3h5v2h9v10z"></path>
    <path d="M7 2H2V1h6v2h7v1H7V2z"></path>
</g>

<g id="ic-font">
    <path d="M12.85,14,8,1.08,3.15,14H2v1H5V14H4.22l1.5-4h4.56l1.5,4H11v1h3V14ZM6.1,9,8,3.92,9.9,9Z"></path>
</g>

<g id="ic-gear">
    <path d="M6.717 1h2.576l.542 1.72c.208.074.41.159.608.255l1.597-.832 1.826 1.828-.831 1.598c.096.198.181.4.254.609L15 6.721V9.3l-1.72.533c-.073.207-.158.41-.254.607l.831 1.598-1.826 1.828-1.597-.832c-.198.096-.4.18-.608.254L9.283 15H6.708l-.542-1.712a5.82 5.82 0 01-.609-.254l-1.597.832-1.826-1.828.831-1.598a5.814 5.814 0 01-.254-.61L1 9.289V6.712l1.71-.543c.074-.208.159-.41.255-.61l-.832-1.598L3.97 2.135l1.596.831c.198-.096.4-.18.608-.254L6.717 1zm.732 1L6.97 3.51l-.253.076a4.833 4.833 0 00-.915.383l-.233.126-1.413-.735-.796.792.734 1.41-.126.234c-.16.296-.288.599-.383.916l-.076.253L2 7.444v1.112l1.51.479.075.253c.095.317.222.62.383.916l.126.233-.735 1.413.79.79 1.41-.735.234.126c.297.16.599.288.916.383l.253.076L7.44 14h1.111l.479-1.51.253-.076c.316-.095.619-.223.915-.383l.233-.126 1.412.735.79-.79-.735-1.412.126-.234c.16-.296.287-.599.382-.916l.076-.255L14 8.563v-1.11l-1.51-.48-.075-.252a4.84 4.84 0 00-.383-.916l-.126-.234.735-1.412-.79-.79-1.41.735-.234-.126a4.832 4.832 0 00-.916-.383l-.253-.076L8.559 2H7.45zm.547 3.812a2.187 2.187 0 10.001 4.374 2.187 2.187 0 00-.001-4.374zM4.81 8a3.187 3.187 0 113.186 3.188A3.187 3.187 0 014.81 8z"></path>
</g>

<g id="ic-gift-card">
    <path d="M12.72,5a2,2,0,0,0-3-2.56A2.5,2.5,0,0,0,5,3.5,2.53,2.53,0,0,0,5.51,5H1V15H15V5ZM11,3a1,1,0,1,1-1,1A1,1,0,0,1,11,3ZM6,3.5A1.5,1.5,0,1,1,7.5,5,1.5,1.5,0,0,1,6,3.5ZM2,6H9V7H2Zm0,8V9H9v5Zm12,0H10V9h4Zm0-7H10V6h4Z"></path>
    <rect x="3" y="12" width="5" height="1"></rect>
    <rect x="11" y="12" width="2" height="1"></rect>
</g>

<g id="ic-globe">
    <path fill-rule="evenodd" clip-rule="evenodd" d="M7.5 14C11.0899 14 14 11.0899 14 7.5C14 3.91015 11.0899 1 7.5 1C3.91015 1 1 3.91015 1 7.5C1 11.0899 3.91015 14 7.5 14ZM7.5 15C11.6421 15 15 11.6421 15 7.5C15 3.35786 11.6421 0 7.5 0C3.35786 0 0 3.35786 0 7.5C0 11.6421 3.35786 15 7.5 15Z"></path>
    <path fill-rule="evenodd" clip-rule="evenodd" d="M7.31047 0.962701C7.31076 0.962816 7.31105 0.962937 7.5 0.500013C7.68895 0.0370893 7.68927 0.0372209 7.68961 0.0373582L7.69206 0.0383717L7.69646 0.04021L7.70904 0.0455879C7.71907 0.0499401 7.73237 0.0558428 7.74872 0.063383C7.78141 0.0784604 7.82633 0.100104 7.88172 0.129009C7.99245 0.186797 8.14534 0.273776 8.32617 0.395562C8.68778 0.639093 9.16245 1.02272 9.63464 1.59128C10.5856 2.73626 11.5 4.59979 11.5 7.50001C11.5 10.4002 10.5856 12.2638 9.63464 13.4087C9.16245 13.9773 8.68778 14.3609 8.32617 14.6045C8.14534 14.7263 7.99245 14.8132 7.88172 14.871C7.82633 14.8999 7.78141 14.9216 7.74872 14.9366C7.73237 14.9442 7.71907 14.9501 7.70904 14.9544L7.69646 14.9598L7.69206 14.9617L7.69034 14.9624C7.69001 14.9625 7.68895 14.9629 7.5 14.5C7.31105 14.0371 7.31076 14.0372 7.31047 14.0373L7.32989 14.0286C7.34847 14.02 7.37875 14.0055 7.41906 13.9845C7.49974 13.9424 7.62028 13.8742 7.76757 13.775C8.06222 13.5766 8.46255 13.2549 8.86535 12.7698C9.66443 11.8077 10.5 10.1712 10.5 7.50001C10.5 4.82881 9.66443 3.19233 8.86535 2.23018C8.46255 1.74517 8.06222 1.42343 7.76757 1.225C7.62028 1.1258 7.49974 1.05765 7.41906 1.01555C7.37875 0.99451 7.34847 0.98002 7.32989 0.971451L7.31047 0.962701L7.30861 0.96193C7.30863 0.961938 7.30823 0.961772 7.30861 0.96193L7.31047 0.962701Z"></path>
    <path fill-rule="evenodd" clip-rule="evenodd" d="M7.31039 0.0373582C7.31073 0.0372209 7.31105 0.0370893 7.5 0.500013C7.68895 0.962937 7.68924 0.962816 7.68953 0.962701L7.69079 0.96218C7.6912 0.962012 7.69079 0.962179 7.69079 0.96218L7.68953 0.962701L7.6701 0.971451C7.65153 0.98002 7.62125 0.99451 7.58094 1.01555C7.50026 1.05765 7.37972 1.1258 7.23243 1.225C6.93778 1.42343 6.53745 1.74517 6.13464 2.23018C5.33557 3.19233 4.5 4.82881 4.5 7.50001C4.5 10.1712 5.33557 11.8077 6.13464 12.7698C6.53745 13.2549 6.93778 13.5766 7.23243 13.775C7.37972 13.8742 7.50026 13.9424 7.58094 13.9845C7.62125 14.0055 7.65153 14.02 7.6701 14.0286L7.68896 14.0371C7.68868 14.0369 7.68895 14.0371 7.5 14.5C7.31105 14.9629 7.31073 14.9628 7.31039 14.9627L7.30794 14.9617L7.30353 14.9598L7.29096 14.9544C7.28093 14.9501 7.26763 14.9442 7.25128 14.9366C7.21859 14.9216 7.17367 14.8999 7.11828 14.871C7.00755 14.8132 6.85466 14.7263 6.67382 14.6045C6.31222 14.3609 5.83755 13.9773 5.36536 13.4087C4.41443 12.2638 3.5 10.4002 3.5 7.50001C3.5 4.59979 4.41443 2.73626 5.36536 1.59128C5.83755 1.02272 6.31222 0.639093 6.67382 0.395562C6.85466 0.273776 7.00755 0.186797 7.11828 0.129009C7.17367 0.100104 7.21859 0.0784604 7.25128 0.063383C7.26763 0.0558428 7.28093 0.0499401 7.29096 0.0455879L7.30353 0.04021L7.30794 0.0383717L7.31039 0.0373582Z"></path>
    <path d="M7 1H8V14H7V1Z"></path>
    <path d="M1 7H14V8H1V7Z"></path>
</g>

<g id="ic-grid">
    <path d="M1,7H7V1H1ZM2,2H6V6H2Z"></path>
    <path d="M9,1V7h6V1Zm5,5H10V2h4Z"></path>
    <path d="M1,15H7V9H1Zm1-5H6v4H2Z"></path>
    <path d="M9,15h6V9H9Zm1-5h4v4H10Z"></path>
</g>

<g id="ic-grid-3">
    <rect x="3" y="3" width="2" height="2"></rect>
    <rect x="7" y="3" width="2" height="2"></rect>
    <rect x="11" y="3" width="2" height="2"></rect>
    <rect x="3" y="11" width="2" height="2"></rect>
    <rect x="7" y="11" width="2" height="2"></rect>
    <rect x="11" y="11" width="2" height="2"></rect>
    <rect x="3" y="7" width="2" height="2"></rect>
    <rect x="7" y="7" width="2" height="2"></rect>
    <rect x="11" y="7" width="2" height="2"></rect>
</g>

<g id="ic-hook">
    <path d="M10.5,1A2,2,0,0,0,10,4.93v5.12c0,2-1.17,3.45-2.72,3.45a3,3,0,0,1-2.9-2.82,3.12,3.12,0,0,1,0-.33l.82,1L6,10.71l-2.49-3L3.41,9c0,.13-.06,1.32,0,1.76a4,4,0,0,0,3.9,3.76C9.4,14.5,11,12.59,11,10.05V4.93A2,2,0,0,0,10.5,1Zm0,3a1,1,0,1,1,1-1A1,1,0,0,1,10.5,4Z"></path>
</g>

<g id="ic-hourglass-empty">
    <path d="M10.73,6.56a5,5,0,0,0,.63-.83A4,4,0,0,0,12,4V3h1V2H3V3H4V4a3.92,3.92,0,0,0,.64,1.7,5,5,0,0,0,.64.84,6.34,6.34,0,0,0,.94.82A5.31,5.31,0,0,0,7.3,8a5.77,5.77,0,0,0-1.08.6,8,8,0,0,0-1,.84,5.5,5.5,0,0,0-.63.83A3.88,3.88,0,0,0,4,12v1H3v1H13V13H12V12a4,4,0,0,0-.64-1.7,5.49,5.49,0,0,0-.64-.84,7,7,0,0,0-.94-.82A5.31,5.31,0,0,0,8.7,8a5.77,5.77,0,0,0,1.08-.6A7.16,7.16,0,0,0,10.73,6.56ZM9.2,9.42a5.58,5.58,0,0,1,.79.69,4.6,4.6,0,0,1,.53.7A3,3,0,0,1,11,12.05V13H5v-.93a3,3,0,0,1,.49-1.27A4.83,4.83,0,0,1,6,10.12a5.2,5.2,0,0,1,.81-.7A4.77,4.77,0,0,1,8,8.78,5,5,0,0,1,9.2,9.42ZM8,7.22a5,5,0,0,1-1.2-.64A5.49,5.49,0,0,1,6,5.89a4.6,4.6,0,0,1-.53-.7A3.15,3.15,0,0,1,5,4V3h6v.93a3,3,0,0,1-.49,1.27,4.31,4.31,0,0,1-.51.68,5.13,5.13,0,0,1-.81.7A4.77,4.77,0,0,1,8,7.22Z"></path>
</g>

<g id="ic-image">
    <path d="M1,4V14H15V4Zm13,9H2V11H4.37L7,12.08,9.52,10H14Zm0-4H9.17L6.82,10.92,4.66,10,2,10V5H14Z"></path>
    <path d="M6.5,9a1.51,1.51,0,0,0,1.06-.44,1.49,1.49,0,0,0,0-2.12,1.51,1.51,0,0,0-2.12,0,1.49,1.49,0,0,0,0,2.12A1.51,1.51,0,0,0,6.5,9ZM6.15,7.15a.48.48,0,0,1,.7,0,.49.49,0,1,1-.7,0Z"></path>
</g>

<g id="ic-inbox">
    <path d="M14.98 7l-2.56-4H3.54L.98 7.07V14h14zM4.09 4h7.78l1.88 3h-2.77v2h-6V7H2.21zm9.89 9h-12V8h2v2h8V8h2z"></path>
</g>

<g id="ic-inbox-out">
    <path d="M7.5 2.95004L7.5 7H8.5L8.5 2.95004L10.65 5.10004L11.35 4.39004L8 1.04004L4.65 4.39004L5.35 5.10004L7.5 2.95004Z"></path>
    <path fill-rule="evenodd" clip-rule="evenodd" d="M1 8.07L2.93101 5H4.11L2.23 8H5V10H11V8H13.77L11.89 5H13.08L15 8V15H1V8.07ZM14 14H2V9H4V11H12V9H14V14Z"></path>
</g>

<g id="ic-italic">
    <polygon points="7 2 7 3 8.86 3 6.11 14 4 14 4 15 9 15 9 14 7.14 14 9.89 3 12 3 12 2 7 2"></polygon>
</g>

<g id="ic-key">
    <path d="M14.25,3.85,15,3.14,13.22,1.4,7.05,7.56a3.49,3.49,0,1,0,.72.7l3.92-3.92,1,1,.71-.7-1-1,.83-.83Zm-7.48,8.3a2.5,2.5,0,1,1,0-3.54A2.52,2.52,0,0,1,6.77,12.15Z"></path>
</g>

<g id="ic-language">
    <path d="M1,1v9H4v4.61L9.19,10H15V1ZM14,9H8.81L5,12.4V9H2V2H14Z"></path>
    <path d="M3,7.42l.18.23a1.1,1.1,0,0,1,.16.24l.07.17L3.59,8a5.66,5.66,0,0,0,1.92-1,5,5,0,0,0,2,1l.15,0,.08-.14a.88.88,0,0,1,.19-.26l.25-.26-.35-.08a4.53,4.53,0,0,1-1.71-.77,5,5,0,0,0,1-1.68.32.32,0,0,0,.13-.08h.7V4.07h-2v-.4A.25.25,0,0,0,6,3.5l0-.21-.84-.06v.84h-2v.71h.75A5.71,5.71,0,0,0,5,6.55a5.19,5.19,0,0,1-1.69.78ZM4.72,4.78H6.31a4.38,4.38,0,0,1-.78,1.27A4.59,4.59,0,0,1,4.72,4.78Z"></path>
    <path d="M10.24,6.94h1.62L12.21,8H13L11.42,3.43H10.7L9.1,8h.79Zm.81-2.44h0l.59,1.8H10.45Z"></path>
</g>

<g id="ic-layout-columns">
    <rect x="2" y="2" width="12" height="1"></rect>
    <rect x="2" y="4" width="2" height="11"></rect>
    <path d="M5,15H9V4H5ZM6,5H8v9H6Z"></path>
    <path d="M10,15h4V4H10ZM11,5h2v9H11Z"></path>
</g>

<g id="ic-layout-rows">
    <rect x="2" y="2" width="12" height="1"></rect>
    <rect x="2" y="4" width="2" height="11"></rect>
    <path d="M5,7h9V4H5ZM6,5h7V6H6Z"></path>
    <path d="M5,11h9V8H5ZM6,9h7v1H6Z"></path>
    <path d="M5,15h9V12H5Zm1-2h7v1H6Z"></path>
</g>

<g id="ic-life-ring">
    <path d="M8,1a7,7,0,1,0,7,7A7,7,0,0,0,8,1Zm5.8,5.5H11.15A3.57,3.57,0,0,0,9.5,4.85V2.2A6,6,0,0,1,13.8,6.5ZM14,8a4.19,4.19,0,0,1,0,.5H11.45A4,4,0,0,0,11.5,8a4,4,0,0,0-.05-.5H14A4.19,4.19,0,0,1,14,8ZM8,10.5A2.5,2.5,0,1,1,10.5,8,2.5,2.5,0,0,1,8,10.5ZM8.5,2V4.55a4,4,0,0,0-.5,0,4,4,0,0,0-.5,0V2a4.18,4.18,0,0,1,1,0Zm-2,.17V4.85A3.57,3.57,0,0,0,4.85,6.5H2.2A6,6,0,0,1,6.5,2.2ZM4.55,8.5H2a4.18,4.18,0,0,1,0-1H4.55a4,4,0,0,0,0,.5A4,4,0,0,0,4.55,8.5ZM2.2,9.5H4.85A3.57,3.57,0,0,0,6.5,11.15V13.8A6,6,0,0,1,2.2,9.5ZM7.5,14V11.45a4,4,0,0,0,.5.05,4,4,0,0,0,.5-.05V14a4.18,4.18,0,0,1-1,0Zm2-.17V11.15A3.57,3.57,0,0,0,11.15,9.5H13.8A6,6,0,0,1,9.5,13.8Z"></path>
</g>

<g id="ic-link">
    <path d="M5.61,13.89A2.28,2.28,0,0,1,4,13.19L2.81,12a2,2,0,0,1-.22-2.83l3-3a2,2,0,0,1,2.83.21l.6.6-.71.71-.59-.6a1.07,1.07,0,0,0-1.42-.22l-3,3a1.05,1.05,0,0,0,.21,1.42l1.2,1.2a1.05,1.05,0,0,0,1.42.21l1.52-1.52.7.71L6.83,13.41A1.71,1.71,0,0,1,5.61,13.89Z"></path>
    <path d="M9.15,10.36H9a2.33,2.33,0,0,1-1.41-.69l-.6-.6.71-.71.59.6a1.33,1.33,0,0,0,.81.4.73.73,0,0,0,.61-.18l3-3a1.05,1.05,0,0,0-.21-1.42l-1.2-1.2A1.05,1.05,0,0,0,9.87,3.3L8.35,4.82l-.7-.71L9.17,2.59A2,2,0,0,1,12,2.8L13.19,4a2,2,0,0,1,.22,2.83l-3,3A1.7,1.7,0,0,1,9.15,10.36Z"></path>
</g>

<g id="ic-link-broken">
    <path d="M9.14998 10.36H8.99998C8.46431 10.3 7.96602 10.0562 7.58998 9.67001L6.98998 9.07001L7.69998 8.36001L8.28998 8.96001C8.50504 9.18377 8.79158 9.32527 9.09998 9.36001C9.32013 9.3964 9.54484 9.33009 9.70998 9.18001L12.71 6.18001C13.025 5.72526 12.9331 5.10412 12.5 4.76001L11.3 3.56001C10.97 3.10413 10.3393 2.98946 9.86998 3.30001L8.34998 4.82001L7.64998 4.11001L9.16998 2.59001C9.57236 2.24089 10.0974 2.06673 10.6287 2.10615C11.1599 2.14557 11.6535 2.39532 12 2.80001L13.19 4.00001C13.5961 4.34505 13.8478 4.8379 13.8891 5.36922C13.9304 5.90053 13.7579 6.42635 13.41 6.83001L10.41 9.83001C10.0826 10.1752 9.62563 10.3674 9.14998 10.36Z"></path>
    <path d="M5.60998 13.89C5.00139 13.8809 4.4217 13.6289 3.99998 13.19L2.80998 12C2.40384 11.655 2.1522 11.1621 2.11089 10.6308C2.06959 10.0995 2.24204 9.57367 2.58998 9.17001L5.58998 6.17001C5.99236 5.82089 6.5174 5.64673 7.04867 5.68615C7.57994 5.72557 8.07353 5.97532 8.41998 6.38001L9.01998 6.98001L8.30998 7.69001L7.71998 7.09001C7.37361 6.66248 6.75947 6.56733 6.29998 6.87001L3.29998 9.87001C2.98499 10.3248 3.07685 10.9459 3.50998 11.29L4.70998 12.49C5.05409 12.9231 5.67523 13.015 6.12998 12.7L7.64998 11.18L8.34998 11.89L6.82998 13.41C6.50323 13.7257 6.06426 13.8984 5.60998 13.89Z"></path>
    <path d="M10.4716 11.6807H13.3001V10.6807H10.4716V11.6807Z"></path>
    <path d="M8.55742 12.5949V15.4233H9.55742V12.5949H8.55742Z"></path>
    <path d="M7.4361 0.574096L7.4361 3.40252H6.4361L6.4361 0.574096L7.4361 0.574096Z"></path>
    <path d="M5.52188 4.31674H2.69346L2.69346 5.31674L5.52188 5.31674V4.31674Z"></path>
</g>

<g id="ic-list">
    <path d="M2,15H5V12H2Zm1-2H4v1H3Z"></path>
    <path d="M2,5H5V2H2ZM3,3H4V4H3Z"></path>
    <path d="M2,10H5V7H2ZM3,8H4V9H3Z"></path>
    <rect x="6" y="3" width="8" height="1"></rect>
    <rect x="6" y="13" width="8" height="1"></rect>
    <rect x="6" y="8" width="8" height="1"></rect>
</g>

<g id="ic-list-bullets">
    <rect x="2" y="3" width="1" height="1"></rect>
    <rect x="4" y="3" width="10" height="1"></rect>
    <rect x="2" y="6" width="1" height="1"></rect>
    <rect x="4" y="6" width="10" height="1"></rect>
    <rect x="2" y="9" width="1" height="1"></rect>
    <rect x="4" y="9" width="10" height="1"></rect>
    <rect x="2" y="12" width="1" height="1"></rect>
    <rect x="4" y="12" width="10" height="1"></rect>
</g>

<g id="ic-list-numbers">
    <rect x="6" y="3" width="8" height="1"></rect>
    <rect x="6" y="13" width="8" height="1"></rect>
    <rect x="6" y="8" width="8" height="1"></rect>
    <path d="M3.54,3.2V4.78h.67V2.36H3.66a1.1,1.1,0,0,1-.29.38A1.63,1.63,0,0,1,2.84,3v.54a1.8,1.8,0,0,0,.38-.14A2.8,2.8,0,0,0,3.54,3.2Z"></path>
    <path d="M3.52,8.62a2.6,2.6,0,0,0-.65.61,1.17,1.17,0,0,0-.21.55h2V9.24h-1l.16-.14L4,8.91a1.78,1.78,0,0,0,.46-.44.72.72,0,0,0,.13-.42.64.64,0,0,0-.11-.36.69.69,0,0,0-.31-.25,1.54,1.54,0,0,0-.54-.08,1.3,1.3,0,0,0-.53.09.62.62,0,0,0-.29.24,1,1,0,0,0-.14.43l.66.05a.56.56,0,0,1,.11-.28.29.29,0,0,1,.21-.08.3.3,0,0,1,.2.08A.26.26,0,0,1,4,8.08a.4.4,0,0,1-.08.21A2.28,2.28,0,0,1,3.52,8.62Z"></path>
    <path d="M4.41,13.55a.71.71,0,0,0-.21-.08.78.78,0,0,0,.25-.22A.44.44,0,0,0,4.53,13a.55.55,0,0,0-.2-.43,1,1,0,0,0-.68-.18,1,1,0,0,0-.63.16.89.89,0,0,0-.3.46l.63.11a.45.45,0,0,1,.1-.25.29.29,0,0,1,.19-.07.24.24,0,0,1,.18.07.24.24,0,0,1,.06.17.3.3,0,0,1-.08.2.33.33,0,0,1-.22.08H3.49l0,.47.21,0a.32.32,0,0,1,.24.09.37.37,0,0,1,.08.25.36.36,0,0,1-.09.26.27.27,0,0,1-.22.1.28.28,0,0,1-.21-.08.57.57,0,0,1-.12-.27l-.66.08a.81.81,0,0,0,.19.37.76.76,0,0,0,.3.23,1.48,1.48,0,0,0,.52.07,1.14,1.14,0,0,0,.53-.1.82.82,0,0,0,.32-.29.83.83,0,0,0,.11-.4.65.65,0,0,0-.07-.29A.47.47,0,0,0,4.41,13.55Z"></path>
</g>

<g id="ic-lock">
    <path d="M12,6V5c0-2.2-1.8-4-4-4S4,2.8,4,5v1C3.4,6,3,6.4,3,7v6c0,0.6,0.4,1,1,1h8c0.6,0,1-0.4,1-1V7C13,6.4,12.6,6,12,6z M5,5c0-1.7,1.3-3,3-3s3,1.3,3,3v1H5V5z M12,13H4V7h8V13z"/>
    <path d="M8,11L8,11c-0.6,0-1-0.4-1-1v0c0-0.5,0.4-1,1-1h0c0.5,0,1,0.4,1,1v0C9,10.6,8.6,11,8,11z"/>
</g>

<g id="ic-lock-check-filled">
    <path d="M12,6V5c0-2.2-1.8-4-4-4S4,2.8,4,5v1C3.4,6,3,6.4,3,7v6c0,0.6,0.4,1,1,1h8c0.6,0,1-0.4,1-1V7C13,6.4,12.6,6,12,6z M5,5c0-1.7,1.3-3,3-3s3,1.3,3,3v1H5V5z M11.4,8.4l-4,4c-0.1,0.1-0.2,0.1-0.4,0.1s-0.3,0-0.4-0.1l-2-2c-0.2-0.2-0.2-0.5,0-0.7s0.5-0.2,0.7,0L7,11.3l3.6-3.6c0.2-0.2,0.5-0.2,0.7,0S11.5,8.2,11.4,8.4z"/>
</g>

<g id="ic-lock-filled">
    <path d="M12,6V5c0-2.2-1.8-4-4-4S4,2.8,4,5v1C3.4,6,3,6.4,3,7v6c0,0.6,0.4,1,1,1h8c0.6,0,1-0.4,1-1V7C13,6.4,12.6,6,12,6z M5,6V5c0-1.7,1.3-3,3-3s3,1.3,3,3v1H5z"/>
</g>

<g id="ic-lock-pen-filled">
    <path d="M12,6V5c0-2.2-1.8-4-4-4S4,2.8,4,5v1C3.4,6,3,6.4,3,7v6c0,0.6,0.4,1,1,1h8c0.6,0,1-0.4,1-1V7C13,6.4,12.6,6,12,6z M6,13H5v-1l3.9-3.9l1,1L6,13z M10.3,8.7l-1-1L10,7l1,1L10.3,8.7z M11,6H5V5c0-1.7,1.3-3,3-3s3,1.3,3,3V6z"/>
</g>

<g id="ic-lock-triangle-exclamation-filled">
    <path d="M12,6V5c0-2.2-1.8-4-4-4S4,2.8,4,5v1C3.4,6,3,6.4,3,7v6c0,0.6,0.4,1,1,1h8c0.6,0,1-0.4,1-1V7C13,6.4,12.6,6,12,6z M5,13l3-6l3,6H5z M11,6H5V5c0-1.7,1.3-3,3-3s3,1.3,3,3V6z"/>
    <path d="M7.6,8.6h0.8v2.6H7.6V8.6z M7.6,11.6h0.8v0.7H7.6V11.6z"/>
</g>

<g id="ic-magnifying-glass">
    <path d="M9.6,8.89a4.47,4.47,0,0,0,1-2.83,4.56,4.56,0,1,0-4.56,4.56,4.47,4.47,0,0,0,2.83-1l4.26,4.25.7-.7Zm-3.54.73A3.56,3.56,0,1,1,9.62,6.06,3.57,3.57,0,0,1,6.06,9.62Z"></path>
</g>

<g id="ic-mailbox">
    <path d="M12.47,3H4V3L3.75,3A2.7,2.7,0,0,0,1,5.65V10H7v4H8V10H9v4h1V10h5V5.66A2.6,2.6,0,0,0,12.47,3ZM2,9V5.65A1.71,1.71,0,0,1,3.75,4,1.71,1.71,0,0,1,5.5,5.65V9ZM14,9H6.5V5.65A2.64,2.64,0,0,0,5.89,4h6.58A1.59,1.59,0,0,1,14,5.66Z"></path>
    <polygon points="11.4 5.16 7.75 5.16 7.75 6.16 11.4 6.16 11.4 7.16 12.4 7.16 12.4 5.16 11.9 5.16 11.4 5.16"></polygon>
</g>

<g id="ic-map-marker">
    <path d="M8,2a4.5,4.5,0,0,0-4.5,4.5A4.27,4.27,0,0,0,3.68,7.8h0c.73,2,3.86,6.27,4,6.46l.42.57.4-.59a55.56,55.56,0,0,0,3.82-6.43,3.22,3.22,0,0,0,.19-1.27A4.5,4.5,0,0,0,8,2Zm3.38,5.4a46.53,46.53,0,0,1-3.32,5.64A37.22,37.22,0,0,1,4.62,7.45a3.13,3.13,0,0,1-.12-.91,3.5,3.5,0,1,1,7,0A2.48,2.48,0,0,1,11.38,7.44Z"></path>
    <path d="M6.94,5.94a1.49,1.49,0,0,0,0,2.12,1.5,1.5,0,0,0,2.12,0,1.49,1.49,0,0,0,0-2.12A1.51,1.51,0,0,0,6.94,5.94ZM8.35,7.35a.49.49,0,0,1-.7-.7.48.48,0,0,1,.7,0A.48.48,0,0,1,8.35,7.35Z"></path>
</g>

<g id="ic-merge">
    <path d="M3,15a2,2,0,0,0,2-2,2.26,2.26,0,0,0-.09-.58.76.76,0,0,0,0-.11,2.32,2.32,0,0,0-.24-.47l-.09-.1a2.13,2.13,0,0,0-.3-.3l-.13-.1a2.22,2.22,0,0,0-.41-.2l-.1-.05a4.49,4.49,0,0,1,7.58-2.27,4.42,4.42,0,0,1,1.23,2.27l-.07,0a2.23,2.23,0,0,0-.49.24l0,0a1.9,1.9,0,0,0-.38.37l-.06.07a1.83,1.83,0,0,0-.25.48.49.49,0,0,0,0,.11A2.2,2.2,0,0,0,11,13a2,2,0,1,0,2.39-1.95,5.39,5.39,0,0,0-1.51-2.93A5.47,5.47,0,0,0,8.5,6.55V5.93a2,2,0,1,0-1,0v.62A5.53,5.53,0,0,0,2.61,11,2,2,0,0,0,3,15Zm11-2a1,1,0,1,1-1-1A1,1,0,0,1,14,13ZM7,4A1,1,0,1,1,8,5,1,1,0,0,1,7,4ZM3,12a1,1,0,0,1,1,1,1,1,0,1,1-1-1Z"></path>
</g>

<g id="ic-messages">
    <path d="M6.71,8H10V2H1V8H3v3.71ZM2,7V3H9V7H6.29L4,9.29V7Z"></path>
    <polygon points="11 5 11 6 14 6 14 10 13 10 13 10.01 12 10.01 12 10.5 12 11.01 12 12.29 9.71 10 9.5 10 7 10 7 9 6 9 6 11 6.5 11 9.29 11 13 14.71 13 11.01 13 11 15 11 15 5 11 5"></polygon>
</g>

<g id="ic-minimize">
    <rect x="2" y="13" width="12" height="1"></rect>
</g>

<g id="ic-mobile">
    <path d="M10.5,2h-5A1.5,1.5,0,0,0,4,3.5v10A1.5,1.5,0,0,0,5.5,15h5A1.5,1.5,0,0,0,12,13.5V3.5A1.5,1.5,0,0,0,10.5,2ZM11,13.5a.5.5,0,0,1-.5.5h-5a.5.5,0,0,1-.5-.5V5h6ZM11,4H5V3.5A.5.5,0,0,1,5.5,3h5a.5.5,0,0,1,.5.5Z"></path>
    <rect x="7" y="12" width="2" height="1"></rect>
</g>

<g id="ic-money-bills">
    <path d="M14,6V3H0v7H2v3H16V6ZM1,9V4H13V6H8.93A2,2,0,0,0,5.07,6H2V9ZM7.85,6H6.15a1,1,0,0,1,1.7,0ZM15,12H3V7H15Z"></path>
    <path d="M9,7.5a2,2,0,1,0,2,2A2,2,0,0,0,9,7.5Zm0,3a1,1,0,1,1,1-1A1,1,0,0,1,9,10.5Z"></path>
    <rect x="4" y="8" width="1" height="3"></rect>
    <rect x="13" y="8" width="1" height="3"></rect>
</g>

<g id="ic-note">
    <path d="M2,1V11.11l.15.15c1,1,1.59,1.57,2.59,2.59l.15.15H14V1ZM5,12.69l-.11-.11L3.42,11.11,3.31,11H5ZM13,13H6V10H3V2H13Z"></path>
</g>

<g id="ic-note-pen">
    <path d="M10,14H5v-3H2V5h5V4H1v8.5l0.1,0.1l2.1,2.2L3.4,15H11v-5h-1V14z M4,14L4,14l-2-1.9V12h2V14z"></path>
    <path d="M6.6,6.1L6.1,8.5l-0.4,1.9l4.4-1l5.6-5.6l-3.4-3.4L6.7,6L6.6,6.1z M14.3,3.8l-0.5,0.5l-2-2l0.5-0.5L14.3,3.8z M11.1,3l2,2L10,8.1l-2-2L11.1,3z M7.4,7l1.6,1.6L7.3,9L7,9.1L7.4,7z"></path>
</g>

<g id="ic-notepad-list-fast">
    <path d="M13,3V2H7V3H5V15H15V3ZM12,3V4H8V3Zm2,11H6V4H7V5h6V4h1Z"></path>
    <rect x="7" y="7" width="1" height="1"></rect>
    <rect x="7" y="9" width="1" height="1"></rect>
    <rect x="7" y="11" width="1" height="1"></rect>
    <rect x="9" y="7" width="4" height="1"></rect>
    <rect x="9" y="9" width="4" height="1"></rect>
    <rect x="9" y="11" width="4" height="1"></rect>
    <rect x="2" y="7" width="2" height="1"></rect>
    <rect x="1" y="9" width="3" height="1"></rect>
    <rect x="2" y="11" width="2" height="1"></rect>
</g>

<g id="ic-paint-roller">
    <path d="M4,2V6H14V2Zm9,3H5V3h8Z"></path>
    <path d="M9,7H3V4H2V8H8V9H7v6h3V9H9Zm0,7H8V10H9Z"></path>
    <path d="M12.56,6.75l-.37.42a3.81,3.81,0,0,0-1.07,1.89,1.44,1.44,0,1,0,2.88,0,3.81,3.81,0,0,0-1.07-1.89Zm0,2.75a.44.44,0,0,1-.44-.44,2.59,2.59,0,0,1,.44-.77,2.37,2.37,0,0,1,.44.77A.44.44,0,0,1,12.56,9.5Z"></path>
</g>

<g id="ic-paper-plane">
    <path d="M.25,6.28l6.1,3.05,3.05,6.1L14.74.94Zm2.52.14L11.93,3,6.62,8.35Zm6.49,6.5L7.33,9.06l5.31-5.31Z"></path>
</g>

<g id="ic-paperclip">
    <path d="M13.26,1.9a4.1,4.1,0,0,0-5.17.6L1.84,8.75A2.79,2.79,0,0,0,1,10.94,2.84,2.84,0,0,0,2.14,13a2.73,2.73,0,0,0,1.62.53,3.13,3.13,0,0,0,2.18-.92l5.4-5.4A1.66,1.66,0,0,0,9,4.86L5.4,8.46l.71.71L9.7,5.57a.66.66,0,0,1,.93.93L5.24,11.9a2,2,0,0,1-2.5.3,1.83,1.83,0,0,1-.2-2.74L8.79,3.21a3.11,3.11,0,0,1,3.9-.48A3,3,0,0,1,14,4.92a3,3,0,0,1-.86,2.37L7.86,12.55l.7.71L13.83,8a4,4,0,0,0-.57-6.1Z"></path>
</g>

<g id="ic-pause">
    <rect x="5" y="3" width="1" height="10"></rect>
    <rect x="10" y="3" width="1" height="10"></rect>
</g>

<g id="ic-pen">
    <path d="M10.32,1.29,3,8.62l-.41,1.7-.38,1.6h0v0l-.45,2.23L4,13.72l3.3-.78,7.32-7.33ZM3.8,12.75,3,12.9l.26-1.16.91.91Zm3-.72-1.46.35L3.57,10.59,3.9,9.13,8.72,4.31l1.1,1.1L4.9,10.33l.71.7,4.91-4.91,1.1,1.1Zm5.52-5.52L9.42,3.61l.9-.9.65.65h0L12.58,5h0l.65.65Z"></path>
</g>

<g id="ic-people">
    <path d="M8,5A2,2,0,1,0,6,3,2,2,0,0,0,8,5ZM8,2A1,1,0,1,1,7,3,1,1,0,0,1,8,2Z"></path>
    <path d="M12.5,6A1.5,1.5,0,1,0,11,4.5,1.5,1.5,0,0,0,12.5,6Zm0-2a.5.5,0,1,1-.5.5A.5.5,0,0,1,12.5,4Z"></path>
    <path d="M11,7V6H5V7H1v4H2v3H5V11H6v4h4V11h1v3h3V11h1V7ZM5,10H4v3H3V10H2V8H5Zm5,0H9v4H7V10H6V7h4Zm4,0H13v3H12V10H11V8h3Z"></path>
    <path d="M3.5,6A1.5,1.5,0,1,0,2,4.5,1.5,1.5,0,0,0,3.5,6Zm0-2a.5.5,0,1,1-.5.5A.5.5,0,0,1,3.5,4Z"></path>
</g>

<g id="ic-phone-rotary">
    <path d="M5.82,7,2,10.27V14H14V10.27L10.18,7ZM13,13H3V10.73L6.18,8H9.82L13,10.73Z"></path>
    <path d="M8,9a1.5,1.5,0,1,0,1.5,1.5A1.5,1.5,0,0,0,8,9Zm0,2a.5.5,0,1,1,.5-.5A.5.5,0,0,1,8,11Z"></path>
    <path d="M12.5,2h-9A1.5,1.5,0,0,0,2,3.5V6H6V5h4V6h4V3.5A1.5,1.5,0,0,0,12.5,2ZM13,5H11V4H5V5H3V3.5A.5.5,0,0,1,3.5,3h9a.5.5,0,0,1,.5.5Z"></path>
</g>

<g id="ic-play">
    <path d="M4.2,13c0.1,0,0.1,0,0.2,0l7.5-4.7C12.1,8.2,12.1,8,12,7.8c0,0-0.1-0.1-0.1-0.1L4.4,3
C4.3,3,4.1,3,4,3.1c0,0,0,0.1,0,0.2v9.4c0,0.1,0.1,0.2,0.2,0.3C4.1,13,4.2,13,4.2,13z M4.6,3.9L11.2,8l-6.6,4.1V3.9z"></path>
</g>

<g id="ic-plus">
	<polygon points="15 8 9 8 9 2 8 2 8 8 2 8 2 9 8 9 8 15 9 15 9 9 15 9 15 8" />
</g>

<g id="ic-pm-me">
    <path d="M11.5,8A2.53,2.53,0,0,0,9,10.2v1.57s0,.17.49.51a8.65,8.65,0,0,0,2,1.29c.43,0,1.54-1,2-1.29s.48-.51.48-.51V10.2A2.52,2.52,0,0,0,11.5,8Zm-1.42,3.08v-.85a1.51,1.51,0,0,1,1.41-1.16,1.53,1.53,0,0,1,1.42,1.16v.85Z"></path>
    <path d="M11.58,13.92H11.4a1.29,1.29,0,0,1-.47-.2C10.67,13.55,9,12.35,9,12.35v2.37a.3.3,0,0,0,.32.28h4.36a.29.29,0,0,0,.31-.28V12.35l-1.92,1.37A1.42,1.42,0,0,1,11.58,13.92Z"></path>
    <polygon points="3 1 2 1 2 15 3 15 7 15 7 14 3 14 3 12 5 12 5 11 3 11 3 9 7 9 7 8 3 8 3 6 5 6 5 5 3 5 3 3 7 3 7 2 3 2 3 1"></polygon>
</g>

<g id="ic-presentation-screen">
    <path d="M2,11H7.29l-3,3H5.71L8,11.71,10.29,14h1.42l-3-3H14V4H2ZM3,5H13v5H3Z"></path>
    <path d="M7,6,9.5,7.5,7,9Z"></path>
    <path d="M14,2H2V3H14Z"></path>
</g>

<g id="ic-printer">
    <path d="M12,5V2H4V5H1v6.75H2V11H4v4h8V11h2v.75h1V5ZM5,3h6V5H5Zm6,11H5V11h6Zm3-4H2V6H14Z"></path>
    <rect x="6" y="12" width="4" height="1"></rect>
    <circle cx="11.5" cy="7.5" r="0.5"></circle>
</g>

<g id="ic-question">
    <path d="M5.32,2.14A4.33,4.33,0,0,0,3.66,5.59H5.32A2.69,2.69,0,1,1,8.77,8.16,2.25,2.25,0,0,1,8,8.27H7.15v3.18H8.81V9.79a4.35,4.35,0,0,0,3.45-5.1A4.29,4.29,0,0,0,9.13,1.38,4.4,4.4,0,0,0,5.32,2.14Z"></path>
    <rect x="7.15" y="13.11" width="1.66" height="1.66"></rect>
</g>

<g id="ic-quote-right">
    <path d="M1,9H6A4.49,4.49,0,0,1,1.5,13v1A5.5,5.5,0,0,0,7,9H7V3H1ZM2,4H6V8H2Z"></path>
    <path d="M9,3V9H14A4.49,4.49,0,0,1,9.5,13v1A5.5,5.5,0,0,0,15,9h0V3Zm5,5H10V4h4Z"></path>
</g>

<g id="ic-robot">
    <path d="M6,6V5H7V2H4V5H5V6H1.9v9H14.1V6ZM5,3H6V4H5Zm8.1,11H2.9V7H13.1Z"></path>
    <rect x="5" y="9" width="1" height="1"></rect>
    <polygon points="6 11 6 12 6 13 10 13 10 12 10 11 9 11 9 12 7 12 7 11 6 11"></polygon>
    <rect x="10" y="9" width="1" height="1"></rect>
</g>

<g id="ic-rocket">
    <path fill-rule="evenodd" clip-rule="evenodd" d="M11.41 7.77V7.34C11.0776 5.07056 10.0261 2.96756 8.41 1.34L8 1L7.65 1.34C6.03387 2.96756 4.98237 5.07056 4.65 7.34V7.77C3.41129 7.99585 2.50841 9.0709 2.5 10.33C2.50312 11.1162 2.87295 11.8558 3.5 12.33L4.11 12.83L4.3 12.06C4.43406 11.4869 4.8719 11.0337 5.44 10.88L5.83 10.77L5.63 7.88V7.42C5.89888 5.54395 6.72447 3.79174 8 2.39C9.27742 3.78106 10.1097 5.5223 10.39 7.39V7.84L10.19 10.73L10.58 10.84C11.1481 10.9937 11.5859 11.4469 11.72 12.02L11.91 12.79L12.52 12.29C13.1283 11.8056 13.4789 11.0675 13.47 10.29C13.4517 9.07362 12.5984 8.02988 11.41 7.77ZM3.64 11C3.54865 10.7919 3.501 10.5673 3.5 10.34C3.49583 9.63993 3.94453 9.0174 4.61 8.8V9.32L4.67 10.06C4.24862 10.2754 3.89288 10.6 3.64 11ZM11.28 10.07C11.7185 10.2751 12.0921 10.5968 12.36 11C12.4514 10.7919 12.499 10.5673 12.5 10.34C12.4996 9.63827 12.0475 9.01658 11.38 8.8C11.33 9.06 11.33 9.27 11.33 9.47L11.28 10.07Z"></path>
    <path d="M8.5 7.8V10.3H7.5V7.8H8.5Z"></path>
    <path d="M7 12H6V14H7V12Z"></path>
    <path d="M8.5 12V15H7.5V12H8.5Z"></path>
    <path d="M10 12H9V14H10V12Z"></path>
</g>

<g id="ic-servers">
    <rect x="7.5" y="12" width="1" height="3"></rect>
    <rect x="4" y="14" width="8" height="1"></rect>
    <path d="M15,6H1V2H15ZM2,5H14V3H2Z"></path>
    <path d="M15,11H1V7H15ZM2,10H14V8H2Z"></path>
    <rect x="11" y="8.5" width="1" height="1"></rect>
    <rect x="11" y="3.5" width="1" height="1"></rect>
</g>

<g id="ic-shield">
    <path d="M8,1.24,2.39,2.49V9.7c0,2.76,4.87,4.79,5.42,5l.19.08.19-.08c.55-.22,5.42-2.25,5.42-5V2.49ZM3.39,9.7V3.29L7.5,2.37V13.48C5.93,12.74,3.39,11.22,3.39,9.7Zm9.22,0c0,1.52-2.54,3-4.11,3.78V2.37l4.11.92Z"></path>
</g>

<g id="ic-sliders">
    <rect x="7" y="4" width="8" height="1"></rect>
    <rect x="7" y="12" width="8" height="1"></rect>
    <rect x="1" y="8" width="8" height="1"></rect>
    <path d="M3,6H6V3H3V4H1V5H3ZM4,4H5V5H4Z"></path>
    <path d="M3,12H1v1H3v1H6V11H3Zm1,0H5v1H4Z"></path>
    <path d="M13,7H10v3h3V9h2V8H13ZM12,9H11V8h1Z"></path>
</g>

<g id="ic-star">
    <path d="M15.07,6.3l-4.88-.71L8,1.16,5.81,5.59.93,6.3,4.46,9.75l-.83,4.87L8,12.32l4.37,2.3-.83-4.87ZM8,11.19l-3,1.6L5.54,9.4,3.07,7l3.41-.49L8,3.42,9.52,6.51,12.93,7,10.46,9.4,11,12.79Z"></path>
</g>

<g id="ic-star-filled">
    <path d="M7.855.895l2.163 4.41 4.846.71-3.512 3.429.822 4.845L7.842 12l-4.339 2.285.834-4.844L.834 6.006l4.848-.704z"></path>
</g>

<g id="ic-switch">
    <path d="M3.65,13.85,1.28,11.5,3.65,9.15l.7.7L3.21,11H13.5V9h1v3H3.21l1.14,1.15ZM2.5,7h-1V4H12.79L11.65,2.85l.7-.7L14.7,4.5,12.35,6.85l-.7-.7L12.79,5H2.5Z"></path>
</g>

<g id="ic-tag">
    <path d="M6.77,15,1.11,9.33,9,1.45l.34-.05,4.9.47.46,4.9,0,.34ZM2.53,9.33l4.24,4.25,6.92-6.92-.37-3.88L9.44,2.42Z"></path>
</g>

<g id="ic-tags">
    <path d="M14.05,3.22l-.46,0-.18-1.86L9,.89,8.64,1,1.53,8.06,2.8,9.33,2.16,10l5.15,5.15L14.42,8l.05-.33ZM2.94,8.06,9.09,1.91l3.41.33.08.84-3-.28-.33,0L3.5,8.62Zm4.37,5.63L3.58,10,9.72,3.81l3.41.33.33,3.4Z"></path>
</g>

<g id="ic-trash">
    <rect x="6" y="7" width="1" height="5"></rect>
    <rect x="9" y="7" width="1" height="5"></rect>
    <path d="M13,4H11V2H5V4H1V5H3V15H13V5h2V4ZM6,3h4V4H6Zm6,11H4V5h8Z"></path>
</g>

<g id="ic-triangle-exclamation">
    <rect x="7.5" y="6" width="1" height="4"></rect>
    <rect x="7.5" y="11" width="1" height="1"></rect>
    <path d="M8,.84,1.72,14H14.28ZM8,3.16,12.69,13H3.31Z"></path>
</g>

<g id="ic-triangle-exclamation-filled">
    <path class="fill-warning" d="M14.233 14L7.977.855 1.72 14z"></path>
    <rect x="7.5" y="6" width="1" height="4"></rect>
    <rect x="7.5" y="11" width="1" height="1"></rect>
</g>

<g id="ic-tv">
    <path d="M13.5,2.42H2.5A1.62,1.62,0,0,0,.89,4v6.08A1.61,1.61,0,0,0,2.5,11.72H7.68v1.22H4.12a.32.32,0,0,0-.32.32.32.32,0,0,0,.32.32h7.76a.32.32,0,0,0,.32-.32.32.32,0,0,0-.32-.32H8.32V11.72H13.5a1.61,1.61,0,0,0,1.61-1.61V4A1.62,1.62,0,0,0,13.5,2.42Zm1,7.69a1,1,0,0,1-1,1H2.5a1,1,0,0,1-1-1V4a1,1,0,0,1,1-1h11a1,1,0,0,1,1,1Z"></path>
</g>

<g id="ic-underline">
    <path d="M10,2V3h1V8A3,3,0,0,1,5,8V3H6V2H3V3H4V8a4,4,0,0,0,8,0V3h1V2Z"></path>
    <rect x="3" y="14" width="10" height="1"></rect>
</g>

<g id="ic-unlock-check-filled">
    <path d="M12,6V5c0-2.2-1.8-4-4-4C7.1,1,6.3,1.3,5.6,1.8l0.6,0.8C6.7,2.2,7.3,2,8,2c1.7,0,3,1.3,3,3v1H4C3.4,6,3,6.4,3,7v6c0,0.6,0.4,1,1,1h8c0.6,0,1-0.4,1-1V7C13,6.4,12.6,6,12,6z M11.4,8.4l-4,4c-0.1,0.1-0.2,0.1-0.4,0.1s-0.3,0-0.4-0.1l-2-2c-0.2-0.2-0.2-0.5,0-0.7s0.5-0.2,0.7,0L7,11.3l3.6-3.6c0.2-0.2,0.5-0.2,0.7,0S11.5,8.2,11.4,8.4z"/>
</g>

<g id="ic-unlock-pen-filled">
    <path d="M12,6V5c0-2.2-1.8-4-4-4C7.1,1,6.3,1.3,5.6,1.8l0.6,0.8C6.7,2.2,7.3,2,8,2c1.7,0,3,1.3,3,3v1H4C3.4,6,3,6.4,3,7v6c0,0.6,0.4,1,1,1h8c0.6,0,1-0.4,1-1V7C13,6.4,12.6,6,12,6z M6,13H5v-1l3.9-3.9l1,1L6,13z M10.3,8.7l-1-1L10,7l1,1L10.3,8.7z"/>
</g>

<g id="ic-unlock-triangle-exclamation-filled">
    <path d="M12,6V5c0-2.2-1.8-4-4-4C7.1,1,6.3,1.3,5.6,1.8l0.6,0.8C6.7,2.2,7.3,2,8,2c1.7,0,3,1.3,3,3v1H4C3.4,6,3,6.4,3,7v6c0,0.6,0.4,1,1,1h8c0.6,0,1-0.4,1-1V7C13,6.4,12.6,6,12,6z M5,13l3-6l3,6H5z"/>
    <path d="M7.6,8.6h0.8v2.6H7.6V8.6z M7.6,11.6h0.8v0.7H7.6V11.6z"/>
</g>

<g id="ic-user">
    <path d="M8,9A3.5,3.5,0,1,0,4.5,5.5,3.5,3.5,0,0,0,8,9ZM8,3A2.5,2.5,0,1,1,5.5,5.5,2.5,2.5,0,0,1,8,3Z"></path>
    <path d="M10.65,10H5.35L2,12.23V15H14V12.23ZM13,14H3V12.77L5.65,11h4.7L13,12.77Z"></path>
</g>

<g id="ic-user-filled">
    <path d="M8,9A3.5,3.5,0,1,0,4.5,5.5,3.5,3.5,0,0,0,8,9Z"></path>
    <path d="M10.65,10H5.35L2,12.23V15H14V12.23Z"></path>
</g>

<g id="ic-user-group">
    <path d="M4.431 3.412A2.24 2.24 0 016.71 1.89c.417.02.82.159 1.16.4l.57-.82A3.23 3.23 0 006.77.89a3.18 3.18 0 00-2.34.84 3.2 3.2 0 00-1.08 2.23 3.26 3.26 0 001.42 2.87L5.33 6a2.24 2.24 0 01-.899-2.588z"></path>
    <path d="M9.52 9.37a3.24 3.24 0 110-6.48 3.24 3.24 0 010 6.48zm0-5.48a2.24 2.24 0 100 4.48 2.24 2.24 0 000-4.48zM11.95 10.35l3.09 2.06V15h-11v-2.59l3-2.06h4.91zM5.04 14h9v-1.06l-2.39-1.59H7.39l-2.35 1.59V14z"></path>
    <path d="M4.08 8.35h.96v1h-.65L2 10.94V12h1.04v1H1v-2.59l3.08-2.06z"></path>
</g>

<g id="ic-user-group-plus">
    <polygon points="6 12 4 12 4 10 3 10 3 12 1 12 1 13 3 13 3 15 4 15 4 13 6 13 6 12"></polygon>
    <path d="M6.52,9A3.24,3.24,0,1,0,3.28,5.74,3.24,3.24,0,0,0,6.52,9Zm0-5.48A2.24,2.24,0,1,1,4.28,5.74,2.24,2.24,0,0,1,6.52,3.5Z"></path>
    <polygon points="5 10 5 11 8.35 11 11 12.77 11 14 5 14 5 15 12 15 12 12.23 8.65 10 5 10"></polygon>
    <path d="M9.41,1.54a2.24,2.24,0,0,1,1.38,4.09l.56.83a3.24,3.24,0,0,0-2-5.92,3.36,3.36,0,0,0-1.68.58l.58.82A2.19,2.19,0,0,1,9.41,1.54Z"></path>
    <polygon points="11.65 8 10 8 10 9 11.35 9 14 10.77 14 12 13 12 13 13 15 13 15 10.23 11.65 8"></polygon>
</g>

<g id="ic-user-plus">
    <path d="M7,9.1A3.5,3.5,0,1,0,3.5,5.6,3.5,3.5,0,0,0,7,9.1Zm0-6A2.5,2.5,0,1,1,4.5,5.6,2.5,2.5,0,0,1,7,3.1Z"></path>
    <polygon points="2 12.71 3.71 11 10 11 10 10 3.29 10 1 12.29 1 15 11 15 11 14 2 14 2 12.71"></polygon>
    <polygon points="13 12 13 10 12 10 12 12 10 12 10 13 12 13 12 15 13 15 13 13 15 13 15 12 13 12"></polygon>
</g>

<g id="ic-wallet">
    <path d="M15,9H14V5H13V2H4A2,2,0,0,0,2,4H2V15H14V12h1ZM4,3h8V5H4a1,1,0,0,1-.9-.65L3,4V4A1,1,0,0,1,4,3Zm9,11H3V5.75a2.18,2.18,0,0,0,.23.09l.17.07A2.11,2.11,0,0,0,4,6h9V9H10v3h3Zm1-3H11V10h3Z"></path>
</g>

<g id="ic-window-image">
    <path d="M1,2V15H15V2ZM14,14H2V12.79l2.2-1.3L6.56,12l3.89-1.95L14,12.75Zm0-2.5L10.55,8.92,6.44,11,4,10.43l-2,1.2V6H14ZM14,5H2V3h8V4h1V3h1V4h1V3h1Z"></path>
    <path d="M4.8,9.83a1.57,1.57,0,0,0,.7.17A1.41,1.41,0,0,0,6,9.93a1.49,1.49,0,1,0-1.15-.1Zm.26-1.56h0A.48.48,0,0,1,5.35,8L5.5,8a.46.46,0,0,1,.23.06A.48.48,0,0,1,6,8.35a.5.5,0,0,1,0,.38A.48.48,0,0,1,5.65,9a.5.5,0,0,1-.38,0A.48.48,0,0,1,5,8.65.5.5,0,0,1,5.06,8.27Z"></path>
</g>

<g id="ic-window-terminal">
    <rect x="7" y="11" width="5" height="1"></rect>
    <polygon points="4.34 11.9 6.88 9.94 4.34 7.98 3.73 8.78 5.24 9.94 3.73 11.1 4.34 11.9"></polygon>
    <path d="M1,2V15H15V2ZM14,14H2V6H14Zm0-9H2V3h8V4h1V3h1V4h1V3h1Z"></path>
</g>

<g id="ic-xmark">
    <polygon points="13.85 2.85 13.15 2.15 8 7.29 2.85 2.15 2.15 2.85 7.29 8 2.15 13.15 2.85 13.85 8 8.71 13.15 13.85 13.85 13.15 8.71 8 13.85 2.85"></polygon>
</g>

</defs>
</svg>
