<svg width="187" height="86" viewBox="0 0 187 86" fill="none" xmlns="http://www.w3.org/2000/svg">
    <g filter="url(#filter0_d_13493_80237)">
        <path
            fill-rule="evenodd"
            clip-rule="evenodd"
            d="M82.5047 3.28418C82.2731 4.42532 81.2642 5.28421 80.0547 5.28421C78.8452 5.28421 77.8363 4.42532 77.6047 3.28418H75.0547V6.83413C76.1958 7.06576 77.0547 8.07464 77.0547 9.28412C77.0547 10.4936 76.1958 11.5025 75.0547 11.7341V14.8341C76.1958 15.0658 77.0547 16.0746 77.0547 17.2841C77.0547 18.4936 76.1958 19.5025 75.0547 19.7341V22.8341C76.1958 23.0658 77.0547 24.0746 77.0547 25.2841C77.0547 26.4936 76.1958 27.5025 75.0547 27.7341V30.8341C76.1958 31.0658 77.0547 32.0746 77.0547 33.2841C77.0547 34.4936 76.1958 35.5025 75.0547 35.7341V38.8341C76.1958 39.0658 77.0547 40.0746 77.0547 41.2841C77.0547 42.4936 76.1958 43.5025 75.0547 43.7341V46.8341C76.1958 47.0658 77.0547 48.0746 77.0547 49.2841C77.0547 50.4936 76.1958 51.5025 75.0547 51.7341V54.8341C76.1958 55.0658 77.0547 56.0746 77.0547 57.2841C77.0547 58.4936 76.1958 59.5025 75.0547 59.7341V63.2842H77.6047C77.8364 62.143 78.8452 61.2841 80.0547 61.2841C81.2642 61.2841 82.2731 62.143 82.5047 63.2842H85.6047C85.8364 62.143 86.8452 61.2841 88.0547 61.2841C89.2642 61.2841 90.2731 62.143 90.5048 63.2842H93.6047C93.8364 62.143 94.8452 61.2841 96.0547 61.2841C97.2642 61.2841 98.2731 62.143 98.5047 63.2842H101.605C101.836 62.143 102.845 61.2841 104.055 61.2841C105.264 61.2841 106.273 62.143 106.505 63.2842H109.605C109.836 62.143 110.845 61.2841 112.055 61.2841C113.264 61.2841 114.273 62.143 114.505 63.2842H117.605C117.836 62.143 118.845 61.2841 120.055 61.2841C121.264 61.2841 122.273 62.143 122.505 63.2842H125.055V59.7342C123.914 59.5025 123.055 58.4937 123.055 57.2842C123.055 56.0747 123.914 55.0658 125.055 54.8342V51.7342C123.914 51.5025 123.055 50.4937 123.055 49.2842C123.055 48.0747 123.914 47.0658 125.055 46.8342V43.7342C123.914 43.5025 123.055 42.4937 123.055 41.2842C123.055 40.0747 123.914 39.0658 125.055 38.8342V35.7342C123.914 35.5025 123.055 34.4937 123.055 33.2842C123.055 32.0747 123.914 31.0658 125.055 30.8342V27.7342C123.914 27.5025 123.055 26.4937 123.055 25.2842C123.055 24.0747 123.914 23.0658 125.055 22.8342V19.7342C123.914 19.5025 123.055 18.4937 123.055 17.2842C123.055 16.0747 123.914 15.0658 125.055 14.8342V11.7342C123.914 11.5025 123.055 10.4937 123.055 9.28418C123.055 8.07469 123.914 7.06581 125.055 6.83418V3.28418H122.505C122.273 4.42533 121.264 5.28424 120.055 5.28424C118.845 5.28424 117.836 4.42533 117.605 3.28418L114.505 3.28418C114.273 4.42533 113.264 5.28424 112.055 5.28424C110.845 5.28424 109.836 4.42533 109.605 3.28418H106.505C106.273 4.42533 105.264 5.28424 104.055 5.28424C102.845 5.28424 101.836 4.42533 101.605 3.28418L98.5047 3.28418C98.2731 4.42533 97.2642 5.28424 96.0547 5.28424C94.8452 5.28424 93.8363 4.42533 93.6047 3.28418H90.5047C90.2731 4.42533 89.2642 5.28424 88.0547 5.28424C86.8452 5.28424 85.8363 4.42533 85.6047 3.28418L82.5047 3.28418Z"
            fill="white"
        />
    </g>
    <g clip-path="url(#clip0_13493_80237)">
        <rect width="40" height="50" transform="translate(80.0547 8.28418)" fill="#E86500" />
        <rect
            width="40"
            height="50"
            transform="translate(80.0547 8.28418)"
            fill="url(#paint0_linear_13493_80237)"
            fill-opacity="0.2"
            style="mix-blend-mode: overlay"
        />
        <path
            fill-rule="evenodd"
            clip-rule="evenodd"
            d="M126.921 -4.06929C132.236 -6.36226 138.338 -3.33856 139.734 2.27918L144.372 20.9556H149.523C150.818 20.9556 151.867 22.0049 151.867 23.2994C151.867 24.5938 150.818 25.6431 149.523 25.6431H88.586C87.2916 25.6431 86.2422 24.5938 86.2422 23.2994C86.2422 22.0049 87.2916 20.9556 88.586 20.9556H93.7377L98.3759 2.27919C99.771 -3.33855 105.873 -6.36226 111.188 -4.06929L116.269 -1.87713C118.047 -1.11018 120.062 -1.11018 121.84 -1.87713L126.921 -4.06929ZM135.184 3.40897C134.487 0.600107 131.436 -0.911746 128.778 0.234743L123.697 2.4269C120.734 3.70514 117.375 3.70514 114.413 2.4269L109.331 0.234742C106.674 -0.911745 103.623 0.600111 102.925 3.40898L98.6142 20.7677H139.495L135.184 3.40897Z"
            fill="#FFCA8A"
        />
        <path
            fill-rule="evenodd"
            clip-rule="evenodd"
            d="M112.359 33.1436C110.252 30.032 106.689 27.9869 102.648 27.9869C96.1764 27.9869 90.9297 33.2335 90.9297 39.7056C90.9297 46.1777 96.1764 51.4244 102.648 51.4244C109.121 51.4244 114.367 46.1777 114.367 39.7056C114.367 37.1168 116.466 35.0181 119.055 35.0181C121.644 35.0181 123.742 37.1168 123.742 39.7056C123.742 46.1777 128.989 51.4244 135.461 51.4244C141.933 51.4244 147.18 46.1777 147.18 39.7056C147.18 33.2335 141.933 27.9869 135.461 27.9869C131.42 27.9869 127.857 30.032 125.75 33.1436C124.049 31.4077 121.678 30.3306 119.055 30.3306C116.432 30.3306 114.061 31.4077 112.359 33.1436ZM109.68 39.7056C109.68 43.5889 106.532 46.7369 102.648 46.7369C98.7652 46.7369 95.6172 43.5889 95.6172 39.7056C95.6172 35.8223 98.7652 32.6744 102.648 32.6744C106.532 32.6744 109.68 35.8223 109.68 39.7056ZM128.43 39.7056C128.43 43.5889 131.578 46.7369 135.461 46.7369C139.344 46.7369 142.492 43.5889 142.492 39.7056C142.492 35.8223 139.344 32.6744 135.461 32.6744C131.578 32.6744 128.43 35.8223 128.43 39.7056Z"
            fill="#FFCA8A"
        />
        <path
            d="M87.1674 55.678C85.7603 55.678 84.4643 55.2707 83.446 54.5301V52.6602C84.6124 53.4008 85.7047 53.734 86.9452 53.734C88.6855 53.734 89.926 52.8268 89.926 51.3272C89.926 49.9201 88.8707 49.0684 86.9637 49.0684C85.8529 49.0684 84.8161 49.3647 84.0385 49.6979L84.9457 42.1996H92.2033V44.2177H86.5564L86.1861 47.4207H86.2417C86.7045 47.2911 87.1859 47.2355 87.7598 47.2355C90.0926 47.2355 92.2218 48.6241 92.2218 51.1976C92.2218 53.8451 90.0741 55.678 87.1674 55.678Z"
            fill="white"
        />
        <path
            d="M96.5669 55.2249C94.4944 55.2249 93.0703 53.3177 93.0703 50.4949C93.0703 47.6722 94.4944 45.7649 96.5669 45.7649C98.6522 45.7649 100.064 47.6722 100.064 50.4949C100.064 53.3177 98.6522 55.2249 96.5669 55.2249ZM94.9013 50.4949C94.9013 52.5802 95.4861 53.7245 96.5669 53.7245C97.6477 53.7245 98.2453 52.5802 98.2453 50.4949C98.2453 48.4097 97.6477 47.2653 96.5669 47.2653C95.4861 47.2653 94.9013 48.4097 94.9013 50.4949Z"
            fill="white"
        />
    </g>
    <path
        d="M76.5385 64.6555L76.7814 64.9309L77.167 64.5908C77.3965 64.3884 77.5122 64.2483 77.5472 64.0597L77.5625 64.0462L78.086 64.6398L78.0707 64.6533C77.89 64.6767 77.7365 64.774 77.5131 64.971L76.2493 66.0855C76.029 66.2798 75.9102 66.4227 75.8675 66.5963L75.8522 66.6098L75.1829 65.8509C74.7404 65.3491 74.6691 64.7809 75.1005 64.4004C75.5289 64.0226 76.096 64.1536 76.5385 64.6555ZM76.5305 65.1521L76.3281 64.9226C76.0528 64.6105 75.7448 64.5449 75.4541 64.8013C75.1603 65.0604 75.1991 65.3634 75.4743 65.6756L75.6767 65.9051L76.5305 65.1521Z"
        fill="#F9F7FF"
    />
    <path
        d="M76.5863 62.9343C76.4042 62.9328 76.2456 63.0037 75.9803 63.1795L74.5896 64.1018C74.3448 64.2641 74.203 64.3826 74.1381 64.5578L74.1211 64.5691L73.5236 63.668C73.1583 63.1172 73.189 62.6024 73.5902 62.3363C73.8928 62.1356 74.2695 62.1942 74.5992 62.4994L75.1512 60.748L75.158 60.7435L75.5143 61.2807L74.9591 62.9315L75.1034 63.1491L75.6985 62.7545C75.9637 62.5786 76.093 62.4635 76.1602 62.2917L76.1772 62.2804L76.6033 62.9231L76.5863 62.9343ZM74.828 63.3317L74.6296 63.0325C74.4109 62.7027 74.1372 62.6149 73.889 62.7795C73.6306 62.9508 73.631 63.2247 73.8453 63.5477L74.0459 63.8503L74.828 63.3317Z"
        fill="#F9F7FF"
    />
    <path
        d="M74.5868 59.3104C74.952 60.1124 74.6294 60.9497 73.8088 61.3233C72.9882 61.697 72.1428 61.396 71.7759 60.5902C71.4091 59.7844 71.7371 58.9492 72.5577 58.5755C73.3783 58.2019 74.22 58.5046 74.5868 59.3104ZM73.5755 60.8109C74.2216 60.5167 74.5018 59.9901 74.2601 59.4591C74.0183 58.9281 73.4354 58.7901 72.7893 59.0842C72.1395 59.3801 71.8535 59.9138 72.0953 60.4448C72.337 60.9758 72.9257 61.1068 73.5755 60.8109Z"
        fill="#F9F7FF"
    />
    <path
        d="M73.7547 57.2913C73.576 57.2149 73.4034 57.2343 73.1012 57.3202L71.194 57.8628L71.2755 58.1493C71.3782 58.5103 71.5075 58.6814 71.6756 58.7354L71.6811 58.755L71.1396 58.9091L70.4563 56.5074L70.9979 56.3534L71.0046 56.3769C70.8912 56.5152 70.868 56.7169 70.9718 57.0819L71.0533 57.3684L72.9605 56.8258C73.2627 56.7398 73.4197 56.6655 73.5314 56.5064L73.551 56.5008L73.7743 57.2857L73.7547 57.2913Z"
        fill="#F9F7FF"
    />
    <path
        d="M73.1716 54.1059C73.2851 54.9798 72.7308 55.6854 71.8366 55.8015C70.9424 55.9176 70.2228 55.3816 70.1088 54.5036C69.9948 53.6256 70.5537 52.9235 71.4479 52.8074C72.342 52.6913 73.0576 53.2279 73.1716 54.1059ZM71.7641 55.2432C72.4681 55.1517 72.8907 54.7307 72.8156 54.1521C72.7405 53.5735 72.2238 53.2703 71.5198 53.3617C70.8118 53.4537 70.3816 53.8798 70.4567 54.4584C70.5319 55.037 71.0561 55.3351 71.7641 55.2432Z"
        fill="#F9F7FF"
    />
    <path
        d="M72.9441 52.5902C72.8048 52.4797 72.6098 52.449 72.304 52.4392L70.1671 52.3711L70.0007 52.472L69.9884 52.4716L70.0125 51.7172L72.3151 50.423L72.3158 50.4026L70.7132 50.3516C70.4114 50.342 70.219 50.3603 70.0729 50.4618L70.0525 50.4612L70.0733 49.8087L70.0936 49.8093C70.233 49.9199 70.4239 49.9505 70.7256 49.9601L73.046 50.034L73.0286 50.5805L70.5758 51.9719L70.5752 51.9923L72.3165 52.0477C72.6223 52.0575 72.8187 52.0433 72.9648 51.9418L72.9852 51.9425L72.9645 52.5909L72.9441 52.5902Z"
        fill="#F9F7FF"
    />
    <path
        d="M73.2447 49.3618C73.2189 49.5395 73.049 49.6591 72.8713 49.6334C72.6937 49.6076 72.5729 49.4458 72.5986 49.2681C72.6244 49.0904 72.7862 48.9696 72.9639 48.9954C73.1416 49.0212 73.2704 49.1842 73.2447 49.3618ZM71.4299 49.4242C71.2522 49.3984 71.1314 49.2366 71.1572 49.059C71.1829 48.8813 71.3448 48.7605 71.5224 48.7863C71.7001 48.812 71.829 48.975 71.8032 49.1527C71.7774 49.3304 71.6075 49.45 71.4299 49.4242Z"
        fill="#F9F7FF"
    />
    <path
        d="M72.7041 46.1991L72.5976 46.5505L73.0895 46.6996C73.3824 46.7884 73.5625 46.8131 73.7413 46.7437L73.7608 46.7496L73.5311 47.5071L73.5116 47.5012C73.3967 47.3598 73.2332 47.2804 72.9482 47.1939L71.3356 46.7051C71.0545 46.6198 70.8705 46.5939 70.7004 46.6489L70.6808 46.643L70.9744 45.6746C71.1686 45.0343 71.6143 44.6749 72.1649 44.8418C72.7115 45.0075 72.8982 45.5587 72.7041 46.1991ZM72.2774 46.4534L72.3662 46.1606C72.4869 45.7623 72.3807 45.4658 72.0098 45.3533C71.635 45.2397 71.3976 45.432 71.2768 45.8303L71.188 46.1231L72.2774 46.4534Z"
        fill="#F9F7FF"
    />
    <path
        d="M74.1982 45.323C74.104 45.167 73.9604 45.0692 73.6716 44.9356L72.1569 44.2353C71.8903 44.1121 71.7151 44.0535 71.5318 44.0902L71.5133 44.0816L71.967 43.1002C72.2444 42.5003 72.6988 42.2564 73.1358 42.4584C73.4654 42.6108 73.613 42.9623 73.5261 43.403L75.3068 42.9543L75.3143 42.9577L75.0437 43.5428L73.3471 43.9361L73.2375 44.1731L73.8856 44.4727C74.1745 44.6063 74.3403 44.656 74.5218 44.623L74.5403 44.6316L74.2167 45.3315L74.1982 45.323ZM72.9375 44.0344L73.0882 43.7085C73.2543 43.3493 73.1855 43.0703 72.9152 42.9453C72.6337 42.8151 72.4008 42.9592 72.2382 43.311L72.0858 43.6406L72.9375 44.0344Z"
        fill="#F9F7FF"
    />
    <path
        d="M75.4139 42.8664C75.338 42.7008 75.2065 42.5873 74.9417 42.426L73.5129 41.5561C73.248 41.3949 73.0868 41.3301 72.9048 41.3388L72.8874 41.3282L73.2905 40.666L73.3079 40.6766C73.3838 40.8423 73.5154 40.9558 73.7802 41.117L75.209 41.9869C75.4739 42.1482 75.6351 42.2129 75.8171 42.2043L75.8345 42.2149L75.4314 42.877L75.4139 42.8664Z"
        fill="#F9F7FF"
    />
    <path
        d="M76.9766 40.6251L76.6969 40.9865L74.3448 40.2392C74.0719 40.1518 73.8574 40.089 73.646 40.0956L73.6298 40.0831L74.1243 39.4443L74.1404 39.4568C74.212 39.6309 74.4105 39.7277 74.6956 39.8194L76.3708 40.3679L76.3833 40.3517L75.4475 38.8278C75.2819 38.5551 75.161 38.4048 74.9869 38.363L74.9708 38.3505L75.3754 37.8278L75.3915 37.8403C75.4321 38.0678 75.537 38.2521 75.6994 38.5223L76.9766 40.6251Z"
        fill="#F9F7FF"
    />
    <path
        d="M77.6276 39.7604C77.6351 39.5441 77.5412 39.3459 77.4287 39.0751L76.4766 36.7665L76.7918 36.4645L79.0584 37.4853C79.3556 37.6186 79.5412 37.712 79.7516 37.7251L79.7657 37.7399L79.1795 38.3016L79.1654 38.2869C79.1257 38.1158 78.9379 37.9906 78.678 37.8667L78.4979 37.785L77.6348 38.6121L77.7117 38.7926C77.8299 39.0693 77.9531 39.245 78.1255 39.2833L78.1396 39.2981L77.6417 39.7751L77.6276 39.7604ZM77.4919 38.2743L78.1636 37.6307L77.0235 37.1014L77.0058 37.1183L77.4919 38.2743Z"
        fill="#F9F7FF"
    />
    <path
        d="M81.0594 36.9399C80.3597 37.4344 79.444 37.3971 78.8812 36.6008C78.3114 35.7944 78.6138 34.8863 79.2902 34.4082C79.5601 34.2175 79.8447 34.1113 80.128 34.0809L80.4483 34.5341L80.4283 34.5482C80.1106 34.438 79.7836 34.4843 79.5237 34.6679C79.0139 35.0282 78.9044 35.6651 79.3071 36.2348C79.738 36.8446 80.3837 36.9029 80.9101 36.5308C81.17 36.3472 81.332 36.1028 81.446 35.7974L81.6618 35.9896C81.59 36.3901 81.3959 36.7021 81.0594 36.9399Z"
        fill="#F9F7FF"
    />
    <path
        d="M82.5763 35.2144L82.3393 34.7354L81.2403 34.0136C80.9728 33.841 80.7835 33.7252 80.5557 33.6512L80.5467 33.633L81.3073 33.2567L81.3146 33.2713C81.3558 33.4558 81.5194 33.5933 81.745 33.7457L82.4491 34.2213L82.4711 34.2104L82.5367 33.3677C82.5581 33.0522 82.5462 32.8532 82.4427 32.7178L82.4337 32.6995L83.059 32.3901L83.0681 32.4084C82.9721 32.6561 82.9365 32.8969 82.9132 33.2088L82.8019 34.5111L83.037 34.9865C83.1782 35.2717 83.2816 35.4072 83.4381 35.5028L83.4471 35.521L82.7523 35.8648L82.7433 35.8465C82.7696 35.6605 82.7174 35.4997 82.5763 35.2144Z"
        fill="#F9F7FF"
    />
    <path
        d="M85.5863 34.6278C85.6515 34.4552 85.6315 34.2792 85.5533 33.9749L85.1399 32.3666C85.0627 32.0663 84.9953 31.9025 84.855 31.7827L84.8499 31.7629L85.98 31.4724C86.6478 31.3007 87.0638 31.5098 87.1695 31.9207C87.2518 32.2408 87.0797 32.5546 86.7029 32.7442L86.708 32.7639C87.24 32.703 87.5758 32.9115 87.6642 33.2553C87.776 33.69 87.5 34.1569 86.8085 34.3347L85.5914 34.6475L85.5863 34.6278ZM86.1335 34.167L86.5681 34.0552C86.9949 33.9455 87.2259 33.7134 87.1355 33.3617C87.0451 33.0101 86.7378 32.929 86.2952 33.0427L85.8724 33.1514L86.1335 34.167ZM85.7901 32.8314L86.2011 32.7257C86.5607 32.6333 86.7573 32.4311 86.674 32.1071C86.5968 31.8068 86.3281 31.7284 85.9685 31.8208L85.5575 31.9265L85.7901 32.8314Z"
        fill="#F9F7FF"
    />
    <path
        d="M89.0627 33.261L89.0108 32.7291L88.2386 31.6649C88.0495 31.4087 87.9135 31.2334 87.7267 31.0836L87.7247 31.0633L88.5693 30.9808L88.5709 30.997C88.5441 31.1841 88.6484 31.3707 88.8055 31.5931L89.2955 32.2872L89.3199 32.2848L89.6797 31.52C89.8115 31.2324 89.8708 31.0421 89.822 30.8788L89.82 30.8585L90.5144 30.7907L90.5164 30.811C90.3389 31.0087 90.2203 31.2212 90.0881 31.5046L89.5228 32.6831L89.5744 33.211C89.6053 33.5277 89.6541 33.6911 89.7666 33.8358L89.7686 33.8561L88.9971 33.9315L88.9951 33.9112C89.0856 33.7466 89.0937 33.5777 89.0627 33.261Z"
        fill="#F9F7FF"
    />
    <path
        d="M92.486 31.4905C92.521 31.1865 92.5122 31.013 92.4281 30.8513L92.4304 30.8311L93.541 30.9587C94.526 31.0719 95.0907 31.7323 94.9882 32.6241C94.8862 33.5117 94.1859 34.0308 93.2009 33.9176L92.0903 33.79L92.0927 33.7697C92.2234 33.6328 92.2606 33.4523 92.2969 33.1361L92.486 31.4905ZM92.7685 33.5353L93.1292 33.5767C93.8264 33.6569 94.3402 33.3668 94.4329 32.5602C94.5256 31.7536 94.0905 31.3586 93.3934 31.2785L93.0326 31.2371L92.7685 33.5353Z"
        fill="#F9F7FF"
    />
    <path
        d="M97.2899 34.1727L97.131 34.7594L95.0241 34.189L95.0294 34.1693C95.1673 34.0503 95.2407 33.8884 95.3239 33.5812L95.7589 31.9744C95.8389 31.679 95.8572 31.5022 95.7971 31.3338L95.8024 31.3141L97.8503 31.8686L97.7074 32.3963L97.6877 32.3909C97.6119 32.2183 97.4654 32.1194 97.1031 32.0213L96.3351 31.8134L96.0835 32.7428L96.6742 32.9027C97.005 32.9923 97.1528 32.9774 97.2829 32.9027L97.3105 32.9102L97.1388 33.5442L97.1112 33.5367C97.0416 33.4038 96.9115 33.3221 96.5847 33.2336L95.9939 33.0736L95.7359 34.0267L96.5669 34.2516C96.8898 34.3391 97.0927 34.3391 97.2702 34.1673L97.2899 34.1727Z"
        fill="#F9F7FF"
    />
    <path
        d="M97.441 34.8744C97.5852 34.7928 97.6568 34.6944 97.7708 34.4192L98.4779 32.7116C98.5903 32.4402 98.6108 32.3162 98.5649 32.1603L98.5727 32.1415L100.409 32.9017L100.199 33.4069L100.177 33.3975C100.142 33.2243 99.9909 33.0997 99.6441 32.9561L99.0372 32.7048L98.6532 33.6321L99.1583 33.8413C99.4712 33.9708 99.6429 33.9934 99.7658 33.9206L99.7846 33.9284L99.5333 34.5353L99.5144 34.5275C99.4774 34.393 99.34 34.2875 99.0272 34.1579L98.522 33.9487L98.2457 34.6159C98.1318 34.8911 98.1091 35.0098 98.176 35.1788L98.1682 35.1977L97.4332 34.8933L97.441 34.8744Z"
        fill="#F9F7FF"
    />
    <path
        d="M99.1647 35.5661C99.3747 35.514 99.5397 35.3695 99.7692 35.1871L101.729 33.639L102.106 33.8594L101.745 36.3189C101.698 36.6413 101.659 36.8454 101.704 37.0513L101.694 37.0689L100.993 36.659L101.003 36.6414C101.157 36.5564 101.226 36.3415 101.274 36.0575L101.303 35.862L100.271 35.2584L100.119 35.3819C99.8848 35.5713 99.7495 35.738 99.7599 35.9142L99.7496 35.9318L99.1544 35.5837L99.1647 35.5661ZM100.557 35.0285L101.36 35.4982L101.557 34.2567L101.535 34.2443L100.557 35.0285Z"
        fill="#F9F7FF"
    />
    <path
        d="M102.779 38.0585C102.18 37.5662 102.131 36.913 102.649 36.2827L103.343 35.438C103.54 35.1985 103.627 35.048 103.644 34.8666L103.657 34.8509L104.256 35.3432L104.243 35.3589C104.068 35.4108 103.934 35.5224 103.737 35.7619L103.038 36.6129C102.708 37.0131 102.69 37.4468 103.084 37.7707C103.459 38.0791 103.881 38.0089 104.226 37.5897L104.923 36.7419C105.122 36.4993 105.211 36.3399 105.226 36.1674L105.239 36.1516L105.743 36.5662L105.73 36.582C105.564 36.6301 105.419 36.7486 105.222 36.9881L104.533 37.8264C104.02 38.4504 103.374 38.5482 102.779 38.0585Z"
        fill="#F9F7FF"
    />
    <path
        d="M104.08 39.1179C104.237 39.0965 104.406 38.9977 104.63 38.7946L105.868 37.6696C106.082 37.4747 106.207 37.3392 106.254 37.1421L106.269 37.1284L106.79 37.7021L106.775 37.7158C106.572 37.7407 106.428 37.8552 106.213 38.05L104.752 39.3781L105.227 39.9005C105.457 40.1541 105.637 40.2667 105.901 40.1868L105.917 40.2049L105.437 40.6413L104.065 39.1316L104.08 39.1179Z"
        fill="#F9F7FF"
    />
    <path
        d="M105.969 41.3692C106.163 41.3829 106.32 41.308 106.577 41.1279L108.201 39.9906L108.031 39.7466C107.815 39.4391 107.637 39.3198 107.461 39.3238L107.449 39.3071L107.91 38.9842L109.342 41.0297L108.881 41.3526L108.867 41.3326C108.929 41.1648 108.885 40.9666 108.667 40.6557L108.496 40.4117L106.872 41.549C106.615 41.7292 106.491 41.8508 106.437 42.0377L106.42 42.0494L105.952 41.3809L105.969 41.3692Z"
        fill="#F9F7FF"
    />
    <path
        d="M109.055 43.3468C111.012 47.4024 111.536 52.0022 110.539 56.3939C109.543 60.7856 107.086 64.7092 103.569 67.5229C100.053 70.3366 95.6864 71.8737 91.1831 71.883C86.6798 71.8923 82.3066 70.373 78.7789 67.5739"
        stroke="url(#paint1_linear_13493_80237)"
        stroke-width="0.51"
    />
    <path
        d="M76.4035 70.5702C73.9639 68.6344 71.9295 66.237 70.4164 63.515C68.9033 60.793 67.9412 57.7996 67.585 54.7057C67.2287 51.6119 67.4854 48.4782 68.3402 45.4835C69.1951 42.4888 70.6314 39.6918 72.5672 37.2522C74.503 34.8127 76.9003 32.7782 79.6223 31.2652C82.3444 29.7521 85.3377 28.7899 88.4316 28.4337C91.5255 28.0775 94.6592 28.3341 97.6539 29.1889C100.649 30.0438 103.446 31.4801 105.885 33.4159C108.325 35.3517 110.359 37.749 111.872 40.4711C113.385 43.1931 114.347 46.1865 114.704 49.2803C115.06 52.3742 114.803 55.5079 113.948 58.5026C113.094 61.4973 111.657 64.2943 109.721 66.7338C107.786 69.1734 105.388 71.2078 102.666 72.7209C99.9443 74.234 96.9509 75.1961 93.857 75.5524C90.7631 75.9086 87.6294 75.652 84.6347 74.7971C81.6401 73.9423 78.8431 72.506 76.4035 70.5702L76.4035 70.5702Z"
        stroke="url(#paint2_linear_13493_80237)"
        stroke-width="0.51"
    />
    <path
        opacity="0.4"
        d="M76.27 65.6266L67.3423 63.3036C58.319 60.9558 48.7181 63.1942 41.6635 69.2906V69.2906C34.8583 75.1715 25.6664 77.4747 16.8922 75.4977L5.46928 72.924"
        stroke="url(#paint3_linear_13493_80237)"
        stroke-width="0.5"
    />
    <path
        opacity="0.4"
        d="M74.9789 58.2386L66.0511 55.9156C57.0278 53.5678 47.427 55.8062 40.3724 61.9025V61.9025C33.5672 67.7834 24.3753 70.0867 15.6011 68.1097L4.17815 65.5359"
        stroke="url(#paint4_linear_13493_80237)"
        stroke-width="0.5"
    />
    <path
        opacity="0.4"
        d="M73.6878 50.8505L64.76 48.5275C55.7367 46.1797 46.1358 48.4181 39.0813 54.5145V54.5145C32.276 60.3953 23.0842 62.6986 14.3099 60.7216L2.88703 58.1478"
        stroke="url(#paint5_linear_13493_80237)"
        stroke-width="0.5"
    />
    <path
        opacity="0.4"
        d="M72.3967 43.4624L63.4689 41.1395C54.4456 38.7916 44.8447 41.0301 37.7902 47.1264V47.1264C30.9849 53.0073 21.7931 55.3106 13.0188 53.3336L1.5959 50.7598"
        stroke="url(#paint6_linear_13493_80237)"
        stroke-width="0.5"
    />
    <path
        opacity="0.4"
        d="M71.1055 36.0745L62.1778 33.7515C53.1545 31.4037 43.5536 33.6421 36.499 39.7385V39.7385C29.6938 45.6193 20.5019 47.9226 11.7277 45.9456L0.30477 43.3718"
        stroke="url(#paint7_linear_13493_80237)"
        stroke-width="0.5"
    />
    <defs>
        <filter
            id="filter0_d_13493_80237"
            x="73.0547"
            y="1.28418"
            width="54"
            height="64"
            filterUnits="userSpaceOnUse"
            color-interpolation-filters="sRGB"
        >
            <feFlood flood-opacity="0" result="BackgroundImageFix" />
            <feColorMatrix
                in="SourceAlpha"
                type="matrix"
                values="0 0 0 0 0 0 0 0 0 0 0 0 0 0 0 0 0 0 127 0"
                result="hardAlpha"
            />
            <feOffset />
            <feGaussianBlur stdDeviation="1" />
            <feComposite in2="hardAlpha" operator="out" />
            <feColorMatrix type="matrix" values="0 0 0 0 0 0 0 0 0 0 0 0 0 0 0 0 0 0 0.25 0" />
            <feBlend mode="normal" in2="BackgroundImageFix" result="effect1_dropShadow_13493_80237" />
            <feBlend mode="normal" in="SourceGraphic" in2="effect1_dropShadow_13493_80237" result="shape" />
        </filter>
        <linearGradient id="paint0_linear_13493_80237" x1="20" y1="0" x2="20" y2="50" gradientUnits="userSpaceOnUse">
            <stop stop-color="white" stop-opacity="0" />
            <stop offset="1" stop-color="white" />
        </linearGradient>
        <linearGradient
            id="paint1_linear_13493_80237"
            x1="76.8975"
            y1="37.7484"
            x2="105.387"
            y2="66.2377"
            gradientUnits="userSpaceOnUse"
        >
            <stop stop-color="#F9F7FF" />
            <stop offset="1" stop-color="#F9F7FF" stop-opacity="0.2" />
        </linearGradient>
        <linearGradient
            id="paint2_linear_13493_80237"
            x1="74.195"
            y1="35.0437"
            x2="108.094"
            y2="68.9424"
            gradientUnits="userSpaceOnUse"
        >
            <stop stop-color="#F9F7FF" />
            <stop offset="1" stop-color="#F9F7FF" stop-opacity="0.2" />
        </linearGradient>
        <linearGradient
            id="paint3_linear_13493_80237"
            x1="74.6645"
            y1="70.8022"
            x2="18.1645"
            y2="69.0522"
            gradientUnits="userSpaceOnUse"
        >
            <stop stop-color="#F9F7FF" />
            <stop offset="1" stop-color="#F9F7FF" stop-opacity="0" />
        </linearGradient>
        <linearGradient
            id="paint4_linear_13493_80237"
            x1="73.3734"
            y1="63.4142"
            x2="16.8734"
            y2="61.6642"
            gradientUnits="userSpaceOnUse"
        >
            <stop stop-color="#F9F7FF" />
            <stop offset="1" stop-color="#F9F7FF" stop-opacity="0" />
        </linearGradient>
        <linearGradient
            id="paint5_linear_13493_80237"
            x1="72.0823"
            y1="56.0261"
            x2="15.5823"
            y2="54.2761"
            gradientUnits="userSpaceOnUse"
        >
            <stop stop-color="#F9F7FF" />
            <stop offset="1" stop-color="#F9F7FF" stop-opacity="0" />
        </linearGradient>
        <linearGradient
            id="paint6_linear_13493_80237"
            x1="70.7911"
            y1="48.6381"
            x2="14.2911"
            y2="46.8881"
            gradientUnits="userSpaceOnUse"
        >
            <stop stop-color="#F9F7FF" />
            <stop offset="1" stop-color="#F9F7FF" stop-opacity="0" />
        </linearGradient>
        <linearGradient
            id="paint7_linear_13493_80237"
            x1="69.5"
            y1="41.2501"
            x2="13"
            y2="39.5001"
            gradientUnits="userSpaceOnUse"
        >
            <stop stop-color="#F9F7FF" />
            <stop offset="1" stop-color="#F9F7FF" stop-opacity="0" />
        </linearGradient>
        <clipPath id="clip0_13493_80237">
            <rect width="40" height="50" fill="white" transform="translate(80.0547 8.28418)" />
        </clipPath>
    </defs>
</svg>
