<svg width="358" height="178" viewBox="0 0 358 178" fill="none" xmlns="http://www.w3.org/2000/svg">
    <g clip-path="url(#clip0_14004_1767)">
        <rect width="358" height="178" fill="#D9D9D9" />
        <rect width="358" height="178" fill="url(#paint0_radial_14004_1767)" />
        <rect width="358" height="178" fill="#191927" fill-opacity="0.48" />
        <g filter="url(#filter0_d_14004_1767)">
            <rect
                width="621.166"
                height="312.409"
                transform="translate(-319.408 96.8613) rotate(-9.91288)"
                fill="#EDC065"
            />
            <g filter="url(#filter1_d_14004_1767)">
                <path
                    fill-rule="evenodd"
                    clip-rule="evenodd"
                    d="M179.676 37.6974C179.82 40.0218 178.315 42.2033 175.979 42.8294C173.642 43.4555 171.248 42.3185 170.21 40.2339L165.284 41.5538L167.122 48.4118C169.446 48.2686 171.627 49.773 172.254 52.1095C172.88 54.4461 171.743 56.8397 169.658 57.8778L171.263 63.8666C173.587 63.7234 175.769 65.2278 176.395 67.5644C177.021 69.9009 175.884 72.2945 173.799 73.3326L175.404 79.3214C177.728 79.1782 179.91 80.6826 180.536 83.0192C181.162 85.3557 180.025 87.7493 177.94 88.7875L179.545 94.7762C181.869 94.633 184.051 96.1374 184.677 98.474C185.303 100.811 184.166 103.204 182.081 104.242L183.686 110.231C186.01 110.088 188.192 111.592 188.818 113.929C189.444 116.265 188.307 118.659 186.222 119.697L187.827 125.686C190.151 125.543 192.333 127.047 192.959 129.384C193.585 131.72 192.448 134.114 190.364 135.152L191.968 141.141C194.293 140.997 196.474 142.502 197.1 144.838C197.726 147.175 196.589 149.569 194.505 150.607L196.342 157.465L201.269 156.145C201.125 153.821 202.63 151.639 204.966 151.013C207.303 150.387 209.696 151.524 210.735 153.609L216.723 152.004C216.58 149.679 218.085 147.498 220.421 146.872C222.758 146.246 225.151 147.383 226.189 149.467L232.178 147.863C232.035 145.538 233.539 143.357 235.876 142.731C238.212 142.105 240.606 143.242 241.644 145.326L247.633 143.722C247.49 141.397 248.994 139.216 251.331 138.59C253.667 137.964 256.061 139.101 257.099 141.185L263.088 139.581C262.945 137.256 264.449 135.075 266.786 134.448C269.122 133.822 271.516 134.959 272.554 137.044L278.543 135.439C278.399 133.115 279.904 130.933 282.24 130.307C284.577 129.681 286.971 130.818 288.009 132.903L292.935 131.583L291.097 124.725C288.773 124.868 286.591 123.364 285.965 121.027C285.339 118.691 286.476 116.297 288.561 115.259L286.956 109.27C284.632 109.413 282.45 107.909 281.824 105.572C281.198 103.236 282.335 100.842 284.42 99.8041L282.815 93.8153C280.491 93.9585 278.309 92.4541 277.683 90.1176C277.057 87.781 278.194 85.3874 280.279 84.3492L278.674 78.3605C276.35 78.5037 274.168 76.9993 273.542 74.6628C272.916 72.3262 274.053 69.9326 276.138 68.8944L274.533 62.9057C272.208 63.0489 270.027 61.5445 269.401 59.2079C268.775 56.8714 269.912 54.4778 271.996 53.4396L270.392 47.4509C268.067 47.5941 265.886 46.0897 265.26 43.7531C264.634 41.4166 265.771 39.023 267.855 37.9848L266.251 31.9961C263.926 32.1393 261.745 30.6349 261.119 28.2983C260.493 25.9618 261.63 23.5682 263.714 22.53L261.877 15.6719L256.95 16.9919C257.094 19.3163 255.589 21.4978 253.253 22.1239C250.916 22.7499 248.522 21.6129 247.484 19.5283L241.496 21.133C241.639 23.4574 240.134 25.6389 237.798 26.265C235.461 26.8911 233.068 25.754 232.029 23.6694L226.041 25.2741C226.184 27.5985 224.68 29.78 222.343 30.4061C220.006 31.0322 217.613 29.8951 216.575 27.8105L210.586 29.4152C210.729 31.7396 209.225 33.9211 206.888 34.5472C204.552 35.1733 202.158 34.0362 201.12 31.9516L195.131 33.5563C195.274 35.8807 193.77 38.0622 191.433 38.6883C189.097 39.3144 186.703 38.1774 185.665 36.0927L179.676 37.6974Z"
                    fill="white"
                />
            </g>
            <g clip-path="url(#clip1_14004_1767)">
                <rect width="80" height="100" transform="translate(177.531 48.6249) rotate(-15)" fill="#E86500" />
                <rect
                    width="80"
                    height="100"
                    transform="translate(177.531 48.6249) rotate(-15)"
                    fill="url(#paint1_linear_14004_1767)"
                    fill-opacity="0.2"
                    style="mix-blend-mode: overlay"
                />
                <path
                    fill-rule="evenodd"
                    clip-rule="evenodd"
                    d="M261.676 0.499909C270.756 -6.68095 284.111 -3.99844 289.714 6.13202L308.342 39.8112L318.294 37.1445C320.795 36.4744 323.365 37.9584 324.035 40.459C324.705 42.9597 323.221 45.53 320.72 46.2L202.998 77.7436C200.498 78.4136 197.927 76.9297 197.257 74.429C196.587 71.9284 198.071 69.3581 200.572 68.688L210.524 66.0213L209.817 27.5404C209.604 15.9656 219.828 6.96536 231.282 8.64388L242.233 10.2486C246.064 10.81 249.957 9.76685 252.995 7.36503L261.676 0.499909ZM281.51 10.6695C278.708 5.60429 272.031 4.26303 267.491 7.85346L258.81 14.7186C253.748 18.7216 247.259 20.4603 240.874 19.5245L229.923 17.9198C224.196 17.0806 219.084 21.5807 219.19 27.3681L219.848 63.1341L298.824 41.9726L281.51 10.6695Z"
                    fill="#FFCA8A"
                />
                <path
                    fill-rule="evenodd"
                    clip-rule="evenodd"
                    d="M252.807 79.9276C247.126 75.0069 239.184 72.9004 231.378 74.9921C218.875 78.3423 211.455 91.1939 214.805 103.697C218.155 116.2 231.007 123.62 243.51 120.27C256.013 116.92 263.433 104.068 260.083 91.5649C258.743 86.5637 261.711 81.423 266.712 80.0829C271.713 78.7428 276.854 81.7108 278.194 86.7121C281.544 99.2152 294.396 106.635 306.899 103.285C319.402 99.9347 326.822 87.083 323.472 74.5799C320.122 62.0768 307.27 54.6569 294.767 58.0071C286.961 60.0987 281.136 65.894 278.677 72.9958C274.491 70.523 269.353 69.6697 264.286 71.0274C259.219 72.385 255.195 75.6932 252.807 79.9276ZM251.027 93.9913C253.038 101.493 248.586 109.204 241.084 111.214C233.582 113.224 225.871 108.772 223.861 101.271C221.851 93.7688 226.303 86.0578 233.804 84.0477C241.306 82.0375 249.017 86.4895 251.027 93.9913ZM287.25 84.2856C289.26 91.7875 296.971 96.2394 304.473 94.2293C311.974 92.2192 316.426 84.5082 314.416 77.0063C312.406 69.5045 304.695 65.0525 297.193 67.0627C289.691 69.0728 285.24 76.7838 287.25 84.2856Z"
                    fill="#FFCA8A"
                />
                <path
                    d="M215.546 135.535C212.828 136.263 210.113 136.147 207.763 135.244L206.795 131.631C209.431 132.458 211.714 132.537 214.111 131.894C217.473 130.994 219.399 128.599 218.623 125.702C217.895 122.984 215.415 121.885 211.731 122.872C209.585 123.447 207.736 124.556 206.406 125.602L204.277 110.647L218.298 106.89L219.342 110.789L208.433 113.712L209.376 120.091L209.483 120.062C210.31 119.572 211.212 119.216 212.32 118.919C216.827 117.711 221.659 119.291 222.991 124.263C224.362 129.378 221.161 134.03 215.546 135.535Z"
                    fill="white"
                />
                <path
                    d="M233.729 130.76C229.725 131.833 225.987 128.886 224.525 123.432C223.064 117.979 224.828 113.558 228.832 112.485C232.86 111.405 236.574 114.359 238.035 119.812C239.497 125.266 237.757 129.681 233.729 130.76ZM228.063 122.485C229.142 126.513 230.864 128.421 232.952 127.862C235.04 127.302 235.602 124.782 234.523 120.754C233.443 116.725 231.697 114.824 229.609 115.383C227.521 115.943 226.983 118.456 228.063 122.485Z"
                    fill="white"
                />
            </g>
            <path
                d="M181.327 149.972L181.813 150.523L182.584 149.843C183.043 149.438 183.274 149.158 183.344 148.781L183.375 148.754L184.422 149.941L184.391 149.968C184.03 150.015 183.723 150.209 183.276 150.603L180.749 152.832C180.308 153.221 180.07 153.507 179.985 153.854L179.954 153.881L178.616 152.363C177.731 151.359 177.588 150.223 178.451 149.462C179.308 148.706 180.442 148.968 181.327 149.972ZM181.311 150.965L180.906 150.506C180.356 149.882 179.739 149.751 179.158 150.264C178.571 150.782 178.648 151.388 179.199 152.012L179.603 152.471L181.311 150.965Z"
                fill="#5B3BE1"
            />
            <path
                d="M181.339 146.421C180.975 146.418 180.658 146.56 180.127 146.912L177.346 148.756C176.856 149.081 176.573 149.318 176.443 149.668L176.409 149.691L175.214 147.889C174.483 146.787 174.545 145.757 175.347 145.225C175.952 144.824 176.706 144.941 177.365 145.551L178.469 142.048L178.483 142.039L179.195 143.114L178.085 146.415L178.373 146.851L179.564 146.062C180.094 145.71 180.353 145.48 180.487 145.136L180.521 145.113L181.373 146.399L181.339 146.421ZM177.823 147.216L177.426 146.618C176.988 145.958 176.441 145.782 175.945 146.111C175.428 146.454 175.429 147.002 175.857 147.648L176.258 148.253L177.823 147.216Z"
                fill="#5B3BE1"
            />
            <path
                d="M177.264 139.035C177.994 140.639 177.349 142.313 175.707 143.061C174.066 143.808 172.375 143.206 171.642 141.594C170.908 139.983 171.564 138.312 173.205 137.565C174.847 136.818 176.53 137.423 177.264 139.035ZM175.241 142.036C176.533 141.448 177.094 140.394 176.61 139.332C176.127 138.27 174.961 137.994 173.669 138.583C172.369 139.174 171.797 140.242 172.28 141.304C172.764 142.366 173.941 142.628 175.241 142.036Z"
                fill="#5B3BE1"
            />
            <path
                d="M175.548 134.856C175.19 134.703 174.845 134.742 174.241 134.914L170.426 135.999L170.589 136.572C170.795 137.294 171.053 137.636 171.389 137.744L171.4 137.783L170.317 138.091L168.951 133.288L170.034 132.98L170.047 133.027C169.821 133.304 169.774 133.707 169.982 134.437L170.145 135.01L173.959 133.925C174.564 133.753 174.878 133.604 175.101 133.286L175.14 133.275L175.587 134.845L175.548 134.856Z"
                fill="#5B3BE1"
            />
            <path
                d="M174.352 128.34C174.578 130.088 173.47 131.499 171.681 131.731C169.893 131.964 168.454 130.892 168.226 129.136C167.998 127.38 169.116 125.975 170.904 125.743C172.692 125.511 174.124 126.584 174.352 128.34ZM171.537 130.615C172.945 130.432 173.79 129.59 173.639 128.433C173.489 127.275 172.456 126.669 171.048 126.852C169.632 127.036 168.772 127.888 168.922 129.045C169.072 130.202 170.12 130.799 171.537 130.615Z"
                fill="#5B3BE1"
            />
            <path
                d="M173.889 125.148C173.61 124.927 173.22 124.866 172.608 124.846L168.335 124.71L168.002 124.912L167.977 124.911L168.025 123.402L172.631 120.814L172.632 120.773L169.427 120.671C168.823 120.652 168.438 120.689 168.146 120.892L168.105 120.89L168.147 119.585L168.188 119.587C168.466 119.808 168.848 119.869 169.452 119.888L174.092 120.036L174.058 121.129L169.152 123.912L169.151 123.952L172.633 124.063C173.245 124.083 173.638 124.055 173.93 123.852L173.971 123.853L173.93 125.15L173.889 125.148Z"
                fill="#5B3BE1"
            />
            <path
                d="M174.5 118.58C174.448 118.935 174.108 119.174 173.753 119.123C173.398 119.071 173.156 118.748 173.208 118.392C173.259 118.037 173.583 117.795 173.938 117.847C174.293 117.899 174.551 118.225 174.5 118.58ZM170.87 118.705C170.515 118.653 170.273 118.329 170.325 117.974C170.376 117.619 170.7 117.377 171.055 117.429C171.41 117.48 171.668 117.806 171.617 118.162C171.565 118.517 171.225 118.756 170.87 118.705Z"
                fill="#5B3BE1"
            />
            <path
                d="M173.451 112.108L173.238 112.811L174.222 113.109C174.808 113.286 175.168 113.336 175.526 113.197L175.565 113.209L175.105 114.724L175.066 114.712C174.836 114.429 174.509 114.27 173.939 114.098L170.714 113.12C170.152 112.949 169.784 112.897 169.444 113.007L169.405 112.996L169.992 111.059C170.38 109.778 171.272 109.059 172.373 109.393C173.466 109.725 173.84 110.827 173.451 112.108ZM172.598 112.616L172.775 112.031C173.017 111.234 172.804 110.641 172.063 110.416C171.313 110.189 170.838 110.574 170.597 111.37L170.419 111.956L172.598 112.616Z"
                fill="#5B3BE1"
            />
            <path
                d="M176.489 110.226C176.3 109.914 176.013 109.718 175.435 109.451L172.406 108.051C171.873 107.804 171.522 107.687 171.156 107.76L171.119 107.743L172.026 105.781C172.581 104.581 173.49 104.093 174.364 104.497C175.023 104.802 175.318 105.505 175.145 106.386L178.706 105.489L178.721 105.495L178.18 106.666L174.786 107.452L174.567 107.926L175.863 108.526C176.441 108.793 176.773 108.892 177.136 108.826L177.173 108.843L176.526 110.243L176.489 110.226ZM173.967 107.649L174.269 106.997C174.601 106.279 174.463 105.721 173.923 105.471C173.36 105.21 172.894 105.498 172.569 106.202L172.264 106.861L173.967 107.649Z"
                fill="#5B3BE1"
            />
            <path
                d="M178.974 105.213C178.822 104.881 178.559 104.654 178.029 104.332L175.172 102.592C174.642 102.27 174.319 102.14 173.955 102.157L173.921 102.136L174.727 100.812L174.762 100.833C174.914 101.164 175.177 101.391 175.706 101.714L178.564 103.454C179.094 103.776 179.416 103.906 179.78 103.888L179.815 103.91L179.009 105.234L178.974 105.213Z"
                fill="#5B3BE1"
            />
            <path
                d="M182.162 100.638L181.603 101.361L176.899 99.866C176.353 99.6913 175.924 99.5656 175.501 99.5788L175.469 99.5538L176.458 98.2761L176.49 98.3011C176.633 98.6493 177.03 98.843 177.6 99.0263L180.951 100.123L180.976 100.091L179.104 97.0431C178.773 96.4978 178.531 96.1971 178.183 96.1135L178.151 96.0885L178.96 95.0431L178.992 95.0681C179.073 95.5231 179.283 95.8919 179.608 96.4322L182.162 100.638Z"
                fill="#5B3BE1"
            />
            <path
                d="M183.563 98.7985C183.578 98.366 183.391 97.9696 183.166 97.428L181.261 92.8108L181.892 92.2067L186.425 94.2483C187.019 94.5149 187.391 94.7017 187.811 94.728L187.84 94.7575L186.667 95.881L186.639 95.8515C186.56 95.5093 186.184 95.2589 185.664 95.0112L185.304 94.8477L183.578 96.5019L183.732 96.863C183.968 97.4163 184.214 97.7678 184.559 97.8444L184.587 97.8739L183.592 98.828L183.563 98.7985ZM183.292 95.8263L184.635 94.5391L182.355 93.4805L182.32 93.5144L183.292 95.8263Z"
                fill="#5B3BE1"
            />
            <path
                d="M190.542 93.0631C189.142 94.0521 187.311 93.9774 186.185 92.3847C185.046 90.7721 185.65 88.9557 187.003 87.9997C187.543 87.6183 188.112 87.4058 188.679 87.3451L189.319 88.2514L189.279 88.2796C188.644 88.0592 187.99 88.1517 187.47 88.5191C186.451 89.2396 186.232 90.5134 187.037 91.6529C187.899 92.8724 189.19 92.989 190.243 92.2449C190.763 91.8775 191.087 91.3888 191.315 90.7781L191.746 91.1625C191.603 91.9634 191.215 92.5875 190.542 93.0631Z"
                fill="#5B3BE1"
            />
            <path
                d="M193.709 89.5322L193.235 88.5741L191.037 87.1305C190.502 86.7852 190.124 86.5537 189.668 86.4058L189.65 86.3692L191.171 85.6167L191.186 85.6459C191.268 86.0148 191.595 86.2899 192.047 86.5947L193.455 87.5459L193.499 87.5242L193.63 85.8388C193.673 85.2076 193.649 84.8098 193.442 84.5388L193.424 84.5023L194.675 83.8836L194.693 83.9201C194.501 84.4156 194.429 84.897 194.383 85.5208L194.16 88.1255L194.631 89.0763C194.913 89.6468 195.12 89.9177 195.433 90.1088L195.451 90.1454L194.061 90.8329L194.043 90.7963C194.096 90.4243 193.991 90.1027 193.709 89.5322Z"
                fill="#5B3BE1"
            />
            <path
                d="M199.924 88.2868C200.054 87.9416 200.014 87.5896 199.858 86.981L199.031 83.7645C198.876 83.1639 198.742 82.8362 198.461 82.5966L198.451 82.5571L200.711 81.9761C202.047 81.6327 202.879 82.0508 203.09 82.8727C203.255 83.5128 202.91 84.1405 202.157 84.5196L202.167 84.5591C203.231 84.4372 203.903 84.8543 204.079 85.5419C204.303 86.4112 203.751 87.3451 202.368 87.7006L199.934 88.3263L199.924 88.2868ZM201.018 87.3652L201.887 87.1417C202.741 86.9223 203.203 86.4581 203.022 85.7547C202.841 85.0514 202.227 84.8892 201.341 85.1167L200.496 85.3341L201.018 87.3652ZM200.331 84.694L201.153 84.4827C201.872 84.2978 202.265 83.8934 202.099 83.2454C201.945 82.6448 201.407 82.488 200.688 82.6729L199.866 82.8842L200.331 84.694Z"
                fill="#5B3BE1"
            />
            <path
                d="M207.028 85.5267L206.924 84.4628L205.38 82.3344C205.002 81.822 204.73 81.4715 204.356 81.1718L204.352 81.1312L206.041 80.9661L206.045 80.9986C205.991 81.3728 206.2 81.746 206.514 82.1908L207.494 83.579L207.543 83.5743L208.262 82.0445C208.526 81.4695 208.644 81.0889 208.547 80.7623L208.543 80.7217L209.932 80.586L209.935 80.6266C209.581 81.022 209.343 81.4469 209.079 82.0139L207.948 84.3709L208.051 85.4267C208.113 86.0601 208.211 86.3867 208.436 86.6763L208.44 86.7169L206.897 86.8677L206.893 86.8271C207.074 86.4978 207.09 86.1601 207.028 85.5267Z"
                fill="#5B3BE1"
            />
            <path
                d="M214.086 81.9873C214.156 81.3793 214.138 81.0323 213.97 80.7091L213.975 80.6686L216.196 80.9239C218.166 81.1503 219.296 82.4711 219.091 84.2545C218.887 86.0299 217.486 87.0681 215.516 86.8417L213.295 86.5864L213.299 86.5459C213.561 86.272 213.635 85.9109 213.708 85.2786L214.086 81.9873ZM214.651 86.077L215.373 86.1599C216.767 86.3202 217.795 85.7401 217.98 84.1269C218.165 82.5137 217.295 81.7237 215.901 81.5634L215.179 81.4805L214.651 86.077Z"
                fill="#5B3BE1"
            />
            <path
                d="M223.841 87.3798L223.523 88.5534L219.31 87.4125L219.32 87.3732C219.596 87.135 219.743 86.8113 219.909 86.1969L220.779 82.9833C220.939 82.3926 220.976 82.039 220.856 81.7021L220.866 81.6627L224.962 82.7716L224.676 83.8271L224.637 83.8164C224.485 83.471 224.192 83.2733 223.467 83.0771L221.932 82.6613L221.428 84.5201L222.61 84.84C223.271 85.0191 223.567 84.9892 223.827 84.8399L223.882 84.8548L223.539 86.1229L223.484 86.108C223.344 85.842 223.084 85.6786 222.431 85.5016L221.249 85.1818L220.733 87.0879L222.395 87.5378C223.041 87.7127 223.447 87.7126 223.802 87.3692L223.841 87.3798Z"
                fill="#5B3BE1"
            />
            <path
                d="M224.265 88.8247C224.553 88.6615 224.696 88.4647 224.924 87.9143L226.338 84.4991C226.563 83.9563 226.604 83.7083 226.512 83.3965L226.528 83.3588L230.2 84.8793L229.781 85.8896L229.736 85.8708C229.667 85.5245 229.364 85.2753 228.671 84.9881L227.457 84.4854L226.689 86.34L227.699 86.7584C228.325 87.0175 228.668 87.0626 228.914 86.9171L228.952 86.9327L228.449 88.1465L228.411 88.1309C228.337 87.8618 228.063 87.6508 227.437 87.3917L226.427 86.9733L225.874 88.3077C225.646 88.8581 225.601 89.0954 225.735 89.4335L225.719 89.4712L224.249 88.8624L224.265 88.8247Z"
                fill="#5B3BE1"
            />
            <path
                d="M227.834 90.2687C228.254 90.1647 228.584 89.8755 229.043 89.5107L232.962 86.4145L233.716 86.8554L232.994 91.7743C232.901 92.4191 232.823 92.8273 232.913 93.2391L232.892 93.2743L231.49 92.4545L231.511 92.4193C231.818 92.2493 231.956 91.8195 232.052 91.2516L232.111 90.8605L230.047 89.6534L229.742 89.9003C229.274 90.2792 229.004 90.6125 229.025 90.965L229.004 91.0002L227.814 90.3039L227.834 90.2687ZM230.618 89.1936L232.224 90.1329L232.618 87.65L232.576 87.6252L230.618 89.1936Z"
                fill="#5B3BE1"
            />
            <path
                d="M235.192 95.3443C233.995 94.3597 233.896 93.0533 234.933 91.7926L236.321 90.1034C236.715 89.6244 236.889 89.3233 236.923 88.9606L236.949 88.9291L238.147 89.9137L238.121 89.9452C237.771 90.0489 237.503 90.2721 237.109 90.7512L235.71 92.453C235.052 93.2535 235.015 94.121 235.803 94.7687C236.553 95.3854 237.397 95.2451 238.086 94.4068L239.48 92.7112C239.88 92.2259 240.057 91.9071 240.087 91.5621L240.113 91.5306L241.122 92.3597L241.096 92.3913C240.763 92.4875 240.473 92.7245 240.079 93.2035L238.701 94.8802C237.675 96.1282 236.384 96.3237 235.192 95.3443Z"
                fill="#5B3BE1"
            />
            <path
                d="M237.9 97.5629C238.214 97.5202 238.553 97.3226 239 96.9165L241.475 94.6663C241.904 94.2766 242.154 94.0055 242.248 93.6114L242.278 93.584L243.321 94.7313L243.291 94.7588C242.884 94.8087 242.596 95.0375 242.167 95.4272L239.244 98.0835L240.194 99.1282C240.655 99.6354 241.014 99.8605 241.541 99.7008L241.574 99.7371L240.614 100.61L237.87 97.5904L237.9 97.5629Z"
                fill="#5B3BE1"
            />
            <path
                d="M241.757 102.165C242.145 102.192 242.459 102.042 242.973 101.682L246.222 99.4074L245.88 98.9195C245.45 98.3045 245.094 98.0659 244.741 98.0739L244.717 98.0405L245.64 97.3947L248.504 101.486L247.581 102.131L247.553 102.091C247.677 101.756 247.589 101.359 247.153 100.738L246.812 100.25L243.563 102.524C243.048 102.885 242.8 103.128 242.693 103.502L242.66 103.525L241.724 102.188L241.757 102.165Z"
                fill="#5B3BE1"
            />
            <path
                d="M247.109 106.693C251.024 114.805 252.071 124.004 250.078 132.788C248.086 141.571 243.171 149.418 236.139 155.046C229.107 160.673 220.373 163.747 211.366 163.766C202.36 163.784 193.613 160.746 186.558 155.148"
                stroke="#5B3BE1"
                stroke-width="1.02"
            />
            <path
                d="M181.807 161.14C176.928 157.269 172.859 152.474 169.833 147.03C166.807 141.586 164.882 135.599 164.17 129.411C163.457 123.224 163.971 116.956 165.68 110.967C167.39 104.977 170.263 99.3835 174.134 94.5044C178.006 89.6252 182.801 85.5564 188.245 82.5302C193.689 79.504 199.675 77.5798 205.863 76.8673C212.051 76.1548 218.318 76.6681 224.308 78.3778C230.297 80.0875 235.891 82.9601 240.77 86.8317C245.649 90.7033 249.718 95.498 252.744 100.942C255.771 106.386 257.695 112.373 258.407 118.561C259.12 124.748 258.606 131.016 256.897 137.005C255.187 142.994 252.314 148.588 248.443 153.468C244.571 158.347 239.777 162.416 234.333 165.442C228.889 168.468 222.902 170.392 216.714 171.105C210.526 171.817 204.259 171.304 198.269 169.594C192.28 167.884 186.686 165.012 181.807 161.14L181.807 161.14Z"
                stroke="#5B3BE1"
                stroke-width="1.02"
            />
            <path
                opacity="0.4"
                d="M181.54 151.253L163.685 146.607C145.638 141.912 126.436 146.388 112.327 158.581V158.581C98.7166 170.343 80.3329 174.949 62.7844 170.995L39.9386 165.848"
                stroke="#5B3BE1"
            />
            <path
                opacity="0.4"
                d="M178.958 136.477L161.102 131.831C143.056 127.136 123.854 131.612 109.745 143.805V143.805C96.1344 155.567 77.7507 160.173 60.2022 156.219L37.3564 151.072"
                stroke="#5B3BE1"
            />
            <path
                opacity="0.4"
                d="M176.376 121.701L158.52 117.055C140.473 112.36 121.272 116.836 107.163 129.029V129.029C93.5521 140.791 75.1684 145.397 57.6199 141.443L34.7741 136.296"
                stroke="#5B3BE1"
            />
            <path
                opacity="0.4"
                d="M173.793 106.925L155.938 102.279C137.891 97.5834 118.689 102.06 104.58 114.253V114.253C90.9698 126.015 72.5861 130.621 55.0376 126.667L32.1918 121.52"
                stroke="#5B3BE1"
            />
            <path
                opacity="0.4"
                d="M171.211 92.149L153.356 87.5031C135.309 82.8074 116.107 87.2842 101.998 99.4769V99.4769C88.3876 111.239 70.0039 115.845 52.4554 111.891L29.6095 106.744"
                stroke="#5B3BE1"
            />
        </g>
    </g>
    <defs>
        <filter
            id="filter0_d_14004_1767"
            x="-343.408"
            y="-30.0728"
            width="713.674"
            height="462.679"
            filterUnits="userSpaceOnUse"
            color-interpolation-filters="sRGB"
        >
            <feFlood flood-opacity="0" result="BackgroundImageFix" />
            <feColorMatrix
                in="SourceAlpha"
                type="matrix"
                values="0 0 0 0 0 0 0 0 0 0 0 0 0 0 0 0 0 0 127 0"
                result="hardAlpha"
            />
            <feOffset dy="4" />
            <feGaussianBlur stdDeviation="12" />
            <feComposite in2="hardAlpha" operator="out" />
            <feColorMatrix type="matrix" values="0 0 0 0 0 0 0 0 0 0 0 0 0 0 0 0 0 0 0.25 0" />
            <feBlend mode="normal" in2="BackgroundImageFix" result="effect1_dropShadow_14004_1767" />
            <feBlend mode="normal" in="SourceGraphic" in2="effect1_dropShadow_14004_1767" result="shape" />
        </filter>
        <filter
            id="filter1_d_14004_1767"
            x="161.284"
            y="11.6719"
            width="135.651"
            height="149.793"
            filterUnits="userSpaceOnUse"
            color-interpolation-filters="sRGB"
        >
            <feFlood flood-opacity="0" result="BackgroundImageFix" />
            <feColorMatrix
                in="SourceAlpha"
                type="matrix"
                values="0 0 0 0 0 0 0 0 0 0 0 0 0 0 0 0 0 0 127 0"
                result="hardAlpha"
            />
            <feOffset />
            <feGaussianBlur stdDeviation="2" />
            <feComposite in2="hardAlpha" operator="out" />
            <feColorMatrix type="matrix" values="0 0 0 0 0 0 0 0 0 0 0 0 0 0 0 0 0 0 0.25 0" />
            <feBlend mode="normal" in2="BackgroundImageFix" result="effect1_dropShadow_14004_1767" />
            <feBlend mode="normal" in="SourceGraphic" in2="effect1_dropShadow_14004_1767" result="shape" />
        </filter>
        <radialGradient
            id="paint0_radial_14004_1767"
            cx="0"
            cy="0"
            r="1"
            gradientUnits="userSpaceOnUse"
            gradientTransform="translate(305.792 33.375) rotate(144.376) scale(155.983 157.677)"
        >
            <stop stop-color="#9251EB" />
            <stop offset="1" stop-color="#5B53ED" />
        </radialGradient>
        <linearGradient id="paint1_linear_14004_1767" x1="40" y1="0" x2="40" y2="100" gradientUnits="userSpaceOnUse">
            <stop stop-color="white" stop-opacity="0" />
            <stop offset="1" stop-color="white" />
        </linearGradient>
        <clipPath id="clip0_14004_1767">
            <rect width="358" height="178" fill="white" />
        </clipPath>
        <clipPath id="clip1_14004_1767">
            <rect width="80" height="100" fill="white" transform="translate(177.531 48.6249) rotate(-15)" />
        </clipPath>
    </defs>
</svg>
