<svg width="33" height="32" viewBox="0 0 33 32" fill="none" xmlns="http://www.w3.org/2000/svg">
    <g clip-path="url(#clip0_1773_22638)">
        <path
            d="M20.3513 19.8128C27.7214 12.0463 31.3783 3.55077 28.5191 0.837511C26.3697 -1.2022 21.1497 0.606525 15.5593 4.9298C18.7359 3.13442 21.4465 2.64552 22.8578 3.90178C25.517 6.26884 22.5567 13.9352 16.2458 21.0251C12.2903 25.4689 7.95728 28.6315 4.61914 29.7904C8.48855 29.5763 14.6919 25.7766 20.3513 19.8128Z"
            fill="url(#paint0_linear_1773_22638)"
        />
        <path
            d="M18.71 22.3202L22.0278 25.4511L19.5178 28.1085L22.8007 28.7775L23.6416 32L26.1514 29.3425L27.2828 30.4101L28.8625 28.7362L20.3488 20.7021C19.8063 21.2614 19.2592 21.8012 18.71 22.3202Z"
            fill="url(#paint1_linear_1773_22638)"
        />
        <path
            fill-rule="evenodd"
            clip-rule="evenodd"
            d="M5.84462 4.88037L9.66878 7.82078L14.0907 5.89287L12.4759 10.4385L15.676 14.0482L13.2274 13.9817L17.6738 18.1775C17.213 18.7733 16.7263 19.3705 16.2151 19.9657L10.4798 14.5535L8.40959 18.076L7.04411 13.4494L2.3335 12.41L6.31173 9.68163L5.84462 4.88037ZM9.46306 9.4963L11.5988 8.56515L10.8189 10.7606L12.3644 12.504L10.0354 12.4407L8.85489 14.4494L8.19539 12.2148L5.92025 11.7128L7.84166 10.3951L7.61605 8.07613L9.46306 9.4963Z"
            fill="url(#paint2_linear_1773_22638)"
        />
    </g>
    <defs>
        <linearGradient
            id="paint0_linear_1773_22638"
            x1="28.12"
            y1="0.571428"
            x2="4.69141"
            y2="30.2857"
            gradientUnits="userSpaceOnUse"
        >
            <stop stop-color="#F18C3E" />
            <stop offset="1" stop-color="#F8BF3F" />
        </linearGradient>
        <linearGradient
            id="paint1_linear_1773_22638"
            x1="19.8445"
            y1="22.6106"
            x2="28.0029"
            y2="31.7422"
            gradientUnits="userSpaceOnUse"
        >
            <stop stop-color="#F18940" />
            <stop offset="1" stop-color="#E2424D" />
        </linearGradient>
        <linearGradient
            id="paint2_linear_1773_22638"
            x1="4.04778"
            y1="7.42854"
            x2="14.7111"
            y2="20.935"
            gradientUnits="userSpaceOnUse"
        >
            <stop stop-color="#F08346" />
            <stop offset="1" stop-color="#E1384C" />
        </linearGradient>
        <clipPath id="clip0_1773_22638">
            <rect width="32" height="32" fill="white" transform="translate(0.333496)" />
        </clipPath>
    </defs>
</svg>
