<svg width="32" height="32" viewBox="0 0 32 32" fill="none" xmlns="http://www.w3.org/2000/svg">
    <path
        d="M19.7677 10.205H20.6217L23.0556 7.77116L23.1751 6.73783C21.7808 5.50719 20.0959 4.65231 18.2793 4.25394C16.4628 3.85557 14.5747 3.92686 12.7934 4.46109C11.012 4.99531 9.39632 5.97483 8.09881 7.30711C6.80131 8.6394 5.86486 10.2805 5.37793 12.0753C5.64907 11.9641 5.94943 11.9461 6.23192 12.024L11.0997 11.2213C11.0997 11.2213 11.3473 10.8114 11.4754 10.837C12.5184 9.69151 13.9598 8.98801 15.5046 8.87053C17.0493 8.75305 18.5805 9.23046 19.7848 10.205H19.7677Z"
        fill="#EA4335"
    />
    <path
        d="M26.5225 12.0731C25.9631 10.0129 24.8144 8.16087 23.2176 6.74414L19.8016 10.1601C20.5135 10.7418 21.084 11.4776 21.4702 12.3119C21.8563 13.1463 22.0479 14.0574 22.0305 14.9766V15.583C22.4298 15.583 22.8251 15.6616 23.1939 15.8144C23.5628 15.9672 23.898 16.1911 24.1803 16.4734C24.4626 16.7557 24.6865 17.0909 24.8393 17.4597C24.9921 17.8286 25.0707 18.2239 25.0707 18.6232C25.0707 19.0224 24.9921 19.4178 24.8393 19.7866C24.6865 20.1555 24.4626 20.4906 24.1803 20.7729C23.898 21.0552 23.5628 21.2792 23.1939 21.432C22.8251 21.5847 22.4298 21.6634 22.0305 21.6634H15.9501L15.3438 22.2783V25.9248L15.9501 26.5311H22.0305C23.7284 26.5444 25.3855 26.0107 26.7567 25.0091C28.1278 24.0075 29.1402 22.5912 29.6439 20.9697C30.1477 19.3482 30.1162 17.6076 29.5541 16.0053C28.9919 14.4031 27.929 13.0243 26.5225 12.0731Z"
        fill="#4285F4"
    />
    <path
        d="M9.86073 26.4985H15.9412V21.6307H9.86073C9.42753 21.6306 8.9994 21.5374 8.60536 21.3574L7.75137 21.6222L5.30041 24.056L5.08691 24.91C6.46136 25.9479 8.13847 26.5059 9.86073 26.4985Z"
        fill="#34A853"
    />
    <path
        d="M9.86073 10.7071C8.21322 10.7169 6.60993 11.2411 5.27479 12.2064C3.93964 13.1716 2.93931 14.5298 2.41352 16.0912C1.88773 17.6526 1.86274 19.3392 2.34203 20.9154C2.82132 22.4917 3.78096 23.8789 5.08691 24.8833L8.6139 21.3564C8.16569 21.1539 7.77331 20.8456 7.4704 20.4582C7.1675 20.0707 6.96313 19.6155 6.87483 19.1317C6.78652 18.6478 6.81692 18.1498 6.96341 17.6803C7.1099 17.2108 7.3681 16.7838 7.71588 16.436C8.06365 16.0883 8.49061 15.8301 8.96012 15.6836C9.42962 15.5371 9.92766 15.5067 10.4115 15.595C10.8953 15.6833 11.3505 15.8877 11.738 16.1906C12.1255 16.4935 12.4337 16.8859 12.6362 17.3341L16.1632 13.8071C15.4229 12.8393 14.4688 12.0559 13.3754 11.5181C12.2821 10.9803 11.0792 10.7027 9.86073 10.7071Z"
        fill="#FBBC05"
    />
</svg>
