<svg width="33" height="32" viewBox="0 0 33 32" fill="none" xmlns="http://www.w3.org/2000/svg">
    <g clip-path="url(#clip0_1773_22600)">
        <path
            d="M7.09326 24.9449C7.78304 25.3751 8.92971 25.8534 10.1422 25.8534C11.2462 25.8534 12.2719 25.5334 13.1217 24.9876C13.1217 24.9876 13.1235 24.9876 13.1253 24.9858L16.3342 22.9805V30.2214C15.8257 30.2214 15.3137 30.0827 14.8693 29.8054L7.09326 24.9449Z"
            fill="#2C68AF"
        />
        <path
            d="M14.2944 2.67868L0.961045 17.7187C-0.0682882 18.8813 0.200156 20.6378 1.53527 21.4716C1.53527 21.4716 6.47038 24.556 7.0926 24.9453C7.78238 25.3756 8.92905 25.8538 10.1415 25.8538C11.2455 25.8538 12.2713 25.5338 13.121 24.988C13.121 24.988 13.1228 24.988 13.1246 24.9862L16.3335 22.9809L8.57527 18.1311L16.3353 9.37734V1.77734C15.5815 1.77734 14.8277 2.07779 14.2944 2.67868Z"
            fill="#66DDFF"
        />
        <path
            d="M8.57568 18.1327L8.66813 18.1896L16.3339 22.9825H16.3357V9.38068L16.3339 9.37891L8.57568 18.1327Z"
            fill="#CBF8FF"
        />
        <path
            d="M31.1319 21.4707C32.467 20.6369 32.7354 18.8805 31.7061 17.7178L22.9577 7.84936C22.2519 7.52048 21.4608 7.33203 20.6234 7.33203C18.979 7.33203 17.5088 8.04136 16.531 9.15603L16.3372 9.3747L24.0954 18.1285L16.3354 22.9783V30.2191C16.8457 30.2191 17.3541 30.0805 17.7986 29.8031L31.1319 21.4689V21.4707Z"
            fill="#0C76F3"
        />
        <path
            d="M16.3353 2V9.6L16.5291 9.38133C17.5068 8.26667 18.9771 7.55733 20.6215 7.55733C21.4606 7.55733 22.2499 7.74756 22.9557 8.07467L18.3708 2.90311C17.8393 2.30222 17.0855 2.00178 16.3335 2.00178L16.3353 2Z"
            fill="#0CA8FD"
        />
        <path d="M24.0937 18.1309L16.3354 9.37891V22.9789L24.0937 18.1309Z" fill="#ABC9CE" />
    </g>
    <defs>
        <clipPath id="clip0_1773_22600">
            <rect width="32" height="32" fill="white" transform="translate(0.333496)" />
        </clipPath>
    </defs>
</svg>
