<svg width="33" height="32" viewBox="0 0 33 32" fill="none" xmlns="http://www.w3.org/2000/svg">
    <g clip-path="url(#clip0_1773_13148)">
        <path
            fill-rule="evenodd"
            clip-rule="evenodd"
            d="M18.2606 0.222222L17.6028 8.32889C17.2917 8.29333 16.9806 8.27556 16.6606 8.27556C16.2606 8.27556 15.8695 8.30222 15.4872 8.36444L15.1139 4.43556C15.105 4.31111 15.2028 4.20444 15.3272 4.20444H15.9939L15.6739 0.231111C15.665 0.106667 15.7628 0 15.8783 0H18.0561C18.1806 0 18.2783 0.106667 18.2606 0.231111V0.222222ZM12.7672 0.622222C12.7317 0.506667 12.6072 0.435556 12.4917 0.48L10.4472 1.22667C10.3317 1.27111 10.2783 1.40444 10.3317 1.51111L11.9939 5.13778L11.3628 5.36889C11.2472 5.41333 11.1939 5.54667 11.2472 5.65333L12.945 9.21778C13.5583 8.88 14.225 8.62222 14.9272 8.46222L12.7761 0.622222H12.7672ZM7.7539 2.88L12.4561 9.51111C11.8606 9.90222 11.3183 10.3644 10.8561 10.8978L8.03835 8.12444C7.94946 8.03555 7.95835 7.89333 8.04724 7.81333L8.56279 7.38667L5.76279 4.55111C5.6739 4.46222 5.68279 4.32 5.78057 4.24L7.44279 2.84444C7.54057 2.76444 7.6739 2.78222 7.74501 2.88H7.7539ZM3.80724 6.72C3.70946 6.64889 3.56724 6.68444 3.50501 6.79111L2.42057 8.67556C2.35835 8.78222 2.40279 8.91556 2.50946 8.96889L6.11835 10.6756L5.78057 11.2533C5.71835 11.36 5.76279 11.5022 5.87835 11.5467L9.46946 13.1911C9.72723 12.5244 10.0739 11.9022 10.5006 11.3422L3.80724 6.72ZM1.14946 11.84C1.16724 11.7156 1.29168 11.6444 1.40724 11.6711L9.2739 13.7244C9.06946 14.3911 8.9539 15.0933 8.93612 15.8222L4.99835 15.5022C4.8739 15.4933 4.78501 15.3778 4.81168 15.2533L4.92724 14.5956L0.953903 14.2222C0.829458 14.2133 0.749458 14.0978 0.767236 13.9733L1.14057 11.8311L1.14946 11.84ZM0.856125 17.1556C0.73168 17.1644 0.65168 17.28 0.669458 17.4044L1.05168 19.5467C1.06946 19.6711 1.1939 19.7422 1.30946 19.7156L5.16724 18.7111L5.28279 19.3689C5.30057 19.4933 5.42501 19.5644 5.54057 19.5378L9.34501 18.4889C9.12279 17.8311 8.98057 17.1289 8.94501 16.4089L0.847236 17.1556H0.856125ZM2.11835 22.7911C2.05612 22.6844 2.10057 22.5511 2.20724 22.4978L9.54946 19.0133C9.82501 19.6711 10.1983 20.2844 10.6428 20.8356L7.42501 23.1289C7.32724 23.2 7.18501 23.1733 7.12279 23.0667L6.78501 22.48L3.50501 24.7467C3.40724 24.8178 3.26501 24.7822 3.20279 24.6756L2.10946 22.7911H2.11835ZM11.0161 21.2622L5.30057 27.0489C5.21168 27.1378 5.22057 27.28 5.31835 27.36L6.98946 28.7556C7.08724 28.8356 7.22057 28.8178 7.29168 28.72L9.60279 25.4667L10.1183 25.9022C10.2161 25.9822 10.3583 25.9644 10.4295 25.8578L12.6695 22.6044C12.065 22.2311 11.505 21.7778 11.025 21.2622H11.0161ZM9.88724 30.5511C9.77168 30.5067 9.71835 30.3733 9.77168 30.2667L13.1583 22.8711C13.7806 23.1911 14.4561 23.4311 15.1583 23.5644L14.1628 27.3867C14.1361 27.5022 14.0028 27.5733 13.8872 27.5289L13.2561 27.2978L12.1983 31.1467C12.1628 31.2622 12.0383 31.3333 11.9228 31.2889L9.87835 30.5422L9.88724 30.5511ZM15.7183 23.6622L15.0606 31.7689C15.0517 31.8933 15.1495 32 15.265 32H17.4428C17.5672 32 17.665 31.8933 17.6472 31.7689L17.3272 27.7956H17.9939C18.1183 27.7956 18.2161 27.6889 18.2072 27.5644L17.8339 23.6356C17.4517 23.6978 17.0606 23.7244 16.6606 23.7244C16.3406 23.7244 16.0295 23.7067 15.7183 23.6622ZM23.5583 1.71556C23.6117 1.6 23.5583 1.47556 23.4428 1.43111L21.3983 0.684444C21.2828 0.64 21.1583 0.711111 21.1228 0.826667L20.065 4.67556L19.4339 4.44444C19.3183 4.4 19.1939 4.47111 19.1583 4.58667L18.1628 8.40889C18.8739 8.55111 19.5406 8.79111 20.1628 9.10222L23.5583 1.71556ZM28.0206 4.94222L22.305 10.7289C21.825 10.2133 21.2739 9.76 20.6606 9.38667L22.9006 6.13333C22.9717 6.03556 23.1139 6.00889 23.2117 6.08889L23.7272 6.52444L26.0383 3.27111C26.1095 3.17333 26.2517 3.15556 26.3406 3.23556L28.0117 4.63111C28.1095 4.71111 28.1095 4.85333 28.0295 4.94222H28.0206ZM31.1139 9.49333C31.2295 9.44 31.265 9.30667 31.2028 9.2L30.1095 7.31556C30.0472 7.20889 29.905 7.18222 29.8072 7.24444L26.5272 9.51111L26.1895 8.93333C26.1272 8.82667 25.985 8.79111 25.8872 8.87111L22.6695 11.1644C23.1139 11.7156 23.4783 12.3289 23.7628 12.9867L31.105 9.50222L31.1139 9.49333ZM32.2695 12.4444L32.6428 14.5867C32.6606 14.7111 32.5806 14.8178 32.4561 14.8356L24.3583 15.5911C24.3228 14.8622 24.1806 14.1689 23.9583 13.5111L27.7628 12.4622C27.8783 12.4267 28.0028 12.5067 28.0206 12.6311L28.1361 13.2889L31.9939 12.2844C32.1095 12.2578 32.2339 12.3289 32.2517 12.4533L32.2695 12.4444ZM31.905 20.3111C32.0206 20.3378 32.145 20.2667 32.1628 20.1422L32.5361 18C32.5539 17.8756 32.4739 17.7689 32.3495 17.7511L28.3761 17.3778L28.4917 16.72C28.5095 16.5956 28.4295 16.4889 28.305 16.4711L24.3672 16.1511C24.3495 16.88 24.2339 17.5822 24.0295 18.2489L31.8961 20.3022L31.905 20.3111ZM29.8072 25.2C29.745 25.3067 29.6028 25.3333 29.505 25.2711L22.8117 20.6489C23.2383 20.0889 23.585 19.4667 23.8428 18.8L27.4339 20.4444C27.5495 20.4978 27.5939 20.6311 27.5317 20.7378L27.1939 21.3156L30.8028 23.0222C30.9095 23.0756 30.9539 23.2089 30.8917 23.3156L29.8072 25.2ZM20.8561 22.4711L25.5583 29.1022C25.6295 29.2 25.7717 29.2178 25.8606 29.1378L27.5228 27.7422C27.6206 27.6622 27.6206 27.52 27.5406 27.4311L24.7406 24.5956L25.2561 24.1689C25.3539 24.0889 25.3539 23.9467 25.265 23.8578L22.4472 21.0844C21.9761 21.6178 21.4428 22.0889 20.8472 22.4711H20.8561ZM20.8117 31.5022C20.6961 31.5467 20.5717 31.4756 20.5361 31.36L18.385 23.52C19.0872 23.36 19.7539 23.1022 20.3672 22.7644L22.065 26.3289C22.1183 26.4444 22.065 26.5778 21.9495 26.6133L21.3183 26.8444L22.9806 30.4711C23.0339 30.5867 22.9806 30.7111 22.865 30.7556L20.8206 31.5022H20.8117Z"
            fill="#0C0C14"
        />
    </g>
    <defs>
        <clipPath id="clip0_1773_13148">
            <rect width="32" height="32" fill="white" transform="translate(0.666992)" />
        </clipPath>
    </defs>
</svg>
