<svg xmlns="http://www.w3.org/2000/svg" width="24" height="24" viewBox="0 0 24 24">
    <g class="ic-alias">
        <g class="Icon">
            <path
                fill-rule="evenodd"
                d="M14.517 3.247a3 3 0 0 1 4.1 2.031l1.485 5.977h1.648a.75.75 0 1 1 0 1.5H2.25a.75.75 0 0 1 0-1.5h1.649l1.484-5.977a3 3 0 0 1 4.1-2.031l1.626.701a2.25 2.25 0 0 0 1.782 0l1.626-.701Zm2.645 2.393a1.5 1.5 0 0 0-2.05-1.016l-1.627.702a3.75 3.75 0 0 1-2.97 0l-1.626-.702a1.5 1.5 0 0 0-2.05 1.016l-1.38 5.555h13.082l-1.38-5.555Z"
            />
            <path
                fill-rule="evenodd"
                d="M9.857 15.155a3.75 3.75 0 1 0 .643 2.1 1.5 1.5 0 1 1 3 0 3.75 3.75 0 1 0 .643-2.1 2.991 2.991 0 0 0-2.143-.9 2.99 2.99 0 0 0-2.143.9ZM9 17.255a2.25 2.25 0 1 1-4.5 0 2.25 2.25 0 0 1 4.5 0Zm6 0a2.25 2.25 0 1 0 4.5 0 2.25 2.25 0 0 0-4.5 0Z"
            />
        </g>
    </g>
</svg>
