<svg width="80" height="80" viewBox="0 0 80 80" fill="none" xmlns="http://www.w3.org/2000/svg">
    <g clip-path="url(#clip0_10326_142439)">
        <path
            opacity="0.75"
            d="M10 7.5C10 3.35786 13.3579 0 17.5 0H62.5C66.6421 0 70 3.35786 70 7.5V80H10V7.5Z"
            fill="url(#paint0_linear_10326_142439)"
        />
        <path
            d="M11.25 8.75C11.25 4.60786 14.6079 1.25 18.75 1.25H61.25C65.3921 1.25 68.75 4.60786 68.75 8.75V80H11.25V8.75Z"
            fill="url(#paint1_linear_10326_142439)"
        />
        <path
            d="M12.5 8.75C12.5 5.29822 15.2982 2.5 18.75 2.5H61.25C64.7018 2.5 67.5 5.29822 67.5 8.75V80H12.5V8.75Z"
            fill="url(#paint2_linear_10326_142439)"
        />
        <path
            d="M68.4861 42.002L11.6687 93.9502V88.1777L68.4861 36.2305V42.002ZM68.4861 36.1641L11.6687 84.2637V63.0996L68.4861 15V36.1641Z"
            fill="url(#paint3_linear_10326_142439)"
        />
        <path
            d="M41.875 8.75C41.875 7.71447 41.0355 6.875 40 6.875C38.9645 6.875 38.125 7.71447 38.125 8.75C38.125 9.78553 38.9645 10.625 40 10.625C41.0355 10.625 41.875 9.78553 41.875 8.75ZM43.125 8.75C43.125 10.4759 41.7259 11.875 40 11.875C38.2741 11.875 36.875 10.4759 36.875 8.75C36.875 7.02411 38.2741 5.625 40 5.625C41.7259 5.625 43.125 7.02411 43.125 8.75Z"
            fill="#BBDAF7"
        />
        <path
            d="M41.875 8.75C41.875 9.78553 41.0355 10.625 40 10.625C38.9645 10.625 38.125 9.78553 38.125 8.75C38.125 7.71447 38.9645 6.875 40 6.875C41.0355 6.875 41.875 7.71447 41.875 8.75Z"
            fill="#091A30"
        />
        <rect x="20" y="22.5" width="40" height="40" rx="3" fill="white" />
        <path
            d="M50 27.5C52.7614 27.5 55 29.7386 55 32.5V40H42.5V27.5H50ZM45 30V37.5H52.5V32.5C52.5 31.1193 51.3807 30 50 30H45Z"
            fill="#102D4E"
        />
        <path
            d="M37.5 40H25V32.5C25 29.7386 27.2386 27.5 30 27.5H37.5V40ZM30 30C28.6193 30 27.5 31.1193 27.5 32.5V37.5H35V30H30Z"
            fill="#102D4E"
        />
        <path
            d="M37.5 57.5H30C27.2386 57.5 25 55.2614 25 52.5V45H37.5V57.5ZM27.5 47.5V52.5C27.5 53.8807 28.6193 55 30 55H35V47.5H27.5Z"
            fill="#102D4E"
        />
        <path
            d="M46.6675 47.9175C46.6675 48.6078 47.2271 49.1675 47.9175 49.1675H49.5825C50.2729 49.1675 50.8325 49.7271 50.8325 50.4175V52.085C50.8325 52.7753 50.2729 53.335 49.5825 53.335H47.9175C47.2271 53.335 46.6675 53.8946 46.6675 54.585V56.25C46.6675 56.9404 46.1078 57.5 45.4175 57.5H43.75C43.0596 57.5 42.5 56.9404 42.5 56.25V54.5825C42.5 53.8922 43.0596 53.3325 43.75 53.3325H45.415C46.1054 53.3325 46.665 52.7729 46.665 52.0825V50.4175C46.665 49.7271 46.1054 49.1675 45.415 49.1675H43.75C43.0596 49.1675 42.5 48.6078 42.5 47.9175V46.25C42.5 45.5596 43.0596 45 43.75 45H45.4175C46.1078 45 46.6675 45.5596 46.6675 46.25V47.9175Z"
            fill="#102D4E"
        />
        <path
            d="M55.0024 56.25C55.0024 56.9404 54.4428 57.5 53.7524 57.5H52.085C51.3946 57.5 50.835 56.9404 50.835 56.25V54.5825C50.835 53.8922 51.3946 53.3325 52.085 53.3325H53.7524C54.4428 53.3325 55.0024 53.8922 55.0024 54.5825V56.25Z"
            fill="#102D4E"
        />
        <path
            d="M55.0024 47.9175C55.0024 48.6078 54.4428 49.1675 53.7524 49.1675H52.085C51.3946 49.1675 50.835 48.6078 50.835 47.9175V46.25C50.835 45.5596 51.3946 45 52.085 45H53.7524C54.4428 45 55.0024 45.5596 55.0024 46.25V47.9175Z"
            fill="#102D4E"
        />
        <rect opacity="0.5" x="20" y="42.5" width="40" height="20" fill="url(#paint4_linear_10326_142439)" />
        <path
            d="M15 42.5C15 41.8096 15.5596 41.25 16.25 41.25H63.75C64.4404 41.25 65 41.8096 65 42.5C65 43.1904 64.4404 43.75 63.75 43.75H16.25C15.5596 43.75 15 43.1904 15 42.5Z"
            fill="url(#paint5_linear_10326_142439)"
        />
        <path
            d="M15 56.25V51.25C15 50.5596 15.5596 50 16.25 50C16.9404 50 17.5 50.5596 17.5 51.25V56.25C17.5 61.0824 21.4176 64.9999 26.25 65H31.25C31.9404 65 32.5 65.5596 32.5 66.25C32.5 66.9404 31.9404 67.5 31.25 67.5H26.25C20.0369 67.4999 15 62.4632 15 56.25ZM62.5 56.25V51.25C62.5 50.5596 63.0596 50 63.75 50C64.4404 50 65 50.5596 65 51.25V56.25C65 62.4632 59.9631 67.4999 53.75 67.5H48.75C48.0596 67.5 47.5 66.9404 47.5 66.25C47.5 65.5596 48.0596 65 48.75 65H53.75C58.5824 64.9999 62.5 61.0824 62.5 56.25ZM15 33.75V28.75C15 22.5368 20.0369 17.5001 26.25 17.5H31.25C31.9404 17.5 32.5 18.0596 32.5 18.75C32.5 19.4404 31.9404 20 31.25 20H26.25C21.4176 20.0001 17.5 23.9176 17.5 28.75V33.75C17.5 34.4404 16.9404 35 16.25 35C15.5596 35 15 34.4404 15 33.75ZM62.5 33.75V28.75C62.5 23.9176 58.5824 20.0001 53.75 20H48.75C48.0596 20 47.5 19.4404 47.5 18.75C47.5 18.0596 48.0596 17.5 48.75 17.5H53.75C59.9631 17.5001 65 22.5368 65 28.75V33.75C65 34.4404 64.4404 35 63.75 35C63.0596 35 62.5 34.4404 62.5 33.75Z"
            fill="#2C96F5"
        />
        <rect y="78.75" width="80" height="1.25" fill="url(#paint6_linear_10326_142439)" />
    </g>
    <defs>
        <linearGradient
            id="paint0_linear_10326_142439"
            x1="68.1525"
            y1="2.50002"
            x2="7.37968"
            y2="71.9991"
            gradientUnits="userSpaceOnUse"
        >
            <stop stop-color="#F1F7FD" />
            <stop offset="1" stop-color="#D6E9FA" />
        </linearGradient>
        <linearGradient
            id="paint1_linear_10326_142439"
            x1="40"
            y1="1.88492"
            x2="40"
            y2="80.6151"
            gradientUnits="userSpaceOnUse"
        >
            <stop stop-color="#102D4E" />
            <stop offset="1" stop-color="#1D62A7" />
        </linearGradient>
        <linearGradient
            id="paint2_linear_10326_142439"
            x1="65.5917"
            y1="2.52017"
            x2="5.27102"
            y2="64.0011"
            gradientUnits="userSpaceOnUse"
        >
            <stop stop-color="#F1F7FD" />
            <stop offset="1" stop-color="#83BDF5" />
        </linearGradient>
        <linearGradient
            id="paint3_linear_10326_142439"
            x1="59.8774"
            y1="24.3598"
            x2="-0.771467"
            y2="67.6115"
            gradientUnits="userSpaceOnUse"
        >
            <stop stop-color="white" stop-opacity="0.3" />
            <stop offset="1" stop-color="white" stop-opacity="0.05" />
        </linearGradient>
        <linearGradient
            id="paint4_linear_10326_142439"
            x1="40"
            y1="42.5"
            x2="40"
            y2="62.5"
            gradientUnits="userSpaceOnUse"
        >
            <stop stop-color="#2C96F5" stop-opacity="0.5" />
            <stop offset="1" stop-color="#2C96F5" stop-opacity="0" />
        </linearGradient>
        <linearGradient
            id="paint5_linear_10326_142439"
            x1="15"
            y1="42.5"
            x2="65"
            y2="42.5"
            gradientUnits="userSpaceOnUse"
        >
            <stop stop-color="#54A5F3" />
            <stop offset="0.5" stop-color="#2C96F5" />
            <stop offset="1" stop-color="#54A5F3" />
        </linearGradient>
        <linearGradient
            id="paint6_linear_10326_142439"
            x1="0"
            y1="79.375"
            x2="80"
            y2="79.375"
            gradientUnits="userSpaceOnUse"
        >
            <stop stop-color="#2C96F5" stop-opacity="0.2" />
            <stop offset="0.205528" stop-color="#2C96F5" stop-opacity="0.7" />
            <stop offset="0.830758" stop-color="#2C96F5" stop-opacity="0.7" />
            <stop offset="1" stop-color="#2C96F5" stop-opacity="0.2" />
        </linearGradient>
        <clipPath id="clip0_10326_142439">
            <rect width="80" height="80" fill="white" />
        </clipPath>
    </defs>
</svg>
