<svg width="80" height="80" viewBox="0 0 80 80" fill="none" xmlns="http://www.w3.org/2000/svg">
    <g clip-path="url(#clip0_10148_124211)">
        <path
            d="M9.99023 10H69.9902V80H14.9902C12.2288 80 9.99023 77.7614 9.99023 75V10Z"
            fill="url(#paint0_linear_10148_124211)"
        />
        <path
            fill-rule="evenodd"
            clip-rule="evenodd"
            d="M79.9902 75C79.9902 77.7614 77.7517 80 74.9902 80H14.9902C17.7517 80 19.9902 77.7614 19.9902 75V70H79.9902V75Z"
            fill="url(#paint1_linear_10148_124211)"
        />
        <path
            d="M-0.00976562 5C-0.00976562 2.23858 2.22881 0 4.99023 0H64.9902C67.7517 0 69.9902 2.23858 69.9902 5V10H-0.00976562V5Z"
            fill="url(#paint2_linear_10148_124211)"
        />
        <path
            d="M-0.00976562 5C-0.00976562 2.23858 2.22881 0 4.99023 0C7.75166 0 9.99023 2.23858 9.99023 5V10H-0.00976562V5Z"
            fill="url(#paint3_linear_10148_124211)"
        />
        <mask
            id="mask0_10148_124211"
            style="mask-type: alpha"
            maskUnits="userSpaceOnUse"
            x="3"
            y="0"
            width="61"
            height="80"
        >
            <path
                d="M13.9961 75C13.9961 77.7614 11.7575 80 8.99609 80C6.23467 80 3.99609 77.7614 3.99609 75V0H63.9961V70H13.9961V75Z"
                fill="url(#paint4_linear_10148_124211)"
            />
        </mask>
        <g mask="url(#mask0_10148_124211)">
            <path
                d="M45.1893 64.8304C43.0511 64.8304 41.7668 63.9173 41.5812 62.5513L41.5886 62.529H43.4372L43.4446 62.5513C43.5708 63.0709 44.187 63.4347 45.2189 63.4347C46.481 63.4347 47.216 62.8482 47.216 61.8089V60.2573H47.0898C46.6221 61.1259 45.7386 61.601 44.6176 61.601C42.5612 61.601 41.2842 60.0123 41.2842 57.7108V57.696C41.2842 55.35 42.5612 53.7316 44.6547 53.7316C45.7757 53.7316 46.6518 54.2809 47.1121 55.2015H47.2086V53.8652H49.0572V61.7792C49.0572 63.65 47.5575 64.8304 45.1893 64.8304ZM45.1893 60.131C46.4736 60.131 47.2457 59.1437 47.2457 57.7108V57.696C47.2457 56.2631 46.4662 55.2683 45.1893 55.2683C43.9049 55.2683 43.1774 56.2631 43.1774 57.696V57.7108C43.1774 59.1437 43.9049 60.131 45.1893 60.131Z"
                fill="url(#paint5_radial_10148_124211)"
                fill-opacity="0.8"
            />
            <path
                d="M30.0937 61.9796V51.2668H34.3699C36.5451 51.2668 38.0151 52.6996 38.0151 54.8452V54.86C38.0151 56.9981 36.5451 58.4384 34.3699 58.4384H32.0091V61.9796H30.0937ZM33.9022 52.8333H32.0091V56.8942H33.9022C35.2756 56.8942 36.0774 56.1518 36.0774 54.8674V54.8526C36.0774 53.5682 35.2756 52.8333 33.9022 52.8333Z"
                fill="url(#paint6_radial_10148_124211)"
                fill-opacity="0.8"
            />
            <path
                d="M17.7079 58.4978V56.8199H20.9596V53.6054H22.6374V56.8199H25.8891V58.4978H22.6374V61.7124H20.9596V58.4978H17.7079Z"
                fill="url(#paint7_radial_10148_124211)"
                fill-opacity="0.8"
            />
            <path
                d="M46.4662 42.5945C44.0237 42.5945 42.5834 41.0132 42.5834 38.3628V38.348C42.5834 35.7273 44.0163 34.1609 46.4588 34.1609C48.5449 34.1609 49.7921 35.319 50 36.9968V37.0265H48.2554L48.2479 37.0042C48.0772 36.2173 47.4758 35.6531 46.4662 35.6531C45.2041 35.6531 44.4617 36.6479 44.4617 38.348V38.3628C44.4617 40.0852 45.2115 41.0949 46.4662 41.0949C47.4239 41.0949 48.0104 40.6568 48.2405 39.8031L48.2554 39.7734L50 39.766L49.9852 39.8254C49.7179 41.4883 48.5226 42.5945 46.4662 42.5945Z"
                fill="url(#paint8_radial_10148_124211)"
                fill-opacity="0.8"
            />
            <path
                d="M33.9319 42.6984C30.7915 42.6984 28.8613 40.5232 28.8613 37.0785V37.0636C28.8613 33.6115 30.8212 31.4511 33.9319 31.4511C37.05 31.4511 38.9951 33.6115 38.9951 37.0636V37.0785C38.9951 39.083 38.3343 40.6643 37.1687 41.6294L38.5942 43.5448H36.7233L35.8547 42.3792C35.2756 42.5871 34.6372 42.6984 33.9319 42.6984ZM33.9319 41.0429C34.2288 41.0429 34.511 41.0058 34.7782 40.9315L33.3974 39.0755H35.2682L36.0552 40.1372C36.6862 39.4393 37.0425 38.3851 37.0425 37.0785V37.0636C37.0425 34.6434 35.8324 33.1066 33.9319 33.1066C32.0313 33.1066 30.8138 34.6434 30.8138 37.0636V37.0785C30.8138 39.4839 32.0016 41.0429 33.9319 41.0429Z"
                fill="url(#paint9_radial_10148_124211)"
                fill-opacity="0.8"
            />
            <path
                d="M17.5 45.1261V34.3168H19.3486V35.5863H19.4748C19.9202 34.7028 20.8037 34.1831 21.9395 34.1831C23.9737 34.1831 25.2729 35.8016 25.2729 38.3703V38.3851C25.2729 40.9687 23.996 42.5648 21.9395 42.5648C20.8259 42.5648 19.898 42.0154 19.4748 41.1394H19.3486V45.1261H17.5ZM21.3605 41.0058C22.6226 41.0058 23.3872 40.011 23.3872 38.3851V38.3703C23.3872 36.737 22.6226 35.7422 21.3605 35.7422C20.1058 35.7422 19.3263 36.737 19.3263 38.3628V38.3777C19.3263 40.0035 20.1058 41.0058 21.3605 41.0058Z"
                fill="url(#paint10_radial_10148_124211)"
                fill-opacity="0.8"
            />
            <path
                d="M41.0021 22.8827V12.1699H45.4788C47.513 12.1699 48.7379 13.1944 48.7379 14.8351V14.85C48.7379 15.971 47.9064 16.9658 46.83 17.1366V17.2702C48.2702 17.4038 49.265 18.4432 49.265 19.8315V19.8463C49.265 21.7246 47.8693 22.8827 45.5827 22.8827H41.0021ZM45.0111 13.6621H42.9175V16.6837H44.7661C46.1247 16.6837 46.8448 16.1566 46.8448 15.1841V15.1692C46.8448 14.2189 46.1692 13.6621 45.0111 13.6621ZM45.0705 18.0423H42.9175V21.3905H45.1447C46.5553 21.3905 47.3051 20.804 47.3051 19.7127V19.6979C47.3051 18.6139 46.533 18.0423 45.0705 18.0423Z"
                fill="url(#paint11_radial_10148_124211)"
                fill-opacity="0.8"
            />
            <path
                d="M28.6163 19.4009V17.7231H31.868V14.5085H33.5458V17.7231H36.7976V19.4009H33.5458V22.6155H31.868V19.4009H28.6163Z"
                fill="url(#paint12_radial_10148_124211)"
                fill-opacity="0.8"
            />
            <path
                d="M20.3137 23.0164C18.7695 23.0164 17.6485 22.0661 17.6485 20.5887V20.5739C17.6485 19.1262 18.7547 18.2799 20.7294 18.1611L22.8156 18.0349V17.337C22.8156 16.5278 22.2885 16.0824 21.2937 16.0824C20.4473 16.0824 19.898 16.3868 19.7124 16.9213L19.7049 16.951H17.9603L17.9677 16.8842C18.1459 15.5181 19.4525 14.6124 21.3827 14.6124C23.4689 14.6124 24.6419 15.6221 24.6419 17.337V22.8827H22.8156V21.7691H22.6894C22.2439 22.5561 21.3827 23.0164 20.3137 23.0164ZM19.4748 20.4996C19.4748 21.1901 20.0613 21.5984 20.8779 21.5984C21.9915 21.5984 22.8156 20.8708 22.8156 19.9057V19.2524L20.9893 19.3712C19.9573 19.438 19.4748 19.8166 19.4748 20.4848V20.4996Z"
                fill="url(#paint13_radial_10148_124211)"
                fill-opacity="0.8"
            />
        </g>
        <g filter="url(#filter0_d_10148_124211)">
            <mask id="path-7-inside-1_10148_124211" fill="white">
                <path
                    fill-rule="evenodd"
                    clip-rule="evenodd"
                    d="M71.6738 33.2129C76.5337 34.9305 80.0156 39.5651 80.0156 45.0127C80.0156 51.9226 74.4134 57.5244 67.5029 57.5244C60.5924 57.5244 54.9903 51.9226 54.9902 45.0127C54.9902 39.5647 58.4727 34.9303 63.333 33.2129V24.8955H54.9902V16.5547H63.333V10H71.6738V33.2129ZM67.501 39.6475C64.5395 39.6476 62.1388 42.0476 62.1387 45.0088C62.1387 47.9701 64.5394 50.371 67.501 50.3711C70.4626 50.3711 72.8633 47.9702 72.8633 45.0088C72.8631 42.0475 70.4625 39.6475 67.501 39.6475Z"
                />
            </mask>
            <path
                fill-rule="evenodd"
                clip-rule="evenodd"
                d="M71.6738 33.2129C76.5337 34.9305 80.0156 39.5651 80.0156 45.0127C80.0156 51.9226 74.4134 57.5244 67.5029 57.5244C60.5924 57.5244 54.9903 51.9226 54.9902 45.0127C54.9902 39.5647 58.4727 34.9303 63.333 33.2129V24.8955H54.9902V16.5547H63.333V10H71.6738V33.2129ZM67.501 39.6475C64.5395 39.6476 62.1388 42.0476 62.1387 45.0088C62.1387 47.9701 64.5394 50.371 67.501 50.3711C70.4626 50.3711 72.8633 47.9702 72.8633 45.0088C72.8631 42.0475 70.4625 39.6475 67.501 39.6475Z"
                fill="url(#paint14_linear_10148_124211)"
            />
            <path
                d="M71.6738 33.2129H71.4738V33.3543L71.6072 33.4015L71.6738 33.2129ZM80.0156 45.0127L80.2156 45.0127V45.0127H80.0156ZM67.5029 57.5244V57.7244H67.5029L67.5029 57.5244ZM54.9902 45.0127H54.7902V45.0127L54.9902 45.0127ZM63.333 33.2129L63.3996 33.4015L63.533 33.3543V33.2129H63.333ZM63.333 24.8955H63.533V24.6955H63.333V24.8955ZM54.9902 24.8955H54.7902V25.0955H54.9902V24.8955ZM54.9902 16.5547V16.3547H54.7902V16.5547H54.9902ZM63.333 16.5547V16.7547H63.533V16.5547H63.333ZM63.333 10V9.8H63.133V10H63.333ZM71.6738 10H71.8738V9.8H71.6738V10ZM67.501 39.6475V39.4475H67.501L67.501 39.6475ZM62.1387 45.0088L61.9387 45.0088V45.0088H62.1387ZM67.501 50.3711L67.501 50.5711H67.501V50.3711ZM72.8633 45.0088H73.0633V45.0088L72.8633 45.0088ZM71.6738 33.2129L71.6072 33.4015C76.3897 35.0917 79.8156 39.6525 79.8156 45.0127H80.0156H80.2156C80.2156 39.4777 76.6777 34.7693 71.7405 33.0243L71.6738 33.2129ZM80.0156 45.0127L79.8156 45.0127C79.8156 51.8121 74.3029 57.3244 67.5029 57.3244L67.5029 57.5244L67.5029 57.7244C74.5238 57.7244 80.2156 52.033 80.2156 45.0127L80.0156 45.0127ZM67.5029 57.5244V57.3244C60.7029 57.3244 55.1903 51.8121 55.1902 45.0127L54.9902 45.0127L54.7902 45.0127C54.7903 52.0331 60.482 57.7244 67.5029 57.7244V57.5244ZM54.9902 45.0127H55.1902C55.1902 39.6522 58.6167 35.0915 63.3996 33.4015L63.333 33.2129L63.2664 33.0243C58.3286 34.769 54.7902 39.4773 54.7902 45.0127H54.9902ZM63.333 33.2129H63.533V24.8955H63.333H63.133V33.2129H63.333ZM63.333 24.8955V24.6955H54.9902V24.8955V25.0955H63.333V24.8955ZM54.9902 24.8955H55.1902V16.5547H54.9902H54.7902V24.8955H54.9902ZM54.9902 16.5547V16.7547H63.333V16.5547V16.3547H54.9902V16.5547ZM63.333 16.5547H63.533V10H63.333H63.133V16.5547H63.333ZM63.333 10V10.2H71.6738V10V9.8H63.333V10ZM71.6738 10H71.4738V33.2129H71.6738H71.8738V10H71.6738ZM67.501 39.6475L67.501 39.4475C64.4291 39.4476 61.9388 41.9371 61.9387 45.0088L62.1387 45.0088L62.3387 45.0088C62.3388 42.1581 64.65 39.8476 67.501 39.8475L67.501 39.6475ZM62.1387 45.0088H61.9387C61.9387 48.0806 64.429 50.571 67.501 50.5711L67.501 50.3711L67.501 50.1711C64.6499 50.171 62.3387 47.8597 62.3387 45.0088H62.1387ZM67.501 50.3711V50.5711C70.5731 50.5711 73.0633 48.0807 73.0633 45.0088H72.8633H72.6633C72.6633 47.8598 70.3522 50.1711 67.501 50.1711V50.3711ZM72.8633 45.0088L73.0633 45.0088C73.0631 41.937 70.573 39.4475 67.501 39.4475V39.6475V39.8475C70.3521 39.8475 72.6631 42.158 72.6633 45.0088L72.8633 45.0088Z"
                fill="url(#paint15_radial_10148_124211)"
                fill-opacity="0.5"
                mask="url(#path-7-inside-1_10148_124211)"
            />
        </g>
    </g>
    <defs>
        <filter
            id="filter0_d_10148_124211"
            x="49.9902"
            y="7"
            width="33.0254"
            height="55.5234"
            filterUnits="userSpaceOnUse"
            color-interpolation-filters="sRGB"
        >
            <feFlood flood-opacity="0" result="BackgroundImageFix" />
            <feColorMatrix
                in="SourceAlpha"
                type="matrix"
                values="0 0 0 0 0 0 0 0 0 0 0 0 0 0 0 0 0 0 127 0"
                result="hardAlpha"
            />
            <feOffset dx="-1" dy="1" />
            <feGaussianBlur stdDeviation="2" />
            <feComposite in2="hardAlpha" operator="out" />
            <feColorMatrix type="matrix" values="0 0 0 0 0.0755788 0 0 0 0 0.397647 0 0 0 0 0.705559 0 0 0 0.2 0" />
            <feBlend mode="normal" in2="BackgroundImageFix" result="effect1_dropShadow_10148_124211" />
            <feBlend mode="normal" in="SourceGraphic" in2="effect1_dropShadow_10148_124211" result="shape" />
        </filter>
        <linearGradient
            id="paint0_linear_10148_124211"
            x1="39.9902"
            y1="10"
            x2="39.9902"
            y2="75"
            gradientUnits="userSpaceOnUse"
        >
            <stop offset="0.725" stop-color="#BBDAF7" />
            <stop offset="1" stop-color="#54A5F3" />
        </linearGradient>
        <linearGradient
            id="paint1_linear_10148_124211"
            x1="47.4902"
            y1="70"
            x2="47.4902"
            y2="80"
            gradientUnits="userSpaceOnUse"
        >
            <stop stop-color="#E3F0FC" />
            <stop offset="1" stop-color="#BBDAF7" />
        </linearGradient>
        <linearGradient
            id="paint2_linear_10148_124211"
            x1="34.9902"
            y1="0"
            x2="34.9902"
            y2="10"
            gradientUnits="userSpaceOnUse"
        >
            <stop stop-color="#F1F7FD" />
            <stop offset="1" stop-color="#BBDAF7" />
        </linearGradient>
        <linearGradient
            id="paint3_linear_10148_124211"
            x1="4.99023"
            y1="0"
            x2="4.99023"
            y2="10"
            gradientUnits="userSpaceOnUse"
        >
            <stop stop-color="#BBDAF7" />
            <stop offset="1" stop-color="#83BDF5" />
        </linearGradient>
        <linearGradient
            id="paint4_linear_10148_124211"
            x1="30.6322"
            y1="11.2671"
            x2="30.6322"
            y2="20.6397"
            gradientUnits="userSpaceOnUse"
        >
            <stop stop-color="#EDF3F7" />
            <stop offset="1" stop-color="#D5DADE" />
        </linearGradient>
        <radialGradient
            id="paint5_radial_10148_124211"
            cx="0"
            cy="0"
            r="1"
            gradientUnits="userSpaceOnUse"
            gradientTransform="translate(34.5879 37) rotate(-180) scale(18.4624 24.9786)"
        >
            <stop stop-color="#2984DB" />
            <stop offset="1" stop-color="#54A5F3" />
        </radialGradient>
        <radialGradient
            id="paint6_radial_10148_124211"
            cx="0"
            cy="0"
            r="1"
            gradientUnits="userSpaceOnUse"
            gradientTransform="translate(34.5879 37) rotate(-180) scale(18.4624 24.9786)"
        >
            <stop stop-color="#2984DB" />
            <stop offset="1" stop-color="#54A5F3" />
        </radialGradient>
        <radialGradient
            id="paint7_radial_10148_124211"
            cx="0"
            cy="0"
            r="1"
            gradientUnits="userSpaceOnUse"
            gradientTransform="translate(34.5879 37) rotate(-180) scale(18.4624 24.9786)"
        >
            <stop stop-color="#2984DB" />
            <stop offset="1" stop-color="#54A5F3" />
        </radialGradient>
        <radialGradient
            id="paint8_radial_10148_124211"
            cx="0"
            cy="0"
            r="1"
            gradientUnits="userSpaceOnUse"
            gradientTransform="translate(34.5879 37) rotate(-180) scale(18.4624 24.9786)"
        >
            <stop stop-color="#2984DB" />
            <stop offset="1" stop-color="#54A5F3" />
        </radialGradient>
        <radialGradient
            id="paint9_radial_10148_124211"
            cx="0"
            cy="0"
            r="1"
            gradientUnits="userSpaceOnUse"
            gradientTransform="translate(34.5879 37) rotate(-180) scale(18.4624 24.9786)"
        >
            <stop stop-color="#2984DB" />
            <stop offset="1" stop-color="#54A5F3" />
        </radialGradient>
        <radialGradient
            id="paint10_radial_10148_124211"
            cx="0"
            cy="0"
            r="1"
            gradientUnits="userSpaceOnUse"
            gradientTransform="translate(34.5879 37) rotate(-180) scale(18.4624 24.9786)"
        >
            <stop stop-color="#2984DB" />
            <stop offset="1" stop-color="#54A5F3" />
        </radialGradient>
        <radialGradient
            id="paint11_radial_10148_124211"
            cx="0"
            cy="0"
            r="1"
            gradientUnits="userSpaceOnUse"
            gradientTransform="translate(34.5879 37) rotate(-180) scale(18.4624 24.9786)"
        >
            <stop stop-color="#2984DB" />
            <stop offset="1" stop-color="#54A5F3" />
        </radialGradient>
        <radialGradient
            id="paint12_radial_10148_124211"
            cx="0"
            cy="0"
            r="1"
            gradientUnits="userSpaceOnUse"
            gradientTransform="translate(34.5879 37) rotate(-180) scale(18.4624 24.9786)"
        >
            <stop stop-color="#2984DB" />
            <stop offset="1" stop-color="#54A5F3" />
        </radialGradient>
        <radialGradient
            id="paint13_radial_10148_124211"
            cx="0"
            cy="0"
            r="1"
            gradientUnits="userSpaceOnUse"
            gradientTransform="translate(34.5879 37) rotate(-180) scale(18.4624 24.9786)"
        >
            <stop stop-color="#2984DB" />
            <stop offset="1" stop-color="#54A5F3" />
        </radialGradient>
        <linearGradient
            id="paint14_linear_10148_124211"
            x1="68.5457"
            y1="10"
            x2="47.6186"
            y2="19.6457"
            gradientUnits="userSpaceOnUse"
        >
            <stop stop-color="#54A5F3" />
            <stop offset="1" stop-color="#2984DB" />
        </linearGradient>
        <radialGradient
            id="paint15_radial_10148_124211"
            cx="0"
            cy="0"
            r="1"
            gradientTransform="matrix(-9.23193 23.5276 -11.1832 -81.6227 68.8381 29.908)"
            gradientUnits="userSpaceOnUse"
        >
            <stop stop-color="white" stop-opacity="0" />
            <stop offset="1" stop-color="white" />
        </radialGradient>
        <clipPath id="clip0_10148_124211">
            <rect width="80" height="80" fill="white" />
        </clipPath>
    </defs>
</svg>
