<svg xmlns="http://www.w3.org/2000/svg" width="64" height="64" fill="none" viewBox="0 0 64 64">
    <g clip-path="url(#a)">
        <path fill="url(#b)" d="M2 32h2v16H2z" />
        <path fill="url(#c)" d="M60 32h2v16h-2z" />
        <g filter="url(#d)">
            <path
                fill="url(#e)"
                d="M4 13.5A9.5 9.5 0 0 1 13.5 4h37a9.5 9.5 0 0 1 9.5 9.5v37a9.5 9.5 0 0 1-9.5 9.5h-37A9.5 9.5 0 0 1 4 50.5z"
            />
            <path
                stroke="url(#f)"
                d="M13.5 4.5h37a9 9 0 0 1 9 9v37a9 9 0 0 1-9 9h-37a9 9 0 0 1-9-9v-37a9 9 0 0 1 9-9Z"
            />
        </g>
        <path
            fill="url(#g)"
            d="M24 56H13.405c-2.979 0-5.402-2.452-5.402-5.463L8 40h16zm3.785-2.286a.76.76 0 0 1 .557.23q.23.23.23.556v.714a.76.76 0 0 1-.23.556.76.76 0 0 1-.557.23h-.714a.76.76 0 0 1-.555-.23.76.76 0 0 1-.23-.556V54.5q0-.325.23-.556a.76.76 0 0 1 .555-.23zm6.859-22.858q.325.001.555.23.23.231.23.557v.713q0 .018-.004.054h.005v.733l-.001 2.285H41.5q.325 0 .556.231.23.23.23.556v2.231h-.005l.005.054v.714a.76.76 0 0 1-.23.556.76.76 0 0 1-.556.23h-.714a.76.76 0 0 1-.556-.23.76.76 0 0 1-.23-.556V38.5q0-.018.005-.054H40L40 37.714h-2.286l-.001 1.5a.76.76 0 0 1-.23.556.76.76 0 0 1-.555.23h-1.5v2.285h2.287v-.731h.004l-.004-.054v-.715q0-.326.23-.555A.76.76 0 0 1 38.5 40h.715q.326 0 .555.23t.23.555v.715q.001.018-.004.054H40v2.231a.76.76 0 0 1-.23.556.76.76 0 0 1-.555.23h-1.501v4.572h1.5q.327 0 .556.23t.23.556v.714a.76.76 0 0 1-.23.555.76.76 0 0 1-.555.23h-1.501v2.286H40v-1.5q0-.325.23-.556a.76.76 0 0 1 .556-.23h1.498l.002-2.285h-1.5a.76.76 0 0 1-.556-.23.76.76 0 0 1-.23-.556v-.714q0-.327.23-.556a.76.76 0 0 1 .556-.23h2.998q.326 0 .557.23.23.23.23.556v3.786h1.5q.325 0 .555.23.23.229.23.555v1.5h3.786a.76.76 0 0 1 .556.23q.23.23.23.556v.714a.76.76 0 0 1-.23.556.76.76 0 0 1-.556.23h-5.287a.76.76 0 0 1-.555-.23.76.76 0 0 1-.23-.556v-1.5h-2.284v1.5a.76.76 0 0 1-.23.556.76.76 0 0 1-.556.23H33.93a.76.76 0 0 1-.557-.23.76.76 0 0 1-.23-.555v-5.286q0-.327.23-.557a.76.76 0 0 1 .557-.23h1.498V44.57l-2.284.001H27.07a.76.76 0 0 1-.555-.23.76.76 0 0 1-.23-.556v-4.517h.004l-.005-.054V38.5q.001-.325.23-.556a.76.76 0 0 1 .556-.23h.714a.76.76 0 0 1 .557.23q.23.23.23.556v.714q0 .018-.006.054h.005V40h4.573v-2.286h-1.5a.76.76 0 0 1-.557-.23.76.76 0 0 1-.23-.555v-3q0-.327.23-.557a.76.76 0 0 1 .557-.23h1.5v-.732h.004l-.004-.054v-.713q0-.327.229-.556a.76.76 0 0 1 .557-.23zm20.57 20.572q.325 0 .556.23.23.23.23.556v.714a.76.76 0 0 1-.23.556.76.76 0 0 1-.556.23H54.5a.76.76 0 0 1-.556-.23.76.76 0 0 1-.23-.556v-.714q0-.325.23-.556a.76.76 0 0 1 .556-.23zm-44.81-.892c0 1.69 1.346 3.064 3.001 3.064H21.6V42.4H10.4zm19.67-3.679q.325 0 .555.23t.23.556v.714a.76.76 0 0 1-.23.556.76.76 0 0 1-.556.23h-1.502v.732h-.005l.005.054v.714a.76.76 0 0 1-.23.555.76.76 0 0 1-.556.23h-.714a.76.76 0 0 1-.555-.23.76.76 0 0 1-.23-.555v-.714q0-.018.004-.054h-.005v-2.232q0-.327.23-.556a.76.76 0 0 1 .556-.23zm20.569 2.286q.326 0 .556.23t.23.556v.714a.76.76 0 0 1-.23.555.76.76 0 0 1-.556.23h-.714a.76.76 0 0 1-.556-.23.76.76 0 0 1-.23-.555v-.714q0-.327.23-.556a.76.76 0 0 1 .556-.23zm-31.211 2.284h-4.996c-1.025 0-1.86-.85-1.86-1.894l-.002-4.962h6.858zM27.785 8q.326 0 .557.23.23.23.23.555V9.5q0 .018-.006.054h.005v.731h2.287l1.5.001q.326 0 .555.23t.23.555v1.5h2.285v-.732h.004l-.004-.054v-.714q0-.325.23-.555a.76.76 0 0 1 .555-.23h.715q.326 0 .555.23t.23.555v.714q0 .018-.004.054h.004v2.231a.76.76 0 0 1-.23.556.76.76 0 0 1-.555.23h-1.5v4.573h1.5q.326 0 .555.23.23.229.23.555v8.357h2.288v-.732h.005L40 27.785v-.714q0-.325.23-.555a.76.76 0 0 1 .556-.23h.714q.325 0 .556.23.23.23.23.555v.714q0 .018-.005.054h.005v.732h4.57v-.732h.003l-.004-.054v-.714q0-.325.23-.555a.76.76 0 0 1 .556-.23h.714q.327 0 .556.23t.23.555v.714q0 .018-.004.054h.004v.732h2.288v-1.5q0-.325.23-.555a.76.76 0 0 1 .555-.23h2.999q.325 0 .556.23.23.23.23.555v5.285a.76.76 0 0 1-.23.556.76.76 0 0 1-.556.23h-1.5v.732h-.003l.004.054v.714a.76.76 0 0 1-.23.556.76.76 0 0 1-.555.23h-.715a.76.76 0 0 1-.556-.23.76.76 0 0 1-.23-.556v-.714q0-.018.005-.054h-.004l-.001-.731v-2.286h-2.286v4.57l-.001 1.502a.76.76 0 0 1-.23.555.76.76 0 0 1-.556.23h-1.5v4.571h6.074q.325 0 .555.23t.23.555v4.52h-.004q.004.034.004.053v.714a.76.76 0 0 1-.23.556.76.76 0 0 1-.555.23h-.715a.76.76 0 0 1-.556-.23.76.76 0 0 1-.23-.556v-.714q0-.018.005-.053h-.004l-.001-.733h-1.5a.76.76 0 0 1-.556-.23.76.76 0 0 1-.23-.556v-1.5h-2.287v.733h-.004l.004.053v.714a.76.76 0 0 1-.229.556.76.76 0 0 1-.556.23h-.715a.76.76 0 0 1-.555-.23.76.76 0 0 1-.23-.556v-.714q0-.018.004-.053h-.004v-.733h-1.5a.76.76 0 0 1-.555-.23.76.76 0 0 1-.23-.556v-.714q0-.325.23-.555a.76.76 0 0 1 .555-.23h1.5v-6.072q0-.326.23-.556a.76.76 0 0 1 .555-.23h1.5v-4.57h-2.285l-2.285-.002-2.286.001v.732h-.004l.004.054v.714a.76.76 0 0 1-.23.556.76.76 0 0 1-.555.23H38.5a.76.76 0 0 1-.556-.23.76.76 0 0 1-.23-.556v-.714q0-.018.005-.054h-.004l-.002-.733h-1.5a.76.76 0 0 1-.556-.229.76.76 0 0 1-.23-.556l.003-1.5h-1.5a.76.76 0 0 1-.557-.23.76.76 0 0 1-.23-.556v-1.5l-2.285.001v.732h-.003l.003.053v.714a.76.76 0 0 1-.23.557.76.76 0 0 1-.555.23h-.715a.76.76 0 0 1-.555-.23.76.76 0 0 1-.23-.557v-.714q0-.018.004-.053h-.004l-.002-.733h-1.5a.76.76 0 0 1-.555-.23.76.76 0 0 1-.23-.555v-2.232h.004l-.005-.054V22.5q.001-.325.23-.556a.76.76 0 0 1 .556-.23h.714a.76.76 0 0 1 .557.23q.23.23.23.556v.714q0 .018-.006.054h.005V24h2.286v-2.286l.001-2.285h-1.5a.76.76 0 0 1-.555-.23.76.76 0 0 1-.23-.556l-.002-1.5h-1.5a.76.76 0 0 1-.555-.23.76.76 0 0 1-.23-.556v-.714q0-.327.23-.556a.76.76 0 0 1 .555-.23h1.501V12.57h-1.5a.76.76 0 0 1-.556-.23.76.76 0 0 1-.23-.555V9.554h.004l-.005-.054v-.715q.001-.325.23-.556A.76.76 0 0 1 27.072 8zm-4.57 27.429q.327 0 .556.23t.23.556v.714a.76.76 0 0 1-.23.555.76.76 0 0 1-.555.23h-3.002a.76.76 0 0 1-.556-.23.76.76 0 0 1-.23-.555v-.715q0-.326.23-.556a.76.76 0 0 1 .556-.23zm31.999 0q.325 0 .556.23.23.23.23.556v.714a.76.76 0 0 1-.23.555.76.76 0 0 1-.556.23H54.5a.76.76 0 0 1-.556-.23.76.76 0 0 1-.23-.555v-.714q0-.326.23-.556a.76.76 0 0 1 .556-.23zM11.786 28.57q.326 0 .556.23t.23.555v.715q0 .018-.005.054h.005v3.018h1.5q.326 0 .556.23t.23.556v2.231h-.005l.004.054v.715a.76.76 0 0 1-.23.555.76.76 0 0 1-.555.23h-.715a.76.76 0 0 1-.555-.23.76.76 0 0 1-.23-.555v-.715q0-.018.004-.054h-.004v-.732h-1.5a.76.76 0 0 1-.555-.23.76.76 0 0 1-.23-.556v-4.517h.004l-.005-.054v-.715q.001-.325.23-.555a.76.76 0 0 1 .556-.23zm16 2.286q.325 0 .556.23.23.23.23.556v.714q0 .018-.006.054h.005v2.232a.76.76 0 0 1-.23.555.76.76 0 0 1-.556.23h-3a.76.76 0 0 1-.555-.23.76.76 0 0 1-.231-.556v-.714q0-.326.23-.556a.76.76 0 0 1 .556-.23h1.5v-.73h.005l-.005-.055v-.714q0-.327.23-.556a.76.76 0 0 1 .556-.23zm16 2.286q.325 0 .556.23.23.23.23.556v.714a.76.76 0 0 1-.23.555.76.76 0 0 1-.557.23h-.714a.76.76 0 0 1-.555-.23.76.76 0 0 1-.23-.555v-.714a.76.76 0 0 1 .23-.557.76.76 0 0 1 .555-.23zm-25.144-.001q.326 0 .555.23t.23.556v.714a.76.76 0 0 1-.23.556.76.76 0 0 1-.555.23h-.714a.76.76 0 0 1-.556-.23.76.76 0 0 1-.23-.556v-.714q0-.326.23-.556a.76.76 0 0 1 .556-.23zm4.574-2.286a.76.76 0 0 1 .555.23q.23.231.23.557v.713a.76.76 0 0 1-.23.556.76.76 0 0 1-.555.23h-3.002a.76.76 0 0 1-.556-.229.76.76 0 0 1-.23-.556v-.714q0-.327.23-.556a.76.76 0 0 1 .556-.23h3.002M9.5 26.286q.325 0 .556.23.23.23.23.555v.714a.76.76 0 0 1-.23.556.76.76 0 0 1-.556.23h-.714a.76.76 0 0 1-.557-.23.76.76 0 0 1-.229-.556v-.714q0-.325.23-.555a.76.76 0 0 1 .556-.23zm6.857 0q.327 0 .556.23t.23.555v.714a.76.76 0 0 1-.23.556.76.76 0 0 1-.556.23h-3a.76.76 0 0 1-.555-.23.76.76 0 0 1-.23-.556v-.714q0-.325.23-.555a.76.76 0 0 1 .555-.23zm9.142 0q.325 0 .556.23.23.23.23.555v.714a.76.76 0 0 1-.23.557.76.76 0 0 1-.556.23h-5.285a.76.76 0 0 1-.556-.231.76.76 0 0 1-.23-.556v-.714q0-.325.23-.555a.76.76 0 0 1 .556-.23zM24 24H8l.003-10.537C8.003 10.452 10.426 8 13.405 8H24zm9.144 0 2.284-.001v-2.285h-2.284zm17.45-16c2.98 0 5.403 2.451 5.403 5.463L56 24H40V8zm-37.189 2.4c-1.655 0-3.001 1.374-3.002 3.063L10.4 21.6h11.2V10.4zM42.4 21.6h11.2l-.003-8.137c0-1.69-1.347-3.063-3.002-3.063H42.4zM18.736 12.57h.696v6.857h-6.858l.002-4.963c0-1.044.835-1.894 1.86-1.895h3.123zm30.824 0c1.026 0 1.862.85 1.862 1.894l.002 4.963h-6.858V12.57h4.994M34.644 8q.325 0 .555.23t.23.555V9.5a.76.76 0 0 1-.23.556.76.76 0 0 1-.555.23h-.714a.76.76 0 0 1-.557-.23.76.76 0 0 1-.23-.556v-.715q0-.325.23-.556A.76.76 0 0 1 33.93 8z"
        />
        <path fill="url(#h)" d="M4 32h56v16H4z" />
        <path fill="#1e009b" d="M60 31.998v1H4v-1z" opacity=".25" />
        <g clip-path="url(#i)" data-figma-skip-parse="true">
            <g fill="url(#j)" shape-rendering="crispEdges" transform="matrix(0 .056 -.056 0 31.998 32)">
                <path d="M0 0h589.286v589.324H0z" />
                <path d="M0 0h589.286v-589.324H0z" />
                <path d="M0 0h-589.286v589.324H0z" />
                <path d="M0 0h-589.286v-589.324H0z" />
            </g>
        </g>
        <path
            d="M0 50.5v-3a1 1 0 1 1 2 0v3C2 56.851 7.149 62 13.5 62h3a1 1 0 1 1 0 2h-3C6.044 64 0 57.956 0 50.5m62 0v-3a1 1 0 1 1 2 0v3C64 57.956 57.956 64 50.5 64h-3a1 1 0 1 1 0-2h3C56.851 62 62 56.851 62 50.5m-62-34v-3C0 6.044 6.044 0 13.5 0h3a1 1 0 1 1 0 2h-3C7.149 2 2 7.149 2 13.5v3a1 1 0 1 1-2 0m62 0v-3C62 7.149 56.851 2 50.5 2h-3a1 1 0 1 1 0-2h3C57.956 0 64 6.044 64 13.5v3a1 1 0 1 1-2 0"
            data-figma-gradient-fill='{"type":"GRADIENT_DIAMOND","stops":[{"color":{"r":0.22352941334247589,"g":0.7294117808341980,"b":0.44313725829124451,"a":0.50},"position":0.80000001192092896},{"color":{"r":0.058823529630899429,"g":0.74117648601531982,"b":0.67058825492858887,"a":1.0},"position":1.0}],"stopsVar":[{"color":{"r":0.22352941334247589,"g":0.7294117808341980,"b":0.44313725829124451,"a":0.50},"position":0.80000001192092896},{"color":{"r":0.058823529630899429,"g":0.74117648601531982,"b":0.67058825492858887,"a":1.0},"position":1.0}],"transform":{"m00":-4.5161053716102906e-12,"m01":-111.99999237060547,"m02":87.997840881347656,"m10":111.99999237060547,"m11":-4.1174424980638946e-12,"m12":-24.0},"opacity":1.0,"blendMode":"NORMAL","visible":true}'
        />
        <g filter="url(#k)"><path fill="url(#l)" d="M0 31a1 1 0 0 1 1-1h62a1 1 0 1 1 0 2H1a1 1 0 0 1-1-1" /></g>
        <g filter="url(#m)">
            <mask id="p" fill="#fff">
                <path
                    fill-rule="evenodd"
                    d="M42.288 47a7.002 7.002 0 0 1 13.708 2.001A6.999 6.999 0 0 1 42.288 51H37v5h-4v-5h-3v-4zm3.708 2.001a3 3 0 1 0 6 0 3 3 0 0 0-6 0"
                    clip-rule="evenodd"
                />
            </mask>
            <path
                fill="url(#n)"
                fill-rule="evenodd"
                d="M42.288 47a7.002 7.002 0 0 1 13.708 2.001A6.999 6.999 0 0 1 42.288 51H37v5h-4v-5h-3v-4zm3.708 2.001a3 3 0 1 0 6 0 3 3 0 0 0-6 0"
                clip-rule="evenodd"
            />
            <path
                fill="url(#o)"
                fill-opacity=".5"
                d="M42.288 47v.2h.15l.042-.143zm13.708 2.001h.2zM42.288 51l.192-.057-.043-.143h-.149zM37 51v-.2h-.2v.2zm0 5v.2h.2V56zm-4 0h-.2v.2h.2zm0-5h.2v-.2H33zm-3 0h-.2v.2h.2zm0-4v-.2h-.2v.2zm15.996 2.001h-.2zm6 0h.2zM42.288 47l.192.057a6.8 6.8 0 0 1 6.516-4.854v-.4a7.2 7.2 0 0 0-6.9 5.14zm6.708-4.997v.2a6.8 6.8 0 0 1 6.8 6.798h.4a7.2 7.2 0 0 0-7.2-7.198zm7 6.998h-.2a6.8 6.8 0 0 1-6.8 6.797v.4c3.976 0 7.2-3.222 7.2-7.197zm-7 6.997v-.2a6.8 6.8 0 0 1-6.516-4.855l-.192.057-.192.057a7.2 7.2 0 0 0 6.9 5.141zM42.288 51v-.2H37v.4h5.288zM37 51h-.2v5h.4v-5zm0 5v-.2h-4v.4h4zm-4 0h.2v-5h-.4v5zm0-5v-.2h-3v.4h3zm-3 0h.2v-4h-.4v4zm0-4v.2h12.288v-.4H30zm15.996 2.001h-.2a3.2 3.2 0 0 0 3.2 3.2v-.4a2.8 2.8 0 0 1-2.8-2.8zm3 3v.2a3.2 3.2 0 0 0 3.2-3.2h-.4a2.8 2.8 0 0 1-2.8 2.8zm3-3h.2a3.2 3.2 0 0 0-3.2-3.199v.4a2.8 2.8 0 0 1 2.8 2.799zm-3-2.999v-.2a3.2 3.2 0 0 0-3.2 3.199h.4a2.8 2.8 0 0 1 2.8-2.799z"
                mask="url(#p)"
            />
        </g>
    </g>
    <defs>
        <linearGradient id="b" x1="3" x2="3" y1="32" y2="49.524" gradientUnits="userSpaceOnUse">
            <stop stop-color="#c1b2ff" stop-opacity=".3" />
            <stop offset="1" stop-color="#c1b2ff" stop-opacity="0" />
        </linearGradient>
        <linearGradient id="c" x1="61" x2="61" y1="32" y2="49.524" gradientUnits="userSpaceOnUse">
            <stop stop-color="#c1b2ff" stop-opacity=".3" />
            <stop offset="1" stop-color="#c1b2ff" stop-opacity="0" />
        </linearGradient>
        <linearGradient id="e" x1="32" x2="32" y1="4" y2="60" gradientUnits="userSpaceOnUse">
            <stop stop-color="#f5f6fe" />
            <stop offset="1" stop-color="#dddefb" />
        </linearGradient>
        <linearGradient id="f" x1="32" x2="32" y1="4" y2="60" gradientUnits="userSpaceOnUse">
            <stop stop-color="#fff" />
            <stop offset="1" stop-color="#fff" stop-opacity="0" />
        </linearGradient>
        <linearGradient id="h" x1="31.997" x2="31.997" y1="32" y2="48" gradientUnits="userSpaceOnUse">
            <stop stop-color="#0fbdab" stop-opacity=".25" />
            <stop offset="1" stop-color="#c1b2ff" stop-opacity="0" />
        </linearGradient>
        <linearGradient id="j" x1="0" x2="500" y1="0" y2="500" gradientUnits="userSpaceOnUse">
            <stop offset=".8" stop-color="#39ba71" stop-opacity=".5" />
            <stop offset="1" stop-color="#0fbdab" />
        </linearGradient>
        <linearGradient id="l" x1="0" x2="64" y1="31" y2="31" gradientUnits="userSpaceOnUse">
            <stop stop-color="#39ba71" stop-opacity=".5" />
            <stop offset=".3" stop-color="#00c5b1" />
            <stop offset=".5" stop-color="#00f4d2" />
            <stop offset=".7" stop-color="#00c5b1" />
            <stop offset="1" stop-color="#39ba71" stop-opacity=".5" />
        </linearGradient>
        <linearGradient id="n" x1="15.558" x2="43.585" y1="42.003" y2="68.765" gradientUnits="userSpaceOnUse">
            <stop stop-color="#52c69d" />
            <stop offset="1" stop-color="#238f85" />
        </linearGradient>
        <filter
            id="d"
            width="60"
            height="60"
            x="2"
            y="2.5"
            color-interpolation-filters="sRGB"
            filterUnits="userSpaceOnUse"
        >
            <feFlood flood-opacity="0" result="BackgroundImageFix" />
            <feColorMatrix in="SourceAlpha" result="hardAlpha" values="0 0 0 0 0 0 0 0 0 0 0 0 0 0 0 0 0 0 127 0" />
            <feOffset dy=".5" />
            <feGaussianBlur stdDeviation="1" />
            <feComposite in2="hardAlpha" operator="out" />
            <feColorMatrix values="0 0 0 0 0.145098 0 0 0 0 0.0980392 0 0 0 0 0.32549 0 0 0 0.2 0" />
            <feBlend in2="BackgroundImageFix" result="effect1_dropShadow_16631_4944" />
            <feBlend in="SourceGraphic" in2="effect1_dropShadow_16631_4944" result="shape" />
        </filter>
        <filter
            id="k"
            width="64"
            height="2"
            x="0"
            y="30"
            color-interpolation-filters="sRGB"
            filterUnits="userSpaceOnUse"
        >
            <feFlood flood-opacity="0" result="BackgroundImageFix" />
            <feBlend in="SourceGraphic" in2="BackgroundImageFix" result="shape" />
            <feColorMatrix in="SourceAlpha" result="hardAlpha" values="0 0 0 0 0 0 0 0 0 0 0 0 0 0 0 0 0 0 127 0" />
            <feOffset dy=".25" />
            <feComposite in2="hardAlpha" k2="-1" k3="1" operator="arithmetic" />
            <feColorMatrix values="0 0 0 0 1 0 0 0 0 1 0 0 0 0 1 0 0 0 0.5 0" />
            <feBlend in2="shape" result="effect1_innerShadow_16631_4944" />
        </filter>
        <filter
            id="m"
            width="33.996"
            height="21.997"
            x="26"
            y="38.003"
            color-interpolation-filters="sRGB"
            filterUnits="userSpaceOnUse"
        >
            <feFlood flood-opacity="0" result="BackgroundImageFix" />
            <feColorMatrix in="SourceAlpha" result="hardAlpha" values="0 0 0 0 0 0 0 0 0 0 0 0 0 0 0 0 0 0 127 0" />
            <feOffset />
            <feGaussianBlur stdDeviation="2" />
            <feColorMatrix values="0 0 0 0 0.913725 0 0 0 0 0.917647 0 0 0 0 0.988235 0 0 0 1 0" />
            <feBlend in2="BackgroundImageFix" result="effect1_dropShadow_16631_4944" />
            <feBlend in="SourceGraphic" in2="effect1_dropShadow_16631_4944" result="shape" />
        </filter>
        <radialGradient
            id="g"
            cx="0"
            cy="0"
            r="1"
            gradientTransform="rotate(229.6 38.438 16.217)scale(61.7171 72.7823)"
            gradientUnits="userSpaceOnUse"
        >
            <stop stop-color="#c5c6f8" />
            <stop offset=".497" stop-color="#5d5677" />
            <stop offset="1" stop-color="#614db3" />
        </radialGradient>
        <radialGradient
            id="o"
            cx="0"
            cy="0"
            r="1"
            gradientTransform="matrix(12.864 5.16355 -44.628 6.25494 40.885 48.255)"
            gradientUnits="userSpaceOnUse"
        >
            <stop stop-color="#fff" stop-opacity="0" />
            <stop offset="1" stop-color="#fff" />
        </radialGradient>
        <clipPath id="i">
            <path
                d="M0 50.5v-3a1 1 0 1 1 2 0v3C2 56.851 7.149 62 13.5 62h3a1 1 0 1 1 0 2h-3C6.044 64 0 57.956 0 50.5m62 0v-3a1 1 0 1 1 2 0v3C64 57.956 57.956 64 50.5 64h-3a1 1 0 1 1 0-2h3C56.851 62 62 56.851 62 50.5m-62-34v-3C0 6.044 6.044 0 13.5 0h3a1 1 0 1 1 0 2h-3C7.149 2 2 7.149 2 13.5v3a1 1 0 1 1-2 0m62 0v-3C62 7.149 56.851 2 50.5 2h-3a1 1 0 1 1 0-2h3C57.956 0 64 6.044 64 13.5v3a1 1 0 1 1-2 0"
            />
        </clipPath>
        <clipPath id="a"><path fill="#fff" d="M0 0h64v64H0z" /></clipPath>
    </defs>
</svg>
