<svg width="80" height="70" viewBox="0 0 80 70" fill="none" xmlns="http://www.w3.org/2000/svg">
    <g clip-path="url(#clip0_10261_104414)">
        <g filter="url(#filter0_d_10261_104414)">
            <path
                d="M21.6393 27.2765C27.1004 27.2765 31.5275 22.8493 31.5275 17.3882C31.5275 11.9271 27.1004 7.5 21.6393 7.5C16.1782 7.5 11.7511 11.9271 11.7511 17.3882C11.7511 22.8493 16.1782 27.2765 21.6393 27.2765Z"
                fill="url(#paint0_linear_10261_104414)"
            />
            <path
                d="M7.93403 55.2052C2.0358 55.2052 -1.95418 48.7865 0.994936 43.7556C4.98491 36.4696 12.7914 31.4387 21.8122 31.4387C30.833 31.4387 38.466 36.2961 42.6295 43.7556C45.5786 48.96 41.5886 55.2052 35.6904 55.2052H7.93403Z"
                fill="url(#paint1_linear_10261_104414)"
            />
        </g>
        <g filter="url(#filter1_d_10261_104414)">
            <path
                d="M49.782 24.8734C56.6671 24.8734 62.2487 19.3052 62.2487 12.4367C62.2487 5.56808 56.6671 0 49.782 0C42.8968 0 37.3154 5.56808 37.3154 12.4367C37.3154 19.3052 42.8968 24.8734 49.782 24.8734Z"
                fill="url(#paint2_linear_10261_104414)"
            />
            <path
                d="M32.5029 60C25.0667 60 20.0362 51.9271 23.7544 45.5996C28.7848 36.4358 38.6269 30.1083 50 30.1083C61.3731 30.1083 70.9965 36.2176 76.2456 45.5996C79.9638 52.1452 74.9333 60 67.4971 60H32.5029Z"
                fill="url(#paint3_linear_10261_104414)"
            />
        </g>
        <g filter="url(#filter2_d_10261_104414)">
            <path
                d="M63.75 30L47.5 35.1471V50.4412C47.5 61.6177 63.75 67.5 63.75 67.5C63.75 67.5 80 61.6177 80 50.4412V35.1471L63.75 30Z"
                fill="url(#paint4_linear_10261_104414)"
            />
            <path
                d="M79.9004 35.2197V50.4414C79.9003 55.9784 75.8734 60.217 71.8174 63.0801C69.7921 64.5097 67.7661 65.5919 66.2461 66.3164C65.4863 66.6785 64.853 66.9507 64.4102 67.1328C64.1887 67.2238 64.0148 67.2923 63.8965 67.3379C63.8375 67.3606 63.7921 67.3773 63.7617 67.3887C63.7577 67.3902 63.7535 67.3913 63.75 67.3926C63.7465 67.3913 63.7423 67.3902 63.7383 67.3887C63.7079 67.3773 63.6625 67.3606 63.6035 67.3379C63.4852 67.2923 63.3113 67.2238 63.0898 67.1328C62.647 66.9507 62.0137 66.6785 61.2539 66.3164C59.7339 65.5919 57.7079 64.5097 55.6826 63.0801C51.6266 60.217 47.5997 55.9784 47.5996 50.4414V35.2197L63.75 30.1045L79.9004 35.2197Z"
                stroke="url(#paint5_radial_10261_104414)"
                stroke-opacity="0.5"
                stroke-width="0.2"
            />
        </g>
        <g filter="url(#filter3_dd_10261_104414)">
            <path
                d="M63.75 40C65.8211 40 67.5 41.6789 67.5 43.75C67.5 45.3299 66.5224 46.6801 65.1396 47.2324L66.1689 54.4297C66.2116 54.7306 65.9778 54.9998 65.6738 55H61.8262C61.5222 54.9998 61.2884 54.7306 61.3311 54.4297L62.3594 47.2324C60.977 46.6799 60 45.3296 60 43.75C60 41.6789 61.6789 40 63.75 40Z"
                fill="url(#paint6_linear_10261_104414)"
            />
        </g>
    </g>
    <defs>
        <filter
            id="filter0_d_10261_104414"
            x="-2"
            y="6.5"
            width="47.6244"
            height="51.707"
            filterUnits="userSpaceOnUse"
            color-interpolation-filters="sRGB"
        >
            <feFlood flood-opacity="0" result="BackgroundImageFix" />
            <feColorMatrix
                in="SourceAlpha"
                type="matrix"
                values="0 0 0 0 0 0 0 0 0 0 0 0 0 0 0 0 0 0 127 0"
                result="hardAlpha"
            />
            <feOffset dy="1" />
            <feGaussianBlur stdDeviation="1" />
            <feComposite in2="hardAlpha" operator="out" />
            <feColorMatrix type="matrix" values="0 0 0 0 0.0627451 0 0 0 0 0.176471 0 0 0 0 0.305882 0 0 0 0.1 0" />
            <feBlend mode="normal" in2="BackgroundImageFix" result="effect1_dropShadow_10261_104414" />
            <feBlend mode="normal" in="SourceGraphic" in2="effect1_dropShadow_10261_104414" result="shape" />
        </filter>
        <filter
            id="filter1_d_10261_104414"
            x="20.5"
            y="-1"
            width="59"
            height="64"
            filterUnits="userSpaceOnUse"
            color-interpolation-filters="sRGB"
        >
            <feFlood flood-opacity="0" result="BackgroundImageFix" />
            <feColorMatrix
                in="SourceAlpha"
                type="matrix"
                values="0 0 0 0 0 0 0 0 0 0 0 0 0 0 0 0 0 0 127 0"
                result="hardAlpha"
            />
            <feOffset dy="1" />
            <feGaussianBlur stdDeviation="1" />
            <feComposite in2="hardAlpha" operator="out" />
            <feColorMatrix type="matrix" values="0 0 0 0 0.0627451 0 0 0 0 0.176471 0 0 0 0 0.305882 0 0 0 0.1 0" />
            <feBlend mode="normal" in2="BackgroundImageFix" result="effect1_dropShadow_10261_104414" />
            <feBlend mode="normal" in="SourceGraphic" in2="effect1_dropShadow_10261_104414" result="shape" />
        </filter>
        <filter
            id="filter2_d_10261_104414"
            x="42.5"
            y="27"
            width="40.5"
            height="45.5"
            filterUnits="userSpaceOnUse"
            color-interpolation-filters="sRGB"
        >
            <feFlood flood-opacity="0" result="BackgroundImageFix" />
            <feColorMatrix
                in="SourceAlpha"
                type="matrix"
                values="0 0 0 0 0 0 0 0 0 0 0 0 0 0 0 0 0 0 127 0"
                result="hardAlpha"
            />
            <feOffset dx="-1" dy="1" />
            <feGaussianBlur stdDeviation="2" />
            <feComposite in2="hardAlpha" operator="out" />
            <feColorMatrix type="matrix" values="0 0 0 0 0.0755788 0 0 0 0 0.397647 0 0 0 0 0.705559 0 0 0 0.2 0" />
            <feBlend mode="normal" in2="BackgroundImageFix" result="effect1_dropShadow_10261_104414" />
            <feBlend mode="normal" in="SourceGraphic" in2="effect1_dropShadow_10261_104414" result="shape" />
        </filter>
        <filter
            id="filter3_dd_10261_104414"
            x="30"
            y="12.5"
            width="67.5"
            height="75"
            filterUnits="userSpaceOnUse"
            color-interpolation-filters="sRGB"
        >
            <feFlood flood-opacity="0" result="BackgroundImageFix" />
            <feColorMatrix
                in="SourceAlpha"
                type="matrix"
                values="0 0 0 0 0 0 0 0 0 0 0 0 0 0 0 0 0 0 127 0"
                result="hardAlpha"
            />
            <feOffset dy="2.5" />
            <feGaussianBlur stdDeviation="15" />
            <feComposite in2="hardAlpha" operator="out" />
            <feColorMatrix type="matrix" values="0 0 0 0 1 0 0 0 0 1 0 0 0 0 1 0 0 0 0.8 0" />
            <feBlend mode="normal" in2="BackgroundImageFix" result="effect1_dropShadow_10261_104414" />
            <feColorMatrix
                in="SourceAlpha"
                type="matrix"
                values="0 0 0 0 0 0 0 0 0 0 0 0 0 0 0 0 0 0 127 0"
                result="hardAlpha"
            />
            <feOffset dy="2" />
            <feGaussianBlur stdDeviation="2" />
            <feComposite in2="hardAlpha" operator="out" />
            <feColorMatrix type="matrix" values="0 0 0 0 0.172549 0 0 0 0 0.513726 0 0 0 0 0.862745 0 0 0 0.5 0" />
            <feBlend mode="normal" in2="effect1_dropShadow_10261_104414" result="effect2_dropShadow_10261_104414" />
            <feBlend mode="normal" in="SourceGraphic" in2="effect2_dropShadow_10261_104414" result="shape" />
        </filter>
        <linearGradient
            id="paint0_linear_10261_104414"
            x1="15.353"
            y1="9.29775"
            x2="34.1214"
            y2="42.2887"
            gradientUnits="userSpaceOnUse"
        >
            <stop stop-color="#83BDF5" />
            <stop offset="1" stop-color="#D6E9FA" />
        </linearGradient>
        <linearGradient
            id="paint1_linear_10261_104414"
            x1="15.353"
            y1="9.29775"
            x2="34.1214"
            y2="42.2887"
            gradientUnits="userSpaceOnUse"
        >
            <stop stop-color="#83BDF5" />
            <stop offset="1" stop-color="#D6E9FA" />
        </linearGradient>
        <linearGradient
            id="paint2_linear_10261_104414"
            x1="41.25"
            y1="2.5"
            x2="61.7135"
            y2="51.0546"
            gradientUnits="userSpaceOnUse"
        >
            <stop stop-color="#54A5F3" />
            <stop offset="1" stop-color="#BBDAF7" />
        </linearGradient>
        <linearGradient
            id="paint3_linear_10261_104414"
            x1="41.25"
            y1="2.5"
            x2="61.7135"
            y2="51.0546"
            gradientUnits="userSpaceOnUse"
        >
            <stop stop-color="#54A5F3" />
            <stop offset="1" stop-color="#BBDAF7" />
        </linearGradient>
        <linearGradient
            id="paint4_linear_10261_104414"
            x1="65.1042"
            y1="27.5"
            x2="43.2276"
            y2="43.0653"
            gradientUnits="userSpaceOnUse"
        >
            <stop stop-color="#54A5F3" />
            <stop offset="1" stop-color="#2984DB" />
        </linearGradient>
        <radialGradient
            id="paint5_radial_10261_104414"
            cx="0"
            cy="0"
            r="1"
            gradientTransform="matrix(-11.9893 19.7937 -14.5234 -68.6688 65.484 44.2485)"
            gradientUnits="userSpaceOnUse"
        >
            <stop stop-color="white" stop-opacity="0" />
            <stop offset="1" stop-color="white" />
        </radialGradient>
        <linearGradient
            id="paint6_linear_10261_104414"
            x1="67.5498"
            y1="41.875"
            x2="57.0987"
            y2="48.6063"
            gradientUnits="userSpaceOnUse"
        >
            <stop stop-color="white" />
            <stop offset="1" stop-color="#CEF2FF" />
        </linearGradient>
        <clipPath id="clip0_10261_104414">
            <rect width="80" height="70" fill="white" />
        </clipPath>
    </defs>
</svg>
