<svg xmlns="http://www.w3.org/2000/svg" width="64" height="64" fill="none" viewBox="0 0 64 64">
    <g clip-path="url(#a)">
        <mask id="b" width="64" height="63" x="0" y="1" maskUnits="userSpaceOnUse" style="mask-type: alpha">
            <path
                fill="#000"
                d="M0 25a2 2 0 0 1 .8-1.6L29.6 1.8a4 4 0 0 1 4.8 0l28.8 21.6A2 2 0 0 1 64 25v35a4 4 0 0 1-4 4H4a4 4 0 0 1-4-4z"
            />
        </mask>
        <g mask="url(#b)">
            <path fill="url(#c)" d="M30.2 1.35a3 3 0 0 1 3.6 0L64 24H0z" />
            <path fill="url(#d)" d="M0 24h64v40H0z" />
            <path stroke="#27213d" stroke-opacity=".5" stroke-width=".2" d="M63.9 24.1v39.8H.1V24.1z" />
        </g>
        <g filter="url(#e)"><path fill="url(#f)" d="M6 18a6 6 0 0 1 6-6h40a6 6 0 0 1 6 6v26H6z" /></g>
        <g filter="url(#g)">
            <path
                fill="url(#h)"
                fill-opacity=".5"
                d="M57.6 18a5.6 5.6 0 0 0-5.6-5.6H12A5.6 5.6 0 0 0 6.4 18v25.6h51.2zm.4 26H6V18a6 6 0 0 1 6-6h40l.309.008A6 6 0 0 1 58 18z"
                shape-rendering="crispEdges"
            />
        </g>
        <path
            fill="url(#i)"
            fill-rule="evenodd"
            d="M17.314 18c.48 0 .87.39.87.87v3.62l3.136-1.81a.871.871 0 1 1 .87 1.509l-3.137 1.81 3.137 1.813a.87.87 0 1 1-.87 1.508l-3.136-1.812v3.622a.87.87 0 0 1-1.742 0v-3.622l-3.137 1.812a.871.871 0 0 1-.87-1.509L15.57 24l-3.135-1.81a.871.871 0 0 1 .87-1.509l3.137 1.81v-3.62c0-.48.391-.87.872-.87m14.68 0c.48 0 .87.39.87.87v3.62L36 20.68a.87.87 0 1 1 .87 1.509l-3.136 1.81 3.136 1.813A.87.87 0 1 1 36 27.32l-3.136-1.812v3.622a.87.87 0 0 1-1.742 0v-3.622l-3.136 1.812a.871.871 0 0 1-.87-1.509L30.249 24l-3.133-1.81a.871.871 0 0 1 .87-1.509l3.136 1.81v-3.62c0-.48.392-.87.872-.87m14.68 0c.48 0 .87.39.87.87v3.62l3.136-1.81a.871.871 0 0 1 .87 1.509l-3.136 1.81 3.136 1.813a.87.87 0 0 1-.87 1.508l-3.137-1.812v3.622a.87.87 0 0 1-1.742 0v-3.622l-3.137 1.812a.87.87 0 0 1-.869-1.509L44.93 24l-3.134-1.81a.87.87 0 0 1 .87-1.509l3.136 1.81v-3.62c0-.48.392-.87.872-.87"
            clip-rule="evenodd"
        />
        <mask id="j" width="64" height="63" x="0" y="1" maskUnits="userSpaceOnUse" style="mask-type: alpha">
            <path
                fill="#000"
                d="M0 25a2 2 0 0 1 .8-1.6L29.6 1.8a4 4 0 0 1 4.8 0l28.8 21.6A2 2 0 0 1 64 25v35a4 4 0 0 1-4 4H4a4 4 0 0 1-4-4z"
            />
        </mask>
        <g mask="url(#j)">
            <g filter="url(#k)"><path fill="url(#l)" d="m0 24 32 20L0 64z" /></g>
            <g filter="url(#m)"><path fill="url(#n)" d="m32 44 32-20v40z" /></g>
            <g filter="url(#o)"><path fill="url(#p)" d="M30.2 41.35a3 3 0 0 1 3.6 0L64 64H0z" /></g>
        </g>
        <g filter="url(#q)">
            <mask id="t" fill="#fff">
                <path
                    fill-rule="evenodd"
                    d="M55.335 48.4A7.002 7.002 0 0 1 53 62a7 7 0 0 1-2.332-13.6v-5.067H46v-4.667h4.668V35h4.667zM53 52a3 3 0 1 0 0 6 3 3 0 0 0 0-6"
                    clip-rule="evenodd"
                />
            </mask>
            <path
                fill="url(#r)"
                fill-rule="evenodd"
                d="M55.335 48.4A7.002 7.002 0 0 1 53 62a7 7 0 0 1-2.332-13.6v-5.067H46v-4.667h4.668V35h4.667zM53 52a3 3 0 1 0 0 6 3 3 0 0 0 0-6"
                clip-rule="evenodd"
            />
            <path
                fill="url(#s)"
                d="M55.335 48.4h-.2v.142l.133.047zm-4.667 0 .067.188.133-.047v-.142zm0-5.067h.2v-.2h-.2zm-4.668 0h-.2v.2h.2zm0-4.667v-.2h-.2v.2zm4.668 0v.2h.2v-.2zm0-3.666v-.2h-.2v.2zm4.667 0h.2v-.2h-.2zm0 13.4-.067.189A6.8 6.8 0 0 1 59.8 55h.4c0-3.135-2.003-5.8-4.798-6.788zM60 55h-.2a6.8 6.8 0 0 1-6.8 6.8v.4a7.2 7.2 0 0 0 7.2-7.2zm-7 7v-.2a6.8 6.8 0 0 1-6.8-6.8h-.4a7.2 7.2 0 0 0 7.2 7.2zm-7-7h.2a6.8 6.8 0 0 1 4.535-6.412l-.067-.189-.067-.188A7.2 7.2 0 0 0 45.8 55zm4.668-6.6h.2v-5.067h-.4v5.066zm0-5.067v-.2H46v.4h4.668zm-4.668 0h.2v-4.667h-.4v4.667zm0-4.667v.2h4.668v-.4H46zm4.668 0h.2V35h-.4v3.666zm0-3.666v.2h4.667v-.4h-4.667zm4.667 0h-.2v13.4h.4V35zM53 52v-.2a3.2 3.2 0 0 0-3.2 3.2h.4a2.8 2.8 0 0 1 2.8-2.8zm-3 3h-.2a3.2 3.2 0 0 0 3.2 3.2v-.4a2.8 2.8 0 0 1-2.8-2.8zm3 3v.2a3.2 3.2 0 0 0 3.2-3.2h-.4a2.8 2.8 0 0 1-2.8 2.8zm3-3h.2a3.2 3.2 0 0 0-3.2-3.2v.4a2.8 2.8 0 0 1 2.8 2.8z"
                mask="url(#t)"
            />
        </g>
    </g>
    <defs>
        <linearGradient id="d" x1="32" x2="32" y1="24" y2="64" gradientUnits="userSpaceOnUse">
            <stop stop-color="#615eba" />
            <stop offset="1" stop-color="#46439c" />
        </linearGradient>
        <linearGradient id="f" x1="26.091" x2="45.161" y1="12" y2="35.693" gradientUnits="userSpaceOnUse">
            <stop stop-color="#f5fff5" />
            <stop offset="1" stop-color="#baf8e6" />
        </linearGradient>
        <linearGradient id="i" x1="13.582" x2="46.678" y1="24.05" y2="24.05" gradientUnits="userSpaceOnUse">
            <stop stop-color="#3ba36b" />
            <stop offset="1" stop-color="#1fa698" />
        </linearGradient>
        <linearGradient id="l" x1="30.546" x2=".308" y1="24" y2="59.732" gradientUnits="userSpaceOnUse">
            <stop stop-color="#e9eafc" />
            <stop offset="1" stop-color="#adabe3" />
        </linearGradient>
        <linearGradient id="n" x1="62.545" x2="32.308" y1="24" y2="59.732" gradientUnits="userSpaceOnUse">
            <stop stop-color="#e9eafc" />
            <stop offset="1" stop-color="#c5c6f8" />
        </linearGradient>
        <linearGradient id="p" x1="61.091" x2="52.316" y1="40" y2="74.565" gradientUnits="userSpaceOnUse">
            <stop stop-color="#e9eafc" />
            <stop offset="1" stop-color="#c5c6f8" />
        </linearGradient>
        <linearGradient id="r" x1="60" x2="34.178" y1="25" y2="49.065" gradientUnits="userSpaceOnUse">
            <stop stop-color="#a9eeb4" />
            <stop offset="1" stop-color="#1fa698" />
        </linearGradient>
        <filter
            id="e"
            width="84"
            height="64"
            x="-10"
            y="-2"
            color-interpolation-filters="sRGB"
            filterUnits="userSpaceOnUse"
        >
            <feFlood flood-opacity="0" result="BackgroundImageFix" />
            <feColorMatrix in="SourceAlpha" result="hardAlpha" values="0 0 0 0 0 0 0 0 0 0 0 0 0 0 0 0 0 0 127 0" />
            <feOffset dy="2" />
            <feGaussianBlur stdDeviation="8" />
            <feComposite in2="hardAlpha" operator="out" />
            <feColorMatrix values="0 0 0 0 1 0 0 0 0 1 0 0 0 0 1 0 0 0 0.75 0" />
            <feBlend in2="BackgroundImageFix" result="effect1_dropShadow_16631_4863" />
            <feColorMatrix in="SourceAlpha" result="hardAlpha" values="0 0 0 0 0 0 0 0 0 0 0 0 0 0 0 0 0 0 127 0" />
            <feOffset dy="1" />
            <feGaussianBlur stdDeviation="2" />
            <feComposite in2="hardAlpha" operator="out" />
            <feColorMatrix values="0 0 0 0 0.180392 0 0 0 0 0.470588 0 0 0 0 0.32549 0 0 0 0.2 0" />
            <feBlend in2="effect1_dropShadow_16631_4863" result="effect2_dropShadow_16631_4863" />
            <feBlend in="SourceGraphic" in2="effect2_dropShadow_16631_4863" result="shape" />
        </filter>
        <filter
            id="g"
            width="84"
            height="64"
            x="-10"
            y="-2"
            color-interpolation-filters="sRGB"
            filterUnits="userSpaceOnUse"
        >
            <feFlood flood-opacity="0" result="BackgroundImageFix" />
            <feColorMatrix in="SourceAlpha" result="hardAlpha" values="0 0 0 0 0 0 0 0 0 0 0 0 0 0 0 0 0 0 127 0" />
            <feOffset dy="2" />
            <feGaussianBlur stdDeviation="8" />
            <feComposite in2="hardAlpha" operator="out" />
            <feColorMatrix values="0 0 0 0 1 0 0 0 0 1 0 0 0 0 1 0 0 0 0.75 0" />
            <feBlend in2="BackgroundImageFix" result="effect1_dropShadow_16631_4863" />
            <feColorMatrix in="SourceAlpha" result="hardAlpha" values="0 0 0 0 0 0 0 0 0 0 0 0 0 0 0 0 0 0 127 0" />
            <feOffset dy="1" />
            <feGaussianBlur stdDeviation="2" />
            <feComposite in2="hardAlpha" operator="out" />
            <feColorMatrix values="0 0 0 0 0.180392 0 0 0 0 0.470588 0 0 0 0 0.32549 0 0 0 0.2 0" />
            <feBlend in2="effect1_dropShadow_16631_4863" result="effect2_dropShadow_16631_4863" />
            <feBlend in="SourceGraphic" in2="effect2_dropShadow_16631_4863" result="shape" />
        </filter>
        <filter
            id="k"
            width="34"
            height="44"
            x="-2"
            y="22"
            color-interpolation-filters="sRGB"
            filterUnits="userSpaceOnUse"
        >
            <feFlood flood-opacity="0" result="BackgroundImageFix" />
            <feBlend in="SourceGraphic" in2="BackgroundImageFix" result="shape" />
            <feColorMatrix in="SourceAlpha" result="hardAlpha" values="0 0 0 0 0 0 0 0 0 0 0 0 0 0 0 0 0 0 127 0" />
            <feOffset dy="-2" />
            <feGaussianBlur stdDeviation="1.5" />
            <feComposite in2="hardAlpha" k2="-1" k3="1" operator="arithmetic" />
            <feColorMatrix values="0 0 0 0 0.339765 0 0 0 0 0.268235 0 0 0 0 0.625882 0 0 0 0.2 0" />
            <feBlend in2="shape" result="effect1_innerShadow_16631_4863" />
            <feColorMatrix in="SourceAlpha" result="hardAlpha" values="0 0 0 0 0 0 0 0 0 0 0 0 0 0 0 0 0 0 127 0" />
            <feOffset dx="-3" dy="2" />
            <feGaussianBlur stdDeviation="1" />
            <feComposite in2="hardAlpha" k2="-1" k3="1" operator="arithmetic" />
            <feColorMatrix values="0 0 0 0 1 0 0 0 0 1 0 0 0 0 1 0 0 0 0.1 0" />
            <feBlend in2="effect1_innerShadow_16631_4863" result="effect2_innerShadow_16631_4863" />
        </filter>
        <filter
            id="m"
            width="34"
            height="44"
            x="30"
            y="22"
            color-interpolation-filters="sRGB"
            filterUnits="userSpaceOnUse"
        >
            <feFlood flood-opacity="0" result="BackgroundImageFix" />
            <feBlend in="SourceGraphic" in2="BackgroundImageFix" result="shape" />
            <feColorMatrix in="SourceAlpha" result="hardAlpha" values="0 0 0 0 0 0 0 0 0 0 0 0 0 0 0 0 0 0 127 0" />
            <feOffset dy="-2" />
            <feGaussianBlur stdDeviation="1.5" />
            <feComposite in2="hardAlpha" k2="-1" k3="1" operator="arithmetic" />
            <feColorMatrix values="0 0 0 0 0.404141 0 0 0 0 0.375529 0 0 0 0 0.518588 0 0 0 0.2 0" />
            <feBlend in2="shape" result="effect1_innerShadow_16631_4863" />
            <feColorMatrix in="SourceAlpha" result="hardAlpha" values="0 0 0 0 0 0 0 0 0 0 0 0 0 0 0 0 0 0 127 0" />
            <feOffset dx="-3" dy="2" />
            <feGaussianBlur stdDeviation="1" />
            <feComposite in2="hardAlpha" k2="-1" k3="1" operator="arithmetic" />
            <feColorMatrix values="0 0 0 0 1 0 0 0 0 1 0 0 0 0 1 0 0 0 0.1 0" />
            <feBlend in2="effect1_innerShadow_16631_4863" result="effect2_innerShadow_16631_4863" />
        </filter>
        <filter
            id="o"
            width="66"
            height="27.25"
            x="-2"
            y="38.75"
            color-interpolation-filters="sRGB"
            filterUnits="userSpaceOnUse"
        >
            <feFlood flood-opacity="0" result="BackgroundImageFix" />
            <feBlend in="SourceGraphic" in2="BackgroundImageFix" result="shape" />
            <feColorMatrix in="SourceAlpha" result="hardAlpha" values="0 0 0 0 0 0 0 0 0 0 0 0 0 0 0 0 0 0 127 0" />
            <feOffset dy="-2" />
            <feGaussianBlur stdDeviation="1.5" />
            <feComposite in2="hardAlpha" k2="-1" k3="1" operator="arithmetic" />
            <feColorMatrix values="0 0 0 0 0.436667 0 0 0 0 0.35 0 0 0 0 0.783333 0 0 0 0.2 0" />
            <feBlend in2="shape" result="effect1_innerShadow_16631_4863" />
            <feColorMatrix in="SourceAlpha" result="hardAlpha" values="0 0 0 0 0 0 0 0 0 0 0 0 0 0 0 0 0 0 127 0" />
            <feOffset dx="-3" dy="2" />
            <feGaussianBlur stdDeviation="1" />
            <feComposite in2="hardAlpha" k2="-1" k3="1" operator="arithmetic" />
            <feColorMatrix values="0 0 0 0 1 0 0 0 0 1 0 0 0 0 1 0 0 0 0.1 0" />
            <feBlend in2="effect1_innerShadow_16631_4863" result="effect2_innerShadow_16631_4863" />
            <feColorMatrix in="SourceAlpha" result="hardAlpha" values="0 0 0 0 0 0 0 0 0 0 0 0 0 0 0 0 0 0 127 0" />
            <feOffset dy=".25" />
            <feComposite in2="hardAlpha" k2="-1" k3="1" operator="arithmetic" />
            <feColorMatrix values="0 0 0 0 1 0 0 0 0 1 0 0 0 0 1 0 0 0 0.2 0" />
            <feBlend in2="effect2_innerShadow_16631_4863" result="effect3_innerShadow_16631_4863" />
        </filter>
        <filter
            id="q"
            width="22"
            height="35"
            x="41"
            y="32"
            color-interpolation-filters="sRGB"
            filterUnits="userSpaceOnUse"
        >
            <feFlood flood-opacity="0" result="BackgroundImageFix" />
            <feColorMatrix in="SourceAlpha" result="hardAlpha" values="0 0 0 0 0 0 0 0 0 0 0 0 0 0 0 0 0 0 127 0" />
            <feOffset dx="-1" dy="1" />
            <feGaussianBlur stdDeviation="2" />
            <feComposite in2="hardAlpha" operator="out" />
            <feColorMatrix values="0 0 0 0 0.0755788 0 0 0 0 0.397647 0 0 0 0 0.705559 0 0 0 0.2 0" />
            <feBlend in2="BackgroundImageFix" result="effect1_dropShadow_16631_4863" />
            <feBlend in="SourceGraphic" in2="effect1_dropShadow_16631_4863" result="shape" />
        </filter>
        <radialGradient
            id="c"
            cx="0"
            cy="0"
            r="1"
            gradientTransform="matrix(-18.717 30.3715 -62.0589 -12.2174 50.717 0)"
            gradientUnits="userSpaceOnUse"
        >
            <stop stop-color="#c5c6f8" />
            <stop offset=".698" stop-color="#958dd9" />
            <stop offset="1" stop-color="#6b68be" />
        </radialGradient>
        <radialGradient
            id="h"
            cx="0"
            cy="0"
            r="1"
            gradientTransform="matrix(-19.1829 15.6 -23.2375 -54.12 34.774 25.2)"
            gradientUnits="userSpaceOnUse"
        >
            <stop stop-color="#fff" stop-opacity="0" />
            <stop offset="1" stop-color="#fff" />
        </radialGradient>
        <radialGradient
            id="s"
            cx="0"
            cy="0"
            r="1"
            gradientTransform="matrix(-5.16463 13.3607 -6.25625 -46.3514 53.747 46.305)"
            gradientUnits="userSpaceOnUse"
        >
            <stop stop-opacity=".05" />
            <stop offset="1" stop-opacity=".1" />
        </radialGradient>
        <clipPath id="a"><path fill="#fff" d="M0 0h64v64H0z" /></clipPath>
    </defs>
</svg>
