<svg width="64" height="64" viewBox="0 0 64 64" fill="none" xmlns="http://www.w3.org/2000/svg">
    <g clip-path="url(#clip0_16631_5000)">
        <path
            fill-rule="evenodd"
            clip-rule="evenodd"
            d="M16.667 33C25.1351 33.0002 31.9998 39.8649 32 48.333C32 52.5672 28.5672 56 24.333 56H7.66699C3.43281 56 0 52.5672 0 48.333C0.000176274 39.8649 6.8649 33.0002 15.333 33H16.667ZM16 14C20.4183 14 24 17.5817 24 22C24 26.4183 20.4183 30 16 30C11.5817 30 8 26.4183 8 22C8 17.5817 11.5817 14 16 14Z"
            fill="url(#paint0_radial_16631_5000)"
        />
        <path
            fill-rule="evenodd"
            clip-rule="evenodd"
            d="M36 28C47.0457 28 56 36.9543 56 48C56 52.4183 52.4183 56 48 56H24C19.5817 56 16 52.4183 16 48C16 36.9543 24.9543 28 36 28ZM36 4C41.5228 4 46 8.47715 46 14C46 19.5228 41.5228 24 36 24C30.4772 24 26 19.5228 26 14C26 8.47715 30.4772 4 36 4Z"
            fill="url(#paint1_radial_16631_5000)"
        />
        <g filter="url(#filter0_d_16631_5000)">
            <path
                d="M55.5 36C55.5 32.9624 53.0376 30.5 50 30.5C46.9624 30.5 44.5 32.9624 44.5 36V37.9992H42V36C42 31.5817 45.5817 28 50 28C54.4183 28 58 31.5817 58 36V37.9992H55.5V36Z"
                fill="url(#paint2_linear_16631_5000)"
            />
            <path
                d="M36 44C36 40.6863 38.6863 38 42 38H58C61.3137 38 64 40.6863 64 44V56.0008C64 59.3145 61.3137 62.0008 58 62.0008H42C38.6863 62.0008 36 59.3145 36 56.0008V44Z"
                fill="url(#paint3_linear_16631_5000)"
            />
            <path
                d="M42 38.25H58C61.1756 38.25 63.75 40.8244 63.75 44V56.001C63.7499 59.1765 61.1756 61.751 58 61.751H42C38.8244 61.751 36.2501 59.1765 36.25 56.001V44C36.25 40.8244 38.8244 38.25 42 38.25Z"
                stroke="url(#paint4_linear_16631_5000)"
                stroke-opacity="0.1"
                stroke-width="0.5"
            />
            <path
                d="M49.9081 45.7164C48.5565 44.4279 46.3652 44.4279 45.0137 45.7164C43.691 46.9773 43.6586 49.012 44.9407 50.3106L49.6918 55.1231C49.7718 55.2041 49.8833 55.25 50 55.25C50.1167 55.25 50.2282 55.2041 50.3082 55.1231L55.0593 50.3106C56.3414 49.012 56.309 46.9773 54.9863 45.7164C53.6348 44.4279 51.4435 44.4279 50.0919 45.7164L50 45.804L49.9081 45.7164Z"
                fill="url(#paint5_linear_16631_5000)"
            />
            <path
                d="M50 44.5194C51.7325 43.3593 54.1249 43.514 55.6758 44.9921C57.4022 46.6379 57.4473 49.3161 55.7715 51.0136L51.0195 55.8261C50.7465 56.1024 50.3764 56.2499 50 56.2499C49.6236 56.2499 49.2535 56.1024 48.9805 55.8261L44.2285 51.0136C42.5527 49.3161 42.5978 46.6379 44.3242 44.9921C45.8751 43.514 48.2675 43.3593 50 44.5194ZM54.9863 45.7167C53.6348 44.4282 51.4434 44.4282 50.0918 45.7167L50 45.8046L49.9082 45.7167C48.5566 44.4282 46.3652 44.4282 45.0137 45.7167L44.7813 45.9608C43.6921 47.2281 43.7393 49.0929 44.9414 50.3104L49.6914 55.1229C49.7515 55.1838 49.8296 55.2254 49.9141 55.2421L50 55.2499C50.0873 55.2499 50.1718 55.2244 50.2422 55.1776L50.3086 55.1229L55.0586 50.3104C56.2607 49.0929 56.308 47.2281 55.2188 45.9608L54.9863 45.7167Z"
                fill="url(#paint6_linear_16631_5000)"
            />
        </g>
    </g>
    <defs>
        <filter
            id="filter0_d_16631_5000"
            x="33.5"
            y="25.5"
            width="32"
            height="38.001"
            filterUnits="userSpaceOnUse"
            color-interpolation-filters="sRGB"
        >
            <feFlood flood-opacity="0" result="BackgroundImageFix" />
            <feColorMatrix
                in="SourceAlpha"
                type="matrix"
                values="0 0 0 0 0 0 0 0 0 0 0 0 0 0 0 0 0 0 127 0"
                result="hardAlpha"
            />
            <feOffset dx="-0.5" dy="-0.5" />
            <feGaussianBlur stdDeviation="1" />
            <feComposite in2="hardAlpha" operator="out" />
            <feColorMatrix type="matrix" values="0 0 0 0 0.862745 0 0 0 0 0.972549 0 0 0 0 0.870588 0 0 0 1 0" />
            <feBlend mode="normal" in2="BackgroundImageFix" result="effect1_dropShadow_16631_5000" />
            <feBlend mode="normal" in="SourceGraphic" in2="effect1_dropShadow_16631_5000" result="shape" />
        </filter>
        <radialGradient
            id="paint0_radial_16631_5000"
            cx="0"
            cy="0"
            r="1"
            gradientTransform="matrix(5 19 -29.3699 12.944 14 19)"
            gradientUnits="userSpaceOnUse"
        >
            <stop stop-color="#DBC6F6" />
            <stop offset="1" stop-color="#E9EAFC" />
        </radialGradient>
        <radialGradient
            id="paint1_radial_16631_5000"
            cx="0"
            cy="0"
            r="1"
            gradientUnits="userSpaceOnUse"
            gradientTransform="translate(32 10) rotate(61.2602) scale(35.3553 57.0767)"
        >
            <stop stop-color="#9A97F7" />
            <stop offset="1" stop-color="#E9EAFC" />
        </radialGradient>
        <linearGradient
            id="paint2_linear_16631_5000"
            x1="49.7544"
            y1="28.6741"
            x2="49.7544"
            y2="38.3896"
            gradientUnits="userSpaceOnUse"
        >
            <stop stop-color="#1E7A71" />
            <stop offset="1" stop-color="#0FBDAB" />
        </linearGradient>
        <linearGradient
            id="paint3_linear_16631_5000"
            x1="62.5169"
            y1="38.0002"
            x2="46.3409"
            y2="66.9495"
            gradientUnits="userSpaceOnUse"
        >
            <stop stop-color="#A9EEB4" />
            <stop offset="1" stop-color="#1FA698" />
        </linearGradient>
        <linearGradient
            id="paint4_linear_16631_5000"
            x1="60.1641"
            y1="37.3315"
            x2="50.9107"
            y2="63.0043"
            gradientUnits="userSpaceOnUse"
        >
            <stop stop-color="#DCF8DE" />
            <stop offset="1" stop-color="#8EF2D9" />
        </linearGradient>
        <linearGradient
            id="paint5_linear_16631_5000"
            x1="49.8158"
            y1="44.6638"
            x2="49.8158"
            y2="55.6923"
            gradientUnits="userSpaceOnUse"
        >
            <stop stop-color="#134B46" />
            <stop offset="1" stop-color="#1FA698" />
        </linearGradient>
        <linearGradient
            id="paint6_linear_16631_5000"
            x1="55.6316"
            y1="44.7499"
            x2="52.6287"
            y2="57.6195"
            gradientUnits="userSpaceOnUse"
        >
            <stop stop-color="#1E7A71" />
            <stop offset="1" stop-color="#A9EEB4" />
        </linearGradient>
        <clipPath id="clip0_16631_5000">
            <rect width="64" height="64" fill="white" />
        </clipPath>
    </defs>
</svg>
