<svg xmlns="http://www.w3.org/2000/svg" width="64" height="64" fill="none" viewBox="0 0 64 64">
    <g clip-path="url(#a)">
        <path fill="url(#b)" d="M0 63.5h64v.5H0z" />
        <path fill="url(#c)" d="M7.992 8h46v56h-42a4 4 0 0 1-4-4z" />
        <path
            fill="url(#d)"
            fill-rule="evenodd"
            d="M63.992 60a4 4 0 0 1-4 4h-48a4 4 0 0 0 4-4v-4h48z"
            clip-rule="evenodd"
        />
        <g filter="url(#e)"><path fill="url(#f)" d="M-.008 4a4 4 0 0 1 4-4h46a4 4 0 0 1 4 4v4h-54z" /></g>
        <path fill="url(#g)" d="M-.008 4a4 4 0 0 1 8 0v4h-8z" />
        <mask id="i" width="47" height="64" x="7" y="0" maskUnits="userSpaceOnUse" style="mask-type: alpha">
            <path fill="url(#h)" fill-rule="evenodd" d="M15.992 60a4 4 0 0 1-8 0V0h46v56h-38z" clip-rule="evenodd" />
        </mask>
        <g mask="url(#i)">
            <path
                fill="url(#j)"
                d="M36.151 50c-1.71 0-2.738-.728-2.886-1.818l.006-.018h1.479l.006.018c.1.415.594.705 1.42.705 1.009 0 1.597-.468 1.597-1.297v-1.237h-.101c-.374.692-1.081 1.071-1.978 1.071-1.645 0-2.667-1.267-2.667-3.102v-.012c0-1.871 1.022-3.162 2.697-3.162.897 0 1.597.438 1.966 1.172h.077v-1.065h1.479v6.311c0 1.492-1.2 2.434-3.095 2.434m0-3.748c1.028 0 1.646-.788 1.646-1.93v-.012c0-1.143-.624-1.936-1.646-1.936-1.027 0-1.61.793-1.61 1.936v.012c0 1.142.583 1.93 1.61 1.93"
            />
            <path
                fill="url(#k)"
                d="M24.075 47.726v-8.544h3.42c1.741 0 2.917 1.143 2.917 2.854v.012c0 1.705-1.176 2.854-2.916 2.854h-1.889v2.824zm3.047-7.294h-1.515v3.238h1.515c1.099 0 1.74-.592 1.74-1.616v-.012c0-1.024-.641-1.61-1.74-1.61"
            />
            <path
                fill="url(#l)"
                d="M14.166 44.95V43.61h2.602v-2.564h1.342v2.564h2.601v1.338H18.11v2.564h-1.342V44.95z"
            />
            <path
                fill="url(#m)"
                d="M37.173 32.266c-1.954 0-3.106-1.262-3.106-3.375v-.012c0-2.09 1.146-3.34 3.1-3.34 1.669 0 2.667.924 2.833 2.262v.024h-1.396l-.006-.018c-.136-.628-.617-1.078-1.425-1.078-1.01 0-1.604.794-1.604 2.15v.011c0 1.374.6 2.18 1.604 2.18.766 0 1.235-.35 1.42-1.03l.011-.024L40 30.01l-.012.047c-.214 1.326-1.17 2.209-2.815 2.209"
            />
            <path
                fill="url(#n)"
                d="M27.146 32.348c-2.513 0-4.057-1.735-4.057-4.482v-.012c0-2.753 1.568-4.476 4.057-4.476 2.494 0 4.05 1.723 4.05 4.476v.012c0 1.599-.529 2.86-1.461 3.63l1.14 1.527H29.38l-.695-.93a4.5 4.5 0 0 1-1.539.255m0-1.32q.356 0 .677-.089l-1.105-1.48h1.497l.63.847c.504-.557.789-1.398.789-2.44v-.012c0-1.93-.968-3.156-2.489-3.156s-2.494 1.226-2.494 3.156v.012c0 1.919.95 3.162 2.494 3.162"
            />
            <path
                fill="url(#o)"
                d="M14 34.285v-8.621h1.479v1.012h.1c.357-.705 1.064-1.12 1.973-1.12 1.627 0 2.666 1.292 2.666 3.34v.012c0 2.06-1.021 3.334-2.666 3.334-.891 0-1.634-.438-1.972-1.137h-.101v3.18zm3.088-3.287c1.01 0 1.622-.793 1.622-2.09v-.012c0-1.302-.612-2.096-1.622-2.096-1.003 0-1.627.794-1.627 2.09v.012c0 1.297.624 2.096 1.627 2.096"
            />
            <path
                fill="url(#p)"
                d="M32.802 16.544V8h3.581c1.627 0 2.607.817 2.607 2.126v.011c0 .895-.665 1.688-1.526 1.824v.107c1.152.106 1.948.935 1.948 2.043v.011c0 1.498-1.117 2.422-2.946 2.422zm3.207-7.354h-1.675v2.41h1.479c1.087 0 1.663-.42 1.663-1.196v-.012c0-.758-.54-1.202-1.467-1.202m.047 3.494h-1.722v2.67h1.782c1.128 0 1.728-.468 1.728-1.338v-.012c0-.864-.618-1.32-1.788-1.32"
            />
            <path
                fill="url(#q)"
                d="M22.893 13.767V12.43h2.601V9.865h1.343v2.564h2.601v1.338h-2.601v2.564h-1.343v-2.564z"
            />
            <path
                fill="url(#r)"
                d="M16.251 16.65c-1.235 0-2.132-.757-2.132-1.935v-.012c0-1.155.885-1.83 2.465-1.925l1.669-.1v-.557c0-.645-.422-1-1.218-1-.677 0-1.117.242-1.265.668l-.006.024h-1.396l.006-.053c.143-1.09 1.188-1.812 2.732-1.812 1.67 0 2.607.805 2.607 2.173v4.423h-1.46v-.888h-.102c-.356.628-1.045.995-1.9.995m-.671-2.006c0 .55.469.876 1.122.876.891 0 1.55-.58 1.55-1.35v-.521l-1.46.095c-.826.053-1.212.355-1.212.888z"
            />
        </g>
        <g filter="url(#s)">
            <mask id="v" fill="#fff">
                <path
                    fill-rule="evenodd"
                    d="M57.342 26.576c3.875 1.378 6.65 5.076 6.65 9.424 0 5.523-4.477 10-10 10s-10-4.477-10-10c0-4.357 2.788-8.062 6.676-9.433v-6.652h-6.676v-6.673h6.676V8h6.674zM54 31.716a4.29 4.29 0 1 0 0 8.581 4.29 4.29 0 0 0 0-8.58"
                    clip-rule="evenodd"
                />
            </mask>
            <path
                fill="url(#t)"
                fill-rule="evenodd"
                d="M57.342 26.576c3.875 1.378 6.65 5.076 6.65 9.424 0 5.523-4.477 10-10 10s-10-4.477-10-10c0-4.357 2.788-8.062 6.676-9.433v-6.652h-6.676v-6.673h6.676V8h6.674zM54 31.716a4.29 4.29 0 1 0 0 8.581 4.29 4.29 0 0 0 0-8.58"
                clip-rule="evenodd"
            />
            <path
                fill="url(#u)"
                fill-opacity=".5"
                d="M57.342 26.576h-.2v.141l.133.048zm-6.674-.009.066.189.134-.047v-.142zm0-6.652h.2v-.2h-.2zm-6.676 0h-.2v.2h.2zm0-6.673v-.2h-.2v.2zm6.676 0v.2h.2v-.2zm0-5.242v-.2h-.2V8zm6.674 0h.2v-.2h-.2zM54 31.717v-.2zm-4.29 4.29h-.2zM54 40.296v.2zm4.29-4.29h.2zm-.95-9.43-.066.189c3.798 1.35 6.517 4.974 6.517 9.235h.4c0-4.435-2.83-8.207-6.783-9.612zM63.993 36h-.2c0 5.412-4.387 9.8-9.8 9.8v.4c5.634 0 10.2-4.567 10.2-10.2zm-10 10v-.2c-5.412 0-9.8-4.388-9.8-9.8h-.4c0 5.633 4.567 10.2 10.2 10.2zm-10-10h.2c0-4.27 2.731-7.9 6.542-9.244l-.066-.189-.066-.188c-3.966 1.397-6.81 5.176-6.81 9.621zm6.676-9.433h.2v-6.652h-.4v6.652zm0-6.652v-.2h-6.676v.4h6.676zm-6.676 0h.2v-6.673h-.4v6.673zm0-6.673v.2h6.676v-.4h-6.676zm6.676 0h.2V8h-.4v5.242zm0-5.242v.2h6.674v-.4h-6.674zm6.674 0h-.2v18.576h.4V8zM54 31.717v-.2a4.49 4.49 0 0 0-4.49 4.49h.4a4.09 4.09 0 0 1 4.09-4.09zm-4.29 4.29h-.2A4.49 4.49 0 0 0 54 40.496v-.4a4.09 4.09 0 0 1-4.09-4.09zM54 40.296v.2a4.49 4.49 0 0 0 4.49-4.49h-.4a4.09 4.09 0 0 1-4.09 4.09zm4.29-4.29h.2a4.49 4.49 0 0 0-4.49-4.49v.4a4.09 4.09 0 0 1 4.09 4.09z"
                mask="url(#v)"
            />
        </g>
    </g>
    <defs>
        <radialGradient
            id="j"
            cx="0"
            cy="0"
            r="1"
            gradientTransform="matrix(-17.0625 0 0 -22.3125 31.881 30.313)"
            gradientUnits="userSpaceOnUse"
        >
            <stop stop-color="#9a97f7" />
            <stop offset="1" stop-color="#b3b4ff" />
        </radialGradient>
        <radialGradient
            id="k"
            cx="0"
            cy="0"
            r="1"
            gradientTransform="matrix(-17.0625 0 0 -22.3125 31.881 30.313)"
            gradientUnits="userSpaceOnUse"
        >
            <stop stop-color="#9a97f7" />
            <stop offset="1" stop-color="#b3b4ff" />
        </radialGradient>
        <radialGradient
            id="l"
            cx="0"
            cy="0"
            r="1"
            gradientTransform="matrix(-17.0625 0 0 -22.3125 31.881 30.313)"
            gradientUnits="userSpaceOnUse"
        >
            <stop stop-color="#9a97f7" />
            <stop offset="1" stop-color="#b3b4ff" />
        </radialGradient>
        <radialGradient
            id="m"
            cx="0"
            cy="0"
            r="1"
            gradientTransform="matrix(-17.0625 0 0 -22.3125 31.881 30.313)"
            gradientUnits="userSpaceOnUse"
        >
            <stop stop-color="#9a97f7" />
            <stop offset="1" stop-color="#b3b4ff" />
        </radialGradient>
        <radialGradient
            id="n"
            cx="0"
            cy="0"
            r="1"
            gradientTransform="matrix(-17.0625 0 0 -22.3125 31.881 30.313)"
            gradientUnits="userSpaceOnUse"
        >
            <stop stop-color="#9a97f7" />
            <stop offset="1" stop-color="#b3b4ff" />
        </radialGradient>
        <radialGradient
            id="o"
            cx="0"
            cy="0"
            r="1"
            gradientTransform="matrix(-17.0625 0 0 -22.3125 31.881 30.313)"
            gradientUnits="userSpaceOnUse"
        >
            <stop stop-color="#9a97f7" />
            <stop offset="1" stop-color="#b3b4ff" />
        </radialGradient>
        <radialGradient
            id="p"
            cx="0"
            cy="0"
            r="1"
            gradientTransform="matrix(-17.0625 0 0 -22.3125 31.881 30.313)"
            gradientUnits="userSpaceOnUse"
        >
            <stop stop-color="#9a97f7" />
            <stop offset="1" stop-color="#b3b4ff" />
        </radialGradient>
        <radialGradient
            id="q"
            cx="0"
            cy="0"
            r="1"
            gradientTransform="matrix(-17.0625 0 0 -22.3125 31.881 30.313)"
            gradientUnits="userSpaceOnUse"
        >
            <stop stop-color="#9a97f7" />
            <stop offset="1" stop-color="#b3b4ff" />
        </radialGradient>
        <radialGradient
            id="r"
            cx="0"
            cy="0"
            r="1"
            gradientTransform="matrix(-17.0625 0 0 -22.3125 31.881 30.313)"
            gradientUnits="userSpaceOnUse"
        >
            <stop stop-color="#9a97f7" />
            <stop offset="1" stop-color="#b3b4ff" />
        </radialGradient>
        <radialGradient
            id="u"
            cx="0"
            cy="0"
            r="1"
            gradientTransform="matrix(-7.38525 18.8127 -8.94623 -65.2655 55.07 23.918)"
            gradientUnits="userSpaceOnUse"
        >
            <stop stop-color="#fff" stop-opacity="0" />
            <stop offset="1" stop-color="#fff" />
        </radialGradient>
        <linearGradient id="b" x1="0" x2="64" y1="63.75" y2="63.75" gradientUnits="userSpaceOnUse">
            <stop stop-color="#867fa2" stop-opacity="0" />
            <stop offset=".206" stop-color="#867fa2" stop-opacity=".5" />
            <stop offset=".831" stop-color="#867fa2" stop-opacity=".5" />
            <stop offset="1" stop-color="#867fa2" stop-opacity="0" />
        </linearGradient>
        <linearGradient id="c" x1="31.992" x2="32" y1="8" y2="64" gradientUnits="userSpaceOnUse">
            <stop offset=".725" stop-color="#dddefb" />
            <stop offset="1" stop-color="#adabe3" />
        </linearGradient>
        <linearGradient id="d" x1="37.992" x2="37.992" y1="56" y2="64" gradientUnits="userSpaceOnUse">
            <stop stop-color="#e9eafc" />
            <stop offset="1" stop-color="#c5c6f8" />
        </linearGradient>
        <linearGradient id="f" x1="27.992" x2="27.992" y1="0" y2="8" gradientUnits="userSpaceOnUse">
            <stop stop-color="#f5f6fe" />
            <stop offset="1" stop-color="#dddefb" />
        </linearGradient>
        <linearGradient id="g" x1="3.992" x2="3.992" y1="0" y2="8" gradientUnits="userSpaceOnUse">
            <stop stop-color="#adabe3" />
            <stop offset="1" stop-color="#c5c6f8" />
        </linearGradient>
        <linearGradient id="h" x1="28.413" x2="28.413" y1="9.014" y2="16.512" gradientUnits="userSpaceOnUse">
            <stop stop-color="#edf3f7" />
            <stop offset="1" stop-color="#d5dade" />
        </linearGradient>
        <linearGradient id="t" x1="65" x2="27.852" y1="-6" y2="28.038" gradientUnits="userSpaceOnUse">
            <stop stop-color="#a9eeb4" />
            <stop offset="1" stop-color="#1fa698" />
        </linearGradient>
        <filter
            id="e"
            width="54"
            height="8"
            x="-.008"
            y="0"
            color-interpolation-filters="sRGB"
            filterUnits="userSpaceOnUse"
        >
            <feFlood flood-opacity="0" result="BackgroundImageFix" />
            <feBlend in="SourceGraphic" in2="BackgroundImageFix" result="shape" />
            <feColorMatrix in="SourceAlpha" result="hardAlpha" values="0 0 0 0 0 0 0 0 0 0 0 0 0 0 0 0 0 0 127 0" />
            <feOffset dx="-.125" dy=".13" />
            <feComposite in2="hardAlpha" k2="-1" k3="1" operator="arithmetic" />
            <feColorMatrix values="0 0 0 0 1 0 0 0 0 1 0 0 0 0 1 0 0 0 1 0" />
            <feBlend in2="shape" result="effect1_innerShadow_16631_4965" />
        </filter>
        <filter
            id="s"
            width="28"
            height="46"
            x="38.992"
            y="5"
            color-interpolation-filters="sRGB"
            filterUnits="userSpaceOnUse"
        >
            <feFlood flood-opacity="0" result="BackgroundImageFix" />
            <feColorMatrix in="SourceAlpha" result="hardAlpha" values="0 0 0 0 0 0 0 0 0 0 0 0 0 0 0 0 0 0 127 0" />
            <feOffset dx="-1" dy="1" />
            <feGaussianBlur stdDeviation="2" />
            <feComposite in2="hardAlpha" operator="out" />
            <feColorMatrix values="0 0 0 0 0.0755788 0 0 0 0 0.397647 0 0 0 0 0.705559 0 0 0 0.2 0" />
            <feBlend in2="BackgroundImageFix" result="effect1_dropShadow_16631_4965" />
            <feBlend in="SourceGraphic" in2="effect1_dropShadow_16631_4965" result="shape" />
        </filter>
        <clipPath id="a"><path fill="#fff" d="M0 0h64v64H0z" /></clipPath>
    </defs>
</svg>
