<svg width="80" height="80" viewBox="0 0 80 80" fill="none" xmlns="http://www.w3.org/2000/svg">
    <g clip-path="url(#clip0_10316_116154)">
        <path
            d="M9.99023 10H69.9902V80H14.9902C12.2288 80 9.99023 77.7614 9.99023 75V10Z"
            fill="url(#paint0_linear_10316_116154)"
        />
        <path
            d="M79.9902 75C79.9902 77.7614 77.7517 80 74.9902 80H14.9902C17.7517 80 19.9902 77.7614 19.9902 75V70H79.9902V75Z"
            fill="url(#paint1_linear_10316_116154)"
        />
        <path
            d="M-0.00976562 5C-0.00976562 2.23858 2.22881 0 4.99023 0H64.9902C67.7517 0 69.9902 2.23858 69.9902 5V10H-0.00976562V5Z"
            fill="url(#paint2_linear_10316_116154)"
        />
        <path
            d="M-0.00976562 5C-0.00976562 2.23858 2.22881 0 4.99023 0C7.75166 0 9.99023 2.23858 9.99023 5V10H-0.00976562V5Z"
            fill="url(#paint3_linear_10316_116154)"
        />
        <path
            d="M41.2402 52.5C41.9306 52.5 42.4902 53.0596 42.4902 53.75C42.4902 54.4404 41.9306 55 41.2402 55H21.2402C20.5499 55 19.9902 54.4404 19.9902 53.75C19.9902 53.0596 20.5499 52.5 21.2402 52.5H41.2402ZM55.1289 52.5C55.8193 52.5 56.3789 53.0596 56.3789 53.75C56.3789 54.4404 55.8193 55 55.1289 55H48.7402C48.0499 55 47.4902 54.4404 47.4902 53.75C47.4902 53.0596 48.0499 52.5 48.7402 52.5H55.1289ZM33.7402 45C34.4306 45 34.9902 45.5596 34.9902 46.25C34.9902 46.9404 34.4306 47.5 33.7402 47.5H21.2402C20.5499 47.5 19.9902 46.9404 19.9902 46.25C19.9902 45.5596 20.5499 45 21.2402 45H33.7402ZM58.7402 45C59.4306 45 59.9902 45.5596 59.9902 46.25C59.9902 46.9404 59.4306 47.5 58.7402 47.5H41.2402C40.5499 47.5 39.9902 46.9404 39.9902 46.25C39.9902 45.5596 40.5499 45 41.2402 45H58.7402ZM41.2402 37.5C41.9306 37.5 42.4902 38.0596 42.4902 38.75C42.4902 39.4404 41.9306 40 41.2402 40H21.2402C20.5499 40 19.9902 39.4404 19.9902 38.75C19.9902 38.0596 20.5499 37.5 21.2402 37.5H41.2402ZM58.7402 37.5C59.4306 37.5 59.9902 38.0596 59.9902 38.75C59.9902 39.4404 59.4306 40 58.7402 40H48.7402C48.0499 40 47.4902 39.4404 47.4902 38.75C47.4902 38.0596 48.0499 37.5 48.7402 37.5H58.7402ZM28.7402 30C29.4306 30 29.9902 30.5596 29.9902 31.25C29.9902 31.9404 29.4306 32.5 28.7402 32.5H21.2402C20.5499 32.5 19.9902 31.9404 19.9902 31.25C19.9902 30.5596 20.5499 30 21.2402 30H28.7402ZM53.7402 30C54.4306 30 54.9902 30.5596 54.9902 31.25C54.9902 31.9404 54.4306 32.5 53.7402 32.5H36.2402C35.5499 32.5 34.9902 31.9404 34.9902 31.25C34.9902 30.5596 35.5499 30 36.2402 30H53.7402ZM43.7402 22.5C44.4306 22.5 44.9902 23.0596 44.9902 23.75C44.9902 24.4404 44.4306 25 43.7402 25H21.2402C20.5499 25 19.9902 24.4404 19.9902 23.75C19.9902 23.0596 20.5499 22.5 21.2402 22.5H43.7402ZM51.2402 22.5C51.9306 22.5 52.4902 23.0596 52.4902 23.75C52.4902 24.4404 51.9306 25 51.2402 25C50.5499 25 49.9902 24.4404 49.9902 23.75C49.9902 23.0596 50.5499 22.5 51.2402 22.5ZM36.2402 15C36.9306 15 37.4902 15.5596 37.4902 16.25C37.4902 16.9404 36.9306 17.5 36.2402 17.5H21.2402C20.5499 17.5 19.9902 16.9404 19.9902 16.25C19.9902 15.5596 20.5499 15 21.2402 15H36.2402ZM48.7402 15C49.4306 15 49.9902 15.5596 49.9902 16.25C49.9902 16.9404 49.4306 17.5 48.7402 17.5H43.7402C43.0499 17.5 42.4902 16.9404 42.4902 16.25C42.4902 15.5596 43.0499 15 43.7402 15H48.7402Z"
            fill="url(#paint4_radial_10316_116154)"
            fill-opacity="0.8"
        />
        <g filter="url(#filter0_d_10316_116154)">
            <mask id="path-6-inside-1_10316_116154" fill="white">
                <path
                    d="M71.6738 33.2129C76.5337 34.9305 80.0156 39.5651 80.0156 45.0127C80.0156 51.9226 74.4134 57.5244 67.5029 57.5244C60.5924 57.5244 54.9903 51.9226 54.9902 45.0127C54.9902 39.5647 58.4727 34.9303 63.333 33.2129V24.8955H54.9902V16.5547H63.333V10H71.6738V33.2129ZM67.501 39.6475C64.5395 39.6476 62.1388 42.0476 62.1387 45.0088C62.1387 47.9701 64.5394 50.371 67.501 50.3711C70.4626 50.3711 72.8633 47.9702 72.8633 45.0088C72.8631 42.0475 70.4625 39.6475 67.501 39.6475Z"
                />
            </mask>
            <path
                d="M71.6738 33.2129C76.5337 34.9305 80.0156 39.5651 80.0156 45.0127C80.0156 51.9226 74.4134 57.5244 67.5029 57.5244C60.5924 57.5244 54.9903 51.9226 54.9902 45.0127C54.9902 39.5647 58.4727 34.9303 63.333 33.2129V24.8955H54.9902V16.5547H63.333V10H71.6738V33.2129ZM67.501 39.6475C64.5395 39.6476 62.1388 42.0476 62.1387 45.0088C62.1387 47.9701 64.5394 50.371 67.501 50.3711C70.4626 50.3711 72.8633 47.9702 72.8633 45.0088C72.8631 42.0475 70.4625 39.6475 67.501 39.6475Z"
                fill="url(#paint5_linear_10316_116154)"
            />
            <path
                d="M71.6738 33.2129H71.4738V33.3543L71.6072 33.4015L71.6738 33.2129ZM80.0156 45.0127L80.2156 45.0127V45.0127H80.0156ZM67.5029 57.5244V57.7244H67.5029L67.5029 57.5244ZM54.9902 45.0127H54.7902V45.0127L54.9902 45.0127ZM63.333 33.2129L63.3996 33.4015L63.533 33.3543V33.2129H63.333ZM63.333 24.8955H63.533V24.6955H63.333V24.8955ZM54.9902 24.8955H54.7902V25.0955H54.9902V24.8955ZM54.9902 16.5547V16.3547H54.7902V16.5547H54.9902ZM63.333 16.5547V16.7547H63.533V16.5547H63.333ZM63.333 10V9.8H63.133V10H63.333ZM71.6738 10H71.8738V9.8H71.6738V10ZM67.501 39.6475V39.4475H67.501L67.501 39.6475ZM62.1387 45.0088L61.9387 45.0088V45.0088H62.1387ZM67.501 50.3711L67.501 50.5711H67.501V50.3711ZM72.8633 45.0088H73.0633V45.0088L72.8633 45.0088ZM71.6738 33.2129L71.6072 33.4015C76.3897 35.0917 79.8156 39.6525 79.8156 45.0127H80.0156H80.2156C80.2156 39.4777 76.6777 34.7693 71.7405 33.0243L71.6738 33.2129ZM80.0156 45.0127L79.8156 45.0127C79.8156 51.8121 74.3029 57.3244 67.5029 57.3244L67.5029 57.5244L67.5029 57.7244C74.5238 57.7244 80.2156 52.033 80.2156 45.0127L80.0156 45.0127ZM67.5029 57.5244V57.3244C60.7029 57.3244 55.1903 51.8121 55.1902 45.0127L54.9902 45.0127L54.7902 45.0127C54.7903 52.0331 60.482 57.7244 67.5029 57.7244V57.5244ZM54.9902 45.0127H55.1902C55.1902 39.6522 58.6167 35.0915 63.3996 33.4015L63.333 33.2129L63.2664 33.0243C58.3286 34.769 54.7902 39.4773 54.7902 45.0127H54.9902ZM63.333 33.2129H63.533V24.8955H63.333H63.133V33.2129H63.333ZM63.333 24.8955V24.6955H54.9902V24.8955V25.0955H63.333V24.8955ZM54.9902 24.8955H55.1902V16.5547H54.9902H54.7902V24.8955H54.9902ZM54.9902 16.5547V16.7547H63.333V16.5547V16.3547H54.9902V16.5547ZM63.333 16.5547H63.533V10H63.333H63.133V16.5547H63.333ZM63.333 10V10.2H71.6738V10V9.8H63.333V10ZM71.6738 10H71.4738V33.2129H71.6738H71.8738V10H71.6738ZM67.501 39.6475L67.501 39.4475C64.4291 39.4476 61.9388 41.9371 61.9387 45.0088L62.1387 45.0088L62.3387 45.0088C62.3388 42.1581 64.65 39.8476 67.501 39.8475L67.501 39.6475ZM62.1387 45.0088H61.9387C61.9387 48.0806 64.429 50.571 67.501 50.5711L67.501 50.3711L67.501 50.1711C64.6499 50.171 62.3387 47.8597 62.3387 45.0088H62.1387ZM67.501 50.3711V50.5711C70.5731 50.5711 73.0633 48.0807 73.0633 45.0088H72.8633H72.6633C72.6633 47.8598 70.3522 50.1711 67.501 50.1711V50.3711ZM72.8633 45.0088L73.0633 45.0088C73.0631 41.937 70.573 39.4475 67.501 39.4475V39.6475V39.8475C70.3521 39.8475 72.6631 42.158 72.6633 45.0088L72.8633 45.0088Z"
                fill="url(#paint6_radial_10316_116154)"
                fill-opacity="0.5"
                mask="url(#path-6-inside-1_10316_116154)"
            />
        </g>
    </g>
    <defs>
        <filter
            id="filter0_d_10316_116154"
            x="49.9902"
            y="7"
            width="33.0254"
            height="55.5234"
            filterUnits="userSpaceOnUse"
            color-interpolation-filters="sRGB"
        >
            <feFlood flood-opacity="0" result="BackgroundImageFix" />
            <feColorMatrix
                in="SourceAlpha"
                type="matrix"
                values="0 0 0 0 0 0 0 0 0 0 0 0 0 0 0 0 0 0 127 0"
                result="hardAlpha"
            />
            <feOffset dx="-1" dy="1" />
            <feGaussianBlur stdDeviation="2" />
            <feComposite in2="hardAlpha" operator="out" />
            <feColorMatrix type="matrix" values="0 0 0 0 0.0755788 0 0 0 0 0.397647 0 0 0 0 0.705559 0 0 0 0.2 0" />
            <feBlend mode="normal" in2="BackgroundImageFix" result="effect1_dropShadow_10316_116154" />
            <feBlend mode="normal" in="SourceGraphic" in2="effect1_dropShadow_10316_116154" result="shape" />
        </filter>
        <linearGradient
            id="paint0_linear_10316_116154"
            x1="39.9902"
            y1="10"
            x2="39.9902"
            y2="75"
            gradientUnits="userSpaceOnUse"
        >
            <stop offset="0.725" stop-color="#BBDAF7" />
            <stop offset="1" stop-color="#54A5F3" />
        </linearGradient>
        <linearGradient
            id="paint1_linear_10316_116154"
            x1="47.4902"
            y1="70"
            x2="47.4902"
            y2="80"
            gradientUnits="userSpaceOnUse"
        >
            <stop stop-color="#E3F0FC" />
            <stop offset="1" stop-color="#BBDAF7" />
        </linearGradient>
        <linearGradient
            id="paint2_linear_10316_116154"
            x1="34.9902"
            y1="0"
            x2="34.9902"
            y2="10"
            gradientUnits="userSpaceOnUse"
        >
            <stop stop-color="#F1F7FD" />
            <stop offset="1" stop-color="#BBDAF7" />
        </linearGradient>
        <linearGradient
            id="paint3_linear_10316_116154"
            x1="4.99023"
            y1="0"
            x2="4.99023"
            y2="10"
            gradientUnits="userSpaceOnUse"
        >
            <stop stop-color="#BBDAF7" />
            <stop offset="1" stop-color="#83BDF5" />
        </linearGradient>
        <radialGradient
            id="paint4_radial_10316_116154"
            cx="0"
            cy="0"
            r="1"
            gradientTransform="matrix(-14.8141 -2.73767 3.83931 -9.16337 40.0107 41.2685)"
            gradientUnits="userSpaceOnUse"
        >
            <stop stop-color="#2984DB" />
            <stop offset="1" stop-color="#54A5F3" />
        </radialGradient>
        <linearGradient
            id="paint5_linear_10316_116154"
            x1="68.5457"
            y1="10"
            x2="47.6186"
            y2="19.6457"
            gradientUnits="userSpaceOnUse"
        >
            <stop stop-color="#54A5F3" />
            <stop offset="1" stop-color="#2984DB" />
        </linearGradient>
        <radialGradient
            id="paint6_radial_10316_116154"
            cx="0"
            cy="0"
            r="1"
            gradientTransform="matrix(-9.23193 23.5276 -11.1832 -81.6227 68.8381 29.908)"
            gradientUnits="userSpaceOnUse"
        >
            <stop stop-color="white" stop-opacity="0" />
            <stop offset="1" stop-color="white" />
        </radialGradient>
        <clipPath id="clip0_10316_116154">
            <rect width="80" height="80" fill="white" />
        </clipPath>
    </defs>
</svg>
