<svg xmlns="http://www.w3.org/2000/svg" width="64" height="64" fill="none" viewBox="0 0 64 64">
    <g clip-path="url(#a)">
        <path fill="url(#b)" d="M0 63.5h64v.5H0z" />
        <path fill="url(#c)" d="M7.992 8h46v56h-42a4 4 0 0 1-4-4z" />
        <path
            fill="url(#d)"
            fill-rule="evenodd"
            d="M63.992 60a4 4 0 0 1-4 4h-48a4 4 0 0 0 4-4v-4h48z"
            clip-rule="evenodd"
        />
        <g filter="url(#e)"><path fill="url(#f)" d="M-.008 4a4 4 0 0 1 4-4h46a4 4 0 0 1 4 4v4h-54z" /></g>
        <path fill="url(#g)" d="M-.008 4a4 4 0 0 1 8 0v4h-8z" />
        <path
            fill="url(#h)"
            fill-rule="evenodd"
            d="M32.992 42a1 1 0 1 1 0 2h-16a1 1 0 1 1 0-2zm11.112 0a1 1 0 0 1 0 2h-5.112a1 1 0 1 1 0-2zm-17.112-6a1 1 0 1 1 0 2h-10a1 1 0 1 1 0-2zm20 0a1 1 0 1 1 0 2h-14a1 1 0 1 1 0-2zm-14-6a1 1 0 1 1 0 2h-16a1 1 0 1 1 0-2zm14 0a1 1 0 1 1 0 2h-8a1 1 0 1 1 0-2zm-24-6a1 1 0 1 1 0 2h-6a1 1 0 1 1 0-2zm20 0a1 1 0 1 1 0 2h-14a1 1 0 1 1 0-2zm-10-6a1 1 0 1 1 0 2h-16a1 1 0 1 1 0-2zm8 0a1 1 0 1 1 0 2h-2a1 1 0 1 1 0-2zm-12-6a1 1 0 1 1 0 2h-12a1 1 0 1 1 0-2zm10 0a1 1 0 1 1 0 2h-4a1 1 0 1 1 0-2z"
            clip-rule="evenodd"
        />
        <g filter="url(#i)">
            <mask id="l" fill="#fff">
                <path
                    fill-rule="evenodd"
                    d="M57.34 26.572c3.887 1.375 6.672 5.08 6.673 9.437 0 5.528-4.483 10.01-10.011 10.01s-10.01-4.482-10.01-10.01c0-4.358 2.786-8.064 6.674-9.438v-6.655h-6.674v-6.673h6.674V8h6.674zM54 31.717a4.29 4.29 0 1 0 0 8.58 4.29 4.29 0 0 0 0-8.58"
                    clip-rule="evenodd"
                />
            </mask>
            <path
                fill="url(#j)"
                fill-rule="evenodd"
                d="M57.34 26.572c3.887 1.375 6.672 5.08 6.673 9.437 0 5.528-4.483 10.01-10.011 10.01s-10.01-4.482-10.01-10.01c0-4.358 2.786-8.064 6.674-9.438v-6.655h-6.674v-6.673h6.674V8h6.674zM54 31.717a4.29 4.29 0 1 0 0 8.58 4.29 4.29 0 0 0 0-8.58"
                clip-rule="evenodd"
            />
            <path
                fill="url(#k)"
                fill-opacity=".5"
                d="M57.34 26.572h-.2v.142l.133.047zm6.673 9.437h.2zm-10.011 10.01v.2zm-10.01-10.01h-.2zm6.674-9.438.067.189.133-.047v-.142zm0-6.655h.2v-.2h-.2zm-6.674 0h-.2v.2h.2zm0-6.673v-.2h-.2v.2zm6.674 0v.2h.2v-.2zm0-5.243v-.2h-.2V8zm6.674 0h.2v-.2h-.2zM54 31.717v-.2zm-4.29 4.29h-.2zM54 40.296v.2zm4.29-4.29h.2zm-.951-9.434-.067.189c3.81 1.347 6.54 4.978 6.54 9.248h.4c0-4.445-2.842-8.223-6.806-9.625zm6.673 9.437h-.2c0 5.417-4.393 9.81-9.811 9.81v.4c5.639 0 10.21-4.572 10.21-10.21zm-10.011 10.01v-.2c-5.418 0-9.81-4.393-9.81-9.81h-.4c0 5.638 4.571 10.21 10.21 10.21zm-10.01-10.01h.2c0-4.27 2.73-7.902 6.54-9.25l-.066-.188-.067-.188c-3.965 1.401-6.807 5.18-6.807 9.626zm6.674-9.438h.2v-6.655h-.4v6.655zm0-6.655v-.2h-6.674v.4h6.674zm-6.674 0h.2v-6.673h-.4v6.673zm0-6.673v.2h6.674v-.4h-6.674zm6.674 0h.2V8h-.4v5.243zm0-5.243v.2h6.674v-.4h-6.674zm6.674 0h-.2v18.572h.4V8zM54 31.717v-.2a4.49 4.49 0 0 0-4.49 4.49h.4a4.09 4.09 0 0 1 4.09-4.09zm-4.29 4.29h-.2A4.49 4.49 0 0 0 54 40.496v-.4a4.09 4.09 0 0 1-4.09-4.09zM54 40.296v.2a4.49 4.49 0 0 0 4.49-4.49h-.4a4.09 4.09 0 0 1-4.09 4.09zm4.29-4.29h.2a4.49 4.49 0 0 0-4.49-4.49v.4a4.09 4.09 0 0 1 4.09 4.09z"
                mask="url(#l)"
            />
        </g>
    </g>
    <defs>
        <linearGradient id="b" x1="0" x2="64" y1="63.75" y2="63.75" gradientUnits="userSpaceOnUse">
            <stop stop-color="#867fa2" stop-opacity="0" />
            <stop offset=".206" stop-color="#867fa2" stop-opacity=".5" />
            <stop offset=".831" stop-color="#867fa2" stop-opacity=".5" />
            <stop offset="1" stop-color="#867fa2" stop-opacity="0" />
        </linearGradient>
        <linearGradient id="c" x1="31.992" x2="32" y1="8" y2="64" gradientUnits="userSpaceOnUse">
            <stop offset=".725" stop-color="#dddefb" />
            <stop offset="1" stop-color="#adabe3" />
        </linearGradient>
        <linearGradient id="d" x1="37.992" x2="37.992" y1="56" y2="64" gradientUnits="userSpaceOnUse">
            <stop stop-color="#e9eafc" />
            <stop offset="1" stop-color="#c5c6f8" />
        </linearGradient>
        <linearGradient id="f" x1="27.992" x2="27.992" y1="0" y2="8" gradientUnits="userSpaceOnUse">
            <stop stop-color="#f5f6fe" />
            <stop offset="1" stop-color="#dddefb" />
        </linearGradient>
        <linearGradient id="g" x1="3.992" x2="3.992" y1="0" y2="8" gradientUnits="userSpaceOnUse">
            <stop stop-color="#adabe3" />
            <stop offset="1" stop-color="#c5c6f8" />
        </linearGradient>
        <linearGradient id="j" x1="65.001" x2="27.852" y1="-6" y2="28.04" gradientUnits="userSpaceOnUse">
            <stop stop-color="#a9eeb4" />
            <stop offset="1" stop-color="#1fa698" />
        </linearGradient>
        <radialGradient
            id="h"
            cx="0"
            cy="0"
            r="1"
            gradientTransform="rotate(179.848 15.981 14.021)scale(16 21.9462)"
            gradientUnits="userSpaceOnUse"
        >
            <stop stop-color="#9a97f7" />
            <stop offset="1" stop-color="#b3b4ff" />
        </radialGradient>
        <radialGradient
            id="k"
            cx="0"
            cy="0"
            r="1"
            gradientTransform="matrix(-7.38561 18.8132 -8.94667 -65.2672 55.07 23.919)"
            gradientUnits="userSpaceOnUse"
        >
            <stop stop-color="#fff" stop-opacity="0" />
            <stop offset="1" stop-color="#fff" />
        </radialGradient>
        <filter
            id="e"
            width="54"
            height="8"
            x="-.008"
            y="0"
            color-interpolation-filters="sRGB"
            filterUnits="userSpaceOnUse"
        >
            <feFlood flood-opacity="0" result="BackgroundImageFix" />
            <feBlend in="SourceGraphic" in2="BackgroundImageFix" result="shape" />
            <feColorMatrix in="SourceAlpha" result="hardAlpha" values="0 0 0 0 0 0 0 0 0 0 0 0 0 0 0 0 0 0 127 0" />
            <feOffset dx="-.125" dy=".13" />
            <feComposite in2="hardAlpha" k2="-1" k3="1" operator="arithmetic" />
            <feColorMatrix values="0 0 0 0 1 0 0 0 0 1 0 0 0 0 1 0 0 0 1 0" />
            <feBlend in2="shape" result="effect1_innerShadow_16631_5039" />
        </filter>
        <filter
            id="i"
            width="28.02"
            height="46.019"
            x="38.992"
            y="5"
            color-interpolation-filters="sRGB"
            filterUnits="userSpaceOnUse"
        >
            <feFlood flood-opacity="0" result="BackgroundImageFix" />
            <feColorMatrix in="SourceAlpha" result="hardAlpha" values="0 0 0 0 0 0 0 0 0 0 0 0 0 0 0 0 0 0 127 0" />
            <feOffset dx="-1" dy="1" />
            <feGaussianBlur stdDeviation="2" />
            <feComposite in2="hardAlpha" operator="out" />
            <feColorMatrix values="0 0 0 0 0.0755788 0 0 0 0 0.397647 0 0 0 0 0.705559 0 0 0 0.2 0" />
            <feBlend in2="BackgroundImageFix" result="effect1_dropShadow_16631_5039" />
            <feBlend in="SourceGraphic" in2="effect1_dropShadow_16631_5039" result="shape" />
        </filter>
        <clipPath id="a"><path fill="#fff" d="M0 0h64v64H0z" /></clipPath>
    </defs>
</svg>
