<svg xmlns="http://www.w3.org/2000/svg" width="64" height="64" fill="none" viewBox="0 0 64 64">
    <g clip-path="url(#a)">
        <path
            fill="url(#b)"
            d="M17.5 6.5A6.5 6.5 0 0 1 24 0h18a6.5 6.5 0 0 1 6.5 6.5v51A6.5 6.5 0 0 1 42 64H24a6.5 6.5 0 0 1-6.5-6.5z"
            opacity=".75"
        />
        <path fill="url(#c)" d="M18 6.5a6 6 0 0 1 6-6h18a6 6 0 0 1 6 6v51a6 6 0 0 1-6 6H24a6 6 0 0 1-6-6z" />
        <g filter="url(#d)">
            <path
                fill="url(#e)"
                d="M18.5 6.5A5.5 5.5 0 0 1 24 1h18a5.5 5.5 0 0 1 5.5 5.5v51A5.5 5.5 0 0 1 42 63H24a5.5 5.5 0 0 1-5.5-5.5z"
            />
        </g>
        <path fill="url(#f)" d="M33 28a9 9 0 1 0 0-18 9 9 0 0 0 0 18" />
        <mask id="h" width="18" height="18" x="24" y="10" maskUnits="userSpaceOnUse" style="mask-type: alpha">
            <path fill="url(#g)" d="M33 28a9 9 0 1 0 0-18 9 9 0 0 0 0 18" opacity=".9" />
        </mask>
        <g mask="url(#h)">
            <path
                fill="url(#i)"
                fill-rule="evenodd"
                d="M33 22a8 8 0 1 1 0 16 8 8 0 0 1 0-16m0-8.5a3.5 3.5 0 1 1 0 7 3.5 3.5 0 0 1 0-7"
                clip-rule="evenodd"
            />
        </g>
        <circle cx="33" cy="5" r="1.125" fill="#091a30" stroke="#c5c6f8" stroke-width=".25" />
        <path
            fill="url(#j)"
            fill-rule="evenodd"
            d="M48 20.256 18 47.685v-3.048l30-27.429zm0-3.081L18 42.57V31.397L48 6z"
            clip-rule="evenodd"
        />
        <path fill="url(#k)" d="M0 63.5h64v.5H0z" />
        <path fill="url(#l)" d="M0 42c0-5.523 4.29-10 9.583-10h24.834C39.709 32 44 36.477 44 42s-4.29 10-9.583 10H0z" />
        <path
            stroke="url(#m)"
            stroke-opacity=".5"
            stroke-width=".25"
            d="M9.583 32.125h24.834c5.219 0 9.458 4.416 9.458 9.875s-4.24 9.875-9.458 9.875H.125V42c0-5.459 4.24-9.875 9.458-9.875Z"
        />
        <path
            fill="url(#n)"
            fill-rule="evenodd"
            d="M10.272 37.178a.7.7 0 0 1 .699.699v2.91l2.521-1.455a.7.7 0 1 1 .7 1.213L11.67 42l2.521 1.457a.7.7 0 1 1-.699 1.213l-2.521-1.457v2.912a.7.7 0 0 1-1.4 0v-2.912L7.048 44.67a.7.7 0 0 1-.7-1.213L8.87 42l-2.52-1.455a.7.7 0 0 1 .7-1.213l2.521 1.455v-2.91a.7.7 0 0 1 .702-.7m12.144 0a.7.7 0 0 1 .7.699v2.91l2.52-1.455a.7.7 0 1 1 .7 1.213L23.814 42l2.522 1.457a.7.7 0 1 1-.7 1.213l-2.52-1.457v2.912a.7.7 0 0 1-1.401 0v-2.912l-2.522 1.457a.7.7 0 0 1-.699-1.213L21.014 42l-2.52-1.455a.7.7 0 0 1 .7-1.213l2.52 1.455v-2.91a.7.7 0 0 1 .702-.7m12.14 0a.7.7 0 0 1 .7.699v2.91l2.521-1.455a.7.7 0 1 1 .7 1.213L35.955 42l2.522 1.457a.7.7 0 1 1-.7 1.213l-2.521-1.457v2.912a.7.7 0 0 1-1.4 0v-2.912l-2.522 1.457a.7.7 0 0 1-.7-1.213L33.155 42l-2.52-1.455a.7.7 0 0 1 .7-1.213l2.522 1.455v-2.91a.7.7 0 0 1 .7-.7"
            clip-rule="evenodd"
        />
        <mask id="q" fill="#fff">
            <path
                fill-rule="evenodd"
                d="M59.333 50.402a7 7 0 1 1-4.666 0v-5.735H50v-4.666h4.667v-4h4.666zM57 54a3 3 0 1 0 0 6 3 3 0 0 0 0-6"
                clip-rule="evenodd"
            />
        </mask>
        <path
            fill="url(#o)"
            fill-rule="evenodd"
            d="M59.333 50.402a7 7 0 1 1-4.666 0v-5.735H50v-4.666h4.667v-4h4.666zM57 54a3 3 0 1 0 0 6 3 3 0 0 0 0-6"
            clip-rule="evenodd"
        />
        <path
            fill="url(#p)"
            fill-opacity=".1"
            d="M59.333 50.402h-.5v.353l.333.118zm4.666 6.6h.5zm-6.999 7v.5zm-6.999-7h-.5zm4.666-6.6.167.471.333-.118v-.353zm0-5.735h.5v-.5h-.5zm-4.667 0h-.5v.5h.5zm0-4.666v-.5h-.5v.5zm4.667 0v.5h.5V40zm0-4v-.5h-.5v.5zm4.666 0h.5v-.5h-.5zM57 54v-.5zm-3 3h-.5zm3 3v.5zm2.999-3h.5zm-.666-6.6-.167.472a6.5 6.5 0 0 1 4.333 6.13h1a7.5 7.5 0 0 0-5-7.072zm4.666 6.601h-.5a6.5 6.5 0 0 1-6.499 6.5v1a7.5 7.5 0 0 0 7.499-7.5zm-6.999 7v-.5a6.5 6.5 0 0 1-6.499-6.5h-1a7.5 7.5 0 0 0 7.499 7.5zm-6.999-7h.5a6.5 6.5 0 0 1 4.333-6.129l-.167-.471-.167-.471a7.5 7.5 0 0 0-4.999 7.071zm4.666-6.6h.5v-5.735h-1v5.735zm0-5.735v-.5H50v1h4.667zm-4.667 0h.5v-4.666h-1v4.666zm0-4.666v.5h4.667v-1H50zm4.667 0h.5v-4h-1v4zm0-4v.5h4.666v-1h-4.666zm4.666 0h-.5v14.4h1v-14.4zM57 54v-.5a3.5 3.5 0 0 0-3.5 3.5h1a2.5 2.5 0 0 1 2.5-2.5zm-3 3h-.5a3.5 3.5 0 0 0 3.5 3.5v-1a2.5 2.5 0 0 1-2.5-2.5zm3 3v.5a3.5 3.5 0 0 0 3.499-3.5h-1A2.5 2.5 0 0 1 57 59.5zm2.999-3h.5A3.5 3.5 0 0 0 57 53.5v1a2.5 2.5 0 0 1 2.499 2.5z"
            mask="url(#q)"
        />
    </g>
    <defs>
        <linearGradient id="b" x1="47.545" x2=".658" y1=".001" y2="34.63" gradientUnits="userSpaceOnUse">
            <stop stop-color="#f1f7fd" />
            <stop offset="1" stop-color="#d6e9fa" />
        </linearGradient>
        <linearGradient id="c" x1="33" x2="33" y1="0" y2="64.001" gradientUnits="userSpaceOnUse">
            <stop stop-color="#403b51" />
            <stop offset="1" stop-color="#5d5677" />
        </linearGradient>
        <linearGradient id="e" x1="47.136" x2="1.217" y1="0" y2="31.795" gradientUnits="userSpaceOnUse">
            <stop stop-color="#f5f6fe" />
            <stop offset="1" stop-color="#c5c6f8" />
        </linearGradient>
        <linearGradient id="f" x1="33.865" x2="38.885" y1="3.942" y2="26.962" gradientUnits="userSpaceOnUse">
            <stop stop-color="#dbc6f6" />
            <stop offset="1" stop-color="#6d4aff" />
        </linearGradient>
        <linearGradient id="g" x1="33.865" x2="38.885" y1="3.942" y2="26.962" gradientUnits="userSpaceOnUse">
            <stop stop-color="#ecaaff" />
            <stop offset="1" stop-color="#6a48f6" />
        </linearGradient>
        <linearGradient id="i" x1="34" x2="34" y1="14.25" y2="28" gradientUnits="userSpaceOnUse">
            <stop stop-color="#fff" />
            <stop offset="1" stop-color="#f5f6fe" />
        </linearGradient>
        <linearGradient id="j" x1="43.455" x2="11.432" y1="10.942" y2="33.779" gradientUnits="userSpaceOnUse">
            <stop stop-color="#fff" stop-opacity=".3" />
            <stop offset="1" stop-color="#fff" stop-opacity=".05" />
        </linearGradient>
        <linearGradient id="k" x1="0" x2="64" y1="63.75" y2="63.75" gradientUnits="userSpaceOnUse">
            <stop stop-color="#867fa2" stop-opacity="0" />
            <stop offset=".206" stop-color="#867fa2" stop-opacity=".5" />
            <stop offset=".831" stop-color="#867fa2" stop-opacity=".5" />
            <stop offset="1" stop-color="#867fa2" stop-opacity="0" />
        </linearGradient>
        <linearGradient id="l" x1="43.267" x2="33.681" y1="32" y2="62.392" gradientUnits="userSpaceOnUse">
            <stop stop-color="#cbf5cf" />
            <stop offset="1" stop-color="#2bc9b3" />
        </linearGradient>
        <linearGradient id="n" x1="34" x2="34" y1="35" y2="48" gradientUnits="userSpaceOnUse">
            <stop stop-color="#134b46" />
            <stop offset="1" stop-color="#1fa698" />
        </linearGradient>
        <linearGradient id="o" x1="63.766" x2="41.577" y1="36.001" y2="51.988" gradientUnits="userSpaceOnUse">
            <stop stop-color="#a9eeb4" />
            <stop offset="1" stop-color="#1fa698" />
        </linearGradient>
        <linearGradient id="p" x1="62.599" x2="44.846" y1="35.177" y2="55.007" gradientUnits="userSpaceOnUse">
            <stop stop-color="#dcf8de" />
            <stop offset="1" stop-color="#8ef2d9" />
        </linearGradient>
        <radialGradient
            id="m"
            cx="0"
            cy="0"
            r="1"
            gradientTransform="matrix(-16.2317 9.75 -19.6625 -33.825 24.348 40.25)"
            gradientUnits="userSpaceOnUse"
        >
            <stop stop-color="#fff" stop-opacity="0" />
            <stop offset="1" stop-color="#fff" />
        </radialGradient>
        <clipPath id="a"><path fill="#fff" d="M0 0h64v64H0z" /></clipPath>
        <filter
            id="d"
            width="31"
            height="66"
            x="16.5"
            y="-1"
            color-interpolation-filters="sRGB"
            filterUnits="userSpaceOnUse"
        >
            <feFlood flood-opacity="0" result="BackgroundImageFix" />
            <feBlend in="SourceGraphic" in2="BackgroundImageFix" result="shape" />
            <feColorMatrix in="SourceAlpha" result="hardAlpha" values="0 0 0 0 0 0 0 0 0 0 0 0 0 0 0 0 0 0 127 0" />
            <feOffset dy="-2" />
            <feGaussianBlur stdDeviation="1.5" />
            <feComposite in2="hardAlpha" k2="-1" k3="1" operator="arithmetic" />
            <feColorMatrix values="0 0 0 0 0.330196 0 0 0 0 0.172549 0 0 0 0 0.960784 0 0 0 0.2 0" />
            <feBlend in2="shape" result="effect1_innerShadow_16631_4914" />
            <feColorMatrix in="SourceAlpha" result="hardAlpha" values="0 0 0 0 0 0 0 0 0 0 0 0 0 0 0 0 0 0 127 0" />
            <feOffset dx="-3" dy="2" />
            <feGaussianBlur stdDeviation="1" />
            <feComposite in2="hardAlpha" k2="-1" k3="1" operator="arithmetic" />
            <feColorMatrix values="0 0 0 0 1 0 0 0 0 1 0 0 0 0 1 0 0 0 0.1 0" />
            <feBlend in2="effect1_innerShadow_16631_4914" result="effect2_innerShadow_16631_4914" />
        </filter>
    </defs>
</svg>
