<svg width="80" height="80" viewBox="0 0 80 80" fill="none" xmlns="http://www.w3.org/2000/svg">
    <g clip-path="url(#clip0_10112_34966)">
        <mask
            id="mask0_10112_34966"
            style="mask-type: alpha"
            maskUnits="userSpaceOnUse"
            x="0"
            y="0"
            width="80"
            height="80"
        >
            <path
                d="M0 30.5C0 30.1852 0.148195 29.8889 0.400001 29.7L38.8001 0.899997C39.5112 0.366665 40.489 0.366667 41.2001 0.900002L79.6 29.7C79.8518 29.8889 80 30.1852 80 30.5V77.9989C80 79.1035 79.1046 79.9989 78 79.9989H2C0.895429 79.9989 0 79.1035 0 77.9989V30.5Z"
                fill="black"
            />
        </mask>
        <g mask="url(#mask0_10112_34966)">
            <path
                d="M38.2 1.35C39.2667 0.55 40.7333 0.55 41.8 1.35L80 30H0L38.2 1.35Z"
                fill="url(#paint0_radial_10112_34966)"
            />
            <path d="M0 30H80V80H0V30Z" fill="url(#paint1_linear_10112_34966)" />
            <path
                d="M79.9004 30.0996V79.9004H0.0996094V30.0996H79.9004Z"
                stroke="#102D4E"
                stroke-opacity="0.5"
                stroke-width="0.2"
            />
            <g filter="url(#filter0_dd_10112_34966)">
                <rect x="12.5" y="20" width="55" height="35" rx="3" fill="url(#paint2_linear_10112_34966)" />
                <rect
                    x="12.6"
                    y="20.1"
                    width="54.8"
                    height="34.8"
                    rx="2.9"
                    stroke="url(#paint3_radial_10112_34966)"
                    stroke-opacity="0.5"
                    stroke-width="0.2"
                />
            </g>
            <path
                opacity="0.75"
                d="M23.9455 37.6567V34.0166L20.7936 35.8379C20.3753 36.0788 19.8413 35.9339 19.5998 35.5156C19.3584 35.0972 19.5012 34.5633 19.9196 34.3218L23.069 32.5005L19.9196 30.6816C19.5013 30.4401 19.3585 29.9062 19.5998 29.4878C19.8413 29.0695 20.3752 28.9245 20.7936 29.1655L23.9455 30.9844V27.3467C23.9455 26.8634 24.3387 26.4727 24.822 26.4727C25.3047 26.4732 25.696 26.8638 25.696 27.3467V30.9844L28.8478 29.1655C29.2663 28.9243 29.8026 29.0694 30.0441 29.4878C30.2846 29.9061 30.1399 30.4403 29.7219 30.6816L26.57 32.5005L29.7219 34.3218C30.14 34.5632 30.2848 35.0973 30.0441 35.5156C29.8026 35.9339 29.2663 36.0791 28.8478 35.8379L25.696 34.0166V37.6567C25.6958 38.1395 25.3046 38.5302 24.822 38.5308C24.3388 38.5308 23.9456 38.1399 23.9455 37.6567Z"
                fill="#133C69"
            />
            <path
                opacity="0.75"
                d="M39.1262 37.6567V34.0166L35.9743 35.8379C35.5559 36.0788 35.0219 35.9339 34.7804 35.5156C34.5391 35.0972 34.6819 34.5633 35.1003 34.3218L38.2497 32.5005L35.1003 30.6816C34.6819 30.4401 34.5392 29.9062 34.7804 29.4878C35.0219 29.0695 35.5559 28.9245 35.9743 29.1655L39.1262 30.9844V27.3467C39.1262 26.8634 39.5194 26.4727 40.0026 26.4727C40.4854 26.4732 40.8766 26.8638 40.8766 27.3467V30.9844L44.0285 29.1655C44.4469 28.9243 44.9833 29.0694 45.2248 29.4878C45.4653 29.9061 45.3206 30.4403 44.9025 30.6816L41.7507 32.5005L44.9025 34.3218C45.3206 34.5632 45.4655 35.0973 45.2248 35.5156C44.9833 35.9339 44.4469 36.0791 44.0285 35.8379L40.8766 34.0166V37.6567C40.8765 38.1395 40.4853 38.5302 40.0026 38.5308C39.5194 38.5308 39.1263 38.1399 39.1262 37.6567Z"
                fill="#133C69"
            />
            <path
                opacity="0.75"
                d="M54.3019 37.6567V34.0166L51.1501 35.8379C50.7317 36.0788 50.1977 35.9339 49.9562 35.5156C49.7148 35.0972 49.8576 34.5633 50.2761 34.3218L53.4255 32.5005L50.2761 30.6816C49.8577 30.4401 49.715 29.9062 49.9562 29.4878C50.1977 29.0695 50.7317 28.9245 51.1501 29.1655L54.3019 30.9844V27.3467C54.3019 26.8634 54.6951 26.4727 55.1784 26.4727C55.6612 26.4732 56.0524 26.8638 56.0524 27.3467V30.9844L59.2043 29.1655C59.6227 28.9243 60.159 29.0694 60.4006 29.4878C60.6411 29.9061 60.4964 30.4403 60.0783 30.6816L56.9264 32.5005L60.0783 34.3218C60.4964 34.5632 60.6412 35.0973 60.4006 35.5156C60.1591 35.9339 59.6227 36.0791 59.2043 35.8379L56.0524 34.0166V37.6567C56.0523 38.1395 55.6611 38.5302 55.1784 38.5308C54.6952 38.5308 54.3021 38.1399 54.3019 37.6567Z"
                fill="#133C69"
            />
            <g filter="url(#filter1_ii_10112_34966)">
                <path d="M0 30L40 55L0 80V30Z" fill="url(#paint4_linear_10112_34966)" />
            </g>
            <g filter="url(#filter2_ii_10112_34966)">
                <path d="M40 55L80 30V80L40 55Z" fill="url(#paint5_linear_10112_34966)" />
            </g>
            <g filter="url(#filter3_iii_10112_34966)">
                <path
                    d="M38.2 51.35C39.2667 50.55 40.7333 50.55 41.8 51.35L80 80H0L38.2 51.35Z"
                    fill="url(#paint6_linear_10112_34966)"
                />
            </g>
        </g>
        <g filter="url(#filter4_dd_10112_34966)">
            <path
                fill-rule="evenodd"
                clip-rule="evenodd"
                d="M69.168 60.501C72.5653 61.7028 75 64.941 75 68.75C75 73.5825 71.0825 77.5 66.25 77.5C61.4175 77.5 57.5 73.5825 57.5 68.75C57.5 64.9399 59.9361 61.701 63.335 60.5V54.166H57.5V48.332H63.335V43.75H69.168V60.501ZM66.25 65C64.1789 65 62.5 66.6789 62.5 68.75C62.5 70.8211 64.1789 72.5 66.25 72.5C68.3211 72.5 70 70.8211 70 68.75C70 66.6789 68.3211 65 66.25 65Z"
                fill="url(#paint7_linear_10112_34966)"
            />
        </g>
    </g>
    <defs>
        <filter
            id="filter0_dd_10112_34966"
            x="-3.5"
            y="6"
            width="87"
            height="67"
            filterUnits="userSpaceOnUse"
            color-interpolation-filters="sRGB"
        >
            <feFlood flood-opacity="0" result="BackgroundImageFix" />
            <feColorMatrix
                in="SourceAlpha"
                type="matrix"
                values="0 0 0 0 0 0 0 0 0 0 0 0 0 0 0 0 0 0 127 0"
                result="hardAlpha"
            />
            <feOffset dy="2" />
            <feGaussianBlur stdDeviation="8" />
            <feComposite in2="hardAlpha" operator="out" />
            <feColorMatrix type="matrix" values="0 0 0 0 1 0 0 0 0 1 0 0 0 0 1 0 0 0 0.75 0" />
            <feBlend mode="normal" in2="BackgroundImageFix" result="effect1_dropShadow_10112_34966" />
            <feColorMatrix
                in="SourceAlpha"
                type="matrix"
                values="0 0 0 0 0 0 0 0 0 0 0 0 0 0 0 0 0 0 127 0"
                result="hardAlpha"
            />
            <feOffset dy="1" />
            <feGaussianBlur stdDeviation="2" />
            <feComposite in2="hardAlpha" operator="out" />
            <feColorMatrix type="matrix" values="0 0 0 0 0.0755788 0 0 0 0 0.397647 0 0 0 0 0.705559 0 0 0 0.2 0" />
            <feBlend mode="normal" in2="effect1_dropShadow_10112_34966" result="effect2_dropShadow_10112_34966" />
            <feBlend mode="normal" in="SourceGraphic" in2="effect2_dropShadow_10112_34966" result="shape" />
        </filter>
        <filter
            id="filter1_ii_10112_34966"
            x="-2"
            y="28"
            width="42"
            height="54"
            filterUnits="userSpaceOnUse"
            color-interpolation-filters="sRGB"
        >
            <feFlood flood-opacity="0" result="BackgroundImageFix" />
            <feBlend mode="normal" in="SourceGraphic" in2="BackgroundImageFix" result="shape" />
            <feColorMatrix
                in="SourceAlpha"
                type="matrix"
                values="0 0 0 0 0 0 0 0 0 0 0 0 0 0 0 0 0 0 127 0"
                result="hardAlpha"
            />
            <feOffset dy="-2" />
            <feGaussianBlur stdDeviation="1.5" />
            <feComposite in2="hardAlpha" operator="arithmetic" k2="-1" k3="1" />
            <feColorMatrix type="matrix" values="0 0 0 0 0.188235 0 0 0 0 0.705882 0 0 0 0 0.619608 0 0 0 0.2 0" />
            <feBlend mode="normal" in2="shape" result="effect1_innerShadow_10112_34966" />
            <feColorMatrix
                in="SourceAlpha"
                type="matrix"
                values="0 0 0 0 0 0 0 0 0 0 0 0 0 0 0 0 0 0 127 0"
                result="hardAlpha"
            />
            <feOffset dx="-3" dy="2" />
            <feGaussianBlur stdDeviation="1" />
            <feComposite in2="hardAlpha" operator="arithmetic" k2="-1" k3="1" />
            <feColorMatrix type="matrix" values="0 0 0 0 1 0 0 0 0 1 0 0 0 0 1 0 0 0 0.1 0" />
            <feBlend mode="normal" in2="effect1_innerShadow_10112_34966" result="effect2_innerShadow_10112_34966" />
        </filter>
        <filter
            id="filter2_ii_10112_34966"
            x="38"
            y="28"
            width="42"
            height="54"
            filterUnits="userSpaceOnUse"
            color-interpolation-filters="sRGB"
        >
            <feFlood flood-opacity="0" result="BackgroundImageFix" />
            <feBlend mode="normal" in="SourceGraphic" in2="BackgroundImageFix" result="shape" />
            <feColorMatrix
                in="SourceAlpha"
                type="matrix"
                values="0 0 0 0 0 0 0 0 0 0 0 0 0 0 0 0 0 0 127 0"
                result="hardAlpha"
            />
            <feOffset dy="-2" />
            <feGaussianBlur stdDeviation="1.5" />
            <feComposite in2="hardAlpha" operator="arithmetic" k2="-1" k3="1" />
            <feColorMatrix type="matrix" values="0 0 0 0 0.188235 0 0 0 0 0.705882 0 0 0 0 0.619608 0 0 0 0.2 0" />
            <feBlend mode="normal" in2="shape" result="effect1_innerShadow_10112_34966" />
            <feColorMatrix
                in="SourceAlpha"
                type="matrix"
                values="0 0 0 0 0 0 0 0 0 0 0 0 0 0 0 0 0 0 127 0"
                result="hardAlpha"
            />
            <feOffset dx="-3" dy="2" />
            <feGaussianBlur stdDeviation="1" />
            <feComposite in2="hardAlpha" operator="arithmetic" k2="-1" k3="1" />
            <feColorMatrix type="matrix" values="0 0 0 0 1 0 0 0 0 1 0 0 0 0 1 0 0 0 0.1 0" />
            <feBlend mode="normal" in2="effect1_innerShadow_10112_34966" result="effect2_innerShadow_10112_34966" />
        </filter>
        <filter
            id="filter3_iii_10112_34966"
            x="-2"
            y="48.75"
            width="82"
            height="33.25"
            filterUnits="userSpaceOnUse"
            color-interpolation-filters="sRGB"
        >
            <feFlood flood-opacity="0" result="BackgroundImageFix" />
            <feBlend mode="normal" in="SourceGraphic" in2="BackgroundImageFix" result="shape" />
            <feColorMatrix
                in="SourceAlpha"
                type="matrix"
                values="0 0 0 0 0 0 0 0 0 0 0 0 0 0 0 0 0 0 127 0"
                result="hardAlpha"
            />
            <feOffset dy="-2" />
            <feGaussianBlur stdDeviation="1.5" />
            <feComposite in2="hardAlpha" operator="arithmetic" k2="-1" k3="1" />
            <feColorMatrix type="matrix" values="0 0 0 0 0.172549 0 0 0 0 0.588235 0 0 0 0 0.960784 0 0 0 0.2 0" />
            <feBlend mode="normal" in2="shape" result="effect1_innerShadow_10112_34966" />
            <feColorMatrix
                in="SourceAlpha"
                type="matrix"
                values="0 0 0 0 0 0 0 0 0 0 0 0 0 0 0 0 0 0 127 0"
                result="hardAlpha"
            />
            <feOffset dx="-3" dy="2" />
            <feGaussianBlur stdDeviation="1" />
            <feComposite in2="hardAlpha" operator="arithmetic" k2="-1" k3="1" />
            <feColorMatrix type="matrix" values="0 0 0 0 1 0 0 0 0 1 0 0 0 0 1 0 0 0 0.1 0" />
            <feBlend mode="normal" in2="effect1_innerShadow_10112_34966" result="effect2_innerShadow_10112_34966" />
            <feColorMatrix
                in="SourceAlpha"
                type="matrix"
                values="0 0 0 0 0 0 0 0 0 0 0 0 0 0 0 0 0 0 127 0"
                result="hardAlpha"
            />
            <feOffset dy="0.25" />
            <feComposite in2="hardAlpha" operator="arithmetic" k2="-1" k3="1" />
            <feColorMatrix type="matrix" values="0 0 0 0 1 0 0 0 0 1 0 0 0 0 1 0 0 0 0.2 0" />
            <feBlend mode="normal" in2="effect2_innerShadow_10112_34966" result="effect3_innerShadow_10112_34966" />
        </filter>
        <filter
            id="filter4_dd_10112_34966"
            x="27.5"
            y="16.25"
            width="77.5"
            height="93.75"
            filterUnits="userSpaceOnUse"
            color-interpolation-filters="sRGB"
        >
            <feFlood flood-opacity="0" result="BackgroundImageFix" />
            <feColorMatrix
                in="SourceAlpha"
                type="matrix"
                values="0 0 0 0 0 0 0 0 0 0 0 0 0 0 0 0 0 0 127 0"
                result="hardAlpha"
            />
            <feOffset dy="2.5" />
            <feGaussianBlur stdDeviation="15" />
            <feComposite in2="hardAlpha" operator="out" />
            <feColorMatrix type="matrix" values="0 0 0 0 1 0 0 0 0 1 0 0 0 0 1 0 0 0 0.8 0" />
            <feBlend mode="normal" in2="BackgroundImageFix" result="effect1_dropShadow_10112_34966" />
            <feColorMatrix
                in="SourceAlpha"
                type="matrix"
                values="0 0 0 0 0 0 0 0 0 0 0 0 0 0 0 0 0 0 127 0"
                result="hardAlpha"
            />
            <feOffset dy="2" />
            <feGaussianBlur stdDeviation="2" />
            <feComposite in2="hardAlpha" operator="out" />
            <feColorMatrix type="matrix" values="0 0 0 0 0.172549 0 0 0 0 0.513726 0 0 0 0 0.862745 0 0 0 0.5 0" />
            <feBlend mode="normal" in2="effect1_dropShadow_10112_34966" result="effect2_dropShadow_10112_34966" />
            <feBlend mode="normal" in="SourceGraphic" in2="effect2_dropShadow_10112_34966" result="shape" />
        </filter>
        <radialGradient
            id="paint0_radial_10112_34966"
            cx="0"
            cy="0"
            r="1"
            gradientTransform="matrix(-23.3962 37.9644 -77.5736 -15.2717 63.3962 1.53993e-06)"
            gradientUnits="userSpaceOnUse"
        >
            <stop stop-color="#BBDAF7" />
            <stop offset="0.698128" stop-color="#54A5F3" />
            <stop offset="1" stop-color="#2984DB" />
        </radialGradient>
        <linearGradient id="paint1_linear_10112_34966" x1="40" y1="30" x2="40" y2="80" gradientUnits="userSpaceOnUse">
            <stop stop-color="#2C96F5" />
            <stop offset="1" stop-color="#1D62A7" />
        </linearGradient>
        <linearGradient
            id="paint2_linear_10112_34966"
            x1="33.75"
            y1="20"
            x2="54.7463"
            y2="45.2266"
            gradientUnits="userSpaceOnUse"
        >
            <stop stop-color="white" />
            <stop offset="1" stop-color="#BBDAF7" />
        </linearGradient>
        <radialGradient
            id="paint3_radial_10112_34966"
            cx="0"
            cy="0"
            r="1"
            gradientTransform="matrix(-22.1341 17.0625 -26.8125 -59.1938 45.7012 34.4375)"
            gradientUnits="userSpaceOnUse"
        >
            <stop stop-color="white" stop-opacity="0" />
            <stop offset="1" stop-color="white" />
        </radialGradient>
        <linearGradient
            id="paint4_linear_10112_34966"
            x1="38.1818"
            y1="30"
            x2="0.384451"
            y2="74.6654"
            gradientUnits="userSpaceOnUse"
        >
            <stop stop-color="#BBDAF7" />
            <stop offset="1" stop-color="#54A5F3" />
        </linearGradient>
        <linearGradient
            id="paint5_linear_10112_34966"
            x1="78.1818"
            y1="30"
            x2="40.3845"
            y2="74.6654"
            gradientUnits="userSpaceOnUse"
        >
            <stop stop-color="#BBDAF7" />
            <stop offset="1" stop-color="#54A5F3" />
        </linearGradient>
        <linearGradient
            id="paint6_linear_10112_34966"
            x1="76.3637"
            y1="50"
            x2="65.395"
            y2="93.2059"
            gradientUnits="userSpaceOnUse"
        >
            <stop stop-color="#F1F7FD" />
            <stop offset="1" stop-color="#83BDF5" />
        </linearGradient>
        <linearGradient
            id="paint7_linear_10112_34966"
            x1="75.1162"
            y1="47.9688"
            x2="51.258"
            y2="63.9043"
            gradientUnits="userSpaceOnUse"
        >
            <stop stop-color="white" />
            <stop offset="1" stop-color="#CEF2FF" />
        </linearGradient>
        <clipPath id="clip0_10112_34966">
            <rect width="80" height="80" fill="white" />
        </clipPath>
    </defs>
</svg>
