<svg width="80" height="80" viewBox="0 0 80 80" fill="none" xmlns="http://www.w3.org/2000/svg">
    <g clip-path="url(#clip0_10261_104802)">
        <path
            opacity="0.75"
            d="M6.86523 17.5C6.86523 15.0838 8.82399 13.125 11.2402 13.125H68.7402C71.1565 13.125 73.1152 15.0838 73.1152 17.5V58.75H6.86523V17.5Z"
            fill="url(#paint0_linear_10261_104802)"
        />
        <path
            d="M7.49023 17.5C7.49023 15.4289 9.16917 13.75 11.2402 13.75H68.7402C70.8113 13.75 72.4902 15.4289 72.4902 17.5V58.75H7.49023V17.5Z"
            fill="url(#paint1_linear_10261_104802)"
        />
        <path
            d="M9.36523 17.5C9.36523 16.4645 10.2047 15.625 11.2402 15.625H68.7402C69.7758 15.625 70.6152 16.4645 70.6152 17.5V58.75H9.36523V17.5Z"
            fill="#F1F7FD"
        />
        <path
            d="M9.36523 17.5C9.36523 16.4645 10.2047 15.625 11.2402 15.625H68.7402C69.7758 15.625 70.6152 16.4645 70.6152 17.5V58.75H9.36523V17.5Z"
            fill="url(#paint2_linear_10261_104802)"
        />
        <path
            fill-rule="evenodd"
            clip-rule="evenodd"
            d="M69.9922 30.7207L7.49023 53.749V51.1904L69.9922 28.1621V30.7207ZM69.9922 28.1318L7.49023 49.4551V40.0732L69.9922 18.75V28.1318Z"
            fill="url(#paint3_linear_10261_104802)"
        />
        <path
            opacity="0.75"
            d="M-0.00976562 60.3125C-0.00976562 59.1044 0.969612 58.125 2.17773 58.125H75.3027C76.5109 58.125 77.4902 59.1044 77.4902 60.3125C77.4902 61.5206 76.5109 62.5 75.3027 62.5H2.17773C0.969609 62.5 -0.00976562 61.5206 -0.00976562 60.3125Z"
            fill="url(#paint4_linear_10261_104802)"
        />
        <path
            d="M-0.00976562 60.625C-0.00976562 59.5895 0.829701 58.75 1.86523 58.75H75.6152C76.6508 58.75 77.4902 59.5895 77.4902 60.625C77.4902 61.6605 76.6508 62.5 75.6152 62.5H1.86523C0.829699 62.5 -0.00976562 61.6605 -0.00976562 60.625Z"
            fill="url(#paint5_linear_10261_104802)"
        />
        <path
            d="M42.5934 60.4228H35.3154C34.3763 60.4228 33.6426 59.6598 33.6426 58.75H44.2662C44.2662 59.6598 43.5325 60.4228 42.5934 60.4228Z"
            fill="#83BDF5"
        />
        <path
            d="M59.9902 36.875C59.9902 47.9207 51.0359 56.875 39.9902 56.875C28.9445 56.875 19.9902 47.9207 19.9902 36.875C19.9902 25.8293 28.9445 16.875 39.9902 16.875C51.0359 16.875 59.9902 25.8293 59.9902 36.875Z"
            fill="url(#paint6_radial_10261_104802)"
        />
        <path
            opacity="0.75"
            d="M23.9357 42.0317V38.3916L20.7839 40.2129C20.3655 40.4538 19.8315 40.3089 19.59 39.8906C19.3486 39.4722 19.4914 38.9383 19.9098 38.6968L23.0593 36.8755L19.9098 35.0566C19.4915 34.8151 19.3488 34.2812 19.59 33.8628C19.8315 33.4445 20.3655 33.2995 20.7839 33.5405L23.9357 35.3594V31.7217C23.9357 31.2384 24.3289 30.8477 24.8122 30.8477C25.295 30.8482 25.6862 31.2388 25.6862 31.7217V35.3594L28.8381 33.5405C29.2565 33.2993 29.7928 33.4444 30.0344 33.8628C30.2749 34.2811 30.1301 34.8153 29.7121 35.0566L26.5602 36.8755L29.7121 38.6968C30.1302 38.9382 30.275 39.4723 30.0344 39.8906C29.7928 40.3089 29.2565 40.4541 28.8381 40.2129L25.6862 38.3916V42.0317C25.6861 42.5145 25.2949 42.9052 24.8122 42.9058C24.329 42.9058 23.9358 42.5149 23.9357 42.0317Z"
            fill="url(#paint7_linear_10261_104802)"
        />
        <path
            opacity="0.75"
            d="M39.1164 42.0317V38.3916L35.9645 40.2129C35.5461 40.4538 35.0121 40.3089 34.7707 39.8906C34.5293 39.4722 34.6721 38.9383 35.0905 38.6968L38.2399 36.8755L35.0905 35.0566C34.6722 34.8151 34.5294 34.2812 34.7707 33.8628C35.0122 33.4445 35.5461 33.2995 35.9645 33.5405L39.1164 35.3594V31.7217C39.1164 31.2384 39.5096 30.8477 39.9929 30.8477C40.4756 30.8482 40.8669 31.2388 40.8669 31.7217V35.3594L44.0187 33.5405C44.4372 33.2993 44.9735 33.4444 45.215 33.8628C45.4555 34.2811 45.3108 34.8153 44.8928 35.0566L41.7409 36.8755L44.8928 38.6968C45.3109 38.9382 45.4557 39.4723 45.215 39.8906C44.9735 40.3089 44.4372 40.4541 44.0187 40.2129L40.8669 38.3916V42.0317C40.8667 42.5145 40.4755 42.9052 39.9929 42.9058C39.5097 42.9058 39.1165 42.5149 39.1164 42.0317Z"
            fill="url(#paint8_linear_10261_104802)"
        />
        <path
            opacity="0.75"
            d="M54.2922 42.0317V38.3916L51.1403 40.2129C50.7219 40.4538 50.1879 40.3089 49.9465 39.8906C49.7051 39.4722 49.8479 38.9383 50.2663 38.6968L53.4157 36.8755L50.2663 35.0566C49.8479 34.8151 49.7052 34.2812 49.9465 33.8628C50.188 33.4445 50.7219 33.2995 51.1403 33.5405L54.2922 35.3594V31.7217C54.2922 31.2384 54.6854 30.8477 55.1686 30.8477C55.6514 30.8482 56.0427 31.2388 56.0427 31.7217V35.3594L59.1945 33.5405C59.613 33.2993 60.1493 33.4444 60.3908 33.8628C60.6313 34.2811 60.4866 34.8153 60.0685 35.0566L56.9167 36.8755L60.0685 38.6968C60.4866 38.9382 60.6315 39.4723 60.3908 39.8906C60.1493 40.3089 59.6129 40.4541 59.1945 40.2129L56.0427 38.3916V42.0317C56.0425 42.5145 55.6513 42.9052 55.1686 42.9058C54.6855 42.9058 54.2923 42.5149 54.2922 42.0317Z"
            fill="url(#paint9_linear_10261_104802)"
        />
        <path
            opacity="0.75"
            d="M57.4902 27.5C57.4902 25.7741 58.8893 24.375 60.6152 24.375H76.8652C78.5911 24.375 79.9902 25.7741 79.9902 27.5V63.75C79.9902 65.4759 78.5911 66.875 76.8652 66.875H60.6152C58.8893 66.875 57.4902 65.4759 57.4902 63.75V27.5Z"
            fill="url(#paint10_linear_10261_104802)"
        />
        <path
            d="M58.1152 27.5C58.1152 26.1193 59.2345 25 60.6152 25H76.8652C78.2459 25 79.3652 26.1193 79.3652 27.5V63.75C79.3652 65.1307 78.2459 66.25 76.8652 66.25H60.6152C59.2345 66.25 58.1152 65.1307 58.1152 63.75V27.5Z"
            fill="url(#paint11_linear_10261_104802)"
        />
        <path
            d="M58.7402 27.5C58.7402 26.4645 59.5797 25.625 60.6152 25.625H76.8652C77.9008 25.625 78.7402 26.4645 78.7402 27.5V63.75C78.7402 64.7855 77.9008 65.625 76.8652 65.625H60.6152C59.5797 65.625 58.7402 64.7855 58.7402 63.75V27.5Z"
            fill="url(#paint12_linear_10261_104802)"
        />
        <path
            fill-rule="evenodd"
            clip-rule="evenodd"
            d="M79.4219 40.125L58.1152 59.6055V57.4414L79.4219 37.9609V40.125ZM79.4219 37.9365L58.1152 55.9736V48.0371L79.4219 30V37.9365Z"
            fill="url(#paint13_linear_10261_104802)"
        />
        <circle cx="68.2402" cy="28.25" r="0.875" fill="#091A30" stroke="#BBDAF7" stroke-width="0.25" />
        <path
            d="M77.4902 45.625C77.4902 50.4575 73.5727 54.375 68.7402 54.375C63.9077 54.375 59.9902 50.4575 59.9902 45.625C59.9902 40.7925 63.9077 36.875 68.7402 36.875C73.5727 36.875 77.4902 40.7925 77.4902 45.625Z"
            fill="url(#paint14_radial_10261_104802)"
        />
        <path
            opacity="0.75"
            d="M73.9411 39.6728C74.3242 39.2758 74.9452 39.2757 75.3282 39.6728C75.7109 40.07 75.7109 40.7141 75.3282 41.1112L67.223 49.5153C66.8399 49.9125 66.219 49.9125 65.836 49.5153L62.1525 45.6954C61.7695 45.2981 61.7695 44.6542 62.1525 44.257C62.5355 43.8598 63.1565 43.8598 63.5395 44.257L66.5295 47.3576L73.9411 39.6728Z"
            fill="url(#paint15_linear_10261_104802)"
        />
    </g>
    <defs>
        <linearGradient
            id="paint0_linear_10261_104802"
            x1="70.4503"
            y1="12.5"
            x2="43.6137"
            y2="71.1151"
            gradientUnits="userSpaceOnUse"
        >
            <stop stop-color="#F1F7FD" />
            <stop offset="1" stop-color="#D6E9FA" />
        </linearGradient>
        <linearGradient
            id="paint1_linear_10261_104802"
            x1="39.9902"
            y1="13.3929"
            x2="39.9902"
            y2="59.1071"
            gradientUnits="userSpaceOnUse"
        >
            <stop stop-color="#1D62A7" />
            <stop offset="1" stop-color="#54A5F3" />
        </linearGradient>
        <linearGradient
            id="paint2_linear_10261_104802"
            x1="69.8472"
            y1="14.9294"
            x2="43.3767"
            y2="70.5832"
            gradientUnits="userSpaceOnUse"
        >
            <stop stop-color="#F1F7FD" />
            <stop offset="1" stop-color="#83BDF5" />
        </linearGradient>
        <linearGradient
            id="paint3_linear_10261_104802"
            x1="60.5222"
            y1="22.8993"
            x2="36.1623"
            y2="66.008"
            gradientUnits="userSpaceOnUse"
        >
            <stop stop-color="white" stop-opacity="0.3" />
            <stop offset="1" stop-color="white" stop-opacity="0.05" />
        </linearGradient>
        <linearGradient
            id="paint4_linear_10261_104802"
            x1="76.7722"
            y1="58.0599"
            x2="76.4813"
            y2="65.43"
            gradientUnits="userSpaceOnUse"
        >
            <stop stop-color="#F1F7FD" />
            <stop offset="1" stop-color="#D6E9FA" />
        </linearGradient>
        <linearGradient
            id="paint5_linear_10261_104802"
            x1="-0.00976562"
            y1="60.625"
            x2="77.4902"
            y2="60.625"
            gradientUnits="userSpaceOnUse"
        >
            <stop stop-color="#2C96F5" />
            <stop offset="1" stop-color="#1D62A7" />
        </linearGradient>
        <radialGradient
            id="paint6_radial_10261_104802"
            cx="0"
            cy="0"
            r="1"
            gradientUnits="userSpaceOnUse"
            gradientTransform="translate(39.9902 36.875) rotate(90) scale(20)"
        >
            <stop stop-color="#CCFFF3" stop-opacity="0.5" />
            <stop offset="0.35" stop-color="#CCFFF3" stop-opacity="0.45" />
            <stop offset="0.75" stop-color="#CCFFF3" stop-opacity="0.15" />
            <stop offset="1" stop-color="#CCFFF3" stop-opacity="0" />
        </radialGradient>
        <linearGradient
            id="paint7_linear_10261_104802"
            x1="28.6946"
            y1="27.9597"
            x2="17.9457"
            y2="38.2826"
            gradientUnits="userSpaceOnUse"
        >
            <stop stop-color="#3BA36B" />
            <stop offset="1" stop-color="#1E7A71" />
        </linearGradient>
        <linearGradient
            id="paint8_linear_10261_104802"
            x1="43.8753"
            y1="27.9597"
            x2="33.1264"
            y2="38.2826"
            gradientUnits="userSpaceOnUse"
        >
            <stop stop-color="#3BA36B" />
            <stop offset="1" stop-color="#1E7A71" />
        </linearGradient>
        <linearGradient
            id="paint9_linear_10261_104802"
            x1="59.0511"
            y1="27.9597"
            x2="48.3021"
            y2="38.2826"
            gradientUnits="userSpaceOnUse"
        >
            <stop stop-color="#3BA36B" />
            <stop offset="1" stop-color="#1E7A71" />
        </linearGradient>
        <linearGradient
            id="paint10_linear_10261_104802"
            x1="79.2974"
            y1="24.375"
            x2="47.4537"
            y2="50.0805"
            gradientUnits="userSpaceOnUse"
        >
            <stop stop-color="#F1F7FD" />
            <stop offset="1" stop-color="#D6E9FA" />
        </linearGradient>
        <linearGradient
            id="paint11_linear_10261_104802"
            x1="68.7402"
            y1="24.6726"
            x2="68.7402"
            y2="66.5774"
            gradientUnits="userSpaceOnUse"
        >
            <stop stop-color="#102D4E" />
            <stop offset="1" stop-color="#1D62A7" />
        </linearGradient>
        <linearGradient
            id="paint12_linear_10261_104802"
            x1="78.4895"
            y1="24.9798"
            x2="48.2206"
            y2="47.3836"
            gradientUnits="userSpaceOnUse"
        >
            <stop stop-color="#F1F7FD" />
            <stop offset="1" stop-color="#83BDF5" />
        </linearGradient>
        <linearGradient
            id="paint13_linear_10261_104802"
            x1="76.1936"
            y1="33.5098"
            x2="53.4507"
            y2="49.7295"
            gradientUnits="userSpaceOnUse"
        >
            <stop stop-color="white" stop-opacity="0.3" />
            <stop offset="1" stop-color="white" stop-opacity="0.05" />
        </linearGradient>
        <radialGradient
            id="paint14_radial_10261_104802"
            cx="0"
            cy="0"
            r="1"
            gradientUnits="userSpaceOnUse"
            gradientTransform="translate(68.7402 45.625) rotate(90) scale(8.75)"
        >
            <stop stop-color="#CCFFF3" stop-opacity="0.5" />
            <stop offset="0.35" stop-color="#CCFFF3" stop-opacity="0.45" />
            <stop offset="0.75" stop-color="#CCFFF3" stop-opacity="0.15" />
            <stop offset="1" stop-color="#CCFFF3" stop-opacity="0" />
        </radialGradient>
        <linearGradient
            id="paint15_linear_10261_104802"
            x1="73.7402"
            y1="36.875"
            x2="64.9902"
            y2="49.375"
            gradientUnits="userSpaceOnUse"
        >
            <stop stop-color="#3BA36B" />
            <stop offset="1" stop-color="#1E7A71" />
        </linearGradient>
        <clipPath id="clip0_10261_104802">
            <rect width="80" height="80" fill="white" />
        </clipPath>
    </defs>
</svg>
