<svg xmlns="http://www.w3.org/2000/svg" width="64" height="64" fill="none" viewBox="0 0 64 64">
    <g clip-path="url(#a)">
        <path fill="url(#b)" d="M3.5 13.5A3.5 3.5 0 0 1 7 10h50a3.5 3.5 0 0 1 3.5 3.5v33h-57z" opacity=".75" />
        <path fill="url(#c)" d="M4 13.5a3 3 0 0 1 3-3h50a3 3 0 0 1 3 3v33H4z" />
        <path fill="url(#d)" d="M5.5 13.5A1.5 1.5 0 0 1 7 12h50a1.5 1.5 0 0 1 1.5 1.5v33h-53z" />
        <g filter="url(#e)">
            <path fill="url(#f)" d="M36.5 21.25a4.25 4.25 0 0 0-8.5 0V22h-2v-.75a6.25 6.25 0 1 1 12.5 0V29h-2z" />
            <path fill="url(#g)" d="M21 30a5 5 0 0 1 5-5h13a5 5 0 0 1 5 5v8a5 5 0 0 1-5 5H26a5 5 0 0 1-5-5z" />
            <path
                fill="url(#h)"
                d="M34.285 32.662a2 2 0 1 0-2.762 1.85l-.43 2.365-.009.15a.67.67 0 0 0 .666.635h1.07l.15-.017a.667.667 0 0 0 .507-.768l-.432-2.365a2 2 0 0 0 1.24-1.85m.5 0c0 .897-.475 1.679-1.183 2.12l.367 2.005.015.133a1.167 1.167 0 0 1-1.164 1.242h-1.07a1.168 1.168 0 0 1-1.148-1.375l.363-2.006a2.5 2.5 0 0 1-1.18-2.119 2.5 2.5 0 0 1 5 0"
            />
            <path
                fill="url(#i)"
                d="M32.285 30.662a2 2 0 0 1 .76 3.85l.431 2.364a.667.667 0 0 1-.656.786h-1.07a.667.667 0 0 1-.656-.786l.43-2.364a2 2 0 0 1 .761-3.85"
            />
        </g>
        <path
            fill="url(#j)"
            d="M0 48.25c0-.967.809-1.75 1.806-1.75h60.388c.997 0 1.806.783 1.806 1.75S63.191 50 62.194 50H1.806C.81 50 0 49.217 0 48.25"
            opacity=".75"
        />
        <path
            fill="url(#k)"
            d="M0 48.5c0-.828.693-1.5 1.548-1.5h60.904c.855 0 1.548.672 1.548 1.5s-.693 1.5-1.548 1.5H1.548C.693 50 0 49.328 0 48.5"
        />
        <path fill="#c3bfd3" d="M34.74 48h-5.48c-.708 0-1.26-.456-1.26-1h8c0 .544-.553 1-1.26 1" />
        <path
            fill="url(#l)"
            d="M45.992 22a2.5 2.5 0 0 1 2.5-2.5h13a2.5 2.5 0 0 1 2.5 2.5v29a2.5 2.5 0 0 1-2.5 2.5h-13a2.5 2.5 0 0 1-2.5-2.5z"
            opacity=".75"
        />
        <path fill="url(#m)" d="M46.492 22a2 2 0 0 1 2-2h13a2 2 0 0 1 2 2v29a2 2 0 0 1-2 2h-13a2 2 0 0 1-2-2z" />
        <path
            fill="url(#n)"
            d="M46.992 22a1.5 1.5 0 0 1 1.5-1.5h13a1.5 1.5 0 0 1 1.5 1.5v29a1.5 1.5 0 0 1-1.5 1.5h-13a1.5 1.5 0 0 1-1.5-1.5z"
        />
        <circle cx="55" cy="22.6" r=".725" fill="#15131b" stroke="#c3bfd3" stroke-width=".25" />
        <g filter="url(#o)"><circle cx="55" cy="36.5" r="5" fill="#f5f6fe" /></g>
        <path fill="url(#p)" d="M55 31.5v5h5a5 5 0 1 1-5-5" />
        <circle cx="55" cy="36.5" r="5.125" stroke="#f5f6fe" stroke-width=".25" />
    </g>
    <defs>
        <linearGradient id="b" x1="56.368" x2="34.899" y1="7.5" y2="54.392" gradientUnits="userSpaceOnUse">
            <stop stop-color="#f6f6f9" />
            <stop offset="1" stop-color="#dcdae6" />
        </linearGradient>
        <linearGradient id="c" x1="32" x2="32" y1="8.214" y2="44.786" gradientUnits="userSpaceOnUse">
            <stop stop-color="#716a8c" />
            <stop offset="1" stop-color="#c3bfd3" />
        </linearGradient>
        <linearGradient id="f" x1="32.058" x2="32.058" y1="13.877" y2="29.632" gradientUnits="userSpaceOnUse">
            <stop stop-color="#1e7a71" />
            <stop offset="1" stop-color="#0fbdab" />
        </linearGradient>
        <linearGradient id="g" x1="43.542" x2="35.669" y1="26.21" y2="43.088" gradientUnits="userSpaceOnUse">
            <stop stop-color="#a9eeb4" />
            <stop offset="1" stop-color="#1fa698" />
        </linearGradient>
        <linearGradient id="h" x1="34.162" x2="30.696" y1="30.662" y2="38.091" gradientUnits="userSpaceOnUse">
            <stop stop-color="#1e7a71" />
            <stop offset="1" stop-color="#a9eeb4" />
        </linearGradient>
        <linearGradient id="i" x1="32.224" x2="32.224" y1="30.605" y2="37.957" gradientUnits="userSpaceOnUse">
            <stop stop-color="#134b46" />
            <stop offset="1" stop-color="#1fa698" />
        </linearGradient>
        <linearGradient id="j" x1="63.407" x2="63.182" y1="46.448" y2="52.345" gradientUnits="userSpaceOnUse">
            <stop stop-color="#f6f6f9" />
            <stop offset="1" stop-color="#dcdae6" />
        </linearGradient>
        <linearGradient id="k" x1="0" x2="64" y1="48.5" y2="48.5" gradientUnits="userSpaceOnUse">
            <stop stop-color="#958fad" />
            <stop offset="1" stop-color="#5d5677" />
        </linearGradient>
        <linearGradient id="l" x1="63.438" x2="37.963" y1="19.5" y2="40.064" gradientUnits="userSpaceOnUse">
            <stop stop-color="#f6f6f9" />
            <stop offset="1" stop-color="#dcdae6" />
        </linearGradient>
        <linearGradient id="m" x1="54.992" x2="54.992" y1="19.738" y2="53.262" gradientUnits="userSpaceOnUse">
            <stop stop-color="#716a8c" />
            <stop offset="1" stop-color="#958fad" />
        </linearGradient>
        <linearGradient id="n" x1="62.792" x2="38.577" y1="19.984" y2="37.907" gradientUnits="userSpaceOnUse">
            <stop stop-color="#f5f6fe" />
            <stop offset="1" stop-color="#c5c6f8" />
        </linearGradient>
        <linearGradient id="p" x1="55.481" x2="58.269" y1="28.135" y2="40.923" gradientUnits="userSpaceOnUse">
            <stop stop-color="#dbc6f6" />
            <stop offset="1" stop-color="#6d4aff" />
        </linearGradient>
        <filter
            id="e"
            width="35"
            height="39.999"
            x="15"
            y="9"
            color-interpolation-filters="sRGB"
            filterUnits="userSpaceOnUse"
        >
            <feFlood flood-opacity="0" result="BackgroundImageFix" />
            <feColorMatrix in="SourceAlpha" result="hardAlpha" values="0 0 0 0 0 0 0 0 0 0 0 0 0 0 0 0 0 0 127 0" />
            <feOffset />
            <feGaussianBlur stdDeviation="3" />
            <feComposite in2="hardAlpha" operator="out" />
            <feColorMatrix values="0 0 0 0 0.427451 0 0 0 0 0.290196 0 0 0 0 1 0 0 0 0.4 0" />
            <feBlend in2="BackgroundImageFix" result="effect1_dropShadow_16631_5014" />
            <feBlend in="SourceGraphic" in2="effect1_dropShadow_16631_5014" result="shape" />
        </filter>
        <filter
            id="o"
            width="14"
            height="14"
            x="48"
            y="29.5"
            color-interpolation-filters="sRGB"
            filterUnits="userSpaceOnUse"
        >
            <feFlood flood-opacity="0" result="BackgroundImageFix" />
            <feColorMatrix in="SourceAlpha" result="hardAlpha" values="0 0 0 0 0 0 0 0 0 0 0 0 0 0 0 0 0 0 127 0" />
            <feOffset />
            <feGaussianBlur stdDeviation="1" />
            <feComposite in2="hardAlpha" operator="out" />
            <feColorMatrix values="0 0 0 0 0.427451 0 0 0 0 0.290196 0 0 0 0 1 0 0 0 0.25 0" />
            <feBlend in2="BackgroundImageFix" result="effect1_dropShadow_16631_5014" />
            <feBlend in="SourceGraphic" in2="effect1_dropShadow_16631_5014" result="shape" />
        </filter>
        <radialGradient
            id="d"
            cx="0"
            cy="0"
            r="1"
            gradientTransform="matrix(0 18.1718 -27.8692 0 32 27.828)"
            gradientUnits="userSpaceOnUse"
        >
            <stop stop-color="#f5f6fe" />
            <stop offset="1" stop-color="#dddefb" />
        </radialGradient>
        <clipPath id="a"><path fill="#fff" d="M0 0h64v64H0z" /></clipPath>
    </defs>
</svg>
