<svg width="96" height="24" viewBox="0 0 96 24" fill="none" xmlns="http://www.w3.org/2000/svg">
    <path
        d="M1.02734 17.4758V23.6285H5.34606V17.742C5.34606 17.1693 5.57357 16.6201 5.97853 16.2151C6.38348 15.8101 6.93272 15.5826 7.50542 15.5826H11.9336C13.9993 15.582 15.9803 14.761 17.4408 13.3001C18.9014 11.8392 19.7219 9.85812 19.7221 7.79238C19.7221 5.72632 18.9014 3.74486 17.4406 2.28383C15.9798 0.822797 13.9985 0.00183965 11.9324 0.00152588L1.02734 0.00152588V7.69239H5.34606V4.06645H11.6413C12.6188 4.06645 13.5562 4.45466 14.2475 5.14572C14.9388 5.83678 15.3273 6.77409 15.3276 7.75155C15.3276 8.72922 14.9393 9.66684 14.2479 10.3582C13.5566 11.0495 12.619 11.4378 11.6413 11.4378H7.06468C6.27168 11.4375 5.48639 11.5934 4.75369 11.8967C4.021 12.2 3.35527 12.6447 2.79456 13.2055C2.23386 13.7662 1.78918 14.432 1.48595 15.1647C1.18272 15.8975 1.02688 16.6828 1.02734 17.4758Z"
        fill="black"
    />
    <path
        d="M7.50424 15.5826C5.78651 15.5828 4.13917 16.2652 2.92456 17.4799C1.70994 18.6945 1.0275 20.3418 1.02734 22.0595L1.02734 23.6285H5.34606V17.742C5.34606 17.1695 5.5734 16.6204 5.97811 16.2155C6.38281 15.8106 6.93175 15.583 7.50424 15.5826Z"
        fill="black"
    />
    <path
        d="M20.3916 23.629V14.2556C20.3916 10.4315 22.6249 7.38592 27.0921 7.38592C27.8091 7.37547 28.5247 7.45497 29.2219 7.62256V11.4786C28.7143 11.4449 28.2753 11.4449 28.0712 11.4449C25.7048 11.4449 24.6872 12.5276 24.6872 14.7272V23.629H20.3916Z"
        fill="black"
    />
    <path
        d="M30.5093 15.6791C30.5093 10.9753 34.0625 7.38837 39.0035 7.38837C43.9446 7.38837 47.4972 10.9729 47.4972 15.6791C47.4972 20.3853 43.944 24.0012 39.0035 24.0012C34.063 24.0012 30.5093 20.3806 30.5093 15.6791ZM43.2678 15.6791C43.2678 13.0057 41.4741 11.1107 39.0041 11.1107C36.5342 11.1107 34.7398 13.0039 34.7398 15.6791C34.7398 18.3863 36.5336 20.2475 39.0041 20.2475C41.4747 20.2475 43.2678 18.3839 43.2678 15.6791Z"
        fill="black"
    />
    <path
        d="M61.2358 15.6791C61.2358 10.9753 64.789 7.38837 69.7301 7.38837C74.6712 7.38837 78.2238 10.9729 78.2238 15.6791C78.2238 20.3853 74.6706 24.0036 69.7301 24.0036C64.7896 24.0036 61.2358 20.3806 61.2358 15.6791ZM73.9938 15.6791C73.9938 13.0057 72.2001 11.1107 69.7301 11.1107C67.2602 11.1107 65.4658 13.0039 65.4658 15.6791C65.4658 18.3863 67.2596 20.2475 69.7301 20.2475C72.2007 20.2475 73.9938 18.3839 73.9938 15.6791Z"
        fill="black"
    />
    <path
        d="M80.457 23.629V14.594C80.457 10.3978 83.1305 7.38593 87.9018 7.38593C92.6394 7.38593 95.3128 10.3978 95.3128 14.594V23.629H91.0491V14.9324C91.0491 12.598 89.9996 11.1426 87.9018 11.1426C85.804 11.1426 84.7545 12.598 84.7545 14.9324V23.629H80.457Z"
        fill="black"
    />
    <path
        d="M59.951 11.142H55.314V17.064C55.314 19.1281 56.0583 20.0759 58.1904 20.0759C58.3934 20.0759 58.9004 20.0759 59.544 20.0422V23.5279C58.6643 23.7645 57.8875 23.9 57.0398 23.9C53.4529 23.9024 51.0178 21.7341 51.0178 17.6396V11.142H48.1396V7.72434H48.8573C49.1411 7.72449 49.4223 7.66868 49.6845 7.56008C49.9468 7.45149 50.1851 7.29224 50.3858 7.09146C50.5864 6.89068 50.7456 6.6523 50.854 6.38996C50.9625 6.12763 51.0181 5.84648 51.0178 5.56261V2.34369H55.3152V7.72434H59.951V11.142Z"
        fill="black"
    />
</svg>
