<svg xmlns="http://www.w3.org/2000/svg" width="274" height="190" fill="none">
    <path
        stroke="#CD003A"
        stroke-width="1.5"
        d="M194.415 116.177a.198.198 0 0 0-.129-.339l-2.119-.125a.5.5 0 0 1-.47-.47l-.124-2.118a.5.5 0 0 0-.47-.469l-2.118-.125a.5.5 0 0 1-.47-.47l-.124-2.119a.2.2 0 0 0-.34-.129l-2.868 2.869a4.5 4.5 0 0 0 6.364 6.364l2.868-2.869Z"
    />
    <circle cx="1" cy="1" r="1" fill="#CD003A" transform="matrix(0 1 1 0 206 99.5)" />
    <circle cx="1" cy="1" r="1" fill="#CD003A" transform="matrix(0 1 1 0 230 139.5)" />
    <circle cx="1" cy="1" r="1" fill="#FF5D7E" transform="matrix(0 1 1 0 230.246 17)" />
    <circle cx="1" cy="1" r="1" fill="#CD003A" transform="matrix(0 1 1 0 233.5 186)" />
    <circle cx="1" cy="1" r="1" fill="#CD003A" transform="matrix(0 1 1 0 271.746 71)" />
    <circle cx="1" cy="1" r="1" fill="#CD003A" transform="matrix(0 1 1 0 268.746 18.5)" />
    <circle cx="1" cy="1" r="1" fill="#FF5D7E" transform="matrix(0 1 1 0 199.5 149)" />
    <rect
        width="4.25"
        height="4.25"
        stroke="#FF5D7E"
        stroke-width=".75"
        rx="1.25"
        transform="scale(1 -1) rotate(-45 -73.386 -389.608)"
    />
    <circle cx=".75" cy=".75" r=".75" fill="#FF5D7E" transform="matrix(0 1 1 0 256.25 165.25)" />
    <path
        stroke="#CD003A"
        stroke-linecap="round"
        stroke-width="1.5"
        d="M241.579 74.513c-2.547-3.61-2.289-7.437-1.119-7.437 1.786-.107 3.952 2.784 4.58 3.868 2.75 4.75-.915 7.18-3.461 3.57Z"
    />
    <path
        stroke="#FF5D7E"
        stroke-linecap="round"
        stroke-width="1.5"
        d="M227.38 157.534c-2.828-3.394-6.591-4.136-6.894-3.005-.566 1.697 1.666 4.537 2.551 5.424 3.876 3.886 7.172.975 4.343-2.419Z"
    />
    <circle cx="1" cy="1" r="1" fill="#CD003A" transform="matrix(0 1 1 0 265.5 129.5)" />
    <circle cx="3" cy="3" r="3" stroke="#CD003A" stroke-width=".75" transform="matrix(0 1 1 0 263.5 127.5)" />
    <circle cx="1" cy="1" r="1" fill="#FF5D7E" transform="matrix(0 1 1 0 200.5 5)" />
    <circle cx="4.5" cy="4.5" r="4.5" stroke="#FF5D7E" stroke-width="1.125" transform="matrix(0 1 1 0 197 1.5)" />
    <path
        stroke="#FF5D7E"
        stroke-linecap="round"
        d="M236.879 101.304a.5.5 0 0 0 0 .892l1.359.689a.5.5 0 0 1 .273.473l-.083 1.521a.5.5 0 0 0 .773.446l1.276-.832a.5.5 0 0 1 .546 0l1.276.832a.5.5 0 0 0 .773-.446l-.083-1.521a.5.5 0 0 1 .273-.473l1.359-.689a.5.5 0 0 0 0-.892l-1.359-.689a.5.5 0 0 1-.273-.473l.083-1.521a.5.5 0 0 0-.773-.446l-1.276.832a.5.5 0 0 1-.546 0l-1.276-.832a.5.5 0 0 0-.773.446l.083 1.521a.5.5 0 0 1-.273.473l-1.359.689Z"
    />
    <path
        stroke="#CD003A"
        stroke-width="3.222"
        d="m219.037 35.2-21.281-6.774a9.107 9.107 0 0 0-5.506 0L170.968 35.2a2.775 2.775 0 0 0-1.923 2.534c-.306 8.172.219 39.854 25.521 48.2.306.088.612.088.874 0 25.302-8.346 25.826-40.028 25.52-48.2a2.773 2.773 0 0 0-1.923-2.535Z"
    />
    <path
        stroke="#CD003A"
        stroke-linecap="round"
        stroke-width="3.222"
        d="M195.18 33.237v46.722M213.305 56.597h-36.25M204.042 66.333l-8.861-8.86-3.866-8.963c-1.143-2.65-4.465-3.528-6.769-1.79v0c-2.847 2.148-2.137 6.605 1.237 7.763l5.572 1.913"
    />
    <path
        stroke="#CD003A"
        stroke-linecap="round"
        stroke-width="3.222"
        d="m186.083 66.333 8.861-8.86 3.866-8.963c1.143-2.65 4.465-3.528 6.769-1.79v0c2.847 2.148 2.137 6.605-1.237 7.763l-5.572 1.913"
    />
    <path
        stroke="#CD003A"
        stroke-width="1.5"
        d="M45.45 15.563a.199.199 0 0 0-.34.13l-.124 2.118a.5.5 0 0 1-.47.47l-2.118.125a.5.5 0 0 0-.47.47l-.124 2.117a.5.5 0 0 1-.47.47l-2.119.125a.199.199 0 0 0-.129.34l2.869 2.868a4.5 4.5 0 1 0 6.364-6.364l-2.869-2.869Z"
    />
    <path
        stroke="#FF5D7E"
        stroke-width="1.5"
        d="M142.356 52.66a.129.129 0 0 0-.137-.191l-1.194.245a.501.501 0 0 1-.576-.332l-.334-1.007a.5.5 0 0 0-.575-.333l-1.04.215a.5.5 0 0 1-.576-.333l-.384-1.157a.129.129 0 0 0-.234-.023l-1.314 2.276a2.916 2.916 0 1 0 5.05 2.916l1.314-2.277Z"
    />
    <circle cx="1" cy="1" r="1" fill="#CD003A" transform="matrix(-1 0 0 1 51.5 49.25)" />
    <circle cx="1" cy="1" r="1" fill="#CD003A" transform="matrix(-1 0 0 1 71.5 13.25)" />
    <circle cx="1" cy="1" r="1" fill="#CD003A" transform="matrix(-1 0 0 1 100 84.995)" />
    <circle cx="1" cy="1" r="1" fill="#FF5D7E" transform="matrix(-1 0 0 1 105.5 51.495)" />
    <circle cx="1" cy="1" r="1" fill="#CD003A" transform="matrix(-1 0 0 1 152.5 81.995)" />
    <circle cx="1" cy="1" r="1" fill="#FF5D7E" transform="matrix(-1 0 0 1 2 14.75)" />
    <rect
        width="8.5"
        height="8.5"
        stroke="#CD003A"
        stroke-width="1.5"
        rx="1.5"
        transform="scale(-1 1) rotate(45 -84 -173.789)"
    />
    <circle cx="1.5" cy="1.5" r="1.5" fill="#CD003A" transform="matrix(-1 0 0 1 149 12.995)" />
    <path
        stroke="#CD003A"
        stroke-linecap="round"
        stroke-width="1.5"
        d="M110.487 69.828c3.61-2.547 7.437-2.29 7.437-1.119.107 1.786-2.784 3.952-3.868 4.58-4.75 2.75-7.18-.915-3.569-3.461Z"
    />
    <path
        stroke="#FF5D7E"
        stroke-linecap="round"
        stroke-width="1.5"
        d="M12.959 40.63c-3.394-2.828-4.136-6.591-3.005-6.894 1.697-.566 4.537 1.666 5.424 2.55 3.886 3.877.975 7.173-2.419 4.344Z"
    />
    <circle cx="1" cy="1" r="1" fill="#CD003A" transform="matrix(-1 0 0 1 41.5 68.75)" />
    <circle cx="3" cy="3" r="3" stroke="#CD003A" stroke-width=".75" transform="matrix(-1 0 0 1 43.5 66.75)" />
    <circle cx="1" cy="1" r="1" fill="#FF5D7E" transform="matrix(-1 0 0 1 85 33.75)" />
    <circle cx="4.5" cy="4.5" r="4.5" stroke="#FF5D7E" stroke-width="1.125" transform="matrix(-1 0 0 1 88.5 30.25)" />
    <path
        stroke="#FF5D7E"
        stroke-linecap="round"
        d="M78.696 62.13a.5.5 0 0 0-.892 0l-.689 1.358a.5.5 0 0 1-.473.273l-1.521-.083a.5.5 0 0 0-.446.773l.832 1.276a.5.5 0 0 1 0 .546l-.832 1.276a.5.5 0 0 0 .446.773l1.521-.083a.5.5 0 0 1 .473.273l.69 1.359a.5.5 0 0 0 .89 0l.69-1.359a.5.5 0 0 1 .473-.273l1.521.083a.5.5 0 0 0 .446-.773l-.832-1.276a.5.5 0 0 1 0-.546l.832-1.276a.5.5 0 0 0-.446-.773l-1.521.083a.5.5 0 0 1-.473-.273l-.69-1.359Z"
    />
</svg>
