<svg xmlns="http://www.w3.org/2000/svg" width="112" height="46" fill="none" viewBox="0 0 112 46">
    <g clip-path="url(#a)">
        <path
            fill="#949494"
            d="M0 4.444v14.107h14.107v-5.637h-2.803v2.803H8.47v-5.636H5.667v5.636H2.834v-8.44h8.47v2.804h2.803V4.444H0ZM26.934 16.57c-2.62 0-4.357-1.797-4.357-4.387 0-2.895 2.132-4.357 4.296-4.388 1.584 0 2.894.549 3.808 1.89.092.09.092.182 0 .243l-1.462 1.188-.122.061a.183.183 0 0 1-.152-.121 2.316 2.316 0 0 0-1.95-1.006c-1.25 0-2.103.853-2.103 2.102 0 1.25.823 2.103 2.103 2.103 1.066 0 1.614-.549 1.889-.945l.182-.091.122.06 1.28 1.31c.091.062.091.153.03.245a4.052 4.052 0 0 1-3.564 1.736Zm13.01-8.378L35.22 20.226c-.03.092-.122.153-.244.153h-2.01c-.123 0-.184-.122-.123-.244l1.493-3.839-3.168-8.104c-.061-.122.03-.244.122-.244h2.102c.122 0 .183.06.213.152l1.89 5.363L37.627 8.1c.03-.122.122-.152.244-.152h2.01c.061 0 .122.122.061.244Zm1.188 8.165c-.122 0-.183-.091-.183-.152v-12.4c0-.123.091-.184.183-.184h1.92c.121 0 .182.092.182.183V8.74a3.047 3.047 0 0 1 2.255-.945c2.559-.03 4.235 1.768 4.235 4.388s-1.676 4.387-4.235 4.387a3.017 3.017 0 0 1-2.499-1.188l-.305.823c-.03.122-.09.182-.182.182l-1.371-.03Zm2.132-4.174c0 1.249.853 2.102 2.133 2.102 1.219 0 2.072-.853 2.072-2.102 0-1.25-.823-2.102-2.072-2.102-1.249-.03-2.133.822-2.133 2.102Zm12.096 2.224c.792 0 1.402-.244 1.737-.548l.183-.092c.06 0 .091.03.121.092l1.22 1.249c.09.091.09.182.03.274-.793.853-1.95 1.188-3.413 1.188-2.68 0-4.448-1.767-4.448-4.387 0-2.62 1.737-4.388 4.357-4.388s4.387 1.524 4.357 5.089c0 .121-.092.182-.183.182h-6.094c.275.823.975 1.341 2.133 1.341Zm1.737-2.986c-.213-.883-.853-1.462-1.95-1.462s-1.737.579-1.95 1.462h3.9Zm7.525-1.31c-.517 0-1.035.335-1.31.914v5.21c0 .122-.091.183-.182.183h-1.95c-.122 0-.183-.091-.183-.183V8.131c0-.122.091-.183.182-.183h1.341c.152 0 .244.122.244.183l.183.518a3.016 3.016 0 0 1 2.132-.854c.549 0 1.006.122 1.25.214.122.03.152.122.122.243l-.488 2.042c-.03.091-.091.122-.183.122l-.091-.03c-.213-.153-.701-.275-1.067-.275Zm2.864-1.98c0-.122.092-.183.183-.183h1.554c.122 0 .183.091.244.183l.183.792c.548-.762 1.37-1.189 2.528-1.189 1.89 0 3.2 1.432 3.2 3.778v4.662c0 .122-.092.183-.183.183h-1.95c-.122 0-.183-.091-.183-.183V11.97c0-1.25-.67-1.95-1.584-1.95-.853.03-1.646.7-1.676 2.224v3.93c0 .091-.092.152-.183.152h-1.95c-.122 0-.183-.06-.183-.152V8.131Zm13.863 6.276c.792 0 1.402-.244 1.737-.548l.183-.092c.06 0 .091.03.122.092l1.218 1.249c.092.091.092.182.03.274-.791.853-1.95 1.188-3.412 1.188-2.68 0-4.448-1.767-4.448-4.387 0-2.62 1.737-4.388 4.357-4.388s4.387 1.524 4.357 5.089c0 .121-.091.182-.183.182h-6.094c.275.823 1.006 1.341 2.133 1.341Zm1.737-2.986c-.213-.883-.853-1.462-1.95-1.462s-1.737.579-1.95 1.462h3.9Zm7.891-3.32c.03-.123.091-.153.183-.153h1.645c.122 0 .183.06.213.152l1.371 5.302L95.395 8.1c.03-.091.091-.152.183-.152h2.224c.122 0 .152.091.122.183L95.7 16.235c-.03.091-.122.122-.214.122h-2.071c-.122 0-.183-.061-.214-.122l-1.218-4.966-1.25 4.966c-.03.091-.121.122-.213.122h-2.01c-.092 0-.184-.061-.184-.122l-2.285-8.104c-.03-.092.03-.183.122-.183h2.224c.092 0 .153.06.183.152l1.067 4.997 1.34-4.997Zm7.617 7.28.792-1.553c.03-.06.092-.091.122-.091l.122.03c.396.213 1.066.579 1.95.64l.305.03c.67 0 1.188-.213 1.188-.518 0-.426-.792-.64-1.889-.975-1.645-.457-2.529-1.218-2.56-2.498-.09-1.767 1.554-2.712 3.504-2.712a5.182 5.182 0 0 1 2.895.945c.091.061.122.152.061.244l-.792 1.462c-.031.092-.092.122-.153.122l-.122-.03c-.243-.122-.761-.427-1.614-.549l-.396-.03c-.64 0-1.067.244-1.067.548 0 .396.549.579 1.463.792 1.889.427 2.925 1.036 2.955 2.56.061 1.706-1.31 2.772-3.351 2.742-1.676 0-3.017-.67-3.352-.914-.122-.061-.122-.183-.06-.244Zm11.029-5.91h-.304v.853h-.579V7.948h.944c.275 0 .488.06.671.183a.651.651 0 0 1 .243.518c0 .152-.03.304-.091.396-.061.121-.183.182-.305.274l.488.944v.061h-.609l-.458-.853Zm-.304-.426h.365c.122 0 .183-.03.244-.092.061-.06.092-.122.092-.244 0-.121-.031-.182-.092-.243s-.122-.092-.244-.092h-.365v.67Z"
        />
        <path
            fill="#949494"
            d="M109.562 7.338c1.006 0 1.829.823 1.829 1.828a1.834 1.834 0 0 1-1.829 1.829 1.834 1.834 0 0 1-1.828-1.829c0-1.005.823-1.828 1.828-1.828Zm0-.609a2.445 2.445 0 0 0-2.437 2.437 2.445 2.445 0 0 0 2.437 2.438A2.445 2.445 0 0 0 112 9.166a2.445 2.445 0 0 0-2.438-2.437Z"
        />
    </g>
    <path
        fill="#FBBA0F"
        d="M44.86 31.788a.576.576 0 0 1 .997 0l1.849 3.296a.567.567 0 0 0 .393.278l3.796.69a.549.549 0 0 1 .308.923l-2.653 2.728a.543.543 0 0 0-.15.45l.497 3.723c.057.433-.401.757-.807.57l-3.488-1.61a.583.583 0 0 0-.487 0l-3.488 1.61c-.406.187-.864-.137-.807-.57l.497-3.723a.543.543 0 0 0-.15-.45l-2.653-2.728a.548.548 0 0 1 .308-.922l3.795-.691a.567.567 0 0 0 .394-.278l1.849-3.296Z"
    />
    <path
        fill="#949494"
        d="M71.102 32.77a3.64 3.64 0 0 1 1.253.239 3.05 3.05 0 0 1 1.143.775c.345.358.621.847.83 1.467.21.62.313 1.397.313 2.332 0 .904-.086 1.708-.258 2.41-.169.7-.414 1.29-.736 1.77a3.267 3.267 0 0 1-1.163 1.095 3.156 3.156 0 0 1-1.541.372c-.57 0-1.08-.112-1.527-.338a2.996 2.996 0 0 1-1.093-.95 3.308 3.308 0 0 1-.542-1.416h1.213c.11.467.326.853.651 1.158.328.302.76.453 1.298.453.785 0 1.405-.343 1.859-1.03.457-.686.686-1.655.686-2.908h-.08a3.122 3.122 0 0 1-.66.721 2.913 2.913 0 0 1-1.845.631 3.094 3.094 0 0 1-1.606-.432 3.282 3.282 0 0 1-1.163-1.198c-.289-.51-.433-1.094-.433-1.75 0-.623.14-1.194.418-1.71.281-.52.676-.935 1.183-1.243.51-.309 1.11-.458 1.8-.448Zm0 1.094c-.418 0-.794.104-1.129.313a2.254 2.254 0 0 0-.79.835 2.356 2.356 0 0 0-.289 1.159c0 .424.093.81.279 1.158.189.345.445.62.77.825a2.09 2.09 0 0 0 1.119.304 2.125 2.125 0 0 0 1.59-.696c.206-.22.367-.466.483-.741a2.278 2.278 0 0 0-.114-1.989 2.29 2.29 0 0 0-.786-.845 2.034 2.034 0 0 0-1.133-.323Zm-6.126 9.306a.861.861 0 0 1-.632-.263.861.861 0 0 1-.263-.631c0-.245.088-.456.263-.632a.862.862 0 0 1 .632-.263c.245 0 .456.088.631.263a.861.861 0 0 1 .264.632.928.928 0 0 1-.447.776.853.853 0 0 1-.448.119Zm-9.618-2.167V39.99l4.475-7.08h.736v1.571h-.498l-3.38 5.35v.08h6.025v1.093h-7.358Zm4.793 2.088V32.91h1.173v10.182h-1.173Z"
    />
    <defs>
        <clipPath id="a">
            <path fill="#fff" d="M0 3.621h112v16.757H0z" />
        </clipPath>
    </defs>
</svg>
