<svg xmlns="http://www.w3.org/2000/svg" width="61" height="46" fill="none" viewBox="0 0 61 46">
    <g clip-path="url(#a)">
        <path
            fill="#949494"
            d="M12.682 18.984c.089 0 .145.032.17.13a.753.753 0 0 1 .04.234l.024.59c0 .194-.007.388-.023.582 0 .08-.025.161-.05.234-.024.081-.088.113-.17.113-.072 0-.136-.04-.152-.113-.025-.105-.05-.21-.05-.315v-1.035c0-.096.025-.194.05-.29.024-.097.08-.13.16-.13ZM7.59 20.342h-.21l.097-.767h.015l.098.767ZM2.4 19.05c.154-.033.251.015.284.16.04.162.04.332 0 .493-.04.13-.13.178-.276.146H2.4v-.8ZM4.81 5.364c.242-.008.476 0 .678.154.138.097.186.25.21.412 0 .057.008.113.008.17v2.974c0 .097-.008.195-.032.291a.496.496 0 0 1-.339.373 1.363 1.363 0 0 1-.518.064l-.007.008V5.364Z"
        />
        <path
            fill="#949494"
            fill-rule="evenodd"
            d="M17.266 2.034v20.474H0V2.026h17.225c.008 0 .024 0 .04.008ZM8.81 18.684a.485.485 0 0 0-.42.348 1.54 1.54 0 0 0-.081.331 5.004 5.004 0 0 0-.025 1.044c.016.161.04.323.113.477a.513.513 0 0 0 .316.291c.113.032.226.04.339.032a.303.303 0 0 0 .234-.13c.016-.024.041-.048.073-.089.049.154.137.211.275.163.024-.122.024-1.188-.008-1.278h-.63v.356c.08 0 .153.008.226.016.016.17.008.332-.033.493 0 .016-.008.024-.016.04-.04.081-.113.106-.202.106-.089 0-.137-.04-.154-.138a1.476 1.476 0 0 1-.04-.323v-.946c0-.113.024-.226.04-.34.025-.096.074-.137.162-.137.081 0 .13.033.154.138.024.105.024.218.032.331v.13c.153 0 .299-.017.444-.017l-.007-.016c.016-.202.015-.388-.05-.566-.056-.17-.17-.283-.347-.307a1.63 1.63 0 0 0-.395-.008Zm-4.874-.024a.506.506 0 0 0-.486.34c-.048.113-.072.242-.097.363-.048.332-.04.672-.016 1.003.008.154.048.316.089.47a.477.477 0 0 0 .413.347c.105.016.218.024.33.015.26-.024.405-.153.47-.403a1.8 1.8 0 0 0 .04-.202 1.973 1.973 0 0 0 0-.436h-.428v.387c0 .073-.025.154-.041.227-.024.072-.08.104-.153.104-.081 0-.138-.032-.17-.113a.475.475 0 0 1-.033-.146 8.464 8.464 0 0 1 0-1.357c0-.056.025-.121.041-.178.033-.072.073-.097.145-.097.073 0 .113.04.138.097.016.04.024.089.032.13v.404l-.008.007h.388c.048 0 .073-.016.073-.064.008-.194.016-.38-.049-.566a.439.439 0 0 0-.339-.307 1.207 1.207 0 0 0-.34-.025Zm8.963.017a1.135 1.135 0 0 0-.404 0 .49.49 0 0 0-.372.291c-.032.08-.072.161-.08.25-.032.234-.057.477-.081.712 0 .153 0 .307.024.452.017.145.049.291.09.437.072.226.233.347.468.38h.145c.364 0 .55-.146.647-.494 0-.032.016-.056.024-.088.073-.429.072-.857.016-1.286a1.387 1.387 0 0 0-.104-.355.475.475 0 0 0-.373-.299Zm-1.47.008c-.146-.04-.3-.04-.453-.016a.504.504 0 0 0-.396.331c-.024.065-.05.13-.065.195-.09.436-.09.88-.033 1.325.017.13.057.25.106.372.064.153.186.25.355.274.097.016.194.025.291.025.3 0 .486-.146.542-.437.033-.161.032-.331.04-.5 0-.041-.008-.074-.016-.122h-.42v.331c0 .097-.016.186-.04.283a.157.157 0 0 1-.162.121c-.09 0-.146-.032-.17-.12a.75.75 0 0 1-.04-.235V19.38c0-.097.024-.194.049-.29.024-.09.088-.122.177-.106.08.008.113.065.121.13.017.129.025.258.025.387v.121h.452c.032-.242.032-.468-.064-.686a.448.448 0 0 0-.3-.251Zm-4.657 2.473h.454c.024-.145.055-.29.08-.436h.34c.032.153.056.29.088.444h.251c.081 0 .162.008.25-.008l-.508-2.457h-.486v-.008c-.153.824-.315 1.641-.469 2.465Zm-4.857-2.441v2.45h.477v-.93l-.008-.016h.25a.523.523 0 0 0 .525-.421 1.39 1.39 0 0 0 .017-.605c-.065-.3-.243-.462-.55-.478-.218-.016-.436 0-.647-.008-.016 0-.032 0-.064.008Zm4.122-.016c-.089.526-.186 1.043-.275 1.569a13.081 13.081 0 0 1-.146-.777c-.04-.258-.088-.525-.129-.792-.21 0-.412-.016-.606 0-.024.22-.016 2.363.009 2.44h.412v-1.405h.015c.081.468.162.937.235 1.406h.412l.219-1.317.007.008c.017.437.017.873.017 1.318h.428V18.7c-.202 0-.396-.016-.598 0Zm3.807 1.908c-.025.08-.033.42 0 .542h.502v-.542h-.502Zm4.34-1.908c-.169-.024-.516-.016-.597.008-.024.162-.016 2.346.008 2.433h.412V19.76h.016c.081.46.154.921.235 1.382h.405c.08-.482.16-.965.241-1.439v1.448h.428v-2.442c-.202-.008-.404-.016-.598 0-.105.517-.17 1.026-.283 1.528-.056-.259-.096-.51-.137-.768-.048-.259-.073-.517-.13-.768Zm-1.519-15.39a6.93 6.93 0 0 0-1.527.089c-.388.072-.76.178-1.108.364-.477.259-.817.63-1.003 1.14-.113.307-.153.63-.153.954v8.697c0 .186.009.363.041.54.105.753.5 1.31 1.18 1.658.509.267 1.059.364 1.625.412a7.33 7.33 0 0 0 1.333-.015 3.72 3.72 0 0 0 1.026-.26 1.991 1.991 0 0 0 1.124-1.148c.121-.323.178-.654.186-.994v-3.41c0-.025 0-.049-.008-.08h-2.74v3.426c0 .08 0 .17-.025.25-.032.154-.13.251-.29.267-.082.008-.17.008-.25 0-.146-.016-.236-.104-.276-.242a1.008 1.008 0 0 1-.032-.267v-8.9c0-.056 0-.112.008-.169a.37.37 0 0 1 .315-.332c.08-.016.178.001.259.009.137.024.218.12.258.25.017.073.025.154.025.227V8.88h2.748V5.85c0-.242-.024-.477-.072-.711-.154-.728-.567-1.245-1.245-1.536-.445-.194-.922-.267-1.399-.291ZM1.924 3.36c-.024.161-.016 13.65 0 13.749h2.878v-5.124c0-.049 0-.106.008-.162h.856c.38 0 .752-.049 1.115-.154.752-.226 1.23-.72 1.415-1.48.073-.29.105-.581.105-.88V5.88a3.46 3.46 0 0 0-.09-.815c-.177-.8-.661-1.326-1.453-1.56-.388-.114-.785-.146-1.189-.154H1.907l.017.008Z"
            clip-rule="evenodd"
        />
        <path
            fill="#949494"
            d="m17.686 22.492-.008-.008h.008v.008Zm14.856-7.332c.396-.638.978-.937 1.722-.856.735.073 1.317.59 1.511 1.302.049.185.08.371.073.565l.008-.008c-.009.534-.17 1.019-.558 1.407a1.723 1.723 0 0 1-2.595-.146 1.968 1.968 0 0 1-.42-1.1c-.032-.412.04-.808.259-1.164Zm7.436-8.365c.768.081 1.431.695 1.544 1.552.017.105.017.202.033.307h-.01c-.007.436-.12.84-.379 1.196a1.728 1.728 0 0 1-2.805.024c-.525-.703-.533-1.73 0-2.408.413-.525.955-.744 1.617-.67Zm5.513.025c.121 0 .25.031.364.072a.608.608 0 0 1 .428.46c.049.195.049.389 0 .59-.08.3-.283.47-.582.534-.04.008-.073.016-.113.016h-.994l-.008.008V6.835a.332.332 0 0 1 .08-.015h.825Zm-18.834 0c.25 0 .494.063.72.169.42.194.687.517.824.954a2.49 2.49 0 0 1-.008 1.48c-.202.63-.655.985-1.301 1.074-.308.04-.623.024-.938.033h-.25l-.009.007v-3.71s.057-.007.081-.007h.881Z"
        />
        <path
            fill="#949494"
            fill-rule="evenodd"
            d="M54.317 2.002c.21 0 .154-.032.26.154 1.794 3.321 3.58 6.643 5.374 9.965.016.025.033.05.041.081 0 .025.008.057 0 .081-.016.049-.049.098-.073.146-1.794 3.322-3.597 6.733-5.383 10.055h-36.85V2.01s.064 0 .088-.008h36.543ZM44.36 13.827a2.975 2.975 0 0 0-2.198-.412c-.946.17-1.625.695-2.021 1.568a2.847 2.847 0 0 0-.178 1.827c.194.889.696 1.551 1.528 1.94.542.25 1.107.307 1.697.218a2.97 2.97 0 0 0 1.56-.727c.04-.04.082-.08.122-.13-.178-.242-.348-.477-.517-.704h-.01c-.185.13-.347.267-.525.372-.395.235-.816.34-1.276.292a1.677 1.677 0 0 1-1.342-.873 2.032 2.032 0 0 1-.226-1.488c.202-.978 1.01-1.527 2.005-1.414.444.049.832.235 1.18.501.023.016.048.032.08.057.162-.25.324-.493.486-.752-.13-.097-.243-.194-.365-.275Zm-20.046-.048a3.035 3.035 0 0 0-2.133-.373c-.962.178-1.657.72-2.053 1.618a2.841 2.841 0 0 0-.162 1.754c.194.92.711 1.6 1.584 1.988.533.234 1.091.283 1.665.194a2.95 2.95 0 0 0 1.576-.76.426.426 0 0 0 .081-.088l-.525-.72c-.049.04-.09.073-.121.105-.485.404-1.036.639-1.682.566-.566-.065-.994-.332-1.293-.809a2.013 2.013 0 0 1-.274-1.487c.161-.946.929-1.583 2.004-1.479.436.04.825.226 1.18.485.032.024.056.049.097.073.162-.25.324-.494.477-.744a1.772 1.772 0 0 0-.42-.323Zm9.765-.42h-.259c-.097 0-.194.024-.29.04-.882.17-1.544.638-1.965 1.43a2.716 2.716 0 0 0-.275 1.779c.137.824.542 1.487 1.253 1.94a2.776 2.776 0 0 0 1.988.403c.873-.137 1.544-.597 1.989-1.365a2.74 2.74 0 0 0 .356-1.124c.073-.703-.065-1.357-.477-1.94-.566-.8-1.358-1.164-2.32-1.18v.017Zm3.815 5.545.008.007h.962c.002-.001.016-.016.016-.024v-5.35c0-.017 0-.041-.008-.057v-.008h-.978v5.432Zm-11.114-5.44a8.133 8.133 0 0 0-.994 0c-.024.144-.016 5.337.008 5.43.138.025.897.017.986-.007V16.64a.16.16 0 0 1 .048-.016h2.417v2.247h.008c.145.025.898.016.979-.008v-5.408h-.979v2.287H26.78v-2.279Zm18.979 5.44h3.379c.032-.122.024-.769 0-.866h-2.36v-1.447h1.81v-.856h-1.81c-.025-.218-.017-1.322.015-1.414h2.24v-.858h-3.266l-.008-.008v5.449Zm-4.35-12.538c-.646-.452-1.374-.598-2.15-.46-.93.161-1.625.663-2.045 1.503-.275.542-.34 1.124-.242 1.722a2.7 2.7 0 0 0 .824 1.592c.638.606 1.406.848 2.28.76a2.71 2.71 0 0 0 1.486-.615c.696-.582 1.011-1.333 1.02-2.222l-.009-.008v-.202c0-.049-.008-.097-.016-.146-.105-.808-.477-1.463-1.148-1.924Zm10.234-.048c-.68-.461-1.407-.59-2.19-.347a1.549 1.549 0 0 0-.987.84c-.25.525-.21 1.245.387 1.706.097.073.186.137.291.202.162.089.332.17.502.25.25.113.501.218.744.348.12.056.226.137.323.226a.488.488 0 0 1 .178.38.599.599 0 0 1-.413.59 1.2 1.2 0 0 1-.655.041 2.16 2.16 0 0 1-.977-.469c-.033-.024-.057-.049-.098-.08-.178.25-.355.492-.549.759l.008-.008c.431.409.985.664 1.576.727.38.04.752.016 1.115-.121.857-.332 1.132-1.165.962-1.835-.08-.315-.267-.558-.517-.76a3.36 3.36 0 0 0-.728-.403c-.258-.114-.517-.22-.767-.34a1.346 1.346 0 0 1-.34-.235c-.202-.186-.218-.477-.056-.703a.773.773 0 0 1 .347-.25c.202-.074.413-.073.623-.033.307.057.581.186.832.372l.105.081c.146-.275.291-.542.437-.825a.397.397 0 0 0-.057-.032c-.032-.025-.064-.057-.096-.081Zm-31.355-.356c-.024.121-.024 5.352 0 5.44.146.025 3.29.017 3.371 0 .024-.185.016-.758-.016-.848H21.29l.008-.017c-.032-.145-.024-1.35 0-1.447h1.665c.048 0 .097 0 .145-.008v-.856H21.3c-.024-.13-.024-1.307 0-1.406h2.24v-.858h-3.25Zm11.793-.008c-.024.138-.024.777.009.866h1.77v4.574c.177.024.905.016 1.002-.008V6.82h1.77c.032-.13.024-.777 0-.866h-4.55Zm-1.705 0c-.024.138-.024 5.368 0 5.449h.977c.025-.138.017-5.36 0-5.449h-.977Zm13.216-.007c-.024.174-.017 5.352.008 5.447h.978v-2.02h.938l.056.105c.323.614.654 1.22.978 1.835.032.056.065.089.138.089h.937a.372.372 0 0 0 .089-.01c-.437-.775-.84-1.551-1.285-2.31.016 0 .032-.017.048-.025.34-.162.574-.428.72-.768.137-.331.17-.679.113-1.026-.097-.63-.542-1.124-1.165-1.253-.21-.04-.42-.056-.63-.064h-1.923Zm-18.89 0v5.447h1.947c.283 0 .559-.04.833-.113.85-.234 1.439-.76 1.706-1.609a3.336 3.336 0 0 0 0-2.045c-.227-.703-.695-1.196-1.382-1.47a3.032 3.032 0 0 0-1.132-.22h-1.875a.4.4 0 0 0-.098.01Zm27.821 1.6h.711c.186-.558.38-1.116.567-1.682h-.914a612.58 612.58 0 0 0-.364 1.682Z"
            clip-rule="evenodd"
        />
        <path
            fill="#FBBA0F"
            d="M19.534 31.788a.576.576 0 0 1 .997 0l1.848 3.296a.567.567 0 0 0 .394.278l3.796.69a.549.549 0 0 1 .308.923l-2.653 2.728a.543.543 0 0 0-.15.45l.496 3.723c.058.433-.4.757-.806.57l-3.488-1.61a.582.582 0 0 0-.487 0l-3.488 1.61c-.406.187-.865-.137-.807-.57l.497-3.723a.542.542 0 0 0-.15-.45l-2.653-2.728a.548.548 0 0 1 .308-.922l3.795-.691a.567.567 0 0 0 .394-.278l1.849-3.296Z"
        />
        <path
            fill="#949494"
            d="M45.607 43.16a3.496 3.496 0 0 1-1.576-.347 2.927 2.927 0 0 1-1.123-.955 2.6 2.6 0 0 1-.463-1.382h1.194c.046.46.255.842.626 1.143.374.299.822.448 1.342.448.418 0 .79-.098 1.114-.294a2.07 2.07 0 0 0 .77-.805 2.39 2.39 0 0 0 .284-1.168c0-.444-.098-.84-.294-1.188a2.153 2.153 0 0 0-.795-.83 2.248 2.248 0 0 0-1.158-.309 3.18 3.18 0 0 0-.96.144 2.65 2.65 0 0 0-.81.373l-1.154-.14.617-5.01h5.29v1.093h-4.256l-.358 3.003h.06c.209-.166.47-.303.785-.413a2.98 2.98 0 0 1 .985-.164c.623 0 1.178.15 1.665.448.49.295.875.7 1.153 1.213.282.514.423 1.1.423 1.76 0 .65-.146 1.23-.438 1.74a3.198 3.198 0 0 1-1.193 1.203c-.507.292-1.083.438-1.73.438Zm-5.957-.06a.861.861 0 0 1-.632-.263.861.861 0 0 1-.263-.631c0-.245.088-.456.263-.631a.861.861 0 0 1 .632-.264c.245 0 .456.088.631.264a.862.862 0 0 1 .264.631.93.93 0 0 1-.447.776.853.853 0 0 1-.448.119Zm-9.618-2.167V39.92l4.475-7.08h.736v1.572h-.498l-3.38 5.349v.08h6.025v1.093h-7.358Zm4.793 2.088V32.84h1.173v10.18h-1.173Z"
        />
    </g>
    <defs>
        <clipPath id="a">
            <path fill="#fff" d="M0 0h61v46H0z" />
        </clipPath>
    </defs>
</svg>
