<svg xmlns="http://www.w3.org/2000/svg" width="74" height="46" fill="none" viewBox="0 0 74 46">
    <g clip-path="url(#a)">
        <g clip-path="url(#b)">
            <path
                fill="#949494"
                d="M72.952 9.36V6.712h-1.068s0 .791-1.325 1.859c-1.028.83-2.906.79-2.906.79v1.582h1.068l-.02 6.346h4.25v-6.346h1.068V9.361h-1.067Zm-10.577 0c-2.768 0-4.765 1.582-4.765 3.975 0 2.649 1.977 3.973 4.765 3.973 2.768 0 4.765-1.324 4.765-3.973-.02-2.393-1.997-3.974-4.765-3.974Zm.514 6.347s0 .257-.534.257-.534-.257-.534-.257v-4.765s0-.257.534-.257.534.257.534.257v4.765ZM51.778 9.36s-5.812-.79-5.812 3.975c0 4.112 4.764 3.973 4.764 3.973h5.813V6.731h-4.765v2.63Zm0 6.347h-.533c-.258 0-1.068-.79-1.068-2.65 0-2.115.534-2.115.534-2.115h1.067v4.765ZM7.334 9.104c0-.257.534-.257.534-.257h1.068V7.779S7.354 6.711 6.029 6.711c-3.973 0-3.973 1.8-3.973 2.65 0 .79.454 1.423.968 2.53.653 1.404 1.345 2.412.89 3.025-.257.257-.79.257-.79.257H2.055v1.582s.395.178.79.257c1.325.257 2.373.257 2.907.257 1.581 0 3.697-.534 3.697-2.65 0-1.324-2.056-4.33-2.116-5.298v-.217Zm7.948-2.393h-4.764v10.577h4.764V6.711Zm9.787 3.441c-.95-.574-2.373-.791-3.183-.791-2.373 0-3.678.474-4.152.731-.1.06-.158.336-.158.593 0 .257.079.534.079.534s.79-.257 3.183-.257c0 0 .257 0 .257.534s-.257.534-.257.534h-.791c-.79 0-1.819.079-2.333.336-.85.454-1.384.988-1.384 2.293 0 1.858 1.582 2.65 1.582 2.65h8.461v-5.813c.02-.02.02-.554-1.305-1.345Zm-3.974 6.089h-.534c-.257 0-.534-.534-.534-1.582 0-1.582.534-1.582.534-1.582h.534v3.164Zm11.11-5.101c0-.197.396-.197.396-.197h.652V9.875s-1.463-.534-2.65-.534c-2.984 0-3.182 1.226-3.182 1.859 0 .593.415 1.285.79 2.115.495 1.048 1.147 1.918.792 2.372-.258.257-.732.257-.732.257h-.85v1.068s.79.257 2.115.257h.85c.989 0 3.381-.395 3.381-1.977 0-.989-1.542-3.242-1.582-3.974v-.178h.02Zm10.044-2.036c-1.582 0-2.65.533-2.65.533V6.731h-4.764v10.577H39.6v-6.346s0-.257.533-.257c.534 0 .534.257.534.257v6.346h4.231v-6.623s0-1.581-2.65-1.581Z"
            />
        </g>
        <path
            fill="#FBBA0F"
            d="M25.99 31.788a.576.576 0 0 1 .997 0l1.848 3.296a.567.567 0 0 0 .394.278l3.796.69a.549.549 0 0 1 .308.923l-2.653 2.728a.542.542 0 0 0-.15.45l.496 3.723c.058.433-.4.757-.806.57l-3.488-1.61a.582.582 0 0 0-.487 0l-3.488 1.61c-.406.187-.865-.137-.807-.57l.497-3.723a.543.543 0 0 0-.15-.45l-2.653-2.728a.548.548 0 0 1 .308-.922l3.795-.691a.567.567 0 0 0 .394-.278l1.849-3.296Z"
        />
        <path
            fill="#949494"
            d="M52.111 43.23a3.811 3.811 0 0 1-1.253-.239 3.001 3.001 0 0 1-1.143-.77c-.345-.365-.622-.857-.83-1.477-.21-.623-.314-1.405-.314-2.346 0-.902.085-1.7.254-2.397.169-.699.414-1.287.736-1.765a3.31 3.31 0 0 1 1.163-1.093 3.186 3.186 0 0 1 1.546-.373c.57 0 1.077.114 1.521.343.448.225.813.54 1.094.944.282.405.464.87.547 1.397H54.22a2.25 2.25 0 0 0-.656-1.138c-.325-.302-.756-.453-1.293-.453-.789 0-1.41.344-1.864 1.03-.451.686-.678 1.649-.681 2.888h.08a2.994 2.994 0 0 1 1.516-1.188c.311-.11.64-.164.989-.164.583 0 1.117.146 1.6.437a3.23 3.23 0 0 1 1.164 1.199c.292.507.438 1.088.438 1.745a3.59 3.59 0 0 1-.423 1.73 3.23 3.23 0 0 1-1.188 1.243c-.507.304-1.104.454-1.79.447Zm0-1.094c.418 0 .792-.104 1.124-.313.334-.209.598-.489.79-.84a2.37 2.37 0 0 0 .293-1.173c0-.421-.094-.804-.283-1.149a2.16 2.16 0 0 0-.77-.83 2.039 2.039 0 0 0-1.114-.308c-.315 0-.608.063-.88.188-.272.123-.51.292-.716.508a2.45 2.45 0 0 0-.477.74 2.356 2.356 0 0 0 .11 2.004c.191.351.453.635.785.85.334.215.714.323 1.138.323Zm-6.005 1.034a.861.861 0 0 1-.632-.263.862.862 0 0 1-.263-.631c0-.246.088-.456.263-.632a.861.861 0 0 1 .632-.263c.245 0 .456.087.631.263a.861.861 0 0 1 .264.632.928.928 0 0 1-.447.776.853.853 0 0 1-.448.118Zm-9.618-2.167v-1.014l4.475-7.08h.736v1.571H41.2l-3.38 5.35v.079h6.025v1.094h-7.358Zm4.793 2.088V32.909h1.173v10.182h-1.173Z"
        />
    </g>
    <defs>
        <clipPath id="a">
            <path fill="#fff" d="M0 0h74v46H0z" />
        </clipPath>
        <clipPath id="b">
            <path fill="#fff" d="M0 6.711h74v10.577H0z" />
        </clipPath>
    </defs>
</svg>
