<svg width="16" height="16" viewBox="0 0 16 16" fill="none" xmlns="http://www.w3.org/2000/svg">
<path d="M2.875 11.3383V14.9783H5.43V11.4962C5.43 11.1573 5.5646 10.8324 5.80417 10.5928C6.04375 10.3532 6.36869 10.2187 6.7075 10.2187H9.32726C9.93252 10.2187 10.5319 10.0994 11.091 9.8678C11.6502 9.63616 12.1583 9.29665 12.5863 8.86864C13.0143 8.44064 13.3537 7.93254 13.5853 7.37333C13.8169 6.81413 13.9361 6.21477 13.9361 5.60951C13.9361 5.00421 13.817 4.40482 13.5854 3.84558C13.3539 3.28633 13.0144 2.77819 12.5864 2.35015C12.1584 1.92211 11.6503 1.58256 11.0911 1.35091C10.5319 1.11925 9.93255 1 9.32726 1H2.875V5.55H5.43V3.40451H9.15436C9.73269 3.40451 10.2873 3.63422 10.6963 4.04314C11.1053 4.45205 11.3351 5.00666 11.3352 5.585C11.3352 6.1634 11.1054 6.71811 10.6965 7.1271C10.2875 7.53609 9.73275 7.76585 9.15436 7.76585H6.4464C5.97726 7.76567 5.51269 7.85796 5.07923 8.03744C4.64578 8.21692 4.25194 8.48007 3.92026 8.81185C3.58857 9.14364 3.32554 9.53755 3.14618 9.97106C2.96683 10.4046 2.87468 10.8692 2.875 11.3383Z" fill="url(#paint0_radial_22658_223100)"/>
<path d="M6.7068 10.2183C6.20359 10.2182 5.7053 10.3173 5.24038 10.5098C4.77546 10.7024 4.35304 10.9846 3.99721 11.3405C3.64139 11.6963 3.35914 12.1187 3.16659 12.5836C2.97404 13.0485 2.87495 13.5468 2.875 14.0501V14.9779H5.43V11.4958C5.43 11.1571 5.5645 10.8322 5.80393 10.5927C6.04335 10.3531 6.36811 10.2184 6.7068 10.2183V10.2183Z" fill="url(#paint1_linear_22658_223100)"/>
<defs>
<radialGradient id="paint0_radial_22658_223100" cx="0" cy="0" r="1" gradientUnits="userSpaceOnUse" gradientTransform="translate(13.9753 -0.940752) scale(14.069 14.069)">
<stop stop-color="#FF9CBD"/>
<stop offset="1" stop-color="#FF4785"/>
</radialGradient>
<linearGradient id="paint1_linear_22658_223100" x1="4.7909" y1="14.2895" x2="4.7909" y2="8.94076" gradientUnits="userSpaceOnUse">
<stop stop-color="#FF4785"/>
<stop offset="1" stop-color="#991441"/>
</linearGradient>
</defs>
</svg>
