<svg width="24" height="24" viewBox="0 0 24 24" fill="none" xmlns="http://www.w3.org/2000/svg">
    <path
        fill-rule="evenodd"
        clip-rule="evenodd"
        d="M11.625 0.113281C16.3831 0.113281 20.25 3.84302 20.25 8.43239C20.25 13.0843 15.4555 19.2776 13.0159 22.128C12.2752 22.9934 10.9748 22.9934 10.2341 22.128C7.79446 19.2776 3 13.0843 3 8.43239C3 3.84302 6.86688 0.113281 11.625 0.113281ZM11.6249 5.35156C9.80041 5.35156 8.30762 6.82474 8.30762 8.62529C8.30762 10.4258 9.80041 11.899 11.6249 11.899C13.466 11.899 14.9422 10.4258 14.9422 8.62529C14.9422 6.82474 13.4494 5.35156 11.6249 5.35156Z"
        fill="url(#paint0_radial_2497_2679)"
    />
    <defs>
        <radialGradient
            id="paint0_radial_2497_2679"
            cx="0"
            cy="0"
            r="1"
            gradientUnits="userSpaceOnUse"
            gradientTransform="translate(11.6757 5.21208) rotate(-71.4423) scale(21.5901 26.2156)"
        >
            <stop stop-color="#25ECC6" />
            <stop offset="0.994857" stop-color="#6D4AFF" />
        </radialGradient>
    </defs>
</svg>
