<svg width="24" height="24" viewBox="0 0 24 24" fill="none" xmlns="http://www.w3.org/2000/svg">
    <rect x="1" y="3" width="22" height="8" rx="2" fill="url(#paint0_radial_2497_2698)" />
    <path
        d="M1 15C1 13.8954 1.89543 13 3 13H21C22.1046 13 23 13.8954 23 15V19C23 20.1046 22.1046 21 21 21H3C1.89543 21 1 20.1046 1 19V15Z"
        fill="url(#paint1_radial_2497_2698)"
    />
    <circle opacity="0.6" cx="16" cy="7" r="1" fill="white" />
    <circle opacity="0.6" cx="19" cy="7" r="1" fill="white" />
    <circle opacity="0.6" cx="16" cy="17" r="1" fill="white" />
    <circle opacity="0.6" cx="19" cy="17" r="1" fill="white" />
    <rect x="3" y="11" width="18" height="2" fill="url(#paint2_linear_2497_2698)" />
    <defs>
        <radialGradient
            id="paint0_radial_2497_2698"
            cx="0"
            cy="0"
            r="1"
            gradientUnits="userSpaceOnUse"
            gradientTransform="translate(12.0647 4.73055) rotate(-38.4039) scale(11.1827 21.9087)"
        >
            <stop stop-color="#25ECC6" />
            <stop offset="0.994857" stop-color="#6D4AFF" />
        </radialGradient>
        <radialGradient
            id="paint1_radial_2497_2698"
            cx="0"
            cy="0"
            r="1"
            gradientUnits="userSpaceOnUse"
            gradientTransform="translate(12.0647 14.7305) rotate(-38.4039) scale(11.1827 21.9087)"
        >
            <stop stop-color="#4D91E6" />
            <stop offset="1" stop-color="#6D4AFF" />
        </radialGradient>
        <linearGradient
            id="paint2_linear_2497_2698"
            x1="9.52936"
            y1="13.1471"
            x2="8.19155"
            y2="6.35627"
            gradientUnits="userSpaceOnUse"
        >
            <stop stop-color="#5836E6" />
            <stop offset="0.9944" stop-color="#00F0C3" />
        </linearGradient>
    </defs>
</svg>
