<svg width="24" height="24" viewBox="0 0 24 24" fill="none" xmlns="http://www.w3.org/2000/svg">
    <path
        d="M20.8692 3.73083L12.9917 1.16161C12.3285 0.946129 11.6168 0.946129 10.9536 1.16161L3.07615 3.73083C2.67177 3.86344 2.38061 4.24468 2.36443 4.69222C2.2512 7.79186 2.44531 19.8092 11.8109 22.9751C11.9241 23.0083 12.0374 23.0083 12.1344 22.9751C21.5 19.8092 21.6941 7.79186 21.5809 4.69222C21.5647 4.24468 21.2735 3.86344 20.8692 3.73083Z"
        fill="url(#paint0_radial_2497_2689)"
    />
    <path
        opacity="0.3"
        d="M18.3273 5.68825L12.7006 3.86838C12.2268 3.71575 11.7185 3.71575 11.2448 3.86838L5.61801 5.68825C5.32916 5.78218 5.12119 6.05222 5.10964 6.36923C5.02876 8.56481 5.16741 17.0771 11.8571 19.3196C11.938 19.3431 12.0189 19.3431 12.0882 19.3196C18.7779 17.0771 18.9166 8.56481 18.8357 6.36923C18.8241 6.05222 18.6161 5.78218 18.3273 5.68825Z"
        fill="white"
    />
    <defs>
        <radialGradient
            id="paint0_radial_2497_2689"
            cx="0"
            cy="0"
            r="1"
            gradientUnits="userSpaceOnUse"
            gradientTransform="translate(12.0293 5.759) rotate(-68.13) scale(20.585 28.6388)"
        >
            <stop stop-color="#25ECC6" />
            <stop offset="0.994857" stop-color="#6D4AFF" />
        </radialGradient>
    </defs>
</svg>
