<svg width="48" height="48" viewBox="0 0 48 48" fill="none" xmlns="http://www.w3.org/2000/svg">
    <g opacity="0.75">
        <rect x="6" y="16.1445" width="30.8571" height="20.5714" rx="1" fill="url(#paint0_linear_41259_19813)" />
        <g filter="url(#filter0_d_41259_19813)">
            <path
                d="M11.1428 12C11.1428 11.4477 11.5905 11 12.1428 11H41C41.5522 11 42 11.4477 42 12V30.5714C42 31.1237 41.5522 31.5714 41 31.5714H12.1428C11.5905 31.5714 11.1428 31.1237 11.1428 30.5714V12Z"
                fill="url(#paint1_linear_41259_19813)"
            />
        </g>
        <path
            opacity="0.5"
            d="M11.1428 12C11.1428 11.4477 11.5905 11 12.1428 11H20.1428C20.1428 15.9706 16.1134 20 11.1428 20V12Z"
            fill="url(#paint2_linear_41259_19813)"
        />
        <path
            opacity="0.5"
            d="M42 12C42 11.4477 41.5523 11 41 11H33C33 15.9706 37.0294 20 42 20V12Z"
            fill="url(#paint3_linear_41259_19813)"
        />
        <path
            opacity="0.5"
            d="M11.1428 30.5703C11.1428 31.1226 11.5905 31.5703 12.1428 31.5703H20.1428C20.1428 26.5998 16.1134 22.5703 11.1428 22.5703V30.5703Z"
            fill="url(#paint4_linear_41259_19813)"
        />
        <path
            opacity="0.5"
            d="M42 30.5703C42 31.1226 41.5523 31.5703 41 31.5703H33C33 26.5998 37.0294 22.5703 42 22.5703V30.5703Z"
            fill="url(#paint5_linear_41259_19813)"
        />
        <circle opacity="0.5" cx="26.5715" cy="21.2868" r="3.85714" fill="url(#paint6_linear_41259_19813)" />
    </g>
    <defs>
        <filter
            id="filter0_d_41259_19813"
            x="7.41868"
            y="9.13793"
            width="38.3055"
            height="28.0196"
            filterUnits="userSpaceOnUse"
            color-interpolation-filters="sRGB"
        >
            <feFlood flood-opacity="0" result="BackgroundImageFix" />
            <feColorMatrix
                in="SourceAlpha"
                type="matrix"
                values="0 0 0 0 0 0 0 0 0 0 0 0 0 0 0 0 0 0 127 0"
                result="hardAlpha"
            />
            <feOffset dy="1.86207" />
            <feGaussianBlur stdDeviation="1.86207" />
            <feComposite in2="hardAlpha" operator="out" />
            <feColorMatrix type="matrix" values="0 0 0 0 0 0 0 0 0 0 0 0 0 0 0 0 0 0 0.1 0" />
            <feBlend mode="normal" in2="BackgroundImageFix" result="effect1_dropShadow_41259_19813" />
            <feBlend mode="normal" in="SourceGraphic" in2="effect1_dropShadow_41259_19813" result="shape" />
        </filter>
        <linearGradient
            id="paint0_linear_41259_19813"
            x1="21.4286"
            y1="16.1445"
            x2="21.4286"
            y2="36.716"
            gradientUnits="userSpaceOnUse"
        >
            <stop stop-color="#F0F0F0" />
            <stop offset="1" stop-color="#BABABA" />
        </linearGradient>
        <linearGradient
            id="paint1_linear_41259_19813"
            x1="40.2367"
            y1="11.1535"
            x2="35.8972"
            y2="35.1305"
            gradientUnits="userSpaceOnUse"
        >
            <stop stop-color="#FAFAFA" />
            <stop offset="1" stop-color="#EDEDED" />
        </linearGradient>
        <linearGradient
            id="paint2_linear_41259_19813"
            x1="15.6428"
            y1="11"
            x2="15.6428"
            y2="20"
            gradientUnits="userSpaceOnUse"
        >
            <stop stop-color="#D6D6D6" />
            <stop offset="1" stop-color="#B3B3B3" />
        </linearGradient>
        <linearGradient
            id="paint3_linear_41259_19813"
            x1="37.5"
            y1="11"
            x2="37.5"
            y2="20"
            gradientUnits="userSpaceOnUse"
        >
            <stop stop-color="#D6D6D6" />
            <stop offset="1" stop-color="#B3B3B3" />
        </linearGradient>
        <linearGradient
            id="paint4_linear_41259_19813"
            x1="15.6428"
            y1="31.5703"
            x2="15.6428"
            y2="22.5703"
            gradientUnits="userSpaceOnUse"
        >
            <stop stop-color="#D6D6D6" />
            <stop offset="1" stop-color="#B3B3B3" />
        </linearGradient>
        <linearGradient
            id="paint5_linear_41259_19813"
            x1="37.5"
            y1="31.5703"
            x2="37.5"
            y2="22.5703"
            gradientUnits="userSpaceOnUse"
        >
            <stop stop-color="#D6D6D6" />
            <stop offset="1" stop-color="#B3B3B3" />
        </linearGradient>
        <linearGradient
            id="paint6_linear_41259_19813"
            x1="26.5715"
            y1="17.4297"
            x2="26.5715"
            y2="25.144"
            gradientUnits="userSpaceOnUse"
        >
            <stop stop-color="#D6D6D6" />
            <stop offset="1" stop-color="#B3B3B3" />
        </linearGradient>
    </defs>
</svg>
