<svg width="49" height="48" viewBox="0 0 49 48" fill="none" xmlns="http://www.w3.org/2000/svg">
    <g filter="url(#filter0_ii_41259_13422)">
        <path
            d="M14.6665 38.8818C14.6665 39.4341 15.1142 39.8818 15.6665 39.8818H33.6665C34.2188 39.8818 34.6665 39.4341 34.6665 38.8818V35.8818C34.6665 35.3296 34.2188 34.8818 33.6665 34.8818H15.6665C15.1142 34.8818 14.6665 35.3296 14.6665 35.8818V38.8818Z"
            fill="white"
            fill-opacity="0.2"
        />
        <path
            d="M14.6665 38.8818C14.6665 39.4341 15.1142 39.8818 15.6665 39.8818H33.6665C34.2188 39.8818 34.6665 39.4341 34.6665 38.8818V35.8818C34.6665 35.3296 34.2188 34.8818 33.6665 34.8818H15.6665C15.1142 34.8818 14.6665 35.3296 14.6665 35.8818V38.8818Z"
            fill="url(#paint0_linear_41259_13422)"
        />
        <path
            d="M14.6665 31.8818C14.6665 32.4341 15.1142 32.8818 15.6665 32.8818H33.6665C34.2188 32.8818 34.6665 32.4341 34.6665 31.8818V28.8818C34.6665 28.3296 34.2188 27.8818 33.6665 27.8818H15.6665C15.1142 27.8818 14.6665 28.3296 14.6665 28.8818V31.8818Z"
            fill="white"
            fill-opacity="0.2"
        />
        <path
            d="M14.6665 31.8818C14.6665 32.4341 15.1142 32.8818 15.6665 32.8818H33.6665C34.2188 32.8818 34.6665 32.4341 34.6665 31.8818V28.8818C34.6665 28.3296 34.2188 27.8818 33.6665 27.8818H15.6665C15.1142 27.8818 14.6665 28.3296 14.6665 28.8818V31.8818Z"
            fill="url(#paint1_linear_41259_13422)"
        />
        <path
            d="M14.6665 24.8818C14.6665 25.4341 15.1142 25.8818 15.6665 25.8818H33.6665C34.2188 25.8818 34.6665 25.4341 34.6665 24.8818V20.8818C34.6665 20.3296 34.2188 19.8818 33.6665 19.8818H15.6665C15.1142 19.8818 14.6665 20.3296 14.6665 20.8818V24.8818Z"
            fill="white"
            fill-opacity="0.2"
        />
        <path
            d="M14.6665 24.8818C14.6665 25.4341 15.1142 25.8818 15.6665 25.8818H33.6665C34.2188 25.8818 34.6665 25.4341 34.6665 24.8818V20.8818C34.6665 20.3296 34.2188 19.8818 33.6665 19.8818H15.6665C15.1142 19.8818 14.6665 20.3296 14.6665 20.8818V24.8818Z"
            fill="url(#paint2_linear_41259_13422)"
        />
        <path
            d="M14.6665 16.8818C14.6665 17.4341 15.1142 17.8818 15.6665 17.8818H33.6665C34.2188 17.8818 34.6665 17.4341 34.6665 16.8818V13.4999C34.6665 13.1211 34.4525 12.7748 34.1137 12.6054L25.1137 8.10544C24.8322 7.96468 24.5008 7.96468 24.2193 8.10544L15.2193 12.6054C14.8805 12.7748 14.6665 13.1211 14.6665 13.4999V16.8818Z"
            fill="white"
            fill-opacity="0.2"
        />
        <path
            d="M14.6665 16.8818C14.6665 17.4341 15.1142 17.8818 15.6665 17.8818H33.6665C34.2188 17.8818 34.6665 17.4341 34.6665 16.8818V13.4999C34.6665 13.1211 34.4525 12.7748 34.1137 12.6054L25.1137 8.10544C24.8322 7.96468 24.5008 7.96468 24.2193 8.10544L15.2193 12.6054C14.8805 12.7748 14.6665 13.1211 14.6665 13.4999V16.8818Z"
            fill="url(#paint3_linear_41259_13422)"
        />
    </g>
    <defs>
        <filter
            id="filter0_ii_41259_13422"
            x="12.7915"
            y="6.125"
            width="21.875"
            height="35.6318"
            filterUnits="userSpaceOnUse"
            color-interpolation-filters="sRGB"
        >
            <feFlood flood-opacity="0" result="BackgroundImageFix" />
            <feBlend mode="normal" in="SourceGraphic" in2="BackgroundImageFix" result="shape" />
            <feColorMatrix
                in="SourceAlpha"
                type="matrix"
                values="0 0 0 0 0 0 0 0 0 0 0 0 0 0 0 0 0 0 127 0"
                result="hardAlpha"
            />
            <feOffset dy="-1.875" />
            <feGaussianBlur stdDeviation="1.25" />
            <feComposite in2="hardAlpha" operator="arithmetic" k2="-1" k3="1" />
            <feColorMatrix type="matrix" values="0 0 0 0 0.310588 0 0 0 0 0.172549 0 0 0 0 0.862745 0 0 0 0.15 0" />
            <feBlend mode="normal" in2="shape" result="effect1_innerShadow_41259_13422" />
            <feColorMatrix
                in="SourceAlpha"
                type="matrix"
                values="0 0 0 0 0 0 0 0 0 0 0 0 0 0 0 0 0 0 127 0"
                result="hardAlpha"
            />
            <feOffset dx="-2.5" dy="1.875" />
            <feGaussianBlur stdDeviation="0.9375" />
            <feComposite in2="hardAlpha" operator="arithmetic" k2="-1" k3="1" />
            <feColorMatrix type="matrix" values="0 0 0 0 1 0 0 0 0 1 0 0 0 0 1 0 0 0 0.1 0" />
            <feBlend mode="normal" in2="effect1_innerShadow_41259_13422" result="effect2_innerShadow_41259_13422" />
        </filter>
        <linearGradient
            id="paint0_linear_41259_13422"
            x1="24.1665"
            y1="39.8818"
            x2="24.1665"
            y2="8.00007"
            gradientUnits="userSpaceOnUse"
        >
            <stop stop-color="#6D4AFF" stop-opacity="0.4" />
            <stop offset="1" stop-color="#6D4AFF" stop-opacity="0.7" />
        </linearGradient>
        <linearGradient
            id="paint1_linear_41259_13422"
            x1="24.1665"
            y1="39.8818"
            x2="24.1665"
            y2="8.00007"
            gradientUnits="userSpaceOnUse"
        >
            <stop stop-color="#6D4AFF" stop-opacity="0.4" />
            <stop offset="1" stop-color="#6D4AFF" stop-opacity="0.7" />
        </linearGradient>
        <linearGradient
            id="paint2_linear_41259_13422"
            x1="24.1665"
            y1="39.8818"
            x2="24.1665"
            y2="8.00007"
            gradientUnits="userSpaceOnUse"
        >
            <stop stop-color="#6D4AFF" stop-opacity="0.4" />
            <stop offset="1" stop-color="#6D4AFF" stop-opacity="0.7" />
        </linearGradient>
        <linearGradient
            id="paint3_linear_41259_13422"
            x1="24.1665"
            y1="39.8818"
            x2="24.1665"
            y2="8.00007"
            gradientUnits="userSpaceOnUse"
        >
            <stop stop-color="#6D4AFF" stop-opacity="0.4" />
            <stop offset="1" stop-color="#6D4AFF" stop-opacity="0.7" />
        </linearGradient>
    </defs>
</svg>
