<svg width="49" height="48" viewBox="0 0 49 48" fill="none" xmlns="http://www.w3.org/2000/svg">
    <g clip-path="url(#clip0_41259_20311)">
        <path
            d="M16.3855 24.0166C19.1646 24.0166 21.6795 24.9392 23.6882 26.5195C21.6477 27.7861 19.9653 29.5689 18.822 31.6729C18.0147 33.0607 18.1021 34.6289 18.7791 35.8994H9.44604C6.4971 35.8993 4.50204 32.6902 5.97632 30.1748C7.97131 26.5318 11.8751 24.0166 16.3855 24.0166ZM16.2986 12.0469C19.0291 12.0469 21.2429 14.2607 21.2429 16.9912C21.2428 19.7217 19.0291 21.9355 16.2986 21.9355C13.5682 21.9354 11.3553 19.7216 11.3552 16.9912C11.3552 14.2607 13.5681 12.047 16.2986 12.0469Z"
            fill="url(#paint0_linear_41259_20311)"
        />
        <g filter="url(#filter0_d_41259_20311)">
            <path
                d="M30.8156 22.0233C33.9884 22.0233 36.5604 19.4313 36.5604 16.2338C36.5604 13.0364 33.9884 10.4443 30.8156 10.4443C27.6428 10.4443 25.0708 13.0364 25.0708 16.2338C25.0708 19.4313 27.6428 22.0233 30.8156 22.0233Z"
                fill="url(#paint1_linear_41259_20311)"
            />
            <path
                d="M22.8531 38.3754C19.4264 38.3754 17.1083 34.6173 18.8217 31.6718C21.1398 27.4058 25.6752 24.4603 30.9161 24.4603C36.157 24.4603 40.5916 27.3042 43.0104 31.6718C44.7238 34.7189 42.4057 38.3754 38.979 38.3754H22.8531Z"
                fill="url(#paint2_linear_41259_20311)"
            />
        </g>
        <path
            d="M13.8734 9.60345L12.3217 9.03037L11.6075 8.76587L11.343 8.05172L10.77 6.5L10.1969 8.05172L9.93237 8.76587L9.21823 9.03037L7.6665 9.60345L9.21823 10.1765L9.93237 10.441L10.1969 11.1552L10.77 12.7069L11.343 11.1552L11.6075 10.441L12.3217 10.1765L13.8734 9.60345Z"
            fill="url(#paint3_linear_41259_20311)"
            fill-opacity="0.5"
        />
        <path
            d="M40.77 22.6347L39.9941 22.3482L39.637 22.2159L39.5048 21.8589L39.2182 21.083L38.9317 21.8589L38.7994 22.2159L38.4424 22.3482L37.6665 22.6347L38.4424 22.9213L38.7994 23.0535L38.9317 23.4106L39.2182 24.1865L39.5048 23.4106L39.637 23.0535L39.9941 22.9213L40.77 22.6347Z"
            fill="url(#paint4_linear_41259_20311)"
            fill-opacity="0.5"
        />
    </g>
    <defs>
        <filter
            id="filter0_d_41259_20311"
            x="14.5195"
            y="8.58227"
            width="32.793"
            height="35.3789"
            filterUnits="userSpaceOnUse"
            color-interpolation-filters="sRGB"
        >
            <feFlood flood-opacity="0" result="BackgroundImageFix" />
            <feColorMatrix
                in="SourceAlpha"
                type="matrix"
                values="0 0 0 0 0 0 0 0 0 0 0 0 0 0 0 0 0 0 127 0"
                result="hardAlpha"
            />
            <feOffset dy="1.86207" />
            <feGaussianBlur stdDeviation="1.86207" />
            <feComposite in2="hardAlpha" operator="out" />
            <feColorMatrix type="matrix" values="0 0 0 0 0.32317 0 0 0 0 0.155642 0 0 0 0 0.679167 0 0 0 0.1 0" />
            <feBlend mode="normal" in2="BackgroundImageFix" result="effect1_dropShadow_41259_20311" />
            <feBlend mode="normal" in="SourceGraphic" in2="effect1_dropShadow_41259_20311" result="shape" />
        </filter>
        <linearGradient
            id="paint0_linear_41259_20311"
            x1="19.1322"
            y1="11.915"
            x2="12.8123"
            y2="35.3407"
            gradientUnits="userSpaceOnUse"
        >
            <stop stop-color="#FAEBFF" />
            <stop offset="1" stop-color="#EBAAFF" />
        </linearGradient>
        <linearGradient
            id="paint1_linear_41259_20311"
            x1="37.6665"
            y1="10.2504"
            x2="18.0831"
            y2="38.1671"
            gradientUnits="userSpaceOnUse"
        >
            <stop stop-color="#EBAAFF" />
            <stop offset="1" stop-color="#A171FA" />
        </linearGradient>
        <linearGradient
            id="paint2_linear_41259_20311"
            x1="37.6665"
            y1="10.2504"
            x2="18.0831"
            y2="38.1671"
            gradientUnits="userSpaceOnUse"
        >
            <stop stop-color="#EBAAFF" />
            <stop offset="1" stop-color="#A171FA" />
        </linearGradient>
        <linearGradient
            id="paint3_linear_41259_20311"
            x1="10.7874"
            y1="6.5"
            x2="10.7874"
            y2="12.6895"
            gradientUnits="userSpaceOnUse"
        >
            <stop stop-color="#F9E6FF" />
            <stop offset="1" stop-color="#CEC5F6" />
        </linearGradient>
        <linearGradient
            id="paint4_linear_41259_20311"
            x1="39.227"
            y1="21.083"
            x2="39.227"
            y2="24.1777"
            gradientUnits="userSpaceOnUse"
        >
            <stop stop-color="#F9E6FF" />
            <stop offset="1" stop-color="#CEC5F6" />
        </linearGradient>
        <clipPath id="clip0_41259_20311">
            <rect width="40" height="40" fill="white" transform="translate(4.33325 4)" />
        </clipPath>
    </defs>
</svg>
