<svg width="48" height="48" viewBox="0 0 48 48" fill="none" xmlns="http://www.w3.org/2000/svg">
    <g opacity="0.75" clip-path="url(#clip0_41259_25308)">
        <path
            d="M15.9656 21.9371C18.6962 21.9371 20.9098 19.7235 20.9098 16.9929C20.9098 14.2624 18.6962 12.0488 15.9656 12.0488C13.2351 12.0488 11.0216 14.2624 11.0216 16.9929C11.0216 19.7235 13.2351 21.9371 15.9656 21.9371Z"
            fill="url(#paint0_linear_41259_25308)"
        />
        <path
            d="M9.11301 35.9014C6.1639 35.9014 4.16891 32.6921 5.64346 30.1766C7.63845 26.5336 11.5417 24.0182 16.0521 24.0182C20.5625 24.0182 24.379 26.4469 26.4607 30.1766C27.9353 32.7788 25.9403 35.9014 22.9912 35.9014H9.11301Z"
            fill="url(#paint1_linear_41259_25308)"
        />
        <g filter="url(#filter0_d_41259_25308)">
            <path
                d="M30.4824 22.0233C33.6552 22.0233 36.2273 19.4313 36.2273 16.2338C36.2273 13.0364 33.6552 10.4443 30.4824 10.4443C27.3096 10.4443 24.7376 13.0364 24.7376 16.2338C24.7376 19.4313 27.3096 22.0233 30.4824 22.0233Z"
                fill="url(#paint2_linear_41259_25308)"
            />
            <path
                d="M22.52 38.3754C19.0932 38.3754 16.7751 34.6173 18.4885 31.6718C20.8066 27.4058 25.342 24.4603 30.5829 24.4603C35.8238 24.4603 40.2584 27.3042 42.6773 31.6718C44.3906 34.7189 42.0725 38.3754 38.6458 38.3754H22.52Z"
                fill="url(#paint3_linear_41259_25308)"
            />
        </g>
        <path
            d="M16.0523 24.0166C18.8314 24.0166 21.3463 24.9392 23.355 26.5195C21.3145 27.7861 19.6321 29.5689 18.4888 31.6729C17.6815 33.0607 17.7689 34.6289 18.4459 35.8994H9.11285C6.16391 35.8993 4.16885 32.6902 5.64313 30.1748C7.63812 26.5318 11.5419 24.0166 16.0523 24.0166ZM15.9654 12.0469C18.6959 12.0469 20.9097 14.2607 20.9097 16.9912C20.9096 19.7217 18.6959 21.9355 15.9654 21.9355C13.235 21.9354 11.0222 19.7216 11.022 16.9912C11.022 14.2607 13.235 12.047 15.9654 12.0469Z"
            fill="url(#paint4_linear_41259_25308)"
        />
        <path
            d="M13.5402 9.60345L11.9885 9.03037L11.2743 8.76587L11.0098 8.05172L10.4368 6.5L9.86368 8.05172L9.59918 8.76587L8.88504 9.03037L7.33331 9.60345L8.88504 10.1765L9.59918 10.441L9.86368 11.1552L10.4368 12.7069L11.0098 11.1552L11.2743 10.441L11.9885 10.1765L13.5402 9.60345Z"
            fill="url(#paint5_linear_41259_25308)"
            fill-opacity="0.5"
        />
        <path
            d="M40.4368 22.6347L39.6609 22.3482L39.3038 22.2159L39.1716 21.8589L38.885 21.083L38.5985 21.8589L38.4662 22.2159L38.1092 22.3482L37.3333 22.6347L38.1092 22.9213L38.4662 23.0535L38.5985 23.4106L38.885 24.1865L39.1716 23.4106L39.3038 23.0535L39.6609 22.9213L40.4368 22.6347Z"
            fill="url(#paint6_linear_41259_25308)"
            fill-opacity="0.5"
        />
    </g>
    <defs>
        <filter
            id="filter0_d_41259_25308"
            x="14.1863"
            y="8.58227"
            width="32.7931"
            height="35.3789"
            filterUnits="userSpaceOnUse"
            color-interpolation-filters="sRGB"
        >
            <feFlood flood-opacity="0" result="BackgroundImageFix" />
            <feColorMatrix
                in="SourceAlpha"
                type="matrix"
                values="0 0 0 0 0 0 0 0 0 0 0 0 0 0 0 0 0 0 127 0"
                result="hardAlpha"
            />
            <feOffset dy="1.86207" />
            <feGaussianBlur stdDeviation="1.86207" />
            <feComposite in2="hardAlpha" operator="out" />
            <feColorMatrix type="matrix" values="0 0 0 0 0 0 0 0 0 0 0 0 0 0 0 0 0 0 0.1 0" />
            <feBlend mode="normal" in2="BackgroundImageFix" result="effect1_dropShadow_41259_25308" />
            <feBlend mode="normal" in="SourceGraphic" in2="effect1_dropShadow_41259_25308" result="shape" />
        </filter>
        <linearGradient
            id="paint0_linear_41259_25308"
            x1="25.7118"
            y1="12.2268"
            x2="17.8784"
            y2="38.6133"
            gradientUnits="userSpaceOnUse"
        >
            <stop stop-color="#F5F5F5" />
            <stop offset="1" stop-color="#E0E0E0" />
        </linearGradient>
        <linearGradient
            id="paint1_linear_41259_25308"
            x1="25.7118"
            y1="12.2268"
            x2="17.8784"
            y2="38.6133"
            gradientUnits="userSpaceOnUse"
        >
            <stop stop-color="#F5F5F5" />
            <stop offset="1" stop-color="#E0E0E0" />
        </linearGradient>
        <linearGradient
            id="paint2_linear_41259_25308"
            x1="37.3333"
            y1="10.2504"
            x2="17.7499"
            y2="38.1671"
            gradientUnits="userSpaceOnUse"
        >
            <stop stop-color="#EBEBEB" />
            <stop offset="1" stop-color="#BFBFBF" />
        </linearGradient>
        <linearGradient
            id="paint3_linear_41259_25308"
            x1="37.3333"
            y1="10.2504"
            x2="17.7499"
            y2="38.1671"
            gradientUnits="userSpaceOnUse"
        >
            <stop stop-color="#EBEBEB" />
            <stop offset="1" stop-color="#BFBFBF" />
        </linearGradient>
        <linearGradient
            id="paint4_linear_41259_25308"
            x1="22.3148"
            y1="12.2249"
            x2="13.2508"
            y2="37.7135"
            gradientUnits="userSpaceOnUse"
        >
            <stop stop-color="#F5F5F5" />
            <stop offset="1" stop-color="#E0E0E0" />
        </linearGradient>
        <linearGradient
            id="paint5_linear_41259_25308"
            x1="10.4542"
            y1="6.5"
            x2="10.4542"
            y2="12.6895"
            gradientUnits="userSpaceOnUse"
        >
            <stop stop-color="#F2F2F2" />
            <stop offset="1" stop-color="#DDDDDD" />
        </linearGradient>
        <linearGradient
            id="paint6_linear_41259_25308"
            x1="38.8938"
            y1="21.083"
            x2="38.8938"
            y2="24.1777"
            gradientUnits="userSpaceOnUse"
        >
            <stop stop-color="#F2F2F2" />
            <stop offset="1" stop-color="#DDDDDD" />
        </linearGradient>
        <clipPath id="clip0_41259_25308">
            <rect width="40" height="40" fill="white" transform="translate(4 4)" />
        </clipPath>
    </defs>
</svg>
