<svg xmlns="http://www.w3.org/2000/svg" width="255" height="48" fill="none" viewBox="0 0 255 48">
    <path fill="#6D4AFF" d="M0 0h254.817v48H0z" />
    <path
        fill="#fff"
        d="M212.323 13.818h4.166l4.982 9.009h.198l4.982-9.009h4.166l-7.408 12.768v7.596h-3.679v-7.597l-7.407-12.767Zm-14.177 20.364h-3.937l7.169-20.364h4.554l7.179 20.364h-3.938l-1.69-5.021h-7.656l-1.681 5.021Zm2.675-7.984h5.668l-2.755-8.203h-.159l-2.754 8.203Zm-18.585 7.984h-6.9V13.818h7.04c6.065 0 9.744 3.819 9.744 10.162 0 6.364-3.679 10.202-9.884 10.202Zm-3.211-3.192h3.033c4.245 0 6.403-2.326 6.403-7.01 0-4.663-2.158-6.97-6.294-6.97h-3.142v13.98Zm-8.684-17.172v20.364h-3.689V13.818h3.689Zm-22.9 20.364V13.818h7.637c4.673 0 7.179 2.625 7.179 6.513 0 2.764-1.263 4.813-3.659 5.777l4.404 8.074h-4.116l-3.997-7.457h-3.759v7.457h-3.689Zm3.689-10.52h3.401c2.734 0 3.967-1.163 3.967-3.33 0-2.168-1.233-3.431-3.987-3.431h-3.381v6.761Zm-21.095 10.52V13.818h13.046v3.093h-9.357v5.528h8.462v3.093h-8.462v8.65h-3.689Zm-27.894 0V13.818h3.689v9.357h.248l7.945-9.357h4.504l-7.875 9.138 7.945 11.226h-4.435l-6.075-8.73-2.257 2.665v6.065h-3.689ZM97.762 20.69h-3.718c-.428-2.437-2.367-3.839-4.843-3.839-3.33 0-5.677 2.556-5.677 7.15 0 4.673 2.366 7.148 5.667 7.148 2.436 0 4.385-1.342 4.853-3.728l3.718.02c-.566 3.887-3.778 7.02-8.62 7.02-5.37 0-9.327-3.888-9.327-10.46 0-6.583 4.007-10.461 9.327-10.461 4.514 0 7.994 2.625 8.62 7.15Zm-35.12 13.492h-3.937l7.169-20.364h4.554l7.179 20.364h-3.938l-1.69-5.021h-7.656l-1.68 5.021Zm2.675-7.984h5.668l-2.754-8.203h-.16l-2.754 8.203Zm-21.915 7.984V13.818h3.69V31.09h8.968v3.092H43.402Zm-19.402 0V13.818h7.796c4.414 0 6.602 2.248 6.602 5.28 0 2.476-1.571 3.868-3.56 4.335v.2c2.168.109 4.355 1.918 4.355 5 0 3.173-2.287 5.55-6.95 5.55H24Zm3.689-3.082h3.967c2.675 0 3.789-1.134 3.789-2.755 0-1.82-1.412-3.211-3.69-3.211H27.69V31.1Zm0-8.621h3.65c1.918 0 3.37-1.114 3.37-2.903 0-1.572-1.124-2.715-3.291-2.715h-3.73v5.618Z"
    />
</svg>
