<svg xmlns="http://www.w3.org/2000/svg" width="306" height="95" fill="none">
    <path
        fill="#fff"
        d="M.954 0h9.43l6.276 12.12L22.899 0h9.466v23.056h-7.996V10.865l-6.454 12.191h-2.546L8.914 10.865v12.191H.954V0ZM33.8 0h7.96v16.243l.61.61h8.39l.61-.61V0h7.996v18.646l-4.446 4.41H38.21l-4.41-4.41V0ZM60.798 0h7.96v8.211h7.243V0h7.996v23.056h-7.996v-8.462h-7.243v8.462h-7.96V0ZM85.056 0h24.67v6.132h-8.355v16.924h-7.996V6.132h-8.319V0ZM110.802 0h19.506v5.63h-11.546v2.832h9.108v5.594h-9.108v3.406h12.478v5.594h-20.438V0ZM136.506 0h16.566l4.446 4.446V7.28l-7.996.717v-1.47l-.61-.61h-8.247l-.574.61v1.542l.574.61h12.55l4.446 4.41v5.558l-4.446 4.41h-7.494l-.61 1.363h2.331l2.116 2.115v1.757l-2.116 2.116h-6.598v-2.26h5.379l.502-.501v-.43l-.502-.538h-4.482l1.542-3.622h-7.279l-4.411-4.41v-2.833l7.961-.717v1.47l.609.61h8.893l.609-.61v-1.685l-.609-.61h-12.55l-4.411-4.41V4.446L136.506 0ZM158.74 0h19.506v5.63H166.7v2.832h9.108v5.594H166.7v3.406h12.478v5.594H158.74V0ZM179.89 0h9.43l6.275 12.12L201.834 0h9.467v23.056h-7.996V10.865l-6.455 12.191h-2.546l-6.454-12.191v12.191h-7.96V0ZM12.535 35.028h42.893l11.414 11.438v9.962l-20.526 1.845v-5.165L44.75 51.54H23.212l-1.565 1.568v23.245l1.565 1.568h21.539l1.565-1.568v-5.166l20.526 1.845v9.962L55.428 94.34H12.535L1.213 82.994V46.466l11.322-11.438ZM70.517 35.028h20.435v41.786l1.564 1.568h21.539l1.565-1.568V35.028h20.526v47.966L124.733 94.34H81.839L70.517 82.994V35.028ZM139.822 35.028h24.208l16.108 31.178 16.016-31.178h24.3V94.34h-20.526V62.978L183.359 94.34h-6.535l-16.568-31.362V94.34h-20.434V35.028ZM263.993 50.894l-8.376 20.754h17.489l-8.468-20.754h-.645Zm-12.61-15.866h25.957l27.706 59.312H282.31l-3.313-8.025h-29.363l-3.314 8.025h-22.643l27.706-59.312Z"
    />
</svg>
