<svg xmlns="http://www.w3.org/2000/svg" width="286" height="95" fill="none">
    <path
        fill="#fff"
        d="M5.81 0h18.025l4.796 4.796v4.178l-8.625.773V7.581l-.658-.657h-9.05l-.658.657v9.748l.657.657h9.051l.658-.657v-2.166l8.625.773v4.178l-4.796 4.758H5.81l-4.757-4.758V4.796L5.81 0ZM30.099 0h24.097v.31L42.902 17.985h12.222v6.886H29.17V24.6L40.426 6.924H30.098V0ZM72.497 6.653l-3.52 8.703h7.349l-3.559-8.703h-.27ZM67.197 0h10.908l11.643 24.872h-9.554l-1.392-3.366h-12.34l-1.392 3.366h-9.515L67.198 0ZM99.69 6.692v5.918h8.433l.658-.62V7.35l-.658-.658h-8.432ZM91.105 0h21.506l4.796 4.796v7.93l-4.448 4.448 8.123 7.698h-10.637l-6.073-6.344h-4.68v6.344h-8.587V0Z"
    />
    <path
        fill="#fff"
        d="M120.492 0h9.515l6.885 11.836V0h8.625v24.872h-8.625l-7.814-13.345v13.345h-8.586V0ZM146.659 0h9.438l5.647 11.024L167.392 0h9.476l-10.791 16.594v8.277h-8.626v-8.277L146.659 0ZM17.583 49.227V59.99h16.645l1.298-1.222v-8.244l-1.298-1.297H17.583ZM.633 36.02h42.451l9.468 9.465V63.73l-9.468 9.465H17.583v11.909H.633V36.02ZM55.586 36.02h16.95v49.084h-16.95V36.02ZM108.629 49.15l-6.948 17.175h14.507l-7.024-17.175h-.535Zm-10.46-13.13H119.7l22.983 49.084h-7.407v2.29l2.138 2.137h7.483v4.809h-11.148l-4.504-4.504v-4.732h-5.422l-2.748-6.641H96.718l-2.749 6.64H75.188l22.982-49.082ZM132.368 36.02h52.531v13.054h-17.791v36.03h-17.026v-36.03h-17.714V36.02ZM187.19 36.02h41.536v11.985H204.14v6.03h19.394v11.909H204.14v7.251h26.571v11.909H187.19V36.02ZM232.226 36.02h16.95V54.8h.458l15.347-18.778h19.089l-19.012 23.74 20.31 25.343h-19.089l-16.645-20.305h-.458v20.305h-16.95V36.02Z"
    />
</svg>
