<svg width="308" height="95" viewBox="0 0 308 95" fill="none" xmlns="http://www.w3.org/2000/svg">
    <path
        d="M11.4293 20.1936V24.9089H22.9613L23.8326 24.0376V21.0649L22.9613 20.1936H11.4293ZM11.4293 8.04668V12.5569H22.5512L23.4225 11.6856V8.91798L22.5512 8.04668H11.4293ZM-6.10352e-05 -3.05176e-05H28.4966L34.8519 6.35533V11.7881L30.3929 16.2984L35.262 21.1674V26.6002L28.9066 32.9556H-6.10352e-05V-3.05176e-05Z"
        fill="white"
    />
    <path d="M38.5758 -3.05176e-05H50.0052V24.9089H67.79V32.9556H38.5758V-3.05176e-05Z" fill="white" />
    <path
        d="M92.7886 8.76422L88.0733 20.3474H97.8114L93.1473 8.76422H92.7886ZM85.7157 -3.05176e-05H100.169L115.596 32.9556H102.937L101.143 28.4966H84.7419L82.948 32.9556H70.2885L85.7157 -3.05176e-05Z"
        fill="white"
    />
    <path
        d="M122.733 -3.05176e-05H146.566L152.921 6.35533V11.8394L141.492 12.8645V10.0455L140.621 9.17425H128.679L127.808 10.0455V22.91L128.679 23.7813H140.621L141.492 22.91V20.0911L152.921 21.1162V26.6002L146.566 32.9556H122.733L116.378 26.6002V6.35533L122.733 -3.05176e-05Z"
        fill="white"
    />
    <path
        d="M156.506 -3.05176e-05H167.935V12.6082H168.191L178.544 -3.05176e-05H191.306L178.544 15.9396L192.178 32.9556H179.416L168.191 19.2711H167.935V32.9556H156.506V-3.05176e-05Z"
        fill="white"
    />
    <path
        d="M0.546355 43.8153H43.2905V56.1514H18.0683V65.9731H40.7761V78.3092H18.0683V94.3382H0.546355V43.8153Z"
        fill="white"
    />
    <path
        d="M65.544 57.4086V69.4303H82.5945L83.9303 68.0946V58.7443L82.5945 57.4086H65.544ZM48.0221 43.8153H91.7091L101.452 53.5584V69.6661L92.4163 78.702L108.917 94.3382H87.3875L74.9729 81.4521H65.544V94.3382H48.0221V43.8153Z"
        fill="white"
    />
    <path d="M110.077 43.8153H127.599V94.3382H110.077V43.8153Z" fill="white" />
    <path
        d="M150.52 57.88V80.2735H167.571L168.907 78.9378V59.2158L167.571 57.88H150.52ZM132.998 43.8153H176.685L186.428 53.5584V84.5951L176.685 94.3382H132.998V43.8153Z"
        fill="white"
    />
    <path
        d="M222.095 57.2514L214.866 75.0091H229.795L222.645 57.2514H222.095ZM211.252 43.8153H233.409L257.06 94.3382H237.652L234.902 87.5023H209.759L207.009 94.3382H187.601L211.252 43.8153Z"
        fill="white"
    />
    <path
        d="M246.424 43.8153H265.674L277.146 66.2088L288.539 43.8153H307.79L285.868 77.5234V94.3382H268.346V77.5234L246.424 43.8153Z"
        fill="white"
    />
</svg>
