<svg width="288" height="107" viewBox="0 0 288 107" fill="none" xmlns="http://www.w3.org/2000/svg">
    <path
        d="M7.99493 29.1735V32.4718H16.0616L16.671 31.8624V29.783L16.0616 29.1735H7.99493ZM7.99493 20.6766V23.8316H15.7747L16.3842 23.2221V21.2861L15.7747 20.6766H7.99493ZM0 15.0479H19.9335L24.3792 19.4935V23.2938L21.2601 26.4488L24.666 29.8547V33.6549L20.2204 38.1006H0V15.0479Z"
        fill="#251B4E"
    />
    <path d="M26.984 15.0479H34.9789V32.4718H47.4195V38.1006H26.984V15.0479Z" fill="#251B4E" />
    <path
        d="M64.9061 21.1786L61.6078 29.281H68.4196L65.1571 21.1786H64.9061ZM59.9586 15.0479H70.0688L80.8601 38.1006H72.0048L70.75 34.9815H59.2774L58.0226 38.1006H49.1672L59.9586 15.0479Z"
        fill="#251B4E"
    />
    <path
        d="M85.8528 15.0479H102.524L106.969 19.4935V23.3297L98.9745 24.0467V22.0748L98.365 21.4654H90.0116L89.4021 22.0748V31.0736L90.0116 31.6831H98.365L98.9745 31.0736V29.1018L106.969 29.8188V33.6549L102.524 38.1006H85.8528L81.4072 33.6549V19.4935L85.8528 15.0479Z"
        fill="#251B4E"
    />
    <path
        d="M109.476 15.0479H117.471V23.8674H117.651L124.893 15.0479H133.82L124.893 26.1978L134.429 38.1006H125.502L117.651 28.5282H117.471V38.1006H109.476V15.0479Z"
        fill="#251B4E"
    />
    <path
        d="M0.382221 45.697H30.2819V54.3261H12.6389V61.1965H28.5231V69.8256H12.6389V81.038H0.382221V45.697Z"
        fill="#251B4E"
    />
    <path
        d="M45.8484 55.2055V63.6148H57.7753L58.7097 62.6805V56.1399L57.7753 55.2055H45.8484ZM33.5917 45.697H64.151L70.9664 52.5123V63.7797L64.6457 70.1004L76.1879 81.038H61.1281L52.444 72.0241H45.8484V81.038H33.5917V45.697Z"
        fill="#251B4E"
    />
    <path d="M76.9994 45.697H89.2561V81.038H76.9994V45.697Z" fill="#251B4E" />
    <path
        d="M105.29 55.5353V71.1997H117.217L118.151 70.2653V56.4697L117.217 55.5353H105.29ZM93.0331 45.697H123.592L130.408 52.5123V74.2226L123.592 81.038H93.0331V45.697Z"
        fill="#251B4E"
    />
    <path
        d="M155.357 55.0956L150.3 67.5172H160.743L155.741 55.0956H155.357ZM147.772 45.697H163.271L179.815 81.038H166.239L164.315 76.2563H146.727L144.804 81.038H131.228L147.772 45.697Z"
        fill="#251B4E"
    />
    <path
        d="M172.375 45.697H185.841L193.865 61.3614L201.835 45.697H215.301L199.966 69.276V81.038H187.709V69.276L172.375 45.697Z"
        fill="#251B4E"
    />
    <path
        d="M233.396 106.495C263.557 106.495 288.008 104.112 288.008 101.173C288.008 98.2331 263.557 95.8501 233.396 95.8501C203.235 95.8501 178.785 98.2331 178.785 101.173C178.785 104.112 203.235 106.495 233.396 106.495Z"
        fill="#ECEAF9"
    />
    <path
        d="M224.757 75.0378C224.757 75.0378 214.061 81.1919 204.103 86.5285C194.395 91.7288 185.201 94.1982 178.788 92.5074C156.346 86.5952 159.108 70.8581 159.108 70.8581C159.108 70.8581 159.53 66.5977 163.805 65.5799C168.079 64.5593 171.705 68.8725 174.522 74.5261C177.339 80.1769 183.502 83.9979 190.24 82.485C197.785 80.7915 206.403 75.3492 206.403 75.3492L222.535 69.3898L224.757 75.0406V75.0378Z"
        fill="#6D4AFF"
    />
    <mask
        id="mask0_571_19390"
        style="mask-type: luminance"
        maskUnits="userSpaceOnUse"
        x="159"
        y="65"
        width="66"
        height="29"
    >
        <path
            d="M224.757 75.0378C224.757 75.0378 214.061 81.1919 204.103 86.5285C194.395 91.7288 185.201 94.1982 178.788 92.5074C156.346 86.5952 159.108 70.8581 159.108 70.8581C159.108 70.8581 159.53 66.5977 163.805 65.5799C168.079 64.5593 171.705 68.8725 174.522 74.5261C177.339 80.1769 183.502 83.9979 190.24 82.485C197.785 80.7915 206.403 75.3492 206.403 75.3492L222.535 69.3898L224.757 75.0406V75.0378Z"
            fill="white"
        />
    </mask>
    <g mask="url(#mask0_571_19390)">
        <path
            d="M168.824 46.4139C159.898 51.3806 151.738 48.227 151.738 48.227C151.738 48.227 150.117 56.8228 141.19 61.7895C141.19 61.7895 149.383 80.0156 169.892 80.8554C179.992 62.9853 168.824 46.4139 168.824 46.4139Z"
            fill="#4129A3"
        />
    </g>
    <path
        d="M224.757 75.0378C224.757 75.0378 214.061 81.1919 204.103 86.5285C194.395 91.7288 185.201 94.1982 178.788 92.5074C156.346 86.5952 159.108 70.8581 159.108 70.8581C159.108 70.8581 159.53 66.5977 163.805 65.5799C168.079 64.5593 171.705 68.8725 174.522 74.5261C177.339 80.1769 183.502 83.9979 190.24 82.485C197.785 80.7915 206.403 75.3492 206.403 75.3492L222.535 69.3898L224.757 75.0406V75.0378Z"
        stroke="white"
        stroke-width="0.973317"
        stroke-miterlimit="10"
    />
    <path
        d="M222.29 83.2748C222.29 83.2748 216.689 91.7649 216.367 94.1871C216.13 95.953 216.311 96.9875 216.848 98.0331C217.304 98.923 218.041 99.621 219.031 99.4847C220.321 99.3068 222.156 98.5587 223.983 96.1171L229.337 88.9479L223.166 81.3226"
        fill="#4129A3"
    />
    <path
        d="M222.29 83.2748C222.29 83.2748 216.689 91.7649 216.367 94.1871C216.13 95.953 216.311 96.9875 216.848 98.0331C217.304 98.923 218.041 99.621 219.031 99.4847C220.321 99.3068 222.156 98.5587 223.983 96.1171L229.337 88.9479L223.166 81.3226"
        stroke="white"
        stroke-width="0.973317"
        stroke-miterlimit="10"
        stroke-linecap="round"
    />
    <path
        d="M218.399 93.2833C218.399 93.2833 217.76 94.0647 217.754 96.2283C217.754 96.9457 218.244 97.5436 218.931 97.7494C219.617 97.9552 220.366 98.5948 220.819 99.5097C221.681 101.253 221.294 103.339 219.832 103.562C215.41 104.234 209.948 103.328 209.948 103.328C209.948 103.328 208.13 103.178 207.356 99.4458C206.781 96.6565 205.435 89.8544 203.597 87.8911"
        fill="#6D4AFF"
    />
    <path
        d="M206.286 91.5869L201.58 85.1158C197.442 79.426 196.664 71.9565 199.537 65.5326C202.518 58.8751 206.903 53.5024 214.918 51.2026L224.679 49.0391C227.918 48.3216 230.591 46.0385 231.809 42.9517L236.003 32.3203L256.022 40.2097L249.368 83.475C249.368 83.475 244.779 84.2454 239.57 85.9195C234.924 87.4128 227.724 89.8823 220.53 90.4885C220.53 90.4885 219.323 91.3506 218.402 93.2861"
        fill="#6D4AFF"
    />
    <mask
        id="mask1_571_19390"
        style="mask-type: luminance"
        maskUnits="userSpaceOnUse"
        x="203"
        y="79"
        width="24"
        height="25"
    >
        <path
            d="M203.596 87.8911C205.434 89.8544 206.78 96.6593 207.356 99.4458C208.129 103.178 209.948 103.328 209.948 103.328C209.948 103.328 215.409 104.235 219.831 103.562C221.297 103.339 221.683 101.253 220.818 99.5098C220.365 98.5921 219.634 97.9608 218.93 97.7494C218.227 97.5381 217.748 96.9458 217.754 96.2283C217.784 92.8578 220.112 90.825 220.112 90.825C220.112 90.825 225.115 90.825 226.63 82.6018C228.146 74.3787 203.596 87.8911 203.596 87.8911Z"
            fill="white"
        />
    </mask>
    <g mask="url(#mask1_571_19390)">
        <path
            d="M215.46 90.0408C215.46 90.0408 210.774 95.1131 205.251 94.176L204.336 102.249L215.499 108.331L227.604 106.02L219.968 93.7922C219.968 93.7922 217.785 93.9646 215.46 90.0408Z"
            fill="#4129A3"
        />
    </g>
    <path
        d="M219.781 98.4419C218.769 97.5659 217.206 97.9079 216.033 98.3195L215.46 98.5503L215.98 98.2083C217.22 97.4546 218.858 96.8762 220.249 97.5992C220.31 97.6354 220.357 97.6576 220.443 97.7272L219.779 98.4391L219.781 98.4419Z"
        fill="white"
    />
    <path
        d="M226.052 70.4827C227.846 73.9087 228.319 78.0189 227.318 81.7676C226.325 85.5774 223.833 88.8394 220.874 91.3645L220.257 90.6109C221.742 89.4457 223.099 88.1192 224.242 86.6203C227.818 82.1208 228.544 75.6691 226.052 70.4827Z"
        fill="white"
    />
    <path
        d="M269.023 40.9355L271.445 54.815C272.071 58.4024 271.768 62.0927 270.566 65.5299L262.691 92.4045L249.017 80.6663L246.417 42.465L269.026 40.9327L269.023 40.9355Z"
        fill="#6D4AFF"
    />
    <path
        d="M269.359 39.9566L269.039 39.5923L267.966 37.4454C256.448 43.1991 242.79 42.6652 231.756 36.03V43.0434C240.649 48.7721 256.108 50.1653 269.357 42.8515V39.9538L269.359 39.9566Z"
        fill="#4129A3"
    />
    <path d="M269.641 35.841L264.311 35.6316L264.035 42.648L269.365 42.8574L269.641 35.841Z" fill="#4129A3" />
    <path
        d="M242.24 7.78985L236.044 4.18302C233.897 2.93161 231.18 4.34431 230.969 6.8221L230.001 18.2433L242.237 7.79263L242.24 7.78985Z"
        fill="#6D4AFF"
    />
    <path
        d="M234.582 8.81879L237.588 10.5735L232.958 13.9857L233.341 9.46396C233.391 8.85772 234.056 8.51289 234.582 8.81879Z"
        fill="#4A2DC5"
    />
    <path
        d="M257.857 6.84994L263.889 2.97613C265.98 1.63296 268.756 2.92886 269.073 5.39274L270.533 16.7611L257.854 6.84994H257.857Z"
        fill="#6D4AFF"
    />
    <path
        d="M265.102 7.54517L262.174 9.42784L266.949 12.637L266.37 8.13472C266.292 7.53127 265.614 7.21702 265.105 7.54517H265.102Z"
        fill="#4A2DC5"
    />
    <path
        d="M275.558 26.5555C276.051 37.9155 262.747 42.5485 251.501 43.0351C241.617 43.4634 226.601 40.0568 226.108 28.6968C225.616 17.3368 236.189 5.37608 249.843 4.78375C263.498 4.19141 275.063 15.1955 275.556 26.5555H275.558Z"
        fill="#6D4AFF"
    />
    <path
        d="M267.699 16.9279C269.432 20.215 267.588 24.3196 263.583 26.0966C259.576 27.8736 254.927 26.6472 253.191 23.3602C251.459 20.0732 253.302 15.9685 257.307 14.1915C261.314 12.4145 265.964 13.6409 267.699 16.9279Z"
        fill="white"
    />
    <path
        d="M258.368 22.6552C259.887 22.552 260.981 20.4621 260.813 17.9874C260.645 15.5128 259.277 13.5903 257.759 13.6936C256.24 13.7968 255.146 15.8867 255.314 18.3614C255.482 20.8361 256.85 22.7585 258.368 22.6552Z"
        fill="#4129A3"
    />
    <path
        opacity="0.7"
        d="M259.857 16.7082C260.432 16.7082 260.898 16.2426 260.898 15.6682C260.898 15.0938 260.432 14.6281 259.857 14.6281C259.283 14.6281 258.817 15.0938 258.817 15.6682C258.817 16.2426 259.283 16.7082 259.857 16.7082Z"
        fill="white"
    />
    <path
        d="M252.741 19.2138C253.464 15.0842 257.988 12.5758 261.968 12.9457C266.259 13.2404 269.916 17.1949 268.025 21.4914C268.472 19.6143 268.052 17.6176 266.765 16.191C262.822 11.8917 254.768 13.8355 252.743 19.2138H252.741Z"
        fill="#372480"
    />
    <path
        d="M229.918 18.3211C228.522 21.725 230.769 25.6766 234.94 27.1533C239.109 28.6272 243.622 27.0671 245.018 23.6633C246.414 20.2594 244.167 16.3078 239.996 14.8311C235.827 13.3572 231.314 14.9173 229.918 18.3211Z"
        fill="white"
    />
    <path
        d="M236.097 23.0359C237.608 22.8541 238.593 20.7104 238.297 18.2477C238.001 15.7851 236.535 13.9361 235.024 14.1179C233.513 14.2997 232.528 16.4434 232.825 18.9061C233.121 21.3687 234.586 23.2177 236.097 23.0359Z"
        fill="#4129A3"
    />
    <path
        opacity="0.7"
        d="M237.218 17.0281C237.792 17.0281 238.258 16.5624 238.258 15.988C238.258 15.4136 237.792 14.9479 237.218 14.9479C236.643 14.9479 236.178 15.4136 236.178 15.988C236.178 16.5624 236.643 17.0281 237.218 17.0281Z"
        fill="white"
    />
    <path
        d="M245.052 19.4975C242.552 14.3973 234.392 12.8706 230.788 17.4952C229.629 19.033 229.426 21.0659 230.054 22.8902C227.732 18.7383 230.997 14.5057 235.332 13.919C239.284 13.296 243.928 15.4818 245.052 19.4975Z"
        fill="#372480"
    />
    <path
        d="M251.128 90.5719C251.128 90.5719 250.883 94.0953 250.688 95.0687C250.494 96.042 249.64 98.8563 251.595 100.211C252.877 101.1 258.614 102.527 260.83 100.255C263.05 97.983 258.492 92.1098 258.492 92.1098L251.125 90.5719H251.128Z"
        fill="#4129A3"
    />
    <path
        d="M251.128 90.5719L258.494 92.1098C258.494 92.1098 263.052 97.983 260.833 100.255C259.952 101.159 258.514 101.476 257.021 101.476C254.757 101.476 252.368 100.744 251.598 100.208C249.643 98.8535 250.497 96.0364 250.691 95.0659C250.886 94.0953 251.131 90.5691 251.131 90.5691M250.235 89.3928L250.157 90.5052C250.091 91.4674 249.885 94.1315 249.735 94.8796C249.718 94.963 249.696 95.0603 249.671 95.1715C249.39 96.4396 248.728 99.4097 251.042 101.014C252.046 101.709 254.687 102.455 257.021 102.455C259.031 102.455 260.547 101.946 261.528 100.942C264.262 98.1443 259.782 92.1904 259.262 91.5202L259.042 91.2366L258.692 91.1643L251.325 89.6264L250.232 89.3984L250.235 89.3928Z"
        fill="white"
    />
    <path
        d="M239.361 75.7469C239.361 75.7469 249.781 88.6364 261.222 101.673C261.222 101.673 262.69 103.951 267.699 104.148C272.368 104.332 272.91 102.608 272.91 102.608C272.91 102.608 274.373 99.8852 270.368 98.3056C270.368 98.3056 265.588 91.8734 257.145 73.575"
        fill="#6D4AFF"
    />
    <mask
        id="mask2_571_19390"
        style="mask-type: luminance"
        maskUnits="userSpaceOnUse"
        x="239"
        y="73"
        width="35"
        height="32"
    >
        <path
            d="M239.361 75.747C239.361 75.747 251.127 90.5748 261.222 101.673C261.222 101.673 262.69 103.951 267.698 104.148C272.367 104.332 272.91 102.608 272.91 102.608C272.91 102.608 274.372 99.8852 270.368 98.3057C270.368 98.3057 265.588 91.8734 257.145 73.5751"
            fill="white"
        />
    </mask>
    <g mask="url(#mask2_571_19390)">
        <path
            d="M261.936 89.8155C261.936 89.8155 260.101 95.3996 254.503 95.1938L257.554 100.85L266.177 107.88L277.876 104.001L268.713 91.9374C268.713 91.9374 264.701 92.6437 261.939 89.8155H261.936Z"
            fill="#4129A3"
        />
    </g>
    <path
        d="M264.234 87.9467C261.59 82.6213 259.053 77.243 256.704 71.7897C259.345 77.1068 262.171 82.3321 265.094 87.4907L264.234 87.9495V87.9467Z"
        fill="white"
    />
    <path
        d="M237.271 74.0867C240.285 77.6462 243.411 81.1112 246.595 84.5151L245.864 85.1547C242.916 81.5284 240.035 77.8492 237.271 74.0867Z"
        fill="white"
    />
    <path
        d="M270.622 98.3529C269.315 98.0081 267.905 98.0414 266.559 98.1527C267.229 97.9274 267.911 97.7355 268.606 97.5993C269.337 97.463 270.046 97.3545 270.806 97.3963L270.622 98.3529Z"
        fill="white"
    />
    <path
        d="M246.604 24.8646C247.524 24.8257 248.303 25.5404 248.344 26.4609"
        stroke="white"
        stroke-width="0.695227"
        stroke-miterlimit="10"
        stroke-linecap="round"
    />
    <path
        d="M249.94 24.72C249.02 24.759 248.305 25.5404 248.344 26.4609"
        stroke="white"
        stroke-width="0.695227"
        stroke-miterlimit="10"
        stroke-linecap="round"
    />
    <path
        d="M220.112 98.0859C220.112 98.0859 221.72 99.3401 221.706 102.104"
        stroke="white"
        stroke-width="0.973317"
        stroke-miterlimit="10"
        stroke-linecap="round"
    />
    <path
        d="M254.385 55.6743C257.392 55.6743 259.83 53.2365 259.83 50.2293C259.83 47.2221 257.392 44.7843 254.385 44.7843C251.378 44.7843 248.94 47.2221 248.94 50.2293C248.94 53.2365 251.378 55.6743 254.385 55.6743Z"
        fill="#FC8F00"
    />
    <path d="M256.415 44.7843H254.33V55.6716H256.415V44.7843Z" fill="#FC8F00" />
    <path
        d="M256.415 55.6743C259.422 55.6743 261.86 53.2365 261.86 50.2293C261.86 47.2221 259.422 44.7843 256.415 44.7843C253.408 44.7843 250.97 47.2221 250.97 50.2293C250.97 53.2365 253.408 55.6743 256.415 55.6743Z"
        fill="#FFAC2E"
    />
    <path
        d="M256.415 51.1248C257.35 51.1248 258.108 50.3665 258.108 49.4312C258.108 48.4958 257.35 47.7376 256.415 47.7376C255.479 47.7376 254.721 48.4958 254.721 49.4312C254.721 50.3665 255.479 51.1248 256.415 51.1248Z"
        fill="#372580"
    />
    <path
        d="M256.416 52.0814V49.4312"
        stroke="#372580"
        stroke-width="1.57399"
        stroke-miterlimit="10"
        stroke-linecap="round"
    />
    <path
        d="M258.5 5.69583L264.532 1.82202C266.623 0.478843 269.398 1.77475 269.715 4.23863L271.175 15.607L258.497 5.69583H258.5Z"
        fill="#6D4AFF"
    />
    <path
        d="M242.129 5.69583L236.097 1.82202C234.006 0.478843 231.231 1.77475 230.914 4.23863L229.454 15.607L242.132 5.69583H242.129Z"
        fill="#6D4AFF"
    />
    <path
        d="M234.429 6.39386L237.357 8.27654L232.582 11.4857L233.16 6.98342C233.238 6.37996 233.917 6.06572 234.426 6.39386H234.429Z"
        fill="#4A2DC5"
    />
    <path
        d="M265.744 6.39386L262.816 8.27654L267.591 11.4857L267.012 6.98342C266.934 6.37996 266.256 6.06572 265.747 6.39386H265.744Z"
        fill="#4A2DC5"
    />
    <path
        d="M275.338 27.5232C275.338 39.1251 261.57 43.2603 250.085 43.2603C239.99 43.2603 224.832 39.1251 224.832 27.5232C224.832 15.9212 236.139 4.19415 250.085 4.19415C264.031 4.19415 275.338 15.9212 275.338 27.5232Z"
        fill="#6D4AFF"
    />
    <path
        d="M262.468 31.3081C266.644 29.5071 268.733 25.0426 267.134 21.3364C265.536 17.6302 260.855 16.0857 256.679 17.8867C252.503 19.6877 250.414 24.1522 252.012 27.8584C253.611 31.5646 258.292 33.1091 262.468 31.3081Z"
        fill="white"
    />
    <path
        d="M243.66 27.8532C245.258 24.147 243.169 19.6825 238.993 17.8815C234.817 16.0805 230.136 17.625 228.538 21.3312C226.939 25.0375 229.029 29.5019 233.205 31.3029C237.38 33.1039 242.061 31.5594 243.66 27.8532Z"
        fill="white"
    />
    <path
        d="M257.69 28.4075C259.212 28.4075 260.446 26.3967 260.446 23.9163C260.446 21.4359 259.212 19.4252 257.69 19.4252C256.168 19.4252 254.935 21.4359 254.935 23.9163C254.935 26.3967 256.168 28.4075 257.69 28.4075Z"
        fill="#4129A3"
    />
    <path
        d="M243.909 23.2517C241.615 17.676 233.222 15.5458 229.448 20.6793C228.272 22.309 227.985 24.4169 228.441 26.3941C226.837 23.3852 228.049 19.5197 230.939 17.7622C235.658 14.6781 242.972 17.6537 243.909 23.2545V23.2517Z"
        fill="#372480"
    />
    <path
        d="M251.765 23.2517C252.702 17.651 260.016 14.6782 264.735 17.7594C267.625 19.517 268.837 23.3852 267.233 26.3914C267.691 24.4169 267.402 22.3062 266.226 20.6766C262.452 15.5431 254.059 17.6732 251.765 23.2489V23.2517Z"
        fill="#372480"
    />
    <path
        d="M245.308 31.1328C246.231 31.1328 246.976 31.8809 246.976 32.8014"
        stroke="white"
        stroke-width="0.695227"
        stroke-miterlimit="10"
        stroke-linecap="round"
    />
    <path
        d="M248.648 31.1328C247.724 31.1328 246.979 31.8809 246.979 32.8014"
        stroke="white"
        stroke-width="0.695227"
        stroke-miterlimit="10"
        stroke-linecap="round"
    />
    <path
        opacity="0.7"
        d="M259.371 22.0226C259.945 22.0226 260.411 21.5569 260.411 20.9825C260.411 20.4081 259.945 19.9424 259.371 19.9424C258.796 19.9424 258.331 20.4081 258.331 20.9825C258.331 21.5569 258.796 22.0226 259.371 22.0226Z"
        fill="white"
    />
    <path
        d="M233.928 28.4075C235.45 28.4075 236.684 26.3967 236.684 23.9163C236.684 21.4359 235.45 19.4252 233.928 19.4252C232.406 19.4252 231.172 21.4359 231.172 23.9163C231.172 26.3967 232.406 28.4075 233.928 28.4075Z"
        fill="#4129A3"
    />
    <path
        opacity="0.7"
        d="M235.61 22.0226C236.185 22.0226 236.65 21.5569 236.65 20.9825C236.65 20.4081 236.185 19.9424 235.61 19.9424C235.036 19.9424 234.57 20.4081 234.57 20.9825C234.57 21.5569 235.036 22.0226 235.61 22.0226Z"
        fill="white"
    />
    <path
        d="M266.392 1.87765C268.008 1.87765 269.526 3.04841 269.757 4.83375L271.161 15.7711C273.826 19.5003 275.377 23.8162 275.377 28.1155C275.377 32.9515 272.983 36.486 269.359 38.9694V42.8571L271.445 54.8178C272.071 58.4051 271.768 62.0954 270.566 65.5326L264.084 87.6547C268.158 95.3245 270.372 98.3028 270.372 98.3028C274.376 99.8852 272.913 102.605 272.913 102.605C272.913 102.605 272.424 104.159 268.375 104.159C268.161 104.159 267.936 104.154 267.699 104.146C262.691 103.948 261.222 101.67 261.222 101.67C255.613 95.28 250.252 88.9256 246.242 84.1091C244.462 84.5123 242.087 85.1102 239.568 85.9194C234.921 87.4128 227.61 89.8822 220.415 90.4885C220.415 90.4885 217.723 92.5269 217.754 96.2283C217.76 96.9457 218.244 97.5436 218.93 97.7494C219.634 97.9636 220.365 98.5948 220.819 99.5097C221.681 101.253 221.294 103.339 219.831 103.562C218.633 103.745 217.359 103.812 216.138 103.812C212.851 103.812 209.948 103.331 209.948 103.331C209.948 103.331 208.129 103.181 207.356 99.4486C206.842 96.9569 205.71 91.2588 204.164 88.6725L203.596 87.8911L201.578 85.1158C197.44 79.426 196.661 71.9565 199.534 65.5326C202.515 58.8751 206.9 53.5024 214.915 51.2026L224.676 49.0391C227.882 48.3271 230.527 46.0885 231.762 43.0518C231.762 43.0518 231.759 43.0518 231.756 43.049V39.2586C227.712 36.7641 224.868 33.1406 224.868 28.1155C224.868 23.5298 226.636 18.9218 229.634 15.0286L230.944 4.83097C231.172 3.04563 232.693 1.87487 234.309 1.87487C234.923 1.87487 235.552 2.0445 236.128 2.41436L241.959 6.15747C244.52 5.27592 247.265 4.7837 250.121 4.7837C252.977 4.7837 255.933 5.31485 258.575 6.26314L264.568 2.41714C265.144 2.04728 265.772 1.87765 266.387 1.87765M266.392 0.904334C265.566 0.904334 264.754 1.14349 264.048 1.59956L258.453 5.18971C255.747 4.27479 252.949 3.81316 250.127 3.81316C247.304 3.81316 244.709 4.24142 242.098 5.0896L236.659 1.59956C235.952 1.14627 235.14 0.904334 234.314 0.904334C232.126 0.904334 230.265 2.53951 229.984 4.70861L228.708 14.6476C225.607 18.7605 223.9 23.5326 223.9 28.1155C223.9 32.6984 226.278 36.8503 230.788 39.7925V42.8682C229.64 45.5184 227.293 47.4623 224.47 48.088L214.709 50.2515L214.681 50.2571L214.653 50.2654C207.337 52.3622 202.253 57.087 198.652 65.1322C195.643 71.8536 196.466 79.7291 200.796 85.6859L202.815 88.4612L203.357 89.2065C204.745 91.5591 205.824 96.7928 206.344 99.3123L206.411 99.6404C207.256 103.726 209.367 104.226 209.815 104.287C210.098 104.335 212.921 104.78 216.147 104.78C217.562 104.78 218.853 104.693 219.984 104.518C220.794 104.396 221.458 103.906 221.856 103.142C222.434 102.032 222.37 100.433 221.697 99.0731C221.147 97.9608 220.218 97.1154 219.217 96.8123C218.925 96.7233 218.736 96.4897 218.733 96.2144C218.711 93.5864 220.254 91.9373 220.813 91.4256C227.59 90.8055 234.453 88.5891 239.017 87.118L239.871 86.8427C241.77 86.2309 243.792 85.6775 245.883 85.1881C250.944 91.2616 255.978 97.1599 260.469 102.277C260.808 102.736 262.688 104.921 267.669 105.116C267.911 105.124 268.152 105.13 268.38 105.13C272.596 105.13 273.595 103.52 273.809 102.994C273.956 102.688 274.421 101.548 273.937 100.222C273.517 99.0759 272.532 98.1638 271.006 97.5047C270.455 96.7177 268.414 93.6893 265.132 87.5435L271.498 65.8274C272.747 62.2456 273.061 58.3829 272.407 54.6454L270.335 42.7737V39.47C274.329 36.575 276.353 32.7541 276.353 28.1127C276.353 23.769 274.882 19.3807 272.099 15.404L270.725 4.70583C270.447 2.53673 268.586 0.90155 266.395 0.90155L266.392 0.904334Z"
        fill="white"
    />
</svg>
