<svg xmlns="http://www.w3.org/2000/svg" width="316" height="106" fill="none">
    <path
        fill="#251B4E"
        d="M0 1.847h7.256l4.828 9.325 4.801-9.325h7.284v17.74h-6.153v-9.38l-4.966 9.38h-1.959l-4.966-9.38v9.38H0V1.847ZM25.273 1.847h6.125v12.498l.469.47h6.456l.469-.47V1.847h6.152v14.347l-3.42 3.393H28.665l-3.393-3.393V1.847ZM46.046 1.847h6.125v6.318h5.573V1.847h6.153v17.74h-6.153v-6.511h-5.573v6.511h-6.125V1.847ZM64.711 1.847h18.982v4.718h-6.428v13.022h-6.153V6.565h-6.4V1.847ZM84.521 1.847h15.01v4.332h-8.885v2.18h7.008v4.303h-7.008v2.621h9.601v4.304H84.521V1.847ZM104.299 1.847h12.746l3.422 3.421v2.18l-6.153.551V6.87l-.469-.47h-6.346l-.441.47v1.186l.441.469h9.657l3.421 3.393v4.277l-3.421 3.393h-5.766l-.469 1.049h1.793l1.628 1.628v1.351l-1.628 1.628h-5.077v-1.738h4.139l.386-.386v-.331l-.386-.414h-3.449l1.186-2.787h-5.6l-3.394-3.393v-2.18l6.125-.552v1.132l.469.469h6.842l.469-.47v-1.296l-.469-.47h-9.656l-3.394-3.393V5.268l3.394-3.421ZM121.407 1.847h15.009v4.332h-8.884v2.18h7.007v4.303h-7.007v2.621h9.601v4.304h-15.726V1.847ZM137.68 1.847h7.257l4.828 9.325 4.8-9.325h7.284v17.74h-6.152v-9.38l-4.967 9.38h-1.958l-4.967-9.38v9.38h-6.125V1.847ZM8.91 28.8h33.005l8.782 8.8v7.665l-15.794 1.42V42.71l-1.204-1.206H17.126l-1.204 1.206v17.886l1.204 1.206H33.7l1.204-1.206V56.62l15.794 1.42v7.665l-8.782 8.73H8.91l-8.712-8.73V37.6l8.712-8.8ZM53.525 28.8h15.723v32.15l1.204 1.207h16.573l1.203-1.206V28.799h15.794v36.907l-8.782 8.73H62.236l-8.711-8.73V28.799ZM106.85 28.8h18.627l12.394 23.989 12.324-23.99h18.697v45.637h-15.794V50.304L140.35 74.436h-5.028l-12.749-24.132v24.132H106.85V28.799ZM202.393 41.007l-6.445 15.97h13.457l-6.516-15.97h-.496Zm-9.703-12.208h19.972l21.318 45.637h-17.493l-2.55-6.175h-22.593l-2.549 6.175h-17.423l21.318-45.637Z"
    />
    <path
        fill="#ECEAF9"
        d="M260.736 105.594c30.161 0 54.611-2.383 54.611-5.323 0-2.94-24.45-5.323-54.611-5.323-30.161 0-54.611 2.384-54.611 5.323 0 2.94 24.45 5.323 54.611 5.323Z"
    />
    <path
        fill="#6D4AFF"
        d="M252.096 74.136s-10.695 6.154-20.653 11.49c-9.709 5.201-18.902 7.67-25.315 5.98-22.442-5.912-19.68-21.65-19.68-21.65s.422-4.26 4.697-5.278c4.274-1.02 7.9 3.293 10.717 8.947 2.817 5.65 8.98 9.471 15.718 7.959 7.544-1.694 16.162-7.136 16.162-7.136l16.132-5.96 2.222 5.651v-.003Z"
    />
    <mask id="a" width="67" height="29" x="186" y="64" maskUnits="userSpaceOnUse" style="mask-type: luminance">
        <path
            fill="#fff"
            d="M252.096 74.136s-10.695 6.154-20.653 11.49c-9.709 5.201-18.902 7.67-25.315 5.98-22.442-5.912-19.68-21.65-19.68-21.65s.422-4.26 4.697-5.278c4.274-1.02 7.9 3.293 10.717 8.947 2.817 5.65 8.98 9.471 15.718 7.959 7.544-1.694 16.162-7.136 16.162-7.136l16.132-5.96 2.222 5.651v-.003Z"
        />
    </mask>
    <g mask="url(#a)">
        <path
            fill="#4129A3"
            d="M196.164 45.512c-8.927 4.967-17.086 1.813-17.086 1.813s-1.621 8.596-10.548 13.563c0 0 8.193 18.226 28.702 19.066 10.1-17.87-1.068-34.442-1.068-34.442Z"
        />
    </g>
    <path
        stroke="#fff"
        stroke-miterlimit="10"
        stroke-width=".973"
        d="M252.096 74.136s-10.695 6.154-20.653 11.49c-9.709 5.201-18.902 7.67-25.315 5.98-22.442-5.912-19.68-21.65-19.68-21.65s.422-4.26 4.697-5.278c4.274-1.02 7.9 3.293 10.717 8.947 2.817 5.65 8.98 9.471 15.718 7.959 7.544-1.694 16.162-7.136 16.162-7.136l16.132-5.96 2.222 5.651v-.003Z"
    />
    <path
        fill="#4129A3"
        d="M249.63 82.373s-5.601 8.49-5.924 10.913c-.236 1.765-.055 2.8.481 3.846.457.89 1.193 1.587 2.184 1.451 1.29-.178 3.125-.926 4.952-3.367l5.354-7.17-6.171-7.625"
    />
    <path
        stroke="#fff"
        stroke-linecap="round"
        stroke-miterlimit="10"
        stroke-width=".973"
        d="M249.63 82.373s-5.601 8.49-5.924 10.913c-.236 1.765-.055 2.8.481 3.846.457.89 1.193 1.587 2.184 1.451 1.29-.178 3.125-.926 4.952-3.367l5.354-7.17-6.171-7.625"
    />
    <path
        fill="#6D4AFF"
        d="M245.739 92.382s-.639.781-.645 2.945c0 .717.49 1.315 1.176 1.52.687.207 1.435.846 1.889 1.761.862 1.744.475 3.829-.988 4.052-4.421.673-9.883-.234-9.883-.234s-1.819-.15-2.592-3.882c-.575-2.789-1.921-9.591-3.759-11.554"
    />
    <path
        fill="#6D4AFF"
        d="m233.626 90.685-4.706-6.47a19.656 19.656 0 0 1-2.044-19.584c2.981-6.657 7.367-12.03 15.382-14.33l9.761-2.163a9.992 9.992 0 0 0 7.13-6.088l4.193-10.631 20.02 7.89-6.655 43.264s-4.588.77-9.797 2.445c-4.647 1.493-11.846 3.963-19.041 4.569 0 0-1.206.862-2.127 2.797"
    />
    <mask id="b" width="25" height="24" x="230" y="79" maskUnits="userSpaceOnUse" style="mask-type: luminance">
        <path
            fill="#fff"
            d="M230.936 86.99c1.838 1.963 3.184 8.768 3.76 11.554.773 3.732 2.592 3.882 2.592 3.882s5.461.907 9.883.234c1.466-.222 1.852-2.308.987-4.052-.453-.918-1.184-1.549-1.888-1.76-.704-.212-1.182-.804-1.176-1.521.03-3.37 2.358-5.404 2.358-5.404s5.003 0 6.518-8.223c1.516-8.223-23.034 5.29-23.034 5.29Z"
        />
    </mask>
    <g mask="url(#b)">
        <path
            fill="#4129A3"
            d="M242.8 89.14s-4.686 5.072-10.209 4.134l-.915 8.073 11.163 6.082 12.105-2.311-7.636-12.227s-2.183.172-4.508-3.752Z"
        />
    </g>
    <path
        fill="#fff"
        d="M247.121 97.54c-1.012-.876-2.575-.534-3.748-.122l-.573.23.52-.341c1.24-.754 2.878-1.332 4.269-.61.061.037.108.06.194.129l-.664.712.002.002ZM253.392 69.581c1.794 3.426 2.267 7.536 1.265 11.285-.992 3.81-3.484 7.072-6.443 9.597l-.617-.754c1.485-1.165 2.842-2.491 3.985-3.99 3.576-4.5 4.302-10.951 1.81-16.138Z"
    />
    <path
        fill="#6D4AFF"
        d="m296.363 40.034 2.422 13.88a21.349 21.349 0 0 1-.879 10.714l-7.875 26.875-13.674-11.738-2.6-38.202 22.609-1.532-.003.003Z"
    />
    <path
        fill="#4129A3"
        d="m296.699 39.055-.32-.364-1.073-2.147a37.63 37.63 0 0 1-36.21-1.416v7.014c8.893 5.728 24.352 7.122 37.6-.192v-2.898l.003.003Z"
    />
    <path fill="#4129A3" d="m296.981 34.94-5.33-.21-.276 7.016 5.33.21.276-7.017Z" />
    <path
        fill="#6D4AFF"
        d="m269.58 6.888-6.196-3.607c-2.147-1.25-4.864.162-5.075 2.64l-.968 11.42 12.236-10.45.003-.003Z"
    />
    <path fill="#4A2DC5" d="m261.921 7.917 3.007 1.755-4.631 3.412.384-4.522a.826.826 0 0 1 1.24-.645Z" />
    <path
        fill="#6D4AFF"
        d="m285.197 5.948 6.032-3.873c2.091-1.344 4.866-.048 5.184 2.416l1.459 11.369-12.678-9.912h.003Z"
    />
    <path fill="#4A2DC5" d="m292.442 6.644-2.928 1.882 4.774 3.21-.578-4.503a.825.825 0 0 0-1.265-.59h-.003Z" />
    <path
        fill="#6D4AFF"
        d="M302.898 25.654c.492 11.36-12.811 15.993-24.057 16.48-9.884.428-24.901-2.979-25.393-14.339-.492-11.36 10.081-23.32 23.735-23.913 13.654-.592 25.22 10.412 25.712 21.772h.003Z"
    />
    <path
        fill="#fff"
        d="M295.039 16.026c1.733 3.287-.111 7.392-4.116 9.169-4.007 1.777-8.657.55-10.392-2.736-1.732-3.287.111-7.392 4.116-9.169 4.007-1.777 8.657-.55 10.392 2.736Z"
    />
    <path
        fill="#4129A3"
        d="M285.708 21.754c1.519-.104 2.613-2.193 2.445-4.668-.168-2.475-1.536-4.397-3.054-4.294-1.519.103-2.613 2.193-2.445 4.668.168 2.474 1.536 4.397 3.054 4.294Z"
    />
    <path fill="#fff" d="M287.197 15.807a1.04 1.04 0 1 0 0-2.08 1.04 1.04 0 0 0 0 2.08Z" opacity=".7" />
    <path
        fill="#372480"
        d="M280.081 18.312c.723-4.13 5.247-6.638 9.227-6.268 4.291.295 7.947 4.25 6.056 8.546.448-1.877.028-3.874-1.259-5.3-3.944-4.3-11.997-2.356-14.022 3.022h-.002Z"
    />
    <path
        fill="#fff"
        d="M257.257 17.42c-1.396 3.403.851 7.355 5.023 8.832 4.168 1.474 8.682-.086 10.078-3.49 1.396-3.404-.851-7.356-5.023-8.832-4.168-1.474-8.682.086-10.078 3.49Z"
    />
    <path
        fill="#4129A3"
        d="M263.437 22.134c1.511-.181 2.496-2.325 2.2-4.788-.297-2.462-1.762-4.311-3.273-4.13-1.511.182-2.496 2.326-2.2 4.789.297 2.462 1.762 4.311 3.273 4.13Z"
    />
    <path fill="#fff" d="M264.558 16.127a1.04 1.04 0 1 0 0-2.081 1.04 1.04 0 0 0 0 2.08Z" opacity=".7" />
    <path
        fill="#372480"
        d="M272.392 18.596c-2.501-5.1-10.66-6.627-14.264-2.002-1.159 1.538-1.362 3.57-.734 5.395-2.322-4.152.943-8.385 5.278-8.972 3.952-.622 8.596 1.563 9.72 5.579Z"
    />
    <path
        fill="#4129A3"
        d="M278.468 89.67s-.245 3.524-.44 4.497c-.194.973-1.048 3.788.907 5.142 1.282.89 7.019 2.316 9.235.044 2.219-2.271-2.339-8.145-2.339-8.145l-7.366-1.538h.003Z"
    />
    <path
        fill="#fff"
        d="m278.468 89.67 7.366 1.538s4.558 5.874 2.339 8.145c-.881.904-2.319 1.221-3.813 1.221-2.263 0-4.652-.731-5.422-1.268-1.955-1.354-1.102-4.171-.907-5.142.195-.97.439-4.496.439-4.496m-.895-1.177-.078 1.113c-.067.962-.272 3.626-.423 4.374-.016.083-.038.18-.063.292-.281 1.268-.943 4.238 1.37 5.843 1.004.695 3.646 1.44 5.979 1.44 2.011 0 3.527-.509 4.508-1.513 2.734-2.797-1.746-8.751-2.266-9.421l-.22-.284-.35-.072-7.367-1.538-1.093-.228.003-.006Z"
    />
    <path
        fill="#6D4AFF"
        d="M266.701 74.845s10.42 12.89 21.861 25.927c0 0 1.468 2.277 6.477 2.475 4.669.183 5.211-1.541 5.211-1.541s1.463-2.722-2.542-4.302c0 0-4.78-6.432-13.223-24.73"
    />
    <mask id="c" width="35" height="32" x="266" y="72" maskUnits="userSpaceOnUse" style="mask-type: luminance">
        <path
            fill="#fff"
            d="M266.701 74.845s11.766 14.828 21.86 25.927c0 0 1.469 2.277 6.477 2.475 4.669.183 5.212-1.541 5.212-1.541s1.462-2.722-2.542-4.302c0 0-4.781-6.432-13.223-24.73"
        />
    </mask>
    <g mask="url(#c)">
        <path
            fill="#4129A3"
            d="M289.276 88.914s-1.835 5.584-7.433 5.378l3.05 5.657 8.624 7.03 11.699-3.88-9.163-12.063s-4.013.706-6.774-2.122h-.003Z"
        />
    </g>
    <path
        fill="#fff"
        d="M291.574 87.045c-2.644-5.325-5.181-10.704-7.531-16.157 2.642 5.317 5.468 10.542 8.39 15.701l-.859.459v-.003ZM264.61 73.185c3.015 3.56 6.141 7.025 9.325 10.428l-.732.64c-2.947-3.626-5.828-7.305-8.593-11.068ZM297.962 97.451c-1.307-.344-2.717-.311-4.063-.2.67-.225 1.351-.417 2.047-.553.731-.136 1.44-.245 2.199-.203l-.183.956Z"
    />
    <path
        stroke="#fff"
        stroke-linecap="round"
        stroke-miterlimit="10"
        stroke-width=".695"
        d="M273.943 23.963a1.674 1.674 0 0 1 1.741 1.596M277.28 23.819a1.67 1.67 0 0 0-1.596 1.74"
    />
    <path
        stroke="#fff"
        stroke-linecap="round"
        stroke-miterlimit="10"
        stroke-width=".973"
        d="M247.452 97.184s1.608 1.255 1.594 4.019"
    />
    <path fill="#FC8F00" d="M281.725 54.773a5.445 5.445 0 1 0 0-10.89 5.445 5.445 0 0 0 0 10.89Z" />
    <path fill="#FC8F00" d="M283.755 43.883h-2.086V54.77h2.086V43.883Z" />
    <path fill="#FFAC2E" d="M283.755 54.773a5.445 5.445 0 1 0 0-10.89 5.445 5.445 0 0 0 0 10.89Z" />
    <path fill="#372580" d="M283.755 50.223a1.693 1.693 0 1 0 0-3.386 1.693 1.693 0 0 0 0 3.386Z" />
    <path
        stroke="#372580"
        stroke-linecap="round"
        stroke-miterlimit="10"
        stroke-width="1.574"
        d="M283.755 51.18v-2.65"
    />
    <path
        fill="#6D4AFF"
        d="M285.84 4.794 291.871.92c2.092-1.343 4.867-.047 5.184 2.417l1.46 11.368-12.678-9.91h.003ZM269.469 4.794 263.437.92c-2.091-1.343-4.867-.047-5.184 2.417l-1.46 11.368 12.679-9.91h-.003Z"
    />
    <path
        fill="#4A2DC5"
        d="m261.768 5.492 2.929 1.883-4.775 3.21.578-4.503a.826.826 0 0 1 1.266-.59h.002ZM293.084 5.492l-2.928 1.883 4.775 3.21-.579-4.503a.825.825 0 0 0-1.265-.59h-.003Z"
    />
    <path
        fill="#6D4AFF"
        d="M302.678 26.622c0 11.602-13.768 15.737-25.253 15.737-10.095 0-25.254-4.135-25.254-15.737s11.308-23.33 25.254-23.33c13.946 0 25.253 11.728 25.253 23.33Z"
    />
    <path
        fill="#fff"
        d="M289.808 30.407c4.175-1.801 6.265-6.266 4.666-9.972-1.598-3.706-6.279-5.25-10.455-3.45-4.176 1.801-6.265 6.266-4.667 9.972 1.599 3.706 6.28 5.25 10.456 3.45ZM271 26.952c1.598-3.707-.491-8.171-4.667-9.972-4.176-1.801-8.857-.256-10.455 3.45-1.599 3.706.491 8.17 4.666 9.971 4.176 1.801 8.857.257 10.456-3.45Z"
    />
    <path
        fill="#4129A3"
        d="M285.03 27.506c1.522 0 2.756-2.01 2.756-4.491 0-2.48-1.234-4.491-2.756-4.491-1.522 0-2.756 2.01-2.756 4.49 0 2.481 1.234 4.492 2.756 4.492Z"
    />
    <path
        fill="#372480"
        d="M271.249 22.35c-2.295-5.576-10.687-7.706-14.461-2.572-1.176 1.63-1.463 3.737-1.007 5.715-1.604-3.01-.392-6.875 2.498-8.632 4.719-3.084 12.033-.109 12.97 5.492v-.003ZM279.105 22.35c.937-5.6 8.251-8.573 12.97-5.492 2.889 1.757 4.102 5.626 2.497 8.632.459-1.975.17-4.085-1.006-5.715-3.774-5.133-12.167-3.003-14.461 2.572v.003Z"
    />
    <path
        stroke="#fff"
        stroke-linecap="round"
        stroke-miterlimit="10"
        stroke-width=".695"
        d="M272.647 30.231c.924 0 1.669.748 1.669 1.669M275.987 30.231c-.923 0-1.668.748-1.668 1.669"
    />
    <path fill="#fff" d="M286.71 21.121a1.04 1.04 0 1 0 .001-2.08 1.04 1.04 0 0 0-.001 2.08Z" opacity=".7" />
    <path
        fill="#4129A3"
        d="M261.268 27.506c1.522 0 2.755-2.01 2.755-4.491 0-2.48-1.233-4.491-2.755-4.491-1.522 0-2.756 2.01-2.756 4.49 0 2.481 1.234 4.492 2.756 4.492Z"
    />
    <path fill="#fff" d="M262.95 21.121a1.04 1.04 0 1 0 0-2.08 1.04 1.04 0 0 0 0 2.08Z" opacity=".7" />
    <path
        fill="#fff"
        d="M293.732.976c1.616 0 3.134 1.17 3.365 2.956l1.404 10.938c2.664 3.729 4.216 8.045 4.216 12.344 0 4.836-2.394 8.37-6.018 10.854v3.888l2.086 11.96a21.36 21.36 0 0 1-.879 10.715l-6.482 22.122c4.074 7.67 6.287 10.648 6.287 10.648 4.005 1.583 2.542 4.302 2.542 4.302s-.489 1.555-4.538 1.555c-.214 0-.44-.006-.676-.014-5.008-.197-6.477-2.475-6.477-2.475-5.609-6.39-10.97-12.745-14.98-17.562a79.91 79.91 0 0 0-6.675 1.81c-4.647 1.494-11.958 3.964-19.152 4.57 0 0-2.692 2.038-2.661 5.74.005.717.489 1.315 1.176 1.52.704.215 1.435.846 1.888 1.761.863 1.744.476 3.829-.987 4.052-1.198.183-2.472.25-3.693.25-3.287 0-6.19-.481-6.19-.481s-1.819-.15-2.592-3.882c-.514-2.492-1.646-8.19-3.192-10.776l-.568-.781-2.019-2.776a19.656 19.656 0 0 1-2.044-19.583c2.982-6.657 7.367-12.03 15.382-14.33l9.761-2.163a9.98 9.98 0 0 0 7.085-5.988s-.002 0-.005-.003v-3.79c-4.044-2.494-6.889-6.118-6.889-11.143 0-4.586 1.769-9.194 4.767-13.087l1.31-10.198c.228-1.785 1.749-2.956 3.365-2.956.614 0 1.243.17 1.818.54l5.832 3.743a25.035 25.035 0 0 1 8.162-1.374c2.856 0 5.812.531 8.454 1.48l5.993-3.846a3.344 3.344 0 0 1 1.818-.54m.006-.973c-.826 0-1.638.239-2.344.695l-5.596 3.59a25.922 25.922 0 0 0-8.326-1.376c-2.822 0-5.417.428-8.028 1.276l-5.439-3.49a4.345 4.345 0 0 0-2.345-.695 4.376 4.376 0 0 0-4.33 3.804l-1.276 9.939c-3.101 4.113-4.808 8.885-4.808 13.468s2.377 8.735 6.888 11.677v3.076a9.015 9.015 0 0 1-6.318 5.22l-9.761 2.163-.028.005-.028.009c-7.316 2.097-12.4 6.822-16.001 14.867a20.675 20.675 0 0 0 2.144 20.553l2.019 2.776.542.745c1.388 2.353 2.467 7.586 2.987 10.106l.067.328c.845 4.085 2.956 4.586 3.403 4.647.284.047 3.107.492 6.333.492 1.415 0 2.705-.086 3.837-.261.809-.123 1.474-.612 1.872-1.377.578-1.11.514-2.709-.159-4.068-.55-1.113-1.479-1.958-2.48-2.261-.292-.09-.481-.323-.484-.598-.022-2.628 1.521-4.277 2.08-4.789 6.777-.62 13.64-2.836 18.204-4.308l.853-.275a76.906 76.906 0 0 1 6.013-1.654 891.972 891.972 0 0 0 14.586 17.088c.339.459 2.219 2.645 7.199 2.839.242.009.484.014.712.014 4.216 0 5.215-1.61 5.429-2.135.147-.306.611-1.446.128-2.773-.42-1.146-1.405-2.058-2.931-2.717-.551-.787-2.592-3.815-5.874-9.961l6.366-21.716a22.342 22.342 0 0 0 .909-11.182l-2.072-11.872v-3.304c3.994-2.895 6.018-6.715 6.018-11.357 0-4.344-1.471-8.732-4.255-12.709l-1.373-10.698A4.371 4.371 0 0 0 293.735 0l-.003.003Z"
    />
</svg>
