<svg xmlns="http://www.w3.org/2000/svg" width="300" height="106" fill="none">
    <path
        fill="#251B4E"
        d="M3.984 4.847h13.87l3.69 3.69v3.215l-6.637.595V10.68l-.506-.506H7.437l-.506.506v7.5l.506.506H14.4l.506-.506v-1.666l6.637.595v3.214l-3.69 3.661H3.983l-3.66-3.66V8.536l3.66-3.69ZM22.672 4.847h18.542v.238l-8.69 13.601h9.404v5.298h-19.97v-.208l8.66-13.602h-7.945V4.847ZM55.295 9.966l-2.708 6.697h5.655l-2.738-6.697h-.209Zm-4.077-5.12h8.393l8.958 19.138h-7.351l-1.072-2.59h-9.493l-1.072 2.59H42.26l8.958-19.137ZM76.22 9.996v4.553h6.488l.506-.476v-3.571l-.506-.506H76.22Zm-6.607-5.15H86.16l3.69 3.691v6.102l-3.422 3.422 6.25 5.923h-8.184l-4.673-4.881H76.22v4.881h-6.607V4.847Z"
    />
    <path
        fill="#251B4E"
        d="M92.225 4.847h7.32l5.299 9.107V4.847h6.636v19.137h-6.636l-6.012-10.268v10.268h-6.607V4.847ZM112.359 4.847h7.262l4.345 8.482 4.345-8.482h7.292l-8.304 12.768v6.369h-6.636v-6.37l-8.304-12.767ZM13.042 42.724v8.281H25.85l1-.94v-6.343l-1-.998H13.042ZM0 32.563h32.664l7.285 7.283v14.037l-7.285 7.283H13.042v9.163H0V32.563ZM42.283 32.563h13.042v37.766H42.283V32.563ZM83.097 42.665 77.751 55.88h11.162l-5.405-13.215h-.41ZM75.05 32.563h16.567l17.683 37.766h-5.698v1.762l1.645 1.645h5.757v3.7h-8.577l-3.467-3.465v-3.642h-4.17l-2.116-5.11h-18.74l-2.116 5.11H57.365L75.05 32.563ZM101.363 32.563h40.419v10.043h-13.689V70.33h-13.101V42.606h-13.629V32.563ZM143.545 32.563h31.959v9.221h-18.917v4.64h14.922v9.163h-14.922v5.58h20.445v9.162h-33.487V32.563ZM178.198 32.563h13.042V47.01h.352l11.809-14.448h14.687L203.46 50.829l15.627 19.5H204.4l-12.808-15.623h-.352v15.623h-13.042V32.563Z"
    />
    <path
        fill="#ECEAF9"
        d="M245.289 105.594c30.162 0 54.612-2.383 54.612-5.323 0-2.94-24.45-5.323-54.612-5.323-30.161 0-54.611 2.384-54.611 5.323 0 2.94 24.45 5.323 54.611 5.323Z"
    />
    <path
        fill="#6D4AFF"
        d="M236.65 74.136s-10.696 6.154-20.654 11.49c-9.708 5.201-18.902 7.67-25.315 5.98-22.442-5.912-19.68-21.65-19.68-21.65s.422-4.26 4.697-5.278c4.274-1.02 7.9 3.293 10.717 8.947 2.817 5.65 8.98 9.471 15.718 7.959 7.545-1.694 16.163-7.136 16.163-7.136l16.132-5.96 2.222 5.651v-.003Z"
    />
    <mask id="a" width="67" height="29" x="170" y="64" maskUnits="userSpaceOnUse" style="mask-type: luminance">
        <path
            fill="#fff"
            d="M236.65 74.136s-10.696 6.154-20.654 11.49c-9.708 5.201-18.902 7.67-25.315 5.98-22.442-5.912-19.68-21.65-19.68-21.65s.422-4.26 4.697-5.278c4.274-1.02 7.9 3.293 10.717 8.947 2.817 5.65 8.98 9.471 15.718 7.959 7.545-1.694 16.163-7.136 16.163-7.136l16.132-5.96 2.222 5.651v-.003Z"
        />
    </mask>
    <g mask="url(#a)">
        <path
            fill="#4129A3"
            d="M180.717 45.512c-8.927 4.967-17.086 1.813-17.086 1.813s-1.621 8.596-10.548 13.563c0 0 8.193 18.226 28.702 19.066 10.1-17.87-1.068-34.442-1.068-34.442Z"
        />
    </g>
    <path
        stroke="#fff"
        stroke-miterlimit="10"
        stroke-width=".973"
        d="M236.65 74.136s-10.696 6.154-20.654 11.49c-9.708 5.201-18.902 7.67-25.315 5.98-22.442-5.912-19.68-21.65-19.68-21.65s.422-4.26 4.697-5.278c4.274-1.02 7.9 3.293 10.717 8.947 2.817 5.65 8.98 9.471 15.718 7.959 7.545-1.694 16.163-7.136 16.163-7.136l16.132-5.96 2.222 5.651v-.003Z"
    />
    <path
        fill="#4129A3"
        d="M234.183 82.373s-5.601 8.49-5.924 10.913c-.236 1.765-.055 2.8.481 3.846.457.89 1.193 1.587 2.183 1.451 1.291-.178 3.126-.926 4.953-3.367l5.354-7.17-6.171-7.625"
    />
    <path
        stroke="#fff"
        stroke-linecap="round"
        stroke-miterlimit="10"
        stroke-width=".973"
        d="M234.183 82.373s-5.601 8.49-5.924 10.913c-.236 1.765-.055 2.8.481 3.846.457.89 1.193 1.587 2.183 1.451 1.291-.178 3.126-.926 4.953-3.367l5.354-7.17-6.171-7.625"
    />
    <path
        fill="#6D4AFF"
        d="M230.292 92.382s-.639.781-.645 2.945c0 .717.49 1.315 1.176 1.52.687.207 1.435.846 1.889 1.761.862 1.744.475 3.829-.988 4.052-4.421.673-9.883-.234-9.883-.234s-1.819-.15-2.592-3.882c-.575-2.789-1.921-9.591-3.759-11.554"
    />
    <path
        fill="#6D4AFF"
        d="m218.179 90.685-4.705-6.47a19.653 19.653 0 0 1-2.044-19.584c2.981-6.657 7.366-12.03 15.381-14.33l9.761-2.163a9.99 9.99 0 0 0 7.13-6.088l4.194-10.631 20.02 7.89-6.655 43.264s-4.589.77-9.797 2.445c-4.647 1.493-11.847 3.963-19.041 4.569 0 0-1.207.862-2.128 2.797"
    />
    <mask id="b" width="24" height="24" x="215" y="79" maskUnits="userSpaceOnUse" style="mask-type: luminance">
        <path
            fill="#fff"
            d="M215.489 86.99c1.838 1.963 3.184 8.768 3.76 11.554.773 3.732 2.592 3.882 2.592 3.882s5.462.907 9.883.234c1.466-.222 1.852-2.308.987-4.052-.453-.918-1.184-1.549-1.888-1.76-.703-.212-1.182-.804-1.176-1.521.03-3.37 2.358-5.404 2.358-5.404s5.003 0 6.519-8.223c1.515-8.223-23.035 5.29-23.035 5.29Z"
        />
    </mask>
    <g mask="url(#b)">
        <path
            fill="#4129A3"
            d="M227.353 89.14s-4.686 5.072-10.209 4.134l-.915 8.073 11.163 6.082 12.105-2.311-7.636-12.227s-2.183.172-4.508-3.752Z"
        />
    </g>
    <path
        fill="#fff"
        d="M231.675 97.54c-1.013-.876-2.576-.534-3.749-.122l-.573.23.52-.341c1.24-.754 2.878-1.332 4.269-.61.061.037.108.06.194.129l-.664.712.003.002ZM237.946 69.581c1.793 3.426 2.266 7.536 1.265 11.285-.993 3.81-3.485 7.072-6.443 9.597l-.618-.754c1.485-1.165 2.842-2.491 3.985-3.99 3.576-4.5 4.302-10.951 1.811-16.138Z"
    />
    <path
        fill="#6D4AFF"
        d="m280.916 40.034 2.422 13.88a21.349 21.349 0 0 1-.879 10.714l-7.875 26.875-13.674-11.738-2.6-38.202 22.609-1.532-.003.003Z"
    />
    <path
        fill="#4129A3"
        d="m281.253 39.055-.32-.364-1.074-2.147a37.63 37.63 0 0 1-36.21-1.416v7.014c8.894 5.728 24.353 7.122 37.601-.192v-2.898l.003.003Z"
    />
    <path fill="#4129A3" d="m281.534 34.94-5.33-.21-.276 7.016 5.33.21.276-7.017Z" />
    <path
        fill="#6D4AFF"
        d="m254.133 6.888-6.196-3.607c-2.147-1.25-4.864.162-5.075 2.64l-.968 11.42 12.236-10.45.003-.003Z"
    />
    <path fill="#4A2DC5" d="m246.474 7.917 3.007 1.755-4.631 3.412.384-4.522a.826.826 0 0 1 1.24-.645Z" />
    <path
        fill="#6D4AFF"
        d="m269.751 5.948 6.031-3.873c2.092-1.344 4.867-.048 5.184 2.416l1.46 11.369-12.678-9.912h.003Z"
    />
    <path fill="#4A2DC5" d="m276.995 6.644-2.928 1.882 4.775 3.21-.579-4.503a.825.825 0 0 0-1.265-.59h-.003Z" />
    <path
        fill="#6D4AFF"
        d="M287.451 25.654c.492 11.36-12.811 15.993-24.057 16.48-9.884.428-24.901-2.979-25.393-14.339-.492-11.36 10.081-23.32 23.735-23.913 13.654-.592 25.22 10.412 25.712 21.772h.003Z"
    />
    <path
        fill="#fff"
        d="M279.592 16.026c1.733 3.287-.111 7.392-4.115 9.169-4.008 1.777-8.657.55-10.393-2.736-1.732-3.287.112-7.392 4.116-9.169 4.007-1.777 8.657-.55 10.392 2.736Z"
    />
    <path
        fill="#4129A3"
        d="M270.261 21.754c1.519-.104 2.613-2.193 2.445-4.668-.168-2.475-1.536-4.397-3.054-4.294-1.519.103-2.613 2.193-2.445 4.668.168 2.474 1.535 4.397 3.054 4.294Z"
    />
    <path fill="#fff" d="M271.75 15.807a1.04 1.04 0 1 0 0-2.08 1.04 1.04 0 0 0 0 2.08Z" opacity=".7" />
    <path
        fill="#372480"
        d="M264.634 18.312c.723-4.13 5.248-6.638 9.227-6.268 4.291.295 7.948 4.25 6.057 8.546.448-1.877.028-3.874-1.26-5.3-3.943-4.3-11.997-2.356-14.021 3.022h-.003Z"
    />
    <path
        fill="#fff"
        d="M241.811 17.42c-1.396 3.403.851 7.355 5.022 8.832 4.169 1.474 8.682-.086 10.078-3.49 1.396-3.404-.851-7.356-5.022-8.832-4.169-1.474-8.682.086-10.078 3.49Z"
    />
    <path
        fill="#4129A3"
        d="M247.99 22.134c1.512-.181 2.496-2.325 2.2-4.788-.296-2.462-1.761-4.311-3.272-4.13-1.512.182-2.496 2.326-2.2 4.789.296 2.462 1.761 4.311 3.272 4.13Z"
    />
    <path fill="#fff" d="M249.111 16.127a1.04 1.04 0 1 0 0-2.081 1.04 1.04 0 0 0 0 2.08Z" opacity=".7" />
    <path
        fill="#372480"
        d="M256.944 18.596c-2.5-5.1-10.659-6.627-14.263-2.002-1.159 1.538-1.362 3.57-.734 5.395-2.322-4.152.943-8.385 5.278-8.972 3.952-.622 8.596 1.563 9.719 5.579Z"
    />
    <path
        fill="#4129A3"
        d="M263.021 89.67s-.245 3.524-.44 4.497c-.194.973-1.048 3.788.907 5.142 1.282.89 7.019 2.316 9.235.044 2.22-2.271-2.338-8.145-2.338-8.145l-7.367-1.538h.003Z"
    />
    <path
        fill="#fff"
        d="m263.021 89.67 7.367 1.538s4.557 5.874 2.338 8.145c-.881.904-2.319 1.221-3.812 1.221-2.264 0-4.653-.731-5.423-1.268-1.955-1.354-1.101-4.171-.907-5.142.195-.97.44-4.496.44-4.496m-.896-1.177-.078 1.113c-.066.962-.272 3.626-.422 4.374-.017.083-.039.18-.064.292-.281 1.268-.943 4.238 1.371 5.843 1.004.695 3.645 1.44 5.979 1.44 2.01 0 3.526-.509 4.508-1.513 2.733-2.797-1.747-8.751-2.267-9.421l-.22-.284-.35-.072-7.367-1.538-1.093-.228.003-.006Z"
    />
    <path
        fill="#6D4AFF"
        d="M251.255 74.845s10.42 12.89 21.86 25.927c0 0 1.469 2.277 6.477 2.475 4.669.183 5.212-1.541 5.212-1.541s1.462-2.722-2.542-4.302c0 0-4.781-6.432-13.223-24.73"
    />
    <mask id="c" width="35" height="32" x="251" y="72" maskUnits="userSpaceOnUse" style="mask-type: luminance">
        <path
            fill="#fff"
            d="M251.254 74.845s11.766 14.828 21.861 25.927c0 0 1.468 2.277 6.477 2.475 4.669.183 5.211-1.541 5.211-1.541s1.463-2.722-2.542-4.302c0 0-4.78-6.432-13.223-24.73"
        />
    </mask>
    <g mask="url(#c)">
        <path
            fill="#4129A3"
            d="M273.83 88.914s-1.836 5.584-7.434 5.378l3.051 5.657 8.623 7.03 11.7-3.88-9.163-12.063s-4.013.706-6.775-2.122h-.002Z"
        />
    </g>
    <path
        fill="#fff"
        d="M276.128 87.045c-2.645-5.325-5.181-10.704-7.531-16.157 2.642 5.317 5.467 10.542 8.39 15.701l-.859.459v-.003ZM249.164 73.185c3.014 3.56 6.14 7.025 9.324 10.428l-.731.64c-2.948-3.626-5.829-7.305-8.593-11.068ZM282.515 97.451c-1.307-.344-2.717-.311-4.063-.2.67-.225 1.352-.417 2.047-.553.731-.136 1.44-.245 2.2-.203l-.184.956Z"
    />
    <path
        stroke="#fff"
        stroke-linecap="round"
        stroke-miterlimit="10"
        stroke-width=".695"
        d="M258.496 23.963a1.673 1.673 0 0 1 1.741 1.596M261.833 23.819c-.92.038-1.635.82-1.596 1.74"
    />
    <path
        stroke="#fff"
        stroke-linecap="round"
        stroke-miterlimit="10"
        stroke-width=".973"
        d="M232.006 97.184s1.607 1.255 1.593 4.019"
    />
    <path fill="#FC8F00" d="M266.278 54.773a5.445 5.445 0 1 0 0-10.89 5.445 5.445 0 0 0 0 10.89Z" />
    <path fill="#FC8F00" d="M268.308 43.883h-2.085V54.77h2.085V43.883Z" />
    <path fill="#FFAC2E" d="M268.308 54.773a5.444 5.444 0 1 0 0-10.89 5.445 5.445 0 0 0 0 10.89Z" />
    <path fill="#372580" d="M268.308 50.223a1.693 1.693 0 1 0 0-3.386 1.693 1.693 0 0 0 0 3.386Z" />
    <path
        stroke="#372580"
        stroke-linecap="round"
        stroke-miterlimit="10"
        stroke-width="1.574"
        d="M268.308 51.18v-2.65"
    />
    <path
        fill="#6D4AFF"
        d="M270.393 4.794 276.425.92c2.091-1.343 4.866-.047 5.183 2.417l1.46 11.368-12.678-9.91h.003ZM254.022 4.794 247.99.92c-2.091-1.343-4.866-.047-5.183 2.417l-1.46 11.368 12.678-9.91h-.003Z"
    />
    <path
        fill="#4A2DC5"
        d="m246.322 5.492 2.928 1.883-4.775 3.21.579-4.503a.825.825 0 0 1 1.265-.59h.003ZM277.637 5.492l-2.928 1.883 4.775 3.21-.579-4.503a.825.825 0 0 0-1.265-.59h-.003Z"
    />
    <path
        fill="#6D4AFF"
        d="M287.231 26.622c0 11.602-13.768 15.737-25.253 15.737-10.095 0-25.253-4.135-25.253-15.737s11.307-23.33 25.253-23.33 25.253 11.728 25.253 23.33Z"
    />
    <path
        fill="#fff"
        d="M274.361 30.407c4.176-1.801 6.265-6.266 4.667-9.972-1.599-3.706-6.28-5.25-10.456-3.45-4.176 1.801-6.265 6.266-4.667 9.972 1.599 3.706 6.28 5.25 10.456 3.45ZM255.553 26.952c1.598-3.707-.491-8.171-4.667-9.972-4.176-1.801-8.857-.256-10.455 3.45-1.599 3.706.491 8.17 4.666 9.971 4.176 1.801 8.857.257 10.456-3.45Z"
    />
    <path
        fill="#4129A3"
        d="M269.584 27.506c1.522 0 2.755-2.01 2.755-4.491 0-2.48-1.233-4.491-2.755-4.491-1.523 0-2.756 2.01-2.756 4.49 0 2.481 1.233 4.492 2.756 4.492Z"
    />
    <path
        fill="#372480"
        d="M255.802 22.35c-2.295-5.576-10.687-7.706-14.461-2.572-1.176 1.63-1.463 3.737-1.007 5.715-1.604-3.01-.392-6.875 2.498-8.632 4.719-3.084 12.033-.109 12.97 5.492v-.003ZM263.658 22.35c.937-5.6 8.251-8.573 12.97-5.492 2.89 1.757 4.102 5.626 2.498 8.632.458-1.975.169-4.085-1.007-5.715-3.774-5.133-12.167-3.003-14.461 2.572v.003Z"
    />
    <path
        stroke="#fff"
        stroke-linecap="round"
        stroke-miterlimit="10"
        stroke-width=".695"
        d="M257.201 30.231c.923 0 1.668.748 1.668 1.669M260.54 30.231c-.923 0-1.668.748-1.668 1.669"
    />
    <path fill="#fff" d="M271.264 21.121a1.04 1.04 0 1 0 0-2.08 1.04 1.04 0 0 0 0 2.08Z" opacity=".7" />
    <path
        fill="#4129A3"
        d="M245.821 27.506c1.522 0 2.756-2.01 2.756-4.491 0-2.48-1.234-4.491-2.756-4.491-1.522 0-2.756 2.01-2.756 4.49 0 2.481 1.234 4.492 2.756 4.492Z"
    />
    <path fill="#fff" d="M247.504 21.121a1.04 1.04 0 1 0 0-2.08 1.04 1.04 0 0 0 0 2.08Z" opacity=".7" />
    <path
        fill="#fff"
        d="M278.285.976c1.616 0 3.135 1.17 3.365 2.956l1.405 10.938c2.664 3.729 4.216 8.045 4.216 12.344 0 4.836-2.395 8.37-6.018 10.854v3.888l2.085 11.96a21.36 21.36 0 0 1-.878 10.715l-6.483 22.122c4.074 7.67 6.288 10.648 6.288 10.648 4.004 1.583 2.542 4.302 2.542 4.302s-.49 1.555-4.539 1.555c-.214 0-.439-.006-.676-.014-5.008-.197-6.476-2.475-6.476-2.475-5.609-6.39-10.971-12.745-14.981-17.562a79.797 79.797 0 0 0-6.674 1.81c-4.647 1.494-11.958 3.964-19.152 4.57 0 0-2.692 2.038-2.662 5.74.006.717.49 1.315 1.177 1.52.703.215 1.435.846 1.888 1.761.862 1.744.475 3.829-.987 4.052-1.199.183-2.473.25-3.693.25-3.287 0-6.191-.481-6.191-.481s-1.818-.15-2.591-3.882c-.515-2.492-1.647-8.19-3.193-10.776l-.567-.781-2.019-2.776a19.653 19.653 0 0 1-2.044-19.583c2.981-6.657 7.366-12.03 15.381-14.33l9.761-2.163a9.983 9.983 0 0 0 7.086-5.988s-.003 0-.006-.003v-3.79c-4.043-2.494-6.888-6.118-6.888-11.143 0-4.586 1.769-9.194 4.766-13.087l1.31-10.198c.228-1.785 1.749-2.956 3.365-2.956.615 0 1.243.17 1.819.54l5.831 3.743a25.04 25.04 0 0 1 8.162-1.374c2.856 0 5.812.531 8.454 1.48l5.993-3.846a3.348 3.348 0 0 1 1.819-.54m.005-.973c-.825 0-1.638.239-2.344.695l-5.595 3.59a25.927 25.927 0 0 0-8.326-1.376c-2.823 0-5.417.428-8.029 1.276l-5.439-3.49a4.34 4.34 0 0 0-2.344-.695 4.375 4.375 0 0 0-4.33 3.804l-1.277 9.939c-3.1 4.113-4.808 8.885-4.808 13.468s2.378 8.735 6.888 11.677v3.076a9.013 9.013 0 0 1-6.318 5.22l-9.761 2.163-.028.005-.027.009c-7.317 2.097-12.4 6.822-16.002 14.867a20.678 20.678 0 0 0 2.144 20.553l2.019 2.776.543.745c1.387 2.353 2.466 7.586 2.986 10.106l.067.328c.845 4.085 2.956 4.586 3.404 4.647.284.047 3.106.492 6.332.492 1.415 0 2.706-.086 3.838-.261.809-.123 1.474-.612 1.871-1.377.579-1.11.515-2.709-.158-4.068-.551-1.113-1.48-1.958-2.481-2.261-.292-.09-.481-.323-.484-.598-.022-2.628 1.521-4.277 2.08-4.789 6.777-.62 13.641-2.836 18.204-4.308l.854-.275a76.758 76.758 0 0 1 6.012-1.654 899.23 899.23 0 0 0 14.586 17.088c.339.459 2.219 2.645 7.2 2.839.242.009.484.014.712.014 4.216 0 5.214-1.61 5.428-2.135.148-.306.612-1.446.128-2.773-.42-1.146-1.404-2.058-2.931-2.717-.551-.787-2.592-3.815-5.873-9.961l6.365-21.716a22.343 22.343 0 0 0 .91-11.182l-2.072-11.872v-3.304c3.993-2.895 6.018-6.715 6.018-11.357 0-4.344-1.471-8.732-4.255-12.709l-1.374-10.698A4.37 4.37 0 0 0 278.288 0l-.003.003Z"
    />
</svg>
