<svg width="97" height="24" viewBox="0 0 97 24" fill="none" xmlns="http://www.w3.org/2000/svg">
    <path
        d="M1.52734 17.4758V23.6285H5.84606V17.7421C5.84606 17.1694 6.07357 16.6201 6.47853 16.2152C6.88348 15.8102 7.43272 15.5827 8.00542 15.5827H12.4336C14.4993 15.5821 16.4803 14.7611 17.9408 13.3002C19.4014 11.8393 20.2219 9.85819 20.2221 7.79244C20.2221 5.72638 19.4014 3.74493 17.9406 2.28389C16.4798 0.822859 14.4985 0.00190069 12.4324 0.00158691L1.52734 0.00158691V7.69246H5.84606V4.06651H12.1413C13.1188 4.06651 14.0562 4.45472 14.7475 5.14578C15.4388 5.83684 15.8273 6.77416 15.8276 7.75162C15.8276 8.72928 15.4393 9.6669 14.7479 10.3582C14.0566 11.0495 13.119 11.4379 12.1413 11.4379H7.56468C6.77168 11.4375 5.98639 11.5934 5.25369 11.8967C4.521 12.2 3.85527 12.6448 3.29456 13.2055C2.73386 13.7663 2.28918 14.4321 1.98595 15.1648C1.68272 15.8975 1.52688 16.6828 1.52734 17.4758Z"
        fill="white"
    />
    <path
        d="M8.00424 15.5828C6.28651 15.5829 4.63917 16.2654 3.42456 17.48C2.20994 18.6946 1.5275 20.3419 1.52734 22.0597L1.52734 23.6286H5.84606V17.7421C5.84606 17.1696 6.0734 16.6206 6.47811 16.2156C6.88281 15.8107 7.43175 15.5831 8.00424 15.5828Z"
        fill="white"
    />
    <path
        d="M20.8918 23.629V14.2556C20.8918 10.4315 23.1252 7.38592 27.5924 7.38592C28.3094 7.37547 29.0249 7.45497 29.7221 7.62256V11.4786C29.2145 11.4449 28.7756 11.4449 28.5715 11.4449C26.2051 11.4449 25.1875 12.5276 25.1875 14.7272V23.629H20.8918Z"
        fill="white"
    />
    <path
        d="M31.0095 15.6792C31.0095 10.9753 34.5627 7.38843 39.5038 7.38843C44.4449 7.38843 47.9975 10.973 47.9975 15.6792C47.9975 20.3854 44.4443 24.0013 39.5038 24.0013C34.5633 24.0013 31.0095 20.3807 31.0095 15.6792ZM43.7681 15.6792C43.7681 13.0057 41.9743 11.1108 39.5044 11.1108C37.0344 11.1108 35.2401 13.0039 35.2401 15.6792C35.2401 18.3864 37.0338 20.2476 39.5044 20.2476C41.9749 20.2476 43.7681 18.384 43.7681 15.6792Z"
        fill="white"
    />
    <path
        d="M61.7356 15.6792C61.7356 10.9753 65.2888 7.38843 70.2299 7.38843C75.171 7.38843 78.7235 10.973 78.7235 15.6792C78.7235 20.3854 75.1704 24.0037 70.2299 24.0037C65.2894 24.0037 61.7356 20.3807 61.7356 15.6792ZM74.4936 15.6792C74.4936 13.0057 72.6998 11.1108 70.2299 11.1108C67.7599 11.1108 65.9656 13.0039 65.9656 15.6792C65.9656 18.3864 67.7593 20.2476 70.2299 20.2476C72.7004 20.2476 74.4936 18.384 74.4936 15.6792Z"
        fill="white"
    />
    <path
        d="M80.9568 23.6291V14.5941C80.9568 10.3978 83.6303 7.38599 88.4015 7.38599C93.1391 7.38599 95.8126 10.3978 95.8126 14.5941V23.6291H91.5489V14.9325C91.5489 12.598 90.4994 11.1427 88.4015 11.1427C86.3037 11.1427 85.2542 12.598 85.2542 14.9325V23.6291H80.9568Z"
        fill="white"
    />
    <path
        d="M60.4513 11.1421H55.8143V17.0641C55.8143 19.1282 56.5585 20.0759 58.6907 20.0759C58.8936 20.0759 59.4006 20.0759 60.0443 20.0422V23.528C59.1646 23.7646 58.3878 23.9001 57.54 23.9001C53.9531 23.9024 51.5181 21.7342 51.5181 17.6397V11.1421H48.6399V7.7244H49.3575C49.6414 7.72456 49.9225 7.66874 50.1848 7.56014C50.447 7.45155 50.6853 7.2923 50.886 7.09152C51.0867 6.89074 51.2458 6.65236 51.3543 6.39003C51.4627 6.12769 51.5184 5.84654 51.5181 5.56267V2.34375H55.8155V7.7244H60.4513V11.1421Z"
        fill="white"
    />
</svg>
