<svg xmlns="http://www.w3.org/2000/svg" width="48" height="48" fill="none">
    <g clip-path="url(#a)">
        <path
            fill="#D783FF"
            fill-opacity=".5"
            d="M5.531 1.267a.5.5 0 0 1 .938 0l.802 2.167a.5.5 0 0 0 .295.295l2.167.802a.5.5 0 0 1 0 .938l-2.167.802a.5.5 0 0 0-.295.295l-.802 2.167a.5.5 0 0 1-.938 0L4.73 6.566a.5.5 0 0 0-.295-.295l-2.167-.802a.5.5 0 0 1 0-.938l2.167-.802a.5.5 0 0 0 .295-.295l.802-2.167Z"
        />
        <g filter="url(#b)" opacity=".8">
            <ellipse cx="24" cy="43.5" fill="#6D4AFF" fill-opacity=".3" rx="18" ry="1.5" />
        </g>
        <path
            fill="#D783FF"
            fill-opacity=".5"
            d="M44.531 3.267a.5.5 0 0 1 .938 0l.261.707a.5.5 0 0 0 .296.296l.707.261a.5.5 0 0 1 0 .938l-.707.261a.5.5 0 0 0-.296.296l-.261.707a.5.5 0 0 1-.938 0l-.261-.707a.5.5 0 0 0-.296-.296l-.707-.261a.5.5 0 0 1 0-.938l.707-.261a.5.5 0 0 0 .296-.296l.261-.707Z"
        />
        <path
            fill="url(#c)"
            d="M2.136 13.942a1.3 1.3 0 0 1 .918-1.59l8.093-2.17a2.599 2.599 0 0 1 1.527.057c.492.171 1.23 1.38 1.88 1.671.651.291 1.025.191 1.528.056l20.799-5.573a1.299 1.299 0 0 1 1.59.919l4.83 18.026a6.712 6.712 0 0 1-4.745 8.22l-27.194 7.288c-1.867.563-2.108-.339-2.387-1.378l-6.84-25.526Z"
        />
        <g filter="url(#d)">
            <path
                fill="url(#e)"
                d="M5.061 17.61a1.732 1.732 0 0 1 1.255-1.992l33.757-9.045a1.3 1.3 0 0 1 1.62 1.057l3.535 22.88a1.732 1.732 0 0 1-1.263 1.938l-33.046 8.854a1.3 1.3 0 0 1-1.613-1.016L5.06 17.61Z"
            />
            <path
                fill="url(#f)"
                fill-opacity=".05"
                d="M5.061 17.61a1.732 1.732 0 0 1 1.255-1.992l33.757-9.045a1.3 1.3 0 0 1 1.62 1.057l3.535 22.88a1.732 1.732 0 0 1-1.263 1.938l-33.046 8.854a1.3 1.3 0 0 1-1.613-1.016L5.06 17.61Z"
            />
        </g>
        <path fill="#fff" fill-opacity=".1" d="m8.517 35.734 36.078-9.667.367 1.972-36.067 9.665-.378-1.97Z" />
    </g>
    <defs>
        <linearGradient id="c" x1="50.5" x2="24.055" y1="-10.5" y2="39.717" gradientUnits="userSpaceOnUse">
            <stop stop-color="#D783FF" />
            <stop offset="1" stop-color="#6D4AFF" />
        </linearGradient>
        <linearGradient id="e" x1="40.002" x2="-4.122" y1=".713" y2="54.325" gradientUnits="userSpaceOnUse">
            <stop stop-color="#D783FF" />
            <stop offset="1" stop-color="#6D4AFF" />
        </linearGradient>
        <linearGradient id="f" x1="42.082" x2="21.137" y1="4.58" y2="22.672" gradientUnits="userSpaceOnUse">
            <stop stop-color="#fff" />
            <stop offset=".47" stop-color="#fff" />
            <stop offset=".555" stop-color="#fff" stop-opacity="0" />
        </linearGradient>
        <filter
            id="b"
            width="42"
            height="9"
            x="3"
            y="39"
            color-interpolation-filters="sRGB"
            filterUnits="userSpaceOnUse"
        >
            <feFlood flood-opacity="0" result="BackgroundImageFix" />
            <feBlend in="SourceGraphic" in2="BackgroundImageFix" result="shape" />
            <feGaussianBlur result="effect1_foregroundBlur_45522_15922" stdDeviation="1.5" />
        </filter>
        <filter
            id="d"
            width="41.217"
            height="36.818"
            x="4.032"
            y="5.529"
            color-interpolation-filters="sRGB"
            filterUnits="userSpaceOnUse"
        >
            <feFlood flood-opacity="0" result="BackgroundImageFix" />
            <feBlend in="SourceGraphic" in2="BackgroundImageFix" result="shape" />
            <feColorMatrix in="SourceAlpha" result="hardAlpha" values="0 0 0 0 0 0 0 0 0 0 0 0 0 0 0 0 0 0 127 0" />
            <feOffset dy="-1" />
            <feGaussianBlur stdDeviation=".5" />
            <feComposite in2="hardAlpha" k2="-1" k3="1" operator="arithmetic" />
            <feColorMatrix values="0 0 0 0 0.635986 0 0 0 0 0.31592 0 0 0 0 0.199532 0 0 0 0.1 0" />
            <feBlend in2="shape" result="effect1_innerShadow_45522_15922" />
            <feColorMatrix in="SourceAlpha" result="hardAlpha" values="0 0 0 0 0 0 0 0 0 0 0 0 0 0 0 0 0 0 127 0" />
            <feOffset dx="-1" dy="1" />
            <feGaussianBlur stdDeviation=".5" />
            <feComposite in2="hardAlpha" k2="-1" k3="1" operator="arithmetic" />
            <feColorMatrix values="0 0 0 0 1 0 0 0 0 1 0 0 0 0 1 0 0 0 0.1 0" />
            <feBlend in2="effect1_innerShadow_45522_15922" result="effect2_innerShadow_45522_15922" />
        </filter>
        <clipPath id="a"><path fill="#fff" d="M0 0h48v48H0z" /></clipPath>
    </defs>
</svg>
