<svg width="186" height="137" viewBox="0 0 186 137" fill="none" xmlns="http://www.w3.org/2000/svg">
    <path
        d="M0.679932 9.43353C0.679932 4.22353 4.90346 0 10.1135 0H175.986C181.196 0 185.42 4.22353 185.42 9.43353V19.6532H0.679932V9.43353Z"
        fill="#EBEDED" />
    <path
        d="M0.679688 19.6543H185.42V126.568C185.42 131.778 181.196 136.001 175.986 136.001H10.1132C4.90323 136.001 0.679688 131.778 0.679688 126.568V19.6543Z"
        fill="url(#paint0_linear)" />
    <path
        d="M1.37993 9.43352C1.37993 4.61013 5.29006 0.7 10.1135 0.7H175.986C180.81 0.7 184.72 4.61013 184.72 9.43353V126.566C184.72 131.39 180.81 135.3 175.986 135.3H10.1135C5.29008 135.3 1.37993 131.39 1.37993 126.566V9.43352Z"
        stroke="#EBEDED" stroke-width="1.4" />
    <circle cx="13.2578" cy="10.2187" r="3.14451" fill="#C3C8CC" />
    <circle cx="22.6913" cy="10.2187" r="3.14451" fill="#C3C8CC" />
    <circle cx="32.1249" cy="10.2187" r="3.14451" fill="#C3C8CC" />
    <path
        d="M17.7 69C17.7 64.9683 20.9683 61.7 25 61.7H161C165.032 61.7 168.3 64.9683 168.3 69V87C168.3 91.0317 165.032 94.3 161 94.3H25C20.9683 94.3 17.7 91.0317 17.7 87V69Z"
        fill="white" stroke="#EBEDED" stroke-width="1.4" />
    <g opacity="0.3" filter="url(#filter0_f)">
        <path
            d="M69 81C69 76.5817 72.5817 73 77 73H110C114.418 73 118 76.5817 118 81V102C118 106.418 114.418 110 110 110H77C72.5817 110 69 106.418 69 102V81Z"
            fill="#221548" />
    </g>
    <path fill-rule="evenodd" clip-rule="evenodd"
        d="M73.0107 61.5897V52.0336C73.0107 40.9653 81.976 32 93.0443 32C104.113 32 113.078 40.9653 113.078 52.0336V69.3764H106.553V52.0336C106.553 44.0644 100.903 38.4147 92.9336 38.4147C84.9645 38.4147 79.3147 44.0644 79.3147 52.0336V61.5897H73.0107Z"
        fill="#303D58" />
    <path
        d="M116.728 104.155H69.4259C67.0285 104.155 65 102.219 65 99.7294V62.2013C65 59.8039 66.9363 57.7754 69.4259 57.7754H116.728C119.125 57.7754 121.154 59.7117 121.154 62.2013V99.7294C121.154 102.127 119.217 104.155 116.728 104.155Z"
        fill="url(#paint1_linear)" />
    <path
        d="M98.8393 76.1254C98.8393 72.8982 96.2575 70.3164 93.0303 70.3164C89.803 70.3164 87.2213 72.8982 87.2213 76.1254C87.2213 78.3384 88.4199 80.1825 90.2641 81.1968L87.8667 91.5239H98.1938L95.7965 81.1968C97.6406 80.2747 98.8393 78.3384 98.8393 76.1254Z"
        fill="#303D58" />
    <path
        d="M38.345 77.345H35.5775L37.5321 75.3847C37.6368 75.2591 37.6907 75.0989 37.6833 74.9356C37.676 74.7723 37.6078 74.6177 37.4922 74.5021C37.3766 74.3865 37.2219 74.3183 37.0586 74.3109C36.8953 74.3035 36.7351 74.3575 36.6095 74.4622L34.6492 76.4225V73.655C34.6492 73.4813 34.5802 73.3147 34.4574 73.1918C34.3345 73.069 34.1679 73 33.9942 73C33.8205 73 33.6539 73.069 33.5311 73.1918C33.4083 73.3147 33.3393 73.4813 33.3393 73.655V76.4225L31.3847 74.4622C31.3269 74.3904 31.2547 74.3316 31.1727 74.2895C31.0908 74.2475 31.0008 74.2232 30.9088 74.2182C30.8168 74.2133 30.7248 74.2277 30.6388 74.2607C30.5528 74.2936 30.4746 74.3443 30.4095 74.4095C30.3443 74.4746 30.2936 74.5527 30.2607 74.6388C30.2277 74.7248 30.2133 74.8168 30.2182 74.9088C30.2232 75.0008 30.2475 75.0907 30.2895 75.1727C30.3316 75.2547 30.3904 75.3269 30.4622 75.3847L32.4225 77.345H29.655C29.4813 77.345 29.3147 77.414 29.1918 77.5368C29.069 77.6597 29 77.8263 29 78C29 78.1737 29.069 78.3403 29.1918 78.4631C29.3147 78.586 29.4813 78.655 29.655 78.655H32.4225L30.4622 80.6153C30.3923 80.6736 30.3353 80.7458 30.2949 80.8273C30.2545 80.9088 30.2315 80.9979 30.2274 81.0888C30.2232 81.1797 30.2381 81.2704 30.271 81.3553C30.3039 81.4401 30.3542 81.5171 30.4185 81.5815C30.4829 81.6458 30.5599 81.696 30.6447 81.729C30.7296 81.7619 30.8203 81.7768 30.9112 81.7727C31.0021 81.7685 31.0912 81.7455 31.1727 81.7051C31.2542 81.6647 31.3264 81.6077 31.3847 81.5378L33.3393 79.5775V82.345C33.3393 82.5187 33.4083 82.6853 33.5311 82.8082C33.6539 82.931 33.8205 83 33.9942 83C34.1679 83 34.3345 82.931 34.4574 82.8082C34.5802 82.6853 34.6492 82.5187 34.6492 82.345V79.5775L36.6095 81.5378C36.6678 81.6077 36.74 81.6647 36.8215 81.7051C36.9031 81.7455 36.9921 81.7685 37.083 81.7727C37.1739 81.7768 37.2647 81.7619 37.3495 81.729C37.4343 81.696 37.5114 81.6458 37.5757 81.5815C37.6401 81.5171 37.6903 81.4401 37.7232 81.3553C37.7561 81.2704 37.771 81.1797 37.7669 81.0888C37.7628 80.9979 37.7398 80.9088 37.6993 80.8273C37.6589 80.7458 37.6019 80.6736 37.5321 80.6153L35.5775 78.655H38.345C38.5187 78.655 38.6853 78.586 38.8082 78.4631C38.931 78.3403 39 78.1737 39 78C39 77.8263 38.931 77.6597 38.8082 77.5368C38.6853 77.414 38.5187 77.345 38.345 77.345Z"
        fill="#303D58" />
    <path
        d="M135.345 77.345H132.577L134.532 75.3847C134.637 75.2591 134.691 75.0989 134.683 74.9356C134.676 74.7723 134.608 74.6177 134.492 74.5021C134.377 74.3865 134.222 74.3183 134.059 74.3109C133.895 74.3035 133.735 74.3575 133.61 74.4622L131.649 76.4225V73.655C131.649 73.4813 131.58 73.3147 131.457 73.1918C131.335 73.069 131.168 73 130.994 73C130.821 73 130.654 73.069 130.531 73.1918C130.408 73.3147 130.339 73.4813 130.339 73.655V76.4225L128.385 74.4622C128.327 74.3904 128.255 74.3316 128.173 74.2895C128.091 74.2475 128.001 74.2232 127.909 74.2182C127.817 74.2133 127.725 74.2277 127.639 74.2607C127.553 74.2936 127.475 74.3443 127.409 74.4095C127.344 74.4746 127.294 74.5527 127.261 74.6388C127.228 74.7248 127.213 74.8168 127.218 74.9088C127.223 75.0008 127.248 75.0907 127.29 75.1727C127.332 75.2547 127.39 75.3269 127.462 75.3847L129.423 77.345H126.655C126.481 77.345 126.315 77.414 126.192 77.5368C126.069 77.6597 126 77.8263 126 78C126 78.1737 126.069 78.3403 126.192 78.4631C126.315 78.586 126.481 78.655 126.655 78.655H129.423L127.462 80.6153C127.392 80.6736 127.335 80.7458 127.295 80.8273C127.254 80.9088 127.231 80.9979 127.227 81.0888C127.223 81.1797 127.238 81.2704 127.271 81.3553C127.304 81.4401 127.354 81.5171 127.419 81.5815C127.483 81.6458 127.56 81.696 127.645 81.729C127.73 81.7619 127.82 81.7768 127.911 81.7727C128.002 81.7685 128.091 81.7455 128.173 81.7051C128.254 81.6647 128.326 81.6077 128.385 81.5378L130.339 79.5775V82.345C130.339 82.5187 130.408 82.6853 130.531 82.8082C130.654 82.931 130.821 83 130.994 83C131.168 83 131.335 82.931 131.457 82.8082C131.58 82.6853 131.649 82.5187 131.649 82.345V79.5775L133.61 81.5378C133.668 81.6077 133.74 81.6647 133.822 81.7051C133.903 81.7455 133.992 81.7685 134.083 81.7727C134.174 81.7768 134.265 81.7619 134.349 81.729C134.434 81.696 134.511 81.6458 134.576 81.5815C134.64 81.5171 134.69 81.4401 134.723 81.3553C134.756 81.2704 134.771 81.1797 134.767 81.0888C134.763 80.9979 134.74 80.9088 134.699 80.8273C134.659 80.7458 134.602 80.6736 134.532 80.6153L132.577 78.655H135.345C135.519 78.655 135.685 78.586 135.808 78.4631C135.931 78.3403 136 78.1737 136 78C136 77.8263 135.931 77.6597 135.808 77.5368C135.685 77.414 135.519 77.345 135.345 77.345Z"
        fill="#303D58" />
    <path
        d="M60.345 77.345H57.5775L59.5321 75.3847C59.6368 75.2591 59.6907 75.0989 59.6833 74.9356C59.676 74.7723 59.6078 74.6177 59.4922 74.5021C59.3766 74.3865 59.2219 74.3183 59.0586 74.3109C58.8953 74.3035 58.7351 74.3575 58.6095 74.4622L56.6492 76.4225V73.655C56.6492 73.4813 56.5802 73.3147 56.4574 73.1918C56.3345 73.069 56.1679 73 55.9942 73C55.8205 73 55.6539 73.069 55.5311 73.1918C55.4083 73.3147 55.3393 73.4813 55.3393 73.655V76.4225L53.3847 74.4622C53.3269 74.3904 53.2547 74.3316 53.1727 74.2895C53.0908 74.2475 53.0008 74.2232 52.9088 74.2182C52.8168 74.2133 52.7248 74.2277 52.6388 74.2607C52.5528 74.2936 52.4746 74.3443 52.4095 74.4095C52.3443 74.4746 52.2936 74.5527 52.2607 74.6388C52.2277 74.7248 52.2133 74.8168 52.2182 74.9088C52.2232 75.0008 52.2475 75.0907 52.2895 75.1727C52.3316 75.2547 52.3904 75.3269 52.4622 75.3847L54.4225 77.345H51.655C51.4813 77.345 51.3147 77.414 51.1918 77.5368C51.069 77.6597 51 77.8263 51 78C51 78.1737 51.069 78.3403 51.1918 78.4631C51.3147 78.586 51.4813 78.655 51.655 78.655H54.4225L52.4622 80.6153C52.3923 80.6736 52.3353 80.7458 52.2949 80.8273C52.2545 80.9088 52.2315 80.9979 52.2274 81.0888C52.2232 81.1797 52.2381 81.2704 52.271 81.3553C52.3039 81.4401 52.3542 81.5171 52.4185 81.5815C52.4829 81.6458 52.5599 81.696 52.6447 81.729C52.7296 81.7619 52.8203 81.7768 52.9112 81.7727C53.0021 81.7685 53.0912 81.7455 53.1727 81.7051C53.2542 81.6647 53.3264 81.6077 53.3847 81.5378L55.3393 79.5775V82.345C55.3393 82.5187 55.4083 82.6853 55.5311 82.8082C55.6539 82.931 55.8205 83 55.9942 83C56.1679 83 56.3345 82.931 56.4574 82.8082C56.5802 82.6853 56.6492 82.5187 56.6492 82.345V79.5775L58.6095 81.5378C58.6678 81.6077 58.74 81.6647 58.8215 81.7051C58.9031 81.7455 58.9921 81.7685 59.083 81.7727C59.1739 81.7768 59.2647 81.7619 59.3495 81.729C59.4343 81.696 59.5114 81.6458 59.5757 81.5815C59.6401 81.5171 59.6903 81.4401 59.7232 81.3553C59.7561 81.2704 59.771 81.1797 59.7669 81.0888C59.7628 80.9979 59.7398 80.9088 59.6993 80.8273C59.6589 80.7458 59.6019 80.6736 59.5321 80.6153L57.5775 78.655H60.345C60.5187 78.655 60.6853 78.586 60.8082 78.4631C60.931 78.3403 61 78.1737 61 78C61 77.8263 60.931 77.6597 60.8082 77.5368C60.6853 77.414 60.5187 77.345 60.345 77.345Z"
        fill="#303D58" />
    <rect x="143" y="83" width="16" height="1" fill="#EBEDED" />
    <defs>
        <filter id="filter0_f" x="59.3" y="63.3" width="68.4" height="56.4" filterUnits="userSpaceOnUse"
            color-interpolation-filters="sRGB">
            <feFlood flood-opacity="0" result="BackgroundImageFix" />
            <feBlend mode="normal" in="SourceGraphic" in2="BackgroundImageFix" result="shape" />
            <feGaussianBlur stdDeviation="4.85" result="effect1_foregroundBlur" />
        </filter>
        <linearGradient id="paint0_linear" x1="93.0496" y1="46.7757" x2="93.0496" y2="136.001"
            gradientUnits="userSpaceOnUse">
            <stop stop-color="white" />
            <stop offset="1" stop-color="#FDFEFE" />
        </linearGradient>
        <linearGradient id="paint1_linear" x1="93.0769" y1="57.7754" x2="93.0769" y2="104.155"
            gradientUnits="userSpaceOnUse">
            <stop stop-color="#FFE26D" />
            <stop offset="1" stop-color="#FFA16D" />
        </linearGradient>
    </defs>
</svg>