<svg width="16" height="16" viewBox="0 0 16 16" fill="none" xmlns="http://www.w3.org/2000/svg">
    <path
        fill-rule="evenodd"
        clip-rule="evenodd"
        d="M7.14564 1.27942C7.69754 1.07873 8.30246 1.07873 8.85436 1.27942L13.6709 3.03088C13.8685 3.10274 14 3.29053 14 3.50078V9.12625C14 10.773 13.1005 12.2882 11.6548 13.0768L8.23943 14.9397C8.09019 15.0211 7.90981 15.0211 7.76057 14.9397L4.34517 13.0768C2.89949 12.2882 2 10.773 2 9.12625V3.50078C2 3.29053 2.13153 3.10274 2.32913 3.03088L7.14564 1.27942ZM8.51261 2.21922C8.18148 2.0988 7.81852 2.0988 7.48739 2.21922L3 3.85099V9.12625C3 10.4071 3.6996 11.5856 4.82402 12.1989L8 13.9312L11.176 12.1989C12.3004 11.5856 13 10.4071 13 9.12625V3.85099L8.51261 2.21922Z"
        fill="black"
    />
    <path
        d="M9.6 6.4C9.6 7.28366 8.88366 8 8 8C7.11634 8 6.4 7.28366 6.4 6.4C6.4 5.51634 7.11634 4.8 8 4.8C8.88366 4.8 9.6 5.51634 9.6 6.4Z"
        fill="black"
    />
    <path
        d="M7.52155 7.59223C7.56717 7.36417 7.76742 7.2 8 7.2C8.23258 7.2 8.43283 7.36417 8.47845 7.59223L9.05976 10.4988C9.13231 10.8616 8.85485 11.2 8.48492 11.2H7.51508C7.14514 11.2 6.86769 10.8616 6.94024 10.4988L7.52155 7.59223Z"
        fill="black"
    />
</svg>
