<svg width="180" height="48" viewBox="0 0 180 48" fill="none" xmlns="http://www.w3.org/2000/svg">
    <path
        d="M0 29.472V35.6255H4.39851V29.7408C4.39851 29.1696 4.62821 28.6176 5.04363 28.2144C5.45415 27.8112 6.01618 27.5808 6.59776 27.5808H11.1087C13.2102 27.5808 15.2286 26.76 16.7143 25.296C18.2001 23.8368 19.0358 21.8544 19.0358 19.7904C19.0358 17.7264 18.2001 15.744 16.7143 14.28C15.2286 12.8208 13.2102 12 11.1038 12H0V19.6896H4.39851V16.0656H10.8106C11.8076 16.0656 12.7606 16.4544 13.4643 17.1456C14.1681 17.8368 14.564 18.7728 14.564 19.752C14.564 20.7312 14.1681 21.6672 13.4643 22.3584C12.7606 23.0496 11.8076 23.4384 10.8106 23.4384H6.15303C5.34663 23.4384 4.54513 23.592 3.80227 23.8992C3.05452 24.2016 2.38008 24.648 1.80828 25.2096C1.23647 25.7712 0.786848 26.4384 0.474065 27.168C0.161282 27.8928 0 28.68 0 29.472Z"
        fill="white"
    />
    <path
        d="M19.7151 35.6255V26.2512C19.7151 22.4256 21.9877 19.3824 26.5377 19.3824C27.2659 19.3728 27.9941 19.4496 28.7076 19.6176V23.472C28.1896 23.4384 27.7449 23.4384 27.5347 23.4384C25.1253 23.4384 24.0892 24.5232 24.0892 26.7216V35.6255H19.7151Z"
        fill="white"
    />
    <path
        d="M30.0173 27.6768C30.0173 22.9728 33.6338 19.3872 38.6677 19.3872C43.7015 19.3872 47.3181 22.9728 47.3181 27.6768C47.3181 32.3808 43.7015 36 38.6677 36C33.6338 36 30.0173 32.376 30.0173 27.6768ZM43.0075 27.6768C43.0075 25.0032 41.1797 23.1072 38.6677 23.1072C36.1507 23.1072 34.3278 24.9984 34.3278 27.6768C34.3278 30.384 36.1556 32.2464 38.6677 32.2464C41.1846 32.2464 43.0075 30.3792 43.0075 27.6768Z"
        fill="white"
    />
    <path
        d="M61.3054 27.6768C61.3054 22.9728 64.922 19.3872 69.9558 19.3872C74.9848 19.3872 78.6014 22.9728 78.6014 27.6768C78.6014 32.3808 74.9848 36 69.9558 36C64.922 36 61.3054 32.376 61.3054 27.6768ZM74.2908 27.6768C74.2908 25.0032 72.463 23.1072 69.951 23.1072C67.4389 23.1072 65.6111 24.9984 65.6111 27.6768C65.6111 30.384 67.4389 32.2464 69.951 32.2464C72.463 32.2464 74.2908 30.3792 74.2908 27.6768Z"
        fill="white"
    />
    <path
        d="M80.874 35.6256V26.592C80.874 22.3968 83.5962 19.3824 88.4541 19.3824C93.2778 19.3824 96 22.392 96 26.592V35.6256H91.6601V26.928C91.6601 24.5952 90.5898 23.136 88.4541 23.136C86.3184 23.136 85.2481 24.5904 85.2481 26.928V35.6256H80.874Z"
        fill="white"
    />
    <path
        d="M59.9957 23.1406H55.2746V29.0638C55.2746 31.1278 56.0321 32.0734 58.2021 32.0734C58.4073 32.0734 58.9254 32.0734 59.5802 32.0398V35.5246C58.6859 35.7598 57.8942 35.899 57.0291 35.899C53.3784 35.899 50.8956 33.7342 50.8956 29.6398V23.1406H47.9633V19.723H48.6964C48.9847 19.723 49.2731 19.6654 49.537 19.5598C49.8058 19.4494 50.0453 19.291 50.2505 19.0894C50.4558 18.8878 50.6171 18.6526 50.7295 18.3886C50.8419 18.1246 50.8956 17.8462 50.8956 17.563V14.3422H55.2697V19.723H59.9908V23.1406H59.9957Z"
        fill="white"
    />
    <path
        d="M176.756 36.0002C175.746 36.0002 174.833 35.7962 174.017 35.3882C173.223 34.9801 172.578 34.3573 172.084 33.5197C171.612 32.6821 171.376 31.6727 171.376 30.4915V22.8244H167.993V19.5385C169.131 19.5385 169.937 19.4526 170.409 19.2808C170.882 19.0875 171.193 18.7116 171.344 18.1533C171.494 17.5949 171.569 16.6499 171.569 15.3184H175.564V19.4418H179.945V22.8244H175.564V30.1049C175.564 30.9855 175.778 31.6298 176.208 32.0378C176.638 32.4244 177.217 32.6177 177.948 32.6177C178.613 32.6177 179.279 32.4996 179.945 32.2633V35.2915C179.494 35.5063 179 35.6781 178.463 35.8069C177.948 35.9358 177.378 36.0002 176.756 36.0002Z"
        fill="white"
    />
    <path
        d="M160.698 35.9996C158.979 35.9996 157.444 35.6453 156.091 34.9365C154.759 34.2278 153.718 33.2184 152.966 31.9084C152.214 30.5768 151.838 29.0305 151.838 27.2694C151.838 25.7446 152.171 24.3486 152.837 23.0815C153.524 21.8144 154.459 20.8157 155.64 20.0855C156.821 19.3553 158.131 18.9902 159.57 18.9902C160.923 18.9902 162.115 19.2909 163.146 19.8922C164.177 20.4721 164.971 21.3204 165.53 22.4372C166.088 23.5325 166.367 24.8426 166.367 26.3674V28.0104H154.77V25.2399H164.467L162.276 25.852C162.276 24.9929 162.158 24.2842 161.922 23.7258C161.707 23.1459 161.385 22.7164 160.955 22.4372C160.526 22.1365 160 21.9862 159.377 21.9862C158.775 21.9862 158.228 22.158 157.734 22.5016C157.24 22.8238 156.843 23.3392 156.542 24.048C156.241 24.7352 156.091 25.5943 156.091 26.6251C156.091 28.0641 156.327 29.2345 156.8 30.1365C157.294 31.0171 157.949 31.6506 158.765 32.0372C159.581 32.4238 160.494 32.6171 161.503 32.6171C162.233 32.6171 162.974 32.5204 163.726 32.3271C164.477 32.1124 165.251 31.7795 166.045 31.3285V34.4533C165.229 34.9902 164.359 35.3768 163.436 35.6131C162.534 35.8708 161.621 35.9996 160.698 35.9996Z"
        fill="white"
    />
    <path
        d="M143.615 35.9996C141.897 35.9996 140.361 35.6453 139.008 34.9365C137.677 34.2278 136.635 33.2184 135.883 31.9084C135.132 30.5768 134.756 29.0305 134.756 27.2694C134.756 25.7446 135.089 24.3486 135.755 23.0815C136.442 21.8144 137.376 20.8157 138.557 20.0855C139.738 19.3553 141.049 18.9902 142.487 18.9902C143.84 18.9902 145.032 19.2909 146.063 19.8922C147.094 20.4721 147.889 21.3204 148.447 22.4372C149.006 23.5325 149.285 24.8426 149.285 26.3674V28.0104H137.687V25.2399H147.384L145.193 25.852C145.193 24.9929 145.075 24.2842 144.839 23.7258C144.624 23.1459 144.302 22.7164 143.873 22.4372C143.443 22.1365 142.917 21.9862 142.294 21.9862C141.693 21.9862 141.145 22.158 140.651 22.5016C140.157 22.8238 139.76 23.3392 139.459 24.048C139.159 24.7352 139.008 25.5943 139.008 26.6251C139.008 28.0641 139.245 29.2345 139.717 30.1365C140.211 31.0171 140.866 31.6506 141.682 32.0372C142.498 32.4238 143.411 32.6171 144.42 32.6171C145.151 32.6171 145.891 32.5204 146.643 32.3271C147.395 32.1124 148.168 31.7795 148.963 31.3285V34.4533C148.147 34.9902 147.277 35.3768 146.353 35.6131C145.451 35.8708 144.538 35.9996 143.615 35.9996Z"
        fill="white"
    />
    <path
        d="M109.349 16.5745H109.252V28.2362C109.252 29.8899 109.252 31.1141 109.252 31.9087C109.252 32.7034 109.252 33.906 109.252 35.5168H105C105 33.8631 105 32.6389 105 31.8443C105 31.0497 105 29.847 105 28.2362V19.2805C105 17.6268 105 16.4027 105 15.6081C105 14.8134 105 13.6107 105 12H112.216L118.208 30.6846H118.305L124.393 12H131.158C131.158 13.6537 131.158 14.8779 131.158 15.6725C131.158 16.4671 131.158 17.6698 131.158 19.2805V28.2362C131.158 29.8899 131.158 31.1141 131.158 31.9087C131.158 32.7034 131.158 33.906 131.158 35.5168H126.874C126.874 33.8631 126.874 32.6389 126.874 31.8443C126.874 31.0497 126.874 29.847 126.874 28.2362V16.9611H126.777L120.656 35.5168H115.502L109.349 16.5745Z"
        fill="white"
    />
</svg>
