<svg width="431" height="260" viewBox="0 0 431 260" fill="none" xmlns="http://www.w3.org/2000/svg">
    <g opacity="0.45" filter="url(#filter0_f_11574_34090)">
        <ellipse cx="215.712" cy="129.99" rx="124.537" ry="39.2377" fill="#DA9EB7" />
    </g>
    <g filter="url(#filter1_i_11574_34090)">
        <path
            d="M205.313 92.8215C209.258 86.2171 218.825 86.2171 222.769 92.8215L258.31 152.328C262.357 159.104 257.475 167.707 249.582 167.707H178.501C170.608 167.707 165.726 159.104 169.773 152.328L205.313 92.8215Z"
            fill="url(#paint0_linear_11574_34090)"
        />
    </g>
    <path
        d="M205.313 92.8215C209.258 86.2171 218.825 86.2171 222.769 92.8215L258.31 152.328C262.357 159.104 257.475 167.707 249.582 167.707H178.501C170.608 167.707 165.726 159.104 169.773 152.328L205.313 92.8215Z"
        stroke="#FFDC92"
    />
    <g filter="url(#filter2_d_11574_34090)">
        <path
            d="M209.821 116.545C209.834 114.224 211.719 112.35 214.04 112.35C216.361 112.35 218.246 114.224 218.259 116.545L218.373 137.039C218.386 139.441 216.442 141.396 214.04 141.396C211.638 141.396 209.694 139.441 209.707 137.039L209.821 116.545Z"
            fill="white"
        />
    </g>
    <g filter="url(#filter3_d_11574_34090)">
        <circle cx="214.04" cy="150.104" r="4.35692" fill="white" />
    </g>
    <g filter="url(#filter4_ii_11574_34090)">
        <rect
            x="51.5389"
            y="104.8"
            width="27.3295"
            height="16.0789"
            rx="6.88703"
            transform="rotate(1.07985 51.5389 104.8)"
            stroke="#A7A4B5"
            stroke-width="3.82613"
        />
        <rect
            x="81.6956"
            y="102.432"
            width="27.3295"
            height="16.0789"
            rx="6.88703"
            transform="rotate(23.9435 81.6956 102.432)"
            stroke="#A7A4B5"
            stroke-width="3.82613"
        />
        <line
            x1="69.0649"
            y1="113.29"
            x2="86.9484"
            y2="114.511"
            stroke="#A7A4B5"
            stroke-width="3.82613"
            stroke-linecap="round"
        />
        <line
            x1="95.3528"
            y1="118.474"
            x2="111.843"
            y2="122.369"
            stroke="#A7A4B5"
            stroke-width="3.82613"
            stroke-linecap="round"
        />
        <rect
            x="102.439"
            y="113.807"
            width="27.3295"
            height="16.0789"
            rx="6.88703"
            transform="rotate(-0.866721 102.439 113.807)"
            stroke="#A7A4B5"
            stroke-width="3.82613"
        />
        <rect
            x="133.627"
            y="116.123"
            width="27.3295"
            height="16.0789"
            rx="6.88703"
            transform="rotate(25.9337 133.627 116.123)"
            stroke="#A7A4B5"
            stroke-width="3.82613"
        />
        <path
            fill-rule="evenodd"
            clip-rule="evenodd"
            d="M173.305 126.601L172.534 128.449L169.835 128.844L170.809 130.241L161.536 129.506C158.798 129.289 156.402 131.333 156.185 134.071L156.002 136.369C155.785 139.107 157.829 141.503 160.568 141.72L171.621 142.596L170.08 144.664L171.522 146.427L160.265 145.534C155.421 145.15 151.804 140.911 152.188 136.066L152.37 133.769C152.755 128.924 156.994 125.308 161.838 125.692L173.305 126.601Z"
            fill="#A7A4B5"
        />
        <line
            x1="121.498"
            y1="122.574"
            x2="137.989"
            y2="126.469"
            stroke="#A7A4B5"
            stroke-width="3.82613"
            stroke-linecap="round"
        />
        <line
            x1="146.701"
            y1="132.113"
            x2="163.191"
            y2="136.008"
            stroke="#A7A4B5"
            stroke-width="3.82613"
            stroke-linecap="round"
        />
        <path
            d="M171.124 107.88L162.961 112.022L175.501 121.933L177.774 118.025L171.359 113.77L171.124 107.88Z"
            fill="#A7A4B5"
        />
        <path d="M167.947 156.376L171.973 152.391L180.083 156.53L175.011 164.113L167.947 156.376Z" fill="#A7A4B5" />
        <path d="M183.541 138.842L186.362 140.042L185.951 144.953L181.113 143.966L183.541 138.842Z" fill="#A7A4B5" />
        <path d="M171.422 137.936L181.416 134.371L174.962 140.573L171.422 137.936Z" fill="#A7A4B5" />
    </g>
    <g filter="url(#filter5_ii_11574_34090)">
        <rect
            x="377.822"
            y="153.753"
            width="27.3295"
            height="16.0789"
            rx="6.88703"
            transform="rotate(174.402 377.822 153.753)"
            stroke="#A7A4B5"
            stroke-width="3.82613"
        />
        <rect
            x="348.145"
            y="159.614"
            width="27.3295"
            height="16.0789"
            rx="6.88703"
            transform="rotate(-162.735 348.145 159.614)"
            stroke="#A7A4B5"
            stroke-width="3.82613"
        />
        <line
            x1="359.427"
            y1="147.361"
            x2="341.523"
            y2="148.228"
            stroke="#A7A4B5"
            stroke-width="3.82613"
            stroke-linecap="round"
        />
        <line
            x1="332.715"
            y1="145.268"
            x2="315.883"
            y2="143.317"
            stroke="#A7A4B5"
            stroke-width="3.82613"
            stroke-linecap="round"
        />
        <rect
            x="326.219"
            y="150.728"
            width="27.3295"
            height="16.0789"
            rx="6.88703"
            transform="rotate(172.455 326.219 150.728)"
            stroke="#A7A4B5"
            stroke-width="3.82613"
        />
        <rect
            x="294.974"
            y="152.055"
            width="27.3295"
            height="16.0789"
            rx="6.88703"
            transform="rotate(-160.744 294.974 152.055)"
            stroke="#A7A4B5"
            stroke-width="3.82613"
        />
        <path
            fill-rule="evenodd"
            clip-rule="evenodd"
            d="M254.346 146.261L254.897 144.336L257.532 143.63L256.403 142.355L265.697 142.007C268.443 141.904 270.585 139.596 270.482 136.85L270.395 134.547C270.293 131.802 267.984 129.66 265.239 129.763L254.159 130.178L255.448 127.945L253.811 126.362L265.095 125.94C269.952 125.758 274.037 129.547 274.219 134.404L274.305 136.707C274.487 141.564 270.697 145.649 265.841 145.831L254.346 146.261Z"
            fill="#A7A4B5"
        />
        <line
            x1="306.27"
            y1="144.237"
            x2="289.438"
            y2="142.286"
            stroke="#A7A4B5"
            stroke-width="3.82613"
            stroke-linecap="round"
        />
        <line
            x1="280.129"
            y1="137.693"
            x2="263.298"
            y2="135.743"
            stroke="#A7A4B5"
            stroke-width="3.82613"
            stroke-linecap="round"
        />
        <path
            d="M241.402 157.327L251.021 155.862L241.66 141.683L238.064 144.871L243.125 151.303L241.402 157.327Z"
            fill="#A7A4B5"
        />
        <path d="M259.221 115.568L256.96 118.748L251.239 116.264L253.842 110.385L259.221 115.568Z" fill="#A7A4B5" />
        <path d="M246.563 129.724L243.507 128.827L243.337 123.71L248.449 124.143L246.563 129.724Z" fill="#A7A4B5" />
        <path d="M259.59 134.889L250.005 139.628L255.737 132.665L259.59 134.889Z" fill="#A7A4B5" />
    </g>
    <defs>
        <filter
            id="filter0_f_11574_34090"
            x="0.757637"
            y="0.335182"
            width="429.908"
            height="259.31"
            filterUnits="userSpaceOnUse"
            color-interpolation-filters="sRGB"
        >
            <feFlood flood-opacity="0" result="BackgroundImageFix" />
            <feBlend mode="normal" in="SourceGraphic" in2="BackgroundImageFix" result="shape" />
            <feGaussianBlur stdDeviation="45.2086" result="effect1_foregroundBlur_11574_34090" />
        </filter>
        <filter
            id="filter1_i_11574_34090"
            x="167.818"
            y="87.3682"
            width="92.4462"
            height="86.6884"
            filterUnits="userSpaceOnUse"
            color-interpolation-filters="sRGB"
        >
            <feFlood flood-opacity="0" result="BackgroundImageFix" />
            <feBlend mode="normal" in="SourceGraphic" in2="BackgroundImageFix" result="shape" />
            <feColorMatrix
                in="SourceAlpha"
                type="matrix"
                values="0 0 0 0 0 0 0 0 0 0 0 0 0 0 0 0 0 0 127 0"
                result="hardAlpha"
            />
            <feOffset dy="5.85" />
            <feGaussianBlur stdDeviation="2.925" />
            <feComposite in2="hardAlpha" operator="arithmetic" k2="-1" k3="1" />
            <feColorMatrix type="matrix" values="0 0 0 0 1 0 0 0 0 1 0 0 0 0 1 0 0 0 0.4 0" />
            <feBlend mode="normal" in2="shape" result="effect1_innerShadow_11574_34090" />
        </filter>
        <filter
            id="filter2_d_11574_34090"
            x="208.707"
            y="111.85"
            width="10.6656"
            height="31.0459"
            filterUnits="userSpaceOnUse"
            color-interpolation-filters="sRGB"
        >
            <feFlood flood-opacity="0" result="BackgroundImageFix" />
            <feColorMatrix
                in="SourceAlpha"
                type="matrix"
                values="0 0 0 0 0 0 0 0 0 0 0 0 0 0 0 0 0 0 127 0"
                result="hardAlpha"
            />
            <feOffset dy="0.5" />
            <feGaussianBlur stdDeviation="0.5" />
            <feComposite in2="hardAlpha" operator="out" />
            <feColorMatrix type="matrix" values="0 0 0 0 1 0 0 0 0 0.862745 0 0 0 0 0.572549 0 0 0 1 0" />
            <feBlend mode="normal" in2="BackgroundImageFix" result="effect1_dropShadow_11574_34090" />
            <feBlend mode="normal" in="SourceGraphic" in2="effect1_dropShadow_11574_34090" result="shape" />
        </filter>
        <filter
            id="filter3_d_11574_34090"
            x="208.683"
            y="145.247"
            width="10.7138"
            height="10.7139"
            filterUnits="userSpaceOnUse"
            color-interpolation-filters="sRGB"
        >
            <feFlood flood-opacity="0" result="BackgroundImageFix" />
            <feColorMatrix
                in="SourceAlpha"
                type="matrix"
                values="0 0 0 0 0 0 0 0 0 0 0 0 0 0 0 0 0 0 127 0"
                result="hardAlpha"
            />
            <feOffset dy="0.5" />
            <feGaussianBlur stdDeviation="0.5" />
            <feComposite in2="hardAlpha" operator="out" />
            <feColorMatrix type="matrix" values="0 0 0 0 1 0 0 0 0 0.862745 0 0 0 0 0.572549 0 0 0 1 0" />
            <feBlend mode="normal" in2="BackgroundImageFix" result="effect1_dropShadow_11574_34090" />
            <feBlend mode="normal" in="SourceGraphic" in2="effect1_dropShadow_11574_34090" result="shape" />
        </filter>
        <filter
            id="filter4_ii_11574_34090"
            x="49.4513"
            y="101.013"
            width="136.911"
            height="63.0995"
            filterUnits="userSpaceOnUse"
            color-interpolation-filters="sRGB"
        >
            <feFlood flood-opacity="0" result="BackgroundImageFix" />
            <feBlend mode="normal" in="SourceGraphic" in2="BackgroundImageFix" result="shape" />
            <feColorMatrix
                in="SourceAlpha"
                type="matrix"
                values="0 0 0 0 0 0 0 0 0 0 0 0 0 0 0 0 0 0 127 0"
                result="hardAlpha"
            />
            <feOffset dy="-1.70599" />
            <feGaussianBlur stdDeviation="0.852993" />
            <feComposite in2="hardAlpha" operator="arithmetic" k2="-1" k3="1" />
            <feColorMatrix type="matrix" values="0 0 0 0 0 0 0 0 0 0 0 0 0 0 0 0 0 0 0.35 0" />
            <feBlend mode="normal" in2="shape" result="effect1_innerShadow_11574_34090" />
            <feColorMatrix
                in="SourceAlpha"
                type="matrix"
                values="0 0 0 0 0 0 0 0 0 0 0 0 0 0 0 0 0 0 127 0"
                result="hardAlpha"
            />
            <feOffset dy="1.70599" />
            <feComposite in2="hardAlpha" operator="arithmetic" k2="-1" k3="1" />
            <feColorMatrix type="matrix" values="0 0 0 0 1 0 0 0 0 1 0 0 0 0 1 0 0 0 0.35 0" />
            <feBlend mode="normal" in2="effect1_innerShadow_11574_34090" result="effect2_innerShadow_11574_34090" />
        </filter>
        <filter
            id="filter5_ii_11574_34090"
            x="238.064"
            y="108.679"
            width="141.032"
            height="51.1166"
            filterUnits="userSpaceOnUse"
            color-interpolation-filters="sRGB"
        >
            <feFlood flood-opacity="0" result="BackgroundImageFix" />
            <feBlend mode="normal" in="SourceGraphic" in2="BackgroundImageFix" result="shape" />
            <feColorMatrix
                in="SourceAlpha"
                type="matrix"
                values="0 0 0 0 0 0 0 0 0 0 0 0 0 0 0 0 0 0 127 0"
                result="hardAlpha"
            />
            <feOffset dy="-1.70599" />
            <feGaussianBlur stdDeviation="0.852993" />
            <feComposite in2="hardAlpha" operator="arithmetic" k2="-1" k3="1" />
            <feColorMatrix type="matrix" values="0 0 0 0 0 0 0 0 0 0 0 0 0 0 0 0 0 0 0.35 0" />
            <feBlend mode="normal" in2="shape" result="effect1_innerShadow_11574_34090" />
            <feColorMatrix
                in="SourceAlpha"
                type="matrix"
                values="0 0 0 0 0 0 0 0 0 0 0 0 0 0 0 0 0 0 127 0"
                result="hardAlpha"
            />
            <feOffset dy="1.70599" />
            <feComposite in2="hardAlpha" operator="arithmetic" k2="-1" k3="1" />
            <feColorMatrix type="matrix" values="0 0 0 0 1 0 0 0 0 1 0 0 0 0 1 0 0 0 0.35 0" />
            <feBlend mode="normal" in2="effect1_innerShadow_11574_34090" result="effect2_innerShadow_11574_34090" />
        </filter>
        <linearGradient
            id="paint0_linear_11574_34090"
            x1="223.839"
            y1="87.8682"
            x2="192.626"
            y2="172.035"
            gradientUnits="userSpaceOnUse"
        >
            <stop stop-color="#FFD66C" />
            <stop offset="1" stop-color="#FF8E4F" />
        </linearGradient>
    </defs>
</svg>
