<svg width="344" height="156" viewBox="0 0 344 156" fill="none" xmlns="http://www.w3.org/2000/svg">
    <g clip-path="url(#clip0_1437_107097)">
        <rect width="344" height="156" rx="8" fill="#1B1340" />
        <rect width="344" height="156" rx="8" fill="url(#paint0_radial_1437_107097)" />
        <path
            d="M253 67.7778C253 60.7208 258.721 55 265.778 55H286.222C293.279 55 299 60.7208 299 67.7778V88.2222C299 95.2792 293.279 101 286.222 101H265.778C258.721 101 253 95.2792 253 88.2222V67.7778Z"
            fill="white"
        />
        <path
            fill-rule="evenodd"
            clip-rule="evenodd"
            d="M71.7801 74.361L71.7816 74.3623L64 83.0001L54 71.993V67.245C54 66.6998 54.6355 66.4015 55.0549 66.7498L66.1495 75.9634C67.2223 76.8543 68.7777 76.8543 69.8506 75.9634L71.7801 74.361Z"
            fill="url(#paint1_linear_1437_107097)"
        />
        <path
            d="M76 70.8564L71.7801 74.3609L71.7816 74.3622L66.1943 79.2977C65.2425 80.1384 63.8198 80.1596 62.8434 79.3476L54 71.9929V86.1035C54 87.7032 55.2968 89 56.8966 89H76L78 79.9282L76 70.8564Z"
            fill="url(#paint2_radial_1437_107097)"
        />
        <path
            fill-rule="evenodd"
            clip-rule="evenodd"
            d="M76 70.8601V89.0001L79.1034 89.0001C80.7032 89.0001 82 87.7032 82 86.1036V67.245C82 66.6998 81.3645 66.4015 80.9451 66.7499L76 70.8601Z"
            fill="url(#paint3_linear_1437_107097)"
        />
        <path
            d="M109 66C107.343 66 106 67.3431 106 69V70L107 71V88L127 78L128 79H134V69C134 67.3431 132.657 66 131 66H109Z"
            fill="url(#paint4_linear_1437_107097)"
        />
        <path
            d="M125.643 70H106V86.119C106 87.7102 107.29 89 108.881 89H119L124.251 81.1234C124.759 79.8779 125.982 79 127.41 79H128L128 72.3571C128 71.0553 126.945 70 125.643 70Z"
            fill="url(#paint5_radial_1437_107097)"
        />
        <path
            d="M119 89V87.9246C119 87.328 119.213 86.751 119.602 86.2979L124.655 80.4006C124.759 80.2574 124.875 80.1226 125 79.9976L124.655 80.4006C124.243 80.9641 124 81.6587 124 82.41V89L119 89Z"
            fill="#B8D7FF"
        />
        <path
            d="M126.6 85.3855H127.62C127.662 85.5615 127.765 85.717 127.913 85.8255C128.058 85.9341 128.238 85.9898 128.422 85.981C128.883 85.981 129.188 85.7287 129.188 85.3591C129.188 84.9894 128.872 84.7841 128.244 84.7841H127.839V83.9509H128.191C128.798 83.9509 129.046 83.7279 129.046 83.3964C129.046 83.0649 128.777 82.8361 128.404 82.8361C128.238 82.8273 128.073 82.8801 127.949 82.9887C127.821 83.0972 127.744 83.2497 127.73 83.414H126.745C126.78 82.8332 127.242 82 128.398 82C129.327 82 129.969 82.5251 129.969 83.2644C129.969 83.502 129.895 83.7338 129.753 83.9245C129.611 84.1152 129.413 84.2589 129.185 84.3294V84.344C129.451 84.391 129.691 84.5318 129.86 84.7401C130.028 84.9484 130.117 85.2095 130.108 85.4794C130.108 86.2803 129.369 86.8083 128.413 86.8083C127.398 86.8142 126.674 86.2421 126.6 85.3855Z"
            fill="#8F69FF"
        />
        <path
            d="M131.892 82.0796H132.634V86.7413H131.676V83.1651L130.753 83.787V82.8453L131.892 82.0796Z"
            fill="#8F69FF"
        />
        <path
            d="M158 69L162 67L169 71H181V88L180 89H161C159.343 89 158 87.6569 158 86V69Z"
            fill="url(#paint6_radial_1437_107097)"
        />
        <path
            fill-rule="evenodd"
            clip-rule="evenodd"
            d="M168.961 67.4262C169.474 67.7991 170.092 68 170.726 68L183 68C184.657 68 186 69.3431 186 71V86C186 87.6569 184.657 89 183 89H180V74.5C180 73.1193 178.881 72 177.5 72H167C166.351 72 165.719 71.7895 165.2 71.4L162.8 69.6C162.281 69.2105 161.649 69 161 69L158 69C158 67.3431 159.343 66 161 66H166.024C166.658 66 167.276 66.2009 167.789 66.5738L168.961 67.4262Z"
            fill="url(#paint7_linear_1437_107097)"
        />
        <path
            fill-rule="evenodd"
            clip-rule="evenodd"
            d="M221.247 89.1489C222.311 91.0619 225.044 91.1655 226.252 89.3386L237.517 72.304C238.712 70.4976 237.569 68.0756 235.406 67.8294L213.263 65.31C210.903 65.0414 209.222 67.5307 210.37 69.5949L210.46 69.7559L220.34 76.5259L220.22 87.2959L221.247 89.1489Z"
            fill="url(#paint8_linear_1437_107097)"
        />
        <path
            d="M221.881 87.3643L222.881 85.8731L230.475 74.4016C231.139 73.3986 230.505 72.0532 229.304 71.9152L210.457 69.7515L220.22 87.3034C220.577 87.9315 221.478 87.9661 221.881 87.3643Z"
            fill="url(#paint9_radial_1437_107097)"
        />
        <path
            d="M270.42 67.5372C272.373 65.5839 273.35 64.6073 274.476 64.2414C275.466 63.9195 276.533 63.9195 277.524 64.2414C278.65 64.6073 279.627 65.5839 281.58 67.5372L286.463 72.4198C288.416 74.3731 289.393 75.3497 289.759 76.4759C290.08 77.4665 290.08 78.5335 289.759 79.5241C289.393 80.6503 288.416 81.6269 286.463 83.5802L281.58 88.4628C279.627 90.4161 278.65 91.3927 277.524 91.7586C276.533 92.0805 275.466 92.0805 274.476 91.7586C273.35 91.3927 272.373 90.4161 270.42 88.4628L269.502 87.4337C268.946 86.8109 268.669 86.4995 268.47 86.1453C268.295 85.8312 268.166 85.4931 268.088 85.1418C268 84.7457 268 84.3284 268 83.4939L268 72.5061C268 71.6716 268 71.2543 268.088 70.8582C268.166 70.5069 268.295 70.1688 268.47 69.8547C268.669 69.5005 268.946 69.1891 269.502 68.5663L270.42 67.5372Z"
            fill="url(#paint10_radial_1437_107097)"
        />
        <path
            d="M270.42 67.5372C272.373 65.5839 273.35 64.6073 274.476 64.2414C275.466 63.9195 276.533 63.9195 277.524 64.2414C278.65 64.6073 279.627 65.5839 281.58 67.5372L286.463 72.4198C288.416 74.3731 289.393 75.3497 289.759 76.4759C290.08 77.4665 290.08 78.5335 289.759 79.5241C289.393 80.6503 288.416 81.6269 286.463 83.5802L281.58 88.4628C279.627 90.4161 278.65 91.3927 277.524 91.7586C276.533 92.0805 275.466 92.0805 274.476 91.7586C273.35 91.3927 272.373 90.4161 270.42 88.4628L269.502 87.4337C268.946 86.8109 268.669 86.4995 268.47 86.1453C268.295 85.8312 268.166 85.4931 268.088 85.1418C268 84.7457 268 84.3284 268 83.4939L268 72.5061C268 71.6716 268 71.2543 268.088 70.8582C268.166 70.5069 268.295 70.1688 268.47 69.8547C268.669 69.5005 268.946 69.1891 269.502 68.5663L270.42 67.5372Z"
            fill="url(#paint11_linear_1437_107097)"
        />
        <path
            d="M270.071 67.8858C271.048 66.9092 271.536 66.4208 272.099 66.2379C272.594 66.077 273.128 66.077 273.623 66.2379C274.186 66.4208 274.675 66.9092 275.651 67.8858L282.975 75.2098C283.952 76.1864 284.44 76.6747 284.623 77.2378C284.784 77.7331 284.784 78.2666 284.623 78.7619C284.44 79.325 283.952 79.8133 282.975 80.7899L275.651 88.1139C274.675 89.0905 274.186 89.5788 273.623 89.7618C273.128 89.9227 272.594 89.9227 272.099 89.7618C271.536 89.5788 271.048 89.0905 270.071 88.1139L265.537 83.58C263.584 81.6268 262.607 80.6501 262.241 79.524C261.92 78.5334 261.92 77.4663 262.241 76.4757C262.607 75.3495 263.584 74.3729 265.537 72.4197L270.071 67.8858Z"
            fill="url(#paint12_radial_1437_107097)"
        />
    </g>
    <defs>
        <radialGradient
            id="paint0_radial_1437_107097"
            cx="0"
            cy="0"
            r="1"
            gradientUnits="userSpaceOnUse"
            gradientTransform="translate(364.622 199.964) rotate(-113.059) scale(217.328 309.994)"
        >
            <stop stop-color="#FFD580" />
            <stop offset="0.0625" stop-color="#F6CC88" />
            <stop offset="0.182292" stop-color="#E4BB98" />
            <stop offset="0.291667" stop-color="#D2AAA8" />
            <stop offset="0.34375" stop-color="#C9A2AB" />
            <stop offset="0.453125" stop-color="#BB95B1" />
            <stop offset="0.583333" stop-color="#9A75A3" />
            <stop offset="0.723958" stop-color="#724C91" />
            <stop offset="0.895833" stop-color="#312255" />
            <stop offset="1" stop-color="#1B1340" />
        </radialGradient>
        <linearGradient
            id="paint1_linear_1437_107097"
            x1="64.507"
            y1="83.1524"
            x2="55.1163"
            y2="50.5306"
            gradientUnits="userSpaceOnUse"
        >
            <stop stop-color="#E3D9FF" />
            <stop offset="1" stop-color="#7341FF" />
        </linearGradient>
        <radialGradient
            id="paint2_radial_1437_107097"
            cx="0"
            cy="0"
            r="1"
            gradientUnits="userSpaceOnUse"
            gradientTransform="translate(77.8954 73.0774) scale(27.9882 26.381)"
        >
            <stop offset="0.5561" stop-color="#6D4AFF" />
            <stop offset="0.9944" stop-color="#AA8EFF" />
        </radialGradient>
        <linearGradient
            id="paint3_linear_1437_107097"
            x1="91.0552"
            y1="103.522"
            x2="69.4546"
            y2="56.9254"
            gradientUnits="userSpaceOnUse"
        >
            <stop offset="0.271" stop-color="#E3D9FF" />
            <stop offset="1" stop-color="#7341FF" />
        </linearGradient>
        <linearGradient
            id="paint4_linear_1437_107097"
            x1="129.522"
            y1="81.0361"
            x2="113.191"
            y2="57.3084"
            gradientUnits="userSpaceOnUse"
        >
            <stop stop-color="#BFE8FF" />
            <stop offset="0.3075" stop-color="#BFABFF" />
            <stop offset="1" stop-color="#7341FF" />
        </linearGradient>
        <radialGradient
            id="paint5_radial_1437_107097"
            cx="0"
            cy="0"
            r="1"
            gradientUnits="userSpaceOnUse"
            gradientTransform="translate(127.159 54.149) scale(44.9183 40.1408)"
        >
            <stop offset="0.502942" stop-color="#6D4AFF" />
            <stop offset="0.9944" stop-color="#06B8FF" />
        </radialGradient>
        <radialGradient
            id="paint6_radial_1437_107097"
            cx="0"
            cy="0"
            r="1"
            gradientUnits="userSpaceOnUse"
            gradientTransform="translate(182.926 51.8864) scale(42.9176 45.5519)"
        >
            <stop offset="0.5561" stop-color="#6D4AFF" />
            <stop offset="1" stop-color="#FF50C3" />
        </radialGradient>
        <linearGradient
            id="paint7_linear_1437_107097"
            x1="157.631"
            y1="53.9968"
            x2="192.345"
            y2="92.4314"
            gradientUnits="userSpaceOnUse"
        >
            <stop stop-color="#7341FF" />
            <stop offset="0.3593" stop-color="#B487FF" />
            <stop offset="1" stop-color="#FFC8FF" />
        </linearGradient>
        <linearGradient
            id="paint8_linear_1437_107097"
            x1="235.32"
            y1="89.1476"
            x2="217.303"
            y2="58.0776"
            gradientUnits="userSpaceOnUse"
        >
            <stop offset="0.0660125" stop-color="#8EFFEE" />
            <stop offset="0.4499" stop-color="#C9C7FF" />
            <stop offset="1" stop-color="#7341FF" />
        </linearGradient>
        <radialGradient
            id="paint9_radial_1437_107097"
            cx="0"
            cy="0"
            r="1"
            gradientUnits="userSpaceOnUse"
            gradientTransform="translate(221.907 61.7164) rotate(93.7553) scale(28.5876 36.8668)"
        >
            <stop offset="0.403126" stop-color="#6D4AFF" />
            <stop offset="0.9944" stop-color="#00F0C3" />
        </radialGradient>
        <radialGradient
            id="paint10_radial_1437_107097"
            cx="0"
            cy="0"
            r="1"
            gradientUnits="userSpaceOnUse"
            gradientTransform="translate(270.45 92.5457) rotate(-58.142) scale(23.3731 36.5508)"
        >
            <stop stop-color="#FFD580" />
            <stop offset="0.09375" stop-color="#F6C592" />
            <stop offset="0.205" stop-color="#EBB6A2" />
            <stop offset="0.324466" stop-color="#DFA5AF" />
            <stop offset="0.42875" stop-color="#D397BE" />
            <stop offset="0.53375" stop-color="#C486CB" />
            <stop offset="0.64875" stop-color="#B578D9" />
            <stop offset="0.77125" stop-color="#A166E5" />
            <stop offset="0.89125" stop-color="#8B57F2" />
            <stop offset="1" stop-color="#704CFF" />
        </radialGradient>
        <linearGradient
            id="paint11_linear_1437_107097"
            x1="269.486"
            y1="58.4403"
            x2="274.931"
            y2="91.6785"
            gradientUnits="userSpaceOnUse"
        >
            <stop stop-color="#6D4AFF" />
            <stop offset="0.392009" stop-color="#B39FFB" stop-opacity="0.978022" />
            <stop offset="1" stop-color="#FFE8DB" stop-opacity="0.8" />
        </linearGradient>
        <radialGradient
            id="paint12_radial_1437_107097"
            cx="0"
            cy="0"
            r="1"
            gradientUnits="userSpaceOnUse"
            gradientTransform="translate(268.397 89.6996) rotate(-58.142) scale(18.8001 29.3996)"
        >
            <stop stop-color="#FFD580" />
            <stop offset="0.09375" stop-color="#F6C592" />
            <stop offset="0.205" stop-color="#EBB6A2" />
            <stop offset="0.324466" stop-color="#DFA5AF" />
            <stop offset="0.42875" stop-color="#D397BE" />
            <stop offset="0.53375" stop-color="#C486CB" />
            <stop offset="0.64875" stop-color="#B578D9" />
            <stop offset="0.77125" stop-color="#A166E5" />
            <stop offset="0.89125" stop-color="#8B57F2" />
            <stop offset="1" stop-color="#704CFF" />
        </radialGradient>
        <clipPath id="clip0_1437_107097">
            <rect width="344" height="156" rx="8" fill="white" />
        </clipPath>
    </defs>
</svg>
