<svg width="141" height="44" fill="none" xmlns="http://www.w3.org/2000/svg"><path d="M45.835 38.5v-33h-.917v33h.917Z" fill="#A8A9AD"/><path d="M60.867 20.172c0 1.674-.797 3.02-2.172 3.675-.58.273-1.123.419-2.516.419h-1.394v4.658h-2.534V16.278h3.312c2.136 0 2.788.218 3.494.618 1.176.655 1.81 1.82 1.81 3.276Zm-2.77.054c0-1.183-.633-1.892-1.701-1.892h-1.61v3.857h1.32c1.032 0 1.34-.127 1.684-.655.217-.345.307-.71.307-1.31Zm9.623-.637-.67 2.148a1.363 1.363 0 0 0-.705-.182c-.543 0-1.032.254-1.484.782v6.587h-2.426v-6.223c0-1.256-.145-2.202-.344-2.73l2.172-.582c.218.382.344.8.38 1.329.525-.71 1.267-1.329 2.172-1.329.362 0 .525.037.905.2Zm8.32 4.64c0 1.602-.362 2.694-1.158 3.603-.706.8-1.63 1.292-3.06 1.292-2.515 0-4.162-1.892-4.162-4.822s1.665-4.876 4.163-4.876c1.321 0 2.353.455 3.15 1.4.741.874 1.067 1.893 1.067 3.403Zm-2.642-.018c0-1.255-.163-2.074-.49-2.493-.234-.309-.615-.491-1.049-.491-.58 0-1.05.364-1.249.946-.163.492-.253 1.147-.253 2.075 0 1.073.109 1.874.308 2.347.217.51.76.764 1.23.764 1.05 0 1.503-.946 1.503-3.148Zm9.116 4.513c-.706.291-1.34.418-1.973.418-1.23 0-2.208-.546-2.498-1.364-.145-.4-.163-.583-.163-1.438v-5.058h-.923v-1.674h.923c0-.91 0-1.51.09-2.202l2.462-.619c-.09.855-.145 1.874-.145 2.82h2.172l-.615 1.675h-1.556v4.676c0 1.183.217 1.492 1.05 1.492.217 0 .434-.054.868-.182l.308 1.456Zm8.555-3.694H85.71v.073c0 1.437.706 2.256 1.955 2.256.833 0 1.611-.31 2.353-.928l.941 1.456c-1.068.873-2.19 1.292-3.493 1.292-2.66 0-4.38-1.893-4.38-4.822 0-1.674.344-2.784 1.158-3.694.76-.855 1.684-1.256 2.914-1.256 1.068 0 2.082.364 2.68.983.85.873 1.23 2.129 1.23 4.076v.564Zm-2.516-1.783v-.11c0-.69-.072-1.055-.29-1.4-.235-.364-.579-.546-1.068-.546-.922 0-1.447.728-1.447 2.02v.036h2.805Zm10.781 4.622c-.362.364-.525.491-.85.691-.652.382-1.376.582-2.263.582-2.552 0-4.036-1.783-4.036-4.803 0-2.148.814-3.567 1.9-4.313.616-.418 1.52-.691 2.3-.691.614 0 1.284.145 1.791.418.344.182.507.31.905.655l-1.177 1.601c-.488-.454-1.013-.727-1.466-.727-1.086 0-1.574.946-1.574 3.13 0 1.219.163 1.946.47 2.347.254.327.67.527 1.086.527.561 0 1.068-.236 1.665-.764l.145-.127 1.104 1.474Zm6.202.855c-.705.291-1.339.418-1.972.418-1.231 0-2.209-.546-2.498-1.364-.145-.4-.163-.583-.163-1.438v-5.058h-.923v-1.674h.923c0-.91 0-1.51.09-2.202l2.462-.619a28.12 28.12 0 0 0-.145 2.82h2.172l-.615 1.675h-1.557v4.676c0 1.183.217 1.492 1.05 1.492.217 0 .434-.054.869-.182l.307 1.456Z" fill="#E7792B"/><path d="M116.022 25.394c0 1.747-1.086 3.385-3.294 3.494-.398.018-.923.036-1.611.036h-3.964V16.278h4.254c1.538 0 2.335.236 3.095.91.706.618 1.032 1.346 1.032 2.256 0 .855-.29 1.583-.851 2.11-.362.346-.579.474-1.158.656 1.556.454 2.497 1.528 2.497 3.184Zm-2.859-.31c0-.727-.362-1.382-.924-1.546-.307-.091-.506-.11-.977-.11h-1.575v3.422h1.647c.525 0 .905-.073 1.177-.292.38-.29.652-.873.652-1.473Zm-.272-5.203c0-.528-.271-1.092-.724-1.274-.217-.091-.489-.164-1.05-.164h-1.466v2.893h1.502c.598 0 .869-.054 1.086-.164.344-.182.652-.782.652-1.291Zm12.7 8.315-1.72.983a2.139 2.139 0 0 1-.724-.91c-.597.582-1.466.892-2.443.892-1.303 0-2.425-.62-2.733-1.51-.145-.42-.199-.91-.199-1.857v-5.968l2.389-.455v5.987c0 .837.072 1.273.199 1.528.127.255.489.437.851.437.597 0 1.321-.437 1.502-.892v-6.55l2.317-.492v7.115c0 .619.199 1.255.561 1.692Zm9.641-8.588-3.367 9.462c-.633 1.801-1.104 2.584-1.773 3.075-.616.455-1.412.746-2.245.855l-.832-1.601c.525-.146 1.14-.364 1.502-.619.272-.2.489-.455.688-.764.235-.382.308-.546.525-1.092h-.616c-.289-.873-.778-2.33-.868-2.62l-2.191-6.55 2.48-.292 1.611 5.44c.145.547.452 1.802.489 1.93 0-.055.181-1.038.289-1.493.073-.309.217-.855.362-1.292l1.394-4.44h2.552ZM138.063 22.1h-.448a10.546 10.546 0 0 1-.176-.31c-.187-.342-.244-.434-.312-.464a.196.196 0 0 0-.06-.017v.792h-.372v-1.897h.703c.334 0 .554.223.554.556 0 .284-.187.52-.421.524.038.03.055.047.079.08.109.136.453.737.453.737Zm-.51-1.331c0-.118-.046-.2-.136-.232a.677.677 0 0 0-.214-.028h-.136v.514h.128c.163 0 .233-.017.285-.063a.26.26 0 0 0 .073-.191Z" fill="#A8A9AD"/><path d="M138.063 22.1h-.448a10.546 10.546 0 0 1-.176-.31c-.187-.342-.244-.434-.312-.464a.196.196 0 0 0-.06-.017v.792h-.372v-1.897h.703c.334 0 .554.223.554.556 0 .284-.187.52-.421.524.038.03.055.047.079.08.109.136.453.737.453.737Zm-.51-1.331c0-.118-.046-.2-.136-.232a.677.677 0 0 0-.214-.028h-.136v.514h.128c.163 0 .233-.017.285-.063a.26.26 0 0 0 .073-.191Z" fill="#A8A9AD"/><path d="M137.334 22.858c.917 0 1.659-.746 1.659-1.668 0-.92-.742-1.668-1.659-1.668-.916 0-1.659.747-1.659 1.669 0 .92.743 1.668 1.659 1.668Zm0-.379a1.285 1.285 0 0 1-1.282-1.288c0-.712.574-1.29 1.282-1.29.708 0 1.282.578 1.282 1.29 0 .711-.574 1.288-1.282 1.288Z" fill="#A8A9AD"/><path fill-rule="evenodd" clip-rule="evenodd" d="M.001 10v25h38.8V10H.001Z" fill="#fff"/><path fill-rule="evenodd" clip-rule="evenodd" d="M4.585 34.5H38.5V22.583S27.116 30.816 4.585 34.5Z" fill="#E7792B"/><path fill-rule="evenodd" clip-rule="evenodd" d="M38.301 10.5H.501v24h37.8v-24ZM.001 10v25h38.8V10H.001Z" fill="#1A1918"/><path d="M20.733 23.24c1.634 0 2.96-1.308 2.96-2.92 0-1.613-1.326-2.92-2.96-2.92s-2.96 1.307-2.96 2.92c0 1.612 1.326 2.92 2.96 2.92Z" fill="url(#a)"/><path fill-rule="evenodd" clip-rule="evenodd" d="M4.212 17.52H2.646v5.399h1.558c.828 0 1.427-.193 1.952-.623.624-.51.993-1.278.993-2.072 0-1.594-1.206-2.703-2.937-2.703Zm1.247 4.056c-.336.299-.771.429-1.46.429h-.287v-3.57h.286c.69 0 1.108.122 1.46.437.37.324.592.827.592 1.343 0 .519-.222 1.037-.591 1.36ZM7.64 17.52h1.067v5.399H7.64V17.52ZM11.317 19.592c-.64-.234-.829-.388-.829-.68 0-.34.335-.598.795-.598.32 0 .583.13.86.437l.56-.721a2.413 2.413 0 0 0-1.608-.599c-.969 0-1.707.664-1.707 1.547 0 .744.344 1.124 1.346 1.48.418.146.63.243.738.308.213.137.32.332.32.558 0 .438-.352.762-.829.762-.509 0-.918-.251-1.164-.72l-.69.655c.492.712 1.082 1.027 1.895 1.027 1.108 0 1.886-.727 1.886-1.772 0-.857-.36-1.246-1.573-1.684ZM13.227 20.223c0 1.587 1.263 2.817 2.888 2.817.46 0 .853-.089 1.338-.314v-1.24c-.427.422-.805.592-1.288.592-1.075 0-1.838-.77-1.838-1.863 0-1.036.787-1.853 1.788-1.853.509 0 .894.179 1.338.607V17.73c-.468-.234-.854-.331-1.313-.331-1.617 0-2.913 1.255-2.913 2.824ZM25.914 21.146l-1.459-3.625H23.29l2.322 5.536h.574l2.364-5.536h-1.157l-1.478 3.625ZM29.032 22.919h3.026v-.914h-1.96v-1.457h1.888v-.914h-1.888v-1.199h1.96v-.914h-3.026v5.398ZM36.284 19.114c0-1.01-.706-1.593-1.937-1.593h-1.582v5.398h1.066V20.75h.14l1.476 2.169h1.313l-1.723-2.274c.804-.162 1.247-.704 1.247-1.53Zm-2.141.892h-.312V18.37h.328c.665 0 1.026.275 1.026.8 0 .543-.36.835-1.042.835ZM36.965 17.724c0-.095-.066-.147-.182-.147h-.155v.474h.115v-.183l.135.184h.14l-.158-.196c.068-.018.105-.067.105-.133Zm-.203.064h-.019v-.124h.02c.058 0 .087.02.087.061 0 .042-.03.063-.088.063Z" fill="#1A1918"/><path fill-rule="evenodd" clip-rule="evenodd" d="M36.806 17.4a.414.414 0 1 0 0 .827.415.415 0 0 0 .414-.413.415.415 0 0 0-.414-.414Zm-.002.753a.337.337 0 0 1-.334-.339c0-.189.149-.34.334-.34.183 0 .332.155.332.34 0 .187-.149.34-.332.34Z" fill="#1A1918"/><defs><radialGradient id="a" cx="0" cy="0" r="1" gradientUnits="userSpaceOnUse" gradientTransform="matrix(6.72376 0 0 6.63371 23.692 23.24)"><stop stop-color="#F59900"/><stop offset=".21" stop-color="#F39501"/><stop offset=".908" stop-color="#CE3C0B"/><stop offset="1" stop-color="#A4420A"/></radialGradient></defs></svg>