<svg xmlns="http://www.w3.org/2000/svg" width="140" height="44" fill="none" viewBox="0 0 140 44">
  <defs/>
  <path fill="#A4A9B5" fill-opacity=".6" d="M45.83 38.5v-33h-.91v33h.91z"/>
  <path fill="#696F7D" fill-opacity=".6" d="M60.87 20.17c0 1.68-.8 3.02-2.18 3.68a5.2 5.2 0 01-2.51.42h-1.4v4.65h-2.53V16.28h3.31c2.14 0 2.79.22 3.5.62a3.56 3.56 0 011.8 3.27zm-2.77.06c0-1.19-.64-1.9-1.7-1.9h-1.62v3.86h1.33c1.03 0 1.33-.13 1.68-.65.22-.35.3-.71.3-1.31zm9.62-.64l-.67 2.15a1.36 1.36 0 00-.7-.19c-.55 0-1.04.26-1.5.79v6.58h-2.42V22.7c0-1.25-.14-2.2-.34-2.73l2.17-.58a3 3 0 01.38 1.33c.53-.71 1.27-1.33 2.17-1.33.37 0 .53.04.9.2zm8.32 4.64c0 1.6-.36 2.7-1.16 3.6-.7.8-1.63 1.3-3.06 1.3-2.51 0-4.16-1.9-4.16-4.83s1.66-4.87 4.16-4.87c1.32 0 2.35.45 3.15 1.4.74.87 1.07 1.89 1.07 3.4zm-2.64-.02c0-1.25-.17-2.07-.5-2.5a1.3 1.3 0 00-1.04-.48c-.58 0-1.05.36-1.25.94-.16.5-.25 1.15-.25 2.08 0 1.07.1 1.87.3 2.34.22.51.76.77 1.23.77 1.05 0 1.5-.95 1.5-3.15zm9.11 4.51c-.7.3-1.34.42-1.97.42-1.23 0-2.2-.54-2.5-1.36-.14-.4-.16-.58-.16-1.44v-5.06h-.92v-1.67h.92c0-.91 0-1.51.09-2.2l2.46-.62c-.09.85-.14 1.87-.14 2.82h2.17l-.62 1.67H80.3v4.68c0 1.18.21 1.49 1.05 1.49.21 0 .43-.05.86-.18l.31 1.45zm8.56-3.69H85.7v.07c0 1.44.7 2.26 1.95 2.26.84 0 1.62-.31 2.36-.93l.94 1.46a5.3 5.3 0 01-3.5 1.29c-2.65 0-4.37-1.9-4.37-4.82 0-1.68.34-2.79 1.15-3.7a3.63 3.63 0 012.92-1.25c1.07 0 2.08.36 2.68.98.85.87 1.23 2.13 1.23 4.08v.56zm-2.52-1.78v-.11c0-.7-.07-1.06-.29-1.4-.23-.37-.58-.55-1.07-.55-.92 0-1.44.73-1.44 2.02v.04h2.8zm10.78 4.62c-.36.36-.52.49-.85.69-.65.38-1.37.58-2.26.58-2.55 0-4.04-1.78-4.04-4.8 0-2.15.82-3.57 1.9-4.31.62-.42 1.52-.7 2.3-.7.62 0 1.29.15 1.8.42.34.19.5.31.9.66L97.9 22c-.49-.46-1.01-.73-1.46-.73-1.09 0-1.58.95-1.58 3.13 0 1.22.17 1.95.47 2.35.26.33.67.53 1.09.53.56 0 1.07-.24 1.66-.77l.15-.13 1.1 1.48zm6.2.85c-.7.3-1.33.42-1.97.42-1.23 0-2.2-.54-2.5-1.36-.14-.4-.16-.58-.16-1.44v-5.06h-.92v-1.67h.92c0-.91 0-1.51.1-2.2l2.45-.62c-.09.85-.14 1.87-.14 2.82h2.17l-.61 1.67h-1.56v4.68c0 1.18.22 1.49 1.05 1.49.22 0 .43-.05.87-.18l.3 1.45z"/>
  <path fill="#A4A9B5" fill-opacity=".6" d="M116.02 25.4c0 1.74-1.08 3.38-3.3 3.49-.4.02-.92.03-1.6.03h-3.97V16.28h4.26c1.53 0 2.33.23 3.1.9.7.63 1.02 1.35 1.02 2.26a2.8 2.8 0 01-.85 2.11 2.4 2.4 0 01-1.16.66c1.56.45 2.5 1.53 2.5 3.18zm-2.86-.32c0-.72-.36-1.38-.92-1.54-.3-.1-.5-.11-.98-.11h-1.57v3.42h1.64c.53 0 .9-.07 1.18-.3.38-.28.65-.86.65-1.47zm-.27-5.2c0-.53-.27-1.1-.72-1.27-.22-.1-.5-.17-1.05-.17h-1.47v2.9h1.5c.6 0 .87-.06 1.09-.17.34-.18.65-.78.65-1.29zm12.7 8.32l-1.72.98c-.3-.22-.56-.53-.72-.91-.6.58-1.47.9-2.45.9-1.3 0-2.42-.63-2.73-1.52a5.6 5.6 0 01-.2-1.86v-5.96l2.39-.46v5.99c0 .83.07 1.27.2 1.53.13.25.49.43.85.43.6 0 1.32-.43 1.5-.89v-6.55l2.32-.5v7.12c0 .62.2 1.26.56 1.7zm9.64-8.6l-3.37 9.47c-.63 1.8-1.1 2.58-1.77 3.07-.62.46-1.41.75-2.24.86l-.84-1.6a5.43 5.43 0 001.5-.62c.28-.2.5-.45.7-.76.23-.39.3-.55.52-1.1h-.62l-.87-2.62-2.19-6.55 2.48-.29 1.62 5.44.48 1.93a16.6 16.6 0 01.65-2.78l1.4-4.44h2.55zM138.06 22.1h-.45l-.17-.31c-.19-.34-.25-.43-.31-.46a.2.2 0 00-.06-.02v.8h-.38v-1.9h.7c.34 0 .56.22.56.55 0 .28-.19.52-.42.52l.08.08c.1.14.45.74.45.74zm-.5-1.33c0-.12-.05-.2-.14-.23a.68.68 0 00-.22-.03h-.13v.51h.12c.17 0 .24-.01.29-.06a.26.26 0 00.07-.2z"/>
  <path fill="#A8A9AD" fill-opacity=".6" d="M138.06 22.1h-.45l-.17-.31c-.19-.34-.25-.43-.31-.46a.2.2 0 00-.06-.02v.8h-.38v-1.9h.7c.34 0 .56.22.56.55 0 .28-.19.52-.42.52l.08.08c.1.14.45.74.45.74zm-.5-1.33c0-.12-.05-.2-.14-.23a.68.68 0 00-.22-.03h-.13v.51h.12c.17 0 .24-.01.29-.06a.26.26 0 00.07-.2z"/>
  <path fill="#A4A9B5" fill-opacity=".6" d="M137.33 22.86c.92 0 1.66-.75 1.66-1.67 0-.92-.74-1.67-1.66-1.67-.91 0-1.66.75-1.66 1.67 0 .92.75 1.67 1.66 1.67zm0-.38c-.7 0-1.28-.58-1.28-1.29 0-.71.57-1.29 1.28-1.29.71 0 1.28.58 1.28 1.3 0 .7-.57 1.28-1.28 1.28z"/>
  <path fill="url(#paint0_radial)" d="M20.73 23.24c1.64 0 2.96-1.3 2.96-2.92a2.94 2.94 0 00-2.96-2.92 2.94 2.94 0 00-2.96 2.92 2.94 2.94 0 002.96 2.92z"/>
  <path fill="#696F7D" fill-opacity=".6" fill-rule="evenodd" d="M4.21 17.52H2.64v5.4H4.2c.83 0 1.43-.2 1.95-.62a2.7 2.7 0 001-2.08c0-1.59-1.2-2.7-2.94-2.7zm1.25 4.06c-.34.3-.77.42-1.46.42H3.7v-3.56H4c.69 0 1.1.12 1.46.43a1.84 1.84 0 010 2.7zM7.64 17.52H8.7v5.4H7.64v-5.4zM11.32 19.6c-.64-.24-.83-.4-.83-.69 0-.34.33-.6.8-.6.31 0 .57.13.85.44l.56-.72c-.46-.4-1-.6-1.6-.6-.97 0-1.71.66-1.71 1.55 0 .74.34 1.12 1.34 1.48.42.14.63.24.74.3.21.14.32.34.32.56 0 .44-.35.77-.83.77-.5 0-.92-.26-1.16-.72l-.7.65c.5.71 1.09 1.03 1.9 1.03 1.11 0 1.89-.73 1.89-1.77 0-.86-.36-1.25-1.57-1.69zM13.23 20.22a2.81 2.81 0 002.88 2.82c.46 0 .86-.09 1.34-.31v-1.24c-.43.42-.8.59-1.29.59a1.78 1.78 0 01-1.83-1.86 1.8 1.8 0 011.78-1.86c.51 0 .9.18 1.34.6v-1.23a2.86 2.86 0 00-4.23 2.5zM25.91 21.15l-1.46-3.63H23.3l2.32 5.54h.57l2.37-5.54h-1.16l-1.48 3.63zM29.03 22.92h3.03V22H30.1v-1.45h1.88v-.92H30.1v-1.2h1.96v-.9h-3.03v5.39zM36.28 19.11c0-1-.7-1.59-1.93-1.59h-1.59v5.4h1.07v-2.17h.14l1.48 2.17h1.3l-1.71-2.28c.8-.16 1.24-.7 1.24-1.53zm-2.14.9h-.31v-1.64h.33c.66 0 1.02.28 1.02.8 0 .54-.36.84-1.04.84zM36.96 17.72c0-.1-.06-.14-.18-.14h-.15v.47h.11v-.18l.14.18h.14l-.16-.2c.07-.01.1-.06.1-.13zm-.2.07h-.02v-.13h.02c.06 0 .09.02.09.07 0 .04-.03.06-.09.06z" clip-rule="evenodd"/>
  <path fill="#696F7D" fill-opacity=".6" fill-rule="evenodd" d="M36.8 17.4a.41.41 0 100 .83c.23 0 .42-.19.42-.42a.42.42 0 00-.42-.41zm0 .75a.34.34 0 01-.33-.34c0-.18.15-.34.33-.34.19 0 .34.16.34.34 0 .2-.15.34-.34.34z" clip-rule="evenodd"/>
  <path fill="#A4A9B5" fill-opacity=".6" fill-rule="evenodd" d="M.5 10.5h37.8v12.22c-1.6 1.1-12.91 8.38-33.72 11.78H38.3.5v-24zM0 35V10h38.8v25H0z" clip-rule="evenodd"/>
  <defs>
    <radialGradient id="paint0_radial" cx="0" cy="0" r="1" gradientTransform="matrix(6.72376 0 0 6.63371 23.7 23.24)" gradientUnits="userSpaceOnUse">
      <stop stop-color="#BBBFC9" stop-opacity=".6"/>
      <stop offset=".21" stop-color="#BAC0CE" stop-opacity=".6"/>
      <stop offset=".91" stop-color="#6F7177" stop-opacity=".6"/>
      <stop offset="1" stop-color="#5E6169" stop-opacity=".6"/>
    </radialGradient>
  </defs>
</svg>
