<svg xmlns="http://www.w3.org/2000/svg" width="60" height="44" fill="none" viewBox="0 0 60 44">
  <g clip-path="url(#clip0)">
    <path fill="#179BD7" fill-rule="evenodd" d="M41.026 18.368c-.255 1.674-1.535 1.674-2.772 1.674h-.704l.494-3.126a.388.388 0 01.384-.327h.323c.842 0 1.638 0 2.048.479.245.287.32.712.227 1.3zM40.487 14H35.82c-.32 0-.59.232-.64.547l-1.888 11.959a.389.389 0 00.384.449h2.395a.454.454 0 00.448-.383l.536-3.39a.648.648 0 01.64-.547h1.477c3.074 0 4.849-1.487 5.312-4.434.209-1.288.008-2.3-.595-3.01-.664-.779-1.84-1.191-3.402-1.191z" clip-rule="evenodd"/>
    <path fill="#253B80" fill-rule="evenodd" d="M7.738 18.368c-.255 1.674-1.534 1.674-2.772 1.674h-.704l.494-3.126a.388.388 0 01.384-.327h.323c.843 0 1.638 0 2.048.479.246.287.32.712.227 1.3zM7.2 14H2.533c-.32 0-.591.232-.641.547L.005 26.506a.389.389 0 00.384.449h2.229c.318 0 .59-.232.64-.547l.51-3.226a.648.648 0 01.64-.547h1.476c3.075 0 4.85-1.487 5.312-4.434.21-1.288.009-2.3-.595-3.01C9.938 14.413 8.761 14 7.2 14zM18.035 22.66c-.216 1.277-1.23 2.134-2.523 2.134-.648 0-1.167-.209-1.5-.603-.33-.391-.455-.949-.35-1.569.2-1.265 1.23-2.149 2.504-2.149.634 0 1.15.21 1.49.609.342.401.477.961.379 1.579zm3.114-4.346h-2.235a.39.39 0 00-.384.328l-.098.625-.156-.226c-.484-.702-1.563-.937-2.64-.937-2.47 0-4.578 1.87-4.989 4.492-.213 1.308.09 2.558.832 3.43.682.802 1.655 1.136 2.815 1.136 1.99 0 3.094-1.277 3.094-1.277l-.1.62a.389.389 0 00.384.45h2.013c.32 0 .59-.232.64-.547l1.209-7.645a.389.389 0 00-.385-.449z" clip-rule="evenodd"/>
    <path fill="#179BD7" fill-rule="evenodd" d="M51.322 22.66c-.216 1.277-1.23 2.134-2.522 2.134-.648 0-1.168-.209-1.501-.603-.331-.391-.455-.949-.35-1.569.2-1.265 1.23-2.149 2.504-2.149.635 0 1.15.21 1.49.609.342.401.477.961.38 1.579zm3.115-4.346h-2.235a.39.39 0 00-.385.328l-.098.625-.156-.226c-.484-.702-1.563-.937-2.64-.937-2.469 0-4.578 1.87-4.988 4.492-.214 1.308.09 2.558.832 3.43.682.802 1.655 1.136 2.814 1.136 1.99 0 3.094-1.277 3.094-1.277l-.1.62a.389.389 0 00.385.45h2.012c.32 0 .591-.232.64-.547l1.21-7.645a.389.389 0 00-.385-.449z" clip-rule="evenodd"/>
    <path fill="#253B80" fill-rule="evenodd" d="M33.052 18.314h-2.247a.647.647 0 00-.536.285l-3.098 4.56-1.313-4.382a.65.65 0 00-.622-.463h-2.208a.389.389 0 00-.368.514l2.473 7.256-2.326 3.28a.389.389 0 00.317.613h2.244a.65.65 0 00.533-.279l7.47-10.774a.389.389 0 00-.32-.61z" clip-rule="evenodd"/>
    <path fill="#179BD7" fill-rule="evenodd" d="M57.07 14.329l-1.914 12.177a.389.389 0 00.383.45h1.927c.319 0 .591-.233.64-.548l1.89-11.959A.389.389 0 0059.61 14h-2.156a.388.388 0 00-.384.329z" clip-rule="evenodd"/>
  </g>
  <defs>
    <clipPath id="clip0">
      <path fill="#fff" d="M0 0h60v44H0z"/>
    </clipPath>
  </defs>
</svg>
