<svg width="44" height="44" fill="none" xmlns="http://www.w3.org/2000/svg">
    <g clip-path="url(#clip0)">
        <path d="M44.07.03H.07v43.997H44.07V.03z" fill="#fff" />
        <path
            d="M43.1 22.03H1.042v21.028H43.1V22.03zM17.465 6.18l-4.131 9.88h-2.711L8.585 8.176c-.125-.485-.222-.667-.607-.87a10.713 10.713 0 00-2.522-.84l.06-.286h4.349a1.191 1.191 0 011.18 1.007l1.075 5.718 2.667-6.725h2.678zm10.587 6.667c0-2.61-3.605-2.753-3.58-3.918 0-.353.344-.731 1.084-.827a4.806 4.806 0 012.52.445l.444-2.096a6.89 6.89 0 00-2.388-.444c-2.53 0-4.305 1.333-4.32 3.264-.016 1.422 1.27 2.222 2.237 2.691.967.47 1.334.794 1.334 1.227 0 .667-.794.956-1.527.967a5.334 5.334 0 01-2.633-.631l-.465 2.166c.906.353 1.87.533 2.843.531 2.686 0 4.444-1.333 4.444-3.38l.007.005zm6.66 3.22h2.362L35.023 6.18h-2.18a1.162 1.162 0 00-1.09.725l-3.835 9.155h2.685l.533-1.475h3.278l.298 1.482zm-2.84-3.507l1.344-3.71.785 3.71h-2.13zm-10.76-6.38l-2.107 9.88h-2.56l2.113-9.88h2.554z"
            fill="#1A1F71"
        />
        <path
            d="M10.32 34.222c.37.206.784.315 1.207.318.577 0 .904-.273.904-.682 0-.409-.253-.598-.889-.829-.829-.289-1.353-.731-1.353-1.442 0-.822.68-1.436 1.778-1.436.41-.01.817.074 1.19.245l-.222.74a2.142 2.142 0 00-.993-.247c-.578 0-.822.304-.822.6 0 .384.289.562.956.813.864.334 1.28.771 1.28 1.48 0 .807-.607 1.496-1.887 1.496a2.954 2.954 0 01-1.356-.311l.207-.745zM16.889 32.992h-1.876v1.466h2.098v.747h-3.007v-4.982h2.89v.746h-2v1.29h1.895v.733zM21.417 35.055a3.29 3.29 0 01-1.295.223c-1.585 0-2.547-.992-2.547-2.51 0-1.642 1.15-2.626 2.667-2.626.413-.013.825.063 1.206.222l-.193.727a2.446 2.446 0 00-.978-.193c-1.013 0-1.746.637-1.746 1.835 0 1.096.638 1.791 1.74 1.791.338.003.674-.058.99-.178l.156.71zM23.025 30.223v2.909c0 .977.406 1.428 1.022 1.428.666 0 1.05-.444 1.05-1.428v-2.91H26v2.85c0 1.54-.793 2.222-2 2.222-1.155 0-1.904-.645-1.904-2.222v-2.85h.929zM26.977 30.29a7.834 7.834 0 011.378-.112c.718 0 1.198.12 1.54.4a1.267 1.267 0 01.43 1.007 1.313 1.313 0 01-.912 1.244v.022c.362.134.578.48.696.962.104.471.235.936.393 1.392h-.933a6.448 6.448 0 01-.334-1.178c-.146-.651-.377-.858-.889-.873h-.457v2.05h-.912V30.29zm.905 2.2h.54c.613 0 .991-.328.991-.823 0-.54-.378-.8-.969-.8a2.604 2.604 0 00-.562.044v1.578zM33.907 32.992h-1.88v1.466h2.102v.747h-3.018v-4.982h2.9v.746h-2v1.29h1.88l.016.733z"
            fill="#fff"
        />
    </g>
    <defs>
        <clipPath id="clip0">
            <path fill="#fff" d="M0 0h44v44H0z" />
        </clipPath>
    </defs>
</svg>
