<svg class="hidden">
	<defs>
		<!-- viewbox 24x24 -->

		<g id="mime-default" fill="#495059">
			<path d="M24,0H0V24H17l7-6ZM22,17l-1.2,1H17v3.17L16,22H2V2H22Z"/>
		</g>

		<g id="mime-folder" fill="#fee598">
			<polygon points="0 2 8 2 8 6 24 6 24 22 0 22 0 2"/>
		</g>

		<g id="mime-image" fill="#6b4298">
			<path d="M24,0H0V24H17l7-6ZM22,17l-1.2,1H17v3.17L16,22H2V2H22Z"/>
			<polygon points="20 8 20 14 4 14 8 11 10 12 16 7 18 9 20 8"/>
			<circle cx="8" cy="6" r="2"/>
		</g>

		<g id="mime-portable" fill="#ea4c3a">
			<path d="M24,0H0V24H17l7-6ZM22,17l-1.2,1H17v3.17L16,22H2V2H22Z"/>
			<path d="M18.66,12.88c-.76-.75-3.1-.52-4.16-.38A5.91,5.91,0,0,1,12,9.31c.24-1,.68-2.66.36-3.66a1.32,1.32,0,0,0-2.51-.38,9.48,9.48,0,0,0,.47,4.38,52.49,52.49,0,0,1-2.37,5c-1.18.6-3,1.65-3.32,3-.2.94,1.29,2.22,3,.36A15.53,15.53,0,0,0,9.35,15.4,31.54,31.54,0,0,1,14,14.05a8.74,8.74,0,0,0,3.65,1.12A1.37,1.37,0,0,0,18.66,12.88Zm-12.92,5a7.76,7.76,0,0,1,2-2.3C6.49,17.59,5.74,17.94,5.74,17.9ZM11.1,5.36c.49,0,.44,2.12.12,2.69A5.6,5.6,0,0,1,11.1,5.36Zm-1.6,9a26.23,26.23,0,0,0,1.63-3.6,7.13,7.13,0,0,0,2,2.34A21.34,21.34,0,0,0,9.5,14.35ZM18.15,14s-.32.4-2.45-.51C18,13.33,18.39,13.86,18.15,14Z"/>
		</g>

		<g id="mime-text" fill="#55b9d3">
			<path d="M24,0H0V24H17l7-6ZM22,17l-1.2,1H17v3.17L16,22H2V2H22Z"/>
			<rect x="5" y="5" width="14" height="1"/>
			<rect x="5" y="8" width="14" height="1"/>
			<rect x="5" y="11" width="9" height="1"/>
		</g>
	</defs>
</svg>
