<svg class="hidden">
  <defs> 
     <!-- viewbox 16X16 -->
     <g id="shape-account">
      <path d="M8,4a3,3,0,1,0,3,3A3,3,0,0,0,8,4ZM8,9a2,2,0,1,1,2-2A2,2,0,0,1,8,9Z"/><path d="M15,8A7,7,0,1,0,2.9,12.79l0,0,.51.45A7.08,7.08,0,0,0,8,15l.63,0a7,7,0,0,0,3.5-1.32,6.25,6.25,0,0,0,.5-.4h0l.5-.44,0,0A7,7,0,0,0,15,8Zm-3.77,5a3.47,3.47,0,0,1-.37.21l-.44.22c-.2.08-.39.16-.58.22l-.15,0a6.26,6.26,0,0,1-3.38,0l-.14,0a6,6,0,0,1-.59-.22l-.43-.21c-.13-.07-.26-.14-.38-.22l-.17-.12L6.09,12H9.91l1.49.92Zm1-.79-2-1.25H5.81l-2,1.25A6,6,0,1,1,14,8,6,6,0,0,1,12.23,12.25Z"/>
     </g>

    <g id="shape-add">
      <path d="M8,1a7,7,0,1,0,7,7A7,7,0,0,0,8,1ZM8,14a6,6,0,1,1,6-6A6,6,0,0,1,8,14Z" /><polygon points="8.5 7.5 8.5 3.05 7.5 3.05 7.5 7.5 3.05 7.5 3.05 8.5 7.5 8.5 7.5 12.95 8.5 12.95 8.5 8.5 12.95 8.5 12.95 7.5 8.5 7.5" />
    </g>

    <g id="shape-address">
      <path d="M8,2a4.5,4.5,0,0,0-4.5,4.5A4.27,4.27,0,0,0,3.68,7.8h0c.73,2,3.86,6.27,4,6.46l.42.57.4-.59a55.56,55.56,0,0,0,3.82-6.43,3.22,3.22,0,0,0,.19-1.27A4.5,4.5,0,0,0,8,2Zm3.38,5.4a46.53,46.53,0,0,1-3.32,5.64A37.22,37.22,0,0,1,4.62,7.45a3.13,3.13,0,0,1-.12-.91,3.5,3.5,0,1,1,7,0A2.48,2.48,0,0,1,11.38,7.44Z"/><path d="M6.94,5.94a1.49,1.49,0,0,0,0,2.12,1.5,1.5,0,0,0,2.12,0,1.49,1.49,0,0,0,0-2.12A1.51,1.51,0,0,0,6.94,5.94ZM8.35,7.35a.49.49,0,0,1-.7-.7.48.48,0,0,1,.7,0A.48.48,0,0,1,8.35,7.35Z"/>
    </g>

    <g id="shape-address-add">
      <polygon points="12 10 12 8 11 8 11 10 9 10 9 11 11 11 11 13 12 13 12 11 14 11 14 10 12 10"/><path d="M10,6a2.48,2.48,0,0,1-.12.9c-.09.22-.21.48-.35.76l.89.45q.24-.47.39-.84A3.22,3.22,0,0,0,11,6,4.5,4.5,0,0,0,2,6,4.27,4.27,0,0,0,2.18,7.3c.73,2,3.86,6.27,4,6.46l.36.5.41-.46a26.13,26.13,0,0,0,1.74-2.1l-.84-.55a18.43,18.43,0,0,1-1.22,1.51A36.66,36.66,0,0,1,3.12,7,3.13,3.13,0,0,1,3,6a3.5,3.5,0,1,1,7,0Z"/><path d="M5.44,5.44a1.49,1.49,0,0,0,0,2.12,1.5,1.5,0,0,0,2.12,0,1.49,1.49,0,0,0,0-2.12A1.51,1.51,0,0,0,5.44,5.44ZM6.85,6.85a.49.49,0,0,1-.7-.7.48.48,0,0,1,.7,0A.48.48,0,0,1,6.85,6.85Z"/>
    </g>

    <g id="shape-address-disable">
    <path d="M8,3H5V4H6.79L4.65,6.15a.47.47,0,0,0-.11.54A.5.5,0,0,0,5,7H8V6H6.21L8.35,3.85a.47.47,0,0,0,.11-.54A.5.5,0,0,0,8,3Z" /><path d="M8,8H3V9H6.79l-5.1,4.11A.5.5,0,0,0,2,14H7V13H3.42L7.47,9.73l.88-.88a.47.47,0,0,0,.11-.54A.5.5,0,0,0,8,8Z" /><path d="M15,5.31A.5.5,0,0,0,14.5,5H10V6h3.29L9.15,10.15a.47.47,0,0,0-.11.54A.5.5,0,0,0,9.5,11H14V10H10.71l4.14-4.15A.47.47,0,0,0,15,5.31Z" />
    </g>

    <g id="shape-alias">
      <path d="M12,3a2.89,2.89,0,0,0-1.2.28,5.42,5.42,0,0,0-5.6,0A2.89,2.89,0,0,0,4,3,3,3,0,0,0,2.57,8.63a5.46,5.46,0,0,0,10.86,0A3,3,0,0,0,12,3ZM2.54,7.34A2,2,0,0,1,4,4l.21,0A5.47,5.47,0,0,0,2.54,7.34Zm9.94.93a4.49,4.49,0,0,1-9,0L3.5,8a4.49,4.49,0,0,1,7-3.75A4.44,4.44,0,0,1,12.5,8l0,.3h0Zm1-.93A5.44,5.44,0,0,0,11.79,4L12,4a2,2,0,0,1,1.46,3.34Z" /><path d="M9.78,5.66A1,1,0,0,0,9,5.93a1.11,1.11,0,0,0-.33.74,1.5,1.5,0,0,0,.42,1,1.46,1.46,0,0,0,.83.47.86.86,0,0,0,.22,0,1,1,0,0,0,.72-.27,1,1,0,0,0,.33-.74,1.49,1.49,0,0,0-.41-1A1.53,1.53,0,0,0,9.78,5.66Zm.41,1.55s-.2,0-.36-.17a.41.41,0,0,1-.14-.37h0a.5.5,0,0,1,.32.17h0A.43.43,0,0,1,10.19,7.21Z" /><path d="M7.2,6.67a1.06,1.06,0,0,0-.33-.74,1,1,0,0,0-.76-.27A1.58,1.58,0,0,0,4.68,7.2a1,1,0,0,0,1.05,1,.82.82,0,0,0,.22,0,1.49,1.49,0,0,0,.84-.47A1.53,1.53,0,0,0,7.2,6.67ZM6.05,7c-.16.17-.33.19-.36.17a.43.43,0,0,1,.14-.38h0a.51.51,0,0,1,.33-.17h0A.41.41,0,0,1,6.05,7Z" /><path d="M6.75,10.75v.5A1.25,1.25,0,0,0,8,10H7.5A.76.76,0,0,1,6.75,10.75Z" /><path d="M8.5,10H8a1.25,1.25,0,0,0,1.25,1.25v-.5A.76.76,0,0,1,8.5,10Z" /><polygon points="8 9.59 8.9 8.02 7.09 8.02 8 9.59" />
    </g>

    <g id="shape-all-emails">
      <path d="M2,6v9H14V6Zm11,8H3V8.3l5,3.37L13,8.3Zm0-6.91L8,10.47,3,7.09V7H13Z" /><rect x="3" y="4" width="10" height="1" /><rect x="5" y="2" width="6" height="1" />
    </g>

    <g id="shape-anniversary">
    <path d="M12,4V3H11V4H5V3H4V4H2V14H14V4Zm1,9H3V5H4V6H5V5h6V6h1V5h1Z" /><path d="M9.59,6.53A1.69,1.69,0,0,0,8.3,7L8,7.33,7.6,7a1.58,1.58,0,0,0-2-.12A1.46,1.46,0,0,0,5,7.92,1.66,1.66,0,0,0,5.48,9.2L8,11.71l2.57-2.57a1.55,1.55,0,0,0,.12-2.05A1.43,1.43,0,0,0,9.59,6.53Zm.26,1.9L8,10.29,6.19,8.5A.72.72,0,0,1,6,8a.5.5,0,0,1,.18-.36.52.52,0,0,1,.34-.12.57.57,0,0,1,.39.16L8,8.75l1-1a.7.7,0,0,1,.52-.19.44.44,0,0,1,.36.18.51.51,0,0,1,.12.34A.55.55,0,0,1,9.85,8.43Z" />
    </g>

    <g id="shape-apparence">
    <path d="M4,2V6H14V2Zm9,3H5V3h8Z" /><path d="M9,7H3V4H2V8H8V9H7v6h3V9H9Zm0,7H8V10H9Z" /><path d="M12.56,6.75l-.37.42a3.81,3.81,0,0,0-1.07,1.89,1.44,1.44,0,1,0,2.88,0,3.81,3.81,0,0,0-1.07-1.89Zm0,2.75a.44.44,0,0,1-.44-.44,2.59,2.59,0,0,1,.44-.77,2.37,2.37,0,0,1,.44.77A.44.44,0,0,1,12.56,9.5Z" />
    </g>

    <g id="shape-archive">
    <polygon points="11 10 10 10 10 11 6 11 6 10 5 10 5 12 11 12 11 10" /><path d="M2,6v9H14V6Zm11,8H3V7H13Z" /><rect x="4" y="4" width="8" height="1" /><rect x="5" y="2" width="6" height="1" />
    </g>

    <g id="shape-arrow-down">
    <polygon points="12.98 8.31 8.5 12.79 8.5 2 7.5 2 7.5 12.79 3.02 8.31 2.31 9.02 8 14.71 13.69 9.02 12.98 8.31" />
    </g>

    <g id="shape-arrow-left">
    <polygon points="14 7.5 3.21 7.5 7.69 3.02 6.98 2.31 1.29 8 6.98 13.69 7.69 12.98 3.21 8.5 14 8.5 14 7.5" />
    </g>

    <g id="shape-arrow-right">
    <polygon points="9.02 2.31 8.31 3.02 12.79 7.5 2 7.5 2 8.5 12.79 8.5 8.31 12.98 9.02 13.69 14.71 8 9.02 2.31" />
    </g>

    <g id="shape-arrow-up">
    <polygon points="8 1.29 2.31 6.98 3.02 7.69 7.5 3.21 7.5 14 8.5 14 8.5 3.21 12.98 7.69 13.69 6.98 8 1.29" />
    </g>

    <g id="shape-attach">
    <path d="M13.26,1.9a4.1,4.1,0,0,0-5.17.6L1.84,8.75A2.79,2.79,0,0,0,1,10.94,2.84,2.84,0,0,0,2.14,13a2.73,2.73,0,0,0,1.62.53,3.13,3.13,0,0,0,2.18-.92l5.4-5.4A1.66,1.66,0,0,0,9,4.86L5.4,8.46l.71.71L9.7,5.57a.66.66,0,0,1,.93.93L5.24,11.9a2,2,0,0,1-2.5.3,1.83,1.83,0,0,1-.2-2.74L8.79,3.21a3.11,3.11,0,0,1,3.9-.48A3,3,0,0,1,14,4.92a3,3,0,0,1-.86,2.37L7.86,12.55l.7.71L13.83,8a4,4,0,0,0-.57-6.1Z" />
    </g>

    <g id="shape-attention">
    <rect x="7.5" y="6" width="1" height="4" /><rect x="7.5" y="11" width="1" height="1" /><path d="M8,.84,1.72,14H14.28ZM8,3.16,12.69,13H3.31Z" />
    </g>

    <g id="shape-auto-reply">
    <path d="M6,6V5H7V2H4V5H5V6H1.9v9H14.1V6ZM5,3H6V4H5Zm8.1,11H2.9V7H13.1Z" /><rect x="5" y="9" width="1" height="1" /><polygon points="6 11 6 12 6 13 10 13 10 12 10 11 9 11 9 12 7 12 7 11 6 11" /><rect x="10" y="9" width="1" height="1" />
    </g>
    
    <g id="shape-auto-reply2">
    <path d="M3,4V7H4V6.3L9,9.67,14,6.3V12H3v1H15V4ZM14,5.1,9,8.47,4,5.1V5H14Z" /><rect x="1" y="8" width="4" height="1" /><rect x="2" y="10" width="3" height="1" />
    </g>
    
    <g id="shape-birthday">
    <path d="M12,9V6H8.5V5.9a1.37,1.37,0,0,0,.88-1.28,1.41,1.41,0,0,0-.07-.41h0a9.36,9.36,0,0,0-.92-1.5L8,2.13l-.4.59A12.74,12.74,0,0,0,6.69,4.2a1.12,1.12,0,0,0-.07.42A1.37,1.37,0,0,0,7.5,5.9V6H4V9H2v5H14V9ZM8,3.9a5.11,5.11,0,0,1,.37.66v.06A.38.38,0,0,1,8,5a.39.39,0,0,1-.38-.43A6.11,6.11,0,0,1,8,3.9ZM5,7h6V9H5Zm4.33,3a1.33,1.33,0,1,1-2.66,0ZM4,10H5.67A1.34,1.34,0,1,1,3,10Zm9,3H3V11.91a2.29,2.29,0,0,0,1.33.43,2.33,2.33,0,0,0,1.84-.91,2.3,2.3,0,0,0,3.66,0,2.33,2.33,0,0,0,1.84.91A2.29,2.29,0,0,0,13,11.91Zm-1.33-1.66A1.34,1.34,0,0,1,10.33,10H13A1.34,1.34,0,0,1,11.67,11.34Z" />
    </g>
    
    <g id="shape-bullet-points">
    <path d="M2,15H5V12H2Zm1-2H4v1H3Z" /><path d="M2,5H5V2H2ZM3,3H4V4H3Z" /><path d="M2,10H5V7H2ZM3,8H4V9H3Z" /><rect x="6" y="3" width="8" height="1" /><rect x="6" y="13" width="8" height="1" /><rect x="6" y="8" width="8" height="1" />
    </g>
    
    <g id="shape-caret">
    <path d="M7.782 9.356l-4.44-4.111-.75.694 5.19 4.805 5.19-4.805-.749-.694z"/>
    </g> 
    
    <g id="shape-close">
    <polygon points="13.85 2.85 13.15 2.15 8 7.29 2.85 2.15 2.15 2.85 7.29 8 2.15 13.15 2.85 13.85 8 8.71 13.15 13.85 13.85 13.15 8.71 8 13.85 2.85" />
    </g>

    <g id="shape-compose">
    <path d="M6.73,12.35,8.61,10l.78.63,1.88-2.33-.77-.63,1.25-1.55h0l1.88-2.33L10.52,1.3,9.27,2.85h0l-5.65,7h0L2.09,11.73l4.37.4ZM10.67,2.7,12.23,4l-.63.77-.78-.62-.77-.63ZM9.42,4.26l.77.62.78.63L6.58,11,5,9.69ZM4.05,10.91l.35-.44.66.53Z" /><rect x="2" y="14" width="12" height="1" />
    </g>

    <g id="shape-contact">
    <path d="M8,9A3.5,3.5,0,1,0,4.5,5.5,3.5,3.5,0,0,0,8,9ZM8,3A2.5,2.5,0,1,1,5.5,5.5,2.5,2.5,0,0,1,8,3Z"/><path d="M10.65,10H5.35L2,12.23V15H14V12.23ZM13,14H3V12.77L5.65,11h4.7L13,12.77Z"/>
    </g>

    <g id="shape-contact-add">
    <path d="M7,9.1A3.5,3.5,0,1,0,3.5,5.6,3.5,3.5,0,0,0,7,9.1Zm0-6A2.5,2.5,0,1,1,4.5,5.6,2.5,2.5,0,0,1,7,3.1Z"/><polygon points="2 12.71 3.71 11 10 11 10 10 3.29 10 1 12.29 1 15 11 15 11 14 2 14 2 12.71"/><polygon points="13 12 13 10 12 10 12 12 10 12 10 13 12 13 12 15 13 15 13 13 15 13 15 12 13 12"/>
    </g>

    <g id="shape-contact-photo">
    <path d="M13,5V2H1V12H3v3H15V5ZM3,11H2V3H12V5H3Zm11,3H4V12H5.37L8,13.08,10.52,11H14Zm0-4H10.17L7.82,11.92,5.66,11,4,11V6H14Z"/><path d="M6.44,7.44a1.49,1.49,0,0,0,0,2.12,1.5,1.5,0,0,0,2.12,0,1.49,1.49,0,0,0,0-2.12A1.51,1.51,0,0,0,6.44,7.44ZM7.85,8.85a.49.49,0,0,1-.7-.7.48.48,0,0,1,.7,0A.48.48,0,0,1,7.85,8.85Z"/>
    </g>

    <g id="shape-contacts-group-people">
    <path d="M8,5A2,2,0,1,0,6,3,2,2,0,0,0,8,5ZM8,2A1,1,0,1,1,7,3,1,1,0,0,1,8,2Z"/><path d="M12.5,6A1.5,1.5,0,1,0,11,4.5,1.5,1.5,0,0,0,12.5,6Zm0-2a.5.5,0,1,1-.5.5A.5.5,0,0,1,12.5,4Z"/><path d="M11,7V6H5V7H1v4H2v3H5V11H6v4h4V11h1v3h3V11h1V7ZM5,10H4v3H3V10H2V8H5Zm5,0H9v4H7V10H6V7h4Zm4,0H13v3H12V10H11V8h3Z"/><path d="M3.5,6A1.5,1.5,0,1,0,2,4.5,1.5,1.5,0,0,0,3.5,6Zm0-2a.5.5,0,1,1-.5.5A.5.5,0,0,1,3.5,4Z"/>
    </g>

    <g id="shape-contacts-group">
    <path d="M6.52,9A3.24,3.24,0,1,0,3.28,5.74,3.24,3.24,0,0,0,6.52,9Zm0-5.48A2.24,2.24,0,1,1,4.28,5.74,2.24,2.24,0,0,1,6.52,3.5Z"/><path d="M4.06,10,1,12.25V15H12V12.25L8.94,10ZM11,14H2V12.75L4.39,11H8.61L11,12.75Z"/><path d="M9.41,1.54a2.24,2.24,0,0,1,1.38,4.09l.56.83a3.24,3.24,0,0,0-2-5.92,3.36,3.36,0,0,0-1.68.58l.58.82A2.19,2.19,0,0,1,9.41,1.54Z"/><polygon points="11.65 8 10 8 10 9 11.35 9 14 10.77 14 12 13 12 13 13 15 13 15 10.23 11.65 8"/>
    </g>
    
    <g id="shape-contacts-group-add">
    <polygon points="6 12 4 12 4 10 3 10 3 12 1 12 1 13 3 13 3 15 4 15 4 13 6 13 6 12"/><path d="M6.52,9A3.24,3.24,0,1,0,3.28,5.74,3.24,3.24,0,0,0,6.52,9Zm0-5.48A2.24,2.24,0,1,1,4.28,5.74,2.24,2.24,0,0,1,6.52,3.5Z"/><polygon points="5 10 5 11 8.35 11 11 12.77 11 14 5 14 5 15 12 15 12 12.23 8.65 10 5 10"/><path d="M9.41,1.54a2.24,2.24,0,0,1,1.38,4.09l.56.83a3.24,3.24,0,0,0-2-5.92,3.36,3.36,0,0,0-1.68.58l.58.82A2.19,2.19,0,0,1,9.41,1.54Z"/><polygon points="11.65 8 10 8 10 9 11.35 9 14 10.77 14 12 13 12 13 13 15 13 15 10.23 11.65 8"/>
    </g>

    <g id="shape-copy">
    <path d="M2,4V14h8V4H2Zm7,7.5V13H3V5H9Z" /><polygon points="6 1 6 3 7 3 7 2 13 2 13 10 11 10 11 11 14 11 14 1 6 1" />
    </g>

    <g id="shape-dashboard">
    <path d="M8,3A7,7,0,0,0,2.1,13.77l.14.23H13.76l.14-.23A7,7,0,0,0,8,3Zm5.2,10H2.8a6,6,0,0,1-.71-2H3.5V10H2A6,6,0,0,1,3,6.74L4,7.48l.58-.82L3.59,6A5.91,5.91,0,0,1,7.5,4V5.5h1V4a6,6,0,0,1,4,2.06l-.83.57.58.82.84-.58A5.92,5.92,0,0,1,14,10H12.82v1h1.09A6,6,0,0,1,13.2,13Z" /><path d="M8,9a1.5,1.5,0,1,0,1.41,2H12V10H9.41A1.51,1.51,0,0,0,8,9Zm0,2a.5.5,0,1,1,.5-.5A.5.5,0,0,1,8,11Z" />
    </g>

    <g id="shape-date">
    <path d="M12,3V2H11V3H5V2H4V3H2V14H14V3ZM5,4h6V5H5ZM3,4H4V5H3Zm10,9H3V6H13Zm0-8H12V4h1Z" /><rect x="4" y="10" width="2" height="2" /><rect x="7" y="10" width="2" height="2" /><rect x="4" y="7" width="2" height="2" /><rect x="7" y="7" width="2" height="2" /><rect x="10" y="7" width="2" height="2" />
    </g>

    <g id="shape-decrypt">
    <path d="M10.5,7H5V5A3,3,0,0,1,8,2a3,3,0,0,1,2.87,2.14l1-.28a3.8,3.8,0,0,0-1-1.68A4,4,0,0,0,8,1,4,4,0,0,0,4,5V7H2v8H14V7ZM13,14H3V8H13Z" /><path d="M8,9.5a1,1,0,0,0-.5,1.85V12.5h1V11.35A1,1,0,0,0,8,9.5Z" />
    </g>

    <g id="shape-delete">
    <path d="M8,1a7,7,0,1,0,7,7A7,7,0,0,0,8,1ZM8,14a6,6,0,1,1,6-6A6,6,0,0,1,8,14Z" /><polygon points="11.15 4.15 8 7.29 4.85 4.15 4.15 4.85 7.29 8 4.15 11.15 4.85 11.85 8 8.71 11.15 11.85 11.85 11.15 8.71 8 11.85 4.85 11.15 4.15" />
    </g>
    
    <g id="shape-domain">
    <path d="M1,2V12H3V11H2V5H14v6H13v1h2V2ZM14,4H2V3H14Z" /><path d="M5.54,5.62l-.89,8.2,2.09-1.76,1.39,3.13L10.87,14,9.49,10.86l2.7-.38Zm4,7.85-.91.4L7.12,10.43l-1.21,1,.44-4L9.6,9.83,8,10.05Z" />
    </g>

    <g id="shape-donate">
    <path d="M14.31,3.52A3.06,3.06,0,0,0,12,2.36a3.63,3.63,0,0,0-2.75,1L8,4.72,6.48,3.23A3.34,3.34,0,0,0,2.17,3,3,3,0,0,0,1,5.25,3.64,3.64,0,0,0,2.05,8L8,13.92l6.09-6.09a3.28,3.28,0,0,0,.25-4.31ZM13.25,7,8,12.31,2.86,7.2a2.49,2.49,0,0,1-.72-1.88,2,2,0,0,1,.73-1.45,2.12,2.12,0,0,1,1.32-.44A2.09,2.09,0,0,1,5.68,4L8,6.33l2.12-2.12A2.45,2.45,0,0,1,12,3.49a2,2,0,0,1,1.44.73A2.13,2.13,0,0,1,13.25,7Z" />
    </g>

    <g id="shape-download">
    <polygon points="14 10 14 13 2 13 2 10 1 10 1 14 1.5 14 2 14 14 14 14.5 14 15 14 15 10 14 10" /><polygon points="12.53 6.53 11.47 5.47 8.75 8.19 8.75 1 7.25 1 7.25 8.19 4.53 5.47 3.47 6.53 8 11.06 12.53 6.53" />
    </g>

    <g id="shape-drafts">
    <rect x="5" y="6" width="3" height="1" /><rect x="5" y="12" width="3" height="1" /><rect x="5" y="8" width="6" height="1" /><path d="M12.85,4.75c-1-1-1.59-1.58-2.59-2.6L10.11,2H3V15H13V4.89ZM10,3.31l0,0L11.69,5H10ZM12,14H4V3H9V6h3Z" />
    </g>

    <g id="shape-drag">
    <path d="M14.61 7.972a.42.42 0 0 0-.092-.138L13.07 6.385a.424.424 0 1 0-.6.6l.724.725H8.287V2.804l.757.756a.424.424 0 1 0 .6-.6l-1.48-1.481a.424.424 0 0 0-.6-.001l-1.45 1.45a.425.425 0 0 0 .6.6l.725-.724V7.71H2.532l.724-.725a.425.425 0 0 0-.6-.6l-1.449 1.45a.421.421 0 0 0 0 .6l1.48 1.48a.422.422 0 0 0 .601 0 .425.425 0 0 0 0-.6l-.756-.756h4.905v4.905l-.724-.724a.425.425 0 0 0-.6.601l1.45 1.449a.422.422 0 0 0 .6 0l1.48-1.481a.424.424 0 1 0-.6-.6l-.757.757V8.559h4.907l-.756.756a.425.425 0 0 0 .6.6l1.481-1.48.003-.004a.435.435 0 0 0 .121-.297.427.427 0 0 0-.032-.162z" />
    </g>

    <g id="shape-email">
    <path d="M1,3V13H15V3ZM13.15,4,8,8.41,2.85,4ZM14,11.5,10.8,9.1l-.6.8L13,12H3L5.8,9.9l-.6-.8L2,11.5V4.59L8,9.73l6-5.14Z" />
    </g>

    <g id="shape-email-address">
    <path d="M14,8a8.12,8.12,0,0,0-.16-1.36,6,6,0,1,0-3.1,6.72l-.46-.89A4.93,4.93,0,0,1,8,13a5,5,0,1,1,4.86-6.13A8.7,8.7,0,0,1,13,8c0,.94,0,2-.51,2.31a.86.86,0,0,1-.46.13,1,1,0,0,1-1-1V8a3.06,3.06,0,1,0-.88,2.13A2,2,0,0,0,12,11.46a1.88,1.88,0,0,0,1-.28C14.09,10.49,14,8.92,14,8ZM8,10a2,2,0,1,1,2-2A2,2,0,0,1,8,10Z"/>
    </g>

    <g id="shape-empty-folder">
    <path d="M11,6.19l2.55-4.7L12.71,1l-2.55,4.7L7.39,4.21,6.82,5.27,2,9.6l5.37,2.91L8.86,12l.48,1.56,2.91,1.57,1-6.41.57-1Zm.44,7.42-1.3-.71-.66-2.13-2.06.66-3.75-2L7.29,6.19,9.75,7.53l2.46,1.33Z" />
    </g>

    <g id="shape-encrypt">
    <path d="M12,7V5A4,4,0,0,0,8,1,4,4,0,0,0,4,5V7H2v8H14V7ZM5,5A3,3,0,0,1,8,2a3,3,0,0,1,3,3V7H5Zm8,9H3V8H13Z" /><path d="M8,9.5a1,1,0,0,0-.5,1.85V12.5h1V11.35A1,1,0,0,0,8,9.5Z" />
    </g>

    <g id="shape-encrypted-contacts-book">
    <path d="M9,8.25a2,2,0,1,0-2-2A2,2,0,0,0,9,8.25Zm0-3a1,1,0,1,1-1,1A1,1,0,0,1,9,5.25Z"/><path d="M7.7,8.5,6,9.75V11.5h6V9.75L10.3,8.5Zm3.3,2H7v-.25L8,9.5H10l1,.75Z"/><path d="M12.5,1H7L2,2.1V9.83c0,1.37,1.12,2.75,3.34,4.1a12.51,12.51,0,0,0,2,1l.67.24V14H12.5A1.5,1.5,0,0,0,14,12.5V2.5A1.5,1.5,0,0,0,12.5,1ZM4,11.67A2.77,2.77,0,0,1,3,9.83V2.9l1-.22Zm9,.83a.5.5,0,0,1-.5.5H7v.72a12.16,12.16,0,0,1-1.16-.65c-.32-.19-.6-.38-.86-.57H5v-10L7,2V3.5H8V2h4.5a.5.5,0,0,1,.5.5Z"/>
    </g>

    <g id="shape-expand">
    <polygon points="8 2 8 3 12.29 3 3 12.29 3 8 2 8 2 14 8 14 8 13 3.71 13 13 3.71 13 8 14 8 14 2 8 2" />
    </g>

    <g id="shape-expiration">
    <path d="M11.08,6.44a6.92,6.92,0,0,0,.71-1,5,5,0,0,0,.71-2.11V2H14V1H2V2H3.5V3.38a5.09,5.09,0,0,0,.71,2,6.85,6.85,0,0,0,.72,1A8.15,8.15,0,0,0,6,7.45,7,7,0,0,0,6.82,8,6.91,6.91,0,0,0,6,8.55a7.72,7.72,0,0,0-1.08,1,6.92,6.92,0,0,0-.71,1,5,5,0,0,0-.71,2.11V14H2v1H14V14H12.5V12.62a5.09,5.09,0,0,0-.71-2,6.85,6.85,0,0,0-.72-1,8.15,8.15,0,0,0-1.06-1A7,7,0,0,0,9.18,8,6.91,6.91,0,0,0,10,7.45,7.72,7.72,0,0,0,11.08,6.44ZM9.39,9.34a6.25,6.25,0,0,1,.93.87,5.9,5.9,0,0,1,.61.87,4.06,4.06,0,0,1,.57,1.61V14h-7V12.72a4,4,0,0,1,.58-1.64,4.72,4.72,0,0,1,.6-.86,5.85,5.85,0,0,1,.93-.88A5.24,5.24,0,0,1,8,8.53,5.24,5.24,0,0,1,9.39,9.34Zm0-2.68A5.24,5.24,0,0,1,8,7.47a5.24,5.24,0,0,1-1.39-.81,6.25,6.25,0,0,1-.93-.87,5.9,5.9,0,0,1-.61-.87A4.06,4.06,0,0,1,4.5,3.31V2h7V3.28a4,4,0,0,1-.58,1.64,4.72,4.72,0,0,1-.6.86A5.85,5.85,0,0,1,9.39,6.66Z"/>
    </g>

    <g id="shape-export">
    <polygon points="11.35 6.23 10.65 5.52 8.5 7.67 8.5 2.13 7.5 2.13 7.5 7.67 5.35 5.52 4.65 6.23 8 9.58 11.35 6.23" /><polygon points="15 12 15 3 12 3 12 4 14 4 14 11 2 11 2 4 4 4 4 3 1 3 1 12 7.5 12 7.5 14 4 14 4 15 12 15 12 14 8.5 14 8.5 12 15 12" />
    </g>

    <g id="shape-fax">
    <path d="M13,5V3.29L11.71,2H6V5H5.89A1.56,1.56,0,0,0,4.44,4H3.56A1.56,1.56,0,0,0,2,5.56v6.88A1.56,1.56,0,0,0,3.56,14H14V5ZM5,12.44a.57.57,0,0,1-.56.56H3.56A.57.57,0,0,1,3,12.44V5.56A.57.57,0,0,1,3.56,5h.88A.57.57,0,0,1,5,5.56ZM7,3h4V4h1V5H7Zm6,10H5.89A1.47,1.47,0,0,0,6,12.44V6h7Z" /><rect x="9" y="11" width="1" height="1" /><rect x="7" y="11" width="1" height="1" /><rect x="11" y="11" width="1" height="1" /><rect x="9" y="9" width="1" height="1" /><rect x="7" y="9" width="1" height="1" /><rect x="11" y="9" width="1" height="1" /><rect x="9" y="7" width="1" height="1" /><rect x="7" y="7" width="1" height="1" /><rect x="11" y="7" width="1" height="1" />
    </g>

    <g id="shape-file-doc">
    <path d="M13,6.94V4.89l-.15-.15c-1-1-1.59-1.57-2.59-2.59L10.11,2H3V6.94H1v5.87H3V15H13V12.81h2V6.94ZM10,3.31l.11.11c.51.52,1,1,1.47,1.47l.11.11H10ZM4,3H9V6h3v.94H4Zm8,11H4V12.81h8Zm2-2.19H2V7.94H14Z" /><path d="M6,11a1.11,1.11,0,0,0,.34-.84V9.61A1.08,1.08,0,0,0,6,8.77a1.13,1.13,0,0,0-.83-.33h-1v2.84h1A1.12,1.12,0,0,0,6,11ZM4.77,9h.39a.44.44,0,0,1,.36.18.72.72,0,0,1,.15.47v.52a.72.72,0,0,1-.15.47.45.45,0,0,1-.36.19H4.77Z" /><path d="M8,11.32a1.15,1.15,0,0,0,1.2-1.2V9.61a1.18,1.18,0,0,0-.34-.87A1.15,1.15,0,0,0,8,8.4a1.15,1.15,0,0,0-.87.34,1.22,1.22,0,0,0-.34.87v.51A1.16,1.16,0,0,0,8,11.32ZM7.43,9.6a.87.87,0,0,1,.14-.5.54.54,0,0,1,.82,0,.87.87,0,0,1,.14.5v.52a.87.87,0,0,1-.14.5.48.48,0,0,1-.4.2.47.47,0,0,1-.41-.2.8.8,0,0,1-.15-.5Z" /><path d="M10.81,11.32a1.16,1.16,0,0,0,.8-.25.9.9,0,0,0,.27-.73v0h-.65a.54.54,0,0,1-.1.38.38.38,0,0,1-.32.12.44.44,0,0,1-.38-.18.78.78,0,0,1-.13-.48v-.6a.8.8,0,0,1,.12-.47.38.38,0,0,1,.34-.18.5.5,0,0,1,.37.11.53.53,0,0,1,.11.37h.65a.89.89,0,0,0-.29-.73,1.26,1.26,0,0,0-.84-.25,1.07,1.07,0,0,0-.81.32,1.16,1.16,0,0,0-.31.84v.6A1.14,1.14,0,0,0,10,11,1.11,1.11,0,0,0,10.81,11.32Z" />
    </g>

    <g id="shape-file-docx">
    <path d="M13,6.94V4.89l-.15-.15c-1-1-1.59-1.57-2.59-2.59L10.11,2H3V6.94H1v5.87H3V15H13V12.81h2V6.94ZM10,3.31l.11.11c.51.52,1,1,1.47,1.47l.11.11H10ZM4,3H9V6h3v.94H4Zm8,11H4V12.81h8Zm2-2.19H2V7.94H14Z" /><path d="M4.6,11a1.15,1.15,0,0,0,.34-.84V9.61a1.11,1.11,0,0,0-.34-.84,1.17,1.17,0,0,0-.84-.33h-1v2.84h1A1.16,1.16,0,0,0,4.6,11ZM3.38,9h.38a.46.46,0,0,1,.37.18.72.72,0,0,1,.15.47v.52a.72.72,0,0,1-.15.47.47.47,0,0,1-.37.19H3.38Z" /><path d="M6.59,11.32A1.15,1.15,0,0,0,7.46,11a1.17,1.17,0,0,0,.33-.86V9.61a1.21,1.21,0,0,0-.33-.87,1.18,1.18,0,0,0-.87-.34,1.18,1.18,0,0,0-.88.34,1.21,1.21,0,0,0-.33.87v.51a1.17,1.17,0,0,0,.33.86A1.18,1.18,0,0,0,6.59,11.32ZM6,9.6a.8.8,0,0,1,.14-.5.47.47,0,0,1,.41-.19A.46.46,0,0,1,7,9.1a.8.8,0,0,1,.15.5v.52a.8.8,0,0,1-.15.5.47.47,0,0,1-.4.2.48.48,0,0,1-.41-.2.8.8,0,0,1-.14-.5Z" /><path d="M9.41,11.32a1.15,1.15,0,0,0,.8-.25.87.87,0,0,0,.27-.73v0H9.84a.6.6,0,0,1-.1.38.42.42,0,0,1-.33.12A.42.42,0,0,1,9,10.64a.78.78,0,0,1-.14-.48v-.6A.88.88,0,0,1,9,9.09a.4.4,0,0,1,.35-.18A.46.46,0,0,1,9.73,9a.53.53,0,0,1,.11.37h.65a.87.87,0,0,0-.29-.73,1.21,1.21,0,0,0-.83-.25,1.11,1.11,0,0,0-.82.32,1.21,1.21,0,0,0-.31.84v.6a1.1,1.1,0,0,0,1.17,1.16Z" /><polygon points="11.51 11.28 12 10.3 12.48 11.28 13.28 11.28 12.4 9.85 13.22 8.44 12.46 8.44 11.99 9.4 11.53 8.44 10.77 8.44 11.59 9.85 10.75 11.28 11.51 11.28" />
    </g>

    <g id="shape-file-image">
    <path d="M12.85,4.74c-1-1-1.59-1.57-2.59-2.59L10.11,2H3V15H13V4.89ZM10,3.31l.11.11c.51.52,1,1,1.47,1.47l.11.11H10ZM12,14H4V12H5.38L7.6,13.11,9.71,11H12Zm0-4H9.29L7.4,11.89,5.62,11H4V3H9V6h3Z" /><path d="M5.59,6.59a2,2,0,1,0,2.82,0A2,2,0,0,0,5.59,6.59ZM7.71,8.71A1,1,0,0,1,6.29,7.29a1,1,0,0,1,1.42,0A1,1,0,0,1,7.71,8.71Z" />
    </g>

    <g id="shape-file-pdf">
    <path d="M13,6.94V4.89l-.15-.15c-1-1-1.59-1.57-2.59-2.59L10.11,2H3V6.94H1v5.87H3V15H13V12.81h2V6.94ZM10,3.31l.11.11c.51.52,1,1,1.47,1.47l.11.11H10ZM4,3H9V6h3v.94H4Zm8,11H4V12.81h8Zm2-2.19H2V7.94H14Z" /><path d="M5,10.32h.43a1.18,1.18,0,0,0,.8-.26.83.83,0,0,0,.3-.67.85.85,0,0,0-.3-.68,1.18,1.18,0,0,0-.8-.26H4.36v2.84H5ZM5,9h.43a.45.45,0,0,1,.33.12.45.45,0,0,1,.11.31.42.42,0,0,1-.11.3.45.45,0,0,1-.33.12H5Z" /><path d="M8.89,11a1.11,1.11,0,0,0,.34-.84V9.62a1.11,1.11,0,0,0-.34-.84,1.14,1.14,0,0,0-.84-.33H7v2.84h1A1.13,1.13,0,0,0,8.89,11ZM7.67,9h.38a.45.45,0,0,1,.37.18.72.72,0,0,1,.15.47v.52a.72.72,0,0,1-.15.47.43.43,0,0,1-.37.19H7.67Z" /><polygon points="10.39 10.15 11.43 10.15 11.43 9.64 10.39 9.64 10.39 8.96 11.63 8.96 11.63 8.45 9.73 8.45 9.73 11.29 10.39 11.29 10.39 10.15" />
    </g>

    <g id="shape-file-pot">
    <path d="M13,6.94V4.89l-.15-.15c-1-1-1.59-1.57-2.59-2.59L10.11,2H3V6.94H1v5.87H3V15H13V12.81h2V6.94ZM10,3.31l.11.11c.51.52,1,1,1.47,1.47l.11.11H10ZM4,3H9V6h3v.94H4Zm8,11H4V12.81h8Zm2-2.19H2V7.94H14Z" /><path d="M4.94,10.31h.43a1.2,1.2,0,0,0,.8-.26.93.93,0,0,0,0-1.35,1.2,1.2,0,0,0-.8-.26H4.28v2.84h.66ZM4.94,9h.43a.41.41,0,0,1,.32.12.41.41,0,0,1,.12.31.41.41,0,0,1-.44.42H4.94Z" /><path d="M8.09,11.32A1.15,1.15,0,0,0,9,11a1.17,1.17,0,0,0,.33-.86V9.61A1.21,1.21,0,0,0,9,8.74a1.18,1.18,0,0,0-.87-.34,1.18,1.18,0,0,0-.88.34,1.21,1.21,0,0,0-.33.87v.51a1.17,1.17,0,0,0,.33.86A1.18,1.18,0,0,0,8.09,11.32ZM7.54,9.6a.8.8,0,0,1,.14-.5.47.47,0,0,1,.41-.19.47.47,0,0,1,.4.19.8.8,0,0,1,.14.5v.52a.8.8,0,0,1-.14.5.47.47,0,0,1-.4.2.47.47,0,0,1-.41-.2.8.8,0,0,1-.14-.5Z" /><polygon points="10.31 11.28 10.97 11.28 10.97 8.95 11.72 8.95 11.72 8.44 9.57 8.44 9.57 8.95 10.31 8.95 10.31 11.28" />
    </g>

    <g id="shape-file-ppt">
    <path d="M13,6.94V4.89l-.15-.15c-1-1-1.59-1.57-2.59-2.59L10.11,2H3V6.94H1v5.87H3V15H13V12.81h2V6.94ZM10,3.31l.11.11c.51.52,1,1,1.47,1.47l.11.11H10ZM4,3H9V6h3v.94H4Zm8,11H4V12.81h8Zm2-2.19H2V7.94H14Z" /><path d="M5,10.31h.43a1.2,1.2,0,0,0,.8-.26.91.91,0,0,0,0-1.35,1.2,1.2,0,0,0-.8-.26H4.36v2.84H5ZM5,9h.43a.41.41,0,0,1,.32.12.41.41,0,0,1,.12.31.41.41,0,0,1-.44.42H5Z" /><path d="M7.67,10.31H8.1a1.2,1.2,0,0,0,.8-.26.91.91,0,0,0,0-1.35,1.2,1.2,0,0,0-.8-.26H7v2.84h.66ZM7.67,9H8.1a.41.41,0,0,1,.32.12.41.41,0,0,1,.12.31.41.41,0,0,1-.44.42H7.67Z" /><polygon points="10.23 11.28 10.89 11.28 10.89 8.95 11.64 8.95 11.64 8.44 9.49 8.44 9.49 8.95 10.23 8.95 10.23 11.28" />
    </g>

    <g id="shape-file-pptx">
    <path d="M13,6.94V4.89l-.15-.15c-1-1-1.59-1.57-2.59-2.59L10.11,2H3V6.94H1v5.87H3V15H13V12.81h2V6.94ZM10,3.31l.11.11c.51.52,1,1,1.47,1.47l.11.11H10ZM4,3H9V6h3v.94H4Zm8,11H4V12.81h8Zm2-2.19H2V7.94H14Z" /><path d="M3.67,10.31H4.1a1.2,1.2,0,0,0,.8-.26.91.91,0,0,0,0-1.35,1.2,1.2,0,0,0-.8-.26H3v2.84h.66ZM3.67,9H4.1a.41.41,0,0,1,.32.12.41.41,0,0,1,.12.31.41.41,0,0,1-.44.42H3.67Z" /><path d="M6.32,10.31h.43a1.2,1.2,0,0,0,.8-.26.91.91,0,0,0,0-1.35,1.2,1.2,0,0,0-.8-.26H5.66v2.84h.66ZM6.32,9h.43a.45.45,0,0,1,.33.12.45.45,0,0,1,.11.31.4.4,0,0,1-.44.42H6.32Z" /><polygon points="8.88 11.28 9.54 11.28 9.54 8.95 10.29 8.95 10.29 8.44 8.14 8.44 8.14 8.95 8.88 8.95 8.88 11.28" /><polygon points="11.22 11.28 11.7 10.3 12.19 11.28 12.99 11.28 12.11 9.85 12.93 8.44 12.16 8.44 11.7 9.4 11.23 8.44 10.48 8.44 11.29 9.85 10.46 11.28 11.22 11.28" />
    </g>

    <g id="shape-file-rar-zip">
    <path d="M12.85,4.74c-1-1-1.59-1.57-2.59-2.59L10.11,2H3V15H13V4.89ZM10,3.31l.11.11c.51.52,1,1,1.47,1.47l.11.11H10ZM12,14H4V3H9V6h3Z" /><rect x="6" y="10" width="2" height="3" /><rect x="6" y="8" width="1" height="1" /><rect x="6" y="6" width="1" height="1" /><rect x="6" y="4" width="1" height="1" />
    </g>

    <g id="shape-file-unknown">
    <path d="M13,6.94V4.89l-.15-.15c-1-1-1.59-1.57-2.59-2.59L10.11,2H3V6.94H1v5.87H3V15H13V12.81h2V6.94ZM10,3.31l.11.11c.51.52,1,1,1.47,1.47l.11.11H10ZM4,3H9V6h3v.94H4Zm8,11H4V12.81h8Zm2-2.19H2V7.94H14Z" /><rect x="5.5" y="9.36" width="1" height="1" /><rect x="7.5" y="9.36" width="1" height="1" /><rect x="9.5" y="9.36" width="1" height="1" />
    </g>
    
    <g id="shape-file-video">
    <path d="M12.85,4.74c-1-1-1.59-1.57-2.59-2.59L10.11,2H3V15H13V4.89ZM10,3.31l.11.11c.51.52,1,1,1.47,1.47l.11.11H10ZM12,14H4V3H9V6h3Z" /><path d="M5.91,12.61l4.59-3-4.59-3Zm1-4.18L8.68,9.59,6.91,10.76Z" />
    </g>

    <g id="shape-file-xliff">
    <polygon points="3.4 11.28 3.89 10.3 4.37 11.28 5.17 11.28 4.3 9.85 5.11 8.44 4.35 8.44 3.88 9.4 3.42 8.44 2.67 8.44 3.48 9.85 2.64 11.28 3.4 11.28" /><polygon points="7.38 10.78 6.16 10.78 6.16 8.44 5.5 8.44 5.5 11.28 7.38 11.28 7.38 10.78" /><rect x="7.87" y="8.44" width="0.66" height="2.84" /><polygon points="9.78 10.14 10.82 10.14 10.82 9.63 9.78 9.63 9.78 8.95 11.02 8.95 11.02 8.44 9.12 8.44 9.12 11.28 9.78 11.28 9.78 10.14" /><polygon points="12.12 10.14 13.16 10.14 13.16 9.63 12.12 9.63 12.12 8.95 13.36 8.95 13.36 8.44 11.46 8.44 11.46 11.28 12.12 11.28 12.12 10.14" /><path d="M13,6.94V4.89l-.15-.15c-1-1-1.59-1.57-2.59-2.59L10.11,2H3V6.94H1v5.87H3V15H13V12.81h2V6.94ZM10,3.31l.11.11c.51.52,1,1,1.47,1.47l.11.11H10ZM4,3H9V6h3v.94H4Zm8,11H4V12.81h8Zm2-2.19H2V7.94H14Z" />
    </g>

    <g id="shape-file-xls">
    <path d="M13,6.94V4.89l-.15-.15c-1-1-1.59-1.57-2.59-2.59L10.11,2H3V6.94H1v5.87H3V15H13V12.81h2V6.94ZM10,3.31l.11.11c.51.52,1,1,1.47,1.47l.11.11H10ZM4,3H9V6h3v.94H4Zm8,11H4V12.81h8Zm2-2.19H2V7.94H14Z" /><polygon points="5.11 11.28 5.59 10.3 6.07 11.28 6.88 11.28 6 9.85 6.81 8.44 6.05 8.44 5.58 9.4 5.12 8.44 4.37 8.44 5.18 9.85 4.34 11.28 5.11 11.28" /><polygon points="9.08 10.78 7.86 10.78 7.86 8.44 7.2 8.44 7.2 11.28 9.08 11.28 9.08 10.78" /><path d="M10.59,11.32a1.28,1.28,0,0,0,.77-.21.67.67,0,0,0,.3-.58A.71.71,0,0,0,11.4,10a2.18,2.18,0,0,0-.75-.36,2.35,2.35,0,0,1-.39-.19.24.24,0,0,1-.11-.2.32.32,0,0,1,.1-.22.5.5,0,0,1,.29-.08.52.52,0,0,1,.33.09.37.37,0,0,1,.11.29h.64a.72.72,0,0,0-.29-.64,1.17,1.17,0,0,0-.78-.23,1.22,1.22,0,0,0-.76.22.69.69,0,0,0-.3.58.67.67,0,0,0,.26.56,2.56,2.56,0,0,0,.79.36,1.18,1.18,0,0,1,.36.18.29.29,0,0,1,.1.23.25.25,0,0,1-.11.21.43.43,0,0,1-.3.09.57.57,0,0,1-.38-.11.45.45,0,0,1-.12-.35H9.44a.79.79,0,0,0,.33.72A1.44,1.44,0,0,0,10.59,11.32Z" />
    </g>

    <g id="shape-file-xslx">
    <path d="M13,6.94V4.89l-.15-.15c-1-1-1.59-1.57-2.59-2.59L10.11,2H3V6.94H1v5.87H3V15H13V12.81h2V6.94ZM10,3.31l.11.11c.51.52,1,1,1.47,1.47l.11.11H10ZM4,3H9V6h3v.94H4Zm8,11H4V12.81h8Zm2-2.19H2V7.94H14Z" /><polygon points="3.71 11.28 4.19 10.3 4.68 11.28 5.48 11.28 4.6 9.85 5.42 8.44 4.66 8.44 4.19 9.4 3.73 8.44 2.97 8.44 3.78 9.85 2.95 11.28 3.71 11.28" /><polygon points="7.68 10.78 6.46 10.78 6.46 8.44 5.8 8.44 5.8 11.28 7.68 11.28 7.68 10.78" /><path d="M9.19,11.32a1.33,1.33,0,0,0,.78-.21.68.68,0,0,0,.29-.58A.7.7,0,0,0,10,10a2.18,2.18,0,0,0-.75-.36,2.57,2.57,0,0,1-.4-.19.24.24,0,0,1-.11-.2A.29.29,0,0,1,8.86,9a.47.47,0,0,1,.28-.08A.5.5,0,0,1,9.47,9a.34.34,0,0,1,.11.29h.65a.74.74,0,0,0-.29-.64,1.21,1.21,0,0,0-.78-.23,1.2,1.2,0,0,0-.76.22.69.69,0,0,0-.3.58.66.66,0,0,0,.25.56,2.68,2.68,0,0,0,.79.36,1.07,1.07,0,0,1,.36.18.26.26,0,0,1,.1.23.24.24,0,0,1-.1.21.46.46,0,0,1-.31.09.54.54,0,0,1-.37-.11.45.45,0,0,1-.13-.35H8.05a.78.78,0,0,0,.32.72A1.46,1.46,0,0,0,9.19,11.32Z" /><polygon points="11.28 11.28 11.77 10.3 12.25 11.28 13.05 11.28 12.18 9.85 12.99 8.44 12.23 8.44 11.76 9.4 11.3 8.44 10.54 8.44 11.36 9.85 10.52 11.28 11.28 11.28" />
    </g>

    <g id="shape-file-xml">
    <path d="M13,6.94V4.89l-.15-.15c-1-1-1.59-1.57-2.59-2.59L10.11,2H3V6.94H1v5.87H3V15H13V12.81h2V6.94ZM10,3.31l.11.11c.51.52,1,1,1.47,1.47l.11.11H10ZM4,3H9V6h3v.94H4Zm8,11H4V12.81h8Zm2-2.19H2V7.94H14Z" /><polygon points="4.6 11.28 5.09 10.3 5.57 11.28 6.37 11.28 5.5 9.85 6.31 8.44 5.55 8.44 5.08 9.4 4.62 8.44 3.86 8.44 4.68 9.85 3.84 11.28 4.6 11.28" /><polygon points="7.35 9.48 7.37 9.48 7.98 11.28 8.43 11.28 9.05 9.45 9.06 9.45 9.06 11.28 9.72 11.28 9.72 8.44 8.85 8.44 8.21 10.43 8.2 10.43 7.56 8.44 6.69 8.44 6.69 11.28 7.35 11.28 7.35 9.48" /><polygon points="12.16 10.78 10.94 10.78 10.94 8.44 10.28 8.44 10.28 11.28 12.16 11.28 12.16 10.78" />
    </g>

    <g id="shape-filter">
    <path d="M2,2V5.73L6,9.19v5l4-1.33V9.19l4-3.46V2ZM13,5.27,9,8.73v3.41l-2,.67V8.73L3,5.27V3H13Z" />
    </g>

    <g id="shape-folder">
    <path d="M15,14H1V2H6V4h9ZM2,13H14V5H5V3H2Z" />
    </g>

    <g id="shape-folder-label">
    <polygon points="13 13 3 13 3 5 5 5 5 7 7 7 7 6 6 6 6 4 2 4 2 14 14 14 14 12 13 12 13 13" /><path d="M8,2V9.19l.05.23,3,2.75,2.83-2.54.22-.29V2Zm5.1,7-2,1.84L9,9V3h4.1Z" /><path d="M11.05,9.33A1.35,1.35,0,1,0,9.7,8,1.36,1.36,0,0,0,11.05,9.33Zm0-1.7A.35.35,0,1,1,10.7,8,.35.35,0,0,1,11.05,7.63Z" />
    </g>

    <g id="shape-font-color">
    <path d="M12,12h-.09L8,1.58,4.09,12H3v1H6V12H5.16L6.28,9H9.72l1.12,3H10v1h3V12ZM6.66,8,8,4.42,9.34,8Z" /><rect x="3" y="14" width="10" height="1" />
    </g>

    <g id="shape-forward">
    <path d="M11.8,7.94,5.89,3.23V6H5.31A4.76,4.76,0,0,0,2.25,7.12a3.93,3.93,0,0,0-1,2.92l.07,2.77.89-1.47a3.22,3.22,0,0,1,.9-.92A3.76,3.76,0,0,1,5.3,10h.59v2.8ZM5.3,9h0a4.58,4.58,0,0,0-2.73.58l-.31.22a2.83,2.83,0,0,1,.73-2A3.71,3.71,0,0,1,5.34,7H6.89V5.3L10.21,8,6.89,10.68V9Z" /><polygon points="9.54 3.61 8.92 4.39 13.38 7.95 8.91 11.61 9.55 12.39 14.97 7.94 9.54 3.61" />
    </g>

    <g id="shape-gender">
    <path d="M10,2V3h1.35L9.68,4.54a3.81,3.81,0,0,0-.76-.43,3.76,3.76,0,0,0-4.08,6.14A3.68,3.68,0,0,0,7,11.3V13H6v1H7v1H8V14H9V13H8V11.3a3.68,3.68,0,0,0,2.16-1.05,3.75,3.75,0,0,0,.25-5L12,3.76V5h1V2ZM9.45,9.54A2.76,2.76,0,1,1,7.5,4.83a2.91,2.91,0,0,1,1,.2,2.8,2.8,0,0,1,.91.61A2.75,2.75,0,0,1,9.45,9.54Z" />
    </g>

    <g id="shape-help-answer">
    <path d="M6.71,8H10V2H1V8H3v3.71ZM2,7V3H9V7H6.29L4,9.29V7Z" /><polygon points="11 5 11 6 14 6 14 10 13 10 13 10.01 12 10.01 12 10.5 12 11.01 12 12.29 9.71 10 9.5 10 7 10 7 9 6 9 6 11 6.5 11 9.29 11 13 14.71 13 11.01 13 11 15 11 15 5 11 5" />
    </g>

    <g id="shape-html-message">
    <path d="M14.7,7,14,6.33V3H10.51L8,.6,5.49,3H2V6.33L1.3,7H1v8H15V7ZM8,2,9.06,3H6.94ZM3,4H13V7.94l-.85.6L10.09,5.79,7.42,7.93l-2.54-1L3.5,8.29,3,7.94Zm8.33,5.12L8,11.46,4.33,8.88l.79-.79,2.46,1L9.91,7.21ZM14,14H2V8.46l6,4.22,6-4.22Z" /><path d="M6.74,7A1,1,0,1,0,6,5.74,1,1,0,0,0,6.74,7Z" />
    </g>

    <g id="shape-imap-smtp">
    <path d="M15,12V2H1V12H7.5v2H4v1h8V14H8.5V12ZM2,11V3H14v8Z" /><path d="M4,10h8V4H4Zm6.41-5L8,6.29,5.59,5ZM5,5.83,8,7.61l3-1.78V9H5Z" />
    </g>

    <g id="shape-import">
    <polygon points="7.5 3.33 7.5 8.88 8.5 8.88 8.5 3.33 10.65 5.48 11.35 4.77 8 1.42 4.65 4.77 5.35 5.48 7.5 3.33" /><polygon points="15 12 15 3 12 3 12 4 14 4 14 11 2 11 2 4 4 4 4 3 1 3 1 12 7.5 12 7.5 14 4 14 4 15 12 15 12 14 8.5 14 8.5 12 15 12" />
    </g>

    <g id="shape-inbox">
    <rect x="5" y="4" width="6" height="1" /><rect x="5" y="6" width="6" height="1" /><path d="M13,9V1H3V9H1v6H15V9ZM4,2h8V9H4ZM14,14H2V10H14Z" /><polygon points="10 12 6 12 6 11 5 11 5 13 11 13 11 11 10 11 10 12" />
    </g>
    
    <g id="shape-info">
    <path d="M8,1a7,7,0,1,0,7,7A7,7,0,0,0,8,1ZM8,14a6,6,0,1,1,6-6A6,6,0,0,1,8,14Z" /><polygon points="8.5 6 6.5 6 6.5 7 7.5 7 7.5 11 6.5 11 6.5 12 9.5 12 9.5 11 8.5 11 8.5 6" /><rect x="7.5" y="4" width="1" height="1" />
    </g>

    <g id="shape-insert-image">
    <path d="M1,4V14H15V4Zm13,9H2V11H4.37L7,12.08,9.52,10H14Zm0-4H9.17L6.82,10.92,4.66,10,2,10V5H14Z"/><path d="M6.5,9a1.51,1.51,0,0,0,1.06-.44,1.49,1.49,0,0,0,0-2.12,1.51,1.51,0,0,0-2.12,0,1.49,1.49,0,0,0,0,2.12A1.51,1.51,0,0,0,6.5,9ZM6.15,7.15a.48.48,0,0,1,.7,0,.49.49,0,1,1-.7,0Z"/>
    </g>

    <g id="shape-keys">
    <path d="M12.89,2.6A3.81,3.81,0,0,0,6.4,5.29a3.74,3.74,0,0,0,.77,2.26L2.91,11.81l-.76.77L4.06,14.5l.77-.77L3.68,12.58l.77-.77L5.6,13l.77-.77L5.21,11,7.94,8.32a3.79,3.79,0,0,0,5-5.72Zm-.77,4.61A2.71,2.71,0,0,1,7.49,5.29a2.69,2.69,0,0,1,.79-1.92,2.72,2.72,0,0,1,3.84,3.84Z" />
    </g>

    <g id="shape-label">
    <path d="M14.23,1.77l-4.9-.46L9,1.35,1.1,9.24,6.76,14.9,14.64,7l0-.34ZM6.76,13.48,2.52,9.24,9.44,2.32l3.87.37.37,3.87Z" /><path d="M9.88,4a1.5,1.5,0,0,0,1.06,2.56A1.5,1.5,0,1,0,9.88,4ZM11.3,5.41a.5.5,0,0,1-.71-.71.52.52,0,0,1,.35-.14.54.54,0,0,1,.36.14A.51.51,0,0,1,11.3,5.41Z" />
    </g>

    <g id="shape-layout-columns">
    <rect x="2" y="2" width="12" height="1"/><rect x="2" y="4" width="2" height="11"/><path d="M5,15H9V4H5ZM6,5H8v9H6Z"/><path d="M10,15h4V4H10ZM11,5h2v9H11Z"/>
    </g>

    <g id="shape-layout-columns2">
    <path d="M1,2V15H15V2ZM4,14H2V6H4Zm5,0H5V6H9Zm5,0H10V6h4Zm0-9H2V3H14Z"/>
    </g>

    <g id="shape-layout-rows">
    <rect x="2" y="2" width="12" height="1"/><rect x="2" y="4" width="2" height="11"/><path d="M5,15h9V4H5ZM6,5h7v9H6Z"/>
    </g>

    <g id="shape-layout-rows2">
    <path d="M1,2V15H15V2Zm3,9v3H2V6H4Zm10,3H5V12h9Zm0-3H5V9h9Zm0-3H5V6h9Zm0-3H2V3H14Z"/>
    </g>

    <g id="shape-link">
    <path d="M10,9.77l4.95-4.95L10.68.58l-4.95,5L7.15,6.94l-.71.71L5,6.23.08,11.18l4.24,4.24,4.95-4.95L7.85,9.06l.71-.71ZM4.32,14,1.49,11.18,5,7.65l.7.7L5,9.06l1.41,1.41.71-.7.7.7ZM7.15,5.53,10.68,2l2.83,2.83L10,8.35l-.7-.7.7-.71L8.56,5.53l-.71.7Z" />
    </g>

    <g id="shape-member-contact">
    <path d="M8,8.5A3.5,3.5,0,1,0,4.5,5,3.5,3.5,0,0,0,8,8.5Zm0-6A2.5,2.5,0,1,1,5.5,5,2.5,2.5,0,0,1,8,2.5Z"/><path d="M10.65,9H5.35L2,11.23V14H14V11.23ZM13,13H3V11.77L5.65,10h4.7L13,11.77Z"/>
    </g>

    <g id="shape-merge">
    <path d="M13,2a2,2,0,0,0-2,2,2.26,2.26,0,0,0,.09.58.76.76,0,0,0,0,.11,2.32,2.32,0,0,0,.24.47l.09.1a2.13,2.13,0,0,0,.3.3l.13.1a2.22,2.22,0,0,0,.41.2l.1,0A4.49,4.49,0,0,1,4.82,8.18,4.42,4.42,0,0,1,3.59,5.91l.07,0a2.23,2.23,0,0,0,.49-.24l0,0a1.9,1.9,0,0,0,.38-.37l.06-.07a1.83,1.83,0,0,0,.25-.48.49.49,0,0,0,0-.11A2.2,2.2,0,0,0,5,4,2,2,0,1,0,2.61,6,5.39,5.39,0,0,0,4.12,8.88,5.47,5.47,0,0,0,7.5,10.45v.62a2,2,0,1,0,1,0v-.62A5.53,5.53,0,0,0,13.39,6,2,2,0,0,0,13,2ZM2,4A1,1,0,1,1,3,5,1,1,0,0,1,2,4Zm7,9a1,1,0,1,1-1-1A1,1,0,0,1,9,13Zm4-8a1,1,0,0,1-1-1,1,1,0,1,1,1,1Z"/>
    </g>

    <g id="shape-minimize">
    <rect x="2" y="13" width="12" height="1" />
    </g>

    <g id="shape-mobile">
    <path d="M10.5,2h-5A1.5,1.5,0,0,0,4,3.5v10A1.5,1.5,0,0,0,5.5,15h5A1.5,1.5,0,0,0,12,13.5V3.5A1.5,1.5,0,0,0,10.5,2ZM11,13.5a.5.5,0,0,1-.5.5h-5a.5.5,0,0,1-.5-.5V5h6ZM11,4H5V3.5A.5.5,0,0,1,5.5,3h5a.5.5,0,0,1,.5.5Z"/><rect x="7" y="12" width="2" height="1"/>
    </g>

    <g id="shape-mobile-add">
    <polygon points="12 11 12 9 11 9 11 11 9 11 9 12 11 12 11 14 12 14 12 12 14 12 14 11 12 11"/><path d="M5,12.5V4h6V8h1V2.5A1.5,1.5,0,0,0,10.5,1h-5A1.5,1.5,0,0,0,4,2.5v10A1.5,1.5,0,0,0,5.5,14H10V13H5.5A.5.5,0,0,1,5,12.5Zm0-10A.5.5,0,0,1,5.5,2h5a.5.5,0,0,1,.5.5V3H5Z"/><rect x="7" y="11" width="1" height="1"/>
    </g>

    <g id="shape-more">
    <rect x="3" y="3" width="2" height="2"/><rect x="7" y="3" width="2" height="2"/><rect x="11" y="3" width="2" height="2"/><rect x="3" y="11" width="2" height="2"/><rect x="7" y="11" width="2" height="2"/><rect x="11" y="11" width="2" height="2"/><rect x="3" y="7" width="2" height="2"/><rect x="7" y="7" width="2" height="2"/><rect x="11" y="7" width="2" height="2"/>
    </g>

    <g id="shape-note">
    <path d="M2,1V11.11l.15.15c1,1,1.59,1.57,2.59,2.59l.15.15H14V1ZM5,12.69l-.11-.11L3.42,11.11,3.31,11H5ZM13,13H6V10H3V2H13Z" />
    </g>

    <g id="shape-note-add">
    <polygon points="13 11 13 9 12 9 12 11 10 11 10 12 12 12 12 14 13 14 13 12 15 12 15 11 13 11"/><path d="M5,10H2V2H12V8h1V1H1V11.11l.15.15c1,1,1.59,1.57,2.59,2.59l.15.15H10V13H5ZM4,12.69l-.11-.11L2.42,11.11,2.31,11H4Z"/>
    </g>

    <g id="shape-notifications-disabled">
    <path d="M4,9.37,5.09,8.3C5.09,7.29,5,6.16,5,6A3,3,0,0,1,8,3a3,3,0,0,1,1.78.6l.71-.7A3.94,3.94,0,0,0,8,2,4,4,0,0,0,4,6,18.55,18.55,0,0,1,4,9.37Z" /><path d="M12,9.38A18.19,18.19,0,0,1,12,6a3.79,3.79,0,0,0-.33-1.53l2.59-2.58-.71-.71L1.05,13.68l.71.71L3.14,13H6a2,2,0,0,0,4,0h3.81l-1.38-2.76A4.93,4.93,0,0,1,12,9.38ZM8,14a1,1,0,0,1-1-1H9A1,1,0,0,1,8,14Zm1.76-2H4.14L10.9,5.24A3,3,0,0,1,11,6a19.28,19.28,0,0,0,0,3.66,5.93,5.93,0,0,0,.54,1.1L12.19,12Z" />
    </g>

    <g id="shape-notifications-enabled">
    <path d="M12.43,10.24A4.93,4.93,0,0,1,12,9.38,18.19,18.19,0,0,1,12,6,4,4,0,0,0,8,2,4,4,0,0,0,4,6,17.76,17.76,0,0,1,4,9.38a5.36,5.36,0,0,1-.46.9L2.19,13H6a2,2,0,0,0,4,0h3.81ZM8,14a1,1,0,0,1-1-1H9A1,1,0,0,1,8,14Zm1.76-2H3.81l.62-1.24A6.38,6.38,0,0,0,5,9.62,18.82,18.82,0,0,0,5,6,3,3,0,0,1,8,3a2.94,2.94,0,0,1,2.12.89A2.91,2.91,0,0,1,11,6a19.28,19.28,0,0,0,0,3.66,5.93,5.93,0,0,0,.54,1.1L12.19,12Z" />
    </g>

    <g id="shape-off">
    <polygon points="14.21 2.5 13.5 1.79 8 7.29 2.5 1.79 1.79 2.5 7.29 8 1.79 13.5 2.5 14.21 8 8.71 13.5 14.21 14.21 13.5 8.71 8 14.21 2.5" />
    </g>

    <g id="shape-on">
    <polygon points="6.68 14.28 1.14 8.74 1.84 8.03 6.53 12.72 14.03 1.8 14.85 2.37 6.68 14.28" />
    </g>

    <g id="shape-ordered-list">
    <rect x="6" y="3" width="8" height="1"/><rect x="6" y="13" width="8" height="1"/><rect x="6" y="8" width="8" height="1"/><path d="M3.54,3.2V4.78h.67V2.36H3.66a1.1,1.1,0,0,1-.29.38A1.63,1.63,0,0,1,2.84,3v.54a1.8,1.8,0,0,0,.38-.14A2.8,2.8,0,0,0,3.54,3.2Z"/><path d="M3.52,8.62a2.6,2.6,0,0,0-.65.61,1.17,1.17,0,0,0-.21.55h2V9.24h-1l.16-.14L4,8.91a1.78,1.78,0,0,0,.46-.44.72.72,0,0,0,.13-.42.64.64,0,0,0-.11-.36.69.69,0,0,0-.31-.25,1.54,1.54,0,0,0-.54-.08,1.3,1.3,0,0,0-.53.09.62.62,0,0,0-.29.24,1,1,0,0,0-.14.43l.66.05a.56.56,0,0,1,.11-.28.29.29,0,0,1,.21-.08.3.3,0,0,1,.2.08A.26.26,0,0,1,4,8.08a.4.4,0,0,1-.08.21A2.28,2.28,0,0,1,3.52,8.62Z"/><path d="M4.41,13.55a.71.71,0,0,0-.21-.08.78.78,0,0,0,.25-.22A.44.44,0,0,0,4.53,13a.55.55,0,0,0-.2-.43,1,1,0,0,0-.68-.18,1,1,0,0,0-.63.16.89.89,0,0,0-.3.46l.63.11a.45.45,0,0,1,.1-.25.29.29,0,0,1,.19-.07.24.24,0,0,1,.18.07.24.24,0,0,1,.06.17.3.3,0,0,1-.08.2.33.33,0,0,1-.22.08H3.49l0,.47.21,0a.32.32,0,0,1,.24.09.37.37,0,0,1,.08.25.36.36,0,0,1-.09.26.27.27,0,0,1-.22.1.28.28,0,0,1-.21-.08.57.57,0,0,1-.12-.27l-.66.08a.81.81,0,0,0,.19.37.76.76,0,0,0,.3.23,1.48,1.48,0,0,0,.52.07,1.14,1.14,0,0,0,.53-.1.82.82,0,0,0,.32-.29.83.83,0,0,0,.11-.4.65.65,0,0,0-.07-.29A.47.47,0,0,0,4.41,13.55Z"/>
    </g>

    <g id="shape-organization">
    <path d="M10,7V2H2V14H14V7ZM9,7v6H7V10H5v3H3V3H9Zm4,6H10V8h3Z" /><rect x="4" y="7" width="1" height="1" /><rect x="4" y="5" width="1" height="1" /><rect x="7" y="5" width="1" height="1" /><rect x="7" y="7" width="1" height="1" /><rect x="11" y="9" width="1" height="1" /><rect x="11" y="11" width="1" height="1" />
    </g>

    <g id="shape-payments">
    <path d="M14,9V5H13V2H4A2,2,0,0,0,2,4H2V15H14V12h1V9ZM4,3h8V5H4a1,1,0,0,1-.9-.65L3,4V4A1,1,0,0,1,4,3Zm9,11H3V5.75a1.7,1.7,0,0,0,.24.09l.16.07A2.05,2.05,0,0,0,4,6h9V9H10v3h3Zm1-3H11V10h3Z" />
    </g>

    <g id="shape-phishing">
    <path d="M10.5,1A2,2,0,0,0,10,4.93v5.12c0,2-1.17,3.45-2.72,3.45a3,3,0,0,1-2.9-2.82,3.12,3.12,0,0,1,0-.33l.82,1L6,10.71l-2.49-3L3.41,9c0,.13-.06,1.32,0,1.76a4,4,0,0,0,3.9,3.76C9.4,14.5,11,12.59,11,10.05V4.93A2,2,0,0,0,10.5,1Zm0,3a1,1,0,1,1,1-1A1,1,0,0,1,10.5,4Z" />
    </g>

    <g id="shape-phone">
    <path d="M5.82,7,2,10.27V14H14V10.27L10.18,7ZM13,13H3V10.73L6.18,8H9.82L13,10.73Z"/><path d="M8,9a1.5,1.5,0,1,0,1.5,1.5A1.5,1.5,0,0,0,8,9Zm0,2a.5.5,0,1,1,.5-.5A.5.5,0,0,1,8,11Z"/><path d="M12.5,2h-9A1.5,1.5,0,0,0,2,3.5V6H6V5h4V6h4V3.5A1.5,1.5,0,0,0,12.5,2ZM13,5H11V4H5V5H3V3.5A.5.5,0,0,1,3.5,3h9a.5.5,0,0,1,.5.5Z"/>
    </g>

    <g id="shape-plaintext-message">
    <path d="M14.7,7,14,6.33V3H10.51L8,.6,5.49,3H2V6.33L1.3,7H1v8H15V7ZM8,2,9.06,3H6.94ZM3,4H13V7.94L8,11.46,3,7.94ZM14,14H2V8.46l6,4.22,6-4.22Z" /><rect x="5" y="5" width="3" height="1" /><rect x="5" y="7" width="6" height="1" />
    </g>

    <g id="shape-print">
    <path d="M12,5V2H4V5H1v6.75H2V11H4v4h8V11h2v.75h1V5ZM5,3h6V5H5Zm6,11H5V11h6Zm3-4H2V6H14Z" /><rect x="6" y="12" width="4" height="1" /><circle cx="11.5" cy="7.5" r="0.5" />
    </g>

    <g id="shape-protonmail">
    <path d="M8.037.972S3.923.837 3.075 5.401v3.108s.035.333.97 1.009c.936.675 3.358 2.578 3.992 2.578.635 0 3.057-1.903 3.992-2.578.936-.676.971-1.009.971-1.009V5.401C12.151.837 8.037.972 8.037.972zm2.818 6.123H5.22V5.401c.572-2.266 2.817-2.297 2.817-2.297s2.246.03 2.818 2.297z"/><path d="M8.037 12.796s-.637-.063-1.136-.41c-.5-.346-3.826-2.723-3.826-2.723v4.706s.028.547.63.547h8.664A.59.59 0 0 0 13 14.37V9.663s-3.327 2.377-3.826 2.724c-.499.346-1.137.409-1.137.409z"/></g>

    <g id="shape-protonvpn">
    <path d="M12.53,1.44A1.46,1.46,0,0,0,11.07,2.9V3L4.68,5A1.47,1.47,0,1,0,3.5,7.3,1.42,1.42,0,0,0,4,7.22l4.19,5.3A1.47,1.47,0,1,0,10.45,12l2.23-7.62a1.46,1.46,0,0,0-.15-2.92ZM9.47,11.6h0a1.45,1.45,0,0,0-.65.16L4.72,6.57A1.58,1.58,0,0,0,4.93,6l6.52-2.08a1.15,1.15,0,0,0,.23.21Z" />
    </g>

    <g id="shape-read">
    <path d="M14.42,7.73c-1.57-2.42-3.26-4-6.42-4s-4.85,1.61-6.42,4L1.4,8l.18.27c1.57,2.42,3.26,4,6.42,4s4.85-1.61,6.42-4L14.6,8ZM8,11.3C5.4,11.3,4,10,2.6,8,4,6,5.4,4.7,8,4.7S12,6,13.4,8C12,10,10.6,11.3,8,11.3Z" /><path d="M8,5.5A2.5,2.5,0,1,0,10.5,8,2.5,2.5,0,0,0,8,5.5Zm0,4A1.5,1.5,0,1,1,9.5,8,1.5,1.5,0,0,1,8,9.5Z" />
    </g>

    <g id="shape-reload">
    <path d="M8.739 13.253a5.153 5.153 0 0 1-5.59-3.697l1.29.832a.357.357 0 0 0 .398-.591l-.01-.008-1.98-1.28a.356.356 0 0 0-.485.096l-.015.021-.008.011-.001.002-1.264 1.957a.357.357 0 0 0 .599.388l.792-1.228a5.799 5.799 0 0 0 2.038 3.016 5.812 5.812 0 0 0 4.324 1.188 5.863 5.863 0 0 0 4.731-3.683.355.355 0 0 0-.202-.46.357.357 0 0 0-.461.202 5.15 5.15 0 0 1-4.156 3.234zM2.654 5.822a.357.357 0 0 0 .664.259 5.144 5.144 0 0 1 7.743-2.344 5.14 5.14 0 0 1 2.017 2.859l-1.352-.776a.356.356 0 1 0-.353.62l2.043 1.173c.171.097.388.04.487-.133l1.173-2.044a.356.356 0 0 0-.104-.469c-.009-.006-.017-.012-.027-.016a.356.356 0 0 0-.487.134l-.715 1.242A5.821 5.821 0 0 0 11.47 3.15a5.826 5.826 0 0 0-4.085-1.01 5.861 5.861 0 0 0-4.73 3.682z"/>
    </g>

    <g id="shape-remove-text-formatting">
    <path d="M6,12.8a1.45,1.45,0,0,0,1.06.44,1.48,1.48,0,0,0,1.06-.44L13.8,7.15A1.49,1.49,0,0,0,13.8,5L11,2.2a1.49,1.49,0,0,0-2.12,0L3.2,7.85A1.49,1.49,0,0,0,3.2,10ZM9.56,2.9a.52.52,0,0,1,.71,0L13.1,5.73a.51.51,0,0,1,0,.71L10.62,8.91,7.09,5.38ZM3.9,8.56,6.38,6.09,9.91,9.62,7.44,12.1a.51.51,0,0,1-.71,0L3.9,9.27A.51.51,0,0,1,3.9,8.56Z" /><rect x="2" y="14" width="12" height="1" />
    </g>

    <g id="shape-reply">
    <path d="M13.33,7.17A4.36,4.36,0,0,0,10.42,6H8V3.23L2.09,7.94,8,12.8V10h2.71a2.91,2.91,0,0,1,1.94.39,6.32,6.32,0,0,1,1,1.08l.88,1.24,0-2.67A4,4,0,0,0,13.33,7.17ZM13.26,9.6A3.77,3.77,0,0,0,10.7,9H7v1.68L3.68,8,7,5.3V7h3.39a3.41,3.41,0,0,1,2.25.88,3.06,3.06,0,0,1,.9,2Z" />
    </g>

    <g id="shape-reply-all">
    <path d="M13.63,7.12A4.73,4.73,0,0,0,10.55,6H10V3.23L4.09,7.94,10,12.8V10h.59a3.46,3.46,0,0,1,2.22.42,3.34,3.34,0,0,1,.91.92l.89,1.47L14.67,10A3.93,3.93,0,0,0,13.63,7.12Zm-.28,2.46A4.61,4.61,0,0,0,10.59,9H9v1.68L5.68,8,9,5.3V7h1.52a3.75,3.75,0,0,1,2.41.83,2.88,2.88,0,0,1,.74,2A2.57,2.57,0,0,0,13.35,9.58Z" /><polygon points="6.97 4.39 6.34 3.61 0.92 7.94 6.34 12.39 6.97 11.61 2.51 7.95 6.97 4.39" />
    </g>

    <g id="shape-report-bug">
    <path d="M12,6a3,3,0,0,0-2-2.58V2H9V3.11a4.6,4.6,0,0,0-2,0V2H6V3.42A3,3,0,0,0,4,6V7h8ZM5,6C5,4.92,6.37,4,8,4s3,.92,3,2Z" /><path d="M14,10V9H12V8H4V9H2v1H4v1H2v1H4c0,1.65,1.79,3,4,3s4-1.35,4-3h2V11H12V10Zm-3,2c0,1.08-1.37,2-3,2s-3-.92-3-2V9h6Z" />
    </g>

    <g id="shape-role">
    <path d="M11,6V5.5A1.5,1.5,0,0,0,9.5,4h-3A1.5,1.5,0,0,0,5,5.5V6H2v8H14V6ZM6,5.5A.5.5,0,0,1,6.5,5h3a.5.5,0,0,1,.5.5V6H6ZM13,13H3V9.49A2.51,2.51,0,0,0,4.5,10h2a1.5,1.5,0,0,0,3,0h2A2.51,2.51,0,0,0,13,9.49ZM7.5,10a.5.5,0,1,1,.5.5A.5.5,0,0,1,7.5,10ZM13,7.5A1.5,1.5,0,0,1,11.5,9H9.14V9A1.47,1.47,0,0,0,8,8.5,1.5,1.5,0,0,0,6.89,9H4.5A1.5,1.5,0,0,1,3,7.5V7H13Z" />
    </g>

    <g id="shape-save">
    <path d="M11,2H2V15H14V5.05ZM8,3H9V5H8ZM5,3H7V5H5Zm6,11H5V11h6Zm2,0H12V10H4v4H3V3H4V6h6V3h.53L13,5.47Z" />
    </g>

    <g id="shape-search">
    <path d="M9.6,8.89a4.47,4.47,0,0,0,1-2.83,4.56,4.56,0,1,0-4.56,4.56,4.47,4.47,0,0,0,2.83-1l4.26,4.25.7-.7Zm-3.54.73A3.56,3.56,0,1,1,9.62,6.06,3.57,3.57,0,0,1,6.06,9.62Z"/>
    </g>

    <g id="shape-security">
    <path d="M8,1.24,2.39,2.49V9.7c0,2.76,4.87,4.79,5.42,5l.19.08.19-.08c.55-.22,5.42-2.25,5.42-5V2.49ZM5.8,12.55c-1.24-.79-2.41-1.82-2.41-2.85V3.29L5.8,2.75Zm3.4.58c-.45.24-.87.44-1.2.58-.33-.14-.75-.34-1.2-.58V2.53L8,2.26l1.2.27ZM12.61,9.7c0,1-1.17,2.06-2.41,2.85V2.75l2.41.54Z" />
    </g>

    <g id="shape-sent">
    <path d="M.25,6.28l6.1,3.05,3.05,6.1L14.74.94Zm2.52.14L11.93,3,6.62,8.35Zm6.49,6.5L7.33,9.06l5.31-5.31Z" />
    </g>

    <g id="shape-settings-master">
    <rect x="7" y="4" width="8" height="1" /><rect x="7" y="12" width="8" height="1" /><rect x="1" y="8" width="8" height="1" /><path d="M3,6H6V3H3V4H1V5H3ZM4,4H5V5H4Z" /><path d="M3,12H1v1H3v1H6V11H3Zm1,0H5v1H4Z" /><path d="M13,7H10v3h3V9h2V8H13ZM12,9H11V8h1Z" />
    </g>

    <g id="shape-settings-singular">
    <rect x="9" y="4" width="6" height="1" /><rect x="1" y="11" width="6" height="1" /><path d="M3,7H8V2H3V4H1V5H3ZM4,5V3H7V6H4Z" /><path d="M13,9H8v5h5V12h2V11H13Zm-1,2v2H9V10h3Z" />
    </g>

    <g id="shape-shop">
    <path d="M11.86,11l2.33-7H3.81l-1-2H1V3H2.19L3,4.66,4.08,11Zm1-6-1.67,5H4.92L4.09,5Z" /><path d="M5.5,12A1.5,1.5,0,1,0,7,13.5,1.5,1.5,0,0,0,5.5,12Zm0,2a.5.5,0,1,1,.5-.5A.5.5,0,0,1,5.5,14Z" /><path d="M10.5,12A1.5,1.5,0,1,0,12,13.5,1.5,1.5,0,0,0,10.5,12Zm0,2a.5.5,0,1,1,.5-.5A.5.5,0,0,1,10.5,14Z" />
    </g>

    <g id="shape-show-all-emails">
    <rect x="2" y="3" width="1" height="1" /><rect x="4" y="3" width="10" height="1" /><rect x="2" y="6" width="1" height="1" /><rect x="4" y="6" width="10" height="1" /><rect x="2" y="9" width="1" height="1" /><rect x="4" y="9" width="10" height="1" /><rect x="2" y="12" width="1" height="1" /><rect x="4" y="12" width="10" height="1" />
    </g>

    <g id="shape-sign-out">
    <path d="M10.35,3.26l-.42.91a4.5,4.5,0,1,1-3.86,0l-.42-.91a5.5,5.5,0,1,0,4.7,0Z" /><rect x="7.5" y="2" width="1" height="6" />
    </g>

    <g id="shape-sort-large-small">
    <polygon points="4 12.97 4 2.88 3 2.88 3 12.97 2.52 12.48 1.98 13.02 3.5 14.53 5.02 13.02 4.48 12.48 4 12.97" /><rect x="6" y="6" width="6" height="1" /><rect x="6" y="3" width="8" height="1" /><rect x="6" y="9" width="4" height="1" /><rect x="6" y="12" width="2" height="1" />
    </g>

    <g id="shape-sort-new-old">
    <path d="M10.15,7.35,12.5,9.71l2.35-2.36-.7-.7L13,7.8a6,6,0,1,0-1.08,3.64l-.82-.57A5,5,0,1,1,12,7.77L10.85,6.65Z" /><polygon points="6 6 6 9 7 9 9 9 9 8 7 8 7 6 6 6" />
    </g>

    <g id="shape-sort-old-new">
    <path d="M9,2A6,6,0,0,0,3,7.8L1.85,6.65l-.7.7L3.5,9.71,5.85,7.35l-.7-.7L4,7.77a5,5,0,1,1,.89,3.1l-.82.57A6,6,0,1,0,9,2Z" /><polygon points="8 6 8 9 9 9 11 9 11 8 9 8 9 6 8 6" />
    </g>

    <g id="shape-sort-small-large">
    <polygon points="4 12.97 4 2.88 3 2.88 3 12.97 2.52 12.48 1.98 13.02 3.5 14.53 5.02 13.02 4.48 12.48 4 12.97" /><rect x="6" y="9" width="6" height="1" /><rect x="6" y="12" width="8" height="1" /><rect x="6" y="6" width="4" height="1" /><rect x="6" y="3" width="2" height="1" />
    </g>

    <g id="shape-spam">
    <path d="M12.94,4.27l-.35-.69L10.88,5.76a5.65,5.65,0,0,0-.69-1.66,11.5,11.5,0,0,0-3.44-3L5.94.61,6,1.53A23.2,23.2,0,0,1,6,4.46a10.37,10.37,0,0,1-.52,2l-2.1-3L3,4.31a11.83,11.83,0,0,0-.73,6.3C3,13.63,4.76,15,8,15h.14c2.94,0,4.66-1.41,5.4-4.42A9.72,9.72,0,0,0,12.94,4.27Zm-.43,6.11C11.88,13,10.5,14.07,8,14c-2.72,0-4.08-1.1-4.68-3.65a10,10,0,0,1,.38-4.81l2.09,3,.34-.87A16.73,16.73,0,0,0,7,4.54a18.9,18.9,0,0,0,0-2.1A8.71,8.71,0,0,1,9.35,4.65,5.43,5.43,0,0,1,10.06,7l.06,1.35L12.35,5.5A9,9,0,0,1,12.51,10.38Z" />
    </g>

    <g id="shape-star">
    <path d="M15.07,6.3l-4.88-.71L8,1.16,5.81,5.59.93,6.3,4.46,9.75l-.83,4.87L8,12.32l4.37,2.3-.83-4.87ZM8,11.19l-3,1.6L5.54,9.4,3.07,7l3.41-.49L8,3.42,9.52,6.51,12.93,7,10.46,9.4,11,12.79Z" />
    </g>

    <g id="shape-support1">
    <path d="M13.5,5a1.55,1.55,0,0,0-.31,0A6,6,0,0,0,2.81,5,1.55,1.55,0,0,0,2.5,5,1.5,1.5,0,0,0,1,6.5v3a1.5,1.5,0,0,0,3,0v-3a1.48,1.48,0,0,0-.34-.94,5,5,0,0,1,8.68,0A1.48,1.48,0,0,0,12,6.5v3a1.48,1.48,0,0,0,.34.94A5,5,0,0,1,10,12.56V12H6v3h4V13.65A6,6,0,0,0,13.2,11a1.45,1.45,0,0,0,.3,0A1.5,1.5,0,0,0,15,9.5v-3A1.5,1.5,0,0,0,13.5,5ZM3,9.5a.5.5,0,0,1-1,0v-3a.5.5,0,0,1,1,0ZM9,14H7V13H9Zm5-4.5a.5.5,0,0,1-1,0v-3a.5.5,0,0,1,1,0Z" />
    </g>

    <g id="shape-support2">
    <path d="M13.76,7a2.38,2.38,0,0,1-.68-.63,2.48,2.48,0,0,1,.14-3.16.71.71,0,0,0,.12-.75A.69.69,0,0,0,12.7,2H10L8,5.5,6,2H3.49A.69.69,0,0,0,3,3.15a2.78,2.78,0,0,1,.26.34,2.48,2.48,0,0,1,.3,1.91A2.62,2.62,0,0,1,2.26,7.05L2,7.2V15H14V7.11ZM13,14H3V11H6v1h4V11h3ZM7,11V10H9v1Zm6-1H10V9H6v1H3V7.77A3.57,3.57,0,0,0,4.49,5.64,3.45,3.45,0,0,0,4.09,3H5.4L8,7.5,10.6,3h1.5A3.51,3.51,0,0,0,13,7.65Z" />
    </g>

    <g id="shape-text-align-left">
    <rect x="2" y="3" width="7" height="1" /><rect x="2" y="6" width="11" height="1" /><rect x="2" y="9" width="7" height="1" /><rect x="2" y="12" width="11" height="1" />
    </g>

    <g id="shape-text-align-right">
    <rect x="3" y="12" width="11" height="1" /><rect x="7" y="9" width="7" height="1" /><rect x="3" y="6" width="11" height="1" /><rect x="7" y="3" width="7" height="1" />
    </g>

    <g id="shape-text-bold">
    <path d="M13.59,10.17a3.86,3.86,0,0,0-3-3.07,3,3,0,0,0,.79-2.81A3.06,3.06,0,0,0,8.38,2H2V3H3V14H2v1H9.94a3.55,3.55,0,0,0,2.64-1.19A4.19,4.19,0,0,0,13.59,10.17ZM5,7H5V8H5v6H4V3H5ZM6,3H8.38a2.07,2.07,0,0,1,2,1.51,2,2,0,0,1-.54,1.9A2,2,0,0,1,8.48,7H6Zm5.84,10.13a2.54,2.54,0,0,1-1.9.87H6V8H9.81a2.87,2.87,0,0,1,2.8,2.35A3.17,3.17,0,0,1,11.84,13.13Z" />
    </g>

    <g id="shape-text-center">
    <rect x="3" y="12" width="10" height="1" /><rect x="5" y="9" width="6" height="1" /><rect x="3" y="6" width="10" height="1" /><rect x="5" y="3" width="6" height="1" />
    </g>

    <g id="shape-text-font">
    <path d="M12.85,14,8,1.08,3.15,14H2v1H5V14H4.22l1.5-4h4.56l1.5,4H11v1h3V14ZM6.1,9,8,3.92,9.9,9Z" />
    </g>

    <g id="shape-text-italic">
    <polygon points="7 2 7 3 8.86 3 6.11 14 4 14 4 15 9 15 9 14 7.14 14 9.89 3 12 3 12 2 7 2" />
    </g>
    
    <g id="shape-text-justify">
    <rect x="3" y="12" width="10" height="1" /><rect x="3" y="9" width="10" height="1" /><rect x="3" y="6" width="10" height="1" /><rect x="3" y="3" width="10" height="1" />
    </g>

    <g id="shape-text-quote">
    <path d="M1,9H6A4.49,4.49,0,0,1,1.5,13v1A5.5,5.5,0,0,0,7,9H7V3H1ZM2,4H6V8H2Z" /><path d="M9,3V9H14A4.49,4.49,0,0,1,9.5,13v1A5.5,5.5,0,0,0,15,9h0V3Zm5,5H10V4h4Z" />
    </g>

    <g id="shape-text-underline">
    <path d="M10,2V3h1V8A3,3,0,0,1,5,8V3H6V2H3V3H4V8a4,4,0,0,0,8,0V3h1V2Z" /><rect x="3" y="14" width="10" height="1" />
    </g>

    <g id="shape-title">
    <path d="M6,7A1.5,1.5,0,1,0,7.5,8.5,1.5,1.5,0,0,0,6,7ZM6,9a.5.5,0,1,1,.5-.5A.5.5,0,0,1,6,9Z"/><path d="M12,5V3H11V5H5V3H4V5H2v9H14V5ZM7,13H5V12H7Zm6,0H8V11H4v2H3V6H13Z"/><rect x="9" y="9" width="3" height="1"/><rect x="9" y="11" width="3" height="1"/>
    </g>

    <g id="shape-trash">
    <rect x="6" y="7" width="1" height="5" /><rect x="9" y="7" width="1" height="5" /><path d="M13,4H11V2H5V4H1V5H3V15H13V5h2V4ZM6,3h4V4H6Zm6,11H4V5h8Z" />
    </g>

    <g id="shape-tutorial">
    <path d="M8,1.08A5.5,5.5,0,0,0,5,11.19V13h6V11.19A5.5,5.5,0,0,0,8,1.08Zm2.25,9.4-.25.14V12H6V10.62l-.25-.14a4.5,4.5,0,1,1,4.5,0Z" /><rect x="5" y="14" width="6" height="1" /><path d="M4.5,6.5h1a2,2,0,0,1,2-2v-1A3,3,0,0,0,4.5,6.5Z" />
    </g>

    <g id="shape-tutorial2">
    <path d="M12.15,2H2V15H14V3.85A1.85,1.85,0,0,0,12.15,2ZM4,14H3V3H4Zm9,0H5V3h7.15a.84.84,0,0,1,.85.85Z" /><rect x="7" y="6" width="2" height="1" /><rect x="7" y="8" width="4" height="1" /><rect x="7" y="10" width="4" height="1" />
    </g>

    <g id="shape-unread">
    <path d="M14.42,7.73a11.28,11.28,0,0,0-2-2.46L11.73,6A9.7,9.7,0,0,1,13.4,8C12,10,10.6,11.3,8,11.3a6,6,0,0,1-1.72-.22L6,12a7.29,7.29,0,0,0,2,.26c3.15,0,4.85-1.61,6.42-4L14.6,8Z" /><path d="M8,9.5l-.22,0-.12,1,.34,0A2.5,2.5,0,0,0,10.5,8a3.25,3.25,0,0,0,0-.33l-1,.1A1.79,1.79,0,0,1,9.5,8,1.5,1.5,0,0,1,8,9.5Z" /><path d="M13.15,2.15,11,4.34A6.72,6.72,0,0,0,8,3.7c-3.15,0-4.85,1.61-6.42,4L1.4,8l.18.27a9.89,9.89,0,0,0,2.57,2.88l-2,2,.7.7,11-11Zm-6.5,6.5A1.44,1.44,0,0,1,6.5,8,1.5,1.5,0,0,1,8,6.5a1.44,1.44,0,0,1,.65.15ZM9.37,5.93A2.44,2.44,0,0,0,8,5.5,2.5,2.5,0,0,0,5.5,8a2.44,2.44,0,0,0,.43,1.37l-1,1.05A8.13,8.13,0,0,1,2.6,8C4,6,5.4,4.7,8,4.7a5.94,5.94,0,0,1,2.2.39Z" />
    </g>
    
    <g id="shape-upgrade-to-paid">
    <rect x="7.5" y="7.8" width="1" height="2.5" /><path d="M11.41,7.77c0-.14,0-.29,0-.43a10.72,10.72,0,0,0-3-6L8,1l-.35.34a10.72,10.72,0,0,0-3,6c0,.14,0,.29,0,.43A2.62,2.62,0,0,0,2.5,10.33a2.52,2.52,0,0,0,1,2l.61.5.19-.77a1.6,1.6,0,0,1,1.14-1.18l.39-.11-.2-2.89c0-.15,0-.3,0-.46A9.47,9.47,0,0,1,8,2.39a9.47,9.47,0,0,1,2.39,5c0,.15,0,.3,0,.45l-.2,2.89.39.11a1.6,1.6,0,0,1,1.14,1.18l.19.77.61-.5a2.52,2.52,0,0,0,.95-2A2.62,2.62,0,0,0,11.41,7.77ZM3.64,11a1.66,1.66,0,0,1-.14-.66A1.61,1.61,0,0,1,4.61,8.8c0,.17,0,.34,0,.52l.06.74A2.64,2.64,0,0,0,3.64,11Zm8.72,0a2.64,2.64,0,0,0-1.08-.93l.05-.6h0c0-.2,0-.41.05-.67a1.62,1.62,0,0,1,1.12,1.54A1.66,1.66,0,0,1,12.36,11Z" /><rect x="6" y="12" width="1" height="2" /><rect x="7.5" y="12" width="1" height="3" /><rect x="9" y="12" width="1" height="2" />
    </g>

    <g id="shape-view-headers">
    <rect x="4" y="9" width="5" height="1" /><rect x="4" y="11" width="8" height="1" /><path d="M1,2V15H15V2ZM14,14H2V6H14Zm0-9H2V3h8V4h1V3h1V4h1V3h1Z" />
    </g>

    <g id="shape-view-html-code">
    <path d="M1,2V15H15V2ZM14,14H2V12.79l2.2-1.3L6.56,12l3.89-1.95L14,12.75Zm0-2.5L10.55,8.92,6.44,11,4,10.43l-2,1.2V6H14ZM14,5H2V3h8V4h1V3h1V4h1V3h1Z" /><path d="M4.8,9.83a1.57,1.57,0,0,0,.7.17A1.41,1.41,0,0,0,6,9.93a1.49,1.49,0,1,0-1.15-.1Zm.26-1.56h0A.48.48,0,0,1,5.35,8L5.5,8a.46.46,0,0,1,.23.06A.48.48,0,0,1,6,8.35a.5.5,0,0,1,0,.38A.48.48,0,0,1,5.65,9a.5.5,0,0,1-.38,0A.48.48,0,0,1,5,8.65.5.5,0,0,1,5.06,8.27Z" />
    </g>

    <g id="shape-view-source-code">
    <rect x="7" y="11" width="5" height="1" /><polygon points="4.34 11.9 6.88 9.94 4.34 7.98 3.73 8.78 5.24 9.94 3.73 11.1 4.34 11.9" /><path d="M1,2V15H15V2ZM14,14H2V6H14Zm0-9H2V3h8V4h1V3h1V4h1V3h1Z" />
    </g>

    <g id="shape-what-is-this">
    <path d="M8.69,3.92a2.66,2.66,0,0,0-2.3.46,2.62,2.62,0,0,0-1,2.08h1A1.62,1.62,0,0,1,7,5.17a1.64,1.64,0,0,1,1.43-.28A1.61,1.61,0,0,1,9.57,6,1.62,1.62,0,0,1,8,8.08H7.5V10h1V9a2.63,2.63,0,0,0,.19-5.12Z" /><rect x="7.5" y="11" width="1" height="1" /><path d="M8,1a7,7,0,1,0,7,7A7,7,0,0,0,8,1ZM8,14a6,6,0,1,1,6-6A6,6,0,0,1,8,14Z" />
    </g>



    <!-- viewbox 100X100 -->
    
    <path id="shape-twitter" d="M100.001,17.942c-3.681,1.688-7.633,2.826-11.783,3.339
    c4.236-2.624,7.49-6.779,9.021-11.73c-3.965,2.432-8.354,4.193-13.026,5.146C80.47,10.575,75.138,8,69.234,8
    c-11.33,0-20.518,9.494-20.518,21.205c0,1.662,0.183,3.281,0.533,4.833c-17.052-0.884-32.168-9.326-42.288-22.155
    c-1.767,3.133-2.778,6.773-2.778,10.659c0,7.357,3.622,13.849,9.127,17.65c-3.363-0.109-6.525-1.064-9.293-2.651
    c-0.002,0.089-0.002,0.178-0.002,0.268c0,10.272,7.072,18.845,16.458,20.793c-1.721,0.484-3.534,0.744-5.405,0.744
    c-1.322,0-2.606-0.134-3.859-0.379c2.609,8.424,10.187,14.555,19.166,14.726c-7.021,5.688-15.867,9.077-25.48,9.077
    c-1.656,0-3.289-0.102-4.895-0.297C9.08,88.491,19.865,92,31.449,92c37.737,0,58.374-32.312,58.374-60.336
    c0-0.92-0.02-1.834-0.059-2.743C93.771,25.929,97.251,22.195,100.001,17.942L100.001,17.942z"></path>  
    
    <g id="shape-youtube"> <path class="youtube"  d="M98.77,27.492c-1.225-5.064-5.576-8.799-10.811-9.354C75.561,16.818,63.01,15.993,50.514,16
      c-12.495-0.007-25.045,0.816-37.446,2.139c-5.235,0.557-9.583,4.289-10.806,9.354C0.522,34.704,0.5,42.574,0.5,50.001
      c0,7.426,0,15.296,1.741,22.509c1.224,5.061,5.572,8.799,10.807,9.352c12.399,1.32,24.949,2.145,37.446,2.14
      c12.494,0.005,25.047-0.817,37.443-2.14c5.234-0.555,9.586-4.291,10.81-9.352c1.741-7.213,1.753-15.083,1.753-22.509
      S100.51,34.704,98.77,27.492 M67.549,52.203L43.977,64.391c-2.344,1.213-4.262,0.119-4.262-2.428V38.036
      c0-2.548,1.917-3.644,4.262-2.429l23.572,12.188C69.896,49.008,69.896,50.992,67.549,52.203"></path> </g> 
    
    <path id="shape-clipboard" d="M28.144 53.684H70.67v3.887H28.144zm63.788-42.757V96.44H6.882V10.927h12.757c5.226 0 9.27-4.214 12.758-7.774h34.02c3.487 3.56 7.531 7.774 12.758 7.774zm-46.778 3.887c0 2.145 1.905 3.887 4.253 3.887 2.347 0 4.252-1.742 4.252-3.887 0-2.146-1.905-3.887-4.252-3.887-2.348 0-4.253 1.74-4.253 3.887zm38.273 58.83c-4.563 5.266-10.41 10.74-16.262 15.023h16.262zm0-54.943h-17.01l-8.505 7.774H41.335L32.397 18.7h-17.01v69.966h31.307c17.673 0 11.218-23.322 11.218-23.322s25.515 6.413 25.515-9.55zM28.144 65.345h21.263v-3.887H28.144zm0-15.548H70.67V45.91H28.144zm0-7.774H70.67v-3.887H28.144z"/>

  </defs>
</svg>