<?xml version="1.0" encoding="utf-8"?>
<!-- Generator: Adobe Illustrator 23.0.6, SVG Export Plug-In . SVG Version: 6.00 Build 0)  -->
<svg version="1.1" id="Capa_1" xmlns="http://www.w3.org/2000/svg" xmlns:xlink="http://www.w3.org/1999/xlink" x="0px" y="0px"
	 viewBox="0 0 433.2 512" style="enable-background:new 0 0 433.2 512;" xml:space="preserve">
<style type="text/css">
	.st0{fill:#C1C2C2;}
</style>
<g>
	<g>
		<path class="st0" d="M31.7,165.8c-8.8,0-16.3,3.1-22.5,9.2S0,188.6,0,197.2v132.3c0,8.8,3.1,16.3,9.2,22.5
			c6.2,6.2,13.6,9.2,22.5,9.2c8.8,0,16.3-3.1,22.3-9.2c6-6.2,9.1-13.6,9.1-22.5V197.2c0-8.6-3.1-16-9.2-22.2S40.3,165.8,31.7,165.8z
			"/>
		<path class="st0" d="M286.5,47.1l21.8-40.3c1.4-2.7,0.9-4.7-1.5-6.2c-2.7-1.2-4.7-0.6-6.2,1.8l-22.2,40.6
			c-19.5-8.6-40.1-12.9-61.8-12.9c-21.7,0-42.4,4.3-61.8,12.9L132.6,2.5c-1.4-2.5-3.5-3.1-6.2-1.8c-2.5,1.4-3,3.5-1.5,6.2l21.8,40.3
			c-22.2,11.3-39.8,27-52.9,47.2c-13.1,20.2-19.7,42.3-19.7,66.3h284.6c0-24-6.6-46.1-19.7-66.3C325.9,74.1,308.4,58.4,286.5,47.1z
			 M160.2,105.7c-2.4,2.4-5.2,3.5-8.5,3.5c-3.3,0-6.1-1.2-8.3-3.5c-2.3-2.4-3.4-5.2-3.4-8.5c0-3.3,1.1-6.1,3.4-8.5
			c2.3-2.4,5-3.5,8.3-3.5s6.1,1.2,8.5,3.5c2.4,2.4,3.5,5.2,3.5,8.5C163.7,100.5,162.5,103.3,160.2,105.7z M289.8,105.7
			c-2.3,2.4-5,3.5-8.3,3.5c-3.3,0-6.1-1.2-8.5-3.5c-2.4-2.4-3.5-5.2-3.5-8.5c0-3.3,1.2-6.1,3.5-8.5c2.4-2.4,5.2-3.5,8.5-3.5
			c3.3,0,6,1.2,8.3,3.5c2.3,2.4,3.4,5.2,3.4,8.5C293.2,100.5,292.1,103.3,289.8,105.7z"/>
		<path class="st0" d="M75.4,376.6c0,9.4,3.3,17.4,9.8,24c6.6,6.6,14.6,9.8,24,9.8H132l0.3,69.9c0,8.8,3.1,16.3,9.2,22.5
			c6.2,6.2,13.5,9.2,22.2,9.2c8.8,0,16.3-3.1,22.5-9.2s9.2-13.6,9.2-22.5v-69.8h42.5v69.8c0,8.8,3.1,16.3,9.2,22.5
			c6.2,6.2,13.6,9.2,22.5,9.2c8.8,0,16.3-3.1,22.5-9.2c6.2-6.2,9.2-13.6,9.2-22.5v-69.8h23.1c9.2,0,17.1-3.3,23.7-9.8
			c6.6-6.6,9.8-14.6,9.8-24V171.7H75.4V376.6z"/>
		<path class="st0" d="M401.5,165.8c-8.6,0-16,3-22.2,9.1c-6.2,6.1-9.2,13.5-9.2,22.3v132.3c0,8.8,3.1,16.3,9.2,22.5
			s13.5,9.2,22.2,9.2c8.8,0,16.3-3.1,22.5-9.2s9.2-13.6,9.2-22.5V197.2c0-8.8-3.1-16.2-9.2-22.3
			C417.8,168.9,410.4,165.8,401.5,165.8z"/>
	</g>
</g>
</svg>
