<svg xmlns="http://www.w3.org/2000/svg" width="324" height="216.761" viewBox="0 0 324 216.761"><defs><style>.cls-1{opacity:.5}.cls-2{fill:#e6ecf1}.cls-3{fill:#ffb8b8}.cls-4{opacity:.1}.cls-5{fill:#2f2e41}.cls-6{fill:#d0cde1}.cls-7{fill:#657ee4}.cls-8{fill:#f6f7fa}.cls-9{fill:#fff;stroke:#dde6ec}.cls-10{fill:#e5e6e9}.cls-11{fill:#dde7ec}</style></defs><g id="undraw_steps_ngvm" transform="translate(29)"><g id="Gruppe_3845" class="cls-1"><g id="Gruppe_3842"><circle id="Ellipse_814" cx="8" cy="8" r="8" class="cls-2" transform="translate(-29 17.761)"/><rect id="Rechteck_1640" width="80" height="16" class="cls-2" rx="8" transform="translate(-1 17.761)"/></g><g id="Gruppe_3843" transform="translate(0 30)"><circle id="Ellipse_814-2" cx="8" cy="8" r="8" class="cls-2" transform="translate(-29 17.761)"/><rect id="Rechteck_1640-2" width="124" height="16" class="cls-2" rx="8" transform="translate(-1 17.761)"/></g><g id="Gruppe_3844" transform="translate(0 60)"><circle id="Ellipse_814-3" cx="8" cy="8" r="8" class="cls-2" transform="translate(-29 17.761)"/><rect id="Rechteck_1640-3" width="80" height="16" class="cls-2" rx="8" transform="translate(-1 17.761)"/></g></g><ellipse id="Ellipse_813" cx="151" cy="11" class="cls-2" rx="151" ry="11" transform="translate(-7 194.761)"/><g id="Gruppe_3841"><path id="Pfad_1634" d="M230.193 16.43s-3.882 11.048-1.493 12.748l-8.062 15.58-12.541-3.4 6.868-11.615s.9-11.615.9-13.314l14.328.001z" class="cls-3"/><path id="Pfad_1635" d="M230.193 16.43s-3.882 11.048-1.493 12.748l-8.062 15.58-12.541-3.4 6.868-11.615s.9-11.615.9-13.314l14.328.001z" class="cls-4"/><path id="Pfad_1636" d="M236.709 95.182s1.133 14.164 0 21.529l-2.833 27.762s0 38.526-6.232 39.093-10.765 1.133-11.331-1.133 2.833-3.4 1.133-4.533-2.266-5.1 0-9.632v-50.424l-10.765 28.895s-1.133 23.8-2.266 27.195 1.133 9.632-2.833 10.2-8.5-2.833-10.765-3.966 3.4-1.133 2.266-1.7-4.533-2.266-3.4-2.833l2.266-27.762s3.116-58.073 7.082-60.339l6.516 1.637z" class="cls-5"/><path id="Pfad_1637" d="M226.51 181.604v4.532s5.1 12.321 0 12.321-9.065 1.277-9.065-.423v-15.3z" class="cls-5"/><path id="Pfad_1638" d="M193.083 181.292v4.532s-5.1 12.321 0 12.321 9.065 1.277 9.065-.423v-15.3z" class="cls-5"/><circle id="Ellipse_811" cx="10.198" cy="10.198" r="10.198" class="cls-3" transform="translate(212.063 4.249)"/><path id="Pfad_1639" d="M225.378 33.427s-2.833 8.5-7.365 6.8l-4.533-1.7-7.932 54.39s6.232 9.065 15.3 3.4l4.53-62.89z" class="cls-6"/><path id="Pfad_1640" d="M858.463 215.363l-2.549-5.382s-15.014 7.082-17.28 9.348a8.848 8.848 0 0 0-2.266 5.666l3.966 14.164s-1.134 31.161-1.134 32.294-3.966 7.365-1.133 5.1 3.4-4.533 5.666-1.133l7.365 7.365z" class="cls-7" transform="translate(-641.017 -183.636)"/><path id="Pfad_1641" d="M197.615 72.52l1.7 15.864s10.2 9.065 7.932 9.632l-3.4-1.7s-3.966 3.966-6.232 1.7l-7.932-23.8z" class="cls-3"/><path id="Pfad_1642" d="M897.26 123.534c2.261-.081 4.68-.121 6.586 1.1a9.643 9.643 0 0 1 2.276 2.228c1.857 2.347 3.461 5.3 2.771 8.212l-.8-.312a5.245 5.245 0 0 0 .506 2.247c-.113-.328-.49.2-.389.534l.882 2.895a2.725 2.725 0 0 0-3.475 2.074c-.1-3.362-.45-7.217-3.177-9.186a10.989 10.989 0 0 0-4.791-1.565 9.637 9.637 0 0 0-4.644.024c-1.48.509-2.74 2.022-2.4 3.55a1.582 1.582 0 0 0-1.783.879 4.614 4.614 0 0 0-.365 2.112c-.727.514-1.555-.507-1.852-1.347a12.155 12.155 0 0 1-.939-6.127c.375-2.057 2.051-4.022 4.141-4.029a1.451 1.451 0 0 1-.377-1.022l1.723-.146a1.9 1.9 0 0 1-1.138-.6c.685.759 6.126-1.481 7.245-1.521z" class="cls-5" transform="translate(-675.216 -123.5)"/><path id="Pfad_1643" d="M222.544 30.027s4.612-4.52 6.272-4.243l3.926 4.243s13.6 4.533 13.031 9.065l-6.8 26.628s-5.1 26.628-.567 29.461-21.53 10.2-22.1 6.8-1.7-37.393 0-42.492l6.238-29.462z" class="cls-7"/><path id="Pfad_1644" d="M202.715 39.093h-7.005s-4.892 21.529-5.459 23.8-1.7 13.031-1.133 13.031 11.9-2.266 11.9-.567z" class="cls-7"/><path id="Pfad_1648" d="M238.975 35.693l6.8 1.7 5.1 30.028s1.7 7.932-1.133 8.5l-10.765 5.1s-1.133-8.5-3.4-8.5l5.666-4.533-3.4-19.83z" class="cls-7"/><path id="Pfad_1647" d="M240.674 77.619l-7.932 3.4s-15.3 2.266-15.3-3.966l15.3-2.833 5.1-1.63z" class="cls-3"/></g><g id="Gruppe_3840"><path id="Rechteck_1627" d="M33.477 74.94h190.092v132.821h-190.092z" class="cls-8"/><g id="Gruppe_3021"><path id="Rechteck_1335" d="M40.871 92.826h24.877v21.29h-24.877z" class="cls-9"/><path id="Rechteck_1335-2" d="M65.748 92.826h24.877v21.29h-24.877z" class="cls-9"/><path id="Rechteck_1335-3" d="M90.625 92.826h24.877v21.29h-24.877z" class="cls-9"/><path id="Rechteck_1335-4" d="M115.502 92.826h24.877v21.29h-24.877z" class="cls-9"/><path id="Rechteck_1335-5" d="M140.378 92.826h24.877v21.29h-24.877z" class="cls-9"/><path id="Rechteck_1335-6" d="M165.255 92.826h24.877v21.29h-24.877z" class="cls-9"/><path id="Rechteck_1335-7" d="M190.132 92.826h24.877v21.29h-24.877z" class="cls-9"/><path id="Rechteck_1335-8" d="M40.871 114.116h24.877v21.29h-24.877z" class="cls-9"/><path id="Rechteck_1335-9" d="M65.748 114.116h24.877v21.29h-24.877z" class="cls-9"/><path id="Rechteck_1335-10" d="M90.625 114.116h24.877v21.29h-24.877z" class="cls-9"/><path id="Rechteck_1335-11" d="M115.502 114.116h24.877v21.29h-24.877z" class="cls-9"/><path id="Rechteck_1335-12" d="M140.378 114.116h24.877v21.29h-24.877z" class="cls-9"/><path id="Rechteck_1335-13" d="M165.255 114.116h24.877v21.29h-24.877z" class="cls-9"/><path id="Rechteck_1335-14" d="M190.132 114.116h24.877v21.29h-24.877z" class="cls-9"/><path id="Rechteck_1335-15" d="M40.871 135.406h24.877v21.29h-24.877z" class="cls-9"/><path id="Rechteck_1335-16" d="M65.748 135.406h24.877v21.29h-24.877z" class="cls-9"/><path id="Rechteck_1335-17" d="M90.625 135.406h24.877v21.29h-24.877z" class="cls-9"/><path id="Rechteck_1335-18" d="M115.502 135.406h24.877v21.29h-24.877z" class="cls-9"/><path id="Rechteck_1335-19" d="M140.378 135.406h24.877v21.29h-24.877z" class="cls-9"/><path id="Rechteck_1335-20" d="M165.255 135.406h24.877v21.29h-24.877z" class="cls-9"/><path id="Rechteck_1335-21" d="M190.132 135.406h24.877v21.29h-24.877z" class="cls-9"/><path id="Rechteck_1335-22" d="M40.871 156.696h24.877v21.29h-24.877z" class="cls-9"/><path id="Rechteck_1335-23" d="M65.748 156.696h24.877v21.29h-24.877z" class="cls-9"/><path id="Rechteck_1335-24" d="M90.625 156.696h24.877v21.29h-24.877z" class="cls-9"/><path id="Rechteck_1335-25" d="M115.502 156.696h24.877v21.29h-24.877z" class="cls-9"/><path id="Rechteck_1335-26" d="M140.378 156.696h24.877v21.29h-24.877z" class="cls-9"/><path id="Rechteck_1335-27" d="M165.255 156.696h24.877v21.29h-24.877z" class="cls-9"/><path id="Rechteck_1335-28" d="M190.132 156.696h24.877v21.29h-24.877z" class="cls-9"/><path id="Rechteck_1335-29" d="M40.871 177.986h24.877v21.29h-24.877z" class="cls-9"/><path id="Rechteck_1335-30" d="M65.748 177.986h24.877v21.29h-24.877z" class="cls-9"/><path id="Rechteck_1335-31" d="M90.625 177.986h24.877v21.29h-24.877z" class="cls-9"/><path id="Rechteck_1335-32" d="M115.502 177.986h24.877v21.29h-24.877z" class="cls-9"/><path id="Rechteck_1335-33" d="M140.378 177.986h24.877v21.29h-24.877z" class="cls-9"/><path id="Rechteck_1335-34" d="M165.255 177.986h24.877v21.29h-24.877z" class="cls-9"/><path id="Rechteck_1335-35" d="M190.132 177.986h24.877v21.29h-24.877z" class="cls-9"/></g><g id="Gruppe_3838" transform="translate(10)"><circle id="Ellipse_812" cx="4.5" cy="4.5" r="4.5" class="cls-10" transform="translate(63 78.761)"/><rect id="Rechteck_1628" width="5" height="26" class="cls-6" rx="2.5" transform="translate(65 59.761)"/></g><g id="Gruppe_3839" transform="translate(111)"><circle id="Ellipse_812-2" cx="4.5" cy="4.5" r="4.5" class="cls-10" transform="translate(63 78.761)"/><rect id="Rechteck_1628-2" width="5" height="26" class="cls-6" rx="2.5" transform="translate(65 59.761)"/></g><path id="Pfad_1649" d="M240.674 77.619l-7.932 3.4s-15.3 2.266-15.3-3.966l15.3-2.833 5.1-1.63z" class="cls-3"/><path id="Rechteck_1629" d="M68 116.761h20v4h-20z" class="cls-11"/><path id="Rechteck_1630" d="M93 138.761h20v4h-20z" class="cls-11"/><path id="Rechteck_1631" d="M93 144.761h20v4h-20z" class="cls-11"/><path id="Rechteck_1632" d="M143 138.761h20v4h-20z" class="cls-11"/><path id="Rechteck_1633" d="M143 159.761h20v4h-20z" class="cls-11"/><path id="Rechteck_1634" d="M118 159.761h20v4h-20z" class="cls-11"/><path id="Rechteck_1635" d="M43 181.761h20v4h-20z" class="cls-11"/><path id="Rechteck_1636" d="M68 181.761h20v4h-20z" class="cls-11"/><path id="Rechteck_1637" d="M68 187.761h20v4h-20z" class="cls-11"/><path id="Rechteck_1638" d="M143 95.761h20v4h-20z" class="cls-11"/><path id="Rechteck_1639" d="M168 95.761h20v4h-20z" class="cls-11"/></g></g></svg>