<svg xmlns="http://www.w3.org/2000/svg" width="149" height="82" viewBox="0 0 149 82"><g><g stroke="#dde6ec" fill="none"><g><path stroke="none" d="M0 0h149v82h-149z"/><path d="M.5.5h148v81h-148z"/></g><g><path d="M2 0h114a2 2 0 0 1 2 2v67h-118v-67a2 2 0 0 1 2-2z" stroke="none" transform="translate(27 13)"/><path d="M2 .5h114a1.5 1.5 0 0 1 1.5 1.5v66a.5.5 0 0 1-.5.5h-116a.5.5 0 0 1-.5-.5v-66a1.5 1.5 0 0 1 1.5-1.5z" transform="translate(27 13)"/></g><path d="M5.5.5v81"/></g><g transform="translate(-333 -661) translate(-173 83)"><path stroke="#dde6ec" fill="none" d="M597.5 595.5h39"/><path d="M592.5 605.5h58" stroke="#dde6ec" fill="none"/><circle cx="1.5" cy="1.5" r="1.5" transform="translate(598 599)" fill="#dde6ec"/><circle cx="1.5" cy="1.5" r="1.5" transform="translate(602 599)" fill="#dde6ec"/><circle cx="1.5" cy="1.5" r="1.5" transform="translate(606 599)" fill="#dde6ec"/><path stroke="#dde6ec" fill="none" d="M639.5 595.5h6"/><path stroke="#dde6ec" fill="none" d="M639.5 600.5h6"/><path stroke="#dde6ec" fill="none" d="M597.5 613.5h48"/><g stroke="#dde6ec" fill="none"><path stroke="none" d="M598 619h48v31h-48z"/><path d="M598.5 619.5h47v30h-47z"/></g><path stroke="#dde6ec" fill="none" d="M598.5 625.5h47"/><path stroke="#dde6ec" fill="none" d="M603.5 631.5h38"/><path stroke="#dde6ec" fill="none" d="M603.5 634.5h38"/><path stroke="#dde6ec" fill="none" d="M603.5 637.5h38"/><path d="M603.5 640.5h28" stroke="#dde6ec" fill="none"/><path d="M603.5 643.5h8" stroke="#dde6ec" fill="none"/><path d="M592.427 591.573v67.641" stroke="#dde6ec" fill="none"/></g><g stroke="#657ee4"><g transform="translate(-333 -661) translate(360 674)" stroke-width="2" fill="none"><path d="M2 0h57v16h-59v-14a2 2 0 0 1 2-2z" stroke="none"/><rect x="1" y="1" width="57" height="14" rx="1"/></g><g><g transform="translate(-333 -661) translate(364 678)" fill="none"><circle cx="4" cy="4" r="4" stroke="none"/><circle cx="4" cy="4" r="3.5"/></g><path stroke-width="2" fill="none" d="M41.5 19h14"/><path d="M41.5 23.5h24" fill="none"/><path d="M74 19h7" fill="none"/><g transform="translate(-333 -661) translate(407 684)" fill="#657ee4"><circle cx=".5" cy=".5" r=".5" stroke="none"/><circle cx=".5" cy=".5" fill="none"/></g><g transform="translate(-333 -661) translate(409 684)" fill="#657ee4"><circle cx=".5" cy=".5" r=".5" stroke="none"/><circle cx=".5" cy=".5" fill="none"/></g><g transform="translate(-333 -661) translate(411 684)" fill="#657ee4"><circle cx=".5" cy=".5" r=".5" stroke="none"/><circle cx=".5" cy=".5" fill="none"/></g><g transform="translate(-333 -661) translate(413 684)" fill="#657ee4"><circle cx=".5" cy=".5" r=".5" stroke="none"/><circle cx=".5" cy=".5" fill="none"/></g></g></g><g stroke="#657ee4"><g stroke-width="2" fill="none"><path stroke="none" d="M27 27h59v16h-59z"/><path d="M28 28h57v14h-57z"/></g><g><g transform="translate(31 31)" fill="none"><circle cx="4" cy="4" r="4" stroke="none"/><circle cx="4" cy="4" r="3.5"/></g><path stroke-width="2" fill="none" d="M41.5 33h14"/><path d="M41.5 37.5h24" fill="none"/><path d="M74 33h7" fill="none"/><g transform="translate(74 37)" fill="#657ee4"><circle cx=".5" cy=".5" r=".5" stroke="none"/><circle cx=".5" cy=".5" fill="none"/></g><g transform="translate(76 37)" fill="#657ee4"><circle cx=".5" cy=".5" r=".5" stroke="none"/><circle cx=".5" cy=".5" fill="none"/></g><g transform="translate(78 37)" fill="#657ee4"><circle cx=".5" cy=".5" r=".5" stroke="none"/><circle cx=".5" cy=".5" fill="none"/></g><g transform="translate(80 37)" fill="#657ee4"><circle cx=".5" cy=".5" r=".5" stroke="none"/><circle cx=".5" cy=".5" fill="none"/></g></g></g><g stroke="#657ee4"><g stroke-width="2" fill="none"><path stroke="none" d="M27 41h59v16h-59z"/><path d="M28 42h57v14h-57z"/></g><g><g transform="translate(31 45)" fill="none"><circle cx="4" cy="4" r="4" stroke="none"/><circle cx="4" cy="4" r="3.5"/></g><path stroke-width="2" fill="none" d="M41.5 47h14"/><path d="M41.5 51.5h24" fill="none"/><path d="M74 47h7" fill="none"/><g transform="translate(74 51)" fill="#657ee4"><circle cx=".5" cy=".5" r=".5" stroke="none"/><circle cx=".5" cy=".5" fill="none"/></g><g transform="translate(76 51)" fill="#657ee4"><circle cx=".5" cy=".5" r=".5" stroke="none"/><circle cx=".5" cy=".5" fill="none"/></g><g transform="translate(78 51)" fill="#657ee4"><circle cx=".5" cy=".5" r=".5" stroke="none"/><circle cx=".5" cy=".5" fill="none"/></g><g transform="translate(80 51)" fill="#657ee4"><circle cx=".5" cy=".5" r=".5" stroke="none"/><circle cx=".5" cy=".5" fill="none"/></g></g></g></g></svg>