<svg xmlns="http://www.w3.org/2000/svg" width="149" height="82" viewBox="0 0 149 82">
  <g id="Groupe_9322" data-name="Groupe 9322" transform="translate(-333 -661)">
    <g id="Groupe_9293" data-name="Groupe 9293" transform="translate(-173 239)">
      <g id="Rectangle_1230" data-name="Rectangle 1230" transform="translate(506 422)" fill="#fff" stroke="#dde6ec" stroke-width="1">
        <rect width="149" height="82" stroke="none"/>
        <rect x="0.5" y="0.5" width="148" height="81" fill="none"/>
      </g>
      <g id="Rectangle_1231" data-name="Rectangle 1231" transform="translate(533 435)" fill="#fff" stroke="#dde6ec" stroke-width="1">
        <path d="M2,0H116a2,2,0,0,1,2,2V69a0,0,0,0,1,0,0H0a0,0,0,0,1,0,0V2A2,2,0,0,1,2,0Z" stroke="none"/>
        <path d="M2,.5H116A1.5,1.5,0,0,1,117.5,2V68a.5.5,0,0,1-.5.5H1A.5.5,0,0,1,.5,68V2A1.5,1.5,0,0,1,2,.5Z" fill="none"/>
      </g>
      <path id="Tracé_1414" data-name="Tracé 1414" d="M0,0V81" transform="translate(511.5 422.5)" fill="none" stroke="#dde6ec" stroke-width="1"/>
    </g>
    <g id="Groupe_9294" data-name="Groupe 9294" transform="translate(-173 83)">
      <g id="Groupe_9295" data-name="Groupe 9295">
        <line id="Ligne_513" data-name="Ligne 513" x2="39" transform="translate(597.5 595.5)" fill="none" stroke="#dde6ec" stroke-width="1"/>
        <path id="Tracé_1421" data-name="Tracé 1421" d="M-19,0H39" transform="translate(611.5 605.5)" fill="none" stroke="#dde6ec" stroke-width="1"/>
        <circle id="Ellipse_699" data-name="Ellipse 699" cx="1.5" cy="1.5" r="1.5" transform="translate(598 599)" fill="#dde6ec"/>
        <circle id="Ellipse_700" data-name="Ellipse 700" cx="1.5" cy="1.5" r="1.5" transform="translate(602 599)" fill="#dde6ec"/>
        <circle id="Ellipse_701" data-name="Ellipse 701" cx="1.5" cy="1.5" r="1.5" transform="translate(606 599)" fill="#dde6ec"/>
        <line id="Ligne_514" data-name="Ligne 514" x2="6" transform="translate(639.5 595.5)" fill="none" stroke="#dde6ec" stroke-width="1"/>
        <line id="Ligne_515" data-name="Ligne 515" x2="6" transform="translate(639.5 600.5)" fill="none" stroke="#dde6ec" stroke-width="1"/>
        <line id="Ligne_516" data-name="Ligne 516" x2="48" transform="translate(597.5 613.5)" fill="none" stroke="#dde6ec" stroke-width="1"/>
        <g id="Rectangle_1237" data-name="Rectangle 1237" transform="translate(598 619)" fill="#fff" stroke="#dde6ec" stroke-width="1">
          <rect width="48" height="31" stroke="none"/>
          <rect x="0.5" y="0.5" width="47" height="30" fill="none"/>
        </g>
        <line id="Ligne_517" data-name="Ligne 517" x2="47" transform="translate(598.5 625.5)" fill="none" stroke="#dde6ec" stroke-width="1"/>
        <line id="Ligne_518" data-name="Ligne 518" x2="38" transform="translate(603.5 631.5)" fill="none" stroke="#dde6ec" stroke-width="1"/>
        <line id="Ligne_519" data-name="Ligne 519" x2="38" transform="translate(603.5 634.5)" fill="none" stroke="#dde6ec" stroke-width="1"/>
        <line id="Ligne_520" data-name="Ligne 520" x2="38" transform="translate(603.5 637.5)" fill="none" stroke="#dde6ec" stroke-width="1"/>
        <path id="Tracé_1422" data-name="Tracé 1422" d="M0,0H28" transform="translate(603.5 640.5)" fill="none" stroke="#dde6ec" stroke-width="1"/>
        <path id="Tracé_1423" data-name="Tracé 1423" d="M0,0H8" transform="translate(603.5 643.5)" fill="none" stroke="#dde6ec" stroke-width="1"/>
        <path id="Tracé_5601" data-name="Tracé 5601" d="M-19,0H48.641" transform="translate(592.427 610.573) rotate(90)" fill="none" stroke="#dde6ec" stroke-width="1"/>
      </g>
    </g>
    <g id="Groupe_9301" data-name="Groupe 9301">
      <g id="Rectangle_1236" data-name="Rectangle 1236" transform="translate(360 674)" fill="none" stroke="#657ee4" stroke-width="2">
        <path d="M2,0H59a0,0,0,0,1,0,0V16a0,0,0,0,1,0,0H0a0,0,0,0,1,0,0V2A2,2,0,0,1,2,0Z" stroke="none"/>
        <rect x="1" y="1" width="57" height="14" rx="1" fill="none"/>
      </g>
      <g id="Groupe_9296" data-name="Groupe 9296">
        <g id="Ellipse_698" data-name="Ellipse 698" transform="translate(364 678)" fill="none" stroke="#657ee4" stroke-width="1">
          <circle cx="4" cy="4" r="4" stroke="none"/>
          <circle cx="4" cy="4" r="3.5" fill="none"/>
        </g>
        <line id="Ligne_511" data-name="Ligne 511" x2="14" transform="translate(374.5 680)" fill="none" stroke="#657ee4" stroke-width="2"/>
        <path id="Tracé_1418" data-name="Tracé 1418" d="M0,0H24" transform="translate(374.5 684.5)" fill="none" stroke="#657ee4" stroke-width="1"/>
        <path id="Tracé_1419" data-name="Tracé 1419" d="M6,0h7" transform="translate(401 680)" fill="none" stroke="#657ee4" stroke-width="1"/>
        <g id="Ellipse_985" data-name="Ellipse 985" transform="translate(407 684)" fill="#657ee4" stroke="#657ee4" stroke-width="1">
          <circle cx="0.5" cy="0.5" r="0.5" stroke="none"/>
          <circle cx="0.5" cy="0.5" fill="none"/>
        </g>
        <g id="Ellipse_986" data-name="Ellipse 986" transform="translate(409 684)" fill="#657ee4" stroke="#657ee4" stroke-width="1">
          <circle cx="0.5" cy="0.5" r="0.5" stroke="none"/>
          <circle cx="0.5" cy="0.5" fill="none"/>
        </g>
        <g id="Ellipse_987" data-name="Ellipse 987" transform="translate(411 684)" fill="#657ee4" stroke="#657ee4" stroke-width="1">
          <circle cx="0.5" cy="0.5" r="0.5" stroke="none"/>
          <circle cx="0.5" cy="0.5" fill="none"/>
        </g>
        <g id="Ellipse_988" data-name="Ellipse 988" transform="translate(413 684)" fill="#657ee4" stroke="#657ee4" stroke-width="1">
          <circle cx="0.5" cy="0.5" r="0.5" stroke="none"/>
          <circle cx="0.5" cy="0.5" fill="none"/>
        </g>
      </g>
    </g>
    <g id="Groupe_9300" data-name="Groupe 9300">
      <g id="Rectangle_1964" data-name="Rectangle 1964" transform="translate(360 688)" fill="none" stroke="#657ee4" stroke-width="2">
        <rect width="59" height="16" stroke="none"/>
        <rect x="1" y="1" width="57" height="14" fill="none"/>
      </g>
      <g id="Groupe_9297" data-name="Groupe 9297" transform="translate(0 14)">
        <g id="Ellipse_698-2" data-name="Ellipse 698" transform="translate(364 678)" fill="none" stroke="#657ee4" stroke-width="1">
          <circle cx="4" cy="4" r="4" stroke="none"/>
          <circle cx="4" cy="4" r="3.5" fill="none"/>
        </g>
        <line id="Ligne_511-2" data-name="Ligne 511" x2="14" transform="translate(374.5 680)" fill="none" stroke="#657ee4" stroke-width="2"/>
        <path id="Tracé_1418-2" data-name="Tracé 1418" d="M0,0H24" transform="translate(374.5 684.5)" fill="none" stroke="#657ee4" stroke-width="1"/>
        <path id="Tracé_1419-2" data-name="Tracé 1419" d="M6,0h7" transform="translate(401 680)" fill="none" stroke="#657ee4" stroke-width="1"/>
        <g id="Ellipse_985-2" data-name="Ellipse 985" transform="translate(407 684)" fill="#657ee4" stroke="#657ee4" stroke-width="1">
          <circle cx="0.5" cy="0.5" r="0.5" stroke="none"/>
          <circle cx="0.5" cy="0.5" fill="none"/>
        </g>
        <g id="Ellipse_986-2" data-name="Ellipse 986" transform="translate(409 684)" fill="#657ee4" stroke="#657ee4" stroke-width="1">
          <circle cx="0.5" cy="0.5" r="0.5" stroke="none"/>
          <circle cx="0.5" cy="0.5" fill="none"/>
        </g>
        <g id="Ellipse_987-2" data-name="Ellipse 987" transform="translate(411 684)" fill="#657ee4" stroke="#657ee4" stroke-width="1">
          <circle cx="0.5" cy="0.5" r="0.5" stroke="none"/>
          <circle cx="0.5" cy="0.5" fill="none"/>
        </g>
        <g id="Ellipse_988-2" data-name="Ellipse 988" transform="translate(413 684)" fill="#657ee4" stroke="#657ee4" stroke-width="1">
          <circle cx="0.5" cy="0.5" r="0.5" stroke="none"/>
          <circle cx="0.5" cy="0.5" fill="none"/>
        </g>
      </g>
    </g>
    <g id="Groupe_9299" data-name="Groupe 9299">
      <g id="Rectangle_1965" data-name="Rectangle 1965" transform="translate(360 702)" fill="none" stroke="#657ee4" stroke-width="2">
        <rect width="59" height="16" stroke="none"/>
        <rect x="1" y="1" width="57" height="14" fill="none"/>
      </g>
      <g id="Groupe_9298" data-name="Groupe 9298" transform="translate(0 28)">
        <g id="Ellipse_698-3" data-name="Ellipse 698" transform="translate(364 678)" fill="none" stroke="#657ee4" stroke-width="1">
          <circle cx="4" cy="4" r="4" stroke="none"/>
          <circle cx="4" cy="4" r="3.5" fill="none"/>
        </g>
        <line id="Ligne_511-3" data-name="Ligne 511" x2="14" transform="translate(374.5 680)" fill="none" stroke="#657ee4" stroke-width="2"/>
        <path id="Tracé_1418-3" data-name="Tracé 1418" d="M0,0H24" transform="translate(374.5 684.5)" fill="none" stroke="#657ee4" stroke-width="1"/>
        <path id="Tracé_1419-3" data-name="Tracé 1419" d="M6,0h7" transform="translate(401 680)" fill="none" stroke="#657ee4" stroke-width="1"/>
        <g id="Ellipse_985-3" data-name="Ellipse 985" transform="translate(407 684)" fill="#657ee4" stroke="#657ee4" stroke-width="1">
          <circle cx="0.5" cy="0.5" r="0.5" stroke="none"/>
          <circle cx="0.5" cy="0.5" fill="none"/>
        </g>
        <g id="Ellipse_986-3" data-name="Ellipse 986" transform="translate(409 684)" fill="#657ee4" stroke="#657ee4" stroke-width="1">
          <circle cx="0.5" cy="0.5" r="0.5" stroke="none"/>
          <circle cx="0.5" cy="0.5" fill="none"/>
        </g>
        <g id="Ellipse_987-3" data-name="Ellipse 987" transform="translate(411 684)" fill="#657ee4" stroke="#657ee4" stroke-width="1">
          <circle cx="0.5" cy="0.5" r="0.5" stroke="none"/>
          <circle cx="0.5" cy="0.5" fill="none"/>
        </g>
        <g id="Ellipse_988-3" data-name="Ellipse 988" transform="translate(413 684)" fill="#657ee4" stroke="#657ee4" stroke-width="1">
          <circle cx="0.5" cy="0.5" r="0.5" stroke="none"/>
          <circle cx="0.5" cy="0.5" fill="none"/>
        </g>
      </g>
    </g>
  </g>
</svg>
