<svg xmlns="http://www.w3.org/2000/svg" width="149" height="82" viewBox="0 0 149 82"><defs><style>.a,.c{fill:transparent;}.a,.b{stroke:#dde6ec;}.b,.d,.f{fill:none;}.c,.d{stroke:#657ee4;}.c{stroke-width:2px;}.e{stroke:none;}</style></defs><g class="a"><path class="e" d="M0 0h149v82h-149z"/><path class="f" d="M.5.5h148v81h-148z"/></g><g class="a"><path class="e" d="M2 0h114a2 2 0 0 1 2 2v67h-118v-67a2 2 0 0 1 2-2z" transform="translate(27 13)"/><path class="f" d="M2 .5h114a1.5 1.5 0 0 1 1.5 1.5v66a.5.5 0 0 1-.5.5h-116a.5.5 0 0 1-.5-.5v-66a1.5 1.5 0 0 1 1.5-1.5z" transform="translate(27 13)"/></g><path class="b" d="M5.5.5v81"/><g class="c" transform="translate(-506 -428) translate(587 462)"><rect class="e" width="58" height="43" rx="3"/><rect class="f" x="1" y="1" width="56" height="41" rx="2"/></g><path class="d" d="M81.5 46.5h55.644M81.5 70.5h55.644M87.5 52.5h44M87.5 56.5h24M87.5 60.5h34M87.5 64.5h14"/></svg>