<svg xmlns="http://www.w3.org/2000/svg" id="Component_25_4" width="64.096" height="64.096" data-name="Component 25 – 4" viewBox="0 0 64.096 64.096">
    <defs>
        <style>
            .cls-1{fill:#3c414e}.cls-2{fill:#fff}
        </style>
    </defs>
    <ellipse id="Ellipse_775" cx="32.048" cy="32.048" class="cls-1" data-name="Ellipse 775" rx="32.048" ry="32.048"/>
    <g id="Group_3307" data-name="Group 3307" transform="translate(11.468 6.717)">
        <path id="Path_1593" d="M36.26 10.1H5.185A2.669 2.669 0 0 0 2.5 12.785v25.244a2.693 2.693 0 0 0 2.685 2.685h10.7a2.474 2.474 0 0 1-.115-.767V37.3H6.106a.181.181 0 0 1-.192-.192V17.926H35.57v19.182a.181.181 0 0 1-.192.192h-9.744v2.685a2.658 2.658 0 0 1-.115.767h10.7a2.669 2.669 0 0 0 2.685-2.685V12.785A2.637 2.637 0 0 0 36.26 10.1zM6.989 15.164a1.151 1.151 0 0 1 0-2.3 1.151 1.151 0 0 1 0 2.3zm3.491 0a1.151 1.151 0 1 1 0-2.3 1.151 1.151 0 0 1 0 2.3zm3.529 0a1.151 1.151 0 1 1 1.151-1.151 1.13 1.13 0 0 1-1.151 1.151z" class="cls-2" data-name="Path 1593"/>
        <path id="Path_1563" d="M26.3 57.942l8.958-8.958 9.047 8.958h-6.149v6.849h-5.707v-6.8z" class="cls-2" data-name="Path 1563" transform="translate(-14.669 -23.967)"/>
    </g>
</svg>
