<svg xmlns="http://www.w3.org/2000/svg" width="305" height="151" viewBox="0 0 305 151">
    <defs>
        <style>
            .cls-1{fill:none}.cls-2{clip-path:url(#clip-path)}.cls-3{fill:#e6e6e6}.cls-4{fill:#f2f2f2}.cls-5{fill:url(#linear-gradient)}.cls-6{fill:#e0a17e}.cls-7{fill:#f0f1f5}.cls-10,.cls-8{opacity:.1}.cls-9{fill:#293158}.cls-11{opacity:.02}.cls-12{fill:#2f2e41}
        </style>
        <clipPath id="clip-path">
            <path d="M0 0h305v151H0z" class="cls-1"/>
        </clipPath>
        <linearGradient id="linear-gradient" x1="6.119" x2="6.119" y1="5.087" y2="6.087" gradientUnits="objectBoundingBox">
            <stop offset="0" stop-color="gray" stop-opacity=".251"/>
            <stop offset=".54" stop-color="gray" stop-opacity=".122"/>
            <stop offset="1" stop-color="gray" stop-opacity=".102"/>
        </linearGradient>
    </defs>
    <g id="Component_26_1" class="cls-2" data-name="Component 26 – 1">
        <path id="Rectangle_1405" d="M0 0h305v151H0z" class="cls-3" data-name="Rectangle 1405"/>
        <path id="Path_1591" d="M111.954 21.78h280.06s-286.787.003-280.06 0z" class="cls-3" data-name="Path 1591" transform="translate(-99.67 -20.78)"/>
        <circle id="Ellipse_848" cx="2.656" cy="2.656" r="2.656" class="cls-4" data-name="Ellipse 848" transform="translate(9.105 4.414)"/>
        <circle id="Ellipse_849" cx="2.656" cy="2.656" r="2.656" class="cls-4" data-name="Ellipse 849" transform="translate(17.071 4.414)"/>
        <circle id="Ellipse_850" cx="2.656" cy="2.656" r="2.656" class="cls-4" data-name="Ellipse 850" transform="translate(25.038 4.414)"/>
        <g id="Group_3310" data-name="Group 3310" transform="translate(-179.62 -109.071)">
            <path id="Path_1593" d="M298.715 184.923a47.326 47.326 0 0 1-10.592 29.9c-.259.321-.517.635-.783.948a1.356 1.356 0 0 0-.141.172 47.809 47.809 0 0 1-8.2 7.513l-.392.29c-.541.384-1.089.783-1.645 1.113l-.384.243-.823.509a4.207 4.207 0 0 1-.376.212 2.529 2.529 0 0 1-.321.2q-1.81 1.058-3.729 1.951c-.141.078-.3.141-.447.212s-.321.157-.494.219-.509.227-.783.329a46.285 46.285 0 0 1-8.485 2.664 47.382 47.382 0 0 1-8.422 1.026h-1.551a47.5 47.5 0 0 1-11.1-1.277l-.682-.165q-2.4-.626-4.7-1.457a47.886 47.886 0 0 1-3.432-1.426l-.682-.306-.6-.306-.627-.321-.7-.368-.783-.447-.125-.071a47.714 47.714 0 0 1-9.229-6.824c-.235-.227-.478-.447-.705-.689s-.494-.486-.729-.736a47.547 47.547 0 1 1 81.659-33.108z" class="cls-4" data-name="Path 1593"/>
            <path id="Path_1595" d="M284.578 216.5v.063l.055.055c-.015-.051-.039-.083-.055-.118zM236.663 240c-.078-1.1-.157-2.084-.227-2.93-.055-.6-.11-1.128-.157-1.567a.141.141 0 0 1 0-.063v-.313a17.986 17.986 0 0 0-1.849 3.682l.125.071.783.447.7.368.627.321a8.046 8.046 0 0 0 .078 1.1c-.039-.376-.055-.736-.078-1.089zm10.428-44.79l.039.071a.161.161 0 0 1 0 .055.316.316 0 0 0-.039-.1z" class="cls-5" data-name="Path 1595" transform="translate(-6.672 -12.527)"/>
            <path id="Path_1596" d="M262.617 185s-2.828 12.708 4.944 19.422-18.361 11.971-22.961 6.353 3.2-8.485 3.2-8.485 3.917-3.181 0-12.708z" class="cls-6" data-name="Path 1596" transform="translate(-8.559 -10.316)"/>
            <path id="Path_1597" d="M269.473 245.645a47.382 47.382 0 0 1-8.422 1.026H259.5a47.49 47.49 0 0 1-11.094-1.293l-.682-.165q-2.4-.626-4.7-1.457L242.24 232l3.4-16.272 2-9.589.564-2.679.572.783.125.172.157.2 6.268 8.344 6.416-6.91.329-.36 1.763-1.9.666-.713.313 2.421 1.128 8.7 2.092 16.053z" class="cls-7" data-name="Path 1597" transform="translate(-8.363 -14.232)"/>
            <path id="Path_1598" d="M291.913 237.274c-.541.384-1.089.783-1.645 1.113l-.384.243-.823.509a4.206 4.206 0 0 1-.376.212 2.525 2.525 0 0 1-.321.2 12.6 12.6 0 0 1-3.753-5.531 8.49 8.49 0 0 1-.235-.83.758.758 0 0 1 0-.133l-.447 1.175-1.371 3.392s.407 1.661 1.136 4.293q-.384.18-.783.329a46.284 46.284 0 0 1-8.485 2.664 47.378 47.378 0 0 1-8.426 1.022h-.431a77.822 77.822 0 0 1-.415-10.968l1.034-19.719.525-9.95.29-5.484s.1.11.3.29.329.313.564.525A21.15 21.15 0 0 0 280.4 205.8a8.319 8.319 0 0 1 6.518 3.463 15.352 15.352 0 0 1 2.656 6.777l.235 2.154.063.611.086.783z" class="cls-8" data-name="Path 1598" transform="translate(-13.317 -13.524)"/>
            <path id="Path_1599" d="M292.4 236.821l-.392.29c-.541.384-1.089.783-1.645 1.113l-.384.243-.823.509a13 13 0 0 1-4.058-5.656 2.2 2.2 0 0 1-.094-.282 10.132 10.132 0 0 1-.227-.846l-.321.838-.439 1.136-1 2.617s.462 1.88 1.277 4.779c-.165.078-.321.157-.494.219s-.509.227-.783.329a46.286 46.286 0 0 1-8.485 2.664 47.383 47.383 0 0 1-8.422 1.026 78 78 0 0 1-.494-11.689l1-19.108.533-10.185.259-4.8.047-.995a1.524 1.524 0 0 0 .133.133 21.226 21.226 0 0 0 13.319 5.868 8.32 8.32 0 0 1 6.456 3.377 15.314 15.314 0 0 1 2.726 6.863l.415 3.862v.055l.086.783z" class="cls-9" data-name="Path 1599" transform="translate(-13.417 -13.353)"/>
            <path id="Path_1600" d="M245.015 202.07v.478l-.125 1.818-.439 6.221s-.259 1.794-.447 5.837c-.274 5.327-.439 14.556.2 28.753l-.682-.165q-2.4-.626-4.7-1.457a47.886 47.886 0 0 1-3.432-1.426c-.227-3.134-.5-5.053-.5-5.053a9.148 9.148 0 0 0-.533.783c-.133.212-.3.47-.47.783l-.039.071q-.227.391-.486.893a13.3 13.3 0 0 0-.58 1.277l-.783-.447-.125-.071a47.713 47.713 0 0 1-9.229-6.824c1.261-4.442 2.35-8.908 2.742-9.48a27.218 27.218 0 0 0 3.33-7.263 12.308 12.308 0 0 1 7.051-7.834A28.6 28.6 0 0 0 245 202.07h.016z" class="cls-8" data-name="Path 1600" transform="translate(-4.119 -14.013)"/>
            <path id="Path_1601" d="M244.809 201.755a42.375 42.375 0 0 1-10.036 6.322 12.308 12.308 0 0 0-7.051 7.834 27.218 27.218 0 0 1-3.33 7.263c-.384.572-1.481 5.045-2.742 9.5.227.235.47.462.705.689a47.712 47.712 0 0 0 9.229 6.824l.125.071a17.932 17.932 0 0 1 1.724-3.322l.039-.063c.274-.407.447-.627.447-.627s.071.517.172 1.449.235 2.35.36 4l.682.306c.219.11.439.2.674.306.9.4 1.825.783 2.758 1.12a48.356 48.356 0 0 0 4.7 1.457c-.642-14.055-.5-23.315-.243-28.776.2-4.4.478-6.354.478-6.354l.995-5.719.282-1.614.133-.783z" class="cls-9" data-name="Path 1601" transform="translate(-3.904 -13.918)"/>
            <path id="Path_1602" d="M255.786 197.56a11.607 11.607 0 0 1-5.085-1.167 22.858 22.858 0 0 0-1.622-5.9l14.821-4.583a28.37 28.37 0 0 0-.306 8.618 11.611 11.611 0 0 1-7.808 3.032z" class="cls-8" data-name="Path 1602" transform="translate(-9.844 -10.514)"/>
            <circle id="Ellipse_851" cx="11.65" cy="11.65" r="11.65" class="cls-6" data-name="Ellipse 851" transform="translate(234.292 163.042)"/>
            <g id="Group_3309" class="cls-10" data-name="Group 3309" transform="translate(268.192 218.823)">
                <path id="Path_1603" d="M287.466 251.266a148.22 148.22 0 0 1-1.426-5.335l1.763-4.591a9.885 9.885 0 0 0 .6 1.88l.039.1-1 2.617s.462 1.88 1.277 4.779c-.165.078-.321.157-.494.219s-.508.229-.759.331z" data-name="Path 1603" transform="translate(-286.04 -241.34)"/>
            </g>
            <path id="Path_1604" d="M302.667 221.295s-1.058-10.24 0-15.183-12.355.705-9.535 7.411a57.644 57.644 0 0 0 5.649 10.592z" class="cls-6" data-name="Path 1604" transform="translate(-19.3 -14.482)"/>
            <path id="Path_1605" d="M306.5 233.869a47.843 47.843 0 0 1-8.2 7.513l-.392.29c-.541.384-1.089.783-1.645 1.113a33.071 33.071 0 0 1-3.369-4.8l-.1-.18 2.828-14.831.3.306c.125.118.29.274.486.431h.039c1.465 1.254 4.56 3.134 6.048-1.238a13.207 13.207 0 0 0 .541-2.35l.29 1.081.172.635 3.134 11.822z" class="cls-8" data-name="Path 1605" transform="translate(-19.31 -17.922)"/>
            <path id="Path_1606" d="M306.5 234.069a47.812 47.812 0 0 1-8.2 7.513l-.392.29c-.541.384-1.089.783-1.645 1.112l-.384.243a34.2 34.2 0 0 1-3.087-4.528l.1-.525 2.726-14.306s.141.165.384.392l.486.431a7.7 7.7 0 0 0 .7.533c1.622 1.112 4.09 1.951 5.343-1.959a13.2 13.2 0 0 0 .5-2.225l.36 1.332z" class="cls-9" data-name="Path 1606" transform="translate(-19.31 -18.121)"/>
            <path id="Path_1607" d="M306.5 234.069a47.812 47.812 0 0 1-8.2 7.513l-.392.29c-.541.384-1.089.783-1.645 1.112l-.384.243a34.2 34.2 0 0 1-3.087-4.528l.1-.525 2.726-14.306s.141.165.384.392l.486.431a7.7 7.7 0 0 0 .7.533c1.622 1.112 4.09 1.951 5.343-1.959a13.2 13.2 0 0 0 .5-2.225l.36 1.332z" class="cls-11" data-name="Path 1607" transform="translate(-19.31 -18.121)"/>
            <path id="Path_1608" d="M236.779 245.745l-.039.063v-.118a8.591 8.591 0 0 1 1.34-3.22s.525 3.486.995 8.712c-.227-.1-.447-.2-.674-.306l-.682-.306c-.118-1.684-.243-3.055-.36-4s-.172-1.449-.172-1.449-.134.216-.408.624z" class="cls-8" data-name="Path 1608" transform="translate(-7.172 -22.762)"/>
            <path id="Path_1609" d="M605.635 258.835l-1.94-1.392s5.785-3.251 11.961-1.1l-1.272-2.264s4.762-.36 7.534 4.867a36.444 36.444 0 0 1 3.817 9.256l2.314.649-1.507 1.661 2.839 2.879-3.372-1.32a10.123 10.123 0 0 1-1.731 4.911l-1.392 1.94s-1.38-7.167-1.16-7.953l-.551 1.965s-1.665-2.374-1.335-3.553l-1.564 1.045.017-2.326-7.874.123 1.674-1.437-4.683-.678 2.374-1.665s-5.823 1.121-6.626 3.227-4.127 4.14-4.127 4.14l-.628-2.295s.709-9.33 7.232-10.68z" class="cls-12" data-name="Path 1609" transform="rotate(-11 -89.673 2123.922)"/>
        </g>
        <g id="Group_3311" data-name="Group 3311" transform="translate(-90.45 -159.2)">
            <path id="Rectangle_1392" d="M0 0h144.752v10.05H0z" class="cls-4" data-name="Rectangle 1392" transform="translate(225.485 198.2)"/>
            <path id="Rectangle_1393" d="M0 0h144.752v10.05H0z" class="cls-4" data-name="Rectangle 1393" transform="translate(225.485 240.64)"/>
            <path id="Path_1611" d="M0 0h85.391v10.05H0z" class="cls-4" data-name="Path 1611" transform="translate(224.45 219.42)"/>
            <path id="Path_1610" d="M0 0h58.317v10.05H0z" class="cls-4" data-name="Path 1610" transform="translate(224.45 261.85)"/>
            <path id="Rectangle_1396" d="M0 0h58.317v10.05H0z" class="cls-4" data-name="Rectangle 1396" transform="translate(293.175 261.85)"/>
        </g>
    </g>
</svg>
