<svg xmlns="http://www.w3.org/2000/svg" width="64.096" height="64.096" viewBox="0 0 64.096 64.096">
    <defs>
        <style>
            .cls-1{fill:none}.cls-2{clip-path:url(#clip-path)}.cls-3{fill:#3c414e}.cls-4{fill:#fff}
        </style>
        <clipPath id="clip-path">
            <path d="M0 0h64.096v64.096H0z" class="cls-1"/>
        </clipPath>
    </defs>
    <g id="Component_31_1" class="cls-2" data-name="Component 31 – 1">
        <ellipse id="Ellipse_775" cx="32.048" cy="32.048" class="cls-3" data-name="Ellipse 775" rx="32.048" ry="32.048"/>
        <g id="Group_3302" data-name="Group 3302" transform="translate(4.264 8.001)">
            <path id="Path_1585" d="M64.317 15.9h.098a3.949 3.949 0 1 0 0-7.9h-.098a3.949 3.949 0 1 0 0 7.9z" class="cls-4" data-name="Path 1585" transform="translate(-27.853 -.001)"/>
            <path id="Path_1586" d="M42.186 15.9a3.949 3.949 0 0 0 0-7.9 3.949 3.949 0 0 0 0 7.9z" class="cls-4" data-name="Path 1586" transform="translate(-14.674)"/>
            <path id="Path_1587" d="M44.339 41.012V30.521a1.827 1.827 0 0 1 .681-1.421 1.88 1.88 0 0 0-.578-.325 1.841 1.841 0 0 0-.59-.1h-6.03a1.876 1.876 0 0 0-1.851 1.85v10.487a1.872 1.872 0 0 0 1.812 1.847v7.957a1.9 1.9 0 0 0 .037.374 1.825 1.825 0 0 0 .1.328c0 .006 0 .013.006.019a1.73 1.73 0 0 0 .116.232l.007.013a1.976 1.976 0 0 0 .164.229c.019.025.043.046.065.069a1.8 1.8 0 0 0 .136.136c.028.025.057.046.085.068a1.756 1.756 0 0 0 .147.1c.032.021.064.04.1.058a1.548 1.548 0 0 0 .163.078c.033.015.067.029.1.041a1.789 1.789 0 0 0 .192.053c.032.007.061.016.093.022a1.847 1.847 0 0 0 .3.026h2.486a1.806 1.806 0 0 0 .3-.027c.032-.006.061-.015.093-.022a1.815 1.815 0 0 0 .192-.053.995.995 0 0 0 .1-.041 1.64 1.64 0 0 0 .163-.078c.034-.018.066-.037.1-.058a1.681 1.681 0 0 0 .146-.1c.029-.022.058-.044.086-.068a1.729 1.729 0 0 0 .136-.136c.022-.023.045-.044.065-.069a2.006 2.006 0 0 0 .163-.229l.008-.013a1.974 1.974 0 0 0 .116-.232c0-.006 0-.013.006-.019a1.814 1.814 0 0 0 .1-.328 1.862 1.862 0 0 0 .037-.374v-7.956a1.84 1.84 0 0 0 1.13-.428L45 42.418a1.832 1.832 0 0 1-.661-1.406z" class="cls-4" data-name="Path 1587" transform="translate(-13.325 -12.31)"/>
            <path id="Path_1588" d="M19.811 15.9a3.949 3.949 0 0 0 0-7.9 3.949 3.949 0 0 0 0 7.9z" class="cls-4" data-name="Path 1588" transform="translate(-1.349)"/>
            <path id="Path_1589" d="M21.964 41.012V30.521a1.827 1.827 0 0 1 .681-1.421 1.88 1.88 0 0 0-.578-.325 1.841 1.841 0 0 0-.59-.1h-6.03A1.876 1.876 0 0 0 13.6 30.52v10.492a1.872 1.872 0 0 0 1.812 1.847v7.957a1.9 1.9 0 0 0 .037.374 1.825 1.825 0 0 0 .1.328c0 .006 0 .013.006.019a1.729 1.729 0 0 0 .116.232l.007.013a1.976 1.976 0 0 0 .164.229c.019.025.043.046.065.069a1.8 1.8 0 0 0 .136.136c.028.025.057.046.085.068a1.755 1.755 0 0 0 .147.1c.032.021.064.04.1.058a1.549 1.549 0 0 0 .163.078c.033.015.067.029.1.041a1.789 1.789 0 0 0 .192.053c.032.007.061.016.093.022a1.848 1.848 0 0 0 .3.026H19.7a1.806 1.806 0 0 0 .3-.027c.032-.006.061-.015.093-.022a1.815 1.815 0 0 0 .192-.053.995.995 0 0 0 .1-.041 1.64 1.64 0 0 0 .163-.078c.034-.018.066-.037.1-.058a1.681 1.681 0 0 0 .146-.1c.029-.022.058-.044.086-.068a1.728 1.728 0 0 0 .136-.136c.022-.023.045-.044.065-.069a2 2 0 0 0 .163-.229l.008-.013a1.976 1.976 0 0 0 .116-.232c0-.006 0-.013.006-.019a1.813 1.813 0 0 0 .1-.328 1.862 1.862 0 0 0 .037-.374v-7.956a1.84 1.84 0 0 0 1.13-.428l-.018-.013a1.832 1.832 0 0 1-.659-1.406z" class="cls-4" data-name="Path 1589" transform="translate(0 -12.31)"/>
            <path id="Path_1590" d="M66.7 28.785a1.82 1.82 0 0 0-.62-.114h-6.126a1.82 1.82 0 0 0-.62.114 1.844 1.844 0 0 0-1.23 1.736v10.492a1.872 1.872 0 0 0 1.811 1.847v7.957a1.889 1.889 0 0 0 .137.7c0 .006 0 .013.006.019a2.074 2.074 0 0 0 .116.232.134.134 0 0 0 .008.013 1.964 1.964 0 0 0 .163.229c.021.025.043.046.065.069a1.677 1.677 0 0 0 .137.136 1.089 1.089 0 0 0 .085.068 1.619 1.619 0 0 0 .146.1c.033.021.065.04.1.058a1.667 1.667 0 0 0 .163.078c.034.015.068.029.1.041a1.8 1.8 0 0 0 .192.053c.03.007.061.016.092.022a1.9 1.9 0 0 0 .3.026h2.585a1.813 1.813 0 0 0 .3-.027c.031-.006.061-.015.092-.022a1.822 1.822 0 0 0 .192-.053.995.995 0 0 0 .1-.041 1.716 1.716 0 0 0 .163-.078l.1-.058a1.615 1.615 0 0 0 .146-.1 1.087 1.087 0 0 0 .085-.068 1.676 1.676 0 0 0 .137-.136c.022-.023.044-.044.065-.069a2 2 0 0 0 .163-.229l.008-.013a2.11 2.11 0 0 0 .116-.232c0-.006 0-.013.006-.019a1.778 1.778 0 0 0 .1-.328 1.8 1.8 0 0 0 .038-.374v-7.955a1.872 1.872 0 0 0 1.811-1.847V30.521a1.845 1.845 0 0 0-1.232-1.736z" class="cls-4" data-name="Path 1590" transform="translate(-26.506 -12.311)"/>
        </g>
    </g>
</svg>
