<svg xmlns="http://www.w3.org/2000/svg" width="64.096" height="64.096" viewBox="0 0 64.096 64.096"><defs><style>.cls-1{fill:none}.cls-2{clip-path:url(#clip-path)}.cls-3{fill:#3c414e}.cls-4{fill:#fff}</style><clipPath id="clip-path"><path d="M0 0h64.096v64.096h-64.096z" class="cls-1"/></clipPath></defs><g id="Component_31_1" class="cls-2"><ellipse id="Ellipse_775" cx="32.048" cy="32.048" class="cls-3" rx="32.048" ry="32.048"/><g id="Group_3302"><path id="Path_1585" d="M64.317 15.9h.098a3.949 3.949 0 1 0 0-7.9h-.098a3.949 3.949 0 1 0 0 7.9z" class="cls-4" transform="translate(4.264 8.001) translate(-27.853 -.001)"/><path id="Path_1586" d="M42.186 15.9a3.949 3.949 0 0 0 0-7.9 3.949 3.949 0 0 0 0 7.9z" class="cls-4" transform="translate(4.264 8.001) translate(-14.674)"/><path id="Path_1587" d="M44.339 41.012v-10.491a1.827 1.827 0 0 1 .681-1.421 1.88 1.88 0 0 0-.578-.325 1.841 1.841 0 0 0-.59-.1h-6.03a1.876 1.876 0 0 0-1.851 1.85v10.487a1.872 1.872 0 0 0 1.812 1.847v7.957a1.9 1.9 0 0 0 .037.374 1.825 1.825 0 0 0 .1.328l.006.019a1.73 1.73 0 0 0 .116.232l.007.013a1.976 1.976 0 0 0 .164.229l.065.069a1.8 1.8 0 0 0 .136.136l.085.068a1.756 1.756 0 0 0 .147.1l.1.058a1.548 1.548 0 0 0 .163.078l.1.041a1.789 1.789 0 0 0 .192.053l.093.022a1.847 1.847 0 0 0 .3.026h2.486a1.806 1.806 0 0 0 .3-.027l.093-.022a1.815 1.815 0 0 0 .192-.053.995.995 0 0 0 .1-.041 1.64 1.64 0 0 0 .163-.078l.1-.058a1.681 1.681 0 0 0 .146-.1l.086-.068a1.729 1.729 0 0 0 .136-.136l.065-.069a2.006 2.006 0 0 0 .163-.229l.008-.013a1.974 1.974 0 0 0 .116-.232l.006-.019a1.814 1.814 0 0 0 .1-.328 1.862 1.862 0 0 0 .037-.374v-7.956a1.84 1.84 0 0 0 1.13-.428l-.021-.013a1.832 1.832 0 0 1-.661-1.406z" class="cls-4" transform="translate(4.264 8.001) translate(-13.325 -12.31)"/><path id="Path_1588" d="M19.811 15.9a3.949 3.949 0 0 0 0-7.9 3.949 3.949 0 0 0 0 7.9z" class="cls-4" transform="translate(4.264 8.001) translate(-1.349)"/><path id="Path_1589" d="M21.964 41.012v-10.491a1.827 1.827 0 0 1 .681-1.421 1.88 1.88 0 0 0-.578-.325 1.841 1.841 0 0 0-.59-.1h-6.03a1.876 1.876 0 0 0-1.847 1.845v10.492a1.872 1.872 0 0 0 1.812 1.847v7.957a1.9 1.9 0 0 0 .037.374 1.825 1.825 0 0 0 .1.328l.006.019a1.729 1.729 0 0 0 .116.232l.007.013a1.976 1.976 0 0 0 .164.229l.065.069a1.8 1.8 0 0 0 .136.136l.085.068a1.755 1.755 0 0 0 .147.1l.1.058a1.549 1.549 0 0 0 .163.078l.1.041a1.789 1.789 0 0 0 .192.053l.093.022a1.848 1.848 0 0 0 .3.026h2.477a1.806 1.806 0 0 0 .3-.027l.093-.022a1.815 1.815 0 0 0 .192-.053.995.995 0 0 0 .1-.041 1.64 1.64 0 0 0 .163-.078l.1-.058a1.681 1.681 0 0 0 .146-.1l.086-.068a1.728 1.728 0 0 0 .136-.136l.065-.069a2 2 0 0 0 .163-.229l.008-.013a1.976 1.976 0 0 0 .116-.232l.006-.019a1.813 1.813 0 0 0 .1-.328 1.862 1.862 0 0 0 .037-.374v-7.956a1.84 1.84 0 0 0 1.13-.428l-.018-.013a1.832 1.832 0 0 1-.659-1.406z" class="cls-4" transform="translate(4.264 8.001) translate(0 -12.31)"/><path id="Path_1590" d="M66.7 28.785a1.82 1.82 0 0 0-.62-.114h-6.126a1.82 1.82 0 0 0-.62.114 1.844 1.844 0 0 0-1.23 1.736v10.492a1.872 1.872 0 0 0 1.811 1.847v7.957a1.889 1.889 0 0 0 .137.7l.006.019a2.074 2.074 0 0 0 .116.232.134.134 0 0 0 .008.013 1.964 1.964 0 0 0 .163.229l.065.069a1.677 1.677 0 0 0 .137.136 1.089 1.089 0 0 0 .085.068 1.619 1.619 0 0 0 .146.1l.1.058a1.667 1.667 0 0 0 .163.078l.1.041a1.8 1.8 0 0 0 .192.053l.092.022a1.9 1.9 0 0 0 .3.026h2.585a1.813 1.813 0 0 0 .3-.027l.092-.022a1.822 1.822 0 0 0 .192-.053.995.995 0 0 0 .1-.041 1.716 1.716 0 0 0 .163-.078l.1-.058a1.615 1.615 0 0 0 .146-.1 1.087 1.087 0 0 0 .085-.068 1.676 1.676 0 0 0 .137-.136l.065-.069a2 2 0 0 0 .163-.229l.008-.013a2.11 2.11 0 0 0 .116-.232l.006-.019a1.778 1.778 0 0 0 .1-.328 1.8 1.8 0 0 0 .038-.374v-7.955a1.872 1.872 0 0 0 1.811-1.847v-10.491a1.845 1.845 0 0 0-1.232-1.736z" class="cls-4" transform="translate(4.264 8.001) translate(-26.506 -12.311)"/></g></g></svg>