<svg xmlns="http://www.w3.org/2000/svg" width="160.271" height="156.847" viewBox="0 0 160.271 156.847">
    <defs>
        <style>
            .cls-1{opacity:.5}.cls-2{fill:url(#linear-gradient)}.cls-3{fill:#fff}.cls-4,.cls-8{fill:#657ee4}.cls-5{fill:#f5f5f5}.cls-6{opacity:.05}.cls-6,.cls-8{isolation:isolate}.cls-7{fill:#e0e0e0}.cls-8{opacity:.7}
        </style>
        <linearGradient id="linear-gradient" x1=".719" x2=".719" y1="-.247" y2=".753" gradientUnits="objectBoundingBox">
            <stop offset="0" stop-color="gray" stop-opacity=".251"/>
            <stop offset=".54" stop-color="gray" stop-opacity=".122"/>
            <stop offset="1" stop-color="gray" stop-opacity=".102"/>
        </linearGradient>
    </defs>
    <g id="Groupe_3880" data-name="Groupe 3880" transform="translate(-899 -419.37)">
        <g id="Groupe_3619" data-name="Groupe 3619" transform="translate(899 419.37)">
            <g id="Groupe_3565" data-name="Groupe 3565">
                <g id="Groupe_3564" class="cls-1" data-name="Groupe 3564">
                    <path id="Tracé_1889" d="M228.931 180.449v-.243l-79.882-61.425a.293.293 0 0 0-.348 0l-79.886 61.425v95.212h.152v.152h160.119v-95.211z" class="cls-2" data-name="Tracé 1889" transform="translate(-68.815 -118.723)"/>
                </g>
                <path id="Tracé_1890" d="M232.863 279.217H78.275v-91.933l77.294-59.434 77.294 59.434z" class="cls-3" data-name="Tracé 1890" transform="translate(-75.505 -125.178)"/>
                <path id="Tracé_1891" d="M240.737 286.923H97.275v-85.316l71.731-55.157 71.731 55.157z" class="cls-4" data-name="Tracé 1891" transform="translate(-88.942 -138.332)"/>
                <path id="Rectangle_1392" d="M0 0h90.469v115.063H0z" class="cls-5" data-name="Rectangle 1392" transform="translate(35.268 23.752)"/>
                <path id="Tracé_1892" d="M80.775 331.35l77.294 45.966-77.294 45.967z" class="cls-6" data-name="Tracé 1892" transform="translate(-77.273 -269.097)"/>
                <path id="Tracé_1893" d="M78.775 331.35l77.294 45.966-77.294 45.967z" class="cls-3" data-name="Tracé 1893" transform="translate(-75.859 -269.097)"/>
                <path id="Tracé_1894" d="M418.069 331.35l-77.294 45.966 77.294 45.966z" class="cls-6" data-name="Tracé 1894" transform="translate(-261.15 -269.097)"/>
                <path id="Tracé_1895" d="M420.069 331.35l-77.294 45.966 77.294 45.966z" class="cls-3" data-name="Tracé 1895" transform="translate(-262.565 -269.097)"/>
                <path id="Tracé_1896" d="M78.775 494.663l77.294-60.313 77.294 60.313z" class="cls-6" data-name="Tracé 1896" transform="translate(-75.859 -341.941)"/>
                <path id="Tracé_1897" d="M78.775 499.663l77.294-60.313 77.294 60.313z" class="cls-3" data-name="Tracé 1897" transform="translate(-75.859 -345.477)"/>
            </g>
            <path id="Rectangle_1420" d="M0 0h1.19v78.586H0z" class="cls-7" data-name="Rectangle 1420" transform="rotate(-89.76 38.416 -2.81)"/>
            <path id="Rectangle_1421" d="M0 0h1.19v39.292H0z" class="cls-8" data-name="Rectangle 1421" transform="rotate(-89.76 41.839 .63)"/>
            <path id="Rectangle_1422" d="M0 0h1.19v70.845H0z" class="cls-7" data-name="Rectangle 1422" transform="rotate(-89.76 45.262 4.066)"/>
            <path id="Rectangle_1423" d="M0 0h1.19v17.264H0z" class="cls-8" data-name="Rectangle 1423" transform="rotate(-89.76 48.686 7.504)"/>
            <path id="Rectangle_1424" d="M0 0h1.19v78.586H0z" class="cls-7" data-name="Rectangle 1424" transform="rotate(-89.76 52.11 10.942)"/>
            <path id="Rectangle_1425" d="M0 0h1.19v78.586H0z" class="cls-7" data-name="Rectangle 1425" transform="rotate(-89.76 55.535 14.38)"/>
        </g>
    </g>
</svg>
