<svg xmlns="http://www.w3.org/2000/svg" width="149" height="82" viewBox="0 0 149 82"><defs><style>.a,.c,.d{fill:transparent;}.a,.b{stroke:#dde6ec;}.b,.e,.h{fill:none;}.c,.d,.e{stroke:#657ee4;}.c{stroke-width:2px;}.f{fill:#dde6ec;}.g{stroke:none;}</style></defs><g class="a"><path class="g" d="M0 0h149v82h-149z"/><path class="h" d="M.5.5h148v81h-148z"/></g><g class="a"><path class="g" d="M2 0h114a2 2 0 0 1 2 2v67h-118v-67a2 2 0 0 1 2-2z" transform="translate(27 13)"/><path class="h" d="M2 .5h114a1.5 1.5 0 0 1 1.5 1.5v66a.5.5 0 0 1-.5.5h-116a.5.5 0 0 1-.5-.5v-66a1.5 1.5 0 0 1 1.5-1.5z" transform="translate(27 13)"/></g><path class="b" d="M5.5.5v81"/><g transform="translate(-506 -588) translate(0 10)"><g class="c" transform="translate(533 591)"><path class="g" d="M2 0h57v69h-59v-67a2 2 0 0 1 2-2z"/><rect class="h" x="1" y="1" width="57" height="67" rx="1"/></g><g class="d" transform="translate(538 595)"><circle class="g" cx="2.5" cy="2.5" r="2.5"/><circle class="h" cx="2.5" cy="2.5" r="2"/></g><path class="e" d="M545.5 596.5h14M545.5 598.5h24M579.5 596.5h8M584.5 598.5h3M534.5 602.5h56"/><g class="d" transform="translate(538 595)"><circle class="g" cx="2.5" cy="2.5" r="2.5"/><circle class="h" cx="2.5" cy="2.5" r="2"/></g><path class="e" d="M545.5 596.5h14M545.5 598.5h24M579.5 596.5h8M584.5 598.5h3M534.5 602.5h56"/><g class="d" transform="translate(0 20) translate(538 595)"><circle class="g" cx="2.5" cy="2.5" r="2.5"/><circle class="h" cx="2.5" cy="2.5" r="2"/></g><path class="e" d="M545.5 616.5h14M545.5 618.5h24M579.5 616.5h8M584.5 618.5h3M534.5 622.5h56"/><g class="d" transform="translate(0 30) translate(538 595)"><circle class="g" cx="2.5" cy="2.5" r="2.5"/><circle class="h" cx="2.5" cy="2.5" r="2"/></g><path class="e" d="M545.5 626.5h14M545.5 628.5h24M579.5 626.5h8M584.5 628.5h3M534.5 632.5h56"/><g class="d" transform="translate(0 40) translate(538 595)"><circle class="g" cx="2.5" cy="2.5" r="2.5"/><circle class="h" cx="2.5" cy="2.5" r="2"/></g><path class="e" d="M545.5 636.5h14M545.5 638.5h24M579.5 636.5h8M584.5 638.5h3M534.5 642.5h56"/><g class="d" transform="translate(0 50) translate(538 595)"><circle class="g" cx="2.5" cy="2.5" r="2.5"/><circle class="h" cx="2.5" cy="2.5" r="2"/></g><path class="e" d="M545.5 646.5h14M545.5 648.5h24M579.5 646.5h8M584.5 648.5h3M534.5 652.5h56"/><g class="e" transform="translate(0 60) translate(538 595)"><circle class="g" cx="2.5" cy="2.5" r="2.5"/><circle class="h" cx="2.5" cy="2.5" r="2"/></g><path class="e" d="M545.5 656.5h14M545.5 658.5h24M579.5 656.5h8M584.5 658.5h3"/><path class="b" d="M597.5 595.5h39M592.5 605.5h58"/><circle class="f" cx="1.5" cy="1.5" r="1.5" transform="translate(598 599)"/><circle class="f" cx="1.5" cy="1.5" r="1.5" transform="translate(602 599)"/><circle class="f" cx="1.5" cy="1.5" r="1.5" transform="translate(606 599)"/><path class="b" d="M639.5 595.5h6M639.5 600.5h6M597.5 613.5h48"/><g class="a"><path class="g" d="M598 619h48v31h-48z"/><path class="h" d="M598.5 619.5h47v30h-47z"/></g><path class="b" d="M598.5 625.5h47M603.5 631.5h38M603.5 634.5h38M603.5 637.5h38M603.5 640.5h28M603.5 643.5h8"/></g></svg>