<svg xmlns="http://www.w3.org/2000/svg" width="149" height="82" viewBox="0 0 149 82"><defs><style>.a,.c,.d{fill:transparent;}.a,.b{stroke:#dde6ec;}.b,.e,.g{fill:none;}.c,.d,.e{stroke:#657ee4;}.c{stroke-width:2px;}.f{stroke:none;}</style></defs><g class="a"><path class="f" d="M0 0h149v82h-149z"/><path class="g" d="M.5.5h148v81h-148z"/></g><g class="a"><path class="f" d="M2 0h114a2 2 0 0 1 2 2v67h-118v-67a2 2 0 0 1 2-2z" transform="translate(27 13)"/><path class="g" d="M2 .5h114a1.5 1.5 0 0 1 1.5 1.5v66a.5.5 0 0 1-.5.5h-116a.5.5 0 0 1-.5-.5v-66a1.5 1.5 0 0 1 1.5-1.5z" transform="translate(27 13)"/></g><path class="b" d="M5.5.5v81"/><g class="c" transform="translate(27 13)"><path class="f" d="M2 0h114a2 2 0 0 1 2 2v67h-118v-67a2 2 0 0 1 2-2z"/><rect class="g" x="1" y="1" width="116" height="67" rx="1"/></g><g class="d" transform="translate(32 16)"><circle class="f" cx="2.5" cy="2.5" r="2.5"/><circle class="g" cx="2.5" cy="2.5" r="2"/></g><path class="e" d="M39.5 18.5h14M65.5 18.5h24M131.5 18.5h8M122.5 18.5h3M28.5 22.5h115"/><g class="d" transform="translate(32 24)"><circle class="f" cx="2.5" cy="2.5" r="2.5"/><circle class="g" cx="2.5" cy="2.5" r="2"/></g><path class="e" d="M39.5 26.5h14M65.5 26.5h24M131.5 26.5h8M122.5 26.5h3M28.5 30.5h115"/><g class="d" transform="translate(32 32)"><circle class="f" cx="2.5" cy="2.5" r="2.5"/><circle class="g" cx="2.5" cy="2.5" r="2"/></g><path class="e" d="M39.5 34.5h14M65.5 34.5h24M131.5 34.5h8M122.5 34.5h3M28.5 38.5h115"/><g class="d" transform="translate(32 40)"><circle class="f" cx="2.5" cy="2.5" r="2.5"/><circle class="g" cx="2.5" cy="2.5" r="2"/></g><path class="e" d="M39.5 42.5h14M65.5 42.5h24M131.5 42.5h8M122.5 42.5h3M28.5 46.5h115"/><g class="d" transform="translate(32 48)"><circle class="f" cx="2.5" cy="2.5" r="2.5"/><circle class="g" cx="2.5" cy="2.5" r="2"/></g><path class="e" d="M39.5 50.5h14M65.5 50.5h24M131.5 50.5h8M122.5 50.5h3M28.5 54.5h115"/><g class="d" transform="translate(32 56)"><circle class="f" cx="2.5" cy="2.5" r="2.5"/><circle class="g" cx="2.5" cy="2.5" r="2"/></g><path class="e" d="M39.5 58.5h14M65.5 58.5h24M131.5 58.5h8M122.5 58.5h3M28.5 62.5h115"/><g class="d" transform="translate(32 64)"><circle class="f" cx="2.5" cy="2.5" r="2.5"/><circle class="g" cx="2.5" cy="2.5" r="2"/></g><path class="e" d="M39.5 66.5h14M65.5 66.5h24M131.5 66.5h8M122.5 66.5h3M28.5 70.5h115"/><g class="d" transform="translate(32 72)"><circle class="f" cx="2.5" cy="2.5" r="2.5"/><circle class="g" cx="2.5" cy="2.5" r="2"/></g><path class="e" d="M39.5 74.5h14M65.5 74.5h24M131.5 74.5h8M122.5 74.5h3M28.5 78.5h115"/></svg>