<svg xmlns="http://www.w3.org/2000/svg" width="187.475" height="79.932" viewBox="0 0 187.475 79.932">
  <g id="Groupe_3907" data-name="Groupe 3907" transform="translate(-19.133)">
    <g id="Groupe_3817" data-name="Groupe 3817" transform="translate(18.133 0)">
      <ellipse id="Ellipse_888" data-name="Ellipse 888" cx="7.173" cy="7.173" rx="7.173" ry="7.173" transform="translate(174.13 4.657)" fill="#ff6584"/>
      <path id="Tracé_1892" data-name="Tracé 1892" d="M39.833,61.2V58.375H50.7V61.2h2.174V21.425H76.132V88.153H33.747V61.2Z" transform="translate(105.062 -16.768)" fill="#e6e6e6"/>
      <path id="Tracé_1894" data-name="Tracé 1894" d="M366.479,160.756v-3.971h12.172v3.971H384.3V145.048h5.434v-6.086h12.172v6.086h5.651v24.66a33.565,33.565,0,0,1,2.632-2.925l.026.026v0c.448.436,6.542,6.449,6.542,11.214,0,4.6-2.544,6.416-5.818,6.648l.238,4.538h-.664l-.073-4.515c-.084,0-.167,0-.251,0a8.726,8.726,0,0,1-2.632-.372v5.932H361.044v-29.5Z" transform="translate(-278.314 -118.873)" fill="#f2f2f2"/>
      <path id="Tracé_1895" data-name="Tracé 1895" d="M798.39,142.237l.041.039v0c.569.553,7.107,7,9.282,13.345v-3.143l20.867-31.517,20.866,31.517V176.17H807.713v-12.25c-1.333,3.729-4.444,5.344-8.177,5.608l.362,6.924h-1.012l-.112-6.889c-.127,0-.255,0-.384,0-5.535,0-10.022-2.635-10.022-10.183S798.39,142.237,798.39,142.237Z" transform="translate(-785.915 -104.785)" fill="#f2f2f2"/>
      <ellipse id="Ellipse_889" data-name="Ellipse 889" cx="27.496" cy="2.534" rx="27.496" ry="2.534" transform="translate(127.832 74.863)" fill="#f2f2f2"/>
      <ellipse id="Ellipse_890" data-name="Ellipse 890" cx="12.263" cy="1.13" rx="12.263" ry="1.13" transform="translate(1 69.883)" fill="#f2f2f2"/>
      <path id="Tracé_1896" data-name="Tracé 1896" d="M970.149,503.5c0,3.169,1.884,4.276,4.208,4.276l.161,0c.108,0,.214-.007.32-.015,2.1-.148,3.727-1.312,3.727-4.259,0-3.05-3.9-6.9-4.191-7.184h0l-.017-.016S970.149,500.335,970.149,503.5Z" transform="translate(-961.246 -438.033)" fill="#657ee4"/>
      <path id="Tracé_1897" data-name="Tracé 1897" d="M982.862,507.3l-1.539-2.151,1.543,2.387,0,.247c.108,0,.214-.008.32-.015l-.166-3.171v-.025l0,0-.016-.3,1.547-2.393L983,504.04l0,.064-.126-2.4,1.324-2.472-1.341,2.052-.13-4.967v0l.022,3.917-1.318-1.553,1.324,1.89.035,2.145-1.231-2.059,1.236,2.374.019,1.193-1.787-2.865,1.794,3.281Z" transform="translate(-969.599 -438.033)" fill="#3f3d56"/>
      <ellipse id="Ellipse_892" data-name="Ellipse 892" cx="22.876" cy="2.109" rx="22.876" ry="2.109" transform="translate(40.676 73.824)" fill="#f2f2f2"/>
      <path id="Tracé_1898" data-name="Tracé 1898" d="M208.409,643.1c0,5.912,3.515,7.977,7.851,7.977q.151,0,.3,0c.2,0,.4-.014.6-.028,3.913-.277,6.953-2.447,6.953-7.946,0-5.691-7.272-12.871-7.818-13.4h0l-.032-.031S208.409,637.192,208.409,643.1Z" transform="translate(-152.588 -576.646)" fill="#657ee4"/>
      <path id="Tracé_1899" data-name="Tracé 1899" d="M232.121,650.177l-2.871-4.012,2.879,4.452.008.461c.2,0,.4-.014.6-.027l-.31-5.915,0-.046-.005-.009-.029-.559,2.886-4.464-2.895,4.045-.007.119-.234-4.47,2.47-4.612-2.5,3.828-.243-9.266v0l.041,7.307-2.459-2.9,2.47,3.526.065,4-2.3-3.84,2.306,4.429.036,2.225-3.334-5.345,3.346,6.121Z" transform="translate(-168.163 -576.357)" fill="#3f3d56"/>
      <path id="Tracé_1900" data-name="Tracé 1900" d="M274.373,170.748c0,12.482,7.42,16.84,16.573,16.84s16.574-4.358,16.574-16.84-16.574-28.36-16.574-28.36S274.373,158.266,274.373,170.748Z" transform="translate(-150.236 -121.554)" fill="#657ee4"/>
      <path id="Tracé_1901" data-name="Tracé 1901" d="M193.807,139.14l-.17-10.446-7.064-12.923,7.038,11.285-.076-4.7-4.869-9.35,4.848,8.107h0l-.137-8.448-5.213-7.444,5.192,6.115-.086-15.49.539,20.506-.044-.846,5.3-8.113-5.215,9.737.494,9.435.015-.25,6.11-8.538-6.092,9.422.062,1.18.011.018-.005.1,1.253,23.936h-1.674l-.2-12.364-6.077-9.4Z" transform="translate(-52.492 -75.016)" fill="#3f3d56"/>
      <path id="Tracé_1902" data-name="Tracé 1902" d="M140.656,170.748c0,12.482,7.42,16.84,16.574,16.84s16.573-4.358,16.573-16.84-16.573-28.36-16.573-28.36S140.656,158.266,140.656,170.748Z" transform="translate(12.546 -121.554)" fill="#657ee4"/>
      <path id="Tracé_1903" data-name="Tracé 1903" d="M60.09,139.14l-.17-10.446-7.064-12.923,7.037,11.285-.076-4.7-4.869-9.35,4.848,8.107h0l-.137-8.448-5.213-7.444,5.192,6.115-.086-15.49.539,20.506-.044-.846,5.3-8.113-5.215,9.737.494,9.435.015-.25,6.11-8.538L60.659,127.2l.062,1.18.011.018,0,.1,1.253,23.936H60.306l-.2-12.364-6.077-9.4Z" transform="translate(110.29 -75.016)" fill="#3f3d56"/>
      <path id="Tracé_1904" data-name="Tracé 1904" d="M189.657,84.888c0,16.878,10.034,22.772,22.411,22.772s22.411-5.893,22.411-22.772-22.411-38.35-22.411-38.35S189.657,68.009,189.657,84.888Z" transform="translate(-58.781 -46.538)" fill="#f2f2f2"/>
      <path id="Tracé_1905" data-name="Tracé 1905" d="M126.723,58.54l-.23-14.126-9.552-17.475L126.457,42.2l-.1-6.351L119.771,23.2l6.556,10.962h0l-.186-11.423-7.05-10.066,7.02,8.269L126,0l.729,27.729-.06-1.144,7.167-10.971L126.78,28.781l.668,12.758.02-.339,8.263-11.545L127.492,42.4l.084,1.6.015.024-.007.131,1.694,32.368h-2.264L126.743,59.8l-8.218-12.71Z" transform="translate(27.381 0)" fill="#3f3d56"/>
    </g>
  </g>
</svg>
