<?xml version="1.0" encoding="utf-8"?>
<!-- Generator: Adobe Illustrator 23.0.6, SVG Export Plug-In . SVG Version: 6.00 Build 0)  -->
<svg version="1.1" id="Layer_1" xmlns:serif="http://www.serif.com/"
	 xmlns="http://www.w3.org/2000/svg" xmlns:xlink="http://www.w3.org/1999/xlink" x="0px" y="0px" viewBox="0 0 400 400"
	 style="enable-background:new 0 0 400 400;" xml:space="preserve">
<style type="text/css">
	.st0{fill:#657EE4;}
	.st1{fill:#FDFDFD;}
	.st2{fill:url(#SVGID_1_);}
	.st3{fill:url(#SVGID_2_);}
	.st4{fill:url(#SVGID_3_);}
	.st5{fill:#DB8B8B;}
	.st6{fill:#35323E;}
	.st7{opacity:0.1;enable-background:new    ;}
	.st8{opacity:5.000000e-02;enable-background:new    ;}
	.st9{fill:#526EE0;}
	.st10{opacity:0.1;}
	.st11{fill:#6A5C99;}
	.st12{fill:#6C63FF;}
</style>
<g>
	<ellipse id="Ellipse_738" class="st0" cx="166.2" cy="182.8" rx="164.8" ry="164.8"/>
	<path id="Path_1601_1_" class="st1" d="M215.2,91.7h-0.5c-18.8,0.1-36.3,9.7-46.5,25.5c-10.2-15.8-27.7-25.4-46.5-25.5h-0.5
		c-30.4,0.2-55,24.9-55,55.3c0,18.1,7.9,43.8,23.4,65c29.5,40.3,78.4,75.5,78.4,75.5s49-35.2,78.4-75.5c15.5-21.2,23.4-46.9,23.4-65
		C269.9,116.8,245.5,92.1,215.2,91.7z"/>
	<linearGradient id="SVGID_1_" gradientUnits="userSpaceOnUse" x1="285.959" y1="635.0914" x2="285.959" y2="409.0736">
		<stop  offset="0" style="stop-color:#808080;stop-opacity:0.251"/>
		<stop  offset="0.54" style="stop-color:#808080;stop-opacity:0.122"/>
		<stop  offset="1" style="stop-color:#808080;stop-opacity:0.102"/>
	</linearGradient>
	<path class="st2" d="M397,201l0.5-0.3c-2.3,0.7-4.6,1-7,1c-4-0.1-7.9-0.9-11.6-2.5c-6-2.8-11.3-6.9-15.5-12
		c-5.9-7-10.3-15.6-18.1-20.2c-1.6-1-3.4-1.7-5.3-2c-3.3-0.1-6.7,0.5-9.8,1.8c-13.9,4-30.3,1.1-39.9-9.8c-2-2.3-3.7-4.9-6-7
		c-7.4-6.9-19.2-6.7-28.6-2.9c-0.6,0.2-1.1,0.5-1.7,0.8c0-0.1,0.1-0.3,0.1-0.4c-1.7,0.7-3.2,1.8-4.4,3.2c-1.5,2.4-2,5.3-1.3,8.1
		c0.1,0.9,0.3,1.7,0.7,2.6c-1.2,1.4-1.8,3.1-1.8,4.9c0,0.2,0,0.4,0,0.7c-11.3,2.5-19.8,12-21.1,23.5v-0.2c-0.1,1-0.2,1.9-0.2,2.9
		v0.4c0,7.4,3,14.5,8.4,19.7c1.5,4.2,4.3,7.7,8,10.1c-0.1,0.3-0.1,0.6-0.2,0.9c-1.4,6.1-6,11-12,12.8c-0.3,0.1-0.6,0.2-0.9,0.3
		l-1.5,0.4l-0.6,0.2c-15.2,4.4-19.5,8-20.9,13.8c-1.1,4.8-2.5,13.5-3,16.9c-1.1,2.5-8.6,20.2-8,30.4c0.1,1.8,0.1,3.5,0.1,5.3
		c-0.1,3.6,0.9,9.3,8.5,7.8c4.3-0.9,11.1-2.9,17.8-5.1c-0.4,1.2-0.8,2.4-1.3,3.5c-1.1,2.4-2.1,4.8-2.8,7.3l0,0v0.1l-0.1,0.3v0.2
		c0,0.1,0,0.2-0.1,0.3c0,0.1,0,0.1,0,0.1c0,0,0,0.1,0,0.1c0,0.1,0,0.3-0.1,0.4c0,0.1,0,0.4-0.1,0.5l0,0v0.3c0,0.1,0,0.1,0,0.2v0.8
		c0,0.1,0,0.1,0,0.2c0,0.2,0,0.3,0,0.5v0.1c0,0.1,0,0.2,0,0.3c0,0.1,0,0.2,0,0.2v0.1l0.1,0.3c0,0.1,0,0.1,0,0.2l0.1,0.3l0,0
		c0,0.1,0,0.2,0.1,0.3c0.3,0.7,0.5,1.5,0.7,2.3c0,0.4,0,0.9-0.1,1.3l0,0l-0.1,0.3c0,0,0,0,0,0.1c-0.1,0.2-0.1,0.5-0.2,0.7
		c0,0.1-0.1,0.3-0.1,0.4c0,0,0,0.1,0,0.1l0,0l0,0.1l0,0.1v0.1l-0.1,0.4v0.1l0,0c0,0,0,0.1,0,0.1v0.1c0,0.1,0,0.1,0,0.2l0,0
		c0,0,0,0.1,0,0.1v0.1c0,0.1,0,0.2,0,0.3c0.1,1,0.5,2,1,2.8c0.1,0.2,0.2,0.4,0.4,0.6l-25.9-0.4c-5.5-0.1-10.8,1.8-15,5.3
		c-7.5,6.4-4.6,12.7,1.3,17.8c6.3,4.8,13.2,8.7,20.7,11.4c1.2,0.5,2,0.7,2,0.7h63.6l0.9,0.2c2.9,0.5,5.9,0.8,8.8,0.8
		c3.6,0,7.2-0.2,10.8-0.6c1.1-0.1,2.2-0.3,3.2-0.4h6.8l0.6,0.1c3.2,0.7,6.4,2.4,9.4,1.1c0.6-0.3,1.1-0.7,1.5-1.2h7.6
		c14.1,0,22.1-4.6,26.1-11c2.7-4.6,3.7-10,2.8-15.3c-1.5-10.7-39.1-11-50.5-10.9c-0.2-0.1-0.3-0.3-0.5-0.4l0,0c-1.3-1-2.9-2.1-3-3.8
		c-0.1-1,0.4-2,0.2-3c-0.3-1.7-2.2-2.5-3.6-3.5c-5-3.1-7-9.6-6.5-15.5c0-0.4,0.1-0.8,0.1-1.1l0,0c0-0.3,0.1-0.6,0.1-0.9
		c0-0.1,0-0.1,0-0.2v-0.1c5.8,1.8,11.6,3.4,17.6,4.6c22.3,4.7,16.6-6.5,16.6-6.5s-2.5-15.9-4-22c-2.5-7.6-5.3-15.1-8.6-22.4
		l-0.2-0.4c-0.1-2-0.8-15.8-11.5-18.5c-3.2-0.8-6.6-1.5-9.9-2.3l-0.2-0.1c-1.1-0.3-2.2-0.6-3.2-0.9c-5.9-1.9-10.7-4.8-12-10.6
		c-0.1-0.3-0.1-0.6-0.2-1c3.8-2.5,6.6-6.2,8-10.5c5-5.1,7.9-12,7.9-19.1c0-0.1,0-0.1,0-0.2V193c0-1,0-1.9-0.2-2.9v0.2
		c-0.2-2.1-0.7-4.1-1.4-6c2.1,1.9,4.4,3.4,6.9,4.6c3,1.4,6.3,2,9.6,2c2.1,0,4.2-0.2,6.3-0.8c5-1.4,9.5-4.6,14.7-5.3
		c0.7-0.1,1.3-0.1,2-0.1c5.2,0.5,10.3,2.2,14.8,4.9c6,3.2,11.8,6.8,17.3,10.7c5.5,3.9,11,8.2,17.6,9.4c1.5,0.3,3,0.4,4.4,0.4
		c4.1,0,8.2-0.8,12.1-2.3c4.8-1.7,9.3-4.1,13.5-7C397.8,200.7,397.4,200.9,397,201z"/>
	<linearGradient id="SVGID_2_" gradientUnits="userSpaceOnUse" x1="218.6312" y1="324.2515" x2="218.6312" y2="299.6464">
		<stop  offset="0" style="stop-color:#808080;stop-opacity:0.251"/>
		<stop  offset="0.54" style="stop-color:#808080;stop-opacity:0.122"/>
		<stop  offset="1" style="stop-color:#808080;stop-opacity:0.102"/>
	</linearGradient>
	<path class="st3" d="M213.1,294.8c0,0,4.6-12.7,4.6-15.9l2.8-8.1l1,1.7c-0.1,0.6-0.2,1.1-0.3,1.7s-0.2,1-0.2,1.6l0,0
		c-0.1,0.5-0.1,1.1-0.2,1.6l0,0c0,0.1,0,0.3,0,0.4v1.6c0,0.1,0,0.1,0,0.2v0.2c0,0.2,0,0.4,0,0.6v0.1c0,0,0,0.1,0,0.1
		c0,0.2,0,0.4,0.1,0.6c0,0.2,0.1,0.5,0.2,0.7v0.1c0.5,2,1.7,3.8,2.4,5.7l0,0c0.1,0.2,0.1,0.4,0.2,0.5l0.1,0.2l0.1,0.4l0.1,0.3
		l0.1,0.4v0.2c0,0.2,0,0.4,0.1,0.6l0,0c0.1,1.1,0.2,2.3,0.1,3.4c0,0.4,0,0.7,0,1C219.3,295.5,214.7,295.8,213.1,294.8L213.1,294.8z"
		/>
	
		<linearGradient id="SVGID_3_" gradientUnits="userSpaceOnUse" x1="3.3238" y1="395.6424" x2="3.3238" y2="395.4254" gradientTransform="matrix(94.5527 0 0 -95.2097 -24.7635 37915.9844)">
		<stop  offset="0" style="stop-color:#808080;stop-opacity:0.251"/>
		<stop  offset="0.54" style="stop-color:#808080;stop-opacity:0.122"/>
		<stop  offset="1" style="stop-color:#808080;stop-opacity:0.102"/>
	</linearGradient>
	<path class="st4" d="M287.1,271.2c1.1,4.7,7.8,20,7.8,20c-1.2,0.9-5.9,0.7-10.7,0.2c0.1-0.2,0.2-0.5,0.3-0.7l0.1-0.4l0.2-0.6
		c0.1-0.4,0.3-0.8,0.5-1.2l0.3-0.8v-0.1c0.1-0.3,0.2-0.6,0.3-0.9c0-0.1,0.1-0.2,0.1-0.3v0l0.1-0.5c0-0.1,0-0.2,0.1-0.3l0.1-0.5
		c0-0.1,0-0.1,0-0.2c0,0,0-0.1,0-0.1c0-0.1,0-0.2,0-0.2c0-0.2,0.1-0.4,0.1-0.6c0-0.1,0-0.1,0-0.2c0,0,0-0.1,0-0.1
		c0-0.1,0-0.3,0.1-0.4c0.1-0.4,0.1-0.8,0.2-1.2v-0.2c0-0.1,0-0.2,0-0.4v-0.6c0-0.1,0-0.3,0-0.4c0-0.1,0-0.2,0-0.3c0,0,0-0.1,0-0.1
		l0,0V278l0,0v-0.5c0,0,0,0,0,0v-0.6c0-0.3,0-0.6-0.1-0.9v-0.3c-0.1-0.9-0.2-1.8-0.4-2.7L287.1,271.2z"/>
	<path id="Path_1605_1_" class="st5" d="M301.3,257.4L287,270.7l-1.1,2.8l-0.7,1.9l-60.4,2.9l-3.2-5.1l-1-1.6l-2.8,8.2l-14.3-8.9
		c0,0,1.8-12.2,3.2-18.2c1.4-5.8,5.7-9.3,20.7-13.7l0.6-0.2l1.5-0.4c0.3-0.1,0.6-0.2,0.9-0.3c5.9-1.8,10.5-6.7,11.9-12.7
		c1-3.7,1.2-7.5,0.7-11.3c0,0,22-7,21.3,7c-0.1,1.4,0,2.9,0.3,4.2c1.3,5.8,6.1,8.6,11.9,10.5c1,0.3,2.1,0.6,3.2,0.9l0.2,0.1
		c3.3,0.8,6.7,1.5,9.9,2.3C301.3,241.7,301.3,257.4,301.3,257.4z"/>
	<path id="Path_1606_1_" class="st6" d="M250.4,152.3c1.4-1.6,3.2-2.8,5.2-3.5c9.3-3.8,21-4,28.4,2.9c2.2,2.1,3.9,4.6,5.9,6.9
		c9.5,10.7,25.8,13.6,39.6,9.7c3.1-1.2,6.4-1.8,9.7-1.7c1.9,0.3,3.7,1,5.2,2c7.8,4.6,12.2,13.1,18,20c4.1,5.1,9.4,9.2,15.4,11.9
		c6,2.7,12.8,3.2,19.1,1.5c-4.1,2.9-8.6,5.2-13.3,6.9c-5,2-10.4,2.7-15.7,1.9c-6.5-1.2-12-5.5-17.5-9.3c-5.5-3.9-11.3-7.4-17.2-10.6
		c-5.4-2.9-11.3-5.6-17.3-4.7c-5.1,0.7-9.6,3.9-14.6,5.3c-5,1.4-10.3,1-15.1-1.1c-12.8-5.8-18.6-22.9-32.3-26.1
		c-3.5-0.8-4.1,0.4-4.9-3.8C248.4,157.6,248.9,154.7,250.4,152.3z"/>
	<path id="Path_1607_1_" class="st7" d="M388.4,203.2c-5,2-10.4,2.7-15.7,1.9c-6.5-1.2-12-5.5-17.5-9.3c-5.5-3.9-11.3-7.4-17.2-10.6
		c-5.4-2.9-11.3-5.6-17.3-4.7c-5.1,0.7-9.6,3.9-14.6,5.3c-5,1.4-10.3,1-15.1-1.1c-12.8-5.8-18.6-22.9-32.3-26.1
		c-3.5-0.8-4.1,0.4-4.9-3.9c-0.4-1.9-0.3-3.8,0.1-5.6c-1.7,0.7-3.2,1.7-4.4,3.1c-1.5,2.4-2,5.3-1.2,8c0.7,4.3,1.4,3,4.9,3.8
		c13.7,3.2,19.5,20.3,32.3,26.1c4.7,2.1,10.1,2.5,15.1,1.1c5-1.4,9.4-4.6,14.6-5.3c6-0.8,12,1.9,17.3,4.7
		c5.9,3.2,11.7,6.7,17.2,10.6c5.4,3.8,10.9,8.1,17.4,9.3c5.3,0.8,10.7,0.1,15.7-1.9c4.7-1.7,9.2-4,13.4-6.9c-2.2,0.7-4.6,1-6.9,1
		L388.4,203.2z"/>
	<circle id="Ellipse_744_1_" class="st6" cx="253.2" cy="194.7" r="27"/>
	<path id="Path_1608_1_" class="st7" d="M253.2,215.6c-13.8,0-25.4-10.4-26.8-24.1c-0.1,0.9-0.2,1.9-0.2,2.8
		c-0.2,14.9,11.7,27.2,26.6,27.4s27.2-11.7,27.4-26.6c0-0.3,0-0.5,0-0.8c0-1-0.1-1.9-0.2-2.8C278.6,205.2,267,215.6,253.2,215.6z"/>
	<path id="Path_1609_1_" class="st7" d="M264.6,225c-6.7,4.5-15.5,4.6-22.3,0.1c1-3.7,1.2-7.5,0.7-11.3c0,0,22-7,21.3,7
		C264.2,222.2,264.3,223.6,264.6,225z"/>
	<circle id="Ellipse_745_1_" class="st5" cx="253.4" cy="207.4" r="20"/>
	<path id="Path_1610_1_" class="st8" d="M250.6,262c1,1,1.8,2.2,2.5,3.5c1.2,2,1.4,4.4,0.7,6.6c-0.7-2.7-0.2-5.5,1.3-7.8
		c1.6-2.2,3.7-4,6.2-5"/>
	<path id="Path_1611_1_" class="st6" d="M340.6,357.5c-3.9,6.3-11.9,10.9-25.9,10.9H202.1c0,0-0.7-0.3-2-0.7
		c-7.4-2.7-14.3-6.5-20.5-11.3c-5.9-5.1-8.7-11.3-1.3-17.6c4.1-3.5,9.4-5.4,14.9-5.3l37.9,0.6l59-2.5c0,0,51.5-1.8,53.3,10.7
		C344.2,347.6,343.3,352.9,340.6,357.5z"/>
	<path id="Path_1612_1_" class="st9" d="M294.7,335.3c-0.6,1.3-2.3,1.7-3.7,2.1c-5.8,1.7-9.4,7.4-14.1,11.3c-2.3,2-5,3.5-7.9,4.6
		c-6.6,2.2-13.8,2.5-20.6,0.7c-6.8-1.6-14.5-2.9-19.6-7.7c-4.1-3.8-7.6-8.2-10.4-13c-0.6-0.8-0.9-1.8-1-2.8c0-0.1,0-0.2,0-0.3
		c0-0.1,0-0.1,0-0.2c0-0.1,0-0.1,0-0.2c0-0.1,0-0.2,0-0.2c0-0.1,0-0.2,0.1-0.3c0-0.1,0-0.2,0.1-0.3c0-0.1,0.1-0.2,0.1-0.3
		c0.1-0.4,0.3-0.8,0.4-1.2c0-0.1,0.1-0.3,0.1-0.4l0,0c0.1-0.4,0.2-0.9,0.1-1.3c-0.1-0.8-0.3-1.5-0.6-2.3c0-0.1,0-0.2-0.1-0.3
		c0-0.1-0.1-0.2-0.1-0.3c0-0.2-0.1-0.4-0.1-0.6c0-0.2-0.1-0.4-0.1-0.6c0-0.3,0-0.6,0-0.9v-0.5c0,0,0,0,0-0.1c0-0.2,0-0.3,0-0.5
		c0-0.3,0.1-0.7,0.2-1c0-0.2,0.1-0.4,0.1-0.6c0-0.1,0-0.2,0.1-0.3c0,0,0,0,0-0.1l0,0c0.8-2.5,1.7-4.9,2.8-7.2
		c2.2-5.3,3.5-10.9,3.6-16.7c0-1.1,0-2.3-0.1-3.4l0,0c0-0.1,0-0.2,0-0.4c0-0.1-0.1-0.4-0.1-0.6c0-0.2-0.1-0.4-0.1-0.6
		c0-0.2-0.1-0.3-0.1-0.4c0-0.1-0.1-0.4-0.2-0.5c-0.6-2-1.9-3.7-2.4-5.7c-0.1-0.2-0.1-0.5-0.2-0.7c0-0.2-0.1-0.4-0.1-0.6v-0.2
		c0-0.3-0.1-0.6-0.1-1v-0.9c0-0.2,0-0.4,0-0.7c0-0.1,0-0.3,0-0.4c0-0.3,0-0.5,0.1-0.8c0-0.3,0.1-0.5,0.1-0.8c0.1-0.5,0.1-1,0.2-1.5
		c0.1-0.5,0.2-1.1,0.3-1.7c0.3-2.5,1.1-5,2.3-7.2c1.9-3.2,5.3-5.7,5.9-9.4c0.2-1.5,0-3-0.3-4.4c-0.1-0.3-0.1-0.6-0.2-0.9
		c-0.9-4.1-1.5-8.2-1.9-12.3l0.6-0.2l1.5-0.4c0.3-0.1,0.6-0.2,0.9-0.3c0.2,4.2,0.8,8.3,1.6,12.3c0.6,3.2,1.7,6.3,3.3,9.1
		c1.6,2.9,4.3,5,7.4,6c2.1,0.4,4.3,0.5,6.4,0.2c4.3-0.4,8.6-1,12.9-1.8c3.1-0.5,6.1-1.4,9-2.8c0.7-0.4,1.4-0.9,1.9-1.5
		c0.6-0.8,1-1.8,1.2-2.8c1.8-6.9,2.6-14,2.5-21.1c1,0.3,2.1,0.6,3.2,0.9l0.2,0.1c0,1.2-0.1,2.3-0.1,3.5c0,0.7-0.1,1.4-0.1,2.1
		c0,0.4-0.1,0.8-0.1,1.2c0,0.3-0.1,0.6-0.1,0.9c0,0.1,0,0.2,0,0.3c0,0.3-0.1,0.7-0.1,1c-0.1,0.5-0.1,0.9-0.2,1.4l-0.1,0.6
		c-0.1,0.9-0.3,1.8-0.4,2.7l0,0c-0.2,1.3-0.3,2.7-0.2,4c0.3,3,1.6,5.8,3.5,8.2c1.8,2.8,3,6,3.5,9.4c0.1,0.6,0.3,1.1,0.4,1.7
		c0.2,0.9,0.3,1.8,0.4,2.7c0,0.2,0,0.3,0,0.5c0,0.1,0,0.3,0,0.4v3.9c0,0.2,0,0.4,0,0.6c0,0.1,0,0.2,0,0.3l0,0.4c0,0.2,0,0.4-0.1,0.5
		c0,0.2-0.1,0.4-0.1,0.7s-0.1,0.4-0.1,0.7c-0.1,0.4-0.1,0.8-0.2,1.2c-0.1,0.5-0.2,1-0.4,1.5c0,0.2-0.1,0.3-0.1,0.5
		c-0.2,0.6-0.3,1.1-0.5,1.7c-0.7,1.9-1.5,3.9-2.2,5.8c-0.1,0.3-0.2,0.6-0.3,1c-0.1,0.4-0.2,0.6-0.3,0.9l0,0c-0.1,0.3-0.2,0.7-0.3,1
		s-0.2,0.6-0.3,1c-0.2,0.7-0.4,1.3-0.6,2c0,0.2-0.1,0.4-0.1,0.6c0,0.1,0,0.2-0.1,0.3c0,0.1,0,0.2-0.1,0.3c-0.1,0.4-0.2,0.8-0.3,1.3
		l-0.1,0.5c-0.1,0.4-0.1,0.7-0.2,1l0,0c0,0.4-0.1,0.8-0.1,1.1c-0.5,5.8,1.5,12.3,6.5,15.4c1.5,0.9,3.3,1.7,3.6,3.4
		c0.2,1-0.3,2-0.2,3c0.2,1.6,1.7,2.7,3,3.7l0,0C294.1,332.2,295.3,333.8,294.7,335.3z"/>
	<g id="Group_3201_1_" transform="translate(90.988 92.003)" class="st10">
		<path id="Path_1613_1_" d="M188.9,207.9c-0.1,1.5-0.1,3.1,0.1,4.6c1-5.4,2.7-10.6,4.8-15.7c1.5-4.1,2-8.4,1.6-12.7
			c-0.2,2.4-0.8,4.7-1.6,7C191.8,196.6,189.4,202.1,188.9,207.9z"/>
		<path id="Path_1614_1_" d="M189.1,144.5c0,1.2-0.1,2.3-0.1,3.5c0,0.7-0.1,1.4-0.1,2.1c0,0.4-0.1,0.8-0.1,1.2
			c0,0.3-0.1,0.6-0.1,0.9c0,0.1,0,0.2,0,0.3c0,0.3-0.1,0.7-0.1,1c-0.1,0.5-0.1,0.9-0.2,1.4l-0.1,0.6c-0.1,0.9-0.3,1.8-0.4,2.7
			c-0.1-0.6-0.2-1.1-0.2-1.7c0.1-2.9,0.4-5.8,0.9-8.7c0.1-1.1,0.2-2.2,0.3-3.3L189.1,144.5z"/>
		<path id="Path_1615_1_" d="M132.6,196.1c0.3,0.8,0.4,1.7,0.5,2.6c0.1-0.8,0.1-1.6,0.1-2.3c0.1-2-0.1-4-0.7-5.9
			c-0.6-2-1.9-3.7-2.4-5.7c0-0.2-0.1-0.3-0.1-0.5c-0.4,2-0.3,4.1,0.1,6.2C130.7,192.4,131.9,194.2,132.6,196.1z"/>
		<path id="Path_1616_1_" d="M201.8,239.1L201.8,239.1c-0.6,0.2-1.2,0.4-1.8,0.5c-5.8,1.7-9.4,7.4-14.1,11.3c-2.3,2-5,3.5-7.9,4.6
			c-6.6,2.2-13.8,2.4-20.6,0.7c-6.8-1.6-14.5-2.9-19.6-7.6c-4.1-3.8-7.6-8.2-10.4-13l-0.2-0.4c-0.4,1.1-0.7,2.2-0.8,3.3
			c0.1,1,0.5,2,1,2.8c2.8,4.8,6.3,9.2,10.4,13c5.1,4.7,12.8,6.1,19.6,7.7c6.8,1.8,13.9,1.6,20.6-0.7c2.9-1.1,5.5-2.6,7.9-4.6
			c4.7-3.9,8.3-9.6,14.1-11.3c1.4-0.4,3.1-0.7,3.7-2.1C204.3,241.8,203.1,240.2,201.8,239.1z"/>
		<path id="Path_1617_1_" d="M127.5,228.2c-0.1-0.8-0.3-1.5-0.6-2.2c-0.5,1.8-0.5,3.6-0.1,5.4C127.2,230.4,127.4,229.3,127.5,228.2z
			"/>
		<path id="Path_1618_1_" d="M138.8,158.7c-0.1,0.5-0.2,0.9-0.3,1.3c-0.1-0.3-0.1-0.6-0.2-0.9c-0.9-4.1-1.5-8.2-1.9-12.3l0.6-0.2
			c0.3,2.3,0.7,4.6,1.2,6.8C138.7,155.1,138.9,156.9,138.8,158.7z"/>
	</g>
	<path id="Path_1619_1_" class="st5" d="M207.8,265.8l-4.1,3c0,0-8.7,19.5-8.1,30.5c0.1,1.7,0.1,3.5,0.1,5.2
		c-0.1,3.5,0.9,9.3,8.5,7.7c10.7-2.1,37.2-11.8,37.2-11.8l-1.8-8.6c0,0-22.5,5.7-26.4,3.2c0,0,5.2-14.5,4.5-16.3
		C217,277.1,207.8,265.8,207.8,265.8z"/>
	<path id="Path_1620_1_" class="st5" d="M299,251.9l2.5,5.7c3.3,7.2,6.1,14.6,8.6,22.2c1.4,6.1,3.9,21.8,3.9,21.8s5.7,11.1-16.5,6.4
		c-22.2-4.7-31.5-10.4-31.5-10.4l4.3-7.9c0,0,21.1,3.9,24,1.8c0,0-8.6-19.7-7.9-21.1C287.2,269.1,299,251.9,299,251.9z"/>
	<path id="Path_1621_1_" class="st5" d="M236.1,294.4l3.6-3.2c0,0,6.8-31.5,12.9-26.8c6.1,4.7-2.5,31.5-2.5,31.5l-8.6,4.6
		L236.1,294.4z"/>
	<path id="Path_1622_1_" class="st5" d="M272.5,292.3l-2.1-2.5c0,0-7.5-31.1-13.9-25.7c-6.4,5.4,6.8,31.1,6.8,31.1l2.9,2.5l5.7-1.4
		L272.5,292.3z"/>
	<path id="Path_1623_1_" class="st5" d="M287.2,349.9c0,0-26.9,2.8-29.2,4.4c-2.3,1.6-0.9,11.6-0.9,11.6l35.4-2.1L287.2,349.9z"/>
	<path id="Path_1624_1_" class="st7" d="M287.2,349.9c0,0-26.9,2.8-29.2,4.4c-2.3,1.6-0.9,11.6-0.9,11.6l35.4-2.1L287.2,349.9z"/>
	<path id="Path_1625_1_" class="st7" d="M333.2,357.9c-3.9,6.3-5.2,9.8-19.1,9.8h-30.7v-18.6l3.9-2.1c11.2-4.6,23.4-6.3,35.4-5
		L333.2,357.9z"/>
	<path id="Path_1626_1_" class="st6" d="M340.6,357.5c-3.9,6.3-11.9,10.9-25.9,10.9H284v-18.6l3.9-2.1c11.2-4.6,23.4-6.3,35.4-5
		L340.6,357.5z"/>
	<path id="Path_1627_1_" class="st5" d="M274.2,353.1c1.2-0.4,2.5-0.6,3.8-0.5c1.6,0.3,2.9,1.3,3.7,2.7c0.3,0.6,0.6,1.1,1.1,1.5
		c0.5,0.3,1.1,0.5,1.8,0.5c4.2,0.1,8.5,0.6,12.6,1.5c4.2,0.9,7.9,3.5,9.9,7.3c0.2,0.4,0.4,0.9,0.4,1.4c-0.1,1-0.9,1.9-1.9,2.3
		c-2.9,1.3-6.2-0.4-9.3-1.1c-3.6-0.5-7.2-0.4-10.8,0.3c-3.5,0.4-7.1,0.6-10.7,0.6c-2.9,0-5.9-0.2-8.7-0.8c-1.6-0.3-3.2-0.8-4.8-1
		c-1.6-0.2-3.1-0.2-4.7-0.2c-7.2,0.1-14.5,0-21.7-0.3c-2.3,0-4.6-0.3-6.8-1c-0.5-0.1-0.9-0.4-1.1-0.8c-0.2-0.3-0.2-0.7-0.2-1
		c-0.2-3.5,0.5-7,2-10.1c0.5-1,1.5-3.4,2.6-3.9c1.1-0.5,4,0.7,5.3,1c7.9,2,16,3.1,24.1,3.4C265.4,354.6,269.9,354.1,274.2,353.1z"/>
	<path id="Path_1628_1_" class="st7" d="M234.3,348.8l-4.8,18.6l-29.4-0.7c-4.2-1.6,6.4-6.1,0-11.6l-7.7-17.7
		c5.5,0.8,10.9,2.1,16.1,3.9c3.3,1.4,6.8,2.2,10.4,2.1C218.9,343.4,232.9,347,234.3,348.8z"/>
	<path id="Path_1629_1_" class="st6" d="M234.3,349.9l-4.8,18.6l-29.4-0.7c-7.4-2.7-14.3-6.5-20.5-11.3l12.8-18
		c5.5,0.8,10.9,2.1,16.1,3.9c3.3,1.4,6.8,2.2,10.4,2.1C218.9,344.5,232.8,348.1,234.3,349.9z"/>
	
		<ellipse id="Ellipse_746_1_" transform="matrix(0.1179 -0.993 0.993 0.1179 35.1645 418.7553)" class="st6" cx="253.3" cy="189.6" rx="10.4" ry="21.4"/>
	<circle id="Ellipse_747_1_" class="st6" cx="254.8" cy="167.7" r="7.5"/>
	<path id="Path_1630_1_" class="st7" d="M247.3,167.7c0,0,9.4-1.8,14,1.2S247.3,167.7,247.3,167.7z"/>
	<path id="Path_1631_1_" class="st9" d="M280.2,191.4c0,0.6-0.4,1.3-1.9,0.1c-3.6-3.2-12-11.5-23.5-11.5c-12,0-21.7,8.6-25.9,11.5
		c-1.4,1-2.5,0.5-2.5-0.1c0-2.1,12.3-19.1,28.4-19.1S280.2,189.3,280.2,191.4z"/>
	<path id="Path_1632_1_" class="st7" d="M279.5,189.4c-0.2,0.4-0.7,0.6-1.8-0.4c-3.6-3.2-12-11.5-23.5-11.5
		c-12,0-21.7,8.6-25.9,11.5c-0.3,0.2-0.6,0.4-1,0.5c-0.4,0.6-0.7,1.2-0.8,1.9c0,0.5,1,1.1,2.5,0.1c4.3-3,14-11.5,25.9-11.5
		c11.5,0,19.8,8.3,23.5,11.5c1.4,1.2,1.9,0.5,1.9-0.1C280.1,190.7,279.8,190,279.5,189.4z"/>
	<rect id="Rectangle_1371_1_" x="278.4" y="191.3" class="st11" width="2" height="11.4"/>
	<path id="Path_1633_1_" class="st12" d="M275.7,198.7L275.7,198.7c3.8,0,6.9,3.1,6.9,6.9c0,0,0,0,0,0v0.5c0,3.8-3.1,6.9-6.9,6.9
		l0,0l0,0V198.7z"/>
	<path id="Rectangle_1372_1_" class="st11" d="M275.9,198L275.9,198c0.9,0,1.6,0.7,1.6,1.6v12.5c0,0.9-0.7,1.6-1.6,1.6l0,0
		c-0.9,0-1.6-0.7-1.6-1.6v-12.5C274.4,198.7,275.1,198,275.9,198z"/>
	<rect id="Rectangle_1373_1_" x="226.5" y="191.5" class="st11" width="2" height="11.4"/>
	<path id="Path_1634_1_" class="st9" d="M231.2,213.3L231.2,213.3c-3.8,0-6.9-3.1-6.9-6.9c0,0,0,0,0,0l0,0v-0.5
		c0-3.8,3.1-6.9,6.9-6.9l0,0l0,0V213.3L231.2,213.3z"/>
	<path id="Rectangle_1374_1_" class="st11" d="M231,198.3L231,198.3c0.9,0,1.6,0.7,1.6,1.6v12.5c0,0.9-0.7,1.6-1.6,1.6l0,0
		c-0.9,0-1.6-0.7-1.6-1.6v-12.5C229.4,199,230.1,198.3,231,198.3z"/>
</g>
</svg>
