<svg xmlns="http://www.w3.org/2000/svg" viewBox="0 0 400 400" enable-background="new 0 0 400 400"><style type="text/css">.st0{fill:#657EE4;} .st1{fill:#FDFDFD;} .st2{fill:url(#SVGID_1_);} .st3{fill:url(#SVGID_2_);} .st4{fill:url(#SVGID_3_);} .st5{fill:#DB8B8B;} .st6{fill:#35323E;} .st7{opacity:0.1;enable-background:new ;} .st8{opacity:5.000000e-02;enable-background:new ;} .st9{fill:#526EE0;} .st10{opacity:0.1;} .st11{fill:#6A5C99;} .st12{fill:#6C63FF;}</style><ellipse id="Ellipse_738" class="st0" cx="166.2" cy="182.8" rx="164.8" ry="164.8"/><path id="Path_1601_1_" class="st1" d="M215.2 91.7h-.5c-18.8.1-36.3 9.7-46.5 25.5-10.2-15.8-27.7-25.4-46.5-25.5h-.5c-30.4.2-55 24.9-55 55.3 0 18.1 7.9 43.8 23.4 65 29.5 40.3 78.4 75.5 78.4 75.5s49-35.2 78.4-75.5c15.5-21.2 23.4-46.9 23.4-65 .1-30.2-24.3-54.9-54.6-55.3z"/><linearGradient id="SVGID_1_" gradientUnits="userSpaceOnUse" x1="285.959" y1="635.091" x2="285.959" y2="409.074"><stop offset="0" stop-color="#808080" stop-opacity=".251"/><stop offset=".54" stop-color="#808080" stop-opacity=".122"/><stop offset="1" stop-color="#808080" stop-opacity=".102"/></linearGradient><path class="st2" d="M397 201l.5-.3c-2.3.7-4.6 1-7 1-4-.1-7.9-.9-11.6-2.5-6-2.8-11.3-6.9-15.5-12-5.9-7-10.3-15.6-18.1-20.2-1.6-1-3.4-1.7-5.3-2-3.3-.1-6.7.5-9.8 1.8-13.9 4-30.3 1.1-39.9-9.8-2-2.3-3.7-4.9-6-7-7.4-6.9-19.2-6.7-28.6-2.9-.6.2-1.1.5-1.7.8l.1-.4c-1.7.7-3.2 1.8-4.4 3.2-1.5 2.4-2 5.3-1.3 8.1.1.9.3 1.7.7 2.6-1.2 1.4-1.8 3.1-1.8 4.9v.7c-11.3 2.5-19.8 12-21.1 23.5v-.2c-.1 1-.2 1.9-.2 2.9v.4c0 7.4 3 14.5 8.4 19.7 1.5 4.2 4.3 7.7 8 10.1l-.2.9c-1.4 6.1-6 11-12 12.8l-.9.3-1.5.4-.6.2c-15.2 4.4-19.5 8-20.9 13.8-1.1 4.8-2.5 13.5-3 16.9-1.1 2.5-8.6 20.2-8 30.4.1 1.8.1 3.5.1 5.3-.1 3.6.9 9.3 8.5 7.8 4.3-.9 11.1-2.9 17.8-5.1-.4 1.2-.8 2.4-1.3 3.5-1.1 2.4-2.1 4.8-2.8 7.3v.1l-.1.3v.2c0 .1 0 .2-.1.3v.2c0 .1 0 .3-.1.4 0 .1 0 .4-.1.5v2.7l.1.3v.2l.1.3c0 .1 0 .2.1.3.3.7.5 1.5.7 2.3 0 .4 0 .9-.1 1.3l-.1.3v.1l-.2.7-.1.4v.4l-.1.4v1c.1 1 .5 2 1 2.8.1.2.2.4.4.6l-25.9-.4c-5.5-.1-10.8 1.8-15 5.3-7.5 6.4-4.6 12.7 1.3 17.8 6.3 4.8 13.2 8.7 20.7 11.4 1.2.5 2 .7 2 .7h63.6l.9.2c2.9.5 5.9.8 8.8.8 3.6 0 7.2-.2 10.8-.6 1.1-.1 2.2-.3 3.2-.4h6.8l.6.1c3.2.7 6.4 2.4 9.4 1.1.6-.3 1.1-.7 1.5-1.2h7.6c14.1 0 22.1-4.6 26.1-11 2.7-4.6 3.7-10 2.8-15.3-1.5-10.7-39.1-11-50.5-10.9l-.5-.4c-1.3-1-2.9-2.1-3-3.8-.1-1 .4-2 .2-3-.3-1.7-2.2-2.5-3.6-3.5-5-3.1-7-9.6-6.5-15.5 0-.4.1-.8.1-1.1l.1-.9v-.30000000000000004c5.8 1.8 11.6 3.4 17.6 4.6 22.3 4.7 16.6-6.5 16.6-6.5s-2.5-15.9-4-22c-2.5-7.6-5.3-15.1-8.6-22.4l-.2-.4c-.1-2-.8-15.8-11.5-18.5-3.2-.8-6.6-1.5-9.9-2.3l-.2-.1c-1.1-.3-2.2-.6-3.2-.9-5.9-1.9-10.7-4.8-12-10.6-.1-.3-.1-.6-.2-1 3.8-2.5 6.6-6.2 8-10.5 5-5.1 7.9-12 7.9-19.1v-.4c0-1 0-1.9-.2-2.9v.2c-.2-2.1-.7-4.1-1.4-6 2.1 1.9 4.4 3.4 6.9 4.6 3 1.4 6.3 2 9.6 2 2.1 0 4.2-.2 6.3-.8 5-1.4 9.5-4.6 14.7-5.3.7-.1 1.3-.1 2-.1 5.2.5 10.3 2.2 14.8 4.9 6 3.2 11.8 6.8 17.3 10.7 5.5 3.9 11 8.2 17.6 9.4 1.5.3 3 .4 4.4.4 4.1 0 8.2-.8 12.1-2.3 4.8-1.7 9.3-4.1 13.5-7-.6-.1-1 .1-1.4.2z"/><linearGradient id="SVGID_2_" gradientUnits="userSpaceOnUse" x1="218.631" y1="324.252" x2="218.631" y2="299.646"><stop offset="0" stop-color="#808080" stop-opacity=".251"/><stop offset=".54" stop-color="#808080" stop-opacity=".122"/><stop offset="1" stop-color="#808080" stop-opacity=".102"/></linearGradient><path class="st3" d="M213.1 294.8s4.6-12.7 4.6-15.9l2.8-8.1 1 1.7-.3 1.7s-.2 1-.2 1.6l-.2 1.6v3.2000000000000006c0 .2 0 .4.1.6 0 .2.1.5.2.7v.1c.5 2 1.7 3.8 2.4 5.7.1.2.1.4.2.5l.1.2.1.4.1.3.1.4v.2c0 .2 0 .4.1.6.1 1.1.2 2.3.1 3.4v1c-5 .8-9.6 1.1-11.2.1z"/><linearGradient id="SVGID_3_" gradientUnits="userSpaceOnUse" x1="3.324" y1="395.642" x2="3.324" y2="395.425" gradientTransform="matrix(94.553 0 0 -95.21 -24.764 37915.984)"><stop offset="0" stop-color="#808080" stop-opacity=".251"/><stop offset=".54" stop-color="#808080" stop-opacity=".122"/><stop offset="1" stop-color="#808080" stop-opacity=".102"/></linearGradient><path class="st4" d="M287.1 271.2c1.1 4.7 7.8 20 7.8 20-1.2.9-5.9.7-10.7.2l.3-.7.1-.4.2-.6c.1-.4.3-.8.5-1.2l.3-.8v-.1l.3-.9.1-.3.1-.5c0-.1 0-.2.1-.3l.1-.5v-.5l.1-.6v-.30000000000000004c0-.1 0-.3.1-.4l.2-1.2v-5.199999999999999c0-.3 0-.6-.1-.9v-.3c-.1-.9-.2-1.8-.4-2.7l.9-1.8z"/><path id="Path_1605_1_" class="st5" d="M301.3 257.4l-14.3 13.3-1.1 2.8-.7 1.9-60.4 2.9-3.2-5.1-1-1.6-2.8 8.2-14.3-8.9s1.8-12.2 3.2-18.2c1.4-5.8 5.7-9.3 20.7-13.7l.6-.2 1.5-.4.9-.3c5.9-1.8 10.5-6.7 11.9-12.7 1-3.7 1.2-7.5.7-11.3 0 0 22-7 21.3 7-.1 1.4 0 2.9.3 4.2 1.3 5.8 6.1 8.6 11.9 10.5 1 .3 2.1.6 3.2.9l.2.1c3.3.8 6.7 1.5 9.9 2.3 11.5 2.6 11.5 18.3 11.5 18.3z"/><path id="Path_1606_1_" class="st6" d="M250.4 152.3c1.4-1.6 3.2-2.8 5.2-3.5 9.3-3.8 21-4 28.4 2.9 2.2 2.1 3.9 4.6 5.9 6.9 9.5 10.7 25.8 13.6 39.6 9.7 3.1-1.2 6.4-1.8 9.7-1.7 1.9.3 3.7 1 5.2 2 7.8 4.6 12.2 13.1 18 20 4.1 5.1 9.4 9.2 15.4 11.9 6 2.7 12.8 3.2 19.1 1.5-4.1 2.9-8.6 5.2-13.3 6.9-5 2-10.4 2.7-15.7 1.9-6.5-1.2-12-5.5-17.5-9.3-5.5-3.9-11.3-7.4-17.2-10.6-5.4-2.9-11.3-5.6-17.3-4.7-5.1.7-9.6 3.9-14.6 5.3s-10.3 1-15.1-1.1c-12.8-5.8-18.6-22.9-32.3-26.1-3.5-.8-4.1.4-4.9-3.8-.6-2.9-.1-5.8 1.4-8.2z"/><path id="Path_1607_1_" class="st7" d="M388.4 203.2c-5 2-10.4 2.7-15.7 1.9-6.5-1.2-12-5.5-17.5-9.3-5.5-3.9-11.3-7.4-17.2-10.6-5.4-2.9-11.3-5.6-17.3-4.7-5.1.7-9.6 3.9-14.6 5.3s-10.3 1-15.1-1.1c-12.8-5.8-18.6-22.9-32.3-26.1-3.5-.8-4.1.4-4.9-3.9-.4-1.9-.3-3.8.1-5.6-1.7.7-3.2 1.7-4.4 3.1-1.5 2.4-2 5.3-1.2 8 .7 4.3 1.4 3 4.9 3.8 13.7 3.2 19.5 20.3 32.3 26.1 4.7 2.1 10.1 2.5 15.1 1.1s9.4-4.6 14.6-5.3c6-.8 12 1.9 17.3 4.7 5.9 3.2 11.7 6.7 17.2 10.6 5.4 3.8 10.9 8.1 17.4 9.3 5.3.8 10.7.1 15.7-1.9 4.7-1.7 9.2-4 13.4-6.9-2.2.7-4.6 1-6.9 1l-.9.5z"/><circle id="Ellipse_744_1_" class="st6" cx="253.2" cy="194.7" r="27"/><path id="Path_1608_1_" class="st7" d="M253.2 215.6c-13.8 0-25.4-10.4-26.8-24.1-.1.9-.2 1.9-.2 2.8-.2 14.9 11.7 27.2 26.6 27.4s27.2-11.7 27.4-26.6v-.8c0-1-.1-1.9-.2-2.8-1.4 13.7-13 24.1-26.8 24.1z"/><path id="Path_1609_1_" class="st7" d="M264.6 225c-6.7 4.5-15.5 4.6-22.3.1 1-3.7 1.2-7.5.7-11.3 0 0 22-7 21.3 7-.1 1.4 0 2.8.3 4.2z"/><circle id="Ellipse_745_1_" class="st5" cx="253.4" cy="207.4" r="20"/><path id="Path_1610_1_" class="st8" d="M250.6 262c1 1 1.8 2.2 2.5 3.5 1.2 2 1.4 4.4.7 6.6-.7-2.7-.2-5.5 1.3-7.8 1.6-2.2 3.7-4 6.2-5"/><path id="Path_1611_1_" class="st6" d="M340.6 357.5c-3.9 6.3-11.9 10.9-25.9 10.9h-112.6s-.7-.3-2-.7c-7.4-2.7-14.3-6.5-20.5-11.3-5.9-5.1-8.7-11.3-1.3-17.6 4.1-3.5 9.4-5.4 14.9-5.3l37.9.6 59-2.5s51.5-1.8 53.3 10.7c.8 5.3-.1 10.6-2.8 15.2z"/><path id="Path_1612_1_" class="st9" d="M294.7 335.3c-.6 1.3-2.3 1.7-3.7 2.1-5.8 1.7-9.4 7.4-14.1 11.3-2.3 2-5 3.5-7.9 4.6-6.6 2.2-13.8 2.5-20.6.7-6.8-1.6-14.5-2.9-19.6-7.7-4.1-3.8-7.6-8.2-10.4-13-.6-.8-.9-1.8-1-2.8v-.8999999999999999c0-.1 0-.2.1-.3 0-.1 0-.2.1-.3l.1-.3.4-1.2.1-.4c.1-.4.2-.9.1-1.3-.1-.8-.3-1.5-.6-2.3 0-.1 0-.2-.1-.3l-.1-.3-.1-.6-.1-.6v-2c0-.3.1-.7.2-1l.1-.6c0-.1 0-.2.1-.3v-.1c.8-2.5 1.7-4.9 2.8-7.2 2.2-5.3 3.5-10.9 3.6-16.7 0-1.1 0-2.3-.1-3.4v-.4c0-.1-.1-.4-.1-.6l-.1-.6c0-.2-.1-.3-.1-.4 0-.1-.1-.4-.2-.5-.6-2-1.9-3.7-2.4-5.7l-.2-.7-.1-.6v-.2c0-.3-.1-.6-.1-1v-2c0-.3 0-.5.1-.8l.1-.8.2-1.5c.1-.5.2-1.1.3-1.7.3-2.5 1.1-5 2.3-7.2 1.9-3.2 5.3-5.7 5.9-9.4.2-1.5 0-3-.3-4.4l-.2-.9c-.9-4.1-1.5-8.2-1.9-12.3l.6-.2 1.5-.4.9-.3c.2 4.2.8 8.3 1.6 12.3.6 3.2 1.7 6.3 3.3 9.1 1.6 2.9 4.3 5 7.4 6 2.1.4 4.3.5 6.4.2 4.3-.4 8.6-1 12.9-1.8 3.1-.5 6.1-1.4 9-2.8.7-.4 1.4-.9 1.9-1.5.6-.8 1-1.8 1.2-2.8 1.8-6.9 2.6-14 2.5-21.1 1 .3 2.1.6 3.2.9l.2.1-.1 3.5-.1 2.1-.1 1.2-.1.9v.3l-.1 1-.2 1.4-.1.6-.4 2.7c-.2 1.3-.3 2.7-.2 4 .3 3 1.6 5.8 3.5 8.2 1.8 2.8 3 6 3.5 9.4l.4 1.7c.2.9.3 1.8.4 2.7v6.1c0 .2 0 .4-.1.5 0 .2-.1.4-.1.7s-.1.4-.1.7l-.2 1.2c-.1.5-.2 1-.4 1.5l-.1.5-.5 1.7-2.2 5.8c-.1.3-.2.6-.3 1-.1.4-.2.6-.3.9l-.3 1s-.2.6-.3 1l-.6 2-.1.6c0 .1 0 .2-.1.3 0 .1 0 .2-.1.3-.1.4-.2.8-.3 1.3l-.1.5c-.1.4-.1.7-.2 1 0 .4-.1.8-.1 1.1-.5 5.8 1.5 12.3 6.5 15.4 1.5.9 3.3 1.7 3.6 3.4.2 1-.3 2-.2 3 .2 1.6 1.7 2.7 3 3.7 1.5.9 2.7 2.5 2.1 4z"/><g id="Group_3201_1_" class="st10"><path id="Path_1613_1_" d="M279.888 299.903c-.1 1.5-.1 3.1.1 4.6 1-5.4 2.7-10.6 4.8-15.7 1.5-4.1 2-8.4 1.6-12.7-.2 2.4-.8 4.7-1.6 7-2 5.5-4.4 11-4.9 16.8z"/><path id="Path_1614_1_" d="M280.088 236.503l-.1 3.5-.1 2.1-.1 1.2-.1.9v.3l-.1 1-.2 1.4-.1.6-.4 2.7c-.1-.6-.2-1.1-.2-1.7.1-2.9.4-5.8.9-8.7l.3-3.3h.2z"/><path id="Path_1615_1_" d="M223.588 288.103c.3.8.4 1.7.5 2.6.1-.8.1-1.6.1-2.3.1-2-.1-4-.7-5.9-.6-2-1.9-3.7-2.4-5.7l-.1-.5c-.4 2-.3 4.1.1 6.2.6 1.9 1.8 3.7 2.5 5.6z"/><path id="Path_1616_1_" d="M292.788 331.103c-.6.2-1.2.4-1.8.5-5.8 1.7-9.4 7.4-14.1 11.3-2.3 2-5 3.5-7.9 4.6-6.6 2.2-13.8 2.4-20.6.7-6.8-1.6-14.5-2.9-19.6-7.6-4.1-3.8-7.6-8.2-10.4-13l-.2-.4c-.4 1.1-.7 2.2-.8 3.3.1 1 .5 2 1 2.8 2.8 4.8 6.3 9.2 10.4 13 5.1 4.7 12.8 6.1 19.6 7.7 6.8 1.8 13.9 1.6 20.6-.7 2.9-1.1 5.5-2.6 7.9-4.6 4.7-3.9 8.3-9.6 14.1-11.3 1.4-.4 3.1-.7 3.7-2.1.6-1.5-.6-3.1-1.9-4.2z"/><path id="Path_1617_1_" d="M218.488 320.203c-.1-.8-.3-1.5-.6-2.2-.5 1.8-.5 3.6-.1 5.4.4-1 .6-2.1.7-3.2z"/><path id="Path_1618_1_" d="M229.788 250.703c-.1.5-.2.9-.3 1.3l-.2-.9c-.9-4.1-1.5-8.2-1.9-12.3l.6-.2c.3 2.3.7 4.6 1.2 6.8.5 1.7.7 3.5.6 5.3z"/></g><path id="Path_1619_1_" class="st5" d="M207.8 265.8l-4.1 3s-8.7 19.5-8.1 30.5c.1 1.7.1 3.5.1 5.2-.1 3.5.9 9.3 8.5 7.7 10.7-2.1 37.2-11.8 37.2-11.8l-1.8-8.6s-22.5 5.7-26.4 3.2c0 0 5.2-14.5 4.5-16.3-.7-1.6-9.9-12.9-9.9-12.9z"/><path id="Path_1620_1_" class="st5" d="M299 251.9l2.5 5.7c3.3 7.2 6.1 14.6 8.6 22.2 1.4 6.1 3.9 21.8 3.9 21.8s5.7 11.1-16.5 6.4c-22.2-4.7-31.5-10.4-31.5-10.4l4.3-7.9s21.1 3.9 24 1.8c0 0-8.6-19.7-7.9-21.1.8-1.3 12.6-18.5 12.6-18.5z"/><path id="Path_1621_1_" class="st5" d="M236.1 294.4l3.6-3.2s6.8-31.5 12.9-26.8c6.1 4.7-2.5 31.5-2.5 31.5l-8.6 4.6-5.4-6.1z"/><path id="Path_1622_1_" class="st5" d="M272.5 292.3l-2.1-2.5s-7.5-31.1-13.9-25.7c-6.4 5.4 6.8 31.1 6.8 31.1l2.9 2.5 5.7-1.4.6-4z"/><path id="Path_1623_1_" class="st5" d="M287.2 349.9s-26.9 2.8-29.2 4.4c-2.3 1.6-.9 11.6-.9 11.6l35.4-2.1-5.3-13.9z"/><path id="Path_1624_1_" class="st7" d="M287.2 349.9s-26.9 2.8-29.2 4.4c-2.3 1.6-.9 11.6-.9 11.6l35.4-2.1-5.3-13.9z"/><path id="Path_1625_1_" class="st7" d="M333.2 357.9c-3.9 6.3-5.2 9.8-19.1 9.8h-30.7v-18.6l3.9-2.1c11.2-4.6 23.4-6.3 35.4-5l10.5 15.9z"/><path id="Path_1626_1_" class="st6" d="M340.6 357.5c-3.9 6.3-11.9 10.9-25.9 10.9h-30.7v-18.6l3.9-2.1c11.2-4.6 23.4-6.3 35.4-5l17.3 14.8z"/><path id="Path_1627_1_" class="st5" d="M274.2 353.1c1.2-.4 2.5-.6 3.8-.5 1.6.3 2.9 1.3 3.7 2.7.3.6.6 1.1 1.1 1.5.5.3 1.1.5 1.8.5 4.2.1 8.5.6 12.6 1.5 4.2.9 7.9 3.5 9.9 7.3.2.4.4.9.4 1.4-.1 1-.9 1.9-1.9 2.3-2.9 1.3-6.2-.4-9.3-1.1-3.6-.5-7.2-.4-10.8.3-3.5.4-7.1.6-10.7.6-2.9 0-5.9-.2-8.7-.8-1.6-.3-3.2-.8-4.8-1-1.6-.2-3.1-.2-4.7-.2-7.2.1-14.5 0-21.7-.3-2.3 0-4.6-.3-6.8-1-.5-.1-.9-.4-1.1-.8-.2-.3-.2-.7-.2-1-.2-3.5.5-7 2-10.1.5-1 1.5-3.4 2.6-3.9s4 .7 5.3 1c7.9 2 16 3.1 24.1 3.4 4.6-.3 9.1-.8 13.4-1.8z"/><path id="Path_1628_1_" class="st7" d="M234.3 348.8l-4.8 18.6-29.4-.7c-4.2-1.6 6.4-6.1 0-11.6l-7.7-17.7c5.5.8 10.9 2.1 16.1 3.9 3.3 1.4 6.8 2.2 10.4 2.1 0 0 14 3.6 15.4 5.4z"/><path id="Path_1629_1_" class="st6" d="M234.3 349.9l-4.8 18.6-29.4-.7c-7.4-2.7-14.3-6.5-20.5-11.3l12.8-18c5.5.8 10.9 2.1 16.1 3.9 3.3 1.4 6.8 2.2 10.4 2.1 0 0 13.9 3.6 15.4 5.4z"/><ellipse id="Ellipse_746_1_" transform="matrix(.118 -.993 .993 .118 35.164 418.755)" class="st6" cx="253.3" cy="189.6" rx="10.4" ry="21.4"/><circle id="Ellipse_747_1_" class="st6" cx="254.8" cy="167.7" r="7.5"/><path id="Path_1630_1_" class="st7" d="M247.3 167.7s9.4-1.8 14 1.2l-14-1.2z"/><path id="Path_1631_1_" class="st9" d="M280.2 191.4c0 .6-.4 1.3-1.9.1-3.6-3.2-12-11.5-23.5-11.5-12 0-21.7 8.6-25.9 11.5-1.4 1-2.5.5-2.5-.1 0-2.1 12.3-19.1 28.4-19.1s25.4 17 25.4 19.1z"/><path id="Path_1632_1_" class="st7" d="M279.5 189.4c-.2.4-.7.6-1.8-.4-3.6-3.2-12-11.5-23.5-11.5-12 0-21.7 8.6-25.9 11.5-.3.2-.6.4-1 .5-.4.6-.7 1.2-.8 1.9 0 .5 1 1.1 2.5.1 4.3-3 14-11.5 25.9-11.5 11.5 0 19.8 8.3 23.5 11.5 1.4 1.2 1.9.5 1.9-.1-.2-.7-.5-1.4-.8-2z"/><path id="Rectangle_1371_1_" class="st11" d="M278.4 191.3h2v11.4h-2z"/><path id="Path_1633_1_" class="st12" d="M275.7 198.7c3.8 0 6.9 3.1 6.9 6.9v.5c0 3.8-3.1 6.9-6.9 6.9v-14.3z"/><path id="Rectangle_1372_1_" class="st11" d="M275.9 198c.9 0 1.6.7 1.6 1.6v12.5c0 .9-.7 1.6-1.6 1.6-.9 0-1.6-.7-1.6-1.6v-12.5c.1-.9.8-1.6 1.6-1.6z"/><path id="Rectangle_1373_1_" class="st11" d="M226.5 191.5h2v11.4h-2z"/><path id="Path_1634_1_" class="st9" d="M231.2 213.3c-3.8 0-6.9-3.1-6.9-6.9v-.5c0-3.8 3.1-6.9 6.9-6.9v14.3z"/><path id="Rectangle_1374_1_" class="st11" d="M231 198.3c.9 0 1.6.7 1.6 1.6v12.5c0 .9-.7 1.6-1.6 1.6-.9 0-1.6-.7-1.6-1.6v-12.5c0-.9.7-1.6 1.6-1.6z"/></svg>