<svg xmlns="http://www.w3.org/2000/svg" width="171.293" height="151.404" viewBox="0 0 171.293 151.404">
    <defs>
        <style>
            .cls-1{fill:none}.cls-2{clip-path:url(#clip-path)}.cls-3{fill:#788ee8}.cls-12,.cls-4{opacity:.1}.cls-5{fill:#fdfdfd}.cls-6{fill:#fff}.cls-7{fill:url(#linear-gradient)}.cls-8{fill:#db8b8b}.cls-9{fill:#35323e}.cls-10{opacity:.05}.cls-11{fill:#526ee0}.cls-13{fill:#6a5c99}.cls-14{fill:#6c63ff}
        </style>
        <clipPath id="clip-path">
            <path d="M0 0h171.293v151.404H0z" class="cls-1"/>
        </clipPath>
        <linearGradient id="linear-gradient" x1=".697" x2=".697" y1="-1.171" y2="-.171" gradientUnits="objectBoundingBox">
            <stop offset="0" stop-color="gray" stop-opacity=".251"/>
            <stop offset=".54" stop-color="gray" stop-opacity=".122"/>
            <stop offset="1" stop-color="gray" stop-opacity=".102"/>
        </linearGradient>
    </defs>
    <g id="Component_77_1" class="cls-2" data-name="Component 77 – 1">
        <g id="Group_3208" data-name="Group 3208" transform="translate(-761.395 -298.708)">
            <g id="Group_3196" data-name="Group 3196" transform="translate(761 298.708)">
                <path id="Path_1839" d="M74.073 0A74.072 74.072 0 1 1 0 74.072 74.073 74.073 0 0 1 74.073 0z" class="cls-3" data-name="Path 1839" transform="translate(.395)"/>
                <path id="Path_1561" d="M1087.488 86.019a2.363 2.363 0 0 1 .285 1.168c-.175-.92-1.379-1.361-1.453-2.226 0-.4 0-.377.285-.166s.534.884.883 1.224z" class="cls-4" data-name="Path 1561" transform="translate(-936.938 -12.738)"/>
                <path id="Path_1562" d="M1083.54 89a1.84 1.84 0 0 1 .542.809 2.042 2.042 0 0 1 .11 1.416c-.175-.083-.23-.3-.285-.487a3.425 3.425 0 0 0-.377-.837c-.138-.23-.8-.763-.791-1.012s.626-.018.801.111z" class="cls-4" data-name="Path 1562" transform="translate(-936.651 -13.07)"/>
                <path id="Path_1601" d="M792.59 157.37h-.207a23.442 23.442 0 0 0-19.591 10.73 23.469 23.469 0 0 0-19.592-10.73h-.207a23.31 23.31 0 0 0-23.163 23.31c0 7.632 3.34 18.458 9.863 27.369 12.411 16.97 33.038 31.819 33.038 31.819s20.628-14.849 33.038-31.819c6.522-8.912 9.863-19.738 9.863-27.369a23.323 23.323 0 0 0-23.042-23.31z" class="cls-5" data-name="Path 1601" transform="translate(-698.437 -120.25)"/>
            </g>
        </g>
        <g id="Group_3202" data-name="Group 3202" transform="translate(-465.488 -339.264)">
            <path id="Path_1602" d="M512.146 446.515v-2.255l-2.382 2.205a.213.213 0 0 1-.138.049.224.224 0 0 1-.156-.065.214.214 0 0 1-.07-.161v-4.249a.226.226 0 0 1 .369-.174l2.377 2.19v-2.239h.52v4.7z" class="cls-6" data-name="Path 1602" transform="translate(-.392 -34.317)"/>
            <path id="Path_1603" d="M509.231 441.57a.083.083 0 0 1 .055.021l2.158 1.984.226.208-.226.211-2.158 2a.081.081 0 0 1-.055.018.094.094 0 0 1-.1-.091v-4.252a.1.1 0 0 1 .1-.1m2.928 0v4.439h-.265v-4.438h.26m-2.928-.26a.354.354 0 0 0-.356.351v4.254a.354.354 0 0 0 .354.354.346.346 0 0 0 .226-.081l2.164-2v1.953a.133.133 0 0 0 .133.133h.52a.132.132 0 0 0 .135-.13v-4.683a.133.133 0 0 0-.133-.133h-.523a.133.133 0 0 0-.133.133v1.939l-2.164-1.992a.348.348 0 0 0-.226-.083z" class="cls-6" data-name="Path 1603" transform="translate(0 -33.944)"/>
            <path id="Path_1604" d="M731.2 419.258l.205-.14a10.558 10.558 0 0 1-2.928.442 12.824 12.824 0 0 1-4.894-1.066 18.03 18.03 0 0 1-6.517-5.058c-2.47-2.939-4.338-6.558-7.632-8.522a5.933 5.933 0 0 0-2.229-.843 10.419 10.419 0 0 0-4.117.739c-5.843 1.68-12.763.45-16.794-4.109-.853-.962-1.56-2.049-2.507-2.928-3.121-2.913-8.1-2.837-12.051-1.22-.239.1-.476.2-.707.317a1.574 1.574 0 0 1 .039-.161 4.537 4.537 0 0 0-1.857 1.337 4.381 4.381 0 0 0-.538 3.409 3.623 3.623 0 0 0 .3 1.079 3.185 3.185 0 0 0-.752 2.057 1.948 1.948 0 0 0 .013.276 11.473 11.473 0 0 0-8.891 9.91v-.077a11.7 11.7 0 0 0-.065 1.214v.153a11.441 11.441 0 0 0 3.539 8.29 8.532 8.532 0 0 0 3.381 4.257c-.031.13-.062.26-.1.393a7.461 7.461 0 0 1-5.06 5.409 7.57 7.57 0 0 1-.4.122l-.64.179-.26.078c-6.392 1.854-8.22 3.352-8.8 5.822-.478 2.034-1.04 5.669-1.272 7.125-.463 1.071-3.609 8.517-3.36 12.82.042.741.062 1.482.049 2.226-.029 1.506.4 3.932 3.6 3.292 1.82-.364 4.681-1.235 7.5-2.153q-.247.757-.556 1.49a22.058 22.058 0 0 0-1.188 3.063v.029l-.031.127v.075a.962.962 0 0 1-.029.133c-.01.044 0 .023 0 .036a.318.318 0 0 1 0 .049 1.264 1.264 0 0 1-.026.169c-.008.057-.021.148-.029.224v.14a.568.568 0 0 1 0 .068v.338a.706.706 0 0 1 0 .075 1.064 1.064 0 0 0 .013.2v.026a.465.465 0 0 0 .016.127c.016.042 0 .068 0 .1v.047l.023.12a.156.156 0 0 0 .018.088l.031.122a.383.383 0 0 0 .034.114 4.223 4.223 0 0 1 .276.967 1.7 1.7 0 0 1-.06.549l-.039.14a.157.157 0 0 1 0 .031c-.029.1-.062.2-.1.3-.018.055-.036.109-.052.164a.059.059 0 0 1-.018.049l-.016.052-.016.055v.023l-.039.159v.047a.466.466 0 0 0 0 .06v.039a.74.74 0 0 0 0 .075.3.3 0 0 1 0 .049v.023a1.236 1.236 0 0 0 0 .138A2.66 2.66 0 0 0 656.1 475c.049.086.1.169.153.26l-10.922-.179a9.414 9.414 0 0 0-6.306 2.242c-3.139 2.7-1.93 5.341.562 7.5a32.561 32.561 0 0 0 8.7 4.806c.52.205.837.312.837.312h26.785l.4.091a18.463 18.463 0 0 0 3.711.32 38.781 38.781 0 0 0 4.53-.26c.453-.052.91-.112 1.368-.161h2.861l.26.049c1.329.283 2.717 1.014 3.963.471a1.43 1.43 0 0 0 .635-.52h3.2c5.921 0 9.32-1.958 10.977-4.647a9.619 9.619 0 0 0 1.162-6.449c-.645-4.517-16.49-4.652-21.259-4.59a3.305 3.305 0 0 0-.208-.174c-.549-.432-1.212-.882-1.282-1.581-.039-.419.153-.837.088-1.253-.117-.723-.915-1.074-1.537-1.456-2.125-1.3-2.949-4.059-2.741-6.54.016-.159.031-.32.052-.479.016-.125.036-.247.055-.369a.55.55 0 0 1 0-.065v-.028a72.782 72.782 0 0 0 7.4 1.943c9.409 1.976 6.98-2.738 6.98-2.738s-1.061-6.688-1.669-9.273a90.016 90.016 0 0 0-3.641-9.424l-.078-.179c-.023-.84-.351-6.675-4.852-7.8-1.342-.338-2.788-.619-4.179-.978l-.1-.029c-.466-.12-.923-.26-1.368-.4-2.465-.8-4.514-2.015-5.068-4.47a4.96 4.96 0 0 1-.075-.408 8.525 8.525 0 0 0 3.381-4.421 11.442 11.442 0 0 0 3.313-8.061.741.741 0 0 0 0-.075v-.078a10.969 10.969 0 0 0-.065-1.214v.075a11.435 11.435 0 0 0-.583-2.541 11.971 11.971 0 0 0 2.9 1.935 9.363 9.363 0 0 0 4.028.835 9.236 9.236 0 0 0 2.653-.343c2.114-.6 4.007-1.943 6.184-2.247a7.5 7.5 0 0 1 .83-.062 14.076 14.076 0 0 1 6.223 2.08 71.791 71.791 0 0 1 7.3 4.514c2.307 1.625 4.631 3.438 7.4 3.958a9.44 9.44 0 0 0 1.872.153 14.54 14.54 0 0 0 5.1-.978 24.249 24.249 0 0 0 5.666-2.944c-.155.039-.321.086-.496.128zm-56.17-13.824a10.091 10.091 0 0 0-.5-.192q.021-.1.031-.2c.159.127.315.26.468.4zm-21.3 53.354s1.917-5.36 1.927-6.694l1.186-3.4.44.7c-.039.234-.075.468-.112.7s-.068.437-.1.655c-.031.224-.057.445-.075.668a.908.908 0 0 1-.013.187v.668a.55.55 0 0 0 0 .065v.091c0 .086.013.172.021.26v.052a.243.243 0 0 1 0 .044 1.156 1.156 0 0 0 .044.26c.018.078.042.19.065.286v.029c.229.845.731 1.589 1 2.421.023.075.047.153.068.229l.023.094.039.161.023.117.031.172v.07a1.952 1.952 0 0 0 .034.247 10.166 10.166 0 0 1 .052 1.438 4.2 4.2 0 0 1-.016.442c-2.047.342-3.967.461-4.64.038zm31.159-9.952c.476 1.979 3.287 8.431 3.287 8.431-.52.393-2.465.307-4.52.083.039-.1.075-.2.112-.294l.057-.156.1-.26c.062-.174.127-.346.19-.52l.117-.343v-.044c.039-.12.075-.239.109-.361.016-.047.029-.1.042-.146v-.016l.06-.231a.459.459 0 0 1 .029-.114l.047-.2a.16.16 0 0 1 .018-.088.484.484 0 0 0 0-.062.6.6 0 0 1 .021-.1 4.36 4.36 0 0 0 .047-.244.658.658 0 0 0 0-.073.244.244 0 0 0 0-.044 1.468 1.468 0 0 1 .029-.177q.039-.26.07-.507v-.1a1.5 1.5 0 0 0 .016-.151v-.247a.912.912 0 0 1 .013-.187.4.4 0 0 0 0-.125.216.216 0 0 0 0-.042V451.493a.07.07 0 0 0 0-.021v-.234c0-.125-.016-.26-.026-.377v-.125a11.657 11.657 0 0 0-.166-1.155z" class="cls-7" data-name="Path 1604" transform="translate(-94.918)"/>
            <path id="Path_1605" d="M725.777 524.68l-6.025 5.573-.447 1.168-.3.78-25.459 1.207-1.368-2.169-.44-.694-1.2 3.464-6.031-3.755s.752-5.12 1.355-7.682c.575-2.447 2.39-3.932 8.738-5.768l.26-.081.635-.177c.135-.036.26-.075.4-.12a7.4 7.4 0 0 0 5.022-5.36 12.415 12.415 0 0 0 .3-4.764s9.265-2.936 8.964 2.939a6.616 6.616 0 0 0 .135 1.789c.551 2.431 2.585 3.641 5.032 4.421q.663.213 1.357.393l.1.026c1.381.356 2.816.637 4.161.97 4.811 1.211 4.811 7.84 4.811 7.84z" class="cls-8" data-name="Path 1605" transform="translate(-129.958 -81.492)"/>
            <path id="Path_1606" d="M758.887 401.371a5.005 5.005 0 0 1 2.2-1.477c3.922-1.6 8.865-1.677 11.962 1.209.934.869 1.641 1.948 2.489 2.9 4 4.517 10.87 5.734 16.672 4.07a10.319 10.319 0 0 1 4.088-.731 5.853 5.853 0 0 1 2.21.835c3.271 1.945 5.125 5.531 7.578 8.444a17.911 17.911 0 0 0 6.47 5.011 11.881 11.881 0 0 0 8.061.619 24.15 24.15 0 0 1-5.62 2.913 12.777 12.777 0 0 1-6.623.814c-2.754-.52-5.061-2.312-7.352-3.922a71.133 71.133 0 0 0-7.242-4.47c-2.26-1.217-4.759-2.34-7.3-1.987-2.161.3-4.039 1.63-6.14 2.223a9.362 9.362 0 0 1-6.353-.46c-5.375-2.444-7.835-9.653-13.59-10.982-1.472-.338-1.742.182-2.044-1.62a4.341 4.341 0 0 1 .534-3.389z" class="cls-9" data-name="Path 1606" transform="translate(-184.525 -2.48)"/>
            <path id="Path_1607" d="M816.186 426.43a12.777 12.777 0 0 1-6.623.814c-2.754-.52-5.06-2.309-7.352-3.921a71.128 71.128 0 0 0-7.242-4.47c-2.26-1.217-4.759-2.34-7.3-1.987-2.161.3-4.039 1.631-6.14 2.226a9.362 9.362 0 0 1-6.353-.463c-5.375-2.444-7.835-9.653-13.59-10.979-1.472-.341-1.742.179-2.047-1.623a5.5 5.5 0 0 1 .042-2.366 4.506 4.506 0 0 0-1.841 1.326 4.262 4.262 0 0 0-.52 3.381c.3 1.8.572 1.282 2.044 1.62 5.755 1.329 8.215 8.537 13.59 10.982a9.36 9.36 0 0 0 6.353.478c2.1-.593 3.979-1.924 6.14-2.223 2.543-.354 5.042.78 7.3 1.987a71.456 71.456 0 0 1 7.245 4.47c2.291 1.61 4.6 3.407 7.349 3.922a12.764 12.764 0 0 0 6.623-.814 24.149 24.149 0 0 0 5.627-2.918 10.532 10.532 0 0 1-2.913.437z" class="cls-4" data-name="Path 1607" transform="translate(-183.677 -6.085)"/>
            <circle id="Ellipse_744" cx="11.372" cy="11.372" r="11.372" class="cls-9" data-name="Ellipse 744" transform="translate(564.187 405.379)"/>
            <path id="Path_1608" d="M732.958 482.38a11.374 11.374 0 0 1-11.307-10.16 11.5 11.5 0 0 0-.065 1.2 11.374 11.374 0 0 0 22.746.344v-.344a11.5 11.5 0 0 0-.065-1.2 11.374 11.374 0 0 1-11.309 10.16z" class="cls-4" data-name="Path 1608" transform="translate(-157.399 -56.816)"/>
            <path id="Path_1609" d="M757.043 511.03a8.444 8.444 0 0 1-9.4.036 12.417 12.417 0 0 0 .3-4.764s9.265-2.936 8.964 2.939a6.624 6.624 0 0 0 .136 1.789z" class="cls-4" data-name="Path 1609" transform="translate(-176.679 -81.492)"/>
            <circle id="Ellipse_745" cx="8.436" cy="8.436" r="8.436" class="cls-8" data-name="Ellipse 745" transform="translate(567.198 413.662)"/>
            <path id="Path_1610" d="M761.09 583.328a6.5 6.5 0 0 1 1.04 1.472 3.337 3.337 0 0 1 .289 2.8 3.984 3.984 0 0 1 .567-3.269 6.1 6.1 0 0 1 2.632-2.112" class="cls-10" data-name="Path 1610" transform="translate(-186.631 -138.211)"/>
            <path id="Path_1611" d="M707 710.036c-1.644 2.663-5.016 4.605-10.893 4.605h-47.448s-.309-.107-.83-.31a32.322 32.322 0 0 1-8.639-4.764c-2.47-2.135-3.674-4.746-.557-7.43a9.361 9.361 0 0 1 6.259-2.218l15.967.26 24.853-1.066s21.69-.754 22.445 4.517a9.561 9.561 0 0 1-1.157 6.406z" class="cls-9" data-name="Path 1611" transform="translate(-94.638 -224.679)"/>
            <path id="Path_1612" d="M739.793 585.606c-.26.567-.962.7-1.56.876-2.46.72-3.979 3.121-5.939 4.761a11.354 11.354 0 0 1-3.321 1.937 14.966 14.966 0 0 1-8.66.278c-2.853-.666-6.1-1.227-8.243-3.225a23.664 23.664 0 0 1-4.361-5.461 2.6 2.6 0 0 1-.432-1.173 1.219 1.219 0 0 1 0-.135.406.406 0 0 1 0-.078.379.379 0 0 1 0-.075.186.186 0 0 1 .018-.1.79.79 0 0 1 .026-.112.465.465 0 0 1 .029-.114c.01-.039.023-.073.034-.109.052-.172.114-.338.166-.52.018-.057.034-.114.047-.169a1.667 1.667 0 0 0 .06-.544 4.381 4.381 0 0 0-.273-.96.456.456 0 0 0-.034-.112l-.034-.127a3.013 3.013 0 0 1-.083-.52 3.788 3.788 0 0 1-.018-.38v-.208a.037.037 0 0 1 0-.023 1.072 1.072 0 0 1 .013-.205 5.05 5.05 0 0 1 .065-.439 1.163 1.163 0 0 1 .047-.242l.031-.125a.1.1 0 0 1 0-.029 21.461 21.461 0 0 1 1.181-3.037 19.34 19.34 0 0 0 1.516-7.021 10.036 10.036 0 0 0-.052-1.422 1.544 1.544 0 0 0-.018-.153c-.005-.052-.023-.166-.042-.26s-.034-.182-.055-.26-.029-.114-.047-.172-.042-.151-.065-.226c-.26-.827-.78-1.56-1-2.408q-.039-.156-.07-.312a3.724 3.724 0 0 1-.044-.26v-.1a4.024 4.024 0 0 1-.026-.408v-.382a2.178 2.178 0 0 1 .013-.278.887.887 0 0 0 0-.187 2.362 2.362 0 0 1 .036-.336c.016-.109.026-.224.042-.335.029-.216.062-.434.1-.65s.073-.466.112-.7a8.827 8.827 0 0 1 .97-3.048c.8-1.35 2.234-2.392 2.481-3.942a5.086 5.086 0 0 0-.143-1.852c-.031-.135-.06-.26-.088-.4a39.467 39.467 0 0 1-.8-5.2l.26-.081.635-.177c.135-.036.26-.075.4-.12a32.93 32.93 0 0 0 .689 5.2 12.2 12.2 0 0 0 1.378 3.849 5.441 5.441 0 0 0 3.121 2.509 7.892 7.892 0 0 0 2.71.1q2.73-.238 5.419-.744a13.157 13.157 0 0 0 3.784-1.181 2.6 2.6 0 0 0 .809-.622 3.085 3.085 0 0 0 .507-1.188 32.737 32.737 0 0 0 1.04-8.9q.663.213 1.358.393l.1.026c0 .492-.023.98-.047 1.469-.013.3-.031.593-.049.892 0 .166-.023.335-.039.5 0 .12-.023.242-.034.361a.315.315 0 0 1-.013.109c-.016.146-.031.291-.049.434-.023.2-.052.39-.081.585l-.039.26c-.055.375-.112.752-.159 1.129a10.833 10.833 0 0 0-.1 1.69 6.464 6.464 0 0 0 1.472 3.438 10.251 10.251 0 0 1 1.474 3.95 13.575 13.575 0 0 1 .317 1.859.887.887 0 0 0 .018.218.474.474 0 0 1 0 .161v1.625a1.1 1.1 0 0 1-.018.234.338.338 0 0 0 0 .138l-.016.151a1.722 1.722 0 0 1-.029.229c-.01.075-.023.185-.036.276s-.029.185-.044.276a11.049 11.049 0 0 1-.259 1.162c-.016.065-.034.127-.052.19-.068.234-.143.466-.226.7-.294.814-.611 1.628-.91 2.444-.049.135-.1.26-.146.408s-.1.26-.14.4c-.047.138-.091.276-.138.411s-.086.26-.127.411c-.086.281-.164.562-.237.845-.021.083-.044.167-.062.26a.6.6 0 0 1-.026.114l-.026.114c-.039.177-.075.354-.109.533l-.039.224c-.023.148-.044.294-.065.439-.021.156-.036.317-.052.476-.208 2.457.611 5.2 2.72 6.48.619.377 1.41.726 1.526 1.441.065.414-.127.827-.086 1.243.068.692.726 1.139 1.272 1.56.605.453 1.125 1.145.865 1.779z" class="cls-11" data-name="Path 1612" transform="translate(-146.764 -109.612)"/>
            <g id="Group_3201" class="cls-12" data-name="Group 3201" transform="translate(560.477 434.354)">
                <path id="Path_1613" d="M808.41 619.4a8.769 8.769 0 0 0 .049 1.935 32.2 32.2 0 0 1 2.028-6.605 12.321 12.321 0 0 0 .658-5.354 12.182 12.182 0 0 1-.658 2.944c-.847 2.326-1.887 4.625-2.077 7.08z" data-name="Path 1613" transform="translate(-782.099 -592.662)"/>
                <path id="Path_1614" d="M807.013 545.124c0 .492-.023.98-.047 1.469-.013.3-.029.593-.049.892 0 .166-.023.335-.039.5 0 .12-.023.242-.034.361a.314.314 0 0 1-.013.109c-.016.146-.031.291-.049.434-.023.2-.052.39-.081.585l-.039.26c-.055.374-.112.752-.159 1.129a3.78 3.78 0 0 1-.1-.72 23.4 23.4 0 0 1 .375-3.672c.057-.458.1-.921.133-1.383z" data-name="Path 1614" transform="translate(-780.638 -545.09)"/>
                <path id="Path_1615" d="M713.951 614.514a5.465 5.465 0 0 1 .226 1.079c.026-.328.044-.658.052-.986a7.437 7.437 0 0 0-.278-2.5c-.26-.827-.78-1.56-1-2.405-.016-.068-.034-.133-.047-.2a6.55 6.55 0 0 0 .047 2.6c.227.844.729 1.585 1 2.412z" data-name="Path 1615" transform="translate(-711.372 -592.75)"/>
                <path id="Path_1616" d="M739.162 693.8c-.242.088-.5.153-.741.224-2.46.72-3.979 3.121-5.939 4.761a11.364 11.364 0 0 1-3.321 1.94 15.1 15.1 0 0 1-8.66.276c-2.853-.666-6.1-1.227-8.243-3.222a23.8 23.8 0 0 1-4.361-5.461l-.091-.161a5.258 5.258 0 0 0-.338 1.4 2.572 2.572 0 0 0 .429 1.173 23.731 23.731 0 0 0 4.361 5.461c2.145 2 5.391 2.559 8.243 3.225a15.075 15.075 0 0 0 8.66-.278 11.294 11.294 0 0 0 3.321-1.937c1.961-1.651 3.479-4.041 5.939-4.761.593-.174 1.3-.31 1.56-.876.261-.642-.26-1.332-.819-1.764z" data-name="Path 1616" transform="translate(-707.43 -653.915)"/>
                <path id="Path_1617" d="M707.754 678.067a4.116 4.116 0 0 0-.26-.947 4.369 4.369 0 0 0-.036 2.286 4.246 4.246 0 0 0 .296-1.339z" data-name="Path 1617" transform="translate(-707.323 -642.786)"/>
                <path id="Path_1618" d="M724.357 553.635a3.236 3.236 0 0 1-.143.559c-.031-.135-.06-.26-.088-.4a39.495 39.495 0 0 1-.8-5.2l.26-.081q.211 1.448.52 2.86a5.832 5.832 0 0 1 .251 2.262z" data-name="Path 1618" transform="translate(-719.167 -547.621)"/>
            </g>
            <path id="Path_1619" d="M677.136 592.67l-1.732 1.282s-3.661 8.223-3.394 12.833c.042.733.062 1.469.049 2.205-.029 1.493.4 3.9 3.57 3.264 4.517-.9 15.665-4.972 15.665-4.972l-.754-3.615s-9.489 2.408-11.133 1.368c0 0 2.184-6.1 1.883-6.852s-4.154-5.513-4.154-5.513z" class="cls-8" data-name="Path 1619" transform="translate(-120.706 -145.943)"/>
            <path id="Path_1620" d="M800.009 570.08l1.04 2.411a88.524 88.524 0 0 1 3.615 9.338c.6 2.559 1.659 9.19 1.659 9.19s2.408 4.681-6.93 2.71-13.262-4.366-13.262-4.366l1.82-3.316s8.886 1.656 10.092.754c0 0-3.615-8.285-3.316-8.888s5.282-7.833 5.282-7.833z" class="cls-8" data-name="Path 1620" transform="translate(-205.16 -129.228)"/>
            <path id="Path_1621" d="M737.5 602.446l1.506-1.355s2.861-13.262 5.425-11.3-1.056 13.262-1.056 13.262l-3.615 1.958z" class="cls-8" data-name="Path 1621" transform="translate(-169.176 -143.668)"/>
            <path id="Path_1622" d="M775.2 600.934l-.9-1.056s-3.165-13.1-5.874-10.844 2.85 13.117 2.85 13.117l1.207 1.056 2.408-.6z" class="cls-8" data-name="Path 1622" transform="translate(-191.506 -143.06)"/>
            <path id="Path_1623" d="M783.824 728.8s-11.315 1.181-12.285 1.87-.367 4.907-.367 4.907l14.911-.9z" class="cls-8" data-name="Path 1623" transform="translate(-193.954 -246.673)"/>
            <path id="Path_1624" d="M783.824 728.8s-11.315 1.181-12.285 1.87-.367 4.907-.367 4.907l14.911-.9z" class="cls-4" data-name="Path 1624" transform="translate(-193.954 -246.673)"/>
            <path id="Path_1625" d="M834.994 722.275c-1.643 2.663-2.182 4.143-8.061 4.143H813.98v-7.833l1.656-.9a31 31 0 0 1 14.914-2.109z" class="cls-4" data-name="Path 1625" transform="translate(-225.767 -236.76)"/>
            <path id="Path_1626" d="M838.989 722.975c-1.644 2.663-5.016 4.605-10.893 4.605H815.14v-7.835l1.654-.9a31 31 0 0 1 14.914-2.109z" class="cls-9" data-name="Path 1626" transform="translate(-226.626 -237.618)"/>
            <path id="Path_1627" d="M742.52 730.375a4.049 4.049 0 0 1 1.62-.208 2.3 2.3 0 0 1 1.56 1.123 2 2 0 0 0 .453.619 1.437 1.437 0 0 0 .739.211 33.153 33.153 0 0 1 5.328.622 6.2 6.2 0 0 1 4.184 3.087 1.371 1.371 0 0 1 .156.6 1.18 1.18 0 0 1-.78.949c-1.235.538-2.616-.185-3.935-.468a14.1 14.1 0 0 0-4.54.112 38.768 38.768 0 0 1-4.5.26 18.41 18.41 0 0 1-3.68-.341c-.679-.143-1.347-.343-2.034-.434a13.851 13.851 0 0 0-1.971-.073q-4.569.052-9.128-.138a8.658 8.658 0 0 1-2.845-.442.9.9 0 0 1-.484-.348.912.912 0 0 1-.1-.424 8.608 8.608 0 0 1 .863-4.265c.211-.434.624-1.443 1.092-1.657s1.7.3 2.223.421A47.481 47.481 0 0 0 736.893 731a22.494 22.494 0 0 0 5.627-.625z" class="cls-8" data-name="Path 1627" transform="translate(-158.12 -246.898)"/>
            <path id="Path_1628" d="M684.473 713.341l-2.013 7.843-12.373-.309c-1.766-.679 2.686-2.567 0-4.886l-3.238-7.469a38.629 38.629 0 0 1 6.779 1.659 10.632 10.632 0 0 0 4.369.9s5.876 1.508 6.476 2.262z" class="cls-4" data-name="Path 1628" transform="translate(-116.898 -231.667)"/>
            <path id="Path_1629" d="M669.1 715.052l-2.013 7.833-12.373-.309a32.329 32.329 0 0 1-8.639-4.764l5.4-7.591a38.77 38.77 0 0 1 6.779 1.657 10.727 10.727 0 0 0 4.369.9s5.877 1.522 6.477 2.274z" class="cls-9" data-name="Path 1629" transform="translate(-101.529 -232.925)"/>
            <ellipse id="Ellipse_746" cx="4.369" cy="9.024" class="cls-9" data-name="Ellipse 746" rx="4.369" ry="9.024" transform="rotate(-83.23 518.263 -109.7)"/>
            <circle id="Ellipse_747" cx="3.162" cy="3.162" r="3.162" class="cls-9" data-name="Ellipse 747" transform="translate(573.075 402.217)"/>
            <path id="Path_1630" d="M755.77 433.028s3.966-.765 5.9.52-5.9-.52-5.9-.52z" class="cls-4" data-name="Path 1630" transform="translate(-182.695 -27.648)"/>
            <path id="Path_1631" d="M744.624 449.248c0 .26-.174.564-.78.034-1.529-1.334-5.048-4.85-9.882-4.85-5.04 0-9.125 3.607-10.922 4.85-.609.421-1.04.192-1.04-.034 0-.887 5.2-8.028 11.962-8.028s10.662 7.141 10.662 8.028z" class="cls-11" data-name="Path 1631" transform="translate(-157.706 -33.877)"/>
            <path id="Path_1632" d="M744.328 454.573c-.078.169-.291.242-.744-.153-1.529-1.334-5.047-4.85-9.882-4.85-5.04 0-9.125 3.607-10.922 4.85a1.364 1.364 0 0 1-.424.205 2.152 2.152 0 0 0-.356.8c0 .226.432.455 1.04.034 1.8-1.243 5.882-4.85 10.922-4.85 4.834 0 8.353 3.516 9.882 4.85.606.52.78.218.78-.034a2.645 2.645 0 0 0-.296-.852z" class="cls-4" data-name="Path 1632" transform="translate(-157.706 -40.056)"/>
            <path id="Rectangle_1371" d="M0 0h.85v4.813H0z" class="cls-13" data-name="Rectangle 1371" transform="translate(586.166 415.336)"/>
            <path id="Path_1633" d="M801.75 483.93a2.926 2.926 0 0 1 2.926 2.926v.19a2.926 2.926 0 0 1-2.926 2.926v-6.042z" class="cls-14" data-name="Path 1633" transform="translate(-216.718 -65.481)"/>
            <rect id="Rectangle_1372" width="1.321" height="6.605" class="cls-13" data-name="Rectangle 1372" rx=".661" transform="translate(584.465 418.166)"/>
            <path id="Rectangle_1373" d="M0 0h.85v4.813H0z" class="cls-13" data-name="Rectangle 1373" transform="translate(564.296 415.43)"/>
            <path id="Path_1634" d="M721.315 490.331a2.926 2.926 0 0 1-2.926-2.926v-.19a2.926 2.926 0 0 1 2.926-2.926v6.041z" class="cls-11" data-name="Path 1634" transform="translate(-155.035 -65.747)"/>
            <rect id="Rectangle_1374" width="1.321" height="6.605" class="cls-13" data-name="Rectangle 1374" rx=".661" transform="translate(565.524 418.262)"/>
        </g>
    </g>
</svg>
