<?xml version="1.0" encoding="UTF-8" standalone="no"?>
<!DOCTYPE svg PUBLIC "-//W3C//DTD SVG 1.1//EN" "http://www.w3.org/Graphics/SVG/1.1/DTD/svg11.dtd">
<svg width="100%" height="100%" viewBox="0 0 172 152" version="1.1" xmlns="http://www.w3.org/2000/svg" xmlns:xlink="http://www.w3.org/1999/xlink" xml:space="preserve" xmlns:serif="http://www.serif.com/" style="fill-rule:evenodd;clip-rule:evenodd;stroke-linejoin:round;stroke-miterlimit:2;">
    <g id="Component_77_1" transform="matrix(1,0,0,1,5.07493,1.18582)">
        <clipPath id="_clip1">
            <rect x="0" y="0" width="171.293" height="151.404"/>
        </clipPath>
        <g clip-path="url(#_clip1)">
            <g>
                <path id="Path_1839" d="M74.073,0C114.707,0.001 148.144,33.438 148.144,74.072C148.144,114.707 114.707,148.144 74.072,148.144C33.437,148.144 0,114.707 0,74.072C0.001,33.437 33.438,0 74.073,0Z" style="fill:rgb(120,142,232);fill-rule:nonzero;"/>
                <g id="Path_1601" transform="matrix(1,0,0,1,-698.832,-120.25)">
                    <path d="M792.59,157.37L792.383,157.37C784.467,157.406 777.085,161.449 772.792,168.1C768.496,161.452 761.115,157.41 753.2,157.37L752.993,157.37C740.261,157.45 729.83,167.948 729.83,180.68C729.83,188.312 733.17,199.138 739.693,208.049C752.104,225.019 772.731,239.868 772.731,239.868C772.731,239.868 793.359,225.019 805.769,208.049C812.291,199.137 815.632,188.311 815.632,180.68C815.626,167.996 805.273,157.523 792.59,157.37Z" style="fill:rgb(253,253,253);fill-rule:nonzero;"/>
                </g>
            </g>
            <g transform="matrix(1,0,0,1,12.7719,33.9725)">
                <g id="Path_1604" transform="matrix(1,0,0,1,-583.325,-375.614)">
                    <path d="M731.2,419.258L731.405,419.118C730.455,419.402 729.469,419.551 728.477,419.56C726.791,419.53 725.128,419.168 723.583,418.494C721.049,417.334 718.818,415.603 717.066,413.436C714.596,410.497 712.728,406.878 709.434,404.914C708.756,404.485 707.997,404.198 707.205,404.071C705.797,404.037 704.396,404.288 703.088,404.81C697.245,406.49 690.325,405.26 686.294,400.701C685.441,399.739 684.734,398.652 683.787,397.773C680.666,394.86 675.687,394.936 671.736,396.553C671.497,396.653 671.26,396.753 671.029,396.87C671.039,396.816 671.052,396.762 671.068,396.709C670.345,396.989 669.706,397.449 669.211,398.046C668.573,399.06 668.378,400.293 668.673,401.455C668.716,401.828 668.818,402.192 668.973,402.534C668.487,403.109 668.221,403.838 668.221,404.591C668.219,404.683 668.223,404.775 668.234,404.867C663.473,405.934 659.89,409.928 659.343,414.777L659.343,414.7C659.3,415.103 659.279,415.508 659.278,415.914L659.278,416.067C659.274,419.197 660.554,422.195 662.817,424.357C663.45,426.106 664.637,427.602 666.198,428.614C666.167,428.744 666.136,428.874 666.098,429.007C665.489,431.576 663.561,433.638 661.038,434.416C660.906,434.46 660.772,434.501 660.638,434.538L659.998,434.717L659.738,434.795C653.346,436.649 651.518,438.147 650.938,440.617C650.46,442.651 649.898,446.286 649.666,447.742C649.203,448.813 646.057,456.259 646.306,460.562C646.348,461.303 646.368,462.044 646.355,462.788C646.326,464.294 646.755,466.72 649.955,466.08C651.775,465.716 654.636,464.845 657.455,463.927C657.29,464.432 657.105,464.928 656.899,465.417C656.427,466.407 656.03,467.431 655.711,468.48L655.711,468.509L655.68,468.636L655.68,468.711C655.673,468.756 655.664,468.8 655.651,468.844C655.641,468.888 655.651,468.867 655.651,468.88C655.652,468.896 655.652,468.913 655.651,468.929C655.646,468.986 655.637,469.042 655.625,469.098C655.617,469.155 655.604,469.246 655.596,469.322L655.596,469.462C655.597,469.485 655.597,469.507 655.596,469.53L655.596,469.868C655.597,469.893 655.597,469.918 655.596,469.943C655.594,470.01 655.598,470.077 655.609,470.143L655.609,470.169C655.608,470.212 655.614,470.255 655.625,470.296C655.641,470.338 655.625,470.364 655.625,470.396L655.625,470.443L655.648,470.563C655.645,470.593 655.652,470.624 655.666,470.651L655.697,470.773C655.702,470.813 655.714,470.851 655.731,470.887C655.861,471.197 655.954,471.522 656.007,471.854C656.017,472.039 655.997,472.224 655.947,472.403L655.908,472.543C655.909,472.553 655.909,472.564 655.908,472.574C655.879,472.674 655.846,472.774 655.808,472.874C655.79,472.929 655.772,472.983 655.756,473.038C655.758,473.056 655.751,473.074 655.738,473.087L655.722,473.139L655.706,473.194L655.706,473.217L655.667,473.376L655.667,473.423C655.666,473.443 655.666,473.463 655.667,473.483L655.667,473.522C655.666,473.547 655.666,473.572 655.667,473.597C655.668,473.613 655.668,473.63 655.667,473.646L655.667,473.669C655.664,473.715 655.664,473.761 655.667,473.807C655.713,474.234 655.862,474.643 656.1,475C656.149,475.086 656.2,475.169 656.253,475.26L645.331,475.081C643.026,475.031 640.781,475.829 639.025,477.323C635.886,480.023 637.095,482.664 639.587,484.823C642.224,486.861 645.158,488.482 648.287,489.629C648.807,489.834 649.124,489.941 649.124,489.941L675.909,489.941L676.309,490.032C677.532,490.263 678.775,490.371 680.02,490.352C681.534,490.354 683.046,490.267 684.55,490.092C685.003,490.04 685.46,489.98 685.918,489.931L688.779,489.931L689.039,489.98C690.368,490.263 691.756,490.994 693.002,490.451C693.26,490.343 693.481,490.163 693.637,489.931L696.837,489.931C702.758,489.931 706.157,487.973 707.814,485.284C708.944,483.337 709.355,481.054 708.976,478.835C708.331,474.318 692.486,474.183 687.717,474.245C687.65,474.184 687.581,474.126 687.509,474.071C686.96,473.639 686.297,473.189 686.227,472.49C686.188,472.071 686.38,471.653 686.315,471.237C686.198,470.514 685.4,470.163 684.778,469.781C682.653,468.481 681.829,465.722 682.037,463.241C682.053,463.082 682.068,462.921 682.089,462.762C682.105,462.637 682.125,462.515 682.144,462.393C682.143,462.371 682.143,462.35 682.144,462.328L682.144,462.3C684.575,463.077 687.045,463.726 689.544,464.243C698.953,466.219 696.524,461.505 696.524,461.505C696.524,461.505 695.463,454.817 694.855,452.232C693.819,449.025 692.603,445.879 691.214,442.808L691.136,442.629C691.113,441.789 690.785,435.954 686.284,434.829C684.942,434.491 683.496,434.21 682.105,433.851L682.005,433.822C681.539,433.702 681.082,433.562 680.637,433.422C678.172,432.622 676.123,431.407 675.569,428.952C675.538,428.817 675.513,428.681 675.494,428.544C677.084,427.49 678.274,425.933 678.875,424.123C680.999,421.979 682.19,419.08 682.188,416.062C682.189,416.037 682.189,416.012 682.188,415.987L682.188,415.909C682.189,415.503 682.167,415.098 682.123,414.695L682.123,414.77C682.026,413.904 681.831,413.051 681.54,412.229C682.407,413.012 683.384,413.664 684.44,414.164C685.704,414.737 687.08,415.023 688.468,414.999C689.364,415.014 690.258,414.898 691.121,414.656C693.235,414.056 695.128,412.713 697.305,412.409C697.58,412.373 697.857,412.352 698.135,412.347C700.344,412.54 702.477,413.253 704.358,414.427C706.879,415.785 709.317,417.292 711.658,418.941C713.965,420.566 716.289,422.379 719.058,422.899C719.675,423.012 720.302,423.063 720.93,423.052C722.675,423.035 724.402,422.703 726.03,422.074C728.04,421.347 729.945,420.357 731.696,419.13C731.541,419.169 731.375,419.216 731.2,419.258ZM675.03,405.434C674.865,405.366 674.698,405.302 674.53,405.242C674.544,405.175 674.554,405.109 674.561,405.042C674.72,405.169 674.876,405.302 675.029,405.442L675.03,405.434ZM653.73,458.788C653.73,458.788 655.647,453.428 655.657,452.094L656.843,448.694L657.283,449.394C657.244,449.628 657.208,449.862 657.171,450.094C657.134,450.326 657.103,450.531 657.071,450.749C657.04,450.973 657.014,451.194 656.996,451.417C656.998,451.48 656.994,451.542 656.983,451.604L656.983,452.272C656.982,452.294 656.982,452.315 656.983,452.337L656.983,452.428C656.983,452.514 656.996,452.6 657.004,452.688L657.004,452.74C657.005,452.755 657.005,452.769 657.004,452.784C657.009,452.872 657.023,452.959 657.048,453.044C657.066,453.122 657.09,453.234 657.113,453.33L657.113,453.359C657.342,454.204 657.844,454.948 658.113,455.78C658.136,455.855 658.16,455.933 658.181,456.009L658.204,456.103L658.243,456.264L658.266,456.381L658.297,456.553L658.297,456.623C658.303,456.706 658.314,456.788 658.331,456.87C658.382,457.348 658.4,457.828 658.383,458.308C658.385,458.456 658.38,458.603 658.367,458.75C656.32,459.092 654.4,459.211 653.727,458.788L653.73,458.788ZM684.889,448.836C685.365,450.815 688.176,457.267 688.176,457.267C687.656,457.66 685.711,457.574 683.656,457.35C683.695,457.25 683.731,457.15 683.768,457.056L683.825,456.9L683.925,456.64C683.987,456.466 684.052,456.294 684.115,456.12L684.232,455.777L684.232,455.733C684.271,455.613 684.307,455.494 684.341,455.372C684.357,455.325 684.37,455.272 684.383,455.226L684.383,455.21L684.443,454.979C684.448,454.94 684.457,454.902 684.472,454.865L684.519,454.665C684.516,454.635 684.523,454.604 684.537,454.577C684.538,454.556 684.538,454.536 684.537,454.515C684.541,454.481 684.548,454.448 684.558,454.415C684.576,454.334 684.592,454.253 684.605,454.171C684.606,454.147 684.606,454.122 684.605,454.098C684.606,454.083 684.606,454.069 684.605,454.054C684.611,453.994 684.621,453.935 684.634,453.877C684.66,453.704 684.683,453.535 684.704,453.37L684.704,453.27C684.712,453.22 684.717,453.17 684.72,453.119L684.72,452.872C684.718,452.809 684.722,452.747 684.733,452.685C684.74,452.644 684.74,452.601 684.733,452.56C684.734,452.546 684.734,452.532 684.733,452.518L684.733,451.493C684.734,451.486 684.734,451.479 684.733,451.472L684.733,451.238C684.733,451.113 684.717,450.978 684.707,450.861L684.707,450.736C684.671,450.348 684.616,449.963 684.541,449.581L684.889,448.836Z" style="fill:url(#_Linear2);fill-rule:nonzero;"/>
                </g>
                <g id="Path_1605" transform="matrix(1,0,0,1,-618.365,-457.106)">
                    <path d="M725.777,524.68L719.752,530.253L719.305,531.421L719.005,532.201L693.546,533.408L692.178,531.239L691.738,530.545L690.538,534.009L684.507,530.254C684.507,530.254 685.259,525.134 685.862,522.572C686.437,520.125 688.252,518.64 694.6,516.804L694.86,516.723L695.495,516.546C695.63,516.51 695.755,516.471 695.895,516.426C698.397,515.656 700.311,513.613 700.917,511.066C701.324,509.512 701.426,507.894 701.217,506.302C701.008,504.71 710.482,503.366 710.181,509.241C710.145,509.841 710.19,510.443 710.316,511.03C710.867,513.461 712.901,514.671 715.348,515.451C715.79,515.593 716.242,515.724 716.705,515.844L716.805,515.87C718.186,516.226 719.621,516.507 720.966,516.84C725.777,518.051 725.777,524.68 725.777,524.68Z" style="fill:rgb(219,139,139);fill-rule:nonzero;"/>
                </g>
                <g id="Path_1606" transform="matrix(1,0,0,1,-672.932,-378.094)">
                    <path d="M758.887,401.371C759.474,400.69 760.234,400.18 761.087,399.894C765.009,398.294 769.952,398.217 773.049,401.103C773.983,401.972 774.69,403.051 775.538,404.003C779.538,408.52 786.408,409.737 792.21,408.073C793.509,407.555 794.9,407.306 796.298,407.342C797.084,407.467 797.836,407.751 798.508,408.177C801.779,410.122 803.633,413.708 806.086,416.621C807.827,418.768 810.042,420.483 812.556,421.632C815.087,422.774 817.941,422.993 820.617,422.251C818.88,423.464 816.99,424.444 814.997,425.164C812.901,426.017 810.615,426.298 808.374,425.978C805.62,425.458 803.313,423.666 801.022,422.056C798.699,420.423 796.281,418.93 793.78,417.586C791.52,416.369 789.021,415.246 786.48,415.599C784.319,415.899 782.441,417.229 780.34,417.822C778.234,418.416 775.985,418.253 773.987,417.362C768.612,414.918 766.152,407.709 760.397,406.38C758.925,406.042 758.655,406.562 758.353,404.76C758.058,403.605 758.251,402.379 758.887,401.371Z" style="fill:rgb(53,50,62);fill-rule:nonzero;"/>
                </g>
                <g id="Path_1607" transform="matrix(1,0,0,1,-672.084,-381.699)">
                    <path d="M816.186,426.43C814.09,427.283 811.804,427.564 809.563,427.244C806.809,426.724 804.503,424.935 802.211,423.323C799.888,421.69 797.47,420.197 794.969,418.853C792.709,417.636 790.21,416.513 787.669,416.866C785.508,417.166 783.63,418.497 781.529,419.092C779.423,419.685 777.174,419.521 775.176,418.629C769.801,416.185 767.341,408.976 761.586,407.65C760.114,407.309 759.844,407.829 759.539,406.027C759.381,405.245 759.396,404.437 759.581,403.661C758.864,403.939 758.23,404.395 757.74,404.987C757.102,405.991 756.914,407.218 757.22,408.368C757.52,410.168 757.792,409.65 759.264,409.988C765.019,411.317 767.479,418.525 772.854,420.97C774.85,421.867 777.099,422.036 779.207,421.448C781.307,420.855 783.186,419.524 785.347,419.225C787.89,418.871 790.389,420.005 792.647,421.212C795.149,422.557 797.568,424.049 799.892,425.682C802.183,427.292 804.492,429.089 807.241,429.604C809.482,429.925 811.768,429.644 813.864,428.79C815.86,428.069 817.752,427.088 819.491,425.872C818.545,426.153 817.565,426.301 816.578,426.309L816.186,426.43Z" style="fill-rule:nonzero;"/>
                </g>
                <g id="Ellipse_744" transform="matrix(1,0,0,1,75.7802,29.765)">
                    <circle cx="11.372" cy="11.372" r="11.372" style="fill:rgb(53,50,62);"/>
                </g>
                <g id="Path_1608" transform="matrix(1,0,0,1,-645.806,-432.43)">
                    <path d="M732.958,482.38C727.176,482.379 722.268,477.969 721.651,472.22C721.608,472.619 721.587,473.019 721.586,473.42C721.585,473.477 721.585,473.535 721.585,473.592C721.585,479.832 726.719,484.966 732.959,484.966C739.134,484.966 744.239,479.938 744.332,473.764L744.332,473.42C744.331,473.019 744.31,472.619 744.267,472.22C743.65,477.97 738.741,482.38 732.958,482.38Z" style="fill-rule:nonzero;"/>
                </g>
                <g id="Path_1609" transform="matrix(1,0,0,1,-665.086,-457.106)">
                    <path d="M757.043,511.03C754.212,512.942 750.488,512.957 747.643,511.066C748.05,509.512 748.152,507.894 747.943,506.302C747.734,504.71 757.208,503.366 756.907,509.241C756.871,509.841 756.917,510.443 757.043,511.03Z" style="fill-rule:nonzero;"/>
                </g>
                <g id="Ellipse_745" transform="matrix(1,0,0,1,78.7912,38.048)">
                    <circle cx="8.436" cy="8.436" r="8.436" style="fill:rgb(219,139,139);"/>
                </g>
                <g id="Path_1610" transform="matrix(1,0,0,1,-675.038,-513.825)">
                    <path d="M761.09,583.328C761.503,583.768 761.853,584.263 762.13,584.8C762.634,585.645 762.74,586.67 762.419,587.6C762.124,586.48 762.331,585.286 762.986,584.331C763.647,583.394 764.56,582.661 765.618,582.219" style="fill-opacity:0.05;fill-rule:nonzero;"/>
                </g>
                <g id="Path_1611" transform="matrix(1,0,0,1,-583.045,-600.293)">
                    <path d="M707,710.036C705.356,712.699 701.984,714.641 696.107,714.641L648.659,714.641C648.659,714.641 648.35,714.534 647.829,714.331C644.723,713.194 641.809,711.588 639.19,709.567C636.72,707.432 635.516,704.821 638.633,702.137C640.378,700.658 642.605,699.869 644.892,699.919L660.859,700.179L685.712,699.113C685.712,699.113 707.402,698.359 708.157,703.63C708.532,705.834 708.123,708.102 707,710.036Z" style="fill:rgb(53,50,62);fill-rule:nonzero;"/>
                </g>
                <g id="Path_1612" transform="matrix(1,0,0,1,-635.171,-485.226)">
                    <path d="M739.793,585.606C739.533,586.173 738.831,586.306 738.233,586.482C735.773,587.202 734.254,589.603 732.294,591.243C731.305,592.073 730.182,592.728 728.973,593.18C726.177,594.124 723.164,594.221 720.313,593.458C717.46,592.792 714.213,592.231 712.07,590.233C710.354,588.639 708.884,586.798 707.709,584.772C707.472,584.422 707.323,584.019 707.277,583.599C707.275,583.554 707.275,583.509 707.277,583.464C707.274,583.438 707.274,583.412 707.277,583.386C707.275,583.361 707.275,583.336 707.277,583.311C707.274,583.277 707.28,583.242 707.295,583.211C707.301,583.173 707.31,583.136 707.321,583.099C707.326,583.06 707.336,583.022 707.35,582.985C707.36,582.946 707.373,582.912 707.384,582.876C707.436,582.704 707.498,582.538 707.55,582.356C707.568,582.299 707.584,582.242 707.597,582.187C707.647,582.01 707.667,581.826 707.657,581.643C707.603,581.314 707.511,580.992 707.384,580.683C707.378,580.644 707.366,580.607 707.35,580.571L707.316,580.444C707.273,580.273 707.245,580.099 707.233,579.924C707.221,579.798 707.215,579.671 707.215,579.544L707.215,579.336C707.213,579.329 707.213,579.32 707.215,579.313C707.213,579.244 707.217,579.176 707.228,579.108C707.243,578.961 707.265,578.814 707.293,578.669C707.3,578.587 707.316,578.506 707.34,578.427L707.371,578.302C707.37,578.292 707.37,578.283 707.371,578.273C707.687,577.232 708.082,576.217 708.552,575.236C709.491,573.011 710.006,570.629 710.068,568.215C710.084,567.74 710.067,567.265 710.016,566.793C710.013,566.742 710.007,566.691 709.998,566.64C709.993,566.588 709.975,566.474 709.956,566.38C709.937,566.286 709.922,566.198 709.901,566.12C709.88,566.042 709.872,566.006 709.854,565.948C709.836,565.89 709.812,565.797 709.789,565.722C709.529,564.895 709.009,564.162 708.789,563.314C708.763,563.21 708.74,563.106 708.719,563.002C708.701,562.916 708.687,562.829 708.675,562.742L708.675,562.642C708.659,562.507 708.651,562.37 708.649,562.234L708.649,561.852C708.647,561.759 708.652,561.666 708.662,561.574C708.669,561.512 708.669,561.449 708.662,561.387C708.666,561.274 708.678,561.162 708.698,561.051C708.714,560.942 708.724,560.827 708.74,560.716C708.769,560.5 708.802,560.282 708.84,560.066C708.878,559.85 708.913,559.6 708.952,559.366C709.087,558.299 709.416,557.266 709.922,556.318C710.722,554.968 712.156,553.926 712.403,552.376C712.469,551.755 712.421,551.127 712.26,550.524C712.229,550.389 712.2,550.264 712.172,550.124C711.79,548.41 711.523,546.673 711.372,544.924L711.632,544.843L712.267,544.666C712.402,544.63 712.527,544.591 712.667,544.546C712.758,546.295 712.988,548.034 713.356,549.746C713.596,551.097 714.061,552.399 714.734,553.595C715.417,554.797 716.534,555.695 717.855,556.104C718.746,556.293 719.663,556.327 720.565,556.204C722.385,556.045 724.191,555.797 725.984,555.46C727.298,555.26 728.574,554.862 729.768,554.279C730.076,554.127 730.351,553.916 730.577,553.657C730.828,553.301 731.001,552.896 731.084,552.469C731.837,549.564 732.187,546.569 732.124,543.569C732.566,543.711 733.019,543.842 733.482,543.962L733.582,543.988C733.582,544.48 733.559,544.968 733.535,545.457C733.522,545.757 733.504,546.05 733.486,546.349C733.486,546.515 733.463,546.684 733.447,546.849C733.447,546.969 733.424,547.091 733.413,547.21C733.415,547.247 733.411,547.284 733.4,547.319C733.384,547.465 733.369,547.61 733.351,547.753C733.328,547.953 733.299,548.143 733.27,548.338L733.231,548.598C733.176,548.973 733.119,549.35 733.072,549.727C732.995,550.287 732.961,550.852 732.972,551.417C733.113,552.683 733.625,553.879 734.444,554.855C735.204,556.055 735.706,557.4 735.918,558.805C736.067,559.417 736.173,560.038 736.235,560.664C736.232,560.737 736.238,560.81 736.253,560.882C736.262,560.935 736.262,560.99 736.253,561.043L736.253,562.668C736.255,562.746 736.249,562.825 736.235,562.902C736.226,562.948 736.226,562.994 736.235,563.04L736.219,563.191C736.214,563.268 736.205,563.344 736.19,563.42C736.18,563.495 736.167,563.605 736.154,563.696C736.141,563.787 736.125,563.881 736.11,563.972C736.045,564.364 735.958,564.752 735.851,565.134C735.835,565.199 735.817,565.261 735.799,565.324C735.731,565.558 735.656,565.79 735.573,566.024C735.279,566.838 734.962,567.652 734.663,568.468C734.614,568.603 734.563,568.728 734.517,568.876C734.471,569.024 734.417,569.136 734.377,569.276C734.33,569.414 734.286,569.552 734.239,569.687C734.192,569.822 734.153,569.947 734.112,570.098C734.026,570.379 733.948,570.66 733.875,570.943C733.854,571.026 733.831,571.11 733.813,571.203C733.808,571.242 733.799,571.28 733.787,571.317L733.761,571.431C733.722,571.608 733.686,571.785 733.652,571.964L733.613,572.188C733.59,572.336 733.569,572.482 733.548,572.627C733.527,572.783 733.512,572.944 733.496,573.103C733.288,575.56 734.107,578.303 736.216,579.583C736.835,579.96 737.626,580.309 737.742,581.024C737.807,581.438 737.615,581.851 737.656,582.267C737.724,582.959 738.382,583.406 738.928,583.827C739.533,584.28 740.053,584.972 739.793,585.606Z" style="fill:rgb(82,110,224);fill-rule:nonzero;"/>
                </g>
                <g id="Group_3201" transform="matrix(1,0,0,1,72.0702,58.74)">
                    <g id="Path_1613" transform="matrix(1,0,0,1,-782.099,-592.662)">
                        <path d="M808.41,619.4C808.355,620.045 808.371,620.694 808.459,621.335C808.896,619.067 809.576,616.853 810.487,614.73C811.099,613.016 811.324,611.187 811.145,609.376C811.048,610.381 810.827,611.37 810.487,612.32C809.64,614.646 808.6,616.945 808.41,619.4Z" style="fill-rule:nonzero;"/>
                    </g>
                    <g id="Path_1614" transform="matrix(1,0,0,1,-780.638,-545.09)">
                        <path d="M807.013,545.124C807.013,545.616 806.99,546.104 806.966,546.593C806.953,546.893 806.937,547.186 806.917,547.485C806.917,547.651 806.894,547.82 806.878,547.985C806.878,548.105 806.855,548.227 806.844,548.346C806.846,548.383 806.842,548.42 806.831,548.455C806.815,548.601 806.8,548.746 806.782,548.889C806.759,549.089 806.73,549.279 806.701,549.474L806.662,549.734C806.607,550.108 806.55,550.486 806.503,550.863C806.447,550.627 806.413,550.386 806.403,550.143C806.431,548.911 806.557,547.683 806.778,546.471C806.835,546.013 806.878,545.55 806.911,545.088L807.013,545.124Z" style="fill-rule:nonzero;"/>
                    </g>
                    <g id="Path_1615" transform="matrix(1,0,0,1,-711.372,-592.75)">
                        <path d="M713.951,614.514C714.063,614.865 714.138,615.227 714.177,615.593C714.203,615.265 714.221,614.935 714.229,614.607C714.279,613.764 714.185,612.918 713.951,612.107C713.691,611.28 713.171,610.547 712.951,609.702C712.935,609.634 712.917,609.569 712.904,609.502C712.746,610.363 712.762,611.247 712.951,612.102C713.178,612.946 713.68,613.687 713.951,614.514Z" style="fill-rule:nonzero;"/>
                    </g>
                    <g id="Path_1616" transform="matrix(1,0,0,1,-707.43,-653.915)">
                        <path d="M739.162,693.8C738.92,693.888 738.662,693.953 738.421,694.024C735.961,694.744 734.442,697.145 732.482,698.785C731.493,699.616 730.37,700.272 729.161,700.725C726.364,701.661 723.352,701.757 720.501,701.001C717.648,700.335 714.401,699.774 712.258,697.779C710.544,696.183 709.074,694.343 707.897,692.318L707.806,692.157C707.63,692.606 707.516,693.077 707.468,693.557C707.512,693.977 707.66,694.38 707.897,694.73C709.073,696.756 710.543,698.596 712.258,700.191C714.403,702.191 717.649,702.75 720.501,703.416C723.352,704.173 726.364,704.076 729.161,703.138C730.371,702.687 731.494,702.032 732.482,701.201C734.443,699.55 735.961,697.16 738.421,696.44C739.014,696.266 739.721,696.13 739.981,695.564C740.242,694.922 739.721,694.232 739.162,693.8Z" style="fill-rule:nonzero;"/>
                    </g>
                    <g id="Path_1617" transform="matrix(1,0,0,1,-707.323,-642.786)">
                        <path d="M707.754,678.067C707.705,677.742 707.618,677.424 707.494,677.12C707.279,677.865 707.267,678.654 707.458,679.406C707.629,678.979 707.729,678.526 707.754,678.067Z" style="fill-rule:nonzero;"/>
                    </g>
                    <g id="Path_1618" transform="matrix(1,0,0,1,-719.167,-547.621)">
                        <path d="M724.357,553.635C724.326,553.825 724.278,554.012 724.214,554.194C724.183,554.059 724.154,553.934 724.126,553.794C723.744,552.08 723.477,550.343 723.326,548.594L723.586,548.513C723.727,549.478 723.9,550.432 724.106,551.373C724.337,552.103 724.423,552.872 724.357,553.635Z" style="fill-rule:nonzero;"/>
                    </g>
                </g>
                <g id="Path_1619" transform="matrix(1,0,0,1,-609.113,-521.557)">
                    <path d="M677.136,592.67L675.404,593.952C675.404,593.952 671.743,602.175 672.01,606.785C672.052,607.518 672.072,608.254 672.059,608.99C672.03,610.483 672.459,612.89 675.629,612.254C680.146,611.354 691.294,607.282 691.294,607.282L690.54,603.667C690.54,603.667 681.051,606.075 679.407,605.035C679.407,605.035 681.591,598.935 681.29,598.183C680.989,597.431 677.136,592.67 677.136,592.67Z" style="fill:rgb(219,139,139);fill-rule:nonzero;"/>
                </g>
                <g id="Path_1620" transform="matrix(1,0,0,1,-693.567,-504.842)">
                    <path d="M800.009,570.08L801.049,572.491C802.429,575.533 803.636,578.651 804.664,581.829C805.264,584.388 806.323,591.019 806.323,591.019C806.323,591.019 808.731,595.7 799.393,593.729C790.055,591.758 786.131,589.363 786.131,589.363L787.951,586.047C787.951,586.047 796.837,587.703 798.043,586.801C798.043,586.801 794.428,578.516 794.727,577.913C795.026,577.31 800.009,570.08 800.009,570.08Z" style="fill:rgb(219,139,139);fill-rule:nonzero;"/>
                </g>
                <g id="Path_1621" transform="matrix(1,0,0,1,-657.583,-519.282)">
                    <path d="M737.5,602.446L739.006,601.091C739.006,601.091 741.867,587.829 744.431,589.791C746.995,591.753 743.375,603.053 743.375,603.053L739.76,605.011L737.5,602.446Z" style="fill:rgb(219,139,139);fill-rule:nonzero;"/>
                </g>
                <g id="Path_1622" transform="matrix(1,0,0,1,-679.913,-518.674)">
                    <path d="M775.2,600.934L774.3,599.878C774.3,599.878 771.135,586.778 768.426,589.034C765.717,591.29 771.276,602.151 771.276,602.151L772.483,603.207L774.891,602.607L775.2,600.934Z" style="fill:rgb(219,139,139);fill-rule:nonzero;"/>
                </g>
                <g id="Path_1623" transform="matrix(1,0,0,1,-682.361,-622.287)">
                    <path d="M783.824,728.8C783.824,728.8 772.509,729.981 771.539,730.67C770.569,731.359 771.172,735.577 771.172,735.577L786.083,734.677L783.824,728.8Z" style="fill:rgb(219,139,139);fill-rule:nonzero;"/>
                </g>
                <g id="Path_1624" transform="matrix(1,0,0,1,-682.361,-622.287)">
                    <path d="M783.824,728.8C783.824,728.8 772.509,729.981 771.539,730.67C770.569,731.359 771.172,735.577 771.172,735.577L786.083,734.677L783.824,728.8Z" style="fill-rule:nonzero;"/>
                </g>
                <g id="Path_1625" transform="matrix(1,0,0,1,-714.174,-612.374)">
                    <path d="M834.994,722.275C833.351,724.938 832.812,726.418 826.933,726.418L813.98,726.418L813.98,718.585L815.636,717.685C820.358,715.767 825.481,715.042 830.55,715.576L834.994,722.275Z" style="fill-rule:nonzero;"/>
                </g>
                <g id="Path_1626" transform="matrix(1,0,0,1,-715.033,-613.232)">
                    <path d="M838.989,722.975C837.345,725.638 833.973,727.58 828.096,727.58L815.14,727.58L815.14,719.745L816.794,718.845C821.516,716.927 826.639,716.202 831.708,716.736L838.989,722.975Z" style="fill:rgb(53,50,62);fill-rule:nonzero;"/>
                </g>
                <g id="Path_1627" transform="matrix(1,0,0,1,-646.527,-622.512)">
                    <path d="M742.52,730.375C743.04,730.196 743.591,730.126 744.14,730.167C744.799,730.296 745.369,730.706 745.7,731.29C745.81,731.524 745.963,731.734 746.153,731.909C746.376,732.045 746.631,732.118 746.892,732.12C748.682,732.183 750.464,732.391 752.22,732.742C753.999,733.108 755.53,734.238 756.404,735.829C756.501,736.014 756.554,736.22 756.56,736.429C756.498,736.866 756.197,737.233 755.78,737.378C754.545,737.916 753.164,737.193 751.845,736.91C750.336,736.702 748.802,736.74 747.305,737.022C745.811,737.196 744.309,737.283 742.805,737.282C741.57,737.292 740.337,737.178 739.125,736.941C738.446,736.798 737.778,736.598 737.091,736.507C736.437,736.436 735.778,736.411 735.12,736.434C732.074,736.469 729.031,736.423 725.992,736.296C725.026,736.308 724.064,736.159 723.147,735.854C722.951,735.796 722.78,735.674 722.663,735.506C722.596,735.375 722.562,735.229 722.563,735.082C722.481,733.61 722.778,732.141 723.426,730.817C723.637,730.383 724.05,729.374 724.518,729.16C724.986,728.946 726.218,729.46 726.741,729.581C730.064,730.419 733.468,730.895 736.893,731C738.787,731.029 740.678,730.819 742.52,730.375Z" style="fill:rgb(219,139,139);fill-rule:nonzero;"/>
                </g>
                <g id="Path_1628" transform="matrix(1,0,0,1,-605.305,-607.281)">
                    <path d="M684.473,713.341L682.46,721.184L670.087,720.875C668.321,720.196 672.773,718.308 670.087,715.989L666.849,708.52C669.154,708.867 671.423,709.423 673.628,710.179C675.004,710.785 676.493,711.091 677.997,711.079C679.501,711.067 683.873,712.587 684.473,713.341Z" style="fill-rule:nonzero;"/>
                </g>
                <g id="Path_1629" transform="matrix(1,0,0,1,-589.936,-608.539)">
                    <path d="M669.1,715.052L667.087,722.885L654.714,722.576C651.608,721.439 648.694,719.833 646.075,717.812L651.475,710.221C653.78,710.568 656.049,711.123 658.254,711.878C659.631,712.481 661.12,712.787 662.623,712.778C664.126,712.769 668.5,714.3 669.1,715.052Z" style="fill:rgb(53,50,62);fill-rule:nonzero;"/>
                </g>
                <g id="Ellipse_746" transform="matrix(0.117884,-0.993027,0.993027,0.117884,77.6964,42.2673)">
                    <ellipse cx="4.369" cy="9.024" rx="4.369" ry="9.024" style="fill:rgb(53,50,62);"/>
                </g>
                <g id="Ellipse_747" transform="matrix(1,0,0,1,84.6682,26.603)">
                    <circle cx="3.162" cy="3.162" r="3.162" style="fill:rgb(53,50,62);"/>
                </g>
                <g id="Path_1630" transform="matrix(1,0,0,1,-671.102,-403.262)">
                    <path d="M755.77,433.028C755.77,433.028 759.736,432.263 761.67,433.548C763.604,434.833 755.77,433.028 755.77,433.028Z" style="fill-rule:nonzero;"/>
                </g>
                <g id="Path_1631" transform="matrix(1,0,0,1,-646.113,-409.491)">
                    <path d="M744.624,449.248C744.624,449.508 744.45,449.812 743.844,449.282C742.315,447.948 738.796,444.432 733.962,444.432C728.922,444.432 724.837,448.039 723.04,449.282C722.431,449.703 722,449.474 722,449.248C722,448.361 727.2,441.22 733.962,441.22C740.724,441.22 744.624,448.361 744.624,449.248Z" style="fill:rgb(82,110,224);fill-rule:nonzero;"/>
                </g>
                <g id="Path_1632" transform="matrix(1,0,0,1,-646.113,-415.67)">
                    <path d="M744.328,454.573C744.25,454.742 744.037,454.815 743.584,454.42C742.055,453.086 738.537,449.57 733.702,449.57C728.662,449.57 724.577,453.177 722.78,454.42C722.652,454.512 722.508,454.582 722.356,454.625C722.184,454.864 722.063,455.137 722,455.425C722,455.651 722.432,455.88 723.04,455.459C724.84,454.216 728.922,450.609 733.962,450.609C738.796,450.609 742.315,454.125 743.844,455.459C744.45,455.979 744.624,455.677 744.624,455.425C744.575,455.126 744.475,454.838 744.328,454.573Z" style="fill-rule:nonzero;"/>
                </g>
                <g id="Rectangle_1371" transform="matrix(1,0,0,1,97.7592,39.722)">
                    <rect x="0" y="0" width="0.85" height="4.813" style="fill:rgb(106,92,153);fill-rule:nonzero;"/>
                </g>
                <g id="Path_1633" transform="matrix(1,0,0,1,-705.125,-441.095)">
                    <path d="M801.75,483.93C803.355,483.93 804.676,485.251 804.676,486.856L804.676,487.046C804.676,488.651 803.355,489.972 801.75,489.972L801.75,483.93Z" style="fill:rgb(108,99,255);fill-rule:nonzero;"/>
                </g>
                <g id="Rectangle_1372" transform="matrix(1,0,0,1,96.0582,42.552)">
                    <path d="M1.321,0.661C1.321,0.296 1.025,0 0.661,0C0.296,0 0,0.296 0,0.661L0,5.944C0,6.309 0.296,6.605 0.661,6.605C1.025,6.605 1.321,6.309 1.321,5.944L1.321,0.661Z" style="fill:rgb(106,92,153);"/>
                </g>
                <g id="Rectangle_1373" transform="matrix(1,0,0,1,75.8892,39.816)">
                    <rect x="0" y="0" width="0.85" height="4.813" style="fill:rgb(106,92,153);fill-rule:nonzero;"/>
                </g>
                <g id="Path_1634" transform="matrix(1,0,0,1,-643.442,-441.361)">
                    <path d="M721.315,490.331C719.71,490.331 718.389,489.01 718.389,487.405L718.389,487.215C718.389,485.61 719.71,484.289 721.315,484.289L721.315,490.331Z" style="fill:rgb(82,110,224);fill-rule:nonzero;"/>
                </g>
                <g id="Rectangle_1374" transform="matrix(1,0,0,1,77.1172,42.648)">
                    <path d="M1.321,0.661C1.321,0.296 1.025,0 0.661,0C0.296,0 0,0.296 0,0.661L0,5.944C0,6.309 0.296,6.605 0.661,6.605C1.025,6.605 1.321,6.309 1.321,5.944L1.321,0.661Z" style="fill:rgb(106,92,153);"/>
                </g>
            </g>
        </g>
    </g>
    <defs>
        <linearGradient id="_Linear2" x1="0" y1="0" x2="1" y2="0" gradientUnits="userSpaceOnUse" gradientTransform="matrix(5.82991e-15,95.2097,-95.2097,5.82991e-15,703.047,283.946)"><stop offset="0" style="stop-color:rgb(128,128,128);stop-opacity:0.25"/><stop offset="0.54" style="stop-color:rgb(128,128,128);stop-opacity:0.12"/><stop offset="1" style="stop-color:rgb(128,128,128);stop-opacity:0.1"/></linearGradient>
    </defs>
</svg>
