<?xml version="1.0" encoding="utf-8"?>
<!-- Generator: Adobe Illustrator 23.0.6, SVG Export Plug-In . SVG Version: 6.00 Build 0)  -->
<svg version="1.1" id="Layer_1" xmlns="http://www.w3.org/2000/svg" xmlns:xlink="http://www.w3.org/1999/xlink" x="0px" y="0px"
	 viewBox="0 0 191.5 191.5" style="enable-background:new 0 0 191.5 191.5;" xml:space="preserve">
<style type="text/css">
	.st0{fill-rule:evenodd;clip-rule:evenodd;fill:#C1C2C2;}
</style>
<path class="st0" d="M95.7,191.5C42.9,191.5,0,148.6,0,95.7S42.9,0,95.7,0s95.7,42.9,95.7,95.7S148.6,191.5,95.7,191.5z M44,123.6
	c0,16.6,12.8,28.6,28.7,28.6c15.9,0,29-12.3,29-28.9c0-16.4-12.9-28.8-28.8-28.8C57,94.5,44.1,107.3,44,123.2
	C44,123.3,44,123.4,44,123.6z M53.3,123.4c0-11.4,8.5-20.6,19.6-20.6c11,0,19.6,9.2,19.6,20.6S83.8,144,72.9,144
	C61.8,144,53.3,134.8,53.3,123.4z M124.5,152.2c12.4,0,19.5-8.3,19.5-16.4c0-8.3-5.3-14.3-15.4-16.3l-7.1-1.4
	c-4.5-0.9-7.1-4.3-7.1-7.5c0-4.3,4.2-8.2,9.7-8.2c6,0,9.8,4.5,10.8,8.5l8.2-2.6c-1.1-6.1-6.4-13.8-19.1-13.8
	c-10.1,0-18.6,7.6-18.6,16.9c0,7.3,5,13.4,14.3,15.3l6.9,1.4c4.7,1,8.3,3.6,8.3,8.2c0,4.7-4.6,7.9-10.2,7.9
	c-6.8,0-11.2-4.2-12.4-10.8l-8.5,2.3C104.5,143.7,111.4,152.2,124.5,152.2L124.5,152.2z M59.5,63v16.8h6.6V63.1
	c0-4.5,2.5-7.5,6.6-7.5c4.6,0,6.4,3.1,6.4,7.4v16.8h6.6V61.3c0-6.8-3.3-12.1-10.8-12.1c-4.6,0-7.5,1.7-10.4,4.9
	c-1.7-3-4.6-4.9-9.2-4.9c-2.3,0-6,0.9-8.9,4.7v-4h-6.5v29.8h6.6V63.2c0-4.5,2.5-7.6,6.5-7.6C57.7,55.6,59.5,58.8,59.5,63z
	 M117.8,79.8v-19c0-2-0.3-3.7-1-5.4c-2-4.3-6.1-6.1-11.2-6.1c-2.2,0-4.3,0.4-6,1.2c-4.1,1.8-6.4,5.6-6.7,8.1l6,1.3
	c0.5-2.8,2.9-4.9,6.5-4.9c3.9,0,5.9,2.2,5.9,4.5c0,1.5-0.8,2.5-2.8,2.5h-3.7c-5.2,0-12.4,2.2-12.4,9.1v0.3c0,5.1,4.2,8.8,10.1,8.8
	c2.8,0,6.6-0.9,8.8-4.6v4.1H117.8z M111.3,67.7c0,4.5-2.9,7.3-7.4,7.3c-2.8,0-4.7-1.6-4.7-4.1c0-2.8,3.2-4.1,5.8-4.1h6.4
	C111.3,66.8,111.3,67.7,111.3,67.7z M140,80.3c8.1,0,12.7-5.2,14.1-9.8l-6.1-2c-0.9,2.3-2.7,5.7-7.9,5.7c-5.1,0-8.8-4-8.8-9.5
	c0-5.6,3.9-9.3,8.8-9.3c5,0,7.1,3.2,7.8,5.6l6-2c-1.3-5-6.4-9.6-13.8-9.6c-8.9,0-15.6,7-15.6,15.5C124.4,73.6,131.2,80.3,140,80.3z"
	/>
</svg>
