<svg xmlns="http://www.w3.org/2000/svg" width="277.695" height="266.782" viewBox="0 0 277.695 266.782"><defs><style>.cls-1{fill:#3f3d56}.cls-2{fill:#fbbebe}.cls-3{fill:#f2f2f2}.cls-4{fill:#526ee0}.cls-5{fill:#fff}.cls-6{fill:#ec5858}.cls-7{fill:url(#linear-gradient)}.cls-10,.cls-8{opacity:.1}.cls-9{fill:#33313f}</style><linearGradient id="linear-gradient" x1=".11" x2="1.11" y1="-.019" y2="-.019" gradientUnits="objectBoundingBox"><stop offset="0" stop-color="#808080" stop-opacity=".251"/><stop offset=".54" stop-color="#808080" stop-opacity=".122"/><stop offset="1" stop-color="#808080" stop-opacity=".102"/></linearGradient></defs><path id="Path_1928" d="M-442.894 656.471a2.172 2.172 0 0 0 .8 2.486 3.54 3.54 0 0 0 1.03.359 5.436 5.436 0 0 0 1.5.2c.62-.029 1.216-.273 1.837-.359a.287.287 0 0 1 .212.029.306.306 0 0 1 .079.251 9.435 9.435 0 0 0 .079 1.055.542.542 0 0 0 .187.405.559.559 0 0 0 .287.05h1.945a18.966 18.966 0 0 0-.556-5.073 1.145 1.145 0 0 0-.144-.359 1.187 1.187 0 0 0-.621-.359 3.469 3.469 0 0 0-1.5-.262 4.4 4.4 0 0 0-1.686.825 2.569 2.569 0 0 1-1.912.463c-.661-.167-1.203-.708-1.537.289z" class="cls-1" transform="translate(692.108 -394.172)"/><path id="Path_1929" d="M-526.579 653.579a5.388 5.388 0 0 1-1.963 1.335l-.33.158a.228.228 0 0 0-.111.09.193.193 0 0 0 .036.161 2.321 2.321 0 0 0 2.633.958 1.4 1.4 0 0 0 .578-.3 1.894 1.894 0 0 0 .445-1.155 2.369 2.369 0 0 0-.054-1.324c-.498-1.125-.681-.615-1.234.077z" class="cls-2" transform="translate(747.242 -392.855)"/><path id="Path_1930" d="M-523.05 658.369a.879.879 0 0 1-.061.4c-.169.33-.639.312-1 .24a24.181 24.181 0 0 0-.441-3.624c-.7-.032-1.2.628-1.571 1.22l-.962 1.525a1.992 1.992 0 0 1-.574.667 1.7 1.7 0 0 1-.621.2 11.764 11.764 0 0 1-5.464-.847 2.893 2.893 0 0 1-.743-.316 1.517 1.517 0 0 1-.359-2.074c.743-1 2.411-.718 3.337-1.55a8.383 8.383 0 0 1-.474 1.711c1.238-.187 2.07-1.32 3.068-2.077a1.882 1.882 0 0 1 .875-.416 1.928 1.928 0 0 1 .718.075 8.42 8.42 0 0 1 3.157 1.554 3.4 3.4 0 0 1 1.13 1.177 8.711 8.711 0 0 1-.015 2.135z" class="cls-1" transform="translate(751.168 -393.225)"/><circle id="Ellipse_847" cx="116" cy="116" r="116" class="cls-3" transform="translate(13.847)"/><path id="Path_1947" d="M0 55.065h277.695v121.267h-277.695z" class="cls-1"/><path id="Path_1915" d="M-989.795 146.667a35.519 35.519 0 0 0-35.519 35.519 35.519 35.519 0 0 0 35.519 35.519 35.519 35.519 0 0 0 35.519-35.519 35.519 35.519 0 0 0-35.519-35.519zm6.368 36.373v16.816h-12.557v-16.816a10.4 10.4 0 0 1-2.016-14.575 10.4 10.4 0 0 1 14.575-2.018 10.4 10.4 0 0 1 2.018 14.575 10.406 10.406 0 0 1-2.02 2.018z" class="cls-4" transform="translate(1065.497 -68.285)"/><path id="Rectangle_1397" d="M125.931 109.24h114.809v12.198h-114.809z" class="cls-5"/><path id="Rectangle_1398" d="M215.985 131.485h24.756v12.198h-24.756z" class="cls-6"/><path id="Path_1916" d="M-764.112 244.678h-2.077l1.848-1.844a.184.184 0 0 0 0-.255.179.179 0 0 0-.254 0l-1.848 1.848v-2.081a.179.179 0 0 0-.179-.179.183.183 0 0 0-.179.179v2.081l-1.844-1.858a.18.18 0 0 0-.254 0 .183.183 0 0 0 0 .255l1.848 1.844h-2.081a.183.183 0 0 0-.179.179.179.179 0 0 0 .179.179h2.081l-1.848 1.848a.183.183 0 0 0 0 .255.186.186 0 0 0 .255 0l1.844-1.848v2.077a.179.179 0 0 0 .179.179.179.179 0 0 0 .179-.179v-2.077l1.848 1.848a.186.186 0 0 0 .255 0 .184.184 0 0 0 0-.255l-1.848-1.848h2.077a.179.179 0 0 0 .179-.179.179.179 0 0 0-.181-.169z" class="cls-6" transform="translate(901.345 -129.522)"/><path id="Path_1917" d="M-743.112 244.678h-2.077l1.848-1.844a.184.184 0 0 0 0-.255.179.179 0 0 0-.254 0l-1.848 1.848v-2.081a.179.179 0 0 0-.179-.179.183.183 0 0 0-.179.179v2.081l-1.844-1.858a.18.18 0 0 0-.254 0 .183.183 0 0 0 0 .255l1.848 1.844h-2.081a.183.183 0 0 0-.179.179.179.179 0 0 0 .179.179h2.081l-1.848 1.848a.183.183 0 0 0 0 .255.186.186 0 0 0 .255 0l1.844-1.848v2.077a.179.179 0 0 0 .179.179.179.179 0 0 0 .179-.179v-2.077l1.848 1.848a.186.186 0 0 0 .255 0 .184.184 0 0 0 0-.255l-1.848-1.848h2.077a.179.179 0 0 0 .179-.179.179.179 0 0 0-.181-.169z" class="cls-6" transform="translate(887.879 -129.522)"/><path id="Path_1918" d="M-722.112 244.678h-2.077l1.848-1.844a.184.184 0 0 0 0-.255.179.179 0 0 0-.254 0l-1.848 1.848v-2.081a.179.179 0 0 0-.179-.179.183.183 0 0 0-.179.179v2.081l-1.844-1.858a.18.18 0 0 0-.254 0 .183.183 0 0 0 0 .255l1.848 1.844h-2.081a.183.183 0 0 0-.179.179.179.179 0 0 0 .179.179h2.081l-1.848 1.848a.183.183 0 0 0 0 .255.186.186 0 0 0 .255 0l1.844-1.848v2.077a.179.179 0 0 0 .179.179.179.179 0 0 0 .179-.179v-2.077l1.848 1.848a.186.186 0 0 0 .255 0 .184.184 0 0 0 0-.255l-1.848-1.848h2.077a.179.179 0 0 0 .179-.179.179.179 0 0 0-.181-.169z" class="cls-6" transform="translate(874.413 -129.522)"/><path id="Path_1919" d="M-701.112 244.678h-2.077l1.848-1.844a.184.184 0 0 0 0-.255.179.179 0 0 0-.254 0l-1.848 1.848v-2.081a.179.179 0 0 0-.179-.179.183.183 0 0 0-.179.179v2.081l-1.844-1.858a.18.18 0 0 0-.254 0 .183.183 0 0 0 0 .255l1.848 1.844h-2.081a.183.183 0 0 0-.179.179.179.179 0 0 0 .179.179h2.081l-1.848 1.848a.183.183 0 0 0 0 .255.186.186 0 0 0 .255 0l1.844-1.848v2.077a.179.179 0 0 0 .179.179.179.179 0 0 0 .179-.179v-2.077l1.848 1.848a.186.186 0 0 0 .255 0 .184.184 0 0 0 0-.255l-1.848-1.848h2.077a.179.179 0 0 0 .179-.179.179.179 0 0 0-.181-.169z" class="cls-6" transform="translate(860.948 -129.522)"/><path id="Path_1920" d="M-680.112 244.678h-2.077l1.848-1.844a.184.184 0 0 0 0-.255.179.179 0 0 0-.254 0l-1.848 1.848v-2.081a.179.179 0 0 0-.179-.179.183.183 0 0 0-.179.179v2.081l-1.844-1.858a.18.18 0 0 0-.254 0 .183.183 0 0 0 0 .255l1.848 1.844h-2.081a.183.183 0 0 0-.179.179.179.179 0 0 0 .179.179h2.081l-1.848 1.848a.183.183 0 0 0 0 .255.186.186 0 0 0 .255 0l1.844-1.848v2.077a.179.179 0 0 0 .179.179.179.179 0 0 0 .179-.179v-2.077l1.848 1.848a.186.186 0 0 0 .255 0 .184.184 0 0 0 0-.255l-1.848-1.848h2.077a.179.179 0 0 0 .179-.179.179.179 0 0 0-.181-.169z" class="cls-6" transform="translate(847.482 -129.522)"/><path id="Path_1921" d="M-659.112 244.678h-2.077l1.848-1.844a.184.184 0 0 0 0-.255.179.179 0 0 0-.254 0l-1.848 1.848v-2.081a.179.179 0 0 0-.179-.179.183.183 0 0 0-.179.179v2.081l-1.844-1.858a.18.18 0 0 0-.254 0 .183.183 0 0 0 0 .255l1.848 1.844h-2.081a.183.183 0 0 0-.179.179.179.179 0 0 0 .179.179h2.081l-1.848 1.848a.183.183 0 0 0 0 .255.186.186 0 0 0 .255 0l1.844-1.848v2.077a.179.179 0 0 0 .179.179.179.179 0 0 0 .179-.179v-2.077l1.848 1.848a.186.186 0 0 0 .255 0 .184.184 0 0 0 0-.255l-1.848-1.848h2.077a.179.179 0 0 0 .179-.179.179.179 0 0 0-.181-.169z" class="cls-6" transform="translate(834.016 -129.522)"/><path id="Path_1922" d="M-638.112 244.678h-2.077l1.848-1.844a.183.183 0 0 0 0-.255.179.179 0 0 0-.254 0l-1.848 1.848v-2.081a.179.179 0 0 0-.179-.179.183.183 0 0 0-.179.179v2.081l-1.844-1.858a.18.18 0 0 0-.254 0 .183.183 0 0 0 0 .255l1.848 1.844h-2.081a.183.183 0 0 0-.179.179.179.179 0 0 0 .179.179h2.081l-1.848 1.848a.183.183 0 0 0 0 .255.186.186 0 0 0 .255 0l1.844-1.848v2.077a.179.179 0 0 0 .179.179.179.179 0 0 0 .179-.179v-2.077l1.848 1.848a.186.186 0 0 0 .255 0 .183.183 0 0 0 0-.255l-1.848-1.848h2.077a.179.179 0 0 0 .179-.179.179.179 0 0 0-.181-.169z" class="cls-6" transform="translate(820.551 -129.522)"/><path id="Path_1923" d="M-617.112 244.678h-2.077l1.848-1.844a.184.184 0 0 0 0-.255.179.179 0 0 0-.254 0l-1.848 1.848v-2.081a.179.179 0 0 0-.179-.179.183.183 0 0 0-.179.179v2.081l-1.844-1.858a.18.18 0 0 0-.254 0 .183.183 0 0 0 0 .255l1.848 1.844h-2.081a.183.183 0 0 0-.179.179.179.179 0 0 0 .179.179h2.081l-1.848 1.848a.183.183 0 0 0 0 .255.186.186 0 0 0 .255 0l1.844-1.848v2.077a.179.179 0 0 0 .179.179.179.179 0 0 0 .179-.179v-2.077l1.848 1.848a.186.186 0 0 0 .255 0 .184.184 0 0 0 0-.255l-1.848-1.848h2.077a.179.179 0 0 0 .179-.179.179.179 0 0 0-.181-.169z" class="cls-6" transform="translate(807.085 -129.522)"/><path id="Path_1924" d="M-596.112 244.678h-2.077l1.848-1.844a.184.184 0 0 0 0-.255.179.179 0 0 0-.254 0l-1.848 1.848v-2.081a.179.179 0 0 0-.179-.179.183.183 0 0 0-.179.179v2.081l-1.844-1.858a.18.18 0 0 0-.254 0 .183.183 0 0 0 0 .255l1.848 1.844h-2.081a.183.183 0 0 0-.179.179.179.179 0 0 0 .179.179h2.081l-1.848 1.848a.183.183 0 0 0 0 .255.186.186 0 0 0 .255 0l1.844-1.848v2.077a.179.179 0 0 0 .179.179.179.179 0 0 0 .179-.179v-2.077l1.848 1.848a.186.186 0 0 0 .255 0 .184.184 0 0 0 0-.255l-1.848-1.848h2.077a.179.179 0 0 0 .179-.179.179.179 0 0 0-.181-.169z" class="cls-6" transform="translate(793.619 -129.522)"/><path id="Path_1925" d="M-575.112 244.678h-2.077l1.848-1.844a.183.183 0 0 0 0-.255.179.179 0 0 0-.254 0l-1.848 1.848v-2.081a.179.179 0 0 0-.179-.179.183.183 0 0 0-.179.179v2.081l-1.844-1.858a.18.18 0 0 0-.254 0 .183.183 0 0 0 0 .255l1.848 1.844h-2.081a.183.183 0 0 0-.179.179.179.179 0 0 0 .179.179h2.081l-1.848 1.848a.183.183 0 0 0 0 .255.186.186 0 0 0 .255 0l1.844-1.848v2.077a.179.179 0 0 0 .179.179.179.179 0 0 0 .179-.179v-2.077l1.848 1.848a.186.186 0 0 0 .255 0 .183.183 0 0 0 0-.255l-1.848-1.848h2.077a.179.179 0 0 0 .179-.179.179.179 0 0 0-.181-.169z" class="cls-6" transform="translate(780.154 -129.522)"/><path id="Path_1926" d="M-554.112 244.678h-2.077l1.848-1.844a.184.184 0 0 0 0-.255.179.179 0 0 0-.254 0l-1.848 1.848v-2.081a.179.179 0 0 0-.179-.179.183.183 0 0 0-.179.179v2.081l-1.844-1.858a.18.18 0 0 0-.254 0 .183.183 0 0 0 0 .255l1.848 1.844h-2.081a.183.183 0 0 0-.179.179.179.179 0 0 0 .179.179h2.081l-1.848 1.848a.183.183 0 0 0 0 .255.186.186 0 0 0 .255 0l1.844-1.848v2.077a.179.179 0 0 0 .179.179.179.179 0 0 0 .179-.179v-2.077l1.848 1.848a.186.186 0 0 0 .255 0 .184.184 0 0 0 0-.255l-1.848-1.848h2.077a.179.179 0 0 0 .179-.179.179.179 0 0 0-.181-.169z" class="cls-6" transform="translate(766.688 -129.522)"/><path id="Path_1927" d="M-481.178 316.842a6.458 6.458 0 0 0-.161-1.288c-.323-1.213-1.051-2.68-2.25-3.046a18.871 18.871 0 0 1-3.566-1.508c-.215-3.846.667-7.782-.294-11.51a29.285 29.285 0 0 1-1.109-4.065c-.2-1.737.277-3.588-.416-5.188a5.12 5.12 0 0 0-3.032-2.619 16.161 16.161 0 0 0-4.044-.718c-1.722-.14-7.3-.8-9.242.739a2.047 2.047 0 0 0-.359.359 1.511 1.511 0 0 0-.115.187l-.018.029a1.511 1.511 0 0 0-.1.233 1.857 1.857 0 0 0-.061.269v.646c.025.323.072.646.072.965a2.079 2.079 0 0 1-.043.474 3.325 3.325 0 0 1-.6 1.162l-.065.093-.115.169-.093.151-.083.129a1.686 1.686 0 0 0-.093.183l-.054.1a1.724 1.724 0 0 0-.108.3 2 2 0 0 0-.022.954 3.543 3.543 0 0 0 .492 1.13l.287.434.251.341a7.778 7.778 0 0 0-.076 1 7.423 7.423 0 0 0 2.835 5.834 21.993 21.993 0 0 1-.047 4.553 30.812 30.812 0 0 1-.234 1.737 3.644 3.644 0 0 1-1.568-.118 7.4 7.4 0 0 0-.718-.276c-1.044-.262-2.11.779-3.143.463a.421.421 0 0 1-.047.144 1.4 1.4 0 0 0-.718-.212 2.618 2.618 0 0 1-1.557-.893l-1.367-1.288a1.53 1.53 0 0 1-.237-.266 1.881 1.881 0 0 1-.165-.441 5.084 5.084 0 0 0-1.324-1.9.893.893 0 0 0-.391-.283.6.6 0 0 0-.179 0 1.5 1.5 0 0 0-.118-.144 3.319 3.319 0 0 0-.3-.3c-.653-.6-.718-1.119-1.284-1.794a17.269 17.269 0 0 1-1.342-2.027 15.589 15.589 0 0 0-.19-1.155 14.844 14.844 0 0 0-.786-2.619l-.718-1.589-.083.083c-.52-.775-1.076-1.2-1.575-1.1-.836.172-1.249 1.794-1.116 3.914l.287 2.153a.664.664 0 0 0 .039.161 3.984 3.984 0 0 0-.079.775c0 .3.28.524.427.793a2.238 2.238 0 0 1 .359 1.223l-.072.452a1.742 1.742 0 0 0 .337.933l1.794 3.014.359.631.021.029a1.538 1.538 0 0 0 .481.553 6.581 6.581 0 0 0 .592 2.178l.2.395a12.715 12.715 0 0 0 1.693 2.2l.854.958c.843.94 1.686 1.884 2.6 2.752a3.489 3.489 0 0 0 1.162.814 1.316 1.316 0 0 0 1.306-.19v1.335a.75.75 0 0 1 .7.794.752.752 0 0 1-.136.386 29.592 29.592 0 0 1-2.655 5.618 11.934 11.934 0 0 1 2.224 1.7 9.964 9.964 0 0 1 1.159 1.568c.032.266.057.527.072.789.265 4.277-1.388 8.521-2.87 12.6a9.814 9.814 0 0 0-.857 3.566 7.012 7.012 0 0 0-.8.578 5.321 5.321 0 0 1 .147 2.275 4.026 4.026 0 0 1-.3 1.435 10.02 10.02 0 0 1-.517.922 13.691 13.691 0 0 0-1.32 5.461c-.111 1.13.326 2.511-.187 3.523a14.412 14.412 0 0 0-1.794 5.518 5.534 5.534 0 0 1-.165 1.288l-.409 1.015a4.344 4.344 0 0 0-.072 1.435 13.731 13.731 0 0 1-.753 5.062 6.883 6.883 0 0 0-.592 3.968 5.6 5.6 0 0 0-1.518 3.333 5.264 5.264 0 0 1-.115.951 4.619 4.619 0 0 1-.43.915 8.009 8.009 0 0 0-.976 4.305 11.976 11.976 0 0 0-1.934 5.052c-.319 1.79-.459 3.613-.868 5.382-.545 2.339-1.532 4.7-1.726 7.1a5 5 0 0 0-1.887 3.541 15.762 15.762 0 0 1-.829 4.043c-.294.653-.718 1.238-1 1.905a8.738 8.738 0 0 0-.431 1.64 6.4 6.4 0 0 0-.111 2.691 4.064 4.064 0 0 1-1.051.8c.057-.222.1-.445.144-.671-.926.84-2.6.545-3.344 1.554a1.514 1.514 0 0 0 .359 2.077 2.891 2.891 0 0 0 .743.319 11.866 11.866 0 0 0 5.482.847 1.641 1.641 0 0 0 .621-.2 2 2 0 0 0 .578-.667l.825-1.313a17.118 17.118 0 0 0 2.013.47c.068.574.118 1.148.144 1.722.359.072.839.093 1.008-.24a.869.869 0 0 0 .061-.4c0-.255.036-.592.057-.936h.072a6.818 6.818 0 0 0 3.175-.642c-.384-3.179.883-6.286 1.98-9.292 1.159-3.164 2.153-6.386 3.154-9.608.718-2.267 1.51-4.463 2.214-6.734q1.328-4.305 2.666-8.611a92.757 92.757 0 0 1 1.223-3.767 58.66 58.66 0 0 1 3.326-7.4c.359-.678.718-1.349 1.012-2.052.359-.857.614-1.754.9-2.641a40.945 40.945 0 0 1 2.253-5.3l.068-.133c.291 1.188.581 2.393.775 3.588a13.636 13.636 0 0 1 .061 4.435 14.62 14.62 0 0 0-.459 3.007c.054 1.4.8 2.676 1.173 4.029a15.336 15.336 0 0 1 .4 3.086c.1 1.615.976 3.426.359 4.922-1.919 4.74-.99 10.092-2.085 15.069-.563 2.555-2.289 4.955-2.153 7.567q.144 2.78.488 5.547a5.275 5.275 0 0 0 .449 1.683 6.192 6.192 0 0 0 .492.8c-.158.061-.291.222-.405.563a2.214 2.214 0 0 0 .8 2.511 3.481 3.481 0 0 0 1.037.359 5.461 5.461 0 0 0 1.5.208 3.52 3.52 0 0 0 .47-.057 17.115 17.115 0 0 0 1.7.61 3.758 3.758 0 0 0 .047.441.549.549 0 0 0 .187.405.56.56 0 0 0 .287.05h1.948v-.488a1.6 1.6 0 0 0 1.238-.4 1.922 1.922 0 0 0 .359-.746q.8-2.7 1.582-5.407a17.283 17.283 0 0 0 .772-6.171c-.692-6.612.829-13.246.333-19.876a47.61 47.61 0 0 1 .61-11.926c.161-.89.359-1.794.431-2.68.158-1.672-.036-3.362.082-5.023.039-.581.118-1.159.19-1.736a83.412 83.412 0 0 0 .771-10.817 34.163 34.163 0 0 0-.222-3.588 2.052 2.052 0 0 0 .979-.574 2.44 2.44 0 0 0 .233-1.532 11.107 11.107 0 0 1 .965-3.667 43.6 43.6 0 0 0 1.356-5.044 17.621 17.621 0 0 0 .6-4.216l-.022-.431a1.116 1.116 0 0 0 .33-.359 2.087 2.087 0 0 0 .172-.664l.391-2.752.283-1.97 1.141-7.961c.1-.692.2-1.381.294-2.07l.3-2.059.093-.718c.893-1.46.057-3.412-.036-5.076zm-9.518 29.807a6.558 6.558 0 0 1-.718-3.118h-.039a1.6 1.6 0 0 0-.047-1.012c-.111-.262-.3-.484-.423-.746a2.729 2.729 0 0 1-.194-1 27.359 27.359 0 0 1 .513-6.508l.143-.757a1.875 1.875 0 0 0 .409-.319 2.922 2.922 0 0 0 .463-.718 35.24 35.24 0 0 0 1.116-2.486c.111-.273.273-.588.549-.657-.057 2.1.158 4.241-.7 6.135a3.857 3.857 0 0 0-.359.969l.065 1.607-.2.8a.785.785 0 0 0 .208.761.62.62 0 0 0 .154.079 9.754 9.754 0 0 0-.054.431l-.061.743a23.008 23.008 0 0 0-.1 2.641c0 .951.036 1.9.022 2.87a1.95 1.95 0 0 1-.136.814 1.423 1.423 0 0 1-.273.359 9.347 9.347 0 0 0-.341-.886z" class="cls-7" transform="translate(751.514 -158.04)"/><ellipse id="Ellipse_871" cx="2.024" cy="5.73" class="cls-2" rx="2.024" ry="5.73" transform="rotate(-11.58 785.508 -1057.236)"/><circle id="Ellipse_872" cx="7.412" cy="7.412" r="7.412" class="cls-2" transform="translate(245.386 131.944)"/><path id="Path_1931" d="M-405.741 434.422a17.608 17.608 0 0 1-.6 4.194 43.33 43.33 0 0 1-1.357 5.023 11.055 11.055 0 0 0-.958 3.66 2.434 2.434 0 0 1-.237 1.528 2.234 2.234 0 0 1-1.048.6 1.308 1.308 0 0 0-.883.786 5.539 5.539 0 0 1-.746-1.643q-.965-2.957-1.794-5.945a.77.77 0 0 1 .05-.718.879.879 0 0 1 .312-.176 3.237 3.237 0 0 0 .994-.639 1.461 1.461 0 0 0 .33-.427 1.942 1.942 0 0 0 .14-.811c0-.951 0-1.9-.025-2.849a23.737 23.737 0 0 1 .1-2.63c0-.172.032-.448.061-.743.054-.563.161-1.216.466-1.435.456-.3 1.819.1 2.336.176.89.122 1.794.266 2.662.434a7.131 7.131 0 0 1 .197 1.615z" class="cls-1" transform="translate(673.142 -251.302)"/><path id="Path_1932" d="M-489.932 326.476c-.287.574-.976.85-1.507 1.213l-1.819 1.249a1.214 1.214 0 0 1-.9.309 1.184 1.184 0 0 1-.671-.628.129.129 0 0 0 0-.029l-.377-.631-1.794-3.008a1.71 1.71 0 0 1-.334-.926l.068-.452a2.172 2.172 0 0 0-.359-1.22c-.143-.269-.431-.492-.423-.793a2.863 2.863 0 0 1 .2-1.159 2.342 2.342 0 0 1 .786-.84l.52-.359a1.011 1.011 0 0 1 .312-.144c.3-.061.592.187.893.2 1.3.868 1.794 2.511 2.813 3.7.574.674.631 1.191 1.281 1.794l.3.3a2.1 2.1 0 0 1 .323.466c.12.301.835.663.688.958z" class="cls-1" transform="translate(727.404 -178.821)"/><path id="Path_1933" d="M-445.936 327.538a6.679 6.679 0 0 1 .8 3.613 2.26 2.26 0 0 1-.312.951 3.073 3.073 0 0 1-2.544.983 1.5 1.5 0 0 0-1.105.359 1 1 0 0 0 .068 1.227 2.773 2.773 0 0 0 1.1.718 9.721 9.721 0 0 0 4.725 1.048c.753-.072 1.485-.291 2.235-.4a23.407 23.407 0 0 1 2.461-.136c.976-.036 1.948-.133 2.92-.23l2.576-.255a.574.574 0 0 0 .384-.14c.19-.222-.054-.549-.291-.718-1.367-1.012-3.107-1.708-3.886-3.229a19 19 0 0 1-.736-2.346 19.717 19.717 0 0 1-.854-2.264 15.048 15.048 0 0 1-.118-2.088 2.8 2.8 0 0 0-.718-1.909 2.991 2.991 0 0 0-1.952-.628 6.318 6.318 0 0 0-4.757 1.543c-.326.326-.606.718-.944 1.012s-.8.38-.574.768.66.628.9.969a8.233 8.233 0 0 1 .622 1.152z" class="cls-2" transform="translate(696.13 -180.766)"/><path id="Path_1934" d="M-445.206 349.893a40.768 40.768 0 0 1-2.2 8.083 30.368 30.368 0 0 0-1.292 3.624c-.276 1.112-.222 2.3-.477 3.419-.316 1.388-.631 2.781-.886 4.18a27.39 27.39 0 0 0-.509 6.494 2.711 2.711 0 0 0 .194 1c.118.258.308.481.419.746a1.793 1.793 0 0 1-.1 1.435 4.147 4.147 0 0 1-.739 1.119c-3.344 1-6.921.671-10.4.883-3.211.194-6.458.854-9.622.3-.359-1.435.24-2.938.753-4.338 1.489-4.065 3.136-8.3 2.87-12.557a12.916 12.916 0 0 0-.169-1.482 19.642 19.642 0 0 1 .954-9.066 15.56 15.56 0 0 0 .409-5.662 10.369 10.369 0 0 1-.025-1.855 3.261 3.261 0 0 1 .675-1.733l.05-.075a.492.492 0 0 1 .269 0 .229.229 0 0 0 .179 0l.039-.025a.09.09 0 0 1 .1 0c.083.05.129.222.309.255a7.215 7.215 0 0 0 .8.075 4.285 4.285 0 0 1 .954.136h.043a2.8 2.8 0 0 0 1.392-.118 3.7 3.7 0 0 0 .854-.33c.079-.086.574-.165.674-.226.326-.2.255-1.123.323-1.5a4.139 4.139 0 0 1 .269-1.112 1.9 1.9 0 0 1 1.536-.893 8.169 8.169 0 0 1 1.841.165c1.338.19 2.709.158 4.022.466a3 3 0 0 0 1.988.086c.165.039.19.183.19.359a2.3 2.3 0 0 1-.1.492c-.23.99.549 1.9 1.266 2.619a4.065 4.065 0 0 0 1.058.843c.359.165.718.233 1.076.413a1.956 1.956 0 0 1 .718.657 2.735 2.735 0 0 1 .409 1.044 6.24 6.24 0 0 1-.114 2.079z" class="cls-1" transform="translate(710.014 -192.684)"/><path id="Path_1935" d="M-439.171 356.509a40.773 40.773 0 0 1-2.2 8.083 30.364 30.364 0 0 0-1.292 3.624c-.276 1.112-.222 2.3-.477 3.419-.316 1.388-.631 2.781-.886 4.18a2.825 2.825 0 0 1-.233.118 5.514 5.514 0 0 1-1.406.452 8.61 8.61 0 0 1-2.626-.086l-5.12-.685c-2.045-.276-4.223-.61-5.74-1.995a12.246 12.246 0 0 1-2-2.734 13.084 13.084 0 0 0-.169-1.482 19.642 19.642 0 0 1 .954-9.066 15.561 15.561 0 0 0 .409-5.662 10.3 10.3 0 0 1-.025-1.855 3.257 3.257 0 0 1 .675-1.733 2.491 2.491 0 0 1 .319-.072 1.548 1.548 0 0 1 .219-.029h.1a1.553 1.553 0 0 1 .359.043 6.5 6.5 0 0 1 .718.276h.043a2.75 2.75 0 0 0 .954.136c.474 0 .961-.075 1.435-.108a2.647 2.647 0 0 1 1.7.3 10.14 10.14 0 0 1 .947.865 4.068 4.068 0 0 0 1.2.649 12.7 12.7 0 0 0 9.55-.2 1.871 1.871 0 0 1 .958-.244 1.788 1.788 0 0 1 .689.294c.215.126.427.248.646.359a2.736 2.736 0 0 1 .409 1.044 6.238 6.238 0 0 1-.11 2.109z" class="cls-8" transform="translate(703.979 -199.3)"/><path id="Path_1936" d="M-441.584 352.9a19.148 19.148 0 0 1-4.09-1.794 1.831 1.831 0 0 0-.689-.294 1.925 1.925 0 0 0-.962.244 12.691 12.691 0 0 1-9.547.2 4.151 4.151 0 0 1-1.195-.649 10.755 10.755 0 0 0-.947-.865c-1.18-.764-2.813.133-4.133-.359a7.26 7.26 0 0 0-.718-.276c-1.044-.262-2.106.779-3.132.463a17.424 17.424 0 0 0-.843 3.2 34.821 34.821 0 0 0-.233 3.774c0 .757-.036 1.514 0 2.271a.925.925 0 0 1 .624.405.92.92 0 0 1-.057.771 29.409 29.409 0 0 1-2.648 5.6 12.176 12.176 0 0 1 2.217 1.693c1.256 1.327 1.873 3.19 3.229 4.417 1.528 1.381 3.706 1.719 5.74 1.991l5.12.685a8.761 8.761 0 0 0 2.63.09 5.534 5.534 0 0 0 1.4-.456 2.519 2.519 0 0 0 .782-.517 2.879 2.879 0 0 0 .463-.718c.405-.811.775-1.64 1.116-2.479.118-.3.3-.646.62-.671l5.6-5.188a12.4 12.4 0 0 0 2.041-2.153c.944-1.4.086-3.373 0-5.059a6.365 6.365 0 0 0-.161-1.281c-.308-1.216-1.033-2.68-2.227-3.045z" class="cls-4" transform="translate(709.517 -198.069)"/><path id="Path_1937" d="M-484.182 337.071c-.287.574-.976.85-1.507 1.213l-1.819 1.249a1.214 1.214 0 0 1-.9.309 1.184 1.184 0 0 1-.671-.628v-.258a2.4 2.4 0 0 1 .115-.857 2.669 2.669 0 0 1 .8-1.033 6.575 6.575 0 0 1 2.357-1.435.805.805 0 0 1 .431-.043.571.571 0 0 1 .158.068 2.1 2.1 0 0 1 .323.466c.146.292.86.655.713.949z" class="cls-8" transform="translate(721.654 -189.416)"/><path id="Path_1938" d="M-479.1 341.267a2.613 2.613 0 0 1-1.553-.89l-1.36-1.263a1.272 1.272 0 0 1-.237-.266 1.849 1.849 0 0 1-.165-.441 5.064 5.064 0 0 0-1.32-1.894.862.862 0 0 0-.391-.28.785.785 0 0 0-.434.043 6.562 6.562 0 0 0-2.357 1.435 2.678 2.678 0 0 0-.8 1.033 2.387 2.387 0 0 0-.115.857 6.585 6.585 0 0 0 .625 2.741l.2.395a12.414 12.414 0 0 0 1.686 2.192l.854.954c.84.94 1.679 1.88 2.59 2.745a3.421 3.421 0 0 0 1.162.811 1.3 1.3 0 0 0 1.334-.215 1.926 1.926 0 0 0 .38-.682 13.428 13.428 0 0 0 1.109-4.474 16.933 16.933 0 0 0-.079-1.855c-.06-.652-.522-.906-1.129-.946z" class="cls-4" transform="translate(720.859 -189.831)"/><path id="Path_1939" d="M-479.857 460.739a82.9 82.9 0 0 1-.768 10.788c-.072.578-.151 1.155-.19 1.733-.118 1.676.075 3.358-.083 5.023-.083.9-.269 1.794-.427 2.673a47.506 47.506 0 0 0-.61 11.894c.5 6.612-1.022 13.228-.334 19.823a16.048 16.048 0 0 1-.212 3.835 16.281 16.281 0 0 1-.556 2.318q-.786 2.695-1.579 5.382a1.866 1.866 0 0 1-.359.746 1.7 1.7 0 0 1-1.345.4 15.52 15.52 0 0 1-5.9-1.83 2.062 2.062 0 0 1-.592-.359c-.391-.405-.359-1.044-.531-1.579a14.974 14.974 0 0 0-.9-1.586 5.186 5.186 0 0 1-.391-1.632q-.358-2.755-.488-5.532c-.136-2.6 1.586-5 2.153-7.534 1.076-4.98.165-10.318 2.077-15.044.6-1.493-.273-3.3-.359-4.908a15.532 15.532 0 0 0-.4-3.078c-.359-1.349-1.116-2.619-1.17-4.018a14.762 14.762 0 0 1 .456-3 13.452 13.452 0 0 0-.061-4.424c-.19-1.206-.481-2.411-.771-3.588l-.065.133a40.6 40.6 0 0 0-2.25 5.292c-.287.879-.538 1.776-.9 2.63-.294.718-.657 1.374-1.012 2.049a58.858 58.858 0 0 0-3.318 7.373c-.445 1.241-.836 2.511-1.223 3.756l-2.659 8.611c-.718 2.264-1.5 4.452-2.207 6.713-.994 3.229-1.988 6.429-3.143 9.587-1.076 3-2.357 6.1-1.973 9.264a6.817 6.817 0 0 1-3.168.642 18.551 18.551 0 0 1-5.382-1.306 4.184 4.184 0 0 1-1.859-1.105c-.8-.972-.6-2.4-.359-3.634a8.771 8.771 0 0 1 .431-1.636c.273-.66.718-1.245 1-1.9a15.922 15.922 0 0 0 .822-4.029 4.972 4.972 0 0 1 1.88-3.534c.2-2.389 1.18-4.747 1.722-7.082.409-1.769.545-3.588.868-5.382a11.816 11.816 0 0 1 1.927-5.041 7.986 7.986 0 0 1 .976-4.305 4.75 4.75 0 0 0 .427-.915 5.285 5.285 0 0 0 .115-.947 5.6 5.6 0 0 1 1.514-3.326 6.748 6.748 0 0 1 .588-3.947 13.7 13.7 0 0 0 .753-5.048 4.433 4.433 0 0 1 .068-1.435c.1-.359.3-.664.413-1.008a5.73 5.73 0 0 0 .162-1.288 14.9 14.9 0 0 1 1.794-5.5c.517-1.012.079-2.386.187-3.512a13.577 13.577 0 0 1 1.32-5.443c.172-.309.359-.6.513-.922a4 4 0 0 0 .3-1.435 5.284 5.284 0 0 0-.147-2.267c1.919-1.6 4.539-2.045 7.036-2.153s5.023.118 7.466-.413c.718-.161 1.435-.384 2.192-.492a14.181 14.181 0 0 1 5.159.527 6.146 6.146 0 0 0 .718 3.111 33.4 33.4 0 0 1 2.654 12.814z" class="cls-9" transform="translate(743.354 -259.073)"/><path id="Path_1940" d="M255.044 202.487l-4.122 9.271c-.19-1.206-.481-2.411-.771-3.588l-.065.133v-.193l2.246-4.94z" class="cls-8"/><path id="Path_1941" d="M-402.161 434.422a1.551 1.551 0 0 1-.818.3 3.98 3.98 0 0 1-1.342-.183l-3.229-.807a1.6 1.6 0 0 1-.294-.1c.054-.563.161-1.216.466-1.435.456-.3 1.819.1 2.336.176.89.122 1.794.266 2.662.434a7.123 7.123 0 0 1 .219 1.615z" class="cls-8" transform="translate(669.562 -251.302)"/><path id="Path_1942" d="M-400.029 377.05c.068.3.165.592.222.893a6.818 6.818 0 0 1-.075 2.221l-.294 2.052-.294 2.063-1.137 7.94-.28 1.966-.395 2.745a1.981 1.981 0 0 1-.172.66 1.375 1.375 0 0 1-1.123.664 4.066 4.066 0 0 1-1.342-.183l-3.229-.811a1.011 1.011 0 0 1-.395-.161.778.778 0 0 1-.208-.757c.047-.273.165-.527.2-.8l-.065-1.6a3.967 3.967 0 0 1 .359-.965c1.076-2.379.452-5.156.818-7.739a11.729 11.729 0 0 1 2.49-5.54 15.888 15.888 0 0 1 2.749-2.698 5.53 5.53 0 0 1 1.546-1.076c.654-.14.517.676.625 1.126z" class="cls-4" transform="translate(670.161 -215.277)"/><path id="Path_1943" d="M-458.487 289.7c-.237.753.133 1.582-.036 2.35-.183.847-.979 1.435-1.205 2.285-.359 1.3.739 2.476 1.543 3.552 2.978 4 2.587 9.529 1.568 14.4a74.452 74.452 0 0 1-3.39 11.481 8.8 8.8 0 0 1-1.826 3.2 9.444 9.444 0 0 1 5.059-.492c2.1.581 3.9 2.615 6.027 2.153 1.277-.283 2.174-1.417 3.322-2.045 2.153-1.159 4.747-.431 7.147-.057a2.8 2.8 0 0 0 1.56-.079 2.592 2.592 0 0 0 .948-.872 8.851 8.851 0 0 0 1.844-4.772 6.121 6.121 0 0 0-1.762-4.711 10.075 10.075 0 0 1-1.51-1.435 4.453 4.453 0 0 1-.592-2.174c-.283-3.947.678-7.976-.312-11.793a29.107 29.107 0 0 1-1.1-4.054c-.2-1.733.273-3.588-.416-5.174a5.075 5.075 0 0 0-3.025-2.612 16.57 16.57 0 0 0-4.033-.718c-1.968-.153-8.989-.996-9.811 1.567z" class="cls-9" transform="translate(704.182 -158.834)"/><g id="Group_3605" class="cls-10"><path id="Path_1944" d="M-453.321 321.827a74.26 74.26 0 0 1-3.373 11.434 16.57 16.57 0 0 0 .653-1.521 74.019 74.019 0 0 0 3.39-11.481c1.023-4.879 1.414-10.4-1.564-14.4-.718-.954-1.64-1.988-1.607-3.107a3.813 3.813 0 0 0-.61 1.127c-.359 1.3.739 2.476 1.543 3.552 2.978 3.988 2.589 9.52 1.568 14.396z" transform="translate(242.348 130.046) translate(458.538 -298.413)"/><path id="Path_1945" d="M-452.652 293.476a3.5 3.5 0 0 0 .631-1.209 6.157 6.157 0 0 0-.043-1.6 1.723 1.723 0 0 0-.6.822 7.1 7.1 0 0 0 .012 1.987z" transform="translate(242.348 130.046) translate(456.007 -290.667)"/><path id="Path_1946" d="M-437.1 386.326a2.59 2.59 0 0 1-.947.868 2.742 2.742 0 0 1-1.561.079c-2.4-.359-5.023-1.1-7.147.061-1.152.624-2.045 1.758-3.326 2.045-2.12.474-3.929-1.561-6.024-2.153a8.41 8.41 0 0 0-4.546.359 6.28 6.28 0 0 1-1.188 1.715 9.443 9.443 0 0 1 5.059-.492c2.1.581 3.9 2.616 6.027 2.153 1.277-.283 2.174-1.417 3.322-2.045 2.153-1.159 4.747-.431 7.147-.057a2.805 2.805 0 0 0 1.561-.079 2.594 2.594 0 0 0 .947-.872 9.655 9.655 0 0 0 1.485-2.842 10.513 10.513 0 0 1-.809 1.26z" transform="translate(242.348 130.046) translate(461.834 -351.198)"/></g></svg>