<svg id="Groupe_3907" data-name="Groupe 3907" xmlns="http://www.w3.org/2000/svg" width="69" height="59.311" viewBox="0 0 69 59.311">
  <g id="Groupe_3817" data-name="Groupe 3817" transform="translate(0 0)">
    <ellipse id="Ellipse_888" data-name="Ellipse 888" cx="2.426" cy="2.426" rx="2.426" ry="2.426" transform="translate(64.131 1.575)" fill="#ff6584"/>
    <path id="Tracé_1892" data-name="Tracé 1892" d="M35.805,34.876V33.92H39.48v.956h.735V21.425H48.08V43.99H33.747V34.876Z" transform="translate(18.439 -19.85)" fill="#e6e6e6"/>
    <path id="Tracé_1893" data-name="Tracé 1893" d="M627.434,217.542l.014.013v0a14.589,14.589,0,0,1,3.059,4.3c.267-.3.455-.478.455-.478l.009.009v0c.151.147,2.212,2.181,2.212,3.792a1.976,1.976,0,0,1-1.967,2.248l.08,1.535h-.224l-.025-1.527h-.085a2.061,2.061,0,0,1-1.918-.93,3.963,3.963,0,0,1-1.223.27l.123,2.341H627.6l-.038-2.329-.13,0c-1.872,0-3.389-.891-3.389-3.444S627.434,217.542,627.434,217.542Z" transform="translate(-600.451 -204.973)" fill="#f2f2f2"/>
    <path id="Tracé_1894" data-name="Tracé 1894" d="M362.882,146.332v-1.343H367v1.343h1.911V141.02h1.838v-2.058h4.116v2.058h1.911v8.339a11.352,11.352,0,0,1,.89-.989l.009.009v0c.151.147,2.212,2.181,2.212,3.792a1.976,1.976,0,0,1-1.967,2.248l.08,1.535h-.224l-.025-1.527h-.085a2.95,2.95,0,0,1-.89-.126v2.006h-15.73v-9.976Z" transform="translate(-327.822 -132.169)" fill="#f2f2f2"/>
    <path id="Tracé_1895" data-name="Tracé 1895" d="M791.758,128.156l.014.013v0a14.113,14.113,0,0,1,3.139,4.513V131.62l7.056-10.658,7.056,10.658v8.012H794.91v-4.142a2.9,2.9,0,0,1-2.765,1.9l.123,2.341h-.342l-.038-2.329-.13,0c-1.872,0-3.389-.891-3.389-3.444S791.758,128.156,791.758,128.156Z" transform="translate(-788.369 -115.492)" fill="#f2f2f2"/>
    <ellipse id="Ellipse_889" data-name="Ellipse 889" cx="9.298" cy="0.857" rx="9.298" ry="0.857" transform="translate(48.475 25.316)" fill="#f2f2f2"/>
    <ellipse id="Ellipse_890" data-name="Ellipse 890" cx="4.147" cy="0.382" rx="4.147" ry="0.382" transform="translate(2.064 36.648)" fill="#f2f2f2"/>
    <ellipse id="Ellipse_891" data-name="Ellipse 891" cx="4.147" cy="0.382" rx="4.147" ry="0.382" transform="translate(46.459 29.959)" fill="#f2f2f2"/>
    <path id="Tracé_1896" data-name="Tracé 1896" d="M970.149,498.738a1.288,1.288,0,0,0,1.423,1.446h.055l.108,0a1.266,1.266,0,0,0,1.26-1.44c0-1.031-1.318-2.333-1.417-2.429h0l-.006-.006S970.149,497.666,970.149,498.738Z" transform="translate(-965.702 -463.244)" fill="#657ee4"/>
    <path id="Tracé_1897" data-name="Tracé 1897" d="M981.646,500.02l-.52-.727.522.807v.083l.108,0-.056-1.072v-.01l-.005-.1.523-.809-.525.733v.022l-.042-.81.448-.836-.453.694-.044-1.68v0l.007,1.324-.446-.525.448.639.012.725-.416-.7.418.8.007.4-.6-.969.607,1.11Z" transform="translate(-975.725 -463.245)" fill="#3f3d56"/>
    <ellipse id="Ellipse_892" data-name="Ellipse 892" cx="7.736" cy="0.713" rx="7.736" ry="0.713" transform="translate(53.528 49.557)" fill="#f2f2f2"/>
    <path id="Tracé_1898" data-name="Tracé 1898" d="M208.409,634.213a2.4,2.4,0,0,0,2.655,2.7h.1c.068,0,.135,0,.2-.009a2.361,2.361,0,0,0,2.351-2.687c0-1.924-2.459-4.352-2.644-4.532h0l-.011-.01S208.409,632.214,208.409,634.213Z" transform="translate(-150.435 -586.809)" fill="#657ee4"/>
    <path id="Tracé_1899" data-name="Tracé 1899" d="M229.853,636.605l-.971-1.357.973,1.506,0,.156c.068,0,.135,0,.2-.009l-.1-2v-.016l0,0-.01-.189.976-1.509-.979,1.368,0,.04-.079-1.511.835-1.56-.846,1.294-.082-3.133v0l.014,2.471-.832-.98.835,1.192.022,1.353-.777-1.3.78,1.5.012.752-1.127-1.807,1.132,2.07Z" transform="translate(-169.128 -586.809)" fill="#3f3d56"/>
    <path id="Tracé_1900" data-name="Tracé 1900" d="M274.373,151.978c0,4.221,2.509,5.695,5.6,5.695s5.6-1.474,5.6-5.695-5.6-9.59-5.6-9.59S274.373,147.758,274.373,151.978Z" transform="translate(-227.148 -135.343)" fill="#657ee4"/>
    <path id="Tracé_1901" data-name="Tracé 1901" d="M189.019,110.488l-.057-3.532-2.389-4.37,2.38,3.816-.026-1.588-1.646-3.162,1.64,2.741h0l-.046-2.857-1.763-2.517,1.756,2.068-.029-5.238.182,6.934L189,102.5l1.792-2.744-1.764,3.293.167,3.19,0-.085,2.066-2.887-2.06,3.186.021.4,0,.006,0,.033.424,8.094h-.566l-.068-4.181-2.055-3.179Z" transform="translate(-135.985 -88.804)" fill="#3f3d56"/>
    <path id="Tracé_1902" data-name="Tracé 1902" d="M140.656,151.978c0,4.221,2.509,5.695,5.6,5.695s5.6-1.474,5.6-5.695-5.6-9.59-5.6-9.59S140.656,147.758,140.656,151.978Z" transform="translate(-83.603 -135.343)" fill="#657ee4"/>
    <path id="Tracé_1903" data-name="Tracé 1903" d="M55.3,110.488l-.057-3.532-2.389-4.37,2.38,3.816-.026-1.588-1.646-3.162,1.64,2.741h0l-.046-2.857-1.763-2.517,1.756,2.068-.029-5.238.182,6.934-.015-.286,1.792-2.744-1.764,3.293.167,3.19,0-.085,2.066-2.887-2.06,3.186.021.4,0,.006,0,.033.424,8.094h-.566l-.068-4.181-2.055-3.179Z" transform="translate(7.56 -88.804)" fill="#3f3d56"/>
    <path id="Tracé_1904" data-name="Tracé 1904" d="M189.657,59.506c0,5.708,3.393,7.7,7.579,7.7s7.579-1.993,7.579-7.7-7.579-12.969-7.579-12.969S189.657,53.8,189.657,59.506Z" transform="translate(-140.153 -46.538)" fill="#f2f2f2"/>
    <path id="Tracé_1905" data-name="Tracé 1905" d="M120.249,19.8l-.078-4.777-3.23-5.91,3.218,5.16-.035-2.148L117.9,7.847l2.217,3.707h0l-.063-3.863-2.384-3.4,2.374,2.8L120,0l.246,9.377-.02-.387,2.424-3.71-2.385,4.453.226,4.314.007-.115,2.794-3.9-2.786,4.309.028.54.005.008,0,.044.573,10.946h-.766l-.092-5.654-2.779-4.3Z" transform="translate(-62.89 0)" fill="#3f3d56"/>
    <path id="Tracé_1906" data-name="Tracé 1906" d="M367.87,435.916a.951.951,0,0,0,.055.32.963.963,0,0,0,.259.388.953.953,0,0,0,.434.224.935.935,0,0,0,.208.023.954.954,0,0,0,.828-.479.956.956,0,1,0-1.784-.477Z" transform="translate(-318.219 -406.411)" fill="#3f3d56"/>
    <path id="Tracé_1907" data-name="Tracé 1907" d="M237.944,392.743l-.086-.011-.163.214.1.248.267.034.08-.106Z" transform="translate(-186.618 -363.865)" fill="#f2f2f2"/>
    <path id="Tracé_1908" data-name="Tracé 1908" d="M241.993,400.876l.267.034.163-.214-.1-.248-.267-.034-.163.214Z" transform="translate(-191.202 -370.983)" fill="#f2f2f2"/>
    <path id="Tracé_1909" data-name="Tracé 1909" d="M369.6,454.257l.066.157a.964.964,0,0,0,.334-.341l-.237-.03Z" transform="translate(-318.57 -424.09)" fill="#f2f2f2"/>
    <path id="Tracé_1910" data-name="Tracé 1910" d="M246.13,390.83l.267.034.163-.214-.1-.248-.267-.034-.163.214Z" transform="translate(-195.643 -361.675)" fill="#f2f2f2"/>
    <path id="Tracé_1911" data-name="Tracé 1911" d="M251.448,398.512l.267.034.163-.214-.1-.248-.267-.034-.163.214Z" transform="translate(-201.352 -368.793)" fill="#f2f2f2"/>
    <path id="Tracé_1912" data-name="Tracé 1912" d="M377.245,456.03l.059.141a.934.934,0,0,0,.208.023.945.945,0,0,0,.211-.024l.055-.073-.1-.248-.267-.034Z" transform="translate(-326.905 -425.733)" fill="#f2f2f2"/>
    <path id="Tracé_1913" data-name="Tracé 1913" d="M386.7,437.327l.259.033.163-.214-.08-.192A.956.956,0,0,0,386.7,437.327Z" transform="translate(-336.943 -408.258)" fill="#f2f2f2"/>
    <path id="Tracé_1914" data-name="Tracé 1914" d="M388.473,452.317a.963.963,0,0,0,.259.388l.083-.11-.1-.248Z" transform="translate(-338.767 -422.491)" fill="#f2f2f2"/>
    <ellipse id="Ellipse_893" data-name="Ellipse 893" cx="17.861" cy="1.047" rx="17.861" ry="1.047" transform="translate(10.951 57.216)" fill="#f2f2f2"/>
    <rect id="Rectangle_1550" data-name="Rectangle 1550" width="3.969" height="9.776" transform="translate(35.107 24.845) rotate(-150)" fill="#3f3d56"/>
    <rect id="Rectangle_1551" data-name="Rectangle 1551" width="3.189" height="0.073" transform="translate(38.648 18.145) rotate(-149.075)" fill="#6c63ff"/>
    <rect id="Rectangle_1552" data-name="Rectangle 1552" width="3.189" height="0.073" transform="translate(38.213 18.753) rotate(-149.075)" fill="#6c63ff"/>
    <rect id="Rectangle_1553" data-name="Rectangle 1553" width="3.189" height="0.073" transform="translate(37.919 19.267) rotate(-149.075)" fill="#6c63ff"/>
    <rect id="Rectangle_1554" data-name="Rectangle 1554" width="3.189" height="0.073" transform="translate(37.478 19.929) rotate(-149.075)" fill="#6c63ff"/>
    <rect id="Rectangle_1555" data-name="Rectangle 1555" width="3.189" height="0.073" transform="translate(36.816 20.885) rotate(-149.075)" fill="#6c63ff"/>
    <path id="Tracé_1918" data-name="Tracé 1918" d="M689.725,259.713a5.944,5.944,0,0,0-3.238-.571l3.238-8.734v-.9l-4.584,10.906h0c-1.146,2.16-2.595,7.084-.125,7.479a68.239,68.239,0,0,1,7.847,2.13l1.121-9.753Z" transform="translate(-665.635 -234.593)" fill="#2f2e41"/>
    <path id="Tracé_1919" data-name="Tracé 1919" d="M538.233,313.937s3.027-3.812,3.812-2.466-3.524,3.608-3.524,3.608Z" transform="translate(-503.101 -291.731)" fill="#ffb9b9"/>
    <path id="Tracé_1920" data-name="Tracé 1920" d="M577.663,341.7l1.233-.673a19.144,19.144,0,0,1,.785,2.354c0,.336-1.233.448-1.233.448Z" transform="translate(-543.539 -319.378)" fill="#d0cde1"/>
    <ellipse id="Ellipse_894" data-name="Ellipse 894" cx="2.915" cy="2.915" rx="2.915" ry="2.915" transform="translate(26.501 7.969)" fill="#ffb9b9"/>
    <path id="Tracé_1921" data-name="Tracé 1921" d="M655.144,190.03s-1.233,3.7-2.13,3.924,3.475,1.906,3.475,1.906a26.372,26.372,0,0,1,2.018-3.924C659.18,191.151,655.144,190.03,655.144,190.03Z" transform="translate(-627.971 -179.483)" fill="#ffb9b9"/>
    <path id="Tracé_1922" data-name="Tracé 1922" d="M698.978,391.945c-2.416-.387-1.083-5.106.049-7.334a1.485,1.485,0,0,0-.273.271c-1.121,1.457-3.363,7.735-.561,8.184a68.243,68.243,0,0,1,7.847,2.13l.153-1.327A61.24,61.24,0,0,0,698.978,391.945Z" transform="translate(-678.812 -359.762)" opacity="0.1"/>
    <path id="Tracé_1923" data-name="Tracé 1923" d="M783.1,746.723s-2.8,2.242-2.578,2.466,2.578,3.812,4.6,4.148,2.915.336,2.915,0a2.224,2.224,0,0,0-1.569-1.457c-1.009-.336-1.121-2.578-1.009-3.027S783.1,746.723,783.1,746.723Z" transform="translate(-766.804 -695.258)" fill="#2f2e41"/>
    <path id="Tracé_1924" data-name="Tracé 1924" d="M675.1,519.47l-1.794,8.408s-7.4,8.3-7.175,8.408,2.466,2.354,2.915,2.354,8.184-8.744,8.184-8.744l2.8-7.287Z" transform="translate(-650.389 -484.708)" fill="#2f2e41"/>
    <path id="Tracé_1925" data-name="Tracé 1925" d="M675.1,519.47l-1.794,8.408s-7.4,8.3-7.175,8.408,2.466,2.354,2.915,2.354,8.184-8.744,8.184-8.744l2.8-7.287Z" transform="translate(-650.389 -484.708)" opacity="0.1"/>
    <path id="Tracé_1926" data-name="Tracé 1926" d="M572.974,477.841a15.7,15.7,0,0,0,3.363,6.39c2.466,2.578,3.587,7.847,3.587,7.847l2.466,10.538s4.372-.561,4.148-1.682l-2.354-9.3s-2.69-12.892-4.148-13.789S572.974,477.841,572.974,477.841Z" transform="translate(-550.06 -445.77)" fill="#2f2e41"/>
    <path id="Tracé_1927" data-name="Tracé 1927" d="M509.285,795.013s-.673,2.13-.224,2.354,8.408.673,8.856-.9c0,0,.224-.785-1.57-.785a6.909,6.909,0,0,1-3.7-1.682Z" transform="translate(-476.731 -739.064)" fill="#2f2e41"/>
    <path id="Tracé_1928" data-name="Tracé 1928" d="M649,229.17s-2.915-2.915-3.7-2.691-.785,1.345-.785,1.345-2.466.336-2.242,8.408-2.018,8.968-1.233,9.417,9.753,2.466,10.089.448.224-9.753-.673-12.219S648.439,229.843,649,229.17Z" transform="translate(-619.808 -213.242)" fill="#526ee0"/>
    <path id="Tracé_1929" data-name="Tracé 1929" d="M584.567,272.15s-3.363,1.569-1.457,4.6,3.363,6.278,5.381,6.166,5.157-2.018,6.054-2.018-.336-3.251-1.009-3.363-3.812,1.794-3.812,1.794S588.6,271.7,584.567,272.15Z" transform="translate(-559.075 -255.55)" fill="#657ee4"/>
    <path id="Tracé_1930" data-name="Tracé 1930" d="M618.477,131.582a3.916,3.916,0,0,1,.738.1,1.869,1.869,0,0,0,2-1.393,1.069,1.069,0,0,1,.1-.333.659.659,0,0,1,.7-.213,5.413,5.413,0,0,0,.757.184,1.159,1.159,0,0,0,1-.566,1.92,1.92,0,0,0,.246-1.16l-.192.2a.977.977,0,0,1-.087-.531.616.616,0,0,0-.584.149c-.17.018-.042-.315-.168-.43a.292.292,0,0,0-.205-.038,1.635,1.635,0,0,1-.937-.495,3.983,3.983,0,0,0-1.682-.767,2.213,2.213,0,0,0-1.227.059,2.62,2.62,0,0,0-.829.588,5.06,5.06,0,0,0-1.393,2.066,3.478,3.478,0,0,0-.017,2.017c.1.342.407,1.515.855,1.542C618.115,132.6,617.777,131.624,618.477,131.582Z" transform="translate(-590.743 -120.377)" fill="#2f2e41"/>
  </g>
</svg>
