<svg id="Groupe_3908" data-name="Groupe 3908" xmlns="http://www.w3.org/2000/svg" xmlns:xlink="http://www.w3.org/1999/xlink" width="67.416" height="61.851" viewBox="0 0 67.416 61.851">
  <defs>
    <linearGradient id="linear-gradient" x1="0.5" y1="1" x2="0.5" gradientUnits="objectBoundingBox">
      <stop offset="0" stop-color="gray" stop-opacity="0.251"/>
      <stop offset="0.54" stop-color="gray" stop-opacity="0.122"/>
      <stop offset="1" stop-color="gray" stop-opacity="0.102"/>
    </linearGradient>
  </defs>
  <path id="Tracé_1931" data-name="Tracé 1931" d="M252.158,98.585a32.606,32.606,0,0,1-10.573-2.624,60.028,60.028,0,0,0-10.3-3.444c-2.32-.445-4.972-.508-6.842.735-1.8,1.2-2.38,3.263-2.692,5.18a7.23,7.23,0,0,0,.271,4.31,31.644,31.644,0,0,0,1.79,2.624c1.911,3.124.56,6.977-1.51,10.028a37.685,37.685,0,0,0-2.847,4.322,5.837,5.837,0,0,0-.441,4.823,7.629,7.629,0,0,0,3.877,3.511c3.408,1.652,7.424,2.125,11.34,2.392,8.668.593,17.382.336,26.074.077a76.68,76.68,0,0,0,9.611-.689,10.011,10.011,0,0,0,4.847-1.775,4.058,4.058,0,0,0,.935-5.3c-1.821-2.825-6.852-3.528-8.125-6.56-.7-1.669.019-3.529,1.036-5.076,2.183-3.319,5.842-6.234,6.035-10.033a7.016,7.016,0,0,0-4.347-6.451c-2.851-1.293-6.8-1.13-8.908,1.01C259.226,97.851,255.42,98.7,252.158,98.585Z" transform="translate(-214.391 -88.913)" fill="#f2f2f2"/>
  <ellipse id="Ellipse_895" data-name="Ellipse 895" cx="23.459" cy="3.173" rx="23.459" ry="3.173" transform="translate(6.967 55.504)" fill="#f2f2f2"/>
  <path id="Tracé_1932" data-name="Tracé 1932" d="M368.712,65.477a5.532,5.532,0,0,1-.628-1.859c.1-.426-.511-1.336-.511-1.336l.039-1.51s-.084.154-.522.289c-.037-.049-.077-.1-.119-.142a3.112,3.112,0,0,0-.526-.439l-.772-1.665-.746-1.143s-1.177-2.392-2.392-2.92l-.191-.374a.029.029,0,0,0,.012-.038l-.194-.38a.03.03,0,0,0-.038-.014l-.186-.364a2.926,2.926,0,0,0-.54-1.3c-.019-.027-.04-.052-.06-.077l.3-.011a1.012,1.012,0,0,0,.74-.232.677.677,0,0,0,.138-.255,1.083,1.083,0,0,0,.045-.226c0-.012,0-.023,0-.034v-.188a.63.63,0,0,0-.013-.077.053.053,0,0,0-.006-.03.907.907,0,0,0-.024-.09.12.12,0,0,1-.005-.018c-.011-.031-.022-.062-.035-.092l-.005-.012c-.014-.03-.029-.059-.046-.088l0-.009h0a.308.308,0,0,0-.019-.035,2.183,2.183,0,0,0-.926-.695,10.708,10.708,0,0,0-1-.463,5.4,5.4,0,0,0-3.936.056,1.559,1.559,0,0,0-.35.187,1.81,1.81,0,0,0-.382.449l-.6.884a1.249,1.249,0,0,0-.194.357c-.112.42.239.84.2,1.273-.02.215-.136.413-.158.628a1.5,1.5,0,0,0,.226.8l.856,1.7c-.046.223-.1.451-.15.672h0a2.277,2.277,0,0,0-.563.75l-.012.006h0a.7.7,0,0,0-.2.193l-.813.79s-1.414.367-1.708.833c0,0-2.219-.1-2.2,3,0,0-.1,1.162-.154,1.317s0,1.723,0,1.723l-.026,3.177a19.717,19.717,0,0,0,0,2.285c.085.6.183,2.886.183,2.886a10.582,10.582,0,0,1,.334,3.021c-.188.76,0,2.423.309,2.43.059.121.126.181.2.147a.849.849,0,0,1,.1-.035v1.9s-.382,2.659.046,3.164a10.347,10.347,0,0,0-.7,1.276l-3-.161-.382.107h0l-.35.1-.212,4.883.085.006-.006.149.2.015-.279,4.918,4.156.342a3.72,3.72,0,0,1-.478.891c-.154.077-.491-.154-.57-.059a.639.639,0,0,1-.589.154c-.275-.059-.452.252-.452.252s.04.036.1.1a2.643,2.643,0,0,0-1.317.34c-.137.069-.223.121-.223.121h-.81l.445,2.841.314.215.077,2.238s1.256,3.873,1.832,3.848a.26.26,0,0,0,.194-.1c.309-.357.095-1.581.095-1.581v-2.039s.471-.207.418-.362a13.6,13.6,0,0,1,.832-2.007.013.013,0,0,0,.006-.012c0-.174.353-.368.333-.445s.864-.562.926-.988.648-.194.648-.194l.746-.857a10.378,10.378,0,0,0,.138,1.96,10.477,10.477,0,0,1,.491,2.286s-.216,1.065,0,1.414a3.74,3.74,0,0,0,.656.631,8.786,8.786,0,0,0-.191,2.113v.826l1.649.463s.052-.413.13-.413,1.126.8,1.126.8,4.032.052,5.052,0c.386-.019.491-.185.431-.386a1.449,1.449,0,0,0-1.138-.8,4.1,4.1,0,0,1-1.78-.878s.077-.181-.34-.439c-.289-.178-1.087-.9-1.581-1.317.023-.032.047-.063.069-.1,0,0-.668-.926-.529-1.337a1.926,1.926,0,0,0-.059-1,7.979,7.979,0,0,1-.373-1.724c0-.368-.056-2.462-.1-3.947l.344.029.007-.148.154.014,1.459.134-.045-1.56a9.761,9.761,0,0,0,1.53-.778,3.122,3.122,0,0,1,1.531-.658,10.316,10.316,0,0,0,1.924-1.259,13.589,13.589,0,0,0,.232-3.041l-.137-5.728v0a21.827,21.827,0,0,0-.353-3.37c-.086-.222-.3-.963-.534-1.809a1.4,1.4,0,0,1,.4.017c.008.207.014.349.014.4,0,.329.471.608.471.608l-.333-7.409v-5.04a19.854,19.854,0,0,0,3.514.429A1.327,1.327,0,0,0,368.712,65.477Zm-9.7-6.366h-.005a5.149,5.149,0,0,1,.143-.575Zm-6.747,25.412a2.436,2.436,0,0,0,1.365-.047c.005-.012.012-.032.022-.059.019.034.038.069.057.1l-.059,1.118v.025l-2.007-.108A1.6,1.6,0,0,1,352.268,84.523Zm6.689,5.639-.052-1.81c.09-.333.17-.636.238-.9.031.215.057.414.077.6C359.411,89.771,359.131,90.106,358.957,90.162Zm5.711-27.134c-.115.044-.553-.232-.968-.517,0-.052,0-.1.006-.154.059-1.182-1.865-1.917-2.454-2.053a2.115,2.115,0,0,1-.414-.154,9.643,9.643,0,0,1-.914-.516l.008-.022s-.759-.481-.776-1.08a10.264,10.264,0,0,1,.653-1.584c.015-.03.031-.062.046-.092a3.029,3.029,0,0,0,.988-.523c.118,1.544,2.352,2.872,2.352,2.872l.238.386.056.091c-.12.071-.178.128-.137.161a6.988,6.988,0,0,1,.75,1.229c.046.088.077.143.077.143s.365.993.574,1.824a.154.154,0,0,0-.088-.009Z" transform="translate(-332.495 -49.303)" fill="url(#linear-gradient)"/>
  <path id="Tracé_1933" data-name="Tracé 1933" d="M534.534,125.623l-.026.035-.09.12L532.7,126.99l-.364-.6-.232-.386s-3.423-2.053-1.951-4.032,3.647,2.508,3.647,2.508Z" transform="translate(-501.498 -115.9)" fill="#ffc5d3"/>
  <rect id="Rectangle_1556" data-name="Rectangle 1556" width="0.059" height="0.483" rx="0.029" transform="matrix(0.893, -0.45, 0.45, 0.893, 29.517, 4.888)" fill="#3a3768"/>
  <rect id="Rectangle_1557" data-name="Rectangle 1557" width="0.033" height="0.159" rx="0.017" transform="matrix(0.893, -0.45, 0.45, 0.893, 27.608, 5.426)" fill="#3a3768"/>
  <rect id="Rectangle_1558" data-name="Rectangle 1558" width="0.037" height="0.277" rx="0.019" transform="matrix(0.893, -0.45, 0.45, 0.893, 27.738, 5.686)" fill="#3a3768"/>
  <rect id="Rectangle_1559" data-name="Rectangle 1559" width="0.036" height="0.279" rx="0.018" transform="matrix(0.893, -0.45, 0.45, 0.893, 27.906, 6.02)" fill="#3a3768"/>
  <rect id="Rectangle_1560" data-name="Rectangle 1560" width="1.96" height="3.984" rx="0.98" transform="matrix(0.893, -0.45, 0.45, 0.893, 27.387, 4.948)" fill="#3a3768"/>
  <path id="Tracé_1934" data-name="Tracé 1934" d="M521.911,104.528a.069.069,0,0,0-.031.094l.006.013a.07.07,0,0,1-.031.095l-.742.374a.069.069,0,0,1-.094-.031l-.007-.013a.07.07,0,0,0-.094-.032l-.144.073a.133.133,0,0,0-.059.18l1.577,3.131a.135.135,0,0,0,.181.059l1.3-.652a.135.135,0,0,0,.059-.181l-1.578-3.133a.134.134,0,0,0-.181-.059Z" transform="translate(-493.112 -100.178)" fill="#657ee4"/>
  <rect id="Rectangle_1561" data-name="Rectangle 1561" width="0.274" height="0.056" rx="0.028" transform="matrix(0.893, -0.45, 0.45, 0.893, 28.148, 4.698)" fill="#e6e8ec"/>
  <circle id="Ellipse_896" data-name="Ellipse 896" cx="0.032" cy="0.032" r="0.032" transform="translate(28.437 4.533)" fill="#e6e8ec"/>
  <path id="Tracé_1935" data-name="Tracé 1935" d="M545.032,261.28l-.482,12.944s1.621-.54,1.872-.135-.27-6.483-.27-6.483Z" transform="translate(-515.122 -244.92)" fill="#5f5570"/>
  <path id="Tracé_1936" data-name="Tracé 1936" d="M545.032,261.28l-.482,12.944s1.621-.54,1.872-.135-.27-6.483-.27-6.483Z" transform="translate(-515.122 -244.92)" opacity="0.15"/>
  <path id="Tracé_1937" data-name="Tracé 1937" d="M458.271,764.354c-1,.052-4.965,0-4.965,0s-1.03-.8-1.107-.8-.128.411-.128.411l-1.621-.463v-.823s-.052-2.342.437-2.444a22.563,22.563,0,0,1,2.65,0c.077-.025,1.544,1.364,1.955,1.621s.334.438.334.438a4.014,4.014,0,0,0,1.75.874,1.422,1.422,0,0,1,1.118.8C458.754,764.17,458.65,764.335,458.271,764.354Z" transform="translate(-428.284 -705.329)" fill="#bc8487"/>
  <path id="Tracé_1938" data-name="Tracé 1938" d="M458.29,794.315c-1,.052-4.965,0-4.965,0s-1.03-.8-1.107-.8-.128.411-.128.411l-1.621-.463v-.807l1.517.549,1.209.72h5.517C458.773,794.131,458.668,794.3,458.29,794.315Z" transform="translate(-428.303 -735.29)" opacity="0.1"/>
  <path id="Tracé_1939" data-name="Tracé 1939" d="M493.43,787.588s1.235-1.183,2.061-.849" transform="translate(-467.947 -729.771)" stroke="#000" stroke-miterlimit="10" stroke-width="1" opacity="0.1"/>
  <path id="Tracé_1940" data-name="Tracé 1940" d="M352.449,676.206c.052.154-.411.36-.411.36V678.6s.21,1.22-.093,1.576a.254.254,0,0,1-.19.1c-.566.025-1.8-3.833-1.8-3.833l-.077-2.23-.309-.214-.438-2.83h.8s.084-.052.219-.121c.386-.2,1.194-.54,1.633-.213l1.492,3.361A14.959,14.959,0,0,0,352.449,676.206Z" transform="translate(-334.784 -622.737)" fill="#bc8487"/>
  <path id="Tracé_1941" data-name="Tracé 1941" d="M351.944,684.342a.254.254,0,0,1-.19.1c-.566.026-1.8-3.833-1.8-3.833l-.077-2.23-.309-.214-.438-2.83h.8s.084-.052.219-.121l.192,2.9.1,2.5S351.411,683.321,351.944,684.342Z" transform="translate(-334.784 -626.905)" opacity="0.1"/>
  <path id="Tracé_1942" data-name="Tracé 1942" d="M392.714,480a10.126,10.126,0,0,1-1.891,1.254,3.02,3.02,0,0,0-1.5.656,22.166,22.166,0,0,1-3.184,1.491c-1.222.5-2.315.921-2.315.921l-1.26,1.466L381.6,486.9s-.579-.232-.637.193-.926.907-.907.984-.328.27-.328.444a3.549,3.549,0,0,1-1.273-2.122,2.092,2.092,0,0,0-.656-1.466s.174-.309.444-.251a.621.621,0,0,0,.579-.154c.077-.1.405.135.56.058a9.967,9.967,0,0,0,.772-1.6l2.406-1.614,4.785-3.207.221-.148s.637.292.378-2.1c-.05-.463-.134-1.026-.262-1.711-.791-4.225,2.045-4.708,2.045-4.708l2.489.83.6.926v0l.135,5.706A13.807,13.807,0,0,1,392.714,480Z" transform="translate(-361.241 -437.071)" fill="#2f2e41"/>
  <path id="Tracé_1943" data-name="Tracé 1943" d="M442.869,586.323s.008.274.019.7c-1.222.5-2.315.921-2.315.921l-1.26,1.466c-.021-1.216-.016-2.794,0-4.413l4.785-3.207C443.506,583.984,442.869,586.323,442.869,586.323Z" transform="translate(-417.994 -540.695)" opacity="0.1"/>
  <path id="Tracé_1944" data-name="Tracé 1944" d="M509.267,471.286v0l-3.743.073s-.656,2.566-.752,3.106c-.024.133-.169.7-.374,1.479-.05-.463-.134-1.026-.262-1.711-.791-4.225,2.045-4.708,2.045-4.708l2.489.83Z" transform="translate(-477.697 -437.098)" opacity="0.1"/>
  <path id="Tracé_1945" data-name="Tracé 1945" d="M436.937,385.584l-.482,9.261s-.347,13.6,0,14.49a10.558,10.558,0,0,1,.482,2.277s-.212,1.061,0,1.408.888.733.868.926a2.165,2.165,0,0,0,3.145-.424s-.656-.926-.521-1.331a1.977,1.977,0,0,0-.058-1,8.029,8.029,0,0,1-.367-1.72c0-.581-.135-5.441-.135-5.441s2.1-7.718,2.2-8.258.752-3.106.752-3.106l3.975-.077a22.112,22.112,0,0,0-.347-3.357c-.232-.6-1.37-4.978-1.37-4.978Z" transform="translate(-415.226 -358.4)" fill="#2f2e41"/>
  <path id="Tracé_1946" data-name="Tracé 1946" d="M191.069,469.89l-.345.1-.014.341,10.343.133v-.134Z" transform="translate(-175.992 -433.627)" fill="#7b728f"/>
  <path id="Tracé_1947" data-name="Tracé 1947" d="M464.218,120.051c-1.5,3.052-.57,3.691-.421,3.769-.319-.148-4.462-2.095-3.917-2.589a7.247,7.247,0,0,0,.836-2.725c.106-.6.167-1.057.167-1.057l4.347.8A20.511,20.511,0,0,0,464.218,120.051Z" transform="translate(-436.941 -112.191)" fill="#ffc5d3"/>
  <path id="Tracé_1948" data-name="Tracé 1948" d="M565,174.355l-.09.12-1.72,1.213-.364-.6a18.675,18.675,0,0,1,2.12-.849Z" transform="translate(-531.991 -164.598)" opacity="0.1"/>
  <path id="Tracé_1949" data-name="Tracé 1949" d="M565.5,178.134c-.154.54-2.759,0-2.759,0l-.27-.424s-.027-.054-.073-.142a7.013,7.013,0,0,0-.737-1.225c-.212-.174,2.277-1.023,2.277-1.023l.763,1.659a3.074,3.074,0,0,1,.517.438A.812.812,0,0,1,565.5,178.134Z" transform="translate(-530.896 -165.594)" fill="#e5e8ef"/>
  <path id="Tracé_1950" data-name="Tracé 1950" d="M555.55,215s1.544,1.218,1.775,1.13a36.985,36.985,0,0,1,3.975,2.44,1.319,1.319,0,0,1-1.331,1.717s-3.724-.154-3.878-.695S555.55,215,555.55,215Z" transform="translate(-525.273 -202.212)" fill="#2f2e41"/>
  <path id="Tracé_1951" data-name="Tracé 1951" d="M480.979,183.252l-1.679,1.736,2.354,14.972.926-.54s2.392,1.061,2.585.077a46.824,46.824,0,0,0,.14-4.862l-.313-7.006s-1.1-2.45-1.1-2.528-1.586-1.273-1.586-1.273l-.749-.579Z" transform="translate(-454.908 -172.912)" opacity="0.1"/>
  <path id="Tracé_1952" data-name="Tracé 1952" d="M480.979,180.252l-1.679,1.736,2.354,14.972.926-.54s2.392,1.061,2.585.077a46.824,46.824,0,0,0,.14-4.862l-.313-7.006s-1.1-2.45-1.1-2.528-1.586-1.273-1.586-1.273l-.749-.579Z" transform="translate(-454.908 -170.144)" fill="#e5e8ef"/>
  <path id="Tracé_1953" data-name="Tracé 1953" d="M496.763,179.58l-.463.945.463.489s1.659,3.351,1.331,5.338l.347,6.541,1.119,1.1.888-1.025-.424-5.943s-1.138-4.9-2.335-6.425l-.347-1.351Z" transform="translate(-470.596 -169.221)" opacity="0.1"/>
  <path id="Tracé_1954" data-name="Tracé 1954" d="M496.763,177.58l-.463.945.463.489s1.659,3.351,1.331,5.338l.347,6.541,1.119,1.1.888-1.025-.424-5.943s-1.138-4.9-2.335-6.425l-.347-1.351Z" transform="translate(-470.596 -167.375)" fill="#bc8487"/>
  <path id="Tracé_1955" data-name="Tracé 1955" d="M475.815,118.2c-.421.679-.753,1.277-1.013,1.8a2.967,2.967,0,0,1-.841.121,2.625,2.625,0,0,1-2.044-1.361c-.123-.159-.529-.122-.617-.309.106-.6.167-1.057.167-1.057Z" transform="translate(-447.525 -112.144)" opacity="0.1"/>
  <path id="Tracé_1956" data-name="Tracé 1956" d="M473.361,78a2.958,2.958,0,1,1-.563-1.736A2.958,2.958,0,0,1,473.361,78Z" transform="translate(-443.967 -73.058)" fill="#ffc5d3"/>
  <path id="Tracé_1957" data-name="Tracé 1957" d="M464.11,153.137l-2.431-2.933s-.225-.09.534-.884a30.186,30.186,0,0,1,2.959,2.541C465.345,152.23,464.11,153.137,464.11,153.137Z" transform="translate(-438.617 -141.601)" opacity="0.1"/>
  <path id="Tracé_1958" data-name="Tracé 1958" d="M463.11,151.137l-2.431-2.933s-.225-.09.534-.884a30.191,30.191,0,0,1,2.959,2.541C464.344,150.23,463.11,151.137,463.11,151.137Z" transform="translate(-437.695 -139.755)" fill="#e5e8ef"/>
  <path id="Tracé_1959" data-name="Tracé 1959" d="M514.614,200.255s-.463-.278-.463-.606-.232-4.959-.232-4.959-.34-2.764-.695-4.96h0a12.409,12.409,0,0,0-.573-2.61l-.006-.009c-.405-.521-.328-3.068-2.856-6.792a13.957,13.957,0,0,0,1.544.942,2.118,2.118,0,0,0,.407.154c.579.135,2.47.868,2.412,2.045s.135,3.878.135,3.878v5.536Z" transform="translate(-483.044 -170.209)" fill="#2f2e41"/>
  <path id="Tracé_1960" data-name="Tracé 1960" d="M574.416,203.207c-.154.54-2.759,0-2.759,0l-.27-.424s-.027-.054-.073-.142l0-.009a8.432,8.432,0,0,0,2.823-.141A.812.812,0,0,1,574.416,203.207Z" transform="translate(-539.817 -190.668)" opacity="0.1"/>
  <path id="Tracé_1961" data-name="Tracé 1961" d="M572.3,200.992a11.052,11.052,0,0,1,.695,2.8c-.116.56,1.872,2.759,1.872,2.759l1.891-1.312a5.556,5.556,0,0,1-.617-1.852c.1-.424-.5-1.331-.5-1.331l.039-1.5S575.329,201.2,572.3,200.992Z" transform="translate(-540.73 -188.877)" fill="#2f2e41"/>
  <path id="Tracé_1962" data-name="Tracé 1962" d="M473.148,76.695l-1.466.056a1.633,1.633,0,0,0-.424.053,1.267,1.267,0,0,0-.785,1.219,1.064,1.064,0,0,1-.87,1.106.217.217,0,0,1-.16-.036.264.264,0,0,1-.068-.137,2.988,2.988,0,0,0-.369-.824.646.646,0,0,0-.463.492,2.765,2.765,0,0,0-.043.711,4.6,4.6,0,0,1-.087.9,2.958,2.958,0,1,1,4.738-3.543Z" transform="translate(-444.317 -73.485)" opacity="0.1"/>
  <path id="Tracé_1963" data-name="Tracé 1963" d="M459.647,55.458a1.633,1.633,0,0,1,.424-.053l1.78-.066a1,1,0,0,0,.727-.227.68.68,0,0,0,.136-.254,1.1,1.1,0,0,0-.115-.9,2.177,2.177,0,0,0-.911-.695,10.591,10.591,0,0,0-.986-.463,5.248,5.248,0,0,0-3.867.056,1.56,1.56,0,0,0-.344.184,1.778,1.778,0,0,0-.375.448l-.586.883a1.215,1.215,0,0,0-.184.357c-.11.419.232.838.2,1.27-.02.215-.134.411-.154.626a1.5,1.5,0,0,0,.223.793l1.03,2.077a4.6,4.6,0,0,0,.249-1.5,2.667,2.667,0,0,1,.043-.711.651.651,0,0,1,.463-.492,2.978,2.978,0,0,1,.37.824.261.261,0,0,0,.068.137.216.216,0,0,0,.16.035,1.059,1.059,0,0,0,.87-1.106A1.262,1.262,0,0,1,459.647,55.458Z" transform="translate(-432.782 -52.217)" fill="#8f7080"/>
  <path id="Tracé_1964" data-name="Tracé 1964" d="M190.89,468.706l.721-.206,10.869.592-1.2.154Z" transform="translate(-176.158 -432.345)" fill="#7b728f"/>
  <path id="Tracé_1965" data-name="Tracé 1965" d="M190.89,468.706l.721-.206,10.869.592-1.2.154Z" transform="translate(-176.158 -432.345)" fill="#526ee0" opacity="0.1"/>
  <path id="Tracé_1966" data-name="Tracé 1966" d="M321.727,486.589l-1.434-.134-.5-.046v-7.975l.133-1.851.029-.412h1.479Z" transform="translate(-295.11 -439.423)" fill="#657ee4"/>
  <path id="Tracé_1967" data-name="Tracé 1967" d="M321.335,489.379l-1.144-.127-.4-.044v-7.562l.106-1.755.023-.391h1.18Z" transform="translate(-295.11 -442.496)" opacity="0.1"/>
  <path id="Tracé_1968" data-name="Tracé 1968" d="M401.42,500.886s.714-1.566,1.013-1.615a4.607,4.607,0,0,1,.849,0l-.049.454s-.733.058-.965,1.283Z" transform="translate(-383.038 -464.525)" fill="#7b728f"/>
  <path id="Tracé_1969" data-name="Tracé 1969" d="M401.42,500.886s.714-1.566,1.013-1.615a4.607,4.607,0,0,1,.849,0l-.049.454s-.733.058-.965,1.283Z" transform="translate(-383.038 -464.525)" fill="#526ee0" opacity="0.1"/>
  <path id="Tracé_1970" data-name="Tracé 1970" d="M432.571,497.41s1.919.955,1.669,2.074l-1.042-.058s-.5-1.669-.9-1.756S432.571,497.41,432.571,497.41Z" transform="translate(-411.42 -462.827)" fill="#657ee4"/>
  <path id="Tracé_1971" data-name="Tracé 1971" d="M408.216,167.851v.056l-.039,6.426a50.738,50.738,0,0,1-1.254,5.615c-.27.212-6.193-.367-6.193-.367L398.048,161.5c-.019-3.087,2.161-2.991,2.161-2.991.289-.463,1.679-.83,1.679-.83l.772-.752.025-.035a.686.686,0,0,1,.194-.192h0c.159-.092.26.029.318.149a.9.9,0,0,1,.06.175C406.384,159.321,408.216,167.851,408.216,167.851Z" transform="translate(-379.927 -148.385)" fill="#2f2e41"/>
  <path id="Tracé_1972" data-name="Tracé 1972" d="M453.128,169.237v.056c-.97-1.775-4.708-8.5-5.73-8.835l.394-.27s.262-.154-.22-.309c0,0-.752.1-.772-.81l.8-.787.194-.192h0l.318.149a.9.9,0,0,1,.06.175C451.3,160.707,453.128,169.237,453.128,169.237Z" transform="translate(-424.916 -149.694)" opacity="0.1"/>
  <path id="Tracé_1973" data-name="Tracé 1973" d="M454.128,168.237v.056c-.97-1.775-4.708-8.5-5.73-8.835l.394-.27s.262-.154-.22-.309c0,0-.752.1-.772-.81l.8-.787.194-.192h0l.318.149a.9.9,0,0,1,.06.175C452.3,159.707,454.128,168.237,454.128,168.237Z" transform="translate(-425.839 -148.771)" fill="#433a59"/>
  <path id="Tracé_1974" data-name="Tracé 1974" d="M513.662,188.081l-.006-.009c-.405-.521-.328-3.068-2.856-6.792a13.961,13.961,0,0,0,1.544.942l-.178.588.386.206Z" transform="translate(-483.977 -171.094)" opacity="0.1"/>
  <path id="Tracé_1975" data-name="Tracé 1975" d="M512.662,187.081l-.006-.009c-.405-.521-.328-3.068-2.856-6.792a13.96,13.96,0,0,0,1.544.942l-.178.588.386.206Z" transform="translate(-483.054 -170.172)" fill="#433a59"/>
  <path id="Tracé_1976" data-name="Tracé 1976" d="M506.468,172.58l-.158.668a.9.9,0,0,0,.81.727l.112-.319S506.483,173.177,506.468,172.58Z" transform="translate(-479.833 -163.066)" opacity="0.1"/>
  <path id="Tracé_1977" data-name="Tracé 1977" d="M506.468,171.58l-.158.668a.9.9,0,0,0,.81.727l.112-.319S506.483,172.177,506.468,171.58Z" transform="translate(-479.833 -162.143)" fill="#e5e8ef"/>
  <path id="Tracé_1978" data-name="Tracé 1978" d="M320.747,477.57l-.454,10.177-.5-.046v-7.975l.133-1.852Z" transform="translate(-295.11 -440.715)" opacity="0.1"/>
  <path id="Tracé_1979" data-name="Tracé 1979" d="M188.539,481.5l-.309,5.5,10.5.875.46-10.311Z" transform="translate(-173.703 -440.715)" fill="#657ee4"/>
  <path id="Tracé_1980" data-name="Tracé 1980" d="M189.23,478.032l.205-4.862,10.751.494-.512,5.14Z" transform="translate(-174.626 -436.654)" opacity="0.1"/>
  <path id="Tracé_1981" data-name="Tracé 1981" d="M188.23,476.032l.205-4.862,10.751.494-.512,5.14Z" transform="translate(-173.703 -434.809)" fill="#657ee4"/>
  <rect id="Rectangle_1562" data-name="Rectangle 1562" width="1.293" height="1.505" transform="translate(19.048 41.23)" fill="#c3bbc8"/>
  <path id="Tracé_1982" data-name="Tracé 1982" d="M408.395,455.78l-.193.521s-.405,2.856.1,3.2a3,3,0,0,0,2.064.193c.077-.174.617-2.142.617-2.142s.482,1.447.733,1.331-.579-2.866-.579-2.866Z" transform="translate(-389.154 -424.409)" fill="#ffc5d3"/>
  <path id="Tracé_1983" data-name="Tracé 1983" d="M410.05,415.354v2.759s2.045.386,2.933-.281c0,0-.83-2.671-.521-3.346S410.05,415.354,410.05,415.354Z" transform="translate(-391.002 -386.145)" opacity="0.1"/>
  <path id="Tracé_1984" data-name="Tracé 1984" d="M410.05,414.354v2.759s2.045.386,2.933-.281c0,0-.83-2.671-.521-3.346S410.05,414.354,410.05,414.354Z" transform="translate(-391.002 -385.222)" fill="#e5e8ef"/>
  <path id="Tracé_1985" data-name="Tracé 1985" d="M397.988,203.7l-.54.289s-.1,1.158-.154,1.312a16.921,16.921,0,0,0,0,1.717l-.026,3.164a19.936,19.936,0,0,0,0,2.277c.083.6.177,2.875.177,2.875a10.665,10.665,0,0,1,.329,3.01c-.193.791.019,2.566.347,2.412s3.357-.752,3.512-.868.077-1.2,0-1.331a11.494,11.494,0,0,1-.5-2.392c.039-.424-.135-4.148-.135-4.148s.289-3.975.405-4.9-.232-3.647-.54-3.685S399.647,201.291,397.988,203.7Z" transform="translate(-379.171 -190.72)" opacity="0.1"/>
  <path id="Tracé_1986" data-name="Tracé 1986" d="M395.988,201.7l-.54.289s-.1,1.158-.154,1.312a16.93,16.93,0,0,0,0,1.717l-.026,3.164a19.943,19.943,0,0,0,0,2.277c.083.6.177,2.875.177,2.875a10.665,10.665,0,0,1,.329,3.01c-.193.791.019,2.566.347,2.412s3.357-.752,3.512-.868.077-1.2,0-1.331a11.494,11.494,0,0,1-.5-2.392c.039-.424-.135-4.148-.135-4.148s.289-3.975.405-4.9-.232-3.647-.54-3.685S397.647,199.291,395.988,201.7Z" transform="translate(-377.326 -188.874)" fill="#2f2e41"/>
  <g id="Groupe_3819" data-name="Groupe 3819" transform="translate(22.651 1.776)" opacity="0.1">
    <path id="Tracé_1987" data-name="Tracé 1987" d="M458.586,104.77a.646.646,0,0,0-.463.492,2.766,2.766,0,0,0-.043.711,4.6,4.6,0,0,1-.249,1.5L456.8,105.4c-.02-.041-.041-.083-.061-.126a2.805,2.805,0,0,0,.177.415l1.03,2.077a4.6,4.6,0,0,0,.249-1.5,2.7,2.7,0,0,1,.043-.711.65.65,0,0,1,.463-.492,3.1,3.1,0,0,1,.2.365A3.01,3.01,0,0,0,458.586,104.77Z" transform="translate(-456.74 -102.266)"/>
    <path id="Tracé_1988" data-name="Tracé 1988" d="M491.222,72.32a1.094,1.094,0,0,1-.019.575.682.682,0,0,1-.137.254,1,1,0,0,1-.727.227l-1.78.066a1.639,1.639,0,0,0-.425.053,1.268,1.268,0,0,0-.785,1.219,1.064,1.064,0,0,1-.87,1.106.217.217,0,0,1-.16-.035h0c.018.05.035.1.049.154a.255.255,0,0,0,.067.137.217.217,0,0,0,.16.035,1.059,1.059,0,0,0,.87-1.106,1.265,1.265,0,0,1,.785-1.219,1.638,1.638,0,0,1,.425-.053l1.78-.066a1,1,0,0,0,.727-.227.682.682,0,0,0,.137-.254A1.1,1.1,0,0,0,491.222,72.32Z" transform="translate(-484.037 -72.32)"/>
  </g>
  <path id="Tracé_1989" data-name="Tracé 1989" d="M512.28,478.539a3.006,3.006,0,0,1,.926-.328,28.2,28.2,0,0,1,2.572,2.963Z" transform="translate(-485.342 -445.108)" opacity="0.1"/>
  <path id="Tracé_1990" data-name="Tracé 1990" d="M409.222,224.35s-1.222.522-1.189.882S409.222,224.35,409.222,224.35Z" transform="translate(-389.14 -210.84)" opacity="0.1"/>
  <path id="Tracé_1991" data-name="Tracé 1991" d="M403.31,246.45s-1.282,1.639-1,1.694S403.31,246.45,403.31,246.45Z" transform="translate(-383.823 -231.235)" opacity="0.1"/>
  <path id="Tracé_1992" data-name="Tracé 1992" d="M461.463,278.28s.117,3.666-.823,4.129Z" transform="translate(-437.688 -260.608)" opacity="0.1"/>
  <path id="Tracé_1993" data-name="Tracé 1993" d="M408,400.029s.9-.514,1.112-.411S408,400.029,408,400.029Z" transform="translate(-389.11 -372.569)" opacity="0.1"/>
  <path id="Tracé_1994" data-name="Tracé 1994" d="M410.05,412.944a2.428,2.428,0,0,0,.842-.077C411.163,412.748,410.05,412.944,410.05,412.944Z" transform="translate(-391.002 -384.773)" opacity="0.1"/>
  <path id="Tracé_1995" data-name="Tracé 1995" d="M586.7,239.41s.708,2.035,1.117,2.035" transform="translate(-554.019 -224.738)" opacity="0.1"/>
  <path id="Tracé_1996" data-name="Tracé 1996" d="M456.16,742.535s1.329-.36,1.525,0S456.16,742.535,456.16,742.535Z" transform="translate(-433.553 -688.885)" opacity="0.1"/>
  <path id="Tracé_1997" data-name="Tracé 1997" d="M399.985,675.21s-.331.507.107.661S399.985,675.21,399.985,675.21Z" transform="translate(-381.603 -626.905)" opacity="0.1"/>
  <path id="Tracé_1998" data-name="Tracé 1998" d="M515.8,583.53s1,.894,1.477.92S515.8,583.53,515.8,583.53Z" transform="translate(-488.591 -542.3)" opacity="0.1"/>
  <path id="Tracé_1999" data-name="Tracé 1999" d="M958.552,109.007s-6.5-.394-5.732,4.159a1.108,1.108,0,0,0,.577,1.171s.012-.338.667-.223a3.042,3.042,0,0,0,.705.034,1.473,1.473,0,0,0,.862-.354h0s1.827-.754,2.537-3.74c0,0,.526-.651.5-.819l-1.1.468a1.956,1.956,0,0,1,.077,1.449s-.036-1.42-.246-1.389c-.043.007-.57.274-.57.274a3.239,3.239,0,0,1,.158,2.379s.185-1.7-.359-2.28l-.772.451a3.406,3.406,0,0,1,.243,2.585,4.845,4.845,0,0,0-.405-2.475l-.7.546a3.336,3.336,0,0,1,.276,2.366s-.056-2.074-.428-2.23a4.3,4.3,0,0,0-.7.761s.485,1.019.184,1.556c0,0-.184-1.381-.336-1.389a4.585,4.585,0,0,0-.673,1.544,3.328,3.328,0,0,1,.526-1.631,1.835,1.835,0,0,0-.934.484s.095-.648,1.08-.7a4.244,4.244,0,0,1,.638-.737,4.019,4.019,0,0,0-1.581.182,1.776,1.776,0,0,1,1.761-.333l.695-.563a5.694,5.694,0,0,0-1.844.019,2.242,2.242,0,0,1,2.03-.147l.752-.45a6.9,6.9,0,0,0-1.762-.154,2.7,2.7,0,0,1,1.982.032l.54-.242s-.809-.159-1.046-.184-.25-.091-.25-.091a2.809,2.809,0,0,1,1.52.169A7.069,7.069,0,0,0,958.552,109.007Z" transform="translate(-891.825 -104.391)" fill="#657ee4"/>
  <path id="Tracé_2000" data-name="Tracé 2000" d="M829.427,97.755s-2.933-.177-2.59,1.881a.5.5,0,0,0,.261.529s.005-.154.3-.1a1.315,1.315,0,0,0,.32.015.665.665,0,0,0,.386-.161h0a2.331,2.331,0,0,0,1.146-1.69s.238-.294.232-.37l-.5.211a.891.891,0,0,1,.036.654s-.016-.641-.112-.627c-.019,0-.257.124-.257.124a1.465,1.465,0,0,1,.071,1.075s.084-.767-.162-1.03l-.348.2a1.54,1.54,0,0,1,.11,1.168,2.188,2.188,0,0,0-.183-1.118l-.316.247a1.505,1.505,0,0,1,.124,1.069s-.025-.937-.193-1.008a1.935,1.935,0,0,0-.319.344s.219.463.083.7c0,0-.083-.624-.154-.627a2.079,2.079,0,0,0-.3.695,1.5,1.5,0,0,1,.238-.736.828.828,0,0,0-.422.218s.043-.292.49-.318a1.9,1.9,0,0,1,.289-.333,1.808,1.808,0,0,0-.715.082.81.81,0,0,1,.8-.154l.309-.255a2.664,2.664,0,0,0-.833.008,1.013,1.013,0,0,1,.917-.066l.34-.2a3.093,3.093,0,0,0-.8-.069,1.222,1.222,0,0,1,.9.014l.242-.109s-.365-.072-.472-.083-.113-.041-.113-.041a1.274,1.274,0,0,1,.687.077A3.123,3.123,0,0,0,829.427,97.755Z" transform="translate(-775.597 -94.012)" fill="#657ee4"/>
  <ellipse id="Ellipse_897" data-name="Ellipse 897" cx="2.078" cy="0.351" rx="2.078" ry="0.351" transform="translate(63.259 55.436)" fill="#6c63ff" opacity="0.1"/>
  <ellipse id="Ellipse_898" data-name="Ellipse 898" cx="2.078" cy="0.351" rx="2.078" ry="0.351" transform="translate(0 50.209)" fill="#6c63ff" opacity="0.1"/>
  <ellipse id="Ellipse_899" data-name="Ellipse 899" cx="2.078" cy="0.351" rx="2.078" ry="0.351" transform="translate(61.813 48.635)" fill="#6c63ff" opacity="0.1"/>
  <ellipse id="Ellipse_900" data-name="Ellipse 900" cx="2.078" cy="0.351" rx="2.078" ry="0.351" transform="translate(8.039 52.093)" fill="#6c63ff" opacity="0.1"/>
  <ellipse id="Ellipse_901" data-name="Ellipse 901" cx="2.078" cy="0.351" rx="2.078" ry="0.351" transform="translate(52.549 52.395)" fill="#6c63ff" opacity="0.1"/>
  <ellipse id="Ellipse_902" data-name="Ellipse 902" cx="3.103" cy="0.525" rx="3.103" ry="0.525" transform="translate(57.686 59.026)" fill="#657ee4"/>
  <path id="Tracé_2001" data-name="Tracé 2001" d="M933.2,792.7a.9.9,0,0,0,.3-.446.4.4,0,0,0-.207-.455.581.581,0,0,0-.546.191.733.733,0,0,1-.532.257.81.81,0,0,0,.251-.758.318.318,0,0,0-.07-.154c-.1-.113-.3-.064-.422.025a1.575,1.575,0,0,0-.516,1.318,2.53,2.53,0,0,1-.008-.54.557.557,0,0,0-.2-.48.617.617,0,0,0-.309-.073.643.643,0,0,0-.5.143.5.5,0,0,0,.019.617,2,2,0,0,0,.522.418,1.149,1.149,0,0,1,.373.356.3.3,0,0,1,.028.063h1.131A3.156,3.156,0,0,0,933.2,792.7Z" transform="translate(-871.133 -734.007)" fill="#657ee4"/>
  <path id="Tracé_2002" data-name="Tracé 2002" d="M281.764,617s.424.554-.2,1.389-1.131,1.544-.926,2.065c0,0,.935-1.554,1.7-1.576S282.6,617.937,281.764,617Z" transform="translate(-271.539 -573.187)" fill="#657ee4"/>
  <path id="Tracé_2003" data-name="Tracé 2003" d="M282.062,617a.667.667,0,0,1,.086.174c.742.872,1.138,1.686.424,1.707-.664.018-1.462,1.207-1.653,1.507a.707.707,0,0,0,.022.069s.935-1.554,1.7-1.576S282.9,617.937,282.062,617Z" transform="translate(-271.838 -573.187)" opacity="0.1"/>
  <path id="Tracé_2004" data-name="Tracé 2004" d="M304.767,624.669c0,.2-.022.353-.049.353s-.049-.154-.049-.353.027-.1.054-.1S304.767,624.473,304.767,624.669Z" transform="translate(-293.755 -580.147)" fill="#ffd037"/>
  <path id="Tracé_2005" data-name="Tracé 2005" d="M305.444,627.6c-.171.093-.321.15-.333.127s.115-.119.286-.212.1-.026.117,0S305.615,627.512,305.444,627.6Z" transform="translate(-294.16 -582.85)" fill="#ffd037"/>
  <path id="Tracé_2006" data-name="Tracé 2006" d="M255.317,617s-.424.554.2,1.389,1.131,1.544.926,2.065c0,0-.935-1.554-1.7-1.576S254.48,617.937,255.317,617Z" transform="translate(-247.332 -573.187)" fill="#657ee4"/>
  <path id="Tracé_2007" data-name="Tracé 2007" d="M255.3,617a.681.681,0,0,0-.087.174c-.742.872-1.138,1.686-.424,1.707.665.018,1.463,1.207,1.654,1.507a.549.549,0,0,1-.023.069s-.935-1.554-1.7-1.576S254.46,617.937,255.3,617Z" transform="translate(-247.312 -573.187)" opacity="0.1"/>
  <path id="Tracé_2008" data-name="Tracé 2008" d="M256.49,624.669c0,.2.022.353.049.353s.049-.154.049-.353-.027-.1-.054-.1S256.49,624.473,256.49,624.669Z" transform="translate(-249.293 -580.147)" fill="#ffd037"/>
  <path id="Tracé_2009" data-name="Tracé 2009" d="M251.748,627.6c.171.093.32.15.333.127s-.116-.119-.287-.212-.1-.026-.117,0S251.575,627.512,251.748,627.6Z" transform="translate(-244.82 -582.85)" fill="#ffd037"/>
  <path id="Tracé_2010" data-name="Tracé 2010" d="M258.24,653.222a4.346,4.346,0,0,0,1.544-.291c.358-.255,1.824-.558,1.912-.15s1.782,2.029.444,2.04a11.321,11.321,0,0,1-3.467-.426C258.316,654.177,258.24,653.222,258.24,653.222Z" transform="translate(-250.908 -606.022)" fill="#a8a8a8"/>
  <path id="Tracé_2011" data-name="Tracé 2011" d="M262.162,662.319a11.321,11.321,0,0,1-3.467-.426c-.271-.165-.38-.759-.416-1.033h-.039s.077.956.431,1.173a11.334,11.334,0,0,0,3.467.426c.386,0,.519-.141.512-.344C262.6,662.239,262.449,662.316,262.162,662.319Z" transform="translate(-250.908 -613.662)" opacity="0.2"/>
</svg>
