<svg xmlns="http://www.w3.org/2000/svg" viewBox="0 0 165.97 145.35"><defs><style>.cls-1{opacity:0.1;isolation:isolate;}.cls-2{fill:#657ee4;}.cls-3{fill:#fff;}.cls-4{fill:#2f2e41;}.cls-5{fill:#9f616a;}.cls-6{fill:#3f3d56;}.cls-7{fill:#d0cde1;}</style></defs><title>Settings - Illustrations</title><path id="Path_1561" class="cls-1" d="M140.76 71a2.21 2.21 0 0 1 .26 1.1c-.16-.87-1.29-1.28-1.36-2.09 0-.37 0-.35.27-.15s.5.8.83 1.14z"/><path id="Path_1562" class="cls-1" d="M137.33 73.46a1.86 1.86 0 0 1 .51.76 2 2 0 0 1 .1 1.33c-.17-.08-.22-.28-.27-.46a3.21 3.21 0 0 0-.35-.78c-.13-.22-.75-.72-.74-1s.58.03.75.15z"/><g id="Group_3196"><circle id="Ellipse_738" class="cls-2" cx="69.9" cy="71.72" r="69.4"/><path id="Path_1551" class="cls-3" d="M23.49 77.15l46.18-46.15 46.64 46.18h-31.7v35.31h-29.42v-35.11z"/><path id="Path_1561-2" class="cls-1" d="M141.56 71a2.35 2.35 0 0 1 .27 1.1c-.17-.86-1.3-1.28-1.36-2.09 0-.37 0-.35.26-.15s.5.79.83 1.14z"/><path id="Path_1562-2" class="cls-1" d="M138.13 73.46a1.68 1.68 0 0 1 .51.75 1.91 1.91 0 0 1 .1 1.33c-.16-.08-.21-.28-.27-.46a3.21 3.21 0 0 0-.35-.78c-.13-.21-.75-.71-.74-1s.62.03.75.16z"/></g><g id="Group_3197"><path id="Path_1563" class="cls-4" d="M136.46 135.12l-1.31-1s-.88 4.87.1 5.6 4.62 1.94 4.62 3.4 8.28 3.41 8.52 1.22a4.83 4.83 0 0 0-.73-3.41s-3.9-3.89-4.38-4.62l-1.7-2.19z"/><path id="Path_1564" class="cls-4" d="M155.93 74.52s0 .21-.1.61-.14.83-.23 1.44c-1 6.24-4 24.6-3.8 25.21s1.94 3.4 0 4.13a1.55 1.55 0 0 0-.61.66 14.41 14.41 0 0 0-1 2.43 107.54 107.54 0 0 0-3.19 12.49c-.31 1.64-.53 3-.59 3.65a2.68 2.68 0 0 0 0 .49c.25 1-1.46 4.38-2.19 5.35s-1.94 2-1.7 2.92-6.08 3.65-6.81 1.95a29.68 29.68 0 0 1-1-3.17c-.25-.48-.49-3.89.73-4.38s.48-9 1.7-10.71a23.13 23.13 0 0 0 1.67-4.8c.26-.9.52-1.86.77-2.83 1-4 1.94-7.94 1.94-7.94l-.24-28.48 13.38-1.7.34.76.69 1.5z"/><path id="Path_1565" class="cls-4" d="M156.66 121.25s2-2 2.92 0 1.95 9.49 3.65 11.19 3.9 10.22 1.46 10.71-5.11-.73-5.35-2.19-5.36-9-5.36-9.74l3.41-3.4z"/><path id="Path_1566" class="cls-4" d="M126.73 61.14s3.16 28.47 3.89 31.15 4.63 12.89 5.84 14.6 9 15.57 10 16.3l2.92 2.68s3.65 3.65 4.14 4.38 4.62-1.46 4.87-2.92a15.07 15.07 0 0 0-.49-4.87c-.24-1 .49-2.43-.24-3.16s-4.38-4.38-4.38-6.09-6.33-11.68-8.76-13.87l-1.95-5.84v-14.84l13.38-4.14s-.73-11.68-2.43-11.68-24.11-3.84-26.79-1.7z"/><circle id="Ellipse_739" class="cls-5" cx="146.44" cy="12.46" r="8.03"/><path id="Path_1567" class="cls-5" d="M143.77 18.79s-1 3.65-2.19 4.62l3.16 5.11 8.26.48 1.46-4.62s-2.67-5.36-1.94-8.77l-8.75 3.18z"/><path id="Path_1568" class="cls-6" d="M140.36 22.93s2.19.24 2.68 1 3.89 2.92 6.57 2.43 4.38-1.21 4.86-1l1.46 5.36-2.67 7.79.48 21.41.73 5.84s1.46-1.94-4.38-.73-13.38-1-15.82-1.21-6.57-1-6.81-2.44l.73-6.81 3.89-16.31 2.44-8.76z"/><path id="Path_1569" class="cls-2" d="M142.66 21.83s-2.06-1.09-2.79-.12-10 2.43-10 3.16-1.87 20.45-1.44 22.13l-1 3.65-1.7 7.3s-4.63 13.87-2.68 14.36a12.88 12.88 0 0 0 4.38 0c.73 0 .49-9.25 2.44-11.68s4.62-8.52 5.11-9.74 6.57-18 6.32-19.95l1.36-9.11z"/><path id="Path_1570" class="cls-2" d="M152.77 22.93s1.95 0 2.19.48a26.44 26.44 0 0 0 3.65 4.38c1 .73 4.38 3.9 4.38 4.63l-7.06 6.08s-2.93 14.36-1.46 19.23 3.65 16.55 2.68 17.28-3.15.99-3.15-.01-1.46-11.44-2.67-13.63-4.87-16.06-3.41-20l4.85-18.44z"/><path id="Path_1571" class="cls-5" d="M120.64 47s-.24 7.54 2.43 11.44a45.44 45.44 0 0 1 4.38 8.27s4.38-1.22 5.11-2.68 5.36-.24 5.36-.73-5.6-2.92-6.09-3.4-2.19-.49-3.16-1.46a6.5 6.5 0 0 1-1.22-3.17l-1-6.32z"/><path id="Path_1572" class="cls-4" d="M140.91 7.51a4.64 4.64 0 0 1-1.8-.41 2.42 2.42 0 0 1-.8-3.32l.18-.25a4.34 4.34 0 0 1 .86-.69l1.85-1.26a9.24 9.24 0 0 1 2.61-1.39 8.24 8.24 0 0 1 2.67-.19 17.86 17.86 0 0 1 5.11.93 8.58 8.58 0 0 1 4.14 3 9.07 9.07 0 0 1 .72 7.94 27 27 0 0 1-4.11 7.13l-.84-4a1.48 1.48 0 0 0-.48-1c-.75-.54-1.67.56-2.6.56a1.56 1.56 0 0 1-1.31-1.05 5.72 5.72 0 0 1-.29-1.74c-.11-1.26-.55-3-1.74-3.69s-2.93-.46-4.17-.57z"/><path id="Path_1573" class="cls-1" d="M141.36 74.72s.82 23.77 1.31 24.5v-24.58z"/><path id="Path_1574" class="cls-7" d="M131.84 24.87h-2s-8.28 11.2-7.3 11.93v2.68l-2 3.64s-2.43 2.2-1.7 2.68a8.78 8.78 0 0 1 1.7 2.44s4.87-.73 6.33 2.19l3.16-4z"/><path id="Path_1575" class="cls-5" d="M154 45.8a21.39 21.39 0 0 1-11.44-3.65l-6.09-2.67s-5.35-8.28-5.84-6.82l.73 4.38s-7.34 3.4-7.53 3.85l4.13-.68s-.73 4.62 3.4 4.86l5.36-.73s17.52 14.6 20.44 10l-3.16-8.54z"/><path id="Path_1576" class="cls-7" d="M160.31 31.44l2.68 1v7.3l1 1.46s-.24 2.92-1 3.65-2.19.48-1.7 2.19a9.28 9.28 0 0 1 .24 3.4s-4.38 5.6-4.62 4.87-3.65-9.73-4.14-9.73l4.87-14.12z"/><path id="Path_1577" class="cls-4" d="M128.31 68.31s-2.52-2.43-1.26-2.55 5.64-2.56 6.37-1.34l-5.11 3.89z"/></g></svg>