<svg xmlns="http://www.w3.org/2000/svg" viewBox="0 0 221 143"><defs><style>.cls-1,.cls-2{fill:#657ee4;}.cls-2,.cls-8{opacity:0.1;}.cls-2,.cls-3,.cls-4,.cls-8{isolation:isolate;}.cls-4{font-size:109px;fill:#fff;font-family:SegoeUI-Bold, Segoe UI;font-weight:700;}.cls-5{fill:url(#linear-gradient);}.cls-6{fill:#2f2e41;}.cls-7{fill:#fbbebe;}.cls-9{fill:#e8e8f0;}.cls-10{fill:#f86d70;}</style><linearGradient id="linear-gradient" x1="2.64" y1="1206.94" x2="2.64" y2="1205.94" gradientTransform="matrix(107.38 0 0 -80.77 -229.37 97261.51)" gradientUnits="userSpaceOnUse"><stop offset="0" stop-color="#808080" stop-opacity=".25"/><stop offset=".54" stop-color="#808080" stop-opacity=".12"/><stop offset="1" stop-color="#808080" stop-opacity=".1"/></linearGradient></defs><title>Settings - Illustrations</title><g id="Group_3196"><circle id="Ellipse_738" class="cls-1" cx="149.96" cy="69.95" r="69.4"/><path id="Path_1561" class="cls-2" d="M221.61 69.21a2.18 2.18 0 0 1 .27 1.09c-.16-.86-1.29-1.27-1.36-2.08 0-.37 0-.36.26-.16s.51.83.83 1.15z"/><path id="Path_1562" class="cls-2" d="M218.18 71.69a1.66 1.66 0 0 1 .51.76 1.88 1.88 0 0 1 .1 1.32c-.16-.07-.21-.28-.26-.45a3.76 3.76 0 0 0-.36-.79c-.13-.21-.75-.71-.74-.94s.57-.02.75.1z"/></g><text class="cls-4" transform="translate(102.55 107.99)" id="_">%</text><g id="Group_3200"><path id="Path_1578" class="cls-5" d="M107.68 84.85a7.86 7.86 0 0 0-3.13-6.34 9.18 9.18 0 0 0-7.69-9 9.19 9.19 0 0 0-6.12-6.85 8.58 8.58 0 0 0-1.14-.26h-1.31a9 9 0 0 0-8.71 7.7c-2.81-.65-5.39.19-5.85 2a2.37 2.37 0 0 0 .08 1.42 6.14 6.14 0 0 0 4.13 3.35l.27.08.41.1h.09a7.1 7.1 0 0 0 3.09 9.27l-.18.12a2.71 2.71 0 0 0-.61.85 12.51 12.51 0 0 0-1.21 2.71c-.2.85-.24 1.73-.51 2.57-.46 1.52-1.64 2.85-1.78 4.47-.06.72.06 1.56-.46 2a3 3 0 0 1-.4.3 3.28 3.28 0 0 0-.89.93 2.86 2.86 0 0 1-.59.82c-.46.35-1.22.32-1.45.86s.36 1.17.22 1.75-.63.7-1 1a3.53 3.53 0 0 0-.86 1.63 5.22 5.22 0 0 1-4.32-1.1 8.08 8.08 0 0 1 .44 1.62 6.73 6.73 0 0 0-2.33-1.17 7.47 7.47 0 0 1-2.49-1.68l1.33-.18-5.87-8.91-1.73-.36 1.55 3a.89.89 0 0 0-.5.63 2.7 2.7 0 0 0-.07 1 20.93 20.93 0 0 0 .4 2.37l.46 2.1a3.77 3.77 0 0 0 .14.58 6 6 0 0 0-1.74.2 15.42 15.42 0 0 0-3.61-.85 1.75 1.75 0 0 0-.82 0 2 2 0 0 0-.76.62 24.3 24.3 0 0 0-2.68 3.8c-3.16 5.49-7.37 10.28-11.31 15.25-2.73 1.11-5.47 2.16-8.22 3.2l-5.95 2.23a9.1 9.1 0 0 1-3.66.83c-.57 0-1.26-.12-1.58.36a3.2 3.2 0 0 0-.36.77l-.61.06a7.08 7.08 0 0 0-1.42-2.61.87.87 0 0 0-.67.51 8.43 8.43 0 0 1-.39.8c-.32.46-.87.69-1.26 1.08s-.65 1-1.07 1.4a4.21 4.21 0 0 1-2 .79 12.73 12.73 0 0 0-3.14 1.2 6.21 6.21 0 0 1-1.17.54 4.44 4.44 0 0 1-1.36 0l-3.13-.23a2.64 2.64 0 0 0-.84 0 1.56 1.56 0 0 0-1 1.6 2.54 2.54 0 0 0 1 1.73 6.54 6.54 0 0 0 1.78.92 51.23 51.23 0 0 0 8.34 2.57v.63a14.18 14.18 0 0 0 6.39 1.52 1.06 1.06 0 0 0 .47-.08 1 1 0 0 0 .4-.63 25.78 25.78 0 0 0 1.28-6.17 3.08 3.08 0 0 0 1.1-.27c1.08-.3 2.15.44 3.26.56 1.37.15 2.64-.65 3.93-1.14l.56-.19a6.11 6.11 0 0 1-1.29 1.25c-.53.39-1.14.67-1.66 1.07a12.23 12.23 0 0 1-1.4 1.09 8.27 8.27 0 0 1-1.08.41 7.48 7.48 0 0 0-1.52.77 3 3 0 0 0-1.06 1 1.39 1.39 0 0 0 .34 1.93 1.47 1.47 0 0 0 .6.23 4.57 4.57 0 0 0 1.28 0c1.69-.13 3.38-.29 5.06-.44a15.17 15.17 0 0 0 2.13-.3c.37-.09.73-.21 1.1-.31a8.91 8.91 0 0 1 1.93-.29 1.75 1.75 0 0 1 .56.06c.39.12.67.5 1.07.61a1.85 1.85 0 0 0 .77-.11 17.53 17.53 0 0 1 3.76-.4c.55 0 1.2-.14 1.45-.65s-.21-1.34-.42-2a6.64 6.64 0 0 1-.17-1.33 8.36 8.36 0 0 0-.93-3.16 7.54 7.54 0 0 1-.69-1.43 37.28 37.28 0 0 0 6.9-3.5 12.6 12.6 0 0 1 3.94-1.9 10.69 10.69 0 0 1 4.95.57 113.56 113.56 0 0 1 11.34 4 56.67 56.67 0 0 0 5.36 2 8.18 8.18 0 0 0 1.9 1.86 8.77 8.77 0 0 0 4.12 1.12 53.55 53.55 0 0 0 5.8.22 9.88 9.88 0 0 0 4.33-.8 5.51 5.51 0 0 0 .91-.6 3.59 3.59 0 0 0 2.84-1.05 7 7 0 0 0 2.18-3.42c.47-1.83.11-4 1.23-5.45.3-.4.69-.73 1-1.13a3.09 3.09 0 0 0 .51-1.84v-.08a7.28 7.28 0 0 0 .51-1.84 10.34 10.34 0 0 1 .5-1.45 45 45 0 0 0 1.49-4.32 24.63 24.63 0 0 0 .69-3c.12-.8.19-1.6.26-2.41a14.2 14.2 0 0 1 .73-3.7 30.08 30.08 0 0 0 1.67-8.87v-.18a5.93 5.93 0 0 0 5.29-6 6.19 6.19 0 0 0-.54-2.58 8 8 0 0 0 1.09-4.03zm-28.68 34.8c.08.31.19.62.29.93l-1.4-1.4.55.19a2.93 2.93 0 0 1 .56.28zm-2.27-1.52c-2.77-2.4-6-4.26-8.8-6.58 1.52.76 3 1.65 4.56 2.5q2.66 1.52 5.37 2.9a4.27 4.27 0 0 1-1.12 1.16zm1.18-6l.13-.13v.94l-.74-.25a6.76 6.76 0 0 0 .62-.58zm-24.34 6.5a23.68 23.68 0 0 0 3-4.2c1.09 1.91 2.87 3.3 4.4 4.9-2.44-.34-4.89-.61-7.34-.72z"/><path id="Path_1579" class="cls-6" d="M57.56 95.24l1.75.35 6 8.8-2.63.35z"/><path id="Path_1580" class="cls-7" d="M15.25 130.92a34 34 0 0 0 1.75 4.56 41.72 41.72 0 0 0 5.8-1.66 16 16 0 0 0-1.21-1.63 5.45 5.45 0 0 0-1.64-1.26 4.46 4.46 0 0 0-2 0c-.9 0-1.8.01-2.7-.01z"/><path id="Path_1581" class="cls-6" d="M20 133.27a3.63 3.63 0 0 1-2-2.27 7.44 7.44 0 0 0-1.48-2.7.89.89 0 0 0-.67.51c-.15.25-.23.54-.4.78-.32.46-.87.68-1.27 1.07s-.65 1-1.08 1.38a4.51 4.51 0 0 1-2 .78 12.86 12.86 0 0 0-3.23 1.18 6.1 6.1 0 0 1-1.17.51 4.51 4.51 0 0 1-1.37 0l-3.16-.23a2.37 2.37 0 0 0-.84.05 1.51 1.51 0 0 0-1 1.58 2.45 2.45 0 0 0 1 1.7 6.72 6.72 0 0 0 1.79.91 54 54 0 0 0 8.46 2.48v.63a14.65 14.65 0 0 0 6.42 1.49 1.08 1.08 0 0 0 .5-.09 1.06 1.06 0 0 0 .41-.62 25.4 25.4 0 0 0 1.31-6.86 5.22 5.22 0 0 0-.13-1.76c-.18-.56.41-.33-.14-.55"/><path id="Path_1582" class="cls-6" d="M80.44 121.38c-9.35.57-18.59-2.18-28-2.47a13.92 13.92 0 0 0-3.47.22 17.24 17.24 0 0 0-3.45 1.34c-5 2.34-10.21 4.27-15.4 6.2l-5.95 2.22a9.26 9.26 0 0 1-3.7.81c-.57 0-1.26-.12-1.59.36-1 1.43-.5 3.54.14 5.15.2.51.55 1.09 1.11 1.15a3 3 0 0 0 1.14-.29c1.08-.29 2.17.44 3.28.56 1.38.15 2.67-.64 4-1.12 2.15-.8 4.51-.77 6.78-1.15a30.45 30.45 0 0 0 10.67-4.36 12.16 12.16 0 0 1 4-1.87 10.94 10.94 0 0 1 5 .56 113.94 113.94 0 0 1 11.43 3.9 55.51 55.51 0 0 0 6 2.18 21.69 21.69 0 0 0 13.39-.78c1.52-.6 3.12-1.64 3.21-3.26 0-.92-.67-1.73-1.14-2.53-.31-.5-.61-1-1-1.49-1.66-2.4-3.61-5.5-6.45-5.33z"/><path id="Path_1583" class="cls-8" d="M80.44 121.38c-9.35.57-18.59-2.18-28-2.47a13.92 13.92 0 0 0-3.47.22 17.24 17.24 0 0 0-3.45 1.34c-5 2.34-10.21 4.27-15.4 6.2l-5.95 2.22a9.26 9.26 0 0 1-3.7.81c-.57 0-1.26-.12-1.59.36-1 1.43-.5 3.54.14 5.15.2.51.55 1.09 1.11 1.15a3 3 0 0 0 1.14-.29c1.08-.29 2.17.44 3.28.56 1.38.15 2.67-.64 4-1.12 2.15-.8 4.51-.77 6.78-1.15a30.45 30.45 0 0 0 10.67-4.36 12.16 12.16 0 0 1 4-1.87 10.94 10.94 0 0 1 5 .56 113.94 113.94 0 0 1 11.43 3.9 55.51 55.51 0 0 0 6 2.18 21.69 21.69 0 0 0 13.39-.78c1.52-.6 3.12-1.64 3.21-3.26 0-.92-.67-1.73-1.14-2.53-.31-.5-.61-1-1-1.49-1.66-2.4-3.61-5.5-6.45-5.33z"/><path id="Path_1584" class="cls-7" d="M33.2 131.38c1.47.49 2.95 1 4.43 1.38.84-1.38 2.4-2.33 2.75-3.89a.37.37 0 0 0 0-.21.35.35 0 0 0-.17-.15 8.3 8.3 0 0 0-3.47-1c-1-.06-1.4 1-1.83 1.65-.15.26-1.32 2.35-1.71 2.22z"/><path id="Path_1585" class="cls-6" d="M35.26 130.38a3.19 3.19 0 0 1-2.15-1.38c-.21-.36-.42-.84-.84-.82s-.56.48-.64.86a25.07 25.07 0 0 1-1.21 4.16 7.84 7.84 0 0 1-2.59 3.4c-.54.38-1.14.66-1.68 1.05a10.53 10.53 0 0 1-1.41 1.08 7.53 7.53 0 0 1-1.09.4 7.51 7.51 0 0 0-1.56.76 3.2 3.2 0 0 0-1.06 1 1.37 1.37 0 0 0 .33 1.9 1.42 1.42 0 0 0 .6.23 4.64 4.64 0 0 0 1.29 0c1.7-.12 3.41-.28 5.11-.43a14.11 14.11 0 0 0 2.14-.29c.37-.09.74-.21 1.11-.31a9.17 9.17 0 0 1 2-.28 1.58 1.58 0 0 1 .57 0c.4.13.67.51 1.07.6a1.55 1.55 0 0 0 .77-.1 18.62 18.62 0 0 1 3.79-.4c.56 0 1.22-.13 1.47-.64s-.21-1.32-.42-2a7 7 0 0 1-.18-1.3 7.86 7.86 0 0 0-.93-3.1c-.44-.8-1-1.68-.73-2.53a2.09 2.09 0 0 0 .29-.87c-.12-1.32-3.31-.82-4.05-.99z"/><path id="Path_1586" class="cls-7" d="M66.42 106.38a7.32 7.32 0 0 1-3.73-3.7l-.43-1.09a8.19 8.19 0 0 0-2.26-3.08 1 1 0 0 0-.82-.35.86.86 0 0 0-.61.64 2.7 2.7 0 0 0-.07 1 20.66 20.66 0 0 0 .41 2.33l.46 2.07a3.63 3.63 0 0 0 .28.92 3.16 3.16 0 0 0 .76.91c.41.38.84.75 1.26 1.11a4.34 4.34 0 0 0 .77.56 4.56 4.56 0 0 0 1.42.41 12.32 12.32 0 0 1 5.31 2v-1.52a2.11 2.11 0 0 0-.4-1.11 6.69 6.69 0 0 0-2.35-1.1z"/><path id="Path_1587" class="cls-8" d="M66.42 106.38a7.32 7.32 0 0 1-3.73-3.7l-.43-1.09a8.19 8.19 0 0 0-2.26-3.08 1 1 0 0 0-.82-.35.86.86 0 0 0-.61.64 2.7 2.7 0 0 0-.07 1 20.66 20.66 0 0 0 .41 2.33l.46 2.07a3.63 3.63 0 0 0 .28.92 3.16 3.16 0 0 0 .76.91c.41.38.84.75 1.26 1.11a4.34 4.34 0 0 0 .77.56 4.56 4.56 0 0 0 1.42.41 12.32 12.32 0 0 1 5.31 2v-1.52a2.11 2.11 0 0 0-.4-1.11 6.69 6.69 0 0 0-2.35-1.1z"/><ellipse id="Ellipse_740" class="cls-6" cx="85.46" cy="88.29" rx="2.27" ry="2.29"/><path id="Path_1588" class="cls-6" d="M84.05 86.91a2.51 2.51 0 0 0-1.8.26 2.42 2.42 0 0 0-.61.84 12.2 12.2 0 0 0-1.19 2.78c-.2.84-.23 1.71-.5 2.54-.47 1.52-1.66 2.81-1.8 4.4-.06.71 0 1.54-.46 2a2.78 2.78 0 0 1-.41.29 3.16 3.16 0 0 0-.9.92 2.93 2.93 0 0 1-.64.88c-.46.34-1.23.31-1.45.84s.36 1.15.22 1.73-.64.69-1 1a3.47 3.47 0 0 0-.87 1.62 5.36 5.36 0 0 1-4.36-1.01 13.53 13.53 0 0 1 .67 5 2 2 0 0 1-.4 1.52 25.62 25.62 0 0 1 5.35.93 3.71 3.71 0 0 0 2.33 0 4.18 4.18 0 0 0 1.07-.85 6.83 6.83 0 0 0 2.2-3.39 19.58 19.58 0 0 0 0-2.3 12.7 12.7 0 0 1 .58-2.79 31.9 31.9 0 0 0 1-5.75c.11-1.2 1.14-2.16 1.69-3.23 1-2 2.07-4.13 2.15-6.4.13-.83-.12-1.74-.87-1.83z"/><path id="Path_1589" class="cls-8" d="M84.05 86.91a2.51 2.51 0 0 0-1.8.26 2.42 2.42 0 0 0-.61.84 12.2 12.2 0 0 0-1.19 2.78c-.2.84-.23 1.71-.5 2.54-.47 1.52-1.66 2.81-1.8 4.4-.06.71 0 1.54-.46 2a2.78 2.78 0 0 1-.41.29 3.16 3.16 0 0 0-.9.92 2.93 2.93 0 0 1-.64.88c-.46.34-1.23.31-1.45.84s.36 1.15.22 1.73-.64.69-1 1a3.47 3.47 0 0 0-.87 1.62 5.36 5.36 0 0 1-4.36-1.01 13.53 13.53 0 0 1 .67 5 2 2 0 0 1-.4 1.52 25.62 25.62 0 0 1 5.35.93 3.71 3.71 0 0 0 2.33 0 4.18 4.18 0 0 0 1.07-.85 6.83 6.83 0 0 0 2.2-3.39 19.58 19.58 0 0 0 0-2.3 12.7 12.7 0 0 1 .58-2.79 31.9 31.9 0 0 0 1-5.75c.11-1.2 1.14-2.16 1.69-3.23 1-2 2.07-4.13 2.15-6.4.13-.83-.12-1.74-.87-1.83z"/><path id="Path_1590" class="cls-6" d="M81.93 123.35c-2-.93-3.38-2.65-5-4.13-3-2.83-6.69-4.82-9.85-7.47-2.09-1.75-4-3.79-6.27-5.26a15.48 15.48 0 0 0-6.71-2.36 2.06 2.06 0 0 0-.82 0 2.09 2.09 0 0 0-.77.61 24.06 24.06 0 0 0-2.71 3.72c-4 6.8-9.69 12.52-14.4 18.84a.85.85 0 0 0-.06 1.15l1 1.87c.53 1 1.4 2.28 2.53 2.07a2.78 2.78 0 0 0 1.34-.86l4.3-4.11 4.49-4.28c2.65-2.53 5.34-5.11 7.06-8.34 1.35 2.33 3.74 3.86 5.38 6 .62.81 1.13 1.71 1.69 2.57.9 1.38 1.91 2.68 2.92 4l5.21 6.63a10.25 10.25 0 0 0 2.4 2.43 9.32 9.32 0 0 0 4.16 1.11 52 52 0 0 0 5.85.21 10 10 0 0 0 4.36-.78 4 4 0 0 0 2.36-3.51 5.14 5.14 0 0 0-.74-2.19 17.3 17.3 0 0 0-7.72-7.92z"/><ellipse id="Ellipse_741" class="cls-9" cx="86.86" cy="89.88" rx="1.75" ry="1.76"/><path id="Path_1591" class="cls-7" d="M86.47 88.56a3.27 3.27 0 0 1 .19 2.53 9.8 9.8 0 0 1-1.12 2.33 12 12 0 0 1-1.46 2.08 15 15 0 0 0 7.7-2.21 11.06 11.06 0 0 0 4.85-4.23 2.32 2.32 0 0 1-1.79-.33 6.92 6.92 0 0 1-1.37-1.28l-1.35-1.52a6 6 0 0 1-.84-1.1 3 3 0 0 1-.35-1.77 9.51 9.51 0 0 1-1.8 1.49c-1 .64-2 1.09-3 1.72-.34.22-1.11.58-.91 1s.98.8 1.25 1.29z"/><path id="Path_1592" class="cls-8" d="M86.47 88.56a3.27 3.27 0 0 1 .19 2.53 9.8 9.8 0 0 1-1.12 2.33 12 12 0 0 1-1.46 2.08 15 15 0 0 0 7.7-2.21 11.06 11.06 0 0 0 4.85-4.23 2.32 2.32 0 0 1-1.79-.33 6.92 6.92 0 0 1-1.37-1.28l-1.35-1.52a6 6 0 0 1-.84-1.1 3 3 0 0 1-.35-1.77 9.51 9.51 0 0 1-1.8 1.49c-1 .64-2 1.09-3 1.72-.34.22-1.11.58-.91 1s.98.8 1.25 1.29z"/><path id="Path_1593" class="cls-9" d="M86.51 88.82a2.28 2.28 0 0 0 0 2.64c.07.1.36.7.5.7a.47.47 0 0 0 .31-.16 20.63 20.63 0 0 0 1.68-2 3.83 3.83 0 0 1 2.18-1.42 4.74 4.74 0 0 1 3 .93 2.75 2.75 0 0 1 1 .84 2.56 2.56 0 0 1 .34 1.14 52.09 52.09 0 0 1 .3 7.28 27.76 27.76 0 0 1-.34 5.23c-.17.89-.43 1.76-.55 2.66a17.38 17.38 0 0 0-.11 2.39v3.35a8.63 8.63 0 0 0 .18 1.8 22.14 22.14 0 0 0 .74 2.12 14.52 14.52 0 0 1 .5 2.53l.46 3.46a4.25 4.25 0 0 1-.41 3.16c-.29.4-.69.72-1 1.11-1.14 1.45-.76 3.55-1.27 5.35a6.75 6.75 0 0 1-2.2 3.37 3.56 3.56 0 0 1-2.89 1c-1.4-.26-2.25-1.73-2.63-3.11s-.51-2.89-1.36-4a10.65 10.65 0 0 0-2.67-2.24 4.62 4.62 0 0 1-2.09-2.71c-.09-.51 0-1-.08-1.52a3.63 3.63 0 0 0-2.24-2.94c-.72-.28-1.61-.38-2-1a4.84 4.84 0 0 0 2.11-2.83 14.22 14.22 0 0 0 .51-3.55l.24-4a13.22 13.22 0 0 1 1-5.2c.35-.72.8-1.4 1.16-2.11a23 23 0 0 0 1.12-3.17c.57-1.65 1.15-3.3 1.66-5a10.11 10.11 0 0 1 .92-2.32c.49-.72 1.12-1.6 1.93-1.78z"/><path id="Path_1594" class="cls-6" d="M77.58 114.94h1.06l.23-1.61a3.89 3.89 0 0 1 .22-.94 6.56 6.56 0 0 1 .62-.9c1-1.47 1-3.44 1.23-5.24a25.7 25.7 0 0 1 2.34-6.85l2.06-4.6a5 5 0 0 0 .57-2.54c0-.71.23-3.3.25-4 0-.26-.58-.12-.7-.35-.26-.51-.61.87-1.1 1.17a2.71 2.71 0 0 0-1 1.4c-.45 1.16-.72 2.38-1.14 3.54a7.27 7.27 0 0 1-1.93 3.14c-.42.37-.91.67-1.31 1.06-1.28 1.27-1.41 3.28-1.45 5.06.02 1.15-.19 11.66.05 11.66z"/><path id="Path_1595" class="cls-6" d="M92.9 86.9a3.67 3.67 0 0 0-1.9 2.6 12.78 12.78 0 0 1-1 3.19c-1.3 2.26-4.6 2.92-5.52 5.36a9.79 9.79 0 0 0-.37 2.53c-.16 1.75-.74 3.44-.91 5.19a23 23 0 0 0 .1 4.07l1.16 13.79a18 18 0 0 1-.35 6.08 5.86 5.86 0 0 0 3.47-.57c1.09-.51 2.09-1.18 3.13-1.75 1.8-1 3.78-1.7 5.35-3a3.27 3.27 0 0 0 .73-.8 6.74 6.74 0 0 0 .5-1.82 12.16 12.16 0 0 1 .51-1.43 43 43 0 0 0 1.52-4.25 24.74 24.74 0 0 0 .69-2.92c.13-.79.19-1.58.26-2.37a14.18 14.18 0 0 1 .74-3.65 29.25 29.25 0 0 0 1.68-8.74 4.23 4.23 0 0 0-.08-1.28 7.26 7.26 0 0 0-.7-1.46c-.48-.91-.77-1.9-1.23-2.82a13.66 13.66 0 0 0-4.73-5c-.95-.65-1.95-1.35-3.05-.95z"/><path id="Path_1596" class="cls-7" d="M68.72 109.4a8.53 8.53 0 0 1-2.2-1.67c-.29-.34-.5-.72-.82-1a5.31 5.31 0 0 0-2.77-1.58 12.81 12.81 0 0 0-3.21-.31 5.69 5.69 0 0 0-2.13.25 2.17 2.17 0 0 0-1.42 1.52 2.53 2.53 0 0 0 1.08 2.25 5.13 5.13 0 0 0 2.15 1 16 16 0 0 0 2 .23c3.82.4 7.24 2.48 10.6 4.38q4.41 2.51 9 4.68a18.3 18.3 0 0 0 .15-2.77c0-.69 0-1.74-.7-2.15a15 15 0 0 0-2.86-.86 45.78 45.78 0 0 1-5.81-2.37c-1.07-.48-2.08-1-3.06-1.6z"/><ellipse id="Ellipse_742" class="cls-7" cx="85.46" cy="80.91" rx="6.82" ry="6.86"/><path id="Path_1597" class="cls-6" d="M94.85 94.68a11 11 0 0 0-1.33 2.46c-.84 1.74-2.16 3.23-2.82 5.07s-.68 4.18-2 5.69a1.93 1.93 0 0 0-.59.86 4.36 4.36 0 0 1-.07.62c-.19.55-1.09.57-1.26 1.13a2.17 2.17 0 0 1-.08.5c-.14.36-.61.41-.93.63-.66.45-.5 1.5-1 2.14a1.79 1.79 0 0 1-1.7.6 6.2 6.2 0 0 1-1.77-.66 1.55 1.55 0 0 0-.63-.2 1.32 1.32 0 0 0-.74.25 4.52 4.52 0 0 0-1.84 3.89 12.5 12.5 0 0 0 1 4.34 1.78 1.78 0 0 0 .35.65 1.51 1.51 0 0 0 1.7.12 8.16 8.16 0 0 1 1.66-.77c1.06-.19 2.09.54 3.16.48a4.42 4.42 0 0 0 2.13-.94 11.9 11.9 0 0 0 2.91-2.43c.46-.61.81-1.31 1.22-2a21.51 21.51 0 0 1 1.72-2.3l3.9-4.81a9.54 9.54 0 0 0 1.06-1.46 10.82 10.82 0 0 0 .83-2.2 17.4 17.4 0 0 0 .81-3.92 15.7 15.7 0 0 0-.29-3.28 11.69 11.69 0 0 0-.84-3.14c-.88-1.73-2.96-3.2-4.56-1.32z"/><path id="Path_1598" class="cls-10" d="M108.55 85.74a7.66 7.66 0 0 0-3.16-6.24 9.11 9.11 0 0 0-7.75-8.89 8.86 8.86 0 0 0-17.46.47c-2.83-.64-5.43.19-5.9 1.94s1.52 4 4.52 4.77a8.07 8.07 0 0 0 2.89.29 8.9 8.9 0 0 0 6.11 3.8 9.07 9.07 0 0 0 6.66 6.88 7.62 7.62 0 0 0 2.05 2.84v.65a5.78 5.78 0 1 0 11.54.49 4 4 0 0 0 0-.49 6 6 0 0 0-.55-2.53 7.73 7.73 0 0 0 1.05-3.98z"/><path id="Path_1599" class="cls-8" d="M76.21 73.37c.47-1.75 3-2.58 5.9-1.94a9 9 0 0 1 8.77-7.6h.59a8.67 8.67 0 0 0-2.53-.38 9 9 0 0 0-8.78 7.6c-2.83-.63-5.43.2-5.9 1.94s1.52 4 4.52 4.78a9 9 0 0 0 1.71.29c-2.85-.83-4.76-2.9-4.28-4.69z"/><path id="Path_1600" class="cls-8" d="M98.4 92.61a4.87 4.87 0 0 1 0-.66 7.64 7.64 0 0 1-2.06-2.84 9.12 9.12 0 0 1-6.66-6.88 8.86 8.86 0 0 1-6.1-3.8 8 8 0 0 1-1.7 0 8.86 8.86 0 0 0 5.88 3.49 9.09 9.09 0 0 0 6.66 6.87 7.57 7.57 0 0 0 2.06 2.85v.65a5.89 5.89 0 0 0 5.74 6 6 6 0 0 1-3.82-5.68z"/><ellipse id="Ellipse_743" class="cls-7" cx="87.73" cy="82.31" rx="1.05" ry="1.4" transform="translate(-31.92 69.87) rotate(-37.24)"/></g></svg>