<svg xmlns="http://www.w3.org/2000/svg" viewBox="0 0 167 148"><defs><style>.cls-1{fill:#657ee4;}.cls-10,.cls-2{opacity:0.1;}.cls-2,.cls-8{isolation:isolate;}.cls-3{fill:#fdfdfd;}.cls-4{fill:#fff;}.cls-5{fill:url(#linear-gradient);}.cls-6{fill:#db8b8b;}.cls-7{fill:#35323e;}.cls-8{opacity:0.05;}.cls-9{fill:#526ee0;}.cls-11{fill:#6a5c99;}.cls-12{fill:#6c63ff;}</style><linearGradient id="linear-gradient" x1="-252.03" y1="1205.07" x2="-252.03" y2="1204.07" gradientTransform="matrix(94.55 0 0 -95.21 23950.51 114676.2)" gradientUnits="userSpaceOnUse"><stop offset="0" stop-color="#808080" stop-opacity=".25"/><stop offset=".54" stop-color="#808080" stop-opacity=".12"/><stop offset="1" stop-color="#808080" stop-opacity=".1"/></linearGradient></defs><title>Settings - Illustrations</title><g id="Group_3196"><circle id="Ellipse_738" class="cls-1" cx="69.71" cy="69.4" r="69.4"/><path id="Path_1561" class="cls-2" d="M141.36 68.65a2.14 2.14 0 0 1 .27 1.1c-.16-.86-1.29-1.28-1.36-2.09 0-.37 0-.35.27-.15s.46.83.82 1.14z"/><path id="Path_1562" class="cls-2" d="M137.94 71.14a1.66 1.66 0 0 1 .5.75 1.86 1.86 0 0 1 .1 1.33c-.16-.08-.21-.28-.26-.46a2.9 2.9 0 0 0-.36-.78c-.12-.21-.75-.71-.74-1s.59.02.76.16z"/></g><path id="Path_1601" class="cls-3" d="M90.35 31h-.2a23.48 23.48 0 0 0-19.6 10.73 23.47 23.47 0 0 0-19.55-10.73h-.2a23.32 23.32 0 0 0-23.21 23.33c0 7.64 3.34 18.46 9.87 27.37 12.41 17 33 31.82 33 31.82s20.63-14.85 33-31.82c6.52-8.91 9.87-19.73 9.87-27.37a23.34 23.34 0 0 0-22.98-23.33z"/><g id="Group_3202"><path id="Path_1602" class="cls-4" d="M42.57 69.84v-2.26l-2.38 2.21a.24.24 0 0 1-.14 0 .24.24 0 0 1-.23-.23v-4.2a.23.23 0 0 1 .23-.22.24.24 0 0 1 .14 0l2.38 2.19v-2.19h.52v4.7h-.52z"/><path id="Path_1603" class="cls-4" d="M40.05 65.27h.05l2.16 2 .22.21-.22.21-2.16 2h-.05a.09.09 0 0 1-.1-.09v-4.23a.09.09 0 0 1 .1-.1m2.92 0v4.43h-.26v-4.43h.29m-3-.27a.36.36 0 0 0-.36.35v4.25a.36.36 0 0 0 .36.4.35.35 0 0 0 .23-.09l2.16-2v2a.13.13 0 0 0 .13.13h.52a.14.14 0 0 0 .14-.13v-4.75a.14.14 0 0 0-.14-.14h-.52a.13.13 0 0 0-.13.14v1.94l-2.17-2a.35.35 0 0 0-.22-.1z"/><path id="Path_1604" class="cls-5" d="M167.1 76.9l.2-.14a10.71 10.71 0 0 1-2.93.44 12.73 12.73 0 0 1-4.89-1.07 18.2 18.2 0 0 1-6.52-5c-2.47-2.94-4.33-6.56-7.63-8.53a6.16 6.16 0 0 0-2.23-.84 10.47 10.47 0 0 0-4.11.74c-5.85 1.68-12.77.45-16.8-4.11-.85-1-1.56-2.05-2.51-2.93-3.12-2.91-8.1-2.83-12.05-1.22-.24.1-.47.2-.7.32v-.16a4.49 4.49 0 0 0-1.85 1.34 4.39 4.39 0 0 0-.54 3.41 3.35 3.35 0 0 0 .3 1.07 3.19 3.19 0 0 0-.75 2.06 2.62 2.62 0 0 0 0 .28 11.48 11.48 0 0 0-8.89 9.91v-.08c0 .4-.06.81-.07 1.21v.16a11.49 11.49 0 0 0 3.58 8.24 8.55 8.55 0 0 0 3.38 4.25c0 .13-.06.26-.1.4a7.44 7.44 0 0 1-5.06 5.41l-.4.12-.64.18-.26.08c-6.39 1.85-8.22 3.35-8.8 5.82-.47 2-1 5.67-1.27 7.12-.46 1.07-3.61 8.52-3.36 12.82 0 .74.06 1.48 0 2.23 0 1.5.4 3.93 3.6 3.29a76.39 76.39 0 0 0 7.5-2.15c-.16.5-.35 1-.55 1.49a21.06 21.06 0 0 0-1.19 3.06v1.3399999999999999a1.23 1.23 0 0 0 0 .2.57.57 0 0 0 0 .13v.22a.29.29 0 0 0 0 .09v.12a.56.56 0 0 0 0 .12 4 4 0 0 1 .27 1 1.66 1.66 0 0 1-.06.55v.14a1.76 1.76 0 0 1-.1.3 1.09 1.09 0 0 1 0 .17v.6a2.73 2.73 0 0 0 .44 1.19l.15.26-10.92-.18a9.45 9.45 0 0 0-6.42 2.63c-3.14 2.7-1.93 5.34.56 7.5a32.77 32.77 0 0 0 8.7 4.81l.84.31h26.79l.4.09a18.41 18.41 0 0 0 3.71.32 38.22 38.22 0 0 0 4.53-.26l1.36-.16h2.87l.26.05c1.32.28 2.71 1 4 .47a1.4 1.4 0 0 0 .63-.52h3.2c5.93 0 9.32-2 11-4.65a9.58 9.58 0 0 0 1.16-6.44c-.64-4.52-16.49-4.66-21.26-4.59a1.71 1.71 0 0 0-.2-.18c-.55-.43-1.22-.88-1.29-1.58 0-.42.16-.84.09-1.25-.11-.73-.91-1.08-1.53-1.46-2.13-1.3-3-4.06-2.75-6.54l.06-.48c0-.12 0-.24.05-.37v-.09a70 70 0 0 0 7.4 1.94c9.41 2 7-2.73 7-2.73s-1.06-6.69-1.67-9.28a88.91 88.91 0 0 0-3.64-9.42l-.08-.18c0-.84-.35-6.68-4.85-7.8-1.34-.34-2.79-.62-4.18-1h-.1c-.46-.12-.92-.26-1.37-.4-2.46-.8-4.51-2-5.06-4.47l-.08-.41a8.5 8.5 0 0 0 3.38-4.42 11.42 11.42 0 0 0 3.32-8.06v-.15a12.09 12.09 0 0 0-.07-1.21v.07a11.56 11.56 0 0 0-.58-2.54 11.83 11.83 0 0 0 2.9 1.93 9.32 9.32 0 0 0 4 .84 9.5 9.5 0 0 0 2.58-.39c2.11-.6 4-2 6.18-2.25a5.79 5.79 0 0 1 .82-.05 14 14 0 0 1 6.23 2.08 73.09 73.09 0 0 1 7.3 4.51c2.3 1.63 4.63 3.44 7.4 4a9.7 9.7 0 0 0 1.87.15 14.4 14.4 0 0 0 5.1-1 23.8 23.8 0 0 0 5.66-2.94zm-56.17-13.83l-.5-.19v-.2l.47.4zm-21.3 53.36s1.91-5.36 1.92-6.7l1.19-3.4.44.7c0 .24-.08.47-.11.7l-.1.66c0 .22-.06.44-.08.67a.55.55 0 0 1 0 .18v.83a2.46 2.46 0 0 0 0 .26v.09a1.09 1.09 0 0 0 0 .26c0 .08 0 .19.06.29.23.84.73 1.59 1 2.42 0 .08 0 .15.07.23v.6100000000000001a1.87 1.87 0 0 0 0 .25 9.91 9.91 0 0 1 0 1.44 3.24 3.24 0 0 1 0 .44c-2 .34-4 .46-4.64 0zm31.16-10c.47 2 3.28 8.43 3.28 8.43-.52.39-2.46.3-4.52.08 0-.1.08-.2.11-.29l.06-.16.1-.26.19-.52.12-.34c0-.12.07-.24.11-.36v-.14l.06-.23a.2.2 0 0 1 0-.11v-.2a.13.13 0 0 1 0-.09.06.06 0 0 0 0-.06.44.44 0 0 0 0-.1v-.54c0-.18 0-.34.07-.51v-.5a.55.55 0 0 1 0-.18.28.28 0 0 0 0-.13v-1.7800000000000002a11.16 11.16 0 0 0-.16-1.16z"/><path id="Path_1605" class="cls-6" d="M126.63 100.83l-6 5.57-.45 1.17-.3.78-25.48 1.21-1.4-2.17-.44-.7-1.2 3.47-6-3.76s.76-5.12 1.36-7.68 2.39-3.93 8.74-5.77l.26-.08.63-.18a3 3 0 0 0 .4-.12 7.37 7.37 0 0 0 5-5.36 12.32 12.32 0 0 0 .3-4.76s9.27-2.94 9 2.94a6.73 6.73 0 0 0 .13 1.79c.55 2.43 2.59 3.64 5 4.42.45.14.9.27 1.36.39h.1c1.38.35 2.82.64 4.16 1 4.83 1.21 4.83 7.84 4.83 7.84z"/><path id="Path_1606" class="cls-7" d="M105.18 56.53a5 5 0 0 1 2.2-1.48c3.92-1.6 8.86-1.67 12 1.21.93.87 1.64 2 2.49 2.9 4 4.52 10.87 5.74 16.67 4.07a10.58 10.58 0 0 1 4.09-.73 5.89 5.89 0 0 1 2.21.84c3.27 1.94 5.12 5.53 7.58 8.44a17.84 17.84 0 0 0 6.47 5 11.9 11.9 0 0 0 8.06.62 24.37 24.37 0 0 1-5.62 2.91 12.74 12.74 0 0 1-6.63.82c-2.75-.52-5.06-2.31-7.35-3.92a69.05 69.05 0 0 0-7.24-4.47c-2.26-1.22-4.76-2.34-7.3-2-2.16.3-4 1.63-6.14 2.22a9.32 9.32 0 0 1-6.35-.46c-5.38-2.44-7.84-9.65-13.59-11-1.48-.34-1.75.18-2-1.62a4.35 4.35 0 0 1 .45-3.35z"/><path id="Path_1607" class="cls-2" d="M163.32 78a12.79 12.79 0 0 1-6.62.81c-2.75-.52-5.06-2.31-7.35-3.92a70.77 70.77 0 0 0-7.24-4.47c-2.26-1.22-4.76-2.34-7.3-2-2.16.3-4 1.63-6.14 2.23a9.35 9.35 0 0 1-6.36-.47c-5.37-2.44-7.83-9.65-13.59-11-1.47-.35-1.74.17-2-1.63a5.37 5.37 0 0 1 0-2.36 4.41 4.41 0 0 0-1.84 1.32 4.24 4.24 0 0 0-.52 3.38c.3 1.8.57 1.29 2 1.62 5.76 1.33 8.22 8.54 13.59 11a9.39 9.39 0 0 0 6.35.47c2.1-.59 4-1.92 6.14-2.22 2.55-.35 5.05.78 7.3 2a68.17 68.17 0 0 1 7.26 4.48c2.29 1.61 4.6 3.4 7.35 3.92a12.79 12.79 0 0 0 6.62-.81 24.67 24.67 0 0 0 5.63-2.92 10.3 10.3 0 0 1-2.91.43z"/><circle id="Ellipse_744" class="cls-7" cx="106.37" cy="74.39" r="11.37"/><path id="Path_1608" class="cls-2" d="M106.37 83.2a11.37 11.37 0 0 1-11.3-10.2 9.66 9.66 0 0 0-.07 1.2 11.38 11.38 0 1 0 22.75.35v-.35a9.66 9.66 0 0 0-.07-1.2 11.37 11.37 0 0 1-11.31 10.2z"/><path id="Path_1609" class="cls-2" d="M111.18 87.18a8.44 8.44 0 0 1-9.4 0 12.32 12.32 0 0 0 .3-4.76s9.26-2.94 9 2.94a6.73 6.73 0 0 0 .1 1.82z"/><circle id="Ellipse_745" class="cls-6" cx="106.45" cy="79.74" r="8.44"/><path id="Path_1610" class="cls-8" d="M105.27 102.76a6 6 0 0 1 1 1.47 3.32 3.32 0 0 1 .29 2.8 4 4 0 0 1 .57-3.27 6 6 0 0 1 2.63-2.11"/><path id="Path_1611" class="cls-7" d="M143.18 143c-1.65 2.66-5 4.6-10.9 4.6h-47.44s-.31-.1-.83-.31a32.12 32.12 0 0 1-8.64-4.76c-2.47-2.14-3.68-4.75-.56-7.43a9.37 9.37 0 0 1 6.26-2.22l16 .26 24.85-1.07s21.69-.75 22.44 4.52a9.56 9.56 0 0 1-1.18 6.41z"/><path id="Path_1612" class="cls-9" d="M123.84 133.63c-.26.57-1 .7-1.56.88-2.46.72-4 3.12-5.94 4.76a11.18 11.18 0 0 1-3.32 1.94 15 15 0 0 1-8.66.28c-2.85-.67-6.1-1.23-8.24-3.23a23.76 23.76 0 0 1-4.36-5.46 2.48 2.48 0 0 1-.43-1.17v-.29a.12.12 0 0 1 0-.1.36.36 0 0 1 0-.11v-.12a.49.49 0 0 1 0-.11c0-.17.11-.33.16-.52a1 1 0 0 0 .05-.16 1.72 1.72 0 0 0 .06-.55 5.26 5.26 0 0 0-.27-1 .49.49 0 0 0 0-.11v-.13a1.72 1.72 0 0 1-.05-.26 2.34 2.34 0 0 1 0-.26v-.59a.66.66 0 0 1 0-.2l.06-.44a1.69 1.69 0 0 1 0-.24v-.13a22.47 22.47 0 0 1 1.18-3 19.23 19.23 0 0 0 1.52-7 9.63 9.63 0 0 0-.05-1.42v-.41000000000000003s0-.18-.06-.26v-.17c0-.06 0-.15-.07-.23-.26-.83-.78-1.56-1-2.41 0-.1 0-.21-.07-.31v-.36a2.83 2.83 0 0 1 0-.41v-.38a2.62 2.62 0 0 1 0-.28.54.54 0 0 0 0-.18v-.68l.1-.65.11-.7a9 9 0 0 1 1-3c.8-1.35 2.24-2.4 2.48-3.95a5 5 0 0 0-.14-1.85l-.09-.4a39.57 39.57 0 0 1-.8-5.2l.26-.08.64-.18.4-.12a32.48 32.48 0 0 0 .69 5.2 11.91 11.91 0 0 0 1.38 3.85 5.38 5.38 0 0 0 3.12 2.51 7.71 7.71 0 0 0 2.71.1c1.82-.16 3.62-.4 5.42-.74a13.29 13.29 0 0 0 3.78-1.18 2.73 2.73 0 0 0 .81-.62 3.31 3.31 0 0 0 .51-1.19 33 33 0 0 0 1-8.9q.66.21 1.35.39h.1v3.2199999999999998a.21.21 0 0 1 0 .11v.43l-.08.59v.26c0 .37-.11.75-.16 1.13a11.89 11.89 0 0 0-.1 1.69 6.43 6.43 0 0 0 1.48 3.43 10.39 10.39 0 0 1 1.47 4q.09.36.15.72a11.2 11.2 0 0 1 .17 1.14.79.79 0 0 0 0 .22.43.43 0 0 1 0 .16v1.63a.91.91 0 0 1 0 .23.33.33 0 0 0 0 .14v.15a.91.91 0 0 1 0 .23v.55l-.1.52-.16.64a1.05 1.05 0 0 1-.05.19c-.07.24-.14.47-.23.7-.29.82-.61 1.63-.91 2.45 0 .13-.1.26-.14.4l-.14.4-.14.42a4 4 0 0 0-.13.41c-.08.28-.16.56-.23.84l-.07.26a.5.5 0 0 1 0 .12v.11c0 .18-.07.35-.11.53v.23l-.06.44v.47c-.21 2.46.61 5.2 2.72 6.48.62.38 1.41.73 1.52 1.44.07.42-.12.83-.08 1.25.06.69.72 1.13 1.27 1.56.07.32.59 1.01.33 1.64z"/><g id="Group_3201" class="cls-10"><path id="Path_1613" d="M117.6 118.73a9 9 0 0 0 .05 1.94 32.59 32.59 0 0 1 2-6.61 12.31 12.31 0 0 0 .66-5.35 12.39 12.39 0 0 1-.66 2.94c-.82 2.35-1.86 4.63-2.05 7.08z"/><path id="Path_1614" d="M117.67 92v1.47c0 .3 0 .59-.05.89a4.21 4.21 0 0 1 0 .5v.36a.22.22 0 0 1 0 .11v.43l-.09.59v.26c-.06.37-.12.75-.16 1.13a3.57 3.57 0 0 1-.1-.72 23.77 23.77 0 0 1 .37-3.67c.06-.46.1-.93.13-1.39z"/><path id="Path_1615" d="M93.87 113.76a5.61 5.61 0 0 1 .23 1.08c0-.33 0-.66.05-1a7.54 7.54 0 0 0-.28-2.5c-.26-.83-.78-1.56-1-2.4 0-.07 0-.14-.05-.2a6.69 6.69 0 0 0 .05 2.6c.23.85.73 1.59 1 2.42z"/><path id="Path_1616" d="M123 131.88c-.24.09-.5.15-.74.22-2.46.72-4 3.12-5.94 4.76a11 11 0 0 1-3.32 1.94 15 15 0 0 1-8.66.28c-2.85-.67-6.1-1.23-8.24-3.22a24.19 24.19 0 0 1-4.36-5.46l-.09-.16a5.21 5.21 0 0 0-.34 1.4 2.48 2.48 0 0 0 .43 1.17 23.49 23.49 0 0 0 4.36 5.46c2.15 2 5.39 2.56 8.24 3.23a15.12 15.12 0 0 0 8.66-.28 11.18 11.18 0 0 0 3.32-1.94c2-1.65 3.48-4 5.94-4.76.6-.17 1.3-.31 1.56-.88s-.24-1.33-.82-1.76z"/><path id="Path_1617" d="M91.72 127.28a3.82 3.82 0 0 0-.26-1 4.41 4.41 0 0 0 0 2.28 4.07 4.07 0 0 0 .26-1.28z"/><path id="Path_1618" d="M96.48 98a3.53 3.53 0 0 1-.14.56l-.09-.4a39.83 39.83 0 0 1-.8-5.2l.26-.08c.14 1 .31 1.92.52 2.86a5.77 5.77 0 0 1 .25 2.26z"/></g><path id="Path_1619" class="cls-6" d="M87.24 104.37l-1.73 1.28s-3.66 8.22-3.39 12.83c0 .74.06 1.47 0 2.21 0 1.49.4 3.9 3.57 3.26 4.52-.9 15.66-5 15.66-5l-.75-3.62s-9.49 2.41-11.13 1.37c0 0 2.18-6.1 1.88-6.85l-4.11-5.48z"/><path id="Path_1620" class="cls-6" d="M125.66 98.49l1 2.41a89.66 89.66 0 0 1 3.62 9.34c.6 2.56 1.66 9.19 1.66 9.19s2.41 4.68-6.93 2.71l-13.26-4.36 1.82-3.32s8.88 1.66 10.09.75c0 0-3.62-8.28-3.32-8.88l5.32-7.84z"/><path id="Path_1621" class="cls-6" d="M99.14 116.42l1.5-1.36s2.87-13.26 5.43-11.3l-1.07 13.24-3.61 2z"/><path id="Path_1622" class="cls-6" d="M114.51 115.51l-.9-1.05s-3.17-13.1-5.88-10.85l2.85 13.12 1.21 1.06 2.41-.6z"/><path id="Path_1623" class="cls-6" d="M120.68 139.77s-11.31 1.18-12.28 1.87l-.37 4.9 14.91-.9z"/><path id="Path_1624" class="cls-2" d="M120.68 139.77s-11.31 1.18-12.28 1.87l-.37 4.9 14.91-.9z"/><path id="Path_1625" class="cls-2" d="M140 143.16c-1.64 2.66-2.18 4.14-8.06 4.14h-12.94v-7.83l1.65-.9a30.94 30.94 0 0 1 14.92-2.11z"/><path id="Path_1626" class="cls-7" d="M143.18 143c-1.65 2.66-5 4.6-10.9 4.6h-13v-7.83l1.65-.9a30.94 30.94 0 0 1 14.92-2.11z"/><path id="Path_1627" class="cls-6" d="M115.22 141.12a4 4 0 0 1 1.62-.21 2.35 2.35 0 0 1 1.56 1.09 1.74 1.74 0 0 0 .45.62 1.38 1.38 0 0 0 .74.21 34.14 34.14 0 0 1 5.33.62 6.25 6.25 0 0 1 4.18 3.09 1.41 1.41 0 0 1 .16.6 1.2 1.2 0 0 1-.78 1c-1.24.54-2.62-.18-3.94-.47a14.12 14.12 0 0 0-4.54.11 35.63 35.63 0 0 1-4.5.26 18.2 18.2 0 0 1-3.68-.34c-.68-.14-1.35-.34-2-.43a13 13 0 0 0-2-.07c-3 0-6.09 0-9.13-.14a8.89 8.89 0 0 1-2.85-.44.93.93 0 0 1-.48-.35.91.91 0 0 1-.1-.43 8.59 8.59 0 0 1 .86-4.26c.21-.43.63-1.44 1.09-1.66s1.7.3 2.23.42a46.94 46.94 0 0 0 10.15 1.42 22.77 22.77 0 0 0 5.63-.64z"/><path id="Path_1628" class="cls-2" d="M98.39 139.31l-2 7.85-12.39-.31c-1.76-.68 2.69-2.57 0-4.89l-3.23-7.47a39.7 39.7 0 0 1 6.78 1.66 10.55 10.55 0 0 0 4.36.9s5.88 1.51 6.48 2.26z"/><path id="Path_1629" class="cls-7" d="M98.39 139.77l-2 7.83-12.39-.31a32.39 32.39 0 0 1-8.64-4.76l5.4-7.59a38.54 38.54 0 0 1 6.78 1.65 10.63 10.63 0 0 0 4.37.9s5.88 1.51 6.48 2.28z"/><ellipse id="Ellipse_746" class="cls-7" cx="106.4" cy="72.25" rx="4.37" ry="9.02" transform="translate(22.11 169.38) rotate(-83.23)"/><circle id="Ellipse_747" class="cls-7" cx="107.05" cy="63.02" r="3.16"/><path id="Path_1630" class="cls-2" d="M103.89 63s4-.76 5.9.52l-5.9-.52z"/><path id="Path_1631" class="cls-9" d="M117.73 73c0 .26-.17.57-.78 0-1.53-1.34-5-4.85-9.88-4.85-5 0-9.12 3.6-10.92 4.85-.61.42-1 .19-1 0 0-.89 5.2-8 12-8s10.58 7.12 10.58 8z"/><path id="Path_1632" class="cls-2" d="M117.44 72.16c-.08.17-.29.24-.75-.16-1.53-1.33-5-4.85-9.88-4.85-5 0-9.12 3.61-10.92 4.85a1.15 1.15 0 0 1-.43.21 2.13 2.13 0 0 0-.35.8c0 .23.43.45 1 0 1.8-1.24 5.88-4.85 10.92-4.85 4.83 0 8.35 3.52 9.88 4.85.61.52.78.22.78 0a2.76 2.76 0 0 0-.25-.85z"/><path id="Rectangle_1371" class="cls-11" d="M116.98 72.98h.85v4.81h-.85z"/><path id="Path_1633" class="cls-12" d="M115.85 76.09a2.93 2.93 0 0 1 2.92 2.91v.19a2.92 2.92 0 0 1-2.92 2.92z"/><path id="Rectangle_1372" class="cls-11" d="M115.94 75.81a.65.65 0 0 1 .66.66v5.28a.65.65 0 0 1-.66.66.66.66 0 0 1-.66-.66v-5.28a.66.66 0 0 1 .66-.66z"/><path id="Rectangle_1373" class="cls-11" d="M95.11 73.07h.85v4.81h-.85z"/><path id="Path_1634" class="cls-9" d="M97.09 82.22a2.92 2.92 0 0 1-2.92-2.92v-.19a2.93 2.93 0 0 1 2.92-2.93v6z"/><path id="Rectangle_1374" class="cls-11" d="M97 75.9a.67.67 0 0 1 .66.66v5.29a.67.67 0 0 1-.66.66.66.66 0 0 1-.66-.66v-5.29a.66.66 0 0 1 .66-.66z"/></g></svg>