<svg xmlns="http://www.w3.org/2000/svg" width="384" height="216" fill="none" viewBox="0 0 384 216">
  <defs/>
  <path fill="#EBEDED" d="M99.68 60.43a9.43 9.43 0 019.43-9.43H275a9.43 9.43 0 019.43 9.43v10.22H99.68V60.43z"/>
  <path fill="url(#paint0_linear)" d="M99.68 70.65h184.74v96.92a9.43 9.43 0 01-9.43 9.43H109.1a9.43 9.43 0 01-9.43-9.43V70.65z"/>
  <path fill="#EBEDED" fill-rule="evenodd" d="M274.99 52.4H109.1a8.03 8.03 0 00-8.03 8.03v107.14c0 4.43 3.6 8.03 8.03 8.03H275c4.43 0 8.03-3.6 8.03-8.03V60.43c0-4.43-3.6-8.03-8.03-8.03zM109.1 51a9.43 9.43 0 00-9.43 9.43v107.14a9.43 9.43 0 009.43 9.43H275a9.43 9.43 0 009.43-9.43V60.43a9.43 9.43 0 00-9.43-9.43H109.1z" clip-rule="evenodd"/>
  <circle cx="112.26" cy="61.22" r="3.14" fill="#C3C8CC"/>
  <circle cx="121.69" cy="61.22" r="3.14" fill="#C3C8CC"/>
  <circle cx="131.13" cy="61.22" r="3.14" fill="#C3C8CC"/>
  <path fill="#EBEDED" d="M191.54 152h2v24h-2v-24z"/>
  <path fill="#3F64E6" d="M198.93 162h-12.9l3.47-6.98h5.93l3.5 6.98z"/>
  <path fill="url(#paint1_linear)" d="M240.24 90.42c0 30.6-24.8 65.46-47.8 65.46-22.99 0-47.75-34.85-47.75-65.46 0-30.6 21.4-52.42 47.78-52.42 26.4 0 47.77 21.78 47.77 52.42z"/>
  <ellipse cx="170.37" cy="69.86" fill="url(#paint2_linear)" rx="12.24" ry="18.93" transform="rotate(39.42 170.37 69.86)"/>
  <path fill="#fff" d="M192.82 80.03s-10.66-.37-12.88 11.47v8.08s.06.86 2.53 2.65c2.46 1.79 8.69 6.72 10.35 6.72 1.67 0 7.96-5 10.36-6.72 2.4-1.73 2.53-2.65 2.53-2.65V91.5c-2.16-11.84-12.89-11.47-12.89-11.47zm7.34 15.91h-14.61v-4.38a7.96 7.96 0 017.33-5.98 7.89 7.89 0 017.34 5.98v4.38h-.06z"/>
  <path fill="#fff" d="M192.82 110.74a7.43 7.43 0 01-2.96-1.05l-9.92-7.1v12.21c.06.87.8 1.48 1.6 1.42h22.5c.87.06 1.6-.55 1.67-1.35V102.6l-9.93 7.09c-.86.55-1.85.92-2.96 1.05z"/>
  <path fill="url(#paint3_linear)" d="M260 55.75a23.75 23.75 0 1147.5 0 23.75 23.75 0 01-47.5 0z"/>
  <path fill="#fff" fill-rule="evenodd" d="M293.42 48.91c.6.6.6 1.57 0 2.17L282.4 62.19a1.53 1.53 0 01-2.17 0l-5.64-5.69a1.53 1.53 0 112.17-2.15l4.56 4.6 9.94-10.03c.6-.6 1.57-.6 2.17 0z" clip-rule="evenodd"/>
  <path fill="#80E5D4" d="M60.1 68.65L56.64 66 48 77.26l3.45 2.65 8.65-11.26z"/>
  <path fill="#657EE3" d="M97.27 109L94 111.88l9.38 10.65 3.27-2.88L97.27 109z"/>
  <path fill="#EB75B3" d="M68.05 151.1a3.05 3.05 0 100-6.1 3.05 3.05 0 000 6.1z"/>
  <path fill="#59CA6C" d="M357.05 130.1a3.05 3.05 0 100-6.1 3.05 3.05 0 000 6.1z"/>
  <path fill="#FFB7B7" d="M89.42 36h-4.28L83 39.7l2.14 3.74h4.28l2.18-3.74-2.18-3.7z"/>
  <path fill="#50506A" d="M20.8 97.68l-3.87 9.08 9.77-1.18-5.9-7.9z"/>
  <path fill="#FFD585" d="M262.18 95.6l-4.05-1.6-4.13 10.39 4.05 1.6 4.13-10.38z"/>
  <path fill="#C580E5" d="M330.58 101.85L328.53 98 316 104.66l2.04 3.85 12.54-6.66z"/>
  <path fill="#50506A" d="M357.43 54h-4.29L351 57.7l2.14 3.74h4.29l2.14-3.74-2.14-3.7z"/>
  <path fill="#EB75B3" d="M329.73 157l-7.73 6.1 9.18 3.63-1.45-9.73z"/>
  <path fill="url(#paint4_linear)" d="M128 160h-14v28.98a3 3 0 004.42 2.64l8.16-4.39a3 3 0 012.84 0l8.16 4.4a3 3 0 004.42-2.65V160h-14z"/>
  <path fill="url(#paint5_linear)" d="M128 173a19 19 0 100-38 19 19 0 000 38z"/>
  <path fill="#A01D48" d="M128 165a11 11 0 100-22 11 11 0 000 22z"/>
  <defs>
    <linearGradient id="paint0_linear" x1="192.05" x2="192.05" y1="97.78" y2="187" gradientUnits="userSpaceOnUse">
      <stop stop-color="#fff"/>
      <stop offset="1" stop-color="#FDFEFE"/>
    </linearGradient>
    <linearGradient id="paint1_linear" x1="191.74" x2="191.74" y1="164.44" y2="92.19" gradientUnits="userSpaceOnUse">
      <stop stop-color="#3759E1"/>
      <stop offset="1" stop-color="#64A2FF"/>
    </linearGradient>
    <linearGradient id="paint2_linear" x1="80.73" x2="174.64" y1="65.47" y2="41.74" gradientUnits="userSpaceOnUse">
      <stop stop-color="#fff"/>
      <stop offset="1" stop-color="#fff" stop-opacity="0"/>
    </linearGradient>
    <linearGradient id="paint3_linear" x1="283.75" x2="283.75" y1="32" y2="79.5" gradientUnits="userSpaceOnUse">
      <stop stop-color="#5BCB6A"/>
      <stop offset="1" stop-color="#1CB78F"/>
    </linearGradient>
    <linearGradient id="paint4_linear" x1="128" x2="118.47" y1="206" y2="156.33" gradientUnits="userSpaceOnUse">
      <stop stop-color="#FF57A5"/>
      <stop offset="1" stop-color="#9A0F2E"/>
    </linearGradient>
    <linearGradient id="paint5_linear" x1="116.5" x2="155" y1="133" y2="179.5" gradientUnits="userSpaceOnUse">
      <stop stop-color="#FF5775"/>
      <stop offset="1" stop-color="#C71B5E"/>
    </linearGradient>
  </defs>
</svg>
