<svg xmlns="http://www.w3.org/2000/svg" width="262.001" height="289.509" viewBox="0 0 262.001 289.509"><defs><style>.cls-1{fill:#f2f2f2}.cls-2{fill:#526ee0}.cls-3{fill:url(#linear-gradient)}.cls-4{fill:#657ee4}.cls-5{fill:#a0616a}.cls-6{fill:#575a89}.cls-7{fill:#46455b}</style><linearGradient id="linear-gradient" x1=".766" x2="1.896" y1=".308" y2=".308" gradientUnits="objectBoundingBox"><stop offset="0" stop-color="#808080" stop-opacity=".251"/><stop offset=".54" stop-color="#808080" stop-opacity=".122"/><stop offset="1" stop-color="#808080" stop-opacity=".102"/></linearGradient></defs><g id="Component_45_1"><circle id="Ellipse_847" cx="116" cy="116" r="116" class="cls-1" transform="translate(6 23.836)"/><path id="Path_1948" d="M502.1 140.983c-7.646-37.66-40.4-66.033-80.24-66.033a81.814 81.814 0 0 0-72.6 44.2 65.423 65.423 0 0 0 7.1 130.468h141.917a54.747 54.747 0 0 0 54.583-54.583 53.917 53.917 0 0 0-50.76-54.052zm-62.774 32.191v41.483h-34.938v-41.483h-37.116l54.583-54.557 54.583 54.583z" class="cls-2" transform="translate(-290.86 -74.95)"/><path id="Path_1949" d="M530.306 246.873a3.915 3.915 0 0 0-4.681-.229 6.638 6.638 0 0 0-1.965 3.334c-.639 1.827-1.672 3.6-1.843 5.533-.474 5.325-4.207 9.8-5.325 15.022-.41 1.864-.49 3.823-1.262 5.565a16.785 16.785 0 0 1-1.278 2.2 58.211 58.211 0 0 0-4.793 9.282 7.05 7.05 0 0 0-2.428 1.88 9.055 9.055 0 0 1-3.328 2.024 3.286 3.286 0 0 0-1.379.676c-.533.564-.533 1.475-.975 2.13a3.152 3.152 0 0 1-1.214 1 4.6 4.6 0 0 1-.075-.458c-.112-.815-.2-1.63-.288-2.444a9.224 9.224 0 0 0-1.257-11.9 17.9 17.9 0 0 1 .112-3.813 1.677 1.677 0 0 0-.533-1.693c-.261-.165-.58-.2-.857-.341a3.481 3.481 0 0 1-1-1.028 4.792 4.792 0 0 0-6.113-.905c-1.491 1-2.279 2.764-3.552 4.036l-2.1 1.827a9.448 9.448 0 0 0-2.439 5.075 27.659 27.659 0 0 0-.229 5.709 5.224 5.224 0 0 0 .245 1.7 4.486 4.486 0 0 0 .777 1.235 14.79 14.79 0 0 0 5.986 4.628 2.529 2.529 0 0 1 .027.341 2.27 2.27 0 0 1-.043.533l-.261-.043a10.827 10.827 0 0 1-2.86-.367c-1.518-.655-2.13-2.583-3.626-3.339a2.228 2.228 0 0 0-.389-.16 24.684 24.684 0 0 0-2.167-7.157 8.859 8.859 0 0 1-1.2-3.376 8.586 8.586 0 0 1 .74-3.243 83.812 83.812 0 0 0 2.844-11.183q.725-3.563 1.459-7.125a10.687 10.687 0 0 0 1.736-2.029 9.881 9.881 0 0 0 1.736-5.022 6.812 6.812 0 0 0-1.757-4.936 2.918 2.918 0 0 0-2.189-1.065 2.663 2.663 0 0 0-1.832 1.065 8.767 8.767 0 0 0-1.385 3.025 13.21 13.21 0 0 0-.825 5.442c.218 1.518.958 3.163.2 4.494-2.492 4.361-4.212 9.266-6.06 13.941a23.386 23.386 0 0 0-1.161 3.461 18.315 18.315 0 0 0-.192 5.783 76.369 76.369 0 0 0 2.082 10.7 13.748 13.748 0 0 0 1.763 4.6 19.856 19.856 0 0 0-.234 5.41 2.993 2.993 0 0 0 .32 1.2 5.117 5.117 0 0 0 1.1 1.124 5.468 5.468 0 0 1 1.741 4.175 12.387 12.387 0 0 0 .836 4.26c1.273 3.8 2.551 7.594 3.664 11.444a7.5 7.5 0 0 1 .394 2.21c0 1.065-.506 2.13-.272 3.2a11.381 11.381 0 0 1 .437 1.475 3.818 3.818 0 0 1-.149 1.145c-.692 3.009-2.695 9.948-2.348 13.02l.687-.24c-.293 4.068-1.55 8.052-2.008 12.12a39.829 39.829 0 0 0 .1 8.9 31.248 31.248 0 0 1 .341 3.989c0 1.2-.192 2.38-.24 3.573a32.558 32.558 0 0 0 .282 4.793 49.539 49.539 0 0 0 1.188 7.4c1.108 4.132.362 8.435.485 12.717a77.408 77.408 0 0 1-.091 8.962c-.112 1.262-.288 2.519-.325 3.786-.112 3.76 1 7.5.607 11.242-.186 1.752-.634 3.728.469 5.107.352.431.825.74 1.2 1.15a1.6 1.6 0 0 1 .463 1.518c-.144.421-.533.73-.623 1.172-.1.692.66 1.172 1.321 1.4l.186.053a1.646 1.646 0 0 0 .474 1.257 2.824 2.824 0 0 0 1.422.564l8.52 1.651c1.9.367 3.967.714 5.751.069a1.46 1.46 0 0 0 .4.676 2.823 2.823 0 0 0 1.416.564l8.52 1.651c2.173.421 4.558.809 6.5-.266a3.658 3.658 0 0 0 1.369-1.273 3.947 3.947 0 0 0 .186-3.328 2.721 2.721 0 0 0-.948-1.379 3.535 3.535 0 0 0-1.981-.426 3.911 3.911 0 0 1-1.715-.261 1.275 1.275 0 0 1-.426-.362c.426-.533.836-1.065 1.225-1.6-.367-.085-.533-.591-.623-.964-1.1-5.528.442-11.183.666-16.828a35.819 35.819 0 0 0-.66-8.43c-.208-1.065-.458-2.077-.607-3.131-.783-5.5 1.31-11.087.644-16.6-.314-2.577.793-5.272 1.188-7.839a28.181 28.181 0 0 0-.1-6.923l-1.763-18.106a21.712 21.712 0 0 0-1.534-7.173 9.391 9.391 0 0 1-.724-3.935c2.13-1.219 4.09-2.9 6.5-2.9.463-1.757-.868-7.3-1.646-8.941a39.006 39.006 0 0 1-3.467-20.742c.282-2.551-.735-5.123-.394-7.668a4.615 4.615 0 0 1 .49-1.709 1.763 1.763 0 0 1 1.417-.943 65.031 65.031 0 0 0-.607-4.6 11.179 11.179 0 0 0 2.13-3.062 40.2 40.2 0 0 0 2.242-7.354c1.172-4.372 2.961-8.547 4.377-12.839s1.14-8.829 2.157-13.239a9.712 9.712 0 0 1 4.154-5.906 7.8 7.8 0 0 0 2.29-1.731 3.953 3.953 0 0 0 .639-2.178 5.576 5.576 0 0 0-1.859-4.486zm-32.547 186.318c.16-.218.314-.437.458-.666-.564-.032-1.278-.362-1.347-.927a6.018 6.018 0 0 1 .186-1.677 6.675 6.675 0 0 0-.176-2.934c-.2-.66-.49-1.294-.7-1.954a19.785 19.785 0 0 1-.5-2.242 38.3 38.3 0 0 0-2.423-7.876c-1.065-2.455-.24-5.133-.229-7.812a14.9 14.9 0 0 1 .128-3.776c.186-.724.533-1.4.73-2.13.437-1.688-.112-3.461-.65-5.118 2.1-4.974 2.386-10.65 2.817-16.061l.724-9.053a8.607 8.607 0 0 1 .937-3.9 46.469 46.469 0 0 1 2.231 11.881 18 18 0 0 0 .4 3.472c.336 1.262.991 2.407 1.427 3.632.969 2.695.868 5.639 1.3 8.467.176 1.145.442 2.274.612 3.419.735 5.054-.453 10.171-1.635 15.14-.724 3.046-.607 6.417-.772 9.543-.154 3-.314 6-.24 9 0 .916.059 1.853.048 2.785a6.839 6.839 0 0 0-.873-.048 3.91 3.91 0 0 1-1.715-.261 1.953 1.953 0 0 1-.738-.904z" class="cls-3" transform="translate(-375.151 -154.901)"/><path id="Path_1952" d="M505.158 427.129a102.4 102.4 0 0 0-14.714 1.124 2.932 2.932 0 0 0-.932.245c-1.033.533-1.065 1.981-1.038 3.142.069 4.723-1.544 9.3-2.077 13.984a39.028 39.028 0 0 0 .091 8.845 32.995 32.995 0 0 1 .341 3.967c0 1.182-.2 2.359-.245 3.547a32.123 32.123 0 0 0 .277 4.739 48.923 48.923 0 0 0 1.188 7.349c1.1 4.106.357 8.382.474 12.631a75.251 75.251 0 0 1-.1 8.9c-.112 1.257-.288 2.5-.325 3.765-.112 3.728 1 7.455.6 11.183-.186 1.736-.639 3.728.463 5.07.351.426.825.735 1.193 1.145a1.6 1.6 0 0 1 .469 1.5c-.149.421-.559.73-.623 1.166-.107.687.655 1.166 1.315 1.385a12.173 12.173 0 0 0 13.734-4.936c-.564-.032-1.278-.362-1.347-.921a5.941 5.941 0 0 1 .186-1.667 6.493 6.493 0 0 0-.176-2.913c-.192-.66-.49-1.289-.7-1.944a19.758 19.758 0 0 1-.5-2.226 37.624 37.624 0 0 0-2.418-7.828c-1.065-2.439-.234-5.1-.224-7.754a14.968 14.968 0 0 1 .128-3.754c.186-.724.533-1.39.735-2.13.437-1.677-.112-3.435-.65-5.08 2.13-4.942 2.4-10.608 2.828-15.976l.73-9.053a8.565 8.565 0 0 1 .937-3.871 45.855 45.855 0 0 1 2.231 11.8 17.43 17.43 0 0 0 .4 3.456c.336 1.246.985 2.386 1.427 3.605.964 2.663.863 5.6 1.3 8.409.176 1.14.437 2.258.607 3.4.735 5.022-.458 10.118-1.646 15.044-.724 3.025-.612 6.39-.777 9.484-.16 2.977-.32 5.954-.245 8.936.064 2.742.277 5.687-1.2 7.988a14.511 14.511 0 0 0 5.2 1.859 9.184 9.184 0 0 0 5.98-1.811 19.442 19.442 0 0 0 4.383-4.6c-.373-.085-.533-.591-.623-.959-1.1-5.49.447-11.13.676-16.721a35.578 35.578 0 0 0-.655-8.371c-.208-1.065-.463-2.072-.612-3.115-.772-5.464 1.321-11.018.66-16.508-.309-2.567.8-5.24 1.193-7.8a27.56 27.56 0 0 0-.1-6.848l-1.752-17.973a21.3 21.3 0 0 0-1.528-7.13c-1.246-2.663-.474-5.943-.607-8.877a36.543 36.543 0 0 1-13.932 3.098z" class="cls-4" transform="translate(-382.172 -238.142)"/><path id="Path_1953" d="M540.974 291.8a57.225 57.225 0 0 1 5.613-11.289 16.636 16.636 0 0 0 1.278-2.189c.778-1.725.857-3.674 1.267-5.528 1.145-5.187 4.883-9.639 5.362-14.911.17-1.922 1.2-3.685 1.848-5.5a6.689 6.689 0 0 1 1.965-3.312 3.941 3.941 0 0 1 4.676.224 5.5 5.5 0 0 1 1.891 4.479 3.941 3.941 0 0 1-.639 2.162 7.66 7.66 0 0 1-2.29 1.72 9.664 9.664 0 0 0-4.159 5.858c-1.022 4.383-.746 8.882-2.167 13.148s-3.2 8.419-4.383 12.781a41.011 41.011 0 0 1-2.253 7.306 8.757 8.757 0 0 1-5.49 4.968 14.866 14.866 0 0 0-1.214-4.585c-.745-1.686-1.933-3.624-1.305-5.332z" class="cls-5" transform="translate(-407.7 -156.037)"/><path id="Path_1954" d="M481.726 300.307a24.3 24.3 0 0 0-2.364-8.962 8.636 8.636 0 0 1-1.193-3.35 8.458 8.458 0 0 1 .74-3.222 83.036 83.036 0 0 0 2.849-11.135l1.47-7.083a10.766 10.766 0 0 0 1.731-2.013 9.766 9.766 0 0 0 1.741-4.99 6.731 6.731 0 0 0-1.752-4.91 2.924 2.924 0 0 0-2.189-1.033 2.663 2.663 0 0 0-1.832 1.065 8.587 8.587 0 0 0-1.358 2.982 13.129 13.129 0 0 0-.831 5.405c.213 1.507.959 3.142.2 4.463-2.5 4.34-4.218 9.207-6.071 13.846a23.308 23.308 0 0 0-1.156 3.44 18.1 18.1 0 0 0-.2 5.751 75.521 75.521 0 0 0 2.077 10.65c.533 2.194 1.2 4.58 3.041 5.9a35.144 35.144 0 0 1 5.097-6.804z" class="cls-5" transform="translate(-375.243 -158.47)"/><circle id="Ellipse_873" cx="9.143" cy="9.143" r="9.143" class="cls-5" transform="translate(107.729 124.163)"/><path id="Path_1955" d="M500.872 337.986a12.294 12.294 0 0 1-1.491 4.739c-.431.911-1 1.928-1.981 2.13a44.319 44.319 0 0 0 8.59 2.466 9.443 9.443 0 0 0 3.067.176 7.363 7.363 0 0 0 2.444-.905 12.535 12.535 0 0 0 6.215-9.053 16.484 16.484 0 0 1-3.4.091 2.493 2.493 0 0 1-1.741-.644 2.619 2.619 0 0 1-.49-1.427q-.3-2.269-.485-4.548a18.03 18.03 0 0 0-6.523 1.5c-.852.373-1.683.8-2.561 1.124-.533.192-2.072.229-2.444.575-.579.544.828 2.626.8 3.776z" class="cls-5" transform="translate(-387.413 -194.653)"/><path id="Path_1956" d="M496.5 340.659a5.751 5.751 0 0 0-4.867-4.628 11.047 11.047 0 0 1-2.86-.357c-1.518-.655-2.157-2.567-3.626-3.318a3.874 3.874 0 0 0-4.463 1.2 9.943 9.943 0 0 0-1.875 4.564 22.1 22.1 0 0 0-.5 6.763 3.038 3.038 0 0 0 .325 1.193 5.166 5.166 0 0 0 1.092 1.118 5.4 5.4 0 0 1 1.741 4.143 12.14 12.14 0 0 0 .831 4.26c1.273 3.77 2.551 7.546 3.658 11.369a7.384 7.384 0 0 1 .394 2.194c-.027 1.065-.532 2.13-.272 3.169a12.416 12.416 0 0 1 .431 1.464 3.786 3.786 0 0 1-.149 1.14c-.7 2.993-2.7 9.884-2.354 12.935 4.542-1.672 11.4-2.663 16.21-3.2a35.774 35.774 0 0 1 3.989-.234c3.2 0 6.545.6 9.527-.57 2.764-1.065 5.059-3.632 8.03-3.642.463-1.741-.868-7.248-1.64-8.877a38.461 38.461 0 0 1-3.451-20.6c.277-2.535-.735-5.091-.389-7.62a4.56 4.56 0 0 1 .485-1.7 1.788 1.788 0 0 1 1.422-.943 55.932 55.932 0 0 0-2.316-11.684c-.431-1.353-1.209-2.918-2.625-3.009-1.278-.085-2.221 1.065-3.142 1.965a9.053 9.053 0 0 1-3.328 2.008 3.279 3.279 0 0 0-1.385.676c-.533.559-.533 1.47-.974 2.13-.767 1.182-2.727 1.294-3.2 2.615a8.075 8.075 0 0 0-.208 1.182 4.219 4.219 0 0 1-1.257 2.013 8.115 8.115 0 0 1-3.254 2.281z" class="cls-6" transform="translate(-378.458 -192.213)"/><path id="Path_1957" d="M507.5 301.591a1.651 1.651 0 0 0-.533-1.677 7.989 7.989 0 0 0-.863-.346 3.508 3.508 0 0 1-1-1.033 4.792 4.792 0 0 0-6.104-.895c-1.5.991-2.279 2.748-3.557 4.01-.655.655-1.438 1.166-2.1 1.821a9.4 9.4 0 0 0-2.444 5.038 27.356 27.356 0 0 0-.229 5.677 5.019 5.019 0 0 0 .245 1.693 4.5 4.5 0 0 0 .777 1.225 14.538 14.538 0 0 0 6.289 4.718 8.9 8.9 0 0 0 7.663-.655 1.362 1.362 0 0 0 .533-.533 1.676 1.676 0 0 0 0-1.022 6.923 6.923 0 0 1 .367-3.957 26.24 26.24 0 0 0 1.182-2.689 9 9 0 0 0 .085-3.2c-.259-2.711-.733-5.448-.311-8.175z" class="cls-7" transform="translate(-384.241 -178.717)"/></g></svg>