<svg xmlns="http://www.w3.org/2000/svg" width="176.394" height="155.124" viewBox="0 0 176.394 155.124">
    <defs>
        <style>
            .cls-1{fill:none}.cls-2{clip-path:url(#clip-path)}.cls-3{fill:#6c63ff}.cls-4{fill:#fff}.cls-5{opacity:.1}.cls-6{fill:#2f2e41}.cls-7{fill:#9f616a}.cls-8{fill:#3f3d56}.cls-9{fill:#d0cde1}
        </style>
        <clipPath id="clip-path">
            <path d="M0 0h176.394v155.124H0z" class="cls-1"/>
        </clipPath>
    </defs>
    <g id="Component_78_1" class="cls-2" data-name="Component 78 – 1">
        <g id="Group_3196" data-name="Group 3196" transform="translate(0 2.466)">
            <ellipse id="Ellipse_738" cx="74.073" cy="74.072" class="cls-3" data-name="Ellipse 738" rx="74.073" ry="74.072"/>
            <path id="Path_1551" d="M984.99 111.693l49.284-49.283 49.779 49.283h-33.828v37.683h-31.406v-37.435z" class="cls-4" data-name="Path 1551" transform="translate(-960.449 -31.821)"/>
            <path id="Path_1561" d="M1087.488 86.019a2.363 2.363 0 0 1 .285 1.168c-.175-.92-1.379-1.361-1.453-2.226 0-.4 0-.377.285-.166s.534.884.883 1.224z" class="cls-5" data-name="Path 1561" transform="translate(-936.938 -12.738)"/>
            <path id="Path_1562" d="M1083.54 89a1.84 1.84 0 0 1 .542.809 2.042 2.042 0 0 1 .11 1.416c-.175-.083-.23-.3-.285-.487a3.425 3.425 0 0 0-.377-.837c-.138-.23-.8-.763-.791-1.012s.626-.018.801.111z" class="cls-5" data-name="Path 1562" transform="translate(-936.651 -13.07)"/>
        </g>
        <g id="Group_3197" data-name="Group 3197" transform="translate(126.262)">
            <path id="Path_1563" d="M642.895 728.594l-1.406-1.045s-.931 5.2.108 5.98 4.935 2.078 4.935 3.636 8.831 3.636 9.091 1.3a5.152 5.152 0 0 0-.779-3.636s-4.156-4.155-4.675-4.935-1.818-2.337-1.818-2.337z" class="cls-6" data-name="Path 1563" transform="translate(-624.048 -584.39)"/>
            <path id="Path_1564" d="M662.824 428.747s-.039.229-.106.647c-.062.371-.148.9-.252 1.543-1.091 6.657-4.272 26.254-4.057 26.9.26.779 2.078 3.636 0 4.415a1.609 1.609 0 0 0-.647.7 15.092 15.092 0 0 0-1.1 2.592 113.848 113.848 0 0 0-3.33 13.332c-.335 1.751-.564 3.158-.631 3.9a2.122 2.122 0 0 0-.008.514c.26 1.039-1.558 4.675-2.338 5.714s-2.078 2.078-1.818 3.117-6.493 3.9-7.272 2.078a33.177 33.177 0 0 1-1.039-3.377c-.26-.519-.519-4.156.779-4.675s.52-9.61 1.818-11.428a24.969 24.969 0 0 0 1.79-5.119 164.9 164.9 0 0 0 .818-3.026c1.1-4.226 2.067-8.478 2.067-8.478l-.26-30.389 14.285-1.818.366.808.73 1.6z" class="cls-6" data-name="Path 1564" transform="translate(-623.199 -349.216)"/>
            <path id="Path_1565" d="M736.933 661.851s2.078-2.078 3.117 0 2.078 10.129 3.9 11.948 4.156 10.909 1.558 11.428-5.454-.779-5.714-2.338-5.714-9.61-5.714-10.389 3.636-3.636 3.636-3.636z" class="cls-6" data-name="Path 1565" transform="translate(-696.529 -532.451)"/>
            <path id="Path_1566" d="M602.088 371.515s3.376 30.389 4.156 33.246 4.935 13.766 6.234 15.584 9.61 16.623 10.649 17.4 3.117 2.857 3.117 2.857 3.9 3.9 4.415 4.675 4.935-1.558 5.195-3.117a16.007 16.007 0 0 0-.52-5.195c-.26-1.039.52-2.6-.26-3.376s-4.675-4.675-4.675-6.493-6.753-12.467-9.351-14.8-2.078-6.234-2.078-6.234v-15.847l14.285-4.415s-.779-12.467-2.6-12.467-25.71-4.156-28.567-1.818z" class="cls-6" data-name="Path 1566" transform="translate(-593.631 -306.268)"/>
            <ellipse id="Ellipse_739" cx="8.571" cy="8.571" class="cls-7" data-name="Ellipse 739" rx="8.571" ry="8.571" transform="translate(20.924 4.729)"/>
            <path id="Path_1567" d="M675.506 153.343s-1.039 3.9-2.338 4.935 3.376 5.454 3.376 5.454l8.831.52 1.558-4.935s-2.857-5.714-2.078-9.35-9.349 3.376-9.349 3.376z" class="cls-7" data-name="Path 1567" transform="translate(-648.867 -133.29)"/>
            <path id="Path_1568" d="M619.242 189.02s2.338.26 2.857 1.039 4.156 3.117 7.013 2.6 4.675-1.3 5.195-1.039 1.558 5.714 1.558 5.714l-2.857 8.311.519 22.856.779 6.234s1.558-2.078-4.675-.779-14.285-1.039-16.883-1.3-7.013-1.039-7.273-2.6.779-7.272.779-7.272l4.156-17.4 2.6-9.35z" class="cls-8" data-name="Path 1568" transform="translate(-596.24 -164.551)"/>
            <path id="Path_1569" d="M603.5 181.729s-2.2-1.165-2.976-.127-10.649 2.6-10.649 3.376-2.078 21.817-1.558 23.636-1.039 3.9-1.039 3.9l-1.818 7.792s-4.935 14.8-2.857 15.324a13.523 13.523 0 0 0 4.675 0c.779 0 .52-9.87 2.6-12.467s4.935-9.091 5.454-10.389 7.013-19.22 6.753-21.3 1.415-9.745 1.415-9.745z" class="cls-3" data-name="Path 1569" transform="translate(-578.044 -158.432)"/>
            <path id="Path_1570" d="M708.528 189.02s2.078 0 2.338.519a28.431 28.431 0 0 0 3.9 4.675c1.039.779 4.675 4.156 4.675 4.935s-7.532 6.493-7.532 6.493-3.117 15.324-1.558 20.519 3.9 17.662 2.857 18.441-3.376 1.039-3.376 0-1.558-12.207-2.857-14.545-5.195-17.142-3.636-21.3 5.189-19.737 5.189-19.737z" class="cls-3" data-name="Path 1570" transform="translate(-672.279 -164.551)"/>
            <path id="Path_1571" d="M572.605 305.687s-.26 8.052 2.6 12.207a49.354 49.354 0 0 1 4.675 8.831s4.675-1.3 5.454-2.857 5.714-.26 5.714-.779-5.974-3.117-6.493-3.636-2.338-.52-3.377-1.558a6.875 6.875 0 0 1-1.3-3.376l-1.039-6.753z" class="cls-7" data-name="Path 1571" transform="translate(-570.641 -255.505)"/>
            <path id="Path_1572" d="M659.6 86.015a4.936 4.936 0 0 1-1.922-.44 2.574 2.574 0 0 1-.658-3.811 4.913 4.913 0 0 1 .913-.734l1.974-1.344a9.66 9.66 0 0 1 2.785-1.478 8.694 8.694 0 0 1 2.848-.168 19.239 19.239 0 0 1 5.455.992 9.129 9.129 0 0 1 4.419 3.234c1.672 2.419 1.695 5.681.774 8.473a28.746 28.746 0 0 1-4.393 7.606l-.894-4.363a1.612 1.612 0 0 0-.506-1.044c-.8-.572-1.786.6-2.772.594a1.661 1.661 0 0 1-1.405-1.112 6.343 6.343 0 0 1-.311-1.867c-.118-1.336-.585-3.2-1.85-3.933-1.178-.687-3.13-.484-4.457-.605z" class="cls-6" data-name="Path 1572" transform="translate(-636.01 -78)"/>
            <path id="Path_1573" d="M672.94 439.523s.878 25.374 1.4 26.153 0-26.233 0-26.233z" class="cls-5" data-name="Path 1573" transform="translate(-648.867 -359.782)"/>
            <path id="Path_1574" d="M577.628 198.447h-2.078s-8.831 11.948-7.792 12.727 0 2.857 0 2.857l-2.078 3.9s-2.6 2.338-1.818 2.857a9.492 9.492 0 0 1 1.818 2.6s5.195-.779 6.753 2.338l3.369-4.253z" class="cls-9" data-name="Path 1574" transform="translate(-563.716 -171.901)"/>
            <path id="Path_1575" d="M620.172 249.531a22.879 22.879 0 0 1-12.207-3.9l-6.493-2.857s-5.714-8.831-6.234-7.273.779 4.675.779 4.675-7.836 3.627-8.04 4.106 4.4-.729 4.4-.729-.779 4.935 3.636 5.195 5.714-.779 5.714-.779 18.7 15.584 21.818 10.649-3.373-9.087-3.373-9.087z" class="cls-7" data-name="Path 1575" transform="translate(-582.625 -200.648)"/>
            <path id="Path_1576" d="M736.118 230.266l2.857 1.039v7.795l1.039 1.558s-.26 3.117-1.039 3.9-2.338.519-1.818 2.338a9.845 9.845 0 0 1 .26 3.636s-4.675 5.974-4.935 5.195-3.9-10.389-4.415-10.389 5.195-15.064 5.195-15.064z" class="cls-9" data-name="Path 1576" transform="translate(-691.817 -196.707)"/>
            <path id="Path_1577" d="M603.668 392.82s-2.685-2.6-1.342-2.727 6.018-2.727 6.8-1.429-5.458 4.156-5.458 4.156z" class="cls-6" data-name="Path 1577" transform="translate(-593.523 -319.912)"/>
        </g>
    </g>
</svg>
