<svg width="48" height="48" viewBox="0 0 48 48" fill="none" xmlns="http://www.w3.org/2000/svg">
    <g opacity="0.75">
        <rect x="6" y="16.1445" width="30.8571" height="20.5714" rx="1" fill="url(#paint0_linear_40944_99939)" />
        <path
            d="M11.1428 12C11.1428 11.4477 11.5905 11 12.1428 11H41C41.5522 11 42 11.4477 42 12V30.5714C42 31.1237 41.5522 31.5714 41 31.5714H12.1428C11.5905 31.5714 11.1428 31.1237 11.1428 30.5714V12Z"
            fill="url(#paint1_linear_40944_99939)"
        />
        <path
            opacity="0.5"
            d="M11.1428 12C11.1428 11.4477 11.5905 11 12.1428 11H20.1428C20.1428 15.9706 16.1134 20 11.1428 20V12Z"
            fill="url(#paint2_linear_40944_99939)"
        />
        <path
            opacity="0.5"
            d="M42 12C42 11.4477 41.5523 11 41 11H33C33 15.9706 37.0294 20 42 20V12Z"
            fill="url(#paint3_linear_40944_99939)"
        />
        <path
            opacity="0.5"
            d="M11.1428 30.5703C11.1428 31.1226 11.5905 31.5703 12.1428 31.5703H20.1428C20.1428 26.5998 16.1134 22.5703 11.1428 22.5703V30.5703Z"
            fill="url(#paint4_linear_40944_99939)"
        />
        <path
            opacity="0.5"
            d="M42 30.5703C42 31.1226 41.5523 31.5703 41 31.5703H33C33 26.5998 37.0294 22.5703 42 22.5703V30.5703Z"
            fill="url(#paint5_linear_40944_99939)"
        />
        <circle opacity="0.5" cx="26.8571" cy="20.8571" r="3.85714" fill="url(#paint6_linear_40944_99939)" />
    </g>
    <defs>
        <linearGradient
            id="paint0_linear_40944_99939"
            x1="21.4286"
            y1="16.1445"
            x2="21.4286"
            y2="36.716"
            gradientUnits="userSpaceOnUse"
        >
            <stop stop-color="#25ECC6" />
            <stop offset="1" stop-color="#158670" />
        </linearGradient>
        <linearGradient
            id="paint1_linear_40944_99939"
            x1="26.5714"
            y1="11"
            x2="26.5714"
            y2="31.5714"
            gradientUnits="userSpaceOnUse"
        >
            <stop stop-color="#BCF6EB" />
            <stop offset="1" stop-color="#25ECC6" />
        </linearGradient>
        <linearGradient
            id="paint2_linear_40944_99939"
            x1="15.6428"
            y1="11"
            x2="15.6428"
            y2="20"
            gradientUnits="userSpaceOnUse"
        >
            <stop stop-color="#25ECC6" />
            <stop offset="1" stop-color="#158670" />
        </linearGradient>
        <linearGradient
            id="paint3_linear_40944_99939"
            x1="37.5"
            y1="11"
            x2="37.5"
            y2="20"
            gradientUnits="userSpaceOnUse"
        >
            <stop stop-color="#25ECC6" />
            <stop offset="1" stop-color="#158670" />
        </linearGradient>
        <linearGradient
            id="paint4_linear_40944_99939"
            x1="15.6428"
            y1="31.5703"
            x2="15.6428"
            y2="22.5703"
            gradientUnits="userSpaceOnUse"
        >
            <stop stop-color="#25ECC6" />
            <stop offset="1" stop-color="#158670" />
        </linearGradient>
        <linearGradient
            id="paint5_linear_40944_99939"
            x1="37.5"
            y1="31.5703"
            x2="37.5"
            y2="22.5703"
            gradientUnits="userSpaceOnUse"
        >
            <stop stop-color="#25ECC6" />
            <stop offset="1" stop-color="#158670" />
        </linearGradient>
        <linearGradient
            id="paint6_linear_40944_99939"
            x1="26.8571"
            y1="17"
            x2="26.8571"
            y2="24.7143"
            gradientUnits="userSpaceOnUse"
        >
            <stop stop-color="#25ECC6" />
            <stop offset="1" stop-color="#158670" />
        </linearGradient>
    </defs>
</svg>
