<svg width="264" height="148" viewBox="0 0 264 148" fill="none" xmlns="http://www.w3.org/2000/svg">
<g clip-path="url(#clip0_41964_70123)">
<path d="M203.5 58C206.261 58 208.5 60.2386 208.5 63C208.5 63.5523 208.052 64 207.5 64C206.948 64 206.5 63.5523 206.5 63C206.5 61.3431 205.157 60 203.5 60C202.948 60 202.5 59.5523 202.5 59C202.5 58.4477 202.948 58 203.5 58ZM207.5 52C211.366 52 214.5 55.134 214.5 59C214.5 59.5523 214.052 60 213.5 60C212.948 60 212.5 59.5523 212.5 59C212.5 56.2386 210.261 54 207.5 54C206.948 54 206.5 53.5523 206.5 53C206.5 52.4477 206.948 52 207.5 52ZM211.5 46C216.471 46 220.5 50.0294 220.5 55C220.5 55.5523 220.052 56 219.5 56C218.948 56 218.5 55.5523 218.5 55C218.5 51.134 215.366 48 211.5 48C210.948 48 210.5 47.5523 210.5 47C210.5 46.4477 210.948 46 211.5 46Z" fill="url(#paint0_linear_41964_70123)" fill-opacity="0.5"/>
<path d="M190 28C192.209 28 194 29.7909 194 32V108C194 110.209 192.209 112 190 112H187C188.105 112 189 111.105 189 110V35C189 33.8954 188.105 33 187 33H77C75.8954 33 75 33.8954 75 35V110C75 111.105 75.8954 112 77 112H74C71.7909 112 70 110.209 70 108V32C70 29.7909 71.7909 28 74 28H190Z" fill="url(#paint1_linear_41964_70123)" fill-opacity="0.75"/>
<path d="M190 28C192.209 28 194 29.7909 194 32V108C194 110.209 192.209 112 190 112H187C188.105 112 189 111.105 189 110V35C189 33.8954 188.105 33 187 33H77C75.8954 33 75 33.8954 75 35V110C75 111.105 75.8954 112 77 112H74C71.7909 112 70 110.209 70 108V32C70 29.7909 71.7909 28 74 28H190Z" fill="url(#paint2_linear_41964_70123)"/>
<path d="M75 34C75 33.4477 75.4477 33 76 33H188C188.552 33 189 33.4477 189 34V111C189 111.552 188.552 112 188 112H76C75.4477 112 75 111.552 75 111V34Z" fill="url(#paint3_linear_41964_70123)"/>
<path d="M205.678 118H59.3218C58.0193 118 57 116.971 57 115.657V114.343C57 113.029 58.0193 112 59.3218 112H205.678C206.981 112 208 113.029 208 114.343V115.657C208 116.971 206.924 118 205.678 118Z" fill="url(#paint4_linear_41964_70123)"/>
<path d="M140 115L125 115C123 115 122 114 122 112H143C143 114 142 115 140 115Z" fill="white"/>
<rect x="105.5" y="104" width="74" height="2" rx="1" fill="#C4BAE2"/>
<rect x="91.5" y="104" width="58" height="2" rx="1" fill="url(#paint5_linear_41964_70123)"/>
<circle cx="149.5" cy="105" r="3" fill="#26EDC6"/>
<circle cx="149.5" cy="105" r="1.5" fill="white"/>
<g filter="url(#filter0_dddii_41964_70123)">
<path d="M112 72.5C112 61.4543 120.954 52.5 132 52.5C143.046 52.5 152 61.4543 152 72.5C152 83.5457 143.046 92.5 132 92.5C120.954 92.5 112 83.5457 112 72.5Z" fill="black"/>
<path d="M112 72.5C112 61.4543 120.954 52.5 132 52.5C143.046 52.5 152 61.4543 152 72.5C152 83.5457 143.046 92.5 132 92.5C120.954 92.5 112 83.5457 112 72.5Z" fill="url(#paint6_linear_41964_70123)" fill-opacity="0.75"/>
</g>
<g filter="url(#filter1_d_41964_70123)">
<path d="M124 65C124 63.8954 124.895 63 126 63H128C129.105 63 130 63.8954 130 65V81C130 82.1046 129.105 83 128 83H126C124.895 83 124 82.1046 124 81V65Z" fill="url(#paint7_linear_41964_70123)"/>
<path d="M134 65C134 63.8954 134.895 63 136 63H138C139.105 63 140 63.8954 140 65V81C140 82.1046 139.105 83 138 83H136C134.895 83 134 82.1046 134 81V65Z" fill="url(#paint8_linear_41964_70123)"/>
</g>
<path d="M79.8545 64C83.2685 64.0002 86 66.8888 86 70.415V129.548C86.0357 133.111 83.2684 136 79.8545 136H52.1455C48.7674 136 46.0002 133.112 46 129.548V70.415C46 66.8887 48.7673 64 52.1455 64H79.8545ZM75 67.7461C74.5556 68.7711 73.5183 69.4541 72.4072 69.4541H59.5557C58.4446 69.4541 57.4444 68.7711 56.9629 67.7461L56.2227 66.0381H52.3701C49.9628 66.0382 48 68.0501 48 70.5176V129.521C48 131.988 49.9628 134 52.3701 134H79.6299C82.0372 134 84 131.988 84 129.521V70.4795C83.9629 68.0121 82.0372 66.0001 79.6299 66H75.7773L75 67.7461Z" fill="white"/>
<path d="M79.8545 64C83.2685 64.0002 86 66.8888 86 70.415V129.548C86.0357 133.111 83.2684 136 79.8545 136H52.1455C48.7674 136 46.0002 133.112 46 129.548V70.415C46 66.8887 48.7673 64 52.1455 64H79.8545ZM75 67.7461C74.5556 68.7711 73.5183 69.4541 72.4072 69.4541H59.5557C58.4446 69.4541 57.4444 68.7711 56.9629 67.7461L56.2227 66.0381H52.3701C49.9628 66.0382 48 68.0501 48 70.5176V129.521C48 131.988 49.9628 134 52.3701 134H79.6299C82.0372 134 84 131.988 84 129.521V70.4795C83.9629 68.0121 82.0372 66.0001 79.6299 66H75.7773L75 67.7461Z" fill="url(#paint9_linear_41964_70123)" fill-opacity="0.75"/>
<path d="M79.6296 66H75.7778L75 67.7463C74.5556 68.7712 73.5185 69.4546 72.4074 69.4546H59.5556C58.4444 69.4546 57.4444 68.7712 56.963 67.7463L56.2222 66.038H52.3704C49.963 66.038 48 68.05 48 70.5175V129.52C48 131.988 49.963 134 52.3704 134H79.6296C82.037 134 84 131.988 84 129.52V70.4795C83.963 68.012 82.037 66 79.6296 66Z" fill="url(#paint10_linear_41964_70123)"/>
<rect x="51.5" y="128" width="29" height="2" rx="1" fill="#C4BAE2"/>
<rect x="51.5" y="128" width="24" height="2" rx="1" fill="url(#paint11_linear_41964_70123)"/>
<circle cx="73.5" cy="129" r="3" fill="#26EDC6"/>
<circle cx="73.5" cy="129" r="1.5" fill="white"/>
<g filter="url(#filter2_dddii_41964_70123)">
<path d="M53.5 100.5C53.5 93.8726 58.8726 88.5 65.5 88.5C72.1274 88.5 77.5 93.8726 77.5 100.5C77.5 107.127 72.1274 112.5 65.5 112.5C58.8726 112.5 53.5 107.127 53.5 100.5Z" fill="black"/>
<path d="M53.5 100.5C53.5 93.8726 58.8726 88.5 65.5 88.5C72.1274 88.5 77.5 93.8726 77.5 100.5C77.5 107.127 72.1274 112.5 65.5 112.5C58.8726 112.5 53.5 107.127 53.5 100.5Z" fill="url(#paint12_linear_41964_70123)" fill-opacity="0.75"/>
</g>
<g filter="url(#filter3_d_41964_70123)">
<path d="M61.5 97C61.5 96.4477 61.9477 96 62.5 96H63.5C64.0523 96 64.5 96.4477 64.5 97V105C64.5 105.5 64 106 63.5 106H62.5C62 106 61.5 105.552 61.5 105V97Z" fill="url(#paint13_linear_41964_70123)"/>
<path d="M66.5 97C66.5 96.5 67 96 67.5 96H68.5C69 96 69.5 96.5 69.5 97V105C69.5 105.5 69 106 68.5 106H67.5C67 106 66.5 105.5 66.5 105V97Z" fill="url(#paint14_linear_41964_70123)"/>
</g>
<path d="M235.5 129.854C235.5 133.269 232.611 136 229.085 136L169.952 136C166.389 136.036 163.5 133.268 163.5 129.854L163.5 102.146C163.5 98.7674 166.388 96.0002 169.952 96L229.085 96C232.611 96 235.5 98.7673 235.5 102.146L235.5 129.854ZM231.754 125C230.729 124.556 230.046 123.518 230.046 122.407L230.046 109.556C230.046 108.445 230.729 107.444 231.754 106.963L233.462 106.223L233.462 102.37C233.462 99.9628 231.45 98 228.982 98L169.979 98C167.512 98 165.5 99.9628 165.5 102.37L165.5 129.63C165.5 132.037 167.512 134 169.979 134L229.021 134C231.488 133.963 233.5 132.037 233.5 129.63L233.5 125.777L231.754 125Z" fill="white"/>
<path d="M235.5 129.854C235.5 133.269 232.611 136 229.085 136L169.952 136C166.389 136.036 163.5 133.268 163.5 129.854L163.5 102.146C163.5 98.7674 166.388 96.0002 169.952 96L229.085 96C232.611 96 235.5 98.7673 235.5 102.146L235.5 129.854ZM231.754 125C230.729 124.556 230.046 123.518 230.046 122.407L230.046 109.556C230.046 108.445 230.729 107.444 231.754 106.963L233.462 106.223L233.462 102.37C233.462 99.9628 231.45 98 228.982 98L169.979 98C167.512 98 165.5 99.9628 165.5 102.37L165.5 129.63C165.5 132.037 167.512 134 169.979 134L229.021 134C231.488 133.963 233.5 132.037 233.5 129.63L233.5 125.777L231.754 125Z" fill="url(#paint15_linear_41964_70123)" fill-opacity="0.75"/>
<path d="M233.5 129.63L233.5 125.778L231.754 125C230.729 124.556 230.045 123.519 230.045 122.407L230.045 109.556C230.045 108.444 230.729 107.444 231.754 106.963L233.462 106.222L233.462 102.37C233.462 99.963 231.45 98 228.982 98L169.98 98C167.512 98 165.5 99.963 165.5 102.37L165.5 129.63C165.5 132.037 167.512 134 169.98 134L229.02 134C231.488 133.963 233.5 132.037 233.5 129.63Z" fill="url(#paint16_linear_41964_70123)"/>
<rect x="172.5" y="129" width="57" height="2" rx="1" fill="#C4BAE2"/>
<rect x="169.5" y="129" width="47" height="2" rx="1" fill="url(#paint17_linear_41964_70123)"/>
<circle cx="216.5" cy="130" r="3" fill="#26EDC6"/>
<circle cx="216.5" cy="130" r="1.5" fill="white"/>
<g filter="url(#filter4_dddii_41964_70123)">
<path d="M189.5 114.5C189.5 108.977 193.977 104.5 199.5 104.5C205.023 104.5 209.5 108.977 209.5 114.5C209.5 120.023 205.023 124.5 199.5 124.5C193.977 124.5 189.5 120.023 189.5 114.5Z" fill="black"/>
<path d="M189.5 114.5C189.5 108.977 193.977 104.5 199.5 104.5C205.023 104.5 209.5 108.977 209.5 114.5C209.5 120.023 205.023 124.5 199.5 124.5C193.977 124.5 189.5 120.023 189.5 114.5Z" fill="url(#paint18_linear_41964_70123)" fill-opacity="0.75"/>
</g>
<g filter="url(#filter5_d_41964_70123)">
<path d="M196.301 111.3C196.301 110.858 196.659 110.5 197.101 110.5H197.901C198.343 110.5 198.701 110.858 198.701 111.3V117.7C198.701 118.1 198.301 118.5 197.901 118.5H197.101C196.701 118.5 196.301 118.142 196.301 117.7V111.3Z" fill="url(#paint19_linear_41964_70123)"/>
<path d="M200.301 111.3C200.301 110.9 200.701 110.5 201.101 110.5H201.901C202.301 110.5 202.701 110.9 202.701 111.3V117.7C202.701 118.1 202.301 118.5 201.901 118.5H201.101C200.701 118.5 200.301 118.1 200.301 117.7V111.3Z" fill="url(#paint20_linear_41964_70123)"/>
</g>
<g filter="url(#filter6_dddii_41964_70123)">
<rect x="170.5" y="64" width="32" height="32" rx="6" fill="url(#paint21_linear_41964_70123)"/>
</g>
<path d="M199.5 80C199.5 87.1797 193.68 93 186.5 93C179.32 93 173.5 87.1797 173.5 80C173.5 72.8203 179.32 67 186.5 67C193.68 67 199.5 72.8203 199.5 80Z" fill="url(#paint22_linear_41964_70123)"/>
<path d="M198.318 80C198.318 73.473 193.027 68.1818 186.5 68.1818C179.973 68.1818 174.682 73.473 174.682 80C174.682 86.527 179.973 91.8182 186.5 91.8182V93C179.32 93 173.5 87.1797 173.5 80C173.5 72.8203 179.32 67 186.5 67C193.68 67 199.5 72.8203 199.5 80C199.5 87.1797 193.68 93 186.5 93V91.8182C193.027 91.8182 198.318 86.527 198.318 80Z" fill="url(#paint23_linear_41964_70123)"/>
<g filter="url(#filter7_d_41964_70123)">
<path d="M185.543 72.5129C185.543 72.1994 185.797 71.9453 186.111 71.9453C186.424 71.9453 186.678 72.1994 186.678 72.5129V79.8425C186.678 80.0622 186.756 80.2748 186.898 80.4424L190.091 84.2078C190.294 84.4469 190.265 84.8052 190.026 85.008C189.786 85.2107 189.428 85.1813 189.225 84.9423L185.678 80.7582C185.591 80.6557 185.543 80.5257 185.543 80.3913V72.5129Z" fill="url(#paint24_linear_41964_70123)"/>
</g>
</g>
<defs>
<filter id="filter0_dddii_41964_70123" x="77.905" y="28.61" width="108.19" height="108.19" filterUnits="userSpaceOnUse" color-interpolation-filters="sRGB">
<feFlood flood-opacity="0" result="BackgroundImageFix"/>
<feColorMatrix in="SourceAlpha" type="matrix" values="0 0 0 0 0 0 0 0 0 0 0 0 0 0 0 0 0 0 127 0" result="hardAlpha"/>
<feOffset dy="0.83"/>
<feGaussianBlur stdDeviation="1.39"/>
<feColorMatrix type="matrix" values="0 0 0 0 0.290196 0 0 0 0 0.176471 0 0 0 0 0.772549 0 0 0 0.08 0"/>
<feBlend mode="normal" in2="BackgroundImageFix" result="effect1_dropShadow_41964_70123"/>
<feColorMatrix in="SourceAlpha" type="matrix" values="0 0 0 0 0 0 0 0 0 0 0 0 0 0 0 0 0 0 127 0" result="hardAlpha"/>
<feOffset dy="3.93"/>
<feGaussianBlur stdDeviation="5.43"/>
<feColorMatrix type="matrix" values="0 0 0 0 0.290196 0 0 0 0 0.176471 0 0 0 0 0.772549 0 0 0 0.12 0"/>
<feBlend mode="normal" in2="effect1_dropShadow_41964_70123" result="effect2_dropShadow_41964_70123"/>
<feColorMatrix in="SourceAlpha" type="matrix" values="0 0 0 0 0 0 0 0 0 0 0 0 0 0 0 0 0 0 127 0" result="hardAlpha"/>
<feOffset dy="10.205"/>
<feGaussianBlur stdDeviation="17.0475"/>
<feColorMatrix type="matrix" values="0 0 0 0 0.290196 0 0 0 0 0.176471 0 0 0 0 0.772549 0 0 0 0.22 0"/>
<feBlend mode="normal" in2="effect2_dropShadow_41964_70123" result="effect3_dropShadow_41964_70123"/>
<feBlend mode="normal" in="SourceGraphic" in2="effect3_dropShadow_41964_70123" result="shape"/>
<feColorMatrix in="SourceAlpha" type="matrix" values="0 0 0 0 0 0 0 0 0 0 0 0 0 0 0 0 0 0 127 0" result="hardAlpha"/>
<feOffset dy="-0.75"/>
<feGaussianBlur stdDeviation="0.5"/>
<feComposite in2="hardAlpha" operator="arithmetic" k2="-1" k3="1"/>
<feColorMatrix type="matrix" values="0 0 0 0 0.427451 0 0 0 0 0.290196 0 0 0 0 1 0 0 0 0.3 0"/>
<feBlend mode="normal" in2="shape" result="effect4_innerShadow_41964_70123"/>
<feColorMatrix in="SourceAlpha" type="matrix" values="0 0 0 0 0 0 0 0 0 0 0 0 0 0 0 0 0 0 127 0" result="hardAlpha"/>
<feOffset dx="-0.5" dy="0.25"/>
<feGaussianBlur stdDeviation="0.25"/>
<feComposite in2="hardAlpha" operator="arithmetic" k2="-1" k3="1"/>
<feColorMatrix type="matrix" values="0 0 0 0 1 0 0 0 0 1 0 0 0 0 1 0 0 0 0.2 0"/>
<feBlend mode="normal" in2="effect4_innerShadow_41964_70123" result="effect5_innerShadow_41964_70123"/>
</filter>
<filter id="filter1_d_41964_70123" x="116" y="57" width="32" height="36" filterUnits="userSpaceOnUse" color-interpolation-filters="sRGB">
<feFlood flood-opacity="0" result="BackgroundImageFix"/>
<feColorMatrix in="SourceAlpha" type="matrix" values="0 0 0 0 0 0 0 0 0 0 0 0 0 0 0 0 0 0 127 0" result="hardAlpha"/>
<feOffset dy="2"/>
<feGaussianBlur stdDeviation="4"/>
<feComposite in2="hardAlpha" operator="out"/>
<feColorMatrix type="matrix" values="0 0 0 0 0.427451 0 0 0 0 0.290196 0 0 0 0 1 0 0 0 0.5 0"/>
<feBlend mode="normal" in2="BackgroundImageFix" result="effect1_dropShadow_41964_70123"/>
<feBlend mode="normal" in="SourceGraphic" in2="effect1_dropShadow_41964_70123" result="shape"/>
</filter>
<filter id="filter2_dddii_41964_70123" x="19.405" y="64.61" width="92.19" height="92.19" filterUnits="userSpaceOnUse" color-interpolation-filters="sRGB">
<feFlood flood-opacity="0" result="BackgroundImageFix"/>
<feColorMatrix in="SourceAlpha" type="matrix" values="0 0 0 0 0 0 0 0 0 0 0 0 0 0 0 0 0 0 127 0" result="hardAlpha"/>
<feOffset dy="0.83"/>
<feGaussianBlur stdDeviation="1.39"/>
<feColorMatrix type="matrix" values="0 0 0 0 0.290196 0 0 0 0 0.176471 0 0 0 0 0.772549 0 0 0 0.08 0"/>
<feBlend mode="normal" in2="BackgroundImageFix" result="effect1_dropShadow_41964_70123"/>
<feColorMatrix in="SourceAlpha" type="matrix" values="0 0 0 0 0 0 0 0 0 0 0 0 0 0 0 0 0 0 127 0" result="hardAlpha"/>
<feOffset dy="3.93"/>
<feGaussianBlur stdDeviation="5.43"/>
<feColorMatrix type="matrix" values="0 0 0 0 0.290196 0 0 0 0 0.176471 0 0 0 0 0.772549 0 0 0 0.12 0"/>
<feBlend mode="normal" in2="effect1_dropShadow_41964_70123" result="effect2_dropShadow_41964_70123"/>
<feColorMatrix in="SourceAlpha" type="matrix" values="0 0 0 0 0 0 0 0 0 0 0 0 0 0 0 0 0 0 127 0" result="hardAlpha"/>
<feOffset dy="10.205"/>
<feGaussianBlur stdDeviation="17.0475"/>
<feColorMatrix type="matrix" values="0 0 0 0 0.290196 0 0 0 0 0.176471 0 0 0 0 0.772549 0 0 0 0.22 0"/>
<feBlend mode="normal" in2="effect2_dropShadow_41964_70123" result="effect3_dropShadow_41964_70123"/>
<feBlend mode="normal" in="SourceGraphic" in2="effect3_dropShadow_41964_70123" result="shape"/>
<feColorMatrix in="SourceAlpha" type="matrix" values="0 0 0 0 0 0 0 0 0 0 0 0 0 0 0 0 0 0 127 0" result="hardAlpha"/>
<feOffset dy="-0.75"/>
<feGaussianBlur stdDeviation="0.5"/>
<feComposite in2="hardAlpha" operator="arithmetic" k2="-1" k3="1"/>
<feColorMatrix type="matrix" values="0 0 0 0 0.427451 0 0 0 0 0.290196 0 0 0 0 1 0 0 0 0.3 0"/>
<feBlend mode="normal" in2="shape" result="effect4_innerShadow_41964_70123"/>
<feColorMatrix in="SourceAlpha" type="matrix" values="0 0 0 0 0 0 0 0 0 0 0 0 0 0 0 0 0 0 127 0" result="hardAlpha"/>
<feOffset dx="-0.5" dy="0.25"/>
<feGaussianBlur stdDeviation="0.25"/>
<feComposite in2="hardAlpha" operator="arithmetic" k2="-1" k3="1"/>
<feColorMatrix type="matrix" values="0 0 0 0 1 0 0 0 0 1 0 0 0 0 1 0 0 0 0.2 0"/>
<feBlend mode="normal" in2="effect4_innerShadow_41964_70123" result="effect5_innerShadow_41964_70123"/>
</filter>
<filter id="filter3_d_41964_70123" x="53.5" y="90" width="24" height="26" filterUnits="userSpaceOnUse" color-interpolation-filters="sRGB">
<feFlood flood-opacity="0" result="BackgroundImageFix"/>
<feColorMatrix in="SourceAlpha" type="matrix" values="0 0 0 0 0 0 0 0 0 0 0 0 0 0 0 0 0 0 127 0" result="hardAlpha"/>
<feOffset dy="2"/>
<feGaussianBlur stdDeviation="4"/>
<feComposite in2="hardAlpha" operator="out"/>
<feColorMatrix type="matrix" values="0 0 0 0 0.427451 0 0 0 0 0.290196 0 0 0 0 1 0 0 0 0.5 0"/>
<feBlend mode="normal" in2="BackgroundImageFix" result="effect1_dropShadow_41964_70123"/>
<feBlend mode="normal" in="SourceGraphic" in2="effect1_dropShadow_41964_70123" result="shape"/>
</filter>
<filter id="filter4_dddii_41964_70123" x="155.405" y="80.61" width="88.19" height="88.19" filterUnits="userSpaceOnUse" color-interpolation-filters="sRGB">
<feFlood flood-opacity="0" result="BackgroundImageFix"/>
<feColorMatrix in="SourceAlpha" type="matrix" values="0 0 0 0 0 0 0 0 0 0 0 0 0 0 0 0 0 0 127 0" result="hardAlpha"/>
<feOffset dy="0.83"/>
<feGaussianBlur stdDeviation="1.39"/>
<feColorMatrix type="matrix" values="0 0 0 0 0.290196 0 0 0 0 0.176471 0 0 0 0 0.772549 0 0 0 0.08 0"/>
<feBlend mode="normal" in2="BackgroundImageFix" result="effect1_dropShadow_41964_70123"/>
<feColorMatrix in="SourceAlpha" type="matrix" values="0 0 0 0 0 0 0 0 0 0 0 0 0 0 0 0 0 0 127 0" result="hardAlpha"/>
<feOffset dy="3.93"/>
<feGaussianBlur stdDeviation="5.43"/>
<feColorMatrix type="matrix" values="0 0 0 0 0.290196 0 0 0 0 0.176471 0 0 0 0 0.772549 0 0 0 0.12 0"/>
<feBlend mode="normal" in2="effect1_dropShadow_41964_70123" result="effect2_dropShadow_41964_70123"/>
<feColorMatrix in="SourceAlpha" type="matrix" values="0 0 0 0 0 0 0 0 0 0 0 0 0 0 0 0 0 0 127 0" result="hardAlpha"/>
<feOffset dy="10.205"/>
<feGaussianBlur stdDeviation="17.0475"/>
<feColorMatrix type="matrix" values="0 0 0 0 0.290196 0 0 0 0 0.176471 0 0 0 0 0.772549 0 0 0 0.22 0"/>
<feBlend mode="normal" in2="effect2_dropShadow_41964_70123" result="effect3_dropShadow_41964_70123"/>
<feBlend mode="normal" in="SourceGraphic" in2="effect3_dropShadow_41964_70123" result="shape"/>
<feColorMatrix in="SourceAlpha" type="matrix" values="0 0 0 0 0 0 0 0 0 0 0 0 0 0 0 0 0 0 127 0" result="hardAlpha"/>
<feOffset dy="-0.75"/>
<feGaussianBlur stdDeviation="0.5"/>
<feComposite in2="hardAlpha" operator="arithmetic" k2="-1" k3="1"/>
<feColorMatrix type="matrix" values="0 0 0 0 0.427451 0 0 0 0 0.290196 0 0 0 0 1 0 0 0 0.3 0"/>
<feBlend mode="normal" in2="shape" result="effect4_innerShadow_41964_70123"/>
<feColorMatrix in="SourceAlpha" type="matrix" values="0 0 0 0 0 0 0 0 0 0 0 0 0 0 0 0 0 0 127 0" result="hardAlpha"/>
<feOffset dx="-0.5" dy="0.25"/>
<feGaussianBlur stdDeviation="0.25"/>
<feComposite in2="hardAlpha" operator="arithmetic" k2="-1" k3="1"/>
<feColorMatrix type="matrix" values="0 0 0 0 1 0 0 0 0 1 0 0 0 0 1 0 0 0 0.2 0"/>
<feBlend mode="normal" in2="effect4_innerShadow_41964_70123" result="effect5_innerShadow_41964_70123"/>
</filter>
<filter id="filter5_d_41964_70123" x="188.301" y="104.5" width="22.3999" height="24" filterUnits="userSpaceOnUse" color-interpolation-filters="sRGB">
<feFlood flood-opacity="0" result="BackgroundImageFix"/>
<feColorMatrix in="SourceAlpha" type="matrix" values="0 0 0 0 0 0 0 0 0 0 0 0 0 0 0 0 0 0 127 0" result="hardAlpha"/>
<feOffset dy="2"/>
<feGaussianBlur stdDeviation="4"/>
<feComposite in2="hardAlpha" operator="out"/>
<feColorMatrix type="matrix" values="0 0 0 0 0.427451 0 0 0 0 0.290196 0 0 0 0 1 0 0 0 0.5 0"/>
<feBlend mode="normal" in2="BackgroundImageFix" result="effect1_dropShadow_41964_70123"/>
<feBlend mode="normal" in="SourceGraphic" in2="effect1_dropShadow_41964_70123" result="shape"/>
</filter>
<filter id="filter6_dddii_41964_70123" x="136.405" y="40.11" width="100.19" height="100.19" filterUnits="userSpaceOnUse" color-interpolation-filters="sRGB">
<feFlood flood-opacity="0" result="BackgroundImageFix"/>
<feColorMatrix in="SourceAlpha" type="matrix" values="0 0 0 0 0 0 0 0 0 0 0 0 0 0 0 0 0 0 127 0" result="hardAlpha"/>
<feOffset dy="0.83"/>
<feGaussianBlur stdDeviation="1.39"/>
<feColorMatrix type="matrix" values="0 0 0 0 0.290196 0 0 0 0 0.176471 0 0 0 0 0.772549 0 0 0 0.08 0"/>
<feBlend mode="normal" in2="BackgroundImageFix" result="effect1_dropShadow_41964_70123"/>
<feColorMatrix in="SourceAlpha" type="matrix" values="0 0 0 0 0 0 0 0 0 0 0 0 0 0 0 0 0 0 127 0" result="hardAlpha"/>
<feOffset dy="3.93"/>
<feGaussianBlur stdDeviation="5.43"/>
<feColorMatrix type="matrix" values="0 0 0 0 0.290196 0 0 0 0 0.176471 0 0 0 0 0.772549 0 0 0 0.12 0"/>
<feBlend mode="normal" in2="effect1_dropShadow_41964_70123" result="effect2_dropShadow_41964_70123"/>
<feColorMatrix in="SourceAlpha" type="matrix" values="0 0 0 0 0 0 0 0 0 0 0 0 0 0 0 0 0 0 127 0" result="hardAlpha"/>
<feOffset dy="10.205"/>
<feGaussianBlur stdDeviation="17.0475"/>
<feColorMatrix type="matrix" values="0 0 0 0 0.290196 0 0 0 0 0.176471 0 0 0 0 0.772549 0 0 0 0.22 0"/>
<feBlend mode="normal" in2="effect2_dropShadow_41964_70123" result="effect3_dropShadow_41964_70123"/>
<feBlend mode="normal" in="SourceGraphic" in2="effect3_dropShadow_41964_70123" result="shape"/>
<feColorMatrix in="SourceAlpha" type="matrix" values="0 0 0 0 0 0 0 0 0 0 0 0 0 0 0 0 0 0 127 0" result="hardAlpha"/>
<feOffset dy="-0.75"/>
<feGaussianBlur stdDeviation="0.5"/>
<feComposite in2="hardAlpha" operator="arithmetic" k2="-1" k3="1"/>
<feColorMatrix type="matrix" values="0 0 0 0 0.427451 0 0 0 0 0.290196 0 0 0 0 1 0 0 0 0.3 0"/>
<feBlend mode="normal" in2="shape" result="effect4_innerShadow_41964_70123"/>
<feColorMatrix in="SourceAlpha" type="matrix" values="0 0 0 0 0 0 0 0 0 0 0 0 0 0 0 0 0 0 127 0" result="hardAlpha"/>
<feOffset dx="-0.5" dy="0.25"/>
<feGaussianBlur stdDeviation="0.25"/>
<feComposite in2="hardAlpha" operator="arithmetic" k2="-1" k3="1"/>
<feColorMatrix type="matrix" values="0 0 0 0 1 0 0 0 0 1 0 0 0 0 1 0 0 0 0.2 0"/>
<feBlend mode="normal" in2="effect4_innerShadow_41964_70123" result="effect5_innerShadow_41964_70123"/>
</filter>
<filter id="filter7_d_41964_70123" x="177.543" y="65.9453" width="20.6831" height="29.1992" filterUnits="userSpaceOnUse" color-interpolation-filters="sRGB">
<feFlood flood-opacity="0" result="BackgroundImageFix"/>
<feColorMatrix in="SourceAlpha" type="matrix" values="0 0 0 0 0 0 0 0 0 0 0 0 0 0 0 0 0 0 127 0" result="hardAlpha"/>
<feOffset dy="2"/>
<feGaussianBlur stdDeviation="4"/>
<feComposite in2="hardAlpha" operator="out"/>
<feColorMatrix type="matrix" values="0 0 0 0 0.427451 0 0 0 0 0.290196 0 0 0 0 1 0 0 0 0.5 0"/>
<feBlend mode="normal" in2="BackgroundImageFix" result="effect1_dropShadow_41964_70123"/>
<feBlend mode="normal" in="SourceGraphic" in2="effect1_dropShadow_41964_70123" result="shape"/>
</filter>
<linearGradient id="paint0_linear_41964_70123" x1="217.768" y1="44.875" x2="206.437" y2="60.5446" gradientUnits="userSpaceOnUse">
<stop stop-color="#EDDCFC"/>
<stop offset="1" stop-color="#D09BFF"/>
</linearGradient>
<linearGradient id="paint1_linear_41964_70123" x1="141.627" y1="6.01282" x2="147.326" y2="113.909" gradientUnits="userSpaceOnUse">
<stop stop-color="#C9AAFF"/>
<stop offset="1" stop-color="#6A48F6"/>
</linearGradient>
<linearGradient id="paint2_linear_41964_70123" x1="186.5" y1="70.5" x2="186.5" y2="112" gradientUnits="userSpaceOnUse">
<stop stop-color="white" stop-opacity="0"/>
<stop offset="1" stop-color="white"/>
</linearGradient>
<linearGradient id="paint3_linear_41964_70123" x1="132.5" y1="33.5" x2="134.994" y2="112.421" gradientUnits="userSpaceOnUse">
<stop stop-color="white"/>
<stop offset="1" stop-color="#F2EBFF"/>
</linearGradient>
<linearGradient id="paint4_linear_41964_70123" x1="193.5" y1="115" x2="82.7845" y2="115.391" gradientUnits="userSpaceOnUse">
<stop stop-color="white"/>
<stop offset="1" stop-color="#9C8CD9"/>
</linearGradient>
<linearGradient id="paint5_linear_41964_70123" x1="91.5" y1="106" x2="92.2093" y2="99.4687" gradientUnits="userSpaceOnUse">
<stop stop-color="#8A6EFF"/>
<stop offset="1" stop-color="#25ECC6"/>
</linearGradient>
<linearGradient id="paint6_linear_41964_70123" x1="132" y1="52.5" x2="132" y2="92.5" gradientUnits="userSpaceOnUse">
<stop stop-color="#3E00A8"/>
<stop offset="1" stop-color="#160070"/>
</linearGradient>
<linearGradient id="paint7_linear_41964_70123" x1="132.889" y1="68" x2="130.397" y2="82.2936" gradientUnits="userSpaceOnUse">
<stop stop-color="white"/>
<stop offset="1" stop-color="#E7CCFF"/>
</linearGradient>
<linearGradient id="paint8_linear_41964_70123" x1="132.889" y1="68" x2="130.397" y2="82.2936" gradientUnits="userSpaceOnUse">
<stop stop-color="white"/>
<stop offset="1" stop-color="#E7CCFF"/>
</linearGradient>
<linearGradient id="paint9_linear_41964_70123" x1="67.9233" y1="39.7692" x2="100.727" y2="123.349" gradientUnits="userSpaceOnUse">
<stop stop-color="#C9AAFF"/>
<stop offset="1" stop-color="#6A48F6"/>
</linearGradient>
<linearGradient id="paint10_linear_41964_70123" x1="66.1578" y1="66.4304" x2="71.9713" y2="133.93" gradientUnits="userSpaceOnUse">
<stop stop-color="white"/>
<stop offset="1" stop-color="#F2EBFF"/>
</linearGradient>
<linearGradient id="paint11_linear_41964_70123" x1="51.5" y1="130" x2="53.1225" y2="123.817" gradientUnits="userSpaceOnUse">
<stop stop-color="#8A6EFF"/>
<stop offset="1" stop-color="#25ECC6"/>
</linearGradient>
<linearGradient id="paint12_linear_41964_70123" x1="65.5" y1="88.5" x2="65.5" y2="112.5" gradientUnits="userSpaceOnUse">
<stop stop-color="#3E00A8"/>
<stop offset="1" stop-color="#160070"/>
</linearGradient>
<linearGradient id="paint13_linear_41964_70123" x1="65.9444" y1="98.5" x2="64.6984" y2="105.647" gradientUnits="userSpaceOnUse">
<stop stop-color="white"/>
<stop offset="1" stop-color="#E7CCFF"/>
</linearGradient>
<linearGradient id="paint14_linear_41964_70123" x1="65.9444" y1="98.5" x2="64.6984" y2="105.647" gradientUnits="userSpaceOnUse">
<stop stop-color="white"/>
<stop offset="1" stop-color="#E7CCFF"/>
</linearGradient>
<linearGradient id="paint15_linear_41964_70123" x1="259.731" y1="117.923" x2="176.151" y2="150.727" gradientUnits="userSpaceOnUse">
<stop stop-color="#C9AAFF"/>
<stop offset="1" stop-color="#6A48F6"/>
</linearGradient>
<linearGradient id="paint16_linear_41964_70123" x1="233.07" y1="116.158" x2="165.57" y2="121.971" gradientUnits="userSpaceOnUse">
<stop stop-color="white"/>
<stop offset="1" stop-color="#F2EBFF"/>
</linearGradient>
<linearGradient id="paint17_linear_41964_70123" x1="169.5" y1="131" x2="170.37" y2="124.508" gradientUnits="userSpaceOnUse">
<stop stop-color="#8A6EFF"/>
<stop offset="1" stop-color="#25ECC6"/>
</linearGradient>
<linearGradient id="paint18_linear_41964_70123" x1="199.5" y1="104.5" x2="199.5" y2="124.5" gradientUnits="userSpaceOnUse">
<stop stop-color="#3E00A8"/>
<stop offset="1" stop-color="#160070"/>
</linearGradient>
<linearGradient id="paint19_linear_41964_70123" x1="199.856" y1="112.5" x2="198.859" y2="118.217" gradientUnits="userSpaceOnUse">
<stop stop-color="white"/>
<stop offset="1" stop-color="#E7CCFF"/>
</linearGradient>
<linearGradient id="paint20_linear_41964_70123" x1="199.856" y1="112.5" x2="198.859" y2="118.217" gradientUnits="userSpaceOnUse">
<stop stop-color="white"/>
<stop offset="1" stop-color="#E7CCFF"/>
</linearGradient>
<linearGradient id="paint21_linear_41964_70123" x1="197.643" y1="62" x2="177.5" y2="89.8571" gradientUnits="userSpaceOnUse">
<stop stop-color="#EDDCFC"/>
<stop offset="1" stop-color="#D09BFF"/>
</linearGradient>
<linearGradient id="paint22_linear_41964_70123" x1="186.5" y1="67" x2="186.5" y2="88.5741" gradientUnits="userSpaceOnUse">
<stop stop-color="#4A346F"/>
<stop offset="1" stop-color="#7237D7"/>
</linearGradient>
<linearGradient id="paint23_linear_41964_70123" x1="195.211" y1="69.6591" x2="177.189" y2="89.1591" gradientUnits="userSpaceOnUse">
<stop stop-color="#9B54EC"/>
<stop offset="1" stop-color="#F1E0FF"/>
</linearGradient>
<linearGradient id="paint24_linear_41964_70123" x1="188.145" y1="75.2447" x2="184.836" y2="83.6626" gradientUnits="userSpaceOnUse">
<stop stop-color="#E7CCFF"/>
<stop offset="1" stop-color="white"/>
</linearGradient>
<clipPath id="clip0_41964_70123">
<rect width="264" height="148" fill="white"/>
</clipPath>
</defs>
</svg>
