<svg xmlns="http://www.w3.org/2000/svg" width="79" height="99" fill="none">
    <g filter="url(#a)">
        <rect width="70" height="90" x="4.305" y="2.87" fill="#fff" rx="4" />
        <rect width="70" height="90" x="4.305" y="2.87" fill="url(#b)" rx="4" />
        <rect width="70" height="90" x="4.305" y="2.87" fill="url(#c)" fill-opacity=".1" rx="4" />
        <path
            fill="url(#d)"
            d="M14.609 30.224a29.65 29.65 0 0 1 22.69.784l20.466 9.315a18.11 18.11 0 0 0 16.54-.79V63.04a38.27 38.27 0 0 1-24.951-2.34l-19.8-9.012a10.61 10.61 0 0 0-14.049 5.26l-11.2 24.607V36.767q.23-.225.466-.445a29.65 29.65 0 0 1 9.838-6.098"
        />
        <path
            fill="url(#e)"
            d="M5.212 50.842a31.82 31.82 0 0 1 24.339.84 10.61 10.61 0 0 0-14.044 5.262L4.305 81.556V51.198q.45-.185.907-.356"
        />
        <path fill="#fff" fill-opacity=".5" d="M13.305 20.752h51.882v53.333H13.305z" />
        <path stroke="#e7e1ff" stroke-width=".118" d="M13.305 20.752h51.882v53.333H13.305z" />
        <path fill="#fff" d="M14.011 21.458h50.471V73.38H14.011z" />
        <path stroke="#e7e1ff" stroke-width=".118" d="M14.011 21.458h50.471V73.38H14.011z" />
        <path
            fill="url(#f)"
            fill-rule="evenodd"
            d="m32.427 28.338-1.074 1.193-1.38-1.52v-.655c0-.075.087-.116.145-.068l1.532 1.272a.4.4 0 0 0 .51 0z"
            clip-rule="evenodd"
        />
        <path
            fill="url(#g)"
            d="m33.01 27.855-.583.483-.771.682a.355.355 0 0 1-.463.007l-1.22-1.015v1.947c0 .221.178.4.4.4h2.636l.276-1.252z"
        />
        <path
            fill="url(#h)"
            fill-rule="evenodd"
            d="M33.01 27.855v2.504h.428a.4.4 0 0 0 .4-.4v-2.603a.089.089 0 0 0-.146-.068z"
            clip-rule="evenodd"
        />
        <path
            fill="#1b1340"
            d="M35.218 29.222v.505h.353v-.483a.177.177 0 0 1 .177-.178h.362a.643.643 0 0 0 0-1.281h-.892v.632h.353v-.298h.515a.3.3 0 0 1 .301.303.304.304 0 0 1-.301.303h-.374a.49.49 0 0 0-.349.146.5.5 0 0 0-.145.35M36.801 29.727v-.77c0-.315.183-.565.548-.565q.089 0 .174.02v.316c-.041-.003-.077-.003-.094-.003-.193 0-.277.09-.277.27v.732zM37.629 29.074a.67.67 0 0 1 .694-.682.67.67 0 0 1 .695.682c0 .387-.29.684-.695.684a.67.67 0 0 1-.694-.684m1.043 0c0-.22-.147-.376-.349-.376s-.348.156-.348.376c0 .223.146.376.348.376s.349-.154.349-.376M40.141 29.074a.67.67 0 0 1 .695-.682.67.67 0 0 1 .694.682c0 .387-.29.684-.694.684a.67.67 0 0 1-.695-.684m1.043 0c0-.22-.147-.376-.348-.376-.202 0-.349.156-.349.376 0 .223.147.376.349.376s.348-.154.348-.376M41.713 29.727v-.742c0-.345.218-.593.609-.593.387 0 .606.247.606.593v.742h-.349v-.715c0-.192-.086-.311-.257-.311s-.258.12-.258.311v.715zM40.036 28.701h-.379v.487c0 .17.06.247.235.247.016 0 .058 0 .11-.002v.286a.8.8 0 0 1-.204.03c-.293 0-.493-.177-.493-.514v-.534h-.235v-.281h.059a.178.178 0 0 0 .177-.178v-.264h.35v.442h.38z"
        />
        <path
            fill="#6d4aff"
            d="M43.756 27.835h.493l.463 1.135q.061.143.106.292h.005q.045-.15.106-.292l.463-1.135h.493v1.893h-.357V28.46q0-.063.005-.125h-.005a1 1 0 0 1-.045.13l-.512 1.24h-.297l-.514-1.24a1 1 0 0 1-.047-.13h-.006q.006.062.006.125v1.268h-.357zM47.108 28.48c.103.053.189.136.246.238.062.11.093.235.09.36v.65h-.313l-.022-.195q-.062.107-.173.167a.604.604 0 0 1-.795-.27.74.74 0 0 1-.083-.354.7.7 0 0 1 .09-.347.65.65 0 0 1 .25-.245.7.7 0 0 1 .353-.088.74.74 0 0 1 .357.083m-.115.873q.103-.096.102-.277a.38.38 0 0 0-.097-.27.34.34 0 0 0-.492 0 .42.42 0 0 0 0 .54.32.32 0 0 0 .247.103.34.34 0 0 0 .24-.096M47.637 28.153a.197.197 0 0 1-.066-.151.2.2 0 0 1 .066-.153.223.223 0 0 1 .362.07.2.2 0 0 1 .017.083.201.201 0 0 1-.065.151.227.227 0 0 1-.314 0m.333 1.575h-.352v-1.304h.352zM48.58 29.728h-.353v-1.893h.352z"
        />
        <path
            fill="#2c1e66"
            d="M33.92 36.946h.166l.332.56h.014l.332-.56h.166l-.432.705v.493h-.145v-.493zm1.417 1.217c-.243 0-.407-.185-.407-.463 0-.281.164-.466.407-.466s.407.185.407.466c0 .278-.163.463-.407.463m0-.124c.185 0 .27-.16.27-.34s-.085-.34-.27-.34-.269.16-.269.34.084.34.27.34m1.184-.262v-.531h.138v.898h-.138v-.152h-.01a.28.28 0 0 1-.266.164c-.168 0-.29-.11-.29-.34v-.57h.138v.561c0 .131.082.216.197.216a.233.233 0 0 0 .231-.246m.391.367v-.898h.133v.136h.01a.24.24 0 0 1 .234-.15l.072.002v.14a.4.4 0 0 0-.084-.009c-.131 0-.227.09-.227.21v.57zm1.81-.898-.331.898h-.14l-.333-.898h.15l.248.716h.009l.248-.716zm.516.917c-.244 0-.407-.185-.407-.463 0-.281.163-.466.407-.466s.407.185.407.466c0 .278-.164.463-.407.463m0-.124c.185 0 .269-.16.269-.34s-.084-.34-.27-.34c-.184 0-.268.16-.268.34s.084.34.269.34m1.184-.262v-.531h.138v.898h-.138v-.152h-.01a.28.28 0 0 1-.266.164c-.169 0-.29-.11-.29-.34v-.57h.138v.561c0 .131.081.216.196.216a.233.233 0 0 0 .232-.246m.756.386c-.253 0-.408-.194-.408-.463 0-.274.162-.466.405-.466.19 0 .332.112.356.28h-.138c-.021-.081-.094-.156-.215-.156-.162 0-.27.134-.27.337 0 .208.106.344.27.344.107 0 .189-.059.215-.157h.138c-.024.16-.155.28-.353.28m.693-.56v.541h-.138v-1.198h.138v.44h.011c.042-.093.123-.152.265-.152.183 0 .306.108.306.34v.57h-.138v-.561c0-.143-.078-.225-.208-.225-.136 0-.236.089-.236.246m1.211.56c-.26 0-.418-.185-.418-.461s.161-.468.404-.468c.188 0 .386.115.386.45v.058h-.652c.007.192.118.297.28.297.109 0 .19-.047.225-.14l.133.037c-.042.136-.175.227-.358.227m-.28-.54h.512c0-.153-.096-.265-.246-.265-.158 0-.256.125-.266.265m.862.521v-.898h.134v.136h.01a.24.24 0 0 1 .233-.15l.073.002v.14a.4.4 0 0 0-.085-.009c-.13 0-.227.09-.227.21v.57zm-19.25 1.102v.117h-.201v.781h-.138v-.781h-.145v-.117h.145v-.124c0-.155.124-.232.252-.232.068 0 .11.014.131.024l-.04.119c-.013-.005-.037-.014-.077-.014-.09 0-.128.047-.128.136v.09zm.521.917c-.243 0-.407-.185-.407-.463 0-.281.164-.466.407-.466.244 0 .407.185.407.466 0 .278-.163.463-.407.463m0-.124c.185 0 .27-.16.27-.34s-.085-.34-.27-.34c-.184 0-.269.16-.269.34s.084.34.27.34m.618.105v-.898h.133v.136h.01a.24.24 0 0 1 .234-.15l.072.002v.14a.4.4 0 0 0-.084-.009c-.13 0-.227.09-.227.21v.57zm1.165.337a.3.3 0 0 1-.1-.016l.035-.122c.1.026.162.013.213-.124l.025-.07-.332-.903h.15l.248.716h.01l.247-.716h.15l-.381 1.03q-.079.207-.265.205m1.16-.318c-.242 0-.406-.185-.406-.463 0-.281.163-.466.407-.466s.407.185.407.466c0 .278-.164.463-.407.463m0-.124c.186 0 .27-.16.27-.34s-.084-.34-.27-.34c-.184 0-.268.16-.268.34s.084.34.269.34m1.185-.262v-.531h.138v.898h-.138v-.152h-.01a.28.28 0 0 1-.266.164c-.169 0-.29-.11-.29-.34v-.57h.138v.561c0 .131.081.216.196.216a.233.233 0 0 0 .232-.246m.39.367v-.898h.134v.136h.01a.24.24 0 0 1 .233-.15l.073.002v.14a.4.4 0 0 0-.084-.009c-.131 0-.227.09-.227.21v.57zm1.077 0v-.898h.133v.136h.01a.245.245 0 0 1 .233-.15l.073.002v.14a.4.4 0 0 0-.084-.009c-.131 0-.227.09-.227.21v.57zm.962.019c-.26 0-.419-.185-.419-.461s.162-.468.405-.468c.187 0 .386.115.386.45v.058h-.652c.006.192.118.297.28.297.108 0 .19-.047.224-.14l.134.037c-.042.136-.176.227-.358.227m-.28-.54h.512c0-.153-.096-.265-.246-.265-.158 0-.257.125-.266.265m1.498-.176-.124.035c-.024-.062-.073-.129-.194-.129-.11 0-.192.057-.192.134 0 .069.048.105.155.13l.133.034q.24.057.239.243c0 .155-.143.269-.351.269-.184 0-.31-.081-.342-.234l.131-.033q.038.145.208.145c.129 0 .21-.063.21-.14q.002-.094-.133-.126l-.15-.035c-.164-.04-.238-.122-.238-.246 0-.152.14-.26.33-.26.178 0 .275.085.318.213m.601.716c-.26 0-.419-.185-.419-.461s.162-.468.405-.468c.187 0 .386.115.386.45v.058h-.652c.006.192.118.297.28.297.108 0 .19-.047.225-.14l.133.037c-.042.136-.175.227-.358.227m-.28-.54h.512c0-.153-.096-.265-.246-.265-.158 0-.257.125-.266.265m.862.521v-.898h.133v.136h.01a.24.24 0 0 1 .234-.15l.072.002v.14a.4.4 0 0 0-.084-.009c-.131 0-.227.09-.227.21v.57zm1.375-.898-.332.898h-.14l-.333-.898h.15l.248.716h.009l.248-.716zm.526.917c-.26 0-.418-.185-.418-.461s.161-.468.404-.468c.188 0 .386.115.386.45v.058h-.652c.007.192.118.297.28.297.109 0 .19-.047.225-.14l.133.037c-.042.136-.175.227-.358.227m-.28-.54h.512c0-.153-.096-.265-.246-.265-.157 0-.256.125-.266.265m1.202.54c-.225 0-.382-.18-.382-.466 0-.283.157-.463.384-.463.175 0 .23.108.26.154h.011v-.442h.138v1.198h-.133v-.138h-.016c-.03.05-.09.157-.262.157m.018-.124c.166 0 .258-.14.258-.344 0-.201-.09-.337-.258-.337-.175 0-.262.148-.262.337 0 .192.09.344.262.344m1.147.105v-1.198h.405c.281 0 .407.168.407.38 0 .211-.126.38-.404.38h-.263v.438zm.145-.566h.258c.192 0 .267-.109.267-.253s-.075-.25-.27-.25h-.255zm.882.566v-.898h.133v.136h.01a.24.24 0 0 1 .234-.15l.072.002v.14a.4.4 0 0 0-.084-.009c-.13 0-.227.09-.227.21v.57zm.95.019c-.243 0-.406-.185-.406-.463 0-.281.163-.466.407-.466s.407.185.407.466c0 .278-.164.463-.407.463m0-.124c.185 0 .27-.16.27-.34s-.085-.34-.27-.34c-.184 0-.268.16-.268.34s.084.34.269.34m1.01-.793v.117h-.193v.524c0 .117.059.136.12.136q.044-.002.06-.008l.029.124a.3.3 0 0 1-.103.017c-.117 0-.244-.075-.244-.232v-.561h-.136v-.117h.136v-.215h.138v.215zm.562.917c-.243 0-.407-.185-.407-.463 0-.281.164-.466.407-.466s.407.185.407.466c0 .278-.164.463-.407.463m0-.124c.185 0 .27-.16.27-.34s-.085-.34-.27-.34-.269.16-.269.34.084.34.27.34m.756-.435v.54h-.138v-.898h.133v.14h.012c.042-.091.126-.152.262-.152.182 0 .304.11.304.34v.57h-.138v-.561c0-.141-.078-.225-.206-.225-.132 0-.23.089-.23.246m1.665.559c-.26 0-.419-.185-.419-.461s.162-.468.405-.468c.187 0 .386.115.386.45v.058h-.652c.007.192.118.297.28.297.108 0 .19-.047.225-.14l.133.037c-.042.136-.175.227-.358.227m-.28-.54h.512c0-.153-.096-.265-.246-.265-.158 0-.257.125-.266.265m.862.521v-.898h.133v.14h.012c.038-.096.124-.152.241-.152.118 0 .197.056.241.152h.01c.046-.093.14-.152.269-.152.16 0 .273.098.273.309v.601h-.138v-.601c0-.133-.084-.185-.182-.185-.127 0-.199.086-.199.201v.585h-.14v-.615c0-.102-.074-.17-.178-.17-.108 0-.204.092-.204.224v.561zm1.696.021c-.17 0-.306-.1-.306-.276 0-.206.181-.242.348-.264.164-.021.232-.015.232-.082v-.005c0-.115-.063-.182-.19-.182-.131 0-.203.07-.234.136l-.13-.047c.07-.164.224-.21.36-.21.114 0 .332.032.332.317v.592h-.138v-.121h-.007c-.028.058-.11.142-.267.142m.021-.124c.164 0 .253-.11.253-.222v-.126c-.024.028-.18.044-.239.051-.107.014-.203.047-.203.152 0 .096.08.145.19.145m.643.103v-.898h.138v.898zm.07-1.048a.096.096 0 0 1-.098-.093c0-.052.044-.094.098-.094s.098.042.098.093a.096.096 0 0 1-.098.094m.459-.15v1.198h-.138v-1.198zm.98 1.22c-.17 0-.306-.101-.306-.277 0-.206.181-.242.348-.264.164-.021.232-.015.232-.082v-.005c0-.115-.063-.182-.19-.182-.131 0-.203.07-.234.136l-.13-.047c.07-.164.224-.21.36-.21.114 0 .332.032.332.317v.592h-.138v-.121h-.007c-.028.058-.11.142-.267.142m.021-.125c.164 0 .253-.11.253-.222v-.126c-.024.028-.18.044-.239.051-.107.014-.203.047-.203.152 0 .096.08.145.19.145m.982.122c-.224 0-.381-.18-.381-.466 0-.283.157-.463.383-.463.176 0 .23.108.26.154h.012v-.442h.138v1.198h-.133v-.138h-.017c-.03.05-.089.157-.262.157m.019-.124c.166 0 .257-.14.257-.344 0-.201-.089-.337-.257-.337-.176 0-.262.148-.262.337 0 .192.089.344.262.344m1.004.124c-.225 0-.381-.18-.381-.466 0-.283.156-.463.383-.463.176 0 .23.108.26.154h.012v-.442h.138v1.198h-.134v-.138h-.016c-.03.05-.089.157-.262.157m.019-.124c.166 0 .257-.14.257-.344 0-.201-.089-.337-.257-.337-.176 0-.262.148-.262.337 0 .192.089.344.262.344m.665.105v-.898h.133v.136h.01a.24.24 0 0 1 .233-.15l.073.002v.14a.4.4 0 0 0-.084-.009c-.131 0-.227.09-.227.21v.57zm.962.019c-.26 0-.419-.185-.419-.461s.162-.468.405-.468c.187 0 .386.115.386.45v.058h-.652c.006.192.118.297.28.297.108 0 .19-.047.225-.14l.133.037c-.042.136-.176.227-.358.227m-.28-.54h.511c0-.153-.095-.265-.245-.265-.158 0-.257.125-.266.265m1.498-.176-.124.035c-.024-.062-.073-.129-.194-.129-.11 0-.192.057-.192.134 0 .069.048.105.155.13l.133.034q.24.057.239.243c0 .155-.143.269-.351.269-.184 0-.31-.081-.342-.234l.131-.033q.039.145.208.145c.129 0 .21-.063.21-.14q.002-.094-.132-.126l-.15-.035c-.165-.04-.239-.122-.239-.246 0-.152.14-.26.33-.26.178 0 .275.085.318.213m.86 0-.123.035c-.024-.062-.074-.129-.194-.129-.11 0-.192.057-.192.134 0 .069.048.105.154.13l.133.034q.24.057.24.243c0 .155-.143.269-.352.269-.183 0-.31-.081-.341-.234l.13-.033q.038.145.209.145c.129 0 .21-.063.21-.14q.002-.094-.133-.126l-.15-.035c-.165-.04-.238-.122-.238-.246 0-.152.14-.26.33-.26.177 0 .275.085.318.213m.325.707a.106.106 0 0 1 0-.211c.058 0 .106.047.106.105a.106.106 0 0 1-.105.106m0-.667a.106.106 0 0 1 0-.21c.058 0 .106.047.106.105a.106.106 0 0 1-.105.105"
        />
        <rect width="39.059" height="6.647" x="19.716" y="43.144" fill="#fff" rx="2.235" />
        <rect width="39.059" height="6.647" x="19.716" y="43.144" stroke="#e7e1ff" stroke-width=".235" rx="2.235" />
        <path
            fill="#2c1e66"
            d="M28.894 47.391a.3.3 0 0 1-.15-.037v-.168a.4.4 0 0 0 .126.026c.103 0 .177-.04.233-.19l.013-.034-.246-.634-.126-.326h.239c.034.104.071.206.11.326l.12.35h.007l.132-.354c.04-.107.084-.233.116-.322h.219l-.127.32-.28.725c-.1.256-.239.318-.386.318m1.351-.397c-.275 0-.482-.207-.482-.497s.207-.493.482-.493c.273 0 .482.203.482.493s-.209.497-.482.497m-.256-.497c0 .192.1.32.256.32s.254-.128.254-.32c0-.19-.098-.316-.254-.316s-.256.126-.256.316m1.242.497c-.17 0-.303-.13-.303-.367v-.599h.217v.605c0 .13.064.186.154.186.111 0 .201-.094.201-.275v-.516h.219v.94H31.5v-.136h-.005a.29.29 0 0 1-.264.162m.767-.625v-.34h.219v.216h.003c.047-.149.138-.241.28-.241q.04 0 .072.008v.218a.3.3 0 0 0-.083-.011c-.139 0-.272.088-.272.346v.403h-.219v-.599m.94.625c-.148 0-.267-.096-.267-.256 0-.177.162-.246.373-.297l.17-.04v-.04c0-.139-.111-.184-.22-.184a.55.55 0 0 0-.281.085v-.166a.6.6 0 0 1 .32-.092c.196 0 .393.088.393.369v.376q-.002.08.07.081a.1.1 0 0 0 .053-.011v.147a.3.3 0 0 1-.128.028.2.2 0 0 1-.207-.167h-.004a.3.3 0 0 1-.271.167m-.046-.275c0 .074.047.11.113.11.084 0 .209-.078.209-.272v-.02l-.128.037c-.134.038-.194.076-.194.145m1.184.275c-.231 0-.421-.198-.421-.495s.194-.495.427-.495c.122 0 .232.06.288.162h.004v-.602h.218v1.403h-.218v-.139h-.004a.34.34 0 0 1-.294.166m-.195-.497c0 .198.103.328.252.328.147 0 .252-.13.252-.328v-.004c0-.194-.103-.322-.25-.322s-.254.129-.254.326m1.348.497c-.231 0-.422-.198-.422-.495s.194-.495.428-.495c.122 0 .231.06.288.162h.003v-.602h.219v1.403h-.219v-.139h-.003a.34.34 0 0 1-.294.166m-.196-.497c0 .198.104.328.252.328.147 0 .253-.13.253-.328v-.004c0-.194-.104-.322-.25-.322s-.255.129-.255.326m.99-.128v-.34h.22v.216h.003c.047-.149.137-.241.28-.241q.04 0 .072.008v.218a.3.3 0 0 0-.083-.011c-.14 0-.273.088-.273.346v.403h-.218v-.599m1.158.625c-.293 0-.504-.196-.504-.508 0-.273.192-.482.446-.482.23 0 .39.154.39.42v.094h-.614c.02.21.154.301.322.301a.54.54 0 0 0 .273-.08v.165c-.09.06-.2.09-.313.09m-.278-.627h.397c-.01-.135-.081-.205-.188-.205-.11 0-.187.072-.21.205m1.064.627a.5.5 0 0 1-.282-.088v-.172a.5.5 0 0 0 .265.087c.088 0 .177-.034.177-.111 0-.051-.04-.074-.111-.104l-.128-.05c-.132-.053-.192-.144-.192-.253 0-.173.154-.3.354-.3.094 0 .186.023.254.063v.171a.46.46 0 0 0-.23-.062c-.096 0-.177.038-.177.111 0 .051.036.081.108.11l.144.058c.12.047.185.122.185.239 0 .184-.166.301-.367.301m.814 0a.5.5 0 0 1-.282-.088v-.172a.5.5 0 0 0 .265.087c.089 0 .177-.034.177-.111 0-.051-.04-.074-.11-.104l-.129-.05c-.132-.053-.192-.144-.192-.253 0-.173.154-.3.354-.3.094 0 .186.023.254.063v.171a.46.46 0 0 0-.23-.062c-.096 0-.176.038-.176.111 0 .051.035.081.107.11l.145.058c.12.047.184.122.184.239 0 .184-.165.301-.367.301m1.244.232c-.416 0-.721-.29-.721-.716 0-.427.323-.745.734-.745.393 0 .674.263.674.642 0 .278-.166.444-.352.444-.094 0-.17-.04-.21-.111h-.003a.27.27 0 0 1-.22.111c-.15 0-.271-.113-.271-.305 0-.209.139-.408.35-.408.083 0 .143.037.179.098h.005l.017-.081h.177l-.088.41c-.017.077.01.135.07.135.086 0 .165-.088.165-.288 0-.29-.205-.478-.493-.478-.305 0-.546.241-.546.576s.228.546.54.546q.183-.001.347-.086v.162a.7.7 0 0 1-.354.094m-.19-.676c0 .094.043.167.12.167.111 0 .186-.131.186-.278v-.002c0-.094-.041-.166-.12-.166-.104 0-.187.12-.187.279m1.08-.18v-.342h.219v.138h.004a.34.34 0 0 1 .293-.162c.219 0 .42.183.42.493 0 .316-.209.497-.425.497a.32.32 0 0 1-.288-.167h-.004v.536h-.218v-.994m.208.127c0 .2.105.328.248.328.15 0 .254-.128.254-.328 0-.197-.102-.325-.25-.325-.145 0-.252.126-.252.321zm.945-.128v-.34h.218v.216h.004c.047-.149.138-.241.28-.241q.04 0 .072.008v.218a.3.3 0 0 0-.083-.011c-.139 0-.273.088-.273.346v.403h-.218v-.599m1.135.625c-.275 0-.482-.207-.482-.497s.207-.493.482-.493c.273 0 .482.203.482.493s-.21.497-.482.497m-.256-.497c0 .192.1.32.256.32s.254-.128.254-.32c0-.19-.098-.316-.254-.316s-.256.126-.256.316m1.316.497c-.172 0-.298-.103-.298-.309v-.482h-.196v-.169c.19 0 .208-.026.208-.235h.2v.23h.255v.174h-.256v.465c0 .106.053.151.14.151a.3.3 0 0 0 .116-.02v.16a.4.4 0 0 1-.17.035m.774 0c-.274 0-.481-.207-.481-.497s.207-.493.481-.493c.273 0 .482.203.482.493s-.209.497-.482.497m-.256-.497c0 .192.1.32.256.32.157 0 .255-.128.255-.32 0-.19-.098-.316-.255-.316-.156 0-.256.126-.256.316m.947-.128v-.34h.218v.135h.004a.32.32 0 0 1 .271-.16c.185 0 .32.132.32.378v.586h-.218v-.576c0-.142-.062-.213-.168-.213-.103 0-.209.08-.209.282v.507h-.218v-.599m1.179.625a.15.15 0 0 1-.149-.15.15.15 0 0 1 .149-.15c.083 0 .149.069.149.15a.15.15 0 0 1-.15.15m.38-.625v-.34h.218v.135h.004a.3.3 0 0 1 .27-.16c.11 0 .212.056.263.186h.003c.066-.124.17-.186.29-.186.175 0 .31.134.31.365v.599h-.216v-.578c0-.149-.062-.211-.156-.211-.117 0-.196.096-.196.264v.525h-.218v-.582q0-.206-.15-.207c-.11 0-.204.1-.204.271v.518h-.218v-.599m2.065.625c-.293 0-.504-.196-.504-.508 0-.273.192-.482.446-.482.23 0 .39.154.39.42v.094h-.614c.02.21.154.301.322.301a.54.54 0 0 0 .273-.08v.165c-.09.06-.2.09-.313.09m-.278-.627h.397c-.01-.135-.081-.205-.188-.205-.11 0-.187.072-.21.205"
        />
        <g filter="url(#i)">
            <g fill="#2c1e66" clip-path="url(#j)">
                <path
                    d="M38.463 54.644h-.522v.522h.522zM39.507 54.644h-.522v.522h.522zM40.029 54.644h-.522v.522h.522zM38.463 55.166h-.522v.522h.522zM38.985 55.166h-.522v.522h.522zM39.507 55.166h-.522v.522h.522zM39.507 55.688h-.522v.522h.522zM40.029 55.688h-.522v.522h.522zM38.463 56.21h-.522v.522h.522zM40.029 56.21h-.522v.522h.522zM40.551 56.21h-.522v.522h.522zM39.507 56.732h-.522v.522h.522zM40.029 56.732h-.522v.522h.522zM39.507 57.254h-.522v.522h.522zM40.029 57.254h-.522v.522h.522zM40.551 57.254h-.522v.522h.522zM38.463 57.776h-.522v.522h.522zM39.507 57.776h-.522v.522h.522zM40.551 57.776h-.522v.522h.522zM38.463 58.298h-.522v.522h.522zM38.985 58.298h-.522v.522h.522zM40.029 58.298h-.522v.522h.522zM40.551 58.298h-.522v.522h.522zM34.288 58.82h-.522v.521h.522zM35.332 58.82h-.522v.521h.521z"
                />
                <path d="M35.854 58.82h-.523v.521h.522zM36.897 58.82h-.522v.521h.522zM37.42 58.82h-.523v.521h.522z" />
                <path
                    d="M37.941 58.82h-.522v.521h.522zM39.507 58.82h-.522v.521h.522zM40.029 58.82h-.522v.521h.522zM40.551 58.82h-.522v.521h.522zM41.595 58.82h-.522v.521h.522zM43.16 58.82h-.521v.521h.522zM44.205 58.82h-.522v.521h.522zM44.727 58.82h-.522v.521h.522zM34.288 59.342h-.522v.522h.522z"
                />
                <path d="M34.81 59.342h-.523v.522h.522zM35.854 59.342h-.523v.522h.522z" />
                <path
                    d="M36.375 59.342h-.522v.522h.522zM39.507 59.342h-.522v.522h.522zM40.029 59.342h-.522v.522h.522zM40.551 59.342h-.522v.522h.522zM42.117 59.342h-.522v.522h.522zM42.639 59.342h-.522v.522h.522z"
                />
                <path
                    d="M43.16 59.342h-.521v.522h.522zM43.683 59.342h-.522v.522h.522zM44.205 59.342h-.522v.522h.522zM34.288 59.864h-.522v.521h.522zM35.332 59.864h-.522v.521h.521z"
                />
                <path d="M35.854 59.864h-.523v.521h.522z" />
                <path d="M36.375 59.864h-.522v.521h.522zM37.42 59.864h-.523v.521h.522z" />
                <path
                    d="M37.941 59.864h-.522v.521h.522zM38.463 59.864h-.522v.521h.522zM39.507 59.864h-.522v.521h.522zM40.029 59.864h-.522v.521h.522zM42.117 59.864h-.522v.521h.522zM42.639 59.864h-.522v.521h.522zM43.683 59.864h-.522v.521h.522zM34.288 60.386h-.522v.521h.522z"
                />
                <path
                    d="M34.81 60.386h-.523v.521h.522zM35.854 60.386h-.523v.521h.522zM37.941 60.386h-.522v.521h.522zM38.463 60.386h-.522v.521h.522zM40.029 60.386h-.522v.521h.522zM41.595 60.386h-.522v.521h.522zM44.205 60.386h-.522v.521h.522z"
                />
                <path d="M34.81 60.907h-.523v.522h.522zM35.332 60.907h-.522v.522h.521z" />
                <path d="M35.854 60.907h-.523v.522h.522z" />
                <path
                    d="M36.375 60.907h-.522v.522h.522zM36.897 60.907h-.522v.522h.522zM37.42 60.907h-.523v.522h.522z"
                />
                <path
                    d="M37.941 60.907h-.522v.522h.522zM38.985 60.907h-.522v.522h.522zM39.507 60.907h-.522v.522h.522zM40.551 60.907h-.522v.522h.522zM41.595 60.907h-.522v.522h.522zM43.683 60.907h-.522v.522h.522zM38.463 61.43h-.522v.522h.522zM38.985 61.43h-.522v.522h.522zM39.507 61.43h-.522v.522h.522zM40.029 61.43h-.522v.522h.522zM41.073 61.43h-.522v.522h.522zM41.595 61.43h-.522v.522h.522zM42.117 61.43h-.522v.522h.522zM42.639 61.43h-.522v.522h.522zM44.727 61.43h-.522v.522h.522z"
                />
                <path
                    d="M38.463 61.951h-.522v.522h.522zM38.985 61.951h-.522v.522h.522zM39.507 61.951h-.522v.522h.522zM40.029 61.951h-.522v.522h.522zM40.551 61.951h-.522v.522h.522zM41.073 61.951h-.522v.522h.522zM41.595 61.951h-.522v.522h.522zM42.117 61.951h-.522v.522h.522zM43.16 61.951h-.521v.522h.522zM43.683 61.951h-.522v.522h.522zM38.463 62.473h-.522v.522h.522zM38.985 62.473h-.522v.522h.522zM39.507 62.473h-.522v.522h.522zM42.117 62.473h-.522v.522h.522zM42.639 62.473h-.522v.522h.522zM43.683 62.473h-.522v.522h.522zM44.727 62.473h-.522v.522h.522zM39.507 62.995h-.522v.522h.522zM40.551 62.995h-.522v.522h.522zM41.073 62.995h-.522v.522h.522zM42.117 62.995h-.522v.522h.522zM43.16 62.995h-.521v.522h.522zM43.683 62.995h-.522v.522h.522zM38.463 63.517h-.522v.522h.522zM39.507 63.517h-.522v.522h.522zM42.639 63.517h-.522v.522h.522z"
                />
                <path
                    d="M43.16 63.517h-.521v.522h.522zM38.463 64.04h-.522v.521h.522zM38.985 64.04h-.522v.521h.522zM40.551 64.04h-.522v.521h.522zM41.595 64.04h-.522v.521h.522zM38.985 64.561h-.522v.522h.522zM39.507 64.561h-.522v.522h.522zM40.029 64.561h-.522v.522h.522zM42.117 64.561h-.522v.522h.522zM42.639 64.561h-.522v.522h.522zM43.683 64.561h-.522v.522h.522zM44.205 64.561h-.522v.522h.522zM38.463 65.083h-.522v.522h.522zM41.073 65.083h-.522v.522h.522z"
                />
                <path d="M42.117 65.083h-.522v.522h.522zM42.639 65.083h-.522v.522h.522z" />
                <path d="M43.16 65.083h-.521v.522h.522zM43.683 65.083h-.522v.522h.522z" />
                <path
                    fill-rule="evenodd"
                    d="M33.766 54.644h3.653v3.654h-3.653zm.522.522h2.61v2.61h-2.61zM41.073 54.644h3.654v3.654h-3.654zm.522.522h2.61v2.61h-2.61z"
                    clip-rule="evenodd"
                />
                <path d="M36.375 55.688H34.81v1.566h1.565zM43.683 55.688h-1.566v1.566h1.566z" />
                <path
                    fill-rule="evenodd"
                    d="M33.766 61.951h3.653v3.654h-3.653zm.522.522h2.61v2.61h-2.61z"
                    clip-rule="evenodd"
                />
                <path d="M36.375 62.995H34.81v1.566h1.565z" />
            </g>
        </g>
    </g>
    <defs>
        <radialGradient
            id="b"
            cx="0"
            cy="0"
            r="1"
            gradientTransform="matrix(31.3529 0 0 41.4834 4.305 46.136)"
            gradientUnits="userSpaceOnUse"
        >
            <stop stop-color="#6d4aff" stop-opacity=".4" />
            <stop offset="1" stop-color="#bcabff" stop-opacity="0" />
        </radialGradient>
        <radialGradient
            id="c"
            cx="0"
            cy="0"
            r="1"
            gradientTransform="matrix(0 29.8753 -27.6667 0 74.305 46.053)"
            gradientUnits="userSpaceOnUse"
        >
            <stop stop-color="#ff0004" stop-opacity=".5" />
            <stop offset="1" stop-color="#ff8d8f" stop-opacity="0" />
        </radialGradient>
        <radialGradient
            id="d"
            cx="0"
            cy="0"
            r="1"
            gradientTransform="matrix(16.8668 59.401 -123.106 -16.305 27.128 1.785)"
            gradientUnits="userSpaceOnUse"
        >
            <stop stop-color="#a995ff" />
            <stop offset="1" stop-color="#6652f5" />
        </radialGradient>
        <radialGradient
            id="g"
            cx="0"
            cy="0"
            r="1"
            gradientTransform="matrix(3.86346 0 0 3.64162 33.27 28.161)"
            gradientUnits="userSpaceOnUse"
        >
            <stop offset=".556" stop-color="#6d4aff" />
            <stop offset=".994" stop-color="#aa8eff" />
        </radialGradient>
        <linearGradient id="e" x1="1.067" x2="19.465" y1="75.86" y2="35.436" gradientUnits="userSpaceOnUse">
            <stop stop-color="#6d4bfd" />
            <stop offset="1" stop-color="#1c0554" />
        </linearGradient>
        <linearGradient id="f" x1="31.423" x2="30.127" y1="29.552" y2="25.049" gradientUnits="userSpaceOnUse">
            <stop stop-color="#e3d9ff" />
            <stop offset="1" stop-color="#7341ff" />
        </linearGradient>
        <linearGradient id="h" x1="35.087" x2="32.106" y1="32.364" y2="25.932" gradientUnits="userSpaceOnUse">
            <stop offset=".271" stop-color="#e3d9ff" />
            <stop offset="1" stop-color="#7341ff" />
        </linearGradient>
        <filter
            id="a"
            width="78.61"
            height="98.61"
            x="0"
            y="0"
            color-interpolation-filters="sRGB"
            filterUnits="userSpaceOnUse"
        >
            <feFlood flood-opacity="0" result="BackgroundImageFix" />
            <feColorMatrix in="SourceAlpha" result="hardAlpha" values="0 0 0 0 0 0 0 0 0 0 0 0 0 0 0 0 0 0 127 0" />
            <feOffset dy="1.435" />
            <feGaussianBlur stdDeviation="2.152" />
            <feComposite in2="hardAlpha" operator="out" />
            <feColorMatrix values="0 0 0 0 0.427451 0 0 0 0 0.290196 0 0 0 0 1 0 0 0 0.1 0" />
            <feBlend in2="BackgroundImageFix" result="effect1_dropShadow_64562_28790" />
            <feBlend in="SourceGraphic" in2="effect1_dropShadow_64562_28790" result="shape" />
        </filter>
        <filter
            id="i"
            width="16.751"
            height="16.751"
            x="30.87"
            y="52.556"
            color-interpolation-filters="sRGB"
            filterUnits="userSpaceOnUse"
        >
            <feFlood flood-opacity="0" result="BackgroundImageFix" />
            <feColorMatrix in="SourceAlpha" result="hardAlpha" values="0 0 0 0 0 0 0 0 0 0 0 0 0 0 0 0 0 0 127 0" />
            <feOffset dy=".807" />
            <feGaussianBlur stdDeviation=".404" />
            <feComposite in2="hardAlpha" operator="out" />
            <feColorMatrix values="0 0 0 0 0 0 0 0 0 0 0 0 0 0 0 0 0 0 0.25 0" />
            <feBlend in2="BackgroundImageFix" result="effect1_dropShadow_64562_28790" />
            <feBlend in="SourceGraphic" in2="effect1_dropShadow_64562_28790" result="shape" />
        </filter>
        <clipPath id="j"><path fill="#fff" d="M31.678 52.556h15.137v15.137H31.678z" /></clipPath>
    </defs>
</svg>
