<svg xmlns="http://www.w3.org/2000/svg" width="346" height="162" fill="none" viewBox="0 0 346 162">
  <defs/>
  <g clip-path="url(#clip0)">
    <path fill="#EBEDED" d="M85.68 28.43A9.43 9.43 0 0195.11 19H261a9.43 9.43 0 019.43 9.43v10.22H85.68V28.43z"/>
    <path fill="url(#paint0_linear)" d="M85.68 38.65h184.74v96.92a9.43 9.43 0 01-9.43 9.43H95.1a9.43 9.43 0 01-9.43-9.43V38.65z"/>
    <path fill="#EBEDED" fill-rule="evenodd" d="M260.99 20.4H95.1a8.03 8.03 0 00-8.03 8.03v107.14a8.03 8.03 0 008.03 8.03H261a8.03 8.03 0 008.03-8.03V28.43a8.03 8.03 0 00-8.03-8.03zM95.1 19a9.43 9.43 0 00-9.43 9.43v107.14a9.43 9.43 0 009.43 9.43H261a9.43 9.43 0 009.43-9.43V28.43a9.43 9.43 0 00-9.43-9.43H95.1z" clip-rule="evenodd"/>
    <circle cx="98.26" cy="29.22" r="3.15" fill="#C3C8CC"/>
    <circle cx="107.69" cy="29.22" r="3.15" fill="#C3C8CC"/>
    <circle cx="117.13" cy="29.22" r="3.15" fill="#C3C8CC"/>
    <path fill="#EBEDED" d="M177.54 120h2v24h-2v-24z"/>
    <path fill="#1EB88F" d="M184.93 130h-12.9l3.47-6.98h5.93l3.5 6.98z"/>
    <path fill="url(#paint1_linear)" d="M226.24 58.42c0 30.6-24.8 65.46-47.8 65.46S130.7 89.03 130.7 58.42c0-30.6 21.4-52.42 47.79-52.42s47.76 21.78 47.76 52.42z"/>
    <ellipse cx="156.37" cy="37.86" fill="url(#paint2_linear)" rx="12.24" ry="18.93" transform="rotate(39.42 156.37 37.86)"/>
    <path fill="url(#paint3_linear)" d="M246 24a24 24 0 1148 0 24 24 0 01-48 0z"/>
    <path fill="#fff" fill-rule="evenodd" d="M275.85 16.84v2.46h2.4c.81 0 1.5.66 1.5 1.51v12.82c0 .82-.66 1.51-1.5 1.51h-16.17a1.51 1.51 0 01-1.5-1.5V20.8c0-.82.65-1.51 1.5-1.51h2.37v-2.46a5.7 5.7 0 015.7-5.7 5.7 5.7 0 015.7 5.7zm-2.4 0v2.46h-6.54v-2.46c0-2.26 1.73-3.26 3.27-3.26 1.53 0 3.27 1 3.27 3.26zm-2.98 6.74c1.1 0 1.98.89 1.98 1.99 0 .75-.4 1.41-1.04 1.73l.82 3.53h-3.53l.82-3.53a1.98 1.98 0 01.94-3.72z" clip-rule="evenodd"/>
    <path fill="#80E5D4" d="M46.1 36.65L42.64 34 34 45.26l3.46 2.65 8.64-11.26z"/>
    <path fill="#657EE3" d="M83.27 77L80 79.88l9.38 10.65 3.27-2.88L83.27 77z"/>
    <path fill="#EB75B3" d="M54.05 119.1a3.05 3.05 0 100-6.1 3.05 3.05 0 000 6.1z"/>
    <path fill="#59CA6C" d="M343.05 98.1a3.05 3.05 0 100-6.1 3.05 3.05 0 000 6.1z"/>
    <path fill="#FFB7B7" d="M75.42 4h-4.28L69 7.7l2.14 3.74h4.28L77.6 7.7 75.43 4z"/>
    <path fill="#50506A" d="M6.79 65.68l-3.86 9.08 9.77-1.18-5.9-7.9z"/>
    <path fill="#FFD585" d="M248.18 63.61L244.13 62 240 72.39l4.05 1.6 4.13-10.38z"/>
    <path fill="#C580E5" d="M316.58 69.85L314.53 66 302 72.66l2.04 3.85 12.54-6.66z"/>
    <path fill="#50506A" d="M343.43 22h-4.29L337 25.7l2.14 3.74h4.29l2.14-3.74-2.14-3.7z"/>
    <path fill="#EB75B3" d="M315.73 125l-7.73 6.1 9.18 3.63-1.45-9.73z"/>
    <path fill="url(#paint4_linear)" d="M114 128h-14v28.98a3 3 0 004.42 2.64l8.16-4.39a3 3 0 012.84 0l8.16 4.4a3 3 0 004.42-2.65V128h-14z"/>
    <path fill="url(#paint5_linear)" d="M114 141a19 19 0 100-38 19 19 0 000 38z"/>
    <path fill="#A01D48" d="M114 133a11 11 0 100-22 11 11 0 000 22z"/>
    <path fill="#fff" d="M197.28 54.85a4.88 4.88 0 00-1.4-3.43 4.8 4.8 0 00-1.56-1.05 4.78 4.78 0 00-5.24 1.05 4.88 4.88 0 00-1.4 3.43V55l-20.91 6.74a4.82 4.82 0 00-3.08-2.02 4.79 4.79 0 00-3.6.76 4.74 4.74 0 00-1.3 1.31 4.8 4.8 0 00-.7 3.59c.12.61.36 1.2.7 1.72l.04.05a4.81 4.81 0 001.77 1.56c.72.37 1.5.55 2.3.53a4.43 4.43 0 001.46-.26l13.74 17.34a4.83 4.83 0 00-.04 3.66 4.76 4.76 0 002.53 2.62l.04.01c1.17.5 2.48.52 3.66.05a4.83 4.83 0 002.63-2.57c.4-.94.49-1.98.25-2.98a4.77 4.77 0 00-1.55-2.54l7.3-24.95a4.72 4.72 0 003.09-1.53 4.8 4.8 0 001.25-3.24h.02zm-14.84 28.46a4.8 4.8 0 00-2.13.53l-13.42-16.98a4.75 4.75 0 00.68-2l21.36-6.8c.23.24.47.46.74.67l-7.21 24.57h-.03v.01z"/>
  </g>
  <defs>
    <linearGradient id="paint0_linear" x1="178.05" x2="178.05" y1="65.78" y2="155" gradientUnits="userSpaceOnUse">
      <stop stop-color="#fff"/>
      <stop offset="1" stop-color="#FDFEFE"/>
    </linearGradient>
    <linearGradient id="paint1_linear" x1="178.46" x2="178.46" y1="6" y2="123.88" gradientUnits="userSpaceOnUse">
      <stop stop-color="#5BCB6A"/>
      <stop offset="1" stop-color="#1CB78F"/>
    </linearGradient>
    <linearGradient id="paint2_linear" x1="66.73" x2="160.64" y1="33.47" y2="9.74" gradientUnits="userSpaceOnUse">
      <stop stop-color="#fff"/>
      <stop offset="1" stop-color="#fff" stop-opacity="0"/>
    </linearGradient>
    <linearGradient id="paint3_linear" x1="270" x2="270" y1="5.57" y2="53.14" gradientUnits="userSpaceOnUse">
      <stop stop-color="#FFD66C"/>
      <stop offset="1" stop-color="#FF658A"/>
    </linearGradient>
    <linearGradient id="paint4_linear" x1="114" x2="104.47" y1="174" y2="124.33" gradientUnits="userSpaceOnUse">
      <stop stop-color="#FF57A5"/>
      <stop offset="1" stop-color="#9A0F2E"/>
    </linearGradient>
    <linearGradient id="paint5_linear" x1="102.5" x2="141" y1="101" y2="147.5" gradientUnits="userSpaceOnUse">
      <stop stop-color="#FF5775"/>
      <stop offset="1" stop-color="#C71B5E"/>
    </linearGradient>
    <clipPath id="clip0">
      <path fill="#fff" d="M0 0h346v162H0z"/>
    </clipPath>
  </defs>
</svg>
