<svg width="344" height="156" fill="none" xmlns="http://www.w3.org/2000/svg">
    <g clip-path="url(#a)">
        <rect width="344" height="156" rx="8" fill="#1B1340" />
        <rect width="344" height="156" rx="8" fill="url(#b)" />
        <g clip-path="url(#c)">
            <path
                d="M43 69.556C43 63.726 47.726 59 53.556 59h16.888C76.274 59 81 63.726 81 69.556v16.888C81 92.274 76.274 97 70.444 97H53.556C47.726 97 43 92.274 43 86.444V69.556Z"
                fill="#fff"
            />
            <path
                fill-rule="evenodd"
                clip-rule="evenodd"
                d="M65.135 75.435h.001L58.683 82.6l-8.294-9.13v-3.937c0-.452.527-.7.875-.41l9.201 7.64c.89.74 2.18.74 3.07 0l1.6-1.328Z"
                fill="url(#d)"
            />
            <path
                d="m68.635 72.527-3.5 2.907h.001l-4.634 4.094c-.789.697-1.969.715-2.779.042l-7.334-6.1v11.703c0 1.326 1.075 2.326 2.402 2.326h15.844l1.659-7.448-1.66-7.524Z"
                fill="url(#e)"
            />
            <path
                fill-rule="evenodd"
                clip-rule="evenodd"
                d="M68.635 72.531v14.97h2.574a2.402 2.402 0 0 0 2.402-2.403V69.533c0-.452-.527-.7-.875-.41l-4.101 3.408Z"
                fill="url(#f)"
            />
        </g>
        <path
            d="M100.357 69A2.357 2.357 0 0 0 98 71.357v.786l.786.786v13.357l15.714-7.857.786.785H120v-7.857A2.357 2.357 0 0 0 117.643 69h-17.286Z"
            fill="url(#g)"
        />
        <path
            d="M113.434 72.143H98v12.593A2.264 2.264 0 0 0 100.264 87h7.95l3.829-5.685a2.57 2.57 0 0 1 2.527-2.101h.716v-5.22a1.852 1.852 0 0 0-1.852-1.851Z"
            fill="url(#h)"
        />
        <path
            d="M108.214 87v-.797c0-.455.158-.895.446-1.246l3.788-4.619c.099-.148.212-.286.338-.411l-.338.411a2.668 2.668 0 0 0-.448 1.484V87h-3.786Z"
            fill="#B8D7FF"
        />
        <path
            d="M114.186 84.231h.802a.617.617 0 0 0 .63.468c.362 0 .602-.198.602-.488s-.249-.452-.742-.452h-.318v-.655h.276c.477 0 .672-.175.672-.436 0-.26-.212-.44-.504-.44a.502.502 0 0 0-.53.454h-.774c.028-.456.39-1.11 1.299-1.11.73 0 1.234.412 1.234.993a.87.87 0 0 1-.616.837v.011a.877.877 0 0 1 .725.892c0 .63-.581 1.044-1.331 1.044-.798.005-1.367-.445-1.425-1.118ZM118.344 81.634h.583v3.663h-.753v-2.81l-.725.488v-.74l.895-.601Z"
            fill="#8F69FF"
        />
        <path
            d="m142 71.358 3.143-1.572 5.5 3.143h9.428v13.286l-.785.785h-14.929A2.357 2.357 0 0 1 142 84.643V71.358Z"
            fill="url(#i)"
        />
        <path
            fill-rule="evenodd"
            clip-rule="evenodd"
            d="M150.612 70.12c.403.294.888.451 1.387.451h9.644A2.357 2.357 0 0 1 164 72.93v11.714A2.357 2.357 0 0 1 161.643 87h-2.357V75.679c0-1.085-.88-1.965-1.965-1.965h-8.25c-.51 0-1.006-.165-1.414-.471l-1.886-1.414a2.356 2.356 0 0 0-1.414-.472H142A2.357 2.357 0 0 1 144.357 69h3.948c.498 0 .983.158 1.386.45l.921.67Z"
            fill="url(#j)"
        />
        <path
            fill-rule="evenodd"
            clip-rule="evenodd"
            d="M194.837 86.746c.836 1.503 2.983 1.585 3.932.15l8.852-13.385c.938-1.42.04-3.322-1.659-3.516l-17.398-1.98c-1.855-.21-3.176 1.745-2.273 3.367l.07.127 7.763 5.32-.094 8.461.807 1.456Z"
            fill="url(#k)"
        />
        <path
            d="m195.335 85.344.786-1.171 5.967-9.014c.522-.788.024-1.845-.92-1.953l-14.809-1.7 7.671 13.79a.77.77 0 0 0 1.305.048Z"
            fill="url(#l)"
        />
        <path
            d="M236.616 69.78c1.534-1.535 2.302-2.303 3.186-2.59a3.878 3.878 0 0 1 2.396 0c.884.287 1.652 1.055 3.186 2.59l3.837 3.836c1.535 1.534 2.302 2.302 2.589 3.186a3.874 3.874 0 0 1 0 2.395c-.287.885-1.054 1.653-2.589 3.187l-3.837 3.837c-1.534 1.534-2.302 2.302-3.186 2.59a3.878 3.878 0 0 1-2.396 0c-.884-.288-1.652-1.056-3.186-2.59l-.722-.809c-.436-.49-.654-.734-.81-1.012a2.93 2.93 0 0 1-.301-.789c-.069-.31-.069-.639-.069-1.294v-8.634c0-.655 0-.983.069-1.294a2.93 2.93 0 0 1 .301-.789c.156-.278.374-.523.81-1.012l.722-.809Z"
            fill="url(#m)"
        />
        <path
            d="M236.616 69.78c1.534-1.535 2.302-2.303 3.186-2.59a3.878 3.878 0 0 1 2.396 0c.884.287 1.652 1.055 3.186 2.59l3.837 3.836c1.535 1.534 2.302 2.302 2.589 3.186a3.874 3.874 0 0 1 0 2.395c-.287.885-1.054 1.653-2.589 3.187l-3.837 3.837c-1.534 1.534-2.302 2.302-3.186 2.59a3.878 3.878 0 0 1-2.396 0c-.884-.288-1.652-1.056-3.186-2.59l-.722-.809c-.436-.49-.654-.734-.81-1.012a2.93 2.93 0 0 1-.301-.789c-.069-.31-.069-.639-.069-1.294v-8.634c0-.655 0-.983.069-1.294a2.93 2.93 0 0 1 .301-.789c.156-.278.374-.523.81-1.012l.722-.809Z"
            fill="url(#n)"
        />
        <path
            d="M236.342 70.053c.767-.768 1.151-1.151 1.593-1.295a1.94 1.94 0 0 1 1.198 0c.442.144.826.527 1.593 1.295l5.755 5.754c.767.768 1.151 1.151 1.294 1.594.127.389.127.808 0 1.197-.143.443-.527.826-1.294 1.594l-5.755 5.754c-.767.768-1.151 1.151-1.593 1.295a1.94 1.94 0 0 1-1.198 0c-.442-.144-.826-.527-1.593-1.295l-3.563-3.562c-1.534-1.535-2.302-2.302-2.589-3.187a3.874 3.874 0 0 1 0-2.395c.287-.885 1.055-1.652 2.589-3.187l3.563-3.562Z"
            fill="url(#o)"
        />
        <mask id="p" style="mask-type: alpha" maskUnits="userSpaceOnUse" x="275" y="69" width="21" height="18">
            <path
                fill-rule="evenodd"
                clip-rule="evenodd"
                d="M275.023 87v-2.838h4.316c1.564 0 2.832-1.355 2.832-3.026 0-1.67-1.268-3.025-2.832-3.025h-4.316V69h20.781v18h-20.781Zm0-8.889H275v6.05h.023v-6.05Zm5.708 3.035a1.61 1.61 0 1 0-3.22 0 1.61 1.61 0 0 0 3.22 0Z"
                fill="#fff"
            />
        </mask>
        <g mask="url(#p)">
            <path
                d="M277.092 87a2.07 2.07 0 0 1-2.069-2.069V71.069A2.07 2.07 0 0 1 277.092 69h10.436a8.276 8.276 0 0 1 8.276 8.276v7.655A2.069 2.069 0 0 1 293.735 87h-16.643Z"
                fill="url(#q)"
            />
            <path
                d="M277.074 86.749a2.07 2.07 0 0 1-2.069-2.069V71.676h10.184a6.207 6.207 0 0 1 6.207 6.207v8.866h-14.322Z"
                fill="#6D4AFF"
            />
            <path
                d="M277.074 86.749a2.07 2.07 0 0 1-2.069-2.069V71.676h10.184a6.207 6.207 0 0 1 6.207 6.207v8.866h-14.322Z"
                fill="url(#r)"
                fill-opacity=".9"
            />
            <path d="m278.113 87.002 3.349-3.805-6.439.805v.673a2.328 2.328 0 0 0 2.328 2.327h.762Z" fill="#FFBB93" />
        </g>
    </g>
    <defs>
        <linearGradient id="d" x1="59.103" y1="82.726" x2="51.315" y2="55.671" gradientUnits="userSpaceOnUse">
            <stop stop-color="#E3D9FF" />
            <stop offset="1" stop-color="#7341FF" />
        </linearGradient>
        <linearGradient id="f" x1="81.121" y1="99.496" x2="63.326" y2="60.952" gradientUnits="userSpaceOnUse">
            <stop offset=".271" stop-color="#E3D9FF" />
            <stop offset="1" stop-color="#7341FF" />
        </linearGradient>
        <linearGradient id="g" x1="116.482" y1="80.814" x2="103.65" y2="62.171" gradientUnits="userSpaceOnUse">
            <stop stop-color="#BFE8FF" />
            <stop offset=".307" stop-color="#BFABFF" />
            <stop offset="1" stop-color="#7341FF" />
        </linearGradient>
        <linearGradient id="j" x1="141.71" y1="59.606" x2="168.866" y2="89.792" gradientUnits="userSpaceOnUse">
            <stop stop-color="#7341FF" />
            <stop offset=".359" stop-color="#B487FF" />
            <stop offset="1" stop-color="#FFC8FF" />
        </linearGradient>
        <linearGradient id="k" x1="205.894" y1="86.745" x2="191.738" y2="62.333" gradientUnits="userSpaceOnUse">
            <stop offset=".066" stop-color="#8EFFEE" />
            <stop offset=".45" stop-color="#C9C7FF" />
            <stop offset="1" stop-color="#7341FF" />
        </linearGradient>
        <linearGradient id="n" x1="235.882" y1="62.632" x2="240.16" y2="88.747" gradientUnits="userSpaceOnUse">
            <stop stop-color="#6D4AFF" />
            <stop offset=".392" stop-color="#B39FFB" stop-opacity=".978" />
            <stop offset="1" stop-color="#FFE8DB" stop-opacity=".8" />
        </linearGradient>
        <linearGradient id="q" x1="272.389" y1="71.095" x2="298.125" y2="81.12" gradientUnits="userSpaceOnUse">
            <stop stop-color="#957AFD" />
            <stop offset="1" stop-color="#FFC6C6" />
        </linearGradient>
        <linearGradient id="r" x1="290.469" y1="73.99" x2="282.48" y2="90.224" gradientUnits="userSpaceOnUse">
            <stop offset=".15" stop-color="#FA528E" stop-opacity="0" />
            <stop offset=".721" stop-color="#FF8065" />
            <stop offset="1" stop-color="#FFA51F" />
        </linearGradient>
        <radialGradient
            id="b"
            cx="0"
            cy="0"
            r="1"
            gradientUnits="userSpaceOnUse"
            gradientTransform="matrix(0 -156 344 0 0 156)"
        >
            <stop stop-color="#513AB3" />
            <stop offset="1" stop-color="#513AB2" stop-opacity="0" />
        </radialGradient>
        <radialGradient
            id="e"
            cx="0"
            cy="0"
            r="1"
            gradientUnits="userSpaceOnUse"
            gradientTransform="matrix(23.2124 0 0 21.7698 70.207 74.36)"
        >
            <stop offset=".556" stop-color="#6D4AFF" />
            <stop offset=".994" stop-color="#AA8EFF" />
        </radialGradient>
        <radialGradient
            id="h"
            cx="0"
            cy="0"
            r="1"
            gradientUnits="userSpaceOnUse"
            gradientTransform="matrix(35.293 0 0 31.3883 114.625 59.748)"
        >
            <stop offset=".503" stop-color="#6D4AFF" />
            <stop offset=".994" stop-color="#06B8FF" />
        </radialGradient>
        <radialGradient
            id="i"
            cx="0"
            cy="0"
            r="1"
            gradientUnits="userSpaceOnUse"
            gradientTransform="matrix(33.721 0 0 35.6429 161.585 57.96)"
        >
            <stop offset=".556" stop-color="#6D4AFF" />
            <stop offset="1" stop-color="#FF50C3" />
        </radialGradient>
        <radialGradient
            id="l"
            cx="0"
            cy="0"
            r="1"
            gradientUnits="userSpaceOnUse"
            gradientTransform="rotate(93.755 67.151 124.073) scale(22.4617 28.9668)"
        >
            <stop offset=".403" stop-color="#6D4AFF" />
            <stop offset=".994" stop-color="#00F0C3" />
        </radialGradient>
        <radialGradient
            id="m"
            cx="0"
            cy="0"
            r="1"
            gradientUnits="userSpaceOnUse"
            gradientTransform="rotate(-58.142 198.752 -168.118) scale(18.3646 28.7185)"
        >
            <stop stop-color="#FFD580" />
            <stop offset=".094" stop-color="#F6C592" />
            <stop offset=".205" stop-color="#EBB6A2" />
            <stop offset=".324" stop-color="#DFA5AF" />
            <stop offset=".429" stop-color="#D397BE" />
            <stop offset=".534" stop-color="#C486CB" />
            <stop offset=".649" stop-color="#B578D9" />
            <stop offset=".771" stop-color="#A166E5" />
            <stop offset=".891" stop-color="#8B57F2" />
            <stop offset="1" stop-color="#704CFF" />
        </radialGradient>
        <radialGradient
            id="o"
            cx="0"
            cy="0"
            r="1"
            gradientUnits="userSpaceOnUse"
            gradientTransform="rotate(-58.142 195.933 -167.785) scale(14.7715 23.0997)"
        >
            <stop stop-color="#FFD580" />
            <stop offset=".094" stop-color="#F6C592" />
            <stop offset=".205" stop-color="#EBB6A2" />
            <stop offset=".324" stop-color="#DFA5AF" />
            <stop offset=".429" stop-color="#D397BE" />
            <stop offset=".534" stop-color="#C486CB" />
            <stop offset=".649" stop-color="#B578D9" />
            <stop offset=".771" stop-color="#A166E5" />
            <stop offset=".891" stop-color="#8B57F2" />
            <stop offset="1" stop-color="#704CFF" />
        </radialGradient>
        <clipPath id="a">
            <path fill="#fff" d="M0 0h344v156H0z" />
        </clipPath>
        <clipPath id="c">
            <path fill="#fff" transform="translate(43 59)" d="M0 0h38v38H0z" />
        </clipPath>
    </defs>
</svg>
