<svg width="384" height="216" viewBox="0 0 384 216" fill="none" xmlns="http://www.w3.org/2000/svg">
    <g clip-path="url(#clip0_13370_2223)">
        <path
            d="M251.231 49.8746L198.394 33.0578C193.946 31.6474 189.172 31.6474 184.723 33.0578L131.886 49.8746C129.174 50.7425 127.221 53.2379 127.113 56.1673C126.353 76.4559 127.655 155.115 190.474 175.837C191.233 176.054 191.993 176.054 192.644 175.837C255.462 155.115 256.764 76.4559 256.005 56.1673C255.896 53.2379 253.943 50.7425 251.231 49.8746Z"
            fill="white"
        />
        <path
            d="M251.231 49.8746L198.394 33.0578C193.946 31.6474 189.172 31.6474 184.723 33.0578L131.886 49.8746C129.174 50.7425 127.221 53.2379 127.113 56.1673C126.353 76.4559 127.655 155.115 190.474 175.837C191.233 176.054 191.993 176.054 192.644 175.837C255.462 155.115 256.764 76.4559 256.005 56.1673C255.896 53.2379 253.943 50.7425 251.231 49.8746Z"
            fill="url(#paint0_linear_13370_2223)"
            fill-opacity="0.5"
        />
        <path
            fill-rule="evenodd"
            clip-rule="evenodd"
            d="M169.268 122.043C169.266 122.041 169.265 122.039 169.263 122.037C163.725 116.5 160.3 108.85 160.3 100.4C160.3 83.5 174 69.7999 190.9 69.7999C207.8 69.7999 221.5 83.5 221.5 100.4C221.5 108.881 218.05 116.556 212.477 122.098C207.332 115.765 199.554 111.73 190.85 111.73C182.171 111.73 174.413 115.742 169.268 122.043ZM190.901 106.959C197.263 106.959 202.421 101.864 202.421 95.5794C202.421 89.2947 197.263 84.2 190.901 84.2C184.539 84.2 179.381 89.2947 179.381 95.5794C179.381 101.864 184.539 106.959 190.901 106.959Z"
            fill="url(#paint1_linear_13370_2223)"
        />
        <path
            fill-rule="evenodd"
            clip-rule="evenodd"
            d="M212.477 122.098C206.944 127.6 199.32 131 190.9 131C182.453 131 174.805 127.577 169.268 122.043C174.413 115.742 182.171 111.73 190.85 111.73C199.554 111.73 207.332 115.765 212.477 122.098ZM202.421 95.5794C202.421 101.864 197.263 106.959 190.901 106.959C184.539 106.959 179.381 101.864 179.381 95.5794C179.381 89.2947 184.539 84.2 190.901 84.2C197.263 84.2 202.421 89.2947 202.421 95.5794Z"
            fill="white"
        />
        <path
            d="M253 196H169V148.544C169 146.045 171.064 144 173.587 144H248.413C250.936 144 253 146.045 253 148.544V196Z"
            fill="url(#paint2_linear_13370_2223)"
        />
        <path
            d="M249 196H173V149.099C173 148.492 173.494 148 174.102 148H247.898C248.506 148 249 148.492 249 149.099V196Z"
            fill="white"
        />
        <path
            d="M261.448 200H160.552C159.681 200 159 199.314 159 198.438V197.562C159 196.686 159.681 196 160.552 196H261.448C262.319 196 263 196.686 263 197.562V198.438C263 199.314 262.281 200 261.448 200Z"
            fill="url(#paint3_linear_13370_2223)"
        />
        <path
            d="M215.565 198.149H206.161C204.948 198.149 204 197.169 204 196H217.726C217.726 197.169 216.778 198.149 215.565 198.149Z"
            fill="#B29FFF"
        />
        <g opacity="0.75" filter="url(#filter0_ddd_13370_2223)">
            <path
                fill-rule="evenodd"
                clip-rule="evenodd"
                d="M204.7 165.25H204.25C204.25 161.522 207.272 158.5 211 158.5C214.728 158.5 217.75 161.522 217.75 165.25H217.3H204.7ZM202 165.293V165.25C202 160.279 206.029 156.25 211 156.25C215.971 156.25 220 160.279 220 165.25V165.293C220.882 165.347 221.509 165.468 222.043 165.74C222.89 166.172 223.578 166.86 224.01 167.707C224.5 168.67 224.5 169.93 224.5 172.45V180.55C224.5 183.07 224.5 184.33 224.01 185.293C223.578 186.14 222.89 186.828 222.043 187.26C221.08 187.75 219.82 187.75 217.3 187.75H204.7C202.18 187.75 200.92 187.75 199.957 187.26C199.11 186.828 198.422 186.14 197.99 185.293C197.5 184.33 197.5 183.07 197.5 180.55V172.45C197.5 169.93 197.5 168.67 197.99 167.707C198.422 166.86 199.11 166.172 199.957 165.74C200.491 165.468 201.118 165.347 202 165.293ZM212.059 176.236C212.768 175.857 213.25 175.11 213.25 174.25C213.25 173.007 212.243 172 211 172C209.757 172 208.75 173.007 208.75 174.25C208.75 175.11 209.232 175.857 209.941 176.236L208.96 180.161C208.853 180.587 209.175 181 209.615 181H212.385C212.825 181 213.147 180.587 213.04 180.161L212.059 176.236Z"
                fill="url(#paint4_linear_13370_2223)"
            />
        </g>
        <path
            d="M158.296 199.734H138.41C135.986 199.734 134 197.76 134 195.323V154.9C134 152.489 135.986 150.515 138.41 150.515H158.296C160.746 150.515 162.706 152.489 162.706 154.9V195.323C162.732 197.76 160.746 199.734 158.296 199.734Z"
            fill="url(#paint5_linear_13370_2223)"
        />
        <path
            d="M157.71 152.51H155.066L154.532 153.671C154.227 154.353 153.516 154.807 152.753 154.807H143.932C143.169 154.807 142.483 154.353 142.152 153.671L141.644 152.535H139C137.347 152.535 136 153.873 136 155.514V194.751C136 196.392 137.347 197.73 139 197.73H157.71C159.363 197.73 160.71 196.392 160.71 194.751V155.489C160.685 153.848 159.363 152.51 157.71 152.51Z"
            fill="white"
        />
        <g opacity="0.75" filter="url(#filter1_ddd_13370_2223)">
            <path
                fill-rule="evenodd"
                clip-rule="evenodd"
                d="M145.9 172.75H145.75C145.75 171.507 146.757 170.5 148 170.5C149.243 170.5 150.25 171.507 150.25 172.75H150.1H145.9ZM145 172.764V172.75C145 171.093 146.343 169.75 148 169.75C149.657 169.75 151 171.093 151 172.75V172.764C151.294 172.782 151.503 172.823 151.681 172.913C151.963 173.057 152.193 173.287 152.337 173.569C152.5 173.89 152.5 174.31 152.5 175.15V177.85C152.5 178.69 152.5 179.11 152.337 179.431C152.193 179.713 151.963 179.943 151.681 180.087C151.36 180.25 150.94 180.25 150.1 180.25H145.9C145.06 180.25 144.64 180.25 144.319 180.087C144.037 179.943 143.807 179.713 143.663 179.431C143.5 179.11 143.5 178.69 143.5 177.85V175.15C143.5 174.31 143.5 173.89 143.663 173.569C143.807 173.287 144.037 173.057 144.319 172.913C144.497 172.823 144.706 172.782 145 172.764ZM148.353 176.412C148.589 176.286 148.75 176.037 148.75 175.75C148.75 175.336 148.414 175 148 175C147.586 175 147.25 175.336 147.25 175.75C147.25 176.037 147.411 176.286 147.647 176.412L147.32 177.72C147.284 177.862 147.392 178 147.538 178H148.462C148.608 178 148.716 177.862 148.68 177.72L148.353 176.412Z"
                fill="url(#paint6_linear_13370_2223)"
            />
        </g>
        <path
            opacity="0.6"
            d="M108 102L103 100.153L100.699 99.3011L99.8466 97L98 92L96.1534 97L95.3011 99.3011L93 100.153L88 102L93 103.847L95.3011 104.699L96.1534 107L98 112L99.8466 107L100.699 104.699L103 103.847L108 102Z"
            fill="#B9A8FF"
        />
        <path
            opacity="0.6"
            d="M120 137L117 135.892L115.619 135.381L115.108 134L114 131L112.892 134L112.381 135.381L111 135.892L108 137L111 138.108L112.381 138.619L112.892 140L114 143L115.108 140L115.619 138.619L117 138.108L120 137Z"
            fill="#B9A8FF"
        />
        <path
            opacity="0.6"
            d="M281 114L278 112.892L276.619 112.381L276.108 111L275 108L273.892 111L273.381 112.381L272 112.892L269 114L272 115.108L273.381 115.619L273.892 117L275 120L276.108 117L276.619 115.619L278 115.108L281 114Z"
            fill="#B9A8FF"
        />
    </g>
    <defs>
        <filter
            id="filter0_ddd_13370_2223"
            x="178.75"
            y="150"
            width="64.5"
            height="69.6168"
            filterUnits="userSpaceOnUse"
            color-interpolation-filters="sRGB"
        >
            <feFlood flood-opacity="0" result="BackgroundImageFix" />
            <feColorMatrix
                in="SourceAlpha"
                type="matrix"
                values="0 0 0 0 0 0 0 0 0 0 0 0 0 0 0 0 0 0 127 0"
                result="hardAlpha"
            />
            <feOffset dy="2.77471" />
            <feGaussianBlur stdDeviation="1.25" />
            <feColorMatrix type="matrix" values="0 0 0 0 0.290196 0 0 0 0 0.176471 0 0 0 0 0.772549 0 0 0 0.04 0" />
            <feBlend mode="normal" in2="BackgroundImageFix" result="effect1_dropShadow_13370_2223" />
            <feColorMatrix
                in="SourceAlpha"
                type="matrix"
                values="0 0 0 0 0 0 0 0 0 0 0 0 0 0 0 0 0 0 127 0"
                result="hardAlpha"
            />
            <feOffset dy="13.1168" />
            <feGaussianBlur stdDeviation="9.375" />
            <feColorMatrix type="matrix" values="0 0 0 0 0.290196 0 0 0 0 0.176471 0 0 0 0 0.772549 0 0 0 0.05 0" />
            <feBlend mode="normal" in2="effect1_dropShadow_13370_2223" result="effect2_dropShadow_13370_2223" />
            <feColorMatrix
                in="SourceAlpha"
                type="matrix"
                values="0 0 0 0 0 0 0 0 0 0 0 0 0 0 0 0 0 0 127 0"
                result="hardAlpha"
            />
            <feOffset dy="6.25" />
            <feGaussianBlur stdDeviation="6.25" />
            <feColorMatrix type="matrix" values="0 0 0 0 0.290196 0 0 0 0 0.176471 0 0 0 0 0.772549 0 0 0 0.05 0" />
            <feBlend mode="normal" in2="effect2_dropShadow_13370_2223" result="effect3_dropShadow_13370_2223" />
            <feBlend mode="normal" in="SourceGraphic" in2="effect3_dropShadow_13370_2223" result="shape" />
        </filter>
        <filter
            id="filter1_ddd_13370_2223"
            x="124.75"
            y="163.5"
            width="46.5"
            height="48.6168"
            filterUnits="userSpaceOnUse"
            color-interpolation-filters="sRGB"
        >
            <feFlood flood-opacity="0" result="BackgroundImageFix" />
            <feColorMatrix
                in="SourceAlpha"
                type="matrix"
                values="0 0 0 0 0 0 0 0 0 0 0 0 0 0 0 0 0 0 127 0"
                result="hardAlpha"
            />
            <feOffset dy="2.77471" />
            <feGaussianBlur stdDeviation="1.25" />
            <feColorMatrix type="matrix" values="0 0 0 0 0.290196 0 0 0 0 0.176471 0 0 0 0 0.772549 0 0 0 0.04 0" />
            <feBlend mode="normal" in2="BackgroundImageFix" result="effect1_dropShadow_13370_2223" />
            <feColorMatrix
                in="SourceAlpha"
                type="matrix"
                values="0 0 0 0 0 0 0 0 0 0 0 0 0 0 0 0 0 0 127 0"
                result="hardAlpha"
            />
            <feOffset dy="13.1168" />
            <feGaussianBlur stdDeviation="9.375" />
            <feColorMatrix type="matrix" values="0 0 0 0 0.290196 0 0 0 0 0.176471 0 0 0 0 0.772549 0 0 0 0.05 0" />
            <feBlend mode="normal" in2="effect1_dropShadow_13370_2223" result="effect2_dropShadow_13370_2223" />
            <feColorMatrix
                in="SourceAlpha"
                type="matrix"
                values="0 0 0 0 0 0 0 0 0 0 0 0 0 0 0 0 0 0 127 0"
                result="hardAlpha"
            />
            <feOffset dy="6.25" />
            <feGaussianBlur stdDeviation="6.25" />
            <feColorMatrix type="matrix" values="0 0 0 0 0.290196 0 0 0 0 0.176471 0 0 0 0 0.772549 0 0 0 0.05 0" />
            <feBlend mode="normal" in2="effect2_dropShadow_13370_2223" result="effect3_dropShadow_13370_2223" />
            <feBlend mode="normal" in="SourceGraphic" in2="effect3_dropShadow_13370_2223" result="shape" />
        </filter>
        <linearGradient
            id="paint0_linear_13370_2223"
            x1="121.919"
            y1="26.7445"
            x2="291.019"
            y2="81.4175"
            gradientUnits="userSpaceOnUse"
        >
            <stop stop-color="#ECAAFF" />
            <stop offset="1" stop-color="#6A48F6" />
        </linearGradient>
        <linearGradient
            id="paint1_linear_13370_2223"
            x1="190.9"
            y1="71.4239"
            x2="190.9"
            y2="142.374"
            gradientUnits="userSpaceOnUse"
        >
            <stop stop-color="#6D4AFF" stop-opacity="0.5" />
            <stop offset="1" stop-color="#6D4AFF" />
        </linearGradient>
        <linearGradient
            id="paint2_linear_13370_2223"
            x1="231"
            y1="144"
            x2="184.405"
            y2="174.907"
            gradientUnits="userSpaceOnUse"
        >
            <stop stop-color="#A776FA" />
            <stop offset="1" stop-color="#6A48F6" />
        </linearGradient>
        <linearGradient
            id="paint3_linear_13370_2223"
            x1="183.53"
            y1="198.172"
            x2="119.207"
            y2="199.977"
            gradientUnits="userSpaceOnUse"
        >
            <stop stop-color="#E2DBFF" />
            <stop offset="1" stop-color="#7C65D5" />
        </linearGradient>
        <linearGradient
            id="paint4_linear_13370_2223"
            x1="221.695"
            y1="147.254"
            x2="201.585"
            y2="189.903"
            gradientUnits="userSpaceOnUse"
        >
            <stop stop-color="#EEBEFF" />
            <stop offset="1" stop-color="#5228FF" />
        </linearGradient>
        <linearGradient
            id="paint5_linear_13370_2223"
            x1="140.5"
            y1="151"
            x2="124.613"
            y2="167.569"
            gradientUnits="userSpaceOnUse"
        >
            <stop stop-color="#9E6FFA" />
            <stop offset="1" stop-color="#6A48F6" />
        </linearGradient>
        <linearGradient
            id="paint6_linear_13370_2223"
            x1="153"
            y1="161"
            x2="144.746"
            y2="180.936"
            gradientUnits="userSpaceOnUse"
        >
            <stop stop-color="#EEBEFF" />
            <stop offset="1" stop-color="#5228FF" />
        </linearGradient>
        <clipPath id="clip0_13370_2223">
            <rect width="384" height="216" fill="white" />
        </clipPath>
    </defs>
</svg>
