<svg xmlns="http://www.w3.org/2000/svg" width="84" height="20" fill="none" viewBox="0 0 84 20">
    <path
        fill="#50409b"
        d="M9.985 0A9.973 9.973 0 0 0 0 9.985C0 15.51 4.46 20 9.985 20a9.973 9.973 0 0 0 9.986-9.985C19.97 4.49 15.51 0 9.985 0Zm-5.14 4.904a8.316 8.316 0 0 1 2.511.945A5.803 5.803 0 0 0 5.14 7.86a2.836 2.836 0 0 1-.56-1.714c0-.473.088-.887.265-1.241Zm10.517 9.217a.984.984 0 0 1-.975.975.984.984 0 0 1-.975-.975v-.798H6.558v.798a.984.984 0 0 1-.974.975.984.984 0 0 1-.975-.975v-3.013c0-2.925 2.274-5.406 5.2-5.525 3.072-.118 5.583 2.334 5.583 5.407v3.131h-.03ZM14.83 7.83a5.803 5.803 0 0 0-2.215-2.01 10.247 10.247 0 0 1 2.51-.945c.178.384.267.769.267 1.212-.03.68-.237 1.27-.562 1.743Zm10.516-1.626h1.33v.65c0 .295-.03.561-.03.561h.03s.649-1.359 2.51-1.359c2.01 0 3.28 1.595 3.28 3.93 0 2.392-1.448 3.928-3.398 3.928-1.654 0-2.304-1.24-2.304-1.24h-.03s.03.266.03.65v3.367h-1.418V6.204Zm3.515 6.44c1.182 0 2.157-.975 2.157-2.688 0-1.625-.886-2.689-2.127-2.689-1.123 0-2.157.798-2.157 2.689 0 1.359.739 2.688 2.127 2.688Zm9.159-6.617c2.245 0 4.047 1.654 4.047 3.9 0 2.274-1.802 3.928-4.047 3.928-2.245 0-4.047-1.654-4.047-3.929 0-2.245 1.802-3.9 4.047-3.9Zm0 6.587c1.418 0 2.57-1.122 2.57-2.688s-1.152-2.659-2.57-2.659-2.57 1.123-2.57 2.66c0 1.565 1.152 2.688 2.57 2.688Zm6.026-6.41h1.388v1.3c0 .325-.03.561-.03.561h.03c.355-1.093 1.212-1.95 2.364-1.95.207 0 .384.03.384.03v1.418s-.207-.03-.414-.03c-.916 0-1.772.65-2.097 1.773-.148.443-.178.886-.178 1.359v3.072h-1.447V6.204Zm5.82-2.954h1.448v5.7h1.063l2.039-2.747h1.625l-2.482 3.308v.03l2.777 4.165h-1.684l-2.275-3.545h-1.093v3.516h-1.418V3.25Zm8.064 0h1.448v3.426c0 .384-.03.65-.03.65h.03s.65-1.27 2.393-1.27c2.01 0 3.28 1.595 3.28 3.93 0 2.392-1.448 3.928-3.398 3.928-1.684 0-2.363-1.3-2.363-1.3h-.03s.03.237.03.562v.561h-1.36V3.25Zm3.516 9.394c1.182 0 2.157-.975 2.157-2.688 0-1.625-.886-2.689-2.127-2.689-1.123 0-2.157.798-2.157 2.689 0 1.359.71 2.688 2.127 2.688ZM67 6.204h1.448v4.46c0 1.035.206 1.862 1.418 1.862 1.536 0 2.422-1.36 2.422-2.836V6.204h1.448v7.474h-1.418v-1.004c0-.325.03-.562.03-.562h-.03c-.325.739-1.3 1.714-2.748 1.714-1.684 0-2.57-.886-2.57-2.866V6.204Zm9.247 0h1.389v1.004c0 .296-.03.562-.03.562h.03c.295-.65 1.181-1.714 2.806-1.714 1.773 0 2.57.975 2.57 2.866v4.786h-1.447v-4.49c0-1.064-.236-1.892-1.418-1.892-1.152 0-2.068.769-2.364 1.832-.088.295-.118.65-.118 1.005v3.515h-1.447V6.204h.03Z"
    />
</svg>
