<svg width="72" height="72" viewBox="0 0 72 72" fill="none" xmlns="http://www.w3.org/2000/svg">
    <g clip-path="url(#clip0_5804_38243)">
        <g opacity="0.8" filter="url(#filter0_f_5804_38243)">
            <path
                d="M63.4667 67.1333C63.4667 68.3115 51.05 69.2667 35.7333 69.2667C20.4166 69.2667 8 68.3115 8 67.1333C8 65.9551 20.4166 65 35.7333 65C51.05 65 63.4667 65.9551 63.4667 67.1333Z"
                fill="#807D79"
                fill-opacity="0.3"
            />
        </g>
        <g filter="url(#filter1_i_5804_38243)">
            <path
                d="M8 15.4615C8 11.8929 10.8929 9 14.4615 9H57.5385C61.1071 9 64 11.8929 64 15.4615V58.5385C64 62.1071 61.1071 65 57.5385 65H14.4615C10.8929 65 8 62.1071 8 58.5385V15.4615Z"
                fill="white"
            />
            <path
                d="M8 15.4615C8 11.8929 10.8929 9 14.4615 9H57.5385C61.1071 9 64 11.8929 64 15.4615V58.5385C64 62.1071 61.1071 65 57.5385 65H14.4615C10.8929 65 8 62.1071 8 58.5385V15.4615Z"
                fill="url(#paint0_radial_5804_38243)"
                fill-opacity="0.5"
            />
        </g>
        <path
            opacity="0.5"
            d="M57.5383 62.3074V63.3843H14.4614V62.3074H57.5383ZM61.3075 58.5382V15.4613C61.3075 13.3796 59.62 11.692 57.5383 11.692H14.4614C12.4448 11.692 10.7979 13.2757 10.6969 15.2672L10.6922 15.4613V58.5382C10.6922 60.6199 12.3797 62.3074 14.4614 62.3074V63.3843C11.8685 63.3843 9.75127 61.3481 9.62154 58.7874L9.61523 58.5382V15.4613C9.61523 12.7848 11.7849 10.6151 14.4614 10.6151H57.5383L57.7876 10.6214C60.3482 10.7512 62.3845 12.8684 62.3845 15.4613V58.5382L62.3782 58.7874C62.2526 61.2655 60.2656 63.2525 57.7876 63.378L57.5383 63.3843V62.3074C59.62 62.3074 61.3075 60.6199 61.3075 58.5382Z"
            fill="#2800C8"
            fill-opacity="0.4"
        />
        <path
            d="M16.5332 65H20.7999C20.7999 66.1782 19.8447 67.1333 18.6665 67.1333C17.4883 67.1333 16.5332 66.1782 16.5332 65Z"
            fill="#562CFF"
        />
        <path
            d="M51.2002 65H55.4669C55.4669 66.1782 54.5117 67.1333 53.3335 67.1333C52.1553 67.1333 51.2002 66.1782 51.2002 65Z"
            fill="#562CFF"
        />
        <path
            d="M8 20.7341H13.3333C13.9224 20.7341 14.4 21.2117 14.4 21.8008C14.4 22.3899 13.9224 22.8675 13.3333 22.8675H8V20.7341Z"
            fill="url(#paint1_linear_5804_38243)"
        />
        <path
            d="M8 49.5326H13.3333C13.9224 49.5326 14.4 50.0102 14.4 50.5993C14.4 51.1884 13.9224 51.6659 13.3333 51.6659H8V49.5326Z"
            fill="url(#paint2_linear_5804_38243)"
        />
        <path
            opacity="0.2"
            d="M10.5 62.5001L28.4333 34.0665L41.8365 37.8537L27.4666 62.3328L10.5 62.5001Z"
            fill="url(#paint3_linear_5804_38243)"
        />
        <path
            opacity="0.2"
            d="M31.7998 61.4L48.5998 30.9333L49.5331 41.6667L39.8665 61.4H31.7998Z"
            fill="url(#paint4_linear_5804_38243)"
        />
        <path
            d="M35.0664 29.0668C38.9324 29.0668 42.0664 32.2008 42.0664 36.0668C42.0664 39.9328 38.9324 43.0668 35.0664 43.0668C31.2004 43.0668 28.0664 39.9328 28.0664 36.0668C28.0664 32.2008 31.2004 29.0668 35.0664 29.0668Z"
            fill="url(#paint5_radial_5804_38243)"
        />
        <path
            d="M35.0664 31.0668C37.8278 31.0668 40.0664 33.3053 40.0664 36.0668C40.0664 38.8282 37.8278 41.0668 35.0664 41.0668C32.305 41.0668 30.0664 38.8282 30.0664 36.0668C30.0664 33.3053 32.305 31.0668 35.0664 31.0668Z"
            fill="#DFB2CE"
        />
        <path
            d="M50 40.5466C50 41.1652 49.5821 41.6666 49.0667 41.6666C48.5512 41.6666 48.1333 41.1652 48.1333 40.5466L48.1333 31.5866C48.1333 30.9681 48.5512 30.4666 49.0667 30.4666C49.5821 30.4666 50 30.9681 50 31.5866L50 40.5466Z"
            fill="url(#paint6_linear_5804_38243)"
        />
    </g>
    <defs>
        <filter
            id="filter0_f_5804_38243"
            x="-4"
            y="53"
            width="79.4668"
            height="28.2667"
            filterUnits="userSpaceOnUse"
            color-interpolation-filters="sRGB"
        >
            <feFlood flood-opacity="0" result="BackgroundImageFix" />
            <feBlend mode="normal" in="SourceGraphic" in2="BackgroundImageFix" result="shape" />
            <feGaussianBlur stdDeviation="6" result="effect1_foregroundBlur_5804_38243" />
        </filter>
        <filter
            id="filter1_i_5804_38243"
            x="8"
            y="5"
            width="60"
            height="60"
            filterUnits="userSpaceOnUse"
            color-interpolation-filters="sRGB"
        >
            <feFlood flood-opacity="0" result="BackgroundImageFix" />
            <feBlend mode="normal" in="SourceGraphic" in2="BackgroundImageFix" result="shape" />
            <feColorMatrix
                in="SourceAlpha"
                type="matrix"
                values="0 0 0 0 0 0 0 0 0 0 0 0 0 0 0 0 0 0 127 0"
                result="hardAlpha"
            />
            <feOffset dx="4" dy="-4" />
            <feGaussianBlur stdDeviation="2.05" />
            <feComposite in2="hardAlpha" operator="arithmetic" k2="-1" k3="1" />
            <feColorMatrix type="matrix" values="0 0 0 0 0.195295 0 0 0 0 0 0 0 0 0 0.976471 0 0 0 0.3 0" />
            <feBlend mode="normal" in2="shape" result="effect1_innerShadow_5804_38243" />
        </filter>
        <radialGradient
            id="paint0_radial_5804_38243"
            cx="0"
            cy="0"
            r="1"
            gradientTransform="matrix(61.1333 -59.7333 99.009 93.6514 10.8 61.2667)"
            gradientUnits="userSpaceOnUse"
        >
            <stop stop-color="#704CFF" />
            <stop offset="0.10875" stop-color="#8B57F2" />
            <stop offset="0.22875" stop-color="#A166E5" />
            <stop offset="0.35125" stop-color="#B578D9" />
            <stop offset="0.46625" stop-color="#C486CB" />
            <stop offset="0.57125" stop-color="#D397BE" />
            <stop offset="0.675534" stop-color="#DFA5AF" />
            <stop offset="0.795" stop-color="#EBB6A2" />
            <stop offset="0.90625" stop-color="#F6C592" />
            <stop offset="1" stop-color="#FFD580" />
        </radialGradient>
        <linearGradient
            id="paint1_linear_5804_38243"
            x1="14.4"
            y1="19.9341"
            x2="3.2"
            y2="26.8675"
            gradientUnits="userSpaceOnUse"
        >
            <stop stop-color="#A993FF" />
            <stop offset="1" stop-color="#562CFF" />
        </linearGradient>
        <linearGradient
            id="paint2_linear_5804_38243"
            x1="15.7333"
            y1="48.1993"
            x2="5.33333"
            y2="54.5993"
            gradientUnits="userSpaceOnUse"
        >
            <stop stop-color="#A993FF" />
            <stop offset="0.840486" stop-color="#562CFF" />
        </linearGradient>
        <linearGradient
            id="paint3_linear_5804_38243"
            x1="36"
            y1="37.8005"
            x2="26.4"
            y2="54.6005"
            gradientUnits="userSpaceOnUse"
        >
            <stop stop-color="#1D0092" stop-opacity="0.3" />
            <stop offset="1" stop-color="#1D0092" stop-opacity="0" />
        </linearGradient>
        <linearGradient
            id="paint4_linear_5804_38243"
            x1="46.2665"
            y1="39"
            x2="36.6665"
            y2="55.8"
            gradientUnits="userSpaceOnUse"
        >
            <stop stop-color="#1D0092" stop-opacity="0.3" />
            <stop offset="1" stop-color="#1D0092" stop-opacity="0" />
        </linearGradient>
        <radialGradient
            id="paint5_radial_5804_38243"
            cx="0"
            cy="0"
            r="1"
            gradientTransform="matrix(-9.83335 12.5164 -11.6573 -20.8364 39.9998 29.5004)"
            gradientUnits="userSpaceOnUse"
        >
            <stop stop-color="#FDF8F7" />
            <stop offset="1" stop-color="#6D4AFF" />
        </radialGradient>
        <linearGradient
            id="paint6_linear_5804_38243"
            x1="48.3667"
            y1="41.9466"
            x2="51.2519"
            y2="30.1851"
            gradientUnits="userSpaceOnUse"
        >
            <stop stop-color="#562CFF" />
            <stop offset="1" stop-color="#FFFCF5" />
        </linearGradient>
        <clipPath id="clip0_5804_38243">
            <rect width="72" height="72" fill="white" />
        </clipPath>
    </defs>
</svg>
