<svg width="72" height="72" viewBox="0 0 72 72" fill="none" xmlns="http://www.w3.org/2000/svg">
    <path
        d="M56.8128 33.7374C60.5854 33.7374 63.6437 30.6791 63.6437 26.9065C63.6437 23.134 60.5854 20.0757 56.8128 20.0757C53.0403 20.0757 49.982 23.134 49.982 26.9065C49.982 30.6791 53.0403 33.7374 56.8128 33.7374Z"
        fill="url(#paint0_linear_5804_38278)"
    />
    <path
        d="M47.3451 53.0308C43.2706 53.0308 40.5143 48.5967 42.5516 45.1214C45.3079 40.0881 50.7007 36.6127 56.9323 36.6127C63.164 36.6127 68.4369 39.9683 71.3131 45.1214C73.3503 48.7166 70.594 53.0308 66.5195 53.0308H47.3451Z"
        fill="url(#paint1_linear_5804_38278)"
    />
    <path
        d="M17.2703 36.6126C23.5019 36.6126 28.775 39.9681 31.6512 45.1212C33.6884 48.7164 30.932 53.031 26.8574 53.031H7.68317C3.60863 53.031 0.852165 48.5965 2.88944 45.1212C5.64575 40.088 11.0387 36.6127 17.2703 36.6126Z"
        fill="url(#paint2_linear_5804_38278)"
    />
    <path
        d="M17.151 20.0757C20.9235 20.0757 23.9818 23.134 23.9818 26.9065C23.9818 30.6791 20.9235 33.7373 17.151 33.7374C13.3784 33.7374 10.3201 30.6791 10.3201 26.9065C10.3201 23.134 13.3784 20.0757 17.151 20.0757Z"
        fill="url(#paint3_linear_5804_38278)"
    />
    <g filter="url(#filter0_d_5804_38278)">
        <path
            d="M37.2075 33.8562C41.5911 33.8562 45.1447 30.275 45.1447 25.8574C45.1447 21.4397 41.5911 17.8585 37.2075 17.8585C32.8239 17.8585 29.2704 21.4397 29.2704 25.8574C29.2704 30.275 32.8239 33.8562 37.2075 33.8562Z"
            fill="white"
        />
        <path
            d="M37.2075 33.8562C41.5911 33.8562 45.1447 30.275 45.1447 25.8574C45.1447 21.4397 41.5911 17.8585 37.2075 17.8585C32.8239 17.8585 29.2704 21.4397 29.2704 25.8574C29.2704 30.275 32.8239 33.8562 37.2075 33.8562Z"
            fill="url(#paint4_linear_5804_38278)"
            fill-opacity="0.75"
        />
        <path
            d="M26.2064 56.4485C21.472 56.4485 18.2693 51.2562 20.6365 47.1867C23.8392 41.2928 30.1054 37.2232 37.3463 37.2232C44.5872 37.2232 50.7141 41.1524 54.0561 47.1867C56.4233 51.3966 53.2206 56.4485 48.4862 56.4485H26.2064Z"
            fill="white"
        />
        <path
            d="M26.2064 56.4485C21.472 56.4485 18.2693 51.2562 20.6365 47.1867C23.8392 41.2928 30.1054 37.2232 37.3463 37.2232C44.5872 37.2232 50.7141 41.1524 54.0561 47.1867C56.4233 51.3966 53.2206 56.4485 48.4862 56.4485H26.2064Z"
            fill="url(#paint5_linear_5804_38278)"
            fill-opacity="0.75"
        />
    </g>
    <path
        d="M8.57555 19.2878L6.43166 18.496L5.44499 18.1306L5.07955 17.1439L4.28777 15L3.496 17.1439L3.13056 18.1306L2.14389 18.496L0 19.2878L2.14389 20.0796L3.13056 20.445L3.496 21.4317L4.28777 23.5755L5.07955 21.4317L5.44499 20.445L6.43166 20.0796L8.57555 19.2878Z"
        fill="url(#paint6_linear_5804_38278)"
        fill-opacity="0.5"
    />
    <path
        d="M71.4626 32.8657L70.3906 32.4698L69.8973 32.2871L69.7146 31.7937L69.3187 30.7218L68.9228 31.7937L68.7401 32.2871L68.2467 32.4698L67.1748 32.8657L68.2467 33.2616L68.7401 33.4443L68.9228 33.9376L69.3187 35.0096L69.7146 33.9376L69.8973 33.4443L70.3906 33.2616L71.4626 32.8657Z"
        fill="url(#paint7_linear_5804_38278)"
        fill-opacity="0.5"
    />
    <defs>
        <filter
            id="filter0_d_5804_38278"
            x="11.8379"
            y="11.8585"
            width="51.0166"
            height="54.59"
            filterUnits="userSpaceOnUse"
            color-interpolation-filters="sRGB"
        >
            <feFlood flood-opacity="0" result="BackgroundImageFix" />
            <feColorMatrix
                in="SourceAlpha"
                type="matrix"
                values="0 0 0 0 0 0 0 0 0 0 0 0 0 0 0 0 0 0 127 0"
                result="hardAlpha"
            />
            <feOffset dy="2" />
            <feGaussianBlur stdDeviation="4" />
            <feComposite in2="hardAlpha" operator="out" />
            <feColorMatrix type="matrix" values="0 0 0 0 0.32317 0 0 0 0 0.155642 0 0 0 0 0.679167 0 0 0 0.3 0" />
            <feBlend mode="normal" in2="BackgroundImageFix" result="effect1_dropShadow_5804_38278" />
            <feBlend mode="normal" in="SourceGraphic" in2="effect1_dropShadow_5804_38278" result="shape" />
        </filter>
        <linearGradient
            id="paint0_linear_5804_38278"
            x1="57.0172"
            y1="20.0757"
            x2="57.0172"
            y2="52.9383"
            gradientUnits="userSpaceOnUse"
        >
            <stop stop-color="#F8E0D3" />
            <stop offset="1" stop-color="#E2CAF1" />
        </linearGradient>
        <linearGradient
            id="paint1_linear_5804_38278"
            x1="57.0172"
            y1="20.0757"
            x2="57.0172"
            y2="52.9383"
            gradientUnits="userSpaceOnUse"
        >
            <stop stop-color="#F8E0D3" />
            <stop offset="1" stop-color="#E2CAF1" />
        </linearGradient>
        <linearGradient
            id="paint2_linear_5804_38278"
            x1="17.3552"
            y1="20.0757"
            x2="17.3552"
            y2="52.9385"
            gradientUnits="userSpaceOnUse"
        >
            <stop stop-color="#F9E6FF" />
            <stop offset="1" stop-color="#CEC5F6" />
        </linearGradient>
        <linearGradient
            id="paint3_linear_5804_38278"
            x1="17.3552"
            y1="20.0757"
            x2="17.3552"
            y2="52.9385"
            gradientUnits="userSpaceOnUse"
        >
            <stop stop-color="#F9E6FF" />
            <stop offset="1" stop-color="#CEC5F6" />
        </linearGradient>
        <linearGradient
            id="paint4_linear_5804_38278"
            x1="34.0005"
            y1="60.4991"
            x2="46.5005"
            y2="17.9991"
            gradientUnits="userSpaceOnUse"
        >
            <stop stop-color="#704CFF" />
            <stop offset="0.25" stop-color="#8B57F2" />
            <stop offset="0.5" stop-color="#B578D9" />
            <stop offset="0.75" stop-color="#C486CB" />
            <stop offset="1" stop-color="#DFA5AF" />
        </linearGradient>
        <linearGradient
            id="paint5_linear_5804_38278"
            x1="34.0005"
            y1="60.4991"
            x2="46.5005"
            y2="17.9991"
            gradientUnits="userSpaceOnUse"
        >
            <stop stop-color="#704CFF" />
            <stop offset="0.25" stop-color="#8B57F2" />
            <stop offset="0.5" stop-color="#B578D9" />
            <stop offset="0.75" stop-color="#C486CB" />
            <stop offset="1" stop-color="#DFA5AF" />
        </linearGradient>
        <linearGradient
            id="paint6_linear_5804_38278"
            x1="4.31193"
            y1="15"
            x2="4.31193"
            y2="23.5515"
            gradientUnits="userSpaceOnUse"
        >
            <stop stop-color="#F9E6FF" />
            <stop offset="1" stop-color="#CEC5F6" />
        </linearGradient>
        <linearGradient
            id="paint7_linear_5804_38278"
            x1="69.3308"
            y1="30.7218"
            x2="69.3308"
            y2="34.9975"
            gradientUnits="userSpaceOnUse"
        >
            <stop stop-color="#F9E6FF" />
            <stop offset="1" stop-color="#CEC5F6" />
        </linearGradient>
    </defs>
</svg>
