<svg width="72" height="72" viewBox="0 0 72 72" fill="none" xmlns="http://www.w3.org/2000/svg">
    <g clip-path="url(#clip0_5804_38262)">
        <g opacity="0.8" filter="url(#filter0_f_5804_38262)">
            <ellipse cx="36" cy="61.3125" rx="29.25" ry="2.25" fill="#807D79" fill-opacity="0.3" />
        </g>
        <path
            opacity="0.5"
            d="M16.0312 10.6875C16.4972 10.6875 16.875 11.0653 16.875 11.5312C16.875 11.9972 16.4972 12.375 16.0312 12.375H10.9688C10.5028 12.375 10.125 11.9972 10.125 11.5312C10.125 11.0653 10.5028 10.6875 10.9688 10.6875H16.0312ZM27.2812 10.6875C27.7472 10.6875 28.125 11.0653 28.125 11.5312C28.125 11.9972 27.7472 12.375 27.2812 12.375H21.6562C21.1903 12.375 20.8125 11.9972 20.8125 11.5312C20.8125 11.0653 21.1903 10.6875 21.6562 10.6875H27.2812ZM56.5312 10.6875C56.9972 10.6875 57.375 11.0653 57.375 11.5312C57.375 11.9972 56.9972 12.375 56.5312 12.375H45.8438C45.3778 12.375 45 11.9972 45 11.5312C45 11.0653 45.3778 10.6875 45.8438 10.6875H56.5312ZM9.28125 7.3125C9.74724 7.3125 10.125 7.69026 10.125 8.15625C10.125 8.62224 9.74724 9 9.28125 9H3.65625C3.19026 9 2.8125 8.62224 2.8125 8.15625C2.8125 7.69026 3.19026 7.3125 3.65625 7.3125H9.28125ZM31.2188 7.3125C31.6847 7.3125 32.0625 7.69026 32.0625 8.15625C32.0625 8.62224 31.6847 9 31.2188 9H13.2188C12.7528 9 12.375 8.62224 12.375 8.15625C12.375 7.69026 12.7528 7.3125 13.2188 7.3125H31.2188ZM44.1562 7.3125C44.6222 7.3125 45 7.69026 45 8.15625C45 8.62224 44.6222 9 44.1562 9H40.2188C39.7528 9 39.375 8.62224 39.375 8.15625C39.375 7.69026 39.7528 7.3125 40.2188 7.3125H44.1562ZM67.2188 7.3125C67.6847 7.3125 68.0625 7.69026 68.0625 8.15625C68.0625 8.62224 67.6847 9 67.2188 9H50.3438C49.8778 9 49.5 8.62224 49.5 8.15625C49.5 7.69026 49.8778 7.3125 50.3438 7.3125H67.2188ZM42.4688 3.9375C42.9347 3.9375 43.3125 4.31526 43.3125 4.78125C43.3125 5.24724 42.9347 5.625 42.4688 5.625H26.1562C25.6903 5.625 25.3125 5.24724 25.3125 4.78125C25.3125 4.31526 25.6903 3.9375 26.1562 3.9375H42.4688Z"
            fill="#C283FB"
        />
        <path
            d="M6.1875 28.1249L33.7529 9.40125C35.1094 8.48015 36.8906 8.48015 38.2471 9.40125L65.8125 28.1249L38.2471 46.8485C36.8906 47.7696 35.1094 47.7696 33.7529 46.8485L6.1875 28.1249Z"
            fill="white"
        />
        <path
            d="M6.1875 28.1249L33.7529 9.40125C35.1094 8.48015 36.8906 8.48015 38.2471 9.40125L65.8125 28.1249L38.2471 46.8485C36.8906 47.7696 35.1094 47.7696 33.7529 46.8485L6.1875 28.1249Z"
            fill="#A171FA"
        />
        <path
            d="M13.5 20.875C13.5 18.6659 15.2909 16.875 17.5 16.875H54.5C56.7091 16.875 58.5 18.6659 58.5 20.875V54.5625H13.5V20.875Z"
            fill="#FCFBF9"
        />
        <g filter="url(#filter1_ii_5804_38262)">
            <path
                d="M6.1875 28.125L33.7525 46.8484C35.1091 47.7699 36.8909 47.7699 38.2475 46.8484L65.8125 28.125V55.3125C65.8125 58.6262 63.1262 61.3125 59.8125 61.3125H12.1875C8.87379 61.3125 6.1875 58.6262 6.1875 55.3125V28.125Z"
                fill="white"
            />
            <path
                d="M6.1875 28.125L33.7525 46.8484C35.1091 47.7699 36.8909 47.7699 38.2475 46.8484L65.8125 28.125V55.3125C65.8125 58.6262 63.1262 61.3125 59.8125 61.3125H12.1875C8.87379 61.3125 6.1875 58.6262 6.1875 55.3125V28.125Z"
                fill="url(#paint0_radial_5804_38262)"
                fill-opacity="0.75"
            />
        </g>
        <g filter="url(#filter2_i_5804_38262)">
            <path
                fill-rule="evenodd"
                clip-rule="evenodd"
                d="M41.25 32.504C43.3211 32.504 45 34.1829 45 36.254C44.9999 38.3249 43.321 40.004 41.25 40.004C39.179 40.004 37.5001 38.3249 37.5 36.254C37.5 35.4255 36.8284 34.754 36 34.754C35.1716 34.754 34.5 35.4255 34.5 36.254C34.4999 38.3249 32.821 40.004 30.75 40.004C28.679 40.004 27.0001 38.3249 27 36.254C27 34.1829 28.6789 32.504 30.75 32.504C32.043 32.504 33.1832 33.1586 33.8574 34.1544C34.4019 33.5988 35.1607 33.254 36 33.254C36.8393 33.254 37.5981 33.5988 38.1426 34.1544C38.8168 33.1586 39.957 32.504 41.25 32.504ZM38.5176 21.2471C40.2183 20.5135 42.1708 21.4807 42.6172 23.2784L44.1016 29.2549H45.75C46.1642 29.2549 46.5 29.5907 46.5 30.0049C46.4999 30.419 46.1641 30.7549 45.75 30.7549H26.25C25.8359 30.7549 25.5001 30.419 25.5 30.0049C25.5 29.5907 25.8358 29.2549 26.25 29.2549H27.8984L29.3828 23.2784C29.8292 21.4807 31.7817 20.5135 33.4824 21.2471L35.1084 21.9483C35.6773 22.1937 36.3227 22.1937 36.8916 21.9483L38.5176 21.2471Z"
                fill="url(#paint1_linear_5804_38262)"
            />
        </g>
    </g>
    <defs>
        <filter
            id="filter0_f_5804_38262"
            x="-5.25"
            y="47.0625"
            width="82.5"
            height="28.5"
            filterUnits="userSpaceOnUse"
            color-interpolation-filters="sRGB"
        >
            <feFlood flood-opacity="0" result="BackgroundImageFix" />
            <feBlend mode="normal" in="SourceGraphic" in2="BackgroundImageFix" result="shape" />
            <feGaussianBlur stdDeviation="6" result="effect1_foregroundBlur_5804_38262" />
        </filter>
        <filter
            id="filter1_ii_5804_38262"
            x="4.1875"
            y="26.125"
            width="61.625"
            height="37.1875"
            filterUnits="userSpaceOnUse"
            color-interpolation-filters="sRGB"
        >
            <feFlood flood-opacity="0" result="BackgroundImageFix" />
            <feBlend mode="normal" in="SourceGraphic" in2="BackgroundImageFix" result="shape" />
            <feColorMatrix
                in="SourceAlpha"
                type="matrix"
                values="0 0 0 0 0 0 0 0 0 0 0 0 0 0 0 0 0 0 127 0"
                result="hardAlpha"
            />
            <feOffset dy="-2" />
            <feGaussianBlur stdDeviation="1.5" />
            <feComposite in2="hardAlpha" operator="arithmetic" k2="-1" k3="1" />
            <feColorMatrix type="matrix" values="0 0 0 0 0.291765 0 0 0 0 0.188235 0 0 0 0 0.705882 0 0 0 0.2 0" />
            <feBlend mode="normal" in2="shape" result="effect1_innerShadow_5804_38262" />
            <feColorMatrix
                in="SourceAlpha"
                type="matrix"
                values="0 0 0 0 0 0 0 0 0 0 0 0 0 0 0 0 0 0 127 0"
                result="hardAlpha"
            />
            <feOffset dx="-3" dy="2" />
            <feGaussianBlur stdDeviation="1" />
            <feComposite in2="hardAlpha" operator="arithmetic" k2="-1" k3="1" />
            <feColorMatrix type="matrix" values="0 0 0 0 1 0 0 0 0 1 0 0 0 0 1 0 0 0 0.1 0" />
            <feBlend mode="normal" in2="effect1_innerShadow_5804_38262" result="effect2_innerShadow_5804_38262" />
        </filter>
        <filter
            id="filter2_i_5804_38262"
            x="25.5"
            y="21.0002"
            width="21"
            height="20.3453"
            filterUnits="userSpaceOnUse"
            color-interpolation-filters="sRGB"
        >
            <feFlood flood-opacity="0" result="BackgroundImageFix" />
            <feBlend mode="normal" in="SourceGraphic" in2="BackgroundImageFix" result="shape" />
            <feColorMatrix
                in="SourceAlpha"
                type="matrix"
                values="0 0 0 0 0 0 0 0 0 0 0 0 0 0 0 0 0 0 127 0"
                result="hardAlpha"
            />
            <feOffset dy="1.34165" />
            <feGaussianBlur stdDeviation="0.670825" />
            <feComposite in2="hardAlpha" operator="arithmetic" k2="-1" k3="1" />
            <feColorMatrix type="matrix" values="0 0 0 0 1 0 0 0 0 1 0 0 0 0 1 0 0 0 0.4 0" />
            <feBlend mode="normal" in2="shape" result="effect1_innerShadow_5804_38262" />
        </filter>
        <radialGradient
            id="paint0_radial_5804_38262"
            cx="0"
            cy="0"
            r="1"
            gradientTransform="matrix(59.4444 -33.5534 96.8798 48.1429 6.55556 61.5534)"
            gradientUnits="userSpaceOnUse"
        >
            <stop stop-color="#704CFF" />
            <stop offset="0.33" stop-color="#B578D9" />
            <stop offset="0.66" stop-color="#D397BE" />
            <stop offset="1" stop-color="#DFA5AF" />
        </radialGradient>
        <linearGradient
            id="paint1_linear_5804_38262"
            x1="37.0096"
            y1="14.6048"
            x2="41.8447"
            y2="39.109"
            gradientUnits="userSpaceOnUse"
        >
            <stop stop-color="#ECAAFF" />
            <stop offset="1" stop-color="#6A48F6" />
        </linearGradient>
        <clipPath id="clip0_5804_38262">
            <rect width="72" height="72" fill="white" />
        </clipPath>
    </defs>
</svg>
