<svg width="96" height="71" viewBox="0 0 96 71" fill="none" xmlns="http://www.w3.org/2000/svg">
    <g clip-path="url(#clip0_13655_3459)">
        <path
            fill-rule="evenodd"
            clip-rule="evenodd"
            d="M80.5706 21.4991C80.5706 23.0506 80.3956 24.5635 80.065 26.0213C88.6304 26.2473 95.5 32.8978 95.5 41.0688C95.5 48.8736 89.2324 55.291 81.2056 56.0478V56.123H14.4831V56.0153C6.60651 55.1241 0.5 48.7722 0.5 41.0687C0.5 32.9074 7.35448 26.2628 15.9061 26.0219C16.9819 18.8694 23.4714 13.3702 31.3177 13.3702C33.2338 13.3702 35.07 13.6983 36.7643 14.2984C39.8844 6.03534 48.2197 0.123047 58.0124 0.123047C70.4706 0.123047 80.5706 9.69343 80.5706 21.4991Z"
            fill="url(#paint0_linear_13655_3459)"
        />
        <path
            fill-rule="evenodd"
            clip-rule="evenodd"
            d="M38.4951 42.3776V37.612C38.4951 32.0932 42.9653 27.623 48.4841 27.623C54.0029 27.623 58.4738 32.0932 58.4738 37.612V46.2598H55.2195V37.6127C55.2195 33.6388 52.4027 30.8213 48.4288 30.8213C44.4556 30.8213 41.6381 33.6388 41.6381 37.612V42.3776H38.4951V42.3776Z"
            fill="#706D6B"
        />
        <rect x="34.5" y="39.873" width="28" height="22.75" rx="4" fill="url(#paint1_linear_13655_3459)" />
        <path
            fill-rule="evenodd"
            clip-rule="evenodd"
            d="M49.7534 50.93C50.5705 50.4852 51.125 49.6189 51.125 48.623C51.125 47.1733 49.9497 45.998 48.5 45.998C47.0503 45.998 45.875 47.1733 45.875 48.623C45.875 49.6188 46.4295 50.4851 47.2466 50.93L46.1668 55.5809H50.8332L49.7534 50.93Z"
            fill="#3D3C3A"
        />
        <path
            d="M64.5 69.623C70.0229 69.623 74.5 65.1459 74.5 59.623C74.5 54.1002 70.0229 49.623 64.5 49.623C58.9772 49.623 54.5 54.1002 54.5 59.623C54.5 65.1459 58.9772 69.623 64.5 69.623Z"
            fill="url(#paint2_linear_13655_3459)"
        />
        <path
            fill-rule="evenodd"
            clip-rule="evenodd"
            d="M69.2073 56.1435C69.5979 56.534 69.5979 57.1672 69.2074 57.5577L63.9347 62.8304C63.5441 63.2209 62.911 63.2209 62.5205 62.8304L60.0204 60.3304C59.6299 59.9399 59.6299 59.3067 60.0204 58.9162C60.411 58.5257 61.0441 58.5257 61.4346 58.9162L63.2276 60.7091L67.7931 56.1435C68.1837 55.753 68.8168 55.753 69.2073 56.1435Z"
            fill="white"
        />
    </g>
    <defs>
        <linearGradient
            id="paint0_linear_13655_3459"
            x1="0.500001"
            y1="56.1231"
            x2="98.156"
            y2="51.0279"
            gradientUnits="userSpaceOnUse"
        >
            <stop stop-color="#EDE9FC" />
            <stop offset="1" stop-color="#FBF6FE" />
        </linearGradient>
        <linearGradient
            id="paint1_linear_13655_3459"
            x1="48.5007"
            y1="40.2154"
            x2="48.5007"
            y2="62.2218"
            gradientUnits="userSpaceOnUse"
        >
            <stop stop-color="#FFE26D" />
            <stop offset="1" stop-color="#FFA16D" />
        </linearGradient>
        <linearGradient
            id="paint2_linear_13655_3459"
            x1="74.5"
            y1="50.123"
            x2="55"
            y2="69.623"
            gradientUnits="userSpaceOnUse"
        >
            <stop stop-color="#2AF091" />
            <stop offset="1" stop-color="#00C5A1" />
        </linearGradient>
        <clipPath id="clip0_13655_3459">
            <rect width="96" height="70" fill="white" transform="translate(0 0.0615234)" />
        </clipPath>
    </defs>
</svg>
