<svg width="96" height="71" viewBox="0 0 96 71" fill="none" xmlns="http://www.w3.org/2000/svg">
    <g clip-path="url(#clip0_13655_3622)">
        <path
            fill-rule="evenodd"
            clip-rule="evenodd"
            d="M80.5706 21.9991C80.5706 23.5506 80.3956 25.0635 80.065 26.5213C88.6304 26.7473 95.5 33.3978 95.5 41.5688C95.5 49.3736 89.2324 55.791 81.2056 56.5478V56.623H14.4831V56.5153C6.60651 55.6241 0.5 49.2722 0.5 41.5687C0.5 33.4074 7.35448 26.7628 15.9061 26.5219C16.9819 19.3694 23.4714 13.8702 31.3177 13.8702C33.2338 13.8702 35.07 14.1983 36.7643 14.7984C39.8844 6.53534 48.2197 0.623047 58.0124 0.623047C70.4706 0.623047 80.5706 10.1934 80.5706 21.9991Z"
            fill="url(#paint0_linear_13655_3622)"
        />
        <path
            fill-rule="evenodd"
            clip-rule="evenodd"
            d="M37.9951 42.8776V38.112C37.9951 32.5932 42.4653 28.123 47.9841 28.123C53.5029 28.123 57.9738 32.5932 57.9738 38.112V46.7598H54.7195V38.1127C54.7195 34.1388 51.9027 31.3213 47.9288 31.3213C43.9556 31.3213 41.1381 34.1388 41.1381 38.112V42.8776H37.9951V42.8776Z"
            fill="#706D6B"
        />
        <rect x="34" y="40.373" width="28" height="22.75" rx="4" fill="url(#paint1_linear_13655_3622)" />
        <path
            fill-rule="evenodd"
            clip-rule="evenodd"
            d="M49.2534 51.43C50.0705 50.9852 50.625 50.1189 50.625 49.123C50.625 47.6733 49.4497 46.498 48 46.498C46.5503 46.498 45.375 47.6733 45.375 49.123C45.375 50.1188 45.9295 50.9851 46.7466 51.43L45.6668 56.0809H50.3332L49.2534 51.43Z"
            fill="#3D3C3A"
        />
        <path
            d="M54 59.6846C54 54.1617 58.4772 49.6846 64 49.6846C69.5228 49.6846 74 54.1617 74 59.6846C74 65.2074 69.5228 69.6846 64 69.6846C58.4772 69.6846 54 65.2074 54 59.6846Z"
            fill="url(#paint2_linear_13655_3622)"
        />
        <path
            fill-rule="evenodd"
            clip-rule="evenodd"
            d="M59.2929 54.9775C59.6835 54.5869 60.3166 54.5869 60.7071 54.9775L68.7071 62.9775C69.0977 63.368 69.0977 64.0012 68.7071 64.3917C68.3166 64.7822 67.6835 64.7822 67.2929 64.3917L59.2929 56.3917C58.9024 56.0012 58.9024 55.368 59.2929 54.9775Z"
            fill="white"
        />
        <path
            fill-rule="evenodd"
            clip-rule="evenodd"
            d="M59.2929 64.3917C58.9024 64.0012 58.9024 63.368 59.2929 62.9775L67.2929 54.9775C67.6834 54.587 68.3166 54.587 68.7071 54.9775C69.0976 55.368 69.0976 56.0012 68.7071 56.3917L60.7071 64.3917C60.3166 64.7822 59.6834 64.7822 59.2929 64.3917Z"
            fill="white"
        />
    </g>
    <defs>
        <linearGradient
            id="paint0_linear_13655_3622"
            x1="0.499999"
            y1="56.623"
            x2="101.458"
            y2="42.1303"
            gradientUnits="userSpaceOnUse"
        >
            <stop stop-color="#F2EFE9" />
            <stop offset="1" stop-color="#FBFAF9" />
        </linearGradient>
        <linearGradient
            id="paint1_linear_13655_3622"
            x1="48.0007"
            y1="40.7154"
            x2="48.0007"
            y2="62.7218"
            gradientUnits="userSpaceOnUse"
        >
            <stop stop-color="#FFE26D" />
            <stop offset="1" stop-color="#FFA16D" />
        </linearGradient>
        <linearGradient
            id="paint2_linear_13655_3622"
            x1="64"
            y1="50.7372"
            x2="64"
            y2="70.8688"
            gradientUnits="userSpaceOnUse"
        >
            <stop stop-color="#FF7171" />
            <stop offset="1" stop-color="#E63757" />
        </linearGradient>
        <clipPath id="clip0_13655_3622">
            <rect width="96" height="70" fill="white" transform="translate(0 0.0615234)" />
        </clipPath>
    </defs>
</svg>
