<svg width="48" height="52" viewBox="0 0 48 52" fill="none" xmlns="http://www.w3.org/2000/svg">
    <path
        d="M25.6668 41.3333H8.33351C7.78122 41.3333 7.33351 40.8856 7.33351 40.3333L7.3335 19C7.3335 18.4477 7.78121 18 8.3335 18H25.6668V41.3333Z"
        fill="url(#paint0_linear_40849_39738)"
    />
    <path
        d="M25.6665 41.3333H39.6665C40.2188 41.3333 40.6665 40.8856 40.6665 40.3333V19C40.6665 18.4477 40.2188 18 39.6665 18H25.6665V41.3333Z"
        fill="url(#paint1_linear_40849_39738)"
    />
    <path d="M35.6665 19.6666H30.6665V41.3333H35.6665V19.6666Z" fill="#FFE3BA" fill-opacity="0.7" />
    <path d="M19 19.6666H14V41.3333H19V19.6666Z" fill="#FFE3BA" />
    <path
        d="M32.333 12.167C32.3328 14.4679 30.4679 16.3328 28.167 16.333L24 16.333L24 12.167C24 9.86581 25.8658 8 28.167 8C30.468 8.00018 32.333 9.86591 32.333 12.167ZM30.667 12.167C30.667 10.7864 29.5476 9.66717 28.167 9.66699C26.7863 9.66699 25.667 10.7863 25.667 12.167L25.667 14.667L28.167 14.667C29.5474 14.6668 30.6668 13.5474 30.667 12.167Z"
        fill="url(#paint2_linear_40849_39738)"
    />
    <path
        d="M17.333 12.167C17.3332 14.468 19.1989 16.333 21.5 16.333L25.667 16.333L25.667 12.167C25.667 9.86581 23.8012 8 21.5 8C19.1988 8 17.333 9.86581 17.333 12.167ZM19 12.167C19 10.7863 20.1193 9.66699 21.5 9.66699C22.8807 9.66699 24 10.7863 24 12.167L24 14.667L21.5 14.667C20.1194 14.667 19.0002 13.5476 19 12.167Z"
        fill="url(#paint3_linear_40849_39738)"
    />
    <path d="M5.6665 14.6667H25.6665V19.6667H5.6665V14.6667Z" fill="url(#paint4_linear_40849_39738)" />
    <path d="M25.6665 14.6667H42.3332V19.6667H25.6665V14.6667Z" fill="url(#paint5_linear_40849_39738)" />
    <path d="M35.6665 14.6667H30.6665V19.6667H35.6665V14.6667Z" fill="#FFE3BA" fill-opacity="0.5" />
    <path d="M18.9999 14.6667H13.9999V19.6667H18.9999V14.6667Z" fill="#FFE3BA" fill-opacity="0.5" />
    <defs>
        <linearGradient
            id="paint0_linear_40849_39738"
            x1="19.4503"
            y1="18.1849"
            x2="9.26592"
            y2="40.279"
            gradientUnits="userSpaceOnUse"
        >
            <stop stop-color="#FFD391" />
            <stop offset="1" stop-color="#FFA26D" />
        </linearGradient>
        <linearGradient
            id="paint1_linear_40849_39738"
            x1="40.8067"
            y1="41.3334"
            x2="20.0182"
            y2="25.6171"
            gradientUnits="userSpaceOnUse"
        >
            <stop stop-color="#FF7E62" />
            <stop offset="1" stop-color="#FFA26D" />
        </linearGradient>
        <linearGradient
            id="paint2_linear_40849_39738"
            x1="28.9998"
            y1="8"
            x2="28.9998"
            y2="16.333"
            gradientUnits="userSpaceOnUse"
        >
            <stop stop-color="#FFBF83" />
            <stop offset="1" stop-color="#FF8F68" />
        </linearGradient>
        <linearGradient
            id="paint3_linear_40849_39738"
            x1="20.6666"
            y1="8"
            x2="20.6666"
            y2="16.333"
            gradientUnits="userSpaceOnUse"
        >
            <stop stop-color="#FFBF83" />
            <stop offset="1" stop-color="#FF8F68" />
        </linearGradient>
        <linearGradient
            id="paint4_linear_40849_39738"
            x1="15.6665"
            y1="14.6667"
            x2="15.6665"
            y2="19.6667"
            gradientUnits="userSpaceOnUse"
        >
            <stop stop-color="#FFC889" />
            <stop offset="1" stop-color="#FF986A" />
        </linearGradient>
        <linearGradient
            id="paint5_linear_40849_39738"
            x1="33.9998"
            y1="14.6667"
            x2="33.9998"
            y2="19.6667"
            gradientUnits="userSpaceOnUse"
        >
            <stop stop-color="#FF9168" />
            <stop offset="1" stop-color="#FF8464" />
        </linearGradient>
    </defs>
</svg>
