<svg width="256" height="158" viewBox="0 0 256 158" fill="none" xmlns="http://www.w3.org/2000/svg">
    <path
        d="M35.7 30.9335C35.7 26.1101 39.6101 22.2 44.4335 22.2H211.566C216.39 22.2 220.3 26.1101 220.3 30.9335V148.066C220.3 152.89 216.39 156.8 211.566 156.8H44.4335C39.6101 156.8 35.7 152.89 35.7 148.066V30.9335Z"
        fill="white"
        stroke="#F0EDE6"
        stroke-width="1.4"
    />
    <path
        d="M35 30.9335C35 25.7235 39.2235 21.5 44.4335 21.5H211.566C216.776 21.5 221 25.7235 221 30.9335V41.5H35V30.9335Z"
        fill="#F0ECE6"
    />
    <path
        d="M50.289 31.6445C50.289 33.3812 48.8812 34.789 47.1445 34.789C45.4078 34.789 44 33.3812 44 31.6445C44 29.9078 45.4078 28.5 47.1445 28.5C48.8812 28.5 50.289 29.9078 50.289 31.6445Z"
        fill="#CCC8C0"
    />
    <path
        d="M59.7226 31.6445C59.7226 33.3812 58.3148 34.789 56.5781 34.789C54.8414 34.789 53.4336 33.3812 53.4336 31.6445C53.4336 29.9078 54.8414 28.5 56.5781 28.5C58.3148 28.5 59.7226 29.9078 59.7226 31.6445Z"
        fill="#CCC8C0"
    />
    <path
        d="M69.1562 31.6445C69.1562 33.3812 67.7484 34.789 66.0117 34.789C64.275 34.789 62.8672 33.3812 62.8672 31.6445C62.8672 29.9078 64.275 28.5 66.0117 28.5C67.7484 28.5 69.1562 29.9078 69.1562 31.6445Z"
        fill="#CCC8C0"
    />
    <mask
        id="mask0_31921_59701"
        style="mask-type: alpha"
        maskUnits="userSpaceOnUse"
        x="160"
        y="21"
        width="61"
        height="80"
    >
        <path d="M160 21.5H221V100.071H160V21.5Z" fill="#C4C4C4" />
    </mask>
    <g mask="url(#mask0_31921_59701)">
        <g opacity="0.17" filter="url(#filter0_f_31921_59701)">
            <path
                d="M221 -10H258.5V72.5H189.732C181.117 72.5 175.845 63.0443 180.376 55.7159L221 -10Z"
                fill="#221548"
            />
        </g>
    </g>
    <path
        fill-rule="evenodd"
        clip-rule="evenodd"
        d="M106.727 71.2238C107.607 70.3476 109.032 70.3476 109.912 71.2238L128 89.2245L132.949 84.295C133.828 83.4187 135.254 83.4187 136.134 84.295C137.015 85.1724 137.015 86.5959 136.134 87.4733L131.189 92.3999L149.261 110.385C150.142 111.262 150.142 112.686 149.261 113.563C148.381 114.439 146.955 114.439 146.075 113.563L106.727 74.4022C105.846 73.5247 105.846 72.1013 106.727 71.2238ZM131.226 71.2238C136.206 66.2639 144.28 66.2639 149.261 71.2238C154.242 76.1849 154.242 84.2292 149.261 89.1903L141.849 96.5668C140.969 97.4431 139.543 97.4431 138.663 96.5668C137.782 95.6894 137.782 94.2659 138.663 93.3885L146.075 86.0119C149.294 82.8058 149.294 77.6084 146.075 74.4022C142.854 71.1948 137.632 71.1948 134.411 74.4022L127.026 81.7524C126.146 82.6287 124.72 82.6287 123.84 81.7524C122.959 80.8749 122.959 79.4515 123.84 78.574L131.226 71.2238ZM114.776 88.5534L117.869 91.8212L110.327 98.8354C106.947 102.009 106.868 107.336 110.153 110.607C113.305 113.746 118.392 113.821 121.636 110.776L129.61 103.356L132.703 106.624L124.726 114.047C119.709 118.756 111.842 118.641 106.967 113.786C101.883 108.723 102.005 100.476 107.237 95.5648L114.776 88.5534ZM121.681 95.5221L124.869 98.6975L123.048 100.508C122.168 101.384 120.743 101.384 119.863 100.508C118.982 99.6307 118.982 98.2072 119.863 97.3298L121.681 95.5221Z"
        fill="#999693"
    />
    <path
        d="M213.567 4.13807C216.484 -0.712694 223.516 -0.712688 226.433 4.13808L254.915 51.5011C257.923 56.5043 254.32 62.8761 248.482 62.8761H191.518C185.68 62.8761 182.077 56.5043 185.085 51.5011L213.567 4.13807Z"
        fill="url(#paint0_linear_31921_59701)"
    />
    <path
        d="M216.822 21.9378C216.83 20.1887 218.251 18.7754 220 18.7754C221.749 18.7754 223.169 20.1887 223.178 21.9378L223.268 38.9493C223.277 40.7604 221.811 42.2334 220 42.2334C218.189 42.2334 216.723 40.7604 216.732 38.9493L216.822 21.9378Z"
        fill="white"
    />
    <path
        d="M223.284 49.2708C223.284 51.0845 221.814 52.5549 220 52.5549C218.186 52.5549 216.716 51.0845 216.716 49.2708C216.716 47.457 218.186 45.9866 220 45.9866C221.814 45.9866 223.284 47.457 223.284 49.2708Z"
        fill="white"
    />
    <defs>
        <filter
            id="filter0_f_31921_59701"
            x="162.018"
            y="-26.6964"
            width="113.178"
            height="115.893"
            filterUnits="userSpaceOnUse"
            color-interpolation-filters="sRGB"
        >
            <feFlood flood-opacity="0" result="BackgroundImageFix" />
            <feBlend mode="normal" in="SourceGraphic" in2="BackgroundImageFix" result="shape" />
            <feGaussianBlur stdDeviation="8.34821" result="effect1_foregroundBlur_31921_59701" />
        </filter>
        <linearGradient
            id="paint0_linear_31921_59701"
            x1="220"
            y1="0.408639"
            x2="220"
            y2="90.5741"
            gradientUnits="userSpaceOnUse"
        >
            <stop stop-color="#FA5284" />
            <stop offset="1" stop-color="#DC3251" />
        </linearGradient>
    </defs>
</svg>
