<svg width="220" height="156" viewBox="0 0 220 156" fill="none" xmlns="http://www.w3.org/2000/svg">
    <path
        d="M164.999 67.4376C175.557 67.4376 184.116 58.8785 184.116 48.3204C184.116 37.7622 175.557 29.2031 164.999 29.2031C154.441 29.2031 145.882 37.7622 145.882 48.3204C145.882 58.8785 154.441 67.4376 164.999 67.4376Z"
        fill="url(#paint0_linear_1309_235)"
    />
    <path
        d="M138.502 121.433C127.099 121.433 119.385 109.024 125.087 99.2973C132.801 85.211 147.893 75.4846 165.333 75.4846C182.774 75.4846 197.531 84.8756 205.58 99.2973C211.282 109.359 203.568 121.433 192.165 121.433H138.502Z"
        fill="url(#paint1_linear_1309_235)"
    />
    <path
        d="M53.9981 67.4376C64.5562 67.4376 73.1153 58.8785 73.1153 48.3204C73.1153 37.7622 64.5562 29.2031 53.9981 29.2031C43.4399 29.2031 34.8809 37.7622 34.8809 48.3204C34.8809 58.8785 43.4399 67.4376 53.9981 67.4376Z"
        fill="url(#paint2_linear_1309_235)"
    />
    <path
        d="M27.5012 121.433C16.098 121.433 8.38403 109.024 14.0857 99.2973C21.7996 85.211 36.8921 75.4846 54.3324 75.4846C71.7726 75.4846 86.5298 84.8756 94.5791 99.2973C100.281 109.359 92.5668 121.433 81.1636 121.433H27.5012Z"
        fill="url(#paint3_linear_1309_235)"
    />
    <g filter="url(#filter0_d_1309_235)">
        <path
            d="M110.129 67.772C122.397 67.772 132.342 57.7494 132.342 45.386C132.342 33.0225 122.397 23 110.129 23C97.861 23 87.9158 33.0225 87.9158 45.386C87.9158 57.7494 97.861 67.772 110.129 67.772Z"
            fill="url(#paint4_linear_1309_235)"
        />
        <path
            d="M79.341 131C66.0909 131 57.1276 116.469 63.7526 105.079C72.7159 88.5844 90.2528 77.195 110.518 77.195C130.782 77.195 147.93 88.1917 157.283 105.079C163.908 116.861 154.944 131 141.694 131H79.341Z"
            fill="url(#paint5_linear_1309_235)"
        />
    </g>
    <path
        d="M30 27L24 24.7841L21.2386 23.7614L20.2159 21L18 15L15.7841 21L14.7614 23.7614L12 24.7841L6 27L12 29.2159L14.7614 30.2386L15.7841 33L18 39L20.2159 33L21.2386 30.2386L24 29.2159L30 27Z"
        fill="url(#paint6_linear_1309_235)"
        fill-opacity="0.5"
    />
    <path
        d="M206 65L203 63.892L201.619 63.3807L201.108 62L200 59L198.892 62L198.381 63.3807L197 63.892L194 65L197 66.108L198.381 66.6193L198.892 68L200 71L201.108 68L201.619 66.6193L203 66.108L206 65Z"
        fill="url(#paint7_linear_1309_235)"
        fill-opacity="0.5"
    />
    <defs>
        <filter
            id="filter0_d_1309_235"
            x="45.5176"
            y="11"
            width="130"
            height="140"
            filterUnits="userSpaceOnUse"
            color-interpolation-filters="sRGB"
        >
            <feFlood flood-opacity="0" result="BackgroundImageFix" />
            <feColorMatrix
                in="SourceAlpha"
                type="matrix"
                values="0 0 0 0 0 0 0 0 0 0 0 0 0 0 0 0 0 0 127 0"
                result="hardAlpha"
            />
            <feOffset dy="4" />
            <feGaussianBlur stdDeviation="8" />
            <feComposite in2="hardAlpha" operator="out" />
            <feColorMatrix type="matrix" values="0 0 0 0 0.32317 0 0 0 0 0.155642 0 0 0 0 0.679167 0 0 0 0.3 0" />
            <feBlend mode="normal" in2="BackgroundImageFix" result="effect1_dropShadow_1309_235" />
            <feBlend mode="normal" in="SourceGraphic" in2="effect1_dropShadow_1309_235" result="shape" />
        </filter>
        <linearGradient
            id="paint0_linear_1309_235"
            x1="165.571"
            y1="29.2031"
            x2="165.571"
            y2="121.174"
            gradientUnits="userSpaceOnUse"
        >
            <stop stop-color="#F9E6FF" />
            <stop offset="1" stop-color="#CEC5F6" />
        </linearGradient>
        <linearGradient
            id="paint1_linear_1309_235"
            x1="165.571"
            y1="29.2031"
            x2="165.571"
            y2="121.174"
            gradientUnits="userSpaceOnUse"
        >
            <stop stop-color="#F9E6FF" />
            <stop offset="1" stop-color="#CEC5F6" />
        </linearGradient>
        <linearGradient
            id="paint2_linear_1309_235"
            x1="54.57"
            y1="29.2031"
            x2="54.57"
            y2="121.174"
            gradientUnits="userSpaceOnUse"
        >
            <stop stop-color="#F9E6FF" />
            <stop offset="1" stop-color="#CEC5F6" />
        </linearGradient>
        <linearGradient
            id="paint3_linear_1309_235"
            x1="54.57"
            y1="29.2031"
            x2="54.57"
            y2="121.174"
            gradientUnits="userSpaceOnUse"
        >
            <stop stop-color="#F9E6FF" />
            <stop offset="1" stop-color="#CEC5F6" />
        </linearGradient>
        <linearGradient
            id="paint4_linear_1309_235"
            x1="110.794"
            y1="23"
            x2="110.794"
            y2="130.697"
            gradientUnits="userSpaceOnUse"
        >
            <stop stop-color="#ECAAFF" />
            <stop offset="1" stop-color="#6A48F6" />
        </linearGradient>
        <linearGradient
            id="paint5_linear_1309_235"
            x1="110.794"
            y1="23"
            x2="110.794"
            y2="130.697"
            gradientUnits="userSpaceOnUse"
        >
            <stop stop-color="#ECAAFF" />
            <stop offset="1" stop-color="#6A48F6" />
        </linearGradient>
        <linearGradient
            id="paint6_linear_1309_235"
            x1="18.0676"
            y1="15"
            x2="18.0676"
            y2="38.9327"
            gradientUnits="userSpaceOnUse"
        >
            <stop stop-color="#F9E6FF" />
            <stop offset="1" stop-color="#CEC5F6" />
        </linearGradient>
        <linearGradient
            id="paint7_linear_1309_235"
            x1="200.034"
            y1="59"
            x2="200.034"
            y2="70.9663"
            gradientUnits="userSpaceOnUse"
        >
            <stop stop-color="#F9E6FF" />
            <stop offset="1" stop-color="#CEC5F6" />
        </linearGradient>
    </defs>
</svg>
