<svg width="328" height="184" viewBox="0 0 328 184" fill="none" xmlns="http://www.w3.org/2000/svg">
    <g clip-path="url(#clip0_1095_1387)">
        <path
            fill-rule="evenodd"
            clip-rule="evenodd"
            d="M137.013 11.5854L135.938 13.0812C138.94 14.408 139.131 17.5658 139.14 17.7166C139.14 17.7202 139.141 17.7222 139.141 17.7222H126.676C126.676 17.7222 126.766 14.4125 129.864 13.0645L128.801 11.5872C128.779 11.5558 128.81 11.4947 128.872 11.4522C128.934 11.4097 129.002 11.3986 129.024 11.43L130.125 12.9536C130.878 12.667 131.792 12.4932 132.909 12.4969C134.019 12.5006 134.929 12.68 135.68 12.9702L136.79 11.4282C136.812 11.3968 136.88 11.4078 136.942 11.4504C137.004 11.4947 137.036 11.5539 137.013 11.5854ZM129.421 15.0448C129.421 15.4535 129.757 15.7844 130.172 15.7844C130.587 15.7844 130.923 15.4535 130.923 15.0448C130.923 14.6362 130.587 14.3052 130.172 14.3052C129.757 14.3052 129.421 14.6362 129.421 15.0448ZM134.892 15.0448C134.892 15.4535 135.228 15.7844 135.643 15.7844C136.056 15.7844 136.392 15.4535 136.394 15.0448C136.394 14.6362 136.058 14.3052 135.643 14.3052C135.228 14.3052 134.892 14.6362 134.892 15.0448Z"
            fill="#A7A4B5"
        />
        <path
            d="M124.616 18.0273C123.878 18.0273 123.279 18.6171 123.279 19.3437V25.2587C123.279 25.9853 123.878 26.5752 124.616 26.5752C125.354 26.5752 125.953 25.9853 125.953 25.2587V19.3437C125.953 18.6171 125.354 18.0273 124.616 18.0273Z"
            fill="#A7A4B5"
        />
        <path
            d="M139.862 19.3437C139.862 18.6171 140.46 18.0273 141.198 18.0273C141.936 18.0273 142.535 18.6171 142.535 19.3437V25.2587C142.535 25.9853 141.936 26.5752 141.198 26.5752C140.46 26.5752 139.862 25.9853 139.862 25.2587V19.3437Z"
            fill="#A7A4B5"
        />
        <path
            d="M126.634 18.4488H139.18V28.8864C139.18 29.295 138.844 29.626 138.429 29.626H136.824V32.9154C136.824 33.642 136.225 34.2319 135.487 34.2319C134.749 34.2319 134.15 33.642 134.15 32.9154V29.626H131.664V32.9154C131.664 33.642 131.065 34.2319 130.327 34.2319C129.59 34.2319 128.991 33.642 128.991 32.9154V29.626H127.385C126.97 29.626 126.634 29.295 126.634 28.8864V18.4488Z"
            fill="#A7A4B5"
        />
    </g>
    <g clip-path="url(#clip1_1095_1387)">
        <path
            d="M201.169 23.5345C201.201 26.9883 204.192 28.1373 204.225 28.1518C204.2 28.2331 203.747 29.7894 202.649 31.398C201.7 32.788 200.715 34.173 199.163 34.2021C197.638 34.2304 197.148 33.2962 195.405 33.2962C193.662 33.2962 193.117 34.1737 191.674 34.2304C190.176 34.287 189.035 32.7271 188.078 31.3421C186.123 28.509 184.628 23.3356 186.635 19.8434C187.632 18.1093 189.414 17.011 191.347 16.9835C192.818 16.9552 194.206 17.975 195.105 17.975C196.004 17.975 197.691 16.7483 199.465 16.929C200.208 16.9602 202.292 17.2295 203.63 19.193C203.522 19.2591 201.143 20.647 201.169 23.5345ZM198.303 15.0541C199.099 14.0894 199.634 12.7465 199.488 11.4102C198.341 11.4566 196.955 12.176 196.133 13.1399C195.397 13.9936 194.751 15.3604 194.925 16.6699C196.203 16.7693 197.508 16.0195 198.303 15.0541Z"
            fill="#A7A4B5"
        />
    </g>
    <g clip-path="url(#clip2_1095_1387)">
        <path
            d="M244.161 60.6191C240.036 61.1903 235.912 61.7817 231.796 62.4101C231.793 65.4473 231.793 68.4846 231.796 71.5242C233.909 71.5174 236.02 71.4977 238.131 71.478L238.132 71.478C240.143 71.4592 242.153 71.4404 244.164 71.4328C244.162 69.6301 244.162 67.828 244.162 66.026C244.162 64.2239 244.162 62.4219 244.161 60.6191Z"
            fill="#A7A4B5"
        />
        <path
            d="M230.667 62.5875C227.554 62.976 224.442 63.3882 221.342 63.8651V71.5924C222.973 71.5966 224.605 71.5856 226.236 71.5746C227.715 71.5646 229.193 71.5546 230.672 71.556C230.671 70.2269 230.671 68.8985 230.67 67.5701V67.5696C230.669 65.9092 230.669 64.2488 230.667 62.5875Z"
            fill="#A7A4B5"
        />
        <path
            d="M221.342 72.5335C222.966 72.5281 224.59 72.5391 226.214 72.55C227.697 72.5601 229.181 72.5701 230.664 72.5676C230.664 73.7019 230.665 74.8362 230.666 75.9705V75.9714C230.668 77.8349 230.67 79.6983 230.667 81.5621C228.301 81.2119 225.932 80.8955 223.562 80.5791L223.56 80.5788C222.821 80.4801 222.081 80.3814 221.342 80.2816V72.5335Z"
            fill="#A7A4B5"
        />
        <path
            d="M244.16 72.6532H231.777C231.78 74.0261 231.783 75.3983 231.786 76.7703C231.789 78.4128 231.793 80.0548 231.795 81.6968C235.92 82.2546 240.044 82.8258 244.16 83.4408C244.16 82.2415 244.161 81.0425 244.161 79.8436C244.162 77.4463 244.164 75.0497 244.16 72.6532Z"
            fill="#A7A4B5"
        />
    </g>
    <path
        fill-rule="evenodd"
        clip-rule="evenodd"
        d="M87.0045 60.6191H104.639C106.071 60.6191 107.233 61.781 107.233 63.2125V75.6607C107.233 77.0923 106.071 78.2541 104.639 78.2541H96.3407V82.4035H102.046C102.337 82.4035 102.565 82.6317 102.565 82.9222C102.565 83.2126 102.337 83.4408 102.046 83.4408H89.5979C89.3074 83.4408 89.0792 83.2126 89.0792 82.9222C89.0792 82.6317 89.3074 82.4035 89.5979 82.4035H95.3033V78.2541H87.0045C85.573 78.2541 84.4111 77.0923 84.4111 75.6607V63.2125C84.4111 61.781 85.573 60.6191 87.0045 60.6191ZM104.639 77.2167C105.5 77.2167 106.195 76.5217 106.195 75.6607V63.2125C106.195 62.3515 105.5 61.6565 104.639 61.6565H87.0045C86.1435 61.6565 85.4485 62.3515 85.4485 63.2125V75.6607C85.4485 76.5217 86.1435 77.2167 87.0045 77.2167H104.639Z"
        fill="#A7A4B5"
    />
    <path
        d="M99.9975 67.4419L101.417 64.9747C101.498 64.8364 101.449 64.6606 101.313 64.5804C101.177 64.5 101 64.5467 100.922 64.685L99.4833 67.184C98.3858 66.6813 97.1505 66.4009 95.8219 66.4009C94.4933 66.4009 93.258 66.6813 92.1605 67.184L90.7219 64.685C90.6418 64.5467 90.4667 64.5 90.3289 64.5804C90.191 64.6608 90.1444 64.8364 90.2245 64.9747L91.6444 67.4419C89.1959 68.7728 87.5375 71.2587 87.2637 74.1689H104.38C104.106 71.2587 102.448 68.7728 99.9975 67.4419ZM91.8921 71.7579C91.4953 71.7579 91.1748 71.4345 91.1748 71.0383C91.1748 70.6402 91.4971 70.3188 91.8921 70.3188C92.289 70.3188 92.6094 70.6421 92.6094 71.0383C92.6113 71.4345 92.289 71.7579 91.8921 71.7579ZM99.7496 71.7579C99.3528 71.7579 99.0323 71.4345 99.0323 71.0383C99.0323 70.6402 99.3547 70.3188 99.7496 70.3188C100.146 70.3188 100.467 70.6421 100.467 71.0383C100.469 71.4345 100.146 71.7579 99.7496 71.7579Z"
        fill="#A7A4B5"
    />
    <g clip-path="url(#clip3_1095_1387)">
        <path
            d="M102.138 123.151C100.641 123.895 99.3283 124.956 98.2896 126.257L102.143 132.929C102.331 130.947 103.677 129.172 105.696 128.537C106.17 128.389 106.662 128.309 107.158 128.302H117.475C114.662 122.646 107.796 120.34 102.138 123.151Z"
            fill="#A7A4B5"
        />
        <path
            d="M111.448 133.408C111.448 135.72 109.573 137.595 107.26 137.595C104.947 137.595 103.072 135.72 103.072 133.408C103.072 131.096 104.947 129.221 107.26 129.221C109.573 129.221 111.448 131.096 111.448 133.408Z"
            fill="#A7A4B5"
        />
        <path
            d="M110.058 129.221H117.876C118.486 130.802 118.74 132.503 118.612 134.201C118.139 140.453 112.721 145.149 106.479 144.751L111.485 136.082C111.535 136.002 111.582 135.92 111.627 135.837L111.67 135.762L111.667 135.761C112.039 135.045 112.238 134.247 112.242 133.432C112.25 131.69 111.385 130.149 110.058 129.221Z"
            fill="#A7A4B5"
        />
        <path
            d="M102.685 135.705C102.999 136.3 103.428 136.831 103.952 137.263C105.513 138.551 107.612 138.756 109.336 137.964L105.481 144.64C103.843 144.382 102.276 143.77 100.893 142.843C95.6764 139.347 94.2604 132.308 97.6981 127.071L102.685 135.705Z"
            fill="#A7A4B5"
        />
    </g>
    <g clip-path="url(#clip4_1095_1387)">
        <path
            d="M224.875 128.837C224.875 128.545 225.112 128.307 225.405 128.307C225.698 128.307 225.936 128.545 225.936 128.837V130.161C225.936 130.453 225.698 130.69 225.405 130.69C225.112 130.69 224.875 130.453 224.875 130.161V128.837Z"
            fill="#A7A4B5"
        />
        <path
            d="M215.056 128.307C214.763 128.307 214.525 128.545 214.525 128.837V130.161C214.525 130.453 214.763 130.69 215.056 130.69C215.349 130.69 215.587 130.453 215.587 130.161V128.837C215.587 128.545 215.349 128.307 215.056 128.307Z"
            fill="#A7A4B5"
        />
        <path
            fill-rule="evenodd"
            clip-rule="evenodd"
            d="M222.102 144.723H217.71C214.737 144.723 213.251 144.723 212.116 144.146C211.117 143.638 210.305 142.828 209.796 141.832C209.218 140.699 209.218 139.216 209.218 136.25V130.426C209.218 127.46 209.218 125.977 209.796 124.844C210.305 123.848 211.117 123.038 212.116 122.53C213.251 121.953 214.737 121.953 217.71 121.953H223.548C226.52 121.953 228.006 121.953 229.142 122.53C230.14 123.038 230.952 123.848 231.461 124.844C232.039 125.977 232.039 127.46 232.039 130.426V136.25C232.039 139.216 232.039 140.699 231.461 141.832C230.952 142.828 230.14 143.638 229.142 144.146C228.006 144.723 226.52 144.723 223.548 144.723H222.262L222.121 144.775C222.115 144.758 222.108 144.74 222.102 144.723ZM221.206 123.012H223.548C225.051 123.012 226.115 123.013 226.947 123.081C227.766 123.148 228.267 123.274 228.66 123.474C229.459 123.88 230.108 124.528 230.515 125.325C230.716 125.717 230.842 126.216 230.909 127.034C230.977 127.864 230.978 128.925 230.978 130.426V136.25C230.978 137.751 230.977 138.812 230.909 139.642C230.842 140.46 230.716 140.959 230.515 141.351C230.108 142.148 229.459 142.796 228.66 143.202C228.267 143.402 227.766 143.528 226.947 143.595C226.115 143.663 225.051 143.664 223.548 143.664H222.862C222.49 142.488 222.253 141.273 222.106 140.116C222.756 140.033 223.305 139.905 223.784 139.745C224.653 139.456 225.276 139.067 225.83 138.685C226.394 138.296 226.793 137.904 227.054 137.603C227.155 137.487 227.235 137.385 227.297 137.301L227.313 137.312L227.452 137.072L227.452 137.071L227.453 137.07L227.453 137.069L227.453 137.069L227.454 137.068C227.596 136.824 227.531 136.497 227.287 136.336C227.033 136.167 226.706 136.258 226.558 136.511L226.557 136.512L226.557 136.512C226.555 136.514 226.552 136.519 226.548 136.526C226.539 136.54 226.523 136.565 226.5 136.597C226.454 136.662 226.38 136.761 226.275 136.881C226.065 137.123 225.731 137.454 225.248 137.787L225.209 137.814C224.72 138.152 224.257 138.472 223.554 138.716C223.139 138.86 222.636 138.979 221.993 139.054C221.842 137.285 221.887 135.744 221.954 134.833L221.996 134.265H218.511C218.616 129.197 220.202 125.008 221.206 123.012ZM220.935 139.131C220.806 137.619 220.816 136.275 220.861 135.324H218.241C217.801 135.324 217.441 134.966 217.446 134.523C217.497 129.517 218.953 125.305 220.027 123.012H217.71C216.206 123.012 215.142 123.013 214.31 123.081C213.491 123.148 212.991 123.274 212.598 123.474C211.799 123.88 211.149 124.528 210.742 125.325C210.542 125.717 210.415 126.216 210.348 127.034C210.28 127.864 210.279 128.925 210.279 130.426V136.25C210.279 137.751 210.28 138.812 210.348 139.642C210.415 140.46 210.542 140.959 210.742 141.351C211.149 142.148 211.799 142.796 212.598 143.202C212.991 143.402 213.491 143.528 214.31 143.595C215.142 143.663 216.206 143.664 217.71 143.664H221.752C221.411 142.507 221.188 141.327 221.047 140.206C220.811 140.216 220.563 140.222 220.303 140.222C218.101 140.222 216.581 139.718 215.522 139.066C214.464 138.413 213.884 137.623 213.547 137.083C213.397 136.843 213.452 136.515 213.69 136.346C213.939 136.169 214.271 136.248 214.427 136.498C214.69 136.919 215.175 137.576 216.079 138.129C216.982 138.682 218.319 139.142 220.303 139.142C220.524 139.142 220.735 139.138 220.935 139.131Z"
            fill="#A7A4B5"
        />
    </g>
    <path
        d="M172.446 167.881C171.923 167.457 172.127 166.521 171.584 166.058C172.11 162.859 170.636 160.038 168.879 158.231C167.404 156.714 167.879 155.238 167.879 153.961C167.879 151.92 167.041 149.768 164.503 149.768C161.791 149.768 161.047 152.031 161.02 153.322C160.956 156.424 161.647 157.23 159.832 159.488C157.696 162.144 157.381 164.793 157.863 166.198C157.638 166.461 157.334 166.752 156.765 166.992C155.194 167.677 156.346 168.823 155.911 169.636C155.787 169.867 155.729 170.108 155.729 170.339C155.729 171.053 156.295 171.67 157.325 171.578C158.714 171.454 159.996 172.438 160.825 172.438C161.558 172.438 162.159 172.022 162.438 171.448C163.747 171.126 165.364 171.167 166.672 171.504C166.907 172.161 167.544 172.589 168.253 172.589C169.804 172.589 170.102 170.831 171.882 170.236C172.522 170.022 172.845 169.4 172.845 168.821C172.845 168.45 172.713 168.097 172.446 167.881ZM163.748 157.93C163.445 157.93 163.194 157.685 162.798 157.39C162.295 157.017 161.785 156.802 161.791 156.411C161.791 156.141 162.151 156.059 162.617 155.763C163.117 155.446 163.312 155.125 163.805 155.125C164.309 155.125 164.461 155.38 165.145 155.676C165.819 155.967 166.287 156.082 166.287 156.411C166.287 156.748 165.583 156.99 165.186 157.236C164.603 157.595 164.304 157.93 163.748 157.93ZM165.332 152.971C166.17 153.105 166.265 154.579 165.863 155.305L165.526 155.167C165.701 154.65 165.698 153.8 165.112 153.746C164.74 153.712 164.501 154.203 164.449 154.623C164.304 154.562 164.145 154.518 163.952 154.502C164.011 153.624 164.578 152.85 165.332 152.971ZM162.096 153.286C162.739 153.126 163.118 153.874 163.121 154.65L162.826 154.831C162.786 154.505 162.641 153.978 162.275 154.09C161.885 154.212 161.948 155.12 162.166 155.307L161.875 155.468C161.476 154.796 161.477 153.44 162.096 153.286ZM160.085 171.584C158.218 170.735 157.584 170.928 157.227 170.928C156.488 170.928 156.247 170.377 156.524 169.856C156.76 169.414 156.687 168.951 156.629 168.579C156.54 168.01 156.523 167.824 157.084 167.579C157.859 167.25 158.203 166.827 158.46 166.51C159.18 165.619 159.908 167.021 160.504 168.269C160.891 169.079 161.653 169.488 161.888 170.385C162.103 171.213 161.212 172.098 160.085 171.584ZM166.729 169.802C165.413 170.442 163.736 170.736 162.482 170.087C162.296 169.551 162 169.205 161.68 168.857C162.193 168.722 162.573 168.083 162.118 167.441C161.632 166.755 160.639 166.277 159.636 165.501C158.697 164.776 158.401 162.987 159.679 160.988C159.056 162.759 159.42 164.391 159.733 164.857C159.797 163.918 159.872 162.349 161.155 160.469C161.803 159.52 161.812 158.267 161.827 157.483L162.416 157.886C162.85 158.207 163.213 158.56 163.734 158.56C164.504 158.56 164.93 158.117 165.524 157.749C165.756 157.606 166.107 157.461 166.401 157.261C166.896 159.615 168.944 162.447 169.059 164.06C169.536 163.078 168.924 160.718 168.924 160.718C169.725 161.94 169.789 162.959 169.824 164.208C170.384 164.437 170.985 165.034 171.04 165.821L170.807 165.794C170.687 164.92 168.328 163.637 168.116 165.282C166.984 165.454 167.396 167.246 167.168 168.408C167.063 168.94 166.869 169.36 166.729 169.802ZM171.337 169.763C170.4 170.125 169.768 170.892 169.333 171.368C168.496 172.287 167.389 171.847 167.272 170.987C167.147 170.068 167.614 169.567 167.815 168.539C167.999 167.601 167.794 166.156 168.225 166.002C168.506 167.669 170.19 166.968 170.574 166.514C171.199 166.514 171.251 166.725 171.391 167.31C171.478 167.676 171.599 167.984 171.94 168.346C172.338 168.771 172.216 169.424 171.337 169.763ZM163.729 157.396C163.11 157.396 162.647 156.984 162.271 156.664C162.078 156.502 162.318 156.201 162.511 156.365C162.879 156.677 163.25 157.007 163.729 157.007C164.307 157.007 164.815 156.513 165.505 156.241C165.74 156.149 165.874 156.512 165.641 156.605C164.971 156.868 164.434 157.396 163.729 157.396Z"
        fill="#A7A4B5"
    />
    <path
        d="M149.068 57.5H179.932C187.425 57.5 193.5 63.5747 193.5 71.0683V101.932C193.5 109.425 187.425 115.5 179.932 115.5H149.068C141.575 115.5 135.5 109.425 135.5 101.932V71.0683C135.5 63.5747 141.575 57.5 149.068 57.5Z"
        fill="white"
        stroke="#F5F4F2"
    />
    <path
        d="M153.257 70.6106L177.754 74.1619C178.546 74.2763 179.295 74.5928 179.932 75.0815C180.569 75.5702 181.072 76.2151 181.394 76.9551C181.716 77.6952 181.847 78.5061 181.773 79.3112C181.699 80.1163 181.423 80.889 180.972 81.5565L166.892 102.396C166.417 103.099 165.764 103.661 165.002 104.022C164.239 104.383 163.395 104.53 162.557 104.449C161.719 104.367 160.917 104.06 160.237 103.559C159.556 103.058 159.021 102.381 158.687 101.599L148.27 77.2082C147.939 76.4315 147.818 75.5794 147.92 74.7398C148.022 73.9001 148.344 73.1032 148.852 72.4311C149.36 71.759 150.036 71.2361 150.81 70.9161C151.585 70.5961 152.429 70.4906 153.257 70.6106Z"
        fill="url(#paint0_linear_1095_1387)"
    />
    <path
        d="M177.755 74.1618L153.258 70.6106C152.43 70.4906 151.585 70.5961 150.811 70.916C150.036 71.236 149.36 71.759 148.852 72.4311C148.344 73.1031 148.022 73.9 147.92 74.7396C147.818 75.5792 147.939 76.4312 148.27 77.2079L148.298 77.2726L169.488 80.3431C169.995 80.417 170.475 80.6202 170.884 80.9337C171.292 81.2473 171.614 81.6607 171.82 82.1351C172.026 82.6095 172.11 83.1292 172.063 83.6452C172.015 84.1612 171.839 84.6565 171.55 85.0844L161.736 99.6107C159.93 102.281 158.077 100.166 158.077 100.166L158.687 101.598C158.891 102.074 159.17 102.513 159.513 102.898L159.581 102.971C159.615 103.006 159.648 103.043 159.683 103.08C159.759 103.154 159.837 103.228 159.916 103.3L160.008 103.377C160.077 103.435 160.146 103.489 160.218 103.541C160.243 103.56 160.267 103.58 160.293 103.597C160.386 103.665 160.483 103.728 160.581 103.788L160.652 103.828C160.746 103.882 160.842 103.934 160.939 103.982L160.963 103.996C161.977 104.492 163.134 104.604 164.223 104.31C165.311 104.015 166.259 103.335 166.892 102.393L180.973 81.5542C181.424 80.8868 181.699 80.1143 181.773 79.3094C181.846 78.5046 181.716 77.6941 181.394 76.9543C181.072 76.2145 180.569 75.5699 179.932 75.0813C179.296 74.5927 178.546 74.2763 177.755 74.1618Z"
        fill="url(#paint1_linear_1095_1387)"
    />
    <defs>
        <linearGradient
            id="paint0_linear_1095_1387"
            x1="166.305"
            y1="79.7725"
            x2="151.326"
            y2="114.921"
            gradientUnits="userSpaceOnUse"
        >
            <stop offset="0.10797" stop-color="#6F4CFF" />
            <stop offset="0.823617" stop-color="#52FCBE" />
        </linearGradient>
        <linearGradient
            id="paint1_linear_1095_1387"
            x1="190.733"
            y1="96.2443"
            x2="157.289"
            y2="50.023"
            gradientUnits="userSpaceOnUse"
        >
            <stop offset="0.0935126" stop-color="#D4CAFF" />
            <stop offset="0.395876" stop-color="#C4B7FF" />
            <stop offset="0.951481" stop-color="#6D4AFF" />
        </linearGradient>
        <clipPath id="clip0_1095_1387">
            <rect width="22.8217" height="22.8217" fill="white" transform="translate(121.496 11.4102)" />
        </clipPath>
        <clipPath id="clip1_1095_1387">
            <rect width="22.8217" height="22.8217" fill="white" transform="translate(183.543 11.4102)" />
        </clipPath>
        <clipPath id="clip2_1095_1387">
            <rect width="22.8217" height="22.8217" fill="white" transform="translate(221.342 60.6191)" />
        </clipPath>
        <clipPath id="clip3_1095_1387">
            <rect width="22.8217" height="22.8217" fill="white" transform="translate(95.8223 121.953)" />
        </clipPath>
        <clipPath id="clip4_1095_1387">
            <rect width="22.8217" height="22.8217" fill="white" transform="translate(209.218 121.953)" />
        </clipPath>
    </defs>
</svg>
