<svg xmlns="http://www.w3.org/2000/svg" width="256" height="256" fill="none"><path
    fill="url(#a)"
    d="M0 42.667C0 19.102 19.102 0 42.667 0h170.666C236.898 0 256 19.102 256 42.667v170.666C256 236.898 236.897 256 213.333 256H42.667C19.102 256 0 236.897 0 213.333V42.667Z"
  /><path
    fill="#fff"
    d="M83.456 100.352c5.938 0 10.752 4.814 10.752 10.752v48.641h54.784c5.938 0 10.752 4.814 10.752 10.752 0 5.938-4.814 10.751-10.752 10.752H94.208v20.991c0 5.938-4.814 10.752-10.752 10.752-5.938 0-10.752-4.814-10.752-10.752v-20.991H47.616c-5.938 0-10.752-4.814-10.752-10.752 0-5.939 4.814-10.752 10.752-10.752h25.088v-48.641c0-5.938 4.814-10.752 10.752-10.752Z"
  /><path fill="#fff" fill-opacity=".5" d="M128 0h64v64h-64V0Z" /><path
    fill="#fff"
    fill-opacity=".8"
    d="M191.996 0h21.333c23.564 0 42.667 19.102 42.667 42.667V64h-64V0Z"
  /><path fill="#fff" fill-opacity=".5" d="M191.996 64h64v64h-64V64Z" /><defs><radialGradient
      id="a"
      cx="0"
      cy="0"
      r="1"
      gradientTransform="rotate(-53.15 298.139 171.258) scale(302.086)"
      gradientUnits="userSpaceOnUse"
    ><stop stop-color="#1B854C" /><stop offset="1" stop-color="#26DA79" /></radialGradient></defs></svg>
