<svg width="16" height="16" viewBox="0 0 16 16" fill="none" xmlns="http://www.w3.org/2000/svg">
<path d="M1.56252 3.70833C1.56252 2.52322 2.52324 1.5625 3.70835 1.5625H12.2917C13.4768 1.5625 14.4375 2.52322 14.4375 3.70833V12.2917C14.4375 13.4768 13.4768 14.4375 12.2917 14.4375H3.70835C2.52324 14.4375 1.56252 13.4768 1.56252 12.2917V3.70833Z" fill="url(#paint0_radial_265_14948)"/>
<path d="M5.75928 6.60938C6.05793 6.60937 6.30029 6.85174 6.30029 7.15039V9.59668H9.05615C9.35462 9.5969 9.59619 9.83918 9.59619 10.1377C9.59595 10.436 9.35447 10.6775 9.05615 10.6777H6.30029V11.7334C6.30029 12.032 6.05793 12.2744 5.75928 12.2744C5.46085 12.2742 5.21924 12.0319 5.21924 11.7334V10.6777H3.95752C3.65902 10.6777 3.41674 10.4361 3.4165 10.1377C3.4165 9.83905 3.65887 9.59668 3.95752 9.59668H5.21924V7.15039C5.21924 6.8519 5.46085 6.60963 5.75928 6.60938Z" fill="white"/>
<path d="M8 1.5625H11.2188V4.78125H8V1.5625Z" fill="white" fill-opacity="0.5"/>
<path d="M11.2185 1.5625H12.2915C13.4766 1.5625 14.4373 2.52322 14.4373 3.70833V4.78125H11.2185V1.5625Z" fill="white" fill-opacity="0.8"/>
<path d="M11.2185 4.78125H14.4373V8H11.2185V4.78125Z" fill="white" fill-opacity="0.5"/>
<defs>
<radialGradient id="paint0_radial_265_14948" cx="0" cy="0" r="1" gradientUnits="userSpaceOnUse" gradientTransform="translate(0.672206 17.0088) rotate(-53.1504) scale(15.1928)">
<stop stop-color="#1B854C"/>
<stop offset="1" stop-color="#26DA79"/>
</radialGradient>
</defs>
</svg>
