<svg viewBox="0 0 48 48" fill="none" xmlns="http://www.w3.org/2000/svg">
<path
    d="M0 8C0 3.58172 3.58172 0 8 0H40C44.4183 0 48 3.58172 48 8V40C48 44.4183 44.4183 48 40 48H8C3.58172 48 0 44.4183 0 40V8Z"
    fill="url(#paint0_radial_265_14948)"
  />
<path
    d="M19.5 20.25C20.3284 20.25 21 20.9216 21 21.75V28.5H29.25C30.0784 28.5 30.75 29.1716 30.75 30C30.75 30.8284 30.0784 31.5 29.25 31.5H21V37.5C21 38.3284 20.3284 39 19.5 39C18.6716 39 18 38.3284 18 37.5V31.5H10.5C9.67157 31.5 9 30.8284 9 30C9 29.1716 9.67157 28.5 10.5 28.5H18V21.75C18 20.9216 18.6716 20.25 19.5 20.25Z"
    fill="white"
  />
<path d="M24 0H36V12H24V0Z" fill="white" fill-opacity="0.5" />
<path d="M36 0H40C44.4183 0 48 3.58172 48 8V12H36V0Z" fill="white" fill-opacity="0.8" />
<path d="M36 12H48V24H36V12Z" fill="white" fill-opacity="0.5" />
<defs>
<radialGradient
      id="paint0_radial_265_14948"
      cx="0"
      cy="0"
      r="1"
      gradientUnits="userSpaceOnUse"
      gradientTransform="translate(-6 56) rotate(-53.1504) scale(56.64)"
    >
<stop stop-color="#1B854C" />
<stop offset="1" stop-color="#26DA79" />
</radialGradient>
</defs>
</svg>
