<svg width="26" height="26" viewBox="0 0 26 26" fill="none" xmlns="http://www.w3.org/2000/svg">
    <path
        d="M15.1371 11.8894C15.1371 12.7462 14.6313 13.4819 13.9052 13.8232V15.3455C13.9052 15.8441 13.501 16.2483 13 16.2483C12.499 16.2483 12.0973 15.8441 12.0973 15.3455V13.8232C11.3688 13.4819 10.8654 12.7462 10.8654 11.8894C10.8654 10.7083 11.8214 9.75232 13 9.75232C14.1787 9.75232 15.1371 10.7083 15.1371 11.8894Z"
        fill="#E6E6E6"
    />
    <path
        d="M17.8597 17.3799C17.9998 17.2254 18.1302 17.0659 18.2534 16.8993C18.1326 17.0635 17.9998 17.2254 17.8597 17.3799Z"
        fill="#E6E6E6"
    />
    <path
        d="M19.0215 15.5585C19.2199 15.089 19.3627 14.6025 19.4474 14.1088C19.3651 14.6049 19.2223 15.089 19.0215 15.5585Z"
        fill="#E6E6E6"
    />
    <path
        d="M19.5443 12.9978C19.5443 13.0704 19.5419 13.1454 19.5395 13.218C19.5346 13.4165 19.5177 13.615 19.4911 13.811C19.5153 13.6101 19.5322 13.4117 19.537 13.2108C19.5419 13.1406 19.5443 13.0704 19.5443 12.9978Z"
        fill="#E6E6E6"
    />
    <path
        d="M15.8412 3.61945C15.8412 3.6727 15.8388 3.72352 15.8364 3.77677C15.8364 3.80339 15.8339 3.83001 15.8291 3.85664C15.8267 3.9123 15.8194 3.96555 15.8122 4.02121C15.8049 4.0793 15.7952 4.13496 15.7831 4.19063C15.7831 4.20999 15.7759 4.22693 15.771 4.24145C15.7613 4.28986 15.7492 4.33826 15.7347 4.38667C15.7178 4.45686 15.6936 4.52462 15.6694 4.58997C15.6548 4.63596 15.6355 4.67952 15.6185 4.72308C15.6089 4.74729 15.5992 4.76907 15.5895 4.78843C15.5653 4.84168 15.5411 4.8925 15.5145 4.94091C15.4878 4.99173 15.4588 5.04256 15.4298 5.09096C15.3813 5.16841 15.3305 5.24344 15.2773 5.31605C15.2144 5.40075 15.1442 5.48304 15.0716 5.56049C15.028 5.60648 14.9844 5.65246 14.9384 5.6936C14.89 5.73717 14.8441 5.78073 14.7932 5.81946C14.6456 5.94047 14.4859 6.04696 14.3164 6.13651H14.314C13.5662 5.6573 12.7796 5.27006 11.964 4.96995C11.6929 4.87072 11.4194 4.78117 11.1435 4.7013C11.0031 4.66016 10.8652 4.62385 10.7248 4.58997C8.79827 4.10834 6.77736 4.1035 4.846 4.57061C4.68868 4.60933 4.52894 4.6529 4.37163 4.69646C4.21431 4.74245 4.057 4.79085 3.9021 4.84168C4.04731 4.6771 4.19979 4.51494 4.35711 4.35763C4.4394 4.27776 4.51926 4.20031 4.59913 4.12286C4.74677 3.98249 4.8944 3.84695 5.0493 3.71868C5.12917 3.64849 5.20904 3.58315 5.2889 3.51538C5.43896 3.39195 5.59386 3.27335 5.74875 3.1596C5.75843 3.15234 5.76569 3.1475 5.77295 3.14024C5.85766 3.08215 5.93995 3.01923 6.02224 2.96356C6.58858 2.56906 7.18154 2.22539 7.79386 1.93738C7.96812 1.85509 8.1448 1.78006 8.3239 1.70503C8.41587 1.66631 8.51026 1.63 8.60465 1.5937C8.6942 1.5574 8.78617 1.52593 8.87572 1.49205C8.96768 1.46059 9.06207 1.42912 9.15404 1.39766C9.24601 1.3662 9.3404 1.33715 9.42995 1.30811C9.52192 1.28149 9.61631 1.25487 9.70828 1.22824C10.0834 1.12417 10.461 1.03704 10.841 0.969276C10.9353 0.952334 11.0297 0.937813 11.1265 0.923291C11.6977 0.833742 12.2737 0.787757 12.8522 0.780496C12.903 0.780496 12.9514 0.778076 12.9998 0.778076C13.0482 0.778076 13.0991 0.780496 13.1475 0.780496C14.6504 0.855524 15.8436 2.09711 15.8412 3.61945Z"
        fill="white"
    />
    <path
        d="M15.8412 3.61945C15.8412 3.6727 15.8388 3.72352 15.8364 3.77677C15.8364 3.80339 15.8339 3.83001 15.8291 3.85664C15.8267 3.9123 15.8194 3.96555 15.8122 4.02121C15.8049 4.0793 15.7952 4.13496 15.7831 4.19063C15.7831 4.20999 15.7759 4.22693 15.771 4.24145C15.7613 4.28986 15.7492 4.33826 15.7347 4.38667C15.7178 4.45686 15.6936 4.52462 15.6694 4.58997C15.6548 4.63596 15.6355 4.67952 15.6185 4.72308C15.6089 4.74729 15.5992 4.76907 15.5895 4.78843C15.5653 4.84168 15.5411 4.8925 15.5145 4.94091C15.4878 4.99173 15.4588 5.04256 15.4298 5.09096C15.3813 5.16841 15.3305 5.24344 15.2773 5.31605C15.2144 5.40075 15.1442 5.48304 15.0716 5.56049C15.028 5.60648 14.9844 5.65246 14.9384 5.6936C14.89 5.73717 14.8441 5.78073 14.7932 5.81946C14.6456 5.94047 14.4859 6.04696 14.3164 6.13651H14.314C13.5662 5.6573 12.7796 5.27006 11.964 4.96995C11.6929 4.87072 11.4194 4.78117 11.1435 4.7013C11.0031 4.66016 10.8652 4.62385 10.7248 4.58997C8.79827 4.10834 6.77736 4.1035 4.846 4.57061C4.68868 4.60933 4.52894 4.6529 4.37163 4.69646C4.21431 4.74245 4.057 4.79085 3.9021 4.84168C4.04731 4.6771 4.19979 4.51494 4.35711 4.35763C4.4394 4.27776 4.51926 4.20031 4.59913 4.12286C4.74677 3.98249 4.8944 3.84695 5.0493 3.71868C5.12917 3.64849 5.20904 3.58315 5.2889 3.51538C5.43896 3.39195 5.59386 3.27335 5.74875 3.1596C5.75843 3.15234 5.76569 3.1475 5.77295 3.14024C5.85766 3.08215 5.93995 3.01923 6.02224 2.96356C6.58858 2.56906 7.18154 2.22539 7.79386 1.93738C7.96812 1.85509 8.1448 1.78006 8.3239 1.70503C8.41587 1.66631 8.51026 1.63 8.60465 1.5937C8.6942 1.5574 8.78617 1.52593 8.87572 1.49205C8.96768 1.46059 9.06207 1.42912 9.15404 1.39766C9.24601 1.3662 9.3404 1.33715 9.42995 1.30811C9.52192 1.28149 9.61631 1.25487 9.70828 1.22824C10.0834 1.12417 10.461 1.03704 10.841 0.969276C10.9353 0.952334 11.0297 0.937813 11.1265 0.923291C11.6977 0.833742 12.2737 0.787757 12.8522 0.780496C12.903 0.780496 12.9514 0.778076 12.9998 0.778076C13.0482 0.778076 13.0991 0.780496 13.1475 0.780496C14.6504 0.855524 15.8436 2.09711 15.8412 3.61945Z"
        fill="url(#paint0_linear_40616_1507)"
        fill-opacity="0.73"
    />
    <path
        d="M25.2222 13.0003C25.2222 13.0487 25.2222 13.0971 25.2222 13.1479C25.215 13.7264 25.169 14.3024 25.0794 14.8736C25.0673 14.9704 25.0504 15.0648 25.0334 15.1592C24.9657 15.5392 24.881 15.9167 24.7745 16.2919C24.7478 16.3838 24.7236 16.4782 24.6946 16.5702C24.6656 16.6597 24.6365 16.7541 24.605 16.8461C24.576 16.9405 24.5421 17.0325 24.5107 17.1244C24.4768 17.214 24.4453 17.3059 24.409 17.3955C24.3727 17.4899 24.3364 17.5843 24.2977 17.6762C24.2251 17.8553 24.1476 18.032 24.0653 18.2063C23.7773 18.8186 23.4361 19.4116 23.0391 19.9779C22.9835 20.0602 22.923 20.1425 22.8625 20.2272C22.8552 20.2344 22.8504 20.2417 22.8455 20.2514C22.7294 20.4039 22.6108 20.5612 22.4873 20.7112C22.4196 20.7911 22.3542 20.871 22.2864 20.9508C22.1558 21.1057 22.0202 21.2534 21.8798 21.401C21.8024 21.4809 21.7249 21.5607 21.6451 21.643C20.251 23.0371 18.6004 24.027 16.8481 24.6054C19.7065 21.4252 20.6044 17.1075 19.5419 13.2181C19.5419 13.2157 19.5395 13.2133 19.5395 13.2109C19.5443 13.1407 19.5467 13.0705 19.5467 12.9979C19.5467 11.4296 20.8174 10.1589 22.3857 10.1589C23.9056 10.1565 25.1472 11.3497 25.2222 12.8527C25.2222 12.9011 25.2222 12.9519 25.2222 13.0003Z"
        fill="white"
    />
    <path
        d="M25.2222 13.0003C25.2222 13.0487 25.2222 13.0971 25.2222 13.1479C25.215 13.7264 25.169 14.3024 25.0794 14.8736C25.0673 14.9704 25.0504 15.0648 25.0334 15.1592C24.9657 15.5392 24.881 15.9167 24.7745 16.2919C24.7478 16.3838 24.7236 16.4782 24.6946 16.5702C24.6656 16.6597 24.6365 16.7541 24.605 16.8461C24.576 16.9405 24.5421 17.0325 24.5107 17.1244C24.4768 17.214 24.4453 17.3059 24.409 17.3955C24.3727 17.4899 24.3364 17.5843 24.2977 17.6762C24.2251 17.8553 24.1476 18.032 24.0653 18.2063C23.7773 18.8186 23.4361 19.4116 23.0391 19.9779C22.9835 20.0602 22.923 20.1425 22.8625 20.2272C22.8552 20.2344 22.8504 20.2417 22.8455 20.2514C22.7294 20.4039 22.6108 20.5612 22.4873 20.7112C22.4196 20.7911 22.3542 20.871 22.2864 20.9508C22.1558 21.1057 22.0202 21.2534 21.8798 21.401C21.8024 21.4809 21.7249 21.5607 21.6451 21.643C20.251 23.0371 18.6004 24.027 16.8481 24.6054C19.7065 21.4252 20.6044 17.1075 19.5419 13.2181C19.5419 13.2157 19.5395 13.2133 19.5395 13.2109C19.5443 13.1407 19.5467 13.0705 19.5467 12.9979C19.5467 11.4296 20.8174 10.1589 22.3857 10.1589C23.9056 10.1565 25.1472 11.3497 25.2222 12.8527C25.2222 12.9011 25.2222 12.9519 25.2222 13.0003Z"
        fill="url(#paint1_linear_40616_1507)"
        fill-opacity="0.5"
    />
    <path
        d="M16.8456 24.6053C12.5981 26.0067 7.73581 25.0192 4.35714 21.643C-0.258276 17.0275 -0.410752 9.63851 3.90213 4.84157C4.05703 4.79075 4.21435 4.74234 4.37166 4.69636C4.52898 4.65279 4.68872 4.60923 4.84603 4.5705C6.77739 4.10097 8.7983 4.10581 10.7248 4.58986C10.8652 4.62375 11.0031 4.66005 11.1435 4.7012C11.4194 4.78106 11.6929 4.87061 11.964 4.96984C12.7796 5.26996 13.5662 5.6572 14.3141 6.13641C14.2656 6.16303 14.2148 6.18723 14.164 6.21143C14.1132 6.2308 14.0623 6.25258 14.0115 6.27194C13.9607 6.2913 13.9074 6.31066 13.8542 6.32761C13.8518 6.32761 13.8494 6.32761 13.8469 6.33003C13.634 6.39537 13.4113 6.43652 13.179 6.45104C13.1209 6.45346 13.0628 6.45588 13.0023 6.45588C11.3275 6.45588 9.65265 7.09482 8.37476 8.37272C5.82139 10.9285 5.81897 15.0696 8.37476 17.6253C10.9305 20.1811 15.074 20.1787 17.6274 17.6253C17.7072 17.5455 17.7847 17.4656 17.8597 17.3809C18.0001 17.226 18.1308 17.0663 18.2542 16.8993C18.3147 16.817 18.3752 16.7298 18.4357 16.6427C18.4938 16.558 18.5495 16.4685 18.6027 16.3813C18.656 16.2918 18.7068 16.2022 18.7552 16.1127C18.806 16.0207 18.852 15.9287 18.8956 15.8368C18.9392 15.7448 18.9827 15.6528 19.0214 15.5584C19.2199 15.0889 19.3627 14.6024 19.4474 14.1087C19.4643 14.0095 19.4789 13.9103 19.491 13.811C19.5152 13.6101 19.5321 13.4117 19.537 13.2108C19.537 13.2132 19.5394 13.2156 19.5394 13.2181C20.6019 17.1074 19.704 21.4251 16.8456 24.6053Z"
        fill="#6D4AFF"
    />
    <path
        d="M16.8456 24.6053C12.5981 26.0067 7.73581 25.0192 4.35714 21.643C-0.258276 17.0275 -0.410752 9.63851 3.90213 4.84157C4.05703 4.79075 4.21435 4.74234 4.37166 4.69636C4.52898 4.65279 4.68872 4.60923 4.84603 4.5705C6.77739 4.10097 8.7983 4.10581 10.7248 4.58986C10.8652 4.62375 11.0031 4.66005 11.1435 4.7012C11.4194 4.78106 11.6929 4.87061 11.964 4.96984C12.7796 5.26996 13.5662 5.6572 14.3141 6.13641C14.2656 6.16303 14.2148 6.18723 14.164 6.21143C14.1132 6.2308 14.0623 6.25258 14.0115 6.27194C13.9607 6.2913 13.9074 6.31066 13.8542 6.32761C13.8518 6.32761 13.8494 6.32761 13.8469 6.33003C13.634 6.39537 13.4113 6.43652 13.179 6.45104C13.1209 6.45346 13.0628 6.45588 13.0023 6.45588C11.3275 6.45588 9.65265 7.09482 8.37476 8.37272C5.82139 10.9285 5.81897 15.0696 8.37476 17.6253C10.9305 20.1811 15.074 20.1787 17.6274 17.6253C17.7072 17.5455 17.7847 17.4656 17.8597 17.3809C18.0001 17.226 18.1308 17.0663 18.2542 16.8993C18.3147 16.817 18.3752 16.7298 18.4357 16.6427C18.4938 16.558 18.5495 16.4685 18.6027 16.3813C18.656 16.2918 18.7068 16.2022 18.7552 16.1127C18.806 16.0207 18.852 15.9287 18.8956 15.8368C18.9392 15.7448 18.9827 15.6528 19.0214 15.5584C19.2199 15.0889 19.3627 14.6024 19.4474 14.1087C19.4643 14.0095 19.4789 13.9103 19.491 13.811C19.5152 13.6101 19.5321 13.4117 19.537 13.2108C19.537 13.2132 19.5394 13.2156 19.5394 13.2181C20.6019 17.1074 19.704 21.4251 16.8456 24.6053Z"
        fill="url(#paint2_radial_40616_1507)"
        fill-opacity="0.85"
    />
    <path
        d="M15.1371 11.8894C15.1371 12.7462 14.6313 13.4819 13.9052 13.8232V15.3455C13.9052 15.8441 13.501 16.2483 13 16.2483C12.499 16.2483 12.0973 15.8441 12.0973 15.3455V13.8232C11.3688 13.4819 10.8654 12.7462 10.8654 11.8894C10.8654 10.7083 11.8214 9.75232 13 9.75232C14.1787 9.75232 15.1371 10.7083 15.1371 11.8894Z"
        fill="#BE3232"
    />
    <path
        d="M15.1371 11.8894C15.1371 12.7462 14.6313 13.4819 13.9052 13.8232V15.3455C13.9052 15.8441 13.501 16.2483 13 16.2483C12.499 16.2483 12.0973 15.8441 12.0973 15.3455V13.8232C11.3688 13.4819 10.8654 12.7462 10.8654 11.8894C10.8654 10.7083 11.8214 9.75232 13 9.75232C14.1787 9.75232 15.1371 10.7083 15.1371 11.8894Z"
        fill="#8F69FF"
    />
    <defs>
        <linearGradient
            id="paint0_linear_40616_1507"
            x1="6.27796"
            y1="1.28659"
            x2="16.5185"
            y2="5.68187"
            gradientUnits="userSpaceOnUse"
        >
            <stop stop-color="#6D4AFF" />
            <stop offset="1" stop-color="#6D4AFF" stop-opacity="0.5" />
        </linearGradient>
        <linearGradient
            id="paint1_linear_40616_1507"
            x1="14.3271"
            y1="12.7902"
            x2="21.1174"
            y2="26.8618"
            gradientUnits="userSpaceOnUse"
        >
            <stop offset="0.475962" stop-color="#6D4AFF" />
            <stop offset="0.730769" stop-color="#E6AD32" />
            <stop offset="0.903064" stop-color="#F2FB00" />
        </linearGradient>
        <radialGradient
            id="paint2_radial_40616_1507"
            cx="0"
            cy="0"
            r="1"
            gradientUnits="userSpaceOnUse"
            gradientTransform="translate(13.2217 8.02857) rotate(114.098) scale(20.3452 22.0508)"
        >
            <stop offset="0.475962" stop-color="#6D4AFF" />
            <stop offset="0.730769" stop-color="#E6AD32" />
            <stop offset="0.903064" stop-color="#F2FB00" />
        </radialGradient>
    </defs>
</svg>
