<?xml version="1.0" standalone="no"?>
<!DOCTYPE svg PUBLIC "-//W3C//DTD SVG 20010904//EN"
 "http://www.w3.org/TR/2001/REC-SVG-20010904/DTD/svg10.dtd">
<svg version="1.0" xmlns="http://www.w3.org/2000/svg"
 width="700.000000pt" height="700.000000pt" viewBox="0 0 700.000000 700.000000"
 preserveAspectRatio="xMidYMid meet">
<metadata>
Created by potrace 1.11, written by Peter Selinger 2001-2013
</metadata>
<g transform="translate(0.000000,700.000000) scale(0.100000,-0.100000)"
fill="#000000" stroke="none">
<path d="M3171 6388 c-637 -78 -1167 -396 -1484 -892 -29 -44 -58 -90 -65
-101 -12 -20 -94 -186 -125 -256 -33 -73 -121 -348 -133 -418 -3 -12 -11 -51
-19 -85 -11 -48 -13 -192 -13 -701 0 -609 1 -642 20 -681 27 -58 110 -150 223
-249 123 -107 927 -694 1195 -872 347 -231 516 -315 622 -308 130 8 440 189
933 544 155 112 615 449 645 474 8 7 40 30 70 52 157 114 306 258 357 344 l25
44 1 646 c0 449 -4 663 -12 701 -6 30 -13 65 -15 77 -9 43 -48 179 -78 268
-114 342 -268 595 -508 835 -161 162 -286 253 -490 359 -169 88 -464 184 -635
207 -27 3 -59 8 -70 10 -27 5 -176 16 -249 18 -32 0 -120 -7 -195 -16z m299
-873 c45 -6 141 -25 200 -39 47 -12 175 -64 240 -97 289 -146 491 -383 601
-704 24 -69 24 -76 24 -430 l0 -360 -1160 0 -1159 0 0 350 1 350 27 85 c125
385 408 667 793 789 54 17 109 33 123 35 14 3 36 8 50 11 14 3 57 8 95 11 39
4 72 8 73 9 2 2 12 2 21 0 10 -2 42 -6 71 -10z"/>
<path d="M1333 1828 l2 -993 22 -42 c38 -71 98 -115 173 -130 14 -3 846 -5
1850 -5 1333 -1 1836 2 1866 11 65 18 118 63 149 125 l27 56 1 980 c0 539 -2
982 -4 984 -3 3 -503 -349 -684 -482 -39 -28 -837 -595 -902 -640 -87 -61
-235 -118 -379 -147 -78 -15 -85 -15 -177 5 -108 23 -251 77 -308 115 -21 14
-41 25 -43 25 -5 0 -114 77 -551 390 -82 59 -169 120 -192 136 -149 104 -419
299 -421 306 -2 4 -8 8 -13 8 -5 0 -64 40 -131 88 -68 49 -160 114 -205 146
l-82 57 2 -993z"/>
</g>
</svg>
