<?xml version="1.0" encoding="utf-8"?>
<!-- Generator: Adobe Illustrator 23.0.6, SVG Export Plug-In . SVG Version: 6.00 Build 0)  -->
<svg version="1.1" id="Capa_1" xmlns="http://www.w3.org/2000/svg" xmlns:xlink="http://www.w3.org/1999/xlink" x="0px" y="0px"
	 viewBox="0 0 434.8 512" style="enable-background:new 0 0 434.8 512;" xml:space="preserve">
<style type="text/css">
	.st0{fill:#C1C2C2;}
</style>
<g>
	<g>
		<path class="st0" d="M431.3,428.7c-2.1-2.4-5-4.7-8.9-7c-0.6-0.4-2.1-1.3-4.7-2.7c-2.6-1.4-4.6-2.7-6.1-3.7c-1.5-1-3.5-2.9-6-5.4
			c-2.5-2.6-4.4-5.3-5.9-8.1c-1.4-2.9-2.8-6.7-4.1-11.6c-1.3-4.9-2.1-10.2-2.3-16.1c-2.7,2.3-4.1,6.8-4.4,13.6
			c-0.3,6.8,1.1,13.7,4.3,20.7c3.1,7.1,7.9,11.6,14.1,13.7c6.1,2.1,11,4.3,14.7,6.7c3.7,2.4,6.1,5.1,7.1,8.1c1,3.1-0.7,6.3-5.3,9.9
			c-4.6,3.5-11.9,7-22,10.4c-13.9,4.8-23.8,8.8-29.6,12.1c-5.8,3.3-14.3,9.7-25.6,19c-7.6,6.3-15.7,9.7-24.3,10.1
			c-8.6,0.5-15.5-2.7-20.9-9.4c-5.3-6.8-7.1-16.3-5.1-28.7c3.6-23.8,3.5-42.4-0.3-55.7c-3-10.5-3.7-19.7-2-27.7c1.7-8,4.4-12.7,8-14
			c3.6-1.3,7.5,1.5,11.7,8.6c0.4,1,1.2,2.8,2.6,5.6c1.3,2.8,2.4,4.7,3.3,5.9c0.9,1.1,2.1,2.6,3.9,4.4c1.7,1.8,3.9,3.1,6.4,3.9
			c2.6,0.8,5.6,1.2,9,1.4c6.5,0.2,12.3-1.1,17.4-4c5.1-2.9,9-6,11.6-9.6c2.6-3.5,5.1-6.9,7.7-10.1c2.6-3.2,4.8-5.1,6.7-5.4
			c2.1-0.4,4-2.5,5.7-6.3c1.7-3.8,2.9-9.1,3.4-15.9c0.6-6.8,0.1-14.8-1.4-24.1c-2.9-16.6-8.5-34.8-17-54.6
			c-8.5-19.8-17.9-35.3-28.4-46.6c-18.9-20-31.5-40.8-38-62.3c-6.7-22.7-9.5-43-8.6-61.1c1-13-1.9-27-8.4-42.1
			c-6.6-15.1-15.3-26.7-26.1-34.7c-6.9-5.1-15.3-9.1-25.4-11.9c-10.1-2.8-20.2-4-30.3-3.9c-12.4,0-22.3,2-29.7,6
			c-15.2,8.2-25.3,18.1-30.3,29.9c-5,11.7-7.2,26.1-6.9,43.3c0.8,37.7,2.3,67.2,4.6,88.6c-2.7,9.9-14.5,28.5-35.4,55.7
			c-3.8,3.8-7.5,9-11.1,15.4c-3.6,6.5-6.5,12.3-8.6,17.4c-2.1,5.1-4.9,12.6-8.4,22.3c-3.5,9.7-6,16.6-7.6,20.6
			c-1.3,3.4-3.4,7.4-6.3,12c-2.9,4.6-5.1,9-6.9,13.4c-1.7,4.4-2.7,9.3-2.9,14.9c-0.2,4.2,0,7.8,0.6,10.9c0.8,4.6,2.2,6,4.3,4.3
			c8.6-6.5,19.3-2.7,32.3,11.4c9.1,9.9,25.2,33,48.3,69.1c1.9,3.2,3.8,6.7,5.7,10.4c1.9,3.7,3.7,8.7,5.4,14.8
			c1.7,6.2,2.4,11.8,2.1,16.7c-0.3,5-2.5,9.5-6.6,13.7c-4.1,4.2-10.2,6.9-18.4,8c-4.4,0.6-9.7,0.2-15.9-1.1
			c-6.2-1.3-14-3.5-23.6-6.6c-9.5-3-16.6-5.1-21.1-6.3c-6.7-1.5-16.1-3.5-28.4-5.9c-12.3-2.4-20.3-4.1-24.1-5.3
			c-6.5-1.7-10-4.2-10.6-7.4c-0.6-2.7,0.8-7.2,4-13.7c3.2-6.5,4.9-11.1,4.9-14c0.2-2.1,0.1-4.2-0.3-6.3c-0.4-2.1-0.8-3.7-1.3-4.9
			c-0.5-1.1-1.3-2.9-2.4-5.1c-1.1-2.3-1.9-4-2.3-5.1c-3.4-8-3.9-13.4-1.4-16.3c1.7-2.5,5.8-3.4,12.3-2.9c9.7,1,17.6-0.5,23.7-4.3
			c10.1-6.3,13.1-16.4,9.1-30.3c0,6.5-1.1,11.3-3.4,14.6c-2.3,3.2-6.3,6.6-12,10c-3.2,1.9-9,3-17.1,3.4c-8.2,0.4-13.6,1.7-16.3,4
			c-1.9,1.7-2.9,4.3-3,7.7c-0.1,3.4,0.3,6.9,1.3,10.4c1,3.5,1.9,7.6,2.9,12.1c1,4.6,1.3,8.4,1.1,11.4c-0.2,2.1-1.9,7.3-5.1,15.6
			c-3.2,8.3-3.9,14.6-2,19c1,2.1,2.6,4,4.9,5.6c2.3,1.6,5.5,3,9.6,4.1c4.1,1.1,7.9,2,11.3,2.7c3.4,0.7,8.2,1.5,14.3,2.6
			c6.1,1,11,2,14.6,2.7c12.2,2.5,26.1,6.6,41.7,12.3c15.6,5.7,26.2,8.7,31.7,8.9c5.3,0.2,10.4-0.9,15.3-3.3c4.9-2.4,9-5.1,12.4-8.1
			c3.4-3,8.5-5.9,15.3-8.6c6.8-2.7,14.3-4.1,22.7-4.3c3.8-0.2,9.3-0.4,16.6-0.7c7.2-0.3,12.7-0.4,16.3-0.4c16.4,0,28.8,0.1,37.1,0.3
			c5.7,0.2,10.2,1.1,13.4,2.7c3.2,1.6,5.3,3.5,6.3,5.6c1,2.1,2.5,4.5,4.7,7.3c2.2,2.8,5,5,8.4,6.7c7.2,3.4,15.7,4.8,25.4,4.1
			c9.7-0.7,16.2-2.5,19.4-5.6c5.3-5.1,12.5-11.2,21.6-18.3c9-7,17.2-12.4,24.4-16c1.5-0.8,4.1-2,7.7-3.7c3.6-1.7,6.7-3.2,9.1-4.4
			c2.5-1.2,5.5-2.8,9-4.7c3.5-1.9,6.4-3.7,8.6-5.3c2.2-1.6,4.4-3.5,6.7-5.6c2.3-2.1,3.8-4.2,4.4-6.3c0.7-2.1,0.9-4.2,0.7-6.4
			C434.5,433.4,433.4,431.1,431.3,428.7z M278.2,152.6c0.6-0.4,1-0.5,1.1-0.4c0.2,0.1,0.6,0.5,1.1,1.1c0.6,0.7,1.1,1.3,1.6,1.9
			c0.5,0.6,1.1,1.3,2,2.3c0.9,1,1.8,1.7,2.7,2.3c1.1,0.8,2.5,1.3,4.1,1.6c1.6,0.3,2.9,0.8,3.7,1.4s1.5,1.8,1.9,3.3
			c0.4,2.1,0.1,4-1,5.7c-1.1,1.7-2.4,2.5-4.1,2.3c-3.4-0.8-7.1-3.8-11.1-9C276.2,159.8,275.5,155.6,278.2,152.6z M242.7,41.6
			c0.9-1.2,1.5-2.2,1.7-3c0.4-1.1,0.4-2.3,0.1-3.6c-0.3-1.2-0.2-2.5,0.3-3.7c0.5-1.2,1.6-2,3.3-2.1c1.7,0,4,1.4,6.9,4.3
			c0.6,0.4,1.5,1,2.7,1.7c1.2,0.8,2.1,1.4,2.6,2c0.5,0.6,0.7,1,0.7,1.4c-0.4,1-1.2,1.6-2.6,2c-1.3,0.4-2.8,0.6-4.3,0.6
			s-2.4,0.1-2.6,0.3c-1.5,0.6-3,1.4-4.3,2.6c-1.3,1.1-2.4,2-3.1,2.6c-0.8,0.6-1.5,0.6-2.3,0c-0.8-1.1-1-2-0.9-2.4
			C241.2,43.7,241.8,42.8,242.7,41.6z M104.5,255.4c1.3-1.5,2.3-2.8,2.9-3.7c0.6-1,1.1-2.2,1.6-3.9c0.5-1.6,0.9-2.8,1.3-3.6
			c0.4-0.8,1-1,1.7-0.9c0.4-0.1,0.7,0.1,0.9,0.6c0.2,0.5,0.3,0.7,0.3,0.7v0.9c0,0.3,0,0.7-0.1,1.1c-0.1,0.5-0.2,0.9-0.4,1.3
			c-0.2,0.4-0.4,1-0.6,1.7c-0.2,0.8-0.4,1.4-0.6,2c-0.8,1.9-2,3.6-3.6,5.1c-1.6,1.5-2.8,2.2-3.6,2
			C103,258.5,103.1,257.3,104.5,255.4z M291.3,431.7c-0.4,6.1-1.7,14.7-3.9,25.7c-2.2,11-3.6,18.4-4.1,22c-4-0.2-6.3-1.7-6.9-4.4
			c-0.6-2.8,0-6.3,1.7-10.7c4.2-12.8,6.4-21.5,6.6-26.3c0.4-8.8-0.6-13.7-2.8-14.9c-2.1-1.5-5.3,1.3-9.7,8.6
			c-8.4,13.7-25.2,22-50.6,24.9c-22.9,3-38.7-0.4-47.4-10.3c-1.9-1.3-3.8-1.6-5.7-0.7c-1.9,0.8-3.1,1.8-3.7,2.7
			c-0.2,0.4,0,1,0.6,1.7c0.6,0.8,1.5,1.9,2.7,3.4c1.2,1.5,2.2,3,3,4.6c7.4,12.9,6.8,21.7-2,26.3c0-8.8-0.7-15.5-2-20.1
			c-1.3-4.7-4-9.8-8-15.4c-4-5.6-6.8-9.9-8.3-12.7c5.7-0.6,10-2.8,13-6.6c3-3.8,4.3-7.9,4-12.3c-0.3-4.4-2-8-5-10.9
			c-1.7-1.7-10.6-9-26.6-21.9c-16-12.9-25.9-21.5-29.7-25.9c-0.8-0.8-3-2.7-6.9-5.7c-3.8-3-6.2-5.7-7.1-8c-8.8-19.2-9.7-35-2.9-47.4
			l1.1-1.4c1-0.2,1,1.5,0.3,5.1c-1.1,5.3-1.5,10.7-1.1,16c0.8,12,4.2,21,10.3,26.9c4,4,6.8,3.7,8.3-0.9c1.1-1.5,1.7-7.1,1.6-16.9
			c-0.1-9.7,0.1-16.3,0.4-19.7c1.5-10.9,6-24.3,13.6-40.3c7.5-16,13.5-24.6,17.9-25.7c-3.4-5.5-4.5-11.5-3.3-18
			c1.2-6.5,3.2-12,6-16.6c2.8-4.6,5.6-9.9,8.4-15.9c2.9-6,4.3-11.4,4.3-16.1c0-1.3,0.1-2.3,0.3-2.9c0.6-1.7,3,0.4,7.1,6.3
			c8,11.8,14,18.8,18,20.9c4.2,2.3,8.9,2.2,14-0.3c5.1-2.5,11.5-6.6,19-12.3c7.5-5.7,13.9-9.9,19.3-12.6c0.6-0.2,1.5-0.6,2.7-1.3
			c1.2-0.7,2.2-1.1,2.8-1.4c0.7-0.3,1.5-0.7,2.6-1.3c1-0.6,1.8-1,2.4-1.4c0.6-0.4,1.1-0.8,1.7-1.3c0.6-0.5,0.9-1,1.1-1.4
			c0.2-0.5,0.3-0.9,0.3-1.3c-0.4-1.7-1.2-2.8-2.4-3.1c-1.2-0.4-2.9-0.1-5,0.7c-2.1,0.9-4.4,2-7,3.4c-2.6,1.4-5.4,3-8.6,4.9
			c-3.1,1.8-6.3,3.5-9.6,5c-3.2,1.5-6.7,2.9-10.3,4c-3.6,1.1-7,1.8-10.3,2c-8,0.2-14.4-1.9-19.1-6.3c-3-2.9-4.7-4.7-4.9-5.4
			c-0.2-0.8,0.7-0.9,2.6-0.6c10.3,1.3,17.8,1.5,22.6,0.6c5-0.8,11.6-3,20-6.6c1.7-0.8,6-2.6,13-5.6c6.9-2.9,12.3-5,16.1-6.1
			c2.3-0.6,3.9-1.5,4.7-2.7c0.9-1.2,1.1-2.4,0.9-3.4c-0.3-1-0.9-1.9-1.9-2.4c-2.1-1.1-4-0.4-5.7,2.3c-1,1.7-3,3.4-6,5
			c-3,1.6-5.9,2.9-8.4,3.7c-2.6,0.9-5.9,1.9-9.9,3c-4,1.1-6.2,1.8-6.6,2c-10.5,3.2-20.2,4.7-29.1,4.3c-4.2-0.2-7.6-0.8-10.1-1.9
			c-2.6-1-4.3-2.3-5.3-3.7c-1-1.4-2.5-3.2-4.6-5.4c-2.1-2.2-4.5-4-7.1-5.6c-1.9-1-2.6-2.7-2.1-5.1c0.5-2.5,2-5,4.4-7.7
			c0.2-0.2,2.1-1.4,5.9-3.6c3.7-2.2,6.3-4.4,7.9-6.7c1.7-2.7,4.7-5.4,8.9-8.3c0.2-0.8,0.3-2.9,0.4-6.3c0.1-3.4-0.8-7.1-2.7-11.1
			c-1.9-4-4.5-6-7.7-6c-4.6-0.2-7.8,1.1-9.7,4c-1.9,2.9-2.8,6.4-2.6,10.6c0.2,3.6,1.1,6.8,2.7,9.6c1.6,2.8,3.1,4.1,4.4,4.1
			c2.1-0.2,2.8,0.6,2,2.3c-1.1,2.1-2.7,3.4-4.6,4c-1.3,0.4-2.8-0.9-4.4-3.9c-1.6-3-2.9-6.5-3.7-10.7c-0.9-4.2-1.2-7.7-1-10.6
			c0.4-5.9,1.9-11.6,4.7-17c2.8-5.4,6.7-8,11.9-7.9c5.3,0.2,9.6,3.4,12.9,9.7c3.2,6.3,4.8,14.9,4.6,25.7c0.6,1.3,2,1.8,4.4,1.4
			c2.4-0.4,5.5-0.4,9.4-0.1c3.9,0.3,6.7,1.3,8.4,3c0.2,0,0.3-1.4,0.3-4.3c-3.4-24,5-36.8,25.4-38.3c3,0.6,5.6,1.3,7.7,2.1
			c2.1,0.9,4.3,2.3,6.7,4.3c2.4,2,4.4,4.9,6,8.7c1.6,3.8,2.9,8.6,3.9,14.3v10.6c0,6.1-1.2,9.5-3.7,10.3c-4,1.3-6.8,1.3-8.6-0.1
			c-1.7-1.4-1.5-4,0.6-7.6c1.9-4.8,1.5-10.3-1.1-16.6c-2.7-6.3-7.5-9.1-14.6-8.6c-4.8,0.2-8.2,2.8-10.3,7.7c-2.1,5-2.9,9.8-2.3,14.6
			c0.6,4.8,1.6,7.2,3.1,7.4c1.1,0.2,4.5,1.7,10.1,4.6c5.6,2.9,9.9,4.6,12.7,5.1c7.4,1.5,11.7,3.9,12.7,7.1c1,3.2,0.6,8-1.3,14.1
			c-1.9,6.2-2.5,11.3-1.7,15.3c0.8,4.2,2.2,8,4.3,11.4c2.1,3.4,4.3,6.6,6.7,9.4c2.4,2.9,5.2,8.2,8.4,16c3.2,7.8,6.2,17.6,8.8,29.4
			c0.2,0.2,0.9,0.9,2.1,2c1.2,1.1,2.5,2.6,3.7,4.3c1.2,1.7,2.7,4,4.4,7c1.7,3,3.6,7.3,5.6,13c2,5.7,3.9,12.3,5.6,19.7
			c2.1,8.8,3.2,18.9,3.3,30.6c0.1,11.6,0.9,19.6,2.3,23.9c1.4,4.3,5.1,6.1,11,5.3c7.4-0.4,12.2-4.4,14.3-12
			c6.3-22.1,1.2-48.6-15.4-79.4c-6.3-12-11.7-19.9-16.3-23.7c6.7,3.8,13.5,10.9,20.6,21.4c7,10.5,11.5,20.3,13.4,29.4
			c0.2,1,0.7,3.5,1.6,7.6c0.9,4.1,1.3,6.5,1.4,7.1c0.1,0.7,0.5,2.6,1.1,5.9c0.7,3.2,1,5.3,1,6.3c0,1,0.1,2.8,0.3,5.6
			c0.2,2.8,0.1,4.9-0.1,6.4c-0.3,1.5-0.6,3.6-0.9,6.1c-0.3,2.6-0.8,5-1.4,7.4c-0.7,2.4-1.4,5-2.1,7.9c10.5,4.6,15.7,8.6,15.7,12
			c-4-3.2-9.7-5.4-17.1-6.4c-7.4-1.1-14.3-0.1-20.7,3c-6.4,3-9.7,8.1-9.9,15.1c-6.9,0-11.7,1.7-14.6,5.1c-4.2,4.9-6.4,11.7-6.6,20.1
			c-0.2,8.5,0.5,17.7,2.1,27.7C291.1,420.7,291.7,427.7,291.3,431.7z M171.6,100.6c-0.6-0.2-1-0.8-1.4-1.7c0-1.7,0.9-2.4,2.6-2
			c1.1,0.4,2.2,1.8,3.3,4.3c1,2.5,1.3,5.3,0.7,8.6c0,0.6-0.3,0.9-0.9,0.9c-2.1,0-2.9-1.9-2.3-5.7C174.2,102,173.5,100.6,171.6,100.6
			z M245.6,105.1L245,106c-1.5,1-2.3,1.1-2.3,0.6c-0.8-5.1-2.5-8.1-5.1-8.9l-1.1-0.6c-1.3-1.1-0.7-1.8,2-2c0.6-0.2,1.4,0.1,2.6,0.9
			c1.1,0.8,2.2,2,3.1,3.6C245.1,101.2,245.6,103,245.6,105.1z"/>
		<path class="st0" d="M179,121.7c0,1.1,0.5,1.6,1.4,1.4c0.8,0,1.6-0.9,2.4-2.7c0.9-1.8,2.3-2.8,4.4-3v0h-2.9
			C180.8,118,179,119.4,179,121.7z"/>
		<path class="st0" d="M203.9,118.3c1.9-0.6,3.6-0.1,5,1.3c1.4,1.4,2.5,2,3.3,1.9c1.1-0.6,1.4-1.4,0.9-2.6
			C211.5,116.4,208.5,116.2,203.9,118.3z"/>
	</g>
</g>
</svg>
