<svg width="161" height="160" viewBox="0 0 161 160" fill="none" xmlns="http://www.w3.org/2000/svg">
    <path
        opacity="0.5"
        d="M80.25 160C124.433 160 160.25 124.183 160.25 80C160.25 35.8172 124.433 0 80.25 0C36.0672 0 0.25 35.8172 0.25 80C0.25 124.183 36.0672 160 80.25 160Z"
        fill="#B78BFF"
    />
    <path
        d="M102.951 67.0459H58.2191C54.5805 67.0459 51.6309 69.9955 51.6309 73.6341V129.78C51.6309 133.418 54.5805 136.368 58.2191 136.368H102.951C106.589 136.368 109.539 133.418 109.539 129.78V73.6341C109.539 69.9956 106.589 67.0459 102.951 67.0459Z"
        fill="white"
    />
    <path d="M76.5435 113.882H64.25V115.526H76.5435V113.882Z" fill="#6D4AFF" />
    <path d="M95.9578 113.882H78.8564V115.526H95.9578V113.882Z" fill="#6D4AFF" />
    <path d="M87.2857 120.516H72.7207V122.159H87.2857V120.516Z" fill="#6D4AFF" />
    <path
        d="M80.7519 108.05C88.5162 108.05 94.8105 101.756 94.8105 93.9919C94.8105 86.2276 88.5162 79.9333 80.7519 79.9333C72.9876 79.9333 66.6934 86.2276 66.6934 93.9919C66.6934 101.756 72.9876 108.05 80.7519 108.05Z"
        fill="#E2DBFF"
    />
    <path
        d="M80.7521 96.7358C83.71 96.7358 86.1078 94.338 86.1078 91.3802C86.1078 88.4223 83.71 86.0245 80.7521 86.0245C77.7943 86.0245 75.3965 88.4223 75.3965 91.3802C75.3965 94.338 77.7943 96.7358 80.7521 96.7358Z"
        fill="#C4B7FF"
    />
    <path
        d="M80.7518 108.05C84.7016 108.05 88.2497 106.444 90.7936 103.833C88.4505 100.854 84.8355 98.9791 80.7518 98.9791C76.6681 98.9791 73.0531 100.887 70.71 103.833C73.2539 106.41 76.802 108.05 80.7518 108.05Z"
        fill="#C4B7FF"
    />
    <path
        d="M86.8546 73.4118H74.5873C74.0806 73.4118 73.6621 72.986 73.6621 72.4706C73.6621 71.9552 74.0806 71.5294 74.5873 71.5294H86.8546C87.3612 71.5294 87.7798 71.9552 87.7798 72.4706C87.7798 72.986 87.3612 73.4118 86.8546 73.4118Z"
        fill="#6D4AFF"
    />
    <path
        fill-rule="evenodd"
        clip-rule="evenodd"
        d="M91.4611 0.779663L73.6621 67.1133H89.3943L106.213 4.30743C101.48 2.68451 96.5474 1.49295 91.4611 0.779663Z"
        fill="#372580"
    />
    <path
        fill-rule="evenodd"
        clip-rule="evenodd"
        d="M55.21 3.99692L72.1117 67.1131H87.8439L70.01 0.649292C64.911 1.30074 59.9621 2.4322 55.21 3.99692Z"
        fill="url(#paint0_linear_6206_78175)"
    />
    <path
        d="M126.987 60.5345C129.409 60.5345 131.372 58.5713 131.372 56.1496C131.372 53.7278 129.409 51.7646 126.987 51.7646C124.566 51.7646 122.603 53.7278 122.603 56.1496C122.603 58.5713 124.566 60.5345 126.987 60.5345Z"
        fill="#372580"
    />
    <path
        d="M41.6977 82.3707L35.8065 80.1949L33.0952 79.1908L32.091 76.4795L29.9152 70.5883L27.7395 76.4795L26.7353 79.1908L24.024 80.1949L18.1328 82.3707L24.024 84.5464L26.7353 85.5506L27.7395 88.2619L29.9152 94.1531L32.091 88.2619L33.0952 85.5506L35.8065 84.5464L41.6977 82.3707Z"
        fill="white"
    />
    <defs>
        <linearGradient
            id="paint0_linear_6206_78175"
            x1="59.073"
            y1="-7.99961"
            x2="78.3671"
            y2="76.2357"
            gradientUnits="userSpaceOnUse"
        >
            <stop stop-color="#D7B7FF" />
            <stop offset="1" stop-color="#6D4AFF" />
        </linearGradient>
    </defs>
</svg>
