<svg class="hidden">
<defs>
<!--


	viewbox 16X16

	Size = sm (Small)


-->

<g id="mime-sm-attachments">
	<rect width="16" height="16" rx="3" fill="#EBEDF3"/>
	<path fill-rule="evenodd" clip-rule="evenodd" d="M11.0142 4.87213C10.0732 4.26821 8.83509 4.41141 8.05787 5.21406L4.48398 8.7759C4.14765 9.10139 3.97199 9.55782 4.00365 10.024C4.04028 10.4909 4.27804 10.9191 4.65552 11.198C4.92405 11.3946 5.24866 11.5004 5.58188 11.5C6.05023 11.4945 6.49777 11.3063 6.82845 10.9757L9.9163 7.89827C10.2583 7.52538 10.246 6.95046 9.88832 6.59247C9.53064 6.23447 8.95384 6.21974 8.57823 6.55901L6.72321 8.40778C6.61091 8.5197 6.61091 8.70157 6.72321 8.81349C6.83509 8.92499 7.01611 8.92486 7.12783 8.81321L8.97851 6.96364C9.12838 6.83776 9.34999 6.84717 9.48858 6.98529C9.62716 7.12341 9.6366 7.34427 9.5103 7.49364L6.42818 10.5711C6.05196 10.9574 5.45585 11.0287 4.99862 10.742C4.75906 10.5609 4.60924 10.2859 4.58735 9.98704C4.56546 9.68818 4.67362 9.39437 4.88425 9.18053L8.45815 5.61869C9.04225 5.01174 9.97391 4.89746 10.6883 5.34514C11.1119 5.62931 11.3865 6.0868 11.4373 6.59321C11.4804 7.09355 11.3006 7.58747 10.9456 7.94386L8.12784 10.7415C8.0165 10.852 8.01569 11.0318 8.12603 11.1434C8.23673 11.2553 8.41726 11.256 8.52885 11.145L11.3401 8.34848C11.815 7.86924 12.0529 7.20523 11.9901 6.5346C11.9272 5.86397 11.57 5.25538 11.0142 4.87213Z" fill="#3A3F4A"/>
</g>

<g id="mime-sm-doc">
	<path d="M0 3C0 1.34315 1.34315 0 3 0H13C14.6569 0 16 1.34315 16 3V13C16 14.6569 14.6569 16 13 16H3C1.34315 16 0 14.6569 0 13V3Z" fill="#6296FE"/>
	<path d="M11.3514 4.40002C11.2396 4.40002 11.1425 4.47733 11.1175 4.58639L9.85539 10.0907L8.53353 4.584C8.50763 4.4761 8.41113 4.40002 8.30016 4.40002H7.71901C7.60865 4.40002 7.51251 4.47529 7.48602 4.58243L6.12432 10.0907L4.8821 4.58718C4.8574 4.47775 4.76018 4.40002 4.64799 4.40002H4.1005C3.94655 4.40002 3.83242 4.54291 3.86643 4.69305L5.38876 11.413C5.41353 11.5224 5.51071 11.6 5.62283 11.6H6.62897C6.73964 11.6 6.83596 11.5244 6.86215 11.4168L8.00005 6.74563L9.11811 11.4159C9.14395 11.5239 9.24049 11.6 9.35151 11.6H10.3574C10.4693 11.6 10.5663 11.5227 10.5913 11.4137L12.1327 4.69368C12.1672 4.54337 12.053 4.40002 11.8988 4.40002H11.3514Z" fill="white"/>
</g>

<g id="mime-sm-folder">
	<path d="M1 15H15C15.5523 15 16 14.5523 16 14V4.45C16 3.89772 15.5523 3.45 15 3.45H7.59993C7.2772 3.45 6.97431 3.29425 6.78657 3.03176L5.63248 1.41824C5.44473 1.15575 5.14185 1 4.81912 1H1C0.447715 1 0 1.44772 0 2V14C0 14.5523 0.447715 15 1 15Z" fill="#61BCF5"/>
</g>

<g id="mime-sm-image">
	<rect width="16" height="16" rx="3" fill="#EBEDF3"/>
	<path d="M9.42299 6.79459L6.87056 9.99945C6.87056 10.0113 6.85817 10.0113 6.84578 9.99945L5.43327 8.27832C5.27219 8.07653 4.96243 8.07653 4.80135 8.27832L2.76932 10.771C2.55868 11.0203 2.74454 11.3882 3.07908 11.3882H5.75542H7.9857H13.0286C13.3136 11.3882 13.4747 11.0677 13.3012 10.8541L10.0673 6.79459C9.90622 6.5928 9.58407 6.5928 9.42299 6.79459Z" fill="#3A3F4A"/>
	<path d="M6.6724 7.06804C7.41145 7.06804 8.01056 6.49409 8.01056 5.78609C8.01056 5.0781 7.41145 4.50415 6.6724 4.50415C5.93335 4.50415 5.33423 5.0781 5.33423 5.78609C5.33423 6.49409 5.93335 7.06804 6.6724 7.06804Z" fill="#3A3F4A"/>
</g>

<g id="mime-sm-keynote">
	<rect width="16" height="16" rx="3" fill="#39AFF1"/>
	<path d="M3.19995 4.40005C3.19995 4.06868 3.46858 3.80005 3.79995 3.80005H12.2C12.5313 3.80005 12.8 4.06868 12.8 4.40005V8.60005H3.19995V4.40005Z" fill="white"/>
	<path d="M7.3999 10.3999H8.5999V12.7999H7.3999V10.3999Z" fill="white"/>
	<rect x="10.3999" y="12.8" width="0.6" height="4.8" rx="0.3" transform="rotate(90 10.3999 12.8)" fill="white"/>
	<rect x="12.8" y="9.19995" width="0.6" height="9.6" rx="0.3" transform="rotate(90 12.8 9.19995)" fill="white"/>
</g>

<g id="mime-sm-numbers">
	<rect width="16" height="16" rx="3" fill="#33C75D"/>
	<rect x="3.19995" y="9.19995" width="2.4" height="3.6" rx="0.6" fill="white"/>
	<rect x="6.80005" y="3.19995" width="2.4" height="9.6" rx="0.6" fill="white"/>
	<rect x="10.3999" y="6.80005" width="2.4" height="6" rx="0.6" fill="white"/>
</g>

<g id="mime-sm-pages">
	<rect width="16" height="16" rx="3" fill="#FFB23F"/>
	<path d="M10.7945 3.50225L4.95951 9.33725C4.8745 9.42225 4.80989 9.52766 4.78665 9.64611L4.46162 10.9504C4.4313 11.0759 4.54011 11.1847 4.67243 11.1612L5.97672 10.8362C6.08836 10.8061 6.20057 10.7483 6.28558 10.6633L12.1206 4.82833C12.3048 4.64414 12.3036 4.35965 12.1336 4.18965L11.4332 3.48921C11.2632 3.3192 10.9716 3.32516 10.7945 3.50225Z" fill="white"/>
	<path d="M3.32031 12.5C3.32031 12.3343 3.45463 12.2 3.62031 12.2H12.0203C12.186 12.2 12.3203 12.3343 12.3203 12.5C12.3203 12.6656 12.186 12.8 12.0203 12.8H3.62031C3.45463 12.8 3.32031 12.6656 3.32031 12.5Z" fill="white"/>
</g>

<g id="mime-sm-pdf">
	<rect width="16" height="16" rx="3" fill="#E04930"/>
	<path fill-rule="evenodd" clip-rule="evenodd" d="M7.99086 3.43994C6.97986 3.43994 6.31202 4.51159 6.84 5.39846L7.57826 6.63943L5.90071 9.8204H4.24037C3.47813 9.8204 2.83984 10.4217 2.83984 11.1876C2.83984 12.5874 4.69753 13.0606 5.43033 11.9159L6.31446 10.5403H9.68529L10.5696 11.9162C11.3024 13.0609 13.1599 12.5874 13.1599 11.1876C13.1599 10.4217 12.5216 9.8204 11.7594 9.8204H10.0981L8.40392 6.63866L9.14108 5.39954L9.14142 5.39896C9.67104 4.51475 8.99546 3.43994 7.99086 3.43994ZM8.00823 5.89554L8.52294 5.03035L8.52358 5.02927C8.74431 4.66115 8.47897 4.15994 7.99086 4.15994C7.49993 4.15994 7.23583 4.65593 7.4587 5.03022L7.97194 5.89294L7.98931 5.86L8.00823 5.89554ZM3.55984 11.1876C3.55984 10.8412 3.85351 10.5404 4.24037 10.5404H5.45851L4.82383 11.5278C4.45262 12.1081 3.55984 11.8196 3.55984 11.1876ZM10.5412 10.5404L11.1755 11.5272L11.1759 11.5278C11.5471 12.1081 12.4399 11.8196 12.4399 11.1876C12.4399 10.8412 12.1462 10.5404 11.7594 10.5404H10.5412ZM6.71474 9.82032L7.99237 7.39768L9.28234 9.82032H6.71474Z" fill="white"/>
</g>

<g id="mime-sm-ppt">
	<rect width="16" height="16" rx="3" fill="#EE7930"/>
	<path d="M7.69457 3.81067C5.20452 3.81067 3.19995 5.8309 3.19995 8.30529C3.19995 10.7797 5.20452 12.7999 7.69457 12.7999C10.169 12.7999 12.1892 10.7953 12.1892 8.30529H7.69457V3.81067Z" fill="white"/>
	<path d="M8.30554 3.19995V7.69457H12.8002C12.8002 5.20452 10.7956 3.19995 8.30554 3.19995Z" fill="white"/>
</g>

<g id="mime-sm-sound">
	<rect width="16" height="16" rx="3" fill="#EBEDF3"/>
	<path fill-rule="evenodd" clip-rule="evenodd" d="M7.42932 11.9463C7.57912 12.0651 7.79996 11.9584 7.79996 11.7672V4.23327C7.79996 4.04204 7.57913 3.93535 7.42932 4.05422L4.60009 6.29906L3.22857 6.29905C3.10234 6.29905 3 6.40139 3 6.52763V9.47273C3 9.59897 3.10233 9.7013 3.22857 9.7013L4.60003 9.7013V9.70135L7.42932 11.9463Z" fill="#3A3F4A"/>
	<path fill-rule="evenodd" clip-rule="evenodd" d="M11.9127 8.00567C11.9127 6.16722 10.4258 4.68817 8.59985 4.68817V4C10.8039 4 12.5998 5.78577 12.5998 8.00567C12.5998 10.227 10.8025 12 8.59985 12V11.3118C10.4272 11.3118 11.9127 9.84273 11.9127 8.00567Z" fill="#3A3F4A"/>
	<path fill-rule="evenodd" clip-rule="evenodd" d="M10.0845 8.00002C10.0845 7.18214 9.42171 6.51898 8.59985 6.51898V5.83081C9.79923 5.83081 10.7716 6.80006 10.7716 8.00002C10.7716 9.1972 9.802 10.1806 8.59985 10.1806V9.49239C9.41895 9.49239 10.0845 8.82067 10.0845 8.00002Z" fill="#3A3F4A"/>
</g>

<g id="mime-sm-unknown">
	<rect width="16" height="16" rx="3" fill="#EBEDF3"/>
	<path d="M3.36202 9.14273C3.98441 9.14273 4.4384 8.66678 4.4384 8.05171C4.4384 7.43664 3.98441 6.96069 3.36202 6.96069C2.74695 6.96069 2.28564 7.43664 2.28564 8.05171C2.28564 8.66678 2.74695 9.14273 3.36202 9.14273Z" fill="#3A3F4A"/>
	<path d="M7.99993 9.14273C8.62232 9.14273 9.07631 8.66678 9.07631 8.05171C9.07631 7.43664 8.62232 6.96069 7.99993 6.96069C7.38486 6.96069 6.92356 7.43664 6.92356 8.05171C6.92356 8.66678 7.38486 9.14273 7.99993 9.14273Z" fill="#3A3F4A"/>
	<path d="M12.6378 9.14273C13.2602 9.14273 13.7142 8.66678 13.7142 8.05171C13.7142 7.43664 13.2602 6.96069 12.6378 6.96069C12.0228 6.96069 11.5615 7.43664 11.5615 8.05171C11.5615 8.66678 12.0228 9.14273 12.6378 9.14273Z" fill="#3A3F4A"/>
</g>

<g id="mime-sm-video">
	<rect width="16" height="16" rx="3.42857" fill="#EBEDF3"/>
	<path d="M10.6806 7.31416C11.1557 7.62694 11.1557 8.37281 10.6806 8.68559L6.81557 11.3081C6.31894 11.645 5.71436 11.26 5.71436 10.6104V5.38935C5.71436 4.76378 6.34054 4.37882 6.81557 4.6916L10.6806 7.31416Z" fill="#3A3F4A"/>
</g>

<g id="mime-sm-xls">
	<rect width="16" height="16" rx="3" fill="#3E9856"/>
	<path d="M12.2 5.72627C12.2 5.50826 12.0232 5.33153 11.8052 5.33153H6.121V3.59469C6.121 3.37668 5.94427 3.19995 5.72627 3.19995C5.50826 3.19995 5.33153 3.37668 5.33153 3.59469V5.33153H3.59469C3.37668 5.33153 3.19995 5.50826 3.19995 5.72627C3.19995 5.94427 3.37668 6.121 3.59469 6.121H5.33153V11.8052C5.33153 12.0232 5.50826 12.2 5.72627 12.2C5.94427 12.2 6.121 12.0232 6.121 11.8052V6.121H11.8052C12.0232 6.121 12.2 5.94427 12.2 5.72627Z" fill="white"/>
</g>

<g id="mime-sm-xml">
	<rect width="16" height="16" rx="3" fill="#EBEDF3"/>
	<path fill-rule="evenodd" clip-rule="evenodd" d="M12.671 8.6114C12.8932 8.38921 12.8932 8.02897 12.671 7.80679L12.503 7.63873L10.8449 5.98062C10.6874 5.82312 10.432 5.82312 10.2745 5.98062C10.117 6.13812 10.117 6.39348 10.2745 6.55098L11.9326 8.2091L10.3438 9.79795C10.1863 9.95545 10.1863 10.2108 10.3438 10.3683C10.5013 10.5258 10.7566 10.5258 10.9141 10.3683L12.671 8.6114Z" fill="#3A3F4A"/>
	<path fill-rule="evenodd" clip-rule="evenodd" d="M3.33225 7.73748C3.11007 7.95967 3.11007 8.3199 3.33225 8.54209L3.5003 8.71014L5.15843 10.3683C5.31593 10.5258 5.57129 10.5258 5.72879 10.3683C5.88629 10.2108 5.88629 9.9554 5.72879 9.7979L4.07067 8.13978L5.65952 6.55093C5.81702 6.39343 5.81702 6.13807 5.65952 5.98057C5.50202 5.82307 5.24666 5.82307 5.08916 5.98057L3.33225 7.73748Z" fill="#3A3F4A"/>
	<rect x="8.5968" y="4" width="0.806608" height="8.06608" rx="0.403304" transform="rotate(15 8.5968 4)" fill="#3A3F4A"/>
</g>

<g id="mime-sm-zip">
	<rect width="16" height="16" rx="3" fill="#EBEDF3"/>
	<path d="M8.16333 3.91833H6.53068C6.07983 3.91833 5.71435 4.28382 5.71435 4.73466C5.71435 5.18551 6.07983 5.55099 6.53068 5.55099H8.16333V3.91833Z" fill="#3A3F4A"/>
	<path d="M9.80276 8H6.56492C6.10238 8 5.71692 8.41073 5.71692 8.90361V12.8107C5.71692 13.3036 6.10238 13.7143 6.56492 13.7143H9.76421C10.2268 13.7143 10.6122 13.3036 10.6122 12.8107V8.90361C10.6508 8.36966 10.2653 8 9.80276 8ZM9.79589 12.364C9.79589 12.6515 9.56462 12.898 9.2948 12.898H7.03168C6.76186 12.898 6.53058 12.6515 6.53058 12.364V11.4193C6.53058 11.1318 6.76186 10.8854 7.03168 10.8854H9.2948C9.56462 10.8854 9.79589 11.1318 9.79589 11.4193V12.364Z" fill="#3A3F4A"/>
	<path d="M8.16333 5.55096H9.79598C10.2468 5.55096 10.6123 5.91645 10.6123 6.36729C10.6123 6.81814 10.2468 7.18362 9.79598 7.18362H8.16333V5.55096Z" fill="#3A3F4A"/>
	<path d="M8.16333 2.28577H9.79598C10.2468 2.28577 10.6123 2.65125 10.6123 3.10209C10.6123 3.55294 10.2468 3.91842 9.79598 3.91842H8.16333V2.28577Z" fill="#3A3F4A"/>
</g>

<!--


	viewbox 24X24

	Size = md (Medium)


-->

<g id="mime-md-attachments">
	<rect width="24" height="24" rx="4" fill="#EBEDF3"/>
	<path fill-rule="evenodd" clip-rule="evenodd" d="M16.4166 7.44713C15.0378 6.55924 13.2237 6.76978 12.0848 7.94984L6.84819 13.1865C6.35539 13.665 6.098 14.3361 6.14438 15.0214C6.19806 15.7078 6.54644 16.3374 7.09955 16.7474C7.493 17.0365 7.96864 17.1921 8.45688 17.1915C9.14314 17.1834 9.7989 16.9067 10.2834 16.4206L14.8079 11.8962C15.309 11.348 15.291 10.5027 14.7669 9.97639C14.2428 9.45006 13.3976 9.4284 12.8473 9.9272L10.1282 12.6463C9.96406 12.8104 9.96406 13.0766 10.1282 13.2407C10.2925 13.4051 10.559 13.4049 10.7231 13.2403L13.4338 10.5221C13.6534 10.337 13.9781 10.3509 14.1812 10.5539C14.3842 10.757 14.3981 11.0817 14.213 11.3013L9.69692 15.8258C9.14568 16.3937 8.27223 16.4985 7.60226 16.0771C7.25125 15.8109 7.03173 15.4065 6.99965 14.9671C6.96758 14.5277 7.12606 14.0958 7.43469 13.7814L12.6713 8.54473C13.5272 7.65239 14.8923 7.48438 15.939 8.14255C16.5597 8.56034 16.9621 9.23295 17.0366 9.97747C17.0997 10.7131 16.8362 11.4392 16.316 11.9632L12.1864 16.0772C12.0236 16.2394 12.0224 16.5025 12.1837 16.6661C12.3463 16.831 12.612 16.8321 12.7759 16.6685L16.8942 12.5581C17.59 11.8535 17.9386 10.8773 17.8465 9.89131C17.7543 8.90534 17.2309 8.0106 16.4166 7.44713Z" fill="#3A3F4A"/>
</g>

<g id="mime-md-doc">
	<rect width="24" height="24" rx="4" fill="#6296FE"/>
	<path d="M16.4685 7.19995C16.3194 7.19995 16.19 7.30303 16.1566 7.44843L14.4738 14.7875L12.7113 7.44526C12.6768 7.30139 12.5481 7.19995 12.4002 7.19995H11.6253C11.4782 7.19995 11.35 7.3003 11.3147 7.44316L9.49905 14.7875L7.84276 7.44949C7.80982 7.30358 7.6802 7.19995 7.53061 7.19995H6.80063C6.59537 7.19995 6.44318 7.39047 6.48853 7.59065L8.51831 16.5507C8.55133 16.6964 8.68091 16.8 8.8304 16.8H10.1719C10.3195 16.8 10.4479 16.6991 10.4828 16.5557L12 10.3274L13.4908 16.5545C13.5252 16.6984 13.6539 16.8 13.802 16.8H15.1432C15.2923 16.8 15.4217 16.6969 15.4551 16.5515L17.5102 7.59149C17.5562 7.39108 17.4039 7.19995 17.1983 7.19995H16.4685Z" fill="white"/>
</g>

<g id="mime-md-folder">
	<path d="M1 22H23C23.5523 22 24 21.5523 24 21V6.5C24 5.94772 23.5523 5.5 23 5.5H11.1282C10.8136 5.5 10.5174 5.35202 10.3286 5.10052L8.30002 2.39948C8.11114 2.14798 7.81494 2 7.50041 2H1C0.447715 2 0 2.44772 0 3V21C0 21.5523 0.447716 22 1 22Z" fill="#61BCF5"/>
</g>

<g id="mime-md-image">
	<rect width="24" height="24" rx="4" fill="#EBEDF3"/>
	<path d="M14.0376 10.2741L10.383 14.8629C10.383 14.8799 10.3652 14.8799 10.3475 14.8629L8.32504 12.3986C8.0944 12.1096 7.65088 12.1096 7.42025 12.3986L4.51075 15.9676C4.20916 16.3245 4.47527 16.8514 4.95427 16.8514H8.7863H11.9797H19.2002C19.6082 16.8514 19.8389 16.3925 19.5905 16.0866L14.9601 10.2741C14.7295 9.9852 14.2682 9.9852 14.0376 10.2741Z" fill="#3A3F4A"/>
	<path d="M10.0991 10.6656C11.1573 10.6656 12.0151 9.84386 12.0151 8.83014C12.0151 7.81641 11.1573 6.99463 10.0991 6.99463C9.04093 6.99463 8.18311 7.81641 8.18311 8.83014C8.18311 9.84386 9.04093 10.6656 10.0991 10.6656Z" fill="#3A3F4A"/>
</g>

<g id="mime-md-keynote">
	<rect width="24" height="24" rx="4" fill="#39AFF1"/>
	<path d="M5.59998 7.20003C5.59998 6.7582 5.95815 6.40002 6.39998 6.40002H17.6C18.0418 6.40002 18.4 6.7582 18.4 7.20002V12.8H5.59998V7.20003Z" fill="white"/>
	<path d="M11.2 15.2H12.8V18.4H11.2V15.2Z" fill="white"/>
	<rect x="15.2" y="18.4" width="0.8" height="6.4" rx="0.4" transform="rotate(90 15.2 18.4)" fill="white"/>
	<rect x="18.4" y="13.6" width="0.800001" height="12.8" rx="0.4" transform="rotate(90 18.4 13.6)" fill="white"/>
</g>

<g id="mime-md-numbers">
	<rect width="24" height="24" rx="4" fill="#33C75D"/>
	<rect x="5.59998" y="13.6" width="3.2" height="4.8" rx="0.8" fill="white"/>
	<rect x="10.4" y="5.59998" width="3.2" height="12.8" rx="0.8" fill="white"/>
	<rect x="15.2" y="10.4" width="3.2" height="8" rx="0.8" fill="white"/>
</g>

<g id="mime-md-pages">
	<rect width="24" height="24" rx="4" fill="#FFB23F"/>
	<path d="M15.5655 6.00297L7.78553 13.783C7.67218 13.8963 7.58604 14.0368 7.55506 14.1948L7.12168 15.9338C7.08125 16.1012 7.22633 16.2463 7.40276 16.2149L9.14181 15.7815C9.29066 15.7415 9.44028 15.6644 9.55362 15.5511L17.3336 7.77106C17.5792 7.52548 17.5777 7.14617 17.351 6.91949L16.4171 5.98557C16.1904 5.75889 15.8016 5.76683 15.5655 6.00297Z" fill="white"/>
	<path d="M5.59998 18C5.59998 17.7791 5.77906 17.6 5.99998 17.6H17.2C17.4209 17.6 17.6 17.7791 17.6 18C17.6 18.2209 17.4209 18.4 17.2 18.4H5.99998C5.77906 18.4 5.59998 18.2209 5.59998 18Z" fill="white"/>
</g>

<g id="mime-md-pdf">
	<rect width="24" height="24" rx="4" fill="#E04930"/>
	<path fill-rule="evenodd" clip-rule="evenodd" d="M11.9879 5.92004C10.6399 5.92004 9.74948 7.3489 10.4534 8.53141L11.4378 10.1861L9.20113 14.4273H6.98737C5.97105 14.4273 5.12 15.229 5.12 16.2502C5.12 18.1166 7.59691 18.7475 8.57398 17.2212L9.75275 15.3873H14.2472L15.4263 17.2217C16.4033 18.748 18.88 18.1166 18.88 16.2502C18.88 15.229 18.0289 14.4273 17.0126 14.4273H14.7975L12.5387 10.185L13.5216 8.53284L13.522 8.53207C14.2282 7.35313 13.3274 5.92004 11.9879 5.92004ZM12.0111 9.19417L12.6974 8.04058L12.6982 8.03915C12.9925 7.54833 12.6387 6.88004 11.9879 6.88004C11.3334 6.88004 10.9812 7.54136 11.2784 8.04042L11.9627 9.19074L11.9859 9.14683L12.0111 9.19417ZM13.7099 14.4273L11.99 11.1971L10.2864 14.4273L10.3698 14.4273H13.6302L13.7099 14.4273ZM6.08 16.2502C6.08 15.7884 6.47155 15.3873 6.98737 15.3873H8.61155L7.76532 16.7039C7.27036 17.4775 6.08 17.0928 6.08 16.2502ZM15.3884 15.3873L16.2341 16.703L16.2347 16.7039C16.7296 17.4775 17.92 17.0928 17.92 16.2502C17.92 15.7884 17.5284 15.3873 17.0126 15.3873H15.3884Z" fill="white"/>
</g>

<g id="mime-md-ppt">
	<rect width="24" height="24" rx="4" fill="#EE7930"/>
	<path d="M11.5928 6.41431C8.27273 6.41431 5.59998 9.10794 5.59998 12.4071C5.59998 15.7063 8.27273 18.4 11.5928 18.4C14.892 18.4 17.5856 15.7272 17.5856 12.4071H11.5928V6.41431Z" fill="white"/>
	<path d="M12.4072 5.59998V11.5928H18.4001C18.4001 8.27273 15.7273 5.59998 12.4072 5.59998Z" fill="white"/>

</g>

<g id="mime-md-sound">
	<rect width="24" height="24" rx="4" fill="#EBEDF3"/>
	<path fill-rule="evenodd" clip-rule="evenodd" d="M11.444 17.9193C11.6687 18.0976 12 17.9376 12 17.6508V6.34985C12 6.063 11.6687 5.90297 11.444 6.08126L7.20008 9.4486V9.44867L5.14303 9.44866C4.95367 9.44866 4.80017 9.60217 4.80017 9.79152V14.2092C4.80017 14.3985 4.95367 14.552 5.14303 14.552L7.20016 14.552L11.444 17.9193Z" fill="#3A3F4A"/>
	<path fill-rule="evenodd" clip-rule="evenodd" d="M18.1691 12.0085C18.1691 9.25083 15.9388 7.03225 13.2 7.03225V6C16.506 6 19.1999 8.67865 19.1999 12.0085C19.1999 15.3404 16.5039 18 13.2 18V16.9677C15.9409 16.9677 18.1691 14.7641 18.1691 12.0085Z" fill="#3A3F4A"/>
	<path fill-rule="evenodd" clip-rule="evenodd" d="M15.4269 12C15.4269 10.7732 14.4327 9.77847 13.2 9.77847V8.74622C14.999 8.74622 16.4576 10.2001 16.4576 12C16.4576 13.7958 15.0032 15.2708 13.2 15.2708V14.2386C14.4286 14.2386 15.4269 13.231 15.4269 12Z" fill="#3A3F4A"/>
</g>

<g id="mime-md-unknown">
	<rect width="24" height="24" rx="4" fill="#EBEDF3"/>
	<path d="M7.00854 13.3069C7.75073 13.3069 8.25854 12.7756 8.25854 12.0725C8.25854 11.3616 7.75073 10.8381 7.00854 10.8381C6.27417 10.8381 5.75854 11.3616 5.75854 12.0725C5.75854 12.7756 6.27417 13.3069 7.00854 13.3069Z" fill="#3A3F4A"/>
	<path d="M11.9999 13.3069C12.7421 13.3069 13.2499 12.7756 13.2499 12.0725C13.2499 11.3616 12.7421 10.8381 11.9999 10.8381C11.2655 10.8381 10.7499 11.3616 10.7499 12.0725C10.7499 12.7756 11.2655 13.3069 11.9999 13.3069Z" fill="#3A3F4A"/>
	<path d="M16.9912 13.3069C17.7334 13.3069 18.2412 12.7756 18.2412 12.0725C18.2412 11.3616 17.7334 10.8381 16.9912 10.8381C16.2568 10.8381 15.7412 11.3616 15.7412 12.0725C15.7412 12.7756 16.2568 13.3069 16.9912 13.3069Z" fill="#3A3F4A"/>
</g>

<g id="mime-md-video">
	<rect width="24" height="24" rx="4.36364" fill="#EBEDF3"/>
	<path d="M16.6341 10.8975C17.3904 11.3955 17.3904 12.583 16.6341 13.081L10.4805 17.2563C9.68987 17.7926 8.72729 17.1797 8.72729 16.1455V7.83298C8.72729 6.83701 9.72424 6.22411 10.4805 6.72209L16.6341 10.8975Z" fill="#3A3F4A"/>
</g>

<g id="mime-md-xls">
	<rect width="24" height="24" rx="4" fill="#3E9856"/>
	<path d="M17.6 8.9684C17.6 8.67772 17.3643 8.44208 17.0737 8.44208H9.49471V6.12629C9.49471 5.83562 9.25907 5.59998 8.9684 5.59998C8.67772 5.59998 8.44208 5.83562 8.44208 6.12629V8.44208H6.12629C5.83562 8.44208 5.59998 8.67772 5.59998 8.9684C5.59998 9.25907 5.83562 9.49471 6.12629 9.49471H8.44208V17.0737C8.44208 17.3643 8.67772 17.6 8.9684 17.6C9.25907 17.6 9.49471 17.3643 9.49471 17.0737V9.49471H17.0737C17.3643 9.49471 17.6 9.25907 17.6 8.9684Z" fill="white"/>
</g>

<g id="mime-md-xml">
	<rect width="24" height="24" rx="4" fill="#EBEDF3"/>
	<path fill-rule="evenodd" clip-rule="evenodd" d="M11.444 17.9193C11.6687 18.0976 12 17.9376 12 17.6508V6.34985C12 6.063 11.6687 5.90297 11.444 6.08126L7.20008 9.4486V9.44867L5.14303 9.44866C4.95367 9.44866 4.80017 9.60217 4.80017 9.79152V14.2092C4.80017 14.3985 4.95367 14.552 5.14303 14.552L7.20016 14.552L11.444 17.9193Z" fill="#3A3F4A"/>
	<path fill-rule="evenodd" clip-rule="evenodd" d="M18.1691 12.0085C18.1691 9.25083 15.9388 7.03225 13.2 7.03225V6C16.506 6 19.1999 8.67865 19.1999 12.0085C19.1999 15.3404 16.5039 18 13.2 18V16.9677C15.9409 16.9677 18.1691 14.7641 18.1691 12.0085Z" fill="#3A3F4A"/>
	<path fill-rule="evenodd" clip-rule="evenodd" d="M15.4269 12C15.4269 10.7732 14.4327 9.77847 13.2 9.77847V8.74622C14.999 8.74622 16.4576 10.2001 16.4576 12C16.4576 13.7958 15.0032 15.2708 13.2 15.2708V14.2386C14.4286 14.2386 15.4269 13.231 15.4269 12Z" fill="#3A3F4A"/>
</g>

<g id="mime-md-zip">
	<rect width="24" height="24" rx="4" fill="#EBEDF3"/>
	<path d="M12 7.63635H9.81818C9.21569 7.63635 8.72727 8.12477 8.72727 8.72726C8.72727 9.32975 9.21569 9.81817 9.81818 9.81817H12V7.63635Z" fill="#3A3F4A"/>
	<path d="M12 3.27271H9.81818C9.21569 3.27271 8.72727 3.76112 8.72727 4.36361C8.72727 4.96611 9.21569 5.45452 9.81818 5.45452H12V3.27271Z" fill="#3A3F4A"/>
	<path d="M14.191 13.0909H9.86408C9.24594 13.0909 8.73083 13.6398 8.73083 14.2985V19.5198C8.73083 20.1784 9.24594 20.7273 9.86408 20.7273H14.1395C14.7576 20.7273 15.2727 20.1784 15.2727 19.5198V14.2985C15.3242 13.5849 14.8091 13.0909 14.191 13.0909ZM14.1818 18.9228C14.1818 19.3071 13.8728 19.6364 13.5122 19.6364H10.4878C10.1273 19.6364 9.81819 19.3071 9.81819 18.9228V17.6604C9.81819 17.2762 10.1273 16.9469 10.4878 16.9469H13.5122C13.8728 16.9469 14.1818 17.2762 14.1818 17.6604V18.9228Z" fill="#3A3F4A"/>
	<path d="M12 9.81824H14.1818C14.7843 9.81824 15.2727 10.3067 15.2727 10.9091C15.2727 11.5116 14.7843 12.0001 14.1818 12.0001H12V9.81824Z" fill="#3A3F4A"/>
	<path d="M12 5.45459H14.1818C14.7843 5.45459 15.2727 5.94301 15.2727 6.5455C15.2727 7.14799 14.7843 7.63641 14.1818 7.63641H12V5.45459Z" fill="#3A3F4A"/>
</g>

<!--


	viewbox 48X48

	Size = lg (Large)


-->

<g id="mime-lg-attachments">
	<path fill-rule="evenodd" clip-rule="evenodd" d="M28.3035 4H10C8.89543 4 8 4.89543 8 6V42C8 43.1046 8.89543 44 10 44H38C39.1046 44 40 43.1046 40 42V15.6965L28.3035 4Z" fill="#EBEEF3"/>
	<path fill-rule="evenodd" clip-rule="evenodd" d="M28.3035 4.00004L40 15.6965L30.3035 15.6965C29.1989 15.6965 28.3035 14.8011 28.3035 13.6965L28.3035 4.00004Z" fill="#F8F8F8"/>
	<path fill-rule="evenodd" clip-rule="evenodd" d="M28.3981 24.6379C26.8689 23.6026 24.857 23.8481 23.594 25.2241L17.7865 31.3301C17.2399 31.8881 16.9545 32.6706 17.0059 33.4697C17.0655 34.2701 17.4518 35.0041 18.0652 35.4822C18.5016 35.8193 19.0291 36.0007 19.5706 36C20.3316 35.9906 21.0589 35.6679 21.5962 35.1012L26.614 29.8256C27.1698 29.1864 27.1497 28.2008 26.5685 27.5871C25.9873 26.9734 25.05 26.9481 24.4396 27.5297L21.4076 30.7176C21.2322 30.902 21.2322 31.1916 21.4076 31.376C21.5961 31.5742 21.9121 31.574 22.1003 31.3755L25.0901 28.2234C25.3336 28.0076 25.6937 28.0237 25.9189 28.2605C26.1441 28.4973 26.1595 28.8759 25.9542 29.132L20.9458 34.4076C20.3344 35.0698 19.3658 35.192 18.6228 34.7006C18.2335 34.3902 17.99 33.9187 17.9544 33.4064C17.9189 32.894 18.0946 32.3903 18.4369 32.0238L24.2445 25.9177C25.1937 24.8773 26.7076 24.6814 27.8684 25.4488C28.5568 25.936 29.003 26.7202 29.0857 27.5884C29.1557 28.4461 28.8634 29.2928 28.2866 29.9038L23.6904 34.7178C23.5164 34.9 23.5151 35.1863 23.6874 35.3701C23.8738 35.5689 24.189 35.5701 24.377 35.3728L28.9277 30.5974C29.6994 29.7758 30.086 28.6375 29.9839 27.4879C29.8817 26.3382 29.3012 25.2949 28.3981 24.6379Z" fill="#3A3F4A"/>
</g>

<g id="mime-lg-doc">
	<path fill-rule="evenodd" clip-rule="evenodd" d="M28.3035 4H10C8.89543 4 8 4.89543 8 6V42C8 43.1046 8.89543 44 10 44H38C39.1046 44 40 43.1046 40 42V15.6965L28.3035 4Z" fill="#6296FE"/>
	<path fill-rule="evenodd" clip-rule="evenodd" d="M28.3035 4.00004L40 15.6965L30.3035 15.6965C29.1989 15.6965 28.3035 14.8011 28.3035 13.6965L28.3035 4.00004Z" fill="#93BEFF"/>
	<path d="M29.5857 22C29.3992 22 29.2374 22.1288 29.1958 22.3106L27.0922 31.4844L24.8891 22.3066C24.846 22.1268 24.6851 22 24.5002 22H23.5316C23.3477 22 23.1874 22.1254 23.1433 22.304L20.8738 31.4844L18.8034 22.3119C18.7622 22.1295 18.6002 22 18.4132 22H17.5008C17.2442 22 17.0539 22.2381 17.1106 22.4884L19.6479 33.6884C19.6891 33.8706 19.8511 34 20.038 34H21.7149C21.8993 34 22.0598 33.8739 22.1035 33.6947L24 25.9093L25.8634 33.6931C25.9065 33.8731 26.0674 34 26.2524 34H27.9289C28.1154 34 28.2771 33.8712 28.3188 33.6894L30.8877 22.4894C30.9452 22.2389 30.7549 22 30.4979 22H29.5857Z" fill="white"/>
</g>

<g id="mime-lg-folder">
	<path d="M3 44H45C46.1046 44 47 43.1046 47 42V13C47 11.8954 46.1046 11 45 11H23.2563C22.6273 11 22.0349 10.704 21.6571 10.201L17.6 4.79896C17.2223 4.29596 16.6299 4 16.0008 4H3C1.89543 4 1 4.89543 1 6V42C1 43.1046 1.89543 44 3 44Z" fill="#61BCF5"/>
</g>

<g id="mime-lg-image">
	<path fill-rule="evenodd" clip-rule="evenodd" d="M28.3035 4H10C8.89543 4 8 4.89543 8 6V42C8 43.1046 8.89543 44 10 44H38C39.1046 44 40 43.1046 40 42V15.6965L28.3035 4Z" fill="#EBEDF3"/>
	<path fill-rule="evenodd" clip-rule="evenodd" d="M28.3035 3.99998L40 15.6965L30.3035 15.6965C29.1989 15.6965 28.3035 14.801 28.3035 13.6965L28.3035 3.99998Z" fill="#F8F8F8"/>
	<path d="M27.0348 26.2587L22.4883 32.2177C22.4883 32.2398 22.4662 32.2398 22.4441 32.2177L19.9281 29.0175C19.6412 28.6423 19.0894 28.6423 18.8025 29.0175L15.1829 33.6523C14.8077 34.1158 15.1388 34.8 15.7347 34.8H20.5019H24.4746H33.4573C33.9649 34.8 34.2518 34.2041 33.9428 33.8068L28.1824 26.2587C27.8955 25.8835 27.3217 25.8835 27.0348 26.2587Z" fill="#3A3F4A"/>
	<path d="M22.1352 26.7672C23.4516 26.7672 24.5188 25.7 24.5188 24.3836C24.5188 23.0672 23.4516 22 22.1352 22C20.8188 22 19.7516 23.0672 19.7516 24.3836C19.7516 25.7 20.8188 26.7672 22.1352 26.7672Z" fill="#3A3F4A"/>
</g>

<g id="mime-lg-keynote">
	<path fill-rule="evenodd" clip-rule="evenodd" d="M28.4239 4H10.1204C9.01579 4 8.12036 4.89543 8.12036 6V42C8.12036 43.1046 9.01579 44 10.1204 44H38.1204C39.2249 44 40.1204 43.1046 40.1204 42V15.6965L28.4239 4Z" fill="#39AFF1"/>
	<path fill-rule="evenodd" clip-rule="evenodd" d="M28.4239 4.00004L40.1204 15.6965L30.4239 15.6965C29.3193 15.6965 28.4239 14.8011 28.4239 13.6965L28.4239 4.00004Z" fill="#7BD4FA"/>
	<path d="M16.1204 22C16.1204 21.4477 16.5681 21 17.1204 21H31.1204C31.6726 21 32.1204 21.4477 32.1204 22V29H16.1204V22Z" fill="white"/>
	<path d="M23.1204 32H25.1204V36H23.1204V32Z" fill="white"/>
	<rect x="28.1204" y="36" width="1" height="8" rx="0.5" transform="rotate(90 28.1204 36)" fill="white"/>
	<rect x="32.1204" y="30" width="1" height="16" rx="0.5" transform="rotate(90 32.1204 30)" fill="white"/>
</g>

<g id="mime-lg-numbers">
	<path fill-rule="evenodd" clip-rule="evenodd" d="M28.4239 4H10.1204C9.01579 4 8.12036 4.89543 8.12036 6V42C8.12036 43.1046 9.01579 44 10.1204 44H38.1204C39.2249 44 40.1204 43.1046 40.1204 42V15.6965L28.4239 4Z" fill="#33C75D"/>
	<path fill-rule="evenodd" clip-rule="evenodd" d="M28.4239 4.00004L40.1204 15.6965L30.4239 15.6965C29.3193 15.6965 28.4239 14.8011 28.4239 13.6965L28.4239 4.00004Z" fill="#89E7AF"/>
	<rect x="16.1204" y="30" width="4" height="6" rx="1" fill="white"/>
	<rect x="22.1204" y="20" width="4" height="16" rx="1" fill="white"/>
	<rect x="28.1204" y="26" width="4" height="10" rx="1" fill="white"/>
</g>

<g id="mime-lg-pages">
	<path fill-rule="evenodd" clip-rule="evenodd" d="M28.3035 4H10C8.89543 4 8 4.89543 8 6V42C8 43.1046 8.89543 44 10 44H38C39.1046 44 40 43.1046 40 42V15.6965L28.3035 4Z" fill="#FFB23F"/>
	<path fill-rule="evenodd" clip-rule="evenodd" d="M28.3035 4.00004L40 15.6965L30.3035 15.6965C29.1989 15.6965 28.3035 14.8011 28.3035 13.6965L28.3035 4.00004Z" fill="#FFDD66"/>
	<path d="M28.4569 20.5037L18.7319 30.2287C18.5902 30.3703 18.4825 30.546 18.4438 30.7434L17.9021 32.9172C17.8516 33.1264 18.0329 33.3078 18.2535 33.2686L20.4273 32.7269C20.6133 32.6768 20.8003 32.5805 20.942 32.4388L30.667 22.7138C30.974 22.4068 30.9721 21.9327 30.6888 21.6493L29.5214 20.4819C29.238 20.1986 28.7521 20.2085 28.4569 20.5037Z" fill="white"/>
	<path d="M16 35.5C16 35.2239 16.2239 35 16.5 35H30.5C30.7761 35 31 35.2239 31 35.5C31 35.7761 30.7761 36 30.5 36H16.5C16.2239 36 16 35.7761 16 35.5Z" fill="white"/>
</g>

<g id="mime-lg-pdf">
	<path fill-rule="evenodd" clip-rule="evenodd" d="M28.3035 4H10C8.89543 4 8 4.89543 8 6V42C8 43.1046 8.89543 44 10 44H38C39.1046 44 40 43.1046 40 42V15.6965L28.3035 4Z" fill="#E04930"/>
	<path fill-rule="evenodd" clip-rule="evenodd" d="M28.3035 4.00004L40 15.6965L30.3035 15.6965C29.1989 15.6965 28.3035 14.8011 28.3035 13.6965L28.3035 4.00004Z" fill="#FF917E"/>
	<path fill-rule="evenodd" clip-rule="evenodd" d="M23.9849 20.4C22.2999 20.4 21.1869 22.1861 22.0668 23.6642L23.2973 25.7326L20.5015 31.034H17.7342C16.4638 31.034 15.4 32.0362 15.4 33.3127C15.4 35.6457 18.4962 36.4343 19.7175 34.5265L21.191 32.234H26.8091L28.2829 34.527C29.5042 36.4349 32.6 35.6457 32.6 33.3127C32.6 32.0362 31.5362 31.034 30.2658 31.034H27.497L24.6734 25.7312L25.902 23.666L25.9026 23.6651C26.7852 22.1914 25.6593 20.4 23.9849 20.4ZM24.0139 24.4927L24.8717 23.0507L24.8728 23.0489C25.2407 22.4354 24.7985 21.6 23.9849 21.6C23.1667 21.6 22.7266 22.4267 23.098 23.0505L23.9534 24.4884L23.9824 24.4335L24.0139 24.4927ZM26.1375 31.034L23.9875 26.9963L21.8581 31.034L21.9623 31.034H26.0378L26.1375 31.034ZM16.6 33.3127C16.6 32.7354 17.0895 32.234 17.7342 32.234H19.7645L18.7067 33.8798C18.088 34.8468 16.6 34.366 16.6 33.3127ZM28.2356 32.234L29.2927 33.8787L29.2934 33.8798C29.9121 34.8468 31.4 34.366 31.4 33.3127C31.4 32.7354 30.9106 32.234 30.2658 32.234H28.2356Z" fill="white"/>
</g>

<g id="mime-lg-ppt">
	<path fill-rule="evenodd" clip-rule="evenodd" d="M28.3035 4H10C8.89543 4 8 4.89543 8 6V42C8 43.1046 8.89543 44 10 44H38C39.1046 44 40 43.1046 40 42V15.6965L28.3035 4Z" fill="#EE7930"/>
	<path fill-rule="evenodd" clip-rule="evenodd" d="M28.3035 4.00004L40 15.6965L30.3035 15.6965C29.1989 15.6965 28.3035 14.8011 28.3035 13.6965L28.3035 4.00004Z" fill="#F8BE4E"/>
	<path d="M23.491 21.0179C19.3409 21.0179 16 24.385 16 28.509C16 32.633 19.3409 36 23.491 36C27.615 36 30.9821 32.6591 30.9821 28.509H23.491V21.0179Z" fill="white"/>
	<path d="M24.509 20V27.491H32.0001C32.0001 23.3409 28.6591 20 24.509 20Z" fill="white"/>
</g>

<g id="mime-lg-sound">
	<path fill-rule="evenodd" clip-rule="evenodd" d="M28.3035 4H10C8.89543 4 8 4.89543 8 6V42C8 43.1046 8.89543 44 10 44H38C39.1046 44 40 43.1046 40 42V15.6965L28.3035 4Z" fill="#EBEDF3"/>
	<path fill-rule="evenodd" clip-rule="evenodd" d="M28.3035 4.00004L40 15.6965L30.3035 15.6965C29.1989 15.6965 28.3035 14.8011 28.3035 13.6965L28.3035 4.00004Z" fill="#F8F8F8"/>
	<path fill-rule="evenodd" clip-rule="evenodd" d="M23.3536 34.915C23.6162 35.1204 24 34.9333 24 34.5999V21.4007C24 21.0674 23.6162 20.8803 23.3536 21.0857L18.3185 25.0234H15.4C15.1791 25.0234 15 25.2024 15 25.4234V30.5773C15 30.7982 15.1791 30.9773 15.4 30.9773H18.3185V30.9773L23.3536 34.915Z" fill="#3A3F4A"/>
	<path fill-rule="evenodd" clip-rule="evenodd" d="M31.7974 28.0099C31.7974 24.7926 29.1953 22.2043 26 22.2043V21C29.8571 21 33 24.1251 33 28.0099C33 31.8972 29.8546 35 26 35V33.7957C29.1978 33.7957 31.7974 31.2248 31.7974 28.0099Z" fill="#3A3F4A"/>
	<path fill-rule="evenodd" clip-rule="evenodd" d="M28.598 28C28.598 26.5687 27.4383 25.4082 26 25.4082V24.2039C28.0989 24.2039 29.8006 25.9 29.8006 28C29.8006 30.095 28.1038 31.8159 26 31.8159V30.6116C27.4334 30.6116 28.598 29.4361 28.598 28Z" fill="#3A3F4A"/>
</g>

<g id="mime-lg-unknown">
	<path fill-rule="evenodd" clip-rule="evenodd" d="M28.3035 4H10C8.89543 4 8 4.89543 8 6V42C8 43.1046 8.89543 44 10 44H38C39.1046 44 40 43.1046 40 42V15.6965L28.3035 4Z" fill="#EBEEF3"/>
	<path fill-rule="evenodd" clip-rule="evenodd" d="M28.3035 3.99998L40 15.6965L30.3035 15.6965C29.1989 15.6965 28.3035 14.801 28.3035 13.6965L28.3035 3.99998Z" fill="#F8F8F8"/>
	<path d="M18.4999 34.2241C19.3964 34.2241 19.9691 33.6182 19.9691 32.7798C19.9691 31.9414 19.3964 31.3438 18.4999 31.3438C17.6117 31.3438 17.0306 31.9414 17.0306 32.7798C17.0306 33.6182 17.6117 34.2241 18.4999 34.2241Z" fill="#3A3F4A"/>
	<path d="M24 34.2241C24.8965 34.2241 25.4693 33.6182 25.4693 32.7798C25.4693 31.9414 24.8965 31.3438 24 31.3438C23.1119 31.3438 22.5308 31.9414 22.5308 32.7798C22.5308 33.6182 23.1119 34.2241 24 34.2241Z" fill="#3A3F4A"/>
	<path d="M29.5002 34.2241C30.3967 34.2241 30.9694 33.6182 30.9694 32.7798C30.9694 31.9414 30.3967 31.3438 29.5002 31.3438C28.612 31.3438 28.031 31.9414 28.031 32.7798C28.031 33.6182 28.612 34.2241 29.5002 34.2241Z" fill="#3A3F4A"/>
</g>

<g id="mime-lg-video">
	<path fill-rule="evenodd" clip-rule="evenodd" d="M28.3035 4H10C8.89543 4 8 4.89543 8 6V42C8 43.1046 8.89543 44 10 44H38C39.1046 44 40 43.1046 40 42V15.6965L28.3035 4Z" fill="#EBEDF3"/>
	<path fill-rule="evenodd" clip-rule="evenodd" d="M28.3035 3.99998L40 15.6965L30.3035 15.6965C29.1989 15.6965 28.3035 14.801 28.3035 13.6965L28.3035 3.99998Z" fill="#F8F8F8"/>
	<path d="M29.2429 28.2C30.2227 28.7929 30.2227 30.207 29.2429 30.8L21.2713 35.7719C20.247 36.4105 19 35.6807 19 34.4491V24.5508C19 23.3649 20.2915 22.635 21.2713 23.228L29.2429 28.2Z" fill="#3A3F4A"/>
</g>

<g id="mime-lg-xls">
	<path fill-rule="evenodd" clip-rule="evenodd" d="M28.3035 4H10C8.89543 4 8 4.89543 8 6V42C8 43.1046 8.89543 44 10 44H38C39.1046 44 40 43.1046 40 42V15.6965L28.3035 4Z" fill="#3E9856"/>
	<path fill-rule="evenodd" clip-rule="evenodd" d="M28.3035 4.00004L40 15.6965L30.3035 15.6965C29.1989 15.6965 28.3035 14.8011 28.3035 13.6965L28.3035 4.00004Z" fill="#89DAAC"/>
	<path d="M31 24.2105C31 23.8472 30.7055 23.5526 30.3421 23.5526H20.8684V20.6579C20.8684 20.2945 20.5739 20 20.2105 20C19.8472 20 19.5526 20.2945 19.5526 20.6579V23.5526H16.6579C16.2945 23.5526 16 23.8472 16 24.2105C16 24.5739 16.2945 24.8684 16.6579 24.8684H19.5526V34.3421C19.5526 34.7055 19.8472 35 20.2105 35C20.5739 35 20.8684 34.7055 20.8684 34.3421V24.8684H30.3421C30.7055 24.8684 31 24.5739 31 24.2105Z" fill="white"/>
</g>

<g id="mime-lg-xml">
	<path fill-rule="evenodd" clip-rule="evenodd" d="M28.3035 4H10C8.89543 4 8 4.89543 8 6V42C8 43.1046 8.89543 44 10 44H38C39.1046 44 40 43.1046 40 42V15.6965L28.3035 4Z" fill="#EBEDF3"/>
	<path fill-rule="evenodd" clip-rule="evenodd" d="M28.3035 4.00004L40 15.6965L30.3035 15.6965C29.1989 15.6965 28.3035 14.8011 28.3035 13.6965L28.3035 4.00004Z" fill="#F8F8F8"/>
	<path fill-rule="evenodd" clip-rule="evenodd" d="M32.0984 29.0126C32.4889 28.6221 32.4889 27.9889 32.0984 27.5984L31.8155 27.3155L28.9376 24.4376C28.6642 24.1642 28.221 24.1642 27.9476 24.4376C27.6743 24.711 27.6743 25.1542 27.9476 25.4276L30.8256 28.3055L28.0679 31.0632C27.7945 31.3366 27.7945 31.7798 28.0679 32.0532C28.3412 32.3265 28.7845 32.3265 29.0578 32.0532L32.0984 29.0126Z" fill="#3A3F4A"/>
	<path fill-rule="evenodd" clip-rule="evenodd" d="M15.9071 27.4782C15.5166 27.8688 15.5166 28.5019 15.9071 28.8925L16.19 29.1753L19.0679 32.0532C19.3413 32.3266 19.7845 32.3266 20.0579 32.0532C20.3312 31.7799 20.3312 31.3366 20.0579 31.0633L17.1799 28.1853L19.9376 25.4276C20.211 25.1543 20.211 24.7111 19.9376 24.4377C19.6643 24.1643 19.221 24.1643 18.9477 24.4377L15.9071 27.4782Z" fill="#3A3F4A"/>
	<rect x="25.0355" y="21" width="1.4" height="14" rx="0.7" transform="rotate(15 25.0355 21)" fill="#3A3F4A"/>
</g>

<g id="mime-lg-zip">
	<path fill-rule="evenodd" clip-rule="evenodd" d="M28.3035 4H10C8.89543 4 8 4.89543 8 6V42C8 43.1046 8.89543 44 10 44H38C39.1046 44 40 43.1046 40 42V15.6965L28.3035 4Z" fill="#EBEDF3"/>
	<path fill-rule="evenodd" clip-rule="evenodd" d="M28.3035 3.99998L40 15.6965L30.3035 15.6965C29.1989 15.6965 28.3035 14.801 28.3035 13.6965L28.3035 3.99998Z" fill="#F8F8F8"/>
	<path d="M24 23H22C21.4477 23 21 23.4477 21 24C21 24.5523 21.4477 25 22 25H24V23Z" fill="#3A3F4A"/>
	<path d="M24 19H22C21.4477 19 21 19.4477 21 20C21 20.5523 21.4477 21 22 21H24V19Z" fill="#3A3F4A"/>
	<path d="M24 15H22C21.4477 15 21 15.4477 21 16C21 16.5523 21.4477 17 22 17H24V15Z" fill="#3A3F4A"/>
	<path d="M26.0084 29H22.0421C21.4755 29 21.0033 29.5031 21.0033 30.1069V35.8931C21.0033 36.4969 21.4755 37 22.0421 37H25.9612C26.5278 37 27 36.4969 27 35.8931V30.1069C27.0472 29.4528 26.5751 29 26.0084 29ZM26 35.3459C26 35.6981 25.7167 36 25.3862 36H22.6139C22.2833 36 22 35.6981 22 35.3459V34.1887C22 33.8365 22.2833 33.5346 22.6139 33.5346H25.3862C25.7167 33.5346 26 33.8365 26 34.1887V35.3459Z" fill="#3A3F4A"/>
	<path d="M24 25H26C26.5523 25 27 25.4477 27 26C27 26.5523 26.5523 27 26 27H24V25Z" fill="#3A3F4A"/>
	<path d="M24 21H26C26.5523 21 27 21.4477 27 22C27 22.5523 26.5523 23 26 23H24V21Z" fill="#3A3F4A"/>
	<path d="M24 17H26C26.5523 17 27 17.4477 27 18C27 18.5523 26.5523 19 26 19H24V17Z" fill="#3A3F4A"/>
</g>

</defs>
</svg>
