<svg class="proton-hidden">
    <g id="ic-exclamation-circle-filled">
        <path
            fill-rule="evenodd"
            d="M8 15A7 7 0 1 0 8 1a7 7 0 0 0 0 14ZM8 4a.941.941 0 0 1 .934 1.058l-.438 3.504a.5.5 0 0 1-.992 0l-.438-3.504A.941.941 0 0 1 8 4Zm0 7.4A.7.7 0 1 0 8 10a.7.7 0 0 0 0 1.4Z"
        />
    </g>
    <g id="ic-chevron-down-filled">
        <path
            d="M7.627 9.846 4.502 6.72A.422.422 0 0 1 4.8 6h6.4c.376 0 .564.454.298.72L8.373 9.846a.527.527 0 0 1-.746 0Z"
        />
    </g>
    <g id="ic-checkmark-circle">
        <path fill-rule="evenodd" d="M8 14A6 6 0 1 0 8 2a6 6 0 0 0 0 12Zm0 1A7 7 0 1 0 8 1a7 7 0 0 0 0 14Z" />
        <path
            fill-rule="evenodd"
            d="M11.854 6.146a.5.5 0 0 1 0 .708l-3.859 3.858a.7.7 0 0 1-.99 0L4.646 8.354a.5.5 0 1 1 .708-.708L7.5 9.793l3.646-3.647a.5.5 0 0 1 .708 0Z"
        />
    </g>
</svg>
