<svg width="392" height="220" viewBox="0 0 392 220" fill="none" xmlns="http://www.w3.org/2000/svg">
    <g clip-path="url(#clip0_3004_50218)">
        <rect width="392" height="220" rx="12" fill="white" />
        <rect width="392" height="220" rx="12" fill="url(#paint0_linear_3004_50218)" fill-opacity="0.08" />
        <g filter="url(#filter0_ddd_3004_50218)">
            <g clip-path="url(#clip1_3004_50218)">
                <path d="M57 29H392V208C392 214.627 386.627 220 380 220H57V29Z" fill="white" />
                <rect x="57" y="29" width="335" height="192" fill="white" />
                <path
                    d="M105 140C105 133.373 110.373 128 117 128H393V209C393 215.627 387.627 221 381 221H105V140Z"
                    fill="#6D4AFF"
                    fill-opacity="0.03"
                />
                <path
                    d="M105.5 140C105.5 133.649 110.649 128.5 117 128.5H392.5V209C392.5 215.351 387.351 220.5 381 220.5H105.5V140Z"
                    stroke="#6D4AFF"
                    stroke-opacity="0.1"
                />
                <path
                    d="M123 177C123 170.373 128.373 165 135 165H393V209C393 215.627 387.627 221 381 221H123V177Z"
                    fill="white"
                />
                <path
                    d="M123.5 177C123.5 170.649 128.649 165.5 135 165.5H392.5V209C392.5 215.351 387.351 220.5 381 220.5H123.5V177Z"
                    stroke="#6D4AFF"
                    stroke-opacity="0.2"
                />
                <path
                    d="M123.732 155V147.842H126.774C127.539 147.842 128.094 147.907 128.439 148.037C128.788 148.164 129.066 148.392 129.274 148.721C129.483 149.049 129.587 149.425 129.587 149.849C129.587 150.386 129.429 150.83 129.113 151.182C128.798 151.53 128.326 151.75 127.697 151.841C128.01 152.023 128.267 152.223 128.469 152.441C128.674 152.66 128.949 153.047 129.294 153.604L130.168 155H128.439L127.395 153.442C127.023 152.886 126.77 152.536 126.633 152.393C126.496 152.246 126.351 152.147 126.198 152.095C126.045 152.039 125.803 152.012 125.471 152.012H125.178V155H123.732ZM125.178 150.869H126.247C126.94 150.869 127.373 150.84 127.546 150.781C127.718 150.723 127.854 150.622 127.951 150.479C128.049 150.335 128.098 150.156 128.098 149.941C128.098 149.701 128.033 149.507 127.902 149.36C127.775 149.211 127.595 149.116 127.36 149.077C127.243 149.061 126.892 149.053 126.306 149.053H125.178V150.869ZM134.107 153.35L135.474 153.579C135.299 154.08 135.02 154.463 134.639 154.727C134.262 154.987 133.788 155.117 133.219 155.117C132.317 155.117 131.65 154.823 131.217 154.233C130.875 153.761 130.704 153.166 130.704 152.446C130.704 151.587 130.929 150.915 131.378 150.43C131.827 149.941 132.395 149.697 133.082 149.697C133.853 149.697 134.462 149.953 134.908 150.464C135.354 150.972 135.567 151.751 135.548 152.803H132.11C132.12 153.21 132.231 153.527 132.442 153.755C132.654 153.979 132.917 154.092 133.233 154.092C133.448 154.092 133.629 154.033 133.775 153.916C133.922 153.799 134.032 153.61 134.107 153.35ZM134.185 151.963C134.176 151.566 134.073 151.265 133.878 151.06C133.682 150.851 133.445 150.747 133.165 150.747C132.865 150.747 132.618 150.856 132.423 151.074C132.227 151.292 132.131 151.589 132.135 151.963H134.185ZM141.352 151.348L140 151.592C139.954 151.322 139.85 151.118 139.687 150.981C139.528 150.845 139.319 150.776 139.062 150.776C138.72 150.776 138.447 150.895 138.242 151.133C138.04 151.367 137.939 151.761 137.939 152.314C137.939 152.93 138.042 153.364 138.247 153.618C138.455 153.872 138.733 153.999 139.082 153.999C139.342 153.999 139.555 153.926 139.721 153.779C139.887 153.63 140.005 153.374 140.073 153.013L141.421 153.242C141.281 153.861 141.012 154.328 140.615 154.644C140.218 154.959 139.686 155.117 139.018 155.117C138.26 155.117 137.654 154.878 137.202 154.399C136.753 153.921 136.528 153.258 136.528 152.412C136.528 151.556 136.754 150.89 137.207 150.415C137.659 149.937 138.271 149.697 139.043 149.697C139.674 149.697 140.175 149.834 140.547 150.107C140.921 150.378 141.189 150.791 141.352 151.348ZM142.24 152.334C142.24 151.878 142.352 151.437 142.577 151.011C142.801 150.584 143.119 150.259 143.529 150.034C143.942 149.81 144.403 149.697 144.911 149.697C145.695 149.697 146.338 149.953 146.839 150.464C147.341 150.972 147.591 151.615 147.591 152.393C147.591 153.177 147.337 153.828 146.83 154.346C146.325 154.86 145.689 155.117 144.92 155.117C144.445 155.117 143.991 155.01 143.558 154.795C143.128 154.58 142.801 154.266 142.577 153.853C142.352 153.436 142.24 152.93 142.24 152.334ZM143.646 152.407C143.646 152.922 143.768 153.315 144.012 153.589C144.256 153.862 144.557 153.999 144.916 153.999C145.274 153.999 145.573 153.862 145.814 153.589C146.058 153.315 146.18 152.918 146.18 152.397C146.18 151.89 146.058 151.499 145.814 151.226C145.573 150.952 145.274 150.815 144.916 150.815C144.557 150.815 144.256 150.952 144.012 151.226C143.768 151.499 143.646 151.893 143.646 152.407ZM150.256 155L148.166 149.814H149.607L150.583 152.461L150.867 153.345C150.941 153.12 150.989 152.972 151.008 152.9C151.054 152.754 151.103 152.607 151.155 152.461L152.141 149.814H153.552L151.492 155H150.256ZM157.56 153.35L158.927 153.579C158.751 154.08 158.473 154.463 158.092 154.727C157.714 154.987 157.241 155.117 156.671 155.117C155.769 155.117 155.102 154.823 154.669 154.233C154.327 153.761 154.156 153.166 154.156 152.446C154.156 151.587 154.381 150.915 154.83 150.43C155.279 149.941 155.848 149.697 156.534 149.697C157.306 149.697 157.915 149.953 158.361 150.464C158.807 150.972 159.02 151.751 159 152.803H155.563C155.572 153.21 155.683 153.527 155.895 153.755C156.106 153.979 156.37 154.092 156.686 154.092C156.901 154.092 157.081 154.033 157.228 153.916C157.374 153.799 157.485 153.61 157.56 153.35ZM157.638 151.963C157.628 151.566 157.526 151.265 157.33 151.06C157.135 150.851 156.897 150.747 156.617 150.747C156.318 150.747 156.071 150.856 155.875 151.074C155.68 151.292 155.584 151.589 155.587 151.963H157.638ZM161.597 155H160.225V149.814H161.499V150.552C161.717 150.203 161.912 149.974 162.085 149.863C162.261 149.753 162.459 149.697 162.681 149.697C162.993 149.697 163.294 149.784 163.584 149.956L163.159 151.152C162.928 151.003 162.713 150.928 162.515 150.928C162.323 150.928 162.16 150.981 162.026 151.089C161.893 151.193 161.787 151.383 161.709 151.66C161.634 151.937 161.597 152.516 161.597 153.398V155ZM163.69 149.814H165.15L166.391 153.496L167.601 149.814H169.022L167.191 154.805L166.864 155.708C166.744 156.011 166.628 156.242 166.517 156.401C166.41 156.561 166.285 156.689 166.141 156.787C166.002 156.888 165.827 156.966 165.619 157.021C165.414 157.077 165.181 157.104 164.921 157.104C164.657 157.104 164.398 157.077 164.144 157.021L164.022 155.947C164.237 155.99 164.431 156.011 164.603 156.011C164.922 156.011 165.158 155.916 165.311 155.728C165.464 155.542 165.582 155.304 165.663 155.015L163.69 149.814ZM172.97 149.814H174.25V150.576C174.416 150.316 174.64 150.104 174.923 149.941C175.207 149.779 175.521 149.697 175.866 149.697C176.468 149.697 176.979 149.933 177.399 150.405C177.819 150.877 178.029 151.535 178.029 152.378C178.029 153.244 177.817 153.918 177.394 154.399C176.971 154.878 176.458 155.117 175.856 155.117C175.57 155.117 175.309 155.06 175.075 154.946C174.844 154.832 174.6 154.637 174.342 154.36V156.973H172.97V149.814ZM174.328 152.319C174.328 152.902 174.443 153.333 174.674 153.613C174.905 153.89 175.187 154.028 175.519 154.028C175.838 154.028 176.103 153.901 176.315 153.647C176.527 153.39 176.632 152.97 176.632 152.388C176.632 151.844 176.523 151.44 176.305 151.177C176.087 150.913 175.817 150.781 175.495 150.781C175.159 150.781 174.881 150.911 174.66 151.172C174.438 151.429 174.328 151.812 174.328 152.319ZM180.65 147.842V150.474C181.093 149.956 181.621 149.697 182.237 149.697C182.552 149.697 182.837 149.756 183.091 149.873C183.345 149.99 183.536 150.14 183.662 150.322C183.793 150.505 183.881 150.706 183.926 150.928C183.975 151.149 183.999 151.493 183.999 151.958V155H182.627V152.261C182.627 151.717 182.601 151.372 182.549 151.226C182.497 151.079 182.404 150.964 182.271 150.879C182.141 150.791 181.976 150.747 181.778 150.747C181.55 150.747 181.346 150.802 181.167 150.913C180.988 151.024 180.857 151.191 180.772 151.416C180.69 151.637 180.65 151.966 180.65 152.402V155H179.278V147.842H180.65ZM186.869 155H185.497V149.814H186.772V150.552C186.99 150.203 187.185 149.974 187.358 149.863C187.533 149.753 187.732 149.697 187.953 149.697C188.266 149.697 188.567 149.784 188.857 149.956L188.432 151.152C188.201 151.003 187.986 150.928 187.787 150.928C187.595 150.928 187.433 150.981 187.299 151.089C187.166 151.193 187.06 151.383 186.982 151.66C186.907 151.937 186.869 152.516 186.869 153.398V155ZM190.638 151.396L189.393 151.172C189.533 150.671 189.774 150.299 190.115 150.059C190.457 149.818 190.965 149.697 191.639 149.697C192.251 149.697 192.706 149.771 193.006 149.917C193.305 150.06 193.515 150.244 193.636 150.469C193.76 150.69 193.821 151.099 193.821 151.694L193.807 153.296C193.807 153.752 193.828 154.089 193.87 154.307C193.916 154.521 193.999 154.753 194.119 155H192.762C192.726 154.909 192.682 154.774 192.63 154.595C192.607 154.513 192.591 154.46 192.581 154.434C192.347 154.661 192.096 154.832 191.829 154.946C191.562 155.06 191.277 155.117 190.975 155.117C190.441 155.117 190.019 154.972 189.71 154.683C189.404 154.393 189.251 154.027 189.251 153.584C189.251 153.291 189.321 153.031 189.461 152.803C189.601 152.572 189.796 152.396 190.047 152.275C190.301 152.152 190.665 152.044 191.141 151.953C191.782 151.833 192.226 151.72 192.474 151.616V151.479C192.474 151.216 192.409 151.029 192.278 150.918C192.148 150.804 191.902 150.747 191.541 150.747C191.297 150.747 191.107 150.796 190.97 150.894C190.833 150.988 190.722 151.156 190.638 151.396ZM192.474 152.51C192.298 152.568 192.02 152.638 191.639 152.72C191.258 152.801 191.009 152.881 190.892 152.959C190.713 153.086 190.623 153.247 190.623 153.442C190.623 153.634 190.695 153.8 190.838 153.94C190.981 154.08 191.163 154.15 191.385 154.15C191.632 154.15 191.868 154.069 192.093 153.906C192.259 153.783 192.368 153.631 192.42 153.452C192.456 153.335 192.474 153.112 192.474 152.783V152.51ZM194.855 153.521L196.232 153.311C196.291 153.577 196.41 153.781 196.589 153.921C196.768 154.058 197.018 154.126 197.341 154.126C197.696 154.126 197.962 154.061 198.142 153.931C198.262 153.84 198.322 153.717 198.322 153.564C198.322 153.46 198.29 153.374 198.225 153.306C198.156 153.241 198.003 153.18 197.766 153.125C196.659 152.881 195.957 152.658 195.661 152.456C195.251 152.176 195.046 151.787 195.046 151.289C195.046 150.84 195.223 150.462 195.578 150.156C195.933 149.85 196.483 149.697 197.228 149.697C197.938 149.697 198.465 149.813 198.81 150.044C199.156 150.275 199.393 150.617 199.523 151.069L198.229 151.309C198.174 151.107 198.068 150.952 197.912 150.845C197.759 150.737 197.539 150.684 197.253 150.684C196.892 150.684 196.633 150.734 196.476 150.835C196.372 150.907 196.32 150.999 196.32 151.113C196.32 151.211 196.366 151.294 196.457 151.362C196.581 151.453 197.007 151.582 197.736 151.748C198.469 151.914 198.98 152.118 199.269 152.358C199.556 152.603 199.699 152.943 199.699 153.379C199.699 153.854 199.501 154.263 199.103 154.604C198.706 154.946 198.119 155.117 197.341 155.117C196.634 155.117 196.074 154.974 195.661 154.688C195.251 154.401 194.982 154.012 194.855 153.521ZM204.068 153.35L205.435 153.579C205.26 154.08 204.981 154.463 204.6 154.727C204.223 154.987 203.749 155.117 203.179 155.117C202.278 155.117 201.61 154.823 201.177 154.233C200.836 153.761 200.665 153.166 200.665 152.446C200.665 151.587 200.889 150.915 201.339 150.43C201.788 149.941 202.356 149.697 203.043 149.697C203.814 149.697 204.423 149.953 204.869 150.464C205.315 150.972 205.528 151.751 205.509 152.803H202.071C202.081 153.21 202.191 153.527 202.403 153.755C202.615 153.979 202.878 154.092 203.194 154.092C203.409 154.092 203.59 154.033 203.736 153.916C203.883 153.799 203.993 153.61 204.068 153.35ZM204.146 151.963C204.136 151.566 204.034 151.265 203.839 151.06C203.643 150.851 203.406 150.747 203.126 150.747C202.826 150.747 202.579 150.856 202.384 151.074C202.188 151.292 202.092 151.589 202.095 151.963H204.146Z"
                    fill="#6D4AFF"
                />
                <path
                    d="M145.491 186.051C145.491 186.611 145.293 187.09 144.896 187.486C144.505 187.878 144.031 188.074 143.475 188.074C142.914 188.074 142.436 187.876 142.039 187.479C141.647 187.083 141.451 186.607 141.451 186.051C141.451 185.495 141.647 185.021 142.039 184.629C142.436 184.232 142.914 184.034 143.475 184.034C144.031 184.034 144.505 184.23 144.896 184.622C145.293 185.014 145.491 185.49 145.491 186.051ZM152.399 186.051C152.399 186.611 152.201 187.09 151.805 187.486C151.413 187.878 150.939 188.074 150.383 188.074C149.822 188.074 149.344 187.876 148.947 187.479C148.555 187.083 148.359 186.607 148.359 186.051C148.359 185.495 148.555 185.021 148.947 184.629C149.344 184.232 149.822 184.034 150.383 184.034C150.939 184.034 151.413 184.23 151.805 184.622C152.201 185.014 152.399 185.49 152.399 186.051ZM159.308 186.051C159.308 186.611 159.109 187.09 158.713 187.486C158.321 187.878 157.847 188.074 157.291 188.074C156.73 188.074 156.252 187.876 155.855 187.479C155.464 187.083 155.268 186.607 155.268 186.051C155.268 185.495 155.464 185.021 155.855 184.629C156.252 184.232 156.73 184.034 157.291 184.034C157.847 184.034 158.321 184.23 158.713 184.622C159.109 185.014 159.308 185.49 159.308 186.051ZM166.216 186.051C166.216 186.611 166.018 187.09 165.621 187.486C165.229 187.878 164.755 188.074 164.199 188.074C163.639 188.074 163.16 187.876 162.764 187.479C162.372 187.083 162.176 186.607 162.176 186.051C162.176 185.495 162.372 185.021 162.764 184.629C163.16 184.232 163.639 184.034 164.199 184.034C164.755 184.034 165.229 184.23 165.621 184.622C166.018 185.014 166.216 185.49 166.216 186.051ZM179.021 186.051C179.021 186.611 178.822 187.09 178.426 187.486C178.034 187.878 177.56 188.074 177.004 188.074C176.443 188.074 175.965 187.876 175.568 187.479C175.176 187.083 174.98 186.607 174.98 186.051C174.98 185.495 175.176 185.021 175.568 184.629C175.965 184.232 176.443 184.034 177.004 184.034C177.56 184.034 178.034 184.23 178.426 184.622C178.822 185.014 179.021 185.49 179.021 186.051ZM185.929 186.051C185.929 186.611 185.73 187.09 185.334 187.486C184.942 187.878 184.468 188.074 183.912 188.074C183.352 188.074 182.873 187.876 182.477 187.479C182.085 187.083 181.889 186.607 181.889 186.051C181.889 185.495 182.085 185.021 182.477 184.629C182.873 184.232 183.352 184.034 183.912 184.034C184.468 184.034 184.942 184.23 185.334 184.622C185.73 185.014 185.929 185.49 185.929 186.051ZM192.837 186.051C192.837 186.611 192.639 187.09 192.242 187.486C191.85 187.878 191.376 188.074 190.82 188.074C190.26 188.074 189.781 187.876 189.385 187.479C188.993 187.083 188.797 186.607 188.797 186.051C188.797 185.495 188.993 185.021 189.385 184.629C189.781 184.232 190.26 184.034 190.82 184.034C191.376 184.034 191.85 184.23 192.242 184.622C192.639 185.014 192.837 185.49 192.837 186.051ZM199.745 186.051C199.745 186.611 199.547 187.09 199.15 187.486C198.758 187.878 198.285 188.074 197.729 188.074C197.168 188.074 196.689 187.876 196.293 187.479C195.901 187.083 195.705 186.607 195.705 186.051C195.705 185.495 195.901 185.021 196.293 184.629C196.689 184.232 197.168 184.034 197.729 184.034C198.285 184.034 198.758 184.23 199.15 184.622C199.547 185.014 199.745 185.49 199.745 186.051ZM206.653 186.051C206.653 186.611 206.455 187.09 206.059 187.486C205.667 187.878 205.193 188.074 204.637 188.074C204.076 188.074 203.598 187.876 203.201 187.479C202.809 187.083 202.613 186.607 202.613 186.051C202.613 185.495 202.809 185.021 203.201 184.629C203.598 184.232 204.076 184.034 204.637 184.034C205.193 184.034 205.667 184.23 206.059 184.622C206.455 185.014 206.653 185.49 206.653 186.051ZM213.562 186.051C213.562 186.611 213.363 187.09 212.967 187.486C212.575 187.878 212.101 188.074 211.545 188.074C210.984 188.074 210.506 187.876 210.109 187.479C209.717 187.083 209.521 186.607 209.521 186.051C209.521 185.495 209.717 185.021 210.109 184.629C210.506 184.232 210.984 184.034 211.545 184.034C212.101 184.034 212.575 184.23 212.967 184.622C213.363 185.014 213.562 185.49 213.562 186.051ZM220.47 186.051C220.47 186.611 220.271 187.09 219.875 187.486C219.483 187.878 219.009 188.074 218.453 188.074C217.893 188.074 217.414 187.876 217.018 187.479C216.626 187.083 216.43 186.607 216.43 186.051C216.43 185.495 216.626 185.021 217.018 184.629C217.414 184.232 217.893 184.034 218.453 184.034C219.009 184.034 219.483 184.23 219.875 184.622C220.271 185.014 220.47 185.49 220.47 186.051ZM233.274 186.051C233.274 186.611 233.076 187.09 232.68 187.486C232.288 187.878 231.814 188.074 231.258 188.074C230.697 188.074 230.219 187.876 229.822 187.479C229.43 187.083 229.234 186.607 229.234 186.051C229.234 185.495 229.43 185.021 229.822 184.629C230.219 184.232 230.697 184.034 231.258 184.034C231.814 184.034 232.288 184.23 232.68 184.622C233.076 185.014 233.274 185.49 233.274 186.051ZM240.183 186.051C240.183 186.611 239.984 187.09 239.588 187.486C239.196 187.878 238.722 188.074 238.166 188.074C237.605 188.074 237.127 187.876 236.73 187.479C236.339 187.083 236.143 186.607 236.143 186.051C236.143 185.495 236.339 185.021 236.73 184.629C237.127 184.232 237.605 184.034 238.166 184.034C238.722 184.034 239.196 184.23 239.588 184.622C239.984 185.014 240.183 185.49 240.183 186.051ZM247.091 186.051C247.091 186.611 246.893 187.09 246.496 187.486C246.104 187.878 245.63 188.074 245.074 188.074C244.514 188.074 244.035 187.876 243.639 187.479C243.247 187.083 243.051 186.607 243.051 186.051C243.051 185.495 243.247 185.021 243.639 184.629C244.035 184.232 244.514 184.034 245.074 184.034C245.63 184.034 246.104 184.23 246.496 184.622C246.893 185.014 247.091 185.49 247.091 186.051ZM259.896 186.051C259.896 186.611 259.697 187.09 259.301 187.486C258.909 187.878 258.435 188.074 257.879 188.074C257.318 188.074 256.84 187.876 256.443 187.479C256.051 187.083 255.855 186.607 255.855 186.051C255.855 185.495 256.051 185.021 256.443 184.629C256.84 184.232 257.318 184.034 257.879 184.034C258.435 184.034 258.909 184.23 259.301 184.622C259.697 185.014 259.896 185.49 259.896 186.051ZM266.804 186.051C266.804 186.611 266.605 187.09 266.209 187.486C265.817 187.878 265.343 188.074 264.787 188.074C264.227 188.074 263.748 187.876 263.352 187.479C262.96 187.083 262.764 186.607 262.764 186.051C262.764 185.495 262.96 185.021 263.352 184.629C263.748 184.232 264.227 184.034 264.787 184.034C265.343 184.034 265.817 184.23 266.209 184.622C266.605 185.014 266.804 185.49 266.804 186.051ZM273.712 186.051C273.712 186.611 273.514 187.09 273.117 187.486C272.725 187.878 272.251 188.074 271.695 188.074C271.135 188.074 270.656 187.876 270.26 187.479C269.868 187.083 269.672 186.607 269.672 186.051C269.672 185.495 269.868 185.021 270.26 184.629C270.656 184.232 271.135 184.034 271.695 184.034C272.251 184.034 272.725 184.23 273.117 184.622C273.514 185.014 273.712 185.49 273.712 186.051ZM280.62 186.051C280.62 186.611 280.422 187.09 280.025 187.486C279.633 187.878 279.16 188.074 278.604 188.074C278.043 188.074 277.564 187.876 277.168 187.479C276.776 187.083 276.58 186.607 276.58 186.051C276.58 185.495 276.776 185.021 277.168 184.629C277.564 184.232 278.043 184.034 278.604 184.034C279.16 184.034 279.633 184.23 280.025 184.622C280.422 185.014 280.62 185.49 280.62 186.051ZM287.528 186.051C287.528 186.611 287.33 187.09 286.934 187.486C286.542 187.878 286.068 188.074 285.512 188.074C284.951 188.074 284.473 187.876 284.076 187.479C283.684 187.083 283.488 186.607 283.488 186.051C283.488 185.495 283.684 185.021 284.076 184.629C284.473 184.232 284.951 184.034 285.512 184.034C286.068 184.034 286.542 184.23 286.934 184.622C287.33 185.014 287.528 185.49 287.528 186.051ZM294.437 186.051C294.437 186.611 294.238 187.09 293.842 187.486C293.45 187.878 292.976 188.074 292.42 188.074C291.859 188.074 291.381 187.876 290.984 187.479C290.592 187.083 290.396 186.607 290.396 186.051C290.396 185.495 290.592 185.021 290.984 184.629C291.381 184.232 291.859 184.034 292.42 184.034C292.976 184.034 293.45 184.23 293.842 184.622C294.238 185.014 294.437 185.49 294.437 186.051ZM307.241 186.051C307.241 186.611 307.043 187.09 306.646 187.486C306.255 187.878 305.781 188.074 305.225 188.074C304.664 188.074 304.186 187.876 303.789 187.479C303.397 187.083 303.201 186.607 303.201 186.051C303.201 185.495 303.397 185.021 303.789 184.629C304.186 184.232 304.664 184.034 305.225 184.034C305.781 184.034 306.255 184.23 306.646 184.622C307.043 185.014 307.241 185.49 307.241 186.051ZM314.149 186.051C314.149 186.611 313.951 187.09 313.555 187.486C313.163 187.878 312.689 188.074 312.133 188.074C311.572 188.074 311.094 187.876 310.697 187.479C310.305 187.083 310.109 186.607 310.109 186.051C310.109 185.495 310.305 185.021 310.697 184.629C311.094 184.232 311.572 184.034 312.133 184.034C312.689 184.034 313.163 184.23 313.555 184.622C313.951 185.014 314.149 185.49 314.149 186.051ZM321.058 186.051C321.058 186.611 320.859 187.09 320.463 187.486C320.071 187.878 319.597 188.074 319.041 188.074C318.48 188.074 318.002 187.876 317.605 187.479C317.214 187.083 317.018 186.607 317.018 186.051C317.018 185.495 317.214 185.021 317.605 184.629C318.002 184.232 318.48 184.034 319.041 184.034C319.597 184.034 320.071 184.23 320.463 184.622C320.859 185.014 321.058 185.49 321.058 186.051ZM327.966 186.051C327.966 186.611 327.768 187.09 327.371 187.486C326.979 187.878 326.505 188.074 325.949 188.074C325.389 188.074 324.91 187.876 324.514 187.479C324.122 187.083 323.926 186.607 323.926 186.051C323.926 185.495 324.122 185.021 324.514 184.629C324.91 184.232 325.389 184.034 325.949 184.034C326.505 184.034 326.979 184.23 327.371 184.622C327.768 185.014 327.966 185.49 327.966 186.051ZM334.874 186.051C334.874 186.611 334.676 187.09 334.279 187.486C333.887 187.878 333.413 188.074 332.857 188.074C332.297 188.074 331.818 187.876 331.422 187.479C331.03 187.083 330.834 186.607 330.834 186.051C330.834 185.495 331.03 185.021 331.422 184.629C331.818 184.232 332.297 184.034 332.857 184.034C333.413 184.034 333.887 184.23 334.279 184.622C334.676 185.014 334.874 185.49 334.874 186.051ZM341.782 186.051C341.782 186.611 341.584 187.09 341.188 187.486C340.796 187.878 340.322 188.074 339.766 188.074C339.205 188.074 338.727 187.876 338.33 187.479C337.938 187.083 337.742 186.607 337.742 186.051C337.742 185.495 337.938 185.021 338.33 184.629C338.727 184.232 339.205 184.034 339.766 184.034C340.322 184.034 340.796 184.23 341.188 184.622C341.584 185.014 341.782 185.49 341.782 186.051ZM354.587 186.051C354.587 186.611 354.389 187.09 353.992 187.486C353.6 187.878 353.126 188.074 352.57 188.074C352.01 188.074 351.531 187.876 351.135 187.479C350.743 187.083 350.547 186.607 350.547 186.051C350.547 185.495 350.743 185.021 351.135 184.629C351.531 184.232 352.01 184.034 352.57 184.034C353.126 184.034 353.6 184.23 353.992 184.622C354.389 185.014 354.587 185.49 354.587 186.051ZM361.495 186.051C361.495 186.611 361.297 187.09 360.9 187.486C360.508 187.878 360.035 188.074 359.479 188.074C358.918 188.074 358.439 187.876 358.043 187.479C357.651 187.083 357.455 186.607 357.455 186.051C357.455 185.495 357.651 185.021 358.043 184.629C358.439 184.232 358.918 184.034 359.479 184.034C360.035 184.034 360.508 184.23 360.9 184.622C361.297 185.014 361.495 185.49 361.495 186.051ZM368.403 186.051C368.403 186.611 368.205 187.09 367.809 187.486C367.417 187.878 366.943 188.074 366.387 188.074C365.826 188.074 365.348 187.876 364.951 187.479C364.559 187.083 364.363 186.607 364.363 186.051C364.363 185.495 364.559 185.021 364.951 184.629C365.348 184.232 365.826 184.034 366.387 184.034C366.943 184.034 367.417 184.23 367.809 184.622C368.205 185.014 368.403 185.49 368.403 186.051ZM375.312 186.051C375.312 186.611 375.113 187.09 374.717 187.486C374.325 187.878 373.851 188.074 373.295 188.074C372.734 188.074 372.256 187.876 371.859 187.479C371.467 187.083 371.271 186.607 371.271 186.051C371.271 185.495 371.467 185.021 371.859 184.629C372.256 184.232 372.734 184.034 373.295 184.034C373.851 184.034 374.325 184.23 374.717 184.622C375.113 185.014 375.312 185.49 375.312 186.051ZM145.491 204.051C145.491 204.611 145.293 205.09 144.896 205.486C144.505 205.878 144.031 206.074 143.475 206.074C142.914 206.074 142.436 205.876 142.039 205.479C141.647 205.083 141.451 204.607 141.451 204.051C141.451 203.495 141.647 203.021 142.039 202.629C142.436 202.232 142.914 202.034 143.475 202.034C144.031 202.034 144.505 202.23 144.896 202.622C145.293 203.014 145.491 203.49 145.491 204.051ZM152.399 204.051C152.399 204.611 152.201 205.09 151.805 205.486C151.413 205.878 150.939 206.074 150.383 206.074C149.822 206.074 149.344 205.876 148.947 205.479C148.555 205.083 148.359 204.607 148.359 204.051C148.359 203.495 148.555 203.021 148.947 202.629C149.344 202.232 149.822 202.034 150.383 202.034C150.939 202.034 151.413 202.23 151.805 202.622C152.201 203.014 152.399 203.49 152.399 204.051ZM159.308 204.051C159.308 204.611 159.109 205.09 158.713 205.486C158.321 205.878 157.847 206.074 157.291 206.074C156.73 206.074 156.252 205.876 155.855 205.479C155.464 205.083 155.268 204.607 155.268 204.051C155.268 203.495 155.464 203.021 155.855 202.629C156.252 202.232 156.73 202.034 157.291 202.034C157.847 202.034 158.321 202.23 158.713 202.622C159.109 203.014 159.308 203.49 159.308 204.051ZM166.216 204.051C166.216 204.611 166.018 205.09 165.621 205.486C165.229 205.878 164.755 206.074 164.199 206.074C163.639 206.074 163.16 205.876 162.764 205.479C162.372 205.083 162.176 204.607 162.176 204.051C162.176 203.495 162.372 203.021 162.764 202.629C163.16 202.232 163.639 202.034 164.199 202.034C164.755 202.034 165.229 202.23 165.621 202.622C166.018 203.014 166.216 203.49 166.216 204.051ZM179.021 204.051C179.021 204.611 178.822 205.09 178.426 205.486C178.034 205.878 177.56 206.074 177.004 206.074C176.443 206.074 175.965 205.876 175.568 205.479C175.176 205.083 174.98 204.607 174.98 204.051C174.98 203.495 175.176 203.021 175.568 202.629C175.965 202.232 176.443 202.034 177.004 202.034C177.56 202.034 178.034 202.23 178.426 202.622C178.822 203.014 179.021 203.49 179.021 204.051ZM185.929 204.051C185.929 204.611 185.73 205.09 185.334 205.486C184.942 205.878 184.468 206.074 183.912 206.074C183.352 206.074 182.873 205.876 182.477 205.479C182.085 205.083 181.889 204.607 181.889 204.051C181.889 203.495 182.085 203.021 182.477 202.629C182.873 202.232 183.352 202.034 183.912 202.034C184.468 202.034 184.942 202.23 185.334 202.622C185.73 203.014 185.929 203.49 185.929 204.051ZM192.837 204.051C192.837 204.611 192.639 205.09 192.242 205.486C191.85 205.878 191.376 206.074 190.82 206.074C190.26 206.074 189.781 205.876 189.385 205.479C188.993 205.083 188.797 204.607 188.797 204.051C188.797 203.495 188.993 203.021 189.385 202.629C189.781 202.232 190.26 202.034 190.82 202.034C191.376 202.034 191.85 202.23 192.242 202.622C192.639 203.014 192.837 203.49 192.837 204.051ZM199.745 204.051C199.745 204.611 199.547 205.09 199.15 205.486C198.758 205.878 198.285 206.074 197.729 206.074C197.168 206.074 196.689 205.876 196.293 205.479C195.901 205.083 195.705 204.607 195.705 204.051C195.705 203.495 195.901 203.021 196.293 202.629C196.689 202.232 197.168 202.034 197.729 202.034C198.285 202.034 198.758 202.23 199.15 202.622C199.547 203.014 199.745 203.49 199.745 204.051ZM206.653 204.051C206.653 204.611 206.455 205.09 206.059 205.486C205.667 205.878 205.193 206.074 204.637 206.074C204.076 206.074 203.598 205.876 203.201 205.479C202.809 205.083 202.613 204.607 202.613 204.051C202.613 203.495 202.809 203.021 203.201 202.629C203.598 202.232 204.076 202.034 204.637 202.034C205.193 202.034 205.667 202.23 206.059 202.622C206.455 203.014 206.653 203.49 206.653 204.051ZM213.562 204.051C213.562 204.611 213.363 205.09 212.967 205.486C212.575 205.878 212.101 206.074 211.545 206.074C210.984 206.074 210.506 205.876 210.109 205.479C209.717 205.083 209.521 204.607 209.521 204.051C209.521 203.495 209.717 203.021 210.109 202.629C210.506 202.232 210.984 202.034 211.545 202.034C212.101 202.034 212.575 202.23 212.967 202.622C213.363 203.014 213.562 203.49 213.562 204.051ZM226.366 204.051C226.366 204.611 226.168 205.09 225.771 205.486C225.38 205.878 224.906 206.074 224.35 206.074C223.789 206.074 223.311 205.876 222.914 205.479C222.522 205.083 222.326 204.607 222.326 204.051C222.326 203.495 222.522 203.021 222.914 202.629C223.311 202.232 223.789 202.034 224.35 202.034C224.906 202.034 225.38 202.23 225.771 202.622C226.168 203.014 226.366 203.49 226.366 204.051ZM233.274 204.051C233.274 204.611 233.076 205.09 232.68 205.486C232.288 205.878 231.814 206.074 231.258 206.074C230.697 206.074 230.219 205.876 229.822 205.479C229.43 205.083 229.234 204.607 229.234 204.051C229.234 203.495 229.43 203.021 229.822 202.629C230.219 202.232 230.697 202.034 231.258 202.034C231.814 202.034 232.288 202.23 232.68 202.622C233.076 203.014 233.274 203.49 233.274 204.051ZM240.183 204.051C240.183 204.611 239.984 205.09 239.588 205.486C239.196 205.878 238.722 206.074 238.166 206.074C237.605 206.074 237.127 205.876 236.73 205.479C236.339 205.083 236.143 204.607 236.143 204.051C236.143 203.495 236.339 203.021 236.73 202.629C237.127 202.232 237.605 202.034 238.166 202.034C238.722 202.034 239.196 202.23 239.588 202.622C239.984 203.014 240.183 203.49 240.183 204.051ZM247.091 204.051C247.091 204.611 246.893 205.09 246.496 205.486C246.104 205.878 245.63 206.074 245.074 206.074C244.514 206.074 244.035 205.876 243.639 205.479C243.247 205.083 243.051 204.607 243.051 204.051C243.051 203.495 243.247 203.021 243.639 202.629C244.035 202.232 244.514 202.034 245.074 202.034C245.63 202.034 246.104 202.23 246.496 202.622C246.893 203.014 247.091 203.49 247.091 204.051ZM259.896 204.051C259.896 204.611 259.697 205.09 259.301 205.486C258.909 205.878 258.435 206.074 257.879 206.074C257.318 206.074 256.84 205.876 256.443 205.479C256.051 205.083 255.855 204.607 255.855 204.051C255.855 203.495 256.051 203.021 256.443 202.629C256.84 202.232 257.318 202.034 257.879 202.034C258.435 202.034 258.909 202.23 259.301 202.622C259.697 203.014 259.896 203.49 259.896 204.051ZM266.804 204.051C266.804 204.611 266.605 205.09 266.209 205.486C265.817 205.878 265.343 206.074 264.787 206.074C264.227 206.074 263.748 205.876 263.352 205.479C262.96 205.083 262.764 204.607 262.764 204.051C262.764 203.495 262.96 203.021 263.352 202.629C263.748 202.232 264.227 202.034 264.787 202.034C265.343 202.034 265.817 202.23 266.209 202.622C266.605 203.014 266.804 203.49 266.804 204.051ZM273.712 204.051C273.712 204.611 273.514 205.09 273.117 205.486C272.725 205.878 272.251 206.074 271.695 206.074C271.135 206.074 270.656 205.876 270.26 205.479C269.868 205.083 269.672 204.607 269.672 204.051C269.672 203.495 269.868 203.021 270.26 202.629C270.656 202.232 271.135 202.034 271.695 202.034C272.251 202.034 272.725 202.23 273.117 202.622C273.514 203.014 273.712 203.49 273.712 204.051ZM280.62 204.051C280.62 204.611 280.422 205.09 280.025 205.486C279.633 205.878 279.16 206.074 278.604 206.074C278.043 206.074 277.564 205.876 277.168 205.479C276.776 205.083 276.58 204.607 276.58 204.051C276.58 203.495 276.776 203.021 277.168 202.629C277.564 202.232 278.043 202.034 278.604 202.034C279.16 202.034 279.633 202.23 280.025 202.622C280.422 203.014 280.62 203.49 280.62 204.051ZM287.528 204.051C287.528 204.611 287.33 205.09 286.934 205.486C286.542 205.878 286.068 206.074 285.512 206.074C284.951 206.074 284.473 205.876 284.076 205.479C283.684 205.083 283.488 204.607 283.488 204.051C283.488 203.495 283.684 203.021 284.076 202.629C284.473 202.232 284.951 202.034 285.512 202.034C286.068 202.034 286.542 202.23 286.934 202.622C287.33 203.014 287.528 203.49 287.528 204.051ZM294.437 204.051C294.437 204.611 294.238 205.09 293.842 205.486C293.45 205.878 292.976 206.074 292.42 206.074C291.859 206.074 291.381 205.876 290.984 205.479C290.592 205.083 290.396 204.607 290.396 204.051C290.396 203.495 290.592 203.021 290.984 202.629C291.381 202.232 291.859 202.034 292.42 202.034C292.976 202.034 293.45 202.23 293.842 202.622C294.238 203.014 294.437 203.49 294.437 204.051ZM301.345 204.051C301.345 204.611 301.146 205.09 300.75 205.486C300.358 205.878 299.884 206.074 299.328 206.074C298.768 206.074 298.289 205.876 297.893 205.479C297.501 205.083 297.305 204.607 297.305 204.051C297.305 203.495 297.501 203.021 297.893 202.629C298.289 202.232 298.768 202.034 299.328 202.034C299.884 202.034 300.358 202.23 300.75 202.622C301.146 203.014 301.345 203.49 301.345 204.051ZM314.149 204.051C314.149 204.611 313.951 205.09 313.555 205.486C313.163 205.878 312.689 206.074 312.133 206.074C311.572 206.074 311.094 205.876 310.697 205.479C310.305 205.083 310.109 204.607 310.109 204.051C310.109 203.495 310.305 203.021 310.697 202.629C311.094 202.232 311.572 202.034 312.133 202.034C312.689 202.034 313.163 202.23 313.555 202.622C313.951 203.014 314.149 203.49 314.149 204.051ZM321.058 204.051C321.058 204.611 320.859 205.09 320.463 205.486C320.071 205.878 319.597 206.074 319.041 206.074C318.48 206.074 318.002 205.876 317.605 205.479C317.214 205.083 317.018 204.607 317.018 204.051C317.018 203.495 317.214 203.021 317.605 202.629C318.002 202.232 318.48 202.034 319.041 202.034C319.597 202.034 320.071 202.23 320.463 202.622C320.859 203.014 321.058 203.49 321.058 204.051ZM327.966 204.051C327.966 204.611 327.768 205.09 327.371 205.486C326.979 205.878 326.505 206.074 325.949 206.074C325.389 206.074 324.91 205.876 324.514 205.479C324.122 205.083 323.926 204.607 323.926 204.051C323.926 203.495 324.122 203.021 324.514 202.629C324.91 202.232 325.389 202.034 325.949 202.034C326.505 202.034 326.979 202.23 327.371 202.622C327.768 203.014 327.966 203.49 327.966 204.051ZM334.874 204.051C334.874 204.611 334.676 205.09 334.279 205.486C333.887 205.878 333.413 206.074 332.857 206.074C332.297 206.074 331.818 205.876 331.422 205.479C331.03 205.083 330.834 204.607 330.834 204.051C330.834 203.495 331.03 203.021 331.422 202.629C331.818 202.232 332.297 202.034 332.857 202.034C333.413 202.034 333.887 202.23 334.279 202.622C334.676 203.014 334.874 203.49 334.874 204.051ZM341.782 204.051C341.782 204.611 341.584 205.09 341.188 205.486C340.796 205.878 340.322 206.074 339.766 206.074C339.205 206.074 338.727 205.876 338.33 205.479C337.938 205.083 337.742 204.607 337.742 204.051C337.742 203.495 337.938 203.021 338.33 202.629C338.727 202.232 339.205 202.034 339.766 202.034C340.322 202.034 340.796 202.23 341.188 202.622C341.584 203.014 341.782 203.49 341.782 204.051ZM354.587 204.051C354.587 204.611 354.389 205.09 353.992 205.486C353.6 205.878 353.126 206.074 352.57 206.074C352.01 206.074 351.531 205.876 351.135 205.479C350.743 205.083 350.547 204.607 350.547 204.051C350.547 203.495 350.743 203.021 351.135 202.629C351.531 202.232 352.01 202.034 352.57 202.034C353.126 202.034 353.6 202.23 353.992 202.622C354.389 203.014 354.587 203.49 354.587 204.051ZM361.495 204.051C361.495 204.611 361.297 205.09 360.9 205.486C360.508 205.878 360.035 206.074 359.479 206.074C358.918 206.074 358.439 205.876 358.043 205.479C357.651 205.083 357.455 204.607 357.455 204.051C357.455 203.495 357.651 203.021 358.043 202.629C358.439 202.232 358.918 202.034 359.479 202.034C360.035 202.034 360.508 202.23 360.9 202.622C361.297 203.014 361.495 203.49 361.495 204.051ZM368.403 204.051C368.403 204.611 368.205 205.09 367.809 205.486C367.417 205.878 366.943 206.074 366.387 206.074C365.826 206.074 365.348 205.876 364.951 205.479C364.559 205.083 364.363 204.607 364.363 204.051C364.363 203.495 364.559 203.021 364.951 202.629C365.348 202.232 365.826 202.034 366.387 202.034C366.943 202.034 367.417 202.23 367.809 202.622C368.205 203.014 368.403 203.49 368.403 204.051ZM375.312 204.051C375.312 204.611 375.113 205.09 374.717 205.486C374.325 205.878 373.851 206.074 373.295 206.074C372.734 206.074 372.256 205.876 371.859 205.479C371.467 205.083 371.271 204.607 371.271 204.051C371.271 203.495 371.467 203.021 371.859 202.629C372.256 202.232 372.734 202.034 373.295 202.034C373.851 202.034 374.325 202.23 374.717 202.622C375.113 203.014 375.312 203.49 375.312 204.051Z"
                    fill="#0C0C14"
                />
                <path
                    d="M105.022 83.5619V88.6891H108.621V83.7837C108.621 83.3065 108.811 82.8488 109.148 82.5113C109.486 82.1738 109.944 81.9843 110.421 81.9843H114.111C115.832 81.9837 117.483 81.2996 118.7 80.0822C119.917 78.8648 120.601 77.2138 120.601 75.4924C120.601 73.7707 119.918 72.1194 118.7 70.9019C117.483 69.6844 115.832 69.0003 114.11 69H105.022V75.4091H108.621V72.3874H113.867C114.682 72.3874 115.463 72.7109 116.039 73.2868C116.615 73.8627 116.939 74.6438 116.939 75.4584C116.939 76.2731 116.616 77.0544 116.04 77.6305C115.464 78.2066 114.682 78.5303 113.867 78.5303H110.054C109.393 78.5299 108.738 78.6599 108.128 78.9126C107.517 79.1654 106.962 79.536 106.495 80.0033C106.028 80.4706 105.657 81.0254 105.405 81.636C105.152 82.2466 105.022 82.901 105.022 83.5619Z"
                    fill="#6D4AFF"
                />
                <path
                    d="M110.42 81.9844C108.988 81.9845 107.616 82.5532 106.603 83.5654C105.591 84.5776 105.023 85.9503 105.022 87.3818V88.6892H108.621V83.7838C108.621 83.3068 108.811 82.8492 109.148 82.5118C109.485 82.1743 109.943 81.9846 110.42 81.9844Z"
                    fill="url(#paint1_linear_3004_50218)"
                />
                <path
                    d="M121.16 88.689V80.8779C121.16 77.6911 123.021 75.1531 126.743 75.1531C127.341 75.1444 127.937 75.2106 128.518 75.3503V78.5637C128.095 78.5356 127.729 78.5356 127.559 78.5356C125.587 78.5356 124.739 79.4378 124.739 81.2708V88.689H121.16Z"
                    fill="#6D4AFF"
                />
                <path
                    d="M129.591 82.0652C129.591 78.1453 132.552 75.1562 136.669 75.1562C140.787 75.1562 143.747 78.1434 143.747 82.0652C143.747 85.9871 140.786 89.0003 136.669 89.0003C132.552 89.0003 129.591 85.9831 129.591 82.0652ZM140.223 82.0652C140.223 79.8373 138.728 78.2582 136.67 78.2582C134.612 78.2582 133.116 79.8358 133.116 82.0652C133.116 84.3212 134.611 85.8722 136.67 85.8722C138.729 85.8722 140.223 84.3192 140.223 82.0652Z"
                    fill="#6D4AFF"
                />
                <path
                    d="M155.196 82.0652C155.196 78.1453 158.157 75.1562 162.274 75.1562C166.392 75.1562 169.352 78.1434 169.352 82.0652C169.352 85.9871 166.391 89.0023 162.274 89.0023C158.157 89.0023 155.196 85.9831 155.196 82.0652ZM165.827 82.0652C165.827 79.8373 164.333 78.2582 162.274 78.2582C160.216 78.2582 158.721 79.8358 158.721 82.0652C158.721 84.3212 160.216 85.8722 162.274 85.8722C164.333 85.8722 165.827 84.3192 165.827 82.0652Z"
                    fill="#6D4AFF"
                />
                <path
                    d="M171.214 88.6883V81.1591C171.214 77.6622 173.442 75.1523 177.418 75.1523C181.366 75.1523 183.594 77.6622 183.594 81.1591V88.6883H180.041V81.4411C180.041 79.4957 179.166 78.2829 177.418 78.2829C175.67 78.2829 174.795 79.4957 174.795 81.4411V88.6883H171.214Z"
                    fill="#6D4AFF"
                />
                <path
                    d="M154.126 78.2851H150.261V83.2201C150.261 84.9402 150.882 85.7299 152.658 85.7299C152.827 85.7299 153.25 85.7299 153.786 85.7018V88.6066C153.053 88.8038 152.406 88.9167 151.699 88.9167C148.71 88.9187 146.681 87.1118 146.681 83.6998V78.2851H144.283V75.437H144.881C145.117 75.4371 145.352 75.3906 145.57 75.3001C145.789 75.2096 145.987 75.0769 146.154 74.9096C146.322 74.7423 146.454 74.5436 146.545 74.325C146.635 74.1064 146.681 73.8721 146.681 73.6356V70.9531H150.262V75.437H154.126V78.2851Z"
                    fill="#6D4AFF"
                />
                <path
                    d="M105.881 101V93.7273H108.338C110.043 93.7273 110.81 94.6719 110.81 95.9574C110.81 96.9233 110.376 97.6797 109.45 97.9957L111.094 101H110.071L108.537 98.1555C108.477 98.1591 108.416 98.1591 108.352 98.1591H106.761V101H105.881ZM106.761 97.3636H108.324C109.489 97.3636 109.943 96.831 109.943 95.9574C109.943 95.0838 109.489 94.5085 108.31 94.5085H106.761V97.3636ZM114.392 101.114C112.815 101.114 111.849 99.9915 111.849 98.3153C111.849 96.6392 112.829 95.4744 114.307 95.4744C115.443 95.4744 116.65 96.1705 116.65 98.2017V98.5568H112.691C112.73 99.7251 113.408 100.361 114.392 100.361C115.049 100.361 115.542 100.077 115.756 99.5085L116.565 99.7358C116.309 100.56 115.5 101.114 114.392 101.114ZM112.691 97.8324H115.798C115.798 96.9091 115.216 96.2273 114.307 96.2273C113.348 96.2273 112.748 96.9837 112.691 97.8324ZM120.141 101.114C118.607 101.114 117.67 99.9347 117.67 98.3011C117.67 96.6392 118.65 95.4744 120.127 95.4744C121.278 95.4744 122.144 96.1562 122.286 97.179H121.448C121.32 96.6818 120.88 96.2273 120.141 96.2273C119.161 96.2273 118.508 97.0369 118.508 98.2727C118.508 99.5369 119.147 100.361 120.141 100.361C120.795 100.361 121.292 100.006 121.448 99.4091H122.286C122.144 100.375 121.349 101.114 120.141 101.114ZM125.727 101.114C124.25 101.114 123.256 99.9915 123.256 98.3011C123.256 96.5966 124.25 95.4744 125.727 95.4744C127.204 95.4744 128.199 96.5966 128.199 98.3011C128.199 99.9915 127.204 101.114 125.727 101.114ZM125.727 100.361C126.849 100.361 127.361 99.3949 127.361 98.3011C127.361 97.2074 126.849 96.2273 125.727 96.2273C124.605 96.2273 124.094 97.2074 124.094 98.3011C124.094 99.3949 124.605 100.361 125.727 100.361ZM133.743 95.5455L131.726 101H130.874L128.857 95.5455H129.766L131.271 99.892H131.328L132.834 95.5455H133.743ZM136.941 101.114C135.364 101.114 134.398 99.9915 134.398 98.3153C134.398 96.6392 135.378 95.4744 136.855 95.4744C137.992 95.4744 139.199 96.1705 139.199 98.2017V98.5568H135.24C135.279 99.7251 135.957 100.361 136.941 100.361C137.598 100.361 138.091 100.077 138.304 99.5085L139.114 99.7358C138.858 100.56 138.049 101.114 136.941 101.114ZM135.24 97.8324H138.347C138.347 96.9091 137.765 96.2273 136.855 96.2273C135.897 96.2273 135.297 96.9837 135.24 97.8324ZM140.474 101V95.5455H141.284V96.3693H141.341C141.539 95.8295 142.108 95.4602 142.761 95.4602C142.885 95.4602 143.105 95.4673 143.201 95.4744V96.3267C143.145 96.3125 142.914 96.2699 142.69 96.2699C141.895 96.2699 141.312 96.8097 141.312 97.5483V101H140.474ZM144.901 103.045C144.616 103.045 144.375 102.989 144.29 102.946L144.503 102.207C145.114 102.364 145.49 102.286 145.795 101.455L145.952 101.028L143.935 95.5455H144.844L146.349 99.892H146.406L147.912 95.5455H148.821L146.506 101.795C146.19 102.644 145.657 103.045 144.901 103.045ZM152.74 101V93.7273H153.578V97.9744H153.677L156.064 95.5455H157.1L154.796 97.875L157.271 101H156.206L154.164 98.4148L153.578 98.9581V101H152.74ZM158.179 101V95.5455H159.017V101H158.179ZM158.605 94.6364C158.279 94.6364 158.009 94.3807 158.009 94.0682C158.009 93.7557 158.279 93.5 158.605 93.5C158.932 93.5 159.202 93.7557 159.202 94.0682C159.202 94.3807 158.932 94.6364 158.605 94.6364ZM162.924 95.5455V96.2557H161.76V99.4375C161.76 100.148 162.115 100.261 162.484 100.261C162.669 100.261 162.782 100.233 162.853 100.219L163.024 100.972C162.91 101.014 162.711 101.071 162.399 101.071C161.689 101.071 160.922 100.616 160.922 99.6648V96.2557H160.098V95.5455H160.922V94.2386H161.76V95.5455H162.924Z"
                    fill="#8C8C93"
                />
                <path
                    d="M342.721 81.3496L344.088 81.5791C343.912 82.0804 343.634 82.4629 343.253 82.7266C342.875 82.987 342.402 83.1172 341.832 83.1172C340.93 83.1172 340.263 82.8226 339.83 82.2334C339.488 81.7614 339.317 81.1657 339.317 80.4463C339.317 79.5869 339.542 78.9147 339.991 78.4297C340.44 77.9414 341.008 77.6973 341.695 77.6973C342.467 77.6973 343.076 77.9528 343.521 78.4639C343.967 78.9717 344.181 79.7513 344.161 80.8027H340.724C340.733 81.2096 340.844 81.527 341.056 81.7549C341.267 81.9795 341.531 82.0918 341.847 82.0918C342.062 82.0918 342.242 82.0332 342.389 81.916C342.535 81.7988 342.646 81.61 342.721 81.3496ZM342.799 79.9629C342.789 79.5658 342.687 79.2646 342.491 79.0596C342.296 78.8512 342.058 78.7471 341.778 78.7471C341.479 78.7471 341.231 78.8561 341.036 79.0742C340.841 79.2923 340.745 79.5885 340.748 79.9629H342.799ZM346.758 83H345.386V77.8145H346.66V78.5518C346.878 78.2035 347.073 77.974 347.246 77.8633C347.422 77.7526 347.62 77.6973 347.842 77.6973C348.154 77.6973 348.455 77.7835 348.745 77.9561L348.32 79.1523C348.089 79.0026 347.874 78.9277 347.676 78.9277C347.484 78.9277 347.321 78.9814 347.187 79.0889C347.054 79.193 346.948 79.3835 346.87 79.6602C346.795 79.9368 346.758 80.5163 346.758 81.3984V83ZM349.501 77.1113V75.8418H350.873V77.1113H349.501ZM349.501 83V77.8145H350.873V83H349.501ZM356.965 79.3477L355.613 79.5918C355.567 79.3216 355.463 79.1182 355.3 78.9814C355.141 78.8447 354.932 78.7764 354.675 78.7764C354.334 78.7764 354.06 78.8952 353.855 79.1328C353.653 79.3672 353.552 79.7611 353.552 80.3145C353.552 80.9297 353.655 81.3643 353.86 81.6182C354.068 81.8721 354.347 81.999 354.695 81.999C354.955 81.999 355.168 81.9258 355.334 81.7793C355.501 81.6296 355.618 81.374 355.686 81.0127L357.034 81.2422C356.894 81.8607 356.625 82.3278 356.228 82.6436C355.831 82.9593 355.299 83.1172 354.631 83.1172C353.873 83.1172 353.267 82.8779 352.815 82.3994C352.366 81.9209 352.141 81.2585 352.141 80.4121C352.141 79.556 352.367 78.8903 352.82 78.415C353.272 77.9365 353.884 77.6973 354.656 77.6973C355.287 77.6973 355.789 77.834 356.16 78.1074C356.534 78.3776 356.803 78.791 356.965 79.3477ZM358.17 83V81.6279H359.542V83H358.17ZM365.83 83H364.458V80.3535C364.458 79.7936 364.429 79.4323 364.37 79.2695C364.312 79.1035 364.216 78.9749 364.082 78.8838C363.952 78.7926 363.794 78.7471 363.609 78.7471C363.371 78.7471 363.158 78.8122 362.969 78.9424C362.78 79.0726 362.65 79.2451 362.578 79.46C362.51 79.6748 362.476 80.0719 362.476 80.6514V83H361.104V77.8145H362.378V78.5762C362.831 77.9902 363.4 77.6973 364.087 77.6973C364.39 77.6973 364.667 77.7526 364.917 77.8633C365.168 77.9707 365.357 78.109 365.484 78.2783C365.614 78.4476 365.703 78.6396 365.752 78.8545C365.804 79.0693 365.83 79.377 365.83 79.7773V83ZM367.069 80.334C367.069 79.8783 367.182 79.4372 367.406 79.0107C367.631 78.5843 367.948 78.2588 368.358 78.0342C368.772 77.8096 369.232 77.6973 369.74 77.6973C370.525 77.6973 371.168 77.9528 371.669 78.4639C372.17 78.9717 372.421 79.6146 372.421 80.3926C372.421 81.1771 372.167 81.8281 371.659 82.3457C371.155 82.86 370.518 83.1172 369.75 83.1172C369.275 83.1172 368.821 83.0098 368.388 82.7949C367.958 82.5801 367.631 82.266 367.406 81.8525C367.182 81.4359 367.069 80.9297 367.069 80.334ZM368.476 80.4072C368.476 80.9215 368.598 81.3154 368.842 81.5889C369.086 81.8623 369.387 81.999 369.745 81.999C370.103 81.999 370.403 81.8623 370.644 81.5889C370.888 81.3154 371.01 80.9183 371.01 80.3975C371.01 79.8896 370.888 79.499 370.644 79.2256C370.403 78.9521 370.103 78.8154 369.745 78.8154C369.387 78.8154 369.086 78.9521 368.842 79.2256C368.598 79.499 368.476 79.8929 368.476 80.4072ZM374.974 83H373.601V77.8145H374.876V78.5518C375.094 78.2035 375.289 77.974 375.462 77.8633C375.638 77.7526 375.836 77.6973 376.057 77.6973C376.37 77.6973 376.671 77.7835 376.961 77.9561L376.536 79.1523C376.305 79.0026 376.09 78.9277 375.891 78.9277C375.699 78.9277 375.537 78.9814 375.403 79.0889C375.27 79.193 375.164 79.3835 375.086 79.6602C375.011 79.9368 374.974 80.5163 374.974 81.3984V83ZM377.658 83V75.8418H379.03V78.4199C379.453 77.9382 379.954 77.6973 380.534 77.6973C381.165 77.6973 381.688 77.9268 382.101 78.3857C382.515 78.8415 382.721 79.4974 382.721 80.3535C382.721 81.2389 382.51 81.9209 382.087 82.3994C381.667 82.8779 381.156 83.1172 380.553 83.1172C380.257 83.1172 379.964 83.0439 379.675 82.8975C379.388 82.7477 379.141 82.528 378.932 82.2383V83H377.658ZM379.02 80.2949C379.02 80.832 379.105 81.2292 379.274 81.4863C379.512 81.8509 379.828 82.0332 380.221 82.0332C380.524 82.0332 380.781 81.9046 380.993 81.6475C381.208 81.387 381.315 80.9785 381.315 80.4219C381.315 79.8294 381.208 79.403 380.993 79.1426C380.778 78.8789 380.503 78.7471 380.168 78.7471C379.839 78.7471 379.565 78.8757 379.347 79.1328C379.129 79.3867 379.02 79.7741 379.02 80.2949ZM386.993 81.3496L388.36 81.5791C388.184 82.0804 387.906 82.4629 387.525 82.7266C387.147 82.987 386.674 83.1172 386.104 83.1172C385.202 83.1172 384.535 82.8226 384.102 82.2334C383.76 81.7614 383.589 81.1657 383.589 80.4463C383.589 79.5869 383.814 78.9147 384.263 78.4297C384.712 77.9414 385.28 77.6973 385.967 77.6973C386.739 77.6973 387.348 77.9528 387.794 78.4639C388.239 78.9717 388.453 79.7513 388.433 80.8027H384.996C385.005 81.2096 385.116 81.527 385.328 81.7549C385.539 81.9795 385.803 82.0918 386.119 82.0918C386.334 82.0918 386.514 82.0332 386.661 81.916C386.807 81.7988 386.918 81.61 386.993 81.3496ZM387.071 79.9629C387.061 79.5658 386.959 79.2646 386.763 79.0596C386.568 78.8512 386.33 78.7471 386.05 78.7471C385.751 78.7471 385.503 78.8561 385.308 79.0742C385.113 79.2923 385.017 79.5885 385.02 79.9629H387.071ZM391.03 83H389.658V77.8145H390.932V78.5518C391.15 78.2035 391.345 77.974 391.518 77.8633C391.694 77.7526 391.892 77.6973 392.114 77.6973C392.426 77.6973 392.727 77.7835 393.017 77.9561L392.592 79.1523C392.361 79.0026 392.146 78.9277 391.948 78.9277C391.756 78.9277 391.593 78.9814 391.459 79.0889C391.326 79.193 391.22 79.3835 391.142 79.6602C391.067 79.9368 391.03 80.5163 391.03 81.3984V83ZM396.151 77.8145V78.9082H395.213V80.998C395.213 81.4212 395.221 81.6686 395.238 81.7402C395.257 81.8086 395.298 81.8656 395.36 81.9111C395.425 81.9567 395.503 81.9795 395.594 81.9795C395.721 81.9795 395.905 81.9355 396.146 81.8477L396.263 82.9121C395.944 83.0488 395.583 83.1172 395.179 83.1172C394.932 83.1172 394.709 83.0765 394.51 82.9951C394.311 82.9105 394.165 82.8031 394.071 82.6729C393.979 82.5394 393.916 82.3604 393.88 82.1357C393.851 81.9762 393.836 81.654 393.836 81.1689V78.9082H393.206V77.8145H393.836V76.7842L395.213 75.9834V77.8145H396.151ZM405.222 82.9072H406.262C405.936 83.568 405.437 84.0856 404.763 84.46C403.991 84.8896 403.051 85.1045 401.941 85.1045C400.866 85.1045 399.939 84.9222 399.157 84.5576C398.376 84.1963 397.795 83.6624 397.414 82.9561C397.033 82.2464 396.843 81.4749 396.843 80.6416C396.843 79.7269 397.059 78.8757 397.492 78.0879C397.925 77.2969 398.518 76.7044 399.27 76.3105C400.022 75.9134 400.881 75.7148 401.848 75.7148C402.668 75.7148 403.397 75.8743 404.035 76.1934C404.673 76.5124 405.16 76.9665 405.495 77.5557C405.834 78.1416 406.003 78.7829 406.003 79.4795C406.003 80.3096 405.747 81.0599 405.236 81.7305C404.595 82.5768 403.773 83 402.771 83C402.5 83 402.297 82.9528 402.16 82.8584C402.024 82.764 401.932 82.6257 401.887 82.4434C401.503 82.8145 401.06 83 400.559 83C400.018 83 399.569 82.8145 399.211 82.4434C398.856 82.069 398.679 81.5726 398.679 80.9541C398.679 80.1891 398.894 79.4909 399.323 78.8594C399.844 78.0911 400.511 77.707 401.325 77.707C401.905 77.707 402.333 77.9284 402.609 78.3711L402.732 77.8291H404.021L403.283 81.3301C403.238 81.5514 403.215 81.6947 403.215 81.7598C403.215 81.8411 403.233 81.903 403.269 81.9453C403.308 81.9844 403.353 82.0039 403.405 82.0039C403.562 82.0039 403.763 81.9095 404.011 81.7207C404.343 81.4733 404.611 81.1413 404.816 80.7246C405.022 80.3079 405.124 79.8766 405.124 79.4307C405.124 78.6299 404.834 77.9609 404.255 77.4238C403.676 76.8835 402.867 76.6133 401.828 76.6133C400.946 76.6133 400.197 76.7939 399.582 77.1553C398.97 77.5133 398.508 78.0195 398.195 78.6738C397.886 79.3249 397.732 80.0036 397.732 80.71C397.732 81.3968 397.904 82.0218 398.249 82.585C398.597 83.1481 399.084 83.5583 399.709 83.8154C400.337 84.0758 401.055 84.2061 401.862 84.2061C402.64 84.2061 403.309 84.097 403.869 83.8789C404.429 83.6641 404.88 83.3402 405.222 82.9072ZM399.943 80.9004C399.943 81.3138 400.026 81.6182 400.192 81.8135C400.362 82.0088 400.57 82.1064 400.817 82.1064C401.003 82.1064 401.177 82.0609 401.34 81.9697C401.464 81.9046 401.586 81.8021 401.706 81.6621C401.879 81.4635 402.027 81.1738 402.15 80.793C402.277 80.4121 402.341 80.0573 402.341 79.7285C402.341 79.3607 402.255 79.0791 402.082 78.8838C401.913 78.6852 401.698 78.5859 401.438 78.5859C401.158 78.5859 400.899 78.695 400.661 78.9131C400.424 79.1279 400.245 79.4355 400.124 79.8359C400.004 80.2363 399.943 80.5911 399.943 80.9004ZM407.052 83.3418L408.619 83.5322C408.645 83.7145 408.705 83.8398 408.8 83.9082C408.93 84.0059 409.135 84.0547 409.415 84.0547C409.773 84.0547 410.042 84.001 410.221 83.8936C410.341 83.8219 410.432 83.7064 410.494 83.5469C410.536 83.4329 410.558 83.223 410.558 82.917V82.1602C410.147 82.7201 409.63 83 409.005 83C408.308 83 407.756 82.7054 407.35 82.1162C407.031 81.6507 406.871 81.0713 406.871 80.3779C406.871 79.5088 407.079 78.8447 407.496 78.3857C407.916 77.9268 408.437 77.6973 409.059 77.6973C409.7 77.6973 410.229 77.9788 410.645 78.542V77.8145H411.93V82.4678C411.93 83.0798 411.879 83.5371 411.778 83.8398C411.677 84.1426 411.536 84.3802 411.353 84.5527C411.171 84.7253 410.927 84.8604 410.621 84.958C410.318 85.0557 409.934 85.1045 409.469 85.1045C408.59 85.1045 407.966 84.9531 407.599 84.6504C407.231 84.3509 407.047 83.9701 407.047 83.5078C407.047 83.4622 407.048 83.4069 407.052 83.3418ZM408.277 80.2998C408.277 80.8499 408.383 81.2536 408.595 81.5107C408.809 81.7646 409.073 81.8916 409.386 81.8916C409.721 81.8916 410.004 81.7614 410.235 81.501C410.466 81.2373 410.582 80.8483 410.582 80.334C410.582 79.7969 410.471 79.3981 410.25 79.1377C410.029 78.8773 409.749 78.7471 409.41 78.7471C409.081 78.7471 408.809 78.8757 408.595 79.1328C408.383 79.3867 408.277 79.7757 408.277 80.2998ZM413.349 77.8145H414.614V78.5225C415.066 77.9723 415.605 77.6973 416.23 77.6973C416.562 77.6973 416.85 77.7656 417.094 77.9023C417.339 78.0391 417.539 78.2458 417.695 78.5225C417.923 78.2458 418.169 78.0391 418.432 77.9023C418.696 77.7656 418.978 77.6973 419.277 77.6973C419.658 77.6973 419.98 77.7754 420.244 77.9316C420.508 78.0846 420.705 78.3109 420.835 78.6104C420.929 78.8317 420.976 79.1898 420.976 79.6846V83H419.604V80.0361C419.604 79.5218 419.557 79.1898 419.463 79.04C419.336 78.8447 419.14 78.7471 418.877 78.7471C418.685 78.7471 418.504 78.8057 418.335 78.9229C418.165 79.04 418.043 79.2126 417.969 79.4404C417.894 79.665 417.856 80.0215 417.856 80.5098V83H416.484V80.1582C416.484 79.6536 416.46 79.3281 416.411 79.1816C416.362 79.0352 416.286 78.9261 416.181 78.8545C416.08 78.7829 415.942 78.7471 415.766 78.7471C415.555 78.7471 415.364 78.804 415.195 78.918C415.026 79.0319 414.904 79.1963 414.829 79.4111C414.757 79.626 414.721 79.9824 414.721 80.4805V83H413.349V77.8145ZM423.534 79.3965L422.289 79.1719C422.429 78.6706 422.67 78.2995 423.011 78.0586C423.353 77.8177 423.861 77.6973 424.535 77.6973C425.147 77.6973 425.602 77.7705 425.902 77.917C426.201 78.0602 426.411 78.2441 426.532 78.4688C426.656 78.6901 426.717 79.0986 426.717 79.6943L426.703 81.2959C426.703 81.7516 426.724 82.0885 426.766 82.3066C426.812 82.5215 426.895 82.7526 427.015 83H425.658C425.622 82.9089 425.578 82.7738 425.526 82.5947C425.503 82.5133 425.487 82.4596 425.477 82.4336C425.243 82.6615 424.992 82.8324 424.725 82.9463C424.458 83.0602 424.173 83.1172 423.871 83.1172C423.337 83.1172 422.915 82.9723 422.606 82.6826C422.3 82.3929 422.147 82.0267 422.147 81.584C422.147 81.291 422.217 81.0306 422.357 80.8027C422.497 80.5716 422.692 80.3958 422.943 80.2754C423.197 80.1517 423.561 80.0443 424.037 79.9531C424.678 79.8327 425.122 79.7204 425.37 79.6162V79.4795C425.37 79.2158 425.305 79.0286 425.174 78.918C425.044 78.804 424.798 78.7471 424.437 78.7471C424.193 78.7471 424.003 78.7959 423.866 78.8936C423.729 78.988 423.618 79.1556 423.534 79.3965ZM425.37 80.5098C425.194 80.5684 424.916 80.6383 424.535 80.7197C424.154 80.8011 423.905 80.8809 423.788 80.959C423.609 81.0859 423.519 81.2471 423.519 81.4424C423.519 81.6344 423.591 81.8005 423.734 81.9404C423.877 82.0804 424.06 82.1504 424.281 82.1504C424.528 82.1504 424.764 82.069 424.989 81.9062C425.155 81.7826 425.264 81.6312 425.316 81.4521C425.352 81.335 425.37 81.112 425.37 80.7832V80.5098ZM428.235 77.1113V75.8418H429.607V77.1113H428.235ZM428.235 83V77.8145H429.607V83H428.235ZM431.178 83V75.8418H432.55V83H431.178ZM434.121 83V81.6279H435.493V83H434.121ZM441.586 79.3477L440.233 79.5918C440.188 79.3216 440.084 79.1182 439.921 78.9814C439.761 78.8447 439.553 78.7764 439.296 78.7764C438.954 78.7764 438.681 78.8952 438.476 79.1328C438.274 79.3672 438.173 79.7611 438.173 80.3145C438.173 80.9297 438.275 81.3643 438.48 81.6182C438.689 81.8721 438.967 81.999 439.315 81.999C439.576 81.999 439.789 81.9258 439.955 81.7793C440.121 81.6296 440.238 81.374 440.307 81.0127L441.654 81.2422C441.514 81.8607 441.246 82.3278 440.849 82.6436C440.451 82.9593 439.919 83.1172 439.252 83.1172C438.493 83.1172 437.888 82.8779 437.436 82.3994C436.986 81.9209 436.762 81.2585 436.762 80.4121C436.762 79.556 436.988 78.8903 437.44 78.415C437.893 77.9365 438.505 77.6973 439.276 77.6973C439.908 77.6973 440.409 77.834 440.78 78.1074C441.155 78.3776 441.423 78.791 441.586 79.3477ZM442.473 80.334C442.473 79.8783 442.586 79.4372 442.81 79.0107C443.035 78.5843 443.352 78.2588 443.762 78.0342C444.176 77.8096 444.637 77.6973 445.144 77.6973C445.929 77.6973 446.572 77.9528 447.073 78.4639C447.574 78.9717 447.825 79.6146 447.825 80.3926C447.825 81.1771 447.571 81.8281 447.063 82.3457C446.559 82.86 445.922 83.1172 445.154 83.1172C444.679 83.1172 444.225 83.0098 443.792 82.7949C443.362 82.5801 443.035 82.266 442.81 81.8525C442.586 81.4359 442.473 80.9297 442.473 80.334ZM443.88 80.4072C443.88 80.9215 444.002 81.3154 444.246 81.5889C444.49 81.8623 444.791 81.999 445.149 81.999C445.507 81.999 445.807 81.8623 446.048 81.5889C446.292 81.3154 446.414 80.9183 446.414 80.3975C446.414 79.8896 446.292 79.499 446.048 79.2256C445.807 78.9521 445.507 78.8154 445.149 78.8154C444.791 78.8154 444.49 78.9521 444.246 79.2256C444.002 79.499 443.88 79.8929 443.88 80.4072ZM448.962 77.8145H450.226V78.5225C450.679 77.9723 451.217 77.6973 451.842 77.6973C452.174 77.6973 452.463 77.7656 452.707 77.9023C452.951 78.0391 453.151 78.2458 453.307 78.5225C453.535 78.2458 453.781 78.0391 454.045 77.9023C454.308 77.7656 454.59 77.6973 454.889 77.6973C455.27 77.6973 455.592 77.7754 455.856 77.9316C456.12 78.0846 456.317 78.3109 456.447 78.6104C456.541 78.8317 456.589 79.1898 456.589 79.6846V83H455.216V80.0361C455.216 79.5218 455.169 79.1898 455.075 79.04C454.948 78.8447 454.753 78.7471 454.489 78.7471C454.297 78.7471 454.116 78.8057 453.947 78.9229C453.778 79.04 453.656 79.2126 453.581 79.4404C453.506 79.665 453.468 80.0215 453.468 80.5098V83H452.096V80.1582C452.096 79.6536 452.072 79.3281 452.023 79.1816C451.974 79.0352 451.898 78.9261 451.794 78.8545C451.693 78.7829 451.554 78.7471 451.379 78.7471C451.167 78.7471 450.977 78.804 450.807 78.918C450.638 79.0319 450.516 79.1963 450.441 79.4111C450.369 79.626 450.334 79.9824 450.334 80.4805V83H448.962V77.8145Z"
                    fill="#6D4AFF"
                />
                <path
                    d="M344.732 93.553L345.656 93.7863C345.462 94.5448 345.113 95.124 344.608 95.5239C344.107 95.9207 343.493 96.119 342.766 96.119C342.014 96.119 341.401 95.9667 340.928 95.662C340.458 95.3541 340.1 94.9098 339.852 94.329C339.608 93.7482 339.486 93.1245 339.486 92.458C339.486 91.7312 339.624 91.098 339.9 90.5585C340.179 90.0157 340.574 89.6047 341.085 89.3254C341.599 89.043 342.164 88.9017 342.78 88.9017C343.478 88.9017 344.065 89.0795 344.542 89.4349C345.018 89.7904 345.349 90.2903 345.536 90.9346L344.627 91.1488C344.465 90.641 344.23 90.2712 343.923 90.0396C343.615 89.8079 343.228 89.692 342.761 89.692C342.225 89.692 341.776 89.8206 341.414 90.0776C341.055 90.3347 340.803 90.6807 340.657 91.1155C340.511 91.5471 340.438 91.993 340.438 92.4532C340.438 93.0468 340.523 93.5657 340.695 94.01C340.869 94.4512 341.139 94.7812 341.504 95.0002C341.869 95.2192 342.264 95.3287 342.69 95.3287C343.207 95.3287 343.645 95.1796 344.004 94.8812C344.362 94.5829 344.605 94.1401 344.732 93.553ZM346.839 96V90.9441H347.61V91.7106C347.807 91.3519 347.988 91.1155 348.153 91.0012C348.321 90.887 348.505 90.8298 348.705 90.8298C348.994 90.8298 349.288 90.9219 349.586 91.106L349.291 91.901C349.081 91.7772 348.872 91.7153 348.662 91.7153C348.475 91.7153 348.307 91.7725 348.158 91.8867C348.009 91.9978 347.902 92.1533 347.839 92.3533C347.744 92.658 347.696 92.9912 347.696 93.353V96H346.839ZM353.716 94.3718L354.602 94.4813C354.462 94.9987 354.204 95.4001 353.826 95.6858C353.448 95.9714 352.966 96.1143 352.379 96.1143C351.639 96.1143 351.052 95.8873 350.617 95.4335C350.186 94.9764 349.97 94.3369 349.97 93.5149C349.97 92.6643 350.189 92.0042 350.627 91.5344C351.065 91.0647 351.633 90.8298 352.331 90.8298C353.007 90.8298 353.559 91.0599 353.988 91.5201C354.416 91.9803 354.631 92.6278 354.631 93.4625C354.631 93.5133 354.629 93.5895 354.626 93.691H350.855C350.887 94.2465 351.044 94.6718 351.327 94.9669C351.609 95.2621 351.961 95.4097 352.383 95.4097C352.698 95.4097 352.966 95.3271 353.188 95.1621C353.41 94.9971 353.586 94.7336 353.716 94.3718ZM350.903 92.9865H353.726C353.688 92.5612 353.58 92.2422 353.402 92.0295C353.129 91.6995 352.775 91.5344 352.341 91.5344C351.947 91.5344 351.615 91.6661 351.346 91.9296C351.079 92.193 350.931 92.5453 350.903 92.9865ZM359.142 95.3763C358.824 95.6461 358.518 95.8365 358.223 95.9476C357.931 96.0587 357.617 96.1143 357.28 96.1143C356.725 96.1143 356.298 95.9794 356 95.7096C355.701 95.4366 355.552 95.0891 355.552 94.667C355.552 94.4194 355.608 94.1941 355.719 93.991C355.833 93.7847 355.981 93.6196 356.162 93.4958C356.346 93.3721 356.552 93.2784 356.781 93.215C356.949 93.1705 357.203 93.1277 357.542 93.0864C358.234 93.0039 358.744 92.9055 359.07 92.7913C359.074 92.6738 359.075 92.5992 359.075 92.5675C359.075 92.2184 358.994 91.9724 358.832 91.8296C358.613 91.636 358.288 91.5392 357.856 91.5392C357.453 91.5392 357.155 91.6106 356.961 91.7534C356.771 91.8931 356.63 92.1422 356.538 92.5009L355.7 92.3866C355.776 92.028 355.901 91.7391 356.076 91.5201C356.251 91.298 356.503 91.1282 356.833 91.0107C357.163 90.8901 357.545 90.8298 357.98 90.8298C358.412 90.8298 358.763 90.8806 359.032 90.9822C359.302 91.0837 359.501 91.2123 359.627 91.3678C359.754 91.5201 359.843 91.7137 359.894 91.9486C359.923 92.0946 359.937 92.358 359.937 92.7389V93.8815C359.937 94.6781 359.954 95.1827 359.989 95.3954C360.027 95.6049 360.1 95.8064 360.208 96H359.313C359.224 95.8223 359.167 95.6144 359.142 95.3763ZM359.07 93.4625C358.759 93.5895 358.293 93.6974 357.671 93.7863C357.319 93.837 357.069 93.8942 356.923 93.9576C356.777 94.0211 356.665 94.1147 356.585 94.2385C356.506 94.3591 356.466 94.494 356.466 94.6432C356.466 94.8717 356.552 95.0621 356.723 95.2145C356.898 95.3668 357.152 95.443 357.485 95.443C357.815 95.443 358.109 95.3716 358.366 95.2288C358.623 95.0828 358.812 94.8844 358.932 94.6337C359.024 94.4401 359.07 94.1544 359.07 93.7767V93.4625ZM363.301 95.2335L363.425 95.9905C363.183 96.0413 362.968 96.0667 362.777 96.0667C362.466 96.0667 362.225 96.0175 362.054 95.9191C361.882 95.8207 361.762 95.6921 361.692 95.5334C361.622 95.3716 361.587 95.0336 361.587 94.5194V91.6106H360.959V90.9441H361.587V89.692L362.439 89.1779V90.9441H363.301V91.6106H362.439V94.567C362.439 94.8114 362.453 94.9685 362.482 95.0383C362.514 95.1082 362.563 95.1637 362.63 95.205C362.699 95.2462 362.798 95.2668 362.925 95.2668C363.02 95.2668 363.145 95.2557 363.301 95.2335ZM367.765 94.3718L368.65 94.4813C368.51 94.9987 368.252 95.4001 367.874 95.6858C367.496 95.9714 367.014 96.1143 366.427 96.1143C365.687 96.1143 365.1 95.8873 364.665 95.4335C364.234 94.9764 364.018 94.3369 364.018 93.5149C364.018 92.6643 364.237 92.0042 364.675 91.5344C365.113 91.0647 365.681 90.8298 366.379 90.8298C367.055 90.8298 367.607 91.0599 368.036 91.5201C368.464 91.9803 368.679 92.6278 368.679 93.4625C368.679 93.5133 368.677 93.5895 368.674 93.691H364.903C364.935 94.2465 365.092 94.6718 365.375 94.9669C365.657 95.2621 366.009 95.4097 366.432 95.4097C366.746 95.4097 367.014 95.3271 367.236 95.1621C367.458 94.9971 367.634 94.7336 367.765 94.3718ZM364.951 92.9865H367.774C367.736 92.5612 367.628 92.2422 367.45 92.0295C367.177 91.6995 366.824 91.5344 366.389 91.5344C365.995 91.5344 365.664 91.6661 365.394 91.9296C365.127 92.193 364.98 92.5453 364.951 92.9865ZM373.171 96V95.3621C372.85 95.8635 372.379 96.1143 371.757 96.1143C371.354 96.1143 370.983 96.0032 370.643 95.781C370.307 95.5588 370.045 95.2494 369.857 94.8527C369.673 94.4528 369.581 93.9941 369.581 93.4768C369.581 92.9722 369.665 92.5151 369.834 92.1057C370.002 91.6931 370.254 91.3773 370.591 91.1583C370.927 90.9393 371.303 90.8298 371.719 90.8298C372.024 90.8298 372.295 90.8949 372.533 91.025C372.771 91.152 372.965 91.3186 373.114 91.5249V89.0208H373.966V96H373.171ZM370.462 93.4768C370.462 94.1243 370.599 94.6083 370.871 94.9288C371.144 95.2494 371.467 95.4097 371.838 95.4097C372.212 95.4097 372.53 95.2573 372.79 94.9526C373.054 94.6448 373.185 94.1766 373.185 93.5482C373.185 92.8563 373.052 92.3485 372.785 92.0248C372.519 91.701 372.19 91.5392 371.8 91.5392C371.419 91.5392 371.1 91.6947 370.843 92.0057C370.589 92.3168 370.462 92.8071 370.462 93.4768ZM378.033 93.472C378.033 92.5358 378.293 91.8423 378.813 91.3916C379.248 91.0171 379.778 90.8298 380.404 90.8298C381.099 90.8298 381.667 91.0583 382.108 91.5154C382.549 91.9692 382.77 92.5977 382.77 93.4006C382.77 94.0513 382.671 94.5638 382.474 94.9384C382.281 95.3097 381.997 95.5985 381.622 95.8048C381.251 96.0111 380.845 96.1143 380.404 96.1143C379.696 96.1143 379.123 95.8873 378.685 95.4335C378.25 94.9796 378.033 94.3258 378.033 93.472ZM378.913 93.472C378.913 94.1195 379.055 94.6051 379.337 94.9288C379.62 95.2494 379.975 95.4097 380.404 95.4097C380.829 95.4097 381.183 95.2478 381.465 94.9241C381.748 94.6003 381.889 94.1068 381.889 93.4435C381.889 92.8182 381.746 92.3453 381.46 92.0248C381.178 91.701 380.826 91.5392 380.404 91.5392C379.975 91.5392 379.62 91.6995 379.337 92.02C379.055 92.3406 378.913 92.8246 378.913 93.472ZM383.939 96V90.9441H384.71V91.663C385.081 91.1075 385.618 90.8298 386.319 90.8298C386.624 90.8298 386.903 90.8854 387.157 90.9965C387.414 91.1044 387.606 91.2472 387.733 91.4249C387.86 91.6027 387.949 91.8137 388 92.0581C388.032 92.2168 388.047 92.4945 388.047 92.8912V96H387.19V92.9246C387.19 92.5754 387.157 92.3152 387.091 92.1438C387.024 91.9692 386.905 91.8312 386.733 91.7296C386.565 91.6249 386.367 91.5725 386.138 91.5725C385.773 91.5725 385.458 91.6884 385.191 91.92C384.928 92.1517 384.796 92.5913 384.796 93.2388V96H383.939ZM392.481 96V89.0208H393.871L395.523 93.9624C395.675 94.4226 395.786 94.767 395.856 94.9955C395.935 94.7416 396.059 94.3687 396.227 93.8767L397.898 89.0208H399.141V96H398.251V90.1586L396.223 96H395.39L393.371 90.0586V96H392.481ZM403.981 95.3763C403.663 95.6461 403.357 95.8365 403.062 95.9476C402.77 96.0587 402.456 96.1143 402.119 96.1143C401.564 96.1143 401.137 95.9794 400.839 95.7096C400.54 95.4366 400.391 95.0891 400.391 94.667C400.391 94.4194 400.447 94.1941 400.558 93.991C400.672 93.7847 400.82 93.6196 401.001 93.4958C401.185 93.3721 401.391 93.2784 401.619 93.215C401.788 93.1705 402.042 93.1277 402.381 93.0864C403.073 93.0039 403.582 92.9055 403.909 92.7913C403.913 92.6738 403.914 92.5992 403.914 92.5675C403.914 92.2184 403.833 91.9724 403.671 91.8296C403.452 91.636 403.127 91.5392 402.695 91.5392C402.292 91.5392 401.994 91.6106 401.8 91.7534C401.61 91.8931 401.469 92.1422 401.377 92.5009L400.539 92.3866C400.615 92.028 400.74 91.7391 400.915 91.5201C401.089 91.298 401.342 91.1282 401.672 91.0107C402.002 90.8901 402.384 90.8298 402.819 90.8298C403.251 90.8298 403.602 90.8806 403.871 90.9822C404.141 91.0837 404.339 91.2123 404.466 91.3678C404.593 91.5201 404.682 91.7137 404.733 91.9486C404.762 92.0946 404.776 92.358 404.776 92.7389V93.8815C404.776 94.6781 404.793 95.1827 404.828 95.3954C404.866 95.6049 404.939 95.8064 405.047 96H404.152C404.063 95.8223 404.006 95.6144 403.981 95.3763ZM403.909 93.4625C403.598 93.5895 403.132 93.6974 402.51 93.7863C402.157 93.837 401.908 93.8942 401.762 93.9576C401.616 94.0211 401.504 94.1147 401.424 94.2385C401.345 94.3591 401.305 94.494 401.305 94.6432C401.305 94.8717 401.391 95.0621 401.562 95.2145C401.737 95.3668 401.991 95.443 402.324 95.443C402.654 95.443 402.948 95.3716 403.205 95.2288C403.462 95.0828 403.651 94.8844 403.771 94.6337C403.863 94.4401 403.909 94.1544 403.909 93.7767V93.4625ZM406.231 97.9471L406.136 97.1426C406.323 97.1934 406.486 97.2188 406.626 97.2188C406.816 97.2188 406.969 97.187 407.083 97.1235C407.197 97.0601 407.291 96.9712 407.364 96.8569C407.418 96.7712 407.505 96.5586 407.626 96.219C407.642 96.1714 407.667 96.1016 407.702 96.0095L405.783 90.9441H406.707L407.759 93.8719C407.895 94.2433 408.018 94.6337 408.126 95.0431C408.224 94.6495 408.341 94.2655 408.478 93.891L409.559 90.9441H410.415L408.492 96.0857C408.286 96.6411 408.126 97.0236 408.011 97.233C407.859 97.5155 407.684 97.7218 407.488 97.8519C407.291 97.9852 407.056 98.0519 406.783 98.0519C406.618 98.0519 406.434 98.017 406.231 97.9471ZM413.944 94.1576L414.801 94.0433C414.9 94.5289 415.066 94.8796 415.301 95.0955C415.539 95.3081 415.828 95.4144 416.167 95.4144C416.571 95.4144 416.91 95.2748 417.186 94.9955C417.466 94.7162 417.605 94.3702 417.605 93.9576C417.605 93.5641 417.477 93.2404 417.22 92.9865C416.963 92.7294 416.636 92.6008 416.239 92.6008C416.077 92.6008 415.875 92.6326 415.634 92.696L415.729 91.9438C415.787 91.9502 415.833 91.9534 415.868 91.9534C416.233 91.9534 416.561 91.8582 416.853 91.6677C417.145 91.4773 417.291 91.1837 417.291 90.787C417.291 90.4728 417.185 90.2125 416.972 90.0062C416.759 89.7999 416.485 89.6968 416.148 89.6968C415.815 89.6968 415.537 89.8015 415.315 90.011C415.093 90.2205 414.95 90.5347 414.887 90.9536L414.03 90.8013C414.135 90.2268 414.373 89.7825 414.744 89.4683C415.115 89.1509 415.577 88.9922 416.129 88.9922C416.51 88.9922 416.861 89.0747 417.181 89.2397C417.502 89.4016 417.746 89.6238 417.915 89.9062C418.086 90.1887 418.172 90.4886 418.172 90.806C418.172 91.1075 418.091 91.3821 417.929 91.6296C417.767 91.8772 417.527 92.074 417.21 92.22C417.623 92.3152 417.943 92.5135 418.172 92.8151C418.4 93.1134 418.515 93.4879 418.515 93.9386C418.515 94.548 418.292 95.0653 417.848 95.4906C417.404 95.9127 416.842 96.1238 416.163 96.1238C415.55 96.1238 415.041 95.9413 414.634 95.5763C414.231 95.2113 414.001 94.7384 413.944 94.1576ZM419.527 92.558C419.527 91.7328 419.611 91.0695 419.779 90.568C419.95 90.0634 420.203 89.6746 420.536 89.4016C420.872 89.1287 421.294 88.9922 421.802 88.9922C422.177 88.9922 422.505 89.0684 422.788 89.2207C423.07 89.3699 423.304 89.5873 423.488 89.8729C423.672 90.1554 423.816 90.5013 423.921 90.9108C424.026 91.317 424.078 91.8661 424.078 92.558C424.078 93.3768 423.994 94.0386 423.826 94.5432C423.657 95.0447 423.405 95.4335 423.069 95.7096C422.735 95.9825 422.313 96.119 421.802 96.119C421.129 96.119 420.601 95.8778 420.217 95.3954C419.757 94.8146 419.527 93.8688 419.527 92.558ZM420.407 92.558C420.407 93.7037 420.541 94.467 420.807 94.8479C421.077 95.2256 421.409 95.4144 421.802 95.4144C422.196 95.4144 422.526 95.224 422.793 94.8431C423.062 94.4623 423.197 93.7006 423.197 92.558C423.197 91.4091 423.062 90.6458 422.793 90.2681C422.526 89.8904 422.193 89.7015 421.793 89.7015C421.399 89.7015 421.085 89.8682 420.85 90.2014C420.555 90.6267 420.407 91.4122 420.407 92.558ZM425.576 96V95.024H426.552V96C426.552 96.3586 426.488 96.6475 426.361 96.8665C426.234 97.0886 426.033 97.26 425.757 97.3806L425.519 97.014C425.699 96.9347 425.833 96.8173 425.918 96.6617C426.004 96.5094 426.052 96.2888 426.061 96H425.576ZM435.365 95.1764V96H430.752C430.745 95.7937 430.779 95.5953 430.852 95.4049C430.969 95.0907 431.156 94.7812 431.413 94.4766C431.674 94.1719 432.048 93.8196 432.537 93.4197C433.295 92.7976 433.808 92.3057 434.075 91.9438C434.341 91.5789 434.475 91.2345 434.475 90.9108C434.475 90.5712 434.352 90.2855 434.108 90.0538C433.867 89.819 433.551 89.7015 433.161 89.7015C432.748 89.7015 432.418 89.8253 432.17 90.0729C431.923 90.3204 431.797 90.6632 431.794 91.1012L430.914 91.0107C430.974 90.3538 431.201 89.8539 431.594 89.5111C431.988 89.1652 432.516 88.9922 433.18 88.9922C433.849 88.9922 434.379 89.1779 434.77 89.5492C435.16 89.9205 435.355 90.3807 435.355 90.9298C435.355 91.2091 435.298 91.4836 435.184 91.7534C435.07 92.0232 434.879 92.3073 434.613 92.6056C434.349 92.9039 433.91 93.3134 433.294 93.8339C432.78 94.2655 432.45 94.5591 432.304 94.7146C432.158 94.8669 432.037 95.0209 431.942 95.1764H435.365ZM436.448 92.558C436.448 91.7328 436.533 91.0695 436.701 90.568C436.872 90.0634 437.124 89.6746 437.458 89.4016C437.794 89.1287 438.216 88.9922 438.724 88.9922C439.099 88.9922 439.427 89.0684 439.71 89.2207C439.992 89.3699 440.225 89.5873 440.409 89.8729C440.593 90.1554 440.738 90.5013 440.843 90.9108C440.947 91.317 441 91.8661 441 92.558C441 93.3768 440.916 94.0386 440.747 94.5432C440.579 95.0447 440.327 95.4335 439.99 95.7096C439.657 95.9825 439.235 96.119 438.724 96.119C438.051 96.119 437.523 95.8778 437.139 95.3954C436.679 94.8146 436.448 93.8688 436.448 92.558ZM437.329 92.558C437.329 93.7037 437.462 94.467 437.729 94.8479C437.999 95.2256 438.33 95.4144 438.724 95.4144C439.118 95.4144 439.448 95.224 439.714 94.8431C439.984 94.4623 440.119 93.7006 440.119 92.558C440.119 91.4091 439.984 90.6458 439.714 90.2681C439.448 89.8904 439.114 89.7015 438.715 89.7015C438.321 89.7015 438.007 89.8682 437.772 90.2014C437.477 90.6267 437.329 91.4122 437.329 92.558ZM446.539 95.1764V96H441.926C441.92 95.7937 441.953 95.5953 442.026 95.4049C442.144 95.0907 442.331 94.7812 442.588 94.4766C442.848 94.1719 443.223 93.8196 443.711 93.4197C444.47 92.7976 444.983 92.3057 445.249 91.9438C445.516 91.5789 445.649 91.2345 445.649 90.9108C445.649 90.5712 445.527 90.2855 445.282 90.0538C445.041 89.819 444.725 89.7015 444.335 89.7015C443.923 89.7015 443.592 89.8253 443.345 90.0729C443.097 90.3204 442.972 90.6632 442.969 91.1012L442.088 91.0107C442.148 90.3538 442.375 89.8539 442.769 89.5111C443.162 89.1652 443.691 88.9922 444.354 88.9922C445.024 88.9922 445.554 89.1779 445.944 89.5492C446.335 89.9205 446.53 90.3807 446.53 90.9298C446.53 91.2091 446.473 91.4836 446.358 91.7534C446.244 92.0232 446.054 92.3073 445.787 92.6056C445.524 92.9039 445.084 93.3134 444.468 93.8339C443.954 94.2655 443.624 94.5591 443.478 94.7146C443.332 94.8669 443.212 95.0209 443.116 95.1764H446.539ZM447.628 94.1576L448.485 94.0433C448.583 94.5289 448.75 94.8796 448.984 95.0955C449.223 95.3081 449.511 95.4144 449.851 95.4144C450.254 95.4144 450.594 95.2748 450.87 94.9955C451.149 94.7162 451.289 94.3702 451.289 93.9576C451.289 93.5641 451.16 93.2404 450.903 92.9865C450.646 92.7294 450.319 92.6008 449.922 92.6008C449.76 92.6008 449.559 92.6326 449.318 92.696L449.413 91.9438C449.47 91.9502 449.516 91.9534 449.551 91.9534C449.916 91.9534 450.244 91.8582 450.536 91.6677C450.828 91.4773 450.974 91.1837 450.974 90.787C450.974 90.4728 450.868 90.2125 450.655 90.0062C450.443 89.7999 450.168 89.6968 449.832 89.6968C449.499 89.6968 449.221 89.8015 448.999 90.011C448.777 90.2205 448.634 90.5347 448.57 90.9536L447.713 90.8013C447.818 90.2268 448.056 89.7825 448.427 89.4683C448.799 89.1509 449.261 88.9922 449.813 88.9922C450.194 88.9922 450.544 89.0747 450.865 89.2397C451.186 89.4016 451.43 89.6238 451.598 89.9062C451.77 90.1887 451.855 90.4886 451.855 90.806C451.855 91.1075 451.774 91.3821 451.612 91.6296C451.451 91.8772 451.211 92.074 450.894 92.22C451.306 92.3152 451.627 92.5135 451.855 92.8151C452.084 93.1134 452.198 93.4879 452.198 93.9386C452.198 94.548 451.976 95.0653 451.531 95.4906C451.087 95.9127 450.525 96.1238 449.846 96.1238C449.234 96.1238 448.724 95.9413 448.318 95.5763C447.915 95.2113 447.685 94.7384 447.628 94.1576Z"
                    fill="#5C5958"
                />
                <rect x="57" y="29" width="335" height="191" fill="url(#paint2_linear_3004_50218)" />
            </g>
            <path
                d="M57.5 29.5H391.5V208C391.5 214.351 386.351 219.5 380 219.5H57.5V29.5Z"
                stroke="url(#paint3_linear_3004_50218)"
            />
        </g>
    </g>
    <defs>
        <filter
            id="filter0_ddd_3004_50218"
            x="-11.1871"
            y="-18.7813"
            width="471.374"
            height="327.374"
            filterUnits="userSpaceOnUse"
            color-interpolation-filters="sRGB"
        >
            <feFlood flood-opacity="0" result="BackgroundImageFix" />
            <feColorMatrix
                in="SourceAlpha"
                type="matrix"
                values="0 0 0 0 0 0 0 0 0 0 0 0 0 0 0 0 0 0 127 0"
                result="hardAlpha"
            />
            <feOffset dy="1.6627" />
            <feGaussianBlur stdDeviation="2.77799" />
            <feColorMatrix
                type="matrix"
                values="0 0 0 0 0.290196 0 0 0 0 0.176471 0 0 0 0 0.772549 0 0 0 0.0431852 0"
            />
            <feBlend mode="normal" in2="BackgroundImageFix" result="effect1_dropShadow_3004_50218" />
            <feColorMatrix
                in="SourceAlpha"
                type="matrix"
                values="0 0 0 0 0 0 0 0 0 0 0 0 0 0 0 0 0 0 127 0"
                result="hardAlpha"
            />
            <feOffset dy="7.86002" />
            <feGaussianBlur stdDeviation="10.8594" />
            <feColorMatrix
                type="matrix"
                values="0 0 0 0 0.290196 0 0 0 0 0.176471 0 0 0 0 0.772549 0 0 0 0.0668148 0"
            />
            <feBlend mode="normal" in2="effect1_dropShadow_3004_50218" result="effect2_dropShadow_3004_50218" />
            <feColorMatrix
                in="SourceAlpha"
                type="matrix"
                values="0 0 0 0 0 0 0 0 0 0 0 0 0 0 0 0 0 0 127 0"
                result="hardAlpha"
            />
            <feOffset dy="20.4058" />
            <feGaussianBlur stdDeviation="34.0935" />
            <feColorMatrix type="matrix" values="0 0 0 0 0.290196 0 0 0 0 0.176471 0 0 0 0 0.772549 0 0 0 0.11 0" />
            <feBlend mode="normal" in2="effect2_dropShadow_3004_50218" result="effect3_dropShadow_3004_50218" />
            <feBlend mode="normal" in="SourceGraphic" in2="effect3_dropShadow_3004_50218" result="shape" />
        </filter>
        <linearGradient
            id="paint0_linear_3004_50218"
            x1="-15.4259"
            y1="-8.02919"
            x2="385.943"
            y2="249.849"
            gradientUnits="userSpaceOnUse"
        >
            <stop stop-color="#ECAAFF" />
            <stop offset="1" stop-color="#6A48F6" />
        </linearGradient>
        <linearGradient
            id="paint1_linear_3004_50218"
            x1="107.721"
            y1="87.7195"
            x2="107.721"
            y2="80.1854"
            gradientUnits="userSpaceOnUse"
        >
            <stop stop-color="#6D4BFD" />
            <stop offset="1" stop-color="#1C0554" />
        </linearGradient>
        <linearGradient
            id="paint2_linear_3004_50218"
            x1="350.5"
            y1="220"
            x2="302.257"
            y2="151.32"
            gradientUnits="userSpaceOnUse"
        >
            <stop stop-color="#6D4AFF" stop-opacity="0.05" />
            <stop offset="1" stop-color="#6D4AFF" stop-opacity="0" />
        </linearGradient>
        <linearGradient id="paint3_linear_3004_50218" x1="57" y1="29" x2="392" y2="224" gradientUnits="userSpaceOnUse">
            <stop stop-color="#E2DBFF" />
            <stop offset="1" stop-color="#F2EDFD" />
        </linearGradient>
        <clipPath id="clip0_3004_50218">
            <rect width="392" height="220" rx="12" fill="white" />
        </clipPath>
        <clipPath id="clip1_3004_50218">
            <path d="M57 29H392V208C392 214.627 386.627 220 380 220H57V29Z" fill="white" />
        </clipPath>
    </defs>
</svg>
