<svg xmlns="http://www.w3.org/2000/svg" width="137" height="160" fill="none" viewBox="0 0 137 160">
  <defs/>
  <path fill="#EBEDF3" fill-rule="evenodd" d="M97.03 24H33.6a5.6 5.6 0 00-5.6 5.6v124.8c0 3.1 2.5 5.6 5.6 5.6h97.6c3.1 0 5.6-2.5 5.6-5.6V63.77L97.03 24z" clip-rule="evenodd"/>
  <path fill="url(#paint0_linear)" fill-rule="evenodd" d="M102.11 122.11a28.77 28.77 0 10-40.69-40.68 28.77 28.77 0 0040.69 40.68zm-1.76-31.68a21.78 21.78 0 01-29.92 29.92l29.92-29.92zm-4.57-5.33L65.1 115.78A21.77 21.77 0 0195.78 85.1z" clip-rule="evenodd" opacity=".3"/>
  <mask id="a" width="62" height="79" x="27" y="24" maskUnits="userSpaceOnUse">
    <path fill="#C4C4C4" d="M89 24H28v78.57h61V24z"/>
  </mask>
  <g filter="url(#filter0_f)" mask="url(#a)" opacity=".3">
    <path fill="#221548" d="M65.4.92L28 24v54.5l12.24-8.55a58.93 58.93 0 0025.15-48.29V.92z"/>
  </g>
  <path fill="url(#paint1_linear)" d="M60 30a30 30 0 10-60 0 30 30 0 0060 0z"/>
  <path fill="#fff" d="M27.1 17.89a2.9 2.9 0 015.8 0L32.98 32a2.98 2.98 0 11-5.96 0l.08-14.11z"/>
  <circle cx="30" cy="42.2" r="3" fill="#fff"/>
  <path fill="#F8F8F8" fill-rule="evenodd" d="M97.03 24l39.77 39.77h-34.17a5.6 5.6 0 01-5.6-5.6V24z" clip-rule="evenodd"/>
  <defs>
    <linearGradient id="paint0_linear" x1="57.98" x2="87.48" y1="77.98" y2="151.98" gradientUnits="userSpaceOnUse">
      <stop stop-color="#5B6897"/>
      <stop offset="1" stop-color="#535D77"/>
    </linearGradient>
    <linearGradient id="paint1_linear" x1="30" x2="30" y1="3.16" y2="63.55" gradientUnits="userSpaceOnUse">
      <stop stop-color="#FF7171"/>
      <stop offset="1" stop-color="#E63757"/>
    </linearGradient>
    <filter id="filter0_f" width="70.79" height="110.98" x="11.3" y="-15.78" color-interpolation-filters="sRGB" filterUnits="userSpaceOnUse">
      <feFlood flood-opacity="0" result="BackgroundImageFix"/>
      <feBlend in="SourceGraphic" in2="BackgroundImageFix" result="shape"/>
      <feGaussianBlur result="effect1_foregroundBlur" stdDeviation="8.35"/>
    </filter>
  </defs>
</svg>
