<svg xmlns="http://www.w3.org/2000/svg" width="168" height="166" fill="none" viewBox="0 0 168 166">
  <defs/>
  <path fill="#EBEDF3" fill-rule="evenodd" d="M99.03 22H35.6a5.6 5.6 0 00-5.6 5.6v124.8a5.6 5.6 0 005.6 5.6h97.6a5.6 5.6 0 005.6-5.6V61.77L99.03 22z" clip-rule="evenodd"/>
  <path fill="url(#paint0_linear)" fill-rule="evenodd" d="M104.11 120.11a28.77 28.77 0 10-40.69-40.68 28.77 28.77 0 0040.69 40.68zm-1.76-31.68a21.78 21.78 0 01-29.92 29.92l29.92-29.92zm-4.57-5.33L67.1 113.78A21.77 21.77 0 0197.78 83.1z" clip-rule="evenodd" opacity=".3"/>
  <mask id="a" width="62" height="79" x="30" y="22" maskUnits="userSpaceOnUse">
    <path fill="#C4C4C4" d="M91 22H30v78.57h61V22z"/>
  </mask>
  <g filter="url(#filter0_f)" mask="url(#a)" opacity=".3">
    <path fill="#221548" d="M67.4-1.08L30 22v54.51l12.24-8.56a58.93 58.93 0 0025.15-48.29V-1.08z"/>
  </g>
  <path fill="#F8F8F8" fill-rule="evenodd" d="M99.03 22l39.77 39.77h-34.17a5.6 5.6 0 01-5.6-5.6V22z" clip-rule="evenodd"/>
  <path fill="url(#paint1_linear)" d="M60 30a30 30 0 10-60 0 30 30 0 0060 0z"/>
  <path fill="#fff" d="M27.1 17.89a2.9 2.9 0 015.8 0L32.98 32a2.98 2.98 0 11-5.96 0l.08-14.11z"/>
  <circle cx="30" cy="42.2" r="3" fill="#fff"/>
  <defs>
    <linearGradient id="paint0_linear" x1="59.98" x2="89.48" y1="75.98" y2="149.98" gradientUnits="userSpaceOnUse">
      <stop stop-color="#5B6897"/>
      <stop offset="1" stop-color="#535D77"/>
    </linearGradient>
    <linearGradient id="paint1_linear" x1="30" x2="30" y1="3.16" y2="63.55" gradientUnits="userSpaceOnUse">
      <stop stop-color="#FF7171"/>
      <stop offset="1" stop-color="#E63757"/>
    </linearGradient>
    <filter id="filter0_f" width="70.79" height="110.98" x="13.3" y="-17.78" color-interpolation-filters="sRGB" filterUnits="userSpaceOnUse">
      <feFlood flood-opacity="0" result="BackgroundImageFix"/>
      <feBlend in="SourceGraphic" in2="BackgroundImageFix" result="shape"/>
      <feGaussianBlur result="effect1_foregroundBlur" stdDeviation="8.35"/>
    </filter>
  </defs>
</svg>
