<svg xmlns="http://www.w3.org/2000/svg" width="352" height="128" fill="none" viewBox="0 0 352 128">
  <defs/>
  <path fill="url(#paint0_linear)" d="M96.46 68.52H83.5l-6.48 13.44v8.64h-13.8l25.56-51.54H67.42L40 95.04v13.62h37.02V123h19.44v-14.34h10.56V90.6H96.46V68.52z"/>
  <path fill="url(#paint1_linear)" d="M151.1 37.5c-20.59 0-36.97 16.26-36.97 43.5 0 27.18 16.38 43.5 36.96 43.5 20.64 0 37.02-16.32 37.02-43.5 0-27.24-16.38-43.5-37.02-43.5zm0 18.6c9.47 0 16.8 8.58 16.8 24.9s-7.33 24.9-16.8 24.9c-9.43 0-16.75-8.58-16.75-24.9s7.32-24.9 16.74-24.9z"/>
  <path fill="url(#paint2_linear)" d="M252.2 68.52h-12.96l-6.48 13.44v8.64h-13.8l25.56-51.54h-21.36l-27.42 55.98v13.62h37.02V123h19.44v-14.34h10.56V90.6H252.2V68.52z"/>
  <path fill="url(#paint3_linear)" d="M306.6 11.4a8 8 0 0113.72 0l30.35 50.48A8 8 0 01343.81 74h-60.7a8 8 0 01-6.86-12.12L306.6 11.4z"/>
  <path fill="#fff" d="M310.07 30.37a3.39 3.39 0 016.78 0l.1 18.13a3.48 3.48 0 11-6.97 0l.1-18.13zm6.89 29.13a3.5 3.5 0 11-7 0 3.5 3.5 0 017 0z"/>
  <defs>
    <linearGradient id="paint0_linear" x1="228.52" x2="254.13" y1="133.11" y2="34.13" gradientUnits="userSpaceOnUse">
      <stop stop-color="#A5A5A5" stop-opacity=".3"/>
      <stop offset="1" stop-color="#C6C6C6" stop-opacity=".3"/>
    </linearGradient>
    <linearGradient id="paint1_linear" x1="228.52" x2="254.13" y1="133.11" y2="34.13" gradientUnits="userSpaceOnUse">
      <stop stop-color="#A5A5A5" stop-opacity=".3"/>
      <stop offset="1" stop-color="#C6C6C6" stop-opacity=".3"/>
    </linearGradient>
    <linearGradient id="paint2_linear" x1="228.52" x2="254.13" y1="133.11" y2="34.13" gradientUnits="userSpaceOnUse">
      <stop stop-color="#A5A5A5" stop-opacity=".3"/>
      <stop offset="1" stop-color="#C6C6C6" stop-opacity=".3"/>
    </linearGradient>
    <linearGradient id="paint3_linear" x1="313.46" x2="313.46" y1="7.43" y2="103.52" gradientUnits="userSpaceOnUse">
      <stop stop-color="#FF7171"/>
      <stop offset="1" stop-color="#E63757"/>
    </linearGradient>
  </defs>
</svg>
