<svg xmlns="http://www.w3.org/2000/svg" width="358" height="124" fill="none" viewBox="0 0 358 124">
    <path
        fill="url(#paint0_linear_5741_18670)"
        d="M98.46 67.52H85.5l-6.48 13.44v8.64h-13.8l25.56-51.54H69.42L42 94.04v13.62h37.02V122h19.44v-14.34h10.56V89.6H98.46V67.52z"
    />
    <path
        fill="url(#paint1_linear_5741_18670)"
        d="M153.093 36.5c-20.58 0-36.96 16.26-36.96 43.5 0 27.18 16.38 43.5 36.96 43.5 20.64 0 37.02-16.32 37.02-43.5 0-27.24-16.38-43.5-37.02-43.5zm0 18.6c9.48 0 16.8 8.58 16.8 24.9s-7.32 24.9-16.8 24.9c-9.42 0-16.74-8.58-16.74-24.9s7.32-24.9 16.74-24.9z"
    />
    <path
        fill="url(#paint2_linear_5741_18670)"
        d="M254.202 67.52h-12.96l-6.48 13.44v8.64h-13.8l25.56-51.54h-21.36l-27.42 55.98v13.62h37.02V122h19.44v-14.34h10.56V89.6h-10.56V67.52z"
    />
    <g>
        <path
            fill="url(#paint3_linear_5741_18670)"
            d="M308.604 10.4c3.109-5.169 10.603-5.169 13.712 0l30.354 50.477C355.877 66.21 352.036 73 345.814 73h-60.708c-6.222 0-10.062-6.79-6.856-12.123l30.354-50.476z"
        />
        <path
            fill="#fff"
            d="M312.073 29.37a3.387 3.387 0 016.774 0l.096 18.13a3.483 3.483 0 11-6.966 0l.096-18.13zM318.96 58.5a3.5 3.5 0 11-7 0 3.5 3.5 0 017 0z"
        />
    </g>
    <defs>
        <linearGradient
            id="paint0_linear_5741_18670"
            x1="230.517"
            x2="256.129"
            y1="132.112"
            y2="33.134"
            gradientUnits="userSpaceOnUse"
        >
            <stop stop-color="#A5A19B" stop-opacity=".4" />
            <stop offset="1" stop-color="#C6C3BE" stop-opacity=".3" />
            <stop offset="1" stop-color="#C6C2BA" stop-opacity=".4" />
        </linearGradient>
        <linearGradient
            id="paint1_linear_5741_18670"
            x1="230.517"
            x2="256.129"
            y1="132.112"
            y2="33.134"
            gradientUnits="userSpaceOnUse"
        >
            <stop stop-color="#A5A19B" stop-opacity=".4" />
            <stop offset="1" stop-color="#C6C3BE" stop-opacity=".3" />
            <stop offset="1" stop-color="#C6C2BA" stop-opacity=".4" />
        </linearGradient>
        <linearGradient
            id="paint2_linear_5741_18670"
            x1="230.517"
            x2="256.129"
            y1="132.112"
            y2="33.134"
            gradientUnits="userSpaceOnUse"
        >
            <stop stop-color="#A5A19B" stop-opacity=".4" />
            <stop offset="1" stop-color="#C6C3BE" stop-opacity=".3" />
            <stop offset="1" stop-color="#C6C2BA" stop-opacity=".4" />
        </linearGradient>
        <linearGradient
            id="paint3_linear_5741_18670"
            x1="315.46"
            x2="315.46"
            y1="6.426"
            y2="102.519"
            gradientUnits="userSpaceOnUse"
        >
            <stop stop-color="#FA5284" />
            <stop offset="1" stop-color="#DC3251" />
        </linearGradient>
    </defs>
</svg>
