<svg xmlns="http://www.w3.org/2000/svg" width="358" height="124" fill="none" viewBox="0 0 358 124">
    <path
        fill="url(#paint0_linear_5741_18676)"
        d="M102.24 37.5H52.62l-1.08 48.24H72.3c11.16 0 14.82 4.2 14.82 9.48 0 6.06-4.08 10.08-11.88 10.08-8.1 0-16.44-4.26-20.58-8.22L45 111.36c6.78 6.84 17.46 11.7 30.36 11.7 18.3 0 31.92-11.16 31.92-29.16 0-14.94-10.56-25.32-30-25.32H69l.36-13.2h32.88V37.5z"
    />
    <path
        fill="url(#paint1_linear_5741_18676)"
        d="M153.895 36c-20.58 0-36.96 16.26-36.96 43.5 0 27.18 16.38 43.5 36.96 43.5 20.64 0 37.02-16.32 37.02-43.5 0-27.24-16.38-43.5-37.02-43.5zm0 18.6c9.48 0 16.8 8.58 16.8 24.9s-7.32 24.9-16.8 24.9c-9.42 0-16.74-8.58-16.74-24.9s7.32-24.9 16.74-24.9z"
    />
    <path
        fill="url(#paint2_linear_5741_18676)"
        d="M255.005 67.02h-12.96l-6.48 13.44v8.64h-13.8l25.56-51.54h-21.36l-27.42 55.98v13.62h37.02v14.34h19.44v-14.34h10.56V89.1h-10.56V67.02z"
    />
    <g>
        <path
            fill="url(#paint3_linear_5741_18676)"
            d="M334 16c6.627 0 12 5.373 12 12v22.572c0 6.628-5.373 12-12 12h-17.102L296.31 79V62.572H290c-6.627 0-12-5.372-12-12V28c0-6.627 5.373-12 12-12h44z"
        />
    </g>
    <g>
        <path
            fill="#fff"
            d="M313.5 38.585V31a1.5 1.5 0 00-3 0v7.975a1.492 1.492 0 00.222.81l2.992 4.987a1.5 1.5 0 102.572-1.544l-2.786-4.643z"
        />
        <path
            fill="#fff"
            fill-rule="evenodd"
            d="M312 54c8.284 0 15-6.716 15-15 0-8.284-6.716-15-15-15-8.284 0-15 6.716-15 15 0 8.284 6.716 15 15 15zm0-3c6.627 0 12-5.373 12-12s-5.373-12-12-12-12 5.373-12 12 5.373 12 12 12z"
            clip-rule="evenodd"
        />
    </g>
    <defs>
        <linearGradient
            id="paint0_linear_5741_18676"
            x1="231.657"
            x2="257.525"
            y1="131.678"
            y2="32.765"
            gradientUnits="userSpaceOnUse"
        >
            <stop stop-color="#A5A19B" stop-opacity=".4" />
            <stop offset="1" stop-color="#C6C3BE" stop-opacity=".3" />
            <stop offset="1" stop-color="#C6C2BA" stop-opacity=".4" />
        </linearGradient>
        <linearGradient
            id="paint1_linear_5741_18676"
            x1="231.657"
            x2="257.525"
            y1="131.678"
            y2="32.765"
            gradientUnits="userSpaceOnUse"
        >
            <stop stop-color="#A5A19B" stop-opacity=".4" />
            <stop offset="1" stop-color="#C6C3BE" stop-opacity=".3" />
            <stop offset="1" stop-color="#C6C2BA" stop-opacity=".4" />
        </linearGradient>
        <linearGradient
            id="paint2_linear_5741_18676"
            x1="231.657"
            x2="257.525"
            y1="131.678"
            y2="32.765"
            gradientUnits="userSpaceOnUse"
        >
            <stop stop-color="#A5A19B" stop-opacity=".4" />
            <stop offset="1" stop-color="#C6C3BE" stop-opacity=".3" />
            <stop offset="1" stop-color="#C6C2BA" stop-opacity=".4" />
        </linearGradient>
        <linearGradient
            id="paint3_linear_5741_18676"
            x1="312"
            x2="312"
            y1="22.322"
            y2="104.131"
            gradientUnits="userSpaceOnUse"
        >
            <stop stop-color="#FA5284" />
            <stop offset="1" stop-color="#DC3251" />
        </linearGradient>
    </defs>
</svg>
