<svg xmlns="http://www.w3.org/2000/svg" width="160" height="161" fill="none">
    <path
        fill="url(#a)"
        fill-opacity=".3"
        d="M73 85.948c-14.61 1.759-27.663 8.595-37.33 18.681a6.005 6.005 0 1 0 8.671 8.311c7.487-7.81 17.465-13.194 28.66-14.872v-12.12Z"
    />
    <path
        fill="url(#b)"
        fill-opacity=".3"
        d="M88.7 98.18c10.903 1.797 20.616 7.116 27.942 14.759a6.006 6.006 0 1 0 8.671-8.312c-8.51-8.879-19.646-15.24-32.158-17.833L88.699 98.18Z"
    />
    <path
        fill="url(#c)"
        fill-opacity=".3"
        d="M80.493 124.966c-6.841 0-13.051 2.641-17.688 6.971a6.006 6.006 0 0 1-8.198-8.779c6.773-6.325 15.883-10.204 25.886-10.204 9.998 0 19.105 3.876 25.877 10.196a6.007 6.007 0 0 1-8.195 8.782 25.812 25.812 0 0 0-17.682-6.966Z"
    />
    <path
        fill="url(#d)"
        fill-opacity=".3"
        d="M91.395 149.272c0 6.022-4.881 10.903-10.903 10.903-6.021 0-10.903-4.881-10.903-10.903 0-6.021 4.882-10.903 10.903-10.903 6.022 0 10.903 4.882 10.903 10.903Z"
    />
    <path fill="url(#e)" fill-opacity=".3" d="M49 63 79 0v40h27l-27 66V63H49Z" />
    <defs>
        <linearGradient id="a" x1="116" x2="80.492" y1="86" y2="160.175" gradientUnits="userSpaceOnUse">
            <stop stop-color="#DFDCD6" />
            <stop offset="1" stop-color="#A4A19D" />
        </linearGradient>
        <linearGradient id="b" x1="116" x2="80.492" y1="86" y2="160.175" gradientUnits="userSpaceOnUse">
            <stop stop-color="#DFDCD6" />
            <stop offset="1" stop-color="#A4A19D" />
        </linearGradient>
        <linearGradient id="c" x1="116" x2="80.492" y1="86" y2="160.175" gradientUnits="userSpaceOnUse">
            <stop stop-color="#DFDCD6" />
            <stop offset="1" stop-color="#A4A19D" />
        </linearGradient>
        <linearGradient id="d" x1="116" x2="80.492" y1="86" y2="160.175" gradientUnits="userSpaceOnUse">
            <stop stop-color="#DFDCD6" />
            <stop offset="1" stop-color="#A4A19D" />
        </linearGradient>
        <linearGradient id="e" x1="111" x2="77.5" y1="-2" y2="108" gradientUnits="userSpaceOnUse">
            <stop stop-color="#DFDCD6" />
            <stop offset="1" stop-color="#A4A19D" />
        </linearGradient>
    </defs>
</svg>
