<svg xmlns="http://www.w3.org/2000/svg" width="185" height="136" fill="none" viewBox="0 0 185 136">
  <defs/>
  <g clip-path="url(#clip0)">
    <path fill="#EBEDED" d="M0 9.43A9.43 9.43 0 019.43 0h165.88a9.43 9.43 0 019.43 9.43v10.22H0V9.43z"/>
    <path fill="url(#paint0_linear)" d="M0 19.65h184.74v106.92a9.43 9.43 0 01-9.43 9.43H9.43A9.43 9.43 0 010 126.57V19.65z"/>
    <path stroke="#EBEDED" stroke-width="1.4" d="M9.43.7h165.88a8.73 8.73 0 018.73 8.73v117.14a8.73 8.73 0 01-8.73 8.73H9.43a8.73 8.73 0 01-8.73-8.73V9.43A8.73 8.73 0 019.43.7z"/>
    <path fill="url(#paint1_linear)" fill-rule="evenodd" d="M106.43 57.23v3.89h6.21a3.92 3.92 0 013.92 3.92v33.24a3.92 3.92 0 01-3.92 3.92h-41.9a3.92 3.92 0 01-3.92-3.92V65.03a3.92 3.92 0 013.92-3.92h6.13v-3.88a14.78 14.78 0 1129.56 0zm-6.22 0v3.89H83.25v-3.89c0-5.88 4.5-8.47 8.48-8.47 3.99 0 8.48 2.6 8.48 8.47zm-8.62 15.1c2.83 0 5.1 2.3 5.1 5.16A5 5 0 0194.03 82l2.1 9.2h-9.08l2.11-9.2a5.1 5.1 0 01-2.68-4.5 5.12 5.12 0 015.11-5.18z" clip-rule="evenodd"/>
    <circle cx="12.58" cy="10.22" r="3.15" fill="#C3C8CC"/>
    <circle cx="22.01" cy="10.22" r="3.15" fill="#C3C8CC"/>
    <circle cx="31.45" cy="10.22" r="3.15" fill="#C3C8CC"/>
  </g>
  <defs>
    <linearGradient id="paint0_linear" x1="92.37" x2="92.37" y1="46.78" y2="136" gradientUnits="userSpaceOnUse">
      <stop stop-color="#fff"/>
      <stop offset="1" stop-color="#FDFEFE"/>
    </linearGradient>
    <linearGradient id="paint1_linear" x1="91.69" x2="91.69" y1="45.6" y2="105.73" gradientUnits="userSpaceOnUse">
      <stop stop-color="#FF7171"/>
      <stop offset="1" stop-color="#E63757"/>
    </linearGradient>
    <clipPath id="clip0">
      <path fill="#fff" d="M0 0h185v136H0z"/>
    </clipPath>
  </defs>
</svg>
