<svg xmlns="http://www.w3.org/2000/svg" width="186" height="137" fill="none" viewBox="0 0 186 137">
  <defs/>
  <path fill="#EBEDED" d="M.68 9.43A9.43 9.43 0 0110.11 0H176a9.43 9.43 0 019.43 9.43v10.22H.68V9.43z"/>
  <path fill="url(#paint0_linear)" d="M.68 19.65h184.74v106.92a9.43 9.43 0 01-9.43 9.43H10.1a9.43 9.43 0 01-9.43-9.43V19.65z"/>
  <path stroke="#EBEDED" stroke-width="1.4" d="M1.38 9.43A8.73 8.73 0 0110.11.7H176a8.73 8.73 0 018.73 8.73v117.14a8.73 8.73 0 01-8.73 8.73H10.1a8.73 8.73 0 01-8.73-8.73V9.43z"/>
  <path fill="url(#paint1_linear)" fill-rule="evenodd" d="M107.11 57.23v3.89h6.2a3.92 3.92 0 013.93 3.92v33.24a3.92 3.92 0 01-3.92 3.92h-41.9a3.92 3.92 0 01-3.92-3.92V65.04a3.92 3.92 0 013.92-3.92h6.13v-3.89a14.78 14.78 0 1129.56 0zm-6.22 0v3.89H83.93v-3.89c0-5.88 4.5-8.47 8.48-8.47 3.99 0 8.48 2.6 8.48 8.47zm-8.63 15.1c2.84 0 5.11 2.3 5.11 5.16A5 5 0 0194.7 82l2.1 9.2h-9.08l2.11-9.2a5.1 5.1 0 01-2.68-4.5 5.12 5.12 0 015.11-5.18z" clip-rule="evenodd"/>
  <circle cx="13.26" cy="10.22" r="3.14" fill="#C3C8CC"/>
  <circle cx="22.69" cy="10.22" r="3.14" fill="#C3C8CC"/>
  <circle cx="32.12" cy="10.22" r="3.14" fill="#C3C8CC"/>
  <defs>
    <linearGradient id="paint0_linear" x1="93.05" x2="93.05" y1="46.78" y2="136" gradientUnits="userSpaceOnUse">
      <stop stop-color="#fff"/>
      <stop offset="1" stop-color="#FDFEFE"/>
    </linearGradient>
    <linearGradient id="paint1_linear" x1="92.37" x2="92.37" y1="45.6" y2="105.73" gradientUnits="userSpaceOnUse">
      <stop stop-color="#FF7171"/>
      <stop offset="1" stop-color="#E63757"/>
    </linearGradient>
  </defs>
</svg>
