<svg xmlns="http://www.w3.org/2000/svg" width="187" height="137" fill="none" viewBox="0 0 187 137">
    <path fill="#F0ECE6" d="M.32 9.434A9.434 9.434 0 019.754 0h167.133a9.433 9.433 0 019.433 9.434V20H.32V9.434z" />
    <path
        fill="url(#paint0_linear_5741_18655)"
        d="M0 19.654h184.74v106.914c0 5.21-4.224 9.433-9.434 9.433H9.434A9.433 9.433 0 010 126.568V19.654z"
    />
    <path
        stroke="#F0EDE6"
        stroke-width="1.4"
        d="M1.02 9.434A8.734 8.734 0 019.754.7h167.133a8.733 8.733 0 018.733 8.734v117.132a8.733 8.733 0 01-8.733 8.734H9.754a8.734 8.734 0 01-8.734-8.734V9.434z"
    />
    <path
        fill="url(#paint1_linear_5741_18655)"
        fill-rule="evenodd"
        d="M107.931 55.783v3.881h6.208c2.123 0 3.92 1.715 3.92 3.92v33.241c0 2.124-1.715 3.921-3.92 3.921H72.241a3.921 3.921 0 01-3.92-3.92V63.584c0-2.124 1.714-3.92 3.92-3.92h6.124v-3.882C78.365 47.615 84.981 41 93.148 41s14.783 6.615 14.783 14.783zm-6.225 0v3.881H84.753v-3.881c0-5.88 4.491-8.477 8.477-8.477 3.985 0 8.476 2.596 8.476 8.477zm-8.622 15.09c2.839 0 5.11 2.296 5.11 5.167 0 1.97-1.055 3.692-2.677 4.512l2.109 9.188h-9.084l2.109-9.188c-1.623-.902-2.677-2.543-2.677-4.512 0-2.87 2.271-5.168 5.11-5.168z"
        clip-rule="evenodd"
    />
    <circle cx="12.578" cy="10.219" r="3.145" fill="#CCC8C0" />
    <circle cx="22.012" cy="10.219" r="3.145" fill="#CCC8C0" />
    <circle cx="31.445" cy="10.219" r="3.145" fill="#CCC8C0" />
    <defs>
        <linearGradient
            id="paint0_linear_5741_18655"
            x1="92.37"
            x2="92.37"
            y1="46.776"
            y2="136.001"
            gradientUnits="userSpaceOnUse"
        >
            <stop stop-color="#fff" />
            <stop offset="1" stop-color="#FDFEFE" />
        </linearGradient>
        <linearGradient
            id="paint1_linear_5741_18655"
            x1="93.19"
            x2="93.19"
            y1="46.996"
            y2="124.578"
            gradientUnits="userSpaceOnUse"
        >
            <stop stop-color="#FA5284" />
            <stop offset="1" stop-color="#DC3251" />
        </linearGradient>
    </defs>
</svg>
