<svg xmlns="http://www.w3.org/2000/svg" width="109" height="136" fill="none" viewBox="0 0 109 136">
    <path
        fill="#F0ECE6"
        fill-rule="evenodd"
        d="M69.027 0H5.6A5.6 5.6 0 000 5.6v124.8a5.6 5.6 0 005.6 5.6h96.8a5.6 5.6 0 005.6-5.6V38.973L69.027 0z"
        clip-rule="evenodd"
    />
    <path
        fill="#5E5951"
        d="M77.782 75.594c-1.584-2.812-3.604-5.228-5.94-7.287l-3.327 3.406a21.83 21.83 0 015.148 6.217c.515.911.515 2.02 0 2.931a22.676 22.676 0 01-19.762 11.564c-1.703 0-3.406-.198-5.07-.594l-3.762 3.842a27.538 27.538 0 008.832 1.465c9.901 0 19.05-5.346 23.881-13.98 1.307-2.297 1.307-5.228 0-7.564z"
    />
    <path
        fill="#5E5951"
        d="M53.86 89.653c5.664 0 10.258-4.594 10.258-10.257 0-.99-.158-1.94-.396-2.812L51.247 89.336c.832.198 1.743.317 2.614.317zM74.143 56.397a2 2 0 00-2.828.033l-7.077 7.243a26.944 26.944 0 00-10.377-2.06c-9.9 0-19.05 5.347-23.88 13.981a7.787 7.787 0 000 7.564c1.821 3.248 4.276 6.02 7.128 8.238l-6.683 6.847a2 2 0 00.034 2.827l.546.533a2 2 0 002.827-.032L74.72 59.758a2 2 0 00-.033-2.83l-.544-.53zM34.1 80.861a2.974 2.974 0 010-2.93 22.676 22.676 0 0119.762-11.565 22.3 22.3 0 016.694 1.03L58.02 70.01a10.423 10.423 0 00-4.159-.871c-5.663 0-10.257 4.594-10.257 10.257 0 1.584.356 3.05.99 4.356l-4.158 4.238a22.903 22.903 0 01-6.337-7.129z"
    />
    <path fill="#FAF7F0" fill-rule="evenodd" d="M69.03 0l39 39h-33.4a5.6 5.6 0 01-5.6-5.6V0z" clip-rule="evenodd" />
</svg>
