<svg xmlns="http://www.w3.org/2000/svg" width="109" height="136" fill="none" viewBox="0 0 109 136">
  <defs/>
  <path fill="#EBEDF3" fill-rule="evenodd" d="M69.03 0H5.6A5.6 5.6 0 000 5.6v124.8c0 3.1 2.5 5.6 5.6 5.6h97.6c3.1 0 5.6-2.5 5.6-5.6V39.77L69.03 0z" clip-rule="evenodd"/>
  <path fill="url(#paint0_linear)" d="M77.78 75.6a28.03 28.03 0 00-5.94-7.3l-3.33 3.41c2.06 1.7 3.8 3.8 5.15 6.22.52.91.52 2.02 0 2.93a22.68 22.68 0 01-24.83 10.97l-3.76 3.84a27.37 27.37 0 0032.71-12.51 7.79 7.79 0 000-7.57z"/>
  <path fill="url(#paint1_linear)" d="M53.86 89.65a10.26 10.26 0 009.86-13.07L51.25 89.34c.83.2 1.74.31 2.61.31z"/>
  <path fill="url(#paint2_linear)" d="M74.14 56.4a2 2 0 00-2.82.03l-7.08 7.24A27.37 27.37 0 0029.98 75.6a7.79 7.79 0 000 7.57 27.5 27.5 0 007.13 8.24l-6.68 6.84a2 2 0 00.03 2.83l.55.53a2 2 0 002.82-.03l40.89-41.81a2 2 0 00-.03-2.83l-.55-.53zM34.1 80.86a2.97 2.97 0 010-2.93A22.68 22.68 0 0160.55 67.4L58.02 70a10.26 10.26 0 00-13.43 13.74L40.44 88a22.9 22.9 0 01-6.34-7.13z"/>
  <path fill="#F8F8F8" fill-rule="evenodd" d="M69.03 0l39.77 39.77H74.63a5.6 5.6 0 01-5.6-5.6V0z" clip-rule="evenodd"/>
  <defs>
    <linearGradient id="paint0_linear" x1="61.92" x2="61.92" y1="68.31" y2="97.14" gradientUnits="userSpaceOnUse">
      <stop stop-color="#5B6898"/>
      <stop offset="1" stop-color="#434B5B"/>
    </linearGradient>
    <linearGradient id="paint1_linear" x1="57.68" x2="57.68" y1="76.58" y2="89.65" gradientUnits="userSpaceOnUse">
      <stop stop-color="#5B6898"/>
      <stop offset="1" stop-color="#434B5B"/>
    </linearGradient>
    <linearGradient id="paint2_linear" x1="52.56" x2="52.56" y1="55" y2="103" gradientUnits="userSpaceOnUse">
      <stop stop-color="#5B6898"/>
      <stop offset="1" stop-color="#434B5B"/>
    </linearGradient>
  </defs>
</svg>
