<svg xmlns="http://www.w3.org/2000/svg" width="110" height="136" fill="none" viewBox="0 0 110 136">
  <defs/>
  <g clip-path="url(#clip0)">
    <path fill="#EBEDF3" fill-rule="evenodd" d="M70.03 0H6.6A5.6 5.6 0 001 5.6v124.8a5.6 5.6 0 005.6 5.6h97.6a5.6 5.6 0 005.6-5.6V39.77L70.03 0z" clip-rule="evenodd"/>
    <path fill="url(#paint0_linear)" d="M78.78 75.6a28.03 28.03 0 00-5.94-7.3l-3.33 3.41a21.83 21.83 0 015.15 6.22c.52.91.52 2.02 0 2.93A22.68 22.68 0 0154.9 92.42c-1.7 0-3.4-.2-5.07-.59l-3.76 3.84a27.54 27.54 0 008.83 1.47c9.9 0 19.05-5.35 23.88-13.98a7.79 7.79 0 000-7.57z"/>
    <path fill="url(#paint1_linear)" d="M54.86 89.65a10.26 10.26 0 009.86-13.07L52.25 89.34c.83.2 1.74.31 2.61.31z"/>
    <path fill="url(#paint2_linear)" d="M75.14 56.4a2 2 0 00-2.82.03l-7.08 7.24a26.94 26.94 0 00-10.38-2.06c-9.9 0-19.05 5.35-23.88 13.98a7.79 7.79 0 000 7.57 27.48 27.48 0 007.13 8.24l-6.68 6.84a2 2 0 00.03 2.83l.55.53a2 2 0 002.82-.03l40.89-41.81a2 2 0 00-.03-2.83l-.55-.53zM35.1 80.86a2.97 2.97 0 010-2.93 22.68 22.68 0 0119.76-11.56 22.3 22.3 0 016.7 1.03L59.02 70a10.42 10.42 0 00-4.16-.87 10.26 10.26 0 00-9.27 14.61L41.44 88a22.9 22.9 0 01-6.34-7.13z"/>
    <path fill="#F8F8F8" fill-rule="evenodd" d="M70.03 0l39.77 39.77H75.63a5.6 5.6 0 01-5.6-5.6V0z" clip-rule="evenodd"/>
  </g>
  <defs>
    <linearGradient id="paint0_linear" x1="62.92" x2="62.92" y1="68.31" y2="97.14" gradientUnits="userSpaceOnUse">
      <stop stop-color="#5B6898"/>
      <stop offset="1" stop-color="#434B5B"/>
    </linearGradient>
    <linearGradient id="paint1_linear" x1="58.68" x2="58.68" y1="76.58" y2="89.65" gradientUnits="userSpaceOnUse">
      <stop stop-color="#5B6898"/>
      <stop offset="1" stop-color="#434B5B"/>
    </linearGradient>
    <linearGradient id="paint2_linear" x1="53.56" x2="53.56" y1="55" y2="103" gradientUnits="userSpaceOnUse">
      <stop stop-color="#5B6898"/>
      <stop offset="1" stop-color="#434B5B"/>
    </linearGradient>
    <clipPath id="clip0">
      <path fill="#fff" d="M0 0h110v136H0z"/>
    </clipPath>
  </defs>
</svg>
