<svg xmlns="http://www.w3.org/2000/svg" width="186" height="137" fill="none" viewBox="0 0 186 137">
  <defs/>
  <path fill="#EBEDED" d="M.68 9.43A9.43 9.43 0 0110.11 0H176a9.43 9.43 0 019.43 9.43v10.22H.68V9.43z"/>
  <path fill="url(#paint0_linear)" d="M.68 19.65h184.74v106.92a9.43 9.43 0 01-9.43 9.43H10.1a9.43 9.43 0 01-9.43-9.43V19.65z"/>
  <path stroke="#EBEDED" stroke-width="1.4" d="M1.38 9.43A8.73 8.73 0 0110.11.7H176a8.73 8.73 0 018.73 8.73v117.14a8.73 8.73 0 01-8.73 8.73H10.1a8.73 8.73 0 01-8.73-8.73V9.43z"/>
  <circle cx="13.26" cy="10.22" r="3.14" fill="#C3C8CC"/>
  <circle cx="22.69" cy="10.22" r="3.14" fill="#C3C8CC"/>
  <circle cx="32.12" cy="10.22" r="3.14" fill="#C3C8CC"/>
  <path fill="url(#paint1_linear)" d="M85.64 42.4a8 8 0 0113.72 0l30.35 50.48a8 8 0 01-6.86 12.12h-60.7a8 8 0 01-6.86-12.12L85.64 42.4z"/>
  <path fill="#fff" d="M89.11 61.37a3.39 3.39 0 016.78 0l.1 18.13a3.48 3.48 0 11-6.97 0l.1-18.13zM96 90.5a3.5 3.5 0 11-7 0 3.5 3.5 0 017 0z"/>
  <defs>
    <linearGradient id="paint0_linear" x1="93.05" x2="93.05" y1="46.78" y2="136" gradientUnits="userSpaceOnUse">
      <stop stop-color="#fff"/>
      <stop offset="1" stop-color="#FDFEFE"/>
    </linearGradient>
    <linearGradient id="paint1_linear" x1="92.5" x2="92.5" y1="38.43" y2="134.52" gradientUnits="userSpaceOnUse">
      <stop stop-color="#FF7171"/>
      <stop offset="1" stop-color="#E63757"/>
    </linearGradient>
  </defs>
</svg>
