<svg xmlns="http://www.w3.org/2000/svg" width="186" height="136" fill="none" viewBox="0 0 186 136">
  <defs/>
  <g clip-path="url(#clip0)">
    <path fill="#EBEDED" d="M0 9.43A9.43 9.43 0 019.43 0h167.14A9.43 9.43 0 01186 9.43V20H0V9.43z"/>
    <path fill="url(#paint0_linear)" d="M0 19.65h184.74v106.92a9.43 9.43 0 01-9.43 9.43H9.43A9.43 9.43 0 010 126.57V19.65z"/>
    <path stroke="#EBEDED" stroke-width="1.4" d="M9.43.7h167.14a8.73 8.73 0 018.73 8.73v117.14a8.73 8.73 0 01-8.73 8.73H9.43a8.73 8.73 0 01-8.73-8.73V9.43A8.73 8.73 0 019.43.7z"/>
    <circle cx="12.58" cy="10.22" r="3.15" fill="#C3C8CC"/>
    <circle cx="22.01" cy="10.22" r="3.15" fill="#C3C8CC"/>
    <circle cx="31.45" cy="10.22" r="3.15" fill="#C3C8CC"/>
    <path fill="url(#paint1_linear)" d="M84.97 42.4a8 8 0 0113.7 0l30.36 50.48a8 8 0 01-6.86 12.12h-60.7a8 8 0 01-6.86-12.12L84.97 42.4z"/>
    <path fill="#fff" d="M88.43 61.37a3.39 3.39 0 016.78 0l.1 18.13a3.48 3.48 0 11-6.97 0l.1-18.13zm6.89 29.13a3.5 3.5 0 11-7 0 3.5 3.5 0 017 0z"/>
  </g>
  <defs>
    <linearGradient id="paint0_linear" x1="92.37" x2="92.37" y1="46.78" y2="136" gradientUnits="userSpaceOnUse">
      <stop stop-color="#fff"/>
      <stop offset="1" stop-color="#FDFEFE"/>
    </linearGradient>
    <linearGradient id="paint1_linear" x1="91.82" x2="91.82" y1="38.43" y2="134.52" gradientUnits="userSpaceOnUse">
      <stop stop-color="#FF7171"/>
      <stop offset="1" stop-color="#E63757"/>
    </linearGradient>
    <clipPath id="clip0">
      <path fill="#fff" d="M0 0h186v136H0z"/>
    </clipPath>
  </defs>
</svg>
