<svg width="301" height="170" viewBox="0 0 301 170" fill="none" xmlns="http://www.w3.org/2000/svg">
    <path
        fill-rule="evenodd"
        clip-rule="evenodd"
        d="M232.582 30.5747H212.863C210.022 30.5747 207.719 32.8777 207.719 35.7187V74.4184C207.719 77.2594 210.022 79.5624 212.863 79.5624H241.765C244.606 79.5624 246.909 77.2594 246.909 74.4184V44.902L232.582 30.5747Z"
        fill="url(#paint0_linear_35351_22932)"
    />
    <path
        fill-rule="evenodd"
        clip-rule="evenodd"
        d="M232.585 30.5718L246.913 44.8994L237.729 44.8994C234.888 44.8994 232.585 42.5964 232.585 39.7555L232.585 30.5718Z"
        fill="#F9F9F9"
    />
    <path
        d="M231.03 57.8363L225.462 65.1343C225.462 65.1613 225.435 65.1613 225.408 65.1343L222.327 61.215C221.976 60.7555 221.3 60.7555 220.948 61.215L216.516 66.8912C216.056 67.4588 216.461 68.2968 217.191 68.2968H223.03H227.895H238.896C239.518 68.2968 239.869 67.567 239.491 67.0804L232.436 57.8363C232.085 57.3768 231.382 57.3768 231.03 57.8363Z"
        fill="#1B1340"
    />
    <path
        d="M225.033 58.4585C226.646 58.4585 227.953 57.1515 227.953 55.5393C227.953 53.9271 226.646 52.6201 225.033 52.6201C223.421 52.6201 222.114 53.9271 222.114 55.5393C222.114 57.1515 223.421 58.4585 225.033 58.4585Z"
        fill="#1B1340"
    />
    <path
        d="M46.5603 139H76.9397C80.5641 139 83.5 136.064 83.5 132.44V125.171H40V132.44C40 136.064 42.936 139 46.5603 139Z"
        fill="url(#paint1_linear_35351_22932)"
    />
    <g filter="url(#filter0_i_35351_22932)">
        <path
            d="M46.5603 134.282H76.9397C80.5641 134.282 83.5 131.346 83.5 127.722V102.837H40V127.722C40 131.346 42.936 134.282 46.5603 134.282Z"
            fill="url(#paint2_linear_35351_22932)"
        />
    </g>
    <path
        d="M64.1668 109.913V124.07H61.1247V113.351C60.9573 113.499 60.7577 113.64 60.526 113.776C60.3006 113.904 60.0592 114.023 59.8017 114.133C59.5441 114.236 59.2769 114.326 59.0001 114.403C58.7232 114.474 58.4496 114.526 58.1792 114.558V111.989C58.9711 111.757 59.718 111.461 60.4197 111.1C61.1215 110.74 61.7557 110.344 62.3223 109.913H64.1668Z"
        fill="#1B1340"
    />
    <path
        d="M40.1348 105.197H83.6348V100.175C83.6348 96.5507 80.6988 93.6147 77.0745 93.6147H46.6951C43.0707 93.6147 40.1348 96.5507 40.1348 100.175V105.197Z"
        fill="url(#paint3_linear_35351_22932)"
    />
    <path
        d="M75.8897 98.3016C76.6592 98.3016 77.2666 97.6942 77.2666 96.945V91.3566C77.2666 90.6074 76.6592 90 75.8897 90C75.1406 90 74.5331 90.6074 74.5331 91.3566V96.9248C74.5331 97.6942 75.1406 98.3016 75.8897 98.3016Z"
        fill="#E9E4DB"
    />
    <path
        d="M47.4818 98.3016C48.2309 98.3016 48.8384 97.6942 48.8384 96.945V91.3566C48.8384 90.6074 48.2309 90 47.4818 90C46.7326 90 46.1252 90.6074 46.1252 91.3566V96.9248C46.1252 97.6942 46.7326 98.3016 47.4818 98.3016Z"
        fill="#E9E4DB"
    />
    <path
        d="M83.5 127.722C83.5 131.346 80.5641 134.282 76.9397 134.282H67.4435L83.5 118.226V127.722Z"
        fill="url(#paint4_linear_35351_22932)"
    />
    <path
        d="M67.4435 124.988C67.4435 121.263 70.4604 118.246 74.186 118.246H83.5L67.4435 134.302V124.988Z"
        fill="white"
    />
    <path
        d="M150.397 118.374H102.695V135.888C102.695 139.305 105.599 142.113 109.204 142.113H150.556H191.94C195.514 142.113 198.449 139.336 198.449 135.888V118.374H150.397Z"
        fill="url(#paint5_linear_35351_22932)"
    />
    <g filter="url(#filter1_i_35351_22932)">
        <path
            d="M198.384 117.855L189.993 42.7934C189.769 40.749 187.951 39.1929 185.813 39.1929H150.555H115.298C113.16 39.1929 111.341 40.749 111.118 42.7934L102.726 117.855C102.28 121.913 105.598 125.453 109.874 125.453H150.555H191.237C195.513 125.483 198.863 121.944 198.384 117.855Z"
            fill="url(#paint6_linear_35351_22932)"
        />
    </g>
    <path
        d="M145.972 60.4616C148.13 56.8344 153.364 56.8344 155.522 60.4616L174.968 93.1423C177.182 96.8638 174.511 101.588 170.192 101.588H131.302C126.984 101.588 124.313 96.8638 126.527 93.1423L145.972 60.4616Z"
        fill="url(#paint7_linear_35351_22932)"
    />
    <path
        d="M148.438 73.4747C148.445 72.2049 149.476 71.1792 150.746 71.1792C152.016 71.1792 153.047 72.2049 153.054 73.4747L153.117 84.7476C153.124 86.0619 152.06 87.1313 150.746 87.1313C149.432 87.1313 148.368 86.0619 148.375 84.7476L148.438 73.4747Z"
        fill="white"
    />
    <ellipse cx="150.746" cy="91.9177" rx="2.38378" ry="2.39282" fill="white" />
    <path
        d="M186.442 136.014C187.741 136.014 188.793 134.961 188.793 133.663C188.793 132.364 187.741 131.311 186.442 131.311C185.143 131.311 184.09 132.364 184.09 133.663C184.09 134.961 185.143 136.014 186.442 136.014Z"
        fill="#2AFFB2"
    />
    <path
        fill-rule="evenodd"
        clip-rule="evenodd"
        d="M249.635 91.7114H227.397C226.055 91.7114 224.967 92.7993 224.967 94.1413V137.88C224.967 139.222 226.055 140.31 227.397 140.31H261.416C262.758 140.31 263.846 139.222 263.846 137.88V105.922L249.635 91.7114Z"
        fill="#F34262"
    />
    <path
        fill-rule="evenodd"
        clip-rule="evenodd"
        d="M249.637 91.7107L263.848 105.921L252.067 105.921C250.725 105.921 249.637 104.833 249.637 103.491L249.637 91.7107Z"
        fill="#FF8E7E"
    />
    <path
        fill-rule="evenodd"
        clip-rule="evenodd"
        d="M244.386 111.636C242.339 111.636 240.987 113.806 242.056 115.602L243.551 118.115L240.154 124.556H236.792C235.249 124.556 233.956 125.774 233.956 127.325C233.956 130.159 237.718 131.117 239.202 128.799L240.992 126.014H247.818L249.608 128.8C251.092 131.118 254.853 130.159 254.853 127.325C254.853 125.774 253.561 124.556 252.017 124.556H248.653L245.223 118.113L246.715 115.604L246.716 115.603C247.789 113.813 246.421 111.636 244.386 111.636ZM244.422 116.609L245.464 114.857L245.465 114.855C245.912 114.109 245.375 113.094 244.386 113.094C243.392 113.094 242.857 114.099 243.309 114.856L244.348 116.603L244.383 116.537L244.422 116.609ZM247.002 124.556L244.389 119.65L241.802 124.556L241.929 124.556H246.88L247.002 124.556ZM235.414 127.325C235.414 126.623 236.009 126.014 236.792 126.014H239.259L237.973 128.014C237.222 129.188 235.414 128.604 235.414 127.325ZM249.551 126.014L250.835 128.012L250.836 128.014C251.588 129.188 253.395 128.604 253.395 127.325C253.395 126.623 252.801 126.014 252.017 126.014H249.551Z"
        fill="white"
    />
    <path
        d="M80.2039 74.7505H33.9418C32.3097 74.7505 31 73.4069 31 71.7783V42.9722C31 41.3436 32.3298 40 33.9418 40H80.1838C81.8158 40 83.1255 41.3436 83.1255 42.9722V71.7783C83.1457 73.4273 81.8158 74.7505 80.2039 74.7505Z"
        fill="url(#paint8_linear_35351_22932)"
    />
    <path
        d="M55.1628 60.0089C56.2556 60.9102 57.8543 60.9102 58.9471 60.0089L82.3006 40.7811C81.7744 40.3004 81.0661 40 80.2971 40H33.833C33.064 40 32.3558 40.3004 31.8296 40.7811L55.1628 60.0089Z"
        fill="url(#paint9_linear_35351_22932)"
    />
    <defs>
        <filter
            id="filter0_i_35351_22932"
            x="40"
            y="99.8369"
            width="43.5"
            height="34.4448"
            filterUnits="userSpaceOnUse"
            color-interpolation-filters="sRGB"
        >
            <feFlood flood-opacity="0" result="BackgroundImageFix" />
            <feBlend mode="normal" in="SourceGraphic" in2="BackgroundImageFix" result="shape" />
            <feColorMatrix
                in="SourceAlpha"
                type="matrix"
                values="0 0 0 0 0 0 0 0 0 0 0 0 0 0 0 0 0 0 127 0"
                result="hardAlpha"
            />
            <feOffset dy="-3" />
            <feGaussianBlur stdDeviation="4" />
            <feComposite in2="hardAlpha" operator="arithmetic" k2="-1" k3="1" />
            <feColorMatrix type="matrix" values="0 0 0 0 1 0 0 0 0 0.986667 0 0 0 0 0.96 0 0 0 1 0" />
            <feBlend mode="normal" in2="shape" result="effect1_innerShadow_35351_22932" />
        </filter>
        <filter
            id="filter1_i_35351_22932"
            x="102.686"
            y="39.1929"
            width="95.7441"
            height="86.2603"
            filterUnits="userSpaceOnUse"
            color-interpolation-filters="sRGB"
        >
            <feFlood flood-opacity="0" result="BackgroundImageFix" />
            <feBlend mode="normal" in="SourceGraphic" in2="BackgroundImageFix" result="shape" />
            <feColorMatrix
                in="SourceAlpha"
                type="matrix"
                values="0 0 0 0 0 0 0 0 0 0 0 0 0 0 0 0 0 0 127 0"
                result="hardAlpha"
            />
            <feOffset dy="-0.783854" />
            <feComposite in2="hardAlpha" operator="arithmetic" k2="-1" k3="1" />
            <feColorMatrix type="matrix" values="0 0 0 0 1 0 0 0 0 1 0 0 0 0 1 0 0 0 0.57 0" />
            <feBlend mode="normal" in2="shape" result="effect1_innerShadow_35351_22932" />
        </filter>
        <linearGradient
            id="paint0_linear_35351_22932"
            x1="241.694"
            y1="34.9196"
            x2="213.645"
            y2="79.5616"
            gradientUnits="userSpaceOnUse"
        >
            <stop stop-color="#EAE8E5" />
            <stop offset="1" stop-color="#F5F4F2" />
        </linearGradient>
        <linearGradient
            id="paint1_linear_35351_22932"
            x1="53.8322"
            y1="111.821"
            x2="83.5"
            y2="137.852"
            gradientUnits="userSpaceOnUse"
        >
            <stop stop-color="#FAF5EB" />
            <stop offset="1" stop-color="#7D7A73" />
        </linearGradient>
        <linearGradient
            id="paint2_linear_35351_22932"
            x1="61.6796"
            y1="99.3787"
            x2="76.367"
            y2="137.66"
            gradientUnits="userSpaceOnUse"
        >
            <stop stop-color="white" />
            <stop offset="1" stop-color="#F2ECDF" />
        </linearGradient>
        <linearGradient
            id="paint3_linear_35351_22932"
            x1="61.8848"
            y1="89.1967"
            x2="61.8848"
            y2="105.197"
            gradientUnits="userSpaceOnUse"
        >
            <stop stop-color="#FF8E7E" />
            <stop offset="1" stop-color="#F34262" />
        </linearGradient>
        <linearGradient
            id="paint4_linear_35351_22932"
            x1="74.1211"
            y1="124.453"
            x2="77.7578"
            y2="141.871"
            gradientUnits="userSpaceOnUse"
        >
            <stop stop-color="#DBD7CE" />
            <stop offset="1" stop-color="#DED9D1" stop-opacity="0" />
        </linearGradient>
        <linearGradient
            id="paint5_linear_35351_22932"
            x1="77.9947"
            y1="130.12"
            x2="225.564"
            y2="135.38"
            gradientUnits="userSpaceOnUse"
        >
            <stop offset="0.221783" stop-color="#E3E0DA" />
            <stop offset="1" stop-color="#A6A49E" />
        </linearGradient>
        <linearGradient
            id="paint6_linear_35351_22932"
            x1="183.423"
            y1="32.1382"
            x2="98.995"
            y2="117.043"
            gradientUnits="userSpaceOnUse"
        >
            <stop offset="0.417101" stop-color="#CECCC7" />
            <stop offset="1" stop-color="#F5F2EB" />
        </linearGradient>
        <linearGradient
            id="paint7_linear_35351_22932"
            x1="150.747"
            y1="57.3686"
            x2="150.747"
            y2="121.195"
            gradientUnits="userSpaceOnUse"
        >
            <stop stop-color="#FA5284" />
            <stop offset="1" stop-color="#DC3251" />
        </linearGradient>
        <linearGradient
            id="paint8_linear_35351_22932"
            x1="57.0629"
            y1="40"
            x2="57.0629"
            y2="71.6846"
            gradientUnits="userSpaceOnUse"
        >
            <stop stop-color="#EAE8E5" />
            <stop offset="1" stop-color="#F5F4F2" />
        </linearGradient>
        <linearGradient
            id="paint9_linear_35351_22932"
            x1="57.0651"
            y1="35.2303"
            x2="57.0651"
            y2="53.2871"
            gradientUnits="userSpaceOnUse"
        >
            <stop stop-color="#F5F4F2" />
            <stop offset="1" stop-color="white" />
        </linearGradient>
    </defs>
</svg>
