<svg width="344" height="156" fill="none" xmlns="http://www.w3.org/2000/svg">
    <g clip-path="url(#a)">
        <rect width="344" height="156" rx="8" fill="#1B1340" />
        <rect width="344" height="156" rx="8" fill="url(#b)" />
        <path
            fill-rule="evenodd"
            clip-rule="evenodd"
            d="M61.97 75.569h.001l-6.114 6.787L48 73.708v-3.73c0-.429.5-.663.829-.39l8.717 7.24c.843.7 2.065.7 2.908 0l1.516-1.26Z"
            fill="url(#c)"
        />
        <path
            d="M65.286 72.816 61.97 75.57h.001l-4.39 3.879a2.023 2.023 0 0 1-2.633.039L48 73.709v11.087c0 1.257 1.019 2.205 2.276 2.205h15.01l1.571-7.057-1.571-7.128Z"
            fill="url(#d)"
        />
        <path
            fill-rule="evenodd"
            clip-rule="evenodd"
            d="M65.286 72.818v14.181h2.438A2.276 2.276 0 0 0 70 84.723V69.977c0-.428-.5-.662-.829-.389l-3.885 3.23Z"
            fill="url(#e)"
        />
        <path
            d="M94.357 69A2.357 2.357 0 0 0 92 71.357v.786l.786.786v13.357l15.714-7.857.786.785H114v-7.857A2.357 2.357 0 0 0 111.643 69H94.357Z"
            fill="url(#f)"
        />
        <path
            d="M107.434 72.143H92v12.593A2.264 2.264 0 0 0 94.264 87h7.95l3.829-5.685a2.57 2.57 0 0 1 2.527-2.101h.716v-5.22a1.852 1.852 0 0 0-1.852-1.851Z"
            fill="url(#g)"
        />
        <path
            d="M102.214 87v-.798c0-.455.158-.895.446-1.246l3.788-4.619c.099-.148.212-.286.338-.411l-.338.411a2.668 2.668 0 0 0-.448 1.484V87h-3.786Z"
            fill="#B8D7FF"
        />
        <path
            d="M108.186 84.232h.802a.618.618 0 0 0 .63.468c.362 0 .602-.198.602-.488s-.249-.452-.742-.452h-.318v-.655h.276c.477 0 .672-.175.672-.436 0-.26-.212-.44-.504-.44a.502.502 0 0 0-.53.454h-.774c.028-.456.39-1.11 1.299-1.11.73 0 1.234.412 1.234.993a.87.87 0 0 1-.616.837v.011a.877.877 0 0 1 .725.892c0 .63-.581 1.044-1.331 1.044-.798.005-1.367-.445-1.425-1.118ZM112.344 81.635h.583v3.663h-.753v-2.81l-.725.488v-.74l.895-.601Z"
            fill="#8F69FF"
        />
        <g clip-path="url(#h)">
            <path
                d="M131 69.556C131 63.726 135.726 59 141.556 59h16.888C164.274 59 169 63.726 169 69.556v16.888C169 92.274 164.274 97 158.444 97h-16.888C135.726 97 131 92.274 131 86.444V69.556Z"
                fill="#fff"
            />
            <path
                d="m138.389 70.989 3.317-1.659 5.806 3.317h9.952v14.024l-.829.83h-15.758a2.488 2.488 0 0 1-2.488-2.488V70.989Z"
                fill="url(#i)"
            />
            <path
                fill-rule="evenodd"
                clip-rule="evenodd"
                d="M147.48 69.683c.425.31.937.476 1.463.476h10.18a2.488 2.488 0 0 1 2.488 2.488v12.365a2.488 2.488 0 0 1-2.488 2.488h-2.488V75.55a2.073 2.073 0 0 0-2.073-2.074h-8.709a2.49 2.49 0 0 1-1.493-.497l-1.99-1.493a2.49 2.49 0 0 0-1.493-.498h-2.488a2.488 2.488 0 0 1 2.488-2.488h4.167c.526 0 1.038.167 1.464.476l.972.707Z"
                fill="url(#j)"
            />
        </g>
        <path
            fill-rule="evenodd"
            clip-rule="evenodd"
            d="M194.837 86.746c.836 1.503 2.983 1.585 3.932.15l8.852-13.385c.938-1.42.04-3.322-1.659-3.516l-17.398-1.98c-1.855-.21-3.176 1.745-2.273 3.367l.07.127 7.763 5.32-.094 8.461.807 1.456Z"
            fill="url(#k)"
        />
        <path
            d="m195.335 85.344.786-1.171 5.967-9.014c.522-.788.024-1.845-.92-1.953l-14.809-1.7 7.671 13.79a.77.77 0 0 0 1.305.048Z"
            fill="url(#l)"
        />
        <path
            d="M236.616 69.78c1.534-1.535 2.302-2.303 3.186-2.59a3.878 3.878 0 0 1 2.396 0c.884.287 1.652 1.055 3.186 2.59l3.837 3.836c1.535 1.534 2.302 2.302 2.589 3.186a3.874 3.874 0 0 1 0 2.395c-.287.885-1.054 1.653-2.589 3.187l-3.837 3.837c-1.534 1.534-2.302 2.302-3.186 2.59a3.878 3.878 0 0 1-2.396 0c-.884-.288-1.652-1.056-3.186-2.59l-.722-.809c-.436-.49-.654-.734-.81-1.012a2.93 2.93 0 0 1-.301-.789c-.069-.31-.069-.639-.069-1.294v-8.634c0-.655 0-.983.069-1.294a2.93 2.93 0 0 1 .301-.789c.156-.278.374-.523.81-1.012l.722-.809Z"
            fill="url(#m)"
        />
        <path
            d="M236.616 69.78c1.534-1.535 2.302-2.303 3.186-2.59a3.878 3.878 0 0 1 2.396 0c.884.287 1.652 1.055 3.186 2.59l3.837 3.836c1.535 1.534 2.302 2.302 2.589 3.186a3.874 3.874 0 0 1 0 2.395c-.287.885-1.054 1.653-2.589 3.187l-3.837 3.837c-1.534 1.534-2.302 2.302-3.186 2.59a3.878 3.878 0 0 1-2.396 0c-.884-.288-1.652-1.056-3.186-2.59l-.722-.809c-.436-.49-.654-.734-.81-1.012a2.93 2.93 0 0 1-.301-.789c-.069-.31-.069-.639-.069-1.294v-8.634c0-.655 0-.983.069-1.294a2.93 2.93 0 0 1 .301-.789c.156-.278.374-.523.81-1.012l.722-.809Z"
            fill="url(#n)"
        />
        <path
            d="M236.342 70.054c.767-.768 1.151-1.151 1.593-1.295a1.94 1.94 0 0 1 1.198 0c.442.144.826.527 1.593 1.295l5.755 5.754c.767.768 1.151 1.151 1.294 1.594.127.389.127.808 0 1.197-.143.443-.527.826-1.294 1.594l-5.755 5.754c-.767.767-1.151 1.151-1.593 1.295a1.94 1.94 0 0 1-1.198 0c-.442-.144-.826-.528-1.593-1.295l-3.563-3.562c-1.534-1.535-2.302-2.302-2.589-3.187a3.874 3.874 0 0 1 0-2.395c.287-.885 1.055-1.652 2.589-3.187l3.563-3.562Z"
            fill="url(#o)"
        />
        <mask id="p" style="mask-type: alpha" maskUnits="userSpaceOnUse" x="275" y="69" width="21" height="18">
            <path
                fill-rule="evenodd"
                clip-rule="evenodd"
                d="M275.023 87v-2.838h4.316c1.564 0 2.832-1.355 2.832-3.026 0-1.67-1.268-3.025-2.832-3.025h-4.316V69h20.781v18h-20.781Zm0-8.889H275v6.05h.023v-6.05Zm5.708 3.035a1.61 1.61 0 1 0-3.22 0 1.61 1.61 0 0 0 3.22 0Z"
                fill="#fff"
            />
        </mask>
        <g mask="url(#p)">
            <path
                d="M277.092 87a2.07 2.07 0 0 1-2.069-2.069V71.069A2.07 2.07 0 0 1 277.092 69h10.436a8.276 8.276 0 0 1 8.276 8.276v7.655A2.069 2.069 0 0 1 293.735 87h-16.643Z"
                fill="url(#q)"
            />
            <path
                d="M277.074 86.749a2.07 2.07 0 0 1-2.069-2.069V71.676h10.184a6.207 6.207 0 0 1 6.207 6.207v8.866h-14.322Z"
                fill="#6D4AFF"
            />
            <path
                d="M277.074 86.749a2.07 2.07 0 0 1-2.069-2.069V71.676h10.184a6.207 6.207 0 0 1 6.207 6.207v8.866h-14.322Z"
                fill="url(#r)"
                fill-opacity=".9"
            />
            <path d="m278.113 87.002 3.349-3.805-6.439.805v.673a2.328 2.328 0 0 0 2.328 2.327h.762Z" fill="#FFBB93" />
        </g>
    </g>
    <defs>
        <linearGradient id="c" x1="56.255" y1="82.476" x2="48.877" y2="56.845" gradientUnits="userSpaceOnUse">
            <stop stop-color="#E3D9FF" />
            <stop offset="1" stop-color="#7341FF" />
        </linearGradient>
        <linearGradient id="e" x1="77.115" y1="98.363" x2="60.256" y2="61.848" gradientUnits="userSpaceOnUse">
            <stop offset=".271" stop-color="#E3D9FF" />
            <stop offset="1" stop-color="#7341FF" />
        </linearGradient>
        <linearGradient id="f" x1="110.482" y1="80.814" x2="97.65" y2="62.171" gradientUnits="userSpaceOnUse">
            <stop stop-color="#BFE8FF" />
            <stop offset=".307" stop-color="#BFABFF" />
            <stop offset="1" stop-color="#7341FF" />
        </linearGradient>
        <linearGradient id="j" x1="138.083" y1="58.584" x2="166.748" y2="90.448" gradientUnits="userSpaceOnUse">
            <stop stop-color="#7341FF" />
            <stop offset=".359" stop-color="#B487FF" />
            <stop offset="1" stop-color="#FFC8FF" />
        </linearGradient>
        <linearGradient id="k" x1="205.894" y1="86.745" x2="191.738" y2="62.333" gradientUnits="userSpaceOnUse">
            <stop offset=".066" stop-color="#8EFFEE" />
            <stop offset=".45" stop-color="#C9C7FF" />
            <stop offset="1" stop-color="#7341FF" />
        </linearGradient>
        <linearGradient id="n" x1="235.882" y1="62.632" x2="240.16" y2="88.747" gradientUnits="userSpaceOnUse">
            <stop stop-color="#6D4AFF" />
            <stop offset=".392" stop-color="#B39FFB" stop-opacity=".978" />
            <stop offset="1" stop-color="#FFE8DB" stop-opacity=".8" />
        </linearGradient>
        <linearGradient id="q" x1="272.389" y1="71.095" x2="298.125" y2="81.12" gradientUnits="userSpaceOnUse">
            <stop stop-color="#957AFD" />
            <stop offset="1" stop-color="#FFC6C6" />
        </linearGradient>
        <linearGradient id="r" x1="290.469" y1="73.99" x2="282.48" y2="90.224" gradientUnits="userSpaceOnUse">
            <stop offset=".15" stop-color="#FA528E" stop-opacity="0" />
            <stop offset=".721" stop-color="#FF8065" />
            <stop offset="1" stop-color="#FFA51F" />
        </linearGradient>
        <radialGradient
            id="b"
            cx="0"
            cy="0"
            r="1"
            gradientUnits="userSpaceOnUse"
            gradientTransform="matrix(0 -156 214.906 0 172 156)"
        >
            <stop stop-color="#92356A" />
            <stop offset="1" stop-color="#92356A" stop-opacity="0" />
        </radialGradient>
        <radialGradient
            id="d"
            cx="0"
            cy="0"
            r="1"
            gradientUnits="userSpaceOnUse"
            gradientTransform="matrix(21.9907 0 0 20.624 66.775 74.553)"
        >
            <stop offset=".556" stop-color="#6D4AFF" />
            <stop offset=".994" stop-color="#AA8EFF" />
        </radialGradient>
        <radialGradient
            id="g"
            cx="0"
            cy="0"
            r="1"
            gradientUnits="userSpaceOnUse"
            gradientTransform="matrix(35.293 0 0 31.3883 108.625 59.748)"
        >
            <stop offset=".503" stop-color="#6D4AFF" />
            <stop offset=".994" stop-color="#06B8FF" />
        </radialGradient>
        <radialGradient
            id="i"
            cx="0"
            cy="0"
            r="1"
            gradientUnits="userSpaceOnUse"
            gradientTransform="matrix(35.5944 0 0 37.6231 159.062 56.847)"
        >
            <stop offset=".556" stop-color="#6D4AFF" />
            <stop offset="1" stop-color="#FF50C3" />
        </radialGradient>
        <radialGradient
            id="l"
            cx="0"
            cy="0"
            r="1"
            gradientUnits="userSpaceOnUse"
            gradientTransform="rotate(93.755 67.151 124.073) scale(22.4617 28.9668)"
        >
            <stop offset=".403" stop-color="#6D4AFF" />
            <stop offset=".994" stop-color="#00F0C3" />
        </radialGradient>
        <radialGradient
            id="m"
            cx="0"
            cy="0"
            r="1"
            gradientUnits="userSpaceOnUse"
            gradientTransform="rotate(-58.142 198.752 -168.118) scale(18.3646 28.7185)"
        >
            <stop stop-color="#FFD580" />
            <stop offset=".094" stop-color="#F6C592" />
            <stop offset=".205" stop-color="#EBB6A2" />
            <stop offset=".324" stop-color="#DFA5AF" />
            <stop offset=".429" stop-color="#D397BE" />
            <stop offset=".534" stop-color="#C486CB" />
            <stop offset=".649" stop-color="#B578D9" />
            <stop offset=".771" stop-color="#A166E5" />
            <stop offset=".891" stop-color="#8B57F2" />
            <stop offset="1" stop-color="#704CFF" />
        </radialGradient>
        <radialGradient
            id="o"
            cx="0"
            cy="0"
            r="1"
            gradientUnits="userSpaceOnUse"
            gradientTransform="rotate(-58.142 195.934 -167.784) scale(14.7715 23.0997)"
        >
            <stop stop-color="#FFD580" />
            <stop offset=".094" stop-color="#F6C592" />
            <stop offset=".205" stop-color="#EBB6A2" />
            <stop offset=".324" stop-color="#DFA5AF" />
            <stop offset=".429" stop-color="#D397BE" />
            <stop offset=".534" stop-color="#C486CB" />
            <stop offset=".649" stop-color="#B578D9" />
            <stop offset=".771" stop-color="#A166E5" />
            <stop offset=".891" stop-color="#8B57F2" />
            <stop offset="1" stop-color="#704CFF" />
        </radialGradient>
        <clipPath id="a">
            <path fill="#fff" d="M0 0h344v156H0z" />
        </clipPath>
        <clipPath id="h">
            <path fill="#fff" transform="translate(131 59)" d="M0 0h38v38H0z" />
        </clipPath>
    </defs>
</svg>
