<svg width="72" height="72" viewBox="0 0 72 72" fill="none" xmlns="http://www.w3.org/2000/svg">
    <g clip-path="url(#clip0_5640_39522)">
        <g filter="url(#filter0_f_5640_39522)">
            <ellipse cx="35.566" cy="64.3585" rx="30.566" ry="1.35849" fill="#1A4B7B" fill-opacity="0.2" />
        </g>
        <path
            d="M12 10C12 5.58172 15.5817 2 20 2H46L51.5 12.5L62 18V56C62 60.4183 58.4183 64 54 64H20C15.5817 64 12 60.4183 12 56V10Z"
            fill="url(#paint0_linear_5640_39522)"
        />
        <path
            d="M12 10C12 5.58172 15.5817 2 20 2H46L51.5 12.5L62 18V56C62 60.4183 58.4183 64 54 64H20C15.5817 64 12 60.4183 12 56V10Z"
            fill="url(#paint1_radial_5640_39522)"
        />
        <path d="M62 18L46 2L46 10C46 14.4183 49.5817 18 54 18L62 18Z" fill="url(#paint2_linear_5640_39522)" />
        <rect x="18" y="23" width="15" height="2" rx="1" fill="#FD57B2" />
        <rect x="18" y="27" width="10" height="2" rx="1" fill="#B2EAFE" />
        <rect x="30" y="27" width="10" height="2" rx="1" fill="#B2EAFE" />
        <rect x="35" y="23" width="13" height="2" rx="1" fill="#B2EAFE" />
        <rect x="42" y="27" width="10" height="2" rx="1" fill="#B2EAFE" />
        <rect x="18" y="31" width="16" height="2" rx="1" fill="#B2EAFE" />
        <rect x="18" y="35" width="18" height="2" rx="1" fill="#B2EAFE" />
        <rect x="36" y="31" width="16" height="2" rx="1" fill="#B2EAFE" />
        <rect x="38" y="35" width="11" height="2" rx="1" fill="#27ABF4" />
        <rect x="18" y="39" width="10" height="2" rx="1" fill="#B2EAFE" />
        <rect x="39" y="43" width="10" height="2" rx="1" fill="#B2EAFE" />
        <rect x="30" y="39" width="17" height="2" rx="1" fill="#B2EAFE" />
        <rect x="18" y="43" width="19" height="2" rx="1" fill="#B2EAFE" />
        <rect x="18" y="47" width="13" height="2" rx="1" fill="#B2EAFE" />
        <rect x="33" y="47" width="15" height="2" rx="1" fill="#B2EAFE" />
        <rect x="18" y="51" width="25" height="2" rx="1" fill="#B2EAFE" />
        <g filter="url(#filter1_d_5640_39522)">
            <path
                fill-rule="evenodd"
                clip-rule="evenodd"
                d="M56.761 51.7741L63.7298 49.2974L45 39L50.4604 59.6646L54.5494 53.502L59.4451 59.7681L61.6566 58.0402L56.761 51.7741Z"
                fill="#27ABF4"
            />
            <path
                d="M45.3613 38.3428L64.0908 48.6406L65.5547 49.4443L63.9814 50.0039L57.9912 52.1318L62.248 57.5781L62.709 58.1699L62.1182 58.6309L59.9072 60.3594L59.3154 60.8213L58.8545 60.2295L54.5986 54.7842L51.085 60.0791L50.1621 61.4707L49.7354 59.8564L44.2744 39.1914L43.8281 37.5L45.3613 38.3428Z"
                stroke="white"
                stroke-width="1.5"
            />
        </g>
        <g filter="url(#filter2_d_5640_39522)">
            <path
                fill-rule="evenodd"
                clip-rule="evenodd"
                d="M10.1593 34.5161L5.51345 32.8649L18 26L14.3597 39.7764L11.6337 35.668L8.36996 39.8454L6.89558 38.6935L10.1593 34.5161Z"
                fill="#FF7FC5"
            />
            <path
                d="M17.7588 25.5615L5.27246 32.4268L4.29688 32.9629L5.3457 33.3359L9.33887 34.7549L6.50195 38.3857L6.19336 38.7793L6.58789 39.0879L8.0625 40.2393L8.45605 40.5469L8.76367 40.1533L11.6006 36.5215L13.9434 40.0527L14.5586 40.9805L14.8428 39.9043L18.4834 26.1279L18.7812 25L17.7588 25.5615Z"
                stroke="white"
            />
        </g>
    </g>
    <defs>
        <filter
            id="filter0_f_5640_39522"
            x="-3"
            y="55"
            width="77.1318"
            height="18.717"
            filterUnits="userSpaceOnUse"
            color-interpolation-filters="sRGB"
        >
            <feFlood flood-opacity="0" result="BackgroundImageFix" />
            <feBlend mode="normal" in="SourceGraphic" in2="BackgroundImageFix" result="shape" />
            <feGaussianBlur stdDeviation="4" result="effect1_foregroundBlur_5640_39522" />
        </filter>
        <filter
            id="filter1_d_5640_39522"
            x="38.1553"
            y="32.9994"
            width="33.7246"
            height="36.2778"
            filterUnits="userSpaceOnUse"
            color-interpolation-filters="sRGB"
        >
            <feFlood flood-opacity="0" result="BackgroundImageFix" />
            <feColorMatrix
                in="SourceAlpha"
                type="matrix"
                values="0 0 0 0 0 0 0 0 0 0 0 0 0 0 0 0 0 0 127 0"
                result="hardAlpha"
            />
            <feOffset dy="1.5" />
            <feGaussianBlur stdDeviation="2.25" />
            <feColorMatrix type="matrix" values="0 0 0 0 0.152941 0 0 0 0 0.670588 0 0 0 0 0.956863 0 0 0 0.3 0" />
            <feBlend mode="normal" in2="BackgroundImageFix" result="effect1_dropShadow_5640_39522" />
            <feBlend mode="normal" in="SourceGraphic" in2="effect1_dropShadow_5640_39522" result="shape" />
        </filter>
        <filter
            id="filter2_d_5640_39522"
            x="0.0800781"
            y="21.9995"
            width="22.4824"
            height="24.1853"
            filterUnits="userSpaceOnUse"
            color-interpolation-filters="sRGB"
        >
            <feFlood flood-opacity="0" result="BackgroundImageFix" />
            <feColorMatrix
                in="SourceAlpha"
                type="matrix"
                values="0 0 0 0 0 0 0 0 0 0 0 0 0 0 0 0 0 0 127 0"
                result="hardAlpha"
            />
            <feOffset dy="1" />
            <feGaussianBlur stdDeviation="1.5" />
            <feColorMatrix type="matrix" values="0 0 0 0 1 0 0 0 0 0.498039 0 0 0 0 0.772549 0 0 0 0.3 0" />
            <feBlend mode="normal" in2="BackgroundImageFix" result="effect1_dropShadow_5640_39522" />
            <feBlend mode="normal" in="SourceGraphic" in2="effect1_dropShadow_5640_39522" result="shape" />
        </filter>
        <linearGradient
            id="paint0_linear_5640_39522"
            x1="62"
            y1="-4"
            x2="21.3504"
            y2="72.4455"
            gradientUnits="userSpaceOnUse"
        >
            <stop stop-color="white" />
            <stop offset="1" stop-color="#B2EAFE" />
        </linearGradient>
        <radialGradient
            id="paint1_radial_5640_39522"
            cx="0"
            cy="0"
            r="1"
            gradientUnits="userSpaceOnUse"
            gradientTransform="translate(56 8.5) rotate(127.747) scale(19.6023 18.0681)"
        >
            <stop stop-color="#27ABF4" stop-opacity="0.3" />
            <stop offset="1" stop-color="#27ABF4" stop-opacity="0" />
        </radialGradient>
        <linearGradient id="paint2_linear_5640_39522" x1="54.5" y1="11" x2="42" y2="25" gradientUnits="userSpaceOnUse">
            <stop stop-color="#B2EAFE" />
            <stop offset="1" stop-color="#27ABF4" />
        </linearGradient>
        <clipPath id="clip0_5640_39522">
            <rect width="72" height="72" fill="white" />
        </clipPath>
    </defs>
</svg>
