<svg
    xmlns="http://www.w3.org/2000/svg"
    xmlns:xlink="http://www.w3.org/1999/xlink" viewBox="0 0 722.75 722.76">
    <defs>
        <linearGradient id="b9def694-308a-443b-8820-479bec6eeaed" x1="417.16" y1="623.04" x2="442.67" y2="213.92" gradientTransform="matrix(1, 0, 0, -1, 0, 1021.89)" gradientUnits="userSpaceOnUse">
            <stop offset="0" stop-color="#6d4aff"/>
            <stop offset="0.99" stop-color="#2ae0ca"/>
        </linearGradient>
        <linearGradient id="a74ab531-ddf4-480a-8f0d-db2ca360bf59" x1="640.22" y1="156.08" x2="228.91" y2="859.44" gradientTransform="matrix(1, 0, 0, -1, 0, 1021.89)" gradientUnits="userSpaceOnUse">
            <stop offset="0.07" stop-color="#abffef"/>
            <stop offset="0.45" stop-color="#cac9ff"/>
            <stop offset="1" stop-color="#6d4aff"/>
        </linearGradient>
        <linearGradient id="bc2bb062-87f5-4899-82f0-93f44ad8a073" x1="613.34" y1="140.37" x2="202.04" y2="843.73" xlink:href="#a74ab531-ddf4-480a-8f0d-db2ca360bf59"/>
    </defs>
    <path d="M431,298.43,227.08,275c-55.31-6.34-94.69,52.44-67.79,101.18L414.15,838c24.93,45.18,89,47.62,117.27,4.48L692.69,596.69q-6.13.28-12.35.29C540.42,597,427,483.56,427,343.64A254.09,254.09,0,0,1,431,298.43Z" transform="translate(-150.62 -150.62)" style="fill:url(#b9def694-308a-443b-8820-479bec6eeaed)"/>
    <path d="M692.66,596.71q-6.12.3-12.32.29A252.39,252.39,0,0,1,575,574.11L452.26,760.88,429,795.82a22.85,22.85,0,0,1-39-1.59L414.15,838a68.81,68.81,0,0,0,16,19.56c29.95,25.09,77.82,20.6,101.24-15.09Z" transform="translate(-150.62 -150.62)" style="fill:url(#a74ab531-ddf4-480a-8f0d-db2ca360bf59)"/>
    <path d="M431,298.4,227.08,275c-55.31-6.34-94.69,52.44-67.79,101.18l2.05,3.71,274.9,31.81A255.47,255.47,0,0,1,431,298.4Z" transform="translate(-150.62 -150.62)" style="fill:url(#bc2bb062-87f5-4899-82f0-93f44ad8a073)"/>
    <circle cx="519.48" cy="203.27" r="203.27" style="fill:#ca3434"/>
    <path d="M593.28,430.71,746.92,277.07" transform="translate(-150.62 -150.62)" style="fill:none;stroke:#fff;stroke-linecap:round;stroke-linejoin:round;stroke-width:38px"/>
    <path d="M746.92,430.71,593.28,277.07" transform="translate(-150.62 -150.62)" style="fill:none;stroke:#fff;stroke-linecap:round;stroke-linejoin:round;stroke-width:38px"/>
</svg>
