<svg id="e79760c3-7783-49eb-b132-d80b896507f4"
    xmlns="http://www.w3.org/2000/svg"
    xmlns:xlink="http://www.w3.org/1999/xlink" viewBox="0 0 722.75 722.79">
    <defs>
        <linearGradient id="b1623545-5acd-46ed-985f-fb7294cf3555" x1="417.16" y1="218.85" x2="442.67" y2="627.97" gradientTransform="translate(-150.62 29.38)" gradientUnits="userSpaceOnUse">
            <stop offset="0" stop-color="#6d4aff"/>
            <stop offset="0.99" stop-color="#2ae0ca"/>
        </linearGradient>
        <linearGradient id="aff186ce-8496-485b-b78b-f3667a56efc8" x1="640.21" y1="685.82" x2="228.9" y2="-17.54" gradientTransform="translate(-150.62 29.38)" gradientUnits="userSpaceOnUse">
            <stop offset="0.07" stop-color="#abffef"/>
            <stop offset="0.45" stop-color="#cac9ff"/>
            <stop offset="1" stop-color="#6d4aff"/>
        </linearGradient>
        <linearGradient id="b52f13e0-cf7c-4422-a874-748011241ff1" x1="613.33" y1="701.52" x2="202.03" y2="-1.84" xlink:href="#aff186ce-8496-485b-b78b-f3667a56efc8"/>
    </defs>
    <path d="M280.38,147.81,76.46,124.38C21.15,118-18.23,176.82,8.67,225.56L263.53,687.38c24.93,45.18,89,47.62,117.27,4.48L542.07,446.07q-6.14.29-12.35.29C389.8,446.38,276.38,332.94,276.38,193A253.82,253.82,0,0,1,280.38,147.81Z" transform="translate(0 0)" style="fill:url(#b1623545-5acd-46ed-985f-fb7294cf3555)"/>
    <path d="M542,446.09q-6.12.3-12.32.29a252.29,252.29,0,0,1-105.34-22.89L301.64,610.26,278.38,645.2a22.84,22.84,0,0,1-39-1.59l24.15,43.77a68.8,68.8,0,0,0,16,19.56c30,25.09,77.82,20.6,101.24-15.09Z" transform="translate(0 0)" style="fill:url(#aff186ce-8496-485b-b78b-f3667a56efc8)"/>
    <path d="M280.38,147.78,76.46,124.38C21.15,118-18.23,176.82,8.67,225.56l2.05,3.71,274.9,31.81A255.61,255.61,0,0,1,280.38,147.78Z" transform="translate(0 0)" style="fill:url(#b52f13e0-cf7c-4422-a874-748011241ff1)"/>
    <circle cx="519.48" cy="203.27" r="203.27" style="fill:#1ea885"/>
    <path d="M411.94,215.09l73.27,73.27L638.84,134.73" transform="translate(0 0)" style="fill:none;stroke:#fff;stroke-linecap:round;stroke-linejoin:round;stroke-width:38px"/>
</svg>
