<svg width="113" height="70" fill="none" xmlns="http://www.w3.org/2000/svg">
    <path
        d="M43.502 1.788a.576.576 0 0 1 .996 0l1.85 3.296a.567.567 0 0 0 .393.278l3.795.69c.442.081.617.605.308.923l-2.652 2.728a.542.542 0 0 0-.15.45l.496 3.723c.058.433-.4.757-.806.57l-3.489-1.61a.583.583 0 0 0-.486 0l-3.489 1.61c-.406.187-.864-.137-.806-.57l.497-3.723a.542.542 0 0 0-.15-.45l-2.653-2.728a.548.548 0 0 1 .308-.922l3.795-.691a.567.567 0 0 0 .394-.278l1.849-3.296z"
        fill="#EAB308"
    />
    <path
        d="M54.72 11.11V9.645l4.321-6.826h2.297v6.776h1.303v1.517h-1.303V13h-1.76v-1.89h-4.857zm4.878-1.516V4.906h-.08L56.61 9.515v.08h2.988zm5.472 3.515a1.088 1.088 0 0 1-1.093-1.093 1.085 1.085 0 0 1 1.093-1.084c.587 0 1.09.487 1.094 1.084a1.107 1.107 0 0 1-1.094 1.093zm6.303-10.43c1.954.01 3.883 1.208 3.888 4.917.005 3.505-1.551 5.543-3.992 5.543-1.93 0-3.262-1.228-3.47-2.913h1.814c.184.81.776 1.317 1.656 1.317 1.407 0 2.197-1.297 2.202-3.475h-.07c-.492.875-1.446 1.407-2.545 1.407-1.785 0-3.152-1.387-3.157-3.306 0-1.989 1.467-3.505 3.674-3.49zm.005 1.491c-1.079 0-1.889.866-1.889 1.96.005 1.088.785 1.943 1.87 1.943 1.073 0 1.913-.905 1.908-1.959 0-1.039-.8-1.944-1.889-1.944zM25.057 35v-8.727h2.949c2.05 0 2.966 1.218 2.966 2.761 0 1.543-.917 2.779-2.95 2.779h-1.908V35h-1.057zm1.057-4.125h1.875c1.402 0 1.943-.793 1.943-1.84 0-1.05-.541-1.825-1.96-1.825h-1.858v3.665zM32.538 35v-6.546h.971v.99h.068c.24-.648.92-1.092 1.705-1.092.15 0 .413.009.528.017v1.023a3.08 3.08 0 0 0-.613-.068c-.955 0-1.654.648-1.654 1.534V35h-1.005zm6.924.136c-1.772 0-2.966-1.346-2.966-3.375 0-2.045 1.194-3.392 2.966-3.392 1.773 0 2.966 1.347 2.966 3.392 0 2.029-1.193 3.375-2.966 3.375zm0-.903c1.347 0 1.96-1.16 1.96-2.472s-.613-2.488-1.96-2.488c-1.346 0-1.96 1.176-1.96 2.488 0 1.313.614 2.472 1.96 2.472zm7.348-5.778v.852h-1.398v3.818c0 .852.426.989.87.989.221 0 .358-.034.443-.051l.204.903c-.136.051-.375.12-.75.12-.852 0-1.772-.546-1.772-1.688v-4.091h-.989v-.852h.989v-1.569h1.005v1.569h1.398zm4.102 6.681c-1.773 0-2.966-1.346-2.966-3.375 0-2.045 1.193-3.392 2.966-3.392 1.772 0 2.965 1.347 2.965 3.392 0 2.029-1.193 3.375-2.965 3.375zm0-.903c1.346 0 1.96-1.16 1.96-2.472s-.614-2.488-1.96-2.488c-1.347 0-1.96 1.176-1.96 2.488 0 1.313.613 2.472 1.96 2.472zm5.506-3.17V35h-1.005v-6.546h.971v1.023h.085c.307-.665.92-1.108 1.91-1.108 1.325 0 2.215.802 2.215 2.472V35H59.59v-4.09c0-1.028-.567-1.637-1.5-1.637-.963 0-1.67.648-1.67 1.79zm9.526-4.79h1.26l2.967 7.244h.102l2.966-7.244H74.5V35h-.988v-6.63h-.085L70.699 35h-.954l-2.728-6.63h-.085V35h-.989v-8.727zm12.465 8.88c-1.244 0-2.233-.733-2.233-2.011 0-1.5 1.325-1.768 2.54-1.926 1.193-.154 1.687-.11 1.687-.597v-.034c0-.84-.456-1.33-1.38-1.33-.96 0-1.483.512-1.705.99l-.954-.342c.511-1.193 1.636-1.534 2.625-1.534.835 0 2.42.239 2.42 2.319V35h-1.006v-.886h-.05c-.205.426-.802 1.04-1.944 1.04zm.153-.903c1.194 0 1.841-.801 1.841-1.62v-.92c-.17.205-1.312.324-1.738.375-.784.102-1.483.341-1.483 1.108 0 .699.58 1.057 1.38 1.057zm4.683.75v-6.546h1.005V35h-1.005zm.511-7.636c-.392 0-.716-.307-.716-.682 0-.375.324-.682.716-.682.392 0 .716.307.716.682 0 .375-.324.682-.716.682zm3.342-1.091V35h-1.006v-8.727h1.006z"
        fill="#4B5563"
    />
    <g clip-path="url(#clip0_1_1677)">
        <g clip-path="url(#clip1_1_1677)" fill="#9CA3AF" fill-opacity=".5">
            <path
                d="M.5 50.444v14.107h14.107v-5.637h-2.803v2.803H8.97v-5.636H6.167v5.636H3.334v-8.44h8.47v2.803h2.803v-5.636H.5zM27.434 62.57c-2.62 0-4.357-1.797-4.357-4.387 0-2.895 2.132-4.357 4.296-4.388 1.584 0 2.894.549 3.808 1.89.092.09.092.182 0 .243l-1.462 1.188-.122.061a.183.183 0 0 1-.152-.121 2.315 2.315 0 0 0-1.95-1.006c-1.25 0-2.103.853-2.103 2.102 0 1.25.823 2.103 2.103 2.103 1.066 0 1.614-.549 1.889-.945l.182-.091.122.06 1.28 1.31c.091.062.091.153.03.245a4.053 4.053 0 0 1-3.564 1.736zm13.01-8.379L35.72 66.227c-.03.092-.122.153-.244.153h-2.01c-.123 0-.184-.122-.123-.244l1.493-3.839-3.168-8.105c-.061-.121.03-.243.122-.243h2.102c.122 0 .183.06.213.152l1.89 5.362 2.132-5.362c.03-.122.122-.152.244-.152h2.01c.061 0 .122.122.061.243zm1.188 8.166c-.122 0-.183-.091-.183-.152v-12.4c0-.123.091-.184.183-.184h1.92c.121 0 .182.092.182.183v4.936a3.047 3.047 0 0 1 2.255-.945c2.559-.03 4.235 1.768 4.235 4.388s-1.676 4.387-4.235 4.387a3.017 3.017 0 0 1-2.499-1.188l-.305.823c-.03.121-.09.182-.182.182l-1.371-.03zm2.132-4.174c0 1.249.853 2.102 2.133 2.102 1.219 0 2.072-.853 2.072-2.102 0-1.25-.823-2.102-2.072-2.102-1.249-.03-2.133.822-2.133 2.102zm12.096 2.224c.792 0 1.402-.244 1.737-.548l.183-.092c.06 0 .091.03.121.091l1.22 1.25c.09.091.09.183.03.274-.793.853-1.95 1.188-3.413 1.188-2.68 0-4.448-1.767-4.448-4.387 0-2.62 1.737-4.388 4.357-4.388s4.387 1.524 4.357 5.089c0 .121-.092.182-.183.182h-6.094c.275.823.975 1.341 2.133 1.341zm1.737-2.986c-.213-.883-.853-1.462-1.95-1.462s-1.737.578-1.95 1.462h3.9zm7.525-1.31c-.517 0-1.035.335-1.31.914v5.21c0 .122-.091.183-.182.183h-1.95c-.122 0-.183-.092-.183-.183v-8.104c0-.122.091-.183.182-.183h1.341c.152 0 .244.122.244.183l.183.517a3.017 3.017 0 0 1 2.132-.853c.549 0 1.006.122 1.25.214.122.03.152.122.122.243l-.488 2.042c-.03.091-.091.122-.183.122l-.091-.03c-.213-.153-.701-.275-1.067-.275zm2.864-1.98c0-.122.092-.183.183-.183h1.554c.122 0 .183.091.244.183l.183.792c.548-.762 1.37-1.189 2.528-1.189 1.89 0 3.2 1.432 3.2 3.779v4.661c0 .122-.092.183-.183.183h-1.95c-.122 0-.183-.091-.183-.183V57.97c0-1.249-.67-1.95-1.584-1.95-.853.031-1.646.701-1.676 2.225v3.93c0 .092-.092.152-.183.152h-1.95c-.122 0-.183-.06-.183-.152v-8.043zm13.863 6.276c.792 0 1.402-.244 1.737-.548l.183-.092c.06 0 .091.03.122.091l1.218 1.25c.092.091.092.183.03.274-.791.853-1.95 1.188-3.412 1.188-2.68 0-4.448-1.767-4.448-4.387 0-2.62 1.737-4.388 4.357-4.388s4.387 1.524 4.357 5.089c0 .121-.091.182-.183.182h-6.094c.275.823 1.006 1.341 2.133 1.341zm1.737-2.986c-.213-.883-.853-1.462-1.95-1.462s-1.737.578-1.95 1.462h3.9zm7.891-3.32c.03-.123.091-.153.183-.153h1.645c.122 0 .183.06.213.152l1.371 5.301 1.006-5.3c.03-.092.091-.153.183-.153h2.224c.122 0 .152.091.122.183L96.2 62.235c-.03.091-.122.122-.214.122h-2.071c-.122 0-.183-.061-.214-.122l-1.218-4.966-1.25 4.966c-.03.091-.121.122-.213.122h-2.01c-.092 0-.184-.061-.184-.122l-2.285-8.104c-.03-.092.03-.183.122-.183h2.224c.092 0 .153.06.183.152l1.067 4.997 1.34-4.997zm7.617 7.28l.792-1.553c.03-.06.092-.091.122-.091l.122.03c.396.213 1.066.579 1.95.64l.305.03c.67 0 1.188-.213 1.188-.517 0-.427-.792-.64-1.889-.976-1.645-.457-2.529-1.218-2.56-2.498-.09-1.767 1.554-2.712 3.504-2.712a5.182 5.182 0 0 1 2.895.945c.091.06.122.152.061.244l-.792 1.462c-.031.092-.092.122-.153.122l-.122-.03c-.243-.122-.761-.427-1.614-.549l-.396-.03c-.64 0-1.067.243-1.067.548 0 .396.549.579 1.463.792 1.889.427 2.925 1.036 2.955 2.56.061 1.706-1.31 2.772-3.351 2.742-1.676 0-3.017-.67-3.352-.914-.122-.061-.122-.183-.06-.244zm11.029-5.91h-.304v.853h-.579v-2.376h.944c.275 0 .488.06.671.183a.651.651 0 0 1 .243.517c0 .153-.03.305-.091.397-.061.121-.183.182-.305.274l.488.944v.061h-.609l-.458-.853zm-.304-.426h.365c.122 0 .183-.03.244-.092.061-.06.092-.122.092-.244 0-.121-.031-.182-.092-.243s-.122-.092-.244-.092h-.365v.67z"
            />
            <path
                d="M110.063 53.338c1.005 0 1.828.823 1.828 1.828a1.834 1.834 0 0 1-1.828 1.829 1.833 1.833 0 0 1-1.828-1.829c0-1.005.822-1.828 1.828-1.828zm0-.609a2.445 2.445 0 0 0-2.438 2.437 2.445 2.445 0 0 0 2.438 2.438 2.445 2.445 0 0 0 2.437-2.438 2.445 2.445 0 0 0-2.437-2.437z"
            />
        </g>
    </g>
    <defs>
        <clipPath id="clip0_1_1677"><path fill="#fff" transform="translate(.5 46)" d="M0 0H112V24H0z" /></clipPath>
        <clipPath id="clip1_1_1677">
            <path fill="#fff" transform="translate(.5 49.621)" d="M0 0H112V16.757H0z" />
        </clipPath>
    </defs>
</svg>
