<svg xmlns="http://www.w3.org/2000/svg" id="Component_15_35" width="1571.453" height="633.727" data-name="Component 15 – 35" viewBox="0 0 1571.453 633.727">
    <defs>
        <style>
            .cls-1{opacity:.199}.cls-2{fill:#8b89cc}.cls-3{opacity:.246}
        </style>
    </defs>
    <g id="Group_3090" class="cls-1" data-name="Group 3090">
        <g id="Group_3089" data-name="Group 3089">
            <g id="Group_3084" data-name="Group 3084" transform="translate(580.255 398.591)">
                <path id="Rectangle_1369" d="M0 0h67.04v1.967H0z" class="cls-2" data-name="Rectangle 1369" transform="rotate(-45 57.223 23.703)"/>
            </g>
            <g id="Group_3085" data-name="Group 3085" transform="translate(556.02 363.726)">
                <path id="Rectangle_1370" d="M0 0h117.755v1.967H0z" class="cls-2" data-name="Rectangle 1370" transform="rotate(-45 100.511 41.633)"/>
            </g>
            <path id="Rectangle_1371" d="M0 0h148.107v1.96H0z" class="cls-2" data-name="Rectangle 1371" transform="rotate(-45 802.1 -429.165)"/>
            <path id="Rectangle_1372" d="M0 0h191.839v1.96H0z" class="cls-2" data-name="Rectangle 1372" transform="rotate(-44.998 787.583 -407.982)"/>
            <path id="Path_5911" d="M164.114 381.889l162.731-162.716 1.382 1.382-162.716 162.731z" class="cls-2" data-name="Path 5911" transform="translate(339.567 47.72)"/>
            <g id="Group_3086" data-name="Group 3086" transform="translate(736.146 158.404)">
                <path id="Rectangle_1373" d="M0 0h21.944v1.955H0z" class="cls-2" data-name="Rectangle 1373" transform="rotate(-44.994 18.731 7.758)"/>
            </g>
            <g id="Group_3087" data-name="Group 3087" transform="translate(728.394 177.796)">
                <path id="Rectangle_1374" d="M0 0h5.481v1.955H0z" class="cls-2" data-name="Rectangle 1374" transform="rotate(-45.006 4.678 1.938)"/>
            </g>
            <g id="Group_3088" data-name="Group 3088" transform="translate(716.771 185.548)">
                <path id="Rectangle_1375" d="M0 0h10.957v1.955H0z" class="cls-2" data-name="Rectangle 1375" transform="rotate(-44.994 9.353 3.873)"/>
            </g>
            <path id="Path_5912" d="M157.046 422.271l228.572-228.557L387 195.1 158.443 423.669z" class="cls-2" data-name="Path 5912" transform="translate(327.279 3.455)"/>
            <path id="Path_5913" d="M152.809 460.954L449 164.775l1.382 1.382-296.176 296.194z" class="cls-2" data-name="Path 5913" transform="translate(319.911 -46.861)"/>
            <path id="Path_5914" d="M147.154 467.349l310.726-310.71 1.382 1.382-310.711 310.726z" class="cls-2" data-name="Path 5914" transform="translate(310.079 -61.007)"/>
            <path id="Path_5915" d="M141.5 468.953l317.71-317.694 1.382 1.382L142.9 470.35z" class="cls-2" data-name="Path 5915" transform="translate(300.246 -70.361)"/>
            <path id="Path_5916" d="M135.842 471.013l325.41-325.4 1.383 1.387-325.4 325.41z" class="cls-2" data-name="Path 5916" transform="translate(290.411 -80.169)"/>
            <path id="Rectangle_1376" d="M0 0h465.632v1.965H0z" class="cls-2" data-name="Rectangle 1376" transform="rotate(-44.999 667.83 -304.3)"/>
            <path id="Rectangle_1377" d="M0 0h471.095v1.965H0z" class="cls-2" data-name="Rectangle 1377" transform="rotate(-44.999 650.732 -289.476)"/>
            <path id="Path_5917" d="M117.459 471.3l337-336.984 1.382 1.382-336.984 337z" class="cls-2" data-name="Path 5917" transform="translate(258.449 -99.824)"/>
            <path id="Path_5918" d="M108.972 478.679l348.636-348.613 1.382 1.382-348.613 348.635z" class="cls-2" data-name="Path 5918" transform="translate(243.693 -107.208)"/>
            <path id="Rectangle_1378" d="M0 0h504.013v1.966H0z" class="cls-2" data-name="Rectangle 1378" transform="rotate(-44.999 613.135 -211.931)"/>
            <path id="Path_5919" d="M86.344 501.577l375.791-375.769 1.382 1.382L87.749 502.981z" class="cls-2" data-name="Path 5919" transform="translate(204.35 -114.611)"/>
            <path id="Path_5920" d="M73.613 518.241l395.366-395.335 1.382 1.382L75.026 519.654z" class="cls-2" data-name="Path 5920" transform="translate(182.216 -119.657)"/>
            <path id="Path_5921" d="M59.468 535.549l413.713-413.682 1.382 1.382L60.88 536.962z" class="cls-2" data-name="Path 5921" transform="translate(157.621 -121.464)"/>
            <path id="Path_5922" d="M48.151 543.56l421.87-421.84 1.379 1.38L49.564 544.972z" class="cls-2" data-name="Path 5922" transform="translate(137.945 -121.72)"/>
            <path id="Path_5923" d="M36.83 551.318l429.636-429.6 1.382 1.382L38.25 552.738z" class="cls-2" data-name="Path 5923" transform="translate(118.262 -121.72)"/>
            <path id="Path_5924" d="M25.5 559.107L462.926 121.72l1.382 1.382L26.921 560.527z" class="cls-2" data-name="Path 5924" transform="translate(98.564 -121.72)"/>
            <path id="Path_5925" d="M17.014 559.1l437.429-437.38 1.382 1.382L18.442 560.531z" class="cls-2" data-name="Path 5925" transform="translate(83.808 -121.72)"/>
            <path id="Path_5926" d="M7.091 560.979l438.118-438.073 1.382 1.382L8.518 562.407z" class="cls-2" data-name="Path 5926" transform="translate(66.554 -119.657)"/>
            <path id="Path_5927" d="M.044 554.481l430.149-430.1 1.382 1.382L1.471 555.909z" class="cls-2" data-name="Path 5927" transform="translate(54.302 -117.098)"/>
            <path id="Path_5928" d="M-8.441 547.057l418.448-418.41 1.39 1.39L-7.014 548.485z" class="cls-2" data-name="Path 5928" transform="translate(39.549 -109.675)"/>
            <path id="Path_5929" d="M-13.454 526.332L377.818 135.1l1.39 1.39-391.234 391.27z" class="cls-2" data-name="Path 5929" transform="translate(30.833 -98.46)"/>
            <path id="Path_5930" d="M-17.736 502.521l360.387-360.348 1.39 1.39-360.35 360.386z" class="cls-2" data-name="Path 5930" transform="translate(23.388 -86.159)"/>
            <path id="Path_5931" d="M-19.8 477.556l331.178-331.14 1.39 1.39-331.14 331.178z" class="cls-2" data-name="Path 5931" transform="translate(19.8 -78.781)"/>
            <path id="Path_5932" d="M-19.8 451.861l304.063-304.032 1.4 1.4-304.035 304.06z" class="cls-2" data-name="Path 5932" transform="translate(19.8 -76.325)"/>
            <path id="Path_5933" d="M-13.454 408.782l259.57-259.539 1.4 1.4L-12.026 410.21z" class="cls-2" data-name="Path 5933" transform="translate(30.834 -73.865)"/>
            <path id="Path_5934" d="M-2.127 356.99l209.184-209.161 1.4 1.4L-.707 358.41z" class="cls-2" data-name="Path 5934" transform="translate(50.528 -76.324)"/>
            <path id="Path_5935" d="M.7 328.462l182.072-182.047 1.4 1.4L2.123 329.881z" class="cls-2" data-name="Path 5935" transform="translate(55.448 -78.783)"/>
            <path id="Path_5936" d="M.7 307.681L163.406 145l1.4 1.4L2.123 309.1z" class="cls-2" data-name="Path 5936" transform="translate(55.448 -81.242)"/>
            <path id="Path_5937" d="M.7 289.365l147.213-147.193 1.4 1.4L2.117 290.777z" class="cls-2" data-name="Path 5937" transform="translate(55.45 -86.161)"/>
            <path id="Rectangle_1379" d="M0 0h186.266v1.992H0z" class="cls-2" data-name="Rectangle 1379" transform="rotate(-44.998 245.326 22.193)"/>
            <path id="Rectangle_1380" d="M0 0h158.878v1.992H0z" class="cls-2" data-name="Rectangle 1380" transform="rotate(-44.998 220.011 17.185)"/>
            <path id="Rectangle_1381" d="M0 0h126.012v1.992H0z" class="cls-2" data-name="Rectangle 1381" transform="rotate(-45 191.964 5.605)"/>
            <path id="Rectangle_1382" d="M0 0h87.667v1.992H0z" class="cls-2" data-name="Rectangle 1382" transform="rotate(-44.997 161.168 -12.672)"/>
        </g>
    </g>
    <g id="Group_3099" class="cls-3" data-name="Group 3099" transform="translate(1028.832 24.706)">
        <g id="Group_3098" data-name="Group 3098">
            <g id="Group_3091" data-name="Group 3091" transform="translate(271.005 568.482)">
                <path id="Rectangle_1383" d="M0 0h12.954v2.372H0z" class="cls-2" data-name="Rectangle 1383" transform="rotate(-45 11.057 4.58)"/>
            </g>
            <g id="Group_3092" data-name="Group 3092" transform="translate(261.83 582.221)">
                <path id="Rectangle_1384" d="M0 0h6.486v2.386H0z" class="cls-2" data-name="Rectangle 1384" transform="rotate(-45 5.537 2.293)"/>
            </g>
            <path id="Rectangle_1385" d="M0 0h126.156v2.379H0z" class="cls-2" data-name="Rectangle 1385" transform="rotate(-45 840.1 45.688)"/>
            <path id="Rectangle_1386" d="M0 0h171.453v2.379H0z" class="cls-2" data-name="Rectangle 1386" transform="rotate(-44.998 826.357 78.656)"/>
            <path id="Rectangle_1387" d="M0 0h215.095v2.372H0z" class="cls-2" data-name="Rectangle 1387" transform="rotate(-45 811.81 109.964)"/>
            <path id="Path_5938" d="M298.661 327.917l178.623-178.6 1.669 1.668L300.348 329.6z" class="cls-2" data-name="Path 5938" transform="translate(-160.488 272.744)"/>
            <path id="Rectangle_1388" d="M0 0h149.222v2.34H0z" class="cls-2" data-name="Rectangle 1388" transform="rotate(-45 553.962 -380.308)"/>
            <path id="Path_5939" d="M293.038 347.1l210.546-210.515 1.66 1.66L294.725 348.79z" class="cls-2" data-name="Path 5939" transform="translate(-173.055 244.297)"/>
            <path id="Path_5940" d="M287.39 502.276L726.649 63.053 728.3 64.7 289.077 503.963z" class="cls-2" data-name="Path 5940" transform="translate(-185.679 79.946)"/>
            <path id="Path_5941" d="M281.737 511.678L738.714 54.747l1.642 1.641-456.932 456.977z" class="cls-2" data-name="Path 5941" transform="translate(-198.314 61.38)"/>
            <path id="Path_5942" d="M276.083 518.94L747.668 47.4l1.642 1.642-471.54 471.585z" class="cls-2" data-name="Path 5942" transform="translate(-210.953 44.96)"/>
            <path id="Path_5943" d="M272.2 517.353L748.161 41.442l1.641 1.641-475.91 475.957z" class="cls-2" data-name="Path 5943" transform="translate(-219.621 31.643)"/>
            <path id="Path_5944" d="M267.961 516.254L748.453 35.8l1.642 1.641-480.457 480.491z" class="cls-2" data-name="Path 5944" transform="translate(-229.106 19.029)"/>
            <path id="Path_5945" d="M263.713 515.179L748.781 30.147l1.641 1.642L265.39 516.857z" class="cls-2" data-name="Path 5945" transform="translate(-238.601 6.397)"/>
            <path id="Path_5946" d="M260.875 503.232L736.827 27.317l1.641 1.641L262.553 504.91z" class="cls-2" data-name="Path 5946" transform="translate(-244.943 .072)"/>
            <path id="Path_5947" d="M259.451 489.9L726.335 23.061l1.633 1.633-466.839 466.885z" class="cls-2" data-name="Path 5947" transform="translate(-248.126 -9.44)"/>
            <path id="Path_5948" d="M256.31 479.08L715.258 20.168l1.642 1.642-458.913 458.948z" class="cls-2" data-name="Path 5948" transform="translate(-255.147 -15.907)"/>
            <path id="Path_5949" d="M255.951 455.744l436.92-436.893 1.642 1.641-436.894 436.921z" class="cls-2" data-name="Path 5949" transform="translate(-255.951 -18.851)"/>
            <path id="Rectangle_1389" d="M0 0h219.956v2.328H0z" class="cls-2" data-name="Rectangle 1389" transform="rotate(-45 314.77 -228.72)"/>
            <g id="Group_3093" data-name="Group 3093" transform="translate(244.783 160.104)">
                <path id="Rectangle_1390" d="M0 0h6.472v2.332H0z" class="cls-2" data-name="Rectangle 1390" transform="rotate(-45 5.524 2.29)"/>
            </g>
            <g id="Group_3094" data-name="Group 3094" transform="translate(208.18 196.705)">
                <path id="Rectangle_1391" d="M0 0h6.471v2.334H0z" class="cls-2" data-name="Rectangle 1391" transform="rotate(-45.062 5.52 2.29)"/>
            </g>
            <path id="Path_5950" d="M255.951 286.067l203.6-203.584 1.651 1.65-203.585 203.6z" class="cls-2" data-name="Path 5950" transform="translate(-255.951 123.375)"/>
            <g id="Group_3095" data-name="Group 3095" transform="translate(281.392 .575)">
                <path id="Rectangle_1392" d="M0 0h141.493v2.323H0z" class="cls-2" data-name="Rectangle 1392" transform="rotate(-45 120.772 50.026)"/>
            </g>
            <path id="Rectangle_1393" d="M0 0h189.211v2.353H0z" class="cls-2" data-name="Rectangle 1393" transform="rotate(-44.998 460.3 189)"/>
            <g id="Group_3096" data-name="Group 3096" transform="translate(57.175 292.798)">
                <path id="Rectangle_1394" d="M0 0h6.473v2.346H0z" class="cls-2" data-name="Rectangle 1394" transform="rotate(-45 5.525 2.288)"/>
            </g>
            <path id="Rectangle_1395" d="M0 0h12.948v2.353H0z" class="cls-2" data-name="Rectangle 1395" transform="rotate(-45 397.265 103.197)"/>
            <g id="Group_3097" data-name="Group 3097" transform="translate(34.281 315.681)">
                <path id="Rectangle_1396" d="M0 0h6.476v2.359H0z" class="cls-2" data-name="Rectangle 1396" transform="rotate(-45 5.527 2.29)"/>
            </g>
        </g>
    </g>
</svg>
