<svg xmlns="http://www.w3.org/2000/svg" width="80" height="80" fill="none">
    <g filter="url(#a)">
        <path
            fill="url(#b)"
            d="M0 20C0 8.954 8.954 0 20 0h40c11.046 0 20 8.954 20 20v40c0 11.046-8.954 20-20 20H20C8.954 80 0 71.046 0 60V20Z"
        />
    </g>
    <g filter="url(#c)">
        <g filter="url(#d)">
            <path
                fill="url(#e)"
                d="M23.71 31.414a2 2 0 0 1 0-2.828l2.334-2.335a2 2 0 0 1 2.829 0l1.132 1.132-5.163 5.164-1.133-1.133Z"
            />
        </g>
        <g filter="url(#f)">
            <path
                fill="url(#g)"
                d="M56.195 31.414a2 2 0 0 0 0-2.828L53.86 26.25a2 2 0 0 0-2.828 0L49.9 27.382l5.163 5.164 1.132-1.132Z"
            />
        </g>
        <path fill="url(#h)" d="M38 23h4v2h-4z" />
        <g filter="url(#i)"><rect width="10" height="5" x="35" y="18" fill="url(#j)" rx="2" /></g>
        <g filter="url(#k)"><circle cx="40" cy="42" r="18" fill="url(#l)" /></g>
        <g filter="url(#m)"><circle cx="40" cy="42" r="15" fill="url(#n)" /></g>
        <path
            fill="url(#o)"
            d="M40.494 55a.5.5 0 0 1 .001-1v1Zm.01-1a.5.5 0 0 1 .002 1h-.012l.001-.5V54h.01ZM29 42.505a.5.5 0 0 1-1 0h1Zm24 0a.5.5 0 0 1-1 0h1Zm-25-.01h1v.01h-1v-.01Zm24 0h1v.01h-1v-.01Zm-23.5-.5a.5.5 0 0 1 .5.5h-1a.5.5 0 0 1 .5-.5Zm24 0a.5.5 0 0 1 .5.5h-1a.5.5 0 0 1 .5-.5ZM40.506 30a.5.5 0 0 1-.001 1h-.01a.5.5 0 0 1 0-1h.01Z"
        />
        <g filter="url(#p)">
            <path
                fill="url(#q)"
                d="M33.562 52.14a.5.5 0 0 1 .59-.223l.093.042.009.005.082.06a.5.5 0 0 1-.49.847l-.093-.042-.009-.005-.082-.06a.5.5 0 0 1-.1-.623Zm12.286-.223a.5.5 0 0 1 .408.907l-.009.005-.093.042a.5.5 0 0 1-.408-.907l.009-.005.093-.042Zm-16.494-4.354a.5.5 0 0 1 .623.101l.06.082.004.009.042.092a.5.5 0 0 1-.848.49l-.06-.081-.004-.009-.042-.093a.5.5 0 0 1 .225-.59Zm20.67.101a.5.5 0 0 1 .805.583l-.005.009-.06.082a.5.5 0 0 1-.805-.583l.005-.009.06-.082ZM29.235 35.662a.5.5 0 0 1 .806.583l-.005.009-.06.082a.5.5 0 0 1-.805-.583l.005-.009.06-.082Zm20.906-.1a.5.5 0 0 1 .624.1l.06.082.004.009.042.093a.5.5 0 0 1-.847.49l-.06-.082-.005-.009-.042-.093a.5.5 0 0 1 .224-.59Zm-16.295-4.433a.5.5 0 0 1 .408.907l-.009.005-.092.042a.5.5 0 0 1-.409-.907l.01-.005.092-.042Zm11.718.224a.5.5 0 0 1 .59-.224l.093.042.009.005.082.06a.5.5 0 0 1-.49.847l-.093-.042-.009-.005-.082-.06a.5.5 0 0 1-.1-.623Z"
            />
        </g>
        <path stroke="#2FAF9A" stroke-linecap="round" d="m37.213 40.548 12.797 6.018" />
        <circle cx="40" cy="42" r="1.5" fill="url(#r)" />
    </g>
    <defs>
        <linearGradient id="b" x1="33.846" x2="33.846" y1="-.001" y2="79.999" gradientUnits="userSpaceOnUse">
            <stop stop-color="#EDFCF2" />
            <stop offset="1" stop-color="#BCF5E2" />
        </linearGradient>
        <linearGradient id="e" x1="27.224" x2="29.564" y1="25.071" y2="29.757" gradientUnits="userSpaceOnUse">
            <stop stop-color="#8AFFB0" />
            <stop offset="1" stop-color="#4ACFA2" />
        </linearGradient>
        <linearGradient id="g" x1="52.68" x2="50.341" y1="25.071" y2="29.755" gradientUnits="userSpaceOnUse">
            <stop stop-color="#8AFFB0" />
            <stop offset="1" stop-color="#4ACFA2" />
        </linearGradient>
        <linearGradient id="h" x1="43" x2="42.602" y1="19.256" y2="25.175" gradientUnits="userSpaceOnUse">
            <stop stop-color="#0A2420" />
            <stop offset="1" stop-color="#30B49E" />
        </linearGradient>
        <linearGradient id="j" x1="44.545" x2="42.218" y1="18" y2="24.877" gradientUnits="userSpaceOnUse">
            <stop stop-color="#8AFFB0" />
            <stop offset="1" stop-color="#4ACFA2" />
        </linearGradient>
        <linearGradient id="l" x1="56.364" x2="30.744" y1="24" y2="61.844" gradientUnits="userSpaceOnUse">
            <stop stop-color="#8AFFB0" />
            <stop offset="1" stop-color="#4ACFA2" />
        </linearGradient>
        <linearGradient id="n" x1="37.963" x2="37.911" y1="31.423" y2="59.435" gradientUnits="userSpaceOnUse">
            <stop stop-color="#F2F2F2" />
            <stop offset="1" stop-color="#E0FFEB" />
        </linearGradient>
        <linearGradient id="o" x1="59.25" x2="49.424" y1="-16.795" y2="56.201" gradientUnits="userSpaceOnUse">
            <stop stop-color="#0A2420" />
            <stop offset="1" stop-color="#30B49E" />
        </linearGradient>
        <linearGradient id="q" x1="49.906" x2="34.397" y1="31.103" y2="54.013" gradientUnits="userSpaceOnUse">
            <stop stop-color="#8AFFB0" />
            <stop offset="1" stop-color="#4ACFA2" />
        </linearGradient>
        <linearGradient id="r" x1="42.25" x2="41.071" y1="34.885" y2="43.644" gradientUnits="userSpaceOnUse">
            <stop stop-color="#0A2420" />
            <stop offset="1" stop-color="#30B49E" />
        </linearGradient>
        <filter
            id="a"
            width="80"
            height="83.125"
            x="0"
            y="-1.875"
            color-interpolation-filters="sRGB"
            filterUnits="userSpaceOnUse"
        >
            <feFlood flood-opacity="0" result="BackgroundImageFix" />
            <feBlend in="SourceGraphic" in2="BackgroundImageFix" result="shape" />
            <feColorMatrix in="SourceAlpha" result="hardAlpha" values="0 0 0 0 0 0 0 0 0 0 0 0 0 0 0 0 0 0 127 0" />
            <feOffset dy="-1.875" />
            <feGaussianBlur stdDeviation="1.25" />
            <feComposite in2="hardAlpha" k2="-1" k3="1" operator="arithmetic" />
            <feColorMatrix values="0 0 0 0 0.988235 0 0 0 0 0.661961 0 0 0 0 0.580392 0 0 0 0.2 0" />
            <feBlend in2="shape" result="effect1_innerShadow_15791_3272" />
            <feColorMatrix in="SourceAlpha" result="hardAlpha" values="0 0 0 0 0 0 0 0 0 0 0 0 0 0 0 0 0 0 127 0" />
            <feOffset dy="1.25" />
            <feGaussianBlur stdDeviation="1.25" />
            <feComposite in2="hardAlpha" k2="-1" k3="1" operator="arithmetic" />
            <feColorMatrix values="0 0 0 0 1 0 0 0 0 1 0 0 0 0 1 0 0 0 0.3 0" />
            <feBlend in2="effect1_innerShadow_15791_3272" result="effect2_innerShadow_15791_3272" />
        </filter>
        <filter
            id="c"
            width="40"
            height="47.875"
            x="20"
            y="16.125"
            color-interpolation-filters="sRGB"
            filterUnits="userSpaceOnUse"
        >
            <feFlood flood-opacity="0" result="BackgroundImageFix" />
            <feColorMatrix in="SourceAlpha" result="hardAlpha" values="0 0 0 0 0 0 0 0 0 0 0 0 0 0 0 0 0 0 127 0" />
            <feOffset dy="2" />
            <feGaussianBlur stdDeviation="1" />
            <feComposite in2="hardAlpha" operator="out" />
            <feColorMatrix values="0 0 0 0 0 0 0 0 0 0.53488 0 0 0 0 0.445734 0 0 0 0.15 0" />
            <feBlend in2="BackgroundImageFix" result="effect1_dropShadow_15791_3272" />
            <feBlend in="SourceGraphic" in2="effect1_dropShadow_15791_3272" result="shape" />
            <feColorMatrix in="SourceAlpha" result="hardAlpha" values="0 0 0 0 0 0 0 0 0 0 0 0 0 0 0 0 0 0 127 0" />
            <feOffset dy="-1.875" />
            <feGaussianBlur stdDeviation="1.25" />
            <feComposite in2="hardAlpha" k2="-1" k3="1" operator="arithmetic" />
            <feColorMatrix values="0 0 0 0 0 0 0 0 0 0.595845 0 0 0 0 0.496537 0 0 0 0.25 0" />
            <feBlend in2="shape" result="effect2_innerShadow_15791_3272" />
            <feColorMatrix in="SourceAlpha" result="hardAlpha" values="0 0 0 0 0 0 0 0 0 0 0 0 0 0 0 0 0 0 127 0" />
            <feOffset dx="-2.5" dy="1.875" />
            <feGaussianBlur stdDeviation=".938" />
            <feComposite in2="hardAlpha" k2="-1" k3="1" operator="arithmetic" />
            <feColorMatrix values="0 0 0 0 1 0 0 0 0 1 0 0 0 0 1 0 0 0 0.1 0" />
            <feBlend in2="effect2_innerShadow_15791_3272" result="effect3_innerShadow_15791_3272" />
        </filter>
        <filter
            id="d"
            width="8.015"
            height="9.146"
            x="21.991"
            y="24.533"
            color-interpolation-filters="sRGB"
            filterUnits="userSpaceOnUse"
        >
            <feFlood flood-opacity="0" result="BackgroundImageFix" />
            <feBlend in="SourceGraphic" in2="BackgroundImageFix" result="shape" />
            <feColorMatrix in="SourceAlpha" result="hardAlpha" values="0 0 0 0 0 0 0 0 0 0 0 0 0 0 0 0 0 0 127 0" />
            <feOffset dy="-1.132" />
            <feGaussianBlur stdDeviation=".849" />
            <feComposite in2="hardAlpha" k2="-1" k3="1" operator="arithmetic" />
            <feColorMatrix values="0 0 0 0 0.188235 0 0 0 0 0.705882 0 0 0 0 0.619608 0 0 0 0.3 0" />
            <feBlend in2="shape" result="effect1_innerShadow_15791_3272" />
            <feColorMatrix in="SourceAlpha" result="hardAlpha" values="0 0 0 0 0 0 0 0 0 0 0 0 0 0 0 0 0 0 127 0" />
            <feOffset dx="-1.698" dy="1.132" />
            <feGaussianBlur stdDeviation=".566" />
            <feComposite in2="hardAlpha" k2="-1" k3="1" operator="arithmetic" />
            <feColorMatrix values="0 0 0 0 1 0 0 0 0 1 0 0 0 0 1 0 0 0 0.1 0" />
            <feBlend in2="effect1_innerShadow_15791_3272" result="effect2_innerShadow_15791_3272" />
        </filter>
        <filter
            id="f"
            width="8.013"
            height="9.146"
            x="48.768"
            y="24.533"
            color-interpolation-filters="sRGB"
            filterUnits="userSpaceOnUse"
        >
            <feFlood flood-opacity="0" result="BackgroundImageFix" />
            <feBlend in="SourceGraphic" in2="BackgroundImageFix" result="shape" />
            <feColorMatrix in="SourceAlpha" result="hardAlpha" values="0 0 0 0 0 0 0 0 0 0 0 0 0 0 0 0 0 0 127 0" />
            <feOffset dy="-1.132" />
            <feGaussianBlur stdDeviation=".849" />
            <feComposite in2="hardAlpha" k2="-1" k3="1" operator="arithmetic" />
            <feColorMatrix values="0 0 0 0 0.188235 0 0 0 0 0.705882 0 0 0 0 0.619608 0 0 0 0.3 0" />
            <feBlend in2="shape" result="effect1_innerShadow_15791_3272" />
            <feColorMatrix in="SourceAlpha" result="hardAlpha" values="0 0 0 0 0 0 0 0 0 0 0 0 0 0 0 0 0 0 127 0" />
            <feOffset dx="-1.698" dy="1.132" />
            <feGaussianBlur stdDeviation=".566" />
            <feComposite in2="hardAlpha" k2="-1" k3="1" operator="arithmetic" />
            <feColorMatrix values="0 0 0 0 1 0 0 0 0 1 0 0 0 0 1 0 0 0 0.1 0" />
            <feBlend in2="effect1_innerShadow_15791_3272" result="effect2_innerShadow_15791_3272" />
        </filter>
        <filter
            id="i"
            width="11.132"
            height="7.264"
            x="33.868"
            y="16.868"
            color-interpolation-filters="sRGB"
            filterUnits="userSpaceOnUse"
        >
            <feFlood flood-opacity="0" result="BackgroundImageFix" />
            <feBlend in="SourceGraphic" in2="BackgroundImageFix" result="shape" />
            <feColorMatrix in="SourceAlpha" result="hardAlpha" values="0 0 0 0 0 0 0 0 0 0 0 0 0 0 0 0 0 0 127 0" />
            <feOffset dy="-1.132" />
            <feGaussianBlur stdDeviation=".849" />
            <feComposite in2="hardAlpha" k2="-1" k3="1" operator="arithmetic" />
            <feColorMatrix values="0 0 0 0 0.188235 0 0 0 0 0.705882 0 0 0 0 0.619608 0 0 0 0.3 0" />
            <feBlend in2="shape" result="effect1_innerShadow_15791_3272" />
            <feColorMatrix in="SourceAlpha" result="hardAlpha" values="0 0 0 0 0 0 0 0 0 0 0 0 0 0 0 0 0 0 127 0" />
            <feOffset dx="-1.698" dy="1.132" />
            <feGaussianBlur stdDeviation=".566" />
            <feComposite in2="hardAlpha" k2="-1" k3="1" operator="arithmetic" />
            <feColorMatrix values="0 0 0 0 1 0 0 0 0 1 0 0 0 0 1 0 0 0 0.1 0" />
            <feBlend in2="effect1_innerShadow_15791_3272" result="effect2_innerShadow_15791_3272" />
        </filter>
        <filter
            id="k"
            width="37.132"
            height="38.264"
            x="20.868"
            y="22.868"
            color-interpolation-filters="sRGB"
            filterUnits="userSpaceOnUse"
        >
            <feFlood flood-opacity="0" result="BackgroundImageFix" />
            <feBlend in="SourceGraphic" in2="BackgroundImageFix" result="shape" />
            <feColorMatrix in="SourceAlpha" result="hardAlpha" values="0 0 0 0 0 0 0 0 0 0 0 0 0 0 0 0 0 0 127 0" />
            <feOffset dy="-1.132" />
            <feGaussianBlur stdDeviation=".849" />
            <feComposite in2="hardAlpha" k2="-1" k3="1" operator="arithmetic" />
            <feColorMatrix values="0 0 0 0 0.188235 0 0 0 0 0.705882 0 0 0 0 0.619608 0 0 0 0.3 0" />
            <feBlend in2="shape" result="effect1_innerShadow_15791_3272" />
            <feColorMatrix in="SourceAlpha" result="hardAlpha" values="0 0 0 0 0 0 0 0 0 0 0 0 0 0 0 0 0 0 127 0" />
            <feOffset dx="-1.698" dy="1.132" />
            <feGaussianBlur stdDeviation=".566" />
            <feComposite in2="hardAlpha" k2="-1" k3="1" operator="arithmetic" />
            <feColorMatrix values="0 0 0 0 1 0 0 0 0 1 0 0 0 0 1 0 0 0 0.1 0" />
            <feBlend in2="effect1_innerShadow_15791_3272" result="effect2_innerShadow_15791_3272" />
        </filter>
        <filter
            id="m"
            width="30"
            height="33.125"
            x="25"
            y="25.125"
            color-interpolation-filters="sRGB"
            filterUnits="userSpaceOnUse"
        >
            <feFlood flood-opacity="0" result="BackgroundImageFix" />
            <feBlend in="SourceGraphic" in2="BackgroundImageFix" result="shape" />
            <feColorMatrix in="SourceAlpha" result="hardAlpha" values="0 0 0 0 0 0 0 0 0 0 0 0 0 0 0 0 0 0 127 0" />
            <feOffset dy="-1.875" />
            <feGaussianBlur stdDeviation="1.25" />
            <feComposite in2="hardAlpha" k2="-1" k3="1" operator="arithmetic" />
            <feColorMatrix values="0 0 0 0 0.580392 0 0 0 0 0.988235 0 0 0 0 0.852288 0 0 0 0.2 0" />
            <feBlend in2="shape" result="effect1_innerShadow_15791_3272" />
            <feColorMatrix in="SourceAlpha" result="hardAlpha" values="0 0 0 0 0 0 0 0 0 0 0 0 0 0 0 0 0 0 127 0" />
            <feOffset dy="1.25" />
            <feGaussianBlur stdDeviation="1.25" />
            <feComposite in2="hardAlpha" k2="-1" k3="1" operator="arithmetic" />
            <feColorMatrix values="0 0 0 0 1 0 0 0 0 1 0 0 0 0 1 0 0 0 0.3 0" />
            <feBlend in2="effect1_innerShadow_15791_3272" result="effect2_innerShadow_15791_3272" />
        </filter>
        <filter
            id="p"
            width="22.925"
            height="24.057"
            x="27.971"
            y="29.971"
            color-interpolation-filters="sRGB"
            filterUnits="userSpaceOnUse"
        >
            <feFlood flood-opacity="0" result="BackgroundImageFix" />
            <feBlend in="SourceGraphic" in2="BackgroundImageFix" result="shape" />
            <feColorMatrix in="SourceAlpha" result="hardAlpha" values="0 0 0 0 0 0 0 0 0 0 0 0 0 0 0 0 0 0 127 0" />
            <feOffset dy="-1.132" />
            <feGaussianBlur stdDeviation=".849" />
            <feComposite in2="hardAlpha" k2="-1" k3="1" operator="arithmetic" />
            <feColorMatrix values="0 0 0 0 0.188235 0 0 0 0 0.705882 0 0 0 0 0.619608 0 0 0 0.3 0" />
            <feBlend in2="shape" result="effect1_innerShadow_15791_3272" />
            <feColorMatrix in="SourceAlpha" result="hardAlpha" values="0 0 0 0 0 0 0 0 0 0 0 0 0 0 0 0 0 0 127 0" />
            <feOffset dx="-1.698" dy="1.132" />
            <feGaussianBlur stdDeviation=".566" />
            <feComposite in2="hardAlpha" k2="-1" k3="1" operator="arithmetic" />
            <feColorMatrix values="0 0 0 0 1 0 0 0 0 1 0 0 0 0 1 0 0 0 0.1 0" />
            <feBlend in2="effect1_innerShadow_15791_3272" result="effect2_innerShadow_15791_3272" />
        </filter>
    </defs>
</svg>
