<svg xmlns="http://www.w3.org/2000/svg" width="72" height="72" fill="none" viewBox="0 0 72 72">
    <path fill="url(#a)" d="M43 27h27v39H43V27Z" />
    <path fill="url(#b)" fill-opacity=".2" d="M43 27h27v39H43V27Z" />
    <path fill="url(#c)" d="M15 7h32v59H15V7Z" />
    <path
        fill="url(#d)"
        fill-rule="evenodd"
        d="M21 15.025c0-1.118.907-2.025 2.025-2.025h3.95c1.118 0 2.025.907 2.025 2.025v3.95A2.025 2.025 0 0 1 26.975 21h-3.95A2.025 2.025 0 0 1 21 18.975v-3.95ZM23.025 25A2.025 2.025 0 0 0 21 27.025v3.95c0 1.118.907 2.025 2.025 2.025h3.95A2.025 2.025 0 0 0 29 30.975v-3.95A2.025 2.025 0 0 0 26.975 25h-3.95Zm0 12A2.025 2.025 0 0 0 21 39.025v3.95c0 1.118.907 2.025 2.025 2.025h3.95A2.025 2.025 0 0 0 29 42.975v-3.95A2.025 2.025 0 0 0 26.975 37h-3.95Zm12 0A2.025 2.025 0 0 0 33 39.025v3.95c0 1.118.907 2.025 2.025 2.025h3.95A2.025 2.025 0 0 0 41 42.975v-3.95A2.025 2.025 0 0 0 38.975 37h-3.95ZM33 27.025c0-1.118.907-2.025 2.025-2.025h3.95c1.118 0 2.025.907 2.025 2.025v3.95A2.025 2.025 0 0 1 38.975 33h-3.95A2.025 2.025 0 0 1 33 30.975v-3.95ZM35.025 13A2.025 2.025 0 0 0 33 15.025v3.95c0 1.118.907 2.025 2.025 2.025h3.95A2.025 2.025 0 0 0 41 18.975v-3.95A2.025 2.025 0 0 0 38.975 13h-3.95Z"
        clip-rule="evenodd"
    />
    <path
        fill="url(#e)"
        fill-rule="evenodd"
        d="M60 33.5a1.5 1.5 0 0 1 1.5-1.5h3a1.5 1.5 0 0 1 1.5 1.5v3a1.5 1.5 0 0 1-1.5 1.5h-3a1.5 1.5 0 0 1-1.5-1.5v-3Zm1.5 7.5a1.5 1.5 0 0 0-1.5 1.5v3a1.5 1.5 0 0 0 1.5 1.5h3a1.5 1.5 0 0 0 1.5-1.5v-3a1.5 1.5 0 0 0-1.5-1.5h-3Zm0 9a1.5 1.5 0 0 0-1.5 1.5v3a1.5 1.5 0 0 0 1.5 1.5h3a1.5 1.5 0 0 0 1.5-1.5v-3a1.5 1.5 0 0 0-1.5-1.5h-3Zm-9 0a1.5 1.5 0 0 0-1.5 1.5v3a1.5 1.5 0 0 0 1.5 1.5h3a1.5 1.5 0 0 0 1.5-1.5v-3a1.5 1.5 0 0 0-1.5-1.5h-3ZM51 42.5a1.5 1.5 0 0 1 1.5-1.5h3a1.5 1.5 0 0 1 1.5 1.5v3a1.5 1.5 0 0 1-1.5 1.5h-3a1.5 1.5 0 0 1-1.5-1.5v-3ZM52.5 32a1.5 1.5 0 0 0-1.5 1.5v3a1.5 1.5 0 0 0 1.5 1.5h3a1.5 1.5 0 0 0 1.5-1.5v-3a1.5 1.5 0 0 0-1.5-1.5h-3Z"
        clip-rule="evenodd"
    />
    <path fill="#D7CEFF" d="M14 7a1 1 0 0 1 1-1h32a1 1 0 1 1 0 2H15a1 1 0 0 1-1-1Z" />
    <path fill="url(#f)" d="M47 26h23a1 1 0 1 1 0 2H47v-2Z" />
    <path fill="url(#g)" d="M11 58h2v8h-2z" />
    <path
        fill="url(#h)"
        d="M18 53.77c0 3.44-2.686 6.23-6 6.23s-6-2.79-6-6.23C6 50.327 8.686 33 12 33s6 17.328 6 20.77Z"
    />
    <path fill="url(#i)" d="M5 58h2v8H5z" />
    <path fill="url(#j)" d="M10.5 59.25a4.5 4.5 0 1 1-9 0c0-2.485 2.015-15 4.5-15s4.5 12.515 4.5 15Z" />
    <path fill="#6C4DF0" d="M26 56a3 3 0 0 1 3-3h5a3 3 0 0 1 3 3v10H26V56Z" />
    <defs>
        <linearGradient id="a" x1="65.577" x2="16.56" y1="26.494" y2="68.3" gradientUnits="userSpaceOnUse">
            <stop stop-color="#D783FF" />
            <stop offset="1" stop-color="#6D4AFF" />
        </linearGradient>
        <linearGradient id="b" x1="55.375" x2="51.25" y1="39.877" y2="39.877" gradientUnits="userSpaceOnUse">
            <stop stop-color="#5C41CC" stop-opacity="0" />
            <stop offset="1" stop-color="#5C41CC" />
        </linearGradient>
        <linearGradient id="c" x1="47" x2="-14.015" y1="1.934" y2="72.282" gradientUnits="userSpaceOnUse">
            <stop stop-color="#D783FF" />
            <stop offset="1" stop-color="#6D4AFF" />
        </linearGradient>
        <linearGradient id="d" x1="45.281" x2="21.211" y1="8.719" y2="51.123" gradientUnits="userSpaceOnUse">
            <stop stop-color="#D783FF" stop-opacity=".65" />
            <stop offset=".105" stop-color="#fff" stop-opacity=".5" />
            <stop offset="1" stop-color="#D783FF" stop-opacity=".6" />
        </linearGradient>
        <linearGradient id="e" x1="72" x2="51.751" y1="26" y2="60.318" gradientUnits="userSpaceOnUse">
            <stop stop-color="#D783FF" stop-opacity=".65" />
            <stop offset=".152" stop-color="#fff" stop-opacity=".5" />
            <stop offset="1" stop-color="#D783FF" stop-opacity=".6" />
        </linearGradient>
        <linearGradient id="f" x1="30.341" x2="57.77" y1="27" y2="27" gradientUnits="userSpaceOnUse">
            <stop stop-color="#6C4DF0" />
            <stop offset="1" stop-color="#D7CEFF" />
        </linearGradient>
        <linearGradient id="g" x1="12" x2="12" y1="57.273" y2="63.455" gradientUnits="userSpaceOnUse">
            <stop stop-color="#76A83A" />
            <stop offset="1" stop-color="#CA8244" />
        </linearGradient>
        <linearGradient id="h" x1="-6.75" x2="11.267" y1="40.125" y2="60.445" gradientUnits="userSpaceOnUse">
            <stop stop-color="#B6FFCE" />
            <stop offset="1" stop-color="#30B49E" />
        </linearGradient>
        <linearGradient id="i" x1="6" x2="6" y1="57.273" y2="63.455" gradientUnits="userSpaceOnUse">
            <stop stop-color="#76A83A" />
            <stop offset="1" stop-color="#CA8244" />
        </linearGradient>
        <linearGradient id="j" x1="-13.125" x2="1.5" y1="51" y2="63.75" gradientUnits="userSpaceOnUse">
            <stop stop-color="#B6FFCE" />
            <stop offset="1" stop-color="#30B49E" />
        </linearGradient>
    </defs>
</svg>
