<svg xmlns="http://www.w3.org/2000/svg" width="72" height="72" fill="none" viewBox="0 0 72 72">
    <g clip-path="url(#a)">
        <path
            fill="url(#b)"
            d="m9.307 11.198-3.58-5.012L7.875 4.04l5.012 3.58.047.333a6.58 6.58 0 0 0 1.862 3.723l30.103 30.103-1.432 1.432-30.103-30.103a6.58 6.58 0 0 0-3.723-1.861l-.334-.048Z"
        />
        <path
            fill="url(#c)"
            d="M41.518 47.378a2.025 2.025 0 0 1-.448-3.202l4.795-4.795a2.025 2.025 0 0 1 3.202.449l.21.379c.183.329.41.63.677.897l1.747 1.746 17.182 15.751 1.074 1.074a4.05 4.05 0 0 1 0 5.728l-2.863 2.864a4.05 4.05 0 0 1-5.728 0l-1.074-1.074-15.75-17.183-1.748-1.747a4.051 4.051 0 0 0-.896-.676l-.38-.211Z"
        />
        <path fill="#FFB59D" d="m42.035 47.504 7.16-7.16.715.716-7.16 7.16z" />
        <path
            fill="#FDAD94"
            d="M45.958 48.595a1.033 1.033 0 0 1 1.461-1.461l16.072 15.43a1.488 1.488 0 1 1-2.104 2.104l-15.43-16.073Zm2.863-2.867a1.033 1.033 0 0 1 1.461-1.461l16.073 15.43a1.488 1.488 0 1 1-2.104 2.104l-15.43-16.073Z"
        />
        <path
            fill="url(#d)"
            fill-rule="evenodd"
            d="M60.732 6.682c-5.087-1.993-11.094-.935-15.204 3.175-5.088 5.088-5.5 13.082-1.235 18.64L60.732 6.682Z"
            clip-rule="evenodd"
        />
        <path
            fill="url(#e)"
            fill-rule="evenodd"
            d="M42 10.987a14.186 14.186 0 0 0-2.003 10.147l-.01-.01a4.977 4.977 0 0 1 .073.34 5.05 5.05 0 0 1-1.5 4.553L6.117 56.705a6.893 6.893 0 1 0 9.745 9.745L46.55 34.008a5.049 5.049 0 0 1 4.892-1.428l-.01-.01a14.159 14.159 0 0 0 12.539-3.928c5.134-5.134 5.506-13.226 1.117-18.79L56.18 21.674 42 10.987ZM13.14 59.428a3.037 3.037 0 1 0-4.296 4.295 3.037 3.037 0 0 0 4.296-4.295Z"
            clip-rule="evenodd"
        />
        <path
            fill="url(#f)"
            d="M39.966 28.977a2.563 2.563 0 0 1 3.624 3.624L18.84 57.97a3 3 0 1 1-4.243-4.243l25.369-24.749Z"
        />
        <g clip-path="url(#g)">
            <rect
                width="12.15"
                height="4.05"
                x="46.073"
                y="17.902"
                fill="url(#h)"
                rx="2.025"
                transform="rotate(45 46.073 17.902)"
            />
            <path
                fill="url(#i)"
                fill-rule="evenodd"
                d="M50.293 20.736a.506.506 0 0 1-.255.67l-5.19 2.326a.506.506 0 1 1-.414-.924l5.19-2.327a.506.506 0 0 1 .67.255Zm-1.432-1.432a.506.506 0 0 1-.255.67l-5.19 2.326a.506.506 0 1 1-.414-.924l5.19-2.327a.506.506 0 0 1 .67.255Zm2.61 3.533a.506.506 0 1 0-.415-.924l-5.19 2.327a.506.506 0 1 0 .413.924l5.191-2.327Zm1.328 1.12a.506.506 0 0 1-.255.67l-5.19 2.327a.506.506 0 0 1-.415-.924l5.19-2.327a.506.506 0 0 1 .67.255Zm1.177 2.102a.506.506 0 1 0-.414-.924l-5.19 2.327a.506.506 0 1 0 .413.924l5.191-2.327Z"
                clip-rule="evenodd"
            />
        </g>
    </g>
    <defs>
        <linearGradient id="b" x1="3.375" x2="25.996" y1="1.686" y2="46.454" gradientUnits="userSpaceOnUse">
            <stop stop-color="#A5B3C3" />
            <stop offset=".035" stop-color="#D5DADE" />
            <stop offset=".228" stop-color="#A5B3C3" />
            <stop offset="1" stop-color="#8591A8" />
        </linearGradient>
        <linearGradient id="c" x1="42.312" x2="33.547" y1="35.937" y2="57.392" gradientUnits="userSpaceOnUse">
            <stop stop-color="#FFD7B3" />
            <stop offset="1" stop-color="#FFB39B" />
        </linearGradient>
        <linearGradient id="d" x1="59.069" x2="39.942" y1="5.019" y2="24.146" gradientUnits="userSpaceOnUse">
            <stop stop-color="#A9B8C6" />
            <stop offset="1" stop-color="#8793AA" />
        </linearGradient>
        <linearGradient id="e" x1="64.019" x2="1.925" y1="8.782" y2="62.569" gradientUnits="userSpaceOnUse">
            <stop stop-color="#D5DADE" />
            <stop offset=".228" stop-color="#A5B3C3" />
            <stop offset="1" stop-color="#8591A8" />
        </linearGradient>
        <linearGradient id="f" x1="44.821" x2="9.202" y1="30.252" y2="57.279" gradientUnits="userSpaceOnUse">
            <stop stop-color="#6D7A92" />
            <stop offset="1" stop-color="#7E8BA5" />
        </linearGradient>
        <linearGradient id="h" x1="52.148" x2="52.148" y1="19.421" y2="21.952" gradientUnits="userSpaceOnUse">
            <stop stop-color="#A8B7C6" />
            <stop offset="1" stop-color="#6E7C94" />
        </linearGradient>
        <linearGradient id="i" x1="51.98" x2="46.074" y1="21.301" y2="25.06" gradientUnits="userSpaceOnUse">
            <stop stop-color="#6E7B94" />
            <stop offset="1" stop-color="#6E7B94" />
        </linearGradient>
        <clipPath id="a">
            <path fill="#fff" d="M0 0h72v72H0z" />
        </clipPath>
        <clipPath id="g">
            <rect
                width="12.15"
                height="4.05"
                x="46.073"
                y="17.902"
                fill="#fff"
                rx="2.025"
                transform="rotate(45 46.073 17.902)"
            />
        </clipPath>
    </defs>
</svg>
