<svg xmlns="http://www.w3.org/2000/svg" width="72" height="72" fill="none" viewBox="0 0 72 72">
    <path
        fill="url(#a)"
        fill-rule="evenodd"
        d="M30.494 58.296c2.128 3.826 7.594 4.033 10.01.38l22.53-34.07c2.39-3.613.104-8.457-4.223-8.95l-44.285-5.038c-4.72-.537-8.083 4.441-5.786 8.57l.18.322 19.76 13.54-.24 21.54 2.054 3.706Z"
        clip-rule="evenodd"
    />
    <path
        fill="url(#b)"
        d="m31.763 54.73 2-2.983L48.95 28.804c1.328-2.006.06-4.697-2.342-4.973L8.915 19.505 28.44 54.608c.713 1.256 2.515 1.325 3.322.122Z"
    />
    <defs>
        <radialGradient
            id="b"
            cx="0"
            cy="0"
            r="1"
            gradientTransform="matrix(-3.74472 57.05254 -73.57538 -4.82922 31.815 3.434)"
            gradientUnits="userSpaceOnUse"
        >
            <stop offset=".403" stop-color="#6D4AFF" />
            <stop offset=".994" stop-color="#00F0C3" />
        </radialGradient>
        <linearGradient id="a" x1="58.64" x2="22.607" y1="58.293" y2="-3.847" gradientUnits="userSpaceOnUse">
            <stop offset=".066" stop-color="#8EFFEE" />
            <stop offset=".45" stop-color="#C9C7FF" />
            <stop offset="1" stop-color="#7341FF" />
        </linearGradient>
    </defs>
</svg>
