<svg xmlns="http://www.w3.org/2000/svg" width="72" height="72" fill="none" viewBox="0 0 72 72">
    <g clip-path="url(#a)">
        <g opacity=".5">
            <path
                fill="url(#b)"
                d="M26.692 3.183a2.434 2.434 0 0 1 2.98-1.721l34.063 9.127a2.434 2.434 0 0 1 1.722 2.981L50.928 67.79a2.434 2.434 0 0 1-2.98 1.722l-34.064-9.127a2.434 2.434 0 0 1-1.72-2.981l14.528-54.22Z"
            />
            <path
                fill="url(#c)"
                fill-rule="evenodd"
                d="M31.014 29.507a12.801 12.801 0 0 1-1.285-9.748c1.836-6.85 8.878-10.915 15.729-9.08 6.85 1.836 10.916 8.878 9.08 15.728a12.802 12.802 0 0 1-6.013 7.815c-1.398-3.126-4.112-5.606-7.64-6.552-3.52-.942-7.1-.159-9.87 1.837Zm10.41-3.765c2.578.691 5.223-.814 5.905-3.361.683-2.548-.855-5.174-3.434-5.865-2.579-.69-5.223.814-5.906 3.362-.682 2.547.855 5.173 3.434 5.864Z"
                clip-rule="evenodd"
            />
            <path
                fill="#fff"
                fill-rule="evenodd"
                d="M48.523 34.225c-2.84 1.63-6.3 2.18-9.713 1.265a12.803 12.803 0 0 1-7.797-5.982c2.77-1.995 6.35-2.779 9.869-1.836 3.529.945 6.244 3.427 7.641 6.553Zm-1.196-11.843c-.683 2.547-3.327 4.052-5.907 3.361-2.579-.69-4.116-3.316-3.434-5.864.683-2.547 3.327-4.052 5.907-3.361 2.579.69 4.116 3.316 3.434 5.864Z"
                clip-rule="evenodd"
            />
            <rect
                width="24.079"
                height="1.605"
                x="25.934"
                y="37.023"
                fill="#FFD0AE"
                rx=".803"
                transform="rotate(15 25.934 37.023)"
            />
            <rect
                width="16.053"
                height="1.605"
                x="28.98"
                y="41.164"
                fill="#FFD0AE"
                rx=".803"
                transform="rotate(15 28.98 41.164)"
            />
            <path
                fill="url(#d)"
                fill-rule="evenodd"
                d="M30.105-.083a4.057 4.057 0 0 0-4.968 2.869l-14.52 54.187a4.057 4.057 0 0 0 2.869 4.968l34.029 9.118a4.057 4.057 0 0 0 4.968-2.868l14.52-54.187a4.057 4.057 0 0 0-2.869-4.969L58.361 7.49 35.878 1.464 30.105-.083Zm-.433 1.546a2.434 2.434 0 0 0-2.98 1.722l-3.318 12.38-7.894 29.46-3.317 12.38a2.434 2.434 0 0 0 1.721 2.981l34.063 9.127a2.434 2.434 0 0 0 2.981-1.721l3.317-12.38 7.894-29.46 3.317-12.38a2.434 2.434 0 0 0-1.72-2.981L29.672 1.463Z"
                clip-rule="evenodd"
            />
        </g>
        <path
            fill="url(#e)"
            d="M7.607 7.016a2.5 2.5 0 0 1 2.5-2.5h36.666a2.5 2.5 0 0 1 2.5 2.5v58.333a2.5 2.5 0 0 1-2.5 2.5H10.107a2.5 2.5 0 0 1-2.5-2.5V7.016Z"
        />
        <path
            fill="url(#f)"
            fill-rule="evenodd"
            d="m19.015 32.279-.003-.003a13.29 13.29 0 0 1-3.905-9.428c0-7.363 5.97-13.332 13.333-13.332 7.364 0 13.333 5.969 13.333 13.332a13.29 13.29 0 0 1-3.93 9.453c-2.242-2.759-5.631-4.517-9.424-4.517-3.782 0-7.163 1.749-9.404 4.495Zm9.427-6.574c2.772 0 5.02-2.22 5.02-4.958s-2.248-4.958-5.02-4.958c-2.773 0-5.02 2.22-5.02 4.958 0 2.739 2.247 4.959 5.02 4.959Z"
            clip-rule="evenodd"
        />
        <path
            fill="#fff"
            fill-rule="evenodd"
            d="M37.84 32.303a13.291 13.291 0 0 1-9.4 3.878 13.292 13.292 0 0 1-9.427-3.904c2.242-2.745 5.622-4.493 9.404-4.493 3.793 0 7.182 1.759 9.424 4.519Zm-4.382-11.556c0 2.738-2.247 4.958-5.02 4.958-2.771 0-5.019-2.22-5.019-4.958s2.248-4.958 5.02-4.958c2.772 0 5.02 2.22 5.02 4.958Z"
            clip-rule="evenodd"
        />
        <rect width="25" height="1.667" x="15.94" y="41.18" fill="#FFD0AE" rx=".833" />
        <rect width="16.667" height="1.667" x="20.107" y="44.516" fill="#FFD0AE" rx=".833" />
        <path
            fill="url(#g)"
            fill-rule="evenodd"
            d="M10.107 2.848A4.167 4.167 0 0 0 5.94 7.014v58.334a4.167 4.167 0 0 0 4.167 4.166h36.666a4.167 4.167 0 0 0 4.167-4.166V7.014a4.167 4.167 0 0 0-4.167-4.166H10.107Zm0 1.666a2.5 2.5 0 0 0-2.5 2.5v58.334a2.5 2.5 0 0 0 2.5 2.5h36.666a2.5 2.5 0 0 0 2.5-2.5V7.014a2.5 2.5 0 0 0-2.5-2.5H10.107Z"
            clip-rule="evenodd"
        />
    </g>
    <defs>
        <linearGradient id="b" x1="66.398" x2="7.968" y1="10.056" y2="57.553" gradientUnits="userSpaceOnUse">
            <stop stop-color="#fff" />
            <stop offset="1" stop-color="#F9EEE8" />
        </linearGradient>
        <linearGradient id="c" x1="56.755" x2="32.05" y1="10.383" y2="31.836" gradientUnits="userSpaceOnUse">
            <stop stop-color="#EF9279" />
            <stop offset="1" stop-color="#FFD7B3" />
        </linearGradient>
        <linearGradient id="d" x1="70.305" x2="-11.424" y1="-2.55" y2="55.04" gradientUnits="userSpaceOnUse">
            <stop stop-color="#FFD7B3" />
            <stop offset="1" stop-color="#FFB39B" />
        </linearGradient>
        <linearGradient id="e" x1="49.273" x2="3.44" y1="3.266" y2="66.599" gradientUnits="userSpaceOnUse">
            <stop stop-color="#fff" />
            <stop offset="1" stop-color="#F9EEE8" />
        </linearGradient>
        <linearGradient id="f" x1="39.69" x2="20.68" y1="6.182" y2="34.336" gradientUnits="userSpaceOnUse">
            <stop stop-color="#EF9279" />
            <stop offset="1" stop-color="#FFD7B3" />
        </linearGradient>
        <linearGradient id="g" x1="40.713" x2="-9.648" y1="1.333" y2="47.726" gradientUnits="userSpaceOnUse">
            <stop stop-color="#FFD7B3" />
            <stop offset="1" stop-color="#FFB39B" />
        </linearGradient>
        <clipPath id="a">
            <path fill="#fff" d="M0 0h72v72H0z" />
        </clipPath>
    </defs>
</svg>
