<svg width="72" height="72" viewBox="0 0 72 72" fill="none" xmlns="http://www.w3.org/2000/svg">
    <g filter="url(#filter0_i_13719_25299)">
        <path
            d="M55.3848 21.0958C55.3848 16.5076 59.1042 12.7881 63.6925 12.7881C68.2807 12.7881 72.0002 16.5076 72.0002 21.0958C72.0002 25.684 68.2807 29.4035 63.6925 29.4035C59.1042 29.4035 55.3848 25.684 55.3848 21.0958Z"
            fill="url(#paint0_linear_13719_25299)"
        />
    </g>
    <path
        d="M63.5586 20.2724C64.5601 20.2724 65.372 19.4605 65.372 18.459C65.372 17.4574 64.5601 16.6455 63.5586 16.6455C62.557 16.6455 61.7451 17.4574 61.7451 18.459C61.7451 19.4605 62.557 20.2724 63.5586 20.2724Z"
        fill="white"
    />
    <path
        d="M61.0459 25.3948C59.9642 25.3948 59.2324 24.2176 59.7733 23.295C60.505 21.9588 61.9367 21.0361 63.5911 21.0361C65.2454 21.0361 66.6453 21.9269 67.4088 23.295C67.9497 24.2494 67.218 25.3948 66.1362 25.3948H61.0459Z"
        fill="white"
    />
    <mask
        id="mask0_13719_25299"
        style="mask-type: alpha"
        maskUnits="userSpaceOnUse"
        x="55"
        y="12"
        width="17"
        height="18"
    >
        <path
            d="M55.3848 21.0958C55.3848 16.5076 59.1042 12.7881 63.6925 12.7881C68.2807 12.7881 72.0002 16.5076 72.0002 21.0958C72.0002 25.684 68.2807 29.4035 63.6925 29.4035C59.1042 29.4035 55.3848 25.684 55.3848 21.0958Z"
            fill="url(#paint1_linear_13719_25299)"
        />
    </mask>
    <g mask="url(#mask0_13719_25299)">
        <g opacity="0.3" filter="url(#filter1_f_13719_25299)">
            <path
                d="M37.7327 35.7202L4.98438 35.7202L9.28948 27.7909C10.1816 26.2148 11.2829 24.9728 13.7582 24.9728L37.8423 24.9728L61.9483 24.9728C64.4017 24.9728 65.3408 26.2148 66.417 27.7909L70.7221 35.7202L37.7327 35.7202Z"
                fill="black"
            />
        </g>
    </g>
    <g filter="url(#filter2_i_13719_25299)">
        <path
            d="M29.3535 11.6807C29.3535 7.09253 33.073 3.37305 37.6612 3.37305C42.2494 3.37305 45.9689 7.09253 45.9689 11.6807C45.9689 16.269 42.2494 19.9884 37.6612 19.9884C33.073 19.9884 29.3535 16.269 29.3535 11.6807Z"
            fill="url(#paint2_linear_13719_25299)"
        />
    </g>
    <path
        d="M37.5283 10.8574C38.5298 10.8574 39.3417 10.0454 39.3417 9.04391C39.3417 8.04237 38.5298 7.23047 37.5283 7.23047C36.5267 7.23047 35.7148 8.04237 35.7148 9.04391C35.7148 10.0454 36.5267 10.8574 37.5283 10.8574Z"
        fill="white"
    />
    <path
        d="M35.0146 15.9792C33.9329 15.9792 33.2012 14.8021 33.742 13.8795C34.4738 12.5432 35.9054 11.6206 37.5598 11.6206C39.2142 11.6206 40.614 12.5114 41.3776 13.8795C41.9184 14.8339 41.1867 15.9792 40.105 15.9792H35.0146Z"
        fill="white"
    />
    <path d="M6.54785 44.5278H66.7639V66.5423H6.54785V44.5278Z" fill="#BDB9B3" />
    <path
        d="M36.7064 37.146L3.95801 37.146L8.26312 29.2166C9.1552 27.6406 10.2565 26.3985 12.7318 26.3985L36.8159 26.3985L60.9219 26.3985C63.3753 26.3985 64.3144 27.6406 65.3906 29.2166L69.6957 37.146L36.7064 37.146Z"
        fill="url(#paint3_linear_13719_25299)"
    />
    <mask
        id="mask1_13719_25299"
        style="mask-type: alpha"
        maskUnits="userSpaceOnUse"
        x="3"
        y="26"
        width="67"
        height="12"
    >
        <path
            d="M36.9479 37.1465L69.6963 37.1465L65.3912 29.2171C64.4991 27.6411 63.3978 26.399 60.9225 26.399L36.8384 26.399L12.7324 26.399C10.279 26.399 9.33988 27.6411 8.26371 29.2171L3.9586 37.1465L36.9479 37.1465Z"
            fill="url(#paint4_linear_13719_25299)"
        />
    </mask>
    <g mask="url(#mask1_13719_25299)">
        <g opacity="0.3" filter="url(#filter3_f_13719_25299)">
            <path
                d="M-3.32324 23.5886C-3.32324 16.4004 2.50395 10.5732 9.69215 10.5732C16.8804 10.5732 22.7075 16.4004 22.7075 23.5886C22.7075 30.7768 16.8804 36.604 9.69215 36.604C2.50395 36.604 -3.32324 30.7768 -3.32324 23.5886Z"
                fill="black"
            />
        </g>
    </g>
    <g filter="url(#filter4_i_13719_25299)">
        <path
            d="M3.95898 54.8221C3.95898 53.607 4.94396 52.6221 6.15898 52.6221H67.4967C68.7117 52.6221 69.6967 53.607 69.6967 54.8221V65.5094C69.6967 66.7244 68.7117 67.7094 67.4967 67.7094H6.15898C4.94395 67.7094 3.95898 66.7244 3.95898 65.5094V54.8221Z"
            fill="url(#paint5_linear_13719_25299)"
        />
    </g>
    <path
        opacity="0.5"
        d="M8.26953 60.1656C8.26953 59.5704 8.75202 59.0879 9.3472 59.0879H41.1384C41.7336 59.0879 42.216 59.5704 42.216 60.1656C42.216 60.7607 41.7336 61.2432 41.1384 61.2432H9.3472C8.75202 61.2432 8.26953 60.7607 8.26953 60.1656Z"
        fill="#BDB9B3"
    />
    <path
        d="M59.459 60.1656C59.459 59.5704 59.9415 59.0879 60.5367 59.0879C61.1318 59.0879 61.6143 59.5704 61.6143 60.1656C61.6143 60.7607 61.1318 61.2432 60.5367 61.2432C59.9415 61.2432 59.459 60.7607 59.459 60.1656Z"
        fill="#BDB9B3"
    />
    <path
        d="M55.1484 60.1656C55.1484 59.5704 55.6309 59.0879 56.2261 59.0879C56.8213 59.0879 57.3038 59.5704 57.3038 60.1656C57.3038 60.7607 56.8213 61.2432 56.2261 61.2432C55.6309 61.2432 55.1484 60.7607 55.1484 60.1656Z"
        fill="#BDB9B3"
    />
    <path
        d="M63.7705 60.1656C63.7705 59.5704 64.253 59.0879 64.8482 59.0879C65.4434 59.0879 65.9258 59.5704 65.9258 60.1656C65.9258 60.7607 65.4434 61.2432 64.8482 61.2432C64.253 61.2432 63.7705 60.7607 63.7705 60.1656Z"
        fill="#10C282"
    />
    <g filter="url(#filter5_i_13719_25299)">
        <rect
            x="3.95898"
            y="35.1401"
            width="65.7377"
            height="15.0873"
            rx="2.2"
            fill="url(#paint6_linear_13719_25299)"
        />
    </g>
    <path
        opacity="0.5"
        d="M58.9463 46.3171L59.4209 45.5559C59.6652 45.7125 59.9001 45.8268 60.1257 45.8989C60.3512 45.9709 60.5987 46.007 60.8681 46.007C61.3066 46.007 61.634 45.902 61.8501 45.6922C62.0663 45.4823 62.1743 45.2254 62.1743 44.9216C62.1743 44.5269 62.0287 44.234 61.7374 44.0429C61.4492 43.8487 61.0325 43.7516 60.4875 43.7516H59.933V42.8682H60.4499C60.948 42.8682 61.3223 42.7789 61.5729 42.6004C61.8235 42.4218 61.9488 42.1367 61.9488 41.7452C61.9488 41.4413 61.858 41.2095 61.6763 41.0498C61.4977 40.89 61.2675 40.8101 60.9856 40.8101C60.7569 40.8101 60.5282 40.8493 60.2995 40.9276C60.0709 41.0028 59.8375 41.1202 59.5994 41.28L59.1248 40.5423C59.435 40.3324 59.7482 40.1774 60.0646 40.0771C60.3841 39.9769 60.7334 39.9268 61.1124 39.9268C61.7045 39.9268 62.1806 40.0787 62.5408 40.3825C62.9042 40.6864 63.0859 41.0905 63.0859 41.5948C63.0859 42.002 62.981 42.3466 62.7711 42.6286C62.5643 42.9105 62.2527 43.1172 61.836 43.2488V43.2676C62.2715 43.3302 62.6254 43.5057 62.898 43.7938C63.1736 44.0789 63.3114 44.4407 63.3114 44.8793C63.3114 45.487 63.0984 45.9756 62.6724 46.3453C62.2464 46.7118 61.6794 46.895 60.9715 46.895C60.5862 46.895 60.2322 46.8496 59.9095 46.7588C59.5869 46.6648 59.2658 46.5176 58.9463 46.3171Z"
        fill="#474542"
    />
    <path
        opacity="0.5"
        d="M58.0393 41.7034L56.7518 41.9242L57.6587 42.9956L56.9774 43.4607L56.2866 42.2438L55.5959 43.4607L54.9099 42.9956L55.8215 41.9242L54.5293 41.7034L54.7971 40.9422L56.0094 41.4309L55.8544 40.04H56.7189L56.5686 41.4309L57.7714 40.9422L58.0393 41.7034Z"
        fill="#474542"
    />
    <path
        opacity="0.5"
        d="M53.7727 41.7034L52.4852 41.9242L53.3921 42.9956L52.7108 43.4607L52.02 42.2438L51.3293 43.4607L50.6433 42.9956L51.5549 41.9242L50.2627 41.7034L50.5305 40.9422L51.7428 41.4309L51.5877 40.04H52.4523L52.302 41.4309L53.5048 40.9422L53.7727 41.7034Z"
        fill="#474542"
    />
    <path
        opacity="0.5"
        d="M48.6745 46.8859C48.4741 46.8859 48.3065 46.8233 48.1718 46.698C48.0371 46.5695 47.9697 46.4113 47.9697 46.2234C47.9697 46.0354 48.0371 45.8772 48.1718 45.7488C48.3065 45.6204 48.4741 45.5562 48.6745 45.5562C48.875 45.5562 49.041 45.6204 49.1726 45.7488C49.3073 45.8741 49.3747 46.0323 49.3747 46.2234C49.3747 46.4113 49.3073 46.5695 49.1726 46.698C49.041 46.8233 48.875 46.8859 48.6745 46.8859Z"
        fill="#474542"
    />
    <path
        opacity="0.5"
        d="M47.092 41.7034L45.8045 41.9242L46.7114 42.9956L46.0301 43.4607L45.3394 42.2438L44.6487 43.4607L43.9626 42.9956L44.8742 41.9242L43.582 41.7034L43.8499 40.9422L45.0621 41.4309L44.9071 40.04H45.7717L45.6213 41.4309L46.8242 40.9422L47.092 41.7034Z"
        fill="#474542"
    />
    <path
        opacity="0.5"
        d="M41.9939 46.8859C41.7934 46.8859 41.6258 46.8233 41.4911 46.698C41.3564 46.5695 41.2891 46.4113 41.2891 46.2234C41.2891 46.0354 41.3564 45.8772 41.4911 45.7488C41.6258 45.6204 41.7934 45.5562 41.9939 45.5562C42.1944 45.5562 42.3604 45.6204 42.4919 45.7488C42.6266 45.8741 42.694 46.0323 42.694 46.2234C42.694 46.4113 42.6266 46.5695 42.4919 46.698C42.3604 46.8233 42.1944 46.8859 41.9939 46.8859Z"
        fill="#474542"
    />
    <path
        opacity="0.5"
        d="M40.4094 41.7034L39.1219 41.9242L40.0288 42.9956L39.3475 43.4607L38.6568 42.2438L37.966 43.4607L37.28 42.9956L38.1916 41.9242L36.8994 41.7034L37.1672 40.9422L38.3795 41.4309L38.2245 40.04H39.089L38.9387 41.4309L40.1416 40.9422L40.4094 41.7034Z"
        fill="#474542"
    />
    <path
        opacity="0.5"
        d="M36.0124 44.6114C36.0124 45.2818 35.8057 45.83 35.3922 46.256C34.9787 46.682 34.4556 46.895 33.8228 46.895C33.1148 46.895 32.562 46.6272 32.1641 46.0915C31.7663 45.5528 31.5674 44.7853 31.5674 43.7891C31.5674 43.2598 31.6222 42.7523 31.7318 42.2667C31.8415 41.7781 32.0341 41.3458 32.3098 40.9699C32.5635 40.619 32.858 40.3575 33.1932 40.1852C33.5283 40.0129 33.9371 39.9268 34.4195 39.9268C34.6513 39.9268 34.8878 39.9643 35.1291 40.0395C35.3703 40.1116 35.6162 40.2431 35.8668 40.4342L35.2982 41.1296C35.1541 41.02 35.0084 40.9401 34.8612 40.89C34.7171 40.8368 34.5511 40.8101 34.3632 40.8101C34.1094 40.8101 33.8839 40.8634 33.6865 40.9699C33.4892 41.0733 33.3059 41.2377 33.1368 41.4633C32.9833 41.6669 32.8658 41.9159 32.7844 42.2104C32.7061 42.5048 32.6653 42.8306 32.6622 43.1877H32.6857C32.8642 42.9622 33.0804 42.793 33.3341 42.6802C33.5879 42.5643 33.8588 42.5064 34.147 42.5064C34.7109 42.5064 35.1619 42.7006 35.5003 43.089C35.8417 43.4743 36.0124 43.9818 36.0124 44.6114ZM34.9364 44.6678C34.9364 44.2355 34.8409 43.9129 34.6498 43.6999C34.4618 43.4837 34.2097 43.3757 33.8933 43.3757C33.5236 43.3757 33.2323 43.4931 33.0193 43.7281C32.8094 43.963 32.7045 44.2512 32.7045 44.5926C32.7045 45.003 32.8079 45.3413 33.0146 45.6076C33.2245 45.8738 33.4986 46.007 33.8369 46.007C34.1689 46.007 34.4352 45.8911 34.6357 45.6593C34.8362 45.4243 34.9364 45.0938 34.9364 44.6678Z"
        fill="#474542"
    />
    <path
        opacity="0.5"
        d="M30.6926 41.7034L29.4051 41.9242L30.312 42.9956L29.6307 43.4607L28.94 42.2438L28.2492 43.4607L27.5632 42.9956L28.4748 41.9242L27.1826 41.7034L27.4504 40.9422L28.6627 41.4309L28.5077 40.04H29.3722L29.2219 41.4309L30.4248 40.9422L30.6926 41.7034Z"
        fill="#474542"
    />
    <path
        opacity="0.5"
        d="M25.5945 46.8859C25.394 46.8859 25.2264 46.8233 25.0917 46.698C24.957 46.5695 24.8896 46.4113 24.8896 46.2234C24.8896 46.0354 24.957 45.8772 25.0917 45.7488C25.2264 45.6204 25.394 45.5562 25.5945 45.5562C25.7949 45.5562 25.961 45.6204 26.0925 45.7488C26.2272 45.8741 26.2946 46.0323 26.2946 46.2234C26.2946 46.4113 26.2272 46.5695 26.0925 46.698C25.961 46.8233 25.7949 46.8859 25.5945 46.8859Z"
        fill="#474542"
    />
    <path
        opacity="0.5"
        d="M23.8933 43.042C23.8933 44.2888 23.6694 45.2426 23.2214 45.9036C22.7766 46.5646 22.0812 46.895 21.1352 46.895C20.8031 46.895 20.4977 46.8449 20.2189 46.7447C19.9401 46.6413 19.6754 46.48 19.4248 46.2607L20.0028 45.57C20.1719 45.7141 20.3473 45.8221 20.529 45.8942C20.7138 45.9631 20.9331 45.9976 21.1868 45.9976C21.7162 45.9976 22.1219 45.8018 22.4038 45.4102C22.6889 45.0155 22.8314 44.411 22.8314 43.5965L22.8079 43.5918C22.6638 43.8361 22.4727 44.021 22.2347 44.1463C21.9997 44.2684 21.7178 44.3295 21.3889 44.3295C20.8282 44.3295 20.3677 44.1337 20.0075 43.7422C19.6472 43.3506 19.4671 42.8494 19.4671 42.2386C19.4671 41.5494 19.6754 40.9918 20.092 40.5658C20.5118 40.1398 21.0474 39.9268 21.699 39.9268C22.3913 39.9268 22.9301 40.1993 23.3154 40.7443C23.7007 41.2894 23.8933 42.0553 23.8933 43.042ZM22.7797 42.3043C22.7797 41.8689 22.6732 41.5118 22.4602 41.233C22.2503 40.9511 21.9794 40.8101 21.6473 40.8101C21.3309 40.8101 21.0678 40.9354 20.8579 41.186C20.6512 41.4335 20.5478 41.7467 20.5478 42.1258C20.5478 42.5424 20.6512 42.8666 20.8579 43.0984C21.0678 43.3271 21.3435 43.4414 21.6849 43.4414C21.9982 43.4414 22.2582 43.3318 22.4649 43.1125C22.6748 42.8901 22.7797 42.6207 22.7797 42.3043Z"
        fill="#474542"
    />
    <path
        opacity="0.5"
        d="M18.5598 41.7034L17.2723 41.9242L18.1792 42.9956L17.4979 43.4607L16.8071 42.2438L16.1164 43.4607L15.4304 42.9956L16.342 41.9242L15.0498 41.7034L15.3176 40.9422L16.5299 41.4309L16.3749 40.04H17.2394L17.0891 41.4309L18.292 40.9422L18.5598 41.7034Z"
        fill="#474542"
    />
    <path
        opacity="0.5"
        d="M13.5425 46.778H12.4289V41.3134C12.288 41.4199 12.0891 41.5295 11.8322 41.6423C11.5785 41.7551 11.3326 41.8459 11.0945 41.9148L10.7891 40.9939C11.1838 40.8874 11.5769 40.7339 11.9685 40.5334C12.3632 40.3298 12.6936 40.1152 12.9599 39.8896H13.5425V46.778Z"
        fill="#474542"
    />
    <g filter="url(#filter6_i_13719_25299)">
        <path
            d="M0 21.0958C0 15.2841 4.71135 10.5728 10.5231 10.5728C16.3348 10.5728 21.0462 15.2841 21.0462 21.0958C21.0462 26.9076 16.3348 31.6189 10.5231 31.6189C4.71135 31.6189 0 26.9076 0 21.0958Z"
            fill="url(#paint7_linear_13719_25299)"
        />
    </g>
    <path
        d="M10.3546 20.0526C11.6233 20.0526 12.6517 19.0241 12.6517 17.7555C12.6517 16.4869 11.6233 15.4585 10.3546 15.4585C9.08602 15.4585 8.05762 16.4869 8.05762 17.7555C8.05762 19.0241 9.08602 20.0526 10.3546 20.0526Z"
        fill="white"
    />
    <path
        d="M7.1712 26.541C5.80104 26.541 4.87417 25.0499 5.55925 23.8812C6.48612 22.1887 8.29956 21.02 10.3951 21.02C12.4906 21.02 14.2638 22.1484 15.231 23.8812C15.916 25.0902 14.9892 26.541 13.619 26.541H7.1712Z"
        fill="white"
    />
    <defs>
        <filter
            id="filter0_i_13719_25299"
            x="55.3848"
            y="12.7881"
            width="16.6152"
            height="17.7229"
            filterUnits="userSpaceOnUse"
            color-interpolation-filters="sRGB"
        >
            <feFlood flood-opacity="0" result="BackgroundImageFix" />
            <feBlend mode="normal" in="SourceGraphic" in2="BackgroundImageFix" result="shape" />
            <feColorMatrix
                in="SourceAlpha"
                type="matrix"
                values="0 0 0 0 0 0 0 0 0 0 0 0 0 0 0 0 0 0 127 0"
                result="hardAlpha"
            />
            <feOffset dy="1.10769" />
            <feGaussianBlur stdDeviation="0.553846" />
            <feComposite in2="hardAlpha" operator="arithmetic" k2="-1" k3="1" />
            <feColorMatrix type="matrix" values="0 0 0 0 1 0 0 0 0 1 0 0 0 0 1 0 0 0 0.4 0" />
            <feBlend mode="normal" in2="shape" result="effect1_innerShadow_13719_25299" />
        </filter>
        <filter
            id="filter1_f_13719_25299"
            x="2.76899"
            y="22.7573"
            width="70.1681"
            height="15.1783"
            filterUnits="userSpaceOnUse"
            color-interpolation-filters="sRGB"
        >
            <feFlood flood-opacity="0" result="BackgroundImageFix" />
            <feBlend mode="normal" in="SourceGraphic" in2="BackgroundImageFix" result="shape" />
            <feGaussianBlur stdDeviation="1.10769" result="effect1_foregroundBlur_13719_25299" />
        </filter>
        <filter
            id="filter2_i_13719_25299"
            x="29.3535"
            y="3.37305"
            width="16.6152"
            height="17.7229"
            filterUnits="userSpaceOnUse"
            color-interpolation-filters="sRGB"
        >
            <feFlood flood-opacity="0" result="BackgroundImageFix" />
            <feBlend mode="normal" in="SourceGraphic" in2="BackgroundImageFix" result="shape" />
            <feColorMatrix
                in="SourceAlpha"
                type="matrix"
                values="0 0 0 0 0 0 0 0 0 0 0 0 0 0 0 0 0 0 127 0"
                result="hardAlpha"
            />
            <feOffset dy="1.10769" />
            <feGaussianBlur stdDeviation="0.553846" />
            <feComposite in2="hardAlpha" operator="arithmetic" k2="-1" k3="1" />
            <feColorMatrix type="matrix" values="0 0 0 0 1 0 0 0 0 1 0 0 0 0 1 0 0 0 0.4 0" />
            <feBlend mode="normal" in2="shape" result="effect1_innerShadow_13719_25299" />
        </filter>
        <filter
            id="filter3_f_13719_25299"
            x="-11.518"
            y="2.37852"
            width="42.4207"
            height="42.4202"
            filterUnits="userSpaceOnUse"
            color-interpolation-filters="sRGB"
        >
            <feFlood flood-opacity="0" result="BackgroundImageFix" />
            <feBlend mode="normal" in="SourceGraphic" in2="BackgroundImageFix" result="shape" />
            <feGaussianBlur stdDeviation="4.09736" result="effect1_foregroundBlur_13719_25299" />
        </filter>
        <filter
            id="filter4_i_13719_25299"
            x="3.95898"
            y="52.6221"
            width="65.7373"
            height="15.0874"
            filterUnits="userSpaceOnUse"
            color-interpolation-filters="sRGB"
        >
            <feFlood flood-opacity="0" result="BackgroundImageFix" />
            <feBlend mode="normal" in="SourceGraphic" in2="BackgroundImageFix" result="shape" />
            <feColorMatrix
                in="SourceAlpha"
                type="matrix"
                values="0 0 0 0 0 0 0 0 0 0 0 0 0 0 0 0 0 0 127 0"
                result="hardAlpha"
            />
            <feOffset dy="-1" />
            <feComposite in2="hardAlpha" operator="arithmetic" k2="-1" k3="1" />
            <feColorMatrix type="matrix" values="0 0 0 0 1 0 0 0 0 1 0 0 0 0 1 0 0 0 0.3 0" />
            <feBlend mode="normal" in2="shape" result="effect1_innerShadow_13719_25299" />
        </filter>
        <filter
            id="filter5_i_13719_25299"
            x="3.95898"
            y="35.1401"
            width="65.7373"
            height="15.0874"
            filterUnits="userSpaceOnUse"
            color-interpolation-filters="sRGB"
        >
            <feFlood flood-opacity="0" result="BackgroundImageFix" />
            <feBlend mode="normal" in="SourceGraphic" in2="BackgroundImageFix" result="shape" />
            <feColorMatrix
                in="SourceAlpha"
                type="matrix"
                values="0 0 0 0 0 0 0 0 0 0 0 0 0 0 0 0 0 0 127 0"
                result="hardAlpha"
            />
            <feOffset dy="-1" />
            <feComposite in2="hardAlpha" operator="arithmetic" k2="-1" k3="1" />
            <feColorMatrix type="matrix" values="0 0 0 0 1 0 0 0 0 1 0 0 0 0 1 0 0 0 0.3 0" />
            <feBlend mode="normal" in2="shape" result="effect1_innerShadow_13719_25299" />
        </filter>
        <filter
            id="filter6_i_13719_25299"
            x="0"
            y="10.5728"
            width="21.0459"
            height="22.1541"
            filterUnits="userSpaceOnUse"
            color-interpolation-filters="sRGB"
        >
            <feFlood flood-opacity="0" result="BackgroundImageFix" />
            <feBlend mode="normal" in="SourceGraphic" in2="BackgroundImageFix" result="shape" />
            <feColorMatrix
                in="SourceAlpha"
                type="matrix"
                values="0 0 0 0 0 0 0 0 0 0 0 0 0 0 0 0 0 0 127 0"
                result="hardAlpha"
            />
            <feOffset dy="1.10769" />
            <feGaussianBlur stdDeviation="0.553846" />
            <feComposite in2="hardAlpha" operator="arithmetic" k2="-1" k3="1" />
            <feColorMatrix type="matrix" values="0 0 0 0 1 0 0 0 0 1 0 0 0 0 1 0 0 0 0.4 0" />
            <feBlend mode="normal" in2="shape" result="effect1_innerShadow_13719_25299" />
        </filter>
        <linearGradient
            id="paint0_linear_13719_25299"
            x1="65.4727"
            y1="12.7881"
            x2="58.303"
            y2="29.6678"
            gradientUnits="userSpaceOnUse"
        >
            <stop stop-color="#F4C13C" />
            <stop offset="1" stop-color="#EB702C" />
        </linearGradient>
        <linearGradient
            id="paint1_linear_13719_25299"
            x1="65.4727"
            y1="12.7881"
            x2="58.303"
            y2="29.6678"
            gradientUnits="userSpaceOnUse"
        >
            <stop stop-color="#F4C13C" />
            <stop offset="1" stop-color="#EB702C" />
        </linearGradient>
        <linearGradient
            id="paint2_linear_13719_25299"
            x1="30.7165"
            y1="19.1388"
            x2="47.7616"
            y2="8.16609"
            gradientUnits="userSpaceOnUse"
        >
            <stop stop-color="#6898EC" />
            <stop offset="0.578203" stop-color="#41CAD6" />
            <stop offset="1" stop-color="#25ECC6" />
        </linearGradient>
        <linearGradient
            id="paint3_linear_13719_25299"
            x1="41.013"
            y1="57.5389"
            x2="22.6248"
            y2="10.4572"
            gradientUnits="userSpaceOnUse"
        >
            <stop stop-color="#BDB9B3" />
            <stop offset="1" stop-color="#F0EDE6" />
        </linearGradient>
        <linearGradient
            id="paint4_linear_13719_25299"
            x1="54.4934"
            y1="16.0195"
            x2="13.0028"
            y2="29.5858"
            gradientUnits="userSpaceOnUse"
        >
            <stop stop-color="#C7C1B6" />
            <stop offset="1" stop-color="white" />
        </linearGradient>
        <linearGradient
            id="paint5_linear_13719_25299"
            x1="10.6864"
            y1="52.6221"
            x2="15.3593"
            y2="76.9327"
            gradientUnits="userSpaceOnUse"
        >
            <stop stop-color="#EBE7E1" />
            <stop offset="0.385417" stop-color="#F5F2EB" />
            <stop offset="1" stop-color="#D6D3CE" />
        </linearGradient>
        <linearGradient
            id="paint6_linear_13719_25299"
            x1="10.6864"
            y1="35.1401"
            x2="15.3593"
            y2="59.4508"
            gradientUnits="userSpaceOnUse"
        >
            <stop stop-color="#EBE7E1" />
            <stop offset="0.385417" stop-color="#F5F2EB" />
            <stop offset="1" stop-color="#D6D3CE" />
        </linearGradient>
        <linearGradient
            id="paint7_linear_13719_25299"
            x1="10.5824"
            y1="10.5728"
            x2="10.5824"
            y2="31.5599"
            gradientUnits="userSpaceOnUse"
        >
            <stop stop-color="#ECAAFF" />
            <stop offset="1" stop-color="#6A48F6" />
        </linearGradient>
    </defs>
</svg>
