<svg xmlns="http://www.w3.org/2000/svg" width="72" height="72" fill="none" viewBox="0 0 72 72">
    <g clip-path="url(#a)">
        <path
            fill="url(#b)"
            d="M36.142 71.797c19.804-.111 35.795-16.229 35.716-36C71.78 16.028 55.662.09 35.858.202 16.054.312.063 16.43.142 36.201c.078 19.77 16.196 35.707 36 35.596Z"
        />
        <mask id="c" width="72" height="72" x="0" y="0" maskUnits="userSpaceOnUse" style="mask-type: alpha">
            <path
                fill="#F2F2F2"
                d="M36.142 71.797c19.804-.111 35.795-16.229 35.716-36C71.78 16.028 55.662.09 35.858.202 16.054.312.063 16.43.142 36.201c.078 19.77 16.196 35.707 36 35.596Z"
            />
        </mask>
        <g mask="url(#c)">
            <path
                fill="#fff"
                fill-opacity=".2"
                d="M36.142 71.797c19.804-.111 35.795-16.229 35.716-36C71.78 16.028 55.662.09 35.858.202 16.054.312.063 16.43.142 36.201c.078 19.77 16.196 35.707 36 35.596Z"
            />
            <path
                fill="url(#d)"
                d="M.67 74.358c-.596-.22-.764-.439-.625-.814.065-.173.19-.316.278-.317.088 0 .476.202.861.449.386.247.857.505 1.047.573l.346.124-.424.012a7.573 7.573 0 0 0-.762.063 1.74 1.74 0 0 1-.72-.09Zm-1.357-1.142a.6.6 0 0 0-.416-.044c-.146.047-.26-.021-.37-.224-.086-.162-.241-.322-.344-.357-.236-.08-.733-.88-1.012-1.627-.14-.377-.328-.637-.55-.762-.394-.222-.423-.324-.12-.423.347-.113.408-.73.113-1.141-.14-.196-.215-.428-.174-.538.049-.13-.09-.358-.423-.696-.422-.426-.5-.582-.521-1.034-.014-.293-.087-.605-.162-.695-.094-.113-.116-.521-.07-1.329.05-.875.014-1.414-.141-2.165-.232-1.116-.359-3.197-.312-5.096.01-.406-.045-.962-.123-1.236-.19-.668-1.05-1.507-2.109-2.058-.757-.394-.864-.496-1.163-1.107a8.252 8.252 0 0 0-.767-1.23c-.24-.304-.503-.754-.583-.997-.254-.773-.698-1.549-.998-1.744-.16-.104-.344-.376-.408-.605-.104-.37-.078-.473.238-.94.342-.507.345-.527.112-.587-.574-.147-.337-.92.683-2.231.678-.872.875-1.535.68-2.297a7.41 7.41 0 0 1-.147-.675c-.007-.081-.059-.147-.115-.147-.056 0-.046-.106.023-.236.105-.201.078-.258-.179-.374-.374-.169-.936.004-.937.288 0 .34-.149.366-.64.112-.264-.136-.537-.247-.608-.246-.07 0-.347-.186-.614-.415a32.489 32.489 0 0 0-.633-.53c-.08-.064-.147-.239-.148-.388-.001-.15-.106-.366-.233-.48-.127-.114-.293-.392-.368-.616-.099-.295-.172-.372-.264-.279-.192.196-.478.16-1.173-.144-.364-.159-.743-.432-.896-.644a2.09 2.09 0 0 0-.615-.548c-.318-.163-.397-.161-.859.02l-.508.198-1.567-.752c-.965-.462-1.713-.904-1.946-1.149-.36-.378-.372-.42-.256-.893.107-.434.087-.568-.153-1.06a5.295 5.295 0 0 0-.733-1.056c-.251-.27-.429-.539-.394-.596.034-.056-.144-.436-.396-.843-.287-.462-.49-.958-.542-1.321-.067-.466-.142-.608-.378-.715-.25-.112-.32-.097-.46.1-.2.277-.141.569.309 1.532.183.392.373.973.423 1.291.05.319.192.78.318 1.023.297.578.107.569-.36-.017-.275-.346-.35-.535-.297-.753.057-.233-.001-.345-.286-.554-.433-.318-.526-.524-.37-.823.092-.174.049-.363-.188-.827-.241-.471-.292-.7-.235-1.051.092-.574-.166-1.092-.645-1.287-.276-.113-.371-.241-.43-.574-.04-.236-.119-.6-.173-.81-.057-.218-.054-.41.007-.448.058-.037.019-.198-.087-.36-.157-.236-.168-.348-.06-.59.074-.166.1-.354.06-.418-.04-.065.058-.261.22-.435.16-.174.375-.52.475-.77.1-.25.41-.712.69-1.029.28-.317.633-.87.786-1.23.211-.5.336-.656.527-.659.138-.002.244.063.235.144-.035.338.23.232.526-.21.174-.26.267-.49.207-.512-.06-.021-.11-.118-.11-.216s-.245-.413-.543-.701c-.495-.478-.527-.541-.364-.724.131-.148.146-.256.057-.415-.157-.278.084-.904.35-.908.11-.002.14-.04.073-.09-.152-.11-.222-.363-.203-.733.03-.59-.1-.836-.536-1.017a4.344 4.344 0 0 1-.801-.458c-.204-.155-.463-.281-.575-.28-.113 0-.623-.104-1.134-.232-.822-.205-.967-.213-1.25-.064-.588.31-1.211.438-1.466.302-.192-.101-.4-.037-1.124.35-.489.261-1.073.516-1.298.567-.226.05-.656.218-.957.373-.855.44-2.08.886-2.419.88-.219-.003-.071-.1.51-.337.988-.402 2.003-.923 2.097-1.077.114-.19-.138-.255-.44-.115-.221.104-.358.095-.616-.039l-.332-.172.359-.19c.405-.213.531-.453.435-.826-.092-.362.405-.632 1.478-.802.576-.09 1.014-.24 1.308-.443.519-.36.428-.63-.132-.392-.266.113-.46.115-.853.01-.48-.126-.497-.144-.284-.303.357-.265 1.096-.429 1.583-.349.308.05.56.012.819-.124l.372-.197-.247-.262c-.137-.144-.248-.293-.249-.332 0-.109.704-.332 1.056-.334.177-.002.658-.133 1.071-.292.413-.16 1.367-.38 2.12-.49 1.22-.177 1.478-.18 2.395-.034.565.09 1.344.198 1.731.239.387.04 1.072.173 1.523.294 1.046.282 1.727.274 2.892-.034.515-.135 1.035-.215 1.156-.177a.69.69 0 0 0 .458-.06c.18-.099.32-.088.578.044.232.12.52.152.91.104.41-.052.772-.004 1.299.172.401.134.847.242.99.241.254-.001.255.003.034.169-.216.162-.216.173-.012.251.118.045.526.047.906.005.688-.077.694-.075.888.297l.195.375.249-.318c.143-.183.484-.391.802-.49.48-.148.626-.149 1.11-.003a2.59 2.59 0 0 0 1.057.092c.389-.059.57-.025.825.155.322.228.331.228.614.005.158-.125.484-.284.724-.353.575-.165.769-.51.421-.752-.245-.17-.235-.183.406-.505.478-.24.694-.295.788-.201.094.093.094.197-.001.378-.162.308.044.772.299.672a.544.544 0 0 1 .338 0c.149.055.146.104-.015.355-.447.695.562.492 1.242-.249.276-.301.706-.395 1.11-.242.262.1.238.182-.19.66-.512.572-.775.69-1.547.694-.374.003-.814.087-1.02.195-.283.15-.421.163-.646.062-.42-.19-.564-.029-.262.29l.257.273-.51.15c-.28.081-.747.158-1.037.17-.42.016-.527.062-.527.23 0 .143-.203.294-.641.478-1.42.594-2.621 1.657-2.182 1.931.082.052.213.238.29.414a.65.65 0 0 0 .47.383c.18.035.643.219 1.031.408.388.189.864.377 1.057.418.533.113.538.126.294.76-.21.543-.213.62-.047.938.1.191.246.345.325.343.384-.014.742-.373.962-.965.21-.564.306-.67.916-1.002.9-.491 1.273-.972 1.17-1.508-.067-.349-.034-.43.262-.646.187-.135.433-.458.547-.717.256-.58.67-.783 1.373-.672.623.098 1.362.491 1.452.772.038.116.008.324-.064.462-.11.21-.089.299.129.529l.261.276.423-.223c.233-.124.605-.363.828-.533l.404-.309.098.26c.053.142.069.332.035.423-.034.09-.006.266.062.391a.445.445 0 0 1 .018.42c-.074.134-.023.336.168.67.273.476.273.476.036.645-.31.222-.109.454.233.267.339-.185.729-.164.97.053.357.321.064.71-.876 1.162-1.022.492-1.478.591-2.817.612-.988.015-1.118.047-2.076.517-.563.275-1.022.547-1.022.605.001.243.179.22.859-.108.4-.194.917-.35 1.164-.352.42-.002.436.01.306.259a1.74 1.74 0 0 1-.362.447c-.195.16-.206.228-.082.498.186.405.668.598 1.242.496l.454-.08-.348.245a2.38 2.38 0 0 1-.701.324c-.195.043-.594.202-.887.353-.298.154-.597.236-.678.186-.186-.114.008-.288.61-.545.534-.229.447-.468-.13-.355-.225.044-.952.325-1.617.624-1.038.468-1.218.591-1.277.869-.073.341-.326.504-1.217.783-.284.09-.652.302-.818.474a4.736 4.736 0 0 1-.704.571c-.222.143-.433.392-.47.553-.061.267-.076.273-.155.069-.15-.383-.368-.006-.377.648-.009.67-.344 1.13-1.083 1.485-.757.364-1.833 1.22-2.05 1.63-.191.363-.199.503-.074 1.431.116.866.111 1.083-.033 1.369-.108.213-.235.315-.341.275-.252-.096-.566-1.134-.483-1.597.058-.321.018-.443-.221-.666-.193-.18-.37-.248-.52-.199-.126.041-.481-.033-.79-.164-.475-.2-.626-.217-.963-.102-.228.077-.454.259-.528.424-.11.245-.182.277-.489.213a3.322 3.322 0 0 1-.678-.236c-.43-.218-.67-.201-1.15.08-.223.132-.68.383-1.014.56-.384.202-.648.431-.716.623-.06.166-.272.815-.472 1.442l-.363 1.14.193.733c.356 1.346.841 1.747 1.847 1.523.759-.168 1.213-.503 1.377-1.015.105-.325.219-.433.562-.532.517-.148.733-.154.932-.029.165.104.108.276-.617 1.88-.497 1.1-.46 1.198.402 1.068.786-.12 1.505-.037 1.59.183.034.086-.016.665-.11 1.287-.168 1.114-.167 1.139.087 1.547.142.228.408.491.59.585.291.149.383.148.747-.008.579-.248.894-.224 1.299.098.324.257.37.264.622.096.15-.1.353-.347.452-.549.224-.455.603-.776.923-.781.134-.003.366-.138.517-.301.305-.331.846-.442.583-.12-.22.271-.342 1.137-.197 1.405.12.224.13.222.345-.048.153-.193.184-.316.099-.4-.203-.202-.143-.37.23-.651.387-.292.688-.264 1.025.094.248.263 1.564.612 1.94.514.572-.148 2.126.79 2.713 1.637.28.404 1.168.806 1.556.705.8-.207 1.902.593 2.165 1.57.078.292.195.563.26.603.171.106-.082.53-.639 1.07-.355.345-.44.493-.339.593.102.1.266.011.661-.36.575-.54.767-.595 1.058-.306.177.176.172.212-.068.472-.142.155-.342.286-.444.29-.107.005-.063.057.104.123.23.09.349.064.585-.131.616-.507.761-.532 1.312-.227.359.199.503.35.486.513-.048.45.058.548.367.342.245-.164.414-.173 1.238-.064.877.115.992.162 1.415.582.314.312.667.516 1.108.643.594.169.658.221.768.622.16.58-.02 1.227-.51 1.843-.208.264-.464.65-.568.859a3.245 3.245 0 0 1-.492.688c-.283.288-.298.36-.223 1.038.146 1.325-.484 3.803-1.103 4.336-.201.174-.374.215-.696.168-.264-.04-.46-.012-.51.072-.046.075-.3.235-.567.354-.266.12-.662.373-.88.562-.376.328-.388.364-.258.751.15.447.053.978-.259 1.432-.1.146-.182.396-.181.553 0 .158-.12.452-.268.654-.148.201-.434.662-.635 1.024-.493.89-.793 1.046-1.518.79-.63-.222-.964-.247-.963-.072 0 .067.126.177.28.247.153.069.393.353.533.63.209.414.231.558.125.796-.164.369-.798.681-1.39.685-.524.004-.653.133-.47.472.113.21.04.548-.175.808-.017.021-.201-.048-.408-.154-.495-.254-.67-.09-.417.394.103.197.297.392.431.434.232.073.234.089.048.299-.109.122-.164.307-.124.41.044.113-.05.356-.23.596-.292.39-.296.417-.106.706.11.164.278.33.377.367.353.134.414.6.149 1.131-.267.534-.305 1.067-.095 1.318.191.23-.444.681-.732.521Zm-8.94-50.995c.31-.66.889-1.154 1.358-1.157.338-.002.342.053.035.45l-.24.313.25.201c.202.163.305.176.534.07.156-.073.315-.235.354-.36.053-.171.14-.212.347-.161.19.047.31.005.388-.137.236-.43-.374-.973-.818-.73-.318.174-.737-.165-.65-.526.032-.134-.037-.366-.156-.521-.244-.32-.613-.352-1.418-.121-.29.082-.62.147-.734.143-.114-.003-.176.043-.139.104.038.06.026.112-.026.114-.052.001-.225.105-.385.23l-.29.227.328.123c.257.097.407.082.691-.068.333-.176.395-.176.76-.004.221.104.521.156.673.117.15-.039.307-.018.346.046.041.065-.123.15-.375.195-.685.121-1.04.41-1.532 1.251-.412.702-.435.787-.268.97.163.181.208.184.43.025.136-.097.378-.454.537-.794Zm2.133.714c.416-.217.456-.27.308-.418-.148-.147-.24-.136-.718.08-.56.253-.736.591-.306.588.131 0 .454-.113.716-.25Zm2.073-.904c.243-.174.252-.207.079-.303-.254-.141-1.006.11-1.005.335.002.232.584.212.926-.032ZM3.68 72.876c0-.052.063-.159.14-.237.077-.078.095-.142.041-.142s-.161.088-.238.195c-.11.154-.186.167-.364.065-.127-.073-.158-.131-.071-.134.084-.002.12-.057.08-.122-.077-.124.124-.16.702-.123.517.032.57.108.252.362-.296.237-.54.299-.542.136Zm97.837-3.588c-.336-.211.359-.688 2.085-1.428a9.112 9.112 0 0 0 1.631-.957c.706-.544.765-.568.906-.367.215.305.091.528-.428.767-.249.115-.56.335-.693.49-.132.156-.347.284-.476.285-.129 0-.431.181-.672.401-.823.753-1.87 1.113-2.353.81Zm-8.21-1.478c-.122-.077-.129-.157-.03-.344.07-.134.126-.41.125-.613-.002-.332.024-.36.262-.278.145.05.449.097.674.104.226.007.451.02.501.03.195.035-.32.633-.786.91-.553.332-.53.326-.745.19Zm13.534-1.118c-.041-.04.055-.178.213-.304.238-.191.265-.271.16-.467-.153-.284.07-.59.589-.81.402-.17.501-.512.388-1.334-.077-.566-.069-.601.114-.451.143.117.179.266.129.538-.053.3-.003.454.247.748.269.318.348.352.555.238.207-.112.231-.102.167.069-.041.11-.075.221-.075.247 0 .025-.171.136-.379.245-.209.109-.616.397-.905.64-.469.394-.952.714-1.081.715-.026 0-.081-.033-.122-.074Zm-12.4-1.443c-.248-.262-.293-.272-.53-.114-.3.2-.869.088-1.326-.264-.243-.187-.26-.248-.137-.484.106-.201.108-.342.01-.554a1.532 1.532 0 0 1-.132-.515c-.001-.285-.186-.298-.337-.023-.062.114-.146.173-.188.132-.041-.041.093-.27.299-.508.505-.587.306-.744-.364-.286-.289.197-.543.412-.566.477-.022.066-.163-.135-.312-.447-.162-.337-.44-.676-.688-.839-.374-.244-.5-.264-1.215-.187-1.049.111-2.059.378-2.72.717-.3.155-.886.314-1.339.365a7.578 7.578 0 0 0-1.564.383c-.639.247-.82.273-1.146.168-.435-.142-.618-.438-.337-.549.102-.04.285-.311.407-.603.196-.468.206-.613.085-1.215-.1-.498-.106-.97-.02-1.737.064-.58.087-1.169.05-1.308-.037-.139.017-.48.12-.76.184-.49.229-.522 1.483-1.066.71-.308 1.439-.562 1.618-.563.484-.003 1.081-.47 1.408-1.102.202-.39.343-.54.466-.493.343.13.41.104.383-.15-.018-.165.05-.285.19-.33.12-.04.342-.255.493-.48.154-.23.472-.49.727-.596.427-.175.47-.173.704.038.431.39.736.503.88.326.07-.087.094-.19.053-.231-.135-.134.474-.913.774-.99.16-.04.49-.175.733-.3.378-.193.512-.207.937-.095.918.242.948.282.61.802-.434.67-.316.929.763 1.683.499.348.969.612 1.045.586.076-.026.316-.297.533-.602.295-.415.409-.716.454-1.202.064-.69.386-1.653.554-1.654.056 0 .185.283.287.629.103.346.315.75.473.897.368.343.586 1.309.425 1.88-.107.38-.085.44.29.824.223.228.576.784.786 1.237.21.452.585 1.092.836 1.421l.456.6-.123.93c-.089.675-.231 1.125-.516 1.64-.437.79-1.093 1.545-1.44 1.659-.125.04-.413.338-.64.66-.228.323-.466.587-.529.587s-.33.278-.592.616c-.438.565-.519.617-.978.628a1.437 1.437 0 0 0-.91.331l-.41.319-.272-.288Zm-57.15-2.11c-.25-.249-.291-.376-.238-.72.05-.324 0-.514-.225-.842-.16-.234-.291-.482-.291-.553 0-.07-.21-.406-.465-.746-.395-.525-.477-.735-.545-1.403-.121-1.177-.502-2.45-1.01-3.37-.25-.454-.491-1.042-.536-1.309-.095-.566.13-1.413.646-2.44l.344-.682-.2-.59c-.11-.331-.166-.723-.126-.89.048-.195-.006-.426-.155-.67-.125-.206-.312-.665-.415-1.021-.138-.475-.328-.784-.717-1.162-.747-.729-.845-1.017-.62-1.816.46-1.626-.052-2.57-1.29-2.375-.48.076-.5.067-.57-.275-.053-.263-.196-.416-.553-.597-.463-.234-.661-.234-1.227.003-.129.053-.655.24-1.17.414-.773.262-1.006.296-1.344.2-.32-.091-.59-.065-1.242.12-.675.19-.92.212-1.286.113-.763-.207-2.08-1.386-2.27-2.033-.147-.5-1.05-1.664-1.356-1.746-.194-.052-.218-.093-.1-.171.12-.079.098-.118-.089-.166-.296-.075-.327-.319-.04-.323.174-.003.179-.02.028-.116-.111-.072-.124-.114-.034-.116.093-.002.057-.147-.105-.418-.227-.382-.232-.433-.061-.625.52-.586.628-1.841.225-2.629-.193-.376-.073-.898.33-1.443.151-.205.447-.703.656-1.107.367-.707 1.187-1.692 1.41-1.693.248-.002 1.041-.87 1.04-1.138-.004-.604.352-1.21.935-1.59.313-.206.68-.556.814-.778.276-.454.315-.47.64-.244.128.088.445.195.704.237.395.064.584.015 1.17-.305 1.008-.551 1.633-.691 2.79-.626.765.043 1.108.01 1.477-.141.544-.223 1.016-.096.89.239-.037.1-.013.25.054.33.085.101.085.248.001.475-.106.286-.082.37.187.649.17.176.473.352.674.39.942.184 1.211.305 1.407.635.144.242.332.365.64.422.241.043.59.157.777.253.317.162.358.156.62-.095.176-.168.255-.346.213-.477-.037-.116-.01-.318.059-.45.18-.343.694-.313 1.5.087.878.435 2.54.74 3.128.572a1.42 1.42 0 0 1 .804-.008c.81.245 1.224.046 1.33-.64.036-.227.098-.414.137-.414.076 0 .114-.343.12-1.091.002-.243.058-.443.125-.443.078 0 .074-.086-.013-.248-.146-.27-.438-.261-1.136.032-.33.139-.423.134-.721-.041-.387-.227-.782-.258-.895-.072-.084.139-.684.046-1.01-.157-.234-.145-.455-.58-.457-.9 0-.123-.12-.307-.266-.409-.225-.157-.239-.202-.09-.302.097-.064.295-.09.442-.055.187.043.358-.032.573-.252.203-.206.45-.321.728-.338.232-.014.566-.123.744-.242.386-.26 1.265-.194 1.95.145.922.458 1.738.425 2.064-.082.17-.263.17-.319.006-.567-.1-.15-.576-.498-1.06-.77l-.879-.496.163-.32c.089-.176.132-.35.096-.386-.037-.036-.023-.136.029-.221a.983.983 0 0 0 .117-.309c.026-.178-.162-.128-1.092.293-.54.244-.62.318-.498.463a.59.59 0 0 0 .393.176c.192.002.147.058-.198.244-.419.226-.466.23-.74.05-.234-.152-.265-.223-.155-.358.109-.134.092-.185-.082-.25a.898.898 0 0 1-.345-.248c-.339-.448-1.396.743-1.699 1.912-.142.549-.137.577.138.783l.285.214-.52.111c-.287.062-.673.071-.858.021-.343-.092-.776.053-.775.259 0 .06-.08.08-.177.043-.097-.037-.252-.005-.343.073-.142.12-.125.216.113.66.258.482.267.548.11.87-.198.403-.384.375-.668-.103-.199-.334-.197-.341.062-.38.328-.049.348-.26.03-.308-.727-.113-1.117-.495-1.12-1.1-.003-.472-.441-.99-.97-1.145-.274-.08-.573-.252-.664-.38-.09-.13-.355-.314-.588-.41-.233-.096-.494-.274-.58-.396-.124-.176-.205-.197-.384-.099-.124.069-.226.2-.225.293.002.306 1.503 1.68 2.236 2.047.776.388.898.527.36.412-.48-.103-.61.004-.445.365.117.254.099.331-.132.557l-.267.262.059-.352c.094-.558-.642-1.354-1.247-1.35-.223.002-1.08-.826-1.307-1.259-.241-.463-.508-.551-.883-.292-.564.39-.989.524-1.434.451-.592-.096-.962.114-.866.49.05.197.024.285-.087.286-.087 0-.312.134-.498.298-.186.163-.38.297-.428.297-.145.001-.55.748-.549 1.013.001.253-.454.755-.895.986-.14.074-.467.135-.727.137-.358.002-.504.062-.6.247-.128.242-.131.242-.434-.058-.283-.282-.446-.352-1.015-.437-.299-.044-.353-.724-.136-1.695.094-.415.138-.879.099-1.032-.114-.444.232-.709.814-.623 1.344.2 2.13.206 2.312.02.252-.257.36-1.097.203-1.566-.102-.307-.241-.431-.655-.587-.61-.23-.624-.456-.03-.465.227-.004.553-.101.725-.216.172-.115.363-.179.424-.141.166.102.79-.266.997-.587.1-.155.297-.313.439-.35.141-.037.519-.316.84-.62.454-.431.692-.567 1.084-.617.485-.061.97-.466.74-.617-.143-.094-.265-.664-.187-.872.037-.099.202-.27.367-.38l.299-.2-.075.486c-.064.422-.047.481.132.45.114-.02.326-.103.471-.185.221-.124.276-.118.336.035.102.263-.176.574-.37.414-.106-.088-.174-.084-.233.013-.06.1-.109.095-.18-.02-.053-.085-.124-.128-.156-.095-.033.034.062.212.21.397.25.312.298.326.651.2.303-.108.449-.102.707.03.293.15.391.143.95-.075.49-.19.683-.216.9-.118.201.09.349.087.534-.01.526-.278.67-.485.603-.864-.1-.561.076-.747.545-.572.319.119.412.114.555-.032.151-.154.138-.21-.114-.477-.241-.255-.258-.32-.113-.42.095-.065.45-.09.791-.056.623.063 1.397-.187 1.26-.406-.119-.192-.834-.243-1.438-.103-.536.124-.677.115-1.09-.069-.64-.285-.717-.624-.283-1.241.56-.794.661-1.047.5-1.24-.24-.288-.473-.192-1.013.414-.286.32-.675.649-.866.73a1.22 1.22 0 0 0-.522.494c-.158.31-.157.376.006.622.1.152.289.31.42.35.36.113.29.329-.222.686-.157.11-.366.419-.464.687a1.337 1.337 0 0 1-.607.74c-.416.245-.435.246-.667.037a1.2 1.2 0 0 1-.311-.536c-.04-.178-.218-.495-.395-.707l-.323-.384-.405.252c-.223.138-.51.251-.64.251-.371-.001-.804-.402-.835-.775a2.29 2.29 0 0 0-.11-.537c-.106-.264.415-.762.96-.917.546-.156 1.651-.945 1.838-1.314.084-.164.367-.494.63-.734.262-.24.477-.49.477-.553 0-.065.249-.209.554-.32.306-.112.819-.314 1.14-.45.395-.167.889-.257 1.522-.277 1.106-.035 1.83.107 2.429.48.3.186.537.248.763.202.404-.084 2.564.574 2.656.81.091.235-.526.463-1.058.389a21.073 21.073 0 0 1-1.122-.203c-.502-.104-.712-.106-.809-.007-.096.098-.047.17.19.277.176.08.398.292.492.473.24.46 1.002.831 1.393.679.376-.147.373-.192-.026-.406-.369-.199-.2-.243.263-.07.37.14.786-.039.687-.293-.046-.12.082-.206.442-.302.772-.204.829-.233.764-.39-.247-.595-.25-.578.103-.54.189.02.327.1.312.181-.015.08.084.203.22.275.203.108.364.068.921-.23.818-.438 1.455-.583 1.694-.386.134.11.354.11.99-.003.45-.08.87-.113.933-.074.063.038.149.014.19-.055.092-.151-.166-.49-.305-.403-.168.106-.723-.078-.603-.2.12-.123 3.386.62 3.582.815.132.132.548-.048.547-.236 0-.063-.234-.227-.52-.364-.883-.425-.944-1.115-.116-1.33.48-.124.689.015 1.36.904.87 1.155.848 1.096.568 1.496-.207.297-.22.366-.074.421.275.104.86-.27.942-.603.094-.389-.089-.719-.522-.941-.341-.175-.59-.497-.59-.768-.001-.092.126-.116.38-.071.38.067.693-.073 1.55-.695.196-.143.528-.238.863-.248.68-.02.9-.136.702-.372-.077-.092-.116-.193-.086-.223.148-.151 2.076-.435 2.52-.371.428.062.56.026.91-.246.226-.175.41-.365.41-.422-.002-.144-1.025-.125-1.114.02-.121.201-.28.133-.237-.101.036-.198-.063-.23-.917-.29-2.332-.168-2.521-.21-2.243-.493.244-.249.847-.248 1.353.002.207.103.55.185.762.184.212-.002.418.05.459.115.04.064.245.116.456.115.585-.004 1.716.243 1.646.358-.034.057.075.102.243.101.168-.001.475.088.682.199.279.148.666.2 1.49.198.885-.003 1.18.041 1.436.213.178.12.323.25.323.292-.001.041-.27.226-.599.411-.793.447-.624.638.337.381.623-.166.766-.168 1.284-.017.424.124.689.138.975.053.287-.084.581-.068 1.081.059.522.132.793.144 1.122.05.753-.216 1.68-.162 2.22.128.269.144.763.41 1.1.593.596.322.622.325 1.033.137.344-.158.537-.172 1.046-.078.507.094.69.081.975-.069.278-.147.322-.218.215-.346-.207-.248.522-.346 1.42-.19.411.071.932.142 1.158.157.226.015.667.141.981.28.479.214.84.26 2.236.29 1.326.028 1.748.079 2.07.248.325.172.695.214 1.925.218 1.133.004 1.64.055 1.977.198.543.23.76.143.463-.187-.214-.238-.213-.238.606-.161 1.373.128 3.02.42 3.578.632.29.111.844.239 1.23.284.386.045.95.206 1.252.358.46.23.61.256.903.15.402-.143.663-.043 1.281.49l.384.331-.287.075c-.288.075-1.057-.111-1.322-.32-.079-.062-.188-.084-.243-.049-.055.035-.33-.014-.61-.11-.656-.222-.946-.135-.645.195.204.225.2.23-.188.205-.727-.047-.526.168.543.58.581.223 1.082.43 1.112.46.111.106-.25.241-.515.192-.29-.053-1.002.264-1 .447 0 .06-.112.216-.25.346-.228.217-.276.223-.585.064-.289-.148-.381-.149-.657-.006a3.75 3.75 0 0 1-.672.252c-.193.048-.416.143-.495.21-.235.198.184.769.772 1.05.32.154.551.36.621.554.062.17.191.448.288.62.158.278.157.317-.01.383-.124.049-.16.144-.105.279.046.112.098.337.116.499.018.162.07.382.117.49.061.14.012.218-.172.279-.205.066-.344-.012-.685-.385a6.877 6.877 0 0 0-.87-.789c-.243-.175-.68-.633-.97-1.017-.513-.678-.523-.709-.357-1.038.095-.187.173-.462.175-.61a1.45 1.45 0 0 1 .162-.566c.167-.308.1-.553-.264-.969-.239-.272-.66-.064-.552.273.1.31-.2.414-.548.188-.151-.098-.498-.213-.77-.255-.468-.072-.503-.057-.622.264-.07.186-.098.481-.062.654.055.27.018.326-.258.39-.189.042-.511-.005-.775-.114-.29-.12-.561-.154-.757-.097-.168.05-.736.096-1.262.105-.834.014-.994.052-1.246.293-.16.152-.35.524-.423.828-.073.303-.208.67-.3.814-.16.25-.144.276.317.508.5.253 1.044.317 1.455.171.317-.112 1.29.642 1.597 1.237.126.243.332.498.459.565.48.255.587 1.945.194 3.052-.273.767-.582 1.02-1.038.848a3.035 3.035 0 0 0-.356-.118c-.022 0-.15.218-.287.485-.179.35-.213.527-.123.634.172.206.047.476-.293.635-.158.073-.286.184-.286.247s.37.366.82.673c.572.391.878.692 1.02 1.003.11.244.18.464.154.488a6.526 6.526 0 0 1-.53.292l-.483.249-.296-.672c-.33-.751-.612-1.052-1.106-1.183-.249-.065-.336-.16-.337-.366-.001-.19-.124-.35-.383-.5-.378-.22-.385-.219-.784.032-.4.252-.404.252-.528.022a1.091 1.091 0 0 1-.127-.413c0-.1-.1-.233-.22-.297-.18-.095-.293-.036-.62.324-.22.242-.501.5-.626.572-.194.113-.204.16-.069.321.087.104.386.316.665.47.444.246.528.26.677.108.14-.143.256-.149.684-.035l.515.137-.285.195c-.53.36-.696.55-.77.872-.061.265-.023.345.213.451.159.072.4.358.537.637.137.28.409.602.605.716.43.253.556.523.31.664-.231.131-.12.325.185.323.365-.003.368.216.023 1.482-.418 1.534-.8 2.047-1.807 2.425-.397.149-.879.28-1.072.292-.45.028-.797.222-1.099.613l-.24.31-.114-.297c-.149-.388-.486-.483-.968-.275-.442.192-.732.494-.847.884-.104.348.273.958.894 1.446.51.4 1.085 1.411 1.223 2.148.12.641-.084 1.064-.635 1.318-.25.116-.485.305-.52.42-.086.276-.604.622-.7.467-.04-.064-.043-.215-.006-.336a.73.73 0 0 0-.007-.409c-.058-.15-.122-.164-.307-.063-.192.105-.266.079-.423-.147-.386-.555-1.5-1.445-1.807-1.443-.108.001-.149.132-.129.414.016.227-.027.67-.096.983-.113.513-.1.606.12.901a2.2 2.2 0 0 1 .32.626c.043.165.384.54.773.851.65.517.718.62.995 1.483.164.51.298.979.298 1.04.002.2-.244.12-.757-.245-.53-.378-.871-.98-1.159-2.045-.124-.462-.26-.66-.641-.938-.468-.342-.483-.372-.448-.943.019-.325.07-.784.11-1.022.06-.334.008-.574-.228-1.06a7.37 7.37 0 0 1-.443-1.178c-.169-.677-.403-.789-.812-.39-.17.166-.34.301-.38.302-.187 0-.446-.397-.386-.592.11-.355-.584-1.584-.987-1.748-.22-.09-.422-.311-.559-.61-.236-.52-.5-.718-.76-.572-.095.053-.475.16-.844.24-.677.143-.92.352-.825.708.035.131-.082.259-.366.397-.23.112-.477.337-.55.498-.072.162-.231.327-.355.368-.123.04-.313.221-.421.403-.108.182-.432.515-.72.74-.393.308-.516.48-.495.695.123 1.256-.047 2.309-.474 2.936-.416.612-.445.63-.801.469-.197-.089-.318-.263-.37-.53-.041-.218-.281-.834-.532-1.367-1.517-3.227-1.743-3.844-1.618-4.429.084-.395-.127-.99-.326-.921-.08.027-.147.125-.148.216-.007.538-.607.625-1.08.156l-.312-.311.267-.101c.3-.114.27-.416-.035-.359-.109.02-.359-.097-.555-.261-.197-.165-.403-.299-.458-.298-.055 0-.134-.106-.176-.237-.11-.341-.734-.635-1.044-.492-.28.13-2.823.12-3.25-.013-.154-.047-.439-.267-.633-.488-.352-.4-.357-.402-.88-.256-.496.137-.569.125-1.24-.21-.58-.29-.753-.447-.934-.844-.23-.506-.738-.87-1.045-.75-.097.038-.209.224-.249.414-.058.273.004.45.294.84.201.273.422.698.49.945.145.532.428.688.659.366.14-.195.177-.201.274-.05.061.096.095.228.074.293-.064.204.615.535.93.454.159-.042.498-.317.753-.612.402-.465.543-.498.476-.109-.045.262.162.567.501.741.525.269 1.257.87 1.258 1.033 0 .075-.136.266-.302.424a3.212 3.212 0 0 0-.531.742c-.305.608-1.195 1.5-1.498 1.502-.35.002-.869.303-1.075.622-.097.152-.354.366-.57.477-1.111.566-2.449 1.142-2.825 1.216-.403.078-.436.06-.652-.362-.126-.245-.27-.737-.32-1.093-.064-.464-.186-.758-.43-1.033-.186-.212-.339-.436-.34-.499 0-.062-.213-.331-.473-.597a2.634 2.634 0 0 1-.667-1.145c-.107-.364-.322-.82-.48-1.013-1.083-1.337-1.404-1.808-1.567-2.302-.216-.654-.397-.759-.477-.277l-.057.342-.399-.5c-.615-.772-.69-.42-.111.524.274.447.711 1.235.971 1.752.26.517.598 1.103.75 1.303.156.205.276.527.277.742.003.445.136.72.658 1.362.21.258.417.636.462.839.056.26.284.532.773.92.742.592 1.225 1.211 1.347 1.73.046.194.216.393.431.503.328.168.443.162 1.474-.07.615-.138 1.267-.329 1.448-.425l.329-.173.081.466c.074.423-.002.628-.826 2.243-.887 1.736-.928 1.793-1.816 2.507-.5.402-1.022.894-1.16 1.092-.14.2-.585.736-.99 1.194-1.181 1.337-1.336 2.506-.538 4.067.203.397.283.698.237.888-.039.159-.011.559.061.889.114.52.103.658-.087 1.038-.274.548-.493.746-1.265 1.141-.338.173-.613.364-.613.426s-.235.382-.523.713c-.288.33-.523.654-.523.719 0 .065.11.332.245.593.403.783.139 1.354-.814 1.758-.401.17-.531.514-.428 1.13.054.323.022.431-.16.53-.125.069-.351.322-.502.564-.476.761-1.848 2.113-2.474 2.435-.522.27-.655.294-1.04.19-.34-.093-.614-.076-1.181.071-.92.239-.822.248-1.18-.109Zm15.21-37.695c.301-.16.344-.246.341-.695-.001-.322-.071-.57-.187-.665-.101-.083-.266-.309-.366-.5-.166-.318-.165-.343.006-.278.226.085.539-.021.538-.183 0-.065-.11-.27-.245-.458-.203-.282-.283-.32-.47-.217-.151.083-.226.084-.227.004 0-.066-.21-.226-.467-.355-.567-.287-.77-.607-.596-.94.132-.252.608-.43.813-.305.275.168.355-.084.126-.402-.554-.773-1.319-.717-2.262.165-.61.57-.662.72-.314.905.129.068.235.203.236.3 0 .096.21.401.467.677.59.637.7.929.632 1.687l-.055.61.807.41c.445.226.824.414.843.417.02.003.19-.077.38-.177ZM49.47 58.39c-.332-.187-.38-.286-.47-.981-.073-.556-.044-.677.283-1.22.333-.551.356-.657.279-1.253-.113-.861.067-1.315.564-1.428.468-.107 1.478-1.015 1.718-1.545l.183-.405.131.284c.33.715.298 1.03-.258 2.608-.297.844-.616 1.853-.708 2.242-.294 1.247-.463 1.548-.956 1.7-.524.162-.473.162-.766-.002Zm57.707-2.42c-.377-.41-.602-.761-.603-.94-.003-.395.061-.361.402.217.163.276.458.656.655.843.196.187.357.383.358.436.001.227-.25.055-.812-.557Zm-52.272.168c0-.065.052-.118.117-.118a.118.118 0 0 1 .001.235.118.118 0 0 1-.118-.117Zm61.703-.612a.148.148 0 0 1 .05-.201c.174-.11.236-.024.121.166-.062.102-.122.114-.171.035Zm-60.885.201c0-.028.052-.085.116-.125.065-.04.117-.018.118.05 0 .07-.052.126-.117.127-.064 0-.117-.023-.117-.052Zm57.83-1.568c-.116-.298.028-.404.352-.258.279.126.285.145.092.29-.27.201-.356.195-.444-.032Zm.739-.529c-.23-.14-.072-.256.292-.213.286.034.293.047.09.175-.13.081-.286.097-.382.038Zm-5.473-.397c-.244-.52-.161-.72.091-.22.262.52.266.537.145.536-.049 0-.155-.142-.236-.316Zm.448-.087c-.006-.124.021-.194.06-.155.039.039.044.14.011.226-.037.094-.065.066-.071-.07Zm9.532-1.193c-.108-.174-.007-.264.243-.216.184.035.186.054.021.193-.131.11-.206.117-.264.023Zm-69.251-.142c-.04-.064-.017-.117.05-.118.07 0 .125.052.126.117 0 .065-.023.118-.051.118-.029 0-.085-.052-.125-.117Zm51.432-1.438c-.743-.23-1.08-.447-1.375-.881-.336-.496-.949-.87-1.26-.768-.125.04-.336.26-.468.489-.224.387-.268.41-.68.338a1.738 1.738 0 0 1-.754-.366c-.218-.202-.386-.266-.555-.21a.624.624 0 0 1-.43-.025c-.162-.09-.147-.133.11-.304.297-.199.298-.201.095-.623-.163-.338-.386-.513-1.114-.875-.5-.25-1.065-.452-1.256-.451-.435.003-.618-.4-.29-.644.194-.144.165-.18-.346-.426-.542-.26-.55-.272-.293-.418.146-.082.38-.152.522-.155.274-.007.624.39.626.709 0 .107.116.339.256.516.251.317.258.319.44.087.102-.13.427-.377.723-.55l.538-.315.751.335c.413.184 1 .423 1.302.531.304.108.911.43 1.35.716.838.547 1.204 1.01.997 1.263-.168.207.504 1.139 1.197 1.66.761.572.749.626-.086.367Zm5.099-.042c-.093-.112-.102-.18-.024-.18.141 0 .308.222.227.304-.03.03-.121-.026-.203-.124Zm-19.69-.354c-.17-.093-.22-.162-.118-.164.21-.004.545.19.467.27-.03.03-.188-.017-.35-.105Zm1.98-.168c.33-.471.848-.676 1.33-.524.351.111.357.12.079.134-.165.007-.548.174-.852.37-.693.45-.86.455-.557.02Zm17.002.052c-.159-.191-.122-.215.166-.106.102.038.186.117.186.175.001.163-.189.126-.352-.07Zm.548-.108a1.245 1.245 0 0 1-.075-.406c.004-.13.045-.1.121.087.063.157.097.34.075.407-.022.067-.076.028-.121-.088Zm9.06.053c0-.028.052-.085.117-.125.064-.041.117-.018.117.05.001.07-.052.126-.116.126-.065 0-.118-.022-.118-.05Zm-29.97-.302c-.082-.034-.118-.11-.082-.17.088-.146.84-.143.931.004.04.065.004.119-.08.12a2.425 2.425 0 0 0-.388.055.77.77 0 0 1-.381-.01Zm1.739-.1c-.215-.257.03-.337.583-.19.557.146.555.17-.02.278-.3.056-.464.03-.563-.088Zm17.592-.185c-.082-.13-.097-.235-.034-.235s.171.105.241.234c.07.13.085.235.034.235-.052 0-.16-.105-.241-.234Zm.733-.123c-.315-.346-.148-.402.176-.059.152.16.223.293.157.293-.065 0-.215-.105-.333-.234Zm-21.97.12a9.178 9.178 0 0 1-1.314-.279c-.303-.098-.66-.143-.793-.1-.268.088-1.411-.242-1.412-.407-.003-.377 1.048-.412 1.608-.054.21.134.374.142.814.04.487-.114.589-.1.877.11.179.132.379.24.444.239.231-.002.937.388.878.485-.033.055-.123.092-.2.084a89.375 89.375 0 0 1-.901-.117Zm21.03-.703c-.118-.129-.161-.234-.097-.235.065 0 .214.105.331.234.117.129.161.234.096.235-.064 0-.213-.105-.33-.234Zm-.74-.144c-.067-.08-.157-.305-.2-.499-.068-.312-.061-.325.065-.117.079.129.218.322.311.428.098.113.122.223.057.264-.061.038-.166.004-.233-.076Zm-2.484-.359-.292-.16.451-.088c.248-.049.628-.247.845-.441.237-.212.394-.289.393-.193-.001.24-.144.425-.58.753-.455.343-.434.34-.817.129Zm-21.982-.318c-.432-.244-1.215-1.193-1.47-1.785a6.73 6.73 0 0 0-.702-1.166c-.248-.323-.532-.745-.632-.94-.1-.193-.403-.563-.673-.82-.57-.543-.92-1.116-.683-1.113.307.003 1.101.441 1.443.795.942.978 1.135 1.152 1.579 1.423.428.261.632.535.654.88.004.064.127.25.272.41l.61.674c.19.209.38.536.423.727.14.624-.357 1.178-.821.915Zm-23.603.074c0-.064.052-.118.117-.118a.118.118 0 0 1 0 .235.118.118 0 0 1-.117-.117Zm30.992-.2c-.041-.065-.042-.222-.004-.348.04-.127-.01-.354-.11-.505-.165-.25-.164-.302.013-.56.107-.155.232-.573.278-.928.056-.438.17-.735.357-.924.254-.259.318-.27.894-.165.494.091.688.078.956-.063.448-.237.481-.227.334.104-.188.42-.566.557-.968.349-.717-.372-1.661.194-1.158.693.185.184.287.2.627.1.582-.172.813-.143.451.058-.409.227-.485.476-.271.886.097.187.178.476.179.644.001.268-.027.29-.234.18-.13-.069-.317-.318-.417-.555-.18-.426-.183-.428-.41-.198-.197.202-.21.291-.099.688.101.359.095.478-.027.557-.207.133-.303.13-.392-.013Zm16.072-.732a1.762 1.762 0 0 0-.565-.493c-.2-.102-.336-.212-.304-.245.181-.184 1.202.642 1.117.904-.026.08-.133.01-.248-.166Zm-18.403-.274c-.177-.092-.416-.137-.53-.1-.29.095-1.45-.134-1.566-.31-.092-.14-.365-1.001-.513-1.616a.693.693 0 0 1 .09-.516c.133-.186.202-.2.415-.087.225.12.272.098.393-.174.076-.17.33-.41.566-.532.249-.13.487-.372.571-.579.097-.239.275-.4.543-.49.219-.075.535-.318.701-.54.167-.223.366-.406.442-.406.077 0 .309.173.517.385l.377.387-.298.409c-.339.464-.319.86.071 1.405l.237.329-.291.194c-.16.107-.29.26-.29.34.003.27-.739 1.83-.926 1.95-.13.083-.283.068-.509-.05Zm6.807-.046c-.243-.062-.278-.27-.046-.272.089 0 .337.033.552.075.33.064.355.09.162.167-.254.102-.367.107-.668.03Zm18.651-1.623c-.001-.029.052-.085.116-.126.064-.04.117-.017.118.052 0 .068-.052.125-.117.125-.064 0-.117-.022-.117-.051Zm-19.072-.197c-.095-.094-.1-.203-.02-.356.063-.121.084-.272.045-.333-.107-.172.156-.59.37-.592.173-.001.172.019-.006.22-.154.172-.17.286-.077.529.19.49-.011.831-.313.532Zm-58.852-.01c0-.028.052-.084.116-.125.064-.04.117-.017.118.052 0 .068-.052.125-.117.125-.064 0-.117-.023-.117-.051Zm81.257-.823c-.04-.065-.017-.118.051-.119.068 0 .124.053.125.117 0 .065-.023.118-.051.119-.029 0-.085-.053-.125-.117Zm-80.563-.595c0-.029.053-.085.117-.126.064-.04.117-.017.117.051 0 .07-.052.126-.116.126-.065 0-.117-.023-.118-.051Zm56.35-2.135c-.226-.523-.256-.546-.6-.468-.341.078-.353.069-.226-.173.105-.201.203-.242.456-.187.243.052.398-.003.634-.227.173-.163.314-.391.315-.508.002-.297.443.698.545 1.23.078.405.069.427-.115.276-.273-.225-.534.012-.309.28.09.108.102.182.03.182a1.08 1.08 0 0 0-.307.073c-.135.054-.246-.072-.422-.478Zm-21.362.346c-.132-.213-.212-1.173-.119-1.429.099-.27.106-.268.407.174.361.53.478.87.36 1.053-.111.175-.575.32-.648.202Zm26.163-.778c0-.065.052-.151.117-.192.064-.04.117-.02.117.045s-.052.15-.116.191c-.064.04-.117.02-.118-.044Zm18.396-.132c0-.065.023-.118.051-.118.029 0 .085.052.125.117.04.064.017.117-.051.118a.122.122 0 0 1-.125-.117Zm-26.602-.51c0-.05.233-.357.518-.681.418-.475.52-.543.525-.348.004.133-.17.44-.387.68-.367.41-.654.562-.656.349Zm2.536-.331a.511.511 0 0 1 .017-.378c.082-.149.116-.15.233-.011.104.125.1.214-.017.378-.144.2-.159.201-.233.01Zm-89.732.118c.071-.088.095-.194.052-.236-.043-.043.032-.078.165-.079.186-.001.23.054.183.234a.313.313 0 0 1-.294.238c-.184.001-.207-.033-.106-.157Zm90.516-.614a3.14 3.14 0 0 0-.13-.31c-.026-.049.002-.089.063-.09.117 0 .285.483.198.571-.028.029-.087-.048-.131-.17Zm-1.19-.3c-.165-.198-.007-.483.24-.43.154.034.16.083.038.315-.118.223-.17.245-.278.116Zm1.383-.413c-.135-.172-.227-.331-.203-.356.095-.096.425.113.602.38.272.413-.07.391-.399-.024Zm-1.929-.444c-.105-.105-.191-.251-.191-.326 0-.074.115-.02.257.122.143.141.229.287.192.325-.037.037-.153-.017-.258-.121Zm-91.975.574a.326.326 0 0 1-.079-.2c0-.074.054-.067.139.017.077.076.112.166.08.2-.034.034-.096.026-.14-.017Zm-.664-.153c0-.065.022-.118.05-.118.029 0 .085.053.125.117.04.065.018.118-.05.118a.121.121 0 0 1-.125-.117Zm5.505-.27c0-.066.023-.119.051-.12.029 0 .085.053.125.118.04.065.017.118-.05.118a.121.121 0 0 1-.126-.117Zm88.31-.587a.777.777 0 0 0-.495-.047c-.226.059-.383-.032-.81-.469-.604-.617-.723-.878-.549-1.21a1.5 1.5 0 0 0 .12-.587c-.003-.64.423-.617.74.04.174.364.176.442.016.834-.173.423-.17.442.145.768.227.235.397.314.575.268a.4.4 0 0 1 .402.114c.213.255.121.438-.144.29Zm-89.017-.169c0-.028.052-.085.116-.125.064-.04.117-.018.118.051a.123.123 0 0 1-.117.126c-.064 0-.117-.023-.117-.052Zm18.393-.537c0-.065.052-.118.117-.119a.118.118 0 0 1 .001.236.118.118 0 0 1-.118-.117Zm-18.75-.337c0-.065.052-.151.116-.192.064-.04.117-.02.117.044a.259.259 0 0 1-.116.192c-.064.04-.117.02-.117-.044Zm-.998-.478c-.041-.066.005-.087.11-.047.203.077.241.161.073.162-.061 0-.143-.051-.183-.115Zm18.63-.121c-.04-.065-.018-.118.05-.118.069 0 .125.052.125.117s-.022.118-.05.118c-.03 0-.085-.053-.125-.117Zm-18.164-.12c-.04-.064-.017-.117.051-.117.069 0 .125.052.125.117s-.022.118-.05.118c-.03 0-.085-.053-.126-.117Zm.528-.002c0-.065.022-.118.05-.119.03 0 .085.053.125.117.04.065.018.118-.05.119a.121.121 0 0 1-.125-.117Zm-8.058-.262c-.08-.033-.147-.108-.147-.167-.001-.17.516-.13.769.06.217.163.21.172-.123.168a1.939 1.939 0 0 1-.499-.061Zm2.965-.086c-.106-.059-.338-.073-.516-.033-.179.04-.454.023-.611-.04-.254-.1-.231-.111.193-.104.623.01.788-.093.627-.39-.114-.213-.08-.229.479-.233.54-.003 1.322.241 1.456.456.088.142-1.418.46-1.628.344Zm2.248.06c-.14-.14.032-.284.339-.286.184 0 .278.054.248.146-.053.165-.463.263-.587.14Zm84.77-.733c-.312-.31-.007-.685.56-.689.251-.001.252 0 .038.374-.249.434-.398.513-.598.315Zm-83.803.515c0-.026.078-.078.175-.115.096-.038.176-.018.176.045s-.078.114-.175.115c-.097 0-.176-.02-.176-.045Zm-5.07-.813c-.037-.036-.284-.067-.55-.069-.368-.003-.456-.038-.366-.148.086-.106-.04-.246-.472-.524-.848-.545-1.32-.65-1.886-.418-.531.218-.572.224-.573.09-.001-.247.93-.525 1.602-.477.642.044 1.002.18 2.267.85 1.04.551 1.041.552.707.65-.379.112-.647.129-.73.046Zm.84-1c.227-.149.351-.15.352-.002 0 .065-.118.118-.263.118-.213 0-.23-.022-.088-.116Zm93.315-.809c-.07-.046-.194-.206-.273-.355-.119-.224-.107-.333.068-.64.27-.472.455-.532.546-.177.095.374-.17 1.284-.34 1.172Zm-92.547.438c.077-.128.519-.145.52-.02 0 .049-.132.097-.292.107-.16.01-.263-.029-.228-.087Zm-2.324-1.12c-.189-.216-.163-.502.045-.503.067 0 .095.103.063.23-.033.127.002.252.075.278.074.026.104.082.066.124-.038.042-.15-.017-.249-.13Zm.675-.931c-.042-.11-.05-.225-.019-.258.032-.032.093.03.136.14.042.108.05.224.018.257-.032.032-.092-.03-.135-.14Zm-.735-.102c0-.097.1-.177.222-.178.199-.001.204.018.049.177-.096.098-.196.178-.222.178-.026 0-.048-.08-.049-.177Zm98.253-3.216c0-.092-.13-.32-.287-.506-.374-.441-.244-.738.197-.451.317.206.485.63.37.937-.087.232-.278.246-.28.02Zm-90.93-.124c0-.029.053-.085.117-.126.064-.04.117-.017.117.051 0 .069-.052.126-.116.126-.065 0-.117-.023-.118-.051Zm91.578-.734c-.077-.199.101-.388.37-.393.186-.004.191.26.009.446-.19.193-.288.18-.379-.053Zm1.068-.437c-.23-.348-.551-.394-1.285-.184-.3.086-.505.088-.645.008-.113-.066-.143-.121-.068-.124.076-.002.296-.14.489-.305.25-.214.432-.281.63-.233.21.052.436-.05.91-.414.923-.706 1.006-.928.624-1.674-.366-.716-.267-.948.272-.633.391.23.763.892.658 1.172-.038.101.021.417.131.703.156.403.172.573.07.767-.148.284-.566.475-1.042.478-.267.002-.346.071-.431.378l-.105.375-.208-.314Zm-47.47-.097c-.14-.14-.067-.267.156-.268.125-.001.26-.055.299-.12.108-.178.294-.144.224.041-.07.19-.577.448-.679.347Zm-3.997-.178-.352-.16.469-.011c.583-.014 1.014.094.93.232-.093.154-.642.122-1.047-.061Zm-4.74-1.146c-.47-.238-.492-.268-.248-.334.293-.08.942.012.93.131-.005.04-.043.162-.087.27-.07.176-.128.17-.595-.067Zm-2.356-1.26c-.103-.292-.096-.404.035-.537.237-.242.423-.074.426.382.003.54-.29.638-.461.155Zm-2.747.116c.082-.219.438-.258.368-.04-.027.08-.136.164-.243.186-.136.027-.174-.017-.125-.146Zm61.215-1.74c-.217-.301-.223-.357-.066-.585.154-.225.154-.292-.009-.603-.266-.51-.23-.542.23-.194.227.172.674.389.994.482.66.193.82.346.477.458-.13.043-.235.154-.235.248.001.128-.08.151-.321.09-.62-.155-.795-.115-.754.172.051.352-.028.335-.316-.067Zm-58.286.514a.265.265 0 0 1 .095-.436c.126-.05.175.011.177.222.001.283-.113.372-.272.214Zm57.528-2.855c-.1-.113-.342-.523-.538-.91-.196-.389-.711-1.1-1.146-1.581-.485-.538-.732-.895-.64-.927.081-.027.258.095.392.272.325.43.724.802 1.353 1.262.522.382.78.737.445.61-.388-.147-.289.206.214.77.294.327.534.62.534.651.001.143-.453.035-.614-.147Zm-85.744.345c0-.098.05-.177.113-.178.062 0 .083.08.047.177-.037.097-.087.177-.113.177-.025 0-.046-.079-.047-.176Zm-.614-.377-.437-.043.816-.823c.45-.453.876-.824.948-.825.076 0 .054.087-.053.207-.242.273-.074.576.372.672.195.042.39.19.466.355.122.265.101.293-.304.409-.425.121-.933.135-1.808.048Zm-28.557-.662c-.408-.378-.454-.539-.186-.644.24-.095.688.205.858.577.18.39.177.404-.084.405-.122.001-.386-.15-.588-.338Zm51.599-.93a6.54 6.54 0 0 1 .562-.24c.398-.147.331-.301-.174-.4-.347-.067-.36-.084-.162-.231.117-.088.179-.215.136-.283-.043-.07.077-.179.274-.25.193-.069.35-.177.35-.241-.002-.273-.249-.729-.384-.71-.313.043-.458-.012-.408-.154.028-.08.003-.24-.055-.353-.153-.294.19-.906.512-.915.048-.001.075.063.06.143-.016.08.095.162.246.184l.276.04-.262.284-.26.283.296.111c.319.12.628.514.944 1.205.151.33.25.417.424.37.358-.097.402.147.067.37-.227.152-.27.237-.169.337.1.1-.096.168-.777.271-.5.076-1.095.174-1.32.217-.314.06-.355.052-.176-.038Zm-1.98-.639c-.04-.105.004-.344.098-.53.11-.216.13-.368.056-.413-.204-.125-.129-.287.169-.364.158-.041.349-.15.423-.24.155-.191.877-.23.986-.055.04.065-.008.236-.108.38a1.2 1.2 0 0 0-.18.578c.002.262-.077.341-.494.49a15.27 15.27 0 0 0-.687.261c-.122.054-.215.016-.263-.107Zm2.145-1.185c0-.028.052-.085.116-.125.064-.04.117-.018.118.051a.123.123 0 0 1-.117.126c-.064 0-.117-.023-.117-.052Zm-52.005-.233c-.115-.139-.108-.204.035-.325.237-.2.356-.066.219.247-.094.217-.13.227-.254.078Zm-.188-.886c-.04-.064.005-.182.1-.263.19-.16.23-.036.072.22-.06.097-.128.114-.172.043Zm-7.574-.026c0-.083.354-.23.857-.356.19-.048.304-.037.266.024-.036.06-.211.139-.39.176a4.033 4.033 0 0 0-.528.15c-.113.044-.205.047-.205.006Zm69.621-1.773c-.216-.086-.179-.222.067-.242.118-.01.215.058.216.15.001.176-.04.189-.283.092Zm-25.752-.437c-.744-.402-1.102-1.025-.89-1.548.1-.247.102-.403.008-.577-.196-.364.054-.793.7-1.198.306-.192.611-.454.678-.582.186-.354.015-.957-.313-1.105-.165-.074-.256-.194-.22-.29.082-.218-.313-.96-.703-1.323-.288-.267-.411-.293-1.39-.293-1.334 0-1.583-.073-1.563-.458.008-.16.043-.291.077-.291s.508-.059 1.054-.13c.696-.09 1.32-.273 2.096-.611 1.2-.524 1.291-.535 4.163-.485.907.015 1.74-.057 2.81-.246.997-.175 1.731-.244 2.128-.198.337.038.825.008 1.1-.068.638-.177 2.3.02 2.954.351.387.196.592.22 1.243.151.703-.075.756-.066.546.092-.129.096-.523.215-.878.264-.768.107-1.471.663-1.282 1.014.082.151.024.281-.235.534-.19.185-.37.424-.404.531-.08.26-1.113.747-1.627.769-.57.023-.629.146-.186.387.209.114.514.31.678.433l.299.225-.268.102c-.206.078-.373.03-.717-.207-.467-.321-.967-.32-.698.002.104.126.08.175-.115.228-.435.117-.125.341.354.257.306-.054.478-.028.574.087.115.137-.033.202-.886.388-.562.123-1.313.23-1.667.237-.659.014-1.132.207-1.827.746-.226.175-.71.35-1.274.463-1.182.236-1.58.502-2.287 1.527-.568.824-.911 1.132-1.268 1.137-.097.002-.44-.14-.764-.315Zm-8.313-.735c-.252-.154-.562-.442-.689-.64-.246-.387-.472-.435-1.131-.24-.223.066-.474.073-.575.018-.348-.193.278-.39.976-.306.532.063.65.043.71-.12.123-.326.69-.564 1.008-.42.195.087.372.084.62-.013.335-.131.34-.143.12-.303-.126-.091-.27-.166-.319-.166-.049 0-.229-.235-.4-.523-.17-.289-.487-.634-.706-.768-.371-.228-.42-.231-.75-.057-.288.152-.455.164-.913.063-.309-.067-.739-.088-.956-.046-.377.074-1.07-.107-1.07-.28C-1.509 8.217-.52 7.5.068 7.391l.468-.087-.333.361c-.459.498-.284.725.216.279.211-.19.578-.382.815-.429.361-.07.516-.027.973.273.606.399.653.41.993.224.204-.112.28-.082.505.198.156.193.501.403.838.507.536.167.573.204.575.576.002.278.083.453.271.587.79.56.773.538.604.813-.23.377-.415.405-.933.144-.36-.182-.517-.207-.697-.108-.22.12-.223.146-.043.491.148.284.162.427.064.647-.12.271-.14.276-.474.105-.655-.336-1.094-.11-.482.249.192.112.322.248.29.3-.112.186-.693.092-1.149-.186Zm24.07-.002c-.001-.054.078-.099.174-.1.097 0 .176.044.177.098 0 .054-.079.098-.175.1-.097 0-.177-.044-.177-.098Zm-28.49-.45c-.232-.121-.412-.13-.734-.039-.55.157-.743.046-.465-.266.355-.4.596-.48 1.028-.339.486.158.703.396.573.63-.082.149-.139.15-.402.013Zm23.27-.204c-.193-.127-.44-.202-.547-.167-.148.048-.18.008-.136-.168.068-.268 1.095-.662 1.444-.553.121.038.431.004.688-.075.404-.125.512-.116.786.062l.318.207-.28.223c-.238.188-.679.353-1.744.652-.096.027-.334-.054-.528-.181Zm-31.825-1.996c-.16-.024-.554-.16-.873-.302l-.581-.258.813-.064c.447-.036.813-.118.812-.182 0-.065-.317-.145-.704-.177-.51-.042-.607-.074-.352-.115.427-.07.457-.256.057-.355-.289-.071-.287-.076.117-.254.7-.308 1.447-.371 2.11-.178.544.159.63.158.885-.013.18-.12.288-.141.297-.057l.031.269c.029.255.263.22.54-.08.256-.278.703-.414.703-.213 0 .048-.103.26-.229.471l-.229.383.38.196.379.196-.62.29c-.558.26-.673.275-1.176.157-.487-.114-.627-.1-1.116.115-.553.243-.67.259-1.244.171Zm4.7-.113c-.107-.128-.064-.191.209-.307.19-.08.463-.109.61-.063.254.08.248.092-.137.302-.49.266-.515.269-.683.068Zm32.323-.754c.227-.149.35-.15.352-.002 0 .065-.118.118-.263.118-.213 0-.23-.022-.089-.116Zm21.5-.465c-.601-.234-.589-.221-.416-.433.081-.1.101-.182.045-.184-.056-.002.003-.084.131-.183.129-.099.234-.217.235-.263.003-.174.477-.637.813-.794.193-.09.694-.193 1.112-.229.419-.036.98-.1 1.246-.144.284-.046.516-.03.559.04.084.135-.074.193-.983.363-.901.17-1.442.427-1.797.856-.374.453-.385.737-.038.977l.265.183-.351-.003c-.194-.001-.563-.085-.822-.186Zm-61.371.053c-.19-.189-.147-.23.756-.736 1.059-.591 1.592-.672 2.547-.387l.528.158-.702.145c-.574.118-1.79.536-2.75.945-.098.041-.268-.014-.38-.125Zm8.464-.207c0-.063-.146-.197-.324-.298l-.323-.184.432.066c.306.046.459.016.526-.104.08-.142.824-.431 1.122-.435.05 0 .01.158-.089.353-.232.459-1.342.956-1.344.602Zm1.822-.356c-.17-.272.975-.702 1.463-.55.355.111.12.307-.5.415-.276.048-.59.125-.695.171-.106.047-.226.03-.268-.036ZM.77 6.95c-.774-.057-1.422-.117-1.44-.133-.105-.097.155-.417.435-.536.276-.117.404-.103.783.089.37.186.608.216 1.294.162.461-.036.989-.03 1.171.016l.333.082-.41.223c-.224.123-.487.218-.584.212-.097-.006-.809-.058-1.582-.115Zm33.716-.698c-.577-.293-.633-.427-.181-.433.177-.002.4-.061.497-.132.151-.11.15-.12-.016-.066a.354.354 0 0 1-.327-.074c-.104-.104-.158-.102-.225.009-.062.102-.19.115-.435.043-.619-.182-.757-.263-.758-.448 0-.156.154-.172 1.113-.11.73.047 1.113.03 1.112-.049 0-.232.325-.12.413.143l.088.264.05-.265c.028-.146.126-.266.218-.267.093 0 .168-.065.167-.142 0-.11.03-.11.14-.001.083.081.476.138.94.135.837-.005 1.035.144.477.361-.29.113-.795.085-1.35-.075-.112-.032-.204-.016-.203.037.001.109.662.505.84.504.064 0 .19.073.282.163.141.141.14.174-.008.232-.094.038-.172.01-.173-.06 0-.081-.15-.097-.422-.044-.294.057-.397.043-.341-.049.044-.072.015-.208-.063-.302-.152-.18-.583-.234-.582-.071 0 .053-.17.288-.378.522l-.378.426-.497-.251ZM3.402 6.19c-.204-.118-.492-.151-.939-.107-.417.041-.738.01-.913-.089-.24-.136-.182-.152.55-.151.915.001 1.316-.198.819-.408-.236-.1-.202-.11.202-.056.527.07.731-.073.443-.31-.308-.254.028-.336 1.118-.272.674.04 1.097.012 1.27-.082.33-.18.199-.407-.18-.309-.261.068-2.08-.029-2.004-.107.055-.055 2.63-.312 4.32-.43a53.593 53.593 0 0 0 2.167-.187l.572-.075-.943.463c-.883.434-2.322.86-2.914.864-.144.001-.557.163-.919.36-.36.196-.729.358-.818.359-.088 0-.47.161-.85.357-.378.196-.687.355-.687.354 0-.001-.133-.08-.294-.174ZM1.11 5.13c-.568-.123-.59-.17-.173-.39.606-.321 1.181-.406 1.444-.214.208.153.196.177-.21.42-.422.255-.594.285-1.06.184Z"
            />
        </g>
    </g>
    <defs>
        <radialGradient
            id="b"
            cx="0"
            cy="0"
            r="1"
            gradientTransform="rotate(122.661 24.434 22.128) scale(69.4874 69.6054)"
            gradientUnits="userSpaceOnUse"
        >
            <stop stop-color="#fff" />
            <stop offset="1" stop-color="#B2EAFE" />
        </radialGradient>
        <radialGradient
            id="d"
            cx="0"
            cy="0"
            r="1"
            gradientTransform="matrix(-34.49992 68.99999 -64.56435 -32.2821 54.75 9.75)"
            gradientUnits="userSpaceOnUse"
        >
            <stop stop-color="#B2EAFE" />
            <stop offset="1" stop-color="#27ABF4" />
        </radialGradient>
        <clipPath id="a">
            <path fill="#fff" d="M0 0h72v71.998H0z" />
        </clipPath>
    </defs>
</svg>
