<svg width="320" height="187" viewBox="0 0 320 187" fill="none" xmlns="http://www.w3.org/2000/svg">
<g clip-path="url(#clip0_13819_154243)">
<rect x="36.9644" y="97.3291" width="139.373" height="49.4141" fill="#353145"/>
<g opacity="0.8" filter="url(#filter0_i_13819_154243)">
<path d="M106.579 80.4424L30.6279 80.4424L40.6125 62.0524C42.6814 58.3972 45.2356 55.5166 50.9763 55.5166L106.833 55.5166L162.74 55.5166C168.43 55.5166 170.608 58.3972 173.104 62.0524L183.089 80.4424L106.579 80.4424Z" fill="url(#paint0_linear_13819_154243)"/>
</g>
<g filter="url(#filter1_i_13819_154243)">
<rect x="30.6348" y="116.334" width="152.461" height="34.991" rx="5.10565" fill="url(#paint1_linear_13819_154243)"/>
</g>
<rect x="40.6323" y="131.329" width="78.7297" height="4.99871" rx="2.49935" fill="#8A8798"/>
<rect x="159.352" y="131.329" width="4.99871" height="4.99871" rx="2.49935" fill="white"/>
<rect x="149.354" y="131.329" width="4.99871" height="4.99871" rx="2.49935" fill="white"/>
<rect x="169.35" y="131.329" width="4.99871" height="4.99871" rx="2.49935" fill="#29FFB2"/>
<g filter="url(#filter2_i_13819_154243)">
<rect x="30.6348" y="75.7891" width="152.461" height="34.991" rx="5.10565" fill="url(#paint2_linear_13819_154243)"/>
</g>
<rect x="40.6323" y="90.7842" width="78.7297" height="4.99871" rx="2.49935" fill="#8A8798"/>
<rect x="159.352" y="90.7842" width="4.99871" height="4.99871" rx="2.49935" fill="white"/>
<rect x="149.354" y="90.7842" width="4.99871" height="4.99871" rx="2.49935" fill="#29FFB2"/>
<rect x="169.35" y="90.7842" width="4.99871" height="4.99871" rx="2.49935" fill="#29FFB2"/>
<rect opacity="0.5" x="58.5039" y="55.5166" width="40.5449" height="95.0271" fill="url(#paint3_linear_13819_154243)"/>
</g>
<g clip-path="url(#clip1_13819_154243)">
<rect x="144.662" y="97.3291" width="139.373" height="49.4141" fill="#353145"/>
<g opacity="0.8" filter="url(#filter3_i_13819_154243)">
<path d="M214.277 80.4424L138.326 80.4424L148.31 62.0524C150.379 58.3972 152.933 55.5166 158.674 55.5166L214.531 55.5166L270.438 55.5166C276.128 55.5166 278.306 58.3972 280.802 62.0524L290.786 80.4424L214.277 80.4424Z" fill="url(#paint4_linear_13819_154243)"/>
</g>
<g filter="url(#filter4_i_13819_154243)">
<rect x="138.333" y="116.334" width="152.461" height="34.991" rx="5.10565" fill="url(#paint5_linear_13819_154243)"/>
</g>
<rect x="148.33" y="131.329" width="78.7297" height="4.99871" rx="2.49935" fill="#C7C1B6"/>
<rect x="267.049" y="131.329" width="4.99871" height="4.99871" rx="2.49935" fill="#8A8798"/>
<rect x="257.052" y="131.329" width="4.99871" height="4.99871" rx="2.49935" fill="#8A8798"/>
<rect x="277.047" y="131.329" width="4.99871" height="4.99871" rx="2.49935" fill="#29FFB2"/>
<g filter="url(#filter5_i_13819_154243)">
<rect x="138.333" y="75.7891" width="152.461" height="34.991" rx="5.10565" fill="url(#paint6_linear_13819_154243)"/>
</g>
<rect x="148.33" y="90.7842" width="78.7297" height="4.99871" rx="2.49935" fill="#C7C1B6"/>
<rect x="267.049" y="90.7842" width="4.99871" height="4.99871" rx="2.49935" fill="#8A8798"/>
<rect x="257.052" y="90.7842" width="4.99871" height="4.99871" rx="2.49935" fill="#29FFB2"/>
<rect x="277.047" y="90.7842" width="4.99871" height="4.99871" rx="2.49935" fill="#29FFB2"/>
<rect opacity="0.9" width="28.5316" height="96.1064" transform="matrix(-1 0 0 1 255.973 54.9082)" fill="url(#paint7_linear_13819_154243)"/>
</g>
<rect x="90.0894" y="67.7852" width="139.964" height="82.4787" fill="#353145"/>
<g filter="url(#filter6_i_13819_154243)">
<rect x="83.8408" y="127.736" width="152.461" height="34.991" rx="5.10565" fill="url(#paint8_linear_13819_154243)"/>
</g>
<rect x="93.8384" y="142.734" width="78.7297" height="4.99871" rx="2.49935" fill="#8A8798"/>
<rect x="212.557" y="142.734" width="4.99871" height="4.99871" rx="2.49935" fill="#8A8798"/>
<rect x="202.561" y="142.734" width="4.99871" height="4.99871" rx="2.49935" fill="#8A8798"/>
<rect x="222.554" y="142.734" width="4.99871" height="4.99871" rx="2.49935" fill="#8A8798"/>
<g opacity="0.8" filter="url(#filter7_i_13819_154243)">
<path d="M159.79 51.2988L83.8394 51.2988L93.8239 32.9088C95.8928 29.2537 98.447 26.373 104.188 26.373L160.044 26.373L215.952 26.373C221.642 26.373 223.82 29.2537 226.315 32.9088L236.3 51.2988L159.79 51.2988Z" fill="url(#paint9_linear_13819_154243)"/>
</g>
<g filter="url(#filter8_i_13819_154243)">
<rect x="83.8418" y="87.1924" width="152.461" height="34.991" rx="5.10565" fill="url(#paint10_linear_13819_154243)"/>
</g>
<rect x="93.8379" y="102.188" width="78.7297" height="4.99871" rx="2.49935" fill="#8A8798"/>
<rect x="212.557" y="102.188" width="4.99871" height="4.99871" rx="2.49935" fill="#8A8798"/>
<rect x="202.56" y="102.188" width="4.99871" height="4.99871" rx="2.49935" fill="#8A8798"/>
<rect x="222.555" y="102.188" width="4.99871" height="4.99871" rx="2.49935" fill="#8A8798"/>
<g filter="url(#filter9_i_13819_154243)">
<rect x="83.8418" y="46.6484" width="152.461" height="34.991" rx="5.10565" fill="url(#paint11_linear_13819_154243)"/>
</g>
<rect x="93.8394" y="61.6436" width="78.7297" height="4.99871" rx="2.49935" fill="#8A8798"/>
<rect x="212.558" y="61.6436" width="4.99871" height="4.99871" rx="2.49935" fill="#8A8798"/>
<rect x="202.56" y="61.6436" width="4.99871" height="4.99871" rx="2.49935" fill="#8A8798"/>
<rect x="222.555" y="61.6436" width="4.99871" height="4.99871" rx="2.49935" fill="#29FFB2"/>
<mask id="mask0_13819_154243" style="mask-type:alpha" maskUnits="userSpaceOnUse" x="83" y="46" width="144" height="34">
<rect x="83.8418" y="46.6504" width="142.613" height="32.7307" rx="4.74074" fill="url(#paint12_linear_13819_154243)"/>
</mask>
<g mask="url(#mask0_13819_154243)">
<g filter="url(#filter10_f_13819_154243)">
<path d="M54.2119 37.1686C54.2119 18.8409 69.0694 3.9834 87.3971 3.9834C105.725 3.9834 120.582 18.8409 120.582 37.1686C120.582 55.4963 105.725 70.3538 87.3971 70.3538C69.0694 70.3538 54.2119 55.4963 54.2119 37.1686Z" fill="#414B59" fill-opacity="0.6"/>
</g>
</g>
<g clip-path="url(#clip2_13819_154243)">
<g opacity="0.6" filter="url(#filter11_f_13819_154243)">
<path d="M205.27 64.0068H127.978C123.197 64.0068 119.322 67.8826 119.322 72.6635V149.955C119.322 154.736 123.197 158.612 127.978 158.612H205.27C210.051 158.612 213.927 154.736 213.927 149.955V72.6635C213.927 67.8825 210.051 64.0068 205.27 64.0068Z" fill="black"/>
</g>
<g filter="url(#filter12_ii_13819_154243)">
<path d="M196.26 64.0068H136.989C132.208 64.0068 128.332 67.8826 128.332 72.6635V146.952C128.332 151.733 132.208 155.608 136.989 155.608H196.26C201.041 155.608 204.917 151.733 204.917 146.952V72.6635C204.917 67.8825 201.041 64.0068 196.26 64.0068Z" fill="url(#paint13_linear_13819_154243)"/>
</g>
<path d="M179.013 124.074H154.235C152.784 124.074 151.607 125.251 151.607 126.702C151.607 128.153 152.784 129.33 154.235 129.33H179.013C180.464 129.33 181.641 128.153 181.641 126.702C181.641 125.251 180.464 124.074 179.013 124.074Z" fill="white" fill-opacity="0.56"/>
<path d="M173.745 135.329H159.503C158.258 135.329 157.249 136.338 157.249 137.583C157.249 138.828 158.258 139.837 159.503 139.837H173.745C174.99 139.837 175.999 138.828 175.999 137.583C175.999 136.338 174.99 135.329 173.745 135.329Z" fill="white" fill-opacity="0.35"/>
<path d="M166.624 118.32C176.826 118.32 185.097 110.049 185.097 99.8473C185.097 89.6453 176.826 81.375 166.624 81.375C156.422 81.375 148.152 89.6453 148.152 99.8473C148.152 110.049 156.422 118.32 166.624 118.32Z" fill="white" fill-opacity="0.56"/>
<path d="M166.624 103.452C170.511 103.452 173.662 100.301 173.662 96.415C173.662 92.5285 170.511 89.3779 166.624 89.3779C162.738 89.3779 159.587 92.5285 159.587 96.415C159.587 100.301 162.738 103.452 166.624 103.452Z" fill="#9074C1"/>
<path d="M166.624 118.321C171.814 118.321 176.476 116.21 179.818 112.78C176.74 108.865 171.989 106.402 166.624 106.402C161.258 106.402 156.508 108.909 153.429 112.78C156.772 116.166 161.434 118.321 166.624 118.321Z" fill="#9074C1"/>
<path d="M181.63 73.017H151.618C150.379 73.017 149.355 72.3377 149.355 71.5153C149.355 70.693 150.379 70.0137 151.618 70.0137H181.63C182.869 70.0137 183.893 70.693 183.893 71.5153C183.893 72.3377 182.869 73.017 181.63 73.017Z" fill="#34313C"/>
<mask id="mask1_13819_154243" style="mask-type:alpha" maskUnits="userSpaceOnUse" x="83" y="26" width="154" height="50">
<path d="M236.3 75.5791L83.8398 75.5791L83.8398 51.2938L93.8244 32.9038C95.8933 29.2487 98.4475 26.368 104.188 26.368L160.045 26.368L215.952 26.368C221.642 26.368 223.82 29.2486 226.316 32.9038L236.3 51.2938L236.3 75.5791Z" fill="url(#paint14_linear_13819_154243)"/>
</mask>
<g mask="url(#mask1_13819_154243)">
<g filter="url(#filter13_d_13819_154243)">
<path d="M170.379 26.3677C164.114 26.3416 154.832 26.2786 149.355 26.4632L154.777 49.5022C155.214 50.2068 155.448 51.0182 155.453 51.847L155.585 71.7398L176.385 71.5965L176.242 51.7601C176.236 50.8959 175.982 50.0515 175.51 49.3278L170.379 26.3677Z" fill="#33295B"/>
</g>
<g filter="url(#filter14_d_13819_154243)">
<path d="M161.586 27.9159C161.031 27.0664 159.985 26.147 158.97 26.1428C152.706 26.1167 145.469 26.0537 139.993 26.2383L154.425 49.2773C154.861 49.9819 155.095 50.7933 155.1 51.6222L155.232 73.0166H176.385L176.242 51.6785C176.236 50.8143 175.982 49.97 175.51 49.2462L161.586 27.9159Z" fill="url(#paint15_linear_13819_154243)"/>
<path d="M161.586 27.9159C161.031 27.0664 159.985 26.147 158.97 26.1428C152.706 26.1167 145.469 26.0537 139.993 26.2383L154.425 49.2773C154.861 49.9819 155.095 50.7933 155.1 51.6222L155.232 73.0166H176.385L176.242 51.6785C176.236 50.8143 175.982 49.97 175.51 49.2462L161.586 27.9159Z" fill="white" fill-opacity="0.33"/>
</g>
<mask id="mask2_13819_154243" style="mask-type:alpha" maskUnits="userSpaceOnUse" x="139" y="26" width="38" height="48">
<path d="M161.586 27.9159C161.031 27.0664 159.985 26.147 158.97 26.1428C152.706 26.1167 145.469 26.0537 139.993 26.2383L154.425 49.2773C154.861 49.9819 155.095 50.7933 155.1 51.6222L155.232 73.0166H176.385L176.242 51.6785C176.236 50.8143 175.982 49.97 175.51 49.2462L161.586 27.9159Z" fill="url(#paint16_linear_13819_154243)"/>
</mask>
<g mask="url(#mask2_13819_154243)">
<path opacity="0.4" d="M155.212 70.0117H176.385V73.015H155.212V70.0117Z" fill="url(#paint17_linear_13819_154243)"/>
<path opacity="0.24" d="M150.537 45.8105H180.104V60.3594H150.537V45.8105Z" fill="url(#paint18_linear_13819_154243)"/>
</g>
</g>
</g>
<defs>
<filter id="filter0_i_13819_154243" x="30.6279" y="55.5166" width="152.46" height="27.9291" filterUnits="userSpaceOnUse" color-interpolation-filters="sRGB">
<feFlood flood-opacity="0" result="BackgroundImageFix"/>
<feBlend mode="normal" in="SourceGraphic" in2="BackgroundImageFix" result="shape"/>
<feColorMatrix in="SourceAlpha" type="matrix" values="0 0 0 0 0 0 0 0 0 0 0 0 0 0 0 0 0 0 127 0" result="hardAlpha"/>
<feOffset dy="3.00333"/>
<feGaussianBlur stdDeviation="1.50166"/>
<feComposite in2="hardAlpha" operator="arithmetic" k2="-1" k3="1"/>
<feColorMatrix type="matrix" values="0 0 0 0 1 0 0 0 0 1 0 0 0 0 1 0 0 0 0.35 0"/>
<feBlend mode="normal" in2="shape" result="effect1_innerShadow_13819_154243"/>
</filter>
<filter id="filter1_i_13819_154243" x="30.6348" y="116.334" width="152.46" height="35.6044" filterUnits="userSpaceOnUse" color-interpolation-filters="sRGB">
<feFlood flood-opacity="0" result="BackgroundImageFix"/>
<feBlend mode="normal" in="SourceGraphic" in2="BackgroundImageFix" result="shape"/>
<feColorMatrix in="SourceAlpha" type="matrix" values="0 0 0 0 0 0 0 0 0 0 0 0 0 0 0 0 0 0 127 0" result="hardAlpha"/>
<feOffset dy="0.613177"/>
<feGaussianBlur stdDeviation="1.24007"/>
<feComposite in2="hardAlpha" operator="arithmetic" k2="-1" k3="1"/>
<feColorMatrix type="matrix" values="0 0 0 0 1 0 0 0 0 1 0 0 0 0 1 0 0 0 0.6 0"/>
<feBlend mode="normal" in2="shape" result="effect1_innerShadow_13819_154243"/>
</filter>
<filter id="filter2_i_13819_154243" x="30.6348" y="75.7891" width="152.46" height="35.6044" filterUnits="userSpaceOnUse" color-interpolation-filters="sRGB">
<feFlood flood-opacity="0" result="BackgroundImageFix"/>
<feBlend mode="normal" in="SourceGraphic" in2="BackgroundImageFix" result="shape"/>
<feColorMatrix in="SourceAlpha" type="matrix" values="0 0 0 0 0 0 0 0 0 0 0 0 0 0 0 0 0 0 127 0" result="hardAlpha"/>
<feOffset dy="0.613177"/>
<feGaussianBlur stdDeviation="1.24007"/>
<feComposite in2="hardAlpha" operator="arithmetic" k2="-1" k3="1"/>
<feColorMatrix type="matrix" values="0 0 0 0 1 0 0 0 0 1 0 0 0 0 1 0 0 0 0.6 0"/>
<feBlend mode="normal" in2="shape" result="effect1_innerShadow_13819_154243"/>
</filter>
<filter id="filter3_i_13819_154243" x="138.326" y="55.5166" width="152.46" height="27.9291" filterUnits="userSpaceOnUse" color-interpolation-filters="sRGB">
<feFlood flood-opacity="0" result="BackgroundImageFix"/>
<feBlend mode="normal" in="SourceGraphic" in2="BackgroundImageFix" result="shape"/>
<feColorMatrix in="SourceAlpha" type="matrix" values="0 0 0 0 0 0 0 0 0 0 0 0 0 0 0 0 0 0 127 0" result="hardAlpha"/>
<feOffset dy="3.00333"/>
<feGaussianBlur stdDeviation="1.50166"/>
<feComposite in2="hardAlpha" operator="arithmetic" k2="-1" k3="1"/>
<feColorMatrix type="matrix" values="0 0 0 0 1 0 0 0 0 1 0 0 0 0 1 0 0 0 0.35 0"/>
<feBlend mode="normal" in2="shape" result="effect1_innerShadow_13819_154243"/>
</filter>
<filter id="filter4_i_13819_154243" x="138.333" y="116.334" width="152.46" height="35.6044" filterUnits="userSpaceOnUse" color-interpolation-filters="sRGB">
<feFlood flood-opacity="0" result="BackgroundImageFix"/>
<feBlend mode="normal" in="SourceGraphic" in2="BackgroundImageFix" result="shape"/>
<feColorMatrix in="SourceAlpha" type="matrix" values="0 0 0 0 0 0 0 0 0 0 0 0 0 0 0 0 0 0 127 0" result="hardAlpha"/>
<feOffset dy="0.613177"/>
<feGaussianBlur stdDeviation="1.24007"/>
<feComposite in2="hardAlpha" operator="arithmetic" k2="-1" k3="1"/>
<feColorMatrix type="matrix" values="0 0 0 0 1 0 0 0 0 1 0 0 0 0 1 0 0 0 0.6 0"/>
<feBlend mode="normal" in2="shape" result="effect1_innerShadow_13819_154243"/>
</filter>
<filter id="filter5_i_13819_154243" x="138.333" y="75.7891" width="152.46" height="35.6044" filterUnits="userSpaceOnUse" color-interpolation-filters="sRGB">
<feFlood flood-opacity="0" result="BackgroundImageFix"/>
<feBlend mode="normal" in="SourceGraphic" in2="BackgroundImageFix" result="shape"/>
<feColorMatrix in="SourceAlpha" type="matrix" values="0 0 0 0 0 0 0 0 0 0 0 0 0 0 0 0 0 0 127 0" result="hardAlpha"/>
<feOffset dy="0.613177"/>
<feGaussianBlur stdDeviation="1.24007"/>
<feComposite in2="hardAlpha" operator="arithmetic" k2="-1" k3="1"/>
<feColorMatrix type="matrix" values="0 0 0 0 1 0 0 0 0 1 0 0 0 0 1 0 0 0 0.6 0"/>
<feBlend mode="normal" in2="shape" result="effect1_innerShadow_13819_154243"/>
</filter>
<filter id="filter6_i_13819_154243" x="83.8408" y="127.736" width="152.46" height="35.6044" filterUnits="userSpaceOnUse" color-interpolation-filters="sRGB">
<feFlood flood-opacity="0" result="BackgroundImageFix"/>
<feBlend mode="normal" in="SourceGraphic" in2="BackgroundImageFix" result="shape"/>
<feColorMatrix in="SourceAlpha" type="matrix" values="0 0 0 0 0 0 0 0 0 0 0 0 0 0 0 0 0 0 127 0" result="hardAlpha"/>
<feOffset dy="0.613177"/>
<feGaussianBlur stdDeviation="1.24007"/>
<feComposite in2="hardAlpha" operator="arithmetic" k2="-1" k3="1"/>
<feColorMatrix type="matrix" values="0 0 0 0 1 0 0 0 0 1 0 0 0 0 1 0 0 0 0.6 0"/>
<feBlend mode="normal" in2="shape" result="effect1_innerShadow_13819_154243"/>
</filter>
<filter id="filter7_i_13819_154243" x="83.8394" y="26.373" width="152.46" height="27.9291" filterUnits="userSpaceOnUse" color-interpolation-filters="sRGB">
<feFlood flood-opacity="0" result="BackgroundImageFix"/>
<feBlend mode="normal" in="SourceGraphic" in2="BackgroundImageFix" result="shape"/>
<feColorMatrix in="SourceAlpha" type="matrix" values="0 0 0 0 0 0 0 0 0 0 0 0 0 0 0 0 0 0 127 0" result="hardAlpha"/>
<feOffset dy="3.00333"/>
<feGaussianBlur stdDeviation="1.50166"/>
<feComposite in2="hardAlpha" operator="arithmetic" k2="-1" k3="1"/>
<feColorMatrix type="matrix" values="0 0 0 0 1 0 0 0 0 1 0 0 0 0 1 0 0 0 0.35 0"/>
<feBlend mode="normal" in2="shape" result="effect1_innerShadow_13819_154243"/>
</filter>
<filter id="filter8_i_13819_154243" x="83.8418" y="87.1924" width="152.46" height="35.6044" filterUnits="userSpaceOnUse" color-interpolation-filters="sRGB">
<feFlood flood-opacity="0" result="BackgroundImageFix"/>
<feBlend mode="normal" in="SourceGraphic" in2="BackgroundImageFix" result="shape"/>
<feColorMatrix in="SourceAlpha" type="matrix" values="0 0 0 0 0 0 0 0 0 0 0 0 0 0 0 0 0 0 127 0" result="hardAlpha"/>
<feOffset dy="0.613177"/>
<feGaussianBlur stdDeviation="1.24007"/>
<feComposite in2="hardAlpha" operator="arithmetic" k2="-1" k3="1"/>
<feColorMatrix type="matrix" values="0 0 0 0 1 0 0 0 0 1 0 0 0 0 1 0 0 0 0.6 0"/>
<feBlend mode="normal" in2="shape" result="effect1_innerShadow_13819_154243"/>
</filter>
<filter id="filter9_i_13819_154243" x="83.8418" y="46.6484" width="152.46" height="35.6044" filterUnits="userSpaceOnUse" color-interpolation-filters="sRGB">
<feFlood flood-opacity="0" result="BackgroundImageFix"/>
<feBlend mode="normal" in="SourceGraphic" in2="BackgroundImageFix" result="shape"/>
<feColorMatrix in="SourceAlpha" type="matrix" values="0 0 0 0 0 0 0 0 0 0 0 0 0 0 0 0 0 0 127 0" result="hardAlpha"/>
<feOffset dy="0.613177"/>
<feGaussianBlur stdDeviation="1.24007"/>
<feComposite in2="hardAlpha" operator="arithmetic" k2="-1" k3="1"/>
<feColorMatrix type="matrix" values="0 0 0 0 1 0 0 0 0 1 0 0 0 0 1 0 0 0 0.6 0"/>
<feBlend mode="normal" in2="shape" result="effect1_innerShadow_13819_154243"/>
</filter>
<filter id="filter10_f_13819_154243" x="36.4341" y="-13.7944" width="101.926" height="101.926" filterUnits="userSpaceOnUse" color-interpolation-filters="sRGB">
<feFlood flood-opacity="0" result="BackgroundImageFix"/>
<feBlend mode="normal" in="SourceGraphic" in2="BackgroundImageFix" result="shape"/>
<feGaussianBlur stdDeviation="8.88889" result="effect1_foregroundBlur_13819_154243"/>
</filter>
<filter id="filter11_f_13819_154243" x="98.2985" y="42.9836" width="136.652" height="136.651" filterUnits="userSpaceOnUse" color-interpolation-filters="sRGB">
<feFlood flood-opacity="0" result="BackgroundImageFix"/>
<feBlend mode="normal" in="SourceGraphic" in2="BackgroundImageFix" result="shape"/>
<feGaussianBlur stdDeviation="10.5116" result="effect1_foregroundBlur_13819_154243"/>
</filter>
<filter id="filter12_ii_13819_154243" x="128.332" y="62.5052" width="76.585" height="96.1066" filterUnits="userSpaceOnUse" color-interpolation-filters="sRGB">
<feFlood flood-opacity="0" result="BackgroundImageFix"/>
<feBlend mode="normal" in="SourceGraphic" in2="BackgroundImageFix" result="shape"/>
<feColorMatrix in="SourceAlpha" type="matrix" values="0 0 0 0 0 0 0 0 0 0 0 0 0 0 0 0 0 0 127 0" result="hardAlpha"/>
<feOffset dy="3.00333"/>
<feGaussianBlur stdDeviation="1.50166"/>
<feComposite in2="hardAlpha" operator="arithmetic" k2="-1" k3="1"/>
<feColorMatrix type="matrix" values="0 0 0 0 1 0 0 0 0 1 0 0 0 0 1 0 0 0 0.7 0"/>
<feBlend mode="normal" in2="shape" result="effect1_innerShadow_13819_154243"/>
<feColorMatrix in="SourceAlpha" type="matrix" values="0 0 0 0 0 0 0 0 0 0 0 0 0 0 0 0 0 0 127 0" result="hardAlpha"/>
<feOffset dy="-1.50166"/>
<feGaussianBlur stdDeviation="0.750831"/>
<feComposite in2="hardAlpha" operator="arithmetic" k2="-1" k3="1"/>
<feColorMatrix type="matrix" values="0 0 0 0 0 0 0 0 0 0 0 0 0 0 0 0 0 0 0.35 0"/>
<feBlend mode="normal" in2="effect1_innerShadow_13819_154243" result="effect2_innerShadow_13819_154243"/>
</filter>
<filter id="filter13_d_13819_154243" x="143.349" y="23.3326" width="33.0364" height="51.4109" filterUnits="userSpaceOnUse" color-interpolation-filters="sRGB">
<feFlood flood-opacity="0" result="BackgroundImageFix"/>
<feColorMatrix in="SourceAlpha" type="matrix" values="0 0 0 0 0 0 0 0 0 0 0 0 0 0 0 0 0 0 127 0" result="hardAlpha"/>
<feOffset dx="-3.00333"/>
<feGaussianBlur stdDeviation="1.50166"/>
<feComposite in2="hardAlpha" operator="out"/>
<feColorMatrix type="matrix" values="0 0 0 0 0 0 0 0 0 0 0 0 0 0 0 0 0 0 0.25 0"/>
<feBlend mode="normal" in2="BackgroundImageFix" result="effect1_dropShadow_13819_154243"/>
<feBlend mode="normal" in="SourceGraphic" in2="effect1_dropShadow_13819_154243" result="shape"/>
</filter>
<filter id="filter14_d_13819_154243" x="133.986" y="23.108" width="42.3992" height="52.9119" filterUnits="userSpaceOnUse" color-interpolation-filters="sRGB">
<feFlood flood-opacity="0" result="BackgroundImageFix"/>
<feColorMatrix in="SourceAlpha" type="matrix" values="0 0 0 0 0 0 0 0 0 0 0 0 0 0 0 0 0 0 127 0" result="hardAlpha"/>
<feOffset dx="-3.00333"/>
<feGaussianBlur stdDeviation="1.50166"/>
<feComposite in2="hardAlpha" operator="out"/>
<feColorMatrix type="matrix" values="0 0 0 0 0 0 0 0 0 0 0 0 0 0 0 0 0 0 0.25 0"/>
<feBlend mode="normal" in2="BackgroundImageFix" result="effect1_dropShadow_13819_154243"/>
<feBlend mode="normal" in="SourceGraphic" in2="effect1_dropShadow_13819_154243" result="shape"/>
</filter>
<linearGradient id="paint0_linear_13819_154243" x1="82.8946" y1="63.8242" x2="183.061" y2="58.7294" gradientUnits="userSpaceOnUse">
<stop stop-color="#44414B"/>
<stop offset="0.375" stop-color="#504C5B"/>
<stop offset="1" stop-color="#B1AFBC"/>
</linearGradient>
<linearGradient id="paint1_linear_13819_154243" x1="46.2372" y1="116.334" x2="57.0746" y2="172.716" gradientUnits="userSpaceOnUse">
<stop stop-color="#3C3848"/>
<stop offset="0.385417" stop-color="#646072"/>
<stop offset="1" stop-color="#3B3747"/>
</linearGradient>
<linearGradient id="paint2_linear_13819_154243" x1="46.2372" y1="75.7891" x2="57.0746" y2="132.171" gradientUnits="userSpaceOnUse">
<stop stop-color="#3C3848"/>
<stop offset="0.385417" stop-color="#646072"/>
<stop offset="1" stop-color="#3B3747"/>
</linearGradient>
<linearGradient id="paint3_linear_13819_154243" x1="99.0488" y1="150.544" x2="58.5039" y2="150.544" gradientUnits="userSpaceOnUse">
<stop stop-color="#414B59"/>
<stop offset="1" stop-color="#414B59" stop-opacity="0"/>
</linearGradient>
<linearGradient id="paint4_linear_13819_154243" x1="190.592" y1="63.8242" x2="290.759" y2="58.7294" gradientUnits="userSpaceOnUse">
<stop stop-color="#44414B"/>
<stop offset="0.375" stop-color="#504C5B"/>
<stop offset="1" stop-color="#B1AFBC"/>
</linearGradient>
<linearGradient id="paint5_linear_13819_154243" x1="153.935" y1="116.334" x2="164.772" y2="172.716" gradientUnits="userSpaceOnUse">
<stop stop-color="#3C3848"/>
<stop offset="0.385417" stop-color="#646072"/>
<stop offset="1" stop-color="#3B3747"/>
</linearGradient>
<linearGradient id="paint6_linear_13819_154243" x1="153.935" y1="75.7891" x2="164.772" y2="132.171" gradientUnits="userSpaceOnUse">
<stop stop-color="#3C3848"/>
<stop offset="0.385417" stop-color="#646072"/>
<stop offset="1" stop-color="#3B3747"/>
</linearGradient>
<linearGradient id="paint7_linear_13819_154243" x1="28.5316" y1="96.1064" x2="0" y2="96.1064" gradientUnits="userSpaceOnUse">
<stop stop-color="#414B59"/>
<stop offset="1" stop-color="#414B59" stop-opacity="0"/>
</linearGradient>
<linearGradient id="paint8_linear_13819_154243" x1="99.4432" y1="127.736" x2="110.281" y2="184.118" gradientUnits="userSpaceOnUse">
<stop stop-color="#3C3848"/>
<stop offset="0.385417" stop-color="#646072"/>
<stop offset="1" stop-color="#3B3747"/>
</linearGradient>
<linearGradient id="paint9_linear_13819_154243" x1="136.106" y1="34.6806" x2="236.273" y2="29.5859" gradientUnits="userSpaceOnUse">
<stop stop-color="#44414B"/>
<stop offset="0.375" stop-color="#504C5B"/>
<stop offset="1" stop-color="#B1AFBC"/>
</linearGradient>
<linearGradient id="paint10_linear_13819_154243" x1="99.4442" y1="87.1924" x2="110.282" y2="143.574" gradientUnits="userSpaceOnUse">
<stop stop-color="#3C3848"/>
<stop offset="0.385417" stop-color="#646072"/>
<stop offset="1" stop-color="#3B3747"/>
</linearGradient>
<linearGradient id="paint11_linear_13819_154243" x1="99.4442" y1="46.6484" x2="110.282" y2="103.03" gradientUnits="userSpaceOnUse">
<stop stop-color="#3C3848"/>
<stop offset="0.385417" stop-color="#646072"/>
<stop offset="1" stop-color="#3B3747"/>
</linearGradient>
<linearGradient id="paint12_linear_13819_154243" x1="98.4364" y1="46.6504" x2="108.574" y2="99.3903" gradientUnits="userSpaceOnUse">
<stop stop-color="#EBE7E1"/>
<stop offset="0.385417" stop-color="#F5F2EB"/>
<stop offset="1" stop-color="#D6D3CE"/>
</linearGradient>
<linearGradient id="paint13_linear_13819_154243" x1="197.859" y1="55.701" x2="74.7935" y2="115.933" gradientUnits="userSpaceOnUse">
<stop stop-color="#FBEDFF"/>
<stop offset="0.424343" stop-color="#ECAAFF"/>
<stop offset="1" stop-color="#6A48F6"/>
</linearGradient>
<linearGradient id="paint14_linear_13819_154243" x1="136.106" y1="34.6762" x2="236.273" y2="29.5814" gradientUnits="userSpaceOnUse">
<stop stop-color="#44414B"/>
<stop offset="0.375" stop-color="#504C5B"/>
<stop offset="1" stop-color="#B1AFBC"/>
</linearGradient>
<linearGradient id="paint15_linear_13819_154243" x1="144.778" y1="19.6785" x2="154.236" y2="81.8208" gradientUnits="userSpaceOnUse">
<stop stop-color="#D7B7FF"/>
<stop offset="1" stop-color="#6D4AFF"/>
</linearGradient>
<linearGradient id="paint16_linear_13819_154243" x1="144.778" y1="19.6785" x2="154.236" y2="81.8208" gradientUnits="userSpaceOnUse">
<stop stop-color="#D7B7FF"/>
<stop offset="1" stop-color="#6D4AFF"/>
</linearGradient>
<linearGradient id="paint17_linear_13819_154243" x1="166.625" y1="73.015" x2="166.625" y2="70.0117" gradientUnits="userSpaceOnUse">
<stop/>
<stop offset="1" stop-opacity="0"/>
</linearGradient>
<linearGradient id="paint18_linear_13819_154243" x1="167.977" y1="46.1473" x2="167.977" y2="56.9208" gradientUnits="userSpaceOnUse">
<stop offset="0.00216152" stop-color="white" stop-opacity="0"/>
<stop offset="0.352679" stop-color="white"/>
<stop offset="1" stop-color="white" stop-opacity="0"/>
</linearGradient>
<clipPath id="clip0_13819_154243">
<rect width="152.043" height="95.0271" fill="white" transform="translate(30.6294 55.5166)"/>
</clipPath>
<clipPath id="clip1_13819_154243">
<rect width="152.043" height="95.0271" fill="white" transform="translate(138.327 55.5166)"/>
</clipPath>
<clipPath id="clip2_13819_154243">
<rect width="210.233" height="172.128" fill="white" transform="translate(60.7568 14.4541)"/>
</clipPath>
</defs>
</svg>
