<svg xmlns="http://www.w3.org/2000/svg" viewBox="0 0 260 260"><path d="M135.272 96.538c-18.17 0-32.954 14.784-32.954 32.954 0 18.172 14.783 32.955 32.954 32.955 18.172 0 32.955-14.784 32.955-32.955 0-18.17-14.783-32.954-32.955-32.954zm0 53.44c-11.296 0-20.485-9.19-20.485-20.486 0-11.295 9.19-20.484 20.485-20.484s20.485 9.19 20.485 20.484c0 11.295-9.189 20.485-20.485 20.485z"/><path d="M255.149 79.486c2.427-17.835-.359-33.005-8.058-44.21a22.023 22.023 0 0 0 1.968-9.112C249.059 13.943 239.115 4 226.894 4c-8.259 0-15.473 4.544-19.285 11.26-20.881-1.043-46.447 6.629-72.909 21.917C89.519 11.065 48.613 7.929 27.393 29.156c-9.223 9.223-14 22.419-13.978 38.361C5.534 70.917 0 78.763 0 87.878c0 12.222 9.943 22.165 22.165 22.165.128 0 .255-.007.383-.01 3.409 8.67 7.72 17.528 12.865 26.43C9.3 181.645 6.165 222.552 27.392 243.772c9.364 9.367 22.558 13.99 38.263 13.99 19.887 0 43.8-7.421 69.044-22.01 25.246 14.59 49.157 22.01 69.046 22.01 15.705 0 28.903-4.623 38.268-13.989 21.225-21.225 18.084-62.134-8.035-107.312 11.488-19.887 18.796-39.52 21.171-56.974zm-28.255-63.017c5.346 0 9.695 4.35 9.695 9.695 0 5.346-4.35 9.695-9.695 9.695-5.346 0-9.695-4.35-9.695-9.695 0-5.345 4.349-9.695 9.695-9.695zm-22.11 11.167c.76 11.537 10.383 20.693 22.11 20.693a22.03 22.03 0 0 0 11.588-3.28c4.616 8.38 6.108 19.554 4.312 32.757-1.928 14.171-7.542 30.096-16.33 46.512-10.017-15.194-22.057-29.862-35.905-43.712-13.848-13.848-28.521-25.89-43.723-35.917 21.286-11.414 41.388-17.334 57.947-17.053zM22.163 97.573c-5.345 0-9.694-4.349-9.694-9.695 0-5.345 4.349-9.695 9.695-9.695 5.345 0 9.695 4.35 9.695 9.695 0 5.346-4.35 9.695-9.695 9.695zm12.324 8.718c5.93-3.982 9.841-10.749 9.841-18.413 0-10.951-7.987-20.068-18.44-21.845.252-11.881 3.771-21.51 10.321-28.06 15.943-15.947 49.207-13.143 86.344 6.723-15.199 10.025-29.867 22.065-43.712 35.91-13.847 13.847-25.888 28.517-35.913 43.716-3.257-6.083-6.075-12.11-8.441-18.031zm1.72 128.663c-15.947-15.943-13.143-49.207 6.723-86.343 10.024 15.198 22.065 29.866 35.91 43.712 13.846 13.845 28.514 25.885 43.713 35.91-37.138 19.865-70.401 22.669-86.346 6.72zm51.452-51.45c-14.855-14.853-27.526-30.663-37.711-47.04 10.184-16.377 22.856-32.186 37.71-47.041 14.855-14.855 30.665-27.527 47.041-37.711 16.377 10.185 32.187 22.856 47.042 37.71 14.859 14.86 27.529 30.669 37.704 47.042-10.175 16.371-22.845 32.181-37.705 47.04-14.854 14.855-30.664 27.527-47.04 37.711-16.377-10.184-32.187-22.856-47.041-37.71zm145.536 51.45c-15.948 15.947-49.214 13.144-86.35-6.721 15.198-10.025 29.866-22.065 43.712-35.911 13.85-13.85 25.888-28.517 35.906-43.71 19.87 37.134 22.678 70.398 6.732 86.342z"/></svg>

