<svg viewbox="0 0 148 23" xmlns="http://www.w3.org/2000/svg" width="148" height="23"><g stroke-miterlimit="10" fill="#fff" stroke="#fff" stroke-width="20"><path d="M823.495 470.975h-65.25v189.75h-71.25v-516.75h135c125.25 0 201.75 51 201.75 159.75 0 120.75-83.25 167.25-200.25 167.25zm6-271.5h-71.25v215.25h71.25c68.25 0 118.5-21.75 118.5-110.25 0-77.25-49.5-105-118.5-105zM1107.743 660.725v-395.25h60l8.25 75.75c22.5-55.5 57-84.75 103.5-84.75 12.75 0 27 1.5 39 4.5l-12.75 67.5c-12-3-20.25-4.5-34.5-4.5-49.5 0-81 50.25-94.5 105v231.75zM1520.988 247.475c112.5 0 175.499 81 175.499 206.25 0 122.25-64.499 207-176.249 207-112.5 0-176.25-81-176.25-206.25 0-122.25 64.5-207 177-207zm0 55.5c-66 0-102.75 48-102.75 151.5 0 102.75 36 150.75 102 150.75s102-48 102-151.5c0-102.75-36-150.75-101.25-150.75zM1999.487 633.725c-24 18-55.5 27-88.5 27-73.5 0-106.5-46.5-106.5-114.75v-237h-63v-52.5h63v-89.25l69-8.25v97.5h99.75l-8.25 52.5h-91.5v236.25c0 39.75 12.75 58.5 47.25 58.5 17.25 0 33-5.25 52.5-17.25zM2206.485 247.475c112.5 0 175.5 81 175.5 206.25 0 122.25-64.5 207-176.25 207-112.5 0-176.25-81-176.25-206.25 0-122.25 64.5-207 177-207zm0 55.5c-66 0-102.75 48-102.75 151.5 0 102.75 36 150.75 102 150.75s102-48 102-151.5c0-102.75-36-150.75-101.25-150.75zM2553.735 660.725h-69v-395.25h59.25l5.25 54c32.25-40.5 79.5-63 126-63 76.5 0 107.25 43.5 107.25 117v287.25h-69v-282.75c0-47.25-16.5-67.5-61.5-67.5-42.75 0-77.25 33-98.25 63.75zM3320.978 660.725l-22.5-264.75c-6-72.75-8.25-155.25-8.25-171.75h-3l-115.5 381.75h-68.25l-120-381.75h-3c0 17.25-1.5 105-6.75 171.75l-20.25 264.75h-67.5l42.75-516.75h96l113.25 377.25h3l109.5-377.25h96.75l42.75 516.75zM3762.72 562.475c0 31.5 9 42.75 29.25 50.25l-16.5 48c-35.25-4.5-60.75-20.25-72.75-55.5-27.75 37.5-69.75 55.5-117.75 55.5-79.5 0-128.25-48.75-128.25-122.25 0-81.75 66-127.5 186-127.5h51v-30.75c0-55.5-27.75-76.5-85.5-76.5-26.25 0-63 6-103.5 20.25l-18-51c48.75-18 93-25.5 132-25.5 100.5 0 144 48.75 144 129zm-69-8.25v-97.5h-47.25c-84.75 0-114 30.75-114 78.75 0 48.75 21.75 73.5 71.25 73.5 37.5 0 67.5-20.25 90-54.75zM3923.212 175.475c-28.5 0-48-20.25-48-47.25 0-26.25 19.5-46.5 48-46.5s48.75 20.25 48.75 46.5c0 27-20.25 47.25-48.75 47.25zm-34.5 485.25v-395.25h69v395.25zM4217.956 647.225c-17.25 8.25-36 13.5-56.25 13.5-47.25 0-81-27-81-94.5V97.475l69-8.25v483c0 22.5 7.5 31.5 24.75 31.5 9.75 0 18-1.5 25.5-4.5z" transform="matrix(.03462 0 0 .03402 0 .149)"/></g><g fill="#fff"><path d="M8.263.15S1.413-.072 0 7.396v5.086s.058.545 1.616 1.65c1.558 1.106 5.59 4.219 6.647 4.219 1.056 0 5.089-3.113 6.646-4.219 1.558-1.105 1.617-1.65 1.617-1.65V7.396C15.113-.072 8.263.15 8.263.15zm4.69 10.019h-9.38V7.396c.951-3.708 4.69-3.76 4.69-3.76s3.738.052 4.69 3.76z"/><path d="M8.263 19.496s-1.062-.102-1.893-.669C5.54 18.26 0 14.37 0 14.37v7.7s.047.896 1.05.896h14.425c1.004 0 1.05-.895 1.05-.895v-7.7s-5.539 3.89-6.37 4.456c-.83.567-1.892.67-1.892.67z"/></g></svg>