<?xml version="1.0" encoding="UTF-8" standalone="no"?>
<svg version="1.1" xmlns="http://www.w3.org/2000/svg" xmlns:xlink="http://www.w3.org/1999/xlink" x="0px" y="0px" width="4232.688px" height="670.725px" viewBox="0 0 4232.688 670.725">
	<g fill="#336" stroke="#336" stroke-width="20" stroke-miterlimit="10">
		<path d="M823.495,470.975h-65.25v189.75h-71.25v-516.75h135 c125.25,0,201.75,51,201.75,159.75C1023.745,424.475,940.495,470.975,823.495,470.975z M829.495,199.475h-71.25v215.25h71.25 c68.25,0,118.5-21.75,118.5-110.25C947.995,227.225,898.495,199.475,829.495,199.475z"/>
		<path d="M1107.743,660.725v-395.25h60l8.25,75.75 c22.5-55.5,57-84.75,103.5-84.75c12.75,0,27,1.5,39,4.5l-12.75,67.5c-12-3-20.25-4.5-34.5-4.5c-49.5,0-81,50.25-94.5,105v231.75 H1107.743z"/>
		<path d="M1520.988,247.475c112.5,0,175.499,81,175.499,206.25 c0,122.25-64.499,207-176.249,207c-112.5,0-176.25-81-176.25-206.25C1343.988,332.225,1408.488,247.475,1520.988,247.475z M1520.988,302.975c-66,0-102.75,48-102.75,151.5c0,102.75,36,150.75,102,150.75s102-48,102-151.5 C1622.238,350.975,1586.238,302.975,1520.988,302.975z"/>
		<path d="M1999.487,633.725c-24,18-55.5,27-88.5,27 c-73.5,0-106.5-46.5-106.5-114.75v-237h-63v-52.5h63v-89.25l69-8.25v97.5h99.75l-8.25,52.5h-91.5v236.25 c0,39.75,12.75,58.5,47.25,58.5c17.25,0,33-5.25,52.5-17.25L1999.487,633.725z"/>
		<path d="M2206.485,247.475c112.5,0,175.5,81,175.5,206.25 c0,122.25-64.5,207-176.25,207c-112.5,0-176.25-81-176.25-206.25C2029.485,332.225,2093.985,247.475,2206.485,247.475z M2206.485,302.975c-66,0-102.75,48-102.75,151.5c0,102.75,36,150.75,102,150.75s102-48,102-151.5 C2307.735,350.975,2271.735,302.975,2206.485,302.975z"/>
		<path d="M2553.735,660.725h-69v-395.25h59.25l5.25,54 c32.25-40.5,79.5-63,126-63c76.5,0,107.25,43.5,107.25,117v287.25h-69v-282.75c0-47.25-16.5-67.5-61.5-67.5 c-42.75,0-77.25,33-98.25,63.75V660.725z"/>
		<path d="M3320.978,660.725l-22.5-264.75 c-6-72.75-8.25-155.25-8.25-171.75h-3l-115.5,381.75h-68.25l-120-381.75h-3c0,17.25-1.5,105-6.75,171.75l-20.25,264.75h-67.5 l42.75-516.75h96l113.25,377.25h3l109.5-377.25h96.75l42.75,516.75H3320.978z"/>
		<path d="M3762.72,562.475c0,31.5,9,42.75,29.25,50.25l-16.5,48 c-35.25-4.5-60.75-20.25-72.75-55.5c-27.75,37.5-69.75,55.5-117.75,55.5c-79.5,0-128.25-48.75-128.25-122.25 c0-81.75,66-127.5,186-127.5h51v-30.75c0-55.5-27.75-76.5-85.5-76.5c-26.25,0-63,6-103.5,20.25l-18-51c48.75-18,93-25.5,132-25.5 c100.5,0,144,48.75,144,129V562.475z M3693.72,554.225v-97.5h-47.25c-84.75,0-114,30.75-114,78.75c0,48.75,21.75,73.5,71.25,73.5 C3641.22,608.975,3671.22,588.725,3693.72,554.225z"/>
		<path d="M3923.212,175.475c-28.5,0-48-20.25-48-47.25 c0-26.25,19.5-46.5,48-46.5s48.75,20.25,48.75,46.5C3971.962,155.225,3951.712,175.475,3923.212,175.475z M3888.712,660.725 v-395.25h69v395.25H3888.712z"/>
		<path d="M4217.956,647.225c-17.25,8.25-36,13.5-56.25,13.5 c-47.25,0-81-27-81-94.5V97.475l69-8.25v483c0,22.5,7.5,31.5,24.75,31.5c9.75,0,18-1.5,25.5-4.5L4217.956,647.225z"/>
	</g>
	<g fill="#336">
		<path d="M238.688,0.021c0,0-197.877-6.5-238.688,213v149.5c0,0,1.688,16,46.688,48.5s161.5,124,192,124s147-91.5,192-124 s46.688-48.5,46.688-48.5v-149.5C436.565-6.479,238.688,0.021,238.688,0.021z M374.188,294.521h-135.5h-135.5v-81.5 c27.5-109,135.5-110.5,135.5-110.5s108,1.5,135.5,110.5V294.521z"/>
		<path d="M238.688,568.688c0,0-30.667-3.001-54.667-19.667S0,418.021,0,418.021v226.334c0,0,1.355,26.333,30.355,26.333 s208.333,0,208.333,0s179.333,0,208.333,0s30.355-26.333,30.355-26.333V418.021c0,0-160.022,114.334-184.022,131 S238.688,568.688,238.688,568.688z"/>
	</g>
</svg>
