<svg width="24" height="24" viewBox="0 0 24 24" fill="none" xmlns="http://www.w3.org/2000/svg">
    <rect width="24" height="24" fill="white" />
    <path
        fill-rule="evenodd"
        clip-rule="evenodd"
        d="M10.7218 17.0534C11.2159 17.9218 12.4846 17.9689 13.0456 17.1395L18.2759 9.40635C18.8306 8.58627 18.2999 7.48678 17.2955 7.37504L7.01509 6.23131C5.91905 6.10937 5.13866 7.2394 5.67176 8.17648L5.71357 8.24959L10.3007 11.323L10.245 16.2122L10.7218 17.0534Z"
        fill="url(#paint0_linear_13875_14097)"
    />
    <path
        d="M11.0163 16.2431L11.4805 15.5662L15.0064 10.3585C15.3147 9.90319 15.0205 9.29239 14.4627 9.22978L5.71234 8.2475L10.2453 16.2155C10.4107 16.5007 10.829 16.5163 11.0163 16.2431Z"
        fill="url(#paint1_radial_13875_14097)"
    />
    <defs>
        <linearGradient
            id="paint0_linear_13875_14097"
            x1="17.2557"
            y1="17.0528"
            x2="9.16912"
            y2="2.79028"
            gradientUnits="userSpaceOnUse"
        >
            <stop offset="0.0660125" stop-color="#8EFFEE" />
            <stop offset="0.4499" stop-color="#C9C7FF" />
            <stop offset="1" stop-color="#7341FF" />
        </linearGradient>
        <radialGradient
            id="paint1_radial_13875_14097"
            cx="0"
            cy="0"
            r="1"
            gradientUnits="userSpaceOnUse"
            gradientTransform="translate(11.0284 4.59982) rotate(93.8404) scale(12.9791 17.1151)"
        >
            <stop offset="0.403126" stop-color="#6D4AFF" />
            <stop offset="0.9944" stop-color="#00F0C3" />
        </radialGradient>
    </defs>
</svg>
