<svg width="80" height="80" viewBox="0 0 80 80" fill="none" xmlns="http://www.w3.org/2000/svg">
    <path
        d="M40 80C62.0914 80 80 62.0914 80 40C80 17.9086 62.0914 0 40 0C17.9086 0 0 17.9086 0 40C0 62.0914 17.9086 80 40 80Z"
        fill="#302D45"
    />
    <path
        d="M51.3503 33.5229H28.9845C27.1653 33.5229 25.6904 34.9978 25.6904 36.8171V64.8899C25.6904 66.7092 27.1653 68.184 28.9845 68.184H51.3503C53.1696 68.184 54.6444 66.7092 54.6444 64.8899V36.8171C54.6444 34.9978 53.1696 33.5229 51.3503 33.5229Z"
        fill="white"
    />
    <path
        d="M37.736 56.9414H32.4108C32.1839 56.9414 32 57.1253 32 57.3522C32 57.5791 32.1839 57.763 32.4108 57.763H37.736C37.9628 57.763 38.1468 57.5791 38.1468 57.3522C38.1468 57.1253 37.9628 56.9414 37.736 56.9414Z"
        fill="#D1CFCD"
    />
    <path
        d="M47.4426 56.9414H39.7135C39.4867 56.9414 39.3027 57.1253 39.3027 57.3522C39.3027 57.5791 39.4867 57.763 39.7135 57.763H47.4426C47.6695 57.763 47.8534 57.5791 47.8534 57.3522C47.8534 57.1253 47.6695 56.9414 47.4426 56.9414Z"
        fill="#D1CFCD"
    />
    <path
        d="M43.1071 60.2578H36.6462C36.4193 60.2578 36.2354 60.4417 36.2354 60.6686C36.2354 60.8955 36.4193 61.0794 36.6462 61.0794H43.1071C43.3339 61.0794 43.5179 60.8955 43.5179 60.6686C43.5179 60.4417 43.3339 60.2578 43.1071 60.2578Z"
        fill="#D1CFCD"
    />
    <path
        d="M40.251 54.0254C44.1331 54.0254 47.2803 50.8783 47.2803 46.9961C47.2803 43.1139 44.1331 39.9668 40.251 39.9668C36.3688 39.9668 33.2217 43.1139 33.2217 46.9961C33.2217 50.8783 36.3688 54.0254 40.251 54.0254Z"
        fill="#F5F4F2"
    />
    <path
        d="M40.2511 48.3679C41.73 48.3679 42.9289 47.169 42.9289 45.69C42.9289 44.2111 41.73 43.0122 40.2511 43.0122C38.7721 43.0122 37.5732 44.2111 37.5732 45.69C37.5732 47.169 38.7721 48.3679 40.2511 48.3679Z"
        fill="#D1CFCD"
    />
    <path
        d="M40.2514 54.0253C42.2263 54.0253 44.0003 53.222 45.2723 51.9165C44.1008 50.427 42.2932 49.4897 40.2514 49.4897C38.2095 49.4897 36.402 50.4437 35.2305 51.9165C36.5024 53.2052 38.2765 54.0253 40.2514 54.0253Z"
        fill="#D1CFCD"
    />
    <path
        d="M43.3023 36.7058H37.1686C36.9153 36.7058 36.7061 36.4929 36.7061 36.2352C36.7061 35.9775 36.9153 35.7646 37.1686 35.7646H43.3023C43.5556 35.7646 43.7649 35.9775 43.7649 36.2352C43.7649 36.4929 43.5556 36.7058 43.3023 36.7058Z"
        fill="#6D4AFF"
    />
    <path
        fill-rule="evenodd"
        clip-rule="evenodd"
        d="M45.6055 0.389648L36.7061 33.5564H44.5722L52.9814 2.15359C50.6151 1.34211 48.1487 0.746311 45.6055 0.389648Z"
        fill="#372580"
    />
    <path
        fill-rule="evenodd"
        clip-rule="evenodd"
        d="M27.4805 1.99846L35.9314 33.5568H43.7975L34.8805 0.324707C32.331 0.650414 29.8565 1.21612 27.4805 1.99846Z"
        fill="url(#paint0_linear_8098_98264)"
    />
    <path
        d="M63.3683 30.2673C64.5791 30.2673 65.5607 29.2857 65.5607 28.0748C65.5607 26.8639 64.5791 25.8823 63.3683 25.8823C62.1574 25.8823 61.1758 26.8639 61.1758 28.0748C61.1758 29.2857 62.1574 30.2673 63.3683 30.2673Z"
        fill="#372580"
    />
    <path
        d="M20.7238 41.1852L17.7782 40.0973L16.4226 39.5952L15.9205 38.2396L14.8326 35.2939L13.7448 38.2396L13.2427 39.5952L11.887 40.0973L8.94141 41.1852L11.887 42.273L13.2427 42.7751L13.7448 44.1308L14.8326 47.0764L15.9205 44.1308L16.4226 42.7751L17.7782 42.273L20.7238 41.1852Z"
        fill="white"
    />
    <defs>
        <linearGradient
            id="paint0_linear_8098_98264"
            x1="29.412"
            y1="-3.99974"
            x2="39.0591"
            y2="38.1179"
            gradientUnits="userSpaceOnUse"
        >
            <stop stop-color="#D7B7FF" />
            <stop offset="1" stop-color="#6D4AFF" />
        </linearGradient>
    </defs>
</svg>
