<svg width="28" height="28" viewBox="0 0 28 28" fill="none" xmlns="http://www.w3.org/2000/svg">
    <g clip-path="url(#clip0_9992_62293)">
        <g opacity="0.8" filter="url(#filter0_f_9992_62293)">
            <ellipse cx="14.0344" cy="29.5584" rx="10.4778" ry="1.25375" fill="#7A7F99" fill-opacity="0.2" />
        </g>
        <path
            d="M19.1 8.08824C19.1 5.05067 16.8167 2.58824 14 2.58824C11.1833 2.58824 8.9 5.05067 8.9 8.08824V11H6.5V8.08824C6.5 3.62123 9.85786 0 14 0C18.1421 0 21.5 3.62123 21.5 8.08824V11H19.1V8.08824Z"
            fill="url(#paint0_linear_9992_62293)"
        />
        <path
            d="M2.75 12.167C2.75 9.95786 4.54086 8.16699 6.75 8.16699H21.25C23.4591 8.16699 25.25 9.95785 25.25 12.167V24.0003C25.25 26.2095 23.4591 28.0003 21.25 28.0003H6.75C4.54086 28.0003 2.75 26.2095 2.75 24.0003V12.167Z"
            fill="url(#paint1_radial_9992_62293)"
        />
        <path
            d="M13.802 15.0859C14.7918 15.0859 15.5943 15.9181 15.5943 16.9446C15.5943 17.7208 15.1352 18.3853 14.4834 18.6634L14.8691 20.8609C14.9356 21.2411 14.6537 21.5911 14.281 21.5911H13.323C12.9503 21.5911 12.6684 21.2411 12.7349 20.8609L13.12 18.6634C12.4685 18.3851 12.0098 17.7206 12.0098 16.9446C12.0098 15.9181 12.8122 15.0859 13.802 15.0859Z"
            fill="#7A7F99"
        />
        <path
            d="M15.596 16.944C15.596 15.9175 14.7935 15.0854 13.8037 15.0854C12.8139 15.0854 12.0115 15.9175 12.0115 16.944C12.0115 17.72 12.4702 18.3846 13.1217 18.6628L12.7367 20.8603C12.6701 21.2405 12.9521 21.5905 13.3247 21.5905H14.2827C14.6554 21.5905 14.9374 21.2405 14.8708 20.8603L14.4851 18.6628C15.1369 18.3847 15.596 17.7202 15.596 16.944ZM16.1934 16.944C16.1934 17.7958 15.7784 18.5446 15.1491 18.9902L15.4583 20.7496H15.4589C15.5921 21.5104 15.0277 22.2101 14.2827 22.2101H13.3247C12.5797 22.2101 12.0154 21.5104 12.1486 20.7496L12.4566 18.9896C11.8281 18.5438 11.4141 17.795 11.4141 16.944C11.4141 15.5753 12.4839 14.4658 13.8037 14.4658C15.1235 14.4658 16.1934 15.5753 16.1934 16.944Z"
            fill="url(#paint2_linear_9992_62293)"
        />
        <g filter="url(#filter1_d_9992_62293)">
            <path
                d="M21.3004 3.59597C21.7007 3.07343 22.4879 3.07343 22.8881 3.59597L23.7704 4.74774C23.96 4.99534 24.2543 5.14027 24.5662 5.13965L26.001 5.13681C26.6414 5.13554 27.118 5.7283 26.9792 6.35356L26.6382 7.88941C26.5739 8.17909 26.6415 8.48237 26.8228 8.71725L27.7787 9.95539C28.164 10.4545 27.9969 11.1814 27.4322 11.462L26.0865 12.1308C25.8149 12.2658 25.6192 12.5168 25.5545 12.8131L25.2299 14.3011C25.0908 14.9389 24.3878 15.2745 23.8044 14.9817L22.5428 14.3486C22.2606 14.2069 21.928 14.2069 21.6457 14.3486L20.3842 14.9817C19.8007 15.2745 19.0978 14.9389 18.9586 14.3011L18.634 12.8131C18.5694 12.5168 18.3737 12.2658 18.102 12.1308L16.7564 11.462C16.1917 11.1814 16.0245 10.4545 16.4098 9.95539L17.3657 8.71725C17.547 8.48237 17.6147 8.17909 17.5504 7.88941L17.2094 6.35356C17.0705 5.7283 17.5471 5.13554 18.1876 5.13681L19.6223 5.13965C19.9342 5.14027 20.2285 4.99534 20.4182 4.74774L21.3004 3.59597Z"
                fill="url(#paint3_linear_9992_62293)"
            />
        </g>
        <path
            d="M24.2097 7.24031C24.3656 7.07878 24.6182 7.07872 24.774 7.24031C24.9298 7.4019 24.9298 7.66391 24.774 7.8255L21.4766 11.2445C21.3208 11.4062 21.0681 11.4062 20.9123 11.2445L19.4137 9.69048C19.2579 9.52887 19.2579 9.26689 19.4137 9.10529C19.5696 8.94372 19.8222 8.94372 19.978 9.10529L21.1944 10.3667L24.2097 7.24031Z"
            fill="white"
        />
    </g>
    <defs>
        <filter
            id="filter0_f_9992_62293"
            x="-2.44336"
            y="22.3047"
            width="32.9556"
            height="14.5078"
            filterUnits="userSpaceOnUse"
            color-interpolation-filters="sRGB"
        >
            <feFlood flood-opacity="0" result="BackgroundImageFix" />
            <feBlend mode="normal" in="SourceGraphic" in2="BackgroundImageFix" result="shape" />
            <feGaussianBlur stdDeviation="3" result="effect1_foregroundBlur_9992_62293" />
        </filter>
        <filter
            id="filter1_d_9992_62293"
            x="13.2012"
            y="2.2041"
            width="15.7862"
            height="15.8848"
            filterUnits="userSpaceOnUse"
            color-interpolation-filters="sRGB"
        >
            <feFlood flood-opacity="0" result="BackgroundImageFix" />
            <feColorMatrix
                in="SourceAlpha"
                type="matrix"
                values="0 0 0 0 0 0 0 0 0 0 0 0 0 0 0 0 0 0 127 0"
                result="hardAlpha"
            />
            <feOffset dx="-1" dy="1" />
            <feGaussianBlur stdDeviation="1" />
            <feComposite in2="hardAlpha" operator="out" />
            <feColorMatrix type="matrix" values="0 0 0 0 0.125754 0 0 0 0 0.524105 0 0 0 0 0.457206 0 0 0 0.15 0" />
            <feBlend mode="normal" in2="BackgroundImageFix" result="effect1_dropShadow_9992_62293" />
            <feBlend mode="normal" in="SourceGraphic" in2="effect1_dropShadow_9992_62293" result="shape" />
        </filter>
        <linearGradient
            id="paint0_linear_9992_62293"
            x1="22.25"
            y1="-2.10294"
            x2="8.73743"
            y2="9.97941"
            gradientUnits="userSpaceOnUse"
        >
            <stop stop-color="#D3D6E5" />
            <stop offset="1" stop-color="#B8BBCC" />
        </linearGradient>
        <radialGradient
            id="paint1_radial_9992_62293"
            cx="0"
            cy="0"
            r="1"
            gradientTransform="matrix(-22.5 19.8333 -22.5 -22.1648 25.25 8.16699)"
            gradientUnits="userSpaceOnUse"
        >
            <stop stop-color="#EDEFF7" />
            <stop offset="1" stop-color="#B8BBCC" />
        </radialGradient>
        <linearGradient
            id="paint2_linear_9992_62293"
            x1="15.596"
            y1="14.156"
            x2="10.3934"
            y2="18.5446"
            gradientUnits="userSpaceOnUse"
        >
            <stop stop-color="#7A7F99" />
            <stop offset="1" stop-color="#D3D6E5" />
        </linearGradient>
        <linearGradient
            id="paint3_linear_9992_62293"
            x1="27.4896"
            y1="2.24873"
            x2="11.7876"
            y2="22.8407"
            gradientUnits="userSpaceOnUse"
        >
            <stop stop-color="#A9F7C3" />
            <stop offset="1" stop-color="#319887" />
        </linearGradient>
        <clipPath id="clip0_9992_62293">
            <rect width="28" height="28" fill="white" />
        </clipPath>
    </defs>
</svg>
