<svg width="384" height="216" viewBox="0 0 384 216" fill="none" xmlns="http://www.w3.org/2000/svg">
    <path d="M192 199H137.943C135.774 199 134 197.212 134 195.026V135H192V199Z" fill="url(#paint0_linear_5741_18656)" />
    <path d="M133.82 135H192L176.18 119H118L133.82 135Z" fill="#FFE3BA" />
    <path d="M192 199H246.989C249.195 199 251 197.212 251 195.026V135H192V199Z" fill="url(#paint1_linear_5741_18656)" />
    <path d="M250.18 135H192L207.82 119H266L250.18 135Z" fill="#FFD390" />
    <path d="M169 184H152V199H169V184Z" fill="#FFE3BA" />
    <path d="M247 144H230V146H247V144Z" fill="#FFD390" />
    <path d="M247 149H230V151H247V149Z" fill="#FFD390" />
    <path
        d="M109.909 63.7392L108.833 62.9135C108.176 62.409 107.235 62.5326 106.73 63.1896L99.9136 72.0667C99.4091 72.7237 99.5327 73.6654 100.19 74.1699L101.265 74.9956C101.922 75.5001 102.864 75.3765 103.368 74.7194L110.185 65.8424C110.689 65.1853 110.566 64.2437 109.909 63.7392Z"
        fill="#55E6B2"
    />
    <path
        d="M253.784 66.055L252.524 65.5541C251.754 65.2481 250.882 65.6241 250.576 66.394L247.554 73.9957C247.248 74.7655 247.624 75.6377 248.394 75.9437L249.654 76.4446C250.424 76.7506 251.296 76.3746 251.602 75.6047L254.624 68.003C254.93 67.2332 254.554 66.361 253.784 66.055Z"
        fill="#FFD585"
    />
    <path
        d="M136.144 86.9909L135.126 87.8868C134.504 88.4342 134.444 89.382 134.991 90.0038L142.387 98.4048C142.934 99.0266 143.882 99.0869 144.504 98.5395L145.522 97.6436C146.144 97.0962 146.204 96.1484 145.656 95.5266L138.261 87.1255C137.713 86.5038 136.765 86.4435 136.144 86.9909Z"
        fill="#6847F2"
    />
    <path
        d="M309.873 88.5217L309.236 87.3245C308.847 86.593 307.939 86.3152 307.208 86.704L297.324 91.9575C296.593 92.3463 296.315 93.2545 296.704 93.986L297.34 95.1833C297.729 95.9148 298.637 96.1925 299.369 95.8037L309.252 90.5503C309.984 90.1614 310.261 89.2532 309.873 88.5217Z"
        fill="#C867F6"
    />
    <path
        d="M96.0491 122.098C97.7331 122.098 99.0982 120.733 99.0982 119.049C99.0982 117.365 97.7331 116 96.0491 116C94.3651 116 93 117.365 93 119.049C93 120.733 94.3651 122.098 96.0491 122.098Z"
        fill="#FF69B8"
    />
    <path
        d="M124.86 24.7395C124.59 24.2813 124.099 24 123.567 24H121.007C120.471 24 119.977 24.2854 119.708 24.7489L118.432 26.9551C118.165 27.4178 118.163 27.9879 118.429 28.4517L119.709 30.6868C119.977 31.1534 120.473 31.4413 121.011 31.4413H123.563C124.097 31.4413 124.59 31.1576 124.859 30.6963L126.161 28.4612C126.434 27.9926 126.433 27.4131 126.158 26.9457L124.86 24.7395Z"
        fill="#FFA8A8"
    />
    <path
        d="M308.858 36.749C308.59 36.2854 308.095 36 307.56 36H305.007C304.471 36 303.977 36.2854 303.708 36.7489L302.432 38.9551C302.165 39.4178 302.163 39.9879 302.429 40.4517L303.709 42.6868C303.977 43.1534 304.473 43.4413 305.011 43.4413H307.555C308.093 43.4413 308.59 43.1534 308.857 42.6868L310.137 40.4517C310.403 39.9879 310.402 39.4178 310.134 38.9551L308.858 36.749Z"
        fill="#321E86"
    />
    <path
        d="M67.353 75.7647C66.6599 74.8386 65.2236 75.0125 64.7715 76.0773L62.9471 80.3739C62.4962 81.436 63.3631 82.5883 64.5085 82.4493L69.1291 81.8884C70.2742 81.7495 70.8404 80.424 70.1493 79.5005L67.353 75.7647Z"
        fill="#321E86"
    />
    <path
        d="M283.113 132.558C282.943 131.419 281.606 130.888 280.701 131.602L277.047 134.484C276.139 135.2 276.349 136.631 277.424 137.056L281.765 138.772C282.839 139.197 283.97 138.298 283.8 137.156L283.113 132.558Z"
        fill="#FF69B8"
    />
    <path
        d="M175.299 77.3071V92.9071H186.249V77.9835C186.249 76.5315 186.826 75.1388 187.852 74.1121C188.879 73.0853 190.272 72.5085 191.724 72.5085H202.951C205.545 72.5085 208.114 71.9976 210.51 71.0049C212.907 70.0121 215.085 68.5571 216.919 66.7228C218.753 64.8885 220.208 62.7109 221.2 60.3143C222.193 57.9177 222.704 55.349 222.703 52.755C222.704 50.1609 222.193 47.5921 221.201 45.1953C220.208 42.7986 218.753 40.6208 216.919 38.7864C215.085 36.9519 212.907 35.4967 210.511 34.5039C208.114 33.5111 205.545 33 202.951 33H175.299V52.5H186.249V43.305H202.21C204.689 43.305 207.066 44.2895 208.819 46.042C210.572 47.7945 211.556 50.1714 211.557 52.65C211.557 55.1288 210.572 57.5062 208.819 59.259C207.067 61.0118 204.689 61.9965 202.21 61.9965H190.605C188.594 61.9957 186.603 62.3913 184.746 63.1605C182.888 63.9297 181.2 65.0574 179.779 66.4794C178.357 67.9013 177.23 69.5895 176.461 71.4474C175.692 73.3053 175.297 75.2964 175.299 77.3071Z"
        fill="url(#paint2_radial_5741_18656)"
    />
    <path
        d="M191.721 72.5068C189.564 72.5066 187.429 72.9313 185.436 73.7565C183.444 74.5817 181.633 75.7913 180.108 77.3163C178.583 78.8412 177.374 80.6516 176.548 82.6441C175.723 84.6366 175.299 86.7722 175.299 88.9288V92.9053H186.249V77.9818C186.249 76.5303 186.825 75.1381 187.851 74.1114C188.877 73.0848 190.269 72.5076 191.721 72.5068Z"
        fill="url(#paint3_linear_5741_18656)"
    />
    <defs>
        <linearGradient
            id="paint0_linear_5741_18656"
            x1="172.333"
            y1="135.507"
            x2="147.012"
            y2="198.865"
            gradientUnits="userSpaceOnUse"
        >
            <stop stop-color="#FFD391" />
            <stop offset="1" stop-color="#FFA26D" />
        </linearGradient>
        <linearGradient
            id="paint1_linear_5741_18656"
            x1="251.551"
            y1="199"
            x2="192.479"
            y2="134.958"
            gradientUnits="userSpaceOnUse"
        >
            <stop stop-color="#FF7E62" />
            <stop offset="1" stop-color="#FFA26D" />
        </linearGradient>
        <radialGradient
            id="paint2_radial_5741_18656"
            cx="0"
            cy="0"
            r="1"
            gradientUnits="userSpaceOnUse"
            gradientTransform="translate(222.871 24.6825) scale(60.2955 60.2956)"
        >
            <stop stop-color="#A995FF" />
            <stop offset="1" stop-color="#6652F5" />
        </radialGradient>
        <linearGradient
            id="paint3_linear_5741_18656"
            x1="183.51"
            y1="89.9548"
            x2="183.51"
            y2="67.0318"
            gradientUnits="userSpaceOnUse"
        >
            <stop stop-color="#6D4BFD" />
            <stop offset="1" stop-color="#1C0554" />
        </linearGradient>
    </defs>
</svg>
