<svg width="160" height="160" viewBox="0 0 160 160" fill="none" xmlns="http://www.w3.org/2000/svg">
    <mask
        id="mask0_42407_50617"
        style="mask-type: alpha"
        maskUnits="userSpaceOnUse"
        x="0"
        y="0"
        width="160"
        height="160"
    >
        <circle cx="80" cy="80" r="80" fill="#D9D9D9" />
    </mask>
    <g mask="url(#mask0_42407_50617)">
        <path d="M160 160V0L0 0V160H160Z" fill="url(#paint0_radial_42407_50617)" />
        <path d="M102.15 2.59589L87.5535 -1.31516L72.0002 56.7303L86.5964 60.6413L102.15 2.59589Z" fill="#4DB5FF" />
        <path
            d="M58 1.91104L72.5962 -2L88.4339 57.1072L73.8377 61.0182L58 1.91104Z"
            fill="url(#paint1_linear_42407_50617)"
        />
        <path
            d="M102.333 52.9998H57C52.5817 52.9998 49 56.5815 49 60.9998V130.333C49 134.751 52.5817 138.333 57 138.333H102.333C106.752 138.333 110.333 134.751 110.333 130.333V60.9998C110.333 56.5815 106.752 52.9998 102.333 52.9998Z"
            fill="url(#paint2_linear_42407_50617)"
        />
        <path
            d="M79.5 101C88.3366 101 95.5 93.8366 95.5 85C95.5 76.1634 88.3366 69 79.5 69C70.6634 69 63.5 76.1634 63.5 85C63.5 93.8366 70.6634 101 79.5 101Z"
            fill="url(#paint3_linear_42407_50617)"
        />
        <mask
            id="mask1_42407_50617"
            style="mask-type: alpha"
            maskUnits="userSpaceOnUse"
            x="63"
            y="69"
            width="33"
            height="32"
        >
            <path
                d="M79.5 101C88.3366 101 95.5 93.8366 95.5 85C95.5 76.1634 88.3366 69 79.5 69C70.6634 69 63.5 76.1634 63.5 85C63.5 93.8366 70.6634 101 79.5 101Z"
                fill="url(#paint4_linear_42407_50617)"
            />
        </mask>
        <g mask="url(#mask1_42407_50617)">
            <path
                d="M74.8878 85.2884C74.8878 82.7409 76.953 80.6758 79.5004 80.6758C82.0479 80.6758 84.1131 82.7409 84.1131 85.2884C84.1131 87.8359 82.0479 89.901 79.5004 89.901C76.953 89.901 74.8878 87.8359 74.8878 85.2884ZM69.1221 100.279C69.1221 94.5476 73.7686 89.901 79.5004 89.901C85.2323 89.901 89.8788 94.5476 89.8788 100.279C89.8788 106.011 85.2323 110.658 79.5004 110.658C73.7686 110.658 69.1221 106.011 69.1221 100.279Z"
                fill="white"
            />
        </g>
        <g filter="url(#filter0_i_42407_50617)">
            <path
                fill-rule="evenodd"
                clip-rule="evenodd"
                d="M95.8608 102.091C96.0478 102.28 96.0462 102.585 95.8572 102.772L77.7491 120.72C77.3724 121.093 76.7648 121.093 76.3881 120.72L69.2856 113.68C68.9069 113.305 68.9045 112.694 69.2803 112.316L70.6413 110.946C71.0171 110.567 71.6288 110.565 72.0075 110.94L76.4336 115.327C76.7919 115.682 77.3636 115.702 77.7456 115.372L94.2652 101.117C94.4577 100.951 94.7461 100.963 94.9248 101.144L95.8608 102.091Z"
                fill="url(#paint5_linear_42407_50617)"
            />
        </g>
    </g>
    <defs>
        <filter
            id="filter0_i_42407_50617"
            x="69"
            y="101"
            width="27"
            height="23"
            filterUnits="userSpaceOnUse"
            color-interpolation-filters="sRGB"
        >
            <feFlood flood-opacity="0" result="BackgroundImageFix" />
            <feBlend mode="normal" in="SourceGraphic" in2="BackgroundImageFix" result="shape" />
            <feColorMatrix
                in="SourceAlpha"
                type="matrix"
                values="0 0 0 0 0 0 0 0 0 0 0 0 0 0 0 0 0 0 127 0"
                result="hardAlpha"
            />
            <feOffset dy="3" />
            <feGaussianBlur stdDeviation="2" />
            <feComposite in2="hardAlpha" operator="arithmetic" k2="-1" k3="1" />
            <feColorMatrix type="matrix" values="0 0 0 0 1 0 0 0 0 1 0 0 0 0 1 0 0 0 0.25 0" />
            <feBlend mode="normal" in2="shape" result="effect1_innerShadow_42407_50617" />
        </filter>
        <radialGradient
            id="paint0_radial_42407_50617"
            cx="0"
            cy="0"
            r="1"
            gradientUnits="userSpaceOnUse"
            gradientTransform="translate(159.992 0.444449) rotate(90) scale(224.997)"
        >
            <stop stop-color="#83E0FF" />
            <stop offset="0.496979" stop-color="#66DFC5" />
            <stop offset="1" stop-color="#0D536D" />
        </radialGradient>
        <linearGradient
            id="paint1_linear_42407_50617"
            x1="47.8696"
            y1="-65.0884"
            x2="87.486"
            y2="48.1595"
            gradientUnits="userSpaceOnUse"
        >
            <stop stop-color="#FAF7FF" />
            <stop offset="1" stop-color="#8395FF" />
        </linearGradient>
        <linearGradient
            id="paint2_linear_42407_50617"
            x1="49"
            y1="138.333"
            x2="161.791"
            y2="56.4218"
            gradientUnits="userSpaceOnUse"
        >
            <stop stop-color="#FEFCFF" />
            <stop offset="1" stop-color="white" />
        </linearGradient>
        <linearGradient
            id="paint3_linear_42407_50617"
            x1="63.5"
            y1="101.5"
            x2="94"
            y2="71.5"
            gradientUnits="userSpaceOnUse"
        >
            <stop stop-color="#239294" />
            <stop offset="0.655226" stop-color="#4CB5FF" />
            <stop offset="1" stop-color="#A39BFF" />
        </linearGradient>
        <linearGradient
            id="paint4_linear_42407_50617"
            x1="63.5"
            y1="98.2259"
            x2="93.2286"
            y2="69"
            gradientUnits="userSpaceOnUse"
        >
            <stop offset="0.02" stop-color="#4A80FF" />
            <stop offset="1" stop-color="#AE83FF" />
        </linearGradient>
        <linearGradient
            id="paint5_linear_42407_50617"
            x1="83.8298"
            y1="99.3221"
            x2="83.9014"
            y2="121.395"
            gradientUnits="userSpaceOnUse"
        >
            <stop stop-color="#21F9B1" />
            <stop offset="1" stop-color="#00BBCC" />
        </linearGradient>
    </defs>
</svg>
