<svg xmlns="http://www.w3.org/2000/svg" height="512" width="512" viewBox="0 0 512 512"><defs><clipPath id="a"><path fill="#25ff01" d="M108.95 47.6h464.86v464.86h-464.86z"/></clipPath></defs><g clip-path="url(#a)" fill-rule="evenodd"><path fill="#fff" d="M-120-.019h762.993v511.304h-762.993z"/><path d="M-118.315.597h760.604v216.016h-760.604z"/><path fill="#0061ff" d="M21.247 203.137h504.831v113.788h-504.831z"/><path d="M642.476 1.731v510.06h-380.583l380.583-510.06zm-761.165 0v510.06h380.583l-380.583-510.06z" fill="#e20000"/><path d="M440.167 203.247l-76.283-19.356 64.897-48.958-79.699 11.384 40.988-69.451-70.591 40.99 12.525-80.839-47.819 63.759-19.356-74.006-21.632 76.283-47.82-64.897 13.663 83.114-70.591-43.265 40.988 69.451-77.422-12.524 63.759 47.82-79.698 20.494h354.093z" fill="#ffd600"/></g></svg>