<svg xmlns="http://www.w3.org/2000/svg" width="512" height="512" viewBox="0 0 512 512">
	<style type="text/css">
		.st1{fill:#000066;}
		.st2{fill:#BD1021;}
		.st3{fill:#FFFFFF;}
		.st4{fill:#9C3900;stroke:#000000;}
		.st5{fill:#FFC221;stroke:#000000;}
		.st6{fill:none;stroke:#000000;}
		.st7{fill:#FFFFFF;stroke:#000000;}
		.st8{fill:none;stroke:#000000;stroke-width:1.032;stroke-miterlimit:4.128;}
	</style>
	<path class="st1" d="M-512,0H511.9v511.9H-512V0z"/>
	<path class="st2" d="M-512,256l1023.9,256V0L-512,256z"/>
	<path class="st3" d="M511.9,27.4v457.1L-402.3,256L511.9,27.4L511.9,27.4z"/>
	<g>
		<path class="st4" d="M339.9,313.4c0,0-6.4-5.2,1.2-13.7c-4.1-3.5-0.3-10.2-0.3-10.2s-7-2.6,0.3-13.4c-5.2-3.5-2.9-11.3-2.9-11.3s-17.1-6.4-0.9-12.5c-13.4,5.8-25.9-7.8-25.9-7.8l-19.5,0.6c-3.3-16.2-29-2.1-9.9-48.5c-4.9-0.9-10.5-2.3-16,1.7c-5.5,4.1-21.2,12.8-30.5,4.1s6.1-21.2,6.4-21.5c0.3-0.3,20.6-10.8,23.5-17.7c-0.3-5.2-6.7-9.3-0.9-20.6c6.7-10.8,47.6-20.9,66.3-24.4c9-4.1,13.1-11.9,13.1-11.9l2,7.6c0,0,41.3-12.2,43.3-18l0.9,5.2c16.3-1.5,36.9-15.4,39.8-9c13.7-2.6,39.8-14.2,39.8-14.2s9-0.3,2.6,9.6c4.1,6.4-1.2,11.9-1.5,11.9c-0.3,0,1.7,6.4-3.5,9.9c1.7,5.5-3.2,9.9-3.2,9.9s2.3,6.7-7,10.2c0.9,5.8-5.2,7-5.2,7s0.9,6.1-3.2,8.7c0,4.6-4.6,7-4.6,7s2.9,1.7-1.2,4.6c-4.1,2.9-46.2,28.8-46.2,28.5c0-0.3,30.8,5.5,32.8,6.7l25.3,16.6l-23.5,29.1c0,0-26.1-2.9-27.3-1.5s5.5,2,7,4.4c1.5,2.3,3.8,7.8,8.4,7.3c4.6-0.6-8.7,8.4-17.4,9.3c0,3.2,11,3.5,13.9,0.9c2.9-2.6-7,7.6-8.1,9l13.1-2c0,0-2.3,9.6-14.8,12.5c4.9,8.1,2.9,13.4,2.6,13.4s-8.1-8.1-15.7-6.7c2,7.8,8.1,15.1,9.9,16.3c1.7,1.2-13.7,0.9-15.7-3.5s-3.8,10.5,1.7,15.1c-6.4,0.3-11.9-3.5-11.9-3.5s-3.8,8.7-1.2,13.1c2.6,4.4-9-8.7-9-8.7l-22.1,9.3L339.9,313.4L339.9,313.4z"/>
		<path class="st5" d="M169.2,296.1c0.5,0,32.1-0.5,46.6-8.8c7.2,11.4,17.1,19.1,17.1,19.1l4.7-16.6c0,0,11.4,0.5,12.4,3.1c-1.6,3.1-2.1,7.2-2.1,7.2s7.8,0.5,8.3,1.6c0.5,1-2.1,9.8-2.1,9.8l33.1,7.8c0,0,2.6-12.9,5.2-11.4c2.6,1.6,14,17.6,30,18.6l17.1-13.5l3.6,2.1c0,0,6.7-14.5,7.8-14.5s2.6,2.1,11.4,2.1c2.6,3.1,3.6,10.3,3.6,10.3s-9.8,9.8-6.7,17.6l3.6,5.7l71.4,17.1c0,0,3.6,5.7-2.6,8.8c0,0.5-71.9-16.6-71.9-16.6s-6.7,7.8-11.9,6.2l-1.6,3.1l77.6,6.2c0,0,5.7,7.2,1.6,9.3c-5.2,0.5-83.8-5.2-83.8-5.2s-4.7,9.8-9.8,1.6c-3.6,5.7-7.8-1.6-7.8-1.6s-6.7,5.2-7.8-0.5c-5.7,4.1-9.3-2.6-9.3-2.6l-33.1-2.1l-2.1,3.1c0,0,5.7,1.6-3.1,5.2c-8.8,3.6,52.8,2.1,54.3,2.6c1.6,0.5-4.1,5.2-4.1,5.2s31.6,2.1,37.3-4.7c5.7-6.7-2.1,8.8-2.1,8.8s24.8-1,24.8-2.1s-0.5,7.8-17.6,6.7c10.3,6.7,23.3,10.9,23.3,10.9s-12.9,3.1-27.9-0.5c2.6,6.7,14,12.9,14,12.9s-8.3,7.2-26.9-10.3c5.2,9.3,1,12.9,0.5,11.9c-0.5-1-9.3-14-30-18.6c12.9,8.3,7.2,11.9,7.2,11.9s-6.7-11.9-17.6,0c-4.1-10.9-20.2-17.1-39.8-18.1c-6.2-7.2-9.8-5.2-24.3-9.3c-8.3-9.3-20.2-19.7-20.2-19.7s0.5-14,14.5-12.4c1.6,4.7,1.6,3.1,1.6,3.1s15.5-5.7,20.2,2.1c6.7-11.9,16-1.8,17.6,2.4c4.5,0.7,26.9,1.3,26.9,1.3s-2.6-4.7-1-4.1c1.6,0.5,14-4.7,13.5-6.2c-0.5-1.6-1-6.7,1-6.2c2.1,0.5-17.6-2.6-28.5,5.7c-3.6-3.6-1-13.5-1-13.5l-32.1-6.7l-1.6,8.3c0,0-9.3,1.6-8.8-0.5c0.5-2.1-2.1,7.2-2.1,7.2s-12.4-3.1-12.4-3.6s3.6-18.6,3.6-18.1c0,0.5-10.3,1-24.8,11.9C201.8,313.7,169.2,296.6,169.2,296.1L169.2,296.1z"/>
		<path class="st6" d="M247.9,300.7l-6.7,30 M254.1,312.1l-2.1,9.8 M287.2,319.9l-3.1,9.3 M344.6,383c-0.5,0-16.6,2.1-18.6,1.6c-2.1-0.5,25.4,8.3,25.4,11.9 M315.7,386.6c0,0-16-10.3-18.6-9.3c-2.6,1,16-0.5,17.6-2.1 M282.6,374.7c0,0-16.6,0.5-18.1-1s16,11.4,19.1,10.4 M250.5,367.5c-0.5,0-11.4-4.1-16-5.2c4.1,4.1,7.2,9.8,17.6,11.9 M254.6,360.8c-0.5-1-20.7-7.2-20.7-10.3c4.7,1.6,11.4,3.6,17.6,2.1 M361.7,336.9l-2.1,9.3"/>
		<path class="st5" d="M209.6,253.6c0,0-21.7,18.6,0,29.5c1-7.2,2.6-8.3,2.6-8.3s18.1,6.7,29-9.3c-4.7-6.7-12.9-4.1-12.9-4.1S211.2,261.4,209.6,253.6L209.6,253.6z"/>
		<path class="st6" d="M227.7,261.9l-15,12.9 M273.9,351.8c0,0,3.5,3.8,0.4,8.5 M346.7,355.6l-5.7,0.5 M300.2,352.5l10.3,1.6 M328,325.9c0,0,0.3,10.5-8.4,10.2c-8.7-0.3-5.8,0.3-5.8,0.3 M334.7,324.1c0,0,3.5,1.2,2.6,3.8c-0.9,2.6,0.9,10.2-9.3,17.4c-10.8,2.3-9.6-9-9.6-9 M338.5,327.3c0,0,6.4-3.8,7.3,2.3c0.9,6.1-5.2,17.4-9.6,19.2c-4.4,1.7-9.3-0.3-8.7-3.2 M346.3,329.9c0,0,5.8-4.6,7.6,1.5c1.7,6.1-4.6,19.8-7.3,20 M354.4,331.4c0,0,2.9-1.5,4.9,0.3 M345.1,352.3c-1.2,0.3-6.1,0.6-7.8-3.2 M319,342.1c-0.3,0-6.1,0.3-6.1,0.3 M341.4,365.1l-0.6-9.6l-2.3-3.2l-4.1,4.1c0,0-0.6,9.6-2.3,10.5 M334.4,356.1c-0.3-0.6-3.2-6.1-3.2-6.1l-4.9,6.1c0,0-0.6,8.7-2.3,9.6 M326.2,355.8c0-0.3-2-5.8-2-5.8s-5.8,3.2-6.4,5.5c-0.6,2.3-0.9,8.7-2.3,9.3 M317.8,354.3c0,0,0.6-5.2-1.2-5.2s-9.6,7.3-9.9,13.7"/>
		<path class="st7" d="M210.3,253.8c0,0,2.9-2.9,3.8-6.4c0.9-3.5-1.2-7.3,2.3-10.5c3.5-3.2,49.4-22.7,53.2-26.4c3.8-3.8,10.8-11.9,11.6-13.7c0.9-1.7,3.5,8.7-4.4,13.4c8.4-2.3,13.9-4.9,17.4-3.8c-3.5,4.9-12.8,13.1-17.1,13.1c10.2-3.8,19.5-7,22.1-4.9c2.6,2-12.5,12.2-18.6,12.8c10.2-2.6,23.8-6.7,25.6-2.3c-5.5,1.7-3.8,3.2-15.1,9.6c-1.5,1.2-8.7,1.5-8.7,1.5c8.7-0.9,20.6-4.4,21.8,2c-7,2.6-9.6,6.1-15.4,7.6c-5.8,1.5-19.2,4.1-27.3,7.3c-8.1,3.2-20.1,12.5-20.1,12.5s-25.9,0.9-25.9,0.6C215.5,265.7,210.6,254.1,210.3,253.8L210.3,253.8z"/>
		<path class="st6" d="M222.5,251.8c0,0,0.3-5.8,2.9-7.8c2.6-2,15.7-7,18.6-11.3c2.9-4.4-4.4,7.6-3.2,10.8 M227.7,243c0,0,6.4,2.3,4.9,7.3"/>
		<path class="st8" d="M235.3,246.4c0.1,2.6-2,4.8-4.7,4.9c-2.6,0.1-4.8-2-4.9-4.7c0-0.1,0-0.1,0-0.2c0.1-2.6,2.3-4.7,4.9-4.7C233.2,241.8,235.2,243.8,235.3,246.4L235.3,246.4z"/>
		<path class="st7" d="M432,236.1l50.3,9.6c0,0,5.5-6.4,2.6-9.9c7.6-1.7,5.5-11.6,5.5-11.6s8.7-3.8,1.5-12.5c4.9-4.9-1.2-8.7-1.2-8.7s2-8.7-4.4-9.6c1.7-7-11-9.3-11-9.3s-26.4,7.3-45,7.8c6.1,6.1-2.3,9.9-2.3,9.9s4.9,3.5,3.5,6.4c-1.5,2.9,0.9,6.1-5.5,8.1c8.4,3.8-0.9,10.2-0.9,10.2S434.3,232.9,432,236.1L432,236.1z"/>
		<path class="st6" d="M427.1,225.3c0,0,44.5,5.2,46.5,5.2s9.9,2.6,11.3,5.2 M429.4,222.7l61.9,1.5 M429.7,221.3c0,0,58.7-3.5,62.8-9.6 M431.4,208.5c0,0,59-6.4,59.6-5.5 M429.4,201.2c0,0,57.2-9,57.8-7.6 M266.1,164.3c0,0,18,19.8,16.3,33.1 M281.2,187c0,0,5.8,8.4,8.1,9.3s22.7,2,23.8,10.7c1.2,5.5-4.4,3.8-3.5,7.8c1.5,5.2,15.1,11.9,29.9,4.1 M326,223c0,0,12.2,18,30.2-1.5 M346.9,229.4c0,0,14.8,7.8,27-12.5 M358.2,231.1c0,0,7.3,6.1,22.4-2 M401.5,221c0,0,22.4,4.6,23.8,6.1 M409.9,216c0.3,0,15.7,0.6,15.7,0.6 M400.3,207.3c0,0,26.7-1.7,30.2,3.8 M388.7,198.9c0,0,37.5,1.5,39.2,3.5 M397.1,237.2c0,0,6.4-1.7,7.3-0.9 M382.6,252.9c0,0,8.4,7.3,19.2,4.1 M387.3,265.1c0,0,9.6,4.4,20.9,1.7 M390.5,272.4c0,0,9.6,6.4,16,5.2 M386.1,276.2c0,0,6.7,4.9,7,7.6 M376.8,282c0,0,2,10.5,9.3,14.2 M371.9,286.6c0,0-3.2,13.7,4.9,22.1 M363.4,297.4c0,0.3-0.6,6.4-0.3,7 M311.1,244.5l15.7-0.9c0,0,5.8-2.3,1.7-6.1 M330.6,241c0.3,0,14.8,1.2,18.6,5.5c3.8,4.4,8.4,13.1,11,14.5c2.6,1.5,3.2-0.6,3.2-0.6 M357,258.2c0,0-7.8,13.4-1.7,17.4 M352.7,273c0,0-7,9.3-1.5,13.9 M349.8,285.8c0,0-5.5,9,1.2,15.1 M347.3,261.9c-0.4,0.4-6.7,4.9-9,3.8 M340.6,276.1c0,0,2.6,2.6,4.9,2.3 M340.9,289.7l4.2,2.9 M341.5,300.2l3.6,2.2 M275.8,157.7c0,0,7.6,4,13.7,0c6.1-4,35.4-18.9,43.1-21.4c7.6-2.4,11.9-16.5,13.4-22.6 M340.3,130.2l42.8-12.5c0,0,7-5.8,7.3-16.5 M387.4,112.8c0,0,42.8-4.3,42.8-20.2 M423.4,103.6c0,0,44.9-12.2,49.2-16.8 M298.1,167.5c0,0,27.2-14.1,31.5-15.6c4.3-1.5,14.1-13.7-0.6-13.7 M311.3,173c0.3,0,22.3-14.4,29.6-16.2c4-5.5,1.8-11.3-4.9-10.1 M342.7,153.1c0.6-0.3,11.9-0.6,7.9,8.3c-5.8,4.3-30.9,16.8-30.9,16.8 M336.9,143.6l47.7-15.9c0,0,4-8.3-1.8-9.5 M422.5,103.9c0,0.3,6.1,3.7,2.4,9.2c-6.7,4-38.5,11.6-38.5,11.6 M470.8,99l-44.9,12.5 M467.4,109.1L428.3,121 M464.1,118.9l-34.5,10.4 M457.6,128.7c-0.9,0-25.7,7.6-25.7,7.6 M452.1,136.3l-15.9,6.4 M448.2,144.8c-0.6,0-13.7,5.8-13.7,5.8 M444.2,151.9l-12.2,5.8 M423.1,165c0,0,1.5,0.6,1.2,2.4 M392.2,181.8c0,0,5.2,1.8,0.3,6.7c-2.4,3.4-9.5,2.4-13.7,8.6 M425.6,113.4c0,0,6.4,1.5,1.5,9.8c-12.8,4.9-38.8,12.8-38.8,12.8s-1.2,2.1-4.6,4c-3.4,1.8-40.3,12.2-40.3,12.2 M427.7,122.8c0,0,7,3.1,0,8.3c-7.9,4.6-35.7,13.1-35.7,13.1s-0.3,2.4-1.5,3.4c-1.2,0.9-37.9,13.1-37.9,13.1 M429.5,131.1c0,0,7.3,2.1,0.9,8.2c-7.6,4.6-32.1,12.8-32.1,12.8s-2.4,3.1-6.4,4.3c-4,1.2-29.3,11.6-29.3,11.6 M431.4,139.3c2.1,0.9,7.9,1.8,0.9,7.3c-8.3,3.7-28.4,11.6-28.4,11.6l-1.8,3.4l-32.1,13.7 M433.2,147.6c0,0,3.1,3.7-3.7,7.9c-7.3,4-23.2,10.1-23.2,10.1 M429.5,156.2c0,0,3.4,2.1-0.9,5.2c-4.9,2.4-24.1,12.5-24.1,12.5l-12.5,8.2 M385.5,128c0,0.3,5.2,4.6,3.4,9.5c4.6,3.4,3.7,7,3.7,7s6.4,3.7,5.5,8.9c6.4,1.5,6.1,5.2,6.1,5.2L402,162c0,0,6.4-0.3,0.9,7.9c3.4,1.8,1.8,4,1.8,4 M402.9,170.2c-0.9,0-22.3,7.9-27.8,12.8 M351.3,160.7c0,0,6.4-0.3,5.5,6.7c7.3-2.4,5.8,4.6,5.8,4.6s8.6-3.4,7,7.3c5.5-1.2,4.6,4.3,4.6,4.3s4.9-0.3,4.9,2.4c3.4-3.1,7-1.5,7-1.5s2.4-3.4,5.8-2.4 M357.1,167.2c0,0.6-28.7,16.5-28.7,16.5 M362.6,172.3l-21.7,13.4 M369.9,179.1c0,0.3-18.9,11.3-18.9,11.3 M374.2,183.3c0,0-13.4,11-16.5,10.4 M378.8,186.7c0,0-7.6,5.8-14.1,8.6 M386.8,184.3c0,0,2.4,3.1-12.8,11"/>
	</g>
</svg>
