<svg xmlns="http://www.w3.org/2000/svg" height="512" width="512" viewBox="0 0 512 512"><defs><clipPath id="a"><path fill="#808080" d="M496.06 15.937h496.06v496.06h-496.06z"/></clipPath></defs><g clip-path="url(#a)"><path fill="#006" d="M-512-.003h1023.878v511.934h-1023.878z"/><path d="M-512 255.967l1023.878 255.967v-511.934l-1023.878 255.967z" fill-rule="evenodd" fill="#bd1021"/><path d="M511.878 27.422v457.083l-914.177-228.547 914.177-228.547z" fill-rule="evenodd" fill="#fff"/><g stroke="#000"><path d="M339.903 313.367s-6.391-5.232 1.163-13.657c-4.068-3.486-.291-10.168-.291-10.168s-6.973-2.615.291-13.364c-5.23-3.488-2.906-11.333-2.906-11.333s-17.142-6.391-.871-12.491c-13.364 5.81-25.86-7.846-25.86-7.846l-19.467.582c-3.302-16.171-28.968-2.126-9.887-48.514-4.94-.873-10.46-2.325-15.981 1.742-5.521 4.066-21.211 12.783-30.508 4.066s6.099-21.21 6.392-21.5c.289-.289 20.63-10.75 23.534-17.723-.289-5.232-6.682-9.298-.872-20.63 6.682-10.751 47.647-20.922 66.254-24.407 9.005-4.069 13.073-11.913 13.073-11.913l2.033 7.554s41.259-12.203 43.292-18.015l.873 5.23c16.271-1.453 36.899-15.397 39.804-9.007 13.656-2.615 39.807-14.236 39.807-14.236s9.006-.289 2.614 9.587c4.068 6.393-1.162 11.913-1.452 11.913-.292 0 1.742 6.391-3.488 9.878 1.744 5.521-3.196 9.878-3.196 9.878s2.326 6.683-6.972 10.169c.872 5.81-5.23 6.973-5.23 6.973s.872 6.102-3.196 8.717c0 4.648-4.648 6.973-4.648 6.973s2.905 1.742-1.162 4.647c-4.066 2.906-46.197 28.765-46.197 28.475 0-.291 30.798 5.521 32.831 6.682l25.279 16.564-23.536 29.054s-26.149-2.905-27.311-1.453 5.521 2.033 6.972 4.358c1.455 2.324 3.777 7.846 8.426 7.265 4.648-.583-8.717 8.425-17.434 9.298 0 3.195 11.04 3.485 13.946.871 2.907-2.616-6.973 7.554-8.135 9.006l13.075-2.035s-2.325 9.587-14.817 12.494c4.937 8.135 2.903 13.364 2.613 13.364s-8.136-8.135-15.691-6.682c2.033 7.845 8.136 15.108 9.88 16.272 1.742 1.162-13.656.871-15.691-3.488s-3.777 10.46 1.744 15.111c-6.392.289-11.913-3.488-11.913-3.488s-3.777 8.715-1.162 13.075c2.615 4.358-9.007-8.718-9.007-8.718l-22.082 9.298-4.94-8.426z" fill-rule="evenodd" fill="#9c3900"/><path d="M169.244 296.068c.516 0 32.078-.518 46.567-8.797 7.245 11.383 17.074 19.144 17.074 19.144l4.656-16.555s11.383.516 12.418 3.104c-1.552 3.103-2.069 7.243-2.069 7.243s7.761.519 8.277 1.552c.519 1.036-2.068 9.831-2.068 9.831l33.114 7.761s2.588-12.934 5.175-11.383c2.587 1.553 13.97 17.593 30.011 18.628l17.073-13.453 3.622 2.071s6.725-14.489 7.761-14.489 2.586 2.07 11.383 2.07c2.586 3.104 3.622 10.347 3.622 10.347s-9.833 9.832-6.729 17.594l3.622 5.69 71.404 17.074s3.622 5.691-2.587 8.796c0 .516-71.92-16.557-71.92-16.557s-6.729 7.761-11.901 6.207l-1.551 3.104 77.608 6.213s5.694 7.245 1.554 9.314c-5.174.516-83.821-5.174-83.821-5.174s-4.656 9.832-9.83 1.553c-3.622 5.691-7.763-1.552-7.763-1.552s-6.726 5.175-7.761-.516c-5.693 4.138-9.314-2.587-9.314-2.587l-33.115-2.07-2.069 3.104s5.691 1.552-3.104 5.175c-8.796 3.622 52.774 2.069 54.328 2.585 1.552.519-4.138 5.175-4.138 5.175s31.562 2.069 37.252-4.656c5.693-6.729-2.069 8.795-2.069 8.795s24.836-1.034 24.836-2.069-.518 7.761-17.591 6.727c10.347 6.727 23.282 10.865 23.282 10.865s-12.935 3.106-27.939-.516c2.586 6.727 13.97 12.935 13.97 12.935s-8.277 7.245-26.904-10.349c5.174 9.314 1.034 12.937.516 11.901-.516-1.035-9.312-13.97-30.008-18.628 12.935 8.28 7.243 11.902 7.243 11.902s-6.726-11.899-17.591 0c-4.138-10.865-20.179-17.073-39.84-18.109-6.21-7.245-9.832-5.174-24.318-9.314-8.279-9.313-20.18-19.66-20.18-19.66s.518-13.973 14.487-12.419c1.552 4.656 1.552 3.104 1.552 3.104s15.523-5.693 20.18 2.069c6.727-11.901 16.039-1.779 17.591 2.359 4.458.653 26.904 1.262 26.904 1.262s-2.586-4.656-1.034-4.138c1.552.516 13.97-4.656 13.453-6.21-.518-1.553-1.035-6.727 1.034-6.21 2.07.516-17.591-2.587-28.457 5.693-3.622-3.624-1.035-13.455-1.035-13.455l-32.079-6.726-1.552 8.279s-9.314 1.552-8.796-.516c.518-2.072-2.069 7.242-2.069 7.242s-12.418-3.104-12.418-3.622 3.622-18.628 3.622-18.11c0 .519-10.349 1.035-24.836 11.901-4.138-12.935-36.736-30.011-36.736-30.527z" fill-rule="evenodd" fill="#ffc221"/><path d="M247.89 300.731l-6.727 30.011m12.934-18.63l-2.069 9.831m35.185-2.069l-3.104 9.314m60.54 53.804c-.516 0-16.556 2.069-18.628 1.552-2.068-.516 25.354 8.279 25.354 11.899m-35.702-9.816s-16.039-10.348-18.626-9.314c-2.587 1.035 16.039-.516 17.591-2.069m-32.083-.52s-16.556.516-18.109-1.035 16.039 11.383 19.144 10.351m-33.116-16.57c-.516 0-11.383-4.138-16.039-5.175 4.138 4.14 7.245 9.832 17.591 11.901m2.588-13.445c-.518-1.035-20.697-7.245-20.697-10.349 4.657 1.553 11.383 3.622 17.593 2.069m110.209-15.524l-2.069 9.312" fill="none"/><path d="M209.601 253.642s-21.732 18.626 0 29.491c1.035-7.245 2.587-8.277 2.587-8.277s18.109 6.725 28.974-9.315c-4.657-6.726-12.936-4.138-12.936-4.138s-17.075 0-18.628-7.761z" fill-rule="evenodd" fill="#ffc221"/><path d="M227.712 261.925l-15.005 12.935m61.217 76.904s3.459 3.813.354 8.47m72.443-4.652l-5.691.518m-40.876-3.63l10.348 1.551m17.485-28.16s.291 10.46-8.425 10.169c-8.716-.291-5.812.291-5.812.291M334.678 324.113s3.486 1.162 2.615 3.777c-.872 2.615.871 10.169-9.298 17.434-10.751 2.324-9.587-9.006-9.587-9.006M338.453 327.311s6.392-3.777 7.263 2.325c.871 6.099-5.229 17.433-9.587 19.177-4.36 1.742-9.298-.292-8.718-3.196m18.888-15.686s5.812-4.649 7.554 1.453c1.744 6.101-4.648 19.758-7.265 20.048m7.839-20.05s2.905-1.452 4.938.289m-14.236 20.629c-1.161.289-6.099.58-7.843-3.196m-18.297-6.974c-.291 0-6.102.292-6.102.292m28.469 22.668l-.58-9.587-2.322-3.197-4.069 4.068s-.582 9.587-2.324 10.46m2.323-10.759c-.289-.58-3.196-6.099-3.196-6.099l-4.94 6.099s-.58 8.717-2.324 9.589m2.319-9.886c0-.289-2.033-5.81-2.033-5.81s-5.81 3.196-6.393 5.521c-.58 2.322-.872 8.715-2.324 9.298m2.327-10.46s.582-5.229-1.162-5.229-9.587 7.263-9.878 13.655" fill="none"/><path d="M210.315 253.798s2.905-2.906 3.777-6.392c.872-3.488-1.162-7.265 2.325-10.46 3.488-3.196 49.394-22.663 53.172-26.44 3.777-3.777 10.75-11.913 11.622-13.656.871-1.744 3.486 8.716-4.359 13.364 8.427-2.324 13.947-4.938 17.434-3.777-3.488 4.94-12.783 13.075-17.142 13.075 10.169-3.777 19.466-6.973 22.082-4.939 2.614 2.033-12.494 12.203-18.597 12.783 10.17-2.614 23.827-6.682 25.569-2.324-5.521 1.744-3.777 3.194-15.108 9.587-1.452 1.164-8.716 1.453-8.716 1.453 8.716-.872 20.63-4.358 21.791 2.033-6.972 2.615-9.587 6.103-15.397 7.554-5.812 1.455-19.178 4.069-27.313 7.265-8.136 3.196-20.05 12.493-20.05 12.493s-25.859.871-25.859.58c0-.291-4.939-11.912-5.23-12.202z" fill-rule="evenodd" fill="#fff"/><path d="M222.518 251.769s.291-5.81 2.906-7.843c2.614-2.035 15.689-6.976 18.597-11.333 2.904-4.358-4.359 7.554-3.197 10.75m-13.075-.293s6.392 2.326 4.939 7.265" fill="none"/><path d="M724.13 254.694a4.646 4.646 0 1 1-9.29.003 4.646 4.646 0 0 1 9.289-.004z" fill="none" transform="translate(-512 -16.45) scale(1.032)"/><path d="M432.01 236.077l50.266 9.587s5.521-6.391 2.615-9.876c7.554-1.744 5.519-11.623 5.519-11.623s8.716-3.777 1.453-12.494c4.941-4.939-1.162-8.716-1.162-8.716s2.033-8.715-4.358-9.587c1.744-6.972-11.042-9.298-11.042-9.298s-26.44 7.265-45.034 7.846c6.099 6.101-2.326 9.878-2.326 9.878s4.94 3.488 3.488 6.392c-1.455 2.905.87 6.101-5.521 8.135 8.425 3.777-.872 10.168-.872 10.168s9.298 6.392 6.974 9.587z" fill-rule="evenodd" fill="#fff"/><path d="M427.065 225.33s44.455 5.23 46.49 5.23 9.878 2.616 11.331 5.232m-55.496-13.083l61.887 1.452m-61.592-2.903s58.69-3.486 62.759-9.587m-61.026-3.197s58.983-6.391 59.565-5.521m-61.593-1.742s57.239-9.007 57.819-7.554m-221.107-29.345s18.015 19.758 16.271 33.122M281.211 186.975s5.81 8.425 8.135 9.298 22.663 2.033 23.826 10.749c1.162 5.521-4.358 3.777-3.486 7.843 1.452 5.232 15.108 11.913 29.928 4.069m-13.655 4.07s12.202 18.016 30.217-1.451m-9.299 7.846s14.817 7.845 27.021-12.493m-15.696 14.226s7.263 6.102 22.374-2.033m20.926-8.136s22.372 4.648 23.826 6.101m-15.403-11.031c.289 0 15.689.581 15.689.581m-25.282-9.302s26.729-1.744 30.217 3.777m-41.839-12.202s37.482 1.452 39.226 3.486m-30.802 34.859s6.392-1.742 7.265-.87m-21.789 16.561s8.427 7.265 19.179 4.069m-14.53 8.145s9.587 4.358 20.921 1.742m-17.723 5.512s9.587 6.392 15.981 5.229m-20.333-1.44s6.682 4.939 6.972 7.554m-16.268-1.75s2.033 10.458 9.298 14.235m-14.243-9.588s-3.196 13.656 4.94 22.083m-13.363-11.334c0 .289-.58 6.391-.289 6.973m-52.012-59.851l15.691-.873s5.81-2.324 1.742-6.099m2.035 3.492c.291 0 14.817 1.162 18.597 5.521 3.775 4.357 8.424 13.073 11.039 14.527 2.615 1.452 3.196-.582 3.196-.582m-6.394-2.323s-7.843 13.364-1.742 17.433m-2.624-2.616s-6.972 9.298-1.452 13.946m-1.45-1.17s-5.521 9.009 1.164 15.108m-3.601-38.998c-.375.375-6.749 4.874-8.999 3.75m2.252 10.491s2.624 2.623 4.874 2.25m-4.564 11.385l4.187 2.872m-3.623 7.566l3.622 2.186m-69.248-144.686s7.637 3.973 13.749 0c6.109-3.973 35.442-18.942 43.081-21.387 7.637-2.446 11.915-16.5 13.444-22.609m-5.804 16.499l42.776-12.528s7.028-5.804 7.332-16.498m-3.063 11.609s42.776-4.277 42.776-20.165m-6.716 10.999s44.915-12.221 49.192-16.804M298.139 167.459s27.193-14.056 31.471-15.583c4.277-1.527 14.053-13.746-.612-13.746M311.281 172.958c.305 0 22.304-14.361 29.636-16.192 3.973-5.501 1.834-11.306-4.888-10.083M342.749 153.097c.611-.304 11.917-.609 7.944 8.25-5.804 4.278-30.86 16.805-30.86 16.805m17.111-34.526l47.668-15.889s3.971-8.25-1.833-9.472m39.723-14.36c0 .305 6.113 3.667 2.446 9.166-6.722 3.973-38.498 11.61-38.498 11.61m84.324-25.664l-44.913 12.528m41.546-2.446l-39.108 11.917m35.756-2.139l-34.526 10.388m28.102-.611c-.918 0-25.666 7.637-25.666 7.637m20.173.002l-15.889 6.416m11.917 2.138c-.612 0-13.749 5.805-13.749 5.805m9.777 1.222l-12.221 5.805m-8.866 7.334s1.527.611 1.223 2.444m-32.085 14.359s5.195 1.834.305 6.722c-2.444 3.361-9.471 2.446-13.748 8.555m46.756-83.717s6.419 1.527 1.527 9.777c-12.833 4.889-38.803 12.833-38.803 12.833s-1.221 2.138-4.582 3.973c-3.36 1.832-40.331 12.219-40.331 12.219m84.33-29.332s7.028 3.057 0 8.251c-7.944 4.582-35.748 13.137-35.748 13.137s-.305 2.446-1.527 3.361c-1.222.916-37.885 13.137-37.885 13.137M429.531 131.099s7.333 2.138.918 8.249c-7.64 4.582-32.083 12.833-32.083 12.833s-2.444 3.055-6.416 4.278c-3.971 1.222-29.329 11.61-29.329 11.61m68.74-28.72c2.14.916 7.944 1.833.918 7.333-8.25 3.666-28.415 11.61-28.415 11.61l-1.834 3.361-32.081 13.749m63.243-27.804s3.055 3.667-3.667 7.944c-7.333 3.973-23.22 10.083-23.22 10.083m23.224-9.474s3.361 2.14-.915 5.195c-4.892 2.446-24.138 12.528-24.138 12.528l-12.528 8.248M385.527 128.043c0 .305 5.194 4.582 3.36 9.472 4.584 3.362 3.667 7.028 3.667 7.028s6.416 3.667 5.501 8.861c6.416 1.527 6.109 5.195 6.109 5.195l-2.138 3.36s6.416-.305.916 7.944c3.361 1.833 1.834 3.973 1.834 3.973m-1.839-3.669c-.918 0-22.304 7.944-27.804 12.833M351.312 160.737s6.416-.305 5.501 6.721c7.333-2.446 5.805 4.582 5.805 4.582s8.555-3.36 7.028 7.333c5.498-1.222 4.582 4.278 4.582 4.278s4.889-.305 4.889 2.446c3.361-3.057 7.028-1.529 7.028-1.529s2.444-3.36 5.804-2.444m-34.832-14.971c0 .611-28.721 16.499-28.721 16.499m34.214-11.306l-21.693 13.444m29.03-6.722c0 .307-18.943 11.306-18.943 11.306m23.226-7.028s-13.444 11.001-16.499 10.389m21.077-7.028s-7.639 5.806-14.056 8.555m22-10.998s2.444 3.055-12.832 10.998" fill="none"/></g></g></svg>