<svg xmlns="http://www.w3.org/2000/svg" height="512" width="512" viewBox="0 0 512 512"><path fill="#006" d="M0 0h512v512h-512z"/><path fill="#fff" d="M0 0v27.95l307.037 222.05h38.647v-27.95l-307.037-222.05h-38.647zm345.684 0v27.95l-307.037 222.05h-38.647v-27.95l307.037-222.05h38.647zM144.035 0v250h57.614v-250h-57.615zm-144.035 83.333v83.333h345.684v-83.333h-345.684z"/><path fill="#c00" d="M0 100v50h345.684v-50h-345.684zm155.558-100v250h34.568v-250h-34.568zm-155.558 250l115.228-83.334h25.765l-115.228 83.334h-25.765zm0-250l115.228 83.333h-25.765l-89.463-64.7v-18.633zm204.69 83.333l115.23-83.333h25.764l-115.228 83.333h-25.766zm140.995 166.667l-115.228-83.334h25.765l89.464 64.7v18.634z"/><path fill-rule="evenodd" fill="#fff" d="M54.886 368.64l40.665 15.4 13.32-41.403 13.32 41.402 40.666-15.4-24.06 36.223 37.395 22.197-43.326 3.767 5.97 43.082-29.963-31.528-29.96 31.527 5.968-43.083-43.327-3.767 37.397-22.197m324.856 71.553l-18.823 1.638 2.597 18.712-13.02-13.692-13.02 13.692 2.598-18.71-18.823-1.64 16.247-9.645-10.458-15.736 17.675 6.693 5.78-17.99 5.783 17.99 17.675-6.692-10.458 15.737m16.247-270.353l-18.823 1.638 2.597 18.71-13.02-13.69-13.02 13.69 2.598-18.71-18.823-1.638 16.247-9.645-10.458-15.737 17.675 6.69 5.78-17.985 5.783 17.986 17.675-6.69-10.458 15.736m-88.752 123.393l-18.823 1.638 2.597 18.71-13.02-13.69-13.02 13.69 2.598-18.71-18.823-1.638 16.247-9.646-10.458-15.736 17.675 6.692 5.783-17.99 5.78 17.99 17.676-6.692-10.46 15.735m214.57-18.352l-18.83 1.638 2.59 18.71-13.02-13.69-13.02 13.69 2.59-18.71-18.795-1.638 16.275-9.646-10.48-15.736 17.69 6.692 5.74-17.99 5.81 17.99 17.64-6.692-10.43 15.736m-64.33 82.494l-10.29 6.377 2.892-11.752-9.247-7.805 12.074-.89 4.57-11.206 4.57 11.207 12.076.89-9.247 7.804 2.89 11.753"/></svg>