<svg xmlns="http://www.w3.org/2000/svg" height="512" width="512" viewBox="0 0 512 512"><defs><clipPath id="a"><path fill-opacity=".67" d="M0 0h512v512h-512z"/></clipPath></defs><g fill-rule="evenodd" clip-path="url(#a)"><path fill="#009" d="M0 0h512v512h-512z"/><path d="M77 .006l436.91 436.91v-436.91h-436.91z" fill="#fc0"/><path d="M39.867 35.49l9.32-28.68 9.32 28.68h30.153l-24.395 17.725 9.32 28.68-24.398-17.725-24.397 17.726 9.32-28.68-24.4-17.726m84.77 54.614l9.32-28.68 9.32 28.68h30.155l-24.397 17.725 9.32 28.68-24.398-17.726-24.397 17.726 9.32-28.68-24.397-17.726m84.769 54.614l9.32-28.68 9.318 28.68h30.156l-24.398 17.726 9.32 28.68-24.398-17.725-24.397 17.725 9.32-28.68-24.398-17.726m84.772 54.613l9.318-28.68 9.32 28.68h30.155l-24.397 17.727 9.32 28.68-24.398-17.725-24.397 17.725 9.32-28.68-24.397-17.726m84.768 54.614l9.32-28.68 9.32 28.68h30.154l-24.396 17.725 9.32 28.68-24.398-17.725-24.397 17.726 9.32-28.68-24.398-17.725m84.769 54.614l9.32-28.68 9.32 28.68h30.154l-24.397 17.724 9.32 28.68-24.398-17.725-24.397 17.725 9.32-28.68-24.397-17.726m84.769 54.614l9.32-28.68 9.318 28.68h30.156l-24.397 17.726 9.32 28.68-24.398-17.725-24.398 17.725 9.32-28.68-24.398-17.726m84.771 54.614l9.32-28.68 9.318 28.68h30.156l-24.397 17.726 9.32 28.68-24.397-17.725-24.397 17.725 9.32-28.68-24.398-17.726m84.768 54.614l9.32-28.68 9.32 28.68h30.154l-24.396 17.725 9.32 28.68-24.397-17.725-24.397 17.726 9.32-28.68-24.401-17.726" fill="#fff"/></g></svg>