<svg xmlns="http://www.w3.org/2000/svg" width="512" height="512" viewBox="0 0 512 512">
	<style type="text/css">
		.st1{fill:#CE1126;}
		.st2{fill:#1EB53A;}
		.st3{stroke:#FFFFFF;stroke-width:37.5;}
		.st4{fill:#FFFFFF;}
	</style>
	<path class="st1" d="M-170.7-0.5h853.3l-853.3,512h853.3L-170.7-0.5z"/>
	<path class="st2" d="M-170.7-0.5v512l853.3-512v512L-170.7-0.5z"/>
	<path class="st3" d="M-170.7-0.5l853.3,512 M682.7-0.5l-853.3,512"/>
	<circle class="st4" cx="256" cy="255.5" r="145.1"/>
	<polygon class="st2" points="226.4,163.3 236.3,180.4 226.4,197.5 246.1,197.5 256,214.5 265.9,197.5 285.6,197.5 275.7,180.4 285.6,163.3 265.9,163.3 256,146.3 246.1,163.3 "/>
	<polygon class="st1" points="231.8,166.4 239.8,180.4 231.8,194.4 247.9,194.4 256,208.4 264.1,194.4 280.2,194.4 272.2,180.4 280.2,166.4 264.1,166.4 256,152.4 247.9,166.4 "/>
	<polygon class="st2" points="161.4,275.3 171.2,292.4 161.4,309.5 181.1,309.5 190.9,326.5 200.8,309.5 220.5,309.5 210.6,292.4 220.5,275.3 200.8,275.3 190.9,258.3 181.1,275.3 "/>
	<polygon class="st1" points="166.7,278.4 174.8,292.4 166.7,306.4 182.9,306.4 190.9,320.4 199,306.4 215.2,306.4 207.1,292.4 215.2,278.4 199,278.4 190.9,264.4 182.9,278.4 "/>
	<polygon class="st2" points="292.1,276.1 301.9,293.1 292.1,310.2 311.8,310.2 321.6,327.3 331.5,310.2 351.2,310.2 341.3,293.1 351.2,276.1 331.5,276.1 321.6,259 311.8,276.1 "/>
	<polygon class="st1" points="297.4,279.1 305.5,293.1 297.4,307.1 313.6,307.1 321.6,321.1 329.7,307.1 345.9,307.1 337.8,293.1 345.9,279.1 329.7,279.1 321.6,265.1 313.6,279.1 "/>
</svg>
