<svg xmlns="http://www.w3.org/2000/svg" height="512" width="512" viewBox="0 0 512 512"><defs><clipPath id="a"><path fill-opacity=".67" d="M0 0h496.06v496.06h-496.06z"/></clipPath></defs><g fill-rule="evenodd" clip-path="url(#a)"><path fill="#b20000" d="M0 0h1023.878v340.075h-1023.878z"/><path fill="#429f00" d="M0 340.075h1023.878v171.869h-1023.878z"/><path fill="#fff" d="M0 0h113.355v511.934h-113.355z"/><g fill="#b20000"><path d="M5.397 8.671h5.397v8.679h-5.397zm16.195 0h16.194v8.679h-16.194zm5.392-8.681h5.397v8.679h-5.397zm26.996 0h5.397v8.679h-5.397zm21.586 8.681h16.194v8.679h-16.194zm5.409-8.681h5.397v8.679h-5.397zM16.199 17.348h10.798v8.679h-10.799zm16.195 0h10.795v8.679h-10.795zm37.782 0h10.795v8.679h-10.795zm16.192 0h10.798v8.679h-10.798zm-75.577 8.679h10.797v8.677h-10.797zm26.996 0h10.795v8.677h-10.795zm26.995 0h10.797v8.677h-10.797zm26.98 0h10.797v8.677h-10.797zm10.802-17.356h5.397v8.679h-5.397zm-97.166 26.033h10.797v8.677h-10.795zm37.782 0h10.797v8.677h-10.797zm53.991 0h10.797v8.677h-10.798zm-86.379 26.029h10.797v8.679h-10.797zm5.409 8.679h10.798v8.676h-10.799zm21.587-8.679h10.795v8.679h-10.795zm-5.392 8.679h10.795v8.676h-10.795zm-10.802 8.676h16.194v8.677h-16.194zM26.985 86.764h5.397v8.679h-5.397zm37.797-26.029h10.797v8.677h-10.797zm5.394 8.677h10.795v8.676h-10.795zm21.585-8.679h10.797v8.679h-10.797zm-5.393 8.679h10.798v8.676h-10.798zm-10.801 8.676h16.194v8.677h-16.194zM80.976 86.764h5.397v8.679h-5.397zm-26.995-8.676h5.397v8.677h-5.397zm-53.976 0h5.397v8.677h-5.397zm107.95 0h5.397v8.677h-5.397zm-80.971 43.385h5.397v8.677h-5.397zM21.593 130.15h16.194v8.677h-16.194zm-5.393 8.677h26.99v8.677h-26.989zm64.777-17.353h5.397v8.677h-5.397zM75.567 130.15h16.194v8.677h-16.194zm-5.391 8.677h26.99v8.677h-26.99zm5.391 43.385h26.991v8.677h-26.991zm-10.785-34.708h37.786v8.679h-37.786zm-53.991 0h37.786v8.679h-37.785zm5.409 43.385h16.195v8.677h-16.196zm-5.409-8.677h26.991v8.677h-26.991zm75.577-17.354h26.992v8.677h-26.992zm-5.392 26.031h16.194v8.677h-16.194zM21.593 199.565h5.397v8.679h-5.397zm64.776 0h5.397v8.679h-5.397zm-86.363-34.707h26.992v8.677h-26.993zm48.581 17.354h16.195v8.677h-16.195zm5.394 8.677h5.397v8.677h-5.397zm-16.194-26.031h37.787v8.677h-37.788zm21.586-130.154h10.797v8.677h-10.797zM48.587 43.38h16.195v8.677h-16.195zm-5.408 8.677h10.797v8.679h-10.797zm16.194 0h10.797v8.679h-10.797zm-59.368-8.677h10.797v8.677h-10.797zm5.392 8.677h10.797v8.679h-10.795zm97.166-8.677h10.797v8.677h-10.797zm-5.393 8.677h10.797v8.679h-10.798zm-97.165 78.092h5.397v8.677h-5.397zm107.95 0h5.397v8.677h-5.397zm-59.369 69.415h16.195v8.679h-16.195zM43.179 208.243h10.797v8.677h-10.797zm16.194 0h10.797v8.677h-10.797zm-21.586 8.677h10.795v8.677h-10.795zm26.995 0h10.797v8.677h-10.797zM32.394 225.595h10.795v8.679h-10.795zm37.782 0h10.795v8.679h-10.795zm-43.191 8.679h10.797v8.677h-10.797zm48.582 0h10.797v8.677h-10.797zM16.199 242.95h16.195v8.677h-16.196zm64.777 0h16.194v8.677h-16.194zM91.761 234.274h10.797v8.677h-10.797zm5.409-8.679h10.797v8.679h-10.798zM102.563 216.92h10.797v8.677h-10.797zm-91.773 17.354h10.797v8.677h-10.797zm-5.393-8.679h10.797v8.679h-10.795zM.005 216.92h10.797v8.677h-10.797zm21.587 34.707h5.397v8.677h-5.397zm64.776 0h5.397v8.677h-5.397zm-32.387-26.032h5.397v8.679h-5.397zm-16.194 26.032h5.397v8.677h-5.397zm32.389 0h5.397v8.677h-5.397zm-16.195 0h5.397v8.677h-5.397zm-53.976 0h5.397v8.677h-5.397zm107.95 0h5.397v8.677h-5.397zm-53.975-121.478h5.397v8.677h-5.397zm-26.996-86.77h5.397v8.677h-5.397zm53.991 0h5.397v8.677h-5.397zm-32.389 60.738h16.195v8.679h-16.195zM37.787 112.796h16.194v8.679h-16.194zM43.179 121.474h5.397v8.677h-5.397zm-10.784-17.355h10.795v8.679h-10.795zM37.787 95.442h16.194v8.677h-16.194zM43.179 86.764h5.397v8.679h-5.397zm16.194 8.678h16.194v8.677h-16.194zM64.782 86.764h5.397v8.679h-5.397zm5.394 17.354h10.795v8.679h-10.795zM59.373 112.796h16.194v8.679h-16.194zM64.782 121.474h5.397v8.677h-5.397zm21.586-17.355h10.798v8.679h-10.798zM91.761 95.442h16.194v8.677h-16.194zM102.563 104.118h10.797v8.679h-10.797zM91.761 112.796h16.194v8.679h-16.194zM97.17 121.474h5.397v8.677h-5.397zm0-34.709h5.397v8.679h-5.397zm-97.165 17.354h10.797v8.679h-10.797zM5.397 95.442h16.195v8.677h-16.195zM16.199 104.118h10.798v8.679h-10.799zM5.397 112.796h16.195v8.679h-16.195zM10.791 121.474h5.397v8.677h-5.397zm0-34.709h5.397v8.679h-5.397zm-5.393 69.416h21.593v8.677h-21.593zm26.997 0h21.589v8.677h-21.589zm26.979 0h21.593v8.677h-21.593zm26.995 0h21.593v8.677h-21.593zm-43.189 17.353h26.991v8.679h-26.991zm-37.782 0h26.991v8.679h-26.991zm75.579 0h26.991v8.679h-26.992zm26.98 34.709h5.397v8.677h-5.397zm-107.95 0h5.397v8.677h-5.397zm5.392 295.019h5.397v-8.677h-5.397zm16.195 0h16.194v-8.677h-16.194zM26.985 511.931h5.397v-8.677h-5.397zm26.996 0h5.397v-8.677h-5.397zm21.586-8.669h16.194v-8.677h-16.194zM80.976 511.931h5.397v-8.677h-5.397zm-64.777-17.35h10.798v-8.677h-10.799zm16.195 0h10.795v-8.677h-10.795zm37.782 0h10.795v-8.677h-10.795zm16.192 0h10.798v-8.677h-10.798zm-48.581-8.681h10.795v-8.677h-10.795zm26.995 0h10.797v-8.677h-10.797zm26.98 0h10.797v-8.677h-10.797zm10.802 17.362h5.397v-8.677h-5.397zm-97.166-26.031h10.797v-8.677h-10.795zM43.179 477.231h10.797v-8.677h-10.797zm53.991 0h10.797v-8.677h-10.798zm-86.379-26.03h10.797v-8.679h-10.797zm5.409-8.682h10.798v-8.677h-10.799zm21.587 8.682h10.795v-8.679h-10.795zm-5.392-8.682h10.795v-8.677h-10.795zm-10.802-8.681h16.194v-8.677h-16.194zM26.985 425.169h5.397v-8.677h-5.397zm37.797 26.032h10.797v-8.679h-10.797zm5.394-8.682h10.795v-8.677h-10.795zm21.585 8.682h10.797v-8.679h-10.797zm-5.393-8.682h10.798v-8.677h-10.798zm-10.801-8.681h16.194v-8.677h-16.194zM80.976 425.169h5.397v-8.677h-5.397zm-26.995 8.669h5.397v-8.677h-5.397zm-53.976 0h5.397v-8.677h-5.397zm107.95 0h5.397v-8.677h-5.397zm-80.971-43.38h5.397v-8.679h-5.397zM21.593 381.788h16.194v-8.679h-16.194zm-5.393-8.682h26.99v-8.677h-26.989zm64.777 17.351h5.397v-8.679h-5.397zM75.567 381.788h16.194v-8.679h-16.194zm-5.391-8.682h26.99v-8.677h-26.99zm5.391-43.38h26.991v-8.679h-26.991zm-10.785 34.7h37.786v-8.679h-37.786zm-53.991 0h37.786v-8.679h-37.785zm5.409-43.381h16.195v-8.681h-16.196zm-5.409 8.681h26.991v-8.679h-26.991zm75.577 17.35h26.992v-8.679h-26.992zm-5.392-26.031h16.194v-8.679h-16.194zm-80.971 26.031h26.992v-8.679h-26.993zm48.581-17.35h16.195v-8.679h-16.195zm5.394-8.681h5.397v-8.679h-5.397zm-16.194 26.031h37.787v-8.679h-37.788zm21.586 130.155h10.797v-8.677h-10.797zm-10.786-8.682h16.195v-8.676h-16.195zm-5.408-8.679h10.797v-8.679h-10.797zm16.194 0h10.797v-8.679h-10.797zm-59.368 8.679h10.797v-8.676h-10.797zm5.392-8.679h10.797v-8.679h-10.795zm97.166 8.679h10.797v-8.676h-10.797zm-5.393-8.679h10.797v-8.679h-10.798zm-97.165-78.081h5.397v-8.679h-5.397zm107.95 0h5.397v-8.679h-5.397zm-64.777-78.094h10.797v-8.679h-10.797zm16.194 0h10.797v-8.679h-10.797zm-21.586-8.681h10.795v-8.679h-10.795zm26.995 0h10.797v-8.679h-10.797zm-32.387-8.681h10.795v-8.679h-10.795zm37.782 0h10.795v-8.679h-10.795zM26.985 277.664h10.797v-8.679h-10.797zm48.582 0h10.797v-8.679h-10.797zm-59.368-8.681h16.195v-8.679h-16.196zm64.777 0h16.194v-8.679h-16.194zm10.785 8.681h10.797v-8.679h-10.797zM97.17 286.333h10.797v-8.679h-10.798zm5.393 8.681h10.797v-8.679h-10.797zm-91.773-17.35h10.797v-8.679h-10.797zM5.397 286.333h10.797v-8.679h-10.795zm-5.392 8.681h10.797v-8.679h-10.797zm21.587-34.709h5.397v-8.677h-5.397zm32.388 26.028h5.397v-8.679h-5.397zm0 95.456h5.397v-8.679h-5.397zm-26.996 86.76h5.397v-8.676h-5.397zm53.991 0h5.397v-8.676h-5.397zm-32.389-60.73h16.195v-8.677h-16.195zm-10.8-8.682h16.194v-8.676h-16.194zm5.392-8.679h5.397v-8.679h-5.397zm-10.784 17.361h10.795v-8.677h-10.795zM37.787 416.487h16.194v-8.677h-16.194zm5.392 8.681h5.397v-8.677h-5.397zm16.194-8.681h16.194v-8.677h-16.194zm5.409 8.681h5.397v-8.677h-5.397zM70.176 407.819h10.795v-8.677h-10.795zm-10.803-8.682h16.194v-8.676h-16.194zm5.409-8.679h5.397v-8.679h-5.397zm21.586 17.361h10.798v-8.677h-10.798zM91.761 416.487h16.194v-8.677h-16.194zM102.563 407.819h10.797v-8.677h-10.797zm-10.802-8.682h16.194v-8.676h-16.194zm5.409-8.679h5.397v-8.679h-5.397zm0 34.711h5.397v-8.677h-5.397zm-97.165-17.35h10.797v-8.677h-10.797zM5.397 416.487h16.195v-8.677h-16.195zM16.199 407.819h10.798v-8.677h-10.799zm-10.802-8.682h16.195v-8.676h-16.195zm5.393-8.679h5.397v-8.679h-5.397zm0 34.711h5.397v-8.677h-5.397zm-5.393-69.412h21.593v-8.677h-21.593zm26.997 0h21.589v-8.677h-21.589zm26.979 0h21.593v-8.677h-21.593zm26.995 0h21.593v-8.677h-21.593zm-43.189-17.361h26.991v-8.679h-26.991zm-37.782 0h26.991v-8.679h-26.991zm75.579 0h26.991v-8.679h-26.992zm26.98-34.7h5.397v-8.679h-5.397zm-107.95 0h5.397v-8.679h-5.397zm48.581-43.39h5.397v8.679h-5.397zm10.786 0h5.397v8.679h-5.397zm0-17.354h5.397v8.677h-5.397zm-10.786 0h5.397v8.677h-5.397zm-37.796 234.281h10.797v8.679h-10.797zm75.577-164.867h5.397v-8.679h-5.397zm-64.776 0h5.397v-8.679h-5.397zm26.992-8.673h16.194v8.676h-16.194z"/></g></g></svg>