<svg xmlns="http://www.w3.org/2000/svg" xmlns:xlink="http://www.w3.org/1999/xlink" height="512" width="512" viewBox="0 0 512 512"><defs><radialGradient id="a"><stop offset="0" stop-color="#ffef5d"/><stop offset="1" stop-color="#ea5700"/></radialGradient><radialGradient id="b"><stop offset="0" stop-color="#952d1a"/><stop offset="1" stop-color="#570a00"/></radialGradient><radialGradient xlink:href="#a" id="c" gradientTransform="scale(1.226 .816)" cx="247.075" cy="238.328" fx="247.075" fy="238.328" r="35.95" gradientUnits="userSpaceOnUse"/><radialGradient xlink:href="#a" id="d" gradientTransform="scale(.936 1.068)" cx="321.991" cy="152.954" fx="321.991" fy="152.954" r="10.578" gradientUnits="userSpaceOnUse"/><radialGradient xlink:href="#b" id="e" gradientTransform="scale(1.224 .817)" cx="364.21" cy="237.789" fx="364.21" fy="237.789" r="36.034" gradientUnits="userSpaceOnUse"/><radialGradient xlink:href="#b" id="f" gradientTransform="scale(.956 1.046)" cx="468.154" cy="156.129" fx="468.154" fy="156.129" r="10.739" gradientUnits="userSpaceOnUse"/></defs><path fill="#ce1126" d="M0 0h512v512h-512z"/><path fill="#003f87" d="M0 36.571h512v438.856h-512z"/><circle cx="256" cy="256" r="201.143" fill="#fff"/><circle r="166.719" cy="254.976" cx="256" stroke="#552300" stroke-width="4.201" fill="none"/><path d="M236.739 78.07c15.078-16.176 28.712 2.51 28.348 11.267-.364 8.756-15.572 28.074-29.334 12.527 14.257 3.65 18.517-12.29 25.728-12.448-7.21.159-10.157-15.626-24.742-11.344zm-156.949 126.853c-7.928-20.585 14.996-24.429 22.741-20.225 7.748 4.204 18.454 26.297-1.687 31.65 9.615-11.066-2.892-21.923.16-28.407-3.052 6.484-18.615 2.11-21.214 16.983zm338.289-20.357c20.652 8.094 8.035 27.47-.322 30.304-8.356 2.834-32.006-4.243-22.386-22.604 1.732 14.511 18.249 12.685 21.007 19.299-2.76-6.615 11-15.054 1.7-27zm-270.029 218.009c-22.094-2.196-15.28-24.253-8.02-29.241 7.26-4.988 31.96-4.582 27.75 15.686-5.655-13.49-21.042-7.262-25.514-12.878 4.47 5.615-6.446 17.459 5.784 26.433zm223.293-15.964c.316 22.034-22.54 17.826-28.362 11.237-5.82-6.59-8.225-30.989 12.545-29.147-12.86 7.112-4.875 21.575-9.988 26.622 5.114-5.047 18.215 4.369 25.805-8.71zm-275.456-223.549c-2.014-21.946 21.1-19.486 27.41-13.357 6.312 6.128 10.591 30.273-10.26 30.013 12.277-8.067 3.198-21.882 7.907-27.303-4.709 5.422-18.496-2.97-25.057 10.648zm23.675 205.875c-21.895-3.673-13.594-25.222-6.012-29.714 7.583-4.49 32.199-2.43 26.618 17.51-4.723-13.841-20.5-8.656-24.579-14.56 4.08 5.905-7.618 16.992 3.973 26.763zm173.015-289.959c19.884-9.808 25.941 12.466 22.467 20.524-3.472 8.057-24.603 20.756-31.905 1.37 12.02 8.438 21.71-4.962 28.507-2.568-6.797-2.394-3.903-18.188-19.069-19.326zm42.312 335.22c-9.857 19.746-28.256 5.644-30.402-2.857-2.145-8.502 6.943-31.297 24.572-20.243-14.714.496-14.264 16.984-21.135 19.157 6.87-2.174 14.194 12.138 26.965 3.942zm96.553-190.577c16.708 14.517-1.746 28.552-10.573 28.43-8.83-.12-28.703-14.68-13.418-28.76-3.288 14.243 12.885 18.037 13.241 25.186-.358-7.149 15.46-10.504 10.75-24.856zm-280.504-116.06c4.985-21.474 26.172-11.98 30.243-4.201 4.07 7.777.543 32.04-19.184 25.337 14.199-3.863 9.918-19.799 16.095-23.49-6.178 3.691-16.639-8.553-27.153 2.354zm-65.67 184.003c-19.456-10.622-4.47-28.259 4.18-30.022 8.649-1.763 31.209 8.226 19.324 25.231.132-14.608-16.485-14.871-18.379-21.777 1.894 6.906-12.828 13.552-5.125 26.568zm281.119-170.24c21.977-3.16 20.726 19.877 14.893 26.457-5.833 6.579-29.9 12.1-30.743-8.579 8.767 11.74 22.185 2.01 27.891 6.389-5.703-4.38 2.01-18.488-12.04-24.267zm-124.999 313.999c-20.274 8.99-25.404-13.512-21.6-21.422 3.802-7.908 25.442-19.735 31.934-.068-11.662-8.92-21.897 4.072-28.59 1.405 6.693 2.667 3.15 18.328 18.256 20.084zm181.902-122.921c9.155 20.076-13.495 25.274-21.482 21.539-7.987-3.736-20.007-25.155-.221-31.692-8.932 11.614 4.208 21.71 1.55 28.364 2.658-6.655 18.457-3.21 20.154-18.21zm-346.838-64.666c-12.737-18.052 8.555-27.315 17.1-25.107 8.546 2.207 24.35 21.051 6.122 31.106 6.615-13.054-8.18-20.565-6.807-27.592-1.373 7.025-17.54 6.54-16.416 21.593zm119.778 174.234c-20.84 7.612-24.427-15.187-20.094-22.82 4.334-7.637 26.727-17.984 31.867 2.072-11.028-9.682-22.122 2.595-28.62-.516 6.496 3.11 1.893 18.497 16.846 21.263zm-6.012-334.992c12.348-18.317 28.754-1.972 29.774 6.732 1.02 8.705-10.96 30.144-27.002 16.922 14.656 1.395 16.357-15.011 23.453-16.284-7.097 1.272-12.493-13.86-26.225-7.37zm213.514 268.985c1.333 21.997-21.695 18.831-27.811 12.511-6.12-6.319-9.646-30.585 11.189-29.685-12.523 7.686-3.877 21.773-8.752 27.046 4.876-5.273 18.396 3.538 25.375-9.872zm-5.662-207.401c21.767 4.36 12.78 25.639 5.057 29.887-7.723 4.25-32.26 1.413-26.044-18.343 4.276 13.983 20.212 9.3 24.1 15.329-3.887-6.028 8.16-16.74-3.113-26.873zm-275.661-15.503c.21-22.037 22.961-17.29 28.62-10.565 5.662 6.727 7.482 31.176-13.239 28.842 13.029-6.806 5.39-21.453 10.623-26.38-5.232 4.927-18.103-4.794-26.004 8.103zm-27.525 198.625c-19.81-9.956-5.439-28.09 3.145-30.145 8.585-2.053 31.473 7.165 20.181 24.563-.372-14.606-16.988-14.304-19.117-21.144 2.13 6.84-12.355 13.98-4.21 26.726zm237.916-234.603c20.774-7.782 24.551 14.984 20.284 22.655-4.268 7.672-26.574 18.205-31.883-1.809 11.109 9.59 22.102-2.778 28.623.28-6.523-3.059-2.049-18.484-17.024-21.126zm-44.093 335.774c-16.156 15.15-28.47-4.4-27.507-13.112.964-8.715 17.463-26.99 30.124-10.568-13.973-4.582-19.318 11.046-26.524 10.726 7.206.318 9.062 16.264 23.906 12.954zm141.557-168.53c15.158 16.106-4.619 28.234-13.39 27.236-8.773-.996-27.077-17.462-10.447-29.95-4.709 13.845 10.998 19.23 10.63 26.377.369-7.149 16.445-8.915 13.207-23.663z" fill="#007f00"/><path d="M235.756 101.864c14.254 3.649 17.827-12.098 25.036-12.256-4.208 5.027-15.186 17.84-25.036 12.256zm.983-23.794c15.078-16.176 28.712 2.51 28.348 11.267-12.237-21.333-16.067-18.043-28.344-11.266zm-135.895 138.27c9.615-11.065-3.023-21.224.028-27.709 2.677 5.972 9.38 21.422-.028 27.71zm-21.054-11.417c-7.928-20.585 14.996-24.429 22.741-20.225-24.694 1.433-23.419 6.298-22.74 20.225zm315.587-12.657c1.732 14.511 17.817 12.117 20.576 18.73-6.246-2.075-22.256-7.597-20.576-18.73zm22.702-7.7c20.652 8.094 8.035 27.47-.322 30.304 15.605-19.047 11.13-21.397.322-30.304zm-250.297 204.462c-5.653-13.491-20.471-6.835-24.942-12.45 6.578.306 23.499 1.286 24.942 12.45zm-19.732 13.547c-22.094-2.196-15.28-24.253-8.02-29.241-9.78 22.547-4.826 23.597 8.02 29.241zm207.473-33.874c-12.86 7.112-4.51 20.965-9.623 26.012-.444-6.521-1.39-23.315 9.623-26.012zm15.82 17.91c.316 22.034-22.54 17.826-28.362 11.237 23.688 7.076 24.176 2.072 28.362-11.237zm-258.303-206.899c12.277-8.067 2.879-21.245 7.59-26.666.945 6.47 3.182 23.142-7.59 26.666zm-17.153-16.65c-2.014-21.946 21.1-19.486 27.41-13.357-24.163-5.256-24.262-.231-27.41 13.357zm44.278 193.668c-4.722-13.838-19.96-8.189-24.04-14.091 6.542.744 23.358 2.856 24.04 14.092zm-20.603 12.207c-21.895-3.673-13.594-25.222-6.012-29.714-11.29 21.843-6.422 23.222 6.012 29.714zm163.584-268.065c12.02 8.438 20.998-5.024 27.795-2.63-5.733 3.216-20.586 11.32-27.795 2.63zm9.431-21.894c19.884-9.808 25.941 12.466 22.467 20.524-3.808-24.256-8.565-22.531-22.467-20.524zm36.485 312.118c-14.713.496-13.659 16.607-20.529 18.778 2.605-6.002 9.491-21.371 20.53-18.778zm5.827 23.102c-9.857 19.746-28.256 5.644-30.402-2.857 17.819 17.03 20.554 12.801 30.402 2.857zm72.561-190.905c-3.288 14.243 12.672 17.36 13.028 24.508-5.178-4.039-18.383-14.585-13.028-24.508zm23.992.328c16.708 14.517-1.746 28.552-10.573 28.43 21.152-12.725 17.733-16.434 10.573-28.43zm-269.445-94.925c14.199-3.862 9.417-19.29 15.595-22.983-1.137 6.438-4.253 22.972-15.595 22.983zm-11.059-21.135c4.985-21.474 26.172-11.98 30.243-4.201-21.305-12.477-22.98-7.734-30.243 4.201zm-42.168 179.21c.13-14.61-16.132-14.254-18.023-21.16 5.93 2.84 21.109 10.327 18.022 21.16zm-23.502 4.793c-19.456-10.622-4.47-28.259 4.18-30.022-17.907 16.937-13.767 19.83-4.18 30.022zm265.268-152.361c8.767 11.739 21.53 1.73 27.234 6.108-6.459 1.28-23.119 4.38-27.234-6.108zm15.851-17.879c21.977-3.16 20.726 19.877 14.893 26.457 4.01-24.225-1.052-24.057-14.893-26.457zm-114.667 292.516c-11.662-8.92-21.189 4.164-27.88 1.493 5.863-2.977 21.037-10.471 27.88-1.494zm-10.332 21.483c-20.274 8.99-25.404-13.512-21.6-21.422 2.802 24.391 7.627 22.86 21.6 21.422zm160.194-133.069c-8.932 11.616 4.298 21.008 1.64 27.662-3.03-5.803-10.653-20.827-1.64-27.662zm21.708 10.148c9.155 20.076-13.495 25.274-21.482 21.539 24.566-2.899 22.998-7.679 21.483-21.54zm-323.614-58.665c6.615-13.054-8.135-19.857-6.763-26.883 4.057 5.147 14.348 18.514 6.763 26.883zm-23.224-6.001c-12.737-18.052 8.555-27.315 17.1-25.107-23.6 7.353-21.17 11.763-17.1 25.107zm131.543 153.488c-11.029-9.682-21.423 2.733-27.917-.376 6.05-2.58 21.7-9.04 27.917.376zm-11.765 20.746c-20.84 7.612-24.427-15.187-20.094-22.82 1.136 24.522 6.053 23.319 20.093 22.82zm-3.237-311.337c14.656 1.396 15.706-14.714 22.803-15.988-3.365 5.619-12.196 19.976-22.803 15.988zm-2.775-23.655c12.348-18.317 28.754-1.972 29.774 6.732-15.451-19.172-18.715-15.33-29.774-6.732zm196.885 251.812c-12.523 7.686-3.54 21.146-8.416 26.42-.744-6.494-2.463-23.228 8.416-26.42zm16.629 17.173c1.333 21.997-21.695 18.831-27.811 12.511 23.989 5.993 24.245.975 27.811-12.511zm-26.654-195.861c4.276 13.982 19.688 8.817 23.575 14.845-6.514-.95-23.254-3.591-23.575-14.845zm20.992-11.54c21.767 4.36 12.78 25.639 5.057 29.887 11.989-21.474 7.165-23.006-5.057-29.887zm-260.27 2.765c13.028-6.806 5.011-20.852 10.242-25.777.288 6.53.831 23.342-10.242 25.777zm-15.391-18.268c.21-22.037 22.961-17.29 28.62-10.565-23.51-7.632-24.116-2.642-28.62 10.565zm-4.199 193.044c-.372-14.606-16.61-13.7-18.742-20.537 6.025 2.637 21.452 9.607 18.743 20.537zm-23.326 5.581c-19.81-9.956-5.439-28.09 3.145-30.145-17.315 17.532-13.077 20.284-3.145 30.145zm226.314-213.76c11.108 9.59 21.398-2.91 27.92.147-6.029 2.63-21.625 9.218-27.92-.147zm11.602-20.843c20.774-7.782 24.551 14.984 20.284 22.655-1.343-24.514-6.248-23.27-20.284-22.655zm-41.472 312.099c-13.972-4.582-18.618 10.899-25.821 10.58 4.542-4.74 16.378-16.802 25.821-10.58zm-2.621 23.675c-16.156 15.15-28.47-4.4-27.507-13.112 10.749 22.094 14.793 19.064 27.507 13.112zm117.719-171.243c-4.708 13.844 10.856 18.532 10.487 25.68-4.744-4.533-16.818-16.34-10.487-25.68zm23.838 2.713c15.158 16.106-4.619 28.234-13.39 27.236 22.332-10.559 19.304-14.588 13.39-27.236z" fill="#005800"/><g fill="#730000" stroke="#000" stroke-width=".509"><path d="M286.986 128.348s.625-1.46 1.772-.624c1.042.831 1.352 4.48 1.352 4.48l-1.667.831c.001.001.94-1.35-1.457-4.687zm-9.472 32.717s.833-1.145-.312-3.649l1.667-.52s.624 1.979-.209 4.17l-1.146-.001m28.856-5.735l-3.957 2.399 1.98.938 4.792-2.814-2.814-.522m-53.033 15.523c-1.044.835-1.147 2.294-1.772 3.126-.518.833-2.083 1.978-2.186 3.23-.208 1.249-.311 2.082.209 3.751.621 1.665 3.227 9.064 2.186 14.692-1.147 5.624-.727 8.02-.31 8.856.413.834 1.666 3.124 2.395 3.124 1.667-.207.938-.728 1.561-1.77 1.563-2.71 0-23.652-.729-29.487-.519-4.48-2.606-8.545-2.81-8.96-.208-.523-.624-1.876-.939-2.71-1.561-3.753-3.437-6.98-3.437-14.799 0 0-5.106 1.15-9.48-8.752-2.291-5-5.626-4.48-9.583-6.145l1.77-1.149s3.335 1.668 5.002 1.668c1.667 0 1.147-3.334 1.147-3.334l1.667-1.669v7.297c0 3.334 4.583 7.918 7.292 9.273 1.667.831 3.855-2.607 3.335-5.939-.521-3.334 0-7.814 0-7.814l2.292 1.353s-.834 1.458-.625 2.292c.31.835 1.456-.833 2.29-1.668 0 0 .207.21 1.042.21 0 0-1.667 2.81-2.499 4.272-.831 1.355-.831 6.67-.831 8.65 0 1.98.73 6.562.73 8.02 0 1.046 1.976 5.315 3.542 7.922.52 1.04 1.77 3.749 1.77 3.749 1.25 1.98 1.352 3.334 2.083 5.003.416.832 1.147 3.229 1.667 7.399.21 1.04.416 5 .732 7.603.31 2.5 2.396.523 4.893-1.249 2.5-1.876 2.5-6.356 2.5-6.356s1.981-1.667 1.668-.729c-.209 1.043 1.043 2.084 1.043 2.084-1.561 3.541-.623 3.125.938 3.021 1.562-.21 6.978-4.272 6.978-4.272.73-.21 3.96-.21 3.439 0-.625.313-1.46 1.876-1.46 1.876l3.543-.418c-1.25.938-5.94 3.647-6.978 4.272-1.147.731-6.77 3.442-9.167 4.377-2.396 1.04-7.085 3.334-7.293 5.73-.105 2.398.311 8.857 0 10.94-.209 2.083-1.043 11.359-1.043 11.359h-11.148s2.189-8.128-.105-10.315c-2.187-2.292-7.293-8.962-10.626-11.256-3.335-2.186 2.186-.517 2.186-.517v-2.294l5.104 6.15s8.854-7.815 0-18.443c-2.812-3.334-5.626-8.439-7.812-8.962-2.292-.625-3.439-1.146-7.294 0-3.96 1.145-13.44 1.145-17.398-5.108l3.335-.52 2.81-1.146s-1.145 3.96 6.772 3.96c7.814 0 8.959 0 8.334-7.294l2.292-1.146 1.668 1.67s-1.147 3.958-.521 5.624c.52 1.666 3.335 2.814 5.522 4.48.938.73 1.667.835 2.292.835.937-.105 1.145-.105 2.395-1.356 1.876-2.084 1.458-1.98 3.334-3.644 0 0 .938-1.46 1.147-1.67l1.147 3.023h-.006zM255.007 165.335c.414-.414 1.25-1.98 1.98-3.334 1.25-2.084 2.709-3.334 4.374-5.94 1.561-2.396 2.188-5.937 1.561-8.437l1.458.833.107 3.96s1.98-1.67 2.814-2.085l.831.415s-6.25 6.462-12.085 16.88l-1.042-2.29.002-.002zm-54.795-21.668c.834 1.455 1.669 4.272 4.168 6.459l1.667-.52s-3.854-4.48-3.854-6.459l-1.98.52m9.789-2.509s.52 5.315-.832 7.294l1.666-.83s1.146-3.647.833-5.628l-1.667-.832v-.004zm54.907-16.773s-.315 7.501 1.146 12.087l1.978-.623s-.311-1.359 1.354-1.984c1.668-.52 5.626-2.186 7.604-3.855l-.623-1.665s-3.02 2.396-4.48 3.02c-1.353.522-2.187 1.146-3.334.835-1.147-.313-2.498-2.189-1.667-6.462l-1.978-1.353m22.077 35.011s-.519 5.313-.207 7.607l1.77.418s-.413-6.356.73-6.877l-2.293-1.148m7.926 3.963s-1.98 3.438-4.27 3.752l3.646-.731s1.044-.52 2.605-2.187l-1.981-.834"/></g><g fill="#289400" stroke="#030" stroke-width=".509"><path d="M263.035 147.62l1.353.83 1.458.211s1.561 1.458 3.334 2.811c1.353 1.149 1.353-.207 1.353-.207l.831 3.334h1.147s-.313 2.188-.313 3.335l1.98-1.669 2.292 1.98s1.667-1.457 2.5-1.457c.83 0 1.144-.832 1.144-.832h.107c-5.523-2.607-7.917-5.314-6.25-8.128 2.709-4.688 7.188-1.668 8.645-1.04l20.21 10.834s1.354-.833.416-1.669c-1.043-.83-1.459-2.916-1.147-3.749.314-.833 2.605 2.603 3.75 2.916 1.147.313 3.75.73 3.75.73l-.105-1.042s3.334 2.291 3.334 3.439c0 0 2.397-1.25 1.561-1.98-.832-.728 3.648 1.772 3.96 3.128l.936-1.046c-.105 0 .313-3.334 1.458-4.896 1.044-1.561 2.189-1.98 2.189-1.98s1.043-1.772 2.082-1.772c0 0-1.043-.727-1.459-1.561-.52-.836-1.77-1.251-1.77-1.251s1.561-1.145 1.98-1.667c.416-.623.834-.732.834-.732s-2.399-1.978-4.066-2.288c0 0-.104-2.712-2.187-2.919h.938s-1.563-2.917-3.022-3.02c0 0 .938-1.042 1.772-1.146 0 0-1.772-2.292-4.166-1.458l1.562-.623s-1.146-1.25-4.686-.625c0 0 .31-1.458-1.25-2.606 0 0-1.354.103-1.354 1.145 0 0-1.25-1.145-2.812-1.145-1.563 0 .52 1.668.52 1.668s-2.083-1.355-3.334-.938c0 0 .52-2.396-.833-3.648 0 0-1.56.834-1.98 1.876l-.416-1.042s-2.084 2.501-2.5 1.772c-.312-.416-.623-2.186-.623-2.186l-1.248 1.876.207-2.607s-1.458.834-2.604 3.54c0 0-1.46 1.356-1.46 2.604 0 0-1.145-1.352-2.188 0-.938 1.458 0 1.149 0 1.149s-.416.517-1.458.727l.209.831s-1.353-.727-2.395-.414l.519 1.249s-2.708.21-2.81-1.977c0 0-2.293-1.148-2.606.104l-1.667 1.042s-.521-1.042-1.46-1.25c-1.043-.312-.208 1.353-.208 1.353s-.311-1.249-1.562-1.876c-1.248-.518-.208 1.149-.208 1.149s-1.667-1.356-.831-2.397c0 0-1.563 1.459-.834 2.814l-1.042.728s-.521-.52-.418-.938c.107-.417-1.77 1.249-1.77 1.249s-1.146-2.707 0-2.707c.104 0-1.98-.104-2.291 2.294 0 0-1.354.103-2.605.517-1.354.418.938 1.356.938 1.356s-1.98-.418-3.126.209l.73.938s-.73-.73-2.5-.107c-1.877.52.415.834.415.834s-1.876-.416-2.813 0c-.938.418.312 1.146.312 1.146s-3.437-1.042-3.958-.727c-.52.31 1.146 1.98 1.146 1.98s-2.083.52-2.498 2.084l1.875.727s-.832.416-1.252 1.251c-.412.834 1.252.415 1.252.415s-2.29 1.67-2.29 2.917c0 0 1.665.52 2.915-.728l.416-.833.105.833s2.397-1.04 2.397-1.665c0-.52-.416.832-.416.832l2.397-1.25 1.56 1.043v-.002h.002zM261.048 115.118l-.52-2.292 5.312.623.937-2.186s2.5 1.145 3.334 1.975c0 0 4.895-1.248 6.356-.727l-.625 2.294s4.478.31 5.938.831c1.354.52-.623 1.67-.623 1.67s5.103.622 7.293 1.978c2.291 1.352 2.291 2.5 1.146 2.81l2.81 4.48s-4.478.52-5.311 1.666c-.834 1.145-1.667-1.145-1.667-1.145l-.834 3.125s-2.812-1.46-3.958-2.5c0 0-1.352 1.668-.52 2.5l-5.105-3.334s-2.189-.311-2.189 1.669c0 0-2.497-2.814-3.124-3.649l-2.814.835s-.831-1.145-1.874-1.46c-1.147-.206-.313 1.46-.313 1.46l-1.667-1.98-1.666-1.976s-1.46 1.976-2.605 1.976c-1.045 0-1.045-1.353-.834-2.291.312-.834-3.334-1.04-3.646 0 0 0-1.044-4.168 2.812-5.313l3.958-1.042v.003zm-20.203 14.275l-1.77 1.668-1.044-.52-2.083 2.29-.417-1.252-1.146 1.876-1.77-.624-.834 1.354-1.561-.313s-1.354 1.25-2.189 1.562c-.832.211 0-1.873 0-1.873s-1.25 2.083-2.188 2.083c-.831 0-.519-.938-.519-.938s-.52 1.35-1.562 1.562c-.938.104-.522-1.042-.522-1.042l-1.668 1.249v-1.042l-.729-.311s.416-1.876 1.147-2.292c.729-.418-.73-1.665-.73-1.665l.73-.834s-2.085-.52-2.085-.104c0 0 1.043-2.81 2.5-3.336l.105-3.124s1.46-1.248 2.813-1.356c1.457-.208-.416-2.396-.416-2.396l3.333-1.975.416-2.397 5.104.413 1.042-2.186 4.064 1.04 3.437-1.771 2.5 2.917 3.75.314s-.105 2.603-.105 3.335c0 0 4.478 1.352 5 1.771 0 0-.833 2.709-.833 3.229 0 0 3.127-.834 4.065-.625 0 0 .313 2.919.415 3.647 0 0 5.312 1.669 5.626 2.607 0 0-1.147.727-1.771 1.665 0 0 .623 3.231.623 4.272l-.416.624s-1.563-1.458-2.813-1.666l-1.044 2.291-1.873-1.25-1.146.105s-.938-1.146-1.668-1.146l-.106-1.042-1.458.938s-2.29-1.147-2.29-1.876c0-.624.104-1.67.104-1.67l-2.396 1.67s-.52-1.248-.415-1.772c.105-.52-.937 1.252-.937 1.252s-1.251-2.19-1.147-2.607l-.313 1.773s-2.5-.831-2.811-2.5v-.002zM207.503 139.602s4.377 2.191 4.377 3.232c0 0 1.147-2.294.52-3.128l1.668 1.15s.518-2.084-.105-2.711c-.521-.52 3.748-2.289 4.686.522 0 0 2.606-2.708-2.396-5.002 0 0-.414-1.665 2.605-1.248 0 0-.207-1.043-.937-1.459h2.917s-1.77-1.46-4.376-1.876c-2.498-.417-.938-.728-1.042-1.253-.209-.52 0-2.396 0-2.396s-1.458-.52-2.605.104l.416-.522s-2.71-.727-3.75-.103c0 0-1.562-.625-1.353-2.294 0 0-1.563-.103-2.29 1.562 0 0-1.459 1.669-3.437 1.669-.416 0-1.876-.835-1.876-.835l-1.252 2.918-1.978-.104.624 1.145s-3.021-.83-3.96 0c0 0 1.148 1.773.833 3.022 0 0-2.397.417-2.917.834-.625.413.833.727.833.727s-2.709.834-3.336 1.67l1.045.83-1.251 1.67 1.043.206s-1.77.522-2.707.834c-.938.31 1.666.52 1.666.52l-1.249 1.145 1.98.31s-1.562 4.17-1.667 6.15c0 0 2.397-2.918 3.02-3.124l-1.874 3.125s3.543-1.145 3.856-1.67c.311-.623.624-1.144.624-1.144l.105 1.771s1.354-1.876 1.562-2.606c.105-.727 2.187.73 2.187.73v-1.044s1.876.624 2.5.731c.729.103.832-.313.832-.313l1.77-.208-.313 1.455s1.25-.832 1.562-1.666c.209-.835.832 0 .832 0l.832-3.334h1.77l.006.008zm-14.274 14.797l1.667 3.438c-1.354.103-3.334 1.665-3.334 1.665.311 5.732-1.145 5.418-1.145 5.418.413 1.043-.265 2.975-.265 2.975l8.286-4.953.104-.52 9.794-4.588.31.52 2.814-1.56 1.98 5.207-1.98 1.146c.106 1.771 2.188 4.899 2.188 4.899l2.605-.623 2.813-1.046s.106 1.563.106 1.046c0-.42 3.02-1.458 3.02-1.458l1.353 1.354c1.045-.104 2.917-2.608 2.917-2.608l2.188.836s.73-1.25.73-2.187c0-.834 2.708-.834 2.708-.834l1.876 1.353 2.396-1.977s.729 1.458 1.667 1.665c1.043.104 3.646 2.082 3.646 1.669 0-.416 1.147-2.71 1.147-2.71l4.374 1.772c-.623-1.98-2.081-4.376-2.081-4.376s2.08-1.665 1.666-2.083c-.415-.417-1.666 0-1.666 0l1.248-2.5h-1.666l.52-.623-2.71-1.145 1.458-2.918c-.625-.731-7.812-2.19-7.812-2.19l1.667-1.562s-.834-1.248-1.667-1.248c-.834 0-5.21.104-5.418-.31-.106-.418-1.876-1.984-1.876-1.984l-2.71 1.983-1.353-.417-2.397.938s0 1.352-.314.414c-.31-.835-2.498-3.021-2.498-3.021-.416.727-3.23 4.062-3.23 4.062s-.415 1.773-1.353.52c-1.043-1.248-3.23-2.603-3.543-1.56-.312 1.147-2.29 2.186-2.71 1.875-.414-.315-2.708-.104-2.917.52-.104.728-2.605 2.604-2.605 2.604-1.562-.728-4.064-.31-4.064-.31s-.73 1.145-.832 2.083l-5.103 1.35h.004v-.001zm47.094 42.199v-2.19l2.498 1.669 1.46-1.669 1.875 1.874 1.146-1.874v3.023l2.813-2.498 1.665.727v-2.396s1.982-3.337 1.147-3.96l1.667-.52s-2.814-2.813-3.647-3.336c-.832-.622-1.979-.622-1.979-.622s-2.188-2.192-3.646-2.814c-1.354-.52-2.19.622-2.19.622s-.832-1.665-2.29-1.979c-1.352-.31-1.352 1.146-1.352 1.146s-1.044-1.042-2.397-1.563c-1.354-.622-.417 1.25-.417 1.25l-4.793-1.457.623 1.457-4.478-1.142.519 1.666-3.125-.524-.208 1.357-4.48.832.834 1.458-2.813-1.146v1.98l-3.125 1.145 1.146 1.045s-4.166 1.98-5.002 2.604c-.831.52 1.669 1.665 1.669 1.665l-4.48-.625 1.668 1.46-3.96 3.648 2.813 1.98-1.667 2.5 4.166.83 1.667 2.815 3.438-.625v3.124l5.001-3.958s3.648 3.23 3.959 2.292c.208-.833.208-3.647.208-3.647h1.77v-2.811l1.354 1.145 2.292-3.337 3.02 4.17 2.29-5.312 3.334.52h.007zm20.418-12.606l-.52-4.792-1.457 1.458.621-4.48-2.288-.418.831-4.374-1.666-.836.414-2.083 1.668-1.248 3.02-2.918 6.978.107.833-2.293 5.002.834c.832.938 3.436-1.876 3.436-1.876h1.043l1.147 2.185s3.646-.52 5.312.625l-1.98 2.71 3.646.31 2.499.525 2.605-.835 3.335-.211.833 1.355h3.126l-1.043 1.249 4.063 1.876-.832.834s2.291.834 3.958.834h.833s.832 1.977-.315 2.81c0 0 1.147 2.814 3.648 3.337 2.5.52 2.5.52 2.812 1.144.314.522 0 3.336-2.812 3.336v2.814s-2.189 1.98-2.5 2.81l-1.668-1.145s-1.456 1.669-1.456 2.814c0 0-3.648-4.795-5.002-5.005-1.459-.31-1.147 2.71-1.147 2.71l-3.957-3.333-.521 2.29-3.334-2.81-1.98 1.35-3.544-3.644-3.437.418 1.352-1.773h-4.166l-.832-3.644-.624 3.02-2.499-1.666-3.23 3.541s-.415-.418-.938-2.084c-.519-1.668-1.98 1.978-1.98 1.978l-1.146-2.603-1.354 2.603s-1.147-1.978-2.291-2.603c-1.043-.52-2.187 3.124-2.498 4.793l.002.004zm.625 10.937l.208-1.665 5.937-2.294 5.002-1.876 2.498-1.145 1.146 1.978 1.459-2.81 2.291 2.915 1.25-1.563 1.979 1.458h1.667l.312 2.192s4.168.31 4.48-.52c.312-.835.83 2.81.83 2.81l3.959.52.833 4.48s1.977 4.17 1.354 5.836c-.522 1.772-2.19-2.187-2.19-2.187s-.31 3.125-.623 3.959c-.208.831-5.313-.834-5.313-.834l-2.187 4.168s-2.29-3.334-3.333-3.334c-1.147 0-1.147 3.334-1.147 3.334s-3.334-3.96-4.793-5.628c-1.354-1.665-1.667 1.668-1.667 1.668s-2.188-3.647-2.188-4.688c0-1.145-1.98-2.293-1.98-2.293s-3.439 3.96-5.94 5.003c0 0 .313-2.5-.52-3.334-.832-.835-3.334 1.665-3.334 1.665s-1.771-3.855 0-7.814l.01-.001z"/></g><g stroke="#004b00" stroke-width=".509" fill="none"><path d="M288.87 132.823l.522 2.084s1.874-.418 3.126-.312c0 0-.312 1.666-.73 2.396 0 0 2.5-.416 3.647.311l-.521 1.248 2.917 1.252-2.708 2.187s4.373 1.56 5.209 2.814c0 0-2.812 1.978-3.23 1.876-.415-.211-.104.83.625 1.768l-2.397-.103s.938 2.19.832 3.02c-.104.834-3.958.624-3.958.624m14.996-5.618s.73-4.167-.414-5.21c0 0 2.708 2.294 4.478 2.397 1.876.107-.105-3.438-.105-3.438s2.605 1.354 3.855 1.666c1.25.21-.938-2.604-.938-2.604s.73-1.356 2.812-.104m-48.436-16.566s.102-.938-.316-1.458c-2.498-3.438 2.607 2.606 3.647 2.814m4.789-.004s1.667 1.248 2.5 1.248-.52-3.334-.937-3.749c-.416-.417 3.02 1.353 4.272 1.563 1.25.31 1.457-2.084 1.457-2.084s3.855.624 4.689 1.146m-26.778-.725s-.312-2.187-.414-3.125m-25.831 13.549c-.209-.417 1.045-2.293.521-3.127 0 0 .73.627 1.459.731.624.104.413-2.398.413-2.398l.834.311s2.188-1.042 1.77-1.876c-.417-.831 1.459 1.249 1.459 1.249s1.25-1.249 1.25-1.769c0-.525 1.457 1.248 1.457 1.248s1.562-.313 1.562-1.248c0-.938 1.98.31 1.98.31s.831-1.144.73-1.876m-21.043 10.422s.936-2.187-.106-3.645m-25.207 10.516c.105-1.04.623-3.855.105-4.272-.52-.413 1.044.417 2.292.73m9.891-.411c-1.25-1.252-1.98-1.876-3.957-1.876m-17.189 8.85c.313-.727.833-2.5.52-3.541m26.667 55.222l1.354-2.814 1.667 3.959 1.145-2.5.416.834 2.5-2.709 2.709 4.063m43.447-17.606l1.77-3.541 2.399 1.251 1.147-3.439 2.497 1.563 1.458-3.229 2.813.728.207-2.291s1.98 1.145 2.5 1.978c.623.836 0-2.81 0-2.81l2.291 1.04s1.667-1.668-.623-2.606M281.16 173.988l2.5 3.647 2.081-2.396 1.876 4.062 2.396-1.458 3.437 1.98 1.561-1.249 3.75 2.709 1.563-3.229 3.334 1.042 2.186-3.75m-90.005-9.796s1.459-2.504.938-3.65c-.626-1.145 3.02 1.981 3.02 1.981s.832-2.501.312-3.646c-.626-1.145 4.168 3.334 4.168 3.334s.834-3.854 0-4.69c-.834-.833 4.584 1.149 4.584 1.149s2.188-.624 1.354-1.772c-.834-1.146 3.644 1.666 3.644 1.666s1.042-2.81 0-3.856c-1.146-1.144 3.334 1.355 3.334 1.355l-1.666-3.021 3.646.207-.312-3.334m32.294 48.131l2.396-1.146 2.084 2.084 2.292-3.646 2.812 2.708.416-2.708 3.02 1.252.626-1.67 3.333 1.774.312-2.502 1.666.522.314-1.668"/></g><path d="M216.668 317.983a74.491 74.491 0 0 1-6.356-13.856l45.11-39.7 45.112 39.593c-1.563 4.583-3.648 9.483-6.563 14.173l-.36.576c-.832-.31-3.392-1.306-3.392-1.306s-1.46 1.355-2.602 1.458c-1.563.21-2.917-1.352-2.917-1.352s-1.98 1.666-3.96 1.352c-1.98-.206-2.813-1.458-2.813-1.458s-2.083 1.668-3.542 1.355c-1.354-.316-2.292-1.254-2.292-1.254s-1.25 1.566-3.02 1.254c-1.667-.316-3.23-1.254-3.23-1.254s-2.601 1.144-4.27 1.354c-1.665.315-3.126-1.459-3.126-1.459s-2.187 1.459-3.02 1.459c-.833 0-3.958-1.459-3.958-1.459s-3.23 1.043-4.375 1.043c-1.043 0-4.27-1.353-4.27-1.353s-3.022.832-4.374.832c-1.46 0-3.542-.832-3.542-.832s-2.497 1.146-3.855.832c-1.458-.31-2.605-.832-2.605-.832s-2.708 1.146-4.48.832c-1.667-.31-3.646-1.454-3.646-1.454s-.313.831-3.541 1.454h-.107" fill="#9dd7ff"/><path d="M255.427 218.788v45.635l-45.11 39.91c-4.375-12.712-4.688-24.068-4.688-28.964v-56.58h49.798" fill="#fff" stroke="#000" stroke-width=".729"/><path d="M255.427 218.788v45.635l45.005 39.91c4.374-12.712 4.687-24.068 4.687-28.964v-56.58h-49.692" fill="#ffd83c" stroke="#000" stroke-width=".729"/><g stroke="#000" stroke-width=".509"><path d="M226.324 308.5c3.392 1.839 2.243 1.259 9.273 3.748 5.731 1.984 12.396 2.918 22.084 2.918 8.477 0 13.249-.672 15.934-1.413 2.784-.8 3.444-1.922 3.444-1.922l-6.978 7.086s-28.051 1.514-33.13-1.77c-1.978-1.044-6.251-4.48-10.626-8.648v.001z" fill="#730000"/><path d="M267.479 295.27s8.96 5.104 0 14.899m-40.315-1.146l12.918-12.299-1.458 16.464m6.767 1.456v-27.504m22.088 27.504v-29.172m-11.151 29.695v-31.36" fill="none"/><path d="M245.391 288.604l-5.834 1.876 5.834.625v-2.5m10.937-4.281l-6.145 2.294 6.145.207v-2.501m11.151 1.669l-6.146 2.294 6.146.31v-2.607.003zm3.645 13.24c-.312-1.251 3.648-1.145 3.648-1.145s1.147 4.166 0 6.77l-3.333-.624s.312-2.811-.315-5z" fill="#ff0018"/><g fill="#fff"><path d="M229.14 307.354l10.94-10.629-.521 6.356s-5.625 3.645-5.625 6.251l-4.794-1.978m5.827 2.191s1.147-3.334 4.271-5l-.312 6.668-3.957-1.668h-.002zm15.739-18.442s4.478-.625 7.813 0c0 0-.521 4.48 0 5.312 0 0-6.147-1.459-8.646.832 0 0-.834-4.167.833-6.144zm-9.482 1.147s4.48-.625 7.812 0c0 0-.832 5.003-.313 5.835 0 0-5.002-2.814-7.5-.524 0 0-1.667-3.435 0-5.311zM240.906 298.076s4.48-.52 7.814 0c0 0-.52 4.48 0 5.316 0 0-5.834-1.356-8.336.831.001.001-1.146-4.166.522-6.147zm8.96-.829s6.46-.83 9.792-.31c0 0-1.354 3.646.314 6.145 0 0-6.98-1.875-9.586.31 0 0-2.186-4.166-.52-6.145zm-9.472 6.983l8.645.624s-.832 6.356-.312 7.19c0 0-6.979-1.669-8.337.622 0 0-2.292-5.833 0-8.439h.003v.003zm9.79 0s7.497-.522 10.938 0c0 0-1.982 4.796.209 8.96 0 0-9.795-2.81-11.15-.522 0 0-2.289-5.834 0-8.438h.003zm11.458-13.127s4.478-.625 7.813 0c0 0-.519 4.48 0 5.312 0 0-6.146-1.459-8.644.832-.002 0-.836-4.167.831-6.144zm0 6.144s4.478-.52 7.813 0c0 0-.519 4.48 0 5.313 0 0-6.146-1.353-8.644.835-.002 0-.836-4.169.831-6.148zm.522 6.461s4.478-.621 7.916 0c0 0-1.146 6.98-.624 7.814 0 0-5.101-2.396-7.5-.31 0 0-1.457-5.521.208-7.504zM271.432 304.23s1.456 5.312 3.332 5.939l-2.499 3.021s-3.02-2.188-3.334-4.685c0 0 1.978-2.295 2.5-4.275z"/></g></g><g stroke="#000" stroke-width=".61"><path d="M293.765 318.607c-7.187 11.984-18.96 23.234-38.336 30.214-19.69-7.081-31.67-18.855-38.756-30.736l.106-.104c3.228-.628 3.542-1.459 3.542-1.459s1.98 1.146 3.646 1.459c1.77.31 4.48-.834 4.48-.834s1.145.522 2.603.834c1.354.31 3.856-.834 3.856-.834s2.082.834 3.54.834c1.354 0 4.376-.834 4.376-.834s3.229 1.352 4.27 1.352c1.147 0 4.375-1.043 4.375-1.043s3.126 1.46 3.959 1.46c.831 0 3.02-1.46 3.02-1.46s1.457 1.77 3.125 1.46c1.667-.207 4.27-1.352 4.27-1.352s1.562.938 3.23 1.25c1.77.314 3.021-1.25 3.021-1.25s.938.938 2.292 1.25c1.458.314 3.54-1.355 3.54-1.355s.833 1.252 2.815 1.459c1.98.313 3.959-1.352 3.959-1.352s1.351 1.562 2.916 1.352c1.147-.105 2.603-1.459 2.603-1.459s2.605.832 3.542 1.148" fill="#006ac8" stroke="none"/><path d="M291.994 321.321c-1.562.106-1.77-.938-1.77-.938s-2.082 1.773-4.063 1.46c-2.083-.311-3.02-1.667-3.02-1.667s-2.19 1.772-3.648 1.458c-1.458-.208-2.498-1.251-2.498-1.251s-1.354 1.565-3.126 1.251c-1.77-.208-3.335-1.251-3.335-1.251s-2.812 1.149-4.585 1.46c-1.77.314-3.228-1.667-3.228-1.667s-4.064 1.356-4.896 1.356c-.938 0-3.857-1.356-3.857-1.356s-1.978 1.252-3.124 1.252c-1.25 0-4.583-1.46-4.583-1.46s-3.128.836-4.586.836c-1.459 0-3.646-.836-3.646-.836s-2.709 1.146-4.167.836a14.294 14.294 0 0 1-2.605-.836s-2.917 1.146-4.688.836c-1.77-.315-3.855-1.458-3.855-1.458s-.311.726-3.749 1.458h-.105" fill="none"/><path d="M227.297 325.57s-.291.682-3.008 1.28c-.058-.004-.736.16-.736.16l.672-.127c-.096.036-.31.114-.768.256 3.072 4.438 7.674 8.466 12.47 11.697 4.795 3.23 10.306 7.087 19.69 9.839 9.866-3.852 12.499-5.318 18.947-9.636 6.448-4.71 9.808-7.644 13.404-12.477-2.816 1.6-2.411 1.618-3.872 1.408-1.458-.31-2.528-1.376-2.528-1.376s-1.331 1.586-3.104 1.376c-1.77-.31-3.328-1.376-3.328-1.376s-2.314 1.575-4.608 1.472c-1.771-.106-3.232-1.664-3.232-1.664s-4.064 1.344-4.896 1.344c-.938 0-3.84-1.344-3.84-1.344s-1.99 1.248-3.136 1.248c-1.249 0-4.576-1.472-4.576-1.472s-3.118.832-4.576.832c-1.459 0-3.648-.832-3.648-.832s-2.598 1.145-4.16.832c-1.459-.31-2.624-.832-2.624-.832s-2.902 1.145-4.672.832c-1.771-.31-3.872-1.44-3.872-1.44z" fill="#5ac800"/><path d="M255.621 348.682c10.192-4.242 12.033-5.396 18.198-9.166-1.076.03-4.203-.98-3.071-1.302 0 0-1.254 1.13-2.503 1.13-1.147 0-4.48-1.455-4.48-1.455s-3.124.83-4.583.83c-1.46 0-3.647-.83-3.647-.83s-2.71 1.143-4.168.83c-1.459-.31-2.605-.83-2.605-.83s-3.02 1.143-4.686.83c-1.771-.31-3.856-1.457-3.856-1.457s-2.564 1.36-4.174 1.516c4.925 3.607 10.11 7.128 19.575 9.904z" fill="#ffd800"/></g><g stroke="#000" stroke-width=".509"><path d="M248.71 265.564c2.024-1.648 3.186-3.235 2.51-4.467-.76-1.057-1.95.662-3.291.259 0 0-2.024-1.252-2.576-2.149-1.18-1.312-2.699-2.492-3.573-3.62-.927-1.045-4.414-5.654-9.72-10.96-1.526-.996-1.177-4.762-2.27-5.932-.093-.815-10.607-11.223-14.359-14.988-1.516-1.116-2.316-1.84-4.982.577-2.104 1.898-2.86 3.857-.1 6.222l13.677 12.436c1.997 1.941 4.788 2.295 5.958 3.3l13.902 14.216c1.75 1.513 2.59 2.585 1.6 3.878-1.098 2.127.077 2.414.327 2.478.16.089 1.142.086 1.797-.42l1.1-.83z" fill="#b34b00"/><path d="M214.036 228.27l14.293 14.123" fill="none"/><path d="M233.39 234.721c.221-.425.705-1.508 1.216-2.69.2-.467 4.045-6.598 5.962-6.779 0 0 11.958 8.7 11.967 8.814.04.469-5.187 8.287-5.641 7.693-.002 0-14.009-5.88-13.504-7.038z" fill="#fff"/><path d="M241.009 236.77c-1.638-1.273-4.344-2.513-6.528-3.969l-.981 2.048c.79.884 10.738 5.51 12.373 6.4 0 0-1.896-2.173-4.864-4.48z" fill="#ccb8c8" stroke="none"/><path d="M234.476 232.54c1.28.896 3.712 2.432 5.248 3.328 2.944 2.048 4.807 4.304 6.912 5.504" fill="none"/><path d="M210.248 269.804l27.225-33.694c.51-.467 3.034-.493 3.376 2.117l-25.783 35.139s-2.937-.29-4.818-3.562z" fill="#782121"/><path d="M301.507 270.172c-.938.732-2.533.922-2.533.922-1.77-2.084-3.232-4.272-5.731-6.98l-27.192-33.447 2.812-2.708 24.481 28.652c.73.728 5.004 5.21 9.067 10.52.002.003.356 2.082-.904 3.041z" fill="#730000"/><path d="M275.323 234.936l-4.377-5.21s-3.333.416-3.956 2.19c0 0-2.398 3.96-8.753 4.376 0 0 1.77 7.396 9.168 11.355 0 0 2.71-7.607 5.313-8.962-.001.001 2.707-1.98 2.605-3.749z" fill="#fff"/><path d="M264.387 258.068c-.624-.21-1.25 0-2.189.522-.831.522-1.874.311-1.77-.731.104-.938 0-.832 1.146-1.561 1.668-.938 3.855-1.043 5.209-.522l-2.396 2.292m29.685-29.593c-.209-.727-.414-1.455.313-2.393.73-.834.73-2.294-1.044-1.565-1.77.731-2.395 2.71-.936 5.731l1.665-1.773h.002z" fill="#730000"/><path d="M263.762 258.693l30.837-30.633 7.603 8.128s-1.56-.627-2.187-.211c-.52.417.624 1.98.624 1.98s-1.458-.52-2.083-.104c-.729.414 0 2.187 0 2.187s-1.25-.938-1.876-.522c-.52.417 0 2.395 0 2.395s-1.667-.52-2.081-.105c-.418.418 0 2.19 0 2.19s-1.668-.834-2.501 0c-.831.831.416 1.98.416 1.98s-2.083-.834-2.917.415c-.832 1.251.105 2.396.105 2.396s-1.666-.832-2.082-.418c-.417.418 0 2.396 0 2.396s-1.458-.833-2.396.211c-.938 1.146.104 2.084.104 2.084s-1.352-.835-2.084-.42c-.73.42.208 2.395.208 2.395s-1.352-.938-2.29 0c-.938 1.046 0 2.084 0 2.084s-1.147-1.042-2.292 0c-1.043 1.148 0 2.293 0 2.293s-1.665-.833-2.29 0c-.729.831.207 1.981.207 1.981s-1.248-.73-2.082-.316c-.831.418 0 2.294 0 2.294s-1.249-1.356-1.77-.624c-.625.728.104 2.5.104 2.5s-1.147-1.356-1.77-.624c-.73.624.415 2.188.415 2.188s-2.083-.938-1.562-.938z" fill="#fff"/><path d="M292.823 230.564l-2.396 2.396.52 8.232s.521-2.396 1.25-.731c0 0 .21-1.979.73-1.665-.42-.211-.105-8.232-.104-8.232m-4.475 4.475l-1.77 1.665.623 8.232s.523-3.125 1.25-.624c0 0-.105-2.083-.105-2.814.002.521.002-6.46.002-6.46m-18.647 18.453l-1.667 1.769.418 5.003s.52-3.229 1.25-.731c0 0-.21-2.08-.21-2.812 0 .521.21-3.23.21-3.23" fill="#7e4b7e" stroke="none"/><g stroke="#7e4b7e" stroke-width=".916" fill="none"><path d="M267.612 232.858c1.147 1.145 4.377 5.311 4.377 5.311m-2.913-3.018c-.206.627-.621 2.397-1.56 3.334m2.072-2.924c-.104.416-.104 1.771-1.56 3.127m2.082-2.492c-.208.727-.312 1.25-.83 1.772m1.148-1.148c0 .52-.31.625-.415.938m-3.435-2.924c-.416.415-3.439 2.394-5.105 3.02m4.265-1.874c-.416.419-2.291 1.877-3.334 2.295m3.027-1.045c-.624.42-1.667 1.458-2.5 1.772m1.875-.522c-.415.52-1.042.937-1.561 1.25M246.723 239.626c.34-.627.932-1.86 1.707-2.987.982-1.43 1.404-1.672 1.92-2.176"/></g></g><path d="M146.145 323.615c1.563.728 0-5.107.52-7.294.624-2.292 5.103 5.626 7.293 6.67 2.292 1.145 16.251-5.524 16.251-5.524l3.334-6.25 1.772 5.104s3.853-4.48 5-6.146c1.146-1.666 0 3.335-1.147 5-1.147 1.669 3.334 2.294 2.812 5.628-.52 3.335 4.48-2.293 4.48-2.293l12.918 1.146s2.186-7.815 5.625-12.295l1.042 5.004 5.313-5.417c5.938 15.63 18.44 32.613 44.068 41.885 24.065-8.752 36.462-24.278 42.918-39.075l7.19 7.401s5.626-1.67 6.667-2.291c1.145-.523 13.23 4.272 13.23 4.272s2.188.833 3.334 1.669c1.145.831.312-3.649.312-3.649s6.147 1.145 5.625 4.48c0 0 1.353-3.124 2.5-3.645 1.147-.521 3.853 2.814 4.48 3.959.52 1.044 13.752 2.71 15.626 3.855 0 0 1.46 1.67 1.46 2.814 0 0 2.814-.313 5.002-.313 0 0-1.667.83-1.667 2.604 0 1.668-.834 3.024-2.5 3.854-1.668.836 0 1.458 2.187 1.67 2.292.31 0 3.125-4.48 4.795 0 0-1.042 2.497.834 3.33 0 0-3.856.315-4.48-.832 0 0-1.352 2.604-1.352 3.96 0 0-4.166-1.356-5.312-1.98 0 0-1.668 1.665-.522 2.498 0 0-7.604-.83-9.064-3.644 0 0-2.71.832-2.188 1.77 0 0-5.313-3.645-6.979-3.645l-1.146 1.872s-3.646-2.187-4.793-2.187c-1.044 0-.209 1.666-.209 1.666l-5.102-3.126-1.98 3.126s-4.167-1.981-5.312-2.811c-1.044-.833-1.352 1.666-2.188 1.977 0 0-1.667-2.289-3.958-1.977 0 0-.833 2.811-.52 3.646 0 0-6.46-1.354-7.605-1.67-1.147-.31-.52 1.356 0 2.504 0 0-4.793-1.355-5.835-2.19l-.312 2.19s-3.957-.315-4.791-1.148l-2.5 3.436h-3.647l-.832 3.021s-6.978-1.976-7.605-.83c-.52 1.143.313 2.81.313 2.81l-6.146-.832-.519 2.5s-7.085-2.19-8.752-1.148c0 0-2.188 2.293-3.647 2.814-1.351.624 0-.834 0-.834l-2.187-3.02s-2.5 1.354-3.958.834c-1.353-.628-5.834 2.186-7.294 1.351 0 0 0-1.981-1.144-2.5-1.044-.521-3.021-.521-3.857.834 0 0-.831-1.147-2.29-3.335-1.354-2.292-3.335.208-3.335.208l-.313-2.71-3.855-.314c-2.292-.312-2.812-2.294-2.812-2.294s-5.938.626-6.772.316l1.457-1.356s-8.125 1.671-9.791 1.046c-1.772-.52 1.876-2.814 1.876-2.814s-7.503-1.872-8.961-2.187c-1.353-.312-9.48 1.35-10.627 1.35-1.146 0-1.667-1.876-1.667-1.876s-1.982 1.67-3.648 2.192c0 0-1.354-3.334-.519-3.648 0 0-5.312 1.458-5.626 2.814 0 0-1.354-2.187-1.147-3.125 0 0-2.5 3.96-3.646 4.79-1.147.836-.209-1.978-.209-1.978s-3.123 3.957-4.27 4.272v-2.814s-8.961 4.793-11.46 4.17c0 0 0-1.983.833-2.501l-5.626-.313c-1.352-.208-3.02-.832-4.478-1.146-1.354-.21 1.98-1.666 4.271-1.043 0 0-6.25-2.291-8.127-1.148 0 0-.834-2.29 2.498-3.125 0 0-4.272-4.167-6.773-3.855 0 0 2.814-1.666 5.106-.835 0 0-2.605-7.083-4.272-7.916 0 0 5.94-1.043 7.605-.206l.002-.002z" fill="#289400" stroke="#060" stroke-width=".521"/><path d="M137.492 201.39l75.842-39.282c.364-2.03-.79-3.625-1.978-5.21-21.689 10.637-41.427 23.544-65.528 31.363-1.354.523-13.335 5.523-19.482 12.922-1.948 1.954-2.092 4.838-2.092 4.838s.15 3.308.845 4.202c0 0 .18.908 1.313 1.634-.013 0 .7.35 1.194.173.55.104 1.447.097 2.698-2.094 1.251-2.086 5.314-6.877 7.188-8.546z" fill="#730000" stroke="#000" stroke-width=".521"/><path d="M198.543 162.53l9.792-4.69s3.335 2.5 3.022 5.314c0 0 .729 6.458 8.752 10.938 0 0-6.774 8.44-18.648 9.17 0 0 1.362-11.137-1.137-14.369 0 0-.416.399-.235-.153.355-1.084-.241-4.8-1.762-5.619-.185-.101.121-.405.216-.592z" fill="#fff" stroke="#000" stroke-width=".521"/><path d="M210.002 163.881c-2.083.833-8.855 4.374-8.855 4.374m5.629-2.295c-.105 1.041-.73 3.542 0 5.313m-.942-4.996c0 .52-.832 2.396.106 4.898m-1.14-4.375c-.209 1.045-.416 1.668 0 2.816m-.84-2.192c-.208.624 0 .938 0 1.353m6.144-1.67c.312.831 3.126 5.208 4.793 6.98m-4.373-5.004c.315.833 1.876 3.855 3.022 5.003m-3.226-3.232c.415 1.043 1.25 2.919 2.082 3.96m-2.082-1.871c.208.835.624 1.876 1.25 2.607" stroke="#7e4b7e" stroke-width=".814" fill="none"/><g stroke="#000" stroke-width=".509"><path d="M279.777 158.167l27.86 13.642c5.582 2.713 7.59.207 10.739 1.576l54.983 28.007c4.716 2.06 7.357 2.72 6.68 5.16-.116 3.877 1.832 3.935 2.365 3.976.385.104 2.243-.169 3.02-1.2.581-.672.602-.741.602-.741.623-.623.51-.68.704-.957 2.312-3.327 3.593-6.21 1.173-8.094-2.766-1.297-3.085 1.645-5.998 1.335 0 0-5.21-1.98-7.085-3.334-3.455-1.881-8.278-4.112-9.375-5.336-3.51-.658-29.934-15.521-44.904-22.98-1.606-1.345-2.48-6.315-5.635-7.978-.926-1.343-21.191-10.595-31.788-15.892-3.906-1.46-6.092-2.459-8.906 2.334-2.456 4.7-1.859 7.265 5.565 10.482z" fill="#b34b00"/><path d="M282.132 152.33l31.19 15.573" fill="none"/></g><g fill="#ffa54b" stroke="#000" stroke-width=".509"><path d="M189.164 169.083c-.208.625-.729.208-.729.418-.415 2.186-.312 3.331-.833 4.582-.729 1.458-3.334 2.814-3.23 2.708-2.083.624-4.582 3.127-8.645.834-.209-.103-.416-.313-.625-.52 0 0 1.144 4.269-3.021 6.353-1.458.73-16.148 8.442-16.148 8.442s-1.563 2.814-.521 6.668c.105.625.312 1.145-.312 1.563-.938.727-2.71 2.814-3.75 6.148 0 0-3.126-1.356-3.126-3.334 0-1.98 1.25-3.022 1.563-4.483.311-1.353 1.144-4.791.729-5.835-.416-1.146-2.292-1.563-3.021-1.979-.625-.418-1.459.416-1.354 1.354.105 1.042.833.831 1.667 1.042 0 0-.938 1.978-.833 3.437l-9.48 4.898s1.249 1.665 1.666 2.396c.415.729 1.353 10.419 4.167 15.005 2.813 4.584 3.751 3.334 4.376 3.959.52.52 1.353 1.353 2.083 1.98.729.52 3.958.83 4.584-.938.729-1.67 1.249-2.711 3.23-4.274 1.979-1.561 6.041-5.52 6.041-7.294 0 0 2.396 6.877 2.083 12.609 0 0 8.751 1.773 16.565 1.978 7.815.108 11.773-1.561 11.773-1.561s1.042-6.563.623-7.814c0 0 1.25 4.272 2.188 5.73 1.043 1.768 2.187 5.415 4.479 5.625 2.188.103 4.064-2.186 4.271-3.124v-6.877h8.855c0-.103 3.959 1.458 5.208 1.249 1.25-.104 1.979-1.249.833-1.667l-.415-.31c1.144 0 2.604.727 2.604.727h4.374c.105-.103 0-.418-.105-.52-.312-1.251-2.605-2.294-4.27-3.021-1.668-.624-3.542-1.356-4.793-1.458-1.978-.211-3.334-.103-6.355.418-.833.103-3.958.415-5.938 1.353-.521.313-1.043.416-.833-.938.313-1.46.209-8.023-1.352-10.837-1.147-1.978-1.042-3.647-.834-5.313.106-1.669.209-7.398 0-9.066-.313-1.666-2.605-3.96-6.77-4.48-3.959-.523-7.294-3.752-7.501-6.356-.312-2.603.418-7.396.834-9.479" fill="url(#c)"/><g fill="none"><path d="M171.459 157.317c-.729 3.331-.729 6.25-.624 9.479.104 2.186 1.145 4.687 2.083 6.876.624 1.46 1.459 3.125 2.812 3.96 3.647 2.396 7.085-.208 9.064-1.041.938-.315 2.397-1.665 2.813-2.501.52-1.248.31-2.186.831-4.582-.105.102.833-.418.729-.418.938-1.563.729-2.083 1.25-3.127.521-1.042-.624-2.187-1.876-1.977.624-1.979 1.043-4.17.415-6.046-.207-.623.522-2.289-.623-1.876-4.689 1.876-10.209 1.46-15.21 1.46-.416 0-.729-.835-1.353-.727-.105 0-.209.31-.314.517" fill="url(#d)"/><path d="M171.039 159.078c-.52-.416-.625-1.351 0-3.334.729-1.975 0-2.083 1.146-3.229l1.563-1.978c.729-.211 2.917-.211 3.647-.52.624-.315 1.562-.731 3.018-.938 1.563-.315 4.689-.211 6.147.623 1.563.831 2.605 2.918 3.543 3.646 1.044.727 1.669 3.749 1.46 8.129-.314 4.375-1.147 3.541-1.147 3.541s-1.251-2.083-2.292-.315c0 0 0-1.665.209-2.916.104-1.248-.625-3.541.104-5.105 0 0-5.939 1.876-8.961 1.77-3.124-.207-7.498-.938-7.707-1.665l-.731 2.292" fill="#000"/><path d="M174.06 155.443c-.312-.625-1.876-2.918-.624-3.646 1.147-.627.416 2.811 1.981 3.541 0 0-.521 1.563-1.353.104l-.005.001z" fill="#fff" stroke="#fff" stroke-width="1.024"/><path d="M177.5 163.983c-.52 1.774-.729 2.189-.938 3.232m10.84 1.663c.209.625.414.31.936.415m.416-4.06c.521-.624 1.25-.31.833 1.252M171.459 161.485c.938.31 1.876.623 2.814 1.044 1.563.625.625 2.913.209 4.374-.209.731-1.043 1.979-.624 2.607.52.83 1.146.31 2.084.413 0-.31.624-.52.833-.52.729-.102 1.147.52 1.666.315.625-.315.522-1.253.313-1.773m-.106-4.586c.104-.413 1.042-.83 1.563-.937 2.187-.415 3.749-.729 5.522.523m-5.836 11.35c-1.77.418-3.646.727-5.313-.211m-.002-.823c.833-.418 1.147-.836 2.188-.315 0-.103 1.147-.415 1.147-.415.831 0 1.354.311 2.187.831m-5.625.308c.938-.313 3.439-.313 5.523.104"/><path d="M171.356 163.983c.73-.102 1.563-.938 3.23.313 1.147.729-1.876 1.46-1.354 1.356-1.352.207-1.77-.52-1.872-1.149 0-.207-.209-.52 0-.52h-.004zm8.54.829c.729-1.46 1.876-1.146 2.917-.836 1.043.313.73.108 1.668.628-1.147.208-.834.31-1.668.727-.938.418-1.77.625-2.397.211-.209-.211-.729-.52-.729-.938-.001.103.104.208.209.208z" fill="#fff"/><path d="M172.81 165.233c.416 0 .729-.416.729-.834 0-.52-.313-.938-.729-.938-.519 0-.831.418-.831.938 0 .418.31.834.831.834zm8.858.205c.415 0 .729-.413.729-.938 0-.52-.417-.83-.833-.83-.415 0-.729.31-.729.83-.001.526.417.938.833.938z" fill="#000"/></g><g id="g"><g fill="none"><path d="M226.15 218.788c-.623-.731-1.042-1.044-1.874-1.356l-2.085-1.04c-.729-.418-1.77-.52-2.396-.938m.416 2.71l-.831-.522-1.044-.208-.208-.209c-.937-.104-1.875-.522-2.499-1.353m-64.282-9.587c.936.727 3.228 2.294 3.437 5.315.209 1.562 1.043 3.124 1.043 3.124m-13.44-8.019c.522 1.768.625 7.603 6.147 13.752m-5.103-21.883c-.418 1.146-.938 2.188.207 3.022m14.795 10.946c1.147-2.606 4.688-2.398 4.688-4.897M163.645 212.224c-.313-2.917-.938-4.582-.415-8.855.208-1.252.415-6.042 0-8.336 0 0 1.668 8.021-3.75 9.588m35.212 12.815c0-4.065.938-6.358.938-6.358 1.25-5.727-1.146-7.917-.208-9.375.831-1.25 2.084-3.856.417-9.066 0 0 2.915 10.736-4.585 10.736-7.603 0-7.292-2.814-7.292-2.814M163.226 195.031c0 2.186 0 8.65 9.272 8.65 2.812 0 5.835-1.979 7.5-3.334m2.295-2.817c-.313-1.98-.313-4.48-.313-7.086m-13.961-3.533c2.5-.315 4.481-.625 9.17-.625m.312-6.472c.521 2.294-.311 5.939 3.959 6.46m4.479-7.29c-.625 1.668-.625 3.334-.834 4.48m.209 2.821c1.772 0 5.105-1.148 9.271-.313m1.46 23.333c.833 1.669 1.042 3.855 3.646 6.356m-32.503-11.671c.209 1.356-1.77 5.835-.313 9.484 1.354 3.644 1.147 7.814-1.147 11.355m6.775-19.478c-.833 1.665-2.292 3.334-2.605 4.792m6.762-1.669c0 1.042-2.81 8.959-4.792 11.147 0 0 3.646 1.458 3.124 6.773m7.505-21.565c0 1.356-.209 1.669.938 2.499m2.503 0c1.352 1.667 5.624 6.67 4.686 9.481m-7.502-6.665c.313 1.042.313 6.46-.625 9.17m-2.181-.21c-1.147 0-2.812.834-3.125 2.813m8.952-3.13c1.145-.313 3.436 1.665 3.436 7.294m16.051-10.52c-2.187.625-3.125 1.774-2.499 1.146-1.147.938-2.189 1.563-2.189 1.563"/></g><path d="M168.745 202.742c.623 0 1.145-.418 1.145-.938 0-.421-.519-.836-1.145-.836-.521 0-1.044.415-1.044.836 0 .517.52.938 1.044.938zm23.654.317c.522 0 1.044-.415 1.044-.938 0-.517-.52-.83-1.044-.83-.622 0-1.145.313-1.145.83-.001.523.522.938 1.145.938z" fill="#000"/><path d="M159.273 245.565c1.249-8.127 5.105-14.9 5.208-15.526 0 0 3.958.836 10.834 1.458 6.771.727 8.647.418 11.772.207 3.02-.31 6.979-.83 6.979-.83s1.25 2.499 1.354 5c.312 5.313 2.29 28.341 2.498 34.487 0 0 .834 3.647.834 12.607 0 9.797 2.708 29.695 2.708 40.326l-2.708.522s-14.793 1.146-14.793-.834c0-2.186-.833-27.716 1.354-43.137 0 0-.52-3.021-1.354-5.628-.833-2.501-4.48-10.315-4.48-11.979 0 0-5.832 16.458-6.145 19.276-.311 2.604-1.147 39.278-1.667 42.303 0 0-8.439 6.459-9.585 7.086-1.145.521-9.271-3.441-9.48-4.48-.313-1.145.834-13.546 4.688-33.972 1.459-7.294.625-8.643.625-10.624 0-1.98.105-28.133 1.354-36.262l.006-.002z" fill="#fff"/><path d="M173.332 281.518c-.624 2.294-1.667 4.48-3.644 5.942m-2.817-54.92c-.311 1.354-2.292 7.501-7.293 11.148m14.584-10.001c-1.147 3.647-5.625 23.238-6.46 46.472m-.308 7.298c-.209 2.186-1.354 18.444-1.667 21.254m-.831 3.127c-.521 1.144-2.812 10.624-2.812 19.066m33.02-36.781c-.209 1.979-1.043 16.044 3.646 28.652m-18.955-88.044c-.312 2.291-.833 17.089-.833 18.233 0 1.144 1.667 2.813 2.5 3.127 0 0-1.667.521-1.979 6.147m-4.173-13.233c-.315 1.768-1.98 8.752-3.127 11.566m13.439-26.045s5.001 1.042 5.313 0c0 0 1.667 30.22 3.959 46.992m-11.452-43.142c0 1.98-.624 16.881-.624 16.881m2.498 2.186s1.977 2.811 1.459 4.164m-18.232-28.75c1.668.52 3.126.831 3.126.831m5.311 1.667c-.314.834-.625 4.69-.625 4.69m8.96 39.803c.625.834 1.459 1.982.834 4.482" fill="none"/><path d="M163.748 229.837s0-3.334 1.249-5.003c0 0 3.54.731 8.542 1.251 5.104.52 9.166.938 12.918.52 3.751-.416 7.606-1.354 7.606-1.354s1.041 4.899.518 5.628c0 0-4.063.834-8.541 1.04-4.584.31-12.188-.418-14.792-.831-3.44-.418-6.461-1.044-7.501-1.251z" fill="#9b5f00"/><path d="M166.973 230.246l.623-5 1.043.102-.208 5.21-1.458-.312m22.61-4.168l.105 5.628 1.25-.211-.104-5.731-1.251.314m-16.046 0l-.416 5.418h.73l.729-5.418h-1.043" fill="#fff"/><path d="M155.412 328.509c-.312 1.354-.831 3.23-1.042 5.628 0 .52-.519 3.334 1.042 3.437 1.147.105 1.459-2.917 1.459-2.917s-1.043 3.334.312 3.752c1.876.413 2.083-3.647 2.083-3.647-.209 1.146-1.459 4.064.313 4.374 1.875.314 2.395-3.96 2.395-3.96s-1.562 4.274.312 4.378c1.77.102 1.77-4.17 1.77-4.17s-.938 5.108 1.563 4.69c1.353-.208 1.667-1.98 1.979-3.022.416-1.561 1.354-3.54.209-6.771-.831-2.397-.519-3.022-.519-3.022s-2.918 2.189-5.209 3.647c-1.043.624-6.67-2.396-6.67-2.396zm30.423-4.485c-.52-.314-.416 1.876-.624 2.914-.105 1.046.209 3.335 3.751 3.128 3.436-.314 6.876-1.042 9.063-.521 2.188.625 5.416.728 7.19.728 1.77 0 2.917-.207 3.749-.521.73-.31 2.292.418 3.021.418.73 0 1.875-1.146 1.772-1.876-.105-1.356-1.354-1.356-3.127-1.458-1.667-.208-3.958-.523-5.103-.938-1.147-.418-3.23-1.564-5.835-2.084 0 0-5 .21-6.04.21-1.043 0-7.191.31-7.817 0z"/></g><g fill="none"><path d="M133.847 194.406c-.519.313-1.147-2.084.416-3.022 0 0 .416-1.977 2.084-2.187 0 0 1.353-1.876 3.335-1.665 0 0 2.289-1.562 3.124-1.356.831.104 2.917 2.187 3.021 2.918.209.728 0 1.979-.523 2.501-.624.623-1.042-.104-1.146-.938 0 0 .417 1.561-.833 2.186-1.248.731-1.146.211-1.248-.625 0 0-.315 1.669-1.147 1.876-.834.312-1.354-.418-1.981-.418 0 0 1.043.836.314 1.46-.73.52-1.563.31-2.085-.104-.521-.52-1.147-1.876-3.335-.625l.004-.002z" fill="#ffb366"/><path d="M144.056 190.556c-.522-1.668-2.188-3.127-4.167-2.916m2.293 4.473l-.729-1.249c-.938-1.565-2.917-1.458-4.584-1.876m2.498 4.692c-.624-.416-.833-1.251-1.459-1.561-1.042-.418-2.083-.938-3.333-.731"/></g></g><g transform="translate(-128) scale(1.024)" stroke="#000" stroke-width=".509"><path d="M439.14 165.12c.712-.306.51.61.61.916.306 1.321.306 2.748.813 3.967.608 1.119.812 1.526 1.83 2.035 1.627.916 6.407 3.562 9.767 1.424a3.11 3.11 0 0 0 .712-.508s-1.221 4.172 2.95 6.207c1.321.71 15.668 8.241 15.668 8.241s1.525 2.748.609 6.512c-.204.61-.405 1.118.204 1.526 1.019.71 2.644 2.748 3.766 6.004 0 0 2.947-1.324 2.947-3.256 0-1.934-1.219-2.951-1.525-4.375-.202-1.324-1.017-4.682-.608-5.698.405-1.118 2.135-1.526 2.847-1.936.714-.408 1.526.406 1.322 1.322-.102 1.018-.812.816-1.628 1.018 0 0 1.02 1.932.814 3.356l9.358 4.783s-1.221 1.629-1.628 2.34c-.509.715-1.425 10.175-4.171 14.653-2.748 4.477-3.663 3.256-4.171 3.866-.61.508-1.424 1.324-2.137 1.934-.608.508-3.764.814-4.476-.916-.712-1.628-1.221-2.647-3.153-4.174-1.934-1.524-5.9-5.391-5.9-7.123 0 0-2.341 6.719-2.035 12.313 0 0-8.443 1.731-16.176 1.936-7.631.102-11.497-1.528-11.497-1.528s-1.018-6.409-.61-7.631c0 0-1.22 4.172-2.033 5.596-1.118 1.727-2.236 5.291-4.375 5.493-2.236.104-3.968-2.135-4.271-3.051v-6.716h-8.646c0-.101-3.766 1.424-5.087 1.223-1.221-.105-1.832-1.223-.813-1.631l.407-.303c-1.119 0-2.544.71-2.544.71h-4.272l.103-.508c.307-1.219 2.545-2.24 4.272-2.95 1.628-.609 3.356-1.324 4.578-1.424 1.933-.203 3.256-.101 6.206.408.812.101 3.967.408 5.798 1.322.508.304 1.118.405.813-.915-.305-1.426-1.221-5.598.307-8.346 1.018-1.933.916-3.559.813-5.189-.204-1.729-1.118-5.598-1.118-7.325 0-5.699 4.375-8.039 8.24-9.262 4.272-1.319 7.121-2.748 6.92-5.288-.104-2.646.608-7.021.202-9.058" fill="url(#e)"/><g fill="none"><path d="M456.34 153.63c.916 3.356 1.12 4.169 1.12 5.291 0 1.219-.509 1.424-.104 2.748.713 2.441-.712 5.088-2.441 7.937-.813 1.32-1.424 3.052-2.746 3.866-3.356 2.135-7.427-.408-9.563-1.327-1.117-.505-1.729-1.319-2.033-2.135-.407-1.219-.509-2.34-.813-3.967 0-.306.103-1.219-.609-.916-1.22-1.424-1.018-2.034-1.524-3.051-.509-1.021.916-2.139 2.034-1.934-.61-1.933-.916-4.072-.306-5.904.204-.608-.508-2.235.51-1.832 4.577 1.832 9.969 1.426 14.854 1.426.404 0 .71-.812 1.32-.71.098-.001.2.305.301.508" fill="url(#f)"/><path d="M456.75 155.35c.508-.406.204-2.34-.306-4.375-.203-1.017-1.018-1.424-2.136-2.542-1.12-1.122-1.525-1.122-2.236-1.424-.609-.206-2.034-.206-2.746-.508-.61-.308-2.238-.105-3.766.101-2.036.304-3.153.202-4.679 1.018-1.526.814-2.746 1.73-3.256 3.256-.406 1.118-1.12 2.542-.814 6.817.204 4.272 1.019 3.458 1.019 3.458s1.12-1.628 1.832-.61c0 0-.103-2.24-.305-3.561-.103-1.222 0-2.748.509-4.58 0 0 4.679 1.732 9.054 1.732 3.053 0 7.021-.306 7.123-1.017l.71 2.235h-.003z" fill="#000"/><path d="M450.44 160.14c.61 1.732.104 1.222.408 2.34m-10.278 2.03c0 .812-.61.61-1.019.61M456.85 158.82c-.916-.713-2.645-.204-3.46.102-1.525.71-.712 2.24-.204 3.664.204.71 1.02 1.727.511 2.441-.407.812-.713.408-1.629.51.104-.308-.812 0-1.117 0-.61-.102-.916.403-1.426.202-.608-.304-.508-1.22-.306-1.729m.101-4.48c0-.403-1.321-.811-2.745-.915-2.238-.102-2.442.104-4.172 1.322m11.497 8.953c-.405-.608-1.018-.916-2.137-.405 0-.204-1.524-.406-1.524-.406-.812 0-1.321.303-2.136.71m5.587.611c-.916-.609-3.256-.201-5.596-.201m.206.811c1.73.512 3.46.816 5.188 0"/><path d="M456.44 160.14c-.712-.1-1.018-.916-3.153.306-1.119.61 1.832 1.426 1.425 1.324 1.22.202 1.628-.508 1.729-1.122-.001-.203.203-.508-.001-.508zm-8.34.81c0-.816-1.829-1.119-2.847-.816-1.019.306-.61.105-1.526.613 1.02.203.712.303 1.526.71.914.408 1.12.814 2.339.206.306-.105.712-.508.813-.916-.101.101-.202.203-.305.203z" fill="#fff"/><path d="M455.12 161.36a.802.802 0 0 1-.813-.814c0-.508.307-.916.813-.916.405 0 .712.408.712.916 0 .408-.307.814-.712.814zm-8.75.2c-.406 0-.712-.403-.712-.916 0-.508.403-.811.812-.811.409 0 .712.303.712.811 0 .514-.303.916-.812.916z" fill="#000"/></g><use height="100%" width="100%" xlink:href="#g" transform="matrix(-1 0 0 1 748.816 0)" fill="#730000"/><g fill="none"><path d="M491.64 193.51c.508.206 1.934-2.033.508-3.051 0 0-.508-1.932-2.136-2.034 0 0-1.322-1.933-3.257-1.63 0 0-2.136-1.524-2.948-1.421-.916.202-2.951 2.237-3.053 2.95-.102.609 0 1.832.508 2.441.61.51 1.02-.104 1.119-1.02 0 0-.405 1.529.813 2.24 1.221.71 1.119.1 1.221-.71 0 0 .306 1.626 1.12 1.932.812.303 1.321-.408 1.934-.408 0 0-1.018.815-.305 1.324.713.61 1.525.303 2.035-.104.61-.404.306-1.727 2.441-.509z" fill="#730000"/><path d="M482.49 189.75c.506-1.73 2.235-3.153 4.067-2.849m-2.137 4.379c.203-.411.305-.816.61-1.224.915-1.524 2.948-1.524 4.576-1.832m-2.546 4.476c.61-.408.814-1.118 1.426-1.421 1.018-.512 2.136-.916 3.256-.714"/><path d="M482.31 186.77c-.896.716-1.837 1.798-1.906 2.281-.103.61-.008 1.827.5 2.438.551.461.949-.017 1.095-.781-.059.463-.071 1.465.844 2 1.22.71 1.118.095 1.219-.719 0 0 .312 1.635 1.125 1.938.813.306 1.325-.406 1.938-.406 0 0-1.026.804-.312 1.312.712.61 1.522.309 2.031-.094.61-.408.3-1.722 2.438-.5.267.106.804-.452 1.031-1.156l-7.688-5.531-2.315-.782z" fill="#730000" stroke="none"/><path d="M480.68 188.19c-1.502 2.582.5 4.132 1.164 2.619-.193 2.386 1.606 2.292 2.285 1.538.658 2.512 1.83 1.395 2.909 1.164-1.223 2.29 1.479 1.609 2.12 1.081.924-1.362 1.356-.277 2.036-.416l1.164-1.247m-7.978-5.699c-1.686.896-2.512 2.137-2.535 3.699m4.865-2.199c-1.687.896-2.512 2.137-2.535 3.699m5.405-1.749c-1.687.897-1.765 1.722-2.493 2.826"/></g></g><path d="M169.062 331.428l-.209-4.792 1.98 1.668.521-3.648c.833-.21 2.188 1.46 2.188 1.46l-.209-3.65 3.021 3.336s-.208-2.814.832-4.482c0 0 2.29 1.981 2.29 4.272 0 1.985 1.98-2.814 1.98-2.814.522 1.67 1.668 5.315 1.668 5.315l1.353-1.98 1.147 4.167 2.5-3.648 1.977 4.275 4.48-.315.522 2.498 1.98-2.186 2.604 1.666s2.188-.624 3.334-.624l2.5 1.46s.833-1.46 1.668-1.984c.831-.518 1.981.835 2.29 1.669l1.668-3.021s2.188 2.188 2.5 3.02c0 0 .31-2.498.832-3.334.522-.833 1.353.314 1.98 1.355l1.353-4.48s1.46.31 2.5 1.98c1.143 1.666 1.143-2.499 1.143-2.499s2.5 3.334 3.126 5.625c0 0-17.25 5.923-29.416 4.304-14.318-1.907-26.113-4.615-26.113-4.615m118.252-.52s.832-2.293 1.981-3.441c0 0 2.187 2.607 2.187 3.44 0 0 .623-.312 1.77-1.147l1.668 1.666 1.981-1.352 1.876 1.665 3.437-1.458 1.354 1.458 5.312-.62 1.98.831 1.875-2.397 1.772 1.876 2.812-2.814s1.354 1.145 1.667 1.981c0 0 2.292-1.144 2.813-1.981 0 0 2.187-.833 2.498.521 0 0 1.354-1.042 1.252-2.186-.105-1.145 1.561-.315 2.083 1.144 0 0 .623-2.289 2.29-2.499 0 0 1.144 1.35.832 3.857 0 0 2.5-1.984 3.646-2.192 0 0 .52 2.814-.312 5.318 0 0 2.604-4.274 3.126-2.814.21.831.834 3.646.21 5.624l2.29-1.459.832 2.814 2.499-.52s-14.789 2.264-28.723.935c-13.934-1.33-27.01-6.25-27.008-6.25m-10.302 10.342c.677-.418-4.655 10.965-17.582 11.57-17.984.843-33.359-8.13-33.359-8.13s1.876-3.125 3.02-3.96c0 0 2.5 1.982 3.334 4.48 0 0 .314-1.666 1.147-3.124 0 0 3.125 1.456 3.647 3.438 0 0 1.146-1.981 1.98-2.5.831-.627 1.667 2.186 1.667 3.856 0 0 1.978-2.087 3.125-2.19 0 0 2.189 1.041 2.813 4.69 0 0 2.084-1.98 2.812-1.67 0 0 2.5 1.67 1.874 3.96-.311 1.252 2.5-1.456 5.94-2.29l3.02 2.29s2.812-3.749 3.647-5.003c0 0 2.291.836 2.291 2.192 0 0 1.044-3.962 1.876-4.377.832-.52 1.978 1.249 1.978 2.398 0 0 .314-3.023 1.981-3.648 0 0 1.667 1.145 1.667 2.294-.003-.002 1.767-3.44 3.122-4.276z" fill="#5ac800"/><path d="M169.062 331.428l-.209-4.792 1.98 1.668.521-3.648c.833-.208 2.188 1.46 2.188 1.46l-.209-3.646 3.021 3.334s-.208-2.814.832-4.48c0 0 2.29 1.98 2.29 4.272 0 1.983 1.98-2.814 1.98-2.814.522 1.67 1.668 5.316 1.668 5.316l1.353-1.983 1.146 4.167 2.5-3.645 1.978 4.272 4.48-.315.522 2.502 1.98-2.188 2.604 1.668s2.186-.624 3.333-.624c1.147 0 2.5 1.456 2.5 1.456s.832-1.456 1.668-1.977c.831-.521 1.98.831 2.289 1.665l1.668-3.02s2.188 2.188 2.5 3.02c0 0 .312-2.498.833-3.334.522-.832 1.353.314 1.98 1.356l1.353-4.48s1.458.31 2.498 1.979c1.147 1.665 1.147-2.503 1.147-2.503s2.499 3.336 3.128 5.627m62.72-.835s.831-2.289 1.98-3.437c0 0 2.186 2.606 2.186 3.437 0 0 .625-.313 1.772-1.144l1.667 1.665 1.98-1.352 1.875 1.666 3.439-1.458 1.35 1.458 5.313-.622 1.981.831 1.874-2.393 1.772 1.872 2.812-2.81s1.354 1.142 1.667 1.978c0 0 2.292-1.145 2.813-1.978 0 0 2.186-.834 2.497.517 0 0 1.354-1.041 1.25-2.186-.105-1.145 1.562-.311 2.083 1.149 0 0 .624-2.294 2.292-2.504 0 0 1.145 1.355.832 3.857 0 0 2.5-1.979 3.646-2.189 0 0 .521 2.811-.311 5.314 0 0 2.605-4.272 3.125-2.813.209.831.834 3.647.209 5.625l2.292-1.459.832 2.814 2.499-.522m-117.055 8.488s1.876-3.125 3.02-3.96c0 0 2.5 1.98 3.334 4.48 0 0 .316-1.666 1.147-3.124 0 0 3.126 1.454 3.647 3.438 0 0 1.146-1.98 1.98-2.5.833-.628 1.667 2.186 1.667 3.854 0 0 1.98-2.085 3.126-2.189 0 0 2.188 1.042 2.812 4.69 0 0 2.085-1.98 2.812-1.67 0 0 2.5 1.67 1.875 3.96-.312 1.251 2.5-1.455 5.94-2.29l3.02 2.29s2.811-3.75 3.646-5.002c0 0 2.291.834 2.291 2.19 0 0 1.044-3.961 1.876-4.375.832-.52 1.978 1.249 1.978 2.396 0 0 .314-3.021 1.982-3.647 0 0 1.667 1.145 1.667 2.293 0 0 1.77-3.437 3.125-4.275" stroke="#060" stroke-width=".509" fill="none"/><g fill="#fff"><path d="M255.427 386.028c23.441.21 37.298-8.337 44.903-13.443 17.813-11.98 21.564-12.397 24.482-12.191 3.335.316 8.228 1.461 8.438 4.38.313 4.48-6.979 6.458-11.148 6.458-4.27 0-15.42-2.814-15.42-2.814l-2.918 1.982c1.98.938 24.797 8.542 29.172 1.355 4.477-7.293 8.96-19.069 8.96-19.069s-5.001-8.961-16.15-8.961c-11.251 0-22.191 7.088-29.482 12.397-7.294 5.314-16.46 12.607-40.84 12.607-24.379 0-33.65-7.293-40.941-12.607-7.292-5.313-18.232-12.397-29.378-12.397-11.25 0-16.253 8.961-16.253 8.961s4.48 11.776 8.96 19.069c4.374 7.187 27.192-.417 29.168-1.355l-2.812-1.982s-11.25 2.814-15.42 2.814c-4.27 0-11.563-1.979-11.25-6.459.209-2.918 5.104-4.065 8.439-4.38 2.916-.205 6.667.213 24.48 12.192 7.61 5.106 21.466 13.338 45.01 13.443M217.713 358.41s0-1.984-.316-4.898c-.416-3.751-2.603-4.69-4.373-4.168-1.145.412-3.437 3.23-3.437 3.23v.106a33.14 33.14 0 0 0-3.23-1.982c.834-.937 5.626-3.854 6.772-3.854 1.044 0 15.42 5.834 20.001 9.792 1.147 1.045 1.981 7.504 1.354 9.585-7.709-1.98-12.71-4.895-16.774-7.71v-.104m-6.879 14.595s-3.126 3.124-3.228 8.856c-.107 6.771 4.792 7.086 8.02 6.98 3.856-.107 6.98-2.292 6.877-9.482 0 0-6.356-2.71-11.67-6.356m82.208-14.59s.106-1.984.418-4.898c.413-3.751 2.498-4.69 4.27-4.168 1.146.412 3.436 3.23 3.436 3.23v.106a32.985 32.985 0 0 1 3.228-1.982c-.831-.937-5.623-3.854-6.666-3.854-1.145 0-15.52 5.834-20.105 9.792-1.045 1.045-1.876 7.504-1.354 9.585 7.814-1.98 12.709-4.895 16.773-7.71v-.104m6.872 14.595s3.125 3.124 3.229 8.856c.209 6.771-4.795 7.086-8.021 6.98-3.857-.107-6.876-2.292-6.876-9.482 0 0 6.356-2.71 11.67-6.356"/></g><path d="M204.063 368.415s-11.149 2.814-15.315 2.814c-4.27 0-11.564-1.977-11.25-6.46.208-2.918 5.104-4.062 8.438-4.374 2.5-.212 5.73.103 18.127 8.02m102.625 0s11.146 2.814 15.42 2.814c4.167 0 11.459-1.977 11.146-6.46-.207-2.918-5.103-4.062-8.437-4.374-2.503-.212-5.732.103-18.129 8.02m-88.975-9.902c-1.146-.834-2.292-1.67-3.337-2.5-1.561-1.148-3.125-2.19-4.793-3.334 0 0 2.292-2.918 3.438-3.232 1.77-.623 3.957.31 4.373 4.062.314 2.919.314 5.005.314 5.005m-7.604 29.387c1.983 1.148 4.168 1.045 5.524.938 3.855-.104 6.98-2.291 6.876-9.48 0 0 4.79 2.396 12.604 4.272 0 0 1.252 1.562 1.459 4.686.315 2.608-1.459 5.418-3.54 5.212 0 0-10.94-1.98-17.605-3.124-3.856-.728-5.314-2.502-5.314-2.502m82.93-29.39c1.145-.834 2.292-1.67 3.436-2.5 1.46-1.148 3.02-2.19 4.688-3.334 0 0-2.29-2.918-3.436-3.232-1.77-.623-3.855.31-4.27 4.062-.315 2.916-.418 5.004-.418 5.004m7.598 29.388c-1.98 1.148-4.168 1.045-5.522.938-3.856-.104-6.876-2.291-6.876-9.48 0 0-4.794 2.396-12.502 4.272 0 0-1.354 1.562-1.563 4.686-.209 2.608 1.563 5.418 3.542 5.212 0 0 11.042-1.98 17.606-3.124 3.855-.728 5.312-2.502 5.312-2.502" fill="#69f"/><g stroke="#000" stroke-width=".712" fill="none"><path d="M255.427 386.028c23.442.207 37.298-8.339 44.903-13.443 17.813-11.981 21.564-12.396 24.48-12.19 3.336.313 8.233 1.46 8.439 4.376.314 4.48-6.98 6.459-11.149 6.459-4.27 0-15.418-2.81-15.418-2.81l-2.917 1.981c1.98.938 24.794 8.544 29.17 1.352 4.48-7.293 8.957-19.066 8.957-19.066s-5-8.964-16.148-8.964c-11.25 0-22.19 7.088-29.483 12.4-7.292 5.314-16.458 12.608-40.839 12.608-24.378 0-33.647-7.294-40.94-12.607-7.292-5.313-18.233-12.401-29.379-12.401-11.25 0-16.25 8.964-16.25 8.964s4.477 11.773 8.958 19.066c4.376 7.19 27.193-.414 29.17-1.352l-2.81-1.98s-11.254 2.809-15.418 2.809c-4.273 0-11.565-1.975-11.253-6.459.209-2.918 5.104-4.062 8.439-4.375 2.915-.207 6.665.21 24.48 12.19 7.608 5.107 21.464 13.34 45.008 13.442zM204.063 368.415s-11.15 2.814-15.313 2.814c-4.272 0-11.564-1.98-11.253-6.46.209-2.918 5.105-4.065 8.439-4.374 2.497-.212 5.73.103 18.127 8.02zm102.615 0s11.148 2.814 15.42 2.814c4.166 0 11.459-1.98 11.146-6.46-.208-2.918-5.102-4.065-8.435-4.374-2.5-.212-5.733.104-18.127 8.02h-.004zm-88.965-9.902c-1.147-.834-2.292-1.67-3.337-2.5-1.56-1.148-3.124-2.19-4.79-3.334 0 0 2.29-2.918 3.436-3.232 1.77-.623 3.957.31 4.373 4.066.318 2.912.318 5 .318 5zM217.713 358.41s0-1.982-.316-4.898c-.413-3.751-2.603-4.69-4.373-4.168-1.147.417-3.439 3.23-3.439 3.23v.106a34.006 34.006 0 0 0-3.23-1.982c.834-.937 5.626-3.854 6.773-3.854 1.045 0 15.419 5.834 20.002 9.795 1.147 1.043 1.98 7.5 1.354 9.586-7.71-1.983-12.711-4.9-16.776-7.71m-6.877 14.487s-3.124 3.124-3.227 8.856c-.106 6.767 4.791 7.084 8.02 6.98 3.856-.107 6.978-2.292 6.879-9.486 0 0-6.356-2.71-11.67-6.356l-.002.006zM213.443 374.559s-2.498 2.604-2.916 6.876c-.209 3.335 1.979 5.208 4.792 5 3.958-.206 5.523-5.624 3.647-8.646l-5.523-3.23"/><path d="M210.104 387.901c1.98 1.146 4.166 1.043 5.522.938 3.855-.106 6.977-2.293 6.878-9.482 0 0 4.791 2.396 12.605 4.272 0 0 1.252 1.562 1.458 4.69.314 2.604-1.458 5.418-3.54 5.208 0 0-10.94-1.98-17.606-3.124-3.859-.732-5.317-2.502-5.317-2.502zm82.934-29.388c1.147-.834 2.292-1.67 3.438-2.5 1.459-1.148 3.02-2.19 4.688-3.334 0 0-2.291-2.918-3.438-3.232-1.77-.623-3.855.31-4.27 4.066-.313 2.915-.416 5-.416 5h-.002zM293.038 358.41s.106-1.982.418-4.898c.415-3.751 2.498-4.69 4.27-4.168 1.147.417 3.436 3.23 3.436 3.23v.106a34.006 34.006 0 0 1 3.23-1.982c-.833-.937-5.625-3.854-6.668-3.854-1.146 0-15.52 5.834-20.105 9.795-1.045 1.043-1.876 7.5-1.354 9.586 7.814-1.983 12.709-4.9 16.773-7.71m6.872 14.487s3.125 3.124 3.229 8.856c.209 6.767-4.795 7.084-8.023 6.98-3.855-.107-6.874-2.292-6.874-9.486 0 0 6.354-2.71 11.667-6.356v.006zM297.308 374.559s2.5 2.604 2.918 6.876c.314 3.335-1.982 5.208-4.794 5-3.958-.206-5.416-5.624-3.646-8.646l5.522-3.23"/><path d="M300.636 387.901c-1.98 1.146-4.168 1.043-5.522.938-3.855-.106-6.874-2.293-6.874-9.482 0 0-4.795 2.396-12.501 4.272 0 0-1.354 1.562-1.563 4.69-.208 2.604 1.563 5.418 3.542 5.208 0 0 11.044-1.98 17.605-3.124 3.856-.732 5.313-2.502 5.313-2.502z"/></g><path d="M234.281 385.505s3.438 2.504-.73 5.628m-9.581-7.297l10.52 4.586m-8.76-2.19l7.707 3.332m-4.993-5.308l5.834 2.608m42.294-1.359s-3.543 2.504.625 5.628m9.584-7.297l-10.522 4.586m8.853-2.19l-7.707 3.332m4.902-5.308l-5.73 2.608" stroke="#fff" stroke-width=".712" fill="none"/><path d="M193.085 353.454c.15.242.245.495.292.754.04.264.03.56-.03.885-.149.775-.564 1.354-1.235 1.754-.676.397-1.451.506-2.308.343a3.926 3.926 0 0 1-1.16-.412 4.638 4.638 0 0 1-.946-.634l-.356.402-.5-.096c.16-1.008.32-2.018.487-3.025l.506.099c.032.39.096.745.179 1.073.077.329.213.638.393.946.17.283.387.528.654.726.261.199.586.338.969.409.289.057.547.066.781.031.226-.034.425-.103.579-.216a1.4 1.4 0 0 0 .393-.426c.098-.168.169-.368.216-.615a1.824 1.824 0 0 0-.115-1.038c-.138-.345-.402-.628-.766-.86l-.866-.536c-.327-.2-.607-.37-.84-.54-.456-.318-.796-.677-1-1.099-.209-.412-.263-.909-.152-1.492a2.18 2.18 0 0 1 .386-.891 2.44 2.44 0 0 1 .737-.662c.283-.176.602-.282.957-.346.353-.055.71-.05 1.068.018a3.1 3.1 0 0 1 1.068.396c.297.187.57.38.804.6l.337-.369.503.097-.505 2.923-.51-.098c-.027-.352-.069-.69-.122-1.018a3.794 3.794 0 0 0-.295-.915 2.073 2.073 0 0 0-.549-.7c-.227-.194-.535-.322-.915-.395a1.47 1.47 0 0 0-1.088.187c-.325.204-.527.476-.596.84-.07.376-.039.708.095.994.129.288.352.539.664.766.278.206.558.382.834.546.273.163.532.326.787.5.23.153.455.32.66.504.198.18.372.378.505.59m12.78 1.792a3.847 3.847 0 0 0-.496-.186 1.5 1.5 0 0 0-.593-.09c-.174.014-.356.142-.55.377-.195.238-.4.55-.61.932l-1.878 3.404c-.24.432-.538.758-.899.978-.36.222-.746.348-1.156.39a3.49 3.49 0 0 1-1.167-.08 4.441 4.441 0 0 1-1.009-.392c-.474-.262-.87-.554-1.173-.884-.305-.336-.533-.671-.663-1.022a2.374 2.374 0 0 1-.165-1.036c.022-.34.116-.654.278-.946l2.554-4.63a.964.964 0 0 0 .115-.362c.002-.105-.046-.235-.132-.38a1.597 1.597 0 0 0-.287-.325l-.327-.251.215-.392c1.104.61 2.202 1.217 3.305 1.822l-.216.391a3.312 3.312 0 0 0-.419-.165c-.175-.063-.309-.1-.397-.111-.15-.024-.277 0-.374.084a.937.937 0 0 0-.25.298c-.796 1.441-1.594 2.883-2.389 4.326-.114.21-.213.443-.287.696a1.91 1.91 0 0 0-.083.796c.03.286.142.552.32.818.18.266.49.52.924.76.405.225.79.353 1.138.38.345.021.657-.022.933-.143a2.12 2.12 0 0 0 .665-.446c.182-.182.335-.384.456-.602l1.771-3.212c.227-.41.383-.76.464-1.054.085-.293.088-.503.02-.652-.074-.166-.219-.336-.411-.508a3.806 3.806 0 0 0-.473-.376l.216-.39 3.245 1.79-.215.393m4.598 7.957c.138.284.219.597.224.927.006.334-.09.678-.294 1.035-.206.358-.463.625-.778.801a2.31 2.31 0 0 1-.999.296 3.132 3.132 0 0 1-1.053-.096 4.3 4.3 0 0 1-1.046-.426l-3.718-2.142.224-.388.414.174c.185.075.322.115.412.128a.575.575 0 0 0 .364-.068.76.76 0 0 0 .26-.285c1.068-1.856 2.137-3.715 3.206-5.57.071-.126.113-.245.128-.363.01-.117-.031-.241-.121-.375a1.79 1.79 0 0 0-.3-.34l-.312-.252.224-.386 3.624 2.088c.281.161.534.342.761.543.222.204.41.44.565.71.143.254.228.534.236.83.01.299-.066.609-.247.92-.155.27-.347.482-.569.636-.22.16-.468.26-.738.31a2.647 2.647 0 0 1-.792.03 3.546 3.546 0 0 1-.848-.176l-.028.05c.212.16.432.356.662.6.23.25.413.511.539.789zm-.668-1.94c.231-.08.422-.192.582-.348.155-.156.312-.357.46-.615.243-.425.317-.828.223-1.209-.092-.384-.4-.716-.908-1.008l-.447-.25a20.412 20.412 0 0 0-.453-.242l-1.719 2.982.697.401c.306.176.585.287.844.335.262.045.5.036.721-.046zm-.652 2.915c.263-.455.32-.92.183-1.395-.14-.478-.503-.878-1.086-1.215l-.598-.338-.372-.195-1.573 2.732a.662.662 0 0 0-.02.68c.12.224.349.432.688.625.545.317 1.06.406 1.534.256.475-.155.886-.529 1.244-1.15zm20.172 4.605a3.685 3.685 0 0 0-.511-.135 1.524 1.524 0 0 0-.6-.03c-.17.031-.338.178-.51.432a6.258 6.258 0 0 0-.513.988l-1.53 3.574c-.195.453-.461.807-.796 1.063a2.743 2.743 0 0 1-1.112.502 3.441 3.441 0 0 1-1.17.034 4.374 4.374 0 0 1-1.044-.288c-.497-.212-.918-.465-1.255-.764-.336-.304-.595-.614-.762-.95a2.374 2.374 0 0 1-.266-1.014 2.22 2.22 0 0 1 .178-.97l2.082-4.86a.963.963 0 0 0 .081-.369c-.009-.104-.067-.23-.169-.365a1.704 1.704 0 0 0-.32-.295l-.35-.219.176-.408 3.47 1.486-.177.408a3.681 3.681 0 0 0-.433-.123 2.462 2.462 0 0 0-.406-.071c-.153-.01-.276.026-.364.12a1.008 1.008 0 0 0-.22.321c-.648 1.515-1.298 3.028-1.944 4.544-.095.219-.169.46-.221.717a1.911 1.911 0 0 0-.001.803c.06.28.196.534.401.781.206.246.537.47.995.663.428.185.823.273 1.173.265.343-.013.651-.084.913-.234.244-.143.46-.308.62-.508.16-.197.295-.414.394-.644l1.443-3.372c.186-.43.306-.794.36-1.094.052-.302.036-.51-.048-.65-.093-.16-.25-.315-.46-.466a3.97 3.97 0 0 0-.506-.327l.175-.408 3.405 1.458-.178.405m9.799 11.51l-3.845-1.112.125-.43.55.112c.222.034.385.046.48.028a.864.864 0 0 0 .358-.187.76.76 0 0 0 .193-.344l1.807-6.249a1.47 1.47 0 0 0-.094-.025l-5.087 6.461-.305-.088-.669-8.287a.76.76 0 0 0-.079-.023c-.493 1.708-.989 3.416-1.481 5.129-.145.493-.22.874-.23 1.159-.016.277.032.488.126.64.065.112.23.242.49.404.26.16.433.25.517.28l-.125.43-3.515-1.014.125-.432c.19.034.395.063.61.076.214.017.387-.002.526-.064.173-.075.32-.212.446-.436.12-.218.259-.6.416-1.148l1.27-4.396c.074-.254.103-.468.09-.648a1.012 1.012 0 0 0-.15-.472 1.31 1.31 0 0 0-.398-.376 2.175 2.175 0 0 0-.522-.25l.124-.428 2.963.856c.195 2.392.443 4.781.635 7.175l3.687-4.779c.136-.177.267-.362.383-.568a3.02 3.02 0 0 0 .213-.407l2.837.822-.124.428a4.114 4.114 0 0 0-.45-.07 2.566 2.566 0 0 0-.418-.023.469.469 0 0 0-.352.162 1 1 0 0 0-.18.348l-1.79 6.194a.844.844 0 0 0-.03.377c.021.111.09.22.208.335.063.064.183.137.362.224.18.092.32.15.43.19l-.127.426m9.308-2.826c.236.21.434.466.567.77.132.306.183.66.13 1.066a2.15 2.15 0 0 1-.406 1.042c-.221.282-.49.496-.805.66-.309.163-.647.263-1.011.32a4.245 4.245 0 0 1-1.129.01l-4.256-.534.056-.445h.45c.197-.002.343-.018.431-.042a.557.557 0 0 0 .309-.203.77.77 0 0 0 .13-.364l.801-6.376c.02-.146.006-.274-.021-.384a.607.607 0 0 0-.258-.3 1.772 1.772 0 0 0-.406-.196c-.156-.052-.278-.094-.385-.111l.056-.445 4.151.523c.32.041.62.109.914.21.282.102.546.243.79.436a1.8 1.8 0 0 1 .543.671c.124.273.168.586.123.945-.04.31-.133.58-.274.806a1.85 1.85 0 0 1-.561.574c-.216.146-.459.25-.718.334-.27.09-.55.14-.85.166l-.009.056c.256.065.533.16.843.296.303.14.573.31.795.515zm-1.366-1.53c.182-.162.318-.342.406-.546.083-.203.147-.448.184-.746.063-.487-.025-.882-.262-1.2-.234-.319-.642-.504-1.227-.578a29.08 29.08 0 0 0-.505-.06l-.519-.048c-.143 1.14-.284 2.278-.429 3.416l.799.1c.347.044.652.038.912-.018a1.38 1.38 0 0 0 .641-.32zm.527 2.942c.064-.525-.062-.974-.369-1.36-.315-.386-.805-.614-1.471-.698l-.684-.08-.422-.038-.394 3.13a.667.667 0 0 0 .247.634c.197.16.49.263.876.311.627.08 1.132-.035 1.511-.359.381-.329.617-.833.706-1.54zm12.196 2.817h-2.445c-.531-.845-1.029-1.554-1.457-2.17-.437-.612-.917-1.228-1.425-1.882h-.927v2.835c0 .146.027.278.07.383.046.114.148.2.302.26.074.03.21.055.401.082l.487.045v.448h-3.83v-.448l.447-.045c.193-.021.326-.052.403-.081a.546.546 0 0 0 .278-.24c.062-.107.084-.238.084-.404v-6.464c0-.142-.02-.277-.062-.392-.046-.11-.144-.199-.302-.256a2.375 2.375 0 0 0-.415-.107l-.433-.057v-.448h4.183c.382 0 .74.035 1.08.113.337.084.638.204.911.38.262.17.478.38.632.654.156.27.237.598.237.982 0 .349-.054.649-.159.915a1.9 1.9 0 0 1-.474.686c-.188.187-.423.332-.69.468a5.637 5.637 0 0 1-.885.34l1.117 1.472 1.085 1.455a2.694 2.694 0 0 0 .96.853c.107.06.249.096.414.124l.415.053-.002.446zm-3.36-6.662c0-.54-.163-.965-.47-1.29-.31-.319-.76-.475-1.334-.475h-1.088v3.832h.838c.586 0 1.083-.177 1.468-.555.384-.377.587-.874.587-1.512zm13.794 5.996l-3.757.286-.034-.448c.331-.044.602-.107.822-.189.21-.082.314-.164.307-.257l-.024-.138a.495.495 0 0 0-.049-.142l-.903-1.94-3.173.239c-.097.304-.176.562-.228.79l-.157.618c-.042.186-.071.33-.081.448l-.012.278c.013.168.155.282.43.36.276.074.579.1.919.094l.034.449-3.403.258-.034-.449c.11-.014.245-.048.408-.104a1.36 1.36 0 0 0 .396-.192c.163-.128.283-.253.368-.39.087-.127.162-.3.234-.53.36-1.153.785-2.443 1.217-3.883.43-1.437.843-2.715 1.18-3.836l.51-.037c1.18 2.496 2.41 4.964 3.595 7.457.075.16.16.284.246.382.091.096.207.185.36.267.102.053.232.092.394.117.162.032.292.042.401.038l.034.454zm-3.91-3.37l-1.634-3.35c-.352 1.19-.732 2.37-1.087 3.556l2.721-.207zm16.761-7.054l-.456.124c-.177-.3-.45-.587-.82-.883-.37-.292-.69-.42-.95-.39l-.462.085-.602.152-1.466.398.94 3.465 1.002-.273c.302-.082.538-.174.687-.288.145-.106.27-.243.35-.402.057-.116.098-.277.113-.485.018-.202.01-.415-.027-.638l.461-.126c.309 1.136.616 2.267.92 3.396l-.46.126a3.056 3.056 0 0 0-.29-.576c-.14-.204-.263-.348-.372-.426a.932.932 0 0 0-.542-.189 2.438 2.438 0 0 0-.703.107l-1.003.273.806 2.972a.774.774 0 0 0 .182.336c.08.092.194.146.35.178.069.016.214.01.427-.01.214-.012.38-.04.486-.063l.117.433-3.79 1.028-.117-.433.483-.176c.196-.077.327-.13.382-.178a.543.543 0 0 0 .206-.306.862.862 0 0 0-.018-.399c-.564-2.073-1.127-4.15-1.689-6.226a1.172 1.172 0 0 0-.164-.34c-.073-.088-.193-.142-.354-.172a2.59 2.59 0 0 0-.48-.018 2.518 2.518 0 0 0-.472.05l-.117-.434 6.857-1.859.585 2.167m10.097-.768l.987 2.478-6.378 3.08a75.845 75.845 0 0 0-.196-.404l.384-.235c.16-.101.271-.185.323-.246a.54.54 0 0 0 .151-.341.828.828 0 0 0-.101-.396l-2.785-5.766a.997.997 0 0 0-.228-.31c-.091-.076-.217-.113-.38-.107a1.7 1.7 0 0 0-.436.04c-.182.032-.324.07-.429.114l-.194-.404 3.443-1.663.195.405c-.109.058-.237.14-.386.254-.158.118-.27.208-.328.274a.438.438 0 0 0-.154.36.848.848 0 0 0 .097.387l2.612 5.41c.119.245.222.434.317.558.095.13.204.212.332.24.116.03.27.01.455-.063a6.04 6.04 0 0 0 .747-.32l.438-.224c.152-.079.288-.17.414-.254.124-.09.23-.185.326-.278a.628.628 0 0 0 .176-.269c.069-.251.135-.599.17-1.06.032-.451.047-.805.02-1.065l.408-.195m4.772-8.858c.55.158 1.08.418 1.563.804.49.398.918.888 1.277 1.496a5.27 5.27 0 0 1 .686 1.838c.1.615.064 1.202-.071 1.765a4.182 4.182 0 0 1-.714 1.504c-.336.458-.76.832-1.275 1.134-.542.32-1.099.522-1.681.585-.583.064-1.139.03-1.679-.14a4.317 4.317 0 0 1-1.534-.818 5.361 5.361 0 0 1-1.231-1.438 5.3 5.3 0 0 1-.695-1.854 4.643 4.643 0 0 1 .064-1.755 4.229 4.229 0 0 1 .728-1.521c.34-.462.76-.832 1.26-1.127a4.256 4.256 0 0 1 1.632-.576 4.1 4.1 0 0 1 1.67.103zm2.403 5.947a4.195 4.195 0 0 0-.21-1.387 7.355 7.355 0 0 0-.683-1.472 7.694 7.694 0 0 0-1.013-1.366 4.19 4.19 0 0 0-1.13-.852 2.55 2.55 0 0 0-1.186-.272c-.4.002-.806.127-1.197.358-.436.258-.755.575-.94.961-.186.384-.289.8-.284 1.243.009.428.086.877.251 1.357.164.483.383.957.662 1.429.306.518.636.96.972 1.326.34.363.717.644 1.109.852.39.206.78.294 1.19.3.406 0 .82-.116 1.239-.363.389-.23.695-.537.9-.9a2.53 2.53 0 0 0 .32-1.214zm11.236-6.1l-1.994 1.414c-.918-.382-1.738-.672-2.44-.926-.713-.252-1.465-.47-2.248-.711l-.761.537 1.64 2.313c.083.116.186.204.278.272.106.065.237.073.395.036a1.87 1.87 0 0 0 .377-.166c.174-.09.308-.172.42-.246l.26.366-3.124 2.214-.26-.364.34-.294a1.67 1.67 0 0 0 .28-.302.52.52 0 0 0 .085-.354.794.794 0 0 0-.16-.376c-1.248-1.758-2.495-3.52-3.74-5.276a1.125 1.125 0 0 0-.277-.28c-.101-.067-.231-.083-.39-.037a3.275 3.275 0 0 0-.79.357l-.26-.365 3.41-2.418c.313-.22.628-.398.947-.53a2.9 2.9 0 0 1 .963-.22c.316-.017.61.037.891.165.29.13.542.354.763.666.203.284.337.56.398.838.07.278.073.551.017.833-.046.26-.153.51-.294.778a5.18 5.18 0 0 1-.529.79l1.766.554 1.725.56a2.671 2.671 0 0 0 1.276.141c.123-.014.256-.067.41-.138.155-.069.278-.142.367-.199l.26.368zm-6.589-3.492c-.313-.442-.696-.694-1.131-.78-.44-.078-.895.05-1.365.384l-.888.628 2.218 3.13.686-.487c.479-.339.779-.773.872-1.301.096-.533-.024-1.057-.392-1.574zm14.054-2.14c.25.842.5 1.687.753 2.528l-7.056 2.617a29.36 29.36 0 0 1-.156-.42c.119-.05.277-.124.46-.229.19-.1.312-.168.362-.222a.625.625 0 0 0 .183-.329.787.787 0 0 0-.059-.388l-2.236-6.03a1.04 1.04 0 0 0-.194-.322c-.082-.08-.206-.121-.367-.139-.125-.012-.286 0-.479.026a2.353 2.353 0 0 0-.465.09l-.156-.42 6.576-2.44.749 2.022-.449.168c-.188-.276-.486-.522-.87-.763-.396-.244-.714-.33-.967-.273a4.56 4.56 0 0 0-.452.128l-.595.208-1.333.494 1.234 3.33.96-.357c.304-.112.522-.222.646-.338a.935.935 0 0 0 .264-.418c.05-.148.063-.326.057-.546a3.068 3.068 0 0 0-.079-.583l.449-.166 1.219 3.288-.449.166a3.383 3.383 0 0 0-.351-.558c-.148-.18-.276-.307-.392-.374a.927.927 0 0 0-.53-.142c-.182.008-.396.063-.654.16l-.96.356.933 2.52c.094.25.187.438.278.575.09.137.198.212.328.251.13.04.293.03.478-.014.188-.052.45-.132.779-.254l.521-.193c.217-.08.398-.15.536-.229.143-.075.296-.16.442-.262.145-.107.242-.2.278-.296.114-.258.205-.619.26-1.076.056-.458.089-.787.072-.984l.432-.162m7.578-6.205c.449.36.834.805 1.125 1.352.296.556.496 1.175.588 1.876a5.193 5.193 0 0 1-.089 1.96 4.415 4.415 0 0 1-.755 1.596 4.13 4.13 0 0 1-1.246 1.102c-.49.29-1.025.466-1.613.544-.63.084-1.22.05-1.775-.12-.56-.168-1.065-.416-1.494-.784-.428-.36-.801-.8-1.087-1.352a5.191 5.191 0 0 1-.575-1.806c-.095-.722-.063-1.38.087-1.979.15-.593.412-1.12.751-1.59a4.243 4.243 0 0 1 2.867-1.659 4.334 4.334 0 0 1 1.726.109 4.15 4.15 0 0 1 1.49.75zm-.116 6.412a4.21 4.21 0 0 0 .354-1.36c.039-.49.021-1.03-.058-1.621a7.449 7.449 0 0 0-.398-1.652c-.184-.49-.423-.9-.7-1.227a2.584 2.584 0 0 0-.986-.713c-.372-.155-.791-.199-1.24-.14-.508.066-.925.233-1.248.518-.32.278-.58.62-.748 1.032a4.42 4.42 0 0 0-.295 1.344 7.422 7.422 0 0 0 .044 1.574c.079.596.209 1.13.38 1.6.164.469.407.873.688 1.216.273.346.597.577.973.745.373.16.804.214 1.285.15.448-.06.845-.223 1.175-.475a2.54 2.54 0 0 0 .774-.991z" stroke="#000" stroke-width=".7"/><path d="M305.121 218.788v56.576c0 11.252-1.561 56.058-49.694 73.46-48.235-17.402-49.798-62.204-49.798-73.46v-56.576h99.492" stroke="#000" stroke-width="1.042" fill="none"/></svg>