<svg xmlns="http://www.w3.org/2000/svg" height="512" width="512" viewBox="0 0 512 512"><style>.prefix__st2{fill:#fff}.prefix__st4{fill:#007f00}.prefix__st5{fill:#005800}.prefix__st6{fill:#289400}.prefix__st7,.prefix__st9{fill:none;stroke:#060;stroke-width:.3028}.prefix__st9{stroke:#000}.prefix__st10{fill:#730000}.prefix__st11{fill:#ff0018}.prefix__st13{fill:none;stroke:#000;stroke-width:.4239}.prefix__st15{fill:#b34b00}.prefix__st17{fill:none;stroke:#7e4b7e;stroke-width:.5451}.prefix__st18{fill:#7e4b7e}.prefix__st20{fill:#289400;stroke:#030}.prefix__st20,.prefix__st21,.prefix__st22{stroke-width:.3028}.prefix__st21{fill:none;stroke:#030}.prefix__st22{stroke:#004b00}.prefix__st22,.prefix__st23{fill:none}.prefix__st26{fill:#69f}.prefix__st27{fill:none;stroke:#fff;stroke-width:.4239}.prefix__st28,.prefix__st32{fill:none;stroke:#7e4b7e;stroke-width:.4845}.prefix__st32{stroke:#000;stroke-width:.1817}.prefix__st34{fill:#9b5f00}.prefix__st35{fill:#ffa54b}.prefix__st38{fill:#5ac800}</style><path id="prefix___x34_59" fill="#ce1126" d="M-128 0h768v512h-768z"/><path id="prefix___x34_58" fill="#003f87" d="M-128 36.6h768v438.9h-768z"/><path id="prefix___x34_57" class="prefix__st2" d="M457.1 256c0 111.1-90.1 201.1-201.1 201.1S54.9 367.1 54.9 256 145 54.9 256 54.9s201.1 90 201.1 201.1z"/><path id="prefix___x34_56" d="M422.3 255c0 92.1-74.6 166.8-166.6 166.8S89 347.1 89 255c0-92.1 74.6-166.8 166.6-166.8 92.1 0 166.7 74.7 166.7 166.8z" fill="none" stroke="#552300" stroke-width="3.75"/><path id="prefix___x34_55" class="prefix__st4" d="M237.4 79.5c15.1-16.2 28.7 2.5 28.3 11.3-.4 8.8-15.6 28.1-29.3 12.5 14.3 3.6 18.5-12.3 25.7-12.4-7.2.1-10.1-15.7-24.7-11.4z"/><path id="prefix___x34_54" class="prefix__st5" d="M236.4 103.3c14.3 3.6 17.8-12.1 25-12.3-4.2 5.1-15.1 17.9-25 12.3z"/><path id="prefix___x34_53" class="prefix__st5" d="M237.4 79.5c15.1-16.2 28.7 2.5 28.3 11.3-12.2-21.4-16-18.1-28.3-11.3z"/><path id="prefix___x34_52" class="prefix__st4" d="M80.5 206.4c-7.9-20.6 15-24.4 22.7-20.2 7.7 4.2 18.5 26.3-1.7 31.6 9.6-11.1-2.9-21.9.2-28.4-3.1 6.5-18.6 2.1-21.2 17z"/><path id="prefix___x34_51" class="prefix__st5" d="M101.5 217.8c9.6-11.1-3-21.2 0-27.7 2.7 6 9.4 21.4 0 27.7z"/><path id="prefix___x34_50" class="prefix__st5" d="M80.5 206.4c-7.9-20.6 15-24.4 22.7-20.2-24.7 1.4-23.4 6.2-22.7 20.2z"/><path id="prefix___x34_49" class="prefix__st4" d="M418.7 186c20.7 8.1 8 27.5-.3 30.3-8.4 2.8-32-4.2-22.4-22.6 1.7 14.5 18.2 12.7 21 19.3-2.7-6.6 11-15 1.7-27z"/><path id="prefix___x34_48" class="prefix__st5" d="M396 193.7c1.7 14.5 17.8 12.1 20.6 18.7-6.2-2-22.3-7.6-20.6-18.7z"/><path id="prefix___x34_47" class="prefix__st5" d="M418.7 186c20.7 8.1 8 27.5-.3 30.3 15.6-19 11.1-21.4.3-30.3z"/><path id="prefix___x34_46" class="prefix__st4" d="M150.8 402c-22.1-2.2-15.3-24.3-8-29.2 7.3-5 32-4.6 27.7 15.7-5.7-13.5-21-7.3-25.5-12.9 4.4 5.6-6.5 17.4 5.8 26.4z"/><path id="prefix___x34_45" class="prefix__st5" d="M170.5 388.4c-5.7-13.5-20.5-6.8-24.9-12.4 6.5.3 23.4 1.3 24.9 12.4z"/><path id="prefix___x34_44" class="prefix__st5" d="M150.8 402c-22.1-2.2-15.3-24.3-8-29.2-9.8 22.5-4.9 23.5 8 29.2z"/><path id="prefix___x34_43" class="prefix__st4" d="M372 388.1c.3 22-22.5 17.8-28.4 11.2-5.8-6.6-8.2-31 12.5-29.1-12.9 7.1-4.9 21.6-10 26.6 5.2-5.1 18.3 4.3 25.9-8.7z"/><path id="prefix___x34_42" class="prefix__st5" d="M356.2 370.1c-12.9 7.1-4.5 21-9.6 26-.5-6.5-1.4-23.3 9.6-26z"/><path id="prefix___x34_41" class="prefix__st5" d="M372 388.1c.3 22-22.5 17.8-28.4 11.2 23.7 7.1 24.2 2.1 28.4-11.2z"/><path id="prefix___x34_40" class="prefix__st4" d="M96.5 164.5c-2-21.9 21.1-19.5 27.4-13.4 6.3 6.1 10.6 30.3-10.3 30 12.3-8.1 3.2-21.9 7.9-27.3-4.6 5.5-18.4-2.9-25 10.7z"/><path id="prefix___x34_39" class="prefix__st5" d="M113.7 181.2c12.3-8.1 2.9-21.2 7.6-26.7.9 6.5 3.2 23.1-7.6 26.7z"/><path id="prefix___x34_38" class="prefix__st5" d="M96.5 164.5c-2-21.9 21.1-19.5 27.4-13.4-24.1-5.2-24.2-.2-27.4 13.4z"/><path id="prefix___x34_37" class="prefix__st4" d="M120.2 370.4c-21.9-3.7-13.6-25.2-6-29.7s32.2-2.4 26.6 17.5c-4.7-13.8-20.5-8.7-24.6-14.6 4.1 5.9-7.6 17 4 26.8z"/><path id="prefix___x34_36" class="prefix__st5" d="M140.8 358.2c-4.7-13.8-20-8.2-24-14.1 6.5.7 23.3 2.8 24 14.1z"/><path id="prefix___x34_35" class="prefix__st5" d="M120.2 370.4c-21.9-3.7-13.6-25.2-6-29.7-11.3 21.8-6.4 23.2 6 29.7z"/><path id="prefix___x34_34" class="prefix__st4" d="M292.2 82.5c19.9-9.8 25.9 12.5 22.5 20.5-3.5 8.1-24.6 20.8-31.9 1.4 12 8.4 21.7-5 28.5-2.6-6.8-2.4-3.9-18.2-19.1-19.3z"/><path id="prefix___x34_33" class="prefix__st5" d="M282.8 104.4c12 8.4 21-5 27.8-2.6-5.8 3.2-20.6 11.3-27.8 2.6z"/><path id="prefix___x34_32" class="prefix__st5" d="M292.2 82.5c19.9-9.8 25.9 12.5 22.5 20.5-3.8-24.3-8.6-22.5-22.5-20.5z"/><path id="prefix___x34_31" class="prefix__st4" d="M335.5 415.6c-9.9 19.7-28.3 5.6-30.4-2.9-2.1-8.5 6.9-31.3 24.6-20.2-14.7.5-14.3 17-21.1 19.2 6.9-2.2 14.2 12.1 26.9 3.9z"/><path id="prefix___x34_30" class="prefix__st5" d="M329.7 392.5c-14.7.5-13.7 16.6-20.5 18.8 2.6-6 9.5-21.4 20.5-18.8z"/><path id="prefix___x34_29" class="prefix__st5" d="M335.5 415.6c-9.9 19.7-28.3 5.6-30.4-2.9 17.9 17.1 20.6 12.9 30.4 2.9z"/><path id="prefix___x34_28" class="prefix__st4" d="M432.1 225.1c16.7 14.5-1.7 28.6-10.6 28.4-8.8-.1-28.7-14.7-13.4-28.8-3.3 14.2 12.9 18 13.2 25.2-.3-7.1 15.5-10.5 10.8-24.8z"/><path id="prefix___x34_27" class="prefix__st5" d="M408.1 224.7c-3.3 14.2 12.7 17.4 13 24.5-5.1-4-18.3-14.5-13-24.5z"/><path id="prefix___x34_26" class="prefix__st5" d="M432.1 225.1c16.7 14.5-1.7 28.6-10.6 28.4 21.2-12.7 17.8-16.4 10.6-28.4z"/><path id="prefix___x34_25" class="prefix__st4" d="M151.6 109c5-21.5 26.2-12 30.2-4.2 4.1 7.8.5 32-19.2 25.3 14.2-3.9 9.9-19.8 16.1-23.5-6.1 3.7-16.6-8.5-27.1 2.4z"/><path id="prefix___x34_24" class="prefix__st5" d="M162.7 130.1c14.2-3.9 9.4-19.3 15.6-23-1.2 6.5-4.3 23-15.6 23z"/><path id="prefix___x34_23_1_" class="prefix__st5" d="M151.6 109c5-21.5 26.2-12 30.2-4.2-21.3-12.5-22.9-7.7-30.2 4.2z"/><path id="prefix___x34_23" class="prefix__st4" d="M85.9 293c-19.5-10.6-4.5-28.3 4.2-30 8.6-1.8 31.2 8.2 19.3 25.2.1-14.6-16.5-14.9-18.4-21.8 1.9 6.9-12.8 13.6-5.1 26.6z"/><path id="prefix___x34_22" class="prefix__st5" d="M109.4 288.2c.1-14.6-16.1-14.3-18-21.2 5.9 2.9 21.1 10.4 18 21.2z"/><path id="prefix___x34_21" class="prefix__st5" d="M85.9 293c-19.5-10.6-4.5-28.3 4.2-30-17.9 16.9-13.8 19.8-4.2 30z"/><path id="prefix___x34_20" class="prefix__st4" d="M367 122.8c22-3.2 20.7 19.9 14.9 26.5-5.8 6.6-29.9 12.1-30.7-8.6 8.8 11.7 22.2 2 27.9 6.4-5.7-4.4 2-18.6-12.1-24.3z"/><path id="prefix___x34_19" class="prefix__st5" d="M351.2 140.6c8.8 11.7 21.5 1.7 27.2 6.1-6.4 1.3-23.1 4.4-27.2-6.1z"/><path id="prefix___x34_18" class="prefix__st5" d="M367 122.8c22-3.2 20.7 19.9 14.9 26.5 4-24.3-1-24.1-14.9-26.5z"/><path id="prefix___x34_17" class="prefix__st4" d="M242 436.8c-20.3 9-25.4-13.5-21.6-21.4 3.8-7.9 25.4-19.7 31.9-.1-11.7-8.9-21.9 4.1-28.6 1.4 6.8 2.7 3.2 18.3 18.3 20.1z"/><path id="prefix___x34_16" class="prefix__st5" d="M252.4 415.3c-11.7-8.9-21.2 4.2-27.9 1.5 5.9-3 21-10.5 27.9-1.5z"/><path id="prefix___x34_15" class="prefix__st5" d="M242 436.8c-20.3 9-25.4-13.5-21.6-21.4 2.8 24.3 7.7 22.8 21.6 21.4z"/><path id="prefix___x34_14" class="prefix__st4" d="M423.9 313.9c9.2 20.1-13.5 25.3-21.5 21.5-8-3.7-20-25.2-.2-31.7-8.9 11.6 4.2 21.7 1.6 28.4 2.7-6.7 18.4-3.2 20.1-18.2z"/><path id="prefix___x34_13" class="prefix__st5" d="M402.2 303.7c-8.9 11.6 4.3 21 1.6 27.7-2.9-5.8-10.6-20.9-1.6-27.7z"/><path id="prefix___x34_12" class="prefix__st5" d="M423.9 313.9c9.2 20.1-13.5 25.3-21.5 21.5 24.6-2.9 23.1-7.7 21.5-21.5z"/><path id="prefix___x34_11" class="prefix__st4" d="M77.1 249.2c-12.7-18.1 8.6-27.3 17.1-25.1 8.5 2.2 24.3 21 6.1 31.1 6.6-13.1-8.2-20.6-6.8-27.6-1.4 7-17.5 6.5-16.4 21.6z"/><path id="prefix___x34_10" class="prefix__st5" d="M100.3 255.2c6.6-13.1-8.1-19.9-6.8-26.9 4.1 5.1 14.4 18.5 6.8 26.9z"/><path id="prefix___x34_09" class="prefix__st5" d="M77.1 249.2c-12.7-18.1 8.6-27.3 17.1-25.1-23.6 7.3-21.2 11.7-17.1 25.1z"/><path id="prefix___x34_08" class="prefix__st4" d="M197.6 421.7c-20.8 7.6-24.4-15.2-20.1-22.8 4.3-7.6 26.7-18 31.9 2.1-11-9.7-22.1 2.6-28.6-.5 6.4 3.1 1.8 18.4 16.8 21.2z"/><path id="prefix___x34_07" class="prefix__st5" d="M209.3 401c-11-9.7-21.4 2.7-27.9-.4 6.1-2.6 21.7-9.1 27.9.4z"/><path id="prefix___x34_06" class="prefix__st5" d="M197.6 421.7c-20.8 7.6-24.4-15.2-20.1-22.8 1.1 24.5 6 23.3 20.1 22.8z"/><path id="prefix___x34_05" class="prefix__st4" d="M190.9 88.4c12.3-18.3 28.8-2 29.8 6.7s-11 30.1-27 16.9c14.7 1.4 16.4-15 23.5-16.3-7.2 1.4-12.6-13.8-26.3-7.3z"/><path id="prefix___x34_04" class="prefix__st5" d="M193.6 112.1c14.7 1.4 15.7-14.7 22.8-16-3.3 5.6-12.1 20-22.8 16z"/><path id="prefix___x34_03" class="prefix__st5" d="M190.9 88.4c12.3-18.3 28.8-2 29.8 6.7-15.5-19.1-18.8-15.3-29.8-6.7z"/><path id="prefix___x34_02" class="prefix__st4" d="M404.4 357.4c1.3 22-21.7 18.8-27.8 12.5-6.1-6.3-9.6-30.6 11.2-29.7-12.5 7.7-3.9 21.8-8.8 27 4.9-5.2 18.4 3.6 25.4-9.8z"/><path id="prefix___x34_01" class="prefix__st5" d="M387.8 340.2c-12.5 7.7-3.5 21.1-8.4 26.4-.8-6.4-2.5-23.2 8.4-26.4z"/><path id="prefix___x34_00" class="prefix__st5" d="M404.4 357.4c1.3 22-21.7 18.8-27.8 12.5 24 6 24.2 1 27.8-12.5z"/><path id="prefix___x33_99" class="prefix__st4" d="M397 150.7c21.8 4.4 12.8 25.6 5.1 29.9-7.7 4.2-32.3 1.4-26-18.3 4.3 14 20.2 9.3 24.1 15.3-4-6.1 8.1-16.8-3.2-26.9z"/><path id="prefix___x33_98" class="prefix__st5" d="M376 162.2c4.3 14 19.7 8.8 23.6 14.8-6.5-.9-23.3-3.5-23.6-14.8z"/><path id="prefix___x33_97" class="prefix__st5" d="M397 150.7c21.8 4.4 12.8 25.6 5.1 29.9 12-21.5 7.1-23-5.1-29.9z"/><path id="prefix___x33_96_1_" class="prefix__st4" d="M123.1 134.5c.2-22 23-17.3 28.6-10.6 5.7 6.7 7.5 31.2-13.2 28.8 13-6.8 5.4-21.5 10.6-26.4-5.3 5-18.1-4.7-26 8.2z"/><path id="prefix___x33_95" class="prefix__st5" d="M138.5 152.8c13-6.8 5-20.9 10.2-25.8.3 6.5.8 23.3-10.2 25.8z"/><path id="prefix___x33_94" class="prefix__st5" d="M123.1 134.5c.2-22 23-17.3 28.6-10.6-23.5-7.6-24.1-2.6-28.6 10.6z"/><path id="prefix___x33_93" class="prefix__st4" d="M96.9 332.8c-19.8-10-5.4-28.1 3.1-30.1s31.5 7.2 20.2 24.6c-.4-14.6-17-14.3-19.1-21.1 2.1 6.7-12.3 13.8-4.2 26.6z"/><path id="prefix___x33_92" class="prefix__st5" d="M120.2 327.2c-.4-14.6-16.6-13.7-18.7-20.5 6 2.6 21.4 9.6 18.7 20.5z"/><path id="prefix___x33_91" class="prefix__st5" d="M96.9 332.8c-19.8-10-5.4-28.1 3.1-30.1-17.3 17.5-13 20.2-3.1 30.1z"/><path id="prefix___x33_90" class="prefix__st4" d="M333.5 98.5c20.8-7.8 24.6 15 20.3 22.7-4.3 7.7-26.6 18.2-31.9-1.8 11.1 9.6 22.1-2.8 28.6.3-6.5-3.1-2.1-18.5-17-21.2z"/><path id="prefix___x33_89" class="prefix__st5" d="M321.9 119.4c11.1 9.6 21.4-2.9 27.9.1-6.1 2.6-21.7 9.2-27.9-.1z"/><path id="prefix___x33_88" class="prefix__st5" d="M333.5 98.5c20.8-7.8 24.6 15 20.3 22.7-1.4-24.5-6.3-23.3-20.3-22.7z"/><path id="prefix___x33_87" class="prefix__st4" d="M284.9 431.9c-17.8 13.1-27.7-7.8-25.7-16.3s20.6-24.7 31.2-6.9c-13.3-6.2-20.5 8.7-27.6 7.5 7.1 1.2 7 17.2 22.1 15.7z"/><path id="prefix___x33_86" class="prefix__st5" d="M290.4 408.7c-13.3-6.2-19.8 8.6-26.9 7.4 5-4.1 18.2-14.7 26.9-7.4z"/><path id="prefix___x33_85" class="prefix__st5" d="M284.9 431.9c-17.8 13.1-27.7-7.8-25.7-16.3 8 23.2 12.4 20.7 25.7 16.3z"/><path id="prefix___x33_84" class="prefix__st4" d="M430.9 265.8c15.2 16.1-4.6 28.2-13.4 27.2s-27.1-17.5-10.4-30c-4.7 13.8 11 19.2 10.6 26.4.4-7.1 16.5-8.9 13.2-23.6z"/><path id="prefix___x33_83" class="prefix__st5" d="M407.1 263.1c-4.7 13.8 10.9 18.5 10.5 25.7-4.8-4.6-16.8-16.4-10.5-25.7z"/><path id="prefix___x33_82" class="prefix__st5" d="M430.9 265.8c15.2 16.1-4.6 28.2-13.4 27.2 22.4-10.6 19.3-14.6 13.4-27.2z"/><path id="prefix___x33_81" class="prefix__st6" d="M146.8 325.1c1.6.7 0-5.1.5-7.3.6-2.3 5.1 5.6 7.3 6.7 2.3 1.1 16.3-5.5 16.3-5.5l3.3-6.2 1.8 5.1s3.9-4.5 5-6.1c1.1-1.7 0 3.3-1.1 5-1.1 1.7 3.3 2.3 2.8 5.6s4.5-2.3 4.5-2.3l12.9 1.1s2.2-7.8 5.6-12.3l1 5 5.3-5.4c5.9 15.6 18.4 32.6 44.1 41.9 24.1-8.8 36.5-24.3 42.9-39.1l7.2 7.4s5.6-1.7 6.7-2.3c1.1-.5 13.2 4.3 13.2 4.3s2.2.8 3.3 1.7c1.1.8.3-3.7.3-3.7s6.1 1.1 5.6 4.5c0 0 1.4-3.1 2.5-3.6s3.9 2.8 4.5 4c.5 1 13.8 2.7 15.6 3.9 0 0 1.5 1.7 1.5 2.8 0 0 2.8-.3 5-.3 0 0-1.7.8-1.7 2.6 0 1.7-.8 3-2.5 3.9-1.7.8 0 1.5 2.2 1.7 2.3.3 0 3.1-4.5 4.8 0 0-1 2.5.8 3.3 0 0-3.9.3-4.5-.8 0 0-1.4 2.6-1.4 4 0 0-4.2-1.4-5.3-2 0 0-1.7 1.7-.5 2.5 0 0-7.6-.8-9.1-3.6 0 0-2.7.8-2.2 1.8 0 0-5.3-3.6-7-3.6l-1.1 1.9s-3.6-2.2-4.8-2.2c-1 0-.2 1.7-.2 1.7l-5.1-3.1-2 3.1s-4.2-2-5.3-2.8c-1-.8-1.4 1.7-2.2 2 0 0-1.7-2.3-4-2 0 0-.8 2.8-.5 3.6 0 0-6.5-1.4-7.6-1.7-1.1-.3-.5 1.4 0 2.5 0 0-4.8-1.4-5.8-2.2l-.3 2.2s-4-.3-4.8-1.1l-2.5 3.4H279l-.8 3s-7-2-7.6-.8c-.5 1.1.3 2.8.3 2.8s-5.6 0-6.1-.8l-.5 2.5s-7.1-2.2-8.8-1.1c0 0-2.2 2.3-3.6 2.8-1.4.6 0-.8 0-.8l-2.2-3s-2.5 1.4-4 .8c-1.4-.6-5.8 2.2-7.3 1.4 0 0 0-2-1.1-2.5-1-.5-3-.5-3.9.8 0 0-.8-1.1-2.3-3.3-1.4-2.3-3.3.2-3.3.2l-.3-2.7s-1.7 0-3.9-.3c-2.3-.3-2.8-2.3-2.8-2.3s-5.9.6-6.8.3l1.5-1.4s-8.1 1.7-9.8 1c-1.8-.5 1.9-2.8 1.9-2.8s-7.5-1.9-9-2.2c-1.4-.3-9.5 1.4-10.6 1.4-1.1 0-1.7-1.9-1.7-1.9s-2 1.7-3.6 2.2c0 0-1.4-3.3-.5-3.7 0 0-5.3 1.5-5.6 2.8 0 0-1.4-2.2-1.1-3.1 0 0-2.5 4-3.6 4.8-1.1.8-.2-2-.2-2s-3.1 4-4.3 4.3V343s-9 4.8-11.5 4.2c0 0 0-2 .8-2.5 0 0-4.2 0-5.6-.3-1.4-.2-3-.8-4.5-1.1-1.4-.2 2-1.7 4.3-1 0 0-6.3-2.3-8.1-1.1 0 0-.8-2.3 2.5-3.1 0 0-4.3-4.2-6.8-3.9 0 0 2.8-1.7 5.1-.8 0 0-2.6-7.1-4.3-7.9-.1-.2 5.8-1.3 7.5-.4"/><path id="prefix___x33_80" class="prefix__st7" d="M146.8 325.1c1.6.7 0-5.1.5-7.3.6-2.3 5.1 5.6 7.3 6.7 2.3 1.1 16.3-5.5 16.3-5.5l3.3-6.2 1.8 5.1s3.9-4.5 5-6.1c1.1-1.7 0 3.3-1.1 5-1.1 1.7 3.3 2.3 2.8 5.6s4.5-2.3 4.5-2.3l12.9 1.1s2.2-7.8 5.6-12.3l1 5 5.3-5.4c5.9 15.6 18.4 32.6 44.1 41.9 24.1-8.8 36.5-24.3 42.9-39.1l7.2 7.4s5.6-1.7 6.7-2.3c1.1-.5 13.2 4.3 13.2 4.3s2.2.8 3.3 1.7c1.1.8.3-3.6.3-3.6s6.1 1.1 5.6 4.5c0 0 1.4-3.1 2.5-3.6s3.9 2.8 4.5 4c.5 1 13.8 2.7 15.6 3.9 0 0 1.5 1.7 1.5 2.8 0 0 2.8-.3 5-.3 0 0-1.7.8-1.7 2.6 0 1.7-.8 3-2.5 3.9-1.7.8 0 1.5 2.2 1.7 2.3.3 0 3.1-4.5 4.8 0 0-1 2.5.8 3.3 0 0-3.9.3-4.5-.8 0 0-1.4 2.6-1.4 4 0 0-4.2-1.4-5.3-2 0 0-1.7 1.7-.5 2.5 0 0-7.6-.8-9.1-3.6 0 0-2.7.8-2.2 1.8 0 0-5.3-3.6-7-3.6l-1.1 1.9s-3.6-2.2-4.8-2.2c-1 0-.2 1.7-.2 1.7l-5.1-3.1-2 3.1s-4.2-2-5.3-2.8c-1-.8-1.4 1.7-2.2 2 0 0-1.7-2.3-4-2 0 0-.8 2.8-.5 3.6 0 0-6.5-1.4-7.6-1.7-1.1-.3-.5 1.4 0 2.5 0 0-4.8-1.4-5.8-2.2l-.3 2.2s-4-.3-4.8-1.1l-2.5 3.4H279l-.8 3s-7-2-7.6-.8c-.5 1.1.3 2.8.3 2.8s-5.6 0-6.1-.8l-.5 2.5s-7.1-2.2-8.8-1.1c0 0-2.2 2.3-3.6 2.8-1.4.6 0-.8 0-.8l-2.2-3s-2.5 1.4-4 .8c-1.4-.6-5.8 2.2-7.3 1.4 0 0 0-2-1.1-2.5-1-.5-3-.5-3.9.8 0 0-.8-1.1-2.3-3.3-1.4-2.3-3.3.2-3.3.2l-.3-2.7s-1.7 0-3.9-.3c-2.3-.3-2.8-2.3-2.8-2.3s-5.9.6-6.8.3l1.5-1.4s-8.1 1.7-9.8 1c-1.8-.5 1.9-2.8 1.9-2.8s-7.5-1.9-9-2.2c-1.4-.3-9.5 1.4-10.6 1.4-1.1 0-1.7-1.9-1.7-1.9s-2 1.7-3.6 2.2c0 0-1.4-3.3-.5-3.6 0 0-5.3 1.5-5.6 2.8 0 0-1.4-2.2-1.1-3.1 0 0-2.5 4-3.6 4.8-1.1.8-.2-2-.2-2s-3.1 4-4.3 4.3V343s-9 4.8-11.5 4.2c0 0 0-2 .8-2.5 0 0-4.2 0-5.6-.3-1.4-.2-3-.8-4.5-1.1-1.4-.2 2-1.7 4.3-1 0 0-6.3-2.3-8.1-1.1 0 0-.8-2.3 2.5-3.1 0 0-4.3-4.2-6.8-3.9 0 0 2.8-1.7 5.1-.8 0 0-2.6-7.1-4.3-7.9-.1-.2 5.8-1.3 7.5-.4z"/><path id="prefix___x33_79" d="M217.3 319.4c-2.7-4.6-4.8-9.3-6.4-13.9l45.1-39.7 45.1 39.6c-1.6 4.6-3.6 9.5-6.6 14.2l-.2.3c-.8-.3-3.5-1-3.5-1s-1.5 1.4-2.6 1.5c-1.6.2-2.9-1.4-2.9-1.4s-2 1.7-4 1.4c-2-.2-2.8-1.5-2.8-1.5s-2.1 1.7-3.5 1.4c-1.4-.3-2.3-1.3-2.3-1.3s-1.2 1.6-3 1.3c-1.7-.3-3.2-1.3-3.2-1.3s-2.6 1.1-4.3 1.4c-1.7.3-3.1-1.5-3.1-1.5s-2.2 1.5-3 1.5c-.8 0-4-1.5-4-1.5s-3.2 1-4.4 1c-1 0-4.3-1.4-4.3-1.4s-3 .8-4.4.8c-1.5 0-3.5-.8-3.5-.8s-2.5 1.1-3.9.8c-1.5-.3-2.6-.8-2.6-.8s-2.7 1.1-4.5.8c-1.7-.3-3.6-1.5-3.6-1.5s-.3.8-3.5 1.5h-.1" fill="#9dd7ff"/><path id="prefix___x33_78" class="prefix__st9" d="M266.1 296.7s9 5.1 0 14.9"/><path id="prefix___x33_77" class="prefix__st10" d="M224.9 309.9s2.5 1.4 9.3 3.8c5.7 2 12.4 2.9 22.1 2.9 19.7 0 19.4-3.3 19.4-3.3l-7 7.1s-29.3.2-33.1-1.8c-2-1.1-6.3-4.5-10.7-8.7"/><path id="prefix___x33_76" class="prefix__st9" d="M224.9 309.9s2.5 1.4 9.3 3.7c5.7 2 12.4 2.9 22.1 2.9 19.7 0 19.4-3.3 19.4-3.3l-7 7.1s-29.3.2-33.1-1.8c-2-.9-6.3-4.4-10.7-8.6z"/><path id="prefix___x33_75" class="prefix__st9" d="M225.8 310.5l12.9-12.3-1.5 16.5"/><path id="prefix___x33_74" class="prefix__st9" d="M244 316.1v-27.5"/><path id="prefix___x33_73" class="prefix__st9" d="M266.1 316.1v-29.2"/><path id="prefix___x33_72" class="prefix__st9" d="M254.9 316.6v-31.4"/><path id="prefix___x33_71" class="prefix__st11" d="M244 290l-5.8 1.9 5.8.6V290"/><path id="prefix___x33_70" class="prefix__st9" d="M244 290l-5.8 1.9 5.8.6V290"/><path id="prefix___x33_69" class="prefix__st11" d="M254.9 285.8l-6.1 2.3 6.1.2v-2.5"/><path id="prefix___x33_68" class="prefix__st9" d="M254.9 285.8l-6.1 2.3 6.1.2v-2.5"/><path id="prefix___x33_67" class="prefix__st11" d="M266.1 287.4l-6.1 2.3 6.1.3v-2.6"/><path id="prefix___x33_66" class="prefix__st9" d="M266.1 287.4l-6.1 2.3 6.1.3v-2.6z"/><path id="prefix___x33_65" class="prefix__st2" d="M227.7 308.8l10.9-10.6-.5 6.4s-5.6 3.6-5.6 6.3l-4.8-2.1"/><path id="prefix___x33_64" class="prefix__st9" d="M227.7 308.8l10.9-10.6-.5 6.4s-5.6 3.6-5.6 6.3l-4.8-2.1"/><path id="prefix___x33_63" class="prefix__st2" d="M233.6 311s1.1-3.3 4.3-5l-.3 6.7-4-1.7"/><path id="prefix___x33_62" class="prefix__st9" d="M233.6 311s1.1-3.3 4.3-5l-.3 6.7-4-1.7z"/><path id="prefix___x33_61" class="prefix__st2" d="M249.3 292.5s4.5-.6 7.8 0c0 0-.5 4.5 0 5.3 0 0-6.1-1.5-8.6.8 0 .1-.9-4.1.8-6.1"/><path id="prefix___x33_60" class="prefix__st9" d="M249.3 292.5s4.5-.6 7.8 0c0 0-.5 4.5 0 5.3 0 0-6.1-1.5-8.6.8 0 .1-.9-4.1.8-6.1z"/><path id="prefix___x33_59" class="prefix__st2" d="M239.8 293.7s4.5-.6 7.8 0c0 0-.8 5-.3 5.8 0 0-5-2.8-7.5-.5 0 0-1.6-3.4 0-5.3"/><path id="prefix___x33_58" class="prefix__st9" d="M239.8 293.7s4.5-.6 7.8 0c0 0-.8 5-.3 5.8 0 0-5-2.8-7.5-.5 0 0-1.6-3.4 0-5.3z"/><path id="prefix___x33_57" class="prefix__st2" d="M239.5 299.5s4.5-.5 7.8 0c0 0-.5 4.5 0 5.3 0 0-5.8-1.4-8.3.8 0 .1-1.1-4.1.5-6.1"/><path id="prefix___x33_56" class="prefix__st9" d="M239.5 299.5s4.5-.5 7.8 0c0 0-.5 4.5 0 5.3 0 0-5.8-1.4-8.3.8 0 .1-1.1-4.1.5-6.1z"/><path id="prefix___x33_55" class="prefix__st2" d="M248.5 298.7s6.5-.8 9.8-.3c0 0-1.4 3.6.3 6.1 0 0-7-1.9-9.6.3 0 0-2.2-4.1-.5-6.1"/><path id="prefix___x33_54" class="prefix__st9" d="M248.5 298.7s6.5-.8 9.8-.3c0 0-1.4 3.6.3 6.1 0 0-7-1.9-9.6.3 0 0-2.2-4.1-.5-6.1z"/><path id="prefix___x33_53" class="prefix__st2" d="M239 305.7s5.3 0 8.6.6c0 0-.8 6.4-.3 7.2 0 0-7-1.7-8.3.6 0 0-2.3-5.8 0-8.4"/><path id="prefix___x33_52" class="prefix__st9" d="M239 305.7s5.3 0 8.6.6c0 0-.8 6.4-.3 7.2 0 0-7-1.7-8.3.6 0 0-2.3-5.8 0-8.4z"/><path id="prefix___x33_51" class="prefix__st2" d="M248.8 305.7s7.5-.5 10.9 0c0 0-2 4.8.2 9 0 0-9.8-2.8-11.1-.5 0-.1-2.3-5.9 0-8.5"/><path id="prefix___x33_50" class="prefix__st9" d="M248.8 305.7s7.5-.5 10.9 0c0 0-2 4.8.2 9 0 0-9.8-2.8-11.1-.5 0-.1-2.3-5.9 0-8.5z"/><path id="prefix___x33_49" class="prefix__st2" d="M260.2 292.5s4.5-.6 7.8 0c0 0-.5 4.5 0 5.3 0 0-6.1-1.5-8.6.8 0 .1-.8-4.1.8-6.1"/><path id="prefix___x33_48" class="prefix__st9" d="M260.2 292.5s4.5-.6 7.8 0c0 0-.5 4.5 0 5.3 0 0-6.1-1.5-8.6.8 0 .1-.8-4.1.8-6.1z"/><path id="prefix___x33_47" class="prefix__st2" d="M260.2 298.7s4.5-.5 7.8 0c0 0-.5 4.5 0 5.3 0 0-6.1-1.4-8.6.8 0 0-.8-4.1.8-6.1"/><path id="prefix___x33_46_1_" class="prefix__st9" d="M260.2 298.7s4.5-.5 7.8 0c0 0-.5 4.5 0 5.3 0 0-6.1-1.4-8.6.8 0 0-.8-4.1.8-6.1z"/><path id="prefix___x33_45" class="prefix__st2" d="M260.8 305.2s4.5-.6 7.9 0c0 0-1.1 7-.6 7.8 0 0-5.1-2.4-7.5-.3 0 0-1.5-5.6.2-7.5"/><path id="prefix___x33_44" class="prefix__st9" d="M260.8 305.2s4.5-.6 7.9 0c0 0-1.1 7-.6 7.8 0 0-5.1-2.4-7.5-.3 0 0-1.5-5.6.2-7.5z"/><path id="prefix___x33_43" class="prefix__st11" d="M269.7 300.7c-.3-1.2 3.6-1.1 3.6-1.1s1.1 4.2 0 6.8l-3.3-.6c0-.1.4-2.9-.3-5.1"/><path id="prefix___x33_42" class="prefix__st9" d="M269.7 300.7c-.3-1.3 3.6-1.1 3.6-1.1s1.1 4.2 0 6.8l-3.3-.6c0-.1.4-2.9-.3-5.1z"/><path id="prefix___x33_41" class="prefix__st2" d="M270 305.7s1.5 5.3 3.3 5.9l-2.5 3s-3-2.2-3.3-4.7c0 0 2-2.2 2.5-4.2"/><path id="prefix___x33_40" class="prefix__st9" d="M270 305.7s1.5 5.3 3.3 5.9l-2.5 3s-3-2.2-3.3-4.7c0 0 2-2.2 2.5-4.2z"/><path id="prefix___x33_39" d="M294.4 320.1c-7.2 12-19 23.2-38.3 30.2-19.7-7.1-31.7-18.9-38.8-30.7l.1-.1c3.2-.6 3.5-1.5 3.5-1.5s2 1.1 3.6 1.5c1.8.3 4.5-.8 4.5-.8s1.1.5 2.6.8c1.4.3 3.9-.8 3.9-.8s2.1.8 3.5.8 4.4-.8 4.4-.8 3.2 1.4 4.3 1.4c1.1 0 4.4-1 4.4-1s3.1 1.5 4 1.5c.8 0 3-1.5 3-1.5s1.5 1.8 3.1 1.5c1.7-.2 4.3-1.4 4.3-1.4s1.6.9 3.2 1.2c1.8.3 3-1.2 3-1.2s.9.9 2.3 1.2c1.5.3 3.5-1.4 3.5-1.4s.8 1.3 2.8 1.5c2 .3 4-1.4 4-1.4s1.4 1.6 2.9 1.4c1.1-.1 2.6-1.5 2.6-1.5s2.7.7 3.6 1.1" fill="#006ac8"/><path id="prefix___x33_38" class="prefix__st9" d="M292.6 322.8c-1.6.1-1.8-.9-1.8-.9s-2.1 1.8-4.1 1.5c-2.1-.3-3-1.7-3-1.7s-2.2 1.8-3.6 1.5c-1.5-.2-2.5-1.3-2.5-1.3s-1.4 1.6-3.1 1.3c-1.8-.2-3.3-1.3-3.3-1.3s-2.8 1.1-4.6 1.5c-1.8.3-3.2-1.7-3.2-1.7s-4.1 1.4-4.9 1.4c-.9 0-3.9-1.4-3.9-1.4s-2 1.3-3.1 1.3c-1.3 0-4.6-1.5-4.6-1.5s-3.1.8-4.6.8c-1.5 0-3.6-.8-3.6-.8s-2.7 1.1-4.2.8c-1.5-.3-2.6-.8-2.6-.8s-2.9 1.1-4.7.8c-1.8-.3-3.9-1.5-3.9-1.5s-.3.7-3.7 1.5h-.1"/><path id="prefix___x33_37" class="prefix__st2" d="M256.1 220.2v45.6l-45.1 40c-4.4-12.7-4.7-24.1-4.7-29v-56.6h49.8"/><path id="prefix___x33_36" class="prefix__st13" d="M256.1 220.2v45.6l-45.1 40c-4.4-12.7-4.7-24.1-4.7-29v-56.6h49.8"/><path id="prefix___x33_35" d="M256.1 220.2v45.6l45 39.9c4.4-12.7 4.7-24.1 4.7-29v-56.6h-49.7" fill="#ffd83c"/><path id="prefix___x33_34" class="prefix__st13" d="M256.1 220.2v45.6l45 39.9c4.4-12.7 4.7-24.1 4.7-29v-56.6h-49.7"/><path id="prefix___x33_33" class="prefix__st15" d="M209.9 232.7l28.3 30.7c1.4 1 2.6 4.1 2.6 6.9 0 1 2.9 2.5 3.3 2.7 1.2.5 1.6-1.9 1.5-2.2-.3-.8-.8-1.6-.8-1.6.3-.3 1.1.9 2.4 1.5 1 .5 2-.9 1.5-2.4-.4-1.5-1-1.9-2.3-2.5 0 0-3.2-.9-3.7-1.8-.9-1.8-3.5-4.8-4.3-5.6L217 226.6c-1.9-1.9-4.9-2.5-6.9-1-1.2.9-1.9 5.2-.2 7.1"/><path id="prefix___x33_32" class="prefix__st9" d="M209.9 232.7l28.3 30.7c1.4 1 2.6 4.1 2.6 6.9 0 1 2.9 2.5 3.3 2.7 1.2.5 1.6-1.9 1.5-2.2-.3-.8-.8-1.6-.8-1.6.3-.3 1.1.9 2.4 1.5 1 .5 2-.9 1.5-2.4-.4-1.5-1-1.9-2.3-2.5 0 0-3.2-.9-3.7-1.8-.9-1.8-3.5-4.8-4.3-5.6L217 226.6c-1.9-1.9-4.9-2.5-6.9-1-1.2.9-1.9 5.2-.2 7.1z"/><path id="prefix___x33_31" class="prefix__st9" d="M211.2 227.5l28 35"/><path id="prefix___x33_30" class="prefix__st10" d="M211.2 271.5l27.8-33s1.4 2 3.6 3.3l-27.2 32.8c.1 0-2.4.2-4.2-3.1"/><path id="prefix___x33_29" class="prefix__st9" d="M211.2 271.5l27.8-33s1.4 2 3.6 3.3l-27.2 32.8c.1 0-2.4.2-4.2-3.1z"/><path id="prefix___x33_28" class="prefix__st2" d="M236.2 234.5s-.3-4.5 5.3-6.1c0 0 8.1 2.8 10.3 9 0 0-2.2 6.1-6.1 5.9 0 0-5.3-1.2-9.5-8.8"/><path id="prefix___x33_27" class="prefix__st9" d="M236.2 234.5s-.3-4.5 5.3-6.1c0 0 8.1 2.8 10.3 9 0 0-2.2 6.1-6.1 5.9 0 0-5.3-1.2-9.5-8.8z"/><path id="prefix___x33_26" d="M237.9 234s1.7 3.9 6.7 7c0 0-.8-5 5.3-3.6" fill="none" stroke="#7e4b7e" stroke-width=".848"/><path id="prefix___x33_25" class="prefix__st10" d="M303.4 272.3c-.9.7-2.8 1.1-2.8 1.1-1.8-2.1-4.2-5.2-6.7-7.9l-27.2-33.4 2.8-2.7 24.5 28.7c.7.7 5.9 6.1 10 11.5 0-.1.6 1.8-.6 2.7"/><path id="prefix___x33_24" class="prefix__st9" d="M303.4 272.3c-.9.7-2.8 1.1-2.8 1.1-1.8-2.1-4.2-5.2-6.7-7.9l-27.2-33.4 2.8-2.7 24.5 28.7c.7.7 5.9 6.1 10 11.5 0-.1.6 1.8-.6 2.7z"/><path id="prefix___x33_23" class="prefix__st2" d="M276 236.4l-4.4-5.2s-3.3.4-4 2.2c0 0-2.4 4-8.8 4.4 0 0 1.8 7.4 9.2 11.4 0 0 2.7-7.6 5.3-9 .1-.1 2.8-2 2.7-3.8"/><path id="prefix___x33_22" class="prefix__st9" d="M276 236.4l-4.4-5.2s-3.3.4-4 2.2c0 0-2.4 4-8.8 4.4 0 0 1.8 7.4 9.2 11.4 0 0 2.7-7.6 5.3-9 .1-.1 2.8-2 2.7-3.8z"/><path id="prefix___x33_21" class="prefix__st17" d="M268.3 234.3c1.1 1.1 4.4 5.3 4.4 5.3"/><path id="prefix___x33_20" class="prefix__st17" d="M269.7 236.6c-.2.6-.6 2.4-1.6 3.3"/><path id="prefix___x33_19" class="prefix__st17" d="M270.2 237c-.1.4-.1 1.8-1.6 3.1"/><path id="prefix___x33_18" class="prefix__st17" d="M270.8 237.6c-.2.7-.3 1.3-.8 1.8"/><path id="prefix___x33_17" class="prefix__st17" d="M271.1 238.3c0 .5-.3.6-.4.9"/><path id="prefix___x33_16" class="prefix__st17" d="M267.2 236.3c-.4.4-3.4 2.4-5.1 3"/><path id="prefix___x33_15" class="prefix__st17" d="M266.4 237.4c-.4.4-2.3 1.9-3.3 2.3"/><path id="prefix___x33_14" class="prefix__st17" d="M266.1 238.7c-.6.4-1.7 1.5-2.5 1.8"/><path id="prefix___x33_13" class="prefix__st17" d="M265.5 239.9c-.4.5-1 .9-1.6 1.3"/><path id="prefix___x33_12" class="prefix__st2" d="M264.4 260.1l30.8-30.6 7.6 8.1s-1.6-.6-2.2-.2c-.5.4.6 2 .6 2s-1.5-.5-2.1-.1c-.7.4 0 2.2 0 2.2s-1.2-.9-1.9-.5c-.5.4 0 2.4 0 2.4s-1.7-.5-2.1-.1c-.4.4 0 2.2 0 2.2s-1.7-.8-2.5 0 .4 2 .4 2-2.1-.8-2.9.4c-.8 1.3.1 2.4.1 2.4s-1.7-.8-2.1-.4c-.4.4 0 2.4 0 2.4s-1.5-.8-2.4.2c-.9 1.1.1 2.1.1 2.1s-1.4-.8-2.1-.4c-.7.4.2 2.4.2 2.4s-1.4-.9-2.3 0c-.9 1 0 2.1 0 2.1s-1.1-1-2.3 0c-1 1.1 0 2.3 0 2.3s-1.7-.8-2.3 0c-.7.8.2 2 .2 2s-1.2-.7-2.1-.3c-.8.4 0 2.3 0 2.3s-1.3-1.4-1.8-.6c-.6.7.1 2.5.1 2.5s-1.1-1.4-1.8-.6c-.7.6.4 2.2.4 2.2s-2.1-.9-1.6-.9c.5-.3-6-7.5-6-7.5"/><path id="prefix___x33_11" class="prefix__st9" d="M264.4 260.1l30.8-30.6 7.6 8.1s-1.6-.6-2.2-.2c-.5.4.6 2 .6 2s-1.5-.5-2.1-.1c-.7.4 0 2.2 0 2.2s-1.2-.9-1.9-.5c-.5.4 0 2.4 0 2.4s-1.7-.5-2.1-.1c-.4.4 0 2.2 0 2.2s-1.7-.8-2.5 0 .4 2 .4 2-2.1-.8-2.9.4c-.8 1.3.1 2.4.1 2.4s-1.7-.8-2.1-.4c-.4.4 0 2.4 0 2.4s-1.5-.8-2.4.2c-.9 1.1.1 2.1.1 2.1s-1.4-.8-2.1-.4c-.7.4.2 2.4.2 2.4s-1.4-.9-2.3 0c-.9 1 0 2.1 0 2.1s-1.1-1-2.3 0c-1 1.1 0 2.3 0 2.3s-1.7-.8-2.3 0c-.7.8.2 2 .2 2s-1.2-.7-2.1-.3c-.8.4 0 2.3 0 2.3s-1.3-1.4-1.8-.6c-.6.7.1 2.5.1 2.5s-1.1-1.4-1.8-.6c-.7.6.4 2.2.4 2.2s-2.1-.9-1.6-.9c.5-.3-6-7.5-6-7.5z"/><path id="prefix___x33_10" class="prefix__st18" d="M293.5 232l-2.4 2.4.5 8.2s.5-2.4 1.3-.7c0 0 .2-2 .7-1.7-.4-.2-.1-8.2-.1-8.2"/><path id="prefix___x33_09" class="prefix__st18" d="M289 236.5l-1.8 1.7.6 8.2s.5-3.1 1.2-.6c0 0-.1-2.1-.1-2.8.1.5.1-6.5.1-6.5"/><path id="prefix___x33_08" class="prefix__st18" d="M270.4 254.9l-1.7 1.8.4 5s.5-3.2 1.2-.7c0 0-.2-2.1-.2-2.8 0 .5.3-3.3.3-3.3"/><path id="prefix___x33_07" class="prefix__st10" d="M265 259.5c-.6-.2-1.2 0-2.2.5-.8.5-1.9.3-1.8-.7.1-.9 0-.8 1.1-1.6 1.7-.9 3.9-1 5.2-.5l-2.3 2.3"/><path id="prefix___x33_06" class="prefix__st9" d="M265 259.5c-.6-.2-1.2 0-2.2.5-.8.5-1.9.3-1.8-.7.1-.9 0-.8 1.1-1.6 1.7-.9 3.9-1 5.2-.5l-2.3 2.3"/><path id="prefix___x33_05" class="prefix__st10" d="M294.7 229.9c-.2-.7-.4-1.5.3-2.4.7-.8.7-2.3-1-1.6-1.8.7-2.4 2.7-.9 5.7l1.6-1.7"/><path id="prefix___x33_04" class="prefix__st9" d="M294.7 229.9c-.2-.7-.4-1.5.3-2.4.7-.8.7-2.3-1-1.6-1.8.7-2.4 2.7-.9 5.7l1.6-1.7z"/><path id="prefix___x33_03" class="prefix__st10" d="M376.1 199.6c.5.2 2-2.1.5-3.1 0 0-.5-2-2.2-2.1 0 0-1.4-2-3.3-1.7 0 0-2.2-1.6-3-1.5-.9.2-3 2.3-3.1 3-.1.6 0 1.9.5 2.5.6.5 1-.1 1.1-1 0 0-.4 1.6.8 2.3 1.2.7 1.1.1 1.2-.7 0 0 .3 1.7 1.1 2 .8.3 1.4-.4 2-.4 0 0-1 .8-.3 1.4.7.6 1.6.3 2.1-.1.7-.5.4-1.8 2.6-.6"/><path id="prefix___x33_02" class="prefix__st9" d="M376.1 199.6c.5.2 2-2.1.5-3.1 0 0-.5-2-2.2-2.1 0 0-1.4-2-3.3-1.7 0 0-2.2-1.6-3-1.5-.9.2-3 2.3-3.1 3-.1.6 0 1.9.5 2.5.6.5 1-.1 1.1-1 0 0-.4 1.6.8 2.3 1.3.7 1.1.1 1.3-.7 0 0 .3 1.7 1.1 2 .8.3 1.4-.4 2-.4 0 0-1 .8-.3 1.4.7.6 1.6.3 2.1-.1.6-.5.3-1.8 2.5-.6z"/><path id="prefix___x33_01" class="prefix__st9" d="M366.7 195.7c.5-1.8 2.3-3.2 4.2-2.9"/><path id="prefix___x33_00" class="prefix__st9" d="M368.7 197.3c.2-.4.3-.8.6-1.3.9-1.6 3-1.6 4.7-1.9"/><path id="prefix___x32_99" class="prefix__st9" d="M371.4 198.8c.6-.4.8-1.1 1.5-1.5 1-.5 2.2-.9 3.3-.7"/><path id="prefix___x32_98" class="prefix__st10" d="M287.6 129.8s.6-1.5 1.8-.6c1 .8 1.4 4.5 1.4 4.5l-1.7.8s.9-1.4-1.5-4.7"/><path id="prefix___x32_97" class="prefix__st9" d="M287.6 129.8s.6-1.5 1.8-.6c1 .8 1.4 4.5 1.4 4.5l-1.7.8s.9-1.4-1.5-4.7z"/><path id="prefix___x32_96" class="prefix__st10" d="M278.2 162.5s.8-1.1-.3-3.6l1.7-.5s.6 2-.2 4.2h-1.2"/><path id="prefix___x32_95" class="prefix__st9" d="M278.2 162.5s.8-1.1-.3-3.6l1.7-.5s.6 2-.2 4.2h-1.2"/><path id="prefix___x32_94" d="M290.7 128.4s-1.2-.1-2.4-.9l2.4.9" fill="#6f6"/><path id="prefix___x32_93" class="prefix__st7" d="M290.7 128.4s-1.2-.1-2.4-.9"/><path id="prefix___x32_92" class="prefix__st10" d="M307 156.8l-4 2.4 2 .9 4.8-2.8-2.8-.5"/><path id="prefix___x32_91" class="prefix__st9" d="M307 156.8l-4 2.4 2 .9 4.8-2.8-2.8-.5"/><path id="prefix___x32_90" class="prefix__st10" d="M254 172.3c-1 .8-1.1 2.3-1.8 3.1-.5.8-2.1 2-2.2 3.2-.2 1.3-.3 2.1.2 3.8.6 1.7 3.2 9.1 2.2 14.7-1.1 5.6-.7 8-.3 8.9.4.8 1.7 3.1 2.4 3.1 1.7-.2.9-.7 1.6-1.8 1.6-2.7 0-23.7-.7-29.5-.5-4.5-2.6-8.5-2.8-9-.2-.5-.6-1.9-.9-2.7-1.6-3.8-3.4-7-3.4-14.8 0 0-5.1 1.1-9.5-8.7-2.3-5-5.6-4.5-9.6-6.1l1.8-1.1s3.3 1.7 5 1.7c1.7 0 1.1-3.3 1.1-3.3l1.7-1.7v7.3c0 3.3 4.6 7.9 7.3 9.3 1.7.8 3.9-2.6 3.3-5.9-.5-3.3 0-7.8 0-7.8l2.3 1.4s-.8 1.5-.6 2.3c.3.8 1.5-.8 2.3-1.7 0 0 .2.2 1 .2 0 0-1.7 2.8-2.5 4.3-.8 1.4-.8 6.7-.8 8.6 0 2 .7 6.6.7 8 0 1 2 5.3 3.5 7.9.5 1 1.8 3.8 1.8 3.8 1.3 2 1.4 3.3 2.1 5 .4.8 1.1 3.2 1.7 7.4.2 1 .4 5 .7 7.6.3 2.5 2.4.5 4.9-1.2 2.5-1.9 2.5-6.4 2.5-6.4s2-1.7 1.7-.7c-.2 1 1 2.1 1 2.1-1.6 3.5-.6 3.1.9 3 1.6-.2 7-4.3 7-4.3.7-.2 4-.2 3.4 0-.6.3-1.5 1.9-1.5 1.9l3.5-.4c-1.2.9-5.9 3.6-7 4.3-1.1.7-6.8 3.4-9.2 4.4-2.4 1-7.1 3.3-7.3 5.7-.1 2.4.3 8.9 0 10.9-.2 2.1-1 11.4-1 11.4h-11.1s2.2-8.1-.1-10.3c-2.2-2.3-7.3-9-10.6-11.3-3.3-2.2 2.2-.5 2.2-.5v-2.3l5.1 6.1s8.9-7.8 0-18.4c-2.8-3.3-5.6-8.4-7.8-9-2.3-.6-3.4-1.1-7.3 0-4 1.1-13.4 1.1-17.4-5.1l3.3-.5 2.8-1.1s-1.1 4 6.8 4c7.8 0 9 0 8.3-7.3l2.3-1.1 1.7 1.7s-1.1 4-.5 5.6c.5 1.7 3.3 2.8 5.5 4.5.9.7 1.7.8 2.3.8.9-.1 1.1-.1 2.4-1.4 1.9-2.1 1.5-2 3.3-3.6 0 0 .9-1.5 1.1-1.7l1.2 2.7"/><path id="prefix___x32_89" class="prefix__st9" d="M254 172.3c-1 .8-1.1 2.3-1.8 3.1-.5.8-2.1 2-2.2 3.2-.2 1.2-.3 2.1.2 3.8.6 1.7 3.2 9.1 2.2 14.7-1.1 5.6-.7 8-.3 8.9.4.8 1.7 3.1 2.4 3.1 1.7-.2.9-.7 1.6-1.8 1.6-2.7 0-23.7-.7-29.5-.5-4.5-2.6-8.5-2.8-9-.2-.5-.6-1.9-.9-2.7-1.6-3.8-3.4-7-3.4-14.8 0 0-5.1 1.1-9.5-8.8-2.3-5-5.6-4.5-9.6-6.1l1.8-1.1s3.3 1.7 5 1.7c1.7 0 1.1-3.3 1.1-3.3l1.7-1.7v7.3c0 3.3 4.6 7.9 7.3 9.3 1.7.8 3.9-2.6 3.3-5.9-.5-3.3 0-7.8 0-7.8l2.3 1.4s-.8 1.5-.6 2.3c.3.8 1.5-.8 2.3-1.7 0 0 .2.2 1 .2 0 0-1.7 2.8-2.5 4.3-.8 1.4-.8 6.7-.8 8.6 0 2 .7 6.6.7 8 0 1 2 5.3 3.5 7.9.5 1 1.8 3.7 1.8 3.7 1.2 2 1.4 3.3 2.1 5 .4.8 1.1 3.2 1.7 7.4.2 1 .4 5 .7 7.6.3 2.5 2.4.5 4.9-1.2 2.5-1.9 2.5-6.4 2.5-6.4s2-1.7 1.7-.7c-.2 1 1 2.1 1 2.1-1.6 3.5-.6 3.1.9 3 1.6-.2 7-4.3 7-4.3.7-.2 4-.2 3.4 0-.6.3-1.5 1.9-1.5 1.9l3.5-.4c-1.2.9-5.9 3.6-7 4.3-1.1.7-6.8 3.4-9.2 4.4-2.4 1-7.1 3.3-7.3 5.7-.1 2.4.3 8.9 0 10.9-.2 2.1-1 11.4-1 11.4h-11.1s2.2-8.1-.1-10.3c-2.2-2.3-7.3-9-10.6-11.3-3.3-2.2 2.2-.5 2.2-.5v-2.3l5.1 6.1s8.9-7.8 0-18.4c-2.8-3.3-5.6-8.4-7.8-9-2.3-.6-3.4-1.1-7.3 0-4 1.1-13.4 1.1-17.4-5.1l3.3-.5 2.8-1.1s-1.1 4 6.8 4c7.8 0 9 0 8.3-7.3l2.3-1.1 1.7 1.7s-1.1 4-.5 5.6c.5 1.7 3.3 2.8 5.5 4.5.9.7 1.7.8 2.3.8.9-.1 1.1-.1 2.4-1.4 1.9-2.1 1.5-2 3.3-3.6 0 0 .9-1.5 1.1-1.7l1.2 2.9z"/><path id="prefix___x32_88" class="prefix__st10" d="M255.7 166.8c.4-.4 1.3-2 2-3.3 1.3-2.1 2.7-3.3 4.4-5.9 1.6-2.4 2.2-5.9 1.6-8.4l1.5.8.1 4s2-1.7 2.8-2.1l.8.4s-6.3 6.5-12.1 16.9l-1.1-2.4"/><path id="prefix___x32_87" class="prefix__st9" d="M255.7 166.8c.4-.4 1.3-2 2-3.3 1.3-2.1 2.7-3.3 4.4-5.9 1.6-2.4 2.2-5.9 1.6-8.4l1.5.8.1 4s2-1.7 2.8-2.1l.8.4s-6.2 6.5-12.1 16.9l-1.1-2.4z"/><path id="prefix___x32_86" class="prefix__st10" d="M200.9 145.1c.8 1.5 1.7 4.3 4.2 6.5l1.7-.5s-3.9-4.5-3.9-6.5l-2 .5"/><path id="prefix___x32_85" class="prefix__st9" d="M200.9 145.1c.8 1.5 1.7 4.3 4.2 6.5l1.7-.5s-3.9-4.5-3.9-6.5l-2 .5"/><path id="prefix___x32_84" class="prefix__st10" d="M210.7 142.6s.5 5.3-.8 7.3l1.7-.8s1.1-3.6.8-5.6l-1.7-.9"/><path id="prefix___x32_83" class="prefix__st9" d="M210.7 142.6s.5 5.3-.8 7.3l1.7-.8s1.1-3.6.8-5.6l-1.7-.9z"/><path id="prefix___x32_82" class="prefix__st10" d="M265.6 125.8s-.3 7.5 1.1 12.1l2-.6s-.3-1.4 1.4-2c1.7-.5 5.6-2.2 7.6-3.9l-.6-1.7s-3 2.4-4.5 3c-1.4.5-2.2 1.1-3.3.8-1.1-.3-2.5-2.2-1.7-6.5l-2-1.2"/><path id="prefix___x32_81" class="prefix__st9" d="M265.6 125.8s-.3 7.5 1.1 12.1l2-.6s-.3-1.4 1.4-2c1.7-.5 5.6-2.2 7.6-3.9l-.6-1.7s-3 2.4-4.5 3c-1.4.5-2.2 1.1-3.3.8-1.1-.3-2.5-2.2-1.7-6.5l-2-1.2"/><path id="prefix___x32_80" class="prefix__st10" d="M287.6 160.8s-.5 5.3-.2 7.6l1.8.4s-.4-6.4.7-6.9l-2.3-1.1"/><path id="prefix___x32_79" class="prefix__st9" d="M287.6 160.8s-.5 5.3-.2 7.6l1.8.4s-.4-6.4.7-6.9l-2.3-1.1"/><path id="prefix___x32_78" class="prefix__st10" d="M295.6 164.8s-2 3.4-4.3 3.7l3.6-.7s1-.5 2.6-2.2l-1.9-.8"/><path id="prefix___x32_77" class="prefix__st9" d="M295.6 164.8s-2 3.4-4.3 3.8l3.6-.7s1-.5 2.6-2.2l-1.9-.9"/><path id="prefix___x32_76" class="prefix__st20" d="M263.7 149.1l1.4.8 1.5.2s1.6 1.5 3.3 2.8c1.4 1.1 1.4-.2 1.4-.2l.8 3.3h1.1s-.3 2.2-.3 3.3l2-1.7 2.3 2s1.7-1.5 2.5-1.5 1.1-.8 1.1-.8h.1c-5.5-2.6-7.9-5.3-6.2-8.1 2.7-4.7 7.2-1.7 8.6-1l20.2 10.8s1.4-.8.4-1.7c-1-.8-1.5-2.9-1.1-3.7.3-.8 2.6 2.6 3.8 2.9 1.1.3 3.7.7 3.7.7l-.1-1s3.3 2.3 3.3 3.4c0 0 2.4-1.2 1.6-2-.8-.7 3.6 1.8 4 3.1l.9-1c-.1 0 .3-3.3 1.5-4.9 1-1.6 2.2-2 2.2-2s1-1.8 2.1-1.8c0 0-1-.7-1.5-1.6-.5-.8-1.8-1.3-1.8-1.3s1.6-1.1 2-1.7c.4-.6.8-.7.8-.7s-2.4-2-4.1-2.3c0 0-.1-2.7-2.2-2.9h.9s-1.6-2.9-3-3c0 0 .9-1 1.8-1.1 0 0-1.8-2.3-4.2-1.5l1.6-.6s-1.1-1.2-4.7-.6c0 0 .3-1.5-1.3-2.6 0 0-1.4.1-1.4 1.1 0 0-1.2-1.1-2.8-1.1-1.6 0 .5 1.7.5 1.7s-2.1-1.4-3.3-.9c0 0 .5-2.4-.8-3.6 0 0-1.6.8-2 1.9l-.4-1s-2.1 2.5-2.5 1.8c-.3-.4-.6-2.2-.6-2.2l-1.2 1.9.2-2.6s-1.5.8-2.6 3.5c0 0-1.5 1.4-1.5 2.6 0 0-1.1-1.4-2.2 0-.9 1.5 0 1.1 0 1.1s-.4.5-1.5.7l.2.8s-1.4-.7-2.4-.4l.5 1.2s-2.7.2-2.8-2c0 0-2.3-1.1-2.6.1 0 0-1.9 0-1.7 1 0 0-.5-1-1.5-1.2-1-.3-.2 1.4-.2 1.4s-.3-1.2-1.6-1.9c-1.2-.5-.2 1.1-.2 1.1s-1.7-1.4-.8-2.4c0 0-1.6 1.5-.8 2.8l-1 .7s-.5-.5-.4-.9c.1-.4-1.8 1.2-1.8 1.2s-1.1-2.7 0-2.7c.1 0-2-.1-2.3 2.3-.3 2.3 0 0 0 0s-1.4.1-2.6.5c-1.4.4.9 1.4.9 1.4s-2-.4-3.1.2l.7.9s-.7-.7-2.5-.1c-1.9.5.4.8.4.8s-1.9-.4-2.8 0c-.9.4.3 1.1.3 1.1s-3.4-1-4-.7c-.5.3 1.1 2 1.1 2s-2.1.5-2.5 2.1l1.9.7s-.8.4-1.3 1.3c-.4.8 1.3.4 1.3.4s-2.3 1.7-2.3 2.9c0 0 1.7.5 2.9-.7s.4-.8.4-.8l.1.8s2.4-1 2.4-1.7c0-.5-.4.8-.4.8l2.4-1.2 1.8 1.3z"/><path id="prefix___x32_75" class="prefix__st20" d="M261.7 116.6l-.5-2.3s2.8 0 5.3.6l.9-2.2s2.5 1.1 3.3 2c0 0 4.9-1.2 6.4-.7l-.6 2.3s4.5.3 5.9.8c1.4.5-.6 1.7-.6 1.7s5.1.6 7.3 2c2.3 1.4 2.3 2.5 1.1 2.8l2.8 4.5s-4.5.5-5.3 1.7c-.8 1.1-1.7-1.1-1.7-1.1l-.8 3.1s-2.8-1.5-4-2.5c0 0-1.4 1.7-.5 2.5 0 0-3.6 0-5.1-3.3 0 0-2.2-.3-2.2 1.7 0 0-2.5-2.8-3.1-3.6l-2.8.8s-.8-1.1-1.9-1.5c-1.1-.2-.3 1.5-.3 1.5l-1.7-2-1.7-2s-1.5 2-2.6 2c-1 0-1-1.4-.8-2.3.3-.8-3.3-1-3.6 0 0 0-1-4.2 2.8-5.3l4-1.2z"/><path id="prefix___x32_74" class="prefix__st21" d="M241.5 130.8l-1.8 1.7-1-.5-2.1 2.3-.4-1.3-1.1 1.9-1.8-.6-.8 1.4-1.6-.3s-1.4 1.3-2.2 1.6c-.8.2 0-1.9 0-1.9s-1.3 2.1-2.2 2.1c-.8 0-.5-.9-.5-.9s-.5 1.4-1.6 1.6c-.9.1-.5-1-.5-1l-1.7 1.2v-1l-.7-.3s.4-1.9 1.1-2.3c.7-.4-.7-1.7-.7-1.7l.7-.8s-2.1-.5-2.1-.1c0 0 1-2.8 2.5-3.3l.1-3.1s1.5-1.2 2.8-1.4c1.5-.2-.4-2.4-.4-2.4l3.3-2 .4-2.4 5.1.4 1-2.2 4.1 1 3.4-1.8 2.5 2.9 3.8.3s-.1 2.6-.1 3.3c0 0 4.5 1.4 5 1.8 0 0-.8 2.7-.8 3.2 0 0 3.1-.8 4.1-.6 0 0 .3 2.9.4 3.6 0 0 5.3 1.7 5.6 2.6 0 0-1.1.7-1.8 1.7 0 0 .6 3.2.6 4.3l-.4.6s-1.6-1.5-2.8-1.7l-1 2.3-1.9-1.3-1.1.1s-.9-1.1-1.7-1.1l-.1-1-1.5.9s-2.3-1.1-2.3-1.9c0-.6.1-1.7.1-1.7l-2.4 1.7s-.5-1.2-.4-1.8c.1-.5-.9 1.3-.9 1.3s-1.3-2.2-1.1-2.6l-.3 1.8c0-.1-2.5-.9-2.8-2.6z"/><path id="prefix___x32_73" class="prefix__st21" d="M208.2 141s4.4 2.2 4.4 3.2c0 0 1.1-2.3.5-3.1l1.7 1.1s.5-2.1-.1-2.7c-.5-.5 3.7-2.3 4.7.5 0 0 2.6-2.7-2.4-5 0 0-.4-1.7 2.6-1.2 0 0-.2-1-.9-1.5h2.9s-1.8-1.5-4.4-1.9c-2.5-.4-.9-.7-1-1.3-.2-.5 0-2.4 0-2.4s-1.5-.5-2.6.1l.4-.5s-2.7-.7-3.8-.1c0 0-1.6-.6-1.4-2.3 0 0-1.6-.1-2.3 1.6 0 0-1.5 1.7-3.4 1.7-.4 0-1.9-.8-1.9-.8l-1.3 2.9-2-.1.6 1.1s-3-.8-4 0c0 0 1.1 1.8.8 3 0 0-2.4.4-2.9.8-.6.4.8.7.8.7s-2.7.8-3.3 1.7l1 .8-1.3 1.7 1 .2s-1.8.5-2.7.8c-.9.3 1.7.5 1.7.5l-1.2 1.1 2 .3s-1.6 4.2-1.7 6.2c0 0 2.4-2.9 3-3.1l-1.9 3.1s3.5-1.1 3.9-1.7c.3-.6.6-1.1.6-1.1l.1 1.8s1.4-1.9 1.6-2.6c.1-.7 2.2.7 2.2.7v-1s1.9.6 2.5.7c.7.1.8-.3.8-.3l1.8-.2-.3 1.5s1.2-.8 1.6-1.7c.2-.8.8 0 .8 0l.8-3.3c.2.1 1.4.1 2 .1z"/><path id="prefix___x32_72" class="prefix__st21" d="M193.9 155.8l1.7 3.4c-1.4.1-3.3 1.7-3.3 1.7.3 5.7-1.1 5.4-1.1 5.4.4 1-.5 2.3-.5 2.3l8.5-4.3.1-.5 9.8-4.6.3.5 2.8-1.6 2 5.2-2 1.1c.1 1.8 2.2 4.9 2.2 4.9l2.6-.6 2.8-1s.1 1.6.1 1c0-.4 3-1.5 3-1.5s.2 1.5 1.4 1.4c1-.1 2.9-2.6 2.9-2.6l2.2.8s.7-1.2.7-2.2c0-.8 2.7-.8 2.7-.8l1.9 1.4 2.4-2s.7 1.5 1.7 1.7c1 .1 3.6 2.1 3.6 1.7 0-.4 1.1-2.7 1.1-2.7l4.4 1.8c-.6-2-2.1-4.4-2.1-4.4s2.1-1.7 1.7-2.1c-.4-.4-1.7 0-1.7 0l1.2-2.5h-1.7l.5-.6-2.7-1.1 1.5-2.9c-.6-.7-7.8-2.2-7.8-2.2l1.7-1.6s-.8-1.2-1.7-1.2c-.8 0-5.2.1-5.4-.3-.1-.4-1.9-2-1.9-2l-2.7 2-1.4-.4-2.4.9s0 1.4-.3.4c-.3-.8-2.5-3-2.5-3-.4.7-3.2 4.1-3.2 4.1s-.4 1.8-1.4.5c-1-1.2-3.2-2.6-3.5-1.6-.3 1.1-2.3 2.2-2.7 1.9-.4-.3-2.7-.1-2.9.5-.1.7-2.6 2.6-2.6 2.6-1.6-.7-4.1-.3-4.1-.3s-.7 1.1-.8 2.1l-5.1 1.3z"/><path id="prefix___x32_71" class="prefix__st21" d="M241 198v-2.2l2.5 1.7 1.5-1.7 1.9 1.9 1.1-1.9v3l2.8-2.5 1.7.7v-2.4s2-3.3 1.1-4l1.7-.5s-2.8-2.8-3.6-3.3c-.8-.6-2-.6-2-.6s-2.2-2.2-3.6-2.8c-1.4-.5-2.2.6-2.2.6s-.8-1.7-2.3-2c-1.4-.3-1.4 1.1-1.4 1.1s-1-1-2.4-1.6c-1.4-.6-.4 1.2-.4 1.2l-4.8-1.5.6 1.5-4.5-1.1.5 1.7-3.1-.5-.2 1.4-4.5.8.8 1.5-2.8-1.1v2l-3.1 1.1 1.1 1s-4.2 2-5 2.6c-.8.5 1.7 1.7 1.7 1.7l-4.5-.6 1.7 1.5-4 3.6 2.8 2-1.7 2.5 4.2.8 1.7 2.8 3.4-.6v3.1l5-4s3.6 3.2 4 2.3c.2-.8.2-3.6.2-3.6h1.8v-2.8l1.4 1.1 2.3-3.3 3 4.2 2.3-5.3 3.3.5z"/><path id="prefix___x32_70" class="prefix__st21" d="M261.4 185.4l-.5-4.8-1.5 1.5.6-4.5-2.3-.4.8-4.4-1.7-.8.4-2.1 1.7-1.2 3-2.9 7 .1.8-2.3s4.2 0 5 .8c.8.9 3.4-1.9 3.4-1.9h1l1.1 2.2s3.6-.5 5.3.6l-2 2.7 3.6.3 2.5.5 2.6-.8 3.3-.2.8 1.4h3.1l-1 1.2 4.1 1.9-.8.8s2.3.8 4 .8h.8s.8 2-.3 2.8c0 0 1.1 2.8 3.6 3.3s2.5.5 2.8 1.1c.3.5 0 3.3-2.8 3.3v2.8s-2.2 2-2.5 2.8l-1.7-1.1s-1.5 1.7-1.5 2.8c0 0-3.6-4.8-5-5-1.5-.3-1.1 2.7-1.1 2.7l-4-3.3-.5 2.3-3.3-2.8-2 1.4-3.5-3.6-3.4.4 1.4-1.8h-4.2l-.8-3.6-.6 3-2.5-1.7-3.2 3.5s-.4-.4-.9-2.1c-.5-1.7-2 2-2 2l-1.1-2.6-1.4 2.6s-1.1-2-2.3-2.6c-.8-.4-2 3.3-2.3 4.9z"/><path id="prefix___x32_69" class="prefix__st21" d="M262 196.4l.2-1.7 5.9-2.3 5-1.9 2.5-1.1 1.1 2 1.5-2.8 2.3 2.9 1.3-1.6 2 1.5h1.7l.3 2.2s4.2.3 4.5-.5c.3-.8.8 2.8.8 2.8l4 .5.8 4.5s2 4.2 1.4 5.8c-.5 1.8-2.2-2.2-2.2-2.2s-.3 3.1-.6 4c-.2.8-5.3-.8-5.3-.8l-2.2 4.2s-2.3-3.3-3.3-3.3c-1.1 0-1.1 3.3-1.1 3.3s-3.3-4-4.8-5.6c-1.4-1.7-1.7 1.7-1.7 1.7s-2.2-3.6-2.2-4.7-2-2.3-2-2.3-3.4 4-5.9 5c0 0 .3-2.5-.5-3.3-.8-.8-3.3 1.7-3.3 1.7s-2-4.1-.2-8z"/><path id="prefix___x32_68" class="prefix__st22" d="M289.5 134.3l.5 2.1s1.9-.4 3.1-.3c0 0-.3 1.7-.7 2.4 0 0 2.5-.4 3.6.3l-.5 1.2s1.6 0 2.9 1.3l-2.7 2.2s4.4 1.6 5.2 2.8c0 0-2.8 2-3.2 1.9-.4-.2-.1.8.6 1.8l-2.4-.1s.9 2.2.8 3c-.1.8-4 .6-4 .6"/><path id="prefix___x32_67" class="prefix__st22" d="M307.9 147.8s.7-4.2-.4-5.2c0 0 2.7 2.3 4.5 2.4 1.9.1-.1-3.4-.1-3.4s2.6 1.4 3.9 1.7c1.3.2-.9-2.6-.9-2.6s.7-1.4 2.8-.1"/><path id="prefix___x32_66" class="prefix__st22" d="M269.1 124s.1-.9-.3-1.5c-2.5-3.4 2.6 2.6 3.6 2.8"/><path id="prefix___x32_65" class="prefix__st22" d="M277.2 125.3s1.7 1.2 2.5 1.2-.5-3.3-.9-3.7c-.4-.4 3 1.4 4.3 1.6 1.2.3 1.5-2.1 1.5-2.1s3.9.6 4.7 1.1"/><path id="prefix___x32_64" class="prefix__st22" d="M262.4 122.7s-.3-2.2-.4-3.1"/><path id="prefix___x32_63" class="prefix__st22" d="M236.2 133.1c-.2-.4 1-2.3.5-3.1 0 0 .7.6 1.5.7.6.1.4-2.4.4-2.4l.8.3s2.2-1 1.8-1.9c-.4-.8 1.5 1.2 1.5 1.2s1.2-1.2 1.2-1.8c0-.5 1.5 1.2 1.5 1.2s1.6-.3 1.6-1.2c0-.9 2 .3 2 .3s.8-1.1.7-1.9"/><path id="prefix___x32_62" class="prefix__st22" d="M228.6 135.1s.9-2.2-.1-3.6"/><path id="prefix___x32_61" class="prefix__st22" d="M203.3 142c.1-1 .6-3.9.1-4.3-.5-.4 1 .4 2.3.7"/><path id="prefix___x32_60" class="prefix__st22" d="M215.6 138c-1.2-1.3-2-1.9-4-1.9"/><path id="prefix___x32_59" class="prefix__st22" d="M194.4 145c.3-.7.8-2.5.5-3.5"/><path id="prefix___x32_58" class="prefix__st22" d="M221.6 196.7l1.4-2.8 1.7 4 1.1-2.5.4.8 2.5-2.7 2.7 4.1"/><path id="prefix___x32_57" class="prefix__st22" d="M274.8 179.9l1.8-3.5 2.4 1.3 1.1-3.4 2.5 1.6 1.5-3.2 2.8.7.2-2.3s2 1.1 2.5 2c.6.8 0-2.8 0-2.8l2.3 1s1.7-1.7-.6-2.6"/><path id="prefix___x32_56" class="prefix__st22" d="M281.8 175.4l2.5 3.6 2.1-2.4 1.9 4.1 2.4-1.5 3.4 2 1.6-1.2 3.7 2.7 1.6-3.2 3.3 1 2.2-3.7"/><path id="prefix___x32_55" class="prefix__st6" d="M193.9 155.8l1.7 3.4c-1.4.1-3.3 1.7-3.3 1.7.3 5.7-1.1 5.4-1.1 5.4.4 1-.5 2.3-.5 2.3l8.5-4.3.1-.5 9.8-4.6.3.5 2.8-1.6 2 5.2-2 1.1c.1 1.8 2.2 4.9 2.2 4.9l2.6-.6 2.8-1s.1 1.6.1 1c0-.4 3-1.5 3-1.5s.2 1.5 1.4 1.4c1-.1 2.9-2.6 2.9-2.6l2.2.8s.7-1.2.7-2.2c0-.8 2.7-.8 2.7-.8l1.9 1.4 2.4-2s.7 1.5 1.7 1.7c1 .1 3.6 2.1 3.6 1.7 0-.4 1.1-2.7 1.1-2.7l4.4 1.8c-.6-2-2.1-4.4-2.1-4.4s2.1-1.7 1.7-2.1c-.4-.4-1.7 0-1.7 0l1.2-2.5h-1.7l.5-.6-2.7-1.1 1.5-2.9c-.6-.7-7.8-2.2-7.8-2.2l1.7-1.6s-.8-1.2-1.7-1.2c-.8 0-5.2.1-5.4-.3-.1-.4-1.9-2-1.9-2l-2.7 2-1.4-.4-2.4.9s0 1.4-.3.4c-.3-.8-2.5-3-2.5-3-.4.7-3.2 4.1-3.2 4.1s-.4 1.8-1.4.5c-1-1.2-3.2-2.6-3.5-1.6-.3 1.1-2.3 2.2-2.7 1.9-.4-.3-2.7-.1-2.9.5-.1.7-2.6 2.6-2.6 2.6-1.6-.7-4.1-.3-4.1-.3s-.7 1.1-.8 2.1l-5.1 1.3"/><path id="prefix___x32_54" class="prefix__st6" d="M262 196.4l.2-1.7 5.9-2.3 5-1.9 2.5-1.1 1.1 2 1.5-2.8 2.3 2.9 1.3-1.6 2 1.5h1.7l.3 2.2s4.2.3 4.5-.5c.3-.8.8 2.8.8 2.8l4 .5.8 4.5s2 4.2 1.4 5.8c-.5 1.8-2.2-2.2-2.2-2.2s-.3 3.1-.6 4c-.2.8-5.3-.8-5.3-.8l-2.2 4.2s-2.3-3.3-3.3-3.3c-1.1 0-1.1 3.3-1.1 3.3s-3.3-4-4.8-5.6c-1.4-1.7-1.7 1.7-1.7 1.7s-2.2-3.6-2.2-4.7-2-2.3-2-2.3-3.4 4-5.9 5c0 0 .3-2.5-.5-3.3-.8-.8-3.3 1.7-3.3 1.7s-2-4.1-.2-8"/><path id="prefix___x32_53" class="prefix__st23" d="M263.7 149.1l1.4.8 1.5.2s1.6 1.5 3.3 2.8c1.4 1.1 1.4-.2 1.4-.2l.8 3.3h1.1s-.3 2.2-.3 3.3l2-1.7 2.3 2s1.7-1.5 2.5-1.5 1.1-.8 1.1-.8h.1c-5.5-2.6-7.9-5.3-6.3-8.1 2.7-4.7 7.2-1.7 8.6-1l20.2 10.8s1.4-.8.4-1.7c-1-.8-1.5-2.9-1.1-3.7.3-.8 2.6 2.6 3.7 2.9 1.1.3 3.8.7 3.8.7l-.1-1s3.3 2.3 3.3 3.4c0 0 2.4-1.3 1.6-2-.8-.7 3.6 1.8 4 3.1l.9-1c-.1 0 .3-3.3 1.5-4.9 1-1.6 2.2-2 2.2-2s1-1.8 2.1-1.8c0 0-1-.7-1.5-1.6-.5-.8-1.8-1.3-1.8-1.3s1.6-1.1 2-1.7c.4-.6.8-.7.8-.7s-2.4-2-4.1-2.3c0 0-.1-2.7-2.2-2.9h.9s-1.6-2.9-3-3c0 0 .9-1 1.8-1.1 0 0-1.8-2.3-4.2-1.5l1.6-.6s-1.1-1.3-4.7-.6c0 0 .3-1.5-1.3-2.6 0 0-1.4.1-1.4 1.1 0 0-1.2-1.1-2.8-1.1-1.6 0 .5 1.7.5 1.7s-2.1-1.4-3.3-.9c0 0 .5-2.4-.8-3.6 0 0-1.6.8-2 1.9l-.4-1s-2.1 2.5-2.5 1.8c-.3-.4-.6-2.2-.6-2.2l-1.3 1.9.2-2.6s-1.5.8-2.6 3.5c0 0-1.5 1.4-1.5 2.6 0 0-1.1-1.4-2.2 0-.9 1.5 0 1.1 0 1.1s-.4.5-1.5.7l.2.8s-1.4-.7-2.4-.4l.5 1.2s-2.7.2-2.8-2c0 0-2.3-1.1-2.6.1 0 0-1.9 0-1.7 1 0 0-.5-1-1.5-1.2-1-.3-.2 1.4-.2 1.4s-.3-1.2-1.6-1.9c-1.2-.5-.2 1.1-.2 1.1s-1.7-1.4-.8-2.4c0 0-1.6 1.5-.8 2.8l-1 .7s-.5-.5-.4-.9c.1-.4-1.8 1.3-1.8 1.3s-1.1-2.7 0-2.7c.1 0-2-.1-2.3 2.3-.3 2.3 0 0 0 0s-1.4.1-2.6.5c-1.4.4.9 1.4.9 1.4s-2-.4-3.1.2l.7.9s-.7-.7-2.5-.1c-1.9.5.4.8.4.8s-1.9-.4-2.8 0c-.9.4.3 1.1.3 1.1s-3.4-1-4-.7c-.5.3 1.1 2 1.1 2s-2.1.5-2.5 2.1l1.9.7s-.8.4-1.3 1.2c-.4.8 1.3.4 1.3.4s-2.3 1.7-2.3 2.9c0 0 1.7.5 2.9-.7s.4-.8.4-.8l.1.8s2.4-1 2.4-1.7c0-.5-.4.8-.4.8l2.4-1.2 2 1.3"/><path id="prefix___x32_52" class="prefix__st23" d="M261.7 116.6l-.5-2.3s2.8 0 5.3.6l.9-2.2s2.5 1.1 3.3 2c0 0 4.9-1.2 6.4-.7l-.6 2.3s4.5.3 5.9.8c1.4.5-.6 1.7-.6 1.7s5.1.6 7.3 2c2.3 1.4 2.3 2.5 1.1 2.8l2.8 4.5s-4.5.5-5.3 1.7c-.8 1.1-1.7-1.1-1.7-1.1l-.8 3.1s-2.8-1.5-4-2.5c0 0-1.4 1.7-.5 2.5 0 0-3.6 0-5.1-3.3 0 0-2.2-.3-2.2 1.7 0 0-2.5-2.8-3.1-3.6l-2.8.8s-.8-1.1-1.9-1.5c-1.1-.2-.3 1.5-.3 1.5l-1.7-2-1.7-2s-1.5 2-2.6 2c-1 0-1-1.4-.8-2.3.3-.8-3.3-1-3.6 0 0 0-1-4.2 2.8-5.3l4-1.2"/><path id="prefix___x32_51" class="prefix__st6" d="M241.5 130.8l-1.8 1.7-1-.5-2.1 2.3-.4-1.3-1.1 1.9-1.8-.6-.8 1.4-1.6-.3s-1.4 1.3-2.2 1.6c-.8.2 0-1.9 0-1.9s-1.2 2.1-2.2 2.1c-.8 0-.5-.9-.5-.9s-.5 1.4-1.6 1.6c-.9.1-.5-1-.5-1l-1.7 1.3v-1l-.7-.3s.4-1.9 1.1-2.3c.7-.4-.7-1.7-.7-1.7l.7-.8s-2.1-.5-2.1-.1c0 0 1-2.8 2.5-3.3l.1-3.1s1.5-1.2 2.8-1.4c1.5-.2-.4-2.4-.4-2.4l3.3-2 .4-2.4 5.1.4 1-2.2 4.1 1 3.4-1.8 2.5 2.9 3.8.3s-.1 2.6-.1 3.3c0 0 4.5 1.4 5 1.8 0 0-.8 2.7-.8 3.2 0 0 3.1-.8 4.1-.6 0 0 .3 2.9.4 3.6 0 0 5.3 1.7 5.6 2.6 0 0-1.1.7-1.8 1.7 0 0 .6 3.2.6 4.3l-.4.6s-1.6-1.5-2.8-1.7l-1 2.3-1.9-1.3-1.1.1s-.9-1.1-1.7-1.1l-.1-1-1.5.9s-2.3-1.1-2.3-1.9c0-.6.1-1.7.1-1.7l-2.4 1.7s-.5-1.2-.4-1.8c.1-.5-.9 1.3-.9 1.3s-1.3-2.2-1.1-2.6l-.3 1.8c0-.2-2.5-1-2.8-2.7"/><path id="prefix___x32_50" class="prefix__st6" d="M208.2 141s4.4 2.2 4.4 3.2c0 0 1.1-2.3.5-3.1l1.7 1.1s.5-2.1-.1-2.7c-.5-.5 3.8-2.3 4.7.5 0 0 2.6-2.7-2.4-5 0 0-.4-1.7 2.6-1.2 0 0-.2-1-.9-1.5h2.9s-1.8-1.5-4.4-1.9c-2.5-.4-.9-.7-1-1.3-.2-.5 0-2.4 0-2.4s-1.5-.5-2.6.1l.4-.5s-2.7-.7-3.7-.1c0 0-1.6-.6-1.4-2.3 0 0-1.6-.1-2.3 1.6 0 0-1.5 1.7-3.4 1.7-.4 0-1.9-.8-1.9-.8l-1.2 2.9-2-.1.6 1.1s-3-.8-4 0c0 0 1.1 1.8.8 3 0 0-2.4.4-2.9.8-.6.4.8.7.8.7s-2.7.8-3.3 1.7l1 .8-1.3 1.7 1 .2s-1.8.5-2.7.8c-.9.3 1.7.5 1.7.5l-1.2 1.1 2 .3s-1.6 4.2-1.7 6.2c0 0 2.4-2.9 3-3.1l-1.9 3.1s3.5-1.1 3.9-1.7c.3-.6.6-1.1.6-1.1l.1 1.8s1.4-1.9 1.6-2.6c.1-.7 2.2.7 2.2.7v-1s1.9.6 2.5.7c.7.1.8-.3.8-.3l1.8-.2-.3 1.5s1.2-.8 1.6-1.7c.2-.8.8 0 .8 0l.8-3.3c0 .1 1.2.1 1.8.1"/><path id="prefix___x32_49" class="prefix__st6" d="M241 198v-2.2l2.5 1.7 1.5-1.7 1.9 1.9 1.1-1.9v3l2.8-2.5 1.7.7v-2.4s2-3.3 1.1-4l1.7-.5s-2.8-2.8-3.6-3.3c-.8-.6-2-.6-2-.6s-2.2-2.2-3.6-2.8c-1.4-.5-2.2.6-2.2.6s-.8-1.7-2.3-2c-1.4-.3-1.4 1.1-1.4 1.1s-1-1-2.4-1.6c-1.4-.6-.4 1.2-.4 1.2l-4.8-1.5.6 1.5-4.5-1.1.5 1.7-3.1-.5-.2 1.4-4.5.8.8 1.5-2.8-1.1v2l-3.1 1.1 1.1 1s-4.2 2-5 2.6c-.8.5 1.7 1.7 1.7 1.7l-4.5-.6 1.7 1.5-4 3.6 2.8 2-1.7 2.5 4.2.8 1.7 2.8 3.4-.6v3.1l5-4s3.6 3.2 4 2.3c.2-.8.2-3.6.2-3.6h1.8v-2.8l1.4 1.1 2.3-3.3 3 4.2 2.3-5.3 3.3.5"/><path id="prefix___x32_48" class="prefix__st6" d="M261.4 185.4l-.5-4.8-1.5 1.5.6-4.5-2.3-.4.8-4.4-1.7-.8.4-2.1 1.7-1.2 3-2.9 7 .1.8-2.3s4.2 0 5 .8c.8.9 3.4-1.9 3.4-1.9h1l1.1 2.2s3.6-.5 5.3.6l-2 2.7 3.6.3 2.5.5 2.6-.8 3.3-.2.8 1.4h3.1l-1 1.2 4.1 1.9-.8.8s2.3.8 4 .8h.8s.8 2-.3 2.8c0 0 1.1 2.8 3.6 3.3s2.5.5 2.8 1.1c.3.5 0 3.3-2.8 3.3v2.8s-2.2 2-2.5 2.8l-1.7-1.1s-1.5 1.7-1.5 2.8c0 0-3.6-4.8-5-5-1.5-.3-1.1 2.7-1.1 2.7l-4-3.3-.5 2.3-3.3-2.8-2 1.4-3.5-3.6-3.4.4 1.4-1.8h-4.2l-.8-3.6-.6 3-2.5-1.7-3.2 3.5s-.4-.4-.9-2.1c-.5-1.7-2 2-2 2l-1.1-2.6-1.4 2.6s-1.1-2-2.3-2.6c-.8-.4-2 3.3-2.3 4.9"/><path id="prefix___x32_47" d="M216.5 167s1.5-2.5.9-3.6 3 2 3 2 .8-2.5.3-3.6c-.6-1.1 4.2 3.3 4.2 3.3s.8-3.9 0-4.7c-.8-.8 4.6 1.1 4.6 1.1s2.2-.6 1.4-1.8c-.8-1.1 3.6 1.7 3.6 1.7s1-2.8 0-3.9c-1.1-1.1 3.3 1.4 3.3 1.4l-1.7-3 3.6.2-.3-3.3" fill="#289400" stroke="#004b00" stroke-width=".778"/><path id="prefix___x32_46" d="M271.8 200.9l2.4-1.1 2.1 2.1 2.3-3.6 2.8 2.7.4-2.7 3 1.3.6-1.7 3.3 1.8.3-2.5 1.7.5.3-1.7" fill="#28af00" stroke="#004b00" stroke-width=".778"/><path id="prefix___x32_45" class="prefix__st2" d="M256.1 387.5c23.4.2 37.3-8.3 44.9-13.4 17.8-12 21.6-12.4 24.5-12.2 3.3.3 8.2 1.5 8.4 4.4.3 4.5-7 6.5-11.1 6.5-4.3 0-15.4-2.8-15.4-2.8l-2.9 2c2 .9 24.8 8.5 29.2 1.4 4.5-7.3 9-19.1 9-19.1s-5-9-16.1-9c-11.3 0-22.2 7.1-29.5 12.4-7.3 5.3-16.5 12.6-40.8 12.6-24.4 0-33.7-7.3-40.9-12.6-7.3-5.3-18.2-12.4-29.4-12.4-11.3 0-16.3 9-16.3 9s4.5 11.8 9 19.1c4.4 7.2 27.2-.4 29.2-1.4l-2.8-2s-11.3 2.8-15.4 2.8c-4.3 0-11.6-2-11.3-6.5.2-2.9 5.1-4.1 8.4-4.4 2.9-.2 6.7.2 24.5 12.2 7.4 5 21.2 13.3 44.8 13.4"/><path id="prefix___x32_44" class="prefix__st13" d="M256.1 387.5c23.4.2 37.3-8.3 44.9-13.4 17.8-12 21.6-12.4 24.5-12.2 3.3.3 8.2 1.5 8.4 4.4.3 4.5-7 6.5-11.1 6.5-4.3 0-15.4-2.8-15.4-2.8l-2.9 2c2 .9 24.8 8.5 29.2 1.4 4.5-7.3 9-19.1 9-19.1s-5-9-16.1-9c-11.3 0-22.2 7.1-29.5 12.4-7.3 5.3-16.5 12.6-40.8 12.6-24.4 0-33.6-7.3-40.9-12.6-7.3-5.3-18.2-12.4-29.4-12.4-11.3 0-16.3 9-16.3 9s4.5 11.8 9 19.1c4.4 7.2 27.2-.4 29.2-1.4l-2.8-2s-11.3 2.8-15.4 2.8c-4.3 0-11.6-2-11.3-6.5.2-2.9 5.1-4.1 8.4-4.4 2.9-.2 6.7.2 24.5 12.2 7.4 5 21.2 13.3 44.8 13.4z"/><path id="prefix___x32_43" class="prefix__st26" d="M204.7 369.9s-11.1 2.8-15.3 2.8c-4.3 0-11.6-2-11.3-6.5.2-2.9 5.1-4.1 8.4-4.4 2.6-.2 5.8.1 18.2 8.1"/><path id="prefix___x32_42" class="prefix__st13" d="M204.7 369.9s-11.1 2.8-15.3 2.8c-4.3 0-11.6-2-11.3-6.5.2-2.9 5.1-4.1 8.4-4.4 2.6-.2 5.8.1 18.2 8.1z"/><path id="prefix___x32_41" class="prefix__st26" d="M307.3 369.9s11.1 2.8 15.4 2.8c4.2 0 11.5-2 11.1-6.5-.2-2.9-5.1-4.1-8.4-4.4-2.4-.2-5.7.1-18.1 8.1"/><path id="prefix___x32_40" class="prefix__st13" d="M307.3 369.9s11.1 2.8 15.4 2.8c4.2 0 11.5-2 11.1-6.5-.2-2.9-5.1-4.1-8.4-4.4-2.4-.2-5.7.1-18.1 8.1z"/><path id="prefix___x32_39" class="prefix__st26" d="M218.4 360c-1.1-.8-2.3-1.7-3.3-2.5-1.6-1.1-3.1-2.2-4.8-3.3 0 0 2.3-2.9 3.4-3.2 1.8-.6 4 .3 4.4 4.1.3 2.8.3 4.9.3 4.9"/><path id="prefix___x32_38" class="prefix__st13" d="M218.4 360c-1.1-.8-2.3-1.7-3.3-2.5-1.6-1.1-3.1-2.2-4.8-3.3 0 0 2.3-2.9 3.4-3.2 1.8-.6 4 .3 4.4 4.1.3 2.8.3 4.9.3 4.9z"/><path id="prefix___x32_37" class="prefix__st2" d="M218.4 359.9s0-2-.3-4.9c-.4-3.8-2.6-4.7-4.4-4.2-1.1.4-3.4 3.2-3.4 3.2v.1c-1-.7-2.1-1.4-3.2-2 .8-.9 5.6-3.9 6.8-3.9 1 0 15.4 5.8 20 9.8 1.1 1 2 7.5 1.4 9.6-7.7-2-12.7-4.9-16.8-7.7h-.1"/><path id="prefix___x32_36" class="prefix__st13" d="M218.4 359.9s0-2-.3-4.9c-.4-3.8-2.6-4.7-4.4-4.2-1.1.4-3.4 3.2-3.4 3.2v.1c-1-.7-2.1-1.4-3.2-2 .8-.9 5.6-3.9 6.8-3.9 1 0 15.4 5.8 20 9.8 1.1 1 2 7.5 1.4 9.6-7.7-2-12.7-4.9-16.8-7.7"/><path id="prefix___x32_35" class="prefix__st2" d="M211.5 374.4s-3.1 3.1-3.2 8.9c-.1 6.8 4.8 7.1 8 7 3.9-.1 7-2.3 6.9-9.5 0 0-6.4-2.7-11.7-6.4"/><path id="prefix___x32_34" class="prefix__st13" d="M211.5 374.4s-3.1 3.1-3.2 8.9c-.1 6.8 4.8 7.1 8 7 3.9-.1 7-2.3 6.9-9.5 0 0-6.4-2.7-11.7-6.4z"/><path id="prefix___x32_33" class="prefix__st2" d="M214.1 376s-2.5 2.6-2.9 6.9c-.2 3.3 2 5.2 4.8 5 4-.2 5.5-5.6 3.6-8.6l-5.5-3.3"/><path id="prefix___x32_32" class="prefix__st13" d="M214.1 376s-2.5 2.6-2.9 6.9c-.2 3.3 2 5.2 4.8 5 4-.2 5.5-5.6 3.6-8.6l-5.5-3.3"/><path id="prefix___x32_31" class="prefix__st26" d="M210.8 389.3c2 1.1 4.2 1 5.5.9 3.9-.1 7-2.3 6.9-9.5 0 0 4.8 2.4 12.6 4.3 0 0 1.3 1.6 1.5 4.7.3 2.6-1.5 5.4-3.5 5.2 0 0-10.9-2-17.6-3.1-4-.7-5.4-2.5-5.4-2.5"/><path id="prefix___x32_30" class="prefix__st13" d="M210.8 389.3c2 1.1 4.2 1 5.5.9 3.9-.1 7-2.3 6.9-9.5 0 0 4.8 2.4 12.6 4.3 0 0 1.2 1.6 1.5 4.7.3 2.6-1.5 5.4-3.5 5.2 0 0-10.9-2-17.6-3.1-4-.7-5.4-2.5-5.4-2.5z"/><path id="prefix___x32_29" class="prefix__st27" d="M234.9 386.9s3.4 2.5-.7 5.6"/><path id="prefix___x32_28" class="prefix__st27" d="M224.6 385.3l10.5 4.6"/><path id="prefix___x32_27" class="prefix__st27" d="M226.4 387.7l7.7 3.3"/><path id="prefix___x32_26" class="prefix__st27" d="M229.1 385.7l5.8 2.6"/><path id="prefix___x32_25" class="prefix__st26" d="M293.7 360c1.1-.8 2.3-1.7 3.4-2.5 1.5-1.1 3-2.2 4.7-3.3 0 0-2.3-2.9-3.4-3.2-1.8-.6-3.9.3-4.3 4.1-.3 2.8-.4 4.9-.4 4.9"/><path id="prefix___x32_24" class="prefix__st13" d="M293.7 360c1.1-.8 2.3-1.7 3.4-2.5 1.5-1.1 3-2.2 4.7-3.3 0 0-2.3-2.9-3.4-3.2-1.8-.6-3.9.3-4.3 4.1-.3 2.8-.4 4.9-.4 4.9z"/><path id="prefix___x32_23" class="prefix__st2" d="M293.7 359.9s.1-2 .4-4.9c.4-3.8 2.5-4.7 4.3-4.2 1.1.4 3.4 3.2 3.4 3.2v.1c1-.7 2.1-1.4 3.2-2-.8-.9-5.6-3.9-6.7-3.9-1.1 0-15.5 5.8-20.1 9.8-1 1-1.9 7.5-1.4 9.6 7.8-2 12.7-4.9 16.8-7.7h.1"/><path id="prefix___x32_22" class="prefix__st13" d="M293.7 359.9s.1-2 .4-4.9c.4-3.8 2.5-4.7 4.3-4.2 1.1.4 3.4 3.2 3.4 3.2v.1c1-.7 2.1-1.4 3.2-2-.8-.9-5.6-3.9-6.7-3.9-1.1 0-15.5 5.8-20.1 9.8-1 1-1.9 7.5-1.4 9.6 7.8-2 12.7-4.9 16.8-7.7"/><path id="prefix___x32_21" class="prefix__st2" d="M300.6 374.4s3.1 3.1 3.2 8.9c.2 6.8-4.8 7.1-8 7-3.9-.1-6.9-2.3-6.9-9.5 0 0 6.4-2.7 11.7-6.4"/><path id="prefix___x32_20" class="prefix__st13" d="M300.6 374.4s3.1 3.1 3.2 8.9c.2 6.8-4.8 7.1-8 7-3.9-.1-6.9-2.3-6.9-9.5 0 0 6.4-2.7 11.7-6.4z"/><path id="prefix___x32_19" class="prefix__st2" d="M298 376s2.5 2.6 2.9 6.9c.3 3.3-2 5.2-4.8 5-4-.2-5.4-5.6-3.6-8.6l5.5-3.3"/><path id="prefix___x32_18" class="prefix__st13" d="M298 376s2.5 2.6 2.9 6.9c.3 3.3-2 5.2-4.8 5-4-.2-5.4-5.6-3.6-8.6l5.5-3.3"/><path id="prefix___x32_17" class="prefix__st26" d="M301.3 389.3c-2 1.1-4.2 1-5.5.9-3.9-.1-6.9-2.3-6.9-9.5 0 0-4.8 2.4-12.5 4.3 0 0-1.4 1.6-1.6 4.7-.2 2.6 1.6 5.4 3.5 5.2 0 0 11-2 17.6-3.1 3.9-.7 5.4-2.5 5.4-2.5"/><path id="prefix___x32_16" class="prefix__st13" d="M301.3 389.3c-2 1.1-4.2 1-5.5.9-3.9-.1-6.9-2.3-6.9-9.5 0 0-4.8 2.4-12.5 4.3 0 0-1.4 1.6-1.6 4.7-.2 2.6 1.6 5.4 3.5 5.2 0 0 11-2 17.6-3.1 3.9-.7 5.4-2.5 5.4-2.5z"/><path id="prefix___x32_15" class="prefix__st27" d="M277.2 386.9s-3.5 2.5.6 5.6"/><path id="prefix___x32_14" class="prefix__st27" d="M287.4 385.3l-10.5 4.6"/><path id="prefix___x32_13" class="prefix__st27" d="M285.8 387.7l-7.7 3.3"/><path id="prefix___x32_12" class="prefix__st27" d="M283 385.7l-5.7 2.6"/><path id="prefix___x32_11" d="M182.9 360c.1-.2.1-1.7.1-2.2 0-.3-.1-1.8-.1-2.2l.3.1c0 .2.1.9.1 1.1.5.8 1.4 1.4 2.2 1.4 1.1-.1 1.9-.8 1.9-1.9-.1-1-1-1.6-2-2.1-1.4-.7-2.4-1.4-2.5-2.9-.1-1 .5-2.4 2.5-2.5.8-.1 1.6 0 1.9.1.1-.4.1-.8.1-1.1l.3-.1c-.1 1.4-.1 2.6 0 3.8l-.3-.1c0-.5-.1-.8-.1-1-.2-.5-.9-1.1-1.9-1-1.1.1-1.7.8-1.6 1.5 0 .8 1 1.2 2.1 1.8 1.1.6 2.3 1.4 2.5 3 .1 1.9-1.2 3-3.1 3.1-.6.1-1.5 0-1.9-.1 0 .2-.1.8-.2 1.4l-.3-.1"/><path id="prefix___x32_10" d="M192.7 353.2c.5-1.1 1.1-2.4 1.2-2.8-.2-.2-.6-.4-.9-.6l.1-.2c.3.1 1.1.5 2.1.9.5.3 1.5.7 1.8.8l-.2.2c-.3-.1-.8-.3-1.2-.4-.2.2-.9 1.8-1.5 2.8l-.7 1.6c-1.3 2.6-.6 4 .7 4.6.8.4 1.5.5 2 .3 1-.3 1.7-1.4 2.4-2.8l.5-1c.2-.4 1.3-2.6 1.4-3.1-.2-.1-.9-.6-1.2-.7v-.3c.3.2 1.2.6 2 .9.6.3 1.2.6 1.6.7l-.2.2c-.3-.1-.6-.2-.9-.2-.1.1-.9 1.7-1 2l-.3.5c-.2.5-.4 1.1-.6 1.6-.7 1.4-1.5 2.4-2.8 2.8-.8.2-1.8.2-2.9-.4-2.6-1.1-3-3.3-2-5.4l.6-2"/><path id="prefix___x32_09" d="M215.8 366.9c.6-1 1.3-2.4 1.5-2.7-.2-.2-.5-.4-.8-.7l.1-.2c.3.2 1 .6 1.9 1.1.6.3 1.5.8 1.8.9l-.2.2c-.3-.1-.8-.4-1.2-.5-.2.2-1 1.7-1.6 2.7l-.9 1.5c-1.5 2.5-.8 4 .4 4.7.7.4 1.4.5 2 .4 1-.2 1.8-1.1 2.5-2.6l.6-1c.2-.4 1.5-2.5 1.7-2.9-.3-.2-.9-.7-1.2-.9l.1-.3c.3.2 1.1.7 1.9 1.1.6.3 1.2.7 1.5.8l-.2.1c-.3 0-.6-.1-.9-.2-.1.1-1 1.6-1.1 1.9l-.3.5c-.3.5-.6 1-.8 1.5-.7 1.4-1.7 2.3-3 2.6-.8.2-1.8.1-2.9-.6-2.4-1.4-2.6-3.4-1.5-5.5l.6-1.9"/><path id="prefix___x32_08" d="M232 380.6c.2 0 1.2.2 1.5.3.1-.5.9-6.7 1-7.6-.6.6-5.1 5.9-5.7 6.6-.1-.9-.4-8.1-.4-8.6h-.1c-.9 1.9-2.8 5.1-3.3 6.8.2.1.8.5 1 .6v.2c-.2-.1-1.7-.5-1.9-.6-.4-.1-1-.3-1.5-.4l.2-.3c.2.1.6.2.9.2.5-.7 4.1-6.6 4.6-7.6-.3-.1-1.1-.5-1.2-.5v-.3c.2.1 1.1.4 1.9.6.5.2 1.6.5 1.9.6l-.1.2c-.4-.1-.7-.1-1-.1 0 1.2.2 5.9.2 7.1.6-.6 4.6-5.2 4.7-5.5-.2-.1-.5-.3-.7-.4v-.3c.4.2 1.3.5 1.7.6.4.1 1.6.5 1.9.5l-.2.3c-.1-.1-.8-.2-1.1-.2-.2 1.6-.9 7.8-.9 8.8.2.1.7.4.9.5v.2c-.4-.1-1.1-.4-1.8-.6-.6-.2-2-.6-2.4-.7l-.1-.4"/><path id="prefix___x32_07" d="M275.4 376.5c-.3-1.1-.9-3.2-1-3.6-.2 0-1 .2-1.5.2l-.1-.2c.4-.1 1.8-.4 2.3-.6.5-.1 3.9-1 4.1-1.3 0-.1 0-.6-.1-.9l.3-.2c0 .6.4 2.3.6 3.3l-.3-.1c0-.2-.2-.7-.3-.9-.6-.3-2.7.1-3.3.3 0 .2.6 2.5.8 3.4l.1.3c.6-.2 2.3-.7 2.7-.9 0-.2-.1-.6-.1-.8l.3-.1c.1.6.3 2 .6 2.9h-.3c-.1-.3-.2-.7-.4-1-.3-.2-2 .2-2.7.4l.1.4c.3 1 1 3.3 1.1 3.6.5 0 1.2-.2 1.6-.2l.1.2c-.5.1-1.6.4-2.4.6-.7.2-1.7.5-2.2.7v-.3c.1-.1.9-.3 1.4-.5-.1-.3-.6-2.5-1-4l-.4-.7"/><path id="prefix___x32_06" d="M283.7 373.3c-.3-.7-1.1-2.6-1.4-3-.3.1-1 .3-1.4.4l-.2-.2c.3-.1 1.5-.5 2.2-.9.8-.3 2-.8 2.3-1v.3c-.3.2-.9.5-1.4.8.1.4.8 2.2 1.2 3.1l.2.5c.7 1.6 1.8 4 2 4.2 1.5-.6 2.3-1.4 2.6-1.9 0-.5-.1-1.3-.1-1.6l.2-.2c.3 1.1.6 2.6 1.1 4.4h-.3c-.1-.2-.4-1.1-.5-1.5-.3.1-3 1.3-3.6 1.5-.6.3-1.8.8-2.1 1l-.1-.3c.2-.1 1-.5 1.3-.7-.2-.6-1.3-3-1.8-4.2l-.2-.7"/><path id="prefix___x32_05" d="M311.3 357.6c-.5-1-1.6-2.9-1.8-3.2-.2 0-1 .3-1.4.4l-.1-.2c.5-.3 1.6-.7 2.1-1 .4-.2 3.2-1.7 3.5-1.9-.1-.2-.1-.4-.2-.6l.2-.2c.1.3.9 2.2 1 2.6l-.3.1c0-.1-.3-.6-.4-.9-.4-.2-2.3.6-2.9.9 0 .2 1.1 2.5 1.6 3.2l.1.2c1-.5 2.1-1.3 2.4-1.5-.1-.2-.1-.4-.2-.5l.3-.2c0 .2.6 2 .8 2.4h-.3c-.1-.2-.3-.5-.4-.8-.4 0-1.5.4-2.5.9l.2.3c.3.7 1.7 3.3 2 3.6 1.1-.6 2.2-1.4 2.6-1.9-.1-.5-.2-.9-.3-1.2l.3-.2c.1.4.7 2.4 1 3h-.3c-.2-.3-.3-.5-.4-.6-.3.1-3 1.4-3.8 1.8-.4.2-1.4.7-1.9.9v-.2c.1-.1.8-.6 1.1-.8-.1-.2-1.1-2.5-1.9-3.8l-.1-.6"/><path id="prefix___x32_04" d="M203.6 359.5c.5-.8 1.6-2.6 1.8-3.1-.3-.3-.7-.6-1-.8l.1-.3c.3.2 2.6 1.6 3.3 2 2.2 1.4 2 2.5 1.6 3.1-.2.3-.3.5-.9.8-.8.4-1.8.3-2.2.3.9.8 1.7 2.5.9 3.6-.8 1.4-2.5 1.6-4.1.5-.3-.2-1.5-1-2-1.4-.2-.1-1.4-.8-1.7-1l.1-.2c.3.1 1 .5 1.4.6.5-.7 1.6-2.5 2.2-3.4l.5-.7"/><path id="prefix___x32_03" class="prefix__st2" d="M204.1 361.6c-.5.8-1.4 2.3-1.4 2.5.1.3.4.5.6.6.9.6 1.6.3 2-.3.4-.6.5-1.6 0-2.4-.2-.4-.7-.7-.9-.9l-.3.5"/><path id="prefix___x32_02" class="prefix__st2" d="M204.9 360.3c.2.2.7.4 1.1.4.5-.1.9-.4 1.2-.8.5-.7.3-1.6-.4-2-.1-.1-.2-.2-.3-.2-.1.1-.9 1.4-1.4 2.1l-.2.5"/><path id="prefix___x32_01" d="M240.6 377.4c.1-1 .3-3.1.3-3.6-.4-.1-.9-.2-1.4-.3v-.3c.4.1 3 .3 3.9.4 2.6.3 2.8 1.5 2.8 2.1-.1.4-.1.7-.5 1.2-.6.7-1.5 1-2 1.1v.1c1.4.3 2.6 1.5 2.4 2.9-.2 1.5-1.6 2.4-3.4 2.1-.3 0-1.8-.3-2.3-.4-.3 0-1.7-.2-2.1-.2l.1-.2h1.5c.2-.9.4-2.9.6-4.1l.1-.8"/><path id="prefix___x32_00" class="prefix__st2" d="M241.9 379.1c-.1.8-.2 2.4-.2 2.5.2.2.6.3.8.3.9.2 1.5-.3 1.6-1 .1-.6-.2-1.5-.9-2-.3-.2-.8-.4-1.1-.4l-.2.6"/><path id="prefix___x31_99" class="prefix__st2" d="M242 377.5c.3.1.9.1 1.4-.2.4-.2.6-.6.7-1.1.1-.9-.3-1.6-1.1-1.7h-.4c-.1.1-.3 1.6-.4 2.5l-.2.5"/><path id="prefix___x31_98" d="M250 378.2c0-.5.1-3.1 0-3.3-.2-.1-1.1-.2-1.4-.2l-.1-.3 2.9.1c1.2 0 2.9.1 3.7.5.7.3 1.1.8 1.1 1.6s-.9 1.9-2 2.5c.1.3 2.2 3.9 3.5 5.4l-.6.1c-.9-.5-4.4-4.7-4.6-5h-1.2v.4c-.1.8-.1 2.9-.1 3.5.2 0 1.1.2 1.5.2v.3c-.3-.1-1.7-.1-2.3-.2h-2.3l.1-.3c.2 0 1 0 1.4-.1.1-.4.2-3 .3-4.4l.1-.8"/><path id="prefix___x31_97" class="prefix__st2" d="M251.7 378.6c.3.1.8 0 1.2-.1.4-.1 1.2-.6 1.2-1.7 0-.6-.5-1.5-2.3-1.6-.1.5-.2 2.3-.2 3l.1.4"/><path id="prefix___x31_96" d="M302.2 362.6c-.2-.4-1.6-2.6-1.8-2.8-.2.1-1 .5-1.4.6l-.1-.2 2.5-1.6c1-.6 2.4-1.5 3.4-1.6.7-.1 1.4.1 1.8.7.4.7.2 2.1-.3 3.1.2.2 4 2.1 5.9 2.7l-.5.3c-1 .1-6.3-1.6-6.6-1.7-.4.3-.8.6-1 .7l.2.3c.4.7 1.5 2.5 1.9 3 .2-.1 1-.4 1.2-.6l.2.2c-.3.2-1.5.8-2 1.1-.5.3-1.7 1-2 1.3v-.1c.1-.1.8-.6 1-.8-.1-.4-1.5-2.6-2.2-3.9l-.2-.7"/><path id="prefix___x31_95" class="prefix__st2" d="M303.9 362.3c.4-.2.7-.5 1.1-.8.3-.4.7-1.4.1-2.3-.3-.6-1.4-1-3 0 .2.4 1.1 2.2 1.6 2.8l.2.3"/><path id="prefix___x31_94" d="M264.4 383.4c.4-.1.9-.2 1.4-.3-.3-.6-1.5-3.4-1.8-3.8-.4 0-2.6.3-3 .4-.1.2-.6 2.7-.6 3.7.3.1.7.1 1.1.1v.3c-.4 0-1.6.1-2 .1-.3 0-1.2.1-1.6.2v-.3c.4-.1.8-.2 1.1-.3.4-.8 2.5-8.2 2.7-8.8-.3-.1-.8-.1-1.1-.1v-.3c.4 0 1.6-.1 1.8-.1.5 0 1.9-.2 2.3-.2v.3c-.4 0-.7.1-1 .2.2.6 1.1 2.6 1.8 4 .4 1 1.5 3.2 2.2 4.4.3 0 .7.1 1.1.1l.1.2c-.2 0-1.6.1-2.3.2-.4 0-1.9.1-2.3.2l.1-.2"/><path id="prefix___x31_93" class="prefix__st2" d="M262.4 375.6h-.1c-.2.9-.7 2.8-.8 3.1l2.2-.1c-.3-.6-1.1-2.5-1.3-3"/><path id="prefix___x31_92" d="M293.5 373.6c-1.4-.3-2.2-1-2.8-2.1-1.5-2.2-.9-5.4 2.2-7.4 1.2-.8 2.3-1.3 3.8-1.1 1.4.1 2.5.9 3.2 2 1.7 2.8.7 5.9-2.1 7.7-1.2.7-2.5 1.3-4.3.9"/><path id="prefix___x31_91" class="prefix__st2" d="M298.1 367c-1.1-1.9-3.3-2.4-4.8-1.5-1.1.8-2 2.4-.8 4.3 1 1.6 3.2 2.3 5 1.1 1.2-.6 1.5-2.4.6-3.9"/><path id="prefix___x31_90" d="M321.1 357.5c-1.2-.6-1.8-1.5-2.2-2.7-.8-2.5.5-5.5 4.1-6.6 1.4-.4 2.5-.6 4-.1 1.3.4 2.2 1.5 2.5 2.7 1 3.1-.7 5.9-3.9 6.9-1.4.4-2.9.6-4.5-.2"/><path id="prefix___x31_89" class="prefix__st2" d="M327.2 352.4c-.7-2.1-2.6-3.1-4.3-2.6-1.4.4-2.5 1.8-1.9 3.7.5 1.8 2.5 3.1 4.5 2.5 1.4-.4 2.3-2.1 1.7-3.6"/><path id="prefix___x31_88" class="prefix__st10" d="M138.2 202.8l75.8-39.3-2-5.2-65.5 31.4c-1.4.5-13.3 5.5-19.5 12.9-3.4 4.2-1.7 6.7-1.7 6.7s1-.5 2.3-.5c0 0 .5 2.4-.7 3.3-.5.4-.1 1.7.9 1.9 1.1.1 1.9-.4 3.1-2.6 1.3-2.1 5.4-6.9 7.3-8.6"/><path id="prefix___x31_87" class="prefix__st9" d="M138.2 202.8l75.8-39.3-2-5.2-65.5 31.4c-1.4.5-13.3 5.5-19.5 12.9-3.4 4.2-1.7 6.7-1.7 6.7s1-.5 2.3-.5c0 0 .5 2.4-.7 3.3-.5.4-.1 1.7.9 1.9 1.1.1 1.9-.4 3.1-2.6 1.3-2.1 5.4-6.9 7.3-8.6z"/><path id="prefix___x31_86" class="prefix__st2" d="M199.2 164l9.8-4.7s3.3 2.5 3 5.3c0 0 .7 6.5 8.7 10.9 0 0-6.8 8.4-18.6 9.2 0 0 .9-11.6-1.6-14.8.1 0-2.4-3.7-1.3-5.9"/><path id="prefix___x31_85" class="prefix__st9" d="M199.2 164l9.8-4.7s3.3 2.5 3 5.3c0 0 .7 6.5 8.8 10.9 0 0-6.8 8.4-18.6 9.2 0 0 .9-11.6-1.6-14.8 0 0-2.5-3.7-1.4-5.9z"/><path id="prefix___x31_84" class="prefix__st28" d="M210.7 165.3c-2.1.8-8.9 4.4-8.9 4.4"/><path id="prefix___x31_83" class="prefix__st28" d="M207.4 167.4c-.1 1-.7 3.5 0 5.3"/><path id="prefix___x31_82" class="prefix__st28" d="M206.5 167.7c0 .5-.8 2.4.1 4.9"/><path id="prefix___x31_81" class="prefix__st28" d="M205.5 168.2c-.2 1-.4 1.7 0 2.8"/><path id="prefix___x31_80" class="prefix__st28" d="M204.6 168.9c-.2.6 0 .9 0 1.4"/><path id="prefix___x31_79" class="prefix__st28" d="M210.8 168.6c.3.8 3.1 5.2 4.8 7"/><path id="prefix___x31_78" class="prefix__st28" d="M211.2 170.5c.3.8 1.9 3.9 3 5"/><path id="prefix___x31_77" class="prefix__st28" d="M211 172.3c.4 1 1.2 2.9 2.1 4"/><path id="prefix___x31_76" class="prefix__st28" d="M211 174.4c.2.8.6 1.9 1.2 2.6"/><radialGradient id="prefix___x31_75_1_" cx="-226.578" cy="251.343" r="14.764" gradientTransform="matrix(.6692 0 0 -.7661 332.942 361.312)" gradientUnits="userSpaceOnUse"><stop offset="0" stop-color="#ffef5d"/><stop offset="1" stop-color="#ea5700"/></radialGradient><path id="prefix___x31_75" d="M172.1 158.8c-.7 3.3-.7 6.3-.6 9.5.1 2.2 1.1 4.7 2.1 6.9.6 1.5 1.5 3.1 2.8 4 3.6 2.4 7.1-.2 9.1-1 .9-.3 2.4-1.7 2.8-2.5.5-1.2.3-2.2.8-4.6-.1.1.8-.4.7-.4.9-1.6.7-2.1 1.3-3.1.5-1-.6-2.2-1.9-2 .6-2 1-4.2.4-6-.2-.6.5-2.3-.6-1.9-4.7 1.9-10.2 1.5-15.2 1.5-.4 0-.7-.8-1.4-.7-.1-.3-.2 0-.3.3" fill="url(#prefix___x31_75_1_)"/><path id="prefix___x31_74" class="prefix__st9" d="M172.1 158.8c-.7 3.3-.7 6.3-.6 9.5.1 2.2 1.1 4.7 2.1 6.9.6 1.5 1.5 3.1 2.8 4 3.6 2.4 7.1-.2 9.1-1 .9-.3 2.4-1.7 2.8-2.5.5-1.2.3-2.2.8-4.6-.1.1.8-.4.7-.4.9-1.6.7-2.1 1.2-3.1s-.6-2.2-1.9-2c.6-2 1-4.2.4-6-.2-.6.5-2.3-.6-1.9-4.7 1.9-10.2 1.5-15.2 1.5-.4 0-.7-.8-1.4-.7 0-.3-.1.1-.2.3z"/><path id="prefix___x31_73" d="M171.7 160.5c-.5-.4-.6-1.4 0-3.3.7-2 0-2.1 1.1-3.2s.8-1.7 1.6-2c.7-.2 2.9-.2 3.6-.5.6-.3 1.6-.7 3-.9 1.6-.3 4.7-.2 6.1.6 1.6.8 2.6 2.9 3.5 3.6 1 .7 1.7 3.8 1.5 8.1-.3 4.4-1.1 3.5-1.1 3.5s-1.3-2.1-2.3-.3c0 0 0-1.7.2-2.9.1-1.3-.6-3.5.1-5.1 0 0-5.9 1.9-9 1.8-3.1-.2-7.5-.9-7.7-1.7l-.6 2.3"/><path id="prefix___x31_72" class="prefix__st9" d="M171.7 160.5c-.5-.4-.6-1.4 0-3.3.7-2 0-2.1 1.1-3.2s.8-1.7 1.6-2c.7-.2 2.9-.2 3.6-.5.6-.3 1.6-.7 3-.9 1.6-.3 4.7-.2 6.1.6 1.6.8 2.6 2.9 3.5 3.6 1 .7 1.7 3.7 1.5 8.1-.3 4.4-1.1 3.5-1.1 3.5s-1.2-2.1-2.3-.3c0 0 0-1.7.2-2.9.1-1.2-.6-3.5.1-5.1 0 0-5.9 1.9-9 1.8-3.1-.2-7.5-.9-7.7-1.7l-.6 2.3"/><path id="prefix___x31_71" class="prefix__st2" d="M174.7 156.9c-.3-.6-1.9-2.9-.6-3.6 1.1-.6.4 2.8 2 3.5 0 0-.5 1.5-1.4.1"/><path id="prefix___x31_70" d="M174.7 156.9c-.3-.6-1.9-2.9-.6-3.6 1.1-.6.4 2.8 2 3.5 0 0-.5 1.5-1.4.1h0z" fill="none" stroke="#fff" stroke-width=".303"/><radialGradient id="prefix___x31_69_1_" cx="-224.11" cy="61.013" r="66.969" gradientTransform="matrix(.6692 0 0 -.4458 332.942 227.58)" gradientUnits="userSpaceOnUse"><stop offset="0" stop-color="#ffef5d"/><stop offset="1" stop-color="#ea5700"/></radialGradient><path id="prefix___x31_69" d="M189.8 170.5c-.2.6-.7.2-.7.4-.4 2.2-.3 3.3-.8 4.6-.7 1.5-3.3 2.8-3.2 2.7-2.1.6-4.6 3.1-8.6.8-.2-.1-.4-.3-.6-.5 0 0 1.1 4.3-3 6.4-1.5.7-16.1 8.4-16.1 8.4s-1.6 2.8-.5 6.7c.1.6.3 1.1-.3 1.6-.9.7-2.7 2.8-3.7 6.1 0 0-3.1-1.4-3.1-3.3 0-2 1.3-3 1.6-4.5.3-1.4 1.1-4.8.7-5.8-.4-1.1-2.3-1.6-3-2-.6-.4-1.5.4-1.4 1.4.1 1 .8.8 1.7 1 0 0-.9 2-.8 3.4l-9.5 4.9s1.2 1.7 1.7 2.4c.4.7 1.4 10.4 4.2 15 2.8 4.6 3.7 3.3 4.4 4 .5.5 1.4 1.4 2.1 2 .7.5 4 .8 4.6-.9.7-1.7 1.3-2.7 3.2-4.3 2-1.6 6-5.5 6-7.3 0 0 2.4 6.9 2.1 12.6 0 0 8.8 1.8 16.6 2 7.8.1 11.8-1.6 11.8-1.6s1-6.6.6-7.8c0 0 1.3 4.3 2.2 5.7 1 1.8 2.2 5.4 4.5 5.6 2.2.1 4.1-2.2 4.3-3.1v-6.9h8.9c0-.1 4 1.5 5.2 1.2 1.2-.1 2-1.2.8-1.7l-.4-.3c1.1 0 2.6.7 2.6.7h4.4c.1-.1 0-.4-.1-.5-.3-1.3-2.6-2.3-4.3-3-1.7-.6-3.5-1.4-4.8-1.5-2-.2-3.3-.1-6.4.4-.8.1-4 .4-5.9 1.4-.5.3-1 .4-.8-.9.3-1.5.2-8-1.4-10.8-1.1-2-1-3.6-.8-5.3.1-1.7.2-7.4 0-9.1-.3-1.7-2.6-4-6.8-4.5-4-.5-7.3-3.8-7.5-6.4-.8-2.5-.1-7.3.3-9.4" fill="url(#prefix___x31_69_1_)"/><path id="prefix___x31_68" class="prefix__st9" d="M189.8 170.5c-.2.6-.7.2-.7.4-.4 2.2-.3 3.3-.8 4.6-.7 1.5-3.3 2.8-3.2 2.7-2.1.6-4.6 3.1-8.6.8-.2-.1-.4-.3-.6-.5 0 0 1.1 4.3-3 6.4-1.5.7-16.1 8.4-16.1 8.4s-1.6 2.8-.5 6.7c.1.6.3 1.1-.3 1.6-.9.7-2.7 2.8-3.7 6.1 0 0-3.1-1.4-3.1-3.3 0-2 1.2-3 1.6-4.5.3-1.4 1.1-4.8.7-5.8-.4-1.1-2.3-1.6-3-2-.6-.4-1.5.4-1.4 1.4.1 1 .8.8 1.7 1 0 0-.9 2-.8 3.4l-9.5 4.9s1.3 1.7 1.7 2.4c.4.7 1.4 10.4 4.2 15 2.8 4.6 3.7 3.3 4.4 4 .5.5 1.4 1.4 2.1 2 .7.5 4 .8 4.6-.9.7-1.7 1.2-2.7 3.2-4.3 2-1.6 6-5.5 6-7.3 0 0 2.4 6.9 2.1 12.6 0 0 8.7 1.8 16.6 2 7.8.1 11.8-1.6 11.8-1.6s1-6.6.6-7.8c0 0 1.3 4.3 2.2 5.7 1 1.8 2.2 5.4 4.5 5.6 2.2.1 4.1-2.2 4.3-3.1v-6.9h8.9c0-.1 4 1.5 5.2 1.3 1.3-.1 2-1.3.8-1.7l-.4-.3c1.1 0 2.6.7 2.6.7h4.4c.1-.1 0-.4-.1-.5-.3-1.2-2.6-2.3-4.3-3-1.7-.6-3.5-1.4-4.8-1.5-2-.2-3.3-.1-6.4.4-.8.1-4 .4-5.9 1.4-.5.3-1 .4-.8-.9.3-1.5.2-8-1.4-10.8-1.1-2-1-3.6-.8-5.3.1-1.7.2-7.4 0-9.1-.3-1.7-2.6-4-6.8-4.5-4-.5-7.3-3.8-7.5-6.4-.8-2.6-.1-7.4.3-9.5z"/><path id="prefix___x31_67" class="prefix__st9" d="M226.8 220.2c-.6-.7-1-1-1.9-1.4-.6-.3-1.5-.7-2.1-1-.7-.4-1.8-.5-2.4-.9"/><path id="prefix___x31_66" class="prefix__st9" d="M220.9 219.6c-.3-.2-.5-.3-.8-.5-.3-.1-.7-.1-1-.2-.1 0-.1-.2-.2-.2-.9-.1-1.9-.5-2.5-1.4"/><path id="prefix___x31_65" class="prefix__st9" d="M152 207.7c.9.7 3.2 2.3 3.4 5.3.2 1.6 1 3.1 1 3.1"/><path id="prefix___x31_64" class="prefix__st9" d="M143 208.1c.5 1.8.6 7.6 6.1 13.8"/><path id="prefix___x31_63" class="prefix__st9" d="M144.1 200c-.4 1.1-.9 2.2.2 3"/><path id="prefix___x31_62" class="prefix__st9" d="M159.1 214c1.1-2.6 4.7-2.4 4.7-4.9"/><path id="prefix___x31_61" class="prefix__st9" d="M164.3 213.7c-.3-2.9-.9-4.6-.4-8.9.2-1.3.4-6 0-8.3 0 0 1.7 8-3.7 9.6"/><path id="prefix___x31_60" class="prefix__st9" d="M195.3 218.9c0-4.1.9-6.4.9-6.4 1.2-5.7-1.1-7.9-.2-9.4.8-1.3 2.1-3.9.4-9.1 0 0 2.9 10.7-4.6 10.7-7.6 0-7.3-2.8-7.3-2.8"/><path id="prefix___x31_59" class="prefix__st9" d="M163.9 196.5c0 2.2 0 8.7 9.3 8.7 2.8 0 5.8-2 7.5-3.3"/><path id="prefix___x31_58" class="prefix__st9" d="M182.9 199c-.3-2-.3-4.5-.3-7.1"/><path id="prefix___x31_57" class="prefix__st9" d="M168.7 188.4c2.5-.3 4.5-.6 9.2-.6"/><path id="prefix___x31_56" class="prefix__st9" d="M178.2 181.3c.5 2.3-.3 5.9 4 6.5"/><path id="prefix___x31_55" class="prefix__st9" d="M186.6 180.4c-.6 1.7-.6 3.3-.8 4.5"/><path id="prefix___x31_54" class="prefix__st9" d="M186 187.7c1.8 0 5.1-1.1 9.3-.3"/><path id="prefix___x31_53" class="prefix__st9" d="M196.7 210.8c.8 1.7 1 3.9 3.6 6.4"/><path id="prefix___x31_52" class="prefix__st9" d="M167.8 205.4c.2 1.4-1.8 5.8-.3 9.5 1.4 3.6 1.1 7.8-1.1 11.4"/><path id="prefix___x31_51" class="prefix__st9" d="M173.2 206.8c-.8 1.7-2.3 3.3-2.6 4.8"/><path id="prefix___x31_50" class="prefix__st9" d="M177.3 209.9c0 1-2.8 9-4.8 11.1 0 0 3.6 1.5 3.1 6.8"/><path id="prefix___x31_49" class="prefix__st9" d="M183.2 206.3c0 1.4-.2 1.7.9 2.5"/><path id="prefix___x31_48" class="prefix__st9" d="M186.6 208.8c1.4 1.7 5.6 6.7 4.7 9.5"/><path id="prefix___x31_47" class="prefix__st9" d="M183.8 211.6c.3 1 .3 6.5-.6 9.2"/><path id="prefix___x31_46" class="prefix__st9" d="M181 220.5c-1.1 0-2.8.8-3.1 2.8"/><path id="prefix___x31_45" class="prefix__st9" d="M186.8 220.2c1.1-.3 3.4 1.7 3.4 7.3"/><path id="prefix___x31_44" class="prefix__st9" d="M206.3 217c-2.2.6-3.1 1.8-2.5 1.1-1.1.9-2.2 1.6-2.2 1.6"/><path id="prefix___x31_43" class="prefix__st9" d="M178.2 165.4c-.5 1.8-.7 2.2-.9 3.2"/><path id="prefix___x31_42" class="prefix__st9" d="M188.1 170.3c.2.6.4.3.9.4"/><path id="prefix___x31_41" class="prefix__st9" d="M189.4 166.7c.5-.6 1.2-.3.8 1.3"/><path id="prefix___x31_40" d="M169.4 204.2c.6 0 1.1-.4 1.1-.9 0-.4-.5-.8-1.1-.8-.5 0-1 .4-1 .8 0 .5.5.9 1 .9"/><path id="prefix___x31_39" class="prefix__st32" d="M169.4 204.2c.6 0 1.1-.4 1.1-.9 0-.4-.5-.8-1.1-.8-.5 0-1 .4-1 .8 0 .5.5.9 1 .9z"/><path id="prefix___x31_38" d="M193.1 204.5c.5 0 1-.4 1-.9s-.5-.8-1-.8c-.6 0-1.1.3-1.1.8-.1.5.4.9 1.1.9"/><path id="prefix___x31_37" class="prefix__st32" d="M193.1 204.5c.5 0 1-.4 1-.9s-.5-.8-1-.8c-.6 0-1.1.3-1.1.8-.1.5.4.9 1.1.9z"/><path id="prefix___x31_36" class="prefix__st9" d="M172.1 162.9c.9.3 1.9.6 2.8 1 1.6.6.6 2.9.2 4.4-.2.7-1 2-.6 2.6.5.8 1.1.3 2.1.4 0-.3.6-.5.8-.5.7-.1 1.1.5 1.7.3.6-.3.5-1.3.3-1.8"/><path id="prefix___x31_35" class="prefix__st9" d="M179.3 164.8c.1-.4 1-.8 1.6-.9 2.2-.4 3.7-.7 5.5.5"/><path id="prefix___x31_34" class="prefix__st2" d="M172 165.4c.7-.1 1.6-.9 3.2.3 1.1.7-1.9 1.5-1.4 1.4-1.4.2-1.8-.5-1.9-1.1.1-.3-.1-.6.1-.6"/><path id="prefix___x31_33" class="prefix__st32" d="M172 165.4c.7-.1 1.6-.9 3.2.3 1.1.7-1.9 1.5-1.4 1.4-1.4.2-1.8-.5-1.9-1.1.1-.3-.1-.6.1-.6z"/><path id="prefix___x31_32" d="M173.5 166.7c.4 0 .7-.4.7-.8 0-.5-.3-.9-.7-.9-.5 0-.8.4-.8.9-.1.4.2.8.8.8"/><path id="prefix___x31_31" class="prefix__st32" d="M173.5 166.7c.4 0 .7-.4.7-.8 0-.5-.3-.9-.7-.9-.5 0-.8.4-.8.9-.1.4.2.8.8.8z"/><path id="prefix___x31_30" class="prefix__st9" d="M180.6 175.7c-1.8.4-3.6.7-5.3-.2"/><path id="prefix___x31_29" class="prefix__st9" d="M175.2 174.7c.8-.4 1.1-.8 2.2-.3 0-.1 1.1-.4 1.1-.4.8 0 1.4.3 2.2.8"/><path id="prefix___x31_28" class="prefix__st32" d="M175.1 175.1c.9-.3 3.4-.3 5.5.1"/><path id="prefix___x31_27" class="prefix__st2" d="M180.6 166.3c.7-1.5 1.9-1.1 2.9-.8 1 .3.7.1 1.7.6-1.1.2-.8.3-1.7.7-.9.4-1.8.6-2.4.2-.2-.2-.7-.5-.7-.9-.1.1 0 .2.2.2"/><path id="prefix___x31_26" class="prefix__st32" d="M180.6 166.3c.7-1.5 1.9-1.1 2.9-.8 1 .3.7.1 1.7.6-1.1.2-.8.3-1.7.7-.9.4-1.8.6-2.4.2-.2-.2-.7-.5-.7-.9-.1.1 0 .2.2.2z"/><path id="prefix___x31_25" d="M182.3 166.9c.4 0 .7-.4.7-.9s-.4-.8-.8-.8-.7.3-.7.8.4.9.8.9"/><path id="prefix___x31_24" class="prefix__st32" d="M182.3 166.9c.4 0 .7-.4.7-.9s-.4-.8-.8-.8-.7.3-.7.8.4.9.8.9z"/><path id="prefix___x31_23" d="M134.5 195.9c-.5.3-1.1-2.1.4-3 0 0 .4-2 2.1-2.2 0 0 1.4-1.9 3.3-1.7 0 0 2.3-1.6 3.1-1.4.8.1 2.9 2.2 3 2.9.2.7 0 2-.5 2.5-.6.6-1-.1-1.1-.9 0 0 .4 1.6-.8 2.2-1.2.7-1.1.2-1.2-.6 0 0-.3 1.7-1.1 1.9-.8.3-1.4-.4-2-.4 0 0 1 .8.3 1.5-.7.5-1.6.3-2.1-.1-.6-.6-1.2-2-3.4-.7" fill="#ffb366"/><path id="prefix___x31_22" class="prefix__st9" d="M134.5 195.9c-.5.3-1.1-2.1.4-3 0 0 .4-2 2.1-2.2 0 0 1.4-1.9 3.3-1.7 0 0 2.3-1.6 3.1-1.4.8.1 2.9 2.2 3 2.9.2.7 0 2-.5 2.5-.6.6-1-.1-1.1-.9 0 0 .4 1.6-.8 2.2-1.2.7-1.1.2-1.2-.6 0 0-.3 1.7-1.1 1.9-.8.3-1.4-.4-2-.4 0 0 1 .8.3 1.5-.7.5-1.6.3-2.1-.1-.6-.6-1.2-2-3.4-.7z"/><path id="prefix___x31_21" class="prefix__st9" d="M144.7 192c-.5-1.7-2.2-3.1-4.2-2.9"/><path id="prefix___x31_20" class="prefix__st9" d="M142.8 193.6c-.3-.4-.4-.8-.7-1.2-.9-1.6-2.9-1.5-4.6-1.9"/><path id="prefix___x31_19" class="prefix__st9" d="M140 195.1c-.6-.4-.8-1.3-1.5-1.6-1-.4-2.1-.9-3.3-.7"/><path id="prefix___x31_18" class="prefix__st2" d="M159.9 247c1.2-8.1 5.1-14.9 5.2-15.5 0 0 4 .8 10.8 1.5 6.8.7 8.6.4 11.8.2 3-.3 7-.8 7-.8s1.2 2.5 1.4 5c.3 5.3 2.3 28.3 2.5 34.5 0 0 .8 3.6.8 12.6 0 9.8 2.7 29.7 2.7 40.3l-2.7.5s-14.8 1.1-14.8-.8c0-2.2-.8-27.7 1.4-43.1 0 0-.5-3-1.4-5.6-.8-2.5-4.5-10.3-4.5-12 0 0-5.8 16.5-6.1 19.3-.3 2.6-1.1 39.3-1.7 42.3 0 0-8.4 6.5-9.6 7.1-1.1.5-9.3-3.4-9.5-4.5-.3-1.1.8-13.5 4.7-34 1.5-7.3.6-8.6.6-10.6.1-2.1.2-28.3 1.4-36.4"/><path id="prefix___x31_17" class="prefix__st9" d="M159.9 247c1.2-8.1 5.1-14.9 5.2-15.5 0 0 4 .8 10.8 1.5 6.8.7 8.6.4 11.8.2 3-.3 7-.8 7-.8s1.3 2.5 1.4 5c.3 5.3 2.3 28.3 2.5 34.5 0 0 .8 3.6.8 12.6 0 9.8 2.7 29.7 2.7 40.3l-2.7.5s-14.8 1.1-14.8-.8c0-2.2-.8-27.7 1.4-43.1 0 0-.5-3-1.4-5.6-.8-2.5-4.5-10.3-4.5-12 0 0-5.8 16.5-6.1 19.3-.3 2.6-1.1 39.3-1.7 42.3 0 0-8.4 6.5-9.6 7.1-1.1.5-9.3-3.4-9.5-4.5-.3-1.1.8-13.5 4.7-34 1.5-7.3.6-8.6.6-10.6.1-2.1.2-28.3 1.4-36.4z"/><path id="prefix___x31_16" class="prefix__st9" d="M167.5 234c-.3 1.4-2.3 7.5-7.3 11.1"/><path id="prefix___x31_15" class="prefix__st9" d="M174.8 235.1c-1.1 3.6-5.6 23.2-6.5 46.5"/><path id="prefix___x31_14" class="prefix__st9" d="M174 283c-.6 2.3-1.7 4.5-3.6 5.9"/><path id="prefix___x31_13" class="prefix__st9" d="M168.1 288.9c-.2 2.2-1.4 18.4-1.7 21.3"/><path id="prefix___x31_12" class="prefix__st9" d="M165.6 313.3c-.5 1.1-2.8 10.6-2.8 19.1"/><path id="prefix___x31_11" class="prefix__st9" d="M195.8 295.6c-.2 2-1 16 3.6 28.7"/><path id="prefix___x31_10" class="prefix__st9" d="M180.4 236.2c-.3 2.3-.8 17.1-.8 18.2 0 1.1 1.7 2.8 2.5 3.1 0 0-1.7.5-2 6.1"/><path id="prefix___x31_09" class="prefix__st9" d="M176 250.5c-.3 1.8-2 8.8-3.1 11.6"/><path id="prefix___x31_08" class="prefix__st9" d="M186.3 236s5 1 5.3 0c0 0 1.7 30.2 4 47"/><path id="prefix___x31_07" class="prefix__st9" d="M184.1 239.8c0 2-.6 16.9-.6 16.9"/><path id="prefix___x31_06" class="prefix__st9" d="M186 258.9s2 2.8 1.5 4.2"/><path id="prefix___x31_05" class="prefix__st9" d="M169.2 234.3c1.7.5 3.1.8 3.1.8"/><path id="prefix___x31_04" class="prefix__st9" d="M177.6 236.8c-.3.8-.6 4.7-.6 4.7"/><path id="prefix___x31_03" class="prefix__st9" d="M186 281.3c.6.8 1.5 2 .8 4.5"/><path id="prefix___x31_02" class="prefix__st34" d="M164.4 231.3s0-3.3 1.2-5c0 0 3.5.7 8.5 1.3 5.1.5 9.2.9 12.9.5 3.8-.4 7.6-1.4 7.6-1.4s1 4.9.5 5.6c0 0-4.1.8-8.5 1-4.6.3-12.2-.4-14.8-.8-3.3-.4-6.4-1-7.4-1.2"/><path id="prefix___x31_01" class="prefix__st9" d="M164.4 231.3s0-3.3 1.2-5c0 0 3.5.7 8.5 1.3 5.1.5 9.2.9 12.9.5 3.7-.4 7.6-1.4 7.6-1.4s1 4.9.5 5.6c0 0-4.1.8-8.5 1-4.6.3-12.2-.4-14.8-.8-3.3-.4-6.4-1-7.4-1.2z"/><path id="prefix___x31_00" class="prefix__st2" d="M167.6 231.7l.6-5 1 .1-.2 5.2-1.4-.3"/><path id="prefix___x39_9" class="prefix__st9" d="M167.6 231.7l.6-5 1 .1-.2 5.2-1.4-.3"/><path id="prefix___x39_8" class="prefix__st2" d="M190.2 227.5l.1 5.6 1.2-.2-.1-5.7-1.2.3"/><path id="prefix___x39_7" class="prefix__st9" d="M190.2 227.5l.1 5.6 1.2-.2-.1-5.7-1.2.3"/><path id="prefix___x39_6" class="prefix__st2" d="M174.2 227.5l-.4 5.4h.7l.7-5.4h-1"/><path id="prefix___x39_5" class="prefix__st9" d="M174.2 227.5l-.4 5.4h.7l.7-5.4h-1"/><path id="prefix___x39_4" class="prefix__st35" d="M156.1 330c-.3 1.4-.8 3.2-1 5.6 0 .5-.5 3.3 1 3.4 1.1.1 1.5-2.9 1.5-2.9s-1 3.3.3 3.7c1.9.4 2.1-3.6 2.1-3.6-.2 1.1-1.5 4.1.3 4.4 1.9.3 2.4-4 2.4-4s-1.6 4.3.3 4.4c1.8.1 1.8-4.2 1.8-4.2s-.9 5.1 1.6 4.7c1.4-.2 1.7-2 2-3 .4-1.6 1.4-3.5.2-6.8-.8-2.4-.5-3-.5-3s-2.9 2.2-5.2 3.6c-1.2.7-6.8-2.3-6.8-2.3"/><path id="prefix___x39_3" class="prefix__st9" d="M156.1 330c-.3 1.4-.8 3.2-1 5.6 0 .5-.5 3.3 1 3.4 1.1.1 1.5-2.9 1.5-2.9s-1 3.3.3 3.8c1.9.4 2.1-3.6 2.1-3.6-.2 1.1-1.5 4.1.3 4.4 1.9.3 2.4-4 2.4-4s-1.6 4.3.3 4.4c1.8.1 1.8-4.2 1.8-4.2s-.9 5.1 1.6 4.7c1.4-.2 1.7-2 2-3 .4-1.6 1.4-3.5.2-6.8-.8-2.4-.5-3-.5-3s-2.9 2.2-5.2 3.6c-1.2.6-6.8-2.4-6.8-2.4z"/><path id="prefix___x39_2" class="prefix__st35" d="M186.5 325.5c-.5-.3-.4 1.9-.6 2.9-.1 1 .2 3.3 3.7 3.1 3.4-.3 6.9-1 9.1-.5 2.2.6 5.4.7 7.2.7 1.8 0 2.9-.2 3.8-.5.7-.3 2.3.4 3 .4.7 0 1.9-1.1 1.8-1.9-.1-1.4-1.4-1.4-3.1-1.5-1.7-.2-4-.5-5.1-.9-1.1-.4-3.2-1.6-5.8-2.1 0 0-5 .2-6 .2-1.2.1-7.4.4-8 .1"/><path id="prefix___x39_1" class="prefix__st9" d="M186.5 325.5c-.5-.3-.4 1.9-.6 2.9-.1 1 .2 3.3 3.8 3.1 3.4-.3 6.9-1 9.1-.5 2.2.6 5.4.7 7.2.7 1.8 0 2.9-.2 3.7-.5.7-.3 2.3.4 3 .4.7 0 1.9-1.1 1.8-1.9-.1-1.4-1.4-1.4-3.1-1.5-1.7-.2-4-.5-5.1-.9-1.1-.4-3.2-1.6-5.8-2.1 0 0-5 .2-6 .2-1.2.1-7.4.4-8 .1z"/><path id="prefix___x39_0" class="prefix__st15" d="M281.8 157.9l92.2 44.9c5.3 1.1 3.3 4.3 7.1 8.5 1.7 1.9 2 2.5 3.1 2.6 2.9.1 2.6-4.2 2.1-4.7-1.4-1.4-2.9-2.5-2.9-2.5.4-.8 1.7 2.3 4.6 2.3 2.5 0 2.8-1.5.5-4-2.2-2.5-3-2.5-5.9-2.8 0 0-5.2-2-7.1-3.3-3.3-2.6-7.9-5.3-9.4-5.9l-82.9-44.8c-1.4-.5-5.8-3.6-8.6 1.1-1.9 3 1.1 5.9 7.2 8.6"/><path id="prefix___x38_9" class="prefix__st9" d="M281.8 157.9l92.2 44.9c5.3 1.1 3.3 4.3 7.1 8.5 1.7 1.9 2 2.5 3.1 2.6 2.9.1 2.6-4.2 2.1-4.7-1.4-1.4-2.9-2.5-2.9-2.5.4-.8 1.7 2.3 4.6 2.3 2.5 0 2.8-1.5.5-4-2.2-2.5-3-2.5-5.9-2.8 0 0-5.2-2-7.1-3.3-3.3-2.6-7.9-5.3-9.4-5.9l-82.9-44.8c-1.4-.5-5.8-3.6-8.6 1.1-1.8 3 1.1 5.9 7.2 8.6z"/><path id="prefix___x38_8" class="prefix__st9" d="M280.1 151.6l42.8 22.7"/><radialGradient id="prefix___x38_7_1_" cx="-3.011" cy="242.235" r="15.324" gradientTransform="matrix(.6692 0 0 -.7337 332.942 346.412)" gradientUnits="userSpaceOnUse"><stop offset="0" stop-color="#952d1a"/><stop offset="1" stop-color="#520900"/></radialGradient><path id="prefix___x38_7" d="M339.9 158.8c.9 3.4 1.1 4.3 1.1 5.4 0 1.2-.5 1.5-.1 2.8.7 2.5-.7 5.2-2.5 8.1-.8 1.4-1.5 3.1-2.8 4-3.4 2.2-7.6-.4-9.8-1.4-1.1-.5-1.8-1.3-2.1-2.2-.4-1.2-.5-2.4-.8-4.1 0-.3.1-1.2-.6-.9-1.3-1.5-1-2.1-1.6-3.1-.5-1 .9-2.2 2.1-2-.6-2-.9-4.2-.3-6 .2-.6-.5-2.3.5-1.9 4.7 1.9 10.2 1.5 15.2 1.5.4 0 .7-.8 1.4-.7.1-.1.2.3.3.5" fill="url(#prefix___x38_7_1_)"/><path id="prefix___x38_6" class="prefix__st9" d="M339.9 158.8c.9 3.4 1.1 4.3 1.1 5.4 0 1.2-.5 1.5-.1 2.8.7 2.5-.7 5.2-2.5 8.1-.8 1.4-1.5 3.1-2.8 4-3.4 2.2-7.6-.4-9.8-1.4-1.1-.5-1.8-1.3-2.1-2.2-.4-1.2-.5-2.4-.8-4.1 0-.3.1-1.3-.6-.9-1.3-1.5-1-2.1-1.6-3.1-.5-1 .9-2.2 2.1-2-.6-2-.9-4.2-.3-6 .2-.6-.5-2.3.5-1.9 4.7 1.9 10.2 1.5 15.2 1.5.4 0 .7-.8 1.4-.7.1-.1.2.3.3.5z"/><path id="prefix___x38_5" d="M340.4 160.5c.5-.4.2-2.4-.3-4.5-.2-1-1-1.5-2.2-2.6-1.1-1.1-1.6-1.1-2.3-1.5-.6-.2-2.1-.2-2.8-.5-.6-.3-2.3-.1-3.9.1-2.1.3-3.2.2-4.8 1-1.6.8-2.8 1.8-3.3 3.3-.4 1.1-1.1 2.6-.8 7 .2 4.4 1 3.5 1 3.5s1.1-1.7 1.9-.6c0 0-.1-2.3-.3-3.6-.1-1.3 0-2.8.5-4.7 0 0 4.8 1.8 9.3 1.8 3.1 0 7.2-.3 7.3-1l.7 2.3"/><path id="prefix___x38_4" class="prefix__st9" d="M340.4 160.5c.5-.4.2-2.4-.3-4.5-.2-1-1-1.5-2.2-2.6-1.1-1.1-1.6-1.1-2.3-1.5-.6-.2-2.1-.2-2.8-.5-.6-.3-2.3-.1-3.9.1-2.1.3-3.2.2-4.8 1-1.6.8-2.8 1.8-3.3 3.3-.4 1.1-1.1 2.6-.8 7 .2 4.4 1 3.5 1 3.5s1.1-1.7 1.9-.6c0 0-.1-2.3-.3-3.6-.1-1.3 0-2.8.5-4.7 0 0 4.8 1.8 9.3 1.8 3.1 0 7.2-.3 7.3-1l.7 2.3z"/><radialGradient id="prefix___x38_3_1_" cx="-5.648" cy="60.807" r="67.012" gradientTransform="matrix(.6692 0 0 -.446 332.942 227.468)" gradientUnits="userSpaceOnUse"><stop offset="0" stop-color="#952d1a"/><stop offset="1" stop-color="#520900"/></radialGradient><path id="prefix___x38_3" d="M322.3 170.5c.7-.3.5.6.6.9.3 1.4.3 2.8.8 4.1.6 1.1.8 1.6 1.9 2.1 1.7.9 6.6 3.6 10 1.5.2-.1.5-.3.7-.5 0 0-1.2 4.3 3 6.4 1.4.7 16 8.4 16 8.4s1.6 2.8.6 6.7c-.2.6-.4 1.1.2 1.6 1 .7 2.7 2.8 3.9 6.1 0 0 3-1.4 3-3.3 0-2-1.2-3-1.6-4.5-.2-1.4-1-4.8-.6-5.8.4-1.1 2.2-1.6 2.9-2 .7-.4 1.6.4 1.4 1.4-.1 1-.8.8-1.7 1 0 0 1 2 .8 3.4l9.6 4.9s-1.3 1.7-1.7 2.4c-.5.7-1.5 10.4-4.3 15s-3.8 3.3-4.3 4c-.6.5-1.5 1.4-2.2 2-.6.5-3.9.8-4.6-.9-.7-1.7-1.2-2.7-3.2-4.3-2-1.6-6-5.5-6-7.3 0 0-2.4 6.9-2.1 12.6 0 0-8.6 1.8-16.6 2-7.8.1-11.8-1.6-11.8-1.6s-1-6.6-.6-7.8c0 0-1.2 4.3-2.1 5.7-1.1 1.8-2.3 5.4-4.5 5.6-2.3.1-4.1-2.2-4.4-3.1v-6.9h-8.9c0-.1-3.9 1.5-5.2 1.3-1.2-.1-1.9-1.3-.8-1.7l.4-.3c-1.1 0-2.6.7-2.6.7h-4.4c0-.1.1-.4.1-.5.3-1.2 2.6-2.3 4.4-3 1.7-.6 3.4-1.4 4.7-1.5 2-.2 3.3-.1 6.4.4.8.1 4.1.4 5.9 1.4.5.3 1.1.4.8-.9-.3-1.5-1.3-5.7.3-8.5 1-2 .9-3.6.8-5.3-.2-1.8-1.1-5.7-1.1-7.5 0-5.8 4.5-8.2 8.4-9.5 4.4-1.4 7.3-2.8 7.1-5.4.3-2.9 1.1-7.4.6-9.5" fill="url(#prefix___x38_3_1_)"/><path id="prefix___x38_2" class="prefix__st9" d="M322.3 170.5c.7-.3.5.6.6.9.3 1.4.3 2.8.8 4.1.6 1.1.8 1.6 1.9 2.1 1.7.9 6.6 3.6 10 1.5.2-.1.5-.3.7-.5 0 0-1.2 4.3 3 6.4 1.4.7 16 8.4 16 8.4s1.6 2.8.6 6.7c-.2.6-.4 1.1.2 1.6 1 .7 2.7 2.8 3.9 6.1 0 0 3-1.4 3-3.3 0-2-1.3-3-1.6-4.5-.2-1.4-1-4.8-.6-5.8.4-1.1 2.2-1.6 2.9-2 .7-.4 1.6.4 1.4 1.4-.1 1-.8.8-1.7 1 0 0 1 2 .8 3.4l9.6 4.9s-1.2 1.7-1.7 2.4-1.5 10.4-4.3 15-3.8 3.3-4.3 4c-.6.5-1.5 1.4-2.2 2-.6.5-3.9.8-4.6-.9-.7-1.7-1.2-2.7-3.2-4.3-2-1.6-6-5.5-6-7.3 0 0-2.4 6.9-2.1 12.6 0 0-8.6 1.8-16.6 2-7.8.1-11.8-1.6-11.8-1.6s-1-6.6-.6-7.8c0 0-1.2 4.3-2.1 5.7-1.1 1.8-2.3 5.4-4.5 5.6-2.3.1-4.1-2.2-4.4-3.1v-6.9h-8.9c0-.1-3.9 1.5-5.2 1.3-1.3-.1-1.9-1.3-.8-1.7l.4-.3c-1.1 0-2.6.7-2.6.7h-4.4c0-.1.1-.4.1-.5.3-1.3 2.6-2.3 4.4-3 1.7-.6 3.4-1.4 4.7-1.5 2-.2 3.3-.1 6.4.4.8.1 4.1.4 5.9 1.4.5.3 1.1.4.8-.9-.3-1.5-1.2-5.7.3-8.5 1-2 .9-3.6.8-5.3-.2-1.8-1.1-5.7-1.1-7.5 0-5.8 4.5-8.2 8.4-9.5 4.4-1.4 7.3-2.8 7.1-5.4.3-2.9 1.1-7.4.6-9.5z"/><path id="prefix___x38_1" class="prefix__st9" d="M285.3 220.2c.7-.7 1-1 1.9-1.4.7-.3 1.5-.7 2.1-1 .7-.4 1.8-.5 2.4-.9"/><path id="prefix___x38_0" class="prefix__st9" d="M291.2 219.6c.3-.2.5-.3.8-.5.3-.1.7-.1 1.1-.2 0 0 0-.2.1-.2 1-.1 1.9-.5 2.5-1.4"/><path id="prefix___x37_9" class="prefix__st9" d="M360.2 207.7c-1 .7-3.2 2.3-3.5 5.3-.1 1.6-.9 3.1-.9 3.1"/><path id="prefix___x37_8" class="prefix__st9" d="M369.1 208.1c-.6 1.8-.7 7.6-6.2 13.8"/><path id="prefix___x37_7" class="prefix__st9" d="M368 200c.4 1.1.9 2.2-.2 3"/><path id="prefix___x37_6" class="prefix__st9" d="M353 214c-1.1-2.6-4.6-2.4-4.6-4.9"/><path id="prefix___x37_5" class="prefix__st9" d="M347.8 213.7c.3-2.9 1-4.6.4-8.9-.1-1.3-.4-6 0-8.3 0 0-1.7 8 3.9 9.6"/><path id="prefix___x37_4" class="prefix__st9" d="M316.7 218.9c0-4.1-.8-6.4-.8-6.4-1.3-5.7 1-7.9.1-9.4-.8-1.3-2.1-3.9-.4-9.1 0 0-2.9 10.7 4.6 10.7 7.6 0 7.3-2.8 7.3-2.8"/><path id="prefix___x37_3" class="prefix__st9" d="M348.2 196.5c0 2.2 0 8.7-9.2 8.7-2.8 0-5.9-2-7.6-3.3"/><path id="prefix___x37_2" class="prefix__st9" d="M329.1 199c.3-2 .3-4.5.3-7.1"/><path id="prefix___x37_1" class="prefix__st9" d="M343.5 188.4c-2.6-.3-4.5-.6-9.3-.6"/><path id="prefix___x37_0" class="prefix__st9" d="M333.9 181.3c-.5 2.3.3 5.9-4 6.5"/><path id="prefix___x36_9" class="prefix__st9" d="M325.5 180.4c.6 1.7.6 3.3.9 4.5"/><path id="prefix___x36_8" class="prefix__st9" d="M326.1 187.7c-1.7 0-5.1-.3-8.9.3"/><path id="prefix___x36_7" class="prefix__st9" d="M315.5 210.8c-.8 1.7-1.1 3.9-3.6 6.4"/><path id="prefix___x36_6" class="prefix__st9" d="M344.3 205.4c-.3 1.4 1.7 5.8.2 9.5-1.4 3.6-1 7.8 1.1 11.4"/><path id="prefix___x36_5" class="prefix__st9" d="M339 206.8c.8 1.7 2.2 3.3 2.5 4.8"/><path id="prefix___x36_4" class="prefix__st9" d="M334.7 209.9c0 1 2.8 9 4.8 11.1 0 0-3.6 1.5-3.1 6.8"/><path id="prefix___x36_3" class="prefix__st9" d="M328.9 206.3c0 1.4.2 1.7-.8 2.5"/><path id="prefix___x36_2" class="prefix__st9" d="M325.5 208.8c-1.4 1.7-5.5 6.7-4.7 9.5"/><path id="prefix___x36_1" class="prefix__st9" d="M328.3 211.6c-.2 1-.2 6.5.6 9.2"/><path id="prefix___x36_0" class="prefix__st9" d="M331.1 220.5c1.1 0 2.8.8 3.1 2.8"/><path id="prefix___x35_9" class="prefix__st9" d="M325.3 220.2c-1.1-.3-3.3 1.7-3.3 7.3"/><path id="prefix___x35_8" class="prefix__st9" d="M305.8 217c2.2.6 3.2 1.8 2.5 1.1 1.1.9 2.3 1.6 2.3 1.6"/><path id="prefix___x35_7" class="prefix__st9" d="M333.9 165.4c.6 1.8.1 1.3.4 2.4"/><path id="prefix___x35_6" class="prefix__st9" d="M323.8 169.9c0 .8-.6.6-1 .6"/><path id="prefix___x35_5" d="M342.7 204.2c-.6 0-1-.4-1-.9 0-.4.4-.8 1-.8s1 .4 1 .8c0 .5-.4.9-1 .9"/><path id="prefix___x35_4" class="prefix__st32" d="M342.7 204.2c-.6 0-1-.4-1-.9 0-.4.4-.8 1-.8s1 .4 1 .8c0 .5-.4.9-1 .9z"/><path id="prefix___x35_3" d="M319.1 204.5c-.6 0-1.1-.4-1.1-.9s.5-.8 1.1-.8c.5 0 1 .3 1 .8.1.5-.5.9-1 .9"/><path id="prefix___x35_2" class="prefix__st32" d="M319.1 204.5c-.6 0-1.1-.4-1.1-.9s.5-.8 1.1-.8c.5 0 1 .3 1 .8.1.5-.5.9-1 .9z"/><path id="prefix___x35_1" class="prefix__st9" d="M340.5 164.1c-.9-.7-2.7-.2-3.5.1-1.6.7-.7 2.3-.2 3.8.2.7 1 1.8.5 2.5-.4.8-.7.4-1.7.5.1-.3-.8 0-1.1 0-.6-.1-.9.4-1.5.2-.6-.3-.5-1.2-.3-1.8"/><path id="prefix___x35_0" class="prefix__st9" d="M332.8 164.8c0-.4-1.4-.8-2.8-.9-2.3-.1-2.5.1-4.3 1.4"/><path id="prefix___x34_9" class="prefix__st2" d="M340.1 165.4c-.7-.1-1-.9-3.2.3-1.1.6 1.9 1.5 1.5 1.4 1.2.2 1.7-.5 1.8-1.1-.1-.3.1-.6-.1-.6"/><path id="prefix___x34_8" class="prefix__st32" d="M340.1 165.4c-.7-.1-1-.9-3.2.3-1.1.6 1.9 1.5 1.5 1.4 1.2.2 1.7-.5 1.8-1.1-.1-.3.1-.6-.1-.6z"/><path id="prefix___x34_7" d="M338.7 166.7c-.5 0-.8-.4-.8-.8 0-.5.3-.9.8-.9.4 0 .7.4.7.9 0 .4-.3.8-.7.8"/><path id="prefix___x34_6" class="prefix__st32" d="M338.7 166.7c-.5 0-.8-.4-.8-.8 0-.5.3-.9.8-.9.4 0 .7.4.7.9 0 .4-.3.8-.7.8z"/><path id="prefix___x34_5" class="prefix__st9" d="M337.4 174.4c-.4-.6-1-.9-2.2-.4 0-.2-1.6-.4-1.6-.4-.8 0-1.4.3-2.2.7"/><path id="prefix___x34_4" class="prefix__st9" d="M337.2 174.9c-.9-.6-3.3-.2-5.7-.2"/><path id="prefix___x34_3" class="prefix__st9" d="M331.7 175.5c1.8.5 3.5.8 5.3 0"/><path id="prefix___x34_2" class="prefix__st2" d="M331.5 166.3c0-.8-1.9-1.1-2.9-.8-1 .3-.6.1-1.6.6 1 .2.7.3 1.6.7.9.4 1.1.8 2.4.2.3-.1.7-.5.8-.9-.1.1-.2.2-.3.2"/><path id="prefix___x34_1" class="prefix__st32" d="M331.5 166.3c0-.8-1.9-1.1-2.9-.8-1 .3-.6.1-1.6.6 1 .2.7.3 1.6.7.9.4 1.1.8 2.4.2.3-.1.7-.5.8-.9-.1.1-.2.2-.3.2z"/><path id="prefix___x34_0" d="M329.7 166.9c-.4 0-.7-.4-.7-.9s.4-.8.8-.8.7.3.7.8c.1.5-.2.9-.8.9"/><path id="prefix___x33_9" class="prefix__st32" d="M329.7 166.9c-.4 0-.7-.4-.7-.9s.4-.8.8-.8.7.3.7.8c.1.5-.2.9-.8.9z"/><path id="prefix___x33_8" class="prefix__st2" d="M352.1 247c-1.2-8.1-5-14.9-5.2-15.5 0 0-3.9.8-10.7 1.5-6.9.7-8.8.4-11.8.2-3.1-.3-7.1-.8-7.1-.8s-1.2 2.5-1.4 5c-.3 5.3-2.2 28.3-2.5 34.5 0 0-.8 3.6-.8 12.6 0 9.8-2.7 29.7-2.7 40.3l2.7.5s14.8 1.1 14.8-.8c0-2.2.8-27.7-1.4-43.1 0 0 .5-3 1.4-5.6.8-2.5 4.5-10.3 4.5-12 0 0 5.8 16.5 6.1 19.3.3 2.6 1.1 39.3 1.8 42.3 0 0 8.3 6.5 9.5 7.1 1.1.5 9.3-3.4 9.5-4.5.3-1.1-.8-13.5-4.7-34-1.5-7.3-.6-8.6-.6-10.6 0-2.1-.1-28.3-1.4-36.4"/><path id="prefix___x33_7" class="prefix__st9" d="M352.1 247c-1.2-8.1-5-14.9-5.2-15.5 0 0-3.9.8-10.7 1.5-6.9.7-8.8.4-11.8.2-3.1-.3-7.1-.8-7.1-.8s-1.2 2.5-1.4 5c-.3 5.3-2.2 28.3-2.5 34.5 0 0-.8 3.6-.8 12.6 0 9.8-2.7 29.7-2.7 40.3l2.7.5s14.8 1.1 14.8-.8c0-2.2.8-27.7-1.4-43.1 0 0 .5-3 1.4-5.6.8-2.5 4.5-10.3 4.5-12 0 0 5.8 16.5 6.1 19.3.3 2.6 1.1 39.3 1.8 42.3 0 0 8.3 6.5 9.5 7.1 1.1.5 9.3-3.4 9.5-4.5.3-1.1-.8-13.5-4.7-34-1.5-7.3-.6-8.6-.6-10.6 0-2.1-.1-28.3-1.4-36.4z"/><path id="prefix___x33_6" class="prefix__st9" d="M344.5 234c.3 1.4 2.3 7.5 7.3 11.1"/><path id="prefix___x33_5" class="prefix__st9" d="M337.2 235.1c1.1 3.6 5.6 23.2 6.5 46.5"/><path id="prefix___x33_4" class="prefix__st9" d="M338.1 283c.6 2.3 1.8 4.5 3.6 5.9"/><path id="prefix___x33_3" class="prefix__st9" d="M344 288.9c.3 2.2 1.4 18.4 1.7 21.3"/><path id="prefix___x33_2" class="prefix__st9" d="M346.5 313.3c.6 1.1 2.8 10.6 2.8 19.1"/><path id="prefix___x33_1" class="prefix__st9" d="M316.3 295.6c.2 2 1 16-3.6 28.7"/><path id="prefix___x33_0" class="prefix__st9" d="M331.7 236.2c.2 2.3.8 17.1.8 18.2 0 1.1-1.7 2.8-2.6 3.1 0 0 1.8.5 2 6.1"/><path id="prefix___x32_9" class="prefix__st9" d="M336.2 250.5c.2 1.8 1.9 8.8 3 11.6"/><path id="prefix___x32_8" class="prefix__st9" d="M325.8 236s-5 1-5.3 0c0 0-1.7 30.2-4 47"/><path id="prefix___x32_7" class="prefix__st9" d="M328.1 239.8c0 2 .5 16.9.5 16.9"/><path id="prefix___x32_6" class="prefix__st9" d="M326.1 258.9s-2 2.8-1.5 4.2"/><path id="prefix___x32_5" class="prefix__st9" d="M342.9 234.3c-1.7.5-3 .8-3 .8"/><path id="prefix___x32_4" class="prefix__st9" d="M334.5 236.8c.2.8.5 4.7.5 4.7"/><path id="prefix___x32_3" class="prefix__st9" d="M326.1 281.3c-.6.8-1.5 2-.8 4.5"/><path id="prefix___x32_2" class="prefix__st34" d="M347.7 231.3s0-3.3-1.3-5c0 0-3.5.7-8.5 1.3-5.1.5-9.2.9-12.9.5-3.8-.4-7.6-1.4-7.6-1.4s-1 4.9-.5 5.6c0 0 4.1.8 8.5 1 4.6.3 12.2-.4 14.9-.8 3.3-.4 6.3-1 7.4-1.2"/><path id="prefix___x32_1" class="prefix__st9" d="M347.7 231.3s0-3.3-1.3-5c0 0-3.5.7-8.5 1.3-5.1.5-9.2.9-12.9.5-3.8-.4-7.6-1.4-7.6-1.4s-1 4.9-.5 5.6c0 0 4.1.8 8.5 1 4.6.3 12.2-.4 14.9-.8 3.3-.4 6.3-1 7.4-1.2z"/><path id="prefix___x32_0" class="prefix__st2" d="M344.4 231.7l-.5-5-1.1.1.3 5.2 1.3-.3"/><path id="prefix___x31_9" class="prefix__st9" d="M344.4 231.7l-.5-5-1.1.1.3 5.2 1.3-.3"/><path id="prefix___x31_8" class="prefix__st2" d="M321.9 227.5l-.2 5.6-1.3-.2.1-5.7 1.4.3"/><path id="prefix___x31_7" class="prefix__st9" d="M321.9 227.5l-.2 5.6-1.3-.2.1-5.7 1.4.3"/><path id="prefix___x31_6" class="prefix__st2" d="M337.9 227.5l.4 5.4h-.7l-.7-5.4h1"/><path id="prefix___x31_5" class="prefix__st9" d="M337.9 227.5l.4 5.4h-.7l-.7-5.4h1z"/><path id="prefix___x31_4" class="prefix__st10" d="M356.1 330c.2 1.4.8 3.2.9 5.6 0 .5.5 3.3-1 3.4-1 .1-1.5-2.9-1.5-2.9s1 3.3-.3 3.7c-1.8.4-2.1-3.6-2.1-3.6.3 1.1 1.6 4.1-.3 4.4-1.9.3-2.4-4-2.4-4s1.6 4.3-.2 4.4c-1.9.1-1.9-4.2-1.9-4.2s1 5.1-1.6 4.7c-1.4-.2-1.6-2-1.9-3-.4-1.6-1.5-3.5-.3-6.8.8-2.4.5-3 .5-3s3 2.2 5.2 3.6c1.2.7 6.9-2.3 6.9-2.3"/><path id="prefix___x31_3" class="prefix__st9" d="M356.1 330c.2 1.4.8 3.2.9 5.6 0 .5.5 3.3-1 3.4-1 .1-1.5-2.9-1.5-2.9s1 3.3-.3 3.8c-1.8.4-2.1-3.6-2.1-3.6.3 1.1 1.6 4.1-.3 4.4-1.9.3-2.4-4-2.4-4s1.6 4.3-.2 4.4c-1.9.1-1.9-4.2-1.9-4.2s1 5.1-1.6 4.7c-1.4-.2-1.6-2-1.9-3-.4-1.6-1.5-3.5-.3-6.8.8-2.4.5-3 .5-3s3 2.2 5.2 3.6c1.2.6 6.9-2.4 6.9-2.4z"/><path id="prefix___x31_2" class="prefix__st10" d="M325.6 325.5c.5-.3.5 1.9.6 2.9.1 1-.1 3.3-3.6 3.1-3.5-.3-7-1-9.2-.5-2.2.6-5.4.7-7.2.7-1.8 0-2.9-.2-3.6-.5-.7-.3-2.4.4-3.1.4s-1.9-1.1-1.8-1.9c.2-1.4 1.4-1.4 3.1-1.5 1.8-.2 4-.5 5.1-.9 1.1-.4 3.2-1.6 5.9-2.1 0 0 5 .2 6 .2 1 .1 7.2.4 7.8.1"/><path id="prefix___x31_1" class="prefix__st9" d="M325.6 325.5c.5-.3.5 1.9.6 2.9.1 1-.1 3.3-3.6 3.1-3.5-.3-7-1-9.2-.5-2.2.6-5.4.7-7.2.7-1.8 0-2.9-.2-3.6-.5-.7-.3-2.4.4-3.1.4s-1.9-1.1-1.8-1.9c.2-1.4 1.4-1.4 3.1-1.5 1.8-.2 4-.5 5.1-.9 1.1-.4 3.2-1.6 5.9-2.1 0 0 5 .2 6 .2 1 .1 7.2.4 7.8.1z"/><path id="prefix___x31_0" class="prefix__st38" d="M169.7 332.9l-.2-4.8 2 1.7.5-3.6c.8-.2 2.2 1.5 2.2 1.5l-.2-3.6 3 3.3s-.2-2.8.8-4.5c0 0 2.3 2 2.3 4.3 0 2 2-2.8 2-2.8.5 1.7 1.7 5.3 1.7 5.3l1.4-2 1.1 4.2 2.5-3.6 2 4.3 4.5-.3.5 2.5 2-2.2 2.6 1.7s2.2-.6 3.3-.6c1.1 0 2.5 1.5 2.5 1.5s.8-1.5 1.7-2c.8-.5 2 .8 2.3 1.7l1.7-3s2.2 2.2 2.5 3c0 0 .3-2.5.8-3.3.5-.8 1.4.3 2 1.4l1.4-4.5s1.5.3 2.5 2c1.1 1.7 1.1-2.5 1.1-2.5s2.5 3.3 3.1 5.6c0 0-17.2 5.9-29.4 4.3-14.4-2.3-26.2-5-26.2-5"/><path id="prefix___x39_" class="prefix__st7" d="M169.7 332.9l-.2-4.8 2 1.7.5-3.6c.8-.2 2.2 1.5 2.2 1.5l-.2-3.6 3 3.3s-.2-2.8.8-4.5c0 0 2.3 2 2.3 4.3 0 2 2-2.8 2-2.8.5 1.7 1.7 5.3 1.7 5.3l1.4-2 1.1 4.2 2.5-3.6 2 4.3 4.5-.3.5 2.5 2-2.2 2.6 1.7s2.2-.6 3.3-.6c1.1 0 2.5 1.5 2.5 1.5s.8-1.5 1.7-2c.8-.5 2 .8 2.3 1.7l1.7-3s2.2 2.2 2.5 3c0 0 .3-2.5.8-3.3.5-.8 1.4.3 2 1.4l1.4-4.5s1.5.3 2.5 2c1.1 1.7 1.1-2.5 1.1-2.5s2.5 3.3 3.1 5.6"/><path id="prefix___x38_" class="prefix__st38" d="M288 332.3s.8-2.3 2-3.4c0 0 2.2 2.6 2.2 3.4 0 0 .6-.3 1.8-1.1l1.7 1.7 2-1.4 1.9 1.7 3.4-1.5 1.4 1.5 5.3-.6 2 .8 1.9-2.4 1.8 1.9 2.8-2.8s1.4 1.1 1.7 2c0 0 2.3-1.1 2.8-2 0 0 2.2-.8 2.5.5 0 0 1.4-1 1.2-2.2-.1-1.1 1.6-.3 2.1 1.1 0 0 .6-2.3 2.3-2.5 0 0 1.1 1.4.8 3.9 0 0 2.5-2 3.6-2.2 0 0 .5 2.8-.3 5.3 0 0 2.6-4.3 3.1-2.8.2.8.8 3.6.2 5.6l2.3-1.5.8 2.8 2.5-.5s-14.8 2.3-28.7.9c-14.1-1.2-27.1-6.2-27.1-6.2"/><path id="prefix___x37_" class="prefix__st7" d="M288 332.3s.8-2.3 2-3.4c0 0 2.2 2.6 2.2 3.4 0 0 .6-.3 1.8-1.1l1.7 1.7 2-1.4 1.9 1.7 3.4-1.5 1.4 1.5 5.3-.6 2 .8 1.9-2.4 1.8 1.9 2.8-2.8s1.4 1.1 1.7 2c0 0 2.3-1.1 2.8-2 0 0 2.2-.8 2.5.5 0 0 1.4-1 1.3-2.2-.1-1.1 1.6-.3 2.1 1.1 0 0 .6-2.3 2.3-2.5 0 0 1.1 1.4.8 3.9 0 0 2.5-2 3.6-2.2 0 0 .5 2.8-.3 5.3 0 0 2.6-4.3 3.1-2.8.2.8.8 3.6.2 5.6l2.3-1.5.8 2.8 2.5-.5"/><path id="prefix___x36_" class="prefix__st38" d="M273.8 340.8c7.5-4.2 11.3-8 14.3-12.9-3.1 2.2-2.2 1.8-3.6 1.6-1.5-.3-2.5-1.4-2.5-1.4s-1.4 1.6-3.1 1.4c-1.8-.3-3.3-1.4-3.3-1.4s-2.3 1.6-4.6 1.5c-1.8-.1-3.2-1.7-3.2-1.7s-4.1 1.4-4.9 1.4c-.9 0-3.9-1.4-3.9-1.4s-2 1.3-3.1 1.3c-1.2 0-4.6-1.5-4.6-1.5s-3.1.8-4.6.8c-1.5 0-3.6-.8-3.6-.8s-2.6 1.1-4.2.8c-1.5-.3-2.6-.8-2.6-.8s-2.9 1.1-4.7.8c-1.8-.3-3.9-1.5-3.9-1.5s-.3.8-3.7 1.5c0 0 1.7-.5-.1.1 3.1 4.4 8 8.9 12.4 11.8 3.3-.9 4.1-2 4.1-2s3 1.7 4.8 2c1.8.3 4.1-1.3 4.1-1.3s2 1 3.5 1.3c1.5.3 3.3-1 3.3-1s2.7 1 4.2 1 4.3-1 4.3-1 2.7 1.5 3.9 1.5c1.1 0 2.6-.9 2.6-.9s.5.9 2.7.8z"/><path id="prefix___x35_" d="M256.3 350.1c10.2-4.2 12-5.4 18.2-9.2-1.1 0-4.2-1-3.1-1.3 0 0-1.3 1.1-2.5 1.1-1.1 0-4.5-1.5-4.5-1.5s-3.1.8-4.6.8-3.6-.8-3.6-.8-2.7 1.1-4.2.8c-1.5-.3-2.6-.8-2.6-.8s-3 1.1-4.7.8c-1.8-.3-3.9-1.5-3.9-1.5s-2.6 1.4-4.2 1.5c5 3.8 10.2 7.4 19.7 10.1z" fill="#ffd800" stroke="#000" stroke-width=".363"/><path id="prefix___x34_" d="M288.6 327.9s-2.4 1.6-3.9 1.4c-1.5-.3-2.5-1.4-2.5-1.4s-1.4 1.6-3.1 1.4c-1.8-.3-3.3-1.4-3.3-1.4s-2.3 1.6-4.6 1.5c-1.8-.1-3.2-1.7-3.2-1.7s-4.1 1.4-4.9 1.4c-.9 0-3.9-1.4-3.9-1.4s-2 1.3-3.1 1.3c-1.3 0-4.6-1.5-4.6-1.5s-3.1.8-4.6.8c-1.5 0-3.6-.8-3.6-.8s-2.6 1.1-4.2.8c-1.5-.3-2.6-.8-2.6-.8s-2.9 1.1-4.7.8c-1.8-.3-3.9-1.5-3.9-1.5s-.3.8-3.8 1.5l-.1.1" fill="none" stroke="#000" stroke-width=".364"/><path id="prefix___x33__1_" class="prefix__st38" d="M277.7 342.7c.7-.4-4.7 11-17.6 11.6-18 .8-33.4-8.1-33.4-8.1s1.9-3.1 3-4c0 0 2.5 2 3.3 4.5 0 0 .3-1.7 1.1-3.1 0 0 3.1 1.5 3.6 3.4 0 0 1.1-2 2-2.5.8-.6 1.7 2.2 1.7 3.9 0 0 2-2.1 3.1-2.2 0 0 2.2 1 2.8 4.7 0 0 2.1-2 2.8-1.7 0 0 2.5 1.7 1.9 4-.3 1.3 2.5-1.5 5.9-2.3l3 2.3s2.8-3.7 3.6-5c0 0 2.3.8 2.3 2.2 0 0 1-4 1.9-4.4.8-.5 2 1.2 2 2.4 0 0 .3-3 2-3.6 0 0 1.7 1.1 1.7 2.3.1-.1 1.9-3.6 3.3-4.4z"/><path id="prefix___x32__1_" d="M305.8 220.2v56.6c0 11.3-1.6 56.1-49.7 73.5-48.2-17.4-49.8-62.2-49.8-73.5v-56.6h99.5" fill="none" stroke="#000" stroke-width=".606"/><path id="prefix___x31__1_" class="prefix__st7" d="M226.6 346.2s1.9-3.1 3-4c0 0 2.5 2 3.3 4.5 0 0 .3-1.7 1.1-3.1 0 0 3.1 1.5 3.6 3.4 0 0 1.1-2 2-2.5.8-.6 1.7 2.2 1.7 3.9 0 0 2-2.1 3.1-2.2 0 0 2.2 1 2.8 4.7 0 0 2.1-2 2.8-1.7 0 0 2.5 1.7 1.9 4-.3 1.3 2.5-1.5 5.9-2.3l3 2.3s2.8-3.7 3.6-5c0 0 2.3.8 2.3 2.2 0 0 1-4 1.9-4.4.8-.5 2 1.2 2 2.4 0 0 .3-3 2-3.6 0 0 1.7 1.1 1.7 2.3 0 0 1.8-3.4 3.1-4.3"/></svg>
