<svg xmlns="http://www.w3.org/2000/svg" height="512" width="512" viewBox="0 0 512 512"><style>.prefix__st0{fill:#fff}.prefix__st1{fill:#002d62}.prefix__st2{fill:#ce1126}.prefix__st5,.prefix__st6,.prefix__st7{fill:none;stroke:#000;stroke-width:.2619}.prefix__st6,.prefix__st7{stroke-width:.3168}.prefix__st7{fill:#eac102;stroke-width:6.394000e-02}.prefix__st16,.prefix__st8,.prefix__st9{fill:#ce1126;stroke:#000;stroke-width:.2359}.prefix__st16,.prefix__st9{fill:#002d62}.prefix__st16{fill:#fff;stroke-width:.1478}.prefix__st19{fill:#eac102}.prefix__st20{fill:#006300}.prefix__st21{fill:#ff0}.prefix__st23{fill:#008f4c}.prefix__st25{fill:none;stroke:#006300;stroke-width:.6268}.prefix__st26,.prefix__st28,.prefix__st29{fill:red;stroke:#006300;stroke-width:.3134;stroke-miterlimit:10}.prefix__st28,.prefix__st29{stroke-width:.338}.prefix__st29{stroke-width:.2458}.prefix__st30{fill:#00863d}.prefix__st31,.prefix__st33{fill:#ce1126;stroke:#000;stroke-width:.2662}.prefix__st33{stroke-width:.2153}.prefix__st35,.prefix__st36{fill:none;stroke:#000;stroke-width:.2167}.prefix__st36{stroke-width:.2106}</style><path class="prefix__st0" d="M-416.8-164.5H928.8v841H-416.8z"/><path class="prefix__st1" d="M-416.8-164.5h576.7v330.4h-576.7z"/><path class="prefix__st2" d="M-416.8 346.1h576.7v330.4h-576.7z"/><path class="prefix__st1" d="M352.1 346.1h576.7v330.4H352.1z"/><path class="prefix__st2" d="M352.1-164.5h576.7v330.4H352.1z"/><path class="prefix__st0" d="M221.7 213.7c.1.6 0 49.5 0 54.5 0 4.8.1 7.9 2.4 11 1.9 2.7 5.1 4.8 8.2 5.6 2.2.4 10.3.3 13.1.3 6.2-.3 7 1.1 9.3 4.2 2.7-4.3 5.6-4.4 11.2-4.2 2.8 0 8.8.2 11.3-.3 3-.7 5.3-2.1 7.2-4.5 3.2-3.6 3-8.2 3-12.9v-51.6c0-2.3-.3-1.7.9-3l7.8-8.2h-83l8.6 9.1z"/><path class="prefix__st1" d="M247.6 238v-33.3h-34.3l8.5 9 .1 24.3h25.7z"/><path class="prefix__st2" d="M261.4 238v-33.3h35l-8.9 9.6V238h-26.1zM247.6 251.7h-26l-.1 21c1.2 9.2 8 12.3 14 12.3 4.1 0 5.5 0 12-.1l.1-33.2z"/><path class="prefix__st1" d="M261.4 251.7h26.1l-.1 21c-.6 9.1-8 12.3-14 12.3l-12-.1v-33.2z"/><path d="M221.8 213.7c.1.6 0 49.5 0 54.5 0 4.8 0 7.8 2.4 11.2 1.9 2.7 4.6 4.8 8.1 5.3 2.2.4 10.3.3 13.1.3 3.6 0 5.3-.2 7.7 2.2.7.7.9 1.1 1.5 2 .3-.2.3-.3.5-.6.8-1.4 2.1-2.6 3.6-3.1 1.9-.8 5-.5 7.2-.5 2.8 0 8.8.2 11.3-.3 3-.7 5.6-2.6 7.2-4.5 3.2-3.6 3-8.2 3-12.9v-51.6c0-2.3-.3-1.7.9-3l7.8-8.2h-83l8.7 9.2h0z" fill="none" stroke="#000" stroke-width=".454"/><path d="M253.2 212.8v3.7h-3.8v3.2h3.8v13.4h3.1v-13.4h3.8v-3.2h-3.8v-3.7h-3.1z" fill="#eac102" stroke="#000" stroke-width=".273"/><g id="prefix__h"><path class="prefix__st0" d="M231.6 217.7v6.1l-2.6-2.6.4 43c0 6.4 4.6 11.6 10.3 11.6 5.6 0 10.2-5.1 10.3-11.4l-.4-22.1-2.8-2.9v-2.3l-15.2-19.4z"/><path class="prefix__st1" d="M231.6 217.9v6.1l-2.6-2.6.2 24.5 11.1 10.6.1-23.4-.4-.5v-3.9l-8.4-10.8z"/><path class="prefix__st2" d="M243.6 233.1l3.3 4.1v1.4l-3.3-3.4v-2.1zM249.7 242.4l.3 15.4c-1.6 3-4.8 1.4-4.8 1.4l.1-21.2 4.4 4.4z"/><path class="prefix__st1" d="M250 265.6c-4.2 3.1-5.4-1.5-5.4-1.5 3.2-.3 4.6-2.1 5.4-4v5.5z"/><path class="prefix__st2" d="M229.4 252.3c5.8 6.6 10.7 10.1 10.7 10.1 1.3 10.3 7.4 6.9 9.6 5.3-1.2 4.8-5.2 8.4-9.9 8.4-5.7 0-10.3-5.2-10.3-11.6l-.1-12.2z"/><path class="prefix__st5" d="M246.8 238.7v-1.6l-15.2-19.4v5.3l15.2 15.7z"/><path class="prefix__st6" d="M229.1 221.2l.4 43c0 6.4 4.6 11.6 10.3 11.6 5.6 0 10.2-5.1 10.3-11.5l-.4-22.1-20.6-21z"/><g><path class="prefix__st7" d="M237.4 213.9c-1-2-.8-2.8-.1-3.6l-3.9-4 1.1 5.7c1.1-.3 1.9 0 2.9 1.9zM233.3 206.3l4 7.6"/><path class="prefix__st7" d="M253.4 240.2l-1 .4-16-27.5.9-.5 16.1 27.6z"/><path class="prefix__st7" d="M235.8 213.1c-.1-.3.1-.7.6-1 .5-.3 1-.3 1.1 0 .1.3-.1.7-.6 1-.5.2-1 .2-1.1 0zM230.5 215.3c-1.3-1.8-1.2-2.7-.6-3.5l-4.4-3.5 1.8 5.5c1.1-.5 1.9-.3 3.2 1.5zM225.5 208.3l5 7"/><path class="prefix__st7" d="M249.6 239.2l-1 .5-19.4-25.1.9-.7 19.5 25.3z"/><path class="prefix__st7" d="M228.8 214.6c-.2-.2.1-.7.5-1 .4-.3.9-.4 1.1-.2.2.2-.1.7-.5 1-.5.4-1 .5-1.1.2zM229.3 220.8c-1.5-1.6-1.5-2.5-.9-3.4l-4.8-3 2.4 5.2c1-.5 1.9-.4 3.3 1.2zM223.6 214.4l5.7 6.4"/><path class="prefix__st7" d="M250.2 243l-22-22.7.8-.7 22.2 22.9-1 .5z"/><path class="prefix__st7" d="M227.6 220.4c-.2-.2 0-.7.4-1.1.4-.4.9-.5 1.1-.3.2.2 0 .7-.4 1.1-.4.4-.9.5-1.1.3z"/></g></g><g transform="matrix(-1 0 0 1 998.257 .07)"><g id="prefix__h_1_"><path class="prefix__st0" d="M278 217.8v6.1l2.6-2.6-.4 43c0 6.4-4.6 11.6-10.3 11.6-5.6 0-10.2-5.1-10.3-11.4l.4-22.1 2.8-2.9v-2.3l15.2-19.4z"/><path class="prefix__st1" d="M278 218v6.1l2.6-2.6-.2 24.5-11.1 10.6-.1-23.4.4-.5v-3.9L278 218z"/><path class="prefix__st2" d="M266.1 233.2l-3.3 4.1v1.4l3.3-3.4v-2.1zM260 242.5l-.3 15.4c1.6 3 4.8 1.4 4.8 1.4l-.1-21.2-4.4 4.4z"/><path class="prefix__st1" d="M259.6 265.7c4.2 3.1 5.4-1.5 5.4-1.5-3.2-.3-4.6-2.1-5.4-4v5.5z"/><path class="prefix__st2" d="M280.3 252.4c-5.8 6.6-10.7 10.1-10.7 10.1-1.3 10.3-7.4 6.9-9.6 5.3 1.2 4.8 5.2 8.4 9.9 8.4 5.7 0 10.3-5.2 10.3-11.6l.1-12.2z"/><path class="prefix__st5" d="M262.8 238.8v-1.6l15.2-19.4v5.3l-15.2 15.7z"/><path class="prefix__st6" d="M280.6 221.3l-.4 43c0 6.4-4.6 11.6-10.3 11.6-5.6 0-10.2-5.1-10.3-11.5l.4-22.1 20.6-21z"/><g><path class="prefix__st7" d="M272.3 214c1-2 .8-2.8.1-3.6l3.9-4-1.1 5.7c-1.1-.3-1.9 0-2.9 1.9zM276.3 206.4l-4 7.6"/><path class="prefix__st7" d="M256.3 240.3l1 .4 16-27.5-.9-.5-16.1 27.6z"/><path class="prefix__st7" d="M273.9 213.2c.1-.3-.1-.7-.6-1-.5-.3-1-.3-1.1 0-.1.3.1.7.6 1 .4.2.9.2 1.1 0zM279.2 215.3c1.3-1.8 1.2-2.7.6-3.5l4.4-3.5-1.8 5.5c-1.1-.4-1.9-.2-3.2 1.5zM284.2 208.4l-5 7"/><path class="prefix__st7" d="M260 239.3l1 .5 19.4-25.1-.9-.7-19.5 25.3z"/><path class="prefix__st7" d="M280.9 214.7c.2-.2-.1-.7-.5-1-.4-.3-.9-.4-1.1-.2-.2.2.1.7.5 1 .4.4.9.5 1.1.2zM280.3 220.9c1.5-1.6 1.5-2.5.9-3.4l4.8-3-2.4 5.2c-1-.5-1.8-.4-3.3 1.2zM286 214.5l-5.7 6.4"/><path class="prefix__st7" d="M259.5 243.1l22-22.7-.8-.7-22.2 22.9 1 .5z"/><path class="prefix__st7" d="M282.1 220.5c.2-.2 0-.7-.4-1.1-.4-.4-.9-.5-1.1-.3-.2.2 0 .7.4 1.1.4.4.9.5 1.1.3z"/></g></g></g><g><path class="prefix__st8" d="M251.6 258.7l-.9 13.6c-.9-.1-2.5-.2-2.6-1.3-.1-.6 1.7-11.7 1.8-12.8.6.2 1.2.4 1.7.5z"/><path class="prefix__st9" d="M250.3 258.2c-.1.5-.4 3.8-.3 4.2.3 1.3 1.9 1.1 2.7 1.2l.2-7c-.3.2-2.3 1.4-2.6 1.6z"/><path class="prefix__st9" d="M250.5 275.6c2.2-2.8 6.4-.7 6.4-.7 4.6 1 3.5-4.2 3.5-4.2-.9-10.5-2-17.7-2-17.7l-6.7 4.5-1.2 18.1z"/><path d="M250.4 275.7c-.5 3.1 2.6 2.7 2.6 2.7 3.7-.1 2.6-4 2.6-4-3.9-1.1-5.2 1.3-5.2 1.3h0z" fill="#002d62" stroke="#000" stroke-width=".188"/><path class="prefix__st8" d="M253.1 256.3c-.2 10.9-.3 12-.3 12 .2 3 3.4 1.4 3.4 1.4.8-.3 1.6-.1 1.6-.1l-.2-3.7c5.4-.4 4.2-3.6 4.2-3.6-2.2-10.3-2.4-9.8-2.4-9.8l-6.3 3.8z"/><path d="M257.8 265.8c-3.4-.1-4.8 1.3-4.8 1.3l-.1.3" fill="none" stroke="#000" stroke-width=".225"/><path d="M257.3 274.8l-1.2-20.4 2.4-1.6 2 19.1v.2h0c.1 3.5-3.2 2.7-3.2 2.7h0z" fill="#fff" stroke="#000" stroke-width=".209"/></g><g><path d="M240.2 242.1l9.1 16.8 19.7-13.1-10.3-15.1-18.5 11.4z" stroke="#000" stroke-width=".042"/><path d="M240.5 242l18.5-10.8 10.1 14.6-19.6 12.6-9-16.4z" fill="#fff" stroke="#000" stroke-width=".272"/><path d="M249.9 257.4l18.4-11.9-1.4-2.3-9.2-12.5-6.7 5.4-8.5 4.7-1.5-.9.3 2 8.6 15.5z" stroke="#000" stroke-width=".039"/><path class="prefix__st16" d="M250.9 236.2c-2.7-1.3-5.9 2.8-6.8 3.6-.9.8-2.7.3-2.7.3l8.3 14.9c2.5 1 4-2.2 5.2-3.1 2.1-1.8 4.5-1.6 4.5-1.6l-8.5-14.1z"/><path class="prefix__st16" d="M251.1 236.3c0-3.2 4-4.2 5-4.8 1.1-.6 1.4-2.6 1.4-2.6l9.3 14.2c-.2 2.8-3.5 3.1-4.8 3.8-2.4 1.3-2.7 3.4-2.7 3.4l-8.2-14z"/><path d="M249.3 255.1c-5.3-9.7-8.2-14.8-8.2-14.8-.1 1.8 0 1.7 0 1.7 6.2 10 8.7 15.4 8.7 15.4-.2-.8-.3-1.6-.5-2.3z" fill="#fff" stroke="#000" stroke-width=".105"/><path d="M243.7 242.1c.1.1.1.2.2.2l.1-.1v-.1c.1.1.1.2.2.3l-.1-.1h-.1c0 .1.1.1.1.2h.1c.1 0 .1-.1.1-.2v-.1c0 .1.1.1.1.2-.2.1-.3.2-.5.3.1 0 0-.1 0-.1-.1-.1-.2-.3-.3-.4h-.1c.2-.1.3-.2.5-.3 0 .1.1.1.1.2 0 0-.1 0-.1-.1-.1 0-.2.1-.3.1.1 0 0 0 0 0zM244.3 241.8c.1.2.2.4.3.5 0 0 .1.1.1 0-.1 0-.1.1-.2.1v-.1c0-.1-.1-.1-.1-.1-.1-.1-.1-.2-.2-.3 0 0-.1-.1-.1 0 0-.1.1-.1.2-.1zM245 241.3c0 .1.1.1.1.2H244.8v.2h.2c.1 0 .2 0 .2.1.1.1.1.2 0 .3 0 .1-.1.1-.2.1 0 0 0 .1-.1.1 0-.1-.1-.1-.1-.2h.1c.1.1.2.1.3 0 .1 0 .1-.2 0-.2h-.2c-.1 0-.2 0-.2-.1-.1-.1-.1-.2 0-.3 0-.1 0-.1.2-.2-.1.1 0 0 0 0-.1 0-.1 0 0 0zM245.6 241.6c0 .1 0 .1-.1.2-.1 0-.1 0-.1-.1s0-.1.1-.2l.1-.1s0-.1-.1-.1c0 0-.1 0-.1.1 0 0 .1 0 .1.1s-.1.1-.1 0v-.2c0-.1.1-.1.2-.1s.1 0 .1.1.1.1.1.2c0 0 .1 0 0 0v.1s-.1.1-.2 0c.1.1.1.1 0 0zm0 0l-.1-.1c0 .1-.1.1 0 .2 0 0 .1 0 .1-.1zM245.8 241s0 .1 0 0l.1-.1c.1 0 .1 0 .2.1s.1.2.2.2h.1c-.1 0-.1.1-.2.1v-.1c0-.1-.1-.1-.1-.2 0 0 0-.1-.1-.1s-.1 0-.1.1c.1.1.1.2.2.2h.1c-.1 0-.1.1-.2.1v-.1c0-.1-.1-.1-.1-.2l-.1-.1h-.1c0 .2.1.2.1.1z"/><path d="M246.2 240.6c0 .1.1.1.1.2 0 0 .1 0 .1-.1 0 0-.1 0-.1.1.1.1.1.2.2.3h.1c0 .1 0 .1-.1.2-.1 0-.1 0-.2-.1s-.1-.2-.2-.3h-.1v-.1c.2-.1.2-.2.2-.2zM246.6 240.5h.2c.1.1.1.1.1.2s0 .2-.1.2-.1.1-.2 0c0 0-.1-.2 0-.4zm.1 0c-.1 0 0 .1 0 .2s.1.1.1.2.1 0 .1-.1 0-.1-.1-.1c0-.1 0-.1-.1-.2zM244.4 243.3c.1.1.1.2.2.2l.1-.1v-.1c.1.1.1.2.2.3l-.1-.1h-.1c0 .1.1.1.1.2h.1c.1 0 .1-.1.1-.2v-.1c0 .1.1.1.1.2-.2.1-.3.2-.5.3.1 0 0-.1 0-.1-.1-.1-.2-.3-.3-.4h-.1c.2-.1.3-.2.5-.3 0 .1.1.1.1.2 0 0-.1 0-.1-.1-.1 0-.1 0-.3.1.1 0 .1 0 0 0zM245.4 243.5c-.1-.1-.2-.2-.4-.3h-.1c.1 0 .1-.1.2-.1 0 0 0 .1.1.1s.1.1.2.1v-.2s0-.1-.1-.1l.1-.1V243.5zM245.8 243.1c0 .1 0 .1-.1.2-.1 0-.1 0-.1-.1s0-.1.1-.2l.1-.1s0-.1-.1-.1c0 0-.1 0-.1.1 0 0 .1 0 .1.1s-.1.1-.1 0v-.2c0-.1.1-.1.2-.1s.1 0 .1.1.1.1.1.2c0 0 .1 0 0 0v.1s-.1.1-.2 0c0 .1 0 .1 0 0zm0 0l-.1-.1c0 .1-.1.1 0 .2 0 0 .1 0 .1-.1zM246 242.5s0 .1 0 0l.1-.1c.1 0 .1 0 .2.1s.1.2.2.2h.1c-.1 0-.1.1-.2.1v-.1c0-.1-.1-.1-.1-.2 0 0 0-.1-.1-.1s-.1 0-.1.1c.1.1.1.2.2.2h.1c-.1 0-.1.1-.2.1v-.1c0-.1-.1-.1-.1-.2l-.1-.1h-.1c0 .2 0 .2.1.1z"/><path d="M246.6 242.2l.1-.1c.1 0 0 0-.1.1.2 0 .2.1.2.2s-.1.1-.1.2c-.1 0 0 .1 0 .1.1 0 .1-.1.2-.1s.1 0 .1.1 0 .1-.1.2-.1.1-.2.1-.1-.1-.1-.1c-.1 0-.1 0-.1-.1v-.1h-.2c-.1-.1 0-.2 0-.2.2-.3.3-.3.3-.3zm-.1 0v.1l.1.1c.1 0 .1-.1 0-.1.1 0 0-.1-.1-.1.1 0 .1 0 0 0zm.3.5s-.1.1 0 .1.1 0 .2-.1l.1-.1c-.2 0-.2.1-.3.1zM247.3 242c-.1 0-.2.1-.2.1 0 .1.1.1.2.1s.1-.1.1-.1c0 .1 0 .1-.1.2-.1 0-.1.1-.2 0-.1 0-.1-.1-.2-.2 0-.1 0-.2.1-.3 0 0 .1 0 .3.2-.1-.1-.1 0 0 0zm-.2 0l-.1-.1c-.1 0-.1.1 0 .1v.1l.1-.1zM247.2 241.5c.1.2.2.4.3.5 0 0 .1.1.1 0-.1 0-.1.1-.2.1v-.1c0-.1-.1-.1-.1-.1-.1-.1-.1-.2-.2-.3 0 0-.1-.1-.1 0 .1-.1.2-.1.2-.1zM247.4 241.3h.1c0 .1 0 .1-.1.1v-.1zm.2.2c.1.1.1.2.2.3 0 0 .1.1.1 0-.1 0-.1.1-.2.1v-.1s0-.1-.1-.1c0-.1-.1-.1-.1-.2h-.1c.1.1.1 0 .2 0zM247.9 241.3h.2c.1.1.1.2.1.3 0 .1 0 .2-.1.2s-.1.1-.2 0-.2-.3 0-.5c-.1.1-.1 0 0 0zm0 0c-.1 0 0 .1 0 .2s.1.1.1.2.1 0 .1-.1 0-.1-.1-.1c.1 0 0-.1-.1-.2.1 0 0 0 0 0zM245.3 244.3c0 .1.1.1.1.2H245.1v.2h.2c.1 0 .2 0 .2.1.1.1.1.2 0 .3 0 .1-.1.1-.2.1 0 0 0 .1-.1.1 0-.1-.1-.1-.1-.2h.1c.1.1.2.1.3 0 .1 0 .1-.2 0-.2h-.2c-.1 0-.2 0-.2-.1-.1-.1-.1-.2 0-.3 0-.1.1-.1.2-.2 0 .1 0 0 0 0zM246 244.4c-.1 0-.2.1-.2.1 0 .1.1.1.2.1s.1-.1.1-.1c0 .1 0 .1-.1.2-.1 0-.1.1-.2 0-.1 0-.1-.1-.2-.2 0-.1 0-.2.1-.3.1.1.2.1.3.2zm-.1.1l-.1-.1c-.1 0-.1.1 0 .1v.1c0-.1 0-.1.1-.1z"/><path d="M246.2 244l.1-.1c0 .1 0 .1-.1.1.2 0 .2.1.2.2s-.1.1-.1.2c-.1 0 0 .1 0 .1.1 0 .1-.1.2-.1s.1 0 .1.1 0 .1-.1.2-.1.1-.2.1-.1-.1-.1-.1c-.1 0-.1 0-.1-.1v-.1h-.2c-.1-.1 0-.2 0-.2.2-.3.2-.3.3-.3zm-.1.1v.1l.1.1c.1 0 .1-.1 0-.1.1 0 0-.1-.1-.1.1 0 0 0 0 0zm.3.5s-.1.1 0 .1.1 0 .2-.1l.1-.1c-.2 0-.2 0-.3.1 0-.1 0 0 0 0zM246.8 243.6c.1.1.1.2.2.4h.1c-.1 0-.1.1-.2.1v-.1c0 .1 0 .1-.1.2-.1 0-.1 0-.2-.1s-.1-.2-.2-.3h-.1c.1 0 .1-.1.2-.1.1.1.1.2.2.3 0 .1.1 0 .1 0v-.1c0-.1-.1-.2-.1-.2h-.1c.1 0 .1 0 .2-.1zM247.1 243.5l.1-.1c.1 0 .1 0 .2.1s.1.2.2.2h.1c-.1 0-.1.1-.2.1v-.1c0-.1-.1-.1-.1-.2 0 0 0-.1-.1-.1s-.1 0-.1.1c.1.1.1.2.2.2h.1c-.1 0-.1.1-.2.1v-.1c0-.1-.1-.1-.1-.2l-.1-.1h-.1c0 .1 0 .1.1.1zM247.9 242.7c0 .1.1.1.1.2H247.7v.2h.2c.1 0 .2 0 .2.1.1.1.1.2 0 .3 0 .1-.1.1-.2.1 0 0 0 .1-.1.1 0-.1-.1-.1-.1-.2h.1c.1.1.2.1.3 0 .1 0 .1-.2 0-.2h-.2c-.1 0-.2 0-.2-.1-.1-.1-.1-.2 0-.3 0-.1.1-.2.2-.2zM248.6 243c0 .1 0 .1-.1.2-.1 0-.1 0-.1-.1s0-.1.1-.2l.1-.1s0-.1-.1-.1c0 0-.1 0-.1.1 0 0 .1 0 .1.1s-.1.1-.1 0v-.2c0-.1.1-.1.2-.1s.1 0 .1.1.1.1.1.2c0 0 .1 0 0 0v.1h-.2zm0-.1l-.1-.1c0 .1-.1.1 0 .2-.1 0 0 0 .1-.1zM248.8 242.4l.1-.1c.1 0 .1 0 .2.1s.1.2.2.2h.1c-.1 0-.1.1-.2.1v-.1c0-.1-.1-.1-.1-.2 0 0 0-.1-.1-.1s-.1 0-.1.1c.1.1.1.2.2.2h.1c-.1 0-.1.1-.2.1v-.1c0-.1-.1-.1-.1-.2l-.1-.1h-.1c-.1.2 0 .1.1.1zM249.3 241.8c.1-.1.2-.2.3-.2-.1 0-.1.1 0 .1.1.1.1.2.2.3 0 .1.1.1 0 .2 0 .1-.1.1-.2.2-.1 0-.1 0-.2-.1 0-.1 0-.1.1-.1s0 .1.1.1.1 0 .1-.1c-.1-.1-.1-.2-.2-.3 0-.1-.1-.1-.1-.2 0 0 0 .1-.1.1zM250.2 241.5c.1.1.1.2.2.4h.1c-.1 0-.1.1-.2.1v-.1c0 .1 0 .1-.1.2-.1 0-.1 0-.2-.1s-.1-.2-.2-.3h-.1c.1 0 .1-.1.2-.1.1.1.1.2.2.3 0 .1.1 0 .1 0v-.1c0-.1-.1-.2-.1-.2h-.1c.1-.1.1-.1.2-.1zM250.7 241.6c0 .1 0 .1-.1.2-.1 0-.1 0-.1-.1s0-.1.1-.2l.1-.1s0-.1-.1-.1c0 0-.1 0-.1.1 0 0 .1 0 .1.1s-.1.1-.1 0v-.2c0-.1.1-.1.2-.1s.1 0 .1.1.1.1.1.2c0 0 .1 0 0 0v.1s-.1.1-.2 0c.1 0 .1 0 0 0zm0 0l-.1-.1c0 .1-.1.1 0 .2 0 0 .1 0 .1-.1zM250.9 241l.1-.1c.1 0 .1 0 .2.1s.1.2.2.2h.1c-.1 0-.1.1-.2.1v-.1c0-.1-.1-.1-.1-.2 0 0 0-.1-.1-.1s-.1 0-.1.1c.1.1.1.2.2.2h.1c-.1 0-.1.1-.2.1v-.1c0-.1-.1-.1-.1-.2l-.1-.1h-.1c0 .2.1.1.1.1zM247.3 247.4c0 .1.1.1.1.2h-.4c-.1 0-.1.1-.1.2s.1.2.1.3c.1.1.1.1.2.1s.2-.1.2-.2v-.1.1c0 .1-.1.2-.2.2-.1.1-.2.1-.3 0-.2-.1-.3-.3-.2-.5.3-.1.4-.2.6-.3 0 .1 0 0 0 0zM248 247.5c-.1 0-.2.1-.2.1v.2c0 .1.1 0 .1 0-.1 0-.1.1-.2.1v-.1-.2c0-.2-.1-.4-.1-.5.2.1.4.3.5.4h.1c-.1 0-.1.1-.2.1v-.1c.1.1.1.1 0 0 .1 0 0 0 0 0zm0 0c-.1-.1-.2-.1-.3-.2v.3c.1 0 .2-.1.3-.1zM248.4 247.1c0 .1.1.1.1.2 0 0 .1.1.1 0-.1.1-.2.1-.3.2.1 0 .1-.1 0-.1-.1-.1-.2-.3-.3-.4 0 0-.1-.1-.1 0 .1-.1.2-.1.3-.2.1 0 .1-.1.2 0 .1 0 .1.2.1.3h-.1zm0 0c.1 0 .1 0 .1-.1s0-.2-.1-.2-.1 0-.2.1c.1 0 .1.1.2.2zM249.2 247c0 .1 0 .1 0 0-.1.1-.2.1-.2.2.1 0 .1-.1 0-.1-.1-.1-.2-.3-.3-.4 0-.1-.1-.1-.1 0 .1-.1.2-.1.3-.2-.1 0-.1.1 0 .1.1.1.2.3.3.4-.2.1-.1.1 0 0zM249.3 246.1l.1.1c0 .1 0 0-.1-.1 0 .1-.1.1-.1.1.1.2.2.3.3.5 0 0 .1.1.1 0-.1.1-.2.1-.3.2.1 0 0-.1 0-.1-.1-.2-.2-.3-.3-.5l-.1.1v.1s0-.1-.1-.1c.2-.1.4-.2.5-.3zM249.8 245.8l.2-.2c-.1 0 0 .1 0 .1.1.1.1.2.2.3 0 .1.1.1 0 .2 0 .1-.1.2-.2.2s-.2 0-.3-.1c-.1-.1-.1-.2-.2-.3 0 0 0-.1-.1-.1h-.1c.1-.1.2-.1.2-.2-.1 0 0 .1 0 .1.1.1.1.2.2.3 0 .1.1.1.2.1s.2-.1.2-.1v-.2c0-.1-.1-.2-.2-.3.1.3.1.2-.1.2.1 0 .1 0 0 0z"/><path d="M250.8 245.7c0 .1.1.1.1.2-.2.1-.3.2-.5.3.1 0 0-.1 0-.1-.1-.1-.2-.3-.3-.4 0 0-.1-.1-.1 0 .1-.1.2-.1.3-.2l-.1.1v.1c.1.1.2.3.2.4 0 .1.1 0 .1 0 .1 0 .1-.1.1-.1.2-.1.2-.2.2-.3z"/><path d="M250.9 245.1c.1-.1.3-.1.4.1.1.1.1.2.1.4s-.2.3-.4.3c-.1 0-.2-.1-.3-.2-.1-.1-.1-.2 0-.3.1-.2.2-.3.2-.3zm0 0c-.1 0-.1.1-.1.2s.1.2.1.3c.1.1.1.1.2.1s.2-.1.2-.2-.1-.2-.1-.3c-.1-.1-.1-.1-.2-.1h-.1zM252.1 244.3c.1 0 0 .1 0 0v.3c0 .2.1.4.1.6-.2-.1-.4-.3-.6-.4h-.1c.1 0 .1-.1.2-.1 0 0-.1 0 0 .1l.1.1c.1.1.2.2.4.2 0-.2-.1-.3-.1-.5 0-.1-.1-.1-.1-.1 0-.1.1-.1.1-.2zM252.8 244.7s0 .1 0 0c-.1.1-.2.1-.2.2.1 0 .1-.1 0-.1-.1-.1-.2-.3-.3-.4 0-.1-.1-.1-.1 0 .1-.1.2-.1.3-.2-.1 0-.1.1 0 .1.1.1.2.3.3.4-.1.1-.1.1 0 0z"/><path d="M253.1 244.5s0 .1 0 0c-.1.1-.2.1-.2.2.1 0 .1-.1 0-.1-.1-.1-.2-.3-.3-.4 0-.1-.1-.1-.1 0 .1-.1.2-.1.3-.2-.1 0-.1.1 0 .1.1.1.2.3.3.4-.1.1-.1.1 0 0zM253.4 244.3c0 .1 0 .1 0 0-.1.1-.2.1-.2.2.1 0 .1-.1 0-.1-.1-.1-.2-.3-.3-.4 0-.1-.1-.1-.1 0 .1-.1.2-.1.3-.2-.1 0-.1.1 0 .1.1.1.2.3.3.4-.1.1-.1.1 0 0 0 .1 0 .1 0 0zM248.1 249.9c0-.1 0-.2.1-.2 0 0 .1-.1.2 0 .1 0 .1.1.1.2v.1c.1 0 .2 0 .2.1.1.1.1.2 0 .3 0 .1-.1.1-.2.1 0 0-.1 0 0-.1h.2c.1 0 .1-.2 0-.2 0 0-.1-.1-.2-.1h-.1v-.1-.2c0-.1-.1-.1-.2 0-.1 0-.1.1-.1.1zM248.6 249.5c0-.1.1-.1.1-.2.1.2.2.4.3.5 0 0 .1.1.1 0-.1 0-.2.1-.2.1v-.1-.1c-.1-.1-.1-.2-.2-.4 0 .2 0 .1-.1.2zM249.6 248.8c.1 0 .1-.1.2-.1v.5c0 .1.1.1.1.2h.1c-.1.1-.2.1-.2.2.1 0 0-.1 0-.1l-.1-.1c-.1-.1-.3-.1-.4-.2h-.1c.1 0 .2-.1.2-.1 0 .1 0 .1.1.1s.2.1.2.1v-.3c0-.2-.1-.2-.1-.2zM250.7 248.9c0 .1-.1.1-.1.2-.1 0-.2 0-.2-.1-.1-.1-.1-.2 0-.3 0-.1.1-.1.2-.1 0-.1-.1-.1-.1-.2h-.1l.1-.1c.1.2.2.3.3.5 0 0 .1.1.1 0-.1 0-.1.1-.2.1zm0-.1c0-.1-.1-.1-.1-.2 0 0-.1-.1-.2 0-.1 0-.1.1 0 .2 0 .1.1.2.2.2 0 0 0-.1.1-.2 0 .1 0 0 0 0zM250.8 248.5c0 .1.1.1.2.1s.1 0 .2-.1v-.1.1c0 .1 0 .2-.1.2-.1.1-.2.1-.2 0-.1 0-.1-.1-.1-.2-.1-.1-.1-.2 0-.2s.1-.1.2 0l.1.1c-.1 0-.2.1-.3.1zm0 0c.1 0 .1-.1.2-.1l-.1-.1c-.1 0-.2.1-.1.2z"/><path d="M251.5 248.2v.2c0 .1-.1.1-.2.1s-.2-.1-.2-.2 0-.2.1-.3h.2v.1c-.1 0-.1-.1-.1-.1-.1 0-.1.1-.1.2s.1.2.2.2.1 0 .2-.1c-.1 0-.1-.1-.1-.1zM251.4 247.6c.1 0 .1.1 0 0 0 .1 0 0 0 0zm.2.2c.1.1.1.2.2.3 0 0 .1.1.1 0-.1 0-.1.1-.2.1v-.1s0-.1-.1-.1c0-.1-.1-.1-.1-.2h-.1c.1.1.1 0 .2 0zM252.1 247.9c0 .1 0 .1-.1.1h-.2v-.2c0-.1.1-.1.1-.1s0-.1-.1-.1-.1 0-.1.1v.1c0 .1-.1 0-.1 0 0-.1 0-.1.1-.2 0 0 .1-.1.2 0l.1.1c.1.1.2.1.1.2.1 0 .1-.1.1-.1v.1c.1.1 0 .1-.1 0 0 .1 0 0 0 0zm0 0c0-.1-.1-.1-.1-.2 0 .1-.1.1-.1.2s.1.1.1.1c.1 0 .1-.1.1-.1zM252.3 247.1c.1-.1.2-.1.2-.2 0 0-.1.1 0 .1.1.1.1.2.2.4 0 .1.1.1 0 .2 0 .1-.1.1-.1.1-.1 0-.1-.1 0-.1 0 0 .1.1.1 0v-.1c-.1-.1-.2-.3-.2-.4h-.2zM252.8 247.2c0 .1.1.1.2.1s.1 0 .2-.1v-.1.1c0 .1 0 .2-.1.2s-.1.1-.2 0c-.1 0-.1-.1-.1-.2-.1-.1-.1-.2 0-.2s.1-.1.2 0l.1.1c-.1 0-.2.1-.3.1zm0 0c.1 0 .1-.1.2-.1l-.1-.1c-.1 0-.1.1-.1.2z"/><path d="M253.3 246.7l.1.1h-.1-.2c0 .1 0 .1.1.1h.2c.1 0 .1.1.1.1 0 .1 0 .1-.1.2 0 0-.1 0-.1.1l-.1-.1H253.5v-.1h-.2c-.1 0-.1-.1-.1-.2 0-.2 0-.2.1-.2zM253.8 246.4c.1.1.1.2.2.3h.1l-.1.1v-.1c0 .1 0 .1-.1.2h-.2c0-.1-.1-.1-.1-.2 0 0 0-.1-.1-.1h-.1l.1-.1c.1.1.1.2.2.3 0 .1.1.1.1 0 0 0 .1-.1 0-.1 0-.1-.1-.2-.1-.2h-.1c.1 0 .2-.1.2-.1zM254.2 246.2l.1.1h-.1-.2c0 .1 0 .1.1.1h.2c.1 0 .1.1.1.1 0 .1 0 .1-.1.2 0 0-.1 0-.1.1l-.1-.1H254.4v-.1h-.2c-.1 0-.1-.1-.1-.2-.1-.2 0-.2.1-.2-.1 0-.1 0 0 0-.1 0 0 0 0 0zM254.9 246.2c0 .1 0 .1-.1.1h-.2v-.2c0-.1.1-.1.1-.1s0-.1-.1-.1-.1 0-.1.1v.1c0 .1-.1 0-.1 0 0-.1 0-.1.1-.2 0 0 .1-.1.2 0l.1.1c.1 0 .2.1.1.2.1 0 .1-.1.1-.1v.1h-.1zm0-.1c0-.1-.1-.1-.1-.2 0 .1-.1.1-.1.2s.1.1.1.1c.1 0 .1 0 .1-.1zM248.9 250.8l.3.6c0 .1.1 0 .1 0-.1 0-.1.1-.2.1v-.1s0-.1-.1-.1c-.1-.1-.2-.3-.2-.4 0 0-.1-.1-.1 0 .1 0 .1 0 .2-.1-.1 0-.1 0 0 0zM249.3 250.8h.2c.1 0 .2.1.2.2s0 .2-.1.2h-.2c-.1 0-.2-.2-.2-.3l.1-.1zm0 .1c-.1 0-.1.1 0 .2 0 .1.1.2.2.2h.2v-.2c-.2-.2-.2-.2-.4-.2.1-.1 0-.1 0 0z"/><path d="M249.8 250.5l.1.1h-.1-.2c0 .1 0 .1.1.1h.2c.1 0 .1.1.1.1 0 .1 0 .1-.1.2 0 0-.1 0-.1.1l-.1-.1H250v-.1h-.2c-.1 0-.1-.1-.1-.2s0-.1.1-.2zM250.1 250c.1 0 .1.1 0 0 0 .1 0 .1 0 0zm.2.2c.1.1.2.3.3.4 0 .1.1.2 0 .2 0 0-.1.1-.2.1s0-.1.1-.1c0 0 .1 0 .1-.1s-.1-.2-.2-.3c0-.1-.1-.1-.1-.2h-.1c0 .1 0 .1.1 0zM250.8 249.9c.1.1.1.2.2.3h.1l-.1.1v-.1c0 .1 0 .1-.1.2h-.2c0-.1-.1-.1-.1-.2 0 0 0-.1-.1-.1h-.1l.1-.1c.1.1.1.2.2.3 0 .1.1.1.1 0 0 0 .1-.1 0-.1 0-.1-.1-.2-.1-.2h-.1c.1 0 .1 0 .2-.1z"/><path d="M251.4 250.1c0 .1-.1.1-.1.2-.1 0-.2 0-.2-.1-.1-.1-.1-.2 0-.3 0-.1.1-.1.2-.1 0-.1-.1-.1-.1-.2h-.1l.1-.1c.1.2.2.3.3.5 0 0 .1.1.1 0-.1 0-.1.1-.2.1zm0-.1c0-.1-.1-.1-.1-.2 0 0-.1-.1-.2 0-.1 0-.1.1 0 .2 0 .1.1.2.2.2 0 0 0-.1.1-.2-.1.1-.1 0 0 0z"/><path d="M251.3 249.3c0-.1.1.1 0 0 0 .1-.1 0 0 0zm.1.2c.1.1.1.2.2.3 0 0 .1.1.1 0-.1 0-.1.1-.2.1v-.1s0-.1-.1-.1c0-.1-.1-.1-.1-.2h-.1c.2.1.2 0 .2 0zM251.7 249.3h.2c.1 0 .2.1.2.2s0 .2-.1.2h-.2c-.1 0-.2-.2-.2-.3l.1-.1zm.1 0c-.1 0-.1.1 0 .2 0 .1.1.2.2.2h.2v-.2c-.2-.1-.3-.2-.4-.2z"/><path d="M252.3 248.9l.1.1c-.1.1-.1 0-.1-.1-.1.1-.2.1-.2.2s.1.1.1.1h.2c.1 0 .1.1 0 .2 0 .1-.1.1-.2.1 0 0 0 .1 0 0l-.1-.1H252.4c0-.1 0-.1-.1-.1h-.2c-.1 0-.1-.1 0-.2 0-.1.1-.1.2-.2 0 .1-.1 0 0 0zM252.9 248.5c.1.2.2.4.3.5h.1c-.1 0-.1.1-.2.1v-.1c0-.1-.1-.1-.1-.2 0 .1 0 .1-.1.2-.1 0-.2 0-.2-.1-.1-.1-.1-.2-.1-.3.1 0 .2 0 .3-.1 0 .1 0 0 0 0zm.2.4c0-.1-.1-.1-.1-.2 0 0-.1-.1-.1 0-.1 0-.1.1 0 .2 0 .1.1.2.2.2-.1-.1 0-.1 0-.2zM253.4 248.2c.1.1.1.2.2.3h.1l-.1.1v-.1c0 .1 0 .1-.1.2h-.2c0-.1-.1-.1-.1-.2 0 0 0-.1-.1-.1h-.1l.1-.1c.1.1.1.2.2.3 0 .1.1.1.1 0 0 0 .1-.1 0-.1 0-.1-.1-.2-.1-.2h-.1c.1 0 .2 0 .2-.1zM253.7 248.3c0 .1.1.1.2.1s.1 0 .2-.1v-.1.1c0 .1 0 .2-.1.2s-.1.1-.2 0-.2-.1-.1-.2c-.1-.1-.1-.2 0-.2s.1-.1.2 0l.1.1c-.1 0-.2 0-.3.1zm0 0c.1 0 .1-.1.2-.1l-.1-.1c-.2 0-.2.1-.1.2-.1-.1 0-.1 0 0zM254.2 247.5l.3.6c0 .1.1 0 .1 0-.1 0-.1.1-.2.1v-.1s0-.1-.1-.1c-.1-.1-.2-.3-.2-.4 0 0-.1-.1-.1 0 .1-.1.1-.1.2-.1-.1 0 0 0 0 0zM254.6 247.7c0 .1.1.1.2.1s.1 0 .2-.1v-.1.1c0 .1 0 .2-.1.2s-.1.1-.2 0c-.1 0-.2-.1-.1-.2-.1-.1-.1-.2 0-.2s.1-.1.2 0l.1.1c-.2 0-.2.1-.3.1zm-.1 0c.1 0 .1-.1.2-.1l-.1-.1c-.1 0-.1.1-.1.2zM249.5 252c.1.1.1.2.2.3 0-.1 0-.1.1-.2.1 0 .1 0 .2.1s.1.2.2.2h.1c-.1 0-.1.1-.2.1v-.1-.1c0-.1-.1-.1-.1-.2s-.1 0-.1 0v.1c0 .1.1.2.1.2h.1c-.1 0-.1.1-.2.1v-.1l-.1-.1c-.1-.1-.1-.2-.2-.4h-.1v.1z"/><path d="M250.5 252.2c0 .1 0 .1-.1.1h-.2v-.2c0-.1.1-.1.1-.1s0-.1-.1-.1-.1 0-.1.1v.1c0 .1-.1 0-.1 0 0-.1 0-.1.1-.2 0 0 .1-.1.2 0l.1.1s.1.1.1.2c.1 0 .1-.1.1-.1v.1s-.1.1-.1 0zm-.1 0c0-.1-.1-.1-.1-.2 0 .1-.1.1-.1.2s.1.1.1.1c.1 0 .1-.1.1-.1zM250.6 251.7c0-.1 0-.2.1-.2s.2 0 .2.1c.1.1.1.2.1.3 0 .1-.1.2-.2.2h-.1c-.1-.2-.2-.3-.3-.5 0 0-.1-.1-.1 0l.1-.1.2.2zm0 .1c.1.1.1.2.2.2s.1 0 .2-.1c0-.1 0-.2-.1-.2 0-.1-.1-.1-.2-.1-.1.1-.1.1-.1.2zM250.8 251.2c.1-.1.2 0 0 0 0 .1 0 0 0 0zm.2.1c.1.1.1.2.2.3 0 0 .1.1.1 0-.1 0-.1.1-.2.1v-.1s0-.1-.1-.1c0-.1-.1-.1-.1-.2h-.1c.1.1.2.1.2 0 0 .1 0 .1 0 0z"/><path d="M251.6 251.5c0 .1 0 .1-.1.1h-.2v-.2c0-.1.1-.1.1-.1s0-.1-.1-.1-.1 0-.1.1v.1c0 .1-.1 0-.1 0 0-.1 0-.1.1-.2 0 0 .1-.1.2 0l.1.1c.1 0 .1.1.1.2.1 0 .1-.1.1-.1v.1s-.1.1-.1 0zm0 0c0-.1-.1-.1-.1-.2 0 .1-.1.1-.1.2s.1.1.1.1 0-.1.1-.1zM251.7 251c0-.1 0-.2.1-.2s.1 0 .2.1.1.2.1.2h.1c-.1 0-.1.1-.2.1v-.1c0-.1-.1-.1-.1-.2 0 0-.1 0-.2.1 0 0 0 .1 0 0 .1.1.1.2.2.3h.1c-.1 0-.1.1-.2.1v-.1c-.1 0-.1-.1-.1-.3-.1 0-.1 0-.1.1 0 0 0-.1.1-.1-.1 0 0 0 0 0zM252.7 250.6v.2c0 .1-.1.1-.2.1s-.2-.1-.2-.2 0-.2.1-.3h.2v.1c-.1 0-.1-.1-.1-.1-.1 0-.1.1-.1.2s.1.2.2.2.1 0 .2-.1c-.1 0-.1 0-.1-.1z"/><path d="M252.7 250.3c.1 0 .1 0 0 0 .1 0 .1 0 .1-.1 0 0 .1 0 .1.1h-.2l.1.1c0 .1.1.1.1.2h.1c-.1 0-.1.1-.2.1v-.1-.1c0-.1-.1-.1-.1-.2h-.1c.1.1.1 0 .1 0zM253.1 250.3c0 .1.1.1.2.1s.1 0 .2-.1v-.1.1c0 .1 0 .2-.1.2s-.1.1-.2 0-.2-.1-.1-.2c-.1-.1-.1-.2 0-.2s.1-.1.2 0l.1.1c-.1-.1-.2 0-.3.1zm0-.1c.1 0 .1-.1.2-.1l-.1-.1c-.1.1-.2.1-.1.2zM253.3 249.6c.1 0 .1.1 0 0 0 .1-.1 0 0 0zm.2.2c.1.1.1.2.2.3 0 0 .1.1.1 0-.1 0-.1.1-.2.1v-.1s0-.1-.1-.1c0-.1-.1-.1-.1-.2h-.1c.1.1.1 0 .2 0zM254.1 249.9c0 .1-.1.1-.1.2-.1 0-.2 0-.2-.1-.1-.1-.1-.2 0-.3 0-.1.1-.1.2-.1 0-.1-.1-.1-.1-.2h-.1l.1-.1c.1.2.2.3.3.5 0 0 .1.1.1 0-.1.1-.1.1-.2.1 0 .1 0 .1 0 0 0 .1 0 0 0 0zm0 0c0-.1-.1-.1-.1-.2s-.1-.1-.2 0c-.1 0-.1.1 0 .2 0 .1.1.2.2.2 0-.1.1-.1.1-.2z"/><path d="M254.2 249.3h.2c.1 0 .2.2.2.3 0 .1 0 .2-.1.2h-.2c-.1-.1-.2-.2-.1-.3v-.2zm0 .1c-.1 0-.1.1 0 .2 0 .1.1.2.2.2h.2v-.2c-.1-.2-.2-.2-.4-.2.1-.1.1 0 0 0zM252.9 236.9c0 .1.1.1.1.2h-.1c-.1-.1-.2 0-.2 0s0 .1.1.1h.3c.1 0 .1.1.1.2s-.1.2-.2.2c0 0-.1 0-.1.1 0-.1-.1-.1-.1-.2h.1c.1.1.2 0 .2 0 0-.1 0-.1-.1-.2h-.2c-.1 0-.1 0-.2-.1s0-.2 0-.2c.1-.1.2-.1.3-.1 0 0-.1 0 0 0zM253 236.7c.1 0 .1.1 0 0 0 .1 0 0 0 0zm.2.2c.1.1.1.2.2.3h.1c-.1 0-.1.1-.2.1v-.1-.1c0-.1-.1-.1-.1-.2h-.1c0 .1 0 0 .1 0zM253.5 236.7c.1 0 .1-.1.2-.1v.1c.1 0 .1.1.2.1v-.3h-.1s.1 0 .1-.1v.1c0 .1 0 .2.1.4-.2 0-.3-.1-.5-.2z"/><path d="M254 236.4h.2c.1 0 .1.1.1.2s-.1.2-.2.2-.2-.1-.2-.2 0-.2.1-.2zm0 0c-.1 0 0 .1 0 .2s.1.1.2.2c.1 0 .1 0 .1-.1s0-.1-.1-.2c0-.1-.1-.2-.2-.1zM254.5 236.1s0 .1.1.1c-.1 0-.1 0-.1-.1 0 .1-.1.1-.1.1 0 .1.1.1.1.1h.2c.1 0 .1.1.1.2s-.1.1-.2.1l-.1-.1H254.8c0-.1-.1-.1-.1-.1h-.2c-.1 0-.1-.1 0-.2-.1-.1-.1-.1 0-.1z"/><path d="M254.7 235.9h.2c.1 0 .1.1.1.2s-.1.2-.2.2-.2-.1-.2-.2c0 0 .1-.1.1-.2zm0 .1c-.1 0 0 .1 0 .2s.1.1.2.2c.1 0 .1 0 .1-.1s0-.1-.1-.2c0-.1-.1-.2-.2-.1zM255 235.6s0 .1.1.1c0 0 .1 0 .1-.1 0 0-.1 0-.1.1s.1.2.1.2h.1v-.1c0 .1 0 .1-.1.1s-.1 0-.1-.1-.1-.2-.1-.2h-.1v-.1c.1.2.1.2.1.1z"/><path d="M255.3 235.6l.1-.1c.1 0 .1.1 0 .1h-.1l.1.1c0 .1.1.1.1.2h.1c-.1 0-.1.1-.2.1v-.1c0-.1-.1-.1-.1-.2h-.1s0-.1.1-.1z"/><path d="M255.6 235.4h.2c.1 0 .1.1.1.2s-.1.2-.2.2-.2-.1-.2-.2 0-.1.1-.2zm0 0c-.1 0 0 .1 0 .2s.1.1.2.2c.1 0 .1 0 .1-.1s0-.1-.1-.2c0-.1-.1-.1-.2-.1zM256 235.1s0 .1.1.1l-.1-.1c0 .1-.1.1-.1.1 0 .1.1.1.1.1h.2c.1 0 .1.1.1.2s-.1.1-.2.1l-.1-.1H256.3c0-.1-.1-.1-.1-.1h-.2c-.1 0-.1-.1 0-.2-.1-.1 0-.1 0-.1zM253.2 238.3l.1-.1v.1c0-.1 0-.1.1-.2h.2c.1.1.1.2.1.3 0 .1-.1.1-.1.1l.1.1h.1c-.1 0-.1.1-.2.1v-.1c-.1-.1-.2-.2-.4-.3.1 0 .1 0 0 0zm.2 0c0 .1.1.1.1.2h.1v-.2c0-.1-.1-.1-.2-.1v.1zM253.8 238.1c0 .1.1.1.2.1s.1 0 .1-.1v-.1.1c0 .1 0 .1-.1.2h-.2c0-.1-.1-.1 0-.2-.1-.1-.1-.2 0-.2h.2s.1 0 .1.1c-.2 0-.3 0-.3.1zm0 0c.1 0 .1-.1.2-.1 0-.1-.1-.1-.2 0-.1 0-.1 0 0 .1zM254.1 237.7s0 .1 0 0l.1-.1c.1 0 .1.1 0 .1h-.1l.1.1c0 .1.1.1.1.2h.1c-.1 0-.1.1-.2.1v-.1c0-.1-.1-.1-.1-.2h-.1s0-.1.1-.1zM254.4 237.6c0-.1 0-.1.1-.2h.1c0-.1 0-.1.1-.2.1 0 .1 0 .1.1s.1.1.1.2h.1l-.1.1v-.1s0-.1-.1-.1l-.1-.1c0-.1-.1 0-.1.1v.1c0 .1.1.1.1.2h.1c-.1 0-.1.1-.2.1v-.1-.1l-.1-.1s-.1 0-.1.1c.1.1.1.2.1.2h.1l-.1.1v-.1s0-.1-.1-.1c0 0-.1 0 0-.1-.1 0-.1.1-.1 0h.1c-.1-.1-.1-.1 0 0zM255.2 237.4c0 .1 0 .1-.1.1s-.1-.1-.1-.1c0-.1.1-.1.1-.2s-.1-.1-.1 0v.2c-.1 0 0-.1 0-.2 0 0 .1-.1.2-.1l.1.1c-.1 0-.1.1-.1.2.1 0 .1 0 .1-.1 0 .1 0 .2-.1.1zm0 0l-.1-.1-.1.1s.1.1.2 0z"/><path d="M255.3 237c0-.1 0-.1.1-.2.1 0 .1 0 .1.1s.1.1.1.2h.1c-.1 0-.1.1-.2.1v-.1c0-.1-.1-.1-.1-.2.1 0 0 0-.1.1.1 0 0 0 0 0 .1.1.1.2.1.2h.1c-.1 0-.1.1-.2.1v-.1-.2c-.1 0-.1 0-.1.1 0-.1 0-.1.1-.1 0-.1 0-.1 0 0zM255.7 236.9c0 .1.1.1.2.1s.1 0 .1-.1v-.1.1c0 .1 0 .1-.1.2h-.2v-.2c-.1-.1-.1-.2 0-.2h.2s.1 0 .1.1c-.1 0-.2 0-.3.1zm0-.1c.1 0 .1-.1.2-.1 0-.1-.1-.1-.2 0v.1z"/><path d="M256.3 236.6v.2c0 .1-.1.1-.2.1s-.1-.1-.2-.2c0-.1 0-.2.1-.2h.2c0 .1-.1.1-.1 0s-.1 0-.1.1 0 .1.1.2c0 0 .1.1.1 0 .1-.1.2-.2.1-.2zM256.4 236.4c0 .1.1.1.2.1s.1 0 .1-.1v-.1.1c0 .1 0 .1-.1.2h-.2v-.2c-.1-.1-.1-.2 0-.2h.2s.1 0 .1.1c-.1 0-.2.1-.3.1zm0 0c.1 0 .1-.1.2-.1 0-.1-.1-.1-.2 0v.1zM256.7 236s0 .1 0 0l.1-.1c.1 0 .1.1 0 .1h-.1l.1.1c0 .1.1.1.1.2h.1c-.1 0-.1.1-.2.1v-.1c0-.1-.1-.1-.1-.2h-.1s.1 0 .1-.1zM257 236c0 .1.1.1.2.1s.1 0 .1-.1v-.1.1c0 .1 0 .1-.1.2h-.2v-.2c-.1-.1-.1-.2 0-.2h.2s.1 0 .1.1c-.1 0-.2.1-.3.1zm0 0c.1 0 .1-.1.2-.1 0-.1-.1-.1-.2 0v.1zM257.2 235.5c.1-.1.1 0 0 0 0 .1 0 0 0 0zm.1.1c.1.1.1.2.2.3h.1c-.1 0-.1.1-.2.1v-.1-.1c0-.1-.1-.1-.1-.2h-.1c.1.1.1.1.1 0zM257.7 235.4s0 .1.1.1c-.1.1-.1 0-.1-.1 0 .1-.1.1-.1.1 0 .1.1.1.1.1h.2c.1 0 .1.1.1.2s-.1.1-.2.1l-.1-.1H258c0-.1-.1-.1-.1-.1h-.2c-.1 0-.1-.1 0-.2-.2 0-.1 0 0-.1-.1 0-.1 0 0 0zM254 239.3c0 .1.1.1.2.1s.1 0 .1-.1v-.1.1c0 .1 0 .1-.1.2h-.2v-.2c-.1-.1-.1-.2 0-.2 0 0 .1-.1.2 0 0 0 .1 0 .1.1-.1 0-.2.1-.3.1zm0 0c.1 0 .1-.1.2-.1 0-.1-.1-.1-.2 0v.1z"/><path d="M254.3 239c0-.1 0-.1.1-.2.1 0 .1 0 .1.1s.1.1.1.2h.1c-.1 0-.1.1-.2.1v-.1c0-.1-.1-.1-.1-.2.1 0 0 0-.1.1.1 0 0 0 0 0 .1.1.1.2.1.2h.1c-.1 0-.1.1-.2.1v-.1c.1 0 0-.1 0-.2-.1 0-.1 0-.1.1 0-.1 0-.1.1-.1 0-.1 0-.1 0 0zM254.9 238.6c0-.1 0-.1.1-.2h.1c0-.1 0-.1.1-.2.1 0 .1 0 .1.1s.1.1.1.2h.1l-.1.1v-.1s0-.1-.1-.1l-.1-.1c0-.1-.1 0-.1.1v.1c0 .1.1.1.1.2h.1c-.1 0-.1.1-.2.1v-.1-.1l-.1-.1s0 .1-.1.1c0 0 0 .1 0 0 .1.1.1.2.1.2h.1l-.1.1v-.1s0-.1-.1-.1v-.1c-.1 0-.1.1-.1 0h.1zM255.4 238s.1.1 0 0c-.1.1-.1 0 0 0zm.1.2c.1.1.1.2.2.3h.1c-.1 0-.1.1-.2.1v-.1-.1c0-.1-.1-.1-.1-.2h-.1.1zM255.8 238l.1-.1v.1c0-.1 0-.1.1-.2h.2c.1.1.1.2.1.3 0 .1-.1.1-.1.1l.1.1h.1c-.1 0-.1.1-.2.1v-.1c-.2 0-.3-.1-.4-.3.1 0 0 0 0 0zm.1 0c0 .1.1.1.1.2h.1v-.2c0-.1-.1-.1-.2-.1.1 0 0 .1 0 .1zM256.6 237.9c0 .1 0 .1-.1.1s-.1-.1-.1-.1c0-.1.1-.1.1-.2 0 0 0-.1-.1-.1 0 0-.1 0-.1.1v.1s-.1 0-.1-.1.1-.1.1-.1h.1c.2.2.2.2.2.3.1 0 .1 0 .1-.1 0 .1 0 .2-.1.1 0 .1 0 0 0 0zm0 0l-.1-.1-.1.1c0 .1.1.1.2 0-.1.1 0 0 0 0z"/><path d="M256.5 237.3c.1.2.2.3.3.5h.1c-.1 0-.1.1-.2.1v-.1-.1c-.1-.1-.1-.2-.2-.3 0 0-.1-.1-.1 0l.1-.1zM257.1 237.6c0 .1 0 .1-.1.1s-.1-.1-.1-.1c0-.1.1-.1.1-.2 0 0 0-.1-.1-.1 0 0-.1 0-.1.1v.1s-.1 0-.1-.1.1-.1.1-.1h.1c.2.1.3.2.2.3.1 0 .1 0 .1-.1.1.1 0 .1-.1.1.1 0 .1 0 0 0zm0 0l-.1-.1-.1.1c.1 0 .1.1.2 0zM257.2 237.2c0-.1 0-.1.1-.2.1 0 .2 0 .2.1.1.1.1.2.1.2 0 .1-.1.1-.2.1h-.1c-.1-.1-.2-.3-.2-.4 0 0-.1-.1-.1 0 0 0 0-.1.1-.1 0 .1.1.2.1.3zm0 0c0 .1.1.1.1.2.1 0 .1 0 .1-.1s0-.1-.1-.2c.1 0 0 0-.1.1.1-.1 0 0 0 0zM257.6 236.9l.1-.1c.1 0 .1.1 0 .1h-.1l.1.1c0 .1.1.1.1.2h.1c-.1 0-.1.1-.2.1v-.1c0-.1-.1-.1-.1-.2h-.1c0-.1 0-.1.1-.1z"/><path d="M258.1 236.9c0 .1 0 .1-.1.1s-.1-.1-.1-.1c0-.1.1-.1.1-.2 0 0 0-.1-.1-.1 0 0-.1 0-.1.1v.1s-.1 0-.1-.1.1-.1.1-.1h.1c.2.2.3.2.2.3.1 0 .1 0 .1-.1.1.1 0 .2-.1.1.1.1 0 .1 0 0zm0 0l-.1-.1-.1.1c.1.1.1.1.2 0 0 .1 0 0 0 0zM254.7 240.1s0 .1.1.1c-.1 0-.1 0-.1-.1 0 .1-.1.1-.1.1 0 .1.1.1.1.1h.2c.1 0 .1.1.1.2s-.1.1-.2.1l-.1-.1H255c0-.1-.1-.1-.1-.1h-.2c-.1 0-.1-.1 0-.2-.1-.1-.1-.1 0-.1z"/><path d="M254.9 240.1c0 .1.1.1.2.1s.1 0 .1-.1v-.1.1c0 .1 0 .1-.1.2h-.2v-.2c-.1-.1-.1-.2 0-.2h.2s.1 0 .1.1c-.1 0-.2.1-.3.1zm0 0c.1 0 .1-.1.2-.1 0-.1-.1-.1-.2 0v.1zM255.2 239.7c0 .1 0 .1 0 0l.1-.1c.1 0 .1.1 0 .1 0 .1 0 0-.1 0l.1.1c0 .1.1.1.1.2h.1c-.1 0-.1.1-.2.1v-.1c0-.1-.1-.1-.1-.2h-.1s.1 0 .1-.1zM255.5 239.7c0 .1.1.1.2.1s.1 0 .1-.1v-.1.1c0 .1 0 .1-.1.2h-.2v-.2c-.1-.1-.1-.2 0-.2h.2s.1 0 .1.1c-.1 0-.2.1-.3.1zm0 0c.1 0 .1-.1.2-.1 0-.1-.1-.1-.2 0v.1z"/><path d="M255.7 239.2s.1.1 0 0c0 .1-.1 0 0 0zm.1.2c.1.1.1.2.2.3h.1c-.1 0-.1.1-.2.1v-.1-.1c0-.1-.1-.1-.1-.2h-.1.1zM256.1 239.1s0 .1.1.1c0 .1 0 0-.1-.1 0 .1-.1.1-.1.1 0 .1.1.1.1.1h.2c.1 0 .1.1.1.2s-.1.1-.2.1l-.1-.1H256.4c0-.1-.1-.1-.1-.1h-.2c-.1 0-.1-.1 0-.2-.1 0 0 0 0-.1zM256.4 239c.1 0 .1-.1.2-.1v.1c.1 0 .1.1.2.1v-.3h-.1s.1 0 .1-.1v.1c0 .1 0 .2.1.4-.2-.1-.3-.1-.5-.2.1 0 0 0 0 0zM256.9 238.8c0 .1.1.1.2.1s.1 0 .1-.1v-.1.1c0 .1 0 .1-.1.2h-.2v-.2c-.1-.1-.1-.2 0-.2h.2s.1 0 .1.1c-.1 0-.2.1-.3.1zm0 0c.1 0 .1-.1.2-.1 0-.1-.1-.1-.2 0v.1zM257.3 238.4c0 .1 0 .1 0 0l.1-.1c.1 0 .1.1 0 .1h-.1l.1.1c0 .1.1.1.1.2h.1c-.1 0-.1.1-.2.1v-.1c0-.1-.1-.1-.1-.2h-.1l.1-.1c-.1 0-.1 0 0 0z"/><path d="M257.8 238.5c0 .1-.1.1-.1.1-.1 0-.2 0-.2-.1v-.2c0-.1.1-.1.1-.1l-.1-.1h-.1s0-.1.1-.1c.1.1.2.3.3.4 0 0 .1.1.1 0 0 .1 0 .1-.1.1.1 0 .1 0 0 0 .1 0 .1 0 0 0zm0 0c0-.1-.1-.1-.1-.2 0 0-.1-.1-.2 0v.2c0 .1.1.1.2.1s.1-.1.1-.1zM258.2 238.3c0 .1 0 .1-.1.1s-.1-.1-.1-.1c0-.1.1-.1.1-.2 0 0 0-.1-.1-.1 0 0-.1 0-.1.1v.1s-.1 0-.1-.1.1-.1.1-.1h.1c.2.1.2.2.2.3.1 0 .1 0 .1-.1 0 .1 0 .1-.1.1zm0 0l-.1-.1-.1.1s.1.1.2 0zM258.6 238c0 .1-.1.1-.1.1-.1 0-.2 0-.2-.1v-.2c0-.1.1-.1.1-.1l-.1-.1h-.1s0-.1.1-.1c.1.1.2.3.3.4 0 0 .1.1.1 0 0 .1 0 .1-.1.1 0 .1 0 .1 0 0zm0 0c0-.1-.1-.1-.1-.2 0 0-.1-.1-.2 0v.2c0 .1.1.1.2.1l.1-.1z"/><path d="M258.7 237.7c0 .1.1.1.2.1s.1 0 .1-.1v-.1.1c0 .1 0 .1-.1.2h-.2s-.1-.1 0-.2c-.1-.1-.1-.2 0-.2h.2s.1 0 .1.1c-.2 0-.2.1-.3.1zm0 0c.1 0 .1-.1.2-.1 0-.1-.1-.1-.2 0-.1 0-.1.1 0 .1zM259 237.3s0 .1 0 0l.1-.1c.1 0 .1.1 0 .1h-.1l.1.1c0 .1.1.1.1.2h.1c-.1 0-.1.1-.2.1v-.1c0-.1-.1-.1-.1-.2h-.1l.1-.1z"/><path d="M259.5 237.4c0 .1 0 .1-.1.1s-.1-.1-.1-.1c0-.1.1-.1.1-.2 0 0 0-.1-.1-.1 0 0-.1 0-.1.1v.1s-.1 0-.1-.1.1-.1.1-.1h.1c.2.1.3.2.2.3.1 0 .1 0 .1-.1.1.1 0 .2-.1.1.1 0 0 0 0 0zm0 0l-.1-.1-.1.1c.1.1.1.1.2 0zM259.6 237c0-.1 0-.1.1-.2h.1c0-.1 0-.1.1-.2.1 0 .1 0 .1.1s.1.1.1.2h.1l-.1.1v-.1s0-.1-.1-.1l-.1-.1c0-.1-.1 0-.1.1v.1c0 .1.1.1.1.2h.1c-.1 0-.1.1-.2.1v-.1-.1l-.1-.1c.1 0 0 0-.1.1.1 0 .1 0 0 0 .1.1.1.2.1.2h.1l-.1.1v-.1s0-.1-.1-.1v-.1c-.1 0-.1.1-.1 0h.1c0-.1 0 0 0 0z"/><path d="M260.2 236.7c0 .1.1.1.2.1s.1 0 .1-.1v-.1.1c0 .1 0 .1-.1.2h-.2v-.2c-.1-.1-.1-.2 0-.2h.2s.1 0 .1.1c-.1 0-.2.1-.3.1zm0 0c.1 0 .1-.1.2-.1 0-.1-.1-.1-.2 0v.1zM260.6 236.4c0-.1 0-.1.1-.2.1 0 .1 0 .1.1s.1.1.1.2h.1c-.1 0-.1.1-.2.1v-.1c0-.1-.1-.1-.1-.2l-.1.1c.1.1.1.2.1.2h.1c-.1 0-.1.1-.2.1v-.1-.2c-.1 0-.1 0-.1.1 0-.1 0-.1.1-.1-.1-.1 0-.1 0 0zM260.9 236s0 .1.1.1c0 0 .1 0 .1-.1 0 0-.1 0-.1.1s.1.2.1.2h.1v-.1c0 .1 0 .1-.1.1s-.1 0-.1-.1-.1-.2-.1-.2h-.1v-.1c.1.2.1.1.1.1z"/><path d="M261.2 236.1c0 .1.1.1.2.1s.1 0 .1-.1v-.1.1c0 .1 0 .1-.1.2h-.2v-.2c-.1-.1-.1-.2 0-.2h.2s.1 0 .1.1c-.1 0-.2.1-.3.1zm0 0c.1 0 .1-.1.2-.1 0-.1-.1-.1-.2 0v.1zM255.2 241.2c0-.1 0-.1.1-.2h.1c0-.1 0-.1.1-.2.1 0 .1 0 .1.1s.1.1.1.2h.1l-.1.1v-.1s0-.1-.1-.1l-.1-.1c0-.1-.1 0-.1.1v.1c0 .1.1.1.1.2h.1c-.1 0-.1.1-.2.1v-.1-.1l-.1-.1s-.1 0-.1.1c.1.1.1.2.1.2h.1l-.1.1v-.1s0-.1-.1-.1v-.1c-.1 0-.1.1-.1 0h.1c-.1-.1 0-.1 0 0zM255.6 240.6c.1-.1.1 0 0 0 0 .1 0 0 0 0zm.2.1c.1.1.1.2.2.3h.1c-.1 0-.1.1-.2.1v-.1-.1c0-.1-.1-.1-.1-.2h-.1c0 .1 0 .1.1 0 0 .1 0 0 0 0zM256.1 240.5s0 .1.1.1c0 .1-.1 0-.1-.1 0 .1-.1.1-.1.1 0 .1.1.1.1.1h.2c.1 0 .1.1.1.2s-.1.1-.2.1l-.1-.1H256.4c0-.1-.1-.1-.1-.1h-.2c-.1 0-.1-.1 0-.2-.1 0-.1 0 0-.1zM256.8 240.5c0 .1-.1.1-.1.1-.1 0-.2 0-.2-.1v-.2c0-.1.1-.1.1-.1l-.1-.1h-.1s0-.1.1-.1c.1.1.2.3.3.4 0 0 .1.1.1 0 0 .1 0 .1-.1.1.1.1 0 .1 0 0 0 .1 0 .1 0 0zm0 0c0-.1-.1-.1-.1-.2 0 0-.1-.1-.2 0v.2c0 .1.1.1.2.1s.1 0 .1-.1zM256.7 239.9c.1-.1.1 0 0 0 0 .1 0 0 0 0zm.2.1c.1.1.1.2.2.3h.1c-.1 0-.1.1-.2.1v-.1-.1c0-.1-.1-.1-.1-.2h-.1c0 .1 0 .1.1 0 0 .1 0 0 0 0zM257.2 239.8s0 .1.1.1c0 .1-.1 0-.1-.1 0 .1-.1.1-.1.1 0 .1.1.1.1.1h.2c.1 0 .1.1.1.2s-.1.1-.2.1l-.1-.1H257.5c0-.1-.1-.1-.1-.1h-.2c-.1 0-.1-.1 0-.2-.1 0-.1 0 0-.1z"/><path d="M257.7 239.8v.2c0 .1-.1.1-.2.1s-.1-.1-.2-.2c0-.1 0-.2.1-.2h.2c0 .1-.1.1-.1 0s-.1 0-.1.1 0 .1.1.2c0 0 .1.1.1 0 .1 0 .1-.1.1-.2zM257.6 239.3c.1 0 .1.1 0 0 0 .1 0 .1 0 0zm.1.2c.1.1.1.2.2.3h.1c-.1 0-.1.1-.2.1v-.1-.1c0-.1-.1-.1-.1-.2h-.1c.1.1.1 0 .1 0zM257.8 239.5l.1-.1v.1c0-.1 0-.1.1-.2h.2c.1.1.1.2.1.3 0 .1-.1.1-.1.1l.1.1h.1c-.1 0-.1.1-.2.1v-.1c-.1-.1-.2-.2-.4-.3.1 0 .1 0 0 0zm.2 0c0 .1.1.1.1.2h.1v-.2c0-.1-.1-.1-.2-.1v.1zM258.2 238.9c.1 0 .1.1 0 0 0 .1 0 .1 0 0zm.2.2c.1.1.1.2.2.3h.1c-.1 0-.1.1-.2.1v-.1-.1c0-.1-.1-.1-.1-.2h-.1c0 .1 0 0 .1 0-.1 0-.1 0 0 0z"/><path d="M258.4 238.8c.1.2.2.3.3.5h.1c-.1 0-.1.1-.2.1v-.1-.1c-.1-.1-.1-.2-.2-.3 0 0-.1-.1-.1 0 .1 0 .1-.1.1-.1zM258.8 238.8h.2c.1 0 .1.1.1.2s-.1.2-.2.2-.2-.1-.2-.2 0-.1.1-.2zm0 0c-.1 0 0 .1 0 .2s.1.1.2.2c.1 0 .1 0 .1-.1s0-.1-.1-.2c0-.1-.1-.1-.2-.1zM259.3 238.5s0 .1.1.1c-.1 0-.1 0-.1-.1 0 .1-.1.1-.1.1 0 .1.1.1.1.1h.2c.1 0 .1.1.1.2s-.1.1-.2.1l-.1-.1H259.6c0-.1-.1-.1-.1-.1h-.2c-.1 0-.1-.1 0-.2-.1 0-.1 0 0-.1zM256.9 244.2v-.2s.1-.1.2 0c.1 0 .1.1.1.2.1 0 .1 0 .2.1s0 .2 0 .3l-.1.1c-.1 0 0-.1 0-.1.1 0 .1 0 .2-.1 0-.1 0-.1-.1-.2h-.2s.1-.1.1-.2-.1-.1-.2-.1c-.2.1-.2.2-.2.2z"/><path d="M257.8 244.1v.1c-.1.1-.2.1-.3.2v-.1c0-.1.1-.2 0-.3 0-.1-.1-.1-.1-.1-.1 0-.1.1-.1.2v-.2c0-.1.1-.1.2-.1s.1.1.1.2v.3l.2-.2c0 .1 0 0 0 0zM258 244.1c0-.1 0-.1 0 0 0 0-.1 0 0 0-.1 0-.1 0 0 0zM258.3 243.2c.1 0 .1-.1.2-.1v.4c0 .1.1.1.1.2h.1c-.1 0-.1.1-.2.1.1 0 0-.1 0-.1s0-.1-.1-.1c-.1-.1-.2-.1-.3-.2h-.1c.1 0 .1-.1.2-.1 0 0 0 .1.1.1s.1.1.2.1c-.1-.1-.1-.2-.2-.3.1 0 .1 0 0 0zM259.3 243.1v.2c0 .1-.1.1-.2.1s-.1-.1-.2-.2c0-.1 0-.2.1-.2h.2c0 .1-.1.1-.1 0s-.1 0-.1.1 0 .1.1.2c0 0 .1.1.1 0 .1 0 .1-.1.1-.2zM259.4 242.8h.2c.1 0 .1.1.1.2s-.1.2-.2.2-.2-.1-.2-.2 0-.2.1-.2c-.1 0-.1 0 0 0zm0 0c-.1 0 0 .1 0 .2s.1.1.2.2c.1 0 .1 0 .1-.1s0-.1-.1-.2-.2-.1-.2-.1z"/><path d="M259.7 242.6c0-.1 0-.1.1-.2.1 0 .1 0 .1.1s.1.1.1.2h.1c-.1 0-.1.1-.2.1v-.1c0-.1-.1-.1-.1-.2.1 0 0 0-.1.1.1 0 0 0 0 0 .1.1.1.2.1.2h.1c-.1 0-.1.1-.2.1v-.1-.2c-.1 0-.1 0-.1.1 0-.1 0-.1.1-.1 0-.1 0-.1 0 0z"/><path d="M260.1 242.3h.2c.1 0 .1.1.1.2s-.1.2-.2.2-.2-.1-.2-.2.1-.2.1-.2zm0 0c-.1 0 0 .1 0 .2s.1.1.2.2c.1 0 .1 0 .1-.1s0-.1-.1-.2c0-.1-.1-.1-.2-.1zM260.8 242.2v.2c0 .1-.1.1-.2.1s-.1-.1-.2-.2c0-.1 0-.2.1-.2h.2c0 .1-.1.1-.1 0s-.1 0-.1.1 0 .1.1.2c0 0 .1.1.1 0 .1-.1.1-.2.1-.2zM260.9 242c0 .1.1.1.2.1s.1 0 .1-.1v-.1.1c0 .1 0 .1-.1.2h-.2c0-.1-.1-.1 0-.2-.1-.1-.1-.2 0-.2h.2s.1 0 .1.1c-.2 0-.3.1-.3.1zm-.1 0c.1 0 .1-.1.2-.1 0-.1-.1-.1-.2 0v.1zM261.2 241.6s0 .1 0 0l.1-.1c.1 0 .1.1 0 .1h-.1l.1.1c0 .1.1.1.1.2h.1c-.1 0-.1.1-.2.1v-.1c0-.1-.1-.1-.1-.2h-.1l.1-.1c-.1 0-.1 0 0 0z"/><path d="M261.5 241.6c0 .1.1.1.2.1s.1 0 .1-.1v-.1.1c0 .1 0 .1-.1.2h-.2s-.1-.1 0-.2c-.1-.1-.1-.2 0-.2h.2s.1 0 .1.1c-.2 0-.3.1-.3.1zm-.1 0c.1 0 .1-.1.2-.1 0-.1-.1-.1-.2 0v.1zM261.6 241c.1 0 .1.1 0 0 0 .1 0 .1 0 0zm.2.2c.1.1.1.2.2.3h.1c-.1 0-.1.1-.2.1v-.1-.1c0-.1-.1-.1-.1-.2h-.1c0 .1 0 0 .1 0zM262.1 241s0 .1.1.1c0 .1 0 0-.1-.1 0 .1-.1.1-.1.1 0 .1.1.1.1.1h.2c.1 0 .1.1.1.2s-.1.1-.2.1l-.1-.1H262.4c0-.1-.1-.1-.1-.1h-.2c-.1 0-.1-.1 0-.2-.1 0 0 0 0-.1zM262.4 240.6c.1.2.2.3.3.5h.1c-.1 0-.1.1-.2.1v-.1-.1c-.1-.1-.1-.2-.2-.3 0 0-.1-.1-.1 0 0-.1 0-.1.1-.1zM263 240.9c0 .1 0 .1-.1.1s-.1-.1-.1-.1c0-.1.1-.1.1-.2s-.1-.1-.1 0v.2c-.1 0 0-.1 0-.2 0 0 .1-.1.2-.1l.1.1c-.1 0-.1.1-.1.2.1 0 .1 0 .1-.1 0 .1 0 .2-.1.1zm0 0l-.1-.1-.1.1s.1.1.2 0c-.1 0 0 0 0 0zM257.5 245.3c.1 0 .1-.1.2-.1v.1c.1 0 .1.1.2.1v-.3h-.1s.1 0 .1-.1v.1c0 .1 0 .2.1.4-.2 0-.3-.1-.5-.2.1 0 .1 0 0 0zM258.1 245.1c0 .1.1.1.2.1s.1 0 .1-.1v-.1.1c0 .1 0 .1-.1.2h-.2s-.1-.1 0-.2c-.1-.1-.1-.2 0-.2h.2s.1 0 .1.1c-.2 0-.3.1-.3.1zm-.1 0c.1 0 .1-.1.2-.1 0-.1-.1-.1-.2 0v.1z"/><path d="M258.4 244.8l.1-.1c.1 0 .1.1 0 .1h-.1l.1.1c0 .1.1.1.1.2h.1c-.1 0-.1.1-.2.1v-.1c0-.1-.1-.1-.1-.2h-.1c0-.1 0-.1.1-.1-.1 0-.1 0 0 0zM259 244.8c0 .1-.1.1-.1.1-.1 0-.2 0-.2-.1v-.2c0-.1.1-.1.1-.1l-.1-.1h-.1s0-.1.1-.1c.1.1.2.3.3.4 0 0 .1.1.1 0 0 .1-.1.2-.1.1 0 .1 0 .1 0 0 0 .1 0 .1 0 0zm0 0c0-.1-.1-.1-.1-.2 0 0-.1-.1-.2 0v.2c0 .1.1.1.2.1 0 0 .1 0 .1-.1zM259.3 244.6c0 .1 0 .1-.1.1s-.1-.1-.1-.1c0-.1.1-.1.1-.2 0 0 0-.1-.1-.1 0 0-.1 0-.1.1v.1s-.1 0-.1-.1.1-.1.1-.1h.1c.2.1.2.2.2.3.1 0 .1 0 .1-.1 0 .1 0 .2-.1.1zm0 0l-.1-.1-.1.1s.1.1.2 0zM259.7 244.4c0 .1-.1.1-.1.1-.1 0-.2 0-.2-.1v-.2c0-.1.1-.1.1-.1l-.1-.1h-.1s0-.1.1-.1c.1.1.2.3.3.4 0 0 .1.1.1 0 0 0 0 .1-.1.1zm0-.1c0-.1-.1-.1-.1-.2 0 0-.1-.1-.2 0v.2c0 .1.1.1.2.1 0 0 .1 0 .1-.1zM260 244.4v-.2s-.1 0-.1-.1.1-.1.1 0v.3zM260 243.7c.1 0 .1-.1.2-.1 0 0 0 .1.1.1s.1.1.2.1v-.3h-.1s.1 0 .1-.1V244c0 .1 0 .1-.1.2-.1 0-.1 0 0-.1 0 0 .1 0 .1-.1v-.1c-.2 0-.3-.1-.5-.2.1 0 .1 0 0 0zM260.6 243.1c.1.2.2.3.3.5h.1c-.1 0-.1.1-.2.1v-.1-.1c-.1-.1-.1-.2-.2-.3 0 0-.1-.1-.1 0l.1-.1zM261.2 243.4c0 .1 0 .1-.1.1s-.1-.1-.1-.1c0-.1.1-.1.1-.2 0 0 0-.1-.1-.1 0 0-.1 0-.1.1v.1s-.1 0-.1-.1.1-.1.1-.1h.1c.2.1.2.2.2.3.1 0 .1 0 .1-.1 0 .1 0 .1-.1.1zm0 0l-.1-.1-.1.1s.1.1.2 0zM261.4 242.9c.1 0 .1-.1.2-.1v.1c.1 0 .1.1.2.1v-.3h-.1s.1 0 .1-.1v.1c0 .1 0 .2.1.4-.2-.1-.3-.1-.5-.2zM261.9 242.7c0 .1.1.1.2.1s.1 0 .1-.1v-.1.1c0 .1 0 .1-.1.2h-.2v-.2c-.1-.1-.1-.2 0-.2h.2s.1 0 .1.1c-.1 0-.2 0-.3.1zm0 0c.1 0 .1-.1.2-.1 0-.1-.1-.1-.2 0v.1zM262.2 242.3s0 .1 0 0l.1-.1c.1 0 .1.1 0 .1h-.1l.1.1c0 .1.1.1.1.2h.1c-.1 0-.1.1-.2.1v-.1c0-.1-.1-.1-.1-.2h-.1l.1-.1zM262.8 242.4c0 .1-.1.1-.1.1-.1 0-.2 0-.2-.1v-.2c0-.1.1-.1.1-.1l-.1-.1h-.1s0-.1.1-.1c.1.1.2.3.3.4 0 0 .1.1.1 0 0 .1 0 .1-.1.1.1 0 0 .1 0 0zm0 0c0-.1-.1-.1-.1-.2 0 0-.1-.1-.2 0v.2c0 .1.1.1.2.1s.1-.1.1-.1zM263.2 242.2c0 .1 0 .1-.1.1s-.1-.1-.1-.1c0-.1.1-.1.1-.2 0 0 0-.1-.1-.1 0 0-.1 0-.1.1v.1s-.1 0-.1-.1.1-.1.1-.1h.2c0 .1.1.1.1.3.1 0 .1 0 .1-.1l-.1.1zm-.1-.1l-.1-.1-.1.1c.1.1.2.2.2 0 0 .1 0 .1 0 0zM263.6 241.9c0 .1-.1.1-.1.1-.1 0-.2 0-.2-.1v-.2c0-.1.1-.1.1-.1l-.1-.1h-.1s0-.1.1-.1c.1.1.2.3.3.4 0 0 .1.1.1 0 0 .1-.1.1-.1.1 0 .1 0 .1 0 0 0 .1 0 0 0 0zm-.1 0c0-.1-.1-.1-.1-.2 0 0-.1-.1-.2 0v.2c0 .1.1.1.2.1s.1-.1.1-.1zM263.9 241.3h.2c.1 0 .1.1.1.2s-.1.2-.2.2-.2-.1-.2-.2 0-.2.1-.2c-.1 0 0 0 0 0zm0 0c-.1 0 0 .1 0 .2s.1.1.2.2c.1 0 .1 0 .1-.1s0-.1-.1-.2-.1-.2-.2-.1zM264.3 241s0 .1.1.1l-.1-.1c0 .1-.1.1-.1.1 0 .1.1.1.1.1h.2c.1 0 .1.1.1.2s-.1.1-.2.1l-.1-.1H264.6c0-.1-.1-.1-.1-.1h-.2c-.1 0-.1-.1 0-.2-.1-.1 0-.1 0-.1zM258.1 246c.1.1.1.2.2.3 0-.1 0-.1.1-.2.1 0 .1 0 .1.1s.1.1.1.2h.1c-.1 0-.1.1-.2.1v-.1c0-.1-.1-.1-.1-.2s-.1 0-.1.1v.1c0 .1.1.1.1.2h.1c-.1 0-.1.1-.2.1v-.1s0-.1-.1-.1c-.1-.1-.1-.2-.2-.3h-.1c.2-.1.2-.1.2-.2zM258.9 246.2c0 .1 0 .1-.1.1s-.1-.1-.1-.1c0-.1.1-.1.1-.2 0 0 0-.1-.1-.1 0 0-.1 0-.1.1v.1s-.1 0-.1-.1.1-.1.1-.1h.1c.2.1.2.2.2.3.1 0 .1 0 .1-.1 0 .1 0 .2-.1.1 0 .1 0 0 0 0zm0 0l-.1-.1-.1.1c0 .1.1.1.2 0 0 .1 0 0 0 0zM259 245.8l.1-.1c.1 0 .1.1 0 .1h-.1l.1.1c0 .1.1.1.1.2h.1c-.1 0-.1.1-.2.1v-.1c0-.1-.1-.1-.1-.2h-.1c0-.1 0-.1.1-.1z"/><path d="M259.5 245.9c0 .1 0 .1-.1.1s-.1-.1-.1-.1c0-.1.1-.1.1-.2 0 0 0-.1-.1-.1 0 0-.1 0-.1.1v.1s-.1 0-.1-.1.1-.1.1-.1h.1c.2.1.2.1.2.3.1 0 .1 0 .1-.1 0 0 0 .1-.1.1zm0-.1l-.1-.1-.1.1c0 .1.1.2.2 0 0 .1 0 .1 0 0zM259.7 245c.1.2.2.3.3.5h.1c-.1 0-.1.1-.2.1v-.1-.1c-.1-.1-.1-.2-.2-.3 0 0-.1-.1-.1 0l.1-.1c0 .1 0 .1 0 0zM259.8 244.9c.1 0 .1.1 0 0 0 .1 0 .1 0 0zm.2.2c.1.1.1.2.2.3h.1c-.1 0-.1.1-.2.1v-.1-.1c0-.1-.1-.1-.1-.2h-.1c0 .1.1 0 .1 0zM260.2 245c0-.1 0-.1.1-.2.1 0 .2 0 .2.1.1.1.1.2.1.2 0 .1-.1.1-.2.1h-.1c-.1-.1-.2-.3-.2-.4 0 0-.1-.1-.1 0 0 0 0-.1.1-.1 0 .2.1.3.1.3zm.1.1c0 .1.1.1.1.2.1 0 .1 0 .1-.1s0-.1-.1-.2c0 0-.1-.1-.1.1 0-.1 0-.1 0 0zM260.6 244.7c0 .1 0 .1 0 0l.1-.1c.1 0 .1.1 0 .1h-.1l.1.1c0 .1.1.1.1.2h.1c-.1 0-.1.1-.2.1v-.1c0-.1-.1-.1-.1-.2h-.1s.1 0 .1-.1zM260.9 244.7c0 .1.1.1.2.1s.1 0 .1-.1v-.1.1c0 .1 0 .1-.1.2h-.2v-.2c-.1-.1-.1-.2 0-.2h.2s.1 0 .1.1c-.1 0-.2.1-.3.1zm0 0c.1 0 .1-.1.2-.1 0-.1-.1-.1-.2 0v.1zM261.3 244.3s0 .1.1.1l-.1-.1c0 .1-.1.1-.1.1 0 .1.1.1.1.1h.2c.1 0 .1.1.1.2s-.1.1-.2.1l-.1-.1H261.6c0-.1-.1-.1-.1-.1h-.2c-.1 0-.1-.1 0-.2-.1-.1 0-.1 0-.1zM261.7 244.5c0-.1 0 0 0 0 0 .1-.1 0 0 0-.1 0-.1 0 0 0z"/></g><g><path d="M234.9 178.5c-10.4-.2-20.9 2.2-29.7 7.6-4 2.5-5 3.3-2.8 7.3-.5.4-4.2 1.5-5.1 1.8-3.3 1.3-6.7 2.5-9.6 4.3-1.7 1-2.5 1.8-3.8 3.2l8.3-.6c-.3.5-.9 1.3-1.2 1.8-1.4 2.1-2.3 3.7-3.6 5.8 2.4-1.6 4.5-3.1 7.2-4.4 6-3 16.7-3.1 21.1-8.4 1.1-1.3.4-2.1-.5-4.3 3.3-1.1 4.5-1.8 8.4-2.7 9.6-2.1 16.2.4 20.8-.7 1.4-.4 2.9-1.2 3-2.7l-.7-4.8h15.5c0 2.7-2.6 6.2 2.2 7.5 4.4 1.1 13.2-1.4 20.8.8l8.4 2.7c0 .4-.6 1.5-.8 2-.4 1-.3 1.5.3 2.2.8.9 2 1.9 3.2 2.6 2.5 1.4 5.7 2.3 8.8 3.1 8.8 2.1 9.6 2.7 16.4 7.2-.4-1.3-3.7-6-4.7-7.7l8.3.7c-1.4-2.2-5.8-4.5-8.3-5.5l-10.1-3.7c.9-1.8 1.7-3.2.8-4.7-1.4-2.1-9.9-6.3-12-6.9-3.6-1-7.5-1.8-11.1-2.4-3.6-.6-10.5-1.1-10.5-1.1-.5-.5 1-3.3-1.3-5.2-1.3-1-3.2-1.4-5.1-1.6-7.7-.7-18.2-.5-26.1 0-2.3.1-3.8.4-5.1 1.6-1.3 1.5-1.5 2.4-1.4 5.2z" fill="#201b18"/><path class="prefix__st1" d="M237.1 184c1.1-1 1.3-1.3 3.1-1.9 4-1.3 10.3-1.2 14.5-1.2 3.4 0 6.8 0 10.1.3 3.4.3 5.4.8 7.7 2.7.4-2.4.9-4.4 1-7 .1-2.8-1.5-3.7-4-4.2-4.1-.9-11-.8-15.5-.7-2.9 0-13.2.1-15.3.9-1.9.7-3.4 2.2-3.3 4.8.2 1.1 1.2 5.4 1.7 6.3z"/><path class="prefix__st1" d="M206.8 197.4c.7-.6.2-1.3 3.5-3.1 4.1-2.3 9.9-4.4 14.6-5.3 4.1-.8 8.3-.8 12.6-.5 1.9.1 4.4.4 6.3.1 0 0 2-.5 2.6-1 .7-.7.7-2.2.7-2.2-1.4-1.1-5.3 2.7-8.8 1.5-1.1-.4-1.5-2.2-1.9-3.5l-1.1-4.4c-6.5-.8-17.6 1.8-23.6 4.4-2.7 1.2-7.2 3.5-8.9 5.2-1.5 1.5 0 3.7.9 4.9.9 1.5 2.3 3.1 3.1 3.9zM262.5 185.4c-.4 2.3 1.3 2.9 3.3 3.2 4.2.6 10.4-1.3 18.7.3 3.5.7 7 1.9 10.1 3.1 1.2.5 5.6 2.5 6.5 3.4l1.6 1.9c.4-.2 2.8-3.1 3.3-3.7.9-1.2 2.3-3.3.9-4.9-1.2-1.4-6.6-4.2-9-5.2-3.2-1.4-8.2-2.6-12.1-3.2-4-.7-11.9-1.3-11.9-1.3s-.5 7.4-2.5 8c-4 1.2-6-2.1-8.9-1.6z"/><path class="prefix__st1" d="M293.9 194.6c-.3 1.1-.8 1.2 1.3 3 4.9 4 13.1 4.2 18.3 6.4 2.6 1.1 4.1 2.1 6.4 3.5-.2-.7-3.2-5-4-6.1 2.3 0 5.3.2 7.6.3l-.3-.3c-3.5-3-12.3-5.8-16.7-7.3-1.3 1.5-2.5 2.9-3.9 4.4-.5.5-.9.9-2 .6-1.4-.4-2.4-1.6-3.3-2.3-.7-.8-2.4-2.1-3.4-2.2zM262.7 184.7c2.5.2 2.8.6 4.7 1.5.8.3 1.7.5 2.7.4 1.3-.1 1.5-.3 1.9-1.3.5-1.5-2-2.5-3.2-2.8l-5.5-.8-.6 3zM246.8 184.7l-.5-3c-1.6-.2-9.3 1.1-8.7 3.5.3 1.1.5 1.3 1.7 1.4 3.3.3 3.8-1.8 7.5-1.9zM207.4 197.9c1.1 2 4.1-1.6 5.8-2.8 1-.7 1.1-.7 2.2-1.2l-.6-1c-.9.2-3.3 1.5-4.2 2-1.3.7-2.7 1.6-3.2 3z"/><path class="prefix__st1" d="M294.1 193.9c.4.2.7.2 1.1.5 2.5 1.4 5.5 5.3 6.7 3.9.7-.9-2-2.7-2.8-3.2l-4.4-2.1c-.2.1-.5.5-.6.9zM215.5 194.7c.3 1.1.8 1.2-1.3 3-4.9 4-13.1 4.2-18.3 6.4-2.6 1.1-4.1 2.1-6.4 3.5.2-.7 3.2-5 4-6.1-2.3 0-5.3.2-7.6.3l.3-.3c3.5-3 12.3-5.8 16.7-7.3.5.5.8 1 1.3 1.5.5.6 2.1 2.4 2.6 2.9s.9.9 2 .6c1.4-.4 2.4-1.6 3.3-2.3.7-.8 2.3-2.1 3.4-2.2z"/><g><path class="prefix__st19" d="M216.7 183.4c-.7 0-1.3.3-2 .6-.2.1-.7.3-.3.4.3.1.3.5.5.8.2.5.3.9.5 1.4.2.8.5 1.5.8 2.3.1.2-.2.7.2.5.4-.2.8-.3 1.2-.5.6-.2 1.1-.6 1.4-1.1.1-.2.2-.5.2-.8.1-.2.1-.5 0-.7 0-.3-.1-.7-.2-1-.2-.4-.3-.8-.7-1.2-.3-.3-.6-.6-1-.7h-.6zm-.4.5c.5 0 .8.4 1 .8.2.4.4.8.5 1.2.2.6.4 1.3.3 1.9-.1.3-.4.6-.7.8-.3.2-.6-.1-.6-.4-.1-.3-.3-.6-.3-.9-.2-.5-.4-1.1-.6-1.7-.1-.4-.3-.7-.3-1.1-.1-.5.4-.6.7-.6zM219.1 182.5c.1.2.4.2.4.5.1.3.2.6.3 1 .1.3.1.5.2.8.1.3.2.7.3 1 .1.3.2.7.3 1 0 .3.2.6.1.8-.1.1-.1.3.1.2.3 0 .5-.2.8-.2.2-.1.5-.1.5-.2-.2-.1-.4-.2-.4-.5-.1-.4-.2-.8-.4-1.2-.1-.3-.2-.6-.3-.8-.1-.2-.1-.4-.2-.7-.1-.5-.3-.9-.4-1.4-.1-.2-.1-.4 0-.5.1-.3-.4 0-.5 0-.2 0-.5.1-.8.2zM223.7 181.2c-.4 0-.8.2-1.1.5-.3.4-.5.8-.5 1.3 0 .4-.1.9.1 1.3.1.7.5 1.3.9 1.8.3.3.6.5 1 .6.3.1.7.1 1 0 .5-.2.9-.6 1.1-1.2.1-.4.2-.7.2-1.1 0-.4-.1-.7-.2-1.1-.1-.4-.3-.8-.5-1.1-.2-.3-.5-.6-.8-.8-.4 0-.8-.2-1.2-.2zm0 .4c.5.1.8.5.9.9.3.6.4 1.2.6 1.9.1.3.1.5.1.8.1.4 0 .8-.1 1.1-.2.3-.7.4-1 .2-.3-.2-.4-.5-.6-.8-.1-.4-.3-.8-.4-1.2-.1-.3-.2-.6-.2-1-.1-.5-.2-1.1 0-1.6.1-.2.4-.3.7-.3zM227.4 180.8c-.2.3-.3.5-.4.8-.1.3 0 .6.1 1 .1.3.3.6.6.7.4.3.9.5 1.4.7.3.1.6.3.7.7.1.2.1.5 0 .7-.1.3-.4.5-.7.4-.3 0-.6-.1-.7-.3-.3-.2-.5-.6-.6-.9-.1-.2-.4 0-.3.2-.1.3-.1.6 0 .8.2.2.4.3.6.4.3.1.6.2.9.2.3 0 .6 0 .8-.2.3-.1.5-.3.7-.6.2-.4.3-.8.1-1.1-.1-.6-.5-1.1-1.1-1.3-.3-.2-.6-.3-.9-.4-.4-.2-.8-.4-.9-.8-.1-.3 0-.7.3-.8.3-.1.6 0 .9.2.2.2.3.4.4.6-.1.3.4.2.3-.1-.1-.3.3-.6-.1-.8-.3-.2-.6-.3-.9-.3-.3-.1-.7 0-1 .1 0 0-.1 0-.2.1zM244.9 173.9c-.5 0-.9.1-1.4.2-.2.1-.6 0-.7.2.2.2.3.4.3.7.1.4 0 .9.1 1.3 0 .3-.1.6.1.9 0 .5-.1.9.1 1.4 0 .3.1.6-.1.9-.3.2.2.3.3.2.3 0 .7-.1 1-.1.2-.1.1-.3 0-.3-.2-.3-.1-.7-.2-1.1v-.8c.3-.2.7-.1 1-.3.6-.1 1.2-.6 1.4-1.3.1-.6-.1-1.2-.6-1.6-.4-.2-.9-.3-1.3-.3zm-.1.5c.4-.1.7.3.8.7.1.3.1.6.1.9 0 .5-.4.8-.9.9-.2 0-.6.1-.5-.2 0-.4-.1-.7-.1-1.1 0-.3-.2-.7 0-1 .1-.3.4-.1.6-.2zM248.9 173.7c-.3-.1-.6.2-.5.5-.1.4-.1.7-.2 1.1-.1.5-.2 1-.3 1.6-.1.6-.2 1.3-.5 1.9 0 .2-.4.4-.2.5h1c.3-.1-.1-.3-.2-.5 0-.2 0-.5.1-.7 0-.1 0-.3.2-.2h1.2c0 .3.2.6.2 1-.1.2-.2.5.1.4.4 0 .8-.1 1.1-.1.3-.1-.1-.3-.1-.5-.2-.4-.3-.7-.4-1.1-.1-.5-.3-.9-.4-1.4-.1-.2-.1-.5-.2-.8-.2-.5-.3-1-.4-1.6 0-.2-.3-.1-.5-.1zm-.2 1.2c.2.7.4 1.4.6 2 .1.2-.1.4-.3.3-.2 0-.8.2-.8-.2.1-.3.1-.5.2-.8.1-.3.1-.7.2-1 0 0 .1-.1.1-.3zM253.3 173.5h-2c0 .2 0 .4-.1.6 0 .2-.1.4-.1.6.2 0 .3-.2.4-.3.2-.2.4-.5.7-.5.2 0 .4-.1.4.2 0 .3.1.5.1.8v3.6c0 .2-.2.2-.3.4.1.1.4 0 .5 0h.9c.1 0 .1-.2 0-.2-.1-.3-.1-.6-.1-.9 0-1.3-.1-2.6 0-3.9.2-.1.4-.2.5-.1.1.1.3.2.4.3.1.1.2.3.3.4 0 0 .3.2.2 0 0-.2-.1-.5-.1-.7 0-.2 0-.5-.3-.4-.3 0-.9.1-1.4.1zM257.7 173.4c-.4 0-.8.1-1.3.1-.1 0-.4 0-.2.2s.2.5.2.7v3.9c0 .2-.1.5-.3.6 0 .2.4 0 .6.1h1c0-.2-.3-.3-.2-.5v-1.8c.3-.1.5.1.5.4 0 .3.2.5.3.8.1.3.3.5.5.8.2.2.4.4.7.6.2.1.4.1.6.2 0-.2-.2-.4-.3-.6-.2-.4-.3-.8-.5-1.2-.1-.3-.2-.5-.2-.8-.2-.3.2-.2.3-.3.3-.2.5-.4.7-.7.2-.3.2-.6.1-1 0-.3-.2-.5-.4-.8-.2-.2-.4-.3-.7-.4-.3-.1-.6-.2-.9-.2-.2-.1-.3-.1-.5-.1zm.4.4c.3 0 .5.1.7.3.1.2.2.4.2.6v.7c-.1.3-.4.6-.7.6-.2 0-.5.1-.8 0-.1-.2 0-.4 0-.6v-1.5c.1-.1.3-.1.6-.1zM261.6 174.3c0 .2-.1.5-.1.7 0 .4 0 .9-.1 1.3-.1.7 0 1.4 0 2.2 0 .2-.1.4-.2.6-.1.1-.1.2 0 .1.2 0 .4 0 .6.1h.8c.3-.1-.1-.2-.1-.4-.1-.3-.1-.6 0-.9 0-.7 0-1.4.1-2v-1.2c.1-.2 0-.6.2-.8.1-.1.2-.2 0-.2-.3 0-.6 0-.9-.1-.1 0-.5-.1-.5.1s.2.3.2.5zM265.5 174.1c-.1.4-.3.9-.4 1.3-.1.3-.2.5-.3.8-.2.4-.3.9-.4 1.3-.2.5-.3 1.1-.7 1.6-.2.1-.2.4.1.3.3 0 .5.1.8.1.2.1.3-.1.1-.2-.2-.2-.3-.5-.1-.8 0-.3.3-.5.5-.4.3 0 .6.1.9.1 0 .3.1.6.1.9.1.2-.4.6 0 .6.3 0 .7.1 1 .1.2 0 .4 0 .2-.2-.2-.4-.2-.9-.3-1.4 0-.5-.2-1-.2-1.5-.1-.5-.2-1-.2-1.5 0-.3-.1-.5-.1-.7 0-.2-.1-.3-.3-.2-.3-.1-.5-.2-.7-.2zm.1 1.2c.2.3.1.7.2 1 .1.4.1.8.2 1.2.1.4-.4.2-.7.2-.2 0-.6 0-.4-.3.1-.2.1-.5.2-.7.1-.2.1-.4.2-.7.2-.2.1-.5.3-.7zM275.6 180.8c0 .2.4.3.3.6v1.8c0 .9.1 1.8 0 2.7 0 .1-.1.3-.2.4-.2.1.1.2.2.2.9 0 1.8-.1 2.7-.1.1-.4.2-.8.2-1.2 0-.2-.2-.1-.2 0-.2.3-.6.7-1 .7-.2 0-.5.1-.7-.1-.1-.2-.1-.5-.1-.7 0-1.2-.1-2.5 0-3.7 0-.3.1-.5.2-.7-.4.1-.9.1-1.4.1zM279.3 186.4h1.5c0-.3-.2-.1-.2-.5s0-4.3.1-4.6c.1-.5.2-.3.2-.5h-1.5c0 .4.2 0 .2.6v4.5c0 .3-.2.2-.3.5zM281.6 180.7c.1.2.3.4.2.6 0 .6-.1 1.2-.1 1.8 0 .7-.1 1.4-.1 2.2 0 .3 0 .5-.1.8-.1 0-.4.2-.1.3.6.1 1.2.1 1.8.2.4.1.9 0 1.3-.2.5-.4.7-1.1.5-1.7-.1-.3-.3-.5-.5-.7l-.5-.5c.5-.1.9-.4 1-.9.1-.4 0-.9-.3-1.1l-.3-.3c-.2-.1-.5-.3-.7-.3-.6-.2-1.4-.2-2.1-.2zm1.4.5c.3 0 .6 0 .8.2.4.4.3 1 .1 1.4 0 .2-.3.3-.4.4-.2.1-.5 0-.7 0-.1-.5.1-.9 0-1.4 0-.2 0-.4.2-.6zm-.3 2.4c.4 0 .9.1 1.2.4.3.3.2.8.2 1.2 0 .5-.5.9-1 .9-.3 0-.4-.2-.4-.5-.1-.6-.1-1.3 0-2zM285.3 186.8c.1.2.4.1.6.2.5.1.9.2 1.4.3.4.1.8.2 1.2.2.1-.3.3-.5.3-.9.2-.2-.2-.4-.3-.1-.4.3-.9.4-1.4.2-.3 0-.5-.3-.4-.6 0-.6.1-1.3.3-1.9.2-.1.4 0 .6.1.3.1.4.4.5.6.2.1.2-.3.2-.4 0-.4.1-.8.1-1.1-.3 0-.4.5-.8.3-.2-.1-.8 0-.6-.4 0-.4.2-.9.3-1.3.5-.2 1 .1 1.3.5.2.2.3.5.5.6.1-.4 0-.8 0-1.1-.1-.2-.5-.2-.7-.3-.7-.2-1.4-.4-2.1-.5-.4-.1.1.3 0 .5-.1.9-.3 1.7-.4 2.6-.1.7-.2 1.3-.3 2 0 .2-.1.4-.3.5zM290.1 182.3c.2.3.2.7.1 1-.2.8-.4 1.7-.5 2.5l-.3 1.5c0 .2-.6.4-.2.5.3.1.7.2 1.1.4.4 0-.1-.4 0-.6.1-.4.2-.7.2-1.1.1-.2 0-.6.3-.6s.2.4.2.6c.1.6.3 1.2.5 1.8.2.4.5.6.9.8.1-.2-.2-.6-.2-.9-.1-.4-.1-.8-.1-1.2v-.9c.3-.1.7-.2.9-.4.4-.4.5-1 .4-1.5-.1-.6-.5-1-1-1.3-.6-.3-1.3-.4-1.9-.6h-.4zm1.2.7c.4 0 .8.2.9.6.2.6.1 1.2-.2 1.7-.2.3-.6.3-.9.2-.3 0-.6-.1-.4-.4.1-.6.2-1.1.3-1.6.1-.2.2-.3.3-.5zM293.7 184.9c.3 0 .4-.3.7-.3.2-.1.5-.2.7 0 .2.2 0 .4 0 .6-.1.3-.2.7-.3 1-.2.8-.4 1.7-.6 2.6-.1.2-.1.5-.4.6-.1.3.4.3.5.4l.9.3c0-.2-.2-.4-.1-.7.1-.7.3-1.3.5-2l.6-2.4c.3-.1.6.2.7.5.1.3.2.5.3.8.2-.1.1-.4.2-.6 0-.2 0-.4.1-.6-.4-.2-.9-.3-1.3-.5-.3-.1-.6-.3-1-.4-.3-.1-.7-.3-1-.4-.2.3-.3.6-.5.9v.2zM299 185.9c-.2.1-.3.4-.4.6-.2.3-.4.5-.5.8-.5.7-.9 1.5-1.4 2.2-.2.3-.4.5-.7.7-.2.3.3.3.4.4.1.1.4.3.6.2 0-.3-.2-.5-.1-.8.1-.2.2-.7.5-.5.3.2.7.3.9.6.1.2-.1.5-.1.8.1.3-.4.5-.2.7.2.2.5.3.8.4.2.1.5.3.4 0 0-.4-.1-.7 0-1.1.1-.3.1-.6.1-.9 0-.4.1-.8.1-1.2.1-.7.1-1.3.2-2 0-.2.2-.6-.1-.7-.2 0-.3-.2-.5-.2zm-.4 1.2c0 .1.1.2.1.3-.1.7-.2 1.4-.2 2.1 0 .3-.4 0-.5-.1-.2-.1-.6-.2-.3-.5.2-.4.5-.7.7-1 0-.3.1-.6.2-.8zM302 187.8c-.1.3 0 .7-.3 1-.2.3-.3.6-.6.9-.2.4-.4.7-.6 1.1-.3.5-.6.9-.9 1.4-.2 0-.5.1-.2.3.2.3.5.4.7.7l.9.9c.5.3 1.2.5 1.7.1l.7-.7c.2-.3.4-.7.5-1 .1-.5.2-1 .2-1.4-.1-.8-.4-1.5-1-2-.3-.3-.6-.6-1-.9.2-.2.1-.3-.1-.4zm1 1.4c.4.3.7.8.6 1.3 0 .8-.4 1.6-.9 2.2-.2.4-.5.9-1 1-.4.1-.8-.2-.9-.5-.2-.4.1-.7.3-1 .4-.7.9-1.4 1.2-2.1.1-.3.3-.6.6-.8 0-.1 0-.1.1-.1z"/></g></g><g><path class="prefix__st20" d="M236.2 308.5c1 .3 3.1 1.3 3.9 1.7 0 0 2.9 5.4 2.9 5.3 1.1.8.9.6 2.1.9l-6.8 2.8c-2 .7-1.2 2.5-.3 2.8 1 .3 3.1-.6 3.9-.9 3.4-1.6 6.4-3.2 9.5-5.1.5-.3 2.7-1.9 3.2-1.8l12 6.8c.9.4 2.6 1.5 3.6.8.4-.3 1-.9.8-1.6-.2-.7-.7-.9-1.2-1.1-.9-.4-6.4-2.9-6.5-2.9l1.4-.4c.4-.3-.3-1.2.3-1l3-4.9 3.7-1.3c-.1-3.2-28.2-5.4-35.5-.1z"/><path class="prefix__st21" d="M238.1 320.1c-1 .3-.7 2.2 1.3 1.6 1.4-.5.3-2.1-1.3-1.6zM268 320.2c-.3.7-.3 1.1.4 1.4.7.3 1.2.3 1.7-.2.7-.6.1-.9-.4-1.2-.6-.3-.1-.3-.6-.2-.4.1-.7.1-1.1.2z"/><path d="M296.7 208.7c-.1.1-.2.1.1.5 2.5 5.1 1.6 2.7 3.7 9.3-.4-.4-.9-1.1-1.3-1.7a38.8 38.8 0 01-3-4.8c-.2-.5-.4-.6-.8-.9-.2.5.7 3.2.9 3.9.9 3.3 3.4 7 5.2 9.9-.5-.3-.8-.7-1.3-1.1-1.6-1.3-1.1-1-2.1-2.6-.9-1.5-1.6-3.2-2.2-4.9-.4-1.2-.9-2.3-1.4-3.4-.2.2 0-.2-.2.3-.1.5 0 1 .1 1.4.2 1.9.5 3.8.8 5.7-1.3-.5-2.5-1.4-3.8-2.1-.3-.1-.6-.4-.9-.5h-.4c-.3.7 2.2 2.9 2.6 3.2.6.5 3.1 2.2 3.3 2.8 1 2.3 1.9 4 3.4 5.9l1.3 1.7-2.9-2.9c-2.1-2-3-2.8-5.4-4.7 0 .7.9 1.3 1.3 1.7l3.7 4.1c1.2 1.5 2.5 2.8 3.5 4.4l2.3 3.9c-.3-.5-.9-1.3-1.3-1.8l-3.5-4.4c-1.2-1.5-2.6-2.5-4.2-3.8-1.3-1.1-2.2-1.8-3.8-2.4-.1.4.4.7.7 1 1.8 1.5 3.3 3.1 5 4.7.7.6 1.3 1.3 1.9 2 .6.7 1.2 1.3 1.8 2 1.1 1.5 2.1 3.1 3 4.7l1.4 2.5c-1.1-.4-6.2-6.3-7.5-7.5-1-1-1.5-1.6-2.7-2.3.1.6 3.6 4.6 4.4 5.5.4.4.5.6.8.9l1.6 1.8c1 1.2 2.9 3.4 3.6 4.8l1.1 2.2c0-.2-2.1-2.9-2.4-3.2-.4-.6-.8-1-1.3-1.6-1.2-1.3-3.1-3.4-4.4-4.4l-3.5-2c-.2.4.6.9 1 1.3l1.3 1.3c1.6 1.3 3.8 3.7 5 5.4.8 1 1.5 2 2.2 3-.4-.3-.8-.7-1.1-1-.5-.5-.7-.6-1.1-1-.7-.7-1.6-1.3-2.4-1.9l-5.7-2.8c.1.5 2 1.6 2.5 1.9 1.1.7 3 1.9 3.9 2.9.4.5.7.8 1.1 1.1.8.8 1.5 1.6 2.1 2.5.7 1 1.2 1.7 1.9 2.7.7 1 1.1 2 1.6 3.1l2 7.2c-.6-2.4-1.8-5-2.7-7.3-.7-1.8-2.1-6.1-4.4-5.3-.8.3-1.2 1.2-1.6 1.9-.5 1-1.2-.4-3 3.3-1 2-1.6 4.4-2.1 6.7-.1.4-.1.7 0 1.1.4-.2.8-1.4.9-1.9.9-2.2 1.8-3.5 3-5.6l-1.7 7.7c.6-.1.8-1.1 1-1.6.8-1.9 1.4-3.8 2.1-5.7 2.5 1.8 3.3 11.3 3.7 14.7-.3-1.2-1.2-3.7-1.8-4.9L299 261c-1.5.2-1.7 2.1-2 3.3-.4-.6-.9-1.6-1.9-1.5-.9 0-1.3 1.1-1.4 2.2-.1 1.1-.1 2.3 0 3.4 0 .2.3 2.5.4 2.6l.3.3.5-6.5c1 .5 2.8 4.7 2.6 6.4-1 6.3-1.6 8.3-4.9 13.5-.6.9-1.2 1.9-1.9 2.7-.3.5-.6.9-1 1.3l-1.1 1.2c1.7-3 2.5-4.2 3.7-7.6.9-2.6 1.6-5.3 2-8.1v-1.3c-.4.1-.4.6-.6 1-2.9 9.1-3.3 9.4-8.1 17.5l.9-5.2c-.4 0-.4.3-.5.8-.1.4-.3.6-.4 1-.7 2-1.3 3.9-2.4 5.7.1-.5.4-1.3.6-1.8.5-1.7.8-3.5 1.1-5.2v-1.2c-.5 0-.6 1-.8 1.6-.6 1.9-1.4 3.5-2.3 5.2v-.5c.2-1.1.5-2.9.3-4 0 0 .2.3-.1-.4-.4.1-.5 1-.6 1.4-.1.5-.3 1.1-.5 1.6-1.1 3.1-2.5 5.1-4.1 7.9-.9 0-.2.1.2.1-.1 0-.2-.1-.2-.1.6.1.5.1.2.1 1.3.3 8.9 1.8 8.9 1.8 4.4-.2 7.3-.5 11.6-.1.7 0 3.4.5 3.8.2-1.3-.7-2.5-1-3.9-1.5l-4.2-1 11.8-.3-1.1-.6c-1.9-.8-7.2-1.1-9.3-1.2 3.9-.4 6.8-.7 10.7-.7 1-.3 4.5.8 3-.7-1.4-1-5.8-1.1-7.3-1l7-.3c1.1-.3 8.3 1.4 5.8-.3-2-1-6.4-1.9-8.5-2.2 1.2-.7 2.4-1.4 3.7-2 2.7-1.1 5.6-1.9 8.4-2.7 3.1-.5 5.5-2 1.4-1.3-2.5.3-5.6 1-7.8 1.2l2-1.1c1.9-1 4.2-1.4 6.3-2.1.4-.1.3 0 .4-.4l-.3-.1c-.4 0-.8.1-1.2.2 1.3-.8 4.8-1.5 6.2-1.8 1.6-.4 3.2-.8 4.8-1.3.5-.1 1.1-.1 1.4-.5l-.3-.2c-.5-.2-9.1 1.1-10 1.3-.8.1-2.4.5-3.2.5 2.6-1.1 5.2-2.2 7.9-3 .5-.1 2.5-.5 2.8-.9-.5-.2-1-.1-1.7 0-2.6.4-5.1 1.1-7.5 1.9-.8.3-2 .7-2.8.9 8.8-3.4 5.5-2.4 13.6-4 .9-.2 1.7-.1 1.8-.7l-4.7-.3c-1.6 0-3.1.4-4.4.5l3.5-2.9c1-.8.5-1 2.2-1.1.7 0 2.7.1 3.1-.1-1.2-1.2-1.5-.6-2.7-1.2l1.4-1.7c.4-.5.7-.9 1-1.4.1-.3.1-.2 0-.4l-.6.1-3.6 3c-.6.5-.5.4-1.4.5-1.6.1-3.1.6-4.6.9 1.7-1.4 2.8-2.2 4.7-3.3.8-.5 1.7-1 2.6-1.5.7-.4 2.5-.9 2.6-1.4l-5.6 1.4c-1.1.4-4.2 1.9-4.8 2.4 2.5-2.8 6.3-5.9 9.2-8.2.4-.3 1.2-.7 1.4-1.1-.2-.1-.3-.1-.5-.1-1.6.3-5 2.7-6.2 3.4-2 1.3-4.2 2.8-5.9 4.3 1.1-1.1 2-2.2 3.2-3.2.3-.3.6-.6.9-.8l.8-.8c.6-.5 1.1-1 1.7-1.5 1.2-1 2.4-2 3.4-3.1l1.8-1.5c.4-.4 1.6-1.1 1.6-1.7-2.4 1.4-4.7 2.9-7 4.4-1.2.8-2.2 1.6-3.3 2.4-.8.5-2.6 2.1-3.2 2.4 1.4-2.2 2.8-4.5 4.6-6.4 2.2-2.4 4.9-4.9 7.4-6.9.7-.5 1.3-1.2 1.9-1.7v-.2c-.6 0-2.5 1.4-2.9 1.7-2.7 2-5.3 4.1-7.5 6.4-.4.4-.7.8-1.1 1.2-1.2 1.1-2.3 2.5-3.2 3.9-1.2 1.8-2.6 3.7-3.7 5.6.8-3.4 3.2-6.1 5.1-8.2l4.3-4.7c.3-.3.5-.5.7-.9 2.8-3.1 4.2-5.5 4.8-9.2-.5.7-1.2 1.5-2.2 2.9-.3.4-.6.7-1 1.1l-8.6 9.9c.4-1.4 2.1-4.4 2.9-5.6 1.2-1.8 2.2-3.3 3.4-4.9.8-1.1 4.6-6.1 5.5-6.9l.4-.4c.1-.6.6-.9 1.2-1.4.7-.6.8-.9 1.7-1.4-.8-.8-3.8 1-4.3 1.4-3.8 2.6-6.5 6.1-9.2 9.7.4-1.9 2.6-7.5 3.7-9.1.9-1.2 1.7-2.7 2.6-3.8l2.5-3.9c-.6 0-1.2.9-1.6 1.3-.3.3-.4.5-.7.7-3.3 3.5-5.3 7.5-7.6 11.8.1-2.2 2.1-5.8 3.2-7.6 1.4-2.4 2.9-4.4 4.3-6.6-.8-.2-3.1 2.6-3.5 3.2-1 1.3-2 2.5-2.9 4-1.6 2.7-3.1 5.7-4.2 8.7l-.3.6c.2-2.9 3-9.7 4.3-11.9.8-1.3 1.6-2.4 2.4-3.5.4-.4.6-.8.9-1.2.6-.8 1.2-1.5 1.8-2.2l1.7-2.3c-1.1-.4-5.1 4.1-5.9 5.1-1 1.2-1.9 2.6-2.7 3.9.4-2.2 2.1-5.2 3.3-7 1.1-1.6 2.2-2.9 3.4-4.4.4-.5.7-.9 1-1.5-1.2-.2-6.3 5.8-7.4 7.1-.4.6-.8 1.1-1.2 1.7L313 233c-.1.2-.1.3-.3.5l-.3.5c.3-2.1 1.5-6.5 2.2-8.4.9-2.4 2.2-4.7 3.3-7.1-.9-.1-2.6 2.1-3 2.9l-2 3.8c.2-1.8 3-7.9 3.9-10.2-.5.1-.9.9-1.4 1.7-1.2 2-2.4 3.9-3.5 5.9.2-2 1.5-4.1 2.4-5.8-1.6.7-4.4 6.6-5.1 8.4-.3.8-.6 1.7-.8 2.5l-.3.9c-.1-4.5.8-9.1 1.5-13.5-.4.1-.5.5-.7 1-.2.4-.3.7-.5 1.1-.3.8-.6 1.6-.9 2.5l-1.3 5.4c-1.9-2.7-2.4-7.6-6.2-13.2-1.3-1.8-1.7-2-3.3-3.2h0zm2 53.5c1.6 4.3 2.2 5.8 3.3 10.4-.2.1-.3.2-.4.4-.2.5-.4 1.3-.7 1.9l-1.1-4c-.4-1.5.2-4.4-.3-4.9-.4.8-.3.9-.4 2.3-.3-.3-.5-1.2-.7-1.7-.9-2.4-1-1.7-.4-3.1.1-.3.4-1.1.7-1.3h0z" fill="#006300" stroke="olive" stroke-width=".255"/><path class="prefix__st23" d="M310.4 254.7c.6-6 8-20.1 10.1-20.5.3 0-2.4 4-4.3 7.9-1.9 3.9-4 9.1-4.6 11.5-.6 2.4-1.2 4.2-1.3 4.1-.1 0 0-1.4.1-3zM326.5 251c0 .1-1.4 1.4-3 2.9-5.6 5.2-12.1 14.4-15.1 21.7-3.2 7.9-2.4 5.9-1.4 2.1 2.4-8.3 9.1-18.8 15.2-23.9 2.1-1.7 4.3-3.2 4.3-2.8zM307.9 237.6c0-5.5.5-7.4 3.7-13.9 2-4.2 2.8-5.6 3-5.3.1.2 0 1-.4 1.7-1.9 3.6-4.9 13.8-5.4 18.3-.2 1.5-.4 2.8-.6 2.8-.3 0-.4-1.6-.3-3.6zM299 268.1c.4 4.2-.4 9.1-2.2 13.9-1.1 2.9-5.6 9.6-6.6 10.1-.5.2-.4-.1.8-1.4 4.7-5.5 7.7-13.7 7.8-21.2-.3-4.2 0-4.7.2-1.4z"/><path class="prefix__st23" d="M312.6 262.9c.6 1.9.7 6.4 0 8.7-1.7 5.6-5.7 9.7-11.4 11.7-1.1.4-2.1.7-2.2.6-.1 0 .8-.5 2-1.1 7.1-3.3 11.5-10.1 11.6-17.6 0-1.4-.3-2.1-.4-2.4-.1-.6-.3-1-.1-1.2.2.1 0-.1.5 1.3z"/><path class="prefix__st23" d="M328.1 274.9c-.1.1-3.2.6-6.9 1.3-3.7.6-8.5 1.5-10.6 2-3.3.7-3.9.8-4.1.5-.1-.2-.2-.4-.2-.5 0-.1 10-1.9 15.7-2.8 4.2-.6 6.4-.8 6.1-.5zM298.9 212.2c2.4 2.9 2.9 4.1 4.1 9 .8 3.1 1 4.2.7 4.1-.2-.1-.4-.5-.5-1.1-.6-2.7-3.4-9.5-5.1-12.1-.6-.9-1-1.7-.9-1.7.1 0 .8.8 1.7 1.8z"/><path class="prefix__st23" d="M296.3 215.7c1.1 3.6 1.9 4.7 5.3 8.3 2.2 2.3 3 3.1 3 2.8 0-.2-.2-.6-.6-1-2-1.9-6-8-7.3-10.8-.4-.9-.9-1.7-.9-1.7-.1 0 .1 1.1.5 2.4zM317.6 226.8c-3.8 3.4-9.9 14.5-9 16.2.1.3 1.7-2.3 3.4-5.6 1.7-3.4 4.2-7.5 5.4-9.2 1.3-1.7 2.2-3 2.1-3s-.9.7-1.9 1.6zM319.3 229.6c-4.2 3.8-11 16.1-10 18.1.2.3 1.9-2.5 3.8-6.3s4.7-8.3 6.1-10.2c1.4-1.9 2.5-3.3 2.4-3.3-.2-.1-1.2.8-2.3 1.7zM295.2 218.4c.7 3.7 1.2 4.9 4.2 9 1.9 2.6 2.5 3.4 2.7 3.2.1-.2-.1-.7-.5-1.1-1.7-2.2-5-8.7-5.9-11.7-.3-1-.6-1.8-.7-1.8-.2-.1-.1 1 .2 2.4z"/><path class="prefix__st23" d="M292.5 221c2.6 2.6 3.8 3.2 8.4 4.8 3 1 4 1.3 4 1 0-.2-.5-.5-1-.6-2.6-.8-9-4.1-11.4-6-.8-.6-1.5-1.1-1.6-1-.1 0 .6.8 1.6 1.8zM326.5 238.8c-5.7 4-15.9 17.8-15 20.3.1.4 2.7-2.8 5.6-7 2.9-4.3 7-9.3 9-11.4 2-2 3.5-3.6 3.4-3.6-.2-.2-1.5.7-3 1.7zM325.6 247.2c-2.5 5-12.1 14.6-14.1 14.1-.3-.1 1.9-2.5 4.8-5.2 3-2.8 6.5-6.5 7.9-8.4 1.3-1.8 2.5-3.2 2.5-3.1 0 .1-.5 1.3-1.1 2.6zM291.9 281.8c-1 4.9-7.1 15.6-9 15.6-.3 0 1-2.6 3-5.7s4.1-7.2 4.9-9.2c.7-1.9 1.4-3.4 1.4-3.3.1.2-.1 1.4-.3 2.6zM307.5 252.1c-1-3.2-3.8-7-7.7-10.4-3.9-3.5-5.1-4.1-1.7-.8 3.2 3 7.1 8.4 8.6 11.6.6 1.3 1.2 2.3 1.3 2.2.2 0 0-1.2-.5-2.6zM310.5 292.3c-4.4-1.3-15.7-1.2-16.6.2-.1.2 2.5.3 5.9.1 3.4-.2 7.7-.1 9.6.2 1.9.2 3.3.4 3.3.3-.1-.1-1.1-.4-2.2-.8zM305.7 294.3c-4.4-1.1-15.7-.5-16.6.9-.1.2 2.5.2 5.9-.1 3.4-.3 7.7-.4 9.6-.2 1.9.2 3.3.2 3.3.2-.1-.2-1.1-.5-2.2-.8zM300.7 296.7c-4.5-1-15.7-.1-16.5 1.3-.1.2 2.6.1 5.9-.3 3.4-.4 7.6-.6 9.6-.5 1.9.1 3.3.1 3.3.1-.1 0-1.1-.3-2.3-.6z"/><path class="prefix__st23" d="M297.8 299.5c-3.8-1.4-13.6-1.7-14.4-.4-.1.2 2.2.4 5.1.3 2.9 0 6.7.2 8.3.5 1.6.3 2.9.5 2.8.4l-1.8-.8zM315.3 285.6c-9.3 2.6-20.5 4.2-21.1 6.5-.1.3 4.1-.3 8.2-2 4.1-1.6 9.4-3.3 11.8-3.8 2.4-.4 4.3-1 4.2-1.2 0-.1-1.6.5-3.1.5zM327.4 279.7c-.1.1-3.8.8-8.2 1.5-4.4.7-10.1 1.8-12.6 2.4-3.9.8-4.6.9-4.9.6-.2-.2-.3-.5-.3-.5 0-.2 11.9-2.3 18.7-3.3 5-.8 7.7-1.1 7.3-.7z"/><path class="prefix__st23" d="M324.5 277.3c-.1.1-3.1 1-6.7 2s-8.3 2.4-10.3 3.1c-3.2 1-3.8 1.2-4 .9-.1-.2-.3-.4-.3-.4 0-.1 9.8-3 15.4-4.4 4-1.1 6.2-1.6 5.9-1.2z"/><path class="prefix__st23" d="M322.2 266.3c-6.4 2.6-19.2 13.9-18.9 16.5.1.4 3.2-2.1 6.9-5.6 3.7-3.5 8.7-7.6 11.2-9.2 2.4-1.5 4.2-2.8 4.1-2.8-.1 0-1.6.5-3.3 1.1z"/><path class="prefix__st23" d="M327 269.4c-6.4.4-20.9 6.9-21.3 9.6-.1.4 3.4-1 7.7-3.1 4.3-2.1 9.9-4.4 12.4-5.1 2.5-.7 4.5-1.3 4.4-1.4-.1-.1-1.5-.1-3.2 0z"/><path class="prefix__st23" d="M326.8 270.1c-16.3 13.7-25.5 20.4-28.8 19-.5-.2 6-3.9 11.6-7.5 5.5-3.5 12.2-8.6 14.9-11.1 2.6-2.6 4.7-4.4 4.7-4.2 0 .1-1.1 1.9-2.4 3.8zM309.3 274.4c3.3-5.4 4.9-6.9 12-11.3 4.5-2.8 6.1-3.7 6.1-3.3 0 .3-.6.9-1.4 1.4-4 2.3-13.1 10.4-16.3 14.5-1.1 1.4-2.1 2.4-2.2 2.3-.3 0 .6-1.6 1.8-3.6zM311.1 259c.6-6 10.8-26 13-26.3.3 0-2.4 4-4.3 7.9-1.9 3.9-4 9.1-4.6 11.5-.6 2.4-4.4 11.1-4.4 11-.2-.1.2-2.6.3-4.1zM306.8 235.9c-1.7-4.1-1.8-5.6-.5-11.4.8-3.7 1.2-4.9 1.5-4.7.2.1.3.7.1 1.4-.8 3.2-.8 11.6 0 15.1.3 1.2.4 2.2.3 2.2-.2.1-.8-1.1-1.4-2.6zM309.9 257.9c-.9-2.9-3.4-6.3-6.9-9.4-3.5-3.2-4.6-3.7-1.5-.7 2.9 2.7 6.4 7.5 7.7 10.4.5 1.2 1.1 2.1 1.2 2 .1 0-.1-1.1-.5-2.3zM294.2 262.5c3.2-11.6 5.8-9.6 5.8-9.6 7.1 6.7 3.6 29.5 3.6 29.5-.1-46.8-9.4-19.9-9.4-19.9z"/><path class="prefix__st23" d="M296.8 261.7c3.2-11.6 4.1-11.1 4.1-11.1 5.8 1.2 5.5 26.8 5.5 26.8-2.6-44-9.6-15.7-9.6-15.7zM293.7 270.7c-.1-8.3 1.5-7.1 1.5-7.1 4.7 4.2 6.5 20.5 6.5 20.5-7.3-32.8-8-13.4-8-13.4zM308.1 246.2c-1.4-4.5-5.4-9.9-10.9-14.8-5.5-5-7.2-5.8-2.4-1.1 4.5 4.3 10.1 11.9 12.1 16.4.9 1.8 1.7 3.3 1.9 3.2.2-.1-.1-1.8-.7-3.7z"/><path class="prefix__st23" d="M307.6 242.2c-1.1-3.4-4.2-7.6-8.4-11.4-4.3-3.8-5.6-4.4-1.8-.9 3.5 3.3 7.8 9.1 9.3 12.6.7 1.4 1.3 2.5 1.4 2.4.2.1 0-1.2-.5-2.7zM284.1 288.5c-.3 2.5-3 8.1-4 8.2-.1 0 .4-1.3 1.3-3 .9-1.6 1.8-3.8 2.1-4.8.3-1 .6-1.8.6-1.7.1 0 .1.6 0 1.3zM281.8 289.9c-.3 2.5-3 8.1-4 8.2-.1 0 .4-1.3 1.3-3 .9-1.6 1.8-3.8 2.1-4.8.3-1 .6-1.8.6-1.7.1.1 0 .7 0 1.3zM285.3 290.1c-.3 2.5-3 8.1-4 8.2-.1 0 .4-1.3 1.3-3 .9-1.6 1.8-3.8 2.1-4.8.3-1 .6-1.8.6-1.7.1.1.1.7 0 1.3z"/><path d="M199.2 226.2c0 1.3.4 1.6.9 2.4l.1-2.5c-.4-.2-.6 0-1 .1z" fill="#00873f"/><g><path class="prefix__st25" d="M195.7 244.5l-1.2-.9M196.9 237.3c-.9-1.3-1-1.3-1-1.3M193.5 254.1c-.3-2.9-2-3.7-2-3.7M206.8 290.8c-7.3-8-9.6-22.6-9.6-22.6 2.4-6.1 5.5-7.5 5.5-7.5M197.2 268.1c-2.4-9.4-1.8-19.1-1.8-19.1.8-12 4.6-22.6 4.6-22.6M195.3 252.3c1.9-8.8 9.2-7.7 9.2-7.7"/><path class="prefix__st25" d="M195.2 254c6.6-2.7 5.8-8.5 7-10.8 1.8-3.6 3.1-4.6 3.1-4.6M201.8 282.7c-2.2-5.7.4-6.7.4-6.7M200.9 280.9c-2.9-3.7-6.5-3.4-6.5-3.4M199.6 263.7c1.7-3.2-.1-6.4-.1-6.4M200.5 279.2l-5.1-6.6M198.4 231.6c.7-2.6-1.4-3.8-1.4-3.8"/><g transform="matrix(.1567 0 0 .1567 442.052 224.217)"><path id="prefix__b" class="prefix__st26" d="M-1562 17.9c0 4.4-3.6 8-8 8s-8-3.6-8-8 3.6-8 8-8 8 3.6 8 8z"/></g><g transform="matrix(.1567 0 0 .18128 444.567 235.353)"><path id="prefix__b_1_" d="M200.7 256.1c0 .8-.6 1.5-1.3 1.5-.7 0-1.3-.7-1.3-1.5s.6-1.5 1.3-1.5c.7 0 1.3.7 1.3 1.5z" fill="red" stroke="#006300" stroke-width="2"/></g><g transform="matrix(.1567 0 0 .1567 443.685 248.32)"><path id="prefix__b_2_" class="prefix__st26" d="M199.5 259.5c0 .7-.6 1.3-1.3 1.3-.7 0-1.3-.6-1.3-1.3s.6-1.3 1.3-1.3c.7 0 1.3.6 1.3 1.3z"/></g><g transform="matrix(.16899 0 0 .16899 439.992 252.043)"><path id="prefix__b_3_" class="prefix__st28" d="M196 271.5c0 .8-.6 1.4-1.4 1.4s-1.4-.6-1.4-1.4.6-1.4 1.4-1.4 1.4.7 1.4 1.4z"/></g><g transform="matrix(.16899 0 0 .16899 438.744 256.228)"><path id="prefix__b_4_" class="prefix__st28" d="M194.4 277.1c0 .8-.6 1.4-1.4 1.4-.8 0-1.4-.6-1.4-1.4s.6-1.4 1.4-1.4c.7.1 1.4.7 1.4 1.4z"/></g><g transform="matrix(.16899 0 0 .16899 440.286 257.844)"><path id="prefix__b_5_" class="prefix__st28" d="M196.4 279.3c0 .8-.6 1.4-1.4 1.4-.8 0-1.4-.6-1.4-1.4 0-.8.6-1.4 1.4-1.4.8.1 1.4.7 1.4 1.4z"/></g><g transform="matrix(.12289 0 0 .12289 463.222 286.05)"><path id="prefix__b_6_" class="prefix__st29" d="M221.6 290.8c0 .5-.4 1-1 1s-1-.4-1-1 .4-1 1-1 1 .5 1 1z"/></g><g transform="matrix(.12289 0 0 .12289 464.293 287.305)"><path id="prefix__b_7_" class="prefix__st29" d="M223.1 292.5c0 .5-.4 1-1 1s-1-.4-1-1 .4-1 1-1 1 .5 1 1z"/></g><path class="prefix__st25" d="M200.5 261.5c-.3-1.3-1.5-1.7-1.5-1.7M218.9 292.4c2.1 1.6 2.8.6 2.8.6"/></g><g><path class="prefix__st20" d="M221.5 297c-1.3-4.7-1-5.8-1-5.8M210.3 288.5s-.8-1.8.5-2.9c.8-.6 4 1.2 5.7-6.2 0 0-1-.1-3.4.9v-.6s-.5-1.6-.3-3.7c0 0 1.1-1.7 1.2-2.4 0 0-2.1-.8-6.3 4.5 0 0-.4-1.1-3.4-3.2 0 0-1.6 4.6-.8 7.3.6 2 .7 2.8 2.9 4.3 0 0 1.7.8 2 3.1.8 0 1.9-.1 1.9-.1v-1zM207.2 293.9c-.7.4-1 .7-2.2.9-5.3.7-8.3-6.3-8.3-6.3-.2-1.4.5-.7 1.6-.3 1.5.5 1.9.1 3.5-.1 2.2-.3 4.6 1.9 4.6 1.9 1.4 1.2 1.5 3.6 1.5 3.6-.2.3-.7.3-.7.3zM200.9 281.2c-5.6-2.4-8.9.3-8.9.3-.2.4.3.5.3.5 3.5.4 2.4.3 3.8 2.3 2.5 3.4 6.9 2.7 6.9 2.7.9.2 1.8 1.3 1.8 1.3-.3-3.1-3.9-7.1-3.9-7.1zM191.2 259.1c-1.1-.7-.8.7-.8.7-2.3-4-8.4-4.3-8.4-4.3-.5 0-.8-.4-.8-.4-1 0 .2 2 .2 2 1.8 4.9 3.6 5.4 3.6 5.4-2.1 1.2-5.4-1.4-4.7.5 3.2 3.4 5.4 3.9 5.4 3.9 4.1 1 5.9 0 5.9 0 .9 1.7 1.5 1.9 1.5 1.9 3.7 1.1 4.5 3.2 4.5 3.2 0-4-1.5-9-1.5-9-1.1-1.6-4.9-3.9-4.9-3.9z"/><path class="prefix__st20" d="M220 298.4c-2 .6-2.1 2-2.1 2-1.9 2.6-8.9.1-8.9.1-2.1-.6-1.7-1.2-1.7-1.2 1.9-1 2.6-1.8 2.6-1.8-3.7-3.3-4.2-7.7-4.2-7.7 5.8-1.2 7.5-.1 7.5-.1-.4-2.2-2.3-2.3-2.3-2.3-.5-.7.5-.7.5-.7 5.1.5 7.8 3.7 7.8 3.7 1.9 2.7 1.3 5.3 1.3 5.3.5 2.8-.5 2.7-.5 2.7zM196.5 275.1c-2.8-.8-4.4.1-4.4.1-1.5.6-4.1-1.1-4.1-1.1-3.5-2.9-4.2-4.7-4.2-4.7 0-.5 3.1-.4 3.1-.4 4.1-.1 5 .7 5 .7 2.1 1.2 1.9 2.3 2.6 2.7 1.8 1.1 2.1 1.6 2.1 1.6.5.7.7 1.4-.1 1.1zM201.9 276.6c1.9-2.2 4.5-.7 4.5-.7 4 .5 5.3-4.1 5.3-4.1.9-1.9 1.6-2.7 1.6-2.7.2-1-1.7-.2-1.7-.2-3.4.9-3.6 1.2-3.6 1.2.6-5.4.6-5.5.6-5.5.1-.9-.9-.2-.9-.2-5 2.9-5.5 5-5.5 5l-2-3.8c-.6-1.6-1.1.2-1.1.2-.9 4.7-.6 5.1-.6 5.1.6 2.5 1.3 3.2 1.3 3.2 1.2 1.5 1.2 2.1 1.2 2.1l.9.4z"/><path class="prefix__st20" d="M231 289.3c-.8.2-2.8 3.5-2.8 3.5-2.5-4.7-5.8-5.4-5.8-5.4-.7.3.1 1.4.1 1.4 1 2.5-.2 4.4-.2 4.4-.4 1.8 0 2.2 0 2.2-3.9-2-4.2-1.8-4.2-1.8 0 2.5 3 7.2 3 7.2 6.5-1.7 7-1.6 7-1.6l2.4-.4c2-5.7.5-9.5.5-9.5zM199.1 263.7c2.5 1.2 2.7 2.9 2.7 2.9.7 2.1 6.5 2.6 6.5 2.6 4.8-.5 4.3-1.4 4.3-1.4-2.8-2.4-2-2.2-3.1-3.4-2.1-2-4.8-2.1-4.8-2.1-3.7.6-4.4-.2-4.4-.2-1.4.8-1.2 1.6-1.2 1.6zM193.5 255.3c-1.2-4.3 2.7-9.6 2.7-9.6 3.3 6.1 2.6 7.7 2.6 7.7-1.2 4-2.7 7-2.7 7-.6-3.1-2.2-3.5-2.6-5.1z"/><path class="prefix__st20" d="M191.4 257c-4.1.1-8.1-4.6-8.1-4.6 6.1-1.6 7.5-.7 7.5-.7 3.4 1.9 5.7 4 5.7 4-2.8-.1-3.6 1.2-5.1 1.3z"/><path class="prefix__st20" d="M188.2 251.2c-2.6.4-4.9-2.2-4.9-2.2-3.5-4.7-2.3-6.2-2.3-6.2.3-.2.7.4.7.4 1.1 1 3.1 1.2 3.1 1.2-5.6-3.5-1.9-11.2-1.9-11.2.7-.8.9 1.1.9 1.1.8 2 3 3.3 3 3.3 1.2 1.6 1.2 2.2 1.2 2.2.6-2.6 1.2-1.9 1.2-1.9.7 2.1 3 3.6 3.3 5 .8 3.9.2 4.4.2 4.4-.5 2.3-.5 4-.5 4-2.2-.8-4-.1-4-.1zM201.4 260.5c1.3-1.8 0-5.2 0-5.2-.5-3.6 4.9-7 4.9-7 1.6 2.9 1.4 4.7 1.4 4.7 4.1-1 5.1-1.3 5.1-1.3.2 2.3-2 5.7-2 5.7 3.4 1 4.5-.6 4.5-.6-1.6 7.5-8.8 6-8.8 6-3-2-5.1-2.3-5.1-2.3z"/><path class="prefix__st20" d="M190.1 238.6c.4-4.5 1.2-4.7 1.2-4.7.5.2.7 2.2 1.4 2.5 2.8 1.3 2.8 4.3 2.8 4.3-.1 3.6-.6 3.3-.6 3.3-3.9 0-4.8-5.4-4.8-5.4zM203.3 239.5c1.4-5.1.5-5.6.5-5.6-.6 0-1.7 2.1-2.5 2.2-3.6.3-4.9 3.6-4.9 3.6-1.4 4-.7 3.9-.7 3.9 4.4 1.5 7.1-2.2 7.6-4.1z"/><path class="prefix__st20" d="M190.3 230.2c.5-5.3 1.4-5.5 1.4-5.5.6.2.9 2.6 1.6 2.9 3.3 1.5 3.3 5.1 3.3 5.1-.1 4.2-.7 3.9-.7 3.9-4.6-.1-5.7-4.6-5.6-6.4zM205.1 231.4c1.5-5.1.7-5.6.7-5.6-.6 0-1.7 2.1-2.6 2.1-3.6.2-4.9 3.5-4.9 3.5-1.5 4-.8 3.8-.8 3.8 4.4 1.7 7.1-2 7.6-3.8zM211.2 245.7c4.2-3.2 3.9-4.2 3.9-4.2-.5-.4-2.6.7-3.3.2-3.1-2-6.1-.1-6.1-.1-3.5 2.4-2.9 2.7-2.9 2.7 2.5 3.9 6.9 2.5 8.4 1.4z"/><path class="prefix__st20" d="M211.1 248.5c4-1.8 3.9-2.6 3.9-2.6-.3-.4-2.3.1-2.8-.4-2.2-2-5-1-5-1-3.3 1.3-2.8 1.6-2.8 1.6 1.4 3.4 5.2 3 6.7 2.4zM197.2 224.1c-1.6-4.8 3.2-11 3.2-11 1 3 1.6 5.3 1.6 5.3 3.8-3.9 7.2-4.5 7.2-4.5-.1 1.8-.1 3-.1 3 2.6-.2 3.6-.8 3.6-.8-.5 3.8-5.4 7.7-5.4 7.7-1.8 1.2-4 .7-4 .7-3.5 1-4.3 3.4-4.3 3.4-.3-2.1-.6-.1-1.8-3.8zM204.2 240c2.2-2.9 5.6-1.6 5.6-1.6 3.1.2 5.7-3 5.7-3 1.4-2.3 2.3-2.8 2.3-2.8-.1-.8-.9-.6-.9-.6-1.9.4-1.9.5-1.9.5 1.4-5.2.6-5.4.6-5.4-.5 0-.8.3-.8.3-.8 2.4-4.1 2.3-4.1 2.3-.2-3.4-.9-3-.9-3-.5.9-1.6 1.4-1.6 1.4-3.3 3.3-3.3 4.7-3.3 4.7.3 3.8-.7 7.2-.7 7.2z"/></g><g><path class="prefix__st30" d="M203.6 258.9c.4-.5 1.4-1.2 2.2-1.7.8-.4.5-.3.9-1.1.3-.8.2-.6.8-1.1l-.5 1.5c.8-.4 1-.7 2.1-1.3.1.4-.7.8-1.3 1.2-.6.4-1.1.7-1.7 1.1l-2.9 2.5c2.8-.6 2.3-.2 3.6-.4 3-.5 4.3-4.7 5.3-7.1-2 .4-4.1.8-5.6 1.8-1.9 1.3-1.7 2.5-2.9 4.6zM196.1 269.4c-.2-.5-.7-1.2-1-1.7-.8-1.4-.9-1.8-1.9-3.4-.7-1-.4-.5-.8-1.7.4 0 .9 1.2 1.4 1.7v-1.7c.5 0 .3.5.4 1 .1 1.7-.1 1.4 1 3.2l2.1 3.4c-.1-.5-.4-1-.5-1.6-.6-2.2.8-4.9-4.7-8.2l-1.4-.8c.1 2.7.4 7.2 2.9 8.6.4.2.9.4 1.4.5.3.3.6.5 1.1.7zM194.8 235.5c-.2-.7-.5-1.3-.7-2.1-.2-.7-.1-.5-.6-.9l-.6-.8.8.4c-.1-.4-.4-.9-.7-1.3-.5-.7-.3-.2-.8-1.2.9-.1 1.9 2.7 2.1 3.4.6 2.2.6 1.9 1.9 3.6 0-.3-.5-.8-.6-1.3-.3-1.2.9-2.8-.3-5.3-.8-1.5-2.3-1.8-3.1-3.1l-.7-1.3c-.2.5-.6 2.3-.7 2.9-.1 1.9.3 4.3 1.6 5.5.6.7 1.8 1.3 2.4 1.5zM201.8 222.1c.3-.2.8-.9 1.2-1.3l1.3-1.1-.2-1.2c.3.1.2-.1.4.8.3-.3 1.1-1.7 1.5-2.2.3.4-.5 1.5-.8 1.9-.4.6-.8 1.1-1.3 1.5l-2.6 3.2c.5-.2.9-.4 1.5-.5 1.7-.3 2.3-.5 3.5-2.3 1.1-1.8 1.4-3.9 1.8-6-2.4 1-4.9 1.9-6.1 4.2-.3.7-.1 1.4-.2 3zM186.8 244.7c-.7-1.8-2.6-3.8-2.8-4.7l-.3-2.1c.4.1.2-.1.3.3 0 0 .1 1.2.2 1.5l.8 1.5c0-1-.1-.5.3-1.4.4.5-.2 1.4.4 2.4.3.5.8 1.4 1.1 1.8 0-1.5 1-3.7-.7-5.8-.6-.7-1.2-1-2-1.6l-1.4-2.2c-1.1 2.4-.9 7.2 1.3 8.8.4.3.8.4 1.3.7.2.1.4.2.6.4.5.1.6.3.9.4zM197.5 235.3c1-.8.7-1.1 2.9-2.8.6-.4 1-.9 1.4-1.4.7-.8.5-.6 1.4-1.5.2.4-1.2 1.9-1.7 2.5l.9.1c-.1.5-.6.1-1.4.3-.7.2-2.4 2.1-2.9 2.6.4-.1.8-.3 1.3-.4 1.4-.3 2.3.1 3.7-1.8 1.3-1.6 1.7-3.6 2.3-5.6-1.9.5-4.2 1.4-5.3 2.5-1.5 1.5-1.4 2.8-2 4.1 0 .6-.4 1-.6 1.4zM190.1 249.8c-.2-.3-1-.9-1.3-1.2-.8-.6-.9-.6-1.9-.6l-3.2-1.8c.4-.2.6.3 1.4.7l1.5.6-.2-.8c.3 0 .3.1.4.4l.1.5c1.4.1 1.2.1 2.6 1.1-.2-.6-.2-.6-.7-.9-.4-.3-.4-.5-.7-.9-.5-.6.1.3-.7-.9-1.2-1.9-2.6-1.1-3.5-1.3l-2.3-.9c.4 2.2 1.6 3.9 2.7 4.9.6.6 1.3 1.2 2.4 1.4.3 0 2.9-.2 3.4-.3zM188.8 261.7l-1.5-1.2c-.4-.3-.6-.2-1.1-.3l-1-.4h1.2c-.1-.1-.4-.3-.5-.4-.8-.7-1-.6-1.5-1.4.2-.2.4.1.7.3.9.7 2.8 2.2 3.7 2.8l1.7.9c-.1-.9-1.6-3.9-2.9-4.4l-5.7-1.6c.3 1 1.7 3.6 2.3 4.4 1.7 2.3 1.8 1.5 3.1 1.3.4 0 .9.1 1.5 0zM191.5 248.8l-2.2-7.2c.4.1.3.6.6 1.4l.6 1.5c.3-.6-.1-.1.5-1.1.3.3 0 1-.2 1.4-.2.8-.2.5.1 1.3l1 2.7c0-.6 0-.9.1-1.5.3-1.7.6-2.7-.2-4.5-.7-1.6-1.9-2.8-3-4-.2.3-.5 2.4-.6 2.9-.3 1.8-.1 4.4 1.3 5.6 1.2.8.5.1 2 1.5zM195.8 258.1c0-.7-.1-4.2-.1-5.7v-1c0-.5 0-.4.2-.7.1.2.1.4.1.6v2.4l.7-1.2c.4.2.1.6-.1 1-.2.3-.5.9-.6 1.2l.1 3.4s0-.1.1-.1c0 .1.4-.9.6-1.2.7-1.2 1.5-2.9 1.2-4.4l-1.9-5.4c-.4.7-.9 1.8-1.2 2.5-.4.9-.7 1.9-.9 3-.4 2.5.3 3 1.1 4.3.3.5.5.9.7 1.3zM198.8 226c0-.6.3-3.9.2-4.2 0-.1-.2-.5-.3-.6l-.3-1.3c.5.1.3.3.5.8l.2.3c0-.3.1-.7.1-1 .1-.7 0-.3.2-1 .3.2.1-.1.2.3v.5c-.2 2.2-.3 4.6-.4 6.9.2-.4.3-.9.5-1.4.6-1.1 1.6-3.1 1.5-4.4l-1.2-6.5c-.5.7-.9 1.8-1.3 2.6-.8 1.7-1.6 4.4-1.1 6.3l1.1 2.6c.1 0 0 0 .1.1zM181.5 263.3c.4.5 1.2 1.2 1.7 1.6 1.1.8 3.6 1.9 4.9 1.8l2.9-.5-.5-1.4c-.5 0-1 .2-1.6.3-.6 0-1.2 0-1.8-.1-.6-.1-1.1-.2-1.7-.3-1-.2-.6-.1-1.4-.6l3.1.5c-.8-.6-.5-.3-1.1-1.1.4 0 1.4.8 1.7 1.1l2.6-.1-.2-1.5c-1.3-.5-3.1-.5-4.5 0-2.5.7-1.5.5-4.1.3zM184.9 270.1c.2.5 2.9 3.7 3.6 3.9l6 .3c-.8-.4-1.8-.8-2.7-1.2-1.2-.5-1.2-.2-3.1 0 .1-.4.5-.3 1.5-.6-.4-.2-2.3-.7-2.3-.8l-.3-.3c.1-.1 0-.1.3-.1.1 0 .3.1.5.1 2.8.9 3.6 1.3 6.2 2.4-.8-.6-1.1-.9-1.7-1.7-2.3-3.1-4.9-2.1-8-2zM205.9 236.4l.9-1.7c.5-1-.3-1 .1-2.3.3.1.2.1.4 1.2l1.1-2.6c.3.9-1.4 4.1-1.8 4.9l-.6 1.7c1.4-1.6 3.2-2.4 3.5-3.7l.2-6.5c-1 .9-2.4 2.2-3.1 3.4-1.1 1.8-1 3.3-.7 5.6zM203.1 274.6c.5-.2.9-.6 1.5-.8 2.4-.7 1.4.5 2.9-1.6l-.4 1.1c1.1-.4 1.4-1 2.2-1.8.2.4-.4 1.1-.7 1.4-1.3 1.3-2.7.9-3.5 1.2l-1.6.8c1.8-.3 1.6 0 3.1.3 3 .5 3.9-2.6 4.9-4.3l.7-1.3c-1.7.2-3.8 1.2-5.1 2-1 .6-1.3.8-2 1.5-.3.3-.6.6-.9.8-.5.2-.8.3-1.1.7z"/><path class="prefix__st30" d="M202.9 258.6c1.1-1 .8-3.4 1.6-4.8.2-.3.3-.4.4-.6.3-.4.2-.3.6-.3.1.3-.5.6-.7 1.1l-.5 1.5c.1-.1.1 0 .2-.1l.2-.2c.7-1.1 1.4-1.3 2.5-2l-1-3.8-1.9 1.6c-.5.4-1.2 1.3-1.6 2-1.4 2.2.1 3.4.2 5.6zM202.3 274.2l2.5-4.1v-1.9c.4.1.2-.1.5 1.1.8-1.2.3-1.1 1.2-1.7.1.4-1 2.2-1.1 2.4-1.1 1.5-1.6 2.4-2.5 4 .6-.2 1.4-1.1 1.8-1.5.4-.3.6-.5.9-.7.4-.2.7-.4 1.1-.6l1.1-5.8c-.9.4-3.5 2.2-4.2 3.1-1.6 2-1.7 2.6-1.3 5.7zM207.9 260l3.2-.3c-.1.4-.6.4-1.5.6-1.4.2-4.1.2-5.7.2.5.3.9.4 1.4.7.5.3.8.5 1.3.7 1 .5 2.2.5 3.3.1l4.2-3.9c-2.2.5-1 .6-4 0-.5.4-.7.9-1.6 1.5-.2.1-.4.2-.6.4zM185 252.2c.9 1.9 3.6 4.1 6 3.8 1.1-.1 1.3-.5 1.9-1.1-.1-.2 0 0-.2-.1-.1 0-.2-.1-.3-.1-1.8-.4-2.1-.2-3.9 0l.8-.4c-.5-.1-1-.2-1.5-.4-.8-.2-.7-.2-1.3-.6.2-.2.2-.2.5 0 2.4.8 3 .7 5.7 1.2-.3-.8-2.4-1.8-3.5-2-1.6-.3-2.2.6-4.2-.3zM200.8 273.7l-.8-5.2c.4.1.3.3.5 1.4l.9 4.7c.1-1.8.7-3.1.2-4.9l-1.9-3.6c-.3.8-.6 3.2-.5 4.3.1 1.6.4 2.1 1.3 3l.3.3zM207.8 220.4c.3-.2.5-.4.7-.7l.8-.6c0 .4-.6 1-1 1.5-.6.8-1 .9-1.3 1.3-1.2 1.5-1.1 1.3-3 2.1 3.9.2 6-3.9 7.7-6.7-3.7.5-3 .8-3.4 1.8-.1.5-.3.9-.5 1.3zM209.1 236.9l1.1-1.8c.6-.9 1.1-.3 2.1-1.3-.3-.2-.2-.2-1.3.3l1.8-2.4c-1 .2-3 3.6-3.6 4.3l-1.2 1.4c.7-2.2.5-4.2 1.5-5.2l5.8-3.7c-.2 1.4-.8 3.5-1.4 4.7-1 2-2.5 2.7-4.8 3.7zM194.5 243.8c-.3-1-1.5-2-1.7-2.5l-.8-3.4c.5.1.5 1 .6 1.4l.5 1.5c.3-1-.2-.3.5-1.3.3.6-.4 1.7.1 2.3.4.6.5.5 1.1 1.5.4-1.6.5-3.5-.5-4.6l-2.7-3c-.7 1-.6 3.8-.1 5.3.6 1.6 1.2 1.8 2.2 2.3.2.1.4.3.8.5zM196.9 243.4c.7-.9 2.3-1.5 2.7-2l2.1-3.3c-.5-.1-.8.8-1.1 1.2l-1 1.4c.1-1.2.3-.3 0-1.6-.6.6-.2 1.9-.9 2.4s-.7.4-1.8 1.2c.2-1.8.8-3.9 2.2-4.7l4-2.2c.4 1.3-.7 4.3-1.8 5.6-1.2 1.5-1.9 1.5-3.2 1.7-.4.1-.8.3-1.2.3zM204 243.8c1.1-.1 4-.1 4.8-.6l1.2-.6c0 .3 0 .2-.5.6 1.2-.1.7-.1 1.8.1-.1.2.2.2-.9.3-1.3.1-2 .2-3.2.4l-4.3.4c2.8 1 3.2 2.5 6.3 1.4 2.5-.9 3-1.9 4.6-3.8-3.9.9-4.3-2.4-8.1.1-.4.3-1.4 1.3-1.7 1.7z"/><path class="prefix__st30" d="M209.2 246.2c1 .1.6 0 1.4.4-.4.3-2.1-.1-2.8.1l-2.8-.1c.9 1.2 2.4 1.8 4.5 1.6 2.1-.2 2.6-.8 4.3-1.8l-3.2-1-1.4.8zM208 264.3c-.3-.3-1-.6-1.4-.8-1.8-.7-3.1 0-4-.1l-2-.2c.5.6 2.7 1.4 3.7 1.6 2.7.4.9 1.2 3.7-.5zM208.3 266.3l.8.7c-.2.1-.5-.1-.8-.3l-.2 1.8 3.7-.5c-1.2-1.5-1.9-2.2-3.3-3.4-.1.7-.2 1.1-.2 1.7zM203.6 267.3l2.2-1.7c-.6-.4-1.6-.4-2.3-.6l-2.1-.8c.5.7.5.5 1.1 1.6.3.5.5 1.1 1.1 1.5zM214.2 234.9c-1 .6-1.6 1.4-2.7 1.9-1.4.6-3 0-3.9.9 2.4-.1 4 .8 5.9-.9 1.2-1.1 2.2-2.7 3.1-4.1-.4 0-1.6.4-1.9.6-.1.1-.3.6-.5.8-.3.6 0 .1 0 .8zM206.2 290.1l1.8 3.6 2.4 3c.5-.2 1.1-.6 1.6-.9l2-.7c-1.1-.5-1.1-1-1.8-1.1-1.5-.1-.6.1-2.6-.2.2-.3.1-.2 1.1-.2h1.3c-.7-.7-1.7-1.2-2.5-1.8l2.6 1.3-.1-1.7c.6.1.2 1.1.5 2 .1.4 1 1 1.4 1.2.9.4 1.2.3 2.1.6l2.1.6c-.8-1.2-.5.2-1.9-2.8-.6-1.2-1.1-1.9-2.1-2.5-2.3-1.5-5.2-.5-7.9-.4zM209.2 286.5c0-1.4-.1-2.8 0-4.2.1-.7-.3-2.5-.4-3.5.3.1.3.3.4.7l.3.9c.3-1.5.4-1.5 1.2-2.6.1.4-.8 1.5-1 3.3l-.2 4.3c.2-.2.2-.3.4-.5s.3-.3.4-.5c.3-.3.5-.6.8-1.1 2.1-3.2.8-5 .8-6l.6-3.1c-.6.3-2.4 1.5-2.8 1.9-1.6 1.6-3.1 4.4-2.2 6.8.2.6.5 1 .8 1.6.4.8.6 1.5.9 2z"/><path class="prefix__st30" d="M208.1 298.8c.3.2 2.3.9 2.8 1 1.9.6 4.8.8 6.1-.9.7-1 1.1-1.2 2.1-1.9-1.4 0-2.4.6-3.6.8-.9.2-1 .8-1.7 1.6l-.7.5c0-.5.9-1.3 1.3-1.8h-2.7c.1-.4.8-.2 2-.3 2.4-.2 2.8-.8 5.3-1.1.2 0 .3 0 .5-.1-3.8 0-4.7-2.6-9.3.7l-2.1 1.5zM225.6 296.4v-1.9c-.8-.6-.8-.8-1.4-1.8.5 0 .6.8 1.3 1.2-.1-.9-.5-2.5-.7-3.4.4.1.7 1.3.8 1.7.5 2.2.1 4 .5 4.7l1.1 1.5c.4-1.6 2-2.6.1-6.4-1.2-2.3-2.1-2.7-4.1-4.2.2 1.1.5 1.5.3 2.8-.1.9-.5 1.6-.6 2.5-.2 2.1.4 2 .8 2.2.8.3 1.4.7 1.9 1.1zM206.7 292.8l-.6-1.3c-1.6 0-2.1.7-4.3-.8-.6-.4-.5-.4-.8-1l2.5 1.4c-.1-.3-.4-.6-.9-1.6.1-.1-.1-.2.2 0l.2.2 1.2 1.6 1.7-.2c0-.3-.3-.7-.4-1-.2-.6-.1-.6-.5-1-.6-.4-1.2-.8-2.1-.9-1-.1-1.7.3-2.6.3l-2.5-.5c.1.5 1.1 2.1 1.3 2.5 1.1 1.5 3.9 3.7 6.4 2.8.1-.1.9-.4 1.2-.5zM193.4 281l.1.1c.1.1.1 0 .2.1.7.3 1.4.6 1.9 1.2.7.7.7 1.1 1.7 1.9 1.6 1.3 3.3 1.3 5.5 1.6-.2-.3-.7-.9-1-1.2-1.7-1.8-1.4-1.7-2.5-1.6l-1.8.1c.1-.4 1.2-.4 1.9-.6-.4-.2-.7-.3-1.2-.4-.9-.2-.3.1-1.3-.3.5-.6 2.8.2 3.9 1.2.8.7 1.8 1.9 2.5 2.8l-1.2-2.7c-1.3-2.3-4.6-3.1-7.1-2.7-.4.1-1.3.3-1.6.5zM208.4 287.1c-.9-2.8-2.4-4-2.7-5.8-.3-1.2-.2-1.3 0-2.3.6.8-.5 1.3 1.2 4.1-.1-.9-.3-1.3-.2-2.4.1-.4.6-2.1.6-2.2-.1-.5-2.1-2.3-2.7-2.9-.3 2.5-.9 4.7-.1 7.2.8 2.6 2.2 2 3.9 4.3z"/><path class="prefix__st30" d="M221.9 299.9l1.8-.5c-.3-.2-.9-1-1.2-1.4-.8-1.1-.7-1.2-.4-1.8l.1.2c0 .3 0 .4.2.8.2.3.3.5.5.7.4.6.7.9 1.3 1.4 0-.9-.2-1.3 0-1.9.3.1.1-.1.2.2l.1 1.5 2-.5c-1.3-2.4-3.9-3.2-6.2-4.1.2.9.4 1.9.6 2.8.3 1 .6 1.7 1 2.6zM218.8 294.8c-.2-.5-.6-1.1-.9-1.7-.6-1.4-.5-2-1.8-3.3-.2-.2-.4-.5-.7-.7-.1-.1-.5-.3-.5-.4V288.4c.4-.1 1.3.9 1.6 1.2.8.7 2.5 4.5 3.1 5.6-.1-.5-.3-1.1-.2-1.6.5-1.5-.9-3.8-1.6-4.2l-5.5-2.5c.7.6 1.1 1 1.5 2 .4.8.5.1 2 1.7 1.5 1.6 1.4 3.6 3 4.2zM228.9 294.8c.1-.3.2-.5.3-.8.2-.5 0-.3.5-.7.2.3 0 .5-.2 1.2-.5 1.3-.7 2.5-1.1 3.8 1.2-.2 1.2-.2 1.7-1.1.3-.6.6-1.3.7-2.1l-.2-5.2-1.6 2.1c-.9 1.2-.3.5-.1 2.8zM212.3 282.9c.4-.2 1.3-1.3 1.7-1.8.2.4-.8 1.5-1.1 1.8-.9.9-.3 0-1.5 1.4 2.4.4 3.4-2.8 4.1-4.4-.5 0-2 .5-2.4.7-.3.2-.2.1-.3.5-.1.3-.1.4-.2.6 0 .5-.2.9-.3 1.2z"/></g><g><path class="prefix__st31" d="M234.4 312.7l3 1.6-1.7 3.4c1.2-.2 5.7-1.8 7.2-2.2-.4-1-.5-1.2-.4-2.5l-.5-2.4-3.6 1.2c-1.4.4-2.5.7-4 .9zM273.6 312.2l-3 1.6 1.7 3.4c-1.2-.2-5.7-1.8-7.2-2.2.4-1 .5-1.2.4-2.5l.5-2.4 3.6 1.2c1.4.3 2.6.6 4 .9z"/><path d="M245.3 317.5c3.4-.5 6.4-2.3 6.4-2.3.5.6 3.2.2 3.2.2 1.2-.2 1.8-.4 1.8-.4 3.4 2.1 5.9 2.5 5.9 2.5 3-.2 3-2.5 3-2.5-.1-2-.3-2.1-.3-2.1 1.6-2.5-.1-4.5-.1-4.5-.8-.9-5.4.6-5.4.6-3.1 1.5-3.3.8-3.3.8-.9-1.4-4.1-1.1-5.5-.1-3.4-.8-3.9-1-3.9-1-3.4-1.3-4-.5-4-.5-1.2 1.5-.8 3-.8 3 0 .9.3 1.6.3 1.6-.8 4.4 2.7 4.7 2.7 4.7h0z" fill="#ce1126" stroke="#000" stroke-width=".271"/><path class="prefix__st33" d="M256.6 313.7c7.4 1.7 6.9 2.7 6.9 2.7-.4.8-2.6-.2-2.6-.2-5.8-2-4.3-2.5-4.3-2.5zM252 313.7c-7.4 1.7-6.9 2.7-6.9 2.7.4.8 2.6-.2 2.6-.2 5.8-2 4.3-2.5 4.3-2.5z"/><path d="M252.3 308.7c-3.2.6-.7 2.9-.6 4.4 0 .8-.8 2.1.1 2.5.8.3 2.5-.1 3.3-.1 1.2-.1 2.1.1 1.9-1.5-.1-1.2-.5-1.6-.5-3.1-.1-1.1.2-2.3-1-2.4-.7 0-2.4.1-3.2.2h0z" fill="#aa241e" stroke="#000" stroke-width=".201"/><path class="prefix__st35" d="M256.7 310.5c8.4 0 7.8-1.4 7.8-1.4M256.9 313.1c8.4 1.1 7.2 2.3 7.2 2.3"/><path class="prefix__st36" d="M251.6 312.8c-7.8 1.7-7.1 3-7.1 3M250.8 310.3c-7.9.6-7.2-.8-7.2-.8"/></g></g><g><path d="M220.9 300.8c-4.2 1.4-7 2.3-11 4.7-1.5-2.3-3.6-5.7-5.1-7.7-.8-1.1-2-2.2-3.4-2.9-2.3-1.1-3.1-.7-4.6.5l-1-1.9c-2-3.6-4.2-5.3-6.5-8.2l-2-2.4c-.3-.3-.4-.6-.7-.7.9 2.9 1.5 5.7 2.1 8.8-1.3-.7-2.4-1.4-3.7-1.9-1-.4-3.5-.9-4.7-.8l1.5 1.3c2.6 2.3 4.2 5.3 5.3 8.6 1.1 3.6 3.7 7.5 6.5 10.2.6.6 2.1 2 3.2 2.3 3.1 1.1 2.9 0 4-.6 2.4 4 3.9 6 6.6 9 2.9 3.1 7.5 3.9 11.7 2.9 1.9-.5 3-1 4.5-1.8 5.4-3.1 2.8-5.6 2.2-8.1 1.8-.6 8.7-2.6 11.2-3.1 8.8-1.6 25-1.8 35.4-.3.9.1 11.4 2.9 12.4 3.5-.7 1.7-1 2.6-.9 4.5.2 1.8 1.7 2.7 3 3.5 1.4.8 2.6 1.3 4.5 1.8 1.8.4 3.8.5 5.6.2 3.9-.6 5.9-2.9 7.6-4.9 2.8-3.2 3.6-5.1 5.1-7.3 0 0 .8.7 1.4.9.5.2 2.3-.1 2.7-.3 1.3-.5 2.2-1.5 3.1-2.4 2.9-2.8 5.3-6.4 6.5-10.3 1.4-4.6 3.3-6.8 6.7-9.8-4.4.1-5.9 1.3-8.4 2.7l.9-4.5c.3-1.2 1-3.1 1.1-4.3-2 2.1-3.8 4.3-5.5 6.3-.8 1.1-1.8 2-2.6 3.2-1.8 2.7-1.4 2.8-2.1 3.7-6.2-3.4-8.9 4.9-13.1 10-7.7-4.3-14.5-5.7-23.6-7.4-2-.2-3.9-.5-5.5-.7-11.4-1.3-24-1.3-35.4.4-6.2 1-9.8 2.1-15 3.3z"/><path class="prefix__st2" d="M213 318.6c.7-2 1.6-2.5 3.3-3.3 5.6-2.6 8.4-3.6 14.8-5.3 3.5-.9 7.6-1.7 11.3-2.1 2-.3 2.4-.3 5.9-.6 5.1-.3 8.1-.3 13.2 0 2.2 0 4.1.3 5.9.6 3.8.5 7.9 1.2 11.4 2.1 5.8 1.5 9.6 2.9 14.8 5.3 2.4 1.1 2 1.2 3.4 3.3 1.7-1.2 3-3.6 3.9-5.3.5-.9 1.3-2.1 1.6-3.1.6-1.7-.5-2.3-1.3-2.9-2.9-2.5-8.3-4.7-12.9-5.9-19.7-5.5-46.9-5.7-66.6 0-4.8 1.4-9.7 3.3-12.8 5.9-.4.3-.8.7-1.2 1.1-1.1 1.3.7 3.8 1.3 4.9.6 1.1 1.1 2.1 1.7 2.9.7.9 1.6 1.7 2.3 2.4z"/><path class="prefix__st2" d="M193.5 301c2.2.4 3 1.1 4.5 3 3.2 4.4 3.3 7.6 8.8 13.5 1.3 1.4 2.2 2.5 4.1 3.3 2 .9 4.1 1.2 6.5.8 2.2-.3 3.9-.9 5.6-1.8 0 0 2-1.2 2.5-1.9s.6-2.4.6-2.4c-1.6-.5-4.6 2.7-6.5 3.9-3.5 2.3-4.8 1.5-7.3-.7-2.1-1.8-2.9-3.8-4.3-6.2-.6-1-1.6-2.4-1.2-4l2.6-2.7c-1-1.7-2.3-3.6-3.3-5-1.3-2-2-3.3-3.7-4.6-1-.8-2.9-1.9-4.3-1.1-1.2.9-2 2-3 3.2-.7.8-1.3 1.7-1.6 2.7z"/><path class="prefix__st2" d="M189.7 292.5c-.5-.2-2.4-1.6-3.3-2l-4.1-1.4c.6.7 1.1 1.1 2.2 2.5 2.6 3.3 2.6 6 4.6 10 .7 1.3 1.9 3.1 2.9 4.3.7.9 3.1 3.1 3.7 3.6 1.4 1.2 2.9 1.4 3.7.4.2-.7-1.7-1.9-2.7-2.4-1.3-.7-2.4-1.4-3.3-2.3-2.4-2.4-.6-5.4 1.3-7.6l1.3-1.5c.3-1-1.8-3.8-2.8-5.3-1.1-1.3-3.9-4.5-5.2-5.9.2 1.2.6 2.7.8 3.9.2.9.9 3.1.9 3.7zM225.8 314.9l-1-2.3c-1.3.1-7.9 3-9.5 4-.5.3-2.3 1.8-1.4 2.7 2.6 2.8 6.4-1.3 8.7-3 .8-.8 1.9-1.5 3.2-1.4z"/><path class="prefix__st2" d="M200.3 309.5c-.4-.1-.3-1-1.8-2.1-.6-.5-3.9-2.2-4.5-2.9 0 0-1.1-.8-1-1.9.1-.9.8-1 .8-1 3.1.1 6.7 7.6 6.5 7.9zM316.6 301.1c-2.2.4-3 1.1-4.5 3-3.2 4.4-3.3 7.6-8.8 13.5-1.3 1.4-2.2 2.5-4.1 3.3-2 .9-4.1 1.2-6.5.8-2.2-.3-3.9-.9-5.6-1.8 0 0-2-1.2-2.5-1.9s-.6-2.4-.6-2.4c1.6-.5 4.6 2.7 6.5 3.9 3.5 2.3 4.8 1.5 7.3-.7 2.1-1.8 2.9-3.8 4.3-6.2.6-1 1.6-2.4 1.2-4l-2.6-2.7c1-1.7 2.3-3.6 3.3-5 1.3-2 2-3.3 3.7-4.6 1-.8 2.9-1.9 4.3-1.1 1.2.9 2 2 3 3.2.6.8 1.3 1.8 1.6 2.7z"/><path class="prefix__st2" d="M320.3 292.7c.5-.2 2.4-1.6 3.3-2l4.1-1.4c-.6.7-1.1 1.1-2.2 2.5-2.6 3.3-2.6 6-4.6 10-.7 1.3-1.9 3.1-2.9 4.3-.7.9-3.1 3.1-3.7 3.6-1.4 1.2-3.3 1.2-3.7.4-.2-.7 1.7-1.9 2.7-2.4 1.3-.7 2.4-1.4 3.3-2.3 2.4-2.4.6-5.4-1.3-7.6l-1.3-1.5c.4-1.9 1.8-3.8 2.8-5.3 1.1-1.3 3.9-4.5 5.2-5.9-.2 1.2-.6 2.7-.8 3.9-.3 1.2-.6 2.4-.9 3.7zM284.2 315l1-2.3c1.3.1 7.9 3 9.5 4 .5.3 2.3 1.8 1.4 2.7-2.6 2.8-6.4-1.3-8.7-3-.8-.7-1.8-1.4-3.2-1.4z"/><path class="prefix__st2" d="M309.7 309.7c.4-.1.3-1 1.8-2.1.6-.5 3.9-2.2 4.5-2.9 0 0 1.1-.8 1-1.9-.1-.9-.8-1-.8-1-3 .1-6.6 7.5-6.5 7.9z"/><g><path class="prefix__st19" d="M219.9 305.2c-.3 0-.6.1-1 .2-.5.2-.9.4-1.4.6-.2.1-.2.3 0 .3.3.2.2.6.3.9.1.3.2.7.3 1l.3 1.2.3 1.2c0 .2-.3.6 0 .4.4-.1.7-.3 1.1-.4.1 0 .4-.2.1-.3-.3-.2-.2-.6-.4-.9-.1-.3-.2-.6-.2-.9.1-.4.6-.1.6.2.2.3.4.5.7.7.3.2.6.5 1 .5.3.1.6 0 .8-.1-.4-.3-.8-.6-1.1-1-.2-.3-.4-.7-.7-1 .4-.3.7-.7.8-1.2 0-.5-.2-1.1-.7-1.3-.3 0-.6-.1-.8-.1zm-.5.5c.3 0 .5.2.7.4.2.3.3.7.2 1 0 .3-.2.6-.5.7-.2.2-.7.5-.8 0-.1-.5-.3-1-.4-1.6-.1-.3.3-.5.5-.5h.3zM221.7 304.5c0 .3.4.4.3.7l.3 1.2c0 .4.1.7.2 1 .1.2.1.5.2.7.1.3.2.7.2 1 .1.1-.3.5-.1.4.9-.3 1.9-.5 2.9-.8.3 0 .3-.1.3-.4v-.9c-.3 0-.3.4-.5.5-.3.4-.8.5-1.3.7-.3 0-.4-.2-.4-.5-.1-.2-.1-.5-.1-.7-.1-.3-.1-.7-.2-1 .3-.1.7-.2 1.1-.1.2 0 .3.4.5.2 0-.3-.1-.6-.2-.9-.1-.1-.1-.6-.3-.4-.1.2-.1.5-.4.5-.2.1-.5.2-.8.3-.2-.2-.2-.6-.2-.8 0-.3-.2-.7.2-.8.4-.2.9-.2 1.3.1.1.1.5.4.5.1-.2-.3-.2-.7-.4-.9-.3 0-.5.1-.8.2-.8.2-1.5.4-2.3.6zM228 302.8c-.4 0-.8.1-1.1.2-.4.1-.8.3-1.2.4-.3.2.3.3.3.6s.1.5.2.8c0 .3.1.5.1.8.1.4.2.8.2 1.2 0 .4.2.7.2 1.1.1.2-.1.5-.1.7l1.2-.3c.2 0 .3-.3.1-.3-.2-.3-.2-.6-.3-.9-.1-.3-.1-.6-.2-1 .6-.1 1.1-.3 1.6-.7.3-.3.6-.6.6-1.1 0-.4-.1-.8-.3-1.1-.2-.2-.4-.3-.6-.4h-.7zm.7 0zm-1.1.4c.4 0 .7.2.8.6.1.3.2.7.1 1-.1.2-.2.5-.4.5-.2.1-.4.3-.7.3-.2-.2 0-.5-.2-.7-.1-.4-.1-.8-.3-1.2-.1-.2.2-.4.4-.5h.3zM232.7 301.8c.2.1.3.3.4.5.1.2.1.4.2.7.1.3.1.7.2 1 .1.3.1.5.1.8.1.3.1.7.1 1.1-.1.5-.6.9-1.1.8-.2 0-.4-.2-.5-.4-.2-.2-.2-.4-.3-.7-.1-.4-.1-.7-.2-1.1 0-.4-.1-.7-.2-1.1 0-.3-.1-.6-.2-.9-.1-.2.4-.5 0-.4-.4 0-.8.2-1.2.2-.3.2.2.3.2.5.1.3 0 .5.1.8.1.5.2 1.1.3 1.7 0 .3.1.5.1.8.1.3.2.5.4.7.2.2.5.4.9.5.6.1 1.3 0 1.7-.5.2-.2.3-.5.4-.8 0-.4 0-.8-.1-1.2 0-.4 0-.8-.2-1.2 0-.3-.1-.7-.1-1-.1-.1-.1-.3 0-.5 0-.2.3-.3.2-.5-.3 0-.5.1-.8.1-.2 0-.3 0-.4.1zM236.8 301c-.6 0-1.1.1-1.7.2-.2.1-.6.1-.7.2.2.2.3.3.3.6.1.6.2 1.2.3 1.7 0 .4.1.7.1 1.1 0 .4.1.8.1 1.3 0 .1-.3.5 0 .4.2-.1.5 0 .7-.1.3-.1.6-.1.9-.1.4-.1.8-.1 1.1-.3.2-.1.4-.3.5-.5.2-.2.2-.4.2-.6 0-.4 0-.8-.4-1.1-.2-.2-.5-.2-.7-.3-.2 0-.4-.2-.1-.3.3-.2.6-.4.6-.8.1-.3 0-.7-.2-.9-.1-.3-.4-.4-.7-.4 0 0-.2-.1-.3-.1zm-.8.5c.4-.1.8 0 1 .4.2.3.1.6.1.9 0 .3-.4.4-.6.6-.2.1-.7.3-.6-.1.1-.3 0-.5-.1-.8v-.7c.1-.2.1-.3.2-.3zm.4 2.2c.3 0 .6 0 .8.2.3.2.3.6.3.9 0 .3 0 .6-.2.8-.3.2-.6.3-.9.3-.3-.1-.3-.5-.3-.8 0-.3-.1-.6-.1-.8-.1-.2-.1-.6.2-.5.1-.1.2-.1.2-.1zM239 300.6c0 .2.3.2.3.5s0 .6.1.9c0 .3 0 .6.1.8.1.3 0 .7.1 1 .1.3 0 .7.1 1 .1.3 0 .7-.2.9-.1.2.3.1.4.1.4 0 .8 0 1.2-.1.2 0 .5 0 .7-.1.3 0 .6-.1.8-.1.1-.3.1-.7.1-1 0-.1 0-.3-.1-.2-.1.2-.2.4-.4.6-.1.1-.3.2-.4.2-.2.1-.4.1-.6.1-.2.1-.5 0-.5-.3-.1-.3 0-.7-.1-1-.1-.6-.1-1.3-.1-1.9 0-.4-.1-.8-.1-1.1 0-.2.4-.5.1-.4-.2 0-.4.1-.6.1-.2 0-.4.1-.6.1-.1-.2-.2-.1-.3-.1zM242.9 300.1c0 .2.2.1.2.3.1.2 0 .4.1.7 0 .2 0 .5.1.7.1.8.1 1.6.2 2.4.1.2.1.4.1.6 0 .2-.3.3-.2.4.5 0 1 0 1.5-.1.2 0 0-.2-.1-.2-.1-.2-.1-.4-.2-.6 0-.4 0-.8-.1-1.1 0-.3 0-.6-.1-.9-.1-.4 0-.8-.1-1.2 0-.3-.1-.5 0-.8 0-.1.3-.3.1-.3-.4 0-.9 0-1.5.1.1 0 .1 0 0 0zM249.2 303.4c-.3 0-.4.3-.5.4-.2.3-.5.4-.7.4-.3.1-.6-.2-.8-.4-.2-.3-.3-.5-.4-.8-.1-.3-.1-.6-.2-.8-.1-.4 0-.9 0-1.3.1-.3.2-.6.5-.8.3-.2.8-.1 1 .2.2.2.3.5.4.7.2.3.3-.1.3-.3 0-.2.2-.4.1-.6-.2-.2-.5-.3-.7-.4-.6-.2-1.3-.1-1.8.4-.2.1-.3.3-.4.5l-.3.6c-.1.3-.1.6-.2.9 0 .6.1 1.3.3 1.9.2.3.4.5.6.8.2.3.5.3.8.4.4 0 .8 0 1.1-.3.3-.2.5-.4.6-.7.1-.4.2-.5.3-.8zM251.3 299.4c-.2.1-.5 0-.7.1-.1.4-.2.8-.2 1.2-.1.3-.1.5-.2.8-.2.7-.3 1.4-.4 2-.1.3-.2.7-.4 1-.2.1-.1.3.1.2h1c0-.2-.3-.3-.3-.5-.1-.2 0-.5 0-.7 0-.3.4-.1.6-.2h.8c0 .3.2.6.2.9.1.2-.3.5 0 .5.4 0 .8-.1 1.1-.1.4 0-.1-.3-.1-.5-.1-.4-.3-.8-.4-1.2-.2-.6-.3-1.1-.5-1.7-.2-.5-.3-1-.4-1.5.1-.1.1-.3-.2-.3zm-.5 1.2c.2.7.4 1.3.6 2 .1.3-.2.2-.4.2s-.4.1-.6 0c-.1-.2 0-.5.1-.7 0-.3.2-.6.2-.9 0-.2-.1-.4.1-.6zM257.5 299.2c-.5 0-1 .1-1.5.1-.1.2.3.2.2.4v1.2c0 1.1-.1 2.2-.1 3.3 0 .2-.4.5-.1.4.7 0 1.5.1 2.2-.1.2-.1.4-.2.6-.4.2-.2.4-.5.6-.8.1-.3.2-.7.2-1v-1.1c0-.3-.2-.6-.3-.9-.2-.2-.2-.4-.4-.6-.2-.2-.4-.3-.7-.5-.2.2-.4 0-.7 0zm.1.4c.3 0 .6.2.7.5.1.2.2.4.2.7.1.2 0 .5.1.8.1.5 0 .9-.1 1.4 0 .3-.1.7-.3 1-.1.2-.4.3-.6.4-.3.1-.6.1-.7-.3v-.9c0-1.1 0-2.1.1-3.2.1-.3.4-.4.6-.4zM262.2 299.4c-.3 0-.6.1-.9.3-.3.2-.5.5-.7.8-.2.4-.3.9-.4 1.3 0 .4-.1.8 0 1.2l.3.9c.1.4.4.7.7.9.2.1.5.3.8.3.5.1 1-.3 1.3-.7.2-.3.5-.7.6-1.1.1-.3.1-.7.2-1v-.8c0-.3-.2-.6-.3-1-.2-.3-.4-.7-.7-.9-.3-.1-.6-.2-.9-.2zm0 .3c.4 0 .6.4.7.8.1.3.1.6.1.9v1.5c-.1.3 0 .6-.2.9-.1.3-.2.6-.4.8-.2.1-.5.2-.7 0-.2-.1-.3-.4-.4-.7-.1-.4-.1-.8-.1-1.2 0-.6 0-1.2.1-1.7.1-.3.1-.6.3-.9.1-.2.4-.4.6-.4zM264.2 305.1c.3 0 .7.1 1 .1.2-.2-.3-.4-.2-.7 0-.3 0-.7.1-1 0-.3.1-.6.1-.9.1-.3.1-.6.2-.9 0-.3 0-.7.1-.8.2.3.1.6.2.9.1.3.1.7.1 1 .1.3.1.7.1 1 .1.3.1.6.1.9.1.2-.1.7.3.6.3.1.2-.3.4-.5.1-.5.2-1 .3-1.4.1-.3.1-.6.2-.8.1-.5.2-.9.4-1.3 0 1.3.1 2.6 0 3.9-.1.1-.4.4 0 .4.3 0 .7.1 1 .1.3.1.3-.2.1-.3-.2-.3-.1-.7-.1-1.1 0-.6-.1-1.3 0-1.9 0-.6 0-1.2.1-1.8.1-.1.4-.4.1-.4-.4 0-.8 0-1.2-.1 0 .3-.2.6-.2.9-.1.4-.2.7-.3 1.1 0 .3-.2.7-.2 1 0 .1-.1.3-.1.1 0-.3-.1-.6-.1-.9 0-.3-.1-.5-.1-.7 0-.5-.2-1-.2-1.5-.1-.2-.4-.1-.6-.2h-.6c.1.3.2.7.1 1 0 .3-.1.6-.1.9-.1.7-.3 1.3-.3 2-.1.2-.1.5-.2.7-.1.2-.1.4-.3.6-.2-.1-.2 0-.2 0zM269.4 305.7c.3.1.6.1.9.2.1 0 .5.1.5-.1-.1-.2-.3-.3-.2-.6 0-.3.1-.6.1-.9 0-.3.1-.5.1-.8 0-.6.1-1.2.1-1.8 0-.2 0-.5.1-.7 0-.2.1-.3.2-.3.1-.3-.3-.2-.5-.2-.3 0-.6-.1-1-.1-.1.1.2.2.2.4v.7c-.1.3-.1.7-.1 1 0 .3-.1.6-.1 1-.1.2-.1.5-.1.8 0 .3 0 .6-.1.9 0 .2-.1.4-.2.5.1-.1.1-.1.1 0zM271.2 306.1c.3 0 .5.1.7.1.1.1.4.1.3-.1-.1-.2-.2-.5-.2-.7 0-.5.1-.9.1-1.4 0-.3 0-.6.1-.9 0-.3 0-.6.1-.9.2.1.2.5.3.7.4 1.1.8 2.1 1.2 3.2.1.2.1.5.4.6.3.1.2-.2.2-.4 0-.3.2-.5.1-.8 0-.3.1-.6.1-.9.1-.3.1-.6.1-.9.1-.3.1-.6.1-.9 0-.3.1-.6.2-.9 0-.2.5-.4.2-.5-.3 0-.7-.2-.9-.1.1.2.3.4.2.7 0 .6-.1 1.2-.1 1.8-.1.3-.1.6-.1.9-.2-.2-.2-.6-.4-.8-.1-.3-.2-.7-.4-1-.1-.3-.2-.5-.3-.8-.2-.4-.3-.7-.4-1.1-.3 0-.7-.1-1-.2-.3.2.2.4.1.6.1.4 0 .9-.1 1.3 0 .3 0 .6-.1.9 0 .3 0 .6-.1.9 0 .3-.1.6-.1 1 0 .3-.3.4-.4.6.1-.1.1-.1.1 0zM276 301.5c0 .2.3.3.2.5 0 .3 0 .5-.1.8 0 .2 0 .5-.1.7 0 .4-.1.8-.1 1.2 0 .2-.1.5-.1.7 0 .2-.1.4-.1.5 0 .2 0 .3-.1.5-.1.1-.1.2-.2.2-.1.2.3.2.5.2.3.1.5.1.8.2.2.1.3-.1.1-.2-.2-.2 0-.6 0-.8 0-.2 0-.4.1-.6 0-.3 0-.6.1-.8 0-.2 0-.4.1-.6 0-.3 0-.6.1-.8 0-.2.1-.5.1-.7 0-.2.1-.4.3-.6-.2-.1-.4-.1-.6-.2-.2 0-.4-.1-.6-.1-.3-.1-.4-.1-.4-.1zM277.6 305.2c0 .3 0 .6.1.9.1.4.2.8.5 1.1.1.3.4.4.6.5.3.2.7.2 1 0 .2-.1.4-.1.5-.3.2-.2.5-.5.5-.8-.1-.3-.3.1-.5.2-.3.2-.8.3-1.1.1-.2-.2-.4-.4-.4-.7-.1-.3-.2-.5-.1-.8v-1.1c.1-.3.1-.6.2-.9.1-.2.2-.5.3-.7.1-.2.4-.3.6-.3.2 0 .4.3.5.4.2.2.2.5.2.8-.1.2.2.5.3.2.1-.3.3-.5.3-.8 0-.2-.3-.4-.5-.5l-.6-.3c-.4-.1-.8-.2-1.1.1-.2.1-.4.2-.6.4-.3.3-.4.6-.5.9-.1.3-.2.7-.3 1.1.1.3.1.4.1.5zM283.1 303.2l-.9 2.1c-.1.2-.2.5-.3.8-.2.4-.3.7-.5 1.1-.2.2-.2.6-.5.7-.2 0-.2.3 0 .3.3 0 .5.2.8.2.2-.1-.1-.3-.1-.5 0-.3.1-.5.2-.7.2-.2.5 0 .7 0 .2.1.5 0 .6.2v1.1c-.2.1-.2.4.1.4.2.1.5.1.7.2.1.1.4.1.3-.1-.2-.4-.1-.8-.1-1.1v-1c-.1-.3 0-.5 0-.8v-1.7-.8c-.5-.3-.8-.3-1-.4zm-.1 1.2v2.4c-.3 0-.6-.1-.9-.2-.2-.2.2-.5.2-.7.2-.4.3-.7.5-1.1.1-.2 0-.3.2-.4zM285.4 309.5c0-.3-.3-.6-.2-.9 0-.4.1-.8.2-1.2 0-.3.1-.5.1-.8.1-.3.2-.7.2-1 .1-.3.2.1.2.2.2.6.3 1.1.5 1.7.1.2.1.5.2.7.2.5.2.9.4 1.4 0 .3.1.6.5.6.1-.3.2-.7.3-1 .1-.3.1-.6.2-.9.1-.5.1-1 .3-1.5l.3-1.2c.1-.2.6-.4.2-.5-.3 0-.6-.3-.8-.2 0 .2.2.4.2.7 0 .3-.1.6-.1 1-.1.3-.2.5-.2.8-.1.3-.1.6-.2 1-.2-.2-.1-.6-.3-.8-.1-.4-.2-.7-.3-1.1-.1-.4-.2-.7-.3-1.1-.1-.3-.2-.5-.2-.8-.2-.3-.6-.3-.8-.4-.3-.1-.5 0-.2.3.1.5 0 1.1-.1 1.7-.1.5-.3.9-.3 1.4-.1.3-.1.6-.2.9-.1.3-.2.5-.4.7-.3.3.3.3.5.4-.1-.2.1-.1.3-.1zM290.7 305.9l-.6 1.2c-.2.4-.4.7-.6 1.1-.4.7-.8 1.3-1.2 2-.2.1-.4.4-.1.4.3.1.5.3.8.3.2-.1-.1-.4-.1-.5 0-.3.1-.5.2-.8.2-.1.4.1.6.2.2.1.7.1.6.4 0 .3 0 .7-.1 1-.2 0-.3.1-.1.2.2.1.4.1.6.2.2 0 .4.2.6.1-.1-.2-.2-.5-.1-.8v-1.3c0-.3.1-.6.1-.8 0-.9 0-1.8.1-2.8-.2.1-.4-.1-.7-.1zm-.2 1.1v2.5c-.2 0-.4-.1-.6-.2-.1-.1-.6-.2-.3-.4.2-.3.4-.6.5-1 .1-.3.3-.6.4-.9z"/></g></g></svg>
