<svg xmlns="http://www.w3.org/2000/svg" height="512" width="512" viewBox="0 0 512 512">
	<path fill="#6797d6" d="M-252 0h1023.878v511.934h-1023.878z" />
	<path fill="#fff" d="M272.096 87.152l40.118-.028-32.477 22.164 12.425 35.899-32.436-22.217-32.439 22.212 12.433-35.893-32.471-22.175 40.118.037 12.363-35.918m12.365 374.585l40.118.027-32.477-22.164 12.425-35.899-32.436 22.216-32.439-22.212 12.433 35.893-32.471 22.176 40.118-.037 12.363 35.917m-154.576-224.27l38.357-11.754-24.578 30.69 22.379 30.699-37.515-11.763-24.525 30.724 1.393-37.96-37.534-11.713 38.375-11.693 1.324-37.961m331.377 30.732l-38.359-11.754 24.579 30.69-22.38 30.699 37.516-11.763 24.527 30.723-1.395-37.96 37.534-11.713-38.374-11.693-1.324-37.961" />
</svg>
