<svg xmlns="http://www.w3.org/2000/svg" height="512" width="512" viewBox="0 0 512 512"><style>.prefix__st2{fill:#cf142b}.prefix__st3{fill:#00247d}</style><defs><path id="prefix__SVGID_3_" d="M0 0h512v512H0z"/></defs><clipPath id="prefix__SVGID_1_"><use xlink:href="#prefix__SVGID_3_" overflow="visible"/></clipPath><g clip-path="url(#prefix__SVGID_1_)"><path id="prefix___x31_4_1_" fill="#fff" d="M-256 0H767.5v511.9H-256z"/><path id="prefix___x31_3_1_" class="prefix__st2" d="M204.6 307v204.9h102.3V307h460.6V204.7H306.9V0H204.6v204.7H-256V307z"/><path id="prefix___x31_2_1_" class="prefix__st3" d="M341 165.7V0h331.4z"/><path id="prefix___x31_1_1_" class="prefix__st3" d="M341 346.2v165.7h331.4z"/><path id="prefix___x31_0_1_" class="prefix__st3" d="M170.4 346.2v165.7h-331.3z"/><path id="prefix___x39__1_" class="prefix__st3" d="M170.4 165.7V0h-331.3z"/><path id="prefix___x38__1_" class="prefix__st3" d="M-256 47.6v123H-9.9z"/><path id="prefix___x37__1_" class="prefix__st3" d="M767.5 47.6v123H521.4z"/><path id="prefix___x36__1_" class="prefix__st3" d="M767.5 464.4V341.3H521.4z"/><path id="prefix___x35__1_" class="prefix__st3" d="M-256 464.4V341.3H-9.9z"/><path id="prefix___x34__1_" class="prefix__st2" d="M767.5 0h-56.9L370 170.6h56.9L768 0"/><path id="prefix___x33_" class="prefix__st2" d="M141.5 341.3H84.6L-256 511.9h56.8L142 341.3"/><path id="prefix___x32__1_" class="prefix__st2" d="M28.2 170.8h56.9L-256 0v28.6z"/><path id="prefix___x31__1_" class="prefix__st2" d="M483.1 341.2h-56.9L767.3 512v-28.6z"/></g></svg>
