<svg xmlns="http://www.w3.org/2000/svg" height="512" width="512" viewBox="0 0 512 512"><defs><clipPath id="a"><path fill-opacity=".67" d="M0 0h666v666h-666z"/></clipPath></defs><g fill-rule="evenodd" clip-path="url(#a)"><path fill="#0d5eaf" d="M0 0h769.23v56.98h-769.23z"/><path fill="#fff" d="M0 56.98h769.23v56.98h-769.23z"/><path fill="#0d5eaf" d="M0 113.96h769.23v56.98h-769.23z"/><path fill="#fff" d="M0 170.94h769.23v56.98h-769.23z"/><path fill="#0d5eaf" d="M0 227.92h769.23v56.98h-769.23z"/><path fill="#fff" d="M0 284.9h769.23v56.98h-769.23z"/><path fill="#0d5eaf" d="M0 341.88h769.23v56.98h-769.23z"/><path fill="#fff" d="M0 398.86h769.23v56.98h-769.23z"/><path fill="#0d5eaf" d="M0 455.84h769.23v56.98h-769.23zm0-455.84h284.9v284.9h-284.9z"/><g fill="#fff"><path d="M113.96 0h56.98v284.9h-56.98zM0 113.96h284.9v56.98h-284.9z"/></g></g></svg>