<svg xmlns="http://www.w3.org/2000/svg" height="512" width="512" viewBox="0 0 512 512"><path fill="#006" d="M0 0h512v512h-512z"/><path fill="#fff" d="M0 0v19.214l234.01 152.64h29.456v-19.215l-234.01-152.639h-29.456zm263.466 0v19.213l-234.01 152.64h-29.456v-19.214l234.01-152.639h29.456zM109.777 0v171.852h43.91v-171.852h-43.91zm-109.777 57.284v57.284h263.466v-57.284h-263.466z"/><path fill="#c00" d="M0 68.74v34.37h263.466v-34.37h-263.466zm118.56-68.74v171.852h26.346v-171.852h-26.346zm-118.56 171.852l87.822-57.284h19.637l-87.823 57.284h-19.636zm0-171.852l87.822 57.284h-19.637l-68.185-44.474v-12.81zm156.007 57.284l87.823-57.284h19.636l-87.822 57.284h-19.637zm107.46 114.568l-87.823-57.284h19.637l68.186 44.475v12.81z"/><path fill-rule="evenodd" fill="#fff" d="M69.113 443.57l-16.34 17.194 3.256-23.495-23.63-2.055 20.394-12.106-13.122-19.755 22.177 8.398 7.263-22.578 7.264 22.578 22.177-8.398-13.122 19.754 20.394 12.105-23.63 2.054 3.257 23.494m295.074 6.06l-11.507 12.1 2.295-16.535-16.635-1.448 14.36-8.525-9.244-13.907 15.62 5.914 5.11-15.9 5.11 15.9 15.622-5.915-9.243 13.907 14.36 8.525-16.636 1.448 2.295 16.536m-11.507-259.56l-11.507 12.1 2.295-16.535-16.635-1.448 14.36-8.524-9.244-13.91 15.62 5.915 5.11-15.896 5.11 15.896 15.622-5.914-9.243 13.91 14.36 8.523-16.636 1.448 2.295 16.536m-104.305 88.429l-11.506 12.102 2.296-16.537-16.636-1.447 14.36-8.525-9.243-13.908 15.62 5.915 5.11-15.9 5.11 15.9 15.62-5.915-9.24 13.908 14.358 8.525-16.636 1.447 2.294 16.537m163.756-36.847l-11.506 12.1 2.29-16.536-16.612-1.448 14.384-8.525-9.26-13.908 15.632 5.914 5.073-15.9 5.136 15.9 15.59-5.915-9.218 13.907 14.353 8.525-16.64 1.447 2.288 16.536m-63.395 41.651l-8.172-6.898 10.67-.785 4.04-9.905 4.04 9.905 10.672.785-8.172 6.898 2.555 10.387-9.094-5.636-9.094 5.636"/></svg>