<svg xmlns="http://www.w3.org/2000/svg" height="512" width="512" viewBox="0 0 512 512"><style>.prefix__st0{fill:red}.prefix__st1{fill:#fff}.prefix__st2{fill:#171796}.prefix__st3{fill:#0093dd}.prefix__st4{fill:#f7db17}</style><path class="prefix__st0" d="M-256 0H768v170.7H-256z"/><path class="prefix__st1" d="M-256 170.7H768v170.7H-256z"/><path class="prefix__st2" d="M-256 341.3H768V512H-256z"/><path class="prefix__st0" d="M256 388.4c54.7 0 99.5-44.8 99.5-99.5V170.6h-199v118.3c0 54.7 44.8 99.5 99.5 99.5z"/><path class="prefix__st1" d="M256 386.8c53.7 0 97.6-43.9 97.6-97.6V172.5H158.4v116.7c0 53.7 43.9 97.6 97.6 97.6z"/><path class="prefix__st0" d="M352.4 170.6l23.9-54.1L358 86.9l-29.5 10.9-20.7-23.7-27.3 15.6L256 69.9l-24.3 19.9-27.3-15.6-20.7 23.7L154.2 87l-18.4 29.6 23.8 54.1c29.4-13.4 62-20.9 96.4-20.9 34.3-.1 67 7.4 96.4 20.8z"/><path class="prefix__st1" d="M352 169.4l23.3-52.8-17.7-28.7-29.4 10.9-20.6-23.6-27.2 15.6L256 71l-24.3 19.9-27.2-15.6-20.6 23.6L154.5 88l-17.8 28.7 23.3 52.8c29.3-13.3 61.8-20.7 96-20.7s66.7 7.4 96 20.6z"/><path id="prefix___x32_25" class="prefix__st3" d="M350.9 166.9l22.1-50.1-16.3-26.3-29.1 10.8-13.5 53c12.7 3.1 25 7.4 36.8 12.6z"/><path id="prefix___x32_24" class="prefix__st0" d="M357.7 151.4l5.7-12.9c-13.4-5.9-27.3-10.7-41.7-14.4l-3.4 13.2c13.6 3.5 26.8 8.1 39.5 13.7l-.1.4z"/><path id="prefix___x32_23" class="prefix__st2" d="M232 93.2l-27-15.4-20.4 23.3 13.4 53c12.5-3.2 25.4-5.3 38.5-6.4L232 93.2z"/><path id="prefix___x32_22" class="prefix__st2" d="M327.6 101.2L307 77.8l-26.9 15.4-4.5 54.5c13.2 1.1 26 3.3 38.5 6.4l13.5-52.9z"/><path id="prefix___x32_21" class="prefix__st3" d="M184.5 101.2l-29.2-10.7-16.3 26.3 6.3 14.2 15.8 35.9c11.8-5.2 24.2-9.5 36.9-12.8l-13.5-52.9z"/><path id="prefix___x32_20" class="prefix__st1" d="M255.9 382.8c51.7 0 93.9-42.3 93.9-93.9V176.2H162v112.7c0 51.7 42.3 93.9 93.9 93.9z"/><path id="prefix___x32_19" class="prefix__st0" d="M199.6 176.2H162v41.3h37.6z"/><path id="prefix___x32_18" class="prefix__st0" d="M199.6 258.8h37.6v-41.3h-37.6z"/><path id="prefix___x32_17" class="prefix__st0" d="M162 289c0 3.7.2 7.4.7 11.1h36.9v-41.3H162V289z"/><path id="prefix___x32_16" class="prefix__st0" d="M274.8 258.8h-37.6v41.3h37.6z"/><path id="prefix___x32_15" class="prefix__st0" d="M274.8 341.3h37.5v-41.2h-37.5z"/><path id="prefix___x32_14" class="prefix__st0" d="M312.3 363.9c8.3-6.3 15.6-13.9 21.5-22.6h-21.5v22.6z"/><path id="prefix___x32_13" class="prefix__st0" d="M199.6 341.3h37.6v-41.2h-37.6z"/><path id="prefix___x32_12" class="prefix__st0" d="M178.1 341.3c5.9 8.7 13.1 16.3 21.5 22.6v-22.6h-21.5z"/><path id="prefix___x32_11" class="prefix__st0" d="M262.5 382.6c4.2-.3 8.2-.9 12.2-1.7v-39.6h-37.6v39.6c4 .8 8.1 1.4 12.2 1.7 4.5.3 8.8.3 13.2 0z"/><path id="prefix___x32_10" class="prefix__st0" d="M349.2 300.1c.4-3.6.7-7.4.7-11.1v-30.2h-37.5v41.3h36.8z"/><path id="prefix___x32_09" class="prefix__st0" d="M274.8 258.8h37.5v-41.3h-37.5z"/><path id="prefix___x32_08" class="prefix__st0" d="M274.8 176.2h-37.6v41.3h37.6z"/><path id="prefix___x32_07" class="prefix__st0" d="M349.9 217.5v-41.3h-37.6v41.3z"/><path id="prefix___x32_06" class="prefix__st1" d="M182.9 127.2c1 2 1.6 4.2 1.6 6.6 0 7.9-6.4 14.3-14.3 14.3-6.9 0-12.7-5-14-11.5 2.5 4.4 7.1 7.3 12.5 7.3 7.9 0 14.3-6.4 14.3-14.3.1-.9 0-1.6-.1-2.4z"/><path id="prefix___x32_05" d="M184.6 133.8h-.3V130.8l-.1-.2-.1-.2-.1-.2-.1-.2-.1-.2-.1-.2-.1-.2-.1-.2-.1-.2-.1-.2-.1-.2-.1-.2-.1-.2-.1-.2-.1-.2-.1-.2-.1-.2.3-.1.1.2.1.2.1.2.1.2.1.2.1.2.1.2.1.2.1.2.1.2.1.2.1.2.1.2.1.2.1.2.1.2.1.2v3.1zm-14.4 14.4v-.3h.7l.7-.1.7-.1.7-.1.7-.2.7-.2.7-.2.6-.3.6-.3.6-.3.6-.3.6-.4.6-.4.5-.4.5-.4.5-.5.5-.5.4-.5.4-.5.4-.6.4-.6.3-.6.3-.6.3-.6.3-.6.2-.7.2-.7.2-.7.1-.7.1-.7.1-.7v-.7h.3v.7l-.1.7-.1.7-.1.7-.2.7-.2.7-.2.7-.3.7-.3.6-.3.6-.3.6-.4.6-.4.6-.4.5-.5.5-.5.5-.5.5-.5.5-.5.4-.6.4-.6.4-.6.3-.6.3-.6.3-.7.3-.7.2-.7.2-.7.2-.7.1-.7.1-.7.1-.8.1zm-13.8-11.7l-.3.1.3-.1.1.6.2.6.2.6.2.6.2.6.3.5.3.5.3.5.3.5.3.5.4.5.4.5.4.4.4.4.4.4.5.4.5.4.5.4.5.3.5.3.5.3.5.3.6.2.6.2.6.2.6.2.6.1.6.1.6.1.6.1h1.2v.3H169l-.6-.1-.6-.1-.6-.1-.6-.2-.6-.2-.6-.2-.6-.2-.6-.3-.6-.3-.5-.3-.5-.3-.5-.3-.5-.4-.5-.4-.5-.4-.4-.4-.4-.4-.4-.5-.4-.5-.4-.5-.3-.5-.3-.5-.3-.5-.3-.5-.3-.6-.2-.6-.2-.6-.2-.6-.2-.6-.1-.6.2.1zm-.3.1l-.2-.9.5.8-.3.1zm12.6 7.1v.3h-1.5l-.5-.1-.5-.1-.5-.1-.5-.1-.5-.1-.5-.1-.5-.2-.4-.2-.4-.2-.4-.2-.4-.2-.4-.2-.4-.2-.4-.2-.4-.3-.4-.3-.4-.3-.4-.3-.4-.3-.3-.3-.3-.3-.3-.3-.3-.4-.3-.4-.3-.4-.3-.4-.3-.4-.3-.4-.2-.4.3-.1.2.4.2.4.3.4.3.4.3.4.3.4.3.3.3.3.3.3.3.3.3.3.4.3.4.3.4.3.4.3.4.2.4.2.4.2.4.2.4.2.4.2.4.2.4.1.5.1.5.1.5.1.5.1.5.1.5.1h1.5zm14.2-14.2h.3v.7l-.1.7-.1.7-.1.7-.2.7-.2.7-.2.7-.3.7-.3.6-.3.6-.3.6-.4.6-.4.6-.4.5-.5.5-.5.5-.5.5-.5.5-.5.4-.6.4-.6.4-.6.3-.6.3-.6.3-.7.3-.7.2-.7.2-.7.2-.7.1-.7.1-.7.1h-.7v-.3h.7l.7-.1.7-.1.7-.1.7-.2.7-.2.7-.2.6-.3.6-.3.6-.3.6-.3.6-.4.6-.4.5-.4.5-.4.5-.5.5-.5.4-.5.4-.5.4-.6.4-.6.3-.6.3-.6.3-.6.3-.6.2-.7.2-.7.2-.7.1-.7.1-.7.1-.7-.1-.6zm.1-2.3l-.3.1.3-.1V130.4h-.3V127.2h.3zm-.3 0l-.1-.9.4.8-.3.1z"/><path id="prefix___x32_04" class="prefix__st0" d="M194.7 141c13.2-3.4 26.8-5.7 40.7-6.8l-1.1-13.8c-14.7 1.2-29.1 3.6-43 7.2l3.4 13.4z"/><path id="prefix___x32_03" class="prefix__st0" d="M187.9 114.4c14.7-3.7 29.8-6.3 45.2-7.6L232 93.3c-16.2 1.3-32.1 4-47.4 7.9l3.3 13.2z"/><path id="prefix___x32_02" class="prefix__st1" d="M318.4 137.3c13.6 3.5 26.8 8.1 39.5 13.7l-1.6 3.6c-12.5-5.5-25.5-10-38.9-13.5l1-3.8zm45 1.2l1.5-3.3c-13.5-6-27.6-10.9-42.2-14.6l-.9 3.5c14.3 3.6 28.3 8.5 41.6 14.4z"/><path id="prefix___x32_01" d="M160.5 105.7l.2.1 3.9 3.5 5-1.7.2-.1v.2l-1 5.1 3.9 3.5.2.1-.3.1-4.9 1.7-1 5.1v.3l-.2-.2-4-3.4-4.9 1.7h-.2v-.2l1-5.1-3.9-3.4-.2-.2.2-.1 5-1.7 1-5.1z"/><path id="prefix___x32_00" class="prefix__st4" d="M163.9 114.6l8.3 1.6-3.7-3.2z"/><path id="prefix___x31_99" class="prefix__st4" d="M155 112.9l8.3 1.6-3.7-3.2z"/><path id="prefix___x31_98" class="prefix__st4" d="M163.3 114.6L155 113l3.7 3.2z"/><path id="prefix___x31_97" class="prefix__st4" d="M172.2 116.4l-8.3-1.6 3.7 3.2z"/><path id="prefix___x31_96" class="prefix__st4" d="M163.7 114.3l5.6-6.3-4.6 1.5z"/><path id="prefix___x31_95" class="prefix__st4" d="M157.8 121.2l5.5-6.4-4.6 1.6z"/><path id="prefix___x31_94" class="prefix__st4" d="M163.4 114.9l-5.5 6.4 4.6-1.6z"/><path id="prefix___x31_93" class="prefix__st4" d="M169.4 108.1l-5.5 6.3 4.6-1.5z"/><path id="prefix___x31_92" class="prefix__st4" d="M163.4 114.4l-2.7-8-1 4.7z"/><path id="prefix___x31_91" class="prefix__st4" d="M166.3 122.9l-2.7-8-.9 4.8z"/><path id="prefix___x31_90" class="prefix__st4" d="M163.8 114.9l2.7 8 .9-4.8z"/><path id="prefix___x31_89" class="prefix__st4" d="M160.8 106.3l2.8 8 .9-4.8z"/><path id="prefix___x31_88" d="M353.7 99.2l-.2.1-3.9 3.5-5-1.7-.2-.1v.2l1 5.2-4 3.5-.1.1.2.1 4.9 1.7 1.1 5.2v.2l.2-.2 4-3.4 4.9 1.7.3.1-.1-.3-1-5.1 4-3.5.2-.1-.3-.1-4.9-1.7-1-5.2z"/><path id="prefix___x31_87" class="prefix__st4" d="M350.3 108.2l-8.4 1.6 3.7-3.2z"/><path id="prefix___x31_86" class="prefix__st4" d="M359.3 106.4l-8.4 1.7 3.7-3.3z"/><path id="prefix___x31_85" class="prefix__st4" d="M350.9 108.2l8.4-1.6-3.7 3.2z"/><path id="prefix___x31_84" class="prefix__st4" d="M342 110l8.3-1.7-3.7 3.3z"/><path id="prefix___x31_83" class="prefix__st4" d="M350.5 107.9l-5.6-6.4 4.6 1.6z"/><path id="prefix___x31_82" class="prefix__st4" d="M356.5 114.8l-5.6-6.4 4.6 1.6z"/><path id="prefix___x31_81" class="prefix__st4" d="M350.7 108.5l5.6 6.4-4.6-1.6z"/><path id="prefix___x31_80" class="prefix__st4" d="M344.8 101.6l5.5 6.4-4.6-1.6z"/><path id="prefix___x31_79" class="prefix__st4" d="M350.8 107.9l2.8-8 .9 4.8z"/><path id="prefix___x31_78" class="prefix__st4" d="M347.8 116.6l2.8-8.1.9 4.9z"/><path id="prefix___x31_77" class="prefix__st4" d="M350.4 108.5l-2.7 8-1-4.8z"/><path id="prefix___x31_76" class="prefix__st4" d="M353.4 99.8l-2.8 8.1-.9-4.9z"/><path id="prefix___x31_75" class="prefix__st3" d="M280.1 93.2L256 73.6l-24 19.7 4.5 54.5c6.4-.5 12.9-.8 19.5-.8s13.1.3 19.6.8l4.5-54.6z"/><path id="prefix___x31_74" d="M255.9 117.7s-.1 0-.2.1c-.5.6-.9 1.2-1.4 1.8-.5.2-.6.5-.4.9-.7-.1-.7.5-.8 1.1-.6-1-1.3-1.2-2.1-.8 0-.6-.5-.9-1.1-1-.5 0-.8-.2-1.1-.4-.2-.1-.3-.2-.4-.3-.3-.2-.6 0-.4.2.7 1.1 1.4 2.2 2 3.3 0 .2 0 .4.2.5.1.3.2.7.4 1 0 .1-.1.2-.1.3-.6-.3-1.1-.3-1.7-.3-.4 0-.7-.1-.9-.3-.1-.2-.2-.1-.2.2 0 1.3.4 2.6 1.5 3.8-.6 0-1.2 0-1.8.1-.2 0-.2.1-.2.3.3.8.9 1.5 2.1 1.9-.5.3-.8.7-.9 1.3 0 .6-.2 1-.5 1.2-.2.1-.2.2-.1.3.6.5 1.4.5 2.3.3-.4.7-.6 1.4-.5 2.1.5.1 1 0 1.6-.1-.1.2-.1.4-.1.8 0 .3-.1.6-.3.9-.1.1-.2.2 0 .3.8.2 1.6.1 2.3-.1 0 .6 0 1.2.2 1.8 0 .1.2.3.3.1.4-.5.8-1 1.3-1.3.1.2.2.4.4.5.2.1.4.4.4.9 0 .1 0 .2.1.2.4 0 1.3-1 1.5-1.5.5.3.7.6 1.1 1.2.1.2.2.1.3-.1.2-.6.2-1.2.2-1.8.7.3 1.5.3 2.3.1.2 0 .1-.2 0-.3-.2-.3-.3-.6-.3-.9 0-.3 0-.6-.1-.7.5.2 1 .3 1.6.1.1-.8-.1-1.5-.5-2.1.8.2 1.7.2 2.3-.3.1-.1.1-.2-.1-.3-.3-.2-.5-.6-.5-1.2-.1-.6-.4-1-.9-1.3 1.2-.5 1.8-1.2 2.1-1.9.1-.2 0-.3-.2-.3-.6 0-1.2-.1-1.8-.1 1.1-1.2 1.5-2.4 1.5-3.8 0-.3-.1-.4-.2-.2-.2.2-.5.3-.9.4-.6 0-1.1.1-1.7.3 0-.1-.1-.2-.1-.3.1-.3.3-.7.4-1 .2-.1.3-.3.2-.5.7-1.1 1.3-2.2 2-3.3.1-.2-.1-.4-.4-.2-.2.1-.3.2-.4.3-.3.2-.6.3-1.1.4-.6.1-1.1.4-1.1 1-.7-.4-1.4-.2-2.1.8 0-.6-.1-1.2-.8-1.1.2-.4 0-.7-.5-.9-.5-.6-1.2-1.2-1.6-1.8 0-.2 0-.3-.1-.3z"/><path id="prefix___x31_73" class="prefix__st4" d="M262.3 121.3c-.1-.1-.3 0-.4.2-.1.2-.1.4 0 .5.1.1.2 0 .3-.1l.1-.1c.1-.2.2-.5 0-.5z"/><path id="prefix___x31_72" class="prefix__st4" d="M249.7 121.3c.1-.1.3 0 .4.2.1.2.1.4 0 .5-.1.1-.3-.1-.4-.3-.1-.2-.1-.4 0-.4z"/><path id="prefix___x31_71" class="prefix__st4" d="M261.2 123.6c-.1 0-.1.1-.1.1 0 .1.1.1.1.1.1 0 .1-.1.1-.1 0-.1-.1-.1-.1-.1z"/><path id="prefix___x31_70" class="prefix__st4" d="M251 123.6c-.1 0-.1.1-.1.1 0 .1.1.1.1.1.1 0 .1-.1.1-.1 0-.1 0-.1-.1-.1z"/><path id="prefix___x31_69" class="prefix__st4" d="M261.8 122.8a54.413 54.413 0 00-11.4 0c-.1 0-.1.2 0 .2 1.9-.2 3.8-.3 5.7-.3 1.9 0 3.8.1 5.6.3.1 0 .2-.2.1-.2z"/><path id="prefix___x31_68" class="prefix__st4" d="M250.3 122.6c1.9-.2 3.9-.3 5.8-.3s3.8.1 5.7.3l.3-.5h-.2c-.2-.1-.2-.4-.1-.7.1-.3.4-.4.6-.3.1 0 .2.2.2.3l1.1-1.9c-.5.3-.8.5-1.5.6-.7.1-1 .4-.9.8.1.4-.1.3-.5.1-.8-.4-1.4.2-1.6.9-.2.5-.4.5-.4 0v-.5c-.1-.6-.2-.7-.5-.6-.4.2-.4.1-.3-.1.1-.2.2-.3.2-.6 0-.2-.2-.2-.4-.2-.5-.6-1.2-1.2-1.6-1.8-.5.6-.9 1.2-1.4 1.8-.2 0-.4.1-.4.2-.1.2.1.4.2.5.1.2.1.3-.3.1-.3-.2-.5 0-.5.6v.5c0 .5-.2.5-.4 0-.3-.7-.9-1.3-1.7-.9-.4.2-.5.3-.5-.1.1-.4-.3-.7-1-.8-.6-.1-1-.3-1.5-.6l1.1 1.7c0-.1.1-.1.1-.1.2-.1.5.1.6.3.1.3.1.6-.1.7h-.1v.6z"/><path id="prefix___x31_67" class="prefix__st4" d="M261.4 124.9c-.2.1-.3.2-.4.3-.1.2-.3.3-.5.5h-.1v-.1c.2-.2.4-.3.5-.5.1-.1.1-.2.2-.2-.2 0-.5-.1-.7-.1-.2.1-.4.1-.6.2-.1.1-.3.2-.3.3 0 0 0 .1-.1 0-.1 0 0-.1 0-.1.1-.1.2-.3.4-.4.1-.1.2-.1.3-.1-.3 0-.5 0-.8-.1-.1 0-.1.1-.2.1s-.1.1-.1.2c0 0 0 .1-.1 0-.1 0 0-.1 0-.1 0-.1.1-.1.2-.2h-.6c-.1 0-.1.1-.1.1 0 .1-.1.1-.1.2 0 0 0 .1-.1 0-.1 0-.1-.1 0-.1 0-.1.1-.1.1-.2 0 0 0-.1.1-.1h-.9c-.1 0-.1.1-.2.1 0 0-.1.1-.1.2 0 0 0 .1-.1 0-.1 0-.1-.1 0-.1 0-.1.1-.1.1-.2h.1-1.8l.1.1c.1.1.1.1.1.2v.1h-.1c0-.1-.1-.1-.1-.2 0 0-.1-.1-.2-.1h-.9l.1.1c0 .1.1.1.1.2v.1h-.1c0-.1-.1-.1-.1-.2s-.1-.1-.1-.1h-.6l.2.2v.1h-.1c0-.1-.1-.1-.1-.2-.1 0-.1-.1-.2-.1-.3 0-.6 0-.8.1.1 0 .2.1.3.2.2.1.3.2.4.4v.1h-.1l-.3-.3-.6-.3c-.2 0-.5 0-.7.1.1.1.1.2.2.3l.5.5s.1 0 0 .1c0 .1-.1 0-.1 0-.2-.2-.4-.3-.5-.5-.1-.1-.3-.3-.3-.4-.5-.2-.9-.3-1.5-.4-.4 0-.8 0-1.2-.2l.3.6c.1.2.3.3.5.4 0 0 .1 0 .1.1.1.4.2.7.4 1 .1.2.3.3.5.4-.2-.2-.3-.4-.4-.6-.2-.4-.2-.7-.2-1.1 0 0 0-.1.1-.1s.1 0 .1.1c0 .3 0 .6.2 1 .1.3.4.6.7.9.1 0 0 .2-.1.1-.4-.1-.7-.3-1-.6-.2-.3-.4-.6-.5-1-.2-.1-.4-.2-.6-.4-.1-.2-.2-.3-.3-.5.1 1.1.5 2 1.2 2.9.2.2.4.5.6.5.2.1.2.3-.1.3h-.3l.6.3c.3.2.5.4.6.7 0 0 0 .1-.1.1s-.1 0-.1-.1c0-.2-.2-.4-.5-.6-.3-.2-.7-.3-1-.4h-1.2c.1.1.2.1.3.2.2.1.5.2.9.3.2.1.4.1.6.2.2.1.3.2.4.4 0 0 .1.1 0 .1-.1.1-.1 0-.1 0-.1-.1-.2-.2-.4-.3-.2-.1-.3-.2-.5-.2-.4-.1-.7-.2-.9-.3-.2-.1-.3-.2-.5-.3.5 1 1.1 1.4 2.1 1.7h.2c.2.1.4.1.7.1.2 0 .4.1.7.1 0 0 .1 0 .1.1s0 .1-.1.1c-.3 0-.4-.1-.7-.1-.1 0-.3-.1-.4-.1h-.3c-.6 0-1.1.6-1.1 1.2.2-.2.5-.4.7-.5.3-.2.6-.3.9-.2 0 0 .1 0 .1.1s-.1.1-.1.1c-.3-.1-.5 0-.8.2-.3.2-.5.4-.8.6-.1.4-.2.7-.5 1 .2.1.3.2.4.1.2-.1.4-.2.7-.3.2-.1.5-.1.7-.1 0 0 .1 0 .1.1s0 .1-.1.1c-.2 0-.5.1-.7.1-.2.1-.4.1-.6.2.6.1 1.2 0 1.7-.2.2-.1.3-.1.3-.1.1-.1.3-.1.4-.2.2-.1.3-.1.5-.1 0 0 .1 0 .1.1s0 .1-.1.1c-.3 0-.3.1-.6.2 0 .1-.2.1-.3.2-.1.1-.2.1-.2.2-.2.2-.4.5-.5.7-.1.2-.1.4-.2.6.1-.3.3-.5.5-.8.2-.3.5-.5.9-.7h.1v.1c-.3.2-.6.4-.8.6l-.6.9-.1.2c.3-.3.5-.6.8-.8.3-.3.7-.4 1.1-.3 0 0 .1 0 .1.1s-.1.1-.1.1c-.3-.1-.6.1-.9.3-.3.2-.6.6-.9.9.5.1.9-.1 1.4-.2.2-.1.5-.3.6-.4 0-.1.1-.1.1-.2l.3-.3s.1-.1.1 0c.1.1 0 .1 0 .1l-.2.2c-.1.1-.2.2-.2.3h-.1c-.2.2-.4.4-.4.6-.1.5-.1.9-.3 1.5.2-.1.3-.2.4-.3.1-.2.2-.3.3-.6.1-.3.2-.5.4-.7.2-.2.4-.3.7-.4h.1v.1c-.2.1-.4.2-.6.4-.2.2-.3.4-.4.6-.1.3-.2.5-.4.6-.1.1-.2.2-.4.3h.3c.2 0 .5-.2.7-.3.2-.1.3-.3.4-.5 0 0 0-.1.1 0 .1 0 .1.1 0 .1-.1.2-.3.4-.4.6-.1.1-.3.2-.5.2.4 0 .8-.1 1.2-.3.2-.1.2-.4.3-.5.1-.1.2-.3.3-.4.1-.1.3-.3.4-.3h.1v.1c-.1.1-.2.2-.4.3-.1.1-.2.2-.2.4s-.1.6-.1.8c0 .5 0 1 .1 1.5.1-.2.3-.3.4-.5 0-.3.1-.6.1-.8v-.8s0-.1.1-.1.1 0 .1.1v.9c0 .2 0 .5-.1.7.1-.1.1-.1.2-.3.1-.2.1-.4.2-.6v-.6s0-.1.1-.1.1 0 .1.1c0 .2.1.4 0 .6 0 .2-.1.3-.1.5.1-.1.3-.2.5-.3v-.6-.5c0-.1 0-.1.1-.1s.1.1.1.1v1c0 .2.1.5.3.6.3.2.4.4.5.7v-1c0-.4-.1-.7-.3-.9v-.1h.1c.2.3.3.6.3 1v1.2c.3-.2 1-.7.9-1.5 0-.1 0-.1-.1-.2v-.1h.1c0 .1.1.2.1.3v.2l.1-.1c.1 0 .1.1.2.1-.1-.2-.1-.3-.1-.4v-.6s0-.1.1-.1.1.1.1.1c0 .2-.1.4 0 .6 0 .2.1.4.2.6v.1l.2.2c0-.2-.1-.4-.1-.6v-.9s0-.1.1-.1.1 0 .1.1v.8c0 .3.1.6.1.8.1.1.2.3.4.5.1-.5.2-1 .2-1.5 0-.2-.2-.6-.2-.8-.1-.1-.2-.3-.3-.4-.1-.1-.2-.2-.4-.3 0 0-.1 0 0-.1 0-.1.1-.1.1 0 .2.1.3.2.4.3.1.1.2.2.3.4.1 0 .2.5.4.5.4.1.8.2 1.1.3-.2 0-.4-.1-.5-.2-.2-.1-.3-.3-.4-.6v-.1h.1c.1.2.2.4.4.5.2.2.7.3 1 .3-.2-.1-.3-.2-.4-.3-.1-.2-.3-.4-.4-.6-.1-.2-.2-.5-.4-.6-.2-.2-.4-.3-.6-.4 0 0-.1 0 0-.1 0-.1.1-.1.1 0 .2.1.5.2.7.4.2.2.3.4.4.7l.3.6c.1.1.3.2.4.3-.2-.5-.2-.9-.3-1.5-.1-.3-.6-.7-.5-.8.1-.1.3.2.6.3.4.1.9.3 1.4.2-.3-.3-.6-.7-.9-.9-.3-.2-.6-.4-.9-.3 0 0-.1 0-.1-.1s0-.1.1-.1c.3-.1.7.1 1 .3.3.2.5.4.8.8 0-.1 0 0-.1-.2-.1-.3-.3-.6-.6-.9-.2-.3-.5-.5-.8-.6 0 0-.1 0 0-.1 0-.1.1-.1.1 0 .3.2.6.4.9.7.2.2.4.5.5.8 0-.2-.1-.4-.2-.6-.1-.3-.2-.5-.5-.7-.2-.1-.5-.4-.5-.5-.1 0-.1 0-.2-.1-.2-.1-.3-.1-.4-.1 0 0-.1 0-.1-.1s0-.1.1-.1.3.1.5.1c.1 0 .2.1.2.2.1 0 .4.1.5.2.5.2 1.1.3 1.7.2-.2-.1-.4-.2-.6-.2-.2-.1-.4-.1-.7-.1 0 0-.1 0-.1-.1s0-.1.1-.1c.2 0 .5.1.7.1.2.1.4.2.7.3.1.1.3 0 .4-.1-.3-.2-.5-.6-.5-1-.3-.2-.5-.5-.8-.6-.3-.2-.5-.2-.8-.2 0 0-.1 0-.1-.1s0-.1.1-.1c.3-.1.6 0 .9.2.2.1.5.3.7.5 0-.7-.5-1.2-1.1-1.2-.2 0-.5.1-.5-.1 0-.1.2-.1.6-.2 1-.3 1.7-.7 2.1-1.7-.1.1-.3.2-.5.3-.2.1-.5.2-.9.3-.2 0-.4.1-.5.2-.2.1-.3.2-.4.3 0 0-.1.1-.1 0-.1-.1 0-.1 0-.1l.4-.4c.2-.1.4-.2.6-.2.4-.1.7-.2.9-.3.1-.1.2-.1.3-.2h-1.2c-.4.1-.7.2-1 .4-.3.2-.5.3-.5.6 0 0 0 .1-.1.1s-.1 0-.1-.1c0-.3.2-.5.6-.7l.6-.3h-.3c-.3 0-.3-.2-.1-.3.2-.1.5-.4.6-.5.7-.8 1-1.8 1.2-2.9-.1.2-.2.4-.3.5-.1.2-.3.3-.6.4-.1.4-.2.7-.5 1-.2.3-.5.5-.9.6-.1 0-.1-.1-.1-.1.3-.3.6-.6.7-.9.2-.3.2-.7.2-1 0 0 0-.1.1-.1s.1 0 .1.1c0 .3 0 .7-.2 1.1-.1.2-.2.4-.4.6.2-.1.3-.2.5-.4.2-.3.4-.6.4-1 0 0 0-.1.1-.1.2-.1.4-.2.5-.4l.3-.6c-.4.2-.8.2-1.2.2-.9.2-1.3.4-1.8.6z"/><path id="prefix___x31_66" class="prefix__st4" d="M261.3 124.4a45.33 45.33 0 00-10.4 0c-.1 0 0 .1 0 .1 0 .1.1.1.3.1 1.6-.2 3.2-.2 4.9-.2 1.7 0 3.4.1 5.2.3 0 0 .1-.3 0-.3z"/><path id="prefix___x31_65" class="prefix__st4" d="M251 124.3c1.7-.2 3.4-.3 5.2-.3 1.7 0 3.4.1 5.1.3l.1-.3h-.1c-.2 0-.3-.1-.3-.3 0-.2.1-.3.3-.3.1 0 .2.1.3.2l.2-.4a50.68 50.68 0 00-11 0l.1.4c.1-.1.1-.1.3-.1.2 0 .3.1.3.3 0 .2-.1.3-.3.3h-.1l-.1.2zm7.7-1.1c-.2 0-.3.1-.3.3s.1.3.3.3c.2 0 .3-.1.3-.3s-.1-.3-.3-.3zm0 .2c-.1 0-.1.1-.1.1l.1.1c.1 0 .1-.1.1-.1s0-.1-.1-.1zm-2.7-.3c-.2 0-.3.1-.3.3 0 .2.1.3.3.3.2 0 .3-.1.3-.3 0-.1-.2-.3-.3-.3zm0 .2c-.1 0-.1.1-.1.1 0 .1.1.1.1.1.1 0 .1-.1.1-.1s0-.1-.1-.1zm-2.7-.1c-.2 0-.3.1-.3.3s.1.3.3.3c.2 0 .3-.1.3-.3s-.1-.3-.3-.3zm0 .2c-.1 0-.1.1-.1.1 0 .1.1.1.1.1.1 0 .1-.1.1-.1 0-.1 0-.1-.1-.1z"/><path id="prefix___x31_64" d="M256.1 121.3c0-.2-.1-.3-.3-.4-.1-.1-.3-.2-.5-.2-.1 0-.1-.1 0-.2.2-.1.3-.2.4-.3.1-.2.2-.4.2-.6 0-.1.2-.1.2 0 0 .2.1.4.2.5.1.2.3.3.5.3.1 0 .1.2 0 .2s-.3.1-.4.2l-.3.6c.1-.1 0-.1 0-.1zm.1-.3c.1-.1.1-.3.2-.4.1-.1.2-.2.3-.2-.1-.1-.3-.2-.4-.3-.1-.1-.1-.2-.2-.3 0 .1-.1.3-.2.4l-.3.3c.1 0 .2.1.3.2l.3.3z"/><path id="prefix___x31_63" d="M258.2 133.9l-1.3.5s-.1 0-.1-.1 0-.1.1-.1l1.3-.5s.1 0 .1.1-.1.1-.1.1zm.1-.8l-1.5.8h-.1v-.1l1.5-.8h.1c.1 0 .1 0 0 .1zm-4.6-.2l1.5.8s.1 0 0 .1c0 .1-.1.1-.1 0l-1.5-.8s-.1 0 0-.1h.1zm.2.8l1.3.5s.1 0 .1.1-.1.1-.1.1l-1.3-.5s-.1 0-.1-.1 0-.1.1-.1zm.5 1.1c.3.1.7.1.9.1.2 0 .4-.2.5-.4v-1.2c-.3 0-.5 0-.8-.1-.3-.1-.4-.2-.5-.4-.1-.3-.1-.6 0-.8 0 0 0-.1.1-.1s.1.1.1.1c-.1.2-.1.5 0 .7.1.2.2.3.4.3.2.1.5.1.8.1.3 0 .5 0 .8-.1.2-.1.4-.2.5-.3.1-.1.2-.3.1-.4 0-.1-.1-.2-.1-.2-.1-.1-.2-.1-.3-.1H256.3s-.1 0-.1-.1 0-.1.1-.1h.2c.1 0 .3-.1.4 0 .2 0 .3 0 .4.1.1.1.2.2.2.3 0 .2 0 .4-.2.6-.1.2-.3.3-.6.4-.2.1-.4.1-.7.1v1.2c.1.2.3.3.5.4.2 0 .6 0 .9-.1 0 0 .1 0 .1.1s0 .1-.1.1c-.4.1-.7.1-1 .1-.2 0-.4-.1-.5-.3-.1.2-.3.3-.5.3-.3.1-.6 0-1-.1 0 0-.1 0-.1-.1s.1-.1.1-.1zm.9.5h1s.1 0 .1.1 0 .1-.1.1h-1s-.1 0 0-.2c-.1 0 0 0 0 0z"/><path id="prefix___x31_62" d="M256.8 127.6c.4-.3.7-.6 1.1-.8.3-.2.6-.3.9-.3 0 0 .1 0 .1.1s-.1.1-.1.1c-.2 0-.5.1-.8.2-.3.2-.7.4-1 .7 0 0-.1.1-.1 0h-.1zm-1.5.1c-.4-.3-.8-.6-1.1-.8-.4-.2-.7-.3-.9-.3 0 0-.1 0-.1-.1s0-.1.1-.1c.3 0 .6.1 1 .3.4.2.8.5 1.2.8 0 0 .1.1 0 .1-.1.2-.2.1-.2.1zm-.5 2.5l.3-.6c.1-.2.3-.3.4-.4 0 0 .1-.1.1 0 .1.1 0 .1 0 .1l-.4.4c-.1.1-.2.3-.3.5 0 0 0 .1-.1 0-.1.1-.1.1 0 0zm.9-4.4l.3.6c.1.2.1.4.1.7v.6c0 .2-.1.4-.2.6-.1.2-.3.2-.4.3h-.4c.1.3.1.5 0 .8 0 0-.1.1-.1 0-.1-.1-.2-.1-.3-.2-.1 0-.2-.1-.3-.1l-.6-.3c-.2-.1-.3-.2-.4-.3-.1-.1-.2-.3-.2-.4 0-.1-.1-.3-.1-.4-.2-.1-.3-.2-.5-.3-.2-.1-.3-.2-.4-.3 0 0-.1-.1 0-.1.1-.1.1 0 .1 0 .1.1.2.2.4.3.2.1.3.2.5.3.3 0 .6.1.9.3.3.1.5.3.8.5l.1.1h.1c.1.1.3.1.4 0 .1 0 .2-.1.3-.2.1-.2.2-.4.2-.5v-.6c0-.2 0-.5-.1-.7-.1-.2-.1-.4-.3-.5 0 0-.1-.1 0-.1 0-.1.1-.1.1-.1zm-1 2.7c-.3-.2-.5-.4-.8-.5-.3-.1-.5-.2-.8-.2v.3c0 .1.1.3.2.3l.3.3c.2.1.3.2.6.3.1 0 .2.1.3.1.1 0 .2.1.2.1.2-.2.1-.4 0-.7.1 0 .1 0 0 0zm2-2.5c-.1.1-.2.3-.3.5-.1.2-.1.4-.1.7v.6c0 .2.1.4.2.5.1.1.2.2.3.2h.5l.1-.1c.3-.2.5-.4.8-.5l.9-.3c.2-.1.4-.2.5-.3.2-.1.3-.2.4-.3 0 0 .1-.1.1 0 .1.1 0 .1 0 .1-.1.1-.2.2-.4.3-.1.1-.3.2-.5.3 0 .2 0 .3-.1.4 0 .2-.1.3-.2.4-.1.1-.2.2-.4.3l-.6.3c-.1 0-.2.1-.3.1-.1 0-.2.1-.3.2h-.1c-.1-.3-.1-.5 0-.8-.1 0-.3.1-.4 0-.2 0-.3-.1-.4-.3-.1-.2-.2-.4-.2-.6v-.6c0-.3 0-.5.1-.7l.3-.6s.1-.1.1 0c.1.1 0 .1 0 .2zm2.4 1.8c-.3 0-.5.1-.8.2-.3.1-.5.3-.8.5v.1c-.1.2-.1.5-.1.7.1 0 .2-.1.2-.1.1 0 .2-.1.3-.1l.6-.3c.1-.1.3-.2.3-.3.1-.1.1-.2.2-.3.1-.2.1-.3.1-.4z"/><path id="prefix___x31_61" d="M258.3 127.9c-.3 0-.5.2-.5.5s.2.5.5.5.5-.2.5-.5-.2-.5-.5-.5zm0 .2c-.2 0-.4.2-.4.4s.2.4.4.4.4-.2.4-.4c-.1-.3-.2-.4-.4-.4zm0 .1c-.1 0-.2.1-.2.2s.1.2.2.2.2-.1.2-.2-.1-.2-.2-.2zm-4.3-.3c.3 0 .5.2.5.5s-.2.5-.5.5-.5-.2-.5-.5c-.1-.2.2-.5.5-.5zm0 .2c.2 0 .4.2.4.4s-.2.4-.4.4-.4-.2-.4-.4.2-.4.4-.4zm0 .1c.1 0 .2.1.2.2s-.1.2-.2.2-.2-.1-.2-.2.1-.2.2-.2z"/><path id="prefix___x31_60" d="M244.9 93.3s-.1 0-.2.1c-.4.7-.8 1.2-1.3 1.9-.5.2-.6.5-.4.9-.7 0-.7.5-.7 1.1-.7-.9-1.4-1.2-2.1-.7-.1-.6-.5-.8-1.2-.9-.5 0-.8-.1-1.1-.3-.2-.1-.3-.1-.4-.2-.3-.2-.6 0-.4.2.7 1.1 1.5 2.1 2.2 3.2 0 .2 0 .4.2.5.1.3.3.7.4 1 0 .1 0 .2-.1.3-.6-.2-1.1-.2-1.7-.3-.4 0-.7-.1-.9-.3-.1-.2-.2-.1-.2.2.1 1.3.5 2.5 1.7 3.7-.6 0-1.2.1-1.7.1-.2 0-.2.1-.2.3.4.8.9 1.4 2.2 1.8-.5.3-.8.8-.8 1.4 0 .6-.1 1-.5 1.2-.1.1-.2.2 0 .3.7.4 1.5.4 2.3.2-.4.7-.5 1.4-.4 2.2.5.1 1 0 1.5-.2-.1.2-.1.4-.1.8 0 .3-.1.6-.2.9-.1.1-.2.2 0 .3.9.2 1.6.1 2.3-.2 0 .6.1 1.2.3 1.8.1.1.2.2.3 0 .4-.6.8-1 1.3-1.4.1.2.2.4.4.5.2.1.4.4.4.8 0 .1 0 .2.1.2.4 0 1.2-1 1.4-1.6.5.3.7.6 1.2 1.1.1.2.3.1.3-.1.1-.6.1-1.2.1-1.8.7.2 1.5.3 2.3 0 .2-.1.1-.2 0-.3-.2-.3-.3-.6-.3-.9 0-.3-.1-.6-.1-.7.5.1 1 .2 1.6.1 0-.8-.2-1.5-.6-2.1.8.2 1.7.1 2.3-.4.1-.1.1-.2-.1-.3-.4-.2-.5-.6-.6-1.1-.1-.6-.4-1-1-1.3 1.2-.5 1.7-1.3 2-2 0-.2 0-.3-.2-.3h-1.8c1-1.3 1.4-2.5 1.3-3.8 0-.3-.1-.4-.2-.2-.2.2-.4.4-.9.4-.6.1-1.1.1-1.6.4 0-.1-.1-.2-.1-.3.1-.3.2-.7.3-1 .2-.1.2-.3.2-.5.6-1.1 1.2-2.3 1.8-3.4.1-.2-.1-.4-.4-.2-.1.1-.3.2-.4.3-.3.2-.6.4-1.1.4-.6.2-1 .5-1 1.1-.8-.4-1.4-.1-2 .9-.1-.6-.2-1.1-.8-1.1.2-.4 0-.7-.5-.9-.5-.6-1.2-1.1-1.7-1.7-.3-.1-.4-.1-.4-.1z"/><path id="prefix___x31_59" class="prefix__st4" d="M251.4 96.5c-.1-.1-.3.1-.4.3-.1.2-.1.4.1.5.1 0 .2 0 .3-.2l.1-.1c0-.2.1-.4-.1-.5z"/><path id="prefix___x31_58" class="prefix__st4" d="M238.8 97.1c.1-.1.3 0 .4.2.1.2.1.4 0 .5-.1.1-.3 0-.4-.2-.1-.2-.1-.4 0-.5z"/><path id="prefix___x31_57" class="prefix__st4" d="M250.4 98.9c-.1 0-.1.1-.1.2s.1.1.2.1.1-.1.1-.2c-.1-.1-.2-.1-.2-.1z"/><path id="prefix___x31_56" class="prefix__st4" d="M240.2 99.4c-.1 0-.1.1-.1.2s.1.1.2.1.1-.1.1-.2c-.1-.1-.1-.1-.2-.1z"/><path id="prefix___x31_55" class="prefix__st4" d="M251 98.1c-1.9-.1-3.8-.1-5.7 0-1.9.1-3.8.3-5.7.6-.1 0 0 .2 0 .2 1.9-.3 3.8-.5 5.7-.6 1.9-.1 3.8-.1 5.6 0 .1 0 .1-.2.1-.2z"/><path id="prefix___x31_54" class="prefix__st4" d="M239.5 98.4c1.9-.3 3.8-.5 5.8-.6 1.9-.1 3.8-.1 5.7 0l.3-.5h-.2c-.2-.1-.3-.4-.1-.7.1-.3.4-.5.6-.4.1 0 .2.1.2.3l1-1.9c-.5.4-.8.6-1.4.7-.7.1-1 .4-.9.8.1.4-.1.3-.5.2-.8-.4-1.4.2-1.6 1-.2.5-.4.5-.4 0v-.5c-.1-.6-.3-.7-.6-.5-.4.2-.4.1-.4-.1.1-.2.2-.3.1-.6 0-.2-.2-.2-.4-.2-.5-.6-1.2-1.2-1.7-1.8-.4.6-.9 1.3-1.3 1.9-.2 0-.4.1-.4.3 0 .2.1.4.2.5.1.2.1.3-.3.2-.3-.1-.5 0-.5.6v.5c0 .5-.2.5-.4.1-.3-.7-1-1.3-1.7-.8-.4.2-.5.3-.5-.1s-.3-.7-1-.7c-.6-.1-1-.3-1.5-.6l1.1 1.7c0-.1.1-.1.1-.1.2-.1.5 0 .6.3.2.3.1.6-.1.7h-.1l.3.3z"/><path id="prefix___x31_53" class="prefix__st4" d="M250.7 100.2c-.2.1-.3.2-.4.4-.1.2-.3.3-.5.5 0 0-.1.1-.1 0-.1-.1 0-.1 0-.1.2-.2.4-.3.5-.5.1-.1.1-.2.2-.2h-.7c-.2.1-.4.2-.5.3-.1.1-.3.2-.3.3 0 0 0 .1-.1 0-.1 0-.1-.1 0-.1.1-.1.2-.3.4-.4.1-.1.2-.1.3-.1h-.8c-.1 0-.1.1-.1.1 0 .1-.1.1-.1.2 0 0 0 .1-.1 0-.1 0 0-.1 0-.1 0-.1.1-.1.2-.2h-.6c-.1 0-.1.1-.1.2s-.1.1-.1.2c0 0 0 .1-.1.1s-.1-.1 0-.1c0-.1.1-.1.1-.2 0 0 0-.1.1-.1h-.9c-.1 0-.1.1-.2.1 0 .1-.1.1-.1.2 0 0 0 .1-.1 0-.1 0-.1-.1 0-.1 0-.1.1-.1.1-.2l.1-.1h-.9c-.3 0-.6 0-.9.1h.1l.2.2v.1h-.1c0-.1-.1-.1-.1-.2-.1 0-.1-.1-.2-.1-.3 0-.6 0-.9.1l.1.1c.1.1.1.1.1.2v.1h-.1c0-.1-.1-.1-.1-.2l-.1-.1c-.2 0-.4 0-.6.1l.2.2v.1h-.1c0-.1-.1-.1-.1-.2-.1 0-.1-.1-.2-.1-.3 0-.6.1-.8.1.1 0 .2.1.3.1.2.1.3.2.4.4v.1h-.1c-.1-.1-.2-.2-.4-.3-.2-.1-.4-.2-.6-.2-.2 0-.5.1-.7.1.1.1.1.2.2.3.1.1.3.3.5.4 0 0 .1 0 0 .1 0 .1-.1 0-.1 0-.2-.2-.4-.3-.6-.4-.1-.1-.3-.3-.4-.3-.5-.2-.9-.3-1.5-.3-.4 0-.8 0-1.2-.1l.3.6c.1.2.3.3.5.3 0 0 .1 0 .1.1.1.4.2.7.5 1 .1.1.3.3.5.4-.2-.2-.4-.4-.5-.6-.2-.3-.3-.7-.2-1 0 0 0-.1.1-.1s.1 0 .1.1c0 .3.1.6.2 1 .2.3.4.6.8.8.1 0 0 .2-.1.1-.4-.1-.7-.3-1-.5-.2-.3-.4-.6-.5-1-.2-.1-.4-.2-.6-.4-.1-.1-.2-.3-.3-.5.1 1.1.6 2 1.3 2.8.2.2.4.4.7.5.2.1.3.2 0 .3h-.3c.2.1.4.1.6.2.3.2.6.4.6.7 0 0 0 .1-.1.1s-.1 0-.1-.1c0-.2-.2-.4-.5-.5-.3-.1-.7-.3-1-.4-.4 0-.8 0-1.2.1.1.1.2.1.3.2.2.1.5.2.9.3.2 0 .4.1.6.2.2.1.3.2.5.4 0 0 .1.1 0 .1-.1.1-.1 0-.1 0-.1-.1-.3-.2-.4-.3-.2-.1-.3-.1-.6-.2-.4-.1-.7-.2-.9-.3-.2-.1-.3-.2-.5-.3.5 1 1.2 1.4 2.2 1.6h.2c.2 0 .4.1.7.1.2 0 .4.1.7.1 0 0 .1 0 .1.1s0 .1-.1.1c-.3 0-.4 0-.7-.1-.1 0-.3 0-.4-.1h-.3c-.6.1-1 .6-1 1.3.2-.2.4-.4.7-.6.3-.2.6-.3.9-.2 0 0 .1 0 .1.1s-.1.1-.1.1c-.3-.1-.5 0-.8.2-.3.2-.5.4-.8.7 0 .4-.2.7-.5 1 .2.1.3.2.4.1l.6-.3c.2-.1.5-.2.7-.2 0 0 .1 0 .1.1s0 .1-.1.1c-.2 0-.4.1-.7.2l-.6.3c.6.1 1.2-.1 1.7-.3.1-.1.3-.1.3-.1.1-.1.3-.1.4-.2.2-.1.3-.1.5-.2 0 0 .1 0 .1.1s0 .1-.1.1c-.3 0-.3.1-.6.2 0 .1-.2.2-.3.3-.1.1-.2.1-.2.2-.2.2-.3.5-.4.7-.1.2-.1.4-.1.6.1-.3.3-.5.5-.8.2-.3.5-.5.8-.7h.1v.1c-.3.2-.6.4-.8.7-.2.3-.4.6-.5.9l-.1.2c.3-.3.5-.6.8-.8.3-.3.7-.4 1-.4 0 0 .1 0 .1.1s-.1.1-.1.1c-.3 0-.6.1-.9.4-.3.2-.6.6-.9 1 .5 0 .9-.1 1.4-.3.2-.1.4-.4.6-.4 0-.1.1-.1.1-.2.1-.1.2-.2.2-.3 0 0 .1-.1.1 0 .1.1 0 .1 0 .1-.1.1-.2.2-.2.3-.1.1-.1.2-.2.3h-.1c-.1.2-.4.4-.4.6-.1.5 0 .9-.2 1.5.2-.1.3-.2.4-.4l.3-.6c.1-.3.2-.5.4-.7.2-.2.4-.4.6-.5h.1v.1c-.2.1-.4.2-.6.4-.2.2-.3.4-.4.6-.1.3-.2.5-.3.6-.1.1-.2.2-.4.3h.3c.2 0 .5-.2.7-.3.2-.1.3-.3.4-.5 0 0 0-.1.1 0 .1 0 .1.1 0 .1-.1.2-.2.5-.4.6-.1.1-.3.2-.5.3.4 0 .8-.1 1.2-.3.2-.1.2-.4.3-.5.1-.1.2-.3.2-.4.1-.1.2-.3.4-.3h.1v.1l-.3.3c-.1.1-.2.2-.2.4s-.1.6-.1.8c0 .5 0 1 .2 1.5.1-.2.3-.4.4-.5 0-.3.1-.6.1-.8 0-.3 0-.6-.1-.8 0 0 0-.1.1-.1s.1 0 .1.1c0 .3.1.6.1.9v.7c.1-.1.1-.1.2-.3.1-.2.1-.4.1-.6 0-.2 0-.4-.1-.6 0 0 0-.1.1-.1s.1 0 .1.1c.1.2.1.4.1.6 0 .2 0 .3-.1.5.1-.1.3-.2.4-.3v-.6-.5c0-.1 0-.1.1-.1s.1.1.1.1v1c0 .2.1.5.3.6.3.1.4.4.5.7v-1c-.1-.4-.2-.7-.3-.9v-.1h.1c.2.3.3.6.4 1 .1.4.1.8 0 1.2.2-.2.9-.7.8-1.5 0-.1 0-.1-.1-.2v-.1h.1c0 .1.1.2.1.3v.2l.1-.1c.1 0 .1.1.2.1-.1-.1-.1-.3-.1-.4v-.6s0-.1.1-.1.1.1.1.1v.6c0 .2.1.4.2.6v.1l.2.2c0-.2-.1-.4-.1-.6v-.9s0-.1.1-.1.1 0 .1.1v.8c0 .3.1.6.1.8.1.1.3.3.4.5.1-.5.1-1 .1-1.6 0-.2-.2-.6-.2-.8-.1-.1-.2-.3-.3-.4-.1-.1-.2-.2-.4-.3 0 0-.1 0 0-.1 0-.1.1-.1.1 0 .2.1.3.2.4.3.1.1.2.2.3.4.1 0 .2.4.4.5.4.1.8.2 1.2.2-.2 0-.4-.1-.5-.2-.2-.1-.3-.3-.5-.6v-.1h.1c.1.2.2.4.4.5.2.2.7.3 1 .3-.2-.1-.3-.2-.4-.3-.2-.2-.3-.4-.4-.6-.1-.2-.2-.4-.4-.6-.2-.2-.4-.3-.6-.4 0 0-.1 0-.1-.1s.1-.1.1-.1c.2.1.5.2.7.4.2.2.4.4.5.7.1.2.2.4.4.6.1.1.3.2.5.3-.3-.5-.2-.9-.4-1.4-.1-.3-.6-.7-.5-.8.1-.1.3.2.6.3.4.1.9.2 1.4.1-.3-.3-.6-.6-1-.9-.3-.2-.6-.3-.9-.3 0 0-.1 0-.1-.1s0-.1.1-.1c.3-.1.7 0 1 .3.3.2.5.4.8.7-.1-.1 0 0-.1-.2-.2-.3-.4-.6-.6-.8-.2-.2-.5-.5-.8-.6 0 0-.1 0 0-.1 0-.1.1-.1.1 0 .4.1.7.4.9.6.2.2.4.5.6.7 0-.2-.1-.4-.2-.6-.1-.3-.3-.5-.5-.7-.2-.1-.5-.3-.5-.4-.1 0-.1 0-.2-.1-.2-.1-.3-.1-.4-.1 0 0-.1 0-.1-.1s0-.1.1-.1.3.1.5.1c.1 0 .2.1.3.1.1 0 .4.1.5.2.5.2 1.1.3 1.7.1-.2-.1-.4-.1-.6-.2-.2-.1-.4-.1-.7-.1 0 0-.1 0-.1-.1s0-.1.1-.1c.2 0 .5 0 .7.1.2.1.5.2.7.2.2.1.3 0 .4-.1-.3-.2-.5-.6-.6-.9-.3-.2-.5-.5-.8-.6-.3-.1-.5-.2-.8-.1 0 0-.1 0-.1-.1s0-.1.1-.1c.3-.1.6 0 .9.1.2.1.5.3.7.5-.1-.7-.6-1.2-1.2-1.2-.2 0-.5.1-.5-.1 0-.1.2-.1.6-.2 1-.3 1.6-.8 2-1.8-.1.1-.3.2-.5.3-.2.1-.5.3-.9.4-.2.1-.4.1-.5.2-.2.1-.3.2-.4.4 0 0 0 .1-.1 0-.1 0 0-.1 0-.1.1-.2.3-.3.4-.4l.6-.3c.4-.1.6-.2.9-.4.1-.1.2-.2.3-.2-.4 0-.8 0-1.2.1-.4.1-.7.3-1 .5-.3.2-.5.4-.5.6 0 0 0 .1-.1.1s-.1 0-.1-.1c0-.3.2-.5.5-.7l.6-.3h-.3c-.3 0-.3-.2-.1-.3.2-.1.5-.4.6-.6.6-.9 1-1.9 1-2.9-.1.2-.2.4-.3.5-.1.2-.3.3-.5.4-.1.4-.2.7-.4 1-.2.3-.5.5-.9.6-.1 0-.1-.1-.1-.1.3-.3.5-.6.7-.9.1-.3.2-.7.1-1 0 0 0-.1.1-.1s.1 0 .1.1c0 .3 0 .7-.1 1.1-.1.2-.2.4-.4.7.2-.1.3-.2.5-.4.2-.3.3-.6.4-1 0 0 0-.1.1-.1.2-.1.4-.2.5-.4l.3-.6c-.3.2-.8.2-1.1.3-1.4-.5-1.8-.4-2.2-.1z"/><path id="prefix___x31_52" class="prefix__st4" d="M250.5 99.7c-1.7-.1-3.4-.1-5.2 0-1.7.1-3.4.3-5.2.5-.1 0 0 .1 0 .1 0 .1.1.1.3.1 1.6-.2 3.2-.4 4.9-.5 1.7-.1 3.4-.1 5.2 0 .1.1.2-.2 0-.2z"/><path id="prefix___x31_51" class="prefix__st4" d="M240.2 100.1c1.7-.3 3.4-.4 5.1-.5 1.7-.1 3.4-.1 5.1.1l.1-.3h-.1c-.2 0-.3-.1-.3-.3 0-.2.1-.3.3-.3.1 0 .2.1.3.2l.1-.4c-1.8-.1-3.7-.1-5.5 0-1.8.1-3.7.3-5.5.5l.2.4c.1-.1.1-.1.3-.1.2 0 .3.1.3.3 0 .2-.1.3-.3.3h-.1v.1zm7.7-1.5c-.2 0-.3.2-.3.3 0 .2.2.3.3.3.2 0 .3-.2.3-.3 0-.1-.1-.3-.3-.3zm0 .2c-.1 0-.1.1-.1.2s.1.1.2.1.1-.1.1-.2-.1-.1-.2-.1zm-2.7-.1c-.2 0-.3.2-.3.3 0 .2.2.3.3.3.2 0 .3-.2.3-.3 0-.2-.2-.3-.3-.3zm0 .2c-.1 0-.1.1-.1.2s.1.1.2.1.1-.1.1-.2c-.1-.1-.1-.2-.2-.1zm-2.7 0c-.2 0-.3.2-.3.3 0 .2.2.3.3.3.2 0 .3-.2.3-.3 0-.2-.2-.3-.3-.3zm0 .1c-.1 0-.1.1-.1.2s.1.1.2.1.1-.1.1-.2c-.1 0-.1-.1-.2-.1z"/><path id="prefix___x31_50" d="M245.2 96.8c0-.2-.1-.3-.3-.4-.1-.1-.3-.2-.5-.2-.1 0-.1-.1 0-.2s.3-.2.4-.4c.1-.2.2-.4.2-.7 0-.1.2-.1.2 0 .1.2.1.4.3.5.1.2.3.3.5.3.1 0 .1.2 0 .2s-.3.1-.3.2c-.1.2-.2.4-.2.6-.2.2-.3.2-.3.1zm.1-.3c0-.1.1-.3.2-.4.1-.1.1-.2.2-.2-.1-.1-.3-.2-.4-.3-.1-.1-.1-.2-.2-.3 0 .2-.1.3-.2.4l-.3.3c.1 0 .2.1.3.2.2.1.3.2.4.3z"/><path id="prefix___x31_49" d="M247.9 109.3l-1.3.6h-.1v-.1l1.3-.6h.1c.1.1.1.1 0 .1zm.1-.8l-1.5.9s-.1.1-.1 0v-.1l1.5-.9h.1c.1 0 .1.1 0 .1zm-4.6.1l1.6.8s.1 0 0 .1c0 .1-.1.1-.1 0l-1.6-.8s-.1 0 0-.1c0-.1.1-.1.1 0zm.2.8l1.3.5s.1 0 .1.1-.1.1-.1.1l-1.3-.5s-.1 0-.1-.1c0-.2 0-.1.1-.1zm.6 1c.4.1.7.1.9 0 .2-.1.4-.2.5-.4l-.1-1.2c-.3 0-.5 0-.8-.1-.3-.1-.4-.2-.5-.4-.1-.3-.1-.6-.1-.8 0 0 0-.1.1-.1s.1.1.1.1c0 .2-.1.5 0 .7.1.1.2.3.4.3.2.1.5.1.8.1.3 0 .5-.1.8-.1.2-.1.4-.2.5-.3.1-.1.1-.3.1-.5 0-.1-.1-.2-.1-.2-.1-.1-.2-.1-.3-.1-.1 0-.2 0-.4.1h-.2s-.1 0-.1-.1 0-.1.1-.1h.2c.1 0 .3-.1.4-.1.2 0 .3 0 .4.1.1.1.2.2.2.3 0 .2 0 .4-.2.6-.1.2-.3.3-.6.4-.2.1-.4.1-.7.1l.1 1.2c.1.2.3.3.5.3s.6 0 .9-.1c0 0 .1 0 .1.1s0 .1-.1.1c-.4.1-.7.2-1 .1-.2 0-.4-.1-.6-.3-.1.2-.3.3-.5.4-.3.1-.6 0-1 0 0 0-.1 0-.1-.1h.3zm.9.5l1-.1s.1 0 .1.1 0 .1-.1.1l-1 .1s-.1 0-.1-.1.1-.1.1-.1z"/><path id="prefix___x31_48" d="M246.2 103.1c.4-.3.7-.6 1-.8.3-.2.6-.3.9-.3 0 0 .1 0 .1.1s0 .1-.1.1c-.2 0-.5.1-.8.3-.3.2-.6.5-1 .8 0 0-.1.1-.1 0v-.2zm-1.5.2c-.4-.3-.8-.6-1.2-.7-.4-.2-.7-.2-.9-.2 0 0-.1 0-.1-.1s0-.1.1-.1c.3 0 .6 0 1 .2s.8.4 1.2.8c0 0 .1.1 0 .1h-.1zm-.4 2.5l.3-.6c.1-.2.3-.3.4-.5 0 0 .1-.1.1 0 .1.1 0 .1 0 .1l-.4.4c-.1.2-.2.3-.3.5 0 0 0 .1-.1.1 0 .1 0 .1 0 0zm.7-4.4c.1.2.2.3.3.5.1.2.1.4.1.7v.6c0 .2-.1.4-.2.6-.1.2-.2.3-.4.3h-.4c.1.3.2.5.1.8l-.1.1c-.1-.1-.2-.1-.3-.1-.1 0-.2-.1-.3-.1l-.6-.3c-.2-.1-.3-.2-.4-.3-.1-.1-.2-.3-.2-.4 0-.1-.1-.3-.1-.4-.2-.1-.4-.2-.5-.3-.2-.1-.3-.2-.4-.3 0 0-.1-.1 0-.1.1-.1.1 0 .1 0 .1.1.2.2.4.3.2.1.3.2.5.3.3 0 .6.1.9.2.3.1.5.3.8.4h.2c.1.1.3.1.4 0 .1 0 .2-.1.3-.2.1-.2.2-.4.2-.6v-.6c0-.2-.1-.5-.1-.6-.1-.2-.2-.4-.3-.5 0 0-.1-.1 0-.1-.1 0 0 .1 0 .1zm-.8 2.7c-.3-.2-.5-.3-.8-.4-.3-.1-.5-.2-.8-.2 0 .1 0 .2.1.3 0 .1.1.2.2.3l.3.3c.2.1.3.2.6.2.1 0 .2.1.3.1.1 0 .2.1.2.1.1-.2 0-.4-.1-.7 0 .1 0 0 0 0zm1.8-2.6c-.1.2-.2.3-.2.5-.1.2-.1.4-.1.7v.6c0 .2.1.4.2.5.1.1.2.2.3.2.1 0 .3 0 .4-.1l.1-.1.1-.1c.3-.2.5-.4.8-.5.3-.2.6-.3.9-.3.2-.1.4-.2.5-.3.1-.1.3-.2.4-.3 0 0 .1-.1.1 0 .1.1 0 .1 0 .1l-.4.4c-.1.1-.3.2-.5.3v.4c0 .2-.1.3-.2.4-.1.1-.2.2-.4.3-.2.1-.3.2-.6.3-.1 0-.2.1-.3.1-.1.1-.2.1-.3.2h-.1c-.1-.2-.1-.5 0-.8-.1.1-.3.1-.4 0-.2 0-.3-.1-.4-.3l-.3-.6c0-.2-.1-.4-.1-.6 0-.3 0-.5.1-.7.1-.2.1-.4.3-.6 0 0 .1-.1.1 0 .1.2.1.2 0 .3zm2.5 1.7c-.3.1-.5.1-.8.3-.3.1-.5.3-.8.5v.1c-.1.2-.1.5-.1.7.1 0 .2-.1.2-.1.1-.1.2-.1.3-.2l.6-.3.3-.3c.1-.1.1-.2.2-.4.1-.1.1-.2.1-.3z"/><path id="prefix___x31_47" d="M247.7 103.3c-.3 0-.5.3-.5.6s.3.5.6.5.5-.3.5-.6c-.1-.2-.3-.5-.6-.5zm0 .2c-.2 0-.4.2-.4.4s.2.4.4.4.4-.2.4-.4-.2-.4-.4-.4zm0 .2c-.1 0-.2.1-.2.2s.1.2.2.2.2-.1.2-.2-.1-.2-.2-.2zm-4.3-.1c.3 0 .6.2.6.5s-.2.6-.5.6-.6-.2-.6-.5c0-.4.2-.6.5-.6zm0 .1c.2 0 .4.1.4.4 0 .2-.1.4-.4.4-.2 0-.4-.1-.4-.4 0-.2.2-.4.4-.4zm0 .2c.1 0 .2.1.2.2s-.1.2-.2.2-.2-.1-.2-.2.1-.2.2-.2z"/><path id="prefix___x31_46" d="M267.3 93.3s.1 0 .2.1c.4.7.8 1.2 1.3 1.9.5.2.6.5.4.9.7 0 .7.5.7 1.1.7-.9 1.4-1.2 2.1-.7.1-.6.5-.8 1.2-.9.5 0 .8-.1 1.1-.3.2-.1.3-.1.4-.2.3-.2.6 0 .4.2-.7 1.1-1.5 2.1-2.2 3.2 0 .2 0 .4-.2.5-.1.3-.3.7-.4 1 0 .1 0 .2.1.3.6-.2 1.1-.2 1.7-.3.4 0 .7-.1.9-.3.1-.2.2-.1.2.2-.1 1.3-.5 2.5-1.7 3.7.6 0 1.2.1 1.7.1.2 0 .2.1.2.3-.4.8-.9 1.4-2.2 1.8.5.3.8.8.8 1.4 0 .6.1 1 .5 1.2.1.1.2.2 0 .3-.7.4-1.5.4-2.3.2.4.7.5 1.4.4 2.2-.5.1-1 0-1.5-.2.1.2.1.4.1.8 0 .3.1.6.2.9.1.1.2.2 0 .3-.9.2-1.6.1-2.3-.2 0 .6-.1 1.2-.3 1.8-.1.1-.2.2-.3 0-.4-.6-.8-1-1.3-1.4-.1.2-.2.4-.4.5-.2.1-.4.4-.4.8 0 .1 0 .2-.1.2-.4 0-1.2-1-1.4-1.6-.5.3-.7.6-1.2 1.1-.1.2-.3.1-.3-.1-.1-.6-.1-1.2-.1-1.8-.7.2-1.5.3-2.3 0-.2-.1-.1-.2 0-.3.2-.3.3-.6.3-.9 0-.3.1-.6.1-.7-.5.1-1 .2-1.6.1 0-.8.2-1.5.6-2.1-.8.2-1.7.1-2.3-.4-.1-.1-.1-.2.1-.3.4-.2.5-.6.6-1.1.1-.6.4-1 1-1.3-1.2-.5-1.7-1.3-2-2 0-.2 0-.3.2-.3h1.8c-1-1.3-1.4-2.5-1.3-3.8 0-.3.1-.4.2-.2.2.2.4.4.9.4.6.1 1.1.1 1.6.4 0-.1.1-.2.1-.3-.1-.3-.2-.7-.3-1-.2-.1-.2-.3-.2-.5-.6-1.1-1.2-2.3-1.8-3.4-.1-.2.1-.4.4-.2.1.1.3.2.4.3.3.2.6.4 1.1.4.6.2 1 .5 1 1.1.8-.4 1.4-.1 2 .9.1-.6.2-1.1.8-1.1-.2-.4 0-.7.5-.9.5-.6 1.2-1.1 1.7-1.7.2-.1.3-.1.4-.1z"/><path id="prefix___x31_45" class="prefix__st4" d="M260.7 96.5c.1-.1.3.1.4.3.1.2.1.4-.1.5-.1 0-.2 0-.3-.2l-.1-.1c0-.2 0-.4.1-.5z"/><path id="prefix___x31_44" class="prefix__st4" d="M273.3 97.1c-.1-.1-.3 0-.4.2-.1.2-.1.4 0 .5.1.1.3 0 .4-.2.1-.2.2-.4 0-.5z"/><path id="prefix___x31_43" class="prefix__st4" d="M261.8 98.9c.1 0 .1.1.1.2s-.1.1-.2.1-.1-.1-.1-.2.1-.1.2-.1z"/><path id="prefix___x31_42" class="prefix__st4" d="M271.9 99.4c.1 0 .1.1.1.2s-.1.1-.2.1-.1-.1-.1-.2c.1-.1.2-.1.2-.1z"/><path id="prefix___x31_41" class="prefix__st4" d="M261.1 98.1c1.9-.1 3.8-.1 5.7 0 1.9.1 3.8.3 5.7.6.1 0 0 .2 0 .2-1.9-.3-3.8-.5-5.7-.6-1.9-.1-3.8-.1-5.6 0-.1 0-.1-.2-.1-.2z"/><path id="prefix___x31_40" class="prefix__st4" d="M272.6 98.4c-1.9-.3-3.8-.5-5.8-.6-1.9-.1-3.8-.1-5.7 0l-.3-.5h.2c.2-.1.3-.4.1-.7-.1-.3-.4-.5-.6-.4-.1 0-.2.1-.2.3l-1-1.9c.5.4.8.6 1.4.7.7.1 1 .4.9.8-.1.4.1.3.5.2.8-.4 1.4.2 1.6 1 .2.5.4.5.4 0v-.5c.1-.6.3-.7.6-.5.4.2.4.1.4-.1-.1-.2-.2-.3-.1-.6 0-.2.2-.2.4-.2.5-.6 1.2-1.2 1.7-1.8.4.6.9 1.3 1.3 1.9.2 0 .4.1.4.3 0 .2-.1.4-.2.5-.1.2-.1.3.3.2.3-.1.5 0 .5.6v.5c0 .5.2.5.4.1.3-.7 1-1.3 1.7-.8.4.2.5.3.5-.1s.3-.7 1-.7c.6-.1 1-.3 1.5-.6l-1.1 1.7c0-.1-.1-.1-.1-.1-.2-.1-.5 0-.6.3-.2.3-.1.6.1.7h.1l-.3.3z"/><path id="prefix___x31_39" class="prefix__st4" d="M261.4 100.2c.1 0 .1 0 0 0 .2.1.3.2.4.4.1.2.3.3.5.5 0 0 .1.1.1 0 .1-.1 0-.1 0-.1-.2-.2-.4-.3-.5-.5-.1-.1-.1-.2-.2-.2h.7c.2.1.4.2.5.3.1.1.3.2.3.3 0 0 0 .1.1 0 .1 0 .1-.1 0-.1-.1-.1-.2-.3-.4-.4-.1-.1-.2-.1-.3-.1h.8c.1 0 .1.1.1.1 0 .1.1.1.1.2 0 0 0 .1.1 0 .1 0 0-.1 0-.1 0-.1-.1-.1-.2-.2h.6c.1 0 .1.1.1.2s.1.1.1.2c0 0 0 .1.1.1s.1-.1 0-.1c0-.1-.1-.1-.1-.2 0 0 0-.1-.1-.1h.9c.1 0 .1.1.2.1 0 .1.1.1.1.2 0 0 0 .1.1 0 .1 0 .1-.1 0-.1 0-.1-.1-.1-.1-.2l-.1-.1h.9c.3 0 .6 0 .9.1h-.1l-.2.2v.1h.1c0-.1.1-.1.1-.2.1 0 .1-.1.2-.1.3 0 .6 0 .9.1l-.1.1c0 .1-.1.1-.1.2v.1h.1c0-.1.1-.1.1-.2l.1-.1c.2 0 .4 0 .6.1l-.2.2v.1h.1c0-.1.1-.1.1-.2.1 0 .1-.1.2-.1.3 0 .6.1.8.1-.1 0-.2.1-.3.1-.2.1-.3.2-.4.4v.1h.1c.1-.1.2-.2.4-.3.2-.1.4-.2.6-.2.2 0 .4.1.7.1-.1.1-.1.2-.2.3-.1.1-.3.3-.5.4 0 0-.1 0 0 .1 0 .1.1 0 .1 0 .2-.2.4-.3.6-.4.1-.1.3-.3.4-.3.5-.2.9-.3 1.5-.3.4 0 .8 0 1.2-.1l-.3.6c-.1.2-.3.3-.5.3 0 0-.1 0-.1.1-.1.4-.2.7-.5 1-.1.1-.3.3-.5.4.2-.2.4-.4.5-.6.2-.3.3-.7.2-1 0 0 0-.1-.1-.1s-.1 0-.1.1c0 .3-.1.6-.2 1-.2.3-.4.6-.8.8-.1 0 0 .2.1.1.4-.1.7-.3 1-.5.2-.3.4-.6.5-1 .2-.1.4-.2.6-.4.1-.1.2-.3.3-.5-.1 1.1-.6 2-1.3 2.8-.2.2-.4.4-.7.5-.2.1-.3.2 0 .3h.3c-.2.1-.4.1-.6.2-.3.2-.6.4-.6.7 0 0 0 .1.1.1s.1 0 .1-.1c0-.2.2-.4.5-.5.3-.1.7-.3 1-.4.4 0 .8 0 1.2.1-.1.1-.2.1-.3.2-.2.1-.5.2-.9.3-.2 0-.4.1-.6.2-.2.1-.3.2-.5.4 0 0-.1.1 0 .1.1.1.1 0 .1 0 .1-.1.3-.2.4-.3.2-.1.3-.1.6-.2.4-.1.7-.2.9-.3.2-.1.3-.2.5-.3-.5 1-1.2 1.4-2.2 1.6h-.2c-.2 0-.4.1-.7.1-.2 0-.4.1-.7.1 0 0-.1 0-.1.1s0 .1.1.1c.3 0 .4 0 .7-.1.1 0 .3 0 .4-.1h.3c.6.1 1 .6 1 1.3-.2-.2-.4-.4-.7-.6-.3-.2-.6-.3-.9-.2 0 0-.1 0-.1.1s.1.1.1.1c.3-.1.5 0 .8.2.3.2.5.4.8.7 0 .4.2.7.5 1-.2.1-.3.2-.4.1l-.6-.3c-.2-.1-.5-.2-.7-.2 0 0-.1 0-.1.1s0 .1.1.1c.2 0 .4.1.7.2l.6.3c-.6.1-1.2-.1-1.7-.3-.1-.1-.3-.1-.3-.1-.1-.1-.3-.1-.4-.2-.2-.1-.3-.1-.5-.2 0 0-.1 0-.1.1s0 .1.1.1c.3 0 .3.1.6.2 0 .1.2.2.3.3.1.1.2.1.2.2.2.2.3.5.4.7.1.2.1.4.1.6-.1-.3-.3-.5-.5-.8-.2-.3-.5-.5-.8-.7h-.1v.1c.3.2.6.4.8.7.2.3.4.6.5.9l.1.2c-.3-.3-.5-.6-.8-.8-.3-.3-.7-.4-1-.4 0 0-.1 0-.1.1s0 .1.1.1c.3 0 .6.1.9.4.3.2.6.6.9 1-.5 0-.9-.1-1.4-.3-.2-.1-.4-.4-.6-.4 0-.1-.1-.1-.1-.2-.1-.1-.2-.2-.2-.3 0 0-.1-.1-.1 0-.1.1 0 .1 0 .1.1.1.2.2.2.3.1.1.1.2.2.3h.1c.1.2.4.4.4.6.1.5 0 .9.2 1.5-.2-.1-.3-.2-.4-.4l-.3-.6c-.1-.3-.2-.5-.4-.7-.2-.2-.4-.4-.6-.5h-.1v.1c.2.1.4.2.6.4.2.2.3.4.4.6.1.3.2.5.3.6.1.1.2.2.4.3h-.3c-.2 0-.5-.2-.7-.3-.2-.1-.3-.3-.4-.5 0 0 0-.1-.1 0-.1 0-.1.1 0 .1.1.2.2.5.4.6.1.1.3.2.5.3-.4 0-.8-.1-1.2-.3-.2-.1-.2-.4-.3-.5-.1-.1-.2-.3-.2-.4-.1-.1-.2-.3-.4-.3h-.1v.1l.3.3c.1.1.2.2.2.4s.1.6.1.8c0 .5 0 1-.2 1.5-.1-.2-.3-.4-.4-.5 0-.3-.1-.6-.1-.8 0-.3 0-.6.1-.8 0 0 0-.1-.1-.1s-.1 0-.1.1c0 .3-.1.6-.1.9v.7c-.1-.1-.1-.1-.2-.3-.1-.2-.1-.4-.1-.6 0-.2 0-.4.1-.6 0 0 0-.1-.1-.1s-.1 0-.1.1c-.1.2-.1.4-.1.6 0 .2 0 .3.1.5-.1-.1-.3-.2-.4-.3v-.6-.5c0-.1 0-.1-.1-.1s-.1.1-.1.1v1c0 .2-.1.5-.3.6-.3.1-.4.4-.5.7v-1c.1-.4.2-.7.3-.9v-.1h-.1c-.2.3-.3.6-.4 1-.1.4-.1.8 0 1.2-.2-.2-.9-.7-.8-1.5 0-.1 0-.1.1-.2v-.1h-.1c0 .1-.1.2-.1.3v.2l-.1-.1c-.1 0-.1.1-.2.1.1-.1.1-.3.1-.4v-.6s0-.1-.1-.1-.1.1-.1.1v.6c0 .2-.1.4-.2.6v.1l-.2.2c0-.2.1-.4.1-.6v-.9s0-.1-.1-.1-.1 0-.1.1v.8c0 .3-.1.6-.1.8-.1.1-.3.3-.4.5-.1-.5-.1-1-.1-1.6 0-.2.2-.6.2-.8.1-.1.2-.3.3-.4.1-.1.2-.2.4-.3 0 0 .1 0 0-.1 0-.1-.1-.1-.1 0-.2.1-.3.2-.4.3-.1.1-.2.2-.3.4-.1 0-.2.4-.4.5-.4.1-.8.2-1.2.2.2 0 .4-.1.5-.2.2-.1.3-.3.5-.6v-.1h-.1c-.1.2-.2.4-.4.5-.2.2-.7.3-1 .3.2-.1.3-.2.4-.3.2-.2.3-.4.4-.6.1-.2.2-.4.4-.6.2-.2.4-.3.6-.4 0 0 .1 0 .1-.1s-.1-.1-.1-.1c-.2.1-.5.2-.7.4-.2.2-.3.4-.5.7-.1.2-.2.4-.4.6-.1.1-.3.2-.5.3.3-.5.2-.9.4-1.4.1-.3.6-.7.5-.8-.1-.1-.3.2-.6.3-.5.1-.9.2-1.4.1.3-.3.6-.6 1-.9.3-.2.6-.3.9-.3 0 0 .1 0 .1-.1s0-.1-.1-.1c-.3-.1-.7 0-1 .3-.3.2-.5.4-.8.7 0-.1 0 0 .1-.2.2-.3.4-.6.6-.8.2-.2.5-.5.9-.6 0 0 .1 0 0-.1 0-.1-.1-.1-.1 0-.4.1-.7.4-.9.6-.2.2-.4.5-.6.7 0-.2.1-.4.2-.6.1-.3.3-.5.5-.7.2-.1.5-.3.5-.4.1 0 .1 0 .2-.1.2-.1.3-.1.4-.1 0 0 .1 0 .1-.1s0-.1-.1-.1-.3.1-.5.1c-.1 0-.2.1-.3.1-.1 0-.4.1-.5.2-.5.2-1.1.3-1.7.1.2-.1.4-.1.6-.2.2-.1.4-.1.7-.1 0 0 .1 0 .1-.1s0-.1-.1-.1c-.2 0-.5 0-.7.1-.2.1-.4.2-.7.2-.2.1-.3 0-.4-.1.3-.2.5-.6.6-.9.3-.2.5-.5.8-.6.3-.1.5-.2.8-.1 0 0 .1 0 .1-.1s0-.1-.1-.1c-.3-.1-.6 0-.9.1-.2.1-.5.3-.7.5.1-.7.6-1.2 1.2-1.2.2 0 .5.1.5-.1 0-.1-.2-.1-.6-.2-1-.3-1.6-.8-2-1.8.1.1.3.2.5.3.2.1.5.3.9.4.2.1.4.1.5.2.2.1.3.2.4.4 0 0 0 .1.1 0 .1 0 0-.1 0-.1-.1-.2-.3-.3-.4-.4l-.6-.3c-.4-.1-.6-.2-.9-.4-.1-.1-.2-.2-.3-.2.4 0 .8 0 1.2.1.4.1.7.3 1 .5.3.2.5.4.5.6 0 0 0 .1.1.1s.1 0 .1-.1c0-.3-.2-.5-.5-.7l-.6-.3h.3c.3 0 .3-.2.1-.3-.2-.1-.5-.4-.6-.6-.6-.9-1-1.9-1-2.9.1.2.2.4.3.5.1.2.3.3.5.4.1.4.2.7.4 1 .2.3.5.5.9.6.1 0 .1-.1.1-.1-.3-.3-.5-.6-.7-.9-.1-.3-.2-.7-.1-1 0 0 0-.1-.1-.1s-.1 0-.1.1c0 .3 0 .7.1 1.1.1.2.2.4.4.7-.2-.1-.3-.2-.5-.4-.2-.3-.3-.6-.4-1 0 0 0-.1-.1-.1-.2-.1-.4-.2-.5-.4l-.3-.6c.3.2.8.2 1.1.3 1.3-.5 1.7-.4 2.1-.1z"/><path id="prefix___x31_38" class="prefix__st4" d="M261.6 99.7c1.7-.1 3.4-.1 5.2 0 1.7.1 3.4.3 5.2.5.1 0 0 .1 0 .1 0 .1-.1.1-.3.1-1.6-.2-3.2-.4-4.9-.5-1.7-.1-3.4-.1-5.2 0 0 .1-.1-.2 0-.2z"/><path id="prefix___x31_37" class="prefix__st4" d="M271.9 100.1c-1.7-.3-3.4-.4-5.1-.5-1.7-.1-3.4-.1-5.1.1l-.1-.3h.1c.2 0 .3-.1.3-.3 0-.2-.1-.3-.3-.3-.1 0-.2.1-.3.2l-.1-.4c1.8-.1 3.7-.1 5.5 0 1.8.1 3.7.3 5.5.5l-.2.4c-.1-.1-.1-.1-.3-.1-.2 0-.3.1-.3.3 0 .2.1.3.3.3h.1v.1zm-7.7-1.5c.2 0 .3.2.3.3 0 .2-.2.3-.3.3-.2 0-.3-.2-.3-.3 0-.1.2-.3.3-.3zm0 .2c.1 0 .1.1.1.2s-.1.1-.2.1-.1-.1-.1-.2c.1-.1.1-.1.2-.1zm2.8-.1c.2 0 .3.2.3.3 0 .2-.2.3-.3.3-.2 0-.3-.2-.3-.3-.1-.2.1-.3.3-.3zm-.1.2c.1 0 .1.1.1.2s-.1.1-.2.1-.1-.1-.1-.2c.1-.1.2-.2.2-.1zm2.7 0c.2 0 .3.2.3.3 0 .2-.2.3-.3.3-.2 0-.3-.2-.3-.3 0-.2.2-.3.3-.3zm0 .1c.1 0 .1.1.1.2s-.1.1-.2.1-.1-.1-.1-.2c.1 0 .2-.1.2-.1z"/><path id="prefix___x31_36" d="M266.9 96.8c0-.2.1-.3.3-.4.1-.1.3-.2.5-.2.1 0 .1-.1 0-.2s-.3-.2-.4-.4c-.1-.2-.2-.4-.2-.7 0-.1-.2-.1-.2 0-.1.2-.1.4-.3.5-.1.2-.3.3-.5.3-.1 0-.1.2 0 .2s.3.1.3.2c.1.2.2.4.2.6.2.2.3.2.3.1zm0-.3c0-.1-.1-.3-.2-.4-.1-.1-.1-.2-.2-.2.1-.1.3-.2.4-.3.1-.1.1-.2.2-.3 0 .2.1.3.2.4l.3.3c-.1 0-.2.1-.3.2-.3.1-.4.2-.4.3z"/><path id="prefix___x31_35" d="M264.2 109.3l1.3.6h.1v-.1l-1.3-.6h-.1c-.1.1 0 .1 0 .1zm-.1-.8l1.5.9s.1.1.1 0v-.1l-1.5-.9h-.1c-.1 0 0 .1 0 .1zm4.6.1l-1.6.8s-.1 0 0 .1c0 .1.1.1.1 0l1.6-.8s.1 0 0-.1c0-.1 0-.1-.1 0zm-.2.8l-1.3.5s-.1 0-.1.1.1.1.1.1l1.3-.5s.1 0 .1-.1c0-.2 0-.1-.1-.1zm-.6 1c-.4.1-.7.1-.9 0-.2-.1-.4-.2-.5-.4l.1-1.2c.3 0 .5 0 .8-.1.3-.1.4-.2.5-.4.1-.3.1-.6.1-.8 0 0 0-.1-.1-.1s-.1.1-.1.1c0 .2.1.5 0 .7-.1.1-.2.3-.4.3-.2.1-.5.1-.8.1-.3 0-.5-.1-.8-.1-.2-.1-.4-.2-.5-.3-.1-.1-.1-.3-.1-.5 0-.1.1-.2.1-.2.1-.1.2-.1.3-.1.1 0 .2 0 .4.1h.2s.1 0 .1-.1 0-.1-.1-.1h-.2c-.1 0-.3-.1-.4-.1-.2 0-.3 0-.4.1-.1.1-.2.2-.2.3 0 .2 0 .4.2.6.1.2.3.3.6.4.2.1.4.1.7.1l-.1 1.2c-.1.2-.3.3-.5.3s-.6 0-.9-.1c0 0-.1 0-.1.1s0 .1.1.1c.4.1.7.2 1 .1.2 0 .4-.1.6-.3.1.2.3.3.5.4.3.1.6 0 1 0 0 0 .1 0 .1-.1h-.3zm-.9.5l-1-.1s-.1 0-.1.1 0 .1.1.1l1 .1s.1 0 .1-.1 0-.1-.1-.1z"/><path id="prefix___x31_34" d="M265.9 103.1c-.4-.3-.7-.6-1-.8-.3-.2-.6-.3-.9-.3 0 0-.1 0-.1.1s0 .1.1.1c.2 0 .5.1.8.3.3.2.6.5 1 .8 0 0 .1.1.1 0 .1-.2 0-.2 0-.2zm1.5.2c.4-.3.8-.6 1.2-.7.4-.2.7-.2.9-.2 0 0 .1 0 .1-.1s0-.1-.1-.1c-.3 0-.6 0-1 .2s-.8.4-1.2.8c0 0-.1.1 0 .1h.1zm.4 2.5l-.3-.6c-.1-.2-.3-.3-.4-.5 0 0-.1-.1-.1 0-.1.1 0 .1 0 .1l.4.4c.1.2.2.3.3.5 0 0 0 .1.1.1.1.1 0 .1 0 0zm-.7-4.4c-.1.2-.2.3-.3.5-.1.2-.1.4-.1.7v.6c0 .2.1.4.2.6.1.2.2.3.4.3h.4c-.1.3-.2.5-.1.8l.1.1c.1-.1.2-.1.3-.1.1 0 .2-.1.3-.1l.6-.3c.2-.1.3-.2.4-.3.1-.1.2-.3.2-.4 0-.1.1-.3.1-.4.2-.1.4-.2.5-.3.2-.1.3-.2.4-.3 0 0 .1-.1 0-.1-.1-.1-.1 0-.1 0-.1.1-.2.2-.4.3-.2.1-.3.2-.5.3-.3 0-.6.1-.9.2-.3.1-.5.3-.8.4h-.1-.1c-.1.1-.3.1-.4 0-.1 0-.2-.1-.3-.2-.1-.2-.2-.4-.2-.6v-.6c0-.2.1-.5.1-.6.1-.2.2-.4.3-.5 0 0 .1-.1 0-.1.1 0 0 .1 0 .1zm.8 2.7c.3-.2.5-.3.8-.4.3-.1.5-.2.8-.2 0 .1 0 .2-.1.3 0 .1-.1.2-.2.3l-.3.3c-.2.1-.3.2-.6.2-.1 0-.2.1-.3.1-.1 0-.2.1-.2.1-.1-.2 0-.4.1-.7 0 .1 0 0 0 0zm-1.8-2.6c.1.2.2.3.2.5.1.2.1.4.1.7v.6c0 .2-.1.4-.2.5-.1.1-.2.2-.3.2-.1 0-.3 0-.4-.1l-.1-.1-.1-.1c-.3-.2-.5-.4-.8-.5-.3-.2-.6-.3-.9-.3-.2-.1-.4-.2-.5-.3-.1-.1-.3-.2-.4-.3 0 0-.1-.1-.1 0-.1.1 0 .1 0 .1l.4.4c.1.1.3.2.5.3v.4c0 .2.1.3.2.4.1.1.2.2.4.3.2.1.3.2.6.3.1 0 .2.1.3.1.1.1.2.1.3.2h.1c.1-.2.1-.5 0-.8.1.1.3.1.4 0 .2 0 .3-.1.4-.3l.3-.6c0-.2.1-.4.1-.6 0-.3 0-.5-.1-.7-.1-.2-.1-.4-.3-.6 0 0-.1-.1-.1 0-.1.2 0 .2 0 .3zm-2.5 1.7c.3.1.5.1.8.3.3.1.5.3.8.5v.1c.1.2.1.5.1.7-.1 0-.2-.1-.2-.1-.1-.1-.2-.1-.3-.2l-.6-.3-.3-.3c-.1-.1-.1-.2-.2-.4-.1-.1-.1-.2-.1-.3z"/><path id="prefix___x31_33" d="M264.4 103.3c.3 0 .5.3.5.6s-.3.5-.6.5-.5-.3-.5-.6c.1-.2.3-.5.6-.5zm0 .2c.2 0 .4.2.4.4s-.2.4-.4.4-.4-.2-.4-.4c.1-.2.2-.4.4-.4zm0 .2c.1 0 .2.1.2.2s-.1.2-.2.2-.2-.1-.2-.2.1-.2.2-.2zm4.3-.1c-.3 0-.6.2-.6.5s.2.6.5.6.6-.2.6-.5c.1-.4-.2-.6-.5-.6zm0 .1c-.2 0-.4.1-.4.4 0 .2.1.4.4.4.2 0 .4-.1.4-.4 0-.2-.2-.4-.4-.4zm0 .2c-.1 0-.2.1-.2.2s.1.2.2.2.2-.1.2-.2-.1-.2-.2-.2z"/><path id="prefix___x31_32" d="M285.4 104.5c.9-.2 1.9-.3 2.8.3.4.2.7.4.9.6.4-.3.8-.6 1.3-.9.6-.5 1.2-.9 1.9-1.1 1-.5 1.9-.8 2.9-.9 1-.2 2-.2 3.1-.1.9.1 1.7.3 2.5.7.7.4 1.4.7 2.1 1.1.8.4 1.5.8 2.3 1.1 1 .4 2 .5 3.2.5.6 0 1.1 0 1.7-.1.4-.1.7.2.2.5-3.5 2.2-6.3.2-8.7-.6.9.6 1.6 1.2 2.3 1.8.9.9 1.9 1.7 3.7 2.6 1.1.5 2.3.9 3.8.9.5 0 1.1 0 1.7-.1.3 0 .4 0 .4.1s0 .3-.2.4c-.9.6-1.8.8-2.7.8-1.8.1-3.8-.5-5.6-1.4-1.4-.8-2.4-1.7-3.5-2.5s-2.1-1.3-3.2-1.5c-1-.2-2.2-.2-3.1.1.3.1.5.2.7.4.5.3 1.1.4 2 .5.5.1.3.4-.4.8-.4.6-1 .9-1.8.8-1 .7-1.4.3-1.8-.2 0 .3-.1.6-.3.8 0 .1.1.3 0 .5.2.3.2.5.2.8 0 .1.1.3.2.4.2.2.4.4.4.7 0 .2.1.3.3.5.2.2.4.3.6.6.6.2.9.7 1 1.3.5.2.7.5.8.9.3.1.5.2.7.5 1 0 1.9 0 2.8.1.8.1 1.5.6 2.1 1.3.4.1.8.1 1.2 0 .4-.2.9-.3 1.4-.4.8-.1 1.7-.1 2.5.1.5.1 1 .4 1.3.8.5.6 1.3.5 1.9.2.9-.4 1.6-.4 2.5 0 .4-.1.8-.2 1.2-.2.3-.4.7-.4 1-.5.6 0 1 .1.9.8 0 .2-.2.4-.3.5-.3.6-.8.8-1.4.7-.1.4-.2.7-.5.9.3.9 0 1.3-.7 1.3-.1.3-.4.4-.7.4-.3.3-.6.5-.9.5 0 .2.1.4.3.6.5.7-.2 1-.9 1 .2.5.2.9.1 1.4.7.4.7.8.1 1.2.4.8.3 1.3-.6 1.8 0 .4-.1.9-.3 1.1-.2.2-.5.2-.3.5.3.6.3 1.3-.2 1.3-.1 0-.2 0-.2.2 0 .1-.1.1-.1.2-.6.3-1.2.7-1.7 1.1-.1.1-.2.1-.2 0-.4.8-1.1 1.6-1.8 2.5-.1.6-.5 1-1 1.2 0 .2-.2.3-.3.3.3.4.4.7.1 1-.4.4-.9.8-1.4 1-1.1.3-1.7.2-2.2-.2-.4-.4-.2-.6 0-.7-.7.1-.8-.3-.8-.8 0-.2.1-.2.3-.2.4 0 .7-.2 1-.3.1-.2.3-.4.5-.6.1-.7.6-1.2 1.2-1.4.5-.2 1-.7 1.5-1.3l.9-1.5c-.2-.3-.3-.5-.3-.8-.3-.2-.5-.3-.6-.6-.5 0-.7-.2-.7-.5h-.3c-.2.1-.5.3-.7.3-.4.4-.8.7-1.2 1-.1.4-.4.5-.8.6-1 .1-1.5 1.3-2.1 1.8-.2.2-.3.4-.4.8 0 .6-.2 1.1-.5 1.1s-.4 0-.4-.1h-.4c.3.3.3.6.1 1-.2.3-.6.4-.9.4-.7 0-1.2 0-1.7-.2s-.5-.5-.5-.8c-.4-.2-.4-.3-.4-.5s.2-.3.5-.3c.2-.1.4-.2.6-.2.6-.7 1.3-1.2 1.9-1.5.2-.2.4-.5.7-.7.1-.6.5-1.1 1-1.5 0-.2.1-.4.2-.6v-.3c-.2-.4-.3-.8-.2-1.2-.1-.2-.1-.4-.1-.6-1.1.7-1.5.4-1.6-.1-.4.4-.8.5-1.1 0-.4.1-.8.3-1.2.1-.3.1-.5.2-.8.2-.1.2-.3.5-.5.7 0 .5-.2 1-.5 1.5-.2.6-.4 1.1-.7 1.7 0 .2 0 .4-.1.5.1.6-.1.9-.5 1.1-.1.3-.2.5-.4.8v.3c.1.4.2.7-.2 1.1-.3.2-.6.4-1 .6-.4.2-.7.1-1.1 0-.6-.2-.5-.4-.4-.6-.2.1-.4.1-.6 0-.1-.1-.2-.2-.4-.3-.1-.2-.2-.4.1-.6.4-.2.6-.3.9-.6.1-.2.2-.4.4-.4.2-.4.4-.7.7-.8.2-.5.4-1.1.7-1.6.1-.1.2-.3.1-.5 0-.1 0-.3.1-.3.1-.1.2-.1 0-.2-.1-.5-.1-.9.2-1.2.3-.4.6-1.5.3-2.1-.1-.3-.1-.6-.1-.9-.1 0-.2 0-.3-.1-.2-.1-.4 0-.6.3-.1.3-.3.6-.4.6-.1.9-.6 1.6-1 1.7-.1.4-.2.8-.1 1.2 0 .4 0 .7-.2.8-.2.1-.4.2-.6.5 0 .1-.1.2-.1.4.3.3.2.7-.1 1-.7.7-1.5.6-2.4.3-.6-.3-.8-.5-.7-.8-.9-.1-.7-.8 0-1 .8-.2 1.5-.7 2-1.5 0-.9.2-1.5.7-1.6 0-.5.2-1 .4-1.5.2-.4.4-.9.3-1.4-.5-.3-.5-.6-.1-1 .2-.1.1-.2-.1-.3-.3 0-.3-.3-.2-.6 0-.1-.1-.2-.2-.2-.7-.1-.5-.4-.2-.7.1-.1.2-.3.1-.4-.1-.1-.2-.3-.2-.5-.4-.3-.2-.6 0-.9-.2-.2-.3-.5-.4-.8-.8 0-1.1-.4-.6-1 .2-.2.4-.5.7-.7.2-.3.3-.6.3-.9-.2-.6.5-1 1.1-1.4-.1-.1-.1-.3-.1-.4-.3-.3-.3-.6.1-.9-.1-.1-.1-.3-.1-.4-.8.2-.8-.3-.4-1.1-.5-.3-.4-.8.5-1.5 0-.2 0-.3.1-.4-.4 0-.8.1-1.1.3-.3.2-.7.2-1 .1-.1-.2-.3-.3-.4-.4-.2-.2-.3-.4-.2-.7-1 .1-1.2-.7-.6-1.1.3-.3.6-.5.7-.8.3-.7.8-1.1 1.4-1.6 0-.2 0-.4.1-.6-.2-.2-.5-.3-.8-.3-.1-.3-.3-.5-.6-.7-.2-.1-.2-.2-.1-.5-.6-.4-.5-.7-.4-1z"/><path id="prefix___x31_31" class="prefix__st0" d="M308.1 106.2c.6 0 1.2 0 1.8-.1-.6.4-1.3.7-2 .8.1-.1.2-.2.3-.4-.1 0-.1-.2-.1-.3z"/><path id="prefix___x31_30" class="prefix__st0" d="M306.6 106.1c.4.1.8.1 1.3.1.1.1.1.2.1.3 0 .1-.1.2-.3.3 0 0-.1.1 0 .1-.3 0-.6.1-.9 0h-.4c.2-.2.3-.3.3-.5-.1-.1-.1-.2-.1-.3z"/><path id="prefix___x31_29" class="prefix__st0" d="M295.4 102.9c.7-.1 1.4-.1 2.2-.1.2.1.4.2.5.4.1.2.2.5.1.8 0 0 0 .1.1.1s.1 0 .1-.1c.1-.4 0-.7-.1-1l-.3-.3h.2c.9 0 1.5.3 2.2.7.2.2.2.3.2.5s-.1.4-.3.6c0 0-.1.1 0 .1.1.1.1 0 .1 0 .2-.2.3-.5.4-.7v-.4c.6.3 1.3.6 1.9.9.1.2 0 .3-.1.5-.1.1-.3.2-.5.3 0 0-.1 0-.1.1s.1.1.1.1c.3-.1.5-.2.6-.4.1-.1.1-.3.1-.5l1.2.6c.1.1.1.3 0 .4l-.4.4s-.1 0 0 .1c0 .1.1.1.1 0 .3-.1.4-.3.5-.5.1-.1.1-.2 0-.4.1.1.3.1.4.2.4.1.9.3 1.4.4.1.1.1.3.1.4 0 .1-.1.3-.2.4 0 0-.1.1 0 .1-1.6-.2-3-.9-4.5-1.5-.2-.1-.4-.1-.5-.2-.5-.2-1.1-.5-1.6-.7h-.1-.1-.1c-.5-.2-1-.3-1.5-.4-.6-.1-1.1-.1-1.7 0h-.1c.1-.3 0-.6-.1-.8l-.2-.1z"/><path id="prefix___x31_28" class="prefix__st0" d="M292.8 103.5c.7-.3 1.5-.5 2.2-.6.3.1.6.3.7.5.1.2.2.4.1.7h-.9c-.3 0-.7.1-1 .2-.2-.4-.4-.6-.7-.7-.1 0-.3 0-.4-.1z"/><path id="prefix___x31_27" class="prefix__st4" d="M303.4 130.1h-.2c-.3.3-.6.5-.8.7-.2-.3-.6 0-.3.2-.1 0-.1.1-.2.1-.1.3-.2.4-.6.5h-.2v-.4c0-.2 0-.3.1-.4v-.1h-.1c0 .2-.1.3-.1.5v.4c-.9.3-1.4 1.2-2 1.8-.3.2-.4.5-.5.8-.1.2-.1.9-.2 1h-.3c-.1-.1-.2-.1-.4 0h-1.1c-.2.2.4.1.7.3.1.1.2.3.2.5-.3.7-1.9.5-2.5.2-.3-.1-.3-.3-.3-.5h.3c.2 0 .4-.1.6-.2.1 0 .1-.1 0-.2s-.1-.1-.2 0c-.2.1-.3.1-.5.2h-.5c-.1-.1-.2-.1-.1-.2 0-.1.2 0 .2 0 .3-.1.5-.2.8-.2.6-.6 1.2-1.2 2-1.5.2-.3.5-.5.8-.7.1-.7.4-1.1.9-1.5.1-.3.1-.5.3-.7v-.4c-.2-.4-.3-.7-.2-1.1-.1-.3-.1-.5 0-.8v-.2c.2-.1.3-.2.5-.3.1-.1.3-.2.4-.3v.9c-.1.1-.2.2-.2.3-.1.1-.1.2-.1.3 0 0 0 .1.1.1s.1 0 .1-.1 0-.2.1-.2c0-.1.1-.2.2-.3.3 0 .5-.1.8-.4.2-.2.5-.4.7-.7v1.1c-.2.2-.4.5-.6.8v.1h.1c.1-.3.3-.5.5-.7.1 0 .1 0 .1-.1l.1-.1c.3-.2.6-.4.9-.5 0 .3-.1.7 0 1 .2.4.4.7.7 1z"/><path id="prefix___x31_26" class="prefix__st0" d="M300.7 107.6c-.2-.1-.4-.2-.6-.4-1-.5-2.1-.9-3.2-.9.4-.4.5-.8.4-1.2-.1-.3-.4-.5-.7-.8.4 0 .7 0 1.1.1.6.1 1.3.3 1.9.5.2.4.2.7.1.9-.1.3-.3.5-.6.7 0 0-.1.1 0 .1.1.1.1.1.1 0 .4-.2.6-.5.7-.8.1-.3 0-.5-.1-.9.4.2.8.4 1.1.7.4.3.7.5 1.1.8 0 .4-.1.7-.3.8-.2.1-.6.2-.9.1 0 .2-.1.2-.1.3z"/><path id="prefix___x31_25" class="prefix__st0" d="M302.9 109.2c-.7-.5-1.3-1-2-1.5.4 0 .7 0 1-.2.2-.2.4-.4.4-.9.4.3.8.7 1.2 1 .2.2.4.4.6.5 0 .2.1.3 0 .4 0 .1-.1.2-.1.3-.1.1-.2.1-.3.2-.2.1-.4.1-.7 0 0 .1-.1.1-.1.2z"/><path id="prefix___x31_24" class="prefix__st0" d="M305.2 110.7c-.2-.1-.4-.2-.7-.4-.5-.3-1-.6-1.4-1h.7c.2 0 .3-.1.4-.2.1-.1.2-.2.2-.4v-.2c.5.4.9.7 1.4 1.1.3.2.5.3.8.5v.1c0 .2-.1.3-.3.4-.2-.1-.6 0-1.1.1 0-.1 0-.1 0 0z"/><path id="prefix___x31_23" class="prefix__st0" d="M307.6 111.6c-.8-.2-1.5-.5-2.2-.8.4 0 .7-.1 1-.2.3-.1.4-.3.4-.6.4.2.9.4 1.4.6.1.2.1.3 0 .4-.1.2-.3.3-.5.4-.1.1-.2.1-.1.2z"/><path id="prefix___x31_22" class="prefix__st0" d="M312.6 111.1c.1 0 .5-.1.3 0-1.5 1-3.4 1-5.1.5.3-.1.5-.3.6-.5.1-.1.1-.3.1-.5.6.2 1.1.3 1.7.4 0 .1 0 .2-.1.3-.1.1-.3.2-.5.3 0 0-.1 0-.1.1s.1.1.1.1c.3-.1.5-.3.6-.4.1-.1.1-.2.1-.4.8.2 1.5.2 2.3.1z"/><path id="prefix___x31_21" class="prefix__st4" d="M286.9 120.5c0-.1.2-.2.2-.2.1-.2.2-.4.4-.6.2-.2.3-.5.5-.6h.1v.1c-.2.2-.4.4-.5.6-.1.2-.2.4-.4.6 0 .1.1.1 0 .2 0 .3.1.5.2.7h.1c.1-.2.1-.3.3-.4.1-.1.3-.3.5-.4l.3-.3c.1-.1.2-.2.2-.3 0 0 0-.1.1 0 .1 0 0 0 0 .1-.1.1-.1.3-.2.4-.1.1-.2.2-.3.4-.2.1-.3.2-.5.4-.1.1-.2.2-.2.3.1.1.1.2 0 .3-.2.3-.5.5-.1.8 0 .2.1.4.2.5.1.1.1.5-.2.7-.2.2-.1.2.2.2h.1c.1-.2.2-.3.3-.5.1-.1.2-.3.3-.4.2-.2.3-.3.4-.5.1-.2.1-.4.2-.5 0 0 0-.1.1-.1s.1 0 .1.1c0 .2-.1.4-.2.6-.1.2-.2.4-.4.6-.1.1-.2.2-.3.4-.1.1-.2.3-.3.4.3.2.2.5.2.8h.1c.1-.1.1-.2.2-.3l.3-.4h.1v.1l-.3.4c-.1.1-.1.2-.2.3.2.1.2.4 0 .6-.4.3-.3.4.1.7.1.4.1.7 0 1v.6s0 .1-.1.1-.1 0-.1-.1v-.3-.1s0 .1-.1.2c-.3.6-.6 1.1-.6 1.8-.7.2-.6.8-.6 1.4-.5.7-1.2 1.3-2 1.6-.2.1-.6.1-.6.4 0 .1.3.2.4.1.5-.5.7-.2.2.3 0 .1 0 .2.1.3.5.4 1.7.6 2.3.2.4-.3.6-.5.3-.9 0-.6.2-1.1.8-1.3.1-.1 0-.4 0-.5-.1-.5 0-.9.1-1.4 0-.1.1-.1.2-.1.2 0 .6-.7.8-1.3 0-.1.1-.3.1-.4 0-.2.1-.3.2-.1.1-.1.1-.2.2-.4.2-.3.6-.6.9-.4-.1-.3-.2-.6-.2-.9 0-.4 0-.8.1-1.1 0-.1 0-.1.1-.1.1-.3.2-.5.3-.8.1-.3.2-.5.3-.8 0 0 0-.1.1 0 .1 0 0 0 0 .1-.1.3-.2.5-.3.8-.1.3-.2.5-.3.8v.1c-.1.3-.1.7-.1 1 0 .4.1.7.3 1v.1c.2.1.2.1.2.4 0 .2 0 .4.1.6.4.7 0 1.8-.4 2.3-.2.3-.2.6-.1.9.2.2.1.4-.1.6v.2c0 .2-.1.4-.2.6-.3.5-.5 1.1-.8 1.7-.4.1-.5.4-.7.8-.3.1-.3.1-.4.4-.3.3-.6.5-.9.6-.3.1 0 .3.2.4.2.1.4-.2.6-.4.2-.3.4-.2.2 0-.1.2-.2.5-.2.7-.1.2.6.3.7.3.4 0 1-.4 1.3-.6.3-.3.2-.5.1-.9-.2 0-.3 0-.5-.1-.2 0-.4-.1-.6-.2v-.1c0-.1 0 0 .1 0 .2.1.4.1.6.2.2 0 .3.1.5 0v-.3c.2-.3.4-.5.5-.9.5-.2.5-.4.4-.9.1-.2.1-.3.1-.6.3-.5.6-1.1.8-1.7.4-.5.5-1 .5-1.5 0-.2.1-.4.3-.3.1-.2.2-.3.3-.5h.1c0-.1.1-.3.1-.4 0-.1.1-.2.2-.2.1-.2.1-.3.1-.5s-.1-.3-.2-.5c-.1-.1-.1-.1-.1-.2s0-.2.1-.2h.1v.1s-.1.1 0 .1c0 .1.1.1.1.2.1.2.2.3.2.5s0 .4-.1.5c-.1.1-.1.1-.1.2s-.1.2-.1.3c.3 0 .5-.1.7-.2.1-.1.3-.3.4-.5.1-.2.2-.4.2-.6 0 0 0-.1.1 0 .1 0 0 0 0 .1 0 .3-.1.5-.2.6-.1.2-.2.3-.3.4.4.1.8 0 1.1-.1-.1-.5 0-1 0-1.3.1-.4.2-.6.3-.8h.1v.1c-.1.2-.3.4-.3.7-.1.3-.1.7 0 1.2.2.3.2.5.6.3l.3-.3s0-.1.1-.1c.3-.3.6-.7 1-.9.3-.3.6-.5 1-.7h.1v.1c-.3.2-.6.4-.9.7-.3.2-.5.5-.8.8v.3c0 .4.1.6.6.4.3-.1.3-.1.6-.3.1-.1.2-.1.3-.2.2-.1.3-.3.5-.4.2-.1.3-.2.5-.3 0-.2.1-.4.1-.6.2-.5.4-.9.8-1.4.3-.2.5-.3.7-.6.2-.2.3-.4.4-.7 0 0 0-.1.1 0v.1c-.1.3-.3.5-.5.7-.2.2-.4.4-.7.6-.3.4-.6.8-.8 1.3-.1.2-.1.3-.1.5v1c.2 0 .5-.1.7-.3.3-.2.5-.5.8-.8.1-.2.1-.4.3-.5.1-.2.3-.3.4-.3h.1v.1c-.2.1-.3.2-.4.3-.1.1-.2.3-.2.5v1.2c.3-.2.6-.4 1-.5 0 0 .1 0 .1.1-.1.4-.1.7 0 1 .1.3.2.6.5.8.1-.2.2-.4.4-.5 0-.1.1-.1.1-.2l.3-.3c.1-.1.2-.1.2-.2.1-.1.2-.1.2-.2h.1v.1c-.1.1-.2.1-.2.2-.1.1-.2.1-.2.2l-.3.3v.5c.2.1.4.1.6.1.1.5.1.5.5.6v-.5c0-.2.1-.4.1-.5 0 0 0-.1.1 0 .1 0 0 0 0 .1-.1.2-.1.3-.1.5v.5c.2.3.4.5.7.6.1-.2.2-.3.2-.5s.1-.3.1-.5v-.1c.1 0 .1 0 .1.1 0 .2 0 .4-.1.5-.1.2-.1.4-.3.5 0 .2 0 .3.1.5.1-.1.1-.2.2-.3.1-.1.2-.3.3-.4h.1v.1c-.1.1-.2.2-.3.4-.1.1-.1.3-.2.4 0 .1.1.1.1.2-.6 1.1-1.3 2.6-2.6 3.2-.7.3-.9.6-1.1 1.3-.2.2-.4.4-.6.7-.4.1-.8.4-1.3.3 0 .3.1.4.4.4.6-.3.7-.3.8-.3.1.1-.1.5-.6.8-.1 0-.1.1 0 .1.4.6 1.5.4 2 .3.4-.1 1.1-.6 1.3-1 .1-.2-.1-.4-.3-.6-.8.1-.7-.7 0-.3.2-.1.3-.1.3-.3.6-.2.9-.5 1-1.2.6-.7 1.3-1.4 1.7-2.2.1-.2.2-.4.2-.6.1-.1.2-.3.2-.5s.1-.3.1-.5c0 0 0-.1.1-.1s.1 0 .1.1c0 .2 0 .3-.1.5 0 .1-.1.3-.1.4 0 .1.1.2.2.1.5-.4 1.1-.7 1.7-1.1 0-.2.2-.4.4-.4.1 0 .1 0 .2-.1.1-.3 0-.6-.2-.9-.2-.4.1-.5.4-.7.3-.2.3-.8.3-1.1v-.2c0-.1-.1-.2-.1-.3v-.1h.1c0 .1.1.2.1.4v.1c.3-.1.6-.3.7-.6.1-.3-.1-.6-.3-.9-.1 0-.1.1-.2.1-.1.1-.3.1-.4.2h-.1v-.1c.1-.1.3-.1.4-.2.1 0 .2-.1.3-.1l.3-.3c.2-.3-.3-.5-.5-.6-.3-.2-.5-.5-.8-.7v-.1h.1c.2.2.5.4.7.7 0-.4 0-.8-.1-1.2 0-.1-.1-.3-.1-.4-.2-.1-.4-.3-.5-.4-.1-.2-.2-.3-.2-.5 0 0 0-.1.1-.1s.1 0 .1.1c0 .2.1.3.1.5.1.1.2.3.4.4.2.1.7.1 1-.1.4-.2-.1-.6-.2-.9-.1-.2-.1-.4-.1-.6h.1c0-.1-.1-.1-.1-.2-.1-.1-.1-.1-.2-.1 0 0-.1 0 0-.1 0-.1 0 0 .1 0s.2.1.2.1l.2.2h.1c.4-.1.6-.3.8-.5l-.4-.4c-.1-.1-.3-.3-.5-.4v-.1h.1c.2.1.3.3.5.4l.4.4v.1c.3 0 .4 0 .6-.3 0-.2-.1-.3-.2-.4-.1-.1-.2-.3-.3-.4v-.1h.1c.1.1.3.3.3.4.1.1.2.3.2.5.2 0 .3 0 .5-.1.3-.2 0-.8 0-1l-.1-.1c-.1 0-.1-.1-.2-.1v-.1h.1c.1 0 .1.1.2.1s.1.1.2.1l.1-.1c.2-.2.3-.4.4-.6.1-.4.1-.2.5-.3.5-.1.7-.1 1-.7.1-.1.2-.1.2-.3 0-.3 0-.5-.3-.5-.5 0-.8.1-1.2.4 0 .1.1.1.1.2v.1h-.1c0-.1-.1-.1-.1-.2-.5 0-.8 0-1.3.2 0 0-.1 0-.1-.1.1.1.2.2.2.4.1.2.1.3.1.5 0 0 0 .1-.1.1s-.1 0-.1-.1 0-.3-.1-.4c-.1-.1-.2-.3-.3-.5-.4-.1-.7-.2-1-.2l.2.2.2.2v.1h-.1l-.2-.2-.2-.2c-.3 0-.6.1-.9.2-.2.1-.4.2-.6.2.2.1.3.3.4.5.1.2.2.4.2.6v.1h-.1c0-.2-.1-.4-.2-.6-.1-.2-.2-.3-.4-.5h-.6l.2.4v.1h-.1l-.2-.4c-.2 0-.3-.1-.5-.2.1.2.1.4.1.6 0 .3.1.6.1 1 0 0 0 .1-.1.1s-.1 0-.1-.1c0-.3 0-.7-.1-.9 0-.3-.1-.5-.2-.8-.1-.1-.2-.1-.2-.2-.2-.2-.4-.4-.6-.5v.3c0 .2-.1.3-.2.5h-.1v-.1c.1-.1.2-.3.2-.4v-.3c-.3-.2-.7-.2-1.1-.3.1.1.2.3.3.4.1.2.2.3.3.5.2.1.2.3.3.5 0 .2.1.4.1.5 0 0 0 .1-.1.1s-.1 0-.1-.1c0-.2 0-.4-.1-.5 0-.2-.1-.3-.3-.4-.1-.2-.2-.3-.3-.5-.1-.2-.2-.3-.4-.5h-.4s0 .1.1.1c0 .1.1.2.1.3 0 0 0 .1-.1.1s-.1 0-.1-.1 0-.2-.1-.2c0-.1-.1-.1-.1-.1-.3 0-.6 0-.8.1.3.4.5.7.7 1.1.2.4.3.9.4 1.3v.1h-.1c-.1-.4-.2-.9-.4-1.3s-.4-.8-.7-1.1c-.2 0-.4.1-.6.1.1.1.2.1.2.2l.2.2v.1h-.1l-.2-.2c-.1-.1-.2-.1-.3-.2-.1 0-.2.1-.3.1-.1 0-.1 0-.2.1.2.1.4.3.5.4.2.2.4.4.6.7v.1h-.1c-.2-.3-.4-.5-.6-.7-.2-.2-.4-.3-.6-.5-.2.1-.5.1-.7.1.1.3.3.6.4.8.1.3.2.6.2.9 0 0 0 .1-.1.1s-.1 0-.1-.1c0-.3-.1-.6-.2-.9-.1-.3-.2-.6-.4-.9h-.4c.1.3.2.5.2.8.1.3.1.6.2 1v.1h-.1c0-.3-.1-.7-.2-1-.1-.3-.1-.6-.2-.9-.4-.4-.8-.9-1.4-1.1.1.1.2.3.3.4.1.2.1.5.1.8 0 0 0 .1-.1.1s-.1 0-.1-.1c0-.3 0-.5-.1-.7-.1-.2-.2-.4-.4-.6-.1 0-.3-.1-.4-.1-.4 0-.7-.1-1.1-.1.3.2.5.5.5.8 0 0 0 .1-.1.1s-.1 0-.1-.1c0-.3-.2-.5-.5-.7h-.6c.1.1.2.2.3.4.1.2.2.3.2.5 0 .3.1.5.2.7.1.2.3.3.5.4 0 0 .1 0 0 .1 0 .1 0 0-.1 0-.2-.1-.4-.3-.5-.5-.1-.2-.2-.4-.2-.7 0-.1-.1-.3-.2-.4-.1-.1-.2-.3-.4-.4h-.7c.1.3.2.6.2.9.1.4.1.7.1 1.1 0 0 0 .1-.1.1s-.1 0-.1-.1c0-.4 0-.7-.1-1.1 0-.3-.1-.6-.2-.9h-.1c-.2-.3-.3-.4-.5-.5v.1c0 .1 0 .2-.1.2h-.1v-.1c0-.1.1-.1.1-.2v-.1h-.1c-.1-.5-.2-.7-.6-.8v.4c0 .2-.1.3-.2.5h-.1v-.1c.1-.2.1-.3.2-.5v-.4h-.1c-.1-.7-.2-1-.9-1.3v.3c0 .1 0 .3-.1.5 0 0 0 .1-.1 0-.1 0 0 0 0-.1.1-.1.1-.3.1-.4v-.4c-.1-.2-.4-.3-.5-.5 0 .2 0 .5-.1.7-.1.3-.2.6-.4.9h-.1v-.1c.2-.3.3-.6.4-.9.1-.3.1-.5.1-.8-.1-.1-.1-.2-.2-.3 0 .1-.1.1-.1.2 0 0 0 .1-.1 0-.1 0 0 0 0-.1s.1-.1.1-.2c0 0 0-.1.1-.1v-.1c0-.2-.1-.4-.3-.5 0 .1 0 .1-.1.2 0 .1-.1.2-.2.3h-.1v-.1c.1-.1.1-.2.2-.3 0-.1.1-.2.1-.2-.1-.1-.1-.2-.2-.3 0 .1-.1.1-.1.2l-.2.2h-.1v-.1l.2-.2c0-.1.1-.1.1-.2v-.2c.1-.3-.1-.5-.2-.8-.1 0-.2 0-.3.1-.1.1-.3.2-.5.3h-.1v-.1c.2-.1.3-.2.5-.3.2-.1.3-.1.4-.1v-.2c-.5.2-.9.3-1.2.3-.3 0-.6 0-.8-.1 0 0-.1 0 0-.1 0-.1 0 0 .1 0 .2.1.4.1.8.1.3 0 .7-.1 1.2-.3.1-.2.2-.4.2-.6h-.5s-.1 0-.1-.1 0-.1.1-.1c.2 0 .4 0 .6-.1v-.2c0-.2.3-.3.5-.1l.4.4c.3.1.6 0 .9-.2-.1 0-.1 0-.2-.1 0 0-.1 0 0-.1 0-.1 0 0 .1 0s.2.1.3.1l.1-.1c.6.1 1-.1 1.4-.5h-1c-.3 0-.6-.1-.7-.2 0 0-.1 0 0-.1h.1c.2.1.4.1.7.2h1l.1-.1c.2-.1.3-.1.5-.3-.7-.1-1.4-.2-2.1-.6-.2-.2-.4-.3-.7-.4-.5-.1-1 .1-1.4.3l-.3-.3c-.2 0-.3-.1-.5-.1h-.7s-.1 0 0-.1c0-.1 0-.1.1 0h.7c.2 0 .4.1.6.1.7-.3 1.3-.4 1.8-.4.6-.2 1.2-.2 1.8-.2-.1-.1 0-.1 0-.1.3-.3.4-.7.3-.9-.1-.3-.4-.6-.8-.8-.4.1-.9-.1-1.4 0-.3 0-.6.1-.9.2.2.1.4.2.6.4.2.3.4.6.4 1 0 .1 0 .1-.1.1s-.1 0-.1-.1c-.1-.4-.2-.7-.4-.9-.2-.3-.7-.4-.8-.5-.5 0-.9.1-1.4.2-.3.1-.6.2-.8.3.3-.1.6-.1.9.1.3.1.5.4.6.8 0 0 0 .1-.1.1s-.1 0-.1-.1c-.1-.3-.3-.6-.5-.7-.4-.2-1.3 0-1.7.3-.2.2-.4.4-.7.6 0 0-.1.1-.2 0s-.1-.1 0-.2c.2-.3.5-.5.7-.7.2-.2.5-.3.7-.4.3-.3.6-.4 1.1-.6.4-.1.9-.2 1.4-.2-.1-.3-.3-.5-.5-.6-.2-.1-.5-.1-.8-.1-.6.2-1.1.5-1.6.9h.5s.1 0 .1.1-.4 0-.5 0h-.4-.1c-.6.4-1.1.8-1.6 1.2h-.1c-.5 0-.8 0-1 .2-.2.1-.2.3-.1.6-.1.3-.2.5-.2.8-.5.5-1.1.9-1.4 1.6-.1.2-.2.4-.3.5.1 0 .2.1.3.1l.1.1c0-.1 0-.2.1-.3 0-.2.1-.3.2-.4h.1v.1c-.1.1-.1.2-.2.4 0 .2-.1.4-.1.5 0 .1-.1.1-.1 0s-.1-.2-.1-.2c-.1-.1-.2-.1-.3-.1-.1.1-.2.2-.4.3-.1.1-.2.2-.2.3 0 .2.3.3.6.3.6 0 .1.4.5.7.2.1.3.3.5.4.2.1.4.1.6 0 0-.4 0-.7.2-.7v-.2c0-.1.1-.2.1-.2h.1v.1c-.1.1-.1.1-.1.2V112.2c.4-.2.7-.2 1.1-.2.7-.8 1-.6.4 0 0 .1-.1.1-.1.2-.1.2-.2.4-.2.6-.2.2-1.1.9-.7 1.1.2 0 .4 0 .3.1-.1.2-.4.7-.3 1 0 .1.2.1.3.1.2-.2.5-.4.7-.7.2-.2.4-.5.6-.8 0 0 0-.1.1-.1.1-.3.1-.5.2-.8.1-.3.2-.5.3-.8h.1l.3.3c.1.1.2.1.2.1.1 0 .2 0 .2-.1l.3-.3h.1v.1l-.3.3c-.1.1-.2.1-.3.1-.1 0-.2 0-.3-.1-.1-.1-.2-.1-.3-.3-.1.2-.2.5-.3.7-.1.3-.2.5-.2.8.1 0 0 .1 0 .1l-.6.9-.6.6c0 .2.1.4.2.5.4-.3.7-.7 1.1-1 .3-.3.6-.7.8-1.1h.1v.1c-.1.2-.2.4-.4.6v.1s-.1.2-.1.3V115.4h-.1v-.7-.2l-.3.3c-.3.4-.7.7-1.1 1v.1c-.3.2-.6.3-.2.7.1-.1.3-.2.4-.3l.4-.3h.1v.1l-.4.3c-.1.1-.3.2-.4.3 0 .2 0 .3.1.4h.1c.3-.2.6-.4.8-.6h.1v.1c-.3.2-.5.4-.8.6l-.1.1c-.3.2-1.2.8-1.1 1.2.2-.1.5-.1.7-.3.2-.1.5-.3.7-.5h.1v.1c-.2.2-.5.4-.7.5v.2s0 .1-.1.1-.1 0-.1-.1v-.1-.1c-.2.1-.4.2-.6.2.1.4-.1.7-.3 1.1-.1.1-1.1.9-.7 1.1-.2-.3 0-.2.1-.2z"/><path id="prefix___x31_20" d="M303.9 129.9c-.2.1-.3.2-.5.2.1-.2.2-.4.4-.5l.1-.1v.4z"/><path id="prefix___x31_19" d="M306 134.3c-.1.2-.2.3-.4.5-.2.1-.3.3-.5.4h-.1v-.1c.2-.1.3-.2.5-.4.2-.1.3-.3.5-.4-.1 0-.1-.1 0 0z"/><path id="prefix___x31_18" d="M307.4 132.7c-.1.1-.1.2-.2.3h-.1v-.1c.1-.1.1-.2.3-.2-.1-.1-.1-.1 0 0 0-.1 0 0 0 0z"/><path id="prefix___x31_17" d="M306.6 132.6c0 .2-.1.3-.2.4-.1.1-.3.3-.5.4h-.1v-.1c.2-.1.3-.2.4-.3.1-.1.1-.3.2-.4.1-.1.1-.1.2 0 0-.1 0 0 0 0z"/><path id="prefix___x31_16" d="M308 130.9c-.1.1-.1.1-.1.2s-.1.1-.1.2c0 0 0 .1-.1 0-.1 0 0 0 0-.1s.1-.2.1-.3c0 .1 0 0 .2 0-.1-.1-.1-.1 0 0z"/><path id="prefix___x31_15" d="M309.1 131c0 .2-.1.3-.2.5s-.1.3-.2.5h-.1v-.1c.1-.2.2-.3.2-.5.1-.2.1-.3.1-.5.1.1.1.1.2.1z"/><path id="prefix___x31_14" d="M308.6 124.6c.3.5.4 1 .4 1.5 0-.2.1-.4.1-.6l.3-.6v-.6-.1h.1v.6c0 .2-.1.4-.3.6-.1.4-.2.7-.2 1.1v.1c0 .1-.1 0-.1 0v-.1c0-.6 0-1.2-.3-1.9-.1 0-.1 0 0 0 0-.1 0-.1 0 0z"/><path id="prefix___x31_13" d="M307.7 125.6v.2s0 .1-.1.1-.1 0-.1-.1v-.1-.1h.2c.1 0 .1 0 0 0z"/><path id="prefix___x31_12" d="M307.5 127.1c.1.3.2.6.2.9 0 .2.1.4.1.6 0 0 0-.1.1-.1.1-.1.2-.2.4-.3h.1v.1l-.3.3c-.1.1-.1.2-.2.3 0 .1-.1 0-.1 0 0-.3 0-.6-.1-.9 0-.3-.1-.6-.2-.8-.1-.1-.1-.1 0-.1z"/><path id="prefix___x31_11" d="M308.7 127.6c0 .2.1.4.1.7v.6s0 .1-.1 0c-.1 0-.1 0 0-.1v-.6c0-.2 0-.4-.1-.6h.1z"/><path id="prefix___x31_10" d="M309.7 127.5c0 .2.1.4 0 .6 0 .2 0 .4-.1.6-.1.2-.1.4 0 .6 0 .2.1.4.2.6v.1h-.1c-.1-.2-.2-.4-.2-.7v-.7c.1-.2.1-.3.1-.5v-.6s0-.1.1 0c0-.1 0-.1 0 0z"/><path id="prefix___x31_09" d="M310.2 125.8c0 .1-.1.2-.1.3 0 .1-.1.2-.1.3 0 0 0 .1-.1 0-.1 0 0 0 0-.1s.1-.2.1-.3c0-.1.1-.2.1-.3l.1.1c0-.1 0 0 0 0z"/><path id="prefix___x31_08" d="M309.7 123c0 .1.1.2.1.3v.1h-.1c0-.1-.1-.2-.1-.3 0-.1 0-.1.1-.1z"/><path id="prefix___x31_07" d="M309.9 120.9v.8c-.1.1-.2.2-.3.4 0 .2-.1.4 0 .6v.1h-.1v-.7c.1-.2.1-.3.3-.5v-.4-.4c0 .1 0 .1.1.1z"/><path id="prefix___x31_06" d="M307.8 120.2c.3.2.6.4.8.7.2.3.3.6.3 1 0 0 0 .1-.1 0-.2-.1-.4-.2-.5-.2.1.8.1 1.4-.1 1.9s-.5.9-1 1.1c0 0-.1 0-.1-.1.1-.3.1-.6.2-.9v-.9-.1h.1c.1.3.1.6 0 .9 0 .3-.1.5-.1.8.4-.2.7-.5.8-.9.2-.5.2-1.1.1-1.9 0 0 0-.1.1-.1.2.1.4.2.6.2 0-.3-.1-.6-.3-.8-.2-.2-.5-.4-.8-.7 0 .1-.1 0 0 0z"/><path id="prefix___x31_05" d="M313.3 119.1v.2s0 .1-.1 0c-.1 0 0 0 0-.1v-.1-.1l.1.1z"/><path id="prefix___x31_04" d="M312 119.1c.1 0 .2.1.3.2l.2.2v.1h-.1c0-.1-.1-.1-.1-.2-.1-.1-.1-.1-.2-.1-.1-.1-.2-.1-.1-.2z"/><path id="prefix___x31_03" d="M310.1 119.6c.1.2.2.3.3.5 0 .2.1.4 0 .7 0 0 0 .1-.1.1s-.1 0 0-.1v-.6c-.1-.2-.1-.4-.2-.6-.1.1-.1.1 0 0z"/><path id="prefix___x31_02" d="M303.7 120.2v.4s0 .1-.1.1-.1 0 0-.1v-.2-.2h.1z"/><path id="prefix___x31_01" d="M304.9 119.6c0 .1.1.2.1.3v.2h-.1v-.1c0-.1-.1-.2-.1-.3-.1-.1-.1-.1.1-.1-.1 0 0 0 0 0z"/><path id="prefix___x31_00" d="M307.3 121.3v.2s0 .1-.1.1-.1 0-.1-.1v-.1-.1c.1 0 .1-.1.2 0 0-.1 0-.1 0 0z"/><path id="prefix___x39_9" d="M308.2 119.4c.1.1.1.1.1.2v.2s0 .1-.1 0v-.1-.1c-.1 0-.1-.1 0-.2-.1 0-.2 0 0 0-.1 0-.1 0 0 0z"/><path id="prefix___x39_8" d="M302.3 119.7c0 .1 0 .3.1.4 0 .1.1.2.2.3.1.1.2.3.2.4v.4s0 .1-.1.1-.1 0-.1-.1v-.4c0-.1-.1-.3-.2-.4-.1-.1-.2-.2-.2-.4 0-.1-.1-.3-.1-.4.1.1.1 0 .2.1 0-.1 0 0 0 0z"/><path id="prefix___x39_7" d="M304.7 121.3c.1.2.2.5.2.7v.7c0 .3 0 .6.2.9.1.3.4.5.7.7-.1-.3-.1-.6-.1-1s.1-.7.4-1c.1-.1.2-.3.2-.4.1-.1.1-.3.1-.4 0 0 0-.1.1 0 .1 0 .1 0 0 .1 0 .2-.1.3-.1.5-.1.2-.1.3-.3.5-.2.3-.3.6-.4 1 0 .3.1.7.2 1.1 0 0 0 .1-.1.1-.4-.3-.7-.5-.9-.8-.2-.3-.2-.6-.2-.9 0-.2.1-.5 0-.7.1-.6 0-.8 0-1.1-.1 0-.2 0 0 0-.1-.1 0 0 0 0z"/><path id="prefix___x39_6" d="M303.7 122.7c0 .3-.1.5-.2.8-.1.2-.2.4-.4.6.1 0 .2-.1.3-.1.1-.1.3-.1.4-.3l.3-.3c.1-.1.2-.2.3-.4h.1v.1c-.1.1-.2.3-.3.4l-.3.3v.5h-.1v-.2-.1c-.1.1-.3.2-.4.2-.2.1-.3.1-.4.2 0 0-.1 0-.1-.1.2-.3.4-.5.5-.8.1-.2.2-.5.2-.7 0-.1 0-.1.1-.1z"/><path id="prefix___x39_5" d="M302.6 122.7v.3s0 .1-.1.1-.1 0-.1-.1v-.3c0-.1 0-.1.2 0 0-.1 0-.1 0 0z"/><path id="prefix___x39_4" d="M301.8 121.2c.2.4.2.7.1 1-.1.3-.2.6-.4.9-.2.2-.4.4-.5.7-.1.2-.1.4-.2.6.1-.1.1-.2.2-.2.1-.1.3-.3.5-.3.2-.1.5-.3.7-.4.2-.2.4-.3.6-.5h.1v.1l-.6.6c-.2.2-.4.3-.7.4-.2.1-.4.2-.5.3-.1.1-.2.3-.3.5h-.1c.1-.3.1-.6.3-.9.1-.3.3-.5.5-.7.2-.3.4-.6.4-.9.1-.3 0-.6-.1-1-.1-.2-.1-.2 0-.2z"/><path id="prefix___x39_3" d="M304.2 125c0 .1 0 .2.2.4l.1.1c.2.3.3.6.3.9 0 .3-.1.6-.1.9 0 .1-.1.1-.1 0-.1-.3-.2-.6-.4-.9-.2-.3-.5-.5-.8-.7v-.1h.1c.3.2.6.5.9.8.2.2.3.4.4.7 0-.2.1-.4.1-.7 0-.3-.1-.6-.3-.8 0-.1-.1-.1-.1-.1-.2-.2-.3-.3-.2-.5-.2 0-.2-.1-.1 0z"/><path id="prefix___x39_2" d="M305.2 124.9l.1.1.1.1v.1h-.1l-.1-.1v-.2c-.1.1-.1.1 0 0z"/><path id="prefix___x39_1" d="M306.4 125.3c-.1.2-.2.5-.2.7-.1.2-.2.5-.2.7 0 0 0 .1-.1 0-.1 0 0 0 0-.1.1-.2.2-.5.2-.7.1-.2.2-.5.2-.7 0 .1 0 .1.1.1z"/><path id="prefix___x39_0" d="M307.1 129.5V129.8h-.1v-.3c0-.1 0-.1.1 0 0-.1 0 0 0 0z"/><path id="prefix___x38_9" d="M306.4 128.3c0 .1-.1.3-.1.4 0 .1-.1.3-.1.4 0 0 0 .1-.1 0-.1 0 0 0 0-.1s.1-.3.1-.4c0-.1.1-.3.1-.4l.1.1c0-.1 0-.1 0 0z"/><path id="prefix___x38_8" d="M305.3 128.3c.1.1.1.1.1.2h-.1v-.2c-.1 0-.1 0 0 0 0-.1 0-.1 0 0z"/><path id="prefix___x38_7" d="M304.1 127.7c0 .1-.1.1-.1.2s-.1.1-.1.2c0 0 0 .1-.1 0-.1 0 0 0 0-.1s.1-.1.1-.2.1-.1.1-.2l.1.1c0-.1 0-.1 0 0z"/><path id="prefix___x38_6" d="M302.3 129.5c-.1.1-.1.2-.1.2 0 .1-.1.2-.1.3 0 0 0 .1-.1 0-.1 0-.1 0 0-.1 0-.1 0-.2.1-.3 0 .1.1 0 .2-.1 0 0 0-.1 0 0 .1 0 0 0 0 0z"/><path id="prefix___x38_5" d="M297.2 134.5c0 .1-.1.1-.1.2s-.1.1-.2.2h-.1v-.1c.1 0 .1-.1.2-.1l.1-.1c0-.1.1-.2.1-.1.1 0 0 0 0 0z"/><path id="prefix___x38_4" d="M298 134.1c0 .1-.1.1-.1.1s-.1.1-.2.1h-.1v-.1c.1 0 .1 0 .1-.1l.1-.1c.1 0 .2 0 .2.1.1 0 0 0 0 0z"/><path id="prefix___x38_3" d="M299.1 133.5s-.1 0 0 0c-.1.1-.1.2-.2.2h-.1v-.1s.1 0 .1-.1c.1 0 .1-.1.2 0-.1-.1-.1-.1 0 0 0-.1 0-.1 0 0z"/><path id="prefix___x38_2" d="M300.7 129.3c0 .1-.1.3-.1.4v.5h-.1v-.5c0-.2.1-.3.1-.5 0 .1 0 0 .1.1z"/><path id="prefix___x38_1" d="M301.8 118.3c0 .1 0 .2-.1.4-.1.1-.1.2-.3.4h-.1v-.1c.1-.1.2-.2.2-.3 0-.1.1-.2.1-.3 0-.1 0-.1.2-.1z"/><path id="prefix___x38_0" d="M300.7 117.3c.1.2.2.3.2.5v.5s0 .1-.1.1-.1 0-.1-.1v-.5c0-.1-.1-.2 0-.5-.2.1-.2.1 0 0-.1 0-.1 0 0 0z"/><path id="prefix___x37_9" d="M299.2 119.2c-.2-.1-.3-.3-.4-.4-.1-.2-.1-.3-.1-.5 0 0 0-.1.1 0 .1 0 .1 0 0 .1 0 .1 0 .3.1.4 0 0 .2.1.3.4.1-.1.1-.1 0 0z"/><path id="prefix___x37_8" d="M300.8 121.9v.2s0 .1-.1.1-.1 0-.1-.1v-.1-.1h.2z"/><path id="prefix___x37_7" d="M298.7 119.8c.3.3.5.7.6 1.1.1.3.1.5.1.8.1-.1.3-.2.3-.4.1-.2.1-.5.1-.9.1-.2.2-.4.2-.6 0-.2.1-.4.1-.6 0 0 .1-.1.1 0 .2.3.4.5.5.8.1.3.2.6.2 1 0 0 0 .1-.1.1s-.1 0-.1-.1c0-.3-.1-.6-.2-.9-.1-.2-.2-.5-.4-.7 0 .1 0 .3-.1.4 0 .2-.1.4-.2.6 0 .4-.1.7-.1.9-.1.2-.2.4-.4.5v.4s0 .1-.1.1-.1 0-.1-.1c0-.5 0-.9-.1-1.3.2-.3 0-.7-.3-1.1-.1.1-.1.1 0 0z"/><path id="prefix___x37_6" d="M300 125c0 .1 0 .3-.1.4 0 .1 0 .3-.1.4 0 0 0 .1-.1 0-.1 0-.1 0 0-.1 0-.1 0-.3.1-.4 0-.1 0-.3.1-.4-.1.1 0 0 .1.1z"/><path id="prefix___x37_5" d="M297.6 126c0 .1 0 .2.1.3v.1h-.1c0-.1 0-.2-.1-.3 0-.1 0-.1.1-.1z"/><path id="prefix___x37_4" d="M299.6 123.3c0 .2-.1.4-.2.6-.1.2-.2.4-.4.6-.2.2-.3.4-.3.7 0 .2 0 .5.1.7v.1h-.1c-.1-.3-.1-.5-.1-.8 0-.3.1-.5.4-.7.2-.2.3-.4.4-.6.1-.2.1-.4.2-.6-.1 0-.1 0 0 0z"/><path id="prefix___x37_3" d="M299.1 122.6c0 .2 0 .4-.1.6-.1.2-.2.4-.4.6-.2.2-.3.3-.4.5l-.3.6s0 .1-.1 0c-.1 0 0 0 0-.1l.3-.6c.1-.2.3-.4.4-.5.2-.2.3-.4.4-.6.1-.2.1-.4.1-.6l.1.1c0-.1 0-.1 0 0z"/><path id="prefix___x37_2" d="M296.5 123.8c.1.4 0 .8-.2 1.1-.2.3-.4.6-.7.8h-.1v-.1c.3-.2.5-.5.7-.8.1-.3.2-.6.2-1 0 0 0-.1.1 0 0-.1 0-.1 0 0z"/><path id="prefix___x37_1" d="M293.3 125.6c0 .1.1.1.1.2s.1.1.1.2v.1h-.1c0-.1-.1-.1-.1-.2-.1-.1-.1-.2 0-.3-.2 0-.2 0 0 0-.1-.1-.1 0 0 0z"/><path id="prefix___x37_0" d="M292 125.6c0 .3 0 .5.1.7.1.2.2.5.3.7.1.2.1.3.2.5v.4c.2-.2.3-.3.4-.5.1-.2.2-.4.2-.6 0 0 0-.1.1-.1s.1 0 .1.1c0 .2-.1.5-.2.7-.1.2-.3.4-.5.6h-.1c0-.2 0-.3-.1-.5 0-.2-.1-.3-.2-.5-.2-.2-.3-.5-.3-.7-.1-.2-.1-.5-.1-.8h.1z"/><path id="prefix___x36_9" d="M292.1 130.1c0-.1 0-.3.1-.4 0-.1.1-.3.1-.4 0 0 0-.1.1 0 .1 0 0 0 0 .1-.1.1-.1.3-.1.4 0 .1-.1.3-.1.4 0-.1 0-.1-.1-.1z"/><path id="prefix___x36_8" d="M292 131.3c0-.2 0-.3.1-.5 0 0 0-.1.1 0 .1 0 .1 0 0 .1 0 .2 0 .3-.1.5 0-.1 0 0-.1-.1 0 .1 0 0 0 0z"/><path id="prefix___x36_7" d="M291.1 133.4c.1-.1.2-.2.2-.3.1-.1.1-.2.2-.4h.1v.1c-.1.1-.1.3-.2.4 0 .1-.1.2-.3.2.1.1.1.1 0 0z"/><path id="prefix___x36_6" d="M289.9 126.4v.2s0 .1-.1.1-.1 0-.1-.1v-.2h.2z"/><path id="prefix___x36_5" d="M287.8 131.2v-.4s0-.1.1-.1.1 0 .1.1v.4c-.1 0-.1.1-.2 0 0 .1 0 0 0 0z"/><path id="prefix___x36_4" d="M293 122.7c-.1.4-.2.7-.2 1.1 0 .3.1.6.3.7.3.2.4.4.5.7 0-.1.1-.3.1-.4v-.5-.1h.1v.5c0 .2-.1.4-.1.5 0 0-.1.1-.1 0s-.1-.1-.1-.2c-.1-.2-.2-.5-.5-.6-.3-.2-.4-.5-.4-.8 0-.3.1-.7.2-1.1.1.1.2.1.2.2.1-.1.1-.1 0 0z"/><path id="prefix___x36_3" d="M292.7 121.3v.8c0 .3-.1.5-.2.8-.1.3-.2.7-.2 1.1 0 .4.1.7.3 1.1v.1h-.1c-.2-.4-.3-.7-.3-1.1 0-.4 0-.8.2-1.1.1-.3.2-.5.2-.8 0-.3.1-.5 0-.8 0-.1 0-.2.1-.1 0-.1 0-.1 0 0z"/><path id="prefix___x36_2" d="M290.3 124.7c-.1.2-.1.3-.1.5s.1.3.2.5v.1h-.1c-.1-.2-.2-.4-.2-.6-.1-.1 0-.3.2-.5-.1 0-.1-.1 0 0z"/><path id="prefix___x36_1" d="M289.2 124.4v.3c0 .1 0 .2-.1.3 0 .1-.1.2 0 .3 0 .1.1.2.1.3v.1h-.1c-.1-.1-.1-.2-.2-.3 0-.1 0-.2.1-.4 0-.1.1-.2.1-.2v-.3c0-.2 0-.2.1-.1 0-.1 0-.1 0 0z"/><path id="prefix___x36_0" d="M295.4 115.2v.8c.1.3.2.5.3.7v.1h-.1c-.1-.2-.2-.5-.3-.8-.1-.3-.1-.6 0-.9l.1.1c0-.1 0 0 0 0z"/><path id="prefix___x35_9" d="M294.6 115.9c.1.3.3.5.4.8.1.3.2.6.2 1 0 0 0 .1-.1.1s-.1 0-.1-.1c0-.4-.1-.7-.2-1 0-.2-.1-.5-.2-.8-.1.1-.1 0 0 0z"/><path id="prefix___x35_8" d="M290.8 116.1c-.4.5-.5 1-.6 1.3 0 .4.1.7.2 1 .1.3.1.6.1.9 0 .3-.1.6-.2.9 0 0 0 .1-.1 0-.1 0 0 0 0-.1.1-.3.2-.6.2-.8 0-.3 0-.6-.1-.8-.2-.3-.3-.6-.2-1 0-.5.2-1 .7-1.4-.1-.1-.1-.2 0 0 0-.1 0-.1 0 0z"/><path id="prefix___x35_7" d="M294.3 114.5c0 .2 0 .3-.1.5-.1.1-.2.3-.3.4-.2.1-.3.3-.3.5V116.7h-.1c-.1-.3-.1-.6 0-.8.1-.2.2-.4.4-.6.2-.1.3-.3.3-.4.1-.1.1-.3 0-.4h.1z"/><path id="prefix___x35_6" d="M290.5 114.9c.1.2.1.5 0 .7-.1.2-.2.5-.4.7-.2.2-.3.4-.4.6-.1.2-.1.5-.1.8 0 0 0 .1-.1.1s-.1 0-.1-.1c0-.3 0-.6.1-.8s.2-.5.4-.7c.2-.2.3-.4.4-.6.1-.2.1-.4 0-.6.1-.1.1-.2.2-.1 0-.1 0-.1 0 0z"/><path id="prefix___x35_5" d="M292.7 115v.2c0 .1 0 .2.1.2v.1h-.1c-.1-.1-.1-.2-.1-.3v-.3l.1.1c0-.1 0-.1 0 0z"/><path id="prefix___x35_4" d="M292.6 114.4c-.2.1-.4.2-.5.4-.1.2-.2.5-.2.8.1.1.2.3.2.5.1.2.1.4.1.7 0 0 0 .1-.1.1s-.1 0-.1-.1c0-.3 0-.5-.1-.7 0-.2-.1-.3-.2-.4-.4.4-.6.8-.6 1.3s.2 1 .5 1.6v.1h-.1c-.4-.6-.6-1.1-.6-1.6s.2-1 .7-1.4c0-.3.1-.6.2-.9.1-.2.3-.4.5-.5.3 0 .3 0 .3.1.1 0 0 0 0 0z"/><path id="prefix___x35_3" d="M292 113.6v.1c0 .3-.1.6-.3.7-.1.1-.2.2-.2.3-.1.1-.1.3-.1.4 0 0 0 .1-.1 0-.1 0-.1 0 0-.1 0-.2 0-.3.1-.4.1-.1.1-.3.3-.4.2-.1.2-.4.2-.7v-.1c0 .2 0 .1.1.2 0-.1 0 0 0 0z"/><path id="prefix___x35_2" d="M298 120c.1.1.1.3.2.4 0 .1.1.3 0 .4 0 0 0 .1-.1.1s-.1 0-.1-.1v-.4c0-.1-.1-.3-.1-.4 0 .1 0 0 .1 0z"/><path id="prefix___x35_1" d="M298.1 122c0 .2.1.5 0 .7 0 .2-.1.5-.3.7l-.3.6s0 .1-.1 0v-.1l.3-.6c.1-.2.2-.5.2-.7v-.7c0 .1 0 .1.2.1-.1 0 0 0 0 0z"/><path id="prefix___x35_0" d="M296.8 120.2c.4.4.6.8.7 1.3.1.4.1.9 0 1.4 0 0 0 .1-.1 0-.1 0 0 0 0-.1.1-.5.1-.9 0-1.4-.1-.4-.3-.8-.6-1.2-.1 0-.1 0 0 0 0-.1 0 0 0 0z"/><path id="prefix___x34_9" d="M296.7 122.4c-.1.2-.2.5-.4.7-.2.2-.3.5-.5.7-.1.1-.2.3-.3.4-.1.2-.2.3-.2.6 0 .1-.1 0-.1 0 0-.2 0-.3-.1-.5 0-.2-.1-.3-.2-.5-.2-.3-.3-.6-.3-.9 0-.3.1-.6.3-.9l.3-.6c.1-.2.1-.4.1-.6 0 0 0-.1.1-.1s.1 0 .1.1c0 .2 0 .4-.1.7-.1.2-.2.4-.3.7-.2.3-.3.6-.3.8 0 .3.1.6.3.8.1.2.2.4.2.5v.3c0-.1.1-.2.2-.3.1-.2.2-.3.3-.5.2-.2.4-.5.5-.7.1-.3.2-.5.4-.7-.1-.1-.1-.1 0 0z"/><path id="prefix___x34_8" d="M293.4 121.3c0 .3 0 .5.1.8.1.2.1.5.3.7v.1h-.1c-.1-.2-.2-.5-.3-.7-.1-.3-.1-.5-.1-.8 0-.1 0-.1.1-.1z"/><path id="prefix___x34_7" d="M291.5 122.3v.4s0 .1-.1.1-.1 0-.1-.1v-.2-.2h.2z"/><path id="prefix___x34_6" d="M292.1 120.6c0 .2 0 .4-.1.6-.1.2-.2.3-.3.5h-.1v-.1c.1-.1.2-.3.3-.5.1-.2.1-.3.1-.5h.1z"/><path id="prefix___x34_5" d="M290.4 124c-.3-.8-.4-1.4-.3-1.8.1-.5.3-.9.6-1.2.2-.2.4-.4.5-.7.1-.3.2-.6.1-1 0 0 0-.1.1-.1s.1 0 .1.1c0 .4 0 .8-.1 1-.1.3-.3.5-.5.7-.3.3-.5.6-.6 1.1-.1.5 0 1.1.3 1.8 0 .1 0 .1-.2.1.1 0 .1 0 0 0z"/><path id="prefix___x34_4" d="M289.5 122.7c0 .1-.1.2 0 .4 0 .1.1.2.1.4v.1h-.1c-.1-.1-.1-.3-.1-.4 0-.1 0-.3.1-.4-.1-.1-.1-.2 0-.1z"/><path id="prefix___x34_3" d="M294.3 119.3c.2.3.3.6.3.9 0 .3 0 .6-.2.9h-.1c-.1 0 0-.1 0-.1.2-.3.2-.6.2-.9 0-.2-.1-.5-.2-.8-.1.1-.2 0 0 0-.1 0-.1 0 0 0z"/><path id="prefix___x34_2" d="M295.8 118.1c.1.3.2.6.2.9 0 .3 0 .6-.1.9 0 .1-.1 0-.1 0 0-.3-.1-.5-.2-.7-.1-.2-.3-.4-.5-.6v-.1h.1c.2.2.4.4.5.6.1.1.1.3.1.5v-.6c0-.3-.1-.6-.2-.8.1 0 0-.1.2-.1-.1 0 0 0 0 0z"/><path id="prefix___x34_1" d="M296.7 116.9c.2.2.3.5.4.8.1.3.1.7.1 1.1v.5c0 .2.1.3.1.4v.1h-.1c-.1-.1-.1-.3-.2-.5v-.5c0-.4 0-.8-.1-1.1 0-.3-.1-.5-.2-.8-.1.1-.2.1 0 0-.1 0-.1 0 0 0z"/><path id="prefix___x34_0" d="M294.3 116.7c-.1.2-.2.3-.2.5V118h-.1v-.7c0-.3.1-.5.3-.6-.1-.1-.1-.1 0 0 0-.1 0 0 0 0z"/><path id="prefix___x33_9" d="M289.7 119.8c0 .5-.2.8-.4 1.1-.2.3-.5.5-.9.8h-.1v-.1c.3-.2.6-.4.8-.7.2-.3.3-.6.4-1.1.1 0 .1-.1.2 0z"/><path id="prefix___x33_8" d="M289.5 118.2v.5c0 .2-.1.3-.2.5h-.1c-.1 0 0-.1 0-.1.1-.2.1-.3.2-.5v-.5c0 .1 0 .1.1.1z"/><path id="prefix___x33_7" d="M292.7 118v.2c0 .3 0 .5.1.8v.2c-.1 0-.1 0-.1-.1v-.9-.2s0-.1.1-.1c-.1 0-.1 0-.1.1 0-.1 0-.1 0 0 0-.1 0 0 0 0z"/><path id="prefix___x33_6" d="M293.4 116.6c-.2.3-.3.5-.3.8 0 .3.1.5.2.8.3.4.3.8.3 1.3 0 .4-.2.8-.3 1.3 0 0 0 .1-.1 0v-.1c.2-.4.3-.8.3-1.2 0-.4-.1-.8-.3-1.2-.1-.3-.2-.5-.2-.8 0-.4.1-.7.4-.9 0-.1 0-.1 0 0 .1-.1.1 0 0 0z"/><path id="prefix___x33_5" class="prefix__st4" d="M287.3 106.8c-.2-.1-.5-.3-.7-.3-.1-.2-.3-.4-.5-.6-.2-.1-.2-.1-.1-.2.2 0 .3-.1.3-.1h.3c.1 0 .2.1.2.1h.1v-.1c-.1-.1-.2-.1-.3-.2-.1 0-.2-.1-.4-.1-.1 0-.2-.1-.4-.1-.1-.1-.3-.3-.2-.5.1 0 .2.1.3.1.1 0 .2.1.2.1h.1v-.1l-.2-.2c-.1 0-.2-.1-.2-.1.8-.2 1.6-.2 2.3.3.4.2.6.3.8.6l-.2.2c-.5 0-.8.1-1.1.2-.2.4-.3.7-.3 1z"/><path id="prefix___x33_4" d="M288.6 107.9c.4-.3.7-.4 1.1-.5.4 0 .8 0 1.2.2h.8s.1 0 .1.1 0 .1-.1.1h-.8c-.5.4-.8.6-1.2.7-.4.1-.7 0-.9-.2 0 0-.1 0 0-.1 0-.1.1 0 .1 0 .2.2.5.2.8.2.3-.1.6-.2 1-.6-.4-.2-.7-.2-1-.2-.3 0-.7.2-1 .5-.1-.1-.1 0-.1-.2-.1.1-.1 0 0 0z"/><path id="prefix___x33_3" d="M289.7 107.7c.2 0 .3.1.3.3 0 .2-.1.3-.3.3-.2 0-.3-.1-.3-.3 0-.2.1-.3.3-.3z"/><path id="prefix___x33_2" d="M291.6 109.4c.2-.1.4-.2.5-.3l.3-.3h.1v.1c-.1.1-.2.2-.3.4-.2 0-.4.1-.6.1 0 .1 0 .1 0 0-.1 0 0 0 0 0z"/><path id="prefix___x33_1" d="M295.5 107.8h.3c.1 0 .2.1.3.2v.1h-.1c-.1-.1-.2-.1-.3-.1h-.3c.1-.1.1-.1.1-.2z"/><path id="prefix___x33_0" d="M293.3 107.8c.1-.2.2-.4.4-.5.2-.1.4-.1.7-.1 0 0 .1 0 .1.1s0 .1-.1.1c-.3 0-.5 0-.6.1-.2.1-.3.2-.4.4 0 0-.1 0-.1-.1-.1.1 0 .1 0 0z"/><path id="prefix___x32_9" d="M293.5 108.2c0-.1.1-.2.1-.3.1-.1.2-.1.3-.2h.1v.1c-.1 0-.2.1-.2.1-.1.1-.1.1-.1.2-.1.2-.1.2-.2.1 0 .1 0 0 0 0z"/><path id="prefix___x32_8" d="M289.8 109.5c-.1.1-.1.2-.2.3 0 .1-.1.2 0 .4 0 0 0 .1-.1.1s-.1 0-.1-.1 0-.3.1-.4c0-.2.1-.3.3-.3-.1-.1-.1-.1 0 0 0-.1 0-.1 0 0z"/><path id="prefix___x32_7" d="M290.8 109.9v.2s0 .1-.1.1-.1 0-.1-.1v-.2h.2z"/><path id="prefix___x32_6" d="M290.1 108.7c.1 0 .2.1.3.1h.4v.1h-.4c-.1 0-.2 0-.4-.1.1 0 0 0 .1-.1z"/><path id="prefix___x32_5" d="M290.8 106.7c-.1 0-.2 0-.2.1-.1.1-.1.1-.1.2 0 0 0 .1-.1 0-.1 0 0 0 0-.1s.1-.2.2-.3c.1-.1.2-.1.3-.1 0 .1 0 .1-.1.2.1 0 .1 0 0 0z"/><path id="prefix___x32_4" d="M289.7 106.8c-.1 0-.1.1-.2.1l-.1.1s0 .1-.1 0c-.1 0 0 0 0-.1s.1-.1.1-.2c.1 0 .1-.1.2-.1.1.1.1.1.1.2.1 0 0 0 0 0z"/><path id="prefix___x32_3" d="M289 106.9c-.1 0-.1.1-.2.2 0 .1-.1.1-.1.2 0 0 0 .1-.1 0-.1 0 0 0 0-.1s.1-.2.1-.2c.1-.1.2-.2.3-.1 0-.1 0-.2 0 0 .1-.1 0-.1 0 0z"/><path id="prefix___x32_2" d="M288.1 107.6l-.2.2-.2.2h-.1v-.1c.1-.1.1-.2.2-.2.1-.1.2-.2.3-.1 0-.1 0-.2 0 0 .1-.1.1 0 0 0z"/><path id="prefix___x32_1" d="M288.2 108.5l-.2.2-.2.2h-.1v-.1l.2-.2c.1 0 .2-.1.3-.1 0 0 0-.1 0 0 .1 0 0 0 0 0z"/><path id="prefix___x32_0" d="M287.3 108.8v.3s0 .1-.1.1-.1 0-.1-.1v-.3h.2z"/><path id="prefix___x31_9" d="M288.5 110.3c0 .2 0 .4-.1.6v.1s0 .1-.1.1-.1 0-.1-.1v-.1c0-.2 0-.4.1-.6h.2z"/><path id="prefix___x31_8" d="M287.8 109.8v.4s0 .1-.1.1-.1 0-.1-.1v-.4h.2z"/><path id="prefix___x31_7" d="M287.2 105c.1 0 .2.1.3.2.1.1.2.2.2.3v.1h-.1c0-.1-.1-.2-.2-.3-.1-.1-.2-.1-.3-.2l.1-.1c-.1 0-.1 0 0 0z"/><path id="prefix___x31_6" d="M292.7 112.2c.1.2.2.5.2.7 0 .2 0 .5-.1.7 0 0 0 .1-.1 0-.1 0 0 0 0-.1.1-.2.1-.4.1-.7 0-.2-.1-.4-.2-.7 0 .1 0 .1.1.1z"/><path id="prefix___x31_5" d="M290.9 114.3c.1-.3.2-.5.3-.7.1-.2.3-.4.4-.6.2-.2.3-.5.3-.7.1-.3.1-.5 0-.8v-.1h.1c.1.3 0 .6 0 .9-.1.3-.2.5-.4.8-.1.2-.3.4-.4.6-.1.2-.2.4-.3.7.1-.1.1 0 0-.1z"/><path id="prefix___x31_4" d="M288.6 113.7c0-.1.1-.2.2-.3.1-.1.2-.1.3-.2h.1v.1c-.1 0-.2.1-.3.2-.1.1-.1.1-.1.2-.1 0-.1.1-.2 0z"/><path id="prefix___x31_3" d="M288.1 113.5l.3-.3c.1-.1.2-.2.3-.2h.1v.1c-.1 0-.2.1-.3.2-.1.1-.2.2-.4.2.1.1.1.1 0 0 0 .1 0 0 0 0z"/><path id="prefix___x31_2" d="M290.5 111.1c.1 0 .2.1.3.1h.4v.1h-.3c-.1 0-.2 0-.3-.1-.1 0-.2 0-.1-.1z"/><path id="prefix___x31_1" d="M289.3 111c.1 0 .1-.1 0 0l.1-.1h.1v.1h-.2c.1.1.1.1 0 0z"/><path id="prefix___x31_0" d="M315.1 118.4c.1.1.1.1.1.2s.1.1.1.2v.1h-.1c0-.1 0-.1-.1-.2 0-.1-.1-.2 0-.3-.1.1-.1.1 0 0-.1 0 0 0 0 0z"/><path id="prefix___x39_" d="M325.9 134.1c.4-.2.8-.2 1.2-.1.3-.1.7-.2 1.1-.2.2-.1.4-.2.6-.2.1-.1.1-.2 0-.3-.1-.1-.2-.3-.2-.4-.7-.4-.9-1-1.1-1.5-.4-.1-.5-.2-.6-.4-.2 0-.4 0-.5-.1-.9.1-1.1-.2-1.4-.4-.3-.1-.5-.2-.6-.5-.1-.1-.2-.2-.3-.4-.2-.3-.2-.7.2-.7.2 0 .5 0 .7-.1.3-.1.7-.1 1-.1.4 0 .6-.3.9-.6v-.4c-.1-.1 0-.2.2-.2.5 0 .7.2.9.5.5.1 1 .4 1.2.8.7 0 1.2.3 1.3.5 0 .2-.2.4-.5.7v.1c.2.2.3.3.4.5.4.2.8.4 1.1.7 1-.1 2.7.6 5.1 2.1 1.5.3 3 .7 4.4 1.3h.9c2.5-.4 5-.1 7.3 1.7.9.1 1.6.4 2.4.7.6.2 1.1.3 1.7.4.9.1 1.9.3 2.8.7 1 .2 2 .6 2.6 1.3.4.5.3 1-.2 1.2-.3.7-1 .7-2 .4-.7.1-1.4-.4-2.1-.9-.9-.3-1.8-.8-2.7-1.4-.4-.3-.9-.5-1.3-.6-.3-.1-.6-.1-.9 0-.1.1-.1.1 0 .2.2.2.4.5.5.9v1.1c0 .4.3.7.7 1 .3.2.6.4 1.1.4.2 0 .3.2.3.4.1.6.2 1.2.5 1.8.1.2.2.2.4.4.6.4.3 1-.3 1.1-.5.4-.9.7-1.4.9-.4.1-.6 0-.7-.2-.2 0-.4-.1-.5-.3-.5-.4-.1-1 1.1-.7 0-.1.1-.2.2-.2-.1-.3-.1-.7 0-1-.1-.1-.2-.2-.4-.2-.4-.1-.8-.3-1.2-.6-.6-.6-1.6-1.1-2.5-1.5-.8 0-1.3-.4-1.9-.7h-.8c-.2-.1-.4 0-.6.2-.2.3-.5.2-.8.2h-1.1c-.2 0-.4.1-.6.1-.4 0-.8 0-1.1.2-.2.2-.5.2-.7.1-.2-.1-.3-.2-.4-.3-.3-.1-.5-.1-.5-.2-.5-.1-.6-.3-.6-.4-.7-.2-.3-.7.1-.7.5 0 1 .1 1.4.1.4.1.9 0 1.3-.3.2-.2.3-.4.6-.5-.8-.1-1.5-.2-1.9-.5-1.2-.8-2.2-1-3-.3-.2.1-.4.2-.6.1-.2-.1-.4-.1-.6 0-.4.1-.9 0-1.3-.1-.7.2-1.3.2-2 .1-.6.3-1 .3-1.2.1-.2-.1-.5-.3-.7-.4-.4-.1-.5-.1-.5-.3-.4-.1-.5-.2-.5-.4-.2-.2-.1-.4.1-.5.3-.1.7-.2 1.1 0 .2.1.4.2.5.3.3 0 .5 0 .7.1.1-.2.5-.2 1-.2.2-.1.5-.3.8-.3v-.2c-.4-.1-.7-.4-.9-.8-.7 0-1.2-.3-1.7-.6-.4 0-.7-.1-1-.3h-.8c-.5.1-1 .1-1.5 0h-.9c-.3.4-.7.4-1 .2-.2-.3-.5-.4-.9-.5-.3-.1-.4-.2-.4-.4-.3-.2-.3-.4.1-.6.3-.1.6-.1 1 .1h.4z"/><path id="prefix___x38_" class="prefix__st1" d="M342.5 139.2c0-.1-.1-.2-.4-.1-.8 0-1.7 0-2.3-.4-.7-.4-1.4-.8-2.2-.8.2-.2.5-.4.8-.5.4-.1 1-.1 1.5 0 .8.1 1.5.3 2.1.5.5.2.9.4 1.1.8v.1c.2.1.4.3.6.4l.3.3h-.8c-.2-.1-.4-.2-.7-.3z"/><path id="prefix___x37_" class="prefix__st0" d="M302.4 136.7c-.1.1-.2.2-.3.4-.4.1-.8.4-1.3.3 0 .3.1.4.4.4.6-.3.7-.3.8-.3.1.1-.1.5-.6.8-.1 0-.1.1 0 .1.4.6 1.5.4 2 .3.4-.1 1.1-.6 1.3-1 .1-.2-.1-.4-.3-.6-.4.1-.6-.1-.5-.3-.5-.1-1-.1-1.5-.1z"/><path id="prefix___x36_" fill="none" d="M289.2 134.9l.7.2"/><path id="prefix___x35_" class="prefix__st0" d="M286.2 131.6c-.3.3-.7.5-1.1.6-.2.1-.6.1-.6.4 0 .1.3.2.4.1.5-.5.7-.2.2.3 0 .1 0 .2.1.3.5.4 1.7.6 2.3.2.4-.3.6-.5.3-.9v-.3l-.7-.1-.4-.2-.5-.4z"/><path id="prefix___x34_" class="prefix__st0" d="M296.8 135.3h-.1c-.2.2.4.1.7.3.1.1.2.3.2.5-.3.7-1.9.5-2.5.2-.3-.1-.3-.3-.3-.5h.3c.2 0 .4-.1.6-.2.1 0 .1-.1 0-.2s-.1-.1-.2 0c-.2.1-.3.1-.5.2h-.5c-.1-.1-.2-.1-.1-.2 0-.1.2 0 .2 0 .3-.1.5-.2.8-.2l.1-.1c.5 0 1 .1 1.3.2z"/><path id="prefix___x33_" class="prefix__st0" d="M289.2 134.9c-.1.1-.1.1-.2.3-.3.3-.6.5-.9.6-.3.1 0 .3.2.4.2.1.4-.2.6-.4.2-.3.4-.2.2 0-.1.2-.2.5-.2.7-.1.2.6.3.7.3.4 0 1-.4 1.3-.6.3-.3.2-.5.1-.9-.2 0-.3 0-.5-.1-.2 0-.4-.1-.6-.2v-.1h-.7z"/><path id="prefix___x32_" d="M286.5 131.8c.1.1.2.2.4.3.1.1.3.1.5.1 0 0 .1 0 .1.1s0 .1-.1.1c-.2 0-.4 0-.5-.1-.2-.2-.4-.3-.4-.5-.1.1-.1.1 0 0z"/><path id="prefix___x31__2_" class="prefix__st0" d="M292.2 106.8h.3c.2 0 .4.1.6.1.7-.3 1.3-.4 1.8-.4.6-.2 1.2-.2 1.8-.2-.1-.1 0-.1 0-.1.3-.3.4-.7.3-.9-.1-.3-.4-.6-.8-.8-.5.1-.9-.1-1.4 0-.3 0-.6.1-.9.2.2.1.5.2.6.4.2.2.4.6.4 1 0 .1 0 .1-.1.1s-.1 0-.1-.1c-.1-.4-.2-.7-.4-.9-.2-.3-.7-.4-.8-.5-.5 0-.9.1-1.4.2-.3.1-.6.2-.8.3.3-.1.6-.1.9.1.3.1.5.4.6.8 0 0 0 .1-.1.1s-.1 0-.1-.1c-.1-.3-.3-.6-.5-.7-.4-.2-1.3 0-1.7.3-.2.2-.4.4-.7.6 0 0 0 .1-.1.1 1.1.1 1.9.1 2.6.4zm-2.5-.5v-.1c.2-.3.5-.5.7-.7.2-.2.5-.3.7-.4.3-.3.6-.4 1.1-.6.4-.1.9-.2 1.4-.2-.1-.3-.3-.5-.5-.6-.2-.1-.5-.1-.8-.1-.6.2-1.1.5-1.6.9h.5c.1 0 .1 0 .1.1s-.4 0-.5 0h-.4-.1c-.5.3-.9.7-1.4 1 .4.4.7.6.8.7z"/></svg>
