<svg xmlns="http://www.w3.org/2000/svg" height="512" width="512" viewBox="0 0 512 512">
	<rect fill="#FFFFFF" x="-85.3" width="682.7" height="512"/>
	<rect fill="#0000CC" x="-85.3" y="48.1" width="682.7" height="67.4"/>
	<rect fill="#0000CC" x="-85.3" y="399.5" width="682.7" height="67.4"/>
	<path fill="#0000CC" d="M287.5,320.9l74.3-0.2l-37.8-64.1l37.3-65.6l-76.1-0.1l-36.3-61.4l-35.3,61.4l-73.9-0.1l37,64.1l-38.2,66.6l76.7-0.3l36.3,62.7L287.5,320.9z M339.5,307.9l-44.7,0.1l22-38.7L339.5,307.9z M280,308.2l-57.3,0.2l-30.9-53.5l29.4-51.2l56.9,0.1l31.3,53L280,308.2z M339.4,203.7l-22.8,40.1l-23.7-40.2L339.4,203.7z M249.3,154.8l21.2,36.1h-41.9L249.3,154.8zM162.1,203.5h44.3l-22.1,38.4L162.1,203.5z M160.9,308.6l23.6-41l23.6,40.7L160.9,308.6z M230.1,321.1l42.7-0.1l-21.2,37.2L230.1,321.1z"/>
</svg>
