<svg xmlns="http://www.w3.org/2000/svg" height="512" width="512" viewBox="0 0 512 512"><path fill-rule="evenodd" fill="#ba0000" d="M642.1 520.863H-102V0h744.1z"/><path d="M287.654 382.526c.203-.616.614-6.962.409-6.962s-9.623-11.056-9.418-11.056 12.08 2.662 12.08 2.252c0-.409 4.709-11.669 4.709-11.875 0-.203 5.733 13.718 5.733 13.718l11.669 5.119-8.19 6.755s1.844 13.104 1.844 13.31c0 .203-8.19-7.781-8.19-7.781l-9.009 1.024s-1.228-4.095-1.637-4.504z" fill-rule="evenodd" fill-opacity=".988" stroke="#000" stroke-width="2.242" fill="#ffef00"/><path d="M224.218 210.483c-7.78 4.005-37.638 38.135-41.733 43.457-3.43 7.728-10.141 17.504-17.053 23.797-7.378 5.582-11.478 13.207-10.461 20.426-.082 8.985 4.955 15.101 8.967 21.423 2.375 2.887 5.571 4.753 8.967 4.981 6.97.92 7.588 3.066 11.077 4.395 13.74 18.707 34.237 32.503 49 43.431 9.408 4.959 15.953 9.919 18.194 12.627 4.322 8.253 3.527 16.299 2.934 20.253-3.653 13.784-7.308 27.568-10.96 41.352-1.842 11.261 7.944 8.729 8.47 6.476 4.417-5.733 11.007-1.707 20.425-34.874l12.953-17.437s4.984-1.993 4.984-2.491c7.575-9.096 1.806-14.303-2.493-15.941l-9.464-3.488s-10.961-10.96-11.459-10.96c-5.208-15.151-30.772-47.495-36.71-51.999-4.11-4.284-6.066-6.108-9.968-8.491-5.999-2.87-7.934-3.803-11.609-5.27-3.059-1.227-.882-4.585 1.064-6.121 20.248-11.022 36.299-23.271 55.728-35.727l2.989-1.994-6.975-39.855-32.382-11.459c-1.698 1.162-2.988 2.325-4.483 3.487z" fill-rule="evenodd" stroke="#000" stroke-width="2.682" fill="#fff"/><path d="M251.311 420.315c.103-.409 20.268-4.095 20.268-4.095s-2.354 7.473-2.457 7.473l-20.063 6.039 2.252-9.418z" fill-rule="evenodd" fill="#ffec00"/><path d="M198.756 344.383c3.89-10.339 14.688-18.525 21.941-20.784" stroke="#000" stroke-width="2.242" fill="none"/><path d="M250.588 420.483c1.302-.367 7.082-2.054 8.765-2.317 1.795-.42 3.584-.89 5.31-1.447 1.993-.407 3.241-.782 5.311-1.159 1.621-.619 3.224-1.043 4.958-1.448m-27.997 18.838c.168-.225 1.543-1.44 2.53-2.026 1.162-.367 5.136-2.054 6.639-2.317 1.604-.42 3.2-.89 4.742-1.447 1.781-.407 2.894-.782 4.744-1.158 1.449-.619 2.879-1.043 4.427-1.449" stroke="#000" stroke-width="2.479" fill="none"/><path d="M255.129 347.31h-.289c.907 0 .35-.076-.869 1.448-.434 1.17-4.151 3.764-6.949 3.764-1.35.145-3.425.289-4.777.289l-1.303-.289m13.901 54.424h1.446c1.501 0 3.009.266 4.343.289l4.344.41c1.462.206 3.222.139 4.734.354 1.695.057 3.055.392 4.819.392 1.424.053 2.191.29 3.766.29l-3.766-.29c1.424.053 2.191.29 3.766.29m-33.308 33.596c.154-.225 1.413-1.44 2.316-2.026 1.064-.366 4.704-2.052 6.081-2.315a47.34 47.34 0 004.343-1.449c1.631-.406 2.65-.781 4.343-1.158 1.328-.619 2.638-1.043 4.053-1.449m5.991-41.937c-.819 2.377.241 2.975.68 4 .763.994 2.712 2.509 5.792 3.474 1.187.32 2.1.633 3.475 1.159.91.084 1.358.311 2.026.578m-126.535-96.411h.29c-.908 0-.364.059 1.158-1.159.939-1.05 1.725-1.526 2.604-2.604m14.683 24.381c.193 0 16.844-8.392 18.621-10.185 1.26-.913 2.213-1.876 3.745-2.914.983-.512 1.687-1.169 2.607-1.736.765-1.109 1.764-1.778 2.316-2.793 1.022-.885.584-1.846 1.413-2.913.392-1.093 1.125-2.935 1.364-3.935m21.211 12.452c.091.599-.266 2.443-.241 3.848-.056 1.628-2.151 6.657-4.682 8.158" stroke="#000" stroke-width="2.242" fill="none"/><path d="M197.646 313.153c.098 0 2.632.824 6.869 2.128 5.1 1.833 15.704 8.516 16.758 9.436 1.073.846 2.996 1.601 3.732 2.604 1.152.996 1.996 2.145 2.896 3.185 1.057 1.291 1.96 2.382 2.605 3.476 3.22 2.61 11.883 20.695 12.16 21.716a43.988 43.988 0 011.448 3.185c.643.74 1.078 1.786 1.738 2.897.605 1.439 1.283 2.095 2.028 3.185.957.666 2.25 1.93 3.474 2.605 1.304 1.116 2.529 1.57 3.474 2.317 1.365.581 16.625 10.227 17.334 10.71 1.393 1.12 5.649 5.53 2.661 8.74-1.268 1.084-2.41 2.52-3.493 3.135-1.103 1.104-2.639 1.599-3.906 2.17-6.876 2.032-10.377 1.304-11.729 1.304h-1.449m-90.302-116.898c1.954.764 1.166.2 2.925 1.001 1.183.518 1.961.53 3.123.954 1.232.396 4.676 1.016 6.332 2.678 1.214 1.096 2.14 2.023 3.474 2.823 1.577 1.088 2.716 1.573 4.671 2.389 1.65.616 3.495 1.302 5.163 1.36 1.734.1 2.149.015 3.813.015h8.109-4.055" stroke="#000" stroke-width="2.2420999999999998" fill="none"/><path d="M163.49 298.371c4.342-.289 11.58 1.015 11.725 1.015l9.555-.146c5.02-.484 6.129-2.413 6.95-3.766 1.882-2.894 3.185-3.907 4.634-6.079 2.315-1.737 5.502 2.316 5.646 2.316 8.106 7.674 1.591 17.084 1.157 17.373-4.053 3.717-4.923 3.957-7.384 1.592-2.462-2.896-3.185-4.197-5.212-5.212-3.908-1.883-12.016-.434-12.162-.434-.144 0-4.198 1.592-4.198 1.592-1.979.723-3.234 2.462-6.659 3.038-3.475.243-4.634-.095-6.37-2.893-2.317-3.619-1.159-7.963 2.317-8.397z" fill-rule="evenodd" stroke="#000" stroke-width="2.242" fill="#ffe606"/><path d="M390.18 122.754c-.637.125-6.37 2.877-6.269 3.056s-4.921 13.805-5.022 13.626-3.599-11.834-3.957-11.634c-.356.201-12.479 1.615-12.658 1.715-.177.101 9.149-11.719 9.149-11.719l-1.257-12.681 9.903 3.829s10.52-8.029 10.698-8.13c.177-.099-2.769 10.953-2.769 10.953l5.308 7.351s-2.968 3.077-3.124 3.633z" fill-rule="evenodd" fill-opacity=".988" stroke="#000" stroke-width="2.242" fill="#ffef00"/><path d="M271.303 262.363c7.304 4.819 51.686 14.119 58.332 15.08 8.418-.797 20.228.261 29.1 3.203 8.481 3.696 17.137 3.532 22.932-.891 7.872-4.332 10.735-11.719 14.28-18.315 1.352-3.486 1.414-7.185-.053-10.258-2.614-6.524-1.046-8.116-1.597-11.808 9.573-21.145 11.553-45.773 13.845-63.996-.288-10.633.828-18.767 2.089-22.049 5.075-7.812 12.479-11.062 16.215-12.484l41.415-10.711c10.719-3.912 3.716-11.2 1.494-10.556-7.161-1.04-6.881-8.758-40.409-.713l-21.546-2.746s-4.179-3.367-4.613-3.122c-11.642-2.147-13.355 5.432-12.675 9.984.534 3.319 1.066 6.64 1.599 9.96 0 0-4.182 14.924-3.938 15.358-10.654 11.966-26.514 50.387-27.53 57.771-.481 6.937-3.101 5.684-2.399 12.428.027 5.271-.587 1.981 1.172 12.838.429 3.268-3.566 3.015-5.858 2.072-19.53-12.25-38.075-20.237-58.453-31.069l-3.202-1.628-31.321 25.61 5.88 33.843c1.846.911 3.493 1.465 5.238 2.198z" fill-rule="evenodd" stroke="#000" stroke-width="2.682" fill="#fff"/><path d="M440.93 135.914c-.406.111-13.503-15.661-13.503-15.661s7.669-1.61 7.72-1.52l15.096 14.528-9.313 2.653z" fill-rule="evenodd" fill="#ffec00"/><path d="M400.498 218.936c-10.919 1.676-23.347-3.724-28.871-8.94" stroke="#000" stroke-width="2.242" fill="none"/><path d="M441.431 136.461c-.958-.955-5.26-5.166-6.314-6.505a67.194 67.194 0 00-3.865-3.92c-1.331-1.538-2.269-2.442-3.612-4.061-1.334-1.11-2.489-2.3-3.692-3.612m30.142 15.171c-.28-.036-2.011-.639-3.006-1.211-.889-.834-4.306-3.472-5.272-4.654a55.56 55.56 0 00-3.586-3.424c-1.228-1.353-2.1-2.139-3.335-3.567-1.25-.959-2.321-1.999-3.432-3.15" stroke="#000" stroke-width="2.479" fill="none"/><path d="M375.423 168.364l.141.252c-.444-.791-.238-.268 1.688.049 1.232-.196 5.314 1.772 6.686 4.212.787 1.106 1.93 2.844 2.593 4.023l.386 1.278m40.627-38.79l-.142-.252-.567-1.008c-.735-1.309-1.241-2.754-1.876-3.929l-1.771-3.987c-.536-1.375-1.458-2.877-2.011-4.301-.781-1.505-1.156-2.856-2.021-4.393-.651-1.267-.819-2.051-1.592-3.425l1.592 3.425c-.651-1.267-.819-2.051-1.592-3.425m45.609 12.57c-.273-.025-1.947-.525-2.901-1.026-.841-.749-4.095-3.094-4.998-4.165a47.779 47.779 0 00-3.391-3.076c-1.155-1.222-1.981-1.927-3.139-3.219-1.19-.854-2.201-1.788-3.248-2.823m-39.493 15.331c2.474-.451 2.475-1.669 3.154-2.555.492-1.152.858-3.594.19-6.751-.304-1.191-.478-2.141-.693-3.597-.372-.834-.394-1.336-.489-2.05m-22.029 157.545l-.14-.252c.444.791.228.287-1.579-.442-1.377-.304-2.177-.756-3.547-.994m14.058-24.747c-.095-.168-15.57-10.57-18.004-11.241-1.414-.651-2.721-1.009-4.375-1.836-.93-.605-1.848-.897-2.793-1.421-1.341-.125-2.414-.667-3.568-.651-1.274-.457-1.896.396-3.234.196-1.144.195-3.108.458-4.098.741m.461-24.591c.477-.372 2.261-.966 3.472-1.676 1.447-.749 6.856-1.387 9.406.083" stroke="#000" stroke-width="2.242" fill="none"/><path d="M373.82 235.208c-.047-.084-.572-2.697-1.512-7.029-.9-5.343-.273-17.863.014-19.231.21-1.351-.073-3.397.441-4.531.303-1.491.89-2.791 1.357-4.085.607-1.554 1.116-2.875 1.753-3.974.698-4.088 12.216-20.5 12.97-21.243a43.915 43.915 0 012.067-2.823c.329-.922 1.029-1.815 1.673-2.933.957-1.234 1.197-2.146 1.782-3.33.11-1.162.581-2.907.567-4.305.335-1.684.131-2.975.319-4.165-.164-1.474.766-19.503.84-20.357.294-1.764 2.052-7.637 6.314-6.604 1.566.574 3.378.865 4.445 1.508 1.502.42 2.686 1.516 3.806 2.342 5.14 4.996 6.221 8.405 6.884 9.583l.71 1.263M360.524 280.71l-.14-.252c.382.68.17.341-.316-1.152-.129-1.285-.525-3.022-.725-4.242-.259-1.269-.854-2.714-.693-3.598-.453-1.288-.168-2.351-.046-3.626.36-1.596.524-2.751.567-4.307.176-1.908.035-3.26.144-5.064-.502-1.484-.605-2.727-1.372-4.21-.681-1.418-1.202-2.73-2.018-4.18l-1.987-3.536 1.987 3.535-1.987-3.535" stroke="#000" stroke-width="2.2420999999999998" fill="none"/><path d="M377.674 272.226c-2.38-3.643-4.791-10.591-4.862-10.717 0-.002-4.809-8.26-4.809-8.26-2.883-4.137-5.107-4.158-6.688-4.211-3.445-.223-4.968-.861-7.57-1.06-2.649-1.167-.678-5.932-.749-6.058 2.716-10.826 14.112-9.758 14.577-9.522 5.225 1.711 5.861 2.351 5.006 5.655-1.319 3.565-2.1 4.833-1.99 7.097.275 4.329 5.511 10.687 5.582 10.815.07.126 3.445 2.877 3.445 2.877 1.6 1.372 3.731 1.613 5.913 4.317 1.914 2.91 2.188 4.086.6 6.972-2.02 3.791-6.373 4.912-8.456 2.094z" fill-rule="evenodd" stroke="#000" stroke-width="2.242" fill="#ffe606"/><path d="M108.842 171.602c.453.464 5.896 3.752 5.991 3.57s14.247-3.445 14.153-3.263-7.929 9.494-7.565 9.683c.364.189 8.188 9.556 8.37 9.651.181.094-14.816-1.232-14.816-1.232l-9.919 7.997-2.222-10.381s-12.479-4.403-12.662-4.497c-.181-.094 10.68-3.683 10.68-3.683l3.242-8.467s4.2.798 4.751.623z" fill-rule="evenodd" fill-opacity=".988" stroke="#000" stroke-width="2.242" fill="#ffef00"/><path d="M290.758 194.575c.029-8.75-16.502-50.974-19.34-57.061-5.278-6.607-10.862-17.066-13.261-26.1-1.554-9.12-6.433-16.271-13.307-18.697-7.936-4.213-15.686-2.561-23.145-1.912-3.657.777-6.786 2.752-8.553 5.663-4.028 5.761-6.217 5.321-9.003 7.805-22.934 3.574-44.622 15.408-61.123 23.475-8.736 6.065-16.154 9.588-19.589 10.33-9.316.033-16.091-4.381-19.327-6.727L72.462 102.57c-9.144-6.825-11.406 3.027-9.649 4.532 3.053 6.561-3.556 10.556 21.539 34.195 3.17 6.51 6.338 13.021 9.506 19.53 0 0-.526 5.341-.084 5.571 4.581 10.915 11.861 8.195 15.295 5.133l7.457-6.793s14.777-4.676 15.007-5.117c15.846 2.358 56.677-5.421 63.41-8.617 6.068-3.398 6.454-.519 11.711-4.802 4.395-2.908 1.978-.592 10.098-8.011 2.499-2.149 4.476 1.33 4.942 3.766.452 23.048 3.928 42.938 6.03 65.919l.392 3.571L266.7 223.62l25.091-23.457c-.248-2.044-.687-3.724-1.029-5.587z" fill-rule="evenodd" stroke="#000" stroke-width="2.682" fill="#fff"/><path d="M92.05 121.936c.315.28-5.705 19.874-5.705 19.874s-5.548-5.533-5.501-5.624l3.885-20.589 7.321 6.338z" fill-rule="evenodd" fill="#ffec00"/><path d="M183.654 110.281c7.385 8.217 9.674 21.573 8.337 29.05" stroke="#000" stroke-width="2.242" fill="none"/><path d="M92.235 121.217c-.274 1.324-1.442 7.231-1.984 8.846a66.948 66.948 0 00-1.162 5.381c-.557 1.957-.799 3.237-1.419 5.248-.197 1.724-.56 3.342-1 5.068m-3.82-33.527c.122.253.567 2.033.633 3.179-.21 1.2-.544 5.504-1.004 6.959a55.043 55.043 0 00-.9 4.876c-.459 1.768-.64 2.929-1.158 4.744-.118 1.571-.401 3.036-.755 4.596" stroke="#000" stroke-width="2.479" fill="none"/><path d="M155.082 158.963l.133-.257c-.417.805-.093.345-.883-1.439-.84-.924-1.428-5.418-.139-7.901.493-1.266 1.322-3.174 1.945-4.374l.858-1.023m-54.707-12.738l-.133.257-.532 1.027c-.693 1.333-1.624 2.547-2.259 3.722l-2.366 3.666c-.857 1.203-1.609 2.796-2.496 4.039-.832 1.477-1.756 2.531-2.569 4.097-.703 1.238-1.267 1.809-1.993 3.207l1.994-3.207c-.703 1.238-1.267 1.809-1.994 3.207m-14.469-45.042c.129.241.627 1.918.732 2.989-.165 1.113-.345 5.121-.747 6.464a47.42 47.42 0 00-.717 4.521c-.391 1.635-.527 2.712-.973 4.389-.063 1.463-.29 2.821-.582 4.264m34.459 24.64c-1.732-1.823-2.751-1.155-3.864-1.239-1.233.22-3.476 1.252-5.752 3.539-.831.907-1.529 1.574-2.629 2.551-.494.769-.902 1.061-1.448 1.532m143.868-67.876l-.133.256c.418-.805.115-.35.494 1.562.5 1.319.56 2.235 1.113 3.513m-28.405 1.795c-.089.172-.314 18.816.458 21.22.231 1.539.646 2.829.861 4.667.003 1.107.261 2.036.34 3.114.631 1.19.765 2.384 1.411 3.341.315 1.316 1.369 1.37 1.935 2.597.79.852 2.086 2.352 2.863 3.024m-20.824 13.086c-.574-.196-2.046-1.361-3.304-1.986-1.419-.801-4.917-4.977-5.083-7.915" stroke="#000" stroke-width="2.242" fill="none"/><path d="M211.882 123.686c-.045.087-1.944 1.956-5.053 5.115-3.976 3.681-14.794 10.013-16.095 10.524-1.246.564-2.802 1.922-4.032 2.113-1.414.564-2.823.784-4.161 1.102-1.633.343-3.017.641-4.284.71-3.801 1.656-23.842 1.01-24.877.787a44.52 44.52 0 01-3.493-.182c-.953.229-2.082.133-3.372.207-1.555-.126-2.45.173-3.76.333-1.033.543-2.751 1.106-3.913 1.883-1.593.642-2.56 1.52-3.658 2.016-1.144.943-16.737 10.042-17.491 10.448-1.636.72-7.513 2.466-8.983-1.665-.378-1.625-1.127-3.3-1.173-4.544-.472-1.488-.203-3.079-.126-4.468 1.364-7.037 3.623-9.81 4.246-11.01l.668-1.284m144.905-25.889l-.133.257c.36-.693.192-.33-.79.896-1.005.81-2.242 2.093-3.154 2.93-.918.911-1.801 2.2-2.629 2.55-.829 1.084-1.876 1.429-3.01 2.026-1.533.572-2.587 1.068-3.913 1.883-1.692.899-2.746 1.757-4.314 2.654-.966 1.234-1.95 2-2.772 3.454-.812 1.347-1.624 2.502-2.39 3.978l-1.87 3.598 1.87-3.598-1.87 3.598m11.958 74.388l.266-.514c-.493.95-.32.701.144-.903.004-1.925.462-4.254.48-5.952.29-1.797.583-3.739.602-5.56-.11-2.129-.106-4.037-.425-6.092-.024-1.891-.245-3.851-.3-5.703-.035-1.836-.173-3.407-.571-5.189-.036-1.334-.119-3.164-.443-4.798.173-1.288-.193-2.473-.467-3.504-.498-1.984-.692-3.143-1.215-5.199-.315-1.101-.626-2.51-1.101-4.16-.171-1.564-1.008-3.594-1.349-4.942-.464-.992-.933-2.334-1.113-3.514-.487-1.088-1.18-2.415-1.369-3.647-.513-.938-1.059-2.4-1.626-3.78-.488-1.136-.848-2.536-1.368-3.647-.525-1.405-1.165-2.606-1.493-4.037-.502-.487-.616-1.02-.885-1.438" stroke="#000" stroke-width="2.2420999999999998" fill="none"/><path d="M240.74 100.184c-1.743 3.986-6.236 9.81-6.303 9.939l-4.274 8.547c-1.883 4.679-.682 6.552.14 7.903 1.701 3.003 2.001 4.627 3.261 6.912.475 2.856-4.591 3.816-4.658 3.945-10.545 3.657-15.894-6.461-15.951-6.979-1.431-5.309-1.244-6.192 1.988-7.286 3.705-.851 5.194-.893 7.028-2.224 3.471-2.602 5.922-10.465 5.988-10.595.066-.128.521-4.459.521-4.459.27-2.09-.695-4.004.371-7.311 1.386-3.196 2.22-4.067 5.505-4.32 4.278-.387 7.601 2.641 6.384 5.926z" fill-rule="evenodd" stroke="#000" stroke-width="2.242" fill="#ffe606"/><path d="M226.888 203.105c-1.593-1.447 29.967 11.436 34.31 11.582 5.936-2.171 30.403-22.873 30.403-22.873.241 2.026 1.109 7.287 3.472 8.397-9.457 7.673-18.046 15.056-27.504 22.728.676 12.161-1.543 25.046 4.633 38.654 0 0-7.382.144-7.382 0-6.515-6.514-8.833-37.929-8.833-37.929-10.375-4.634-20.752-9.121-31.126-13.754 1.497-.966 2.702-3.956 2.027-6.805z" fill-rule="evenodd" fill-opacity=".987" stroke="#000" stroke-width="2.242" fill="#ffef00"/><path d="M256.918 235.305c.504-.366-5.693 2.879-7.285 3.694-28.672 15.295-43.428 37.544-44.348 38.384-.497.948-1.408 2.212-2.244 3.451-.672 1.037-1.637 2.112-2.272 3.162-.879 1.216-2.726 3.619-3.734 4.685-.126.687.478-.235.28.222m79.196-71.777c-.556-.281 5.165 3.745 6.617 4.788 26.716 18.501 53.25 21.447 54.418 21.88 1.071.007 2.611.24 4.095.416 1.231.122 2.626.489 3.851.574 1.484.224 4.465.767 5.875 1.176.668-.203-.427-.316.069-.35" stroke="#000" stroke-width="2.242" fill="none"/></svg>
