<svg xmlns="http://www.w3.org/2000/svg" height="512" width="512" viewBox="0 0 512 512"><defs><clipPath id="a"><path fill-opacity=".67" d="M0 0h512v512h-512z"/></clipPath></defs><g clip-path="url(#a)"><g fill-rule="evenodd"><path fill="#fff" d="M0 0h1023.977v511.984h-1023.977z"/><path d="M1023.977 445.227c-11.473 6.902-21.331 23.035-51.812 23.035-60.946 0-76.187-33.964-121.901-33.964-30.473 0-45.711 33.964-76.186 33.964-60.95 0-76.188-33.964-121.901-33.964-30.476 0-45.714 33.964-76.189 33.964-60.95 0-76.188-33.964-121.901-33.964-30.476 0-45.714 33.964-76.189 33.964-60.95 0-76.188-33.964-121.901-33.964-30.477 0-45.714 33.964-76.189 33.964-60.95 0-76.19-33.964-121.901-33.964-30.476 0-39.618 24.202-57.903 24.202v43.726c18.285 0 27.428-24.203 57.903-24.203 45.713 0 60.952 33.964 121.901 33.964 30.475 0 45.712-33.964 76.189-33.964 45.712 0 60.95 33.964 121.901 33.964 30.475 0 45.713-33.964 76.189-33.964 45.713 0 60.95 33.964 121.901 33.964 30.475 0 45.713-33.964 76.189-33.964 45.713 0 60.95 33.964 121.901 33.964 30.475 0 45.713-33.964 76.186-33.964 45.713 0 60.954 33.964 121.901 33.964 30.481 0 40.339-9.624 51.812-16.527v-50.233zm0-84.912c-11.473 6.902-21.331 23.035-51.812 23.035-60.946 0-76.187-33.964-121.901-33.964-30.473 0-45.711 33.964-76.186 33.964-60.95 0-76.188-33.964-121.901-33.964-30.476 0-45.714 33.964-76.189 33.964-60.95 0-76.188-33.964-121.901-33.964-30.476 0-45.714 33.964-76.189 33.964-60.95 0-76.188-33.964-121.901-33.964-30.477 0-45.714 33.964-76.189 33.964-60.95 0-76.19-33.964-121.901-33.964-30.476 0-39.618 24.202-57.903 24.202v43.726c18.285 0 27.428-24.203 57.903-24.203 45.713 0 60.952 33.964 121.901 33.964 30.475 0 45.712-33.964 76.189-33.964 45.712 0 60.95 33.964 121.901 33.964 30.475 0 45.713-33.964 76.189-33.964 45.713 0 60.95 33.964 121.901 33.964 30.475 0 45.713-33.964 76.189-33.964 45.713 0 60.95 33.964 121.901 33.964 30.475 0 45.713-33.964 76.186-33.964 45.713 0 60.954 33.964 121.901 33.964 30.481 0 40.339-9.624 51.812-16.527v-50.233zm0-84.911c-11.473 6.903-21.331 23.035-51.812 23.035-60.946 0-76.187-33.964-121.901-33.964-30.473 0-45.711 33.964-76.186 33.964-60.95 0-76.188-33.964-121.901-33.964-30.476 0-45.714 33.964-76.189 33.964-60.95 0-76.188-33.964-121.901-33.964-30.476 0-45.714 33.964-76.189 33.964-60.95 0-76.188-33.964-121.901-33.964-30.477 0-45.714 33.964-76.189 33.964-60.95 0-76.19-33.964-121.901-33.964-30.476 0-39.618 24.202-57.903 24.202v43.726c18.285 0 27.428-24.202 57.903-24.202 45.713 0 60.952 33.964 121.901 33.964 30.475 0 45.712-33.964 76.189-33.964 45.712 0 60.95 33.964 121.901 33.964 30.475 0 45.713-33.964 76.189-33.964 45.713 0 60.95 33.964 121.901 33.964 30.475 0 45.713-33.964 76.189-33.964 45.713 0 60.95 33.964 121.901 33.964 30.475 0 45.713-33.964 76.186-33.964 45.713 0 60.954 33.964 121.901 33.964 30.481 0 40.339-9.625 51.812-16.528v-50.233zm0-84.91c-11.473 6.903-21.331 23.035-51.812 23.035-60.946 0-76.187-33.964-121.901-33.964-30.473 0-45.711 33.964-76.186 33.964-60.95 0-76.188-33.964-121.901-33.964-30.476 0-45.714 33.964-76.189 33.964-60.95 0-76.188-33.964-121.901-33.964-30.476 0-45.714 33.964-76.189 33.964-60.95 0-76.188-33.964-121.901-33.964-30.477 0-45.714 33.964-76.189 33.964-60.95 0-76.19-33.964-121.901-33.964-30.476 0-39.618 24.202-57.903 24.202v43.726c18.285 0 27.428-24.202 57.903-24.202 45.713 0 60.952 33.964 121.901 33.964 30.475 0 45.712-33.964 76.189-33.964 45.712 0 60.95 33.964 121.901 33.964 30.475 0 45.713-33.964 76.189-33.964 45.713 0 60.95 33.964 121.901 33.964 30.475 0 45.713-33.964 76.189-33.964 45.713 0 60.95 33.964 121.901 33.964 30.475 0 45.713-33.964 76.186-33.964 45.713 0 60.954 33.964 121.901 33.964 30.481 0 40.339-9.625 51.812-16.527v-50.234zm0-84.911c-11.473 6.903-21.331 23.035-51.812 23.035-60.946 0-76.187-33.964-121.901-33.964-30.473 0-45.711 33.964-76.186 33.964-60.95 0-76.188-33.964-121.901-33.964-30.476 0-45.714 33.964-76.189 33.964-60.95 0-76.188-33.964-121.901-33.964-30.476 0-45.714 33.964-76.189 33.964-60.95 0-76.188-33.964-121.901-33.964-30.477 0-45.714 33.964-76.189 33.964-60.95 0-76.19-33.964-121.901-33.964-30.476 0-39.618 24.202-57.903 24.202v43.726c18.285 0 27.428-24.202 57.903-24.202 45.713 0 60.952 33.964 121.901 33.964 30.475 0 45.712-33.964 76.189-33.964 45.712 0 60.95 33.964 121.901 33.964 30.475 0 45.713-33.964 76.189-33.964 45.713 0 60.95 33.964 121.901 33.964 30.475 0 45.713-33.964 76.189-33.964 45.713 0 60.95 33.964 121.901 33.964 30.475 0 45.713-33.964 76.186-33.964 45.713 0 60.954 33.964 121.9 33.964 30.482 0 40.34-9.625 51.813-16.527v-50.234zm0-84.911c-11.473 6.903-21.331 23.035-51.812 23.035-60.946 0-76.187-33.964-121.901-33.964-30.473 0-45.711 33.964-76.186 33.964-60.95 0-76.188-33.964-121.901-33.964-30.476 0-45.714 33.964-76.189 33.964-60.95 0-76.188-33.964-121.901-33.964-30.476 0-45.714 33.964-76.189 33.964-60.95 0-76.188-33.964-121.901-33.964-30.477 0-45.714 33.964-76.189 33.964-60.95 0-76.19-33.964-121.901-33.964-30.476 0-39.618 24.202-57.903 24.202v43.726c18.285 0 27.428-24.202 57.903-24.202 45.713 0 60.952 33.964 121.901 33.964 30.475 0 45.712-33.964 76.189-33.964 45.712 0 60.95 33.964 121.901 33.964 30.475 0 45.713-33.964 76.189-33.964 45.713 0 60.95 33.964 121.901 33.964 30.475 0 45.713-33.964 76.189-33.964 45.713 0 60.95 33.964 121.901 33.964 30.475 0 45.713-33.964 76.186-33.964 45.713 0 60.954 33.964 121.9 33.964 30.482 0 40.34-9.625 51.813-16.527v-50.234z" fill="#000063"/></g><path fill-rule="evenodd" fill="#000063" d="M0 .063h261.314v157.903h-261.314z"/><path fill="#fff" d="M0 .063v17.654l232.1 140.25h29.216v-17.653l-232.1-140.25h-29.216zm261.316 0v17.654l-232.1 140.25h-29.216v-17.654l232.1-140.25h29.216zM108.881.063v157.904h43.553v-157.904h-43.553zm-108.881 52.635v52.634h261.316v-52.634h-261.316z"/><path fill="#c00" d="M0 63.225v31.58h261.316v-31.58h-261.316zm117.592-63.162v157.904h26.132v-157.904h-26.132zm-117.592 157.904l87.105-52.635h19.477l-87.105 52.635h-19.477zm0-157.904l87.105 52.635h-19.477l-67.628-40.865v-11.77zm154.734 52.635l87.105-52.635h19.477l-87.106 52.635h-19.476zm106.582 105.27l-87.106-52.636h19.477l67.629 40.866v11.77z"/><path d="M814.96-301.18l-17.72 708.66c0 37.298 80.097 37.298 88.583 0l-17.717-708.66h-53.149z" fill-rule="evenodd" transform="matrix(.206 0 0 .49 211.633 267.436)" stroke="#fff" stroke-width="6.935" fill="#a24300"/><path d="M496.06 549.21l17.717 70.866 35.433-53.15-17.717 88.583 35.433-35.433-35.433 88.582 35.433-35.433-35.433 88.583 35.433-35.433-35.433 106.3 35.433-35.433-35.433 106.3 35.433-35.433-35.433 106.3-17.716 53.151-17.717 17.72-17.717-17.72-17.716-53.151-35.433-106.3 35.433 35.433-35.433-106.3 35.433 35.433-35.433-106.3 35.433 35.433-35.433-88.583 35.433 35.433-35.433-88.582 35.433 35.433-17.717-88.583 35.433 53.15 17.717-70.866z" fill-rule="evenodd" transform="matrix(-.235 .067 -.103 -.195 591.314 322.549)" stroke="#fff" stroke-width="8.25" fill="#006d00"/><path d="M496.06 549.21v496.07m-70.86-177.17l70.86 106.3 70.87-106.3M425.2 797.24l70.866 106.3 70.866-106.3M425.2 726.38l70.866 106.3 70.866-106.3M425.2 673.23l70.866 88.583 70.866-88.583M425.2 620.08l70.866 88.582 70.866-88.582M442.91 566.93l53.15 106.3 53.15-106.3" transform="matrix(-.235 .067 -.103 -.195 591.314 322.549)" stroke="#000" stroke-width="1pt" fill="none"/><path d="M496.06 549.21l17.717 70.866 35.433-53.15-17.717 88.583 35.433-35.433-35.433 88.582 35.433-35.433-35.433 88.583 35.433-35.433-35.433 106.3 35.433-35.433-35.433 106.3 35.433-35.433-35.433 106.3-17.716 53.151-17.717 17.72-17.717-17.72-17.716-53.151-35.433-106.3 35.433 35.433-35.433-106.3 35.433 35.433-35.433-106.3 35.433 35.433-35.433-88.583 35.433 35.433-35.433-88.582 35.433 35.433-17.717-88.583 35.433 53.15 17.717-70.866z" fill-rule="evenodd" transform="matrix(.177 -.181 .221 .146 73.835 93.526)" stroke="#fff" stroke-width="8.25" fill="#006d00"/><path d="M496.06 549.21v496.07m-70.86-177.17l70.86 106.3 70.87-106.3M425.2 797.24l70.866 106.3 70.866-106.3M425.2 726.38l70.866 106.3 70.866-106.3M425.2 673.23l70.866 88.583 70.866-88.583M425.2 620.08l70.866 88.582 70.866-88.582M442.91 566.93l53.15 106.3 53.15-106.3" transform="matrix(.177 -.181 .221 .146 73.835 93.526)" stroke="#000" stroke-width="1pt" fill="none"/><path d="M496.06 549.21l17.717 70.866 35.433-53.15-17.717 88.583 35.433-35.433-35.433 88.582 35.433-35.433-35.433 88.583 35.433-35.433-35.433 106.3 35.433-35.433-35.433 106.3 35.433-35.433-35.433 106.3-17.716 53.151-17.717 17.72-17.717-17.72-17.716-53.151-35.433-106.3 35.433 35.433-35.433-106.3 35.433 35.433-35.433-106.3 35.433 35.433-35.433-88.583 35.433 35.433-35.433-88.582 35.433 35.433-17.717-88.583 35.433 53.15 17.717-70.866z" fill-rule="evenodd" transform="matrix(.114 .216 -.249 .108 581.756 -57.78)" stroke="#fff" stroke-width="8.25" fill="#006d00"/><path d="M496.06 549.21v496.07m-70.86-177.17l70.86 106.3 70.87-106.3M425.2 797.24l70.866 106.3 70.866-106.3M425.2 726.38l70.866 106.3 70.866-106.3M425.2 673.23l70.866 88.583 70.866-88.583M425.2 620.08l70.866 88.582 70.866-88.582M442.91 566.93l53.15 106.3 53.15-106.3" transform="matrix(.114 .216 -.249 .108 581.756 -57.78)" stroke="#000" stroke-width="1pt" fill="none"/><path d="M496.06 549.21l17.717 70.866 35.433-53.15-17.717 88.583 35.433-35.433-35.433 88.582 35.433-35.433-35.433 88.583 35.433-35.433-35.433 106.3 35.433-35.433-35.433 106.3 35.433-35.433-35.433 106.3-17.716 53.151-17.717 17.72-17.717-17.72-17.716-53.151-35.433-106.3 35.433 35.433-35.433-106.3 35.433 35.433-35.433-106.3 35.433 35.433-35.433-88.583 35.433 35.433-35.433-88.582 35.433 35.433-17.717-88.583 35.433 53.15 17.717-70.866z" fill-rule="evenodd" transform="matrix(-.157 .195 -.236 -.128 705.85 197.798)" stroke="#fff" stroke-width="8.25" fill="#006d00"/><path d="M496.06 549.21v496.07m-70.86-177.17l70.86 106.3 70.87-106.3M425.2 797.24l70.866 106.3 70.866-106.3M425.2 726.38l70.866 106.3 70.866-106.3M425.2 673.23l70.866 88.583 70.866-88.583M425.2 620.08l70.866 88.582 70.866-88.582M442.91 566.93l53.15 106.3 53.15-106.3" transform="matrix(-.157 .195 -.236 -.128 705.85 197.798)" stroke="#000" stroke-width="1pt" fill="none"/><path d="M496.06 549.21l17.717 70.866 35.433-53.15-17.717 88.583 35.433-35.433-35.433 88.582 35.433-35.433-35.433 88.583 35.433-35.433-35.433 106.3 35.433-35.433-35.433 106.3 35.433-35.433-35.433 106.3-17.716 53.151-17.717 17.72-17.717-17.72-17.716-53.151-35.433-106.3 35.433 35.433-35.433-106.3 35.433 35.433-35.433-106.3 35.433 35.433-35.433-88.583 35.433 35.433-35.433-88.582 35.433 35.433-17.717-88.583 35.433 53.15 17.717-70.866z" fill-rule="evenodd" transform="matrix(-.155 -.166 .177 -.151 275.837 396.088)" stroke="#fff" stroke-width="8.25" fill="#006d00"/><path d="M496.06 549.21v496.07m-70.86-177.17l70.86 106.3 70.87-106.3M425.2 797.24l70.866 106.3 70.866-106.3M425.2 726.38l70.866 106.3 70.866-106.3M425.2 673.23l70.866 88.583 70.866-88.583M425.2 620.08l70.866 88.582 70.866-88.582M442.91 566.93l53.15 106.3 53.15-106.3" transform="matrix(-.155 -.166 .177 -.151 275.837 396.088)" stroke="#000" stroke-width="1pt" fill="none"/><path d="M460.63 549.21l28.643 70.866 42.223-53.15-10.184 88.583 27.9-35.433-17.716 88.582 25.249-35.433-25.249 88.583 35.433-35.433-35.433 106.3 35.433-35.433-35.433 106.3 35.433-35.433-35.433 106.3-17.716 53.151-17.717 17.72-17.717-17.72-17.716-53.151-35.433-106.3 35.433 35.433-35.433-106.3 35.433 35.433-35.433-106.3 35.433 35.433-45.617-88.583 45.617 35.433-53.15-88.582 42.966 35.433-25.25-88.583 35.433 53.15.001-70.866z" fill-rule="evenodd" transform="matrix(-.271 -.064 -.157 .204 684.121 -32.23)" stroke="#fff" stroke-width="8.25" fill="#006d00"/><path d="M467.21 584.65l28.855 124.02v336.62M436.23 885.83l59.833 88.582 60.682-88.582M434.53 814.96l61.53 88.582 60.682-88.582M435.38 744.1l60.682 88.582 59.833-88.582M432.84 690.94l63.228 70.866 53.149-70.866M425.2 637.8l70.866 70.865 45.406-70.865M436.12 593.24l53.15 86.886 35.327-95.478" transform="matrix(-.271 -.064 -.157 .204 684.121 -32.23)" stroke="#000" stroke-width="1pt" fill="none"/><path d="M460.63 549.21l28.643 70.866 42.223-53.15-10.184 88.583 27.9-35.433-17.716 88.582 25.249-35.433-25.249 88.583 35.433-35.433-35.433 106.3 35.433-35.433-35.433 106.3 35.433-35.433-35.433 106.3-17.716 53.151-17.717 17.72-17.717-17.72-17.716-53.151-35.433-106.3 35.433 35.433-35.433-106.3 35.433 35.433-35.433-106.3 35.433 35.433-45.617-88.583 45.617 35.433-53.15-88.582 42.966 35.433-25.25-88.583 35.433 53.15.001-70.866z" fill-rule="evenodd" transform="matrix(.27 .067 .01 .245 240.767 -138.419)" stroke="#fff" stroke-width="8.25" fill="#006d00"/><path d="M467.21 584.65l28.855 124.02v336.62M436.23 885.83l59.833 88.582 60.682-88.582M434.53 814.96l61.53 88.582 60.682-88.582M435.38 744.1l60.682 88.582 59.833-88.582M432.84 690.94l63.228 70.866 53.149-70.866M425.2 637.8l70.866 70.865 45.406-70.865M436.12 593.24l53.15 86.886 35.327-95.478" transform="matrix(.27 .067 .01 .245 240.767 -138.419)" stroke="#000" stroke-width="1pt" fill="none"/><path d="M354.33 531.5l88.583 88.583 17.716-53.149v88.582l35.433-35.433-17.716 88.583 35.432-35.434-17.716 88.584 35.433-35.433-17.716 106.3 35.433-35.433-35.433 106.3 35.433-35.433-17.717 106.3-17.716 53.151-17.717 17.72-17.717-17.72-17.716-53.151-53.15-82.294 35.434 11.429-35.433-106.3 35.433 35.433-53.15-106.3 35.433 35.433-53.15-88.584 53.15 35.434-70.866-88.583 53.149 35.433-70.866-70.866 70.866 35.433-53.149-88.583z" fill-rule="evenodd" transform="matrix(.035 -.235 .244 .042 115.462 229.538)" stroke="#fff" stroke-width="8.25" fill="#006d00"/><path d="M378.96 560.02l63.952 95.497 17.716 53.15 8.859 45.205 8.858 78.811 9.315 70.866 8.401 141.74M425.2 903.54l63.665 70.866 50.749-88.583M417.08 814.96l70.579 88.583 50.75-88.583M407.48 752.44l70.867 80.235 45.948-88.583m-152.245-106.292l88.583 70.866 25.831-70.866M360.62 602.36l82.296 53.149 10.515-53.149m-63.671 88.58l81.095 70.866 33.946-70.866" transform="matrix(.035 -.235 .244 .042 115.462 229.538)" stroke="#000" stroke-width="1pt" fill="none"/><g fill-rule="evenodd"><path d="M541.46 1173.3l-1.7-229.13-61.1-106.94c-15.277-52.618-7.754-78.079 16.973-79.776 24.728-1.698 49.224 13.579 84.868 15.276 35.645 1.697 28.856-59.408 81.474-57.71 52.618 1.697 144.28 32.25 222.36 37.342 78.078 5.092 118.81-27.158 208.77-30.553 89.97-3.395 113.73 42.435 118.82 42.435s30.55-18.672 56.01-22.066c25.46-3.395 33.95 10.184 33.95 10.184s-1.7 57.71-13.58 91.657c-11.88 33.948-54.32 89.961-56.01 89.961-1.7 0-15.28 249.52-15.28 251.21 0 1.7-675.55-6.79-675.55-11.88z" stroke="#000" stroke-width="1pt" fill="#c00" transform="matrix(.137 0 0 .126 266.36 208.19)"/><g stroke="#000" stroke-width="1pt"><path d="M435.759 326.248s9.286-6.55 9.536-22.276c.144-9.044-4.696-15.593-16.795-15.593-16.94 0-41.138 6.682-41.138 6.682v2.228s19.359-6.683 41.138-6.683c9.68 0 14.52 6.549 14.52 13.232 0 11.138-9.68 22.409-9.68 22.409v17.82h2.42v-17.82z" fill="#fff100"/><path d="M440.83 321.578c0 1.23 1.083 2.228 2.42 2.228s2.42-.997 2.42-2.228c0-1.23-1.083-2.228-2.42-2.228s-2.42.997-2.42 2.228zM443.25 316.483c0 1.23 1.083 2.228 2.42 2.228s2.42-.997 2.42-2.228c0-1.23-1.083-2.228-2.42-2.228s-2.42.997-2.42 2.228zM444.511 311.295c0 1.23 1.083 2.228 2.42 2.228s2.42-.997 2.42-2.228c0-1.23-1.083-2.228-2.42-2.228s-2.42.997-2.42 2.228zM445.438 305.746c0 1.23 1.083 2.228 2.42 2.228s2.42-.997 2.42-2.228c0-1.23-1.083-2.228-2.42-2.228s-2.42.997-2.42 2.228zM445.207 299.73c0 1.23 1.083 2.228 2.42 2.228s2.42-.997 2.42-2.228c0-1.23-1.083-2.228-2.42-2.228s-2.42.997-2.42 2.228zM437.352 326.06c0 1.23 1.083 2.228 2.42 2.228s2.42-.997 2.42-2.228c0-1.23-1.083-2.228-2.42-2.228s-2.42.997-2.42 2.228zM443.149 294.048c0 1.23 1.083 2.228 2.42 2.228s2.42-.997 2.42-2.228c0-1.23-1.083-2.228-2.42-2.228s-2.42.997-2.42 2.228zM438.744 289.567c0 1.23 1.083 2.228 2.42 2.228s2.42-.997 2.42-2.228c0-1.23-1.083-2.228-2.42-2.228s-2.42.997-2.42 2.228zM432.716 286.58c0 1.23 1.083 2.228 2.42 2.228s2.42-.997 2.42-2.228c0-1.23-1.083-2.228-2.42-2.228s-2.42.997-2.42 2.228zM426.688 286.152c0 1.23 1.083 2.228 2.42 2.228s2.42-.997 2.42-2.228c0-1.23-1.083-2.228-2.42-2.228s-2.42.997-2.42 2.228zM420.197 286.366c0 1.23 1.083 2.228 2.42 2.228s2.42-.997 2.42-2.228c0-1.23-1.083-2.228-2.42-2.228s-2.42.997-2.42 2.228zM413.705 287.22c0 1.23 1.083 2.228 2.42 2.228s2.42-.997 2.42-2.228c0-1.23-1.083-2.228-2.42-2.228s-2.42.997-2.42 2.228zM407.212 288.074c0 1.23 1.083 2.228 2.42 2.228s2.42-.997 2.42-2.228c0-1.23-1.083-2.228-2.42-2.228s-2.42.997-2.42 2.228zM400.258 289.14c0 1.23 1.083 2.228 2.42 2.228s2.42-.997 2.42-2.228c0-1.23-1.083-2.228-2.42-2.228s-2.42.997-2.42 2.228zM394.23 290.635c0 1.23 1.083 2.228 2.42 2.228s2.42-.997 2.42-2.228c0-1.23-1.083-2.228-2.42-2.228s-2.42.997-2.42 2.228z" fill="#fff"/></g><path d="M478.35 549.21c0 9.785-7.932 17.717-17.717 17.717-9.785 0-17.717-7.932-17.717-17.717 0-9.785 7.932-17.717 17.717-17.717 9.785 0 17.717 7.932 17.717 17.717z" transform="matrix(.137 0 0 .126 268.548 252.526)" stroke="#000" stroke-width="1pt" fill="#fff"/><path d="M478.35 549.21c0 9.785-7.932 17.717-17.717 17.717-9.785 0-17.717-7.932-17.717-17.717 0-9.785 7.932-17.717 17.717-17.717 9.785 0 17.717 7.932 17.717 17.717z" transform="matrix(.137 0 0 .126 266.128 247.432)" stroke="#000" stroke-width="1pt" fill="#fff"/><path d="M478.35 549.21c0 9.785-7.932 17.717-17.717 17.717-9.785 0-17.717-7.932-17.717-17.717 0-9.785 7.932-17.717 17.717-17.717 9.785 0 17.717 7.932 17.717 17.717z" transform="matrix(.137 0 0 .126 264.867 242.243)" stroke="#000" stroke-width="1pt" fill="#fff"/><path d="M478.35 549.21c0 9.785-7.932 17.717-17.717 17.717-9.785 0-17.717-7.932-17.717-17.717 0-9.785 7.932-17.717 17.717-17.717 9.785 0 17.717 7.932 17.717 17.717z" transform="matrix(.137 0 0 .126 263.94 236.694)" stroke="#000" stroke-width="1pt" fill="#fff"/><path d="M478.35 549.21c0 9.785-7.932 17.717-17.717 17.717-9.785 0-17.717-7.932-17.717-17.717 0-9.785 7.932-17.717 17.717-17.717 9.785 0 17.717 7.932 17.717 17.717z" transform="matrix(.137 0 0 .126 264.172 230.678)" stroke="#000" stroke-width="1pt" fill="#fff"/><path d="M478.35 549.21c0 9.785-7.932 17.717-17.717 17.717-9.785 0-17.717-7.932-17.717-17.717 0-9.785 7.932-17.717 17.717-17.717 9.785 0 17.717 7.932 17.717 17.717z" transform="matrix(.137 0 0 .126 266.23 224.996)" stroke="#000" stroke-width="1pt" fill="#fff"/><path d="M478.35 549.21c0 9.785-7.932 17.717-17.717 17.717-9.785 0-17.717-7.932-17.717-17.717 0-9.785 7.932-17.717 17.717-17.717 9.785 0 17.717 7.932 17.717 17.717z" transform="matrix(.137 0 0 .126 270.635 220.515)" stroke="#000" stroke-width="1pt" fill="#fff"/><path d="M478.35 549.21c0 9.785-7.932 17.717-17.717 17.717-9.785 0-17.717-7.932-17.717-17.717 0-9.785 7.932-17.717 17.717-17.717 9.785 0 17.717 7.932 17.717 17.717z" transform="matrix(.137 0 0 .126 276.662 217.527)" stroke="#000" stroke-width="1pt" fill="#fff"/><path d="M478.35 549.21c0 9.785-7.932 17.717-17.717 17.717-9.785 0-17.717-7.932-17.717-17.717 0-9.785 7.932-17.717 17.717-17.717 9.785 0 17.717 7.932 17.717 17.717z" transform="matrix(.137 0 0 .126 282.69 217.1)" stroke="#000" stroke-width="1pt" fill="#fff"/><path d="M478.35 549.21c0 9.785-7.932 17.717-17.717 17.717-9.785 0-17.717-7.932-17.717-17.717 0-9.785 7.932-17.717 17.717-17.717 9.785 0 17.717 7.932 17.717 17.717z" transform="matrix(.137 0 0 .126 289.181 217.314)" stroke="#000" stroke-width="1pt" fill="#fff"/><path d="M478.35 549.21c0 9.785-7.932 17.717-17.717 17.717-9.785 0-17.717-7.932-17.717-17.717 0-9.785 7.932-17.717 17.717-17.717 9.785 0 17.717 7.932 17.717 17.717z" transform="matrix(.137 0 0 .126 295.674 218.168)" stroke="#000" stroke-width="1pt" fill="#fff"/><path d="M478.35 549.21c0 9.785-7.932 17.717-17.717 17.717-9.785 0-17.717-7.932-17.717-17.717 0-9.785 7.932-17.717 17.717-17.717 9.785 0 17.717 7.932 17.717 17.717z" transform="matrix(.137 0 0 .126 302.166 219.021)" stroke="#000" stroke-width="1pt" fill="#fff"/><path d="M478.35 549.21c0 9.785-7.932 17.717-17.717 17.717-9.785 0-17.717-7.932-17.717-17.717 0-9.785 7.932-17.717 17.717-17.717 9.785 0 17.717 7.932 17.717 17.717z" transform="matrix(.137 0 0 .126 309.12 220.088)" stroke="#000" stroke-width="1pt" fill="#fff"/><path d="M478.35 549.21c0 9.785-7.932 17.717-17.717 17.717-9.785 0-17.717-7.932-17.717-17.717 0-9.785 7.932-17.717 17.717-17.717 9.785 0 17.717 7.932 17.717 17.717z" transform="matrix(.137 0 0 .126 315.149 221.583)" stroke="#000" stroke-width="1pt" fill="#fff"/><path d="M478.35 549.21c0 9.785-7.932 17.717-17.717 17.717-9.785 0-17.717-7.932-17.717-17.717 0-9.785 7.932-17.717 17.717-17.717 9.785 0 17.717 7.932 17.717 17.717z" transform="matrix(.137 0 0 .126 272.026 257.008)" stroke="#000" stroke-width="1pt" fill="#fff"/><path d="M531.5 584.65s-67.982-52.097-69.813-177.17c-1.053-71.929 34.38-124.02 122.96-124.02 124.02 0 301.18 53.149 301.18 53.149v17.717s-141.73-53.15-301.18-53.15c-70.866 0-106.3 52.087-106.3 105.24 0 88.583 70.867 178.23 70.867 178.23v141.73h-17.717v-141.73z" transform="matrix(.137 0 0 .126 266.36 252.74)" stroke="#000" stroke-width="1pt" fill="#fff100"/><path d="M1240.2 531.5s15.35-35.433 70.86-35.433c37.79 0 70.87 35.433 70.87 70.866v70.866h35.43v-70.866c0-35.47 35.44-70.866 70.87-70.866 53.15 0 70.87 35.433 70.87 35.433s0-106.3-70.87-106.3c-53.15 0-70.87 35.433-70.87 35.433s17.72-53.15 17.72-106.3l-35.43-88.583c0 6.79-35.44 35.433-35.44 88.583 0 53.149 17.72 106.3 17.72 106.3s-17.72-35.433-70.87-35.433c-70.86 0-70.86 106.3-70.86 106.3z" transform="matrix(.046 0 0 .048 299.433 309.064)" stroke="#000" stroke-width="2.991" fill="#fff100"/><path d="M1240.2 531.5s15.35-35.433 70.86-35.433c37.79 0 70.87 35.433 70.87 70.866v70.866h35.43v-70.866c0-35.47 35.44-70.866 70.87-70.866 53.15 0 70.87 35.433 70.87 35.433s0-106.3-70.87-106.3c-53.15 0-70.87 35.433-70.87 35.433s17.72-53.15 17.72-106.3l-35.43-88.583c0 6.79-35.44 35.433-35.44 88.583 0 53.149 17.72 106.3 17.72 106.3s-17.72-35.433-70.87-35.433c-70.86 0-70.86 106.3-70.86 106.3z" transform="matrix(.046 0 0 .048 347.83 309.064)" stroke="#000" stroke-width="2.991" fill="#fff100"/><path d="M531.5 832.68v-159.45s35.433 53.15 88.583 53.15c43.489 0 88.582-70.866 88.582-70.866s41.515 53.149 88.583 53.149c42.021 0 88.516-68.572 88.516-68.572s43.207 68.572 88.649 68.572c45.441 0 88.581-53.149 88.581-53.149s46.29 70.866 106.3 70.866c53.15 0 70.87-53.15 70.87-53.15v159.45h-708.66z" transform="matrix(.137 0 0 .126 266.36 252.74)" stroke="#000" stroke-width="1pt" fill="#fff100"/><path d="M708.66 832.68v-124.02s106.3 35.433 106.3 124.02h-106.3z" transform="matrix(.137 0 0 .126 242.16 252.74)" stroke="#000" stroke-width="1pt" fill="#fff100"/><path d="M708.66 832.68v-124.02s106.3 35.433 106.3 124.02h-106.3z" transform="matrix(-.137 0 0 .126 532.547 252.74)" stroke="#000" stroke-width="1pt" fill="#fff100"/><path d="M602.36 832.68c0-88.583 106.37-144.6 106.37-144.6s106.23 56.016 106.23 144.6h-212.6z" transform="matrix(.137 0 0 .126 266.36 252.74)" stroke="#000" stroke-width="1pt" fill="#fff100"/><path d="M602.36 832.68c0-88.583 106.37-144.6 106.37-144.6s106.23 56.016 106.23 144.6h-212.6z" transform="matrix(.137 0 0 .126 314.758 252.74)" stroke="#000" stroke-width="1pt" fill="#fff100"/><path d="M584.65 847.53c0-88.583 124.08-159.45 124.08-159.45s123.95 70.866 123.95 159.45h-248.03z" transform="matrix(.137 0 0 .126 290.558 250.873)" stroke="#000" stroke-width="1pt" fill="#fff100"/><path d="M1275.6 655.51c-35.43-17.716-166.02-35.433-376.28-35.433s-350.1 17.717-385.53 35.433c-35.434 17.717-35.434 53.149-.001 70.866 35.433 17.716 175.28 35.433 385.54 35.433s340.84-17.716 376.28-35.433c35.43-17.716 35.43-53.149 0-70.866z" transform="matrix(.135 0 0 .126 265.898 275.015)" stroke="#000" stroke-width="1pt" fill="#fff"/><path d="M435.757 366.342c0 4.455-40.256 4.455-48.399 4.455-8.797 0-48.398 1.207-48.398-4.455 0-4.455 39.928-4.455 48.398-4.455 8.47 0 48.399.906 48.399 4.455z" fill="#808080"/><path d="M343.797 350.342c0 1.456-1.084 2.636-2.42 2.636-1.337 0-2.42-1.18-2.42-2.636s1.083-2.637 2.42-2.637c1.336 0 2.42 1.18 2.42 2.637zm91.956 0c0 1.456-1.083 2.636-2.42 2.636-1.336 0-2.42-1.18-2.42-2.636s1.084-2.637 2.42-2.637c1.337 0 2.42 1.18 2.42 2.637z" fill="#c00"/><path d="M392.195 348.932c0 1.456-2.167 2.636-4.84 2.636s-4.84-1.18-4.84-2.636 2.167-2.636 4.84-2.636 4.84 1.18 4.84 2.636z"/><path d="M415.41 348.932c0 1.456-1.625 2.636-3.63 2.636-2.004 0-3.63-1.18-3.63-2.636s1.626-2.636 3.63-2.636c2.005 0 3.63 1.18 3.63 2.636zm-49.834 0c0 1.456-1.626 2.636-3.63 2.636-2.005 0-3.63-1.18-3.63-2.636s1.625-2.636 3.63-2.636c2.004 0 3.63 1.18 3.63 2.636z" fill="#006300"/><path d="M1257.9 496.06s35.44-53.15 70.87-53.15h35.43v35.433c0 53.15-53.15 70.867-53.15 70.867h141.74s-53.15-17.717-53.15-70.867v-35.433h35.43c35.43 0 70.87 53.15 70.87 53.15v-141.73s-35.44 53.15-70.87 53.15h-35.43v-35.433c0-53.15 53.15-70.867 53.15-70.867h-141.74s53.15 17.717 53.15 70.867v35.433h-35.43c-35.43 0-70.87-53.15-70.87-53.15v141.73z" transform="matrix(.078 0 0 .072 279.5 297.926)" stroke="#000" stroke-width="2.188" fill="#fff100"/><path d="M1381.9 549.21l70.87.001s-53.15-17.717-53.15-70.867v-35.433h35.43c35.43 0 70.87 53.15 70.87 53.15v-141.73s-35.44 53.15-70.87 53.15h-35.43v-35.433c0-53.15 53.15-70.867 53.15-70.867h-70.87v248.03z" transform="matrix(.039 0 0 .063 285.03 307.314)" stroke="#000" stroke-width="3.307" fill="#fff100"/><path d="M1381.9 549.21l70.87.001s-53.15-17.717-53.15-70.867v-35.433h35.43c35.43 0 70.87 53.15 70.87 53.15v-141.73s-35.44 53.15-70.87 53.15h-35.43v-35.433c0-53.15 53.15-70.867 53.15-70.867h-70.87v248.03z" transform="matrix(-.039 0 0 .063 489.685 307.314)" stroke="#000" stroke-width="3.307" fill="#fff100"/><path d="M903.54 602.36c0 9.785-7.932 17.717-17.717 17.717-9.785 0-17.717-7.932-17.717-17.717 0-9.785 7.932-17.717 17.717-17.717 9.785 0 17.717 7.932 17.717 17.717z" transform="matrix(.137 0 0 .126 266.36 252.74)" stroke="#000" stroke-width="1pt" fill="#fff"/><path d="M1257.9 496.06s35.44-53.15 70.87-53.15h35.43v35.433c0 53.15-53.15 70.867-53.15 70.867h141.74s-53.15-17.717-53.15-70.867v-35.433h35.43c35.43 0 70.87 53.15 70.87 53.15v-141.73s-35.44 53.15-70.87 53.15h-35.43v-35.433c0-53.15 53.15-70.867 53.15-70.867h-141.74s53.15 17.717 53.15 70.867v35.433h-35.43c-35.43 0-70.87-53.15-70.87-53.15v141.73z" transform="matrix(.078 0 0 .072 279.5 251.15)" stroke="#000" stroke-width="2.188" fill="#fff100"/><path d="M903.54 602.36c0 9.785-7.932 17.717-17.717 17.717-9.785 0-17.717-7.932-17.717-17.717 0-9.785 7.932-17.717 17.717-17.717 9.785 0 17.717 7.932 17.717 17.717z" transform="matrix(.137 0 0 .126 266.592 206.336)" stroke="#000" stroke-width="1pt" fill="#fff"/><path stroke="#000" stroke-width="1pt" fill="#fff100" d="M850.39 655.51h70.866v53.15h-70.866zM850.39 683.3h70.866v202.53h-70.866z" transform="matrix(.137 0 0 .126 266.36 208.19)"/><path d="M478.35 549.21c0 9.785-7.932 17.717-17.717 17.717-9.785 0-17.717-7.932-17.717-17.717 0-9.785 7.932-17.717 17.717-17.717 9.785 0 17.717 7.932 17.717 17.717z" transform="matrix(.137 0 0 .126 324.438 246.057)" stroke="#000" stroke-width="1pt" fill="#fff"/><path d="M478.35 549.21c0 9.785-7.932 17.717-17.717 17.717-9.785 0-17.717-7.932-17.717-17.717 0-9.785 7.932-17.717 17.717-17.717 9.785 0 17.717 7.932 17.717 17.717z" transform="matrix(.137 0 0 .126 324.438 240.295)" stroke="#000" stroke-width="1pt" fill="#fff"/><path d="M478.35 549.21c0 9.785-7.932 17.717-17.717 17.717-9.785 0-17.717-7.932-17.717-17.717 0-9.785 7.932-17.717 17.717-17.717 9.785 0 17.717 7.932 17.717 17.717z" transform="matrix(.137 0 0 .126 324.438 234.92)" stroke="#000" stroke-width="1pt" fill="#fff"/><path d="M478.35 549.21c0 9.785-7.932 17.717-17.717 17.717-9.785 0-17.717-7.932-17.717-17.717 0-9.785 7.932-17.717 17.717-17.717 9.785 0 17.717 7.932 17.717 17.717z" transform="matrix(.137 0 0 .126 324.438 229.372)" stroke="#000" stroke-width="1pt" fill="#fff"/><path d="M392.495 357.482c0 1-2.202 1.81-4.918 1.81s-4.918-.81-4.918-1.81 2.202-1.811 4.918-1.811c2.717 0 4.918.81 4.918 1.81zm44.57 4.421c-.272.685-2.668.742-5.35.127-2.683-.615-4.638-1.67-4.366-2.355.273-.686 2.668-.743 5.35-.128 2.684.616 4.638 1.67 4.366 2.356zm-18.628-3.004c-.108.882-2.439 1.44-5.206 1.247-2.768-.194-4.925-1.065-4.817-1.947.108-.882 2.439-1.44 5.206-1.247 2.768.193 4.925 1.065 4.817 1.947zm-81.87 3.004c.272.685 2.668.742 5.35.127 2.683-.615 4.638-1.67 4.366-2.355-.273-.686-2.668-.743-5.35-.128-2.684.616-4.638 1.67-4.366 2.356zm19.561-3.431c.108.882 2.439 1.44 5.206 1.247 2.768-.193 4.925-1.065 4.817-1.947-.108-.882-2.439-1.44-5.207-1.247-2.767.193-4.924 1.065-4.816 1.947z"/></g></g></svg>