<svg xmlns="http://www.w3.org/2000/svg" height="512" width="512" viewBox="0 0 512 512"><defs><clipPath id="a"><path fill-opacity=".67" d="M185.98 0h496.06v496.06h-496.06z"/></clipPath></defs><g clip-path="url(#a)" fill-rule="evenodd"><path fill="#fff" d="M-191.96 0h895.89v511.934h-895.89z"/><path fill="#da0000" d="M-191.96 343.79h895.89v168.144h-895.89z"/><g fill="#fff"><path d="M-21.654 350.916h49.064v3.376h-49.064zm7.316 16.881h3.376v3.279h-3.376zm41.875-.106v3.376h-9.804v-3.376zm5.275-16.775h3.377v20.157h-3.377zM52.343 367.691v3.376h-18.582v-3.376zm-34.611-7.887h3.377v11.269h-3.377zM49.58 350.916h3.377v20.157h-3.377zm-8.442 0h3.378v20.157h-3.377zm-44.793 8.023v3.376h-17.907v-3.376zm39.294 0v3.376h-17.907v-3.376zM17.732 359.805h3.377v11.269h-3.377zM17.732 359.805h3.377v11.269h-3.377zM17.732 359.805h3.377v11.269h-3.377zm-39.294 0h3.376v11.269h-3.376zm28.802 0h3.377v11.269h-3.377zm-14.269 0h3.377v11.269h-3.377zM9.609 367.691v3.376h-15.138v-3.376zm1.007-8.752v3.376h-9.598v-3.376z"/></g><g fill="#fff"><path d="M-102.238 350.916h49.064v3.376h-49.064zm7.316 16.881h3.376v3.279h-3.375zm41.875-.106v3.376h-9.804v-3.376zm5.275-16.775h3.377v20.157h-3.377zM-28.24 367.691v3.376h-18.582v-3.376zm-34.611-7.887h3.377v11.269h-3.377zM-31.004 350.916h3.377v20.157h-3.377zm-8.441 0h3.377v20.157h-3.377zm-44.794 8.023v3.376h-17.906v-3.376zm39.294 0v3.376h-17.907v-3.376zM-62.852 359.805h3.377v11.269h-3.377zM-62.852 359.805h3.377v11.269h-3.377zM-62.852 359.805h3.377v11.269h-3.377zm-39.294 0h3.376v11.269h-3.375zm28.802 0h3.377v11.269h-3.377zm-14.27 0h3.378v11.269h-3.377zM-70.975 367.691v3.376h-15.137v-3.376zm1.007-8.752v3.376h-9.598v-3.376z"/></g><g fill="#fff"><path d="M58.264 350.916h49.064v3.376h-49.064zm7.316 16.881h3.376v3.279h-3.376zm41.875-.106v3.376h-9.804v-3.376zm5.275-16.775h3.377v20.157h-3.377zM132.261 367.691v3.376h-18.582v-3.376zm-34.611-7.887h3.377v11.269h-3.377zM129.498 350.916h3.377v20.157h-3.377zm-8.442 0h3.378v20.157h-3.377zm-44.793 8.023v3.376h-17.907v-3.376zm39.294 0v3.376h-17.907v-3.376zM97.65 359.805h3.377v11.269h-3.377zM97.65 359.805h3.377v11.269h-3.377zM97.65 359.805h3.377v11.269h-3.377zm-39.294 0h3.376v11.269h-3.376zm28.802 0h3.377v11.269h-3.377zm-14.269 0h3.377v11.269h-3.377zM89.527 367.691v3.376h-15.138v-3.376zm1.007-8.752v3.376h-9.598v-3.376z"/></g><g fill="#fff"><path d="M622.572 350.916h49.064v3.376h-49.064zm7.316 16.881h3.376v3.279h-3.376zm41.875-.106v3.376h-9.804v-3.376zm5.275-16.775h3.377v20.157h-3.377zM696.569 367.691v3.376h-18.582v-3.376zm-34.611-7.887h3.377v11.269h-3.377zM693.806 350.916h3.377v20.157h-3.377zm-8.442 0h3.378v20.157h-3.377zm-44.793 8.023v3.376h-17.907v-3.376zm39.294 0v3.376h-17.907v-3.376zM661.958 359.805h3.377v11.269h-3.377zM661.958 359.805h3.377v11.269h-3.377zM661.958 359.805h3.377v11.269h-3.377zm-39.294 0h3.376v11.269h-3.376zm28.802 0h3.377v11.269h-3.377zm-14.269 0h3.377v11.269h-3.377zM653.835 367.691v3.376h-15.138v-3.376zm1.007-8.752v3.376h-9.598v-3.376z"/></g><g fill="#fff"><path d="M138.698 350.916h49.064v3.376h-49.064zm7.316 16.881h3.376v3.279h-3.376zm41.875-.106v3.376h-9.804v-3.376zm5.275-16.775h3.377v20.157h-3.377zM212.695 367.691v3.376h-18.582v-3.376zm-34.611-7.887h3.377v11.269h-3.377zM209.932 350.916h3.377v20.157h-3.377zm-8.442 0h3.378v20.157h-3.377zm-44.793 8.023v3.376h-17.907v-3.376zm39.294 0v3.376h-17.907v-3.376zM178.084 359.805h3.377v11.269h-3.377zM178.084 359.805h3.377v11.269h-3.377zM178.084 359.805h3.377v11.269h-3.377zm-39.294 0h3.376v11.269h-3.376zm28.802 0h3.377v11.269h-3.377zm-14.269 0h3.377v11.269h-3.377zM169.961 367.691v3.376h-15.138v-3.376zm1.007-8.752v3.376h-9.598v-3.376z"/></g><g fill="#fff"><path d="M219.421 350.916h49.064v3.376h-49.064zm7.316 16.881h3.376v3.279h-3.376zm41.875-.106v3.376h-9.804v-3.376zm5.275-16.775h3.377v20.157h-3.377zM293.418 367.691v3.376h-18.582v-3.376zm-34.611-7.887h3.377v11.269h-3.377zM290.655 350.916h3.377v20.157h-3.377zm-8.442 0h3.378v20.157h-3.377zm-44.793 8.023v3.376h-17.907v-3.376zm39.294 0v3.376h-17.907v-3.376zM258.807 359.805h3.377v11.269h-3.377zM258.807 359.805h3.377v11.269h-3.377zM258.807 359.805h3.377v11.269h-3.377zm-39.294 0h3.376v11.269h-3.376zm28.802 0h3.377v11.269h-3.377zm-14.269 0h3.377v11.269h-3.377zM250.684 367.691v3.376h-15.138v-3.376zm1.007-8.752v3.376h-9.598v-3.376z"/></g><path fill="#239f40" d="M-191.96 0h895.89v168.144h-895.89z"/><g fill="#fff"><path d="M300.619 350.916h49.064v3.376h-49.064zm7.316 16.881h3.376v3.279h-3.376zm41.875-.106v3.376h-9.804v-3.376zm5.275-16.775h3.377v20.157h-3.377zM374.616 367.691v3.376h-18.582v-3.376zm-34.611-7.887h3.377v11.269h-3.377zM371.853 350.916h3.377v20.157h-3.377zm-8.442 0h3.378v20.157h-3.377zm-44.793 8.023v3.376h-17.907v-3.376zm39.294 0v3.376h-17.907v-3.376zM340.005 359.805h3.377v11.269h-3.377zM340.005 359.805h3.377v11.269h-3.377zM340.005 359.805h3.377v11.269h-3.377zm-39.294 0h3.376v11.269h-3.376zm28.802 0h3.377v11.269h-3.377zm-14.269 0h3.377v11.269h-3.377zM331.882 367.691v3.376h-15.138v-3.376zm1.007-8.752v3.376h-9.598v-3.376z"/></g><g fill="#fff"><path d="M381.352 350.916h49.064v3.376h-49.064zm7.316 16.881h3.376v3.279h-3.376zm41.875-.106v3.376h-9.804v-3.376zm5.275-16.775h3.377v20.157h-3.377zM455.35 367.691v3.376h-18.582v-3.376zm-34.611-7.887h3.377v11.269h-3.377zM452.586 350.916h3.377v20.157h-3.377zm-8.442 0h3.378v20.157h-3.377zm-44.793 8.023v3.376h-17.907v-3.376zm39.294 0v3.376h-17.907v-3.376zM420.738 359.805h3.377v11.269h-3.377zM420.738 359.805h3.377v11.269h-3.377zM420.738 359.805h3.377v11.269h-3.377zm-39.294 0h3.376v11.269h-3.376zm28.802 0h3.377v11.269h-3.377zm-14.269 0h3.377v11.269h-3.377zM412.616 367.691v3.376h-15.138v-3.376zm1.007-8.752v3.376h-9.598v-3.376z"/></g><g fill="#fff"><path d="M462.075 350.916h49.064v3.376h-49.064zm7.316 16.881h3.376v3.279h-3.376zm41.875-.106v3.376h-9.804v-3.376zm5.275-16.775h3.377v20.157h-3.377zM536.073 367.691v3.376h-18.582v-3.376zm-34.611-7.887h3.377v11.269h-3.377zM533.309 350.916h3.377v20.157h-3.377zm-8.442 0h3.378v20.157h-3.378zm-44.793 8.023v3.376h-17.907v-3.376zm39.294 0v3.376h-17.907v-3.376zM501.461 359.805h3.377v11.269h-3.377zM501.461 359.805h3.377v11.269h-3.377zM501.461 359.805h3.377v11.269h-3.377zm-39.294 0h3.376v11.269h-3.376zm28.802 0h3.377v11.269h-3.377zm-14.269 0h3.377v11.269h-3.377zM493.339 367.691v3.376h-15.138v-3.376zm1.007-8.752v3.376h-9.598v-3.376z"/></g><g fill="#fff"><path d="M543.273 350.916h49.064v3.376h-49.064zm7.316 16.881h3.376v3.279h-3.376zm41.875-.106v3.376h-9.804v-3.376zm5.275-16.775h3.377v20.157h-3.377zM617.27 367.691v3.376h-18.582v-3.376zm-34.611-7.887h3.377v11.269h-3.377zM614.507 350.916h3.377v20.157h-3.377zm-8.442 0h3.378v20.157h-3.377zm-44.793 8.023v3.376h-17.907v-3.376zm39.294 0v3.376h-17.907v-3.376zM582.659 359.805h3.377v11.269h-3.377zM582.659 359.805h3.377v11.269h-3.377zM582.659 359.805h3.377v11.269h-3.377zm-39.294 0h3.376v11.269h-3.376zm28.802 0h3.377v11.269h-3.377zm-14.269 0h3.377v11.269h-3.377zM574.536 367.691v3.376h-15.138v-3.376zm1.007-8.752v3.376h-9.598v-3.376z"/></g><g fill="#fff"><path d="M-183.787 350.916h49.063v3.376h-49.064zm7.315 16.881h3.376v3.279h-3.376zm41.875-.106v3.376h-9.804v-3.376zm5.275-16.775h3.377v20.157h-3.377zM-109.79 367.691v3.376h-18.582v-3.376zm-34.611-7.887h3.377v11.269h-3.377zM-112.554 350.916h3.377v20.157h-3.377zm-8.441 0h3.377v20.157h-3.377zm-44.794 8.023v3.376h-17.907v-3.376zm39.294 0v3.376h-17.907v-3.376zM-144.401 359.805h3.377v11.269h-3.377zM-144.401 359.805h3.377v11.269h-3.377zM-144.401 359.805h3.377v11.269h-3.377zm-39.294 0h3.376v11.269h-3.376zm28.802 0h3.377v11.269h-3.377zm-14.269 0h3.377v11.269h-3.377zM-152.524 367.691v3.376h-15.137v-3.376zm1.007-8.752v3.376h-9.598v-3.376z"/></g><g fill="#fff"><path d="M-21.654 143.422h49.064v3.376h-49.064zm7.316 16.881h3.376v3.279h-3.376zm41.875-.106v3.376h-9.804v-3.376zm5.275-16.775h3.377v20.157h-3.377zM52.343 160.197v3.376h-18.582v-3.376zm-34.611-7.887h3.377v11.269h-3.377zM49.58 143.422h3.377v20.157h-3.377zm-8.442 0h3.378v20.157h-3.377zm-44.793 8.023v3.376h-17.907v-3.376zm39.294 0v3.376h-17.907v-3.376zM17.732 152.311h3.377v11.269h-3.377zM17.732 152.311h3.377v11.269h-3.377zM17.732 152.311h3.377v11.269h-3.377zm-39.294 0h3.376v11.269h-3.376zm28.802 0h3.377v11.269h-3.377zm-14.269 0h3.377v11.269h-3.377zM9.609 160.197v3.376h-15.138v-3.376zm1.007-8.752v3.376h-9.598v-3.376z"/></g><g fill="#fff"><path d="M-102.238 143.422h49.064v3.376h-49.064zm7.316 16.881h3.376v3.279h-3.375zm41.875-.106v3.376h-9.804v-3.376zm5.275-16.775h3.377v20.157h-3.377zM-28.24 160.197v3.376h-18.582v-3.376zm-34.611-7.887h3.377v11.269h-3.377zM-31.004 143.422h3.377v20.157h-3.377zm-8.441 0h3.377v20.157h-3.377zm-44.794 8.023v3.376h-17.906v-3.376zm39.294 0v3.376h-17.907v-3.376zM-62.852 152.311h3.377v11.269h-3.377zM-62.852 152.311h3.377v11.269h-3.377zM-62.852 152.311h3.377v11.269h-3.377zm-39.294 0h3.376v11.269h-3.375zm28.802 0h3.377v11.269h-3.377zm-14.27 0h3.378v11.269h-3.377zM-70.975 160.197v3.376h-15.137v-3.376zm1.007-8.752v3.376h-9.598v-3.376z"/></g><g fill="#fff"><path d="M58.264 143.422h49.064v3.376h-49.064zm7.316 16.881h3.376v3.279h-3.376zm41.875-.106v3.376h-9.804v-3.376zm5.275-16.775h3.377v20.157h-3.377zM132.261 160.197v3.376h-18.582v-3.376zm-34.611-7.887h3.377v11.269h-3.377zM129.498 143.422h3.377v20.157h-3.377zm-8.442 0h3.378v20.157h-3.377zm-44.793 8.023v3.376h-17.907v-3.376zm39.294 0v3.376h-17.907v-3.376zM97.65 152.311h3.377v11.269h-3.377zM97.65 152.311h3.377v11.269h-3.377zM97.65 152.311h3.377v11.269h-3.377zm-39.294 0h3.376v11.269h-3.376zm28.802 0h3.377v11.269h-3.377zm-14.269 0h3.377v11.269h-3.377zM89.527 160.197v3.376h-15.138v-3.376zm1.007-8.752v3.376h-9.598v-3.376z"/></g><g fill="#fff"><path d="M622.572 143.422h49.064v3.376h-49.064zm7.316 16.881h3.376v3.279h-3.376zm41.875-.106v3.376h-9.804v-3.376zm5.275-16.775h3.377v20.157h-3.377zM696.569 160.197v3.376h-18.582v-3.376zm-34.611-7.887h3.377v11.269h-3.377zM693.806 143.422h3.377v20.157h-3.377zm-8.442 0h3.378v20.157h-3.377zm-44.793 8.023v3.376h-17.907v-3.376zm39.294 0v3.376h-17.907v-3.376zM661.958 152.311h3.377v11.269h-3.377zM661.958 152.311h3.377v11.269h-3.377zM661.958 152.311h3.377v11.269h-3.377zm-39.294 0h3.376v11.269h-3.376zm28.802 0h3.377v11.269h-3.377zm-14.269 0h3.377v11.269h-3.377zM653.835 160.197v3.376h-15.138v-3.376zm1.007-8.752v3.376h-9.598v-3.376z"/></g><g fill="#fff"><path d="M138.698 143.422h49.064v3.376h-49.064zm7.316 16.881h3.376v3.279h-3.376zm41.875-.106v3.376h-9.804v-3.376zm5.275-16.775h3.377v20.157h-3.377zM212.695 160.197v3.376h-18.582v-3.376zm-34.611-7.887h3.377v11.269h-3.377zM209.932 143.422h3.377v20.157h-3.377zm-8.442 0h3.378v20.157h-3.377zm-44.793 8.023v3.376h-17.907v-3.376zm39.294 0v3.376h-17.907v-3.376zM178.084 152.311h3.377v11.269h-3.377zM178.084 152.311h3.377v11.269h-3.377zM178.084 152.311h3.377v11.269h-3.377zm-39.294 0h3.376v11.269h-3.376zm28.802 0h3.377v11.269h-3.377zm-14.269 0h3.377v11.269h-3.377zM169.961 160.197v3.376h-15.138v-3.376zm1.007-8.752v3.376h-9.598v-3.376z"/></g><g fill="#fff"><path d="M219.421 143.422h49.064v3.376h-49.064zm7.316 16.881h3.376v3.279h-3.376zm41.875-.106v3.376h-9.804v-3.376zm5.275-16.775h3.377v20.157h-3.377zM293.418 160.197v3.376h-18.582v-3.376zm-34.611-7.887h3.377v11.269h-3.377zM290.655 143.422h3.377v20.157h-3.377zm-8.442 0h3.378v20.157h-3.377zm-44.793 8.023v3.376h-17.907v-3.376zm39.294 0v3.376h-17.907v-3.376zM258.807 152.311h3.377v11.269h-3.377zM258.807 152.311h3.377v11.269h-3.377zM258.807 152.311h3.377v11.269h-3.377zm-39.294 0h3.376v11.269h-3.376zm28.802 0h3.377v11.269h-3.377zm-14.269 0h3.377v11.269h-3.377zM250.684 160.197v3.376h-15.138v-3.376zm1.007-8.752v3.376h-9.598v-3.376z"/></g><g fill="#fff"><path d="M300.619 143.422h49.064v3.376h-49.064zm7.316 16.881h3.376v3.279h-3.376zm41.875-.106v3.376h-9.804v-3.376zm5.275-16.775h3.377v20.157h-3.377zM374.616 160.197v3.376h-18.582v-3.376zm-34.611-7.887h3.377v11.269h-3.377zM371.853 143.422h3.377v20.157h-3.377zm-8.442 0h3.378v20.157h-3.377zm-44.793 8.023v3.376h-17.907v-3.376zm39.294 0v3.376h-17.907v-3.376zM340.005 152.311h3.377v11.269h-3.377zM340.005 152.311h3.377v11.269h-3.377zM340.005 152.311h3.377v11.269h-3.377zm-39.294 0h3.376v11.269h-3.376zm28.802 0h3.377v11.269h-3.377zm-14.269 0h3.377v11.269h-3.377zM331.882 160.197v3.376h-15.138v-3.376zm1.007-8.752v3.376h-9.598v-3.376z"/></g><g fill="#fff"><path d="M381.352 143.422h49.064v3.376h-49.064zm7.316 16.881h3.376v3.279h-3.376zm41.875-.106v3.376h-9.804v-3.376zm5.275-16.775h3.377v20.157h-3.377zM455.35 160.197v3.376h-18.582v-3.376zm-34.611-7.887h3.377v11.269h-3.377zM452.586 143.422h3.377v20.157h-3.377zm-8.442 0h3.378v20.157h-3.377zm-44.793 8.023v3.376h-17.907v-3.376zm39.294 0v3.376h-17.907v-3.376zM420.738 152.311h3.377v11.269h-3.377zM420.738 152.311h3.377v11.269h-3.377zM420.738 152.311h3.377v11.269h-3.377zm-39.294 0h3.376v11.269h-3.376zm28.802 0h3.377v11.269h-3.377zm-14.269 0h3.377v11.269h-3.377zM412.616 160.197v3.376h-15.138v-3.376zm1.007-8.752v3.376h-9.598v-3.376z"/></g><g fill="#fff"><path d="M462.075 143.422h49.064v3.376h-49.064zm7.316 16.881h3.376v3.279h-3.376zm41.875-.106v3.376h-9.804v-3.376zm5.275-16.775h3.377v20.157h-3.377zM536.073 160.197v3.376h-18.582v-3.376zm-34.611-7.887h3.377v11.269h-3.377zM533.309 143.422h3.377v20.157h-3.377zm-8.442 0h3.378v20.157h-3.378zm-44.793 8.023v3.376h-17.907v-3.376zm39.294 0v3.376h-17.907v-3.376zM501.461 152.311h3.377v11.269h-3.377zM501.461 152.311h3.377v11.269h-3.377zM501.461 152.311h3.377v11.269h-3.377zm-39.294 0h3.376v11.269h-3.376zm28.802 0h3.377v11.269h-3.377zm-14.269 0h3.377v11.269h-3.377zM493.339 160.197v3.376h-15.138v-3.376zm1.007-8.752v3.376h-9.598v-3.376z"/></g><g fill="#fff"><path d="M543.273 143.422h49.064v3.376h-49.064zm7.316 16.881h3.376v3.279h-3.376zm41.875-.106v3.376h-9.804v-3.376zm5.275-16.775h3.377v20.157h-3.377zM617.27 160.197v3.376h-18.582v-3.376zm-34.611-7.887h3.377v11.269h-3.377zM614.507 143.422h3.377v20.157h-3.377zm-8.442 0h3.378v20.157h-3.377zm-44.793 8.023v3.376h-17.907v-3.376zm39.294 0v3.376h-17.907v-3.376zM582.659 152.311h3.377v11.269h-3.377zM582.659 152.311h3.377v11.269h-3.377zM582.659 152.311h3.377v11.269h-3.377zm-39.294 0h3.376v11.269h-3.376zm28.802 0h3.377v11.269h-3.377zm-14.269 0h3.377v11.269h-3.377zM574.536 160.197v3.376h-15.138v-3.376zm1.007-8.752v3.376h-9.598v-3.376z"/></g><g fill="#fff"><path d="M-183.787 143.422h49.063v3.376h-49.064zm7.315 16.881h3.376v3.279h-3.376zm41.875-.106v3.376h-9.804v-3.376zm5.275-16.775h3.377v20.157h-3.377zM-109.79 160.197v3.376h-18.582v-3.376zm-34.611-7.887h3.377v11.269h-3.377zM-112.554 143.422h3.377v20.157h-3.377zm-8.441 0h3.377v20.157h-3.377zm-44.794 8.023v3.376h-17.907v-3.376zm39.294 0v3.376h-17.907v-3.376zM-144.401 152.311h3.377v11.269h-3.377zM-144.401 152.311h3.377v11.269h-3.377zM-144.401 152.311h3.377v11.269h-3.377zm-39.294 0h3.376v11.269h-3.376zm28.802 0h3.377v11.269h-3.377zm-14.269 0h3.377v11.269h-3.377zM-152.524 160.197v3.376h-15.137v-3.376zm1.007-8.752v3.376h-9.598v-3.376z"/></g><path d="M-68.842 339.466h6.048v10.504h-6.048zm160.517 0h6.048v10.504h-6.048zm-283.678 0h6.048v10.504h-6.048zm81.467 0h6.048v10.504h-6.048zm80.887 0h6.048v10.504h-6.048zm40.021 0h6.048v10.504h-6.048zm40.857 0h6.048v10.504h-6.048zm80.467 0h6.048v10.504h-6.048zm203.036 0h6.048v10.504h-6.048zm-162.181 0h6.048v10.504h-6.048zm40.031 0h6.048v10.504h-6.048zm40.434 0h6.048v10.504h-6.048zm40.444 0h6.048v10.504h-6.048zm323.111 0h6.048v10.504h-6.048zm-242.646 0h6.048v10.504h-6.048zm40.857 0h6.048v10.504h-6.048zm41.28 0h6.048v10.504h-6.048zm38.772 0h6.048v10.504h-6.048zm41.27 0h6.048v10.504h-6.048zm40.444 0h6.048v10.504h-6.048zm119.662 0h6.048v10.504h-6.048zm-38.774 0h6.048v10.504h-6.048zm-808.83 0h6.048v10.504h-6.048z" fill="#d90000"/><path d="M-68.842 162.592h6.048v10.504h-6.048zm160.517 0h6.048v10.504h-6.048zm-283.678 0h6.048v10.504h-6.048zm81.467 0h6.048v10.504h-6.048zm80.887 0h6.048v10.504h-6.048zm40.021 0h6.048v10.504h-6.048zm40.857 0h6.048v10.504h-6.048zm80.467 0h6.048v10.504h-6.048zm203.036 0h6.048v10.504h-6.048zm-162.181 0h6.048v10.504h-6.048zm40.031 0h6.048v10.504h-6.048zm40.434 0h6.048v10.504h-6.048zm40.444 0h6.048v10.504h-6.048zm323.111 0h6.048v10.504h-6.048zm-242.646 0h6.048v10.504h-6.048zm40.857 0h6.048v10.504h-6.048zm41.28 0h6.048v10.504h-6.048zm38.772 0h6.048v10.504h-6.048zm41.27 0h6.048v10.504h-6.048zm40.444 0h6.048v10.504h-6.048zm119.662 0h6.048v10.504h-6.048zm-38.774 0h6.048v10.504h-6.048zm-808.83 0h6.048v10.504h-6.048z" fill="#239e3f"/><g fill="#da0000"><path d="M279.746 197.484c8.452 10.36 34.508 67.646-15.729 105.171-23.616 17.774-8.993 18.672-8.294 21.66 37.962-20.164 50.361-47.485 50.073-71.958-.289-24.474-13.264-46.098-26.05-54.868zM284.771 194.821c18.747 9.599 59.547 57.874 15.634 112.333 27.285-6.056 61.975-86.408-15.634-112.333zm-57.575 0c-18.747 9.599-59.547 57.874-15.634 112.333-27.285-6.056-61.975-86.408 15.634-112.333zM232.15 197.484c-8.452 10.36-34.508 67.646 15.729 105.171 23.616 17.774 8.993 18.672 8.294 21.66-37.962-20.164-50.361-47.485-50.073-71.958.289-24.474 13.264-46.098 26.05-54.868zM304.142 319.094c-14.859.235-33.591-2.047-47.482-9.266l6.477 11.7c13.249 1.222 31.532 2.734 41.005-2.433zm-94.965 0c14.859.235 33.591-2.047 47.482-9.266l-6.477 11.7c-13.249 1.222-31.532 2.734-41.005-2.433zm27.255-138.701c3.01 8.001 10.908 9.164 19.362 4.453 6.161 3.697 15.688 3.931 18.974-4.066 2.498 19.782-18.304 15.102-19.079 11.23-7.744 7.486-22.162 3.162-19.258-11.617zM256.35 331.551l7.812-8.929 1.117-120.166-9.3-8.185-9.3 7.812 1.86 120.909 7.812 8.556z"/></g></g></svg>