<svg xmlns="http://www.w3.org/2000/svg" height="512" width="512" viewBox="0 0 512 512"><style>.prefix__st1{fill:#da0000}.prefix__st3{fill:none;stroke:#fff;stroke-width:3;stroke-linecap:square}</style><path id="prefix___x35_1" fill="#fff" d="M-85.3 0h682.7v512H-85.3z"/><path id="prefix___x34_9" class="prefix__st1" d="M-85.3 341.3h682.7V512H-85.3z"/><path id="prefix___x34_9_1_" fill="#239f40" d="M-85.3 0h682.7v170.7H-85.3z"/><path id="prefix___x34_8" class="prefix__st3" d="M220.3 144.7H268m-47.7 16v-8h15.9v8h15.9v-8h-7.9m23.7 8H260v-8h15.9v-8m-.1 8v8h15.9v-15.9m-8-.1v15.9m-55.4.1"/><path id="prefix___x34_7" class="prefix__st3" d="M220.3 169.5h31.8m7.8 0h31.8"/><path id="prefix___x34_6" class="prefix__st3" d="M220.3 351.3H268m-47.7 16v-8h15.9v8h15.9v-8h-7.9m23.7 8H260v-8h15.9v-8m-.1 8v8h15.9v-15.9m-8-.1v15.9m-55.4.1"/><path id="prefix___x34_5" class="prefix__st3" d="M220.3 342.5h31.8m7.8 0h31.8"/><path id="prefix___x34_4" class="prefix__st3" d="M299.6 144.7h47.7m-47.7 16v-8h15.9v8h15.9v-8h-7.9m23.8 8h-7.9v-8h15.8v-8m0 8v8h15.9v-15.9m-7.9-.1v15.9m-55.6.1"/><path id="prefix___x34_3" class="prefix__st3" d="M299.6 169.5h31.8m7.9 0h31.8"/><path id="prefix___x34_2" class="prefix__st3" d="M299.6 351.3h47.7m-47.7 16v-8h15.9v8h15.9v-8h-7.9m23.8 8h-7.9v-8h15.8v-8m0 8v8h15.9v-15.9m-7.9-.1v15.9m-55.6.1"/><path id="prefix___x34_1" class="prefix__st3" d="M299.6 342.5h31.8m7.9 0h31.8"/><path id="prefix___x34_0" class="prefix__st3" d="M61.5 144.7h47.7m-47.7 16v-8h15.9v8h15.9v-8h-8m23.8 8h-7.9v-8h15.9v-8m0 8v8H133v-15.9m-8-.1v15.9m-55.6.1"/><path id="prefix___x33_9" class="prefix__st3" d="M61.5 169.5h31.8m7.9 0H133"/><path id="prefix___x33_8" class="prefix__st3" d="M61.5 351.3h47.7m-47.7 16v-8h15.9v8h15.9v-8h-8m23.8 8h-7.9v-8h15.9v-8m0 8v8H133v-15.9m-8-.1v15.9m-55.6.1"/><path id="prefix___x33_7" class="prefix__st3" d="M61.5 342.5h31.8m7.9 0H133"/><path id="prefix___x33_6" class="prefix__st3" d="M140.9 144.7h47.7m-47.7 16v-8h15.9v8h15.9v-8h-7.9m23.7 8h-7.9v-8h15.9v-8m0 8v8h15.9v-15.9m-8-.1v15.9m-55.6.1"/><path id="prefix___x33_5" class="prefix__st3" d="M140.9 169.5h31.8m7.9 0h31.8"/><path id="prefix___x33_4" class="prefix__st3" d="M140.9 351.3h47.7m-47.7 16v-8h15.9v8h15.9v-8h-7.9m23.7 8h-7.9v-8h15.9v-8m0 8v8h15.9v-15.9m-8-.1v15.9m-55.6.1"/><path id="prefix___x33_3" class="prefix__st3" d="M140.9 342.5h31.8m7.9 0h31.8"/><path id="prefix___x33_2" class="prefix__st3" d="M537.8 144.7h47.7m-47.7 16v-8h15.9v8h15.9v-8h-7.9m23.7 8h-7.9v-8h15.9v-8m0 8v8m-47.7 0"/><path id="prefix___x33_1" class="prefix__st3" d="M537.8 169.5h31.8m7.9 0h16.9"/><path id="prefix___x33_0" class="prefix__st3" d="M537.8 351.3h47.7m-47.7 16v-8h15.9v8h15.9v-8h-7.9m23.7 8h-7.9v-8h15.9v-8m0 8v8m-47.7 0"/><path id="prefix___x32_9" class="prefix__st3" d="M537.8 342.5h31.8m7.9 0H595"/><path id="prefix___x32_4" class="prefix__st3" d="M379 144.7h47.7m-47.7 16v-8h15.9v8h15.9v-8h-7.9m23.8 8h-7.9v-8h15.9v-8m-.1 8v8h15.9v-15.9m-7.9-.1v15.9m-55.6.1"/><path id="prefix___x32_3" class="prefix__st3" d="M379 169.5h31.8m8 0h31.8"/><path id="prefix___x32_2" class="prefix__st3" d="M379 351.3h47.7m-47.7 16v-8h15.9v8h15.9v-8h-7.9m23.8 8h-7.9v-8h15.9v-8m-.1 8v8h15.9v-15.9m-7.9-.1v15.9m-55.6.1"/><path id="prefix___x32_1" class="prefix__st3" d="M379 342.5h31.8m8 0h31.8"/><path id="prefix___x32_0" class="prefix__st3" d="M458.5 144.7h47.7m-47.7 16v-8h15.9v8h15.9v-8h-7.9m23.6 8h-7.9v-8H514v-8m0 8v8h15.9v-15.9m-8-.1v15.9m-55.6.1"/><path id="prefix___x31_9" class="prefix__st3" d="M458.5 169.5h31.8m7.8 0h31.8"/><path id="prefix___x31_8" class="prefix__st3" d="M458.5 351.3h47.7m-47.7 16v-8h15.9v8h15.9v-8h-7.9m23.6 8h-7.9v-8H514v-8m0 8v8h15.9v-15.9m-8-.1v15.9m-55.6.1"/><path id="prefix___x31_7" class="prefix__st3" d="M458.5 342.5h31.8m7.8 0h31.8"/><path id="prefix___x31_6" class="prefix__st3" d="M-17.8 144.7h47.7m-47.7 16v-8h15.9v8h15.8v-8H6m23.8 8h-7.9v-8h15.9v-8m-.1 8v8h15.9v-15.9m-7.9-.1v15.9m-55.6.1"/><path id="prefix___x31_5" class="prefix__st3" d="M-17.8 169.5h31.7m8 0h31.8"/><path id="prefix___x31_4" class="prefix__st3" d="M-17.8 351.3h47.7m-47.7 16v-8h15.9v8h15.8v-8H6m23.8 8h-7.9v-8h15.9v-8m-.1 8v8h15.9v-15.9m-7.9-.1v15.9m-55.6.1"/><path id="prefix___x31_3" class="prefix__st3" d="M-17.8 342.5h31.7m8 0h31.8"/><path id="prefix___x38_" class="prefix__st3" d="M-82.9 144.7h33.3m-31.8 8v8h15.9v-8h-7.9m23.8 8h-8v-8h15.9v-8m0 8v8h15.9v-15.9m-7.9-.1v15.9"/><path id="prefix___x37_" class="prefix__st3" d="M-82.9 169.5h17.4m7.9 0h31.8"/><path id="prefix___x36_" class="prefix__st3" d="M-83.3 351.3h33.7m-31.8 8v8h15.9v-8h-7.9m23.8 8h-8v-8h15.9v-8m0 8v8h15.9v-15.9m-7.9-.1v15.9"/><path id="prefix___x35_" class="prefix__st3" d="M-83.3 342.5h17.8m7.9 0h31.8"/><path id="prefix___x34_" class="prefix__st1" d="M282 210.2s46.2 36.3 12.3 88.2c31.9-19.5 34.7-73.3-12.3-88.2z"/><path id="prefix___x33_" class="prefix__st1" d="M256 205.1c-7.4 8.3-19.9 0-15.7-9 7.6 13.7 15.7 2.7 15.7 2.7s8 11 15.7-2.7c4.2 9-8.3 17.3-15.7 9z"/><path id="prefix___x32_" class="prefix__st1" d="M256 317.9l-5.2-6.9s-12.4 4.2-28.8-1.6c13.4 0 20.9-2.3 23.7-3.7 0 0-30.4-16.4-29.8-49.9 1.8-33.8 19.7-44.2 19.7-44.2s-32 46.7 15 85.8l-2-48.3v-35.5c2.7-.6 7.6-6.3 7.6-6.3s4.9 5.7 7.6 6.3V249l-2 48.3c46.9-39 15-85.8 15-85.8s17.9 10.2 19.7 44.2c.6 33.5-29.8 49.9-29.8 49.9 2.8 1.4 10.2 3.7 23.7 3.7-16.3 5.8-28.8 1.6-28.8 1.6l-5.6 7z"/><path id="prefix___x31_" class="prefix__st1" d="M230 210.2s-46.2 36.3-12.3 88.2c-31.9-19.5-34.7-73.3 12.3-88.2z"/></svg>
