<svg xmlns="http://www.w3.org/2000/svg" height="512" width="512" viewBox="0 0 512 512"><style>.prefix__st3,.prefix__st4,.prefix__st5{fill:#f9dd16;stroke:#000;stroke-width:.51;stroke-miterlimit:133.3333}.prefix__st4,.prefix__st5{fill:#ff0016;stroke-width:.255}.prefix__st5{fill:#0051ba;stroke-width:5.300000e-02}.prefix__st6,.prefix__st7{stroke-miterlimit:120}.prefix__st6{stroke:#000;fill:#f9dd16;stroke-width:.459}.prefix__st7{fill:#ff0016;stroke-width:.2295}.prefix__st7,.prefix__st8,.prefix__st9{stroke:#000}.prefix__st8{stroke-miterlimit:120;fill:#0051ba;stroke-width:4.770000e-02}.prefix__st9{fill:#f9dd16;stroke-width:.459}.prefix__st10,.prefix__st11{fill:#ff0016;stroke:#000;stroke-width:7.650000e-03}.prefix__st11{fill:#0051ba;stroke-width:1.590000e-03}</style><path fill="#fff" d="M-170.7 0h853.3v512h-853.3z"/><path d="M-170.7 0l853.3 512m-853.3 0L682.7 0" stroke="#df112d" stroke-width="66.667" stroke-miterlimit="133.333"/><path d="M300.7 76.6c11 44.4 5 99.2-44.6 129.7-49.5-30.4-55.5-85.3-44.6-129.7 11.7-10.6 64.7-17.2 89.2 0h0z" fill="#e8112d" stroke="#000" stroke-width=".51" stroke-miterlimit="133.333"/><path class="prefix__st3" d="M256 67.7c18.2 0 35.1 4.8 45 11 2-15.3 8.9-30.6 17.1-42.2-8.5-.2-12.4 4.4-12.5 9.1-2.1-6.1-10.5-5.7-13.1-2.4 9.3 6.3 2.1 17.5-6.3 15.2-4-1.1-6.1-3.9-6.8-7.9 2.5-.2 4.5-2.3 4.3-4.9-.2-2.5-2.3-4.5-4.9-4.3s-4.5 2.3-4.3 4.9c.1 1.8 1.3 3.3 2.9 4-2.7 4.4-7.5 5.7-10.9 4.7-4.5-1.2-6.3-5.3-6.3-8.8 0-9.3 8.9-10.7 11.6-9.1-.2-6.2-10-11.2-13-6.1 3.4-6.1 3.2-14.6-2.9-20.3-6.1 5.7-6.2 14.2-2.8 20.3-3-5.2-12.8-.2-13 6.1 2.7-1.6 11.6-.2 11.6 9.1 0 3.6-1.9 7.6-6.3 8.8-3.4 1-8.2-.3-10.9-4.7 2.4-.9 3.5-3.6 2.6-6-.9-2.4-3.6-3.5-6-2.6s-3.5 3.6-2.6 6c.6 1.7 2.2 2.8 4 2.9-.7 4-2.8 6.8-6.8 7.9-8.5 2.3-15.7-8.9-6.3-15.2-2.6-3.3-10.9-3.6-13.1 2.4-.1-4.7-3.9-9.3-12.5-9.1 8.2 11.6 15.1 26.9 17.1 42.2 10-6.2 26.9-11 45.1-11z"/><path class="prefix__st3" d="M293.7 111.2c-1.1.3-1.1 1.7-1.7 1.7 2.8-.1 4.2-.9 5.1-2.3-.6.6-.1 1.7-.3 1.9 2.1-.7 3.1-2.5 2.4-3.7.5.7 1.8 1 2.2 1.1-1.5-1.1-.4-3.8-2.8-5.1.8-.1 2.3.8 2.7 1.9-.4-2.4-.7-3.9-2.7-5.2.2.2 1.3.4 1.8 0-1.3-.8-1.6-2.1-1.5-2.9.1-1.2-.6-1.4-2.1-1-1.3.3-4.3.5-6.1.5-3.7 0-6.8 0-9.9-2.1 4.5 1.9 10.3-2.1 10.3-5.4 0-3.7-4.5-6.6-13.6-4.6s-20.2 1.1-20.2-1.9 7.9-3.4 12-2.8c4.1.6 7 1 14.6-1.7-1.9.7-7.9.9-12.7-.4-4.8-1.4-16.6-1.4-16.7 5-.1 6.4 12.6 5.8 23.5 4.2 6.4-.9 9.7-.3 9.7 1.8 0 2-5.8 2.8-10.3 2.3-4.5-.5-9.1-.4-14.4 1.1-4.4 1.3-7.5 0-12.4.8-2.4.4-8.1 0-11-4.7-1.8 1.3-7 3.9-7.9 6.4-1.3 2.4-.4 4.7 1.3 7 2.1 2.9-1 2.5-3.3 2.6-3.1.1-7.2-.3-9.4-2.8-1.9-2.2-4.4-3.9-6.5-2.3-1 .8 0 1.9.8 1.6.8-.3 1.8.3 2.7.7-1.4-.6-2.9-.1-3.5.4-.8.7.2 2.1 1.2 1.7.8-.4 2.4-.7 3.4.3-1.1-.2-2.3-.2-2.9.4-.6.6-.1 1.5 1.1 1.4 2-.1 2.5 1.3 4.4 1-1.2.2-1.9.8-2.2 1.3 1.8-.8 3.8 1.4 6.2.9-.9.4-2.4 1.3-2.4 2 1.4-1.6 10.9 1.3 11.1-2.3.3.7.2 1.8-.5 2.8 1.2-.7 5.1-1 6.3-3.8.1.8-.1 1.9-.8 2.2 1.3.4 2.9-.5 4.6-3 .7-1 .8-1.7.7-2.4 1.7.1 2.9-.4 4.2-1.5 1.4-1.1 2.8.9 5.1-.5 2.3-1.5 4.3-.2 5.5-.9 1.3-.7 3 .3 4.3-.6 1.4-.8 3.5.4 5.7-1.4 3.5 1.3 7.7 3.7 17.8 1.8 5.8-1.1 7.6.9 7.6 3.6 0 1.8-1.1 2-1.9 2-3.2.2-4.6-1.2-5.9-.8-.9.3-1.4 1.7-.1 2.2-1 .5-.9 1.5-.4 1.9.5.4 1.9 0 2.8-.4-1.2.5-2.4 1.5-1.7 2.5.4.6 1.5 1.1 2.5-.2 1.2-1.4 3-2.4 4.2-2.3zM229.4 83.7c-2.9-1.2-3.9-1.2-3.2 1.1.3 1 1 2.5 1.7 3.1-.1-1 .3-3.7 1.5-4.2z"/><path class="prefix__st3" d="M238.5 83.7c2.9-1.2 3.9-1.2 3.2 1.1-.3 1-1 2.5-1.7 3.1 0-1-.4-3.7-1.5-4.2z"/><path class="prefix__st3" d="M233.9 82.1c5.5 0 6.2 2.6 6.2 5.8 0 3.5-1.9 2.3-3 6.8-.4 1.8-1.8 1.9-3.2 1.9-1.4 0-2.8-.1-3.2-1.9-1.1-4.5-2.9-3.3-3-6.8 0-3.2.7-5.8 6.2-5.8z"/><path class="prefix__st3" d="M219.7 94.9c-1.4-.8-2.3-.3-2.9-.1 1.8.5 1.9 2.8 6.1 3.9-.9-.3-1.5.3-2.4-.2 1.7 1.4 3.7 2.9 7.7 3 2.3 0 .7 1.2-.8.5 1.5 1.6 4.6.3 6.5 3.2.4-2.2-3.6-5.8-1.8-8.4-5.6-.2-6.1-3.4-9.3-5.8-2.6-2-2.9-4.1-4-7.9-.5-1.7-2.6-2.8-3.7-2.4-1 .4-1.3 1.2-.5 1.9.8.6 1.9.7 2.2 2.4-1.1-1.3-2.8-1.8-3.5-1-.5.5-.3 1.7.8 1.8 1.7.2.5 1.8 2.4 3.4-1.7-1.9-3.2-2.1-4.1-1.1-.5.6 0 1.7 1.2 1.6 1.6-.2 3.5 4.1 6.1 5.2zM265.1 111c-.9.2-.6 1.6-1.8 1.7 2.9 0 4.3-.7 5.7-1.8-.6.4-.9 1.3-.9 1.8 1.5-1.3 5.1-1.4 7-1 1.9.4 2.2-.5 2.9-1.7.7-1.2-.3-1.9-1.2-2.8-.9-.9-1.2-2.2-.9-4.4-5-6.7-14-3.4-14.1-.5 3.2 3.8 3.7 3.3 6.4 3.9 2.7.5 4.4.5 2.6 2-.6.5-3.2.3-5.3.4-4.6.2-6.6-3.1-8-1.4-1.1 1.4 0 2.1 2.3 2-1.6 0-3.6-.1-3.3 1.4.6 2.5 2.9-.5 3.9.6-.8-.2-2 .3-2 1s1.7 1.7 3.7.1c.8-.9 2.2-1.3 3-1.3zM269 100.8c-1.6-.6-3.1-1-5-.6M244.4 100.1c-1.3 2.9-.5 4.3-.3 5.6M230.1 86.4c.9.5 1.4-.8 2.8.5-.4-.4-.8 1.1-1.9.1M237.7 86.4c-.9.5-1.4-.8-2.8.5.4-.4.8 1.1 1.9.1"/><path class="prefix__st3" d="M234.9 86.9c-.3.3-.3-.2-.1 1 .4 2.3 1 3.3-.9 3.3s-1.3-1.1-.9-3.3c.2-1.2.2-.8-.1-1"/><g><path class="prefix__st4" d="M233.9 95.6c1.5 0 2.3 0 2.1-2.1-.1-.8 1-1.2.6-2.5.4 1.7-2.7 1.5-2.7.8 0 .8-3.2.9-2.7-.8-.4 1.4.7 1.7.6 2.5-.2 2.1.6 2.1 2.1 2.1zM232.6 91.4l-3.6-1M232.6 91.6h-4M232.6 91.8l-3.4.9M235.3 91.4l3.6-1M235.3 91.6h4M235.2 91.8l3.4.9"/></g><g><path class="prefix__st5" d="M215.4 80.7c-1-1.3-3.6-.2-3.7 1.4.9-1 2.3.5 3.1.1.6-.2 1-1 .6-1.5zM214.1 83.8c-1-1.3-3.6-.2-3.7 1.4.9-1 2.3.5 3.1.1.5-.2 1-1 .6-1.5zM213.4 87.9c-1.2-1.2-3.6.2-3.5 1.8.8-1.1 2.3.2 3.1-.2.5-.3.9-1.1.4-1.6zM214.6 100.6c-1.3-1-3.6.6-3.3 2.2.6-1.2 2.4-.1 3-.6.6-.3.9-1.2.3-1.6zM214.6 103.4c-1.6-.6-3.2 1.7-2.4 3.1.2-1.3 2.2-.8 2.7-1.5.3-.4.3-1.3-.3-1.6zM216.6 105.5c-1.6-.6-3.2 1.7-2.4 3.1.2-1.3 2.2-.8 2.7-1.5.3-.4.3-1.4-.3-1.6zM257.4 109.5c-1.6-.6-3.2 1.7-2.4 3.1.2-1.3 2.2-.8 2.7-1.5.3-.4.3-1.3-.3-1.6zM259.5 111.4c-1.6-.4-3 2.1-2.1 3.4.1-1.4 2.1-1 2.5-1.8.3-.5.2-1.4-.4-1.6zM258 106.9c-1.4-.8-3.5 1.1-2.9 2.6.4-1.3 2.3-.4 2.9-1 .4-.4.6-1.3 0-1.6zM287 110.1c-1.6-.4-3 2.1-2.1 3.4.1-1.4 2.1-1 2.5-1.8.4-.5.3-1.4-.4-1.6zM287 107.6c-1.5-.8-3.4 1.2-2.8 2.7.4-1.3 2.3-.5 2.9-1.1.4-.4.5-1.3-.1-1.6zM288.2 112.4c-1.6-.3-2.9 2.2-1.9 3.4 0-1.4 2.1-1.1 2.5-1.9.2-.4 0-1.3-.6-1.5zM234 94.4c1 0 1.4.3 1.4 2.1 0 3.9 0 5.6-1.3 5.6s-1.2-1.6-1.2-4.5c0-1.5 0-2.2-.3-2.1.1-1 .5-1.1 1.4-1.1z"/></g><g id="prefix__leopard_1_"><path class="prefix__st6" d="M288.6 147.7c-1 .2-1 1.5-1.5 1.5 2.6-.1 3.8-.8 4.6-2.1-.6.5-.1 1.5-.3 1.7 1.9-.7 2.8-2.3 2.1-3.3.4.6 1.6.9 2 1-1.3-1-.4-3.4-2.5-4.6.7 0 2.1.8 2.4 1.7-.3-2.1-.7-3.5-2.4-4.7.2.2 1.2.4 1.6 0-1.1-.7-1.5-1.9-1.4-2.6.1-1.1-.6-1.3-1.9-.9-1.2.3-3.9.5-5.5.5-3.3 0-6.2 0-8.9-1.9 4.1 1.7 9.3-1.9 9.3-4.8 0-3.3-4-6-12.2-4.2-8.2 1.8-18.1 1-18.1-1.7s7.1-3.1 10.8-2.5c3.7.6 6.3.9 13.2-1.5-1.7.7-7.1.8-11.5-.4-4.3-1.2-14.9-1.2-15 4.5-.1 5.7 11.3 5.2 21.2 3.8 5.7-.8 8.7-.3 8.7 1.6 0 1.8-5.3 2.5-9.3 2.1-4-.5-8.2-.4-13 1-4 1.2-6.8 0-11.2.8-2.1.4-7.3 0-9.9-4.2-1.6 1.1-6.3 3.5-7.1 5.8-1.1 2.1-.4 4.2 1.1 6.3 1.9 2.6-.9 2.2-3 2.3-2.8.1-6.5-.3-8.4-2.5-1.7-1.9-4-3.5-5.8-2.1-.9.7 0 1.7.7 1.4.7-.3 1.6.3 2.4.6-1.3-.5-2.6-.1-3.2.4-.7.7.2 1.9 1.1 1.5.7-.4 2.1-.6 3.1.3-1-.2-2.1-.2-2.6.4-.5.5-.1 1.3 1 1.3 1.8-.1 2.2 1.2 4 .9-1.1.1-1.7.7-2 1.1 1.6-.8 3.5 1.3 5.6.8-.8.3-2.2 1.2-2.2 1.8 1.3-1.5 9.8 1.1 10-2.1.2.7.2 1.6-.5 2.5 1.1-.7 4.6-.9 5.7-3.4.1.8 0 1.7-.7 2 1.1.4 2.6-.5 4.1-2.7.6-.9.7-1.5.6-2.2 1.5.1 2.6-.3 3.8-1.3 1.2-1 2.5.8 4.6-.5 2.1-1.3 3.9-.2 5-.8 1.1-.7 2.7.2 3.9-.5 1.2-.8 3.1.4 5.1-1.2 3.2 1.2 6.9 3.3 16 1.7 5.2-1 6.9.8 6.9 3.2 0 1.6-1 1.8-1.7 1.8-2.9.2-4.2-1.1-5.3-.7-.8.3-1.2 1.5-.1 2-.9.5-.8 1.3-.3 1.7.5.3 1.7 0 2.5-.4-1.1.5-2.2 1.3-1.5 2.2.4.5 1.3 1 2.2-.2 1-1.4 2.6-2.4 3.7-2.2zM230.7 122.8c-2.6-1.1-3.5-1.1-2.9 1 .3.9.9 2.2 1.5 2.8 0-.8.4-3.3 1.4-3.8zM238.9 122.8c2.6-1.1 3.5-1.1 2.9 1-.3.9-.9 2.2-1.5 2.8 0-.8-.3-3.3-1.4-3.8z"/><path class="prefix__st6" d="M234.8 121.4c5 0 5.6 2.3 5.6 5.3 0 3.1-1.7 2.1-2.7 6.1-.4 1.6-1.6 1.7-2.9 1.7-1.3 0-2.5-.1-2.9-1.7-1-4-2.7-3-2.7-6.1 0-3 .6-5.3 5.6-5.3z"/><path class="prefix__st6" d="M222 132.9c-1.3-.8-2.1-.2-2.6-.1 1.6.4 1.7 2.5 5.5 3.5-.8-.2-1.3.2-2.1-.2 1.6 1.2 3.3 2.6 7 2.7 2 0 .6 1.1-.7.5 1.4 1.4 4.1.3 5.9 2.9.3-2-3.2-5.2-1.6-7.5-5.1-.2-5.5-3-8.4-5.3-2.4-1.8-2.6-3.7-3.6-7.1-.5-1.6-2.3-2.5-3.3-2.2-.9.3-1.2 1.1-.5 1.7.8.6 1.7.7 1.9 2.1-1-1.2-2.5-1.6-3.2-.9-.4.5-.3 1.5.7 1.6 1.5.2.4 1.6 2.2 3.1-1.5-1.7-2.9-1.9-3.7-.9-.5.6 0 1.6 1.1 1.5 1.3-.2 3.1 3.7 5.4 4.6zM262.9 147.5c-.8.1-.6 1.5-1.6 1.6 2.6 0 3.9-.6 5.1-1.6-.6.3-.8 1.2-.8 1.6 1.4-1.2 4.6-1.3 6.3-.9 1.7.3 2-.5 2.6-1.6.6-1.1-.2-1.7-1.1-2.5-.8-.8-1-2-.8-4-4.5-6-12.6-3.1-12.7-.5 2.9 3.4 3.3 3 5.7 3.5 2.4.5 3.9.5 2.3 1.8-.6.5-2.9.2-4.7.3-4.1.2-6-2.8-7.2-1.3-1 1.3 0 1.9 2.1 1.8-1.4 0-3.3-.1-3 1.2.5 2.2 2.6-.4 3.5.5-.7-.2-1.8.3-1.8.9 0 .7 1.6 1.5 3.3.1.8-.6 2-.9 2.8-.9zM266.4 138.3c-1.5-.5-2.8-.9-4.5-.5M244.3 137.6c-1.2 2.6-.5 3.9-.3 5.1M231.4 125.3c.8.4 1.3-.8 2.5.5-.3-.4-.8 1-1.7.1M238.2 125.3c-.8.4-1.3-.8-2.5.5.3-.4.8 1 1.7.1"/><path class="prefix__st6" d="M235.7 125.8c-.3.2-.3-.2-.1.9.4 2 .9 3-.8 3-1.7 0-1.2-1-.8-3 .2-1.1.2-.7-.1-.9"/><g><path class="prefix__st7" d="M234.8 133.6c1.3 0 2.1 0 1.9-1.9-.1-.8.9-1.1.6-2.3.4 1.5-2.5 1.4-2.5.7 0 .7-2.8.8-2.5-.7-.4 1.2.6 1.5.6 2.3-.2 1.9.6 1.9 1.9 1.9zM233.6 129.8l-3.2-.9M233.6 130H230M233.6 130.1l-3.1.8M236 129.8l3.2-.9M236 130h3.6M236 130.1l3.1.8"/></g><g><path class="prefix__st8" d="M218.2 120.2c-.9-1.2-3.3-.2-3.3 1.3.8-.9 2.1.4 2.8.1.4-.2.8-1 .5-1.4zM216.9 122.9c-.9-1.2-3.3-.2-3.3 1.3.8-.9 2.1.4 2.8.1.5-.2.9-.9.5-1.4zM216.3 126.6c-1.1-1.1-3.3.2-3.2 1.6.7-1 2.1.2 2.8-.2.5-.2.9-.9.4-1.4zM217.4 138.1c-1.2-.9-3.2.6-3 2 .6-1.1 2.1-.1 2.7-.5.6-.3.8-1.1.3-1.5zM217.4 140.6c-1.4-.5-2.9 1.5-2.2 2.8.2-1.2 2-.7 2.5-1.3.3-.4.3-1.3-.3-1.5zM219.2 142.5c-1.4-.5-2.9 1.5-2.2 2.8.2-1.2 2-.7 2.5-1.3.3-.5.3-1.3-.3-1.5zM255.9 146.1c-1.4-.5-2.9 1.5-2.2 2.8.2-1.2 2-.7 2.5-1.3.3-.4.3-1.3-.3-1.5zM257.8 147.8c-1.5-.4-2.7 1.9-1.9 3 .1-1.2 1.9-.9 2.3-1.6.3-.4.2-1.2-.4-1.4zM256.5 143.7c-1.3-.7-3.1 1-2.6 2.4.4-1.2 2.1-.4 2.6-.9.3-.3.5-1.2 0-1.5zM282.6 146.7c-1.5-.4-2.7 1.9-1.9 3 .1-1.2 1.9-.9 2.3-1.6.3-.5.2-1.3-.4-1.4zM282.6 144.4c-1.3-.7-3.1 1.1-2.6 2.5.4-1.2 2.1-.4 2.6-1 .4-.4.6-1.3 0-1.5zM283.6 148.7c-1.5-.3-2.6 2-1.7 3.1 0-1.2 1.9-1 2.2-1.7.3-.4.1-1.3-.5-1.4zM234.9 132.5c.9 0 1.3.3 1.3 1.9 0 3.5 0 5-1.2 5-1.1 0-1.1-1.4-1.1-4 0-1.3 0-2-.3-1.9.1-.9.5-1 1.3-1z"/></g></g><g id="prefix__leopard_2_"><path class="prefix__st9" d="M280.1 178.8c-.7.2-.7 1.3-1.1 1.3 1.9-.1 2.8-.6 3.4-1.7-.4.4-.1 1.3-.2 1.4 1.4-.5 2.1-1.9 1.6-2.8.3.5 1.2.8 1.5.8-1-.9-.3-2.8-1.9-3.8.5 0 1.5.6 1.8 1.4-.2-1.8-.5-2.9-1.8-3.9.1.2.9.3 1.2 0-.8-.6-1.1-1.6-1-2.2.1-.9-.4-1.1-1.4-.8-.9.2-2.9.4-4.1.4-2.4 0-4.6 0-6.6-1.6 3 1.4 6.9-1.6 6.9-4 0-2.7-3-5-9.1-3.5s-13.5.9-13.5-1.4 5.3-2.6 8-2.1 4.7.8 9.8-1.3c-1.3.5-5.3.7-8.5-.3s-11.1-1-11.2 3.8c-.1 4.8 8.4 4.3 15.7 3.1 4.3-.7 6.5-.2 6.5 1.3s-3.9 2.1-6.9 1.7c-3-.4-6.1-.3-9.7.9-3 1-5 0-8.3.6-1.6.3-5.5 0-7.4-3.5-1.2.9-4.7 2.9-5.3 4.8-.8 1.8-.3 3.5.8 5.2 1.4 2.2-.7 1.8-2.2 1.9-2.1.1-4.8-.2-6.3-2.1-1.3-1.6-3-2.9-4.3-1.7-.7.6 0 1.4.5 1.2.5-.2 1.2.2 1.8.5-.9-.4-2-.1-2.4.3-.6.6.1 1.6.8 1.2.5-.3 1.6-.5 2.3.2-.8-.2-1.5-.1-1.9.3-.4.5-.1 1.1.7 1.1 1.3-.1 1.6 1 3 .8-.8.1-1.3.6-1.5.9 1.2-.6 2.6 1.1 4.2.7-.6.3-1.6 1-1.6 1.5.9-1.2 7.3.9 7.4-1.7.2.5.1 1.4-.3 2.1.8-.5 3.4-.7 4.2-2.9.1.6 0 1.4-.5 1.6.8.3 1.9-.4 3.1-2.3.4-.7.6-1.2.5-1.8 1.1 0 1.9-.3 2.8-1.1.9-.9 1.9.7 3.4-.4s2.9-.2 3.7-.7c.8-.5 2 .2 2.9-.4.9-.6 2.3.3 3.8-1 2.4 1 5.1 2.8 11.9 1.4 3.9-.8 5.1.7 5.1 2.7 0 1.4-.7 1.5-1.3 1.5-2.2.1-3.1-.9-3.9-.6-.6.2-.9 1.3-.1 1.6-.7.4-.6 1.1-.2 1.4.3.3 1.3 0 1.9-.3-.8.4-1.6 1.1-1.1 1.9.3.5 1 .8 1.7-.1.7-.8 1.9-1.6 2.7-1.5zM237 158.1c-2-.9-2.6-.9-2.2.9.2.8.7 1.8 1.1 2.3.1-.7.3-2.8 1.1-3.2z"/><path class="prefix__st9" d="M243.1 158.1c2-.9 2.6-.9 2.2.9-.2.8-.7 1.8-1.1 2.3-.1-.7-.3-2.8-1.1-3.2z"/><path class="prefix__st9" d="M240 156.9c3.7 0 4.2 1.9 4.2 4.4 0 2.6-1.3 1.7-2 5.1-.3 1.3-1.2 1.4-2.2 1.4-.9 0-1.9-.1-2.2-1.4-.7-3.4-2-2.5-2-5.1.1-2.4.5-4.4 4.2-4.4z"/><path class="prefix__st9" d="M230.5 166.6c-.9-.6-1.6-.2-1.9-.1 1.2.4 1.3 2.1 4.1 2.9-.6-.2-1 .2-1.6-.2 1.2 1 2.4 2.2 5.2 2.2 1.5 0 .5.9-.5.4 1 1.2 3.1.2 4.4 2.4.2-1.7-2.4-4.3-1.2-6.3-3.8-.2-4.1-2.5-6.3-4.4-1.8-1.5-1.9-3.1-2.7-5.9-.4-1.3-1.7-2.1-2.5-1.8-.7.3-.9.9-.3 1.4.6.5 1.3.5 1.5 1.8-.7-1-1.8-1.3-2.4-.7-.3.4-.2 1.3.5 1.3 1.1.1.3 1.4 1.6 2.6-1.1-1.4-2.1-1.6-2.7-.8-.4.5 0 1.3.8 1.2 1-.1 2.3 3.1 4 4zM260.9 178.7c-.6.1-.4 1.2-1.2 1.3 1.9 0 2.9-.5 3.8-1.3-.4.3-.6 1-.6 1.4 1-1 3.4-1.1 4.7-.8 1.3.3 1.5-.4 1.9-1.3.5-.9-.2-1.4-.8-2.1-.6-.7-.8-1.7-.6-3.3-3.4-5-9.4-2.6-9.4-.4 2.2 2.8 2.4 2.5 4.3 2.9 1.8.4 2.9.4 1.7 1.5-.4.4-2.2.2-3.5.3-3.1.1-4.4-2.4-5.4-1.1-.7 1.1 0 1.5 1.5 1.5-1 0-2.4-.1-2.2 1 .4 1.8 2-.3 2.6.4-.5-.1-1.3.2-1.4.8 0 .6 1.2 1.3 2.5.1.7-.7 1.6-.9 2.1-.9zM263.5 171c-1.1-.4-2.1-.7-3.4-.4M247.1 170.4c-.9 2.2-.4 3.2-.2 4.2M237.5 160.2c.6.3 1-.6 1.9.4-.2-.3-.6.8-1.3.1M242.5 160.2c-.6.3-1-.6-1.9.4.2-.3.6.8 1.3.1"/><path class="prefix__st9" d="M240.7 160.6c-.2.2-.2-.2-.1.8.3 1.7.6 2.5-.6 2.5-1.3 0-.9-.8-.6-2.5.2-.9.1-.6-.1-.8"/><g><path class="prefix__st10" d="M240 167.1c1 0 1.6 0 1.4-1.6-.1-.6.7-.9.4-1.9.3 1.3-1.8 1.1-1.8.6 0 .6-2.1.7-1.8-.6-.3 1 .5 1.3.4 1.9-.1 1.6.4 1.6 1.4 1.6zM239.1 163.9l-2.4-.7M239.1 164.1h-2.7M239.2 164.2l-2.3.7M240.9 163.9l2.4-.7M240.9 164.1h2.7M240.9 164.2l2.3.7"/></g><g><path class="prefix__st11" d="M227.6 155.9c-.7-1-2.4-.2-2.5 1.1.6-.8 1.6.3 2.1.1.4-.2.7-.8.4-1.2zM226.7 158.2c-.7-1-2.4-.2-2.5 1.1.6-.8 1.5.3 2.1.1.4-.2.7-.8.4-1.2zM226.3 161.3c-.8-.9-2.4.2-2.4 1.4.5-.8 1.6.1 2.1-.2.3-.2.6-.8.3-1.2zM227.1 170.9c-.9-.8-2.4.5-2.2 1.7.4-.9 1.6-.1 2-.4.4-.4.6-1 .2-1.3zM227.1 173c-1-.4-2.2 1.3-1.6 2.3.1-1 1.5-.6 1.8-1.1.2-.4.2-1.1-.2-1.2zM228.4 174.5c-1-.4-2.2 1.3-1.6 2.3.1-1 1.5-.6 1.8-1.1.2-.3.2-1-.2-1.2zM255.7 177.6c-1-.4-2.2 1.3-1.6 2.3.1-1 1.5-.6 1.8-1.1.3-.4.3-1.1-.2-1.2zM257.1 179c-1.1-.3-2 1.5-1.4 2.5 0-1 1.4-.8 1.7-1.3.3-.4.2-1.1-.3-1.2zM256.1 175.5c-1-.6-2.3.8-2 2 .3-1 1.6-.3 2-.7.3-.3.4-1 0-1.3zM275.6 178c-1.1-.3-2 1.5-1.4 2.5 0-1 1.4-.8 1.7-1.3.2-.4.1-1.1-.3-1.2zM275.6 176.1c-1-.6-2.3.9-1.9 2.1.3-1 1.5-.4 1.9-.8.3-.4.4-1.1 0-1.3zM276.4 179.7c-1.1-.2-2 1.6-1.3 2.6 0-1 1.4-.9 1.7-1.4.1-.4 0-1.1-.4-1.2zM240.1 166.2c.7 0 1 .2 1 1.6 0 2.9 0 4.2-.9 4.2-.8 0-.8-1.2-.8-3.4 0-1.1 0-1.7-.2-1.6 0-.7.3-.8.9-.8z"/></g></g></svg>
