<svg xmlns="http://www.w3.org/2000/svg" height="512" width="512" viewBox="0 0 512 512"><defs><clipPath id="a"><path fill-opacity=".67" d="M161.78 5.753h491.68v491.68h-491.68z"/></clipPath></defs><g clip-path="url(#a)"><path fill-rule="evenodd" fill="#e73e2d" d="M-164.282-.002h835.527v306.398h-835.527z"/><path d="M204.176 281.994c-19.429-15.167-55.615-10.037-61.575-51.268 27.707 21.462 22.677-1.226 64.06 19.223l-2.485 32.045zM209.343 263.256c-13.847-20.392-49.866-26.594-42.908-67.668 19.8 28.919 21.963 5.78 55.091 37.924l-12.183 29.744zM215.645 249.934c-4.999-24.137-35.91-43.639-13.777-78.933 7.239 34.292 18.085 13.738 36.407 56.106l-22.63 22.827zM230.165 237.546c2.652-24.507-20.778-52.558 11.122-79.353-3.638 34.86 12.994 18.628 17.424 64.575l-28.546 14.778zM243.087 227.599c12.453-21.272 2.559-56.457 42.633-67.843-17.591 30.314 4.23 22.314-10.54 66.048l-32.094 1.796zM261.954 230.216c18.553-16.229 20.32-52.735 61.937-50.834-26.291 23.177-3.061 22.504-30.93 59.303l-31.007-8.469zM278.491 239.773c22.499-10.069 34.904-44.448 74.128-30.415-31.935 14.439-9.531 20.614-46.972 47.611l-27.156-17.197zM292.31 254.853c24.423-3.329 46.003-32.827 79.694-8.321-34.71 4.867-14.949 17.098-58.476 32.466l-21.218-24.145zM379.311 259.532l-112.032 2.459 4.704 30.185 107.327-32.644zM362.838 218.333l-103.811 39.847 17.381 33.362 86.43-73.209zM280.425 280.552l53.706-97.506-82.381 76.678 28.674 20.828z" fill-rule="evenodd" stroke="#d8aa3f" stroke-width="1.664559" fill="#fec74a"/><path d="M381.86 573.24l-13.513-82.602-15.405 82.535 28.918.067z" fill-rule="evenodd" transform="matrix(1.264 .418 -.415 1.256 34.91 -607.47)" stroke="#d8aa3f" stroke-width="1.254" fill="#fec74a"/><path d="M272.862 263.631l-18.03-110.212-19.982 110.694 38.012-.482z" fill-rule="evenodd" stroke="#d8aa3f" stroke-width="1.664559" fill="#fec74a"/><path d="M378.51 569.67l-10.159-79.033-17.918 83.552 28.077-4.519z" fill-rule="evenodd" transform="matrix(1.227 -.509 .504 1.23 -487.984 -253.968)" stroke="#d8aa3f" stroke-width="1.253" fill="#fec74a"/><path d="M255.436 253.518l-81.077-68.458 57.65 97.973 23.427-29.514zM145.845 218.825l87.041 71.869 13.383-37.595-100.425-34.274zM231.959 260.791l-102.275-1.437 101.846 33.999.429-32.562zM314.997 279.179c0 33.887-27.471 61.358-61.358 61.358s-61.359-27.471-61.359-61.358 27.472-61.359 61.359-61.359 61.358 27.472 61.358 61.359z" fill-rule="evenodd" stroke="#d8aa3f" stroke-width="1.664559" fill="#fec74a"/><path fill-rule="evenodd" fill="#005989" d="M-165.123 303.301h839.65v208.544h-839.65z"/><path d="M-165.602 453.83c15.612 7.226 37.979 25.311 61.902 25.295 40.03-.26 41.096-27.416 81.644-26.125 40.654 1.035 33.301 29.625 88.196 29.481 45.356-.118 60.007-34.653 99.103-30.515 28.953-1.491 40.804 32.702 85.307 33.136 46.158.987 63.105-37.268 92.062-34.101 30.845 0 40.951 30.81 84.226 31.032 55.118.279 64.808-32.067 99.291-29.997 24.544-.517 43.897 23.707 79.862 24.309 28.698.489 52.724-21.206 68.954-28.965l.803-36.815c-17.01 6.326-42.373 27.065-67.735 27.293-36.497 1.336-59.076-23.938-84.438-23.71-30.388.273-42.498 31.274-94.046 31.274-47.095 0-57.9-31.274-88.288-31.274-29.703.227-38.803 34.014-90.226 33.388-41.947-.505-58.291-32.251-87.996-32.023-31.489 0-64.051 30.87-98.919 29.38-48.125-2.034-58.523-29.38-90.012-29.38-23.534 0-48.933 25.626-77.285 26.053-28.197.434-59.873-25.499-62.807-26.053l.402 38.316zm0-72.912c15.612 7.226 37.979 25.311 61.902 25.295 40.03-.26 41.096-27.416 81.644-26.125 40.654 1.035 33.301 29.625 88.196 29.481 45.356-.118 60.007-34.653 99.103-30.515 28.953-1.491 40.804 32.702 85.307 33.136 46.158.987 63.105-37.268 92.062-34.101 30.845 0 40.951 30.81 84.226 31.032 55.118.279 64.808-32.067 99.291-29.997 24.544-.517 43.897 23.707 79.862 24.309 28.698.489 52.724-21.206 68.954-28.965l.803-36.815c-17.01 6.326-42.373 27.065-67.735 27.293-36.497 1.336-59.076-23.938-84.438-23.71-30.388.273-42.498 31.274-94.046 31.274-47.095 0-57.9-31.274-88.288-31.274-29.703.227-38.803 34.014-90.226 33.388-41.947-.505-58.291-32.251-87.996-32.023-31.489 0-64.051 30.87-98.919 29.38-48.125-2.034-58.523-29.38-90.012-29.38-23.534 0-48.933 25.626-77.285 26.053-28.197.434-59.873-25.499-62.807-26.053l.402 38.316zM-165.603 308.798c15.598 7.226 37.944 25.311 61.846 25.295 39.991-.26 41.056-27.416 81.567-26.125 40.616 1.035 33.269 29.625 88.113 29.481 45.313-.118 59.951-34.653 99.011-30.515 28.926-1.491 40.766 32.702 85.227 33.136 46.115.987 63.048-37.268 91.975-34.101 30.818 0 40.913 30.81 84.148 31.032 55.067.279 64.748-32.067 99.199-29.997 24.52-.517 43.854 23.707 79.787 24.309 28.671.489 52.675-21.206 68.889-28.965l.802-36.815c-16.994 6.326-42.333 27.065-67.672 27.293-36.463 1.336-59.019-23.938-84.358-23.71-30.359.273-42.457 31.274-93.959 31.274-47.05 0-57.845-31.274-88.205-31.274-29.676.227-38.767 34.014-90.14 33.388-41.909-.505-58.238-32.251-87.913-32.023-31.46 0-63.992 30.87-98.827 29.38-48.081-2.034-58.469-29.38-89.929-29.38-23.512 0-48.887 25.626-77.212 26.053-28.171.434-59.818-25.499-62.748-26.053l.402 38.316z" fill-rule="evenodd" fill="#fff"/><path d="M136.714 75.909c61.029-4.179 49.906-9.39 74.469-13.31 30.954 4.256 34.494 22.996 51.741 34.494 0 0-6.482 21.918-27.697 18.816-2.852-8.793 10.269-11.511-27.488-34.529-21.952-1.305-61.23 3.853-71.025-5.47zm189.213 33.957l-43.964 1.81v10.862c29.654.948 34.998-3.017 43.964-12.672z" fill-rule="evenodd" stroke="#d8aa3f" stroke-width="NaN" fill="#ffc84b"/><path stroke-linejoin="round" d="M174.732 108.015c7.663-3.919 11.474-2.319 18.112-2.579 4.569 8.276 8.88 9.051 18.879 10.087 15.258 21.464 36.723 21.723 39.826 21.723 29.913-.777 39.396-21.724 59.481-24.051h21.206c-3.534-6.034-6.293-9.484-13.965-9.827-15.775-.862-36.204-.431-54.049 3.621l-25.085 6.206c-7.329-3.534-25.258-22.326-36.723-21.982-6.724 1.81-6.724 4.138-10.085 6.724-6.466 2.759-12.932 1.437-17.596 10.078z" fill-rule="evenodd" stroke="#d8aa3f" stroke-width="1.664559" fill="#ffc84b"/><path d="M358.735 100.737a3.048 3.048 0 1 1-6.096 0 3.048 3.048 0 0 1 6.096 0z" fill-rule="evenodd" stroke="#d8aa3f" stroke-width="1.599" fill="#ffc84b" transform="translate(-168.47 -5.991) scale(1.041)"/><path d="M225.429 107.762c44.912-54.135 84.134-47.499 135.255-51.205 1.724 6.294 1.121 15.69-23.275 24.051-33.36 4.914-93.101 40.084-93.359 40.084-11.122-.516-18.881-12.154-18.62-12.93z" fill-rule="evenodd" stroke="#d8aa3f" stroke-width="NaN" fill="#ffc84b"/><path d="M317.698 72.487l33.125 1.436m-36.719 3.97l24.144 1.97" stroke="#d9a43e" stroke-linecap="round" stroke-width="NaN" fill="none"/></g></svg>