<svg xmlns="http://www.w3.org/2000/svg" height="512" width="512" viewBox="0 0 512 512"><defs><clipPath id="a"><path fill-opacity=".67" d="M0 0h416.25v416.25h-416.25z"/></clipPath></defs><g clip-path="url(#a)" fill-rule="evenodd"><path fill="#ff0" d="M0 0h768.75v127.994h-768.75z"/><path fill="#fff" d="M0 127.994h768.75v127.994h-768.75z"/><path fill="#be0027" d="M0 255.988h768.75v127.994h-768.75z"/><path fill="#3b5aa3" d="M0 383.994h768.75v127.994h-768.75z"/><path d="M0 0v511.973l381.853-255.266-381.853-256.707z" fill="#239e46"/><path d="M157.206 141.425c-85.095-4.317-123.861 63.468-123.775 115.866-.196 61.967 58.526 113.074 112.803 109.999-29.267-13.85-65.005-52.669-65.334-110.257-.3-52.18 29.492-97.551 76.307-115.608zM155.927 197.058l-11.992-9.385-14.539 4.576 5.215-14.317-8.831-12.411 15.227.529 9.065-12.238 4.194 14.649 14.453 4.846-12.644 8.524zm-.255 52.062l-11.992-9.385-14.539 4.576 5.215-14.317-8.831-12.411 15.227.529 9.065-12.238 4.194 14.649 14.453 4.846-12.644 8.524zm.255 52.573l-11.992-9.385-14.539 4.576 5.215-14.317-8.831-12.411 15.227.529 9.065-12.238 4.194 14.649 14.453 4.846-12.644 8.524zm-.255 53.088l-11.992-9.385-14.539 4.576 5.215-14.317-8.831-12.411 15.227.529 9.065-12.238 4.194 14.649 14.453 4.846-12.644 8.524z" fill="#fff"/></g></svg>