<svg xmlns="http://www.w3.org/2000/svg" height="512" width="512" viewBox="0 0 512 512"><defs><clipPath id="a"><path fill-opacity=".67" d="M92.213 7.828h593.6v485.5h-593.6z"/></clipPath></defs><g fill-rule="evenodd" clip-path="url(#a)"><path stroke="#000" stroke-width="1.063" fill="#fff" d="M991.81 492.88h-987.63v-484.5h987.63z" transform="matrix(.863 0 0 1.055 -79.537 -8.255)"/><path fill="#3e5698" d="M776.395 419.242h-852.325v92.494h852.325z"/><path fill="#c60000" d="M776.395 397.814h-852.325v-283.32h852.325z"/><path fill="#3e5698" d="M776.395.58h-852.325v92.494h852.325z"/><path d="M328.738 256.179c0 63.476-53.137 114.932-118.682 114.932-65.547 0-118.682-51.458-118.682-114.932 0-63.476 53.137-114.932 118.682-114.932 65.547 0 118.682 51.457 118.682 114.932z" fill="#fff"/><path fill="#c40000" d="M268.126 336.466l-57.024-40.712-57.935 41.281 22.766-66.355-57.086-40.634 71.089-.289 22.647-66.394 21.174 66.174 71.09-.406-58.005 41.194z"/></g></svg>