<svg xmlns="http://www.w3.org/2000/svg" height="512" width="512" viewBox="0 0 512 512">
	<path fill="#FFFFFF" d="M776.4,511.7H-75.9V0.6h852.3V511.7z"/>
	<path fill="#3E5698" d="M776.4,419.2H-75.9v92.5h852.3V419.2z"/>
	<path fill="#C60000" d="M776.4,397.8H-75.9V114.5h852.3V397.8z"/>
	<path fill="#3E5698" d="M776.4,0.6H-75.9v92.5h852.3V0.6z"/>
	<path fill="#FFFFFF" d="M328.7,256.2c0,63.5-53.1,114.9-118.7,114.9c-65.5,0-118.7-51.5-118.7-114.9c0-63.5,53.1-114.9,118.7-114.9C275.6,141.2,328.7,192.7,328.7,256.2z"/>
	<path fill="#C60000" d="M268.1,336.5l-57-40.7L153.2,337l22.8-66.4L118.8,230l71.1-0.3l22.6-66.4l21.2,66.2l71.1-0.4l-58,41.2L268.1,336.5z"/>
</svg>
