<svg xmlns="http://www.w3.org/2000/svg" height="512" width="512" viewBox="0 0 512 512"><style>.prefix__st0{fill:#fff}</style><path id="prefix___x31_9" class="prefix__st0" d="M0 0h512v512H0z"/><path id="prefix___x31_8" transform="rotate(-56.312 125.82 169.211)" d="M83.2 140.8h85.3v56.9H83.2z"/><path id="prefix___x31_7" transform="rotate(-56.312 116.945 163.294)" class="prefix__st0" d="M67.2 159.7h99.6v7.1H67.2z"/><path id="prefix___x31_6" transform="rotate(-56.308 134.717 175.147)" class="prefix__st0" d="M84.9 171.6h99.6v7.1H84.9z"/><path id="prefix___x31_5" transform="rotate(-56.312 386.139 342.762)" d="M343.5 314.3h85.3v56.9h-85.3z"/><path id="prefix___x31_4" transform="rotate(-56.308 377.322 336.88)" class="prefix__st0" d="M327.5 333.3h99.6v7.1h-99.6z"/><path id="prefix___x31_3" transform="rotate(-56.312 395.014 348.679)" class="prefix__st0" d="M345.3 345.1h99.6v7.1h-99.6z"/><path id="prefix___x31_2" transform="rotate(-56.312 386.142 342.763)" class="prefix__st0" d="M382.6 307.2h7.1v71.1h-7.1z"/><circle id="prefix___x31_1" transform="rotate(-4.87 256 256.005) scale(1.00001)" cx="256" cy="256" fill="#c60c30" r="85.3"/><path id="prefix___x31_0" d="M185 208.7c-13.1 19.6-7.8 46.1 11.8 59.2 19.6 13.1 46.1 7.8 59.2-11.8 13.1-19.6 39.6-24.9 59.2-11.8 19.6 13.1 24.9 39.6 11.8 59.2-26.1 39.2-79.1 49.8-118.3 23.7-39.2-26.3-49.8-79.3-23.7-118.5" fill="#003478"/><path id="prefix___x39_" transform="rotate(-33.688 125.835 342.78)" d="M97.4 300.1h56.9v85.3H97.4z"/><path id="prefix___x38_" transform="rotate(-33.688 116.96 348.695)" class="prefix__st0" d="M113.4 298.9h7.1v99.6h-7.1z"/><path id="prefix___x37_" transform="rotate(-33.692 134.7 336.864)" class="prefix__st0" d="M131.1 287.1h7.1v99.6h-7.1z"/><path id="prefix___x36__1_" transform="rotate(-33.688 386.174 169.216)" d="M357.7 126.6h56.9v85.3h-56.9z"/><path id="prefix___x35__1_" transform="rotate(-33.692 377.291 175.142)" class="prefix__st0" d="M373.7 125.4h7.1V225h-7.1z"/><path id="prefix___x34__1_" transform="rotate(-33.688 395.049 163.299)" class="prefix__st0" d="M391.5 113.5h7.1v99.6h-7.1z"/><path id="prefix___x33__1_" transform="rotate(-33.688 386.14 169.212)" class="prefix__st0" d="M350.6 165.7h71.1v7.1h-71.1z"/><path id="prefix___x32_" transform="rotate(-33.692 386.19 169.228)" d="M379.1 162.1h14.2v14.2h-14.2z"/><path id="prefix___x31_" transform="rotate(-33.688 125.82 342.76)" class="prefix__st0" d="M111.6 339.2H140v7.1h-28.4z"/></svg>
