<svg xmlns="http://www.w3.org/2000/svg" height="512" width="512" viewBox="0 0 512 512"><style>.prefix__st2{fill:#fff}.prefix__st3{fill:#cf142b}.prefix__st4,.prefix__st5,.prefix__st6,.prefix__st7{fill:#fff;stroke:#fff;stroke-width:9.6;stroke-linejoin:round}.prefix__st5,.prefix__st6,.prefix__st7{fill:#fcea83}.prefix__st6,.prefix__st7{fill:#db161c}.prefix__st7{fill:#073163}.prefix__st8{fill:#059334}.prefix__st10,.prefix__st11,.prefix__st8,.prefix__st9{stroke:#fff;stroke-width:9.6;stroke-linejoin:round}.prefix__st10,.prefix__st11{fill:#00493d}.prefix__st11{fill:none}.prefix__st12,.prefix__st13{fill:#fcea83;stroke:#000;stroke-width:1.4377}.prefix__st13{fill:#db161c}.prefix__st14{fill:#00493d}.prefix__st15,.prefix__st16{fill:#fff;stroke:#000;stroke-width:1.4377}.prefix__st16{fill:#073163}.prefix__st17,.prefix__st18{fill:#f9d050;stroke:#000;stroke-width:.6469}.prefix__st18{fill:none}.prefix__st19,.prefix__st21,.prefix__st22{fill:#059334;stroke:#000;stroke-width:1.4377}.prefix__st21,.prefix__st22{fill:#00493d}.prefix__st22{fill:none}.prefix__st23{fill:#0b50a0}.prefix__st25{fill:#073163}.prefix__st26{fill:#f9d050}.prefix__st27{fill:#024919}</style><path fill="#00247d" d="M0 0h512v512H0z"/><defs><path id="prefix__SVGID_1_" d="M0 0h512v256H0z"/></defs><clipPath id="prefix__SVGID_2_"><use xlink:href="#prefix__SVGID_1_" overflow="visible"/></clipPath><g clip-path="url(#prefix__SVGID_2_)"><path class="prefix__st2" d="M500.6 278.9L256 156.6 11.4 278.9l-22.8-45.8L198.8 128-11.4 22.9l22.8-45.8L256 99.4 500.6-22.9l22.8 45.8L313.2 128l210.2 105.1z"/><path class="prefix__st3" d="M7.6 271.3L256 147.1V128L0 256zM0 19.1L217.8 128H256L0 0zM473.8 0L256 108.9V128L512 0zM294.2 128H256l256 128 7.6-15.3z"/><path class="prefix__st2" d="M298.7 298.7h-85.4v-128H0V85.3h213.3V0h85.4v85.3h298.6v85.4H298.7z"/><path class="prefix__st3" d="M281.6 298.7h-51.2V153.6H0v-51.2h230.4V0h51.2v102.4h315.7v51.2H281.6z"/></g><g><g id="prefix__border"><path id="prefix__shield" class="prefix__st4" d="M430.6 226.4v98.4c0 85.3-40.4 114.6-94.4 137.8-54-23.2-94.9-52.5-94.9-137.8v-98.4h189.3z"/><g id="prefix__motto1"><path class="prefix__st5" d="M182.7 454.6c3 8.1 24.7 18.7 50 5 17.2-9.6 28.3-23.2 38.9-47.5 3-6.1 4.5-13.6-2.5-18.2-5.6-4-14.6-8.6-18.7-12.6-2-2-4-3.5-5.6-5 1 1 2 2 3 3.5 10.1 12.1-.5 29.8-11.6 40.4-8.1 7.6-22.7 26.3-43.9 8.6-4.5-4-15.1 12.7-9.6 25.8zM489.7 454.6c-3.5 8.1-25.2 18.7-50 5-17.2-9.6-28.3-23.2-39.4-47.5-2.5-6.1-4-13.6 3-18.2 5.6-4 14.6-8.6 18.7-12.6 2-2 3.5-3.5 5.6-5-1 1-2 2-3 3.5-10.1 12.1.5 29.8 11.1 40.4 8.1 7.6 23.2 26.3 44.4 8.6 4.5-4 14.6 12.7 9.6 25.8z"/><path class="prefix__st5" d="M336.2 498.1c40.4 0 102.5-18.2 135.8-81.8 5.6-10.6 0-16.2-6.6-19.7-7.1-3-15.7-10.1-20.2-14.6 8.1 8.1 6.6 13.6 1 22.7-25.7 42.9-61.1 64.6-110.1 64.6-49 0-84.3-21.7-110.1-64.6-5.6-9.1-7.1-14.6.5-22.7-4 4.5-13.1 11.6-20.2 14.6-6.6 3.5-12.1 9.1-6.6 19.7 33.5 63.6 96.1 81.8 136.5 81.8z"/></g><g id="prefix__motto2"><path class="prefix__st6" d="M242.8 412.7c-1-5-7.6-3-9.6 3-2.5-3.5-5-7.1-7.1-11.1-6.1-9.1-7.1-15.1 1.5-23.7 4-4 12.1-8.6 17.7-3.5 11.6 9.6 5.6 25.2-2.5 35.3zM429.1 412.7c1-5 8.1-3 10.1 3 2.5-3.5 5-7.1 7.1-11.1 6.1-9.1 7.1-15.1-2-23.7-3.5-4-11.6-8.6-17.7-3.5-11.1 9.6-5.6 25.2 2.5 35.3zM182.7 454.6c-5-7.6-9.1-27.3-10.1-32.3-1.5-4.5-2-8.6 3.5-10.6 5.6-2 10.6 5 13.1 11.1s6.6 15.1 11.1 26.3c-11-6.6-20.1-2-17.6 5.5zM489.7 454.6c4.5-7.6 8.6-27.3 10.1-32.3 1-4.5 2-8.6-3.5-10.6-5.6-2-10.6 5-13.1 11.1s-6.6 15.1-11.1 26.3c11-6.6 19.6-2 17.6 5.5z"/></g><g id="prefix__rope"><path class="prefix__st4" d="M297.3 225.9c-6.6 1.5-11.1 2-17.2-3.5-4-4-3-11.1 1-13.6 4.5-3 8.6-5 14.1-3.5 5.6 1.5 20.2 15.1 16.7 15.7-3.5-.1-9 3.4-14.6 4.9zM313 201.7c2-1.5 4.5-2.5 11.1-3 6.1-.5 10.6-.5 12.1 4 2 5.6 3.5 12.1 7.6 15.1-2.5 1.5-15.1 3-19.7.5-6.1-3-7.6-14.6-11.1-16.6zM356.4 202.2c2-1.5 4.5-1.5 11.1-1s9.1 1 10.6 5.6c1.5 5 0 11.6 3 16.2-3 1-13.1 1-16.7-2.5-5.5-4.2-5-15.8-8-18.3z"/><path class="prefix__st7" d="M386.7 205.2c-4.5-1-7.6-1.5-9.6 0 2.5 3 .5 15.1 5.6 19.2 3.5 2.5 12.6 3 14.6-2.5 2.5-5.1 2.5-12.6-10.6-16.7zM334.7 200.2c1.5-1.5 4.5-2 10.6-2 6.6 0 10.6 1 12.6 5 2 5 1.5 11.6 5 15.7-1.5 2-15.1 2-19.2-1-5.5-3.6-6-15.2-9-17.7zM291.8 204.7c0-2.5 3.5-3 12.6-3.5 9.1-1 9.6-.5 12.6 6.1 1.5 3.5 3.5 9.6 7.6 11.6-11.1 2.5-14.6 4-20.7.5-4.5-2.5-9.6-8.6-10.6-11.1-.5-1.5-.5-3.1-1.5-3.6z"/></g><g id="prefix__turtle"><path class="prefix__st8" d="M292.8 159.8c-3.5 0-6.6-1.5-8.6-4-3.5-4.5-13.1-6.6-17.2-2.5-1.5 1-3.5 1-5 1.5-2.5 0-5.6 2.5-4.5 7.6 2-1.5 2.5 0 4 0 1-.5.5.5.5 1.5 0 2.5 5.6 7.6 10.6 7.1 5.6 0 8.1 2 9.1 3 1.5 1.5.5 1 1.5 3.5 1.5 1.5 2 2-.5 4-3.5 3-6.1 10.1 0 15.7 6.6 5 23.2 12.6 41.9-2 18.2-14.1 46.4-6.1 48.5-1 2.5 5 3.5 8.1 4 10.6.5 2 3 4 6.6 3.5 3.5 0 7.6 1.5 9.6 3 2.5 1.5 6.1 1 5-3.5-2-14.1-10.6-16.2-11.6-22.7 5 .5 8.6.5 10.6-1.5 1.5-2 3.5-5.6 5.6-6.6 1.5-1 1.5-2-.5-1.5-2.5.5-4 1.5-8.6 1-23.3-2.6-88.4-20.2-101-16.7z"/><path class="prefix__st9" d="M395.8 177c-2.5 1.5-5 4-9.6 10.1-5 6.6-20.2 13.1-38.9 13.1-18.2 0-29.3-3-37.4-9.6-4.5-3.5-8.1-5.6-11.1-7.1-5.6-2.5-6.6-8.1-5-12.6-1.5 2.5-2.5 5-5.6 4.5-2 0-6.1 0-5 2-.5-1-.5-2.5-1-3l-1-1c1.5 1 5-2 7.6-2 2 .5 4.5-2 4-5-.5-2.5-1-4.5-1.5-6.6 4-2 57 7.6 67.7 8.6 10.5.5 40.8 5 36.8 8.6z"/><path class="prefix__st8" d="M299.8 157.8c5-5 11.1-7.6 17.2-6.1h1.5c3-2.5 10.1-3 14.1-1h2c6.1-2 17.7 0 21.7 4l1.5 1c13.6-1 21.7 5 31.3 14.6 1 1 2.5 3 5 3.5 3 .5 3.5 2 1 3.5-3 1.5-5.6 4-10.6 9.6-4.5 6.1-19.2 12.1-37.4 12.1-17.7 0-28.3-3-36.3-9.1-4.5-3.5-8.1-5.6-10.6-7.1-3-1-7.1-5-5.6-9.1 1-4-1.5-9.1-3.5-14.1 1.5-1 5.6-2.5 7.6-1.5l1.1-.3z"/><path class="prefix__st10" d="M389.2 170.4c-9.6-9.6-17.7-15.7-31.3-14.6 0 .5 0 2-.5 3 8.1 3 19.7 12.1 24.7 18.7 2.1-2 5.6-4.6 7.1-7.1zM356.4 154.8c-4-4-15.7-6.1-21.7-4 0 2 0 5-1 7.1 3.5 1.5 6.6 5 9.6 8.6 2-.5 7.1-2 9.6-2.5 1-2.2 3-6.7 3.5-9.2zM332.7 150.7c-4-2-11.1-1.5-14.1 1-1 2-1.5 6.1-1.5 8.1 2 0 5 1.5 6.1 2.5 3-1 7.1-3 8.6-4.5.4-2 1.4-5.1.9-7.1zM299.8 157.8c5-5 11.1-7.6 17.2-6.1-1 1.5-1.5 4.5-1.5 7.6-5.6-.5-12.6 1-15.7 3v-4.5z"/><path class="prefix__st10" d="M380.1 178.5c-4.5-6.6-15.7-14.1-23.2-17.7 0 .5-1 2.5-1.5 4 3 4.5 9.1 14.6 11.6 20.2 2.5-1 9.6-4 13.1-6.5zM341.7 189.6c1-7.1 1.5-17.2 1.5-20.7 2.5-.5 7.6-2 9.6-2.5 2.5 4 8.6 14.6 11.1 19.7-6 1.5-16.1 4-22.2 3.5zM324.1 165.4c2.5-1 6.1-3 8.6-5 2 1.5 6.1 5 7.6 7.1 0 4.5-1.5 17.7-2 22.2-4 0-10.6-1-14.1-3 .4-7.7.9-16.3-.1-21.3zM298.8 171.4c.5-1 1-4.5 1-6.1 4-2.5 14.1-5 21.7-1 .5 5 0 17.7-.5 20.7-6.5-5-17.1-12.1-22.2-13.6z"/><g><path d="M273.6 162.3c-1 0-1.5-3-3.5-3-.5 0-2 .5-2.5 0 0 1 .5 2 1 2.5.4 1.5 3 .5 5 .5z"/><path class="prefix__st11" d="M273.6 170.9c6.1 0 7.1-7.6 10.1-8.1M277.1 171.4c4.5 2 8.1-8.6 11.6-8.1M268 158.3c1.5 0 2.5-2 5 .5 1 1 2.5 1.5 3.5 1.5M275.6 165.9c-2 3-5.6 5-7.6 4M267 153.2c-1.5 1-2.5 3-3.5 4.5M262 160.8v2.5"/></g></g><g id="prefix__pineapple1"><path class="prefix__st9" d="M316 153.2c-10.6-8.1-23.2-15.7-34.8-17.2 7.6 4.5 28.8 21.2 34.3 26.8"/><path class="prefix__st9" d="M322.1 145.7c-12.6-8.6-27.3-18.2-41.4-19.2 10.6 5.6 26.3 18.7 34.8 29.3M338.2 131.5c7.1-15.7 14.6-24.2 24.7-33.8-5 10.6-10.6 32.3-13.1 40.9"/><path class="prefix__st9" d="M349.3 129c5-11.1 12.6-20.7 25.7-26.8-6.6 6.6-16.7 26.3-19.2 36.9"/><path class="prefix__st9" d="M353.9 139.1c6.1-8.6 18.2-24.7 39.9-33.3-12.6 12.6-31.3 35.8-35.8 44.9M360.9 150.2c9.1-5 27.3-13.1 40.4-10.6-8.1 3-32.3 14.1-42.9 24.2"/><path class="prefix__st9" d="M358.9 146.7c8.6-9.1 24.2-22.7 40.9-28.3-12.1 11.6-37.9 37.9-41.4 41.9M334.7 141.1c-6.1-18.7-15.1-36.3-28.8-41.9 7.6 11.1 17.2 27.3 22.2 51.5M323.1 140.6c-10.1-12.1-23.7-24.2-39.4-26.8 10.6 6.1 28.3 23.7 34.8 40.9"/><path class="prefix__st9" d="M328.6 140.1c-12.6-22.7-22.2-26.8-27.8-31.3 4.5 8.6 15.7 31.3 22.2 40.9"/><path class="prefix__st11" d="M303.4 138.6c6.1 3.5 15.1 12.1 18.2 17.7"/><path class="prefix__st9" d="M303.4 149.2c3 2.5 8.6 5.6 13.6 10.1M363.5 156.8c5-4 16.2-10.6 21.7-12.6M359.9 153.2c5-6.6 15.1-15.7 18.7-18.7M374.1 121.9c-4.5 5-15.1 17.7-19.2 23.7M360.9 117.4c-3.5 4.5-10.6 17.7-12.6 22.2M321 118.4c3 8.1 8.6 21.7 10.6 27.3M316.5 127c2 3 6.1 10.1 7.6 15.1"/></g><g id="prefix__pineapple2"><path class="prefix__st9" d="M333.7 124.5c0-4.5 3-9.6 6.1-9.6 3.5 0 6.1 6.1 6.1 9.6 0 4-3 7.6-6.1 7.6-3.1-.1-6.1-3.1-6.1-7.6z"/><path class="prefix__st9" d="M327.1 128.5c.5-5 4-9.1 7.1-8.6 3 .5 4.5 6.6 4 10.1-.5 4-4 7.1-6.6 6.6-2.5 0-5-3.6-4.5-8.1zM340.7 130c-1-4.5 1-9.6 4-10.1s6.1 4.5 6.6 8.6c1 4-1.5 8.1-4 8.1-2.5.5-6.1-2-6.6-6.6z"/><path class="prefix__st9" d="M333.2 134.1c0-5 3-9.6 6.1-9.6 3.5 0 6.1 5.6 6.1 9.6s-3 7.6-6.1 7.6c-3.1-.1-6.1-3.1-6.1-7.6z"/><path class="prefix__st9" d="M324.1 136.6c0-4.5 3.5-9.6 6.6-9.6 3 0 6.1 6.1 6.1 9.6 0 4-3.5 7.6-6.1 7.6-3.1-.1-6.6-3.1-6.6-7.6zM342.8 134.6c0-4.5 3-9.6 6.1-9.6 3.5 0 6.1 6.1 6.1 9.6 0 4-3 7.6-6.1 7.6-3.1-.1-6.1-3.1-6.1-7.6z"/><path class="prefix__st9" d="M340.7 138.6c0-5 3.5-9.6 6.6-9.6 3 0 6.1 5.6 6.1 9.6s-3 7.6-6.1 7.6c-3 0-6.6-3.1-6.6-7.6z"/><path class="prefix__st9" d="M332.7 143.1c0-5 3-9.6 6.1-9.6 3.5 0 6.1 6.1 6.1 9.6 0 4-3 7.6-6.1 7.6-3.1 0-6.1-3-6.1-7.6zM320 143.1c0-5 2.5-9.6 5-9.6s4.5 6.1 4.5 9.6c0 4-2.5 7.6-4.5 7.6-2.4 0-5-3-5-7.6zM348.3 142.1c0-4.5 2.5-9.1 5-9.1s5 5.6 5 9.1c0 4.5-3 7.6-5 7.6-2.5 0-5-3-5-7.6z"/><path class="prefix__st9" d="M351.3 150.7c1-5 4-9.1 6.1-8.6 2 .5 2.5 6.6 1.5 10.1-.5 4.5-3.5 7.1-5.6 6.6-2-.5-3-4-2-8.1z"/><path class="prefix__st9" d="M341.7 149.2c.5-4.5 3.5-9.1 6.1-8.6 3 0 4.5 6.1 4 9.6-.5 4.5-3 7.6-5.6 7.1-2.4 0-5-3.6-4.5-8.1zM327.6 150.7c-1.5-5-4.5-8.6-6.6-8.1-2 .5-2.5 6.6-1.5 10.1 1 4 4 6.6 6.1 6.1 1.5-.5 3-4 2-8.1z"/><path class="prefix__st9" d="M324.1 149.7c0-4.5 2.5-9.1 5-9.1 3 0 5 5.6 5 9.1 0 4.5-2.5 7.6-5 7.6-2 0-5-3.1-5-7.6z"/><path class="prefix__st9" d="M331.6 151.7c0-5 3-9.6 6.1-9.6 3.5 0 6.1 5.6 6.1 9.6s-3 7.6-6.1 7.6c-3 0-6.1-3-6.1-7.6zM334.2 96.2c-1 4-4.5 7.6-2 13.1-4.5-1.5-8.6-2-12.1 2 4.5-.5 8.6 1 10.6 4-4-.5-6.1 1.5-7.1 4 3.5-1 7.1-2 8.6-1.5-1.5 1.5-4 4-4.5 6.1 3-2.5 6.6-2 8.6-3.5-1.5 3.5 1.5 7.1 4 10.6-.5-5 2.5-8.6 1-11.1 4.5 1 5 5 11.6 5-2.5-1.5-4-6.6-7.1-6.6 1.5-.5 7.6-1 8.6 0-1-2-4.5-4-6.6-4 2-2 5.6-6.1 8.1-7.1-3.5.5-9.1 1-11.1 4 5-4 4-11.6 9.6-12.6-3-.5-7.6 1.5-11.1 5 1.5-3 1.5-7.1 3.5-8.1-4 1-8.6 6.1-10.1 8.6 0-2.4-1.5-6.4-2.5-7.9zM336.7 104.3c0 1.5 0 4.5-.5 5.6M343.3 103.8c-1 1-3 4.5-3 7.6"/><path class="prefix__st11" d="M346.3 109.8c-1.5 1-3 2.5-3.5 4.5"/></g></g><g id="prefix__motto"><g id="prefix__motto1_1_"><path class="prefix__st12" d="M182.7 454.6c3 8.1 24.7 18.7 50 5 17.2-9.6 28.3-23.2 38.9-47.5 3-6.1 4.5-13.6-2.5-18.2-5.6-4-14.6-8.6-18.7-12.6-2-2-4-3.5-5.6-5 1 1 2 2 3 3.5 10.1 12.1-.5 29.8-11.6 40.4-8.1 7.6-22.7 26.3-43.9 8.6-4.5-4-15.1 12.7-9.6 25.8zM489.7 454.6c-3.5 8.1-25.2 18.7-50 5-17.2-9.6-28.3-23.2-39.4-47.5-2.5-6.1-4-13.6 3-18.2 5.6-4 14.6-8.6 18.7-12.6 2-2 3.5-3.5 5.6-5-1 1-2 2-3 3.5-10.1 12.1.5 29.8 11.1 40.4 8.1 7.6 23.2 26.3 44.4 8.6 4.5-4 14.6 12.7 9.6 25.8z"/><path class="prefix__st12" d="M336.2 498.1c40.4 0 102.5-18.2 135.8-81.8 5.6-10.6 0-16.2-6.6-19.7-7.1-3-15.7-10.1-20.2-14.6 8.1 8.1 6.6 13.6 1 22.7-25.7 42.9-61.1 64.6-110.1 64.6-49 0-84.3-21.7-110.1-64.6-5.6-9.1-7.1-14.6.5-22.7-4 4.5-13.1 11.6-20.2 14.6-6.6 3.5-12.1 9.1-6.6 19.7 33.5 63.6 96.1 81.8 136.5 81.8z"/></g><g id="prefix__motto2_1_"><path class="prefix__st13" d="M242.8 412.7c-1-5-7.6-3-9.6 3-2.5-3.5-5-7.1-7.1-11.1-6.1-9.1-7.1-15.1 1.5-23.7 4-4 12.1-8.6 17.7-3.5 11.6 9.6 5.6 25.2-2.5 35.3zM429.1 412.7c1-5 8.1-3 10.1 3 2.5-3.5 5-7.1 7.1-11.1 6.1-9.1 7.1-15.1-2-23.7-3.5-4-11.6-8.6-17.7-3.5-11.1 9.6-5.6 25.2 2.5 35.3zM182.7 454.6c-5-7.6-9.1-27.3-10.1-32.3-1.5-4.5-2-8.6 3.5-10.6 5.6-2 10.6 5 13.1 11.1s6.6 15.1 11.1 26.3c-11-6.6-20.1-2-17.6 5.5zM489.7 454.6c4.5-7.6 8.6-27.3 10.1-32.3 1-4.5 2-8.6-3.5-10.6-5.6-2-10.6 5-13.1 11.1s-6.6 15.1-11.1 26.3c11-6.6 19.6-2 17.6 5.5z"/></g><path class="prefix__st14" d="M212 409.2l-4 2c-1 .5-1 1.5-1 2h-.5l-2-4.5h.5c0 .5.5 1 1.5.5l8.6-4.5c1-.5 1-1 .5-1.5l.5-.5 2.5 5h-.5c-.5-.5-1-1-2-.5l-3.5 2 1.5 3 4-1.5c1-.5.5-1.5.5-2h.5l2 4.5c-.5-.5-1-1-2-.5l-8.6 4.5c-1 .5-1 1-.5 1.5l-.5.5-2.5-4.5.5-.5c.5.5 1 1 2 .5l4-2-1.5-3.5zM220.6 415.8c1-.5 1-1 .5-2h.5l5 7.6-3.5 2.5v-.5c2-1.5 2-3.5 1.5-4s-1-1-1-1.5c-.5 0-.5-.5-1.5.5-.5.5-3.5 2.5-3.5 2.5.5.5 1 2 3.5.5h.5l-5.6 4v-.5c2.5-2 1.5-3.5 1-4l-3.5 2.5c-1 .5-1 1-1 1.5.5 0 .5.5 1 1 .5 1 2 2 4.5 1l.5.5-4 1.5-5-8.1h.5c.5.5 1 1 2 .5l7.6-5.5zM228.7 434.9l-3.5 3c-.5.5-.5 1.5 0 2h-.5l-3.5-3.5.5-.5c.5.5 1 1 2 0l6.6-6.6c1-.5 1-1 .5-2l3.5 4c-.5-.5-1.5-.5-2 0l-3 3 2.5 2.5 3-2.5c1-1 .5-1.5 0-2l.5-.5 3.5 4h-.5c-.5 0-1-.5-2 .5l-6.6 6.1c-1 1-1 1.5-.5 2v.5l-3.5-4c.5 0 1.5.5 2 0l3.5-3.5-2.5-2.5zM236.2 445.5l1.5 1.5 2-4.5s-1.5.5-4 2l.5 1-.5.5-1-1c-.5.5-1 .5-1.5 1-1.5 1-1 1.5-.5 2v.5l-2.5-2.5h.5l2-.5 10.1-5.6.5.5s-.5.5-5 10.6c0 1-.5 1.5 0 2.5l-4-3.5.5-.5c.5 1 1.5 1 2 0 0-.5.5-1.5.5-2l-1.5-1.5.4-.5zM240.3 455.6l.5-.5c.5.5 1 .5 2 0l6.6-8.6-.5-.5c-1-.5-2.5-.5-4 1v-.5l2-2.5 7.6 5.6-2.5 3h-.5c1.5-1.5 1-3.5 0-4v-.5l-6.6 8.6c-1 .5-.5 1.5 0 2h-.5l-4.1-3.1z"/><path class="prefix__st14" d="M253.4 457.7l-2.5 3.5c-.5 1 0 1.5.5 2l-.5.5-4-3v-.5c1 .5 1.5.5 2-.5l5.6-7.6c.5-1 0-1.5-.5-2l.5-.5 4 3v.5c-1-.5-1.5-.5-2 .5l-2.5 3.5 3 2 2.5-3.5c.5-1 0-1.5-.5-2l.5-.5 4 3v.5c-.5-.5-1.5-.5-2 .5l-5 8.1c-1 .5-.5 1 0 1.5v.5l-4.5-3h.5c.5 0 1 0 1.5-.5l2.5-4-3.1-2zM263.5 471.8l.5-.5c.5.5 1.5.5 2-.5l4-8.6c.5-1 0-1.5-.5-2l8.6 4-2 4-.5-.5c1.5-2 0-4-.5-4.5-.5 0-1-.5-1.5-.5s-.5 0-1 1c-.5.5-2 3.5-2 3.5.5.5 1.5 1.5 3.5-1h.5l-3 6.1-.5-.5c1.5-3-.5-3.5-1-3.5l-2 4c-.5 1 0 1.5.5 1.5v.5l-5.1-2.5zM278.1 478.9c-1.5-1-1.5-4 0-7.1 1-3 3-5.6 5-4.5 1.5.5 1 3.5 0 6.6-1.4 3.5-3.5 5.5-5 5h-.5c3.5 1.5 6.1-.5 7.6-4 1.5-3 1-6.6-2-8.1s-6.1.5-7.6 4-1 7.1 2 8.1h.5zM293.8 479.9l2-6.1c.5-1 0-1.5-.5-2l2.5.5v.5c-.5 0-1 0-1.5 1l-2 6.1c-1 2.5-2.5 4.5-5.6 3.5-2-.5-3.5-3-2.5-5.6l2.5-6.6c.5-1 0-1.5-.5-2v-.5l4.5 2v.5c-.5-.5-1.5-.5-1.5.5l-2.5 6.6c-.5 2-.5 4 1 4.5 1.6.6 3.1-.4 4.1-2.9zM298.3 473.3c0-.5 0-.5-.5-.5l3.5.5 3 9.6 1.5-6.1c.5-1 0-1.5-.5-2l3 .5-.5.5c-.5 0-1 0-1.5 1l-2.5 11.1h-.5l-4-12.1-2.5 8.1c0 1.5.5 1.5 1 2v.5l-3-1v-.5c.5.5 1.5 0 1.5-1l2.5-9.1-.5-1.5zM315.5 483.4c-1 4.5-3 5.6-4 5.6h-1s-.5-.5 0-1l1.5-10.1c.5-.5.5-1 1-.5h1c1 0 2 2 1.5 6l1.5.5c1-5-1-7.1-3.5-7.6-2-.5-5-1-5-1v.5c.5.5 1.5.5 1 2l-1.5 9.1c-.5 1-1 1.5-1.5 1.5h-.5l5 1c2.5.5 5 0 6.1-5.6l-1.6-.4zM320 479.4c0-1-1-1.5-1.5-1.5v-.5l9.1 1-.5 4c0-2.5-1.5-3.5-2.5-3.5-.5-.5-1-.5-1.5-.5s-.5 0-.5 1.5c0 .5-.5 4-.5 4 .5 0 2 .5 3-2.5l-.5 6.6h-.5c0-3-1.5-3-2-3l-.5 4.5c0 1 0 1 .5 1l1 .5c1.5 0 3-.5 4-3.5h.5l-1 4-9.6-1c1 0 1.5-.5 2-1.5l1-9.6zM336.7 485.4c0 4.5-1.5 6.1-3 6.1-.5-.5-.5-.5-1-.5l-.5-.5.5-10.6c0-.5 0-.5.5-.5h1c1 0 2.5 1.5 2.5 6h2c0-5-2.5-6.6-5-6.6-2-.5-5-.5-5-.5v.5c.5 0 1.5.5 1.5 1.5l-.5 9.6c0 1-.5 1.5-1 1.5v.5h4.5c2.5 0 5-1 5.6-6.6h-2.1v.1zM351.3 489.5c0 1 .5 1 1.5 1v.5l-5.6.5c.5-.5 1.5-1 1.5-2l-1-9.6c-.5-1-1-1-2-1v-.5l5.6-.5c-.5.5-1.5 1-1 2l1 9.6zM356.4 490.5v-.5c.5 0 1-.5 1-1.5l-2-10.6h-.5c-1 .5-2 1.5-1.5 3.5h-.5l-.5-3.5 9.1-1.5.5 3.5h-.5c0-2-1.5-2.5-3-2.5h-.5l2 10.6c0 1 .5 1.5 1.5 1.5v.5l-5.1.5zM378.1 480.4l-2-6.1c0-1-1-1-1.5-1v-.5l2.5-1v.5c-.5.5-.5.5-.5 1.5l2 6.6c.5 2 .5 5-2.5 6.1-2 .5-4.5-.5-5-3.5l-2-6.6c-.5-1-1-1-1.5-1l-.5-.5 5-1.5v.5c-.5.5-1 1-.5 2l1.5 6.6c.5 2 2 3 3.5 3 1.5-.6 2-2.6 1.5-5.1zM383.6 476.9c2.5-1 2-2.5 1.5-4s-1.5-2.5-2.5-2c-.5 0-1 .5-.5 1l1.5 5 .5.5 1 4c.5 1 1.5 1 2 .5v.5l-4.5 2-.5-.5c1-.5 1-1 1-2l-3.5-8.6c-.5-1.5-1-1-2-1v-.5l5-2c2-.5 4 0 5 2 .5 2.5-.5 4-2.5 5-.5 0-1 .5-1 .5l-.5-.4zM396.3 478.4c-1.5.5-3.5-1.5-5-5-1.5-3-1.5-6.1 0-6.6s3.5 1.5 5 4.5 1.5 6.1 0 7.1c3-1 4-4.5 2.5-8.1-1.5-3-4.5-5-7.6-4-3 1.5-4 5-2.5 8.1 1.5 3.5 4.5 5.5 7.6 4zM396.8 464.2h-1l3-2 9.1 5-3-5.6c-.5-1-1.5-1-2-1v-.5l2.5-1c-.5.5-1 1 0 2l5 10.1-.5.5-11.1-6.1 4 7.6c.5 1 1.5 1 2 .5v.5l-2.5 1.5v-.5c.5-.5.5-1 0-2l-4-8.1-1.5-.9zM419.5 465.7v-.5c0-.5.5-1 0-2l-6.1-8.6h-.5c-1 .5-1.5 2.5 0 4l-.5.5-2-3.5 7.6-5 2 3c-1.5-1.5-3-1.5-4-1l-.5.5 6.1 8.6c.5 1 1.5 1 2 .5v.5l-4.1 3z"/><path class="prefix__st14" d="M425 453.6l3 3.5c.5.5 1.5.5 2 0v.5l-4 3.5v-.5c.5-.5.5-1 0-2l-6.1-7.6c-.5-1-1-.5-2-.5l4-3.5v.5c0 .5-.5 1 0 2l2.5 3 3-2-2.5-3.5c-.5-1-1.5-.5-2-.5l4-3.5v.5c-.5.5-.5 1 0 2l6.1 7.6c.5.5 1 .5 1.5 0l.5.5-4 3.5-.5-.5c.5-.5 1-1 .5-2l-3-3.5-3 2.5zM429.6 443c-.5-.5-1.5-.5-2 0v-.5l6.6-6.1 3 3h-.5c-1.5-2-3.5-1-4.5-.5 0 .5-.5.5-1 1 0 0 0 .5.5 1.5l3 3c.5-.5 2-1.5 0-4h.5l4 4.5v.5c-2.5-2.5-3.5-1-4-.5l3 3c.5 1 1 1 1 1l1.5-1.5c.5-.5 1-2 0-5h.5l2 3.5-6.6 6.6-.5-.5c.5-.5 1-1 0-2l-6.5-7zM441.7 428.9c-.5.5-.5 1.5.5 2 1 1 2 1 4 0 1-.5 3-1 4.5.5 2.5 2.5 1.5 4.5 1 5.6-.5.5-1.5 1-2 1.5-.5 0-.5 0-.5.5v.5l-3.5-3h.5c2 1 4 1.5 5 0 1-1 0-2-.5-2.5-1-1-2-1-3.5 0-1.5.5-3.5.5-5-.5-2-2-2-3.5-1-5 .5-.5 1.5-1 2-1.5.5 0 .5 0 0-1l3.5 2.5h-.5c-2.5-1.1-4-.6-4.5.4zM446.3 424.8c-1-.5-1.5 0-2 .5h-.5l5.6-8.1 3.5 2.5-.5.5c-2-1.5-4-.5-4.5 0 0 .5-.5 1-.5 1.5-.5 0-.5.5.5 1 .5.5 3.5 2.5 3.5 2.5.5-.5 1.5-1.5-.5-3.5v-.5l5 4c-3-1.5-3.5 0-4 .5l3.5 2.5c1 .5 1.5.5 1.5.5 0-.5.5-1 1-1.5.5-1 1-2.5-1-4.5l.5-.5 2.5 3-5 7.6h-.5c.5-1 .5-1.5-.5-2.5l-7.6-5.5zM459.9 415.8l-1.5 2.5c-2-2-3-3.5-3-3.5l4.5 1h1c.5 0 1.5.5 2 .5 1.5.5 1 1 .5 2h.5l2.5-4.5c-1 1-1.5.5-2.5.5-10.6-2-11.6-2.5-11.6-2.5v.5l8.1 9.1c.5.5.5 1.5.5 2h.5l1.5-2.5-.5-.5c-.5 1-1 1.5-2 0l-1-1 1.5-3.5h-1zM456.8 404.7c-.5.5-.5 1.5 1 2s2 0 3.5-1 3-2 5-1c3 1.5 2.5 4 2 5-.5.5-1 1.5-1.5 2v1l-4-2c2.5.5 4.5 0 5-1.5.5-1-.5-2-1-2.5-1-.5-2 0-3.5 1-1.5 1.5-3 2-5 1s-3-2.5-2-4c0-1 1-1.5 1.5-2 0-.5 0-.5-.5-1v-.5l4 2h-.5c-2.4-.6-4 .4-4 1.5z"/></g><g id="prefix__crest"><g id="prefix__rope_1_"><path class="prefix__st15" d="M297.3 225.9c-6.6 1.5-11.1 2-17.2-3.5-4-4-3-11.1 1-13.6 4.5-3 8.6-5 14.1-3.5 5.6 1.5 20.2 15.1 16.7 15.7-3.5-.1-9 3.4-14.6 4.9zM313 201.7c2-1.5 4.5-2.5 11.1-3 6.1-.5 10.6-.5 12.1 4 2 5.6 3.5 12.1 7.6 15.1-2.5 1.5-15.1 3-19.7.5-6.1-3-7.6-14.6-11.1-16.6zM356.4 202.2c2-1.5 4.5-1.5 11.1-1s9.1 1 10.6 5.6c1.5 5 0 11.6 3 16.2-3 1-13.1 1-16.7-2.5-5.5-4.2-5-15.8-8-18.3z"/><path class="prefix__st16" d="M386.7 205.2c-4.5-1-7.6-1.5-9.6 0 2.5 3 .5 15.1 5.6 19.2 3.5 2.5 12.6 3 14.6-2.5 2.5-5.1 2.5-12.6-10.6-16.7zM334.7 200.2c1.5-1.5 4.5-2 10.6-2 6.6 0 10.6 1 12.6 5 2 5 1.5 11.6 5 15.7-1.5 2-15.1 2-19.2-1-5.5-3.6-6-15.2-9-17.7zM291.8 204.7c0-2.5 3.5-3 12.6-3.5 9.1-1 9.6-.5 12.6 6.1 1.5 3.5 3.5 9.6 7.6 11.6-11.1 2.5-14.6 4-20.7.5-4.5-2.5-9.6-8.6-10.6-11.1-.5-1.5-.5-3.1-1.5-3.6z"/></g><g id="prefix__pineapple1_1_"><path class="prefix__st17" d="M316 153.2c-10.6-8.1-23.2-15.7-34.8-17.2 7.6 4.5 28.8 21.2 34.3 26.8"/><path class="prefix__st17" d="M322.1 145.7c-12.6-8.6-27.3-18.2-41.4-19.2 10.6 5.6 26.3 18.7 34.8 29.3M338.2 131.5c7.1-15.7 14.6-24.2 24.7-33.8-5 10.6-10.6 32.3-13.1 40.9"/><path class="prefix__st17" d="M349.3 129c5-11.1 12.6-20.7 25.7-26.8-6.6 6.6-16.7 26.3-19.2 36.9"/><path class="prefix__st17" d="M353.9 139.1c6.1-8.6 18.2-24.7 39.9-33.3-12.6 12.6-31.3 35.8-35.8 44.9M360.9 150.2c9.1-5 27.3-13.1 40.4-10.6-8.1 3-32.3 14.1-42.9 24.2"/><path class="prefix__st17" d="M358.9 146.7c8.6-9.1 24.2-22.7 40.9-28.3-12.1 11.6-37.9 37.9-41.4 41.9M334.7 141.1c-6.1-18.7-15.1-36.3-28.8-41.9 7.6 11.1 17.2 27.3 22.2 51.5M323.1 140.6c-10.1-12.1-23.7-24.2-39.4-26.8 10.6 6.1 28.3 23.7 34.8 40.9"/><path class="prefix__st17" d="M328.6 140.1c-12.6-22.7-22.2-26.8-27.8-31.3 4.5 8.6 15.7 31.3 22.2 40.9"/><path class="prefix__st18" d="M303.4 138.6c6.1 3.5 15.1 12.1 18.2 17.7"/><path class="prefix__st17" d="M303.4 149.2c3 2.5 8.6 5.6 13.6 10.1M363.5 156.8c5-4 16.2-10.6 21.7-12.6M359.9 153.2c5-6.6 15.1-15.7 18.7-18.7M374.1 121.9c-4.5 5-15.1 17.7-19.2 23.7M360.9 117.4c-3.5 4.5-10.6 17.7-12.6 22.2M321 118.4c3 8.1 8.6 21.7 10.6 27.3M316.5 127c2 3 6.1 10.1 7.6 15.1"/></g><g id="prefix__pineapple2_1_"><path class="prefix__st17" d="M333.7 124.5c0-4.5 3-9.6 6.1-9.6 3.5 0 6.1 6.1 6.1 9.6 0 4-3 7.6-6.1 7.6-3.1-.1-6.1-3.1-6.1-7.6z"/><path class="prefix__st17" d="M327.1 128.5c.5-5 4-9.1 7.1-8.6 3 .5 4.5 6.6 4 10.1-.5 4-4 7.1-6.6 6.6-2.5 0-5-3.6-4.5-8.1zM340.7 130c-1-4.5 1-9.6 4-10.1s6.1 4.5 6.6 8.6c1 4-1.5 8.1-4 8.1-2.5.5-6.1-2-6.6-6.6z"/><path class="prefix__st17" d="M333.2 134.1c0-5 3-9.6 6.1-9.6 3.5 0 6.1 5.6 6.1 9.6s-3 7.6-6.1 7.6c-3.1-.1-6.1-3.1-6.1-7.6z"/><path class="prefix__st17" d="M324.1 136.6c0-4.5 3.5-9.6 6.6-9.6 3 0 6.1 6.1 6.1 9.6 0 4-3.5 7.6-6.1 7.6-3.1-.1-6.6-3.1-6.6-7.6zM342.8 134.6c0-4.5 3-9.6 6.1-9.6 3.5 0 6.1 6.1 6.1 9.6 0 4-3 7.6-6.1 7.6-3.1-.1-6.1-3.1-6.1-7.6z"/><path class="prefix__st17" d="M340.7 138.6c0-5 3.5-9.6 6.6-9.6 3 0 6.1 5.6 6.1 9.6s-3 7.6-6.1 7.6c-3 0-6.6-3.1-6.6-7.6z"/><path class="prefix__st17" d="M332.7 143.1c0-5 3-9.6 6.1-9.6 3.5 0 6.1 6.1 6.1 9.6 0 4-3 7.6-6.1 7.6-3.1 0-6.1-3-6.1-7.6zM320 143.1c0-5 2.5-9.6 5-9.6s4.5 6.1 4.5 9.6c0 4-2.5 7.6-4.5 7.6-2.4 0-5-3-5-7.6zM348.3 142.1c0-4.5 2.5-9.1 5-9.1s5 5.6 5 9.1c0 4.5-3 7.6-5 7.6-2.5 0-5-3-5-7.6z"/><path class="prefix__st17" d="M351.3 150.7c1-5 4-9.1 6.1-8.6 2 .5 2.5 6.6 1.5 10.1-.5 4.5-3.5 7.1-5.6 6.6-2-.5-3-4-2-8.1z"/><path class="prefix__st17" d="M341.7 149.2c.5-4.5 3.5-9.1 6.1-8.6 3 0 4.5 6.1 4 9.6-.5 4.5-3 7.6-5.6 7.1-2.4 0-5-3.6-4.5-8.1zM327.6 150.7c-1.5-5-4.5-8.6-6.6-8.1-2 .5-2.5 6.6-1.5 10.1 1 4 4 6.6 6.1 6.1 1.5-.5 3-4 2-8.1z"/><path class="prefix__st17" d="M324.1 149.7c0-4.5 2.5-9.1 5-9.1 3 0 5 5.6 5 9.1 0 4.5-2.5 7.6-5 7.6-2 0-5-3.1-5-7.6z"/><path class="prefix__st17" d="M331.6 151.7c0-5 3-9.6 6.1-9.6 3.5 0 6.1 5.6 6.1 9.6s-3 7.6-6.1 7.6c-3 0-6.1-3-6.1-7.6zM334.2 96.2c-1 4-4.5 7.6-2 13.1-4.5-1.5-8.6-2-12.1 2 4.5-.5 8.6 1 10.6 4-4-.5-6.1 1.5-7.1 4 3.5-1 7.1-2 8.6-1.5-1.5 1.5-4 4-4.5 6.1 3-2.5 6.6-2 8.6-3.5-1.5 3.5 1.5 7.1 4 10.6-.5-5 2.5-8.6 1-11.1 4.5 1 5 5 11.6 5-2.5-1.5-4-6.6-7.1-6.6 1.5-.5 7.6-1 8.6 0-1-2-4.5-4-6.6-4 2-2 5.6-6.1 8.1-7.1-3.5.5-9.1 1-11.1 4 5-4 4-11.6 9.6-12.6-3-.5-7.6 1.5-11.1 5 1.5-3 1.5-7.1 3.5-8.1-4 1-8.6 6.1-10.1 8.6 0-2.4-1.5-6.4-2.5-7.9zM336.7 104.3c0 1.5 0 4.5-.5 5.6M343.3 103.8c-1 1-3 4.5-3 7.6"/><path class="prefix__st18" d="M346.3 109.8c-1.5 1-3 2.5-3.5 4.5"/></g><g id="prefix__turtle_1_"><path class="prefix__st19" d="M292.8 159.8c-3.5 0-6.6-1.5-8.6-4-3.5-4.5-13.1-6.6-17.2-2.5-1.5 1-3.5 1-5 1.5-2.5 0-5.6 2.5-4.5 7.6 2-1.5 2.5 0 4 0 1-.5.5.5.5 1.5 0 2.5 5.6 7.6 10.6 7.1 5.6 0 8.1 2 9.1 3 1.5 1.5.5 1 1.5 3.5 1.5 1.5 2 2-.5 4-3.5 3-6.1 10.1 0 15.7 6.6 5 23.2 12.6 41.9-2 18.2-14.1 46.4-6.1 48.5-1 2.5 5 3.5 8.1 4 10.6.5 2 3 4 6.6 3.5 3.5 0 7.6 1.5 9.6 3 2.5 1.5 6.1 1 5-3.5-2-14.1-10.6-16.2-11.6-22.7 5 .5 8.6.5 10.6-1.5 1.5-2 3.5-5.6 5.6-6.6 1.5-1 1.5-2-.5-1.5-2.5.5-4 1.5-8.6 1-23.3-2.6-88.4-20.2-101-16.7z"/><path d="M395.8 177c-2.5 1.5-5 4-9.6 10.1-5 6.6-20.2 13.1-38.9 13.1-18.2 0-29.3-3-37.4-9.6-4.5-3.5-8.1-5.6-11.1-7.1-5.6-2.5-6.6-8.1-5-12.6-1.5 2.5-2.5 5-5.6 4.5-2 0-6.1 0-5 2-.5-1-.5-2.5-1-3l-1-1c1.5 1 5-2 7.6-2 2 .5 4.5-2 4-5-.5-2.5-1-4.5-1.5-6.6 4-2 57 7.6 67.7 8.6 10.5.5 40.8 5 36.8 8.6h0z" stroke="#000" stroke-width="1.438"/><path class="prefix__st19" d="M299.8 157.8c5-5 11.1-7.6 17.2-6.1h1.5c3-2.5 10.1-3 14.1-1h2c6.1-2 17.7 0 21.7 4l1.5 1c13.6-1 21.7 5 31.3 14.6 1 1 2.5 3 5 3.5 3 .5 3.5 2 1 3.5-3 1.5-5.6 4-10.6 9.6-4.5 6.1-19.2 12.1-37.4 12.1-17.7 0-28.3-3-36.3-9.1-4.5-3.5-8.1-5.6-10.6-7.1-3-1-7.1-5-5.6-9.1 1-4-1.5-9.1-3.5-14.1 1.5-1 5.6-2.5 7.6-1.5l1.1-.3z"/><path class="prefix__st21" d="M389.2 170.4c-9.6-9.6-17.7-15.7-31.3-14.6 0 .5 0 2-.5 3 8.1 3 19.7 12.1 24.7 18.7 2.1-2 5.6-4.6 7.1-7.1zM356.4 154.8c-4-4-15.7-6.1-21.7-4 0 2 0 5-1 7.1 3.5 1.5 6.6 5 9.6 8.6 2-.5 7.1-2 9.6-2.5 1-2.2 3-6.7 3.5-9.2zM332.7 150.7c-4-2-11.1-1.5-14.1 1-1 2-1.5 6.1-1.5 8.1 2 0 5 1.5 6.1 2.5 3-1 7.1-3 8.6-4.5.4-2 1.4-5.1.9-7.1zM299.8 157.8c5-5 11.1-7.6 17.2-6.1-1 1.5-1.5 4.5-1.5 7.6-5.6-.5-12.6 1-15.7 3v-4.5z"/><path class="prefix__st21" d="M380.1 178.5c-4.5-6.6-15.7-14.1-23.2-17.7 0 .5-1 2.5-1.5 4 3 4.5 9.1 14.6 11.6 20.2 2.5-1 9.6-4 13.1-6.5zM341.7 189.6c1-7.1 1.5-17.2 1.5-20.7 2.5-.5 7.6-2 9.6-2.5 2.5 4 8.6 14.6 11.1 19.7-6 1.5-16.1 4-22.2 3.5zM324.1 165.4c2.5-1 6.1-3 8.6-5 2 1.5 6.1 5 7.6 7.1 0 4.5-1.5 17.7-2 22.2-4 0-10.6-1-14.1-3 .4-7.7.9-16.3-.1-21.3zM298.8 171.4c.5-1 1-4.5 1-6.1 4-2.5 14.1-5 21.7-1 .5 5 0 17.7-.5 20.7-6.5-5-17.1-12.1-22.2-13.6z"/><g><path d="M273.6 162.3c-1 0-1.5-3-3.5-3-.5 0-2 .5-2.5 0 0 1 .5 2 1 2.5.4 1.5 3 .5 5 .5z"/><path class="prefix__st22" d="M273.6 170.9c6.1 0 7.1-7.6 10.1-8.1M277.1 171.4c4.5 2 8.1-8.6 11.6-8.1M268 158.3c1.5 0 2.5-2 5 .5 1 1 2.5 1.5 3.5 1.5M275.6 165.9c-2 3-5.6 5-7.6 4M267 153.2c-1.5 1-2.5 3-3.5 4.5M262 160.8v2.5"/></g></g></g><path id="prefix__shield_1_" class="prefix__st2" d="M430.6 226.4v98.4c0 85.3-40.4 114.6-94.4 137.8-54-23.2-94.9-52.5-94.9-137.8v-98.4h189.3z"/><path class="prefix__st3" d="M336.2 309.7c4.5 0 11.6-4 17.7-10.1 6.6-7.1 17.7-9.6 29.3 0 11.6 9.6 18.7 5.6 24.7 0 6.1-5.6 11.1-7.6 22.7-7.6v-65.6H241.3V292c11.6 0 16.7 2 22.7 7.6 6.1 5.6 13.1 9.6 24.7 0 12.1-9.6 22.7-7.1 29.8 0 5.6 6.1 12.6 10.1 17.7 10.1z"/><path class="prefix__st23" d="M336.2 360.2c6.1 0 18.2-6.6 21.2-8.1 11.1-6.6 19.2-.5 25.7 2.5 7.1 3 20.2 6.6 28.3 0 8.1-6.6 12.6-6.1 18.2-6.1 1-7.6 1-15.1 1-23.7v-6.1c-7.1-1.5-10.6.5-18.2 7.1s-16.2 5-27.3 1c-10.6-4.5-21.2-12.6-31.8 0-3 3.5-10.1 8.6-17.2 8.6-7.6 0-14.1-5-17.2-8.6-11.1-12.6-21.2-4.5-31.8 0-11.1 4-20.2 5.6-27.8-1-7.1-6.6-10.6-8.6-18.2-7.1v6.1c0 8.6.5 16.2 1.5 23.7 5.6 0 9.6-.5 17.7 6.1s21.7 3 28.3 0c7.1-3 15.1-9.1 26.3-2.5 3.1 1.6 14.7 8.1 21.3 8.1zM336.2 381.9c7.6 0 16.7-3 24.7-7.6 10.1-5.6 17.2-3 27.3 2 10.6 5 19.2 3.5 25.2 0 3-2 5.6-6.1 12.1-4.5-3 12.6-7.6 23.7-13.1 32.8-10.1 2.5-15.7 2.5-26.3-2-10.6-5-23.7-8.1-30.8-3.5-6.6 4-13.6 6.1-19.2 6.1s-12.6-2-19.2-6.1c-7.1-4.5-20.2-1.5-30.8 3.5-10.6 4.5-16.2 4.5-26.3 2-5.6-9.1-10.1-20.2-13.1-32.8 6.6-1.5 9.1 2.5 12.1 4.5 5.6 3.5 14.6 5 24.7 0 10.6-5 17.7-7.6 27.8-2 8.2 4.6 17.3 7.6 24.9 7.6zM336.2 462.7c20.2-8.6 38.9-18.2 54-31.3-4-1.5-6.6-.5-10.1-3s-14.1-3.5-23.2 1.5c-9.6 4.5-13.6 5.6-20.7 5.6s-11.1-1-20.7-5.6c-9.1-5-19.7-4-23.2-1.5s-6.1 1.5-10.1 3c15.1 13.1 33.3 22.7 54 31.3z"/><g id="prefix__lion"><path d="M323.1 251.2c.5 1-.5 3.5 0 4.5 1 2 1 3 2.5 4h3.5c11.1 0 24.2-4.5 35.3-4.5 10.6 0 17.2 3.5 23.2 3.5 3.5 0 6.6-2.5 6.6-5s-4-4-12.6-4c-12.1 0-18.7 3-28.8 3-15.1 0-17.7-5.6-17.7-8.1s2.5-6.1 10.6-6.1c2.5 0 4.5-.5 5.6-1.5.5-1 2-3 5-4.5 3.5-2 10.6 0 14.1-2.5 0 2-3 5-5.6 6.1 5-1.5 10.6-1.5 11.6 2.5-2.5-1.5-6.6-.5-8.1 0-2 .5-3 1-5 1.5 2-.5 3 3.5 6.1 3.5-3 2.5-8.1 2.5-13.1.5-1.5-.5-5.6-2-8.1-2-5 0-8.1 1-8.1 3 0 2.5 3 4 12.1 4s14.1-2.5 27.8-2.5c-1-1.5.5-3-1.5-4.5 5 0 10.6 1.5 12.6 5-.5-3.5 2.5-6.6 1.5-9.6 3 .5 5.6 3.5 6.1 6.1 0-1.5 2-1.5 2-3 3 1.5 4.5 5 4 8.1 1.5-2.5 3-1.5 4-4.5 1 2 .5 8.1-3 10.1 3-2 7.6-2 10.6 1.5-3-.5-4.5 1-6.1 1.5-6.1 3.5-16.2 5.6-23.7 5-8.1-.5-9.1-2-14.1-2 3 .5 9.1 6.6 14.6 6.6 3.5 0 6.1 0 7.6-.5s4 0 6.1 1c1.5 1.5 4.5 3 6.6 2.5-.5 2-1.5 3-3 3.5 2.5 1.5 1 2.5 3.5 4.5-1 0-2 1-3.5.5 1.5 1.5 1.5 3.5 3 4.5-.5 0-2 .5-3 0 1.5 2 0 4.5 1.5 5.6 1.5 2-1.5 4.5-4 2.5.5 1.5-1 3-2.5 2.5s-2.5-2-2-2.5c0-.5 0-.5.5-1-1 1.5-3 1.5-4 1-.5-.5-1-1-1-1.5-3.5 1-5-2-4.5-3.5s3.5-2 4.5-1.5 2 1 3 0c1-.5 1.5-1.5 1.5-2.5 0-1.5-1.5-6.1-8.1-5.6-7.6.5-19.7-1.5-25.7-3.5-.5-.5-1-.5-1.5-1 0 2-2 3-2 5 0 2.5 1 4.5 4 5.6-1.5 2.5-4 2-5 .5 0 1.5-2 2.5-2 4.5-.5-1-1-1.5-1.5-2.5-1.5 3.5-5.6 5.6-7.6 4.5-2.5 2-5.6 1.5-6.6-.5-1.5 1-3.5 1-4.5 0 0 1.5-1 1-1.5 3 0 1-2 1.5-3 1s-1.5-2.5-.5-3.5c-1.5 1-3 1-4 0 0-1 0-2.5 1-3h1c-1-.5-2.5 0-3.5-.5-1-1-1-2-.5-3 .5-.5 2-1.5 3-.5l.5.5c0-1 .5-2 1-2 1-.5 2.5-.5 4 1 1 1.5 2 1.5 5 1 2.5 0 6.6-2.5 9.6-5-8.6-1.5-3.5-7.1-1-9.1-2-.5-5-.5-7.1.5-10.6 5.6-21.7 12.1-28.8 10.1 0 1 .5 2 1 3-1.5 0-4.5 0-5.6-1.5-.5 1-1.5 3.5-.5 5.6-1-1-4-2-5.6-2.5 1 1 0 3 .5 4.5-1.5-1.5-4-2.5-5-1.5s-3 1.5-4.5 1c-1 1.5-2.5 2.5-4 3 0-1 0-2.5-.5-3-.5 1.5-2 3.5-4 4.5 0-1 0-2.5-.5-3.5 0 2-4 3-4.5 4.5.5-1.5.5-3 .5-4-1 1.5-2.5 3-5 3.5.5-1 1-2 .5-3-.5 2-3.5 3-6.1 2.5 0 1-2 2.5-4.5 1-1.5-.5-2.5-2-1.5-3-2 0-4-2-3-3.5 0-.5.5-1 .5-1.5-1.5-1-2-3-.5-4.5.5-.5 2-.5 3-.5 0-4 3.5-4 5-1 1 1.5 4 4 6.6 3.5 1 0 1.5-.5 2.5-.5 3-1 9.1-3.5 12.6-6.6.5-1.5.5-2.5.5-3.5-2 1-4 2-5 3.5v-1.5c-1.5 0-4-.5-5-.5.5-.5 1-3 2-3.5-2.5.5-5 0-7.1-.5 1-1 1-2.5 1.5-4-1 .5-3.5-.5-5.6 0 .5-1.5 1-3.5 2.5-4-2 .5-4.5 0-7.1-1 2 0 3-2.5 4.5-2.5-4 0-5-2-7.1-3 1.5.5 2.5-1 4-1-1.5-.5-4-3-3-4.5-.5.5-1 1.5-2 2s-3 0-4.5-1.5c-1-2-.5-4.5 1.5-5-2.5-.5-2.5-3-1.5-4 .5-1 2.5-2.5 3.5-1 .5.5 1 1.5 1.5 2-.5-1-.5-3-.5-4.5.5-1.5 1.5-1.5 3-2 1.5 0 2.5 1.5 2.5 3s.5 2.5 1 4.5c0-.5.5-1.5.5-2 0-2 2.5-1.5 4-1s2 3.5 0 5c-1 1-.5 2.5.5 3.5 3.5 5.6 9.6 10.1 14.6 10.6 0-2 1-4 2.5-5.6 0-1 .5-2.5 1-3.5.5-3 2-4.5 4-3.5-.5-.5-1-1-1-1.5-1.5-1.5-3-4-2-6.1s4-1.5 5-.5c-.5-3 3-5.6 3-7.1.5 1.5 1.5 3.5 1 5 .5-2 4-4.5 6.6-5.6-1 1.5 2 4 1.5 5.6 1-2.5 5-4 8.1-4-1 1-1 3-1 4 1.5 0 4-.5 5-2 0 2-1 4-2 5 .5-.5 2.5-.5 4-.5-1.5 1.5-1 3-2.5 4 2-1 4.5-1 5 1 1 1.5-.5 4-1.5 5.6-.7.3-1.7 1.3-2.2 1.3h0z" fill="#f9d050" stroke="#000" stroke-width="1.438"/><path class="prefix__st22" d="M291.8 257.2c-3.5 1.5-4.5 5-5 7.1M291.3 260.8c-5 3-7.1 5.6-6.1 11.1M293.8 275.9c3-1 5-2 7.6-6.6"/><path class="prefix__st22" d="M299.8 271.4c-1 2 0 5.6-1.5 7.1 2.5-1.5 4.5-3.5 5-7.1"/><path class="prefix__st22" d="M300.8 276.9c2-1 5-4 6.6-7.6-.5 1.5 0 4-1 5.6 2.5-2.5 3.5-4 4-6.6 0 .5.5 1.5.5 2 1-1 2-2 2-4M313 267.8v2.5c2-1.5 2.5-3.5 2.5-6.1M315 267.3c3-2 3.5-5 3.5-9.6M318.5 262.8c2-1.5 2.5-2.5 2.5-7.1M314.5 242.1c-1 0-2 .5-2 2 0 1-1.5 2.5-1.5 4-.5 2-1.5 2.5-3 2-1.5-1-1.5-1-1.5-2.5 0-2 2.5-2.5 2.5-4.5.5-1 1-2.5 1.5-2.5-2.5 1.5-6.1.5-6.6-2.5"/><path class="prefix__st22" d="M319 243.6c-1 .5-2-1-3.5-.5-.5 0-2 .5-2.5 0"/><path class="prefix__st22" d="M312 246.1c.5.5 3 1.5 5.6.5-2 .5-3.5-2-1.5-3.5M307.4 241.1c-2 0-3.5 1.5-3 3s2.5 1.5 4 .5M303.9 266.3c.5-.5 1-1.5 1-2 1 0 2-.5 2.5-1 2 0 3.5-1.5 4-3 1 0 1.5-2.5 2-3.5.5.5 1.5 0 2-2 1 .5 2.5 0 3-1.5M297.8 249.7c0 .5-1 1.5-2 2 .5 1 0 3.5-1 4 .5 1 0 2.5-.5 3.5 0 .5.5 2 .5 2.5M299.8 239.6c-1 2.5-.5 5.6 1.5 6.1"/><path class="prefix__st22" d="M300.8 247.6c-.5 2.5-.5 6.1-1 7.6-.5 1-1.5 4.5 2.5 5.6 4.5 1 7.1.5 9.6-7.1M319.5 273.4c0 .5-.5 1.5-1.5 1.5M323.1 272.4c0 1-1 2.5-1.5 3M326.6 271.4c0 1 0 2.5-1 3M295.8 240.1c.5 0 1 1 1.5 2-1.5-1-3 1.5-2 3M294.3 248.7c-.5.5-1.5 1-2 1.5M292.8 253.2c-.5 0-1 .5-1.5.5M268.5 244.1c0-.5 0-.5.5-1M264 242.6c-.5 0-.5 0-1-.5M264.5 249.7h1M262.5 246.6c-1-1-2.5-1.5-3-1.5M290.2 265.3c-3.5 3-5 5.6-5.6 9.1M293.8 267.8c-1 2-2.5 3.5-4 4.5M274.1 283c-4 1-7.1.5-10.1-1.5-.5-.5-1-.5-1.5-1M289.2 275.9c-.5 2-1 4.5-2 5 4-2 7.6-5 8.1-9.6M260 285.5c1.5-.5 3 .5 4-.5M347.8 268.8c1 .5 2.5 1 3 1.5.5-1 2.5-2.5 4-3M312 279.5c-.5-2 .5-4.5 3.5-5.6M292.3 288c.5-1 .5-2.5 1-3.5M270.1 289.5c-.5 1-1.5 2-1.5 3M262.5 290.6s0-.5.5-.5c1-.5 2.5-1.5 3-2.5M331.1 283.5c-1 .5-1.5 0-2-.5M330.6 286s-.5.5-1 .5M333.2 288.5c-.5.5-1 1-1.5 1M347.8 289.5c1-.5 1.5-1.5 2-3.5M341.2 289c1.5-.5 2.5-1.5 4-3M355.4 285c0-1 0-2 .5-3M392.7 289.5c-1-1-1-2.5.5-3.5 1-.5 1.5-1 2.5-1.5M361.9 271.9c-8.1-3.5-7.6-8.1-14.1-7.6M397.8 287.5c.5.5 0 2 0 2.5M402.3 287.5c-.5 1.5-.5 2-.5 3.5M363.5 240.1h-4M321 257.2c0 1 1.5 3 5.6 3-.5 0-1-.5-1-.5"/><path class="prefix__st22" d="M323.1 251.2c-.5.5-1 0-1 0-1-1 .5-3 2-4-1.5.5-2.5.5-3.5.5-1 3-4 4.5-6.1 2.5-.5 2-3 4.5-5 4-2-1-2.5-2.5-2-4-2.5 3-5.6 1-6.6 0-.5-1 0-3.5 1-6.6"/><path d="M355.4 270.4c-1.5 1-3 0-4.5 1.5-1 1 .5 1.5 1.5 1.5-.5 1.5-.5 2 2 2-1 1.5 2 2 1.5 4 1.5-1.5 1.5-3.5 1-5s-3-2.5-1.5-4z"/><g><path class="prefix__st25" d="M309.4 254.2c-2-1-2.5-2.5-2-4-.5 1-1.5 1.5-2.5 1.5-2 4.5-4.5 8.6-7.6 8.6-3.5.5-3 4-.5 4 5.6 1 8.1-1 12.6-10.1zM259.5 242.1c1.5-1.5.5-3-.5-3.5-1.5-.5-4.5 0-6.1 2.5 1.5-.5 3-.5 3.5.5s1.5 2 3.1.5zM262 233c3.5 0 4.5.5 5 2 .5 1-.5 2.5-1.5 2.5-1.5 0-3-1-2.5-1.5.5-1 .5-2.5-1-3zM272.1 241.1c2.5.5 3.5-1 2-3-.5-1.5-2-2.5-4.5-2 2.5 1.4-.1 4 2.5 5zM253.4 249.7c1.5 2.5 4 2.5 5 2 1.5-.5 2-2 1.5-3-1-1.5-2.5-2-3 0-1 2-2.5 1.5-3.5 1zM261 280.5c-1-2-4-2-6.6 0 1-.5 3 0 3.5 1s1.5 1 2 1c.6-.5 1.6-1 1.1-2zM265 277.4c0-2.5-3.5-3-5.6-2 1 0 2.5 1 2.5 2 .5 1 1.5 1.5 2 1.5 1.1-.5 1.6-1 1.1-1.5zM260 286.5c-3-.5-4.5 3-4.5 5.6.5-1.5 2-2.5 3.5-2 1.5 0 2-.5 2-1.5.5-1.1 0-1.6-1-2.1zM260.5 295.1c1 .5 2-.5 2.5-2 0-1 2-1 2.5-.5 1 .5 1 2.5-.5 3.5-1 .5-3.5 1-4.5-1zM330.6 280c-1-.5-3.5-1.5-5.6 0 1.5-.5 2.5.5 3 1.5 0 1 1.5 1.5 2 .5.6-.5 1.1-1.5.6-2zM326.1 283.5c-2-1-4.5 1.5-5 3.5.5-.5 2.5-1.5 3.5-1.5 1 .5 2 0 2-1 .5-.5.5-1-.5-1zM328.6 287.5c-1.5 0-3.5 2-3.5 4 .5-1 1.5-1.5 2.5-1 1 0 2.5-.5 2.5-1.5s-.5-1.5-1.5-1.5zM333.2 291.6c-1-.5-2.5 0-2.5 1.5s0 3-.5 3.5c1-1 2-1.5 3-2 .5-.5 1-2 0-3zM390.2 287c-1-1-2.5-.5-3 .5s-1 3.5 0 5.6c0-1 1-2.5 2-2.5 1.5-.5 2-2.6 1-3.6zM393.2 289c-2 1-2 4.5-.5 6.6 0-1 .5-2.5 1.5-3 1.5 0 2-2 1.5-3-.9-1.1-2-.6-2.5-.6zM399.3 291.1c-1-.5-2 .5-2 1.5-.5 1.5.5 3.5 2 4.5 0-1 .5-2 1-2.5 1.5-1 1-3-1-3.5zM403.8 290.6c-1 0-2 1.5-1 3 .5 1 1.5 1.5 3.5 1-.5 0-1.5-1.5-1-2 .6-1 .1-2-1.5-2z"/></g></g><g id="prefix__star"><path class="prefix__st26" d="M263.5 385l25.2-77.7L314 385l-66.1-48h81.8l-66.2 48z"/><path class="prefix__st27" d="M268.5 377.9l52.5-38.4h-64.6l52 38.4-19.7-61.6-20.2 61.6z"/></g><g id="prefix__star_1_"><path class="prefix__st26" d="M358.4 385l25.2-77.7 25.2 77.7-66.1-48h81.8l-66.1 48z"/><path class="prefix__st27" d="M363.5 377.9l52.5-38.4h-64.6l52 38.4-19.7-61.6-20.2 61.6z"/></g><g><g id="prefix__star_2_"><path class="prefix__st26" d="M310.9 440l25.2-77.7 25.2 77.7-66.1-48H377l-66.1 48z"/><path class="prefix__st27" d="M316 432.9l52.5-38.4h-64.6l52 38.4-19.7-61.6-20.2 61.6z"/></g></g><path class="prefix__st22" d="M430.6 226.4v98.4c0 85.3-40.4 114.6-94.4 137.8-54-23.2-94.9-52.5-94.9-137.8v-98.4h189.3z"/></g></svg>
