<svg xmlns="http://www.w3.org/2000/svg" height="512" width="512" viewBox="0 0 512 512">
	<path fill="#FFFFFF" d="M0,0.1h767.9V512H0V0.1z"/>
	<path fill="#000066" d="M0,0h232.7v232.8H0V0z"/>
	<path fill="#CC0000" d="M0,464.9h767.9V512H0V464.9z M0,372.5h767.9v46.2H0V372.5z M0,279.3h766V326H0V279.3z M232.7,0.1h535.2v46.5 H232.7L232.7,0.1z M232.7,186.1h535.2v46.8H232.7L232.7,186.1z M232.7,93.4h535.2v46.5H232.7L232.7,93.4z"/>
	<path fill="#FFFFFF" d="M166.4,177.5l-50.7-31l-50.5,31.3l18.8-50.8L33.6,95.5l62.3-0.4l19.3-50.7L135,95l62.3,0.1l-50.1,31.7 L166.4,177.5L166.4,177.5z"/>
</svg>
