<svg xmlns="http://www.w3.org/2000/svg" height="512" width="512" viewBox="0 0 512 512"><style>.prefix__st2{fill:#fff}.prefix__st3{fill:#cf142b}.prefix__st7{fill:#ff9a08;stroke:#000;stroke-width:.9676}.prefix__st9{fill:none;stroke:#ffdf00;stroke-width:1.8125;stroke-linecap:round}.prefix__st11,.prefix__st13{fill:#ffe1cf;stroke:#000;stroke-width:.3987}.prefix__st13{fill:none}</style><path fill="#00247d" d="M0 0h511.7v512H0z"/><defs><path id="prefix__SVGID_3_" d="M0 0h512v256H0z"/></defs><clipPath id="prefix__SVGID_1_"><use xlink:href="#prefix__SVGID_3_" overflow="visible"/></clipPath><g clip-path="url(#prefix__SVGID_1_)"><path class="prefix__st2" d="M500.6 278.9L256 156.6 11.4 278.9l-22.8-45.8L198.8 128-11.4 22.9l22.8-45.8L256 99.4 500.6-22.9l22.8 45.8L313.2 128l210.2 105.1z"/><path class="prefix__st3" d="M7.6 271.3L256 147.1V128L0 256zM0 19.1L217.8 128H256L0 0zM473.8 0L256 108.9V128L512 0zM294.2 128H256l256 128 7.6-15.3z"/><path class="prefix__st2" d="M298.7 298.7h-85.4v-128H0V85.3h213.3V0h85.4v85.3h298.6v85.4H298.7z"/><path class="prefix__st3" d="M281.6 298.7h-51.2V153.6H0v-51.2h230.4V0h51.2v102.4h315.7v51.2H281.6z"/></g><g><path class="prefix__st2" d="M243.5 177.4h256.9l-.3 182.8c2.1 73.5-43.7 119.1-127.9 139.6-59.8-14.9-128.8-45.6-128.9-137.5l.2-184.9z"/><path d="M249.2 182.9h245.5l-.3 175.1c2 70.4-41.7 114.1-122.3 133.8C314.9 477.6 249 448.1 248.9 360l.3-177.1h0z" fill="#00a2bd" stroke="#000" stroke-width="1.813"/><path d="M492.8 378.8c-8.9 67.2-60.7 96.6-120.7 112.2-53.1-14.2-110.2-37-121.2-111.8l241.9-.4z" fill="#a53d08"/><path d="M362.4 215.5l-.3-22.1 17.5.2.2 21.9h47.7l.2 17.1-47.9.2-.4 201.8-17 .1-.2-202.1-47.6.2v-17.5l47.8.2z"/><path d="M323.7 387.1l43.7 45.3c15.1-16.6 4.6-78.7-15.2-90.1-2.4 7.4-6.4 16.2-10.7 19-9.5 6.5-32.7 14-24.9 18.8 1.8-2.5 6.4-4.8 8.6.7 2.6 8.6-9.7 9.1-9.7 9.1s-7.8-1-9.1-8.9c-1.4-7.9 11.6-15.1 12.7-15.7 1.1-.4 18-4.9 20.8-19.9 3.5-14.7 7.2-12.5 7.9-12.8 22.1 2.2 36.5 41.7 37.3 69.4.8 27.8-11.3 46.2-13.5 47.4-2.2 1.2-52.6-59.8-52.6-59.8l4.7-2.5h0z" fill-rule="evenodd" clip-rule="evenodd" fill="#ff9a08" stroke="#000" stroke-width=".968"/><path class="prefix__st7" d="M355.6 344.9l.3 81.8M350.7 346.4l.3 74.3M345.4 357.1l.3 59.1M341 361.4l.3 48.9M336.4 363.5v41.3M331.4 366.8v32.7M327 369.4v25.1"/><path d="M323.1 392.3l45.1 51.6" fill="none" stroke="#ffdf00" stroke-width=".968" stroke-linecap="round"/><path class="prefix__st9" d="M370.3 359.7s20.4 44.7 1.5 81.4M317.8 382.9s1.5-3.9 3.4-2.3M314.2 371.4s-8.2 7.2-3.7 11.8"/><g><path d="M379.8 257.9c3-2.6 4.6-4.2 6.5-3.9 1.9.3 4.4.1 6.3-.4 1.9-.6 11.2-1.7 15-.4 1.3.1 3 .9 5.7 3.1s6.6 6.1 5.3 16.9c-1.3 10.8-.9 15.4-1.4 21.5-1 10.7-3.4 19.5-7.6 18.7 5.8 10.1 6.3 18.7 10.1 25.7 3.8 6.9 6.1 21.1 4.6 36.3-1.4 15.3-5.5 49.6 6.6 72.7-2 1.4-6.9 0-11.2-4.6-4.3-4.6-6.2-4.5-9.8-1.7-11 8.4-21.2 18.4-36.3 8.4-3.5-2.3-4.6-5.1-2-12.1 6.3-17.6 9.4-41.7 8.4-53.1l-.2-127.1h0z" fill="#008021" stroke="#000" stroke-width=".399"/><path class="prefix__st11" d="M390.2 247.1c.8 2.5 1.2 5.6-.1 8.5-1.3 2.9-1.6 6.3.6 10.5 3.5-4.9 8.4-3.9 11.2-6.8 2.9-2.9 3.5-5.6 5.6-6.2-2.2-1.9-5.5-3.9-4.8-9.4.7-5.5 8.4-9.9 1.4-18.3-4.5-5.4-11-3.9-13.8-1.8-1.3 1-2.4 2.4-2.9 3.3-.4.9.1 3.1-.9 4.3-.7.9-1.6 1.7-2.6 2.5-.6.5-1.1 1.2-.4 1.9.3.3.8.4 1.3.6-.3.6-.7 1.3-1.1 1.8-.3.4-.2.9.2 1.2-.5 1.7.5 1.9-.2 3.2-.6 1.1-1.5 2.5.9 3.7.9.5 4 1.2 5.6 1zM362.2 275.8c-4 1-10.5-.7-15.4-.1-2.2.3-3.9-.9-3.6-3 .3-2.2.6-5.5.1-8.5-.7-4.7 1.6-11.2 4.8-18.5 3.2-7.2 4.8-11.2 4.8-14.6 0-2.2.2-4.8 2.2-6.1 1.5-1 1.8-1.9 2.3-2.7 1.2-1.8 2.4-2.2 2.5-1.2.1.6-.1 1.2-.7 2.1 1.3-1.1 3.5-2.3 4-2.7.5-.4 3.1-2.2 3.2-.5 1-.5 1.7-.5 1.9.1.3.6.1.8-.4 1.3.7-.1 1.6 1.1.1 2.2.8-.3 1.5 1 .2 2.2-1.4 1.2-3 2-3.5 3-.5.9-3.9 3.6-5.3 4.1-1.4.6-1.4 1.4-1.4 3.4 0 22.2-2.7 20.4-2.7 25.7 0 1.4-.3 2.7 1.2 2.3 1.4-.4 3.5-1.1 5.7-1.1v12.6zM363 323.6c6.5-3.3 14-4.5 17.9-5.5 3.9-1 10.1-4 13.1-5.6 3-1.6 5.5-3.7 7.2-4.3 1.7-.6 3.7-1.8 4.8-3.9 5.6-11 8.7-19.8 8.7-27.4 0-5-1.3-10.7-6.2-6.6-4.6 3.8-9.6 11.1-11 16.4-2 8.1-3.7 9.8-4.2 11.4-.4 1.6-2.1 1.6-4 2-8.5 1.9-10.5 3.2-16.9 7.9-6.3 4.8-13.3 8.9-17.9 11.5-4.6 2.6-5.5 2.9-6.5 5s-1.9 3.7-2.8 4.6c-.9.9-1.1 2-.9 3.2.1.9-.3 5.3-.4 6.7-.1 1.4.3 1.8.9 1.9.6.1 1.4-.2 1.7-1.9-.3 1.7 2.1 1.2 2.2-.1-.1 1.9 2.4.8 2.6-.9 0 1.2 1.9.4 2.1-.2.4-1.4.8-3 1.4-4.2.8-1.7 1.7-3.8 3.4-5 1.8-1.5.9-3 4.8-5zM409.7 441.7c.4 1.6 1.2 3.4 1.5 4.5.3 1.1-.2 1.4-.5 2-1.5 3.2-3.1 8.2-3.4 11-.1 1.6-1.2 3.1-1.7 4-.6 1-.3 1.8.9 2.8.6.5 2.6-.1 2.8-1.2.7.7 2 .4 2.6-.6.7.6 1.7.2 2.5-.9.6.4 1.6-.4 1.9-1 1 .5 2.1-.1 2.1-2.1 0-.4.3-1.1.5-1.6.3-.5.4-1.4.4-2.2 0-.8.5-2.4 1.2-3.5s1.9-3.1 1.4-5c-.5-1.7-1.2-1.6-1.9-4.1-1.6-1.7-3.7-4-6-4.1-2.2 0-3.5 1.5-4.3 2zM368.7 454.1c2 2 6.6 2.1 9.7-1.3-1.2-.5-3.7-1.7-4.8-2.6-1.6 1.6-3.4 3.4-4.9 3.9z"/><path d="M389.1 224.9c.8-5.1 4.4-5 6.7-4.5.9.2 3.2.4 5.4-.1 4.3-1.1 7.5.4 7.1 4.5 1.2.9 2.4 2.9 2.2 4.6-.2 1.7.1 2.5 1.7 2.7 1.6.2 5 2.2 2.7 4.9 2.2 1.3 3.8 4.6 2.7 6.8-1.2 2.2-4.6 2.6-6.1.6-1.6.7-4.2.9-5.8-.8-1.1 1.3-3.8 1.2-4.3 0s-1.4-1.8-2.4-2.1c-1.2-.4-1.2-3.5.5-3.9-.2-.9-.1-2 .3-2.5s.1-1.4-.9-2.2c-1-.8-1.9-3.8-.9-5.5-1.7.6-5.6-1.1-6.3-2.2-.8-1.3-1.9-1.3-2.6-.3z" fill="#870f00" stroke="#000" stroke-width=".399"/><g><path class="prefix__st13" d="M390.2 247.1c2.8-.4 3.7-2.1 5.8-1.9M384.2 239.2c.2.2.4.3.7.4.6.3 1.2.3 1.8.4M385.1 236.3c.4.1.8.3 1.2.7M391.6 224.9c-1.7-1.6 2.8-4.8 7.5-.2.9.9 3.1.9 3.7.6M398.1 227.3c2.2-.5 5.4-.5 6.3 1.9.9 2.5 2.8.9 4.3 3.7 1.5 2.9 3.9 6.1 6.2 3.9M405.8 243.5c-.7-.9-.9-2.7-.5-4-.9-1-.5-3.1 0-4.1M399.6 237.5c.1.9 1.2 2.5 3 2.7M411.5 244.3c-1-1.3-.9-2.5-.6-4"/><path class="prefix__st13" d="M401 230c-.1 1.3.7 3 2.1 3.6.3.7 1.7 2.7 4.6 2.5M408.3 224.7c-1.6-1.2-3.7-2.7-6.6-3.1M390.7 266.1c-2.4 3.3-4 7.9-2.9 14.4 1.2 6.5 3 16-1.7 20.3M409.5 313.4c-3.3-.7-8.1-.7-10.7 1.2s-6.9 2-9.8.6"/><path class="prefix__st13" d="M402.5 313.2c-2.9.5-4.3 2.5-4.3 7.9s-1.2 13.1-.1 20.8M397.2 315.4c-1.9.5-3.8.6-3.5 5.6M387.5 321.2c.1-3.1 1.2-6 3.2-5.5M408.2 321.8c.1-6.8-1.4-8.8-3.4-8.7 2.7.1 4.6.4 5.8 11.6.9 8.4 2.6 11.3 4.6 17.9 5.2 17 2.6 43.3 5.2 52.5M404.3 323.8c5.5 15.9 8.4 33.5-.6 61.7 6.1 16.7 12.1 28.8 13.3 35.8M387 361.3c1-3.6-2.6-4 .6-16.7 1.4-5.5 1.6-8.8.7-10.5M388.3 341.5c-1.3 5.6 4.2 16.1 1.4 23.8M382.9 366.7c0 4.9 1.2 11.2.9 16.1-.3 4.9 1.7 7.2 4 11.8 8.4 16.7 14.1 28.7 13.3 44.4-.1 2.9.9 8.9-2.2 10.7M383.1 454c.9.1 1.8-.4 2.9-3s4.5-18.2 3.1-28.8M390.9 434.4c.4 3.3.4 10.1-1.7 15.4M396.3 424.4c1.3 7.1 1.2 13.4.1 17.9M393.4 442.3c.1 2.9 1.4 10.1-.7 10.7M404.3 408.8c5.3 8.4 9.5 29 14 33.3M408.9 438.8c-.1-2.3-.3-5.5-1.6-6.9M351.3 337.9c.1-1.6-.2-3.1 1.5-5.6M348.7 338.8c.2-5.6.1-6.1 1.7-7.6M346.4 339c.1-4-.4-5.3 1.2-7.9M366.3 220c-.6.4-4.2 3.1-5.7 4.3M367.9 221.4c-.7.1-2.7 1.7-6.2 4.5M368 223.6c-1.1.5-3.2 2.6-5.2 3.9M359.1 223.2c-.5.4-1.6 1.6-2.1 1.9M409.4 464.9c-.3-.4-.3-1.6.3-3M412 464.2c-.4-.4 0-2.1.4-3.2M414.4 463.3c-.5-.2-.6-1.2.1-2.6M416.4 462.3c-.3-.1-.5-.6.1-2.2"/></g><g><path d="M388 229.4c1 1.4 2.1 1.2 2.3 2.1.2.9.3.9.5 1.2.2.3-.5.2-.8.1-.3-.1-1.2-.1-1.7-.1s-1.1-.6-.7-.7c.4-.1.3-.2.3-.5-.1-.3.2-.7.4-.8.2-.1.1-.1-.1-.4-.2-.3-.4-1.2-.2-.9zM388.6 228.1c1.2.1 3.2.8 4.3 2 .9 1 .2.7-.3.7-.4 0-1.3-.3-1.7-.8-.4-.5-1.7-1.2-2.4-1.4-.4-.1-.7-.6.1-.5z"/></g></g></g></svg>
