<svg xmlns="http://www.w3.org/2000/svg" height="512" width="512" viewBox="0 0 512 512"><defs><clipPath id="a"><path fill-opacity=".67" d="M179.71 0h708.66v708.66h-708.66z"/></clipPath></defs><g fill-rule="evenodd" clip-path="url(#a)"><path fill="#f41408" d="M-129.84 0h767.486v511.653h-767.486z"/><path fill="#21873b" d="M-129.84 341.102h767.486v170.551h-767.486z"/><path d="M-129.84 0h767.486v170.551h-767.486z"/><path d="M159.982 154.535c22.292-54.289 84.449-80.257 138.737-57.964 27.34 11.226 46.708 30.584 57.946 57.925l-196.684.04zm-25.952 7.017c-23.435-1.744-48.34-7.117-52.403-8.597-4.065-1.48-4.221-3.951-3.72-5.843.5-1.893 3.094-4.042 6.123-3.242 5.678 1.502 28.768 7.61 50.001 17.682zm124.552-94.678c-4.206-23.121-5.267-48.576-4.857-52.881.411-4.305 2.763-5.078 4.72-5.069 1.958.009 4.69 1.978 4.676 5.111-.026 5.873-.13 29.757-4.54 52.84zm11.53.536c-2.209-23.396-1.085-48.848-.308-53.103.778-4.253 3.188-4.822 5.138-4.645 1.95.176 4.503 2.372 4.221 5.492-.529 5.85-2.679 29.637-9.051 52.257zm10.45 1.417c-.277-23.498 2.939-48.772 4.063-52.947 1.126-4.176 3.574-4.544 5.502-4.208 1.929.336 4.293 2.736 3.755 5.821-1.009 5.786-5.11 29.315-13.321 51.334zm11.007 2.461c1.792-23.432 7.217-48.325 8.705-52.385 1.487-4.061 3.959-4.212 5.851-3.707 1.892.505 4.036 3.102 3.228 6.13-1.514 5.675-7.669 28.752-17.785 49.964zm10.833 3.452c3.866-23.18 11.478-47.493 13.321-51.405 1.843-3.913 4.318-3.844 6.157-3.173 1.84.67 3.744 3.448 2.671 6.391-2.011 5.518-10.19 27.959-22.15 48.188zm10.113 4.223c5.832-22.765 15.496-46.338 17.667-50.078 2.17-3.741 4.63-3.461 6.406-2.635 1.775.825 3.435 3.756 2.115 6.596-2.476 5.325-12.545 26.985-26.189 46.118zm9.941 5.209c7.803-22.166 19.494-44.803 21.984-48.339 2.489-3.536 4.916-3.041 6.612-2.064 1.697.978 3.093 4.043 1.529 6.756-2.933 5.089-14.859 25.783-30.126 43.648zm9.409 6.027c9.705-21.402 23.324-42.934 26.113-46.24 2.788-3.306 5.162-2.601 6.767-1.48 1.604 1.122 2.729 4.297.934 6.864-3.365 4.814-17.049 24.39-33.815 40.857zm8.852 6.829c11.537-20.473 26.983-40.734 30.05-43.784 3.066-3.05 5.37-2.141 6.87-.884 1.501 1.258 2.344 4.518.332 6.92-3.772 4.502-19.113 22.808-37.252 37.748zm8.249 7.595c13.283-19.386 30.443-38.218 33.764-40.987 3.321-2.77 5.536-1.663 6.921-.279 1.385 1.384 1.939 4.706-.274 6.922-4.151 4.154-21.035 21.049-40.412 34.346zm7.565 8.321c14.932-18.146 33.678-35.4 37.229-37.867 3.552-2.469 5.662-1.171 6.92.329s1.519 4.858-.881 6.871c-4.5 3.774-22.801 19.123-43.269 30.668zm6.517 8.525c16.399-16.831 36.524-32.455 40.269-34.617 3.746-2.162 5.74-.693 6.868.907 1.128 1.6 1.107 4.968-1.453 6.772-4.801 3.385-24.321 17.148-45.685 26.938zm5.896 9.241c17.78-15.367 39.167-29.212 43.084-31.046 3.917-1.833 5.777-.199 6.764 1.492.987 1.691.679 5.045-2.027 6.624-5.072 2.962-25.699 15.003-47.821 22.931zm5.468 10.536c19.126-13.655 41.703-25.461 45.773-26.923 4.07-1.463 5.772.336 6.598 2.111.826 1.775.208 5.086-2.632 6.408-5.325 2.479-26.978 12.56-49.739 18.405zm4.17 10.169c20.226-11.964 43.733-21.79 47.913-22.898 4.18-1.108 5.721.83 6.392 2.669.671 1.84-.229 5.085-3.171 6.159-5.518 2.013-27.956 10.2-51.135 14.07zm3.367 10.779c21.202-10.135 45.483-17.851 49.744-18.587 4.262-.736 5.626 1.331 6.132 3.222.506 1.892-.676 5.045-3.702 5.855-5.673 1.518-28.746 7.697-52.175 9.509zm-134.647-94.882c-6.326-22.633-9.738-47.881-9.727-52.206.01-4.325 2.282-5.312 4.231-5.484 1.951-.173 4.853 1.536 5.129 4.656.518 5.85 2.622 29.642.367 53.033zm-11.094 1.432c-8.277-21.994-13.88-46.848-14.247-51.157-.367-4.309 1.809-5.491 3.736-5.832 1.928-.342 4.969 1.107 5.516 4.19 1.026 5.783 5.2 29.3 4.995 52.8zm-11.028 2.427c-10.183-21.179-17.953-45.443-18.699-49.702-.745-4.26 1.319-5.629 3.209-6.14 1.89-.51 5.047.665 5.863 3.689 1.532 5.67 7.761 28.728 9.627 52.154zm-10.386 3.245c-11.945-20.238-21.747-43.754-22.851-47.935-1.105-4.182.836-5.72 2.675-6.39 1.84-.669 5.085.234 6.156 3.177 2.007 5.52 10.173 27.966 14.021 51.149zm-10.159 4.159c-13.634-19.14-25.414-41.731-26.873-45.802-1.458-4.071.342-5.771 2.118-6.595 1.776-.825 5.086-.202 6.405 2.638 2.474 5.328 12.53 26.992 18.35 49.76zm-10.258 5.296c-15.303-17.835-29.071-39.272-30.89-43.196-1.819-3.923-.178-5.778 1.516-6.759 1.694-.98 5.047-.66 6.616 2.05 2.943 5.084 14.911 25.754 22.757 47.905zm-9.346 5.917c-16.785-16.447-32.352-36.616-34.503-40.368-2.152-3.752-.677-5.741.926-6.865 1.604-1.124 4.972-1.093 6.769 1.472 3.37 4.81 17.077 24.37 26.808 45.76zm-8.751 6.584c-18.127-14.955-35.358-33.722-37.821-37.276-2.463-3.554-1.165-5.663.337-6.919 1.502-1.256 4.86-1.513 6.87.89 3.769 4.505 19.095 22.823 30.615 43.306zm-8.509 7.656c-19.388-13.279-38.224-30.434-40.994-33.755-2.77-3.321-1.664-5.536-.281-6.921 1.384-1.386 4.706-1.941 6.922.273 4.155 4.151 21.054 21.03 34.354 40.404zm-7.343 7.852c-20.433-11.608-40.641-27.124-43.68-30.201-3.04-3.076-2.123-5.377-.86-6.873 1.263-1.496 4.527-2.328 6.92-.308 4.489 3.788 22.742 19.191 37.619 37.383zm-7.04 8.978c-21.384-9.745-42.891-23.404-46.191-26.198-3.301-2.794-2.592-5.167-1.468-6.769 1.125-1.603 4.302-2.722 6.866-.923 4.807 3.375 24.358 17.094 40.793 33.891zm-6.303 9.722c-22.177-7.775-44.829-19.438-48.368-21.923-3.539-2.485-3.048-4.912-2.073-6.609.975-1.698 4.039-3.099 6.754-1.538 5.092 2.926 25.802 14.826 43.687 30.071zm-5.232 9.88c-22.77-5.813-46.352-15.457-50.095-17.624-3.742-2.167-3.464-4.628-2.64-6.404.823-1.776 3.753-3.438 6.595-2.121 5.328 2.471 26.996 12.521 46.14 26.149zm-4.196 9.906c-23.178-3.884-47.484-11.517-51.395-13.363-3.911-1.845-3.841-4.321-3.169-6.159.672-1.84 3.452-3.741 6.394-2.666 5.516 2.016 27.95 10.214 48.17 22.19zM134.029 161.552c-23.435-1.744-48.34-7.117-52.403-8.597-4.065-1.48-4.221-3.951-3.72-5.843.5-1.893 3.094-4.042 6.123-3.242 5.678 1.502 28.768 7.61 50.001 17.682z" fill="#f31509"/><path d="M68.948 155.042h380.971v13.844h-380.971z"/></g></svg>