<svg xmlns="http://www.w3.org/2000/svg" height="512" width="512" viewBox="0 0 512 512"><defs><clipPath id="a"><path fill-opacity=".67" d="M0 0h496.06v496.06h-496.06z"/></clipPath></defs><g clip-path="url(#a)"><path fill-rule="evenodd" fill="#009a00" d="M0 0h767.975v159.996h-767.975z"/><path fill-rule="evenodd" fill="#fff" d="M0 159.955h767.975v16.018h-767.975z"/><path fill-rule="evenodd" d="M0 175.973h767.975v159.996h-767.975z"/><path fill-rule="evenodd" fill="#fff" d="M0 335.969h767.975v16.018h-767.975z"/><path fill-rule="evenodd" fill="#ffca00" d="M0 351.987h767.975v159.996h-767.975z"/><path d="M0 0v511.984l336.01-255.992-336.01-255.992z" fill-rule="evenodd" fill="#f00"/><path fill="#ffca00" fill-rule="evenodd" d="M198.525 332.962l-51.227-37.504-51.161 37.514 19.84-60.309-51.489-37.065 63.492.234 19.335-60.421 19.396 60.457 63.44-.289-51.505 37.129z"/><path stroke-linejoin="round" d="M102.833 290.902h36.904c2.969 3.332 9.594 4.69 15.905-.039 11.567-6.334 33.944.039 33.944.039l4.407-4.682-10.741-35.251-3.856-4.13s-8.262-4.957-23.96-3.305c-15.698 1.651-21.206-.55-21.206-.55s-13.77 1.651-17.626 3.579c-.423.344-4.406 4.407-4.406 4.407l-9.364 39.932z" fill-rule="evenodd" stroke="#000" stroke-linecap="round" stroke-width="1.102176" fill="#fff"/><path stroke-linejoin="round" d="M110.27 281.815s35.251-4.405 45.441 9.089c-5.755 3.937-10.822 4.263-16.248.277.864-1.441 12.668-13.77 42.688-9.64" stroke="#000" stroke-linecap="round" stroke-width="1.102176" fill="none"/><path d="M147.998 246.566l-.274 38.832m31.669-38.285l6.61 30.844" stroke="#000" stroke-width="NaN" fill="none"/><path stroke-linejoin="round" d="M116.968 246.626l-3.669 15.908" stroke="#000" stroke-linecap="round" stroke-width="1.102176" fill="none"/><path stroke-linejoin="round" d="M78.866 295.136l8.679 10.175c1.019.608 1.924.569 2.829 0l12.862-15.434 5.402-6.688c.836-.991 1.104-2.096 1.029-3.087l10.327-9.177 2.193.212c-.998-.258-1.731-.745-.944-1.838l2.315-1.801 1.8 2.315s-2.572 3.344-2.829 3.344h-2.83l-5.402 4.888 2.361 2.087 3.556 9.746 4.373-3.087-2.83-10.032 6.174-6.688-2.315-3.602 1.543-2.058s21.368 13.452 29.601 9.851c.222.081.496-9.594.496-9.594s-22.122-2.315-22.637-6.688c-.515-4.373 4.888-4.887 4.888-4.887l-2.316-3.344.516-1.802 3.858 4.888 8.746-7.46 51.448 58.651c2.808-1.139 3.408-1.827 3.602-4.63-.072-.071-50.419-57.88-50.419-57.88l3.858-4.115c.761-.857 1.028-1.222 1.029-2.573l5.916-5.145c1.779.612 2.914 1.678 3.859 3.086l16.266-13.785c.428.429 1.731.858 2.614.376l26.888-25.815-29.305 20.702-1.032-.772c0-.857 1.063-1.069 0-2.572-1.138-1.367-2.83 1.286-3.086 1.286-.258 0-4.242-1.409-5.116-3.192l-.287 4.735-7.46 6.946-5.659-.258-8.232 7.975-1.029 3.086 1.286 2.574s-4.373 3.858-4.373 3.601c0-.257-.885-1.137-.922-1.251l3.752-3.38.514-2.315-1.252-1.955c-.379.277-5.179 5.3-5.436 4.785-.433-.477-13.894-15.69-13.894-15.69l.771-2.83-8.746-9.518c-3.188-1.101-8.232-1.286-9.26 5.659-.802 1.631-7.46.258-7.46.258l-3.602.771-20.322 28.811 11.319 13.634 23.152-29.327.687-8.307 4.858 5.432c1.619.207 3.162.227 4.63-.515l13.717 15.311-2.284 2.228 2.075 2.262 2.281-1.647.943 1.34-3.105 2.083c-1.839-1.198-3.615-2.691-3.48-5.067l-7.717 6.43-.258 1.287-22.894 19.036-2.058.258-.514 5.916 14.919-12.347v-1.802l1.544 1.286 11.575-9.259s.772 1.028.516 1.028c-.258 0-10.29 9.261-10.29 9.261l-.258 1.028-1.801 1.544-1.029-.772-13.891 12.348h-2.058l-7.717 7.718c-1.99.172-3.716.383-5.402 1.542l-13.823 12.205z" fill-rule="evenodd" stroke="#000" stroke-linecap="round" stroke-width="1.102176"/></g></svg>