<svg xmlns="http://www.w3.org/2000/svg" height="512" width="512" viewBox="0 0 512 512"><defs><clipPath id="a"><path fill-opacity=".67" d="M0 0h496.06v496.06h-496.06z"/></clipPath></defs><g clip-path="url(#a)"><path fill-rule="evenodd" fill="#fff" d="M.013 0h515.586v256.064h-515.586z"/><path d="M.013 0l-.021 19.219 123.037 63.219 46.3 1.342-169.317-83.78z" fill="#c00"/><path d="M52.693 0l149.169 77.914v-77.913h-149.159z" fill="#006"/><path fill="#c00" d="M221.757 0v99.466h-221.736v56.838h221.736v99.466h68.228v-99.466h221.736v-56.838h-221.736v-99.466h-68.228z"/><path d="M309.878 0v73.415l145.929-72.846-145.929-.57z" fill="#006"/><path d="M314.491 81.419l41.036-.33 159.439-80.52-42.306.689-158.169 80.161z" fill="#c00"/><path d="M.013 172.877v54.469l102.343-53.896-102.343-.578z" fill="#006"/><path d="M394.107 175.127l-42.663-.331 160.822 80.07-1.058-18.319-117.102-61.42zm-354.134 81.092l150.8-79.172-39.612.268-151.151 78.791" fill="#c00"/><path d="M513.883 22.495l-121.788 60.393 120.167.45v89.993h-102.342l101.396 54.939 1.488 27.949-54.158-.647-148.23-72.768v73.415h-108.03v-73.415l-139.045 73.217-62.797.198v255.765h1023.42v-511.54l-509.001-.444m-514.409 28.869l-.54 53.119 107.741 1.35-107.194-54.469z" fill="#006"/><g fill-rule="evenodd" fill="#ffd900"><path d="M511.984 0h511.984v511.984h-511.984zM0 255.992h540.294v255.992h-540.294z"/></g><g fill-rule="evenodd"><path d="M300.238 129.312c0 24.377-19.763 44.14-44.141 44.14-24.377 0-44.14-19.762-44.14-44.14s19.762-44.14 44.14-44.14 44.14 19.762 44.14 44.14z" fill="#000067"/><path fill="#fff40d" d="M234.114 158.997l8.535-25.365-22.293-15.669 27.543.026 8.489-25.379 8.488 25.379 27.543-.019-22.296 15.662 8.531 25.369-22.27-15.699zm160.27-17.653l4.23-11.875-11.048-7.335 13.65.011 4.207-11.882 4.207 11.882 13.651-.008-11.051 7.332 4.229 11.877-11.037-7.351zm-149.324 88.286l4.23-11.875-11.048-7.335 13.65.011 4.207-11.882 4.207 11.882 13.651-.008-11.051 7.332 4.229 11.877-11.037-7.351zm0-172.412l4.23-11.875-11.048-7.335 13.65.011 4.207-11.882 4.207 11.882 13.651-.008-11.051 7.332 4.229 11.877-11.037-7.351zm-149.787 84.126l4.231-11.875-11.049-7.335 13.651.011 4.207-11.882 4.207 11.882 13.65-.008-11.05 7.332 4.227 11.877-11.036-7.351z"/></g></g></svg>