<svg xmlns="http://www.w3.org/2000/svg" height="512" width="512" viewBox="0 0 512 512"><style>.prefix__st2{fill:#fff}.prefix__st3{fill:#cf142b}.prefix__st4{fill:#cc142b}</style><path d="M0 0h512v512H0V0z" fill-rule="evenodd" clip-rule="evenodd" fill="#00247d"/><defs><path id="prefix__SVGID_3_" d="M0 0h512v256H0z"/></defs><clipPath id="prefix__SVGID_1_"><use href="#prefix__SVGID_3_" overflow="visible"/></clipPath><g clip-path="url(#prefix__SVGID_1_)"><path class="prefix__st2" d="M500.6 278.9L256 156.6 11.4 278.9l-22.8-45.8L198.8 128-11.4 22.9l22.8-45.8L256 99.4 500.6-22.9l22.8 45.8L313.2 128l210.2 105.1z"/><path class="prefix__st3" d="M7.6 271.3L256 147.1V128L0 256zM0 19.1L217.8 128H256L0 0zM473.8 0L256 108.9V128L512 0zM294.2 128H256l256 128 7.6-15.3z"/><path class="prefix__st2" d="M298.7 298.7h-85.4v-128H0V85.3h213.3V0h85.4v85.3h298.6v85.4H298.7z"/><path class="prefix__st3" d="M281.6 298.7h-51.2V153.6H0v-51.2h230.4V0h51.2v102.4h315.7v51.2H281.6z"/></g><g><path id="prefix___x38_" class="prefix__st2" d="M419.4 226.1l22.2 16.1-8.5 26 22.2-16.1 22.1 16.1-8.5-26 22.2-16.1h-27.4l-8.4-26-8.5 26z"/><path id="prefix___x37_" class="prefix__st4" d="M433.1 230.5l13.7 10-5.2 16.1 13.7-10 13.7 10-5.3-16.1 13.7-10h-16.9l-5.2-16.1-5.3 16.1z"/><path id="prefix___x36_" class="prefix__st2" d="M309.6 133.1l24.9 18.1-9.5 29.2 24.9-18.1 24.9 18.1-9.5-29.2 24.9-18.1h-30.8l-9.5-29.3-9.5 29.3z"/><path id="prefix___x35_" class="prefix__st4" d="M323.3 137.5l16.4 12-6.2 19.3 16.4-12 16.4 12-6.2-19.3 16.4-12h-20.3l-6.3-19.3-6.3 19.3z"/><path id="prefix___x34_" class="prefix__st2" d="M186.7 256.8l24.9 18-9.5 29.3L227 286l24.9 18.1-9.5-29.3 24.8-18h-30.7l-9.5-29.3-9.5 29.3z"/><path id="prefix___x33__1_" class="prefix__st4" d="M200.4 261.2l16.4 11.9-6.3 19.4 16.5-12 16.4 12-6.3-19.4 16.5-11.9h-20.3l-6.3-19.3-6.3 19.3z"/><path id="prefix___x32__1_" class="prefix__st2" d="M305.2 450.8l27.6 20.1-10.5 32.5 27.6-20.1 27.6 20.1-10.5-32.5 27.6-20.1h-34.2l-10.5-32.4-10.5 32.4z"/><path id="prefix___x31__1_" class="prefix__st4" d="M318.9 455.3l19.1 13.9-7.3 22.5 19.2-13.9 19.2 13.9-7.3-22.5 19.1-13.9h-23.7l-7.3-22.6-7.3 22.6z"/></g></svg>
