<svg width="512" height="512" viewBox="0 0 512 512" fill="none" xmlns="http://www.w3.org/2000/svg">
<path fill-rule="evenodd" clip-rule="evenodd" d="M0 0H512V512H0V0Z" fill="#00247D"/>
<path fill-rule="evenodd" clip-rule="evenodd" d="M76.8 56.8889H85.3333L0 0V5.68889V11.3778L68.2667 56.8889H76.8Z" fill="#CC142B"/>
<path fill-rule="evenodd" clip-rule="evenodd" d="M162.133 56.8889H170.667L256 0H247.467H238.933L153.6 56.8889H162.133Z" fill="#CC142B"/>
<path fill-rule="evenodd" clip-rule="evenodd" d="M8.53333 170.667H17.0667L102.4 113.778H93.8667H85.3333L0 170.667H8.53333Z" fill="#CC142B"/>
<path fill-rule="evenodd" clip-rule="evenodd" d="M59.7333 113.778L0 153.6V170.667L85.3333 113.778H99.5556V115.674L17.0667 170.667H25.6L99.5556 121.363V170.667H156.444V121.363L230.4 170.667H256L170.667 113.778H187.733L256 159.289V153.6L196.267 113.778H256V56.8889H196.267L256 17.0667V0L170.667 56.8889H156.444V54.9927L238.933 0H230.4L156.444 49.3038V0H99.5556V49.3038L25.6 0H0L85.3333 56.8889H68.2667L0 11.3778V17.0667L59.7333 56.8889H0V113.778H59.7333Z" fill="white"/>
<path fill-rule="evenodd" clip-rule="evenodd" d="M187.733 113.778H179.2H170.667L256 170.667V164.978V159.289L187.733 113.778Z" fill="#CC142B"/>
<path fill-rule="evenodd" clip-rule="evenodd" d="M110.933 170.667V102.4H0V68.2667H110.933V0H145.067V68.2667H256V102.4H145.067V170.667H110.933Z" fill="#CC142B"/>
<path fill-rule="evenodd" clip-rule="evenodd" d="M391.693 34.1821L398.307 54.6684L419.835 54.6271L402.393 67.2468L409.086 87.7074L391.693 75.0205L374.301 87.7074L380.991 67.2468L363.551 54.6271L385.08 54.6684L391.693 34.1821Z" fill="white"/>
<path fill-rule="evenodd" clip-rule="evenodd" d="M461.095 106.407L467.041 124.829L486.4 124.792L470.718 136.14L476.734 154.539L461.095 143.13L445.456 154.539L451.472 136.14L435.79 124.792L455.149 124.829L461.095 106.407Z" fill="white"/>
<path fill-rule="evenodd" clip-rule="evenodd" d="M311.342 124.927L317.955 145.413L339.481 145.372L322.041 157.991L328.734 178.452L311.342 165.765L293.949 178.452L300.64 157.991L283.2 145.372L304.728 145.413L311.342 124.927Z" fill="white"/>
<path fill-rule="evenodd" clip-rule="evenodd" d="M391.334 244.098L398.618 266.659L422.326 266.612L403.119 280.511L410.487 303.045L391.334 289.073L372.179 303.045L379.549 280.511L360.342 266.612L384.051 266.659L391.334 244.098Z" fill="white"/>
<path fill-rule="evenodd" clip-rule="evenodd" d="M391.334 255.521L396.004 269.989L411.207 269.959L398.89 278.873L403.617 293.322L391.334 284.363L379.052 293.322L383.776 278.873L371.459 269.959L386.662 269.989L391.334 255.521Z" fill="#CC142B"/>
<path fill-rule="evenodd" clip-rule="evenodd" d="M311.342 136.341L315.343 148.742L328.375 148.717L317.819 156.356L321.868 168.741L311.342 161.061L300.813 168.741L304.864 156.356L294.306 148.717L307.338 148.742L311.342 136.341Z" fill="#CC142B"/>
<path fill-rule="evenodd" clip-rule="evenodd" d="M461.095 117.828L464.429 128.159L475.287 128.138L466.491 134.503L469.866 144.821L461.095 138.423L452.324 144.821L455.699 134.503L446.902 128.138L457.758 128.159L461.095 117.828Z" fill="#CC142B"/>
<path fill-rule="evenodd" clip-rule="evenodd" d="M391.693 45.5963L395.697 57.997L408.727 57.972L398.17 65.611L402.22 77.9966L391.693 70.3169L381.164 77.9966L385.216 65.611L374.659 57.972L387.689 57.997L391.693 45.5963Z" fill="#CC142B"/>
</svg>
