<svg xmlns="http://www.w3.org/2000/svg" height="512" width="512" viewBox="0 0 512 512"><defs><clipPath id="a"><path fill-opacity=".67" d="M0 0h512v512h-512z"/></clipPath></defs><g clip-path="url(#a)"><path fill-rule="evenodd" fill="#ef2d29" d="M-23.298-21.609h554.71v553.02h-554.71z"/><path fill-rule="evenodd" fill="#009025" d="M164.57 341.33h376.55v207.56h-376.55z"/><path fill-rule="evenodd" fill="#fff" d="M164.57-19.415h376.55v190.08h-376.55z"/><g stroke="#ef2d28"><g fill-rule="evenodd" fill="#fff" transform="matrix(.195 0 0 .174 109.217 -5.34)"><rect rx="11.491" ry="12.053" height="85.039" width="138.19" y="467.72" x="17.717"/><rect rx="10.901" ry="11.049" height="77.953" width="131.1" y="471.26" x="21.26"/><path d="M82.219 492.52l6.622.259.301 3.362 5.418 3.103 4.214-3.879 5.117 3.103-4.815 3.363 1.203 4.655 6.019-.259v6.207l-4.815-.259-2.408 3.879 5.418 4.397-4.214 3.621-4.516-3.879-6.621 1.552.301 5.69-7.224.517-.903-5.431-6.02-2.845-3.311 3.879-5.118-2.845 3.01-4.397-3.612-2.845h-5.116l-.301-8.017 5.117.517 3.612-4.655-4.214-3.621 5.418-4.138 3.913 3.362 6.622-1.035.903-3.363z"/><ellipse transform="matrix(.658 0 0 .702 38.845 209.62)" cx="68.944" rx="11.049" cy="426.78" ry="9.944"/><path d="M38.976 474.8l-10.63 10.63m17.717-10.63l-10.63 10.63m17.716-10.63l-10.63 10.63m17.717-10.63l-10.63 10.63m17.716-10.63l-10.63 10.63m17.717-10.63l-10.63 10.63m17.717-10.63l-10.63 10.63m17.716-10.63l-10.63 10.63m17.717-10.63l-10.63 10.63m17.716-10.63l-10.63 10.63m17.717-10.63l-10.63 10.63m17.717-10.63l-10.63 10.63m-17.717-10.63l-10.63 10.63m46.063-10.63l-10.63 10.63m17.717-10.63l-10.63 10.63m17.717-10.63l-10.63 10.63m17.717-10.63l-10.63 10.63m-.002-10.63l10.63 10.63m-17.71-10.63l10.63 10.63m-17.72-10.63l10.63 10.63m-17.72-10.63l10.63 10.63m-17.71-10.63l10.63 10.63m-17.72-10.63l10.63 10.63m-17.72-10.63l10.63 10.63m-17.71-10.63l10.63 10.63m-17.72-10.63l10.63 10.63m-17.72-10.63l10.63 10.63m-17.71-10.63l10.63 10.63m-17.721-10.63l10.63 10.63m17.721-10.63l10.63 10.63m-46.067-10.63l10.63 10.63m-17.717-10.63l10.63 10.63m-17.716-10.63l10.63 10.63m-17.717-10.63l10.63 10.63M38.976 535.036l-10.63 10.63m17.717-10.63l-10.63 10.63m17.716-10.63l-10.63 10.63m17.717-10.63l-10.63 10.63m17.716-10.63l-10.63 10.63m17.717-10.63l-10.63 10.63m17.717-10.63l-10.63 10.63m17.716-10.63l-10.63 10.63m17.717-10.63l-10.63 10.63m17.716-10.63l-10.63 10.63m17.717-10.63l-10.63 10.63m17.717-10.63l-10.63 10.63m-17.717-10.63l-10.63 10.63m46.063-10.63l-10.63 10.63m17.717-10.63l-10.63 10.63m17.717-10.63l-10.63 10.63m17.717-10.63l-10.63 10.63m-.002-10.63l10.63 10.63m-17.71-10.63l10.63 10.63m-17.72-10.63l10.63 10.63m-17.72-10.63l10.63 10.63m-17.71-10.63l10.63 10.63m-17.72-10.63l10.63 10.63m-17.72-10.63l10.63 10.63m-17.71-10.63l10.63 10.63m-17.72-10.63l10.63 10.63m-17.72-10.63l10.63 10.63m-17.71-10.63l10.63 10.63m-17.721-10.63l10.63 10.63m17.721-10.63l10.63 10.63m-46.067-10.63l10.63 10.63m-17.717-10.63l10.63 10.63m-17.716-10.63l10.63 10.63m-17.717-10.63l10.63 10.63"/></g><g fill-rule="evenodd" fill="#fff" transform="matrix(.195 0 0 .174 18.63 -5.958)"><rect rx="11.491" ry="12.053" height="85.039" width="138.19" y="467.72" x="17.717"/><rect rx="10.901" ry="11.049" height="77.953" width="131.1" y="471.26" x="21.26"/><path d="M82.219 492.52l6.622.259.301 3.362 5.418 3.103 4.214-3.879 5.117 3.103-4.815 3.363 1.203 4.655 6.019-.259v6.207l-4.815-.259-2.408 3.879 5.418 4.397-4.214 3.621-4.516-3.879-6.621 1.552.301 5.69-7.224.517-.903-5.431-6.02-2.845-3.311 3.879-5.118-2.845 3.01-4.397-3.612-2.845h-5.116l-.301-8.017 5.117.517 3.612-4.655-4.214-3.621 5.418-4.138 3.913 3.362 6.622-1.035.903-3.363z"/><ellipse transform="matrix(.658 0 0 .702 38.845 209.62)" cx="68.944" rx="11.049" cy="426.78" ry="9.944"/><path d="M38.976 474.8l-10.63 10.63m17.717-10.63l-10.63 10.63m17.716-10.63l-10.63 10.63m17.717-10.63l-10.63 10.63m17.716-10.63l-10.63 10.63m17.717-10.63l-10.63 10.63m17.717-10.63l-10.63 10.63m17.716-10.63l-10.63 10.63m17.717-10.63l-10.63 10.63m17.716-10.63l-10.63 10.63m17.717-10.63l-10.63 10.63m17.717-10.63l-10.63 10.63m-17.717-10.63l-10.63 10.63m46.063-10.63l-10.63 10.63m17.717-10.63l-10.63 10.63m17.717-10.63l-10.63 10.63m17.717-10.63l-10.63 10.63m-.002-10.63l10.63 10.63m-17.71-10.63l10.63 10.63m-17.72-10.63l10.63 10.63m-17.72-10.63l10.63 10.63m-17.71-10.63l10.63 10.63m-17.72-10.63l10.63 10.63m-17.72-10.63l10.63 10.63m-17.71-10.63l10.63 10.63m-17.72-10.63l10.63 10.63m-17.72-10.63l10.63 10.63m-17.71-10.63l10.63 10.63m-17.721-10.63l10.63 10.63m17.721-10.63l10.63 10.63m-46.067-10.63l10.63 10.63m-17.717-10.63l10.63 10.63m-17.716-10.63l10.63 10.63m-17.717-10.63l10.63 10.63M38.976 535.036l-10.63 10.63m17.717-10.63l-10.63 10.63m17.716-10.63l-10.63 10.63m17.717-10.63l-10.63 10.63m17.716-10.63l-10.63 10.63m17.717-10.63l-10.63 10.63m17.717-10.63l-10.63 10.63m17.716-10.63l-10.63 10.63m17.717-10.63l-10.63 10.63m17.716-10.63l-10.63 10.63m17.717-10.63l-10.63 10.63m17.717-10.63l-10.63 10.63m-17.717-10.63l-10.63 10.63m46.063-10.63l-10.63 10.63m17.717-10.63l-10.63 10.63m17.717-10.63l-10.63 10.63m17.717-10.63l-10.63 10.63m-.002-10.63l10.63 10.63m-17.71-10.63l10.63 10.63m-17.72-10.63l10.63 10.63m-17.72-10.63l10.63 10.63m-17.71-10.63l10.63 10.63m-17.72-10.63l10.63 10.63m-17.72-10.63l10.63 10.63m-17.71-10.63l10.63 10.63m-17.72-10.63l10.63 10.63m-17.72-10.63l10.63 10.63m-17.71-10.63l10.63 10.63m-17.721-10.63l10.63 10.63m17.721-10.63l10.63 10.63m-46.067-10.63l10.63 10.63m-17.717-10.63l10.63 10.63m-17.716-10.63l10.63 10.63m-17.717-10.63l10.63 10.63"/></g><path d="M64.4 106.75c-33.555 32.903-47.868 37.064-41.15 39.716s28.325-14.329 50.809-36.884 36.254-42.629 29.536-45.281-3.508 7.456-39.197 42.451zM36.144 130.665l11.756 3.091c-11.064 10.509-23.511 14.837-26.969 12.982-3.458-1.854 6.224-6.182 15.213-16.073zM36.144 131.9l9.681 2.473c-10.777 10.105-21.438 12.982-24.196 11.746-2.774-1.236 5.758-4.708 14.514-14.218z" fill-rule="evenodd" fill="#fff"/><path d="M72.254 105.315c-.026.155-.103.863-.172 1.144 0 .389-.04.687-.086.992-.109.266-.091.512-.429.61-.233.321-.379.404-.687.534-.21.161-.528.322-.859.458-.343.131-.656.149-1.031.076l-.773-.534-.172-.839c.093.247.158.643.172.992-.033.381-.174.547-.344.839M69.078 110.426l-.086-.076c.204.181.121.095-.344-.153-.333-.152-.689-.233-1.117-.305h-1.203c-.468 0-.783.062-1.117.153-.242.215-.604.337-.859.534-.262.158-.374.345-.515.61-.234.208-.385.528-.601.687-.097.35-.294.338-.429.61.405.028.73.077.945.305.357.164-.299-.161-.429-.305-.281-.075-.354-.153-.773-.153-.392-.11-.629.09-1.031.153-.234.12-.299.153-.601.153M64.438 114.242c-.175.009-.973.14-1.289 0-.351-.085-.559-.249-.773-.534-.105-.206 0 .366 0 .61-.039.449-.188.453-.429.763-.249.142-.512.342-.773.458-.217.167-.483.278-.773.381-.261.11-.565.221-.773.381-.287.182-.259.4-.429.687.032.373.101.585.344.763.101.258.329.513.515.687.212.35.448.516-.086.61-.293.112-.457.024-.773 0M59.026 119.58c-.211-.048-.96-.27-1.288-.381h-1.203c-.466.032-.555.153-.945.305-.252.228-.425.386-.773.534-.184.212-.543.571-.687.839-.102.26-.172.612-.172.992.006.445.138.521.172.915.096.328.253.628.515.915.036.097.063.12.172.153" fill="none"/><path d="M538.13 817.98c.374 0 1.201 2.018 2.5 3.75 2.828 2.906 3.192 3.125 7.5 3.125 3.884-.143 3.522-1.532 6.25-2.5 1.289-2.008 2.896-3.6 4.375-6.25 1.006-1.634 1.89-4.129 3.125-5.625 1.141-1.854 2.563-3.254 3.75-5 1.172-.502 1.618-.984 3.126-1.25-3.6.578-3.915 1.867-6.251 3.75-1.094 1.779-2.181 3.633-3.125 5.625-.361 2.673-1.21 4.779-1.25 8.125 0 3.457.017 5.872 1.25 8.75 1.473 1.545 2.563 3.143 4.375 4.376 1.439 1.405 3.244 3.336 4.376 5 1.96 1.206 3.385 2.189 5.625 3.75 1.884 1.102 3.915 2.234 6.875 2.5 3.67-.262 4.755-1.297 7.5-2.5 2.329-1.713 4.163-2.838 6.25-4.375 1.629-1.141 3.288-3.403 4.375-5 3.382-.846 5.529-.508 7.5 1.25a16.536 16.536 0 0 1 4.375 4.375l3.75 2.5" transform="matrix(-.098 0 0 .096 107.445 46.037)" fill="none"/><path d="M48.214 127.339c.097.04.451.285.607.376.097.316.252.489.303.827.082.326.076.684.076 1.052-.083.384-.244.668-.379.977-.239.161-.36.28-.682.451-.303.041-.599.075-.986.075-.231.076-.681.113-.91 0-.338-.045-.589-.181-.834-.301-.28-.157-.452-.306-.758-.451-.149-.217-.38-.416-.607-.676-.189-.253-.328-.395-.455-.676l.379.902c.173.32.273.433.303.827.106.314.076.693.076 1.052-.033.244-.051.702-.152.902v.225" fill="none"/><path d="M541.26 799.23v.625c0-1.687.041-.83-.625 2.5-1.179 1.462-3.944 1.868-6.25 1.25-2.022-1.67-1.96-2.935-5.625-3.75-3.542.253-4.892 1.279-6.875 2.5-2.354 1.177-3.438 1.771-5 4.375-.776 2.12-1.209 3.555 1.25 4.375 1.954 1.386 4.277 2.149 6.875 2.5 2.887 0 4.968-.339 6.25 1.25 1.983 2.055 1.875 3.277 1.875 6.875.667 1.112.799 4.394 1.25 5.625 1.736.823 2.755 1.25 5.625 1.25.674-1.931 1.423-5.419 1.875-7.5.489-2.248.64-5.379 1.875-6.875a16.58 16.58 0 0 1 4.375-4.375c.766-1.073 2.223-1.965 3.75-2.5-2.452 1.251-2.801 2.603-3.125 5.625 2.155 1.078 2.731 1.833 6.25 1.875 3.459-.291 4.295-1.169 5.625-3.125.242 3.136 1.243 4.186 1.875 6.875 1.286 1.891 1.832 3.828 3.125 6.25-.551 3.012-1.737 3.163-1.875 6.875-.811 2.435-.723 4.783-2.5 6.251-.792.968-1.384 1.158-3.125 1.25 3.618 0 5.727-.391 8.125-1.875 1.854-1.141 3.255-2.563 5.001-3.75 2.212-1.603 4.947-3.085 7.5-3.751 2.887 0 4.968-.339 6.25 1.25 1.77 1.265 2.959 3.447 3.75 6.251.579 3.244.8 5.404-.625 7.5-1.057 2.408-1.297 3.346 0 6.25 1.452 2.033 3.617 2.272 6.875 3.125 2.379-.128 4.668-.671 6.25-1.25" transform="matrix(-.195 0 0 .174 142.637 -5.34)" fill="none"/><g fill-rule="evenodd" transform="matrix(-.195 0 0 .174 142.637 -5.34)"><path d="M204.754 472.255c-76.29-147.71-126.927-273.425-113.024-280.606 13.902-7.18 87.101 106.871 163.396 254.59l-50.372 26.016zM209.8 469.657c-73.598-142.497-124.307-262.816-113.184-268.561 11.122-5.744 79.879 105.242 153.482 247.748" fill="#fff"/><path d="M222.454 395.328c8.945 16.661 18.442 35.707 27.642 53.519l-40.298 20.813c-9.2-17.812-19.234-36.581-27.642-53.519l40.298-20.813zM219.032 401.079c8.945 16.661 15.19 29.411 24.39 47.223l-30.223 15.61c-9.2-17.812-15.982-30.285-24.39-47.223l30.223-15.61zM197.108 420.382l20.148-10.406 17.886 34.63-20.148 10.406zm0 0l38.034 24.224m-20.147 10.41l2.263-45.036m-111.203-165.891l20.148-10.406" fill="#fff"/><ellipse fill="#ef0000" transform="matrix(1.605 .454 -.362 1.579 -734.9 -170.85)" cx="545.67" rx="3.543" cy="92.126" ry="3.543"/></g><path d="M96.867 106.133c33.555 32.903 47.868 37.064 41.15 39.716s-28.325-14.329-50.809-36.884-36.254-42.629-29.536-45.281 3.508 7.456 39.197 42.451zM125.123 130.047l-11.756 3.091c11.064 10.509 23.511 14.837 26.969 12.982 3.458-1.854-6.224-6.182-15.213-16.073zM125.122 131.283l-9.681 2.473c10.777 10.105 21.438 12.982 24.196 11.746 2.774-1.236-5.758-4.708-14.514-14.218z" fill-rule="evenodd" fill="#fff"/><path d="M89.012 104.698c.026.155.103.863.172 1.144 0 .389.04.687.086.992.109.266.091.512.429.61.233.321.379.404.687.534.21.161.528.322.859.458.343.131.656.149 1.031.076l.773-.534.172-.839c-.093.247-.158.643-.172.992.033.381.174.547.344.839M92.189 109.809l.086-.076c-.204.181-.121.095.344-.153.333-.152.689-.233 1.117-.305h1.203c.468 0 .783.062 1.117.153.242.215.604.337.859.534.262.158.374.345.515.61.234.208.385.528.601.687.097.35.294.338.429.61-.405.028-.73.077-.945.305-.357.164.299-.161.429-.305.281-.075.354-.153.773-.153.392-.11.629.09 1.031.153.234.12.299.153.601.153M96.829 113.625c.175.009.973.14 1.289 0 .351-.085.559-.249.773-.534.105-.206 0 .366 0 .61.039.449.188.453.429.763.249.142.512.342.773.458.217.167.483.278.773.381.261.11.565.221.773.381.287.182.259.4.429.687-.032.373-.101.585-.344.763-.101.258-.329.513-.515.687-.212.35-.448.516.086.61.293.112.457.024.773 0M102.241 118.964c.211-.048.96-.27 1.288-.381h1.203c.466.032.555.153.945.305.252.228.425.386.773.534.184.212.543.571.687.839.102.26.172.612.172.992-.006.445-.138.521-.172.915-.096.328-.253.628-.515.915-.036.097-.063.12-.172.153" fill="none"/><path d="M538.13 817.98c.374 0 1.201 2.018 2.5 3.75 2.828 2.906 3.192 3.125 7.5 3.125 3.884-.143 3.522-1.532 6.25-2.5 1.289-2.008 2.896-3.6 4.375-6.25 1.006-1.634 1.89-4.129 3.125-5.625 1.141-1.854 2.563-3.254 3.75-5 1.172-.502 1.618-.984 3.126-1.25-3.6.578-3.915 1.867-6.251 3.75-1.094 1.779-2.181 3.633-3.125 5.625-.361 2.673-1.21 4.779-1.25 8.125 0 3.457.017 5.872 1.25 8.75 1.473 1.545 2.563 3.143 4.375 4.376 1.439 1.405 3.244 3.336 4.376 5 1.96 1.206 3.385 2.189 5.625 3.75 1.884 1.102 3.915 2.234 6.875 2.5 3.67-.262 4.755-1.297 7.5-2.5 2.329-1.713 4.163-2.838 6.25-4.375 1.629-1.141 3.288-3.403 4.375-5 3.382-.846 5.529-.508 7.5 1.25a16.536 16.536 0 0 1 4.375 4.375l3.75 2.5" transform="matrix(.098 0 0 .096 53.821 45.42)" fill="none"/><path d="M113.052 126.722c-.097.04-.451.285-.607.376-.097.316-.252.489-.303.827-.082.326-.076.684-.076 1.052.083.384.244.668.379.977.239.161.36.28.682.451.303.041.599.075.986.075.231.076.681.113.91 0 .338-.045.589-.181.834-.301.28-.157.452-.306.758-.451.149-.217.38-.416.607-.676.189-.253.328-.395.455-.676l-.379.902c-.173.32-.273.433-.303.827-.106.314-.076.693-.076 1.052.033.244.051.702.152.902v.225" fill="none"/><path d="M541.26 799.23v.625c0-1.687.041-.83-.625 2.5-1.179 1.462-3.944 1.868-6.25 1.25-2.022-1.67-1.96-2.935-5.625-3.75-3.542.253-4.892 1.279-6.875 2.5-2.354 1.177-3.438 1.771-5 4.375-.776 2.12-1.209 3.555 1.25 4.375 1.954 1.386 4.277 2.149 6.875 2.5 2.887 0 4.968-.339 6.25 1.25 1.983 2.055 1.875 3.277 1.875 6.875.667 1.112.799 4.394 1.25 5.625 1.736.823 2.755 1.25 5.625 1.25.674-1.931 1.423-5.419 1.875-7.5.489-2.248.64-5.379 1.875-6.875a16.58 16.58 0 0 1 4.375-4.375c.766-1.073 2.223-1.965 3.75-2.5-2.452 1.251-2.801 2.603-3.125 5.625 2.155 1.078 2.731 1.833 6.25 1.875 3.459-.291 4.295-1.169 5.625-3.125.242 3.136 1.243 4.186 1.875 6.875 1.286 1.891 1.832 3.828 3.125 6.25-.551 3.012-1.737 3.163-1.875 6.875-.811 2.435-.723 4.783-2.5 6.251-.792.968-1.384 1.158-3.125 1.25 3.618 0 5.727-.391 8.125-1.875 1.854-1.141 3.255-2.563 5.001-3.75 2.212-1.603 4.947-3.085 7.5-3.751 2.887 0 4.968-.339 6.25 1.25 1.77 1.265 2.959 3.447 3.75 6.251.579 3.244.8 5.404-.625 7.5-1.057 2.408-1.297 3.346 0 6.25 1.452 2.033 3.617 2.272 6.875 3.125 2.379-.128 4.668-.671 6.25-1.25" transform="matrix(.195 0 0 .174 18.63 -5.958)" fill="none"/><g fill-rule="evenodd" transform="matrix(.195 0 0 .174 18.63 -5.958)"><path d="M204.754 472.255c-76.29-147.71-126.927-273.425-113.024-280.606 13.902-7.18 87.101 106.871 163.396 254.59l-50.372 26.016zM209.8 469.657c-73.598-142.497-124.307-262.816-113.184-268.561 11.122-5.744 79.879 105.242 153.482 247.748" fill="#fff"/><path d="M222.454 395.328c8.945 16.661 18.442 35.707 27.642 53.519l-40.298 20.813c-9.2-17.812-19.234-36.581-27.642-53.519l40.298-20.813zM219.032 401.079c8.945 16.661 15.19 29.411 24.39 47.223l-30.223 15.61c-9.2-17.812-15.982-30.285-24.39-47.223l30.223-15.61zM197.108 420.382l20.148-10.406 17.886 34.63-20.148 10.406zm0 0l38.034 24.224m-20.147 10.41l2.263-45.036m-111.203-165.891l20.148-10.406" fill="#fff"/><ellipse fill="#ef0000" transform="matrix(1.605 .454 -.362 1.579 -734.9 -170.85)" cx="545.67" rx="3.543" cy="92.126" ry="3.543"/></g><g fill-rule="evenodd" fill="#fff" transform="matrix(.195 0 0 .174 18.63 -5.958)"><path d="M265.73 396.85c0 124.02.655 170.76-7.493 177.17-7.72 6.857-222.821 0-222.821 35.433s177.156 70.867 230.314 70.866c70.864 0 106.295-35.433 106.295-106.3v-177.17h-106.295zM265.75 432.283v17.717c35.433 5.906 70.866 5.906 106.3 0v-17.717c-35.433 5.906-70.866 5.906-106.3 0zM265.75 396.85v17.717c35.433 5.906 70.866 5.906 106.3 0v-17.717c-35.433 5.906-70.866 5.906-106.3 0zM265.75 414.567v17.717c35.433 5.906 70.866 5.906 106.3 0v-17.717c-35.433 5.906-70.866 5.906-106.3 0zM265.75 450v17.717c35.433 5.906 70.866 5.906 106.3 0v-17.717c-35.433 5.906-70.866 5.906-106.3 0z"/><ellipse transform="matrix(.545 0 0 .144 130.46 394.32)" cx="256.89" rx="8.858" cy="210.83" ry="26.575"/><ellipse transform="matrix(.545 0 0 .144 130.46 391.13)" cx="292.32" rx="8.858" cy="246.26" ry="26.575"/><ellipse transform="matrix(.545 0 0 .144 130.46 390.49)" cx="327.76" rx="8.858" cy="263.98" ry="26.575"/><ellipse transform="matrix(.545 0 0 .144 130.46 390.49)" cx="363.19" rx="8.858" cy="263.98" ry="26.575"/><ellipse transform="matrix(.545 0 0 .144 130.46 391.13)" cx="398.62" rx="8.858" cy="246.26" ry="26.575"/><ellipse transform="matrix(.545 0 0 .144 130.46 394.32)" cx="434.06" rx="8.858" cy="210.83" ry="26.575"/><path d="M265.75 485.43l106.3 95.669m-95.67-95.669l95.669 85.039m-81.499-81.489l81.496 70.866m-70.866-70.866l70.866 60.237m-60.236-60.237l60.236 49.607m-49.606-49.607l49.606 38.977m-38.976-38.977l38.976 28.347m-28.346-28.347l28.346 21.26m-17.716-21.26l17.716 14.174m-7.086-14.174l7.086 7.087m-106.296-.007l106.3 95.669m0-106.299l-116.93 106.3m106.3-106.3l-102.76 92.126m88.59-88.576l-81.496 70.866m70.866-70.866l-70.866 60.237m60.236-60.237l-60.236 49.607m49.606-49.607l-49.606 38.977m38.976-38.977l-38.976 28.347m28.346-28.347l-28.346 21.26m17.716-21.26l-17.716 14.174m7.086-14.174l-7.086 7.087m106.296-.007l-116.93 106.3m116.93-95.67l-116.93 106.3m116.93-95.67l-116.93 106.3m116.93-95.67l-116.93 106.3m116.93-95.67l-116.93 106.3m116.93-95.67l-116.93 106.3m116.93-95.67l-116.93 106.3m116.93-95.67l-116.93 106.3m116.93-95.67l-109.84 99.21m109.84-88.58l-99.212 88.583m95.662-74.413l-77.953 70.866m74.413-56.686l-63.779 56.693m56.689-38.983l-31.89 28.346m-60.23-159.446l102.76 92.126m-102.763-81.489l102.76 92.126m-102.76-81.496l99.213 88.583m-99.213-77.953l99.213 88.583m-99.207-77.957l95.67 85.039m-99.219-77.949l95.669 85.04m-95.669-74.41l88.583 77.953m-92.124-70.873l88.583 77.953m-92.132-70.863l85.04 74.409m-85.041-63.782l81.496 70.865m-81.496-60.235l70.866 63.779"/><path d="M265.75 467.716v17.717c35.433 5.906 70.866 5.906 106.3 0v-17.717c-35.433 5.906-70.866 5.906-106.3 0zM255.114 612.99l63.78 56.692m-63.78-46.062l56.693 49.606m-56.694-38.976l49.606 42.519m-49.605-31.889l35.434 31.889m-35.434-21.259l28.347 24.804m-28.348-14.174l17.716 14.173"/><ellipse transform="matrix(.545 0 0 .144 130.46 447.47)" cx="256.89" rx="8.858" cy="210.83" ry="26.575"/><ellipse transform="matrix(.545 0 0 .144 130.46 444.28)" cx="292.32" rx="8.858" cy="246.26" ry="26.575"/><ellipse transform="matrix(.545 0 0 .144 130.46 443.64)" cx="327.76" rx="8.858" cy="263.98" ry="26.575"/><ellipse transform="matrix(.545 0 0 .144 130.46 443.64)" cx="363.19" rx="8.858" cy="263.98" ry="26.575"/><ellipse transform="matrix(.545 0 0 .144 130.46 444.28)" cx="398.62" rx="8.858" cy="246.26" ry="26.575"/><ellipse transform="matrix(.545 0 0 .144 130.46 447.47)" cx="434.06" rx="8.858" cy="210.83" ry="26.575"/><path d="M113.39 651.97l127.55-74.41m-134.637 70.867l120.47-70.87m-124.013 63.784l109.84-63.78m-113.383 56.693l95.669-56.693m-102.759 49.599l88.583-49.606m-85.043 38.983l60.236-35.433m-63.776 28.35l46.063-28.346m-46.066 17.709l31.89-17.717m-.001 74.407l120.47-70.86m-109.836 74.407l113.38-67.32m-102.747 70.866l106.3-63.78m-95.67 67.324l88.583-53.15m-74.41 53.142l77.952-46.063m-67.322 49.607l67.323-38.976m-56.7 42.523l53.15-31.89m-38.976 31.896l42.52-24.803m-28.35 28.347l28.347-17.717m-14.164 17.713l17.717-10.63"/><path d="M258.664 574.02h-17.717c-5.906 35.433-5.906 70.866 0 106.3h17.717c-5.906-35.433-5.906-70.866 0-106.3zM49.61 623.624l42.52-35.433m-42.52 10.609l42.52 42.52"/><path d="M113.388 581.101l-21.26 3.543c-4.725 22.441-4.725 41.338 0 63.776l21.26 7.087c-4.725-22.441-4.725-51.969 0-74.41zM371.917 403.939v-17.865c-15.927.149-26.544-10.481-26.545-21.26l-53.088.149c0 10.63-10.618 21.26-26.545 21.26v17.716h106.179zM296.09 343.7h45.506v21.26h-45.506zm3.79-21.26h37.922v21.26h-37.922zm0-21.26h37.922v21.26h-37.922zm3.79-28.35h30.337v28.346h-30.337zM302.36 248.03h32.953v24.803h-32.953z"/><ellipse transform="matrix(1.033 0 0 1 75.354 63.779)" cx="237.4" rx="42.52" cy="161.22" ry="33.661"/><path d="M342.627 223.229c0 9.291 10.984 24.803 10.984 24.803-7.952 6.093-20.825 10.63-32.951 10.63s-27.226-2.528-32.952-10.63c0 0 10.984-15.512 10.984-24.803l-10.984-21.26c7.952-6.093 20.825-10.63 32.952-10.63 12.126 0 24.999 4.537 32.951 10.63 0 0-10.984 11.969-10.984 21.26zM335.312 223.229c0 9.291 10.984 28.346 10.984 28.346-7.952 6.093-13.503 7.087-25.629 7.087s-19.903 1.015-25.629-7.087c0 0 10.984-19.055 10.984-28.346l-10.984-24.803c7.952-6.093 13.502-7.087 25.629-7.087 12.126 0 17.677.994 25.629 7.087 0 0-10.984 15.512-10.984 24.803z"/><ellipse transform="matrix(1.033 0 0 1 75.354 60.236)" cx="194.88" rx="10.63" cy="166.54" ry="10.63"/><ellipse transform="matrix(1.033 0 0 1 163.23 60.236)" cx="194.88" rx="10.63" cy="166.54" ry="10.63"/><ellipse transform="matrix(1.033 0 0 1 119.29 60.236)" cx="194.88" rx="10.63" cy="166.54" ry="10.63"/><ellipse transform="matrix(1.033 0 0 1 119.29 24.803)" cx="194.88" rx="10.63" cy="166.54" ry="10.63"/><ellipse transform="matrix(1.07 0 0 1 79.931 226.77)" cx="194.88" rx="10.63" cy="166.54" ry="10.63"/><ellipse transform="matrix(1.07 0 0 1 140.61 226.77)" cx="194.88" rx="10.63" cy="166.54" ry="10.63"/><path d="M292.287 364.959h53.089l-26.544 31.89-26.545-31.89z"/><ellipse transform="matrix(1.427 0 0 1.333 40.745 167.72)" cx="194.88" rx="10.63" cy="166.54" ry="10.63"/></g><g fill-rule="evenodd" fill="#fff" transform="matrix(.195 0 0 .174 18.285 -10.895)"><rect rx="4.423" ry="3.75" height="21.26" width="81.496" y="524.41" x="262.2"/><path d="M368.51 506.69c-9.814 0-17.716 8.259-17.716 18.519v16.111c0 10.26 7.902 18.52 17.716 18.52 9.815 0 17.717-8.26 17.717-18.52v-16.111c0-10.26-7.902-18.519-17.717-18.519zm0 7.087c-5.888 0-10.63 6.608-10.63 14.816v9.345c0 8.208 4.742 14.816 10.63 14.816 5.889 0 10.63-6.608 10.63-14.816v-9.345c0-8.208-4.741-14.816-10.63-14.816zm-92.13-3.537c-5.888 0-10.63 6.608-10.63 14.816v16.432c0 8.208 4.742 14.816 10.63 14.816 5.889 0 10.63-6.608 10.63-14.816v-16.432c0-8.208-4.741-14.816-10.63-14.816zm0-7.087c-9.814 0-17.716 8.259-17.716 18.519v23.198c0 10.26 7.902 18.52 17.716 18.52 9.815 0 17.717-8.26 17.717-18.52v-23.198c0-10.26-7.902-18.519-17.717-18.519zM248.03 517.32c-5.888 0-10.63 6.608-10.63 14.816l-.001 3.864c0 8.208 4.742 14.816 10.63 14.816 5.889 0 10.63-6.608 10.63-14.816l.001-3.864c0-8.208-4.741-14.816-10.63-14.816zm0-7.087c-9.814 0-17.716 8.259-17.716 18.519l-.001 10.63c0 10.26 7.902 18.52 17.716 18.52 9.815 0 17.717-8.26 17.717-18.52l.001-10.63c0-10.26-7.902-18.519-17.717-18.519zM205.52 507.518c-10.598 0-19.134 7.385-19.134 16.558v18.364c0 9.173 8.536 16.558 19.134 16.558 10.6 0 19.134-7.385 19.134-16.558v-18.364c0-9.173-8.534-16.558-19.134-16.558zm0-7.92c-17.665 0-31.889 9.23-31.889 20.697v25.926c0 11.467 14.224 20.698 31.889 20.698 17.667 0 31.891-9.231 31.891-20.698v-25.926c0-11.467-14.224-20.697-31.891-20.697zM435.83 511.058c-10.598 0-19.134 7.385-19.134 16.558v18.364c0 9.173 8.536 16.558 19.134 16.558 10.6 0 19.134-7.385 19.134-16.558v-18.364c0-9.173-8.534-16.558-19.134-16.558zm0-7.92c-17.665 0-31.889 9.23-31.889 20.697v25.926c0 11.467 14.224 20.698 31.889 20.698 17.667 0 31.891-9.231 31.891-20.698v-25.926c0-11.467-14.224-20.697-31.891-20.697z"/><rect rx="2.308" ry="3.75" height="21.26" width="42.52" y="524.41" x="375.59"/><rect rx="1.346" ry="5" height="28.346" width="24.803" y="520.87" x="336.61"/><rect rx="1.346" ry="5" height="28.346" width="24.803" y="520.87" x="219.69"/><rect rx="2.692" ry="6.25" height="35.433" width="49.606" y="517.32" x="141.73"/><rect rx="2.5" ry="6.25" height="35.433" width="46.063" y="520.87" x="450"/></g></g></g></svg>