<svg xmlns="http://www.w3.org/2000/svg" height="512" width="512" viewBox="0 0 512 512"><defs><clipPath id="a"><path fill-opacity=".67" d="M81.385 0h496.06v496.06h-496.06z"/></clipPath></defs><g clip-path="url(#a)"><g fill-rule="evenodd"><path d="M-83.47 0l-.53 511.934h680.14l-679.613-511.934z"/><path d="M595.609 511.934l.53-511.934h-680.14l679.613 511.934z" fill="#f00"/></g><path d="M335.929 127.394l-9.059-.472c-2.784-6.558-10.647-9.02-15.483-6.26-4.388.378-27.367-.347-27.367-.347l16.797 7.361c4.153 11.229 18.59 13.871 18.59 13.871-1.281 20.702-20.952-2.671-37.466 9.125-11.796 7.077-11.935 15.53-18.309 29.185-1.981 3.796-10.286 13.591-10.286 13.591l13.871-1.181-4.435 5.898 16.514-2.359s-2.219 1.851-3.54 3.256c2.447.479 18.874-3.845 18.874-3.845l-1.18 5.308c8.421-3.374 18.873-6.794 18.873-6.794s3.704 3.09 7.077 4.435l2.359-9.437 9.437 2.359 2.359-9.437c14.155 18.873 18.873 37.746 44.824 42.465l-2.359-9.437c7.219 3.091 20.619 9.649 20.619 9.649l2.028-4.317c11.253 8.068 20.596 7.926 26.894 8.824 0 0-4.695-11.749-4.717-11.796.307.118 4.695 2.382 4.718 2.358l-7.077-18.873 7.077 2.359-9.437-14.155 3.539-2.359-1.18-7.077c14.155 4.718 33.028 11.796 35.387 28.31 2.359 25.951-25.951 33.028-44.824 30.669 14.155 11.796 40.106 7.077 51.901-4.718 4.718-4.718 7.077-11.796 9.437-18.873 2.359 7.077 7.077 16.514 7.077 25.951-2.359 21.232-30.669 28.31-49.542 30.669 21.232 11.796 58.979-2.359 61.338-33.028 0-25.951-16.514-37.746-23.592-49.542-1.063-4.293-2.359-12.692-2.359-12.692.915.269 7.077 3.279 7.077 3.279s-4.177-7.808-4.718-9.46c0 0-7.361-20.052-10.027-24.487.439-.248 5.309.826 5.309.826l-19.322-24.228s4.662-.424 5.474-.568c0 0-22.459-17.716-28.617-19.958l7.078-2.359c-14.155-7.077-30.669-2.359-44.824 7.077l2.359-7.077-4.318.401v-8.092l4.318-6.464-7.077-2.359 4.718-11.796-7.077 2.359 2.359-11.796s-5.285 2.454-8.493 2.1c.118.259 3.751-8.068 3.751-8.068-2.242-3.515.024-10.546.024-10.546-16.514 2.359-18.873 4.718-28.31 18.873-14.155 25.951-9.437 37.746-7.077 63.697z" stroke="#fc0" fill="#fc0" stroke-width="2.359152"/><path d="M425.058 166.174c1.229 2.028 14.619 8.478 24.696 14.192-2.704-10.874-22.363-13.27-24.696-14.192z" fill-rule="evenodd" stroke="#f00" stroke-width="NaN" fill="#f00"/><path fill="#fff" fill-rule="evenodd" d="M100.707 425.591l-15.004-9.577-20.139 9.648 4.465-17.222-15.395-16.184 17.766-1.085 10.623-19.629 6.512 16.562 21.963 4.034-13.739 11.324zm38.508-84.198l-6.962-3.326-6.69 3.845 1.02-7.668-5.726-5.166 7.589-1.392 3.152-7.054 3.674 6.795 7.674.826-5.32 5.591zm33.932-48.291l-15.263-7.455-14.797 8.351 2.361-16.821-12.524-11.489 16.733-2.948 7.048-15.452 7.998 15.003 16.867 1.935-11.796 12.22zm-69.829-67.236l-17.981-9.009-17.613 9.703 3.012-19.884-14.675-13.753 19.843-3.28 8.548-18.204 9.25 17.858 19.954 2.504-14.124 14.315zm-64.615 69.83l-18.132-10.758-18.084 10.994 4.636-20.572-16.058-13.777 20.998-1.959 8.158-19.534 8.342 19.369 21.1 1.722-15.841 13.919z"/></g></svg>