<svg xmlns="http://www.w3.org/2000/svg" height="512" width="512" viewBox="0 0 512 512"><style>.prefix__st2{fill:#fff}.prefix__st3{fill:#cf142b}.prefix__st4,.prefix__st5,.prefix__st7{fill:#f7e017;stroke:#000;stroke-width:.5913;stroke-miterlimit:18.923}.prefix__st5,.prefix__st7{fill:#337321}.prefix__st7{fill:none}.prefix__st9{fill:#f7e017}.prefix__st10,.prefix__st12{fill:#fff;stroke:#000;stroke-width:.5913;stroke-miterlimit:18.923}.prefix__st12{fill:#96877d}</style><path id="prefix__rect8" fill="#00247d" d="M0 0h512v512H0z"/><defs><path id="prefix__SVGID_3_" d="M0 0h512v256H0z"/></defs><clipPath id="prefix__SVGID_1_"><use xlink:href="#prefix__SVGID_3_" overflow="visible"/></clipPath><g clip-path="url(#prefix__SVGID_1_)"><path class="prefix__st2" d="M500.6 278.9L256 156.6 11.4 278.9l-22.8-45.8L198.8 128-11.4 22.9l22.8-45.8L256 99.4 500.6-22.9l22.8 45.8L313.2 128l210.2 105.1z"/><path class="prefix__st3" d="M7.6 271.3L256 147.1V128L0 256zM0 19.1L217.8 128H256L0 0zM473.8 0L256 108.9V128L512 0zM294.2 128H256l256 128 7.6-15.3z"/><path class="prefix__st2" d="M298.7 298.7h-85.4v-128H0V85.3h213.3V0h85.4v85.3h298.6v85.4H298.7z"/><path class="prefix__st3" d="M281.6 298.7h-51.2V153.6H0v-51.2h230.4V0h51.2v102.4h315.7v51.2H281.6z"/></g><g id="prefix__g2791" transform="matrix(.11827 0 0 .11827 -18.381 -8.684)"><path id="prefix__path2793" class="prefix__st4" d="M2248.8 2748.8c-94.6 80.3-184.8 197.2-206.9 302.9-62.3 297.7-145.1 363.9-272.9 300 0 159.8 140.2 172.1 201.6 78.7 0 150 54.4 280 177 390.9 51.6 46.7 61.5 14.8 36.9-36.9-24.6-51.6-24.6-218.8-73.7-314.7 78.7 56.5 194.2 24.6 184.4-130.3-100.8 59-201 56.7-211.5-83.6-12.3-164.8 52-403.8 165.1-507z"/><path id="prefix__path2795" class="prefix__st4" d="M2129.1 1564.6c6.7-59.1-5.9-119.7-49.1-157.8-83.4-73.4-165.1-49.1-225.8 10-91-49.2-139.3 125.2-242.6 95.7 17.2 56.6 44.3 81.1 95.9 61.5-54.1 49.2 0 108.2-63.9 167.2 115.6 36.9 177-27 172.1-137.7 44.3 39.3 113.1 36.9 150-7.4-61.5-19.7-61.8-73.2-36.9-122.9 36.9-73.7 210.1-70.9 200.3 91.4z"/><path id="prefix__path2797" class="prefix__st5" d="M2395.9 2419.8c-130.3 68.8-368.8 39.3-390.9-130.3-22.1-169.7 142.6-245.9 186.9-268 69-34.5 122.9 27 100.8 98.3 76.2-27 93.4-115.6 56.5-167.2 100.8 7.4 194.2-68.8 233.6-177-35.4 33.7-131.8 10.9-211.1 5.8 24.6-27 24.3-79.5 16.9-106.6-83.6 86.1-204.1 46.7-363.9 295 24.6-86.1 71.3-258.2 98.3-371.3 2.7-11.3 4.8-22.4 6.1-34 9.8-162.3-163.2-165.2-200.1-91.4 40.4 45.6 19.2 98.8 4.7 179.5-17.2 95.9-54.1 317.2-86.1 390.9-9.8-115.6-86.1-122.9-100.8-179.5-22.1 14.7-34.4 54.1-29.5 81.1-27.1-29.5-120.5 7.4-154.9-36.9-36.9 73.8 22.1 147.5 83.6 179.5-35.6 2.5-44.2 45.5-83.6 45.5 52.9 61.5 106.9 86.1 169.6 91 62.7 4.9 109.4 28.3 147.5 104.5 61.6 123.1 295.8 203 516.4 91.1z"/><path id="prefix__path2799" class="prefix__st4" d="M2720.5 2269.8c-73.7 204.1-275.4 349.1-366.4 371.3-154.8 37.7-470.6 190.9-555.3 269.8-13.4-3-25.8-7.8-34.8-14.1-41.8-29.5-76.2-125.4-2.4-206.5 231.1-216.4 479.4-122.9 634.4-270.5-130.3 68.8-368.8 39.3-390.9-130.3 140.2 36.9 393.4 39.3 595-177 27 29.5 105.6 122.9 120.4 157.3z"/><path id="prefix__path2801" class="prefix__st5" d="M2248.8 2748.8c-116.8 99.1-177.4 342.3-165.1 507 3.4 45.8 16.3 76.9 35.8 95.9 8.6-93.4 73.6-334.9 239.6-442.6 140.2-91 359-295 440.1-528.6-14.8-41.8-39.3-71.3-86.1-100.8-80.3 220.4-295.9 326.2-464.3 469.1z"/><path id="prefix__path2803" d="M2645.5 2175.2c-41.8 62.7-136.5 148.8-227.4 183.2 19.7-22.1 25.8-50.4 27-73.8-115.6 44.3-346.7 39.3-440.1 4.9 140.2 36.9 393.4 39.3 595-177 19.7 22.1 36.9 41.8 45.5 62.7z" fill="#316d3a" stroke="#000" stroke-width=".591" stroke-miterlimit="18.923"/><path id="prefix__path2805" class="prefix__st5" d="M1761.6 2690.3c-187.9 175.9-63.9 329.5 9.8 363.9-19.7 122.9 95.9 108.2 93.4 211.4 46.7-27 59-98.3 51.6-154.9 59 63.9 209-7.4 240.9 110.6 19.7-130.3-81.1-260.6-206.5-248.3 51.6-46.7 22.1-122.9-27-142.6-9.8 95.9-118 95.9-159.8 66.4-41.7-29.5-76.2-125.4-2.4-206.5z"/><path id="prefix__path2807" class="prefix__st4" d="M2168.5 3809c-20.5 11.7-19 38.2-6.2 55.3 25.8 34.4-18.2 112.4 65.1 129.1 24.6 4.9 43.5-10.1 52.9-38.1 25.8-77.5-56.5-86.1-63.9-122.9-7.3-36.9-30.7-33.3-47.9-23.4z"/><path id="prefix__path2809" class="prefix__st4" d="M2238.6 3954c-27.6 12.7-51.6 30.7-40.6 119.2 4.5 36.6 2.4 125.4-29.5 126.6 19.7 9.9 61.5 20.3 78.7-2.4 16.6 27.7 54.1 19.7 68.9-14.8 19.7 16 46.7-11.1 46.7-34.4 17.2 11 51.6-4.9 43-57.8 20.9 7.3 47.9-7.4 57.8-20.9-30.7-6.2-108.2-47.9-126.6-81.1-18.5-33.1-66.4-49.1-98.4-34.4z"/><g id="prefix__g2811"><path id="prefix__path2813" class="prefix__st7" d="M1812.6 1467.4c12.4-18.3 26.2-35.6 41.6-50.5"/><path id="prefix__path2815" class="prefix__st7" d="M2280.4 1792.8c21.7-12.4 54.7-13.8 91.3-11.4"/><path id="prefix__path2817" class="prefix__st7" d="M2247.2 4197.5c-8.6-12.3-11.7-63.9-5.5-95.3"/><path id="prefix__path2819" class="prefix__st7" d="M2316 4182.7c-13.5-10.5-39.3-46.1-43.6-77.5"/><path id="prefix__path2821" class="prefix__st7" d="M2362.8 4148.3c-17.2-8-59-62.1-68.3-97.1"/><path id="prefix__path2823" class="prefix__st7" d="M2405.8 4090.5c-20.3-4.3-82.4-44.9-108.2-87.9"/></g><path id="prefix__path2825" class="prefix__st4" d="M3539.2 2692.7c302.4 253.2 322.1 454.9 275.4 572.9-24.6-110.6-150-282.7-280.3-327l4.9-245.9z"/><g id="prefix__g2006"><g id="prefix__g2828"><path id="prefix__path2830" class="prefix__st5" d="M2998.3 2550.1h560.6V3214c0 565.5-314.7 899.9-634.4 1076.9-319.6-177-634.4-511.4-634.4-1076.9v-663.9h393.4c.6 34.4 3.7 86.1 44.3 137.7 92.9-9.2 198-78.7 270.5-137.7z"/><path id="prefix__path2832" d="M3558.9 2550.1V3214c0 170.7-28.7 320.4-77.5 451l-556.8-1021.4L2367.7 3665c-48.9-130.6-77.5-280.3-77.5-451v-663.9h1268.7z" fill="#006ec7" stroke="#000" stroke-width=".591" stroke-miterlimit="18.923"/><path id="prefix__path2711" class="prefix__st9" d="M3498.4 3616c-9.8 30.1-27.7 79-41.5 109.1l-532.3-989.3-532.3 989.3c-13.8-30.1-31.6-79-41.5-109.1l573.8-1064 573.8 1064z"/></g><g id="prefix__g2835"><path id="prefix__path2837" class="prefix__st4" d="M3177.7 3979.8c14.8 7.4 41.9 21 54.2 25.9 29.5-59 34.4-142.6 24.6-216.4-32 81.2-140.2 78.7-169.6 127.8 18.1 9.1 35 21 49.5 31.5-36.9 36.9-123.3 98.9-172.4 113.6v-527.4c0-36.9-12.3-67.6-12.3-98.3v-109c0-24.6-4.9-60.2-27-60.2s-27 35.6-27 60.2v109c0 30.7-12.3 66.4-12.3 98.3v527.4c-27-78.7-132.9-51.8-182.1-130.4 19.2-4.7 39.5-6.1 59.2-2.3-36.9-125.4-137.7-135.2-157.4-172.1 0 51.6-22.1 172.1 12.3 223.8 7.7-9.3 19.3-18.8 33.3-27.3 41.8 91 229.8 91.2 274 241.2 35.4-55.2 163.4-119.2 253-215.3z"/><path id="prefix__path2839" class="prefix__st4" d="M2924.6 3541c41.8 0 174.6-13.6 222.5-13.6 12.5 0 22.6-18.7 22.6-41.7s-10.1-41.7-22.6-41.7c-47.9 0-180.7-13.6-222.5-13.6-41.8 0-174.6 13.6-222.5 13.6-12.5 0-22.6 18.7-22.6 41.7s10.1 41.7 22.6 41.7c47.9 0 180.7 13.6 222.5 13.6z"/><path id="prefix__path2841" class="prefix__st4" d="M2897.6 3324.9c-8.9-7.1-20.5-11.5-33.3-11.5-27.9 0-50.4 20.6-50.4 46s22.6 46 50.4 46c27.8 0 50.4-20.6 50.4-46 0-19.7 28.6-19.7 28.6 0 0 39.8-35.4 72.1-79 72.1s-79-32.3-79-72.1 35.4-72.1 79-72.1c13.1 0 25.4 2.9 36.3 8.1-.9 6.6-3 18.9-3 29.5z"/><path id="prefix__path2843" class="prefix__st4" d="M2702.1 3527.4c12.5 0 22.6-18.7 22.6-41.7s-10.1-41.7-22.6-41.7"/><path id="prefix__path2845" class="prefix__st4" d="M2720.6 3527.4c12.5 0 22.6-18.7 22.6-41.7s-10.1-41.7-22.6-41.7"/><path id="prefix__path2847" class="prefix__st4" d="M2842 3536c15 0 27.2-22.5 27.2-50.3 0-27.8-12.2-50.3-27.2-50.3"/><path id="prefix__path2849" class="prefix__st4" d="M2870.3 3538.2c15.7 0 28.5-23.5 28.5-52.6 0-29-12.8-52.6-28.5-52.6"/><path id="prefix__path2851" class="prefix__st4" d="M2964.6 3538.8c15.9 0 28.8-23.8 28.8-53.2 0-29.4-12.9-53.2-28.8-53.2"/><path id="prefix__path2853" class="prefix__st4" d="M2994.4 3537.2c15.7 0 28.5-23.1 28.5-51.5s-12.7-51.5-28.5-51.5"/><path id="prefix__path2855" class="prefix__st4" d="M3126.5 3528.2c12.7 0 23.1-19.1 23.1-42.5s-10.4-42.5-23.1-42.5"/><path id="prefix__path2857" class="prefix__st4" d="M2650.5 3953.8c15.2-9.3 33.3-17.3 52.6-22"/><path id="prefix__path2859" class="prefix__st4" d="M3150.8 3959c-4.5-3.2-9.3-6.6-14.4-10.4"/><path id="prefix__path2861" class="prefix__st4" d="M3177.7 3979.8c34.4-37 63.1-78.7 78.8-126.5"/></g><g id="prefix__g2863"><path id="prefix__path2865" class="prefix__st10" d="M2812 3019.4c0-12 9.9-17.1 21.3-25.8 13.8-10.4 19.4-15.4 32-15.4h161.4c12 0 14.7 3.1 14.7 14.1v219.4c0 11.1-2.8 14.1-14.7 14.1H2812v-208.7"/><path id="prefix__path2867" d="M2986.7 3245c21.2 0 17.4-.5 32.3-15.4 15.5-15.5 14.1-14.1 14.1-28.4v-200.6c0-10.3-2.6-13.2-13.7-13.2H2870c-11.7 0-16.8 4.6-29.6 14.4-10.6 8.1-19.6 12.9-19.6 24.1V3245h165.9z" fill="#e5e5e5" stroke="#000" stroke-width=".591" stroke-miterlimit="18.923"/><path id="prefix__path2869" class="prefix__st10" d="M3002.6 3240.4c0 11.1-2.8 14.1-14.8 14.1h-161.3c-12 0-14.6-3.1-14.6-14.1V3021c0-11.1 2.6-14.1 14.6-14.1h161.3c12 0 14.8 3.1 14.8 14.1v219.4z"/></g></g><g id="prefix__g2871"><path id="prefix__path2875" class="prefix__st12" d="M3315.4 2421.5c31.4 35 41.8 82.3 24.7 128.4h-46.7c19.7-59 7.4-115.3-76.2-122.7-125-11-270.4 231.1-489.3 260.6-63.9-76.2-60.5-221.4 20.6-290.3-41.9-120.9-130.5-253.9-191.8-311.5-40.1-6.5-86.5-9.8-116.5-8 32-68.8 123.1-141.3 196.8-170.8 11.9-17.5 24.8-34.2 36.8-49.2 7.4-94.7 457.3-50.4 553.2 8.6 0 105.7 41.7 459.1 88.4 554.9z"/><g id="prefix__g2877"><path id="prefix__path2879" d="M2770.1 2486.1c-10.7-163.9-76.9-298.9-170.1-390.8 44.2 12.3 135.2 12.3 196.7-32 81.1-54.1 292.6-148.8 370-108.2 6.2 13.5 9.8 44.3 4.9 63.9-18.4-49.2-222.5 27-280.3 50.4-55.3 25.8-79.9 60.2-60.3 137.7-32-27-20.9-52.9-54.1-72.5 13.5 32 24.6 89.7 28.3 136.5-12.3-33.2-34.4-104.5-82.4-146.3 41.8 81.1 78.1 276 60.9 379.3 33.2 0 106.3-32.6 135.8-55.9-25.8 36.9-100.2 62.7-148.1 72.5-21.5 25.8-36.3 92.2-35 129.1-3.6-45.6 10.7-156.4 33.7-163.7z"/><path id="prefix__path2881" d="M3315.4 2421.5c-40.7-45.3-116.7-69.8-213.9-43.5 14.8-7.4 46.7-19.7 75-24.6-3.7-25.8-27-136.5-30.7-163.5l27.1-11.1c13.5 66.4 30.7 142.6 41.8 173.3 8.6 2.5 28.3 6.1 45.5 14.7-7.4-25.8-49.2-211.4-47.9-231.1l36.9-19.7c14.7 101 38 247.3 66.2 305.5z"/></g><g id="prefix__g2985"><path id="prefix__path2873" class="prefix__st12" d="M3293.4 2549.9c19.7-59 7.4-115.3-76.2-122.7-64.8-5.7-135.1 57.3-218.3 122.7h294.5z"/><path id="prefix__path2883" class="prefix__st12" d="M2750 2020.3c-36.9 4.9-119.2-2.5-161.1-16 2.4-11.1 6.7-22.6 12.2-34.8-25.8 17.2-74.9 50.7-93.4 74.1 59.1 12.3 180.9 18.5 242.3-23.3z"/></g><path id="prefix__path2885" class="prefix__st7" d="M2748.5 2397.6c13.6 39.2 22.4 77.1 23.6 110.8"/><path id="prefix__path2887" class="prefix__st7" d="M2637 1907.3c-22.3 32.6-41.7 67.4-48.1 97 41.8 13.5 124.2 20.9 161.1 16"/><path id="prefix__path2889" class="prefix__st7" d="M2556.7 2086.1c15.9 2.6 30.8 5.7 43.4 9.2 44.2 12.3 135.2 12.3 196.7-32s228.7-181.9 418-196.7"/><path id="prefix__path2891" class="prefix__st7" d="M2507.8 2043.6c59 12.3 180.8 18.4 242.2-23.4 142.6-97.1 280.3-153.7 418-161"/></g><path id="prefix__path2893" class="prefix__st5" d="M3539.2 2692.7c206.5 142.6 359 280.3 403.2 501.6 44.3 221.3 127.9 280.3 231.1 221.3-24.6 127.9-152.5 142.6-260.6 44.3 9.8 147.5-49.2 324.6-201.6 388.5-9.8-88.5 48.7-158.6 32-231.1-7.4-32-9.8-105.7 32-140.1-81.1 27-209-24.6-221.3-145.1 93.4 44.3 213.9 51.6 260.6-66.4 46.7-118.1 27.1-319.7-275.4-573z"/><path id="prefix__path2895" class="prefix__st5" d="M3799.9 1542.1c63.9-167.2 231.1-150 287.7-78.7 164.7-93.4 186.9 118 327 76.2-2.4 39.3-49.2 76.2-100.8 73.8 54.1 49.2-22.1 122.9 93.4 167.2-98.3 49.2-236-2.5-272.9-137.7-32 63.9-147.5 63.9-194.2 12.3 100.8-27 93.4-120.5 36.9-157.4-57.1-37.1-157.5-22.1-177.1 44.3z"/><path id="prefix__path2897" class="prefix__st5" d="M3301.1 1910.3c45.9 148 140.8 285.5 243.1 379.3 118 108.2 296.3 81.1 395.8-22.1 2.4 205.9-210.8 221.9-329.5 157.4-52.3-28.4-94.6-13.5-44.2 32 76.2 68.8 243 120 440.1 162.3 344.2 73.8 221.3 346.7 120.5 344.2 28.9-.6 52.6-30.9 11.1-68.2-298.7-268.6-906-162.9-896.2-762.8-63.9 157.4-327 95.9-204.1-91 39.3 32 108.2 34.4 127.9-14.8 15.3-38.3 5.3-104.8-63.6-162 11.3-.9 35.6 0 33.1-28.2 3.1 16.6 18.1 41.2 56.9 32.9 11.1 17.5 22.7 29 38.4 22.7 3.1-1.2 12.3-5.8 8.6-23.4 3 32.4 41.8 44.1 62.1 41.7z"/><path id="prefix__path2899" class="prefix__st4" d="M3610.5 2424.7c142.6 93.4 303.8 93.4 452.4-78.7 46.7-54.1 120.5-100.8 172.1-105.7 51.6-4.9 49.2-54.1 88.5-63.9-24.6-7.4-34.4-36.9-71.3-33.2 92.2-32 65.1-105.7 110.6-141.4-36.9 13.5-94.7-41.8-147.5 28.3 13.5-32-4.9-70.1-18.4-84.8 4.9 36.9-72.6 44.3-87.3 137.7-8.3 52.4-36.9 49.2-41.8-32-3.6-59.4-32-223.7-66.4-307.3-34.4-83.6-42.3-198.4 4.4-215.6-7-11.9-16.9-22.4-29-30.3-57-37.1-157.4-22.1-177 44.3-63.9 167.2 115.6 263.1 100.8 445-27-135.2-245.9-169.6-243.4-302.4-71.3 32-61.5 91-34.4 137.7-44.3-68.8-145.1 44.3-231.1-49.2-9.8 122.9 98.4 169.7 186.9 174.6-44.3 78.7 14.8 145.1 73.7 167.2 2.5-137.7 284.8-81.2 287.7 154.9 2.5 201.6-213.9 218.8-329.5 154.8z"/><path id="prefix__path2901" class="prefix__st4" d="M4006.4 2619c344.2 73.8 221.3 346.7 120.5 344.2-64.2-1.6-125.4-55.3-129.1-102-73.7 39.3-54.1 116.8 2.5 147.5-154.9-18.4-220.1 83.6-223.8 195.5 28.3-51.6 114.3-55.3 146.3-44.3 32 11.1 114.3 17.2 147.5-19.7-27.1 23.4 17.2 77.4-20.9 119.2 129.1-4.9 185.6-125.4 163.5-178.3 167.2-152.3 135.3-400.7-206.5-462.1z"/><path id="prefix__path2903" class="prefix__st4" d="M3744.3 3787.2c22.4 14 19.6 43.4 4.4 62-30.3 37.3 15.4 126.3-78.4 141.3-27.7 4.4-48.2-13.2-57.3-44.9-25.4-87.6 66.9-93.6 76.7-134.4 9.9-40.9 35.8-35.8 54.6-24z"/><path id="prefix__path2905" class="prefix__st4" d="M3659.8 3946c30.2 15.4 56.3 36.5 40.1 134.9-6.7 40.7-8.2 139.8 27.4 142.6-22.4 10.1-69.5 19.9-87.7-6.2-19.7 30.1-61.2 19.6-76.2-19.5-22.7 17-51.6-14.4-50.6-40.5-19.7 11.6-57.4-7.7-45.5-66.4-23.6 7.3-53.2-10.3-63.6-25.8 34.6-5.5 122.8-48.8 144.9-85 21.9-36.2 76.1-51.9 111.2-34.1z"/><g id="prefix__g2907"><path id="prefix__path2909" class="prefix__st7" d="M3639.6 4217.4c10.1-13.4 15.8-70.8 10.4-106.1"/><path id="prefix__path2911" class="prefix__st7" d="M3563.4 4197.9c15.6-11.1 45.9-49.7 52.1-84.5"/><path id="prefix__path2913" class="prefix__st7" d="M3512.7 4157.4c19.5-8.1 68.6-66.7 80.4-105.4"/><path id="prefix__path2915" class="prefix__st7" d="M3467.2 4091.1c22.8-3.9 93.9-46.5 124.6-93.4"/></g><path id="prefix__path2917" class="prefix__st4" d="M3241.7 2132.2c-4.1 252 100.6 379.5 245.7 462.5-53.9-32.3-30.6-142.9-103.1-178.6 17.2-1.2 44.3 23.4 87.3 13.5-20.9-46.7-55.4-118-135.3-127.9 20.9-2.5 66.4 4.9 95.9-6.1-41.7-63.9-152.4-33.1-190.5-163.4z"/><path id="prefix__path2919" class="prefix__st4" d="M3215.6 1892.5c-8.8-2.9-16.4-11.8-23.7-23.4-38.7 8.3-53.8-16.3-56.9-32.9 2.5 28.3-22 27.2-33.3 28.1 69.2 57.2 79.1 123.8 63.8 162.1-19.7 49.2-88.5 46.7-127.9 14.8-4.9 104.5 130.3 138.9 179.5 7.4 0 22.1 28.3 19.7 35.7 49.2 35.1-56.6 8.6-137.8-37.2-205.3z"/><g id="prefix__g2921"><path id="prefix__path2923" class="prefix__st5" d="M2999.6 1393.3c-61.5-56.5-89.8-151.2-87.3-205.3 2.5-54.1 24.6-113.1 103.3-88.5-24.6 0-7.4 49.2-33.2 54.1 20.9 7.4 49.2-9.8 52.9-20.9 4.9 17.2 36.9 12.3 39.3 32 12.3-9.8-1.2-57.8-19.7-67.6 13.5-7.4 20.9-45.5 14.7-63.9-12.3 2.5-30.7 19.7-34.4 44.3 6.2-19.7-1.2-68.8-35.6-76.2-9.9 13.5-12.3 46.7 1.2 65.2-32-7.4-78.7 13.5-89.8 40.6 2.5-32.6 7-79 27.1-108.2 6.7-9.8-9.9-27-22.8-3.7-24-46.7-87.9-71.3-116.2-47.9s-66.4-11.1-89.7 25.8c-23.4 36.9-102.5 40.8-98.4 79.9 2.4 23.4-3.2 59.4-14.8 72.5-28.3 32 13.5 55.3 20.9 83.6-4.9-93.4 143.8-275.4 292.6-204.1-13.5 23.4-25.4 70-29.5 126.6-6.1 83.6 6.2 201.6 87.3 270.5l32.1-8.8z"/><path id="prefix__path2925" d="M3043.8 1100.7c-.8-22.1 37.5-50.9 89.1-50.4 62.1.6 110 57.2 159.8 51.6 49.8-5.5 25.2 22.1 14.8 29.5-10.5 7.4-16.6 18.4-12.9 32 3.7 13.5-2.7 22.4-22.7 9.8-44.3-27.7-88.5 11.1-146.9-10.5-50.7-18.5-80-28.8-81.2-62z" fill="#cf142b" stroke="#000" stroke-width=".591" stroke-miterlimit="18.923"/><path id="prefix__path2927" class="prefix__st12" d="M2790.6 1681c-24.6-77.5-118-162.3-163.5-181.9l-2.4-41.8c24.6-9.8 83.6-56.5 110.6-82.4 184.4 88.5 435.2-36.9 550.8-167.2l44.3 27-22.1 29.5-23.4-12.3c-28.3 34.4-133.9 133.8-165.8 154.7 43 10.9 101.7 18.4 117.9 17.5 103.3-73.8 184.4-140.1 223.7-145.1l33.2 44.3-29.5 20.9-23.4-13.5c-110.6 91-236 290.1-285.2 422.9-68.9-14.8-314.8-5-365.2-72.6z"/><path id="prefix__path2929" class="prefix__st7" d="M3119 1406.6c-15.9-4-29.6-8.6-38.3-13.3-19.7 18.4-68.9 34.4-131.6 36.9"/><path id="prefix__path2931" class="prefix__st7" d="M2800.4 1653.9c-16.6-91.6 9.8-193 56.5-223.7 102 67.6 276.6 67.6 379.9-6.1"/><path id="prefix__path2933" class="prefix__st7" d="M2800.4 1606c78.7-2.5 249.6 11.1 291.4 17.2 41.8 6.1 111.9 23.4 102 44.3"/><path id="prefix__path2935" class="prefix__st7" d="M2836.8 1592.9l22.6-22.6-22.6-22.6-22.6 22.6 22.6 22.6z"/><path id="prefix__path2937" class="prefix__st5" d="M2890.2 1135.1c-28.3-39.3-106.2-51.8-122.9 1.2-7.4 23.4-18.4 47.9-36.9 59-18.4 11.1-14.1 44.6-6.1 59 19.7 35.7 2.4 70.1 40.6 93.4 0-28.3 41.8-57.8 77.5-65.2 35.6-7.4 89.7-39.3 97.1-75 7.2-35.5 19.5-65-49.3-72.4z"/><path id="prefix__path2939" class="prefix__st12" d="M2713.1 1489.2h9.8l.2 67.2c2 .7 4.2 1.6 5.8 3.1l57.9-33.4 4.9 8.5-58.2 33.8c.4 2.1.7 4.5.2 6.6l57.9 33.5-4.9 8.5-58.3-33.5c-1.6 1.4-3.5 2.8-5.6 3.5v66.9h-9.8l-.1-67.2c-2-.7-4.3-1.6-5.9-3.1l-57.9 33.4-4.9-8.5 58.1-33.8c-.4-2.1-.7-4.5-.2-6.6l-57.9-33.5 4.9-8.5 58.3 33.5c1.6-1.4 3.5-2.8 5.6-3.5l.1-66.9z"/><path id="prefix__path2941" class="prefix__st12" d="M2800.7 1653.6c-21.1 21.3-50.4 34.4-82.7 34.4-64.3 0-116.5-52.2-116.5-116.5S2653.7 1455 2718 1455c37.8 0 71.4 18 92.7 45.9-6 14.6-13 47.5-13.5 62.4-4.1-40.1-38-71.5-79.2-71.5-44 0-79.6 35.6-79.6 79.6 0 44 35.6 79.6 79.6 79.6 36.8 0 68.6-25.7 77.7-59.6 0 14.7.4 49.9 5 62.2z"/><path id="prefix__path2943" class="prefix__st5" d="M2668.8 1764.6c-7.3-8.6-20.9-32-19.7-49.2 11-1.2 32 6.1 41.8 16-1.2-12.3-6.1-39.3-3.7-51.6 13.5 4.9 41.8 20.9 51.6 39.3-2.4-12.3-7.4-44.3-2.4-63.9 14.8 8.6 39.3 32 44.3 47.9 1.2-24.6 9.8-65.2 17.2-75 11.1 11.1 28.3 20.9 39.3 35.7 2.4-19.7 12.3-43 27-49.2 11.1 12.3 28.3 40.6 32 72.5 11.1-3.7 25.8-22.1 32-32 6.2 9.8 12.3 27 8.6 47.9 13.5-12.3 29.5-29.5 33.2-44.3 9.8 7.4 28.3 25.8 33.2 45.5-2.4-16-1.2-44.3-6.2-60.2 18.5 9.8 33.2 27 36.9 45.5 4.9-17.2 16-47.9 25.8-55.3 9.8 19.7 19.7 43 18.5 62.7 6.1-12.3 16-34.4 25.8-39.3 8.6 13.5 7.4 43 4.9 59 8.6-12.3 24.6-27 34.4-32 1.2 7.4 2.4 22.1 0 33.2 11.1-6.1 29.5-39.3 35.6-56.5 17.2 8.6 34.4 38.1 35.7 52.9 12.3-4.9 36.9-27 44.2-39.3 0 8.6 3.7 32-1.2 50.4 7.4-7.4 14.8-22.1 18.5-28.3 4.9 12.3 1.2 41.8-3.7 57.8 11.1-9.8 27.1-16 36.9-16 1.2 20.9-13.5 57.8-27.1 84.8-117.9-33.2-365-45.5-613.4-59z"/><path id="prefix__path2945" class="prefix__st9" d="M3080.4 1113.3c-.6-9.1 19.7-29.6 55.8-29.4 43.4.3 83.5 32.1 118.4 29.9 34.9-2.3 17.7 9.1 10.4 12.1-7.3 3-11.6 7.5-9.1 13.1 2.6 5.5-1.9 9.2-15.9 4-31-11.3-62 4.5-102.8-4.3-35.5-7.6-55.9-11.8-56.8-25.4z"/></g><g id="prefix__g2947"><g id="prefix__g2949"><path id="prefix__path2951" class="prefix__st4" d="M2707 1838.3c-36.9 44.3-73.7 36.9-81.1 8.6-7.4-28.3 19.7-41.8 9.8-66.4-9.8-24.6 16-35.7 28.3-24.6 12.3 11.1 51.6-24.6 68.9 12.3 17.2 36.9 30.7 62.7 20.9 77.4-10 14.9-39.5 7.5-46.8-7.3z"/><path id="prefix__path2953" class="prefix__st4" d="M2865.5 1771.9c-6.9-16.2 31.4-47.3 51-25.2 19.7 22.1 50.4-24 67.6 11.1 17.2 35 22.7 53.5 31.4 73.1 8.6 19.7-46.7 30.1-64 12.9 2.5 11.7-47.8 20.8-61.4-12.3-7.3-17.7-15.3-38-24.6-59.6z"/><path id="prefix__path2955" class="prefix__st4" d="M3121.3 1792.2c-9.2-17.2 35.7-41.8 59-10.4 6.2-12.9 50.4-15.4 53.5 22.1 3.1 37.5 4.3 59.6 5.5 74.4 1.2 14.8-27 28.3-47.3-9.2-36.3 7.4-52.8-12.9-57.1-34.4-4.4-21.6-8.7-32-13.6-42.5z"/></g><g id="prefix__g2957"><path id="prefix__path2959" class="prefix__st5" d="M2730.9 1767.6c-5.5-12.3 31.3-36.9 56.5-18.4 25.2 18.4 60.1-15.9 75 17.2 30.1 67 32 71.9 22.7 84.8-9.2 12.9-48.6 8-58.4-9.8-1.9 12.3-35.8 10.3-53.5.6-20.1-11-34.3-52.2-42.3-74.4z"/><path id="prefix__path2961" class="prefix__st5" d="M2989.7 1770.7c-8.6-19.1 49.2-35.7 74.4-2.5 12.9-11.7 41.2-12.3 57.2 24s18.4 56.6 6.7 65.8c-8.2 6.5-38.1 11.7-47.9-4.9-13.5 8.6-55.3 1.2-64.5-22.1-9.3-23.4-17.3-43.7-25.9-60.3z"/><path id="prefix__path2963" class="prefix__st5" d="M3234.3 1807c-1.2-17.2 30.1-25.2 41.8 0 11.7 25.2 49 2.5 52.2 44.3.6 8-4.3 38.7-16 53.5-11.7 14.8-68.9 0-72.5-31.3-3.6-31.5-4.8-49.3-5.5-66.5z"/></g><g id="prefix__g2965"><path id="prefix__path2967" class="prefix__st7" d="M2707 1838.3c-13.5-18.4-32-47.9-55.3-16"/><path id="prefix__path2969" class="prefix__st7" d="M2826.8 1841.4c-8-10.4-18.4-27.7-22.1-41.2"/><path id="prefix__path2971" class="prefix__st7" d="M2951.6 1843.9c-8.6-6.1-21.5-18.4-28.3-31.3"/><path id="prefix__path2973" class="prefix__st7" d="M2940.5 1779.3c21.5 2.5 36.3 22.7 43 32 6.8 9.2 20.9 25.8 32 27.7"/><path id="prefix__path2975" class="prefix__st7" d="M3080.1 1853.1c-7.4-11.7-14.8-22.1-16.6-30.7"/><path id="prefix__path2977" class="prefix__st7" d="M3064.1 1768.3c7.4 10.4 12.9 19.1 17.2 28.9"/><path id="prefix__path2979" class="prefix__st7" d="M3191.9 1869.1c-9.8-18.4-25.2-36.3-38.1-42.4"/><path id="prefix__path2981" class="prefix__st7" d="M3187 1801.5c1.2 36.3 49.8 38.7 51.6 64.5"/><path id="prefix__path2983" class="prefix__st7" d="M3276.2 1807c4.9 9.2 6.7 18.4 7.4 33.8"/></g></g></g></svg>
