<svg xmlns="http://www.w3.org/2000/svg" height="512" width="512" viewBox="0 0 512 512">
	<rect fill="#006C35" y="0" width="512" height="512"/>
	<path fill="#FFFFFF" d="M208.3,130.3c-0.4,0-0.9,0.2-1.7,0.7c-1.8,1.2-5.2,4.8-5.3,9c-0.1,2.4-0.6,2.3,1,3.8c1.1,1.6,2.2,1.4,4.5,0.3c1.3-0.9,1.7-1.6,2.2-3.1c0.5-2.7-2.8,1.3-3.2-1.7c-0.7-2.8,1.4-3.9,3.4-6.6C209.1,131.3,209.2,130.3,208.3,130.3L208.3,130.3z M241,130.4c-0.6,0.1-1.4,0.9-2.5,2.8c-0.8,2-4.1,5.1-1.7,11.4c1.9,4,2.7,10.5,1.9,17.8c-1.3,2.1-1.7,2.8-3.4,4.8c-2.5,2.7-5.2,2-7.2,1c-1.9-1.3-3.4-2-4.3-6.1c0.2-6.6,0.5-17.3-0.7-19.6c-1.8-3.5-4.7-2.3-5.9-1.2c-6,5.5-9,14.7-10.8,22.1c-1.7,5.4-3.4,3.8-4.7,1.7c-3-2.8-3.2-25-6.9-21.4c-5.9,16.7,3.4,35.1,9.7,33.3c4.6,1.9,7.5-6.9,9.4-16.5c1.3-2.7,2.3-3,2.9-1.6c-0.2,12.8,0.9,15.6,4.2,19.5c7.3,5.7,13.4,0.7,13.9,0.2s5.7-5.7,5.7-5.7c1.3-1.3,2.9-1.4,4.7-0.2c1.7,1.6,1.5,4.3,5.3,6.2c3.1,1.3,9.8,0.3,11.4-2.4c2.1-3.6,2.6-4.8,3.6-6.2c1.5-2,4.1-1.1,4.1-0.5c-0.2,1.1-1.7,2.2-0.7,4.2c1.8,1.3,2.2,0.5,3.2,0.2c3.7-1.8,6.5-9.8,6.5-9.8c0.2-3-1.5-2.8-2.6-2.2c-1.4,0.9-1.5,1.2-2.9,2c-1.8,0.3-5.3,1.5-7.1-1.2c-1.8-3.2-1.8-7.8-3.1-11c0-0.2-2.4-5.1-0.2-5.5c1.1,0.2,3.5,0.8,3.9-1.2c1.2-1.9-2.5-7.5-5-10.2c-2.2-2.4-5.2-2.7-8.1-0.2c-2,1.9-1.7,4-2.1,5.9c-0.5,2.3-0.4,5.1,1.9,8.1c2,4,5.7,9.1,4.5,16.4c0,0-2.1,3.4-5.9,3c-1.6-0.3-4.1-1-5.5-11.1c-1-7.6,0.3-18.3-3-23.2C242.7,132.1,242.1,130.3,241,130.4L241,130.4z M230.7,131.3c-1,0.1-2.1,1.2-2.9,3.4c-0.8,1.7-1.7,10.4-1.5,10.4c-0.6,2.6,2.7,3.7,4.2,0.4c2.3-6.1,2.3-8.7,2.4-11.3C232.5,132.1,231.7,131.2,230.7,131.3L230.7,131.3z M268.9,131.9c-1,0.1-1.8,0.7-2.1,2.2c-0.4,3.5-0.2,5.4,0.4,8.3c0.4,1.9,3.3,5.2,4.7,7.1c6.6,8.9,13,17.8,19.1,27.1c1,6.9,1.7,13.6,2.1,20.3c1,14.7,1.3,32.9,0.4,48.4c2.7,0.1,7.2-4.4,8.7-11.1c1-9.2-0.4-28-0.4-33.5c-0.1-2.3-0.2-5-0.4-7.8c7.2,11.7,14.1,24.1,20.9,37.7c2.5-1.2,1.9-15.2,0.5-17.1c-5.5-11.7-13-23.3-15.4-27.8c-0.9-1.6-3.8-6.1-7.3-11.3c-0.6-7.4-1.3-13.6-1.8-15.5c-1.1-7.8,3.2,0.9,2.6-3.7c-1.4-7.8-5.7-13.1-10.8-20.3c-1.6-2.3-1.6-2.8-4.1,0.6c-1.5,3.4-1.5,6.3-1,9c-0.7-1-1.5-2.1-2.7-3.5c-4.4-3.8-4.7-4-8.3-7C272.8,133,270.6,131.8,268.9,131.9L268.9,131.9z M382.2,133.1c-0.5-0.1-1,0.2-1.6,1c-1.1,1-2.4,2.8-2.3,5.2c0.3,4.1,1,8.3,1.3,12.5c0.1,0.6,0.2,1.1,0.3,1.6c-0.4-0.6-0.8-1-1.1-1.2c-8-8.4,3.7-1.4-1.5-7.9c-4.4-4.8-5.7-6.4-9.5-9.3c-1.9-1.2-3-3.6-3.7,0.4c-0.2,3.5-0.5,7.6-0.3,10.5c0,1.6,1.7,4.7,3.2,6.5c5.4,6.6,10.8,13.6,16.3,20.9c1.2,14.9,1.5,28.5,2.6,43.5c-0.2,6.4-2.1,14.9-4,15.7c0,0-2.8,1.6-4.7-0.2c-1.4-0.6-6.9-9.2-6.9-9.2c-2.8-2.6-4.7-1.9-6.7,0c-5.5,5.4-8.1,15.4-11.8,22.3c-1,1.5-3.7,2.9-6.7-0.1c-7.7-10.6-3.2-25.6-4.2-21.7c-6.9,7.8-3.8,20.6-2.3,23.4c2.3,4.5,4.1,7.4,8.5,9.7c4,3,7.2,1.1,8.9-1c4-4.2,4.1-14.9,6-17c1.3-3.9,4.7-3.2,6.3-1.5c1.6,2.3,3.4,3.7,5.8,5c3.8,3.3,8.3,3.9,12.7,0.9c3-1.7,5-3.9,6.8-8.3c1.9-5.1,1-31.8,0.5-46.7c2.9,4,5.7,8.1,8.5,12.3c1.2,13,1.8,25.9,1.4,38.2c-0.3,2.4,8.6-7.3,8.5-11.9c0-4,0-7.7,0-11.1c4.3,6.8,8.4,13.8,12.4,20.8c2.4-1.3,1.6-15.1,0.1-16.9c-4.1-6.9-9.4-14.3-13.4-20.1c-0.8-7.3-1.9-15.9-2.4-18.5c-0.8-4.1-1.6-10.3-2.7-15.1c-0.3-1.9-1.3-8-1-8.6c0.5-1.4,2.3,0,3.2-1.5c1.3-1.5-4.6-16.9-7.7-21.3c-1.1-2-3.1-1.3-5.5,1.9c-2.3,2.1-1.4,6.9-0.6,11.5c2.2,11.7,4.2,23.6,5.8,35.5c-2.9-4.4-6.5-9.6-10-14.7c-0.1-0.5-0.4-2.3-0.4-2.3c0-0.2-0.5-9.6-0.9-11.8c-0.1-0.9-0.3-1.2,0.7-1.1c1,0.8,1.1,0.9,1.8,1.2c1,0.2,1.9-1.5,1.3-3.1c-3.1-5.8-6.3-11.6-9.4-17.4C383.1,133.6,382.7,133.2,382.2,133.1L382.2,133.1z M89.9,133.4c-1.7,0-3.7,1-2.9,3.1c-0.4,1.1,3.4,5,4.1,7.1c0.6,1.5-0.6,6.4,0.7,6.8c1.2,0.5,2.8-3.4,3.4-6.9c0.3-2,0.1-8.6-4.5-10C90.3,133.4,90.1,133.4,89.9,133.4L89.9,133.4z M422.9,133.5c-0.4,0-0.9,0.7-1.6,2.3c-1.8,2.9-2.4,8.1-1.7,12.7c4.3,29,7.5,57.1,8.1,82.8c-0.4,2.4-0.5,3.7-1.6,6.8c-2.5,3.2-5.3,7.3-8,9.3c-2.6,2-8.2,3.8-10,5.3c-5.8,3.4-5.8,7.2-1.1,7.3c8.1-0.9,17.7-1.6,24.2-11.5c1.8-2.8,3.8-10.3,3.9-15c0.6-27.1-0.3-53.6-4.4-73.2c-0.3-1.9-1.1-6.3-0.8-6.9c0.5-1.3,3.2,0.1,4.1-1.4c1.4-1.4-6.8-11.9-9.7-16.4C423.7,134.3,423.4,133.4,422.9,133.5L422.9,133.5z M338.1,133.9c-0.3,0.1-0.8,0.6-1.7,1.8c-2.3,7.4-3.1,13.4-2.2,18c5.8,30.3,11.7,57.9,10.8,86.7c2.8,0,5.9-6.3,7.3-12.5c0.7-8.6-0.5-13.8-0.7-18.9c-0.2-5.1-5.7-46.1-6.8-49.9c-1.3-7.2,5.4-1,4.6-5.2c-2.3-5.3-8.1-13-9.9-17.6C338.7,134.9,338.7,133.8,338.1,133.9L338.1,133.9z M131.7,134.5c-0.7,0.1-1.4,0.7-1.6,1.7c-0.2,0.6,0.3,1.7-0.3,2c-0.3,0.3-1.6,0.1-1.5-1.7c0-0.6-0.4-1.1-0.7-1.5c-0.3-0.2-0.4-0.2-0.9-0.2c-0.6,0-0.5,0.2-0.8,0.6c-0.1,0.5-0.3,0.9-0.3,1.5c-0.1,0.6-0.3,0.8-0.8,0.9c-0.5,0-0.4,0.1-0.8-0.2c-0.2-0.3-0.5-0.4-0.5-0.8c0-0.5-0.1-1.2-0.3-1.6c-0.2-0.3-0.6-0.4-1-0.5c-2.2,0-2.3,2.5-2.2,3.4c-0.2,0.2-0.2,4.6,2.7,5.8c3.9,1.9,11.4,1.1,11-5.3c0-0.6-0.1-2.5-0.2-3C133.1,134.7,132.4,134.3,131.7,134.5L131.7,134.5z M184.7,134.5c-1.4,0.1-2.6,0.5-3.6,1c-2.6,2.5-3.2,6.5-1.2,9c2,0.9,4,3,2.7,4.1c-5.7,6.1-20.4,16.2-21.2,18c0,0,0,0,0,0.1c0,0,0,0,0,0.1l0,0c0,0,0,0,0,0.1l0,0l0,0l0,0l0,0l0,0c0.8,0.5,10,0.5,11,0l0,0l0,0l0,0c3.2-1.2,18.2-18.4,18.2-18.4c-0.8-0.7-1.5-1.2-2.3-1.8c-0.8-0.7-0.8-1.4,0-2.2c3.7-2.2,2.5-6.9,0.6-9.1C187.5,134.7,186,134.5,184.7,134.5L184.7,134.5z M323.1,134.6c-0.4,0-0.9,0.6-1.6,2.2c-1.8,2.9-3,8-2.8,12.7c3.9,26.7,5,50.1,7.6,76.8c0.2,2.6-0.2,6.3-1.9,7.8c-6.3,6.6-15.5,14.8-25.5,18.6c-1.1,1.2,2.7,6.3,7.5,6.3c8.1-0.9,15.2-5.5,21.8-17.4c1.8-2.8,4.9-8.8,4.9-13.4c0.6-27.1-1.4-48.2-5.4-67.8c-0.3-1.9-0.1-4.2,0.2-4.7c0.5-0.6,2.3,0,3.2-1.5c1.4-1.4-3.7-13.1-6.6-17.6C324,135.4,323.6,134.5,323.1,134.6L323.1,134.6z M108.6,135.4c-1.1,0.1-2.2,1-2.7,2.3c-0.2,4.3-0.2,8.6,0.3,12.5c1.9,6.9,2.6,13,3.5,20.1c0.3,9.5-5.5,4.1-5.2-0.6c1.3-6.1,1-15.7-0.2-18.2c-0.9-2.4-2-3-4.3-2.6c-1.8-0.1-6.5,5-7.8,13.4c0,0-1.1,4.3-1.6,8.2c-0.6,4.3-3.5,7.4-5.5-0.6c-1.7-5.8-2.8-20.2-5.7-16.8c-0.8,11.2-1.8,30.9,7.7,33c11.5,1.1,5.2-19.5,9.3-23.2c0.8-1.8,2.2-1.9,2.4,0.5v17.5c-0.1,5.7,3.6,7.4,6.5,8.5c3-0.2,5-0.2,6.2,2.8c0.5,10.1,1,20.2,1.4,30.3c0,0,7,2,7.3-17c0.3-11.2-2.2-20.5-0.7-22.7c0.1-2.1,2.8-2.2,4.7-1.2c3,2.1,4.3,4.7,9,3.7c7.1-2,11.4-5.4,11.5-10.9c-0.4-5.2-1-10.4-3.3-15.6c0.3-0.9-1.4-3.4-1.1-4.4c1.3,2,3.2,1.8,3.7,0c-1.2-4-3.1-7.8-6.1-9.5c-2.5-2.2-6.2-1.8-7.6,2.9c-0.6,5.3,1.9,11.7,5.8,16.8c0.8,2,2,5.4,1.5,8.4c-2.1,1.2-4.1,0.7-5.8-1.1c0,0-5.7-4.2-5.7-5.2c1.5-9.6,0.3-10.7-0.5-13.4c-0.6-3.7-2.3-4.9-3.8-7.4c-1.4-1.5-3.3-1.5-4.3,0c-2.5,4.3-1.3,13.7,0.5,17.8c1.3,3.8,3.3,6.2,2.4,6.2c-0.8,2.2-2.4,1.7-3.6-0.8c-1.7-5.2-2-12.9-2-16.4c-0.5-4.3-1.1-13.5-3.9-15.9C110.4,135.7,109.5,135.3,108.6,135.4L108.6,135.4z M149.1,135.5c-0.6,0.1-1.2,0.4-1.9,0.6c-2.5,0.8-4.7,2.9-4,7c2.9,17.6,4.8,31,7.7,48.6c0.4,2.1-1.3,4.8-3.5,4.5c-3.8-2.6-4.7-7.8-11.2-7.5c-4.7,0.1-10,5.1-10.7,10c-0.8,3.9-1.1,8.1,0,11.5c3.3,4,7.2,3.5,10.7,2.6c2.8-1.2,5.2-4,6.2-3.3l0,0l0,0c0.6,1.1-0.1,10.2-13.4,17.3c-8.2,3.7-14.7,4.6-18.2-2.1c-2.2-4.2,0.2-20.1-5.2-16.4c-15.8,40.8,37.1,46.5,43,1.7c0.4-1.3,1.5-2.5,2.4-2.2c0.4,0.2,0.7,0.6,0.8,1.6c-1.2,40.5-40.9,43.3-47.6,30.6c-1.7-3-2.2-9.7-2.3-13.7c-0.3-2.4-0.9-3.8-1.6-4.4c-1.6-1.2-3.8,1.9-4.2,7.4c-0.7,4.4-0.5,5.6-0.5,9.8c2.1,32,53.2,18.3,61.5-8.2c4.1-13.7-0.1-24,1.3-25.3c0,0,0,0,0.1,0c0,0,0,0,0.1,0c0,0,0,0,0.1,0c0,0,0.1,0,0.2,0c5.1,5.5,12.2,0.7,13.7-1.2c0.7-0.9,2.3-1.6,3.5-0.3c4,2.8,10.9,1.5,12.3-3.5c0.8-4.9,1.5-9.9,1.7-15.2c-2.6,0.8-4.7,1.4-5.5,2.3c-0.2,0.2-0.3,0.5-0.4,0.7c-0.2,1.4-0.4,2.9-0.7,4.3c0,0.1-0.1,0.2-0.1,0.3c-0.1,0.2-0.3,0.3-0.5,0.4c-0.9,0.5-2.5,0.2-2.6-1.1c-1.2-5.6-6.3-6.3-9.3,2.3c-2.1,1.7-5.8,2-6.2-0.5c0.5-5.8-1.8-6.6-6.5-3.8c-1.5-11.5-3-22.4-4.5-33.9c1.9-0.1,3.7,1.4,5.5-0.9c-1.9-6-6-18.2-8.3-19.4c0,0,0,0-0.1,0c-0.1-0.1-0.2-0.2-0.3-0.3l-0.1-0.1c0,0-0.1-0.1-0.2-0.1c-0.1-0.1-0.2-0.1-0.3-0.1C149.5,135.5,149.3,135.4,149.1,135.5L149.1,135.5z M306.8,135.6c-2-0.1-4.3,1.2-3.4,3.7c-0.5,1.4,4.3,6.1,5.1,8.6c1.4,3.9-1.1,7.7,0.4,8.3c1.3,0.6,3.2-4.1,3.9-8.4c0.8-3.5-1.7-10.7-5.2-12.2C307.4,135.6,307.1,135.6,306.8,135.6L306.8,135.6z M183.9,139.9c0.9-0.1,2,0.8,2.6,1.9c0.6,1.3,0.3,2.5-0.7,2.7c-0.9,0.2-2.2-0.6-2.8-1.9s-0.3-2.5,0.7-2.8C183.8,139.9,183.9,139.9,183.9,139.9z M411.9,145.8c-1.8-0.1-3.9,1.3-3.1,4.1c-0.5,1.5,3.9,6.6,4.7,9.4c0.6,2-1,8.4,0.4,8.9c1.2,0.7,3-4.4,3.6-9.1c0.4-2.6-1.5-11.6-4.8-13.2C412.5,145.8,412.2,145.8,411.9,145.8L411.9,145.8z M285.9,148.9c0.2,0.8,0.3,1.5,0.4,2.3c0.4,1.7,0.7,3.3,1.1,5c-1.5-2-2.7-3.6-3.2-4.2C280.9,148,284.3,149.4,285.9,148.9L285.9,148.9z M314.9,163.2c-0.7,0.1-1.4,0.7-1.7,1.7c-0.2,0.6,0.3,1.7-0.3,2c-0.3,0.3-1.6,0.1-1.6-1.6c0-0.6-0.4-1.2-0.7-1.5c-0.2-0.2-0.4-0.2-0.9-0.2c-0.6,0-0.5,0.2-0.8,0.6c-0.1,0.5-0.3,0.9-0.3,1.5c-0.1,0.6-0.3,0.8-0.7,0.9c-0.5,0-0.4,0.1-0.8-0.2c-0.2-0.3-0.5-0.4-0.5-0.8c0-0.5-0.1-1.2-0.3-1.6c-0.2-0.3-0.6-0.4-1-0.5c-2.2,0-2.3,2.5-2.2,3.4c-0.2,0.2-0.3,4.6,2.7,5.8c3.9,1.9,11.4,1.1,11.1-5.3c0-0.6-0.2-2.5-0.2-3C316.4,163.4,315.6,163.1,314.9,163.2L314.9,163.2z M182.3,164.5c-0.5,0-1.1,0.1-1.9,0.6c-3.5,1.9-4.8,7.5-2.7,10.8c2,2.9,5.2,1.8,5.7,1.8c3.4,0.4,5.5-6.4,5.5-6.4s0.1-1.9-4,1.7c-1.7,0.3-1.9-0.3-2.4-1.3c-0.4-1.8-0.3-3.6,0.5-5.4C183.5,165.3,183.1,164.6,182.3,164.5L182.3,164.5z M369.8,165.4c-1.9-0.1-4,1.2-4.5,3.8c0,1.6,0.7,2.4,0.6,3.8c-0.2,0.8-1,1.3-3,0.4c0.3-0.3-1.3-2.6-1.3-2.6c-1.6-0.9-3.6,0.1-5,0.9c-0.7,1.4-1.3,3.7-0.4,6c2.2,4.1,9.9,11.2,13.5,11.2c0.1-3.7,0.4-8.7,0.6-11.7c0.1-1.2,0.4-2.4,1.5-2.7s3,1.1,3.1-0.1c-0.2-2.4-0.7-5.9-2-7.5C372,166,370.9,165.4,369.8,165.4L369.8,165.4z M214.6,178.3c-0.1,0-0.1,0.1-0.2,0.1c0,0-0.1,0-0.1,0.1c-0.4,0.3-0.8,1-1.9,1.7c-1.7,2-2,3.3-1.9,7.2c0.1,0.4,3.3,9.2,5.9,15.4c1.8,6.4,3.5,13.8,2.2,20.7c-4.2,9.2-12.7,17.4-20.9,21.9c-4.2,1.3-7.8,0.9-8.8,0l0,0c-2.4-1.6-2.5-4.5-2.3-5l0,0l0,0c6.9-4.8,14.8-8.7,21-21.7c1.8-5,2.4-8,0.6-15.7c-0.7-2.9-1.6-5.2-3.5-7.3l0,0c1.2-0.6,4.2,1.7,4.7,0.3c-0.7-3.7-3.2-8.6-6-11.1c-2.5-2.2-5.2-2.5-7.4-0.4c-2.5,1.4-3.1,6.5-1.9,10.9c1.4,3.3,5,3.9,7.6,10.7l0,0c0.1,0.4,0.9,5-0.4,6.9c-1.1,3.3-14.8,14.2-15.8,14.8c0,0-0.1,0-0.1,0.1l0,0l0,0l0,0l0,0l0,0l0,0l0,0c0,0,0,0,0-0.1c0-0.3,0-1,0-2.1c-0.1-2,0.8-6.6,0.7-7.4l0,0l0,0l0,0l0,0c-4.5,2.9-6,11.9-6.9,14.6c-11.5,7.9-24.6,13.9-32.1,21.9c-3.9,6.1,27-7,30.6-8.6l0.1,0.1c0.7,0.8,0.7,3.4,2.8,5.7c3.2,4.3,10,7,16.7,5.4c11.1-4,17.6-11.6,24.1-20c0.9-1.4,2.4-2.4,3.7-1.4c4.5,10.1,17.4,17.2,34.2,17.9c3.9-4.7,2-7,0.4-8c-0.5-0.3-8.3-3.4-9.5-6.4c-0.8-2.8,1.1-5.3,4.8-7.2c10.7-1.3,21.3-2.7,31.5-6c0.1-3.4,2.1-8.6,3.5-10.8c0.9-1.5,1.5-1.7,1.8-1.9l0,0l0,0l0,0c0,0,0,0,0-0.1s0-0.2,0-0.3l-1.7-1l-34.3-0.1c-0.4-0.2-0.7-0.3-0.9-0.5c0,0,0,0-0.1-0.1l0,0l0,0c0,0,0,0,0-0.1l0,0l0,0l0,0l0,0l0,0l0,0l0,0l0,0l0,0l0,0l0,0l0,0c0,0,0,0,0-0.1c0.2-0.2,0.6-0.4,1.1-0.6c8.2-1.1,22.7-3.5,23.7-17.5c-0.2-7.3-3.1-12.1-12.1-13.4c-6.6,0.5-11.3,6.9-10.5,13.9c-0.3,1.9,0.6,5.6-1.3,6c-12.6,1.2-26.4,9-26.8,14.7l0,0l0,0c0,0,0,0-0.1,0c0,0,0,0-0.1,0h-0.1l0,0c0,0,0,0-0.1,0l0,0c0,0,0,0-0.1,0h-0.1c-0.8-0.2-1.9-1.6-1.7-3.5c-0.5-9.8-3.7-20.8-8.6-29.3c-1.8-1.8-2.6-2.5-3.1-2.6c0,0,0,0-0.1,0C214.8,178.3,214.7,178.3,214.6,178.3C214.7,178.3,214.7,178.3,214.6,178.3C214.7,178.3,214.6,178.3,214.6,178.3L214.6,178.3L214.6,178.3z M247.4,183.5c-0.7,0.1-1.4,0.7-1.7,1.7c-0.2,0.6,0.3,1.7-0.3,2c-0.3,0.3-1.6,0.1-1.6-1.6c0-0.6-0.4-1.2-0.7-1.5c-0.2-0.2-0.4-0.2-0.8-0.2c-0.6,0-0.6,0.2-0.9,0.6c-0.1,0.5-0.3,0.9-0.3,1.5c-0.1,0.6-0.3,0.8-0.7,0.9c-0.5,0-0.4,0.1-0.8-0.2c-0.2-0.3-0.6-0.4-0.6-0.8c0-0.5-0.1-1.2-0.2-1.6c-0.2-0.3-0.6-0.4-1-0.5c-2.2,0-2.3,2.5-2.2,3.4c-0.2,0.2-0.3,4.6,2.7,5.8c3.9,1.9,13.4,0.8,11.1-5.3c0-0.6-0.2-2.5-0.2-3C248.9,183.7,248.1,183.3,247.4,183.5L247.4,183.5z M379.9,188.9c-0.1,0-0.2,0-0.3,0c0,0-18.3,13-18.7,13.5c-1.8,1.6-0.9,7.3,0,6.6c1.3,0.5,19.7-12,19.4-13.4C381,195.6,381.4,189.2,379.9,188.9L379.9,188.9z M264.7,190.8c0.7-0.1,1.7,0.2,2.7,0.7c1.4,0.8,2.2,2,2.1,2.9v0.1l-0.1,0.1v0.1c0,0,0,0,0,0.1c0,0,0,0,0,0.1s-0.1,0.2-0.2,0.2c-0.7,0.6-2.2,0.5-3.6-0.3s-2.2-2-2.1-2.9v-0.1c0-0.1,0.1-0.2,0.1-0.3c0,0,0-0.1,0.1-0.1l0,0l0.1-0.1C264.1,191,264.4,190.9,264.7,190.8L264.7,190.8z M104.5,194.1c-9.5,0.2-23.4,12.4-23.7,19.2c10-4.8,19.8-9.4,30-14.4C109.1,196.5,110.7,194.3,104.5,194.1L104.5,194.1z M135.2,198.4c0.9,0,1.9,0.5,2.4,1.8c0.5,1.2,0,2.4-0.5,3.1l0,0c0,0,0,0,0,0.1c-0.4,0.5-1.8,0.3-2.8,0.3c-1.2-0.1-1.8-0.3-2.5-1.2c-0.3-1.1,0.7-2.2,1.2-3l0,0c0-0.1,0.1-0.2,0.2-0.2c0.4-0.3,1-0.6,1.6-0.7C134.9,198.4,135.1,198.4,135.2,198.4L135.2,198.4z M376.3,202.2c-1.7,0.2-3.3,1.8-2.6,4.3c-0.5,1.5,2.3,6.7,3,9.5c0.6,2-0.8,7.6,0.5,8.2c1.2,0.7,4.5-3.3,4.3-8.3c0.4-2.6-0.9-12-4.1-13.6C377.1,202.1,376.7,202.1,376.3,202.2L376.3,202.2z M171.5,211.4c-1.5,0.1-2.8,0.9-2.2,3c-0.1,1.5,4.2,3.4,4.5,6.9c0.6,1.5-0.9,6.1,0.4,6.5c1.2,0.5,2.8-3.2,3.4-6.7c0.3-1.9-1.5-8.5-4.6-9.7C172.5,211.4,172,211.4,171.5,211.4L171.5,211.4z M232.8,219.8c0.1,0,0.2,0,0.3,0c0,0,0,0,0.1,0c3.8,1,9.5,1.1,14.3,1.7c4,0.3,5.9,3.4,2.2,4.7c-3.7,1.3-7.2,2.2-7.2,7.6c0.5,2.6,0.4,4,0,4.6c0,0-0.1,0.1-0.1,0.2l0,0l0,0l0,0l0,0c0,0,0,0-0.1,0s-0.1,0.1-0.2,0.1s-0.1,0-0.2,0c-0.9,0.1-2.1-0.7-3.1-1.2c-2.3-1.6-8.6-5.6-9.5-14C229.1,221.6,230.5,219.9,232.8,219.8L232.8,219.8z M83.1,226.3c-0.2,0-0.7,0.7-1.4,1.5c-5.6,9-6.1,22.4-3,26.4c1.7,1.9,4.4,2.7,6.4,2.1c3.5-1.5,5.1-8.7,4.3-11.3c-1.2-1.9-2.1-2.1-3.3-0.6c-2.5,5.1-3.5,1.6-3.7-1.2c-0.4-5.4,0.1-10.3,0.7-14.2C83.4,227,83.4,226.3,83.1,226.3L83.1,226.3z M275.3,238.1c-0.4,0-0.9,0-1.3,0.3c-0.1,0-4,2.7-5.3,4.5c-0.8,0.6-0.7,1.1-0.5,2.1c0.6,1.4,1.7,1,2.9,0.3c1.6-0.2,2.4,0.8,2.3,2.8c-0.7,2.4,0.3,3.3,0.3,3.4c0,0.2,1.5,1.5,3.4,0.4c3.8-1.5,6.2-2.9,11.6-4c1.4,0,1.3-3.8-0.9-3.9c-2.9,0.1-5.6,0.3-8.5,2.6c-1.8,0.4-2.1-0.7-2.5-1.6c-0.5-2.4,1-4.1,0.7-5.9C277.5,239,276.5,238.1,275.3,238.1L275.3,238.1z M398.3,242.7c-0.7,0-1.5,0.1-2.5,0.2c-1.2,0.2-1.6,0.8-1.8,2.2c0.1,2.2,1.4,2.1,2.8,2.9c0.8,1,1.3,1.9-0.1,3.5c-1.3,1.2-2.2,1.8-3.5,3c-0.6,1-1,2.6,0.9,3.1c3.4,1,11.3-4.2,11.3-4.3c1.3-1,0.9-2.8,0.8-2.8c-0.7-0.9-2.4-0.3-3.6-0.5c-0.5,0-2.3-0.3-1.5-1.8c0.7-1,1-1.6,1.4-2.8c0.5-1.2,0.1-2-1.9-2.6C399.7,242.7,399,242.6,398.3,242.7L398.3,242.7z M346.9,346.7C346.9,346.7,346.9,346.8,346.9,346.7c-5.7,1.5-5.5,7.4-1.9,10c-60.1,0-152.3-1-172.1-1c-11.1,0-46.1-1.3-46.7-1.3c7.5,11,18.4,13.2,32.6,13.4c26.7,0,150.4-0.3,185.5-0.3c-2.5,4.4,0.2,11.6,2.2,12.9c0,0,0.1,0.1,0.2,0.1s0.2,0.1,0.2,0.1h0.1c2.3,0.6,3.4-1.1,4.1-2.4c3.8,0.3,25.1,0.6,27,0l0,0c1.3,1.9,2.6,3.8,5.1,3.5c4.4-0.9,7.8-1.4,8-10.3c0,0-0.4-15.2-10.4-14.2c-2.4,0.4-9,1-9,1c-7.7-0.9-13.3-1-21.9-1.3c0.8-1,2.2-5.1,0.5-6.6c-0.4-0.4-1.1-0.6-2-0.5l0,0c0,0,0,0-0.1,0l0,0h-0.1c0,0-0.1-0.1-0.2-0.2c0,0,0,0-0.1-0.1c-0.4-0.6-0.7-2.2-1-2.6l0,0l0,0C347,346.8,347,346.7,346.9,346.7C347,346.7,346.9,346.7,346.9,346.7L346.9,346.7L346.9,346.7z M351,368.4L351,368.4c8.8,0.4,17,0.1,25.8,0.5c1.4,1.2,0.7,3.9-0.2,4.4c0,0-0.1,0-0.1,0.1h-0.1h-0.1c-2.9-0.1-4.5-0.1-7.4-0.2c0-0.1,0-0.3-0.1-0.4c-0.7-2-5.6-1.9-6.7-0.3c0,0,0,0.1-0.1,0.1c0,0,0,0.1-0.1,0.1c0,0,0,0.1-0.1,0.1c0,0.1,0,0.1,0,0.2s0,0.2,0,0.2c-3.8,0.5-7.3-0.1-11.2-0.3C349.5,371.6,349.7,369,351,368.4L351,368.4z"/>
</svg>
