<svg xmlns="http://www.w3.org/2000/svg" height="512" width="512" viewBox="0 0 512 512"><defs><clipPath id="a"><path fill-opacity=".67" d="M0 0h496.06v496.06h-496.06z"/></clipPath></defs><g fill-rule="evenodd" clip-path="url(#a)"><path d="M0 507.164l987.4-507.164h-987.4v507.164z" fill="#0000d6"/><path d="M1023.977 0l-996.802 511.984h996.802v-511.984z" fill="#006000"/><path d="M1024.011 0h-54.874l-969.138 485.343v26.644h54.856l969.138-484.397v-27.592z" fill="#fc0"/><path fill="#fff" d="M40.282 99.209l11.921-34.421-31.136-21.262 38.468.035 11.857-34.44 11.857 34.441 38.469-.026-31.144 21.253 11.917 34.425-31.104-21.304zm191.139 0l11.921-34.421-31.136-21.262 38.468.035 11.857-34.44 11.857 34.441 38.469-.026-31.144 21.253 11.917 34.425-31.104-21.304zm0 144.481l11.921-34.421-31.136-21.263 38.468.035 11.857-34.44 11.857 34.441 38.469-.026-31.144 21.253 11.917 34.425-31.104-21.304zm-95.009-71.397l11.921-34.421-31.136-21.262 38.468.035 11.857-34.44 11.857 34.441 38.469-.026-31.144 21.253 11.917 34.425-31.104-21.304zm-96.13 71.397l11.921-34.421-31.136-21.263 38.468.035 11.857-34.44 11.857 34.441 38.469-.026-31.144 21.253 11.917 34.425-31.104-21.304z"/></g></svg>