<svg xmlns="http://www.w3.org/2000/svg" height="512" width="512" viewBox="0 0 512 512">
	<path fill="#fff" d="M-20 0h767.486v511.653h-767.486z" />
	<path fill="#df0000" d="M-20 0h767.486v255.826h-767.486z" />
	<path fill="#fff" d="M157.009 42.886c-35.436 8.125-61.766 34.363-69.211 70.037-10.114 48.466 21.457 95.921 70.017 106.051-49.061 13.987-99.759-14.215-113.618-62.823-13.857-48.607 14.345-99.305 62.953-113.163 17.064-4.866 32.773-4.897 49.858-.101zM125.884 117.285l-13.679-9.971 16.924-.146 5.257-16.103 5.363 16.063 16.937.027-13.613 10.064 5.217 16.115-13.785-9.839-13.719 9.932zm18.721 55.493l-13.679-9.971 16.924-.146 5.257-16.103 5.363 16.063 16.937.027-13.613 10.064 5.217 16.115-13.785-9.839-13.719 9.932zm62.28-.412l-13.679-9.971 16.924-.146 5.257-16.103 5.363 16.063 16.937.027-13.613 10.064 5.217 16.115-13.785-9.839-13.719 9.932zm18.57-55.038l-13.679-9.971 16.924-.146 5.257-16.103 5.363 16.063 16.937.027-13.613 10.064 5.217 16.115-13.785-9.839-13.719 9.932zm-49.305-36.519l-13.679-9.971 16.924-.146 5.257-16.103 5.363 16.063 16.937.027-13.613 10.064 5.217 16.115-13.785-9.839-13.719 9.932z" />
</svg>
