<svg xmlns="http://www.w3.org/2000/svg" height="512" width="512" viewBox="0 0 512 512"><defs><clipPath id="a"><path fill-opacity=".67" d="M0 0h512v512h-512z"/></clipPath></defs><g fill-rule="evenodd" clip-path="url(#a)"><path fill="#ff0" d="M0 0h1024v504.3h-1024z"/><path fill="#009d00" d="M0 0h1024v146.29h-1024zm0 365.71h1024v146.29h-1024z"/><path d="M.708 0c1.417 0 255.29 253.03 255.29 253.03l-256 258.97.709-512z" fill="#f10600"/><path d="M463.6 307.373l-31.937-23.942-31.938 23.937 12.241-38.682-31.97-23.896 39.499.04 12.174-38.705 12.173 38.705 39.5-.029-31.977 23.885zm-196.918 0l-31.938-23.942-31.937 23.937 12.24-38.682-31.97-23.896 39.5.04 12.173-38.705 12.174 38.705 39.5-.029-31.977 23.885z"/></g></svg>