<svg xmlns="http://www.w3.org/2000/svg" height="512" width="512" viewBox="0 0 512 512"><path d="M0 0h768.015v256.005H341.34L0 0z" fill-rule="evenodd" fill="#ed2939"/><path d="M0 512.01h768.015V256.005H341.34L0 512.01z" fill-rule="evenodd" fill="#002395"/><path d="M0 0l341.34 256.005L0 512.01V0z" fill-rule="evenodd" fill="#fff"/><path fill="#ff0" d="M172.285 193.254l.105-3.964s-2.128-3.391.341-7.033c0 0-5.248-2.776-4.026-7.124 0 0-4.745-1.214-4.396-6.433 0 0-5.122-.356-5.653-4.716 0 0-5.122.843-7.376-3.405 0 0-4.995.976-6.406-2.526 0 0-4.856 1.682-7.738-2.435 0 0-5.129 2.071-7.279-1.815-2.121 3.873-7.25 1.814-7.25 1.814-2.847 4.103-7.739 2.401-7.739 2.401-1.361 3.516-6.343 2.519-6.343 2.519-2.246 4.25-7.362 3.404-7.362 3.404-.502 4.348-5.617 4.704-5.617 4.704.405 5.233-4.333 6.419-4.333 6.419 1.248 4.346-3.993 7.116-3.993 7.116 2.534 3.664.427 7.027.427 7.027l-.119 3.656 84.771.391"/><path d="M172.159 193.069l.104-3.963s-2.127-3.39.343-7.032c0 0-5.246-2.776-4.026-7.122 0 0-4.744-1.214-4.395-6.432 0 0-5.12-.355-5.65-4.715 0 0-5.121.843-7.375-3.405 0 0-4.994.976-6.404-2.526 0 0-4.856 1.682-7.737-2.435 0 0-5.127 2.072-7.277-1.813-2.12 3.872-7.247 1.813-7.247 1.813-2.847 4.103-7.735 2.4-7.735 2.4-1.361 3.516-6.342 2.519-6.342 2.519-2.246 4.249-7.36 3.404-7.36 3.404-.503 4.348-5.615 4.702-5.615 4.702.403 5.233-4.332 6.419-4.332 6.419 1.248 4.347-3.992 7.116-3.992 7.116 2.533 3.663.426 7.025.426 7.025l-.119 3.656 84.746.391h-.014z" stroke="#000" stroke-width=".311" fill="none"/><path fill="red" d="M170.313 188.302c-13.315-1.332-28.646-4.494-40.481 2.171-7.934-4.676-18.981-4.39-28.387-3.475-5.108.914-11.116.914-16.454 1.786l-.837.117c-9.686.643-18.471-2.219-26.887-5.979 2.673 15.169 5.638 30.715 7.096 46.596 3.174 23.521-11.13 43.267-5.261 66.502 3.502 11.15 15.763 17.631 26.984 18.916 10.866.642 22.107 2.421 32.163 4.605 1.912.398 4.179 1.286 5.498 1.856 2.771 1.158 4.802 2.862 6.581 4.683 6.071-6.323 14.968-8.081 23.746-9.009 15.82-1.849 35.323-.843 45.009-15.175v-.81c5.261-7.926 4.563-20.017 2.281-28.998-.154-3.132-.99-5.896-1.445-8.882-9.664-25.524-1.388-54.229 2.772-79.955-5.08 2.776-10.747 4.088-16.399 5.477-4.508.601-9.531.329-14.095.083l-1.891-.509"/><path fill="#80cfe1" d="M190.19 261.557c-.063 1.681.844 3 1.172 4.556 1.85 11.157 3.636 25.935-7.851 32.857-12.707 8.078-29.371 4.619-44.074 8.895-2.938.817-6.985 3.517-9.05 5.428-1.327-.872-2.659-2.212-4.369-2.999-12.099-6.433-27.828-4.278-41.484-7.753-6.86-2.17-14.012-7.514-15.749-14.534-4.466-18.42 6.232-34.119 4.969-52.392-.817-13.955-3.162-27.352-6.385-40.434 10.677 4.974 23.035 5.805 35.037 3.419 8.891-1.242 19.24-1.27 27.571 2.492 4.591-1.976 9.965-2.863 14.912-3.407 9.407.915 19.518 2.617 29.204 2.548 6.47-.336 12.345-2.206 17.969-4.697-3.336 21.624-9.742 44.273-1.877 66.021"/><path fill="#fff" d="M170.989 265.867l-.105-20.332h2.505l-31.08-20.074-.057-10.431h3.002l-15.541-11.128-15.463 11.121h2.992l.057 10.425-30.914 20.048 2.47.011.105 20.32 82.022.056"/><path d="M170.864 265.668l-.104-20.329h2.504l-31.071-20.07-.056-10.429h3l-15.536-11.128-15.46 11.121h2.992l.057 10.422-30.905 20.044 2.47.013.104 20.315 81.997.057.007-.016z" stroke="#000" stroke-width="1.334" fill="none"/><path fill="#fff" d="M180.55 292.574l.007 6.363-100.129-.112-.042-6.335 100.172.084"/><path d="M180.421 292.37l.007 6.361-100.1-.111-.041-6.335 100.142.085h-.007z" stroke="#000" stroke-width="1.334" fill="none"/><path fill="#fff" d="M87.077 292.196l-.083-21.533 4.054-.008-.223 21.783.243-21.608-5.84-.167v-4.619l89.488.098.041 4.577h-5.519l.105 21.805-.196-21.805h4.111l.091 21.559"/><path d="M86.977 291.992l-.084-21.529 4.052-.008-.222 21.78.244-21.604-5.839-.167v-4.618l89.461.097.041 4.577h-5.518l.104 21.8-.195-21.8h4.108l.092 21.555m-67.014-5.389l-.063-15.013H94.132l.07 14.998 12.005.015m-8.802-11.884l.034 8.721h5.497l-.028-8.721h-5.504m67.522 11.93l-.069-14.998-11.972-.014.056 15.011h11.985" stroke="#000" stroke-width="1.334" fill="none"/><path d="M156.126 274.859l.063 8.692h5.489l-.048-8.692h-5.504m8.71-12.572l-.069-15.014H152.78l.042 15.014h12.019-.007zm-8.801-11.861l.034 8.706h5.49l-.007-8.706h-5.518m-49.931 11.804l-.084-14.985-11.992-.015.056 14.992h12.019v.008zm-8.801-11.861l.028 8.692 5.504.014-.041-8.706h-5.49m30.541 11.884l-.056-14.985-11.999-.014.049 14.998h12.005m-8.79-11.86l.028 8.692 5.497.028-.034-8.72h-5.49m25.544 11.895l-.084-15.014-11.992-.014.056 14.998 12.019.029m-8.801-11.883l.041 8.721h5.497l-.028-8.721h-5.511" stroke="#000" stroke-width="1.334" fill="none"/><path fill="#fff" d="M147.696 257.878l.132 34.615-34.771-.057-.125-34.586 34.758.027"/><path d="M147.577 257.681l.133 34.608-34.762-.056-.126-34.579 34.748.028h.007zm-34.964 9.879l34.999.028m-30.633 24.692l-.118-24.458m26.614 24.469l-.118-24.443m16.907-24.904l-19.575-14.295-21.995-.028-19.421 14.267 60.992.055m-39.882-26.162l.034 8.721 18.501.013-.034-8.72-18.501-.014m5.019 2.165l.028 4.346h8.498l-.029-4.346h-8.496m4.206-12.09l10.29 7.275-20.503-.026 10.213-7.248" stroke="#000" stroke-width="1.334" fill="none"/><path fill="#fff" d="M171.333 202.114c2.924-.069 3.677 12.044 3.684 18.044 2.512.705 8.081 4.208 10.544 7.375l-28.248-.042c2.428-3.126 7.955-6.642 10.446-7.347 0-6.008.614-18.114 3.573-18.043"/><path d="M171.208 201.928c2.922-.069 3.676 12.041 3.683 18.04 2.511.705 8.079 4.207 10.541 7.373l-28.24-.041c2.427-3.125 7.953-6.641 10.443-7.346 0-6.006.614-18.11 3.572-18.04m-56.761 56.729h2.533l-.74 1.359s1.222 1.57.022 3.369l.662 1.249h-2.441l.662-1.186s-1.249-2.086.055-3.432l-.753-1.359m5.157 0h2.533l-.733 1.359s1.222 1.529.008 3.369l.656 1.249h-2.435l.656-1.186s-1.22-2.086.063-3.432l-.746-1.359m5.638 0h2.526l-.754 1.359s1.235 1.57.021 3.369l.664 1.278-2.421-.028.65-1.187s-1.235-2.071.048-3.432l-.739-1.359h.007zm6.349.023h2.546l-.746 1.375s1.22 1.541.007 3.347l.683 1.27h-2.456l.657-1.186s-1.222-2.099.084-3.432l-.768-1.374h-.007zm5.65 0h2.526l-.747 1.375s1.229 1.541.014 3.341l.67 1.277h-2.435l.635-1.186s-1.227-2.086.097-3.432l-.76-1.374m5.615.011l2.526-.014-.747 1.374s1.249 1.543.034 3.349l.636 1.27h-2.442l.656-1.186s-1.22-2.086.084-3.432l-.746-1.36" stroke="#000" stroke-width="1.334" fill="none"/><path fill="#ff0" d="M130.477 336.864c13.021.042 29.037-2.617 36.537-6.495l16.475-1.46.328 20.103c-13.956 7.695-46.181 9.349-53.272 9.294-7.095.056-39.718-1.626-53.738-9.349l.182-20.116 16.509 1.486c7.503 3.859 24.005 6.538 37.013 6.538h-.034"/><path d="M130.364 336.651c13.017.041 29.027-2.616 36.526-6.494l16.47-1.459.328 20.099c-13.953 7.694-46.168 9.348-53.255 9.292-7.096.056-39.709-1.625-53.724-9.347l.181-20.112 16.506 1.485c7.499 3.859 23.997 6.537 37.001 6.537h-.034" stroke="#000" stroke-width=".311" fill="none"/><path fill="#ff0" d="M34.392 251.116l14.515 4.619-4.39 23.5-13.74 2.135s-2.317-12.358 3.615-30.269"/><path d="M34.306 250.919l14.511 4.618-4.388 23.496-13.736 2.134s-2.316-12.355 3.613-30.262v.014z" stroke="#000" stroke-width=".311" fill="none"/><path fill="#7e7e7e" d="M44.514 278.979l-13.733 2.394 8.688-12.357 5.045 9.963"/><path d="M44.426 278.778l-13.729 2.393 8.686-12.355 5.044 9.962" stroke="#000" stroke-width=".311" fill="none"/><path fill="#ff0" d="M25.714 268.045l13.99 1.01c.314 11.856 1.752 57.097 55.776 59.552l-1.682 16.461c-65.761.683-70.759-55.492-68.086-77.023"/><path d="M25.631 267.846l13.987 1.011c.314 11.853 1.751 57.086 55.76 59.542l-1.681 16.457c-65.743.683-70.738-55.481-68.066-77.009zm51.341 80.38l16.484-3.6" stroke="#000" stroke-width=".311" fill="none"/><path fill="#ff0" d="M225.416 251.288l-14.458 4.577 4.585 23.465 13.767 2.211s2.211-12.349-3.895-30.267"/><path d="M225.276 251.091l-14.454 4.576 4.584 23.461 13.763 2.212s2.212-12.348-3.893-30.262v.014z" stroke="#000" stroke-width=".311" fill="none"/><path fill="#7e7e7e" d="M215.536 279.083l13.767 2.47-8.807-12.363-4.961 9.893"/><path d="M215.397 278.882l13.763 2.47-8.804-12.361-4.96 9.891" stroke="#000" stroke-width=".311" fill="none"/><path fill="#ff0" d="M234.255 268.228l-14.011.956c-.203 11.841-1.236 57.103-55.261 59.504l1.835 16.446c65.748.76 70.271-55.388 67.437-76.912"/><path d="M234.112 268.029l-14.008.957c-.203 11.838-1.234 57.091-55.244 59.491l1.835 16.443c65.729.759 70.25-55.377 67.417-76.898v.006zm-50.642 80.277l-16.525-3.61" stroke="#000" stroke-width=".311" fill="none"/><path fill="#009fc5" d="M121.752 346.828c-.37.238-.873.3-1.452.273l-2.61-.133.224-3.258 2.589.139c.51.034.915.133 1.165.286.524.273.755.775.706 1.472-.034.6-.245.991-.628 1.221m-4.384 5.13l.258-3.971 3.043.21c.985.077 1.718-.182 2.213-.685.516-.49.781-1.13.817-1.855.062-.845-.154-1.536-.657-2.046-.481-.49-1.165-.746-2.023-.83l-4.349-.271-.6 9.35 1.291.085m9.476-7.81l3.183.034c.461.042.824.098 1.09.224.487.23.717.69.717 1.36 0 .63-.182 1.047-.537 1.3-.341.228-.837.333-1.43.333l-3.057-.034.027-3.217m-.049 8.283l.029-3.992 2.987.042c.53 0 .922.042 1.193.174.44.203.656.63.677 1.214l.077 1.57c.02.378.028.609.05.761l.118.315h1.604l-.027-.203c-.182-.097-.328-.285-.392-.572-.055-.182-.083-.454-.096-.796l-.029-1.249c-.02-.565-.118-.956-.334-1.172a1.673 1.673 0 00-.845-.6c.446-.237.782-.51 1.026-.845.23-.37.349-.838.349-1.409 0-1.074-.44-1.808-1.334-2.205-.481-.217-1.095-.33-1.82-.342l-4.489-.043-.034 9.38h1.29m9.963-1.983c-.573-.698-.88-1.57-.95-2.603-.062-1.298.19-2.29.782-2.958.6-.728 1.375-1.076 2.387-1.132 1.02-.055 1.857.274 2.478.914.635.628.998 1.501 1.06 2.59.035 1.046-.146 1.975-.627 2.79-.475.831-1.264 1.3-2.429 1.327-1.215.063-2.122-.222-2.701-.928m-1.537-5.904c-.6.928-.843 2.003-.78 3.3.09 1.403.523 2.562 1.339 3.435.908.871 2.109 1.31 3.588 1.228 1.584-.07 2.777-.672 3.587-1.772.657-.998.97-2.158.9-3.588-.09-1.277-.46-2.317-1.151-3.092-.872-1.04-2.15-1.5-3.881-1.43-1.633.104-2.834.704-3.607 1.92m44.078-13.495c.9-.154 1.682-.11 2.394.133 1.047.328 1.753 1.104 2.192 2.288l-1.292.182c-.279-.641-.677-1.08-1.214-1.325-.524-.23-1.18-.287-1.934-.174a3.01 3.01 0 00-2.08 1.276c-.488.754-.635 1.759-.419 3.042.183 1.062.573 1.961 1.216 2.56.592.615 1.466.831 2.602.672.852-.14 1.537-.481 2.018-1.068.502-.558.649-1.402.481-2.491l-3.007.46-.154-1.032 4.188-.643.816 4.962-.83.125-.517-1.144c-.349.517-.698.915-1.005 1.144-.517.406-1.215.665-2.087.79-1.13.174-2.163-.029-3.1-.628-1.025-.762-1.688-1.892-1.94-3.462-.271-1.542-.027-2.861.684-3.901.678-1.005 1.662-1.591 2.988-1.78m9.47-.708l3.001-1.089c.412-.152.768-.202 1.075-.167.551.042.956.37 1.187 1.025.217.558.217 1.047-.028 1.39-.258.355-.664.614-1.25.83l-2.818 1.012-1.167-3m3.002 7.752l-1.466-3.76 2.792-1.007c.523-.167.886-.258 1.158-.23.495.063.873.365 1.124.936l.635 1.43c.14.357.251.573.341.672.043.125.133.201.204.284l1.513-.557-.083-.203c-.223 0-.44-.125-.6-.37-.119-.174-.23-.425-.391-.718l-.495-1.173c-.224-.51-.454-.823-.72-1.013a2.394 2.394 0 00-.997-.27c.307-.358.53-.713.614-1.132.091-.426.05-.899-.153-1.43-.385-.998-1.09-1.542-2.08-1.612-.524-.042-1.124.068-1.815.313l-4.216 1.501 3.406 8.82 1.236-.453m10.968-4.674l-5.353-7.81 5.877-3.748.648.943-4.816 3.077 1.648 2.386 4.445-2.86.608.913-4.446 2.862 1.815 2.631 4.899-3.134.648.922-5.98 3.818m4.696-13.814l1.536-1.689c.711-.755 1.465-1.096 2.288-.998.824.07 1.662.502 2.555 1.284.245.189.461.432.683.705.392.509.623.956.77 1.402.125.559.096 1.069-.099 1.557-.119.243-.328.53-.643.873l-1.542 1.675-5.548-4.823m8.11 3.677c1.09-1.2 1.326-2.491.69-3.949a6.669 6.669 0 00-1.716-2.227c-.984-.873-2.01-1.319-3.092-1.402-1.2-.091-2.22.341-3.106 1.311l-2.617 2.805 7.217 6.296 2.617-2.82m5.598-7.29l-8.305-4.877.677-1.074 8.319 4.85-.683 1.115m3.25-5.676l-8.97-3.588 2.645-6.31 1.09.42-2.158 5.2 2.701 1.06 2.017-4.788 1.033.427-1.996 4.78 3.023 1.229 2.212-5.263 1.088.411-2.694 6.422m4.123-11.017l-9.436-2.087.314-1.459 8.717-2.945-7.655-1.689.278-1.144 9.437 2.03-.3 1.416-8.731 3.01 7.656 1.654-.273 1.214m-.752-11.98l.12-1.187c.543.015 1.004-.07 1.353-.257.683-.37 1.082-1.075 1.186-2.116.042-.488.02-.914-.09-1.318-.203-.78-.643-1.215-1.347-1.285-.524-.056-.901.07-1.172.357-.245.328-.503.801-.699 1.473l-.432 1.235c-.28.808-.539 1.366-.817 1.68-.447.588-1.075.79-1.878.734-.858-.09-1.556-.432-2.052-1.089-.51-.6-.718-1.457-.593-2.52.083-.969.405-1.786.978-2.441.53-.6 1.354-.888 2.407-.775l-.097 1.185c-.517 0-.929.092-1.23.3-.543.301-.844.936-.935 1.864-.076.768.029 1.285.321 1.676.294.328.664.536 1.096.571.461.042.824-.104 1.076-.46.182-.244.398-.775.69-1.634l.426-1.297c.21-.6.46-1.06.753-1.388.524-.545 1.208-.775 2.067-.713 1.047.112 1.793.545 2.177 1.34.377.803.523 1.69.432 2.695-.118 1.136-.488 2.03-1.172 2.63-.683.614-1.536.823-2.568.74m-195.61-.573l.216 1.172c-.523.103-.942.314-1.25.586-.55.516-.739 1.29-.55 2.344.083.446.243.887.446 1.236.419.711.963.997 1.655.886.508-.092.844-.285 1.005-.65.153-.355.265-.9.299-1.597l.064-1.32c.04-.816.132-1.457.314-1.814.285-.642.822-1.04 1.626-1.172.858-.154 1.611.042 2.261.53.656.454 1.09 1.243 1.25 2.289.201.957.111 1.815-.266 2.589-.364.754-1.061 1.214-2.129 1.41l-.21-1.186c.496-.182.866-.356 1.11-.6.42-.469.545-1.145.384-2.072-.125-.755-.384-1.244-.774-1.488-.385-.286-.768-.398-1.187-.327-.466.07-.774.327-.922.746-.09.28-.159.858-.223 1.745l-.062 1.368c-.034.642-.132 1.172-.35 1.536-.341.67-.921 1.081-1.765 1.213-1.068.182-1.891-.062-2.477-.746-.601-.67-.97-1.473-1.159-2.471-.209-1.187-.057-2.108.42-2.847.48-.76 1.24-1.2 2.274-1.347m-.596 12.356l9.227-2.777 2.15 6.496-1.125.356-1.758-5.338-2.807.844 1.628 4.933-1.076.343-1.612-4.947-3.126.933 1.786 5.458-1.103.315-2.184-6.616m4.093 11.27l8.486-4.501.908 1.584-5.835 6.168 8.522-1.457.88 1.57-8.467 4.473-.6-1.04 4.996-2.63c.182-.106.462-.26.866-.475.398-.182.846-.427 1.292-.656l-8.487 1.445-.62-1.104 5.792-6.148-.279.14-.922.501a6.98 6.98 0 01-.935.503l-4.984 2.673-.614-1.06m15.811 12.51c-.425-.097-.844-.342-1.256-.768l-1.794-1.85 2.415-2.212 1.807 1.844c.35.341.573.676.692.962.168.551 0 1.054-.51 1.528-.46.425-.921.6-1.354.496m-6.819.858l2.96-2.714 2.101 2.128c.677.69 1.368 1.005 2.094.99a2.953 2.953 0 001.932-.844c.629-.558.929-1.214.929-1.918-.007-.685-.321-1.326-.9-1.927l-3.016-3.078-7.021 6.449.908.914m8.484 7.533l5.086-7.977 6.017 3.657-.627.95-4.942-2.958-1.529 2.414 4.544 2.756-.586.915-4.55-2.743-1.731 2.7 5.003 3.008-.6.943-6.085-3.665m15.053-1.536l3.058.97c.432.133.746.3.956.49.39.369.495.9.265 1.54-.189.559-.475.923-.922 1.076a3.172 3.172 0 01-1.486-.112l-2.883-.921 1.013-3.043m-2.639 7.837l1.27-3.803 2.849.928c.508.133.878.315 1.06.503.348.314.453.782.279 1.36l-.426 1.514-.189.726.022.328 1.5.49.091-.217c-.16-.126-.25-.356-.245-.642.036-.175.085-.454.182-.776l.363-1.214c.147-.53.203-.927.07-1.213a1.915 1.915 0 00-.615-.83c.476-.085.888-.232 1.236-.49.328-.286.608-.683.774-1.24.343-1.013.155-1.858-.6-2.5-.375-.334-.913-.621-1.619-.886l-4.271-1.32-2.987 8.898 1.25.384"/><path fill="#bc715f" d="M78.471 175.69c1.103-2.66 11.321-9.91 44.849-6.735 0 0 5.667 3.462 8.997 3.016 1.898-.245-1.118.117-3.595-1.941-2.526-2.058-3.063-6.279 2.708-6.168 5.743.147 27.247 1.361 27.652 3.293.376 1.954-11.37 2.77-15.739 2.658-4.39-.117-3.881 2.102.489 1.935 13.65-.489 28.551-5.299 44.29 5.833 1.878 1.354-4.745 1.57-9.869-.608 0 0-13.884.719-19.884-.264 0 0-4.613 3.753-10.623 3.384.782 1.946-2.219 9.212-21.112 3.746-3.119.957-14.489 2.862-13.246-.516-2.995 0-8.244.964-9.024-.74-.754-1.675 9.241-4.208 10.993-6.022 0 0-21.142.203-25.148-1.256 0 0-12.472 2.798-11.74.37"/><path fill="#008737" d="M85.248 205.291c.453-.613.634-1.716 1.598-1.688 2.094.558 3.516 4.389 6.093 1.905.914-.203 1.263 1.04 2.017 1.187.481 2.128 2.192-.432 3.469-.287 2.729-1.214 6.108-1.501 9.338-.9.098 2.086-1.535 4.389-3.587 5.576.042 2.101 1.947 3.448 1.912 5.561-.328.789-.056 2.03-1.25 2.289-1.514-.272-3.008-.432-4.264-1.277-.154-.154-.279-.454-.6-.356-.154.706.949 1.403 1.382 2.122-.76 1.297-2.023.112-3.084.125-.315.747-.015 1.689-.783 2.17-1.339-.042-1.611-1.5-2.435-2.226-.844.914.593 1.459.797 2.185-.518 2.748-.447 5.435-3.198 7.237l-1.842.914c-.503-1.382-.189-3.475-.523-4.92-1.089 1.772-1.94 3.323-3.539 4.822-1.87-.615-2.959-2.819-3.371-4.648-.781-2.128-.335-4.676 1.347-6.218-.572-1.116-2.533-.858-2.812-2.449-2.939-1.912-4.565 3.35-6.464.615-.615-2.555.119-5.731 1.969-7.636-.412-1.046-1.78-.774-2.59-1.374-1.849-1.57-4.516-3.232-4.382-6.066 5.06-1.912 11.111-.509 14.789 3.335"/><path fill="#ff0" d="M87.872 205.005c-.118 2.316 1.564.627 2.813 2.03-.978-.385-1.689 1.689-2.645.502l-.601.574c.349.794 1.026.899.321 1.772-1.047.398-1.256-.914-1.745-1.432-.084-.229.16-.662-.223-.816-.593.502-1.214.683-2.031.601-.223-.447-.655-1.033-.216-1.375.802-1.082 2.045.39 2.652-.37.098-.67-.488-1.486.273-1.948.523.091 1.193-.193 1.41.462m6.252 1.903c.064.447-.23 1.074.356 1.388.761-.412 1.57-.098 2.01.657-.007.404.119.934-.411 1.13l-1.187-.222c.084-.231-.294-.378-.439-.601-.523-.159-.831.265-1.222.523.294.446.971.691.81 1.263-.698.698-1.04-.6-1.808-.273-.523-.201.189-1.29-.635-1.618-.976 0-.328 1.605-1.577.978-.446-.503-.887-1.18-.404-1.745.523-.351 1.409-.259 1.855.193.762-.842.839-4.102 2.661-1.674m-7.804 3.359c.51.733-.112 1.73.538 2.547 1.019-1.905 2.003.412 3.217.23.37.454.125 1.082.196 1.599-1.501.398-3.308.872-4.635-.329l-.37.426c.789.734 1.536 1.564.908 2.792-1.124.245-2.862.273-3.428-.885-.292-.956.684-1.647-.348-2.415-.748.927-.712 2.171-2.269 1.326-.963-.53-1.248-1.625-.767-2.547 1.005-1.584 2.763.049 3.852-.726.154-1.361-.349-2.547.9-3.3 1.069-.189 1.564.613 2.212 1.284"/><path fill="#fff" d="M90.589 211.104c-.502 2.317-2.248-.118-3.063-.216 1.089-1.932 1.773.628 3.063.216m5.435 2.522c-1.214.341-1.026-1.172-1.627-1.766l.469-.426c.439.53.774 1.487 1.158 2.192"/><path fill="#ff0" d="M94.385 213.155c.349.802-.789 1.445.182 2.031.307-.258.683-.615.844-.761.831.246 1.793.391 2.373 1.214.621 1.704-1.104 1.661-2.08 2.136l-.97-.042c.23-.475-.419-.677-.58-1.004-.446-.112-.816.027-1.067.404.216 1.081 1.536 1.925.175 2.889-1.152-.076-2.938.37-2.834-1.222-.432-.899 1.172-2.289-.545-2.344-.566 1.215-1.186 2.386-2.658 1.236l.181-1.73c1.41.04 3.078.284 3.713-1.292.404-1.145-.706-2.199.286-3.107 1.438-.328 2.248.636 2.98 1.591"/><path d="M93.352 215.758c.364.859-.615.915-1.074 1.341-.621.049-1.054-.196-1.43-.615-.28-1.04.495-1.145 1.088-1.556.691-.287.978.516 1.417.831"/><path fill="#fff" d="M92.505 216.32c-.154.203-.37.14-.601.195l-.216-1.039c.461.041 1.061.188.817.844"/></svg>
