<svg xmlns="http://www.w3.org/2000/svg" height="512" width="512" viewBox="0 0 512 512"><defs><clipPath id="a"><path fill-opacity=".67" d="M0 0h450v450h-450z"/></clipPath></defs><g clip-path="url(#a)"><path d="M0 0h768.015v256.005h-426.675l-341.34-256.005z" fill-rule="evenodd" fill="#ed2939"/><path d="M0 512.01h768.015v-256.005h-426.675l-341.34 256.005z" fill-rule="evenodd" fill="#002395"/><path d="M0 0l341.34 256.005-341.34 256.005v-512.01z" fill-rule="evenodd" fill="#fff"/><path fill="#ff0" d="M172.285 193.254l.105-3.964s-2.128-3.391.341-7.033c0 0-5.248-2.776-4.026-7.124 0 0-4.745-1.214-4.396-6.433 0 0-5.122-.356-5.653-4.716 0 0-5.122.843-7.376-3.405 0 0-4.995.976-6.406-2.526 0 0-4.856 1.682-7.738-2.435 0 0-5.129 2.071-7.279-1.815-2.121 3.873-7.25 1.814-7.25 1.814-2.847 4.103-7.739 2.401-7.739 2.401-1.361 3.516-6.343 2.519-6.343 2.519-2.246 4.25-7.362 3.404-7.362 3.404-.502 4.348-5.617 4.704-5.617 4.704.405 5.233-4.333 6.419-4.333 6.419 1.248 4.346-3.993 7.116-3.993 7.116 2.534 3.664.427 7.027.427 7.027l-.119 3.656 84.771.391"/><path d="M172.159 193.069l.104-3.963s-2.127-3.39.343-7.032c0 0-5.246-2.776-4.026-7.122 0 0-4.744-1.214-4.395-6.432 0 0-5.12-.355-5.65-4.715 0 0-5.121.843-7.375-3.405 0 0-4.994.976-6.404-2.526 0 0-4.856 1.682-7.737-2.435 0 0-5.127 2.072-7.277-1.813-2.12 3.872-7.247 1.813-7.247 1.813-2.847 4.103-7.735 2.4-7.735 2.4-1.361 3.516-6.342 2.519-6.342 2.519-2.246 4.249-7.36 3.404-7.36 3.404-.503 4.348-5.615 4.702-5.615 4.702.403 5.233-4.332 6.419-4.332 6.419 1.248 4.347-3.992 7.116-3.992 7.116 2.533 3.663.426 7.025.426 7.025l-.119 3.656 84.746.391h-.014z" stroke="#000" stroke-width="0.310566" fill="none"/><path fill="#f00" d="M170.313 188.302c-13.315-1.332-28.646-4.494-40.481 2.171-7.934-4.676-18.981-4.39-28.387-3.475-5.108.914-11.116.914-16.454 1.786l-.837.117c-9.686.643-18.471-2.219-26.887-5.979 2.673 15.169 5.638 30.715 7.096 46.596 3.174 23.521-11.13 43.267-5.261 66.502 3.502 11.15 15.763 17.631 26.984 18.916 10.866.642 22.107 2.421 32.163 4.605 1.912.398 4.179 1.286 5.498 1.856 2.771 1.158 4.802 2.862 6.581 4.683 6.071-6.323 14.968-8.081 23.746-9.009 15.82-1.849 35.323-.843 45.009-15.175v-.81c5.261-7.926 4.563-20.017 2.281-28.998-.154-3.132-.99-5.896-1.445-8.882-9.664-25.524-1.388-54.229 2.772-79.955-5.08 2.776-10.747 4.088-16.399 5.477-4.508.601-9.531.329-14.095.083l-1.891-.509"/><path fill="#80cfe1" d="M190.19 261.557c-.063 1.681.844 3 1.172 4.556 1.85 11.157 3.636 25.935-7.851 32.857-12.707 8.078-29.371 4.619-44.074 8.895-2.938.817-6.985 3.517-9.05 5.428-1.327-.872-2.659-2.212-4.369-2.999-12.099-6.433-27.828-4.278-41.484-7.753-6.86-2.17-14.012-7.514-15.749-14.534-4.466-18.42 6.232-34.119 4.969-52.392-.817-13.955-3.162-27.352-6.385-40.434 10.677 4.974 23.035 5.805 35.037 3.419 8.891-1.242 19.24-1.27 27.571 2.492 4.591-1.976 9.965-2.863 14.912-3.407 9.407.915 19.518 2.617 29.204 2.548 6.47-.336 12.345-2.206 17.969-4.697-3.336 21.624-9.742 44.273-1.877 66.021"/><path fill="#fff" d="M170.989 265.867l-.105-20.332h2.505l-31.08-20.074-.057-10.431h3.002l-15.541-11.128-15.463 11.121h2.992l.057 10.425-30.914 20.048 2.47.011.105 20.32 82.022.056"/><path d="M170.864 265.668l-.104-20.329h2.504l-31.071-20.07-.056-10.429h3l-15.536-11.128-15.46 11.121h2.992l.057 10.422-30.905 20.044 2.47.013.104 20.315 81.997.057.007-.016z" stroke="#000" stroke-width="1.3339439999999998" fill="none"/><path fill="#fff" d="M180.55 292.574l.007 6.363-100.129-.112-.042-6.335 100.172.084"/><path d="M180.421 292.37l.007 6.361-100.1-.111-.041-6.335 100.142.085h-.007z" stroke="#000" stroke-width="1.3339439999999998" fill="none"/><path fill="#fff" d="M87.077 292.196l-.083-21.533 4.054-.008-.223 21.783.243-21.608-5.84-.167v-4.619l89.488.098.041 4.577h-5.519l.105 21.805-.196-21.805h4.111l.091 21.559"/><path d="M86.977 291.992l-.084-21.529 4.052-.008-.222 21.78.244-21.604-5.839-.167v-4.618l89.461.097.041 4.577h-5.518l.104 21.8-.195-21.8h4.108l.092 21.555M106.207 286.686l-.063-15.013h-12.012l.07 14.998 12.005.015M97.405 274.802l.034 8.721h5.497l-.028-8.721h-5.504m67.522 11.93l-.069-14.998-11.972-.014.056 15.011h11.985" stroke="#000" stroke-width="1.3339439999999998" fill="none"/><path d="M156.126 274.859l.063 8.692h5.489l-.048-8.692h-5.504m8.71-12.572l-.069-15.014h-11.987l.042 15.014h12.019-.007zM156.035 250.426l.034 8.706h5.49l-.007-8.706h-5.518m-49.931 11.804l-.084-14.985-11.992-.015.056 14.992h12.019v.008zM97.302 250.369l.028 8.692 5.504.014-.041-8.706h-5.49m30.541 11.884l-.056-14.985-11.999-.014.049 14.998h12.005M119.053 250.392l.028 8.692 5.497.028-.034-8.72h-5.49m25.544 11.895l-.084-15.014-11.992-.014.056 14.998 12.019.029M135.796 250.403l.041 8.721h5.497l-.028-8.721h-5.511" stroke="#000" stroke-width="1.3339439999999998" fill="none"/><path fill="#fff" d="M147.696 257.878l.132 34.615-34.771-.057-.125-34.586 34.758.027"/><path d="M147.577 257.681l.133 34.608-34.762-.056-.126-34.579 34.748.028h.007zm-34.964 9.879l34.999.028m-30.633 24.692l-.118-24.458m26.614 24.469l-.118-24.443m16.907-24.904l-19.575-14.295-21.995-.028-19.421 14.267 60.992.055m-39.882-26.162l.034 8.721 18.501.013-.034-8.72-18.501-.014M125.402 218.946l.028 4.346h8.498l-.029-4.346h-8.496m4.206-12.09l10.29 7.275-20.503-.026 10.213-7.248" stroke="#000" stroke-width="1.3339439999999998" fill="none"/><path fill="#fff" d="M171.333 202.114c2.924-.069 3.677 12.044 3.684 18.044 2.512.705 8.081 4.208 10.544 7.375l-28.248-.042c2.428-3.126 7.955-6.642 10.446-7.347 0-6.008.614-18.114 3.573-18.043"/><path d="M171.208 201.928c2.922-.069 3.676 12.041 3.683 18.04 2.511.705 8.079 4.207 10.541 7.373l-28.24-.041c2.427-3.125 7.953-6.641 10.443-7.346 0-6.006.614-18.11 3.572-18.04m-56.761 56.729h2.533l-.74 1.359s1.222 1.57.022 3.369l.662 1.249h-2.441l.662-1.186s-1.249-2.086.055-3.432l-.753-1.359m5.157 0h2.533l-.733 1.359s1.222 1.529.008 3.369l.656 1.249h-2.435l.656-1.186s-1.22-2.086.063-3.432l-.746-1.359m5.638 0h2.526l-.754 1.359s1.235 1.57.021 3.369l.664 1.278-2.421-.028.65-1.187s-1.235-2.071.048-3.432l-.739-1.359h.007zm6.349.023h2.546l-.746 1.375s1.22 1.541.007 3.347l.683 1.27h-2.456l.657-1.186s-1.222-2.099.084-3.432l-.768-1.374h-.007zm5.65 0h2.526l-.747 1.375s1.229 1.541.014 3.341l.67 1.277h-2.435l.635-1.186s-1.227-2.086.097-3.432l-.76-1.374m5.615.011l2.526-.014-.747 1.374s1.249 1.543.034 3.349l.636 1.27h-2.442l.656-1.186s-1.22-2.086.084-3.432l-.746-1.36" stroke="#000" stroke-width="1.3339439999999998" fill="none"/><path fill="#ff0" d="M130.477 336.864c13.021.042 29.037-2.617 36.537-6.495l16.475-1.46.328 20.103c-13.956 7.695-46.181 9.349-53.272 9.294-7.095.056-39.718-1.626-53.738-9.349l.182-20.116 16.509 1.486c7.503 3.859 24.005 6.538 37.013 6.538h-.034"/><path d="M130.364 336.651c13.017.041 29.027-2.616 36.526-6.494l16.47-1.459.328 20.099c-13.953 7.694-46.168 9.348-53.255 9.292-7.096.056-39.709-1.625-53.724-9.347l.181-20.112 16.506 1.485c7.499 3.859 23.997 6.537 37.001 6.537h-.034" stroke="#000" stroke-width="0.310566" fill="none"/><path fill="#ff0" d="M34.392 251.116l14.515 4.619-4.39 23.5-13.74 2.135s-2.317-12.358 3.615-30.269"/><path d="M34.306 250.919l14.511 4.618-4.388 23.496-13.736 2.134s-2.316-12.355 3.613-30.262v.014z" stroke="#000" stroke-width="0.310566" fill="none"/><path fill="#7e7e7e" d="M44.514 278.979l-13.733 2.394 8.688-12.357 5.045 9.963"/><path d="M44.426 278.778l-13.729 2.393 8.686-12.355 5.044 9.962" stroke="#000" stroke-width="0.310566" fill="none"/><path fill="#ff0" d="M25.714 268.045l13.99 1.01c.314 11.856 1.752 57.097 55.776 59.552l-1.682 16.461c-65.761.683-70.759-55.492-68.086-77.023"/><path d="M25.631 267.846l13.987 1.011c.314 11.853 1.751 57.086 55.76 59.542l-1.681 16.457c-65.743.683-70.738-55.481-68.066-77.009zm51.341 80.38l16.484-3.6" stroke="#000" stroke-width="0.310566" fill="none"/><path fill="#ff0" d="M225.416 251.288l-14.458 4.577 4.585 23.465 13.767 2.211s2.211-12.349-3.895-30.267"/><path d="M225.276 251.091l-14.454 4.576 4.584 23.461 13.763 2.212s2.212-12.348-3.893-30.262v.014z" stroke="#000" stroke-width="0.310566" fill="none"/><path fill="#7e7e7e" d="M215.536 279.083l13.767 2.47-8.807-12.363-4.961 9.893"/><path d="M215.397 278.882l13.763 2.47-8.804-12.361-4.96 9.891" stroke="#000" stroke-width="0.310566" fill="none"/><path fill="#ff0" d="M234.255 268.228l-14.011.956c-.203 11.841-1.236 57.103-55.261 59.504l1.835 16.446c65.748.76 70.271-55.388 67.437-76.912"/><path d="M234.112 268.029l-14.008.957c-.203 11.838-1.234 57.091-55.244 59.491l1.835 16.443c65.729.759 70.25-55.377 67.417-76.898v.006zm-50.642 80.277l-16.525-3.61" stroke="#000" stroke-width="0.310566" fill="none"/><path fill="#009fc5" d="M106.988 304.77c-.325.209-.767.264-1.276.24l-2.293-.117.196-2.863 2.275.122c.448.03.804.117 1.024.251.46.24.663.681.62 1.294-.03.527-.215.871-.552 1.073m-3.852 4.508l.227-3.49 2.674.185c.865.067 1.509-.16 1.944-.602.454-.43.687-.993.718-1.63.055-.743-.135-1.35-.577-1.798-.423-.43-1.024-.656-1.778-.73l-3.821-.238-.527 8.217 1.134.074m8.327-6.863l2.797.03c.405.037.724.086.957.197.429.202.631.607.631 1.195 0 .553-.16.92-.472 1.142-.3.201-.736.293-1.257.293l-2.686-.03.024-2.827m-.043 7.279l.025-3.508 2.625.037c.466 0 .81.037 1.048.153.387.178.577.553.595 1.067l.068 1.38c.018.331.024.534.043.668l.104.277h1.41l-.024-.179c-.16-.085-.288-.25-.344-.502-.049-.16-.073-.399-.085-.7l-.025-1.097c-.018-.497-.104-.84-.294-1.03a1.47 1.47 0 0 0-.742-.528c.392-.208.687-.447.901-.742.203-.325.307-.736.307-1.238 0-.944-.387-1.589-1.172-1.938-.423-.19-.962-.289-1.6-.3l-3.944-.038-.03 8.242h1.134m8.754-1.742c-.503-.613-.773-1.38-.834-2.287-.055-1.141.166-2.012.687-2.6.527-.639 1.208-.945 2.097-.994.896-.049 1.632.24 2.178.803.558.552.877 1.319.932 2.276.03.919-.129 1.735-.552 2.452-.417.73-1.11 1.141-2.134 1.165-1.068.056-1.865-.195-2.374-.815m-1.35-5.188c-.527.815-.741 1.76-.686 2.9.08 1.233.46 2.251 1.177 3.018.798.766 1.853 1.152 3.153 1.079 1.392-.062 2.44-.59 3.152-1.557.577-.877.853-1.896.791-3.153-.08-1.122-.404-2.036-1.012-2.717-.766-.913-1.889-1.318-3.41-1.256-1.435.091-2.49.618-3.17 1.686m38.733-11.858c.791-.135 1.478-.097 2.104.117.92.288 1.54.97 1.926 2.011l-1.135.16c-.245-.564-.595-.95-1.067-1.165-.46-.202-1.037-.252-1.699-.153a2.645 2.645 0 0 0-1.828 1.122c-.429.662-.558 1.545-.368 2.673.16.933.503 1.723 1.068 2.25.52.54 1.288.73 2.287.59.748-.123 1.35-.423 1.773-.939.441-.49.57-1.232.423-2.189l-2.643.405-.135-.907 3.68-.565.717 4.36-.73.11-.454-1.005c-.306.454-.613.804-.883 1.005-.454.357-1.067.584-1.834.694-.993.153-1.9-.025-2.723-.552-.901-.669-1.484-1.662-1.705-3.042-.239-1.355-.024-2.514.601-3.428.595-.883 1.46-1.398 2.625-1.564m8.322-.622l2.637-.957c.362-.134.675-.178.945-.147.484.037.84.325 1.043.901.19.49.19.92-.025 1.221-.227.312-.583.54-1.098.73l-2.477.889-1.025-2.637m2.638 6.813l-1.288-3.305 2.453-.884c.46-.147.779-.227 1.018-.202.435.055.767.32.987.822l.558 1.257c.123.313.221.503.3.59.038.11.117.177.179.25l1.33-.49-.073-.178c-.196 0-.386-.11-.527-.326-.105-.152-.203-.373-.344-.63l-.435-1.031c-.197-.448-.399-.723-.632-.89a2.104 2.104 0 0 0-.877-.238c.27-.314.466-.626.54-.994.08-.374.043-.79-.135-1.257-.338-.877-.957-1.355-1.828-1.416-.46-.037-.987.06-1.594.275l-3.705 1.319 2.993 7.75 1.086-.398m9.638-4.107l-4.704-6.863 5.164-3.293.57.828-4.232 2.704 1.448 2.097 3.906-2.514.534.803-3.907 2.515 1.595 2.312 4.305-2.754.57.81-5.256 3.355m4.127-12.139l1.35-1.484c.625-.663 1.287-.963 2.011-.877.724.061 1.46.441 2.245 1.128.215.166.405.38.6.62.344.447.547.84.676 1.232.11.491.085.939-.086 1.368-.105.214-.289.466-.565.767l-1.355 1.472-4.876-4.238m7.127 3.231c.957-1.054 1.165-2.189.607-3.47a5.86 5.86 0 0 0-1.509-1.957c-.864-.767-1.766-1.159-2.717-1.232-1.054-.08-1.95.3-2.729 1.152l-2.3 2.465 6.342 5.532 2.3-2.477m4.919-6.406l-7.298-4.286.595-.944 7.31 4.262-.6.98m2.855-4.988l-7.882-3.153 2.325-5.544.957.368-1.896 4.569 2.374.933 1.772-4.208.908.375-1.754 4.2 2.656 1.08 1.944-4.624.956.361-2.367 5.643m3.623-9.681l-8.292-1.834.276-1.282 7.66-2.588-6.727-1.484.245-1.005 8.292 1.784-.264 1.244-7.672 2.644 6.728 1.454-.24 1.067m-.661-10.528l.105-1.042c.478.013.883-.062 1.19-.226.6-.326.95-.945 1.042-1.86.037-.428.018-.803-.08-1.158-.178-.686-.564-1.067-1.183-1.129-.46-.049-.792.062-1.03.314-.215.288-.442.704-.614 1.294l-.38 1.085c-.246.71-.473 1.201-.718 1.477-.392.516-.944.694-1.65.645-.754-.08-1.367-.38-1.803-.957-.448-.527-.631-1.281-.521-2.214.073-.852.356-1.57.859-2.146.466-.527 1.19-.78 2.115-.681l-.085 1.042c-.454 0-.816.08-1.08.264-.478.264-.742.822-.822 1.637-.067.675.025 1.129.282 1.473.258.288.583.471.963.502.405.037.724-.092.945-.404.16-.215.35-.682.607-1.436l.374-1.14c.184-.528.405-.932.662-1.22.46-.479 1.061-.681 1.816-.626.92.098 1.576.479 1.913 1.178.331.705.46 1.484.38 2.367-.104.999-.429 1.784-1.03 2.312-.6.539-1.35.723-2.257.65m-171.889-.504l.19 1.03c-.46.091-.828.276-1.098.515-.484.453-.65 1.134-.484 2.06.073.392.214.779.392 1.086.368.625.846.876 1.454.778.447-.08.742-.25.883-.57.135-.313.233-.791.263-1.404l.056-1.16c.036-.717.116-1.28.276-1.594.251-.564.723-.914 1.429-1.03.754-.135 1.416.037 1.987.466.576.399.957 1.092 1.098 2.011.177.841.098 1.595-.233 2.275-.32.663-.933 1.067-1.871 1.24l-.184-1.043c.435-.16.76-.313.975-.527.368-.412.479-1.006.337-1.821-.11-.663-.337-1.093-.68-1.307-.338-.252-.675-.35-1.043-.288-.41.062-.68.288-.81.656-.08.245-.14.754-.196 1.533l-.055 1.202c-.03.564-.116 1.03-.307 1.35-.3.588-.81.95-1.551 1.066-.939.16-1.662-.055-2.177-.656-.528-.589-.853-1.294-1.018-2.171-.184-1.043-.05-1.852.368-2.502.423-.668 1.091-1.054 1.999-1.183m-.524 10.857l8.108-2.44 1.889 5.708-.988.313-1.545-4.691-2.466.742 1.43 4.335-.945.301-1.417-4.347-2.747.82 1.57 4.796-.97.277-1.919-5.814m3.597 9.903l7.457-3.955.798 1.392-5.128 5.42 7.489-1.28.773 1.38-7.44 3.93-.527-.914 4.39-2.311c.16-.093.406-.228.761-.417.35-.16.743-.375 1.135-.577l-7.458 1.27-.545-.97 5.09-5.402-.245.123-.81.44a6.133 6.133 0 0 1-.822.442l-4.379 2.349-.54-.931m13.894 10.992c-.374-.085-.742-.3-1.104-.675l-1.576-1.625 2.122-1.944 1.588 1.62c.307.3.503.594.608.846.147.484 0 .926-.448 1.342-.405.374-.81.528-1.19.436m-5.992.754l2.6-2.385 1.847 1.87c.595.607 1.202.883 1.84.871a2.595 2.595 0 0 0 1.698-.742c.552-.491.816-1.067.816-1.686-.006-.602-.282-1.165-.791-1.693l-2.65-2.705-6.17 5.667.798.803m7.455 6.62l4.47-7.01 5.287 3.214-.551.835-4.343-2.6-1.343 2.121 3.993 2.422-.515.804-3.999-2.41-1.521 2.373 4.397 2.643-.527.828-5.348-3.22m13.228-1.35l2.687.853c.38.116.656.263.84.43.343.324.435.79.233 1.354-.166.49-.417.81-.81.945-.35.06-.79.06-1.306-.099l-2.533-.809.89-2.674m-2.319 6.887l1.116-3.342 2.503.815c.447.117.772.277.932.442.306.276.398.687.245 1.196l-.374 1.33-.166.638.019.288 1.318.43.08-.19c-.141-.111-.22-.313-.215-.564.031-.154.074-.399.16-.682l.319-1.067c.129-.466.178-.815.061-1.066a1.683 1.683 0 0 0-.54-.73c.418-.074.78-.203 1.086-.43.288-.251.534-.6.68-1.09.301-.89.136-1.632-.527-2.197-.33-.293-.803-.545-1.423-.778l-3.753-1.159-2.625 7.818 1.098.338" transform="scale(1.138)"/><path fill="#bc715f" d="M78.471 175.69c1.103-2.66 11.321-9.91 44.849-6.735 0 0 5.667 3.462 8.997 3.016 1.898-.245-1.118.117-3.595-1.941-2.526-2.058-3.063-6.279 2.708-6.168 5.743.147 27.247 1.361 27.652 3.293.376 1.954-11.37 2.77-15.739 2.658-4.39-.117-3.881 2.102.489 1.935 13.65-.489 28.551-5.299 44.29 5.833 1.878 1.354-4.745 1.57-9.869-.608 0 0-13.884.719-19.884-.264 0 0-4.613 3.753-10.623 3.384.782 1.946-2.219 9.212-21.112 3.746-3.119.957-14.489 2.862-13.246-.516-2.995 0-8.244.964-9.024-.74-.754-1.675 9.241-4.208 10.993-6.022 0 0-21.142.203-25.148-1.256 0 0-12.472 2.798-11.74.37"/><path fill="#008737" d="M85.248 205.291c.453-.613.634-1.716 1.598-1.688 2.094.558 3.516 4.389 6.093 1.905.914-.203 1.263 1.04 2.017 1.187.481 2.128 2.192-.432 3.469-.287 2.729-1.214 6.108-1.501 9.338-.9.098 2.086-1.535 4.389-3.587 5.576.042 2.101 1.947 3.448 1.912 5.561-.328.789-.056 2.03-1.25 2.289-1.514-.272-3.008-.432-4.264-1.277-.154-.154-.279-.454-.6-.356-.154.706.949 1.403 1.382 2.122-.76 1.297-2.023.112-3.084.125-.315.747-.015 1.689-.783 2.17-1.339-.042-1.611-1.5-2.435-2.226-.844.914.593 1.459.797 2.185-.518 2.748-.447 5.435-3.198 7.237l-1.842.914c-.503-1.382-.189-3.475-.523-4.92-1.089 1.772-1.94 3.323-3.539 4.822-1.87-.615-2.959-2.819-3.371-4.648-.781-2.128-.335-4.676 1.347-6.218-.572-1.116-2.533-.858-2.812-2.449-2.939-1.912-4.565 3.35-6.464.615-.615-2.555.119-5.731 1.969-7.636-.412-1.046-1.78-.774-2.59-1.374-1.849-1.57-4.516-3.232-4.382-6.066 5.06-1.912 11.111-.509 14.789 3.335"/><path fill="#ff0" d="M87.872 205.005c-.118 2.316 1.564.627 2.813 2.03-.978-.385-1.689 1.689-2.645.502l-.601.574c.349.794 1.026.899.321 1.772-1.047.398-1.256-.914-1.745-1.432-.084-.229.16-.662-.223-.816-.593.502-1.214.683-2.031.601-.223-.447-.655-1.033-.216-1.375.802-1.082 2.045.39 2.652-.37.098-.67-.488-1.486.273-1.948.523.091 1.193-.193 1.41.462m6.252 1.903c.064.447-.23 1.074.356 1.388.761-.412 1.57-.098 2.01.657-.007.404.119.934-.411 1.13l-1.187-.222c.084-.231-.294-.378-.439-.601-.523-.159-.831.265-1.222.523.294.446.971.691.81 1.263-.698.698-1.04-.6-1.808-.273-.523-.201.189-1.29-.635-1.618-.976 0-.328 1.605-1.577.978-.446-.503-.887-1.18-.404-1.745.523-.351 1.409-.259 1.855.193.762-.842.839-4.102 2.661-1.674m-7.804 3.359c.51.733-.112 1.73.538 2.547 1.019-1.905 2.003.412 3.217.23.37.454.125 1.082.196 1.599-1.501.398-3.308.872-4.635-.329l-.37.426c.789.734 1.536 1.564.908 2.792-1.124.245-2.862.273-3.428-.885-.292-.956.684-1.647-.348-2.415-.748.927-.712 2.171-2.269 1.326-.963-.53-1.248-1.625-.767-2.547 1.005-1.584 2.763.049 3.852-.726.154-1.361-.349-2.547.9-3.3 1.069-.189 1.564.613 2.212 1.284"/><path fill="#fff" d="M90.589 211.104c-.502 2.317-2.248-.118-3.063-.216 1.089-1.932 1.773.628 3.063.216m5.435 2.522c-1.214.341-1.026-1.172-1.627-1.766l.469-.426c.439.53.774 1.487 1.158 2.192"/><path fill="#ff0" d="M94.385 213.155c.349.802-.789 1.445.182 2.031.307-.258.683-.615.844-.761.831.246 1.793.391 2.373 1.214.621 1.704-1.104 1.661-2.08 2.136l-.97-.042c.23-.475-.419-.677-.58-1.004-.446-.112-.816.027-1.067.404.216 1.081 1.536 1.925.175 2.889-1.152-.076-2.938.37-2.834-1.222-.432-.899 1.172-2.289-.545-2.344-.566 1.215-1.186 2.386-2.658 1.236l.181-1.73c1.41.04 3.078.284 3.713-1.292.404-1.145-.706-2.199.286-3.107 1.438-.328 2.248.636 2.98 1.591"/><path d="M93.352 215.758c.364.859-.615.915-1.074 1.341-.621.049-1.054-.196-1.43-.615-.28-1.04.495-1.145 1.088-1.556.691-.287.978.516 1.417.831"/><path fill="#fff" d="M92.505 216.32c-.154.203-.37.14-.601.195l-.216-1.039c.461.041 1.061.188.817.844"/></g></svg>