<svg xmlns="http://www.w3.org/2000/svg" height="512" width="512" viewBox="0 0 512 512"><style>.prefix__st2{fill:#fff}.prefix__st3{fill:#cf142b}.prefix__st5,.prefix__st8,.prefix__st9{fill:#ff9e3d;stroke:#000;stroke-width:.2604}.prefix__st8,.prefix__st9{fill:#00a728}.prefix__st9{fill:#fcc300}.prefix__st10{fill:#ef072d}.prefix__st10,.prefix__st11{stroke:#000;stroke-width:.2604}.prefix__st12,.prefix__st13{fill:#b95a1e;stroke:#000;stroke-width:.2976}.prefix__st13{stroke:#fdc301;stroke-width:.7501}</style><path fill="#00247d" d="M0 0h512v512H0z"/><defs><path id="prefix__SVGID_3_" d="M0 0h512v256H0z"/></defs><clipPath id="prefix__SVGID_1_"><use xlink:href="#prefix__SVGID_3_" overflow="visible"/></clipPath><g clip-path="url(#prefix__SVGID_1_)"><path class="prefix__st2" d="M500.6 278.9L256 156.6 11.4 278.9l-22.8-45.8L198.8 128-11.4 22.9l22.8-45.8L256 99.4 500.6-22.9l22.8 45.8L313.2 128l210.2 105.1z"/><path class="prefix__st3" d="M7.6 271.3L256 147.1V128L0 256zM0 19.1L217.8 128H256L0 0zM473.8 0L256 108.9V128L512 0zM294.2 128H256l256 128 7.6-15.3z"/><path class="prefix__st2" d="M298.7 298.7h-85.4v-128H0V85.3h213.3V0h85.4v85.3h298.6v85.4H298.7z"/><path class="prefix__st3" d="M281.6 298.7h-51.2V153.6H0v-51.2h230.4V0h51.2v102.4h315.7v51.2H281.6z"/></g><g><path class="prefix__st2" d="M492.6 128v122.7c0 100.7-39.6 193-157 249-117.4-56.1-157-148.3-157-249V128h314z"/><path d="M482.1 140.5V255c0 94-36.9 180-146.4 232.3C226.2 434.9 189.3 348.9 189.3 255V140.5h292.8z" fill="#fdc300"/><path class="prefix__st5" d="M267.5 190.7c-2.1-1.6-4.4-2.6-7.6-2.6.7-7.8-4.9-11.1-9-12.5-4.1-1.4-5.5-3-6.2-6.2-.7-3.2-2.8-5.1-6.5-6.2-3.7-1.1-6.9-4.8-8.3-6.5-1.4-1.8-1.9-1.4-3 1.6s-5.3 8.7-1.4 8.8c-2.8 2.3-4.4 4.9-2.6 8.5-1.9 1.6-3.4 3.9-.7 4.8 2.7.9 3.4 1.6 3.5 2.3-2.4 0-3 4.8 2.6 5.8-1.2.2-1.8 4.1.5 4.1-3.2 0-5.8 4.8-9.9 4.8-4.1 0-6.2.9-6.4 2.6-.2 1.8-2.3 3.9-3.4 4.8 3 .4 4.9 0 6.5-1.2 1.6-1.2 4.2-1.6 6-.2 1.8 1.4 5.5 2.1 7.2 1.8-3.9 2.6-6.7 6.2-7.1 9.5-.4 3.4-2.6 7.2-5.3 8.3-2.6 1.1-6.2 3.9-7.4 7.2 3.4 8.3 8.1 10.4 12.9 12.5 8.5 3.9 13.8 6.7 17.3 10.6 3.5 3.9 4.9 1.1 10.2 7.8 5.3 6.7 10.2 19.4 15.5 21.5 5.3 2.1 12 .7 15.9-6 4.2-6.8 6.7-74.6-13.3-85.9z"/><path d="M276.5 162.4c-4.9 5.3-11.3 10.6-10.2 20.1 1.1 9.5 2.1 25.1-6.7 30.4-8.8 5.3-13.1 18.7-2.5 26.5 10.6 7.8 10.9 17.3 12.7 26.1 1.8 8.8 6.4 15.9 13.4 9.9 7.1 1.1 10.9-1.8 10.9-7.4s.4-8.8 5.6-10.6c5.3-1.8 6.7-3.5 9.2-8.3 2.5-4.8 3.9-6.9 2.5-9.7-1.4-2.8-1.9-8.7-.9-12.9 1.1-4.2-1.4-6.5-2.8-9.2-1.4-2.6-1.9-4.9-1.2-8.5.7-3.5-1.1-5.8-3.5-7.6-2.5-1.8-3.5-3.5-3-6.4.5-2.8-1.8-4.6-4.4-6.7-2.6-2.1-4.6-4.9-4.6-9.2 0-4.1-8.1-14-14.5-16.5h0z" fill="#ff927f" stroke="#000" stroke-width=".26"/><path d="M278.5 277.7c11.8-3 10.8-22.4 9-30.6-1.8-8.1-6.3-19.8-2.8-29 4.9-13.1-6-25.4-3.2-30.4 2.8-4.9 2.5-7.6 2.1-9.2-.3-1.6-3-2.8-3.2.5-.2 3.4-1.1 4.6-3.2 6.7s-1.6 6.7 0 11.8c1.6 5.1 4.9 12.9-.4 23.1-5.3 10.2-3.1 14.8-1.1 19.6 3.3 7.7 10.9 33.5 2.8 37.5h0z" fill="#ff9ee1" stroke="#000" stroke-width=".26"/><path class="prefix__st5" d="M225.5 167c1.3 0 3.9-.5 3.9 1.2M222.8 175.5c1.6-1.1 4.4.2 7.2-1.5M225.7 182.5c2.1 0 4.9-.1 7.6-2.2M228.3 188.4c1.9 0 5.6-1.2 6.4-3.8M228.8 192.4c3.8-.2 8.8 1.2 9.5-.1M229 205c2.6-2.5 8.9-4.2 10.3-6.7M235.7 165.6c4.4 1.4 2.6 4.1 4.8 5.8 3.9 3 .4 6.4 3.5 7.2 3.2.9 3.1 1.4 2.3 4.9-1 4.2 3 4.3 1.6 7.1M259.9 188c-1.8 0-7 .2-9.2 4.9M222.2 239c2 .4 3-.8 3.6-1.9.6-1.2.9-2.1 2.7-2.2 1.9-.1 4.7-.6 5.3-2 .6-1.4 2.8-.1 4.7-3.8 1.9-3.7 3.1-8.1 8-9.7"/><g><path class="prefix__st8" d="M362.3 316.2c2 2.9-.1 6 3.3 7.3 4 1.5.5 6.7 5.2 8.5 4.2 1.6 0 6.6 4.5 8.9 4 2-.7 6.7 4.7 9.4s-1 8.7 3 11.1c4 2.3-1.3 8.4 3.3 10.7 4.7 2.3-2 7 2.3 10.4 4.4 3.3-1 8.4 3.3 11.4 4.4 3-2.7 7 1.7 11.4 3.3 3.3-1.2 6.6 1.3 11.7 1.7 3.3-1.7 16.7-11.1 15.4-3.3 5.7-16.4 10.7-21.1 9-4.7 3.3-19.8 8-27.5.7-7.7 7.4-22.8 2.7-27.5-.7-4.7 1.7-17.7-3.3-21.1-9-9.4 1.3-12.7-12.1-11.1-15.4 2.5-5.1-2-8.4 1.3-11.7 4.3-4.3-2.7-8.4 1.7-11.4s-1-8 3.3-11.4c4.4-3.3-2.3-8 2.3-10.4 4.7-2.3-.7-8.4 3.3-10.7 4-2.3-2.3-8.4 3-11.1 5.4-2.7.7-7.4 4.7-9.4 4.5-2.2.4-7.2 4.5-8.9 4.7-1.8 1.2-7.1 5.2-8.5 3.4-1.3 1.2-4.5 3.4-7.4 10.6 3.8 41.4 6.7 54.1.1z"/><path class="prefix__st8" d="M317.8 317.1c-3.7 3.7.7 6.4-3 10.7-3.7 4.4-.3 6.7-3.3 10.7-3 4 1.3 6-2 10.4s.7 7-3 10.7c-3.7 3.7.7 7-3 11.1-3.7 4 .7 6.7-3 10.4s.7 7.7-3 11.4.7 8.4-3.3 12.7c-4 4.4.7 7.7-2.7 11.1-3.3 3.3-.3 6.7-2.7 9-2.3 2.3-2.7 5.6-1.7 7M324.8 318.4c-3.3 4.4 1.7 6.4-1.3 10-3 3.7 1.3 5-1 9.4s1.7 5.4-1.3 9.7 1.7 7.7-1.7 12.1c-3.3 4.4 1.7 6.7-1.3 11.1-3 4.4 1.3 6.7-1.3 10-2.7 3.3 2 6.7-1.3 10.7-3.3 4 1.3 7-1.3 10.7-2.7 3.7 1 7.7-1.3 10.7-2.3 3 1.7 7.4-1.7 11.4-3.3 4 .7 6.7-1.3 9.4s-3.6 6.6-1.7 7.7M335.5 322.4c-1.7 7 2.3 13.2 0 19.1-2.3 5.8 1.7 8.2.3 12.8-1.3 4.7 1.7 8.2-.3 13.2-2 5.1 2.7 8.9 0 15.6-2.7 6.6 1.7 8.3 0 14.8-2 7.6 3.3 11.6 0 17s3 6.7.3 12.7c-2.7 6 1.7 8.4-.3 14.4M353.2 317.1c3.7 3.7-.7 6.4 3 10.7 3.7 4.4.3 6.7 3.3 10.7 3 4-1.3 6 2 10.4s-.7 7 3 10.7c3.7 3.7-.7 7 3 11.1 3.7 4-.7 6.7 3 10.4s-.7 7.7 3 11.4-.7 8.4 3.3 12.7c4 4.4-.7 7.7 2.7 11.1 3.3 3.3.3 6.7 2.7 9 2.3 2.3 2.7 5.6 1.7 7M346.2 318.4c3.3 4.4-1.7 6.4 1.3 10 3 3.7-1.3 5 1 9.4s-1.7 5.4 1.3 9.7-1.7 7.7 1.7 12.1c3.3 4.4-1.7 6.7 1.3 11.1 3 4.4-1.3 6.7 1.3 10 2.7 3.3-2 6.7 1.3 10.7 3.3 4-1.3 7 1.3 10.7 2.7 3.7-1 7.7 1.3 10.7 2.3 3-1.7 7.4 1.7 11.4 3.3 4-.7 6.7 1.3 9.4s3.6 6.6 1.7 7.7"/><g><path class="prefix__st9" d="M312.8 333.7c0 1.5 0 3-1.4 4.9-3 4 1.3 6-2 10.4s.7 7-3 10.7c-3.7 3.7.7 7-3 11.1-3.7 4 .7 6.7-3 10.4s.7 7.7-3 11.4.7 8.4-3.3 12.7c-4 4.4.7 7.7-2.7 11.1-3.3 3.3-.3 6.7-2.7 9 4-3 4-7.7 7-10s-1-5.7.7-7.4c1.7-1.7.3-8.7 3.3-12.1 3-3.3.3-10 3-12.4 2.7-2.3.7-9.4 4-11.7 3.3-2.3 0-8 2.7-11.1 2.7-3 0-7.7 2.7-11.4s.1-7 2-10c.8-1.4.8-11.2-1.3-5.6zM322.4 337.9c-2.3 4.4 1.7 5.4-1.3 9.7s1.7 7.7-1.7 12.1c-3.3 4.4 1.7 6.7-1.3 11.1-3 4.4 1.3 6.7-1.3 10-2.7 3.3 2 6.7-1.3 10.7-3.3 4 1.3 7-1.3 10.7-2.7 3.7 1 7.7-1.3 10.7-2.3 3 1.7 7.4-1.7 11.4-3.3 4 .7 6.7-1.3 9.4 4-1.3 2.5-6.9 4-8 1.5-1.2-.5-8.9 1.8-10.9s-1.5-8.2.7-10.9c3.7-4.5.5-7.5 2.7-11.1 2.2-3.5-.8-8 .8-10.4 2.8-4-1.3-7.6.8-10.5 3-4.2-.6-7.6 1.5-10.4 3.2-4.2-.3-8.4 1-10.5 1.3-2.3 3.4-11.6-.8-13.1zM335.5 341.5c-2.3 5.8 1.7 8.2.3 12.8-1.3 4.7 1.7 8.2-.3 13.2-2 5.1 2.7 8.9 0 15.6-2.7 6.6 1.7 8.3 0 14.8-2 7.6 3.3 11.6 0 17s3.8 7.1.3 12.7c-1.7 2.7.2 9.5 2.8 1.3 2.7-8.2-2-9.2.3-12.6 2.3-3.3-.8-12.2.2-16.9 1-4.7-2.3-11.1-.2-16.1 2.2-5-3.3-10.4-1.2-14.7 2.2-4.4-1-9.7 1-13.2s-1.5-8.2-.7-10.2c1-2-.7-9.4-2.5-3.7z"/></g><path class="prefix__st10" d="M360.6 320.1c0-37.8-5.4-50.9-25.1-50.9-19.8 0-25.1 13.1-25.1 50.9h50.2z"/><path class="prefix__st11" d="M310.4 320.1c0-37.8 5.4-50.9 25.1-50.9-9 0-14.6 7-16.1 11.7-1.5 4.7-.7 4.4 1.3 2.5 2-1.8 1 2.2-.7 4.4s-3.3 8.4-1 6.4 4.2.3 1.7 3.9c-2.5 3.5-4.7 11.7-2.2 8.9 2.5-2.8 3 1.8 1.5 4.2-1.5 2.3-1.3 4.4 0 3.3 1.3-1 1.2 3.9-.2 5.7h-9.4v-.1zM356.8 317.9c0-29.6-3.7-38.5-11-41.5-4.2-1.7-4.3-1.3-2.3 1.3 2 2.7 1.7 6.5-.2 3.9-1.8-2.7-2.4-3.2-3.2-2-.8 1.2 2.1 6.7 4.3 11.7 1.7 4 .6 6-2 2s-2.6-.4-.3 3c2.9 4.4 2.8 17.6 2.8 23.1l11.9-1.5z"/><path class="prefix__st10" d="M335.5 325.6c7.9 0 16.5-1.4 22.3-3.6 6.9-2.7 7.2-5 4.9-8-1.7-2.1-5.4-.8-8.9.7s-13.2 2.5-18.3 2.5c-5 0-14.7-1-18.2-2.5s-7.2-2.8-8.9-.7c-2.4 3-2 5.3 4.9 8 5.7 2.2 14.3 3.6 22.2 3.6z"/></g><g><path class="prefix__st12" d="M411.8 275.5s5.2 8.9 8.9 15.4c3.8 6.5 6.8 8 9.6 6 2.7-1.9.4-7.2-1.8-9.7-2.2-2.5-14.3-14.3-14.3-14.3l-2.4 2.6z"/><path class="prefix__st12" d="M410.6 276.2s2 10.2 3.6 17.6c1.5 7.4 3.9 9.9 7.1 9.1 3.2-.9 2.7-6.7 1.4-9.8-1.3-3.1-8.9-18.5-8.9-18.5l-3.2 1.6z"/><path class="prefix__st12" d="M408.5 276.5v18c0 7.6 1.9 10.6 5.2 10.4 3.3-.1 3.9-5.9 3.3-9.3-.6-3.3-5.1-20-5.1-20l-3.4.9zM405.1 275.5s-5.2 8.9-8.9 15.4c-3.8 6.5-6.8 8-9.6 6-2.7-1.9-.4-7.2 1.8-9.7 2.2-2.5 14.3-14.3 14.3-14.3l2.4 2.6z"/><path class="prefix__st12" d="M406.3 276.2s-2 10.2-3.6 17.6c-1.5 7.4-3.9 9.9-7.1 9.1-3.2-.9-2.7-6.7-1.4-9.8 1.3-3.1 8.9-18.5 8.9-18.5l3.2 1.6z"/><path class="prefix__st12" d="M408.5 276.5v18c0 7.6-1.9 10.6-5.2 10.4-3.3-.1-3.9-5.9-3.3-9.3.6-3.3 5.1-20 5.1-20l3.4.9z"/><g><path class="prefix__st12" d="M414.2 196.3s8.4-8.9 23.1-17.8c14.7-8.9 25.3-15.8 27.3-14.3 0 1.8-12.6 10.7-23.1 17.8-10.5 7.1-23.1 17.8-23.1 17.8l-4.2-3.5zM415.1 203.4s8.3-5.2 24.2-12.5c15.7-6.4 37.8-5.3 37.8-3.6-2.1 1.8-21 1.8-33.6 7.1-12 5.1-24.2 12.5-24.2 12.5l-4.2-3.5zM415.2 215.7s7.3-3.5 24.2-8.9c16.8-5.3 39.1-1.8 39.1 0-2.1 1.8-20.2.7-32.8 3.6-13 2.8-26.3 8.9-26.3 8.9l-4.2-3.6zM416 228.2s8.4-7.1 26.4-8.9c18-1.8 32.7 8.9 32.7 10.7-2.1 1.8-18.9-7.8-31.5-6.5-13.3 1.4-23.4 8.3-23.4 8.3l-4.2-3.6zM411.8 189s13.5-8.9 13.5-16-6-14.3-7.7-17.8c3.4 0 11 10.7 11 17.8 0 7.8-12.7 19.6-12.7 19.6l-4.1-3.6z"/><path class="prefix__st12" d="M411.8 189s-1.7-5.3-1.7-16c0-12.5 7.5-20.4 10.1-23.2.7 2.8-6.8 12.5-6.8 23.2 0 7.8 2.5 19.6 2.5 19.6l-4.1-3.6zM402.7 196.3s-8.4-8.9-23.1-17.8c-14.7-8.9-25.3-15.8-27.3-14.3 0 1.8 12.6 10.7 23.1 17.8 10.5 7.1 23.1 17.8 23.1 17.8l4.2-3.5zM401.8 203.4s-8.3-5.2-24.2-12.5c-15.7-6.4-37.8-5.3-37.8-3.6 2.1 1.8 21 1.8 33.6 7.1 12 5.1 24.2 12.5 24.2 12.5l4.2-3.5zM401.7 215.7s-7.3-3.5-24.2-8.9c-16.8-5.3-39.1-1.8-39.1 0 2.1 1.8 20.2.7 32.8 3.6 13 2.8 26.3 8.9 26.3 8.9l4.2-3.6zM400.9 228.2s-8.4-7.1-26.4-8.9c-18-1.8-32.7 8.9-32.7 10.7 2.1 1.8 18.9-7.8 31.5-6.5 13.3 1.4 23.4 8.3 23.4 8.3l4.2-3.6zM405.1 189s-13.5-8.9-13.5-16 6-14.3 7.7-17.8c-3.4 0-11 10.7-11 17.8 0 7.8 12.7 19.6 12.7 19.6l4.1-3.6z"/><path class="prefix__st12" d="M405.1 189s1.7-5.3 1.7-16c0-12.5-7.5-20.4-10.1-23.2-.7 2.8 6.8 12.5 6.8 23.2 0 7.8-2.5 19.6-2.5 19.6l4.1-3.6z"/></g><g><path class="prefix__st13" d="M452.4 317.4c-5.3-12.3-6.8-33.9-6.8-37.4 0-10 3.1-58.9 3.4-78.5s-11.8-30.3-23.7-30.3c-10.1 0-16.9 7.1-16.9 17.8h5.1c0-7.1 5.1-12.5 11.8-12.5 10.1 0 17.9 8.4 18.6 25 .7 19.1-2 68.7-1.7 82 .4 13.3 5 25.1 10.2 33.9zM364.5 317.4c5.3-12.3 6.8-33.9 6.8-37.4 0-10-3.1-58.9-3.4-78.5s11.8-30.3 23.7-30.3c10.1 0 16.9 7.1 16.9 17.8h-5.1c0-7.1-5.1-12.5-11.8-12.5-10.1 0-17.9 8.4-18.6 25-.7 19.1 2 68.7 1.7 82-.4 13.3-5 25.1-10.2 33.9z"/></g><g><path class="prefix__st12" d="M408.5 276.3c9.5-.1 10.5-3.6 10.5-3.6s2.1-7.1 1-8.9c-1-1.8-11.5-1.8-11.5-1.8v14.3z"/><path class="prefix__st12" d="M408.5 269.2c10.1 0 11.8-3.6 11.8-3.6s3.4-7.1 1.7-8.9c-1.7-1.8-13.5-1.8-13.5-1.8v14.3z"/><path class="prefix__st12" d="M408.5 262.1c8.5 0 13.5-3.6 13.5-3.6s3.4-7.1 1.7-8.9c-1.7-1.8-15.2-1.8-15.2-1.8v14.3z"/><path class="prefix__st12" d="M408.5 253.2c15.2-.1 15.2-4.6 15.2-4.6s3.4-7.1 1.7-8.9c-1.7-1.8-16.9-.8-16.9-.8v14.3z"/><path class="prefix__st12" d="M408.5 246c15.2-.1 16.9-3.6 16.9-3.6s3.4-7.1 1.7-8.9c-1.7-1.8-18.6-1.8-18.6-1.8V246z"/><path class="prefix__st12" d="M408.5 237.1c15.2-.1 18.6-3.6 18.6-3.6s3.4-7.1 1.7-8.9c-1.7-1.8-20.3-1.8-20.3-1.8v14.3z"/><path class="prefix__st12" d="M408.5 228.2c15.2-.1 20.3-3.6 20.3-3.6s1.7-7.1 0-8.9c-1.7-1.8-20.3-1.8-20.3-1.8v14.3z"/><path class="prefix__st12" d="M408.5 219.3c15.2-.1 20.3-3.6 20.3-3.6s0-7.1-1.7-8.9c-1.7-1.8-18.6-1.8-18.6-1.8v14.3z"/><path class="prefix__st12" d="M408.5 210.4c15.2-.1 18.6-3.6 18.6-3.6s0-7.1-1.7-8.9c-1.7-1.8-16.9-1.8-16.9-1.8v14.3z"/><path class="prefix__st12" d="M408.5 188c11.8 0 17 10.3 16.9 10.1l-3.4 3.4c-1.8 1.8-13.5 1.8-13.4 1.8l-.1-15.3zM408.4 276.3c-9.5-.1-10.5-3.6-10.5-3.6s-2.1-7.1-1-8.9c1-1.8 11.5-1.8 11.5-1.8v14.3z"/><path class="prefix__st12" d="M408.4 269.2c-10.1 0-11.8-3.6-11.8-3.6s-3.4-7.1-1.7-8.9c1.7-1.8 13.5-1.8 13.5-1.8v14.3z"/><path class="prefix__st12" d="M408.4 262.1c-8.5 0-13.5-3.6-13.5-3.6s-3.4-7.1-1.7-8.9c1.7-1.8 15.2-1.8 15.2-1.8v14.3z"/><path class="prefix__st12" d="M408.4 253.2c-15.2-.1-15.2-4.6-15.2-4.6s-3.4-7.1-1.7-8.9c1.7-1.8 16.9-.8 16.9-.8v14.3z"/><path class="prefix__st12" d="M408.4 246c-15.2-.1-16.9-3.6-16.9-3.6s-3.4-7.1-1.7-8.9c1.7-1.8 18.6-1.8 18.6-1.8V246z"/><path class="prefix__st12" d="M408.4 237.1c-15.2-.1-18.6-3.6-18.6-3.6s-3.4-7.1-1.7-8.9c1.7-1.8 20.3-1.8 20.3-1.8v14.3z"/><path class="prefix__st12" d="M408.4 228.2c-15.2-.1-20.3-3.6-20.3-3.6s-1.7-7.1 0-8.9c1.7-1.8 20.3-1.8 20.3-1.8v14.3z"/><path class="prefix__st12" d="M408.4 219.3c-15.2-.1-20.3-3.6-20.3-3.6s0-7.1 1.7-8.9c1.7-1.8 18.6-1.8 18.6-1.8v14.3z"/><path class="prefix__st12" d="M408.4 210.4c-15.2-.1-18.6-3.6-18.6-3.6s0-7.1 1.7-8.9c1.7-1.8 16.9-1.8 16.9-1.8v14.3z"/><path class="prefix__st12" d="M408.4 188c-11.8 0-17 10.3-16.9 10.1l3.4 3.4c1.8 1.8 13.5 1.8 13.4 1.8l.1-15.3z"/></g></g></g></svg>
