<svg xmlns="http://www.w3.org/2000/svg" height="512" width="512" viewBox="0 0 512 512">
	<path fill="#ffe300" d="M0-.001h767.901v512.182h-767.901z" />
	<path fill="#118600" d="M0 208.217h767.901v102.849h-767.901zm0-207.969h767.901v102.849h-767.901z" />
	<path fill="#d80000" d="M0 .248h306.628v310.818h-306.628z" />
	<path fill="#fff" d="M134.47 128.474c0-.857 18.843-53.103 18.843-53.103l17.13 52.246s57.385 1.713 57.385.857l-45.395 34.26s21.412 59.955 20.556 58.242c-.857-1.713-49.677-35.973-49.677-35.973s-49.676 34.26-48.82 34.26l18.842-56.529-44.537-33.406 55.672-.857z" />
	<path fill="#118600" d="M0 409.333h767.901v102.849h-767.901z" />
</svg>
