<svg xmlns="http://www.w3.org/2000/svg" height="512" width="512" viewBox="0 0 512 512">
	<path fill="#e70013" d="M-128 0h767.901v511.934h-767.901z" />
	<path fill="#fff" d="M385.74 255.74c0 71.307-57.806 129.112-129.114 129.112s-129.111-57.806-129.111-129.114 57.805-129.112 129.111-129.112 129.114 57.806 129.114 129.114z"/>
	<path fill="#e70013" d="M256.632 341.367c-47.265 0-85.624-38.359-85.624-85.624 0-47.266 38.359-85.625 85.624-85.625 11.816 0 25.266 2.718 34.403 9.428-62.623 2.357-78.462 55.47-78.462 76.876s10.127 69.145 78.461 76.196c-7.776 5.012-22.585 8.749-34.402 8.749zM332.066 291.757l-38.886-14.18-25.717 32.415 1.476-41.352-38.783-14.448 39.794-11.373 1.744-41.352 23.117 34.335 39.866-11.115-25.501 32.591z" />
</svg>
