<svg xmlns="http://www.w3.org/2000/svg" height="512" width="512" viewBox="0 0 512 512"><style>.prefix__st3{fill:#fff}.prefix__st4{fill:#cf142b}</style><path fill-rule="evenodd" clip-rule="evenodd" fill="#009fca" d="M0 0h512v512H0z"/><defs><path id="prefix__SVGID_3_" d="M0 0h512v256H0z"/></defs><clipPath id="prefix__SVGID_1_"><use xlink:href="#prefix__SVGID_3_" overflow="visible"/></clipPath><g clip-path="url(#prefix__SVGID_1_)"><path id="prefix__rect8" fill="#00247d" d="M0-.5h512V256H0z"/><path class="prefix__st3" d="M500.6 278.9L256 156.6 11.4 278.9l-22.8-45.8L198.8 128-11.4 22.9l22.8-45.8L256 99.4 500.6-22.9l22.8 45.8L313.2 128l210.2 105.1z"/><path class="prefix__st4" d="M7.6 271.3L256 147.1V128L0 256zM0 19.1L217.8 128H256L0 0zM473.8 0L256 108.9V128L512 0zM294.2 128H256l256 128 7.6-15.3z"/><path class="prefix__st3" d="M298.7 298.7h-85.4v-128H0V85.3h213.3V0h85.4v85.3h298.6v85.4H298.7z"/><path class="prefix__st4" d="M281.6 298.7h-51.2V153.6H0v-51.2h230.4V0h51.2v102.4h315.7v51.2H281.6z"/></g><path d="M478.1 226.3l7.1 20.4-18.4-12.6-18.4 12.6 7.1-20.4-18.5-12.6h22.8l7-20.4 7 20.4h22.8l-18.5 12.6zm-57.3 162.8l7.1 20.4-18.4-12.6-18.5 12.6 7.1-20.4-18.5-12.6h22.8l7-20.4 7 20.4h22.8l-18.4 12.6zm57.3-36.9l7.1 20.4-18.5-12.6-18.4 12.6 7.1-20.4-18.5-12.6h22.8l7-20.4 7 20.4h22.8l-18.4 12.6zM231.9 470.3l7.1 20.4-18.4-12.7-18.4 12.6 7.1-20.4-18.5-12.6h22.8l7-20.4 7 20.4h22.8l-18.5 12.7zm43.1-88.5l-7.1-20.4 18.4 12.6 18.4-12.6-7.1 20.4 18.5 12.6h-22.8l-7 20.4-7-20.4h-22.8l18.5-12.6zm67.3-93l-7.1-20.4 18.4 12.6 18.4-12.6-7.1 20.4 18.5 12.6h-22.8l-7 20.4-7-20.4h-22.8l18.5-12.6zm56.5-19.3l-7.1-20.4 18.4 12.6 18.4-12.6-7.1 20.4 18.5 12.6h-22.8l-7 20.4-7-20.4h-22.8l18.5-12.6zm-56.5 161l-7.1-20.4 18.4 12.6 18.4-12.6-7.1 20.4 18.5 12.6h-22.8l-7 20.4-7-20.4h-22.8l18.5-12.6zM275 446.9l-7.1-20.4 18.4 12.6 18.4-12.6-7.1 20.4 18.5 12.6h-22.8l-7 20.4-7-20.4h-22.8l18.5-12.6z" fill-rule="evenodd" clip-rule="evenodd" fill="#fff40d"/></svg>
