<svg xmlns="http://www.w3.org/2000/svg" height="512" width="512" viewBox="0 0 512 512"><defs><clipPath id="a"><path fill-opacity=".67" d="M0 0h496.06v496.06h-496.06z"/></clipPath></defs><g fill-rule="evenodd" clip-path="url(#a)"><path fill="#de2110" d="M0 0h767.975v511.984h-767.975z"/><path fill="#08399c" d="M0 0h385.685v255.992h-385.685z"/><path fill="#fff" d="M282.098 178.554l-47.332-9.733 10.084 47.26-36.134-32.088-14.904 45.97-15.244-45.867-35.886 32.367 9.733-47.332-47.26 10.073 32.088-36.123-45.969-14.904 45.856-15.244-32.356-35.889 47.332 9.73-10.073-47.262 36.123 32.093 14.904-45.97 15.244 45.858 35.886-32.36-9.733 47.335 47.26-10.081-32.088 36.134 45.97 14.893-45.856 15.244z"/><path fill="#005387" d="M238.462 174.92l-14.934 7.931-14.57 8.608-16.917-.582-16.918.197-14.361-8.941-14.757-8.274-7.953-14.906-8.63-14.521.574-16.872-.188-16.883 8.965-14.319 8.297-14.716 14.934-7.934 14.57-8.608 16.917.58 16.929-.192 14.361 8.938 14.747 8.275 7.953 14.901 8.63 14.521-.574 16.872.188 16.883-8.965 14.322z"/><path d="M244.637 128.281c0 28.645-23.221 51.866-51.866 51.866s-51.866-23.221-51.866-51.866 23.222-51.866 51.866-51.866 51.866 23.222 51.866 51.866z" fill="#fff"/></g></svg>