<svg xmlns="http://www.w3.org/2000/svg" height="512" width="512" viewBox="0 0 512 512">
	<path fill="#ffe700" d="M-128 341.313h767.901v85.31h-767.901z" />
	<path d="M-128 255.967h767.901v85.31h-767.901z" />
	<path fill="#de3908" d="M-128 170.662h767.901v85.31h-767.901z" />
	<path fill="#ffe700" d="M-128 85.347h767.901v85.31h-767.901z" />
	<path d="M-128 0h767.901v85.31h-767.901z" />
	<path d="M335.653 255.967c0 44.018-35.683 79.701-79.701 79.701s-79.701-35.683-79.701-79.701 35.683-79.701 79.701-79.701 79.701 35.683 79.701 79.701z" stroke="#000" stroke-width="NaN" fill="#fffdff" />
	<path d="M241.889 194.867l-5.174-9.531c1.997-1.997 5.356-3.54 10.712-3.54 0 .363-.546 10.439-.546 10.439l-4.992 2.632z" stroke="#000" stroke-width="NaN" fill="#de3108" />
	<path d="M246.879 192.332l.727-10.529s10.712-.636 16.52 6.353c.091-.091-5.717 8.169-5.717 8.169l-11.53-3.994z" stroke="#000" stroke-width="NaN" fill="#ffe700" />
	<path d="M258.592 196.233l5.264-8.168c3.54 3.721 4.992 6.354 5.537 10.348.091.091-8.351 2.088-8.351 1.997s-2.359-4.086-2.45-4.177z" stroke="#000" stroke-width="NaN" fill="#de3108" />
	<path stroke-linejoin="round" d="M244.523 331.114s9.894-11.346 29.137-8.895c-2.905-4.72-12.254-4.175-12.254-4.175s-2.904-22.057-.636-23.147l11.891.091c1.27 0 3.45-3.449 1.726-5.627-1.726-2.179-6.808-10.529-4.72-12.164 2.088-1.633 13.434.908 13.434.908l-32.042-41.028s-3.267-15.43 3.267-22.873c7.898-6.536 7.081-13.616 6.808-13.525-1.09-7.17-11.982-12.345-19.333-5.717-4.357 5.263-1.453 9.257-1.453 9.257s-11.437 3.086-11.891 5.084c-.454 1.997 12.89-.363 12.89-.363l-1.271 9.168s-25.96 23.599-6.081 44.022c.182-.091.636-.908.636-.908s6.99 8.624 14.342 10.529c6.898 7.081 6.264 5.991 6.264 5.991s1.36 11.166.09 13.344c-1.724-.545-19.333-1.18-21.967-.182-2.359.727-11.437.272-9.167 15.067 1.723-3.994 3.267-7.534 3.267-7.534s-.272 5.356 1.907 7.262c-.363-5.629 2.088-9.44 2.088-9.44s.454 6.171 1.814 7.08c1.362.908 1.362-9.985 8.896-9.077 7.534.908 12.98.636 12.98.636s2.542 21.331 1.724 23.328c-5.447-1.271-18.426.545-19.244 3.812 7.624-.454 11.166.454 11.166.454s-6.173 5.446-4.267 8.622z" stroke="#000" stroke-linecap="round" stroke-width="0.865848" />
	<path stroke-linejoin="round" d="M247.58 214.724s-18.89 20.821-10.74 36.753c.433-2.222.245-3.617.516-3.526-.454-.272 2.343 1.916 2.13 1.49.06-1.152-.851-3.62-.851-3.62l2.556.64-1.492-2.77 3.622.426s-1.279-3.409-.852-3.409c.425 0 2.982.214 2.982.214-5.373-9.641-.305-17.647 2.129-26.197z" stroke="#9ca69c" stroke-linecap="round" stroke-width="0.865848" fill="#9ca69c" />
	<path d="M254.142 196.864s.999 7.17-2.904 9.257c-.636.454-3.086 1.272-2.723 2.724.454 1.997 1.543 1.634 3.086 1.27 4.085-.727 8.805-9.44 2.542-13.252z" stroke="#9ca69c" stroke-width="NaN" fill="#9ca69c" />
	<path d="M363.524 196.743a1.495 1.495 0 1 1-2.99 0 1.495 1.495 0 0 1 2.99 0z" fill="#fff" transform="translate(-128) scale(1.032)" />
	<path d="M241.072 209.026c-.999.817-6.264 6.264-1.09 8.261 5.356-1.453 3.903-2.451 5.084-3.632.031-2.45-2.663-3.086-3.994-4.63z" stroke="#000" stroke-width="NaN" fill="#de3108" />
	<path stroke-linejoin="round" d="M252.508 260.5c-.272 1.181-1.452 5.537.181 8.896 4.54-1.906 6.626-1.362 8.17-.363-3.721-2.996-5.173-4.266-8.351-8.533z" stroke="#9ca69c" stroke-linecap="round" stroke-width="0.865848" fill="#9ca69c" />
	<path stroke-linejoin="round" d="M260.318 281.104l.272 10.165s3.54.637 5.173 0c1.635-.635-.091-7.08-5.446-10.165z" 			stroke="#fff" stroke-linecap="round" stroke-width="0.865848" fill="#fff" />
	<path d="M286.002 282.373s-6.536-15.795-23.238-19.789-14.523-21.784-13.161-22.874c.727-1.543 1.27-3.903 6.082-1.633 4.811 2.268 26.959 13.433 30.135 13.977s.454 30.681.182 30.318z" stroke="#000" stroke-width="NaN" fill="#9ca69c" />
	<path stroke-linejoin="round" d="M270.118 262.495c-.272.182 22.329 13.344 15.521 24.69 6.446-4.266 4.357-11.709 4.357-11.709s5.264 13.706-7.534 20.423c1.362 1.181 2.27.908 2.27.908l-2.18 2.178s-.999 1.634 7.624-2.542c-2.36 1.907-2.541 3.268-2.541 3.268s.635 1.816 6.262-3.086c-4.539 4.902-5.537 7.443-5.537 7.352 12.254-1.09 38.94-40.937-8.442-52.738 2.542 2.634 2.178 2.27 2.178 2.27l-11.982 8.986z" stroke="#000" stroke-width="0.865848" fill="#de3108" />
	<path stroke-linejoin="round" d="M271.116 258.593c3.086 2.179 4.174 2.905 4.538 3.994-2.813-.635-5.355-.454-5.355-.454s-6.082-5.808-7.17-6.262c-.817 0-5.538-2.996-5.538-2.996-2.359-1.18-4.538-9.349 4.177-6.989 8.985 4.265 10.256 4.63 10.256 4.63l10.711 3.358 6.171 6.899s-10.982-5.447-12.343-5.538c2.995 2.451 4.719 5.81 4.719 5.81-3.48-1-6.505-1.907-10.166-2.452z" stroke="#000" stroke-linecap="round" stroke-width="0.865848" fill="#fff" />
	<path d="M228.368 209.845s10.529-2.542 11.8-2.178" stroke="#fff" stroke-linecap="round" stroke-width="0.865848" fill="none" />
	<path fill="#de3908" d="M-128 426.629h767.901v85.31h-767.901z" />
</svg>
