<svg xmlns="http://www.w3.org/2000/svg" height="512" width="512" viewBox="0 0 512 512">
	<path fill="#bd3d44" d="M0 0h972.809v39.385h-972.809zm0 78.77h972.809v39.385h-972.809zm0 78.77h972.809v39.385h-972.809zm0 78.77h972.809v39.385h-972.809zm0 78.77h972.809v39.385h-972.809zm0 78.77h972.809v39.385h-972.809zm0 78.77h972.809v39.385h-972.809z" />
	<path fill="#fff" d="M0 39.385h972.809v39.385h-972.809zm0 78.77h972.809v39.385h-972.809zm0 78.77h972.809v39.385h-972.809zm0 78.77h972.809v39.385h-972.809zm0 78.77h972.809v39.385h-972.809zm0 78.77h972.809v39.385h-972.809z" />
	<path fill="#192f5d" d="M0 0h389.124v275.695h-389.124z" />
	<path fill="#fff" d="M32.426 11.8l3.545 10.898h11.453l-9.267 6.735 3.541 10.894-9.271-6.735-9.267 6.735 3.541-10.894-9.271-6.735h11.461zm64.855 0l3.541 10.898h11.457l-9.267 6.735 3.537 10.894-9.267-6.731-9.267 6.735 3.537-10.894-9.267-6.735h11.457zm64.855 0l3.541 10.898h11.457l-9.267 6.735 3.541 10.894-9.271-6.735-9.267 6.735 3.541-10.894-9.271-6.735h11.461zm64.851 0l3.541 10.898h11.457l-9.267 6.735 3.541 10.894-9.271-6.735-9.267 6.735 3.541-10.894-9.271-6.735h11.461zm64.855 0l3.541 10.898h11.457l-9.271 6.735 3.545 10.894-9.271-6.731-9.267 6.735 3.537-10.894-9.267-6.735h11.457zm64.855 0l3.541 10.898h11.457l-9.271 6.735 3.545 10.894-9.271-6.735-9.267 6.735 3.537-10.894-9.267-6.735h11.457zM64.855 39.369l3.541 10.898h11.457l-9.267 6.735 3.537 10.894-9.267-6.735-9.267 6.735 3.537-10.894-9.267-6.735h11.457zm64.851 0l3.541 10.898h11.457l-9.267 6.735 3.541 10.894-9.271-6.735-9.267 6.735 3.541-10.894-9.271-6.735h11.461zm64.855 0l3.541 10.898h11.457l-9.267 6.735 3.541 10.894-9.271-6.735-9.267 6.735 3.541-10.894-9.271-6.735h11.461zm64.855 0l3.541 10.898h11.457l-9.267 6.735 3.537 10.894-9.267-6.735-9.267 6.735 3.541-10.894-9.271-6.735h11.461zm64.851 0l3.541 10.898h11.457l-9.271 6.735 3.545 10.894-9.271-6.735-9.267 6.735 3.537-10.894-9.267-6.735h11.457zM32.426 66.939l3.545 10.898h11.453l-9.267 6.735 3.541 10.894-9.271-6.735-9.267 6.735 3.541-10.894-9.271-6.735h11.461zm64.855 0l3.541 10.898h11.457l-9.267 6.735 3.537 10.894-9.267-6.735-9.267 6.735 3.537-10.894-9.267-6.735h11.457zm64.855 0l3.541 10.898h11.457l-9.267 6.735 3.541 10.894-9.271-6.735-9.267 6.735 3.541-10.894-9.271-6.735h11.461zm64.851 0l3.541 10.898h11.457l-9.267 6.735 3.541 10.894-9.271-6.735-9.267 6.735 3.541-10.894-9.271-6.735h11.461zm64.855 0l3.541 10.898h11.457l-9.271 6.735 3.545 10.894-9.271-6.735-9.267 6.735 3.537-10.894-9.267-6.735h11.457zm64.855 0l3.541 10.898h11.457l-9.271 6.735 3.545 10.894-9.271-6.735-9.267 6.735 3.537-10.894-9.267-6.735h11.457zM64.855 94.508l3.541 10.898h11.457l-9.267 6.735 3.537 10.894-9.267-6.735-9.267 6.735 3.537-10.894-9.267-6.735h11.457zm64.851 0l3.541 10.898h11.457l-9.267 6.735 3.541 10.894-9.271-6.735-9.267 6.735 3.541-10.894-9.271-6.735h11.461zm64.855 0l3.541 10.898h11.457l-9.267 6.735 3.541 10.894-9.271-6.735-9.267 6.735 3.541-10.894-9.271-6.735h11.461zm64.855 0l3.541 10.898h11.457l-9.267 6.735 3.537 10.894-9.267-6.735-9.267 6.735 3.541-10.894-9.271-6.735h11.461zm64.851 0l3.541 10.898h11.457l-9.271 6.735 3.545 10.894-9.271-6.735-9.267 6.735 3.537-10.894-9.267-6.735h11.457zM32.426 122.078l3.545 10.898h11.453l-9.267 6.735 3.541 10.894-9.271-6.735-9.267 6.735 3.541-10.894-9.271-6.735h11.461zm64.855 0l3.541 10.898h11.457l-9.267 6.735 3.537 10.894-9.267-6.735-9.267 6.735 3.537-10.894-9.267-6.735h11.457zm64.855 0l3.541 10.898h11.457l-9.267 6.735 3.541 10.894-9.271-6.735-9.267 6.735 3.541-10.894-9.271-6.735h11.461zm64.851 0l3.541 10.898h11.457l-9.267 6.735 3.541 10.894-9.271-6.735-9.267 6.735 3.541-10.894-9.271-6.735h11.461zm64.855 0l3.541 10.898h11.457l-9.271 6.735 3.545 10.894-9.271-6.735-9.267 6.735 3.537-10.894-9.267-6.735h11.457zm64.855 0l3.541 10.898h11.457l-9.271 6.735 3.545 10.894-9.271-6.735-9.267 6.735 3.537-10.894-9.267-6.735h11.457zM64.855 149.647l3.541 10.898h11.457l-9.267 6.735 3.537 10.894-9.267-6.735-9.267 6.735 3.537-10.894-9.267-6.735h11.457zm64.851 0l3.541 10.898h11.457l-9.267 6.735 3.541 10.894-9.271-6.735-9.267 6.735 3.541-10.894-9.271-6.735h11.461zm64.855 0l3.541 10.898h11.457l-9.267 6.735 3.541 10.894-9.271-6.735-9.267 6.735 3.541-10.894-9.271-6.735h11.461zm64.855 0l3.541 10.898h11.457l-9.267 6.735 3.537 10.894-9.267-6.735-9.267 6.735 3.541-10.894-9.271-6.735h11.461zm64.851 0l3.541 10.898h11.457l-9.271 6.735 3.545 10.894-9.271-6.735-9.267 6.735 3.537-10.894-9.267-6.735h11.457zM32.426 177.217l3.545 10.898h11.453l-9.267 6.735 3.541 10.894-9.271-6.735-9.267 6.735 3.541-10.894-9.271-6.735h11.461zm64.855 0l3.541 10.898h11.457l-9.267 6.735 3.537 10.894-9.267-6.735-9.267 6.735 3.537-10.894-9.267-6.735h11.457zm64.855 0l3.541 10.898h11.457l-9.267 6.735 3.541 10.894-9.271-6.735-9.267 6.735 3.541-10.894-9.271-6.735h11.461zm64.851 0l3.541 10.898h11.457l-9.267 6.735 3.541 10.894-9.271-6.735-9.267 6.735 3.541-10.894-9.271-6.735h11.461zm64.855 0l3.541 10.898h11.457l-9.271 6.735 3.545 10.894-9.271-6.735-9.267 6.735 3.537-10.894-9.267-6.735h11.457zm64.855 0l3.541 10.898h11.457l-9.271 6.735 3.545 10.894-9.271-6.735-9.267 6.735 3.537-10.894-9.267-6.735h11.457zM64.855 204.786l3.541 10.898h11.457l-9.267 6.735 3.537 10.894-9.267-6.735-9.267 6.735 3.537-10.894-9.267-6.735h11.457zm64.851 0l3.541 10.898h11.457l-9.267 6.735 3.541 10.894-9.271-6.735-9.267 6.735 3.541-10.894-9.271-6.735h11.461zm64.855 0l3.541 10.898h11.457l-9.267 6.735 3.541 10.894-9.271-6.735-9.267 6.735 3.541-10.894-9.271-6.735h11.461zm64.855 0l3.541 10.898h11.457l-9.267 6.735 3.537 10.894-9.267-6.735-9.267 6.735 3.541-10.894-9.271-6.735h11.461zm64.851 0l3.541 10.898h11.457l-9.271 6.735 3.545 10.894-9.271-6.735-9.267 6.735 3.537-10.894-9.267-6.735h11.457zM32.426 232.356l3.545 10.898h11.453l-9.267 6.735 3.541 10.894-9.271-6.735-9.267 6.735 3.541-10.894-9.271-6.735h11.461zm64.855 0l3.541 10.898h11.457l-9.267 6.735 3.537 10.894-9.267-6.735-9.267 6.735 3.537-10.894-9.267-6.735h11.457zm64.855 0l3.541 10.898h11.457l-9.267 6.735 3.541 10.894-9.271-6.735-9.267 6.735 3.541-10.894-9.271-6.735h11.461zm64.851 0l3.541 10.898h11.457l-9.267 6.735 3.541 10.894-9.271-6.735-9.267 6.735 3.541-10.894-9.271-6.735h11.461zm64.855 0l3.541 10.898h11.457l-9.271 6.735 3.545 10.894-9.271-6.735-9.267 6.735 3.537-10.894-9.267-6.735h11.457zm64.855 0l3.541 10.898h11.457l-9.271 6.735 3.545 10.894-9.271-6.735-9.267 6.735 3.537-10.894-9.267-6.735h11.457z" />
</svg>
