<svg xmlns="http://www.w3.org/2000/svg" height="512" width="512" viewBox="0 0 512 512"><g fill-rule="evenodd"><path d="M0 0h972.809v39.385h-972.809zm0 78.77h972.809v39.385h-972.809zm0 78.77h972.809v39.385h-972.809zm0 78.77h972.809v39.385h-972.809zm0 78.77h972.809v39.385h-972.809zm0 78.77h972.809v39.385h-972.809zm0 78.77h972.809v39.385h-972.809z" fill="#bd3d44"/><path d="M0 39.385h972.809v39.385h-972.809zm0 78.77h972.809v39.385h-972.809zm0 78.77h972.809v39.385h-972.809zm0 78.77h972.809v39.385h-972.809zm0 78.77h972.809v39.385h-972.809zm0 78.77h972.809v39.385h-972.809z" fill="#fff"/><path fill="#192f5d" d="M0 0h389.124v275.695h-389.124z"/><g fill="#fff"><path d="M32.426 11.8l3.545 10.898h11.453l-9.267 6.735 3.541 10.894-9.271-6.735-9.267 6.735 3.541-10.894-9.271-6.735h11.461zm64.855 0l3.541 10.898h11.457l-9.267 6.735 3.537 10.894-9.267-6.731-9.267 6.735 3.537-10.894-9.267-6.735h11.457zm64.855 0l3.541 10.898h11.457l-9.267 6.735 3.541 10.894-9.271-6.735-9.267 6.735 3.541-10.894-9.271-6.735h11.461zm64.851 0l3.541 10.898h11.457l-9.267 6.735 3.541 10.894-9.271-6.735-9.267 6.735 3.541-10.894-9.271-6.735h11.461zm64.855 0l3.541 10.898h11.457l-9.271 6.735 3.545 10.894-9.271-6.731-9.267 6.735 3.537-10.894-9.267-6.735h11.457zm64.855 0l3.541 10.898h11.457l-9.271 6.735 3.545 10.894-9.271-6.735-9.267 6.735 3.537-10.894-9.267-6.735h11.457zm-291.843 27.569l3.541 10.898h11.457l-9.267 6.735 3.537 10.894-9.267-6.735-9.267 6.735 3.537-10.894-9.267-6.735h11.457zm64.851 0l3.541 10.898h11.457l-9.267 6.735 3.541 10.894-9.271-6.735-9.267 6.735 3.541-10.894-9.271-6.735h11.461zm64.855 0l3.541 10.898h11.457l-9.267 6.735 3.541 10.894-9.271-6.735-9.267 6.735 3.541-10.894-9.271-6.735h11.461zm64.855 0l3.541 10.898h11.457l-9.267 6.735 3.537 10.894-9.267-6.735-9.267 6.735 3.541-10.894-9.271-6.735h11.461zm64.851 0l3.541 10.898h11.457l-9.271 6.735 3.545 10.894-9.271-6.735-9.267 6.735 3.537-10.894-9.267-6.735h11.457zm-291.843 27.569l3.545 10.898h11.453l-9.267 6.735 3.541 10.894-9.271-6.735-9.267 6.735 3.541-10.894-9.271-6.735h11.461zm64.855 0l3.541 10.898h11.457l-9.267 6.735 3.537 10.894-9.267-6.735-9.267 6.735 3.537-10.894-9.267-6.735h11.457zm64.855 0l3.541 10.898h11.457l-9.267 6.735 3.541 10.894-9.271-6.735-9.267 6.735 3.541-10.894-9.271-6.735h11.461zm64.851 0l3.541 10.898h11.457l-9.267 6.735 3.541 10.894-9.271-6.735-9.267 6.735 3.541-10.894-9.271-6.735h11.461zm64.855 0l3.541 10.898h11.457l-9.271 6.735 3.545 10.894-9.271-6.735-9.267 6.735 3.537-10.894-9.267-6.735h11.457zm64.855 0l3.541 10.898h11.457l-9.271 6.735 3.545 10.894-9.271-6.735-9.267 6.735 3.537-10.894-9.267-6.735h11.457zm-291.843 27.569l3.541 10.898h11.457l-9.267 6.735 3.537 10.894-9.267-6.735-9.267 6.735 3.537-10.894-9.267-6.735h11.457zm64.851 0l3.541 10.898h11.457l-9.267 6.735 3.541 10.894-9.271-6.735-9.267 6.735 3.541-10.894-9.271-6.735h11.461zm64.855 0l3.541 10.898h11.457l-9.267 6.735 3.541 10.894-9.271-6.735-9.267 6.735 3.541-10.894-9.271-6.735h11.461zm64.855 0l3.541 10.898h11.457l-9.267 6.735 3.537 10.894-9.267-6.735-9.267 6.735 3.541-10.894-9.271-6.735h11.461zm64.851 0l3.541 10.898h11.457l-9.271 6.735 3.545 10.894-9.271-6.735-9.267 6.735 3.537-10.894-9.267-6.735h11.457zm-291.843 27.569l3.545 10.898h11.453l-9.267 6.735 3.541 10.894-9.271-6.735-9.267 6.735 3.541-10.894-9.271-6.735h11.461zm64.855 0l3.541 10.898h11.457l-9.267 6.735 3.537 10.894-9.267-6.735-9.267 6.735 3.537-10.894-9.267-6.735h11.457zm64.855 0l3.541 10.898h11.457l-9.267 6.735 3.541 10.894-9.271-6.735-9.267 6.735 3.541-10.894-9.271-6.735h11.461zm64.851 0l3.541 10.898h11.457l-9.267 6.735 3.541 10.894-9.271-6.735-9.267 6.735 3.541-10.894-9.271-6.735h11.461zm64.855 0l3.541 10.898h11.457l-9.271 6.735 3.545 10.894-9.271-6.735-9.267 6.735 3.537-10.894-9.267-6.735h11.457zm64.855 0l3.541 10.898h11.457l-9.271 6.735 3.545 10.894-9.271-6.735-9.267 6.735 3.537-10.894-9.267-6.735h11.457zm-291.843 27.57l3.541 10.898h11.457l-9.267 6.735 3.537 10.894-9.267-6.735-9.267 6.735 3.537-10.894-9.267-6.735h11.457zm64.851 0l3.541 10.898h11.457l-9.267 6.735 3.541 10.894-9.271-6.735-9.267 6.735 3.541-10.894-9.271-6.735h11.461zm64.855 0l3.541 10.898h11.457l-9.267 6.735 3.541 10.894-9.271-6.735-9.267 6.735 3.541-10.894-9.271-6.735h11.461zm64.855 0l3.541 10.898h11.457l-9.267 6.735 3.537 10.894-9.267-6.735-9.267 6.735 3.541-10.894-9.271-6.735h11.461zm64.851 0l3.541 10.898h11.457l-9.271 6.735 3.545 10.894-9.271-6.735-9.267 6.735 3.537-10.894-9.267-6.735h11.457zM32.426 177.217l3.545 10.898h11.453l-9.267 6.735 3.541 10.894-9.271-6.735-9.267 6.735 3.541-10.894-9.271-6.735h11.461zm64.855 0l3.541 10.898h11.457l-9.267 6.735 3.537 10.894-9.267-6.735-9.267 6.735 3.537-10.894-9.267-6.735h11.457zm64.855 0l3.541 10.898h11.457l-9.267 6.735 3.541 10.894-9.271-6.735-9.267 6.735 3.541-10.894-9.271-6.735h11.461zm64.851 0l3.541 10.898h11.457l-9.267 6.735 3.541 10.894-9.271-6.735-9.267 6.735 3.541-10.894-9.271-6.735h11.461zm64.855 0l3.541 10.898h11.457l-9.271 6.735 3.545 10.894-9.271-6.735-9.267 6.735 3.537-10.894-9.267-6.735h11.457zm64.855 0l3.541 10.898h11.457l-9.271 6.735 3.545 10.894-9.271-6.735-9.267 6.735 3.537-10.894-9.267-6.735h11.457zm-291.843 27.569l3.541 10.898h11.457l-9.267 6.735 3.537 10.894-9.267-6.735-9.267 6.735 3.537-10.894-9.267-6.735h11.457zm64.851 0l3.541 10.898h11.457l-9.267 6.735 3.541 10.894-9.271-6.735-9.267 6.735 3.541-10.894-9.271-6.735h11.461zm64.855 0l3.541 10.898h11.457l-9.267 6.735 3.541 10.894-9.271-6.735-9.267 6.735 3.541-10.894-9.271-6.735h11.461zm64.855 0l3.541 10.898h11.457l-9.267 6.735 3.537 10.894-9.267-6.735-9.267 6.735 3.541-10.894-9.271-6.735h11.461zm64.851 0l3.541 10.898h11.457l-9.271 6.735 3.545 10.894-9.271-6.735-9.267 6.735 3.537-10.894-9.267-6.735h11.457zM32.426 232.356l3.545 10.898h11.453l-9.267 6.735 3.541 10.894-9.271-6.735-9.267 6.735 3.541-10.894-9.271-6.735h11.461zm64.855 0l3.541 10.898h11.457l-9.267 6.735 3.537 10.894-9.267-6.735-9.267 6.735 3.537-10.894-9.267-6.735h11.457zm64.855 0l3.541 10.898h11.457l-9.267 6.735 3.541 10.894-9.271-6.735-9.267 6.735 3.541-10.894-9.271-6.735h11.461zm64.851 0l3.541 10.898h11.457l-9.267 6.735 3.541 10.894-9.271-6.735-9.267 6.735 3.541-10.894-9.271-6.735h11.461zm64.855 0l3.541 10.898h11.457l-9.271 6.735 3.545 10.894-9.271-6.735-9.267 6.735 3.537-10.894-9.267-6.735h11.457zm64.855 0l3.541 10.898h11.457l-9.271 6.735 3.545 10.894-9.271-6.735-9.267 6.735 3.537-10.894-9.267-6.735h11.457z"/></g></g></svg>