<svg xmlns="http://www.w3.org/2000/svg" height="512" width="512" viewBox="0 0 512 512"><g fill-rule="evenodd"><path fill="#fff" d="M255.992 0h255.992v511.984h-255.992z"/><path d="M282.43-735.13c0 .625 55.956 222.85 118.17 300.56 69.375 87.27 113.18 87.333 113.18 87.333l70.866-17.717s-41.496 2.093-123.8-104.21c-83.45-107.78-109.42-285.96-108.17-282.84l-70.241 16.875z" transform="matrix(-.215 0 0 .179 450.486 340.71)" stroke="#000" stroke-width="1pt" fill="#fff"/><path d="M285-727.64c-1.535-9.369 33.898 220.95 140.2 327.24 53.149 53.15 88.583 53.15 88.583 53.15l88.582-17.717s-51.712 3.751-134.02-102.55c-83.45-107.78-108.58-263.25-107.96-263.87l-75.38 3.75zM282.43-735.13c0 .625 55.956 222.85 118.17 300.56 69.375 87.27 113.18 87.333 113.18 87.333l70.866-17.717s-41.496 2.093-123.8-104.21c-83.45-107.78-109.42-285.96-108.17-282.84l-70.241 16.875z" transform="matrix(.215 0 0 .179 313.875 342.337)" stroke="#000" stroke-width="1pt" fill="#fff"/><path d="M285-727.64c-1.535-9.369 33.898 220.95 140.2 327.24 53.149 53.15 88.583 53.15 88.583 53.15l88.582-17.717s-51.712 3.751-134.02-102.55c-83.45-107.78-108.58-263.25-107.96-263.87l-75.38 3.75z" transform="matrix(-.215 0 0 .179 450.486 340.71)" stroke="#000" stroke-width="1pt" fill="#fff"/><path d="M344.54-596.29l9.152 22.141s1.455-9.767 8.526-11.534l7.071-1.768s26.864 49.328 32.168 58.167c5.302 8.838-3.536 16.793-1.769 16.793 1.769 0 26.517-11.49 26.517-11.49s-10.606.883-15.026-6.188l-34.819-59.934s6.187-2.652 11.49-5.303c5.304-2.652 10.607 7.955 10.607 7.955l-13.258-26.517s0 8.839-4.42 10.607c-4.419 1.767-7.955 3.535-7.955 3.535s-3.535-6.187-7.955-13.258c-4.419-7.071 4.42-14.142 4.42-14.142l-22.981 11.49s7.955 4.42 10.607 8.839l5.303 8.839s-3.223 1.768-8.214 3.482c-3.589 1.875-7.696.054-9.464-1.714z" transform="matrix(.215 .004 -.005 .179 312.189 347.844)" stroke="#000" stroke-width="1pt" fill="#fff133"/><g stroke="#000" stroke-width="14.25" fill="#b00"><path d="M339.256 341.724c-.561-.088-.799-.545-.476-.914s1.207-.652 1.768-.564l3.085.481c.561.088.799.545.476.914-.338.386-1.207.652-1.768.564l-3.085-.481zM337.629 342.96c-.55-.1-.771-.568-.441-.936s1.209-.637 1.76-.538l3.026.548c.55.1.771.568.441.936-.344.385-1.209.637-1.76.538l-3.026-.548zM335.903 344.35c-.561-.088-.799-.545-.476-.914s1.207-.652 1.768-.564l3.085.481c.561.088.799.545.476.914-.338.386-1.207.652-1.768.564l-3.085-.481zM357.484 326.218c-.569.035-.938-.356-.738-.782s.969-.889 1.538-.924l3.13-.195c.569-.035.938.356.738.782-.209.446-.969.889-1.538.924l-3.13.195zM356.182 327.654c-.563.012-.909-.399-.693-.823s.995-.859 1.558-.871l3.095-.066c.563-.012.909.399.693.823-.226.442-.995.859-1.558.871l-3.095.066zM354.896 329.343c-.57.026-.93-.371-.72-.794s.989-.872 1.559-.898l3.134-.142c.57-.026.93.371.72.794-.219.442-.989.872-1.559.898l-3.134.142zM353.469 329.947c-.562-.018-.877-.446-.629-.857s1.058-.804 1.621-.787l3.093.097c.562.018.877.446.629.857-.259.43-1.058.804-1.621.787l-3.093-.097zM362.077 320.293c-.561.085-.978-.271-.833-.713s.85-.969 1.412-1.054l3.087-.47c.561-.085.978.271.833.713-.151.462-.85.969-1.412 1.054l-3.087.47zM361.083 321.936c-.556.071-.962-.301-.811-.744s.858-.957 1.414-1.028l3.06-.39c.556-.071.962.301.811.744-.158.463-.858.957-1.414 1.028l-3.06.39zM360.06 323.746c-.561.085-.978-.271-.833-.713s.85-.969 1.412-1.054l3.087-.47c.561-.085.978.271.833.713-.151.462-.85.969-1.412 1.054l-3.087.47zM358.768 325.212c-.558.062-.955-.316-.794-.756s.881-.942 1.439-1.004l3.069-.341c.558-.062.955.316.794.756-.168.46-.881.942-1.439 1.004l-3.069.341zM345.981 336.676c-.567-.05-.848-.49-.562-.88s1.14-.731 1.707-.682l3.12.273c.567.05.848.49.562.88-.299.408-1.14.731-1.707.682l-3.12-.273zM344.481 338.015c-.558-.062-.823-.514-.531-.904s1.143-.718 1.701-.656l3.069.341c.558.062.823.514.531.904-.306.407-1.143.718-1.701.656l-3.069-.341zM342.892 339.52c-.567-.05-.848-.49-.562-.88s1.14-.731 1.707-.682l3.12.273c.567.05.848.49.562.88-.299.408-1.14.731-1.707.682l-3.12-.273zM340.984 340.335c-.55-.1-.771-.568-.441-.936s1.209-.637 1.76-.538l3.026.548c.55.1.771.568.441.936-.344.385-1.209.637-1.76.538l-3.026-.548zM352.062 331.567c-.57-.005-.9-.42-.658-.831s1.053-.817 1.624-.813l3.138.025c.57.005.9.42.658.831-.252.43-1.053.817-1.624.813l-3.138-.025zM350.712 333.02c-.562-.018-.877-.446-.629-.857s1.058-.804 1.621-.787l3.093.097c.562.018.877.446.629.857-.259.43-1.058.804-1.621.787l-3.093-.097zM349.069 333.833c-.567-.05-.848-.49-.562-.88s1.14-.731 1.707-.682l3.12.273c.567.05.848.49.562.88-.299.408-1.14.731-1.707.682l-3.12-.273zM347.57 335.172c-.558-.062-.823-.514-.531-.904s1.143-.718 1.701-.656l3.069.341c.558.062.823.514.531.904-.306.407-1.143.718-1.701.656l-3.069-.341zM371.994 300.508c-.53.175-1.022-.106-.983-.563s.608-1.09 1.139-1.265l2.917-.965c.53-.175 1.022.106.983.563-.041.478-.608 1.09-1.139 1.265l-2.917.965zM371.408 301.311c-.543.125-.997-.205-.909-.66s.72-1.034 1.263-1.159l2.986-.686c.543-.125.997.205.909.66-.093.475-.72 1.034-1.263 1.159l-2.986.686zM370.648 303.207c-.546.14-1.009-.174-.927-.626s.71-1.045 1.256-1.185l3.001-.768c.546-.14 1.009.174.927.626-.086.473-.71 1.045-1.256 1.185l-3.001.768zM369.885 304.938c-.543.125-.997-.205-.909-.66s.72-1.034 1.263-1.159l2.986-.686c.543-.125.997.205.909.66-.093.475-.72 1.034-1.263 1.159l-2.986.686zM373.75 294.845c-.529.161-1.013-.138-.969-.597s.618-1.078 1.147-1.239l2.91-.883c.529-.161 1.013.138.969.597-.047.479-.618 1.078-1.147 1.239l-2.91.883zM373.164 296.792c-.53.175-1.022-.106-.983-.563s.608-1.09 1.139-1.265l2.917-.965c.53-.175 1.022.106.983.563-.041.478-.608 1.09-1.139 1.265l-2.917.965zM372.578 298.562c-.529.161-1.013-.138-.969-.597s.618-1.078 1.147-1.239l2.91-.883c.529-.161 1.013.138.969.597-.047.479-.618 1.078-1.147 1.239l-2.91.883zM366.031 313.444c-.557.103-.989-.241-.864-.687s.807-.995 1.364-1.098l3.064-.565c.557-.103.989.241.864.687-.131.466-.807.995-1.364 1.098l-3.064.565zM365.113 315.112c-.553.088-.974-.271-.843-.718s.815-.983 1.368-1.071l3.04-.485c.553-.088.974.271.843.718-.137.467-.815.983-1.368 1.071l-3.04.485zM364.167 316.957c-.557.103-.989-.241-.864-.687s.807-.995 1.364-1.098l3.064-.565c.557-.103.989.241.864.687-.131.466-.807.995-1.364 1.098l-3.064.565zM363.099 318.483c-.556.071-.962-.301-.811-.744s.858-.957 1.414-1.028l3.06-.39c.556-.071.962.301.811.744-.158.463-.858.957-1.414 1.028l-3.06.39zM369.125 306.834c-.546.14-1.009-.174-.927-.626s.71-1.045 1.256-1.185l3.001-.768c.546-.14 1.009.174.927.626-.086.473-.71 1.045-1.256 1.185l-3.001.768zM368.837 308.084c-.553.088-.974-.271-.843-.718s.815-.983 1.368-1.071l3.04-.485c.553-.088.974.271.843.718-.137.467-.815.983-1.368 1.071l-3.04.485zM367.892 309.93c-.557.103-.989-.241-.864-.687s.807-.995 1.364-1.098l3.064-.565c.557-.103.989.241.864.687-.131.466-.807.995-1.364 1.098l-3.064.565zM366.975 311.598c-.553.088-.974-.271-.843-.718s.815-.983 1.368-1.071l3.04-.485c.553-.088.974.271.843.718-.137.467-.815.983-1.368 1.071l-3.04.485zM377.552 284.185c-.49.244-1.03.033-1.079-.424s.393-1.157.883-1.402l2.697-1.345c.49-.244 1.03-.033 1.079.424.051.477-.393 1.157-.883 1.402l-2.697 1.345zM376.811 285.946c-.527.184-1.024-.09-.995-.548s.585-1.098 1.111-1.282l2.896-1.009c.527-.184 1.024.09.995.548-.03.478-.585 1.098-1.111 1.282l-2.896 1.009zM376.259 287.727c-.525.169-1.016-.122-.981-.582s.596-1.088 1.121-1.256l2.89-.928c.525-.169 1.016.122.981.582-.037.48-.596 1.088-1.121 1.256l-2.89.928zM378.199 278.36c-.492.229-1.027 0-1.07-.459s.405-1.147.897-1.376l2.705-1.261c.492-.229 1.027 0 1.07.459.045.479-.405 1.147-.897 1.376l-2.705 1.261zM377.999 280.359c-.49.244-1.03.033-1.079-.424s.393-1.157.883-1.402l2.697-1.345c.49-.244 1.03-.033 1.079.424.051.477-.393 1.157-.883 1.402l-2.697 1.345zM377.752 282.185c-.492.229-1.027 0-1.07-.459s.405-1.147.897-1.376l2.705-1.261c.492-.229 1.027 0 1.07.459.045.479-.405 1.147-.897 1.376l-2.705 1.261zM375.721 289.68c-.527.184-1.024-.09-.995-.548s.585-1.098 1.111-1.282l2.896-1.009c.527-.184 1.024.09.995.548-.03.478-.585 1.098-1.111 1.282l-2.896 1.009zM374.95 291.035c-.529.161-1.013-.138-.969-.597s.618-1.078 1.147-1.239l2.91-.883c.529-.161 1.013.138.969.597-.047.479-.618 1.078-1.147 1.239l-2.91.883zM374.367 292.982c-.53.175-1.022-.106-.983-.563s.608-1.09 1.139-1.265l2.917-.965c.53-.175 1.022.106.983.563-.041.478-.608 1.09-1.139 1.265l-2.917.965z"/></g><g stroke="#000" stroke-width="14.25" fill="#b00"><path d="M423.076 336.686c.567-.057.84-.5.546-.887s-1.153-.716-1.72-.66l-3.116.312c-.567.057-.84.5-.546.887.307.404 1.153.716 1.72.66l3.116-.312zM424.603 338.013c.557-.069.814-.524.514-.911s-1.156-.703-1.713-.634l-3.062.38c-.557.069-.814.524-.514.911.313.404 1.156.703 1.713.634l3.062-.38zM426.216 339.49c.567-.057.84-.5.546-.887s-1.153-.716-1.72-.66l-3.116.312c-.567.057-.84.5-.546.887.307.404 1.153.716 1.72.66l3.116-.312zM406.104 320.21c.565.066.964-.304.798-.741s-.896-.939-1.461-1.006l-3.106-.364c-.565-.066-.964.304-.798.741.173.456.896.939 1.461 1.006l3.106.364zM407.289 321.715c.561.043.939-.349.756-.783s-.926-.912-1.486-.955l-3.083-.236c-.561-.043-.939.349-.756.783.191.454.926.912 1.486.955l3.083.236zM408.443 323.474c.566.057.956-.32.78-.754s-.918-.924-1.485-.981l-3.114-.312c-.566-.057-.956.32-.78.754.184.453.918.924 1.485.981l3.114.312zM409.814 324.153c.563.013.91-.398.695-.821s-.993-.861-1.556-.874l-3.095-.072c-.563-.013-.91.398-.695.821.225.443.993.861 1.556.874l3.095.072zM401.987 314.046c.553.116.997-.216.887-.665s-.773-1.014-1.327-1.13l-3.044-.639c-.553-.116-.997.216-.887.665.115.469.773 1.014 1.327 1.13l3.044.639zM402.849 315.737c.55.101.983-.247.867-.697s-.781-1.001-1.331-1.103l-3.023-.557c-.55-.101-.983.247-.867.697.121.47.781 1.001 1.331 1.103l3.023.557zM403.729 317.603c.553.116.997-.216.887-.665s-.773-1.014-1.327-1.13l-3.044-.639c-.553-.116-.997.216-.887.665.115.469.773 1.014 1.327 1.13l3.044.639zM404.904 319.143c.552.092.978-.264.851-.712s-.805-.989-1.357-1.081l-3.036-.507c-.552-.092-.978.264-.851.712.132.468.805.989 1.357 1.081l3.036.507zM416.762 331.275c.57-.018.885-.441.63-.846s-1.08-.793-1.65-.775l-3.136.097c-.57.018-.885.441-.63.846.267.424 1.08.793 1.65.775l3.136-.097zM418.155 332.697c.562-.031.862-.467.6-.872s-1.085-.779-1.646-.748l-3.089.171c-.562.031-.862.467-.6.872.273.423 1.085.779 1.646.748l3.089-.171zM419.622 334.281c.57-.018.885-.441.63-.846s-1.08-.793-1.65-.775l-3.136.097c-.57.018-.885.441-.63.846.267.424 1.08.793 1.65.775l3.136-.097zM421.462 335.209c.557-.069.814-.524.514-.911s-1.156-.703-1.713-.634l-3.062.38c-.557.069-.814.524-.514.911.313.404 1.156.703 1.713.634l3.062-.38zM411.098 325.845c.569.027.93-.37.721-.793s-.987-.874-1.556-.901l-3.132-.148c-.569-.027-.93.37-.721.793.218.442.987.874 1.556.901l3.132.148zM412.325 327.372c.563.013.91-.398.695-.821s-.993-.861-1.556-.874l-3.095-.072c-.563-.013-.91.398-.695.821.225.443.993.861 1.556.874l3.095.072zM413.903 328.268c.57-.018.885-.441.63-.846s-1.08-.793-1.65-.775l-3.136.097c-.57.018-.885.441-.63.846.267.424 1.08.793 1.65.775l3.136-.097zM415.295 329.69c.562-.031.862-.467.6-.872s-1.085-.779-1.646-.748l-3.089.171c-.562.031-.862.467-.6.872.273.423 1.085.779 1.646.748l3.089-.171zM393.639 293.758c.516.204 1.028-.049 1.025-.507s-.521-1.121-1.037-1.325l-2.836-1.124c-.516-.204-1.028.049-1.025.507.003.479.521 1.121 1.037 1.325l2.836 1.124zM394.162 294.586c.531.154 1.011-.149.958-.607s-.636-1.071-1.168-1.225l-2.923-.85c-.531-.154-1.011.149-.958.607.055.479.636 1.071 1.168 1.225l2.923.85zM394.775 296.525c.533.169 1.02-.118.974-.574s-.626-1.082-1.159-1.251l-2.933-.932c-.533-.169-1.02.118-.974.574.049.477.626 1.082 1.159 1.251l2.933.932zM395.396 298.288c.531.154 1.011-.149.958-.607s-.636-1.071-1.168-1.225l-2.923-.85c-.531-.154-1.011.149-.958.607.055.479.636 1.071 1.168 1.225l2.923.85zM392.336 288.016c.516.189 1.022-.082 1.013-.543s-.533-1.11-1.049-1.3l-2.836-1.041c-.516-.189-1.022.082-1.013.543.009.481.533 1.11 1.049 1.3l2.836 1.041zM392.762 289.985c.516.204 1.028-.049 1.025-.507s-.521-1.121-1.037-1.325l-2.836-1.124c-.516-.204-1.028.049-1.025.507.003.479.521 1.121 1.037 1.325l2.836 1.124zM393.213 291.789c.516.189 1.022-.082 1.013-.543s-.533-1.11-1.049-1.3l-2.836-1.041c-.516-.189-1.022.082-1.013.543.009.481.533 1.11 1.049 1.3l2.836 1.041zM398.576 306.989c.548.133 1.006-.185.916-.637s-.727-1.037-1.275-1.17l-3.013-.733c-.548-.133-1.006.185-.916.637.094.472.727 1.037 1.275 1.17l3.013.733zM399.359 308.711c.545.118.994-.217.899-.67s-.736-1.025-1.281-1.144l-2.997-.651c-.545-.118-.994.217-.899.67.1.474.736 1.025 1.281 1.144l2.997.651zM400.159 310.598c.548.133 1.006-.185.916-.637s-.727-1.037-1.275-1.17l-3.013-.733c-.548-.133-1.006.185-.916.637.094.472.727 1.037 1.275 1.17l3.013.733zM401.107 312.18c.55.101.983-.247.867-.697s-.781-1.001-1.331-1.103l-3.023-.557c-.55-.101-.983.247-.867.697.121.47.781 1.001 1.331 1.103l3.023.557zM396.009 300.228c.533.169 1.02-.118.974-.574s-.626-1.082-1.159-1.251l-2.933-.932c-.533-.169-1.02.118-.974.574.049.477.626 1.082 1.159 1.251l2.933.932zM396.195 301.495c.545.118.994-.217.899-.67s-.736-1.025-1.281-1.144l-2.997-.651c-.545-.118-.994.217-.899.67.1.474.736 1.025 1.281 1.144l2.997.651zM396.993 303.381c.548.133 1.006-.185.916-.637s-.727-1.037-1.275-1.17l-3.013-.733c-.548-.133-1.006.185-.916.637.094.472.727 1.037 1.275 1.17l3.013.733zM397.777 305.103c.545.118.994-.217.899-.67s-.736-1.025-1.281-1.144l-2.997-.651c-.545-.118-.994.217-.899.67.1.474.736 1.025 1.281 1.144l2.997.651zM389.374 277.163c.47.271 1.025.089 1.11-.364s-.301-1.176-.771-1.446l-2.586-1.489c-.47-.271-1.025-.089-1.11.364-.088.473.301 1.176.771 1.446l2.586 1.489zM389.971 278.966c.511.212 1.03-.034 1.037-.493s-.497-1.128-1.008-1.34l-2.812-1.165c-.511-.212-1.03.034-1.037.493-.007.479.497 1.128 1.008 1.34l2.812 1.165zM390.387 280.774c.511.197 1.024-.067 1.025-.527s-.509-1.118-1.02-1.315l-2.812-1.084c-.511-.197-1.024.067-1.025.527-.001.481.509 1.118 1.02 1.315l2.812 1.084zM389.183 271.32c.473.256 1.025.056 1.104-.4s-.314-1.167-.787-1.423l-2.6-1.407c-.473-.256-1.025-.056-1.104.4-.083.476.314 1.167.787 1.423l2.6 1.407zM389.228 273.321c.47.271 1.025.089 1.11-.364s-.301-1.176-.771-1.446l-2.586-1.489c-.47-.271-1.025-.089-1.11.364-.088.473.301 1.176.771 1.446l2.586 1.489zM389.33 275.161c.473.256 1.025.056 1.104-.4s-.314-1.167-.787-1.423l-2.6-1.407c-.473-.256-1.025-.056-1.104.4-.083.476.314 1.167.787 1.423l2.6 1.407zM390.767 282.753c.511.212 1.03-.034 1.037-.493s-.497-1.128-1.008-1.34l-2.812-1.165c-.511-.212-1.03.034-1.037.493-.007.479.497 1.128 1.008 1.34l2.812 1.165zM391.437 284.148c.516.189 1.022-.082 1.013-.543s-.533-1.11-1.049-1.3l-2.836-1.041c-.516-.189-1.022.082-1.013.543.009.481.533 1.11 1.049 1.3l2.836 1.041zM391.861 286.117c.516.204 1.028-.049 1.025-.507s-.521-1.121-1.037-1.325l-2.836-1.124c-.516-.204-1.028.049-1.025.507.003.479.521 1.121 1.037 1.325l2.836 1.124z"/></g><path d="M344.54-596.29l9.152 22.141s1.455-9.767 8.526-11.534l7.071-1.768s26.864 49.328 32.168 58.167c5.302 8.838-3.536 16.793-1.769 16.793 1.769 0 26.517-11.49 26.517-11.49s-10.606.883-15.026-6.188l-34.819-59.934s6.187-2.652 11.49-5.303c5.304-2.652 10.607 7.955 10.607 7.955l-13.258-26.517s0 8.839-4.42 10.607c-4.419 1.767-7.955 3.535-7.955 3.535s-3.535-6.187-7.955-13.258c-4.419-7.071 4.42-14.142 4.42-14.142l-22.981 11.49s7.955 4.42 10.607 8.839l5.303 8.839s-3.223 1.768-8.214 3.482c-3.589 1.875-7.696.054-9.464-1.714z" transform="matrix(-.215 .004 .005 .179 452.172 346.217)" stroke="#000" stroke-width="1pt" fill="#fff133"/><g transform="matrix(.13 0 0 .108 351.35 305.645)"><path fill="#c0c0c0" d="M324.546-255.37l-50.11 50.11 175.384 175.386 50.11-50.11z"/><ellipse fill="#fff133" transform="scale(-1 1) rotate(45 -177.879 -1104.595)" cx="354.33" rx="35.433" cy="-1428" ry="35.433" stroke="#000" stroke-width="1pt"/><path d="M-402.046-956.911l37.583 37.583-25.055 25.054-37.583-37.582c-12.528-12.528 12.527-37.583 25.055-25.055z" stroke="#000" stroke-width="1pt" fill="#c0c0c0"/><path d="M-346.606-926.531l-50.11 50.11c-13.798 0-25.351-11.553-25.055-25.055 10.878-25.879 25.028-38.434 50.11-50.11 12.477.729 24.217 10.892 25.055 25.055z" stroke="#000" stroke-width="1pt" fill="#fff133"/><path d="M-351.926-931.851l37.583 37.583-50.11 50.11-37.583-37.583c5.027-20.028 30.082-45.084 50.11-50.11z" stroke="#000" stroke-width="1pt" fill="#c0c0c0"/><path d="M-309.026-888.951l-50.11 50.11c-13.798 0-25.351-11.553-25.055-25.055 10.878-25.879 25.028-38.434 50.11-50.11 12.477.729 24.217 10.892 25.055 25.055z" stroke="#000" stroke-width="1pt" fill="#fff133"/><path d="M-314.356-894.281l342.796 342.804-50.111 50.11-342.795-342.804c5.027-20.028 30.082-45.084 50.11-50.11z" stroke="#000" stroke-width="1pt" fill="#c0c0c0"/><path d="M48.934-530.971l-50.11 50.11c-13.798 0-25.351-11.553-25.055-25.055 10.878-25.879 25.028-38.434 50.11-50.11 12.477.729 24.217 10.892 25.055 25.055z" stroke="#000" stroke-width="1pt" fill="#fff133"/><path d="M48.944-530.976l225.496 225.496-50.11 50.11-225.496-225.496c5.027-20.028 30.082-45.084 50.11-50.11zM186.744-418.231l-75.166 75.166c-13.797 0-25.35-11.553-25.055-25.055 0 0 0-25.055 25.055-50.11l50.11-25.055c11.64 1.567 21.415 12.527 25.055 25.055zM186.744-418.231l50.11 75.166-50.11 50.11-75.165-50.111c-2.83-2.442 0-25.054 25.055-50.11s48.98-24.456 50.11-25.055z" stroke="#000" stroke-width="1pt" fill="#c0c0c0"/><path d="M336.61-506.69c0-35.433 0-86.653 17.717-129.98 17.716 43.326 17.716 94.546 17.716 129.98h-35.433z" transform="rotate(-135 434.752 18.668) scale(1 -.818)" stroke="#000" stroke-width="1pt" fill="#c0c0c0"/><path d="M318.9-506.69h17.716v-43.326c0-43.327-35.433-64.99-35.433-64.99l17.717 108.32z" transform="rotate(-45 399.396 -194.158) scale(1 .818)" stroke="#000" stroke-width="1pt" fill="#c0c0c0"/><path d="M318.9-506.69h17.716v-43.326c0-43.327-35.433-64.99-35.433-64.99l17.717 108.32z" transform="rotate(-135 434.752 18.668) scale(1 -.818)" stroke="#000" stroke-width="1pt" fill="#c0c0c0"/><path d="M-314.356-894.281l37.583 37.583c25.055 25.055 112.743 137.798 112.743 137.798s117.296 92.25 142.356 117.31l37.583 37.583c-25.056-25.055-179.937-129.835-179.937-129.835s92.244 142.363 129.828 179.946l-37.583-37.583c-25.055-25.055-117.305-142.36-117.3-142.366-.005.005-100.223-75.168-125.276-100.22l-50.111-50.111c25.055 25.055 175.382 125.281 175.382 125.281s-100.22-150.338-125.272-175.391z" stroke="#000" stroke-width="1pt" fill="#fff133"/><path d="M299.493-230.317c50.11 75.165 100.221 125.276 112.744 137.8 23.776 23.819 50.11 25.055 50.11 25.055s0-25.056-25.055-50.11c-12.527-12.528-62.638-62.639-137.8-112.745zm-62.64-112.75c87.695 87.695 187.916 137.806 250.552 200.442 50.11 50.11 15.414 88.464 1.443 100.606-13.97 12.141-51.966 50.282-101.664-.386-62.638-62.638-112.746-162.857-200.442-250.552 0-25.055 25.056-50.11 50.11-50.11z" stroke="#000" stroke-width="1pt" fill="#c0c0c0"/><path transform="matrix(-1.249 -1.421 -1.359 1.317 1166.1 -102.64)" stroke="#000" stroke-width="1pt" fill="#c0c0c0" d="M218.28 257.88h22.934v73.043h-22.934z"/><g stroke="#000" fill="#c0c0c0"><path d="M-330.511-843.274l-40.653 39.753 40.653 39.751-20.326 19.878-40.653-39.753-81.305 79.505 40.653 39.753-20.328 19.876-40.651-39.751-40.653 39.751 121.958 119.258 81.305-79.505-40.653-39.753-20.326 19.878-20.326-19.878 81.305-79.505 20.326 19.878-20.326 19.876 40.651 39.751 40.653-39.751-20.326-19.878 20.326-19.876 81.305 79.505-20.326 19.876-20.326-19.876-40.653 39.753 40.651 39.751 20.326-19.876 20.328 19.876-81.305 79.505-20.328-19.876 20.328-19.878-40.653-39.751-81.305 79.505 121.958 119.258 40.653-39.753-40.653-39.751 20.326-19.876 40.653 39.751 81.305-79.505-40.653-39.753 20.328-19.876 40.651 39.753 40.653-39.753-284.576-278.276zM-208.564-406.002v39.752l-101.63 99.381v-79.505l20.326-19.877h40.652l40.652-39.752zM-106.925-504.564l-80.748 78.96-.961 39.48 81.71-79.901v-38.54zM-188.234-386.122l-40.652-39.752v-39.752l40.652 39.752v39.752zM-86.603-485.503l-40.652-39.752v-39.752l40.652 39.752v39.752zM-127.255-565.009v39.752l-20.327-19.877 20.327-19.876zM-228.886-465.628v39.752l-20.327-19.877 20.327-19.876zM-45.543-565.009l-41.057 39.752v39.752l41.057-40.965v-38.54zM-289.865-604.758l-40.652-39.752v-39.752l40.652 39.752v39.752zM-208.561-525.26l-40.652-39.752v-39.752l40.652 39.752v39.752zM-188.231-624.638l-60.979-59.629v-39.752l81.305 79.505-20.326 19.877zM-249.213-724.016v39.752l-20.327-19.877 20.327-19.876zM-289.865-604.758l40.652-39.752v-39.752l-40.652 39.752v39.752zM-391.493-624.638l60.979-59.629v-39.752l-81.305 79.505 20.326 19.877zM-330.51-604.764l-81.305 79.505h-40.652l-20.327 19.876v79.506l142.288-139.531v-39.356zM-249.213-366.242l-121.958-119.258h-40.652l121.958 119.258h40.652zM-310.192-346.373l-121.958-119.258 20.33-19.869 121.958 119.258-20.33 19.869zM-310.192-346.373v79.505l-121.958-119.258v-79.505l121.958 119.258zM-411.82-525.249l-121.958-119.258h-40.652l121.958 119.258h40.652zM-472.799-505.38l-121.958-119.258 20.33-19.869 121.958 119.258-20.33 19.869zM-472.799-505.38v79.505l-121.958-119.258v-79.505l121.958 119.258zM-452.48-644.507l-20.327-19.877v-39.752l40.652 39.752-20.326 19.877zM-350.852-743.885l-20.327-19.877v-39.752l40.652 39.752-20.326 19.877zM-249.216-485.5v-39.752l-20.327 19.876 20.327 19.877zM-208.561-525.26l40.652-39.752-20.327-19.877-20.326 19.877v39.752zM-330.522-684.267l20.326-19.877-20.326-19.876v39.752z"/></g><path transform="matrix(-1.251 -1.419 -1.361 1.315 1166.1 -102.64)" stroke="#000" stroke-width="1pt" fill="#fff133" d="M196.5 254.15h25.197v80.26h-25.197z"/><path d="M336.61 166.54c0 14.669 35.433 35.434 35.433-17.716h-35.433v17.716zM242.1 24.803c-147.06 0-113.13 164.24-100.37 124.02 9.359-29.503 35.433-70.866 64.935-80.225 40.225-12.761 26.696 9.359 41.364 9.359 14.67 0 1.14-22.12 41.364-9.359 29.503 9.359 55.577 50.722 64.936 80.225 12.76 40.224 53.149-124.02-112.23-124.02zM389.76 166.54c0 78.237-63.496 141.73-141.73 141.73-78.236 0-141.73-63.496-141.73-141.73v-17.716c.001-29.116 35.433 124.02 141.73 124.02s141.73-124.77 141.73-124.02v17.716z" transform="matrix(-1.899 0 0 1.887 1166.1 -102.64)" stroke="#000" stroke-width="1pt" fill="#c0c0c0"/><path d="M336.61 166.54c0 14.669 35.433 35.434 35.433-17.716h-35.433v17.716z" transform="matrix(1.899 0 0 1.887 224 -100.51)" stroke="#000" stroke-width="1pt" fill="#c0c0c0"/><path d="M389.76 148.82c0 78.236-63.496 141.73-141.73 141.73-78.236 0-141.73-63.496-141.73-141.73 0-78.236 63.496-141.73 141.73-141.73 78.237 0 141.73 63.496 141.73 141.73zm-53.15 0c0 14.669 22.812 3.042 9.359 43.04-9.359 27.826-27.075 45.543-56.578 54.902-40.225 12.76-26.694-9.359-41.364-9.359-14.668 0-1.14 22.119-41.364 9.359-29.502-9.359-47.218-27.076-56.577-56.578-12.76-40.224 9.359-26.695 9.359-41.364 0-14.67-22.119-1.139-9.359-41.364 9.359-29.502 27.075-47.219 56.577-56.578 40.225-12.761 26.696 9.359 41.364 9.359 14.67 0 1.14-22.12 41.364-9.359 29.503 9.359 47.219 27.075 56.578 56.578 12.76 40.224-9.359 26.694-9.359 41.364z" transform="matrix(-1.899 0 0 1.887 1166.1 -102.64)" stroke="#000" stroke-width="1pt" fill="#c0c0c0"/><path d="M126.55 157.68c-20.248 0-1.929 67.6-9.104 51.705s-11.144-33.368-11.144-51.705 3.969-35.809 11.144-51.705c7.175-15.894-11.144 51.705 9.104 51.705z" transform="matrix(-1.662 0 0 1.761 1107.2 -99.519)" stroke="#000" stroke-width="1pt" fill="#c0c0c0"/><path d="M372.05 139.96c0 15.892-2.13 31.632-9.751 44.811-7.965 13.775 9.751-44.811-7.965-44.811 17.716 0 1.687-58.587 7.965-44.811 6.279 13.776 9.751 28.919 9.751 44.811z" transform="matrix(-1.899 0 0 2.032 1166.1 -106.24)" stroke="#000" stroke-width="1pt" fill="#c0c0c0"/><path d="M296.29 263.08c-14.836 6.279-31.144 9.751-48.258 9.751s-33.422-3.472-48.257-9.751c-14.835-6.278 48.257 9.751 48.257-7.966 0 17.717 63.093 1.688 48.258 7.966zm-48.26-220.56c0-17.716-63.092-1.688-48.257-7.966s31.143-9.75 48.257-9.75 33.422 3.472 48.258 9.75c14.835 6.278-48.258-9.75-48.258 7.966z" transform="matrix(-1.899 0 0 1.887 1166.1 -102.64)" stroke="#000" stroke-width="1pt" fill="#c0c0c0"/><ellipse fill="#fff133" transform="matrix(-1.293 -1.382 -1.391 1.284 1257.6 -120.02)" cx="82.112" rx="18.433" cy="160.86" ry="20.109" stroke="#000" stroke-width="1pt"/><path d="M276.58 287.67c-9.223 1.889-18.773 2.881-28.552 2.881s-19.329-.992-28.553-2.881l-1.432 6.965c9.686 1.984 19.715 3.025 29.985 3.025s20.299-1.041 29.985-3.025l-1.433-6.965z" transform="matrix(-1.293 -1.382 1.391 -1.284 808.89 712.05)" stroke="#000" stroke-width="1pt" fill="#fff133"/><path d="M276.58 287.67c-9.223 1.889-18.773 2.881-28.552 2.881s-19.329-.992-28.553-2.881l-1.432 6.965c9.686 1.984 19.715 3.025 29.985 3.025s20.299-1.041 29.985-3.025l-1.433-6.965zM267.7 308.51c-9.223 1.889-20.189.927-29.969.927-9.778 0-19.285-2.612-28.509-4.501l8.821-10.303c9.686 1.984 19.715 3.025 29.985 3.025s20.299-1.041 29.985-3.025l-10.313 13.877z" transform="matrix(-1.293 -1.382 -1.391 1.284 1223.2 329.88)" stroke="#000" stroke-width="1pt" fill="#fff133"/><path d="M276.58 287.67c-9.223 1.889-18.773 2.881-28.552 2.881s-19.329-.992-28.553-2.881l-1.432 6.965c9.686 1.984 19.715 3.025 29.985 3.025s20.299-1.041 29.985-3.025l-1.433-6.965z" transform="matrix(-1.391 1.284 1.293 1.382 847.44 -345.21)" stroke="#000" stroke-width="1pt" fill="#fff133"/><ellipse fill="#fff133" transform="matrix(-1.293 -1.382 -1.391 1.284 789.14 314.38)" cx="82.112" rx="18.433" cy="160.86" ry="20.109" stroke="#000" stroke-width="1pt"/><path d="M267.59 281.47c-9.223 1.889-17.098 2.943-26.877 2.943s-23.112-.712-32.336-2.601l9.672 12.822c9.686 1.984 19.715 3.025 29.985 3.025s20.299-1.041 29.985-3.025l-10.429-13.164z" transform="matrix(-1.391 1.284 1.293 1.382 850.63 -315.18)" stroke="#000" stroke-width="1pt" fill="#fff133"/><path d="M173.94 271.77l-.838 14.842-3.239 4.493.976-15.087 3.101-4.248zm156.6-6.17l3.562 4.189 1.047 13.616-2.933-2.933-1.676-14.872z" transform="matrix(-1.899 0 0 1.887 1166.1 -102.64)" stroke="#000" stroke-width="1pt" fill="#fff133"/><ellipse fill="#fff133" transform="matrix(-1.293 -1.382 -1.391 1.284 1237.6 329.88)" cx="82.112" rx="18.433" cy="160.86" ry="20.109" stroke="#000" stroke-width="1pt"/></g><path d="M513.78-790.16l35.432-17.714 35.433 17.714s-73.366 35.433-73.366 159.45c-.001 88.58 125.26 106.3 125.26 212.6 0 45.649-34.183 88.582-69.616 88.582s-88.583-17.716-141.73-70.866c35.433 17.716 76.082 37.308 106.3 36.058 19.588-.405 55.025-17.716 55.025-53.149 0-70.866-122.77-106.92-122.77-213.22 0-124.02 50.025-159.45 50.026-159.45zM520.25-790.16l46.683-17.717 10 17.717s-70.649 35.433-70.649 159.45c-.001 88.58 125.89 106.3 125.89 212.6 0 45.649-26.714 87.362-65.241 88.582-73.403 2.363-90.458-23.966-141.73-70.866 43.149 32.308 105 46.752 129.02 34.183 29.354-15.364 35.024-36.058 35.024-53.774 0-70.866-120.89-104.42-120.89-210.72 0-124.02 51.9-159.45 51.9-159.45zM513.34-789.69c7.004-2.437 35.875-18.186 71.308 17.247 17.717 17.72 17.716 53.149 17.716 70.866l53.15-53.149s-29.066-86.87-107.62-53.592c-11.127 4.901-28.139 14.538-34.549 18.628zM523.8-795.94c8.839-2.869 36.676-6.325 64.596 18.501 17.717 17.72 18.966 42.933 18.966 60.65l40.65-37.933c3.44-3.21-24.832-81.252-99.241-54.034-4.498 1.807-14.779 6.302-24.971 12.816z" transform="matrix(-.215 0 0 .179 450.486 340.71)" stroke="#000" stroke-width="1pt" fill="#fff"/><path d="M344.54-596.29l9.152 22.141s1.455-9.767 8.526-11.534l7.071-1.768s26.864 49.328 32.168 58.167c5.302 8.838-3.536 16.793-1.769 16.793 1.769 0 26.517-11.49 26.517-11.49s-10.606.883-15.026-6.188l-34.819-59.934s6.187-2.652 11.49-5.303c5.304-2.652 10.607 7.955 10.607 7.955l-13.258-26.517s0 8.839-4.42 10.607c-4.419 1.767-7.955 3.535-7.955 3.535s-3.535-6.187-7.955-13.258c-4.419-7.071 4.42-14.142 4.42-14.142l-22.981 11.49s7.955 4.42 10.607 8.839l5.303 8.839s-3.223 1.768-8.214 3.482c-3.589 1.875-7.696.054-9.464-1.714z" transform="matrix(-.175 -.019 -.06 .155 365.625 343.191)" stroke="#000" stroke-width="1pt" fill="#fff133"/><path d="M344.54-596.29l9.152 22.141s1.455-9.767 8.526-11.534l7.071-1.768s26.864 49.328 32.168 58.167c5.302 8.838-3.536 16.793-1.769 16.793 1.769 0 26.517-11.49 26.517-11.49s-10.606.883-15.026-6.188l-34.819-59.934s6.187-2.652 11.49-5.303c5.304-2.652 10.607 7.955 10.607 7.955l-13.258-26.517s0 8.839-4.42 10.607c-4.419 1.767-7.955 3.535-7.955 3.535s-3.535-6.187-7.955-13.258c-4.419-7.071 4.42-14.142 4.42-14.142l-22.981 11.49s7.955 4.42 10.607 8.839l5.303 8.839s-3.223 1.768-8.214 3.482c-3.589 1.875-7.696.054-9.464-1.714z" transform="matrix(.16 .022 .003 -.119 258.866 126.07)" stroke="#000" stroke-width="1pt" fill="#fff133"/><g transform="matrix(.13 0 0 .108 351.35 305.645)"><g transform="rotate(45 478.12 -504.573)"><ellipse fill="#c0c0c0" transform="translate(124.01 283.46)" cx="354.33" rx="35.433" cy="-1428" ry="35.433" stroke="#000"/><path d="M460.63-1126.77v53.15h35.432l.001-53.15c0-17.717-35.433-17.717-35.433 0z" stroke="#000" fill="#fff133"/><path d="M442.91-1066.09h70.866c9.757-9.756 9.757-26.095 0-35.433-25.991-10.607-44.874-9.48-70.866 0-8.307 9.338-9.422 24.826 0 35.433z" stroke="#000" fill="#c0c0c0"/><path d="M442.91-1073.62v53.15h70.866v-53.15c-17.717-10.607-53.15-10.607-70.866 0z" stroke="#000" fill="#fff133"/><path d="M442.91-1012.94h70.866c9.757-9.756 9.757-26.095 0-35.433-25.991-10.607-44.874-9.48-70.866 0-8.307 9.338-9.422 24.826 0 35.433z" stroke="#000" fill="#c0c0c0"/><path fill="#fff133" d="M442.91-116.93h70.866v248.03h-70.866z"/><path d="M442.91-1020.476l.006 484.79h70.867l-.007-484.79c-17.717-10.607-53.15-10.607-70.866 0z" stroke="#000" fill="#fff133"/><path d="M442.92-506.698h70.866c9.757-9.756 9.757-26.095 0-35.433-25.991-10.607-44.874-9.48-70.866 0-8.307 9.338-9.422 24.826 0 35.433z" stroke="#000" fill="#c0c0c0"/><path d="M442.92-506.7v318.9h70.866v-318.9c-17.717-10.607-53.15-10.607-70.866 0zM425.19-329.53h106.3c9.757-9.756 9.757-26.095 0-35.433 0 0-17.716-17.716-53.149-17.716l-53.15 17.716c-7.122 9.338-6.284 24.001 0 35.433zM425.19-329.53l17.717 88.583h70.866l17.716-88.583c.274-3.727-17.716-17.716-53.149-17.716s-51.928 17.341-53.15 17.716z" stroke="#000" fill="#fff133"/><path d="M336.61-506.69c0-35.433 0-86.653 17.717-129.98 17.716 43.326 17.716 94.546 17.716 129.98h-35.433z" transform="matrix(1 0 0 .818 124.01 173.44)" stroke="#000" fill="#fff133"/><path d="M318.9-506.69h17.716v-43.326c0-43.327-35.433-64.99-35.433-64.99l17.717 108.32z" transform="matrix(-1 0 0 .818 832.67 173.44)" stroke="#000" fill="#fff133"/><path d="M318.9-506.69h17.716v-43.326c0-43.327-35.433-64.99-35.433-64.99l17.717 108.32z" transform="matrix(1 0 0 .818 124.01 173.44)" stroke="#000" fill="#fff133"/><path d="M478.34-116.93c17.716 88.582 17.716 159.45 17.716 177.16.031 33.655-17.716 53.15-17.716 53.15s-17.717-17.717-17.717-53.15c0-17.716 0-88.583 17.717-177.16zm-35.433-124.02c0 124.02-35.433 230.32-35.433 318.9 0 70.866 51.654 73.453 70.118 72.16 18.464-1.294 72.3-1.191 71.614-72.16 0-88.583-35.433-194.88-35.433-318.9-17.717-17.716-53.15-17.716-70.866 0z" stroke="#000" fill="#fff133"/><path d="M442.91-1020.476v53.15c0 35.433 17.716 177.16 17.716 177.16s-17.71 148.17-17.71 183.61v53.15c0-35.433 35.427-219.04 35.427-219.04s35.44 165.89 35.44 219.04v-53.15c0-35.433-17.717-183.61-17.724-183.61.007 0 17.717-124.02 17.717-159.45v-70.867c0 35.433-35.426 212.6-35.426 212.6s-35.44-177.17-35.44-212.6z" stroke="#000" fill="#c0c0c0"/></g><path transform="matrix(1.249 -1.421 1.359 1.317 -662.45 -102.64)" stroke="#000" stroke-width="1pt" fill="#fff133" d="M218.28 257.88h22.934v73.043h-22.934z"/><path d="M336.61 166.54c0 14.669 35.433 35.434 35.433-17.716h-35.433v17.716zM242.1 24.803c-147.06 0-113.13 164.24-100.37 124.02 9.359-29.503 35.433-70.866 64.935-80.225 40.225-12.761 26.696 9.359 41.364 9.359 14.67 0 1.14-22.12 41.364-9.359 29.503 9.359 55.577 50.722 64.936 80.225 12.76 40.224 53.149-124.02-112.23-124.02zM389.76 166.54c0 78.237-63.496 141.73-141.73 141.73-78.236 0-141.73-63.496-141.73-141.73v-17.716c.001-29.116 35.433 124.02 141.73 124.02s141.73-124.77 141.73-124.02v17.716z" transform="matrix(1.899 0 0 1.887 -662.45 -102.64)" stroke="#000" stroke-width="1pt" fill="#fff133"/><ellipse fill="#c0c0c0" transform="matrix(1.293 -1.382 1.391 1.284 -753.9 -120.02)" cx="82.112" rx="18.433" cy="160.86" ry="20.109" stroke="#000" stroke-width="1pt"/><path transform="matrix(1.251 -1.419 1.361 1.315 -662.45 -102.64)" stroke="#000" stroke-width="1pt" fill="#c0c0c0" d="M196.5 254.15h25.197v80.26h-25.197z"/><path d="M336.61 166.54c0 14.669 35.433 35.434 35.433-17.716h-35.433v17.716z" transform="matrix(-1.899 0 0 1.887 279.67 -100.51)" stroke="#000" stroke-width="1pt" fill="#fff133"/><path d="M389.76 148.82c0 78.236-63.496 141.73-141.73 141.73-78.236 0-141.73-63.496-141.73-141.73 0-78.236 63.496-141.73 141.73-141.73 78.237 0 141.73 63.496 141.73 141.73zm-53.15 0c0 14.669 22.812 3.042 9.359 43.04-9.359 27.826-27.075 45.543-56.578 54.902-40.225 12.76-26.694-9.359-41.364-9.359-14.668 0-1.14 22.119-41.364 9.359-29.502-9.359-47.218-27.076-56.577-56.578-12.76-40.224 9.359-26.695 9.359-41.364 0-14.67-22.119-1.139-9.359-41.364 9.359-29.502 27.075-47.219 56.577-56.578 40.225-12.761 26.696 9.359 41.364 9.359 14.67 0 1.14-22.12 41.364-9.359 29.503 9.359 47.219 27.075 56.578 56.578 12.76 40.224-9.359 26.694-9.359 41.364z" transform="matrix(1.899 0 0 1.887 -662.45 -102.64)" stroke="#000" stroke-width="1pt" fill="#fff133"/><path d="M126.55 157.68c-20.248 0-1.929 67.6-9.104 51.705s-11.144-33.368-11.144-51.705 3.969-35.809 11.144-51.705c7.175-15.894-11.144 51.705 9.104 51.705z" transform="matrix(1.662 0 0 1.761 -603.57 -99.519)" stroke="#000" stroke-width="1pt" fill="#fff133"/><path d="M372.05 139.96c0 15.892-2.13 31.632-9.751 44.811-7.965 13.775 9.751-44.811-7.965-44.811 17.716 0 1.687-58.587 7.965-44.811 6.279 13.776 9.751 28.919 9.751 44.811z" transform="matrix(1.899 0 0 2.032 -662.45 -106.24)" stroke="#000" stroke-width="1pt" fill="#fff133"/><path d="M296.29 263.08c-14.836 6.279-31.144 9.751-48.258 9.751s-33.422-3.472-48.257-9.751c-14.835-6.278 48.257 9.751 48.257-7.966 0 17.717 63.093 1.688 48.258 7.966zm-48.26-220.56c0-17.716-63.092-1.688-48.257-7.966s31.143-9.75 48.257-9.75 33.422 3.472 48.258 9.75c14.835 6.278-48.258-9.75-48.258 7.966z" transform="matrix(1.899 0 0 1.887 -662.45 -102.64)" stroke="#000" stroke-width="1pt" fill="#fff133"/><path d="M276.58 287.67c-9.223 1.889-18.773 2.881-28.552 2.881s-19.329-.992-28.553-2.881l-1.432 6.965c9.686 1.984 19.715 3.025 29.985 3.025s20.299-1.041 29.985-3.025l-1.433-6.965z" transform="matrix(1.293 -1.382 -1.391 -1.284 -305.22 712.05)" stroke="#000" stroke-width="1pt" fill="#c0c0c0"/><path d="M276.58 287.67c-9.223 1.889-18.773 2.881-28.552 2.881s-19.329-.992-28.553-2.881l-1.432 6.965c9.686 1.984 19.715 3.025 29.985 3.025s20.299-1.041 29.985-3.025l-1.433-6.965zM267.7 308.51c-9.223 1.889-20.189.927-29.969.927-9.778 0-19.285-2.612-28.509-4.501l8.821-10.303c9.686 1.984 19.715 3.025 29.985 3.025s20.299-1.041 29.985-3.025l-10.313 13.877z" transform="matrix(1.293 -1.382 1.391 1.284 -719.56 329.88)" stroke="#000" stroke-width="1pt" fill="#c0c0c0"/><path d="M276.58 287.67c-9.223 1.889-18.773 2.881-28.552 2.881s-19.329-.992-28.553-2.881l-1.432 6.965c9.686 1.984 19.715 3.025 29.985 3.025s20.299-1.041 29.985-3.025l-1.433-6.965z" transform="matrix(1.391 1.284 -1.293 1.382 -343.78 -345.21)" stroke="#000" stroke-width="1pt" fill="#c0c0c0"/><ellipse fill="#c0c0c0" transform="matrix(1.293 -1.382 1.391 1.284 -285.47 314.38)" cx="82.112" rx="18.433" cy="160.86" ry="20.109" stroke="#000" stroke-width="1pt"/><path d="M267.59 281.47c-9.223 1.889-17.098 2.943-26.877 2.943s-23.112-.712-32.336-2.601l9.672 12.822c9.686 1.984 19.715 3.025 29.985 3.025s20.299-1.041 29.985-3.025l-10.429-13.164z" transform="matrix(1.391 1.284 -1.293 1.382 -346.96 -315.18)" stroke="#000" stroke-width="1pt" fill="#c0c0c0"/><path d="M173.94 271.77l-.838 14.842-3.239 4.493.976-15.087 3.101-4.248zm156.6-6.17l3.562 4.189 1.047 13.616-2.933-2.933-1.676-14.872z" transform="matrix(1.899 0 0 1.887 -662.45 -102.64)" stroke="#000" stroke-width="1pt" fill="#c0c0c0"/><ellipse fill="#c0c0c0" transform="matrix(1.293 -1.382 1.391 1.284 -733.89 329.88)" cx="82.112" rx="18.433" cy="160.86" ry="20.109" stroke="#000" stroke-width="1pt"/><g stroke="#000" fill="#fff133"><path d="M834.181-843.274l40.653 39.753-40.653 39.751 20.326 19.878 40.653-39.753 81.305 79.505-40.653 39.753 20.328 19.876 40.651-39.751 40.653 39.751-121.958 119.258-81.305-79.505 40.653-39.753 20.326 19.878 20.326-19.878-81.305-79.505-20.326 19.878 20.326 19.876-40.651 39.751-40.653-39.751 20.326-19.878-20.326-19.876-81.305 79.505 20.326 19.876 20.326-19.876 40.653 39.753-40.651 39.751-20.326-19.876-20.328 19.876 81.305 79.505 20.328-19.876-20.328-19.878 40.653-39.751 81.305 79.505-121.958 119.258-40.653-39.753 40.653-39.751-20.326-19.876-40.653 39.751-81.305-79.505 40.653-39.753-20.328-19.876-40.651 39.753-40.653-39.753 284.576-278.276zM712.234-406.002v39.752l101.63 99.381v-79.505l-20.326-19.877h-40.652l-40.652-39.752zM610.595-504.564l80.748 78.96.961 39.48-81.71-79.901v-38.54zM691.904-386.122l40.652-39.752v-39.752l-40.652 39.752v39.752zM590.273-485.503l40.652-39.752v-39.752l-40.652 39.752v39.752zM630.925-565.009v39.752l20.327-19.877-20.327-19.876zM732.556-465.628v39.752l20.327-19.877-20.327-19.876zM549.213-565.009l41.057 39.752v39.752l-41.057-40.965v-38.54zM793.535-604.758l40.652-39.752v-39.752l-40.652 39.752v39.752zM712.231-525.26l40.652-39.752v-39.752l-40.652 39.752v39.752zM691.901-624.638l60.979-59.629v-39.752l-81.305 79.505 20.326 19.877zM752.883-724.016v39.752l20.327-19.877-20.327-19.876zM793.535-604.758l-40.652-39.752v-39.752l40.652 39.752v39.752zM895.163-624.638l-60.979-59.629v-39.752l81.305 79.505-20.326 19.877zM834.18-604.764l81.305 79.505h40.652l20.327 19.876v79.506l-142.288-139.531v-39.356zM752.883-366.242l121.958-119.258h40.652l-121.958 119.258h-40.652zM813.862-346.373l121.958-119.258-20.33-19.869-121.958 119.258 20.33 19.869zM813.862-346.373v79.505l121.958-119.258v-79.505l-121.958 119.258zM915.49-525.249l121.958-119.258h40.652l-121.958 119.258h-40.652zM976.469-505.38l121.958-119.258-20.33-19.869-121.958 119.258 20.33 19.869zM976.469-505.38v79.505l121.958-119.258v-79.505l-121.958 119.258zM956.15-644.507l20.327-19.877v-39.752l-40.652 39.752 20.326 19.877zM854.522-743.885l20.327-19.877v-39.752l-40.652 39.752 20.326 19.877zM752.886-485.5v-39.752l20.327 19.876-20.327 19.877zM712.231-525.26l-40.652-39.752 20.327-19.877 20.326 19.877v39.752zM834.192-684.267l-20.326-19.877 20.326-19.876v39.752z"/></g></g><g stroke="#000" stroke-width="20.006" fill="#b00"><path d="M380.964 287.239c-.456-.286-1.019-.123-1.125.326s.244 1.185.7 1.471l2.51 1.575c.456.286 1.019.123 1.125-.326.111-.47-.244-1.185-.7-1.471l-2.51-1.575zM380.956 285.402c-.46-.272-1.021-.091-1.123.361s.257 1.177.717 1.449l2.53 1.495c.46.272 1.021.091 1.123-.361.106-.473-.257-1.177-.717-1.449l-2.53-1.495zM381.004 283.396c-.456-.286-1.019-.123-1.125.326s.244 1.185.7 1.471l2.51 1.575c.456.286 1.019.123 1.125-.326.111-.47-.244-1.185-.7-1.471l-2.51-1.575zM380.995 281.558c-.46-.272-1.021-.091-1.123.361s.257 1.177.717 1.449l2.53 1.495c.46.272 1.021.091 1.123-.361.106-.473-.257-1.177-.717-1.449l-2.53-1.495zM380.885 294.927c-.456-.286-1.019-.123-1.125.326s.244 1.185.7 1.471l2.51 1.575c.456.286 1.019.123 1.125-.326.111-.47-.244-1.185-.7-1.471l-2.51-1.575zM380.877 293.089c-.46-.272-1.021-.091-1.123.361s.257 1.177.717 1.449l2.53 1.495c.46.272 1.021.091 1.123-.361.106-.473-.257-1.177-.717-1.449l-2.53-1.495zM380.925 291.083c-.456-.286-1.019-.123-1.125.326s.244 1.185.7 1.471l2.51 1.575c.456.286 1.019.123 1.125-.326.111-.47-.244-1.185-.7-1.471l-2.51-1.575zM380.916 289.245c-.46-.272-1.021-.091-1.123.361s.257 1.177.717 1.449l2.53 1.495c.46.272 1.021.091 1.123-.361.106-.473-.257-1.177-.717-1.449l-2.53-1.495zM381.123 271.865c-.456-.286-1.019-.123-1.125.326s.244 1.185.7 1.471l2.51 1.575c.456.286 1.019.123 1.125-.326.111-.47-.244-1.185-.7-1.471l-2.51-1.575zM381.115 270.029c-.46-.272-1.021-.091-1.123.361s.257 1.177.717 1.449l2.53 1.495c.46.272 1.021.091 1.123-.361.106-.473-.257-1.177-.717-1.449l-2.53-1.495zM381.163 268.022c-.456-.286-1.019-.123-1.125.326s.244 1.185.7 1.471l2.51 1.575c.456.286 1.019.123 1.125-.326.111-.47-.244-1.185-.7-1.471l-2.51-1.575zM381.154 266.184c-.46-.272-1.021-.091-1.123.361s.257 1.177.717 1.449l2.53 1.495c.46.272 1.021.091 1.123-.361.106-.473-.257-1.177-.717-1.449l-2.53-1.495zM381.044 279.553c-.456-.286-1.019-.123-1.125.326s.244 1.185.7 1.471l2.51 1.575c.456.286 1.019.123 1.125-.326.111-.47-.244-1.185-.7-1.471l-2.51-1.575zM381.035 277.714c-.46-.272-1.021-.091-1.123.361s.257 1.177.717 1.449l2.53 1.495c.46.272 1.021.091 1.123-.361.106-.473-.257-1.177-.717-1.449l-2.53-1.495zM381.083 275.709c-.456-.286-1.019-.123-1.125.326s.244 1.185.7 1.471l2.51 1.575c.456.286 1.019.123 1.125-.326.111-.47-.244-1.185-.7-1.471l-2.51-1.575zM381.075 273.871c-.46-.272-1.021-.091-1.123.361s.257 1.177.717 1.449l2.53 1.495c.46.272 1.021.091 1.123-.361.106-.473-.257-1.177-.717-1.449l-2.53-1.495zM380.647 317.987c-.456-.286-1.019-.123-1.125.326s.244 1.185.7 1.471l2.51 1.575c.456.286 1.019.123 1.125-.326.111-.47-.244-1.185-.7-1.471l-2.51-1.575zM380.638 316.149c-.46-.272-1.021-.091-1.123.361s.257 1.177.717 1.449l2.53 1.495c.46.272 1.021.091 1.123-.361.106-.473-.257-1.177-.717-1.449l-2.53-1.495zM380.686 314.144c-.456-.286-1.019-.123-1.125.326s.244 1.185.7 1.471l2.51 1.575c.456.286 1.019.123 1.125-.326.111-.47-.244-1.185-.7-1.471l-2.51-1.575zM380.677 312.306c-.46-.272-1.021-.091-1.123.361s.257 1.177.717 1.449l2.53 1.495c.46.272 1.021.091 1.123-.361.106-.473-.257-1.177-.717-1.449l-2.53-1.495zM380.567 325.674c-.456-.286-1.019-.123-1.125.326s.244 1.185.7 1.471l2.51 1.575c.456.286 1.019.123 1.125-.326.111-.47-.244-1.185-.7-1.471l-2.51-1.575zM380.559 323.836c-.46-.272-1.021-.091-1.123.361s.257 1.177.717 1.449l2.53 1.495c.46.272 1.021.091 1.123-.361.106-.473-.257-1.177-.717-1.449l-2.53-1.495zM380.607 321.831c-.456-.286-1.019-.123-1.125.326s.244 1.185.7 1.471l2.51 1.575c.456.286 1.019.123 1.125-.326.111-.47-.244-1.185-.7-1.471l-2.51-1.575zM380.598 319.993c-.46-.272-1.021-.091-1.123.361s.257 1.177.717 1.449l2.53 1.495c.46.272 1.021.091 1.123-.361.106-.473-.257-1.177-.717-1.449l-2.53-1.495zM380.805 302.613c-.456-.286-1.019-.123-1.125.326s.244 1.185.7 1.471l2.51 1.575c.456.286 1.019.123 1.125-.326.111-.47-.244-1.185-.7-1.471l-2.51-1.575zM380.797 300.775c-.46-.272-1.021-.091-1.123.361s.257 1.177.717 1.449l2.53 1.495c.46.272 1.021.091 1.123-.361.106-.473-.257-1.177-.717-1.449l-2.53-1.495zM380.845 298.77c-.456-.286-1.019-.123-1.125.326s.244 1.185.7 1.471l2.51 1.575c.456.286 1.019.123 1.125-.326.111-.47-.244-1.185-.7-1.471l-2.51-1.575zM380.837 296.932c-.46-.272-1.021-.091-1.123.361s.257 1.177.717 1.449l2.53 1.495c.46.272 1.021.091 1.123-.361.106-.473-.257-1.177-.717-1.449l-2.53-1.495zM380.726 310.3c-.456-.286-1.019-.123-1.125.326s.244 1.185.7 1.471l2.51 1.575c.456.286 1.019.123 1.125-.326.111-.47-.244-1.185-.7-1.471l-2.51-1.575zM380.717 308.462c-.46-.272-1.021-.091-1.123.361s.257 1.177.717 1.449l2.53 1.495c.46.272 1.021.091 1.123-.361.106-.473-.257-1.177-.717-1.449l-2.53-1.495zM380.766 306.457c-.456-.286-1.019-.123-1.125.326s.244 1.185.7 1.471l2.51 1.575c.456.286 1.019.123 1.125-.326.111-.47-.244-1.185-.7-1.471l-2.51-1.575zM380.757 304.619c-.46-.272-1.021-.091-1.123.361s.257 1.177.717 1.449l2.53 1.495c.46.272 1.021.091 1.123-.361.106-.473-.257-1.177-.717-1.449l-2.53-1.495zM380.329 348.735c-.456-.286-1.019-.123-1.125.326s.244 1.185.7 1.471l2.51 1.575c.456.286 1.019.123 1.125-.326.111-.47-.244-1.185-.7-1.471l-2.51-1.575zM380.32 346.897c-.46-.272-1.021-.091-1.123.361s.257 1.177.717 1.449l2.53 1.495c.46.272 1.021.091 1.123-.361.106-.473-.257-1.177-.717-1.449l-2.53-1.495zM380.369 344.892c-.456-.286-1.019-.123-1.125.326s.244 1.185.7 1.471l2.51 1.575c.456.286 1.019.123 1.125-.326.111-.47-.244-1.185-.7-1.471l-2.51-1.575zM380.36 343.053c-.46-.272-1.021-.091-1.123.361s.257 1.177.717 1.449l2.53 1.495c.46.272 1.021.091 1.123-.361.106-.473-.257-1.177-.717-1.449l-2.53-1.495zM380.241 354.584c-.46-.272-1.021-.091-1.123.361s.257 1.177.717 1.449l2.53 1.495c.46.272 1.021.091 1.123-.361.106-.473-.257-1.177-.717-1.449l-2.53-1.495zM380.289 352.578c-.456-.286-1.019-.123-1.125.326s.244 1.185.7 1.471l2.51 1.575c.456.286 1.019.123 1.125-.326.111-.47-.244-1.185-.7-1.471l-2.51-1.575zM380.281 350.741c-.46-.272-1.021-.091-1.123.361s.257 1.177.717 1.449l2.53 1.495c.46.272 1.021.091 1.123-.361.106-.473-.257-1.177-.717-1.449l-2.53-1.495zM380.488 333.361c-.456-.286-1.019-.123-1.125.326s.244 1.185.7 1.471l2.51 1.575c.456.286 1.019.123 1.125-.326.111-.47-.244-1.185-.7-1.471l-2.51-1.575zM380.479 331.523c-.46-.272-1.021-.091-1.123.361s.257 1.177.717 1.449l2.53 1.495c.46.272 1.021.091 1.123-.361.106-.473-.257-1.177-.717-1.449l-2.53-1.495zM380.527 329.518c-.456-.286-1.019-.123-1.125.326s.244 1.185.7 1.471l2.51 1.575c.456.286 1.019.123 1.125-.326.111-.47-.244-1.185-.7-1.471l-2.51-1.575zM380.519 327.679c-.46-.272-1.021-.091-1.123.361s.257 1.177.717 1.449l2.53 1.495c.46.272 1.021.091 1.123-.361.106-.473-.257-1.177-.717-1.449l-2.53-1.495zM380.409 341.049c-.456-.286-1.019-.123-1.125.326s.244 1.185.7 1.471l2.51 1.575c.456.286 1.019.123 1.125-.326.111-.47-.244-1.185-.7-1.471l-2.51-1.575zM380.4 339.21c-.46-.272-1.021-.091-1.123.361s.257 1.177.717 1.449l2.53 1.495c.46.272 1.021.091 1.123-.361.106-.473-.257-1.177-.717-1.449l-2.53-1.495zM380.448 337.204c-.456-.286-1.019-.123-1.125.326s.244 1.185.7 1.471l2.51 1.575c.456.286 1.019.123 1.125-.326.111-.47-.244-1.185-.7-1.471l-2.51-1.575zM380.439 335.367c-.46-.272-1.021-.091-1.123.361s.257 1.177.717 1.449l2.53 1.495c.46.272 1.021.091 1.123-.361.106-.473-.257-1.177-.717-1.449l-2.53-1.495zM380.129 368.05c-.456-.286-1.019-.123-1.125.326s.244 1.185.7 1.471l2.51 1.575c.456.286 1.019.123 1.125-.326.111-.47-.244-1.185-.7-1.471l-2.51-1.575zM380.121 366.212c-.46-.272-1.021-.091-1.123.361s.257 1.177.717 1.449l2.53 1.495c.46.272 1.021.091 1.123-.361.106-.473-.257-1.177-.717-1.449l-2.53-1.495zM380.169 364.207c-.456-.286-1.019-.123-1.125.326s.244 1.185.7 1.471l2.51 1.575c.456.286 1.019.123 1.125-.326.111-.47-.244-1.185-.7-1.471l-2.51-1.575zM380.16 362.369c-.46-.272-1.021-.091-1.123.361s.257 1.177.717 1.449l2.53 1.495c.46.272 1.021.091 1.123-.361.106-.473-.257-1.177-.717-1.449l-2.53-1.495zM380.041 373.899c-.46-.272-1.021-.091-1.123.361s.257 1.177.717 1.449l2.53 1.495c.46.272 1.021.091 1.123-.361.106-.473-.257-1.177-.717-1.449l-2.53-1.495zM380.089 371.893c-.456-.286-1.019-.123-1.125.326s.244 1.185.7 1.471l2.51 1.575c.456.286 1.019.123 1.125-.326.111-.47-.244-1.185-.7-1.471l-2.51-1.575zM380.081 370.056c-.46-.272-1.021-.091-1.123.361s.257 1.177.717 1.449l2.53 1.495c.46.272 1.021.091 1.123-.361.106-.473-.257-1.177-.717-1.449l-2.53-1.495zM380.209 360.363c-.456-.286-1.019-.123-1.125.326s.244 1.185.7 1.471l2.51 1.575c.456.286 1.019.123 1.125-.326.111-.47-.244-1.185-.7-1.471l-2.51-1.575zM380.2 358.526c-.46-.272-1.021-.091-1.123.361s.257 1.177.717 1.449l2.53 1.495c.46.272 1.021.091 1.123-.361.106-.473-.257-1.177-.717-1.449l-2.53-1.495zM380.249 356.52c-.456-.286-1.019-.123-1.125.326s.244 1.185.7 1.471l2.51 1.575c.456.286 1.019.123 1.125-.326.111-.47-.244-1.185-.7-1.471l-2.51-1.575z"/></g><g stroke="#000" stroke-width="20.006" fill="#b00"><path d="M383.549 287.455c-.461-.282-1.022-.114-1.122.336s.26 1.182.721 1.464l2.533 1.551c.461.282 1.022.114 1.122-.336.105-.47-.26-1.182-.721-1.464l-2.533-1.551zM383.513 285.611c-.463-.267-1.022-.081-1.118.373s.273 1.174.736 1.441l2.549 1.469c.463.267 1.022.081 1.118-.373.1-.474-.273-1.174-.736-1.441l-2.549-1.469zM383.537 283.612c-.461-.282-1.022-.114-1.122.336s.26 1.182.721 1.464l2.533 1.551c.461.282 1.022.114 1.122-.336.105-.47-.26-1.182-.721-1.464l-2.533-1.551zM383.501 281.767c-.463-.267-1.022-.081-1.118.373s.273 1.174.736 1.441l2.549 1.469c.463.267 1.022.081 1.118-.373.1-.474-.273-1.174-.736-1.441l-2.549-1.469zM383.573 295.142c-.461-.282-1.022-.114-1.122.336s.26 1.182.721 1.464l2.533 1.551c.461.282 1.022.114 1.122-.336.105-.47-.26-1.182-.721-1.464l-2.533-1.551zM383.538 293.298c-.463-.267-1.022-.081-1.118.373s.273 1.174.736 1.441l2.549 1.469c.463.267 1.022.081 1.118-.373.1-.474-.273-1.174-.736-1.441l-2.549-1.469zM383.561 291.299c-.461-.282-1.022-.114-1.122.336s.26 1.182.721 1.464l2.533 1.551c.461.282 1.022.114 1.122-.336.105-.47-.26-1.182-.721-1.464l-2.533-1.551zM383.525 289.454c-.463-.267-1.022-.081-1.118.373s.273 1.174.736 1.441l2.549 1.469c.463.267 1.022.081 1.118-.373.1-.474-.273-1.174-.736-1.441l-2.549-1.469zM383.501 272.081c-.461-.282-1.022-.114-1.122.336s.26 1.182.721 1.464l2.533 1.551c.461.282 1.022.114 1.122-.336.105-.47-.26-1.182-.721-1.464l-2.533-1.551zM383.465 270.237c-.463-.267-1.022-.081-1.118.373s.273 1.174.736 1.441l2.549 1.469c.463.267 1.022.081 1.118-.373.1-.474-.273-1.174-.736-1.441l-2.549-1.469zM383.488 268.237c-.461-.282-1.022-.114-1.122.336s.26 1.182.721 1.464l2.533 1.551c.461.282 1.022.114 1.122-.336.105-.47-.26-1.182-.721-1.464l-2.533-1.551zM383.453 266.393c-.463-.267-1.022-.081-1.118.373s.273 1.174.736 1.441l2.549 1.469c.463.267 1.022.081 1.118-.373.1-.474-.273-1.174-.736-1.441l-2.549-1.469zM383.525 279.768c-.461-.282-1.022-.114-1.122.336s.26 1.182.721 1.464l2.533 1.551c.461.282 1.022.114 1.122-.336.105-.47-.26-1.182-.721-1.464l-2.533-1.551zM383.489 277.924c-.463-.267-1.022-.081-1.118.373s.273 1.174.736 1.441l2.549 1.469c.463.267 1.022.081 1.118-.373.1-.474-.273-1.174-.736-1.441l-2.549-1.469zM383.513 275.924c-.461-.282-1.022-.114-1.122.336s.26 1.182.721 1.464l2.533 1.551c.461.282 1.022.114 1.122-.336.105-.47-.26-1.182-.721-1.464l-2.533-1.551zM383.477 274.08c-.463-.267-1.022-.081-1.118.373s.273 1.174.736 1.441l2.549 1.469c.463.267 1.022.081 1.118-.373.1-.474-.273-1.174-.736-1.441l-2.549-1.469zM383.646 318.204c-.461-.282-1.022-.114-1.122.336s.26 1.182.721 1.464l2.533 1.551c.461.282 1.022.114 1.122-.336.105-.47-.26-1.182-.721-1.464l-2.533-1.551zM383.611 316.36c-.463-.267-1.022-.081-1.118.373s.273 1.174.736 1.441l2.549 1.469c.463.267 1.022.081 1.118-.373.1-.474-.273-1.174-.736-1.441l-2.549-1.469zM383.634 314.36c-.461-.282-1.022-.114-1.122.336s.26 1.182.721 1.464l2.533 1.551c.461.282 1.022.114 1.122-.336.105-.47-.26-1.182-.721-1.464l-2.533-1.551zM383.598 312.516c-.463-.267-1.022-.081-1.118.373s.273 1.174.736 1.441l2.549 1.469c.463.267 1.022.081 1.118-.373.1-.474-.273-1.174-.736-1.441l-2.549-1.469zM383.67 325.891c-.461-.282-1.022-.114-1.122.336s.26 1.182.721 1.464l2.533 1.551c.461.282 1.022.114 1.122-.336.105-.47-.26-1.182-.721-1.464l-2.533-1.551zM383.634 324.048c-.463-.267-1.022-.081-1.118.373s.273 1.174.736 1.441l2.549 1.469c.463.267 1.022.081 1.118-.373.1-.474-.273-1.174-.736-1.441l-2.549-1.469zM383.657 322.048c-.461-.282-1.022-.114-1.122.336s.26 1.182.721 1.464l2.533 1.551c.461.282 1.022.114 1.122-.336.105-.47-.26-1.182-.721-1.464l-2.533-1.551zM383.622 320.204c-.463-.267-1.022-.081-1.118.373s.273 1.174.736 1.441l2.549 1.469c.463.267 1.022.081 1.118-.373.1-.474-.273-1.174-.736-1.441l-2.549-1.469zM383.597 302.83c-.461-.282-1.022-.114-1.122.336s.26 1.182.721 1.464l2.533 1.551c.461.282 1.022.114 1.122-.336.105-.47-.26-1.182-.721-1.464l-2.533-1.551zM383.561 300.985c-.463-.267-1.022-.081-1.118.373s.273 1.174.736 1.441l2.549 1.469c.463.267 1.022.081 1.118-.373.1-.474-.273-1.174-.736-1.441l-2.549-1.469zM383.585 298.986c-.461-.282-1.022-.114-1.122.336s.26 1.182.721 1.464l2.533 1.551c.461.282 1.022.114 1.122-.336.105-.47-.26-1.182-.721-1.464l-2.533-1.551zM383.55 297.142c-.463-.267-1.022-.081-1.118.373s.273 1.174.736 1.441l2.549 1.469c.463.267 1.022.081 1.118-.373.1-.474-.273-1.174-.736-1.441l-2.549-1.469zM383.622 310.517c-.461-.282-1.022-.114-1.122.336s.26 1.182.721 1.464l2.533 1.551c.461.282 1.022.114 1.122-.336.105-.47-.26-1.182-.721-1.464l-2.533-1.551zM383.586 308.673c-.463-.267-1.022-.081-1.118.373s.273 1.174.736 1.441l2.549 1.469c.463.267 1.022.081 1.118-.373.1-.474-.273-1.174-.736-1.441l-2.549-1.469zM383.609 306.673c-.461-.282-1.022-.114-1.122.336s.26 1.182.721 1.464l2.533 1.551c.461.282 1.022.114 1.122-.336.105-.47-.26-1.182-.721-1.464l-2.533-1.551zM383.574 304.829c-.463-.267-1.022-.081-1.118.373s.273 1.174.736 1.441l2.549 1.469c.463.267 1.022.081 1.118-.373.1-.474-.273-1.174-.736-1.441l-2.549-1.469zM383.742 348.952c-.461-.282-1.022-.114-1.122.336s.26 1.182.721 1.464l2.533 1.551c.461.282 1.022.114 1.122-.336.105-.47-.26-1.182-.721-1.464l-2.533-1.551zM383.707 347.109c-.463-.267-1.022-.081-1.118.373s.273 1.174.736 1.441l2.549 1.469c.463.267 1.022.081 1.118-.373.1-.474-.273-1.174-.736-1.441l-2.549-1.469zM383.73 345.109c-.461-.282-1.022-.114-1.122.336s.26 1.182.721 1.464l2.533 1.551c.461.282 1.022.114 1.122-.336.105-.47-.26-1.182-.721-1.464l-2.533-1.551zM383.695 343.265c-.463-.267-1.022-.081-1.118.373s.273 1.174.736 1.441l2.549 1.469c.463.267 1.022.081 1.118-.373.1-.474-.273-1.174-.736-1.441l-2.549-1.469zM383.731 354.796c-.463-.267-1.022-.081-1.118.373s.273 1.174.736 1.441l2.549 1.469c.463.267 1.022.081 1.118-.373.1-.474-.273-1.174-.736-1.441l-2.549-1.469zM383.755 352.796c-.461-.282-1.022-.114-1.122.336s.26 1.182.721 1.464l2.533 1.551c.461.282 1.022.114 1.122-.336.105-.47-.26-1.182-.721-1.464l-2.533-1.551zM383.719 350.952c-.463-.267-1.022-.081-1.118.373s.273 1.174.736 1.441l2.549 1.469c.463.267 1.022.081 1.118-.373.1-.474-.273-1.174-.736-1.441l-2.549-1.469zM383.694 333.579c-.461-.282-1.022-.114-1.122.336s.26 1.182.721 1.464l2.533 1.551c.461.282 1.022.114 1.122-.336.105-.47-.26-1.182-.721-1.464l-2.533-1.551zM383.659 331.734c-.463-.267-1.022-.081-1.118.373s.273 1.174.736 1.441l2.549 1.469c.463.267 1.022.081 1.118-.373.1-.474-.273-1.174-.736-1.441l-2.549-1.469zM383.682 329.735c-.461-.282-1.022-.114-1.122.336s.26 1.182.721 1.464l2.533 1.551c.461.282 1.022.114 1.122-.336.105-.47-.26-1.182-.721-1.464l-2.533-1.551zM383.646 327.891c-.463-.267-1.022-.081-1.118.373s.273 1.174.736 1.441l2.549 1.469c.463.267 1.022.081 1.118-.373.1-.474-.273-1.174-.736-1.441l-2.549-1.469zM383.718 341.266c-.461-.282-1.022-.114-1.122.336s.26 1.182.721 1.464l2.533 1.551c.461.282 1.022.114 1.122-.336.105-.47-.26-1.182-.721-1.464l-2.533-1.551zM383.683 339.422c-.463-.267-1.022-.081-1.118.373s.273 1.174.736 1.441l2.549 1.469c.463.267 1.022.081 1.118-.373.1-.474-.273-1.174-.736-1.441l-2.549-1.469zM383.707 337.422c-.461-.282-1.022-.114-1.122.336s.26 1.182.721 1.464l2.533 1.551c.461.282 1.022.114 1.122-.336.105-.47-.26-1.182-.721-1.464l-2.533-1.551zM383.671 335.578c-.463-.267-1.022-.081-1.118.373s.273 1.174.736 1.441l2.549 1.469c.463.267 1.022.081 1.118-.373.1-.474-.273-1.174-.736-1.441l-2.549-1.469zM383.803 368.269c-.461-.282-1.022-.114-1.122.336s.26 1.182.721 1.464l2.533 1.551c.461.282 1.022.114 1.122-.336.105-.47-.26-1.182-.721-1.464l-2.533-1.551zM383.768 366.424c-.463-.267-1.022-.081-1.118.373s.273 1.174.736 1.441l2.549 1.469c.463.267 1.022.081 1.118-.373.1-.474-.273-1.174-.736-1.441l-2.549-1.469zM383.791 364.426c-.461-.282-1.022-.114-1.122.336s.26 1.182.721 1.464l2.533 1.551c.461.282 1.022.114 1.122-.336.105-.47-.26-1.182-.721-1.464l-2.533-1.551zM383.756 362.581c-.463-.267-1.022-.081-1.118.373s.273 1.174.736 1.441l2.549 1.469c.463.267 1.022.081 1.118-.373.1-.474-.273-1.174-.736-1.441l-2.549-1.469zM383.791 374.112c-.463-.267-1.022-.081-1.118.373s.273 1.174.736 1.441l2.549 1.469c.463.267 1.022.081 1.118-.373.1-.474-.273-1.174-.736-1.441l-2.549-1.469zM383.815 372.112c-.461-.282-1.022-.114-1.122.336s.26 1.182.721 1.464l2.533 1.551c.461.282 1.022.114 1.122-.336.105-.47-.26-1.182-.721-1.464l-2.533-1.551zM383.78 370.268c-.463-.267-1.022-.081-1.118.373s.273 1.174.736 1.441l2.549 1.469c.463.267 1.022.081 1.118-.373.1-.474-.273-1.174-.736-1.441l-2.549-1.469zM383.779 360.582c-.461-.282-1.022-.114-1.122.336s.26 1.182.721 1.464l2.533 1.551c.461.282 1.022.114 1.122-.336.105-.47-.26-1.182-.721-1.464l-2.533-1.551zM383.743 358.738c-.463-.267-1.022-.081-1.118.373s.273 1.174.736 1.441l2.549 1.469c.463.267 1.022.081 1.118-.373.1-.474-.273-1.174-.736-1.441l-2.549-1.469zM383.767 356.738c-.461-.282-1.022-.114-1.122.336s.26 1.182.721 1.464l2.533 1.551c.461.282 1.022.114 1.122-.336.105-.47-.26-1.182-.721-1.464l-2.533-1.551z"/></g><g stroke="#000" stroke-width="14.25" fill="#b00"><path d="M392.372 274.803c-.574-.143-1.066.167-.984.621s.738 1.05 1.312 1.193l3.157.787c.574.143 1.066-.167.984-.621-.086-.474-.738-1.05-1.312-1.193l-3.157-.787zM393.265 275.3c-.159-.461-.754-.62-1.19-.32s-.711 1.062-.552 1.523l.877 2.533c.159.461.754.62 1.19.32.455-.314.711-1.062.552-1.523l-.877-2.533zM393.026 274.989c-.418-.343-1.037-.256-1.237.174s.018 1.203.437 1.546l2.302 1.886c.418.343 1.037.256 1.237-.174.209-.449-.018-1.203-.437-1.546l-2.302-1.886zM391.593 276.533c.349-.389.13-.856-.438-.935s-1.486.231-1.835.62l-1.922 2.138c-.349.389-.13.856.438.935.594.082 1.486-.231 1.835-.62l1.922-2.138zM393.909 276.482c.331-.391.09-.857-.483-.931s-1.475.242-1.806.634l-1.82 2.151c-.331.391-.09.857.483.931.598.078 1.475-.242 1.806-.634l1.82-2.151zM382.009 276.613c.367-.378.17-.852-.394-.947s-1.496.187-1.864.565l-2.021 2.079c-.367.378-.17.852.394.947.59.1 1.496-.187 1.864-.565l2.021-2.079zM384.323 276.625c.349-.381.13-.854-.439-.945s-1.486.199-1.835.58l-1.92 2.097c-.349.381-.13.854.439.945.594.095 1.486-.199 1.835-.58l1.92-2.097zM386.85 276.699c.367-.378.17-.852-.394-.947s-1.496.187-1.864.565l-2.021 2.079c-.367.378-.17.852.394.947.59.1 1.496-.187 1.864-.565l2.021-2.079zM389.067 276.538c.331-.391.09-.857-.483-.931s-1.475.242-1.806.634l-1.82 2.151c-.331.391-.09.857.483.931.598.078 1.475-.242 1.806-.634l1.82-2.151zM378.899 275.798c.367-.378.17-.852-.394-.947s-1.496.187-1.864.565l-2.021 2.079c-.367.378-.17.852.394.947.59.1 1.496-.187 1.864-.565l2.021-2.079zM380.013 276.546c.403-.346.255-.836-.296-.979s-1.505.058-1.908.404l-2.218 1.902c-.403.346-.255.836.296.979.576.15 1.505-.058 1.908-.404l2.218-1.902zM377.241 276.078c.533-.221.603-.717.141-.991s-1.458-.326-1.991-.105l-2.931 1.218c-.533.221-.603.717-.141.991.483.286 1.458.326 1.991.105l2.931-1.218z"/></g><g stroke="#000" stroke-width="14.25" fill="#b00"><path d="M424.057 355.87c.463.279.446.777-.034.997s-1.423.161-1.886-.118l-2.547-1.534c-.463-.279-.446-.777.034-.997.502-.23 1.423-.161 1.886.118l2.547 1.534zM426.157 355.329c.448.286.41.788-.076 1.005s-1.418.147-1.866-.139l-2.461-1.573c-.448-.286-.41-.788.076-1.005.507-.226 1.418-.147 1.866.139l2.461 1.573zM428.426 354.687c.463.279.446.777-.034.997s-1.423.161-1.886-.118l-2.547-1.534c-.463-.279-.446-.777.034-.997.502-.23 1.423-.161 1.886.118l2.547 1.534zM430.525 354.145c.448.286.41.788-.076 1.005s-1.418.147-1.866-.139l-2.461-1.573c-.448-.286-.41-.788.076-1.005.507-.226 1.418-.147 1.866.139l2.461 1.573zM439.724 347.184c.552-.09.976.267.848.714s-.81.985-1.362 1.076l-3.038.497c-.552.09-.976-.267-.848-.714.134-.468.81-.985 1.362-1.076l3.038-.497zM438.153 343.846c.365-.367.958-.318 1.186.099s.091 1.2-.274 1.567l-2.007 2.019c-.365.367-.958.318-1.186-.099-.238-.435-.091-1.2.274-1.567l2.007-2.019zM440.655 345.335c.556-.105.99.237.868.683s-.801.998-1.357 1.103l-3.06.577c-.556.105-.99-.237-.868-.683.128-.467.801-.998 1.357-1.103l3.06-.577zM415.419 357.938c.433.311.364.806-.137.991s-1.435.057-1.867-.254l-2.379-1.711c-.433-.311-.364-.806.137-.991.524-.193 1.435-.057 1.867.254l2.379 1.711zM417.568 357.55c.416.317.327.815-.179.996s-1.428.044-1.845-.273l-2.29-1.744c-.416-.317-.327-.815.179-.996.529-.189 1.428-.044 1.845.273l2.29 1.744zM419.877 356.652c.475.265.479.763.009.997s-1.416.203-1.891-.062l-2.611-1.456c-.475-.265-.479-.763-.009-.997.492-.244 1.416-.203 1.891.062l2.611 1.456zM421.683 356.567c.399.333.282.827-.233.988s-1.429-.01-1.828-.343l-2.192-1.83c-.399-.333-.282-.827.233-.988.538-.168 1.429.01 1.828.343l2.192 1.83zM432.794 353.502c.463.279.446.777-.034.997s-1.423.161-1.886-.118l-2.547-1.534c-.463-.279-.446-.777.034-.997.502-.23 1.423-.161 1.886.118l2.547 1.534zM434.894 352.961c.448.286.41.788-.076 1.005s-1.418.147-1.866-.139l-2.461-1.573c-.448-.286-.41-.788.076-1.005.507-.226 1.418-.147 1.866.139l2.461 1.573zM387.596 360.295c.349.378.162.852-.373.947s-1.419-.187-1.767-.565l-1.918-2.079c-.349-.378-.162-.852.373-.947.559-.1 1.419.187 1.767.565l1.918 2.079zM389.795 360.283c.331.381.123.853-.416.944s-1.409-.199-1.74-.58l-1.82-2.095c-.331-.381-.123-.853.416-.944.563-.095 1.409.199 1.74.58l1.82 2.095zM392.186 360.206c.349.378.162.852-.373.947s-1.419-.187-1.767-.565l-1.918-2.079c-.349-.378-.162-.852.373-.947.559-.1 1.419.187 1.767.565l1.918 2.079zM394.386 360.196c.331.381.123.853-.416.944s-1.409-.199-1.74-.58l-1.82-2.095c-.331-.381-.123-.853.416-.944.563-.095 1.409.199 1.74.58l1.82 2.095zM378.416 360.471c.349.378.162.852-.373.947s-1.419-.187-1.767-.565l-1.918-2.079c-.349-.378-.162-.852.373-.947.559-.1 1.419.187 1.767.565l1.918 2.079zM380.615 360.46c.331.381.123.853-.416.944s-1.409-.199-1.74-.58l-1.82-2.095c-.331-.381-.123-.853.416-.944.563-.095 1.409.199 1.74.58l1.82 2.095zM383.006 360.382c.349.378.162.852-.373.947s-1.419-.187-1.767-.565l-1.918-2.079c-.349-.378-.162-.852.373-.947.559-.1 1.419.187 1.767.565l1.918 2.079zM385.205 360.372c.331.381.123.853-.416.944s-1.409-.199-1.74-.58l-1.82-2.095c-.331-.381-.123-.853.416-.944.563-.095 1.409.199 1.74.58l1.82 2.095zM406.144 359.463c.396.344.272.831-.247.975s-1.435-.056-1.83-.4l-2.177-1.89c-.396-.344-.272-.831.247-.975.543-.15 1.435.056 1.83.4l2.177 1.89zM408.431 359.142c.392.338.265.83-.254.984s-1.428-.032-1.82-.37l-2.153-1.861c-.392-.338-.265-.83.254-.984.542-.16 1.428.032 1.82.37l2.153 1.861zM410.786 358.788c.409.333.303.823-.21.981s-1.436-.018-1.845-.351l-2.247-1.832c-.409-.333-.303-.823.21-.981.537-.164 1.436.018 1.845.351l2.247 1.832zM413.095 358.414c.416.317.327.815-.179.996s-1.428.044-1.845-.273l-2.29-1.744c-.416-.317-.327-.815.179-.996.529-.189 1.428-.044 1.845.273l2.29 1.744zM396.776 360.117c.349.378.162.852-.373.947s-1.419-.187-1.767-.565l-1.918-2.079c-.349-.378-.162-.852.373-.947.559-.1 1.419.187 1.767.565l1.918 2.079zM399.046 359.89c.36.362.188.845-.343.964s-1.422-.123-1.782-.485l-1.978-1.994c-.36-.362-.188-.845.343-.964.555-.125 1.422.123 1.782.485l1.978 1.994zM401.507 359.606c.398.342.277.831-.242.977s-1.435-.05-1.833-.393l-2.189-1.883c-.398-.342-.277-.831.242-.977.542-.153 1.435.05 1.833.393l2.189 1.883zM403.594 359.558c.352.367.171.847-.362.96s-1.419-.143-1.771-.51l-1.937-2.021c-.352-.367-.171-.847.362-.96.557-.117 1.419.143 1.771.51l1.937 2.021zM350.543 359.361c.262.424-.023.862-.57.876s-1.356-.396-1.619-.821l-1.442-2.333c-.262-.424.023-.862.57-.876.572-.014 1.356.396 1.619.821l1.442 2.333zM352.708 359.678c.244.424-.062.858-.612.867s-1.344-.407-1.588-.831l-1.343-2.335c-.244-.424.062-.858.612-.867.575-.009 1.344.407 1.588.831l1.343 2.335zM355.271 359.833c.313.399.083.859-.459.92s-1.397-.278-1.709-.677l-1.719-2.196c-.313-.399-.083-.859.459-.92.567-.063 1.397.278 1.709.677l1.719 2.196zM357.463 359.961c.295.401.044.859-.502.915s-1.386-.289-1.681-.691l-1.621-2.208c-.295-.401-.044-.859.502-.915.57-.059 1.386.289 1.681.691l1.621 2.208zM343.638 358.474c.244.424-.062.858-.612.867s-1.344-.407-1.588-.831l-1.343-2.335c-.244-.424.062-.858.612-.867.575-.009 1.344.407 1.588.831l1.343 2.335zM346.008 358.759c.262.424-.023.862-.57.876s-1.356-.396-1.619-.821l-1.442-2.333c-.262-.424.023-.862.57-.876.572-.014 1.356.396 1.619.821l1.442 2.333zM348.174 359.076c.244.424-.062.858-.612.867s-1.344-.407-1.588-.831l-1.343-2.335c-.244-.424.062-.858.612-.867.575-.009 1.344.407 1.588.831l1.343 2.335zM369.024 360.463c.313.399.083.859-.459.92s-1.397-.278-1.709-.677l-1.719-2.196c-.313-.399-.083-.859.459-.92.567-.063 1.397.278 1.709.677l1.719 2.196zM371.217 360.59c.295.401.044.859-.502.915s-1.386-.289-1.681-.691l-1.621-2.208c-.295-.401-.044-.859.502-.915.57-.059 1.386.289 1.681.691l1.621 2.208zM373.826 360.559c.349.378.162.852-.373.947s-1.419-.187-1.767-.565l-1.918-2.079c-.349-.378-.162-.852.373-.947.559-.1 1.419.187 1.767.565l1.918 2.079zM376.023 360.549c.331.381.123.853-.416.944s-1.409-.199-1.74-.58l-1.82-2.095c-.331-.381-.123-.853.416-.944.563-.095 1.409.199 1.74.58l1.82 2.095zM359.855 360.043c.313.399.083.859-.459.92s-1.397-.278-1.709-.677l-1.719-2.196c-.313-.399-.083-.859.459-.92.567-.063 1.397.278 1.709.677l1.719 2.196zM362.048 360.17c.295.401.044.859-.502.915s-1.386-.289-1.681-.691l-1.621-2.208c-.295-.401-.044-.859.502-.915.57-.059 1.386.289 1.681.691l1.621 2.208zM364.44 360.252c.313.399.083.859-.459.92s-1.397-.278-1.709-.677l-1.719-2.196c-.313-.399-.083-.859.459-.92.567-.063 1.397.278 1.709.677l1.719 2.196zM366.633 360.379c.295.401.044.859-.502.915s-1.386-.289-1.681-.691l-1.621-2.208c-.295-.401-.044-.859.502-.915.57-.059 1.386.289 1.681.691l1.621 2.208zM331.349 349.69c-.564.072-.968-.294-.809-.733s.884-.949 1.448-1.02l3.102-.396c.564-.072.968.294.809.733-.167.458-.884.949-1.448 1.02l-3.102.396zM331.765 352.184c-.449.285-1.017.12-1.137-.329s.209-1.183.658-1.468l2.467-1.567c.449-.285 1.017-.12 1.137.329.125.47-.209 1.183-.658 1.468l-2.467 1.567zM332.972 354.341c-.301.405-.896.424-1.191.038s-.287-1.178.014-1.583l1.656-2.229c.301-.405.896-.424 1.191-.038.307.404.287 1.178-.014 1.583l-1.656 2.229zM334.4 355.718c-.12.461-.68.645-1.12.369s-.76-1.013-.641-1.474l.659-2.533c.12-.461.68-.645 1.12-.369.46.289.76 1.013.641 1.474l-.659 2.533zM335.041 344.786c-.562-.03-.863-.466-.602-.872s1.082-.781 1.644-.751l3.089.166c.562.03.863.466.602.872-.272.424-1.082.781-1.644.751l-3.089-.166zM333.583 346.37c-.57-.017-.887-.439-.633-.845s1.078-.795 1.648-.778l3.136.092c.57.017.887.439.633.845-.265.424-1.078.795-1.648.778l-3.136-.092zM332.43 347.905c-.559.057-.951-.324-.784-.763s.892-.935 1.451-.993l3.073-.316c.559-.057.951.324.784.763-.174.459-.892.935-1.451.993l-3.073.316zM336.177 357.237c.032.477-.442.779-.948.604s-1.044-.826-1.076-1.303l-.175-2.623c-.032-.477.442-.779.948-.604.529.183 1.044.826 1.076 1.303l.175 2.623zM338.633 357.876c.139.456-.263.831-.804.748s-1.221-.621-1.361-1.077l-.766-2.51c-.139-.456.263-.831.804-.748.565.086 1.221.621 1.361 1.077l.766 2.51zM341.357 358.142c.262.424-.023.862-.57.876s-1.356-.396-1.619-.821l-1.442-2.333c-.262-.424.023-.862.57-.876.572-.014 1.356.396 1.619.821l1.442 2.333zM436.026 351.069c.554.115.759.583.41.936s-1.251.592-1.805.477l-3.046-.631c-.554-.115-.759-.583-.41-.936.364-.369 1.251-.592 1.805-.477l3.046.631zM436.619 351.47c.534.149.692.634.317.971s-1.285.524-1.819.376l-2.937-.818c-.534-.149-.692-.634-.317-.971.392-.352 1.285-.524 1.819-.376l2.937.818zM440.136 348.936c.561.086.799.543.477.913s-1.206.654-1.767.568l-3.085-.476c-.561-.086-.799-.543-.477-.913.337-.387 1.206-.654 1.767-.568l3.085.476zM438.338 350.418c.53.158.676.646.293.976s-1.298.501-1.828.342l-2.915-.871c-.53-.158-.676-.646-.293-.976.401-.344 1.298-.501 1.828-.342l2.915.871zM427.983 341.742c-.52.197-.62.688-.201.983s1.358.392 1.878.195l2.859-1.084c.52-.197.62-.688.201-.983-.438-.308-1.358-.392-1.878-.195l-2.859 1.084zM426.049 340.865c-.506.207-.587.705-.162.998s1.356.378 1.862.171l2.783-1.136c.506-.207.587-.705.162-.998-.444-.305-1.356-.378-1.862-.171l-2.783 1.136zM423.871 339.672c-.536.163-.682.647-.292.967s1.317.478 1.854.315l2.95-.896c.536-.163.682-.647.292-.967-.408-.335-1.317-.478-1.854-.315l-2.95.896zM434.059 344.624c-.506.207-.587.705-.162.998s1.356.378 1.862.171l2.783-1.136c.506-.207.587-.705.162-.998-.444-.305-1.356-.378-1.862-.171l-2.783 1.136zM431.989 343.623c-.52.197-.62.688-.201.983s1.358.392 1.878.195l2.859-1.084c.52-.197.62-.688.201-.983-.438-.308-1.358-.392-1.878-.195l-2.859 1.084zM430.053 342.745c-.506.207-.587.705-.162.998s1.356.378 1.862.171l2.783-1.136c.506-.207.587-.705.162-.998-.444-.305-1.356-.378-1.862-.171l-2.783 1.136z"/></g><g transform="matrix(.072 0 0 .086 364.627 299.181)"><path d="M212.603-1994.912v53.15h-53.15v35.44h53.15v106.3h35.433v-106.3h53.149v-35.44h-53.149v-53.15h-35.433z" stroke="#000" fill="#fff133"/><ellipse fill="#fff133" transform="matrix(.571 0 0 .618 93.645 -678.94)" cx="239.17" rx="62.008" cy="-1813.5" ry="57.32" stroke="#000"/><path d="M602.36-1119.4c0 68.45-10.417 145.68-29.252 205.02-120.08-26.455-268.06-39.682-339.04-39.682-87.586 0-246.15 13.227-345.26 26.455-18.835-59.336-30.538-123.34-30.538-191.79 0-273.81 105.27-390.21 367.5-496.03 233.3 105.82 376.6 222.22 376.6 496.03z" transform="matrix(1.058 0 0 1.339 -5.764 363.72)" stroke="#000" fill="#fff"/><path d="M566.93-657.28c0-44.007-150.8-79.724-336.61-79.724s-336.61 35.717-336.61 79.724v26.575c0-44.007 150.8-70.866 336.61-70.866s336.61 44.576 336.61 88.583v-44.292z" transform="matrix(1.171 0 0 .745 -32.833 -634.89)" stroke="#000" fill="#fff133"/><g stroke="#000" fill="#fff133"><path d="M236.99-1381.568l-62.318 39.577 41.545 26.384-20.772 13.193-41.545-26.384-62.318 39.576 62.318 39.577 41.545-26.384 20.772 13.192v39.577h41.545v-39.577l20.773-13.192 41.545 26.384 62.318-39.577-62.318-39.576-41.545 26.384-20.773-13.193 41.546-26.384-62.318-39.577zM-181.547-1340.023l6.091 39.878 10.402 25.544-14.909 16.075-10.402-25.545-4.509 41.619 35.714 35.013-10.401-25.543 25.311 9.469 15.603 38.316 20.111-3.304-15.603-38.316 14.911-16.075 10.4 25.543 4.509-41.619-35.714-35.013 10.403 25.545-25.313-9.469-10.402-25.544-26.203-36.575zM655.283-1339.405l-23.781 37.11-9.477 25.689-24.963 9.836 9.477-25.69-34.441 35.524 6.01 41.542 9.477-25.688 15.486 15.853-14.215 38.534 20.226 3.009 14.215-38.534 24.964-9.835-9.478 25.688 34.441-35.524-6.01-41.543-9.476 25.69-15.487-15.854 9.477-25.689 3.555-40.119zM-30.97-1285.526c-3.317-13.026 9.772-27.736 26.177-29.421 16.405-1.685 36.127 9.656 39.443 22.682l-9.773 27.729 78.884 45.354-32.81 3.369-59.163-34.015-39.266 44.123-32.81 3.369 52.356-58.831s-19.72-11.334-23.037-24.36zM438.984-1292.165c3.173-13.04 22.77-24.468 39.193-22.856 16.423 1.612 29.673 16.265 26.499 29.305l-22.768 24.462 53.001 58.599-32.846-3.224-39.751-43.95-58.787 34.277-32.846-3.224 78.383-45.701s-13.252-14.646-10.078-27.686zM631.665-1163.89c0-32.769-176.813-59.365-394.675-59.365s-394.675 26.596-394.675 59.365v19.789c0-32.769 176.813-52.769 394.675-52.769s394.675 33.193 394.675 65.962v-32.981z"/></g><path d="M566.93-657.28c0-44.007-150.8-79.724-336.61-79.724s-336.61 35.717-336.61 79.724v26.575c0-44.007 150.8-70.866 336.61-70.866s336.61 44.576 336.61 88.583v-44.292z" transform="matrix(1.073 0 0 .745 -9.254 -386.86)" stroke="#000" fill="#fff133"/><g stroke="#000" fill="#fff133"><path d="M241.427-1133.538l-58.688 39.577 39.125 26.384-19.562 13.193-39.125-26.384-58.688 39.576 58.688 39.577 39.125-26.384 19.562 13.192v39.577h39.125v-39.577l19.563-13.192 39.125 26.384 58.688-39.577-58.688-39.576-39.125 26.384-19.563-13.193 39.126-26.384-58.688-39.577zM8.365-636.353l5.712 39.88 9.78 25.547-14.049 16.069-9.78-25.548-4.27 41.617 33.609 35.025-9.779-25.546 23.828 9.478 14.669 38.321 18.939-3.296-14.669-38.321 14.05-16.069 9.778 25.547 4.27-41.616-33.609-35.026 9.781 25.548-23.829-9.479-9.78-25.547-24.651-36.584zM635.353-1091.375l-22.396 37.11-8.925 25.689-23.509 9.836 8.925-25.69-32.435 35.524 5.66 41.542 8.925-25.688 14.584 15.853-13.387 38.534 19.048 3.009 13.387-38.534 23.51-9.835-8.926 25.688 32.435-35.524-5.66-41.543-8.924 25.69-14.585-15.854 8.925-25.689 3.348-40.119zM-10.918-1037.496c-3.123-13.026 9.203-27.736 24.652-29.421 15.45-1.685 34.022 9.656 37.145 22.682l-9.204 27.729 74.288 45.354-30.899 3.369-55.717-34.015-36.979 44.123-30.899 3.369 49.306-58.831s-18.571-11.334-21.695-24.36zM431.658-1044.135c2.989-13.04 21.444-24.468 36.91-22.856 15.467 1.612 27.944 16.265 24.956 29.305l-21.442 24.462 49.914 58.599-30.933-3.224-37.436-43.95-55.363 34.277-30.933-3.224 73.818-45.701s-12.48-14.646-9.491-27.686zM613.112-915.86c0-32.769-166.513-59.365-371.685-59.365s-371.685 26.596-371.685 59.365v19.789c0-32.769 166.513-52.769 371.685-52.769s371.685 33.193 371.685 65.962v-32.981z"/></g><path d="M566.93-657.28c0-44.007-150.8-79.724-336.61-79.724s-336.61 35.717-336.61 79.724v26.575c0-44.007 150.8-70.866 336.61-70.866s336.61 44.576 336.61 88.583v-44.292z" transform="matrix(1.105 0 0 .745 -16.106 -865.2)" stroke="#000" fill="#fff133"/><g stroke="#000" fill="#fff133"><path d="M242.555-1611.225l-57.397 37.331 38.264 24.887-19.132 12.444-38.264-24.887-57.397 37.331 57.397 37.331 38.264-24.887 19.132 12.443v37.331h38.264v-37.331l19.133-12.443 38.264 24.887 57.397-37.331-57.397-37.331-38.264 24.887-19.133-12.444 38.265-24.887-57.397-37.331zM-142.925-1572.032l5.61 37.615 9.58 24.094-13.732 15.163-9.58-24.095-4.153 39.258 32.893 33.026-9.58-24.094 23.312 8.932 14.37 36.142 18.523-3.116-14.37-36.142 13.733-15.162 9.579 24.094 4.153-39.257-32.893-33.026 9.581 24.095-23.313-8.932-9.58-24.094-24.133-34.499zM435.345-529.347l-21.881 35.014-8.717 24.236-22.978 9.284 8.717-24.237-31.695 33.52 5.546 39.189 8.716-24.235 14.261 14.952-13.075 36.355 18.621 2.834 13.075-36.355 22.979-9.283-8.717 24.235 31.695-33.519-5.546-39.189-8.716 24.237-14.262-14.953 8.717-24.236 3.26-37.848zM-4.235-1520.642c-3.055-12.287 9.001-26.163 24.11-27.752 15.11-1.589 33.273 9.108 36.328 21.395l-9.001 26.156 72.653 42.78-30.219 3.178-54.49-32.086-36.166 41.621-30.219 3.178 48.221-55.494s-18.163-10.691-21.217-22.978zM428.59-1526.889c2.923-12.3 20.972-23.08 36.097-21.559 15.126 1.521 27.329 15.341 24.407 27.642l-20.97 23.074 48.815 55.273-30.252-3.041-36.612-41.455-54.144 32.332-30.252-3.041 72.193-43.108s-12.205-13.815-9.282-26.115zM606.06-1405.898c0-30.91-162.849-55.997-363.505-55.997s-363.505 25.087-363.505 55.997v18.666c0-30.91 162.849-49.775 363.505-49.775s363.505 31.309 363.505 62.219v-31.11z"/></g><ellipse fill="#b90000" transform="matrix(.966 0 0 .414 12.936 -517.53)" cx="234.13" rx="375.87" cy="-822.11" ry="120.53"/></g><path d="M513.78-790.16l35.432-17.714 35.433 17.714s-73.366 35.433-73.366 159.45c-.001 88.58 125.26 106.3 125.26 212.6 0 45.649-34.183 88.582-69.616 88.582s-88.583-17.716-141.73-70.866c35.433 17.716 76.082 37.308 106.3 36.058 19.588-.405 55.025-17.716 55.025-53.149 0-70.866-122.77-106.92-122.77-213.22 0-124.02 50.025-159.45 50.026-159.45z" transform="matrix(.215 0 0 .179 313.875 342.337)" stroke="#000" stroke-width="1pt" fill="#fff"/><path d="M212.6-453.54c-35.433 0-70.866 35.433-70.866 70.866s35.433 70.866 70.866 70.866h194.88c35.433 0 70.866-35.433 70.866-70.866 0-37.027-35.433-70.866-70.866-70.866h-194.88z" transform="matrix(.019 -.001 .009 .02 378.938 385.27)" stroke="#000" stroke-width="20.006" fill="#b00"/><path d="M520.25-790.16l46.683-17.717 10 17.717s-70.649 35.433-70.649 159.45c-.001 88.58 125.89 106.3 125.89 212.6 0 45.649-26.714 87.362-65.241 88.582-73.403 2.363-90.458-23.966-141.73-70.866 43.149 32.308 105 46.752 129.02 34.183 29.354-15.364 35.024-36.058 35.024-53.774 0-70.866-120.89-104.42-120.89-210.72 0-124.02 51.9-159.45 51.9-159.45zM513.34-789.69c7.004-2.437 35.875-18.186 71.308 17.247 17.717 17.72 17.716 53.149 17.716 70.866l53.15-53.149s-29.066-86.87-107.62-53.592c-11.127 4.901-28.139 14.538-34.549 18.628zM523.8-795.94c8.839-2.869 36.676-6.325 64.596 18.501 17.717 17.72 18.966 42.933 18.966 60.65l40.65-37.933c3.44-3.21-24.832-81.252-99.241-54.034-4.498 1.807-14.779 6.302-24.971 12.816z" transform="matrix(.215 0 0 .179 313.875 342.337)" stroke="#000" stroke-width="1pt" fill="#fff"/><path d="M344.54-596.29l9.152 22.141s1.455-9.767 8.526-11.534l7.071-1.768s26.864 49.328 32.168 58.167c5.302 8.838-3.536 16.793-1.769 16.793 1.769 0 26.517-11.49 26.517-11.49s-10.606.883-15.026-6.188l-34.819-59.934s6.187-2.652 11.49-5.303c5.304-2.652 10.607 7.955 10.607 7.955l-13.258-26.517s0 8.839-4.42 10.607c-4.419 1.767-7.955 3.535-7.955 3.535s-3.535-6.187-7.955-13.258c-4.419-7.071 4.42-14.142 4.42-14.142l-22.981 11.49s7.955 4.42 10.607 8.839l5.303 8.839s-3.223 1.768-8.214 3.482c-3.589 1.875-7.696.054-9.464-1.714z" transform="matrix(.175 -.019 .06 .155 398.736 344.82)" stroke="#000" stroke-width="1pt" fill="#fff133"/><path d="M344.54-596.29l9.152 22.141s1.455-9.767 8.526-11.534l7.071-1.768s26.864 49.328 32.168 58.167c5.302 8.838-3.536 16.793-1.769 16.793 1.769 0 26.517-11.49 26.517-11.49s-10.606.883-15.026-6.188l-34.819-59.934s6.187-2.652 11.49-5.303c5.304-2.652 10.607 7.955 10.607 7.955l-13.258-26.517s0 8.839-4.42 10.607c-4.419 1.767-7.955 3.535-7.955 3.535s-3.535-6.187-7.955-13.258c-4.419-7.071 4.42-14.142 4.42-14.142l-22.981 11.49s7.955 4.42 10.607 8.839l5.303 8.839s-3.223 1.768-8.214 3.482c-3.589 1.875-7.696.054-9.464-1.714z" transform="matrix(-.16 .022 -.003 -.119 505.5 127.698)" stroke="#000" stroke-width="1pt" fill="#fff133"/><path d="M212.6-453.54c-35.433 0-70.866 35.433-70.866 70.866s35.433 70.866 70.866 70.866h194.88c35.433 0 70.866-35.433 70.866-70.866 0-37.027-35.433-70.866-70.866-70.866h-194.88z" transform="matrix(.019 -.001 .009 .02 382.077 385.078)" stroke="#000" stroke-width="20.006" fill="#b00"/><path d="M212.6-453.54c-35.433 0-70.866 35.433-70.866 70.866s35.433 70.866 70.866 70.866h194.88c35.433 0 70.866-35.433 70.866-70.866 0-37.027-35.433-70.866-70.866-70.866h-194.88z" transform="matrix(.031 -.001 .014 .02 377.403 387.717)" stroke="#000" stroke-width="20.006" fill="#b00"/><path d="M212.6-453.54c-35.433 0-70.866 35.433-70.866 70.866s35.433 70.866 70.866 70.866h194.88c35.433 0 70.866-35.433 70.866-70.866 0-37.027-35.433-70.866-70.866-70.866h-194.88z" transform="matrix(.031 -.001 .014 .02 380.366 387.526)" stroke="#000" stroke-width="20.006" fill="#b00"/><path d="M212.6-453.54c-35.433 0-70.866 35.433-70.866 70.866s35.433 70.866 70.866 70.866h194.88c35.433 0 70.866-35.433 70.866-70.866 0-37.027-35.433-70.866-70.866-70.866h-194.88z" transform="matrix(.039 -.001 .018 .02 376.22 390.533)" stroke="#000" stroke-width="20.006" fill="#b00"/><path d="M212.6-453.54c-35.433 0-70.866 35.433-70.866 70.866s35.433 70.866 70.866 70.866h194.88c35.433 0 70.866-35.433 70.866-70.866 0-37.027-35.433-70.866-70.866-70.866h-194.88z" transform="matrix(.039 -.001 .018 .02 379.893 390.342)" stroke="#000" stroke-width="20.006" fill="#b00"/><path fill="#ffe000" d="M0 0h255.992v511.984h-255.992z"/></g></svg>