<svg xmlns="http://www.w3.org/2000/svg" height="512" width="512" viewBox="0 0 512 512"><style>.prefix__st2{fill:#fff;stroke:#000;stroke-width:.6409;stroke-linejoin:round;stroke-miterlimit:10}.prefix__st2,.prefix__st3,.prefix__st5{stroke-linecap:round}.prefix__st3{stroke:#000;stroke-width:.6409;stroke-linejoin:round;stroke-miterlimit:10;fill:#ce9d09}.prefix__st5{fill:none}.prefix__st10,.prefix__st11,.prefix__st12,.prefix__st14,.prefix__st15,.prefix__st16,.prefix__st5,.prefix__st6,.prefix__st7,.prefix__st8,.prefix__st9{stroke:#000;stroke-width:.6409;stroke-linejoin:round;stroke-miterlimit:10}.prefix__st6{stroke-linecap:round;fill:#fbe704}.prefix__st10,.prefix__st11,.prefix__st12,.prefix__st14,.prefix__st15,.prefix__st16,.prefix__st7,.prefix__st8,.prefix__st9{fill:#ce9d09}.prefix__st10,.prefix__st11,.prefix__st12,.prefix__st14,.prefix__st15,.prefix__st16,.prefix__st8,.prefix__st9{fill:#fff}.prefix__st10,.prefix__st11,.prefix__st12,.prefix__st14,.prefix__st15,.prefix__st16,.prefix__st9{stroke-miterlimit:1.2818}.prefix__st10,.prefix__st11,.prefix__st12,.prefix__st14,.prefix__st15,.prefix__st16{fill:#ce9d09}.prefix__st11,.prefix__st12,.prefix__st14,.prefix__st15,.prefix__st16{fill:#ccc;stroke-miterlimit:10}.prefix__st12,.prefix__st14,.prefix__st15,.prefix__st16{fill:none}.prefix__st14,.prefix__st15,.prefix__st16{fill:#ccc;stroke-miterlimit:1.2818}.prefix__st15,.prefix__st16{fill:none}.prefix__st16{fill:#fa0204;stroke-miterlimit:10}</style><path id="prefix__rect4999" fill-rule="evenodd" clip-rule="evenodd" fill="#fff" d="M0 0h512v512H0z"/><path id="prefix__rect4998" fill-rule="evenodd" clip-rule="evenodd" fill="#ffe000" d="M0 0h256v512H0z"/><path id="prefix__path4905" class="prefix__st2" d="M401.1 155.7s-.9-3.3-1.7-4.8c-.5-.9-1.1-1.7-1.8-2.5-.8-.9-1.5-1.9-2.5-2.7-.8-.7-1.8-1.2-2.8-1.7-1-.6-2.1-1.1-3.2-1.4-1.2-.3-3.6-.3-3.6-.3s-2.5 0-3.6.3-2.2.9-3.2 1.4c-1 .5-2 1-2.8 1.7-.9.8-1.7 1.7-2.5 2.7-.6.8-1.3 1.6-1.8 2.5-.8 1.5-1.7 4.8-1.7 4.8l15.6-.6 15.6.6z"/><path id="prefix__path4899" class="prefix__st3" d="M386.9 142.3c.7.1 1.7.8 2.2.3.3-.2.1-.7 0-1-.3-.7-1.6-.9-1.7-1.7-.1-.7 1-1 1.2-1.6.1-.3.1-.7 0-1-.5-1.3-2.8-1.3-3.2-2.6-.2-.6 1.1-1.2 1.3-1.3.8-.4 1.9.5 2.7.2.6-.2 1.2-.8 1.2-1.4 0-.7-.7-1.2-1.3-1.5-1.2-.5-3.1 1.1-3.8.1-.7-1 1.7-2.1 1.3-3.3-.1-.5-1.3-1-1.3-1s-1.2.5-1.3 1c-.3 1.1 2 2.3 1.3 3.3-.7 1.1-2.7-.6-3.8-.1-.6.3-1.3.8-1.3 1.5 0 .6.6 1.2 1.2 1.4.8.4 1.9-.5 2.7-.2.2.1 1.5.7 1.3 1.3-.4 1.3-2.6 1.4-3.2 2.6-.1.3-.1.7 0 1 .2.6 1.3 1 1.2 1.6-.1.8-1.4.9-1.7 1.7-.1.3-.3.8 0 1 .6.5 1.5-.3 2.2-.3h2.8z"/><path id="prefix__path4460" d="M372.7 180.4l-8.8 1.8-3.2-9.8 2.4-2.7 10.3-4.7 12.3-.9 12.3.9 10.3 4.7 2.4 2.7-3.2 9.8-8.8-1.8-12.8-2.1-13.2 2.1z" fill="#fff"/><path id="prefix__path4357" class="prefix__st3" d="M381.4 165.5c-2.3.1-4.6.3-6.9.7-2.4.4-4.7 1-7 1.9-2.1.8-4.4 4.3-6.2 2.9-.4-.3.1-1 .3-1.4.4-.9.9-1.7 1.5-2.4.5-.5 1.5-.6 1.6-1.3.1-.5-.7-.8-.8-1.3-.2-.6-.3-1.3-.1-1.9.2-.8 1.3-1.2 1.5-2 .2-.7-.5-1.5-.2-2.1.4-.8 2.2-.5 2.3-1.4.1-.4-.7-.6-.9-1-.1-.3.1-.6.1-.9 0-.4.1-.9-.1-1.3-.2-.3-.7-.4-.8-.8-.1-.3 0-.8.2-1 .2-.2.7.1.8-.2.3-.5-.5-1-.7-1.5-.3-.6-.6-1.2-.8-1.9-.1-.5-.6-1.3-.1-1.6.5-.3 1.1.6 1.5 1 .6.5 1.4.9 1.8 1.6.3.5.1 1.2.6 1.6.5.5 1.5.1 2 .6.5.4.9 1.1.7 1.6-.1.6-1.4.5-1.3 1.1.2.7 1.3.6 2 .5.4-.1.7-.4 1-.7.3-.2.5-.4.7-.5.3-.1 1-.2 1-.2l-.4-.1s-.6-.5-.7-.8c-.1-.3.1-.7.3-1 .3-.3.7-.4 1.1-.4.3 0 .7.1.9.4.2.2.4.6.3.9 0 .3-.2.6-.4.7-.2.2-.9.3-.9.3l.4.1 1.2 1.6 5.1-.3s.6-.6.5-1c-.1-.4-.5-.5-1.1-.5-1.6.1-2-1.3-1.9-2.3.1-.8 1.1-1.4 1.8-1.7.7-.3 2.1.7 2.4 0 .3-.6-1.1-1-1.3-1.6-.1-.3-.1-.6 0-.9.3-.7 1.1-1.2 1.8-1.5.3-.1 1-.2 1-.2s.7 0 1 .2c.7.3 1.5.8 1.8 1.5.1.3.1.6 0 .9-.2.7-1.6 1-1.3 1.6.3.7 1.7-.3 2.4 0 .8.3 1.8.9 1.8 1.7.1 1-.3 2.4-1.9 2.3-.6 0-1 .1-1.1.5-.1.3.5 1 .5 1l5.1.3 1.2-1.6.4-.1s-.6-.1-.9-.3c-.2-.2-.4-.4-.4-.7 0-.3.1-.7.3-.9.2-.2.6-.4.9-.4.4 0 .8.1 1.1.4.2.2.4.6.3 1-.1.4-.7.8-.7.8l-.4.1s.7 0 1 .2c.3.1.5.4.7.5.3.2.6.6 1 .7.7.1 1.8.2 2-.5.1-.6-1.2-.5-1.3-1.1-.1-.6.3-1.3.7-1.6.5-.5 1.5-.1 2-.6.4-.4.2-1.2.6-1.6.4-.7 1.2-1.1 1.8-1.6.5-.4 1-1.3 1.5-1 .5.3 0 1.1-.1 1.6-.2.7-.5 1.3-.8 1.9-.2.5-1 1-.7 1.5.1.2.6 0 .8.2.3.3.3.7.2 1-.1.4-.7.4-.8.8-.2.4-.1.8-.1 1.3 0 .3.2.6.1.9-.1.4-.9.6-.9 1 .1.9 1.9.6 2.3 1.4.3.6-.4 1.5-.2 2.1.2.8 1.2 1.2 1.5 2 .2.6.1 1.3-.1 1.9-.2.5-.9.8-.8 1.3.1.7 1.2.7 1.6 1.3.6.7 1.1 1.5 1.5 2.4.2.5.7 1.1.3 1.4-1.8 1.4-4-2.1-6.2-2.9-2.3-.8-4.6-1.4-7-1.9-2.3-.4-4.6-.6-6.9-.7-1.3-.1-4-.1-4-.1s-2.2 0-3.6.1z"/><path id="prefix__path4353" class="prefix__st3" d="M384.2 133.3c-.5-1.1.4-1.9 1.3-2.7.9.8 1.8 1.6 1.3 2.7"/><path id="prefix__path4363" class="prefix__st5" d="M370.6 154.3s-1.3.1-1.8-.3-.8-1.2-.6-1.8c.1-.5 1.1-1 1.1-1"/><path id="prefix__path4361" class="prefix__st3" d="M367.6 157.1l3.6-.9c1.3-.3 2.7-.5 4-.7 1.5-.2 3.1-.3 4.7-.4 1.8-.1 5.6-.1 5.6-.1s3.7 0 5.6.1c1.6.1 3.1.2 4.7.4 1.3.2 2.7.4 4 .7l3.6.9"/><path id="prefix__path4367" class="prefix__st6" d="M366.6 153.9l2.2.1"/><path id="prefix__path4365" class="prefix__st6" d="M366.8 152.1l1.4.2"/><path id="prefix__path4369" class="prefix__st6" d="M372.6 155l.5.9"/><path id="prefix__path4371" class="prefix__st3" d="M365.4 160.8s2.2-.5 3.3-.8c1.6-.4 3.1-.8 4.7-1.1 1.8-.3 3.6-.6 5.4-.7 2.2-.2 6.8-.1 6.8-.1s4.5-.1 6.8.1c1.8.1 3.6.4 5.4.7 1.6.3 3.1.7 4.7 1.1 1.1.3 3.3.8 3.3.8"/><path id="prefix__path4393" class="prefix__st3" d="M383.9 172.5l-1.6-1.4s-2.6 1.1-3.5 2.1c-.2.3-.5.7-.4 1 .1 1.3 2 3.5 2 3.5l3.8-1.6"/><path id="prefix__path4397" class="prefix__st7" d="M382.8 208.9c-1.7 0-3.3-.1-5 0-2.5.2-5 .8-7.5 1.4-1.2.3-3.5 1.1-3.5 1.1l-.2-1.9.7-1-1.9-3.9-2-1.8V199s-1 .6-1.5.5c-.6-.1-1.1-.6-1.3-1.2-.2-.4.1-.9 0-1.4-.1-.4-.4-.7-.7-1.1-.2-.4-.5-.7-.8-1.1-.3-.4-1.1-.6-1-1.2 0-.4.8-.8.8-.8l1-.2 2.2-3.8-.2-4.1s-.9-.6-1.1-1.1c-.2-.3-.2-1.1-.2-1.1l2.3-3s-.7 0-.9-.1c-.5-.2-1.2-1.2-1.2-1.2s-1.3.9-2 .8c-.3-.1-.6-.4-.8-.7-.2-.3-.3-.7-.2-1.1.1-.3.3-.5.5-.7.4-.4 1.2-.3 1.5-.8.2-.4.1-.9 0-1.4-.3-.9-.9-1.7-1.4-2.4-.3-.5-1-.8-1.1-1.4 0-.3.4-.9.4-.9s1 0 1.5.1c.8.2 1.6.6 2.2 1.2.5.5.6 1.2.8 1.9.2.5.5 1.5.5 1.5s1.2 0 1.7.2c.7.3 1.4.8 1.7 1.5.2.5.2 1.2 0 1.7s-.7 1-1.2 1.3c-.5.3-1.9.5-1.9.5s1.2 1.2 1.9 1.4c.4.1.8.1 1.2 0 .5-.1.9-.5 1.2-.9.9-.7 1.8-1.4 2.5-2.3.4-.5 1-1.7 1-1.7s-1-.5-1.4-1c-.2-.3-.5-.6-.5-1s.1-.9.4-1.2c.3-.3.8-.4 1.2-.4.4 0 .7.1 1 .3.3.3.5.7.6 1.1 0 .3-.1.7-.3 1-.2.5-1.1 1.2-1.1 1.2s2.5 1.9 4 2.3c1.5.4 3.1.3 4.5-.1.4-.1 1-.6 1-.6 1.7-1.1 3.4-1.7 5.1-1.5 1.7-.2 3.4.4 5.1 1.5 0 0 .6.5 1 .6 1.4.4 3.1.5 4.5.1 1.5-.4 4-2.3 4-2.3s-.8-.7-1.1-1.2c-.2-.3-.3-.7-.3-1 0-.4.3-.8.6-1.1.3-.2.7-.4 1-.3.4 0 .9.1 1.2.4.3.3.5.8.4 1.2 0 .4-.3.7-.5 1-.4.4-1.4 1-1.4 1s.6 1.2 1 1.7c.7.9 1.6 1.6 2.5 2.3.4.3.8.7 1.2.9.4.1.8.1 1.2 0 .7-.2 1.9-1.4 1.9-1.4s-1.3-.2-1.9-.5c-.5-.3-1-.8-1.2-1.3-.2-.5-.2-1.2 0-1.7.3-.7 1-1.2 1.7-1.5.5-.2 1.7-.2 1.7-.2s.3-1 .5-1.5c.2-.6.4-1.4.8-1.9.6-.6 1.4-.9 2.2-1.2.5-.1 1.5-.1 1.5-.1s.4.6.4.9c-.1.6-.8.9-1.1 1.4-.5.8-1.2 1.5-1.4 2.4-.1.4-.3 1 0 1.4.3.5 1.1.4 1.5.8.2.2.5.4.5.7.1.4 0 .8-.2 1.1-.2.3-.5.6-.8.7-.7.1-2-.8-2-.8s-.7 1-1.2 1.2c-.3.1-.9.1-.9.1l2.3 3s0 .8-.2 1.1c-.2.5-1.1 1.1-1.1 1.1l-.2 4.1 2.2 3.8 1 .2s.8.4.8.8c0 .5-.7.8-1 1.2-.3.3-.5.7-.8 1.1-.2.3-.5.7-.7 1.1-.1.4.2 1 0 1.4-.2.5-.7 1-1.3 1.2-.5.1-1.5-.5-1.5-.5v3.8l-2 1.8-1.9 3.9.7 1-.2 1.9s-2.3-.8-3.5-1.1c-2.5-.6-4.9-1.2-7.5-1.4-1.7-.2-3.3 0-5 0h-2.7-2.3z"/><path id="prefix__path4399" class="prefix__st3" d="M362.8 174.3s-.8.7-1.1 1.1c-.3.4-.5.9-.6 1.4-.1.5 0 1.6 0 1.6"/><path id="prefix__path4401" class="prefix__st3" d="M362.1 184.9s2.1-1 3.2-1.3c2-.6 4.1-1 6.1-1.4 2.4-.5 4.8-.6 7.2-1.1.7-.2 1.4-.5 2.2-.7 1-.2 2.1-.6 3.2-.3.6.1 1.5.9 1.5.9s.9-.8 1.5-.9c1-.2 2.1.1 3.2.3.8.2 1.5.5 2.2.7 2.4.6 4.8.7 7.2 1.1 2.1.4 4.1.8 6.1 1.4 1.1.3 3.2 1.3 3.2 1.3"/><path id="prefix__path4403" class="prefix__st5" d="M362.2 189s3.4-1.1 5.1-1.7c1.8-.5 3.5-1.2 5.3-1.6 2.1-.5 4.3-.7 6.5-.9 2.1-.2 6.4-.5 6.4-.5s4.3.2 6.4.5c2.2.2 4.4.5 6.5.9 1.8.4 3.5 1 5.3 1.6 1.7.5 5.1 1.7 5.1 1.7"/><path id="prefix__path4415" class="prefix__st5" d="M382.4 192s-1 .2-1.4.5c-.6.4-1.1 1-1.4 1.7-.2.5-.2 1 0 1.5.3.7 1 1.1 1.6 1.4.4.2.8.3 1.3.3.6-.1 1.5-.8 1.5-.8"/><path id="prefix__path4407" class="prefix__st3" d="M361.4 193.5l1.1 2.3c-1.1 0-1.5.6-1.8 1.2"/><path id="prefix__path4411" class="prefix__st3" d="M363.5 196.5s1-1 1.7-1.2c.4-.1.9 0 1.3.3.5.3.8.9.9 1.4.1.5.1 1-.1 1.5-.2.4-.4.8-.8 1-.9.4-3-.4-3-.4"/><path id="prefix__path4409" class="prefix__st3" d="M362.4 195.6l1.1.8-.1 2.7"/><path id="prefix__path4417" class="prefix__st5" d="M382.6 197.3s-.6 1.1-1.1 1.3c-1.5.7-3.4.6-5.1.1-1-.3-2.5-.6-2.7-1.6-.1-.4.6-.6.7-.9.1-.3.2-.6.1-.9-.2-.5-.5-.9-1-1.1-.4-.2-.8-.2-1.2 0-.4.1-.7.4-.9.7-.2.4-.3.9-.1 1.4.1.5.8.6.9 1.1.1.5 0 1-.3 1.4-.6.8-1.6 1.1-2.5 1.5-.6.2-1.3.4-1.8.2-.4-.2-.9-1.1-.9-1.1"/><path id="prefix__path4419" class="prefix__st6" d="M372.2 197.3l1.6-.2"/><path id="prefix__path4895" class="prefix__st8" d="M388.2 217.7c4.2-.3 8.4-.8 12.4-1.9 1.1-.3 2.4-.5 3.3-1.3.4-.4.6-.9.7-1.4.1-.6-.1-1.2-.4-1.7-1.4-1.8-3.9-2.6-6.2-3.3-4-1.2-12.5-.9-12.5-.9s-8.5-.3-12.5.9c-2.2.6-4.7 1.5-6.2 3.3-.3.4-.5 1.1-.4 1.7.1.5.3 1 .7 1.4.9.8 2.2 1 3.3 1.3 4 1.1 8.2 1.6 12.4 1.9.9.1 2.7 0 2.7 0s1.8.1 2.7 0z"/><path id="prefix__path4903" class="prefix__st6" d="M387.4 139.9h-4"/><path id="prefix__path4911" class="prefix__st5" d="M400.3 154.3s1.3.1 1.8-.3.8-1.2.6-1.8c-.1-.5-1.1-1-1.1-1"/><path id="prefix__path4917" class="prefix__st6" d="M404.3 153.9l-2.2.1"/><path id="prefix__path4919" class="prefix__st6" d="M404.1 152.1l-1.4.2"/><path id="prefix__path4921" class="prefix__st6" d="M398.3 155l-.5.9"/><path id="prefix__path4925" class="prefix__st5" d="M406 165.9s-2.3-.9-3.5-1.3c-1-.3-2-.7-3-.9-1.2-.3-2.5-.5-3.7-.7-1.8-.2-3.6-.4-5.4-.5-1.6-.1-5-.1-5-.1s-3.3 0-5 .1c-1.8.1-3.6.3-5.4.5-1.3.2-2.5.4-3.7.7-1 .2-2 .6-3 .9-1.2.4-3.5 1.3-3.5 1.3"/><path id="prefix__path4359" class="prefix__st3" d="M382.7 154l1.5-1.2h1.2-1.3s-.7-.5-.9-.8c-.2-.3-.3-.8-.2-1.2.1-.5.4-1 .9-1.3.4-.3 1.5-.1 1.5-.1s1.1-.2 1.5.1c.4.3.7.8.9 1.3.1.4 0 .8-.2 1.2-.2.4-.9.8-.9.8h-1.3 1.2l1.5 1.2"/><path id="prefix__path4929" class="prefix__st3" d="M387 172.5l1.6-1.4s2.6 1.1 3.5 2.1c.2.3.5.7.4 1-.1 1.3-2 3.5-2 3.5l-3.8-1.6"/><path id="prefix__path4391" class="prefix__st3" d="M384.3 176.3s-1.2-1.1-1.5-1.9c-.1-.3-.1-.7.1-1 .2-.4 1.1-.9 1.1-.9s-1.4-.7-1.7-1.3c-.2-.4-.2-.8-.1-1.2.2-.6.6-1.1 1.1-1.6.6-.5 2.2-1 2.2-1s1.5.5 2.2 1c.5.4 1 .9 1.1 1.6.1.4.1.9-.1 1.2-.3.6-1.7 1.3-1.7 1.3s.9.5 1.1.9c.2.3.2.7.1 1-.2.8-1.5 1.9-1.5 1.9l-1.2.1-1.2-.1z"/><path id="prefix__path4933" class="prefix__st2" d="M411.1 192.8s-1 .8-1.6.8c-.8-.1-1.4-1-2.1-1.4-.9-.5-1.9-1-2.9-1.4-1.4-.6-2.8-1.1-4.2-1.5-1.8-.6-3.6-1.1-5.4-1.4-1.9-.3-3.8-.3-5.7-.2-1.3.1-3.8.7-3.8.7s1.1.4 1.5.7c.6.3 1.3.6 1.6 1.2.3.5.3 1.2 0 1.7-.3.6-.8 1-1.4 1.3-.5.2-1.7.1-1.7.1s1.3.1 1.8.5c.3.3.5.8.5 1.2 0 .6-.3 1.2-.8 1.6-.4.3-1.5.3-1.5.3s.6.1.8 0c.4-.1.7-.3 1-.6.3-.3.4-.7.4-1.1 0-.4 0-.9-.2-1.2-.2-.3-.9-.5-.9-.5l.9-.3c.4-.2 1.1-.9 1.1-.9s.6 0 .8.1c.6.2 1.1.6 1.4 1.2.4.5.7 1.2.6 1.8-.1.6-.6 1.1-1.1 1.5-.5.4-1.7.7-1.7.7s0 .4.2.6c.4.5 1.1.9 1.7 1.1 1 .3 2.1.2 3.1 0s1.8-.4 2.9-.9c.4-.2.7-1 .7-1s-.8-.6-.9-1.1c-.1-.5.2-1 .5-1.3.3-.3.8-.5 1.2-.5.6 0 1.3.3 1.6.8.3.5.2 1.1 0 1.6-.2.4-1.1 1-1.1 1 .2.9.5 1.4.9 1.7 1.2.7 2.4 1.1 3.6 1.4l.7-.5.5-.9s-.7-1-.7-1.6c0-.5.2-1 .5-1.4.2-.3.5-.7.9-.8.4-.1.8-.1 1.2 0 .6.2 1.5 1 1.5 1s.9-.7 1.2-1.2c.3-.5.7-1.6.7-1.6l1.7-1.3z"/><path id="prefix__path4937" class="prefix__st3" d="M408.1 174.3s.8.7 1.1 1.1c.3.4.5.9.6 1.4.1.5 0 1.6 0 1.6"/><path id="prefix__path4944" class="prefix__st5" d="M388.5 192s1 .2 1.4.5c.6.4 1.1 1 1.4 1.7.2.5.2 1 0 1.5-.3.7-1 1.1-1.6 1.4-.4.2-.8.3-1.3.3-.6-.1-1.5-.8-1.5-.8"/><path id="prefix__path4946" class="prefix__st3" d="M409.5 193.5l-1.1 2.3c1.1 0 1.5.6 1.8 1.2"/><path id="prefix__path4948" class="prefix__st3" d="M407.4 196.5s-1-1-1.7-1.2c-.4-.1-.9 0-1.3.3-.5.3-.8.9-.9 1.4-.1.5-.1 1 .1 1.5.2.4.4.8.8 1 .9.4 3-.4 3-.4"/><path id="prefix__path4950" class="prefix__st3" d="M408.5 195.6l-1.1.8.1 2.7"/><path id="prefix__path4952" class="prefix__st5" d="M388.4 197.3s.6 1.1 1.1 1.3c1.5.7 3.4.6 5.1.1 1-.3 2.5-.6 2.7-1.6.1-.4-.6-.6-.7-.9-.1-.3-.2-.6-.1-.9.2-.5.5-.9 1-1.1.4-.2.8-.2 1.2 0 .4.1.7.4.9.7.2.4.3.9.1 1.4-.1.5-.8.6-.9 1.1-.1.5 0 1 .3 1.4.6.8 1.6 1.1 2.5 1.5.6.2 1.3.4 1.8.2.4-.2.9-1.1.9-1.1"/><path id="prefix__path4954" class="prefix__st6" d="M398.8 197.3l-1.6-.2"/><path id="prefix__path4956" class="prefix__st3" d="M405.5 204.7s-.6-.5-1-.8c-.7-.5-1.5-.9-2.3-1.2-1.1-.4-2.2-.6-3.3-.9-1.3-.3-2.6-.6-3.9-.8-1.5-.2-3.1-.3-4.6-.3-1.7 0-5 .2-5 .2s-3.3-.2-5-.2c-1.5 0-3.1.1-4.6.3-1.3.2-2.6.5-3.9.8-1.1.3-2.3.5-3.3.9-.8.3-1.6.7-2.3 1.2-.3.2-1 .8-1 .8"/><path id="prefix__path4958" class="prefix__st5" d="M403.7 208.6s-1.4-.6-2.1-.8c-1.3-.5-2.5-.9-3.8-1.2-1.3-.3-2.5-.7-3.8-.9-2.8-.3-8.4 0-8.4 0s-5.6-.3-8.4 0c-1.3.1-2.6.5-3.8.9-1.3.4-2.6.8-3.8 1.2-.7.3-2.1.8-2.1.8"/><path id="prefix__path4843" class="prefix__st9" d="M358.8 244.8l7.9 6.9s-1.6 1.4-2.6 1.9c-1.9.9-4 1.4-6.1 1.4-1.5 0-2.9-.6-4.3-1.2-3-1.4-6.3-2.8-8.3-5.5-.7-1-1-2.2-.9-3.4 0-1.3 1.2-3.8 1.2-3.8s.5 1.7 1 2.3c.9 1.1 2.1 1.8 3.4 2.4.9.4 1.9.8 3 .8 1.3.1 2.7-.1 4-.6.6-.3 1.7-1.2 1.7-1.2z"/><path id="prefix__path4839" class="prefix__st9" d="M346.2 194s.6 1.3.8 1.9c.3 1.2.6 2.4.5 3.6 0 1.2-.3 2.4-.6 3.6-.5 1.7-1.2 3.4-2 5.1-.5 1-1.2 2-1.6 3-.8 1.7-1.3 3.4-2 5.2-.6 1.4-1.3 2.8-1.8 4.3-.6 2-.9 4-1.2 6-.2 1.7-.4 3.5-.4 5.3 0 2.1 0 4.2.4 6.3.4 2 1 4.1 1.9 5.9.7 1.5 1.7 2.9 2.9 4.1.9 1 2.1 1.9 3.2 2.6 1.1.6 2.3 1 3.5 1.5 1.6.6 4.9 1.8 4.9 1.8s-4.5-2.2-6.1-4.1c-1.3-1.6-2-3.6-2.5-5.5-.5-2.3-.5-4.7-.2-7 .3-2.5 1-5 1.8-7.4.8-2.5 1.9-5 3-7.4.7-1.8 1.6-3.5 2.3-5.3.8-2.1 1.7-4.2 2.4-6.4.4-1.3.9-2.6 1-4 .1-1.5-.1-3-.4-4.5-.5-2-1.1-4.2-2.3-5.9-.7-1-1.7-1.9-2.8-2.5-1.1-.6-2.4-1-3.6-.8-.5 0-1.1.6-1.1.6z"/><path id="prefix__path4831" class="prefix__st9" d="M356.4 207.1s.9-3.5 1-5.2c.1-1.5 0-3-.1-4.5-.2-1.7-.3-3.4-.9-5-.7-1.6-1.7-3.1-3-4.3-1.2-1.2-2.7-2.2-4.4-2.8-1.7-.7-3.6-.8-5.4-.9-1.6-.1-3.1 0-4.7.2-.9.1-1.8.3-2.6.5-.8.3-2.3 1.1-2.3 1.1l5.7 9.4s1.8-1.1 2.8-1.3c1.1-.3 2.2-.3 3.3-.2 1.1.1 2.3.2 3.3.6 1.3.6 2.4 1.5 3.4 2.6 1.2 1.2 2.2 2.6 2.9 4.2.6 1.5.7 3.1.9 4.6.1.3.1 1 .1 1z"/><path id="prefix__path4833" class="prefix__st10" d="M357.4 199.6s-1-3.2-2-4.5c-1.1-1.5-2.6-3-4.3-3.8-1.8-.9-6-1.2-6-1.2l2.2 4.1-3.8-.1-2-3.3-3.7 1.7-1.8-3 3.9-1.8-1.8-2.9 3.9-.4 1.7 2.8s3 0 4.5.3c1 .2 2 .6 2.9 1 .9.5 1.7 1.1 2.4 1.7.9.8 1.7 1.7 2.3 2.7.6 1 1.3 3.2 1.3 3.2l.3 3.5z"/><path id="prefix__path4835" class="prefix__st10" d="M334.1 186.2l-2.9 1.7-2.7 2.1 5.9 9.1 2.6-2 2.7-1.6-5.6-9.3z"/><path id="prefix__path4837" class="prefix__st10" d="M331.4 187.8l6.1 8.9"/><path id="prefix__path4841" class="prefix__st10" d="M345.3 224.4l3.4-7.1 3.7 1.5 1.5-3.7-3.7-1.7 1.9-4.1-2.7-1.2-2 3.9-3.7-1.5-1.6 3.8 3.6 1.5-3.3 7 2.9 1.6z"/><path id="prefix__path4845" class="prefix__st9" d="M369.7 215.7l3.1.7 4.9.8 2.3.2-.4 9.6s-.5 6.4-1.5 9.4c-.7 2.2-3 6.4-3 6.4l-1.5 2.3-8.7-7.5s1.5-2.1 2-3.3c.7-1.5 1.5-4.6 1.5-4.6l.9-5 .5-6.3-.1-2.7z"/><path id="prefix__path4847" class="prefix__st10" d="M372.8 222.3l3.5-.1v4l3.4.2-.6 4.1-3.1-.2s-.5 2.4-1 3.6c-.5 1.2-1.9 3.3-1.9 3.3l-3.7-.9s1.3-2.1 1.9-3.3c.5-1 1.1-3.2 1.1-3.2l-3.8-.5.7-3.9 3.5.2v-3.3z"/><path id="prefix__path4843_1_" class="prefix__st9" d="M412.2 244.8l-7.9 6.9s1.6 1.4 2.6 1.9c1.9.9 4 1.4 6.1 1.4 1.5 0 2.9-.6 4.3-1.2 3-1.4 6.3-2.8 8.3-5.5.7-1 1-2.2.9-3.4 0-1.3-1.2-3.8-1.2-3.8s-.5 1.7-1 2.3c-.9 1.1-2.1 1.8-3.4 2.4-.9.4-1.9.8-3 .8-1.3.1-2.7-.1-4-.6-.7-.3-1.7-1.2-1.7-1.2z"/><path id="prefix__path4839_1_" class="prefix__st9" d="M424.7 194s-.6 1.3-.8 1.9c-.3 1.2-.6 2.4-.5 3.6 0 1.2.3 2.4.6 3.6.5 1.7 1.2 3.4 2 5.1.5 1 1.2 2 1.6 3 .8 1.7 1.3 3.4 2 5.2.6 1.4 1.3 2.8 1.8 4.3.6 2 .9 4 1.2 6 .2 1.7.4 3.5.4 5.3 0 2.1 0 4.2-.4 6.3-.4 2-1 4.1-1.9 5.9-.7 1.5-1.7 2.9-2.9 4.1-.9 1-2.1 1.9-3.2 2.6-1.1.6-2.3 1-3.5 1.5-1.6.6-4.9 1.8-4.9 1.8s4.5-2.2 6.1-4.1c1.3-1.6 2-3.6 2.5-5.5.5-2.3.5-4.7.2-7-.3-2.5-1-5-1.8-7.4-.8-2.5-1.9-5-3-7.4-.7-1.8-1.6-3.5-2.3-5.3-.8-2.1-1.7-4.2-2.4-6.4-.4-1.3-.9-2.6-1-4-.1-1.5.1-3 .4-4.5.5-2 1.1-4.2 2.3-5.9.7-1 1.7-1.9 2.8-2.5 1.1-.6 2.4-1 3.6-.8.5 0 1.1.6 1.1.6z"/><path id="prefix__path4831_1_" class="prefix__st9" d="M414.6 207.1s-.9-3.5-1-5.2c-.1-1.5 0-3 .1-4.5.2-1.7.3-3.4.9-5 .7-1.6 1.7-3.1 3-4.3 1.2-1.2 2.7-2.2 4.4-2.8 1.7-.7 3.6-.8 5.4-.9 1.6-.1 3.1 0 4.7.2.9.1 1.8.3 2.6.5.8.3 2.3 1.1 2.3 1.1l-5.7 9.4s-1.8-1.1-2.8-1.3c-1.1-.3-2.2-.3-3.3-.2-1.1.1-2.3.2-3.3.6-1.3.6-2.4 1.5-3.4 2.6-1.2 1.2-2.2 2.6-2.9 4.2-.6 1.5-.7 3.1-.9 4.6-.1.3-.1 1-.1 1z"/><path id="prefix__path4833_1_" class="prefix__st10" d="M413.5 199.6s1-3.2 2-4.5c1.1-1.5 2.6-3 4.3-3.8 1.8-.9 6-1.2 6-1.2l-2.2 4.1 3.8-.1 2-3.3 3.7 1.7 1.8-3-3.9-1.8 1.8-2.9-3.9-.4-1.7 2.8s-3 0-4.5.3c-1 .2-2 .6-2.9 1-.9.5-1.7 1.1-2.4 1.7-.9.8-1.7 1.7-2.3 2.7-.6 1-1.3 3.2-1.3 3.2l-.3 3.5z"/><path id="prefix__path4835_1_" class="prefix__st10" d="M436.8 186.2l2.9 1.7 2.7 2.1-5.9 9.1-2.6-2-2.7-1.6 5.6-9.3z"/><path id="prefix__path4837_1_" class="prefix__st10" d="M439.5 187.8l-6.1 8.9"/><path id="prefix__path4841_1_" class="prefix__st10" d="M425.7 224.4l-3.4-7.1-3.7 1.5-1.5-3.7 3.7-1.7-1.9-4.1 2.7-1.2 2 3.9 3.7-1.5 1.6 3.8-3.6 1.5 3.3 7-2.9 1.6z"/><path id="prefix__path4845_1_" class="prefix__st9" d="M401.2 215.7l-3.1.7-4.9.8-2.3.2.4 9.6s.5 6.4 1.5 9.4c.7 2.2 3 6.4 3 6.4l1.5 2.3 8.7-7.5s-1.5-2.1-2-3.3c-.7-1.5-1.5-4.6-1.5-4.6l-.9-5-.5-6.3.1-2.7z"/><path id="prefix__path4847_1_" class="prefix__st10" d="M398.2 222.3l-3.5-.1v4l-3.4.2.6 4.1 3.1-.2s.5 2.4 1 3.6c.5 1.2 1.9 3.3 1.9 3.3l3.7-.9s-1.3-2.1-1.9-3.3c-.5-1-1.1-3.2-1.1-3.2l3.8-.5-.7-3.9-3.5.2v-3.3z"/><path id="prefix__path4894" class="prefix__st7" d="M322.2 199.1s.1-1 0-1.4c-.2-.7-.7-1.4-1.3-2-.5-.4-1.1-.8-1.8-.9-.7-.1-1.4 0-2.1.2-.5.1-1.3.6-1.3.6l-2.9 1.2-1.1 3.4s-.6 1.1-.8 1.7c-.2.6-.3 1.3-.1 2 .2.7.6 1.5 1.2 2 .5.5 1.3.7 2 .8.5 0 1.6-.4 1.6-.4.5-3.7 2.1-6.4 6.6-7.2z"/><path id="prefix__path4892" class="prefix__st7" d="M315.8 195.6l-7.4-3.3-.6.6 4.1 7.3s1.1-1.7 1.8-2.4c.6-.8 2.1-2.2 2.1-2.2z"/><path id="prefix__path4890-4" class="prefix__st10" d="M310.6 191.7c0 1.7-1.4 3.1-3.1 3.1s-3.1-1.4-3.1-3.1 1.4-3.1 3.1-3.1 3.1 1.4 3.1 3.1z"/><path id="prefix__path4896" class="prefix__st11" d="M322.2 199.1l19.4 16.6s-1 2.2-1.4 3.3c-.4 1-.7 2.1-1 3.1-.4 1.6-.8 4.8-.8 4.8l-22.6-20.7c.3-4.8 2.9-6.5 6.4-7.1z"/><path id="prefix__path4900" class="prefix__st7" d="M328.5 204.5c.7 5.4 1.4 10.7 3.1 16.1l6 5.5c-1.3-5.6-3.5-11.2-3.5-16.8l-5.6-4.8z"/><path id="prefix__path4898-0" class="prefix__st7" d="M337.5 212.2l-16.4-1.2 5.2 4.8 15 .6.2-.8-4-3.4z"/><path id="prefix__path4902" class="prefix__st11" d="M319.4 209.5l-4.7 5.2 2.9 2.8-4.5 4.4-2.9-2.9-4.9 5.2v6.5l11.2 8.7 3.8-2.9-.2-6.2 3 1.6 3-1.8.2 5.6-2.4-1.8-2.6 3.5-.3 6.2 8.4 7.5 10.2-9-.8-2.7-.4-2.4-.2-4.8.4-5.3-19.2-17.4z"/><path id="prefix__path4904" class="prefix__st11" d="M314.8 214.7l-.1 5.8 3-2.9-2.9-2.9z"/><path id="prefix__path4906-9" class="prefix__st12" d="M305.4 224.2l11.1 9.4 3.6-3.2-2.9-2.4 3.2-3 2.5 2.1 2.8-2.9 3.6 3.5-3.3 2.6 3.1 2.8-2.9 2.7"/><path id="prefix__path4908" d="M321.1 237.5l8.5 7.1 8.7-7.6" fill="none" stroke="#000" stroke-width=".641" stroke-linejoin="round" stroke-miterlimit="10"/><path id="prefix__path4910" class="prefix__st12" d="M316.3 233.5l.1 5.9"/><path id="prefix__path4912" class="prefix__st12" d="M320.3 225l.1 5.6"/><path id="prefix__path4914" class="prefix__st12" d="M322.9 227l.2 5"/><path id="prefix__path4916" class="prefix__st12" d="M325.7 224.3l.1 6.1"/><path id="prefix__path3296" class="prefix__st11" d="M392.8 261.6l9.3 8.6 2.1 6-12-1.3-6.8-6.8 7.4-6.5z"/><path id="prefix__path4918" class="prefix__st11" d="M350.2 223.7l35.1 31.2-7.3 6.5-31.5-27.3s.7-2.5 1.1-3.7c.6-1.8 1.3-3.5 2-5.3.3-.5.6-1.4.6-1.4z"/><path id="prefix__path4920" class="prefix__st7" d="M357.7 230.4c-4.3 1.6-6 4.3-7.3 7.1-1.2.1-2.4.1-2.8-.8 1-6.7 5.8-8.7 6.9-9.2 2.9-.5 2.4 1.8 3.2 2.9z"/><path id="prefix__path4922" class="prefix__st7" d="M363 235.4c-4.3 1.6-6 4.3-7.3 7.1-1.2.1-2.4.1-2.8-.8 1-6.7 5.8-8.7 6.9-9.2 2.9-.5 2.3 1.7 3.2 2.9z"/><path id="prefix__path4943" class="prefix__st11" d="M448.7 198.9s-.1-1 0-1.4c.2-.7.7-1.4 1.3-2 .5-.4 1.1-.8 1.8-.9.7-.1 1.4 0 2.1.2.5.1 1.3.6 1.3.6l2.9 1.2 1.1 3.4s.6 1.1.8 1.7c.2.6.3 1.3.1 2-.2.7-.6 1.5-1.2 2-.5.5-1.3.7-2 .8-.5 0-1.6-.4-1.6-.4-1-4.7-3.2-7-6.6-7.2z"/><path id="prefix__path4945" class="prefix__st11" d="M455.1 195.4l7.4-3.3.6.6-4.1 7.3s-1.1-1.7-1.8-2.4c-.6-.8-2.1-2.2-2.1-2.2z"/><path id="prefix__path4947" class="prefix__st14" d="M460.3 191.4c0 1.7 1.4 3.1 3.1 3.1s3.1-1.4 3.1-3.1c0-1.7-1.4-3.1-3.1-3.1s-3.1 1.5-3.1 3.1z"/><path id="prefix__path4949" class="prefix__st7" d="M448.7 198.9l-19.4 16.6s1 2.2 1.4 3.3c.4 1 .7 2.1 1 3.1.4 1.6.8 4.8.8 4.8l22.6-20.7c-.6-3.4-1.7-6.6-6.4-7.1z"/><path id="prefix__path4951" class="prefix__st11" d="M442.4 204.3c-.7 5.4-1.4 10.7-3.1 16.1l-6 5.5c1.3-5.6 3.5-11.2 3.5-16.8l5.6-4.8z"/><path id="prefix__path4953" class="prefix__st11" d="M433.4 212l16.4-1.2-5.2 4.8-15 .6-.2-.8 4-3.4z"/><path id="prefix__path4955" class="prefix__st7" d="M451.5 209.3l4.7 5.2-2.9 2.8 4.5 4.4 2.9-2.9 4.9 5.2v6.5l-11.2 8.7-3.8-2.9.2-6.2-3 1.6-3-1.8-.2 5.6 2.4-1.8 2.6 3.5.3 6.2-8.4 7.5-10.2-9 .8-2.7.4-2.4.2-4.8-.4-5.3 19.2-17.4z"/><path id="prefix__path4957" class="prefix__st7" d="M456.2 214.5l.1 5.8-3-2.9 2.9-2.9z"/><path id="prefix__path4959" class="prefix__st12" d="M465.5 224l-11.1 9.4-3.6-3.2 2.9-2.4-3.2-3-2.5 2.1-2.8-2.9-3.6 3.5 3.3 2.6-3.1 2.8 2.9 2.7"/><path id="prefix__path4961" class="prefix__st12" d="M449.8 237.3l-8.5 7.1-8.7-7.6"/><path id="prefix__path4963" class="prefix__st12" d="M454.6 233.3l-.1 5.9"/><path id="prefix__path4965" class="prefix__st12" d="M450.6 224.8l-.1 5.6"/><path id="prefix__path4967" class="prefix__st12" d="M448 226.8l-.2 5"/><path id="prefix__path4969" class="prefix__st12" d="M445.2 224l-.1 6.1"/><path id="prefix__path4971" class="prefix__st7" d="M420.7 223.7l-52.6 46.5-3.7 4.4 6.6 4.6 5.6-3.5 47.7-41.7s-.7-2.5-1.1-3.7c-.6-1.8-1.3-3.5-2-5.3-.1-.5-.5-1.3-.5-1.3z"/><path id="prefix__path4973" class="prefix__st11" d="M413.2 230.3c4.3 1.6 6 4.3 7.3 7.1 1.2.1 2.4.1 2.8-.8-1-6.7-5.8-8.7-6.9-9.2-2.9-.5-2.3 1.8-3.2 2.9z"/><path id="prefix__path4975" class="prefix__st11" d="M408 235.3c4.3 1.6 6 4.3 7.3 7.1 1.2.1 2.4.1 2.8-.8-1-6.7-5.8-8.7-6.9-9.2-2.9-.5-2.4 1.8-3.2 2.9z"/><path id="prefix__path3179" class="prefix__st14" d="M349.3 285.9s-3.8-.8-5 .3c-1 1-.4 4.1-.4 4.1l1.2 4.7 5.3 3.4s4 .5 5.2-.7c1-1.1.5-4.5.5-4.5l-3-4-3.8-3.3z"/><path id="prefix__path3195" class="prefix__st10" d="M352.9 309.7c0 13.8-11.1 24.9-24.9 24.9-13.8 0-24.9-11.1-24.9-24.9s11.1-24.9 24.9-24.9c13.7 0 24.9 11.2 24.9 24.9z"/><path id="prefix__path3210" class="prefix__st9" d="M337.3 310.8c4.3 0 7.8 3.5 7.8 7.8s-3.5 7.8-7.8 7.8-7.8-3.5-7.8-7.8l-2.7-.1c0 4.3-3.5 7.8-7.8 7.8s-7.8-3.5-7.8-7.8 3.5-7.8 7.8-7.8l-.1-1.5c-4.3 0-7.8-3.5-7.8-7.8s3.5-7.8 7.8-7.8 7.8 3.5 7.8 7.8l2.7-.2c0-4.3 3.5-7.8 7.8-7.8s7.8 3.5 7.8 7.8-3.5 7.8-7.8 7.8l.1 1.8z"/><path id="prefix__path3169" class="prefix__st10" d="M368.7 262.9c-5.2 7.3-14 14.1-16.6 17.4-2.7 3.3-4.4 6.4-.5 10.7 3.9 4.2 8.3 1.8 11.7-.5 3.5-2.3 9.5-9.9 18.2-15.6l-12.8-12z"/><path id="prefix__path3171" class="prefix__st15" d="M370.6 264.7c-.5 1.5-.1 3.2-.7 4.7s-2.7 3.8-2.7 3.8 1.3.2 2 .4c.9.4 2.3.5 2.5 1.5.2.8-.8 1.5-1.4 2.2-.6.6-1.3 1-2 1.4-1.2.7-2.4 1.5-3.7 1.7-1.7.3-4.8-2.1-5.1-.4-.1.7 1.4.3 2.1.6 1.5.7 2.2 2.3.9 3.4-.8.7-2.2.5-3.3.5-1.1.1-2.3-.5-3.2 0-1.1.6-2.4 2.1-1.9 3.2.6 1.1 2.8 1.1 3.8.4.8-.5.6-1.8.7-2.8v-.8"/><path id="prefix__path3177" class="prefix__st15" d="M371.7 275.1l6.8-3"/><path id="prefix__path3181" class="prefix__st14" d="M312.2 289.6c0 1.9-1.5 3.4-3.4 3.4s-3.4-1.5-3.4-3.4 1.5-3.4 3.4-3.4 3.4 1.5 3.4 3.4z"/><path id="prefix__path3181_1_" class="prefix__st14" d="M311 328.9c0 1.9-1.5 3.4-3.4 3.4s-3.4-1.5-3.4-3.4 1.5-3.4 3.4-3.4 3.4 1.5 3.4 3.4z"/><path id="prefix__path3181_2_" class="prefix__st14" d="M349.1 331.1c0 1.9-1.5 3.4-3.4 3.4s-3.4-1.5-3.4-3.4 1.5-3.4 3.4-3.4 3.4 1.5 3.4 3.4z"/><path id="prefix__path3187" class="prefix__st10" d="M330.8 303.2c0 1.5-1.3 2.8-2.8 2.8s-2.8-1.3-2.8-2.8c0-1.5 1.3-2.8 2.8-2.8s2.8 1.2 2.8 2.8z"/><path id="prefix__path3187_1_" class="prefix__st10" d="M324.1 309.7c0 1.5-1.3 2.8-2.8 2.8-1.5 0-2.8-1.3-2.8-2.8 0-1.5 1.3-2.8 2.8-2.8 1.6 0 2.8 1.3 2.8 2.8z"/><path id="prefix__path3187_2_" class="prefix__st10" d="M330.7 315.7c0 1.5-1.3 2.8-2.8 2.8-1.5 0-2.8-1.3-2.8-2.8s1.3-2.8 2.8-2.8 2.8 1.2 2.8 2.8z"/><path id="prefix__path3187_3_" class="prefix__st10" d="M337.6 309.7c0 1.5-1.3 2.8-2.8 2.8s-2.8-1.3-2.8-2.8c0-1.5 1.3-2.8 2.8-2.8s2.8 1.3 2.8 2.8z"/><path id="prefix__path3197" class="prefix__st9" d="M327.6 294.5c1-2.1 2.4-3.1 4.2-4.2-2.5-1.1-5.6-.9-8.4 0 1.8.9 3.1 2.3 4.2 4.2z"/><path id="prefix__path3197_1_" class="prefix__st9" d="M312.6 310c-2.1-1-3.1-2.4-4.2-4.2-1.1 2.5-.9 5.6 0 8.4.9-1.7 2.3-3 4.2-4.2z"/><path id="prefix__path3197_2_" class="prefix__st9" d="M343.2 309.3c2.1-1 3.1-2.4 4.2-4.2 1.1 2.5.9 5.6 0 8.4-.9-1.7-2.3-3-4.2-4.2z"/><path id="prefix__path3197_3_" class="prefix__st9" d="M328.4 324.8c1 2.1 2.4 3.1 4.2 4.2-2.5 1.1-5.6.9-8.4 0 1.8-.9 3.1-2.3 4.2-4.2z"/><path id="prefix__path3235" class="prefix__st7" d="M420.1 285.9s3.8-.8 5 .3c1 1 .4 4.1.4 4.1l-1.2 4.7-5.3 3.4s-4 .5-5.2-.7c-1-1.1-.5-4.5-.5-4.5l3-4 3.8-3.3z"/><path id="prefix__path3237" class="prefix__st14" d="M416.6 309.7c0 13.8 11.1 24.9 24.9 24.9 13.8 0 24.9-11.1 24.9-24.9 0-13.8-11.1-24.9-24.9-24.9-13.8 0-24.9 11.2-24.9 24.9z"/><path id="prefix__path3239-4" class="prefix__st8" d="M432.1 310.8c-4.3 0-7.8 3.5-7.8 7.8s3.5 7.8 7.8 7.8 7.8-3.5 7.8-7.8l2.7-.1c0 4.3 3.5 7.8 7.8 7.8s7.8-3.5 7.8-7.8-3.5-7.8-7.8-7.8l.1-1.5c4.3 0 7.8-3.5 7.8-7.8s-3.5-7.8-7.8-7.8-7.8 3.5-7.8 7.8l-2.7-.2c0-4.3-3.5-7.8-7.8-7.8s-7.8 3.5-7.8 7.8 3.5 7.8 7.8 7.8l-.1 1.8z"/><path id="prefix__path3241-8" class="prefix__st11" d="M400.8 262.9c5.2 7.3 14 14.1 16.6 17.4 2.7 3.3 4.4 6.4.5 10.7-3.9 4.2-8.3 1.8-11.7-.5-3.5-2.3-9.5-9.9-18.2-15.6l12.8-12z"/><path id="prefix__path3243" class="prefix__st12" d="M398.8 264.7c.5 1.5.1 3.2.7 4.7s2.7 3.8 2.7 3.8-1.3.2-2 .4c-.9.4-2.3.5-2.5 1.5-.2.8.8 1.5 1.4 2.2.6.6 1.3 1 2 1.4 1.2.7 2.4 1.5 3.7 1.7 1.7.3 4.8-2.1 5.1-.4.1.7-1.4.3-2.1.6-1.5.7-2.2 2.3-.9 3.4.8.7 2.2.5 3.3.5 1.1.1 2.3-.5 3.2 0 1.1.6 2.4 2.1 1.9 3.2-.6 1.1-2.8 1.1-3.8.4-.8-.5-.6-1.8-.7-2.8v-.8"/><path id="prefix__path3245-8" class="prefix__st12" d="M397.7 275.1l-6.8-3"/><path id="prefix__path3247-2" class="prefix__st10" d="M457.2 289.6c0 1.9 1.5 3.4 3.4 3.4s3.4-1.5 3.4-3.4-1.5-3.4-3.4-3.4c-1.8 0-3.4 1.5-3.4 3.4z"/><path id="prefix__use3249" class="prefix__st10" d="M458.4 328.9c0 1.9 1.5 3.4 3.4 3.4s3.4-1.5 3.4-3.4-1.5-3.4-3.4-3.4-3.4 1.5-3.4 3.4z"/><path id="prefix__use3251" class="prefix__st10" d="M420.3 331.1c0 1.9 1.5 3.4 3.4 3.4s3.4-1.5 3.4-3.4-1.5-3.4-3.4-3.4-3.4 1.5-3.4 3.4z"/><path id="prefix__path3253-4" class="prefix__st14" d="M438.7 303.2c0 1.5 1.3 2.8 2.8 2.8 1.5 0 2.8-1.3 2.8-2.8 0-1.5-1.3-2.8-2.8-2.8-1.6 0-2.8 1.2-2.8 2.8z"/><path id="prefix__use3255" class="prefix__st14" d="M445.3 309.7c0 1.5 1.3 2.8 2.8 2.8 1.5 0 2.8-1.3 2.8-2.8 0-1.5-1.3-2.8-2.8-2.8-1.5 0-2.8 1.3-2.8 2.8z"/><path id="prefix__use3257" class="prefix__st14" d="M438.8 315.7c0 1.5 1.3 2.8 2.8 2.8 1.5 0 2.8-1.3 2.8-2.8 0-1.5-1.3-2.8-2.8-2.8-1.6 0-2.8 1.2-2.8 2.8z"/><path id="prefix__use3259" class="prefix__st14" d="M431.9 309.7c0 1.5 1.3 2.8 2.8 2.8 1.5 0 2.8-1.3 2.8-2.8 0-1.5-1.3-2.8-2.8-2.8-1.6 0-2.8 1.3-2.8 2.8z"/><path id="prefix__path3261-5" class="prefix__st8" d="M441.8 294.5c-1-2.1-2.4-3.1-4.2-4.2 2.5-1.1 5.6-.9 8.4 0-1.8.9-3.1 2.3-4.2 4.2z"/><path id="prefix__path3197_4_" class="prefix__st9" d="M456.9 310c2.1-1 3.1-2.4 4.2-4.2 1.1 2.5.9 5.6 0 8.4-.9-1.7-2.3-3-4.2-4.2z"/><path id="prefix__path3197_5_" class="prefix__st9" d="M426.3 309.3c-2.1-1-3.1-2.4-4.2-4.2-1.1 2.5-.9 5.6 0 8.4.9-1.7 2.3-3 4.2-4.2z"/><path id="prefix__path3197_6_" class="prefix__st9" d="M441 324.8c-1 2.1-2.4 3.1-4.2 4.2 2.5 1.1 5.6.9 8.4 0-1.8-.9-3.1-2.3-4.2-4.2z"/><path id="prefix__path3667" class="prefix__st16" d="M376.3 383.9c3.7 2.3 7.2 2.1 10.4.1l-7.7-8.1"/><path id="prefix__path3669" class="prefix__st16" d="M382.9 380.4c3.8 1.1 6.1 1 9.3.1l-3.3-5.4"/><path id="prefix__path3655" class="prefix__st7" d="M390.3 366.6l-6.1-1.6s.1-6.8 3.9-6.2c3.2.5 2.4 7.8 2.2 7.8z"/><path id="prefix__path3659" class="prefix__st16" d="M392.1 380.5c-2-1.6-7-1.1-9.2-.1-.9 0-3.2-16 4.9-15.6 7.5.4 4.8 15.8 4.3 15.7z"/><path id="prefix__path3582" class="prefix__st16" d="M388.8 334.4c-.6.7.2 2.2 1 2.8.8.7 2.5 1.2 3 .5.6-.8-.3-2.3-1.1-3-.8-.6-2.4-1-2.9-.3z"/><path id="prefix__path3579-5" class="prefix__st16" d="M385.3 334.8c-.6.7.2 2.2 1 2.8.8.7 2.5 1.2 3 .5.6-.8-.3-2.3-1.1-3-.9-.6-2.4-1-2.9-.3z"/><path id="prefix__path3577-1" class="prefix__st16" d="M382.6 334.3c-.8.5-.6 2.1-.1 3 .5.9 1.9 2 2.7 1.5.8-.5.5-2.2 0-3.2-.5-.8-1.8-1.7-2.6-1.3z"/><path id="prefix__path3575" class="prefix__st16" d="M379.1 333.8c-.8.5-.6 2.1-.1 3 .5.9 1.9 2 2.7 1.5.8-.5.5-2.2 0-3.2-.5-.9-1.8-1.8-2.6-1.3z"/><path id="prefix__path3380" class="prefix__st16" d="M386.7 251.3c0 1-.9 1.4-2.5 1.4-1.7 0-2.5-.5-2.5-1.5s.8-1.3 2.5-1.3c1.6 0 2.5.4 2.5 1.4z"/><path id="prefix__path3383" class="prefix__st16" d="M387.9 254c0 1-.9 1.4-2.5 1.4-1.7 0-2.5-.5-2.5-1.5s.8-1.3 2.5-1.3c1.6.1 2.5.4 2.5 1.4z"/><path id="prefix__path3385" class="prefix__st16" d="M388.2 257.6c-.3 1-1.3 1.1-2.9.5-1.6-.6-2.2-1.3-1.8-2.2.3-1 1.2-1 2.7-.4 1.7.5 2.4 1.1 2 2.1z"/><path id="prefix__path3387" class="prefix__st16" d="M388.3 260.3c-.2 1-1.1 1.2-2.8.9-1.6-.3-2.3-1-2.1-2 .2-1 1-1.1 2.7-.8 1.6.3 2.4.8 2.2 1.9z"/><path id="prefix__path3389" class="prefix__st16" d="M389 263.4c-.2 1-1.1 1.2-2.8.9s-2.3-1-2.1-2c.2-1 1-1.1 2.7-.8s2.4.8 2.2 1.9z"/><path id="prefix__path3391" class="prefix__st16" d="M397.2 259.9c-.5-.1-.4-1-.3-1.5.2-.8 1.6-1.7 1.6-1.7s.3 1.1.2 1.6c-.3.7-.8 1.8-1.5 1.6z"/><path id="prefix__path3393" class="prefix__st16" d="M395.4 261.5c-.5-.1-.6-1.1-.5-1.6.2-.8 1.9-1.8 1.9-1.8s.3 1.2.1 1.7c-.3.7-.8 1.9-1.5 1.7z"/><path id="prefix__path3395" class="prefix__st16" d="M392.9 263.6c-.8-.2-.7-1.7-.5-2.5.2-.7.7-1.8 1.4-1.6.8.2.8 1.6.6 2.4-.2.8-.8 1.9-1.5 1.7z"/><path id="prefix__path3397" class="prefix__st16" d="M390.4 266c-.8-.2-1.2-1.5-1-2.3.2-.9 1-2 1.9-1.8.9.2 1.2 1.6.9 2.5-.2.7-1 1.7-1.8 1.6z"/><path id="prefix__path3399" class="prefix__st16" d="M398.2 265.7c-.6.5-1.9.1-2.4-.6-.6-.6-1-2-.3-2.6.7-.6 2 0 2.5.7s.8 2 .2 2.5z"/><path id="prefix__path3401" class="prefix__st16" d="M396.8 268.2c-.6.5-1.9.1-2.4-.6-.6-.6-1-2-.3-2.6.7-.6 2 0 2.5.7.5.6.9 1.9.2 2.5z"/><path id="prefix__path3403" class="prefix__st16" d="M394.5 270.2c-.6.5-1.9.1-2.4-.6-.6-.6-1-2-.3-2.6.7-.6 2 0 2.5.7.4.7.8 2 .2 2.5z"/><path id="prefix__path3405" class="prefix__st16" d="M393.6 271.5c-.2.8-1.5 1.1-2.3.9-.8-.2-1.9-1.1-1.7-2 .2-.8 1.7-1.1 2.5-.8.7.2 1.7 1.1 1.5 1.9z"/><path id="prefix__path3407" class="prefix__st16" d="M390 267.4c-.2 1-1.4 1.3-2.2 1.1-.8-.3-1.8-1.4-1.6-2.4.2-1 1.6-1.3 2.4-1 .7.2 1.6 1.3 1.4 2.3z"/><path id="prefix__path3409" class="prefix__st16" d="M378.5 259.6c1 .2 1 1.4.5 2.1-.5.8-2.1 1.7-3.1 1.5-1.1-.2-.9-1.5-.3-2.2.5-.7 1.9-1.6 2.9-1.4z"/><path id="prefix__path3411" class="prefix__st16" d="M373.7 257.9s1 .5 1.4.9c.4.5 1 .6.7 1.3-.3.7-1.1.5-1.6 0-.4-.4-.5-2.2-.5-2.2z"/><path id="prefix__path3413" class="prefix__st16" d="M381.9 261.8c.9.4.7 1.5 0 2.1-.7.6-2.4 1.2-3.4.8-1-.4-.6-1.7.2-2.3.6-.5 2.2-1 3.2-.6z"/><path id="prefix__path3415" class="prefix__st16" d="M384.6 263.8c.9.4.7 1.5 0 2.1-.7.6-2.4 1.2-3.4.8-1-.4-.6-1.7.2-2.3.6-.5 2.2-1 3.2-.6z"/><path id="prefix__path3417" class="prefix__st16" d="M385.5 265.7c.9.1 1.2 1.4.9 2.2-.3.9-1.4 2-2.4 1.9-1-.2-1.1-1.6-.8-2.4.3-.8 1.4-1.9 2.3-1.7z"/><path id="prefix__path3419" class="prefix__st16" d="M371.3 260.8c.8-.1 1.4 1.1 1.4 2 0 .9-.6 2.4-1.5 2.5-.9.1-1.4-1.3-1.4-2.2 0-.9.7-2.2 1.5-2.3z"/><path id="prefix__path3421" class="prefix__st16" d="M373.9 263.2c.8.2 1 1.5.7 2.4-.3.9-1.3 2.1-2.2 1.9-.8-.2-.9-1.7-.6-2.5.3-1 1.3-2 2.1-1.8z"/><path id="prefix__path3423" class="prefix__st16" d="M376.4 264.8c.9.2 1.1 1.9.8 2.9-.3 1.1-1.6 2.6-2.6 2.3-1-.2-1.1-2.1-.7-3.1.4-1 1.6-2.3 2.5-2.1z"/><path id="prefix__path3425" class="prefix__st16" d="M378.4 266.8c1-.1 1.7 1.4 1.8 2.5.1 1.1-.6 3-1.6 3.1-1 .1-1.8-1.5-1.8-2.7 0-1.1.7-2.7 1.6-2.9z"/><path id="prefix__path3427" class="prefix__st16" d="M380.8 268.5c.9-.1 1.6 1.1 1.6 2 .1 1-.5 2.5-1.4 2.6-.9.1-1.6-1.3-1.6-2.2-.1-.9.5-2.3 1.4-2.4z"/><path id="prefix__path3521" class="prefix__st16" d="M379.4 277.6c-.7.6-.1 2.2.5 2.9.7.8 2.3 1.6 2.9.9.7-.7.1-2.3-.7-3.1-.6-.7-2.1-1.3-2.7-.7z"/><path id="prefix__path3519" class="prefix__st16" d="M381 275.5c-.7.6-.1 2.2.5 2.9.7.8 2.3 1.6 2.9.9.7-.7.1-2.3-.7-3.1-.6-.7-2-1.3-2.7-.7z"/><path id="prefix__path3523" class="prefix__st16" d="M378 280.3c-.7.6-.1 2.2.5 2.9.7.8 2.3 1.6 2.9.9.7-.7.1-2.3-.7-3.1-.6-.7-2.1-1.4-2.7-.7z"/><path id="prefix__path3429" class="prefix__st16" d="M383.2 270.5c.9-.1 1.6 1.1 1.6 2 .1 1-.5 2.5-1.4 2.6-.9.1-1.6-1.3-1.6-2.2 0-.9.6-2.3 1.4-2.4z"/><path id="prefix__path3431" class="prefix__st16" d="M387.8 268.5c.8.4.6 1.8.1 2.6s-1.9 1.7-2.7 1.2c-.8-.5-.5-2 0-2.8.5-.7 1.8-1.5 2.6-1z"/><path id="prefix__path3433" class="prefix__st16" d="M386.7 272.7c.8.4.6 1.8.1 2.6s-1.9 1.7-2.7 1.2c-.8-.5-.5-2 0-2.8.6-.7 1.9-1.4 2.6-1z"/><path id="prefix__path3435" class="prefix__st16" d="M390.1 270.9c.7.5.5 2 .1 2.9-.5.9-1.7 1.8-2.5 1.3-.7-.5-.5-2.2 0-3 .5-.8 1.7-1.6 2.4-1.2z"/><path id="prefix__path3437" class="prefix__st16" d="M389.2 275.7c.5.7-.3 2.1-1 2.7-.8.6-2.3 1-2.8.3-.5-.8.4-2.2 1.2-2.8.7-.5 2.1-.9 2.6-.2z"/><path id="prefix__path3439-7" class="prefix__st16" d="M389.7 278.8c.5.7-.3 2.1-1 2.7-.8.6-2.3 1-2.8.3-.5-.8.4-2.2 1.2-2.8.7-.5 2.1-.9 2.6-.2z"/><path id="prefix__path3441" class="prefix__st16" d="M389.6 282.3c.5.7-.3 2.1-1 2.7-.8.6-2.3 1-2.8.3-.5-.8.4-2.2 1.2-2.8.8-.6 2.2-.9 2.6-.2z"/><path id="prefix__path3443-1" class="prefix__st16" d="M389.6 285.8c.5.7-.3 2.1-1 2.7-.8.6-2.3 1-2.8.3-.5-.8.4-2.2 1.2-2.8.7-.6 2.1-.9 2.6-.2z"/><path id="prefix__path3445-1" class="prefix__st16" d="M389.5 289c.5.7-.3 2.1-1 2.7-.8.6-2.3 1-2.8.3-.5-.8.4-2.2 1.2-2.8.7-.6 2.1-.9 2.6-.2z"/><path id="prefix__path3447-5" class="prefix__st16" d="M389.7 292.5c.5.7-.3 2.1-1 2.7-.8.6-2.3 1-2.8.3-.5-.8.4-2.2 1.2-2.8.7-.6 2.1-.9 2.6-.2z"/><path id="prefix__path3449-2" class="prefix__st16" d="M389.5 295.8c.5.7-.3 2.1-1 2.7-.8.6-2.3 1-2.8.3-.5-.8.4-2.2 1.2-2.8.7-.6 2.1-.9 2.6-.2z"/><path id="prefix__path3451-7" class="prefix__st16" d="M389.4 299.3c.5.7-.3 2.2-1.1 2.8-.9.7-2.5 1.1-3.1.3-.5-.8.4-2.3 1.3-2.9.8-.6 2.3-.9 2.9-.2z"/><path id="prefix__path3453-6" class="prefix__st16" d="M389.1 302.7c.7.6.1 2.2-.5 2.9-.7.8-2.3 1.6-2.9.9-.7-.7-.1-2.3.7-3.1.6-.7 2.1-1.3 2.7-.7z"/><path id="prefix__path3455" class="prefix__st16" d="M389.2 306.6c.7.6.1 2.2-.5 2.9-.7.8-2.3 1.6-2.9.9-.7-.7-.1-2.3.7-3.1.7-.7 2.1-1.3 2.7-.7z"/><path id="prefix__path3457" class="prefix__st16" d="M389.3 310.5c.7.6.1 2.2-.5 2.9-.7.8-2.3 1.6-2.9.9-.7-.7-.1-2.3.7-3.1.6-.7 2.1-1.3 2.7-.7z"/><path id="prefix__path3459-1" class="prefix__st16" d="M389.2 314.6c.7.6.1 2.2-.5 2.9-.7.8-2.3 1.6-2.9.9-.7-.7-.1-2.3.7-3.1.6-.7 2-1.3 2.7-.7z"/><path id="prefix__path3461" class="prefix__st16" d="M389.3 318.5c.7.6.1 2.2-.5 2.9-.7.8-2.3 1.6-2.9.9-.7-.7-.1-2.3.7-3.1.6-.7 2.1-1.3 2.7-.7z"/><path id="prefix__path3463" class="prefix__st16" d="M389.2 322.4c.7.6.1 2.2-.5 2.9-.7.8-2.3 1.6-2.9.9-.7-.7-.1-2.3.7-3.1.6-.7 2-1.3 2.7-.7z"/><path id="prefix__path3465" class="prefix__st16" d="M389.2 326.3c.7.6.1 2.2-.5 2.9-.7.8-2.3 1.6-2.9.9-.7-.7-.1-2.3.7-3.1.7-.7 2.1-1.3 2.7-.7z"/><path id="prefix__path3467" class="prefix__st16" d="M389.2 330.3c.7.6.1 2.2-.5 2.9-.7.8-2.3 1.6-2.9.9-.7-.7-.1-2.3.7-3.1.7-.7 2.1-1.3 2.7-.7z"/><path id="prefix__path3469-4" class="prefix__st16" d="M389.1 334.3c.7.6.1 2.2-.5 2.9-.7.8-2.3 1.6-2.9.9-.7-.7-.1-2.3.7-3.1.6-.7 2-1.3 2.7-.7z"/><path id="prefix__path3471-2" class="prefix__st16" d="M389.3 337.9c.7.6.1 2.2-.5 2.9-.7.8-2.3 1.6-2.9.9-.7-.7-.1-2.3.7-3.1.6-.7 2.1-1.3 2.7-.7z"/><path id="prefix__path3473" class="prefix__st16" d="M389.3 341.7c.7.6.1 2.2-.5 2.9-.7.8-2.3 1.6-2.9.9-.7-.7-.1-2.3.7-3.1.6-.7 2.1-1.3 2.7-.7z"/><path id="prefix__path3475-3" class="prefix__st16" d="M389.2 345.8c.7.6.1 2.2-.5 2.9-.7.8-2.3 1.6-2.9.9-.7-.7-.1-2.3.7-3.1.6-.7 2-1.3 2.7-.7z"/><path id="prefix__path3477-2" class="prefix__st16" d="M389.2 349.8c.7.6.1 2.2-.5 2.9-.7.8-2.3 1.6-2.9.9-.7-.7-.1-2.3.7-3.1.6-.7 2-1.3 2.7-.7z"/><path id="prefix__path3479" class="prefix__st16" d="M379.6 352.7c-.7.6-.1 2.2.5 2.9.7.8 2.3 1.6 2.9.9.7-.7.1-2.3-.7-3.1-.6-.7-2-1.3-2.7-.7z"/><path id="prefix__path3481" class="prefix__st16" d="M379.8 348.5c-.7.6-.1 2.2.5 2.9.7.8 2.3 1.6 2.9.9.7-.7.1-2.3-.7-3.1-.7-.7-2.1-1.3-2.7-.7z"/><path id="prefix__path3483" class="prefix__st16" d="M379.8 344.7c-.7.6-.1 2.2.5 2.9.7.8 2.3 1.6 2.9.9.7-.7.1-2.3-.7-3.1-.7-.7-2.1-1.3-2.7-.7z"/><path id="prefix__path3485-2" class="prefix__st16" d="M379.8 340.6c-.7.6-.1 2.2.5 2.9.7.8 2.3 1.6 2.9.9.7-.7.1-2.3-.7-3.1-.7-.7-2.1-1.3-2.7-.7z"/><path id="prefix__path3487" class="prefix__st16" d="M379.9 336.2c-.7.6-.1 2.2.5 2.9.7.8 2.3 1.6 2.9.9.7-.7.1-2.3-.7-3.1-.6-.7-2.1-1.3-2.7-.7z"/><path id="prefix__path3489-1" class="prefix__st16" d="M379.9 332c-.7.6-.1 2.2.5 2.9.7.8 2.3 1.6 2.9.9.7-.7.1-2.3-.7-3.1-.6-.7-2.1-1.3-2.7-.7z"/><path id="prefix__path3491-6" class="prefix__st16" d="M380.1 328.1c-.7.6-.1 2.2.5 2.9.7.8 2.3 1.6 2.9.9.7-.7.1-2.3-.7-3.1-.6-.7-2.1-1.3-2.7-.7z"/><path id="prefix__path3493-8" class="prefix__st16" d="M380.2 324.3c-.7.6-.1 2.2.5 2.9.7.8 2.3 1.6 2.9.9.7-.7.1-2.3-.7-3.1-.6-.7-2-1.3-2.7-.7z"/><path id="prefix__path3495-5" class="prefix__st16" d="M380.2 320.5c-.7.6-.1 2.2.5 2.9.7.8 2.3 1.6 2.9.9.7-.7.1-2.3-.7-3.1-.6-.7-2-1.3-2.7-.7z"/><path id="prefix__path3497-7" class="prefix__st16" d="M380.1 316.6c-.7.6-.1 2.2.5 2.9.7.8 2.3 1.6 2.9.9.7-.7.1-2.3-.7-3.1-.6-.7-2.1-1.3-2.7-.7z"/><path id="prefix__path3499-6" class="prefix__st16" d="M380 312.9c-.7.6-.1 2.2.5 2.9.7.8 2.3 1.6 2.9.9.7-.7.1-2.3-.7-3.1-.6-.7-2-1.3-2.7-.7z"/><path id="prefix__path3501-1" class="prefix__st16" d="M380.3 309.1c-.7.6-.1 2.2.5 2.9.7.8 2.3 1.6 2.9.9.7-.7.1-2.3-.7-3.1-.6-.7-2.1-1.3-2.7-.7z"/><path id="prefix__path3503-8" class="prefix__st16" d="M380.3 305.2c-.7.6-.1 2.2.5 2.9.7.8 2.3 1.6 2.9.9.7-.7.1-2.3-.7-3.1-.6-.7-2.1-1.4-2.7-.7z"/><path id="prefix__path3505-9" class="prefix__st16" d="M379.8 301.9c-.7.6-.1 2.2.5 2.9.7.8 2.3 1.6 2.9.9.7-.7.1-2.3-.7-3.1-.6-.7-2-1.3-2.7-.7z"/><path id="prefix__path3507-2" class="prefix__st16" d="M380.3 298.6c-.7.6-.1 2.2.5 2.9.7.8 2.3 1.6 2.9.9.7-.7.1-2.3-.7-3.1-.6-.7-2.1-1.4-2.7-.7z"/><path id="prefix__path3509-7" class="prefix__st16" d="M379.8 294.5c-.7.6-.1 2.2.5 2.9.7.8 2.3 1.6 2.9.9.7-.7.1-2.3-.7-3.1-.6-.7-2-1.4-2.7-.7z"/><path id="prefix__path3511-9" class="prefix__st16" d="M380.5 290.8c-.7.6-.1 2.2.5 2.9.7.8 2.3 1.6 2.9.9.7-.7.1-2.3-.7-3.1-.6-.7-2.1-1.3-2.7-.7z"/><path id="prefix__path3513" class="prefix__st16" d="M380.3 286.8c-.7.6-.1 2.2.5 2.9.7.8 2.3 1.6 2.9.9.7-.7.1-2.3-.7-3.1-.6-.7-2.1-1.3-2.7-.7z"/><path id="prefix__path3515-5" class="prefix__st16" d="M380.2 282.7c-.7.6-.1 2.2.5 2.9.7.8 2.3 1.6 2.9.9.7-.7.1-2.3-.7-3.1-.6-.7-2-1.3-2.7-.7z"/><path id="prefix__path3517" class="prefix__st16" d="M380.3 278.9c-.7.6-.1 2.2.5 2.9.7.8 2.3 1.6 2.9.9.7-.7.1-2.3-.7-3.1-.6-.7-2.1-1.4-2.7-.7z"/><path id="prefix__path3525" class="prefix__st16" d="M377.4 282.7c-.8.3-.9 2-.6 2.9.4 1 1.5 2.3 2.4 1.9.9-.4.9-2.1.5-3.1-.4-.9-1.5-2-2.3-1.7z"/><path id="prefix__path3527-4" class="prefix__st16" d="M375.3 285.6c-.8.3-.9 2-.6 2.9.4 1 1.5 2.3 2.4 1.9.9-.4.9-2.1.5-3.1-.3-.9-1.4-2-2.3-1.7z"/><path id="prefix__path3529-3" class="prefix__st16" d="M373.9 288.8c-.9.2-1.2 1.8-1 2.8.2 1.1 1.1 2.5 2.1 2.3.9-.2 1.2-2 1-3-.3-1-1.3-2.3-2.1-2.1z"/><path id="prefix__path3531-1" class="prefix__st16" d="M371.9 291.8c-.9.2-1.2 1.8-1 2.8.2 1.1 1.1 2.5 2.1 2.3.9-.2 1.2-2 1-3-.3-1-1.2-2.3-2.1-2.1z"/><path id="prefix__path3533-2" class="prefix__st16" d="M370.3 295c-.9 0-1.5 1.5-1.5 2.5 0 1.1.7 2.7 1.6 2.6 1 0 1.6-1.7 1.5-2.8 0-.9-.7-2.4-1.6-2.3z"/><path id="prefix__path3535-3" class="prefix__st16" d="M368.3 298.6c-.9 0-1.5 1.5-1.5 2.5 0 1.1.7 2.7 1.6 2.6 1 0 1.6-1.7 1.5-2.8 0-.9-.7-2.3-1.6-2.3z"/><path id="prefix__path3537" class="prefix__st16" d="M366 302.1c-.9 0-1.5 1.5-1.5 2.5 0 1.1.7 2.7 1.6 2.6 1 0 1.6-1.7 1.5-2.8 0-.9-.7-2.4-1.6-2.3z"/><path id="prefix__path3539-3" class="prefix__st16" d="M363.6 305c-.9 0-1.5 1.5-1.5 2.5 0 1.1.7 2.7 1.6 2.6 1 0 1.6-1.7 1.5-2.8 0-.9-.7-2.3-1.6-2.3z"/><path id="prefix__path3541" class="prefix__st16" d="M361.1 307.7c-.9 0-1.5 1.5-1.5 2.5 0 1.1.7 2.7 1.6 2.6 1 0 1.6-1.7 1.5-2.8 0-.9-.7-2.3-1.6-2.3z"/><path id="prefix__path3543" class="prefix__st16" d="M358.4 310c-.9 0-1.5 1.5-1.5 2.5 0 1.1.7 2.7 1.6 2.6 1 0 1.6-1.7 1.5-2.8 0-.9-.7-2.4-1.6-2.3z"/><path id="prefix__path3545" class="prefix__st16" d="M355.8 312.4c-.9 0-1.5 1.5-1.5 2.5 0 1.1.7 2.7 1.6 2.6 1 0 1.6-1.7 1.5-2.8 0-.9-.7-2.4-1.6-2.3z"/><path id="prefix__path3547-4" class="prefix__st16" d="M352.8 313.6l-1 4s.6 1.4 1.2 1.3c1.1-.1 1.3-1.7 1.5-2.8.1-1.6-1.7-2.5-1.7-2.5z"/><path id="prefix__path3549-1" class="prefix__st16" d="M344.2 316.9c-.8-.4-2.1.6-2.6 1.5s-.7 2.6.1 3.1c.8.4 2.2-.7 2.7-1.7.5-.9.6-2.5-.2-2.9z"/><path id="prefix__path3551-1" class="prefix__st16" d="M343 320.1c-.8-.3-2 .8-2.4 1.8-.4 1-.4 2.7.5 3 .9.3 2.1-1 2.5-2 .4-.9.3-2.5-.6-2.8z"/><path id="prefix__path3553-3" class="prefix__st16" d="M344.1 323.1c-.9-.2-1.9 1-2.2 2-.3 1-.1 2.7.8 3 .9.2 2-1.2 2.3-2.2.2-1 0-2.6-.9-2.8z"/><path id="prefix__path3555-8" class="prefix__st16" d="M346.9 324.3c-.9-.3-1.9 1-2.3 1.9-.3 1-.2 2.7.7 3 .9.3 2-1.1 2.3-2.1.4-.9.2-2.5-.7-2.8z"/><path id="prefix__path3557-7" class="prefix__st16" d="M348.8 324.8c-.9.2-1.2 1.8-1 2.8.2 1.1 1.2 2.5 2.1 2.2.9-.2 1.2-2 .9-3-.2-.9-1.2-2.2-2-2z"/><path id="prefix__path3559-4" class="prefix__st16" d="M352 326c-.9.2-1.2 1.8-1 2.8.2 1.1 1.2 2.5 2.1 2.2.9-.2 1.2-2 .9-3-.2-.9-1.1-2.2-2-2z"/><path id="prefix__path3561-2" class="prefix__st16" d="M354.5 328.1c-.8.5-.6 2.1-.1 3 .5.9 1.9 2 2.7 1.5.8-.5.5-2.2 0-3.2-.6-.9-1.9-1.8-2.6-1.3z"/><path id="prefix__path3563" class="prefix__st16" d="M358.1 329.5c-.8.5-.6 2.1-.1 3 .5.9 1.9 2 2.7 1.5.8-.5.5-2.2 0-3.2-.5-.8-1.8-1.7-2.6-1.3z"/><path id="prefix__path3565" class="prefix__st16" d="M361.6 330.1c-.8.5-.6 2.1-.1 3 .5.9 1.9 2 2.7 1.5.8-.5.5-2.2 0-3.2-.6-.9-1.9-1.8-2.6-1.3z"/><path id="prefix__path3567" class="prefix__st16" d="M365.4 331c-.8.5-.6 2.1-.1 3 .5.9 1.9 2 2.7 1.5.8-.5.5-2.2 0-3.2-.6-.8-1.9-1.7-2.6-1.3z"/><path id="prefix__path3569" class="prefix__st16" d="M368.8 331.5c-.8.5-.6 2.1-.1 3 .5.9 1.9 2 2.7 1.5.8-.5.5-2.2 0-3.2-.5-.8-1.8-1.7-2.6-1.3z"/><path id="prefix__path3571" class="prefix__st16" d="M372.2 332.2c-.8.5-.6 2.1-.1 3 .5.9 1.9 2 2.7 1.5.8-.5.5-2.2 0-3.2-.5-.8-1.8-1.7-2.6-1.3z"/><path id="prefix__path3573" class="prefix__st16" d="M375.7 333.2c-.8.5-.6 2.1-.1 3 .5.9 1.9 2 2.7 1.5.8-.5.5-2.2 0-3.2-.6-.9-1.9-1.8-2.6-1.3z"/><path id="prefix__path3584" class="prefix__st16" d="M392.3 333.7c-.6.7.2 2.2 1 2.8.8.7 2.5 1.2 3 .5.6-.8-.3-2.3-1.1-3-.8-.6-2.3-1-2.9-.3z"/><path id="prefix__path3586" class="prefix__st16" d="M395.7 333.5c-.4.8.5 2.1 1.4 2.6.9.6 2.6.8 3.1 0s-.6-2.2-1.6-2.8c-.9-.4-2.5-.6-2.9.2z"/><path id="prefix__path3588" class="prefix__st16" d="M399.5 332.8c-.4.8.5 2.1 1.4 2.6.9.6 2.6.8 3.1 0s-.6-2.2-1.6-2.8c-.9-.4-2.4-.5-2.9.2z"/><path id="prefix__path3590" class="prefix__st16" d="M402.8 331.9c-.4.8.7 2.1 1.6 2.5 1 .5 2.7.6 3.1-.3.4-.9-.8-2.2-1.8-2.6-.9-.4-2.5-.5-2.9.4z"/><path id="prefix__path3592" class="prefix__st16" d="M406.5 330.8c-.4.8.7 2.1 1.6 2.5 1 .5 2.7.6 3.1-.3.4-.9-.8-2.2-1.8-2.6-1-.4-2.6-.4-2.9.4z"/><path id="prefix__path3594" class="prefix__st16" d="M410.1 329.6c-.3.8.8 2 1.8 2.4 1 .4 2.7.4 3-.5.3-.9-1-2.1-2-2.5-.9-.3-2.5-.2-2.8.6z"/><path id="prefix__path3596" class="prefix__st16" d="M413.8 328.4c-.3.8.8 2 1.8 2.4 1 .4 2.7.4 3-.5.3-.9-1-2.1-2-2.5-.9-.3-2.5-.2-2.8.6z"/><path id="prefix__path3598" class="prefix__st16" d="M417.3 327c-.3.8.8 2 1.8 2.4 1 .4 2.7.4 3-.5.3-.9-1-2.1-2-2.5-.9-.3-2.5-.3-2.8.6z"/><path id="prefix__path3600" class="prefix__st16" d="M421.1 325.4c-.3.8.8 2 1.8 2.4 1 .4 2.7.4 3-.5.3-.9-1-2.1-2-2.5-.9-.3-2.5-.2-2.8.6z"/><path id="prefix__path3602" class="prefix__st16" d="M425 324.1c-.3.8.8 2 1.8 2.4 1 .4 2.7.4 3-.5.3-.9-1-2.1-2-2.5-.9-.3-2.5-.2-2.8.6z"/><path id="prefix__path3604" class="prefix__st16" d="M425.4 321.1c-.3.8.8 2 1.8 2.4 1 .4 2.7.4 3-.5.3-.9-1-2.1-2-2.5-.9-.3-2.5-.2-2.8.6z"/><path id="prefix__path3606" class="prefix__st16" d="M424.6 320.2s2.6.4 2.8-.6c.3-1.2-3-2.4-3-2.4l.2 3z"/><path id="prefix__path3608" class="prefix__st16" d="M415.1 316.1c.3 1.2 2.9 2.2 2.9 2.2l-1.3-5.3c-1.1 0-1.8 2.3-1.6 3.1z"/><path id="prefix__path3610" class="prefix__st16" d="M414.8 311.8c-.8-.3-2 .8-2.4 1.7-.4 1-.5 2.7.4 3.1.9.3 2.1-.9 2.5-1.9.4-1 .4-2.6-.5-2.9z"/><path id="prefix__path3612" class="prefix__st16" d="M411.9 309.4c-.9 0-1.7 1.4-1.8 2.4-.1 1.1.4 2.7 1.4 2.8 1 0 1.7-1.5 1.8-2.6.1-1-.5-2.5-1.4-2.6z"/><path id="prefix__path3614" class="prefix__st16" d="M409.4 306.8c-.9 0-1.7 1.4-1.8 2.4-.1 1.1.4 2.7 1.4 2.8 1 0 1.7-1.5 1.8-2.6 0-1.1-.6-2.5-1.4-2.6z"/><path id="prefix__path3616" class="prefix__st16" d="M407 303.8c-.9 0-1.7 1.4-1.8 2.4-.1 1.1.4 2.7 1.4 2.8 1 0 1.7-1.5 1.8-2.6 0-1-.6-2.5-1.4-2.6z"/><path id="prefix__path3618" class="prefix__st16" d="M404.5 301.3c-.9 0-1.7 1.4-1.8 2.4-.1 1.1.4 2.7 1.4 2.8 1 0 1.7-1.5 1.8-2.6 0-1.1-.5-2.5-1.4-2.6z"/><path id="prefix__path3620" class="prefix__st16" d="M402.5 297.9c-.9 0-1.7 1.4-1.8 2.4-.1 1.1.4 2.7 1.4 2.8 1 0 1.7-1.5 1.8-2.6.1-1.1-.5-2.6-1.4-2.6z"/><path id="prefix__path3622" class="prefix__st16" d="M400.4 294.8c-.9 0-1.7 1.4-1.8 2.4-.1 1.1.4 2.7 1.4 2.8 1 0 1.7-1.5 1.8-2.6 0-1.1-.6-2.6-1.4-2.6z"/><path id="prefix__path3624" class="prefix__st16" d="M398.4 291.5c-.9 0-1.7 1.4-1.8 2.4-.1 1.1.4 2.7 1.4 2.8 1 0 1.7-1.5 1.8-2.6 0-1.1-.5-2.6-1.4-2.6z"/><path id="prefix__path3626" class="prefix__st16" d="M396.6 287.7c-.9 0-1.7 1.4-1.8 2.4-.1 1.1.4 2.7 1.4 2.8 1 0 1.7-1.5 1.8-2.6 0-1.1-.5-2.6-1.4-2.6z"/><path id="prefix__path3628" class="prefix__st16" d="M394.7 284.2c-.9 0-1.7 1.4-1.8 2.4-.1 1.1.4 2.7 1.4 2.8 1 0 1.7-1.5 1.8-2.6 0-1-.5-2.5-1.4-2.6z"/><path id="prefix__path3630" class="prefix__st16" d="M393.1 280.2c-.9 0-1.7 1.4-1.8 2.4-.1 1.1.4 2.7 1.4 2.8 1 0 1.7-1.5 1.8-2.6 0-1.1-.5-2.6-1.4-2.6z"/><path id="prefix__path3632" class="prefix__st16" d="M389.5 276s-.3 5.1 1.5 5.5c1.2.2 2.1-2.9 2.1-2.9l-3.6-2.6z"/><path id="prefix__path3634" class="prefix__st10" d="M384.2 359.3c0 1.4-1.1 2.5-2.5 2.5s-2.5-1.1-2.5-2.5 1.1-2.5 2.5-2.5 2.5 1.1 2.5 2.5z"/><path id="prefix__path3636" class="prefix__st10" d="M389.8 356.3c0 1.4-1.1 2.5-2.5 2.5s-2.5-1.1-2.5-2.5 1.1-2.5 2.5-2.5c1.4.1 2.5 1.2 2.5 2.5z"/><path id="prefix__path3638" class="prefix__st7" d="M384.8 367.3l-6.3-.1s-.8-5.1 3.1-5.3c3.2-.2 3.3 5.4 3.2 5.4z"/><path id="prefix__path3657" class="prefix__st16" d="M386.7 384c-.9-1.2-7.7-1.7-10.4-.1-1 0-3.6-18 5.6-17.6 8.4.5 5.4 17.8 4.8 17.7z"/><path id="prefix__path3661" class="prefix__st16" d="M378.4 373.1c-1.2 4.1-.9 7.3.6 9.8"/><path id="prefix__path3663" class="prefix__st16" d="M380.8 373.3c-.3 3.5-.2 6.8 1 9.5"/><path id="prefix__path3665" class="prefix__st16" d="M389.8 369.6c1.4 3.4 2.2 6.4.9 10.3"/><path id="prefix__path4526" d="M329.6 244.5l-.3 6.6" fill="#e6e6e6" stroke="#000" stroke-width=".641"/><path id="prefix__path5296" d="M441.3 244.3l.3 6.5" fill="#e6e6e6" stroke="#000" stroke-width=".641" stroke-linejoin="round"/><path id="prefix__path4456-7" class="prefix__st5" d="M383.9 172.5l1.6-.5 1.6.5"/><path id="prefix__path4405" class="prefix__st2" d="M359.9 192.8s1 .8 1.6.8c.8-.1 1.4-1 2.1-1.4.9-.5 1.9-1 2.9-1.4 1.4-.6 2.8-1.1 4.2-1.5 1.8-.6 3.6-1.1 5.4-1.4 1.9-.3 3.8-.3 5.7-.2 1.3.1 3.8.7 3.8.7s-1.1.4-1.5.7c-.6.3-1.3.6-1.6 1.2-.3.5-.3 1.2 0 1.7.3.6.8 1 1.4 1.3.5.2 1.7.1 1.7.1s-1.3.1-1.8.5c-.3.3-.5.8-.5 1.2 0 .6.3 1.2.8 1.6.4.3 1.5.3 1.5.3s-.6.1-.8 0c-.4-.1-.7-.3-1-.6-.3-.3-.4-.7-.4-1.1 0-.4 0-.9.2-1.2.2-.3.9-.5.9-.5l-.9-.3c-.4-.2-1.1-.9-1.1-.9s-.6 0-.8.1c-.6.2-1.1.6-1.4 1.2-.4.5-.7 1.2-.6 1.8.1.6.6 1.1 1.1 1.5.5.4 1.7.7 1.7.7s0 .4-.2.6c-.4.5-1.1.9-1.7 1.1-1 .3-2.1.2-3.1 0s-1.8-.4-2.9-.9c-.4-.2-.7-1-.7-1s.8-.6.9-1.1c.1-.5-.2-1-.5-1.3-.3-.3-.8-.5-1.2-.5-.6 0-1.3.3-1.6.8-.3.5-.2 1.1 0 1.6.2.4 1.1 1 1.1 1-.2.9-.5 1.4-.9 1.7-1.2.7-2.4 1.1-3.6 1.4l-.7-.5-.5-.9s.7-1 .7-1.6c0-.5-.2-1-.5-1.4-.2-.3-.5-.7-.9-.8-.4-.1-.8-.1-1.2 0-.6.2-1.5 1-1.5 1s-.9-.7-1.2-1.2c-.3-.5-.7-1.6-.7-1.6l-1.7-1.3z"/></svg>
