<svg xmlns="http://www.w3.org/2000/svg" height="512" width="512" viewBox="0 0 512 512"><style>.prefix__st2{fill:#fff}.prefix__st3{fill:#cf142b}.prefix__st6{fill:none;stroke:#f7c600;stroke-width:1.288}.prefix__st7,.prefix__st8{stroke:#000;stroke-width:.805}.prefix__st7{fill-rule:evenodd;clip-rule:evenodd;fill:#f7c600}.prefix__st8{fill:none}.prefix__st21,.prefix__st22{fill-rule:evenodd;clip-rule:evenodd;fill:#f7c600;stroke:#000}.prefix__st22{fill:#ffc6b5}.prefix__st24{fill:none;stroke:#000}</style><path d="M0 0h512v512H0V0z" fill="#006"/><defs><path id="prefix__SVGID_3_" d="M0 0h512v256H0z"/></defs><clipPath id="prefix__SVGID_1_"><use href="#prefix__SVGID_3_" overflow="visible"/></clipPath><g clip-path="url(#prefix__SVGID_1_)"><path class="prefix__st2" d="M500.6 278.9L256 156.6 11.4 278.9l-22.8-45.8L198.8 128-11.4 22.9l22.8-45.8L256 99.4 500.6-22.9l22.8 45.8L313.2 128l210.2 105.1z"/><path class="prefix__st3" d="M7.6 271.3L256 147.1V128L0 256zM0 19.1L217.8 128H256L0 0zM473.8 0L256 108.9V128L512 0zM294.2 128H256l256 128 7.6-15.3z"/><path class="prefix__st2" d="M298.7 298.7h-85.4v-128H0V85.3h213.3V0h85.4v85.3h298.6v85.4H298.7z"/><path class="prefix__st3" d="M281.6 298.7h-51.2V153.6H0v-51.2h230.4V0h51.2v102.4h315.7v51.2H281.6z"/></g><g><path d="M256.4 193.6l213.7-.8-.4 190.3s7.5 28.9-89.6 72.9c34.9-3.6 72.9-40.8 72.9-40.8s15.5-19.8 23-8.7c7.5 11.1 14.7 16.6 20.2 21 5.5 4.4 9.9 16.3 1.6 25s-21.4 9.9-25-.8c-5.5 2.8-39.6 44-109.4 46-71-1.2-109.8-46.4-109.8-46.4s-9.5 15.1-23 3.2c-13.1-15.5-3.2-25.4-3.2-25.4s11.1-6.3 14.3-10.7c5.2-5.9 6.7-13.9 15.5-13.9 10.3.8 14.3 9.1 14.3 9.1s35.7 37.7 74.1 42.4c-86.8-41.6-90-67.4-89.6-73.7l.4-188.7z" fill-rule="evenodd" clip-rule="evenodd" fill="#fff"/><path d="M261.5 198.8l203.8-1.2v183.1c.4 23.8-39.6 48-102.3 78.9-64.6-33.3-101.9-53.5-102.3-79.3l.8-181.5h0z" fill-rule="evenodd" clip-rule="evenodd" fill="#006129" stroke="#000" stroke-width="1.718"/><path class="prefix__st6" d="M286 400.6l12-17.7 12.1 17.7"/><path class="prefix__st7" d="M300.5 394c0 1.3-1 2.4-2.3 2.4-1.3 0-2.4-1-2.4-2.3v-.1c0-1.3 1.1-2.4 2.4-2.3 1.2 0 2.3 1 2.3 2.3zm-12.2 19.6l18.6.1s.3-2.4-1.9-3.9c9.8-1.3 7.2-10 15.4-10.4 1.6.2-4.3 3.7-4.3 3.7s-4.9 3.5-2.7 5.3c1.8 1.4 2.6-.9 2.8-2.6.2-1.7 7.9-2.8 6.8-7.7-1.8-4-12.6 2.7-12.6 2.7h-7.7c-.5-.9-2.6-4.3-4.8-4.3-2.6.1-4.4 4.4-4.4 4.4h-17.3s-.6 4.4 8.2 5.3c2 2.6 3.5 3.3 5.2 4-1 .7-1.3 1.9-1.3 3.4z"/><path class="prefix__st8" d="M289.6 409.8l15.5-.1m-22.6-9s1.2 7.3 7 9"/><linearGradient id="prefix__SVGID_2_" gradientUnits="userSpaceOnUse" x1="133.011" y1="342.238" x2="122.482" y2="345.758" gradientTransform="matrix(.66 0 0 -1.492 -31.9 733.219)"><stop offset="0" stop-color="red"/><stop offset="1" stop-color="#ff0"/></linearGradient><path d="M281.5 400.5c.6-2.8 1.6-3.2 2.8-6.8.2-3.4-2.8-3.1-1.9-5.3 1.5-2.4.8-4.7-2.1-6.5.6 3.2-3.7 6.1-3.7 8.7s2.2 2 1.9 5.9c.2 2.3-.6 1.7-.8 3.9h3.8v.1z" fill-rule="evenodd" clip-rule="evenodd" fill="url(#prefix__SVGID_2_)" stroke="#000" stroke-width=".805"/><path class="prefix__st7" d="M300.3 383.4c0 1.2-1 2.2-2.2 2.2-1.2 0-2.2-1-2.2-2.2 0-1.2 1-2.2 2.2-2.2 1.2 0 2.2.9 2.2 2.2z"/><path class="prefix__st6" d="M285.4 364.2l12-17.7 12.1 17.7"/><path class="prefix__st7" d="M299.8 357.6c0 1.3-1 2.4-2.3 2.4-1.3 0-2.4-1-2.4-2.3v-.1c0-1.3 1.1-2.4 2.4-2.3 1.2 0 2.3 1 2.3 2.3zm-12.2 19.7l18.6.1s.3-2.4-1.9-3.9c9.8-1.3 7.2-10 15.4-10.4 1.6.2-4.3 3.7-4.3 3.7s-4.9 3.5-2.7 5.3c1.8 1.4 2.6-.9 2.8-2.6.2-1.7 7.9-2.8 6.8-7.7-1.8-4-12.6 2.7-12.6 2.7H302c-.5-.9-2.6-4.3-4.8-4.3-2.6.1-4.4 4.4-4.4 4.4h-17.3s-.6 4.4 8.2 5.3c2 2.6 3.5 3.3 5.2 4-1 .7-1.3 1.8-1.3 3.4z"/><path class="prefix__st8" d="M289 373.5l15.5-.1m-22.6-9.1s1.2 7.3 7 9"/><linearGradient id="prefix__SVGID_4_" gradientUnits="userSpaceOnUse" x1="140.279" y1="363.979" x2="129.75" y2="367.499" gradientTransform="matrix(.66 0 0 -1.492 -31.896 733.441)"><stop offset="0" stop-color="red"/><stop offset="1" stop-color="#ff0"/></linearGradient><path d="M280.9 364.2c.6-2.8 1.6-3.2 2.8-6.8.2-3.4-2.8-3.1-1.9-5.3 1.5-2.4.8-4.7-2.1-6.5.6 3.2-3.7 6.1-3.7 8.7s2.2 2 1.9 5.9c.2 2.3-.6 1.7-.8 3.9h3.8v.1z" fill-rule="evenodd" clip-rule="evenodd" fill="url(#prefix__SVGID_4_)" stroke="#000" stroke-width=".805"/><path class="prefix__st7" d="M299.6 347c0 1.2-1 2.2-2.2 2.2-1.2 0-2.2-1-2.2-2.2s1-2.2 2.2-2.2c1.2 0 2.2 1 2.2 2.2z"/><path class="prefix__st6" d="M413.1 331.2l12-17.7 12.1 17.7"/><path class="prefix__st7" d="M427.6 324.6c0 1.3-1 2.4-2.3 2.4-1.3 0-2.4-1-2.4-2.3v-.1c0-1.3 1.1-2.4 2.4-2.3 1.2-.1 2.3 1 2.3 2.3zm-12.2 19.6l18.6.1s.3-2.4-1.9-3.9c9.8-1.3 7.2-10 15.4-10.4 1.6.2-4.3 3.7-4.3 3.7s-4.9 3.5-2.7 5.3c1.8 1.4 2.6-.9 2.8-2.6.2-1.7 7.9-2.8 6.8-7.7-1.8-4-12.6 2.7-12.6 2.7h-7.7c-.5-.9-2.6-4.3-4.8-4.3-2.6.1-4.4 4.4-4.4 4.4h-17.3s-.6 4.4 8.2 5.3c2 2.6 3.5 3.3 5.2 4-1 .7-1.3 1.9-1.3 3.4z"/><path class="prefix__st8" d="M416.7 340.4l15.5-.1m-22.6-9s1.2 7.3 7 9"/><linearGradient id="prefix__SVGID_5_" gradientUnits="userSpaceOnUse" x1="166.564" y1="442.601" x2="156.035" y2="446.121" gradientTransform="matrix(.66 0 0 -1.492 -32.677 733.643)"><stop offset="0" stop-color="red"/><stop offset="1" stop-color="#ff0"/></linearGradient><path d="M408.6 331.1c.6-2.8 1.6-3.2 2.8-6.8.2-3.4-2.8-3.1-1.9-5.3 1.5-2.4.8-4.7-2.1-6.5.6 3.2-3.7 6.1-3.7 8.7s2.2 2 1.9 5.9c.2 2.3-.6 1.7-.8 3.9h3.8v.1z" fill-rule="evenodd" clip-rule="evenodd" fill="url(#prefix__SVGID_5_)" stroke="#000" stroke-width=".805"/><path class="prefix__st7" d="M427.4 313.9c0 1.2-1 2.2-2.2 2.2-1.2 0-2.2-1-2.2-2.2 0-1.2 1-2.2 2.2-2.2 1.2 0 2.2 1 2.2 2.2z"/><path class="prefix__st6" d="M288.3 295.8l12-17.7 12.1 17.7"/><path class="prefix__st7" d="M302.8 289.2c0 1.3-1 2.4-2.3 2.4-1.3 0-2.4-1-2.4-2.3v-.1c0-1.3 1.1-2.4 2.4-2.3 1.2 0 2.3 1 2.3 2.3zm-12.2 19.7l18.6.1s.3-2.4-1.9-3.9c9.8-1.3 7.2-10 15.4-10.4 1.6.2-4.3 3.7-4.3 3.7s-4.9 3.5-2.7 5.3c1.8 1.4 2.6-.9 2.8-2.6.2-1.7 7.9-2.8 6.8-7.7-1.8-4-12.6 2.7-12.6 2.7H305c-.5-.9-2.6-4.3-4.8-4.3-2.6.1-4.4 4.4-4.4 4.4h-17.3s-.6 4.4 8.2 5.3c2 2.6 3.5 3.3 5.2 4-1 .7-1.3 1.8-1.3 3.4z"/><path class="prefix__st8" d="M291.9 305.1l15.5-.1m-22.6-9.1s1.2 7.3 7 9"/><linearGradient id="prefix__SVGID_6_" gradientUnits="userSpaceOnUse" x1="154.605" y1="406.831" x2="144.076" y2="410.351" gradientTransform="matrix(.66 0 0 -1.492 -31.914 733.859)"><stop offset="0" stop-color="red"/><stop offset="1" stop-color="#ff0"/></linearGradient><path d="M283.9 295.8c.6-2.8 1.6-3.2 2.8-6.8.2-3.4-2.8-3.1-1.9-5.3 1.5-2.4.8-4.7-2.1-6.5.6 3.2-3.7 6.1-3.7 8.7s2.2 2 1.9 5.9c.2 2.3-.6 1.7-.8 3.9h3.8v.1z" fill-rule="evenodd" clip-rule="evenodd" fill="url(#prefix__SVGID_6_)" stroke="#000" stroke-width=".805"/><path class="prefix__st7" d="M302.6 278.6c0 1.2-1 2.2-2.2 2.2s-2.2-1-2.2-2.2 1-2.2 2.2-2.2 2.2 1 2.2 2.2z"/><path class="prefix__st6" d="M288.6 261.1l12-17.7 12.1 17.7"/><path class="prefix__st7" d="M303.1 254.5c0 1.3-1 2.4-2.3 2.4-1.3 0-2.4-1-2.4-2.3v-.1c0-1.3 1.1-2.4 2.4-2.3 1.2 0 2.2 1 2.3 2.3zm-12.2 19.6l18.6.1s.3-2.4-1.9-3.9c9.8-1.3 7.2-10 15.4-10.4 1.6.2-4.3 3.7-4.3 3.7s-4.9 3.5-2.7 5.3c1.8 1.4 2.6-.9 2.8-2.6.2-1.7 7.9-2.8 6.8-7.7-1.8-4-12.6 2.7-12.6 2.7h-7.7c-.5-.9-2.6-4.3-4.8-4.3-2.6.1-4.4 4.4-4.4 4.4h-17.3s-.6 4.4 8.2 5.3c2 2.6 3.5 3.3 5.2 4-1 .7-1.3 1.9-1.3 3.4z"/><path class="prefix__st8" d="M292.2 270.3l15.5-.1m-22.6-9s1.2 7.3 7 9"/><linearGradient id="prefix__SVGID_7_" gradientUnits="userSpaceOnUse" x1="161.691" y1="428.025" x2="151.162" y2="431.545" gradientTransform="matrix(.66 0 0 -1.492 -31.916 734.072)"><stop offset="0" stop-color="red"/><stop offset="1" stop-color="#ff0"/></linearGradient><path d="M284.1 261c.6-2.8 1.6-3.2 2.8-6.8.2-3.4-2.8-3.1-1.9-5.3 1.5-2.4.8-4.7-2.1-6.5.6 3.2-3.7 6.1-3.7 8.7s2.2 2 1.9 5.9c.2 2.3-.6 1.7-.8 3.9l3.8.1h0z" fill-rule="evenodd" clip-rule="evenodd" fill="url(#prefix__SVGID_7_)" stroke="#000" stroke-width=".805"/><path class="prefix__st7" d="M302.9 243.9c0 1.2-1 2.2-2.2 2.2-1.2 0-2.2-1-2.2-2.2s1-2.2 2.2-2.2c1.2 0 2.2 1 2.2 2.2z"/><path class="prefix__st6" d="M289.3 225.8l12-17.7 12.1 17.7"/><path class="prefix__st7" d="M303.7 219.2c0 1.3-1 2.4-2.3 2.4-1.3 0-2.4-1-2.4-2.3v-.1c0-1.3 1.1-2.4 2.4-2.3 1.3 0 2.3 1 2.3 2.3zm-12.2 19.7l18.6.1s.3-2.4-1.9-3.9c9.8-1.3 7.2-10 15.4-10.4 1.6.2-4.3 3.7-4.3 3.7s-4.9 3.5-2.7 5.3c1.8 1.4 2.6-.9 2.8-2.6.2-1.7 7.9-2.8 6.8-7.7-1.8-4-12.6 2.7-12.6 2.7h-7.7c-.5-.9-2.6-4.3-4.8-4.3-2.6.1-4.4 4.4-4.4 4.4h-17.3s-.6 4.4 8.2 5.3c2 2.6 3.5 3.3 5.2 4-.9.7-1.3 1.8-1.3 3.4z"/><path class="prefix__st8" d="M292.9 235.1l15.5-.1m-22.6-9.1s1.2 7.3 7 9"/><linearGradient id="prefix__SVGID_8_" gradientUnits="userSpaceOnUse" x1="168.939" y1="449.706" x2="158.41" y2="453.226" gradientTransform="matrix(.66 0 0 -1.492 -31.92 734.287)"><stop offset="0" stop-color="red"/><stop offset="1" stop-color="#ff0"/></linearGradient><path d="M284.8 225.8c.6-2.8 1.6-3.2 2.8-6.8.2-3.4-2.8-3.1-1.9-5.3 1.5-2.4.8-4.7-2.1-6.5.6 3.2-3.7 6.1-3.7 8.7s2.2 2 1.9 5.9c.2 2.3-.6 1.7-.8 3.9h3.8v.1z" fill-rule="evenodd" clip-rule="evenodd" fill="url(#prefix__SVGID_8_)" stroke="#000" stroke-width=".805"/><path class="prefix__st7" d="M303.5 208.6c0 1.2-1 2.2-2.2 2.2-1.2 0-2.2-1-2.2-2.2s1-2.2 2.2-2.2c1.2 0 2.2 1 2.2 2.2z"/><path class="prefix__st6" d="M414.1 226.4l12-17.7 12.1 17.7"/><path class="prefix__st7" d="M428.5 219.8c0 1.3-1 2.4-2.3 2.4-1.3 0-2.4-1-2.4-2.3v-.1c0-1.3 1.1-2.4 2.4-2.3 1.3 0 2.3 1 2.3 2.3zm-12.1 19.7l18.6.1s.3-2.4-1.9-3.9c9.8-1.3 7.2-10 15.4-10.4 1.6.2-4.3 3.7-4.3 3.7s-4.9 3.5-2.7 5.3c1.8 1.4 2.6-.9 2.8-2.6.2-1.7 7.9-2.8 6.8-7.7-1.8-4-12.6 2.7-12.6 2.7h-7.7c-.5-.9-2.6-4.3-4.8-4.3-2.6.1-4.4 4.4-4.4 4.4h-17.3s-.6 4.4 8.2 5.3c2 2.6 3.5 3.3 5.2 4-1 .7-1.4 1.8-1.3 3.4z"/><path class="prefix__st8" d="M417.7 235.7l15.5-.1m-22.6-9.1s1.2 7.3 7 9"/><linearGradient id="prefix__SVGID_9_" gradientUnits="userSpaceOnUse" x1="187.951" y1="506.575" x2="177.422" y2="510.095" gradientTransform="matrix(.66 0 0 -1.492 -32.683 734.283)"><stop offset="0" stop-color="red"/><stop offset="1" stop-color="#ff0"/></linearGradient><path d="M409.6 226.4c.6-2.8 1.6-3.2 2.8-6.8.2-3.4-2.8-3.1-1.9-5.3 1.5-2.4.8-4.7-2.1-6.5.6 3.2-3.7 6.1-3.7 8.7s2.2 2 1.9 5.9c.2 2.3-.6 1.7-.8 3.9h3.8v.1z" fill-rule="evenodd" clip-rule="evenodd" fill="url(#prefix__SVGID_9_)" stroke="#000" stroke-width=".805"/><path class="prefix__st7" d="M428.3 209.2c0 1.2-1 2.2-2.2 2.2-1.2 0-2.2-1-2.2-2.2s1-2.2 2.2-2.2c1.3 0 2.2 1 2.2 2.2z"/><path class="prefix__st6" d="M413 261l12-17.7 12.1 17.7"/><path class="prefix__st7" d="M427.4 254.4c0 1.3-1 2.4-2.3 2.4s-2.4-1-2.4-2.3v-.1c0-1.3 1.1-2.4 2.4-2.3 1.2 0 2.3 1 2.3 2.3zm-12.2 19.7l18.6.1s.3-2.4-1.9-3.9c9.8-1.3 7.2-10 15.4-10.4 1.6.2-4.3 3.7-4.3 3.7s-4.9 3.5-2.7 5.3c1.8 1.4 2.6-.9 2.8-2.6.2-1.7 7.9-2.8 6.8-7.7-1.8-4-12.6 2.7-12.6 2.7h-7.7c-.5-.9-2.6-4.3-4.8-4.3-2.6.1-4.4 4.4-4.4 4.4h-17.3s-.6 4.4 8.2 5.3c2 2.6 3.5 3.3 5.2 4-1 .7-1.3 1.8-1.3 3.4z"/><path class="prefix__st8" d="M416.6 270.3l15.5-.1m-22.7-9.1s1.2 7.3 7 9"/><linearGradient id="prefix__SVGID_10_" gradientUnits="userSpaceOnUse" x1="180.761" y1="485.067" x2="170.232" y2="488.587" gradientTransform="matrix(.66 0 0 -1.492 -32.676 734.072)"><stop offset="0" stop-color="red"/><stop offset="1" stop-color="#ff0"/></linearGradient><path d="M408.5 261c.6-2.8 1.6-3.2 2.8-6.8.2-3.4-2.8-3.1-1.9-5.3 1.5-2.4.8-4.7-2.1-6.5.6 3.2-3.7 6.1-3.7 8.7s2.2 2 1.9 5.9c.2 2.3-.6 1.7-.8 3.9l3.8.1h0z" fill-rule="evenodd" clip-rule="evenodd" fill="url(#prefix__SVGID_10_)" stroke="#000" stroke-width=".805"/><path class="prefix__st7" d="M427.2 243.8c0 1.2-1 2.2-2.2 2.2-1.2 0-2.2-1-2.2-2.2s1-2.2 2.2-2.2c1.2 0 2.2 1 2.2 2.2z"/><path class="prefix__st6" d="M411.4 296.4l12-17.7 12.1 17.7"/><path class="prefix__st7" d="M425.9 289.8c0 1.3-1 2.4-2.3 2.4-1.3 0-2.4-1-2.4-2.3v-.1c0-1.3 1.1-2.4 2.4-2.3 1.2 0 2.2 1 2.3 2.3zm-12.2 19.6l18.6.1s.3-2.4-1.9-3.9c9.8-1.3 7.2-10 15.4-10.4 1.6.2-4.3 3.7-4.3 3.7s-4.9 3.5-2.7 5.3c1.8 1.4 2.6-.9 2.8-2.6.2-1.7 7.9-2.8 6.8-7.7-1.8-4-12.6 2.7-12.6 2.7h-7.7c-.5-.9-2.6-4.3-4.8-4.3-2.6.1-4.4 4.4-4.4 4.4h-17.3s-.6 4.4 8.2 5.3c2 2.6 3.5 3.3 5.2 4-1 .7-1.3 1.9-1.3 3.4z"/><path class="prefix__st8" d="M415 305.6l15.5-.1m-22.6-9s1.2 7.3 7 9"/><linearGradient id="prefix__SVGID_11_" gradientUnits="userSpaceOnUse" x1="173.355" y1="462.915" x2="162.826" y2="466.435" gradientTransform="matrix(.66 0 0 -1.492 -32.666 733.856)"><stop offset="0" stop-color="red"/><stop offset="1" stop-color="#ff0"/></linearGradient><path d="M406.9 296.3c.6-2.8 1.6-3.2 2.8-6.8.2-3.4-2.8-3.1-1.9-5.3 1.5-2.4.8-4.7-2.1-6.5.6 3.2-3.7 6.1-3.7 8.7s2.2 2 1.9 5.9c.2 2.3-.6 1.7-.8 3.9h3.8v.1z" fill-rule="evenodd" clip-rule="evenodd" fill="url(#prefix__SVGID_11_)" stroke="#000" stroke-width=".805"/><path class="prefix__st7" d="M425.7 279.2c0 1.2-1 2.2-2.2 2.2s-2.2-1-2.2-2.2 1-2.2 2.2-2.2 2.2.9 2.2 2.2z"/><path class="prefix__st6" d="M413 400.9l12-17.7 12.1 17.7"/><path class="prefix__st7" d="M427.4 394.3c0 1.3-1 2.4-2.3 2.4-1.3 0-2.4-1-2.4-2.3v-.1c0-1.3 1.1-2.4 2.4-2.3 1.2 0 2.3 1.1 2.3 2.3zM415.2 414l18.6.1s.3-2.4-1.9-3.9c9.8-1.3 7.2-10 15.4-10.4 1.6.2-4.3 3.7-4.3 3.7s-4.9 3.5-2.7 5.3c1.8 1.4 2.6-.9 2.8-2.6.2-1.7 7.9-2.8 6.8-7.7-1.8-4-12.6 2.7-12.6 2.7h-7.7c-.5-.9-2.6-4.3-4.8-4.3-2.6.1-4.4 4.4-4.4 4.4h-17.3s-.6 4.4 8.2 5.3c2 2.6 3.5 3.3 5.2 4-1 .7-1.3 1.8-1.3 3.4z"/><path class="prefix__st8" d="M416.5 410.2l15.5-.1m-22.6-9.1s1.2 7.3 7 9"/><linearGradient id="prefix__SVGID_12_" gradientUnits="userSpaceOnUse" x1="59.175" y1="196.317" x2="48.646" y2="199.837" gradientTransform="matrix(.85 0 0 -1.922 710.87 1037.502)"><stop offset="0" stop-color="red"/><stop offset="1" stop-color="#ff0"/></linearGradient><path d="M408.5 400.9c.6-2.8 1.6-3.3 2.8-6.8.2-3.4-2.8-3.1-1.9-5.3 1.5-2.4.8-4.7-2.1-6.5.6 3.2-3.7 6.1-3.7 8.7 0 2.6 2.2 2 1.9 5.9.2 2.3-.6 1.7-.8 3.9l3.8.1h0z" fill-rule="evenodd" clip-rule="evenodd" fill="url(#prefix__SVGID_12_)" stroke="#000" stroke-width=".805"/><path class="prefix__st7" d="M427.2 383.7c0 1.2-1 2.2-2.2 2.2s-2.2-1-2.2-2.2 1-2.2 2.2-2.2 2.2 1 2.2 2.2z"/><path class="prefix__st6" d="M412.8 366l12-17.7 12.1 17.7"/><path class="prefix__st7" d="M427.2 359.3c0 1.3-1 2.4-2.3 2.4-1.3 0-2.4-1-2.4-2.3v-.1c0-1.3 1.1-2.4 2.4-2.3 1.2 0 2.3 1.1 2.3 2.3zM415 379l18.6.1s.3-2.4-1.9-3.9c9.8-1.3 7.2-10 15.4-10.4 1.6.2-4.3 3.7-4.3 3.7s-4.9 3.5-2.7 5.3c1.8 1.4 2.6-.9 2.8-2.6.2-1.7 7.9-2.8 6.8-7.7-1.8-4-12.6 2.7-12.6 2.7h-7.7c-.5-.9-2.6-4.3-4.8-4.3-2.6.1-4.4 4.4-4.4 4.4h-17.3s-.6 4.4 8.2 5.3c2 2.6 3.5 3.3 5.2 4-1 .7-1.3 1.9-1.3 3.4z"/><path class="prefix__st8" d="M416.4 375.2l15.5-.1m-22.6-9s1.2 7.3 7 9"/><linearGradient id="prefix__SVGID_13_" gradientUnits="userSpaceOnUse" x1="159.451" y1="421.325" x2="148.922" y2="424.845" gradientTransform="matrix(.66 0 0 -1.492 -32.675 733.43)"><stop offset="0" stop-color="red"/><stop offset="1" stop-color="#ff0"/></linearGradient><path d="M408.3 365.9c.6-2.8 1.6-3.2 2.8-6.8.2-3.4-2.8-3.1-1.9-5.3 1.5-2.4.8-4.7-2.1-6.5.6 3.2-3.7 6.1-3.7 8.7s2.2 2 1.9 5.9c.2 2.3-.6 1.7-.8 3.9h3.8v.1z" fill-rule="evenodd" clip-rule="evenodd" fill="url(#prefix__SVGID_13_)" stroke="#000" stroke-width=".805"/><path class="prefix__st7" d="M427 348.7c0 1.2-1 2.2-2.2 2.2-1.2 0-2.2-1-2.2-2.2 0-1.2 1-2.2 2.2-2.2 1.2 0 2.2 1 2.2 2.2z"/><path class="prefix__st6" d="M311.1 333.4l12-17.7 12.1 17.7"/><path class="prefix__st7" d="M325.6 326.8c0 1.3-1 2.4-2.3 2.4-1.3 0-2.4-1-2.4-2.3v-.1c0-1.3 1.1-2.4 2.4-2.3 1.2 0 2.3 1.1 2.3 2.3zm-12.2 19.7l18.6.1s.3-2.4-1.9-3.9c9.8-1.3 7.2-10 15.4-10.4 1.6.2-4.3 3.7-4.3 3.7s-4.9 3.5-2.7 5.3c1.8 1.4 2.6-.9 2.8-2.6.2-1.7 7.9-2.8 6.8-7.7-1.8-4-12.6 2.7-12.6 2.7h-7.7c-.5-.9-2.6-4.3-4.8-4.3-2.6.1-4.4 4.4-4.4 4.4h-17.3s-.6 4.4 8.2 5.3c2 2.6 3.5 3.3 5.2 4-1 .7-1.3 1.8-1.3 3.4z"/><path class="prefix__st8" d="M314.7 342.7l15.5-.1m-22.6-9.1s1.2 7.3 7 9"/><linearGradient id="prefix__SVGID_14_" gradientUnits="userSpaceOnUse" x1="150.471" y1="394.463" x2="139.942" y2="397.983" gradientTransform="matrix(.66 0 0 -1.492 -32.053 733.629)"><stop offset="0" stop-color="red"/><stop offset="1" stop-color="#ff0"/></linearGradient><path d="M306.6 333.4c.6-2.8 1.6-3.2 2.8-6.8.2-3.4-2.8-3.1-1.9-5.3 1.5-2.4.8-4.7-2.1-6.5.6 3.2-3.7 6.1-3.7 8.7s2.2 2 1.9 5.9c.2 2.3-.6 1.7-.8 3.9h3.8v.1z" fill-rule="evenodd" clip-rule="evenodd" fill="url(#prefix__SVGID_14_)" stroke="#000" stroke-width=".805"/><path class="prefix__st7" d="M325.4 316.2c0 1.2-1 2.2-2.2 2.2-1.2 0-2.2-1-2.2-2.2s1-2.2 2.2-2.2c1.2 0 2.2 1 2.2 2.2z"/><path class="prefix__st21" d="M375.5 417.4s4.9 11.2 10.4 4.3l3.5-9.9L377 405l-3.6 7.7 2.1 4.7z"/><path class="prefix__st22" d="M386.2 415.9s.8.1 1.5-1.1-1.5-1.8-2.4-3.1l-1.1 2.2 2 2zm-28.1-3l-10.9 5.9s-5.4 1.1-5.8 0c-.4-1.1.1-2 3-2.2 2.8-.1 10.5-7.2 10.5-7.2l3.2 3.5zm.1-194.5s.3 2.6.4 3.9-2.2 4.2-2.3 4.1-1.2.1-1.1.9l1.8 1.1s-.7 2.8 0 3c.7.1-1.8 3.6 0 4.6s4.7 2.2 6.1 1.9c1.4-.3 0 5.3 0 5.3l-3.8 8.1 20.8-2.2-4.3-6.9s-2-1.4-1.5-5.3-.3-21.6-.3-21.6l-14.9-2-.9 5.1zm-3.8 30.9s-6.8 3.1-6.5 11.5c-1.8 8.1-2.7 16.2-2.7 16.2s-8 9.1-10.4 12.3-6.1 9.9-7.4 11.6-6.6 7.6-6.5 9.7c.1 2.2-1.2 11.8 4.1 12.8 1.4.5 5.7-11.1 5.7-11.1s.3-5-1.2-5.9l3.2-4.2s9.1-6.6 11.1-8.2l7.6-7.8 3-36.9z"/><path d="M362.1 242.9s1.8 4.7 5.7 3.9c3.9-.8 8.5-4.5 8.5-4.5s3.6-.1 4.2.4c.5.5 9.9 9.6 9.6 12.4-.3 2.8-4.3 2-5.8 3.9s-3.9 6.6-3.2 10.1 2.7 8.1 2.4 9.9-1.8 2.3-1.8 3.2c0 .9 1.2 2.6 1.2 4.3s-1.6 4.3-1.4 6.1c.3 1.8.4 6.9.4 6.9l-.4 23.8s1.4.8 1.5 2.2 9.2 40.7 9.2 40.7-.4 1.2-1.4 1.1 3.6 6.1 3.8 7.8 4.7 15.5 4.6 17.4c-.1 1.9-.8 6.1-1.2 6.2-.4.1 3 8.7 2.4 10-.5 1.4-6.1 1.2-6.1 1.2l-1.5-.3s.1 1.8-.9 1.9l-9.1-.4s-2.3 3.5-3.6 3.4-3.1-2.6-3.5-2.2c-.4.4 1.2 2.7.8 3.4-.4.7-7.3 2.2-8.6-1.1s.8-2.4.4-3.1-3.5-2.4-4.5-1.9 2.4 1.4 2.3 2.7c-.1 1.4-3 3.4-4.1 3.4s-3.6-5-7.4-4.5c-3.8.5-6.2 1.5-6.2 1.5s-4.5 1.9-6.4 1.5c-1.9-.4-2.7-1.9-2.7-2.7 0-.8 1.4-4.3 1.2-5.4s-1.2-2.2-1.2-3.8 3.1-7.2 3.1-7.2l-.1-24.9s-2.8 0-3-1.8 4.3-39.3 5-41.8c.7-2.4 2.4-11.1 2.4-11.1s-2 .9-2.2 0l6.1-22.4s1.1-10.7 1.1-13.5-.5-6.8-.5-6.8-5.5-2.4-5.7-5.9c-.5-5.7 5.3-8.9 5.9-10.8l2.7-7.6c.2.3 3.1-4.8 8-5.6h0z" fill-rule="evenodd" clip-rule="evenodd" fill="#fff" stroke="#000"/><path class="prefix__st21" d="M360.1 414.6s-13.1 6.9-15 7.4c-1.9.5-3.1-2.3-1.2-2.8 1.9-.5 4.9-.8 4.9-.8s-4.5-3.5-4.3-3.6c.1-.1 6.1-2.3 6.2-2.3s1.9 3.5 3.1 3.2l4.7-3s1.9 2.1 1.6 1.9z"/><path class="prefix__st22" d="M378.6 418.3c1.2 1.6 1.7 4.4 4.6 2.8 2.8-1.6-1.5-4.6-1.5-4.6l-3.1 1.8zm5.1-.2s1.4 1.1 2.6-.1l-2.4-3.8-1.8 2 1.6 1.9z"/><path class="prefix__st24" d="M379.7 248.2s-12 7.7-11.8 10.4m14.5-9.1s-2.7 3-2.8 3m6.4.3s-5.9 4.9-5 8m-23.1-13.3s-1.8 3.6-1.4 4.9c.4 1.2 3.4 5.8 3.8 8.7.4 2.8 0 4.9 0 4.9m-5.5-11.7s.5 4.3 1.4 5.1c.8.8 3 4.5 3.2 5.9m-5.7 6.9s3.5 1.8 6.8-5m5.3-4.7c-.1 0-2.6 6.6 1.8 9.1s7.6 2.2 9.5 1.5 3.9-1.9 3.9-1.9m-17.1-.6s.3 8.9 13.4 17.7m-12.9-9.3s-.1 7.8 5 11.4m-7.7-20.6s-3.9 11.6-7 12.8m5.8-4.3s-.1 8.4-1.2 11.4m-1.1 2s2.7 3.4 5.7 3.1c3-.3 4.2-3.8 6.2-3.2 2 .5 3.9 2.2 8.6 1.8m-6.7 3.4s0 6.9 1.2 7.6l.7 7m-18.4-17.8s-.1 6.5-.9 8.8c-.8 2.3-2.4 6.2-2.2 9.6m-5.2 3.8c.7-.3 3-2.3 3-2.3m1.2 1.4s-5.8 24.9-4.2 39.7m5.6-38.4s-3 18.7-1.6 22.2m.1-22.8c.1 0 11.4.8 11.4.8m1.6-1.5s3.1 1.6 7.4 1.4m-8.8 7.7s-.5 31.9-1.4 38.9m18.1-31.6s3.5 28 5.5 30.5m-12.3-27s2.2 24.7 3.4 26.9m-34.1 8.7s4.2-1.4 8-5.4c4.3 5.8 11 .3 11 .3s10.3 7 14.9-.8c7 4.6 10.5-.7 10.5-.7s2.6 3.9 4.5 3.5m-11.3 2.7s5.3 24.7 13.1 31.8m-40.3-34.4s.7 20.7 1.9 35.3m-2.8-11.9s-.7 13.5-1.5 14.5m-6.5 1.3s1.5 5.8 8.9.4c7.4-5.4 7.6 2 7.8 2.8s1.5 6.6 4.3 1.8m6-8s-1.2 12 9.5 3.2 12.4-.1 12.7 2.6"/><path d="M357.8 217.6s3 .4 4.6-.5 3.5-1.4 4.9.5l2.3 1.8s-2 5 0 5.5 3 .5 3.1 1.2c.1.7-1.8 2.2-1.2 2.8.5.7 1.5 1.5 1.6 2 .1.5-1.2 2.8-.8 3.4.4.5 1.6 2.7 2.4 2.7.8 0 .3 3.4 2.7 2.6l2.3-3s2.6-.4 3.2-2.7 2.3-2.8 2.3-2.8 3.2-1.8-1.1-4.5c0-18.9-12.4-16.9-12.4-16.9s-1.5-3.4-3.9-3-2.6 3.2-4.3 3c-1.8-.3-2.2-1.5-2.3-1.4s-1.6 2.8-1.6 3.5-4.7-.9-4.3 2.6 2.6 3.5 2.5 3.2h0z" fill-rule="evenodd" clip-rule="evenodd" fill="#9c5100" stroke="#000"/><path class="prefix__st24" d="M370.8 213s-.9 5.9 5.4 5.4c-.8 3.2 1.6 4.3 1.6 4.3m4.7 3.7c.1 0 2.8 1.8-.1 3.9m-9.1.8s1.4 1.6 2.8 1.2c1.5-.4 3.9 1.5 3.9 1.5s2 .7 2.3.3m-17.2 2.2s4.6 1.8 7.6-5.5m-16.1-2.2l2.7.1m-2.3 2.6h2.4l-2.2.9M360.4 223.7c.4 0 1.9-.5 2.2-.1s-1.7.6-2.2.1z"/><path class="prefix__st22" d="M389.6 255.8c.1 0 4.5 13.4 5 16.8.5 3.4 2.3 16.9 1.6 18.8-.7 1.9-7.6 10.9-8.4 13.2-.8 2.3-5.7 11.1-5.7 11.1s-1.2 8.7-1.8 9.1c-.5.4 1.4 2.5 1.2 3.2-.3.8-3.9 4.6-5.5 4.2-1.6-.4-4.2-2.3-4.3-4.1s.1-7.6 1.4-9.1 7.6-16.5 8-17.4c.4-.9 5.8-12.7 5.9-14.7.1-2-1.7-6.7-3.6-8.4-4.3-12.5-2.6-20.1 6.2-22.7z"/><path class="prefix__st24" d="M326.6 313.8l.2 5.9m-5.8-6.3s3.8 6.4 3.5 9.7m47.4 3.5s2.8-.3 2.8 4.4c1.8-5.9 5.5-6 5.5-6"/><path d="M362.2 462c57.1-1.6 94-42.8 93.6-43.2-.4-.4 7.5-11.5 13.9-9.9 6.3 1.6 15.5 20.2 26.6 24.2 5.5 8.7-1.6 16.6-4 18.2-2.4 1.6-13.1 5.9-14.7-.4s-4.8-5.2-4.8-5.2-50.7 49.6-109.4 47.6c-60.6.4-110.6-47.6-110.6-47.6l-4.4 4.8s-4.8 5.2-7.1 4.8c-2.4-.4-12.7-7.1-13.5-13.9-.8-6.7 6.3-11.1 6.3-11.1s17.4-13.5 19.4-20.6c4-4 11.5 2.8 11.5 2.8s46.1 52.7 97.2 49.5h0z" fill-rule="evenodd" clip-rule="evenodd" fill="#f7c600" stroke="#000" stroke-width="1.718"/><path d="M233 431.3s4.7-1.3 6.4.7c1.7 2 13.6 13.6 13.6 13.6m-9.2-8.8l-4.7 3.5s11.9 2.4 9.2 10.1M492 430.9s-2.4-1.3-6.1 1.5c-3.7 2.8-13 13.2-13 13.2m8.5-9.1l5.1 3.9s-10.7.7-8.3 10.9" fill="none" stroke="#000" stroke-width="1.718"/><path d="M293.4 443.9l-.3.5c-.7-.4-1.5-.4-2.5-.2-.7.2-1.9.8-3.8 1.9l-15.7 9.2-.4-.3 4-18.4c.5-2.2.7-3.6.7-4 0-.5-.4-1-1-1.6l.3-.5 8.5 6-.3.5-.3-.2c-.8-.5-1.4-.8-1.8-.8-.3 0-.5.1-.7.4l-.3.6c-.1.3-.3 1-.5 2.2l-2.5 11.5 9.1-5.3c1.1-.6 1.8-1.1 2.1-1.4.3-.3.6-.5.7-.7.2-.3.3-.5.3-.8 0-.3-.1-.6-.3-.9-.3-.4-.7-.8-1.3-1.3l.3-.5 5.7 4.1m5.7 27.3l-.3.5-10-5.4.3-.5.6.3c.6.3 1 .4 1.5.4.3 0 .6-.1.9-.4.2-.2.6-.7 1.1-1.7l6.8-12.5c.5-1 .8-1.6.8-1.9 0-.3-.1-.6-.3-1-.2-.4-.6-.7-1.1-1l-.6-.3.3-.5 10 5.4-.3.5-.6-.3c-.6-.3-1-.4-1.5-.4-.3 0-.6.1-.9.4-.2.2-.6.7-1.1 1.7l-6.8 12.5c-.5 1-.8 1.6-.8 1.9 0 .3.1.6.3 1 .2.4.6.7 1.1 1l.6.3m36.3-8.5l-2.6 7.2-.6-.2c0-2.2-.4-4.1-1.4-5.6-1-1.5-2.3-2.5-3.9-3.1-1.5-.5-3-.6-4.3-.1-1.3.5-2.5 1.4-3.4 2.8-1 1.4-1.8 2.9-2.3 4.5-.7 2-1.1 3.8-1.1 5.4s.3 3 1.1 4c.8 1.1 1.9 1.8 3.3 2.4.5.2 1 .3 1.6.4.6.1 1.1.1 1.8.1l1.5-4.3c.3-.8.4-1.3.4-1.6 0-.3-.2-.6-.5-.9-.3-.3-.7-.6-1.1-.7l-.5-.2.2-.6 9.9 3.5-.2.6c-.8-.2-1.3-.3-1.7-.2-.3 0-.7.2-1 .5-.2.2-.4.6-.6 1.4l-1.5 4.3c-1.5.1-3 .1-4.6-.1-1.5-.2-3-.6-4.5-1.1-1.9-.7-3.5-1.5-4.6-2.5-1.1-.9-1.9-2.1-2.6-3.3-.7-1.2-1.1-2.5-1.3-3.7-.2-1.6 0-3.3.6-5 1.1-3.1 3.1-5.3 6-6.6 2.9-1.4 6-1.4 9.3-.3 1 .4 1.9.8 2.7 1.2.4.2 1 .7 1.9 1.5.9.7 1.4 1.1 1.6 1.2.3.1.6.1.9 0 .3-.1.7-.4 1.1-.9h.4m15.3 24.6l-.1.6-11.2-1.7.1-.6.7.1c.6.1 1.1.1 1.6-.1.3-.1.5-.3.7-.7.2-.2.3-.9.5-2l2.1-14.1c.2-1.1.2-1.8.1-2.1-.1-.3-.3-.6-.6-.8-.3-.3-.8-.4-1.4-.5l-.7-.1.1-.6 11.2 1.7-.1.6-.7-.1c-.6-.1-1.1-.1-1.6.1-.3.1-.6.3-.8.7-.2.2-.3.9-.5 2l-2.1 14.1c-.2 1.1-.2 1.8-.1 2.1.1.3.3.6.6.8.3.3.8.4 1.4.5l.8.1m29.2-7.1l-.4 7.6-19.2 1v-.6h.7c.6 0 1.1-.2 1.5-.4.3-.2.5-.4.6-.8.1-.3.1-.9.1-2l-.7-14.3c-.1-1.1-.1-1.8-.3-2.1-.1-.3-.4-.5-.8-.7-.4-.2-.8-.3-1.5-.2h-.7v-.6l11.6-.6v.6h-.9c-.6 0-1.1.2-1.5.4-.3.2-.5.4-.6.8-.1.3-.1.9-.1 2l.7 13.8c.1 1.1.2 1.8.3 2.1.1.3.4.5.8.6.3.1.9.1 1.9 0l1.8-.1c1.1-.1 2.1-.3 2.8-.8.7-.4 1.4-1.1 1.9-2 .5-.9 1-2.2 1.4-3.9l.6.2m21-3.7l-7.3 2.2-.3 2.3c-.1.8-.1 1.4.1 1.8.2.6.5.9 1.1 1.1.3.1 1 0 2.1-.2l.2.6-6.9 2.1-.2-.6c.7-.3 1.2-.8 1.6-1.5.3-.7.6-1.9.8-3.7l2.5-18.8.3-.1 12.6 14.8c1.2 1.4 2.1 2.2 2.7 2.5.4.2 1 .3 1.6.1l.2.6-10.1 3-.2-.6.4-.1c.8-.2 1.3-.5 1.6-.8.2-.2.2-.5.1-.8-.1-.2-.1-.4-.3-.5 0-.1-.3-.4-.8-1l-1.8-2.4m-.9-.9l-5.2-6.2-1 8.1 6.2-1.9m27.8-28.3l2.8 5.2-.5.3c-.9-1-1.7-1.7-2.4-2-.6-.3-1.4-.5-2.2-.4-.4 0-1.1.3-2 .8l-1.4.8 7.9 14.7c.5 1 .9 1.6 1.1 1.8.2.2.6.3 1 .3s.9-.1 1.4-.4l.6-.3.3.5-10 5.4-.3-.5.6-.3c.6-.3.9-.6 1.2-1 .2-.3.2-.6.2-1 0-.3-.3-.9-.8-1.9l-7.9-14.7-1.4.7c-1.3.7-2.1 1.5-2.4 2.3-.4 1.2-.3 2.6.2 4.1l-.5.3-2.8-5.2 17.3-9.5m13-7.7l5.3 7 .3-.3c1.1-.8 1.6-1.8 1.6-2.8s-.5-2.3-1.4-3.8l.5-.4 6.8 9.1-.5.4c-.8-.9-1.7-1.6-2.5-1.9-.8-.4-1.5-.5-2.1-.4-.6.1-1.3.5-2.1 1.1l3.7 4.9c.7 1 1.2 1.5 1.4 1.7.2.1.5.2.9.2.3 0 .7-.2 1.2-.6l1-.8c1.6-1.2 2.6-2.6 3-4.1.4-1.5.3-3.2-.5-5l.5-.4 3.4 6.1-15 11.3-.4-.5.6-.4c.5-.4.8-.8 1-1.2.1-.3.1-.6 0-1-.1-.3-.4-.8-1.1-1.7l-8.6-11.4c-.6-.8-1-1.2-1.2-1.4-.3-.2-.6-.3-1-.3-.5 0-1 .2-1.6.6l-.6.4-.4-.5 14.5-10.9 3.9 5.1-.5.4c-1.2-1.1-2.2-1.7-3.1-1.9-.9-.2-1.8-.1-2.8.2-.6.2-1.5.8-2.9 1.8l-1.3 1.4"/><path d="M258.4 445.5c70.9 57.5 140.4 58.6 208.4 0" fill="none"/></g></svg>
