<svg xmlns="http://www.w3.org/2000/svg" height="512" width="512" viewBox="0 0 512 512"><style>.prefix__st0{fill:#fff}.prefix__st1,.prefix__st2,.prefix__st4{stroke:#000;stroke-width:1.4955}.prefix__st1{stroke-linecap:round;stroke-linejoin:round;fill:#188400}.prefix__st2,.prefix__st4{fill:#00cede}.prefix__st4{fill:#ffd600;stroke-width:1.496}.prefix__st4,.prefix__st5{stroke-linecap:round;stroke-linejoin:round}.prefix__st5,.prefix__st6{fill:#ffd600;stroke:#000;stroke-width:1.4955}.prefix__st11{fill:#be0a2f}</style><path class="prefix__st0" d="M0 0h512v512H0z"/><path class="prefix__st1" d="M205.9 360.8l10-8.3s-2.2-4.6-10.1-4.4c-7.4-5.2-20.3-17.6-20.3-17.6l-6.4-17.4s5.2-1.5 6.4-5.7c1.2-4.2-.3-9.5-.8-10s-5.7.8-7.3 3c-1.5 2.2-3.9 10.6-7.4 7.8-3.5-2.9.5-6.1.5-6.1s3.5-4.4 3.4-6.8c-.2-2.4-4.7-9.5-5.2-9.6-.5-.2-1.5 9.3-2.9 10.3-1.3 1-3.2 5.2-5.9 2.9-2.7-2.4 1.3-5.9 1.3-5.9s7.6-4 .2-17.4c-2.2 5.7-6.4 9.5-6.4 9.5s-2 3.5-3.9.5 2.2-5.9 2.2-5.9 6.6-3.9 6.8-9.6c.2-5.7-7.9-12.3-7.9-12.3s-.5 10.6-3 12c-2.5 1.3-3.5 3.5-6.4 1.2-2.9-2.4 2.2-7.6 2.2-7.6s8.8-8.8 8.3-13.8c-.5-5.1-1-5.9-1-5.9s-6.6 4.1-7.4 6.1c-.8 2-3.5 9.3-6.9 7.1-2.4-2.7 2-7.9 2-7.9s3.2-3.5 3-5.1c-.2-1.5-2.7-6.1-7.6-10.5-.7-1.3-1-6.8-1-6.8s-3.7 4.4-3.5 6.8c.2 2.4-.3 7.1.2 12.3.5 5.2-4.1-1.7-4.1-1.7l.8-16.9s-6.4-7.8-14.2-10.6c2.9 4.2 2.7 8.3 2.7 8.3s-3.2 6.9-3.2 8.8 3.7 10 10.6 15.4c-10.5-11.3-23.5-7.6-27.3-9.8 1.9 2.2 7.4 10.5 6.8 12.7-.7 2.2 10 6.8 10 6.8l11.3.2s5.6 3.9 6.1 6.4c.5 2.5-8.1-4.7-11.5-4.6-3.4.2-12.3-1.2-12.3-1.2s5.4 5.1 5.6 7.3c.2 2.2 2.5 7.3 5.7 8.6 3.2 1.3 11.8 1.9 11.8 1.9s3.7-2.2 4.4.2c.7 2.4-4.9 4.2-4.9 4.2s-5.7 0-7.6-1.5c-1.9-1.5-2.2-4.1-10.5-5.1-.8 6.9 4.6 14 4.6 14s22.8-1.9 22.6 3c-.2 4.9-18.9.5-19.6-1-.7-1.5.8 9.6 5.2 12 4.4 2.4 14.2 1.2 15.4.7 1.2-.5 5.6-1 5.6 1.5s-22.3 4.6-22.6 3.9c-.3-.7 3.4 8.6 12.3 8.1s12.8-3.2 12.8-3.2 5.4-1 5.9 1.2-5.4 3.2-5.4 3.2-14.2.3-14.7-.3c-.5-.7 3.2 8.9 13.2 8.8 7.4-.7 7.9-3.9 9.5-4.4 2.2-.5 6.9-.5 7.6-.3s12.5 8.4 12.5 8.4l29.7 30.1zM118.8 227.5s-.3 16.2 7.8 21.1M135.9 240.3s5.4 8.3-3.7 11.3M107.9 245.9s-.7 9.3 15.7 8.6M148.4 254s-2.7 6.6-9.3 6.2M154.4 268.9c0 .8 1.2 9.8-7.4 9.6M113.3 265.1s10.8 6.8 15.7 6.2M115.6 281.5s5.1 5.4 14.3 4M160.2 285.2c0 .7-1.7 5.9-5.4 6.6M124.1 297.2s4.1 5.2 14.7 2.4M170.3 295s-1.7 8.3-6.1 8.4M180.6 304s-3.4 10-12 8.4M140.9 321.7s3.4 3 11.6-.7M131.7 311.6c.7 0 4.9 3.5 15-1.9M205.9 348.4s-6.3 2.8-.2 12.3"/><g><path class="prefix__st2" d="M401.6 230.1s-3.2 46-3.4 45.9c-.2-.1-6.7-8-6.7-8l-20.2 63.4 4.7 13.8-11.8 38.6-9.7-12.3-15.7 6.3 12.6-40.7 11.6-8.4 21-62.5-11.6 1.5 29.2-37.6z"/><path class="prefix__st2" d="M446.3 249.1s-24.5 39.1-24.6 38.9c-.1-.2-2.1-10.2-2.1-10.2l-40.2 37.3-42.9 41.4-.1-8.5-14.7-1.8 19.4-14.9 10-1.6 62.7-56.9-10.9-4.2 43.4-19.5z"/><path d="M336.5 347.9c.3-.6 22.3-19.4 22.3-19.4" fill="#00cede" stroke="#000" stroke-width="1.527"/><path class="prefix__st2" d="M433.2 216.1s-12 44.5-12.1 44.4c-.1-.1-5-9.2-5-9.2l-48.5 83.3 2 14.5-17.4 31.9-7.2-14-16.6 3.2 18.6-33.8 13-6 49-82.3-11.7-.8 35.9-31.2zM345.2 366.5c0-.3 16.7-29.5 16.7-29.5"/></g><g><g id="prefix__wing"><path class="prefix__st4" d="M207.3 209.8s-10.9 11.7-16.3 3 7.6-11.2 7.7-11.4c.2-.2 7.6-2.5 8.2-16.1.7-13.7-16.3-22.5-21.1-23.7-4.8-1.2-18.8-1.2-18.8-1.2s-51.2-12.3-56.4-16.1c-5.3-3.8-53.7-12.7-53.7-12.7s-7.7-1-7.1 5.9c.7 6.9 7.1 7.7 7.1 7.7s-5.4 4.3-4.8 8.1c.7 3.8 4.8 9.9 13.3 8.9-1 13.5 17.8 15.6 17.8 15.6s2 19.4 19.3 18.4c4.1 13.3 19.6 13.8 19.6 13.8s7.2 9.1 17.8 9.7c6.1 15.1 19.3 10.9 19.3 10.9s-1 9.5 5.1 9.5c-3.1 10.9 8.6 12.3 13 10.2 1.2 2.3 5.1 9.4 14.2 4.9 5.4 8.1 14.3 4.3 14.3 4.3s2 6.4 9.7 3.9c7.8-2.2-8.3-53.3-8.2-53.6z"/><path class="prefix__st5" d="M173.8 170s12 1.3 10.5 19.9M128 150.7s-23 15.8 20.1 20.7"/><path class="prefix__st5" d="M134.6 169.3c-.2.3-10.9 13 8.9 16.8-9.4 8.9 8.2 11.8 8.2 11.8s-3.6 9.4 6.9 11.8c-3.5 9.7 7.9 9.2 7.9 9.2s.3 11.8 13.8 11.7c-.2 8.1 9.2 8.6 9.2 8.6s2.8 8.7 11.8 6.1c1 6.1 7.2 4.8 7.2 4.8M206 259.8s.5-8.4-1.5-10M191 255.2c.2-.2 4-7.7 2.6-9.1M177.2 250.5l10.2-10M164.4 240.6c.2-.2 15.5-9.7 15.5-9.7M158.9 230.9c.2-.2 8.7-3.8 9.1-6.9M140 219.8s20.7 4.4 24.4-.3M122.7 210c.8 0 31.1 3.3 33.9-.5M102.7 196.3c.5-.2 35.9 6.6 45.9 1.5M85.7 178c.8 0 47.1 11.2 54 7.7M68.1 161.9c.3 0 55.1 12.8 62 7.6M61 146.3c.2 0 52.5 17.1 56.9 12.8"/></g><g id="prefix__wing_1_"><path class="prefix__st4" d="M338.7 210.2s10.9 11.7 16.3 3-7.6-11.2-7.7-11.4c-.2-.2-7.6-2.5-8.2-16.1-.7-13.7 16.3-22.5 21.1-23.7 4.8-1.2 18.8-1.2 18.8-1.2s51.2-12.3 56.4-16.1c5.3-3.8 53.7-12.7 53.7-12.7s7.7-1 7.1 5.9c-.7 6.9-7.1 7.7-7.1 7.7s5.4 4.3 4.8 8.1c-.7 3.8-4.8 9.9-13.3 8.9 1 13.5-17.8 15.6-17.8 15.6s-2 19.4-19.3 18.4c-4.1 13.3-19.6 13.8-19.6 13.8s-7.2 9.1-17.8 9.7c-6.1 15.1-19.3 10.9-19.3 10.9s1 9.5-5.1 9.5c3.1 10.9-8.6 12.3-13 10.2-1.2 2.3-5.1 9.4-14.2 4.9-5.4 8.1-14.3 4.3-14.3 4.3s-2 6.4-9.7 3.9c-7.8-2.3 8.4-53.3 8.2-53.6z"/><path class="prefix__st5" d="M372.3 170.4s-12 1.3-10.5 19.9M418 151.1s23 15.8-20.1 20.7"/><path class="prefix__st5" d="M411.4 169.7c.2.3 10.9 13-8.9 16.8 9.4 8.9-8.2 11.8-8.2 11.8s3.6 9.4-6.9 11.8c3.5 9.7-7.9 9.2-7.9 9.2s-.3 11.8-13.8 11.7c.2 8.1-9.2 8.6-9.2 8.6s-2.8 8.7-11.8 6.1c-1 6.1-7.2 4.8-7.2 4.8M340 260.2s-.5-8.4 1.5-10M355 255.6c-.2-.2-4-7.7-2.6-9.1M368.8 250.8l-10.2-10M381.6 241c-.2-.2-15.5-9.7-15.5-9.7M387.1 231.3c-.2-.2-8.7-3.8-9.1-6.9M406 220.2s-20.7 4.4-24.4-.3M423.3 210.4c-.8 0-31.1 3.3-33.9-.5M443.4 196.7c-.5-.2-35.9 6.6-45.9 1.5M460.3 178.4c-.8 0-47.1 11.2-54 7.7M477.9 162.3c-.3 0-55.1 12.8-62 7.6M485 146.7c-.2 0-52.5 17.1-56.9 12.8"/></g><path class="prefix__st6" d="M306.8 201.8c0-2.5-.8-7.3-3.4-9-3.4-1.8-3.4-2.8-3.6-5.1-.3-2.3 5.7-6.6 5.7-6.6s-5.4-2.4-7.4-2.2c-2 .3-5.9.7-6.5 1.2-.5.5-3.5-9.7-1.6-11.3 1.9-1.6 5.8 3.8 5.8 3.8s2.6-5.9-6.5-17.3c3.1-22.1-17.5-27.2-22.3-27.1-3.9-.5-14 3.1-15.6 8-5.1 1.8-5.4 6.2-5.4 6.2s-10.5 1.9-11.9 11.1c6.2-5.1 10.3.5 10.3.5s5.4 3.8 8.2 3.9c2.8.1-2.7 9.4-4.3 11.1-1.6 1.6-8.4 7.8-8.1 8.2.3.4 5.3 1.9 5 4.2-.3 2.3-15.4 9.3-14.6 11.1 3.9-1.2 7-.3 7-.3.5 3.8-1 8.2-3.6 9.7l72.8-.1z"/><path d="M245.5 142.9l4.9 4.9c1.3.4 8.8 4.1 8.4 6.5" fill="#ffd600" stroke="#000" stroke-width="1.495"/><path d="M258.7 154.4c-.4 2.5-5.3 3.7-5.3 3.7" fill="#ffd600" stroke="#000" stroke-width="1.495" stroke-linecap="round"/><path class="prefix__st6" d="M251.4 136.3l7.5 7.1s1.3 6.1 6.6 5.6 4.6-2.7 4.6-2.7-6.4-4.5-11.4-3.4"/><g><path class="prefix__st6" d="M329.8 265.5s6.6 6.4 6.8 7.7c.1 1.3 1.7 7.6 3.4 8.5s8.5 6.4 9.4 8.5c.9 2.1 6.9 11.1 6.9 11.1s5.6 11.4 9.3 12.3c3.7.9 14.2-.7 16.3 4.4 2.1 5 1.6 12.3 1.6 12.3s-2.5 2.3-3.7.9c-1.2-1.3-3.3 6.6-7 4.4-5.1-10.8-18.3-9-18.3-9s2.9-4.5-8.9-8.5c-18.4 3.2-23.9-16-23.9-16l-10.5-9.1 18.6-27.5z"/><path class="prefix__st6" d="M319.2 292.8l8.2 3.8-.7-7M330.8 291.7l7.6 3.7-3-6.1M330.4 281.8l7.4 4-3.4-7.7M342.2 318.3s-8.5-11.1-8.4-11.1c.1 0 14.4 2.8 14.4 2.8l-5.3-11.4L356 302M366.6 320s8.4 1.9 8.1 15.8M371 317.9s9-.5 8.5 13.5"/></g><g><path d="M215.5 267.2s-6.6 6.4-6.8 7.7c-.1 1.3-2.8 6.7-4.5 7.7-1.7.9-7.7 6.9-8.6 9-.9 2.1-6.6 11.4-6.6 11.4s-6.5 9.5-10.2 10.4c-4.5.4-13.2 1.3-15.3 6.3-2.1 5 1.2 12.7 3.6 12.7 3.7 1.6 5.4 3.4 6.6 2 2 .6.9 2.3 4.6.1-2.8-3.6-2.5-7.1.3-8 2.8-1 7.4 3.3 7.4 3.3s1.7-7.8 13.5-11.8c18.4 3.2 23.4-11.7 24.7-15.2 2.9-4 7.4-5 11.1-7.5l-19.8-28.1h0z" fill="#ffd600" stroke="#000" stroke-width="1.496" stroke-linecap="round"/><path class="prefix__st5" d="M226.5 292.9l-8.5 4.5.7-6.1M215.1 291.7l-8 3.7 3.7-6.3M215.4 281.9l-6.9 3 2.5-5.1M203.4 318.2c1.3-2.6 7.8-10.7 7.7-10.7-.1 0-13.5 2.8-13.5 2.8l4.3-11.2-11.7 2.3M179.3 319.9s-10.1 1.9-6.2 14.4"/><path class="prefix__st6" d="M174.9 318.2s-11.1.3-7.2 14.1"/></g><g><path class="prefix__st5" d="M302.8 302.8s.7 8.1-2.7 11.5c15.3 1 23.5 16.5 23.6 20.2.1 3.7-4.7 6.6-4.7 6.6s1.6 6.6-4.7 7.7c.1 6.3-4.3 6.3-4.3 6.3s-1.6 5.2-6.7 4.9c-1.5 7.6-9.3 7.4-9.3 7.4s-4.5 11-11.3 6.7c-4.3 9.3-15.5 8.9-19.8 0-2.3-.1-7.6 3-10.7-6.3-7 1.2-9.8-7.7-9.8-7.7s-4.7-.4-6.5-5.1c-5.5-1.1-4.5-6.6-4.5-6.6s-5.5-1.5-5.4-7.6c-4.4-2.6-4-7.3-4-7.3s3.4-16.2 23.4-19.7c-3.2-4.5-2.7-11.1-2.7-11.1l60.1.1z"/><path class="prefix__st5" d="M287.7 314.7c0 .3 2.1 8.9-4.7 10.3 13.3-3.6 27.2 30.2 27.2 30.2"/><path class="prefix__st5" d="M292.2 311.5s1.8 6.9-4.1 10.3c21.4 4.7 26.4 26.9 26.4 26.9"/><path d="M296.9 308.1c0-.1 3.7 9.3-4.3 11 20.5-1.5 26.2 21.9 26.2 21.9" fill="none" stroke="#000" stroke-width="1.869" stroke-linecap="round" stroke-linejoin="round"/><path class="prefix__st5" d="M281.2 318.5s3.4 6.6-2.9 8.7c12 1.2 15.8 40.5 15.8 40.5"/><path class="prefix__st5" d="M277.1 320.8s1.9 7.3-4.3 9.5c12.5-6.6 10.2 44.3 10.2 44.3M268.8 321.3s-2.6 7.7 3.2 9.2c-11.4-3.2-9.2 44.1-9.2 44.1"/><path class="prefix__st5" d="M263.5 318.2s-1.8 7 5.2 10.6c-11.7-7.4-16.5 39.4-16.5 39.4M282 324.7s21.3 20.5 21.2 35.6M248.4 308.2c0 .1-2.6 11 4.9 11.3M253.7 312.2c0 .3-2.1 9.2 4 9.6M258.5 314.8s-3.7 8.9 5.4 10.2M263.2 325.1c-.1 0-17.7 16.4-20.5 35.3M259.9 323.4c-.1 0-22.4 13.9-23.9 31.6M255 321.1s-24.7 14.4-23.6 27.5M249.1 318s-18.4 3.4-22.9 23.2"/></g></g><g><path class="prefix__st0" d="M210.2 191.3s17.8 9.8 30.6 9.3 31.9-8.8 31.9-8.8 17 9.6 30.8 8.2c13.8-1.3 33-8.8 33-8.8 11.4 57.1-14.6 108.3-63.8 131.3-52.2-23.7-77.5-81-62.5-131.2z"/><path class="prefix__st11" d="M216.8 232.8v35.7l10.1 17.1v-52.7h-10.1zM237 232.8v64.6l10.1 9.4v-74H237zM257.3 232.8v81.7l10.1 5.6v-87.3h-10.1zM328.1 232.8v35.7L318 285.7v-52.9h10.1zM307.8 232.8v64.9l-10.1 9.2v-74.1h10.1zM287.6 232.8v81.5l-10.1 6v-87.5h10.1z"/><path d="M210.2 191.3s4.5 2.5 10.5 4.9c6 2.4 13.7 4.7 20.1 4.5 12.8-.5 31.9-8.8 31.9-8.8s17 9.6 30.8 8.2c13.8-1.3 33-8.8 33-8.8 2.8 16.6 4.2 25 1.7 41.5H206.7c-1.7-16.4-1.6-23.8 3.5-41.5z" fill="#002768"/><path d="M338.2 232.8H206.7m3.5-41.5s17.8 9.8 30.6 9.3 31.9-8.8 31.9-8.8 17 9.6 30.8 8.2c13.8-1.3 33-8.8 33-8.8 11.4 57.1-14.6 108.3-63.8 131.3-52.2-23.7-77.5-81-62.5-131.2h0z" fill="none" stroke="#000" stroke-width="1.496"/></g><g><path class="prefix__st2" d="M15.9 207.7l29.2.1-2.9 7L55 265.4 70.4 215l-5.4-7.3h30.4l-6.5 7-25.1 72.2 6.5 9.4H41l6.5-9.4L23 215l-7.1-7.3zM464.5 209.4h27.8l-4.5 6.2-.1 73.5 6.2 6.9h-29.4l5.8-7.4-.1-72.8-5.7-6.4z"/></g></svg>
