<svg xmlns="http://www.w3.org/2000/svg" height="512" width="512" viewBox="0 0 512 512">
	<path d="M-71.872 407.856v-303.464l225.882 151.654-225.883 151.82z" />
	<path fill="#00c" d="M82.257 512.159l253.595-170.675h360.452v170.675h-614.047z" />
	<path fill="#f00" d="M65.954.007l630.331.013v170.703h-360.454s-266.498-172.405-269.877-170.717z" />
	<path fill="#fc0" d="M-71.872 64.032v40.336l225.882 151.654-225.883 151.82v40.334l284.503-192.154-284.502-191.99z" />
	<path fill="#093" d="M-71.872 64.032v-64.025h94.914l301.381 203.917h371.86v104.28h-371.86l-301.383 203.886h-94.913v-63.915l284.503-192.155-284.502-191.989z" />
	<path fill="#fff" d="M23.041.007h59.206l253.595 170.703h360.452v33.213h-371.86l-301.382-203.917zm0 512.151h59.206l253.595-170.675h360.452v-33.212h-371.86l-301.382 203.887z" />
</svg>
