<svg xmlns="http://www.w3.org/2000/svg" height="512" width="512" viewBox="0 0 512 512"><style>.prefix__st3{fill:#ef7d00;stroke:#000;stroke-width:.8;stroke-linecap:round;stroke-linejoin:round}</style><path fill="#198a00" d="M0 0h512v512H0z"/><path fill="#ef7d00" d="M420.6 182.8H512V512h-91.4z"/><path d="M329.2 182.8h91.4V512h-91.4z"/><path fill="#de2010" d="M237.8 182.8h91.4V512h-91.4z"/><path class="prefix__st3" d="M444.9 61.5s31.5-12.4 34.5-14.8c1.4 1.5-12.6 17.1-39.8 22.7 24.6-5.3 45.8-22.1 50-21.7 1.3.2 1 16.4-55.6 30.4 39-9.4 61.8-26.7 61.5-24.7.3.4-3.8 13.5-38.1 23.9 9.6-2 35.5-16.5 35.2-13.8.9 1.2-25.1 31.7-71.9 21.8 37.4 8.9 61.7-12.6 65.1-12.2.6.1-6.9 18.8-54.1 19.9 22.6-2.1 16.1-.1 16.1-.1s-13.3 9.5-29.3 3.1c12.6 3.2 14 3.3 14.3 4.4-.9 1.3-11.2 3.2-21.2-1.8 8 3.1 15.3 3.5 15.4 4.7-.1.4-5.2 3.1-9.8 1.2-4.6-1.9-46.7-25.7-46.7-25.7l71.8-18 2.6.7zM360.5 125.9c-6.3 0-6.5 5.1-6.5 5.1s-.5.3-.2 2.9c1.1-1.7 1.6-2.2 1.6-2.2.7.1 3.6.9 8.2-2.3-4.2 3.9-1.7 5.4-1.7 5.4s-1 3.1 2.2 3.7c-1-1.3-.4-2.3-.4-2.3s4.5-.4 4.2-5.4c.2 4.5 2.9 5.7 2.9 5.7s0 2.5 2.9 2.7c-1.6-1.3-1.2-3.2-1.2-3.2s3.7-2.5.5-6.7c1.9-1 3.5-3.8 3.5-3.8s-2.6-1-3.8-1.8c-.5-1.1-.1-7.3-.1-7.3l-1.6-7.9-4.5 12.4c.2-2.1.3 5-6 5z"/><path class="prefix__st3" d="M391.7 108.1c.1.1 4.7 4.8 9.2 4.6 1.7-1.3-3.4-4.1-3.4-4.7 1.8 1.5 9.4 7.5 14.3 5.3 1.9-2.6-3.4-2.1-9.4-9.1 4.2 2.6 14.5 8.1 19.4 6 2-2-10.8-8.4-15.1-13.3l-11.2-5.1-15.2 11.2 11.4 5.1zM374.6 69.4s5.1-2.8 25.6-1.4c2.2.2 14-3.7 17.7-4.8 6-1.1 25-4.8 30.1-8.4 3.6-.4-1 6.1-5.5 7.6-4.8 2-22.4 7.6-28.7 6.8 7.5.1 3.3 5.8-9.2 3.1 6 3.1 3.7 3.5 3.7 3.5s-10.6.5-13.3-1.6c7 2.5 4.2 3.3 4.2 3.3s-7.3.6-10.6-.7c5.1 1.4 2.5 2.2 2.5 2.2s-4.2.6-7.6-.5c-3.3-1.1-8.6-9.1-8.9-9.1zM382.8 110.7l.7 12.5s-.4.6-.7 1c-.3.3-9.6-1.3-8.3 5.1 0 2.7.1 3.3 2 4.8-.5-1.7-.3-3-.3-3s2.6 1.4 5.1-2.5c-1.7 3.8-.5 5.2-.1 5.3.4.6-.7 3.8 2.8 3.7-1.3-1.2-.7-2.9-.7-2.9s3.6-.5 2.3-6.6c1.3-1.2 1.8 0 1.8 0s.4 3.6 3.6 2.9c1.5.7-.2 2.7-.2 2.7s2.3.1 3-1.7c.7-1.8 1.5-5-2.3-6.4-.4-1.3 1.5-1.4 1.5-1.4s2.5.7 3.1 1.8c.7 1.1.4-2.9-2.6-3.3-3.7-.1-3.9-.7-3.9-1 0-.1-.6-9.1-1-11.6l-5.8.6z"/><path class="prefix__st3" d="M395.7 121.3c0-.5-6.3-8.4-4.7-9.5 1.6.3 4.3 3.8 6.4 2.8-.6-1.4-2.6-.6-4.7-4.2-2.1-4.1-2.5-10.1-10.1-16.7 4.9 7 16.1 11.1 16.6 9.1.4-2-9.8-9.7-9.3-11.6 2 3.8 12.4 12.3 20.1 11.6.5-1.6-6.3-4.9-8-8-4.9-3-17.9-13.3-18.2-15.7-4.8-6.4-7.7-8.3-9.1-9.1-.5-.5-.6-1.2-.7-1.5-3-6.4 1-8.4 3.2-8.7 1.9-.2 2.5.1 3.7-.5-1.6-.5-3.2-1.1-4.8-1.7 2.1 1.4 7.5.2 6.3 4.3 2.3-.9 7.4-6.3-5.7-7.5-4.3-4.5-21.5-7-25.9 12.4.3.3.5.5 1.6 1.3-5.4-2.5-20.3-4.3-25.6-5.1-14.4-4-29.3-13.2-30.8-12-1.9.7 8.7 9.8 8.1 10-9.2-4.9-17.6-8.4-25.5-11.6-5.5-1.9-11-6.3-11.6-5.4-2 3.8 8.9 13.5 10.9 14.7 2 1.1 17.9 7.9 17.7 7.9-23.9-9.9-27.9-11.7-29.1-12.9-2.1-.4-7.3-6.8-8.6-6.4-.8.7.7 10.7 12.1 15.2 1.8 1.3 24.4 8.6 24.2 9.3-.1.1-25.9-9.8-26.9-10.1-5-1.8-11.1-8.1-12.3-7.4-1.1.6 2.8 7.5 7.9 9.6 2.7 1.1 12.8 5.7 21.9 8.6.5.2-16.4-5.9-24.5-9.1-3.7-1.9-5.4-4.3-6-3.7-.9.5 1.4 10.6 27.5 16.2.6.3 9.3-1.8 8.9-1.6-.1.1-8.4 1.7-9.3 1.7-.7-.1-5.3.5-5.4.7-.3.6 1.7 4.3 15.3 3.5 1.7-.1 11.1-3.1 10.3-2.5-.4.3-12.8 4.1-13.8 4.1-.9.1-5.2.5-5.3 1-.2.5 3.2 3.1 10.5 3.5 6.4.3 18.7-3.6 18.5-3.3-.2.2-11.8 3.8-12.1 4.1-.4.2-4.7.4-4.8.7-.3.7 6.1 6.3 25.2.3-1.9 2.3-11.2 3.9-11.1 4.4 0 .3 2 2.1 5.2 2.8 1.6.3 3.8.2 5.9 0 3.6-.6 7.5-2 12.3-6.1.5 1.3-12.2 7.1-11.5 7.8 2.8 2.3 11.9-.3 12.5-.6.6-.3 17.6-9.1 17.6-10.1.2 1.3-22 12.4-21.8 12.8 1.4 2.1 9.1-.1 9.4-.3.3-.2 9.7-4.8 9.9-4.9.2-.1-11 6-9.9 6.9-.5 3.9 17.5-2.8 18.9-3.6.7-.4-8.6 3.7-8.6 5.8 3 4.7 12.7 3.2 14.2 2.1.7-.5-.9 3.5-.3 3.1.2-.1 2.1-2.1 2.9-3.6-.2 1.3-1.3 3.4-1.9 5.8-.6 2.3-.7 5-1.6 7.9-.2 1.3 6-2.5 5-11.2.5 4.6-1.9 13.1-1.3 13.5 1.3.9 4.9-4.3 5.2-7.7 1.1 1.7 3.3 5.4 5.2 6.3-.2-2.7 0-2.6-.9-5.1.5-3.4.5-8.2.6-13.7 5.2 9.2 7.3 13 5.8 19.9 1.5.6 4.1-4.9 3.8-7.7 1.7 7.7 10.3 8.9 10.4 8.7z"/><path class="prefix__st3" d="M309.2 63.4s-3.5 2.5-7.9 2.3c1.1 4.1 10.2 1 10.2 1s-4.4 4.5-7.6 5.2c1.9 1.5 9.8 1 11.2.2 1.4-.7 3.7-3.5 3.7-3.5s-8.2 8.6-9.4 8.5c-.1 1 8.5.6 10.3-.9 1.8-1.5 6.4-3.7 6.4-3.7s-11.9 7.7-12.5 7.7c4.5 1.1 13.4-1.3 19.2-4.6-8.5 5.2-9.3 6.1-13.5 7.9 3.8.7 5.8 3.2 18.9-2 7.5-3.2 11.7-9.2 11.7-9.2-4.6 5.7-11.9 10.6-20.1 15.3-.4.9 8.6 4.4 20.3-6.7M372.4 87.5s.7 3.4 3.9 6c3.1 2.6 3.4 5.1 3.4 5.1M370.8 65.4s1.1 3 4.3 5c3.3 1.9 8.2 8.1 8.6 9.2.4 1.3 2.2 10.8 2.1 11.7"/><path class="prefix__st3" d="M350.8 70.1c.2 1.2-4.6 7 2 13.9-6.1 6.7-6.1 7.7-6.1 7.7s3.4 1.7 9.4-3c10 11.2 6.6 16.4 6.6 16.4"/><path class="prefix__st3" d="M362 97s-1-1.2.7-5.8c1.5 1.6 3.1 2 3.8 2.7s8.2 1.7 8.7 6.3M370.9 54.6c0-.3-1.5-3.3-7.1.4 3 .3 6 1.9 7.1-.4zM425 68.3c.3.1 16.9 3.4 22.4 1.8-7 8.6-21.2 2.8-21.2 2.8 6.9 1.9 7.3 1.8 9.4 3.5.6 1.6-12.8.9-17.2-1.4 12.4 3.5 12.6 3.3 13 4.7.5 1.9-20.3-.5-22.1-3.1 5.5 3.9 8.6 4.7 11.6 6.5-3.7 1.5-10.7 3.1-23.5-5.2 16.7 14 31.9 13.1 34.2 15.7-5.9 7.9-28.4-4.7-38.8-11.1-10.3-6.4 22.7 15.4 25.8 15-1.5 2.1-12.5.2-13.1-.7M429.2 82.9c-1.9.2-7.8.2-8.6.1M304.3 61.1s12.7 6.1 18 5.7c-1.4 1.2-3.5 1.7-3.5 1.7 1.4.5 5 2.3 10.6 1.2-1.4 1.2-3.1 2.6-3.1 2.6s4.8 1.7 10.2-1c-1.6 1.9-2.6 3.2-2.6 3.2l3.7.2"/></svg>
