<svg xmlns="http://www.w3.org/2000/svg" height="512" width="512" viewBox="0 0 512 512"><defs><clipPath id="a"><path fill-opacity=".67" d="M0 0h496.06v496.06h-496.06z"/></clipPath></defs><g clip-path="url(#a)"><path fill-rule="evenodd" fill="#319208" d="M0 438.849h1023.977v73.141h-1023.977z"/><path fill-rule="evenodd" fill="#de2010" d="M0 292.559h1023.977v73.141h-1023.977z"/><path fill-rule="evenodd" fill="#ffd200" d="M0 365.704h1023.977v73.141h-1023.977z"/><path fill-rule="evenodd" fill="#de2010" d="M0 146.28h1023.977v73.141h-1023.977z"/><path fill-rule="evenodd" fill="#ffd200" d="M0 73.141h1023.977v73.141h-1023.977z"/><path fill-rule="evenodd" fill="#319208" d="M0 0h1023.977v73.141h-1023.977z"/><path d="M28.891 0v511.984l343.762-255.992-343.762-255.992zM0 0h29.256v511.984h-29.256zM0 0v511.984l373.022-255.992-373.022-255.992zM0 219.424h1023.977v73.141h-1023.977z" fill-rule="evenodd"/><path d="M0 0v511.984l343.762-255.992-343.762-255.992z" fill-rule="evenodd" fill="#fff"/><path fill="#d62419" fill-rule="evenodd" d="M131.973 114.662l27.271 90.366 97.404.855-77.523 53.863 29.296 92.886-75.178-57.081-79.296 56.567 31.055-89.142-78.31-57.932 94.387 1.986z"/><path d="M50.057 166.226c1.658-2.985 1.989-4.643 10.612-8.292 11.276-32.832 40.129-19.898 56.048 25.537 14.592 6.301 101.815 71.303 100.488 74.951-.664 3.316-11.608.664-11.608.664s-17.245 73.625-17.577 73.625c-32.171-4.311-82.248-4.975-116.411-4.311.331-5.638-9.286-42.451-9.286-42.451s-8.292-2.652 5.637-30.842c14.924-35.486 17.909-93.192-17.908-88.88z" fill-rule="evenodd" stroke="#000" fill="#f7df00" stroke-width="1.032"/><path d="M77.09 148.196a3.535 3.535 0 1 1-7.07 0 3.535 3.535 0 0 1 7.07 0zm35.03 29.57s-27.635 15.745-35.668 15.423m122.748 57.837c-1.928-1.607-102.5-6.427-98.327-40.488m16.067 41.128s10.925 6.427 20.243-10.282m-8.033 9.962s7.712 7.069 18.959-8.354m-87.399 34.064s7.069.964 8.355-3.213m25.055 44.663c0-.321-7.069-45.629-7.069-45.629 34.918 3.106 71.121 3.321 104.75 9.319" stroke="#000" fill="none" transform="scale(1.032)"/><path d="M93.489 282.269l9.947 11.606 10.281-9.948 8.621 9.286m2.657.336l8.621-7.628 9.286 8.954m1.649-.005l9.617-8.621 7.295 8.622m3.986.34l8.622-5.969 7.626 7.295m5.97-.335l6.3-5.969M91.827 292.877l10.612 12.27 10.611-9.617 9.285 9.948 10.612-9.285 8.954 10.611 10.943-9.285s8.29 10.28 9.285 10.28l10.943-8.621 9.617 10.611 13.263-10.611m-102.464 5.639s85.556 3.317 99.483 6.633m-85.22-45.426s81.244 4.311 94.177 9.285" stroke="#000" fill="none" stroke-width="1.032"/><path d="M88.34 224.996c.643 4.82-5.141 21.529-11.246 27.313-8.355 6.748-7.391 20.886-7.391 20.886.964 5.784 13.496 5.141 15.103 2.25 1.285-13.175 15.423-16.067 15.423-16.067s19.602-5.462 27.956-21.85m-.325 29.238a4.177 4.177 0 1 1-8.355 0 4.177 4.177 0 0 1 8.355 0zm18.64 1.61a4.177 4.177 0 1 1-8.355 0 4.177 4.177 0 0 1 8.355 0z" stroke="#000" fill="none" transform="scale(1.032)"/></g></svg>