<svg xmlns="http://www.w3.org/2000/svg" height="512" width="512" viewBox="0 0 512 512"><path fill="#319208" d="M0 438.849h1023.977v73.141H0z"/><path fill="#de2010" d="M0 292.559h1023.977V365.7H0z"/><path fill="#ffd200" d="M0 365.704h1023.977v73.141H0z"/><path fill="#de2010" d="M0 146.28h1023.977v73.141H0z"/><path fill="#ffd200" d="M0 73.141h1023.977v73.141H0z"/><path fill="#319208" d="M0 0h1023.977v73.141H0z"/><path d="M28.891 0v511.984l343.762-255.992L28.891 0zM0 0h29.256v511.984H0zm0 0v511.984l373.022-255.992L0 0zm0 219.424h1023.977v73.141H0z"/><path d="M0 0v511.984l343.762-255.992L0 0z" fill="#fff"/><path fill="#d62419" d="M131.973 114.662l27.271 90.366 97.404.855-77.523 53.863 29.296 92.886-75.178-57.081-79.296 56.567 31.055-89.142-78.31-57.932 94.387 1.986z"/><path d="M50.057 166.226c1.658-2.985 1.989-4.643 10.612-8.292 11.276-32.832 40.129-19.898 56.048 25.537 14.592 6.301 101.815 71.303 100.488 74.951-.664 3.316-11.608.664-11.608.664s-17.245 73.625-17.577 73.625c-32.171-4.311-82.248-4.975-116.411-4.311.331-5.638-9.286-42.451-9.286-42.451s-8.292-2.652 5.637-30.842c14.924-35.486 17.909-93.192-17.908-88.88z" stroke="#000" fill="#f7df00" stroke-width="1.032"/><path d="M79.557 152.938a3.648 3.648 0 11-7.296 0 3.648 3.648 0 017.296 0zm36.15 30.517S87.19 199.703 78.899 199.37m126.676 59.688c-1.99-1.659-105.78-6.633-101.473-41.784m16.581 42.444s11.275 6.633 20.89-10.61m-8.29 10.28s7.96 7.295 19.566-8.621m-90.195 35.154s7.295.995 8.622-3.316m25.857 46.092c0-.331-7.295-47.089-7.295-47.089 36.035 3.205 73.397 3.427 108.102 9.617" stroke="#000" fill="none" stroke-width="1.032"/><path d="M93.489 282.269l9.947 11.606 10.281-9.948 8.621 9.286m2.657.336l8.621-7.628 9.286 8.954m1.649-.005l9.617-8.621 7.295 8.622m3.986.34l8.622-5.969 7.626 7.295m5.97-.335l6.3-5.969m-102.14 2.644l10.612 12.27 10.611-9.617 9.285 9.948 10.612-9.285 8.954 10.611 10.943-9.285s8.29 10.28 9.285 10.28l10.943-8.621 9.617 10.611 13.263-10.611m-102.464 5.639s85.556 3.317 99.483 6.633m-85.22-45.426s81.244 4.311 94.177 9.285" stroke="#000" fill="none" stroke-width="1.032"/><path d="M91.167 232.196c.663 4.974-5.306 22.218-11.606 28.187-8.622 6.964-7.628 21.554-7.628 21.554.995 5.97 13.928 5.306 15.587 2.322 1.326-13.596 15.916-16.58 15.916-16.58s20.23-5.638 28.85-22.55m-.334 30.174a4.311 4.311 0 11-8.623 0 4.311 4.311 0 018.623 0zm19.236 1.661a4.311 4.311 0 11-8.622 0 4.311 4.311 0 018.622 0z" stroke="#000" fill="none" stroke-width="1.032"/></svg>
