<svg width="36" height="36" viewBox="0 0 36 36" fill="none" xmlns="http://www.w3.org/2000/svg">
    <mask id="mask0_2813_429" style="mask-type: alpha" maskUnits="userSpaceOnUse" x="4" y="6" width="28" height="25">
        <path
            fill-rule="evenodd"
            clip-rule="evenodd"
            d="M4.00006 27.3174C4.00006 28.949 5.3228 30.2718 6.95447 30.2718L29.0456 30.2262C30.6773 30.2262 32 28.9035 32 27.2718V17.8177C32 11.2909 26.709 6 20.1823 6L6.95447 6.04558C5.32279 6.04558 4.00006 7.36832 4.00006 8.99999L4.00006 18.2628H4V26.4064H4.00006L4.00006 27.3174ZM4.00006 26.4064H9.84007C11.9446 26.4064 13.6511 24.5831 13.6511 22.3346C13.6511 20.086 11.9446 18.2627 9.84007 18.2627L4.00006 18.2628L4.00006 26.4064ZM9.54645 20.1811C10.743 20.1811 11.713 21.1511 11.713 22.3477C11.713 23.5443 10.743 24.5143 9.54645 24.5143C8.34989 24.5143 7.37988 23.5443 7.37988 22.3477C7.37988 21.1511 8.34989 20.1811 9.54645 20.1811Z"
            fill="white"
        />
    </mask>
    <g mask="url(#mask0_2813_429)">
        <path
            d="M6.95844 30.2262C5.32677 30.2262 4.00403 28.9035 4.00403 27.2718L4.00403 8.95442C4.00403 7.32274 5.32676 6.00001 6.95844 6.00001L20.1823 6.00001C26.709 6.00001 32 11.2909 32 17.8177L32 27.2718C32 28.9035 30.6773 30.2262 29.0456 30.2262L6.95844 30.2262Z"
            fill="url(#paint0_linear_2813_429)"
        />
        <path
            d="M6.95454 30.287C5.32286 30.287 4.00012 28.9642 4.00012 27.3326L4.00012 10L17.2279 10C22.123 10 26.0912 13.9682 26.0912 18.8632V30.287H6.95454Z"
            fill="#6D4AFF"
        />
        <path
            d="M6.95454 30.287C5.32286 30.287 4.00012 28.9642 4.00012 27.3326L4.00012 10L17.2279 10C22.123 10 26.0912 13.9682 26.0912 18.8632V30.287H6.95454Z"
            fill="url(#paint1_linear_2813_429)"
            fill-opacity="0.9"
        />
        <path
            d="M8.19012 30.2262L12.6978 25.1052L4.00012 26.1885V27.2718C4.00012 28.9034 5.32286 30.2262 6.95454 30.2262H8.19012Z"
            fill="#FFBB93"
        />
        <path
            fill-rule="evenodd"
            clip-rule="evenodd"
            d="M9.84007 26.4064C11.9446 26.4064 13.6511 24.5831 13.6511 22.3346C13.6511 20.086 11.9446 18.2628 9.84007 18.2628L4 18.2628V26.4064H9.84007ZM11.713 22.3477C11.713 21.1512 10.743 20.1811 9.54645 20.1811C8.34989 20.1811 7.37988 21.1512 7.37988 22.3477C7.37988 23.5443 8.34989 24.5143 9.54645 24.5143C10.743 24.5143 11.713 23.5443 11.713 22.3477Z"
            fill="white"
        />
    </g>
    <defs>
        <linearGradient
            id="paint0_linear_2813_429"
            x1="0.486259"
            y1="8.81943"
            x2="35.1236"
            y2="22.312"
            gradientUnits="userSpaceOnUse"
        >
            <stop stop-color="#957AFD" />
            <stop offset="1" stop-color="#FFC6C6" />
        </linearGradient>
        <linearGradient
            id="paint1_linear_2813_429"
            x1="24.8427"
            y1="13.1146"
            x2="14.0992"
            y2="34.9758"
            gradientUnits="userSpaceOnUse"
        >
            <stop offset="0.149916" stop-color="#FA528E" stop-opacity="0" />
            <stop offset="0.720842" stop-color="#FF8065" />
            <stop offset="1" stop-color="#FFA51F" />
        </linearGradient>
    </defs>
</svg>
