<svg xmlns="http://www.w3.org/2000/svg" width="16" height="16" fill="none" viewBox="0 0 35 35">
    <path fill="url(#a)" d="M5.834 8.59c0-.092 0-.138.015-.178a.233.233 0 0 1 .063-.092.53.53 0 0 1 .161-.078l14.195-5.435c1.029-.394 1.543-.591 1.956-.5.36.078.675.295.878.603.231.353.231.904.231 2.006v10.066c0 .718 0 1.077-.12 1.381-.107.27-.28.507-.503.691-.253.209-.594.32-1.277.54l-12 3.88c-1.212.392-1.818.588-2.3.464a1.715 1.715 0 0 1-1.02-.742c-.267-.42-.268-1.057-.27-2.331L5.834 8.59Z"/>
    <path fill="url(#b)" d="M5.833 13.109c0-.671 0-1.007.109-1.297.095-.256.25-.486.453-.67.23-.208.54-.333 1.164-.582l10.793-4.317c.692-.277 1.038-.415 1.315-.357.243.05.456.194.593.4.157.237.157.61.157 1.355v7.402c0 .755 0 1.132-.131 1.447a1.715 1.715 0 0 1-.541.705c-.27.208-.635.305-1.364.5l-9.093 2.432c-1.175.314-1.763.471-2.227.334a1.716 1.716 0 0 1-.975-.75c-.253-.412-.253-1.02-.253-2.236v-4.366Z"/>
    <mask id="e" width="19" height="20" x="5" y="2" maskUnits="userSpaceOnUse" style="mask-type:alpha">
        <path fill="url(#c)" d="M5.834 8.59c0-.092 0-.138.015-.178a.233.233 0 0 1 .063-.092.53.53 0 0 1 .161-.078l14.195-5.435c1.029-.394 1.543-.591 1.956-.5.36.078.675.295.878.603.231.353.231.904.231 2.006v10.066c0 .718 0 1.077-.12 1.381-.107.27-.28.507-.503.691-.253.209-.594.32-1.277.54l-12 3.88c-1.212.392-1.818.588-2.3.464a1.715 1.715 0 0 1-1.02-.742c-.267-.42-.268-1.057-.27-2.331L5.834 8.59Z"/>
        <path fill="url(#d)" d="M5.833 13.109c0-.671 0-1.007.109-1.297.095-.256.25-.486.453-.67.23-.208.54-.333 1.164-.582l10.793-4.317c.692-.277 1.038-.415 1.315-.357.243.05.456.194.593.4.157.237.157.61.157 1.355v7.402c0 .755 0 1.132-.131 1.447a1.715 1.715 0 0 1-.541.705c-.27.208-.635.305-1.364.5l-9.093 2.432c-1.175.314-1.763.471-2.227.334a1.716 1.716 0 0 1-.975-.75c-.253-.412-.253-1.02-.253-2.236v-4.366Z"/>
    </mask>
    <g mask="url(#e)">
        <path fill="url(#f)" d="M5.833 1.167h17.5v17.5h-17.5z"/>
    </g>
    <path fill="url(#g)" d="M5.833 8.849c0-.231 0-.347.049-.423a.315.315 0 0 1 .185-.137c.087-.024.198.01.419.078l18.745 5.768c1.043.321 1.565.482 1.951.794.342.276.607.635.77 1.043.185.46.185 1.007.185 2.099v10.554c0 .97 0 1.455-.203 1.772a1.287 1.287 0 0 1-.775.556c-.366.09-.825-.066-1.743-.378L9.378 25.122c-1.275-.434-1.913-.65-2.384-1.048-.416-.35-.738-.8-.936-1.307-.225-.574-.225-1.247-.225-2.594V8.85Z"/>
    <path fill="url(#h)" d="m5.833 11.667 14.742 4.69c.703.223 1.054.335 1.314.548.23.189.407.432.516.708.124.313.123.681.121 1.419l-.024 10.555-13.124-4.465c-1.276-.433-1.913-.65-2.384-1.048-.416-.35-.738-.8-.936-1.307-.225-.573-.225-1.247-.225-2.593v-8.507Z"/>
    <defs>
        <linearGradient id="a" x1="25.353" x2="-1.411" y1="27.55" y2="4.193" gradientUnits="userSpaceOnUse">
            <stop offset=".198" stop-color="#F5AC87" stop-opacity=".89"/>
            <stop offset=".961" stop-color="#7B5FF3"/>
        </linearGradient>
        <linearGradient id="b" x1="5.152" x2="19.428" y1="19.527" y2="3.59" gradientUnits="userSpaceOnUse">
            <stop offset=".198" stop-color="#E8621C" stop-opacity=".89"/>
            <stop offset=".961" stop-color="#532CF6"/>
        </linearGradient>
        <linearGradient id="c" x1="25.353" x2="-1.411" y1="27.55" y2="4.193" gradientUnits="userSpaceOnUse">
            <stop offset=".198" stop-color="#B27757" stop-opacity=".89"/>
            <stop offset=".961" stop-color="#7B5FF3"/>
        </linearGradient>
        <linearGradient id="d" x1="5.152" x2="19.428" y1="19.527" y2="3.59" gradientUnits="userSpaceOnUse">
            <stop offset=".198" stop-color="#FFC6A8" stop-opacity=".89"/>
            <stop offset=".961" stop-color="#9178F6"/>
        </linearGradient>
        <linearGradient id="f" x1="16.917" x2="26.833" y1="17.5" y2="0" gradientUnits="userSpaceOnUse">
            <stop stop-opacity=".53"/>
            <stop offset="1" stop-color="#686868" stop-opacity="0"/>
            <stop offset="1" stop-color="#686868" stop-opacity="0"/>
            <stop offset="1" stop-color="#3E3E3E" stop-opacity="0"/>
        </linearGradient>
        <linearGradient id="g" x1="30.711" x2="-.557" y1="38.191" y2="8.171" gradientUnits="userSpaceOnUse">
            <stop offset=".198" stop-color="#F5AC87" stop-opacity=".89"/>
            <stop offset=".961" stop-color="#7B5FF3"/>
        </linearGradient>
        <linearGradient id="h" x1="4.991" x2="22.876" y1="28.927" y2="9.198" gradientUnits="userSpaceOnUse">
            <stop offset=".198" stop-color="#E8621C" stop-opacity=".89"/>
            <stop offset=".961" stop-color="#532CF6"/>
        </linearGradient>
    </defs>
</svg>