<svg xmlns="http://www.w3.org/2000/svg" width="56.336" height="44.066"><defs><style>.cls-1{fill:#e4e4e4}.cls-2{fill:#657ee4}</style></defs><g id="Group_6036" data-name="Group 6036" transform="translate(-8.6 -16.3)"><circle id="Ellipse_937" cx="4.813" cy="4.813" r="4.813" class="cls-1" data-name="Ellipse 937" transform="translate(19.04 20.91)"/><path id="Path_5305" d="M33.689 60.369L25.418 46.2 14.3 65.521h23.8l-2.373-8.745z" class="cls-1" data-name="Path 5305" transform="translate(-1.836 -9.63)"/><path id="Path_5306" d="M57.879 32.3L47.1 50.875l2.237 10.169h25.152z" class="cls-1" data-name="Path 5306" transform="translate(-12.399 -5.153)"/><path id="Path_5307" d="M23.582 36.57l8.2 14.237 2.1-3.593-2.034-7.593 3.729-6.712-2.441-3.186 3.8-5.762L34.7 16.3H8.6v44.066h28.88l-1.22-4.407h-23.8zm.271-15.66a4.813 4.813 0 1 1-4.813 4.813 4.832 4.832 0 0 1 4.814-4.813z" class="cls-2" data-name="Path 5307"/><path id="Path_5308" d="M51.469 16.3l1.631 7.8-4.542 4.881 2.842 3.454-6.1 7.593 1.22 5.695L57.3 27.147l16.609 28.744H48.757l.949 4.474h27.05V16.3z" class="cls-2" data-name="Path 5308" transform="translate(-11.82)"/></g></svg>