<svg width="1440" height="1152" viewBox="0 0 1440 1152" fill="none" xmlns="http://www.w3.org/2000/svg">
<g clip-path="url(#clip0)">
<rect width="1440" height="1152" fill="url(#paint0_linear)"/>
<path d="M1653.8 718.387C1626.48 710.276 1607.28 711.36 1595.03 713.689C1577.06 717.102 1544.31 728.786 1523.36 740.35C1518.99 742.759 1510.54 747.698 1501.07 746.614C1495.39 745.972 1493.63 743.603 1485.1 742.799C1480.36 742.358 1475.99 742.599 1470.72 742.88C1463.21 743.281 1460.39 744.004 1456.35 742.96C1452.47 741.956 1448.3 740.631 1444.87 739.387C1439.65 737.54 1434.75 738.583 1430.09 739.748C1416.66 743.161 1413.39 746.453 1404.53 749.385C1395.26 752.436 1375.41 758.981 1359.08 754.685C1356.5 754.002 1351.93 752.476 1344.7 751.392C1335.88 750.067 1331.06 750.589 1328.73 750.91C1325.63 751.352 1323.51 752.035 1319.95 753.199C1309.42 756.612 1309.7 758.62 1304.8 758.86C1300.03 759.101 1297.7 757.254 1291.25 757.817C1289.82 757.937 1288.43 758.057 1286.71 758.579C1283.85 759.463 1283.57 760.386 1280.87 761.029C1279.12 761.43 1277.65 761.43 1275.81 761.43C1273.48 761.43 1272.79 761.069 1270.21 760.908C1270.21 760.908 1268.13 760.788 1265.15 760.948C1258.49 761.31 1251.14 763.639 1250 764L1654 761.751L1653.8 718.387Z" fill="#353F6C"/>
<path d="M169 720C169 720 151.752 719.768 139.229 715.361C129.728 712.01 128.331 712.784 124.14 714.175C120.812 715.309 117.281 715.979 113.674 716.134C108.594 716.34 104.25 715.464 101.557 712.191C97.9758 707.809 94.3687 704.381 84.3857 702.809C73.9962 701.237 77.1461 694.665 59.9997 696.546C42.8533 698.428 40.0591 699.278 32.8957 692.423C25.7323 685.567 18.7213 684.046 10.4403 685.284C2.15918 686.521 0 680 0 680L0.12701 720H169Z" fill="#353F6C"/>
<path d="M80 755C84.5887 754.841 89.5572 751.786 91.9054 751.012C95.7186 749.762 96.5372 748.771 100.587 747.818C102.246 747.421 105.262 746.747 109.162 746.925C112.932 747.084 113.406 747.878 116.422 747.719C119.632 747.541 121.01 746.549 123.682 745.815C128.744 744.426 133.29 745.14 135.617 745.914C140.615 747.58 139.947 747.838 146.022 749.604C150.826 751.012 154.575 752.103 159.034 751.409C162.675 750.834 163.472 748.909 168.513 746.707C173.447 744.545 176.14 744.704 179.651 745.715C183.292 746.747 183.917 747.917 188.333 748.215C190.358 748.354 190.66 748.017 194.516 748.017C195.981 748.017 198.739 747.997 201.13 748.314C205.611 748.89 207.83 750.497 211.428 752.004C214.401 753.254 218.839 754.643 225 755H81.5H80Z" fill="#353F6C"/>
<path d="M1563.5 913.994L1551.75 889.08L1502.98 849.847L1478.69 824.737L1427.38 790.8L1420.13 781.188L1364.11 834.153L1318.87 873.387L1283.81 890.65L1254.04 899.673L1237 913.994H1563.5Z" fill="url(#paint1_linear)"/>
<path d="M1414.84 786.297L1430.71 821.607H1446.38L1471.45 859.271L1412.3 914.002V874.18L1364.31 914.002H1563.5C1563.5 914.002 1554.88 890.266 1553.32 889.677C1551.75 889.089 1503.18 849.855 1503.18 849.855L1478.89 824.746L1427.38 790.808L1420.13 781L1414.84 786.297Z" fill="url(#paint2_linear)"/>
<path d="M152.769 927.995L142.519 906.266L99.9831 872.047L78.8006 850.147L50.7223 825.519L27.7233 812.164L-21.1333 858.36L-60.5943 892.579L-91.1723 907.635L-117.138 915.505L-132 927.995H152.769Z" fill="url(#paint3_linear)"/>
<path d="M23.11 816.62L42.4298 828.326L72.0744 876.445L56.827 881.339L32.4059 910.557L0.571188 900.09L-20.9634 928.002H152.768C152.768 928.002 145.251 907.3 143.885 906.787C142.518 906.273 100.153 872.054 100.153 872.054L78.9705 850.154L50.6132 825.519L27.7223 812L23.11 816.62Z" fill="url(#paint4_linear)"/>
<path d="M983.346 913.721L962.102 885.395C962.102 885.395 938.936 880.236 937.014 879.629C935.092 879.022 910.004 860.004 910.004 860.004L858.513 929.097L812.788 967.032L774.853 1005.68L983.346 953.578V913.721Z" fill="url(#paint5_linear)"/>
<path d="M913.241 971.075V932.836L933.776 909.67L929.932 901.375L944.095 895.002L910.003 860L937.013 879.625L962.101 885.391L983.345 913.717V953.574L913.241 971.075Z" fill="url(#paint6_linear)"/>
<path d="M920.257 948.906L994.532 879.936L1048.55 849.189L1106.07 790.106L1117.04 788.297L1131.99 800.958L1181.06 746.337L1203.85 731.747L1227.61 701H1233.39L1298.63 798.426L1312.37 803.852L1366.99 874.992L1391.59 884.156L1430.54 911.888L920.257 948.906Z" fill="url(#paint7_linear)"/>
<path d="M1131.52 801.176L1112.84 821.554L1118.86 806.602H1114.04L1105.6 790.324L1116.57 788.516L1131.52 801.176Z" fill="url(#paint8_linear)"/>
<path d="M1203.39 731.969L1225.94 764.283L1209.66 763.68L1180.6 746.559L1203.39 731.969Z" fill="url(#paint9_linear)"/>
<path d="M1288.64 834.93L1221.48 912.099H1375.45L1354.59 874.48L1340.73 888.105L1291.17 803.822L1311.91 804.063L1298.16 798.637L1232.93 701.211H1227.14L1223.52 705.913L1275.25 788.508L1251.26 811.418L1288.64 834.93Z" fill="url(#paint10_linear)"/>
<path d="M1391.13 884.371L1383.41 893.053L1400.89 912.104H1430.07L1391.13 884.371Z" fill="url(#paint11_linear)"/>
<path d="M1201.34 912.108L1226.66 874.488L1156.85 912.108H1201.34Z" fill="url(#paint12_linear)"/>
<path d="M570 1082C570 1082 858.781 902.457 1339.64 902.457C1488 902.457 1636 984.998 1636 984.998L1776 1082H698.896H570Z" fill="#171F3C"/>
<path d="M1287 914L1302.5 871L1318 914H1287Z" fill="#171F3C"/>
<path d="M1272 921L1288 878L1304 921H1272Z" fill="#171F3C"/>
<path d="M1151 934L1167.5 889L1184 934H1151Z" fill="#171F3C"/>
<path d="M1130 922L1146.5 877L1163 922H1130Z" fill="#171F3C"/>
<path d="M1221 914L1236.5 871L1252 914H1221Z" fill="#171F3C"/>
<path d="M1247 913L1268.45 854L1290 913H1247Z" fill="#171F3C"/>
<path d="M1312 913L1333.55 854L1355 913H1312Z" fill="#171F3C"/>
<path d="M1368 919L1389.55 860L1411 919H1368Z" fill="#171F3C"/>
<path d="M1351 916L1363.53 882L1376 916H1351Z" fill="#171F3C"/>
<path d="M1059 948L1076 901L1093 948H1059Z" fill="#171F3C"/>
<path d="M1031 939L1049.45 888L1068 939H1031Z" fill="#171F3C"/>
<path d="M1004 934L1023.05 883L1042 934H1004Z" fill="#171F3C"/>
<path d="M964 965L982.948 914L1002 965H964Z" fill="#171F3C"/>
<path d="M872 969L889 923L906 969H872Z" fill="#171F3C"/>
<path d="M828 989L845 942L862 989H828Z" fill="#171F3C"/>
<path d="M849 994L866 948L883 994H849Z" fill="#171F3C"/>
<path d="M783 1001L800 955L817 1001H783Z" fill="#171F3C"/>
<path d="M632.103 1064.51L647.768 1021.63L663.546 1064.51H632.103Z" fill="#171F3C"/>
<path d="M590.826 1082L614.723 1017.17L638.505 1082H590.826Z" fill="#171F3C"/>
<path d="M167.34 821.649L196.94 777.191L238.289 772.814L274.339 734H289.312L301.405 747.591H310.274L365.559 818.194L384.793 827.754H418.425L435.932 833.973H446.182C446.182 833.973 493.059 887.185 495.708 887.876C498.357 888.682 542.815 902.273 542.815 902.273L549.15 915.173L581.054 931.413L629.198 967.463L809.449 1038.53H565.39L31.6621 940.627L71.1676 884.305L115.971 861.961L149.718 826.487L167.34 821.649Z" fill="url(#paint13_linear)"/>
<path d="M285.856 734L360.491 837.313L371.778 837.544L393.201 857.815L410.247 850.789L449.753 851.25L499.048 898.702L495.593 887.876L446.182 833.973H435.931H417.388L418.425 827.754H384.793L365.443 818.194L310.274 747.591H301.29L289.312 734H285.856Z" fill="url(#paint14_linear)"/>
<path d="M206.27 827.293L196.825 777.191L167.34 821.65L163.078 826.832L149.718 826.487L115.971 861.961L103.417 884.536L71.1677 884.306L31.6621 940.512H148.451L171.947 899.163L118.044 923.35L109.982 915.634L115.741 902.503L183.81 870.139L193.485 851.595H162.733L202.239 834.895" fill="url(#paint15_linear)"/>
<path d="M162 934.546L207.8 896.256L241.535 877.665L267.636 851.564H276.378L313.067 890.715L323.163 892.562L382.137 846.516L402.328 823H424.244L464.75 886.283L573.217 987.364L162 934.546Z" fill="url(#paint16_linear)"/>
<path d="M464.75 886.283L424.244 823H415.502L429.784 847.747H416.364L432.37 868.431L430.646 849.347L454.162 890.223H428.061L468.69 973.944L573.218 987.364L464.75 886.283Z" fill="url(#paint17_linear)"/>
<path d="M323.162 892.561L294.968 912.876V880.988L282.287 867.445H267.759L276.377 851.562L313.067 890.714L323.162 892.561Z" fill="url(#paint18_linear)"/>
<path d="M362.069 924.942V899.949L327.842 924.942H362.069Z" fill="url(#paint19_linear)"/>
<path d="M840.628 1029.51C840.628 1029.51 617.782 1019.29 472.871 945.915C327.96 872.536 166.92 847.173 19.4238 945.792C19.4238 998.733 19.4238 1029.51 19.4238 1029.51H840.628Z" fill="#171F3B"/>
<path d="M577 997L593.964 950L611 997H577Z" fill="#171F3B"/>
<path d="M547 1006L564.5 959L582 1006H547Z" fill="#171F3B"/>
<path d="M132 897L149.5 849L167 897H132Z" fill="#171F3B"/>
<path d="M-10 954L21.5511 868L53 954H-10Z" fill="#171F3B"/>
<path d="M30 957L53.9497 891L78 957H30Z" fill="#171F3B"/>
<path d="M161 886L179 837L197 886H161Z" fill="#171F3B"/>
<path d="M177.258 917.341L201.583 852.168L225.909 917.341H177.258Z" fill="#171F3B"/>
<path d="M375 933L395.5 878L416 933H375Z" fill="#171F3B"/>
<path d="M312 918L330 870L348 918H312Z" fill="#171F3B"/>
<path d="M335 907L352.5 859L370 907H335Z" fill="#171F3B"/>
<path d="M399 955L419 900L439 955H399Z" fill="#171F3B"/>
<path d="M604 1001L618.038 964L632 1001H604Z" fill="#171F3B"/>
<path d="M755 1033.13L766.884 1001L778.866 1033.13H755Z" fill="#171F3B"/>
<path d="M690 1019.11L700.513 998L711.112 1019.11H690Z" fill="#171F3B"/>
<path d="M681 1020L688.967 1004L697 1020H681Z" fill="#171F3B"/>
<path d="M515 980.112L525.513 959L536.112 980.112H515Z" fill="#171F3B"/>
<path d="M499 972L511.449 947L524 972H499Z" fill="#171F3B"/>
<path d="M814.302 1033L824.815 1004.54L835.415 1033H814.302Z" fill="#171F3B"/>
<path d="M783.092 1033L800.461 987.105L817.973 1033H783.092Z" fill="#171F3B"/>
<rect y="1028" width="1440" height="151" fill="#171F3B"/>
<rect y="941" width="75" height="168" fill="#171F3B"/>
<path d="M1051 764H1113C1107.68 763.678 1103.84 762.424 1101.25 761.296C1098.11 759.935 1096.21 758.485 1092.33 757.966C1090.26 757.679 1087.89 757.59 1086.62 757.608C1083.28 757.626 1081.39 759.219 1079.64 759.112C1075.81 758.843 1076.88 756.569 1073.73 755.638C1070.68 754.743 1068.35 754.582 1064.08 756.533C1059.94 758.396 1059.9 761.189 1054.58 762.747C1053.85 762.961 1053.13 763.194 1052.42 763.463L1051 764Z" fill="#353F6C"/>
<path d="M1387.78 692.562C1389.55 692.289 1391.38 692.016 1393.15 691.634C1424.39 685.194 1433.89 680.446 1441.13 675.644C1443.06 674.334 1447.03 671.496 1453.08 670.514C1461.53 669.149 1466.17 672.751 1475.24 673.679C1479.21 674.116 1487.81 674.388 1496.57 670.514C1501.32 668.44 1501.84 666.966 1506.85 665.493C1509.19 664.783 1515.24 663.092 1522.18 664.62C1528.02 665.929 1527.6 668.003 1533.34 669.368C1538.97 670.677 1539.55 668.713 1549.25 669.204C1558.58 669.695 1562.49 671.714 1563.85 672.533C1565.99 673.788 1565.78 674.17 1568.96 676.571C1571.67 678.591 1576.58 682.247 1582.05 683.939C1588.15 685.795 1588.68 683.23 1599.47 684.266C1602.18 684.539 1606.98 685.031 1612.72 686.886C1618.61 688.796 1618.98 689.942 1623.88 691.088C1628.1 692.071 1631.55 692.016 1636.55 691.961C1643.12 691.852 1645.05 691.197 1648.65 691.088C1653.24 690.925 1659.81 691.743 1668 696H1364L1387.78 692.562Z" fill="#353F6C"/>
</g>
<defs>
<linearGradient id="paint0_linear" x1="718.08" y1="0" x2="718.08" y2="1035.8" gradientUnits="userSpaceOnUse">
<stop offset="0.03125" stop-color="#263163"/>
<stop offset="0.486095" stop-color="#263163"/>
<stop offset="1" stop-color="#151B38"/>
</linearGradient>
<linearGradient id="paint1_linear" x1="1442.97" y1="772" x2="1398.34" y2="875.481" gradientUnits="userSpaceOnUse">
<stop stop-color="#323E70"/>
<stop offset="1" stop-color="#171F3B"/>
</linearGradient>
<linearGradient id="paint2_linear" x1="1451.97" y1="769.5" x2="1443.9" y2="909.996" gradientUnits="userSpaceOnUse">
<stop offset="0.0891991" stop-color="#5E6A9E"/>
<stop offset="1" stop-color="#5E6A9E" stop-opacity="0"/>
</linearGradient>
<linearGradient id="paint3_linear" x1="-9.10928" y1="812" x2="31.2708" y2="911.659" gradientUnits="userSpaceOnUse">
<stop stop-color="#323E70"/>
<stop offset="1" stop-color="#1C2342"/>
</linearGradient>
<linearGradient id="paint4_linear" x1="9.00831" y1="799.229" x2="33.9631" y2="906.728" gradientUnits="userSpaceOnUse">
<stop offset="0.0891991" stop-color="#576396"/>
<stop offset="1" stop-color="#546094" stop-opacity="0"/>
</linearGradient>
<linearGradient id="paint5_linear" x1="868.5" y1="887.5" x2="927.558" y2="940.159" gradientUnits="userSpaceOnUse">
<stop stop-color="#323E70"/>
<stop offset="1" stop-color="#171F3B"/>
</linearGradient>
<linearGradient id="paint6_linear" x1="885" y1="746" x2="947" y2="923" gradientUnits="userSpaceOnUse">
<stop stop-color="#707CB1"/>
<stop offset="1" stop-color="#5E6A9E" stop-opacity="0"/>
</linearGradient>
<linearGradient id="paint7_linear" x1="1184" y1="764.5" x2="1217.26" y2="907.421" gradientUnits="userSpaceOnUse">
<stop stop-color="#323D6F"/>
<stop offset="1" stop-color="#171F3B"/>
</linearGradient>
<linearGradient id="paint8_linear" x1="1118.59" y1="783.087" x2="1118.59" y2="822.511" gradientUnits="userSpaceOnUse">
<stop offset="0.0891991" stop-color="#5E6A9E"/>
<stop offset="1" stop-color="#5E6A9E" stop-opacity="0"/>
</linearGradient>
<linearGradient id="paint9_linear" x1="1176.35" y1="748.127" x2="1226.27" y2="748.127" gradientUnits="userSpaceOnUse">
<stop offset="0.0891991" stop-color="#687096"/>
<stop offset="1" stop-color="#687096" stop-opacity="0"/>
</linearGradient>
<linearGradient id="paint10_linear" x1="1174.25" y1="783.258" x2="1372.66" y2="870.664" gradientUnits="userSpaceOnUse">
<stop offset="0.0891991" stop-color="#687096"/>
<stop offset="1" stop-color="#5E6A9E" stop-opacity="0"/>
</linearGradient>
<linearGradient id="paint11_linear" x1="1384.04" y1="895.4" x2="1429.43" y2="906.136" gradientUnits="userSpaceOnUse">
<stop offset="0.0891991" stop-color="#5E6A9E"/>
<stop offset="1" stop-color="#5E6A9E" stop-opacity="0"/>
</linearGradient>
<linearGradient id="paint12_linear" x1="1168.51" y1="916.35" x2="1271.87" y2="863.891" gradientUnits="userSpaceOnUse">
<stop offset="0.0891991" stop-color="#687096"/>
<stop offset="1" stop-color="#5E6A9E" stop-opacity="0"/>
</linearGradient>
<linearGradient id="paint13_linear" x1="343.5" y1="750.5" x2="272.787" y2="931.199" gradientUnits="userSpaceOnUse">
<stop stop-color="#344074"/>
<stop offset="1" stop-color="#1C2342"/>
</linearGradient>
<linearGradient id="paint14_linear" x1="359.852" y1="686.495" x2="411.765" y2="893.202" gradientUnits="userSpaceOnUse">
<stop offset="0.0891991" stop-color="#5A669A"/>
<stop offset="1" stop-color="#5A669A" stop-opacity="0"/>
</linearGradient>
<linearGradient id="paint15_linear" x1="259.709" y1="830.767" x2="143.802" y2="868.176" gradientUnits="userSpaceOnUse">
<stop offset="0.0891991" stop-color="#556094"/>
<stop offset="1" stop-color="#546094" stop-opacity="0"/>
</linearGradient>
<linearGradient id="paint16_linear" x1="367.609" y1="823" x2="371.849" y2="940.623" gradientUnits="userSpaceOnUse">
<stop stop-color="#344074"/>
<stop offset="1" stop-color="#1C2342"/>
</linearGradient>
<linearGradient id="paint17_linear" x1="380.527" y1="869.441" x2="568.778" y2="952.409" gradientUnits="userSpaceOnUse">
<stop stop-color="#5E6A9E"/>
<stop offset="1" stop-color="#5E6A9E" stop-opacity="0"/>
</linearGradient>
<linearGradient id="paint18_linear" x1="283.32" y1="869.046" x2="309.661" y2="903.502" gradientUnits="userSpaceOnUse">
<stop stop-color="#546094"/>
<stop offset="1" stop-color="#546093" stop-opacity="0"/>
</linearGradient>
<linearGradient id="paint19_linear" x1="333.822" y1="926.784" x2="388.302" y2="899.133" gradientUnits="userSpaceOnUse">
<stop offset="0.0891991" stop-color="#687096"/>
<stop offset="1" stop-color="#687096" stop-opacity="0"/>
</linearGradient>
<clipPath id="clip0">
<rect width="1440" height="1152" fill="white"/>
</clipPath>
</defs>
</svg>