<svg width="512" height="512" viewBox="0 0 512 512" fill="none" xmlns="http://www.w3.org/2000/svg">
<g clip-path="url(#clip0_10015_6900)">
<path d="M0 142.222C0 63.6751 63.6751 0 142.222 0H369.778C448.325 0 512 63.6751 512 142.222V369.778C512 448.325 448.325 512 369.778 512H142.222C63.6751 512 0 448.325 0 369.778V142.222Z" fill="white"/>
<path d="M193.644 139.082C215.471 117.256 226.384 106.342 238.969 102.253C250.038 98.6565 261.963 98.6565 273.032 102.253C285.617 106.342 296.53 117.256 318.357 139.082L372.918 193.644C394.745 215.471 405.658 226.384 409.747 238.968C413.344 250.038 413.344 261.962 409.747 273.032C405.658 285.616 394.745 296.53 372.918 318.356L318.357 372.918C296.53 394.745 285.617 405.658 273.032 409.747C261.963 413.344 250.038 413.344 238.969 409.747C226.384 405.658 215.471 394.745 193.644 372.918L183.386 361.417C177.178 354.458 174.075 350.978 171.862 347.021C169.899 343.511 168.459 339.733 167.587 335.807C166.604 331.381 166.604 326.718 166.604 317.392L166.604 194.608C166.604 185.283 166.604 180.62 167.587 176.193C168.459 172.267 169.899 168.49 171.862 164.979C174.075 161.022 177.178 157.542 183.386 150.583L193.644 139.082Z" fill="url(#paint0_radial_10015_6900)"/>
<path d="M193.644 139.082C215.471 117.256 226.384 106.342 238.969 102.253C250.038 98.6565 261.963 98.6565 273.032 102.253C285.617 106.342 296.53 117.256 318.357 139.082L372.918 193.644C394.745 215.471 405.658 226.384 409.747 238.968C413.344 250.038 413.344 261.962 409.747 273.032C405.658 285.616 394.745 296.53 372.918 318.356L318.357 372.918C296.53 394.745 285.617 405.658 273.032 409.747C261.963 413.344 250.038 413.344 238.969 409.747C226.384 405.658 215.471 394.745 193.644 372.918L183.386 361.417C177.178 354.458 174.075 350.978 171.862 347.021C169.899 343.511 168.459 339.733 167.587 335.807C166.604 331.381 166.604 326.718 166.604 317.392L166.604 194.608C166.604 185.283 166.604 180.62 167.587 176.193C168.459 172.267 169.899 168.49 171.862 164.979C174.075 161.022 177.178 157.542 183.386 150.583L193.644 139.082Z" fill="url(#paint1_linear_10015_6900)"/>
<path d="M189.747 142.975C200.66 132.062 206.117 126.605 212.409 124.561C217.944 122.762 223.906 122.762 229.44 124.561C235.733 126.605 241.189 132.062 252.103 142.975L333.945 224.818C344.859 235.731 350.315 241.188 352.36 247.48C354.158 253.015 354.158 258.977 352.36 264.512C350.315 270.804 344.859 276.261 333.945 287.174L252.103 369.016C241.189 379.93 235.733 385.386 229.44 387.431C223.906 389.229 217.944 389.229 212.409 387.431C206.117 385.386 200.66 379.93 189.747 369.016L139.082 318.352C117.255 296.525 106.342 285.612 102.253 273.027C98.6564 261.958 98.6564 250.034 102.253 238.964C106.342 226.38 117.255 215.466 139.082 193.64L189.747 142.975Z" fill="url(#paint2_radial_10015_6900)"/>
</g>
<defs>
<radialGradient id="paint0_radial_10015_6900" cx="0" cy="0" r="1" gradientUnits="userSpaceOnUse" gradientTransform="translate(193.986 418.542) rotate(-58.142) scale(261.186 408.441)">
<stop stop-color="#FFD580"/>
<stop offset="0.09375" stop-color="#F6C592"/>
<stop offset="0.205" stop-color="#EBB6A2"/>
<stop offset="0.324466" stop-color="#DFA5AF"/>
<stop offset="0.42875" stop-color="#D397BE"/>
<stop offset="0.53375" stop-color="#C486CB"/>
<stop offset="0.64875" stop-color="#B578D9"/>
<stop offset="0.77125" stop-color="#A166E5"/>
<stop offset="0.89125" stop-color="#8B57F2"/>
<stop offset="1" stop-color="#704CFF"/>
</radialGradient>
<linearGradient id="paint1_linear_10015_6900" x1="183.209" y1="37.4282" x2="244.057" y2="408.852" gradientUnits="userSpaceOnUse">
<stop stop-color="#6D4AFF"/>
<stop offset="0.392009" stop-color="#B39FFB" stop-opacity="0.978022"/>
<stop offset="1" stop-color="#FFE8DB" stop-opacity="0.8"/>
</linearGradient>
<radialGradient id="paint2_radial_10015_6900" cx="0" cy="0" r="1" gradientUnits="userSpaceOnUse" gradientTransform="translate(171.043 386.736) rotate(-58.142) scale(210.084 328.529)">
<stop stop-color="#FFD580"/>
<stop offset="0.09375" stop-color="#F6C592"/>
<stop offset="0.205" stop-color="#EBB6A2"/>
<stop offset="0.324466" stop-color="#DFA5AF"/>
<stop offset="0.42875" stop-color="#D397BE"/>
<stop offset="0.53375" stop-color="#C486CB"/>
<stop offset="0.64875" stop-color="#B578D9"/>
<stop offset="0.77125" stop-color="#A166E5"/>
<stop offset="0.89125" stop-color="#8B57F2"/>
<stop offset="1" stop-color="#704CFF"/>
</radialGradient>
<clipPath id="clip0_10015_6900">
<rect width="512" height="512" fill="white"/>
</clipPath>
</defs>
</svg>
