<svg width="256" height="256" viewBox="0 0 256 256" fill="none" xmlns="http://www.w3.org/2000/svg">
<g clip-path="url(#clip0_9662_123)">
<mask id="mask0_9662_123" style="mask-type:luminance" maskUnits="userSpaceOnUse" x="0" y="0" width="256" height="256">
<path d="M195.5 0H60.5C27.0868 0 0 27.0868 0 60.5V195.5C0 228.913 27.0868 256 60.5 256H195.5C228.913 256 256 228.913 256 195.5V60.5C256 27.0868 228.913 0 195.5 0Z" fill="white"/>
</mask>
<g mask="url(#mask0_9662_123)">
<path d="M195.5 0H60.5C27.0868 0 0 27.0868 0 60.5V195.5C0 228.913 27.0868 256 60.5 256H195.5C228.913 256 256 228.913 256 195.5V60.5C256 27.0868 228.913 0 195.5 0Z" fill="white"/>
<path d="M172.942 102.958C172.942 102.833 172.935 102.717 172.919 102.6C172.919 102.475 172.903 102.359 172.895 102.242C172.888 102.125 172.879 102.009 172.864 101.892C172.856 101.775 172.84 101.658 172.825 101.542C172.801 101.308 172.762 101.083 172.723 100.857C172.645 100.406 172.551 99.97 172.434 99.534C172.278 98.966 172.091 98.406 171.88 97.869C171.693 97.3945 171.482 96.9355 171.247 96.492C171.013 96.0485 170.764 95.628 170.49 95.208C170.217 94.8035 169.927 94.399 169.615 94.0255C169.303 93.644 168.975 93.2785 168.632 92.928C167.843 92.1345 166.968 91.4265 166.031 90.8195C161.025 87.5595 154.153 87.1005 148.475 90.7105C147.234 91.5045 146.008 92.267 144.798 93.037C144.688 93.107 144.578 93.177 144.469 93.247C144.368 93.3175 144.266 93.3875 144.157 93.465H144.126C143.775 93.6905 143.447 93.9085 143.111 94.1185C143.103 94.1185 143.087 94.1265 143.079 94.142C143.071 94.134 143.072 94.142 143.064 94.15L142.954 94.212C142.954 94.212 142.923 94.243 142.884 94.2585C140.315 95.9005 137.737 97.542 135.153 99.176C134.848 99.4175 134.512 99.6275 134.161 99.8065C133.271 100.273 132.256 100.53 131.186 100.53C128.624 100.53 126.414 99.0595 125.352 96.912L125.328 96.8655C125.274 96.725 125.212 96.585 125.149 96.453L125.126 96.406C123.908 93.8465 122.095 91.629 119.854 89.9325C119.76 89.855 119.667 89.777 119.573 89.715C118.979 89.2715 118.363 88.8745 117.723 88.509C117.707 88.509 117.691 88.501 117.675 88.4855L117.652 88.462C117.652 88.462 117.637 88.462 117.629 88.4465H117.598C117.309 88.283 116.996 88.12 116.684 87.972C116.371 87.824 116.059 87.692 115.739 87.5595C115.668 87.5285 115.59 87.4975 115.512 87.474C115.434 87.4505 115.364 87.4275 115.294 87.404C115.216 87.373 115.146 87.3415 115.067 87.3185C114.896 87.256 114.716 87.194 114.536 87.1395C114.279 87.054 114.013 86.976 113.763 86.906C113.576 86.8435 113.381 86.797 113.209 86.766C112.701 86.6415 112.178 86.548 111.662 86.4625C111.475 86.4315 111.303 86.4 111.123 86.3845C110.444 86.307 109.757 86.26 109.054 86.26H50V174.579C50 184.211 57.825 192 67.5005 192H142.533C143.236 192 143.923 191.953 144.602 191.875C144.782 191.86 144.954 191.829 145.141 191.798C145.18 191.79 145.211 191.782 145.251 191.774C145.727 191.696 146.218 191.611 146.687 191.494C146.765 191.479 146.844 191.463 146.93 191.447C146.953 191.44 146.976 191.432 146.999 191.424C147.077 191.409 147.164 191.377 147.242 191.354C147.492 191.284 147.757 191.206 148.015 191.121C148.194 191.066 148.374 191.004 148.546 190.942C148.624 190.918 148.694 190.887 148.773 190.856C148.843 190.833 148.913 190.809 148.991 190.786C149.022 190.778 149.054 190.763 149.085 190.755C149.124 190.739 149.162 190.716 149.202 190.701C149.295 190.662 149.397 190.623 149.49 190.584C149.717 190.49 149.936 190.397 150.163 190.288C150.319 190.21 150.474 190.133 150.631 190.055C150.779 189.977 150.936 189.899 151.076 189.814H151.107C151.107 189.814 151.123 189.806 151.13 189.798L151.154 189.775C151.154 189.775 151.178 189.751 151.186 189.751C151.311 189.689 151.427 189.619 151.544 189.549C152.06 189.238 152.568 188.911 153.052 188.545C153.099 188.514 153.146 188.483 153.193 188.444C153.239 188.405 153.286 188.366 153.333 188.327C153.895 187.907 154.426 187.448 154.934 186.958C155.145 186.756 155.347 186.546 155.551 186.328C155.644 186.234 155.73 186.141 155.816 186.04C155.894 185.954 155.973 185.861 156.051 185.768C156.293 185.495 156.519 185.207 156.738 184.912C156.761 184.888 156.784 184.865 156.792 184.842C156.902 184.702 157.003 184.562 157.105 184.422C157.269 184.188 157.425 183.955 157.581 183.713C157.792 183.379 157.995 183.029 158.182 182.671C158.276 182.507 158.362 182.344 158.44 182.173C158.573 181.916 158.69 181.659 158.807 181.395L158.831 181.348C159.893 179.201 162.103 177.73 164.664 177.73C165.734 177.73 166.749 177.987 167.639 178.454C167.671 178.469 167.702 178.485 167.734 178.508C168.015 178.656 168.288 178.819 168.538 179.014C170.022 179.955 171.489 180.897 172.965 181.831V103.681C172.965 103.44 172.958 103.191 172.942 102.958ZM130.21 102.047C130.397 101.993 130.585 101.923 130.772 101.845C130.585 101.931 130.397 102.001 130.21 102.055C130.132 102.079 130.054 102.094 129.975 102.11C130.054 102.094 130.132 102.071 130.21 102.047Z" fill="url(#paint0_radial_9662_123)"/>
<path d="M206.443 81.4133V174.579C206.443 175.069 206.412 175.544 206.381 176.018C205.413 187.713 191.863 193.875 181.953 187.549L176.432 184.048C176.432 184.048 176.401 184.017 176.37 184.001C175.237 183.278 174.097 182.562 172.965 181.831V103.681C172.965 103.44 172.957 103.191 172.941 102.958C172.941 102.833 172.934 102.717 172.918 102.6C172.918 102.475 172.918 102.359 172.902 102.242C172.902 102.125 172.879 102.008 172.863 101.892C172.856 101.775 172.84 101.658 172.824 101.542C172.801 101.308 172.762 101.083 172.723 100.857C172.645 100.406 172.551 99.9698 172.434 99.5343C172.285 98.9663 172.098 98.4063 171.879 97.8693C171.692 97.3948 171.481 96.9353 171.247 96.4918C171.02 96.0483 170.763 95.6284 170.489 95.2084C170.216 94.8039 169.927 94.3988 169.615 94.0258C169.302 93.6443 168.974 93.2788 168.631 92.9283C167.842 92.1348 166.967 91.4268 166.03 90.8198C161.024 87.5598 154.152 87.1008 148.475 90.7108C147.233 91.5048 146.007 92.2673 144.797 93.0373L176.362 71.9908H176.37L176.432 71.9594L176.542 71.8819H176.557L176.846 71.6873C176.924 71.6403 177.01 71.5863 177.088 71.5318C177.268 71.4228 177.44 71.3138 177.619 71.1968C177.666 71.1738 177.705 71.1429 177.752 71.1114C177.924 71.0104 178.103 70.8939 178.275 70.7849C178.876 70.3959 179.486 70.0068 180.103 69.6178C180.719 69.2283 181.329 68.8393 181.953 68.4428C183.648 67.3613 185.452 66.6534 187.279 66.2644C187.396 66.2409 187.514 66.2174 187.631 66.1944C187.927 66.1399 188.224 66.0928 188.521 66.0538C189.692 65.9063 190.872 65.8828 192.035 65.9838C193.23 66.0928 194.409 66.3343 195.549 66.6918C196.229 66.9098 196.9 67.1668 197.549 67.4703C198.189 67.7733 198.814 68.1158 199.415 68.4973C199.571 68.5983 199.727 68.7073 199.884 68.8083C200.118 68.9793 200.352 69.1508 200.586 69.3143C200.766 69.4698 200.953 69.6099 201.133 69.7654C201.313 69.9209 201.484 70.0768 201.664 70.2398C201.836 70.3958 202.008 70.5668 202.172 70.7303C202.999 71.5783 203.734 72.5273 204.35 73.5623C204.483 73.7803 204.6 73.9983 204.725 74.2238C204.928 74.6128 205.116 75.0173 205.288 75.4373C205.319 75.5153 205.35 75.5933 205.381 75.6633C205.475 75.9123 205.569 76.1613 205.655 76.4258C205.733 76.6668 205.811 76.9083 205.881 77.1568C205.905 77.2428 205.928 77.3358 205.951 77.4218C205.99 77.5693 206.029 77.7248 206.061 77.8728C206.186 78.4408 206.287 79.0243 206.342 79.6233C206.357 79.7403 206.373 79.8568 206.381 79.9738C206.389 80.1528 206.397 80.3318 206.404 80.5103C206.404 80.5728 206.42 80.6273 206.42 80.6893C206.428 80.8063 206.436 80.9228 206.436 81.0473C206.443 81.1643 206.443 81.2888 206.443 81.4133Z" fill="white"/>
<path d="M206.443 81.4133V174.579C206.443 175.069 206.412 175.544 206.381 176.018C205.413 187.713 191.863 193.875 181.953 187.549L176.432 184.048C176.432 184.048 176.401 184.017 176.37 184.001C175.237 183.278 174.097 182.562 172.965 181.831V103.681C172.965 103.44 172.957 103.191 172.941 102.958C172.941 102.833 172.934 102.717 172.918 102.6C172.918 102.475 172.918 102.359 172.902 102.242C172.902 102.125 172.879 102.008 172.863 101.892C172.856 101.775 172.84 101.658 172.824 101.542C172.801 101.308 172.762 101.083 172.723 100.857C172.645 100.406 172.551 99.9698 172.434 99.5343C172.285 98.9663 172.098 98.4063 171.879 97.8693C171.692 97.3948 171.481 96.9353 171.247 96.4918C171.02 96.0483 170.763 95.6284 170.489 95.2084C170.216 94.8039 169.927 94.3988 169.615 94.0258C169.302 93.6443 168.974 93.2788 168.631 92.9283C167.842 92.1348 166.967 91.4268 166.03 90.8198C161.024 87.5598 154.152 87.1008 148.475 90.7108C147.233 91.5048 146.007 92.2673 144.797 93.0373L176.362 71.9908H176.37L176.432 71.9594L176.542 71.8819H176.557L176.846 71.6873C176.924 71.6403 177.01 71.5863 177.088 71.5318C177.268 71.4228 177.44 71.3138 177.619 71.1968C177.666 71.1738 177.705 71.1429 177.752 71.1114C177.924 71.0104 178.103 70.8939 178.275 70.7849C178.876 70.3959 179.486 70.0068 180.103 69.6178C180.719 69.2283 181.329 68.8393 181.953 68.4428C183.648 67.3613 185.452 66.6534 187.279 66.2644C187.396 66.2409 187.514 66.2174 187.631 66.1944C187.927 66.1399 188.224 66.0928 188.521 66.0538C189.692 65.9063 190.872 65.8828 192.035 65.9838C193.23 66.0928 194.409 66.3343 195.549 66.6918C196.229 66.9098 196.9 67.1668 197.549 67.4703C198.189 67.7733 198.814 68.1158 199.415 68.4973C199.571 68.5983 199.727 68.7073 199.884 68.8083C200.118 68.9793 200.352 69.1508 200.586 69.3143C200.766 69.4698 200.953 69.6099 201.133 69.7654C201.313 69.9209 201.484 70.0768 201.664 70.2398C201.836 70.3958 202.008 70.5668 202.172 70.7303C202.999 71.5783 203.734 72.5273 204.35 73.5623C204.483 73.7803 204.6 73.9983 204.725 74.2238C204.928 74.6128 205.116 75.0173 205.288 75.4373C205.319 75.5153 205.35 75.5933 205.381 75.6633C205.475 75.9123 205.569 76.1613 205.655 76.4258C205.733 76.6668 205.811 76.9083 205.881 77.1568C205.905 77.2428 205.928 77.3358 205.951 77.4218C205.99 77.5693 206.029 77.7248 206.061 77.8728C206.186 78.4408 206.287 79.0243 206.342 79.6233C206.357 79.7403 206.373 79.8568 206.381 79.9738C206.389 80.1528 206.397 80.3318 206.404 80.5103C206.404 80.5728 206.42 80.6273 206.42 80.6893C206.428 80.8063 206.436 80.9228 206.436 81.0473C206.443 81.1643 206.443 81.2888 206.443 81.4133Z" fill="url(#paint1_linear_9662_123)" fill-opacity="0.65"/>
<path d="M168.578 76.947C168.305 77.157 168.016 77.344 167.704 77.4995C167.688 77.523 167.664 77.5305 167.641 77.5385C166.751 78.005 165.736 78.262 164.666 78.262C162.104 78.262 159.894 76.7915 158.832 74.644L158.809 74.5975C158.746 74.4415 158.676 74.294 158.606 74.146C158.504 73.928 158.395 73.718 158.285 73.516C158.192 73.329 158.09 73.15 157.989 72.971C157.739 72.5355 157.473 72.1155 157.192 71.7105C157.059 71.516 156.927 71.3295 156.786 71.1425C156.372 70.59 155.927 70.061 155.459 69.563C155.404 69.5165 155.349 69.462 155.302 69.4075C155.177 69.283 155.06 69.1585 154.927 69.034C154.717 68.8395 154.506 68.6375 154.287 68.443C154.193 68.357 154.092 68.2795 153.998 68.2015C153.78 68.015 153.561 67.836 153.334 67.6645C153.264 67.6025 153.194 67.556 153.124 67.5015C153.1 67.478 153.077 67.4625 153.053 67.447C152.905 67.338 152.756 67.229 152.6 67.12C152.147 66.809 151.679 66.513 151.195 66.241C151.187 66.233 151.171 66.2255 151.156 66.2175L151.109 66.194L151.093 66.1785H151.077C151.007 66.1395 150.937 66.101 150.859 66.062C150.632 65.9375 150.398 65.8205 150.164 65.704C150.164 65.704 150.164 65.712 150.156 65.704C149.867 65.5715 149.578 65.4395 149.274 65.315C149.25 65.315 149.227 65.2915 149.203 65.284C149.195 65.284 149.18 65.284 149.172 65.284C149.07 65.245 148.969 65.214 148.867 65.175C148.836 65.167 148.805 65.1515 148.774 65.144C148.703 65.1125 148.641 65.0895 148.571 65.066C148.391 65.0035 148.204 64.9415 148.016 64.879C147.759 64.7935 147.501 64.716 147.243 64.646H147.227C147.056 64.599 146.868 64.5525 146.689 64.506C146.22 64.389 145.728 64.3035 145.252 64.2255C145.213 64.218 145.174 64.21 145.135 64.2025C144.955 64.1865 144.783 64.1555 144.604 64.1245C143.924 64.0465 143.237 64 142.542 64H67.5025C57.8265 63.992 50.0015 71.7965 50.0015 81.413V86.2605H109.056C109.758 86.2605 110.446 86.307 111.125 86.385C111.305 86.4005 111.476 86.4315 111.664 86.463C112.179 86.5405 112.702 86.642 113.21 86.7665C113.382 86.7975 113.577 86.844 113.765 86.9065C114.014 86.9765 114.28 87.054 114.538 87.14C114.717 87.194 114.897 87.2565 115.069 87.3185C115.147 87.342 115.217 87.3655 115.295 87.3965C115.365 87.42 115.444 87.443 115.514 87.4745C115.592 87.4975 115.67 87.529 115.74 87.56C116.061 87.6845 116.373 87.8245 116.685 87.9725C116.998 88.12 117.31 88.2835 117.599 88.447H117.63C117.63 88.447 117.646 88.4545 117.654 88.4625L117.677 88.486C117.677 88.486 117.708 88.509 117.724 88.509C118.364 88.875 118.981 89.2715 119.575 89.715C119.668 89.7775 119.762 89.855 119.856 89.933C122.097 91.629 123.909 93.8465 125.127 96.4065L125.151 96.453C125.213 96.5855 125.275 96.7255 125.33 96.8655L125.354 96.9125C126.416 99.06 128.626 100.531 131.187 100.531C132.257 100.531 133.272 100.274 134.163 99.8065C134.49 99.6045 134.826 99.3945 135.154 99.1765C137.739 97.5425 140.316 95.901 142.886 94.259C142.925 94.2435 142.956 94.2125 142.956 94.2125L143.065 94.15C143.065 94.15 143.073 94.1345 143.081 94.1425C143.089 94.127 143.104 94.119 143.112 94.119C143.448 93.909 143.776 93.6835 144.127 93.45H144.158C144.268 93.38 144.369 93.31 144.471 93.2475C144.58 93.1775 144.689 93.1075 144.799 93.0375L176.364 71.991C173.764 73.648 171.171 75.3055 168.578 76.947ZM163.69 79.787C163.643 79.8025 163.596 79.8105 163.549 79.818C163.596 79.8105 163.643 79.795 163.69 79.779C163.885 79.725 164.072 79.6545 164.252 79.577C164.064 79.6625 163.877 79.7325 163.69 79.787Z" fill="white"/>
<path d="M168.578 76.947C168.305 77.157 168.016 77.344 167.704 77.4995C167.688 77.523 167.664 77.5305 167.641 77.5385C166.751 78.005 165.736 78.262 164.666 78.262C162.104 78.262 159.894 76.7915 158.832 74.644L158.809 74.5975C158.746 74.4415 158.676 74.294 158.606 74.146C158.504 73.928 158.395 73.718 158.285 73.516C158.192 73.329 158.09 73.15 157.989 72.971C157.739 72.5355 157.473 72.1155 157.192 71.7105C157.059 71.516 156.927 71.3295 156.786 71.1425C156.372 70.59 155.927 70.061 155.459 69.563C155.404 69.5165 155.349 69.462 155.302 69.4075C155.177 69.283 155.06 69.1585 154.927 69.034C154.717 68.8395 154.506 68.6375 154.287 68.443C154.193 68.357 154.092 68.2795 153.998 68.2015C153.78 68.015 153.561 67.836 153.334 67.6645C153.264 67.6025 153.194 67.556 153.124 67.5015C153.1 67.478 153.077 67.4625 153.053 67.447C152.905 67.338 152.756 67.229 152.6 67.12C152.147 66.809 151.679 66.513 151.195 66.241C151.187 66.233 151.171 66.2255 151.156 66.2175L151.109 66.194L151.093 66.1785H151.077C151.007 66.1395 150.937 66.101 150.859 66.062C150.632 65.9375 150.398 65.8205 150.164 65.704C150.164 65.704 150.164 65.712 150.156 65.704C149.867 65.5715 149.578 65.4395 149.274 65.315C149.25 65.315 149.227 65.2915 149.203 65.284C149.195 65.284 149.18 65.284 149.172 65.284C149.07 65.245 148.969 65.214 148.867 65.175C148.836 65.167 148.805 65.1515 148.774 65.144C148.703 65.1125 148.641 65.0895 148.571 65.066C148.391 65.0035 148.204 64.9415 148.016 64.879C147.759 64.7935 147.501 64.716 147.243 64.646H147.227C147.056 64.599 146.868 64.5525 146.689 64.506C146.22 64.389 145.728 64.3035 145.252 64.2255C145.213 64.218 145.174 64.21 145.135 64.2025C144.955 64.1865 144.783 64.1555 144.604 64.1245C143.924 64.0465 143.237 64 142.542 64H67.5025C57.8265 63.992 50.0015 71.7965 50.0015 81.413V86.2605H109.056C109.758 86.2605 110.446 86.307 111.125 86.385C111.305 86.4005 111.476 86.4315 111.664 86.463C112.179 86.5405 112.702 86.642 113.21 86.7665C113.382 86.7975 113.577 86.844 113.765 86.9065C114.014 86.9765 114.28 87.054 114.538 87.14C114.717 87.194 114.897 87.2565 115.069 87.3185C115.147 87.342 115.217 87.3655 115.295 87.3965C115.365 87.42 115.444 87.443 115.514 87.4745C115.592 87.4975 115.67 87.529 115.74 87.56C116.061 87.6845 116.373 87.8245 116.685 87.9725C116.998 88.12 117.31 88.2835 117.599 88.447H117.63C117.63 88.447 117.646 88.4545 117.654 88.4625L117.677 88.486C117.677 88.486 117.708 88.509 117.724 88.509C118.364 88.875 118.981 89.2715 119.575 89.715C119.668 89.7775 119.762 89.855 119.856 89.933C122.097 91.629 123.909 93.8465 125.127 96.4065L125.151 96.453C125.213 96.5855 125.275 96.7255 125.33 96.8655L125.354 96.9125C126.416 99.06 128.626 100.531 131.187 100.531C132.257 100.531 133.272 100.274 134.163 99.8065C134.49 99.6045 134.826 99.3945 135.154 99.1765C137.739 97.5425 140.316 95.901 142.886 94.259C142.925 94.2435 142.956 94.2125 142.956 94.2125L143.065 94.15C143.065 94.15 143.073 94.1345 143.081 94.1425C143.089 94.127 143.104 94.119 143.112 94.119C143.448 93.909 143.776 93.6835 144.127 93.45H144.158C144.268 93.38 144.369 93.31 144.471 93.2475C144.58 93.1775 144.689 93.1075 144.799 93.0375L176.364 71.991C173.764 73.648 171.171 75.3055 168.578 76.947ZM163.69 79.787C163.643 79.8025 163.596 79.8105 163.549 79.818C163.596 79.8105 163.643 79.795 163.69 79.779C163.885 79.725 164.072 79.6545 164.252 79.577C164.064 79.6625 163.877 79.7325 163.69 79.787Z" fill="url(#paint2_linear_9662_123)" fill-opacity="0.65"/>
</g>
</g>
<defs>
<radialGradient id="paint0_radial_9662_123" cx="0" cy="0" r="1" gradientTransform="matrix(111.614 -108.049 124.542 166.634 40.1628 204.275)" gradientUnits="userSpaceOnUse">
<stop stop-color="#82F8E1"/>
<stop offset="1" stop-color="#6E45E2"/>
</radialGradient>
<linearGradient id="paint1_linear_9662_123" x1="169.111" y1="77.6883" x2="233.836" y2="95.9213" gradientUnits="userSpaceOnUse">
<stop offset="0.1" stop-color="#6E45E2"/>
<stop offset="1" stop-color="#45E1CC" stop-opacity="0.9"/>
</linearGradient>
<linearGradient id="paint2_linear_9662_123" x1="62.047" y1="47.3473" x2="66.4985" y2="124.555" gradientUnits="userSpaceOnUse">
<stop offset="0.1" stop-color="#6E45E2"/>
<stop offset="0.9" stop-color="#45E1CC"/>
</linearGradient>
<clipPath id="clip0_9662_123">
<rect width="256" height="256" fill="white"/>
</clipPath>
</defs>
</svg>
