<svg width="256" height="256" viewBox="0 0 256 256" fill="none" xmlns="http://www.w3.org/2000/svg">
<g clip-path="url(#clip0_9662_107)">
<mask id="mask0_9662_107" style="mask-type:luminance" maskUnits="userSpaceOnUse" x="0" y="0" width="256" height="256">
<path d="M195.5 0H60.5C27.0868 0 0 27.0868 0 60.5V195.5C0 228.913 27.0868 256 60.5 256H195.5C228.913 256 256 228.913 256 195.5V60.5C256 27.0868 228.913 0 195.5 0Z" fill="white"/>
</mask>
<g mask="url(#mask0_9662_107)">
<path d="M195.5 0H60.5C27.0868 0 0 27.0868 0 60.5V195.5C0 228.913 27.0868 256 60.5 256H195.5C228.913 256 256 228.913 256 195.5V60.5C256 27.0868 228.913 0 195.5 0Z" fill="white"/>
<path fill-rule="evenodd" clip-rule="evenodd" d="M124.754 0L38.4927 3.53827e-06H0V51.4785H96.464C112.088 51.4785 124.754 38.8125 124.754 23.1884V0Z" fill="url(#paint0_linear_9662_107)"/>
<path d="M40.2104 35.7103C40.2104 33.7538 40.2104 31.7973 40.2104 29.8409V22.6209C40.2104 20.6644 40.2104 18.7079 40.2104 16.7515H47.2486C48.703 16.7515 49.9236 16.9592 50.9105 17.3748C51.8975 17.7903 52.6335 18.3617 53.118 19.0889C53.603 19.816 53.8455 20.6471 53.8455 21.5821C53.8455 22.6036 53.525 23.4866 52.8845 24.2311C52.261 24.9756 51.335 25.5037 50.1055 25.8153V25.9192C51.664 26.1963 52.8325 26.7416 53.6115 27.5554C54.3905 28.3519 54.7805 29.3041 54.7805 30.4122C54.7805 31.3645 54.512 32.2475 53.975 33.0613C53.4385 33.8577 52.6505 34.4983 51.612 34.9831C50.573 35.4679 49.3349 35.7103 47.8979 35.7103H40.2104ZM46.6253 24.5947C47.3179 24.5947 47.9238 24.5168 48.4433 24.361C48.98 24.1878 49.4042 23.9195 49.7159 23.5559C50.0275 23.175 50.1835 22.6902 50.1835 22.1015C50.1835 21.2358 49.8631 20.6211 49.2224 20.2576C48.5818 19.894 47.7161 19.7122 46.6253 19.7122H43.8204V24.5947H46.6253ZM43.8204 32.7756H46.8071C47.6728 32.7756 48.4173 32.6977 49.0406 32.5418C49.6639 32.3687 50.149 32.0917 50.495 31.7108C50.8415 31.3125 51.0145 30.7931 51.0145 30.1525C51.0145 29.1656 50.651 28.4817 49.9236 28.1008C49.2137 27.7199 48.1749 27.5294 46.8071 27.5294H43.8204V32.7756Z" fill="white"/>
<path d="M65.8607 36.0997C64.4757 36.0997 63.2377 35.814 62.1472 35.2426C61.0737 34.6713 60.2337 33.8575 59.6277 32.8014C59.0217 31.7279 58.7188 30.4813 58.7188 29.0615C58.7188 27.8322 58.9873 26.7068 59.5243 25.6853C60.0783 24.6638 60.8312 23.8587 61.7837 23.27C62.7357 22.6813 63.7918 22.387 64.9518 22.387C66.0428 22.387 67.0037 22.6294 67.8347 23.1142C68.6657 23.5816 69.3063 24.2655 69.7568 25.1659C70.2068 26.0489 70.4317 27.105 70.4317 28.3343V29.6589H61.0822V27.4254H68.8997L67.1338 27.9188C67.1338 27.2262 67.0382 26.6549 66.8477 26.2047C66.6747 25.7372 66.4152 25.391 66.0687 25.1659C65.7222 24.9235 65.2982 24.8023 64.7962 24.8023C64.3112 24.8023 63.8697 24.9408 63.4717 25.2178C63.0732 25.4775 62.7532 25.8931 62.5107 26.4644C62.2682 27.0185 62.1472 27.711 62.1472 28.5421C62.1472 29.7021 62.3377 30.6458 62.7182 31.3729C63.1167 32.0828 63.6447 32.5936 64.3027 32.9052C64.9607 33.2169 65.6962 33.3727 66.5102 33.3727C67.0987 33.3727 67.6962 33.2948 68.3022 33.139C68.9082 32.9658 69.5317 32.6975 70.1722 32.3339V34.8531C69.5142 35.2859 68.8127 35.5976 68.0682 35.788C67.3412 35.9958 66.6052 36.0997 65.8607 36.0997Z" fill="white"/>
<path d="M80.8843 36.0997C80.0703 36.0997 79.3348 35.9352 78.6768 35.6062C78.0363 35.2773 77.5168 34.7751 77.1183 34.0999C76.7373 33.4247 76.5473 32.6109 76.5473 31.6586V25.4775H73.8203V22.8285C74.7378 22.8285 75.3868 22.7592 75.7678 22.6207C76.1488 22.4649 76.3998 22.1619 76.5213 21.7117C76.6423 21.2616 76.7028 20.4998 76.7028 19.4263H79.9233V22.7506H83.4553V25.4775H79.9233V31.347C79.9233 32.0568 80.0963 32.5763 80.4428 32.9052C80.7888 33.2169 81.2563 33.3727 81.8453 33.3727C82.3818 33.3727 82.9188 33.2775 83.4553 33.087V35.5283C83.0918 35.7014 82.6933 35.84 82.2608 35.9438C81.8453 36.0477 81.3863 36.0997 80.8843 36.0997Z" fill="white"/>
<path d="M91.0126 36.0997C90.3371 36.0997 89.7226 35.9612 89.1686 35.6841C88.6146 35.3898 88.1731 34.9743 87.8441 34.4375C87.5151 33.8835 87.3506 33.2429 87.3506 32.5157C87.3506 31.3383 87.8091 30.4466 88.7271 29.8407C89.6446 29.2347 90.9606 28.7326 92.6746 28.3343L95.5056 27.6851L95.6611 29.7108L93.1941 30.412C92.6226 30.5678 92.1636 30.7323 91.8176 30.9055C91.4886 31.0613 91.2376 31.2517 91.0641 31.4768C90.9086 31.6846 90.8306 31.927 90.8306 32.204C90.8306 32.6196 90.9516 32.9399 91.1941 33.1649C91.4541 33.39 91.7831 33.5026 92.1811 33.5026C92.5276 33.5026 92.8996 33.3814 93.2976 33.139C93.6961 32.8966 94.0336 32.5157 94.3106 31.9963C94.5876 31.4768 94.7261 30.8189 94.7261 30.0225V27.3734C94.7261 26.577 94.4231 25.9969 93.8171 25.6334C93.2286 25.2524 92.5446 25.062 91.7656 25.062C91.1251 25.062 90.4841 25.1659 89.8436 25.3736C89.2206 25.5641 88.5971 25.8411 87.9736 26.2047V23.6596C88.5451 23.2786 89.2206 22.9757 89.9996 22.7506C90.7961 22.5082 91.6011 22.387 92.4146 22.387C93.3671 22.387 94.2676 22.5428 95.1156 22.8545C95.9641 23.1488 96.6741 23.6855 97.2456 24.4647C97.8341 25.2265 98.1286 26.2653 98.1286 27.5812V32.3858C98.1286 32.8014 98.1891 33.1043 98.3101 33.2948C98.4316 33.4679 98.6651 33.5545 99.0116 33.5545C99.2541 33.5545 99.4791 33.5112 99.6866 33.4247V35.6582C99.3231 35.814 98.9941 35.9179 98.6996 35.9698C98.4056 36.0391 98.0851 36.0737 97.7391 36.0737C96.9251 36.0737 96.2411 35.8486 95.6871 35.3985C95.1331 34.9483 94.8126 34.4116 94.7261 33.7882H94.6481C94.3196 34.5328 93.8261 35.1041 93.1681 35.5023C92.5101 35.9006 91.7916 36.0997 91.0126 36.0997Z" fill="white"/>
<path d="M172.942 102.958C172.942 102.833 172.935 102.717 172.919 102.6C172.919 102.475 172.903 102.359 172.895 102.242C172.888 102.125 172.879 102.009 172.864 101.892C172.856 101.775 172.84 101.658 172.825 101.542C172.801 101.308 172.762 101.083 172.723 100.857C172.645 100.406 172.551 99.97 172.434 99.534C172.278 98.966 172.091 98.406 171.88 97.869C171.693 97.3945 171.482 96.9355 171.247 96.492C171.013 96.0485 170.764 95.628 170.49 95.208C170.217 94.8035 169.927 94.399 169.615 94.0255C169.303 93.644 168.975 93.2785 168.632 92.928C167.843 92.1345 166.968 91.4265 166.031 90.8195C161.025 87.5595 154.153 87.1005 148.475 90.7105C147.234 91.5045 146.008 92.267 144.798 93.037C144.688 93.107 144.578 93.177 144.469 93.247C144.368 93.3175 144.266 93.3875 144.157 93.465H144.126C143.775 93.6905 143.447 93.9085 143.111 94.1185C143.103 94.1185 143.087 94.1265 143.079 94.142C143.071 94.134 143.072 94.142 143.064 94.15L142.954 94.212C142.954 94.212 142.923 94.243 142.884 94.2585C140.315 95.9005 137.737 97.542 135.153 99.176C134.848 99.4175 134.512 99.6275 134.161 99.8065C133.271 100.273 132.256 100.53 131.186 100.53C128.624 100.53 126.414 99.0595 125.352 96.912L125.328 96.8655C125.274 96.725 125.212 96.585 125.149 96.453L125.126 96.406C123.908 93.8465 122.095 91.629 119.854 89.9325C119.76 89.855 119.667 89.777 119.573 89.715C118.979 89.2715 118.363 88.8745 117.723 88.509C117.707 88.509 117.691 88.501 117.675 88.4855L117.652 88.462C117.652 88.462 117.637 88.462 117.629 88.4465H117.598C117.309 88.283 116.996 88.12 116.684 87.972C116.371 87.824 116.059 87.692 115.739 87.5595C115.668 87.5285 115.59 87.4975 115.512 87.474C115.434 87.4505 115.364 87.4275 115.294 87.404C115.216 87.373 115.146 87.3415 115.067 87.3185C114.896 87.256 114.716 87.194 114.536 87.1395C114.279 87.054 114.013 86.976 113.763 86.906C113.576 86.8435 113.381 86.797 113.209 86.766C112.701 86.6415 112.178 86.548 111.662 86.4625C111.475 86.4315 111.303 86.4 111.123 86.3845C110.444 86.307 109.757 86.26 109.054 86.26H50V174.579C50 184.211 57.825 192 67.5005 192H142.533C143.236 192 143.923 191.953 144.602 191.875C144.782 191.86 144.954 191.829 145.141 191.798C145.18 191.79 145.211 191.782 145.251 191.774C145.727 191.696 146.218 191.611 146.687 191.494C146.765 191.479 146.844 191.463 146.93 191.447C146.953 191.44 146.976 191.432 146.999 191.424C147.077 191.409 147.164 191.377 147.242 191.354C147.492 191.284 147.757 191.206 148.015 191.121C148.194 191.066 148.374 191.004 148.546 190.942C148.624 190.918 148.694 190.887 148.773 190.856C148.843 190.833 148.913 190.809 148.991 190.786C149.022 190.778 149.054 190.763 149.085 190.755C149.124 190.739 149.162 190.716 149.202 190.701C149.295 190.662 149.397 190.623 149.49 190.584C149.717 190.49 149.936 190.397 150.163 190.288C150.319 190.21 150.474 190.133 150.631 190.055C150.779 189.977 150.936 189.899 151.076 189.814H151.107C151.107 189.814 151.123 189.806 151.13 189.798L151.154 189.775C151.154 189.775 151.178 189.751 151.186 189.751C151.311 189.689 151.427 189.619 151.544 189.549C152.06 189.238 152.568 188.911 153.052 188.545C153.099 188.514 153.146 188.483 153.193 188.444C153.239 188.405 153.286 188.366 153.333 188.327C153.895 187.907 154.426 187.448 154.934 186.958C155.145 186.756 155.347 186.546 155.551 186.328C155.644 186.234 155.73 186.141 155.816 186.04C155.894 185.954 155.973 185.861 156.051 185.768C156.293 185.495 156.519 185.207 156.738 184.912C156.761 184.888 156.784 184.865 156.792 184.842C156.902 184.702 157.003 184.562 157.105 184.422C157.269 184.188 157.425 183.955 157.581 183.713C157.792 183.379 157.995 183.029 158.182 182.671C158.276 182.507 158.362 182.344 158.44 182.173C158.573 181.916 158.69 181.659 158.807 181.395L158.831 181.348C159.893 179.201 162.103 177.73 164.664 177.73C165.734 177.73 166.749 177.987 167.639 178.454C167.671 178.469 167.702 178.485 167.734 178.508C168.015 178.656 168.288 178.819 168.538 179.014C170.022 179.955 171.489 180.897 172.965 181.831V103.681C172.965 103.44 172.958 103.191 172.942 102.958ZM130.21 102.047C130.397 101.993 130.585 101.923 130.772 101.845C130.585 101.931 130.397 102.001 130.21 102.055C130.132 102.079 130.054 102.094 129.975 102.11C130.054 102.094 130.132 102.071 130.21 102.047Z" fill="url(#paint1_radial_9662_107)"/>
<path d="M206.443 81.4133V174.579C206.443 175.069 206.412 175.544 206.381 176.018C205.413 187.713 191.863 193.875 181.953 187.549L176.432 184.048C176.432 184.048 176.401 184.017 176.37 184.001C175.237 183.278 174.097 182.562 172.965 181.831V103.681C172.965 103.44 172.957 103.191 172.941 102.958C172.941 102.833 172.934 102.717 172.918 102.6C172.918 102.475 172.918 102.359 172.902 102.242C172.902 102.125 172.879 102.008 172.863 101.892C172.856 101.775 172.84 101.658 172.824 101.542C172.801 101.308 172.762 101.083 172.723 100.857C172.645 100.406 172.551 99.9698 172.434 99.5343C172.285 98.9663 172.098 98.4063 171.879 97.8693C171.692 97.3948 171.481 96.9353 171.247 96.4918C171.02 96.0483 170.763 95.6284 170.489 95.2084C170.216 94.8039 169.927 94.3988 169.615 94.0258C169.302 93.6443 168.974 93.2788 168.631 92.9283C167.842 92.1348 166.967 91.4268 166.03 90.8198C161.024 87.5598 154.152 87.1008 148.475 90.7108C147.233 91.5048 146.007 92.2673 144.797 93.0373L176.362 71.9908H176.37L176.432 71.9594L176.542 71.8819H176.557L176.846 71.6873C176.924 71.6403 177.01 71.5863 177.088 71.5318C177.268 71.4228 177.44 71.3138 177.619 71.1968C177.666 71.1738 177.705 71.1429 177.752 71.1114C177.924 71.0104 178.103 70.8939 178.275 70.7849C178.876 70.3959 179.486 70.0068 180.103 69.6178C180.719 69.2283 181.329 68.8393 181.953 68.4428C183.648 67.3613 185.452 66.6534 187.279 66.2644C187.396 66.2409 187.514 66.2174 187.631 66.1944C187.927 66.1399 188.224 66.0928 188.521 66.0538C189.692 65.9063 190.872 65.8828 192.035 65.9838C193.23 66.0928 194.409 66.3343 195.549 66.6918C196.229 66.9098 196.9 67.1668 197.549 67.4703C198.189 67.7733 198.814 68.1158 199.415 68.4973C199.571 68.5983 199.727 68.7073 199.884 68.8083C200.118 68.9793 200.352 69.1508 200.586 69.3143C200.766 69.4698 200.953 69.6099 201.133 69.7654C201.313 69.9209 201.484 70.0768 201.664 70.2398C201.836 70.3958 202.008 70.5668 202.172 70.7303C202.999 71.5783 203.734 72.5273 204.35 73.5623C204.483 73.7803 204.6 73.9983 204.725 74.2238C204.928 74.6128 205.116 75.0173 205.288 75.4373C205.319 75.5153 205.35 75.5933 205.381 75.6633C205.475 75.9123 205.569 76.1613 205.655 76.4258C205.733 76.6668 205.811 76.9083 205.881 77.1568C205.905 77.2428 205.928 77.3358 205.951 77.4218C205.99 77.5693 206.029 77.7248 206.061 77.8728C206.186 78.4408 206.287 79.0243 206.342 79.6233C206.357 79.7403 206.373 79.8568 206.381 79.9738C206.389 80.1528 206.397 80.3318 206.404 80.5103C206.404 80.5728 206.42 80.6273 206.42 80.6893C206.428 80.8063 206.436 80.9228 206.436 81.0473C206.443 81.1643 206.443 81.2888 206.443 81.4133Z" fill="white"/>
<path d="M206.443 81.4133V174.579C206.443 175.069 206.412 175.544 206.381 176.018C205.413 187.713 191.863 193.875 181.953 187.549L176.432 184.048C176.432 184.048 176.401 184.017 176.37 184.001C175.237 183.278 174.097 182.562 172.965 181.831V103.681C172.965 103.44 172.957 103.191 172.941 102.958C172.941 102.833 172.934 102.717 172.918 102.6C172.918 102.475 172.918 102.359 172.902 102.242C172.902 102.125 172.879 102.008 172.863 101.892C172.856 101.775 172.84 101.658 172.824 101.542C172.801 101.308 172.762 101.083 172.723 100.857C172.645 100.406 172.551 99.9698 172.434 99.5343C172.285 98.9663 172.098 98.4063 171.879 97.8693C171.692 97.3948 171.481 96.9353 171.247 96.4918C171.02 96.0483 170.763 95.6284 170.489 95.2084C170.216 94.8039 169.927 94.3988 169.615 94.0258C169.302 93.6443 168.974 93.2788 168.631 92.9283C167.842 92.1348 166.967 91.4268 166.03 90.8198C161.024 87.5598 154.152 87.1008 148.475 90.7108C147.233 91.5048 146.007 92.2673 144.797 93.0373L176.362 71.9908H176.37L176.432 71.9594L176.542 71.8819H176.557L176.846 71.6873C176.924 71.6403 177.01 71.5863 177.088 71.5318C177.268 71.4228 177.44 71.3138 177.619 71.1968C177.666 71.1738 177.705 71.1429 177.752 71.1114C177.924 71.0104 178.103 70.8939 178.275 70.7849C178.876 70.3959 179.486 70.0068 180.103 69.6178C180.719 69.2283 181.329 68.8393 181.953 68.4428C183.648 67.3613 185.452 66.6534 187.279 66.2644C187.396 66.2409 187.514 66.2174 187.631 66.1944C187.927 66.1399 188.224 66.0928 188.521 66.0538C189.692 65.9063 190.872 65.8828 192.035 65.9838C193.23 66.0928 194.409 66.3343 195.549 66.6918C196.229 66.9098 196.9 67.1668 197.549 67.4703C198.189 67.7733 198.814 68.1158 199.415 68.4973C199.571 68.5983 199.727 68.7073 199.884 68.8083C200.118 68.9793 200.352 69.1508 200.586 69.3143C200.766 69.4698 200.953 69.6099 201.133 69.7654C201.313 69.9209 201.484 70.0768 201.664 70.2398C201.836 70.3958 202.008 70.5668 202.172 70.7303C202.999 71.5783 203.734 72.5273 204.35 73.5623C204.483 73.7803 204.6 73.9983 204.725 74.2238C204.928 74.6128 205.116 75.0173 205.288 75.4373C205.319 75.5153 205.35 75.5933 205.381 75.6633C205.475 75.9123 205.569 76.1613 205.655 76.4258C205.733 76.6668 205.811 76.9083 205.881 77.1568C205.905 77.2428 205.928 77.3358 205.951 77.4218C205.99 77.5693 206.029 77.7248 206.061 77.8728C206.186 78.4408 206.287 79.0243 206.342 79.6233C206.357 79.7403 206.373 79.8568 206.381 79.9738C206.389 80.1528 206.397 80.3318 206.404 80.5103C206.404 80.5728 206.42 80.6273 206.42 80.6893C206.428 80.8063 206.436 80.9228 206.436 81.0473C206.443 81.1643 206.443 81.2888 206.443 81.4133Z" fill="url(#paint2_linear_9662_107)" fill-opacity="0.65"/>
<path d="M168.578 76.947C168.305 77.157 168.016 77.344 167.704 77.4995C167.688 77.523 167.664 77.5305 167.641 77.5385C166.751 78.005 165.736 78.262 164.666 78.262C162.104 78.262 159.894 76.7915 158.832 74.644L158.809 74.5975C158.746 74.4415 158.676 74.294 158.606 74.146C158.504 73.928 158.395 73.718 158.285 73.516C158.192 73.329 158.09 73.15 157.989 72.971C157.739 72.5355 157.473 72.1155 157.192 71.7105C157.059 71.516 156.927 71.3295 156.786 71.1425C156.372 70.59 155.927 70.061 155.459 69.563C155.404 69.5165 155.349 69.462 155.302 69.4075C155.177 69.283 155.06 69.1585 154.927 69.034C154.717 68.8395 154.506 68.6375 154.287 68.443C154.193 68.357 154.092 68.2795 153.998 68.2015C153.78 68.015 153.561 67.836 153.334 67.6645C153.264 67.6025 153.194 67.556 153.124 67.5015C153.1 67.478 153.077 67.4625 153.053 67.447C152.905 67.338 152.756 67.229 152.6 67.12C152.147 66.809 151.679 66.513 151.195 66.241C151.187 66.233 151.171 66.2255 151.156 66.2175L151.109 66.194L151.093 66.1785H151.077C151.007 66.1395 150.937 66.101 150.859 66.062C150.632 65.9375 150.398 65.8205 150.164 65.704C150.164 65.704 150.164 65.712 150.156 65.704C149.867 65.5715 149.578 65.4395 149.274 65.315C149.25 65.315 149.227 65.2915 149.203 65.284C149.195 65.284 149.18 65.284 149.172 65.284C149.07 65.245 148.969 65.214 148.867 65.175C148.836 65.167 148.805 65.1515 148.774 65.144C148.703 65.1125 148.641 65.0895 148.571 65.066C148.391 65.0035 148.204 64.9415 148.016 64.879C147.759 64.7935 147.501 64.716 147.243 64.646H147.227C147.056 64.599 146.868 64.5525 146.689 64.506C146.22 64.389 145.728 64.3035 145.252 64.2255C145.213 64.218 145.174 64.21 145.135 64.2025C144.955 64.1865 144.783 64.1555 144.604 64.1245C143.924 64.0465 143.237 64 142.542 64H67.5025C57.8265 63.992 50.0015 71.7965 50.0015 81.413V86.2605H109.056C109.758 86.2605 110.446 86.307 111.125 86.385C111.305 86.4005 111.476 86.4315 111.664 86.463C112.179 86.5405 112.702 86.642 113.21 86.7665C113.382 86.7975 113.577 86.844 113.765 86.9065C114.014 86.9765 114.28 87.054 114.538 87.14C114.717 87.194 114.897 87.2565 115.069 87.3185C115.147 87.342 115.217 87.3655 115.295 87.3965C115.365 87.42 115.444 87.443 115.514 87.4745C115.592 87.4975 115.67 87.529 115.74 87.56C116.061 87.6845 116.373 87.8245 116.685 87.9725C116.998 88.12 117.31 88.2835 117.599 88.447H117.63C117.63 88.447 117.646 88.4545 117.654 88.4625L117.677 88.486C117.677 88.486 117.708 88.509 117.724 88.509C118.364 88.875 118.981 89.2715 119.575 89.715C119.668 89.7775 119.762 89.855 119.856 89.933C122.097 91.629 123.909 93.8465 125.127 96.4065L125.151 96.453C125.213 96.5855 125.275 96.7255 125.33 96.8655L125.354 96.9125C126.416 99.06 128.626 100.531 131.187 100.531C132.257 100.531 133.272 100.274 134.163 99.8065C134.49 99.6045 134.826 99.3945 135.154 99.1765C137.739 97.5425 140.316 95.901 142.886 94.259C142.925 94.2435 142.956 94.2125 142.956 94.2125L143.065 94.15C143.065 94.15 143.073 94.1345 143.081 94.1425C143.089 94.127 143.104 94.119 143.112 94.119C143.448 93.909 143.776 93.6835 144.127 93.45H144.158C144.268 93.38 144.369 93.31 144.471 93.2475C144.58 93.1775 144.689 93.1075 144.799 93.0375L176.364 71.991C173.764 73.648 171.171 75.3055 168.578 76.947ZM163.69 79.787C163.643 79.8025 163.596 79.8105 163.549 79.818C163.596 79.8105 163.643 79.795 163.69 79.779C163.885 79.725 164.072 79.6545 164.252 79.577C164.064 79.6625 163.877 79.7325 163.69 79.787Z" fill="white"/>
<path d="M168.578 76.947C168.305 77.157 168.016 77.344 167.704 77.4995C167.688 77.523 167.664 77.5305 167.641 77.5385C166.751 78.005 165.736 78.262 164.666 78.262C162.104 78.262 159.894 76.7915 158.832 74.644L158.809 74.5975C158.746 74.4415 158.676 74.294 158.606 74.146C158.504 73.928 158.395 73.718 158.285 73.516C158.192 73.329 158.09 73.15 157.989 72.971C157.739 72.5355 157.473 72.1155 157.192 71.7105C157.059 71.516 156.927 71.3295 156.786 71.1425C156.372 70.59 155.927 70.061 155.459 69.563C155.404 69.5165 155.349 69.462 155.302 69.4075C155.177 69.283 155.06 69.1585 154.927 69.034C154.717 68.8395 154.506 68.6375 154.287 68.443C154.193 68.357 154.092 68.2795 153.998 68.2015C153.78 68.015 153.561 67.836 153.334 67.6645C153.264 67.6025 153.194 67.556 153.124 67.5015C153.1 67.478 153.077 67.4625 153.053 67.447C152.905 67.338 152.756 67.229 152.6 67.12C152.147 66.809 151.679 66.513 151.195 66.241C151.187 66.233 151.171 66.2255 151.156 66.2175L151.109 66.194L151.093 66.1785H151.077C151.007 66.1395 150.937 66.101 150.859 66.062C150.632 65.9375 150.398 65.8205 150.164 65.704C150.164 65.704 150.164 65.712 150.156 65.704C149.867 65.5715 149.578 65.4395 149.274 65.315C149.25 65.315 149.227 65.2915 149.203 65.284C149.195 65.284 149.18 65.284 149.172 65.284C149.07 65.245 148.969 65.214 148.867 65.175C148.836 65.167 148.805 65.1515 148.774 65.144C148.703 65.1125 148.641 65.0895 148.571 65.066C148.391 65.0035 148.204 64.9415 148.016 64.879C147.759 64.7935 147.501 64.716 147.243 64.646H147.227C147.056 64.599 146.868 64.5525 146.689 64.506C146.22 64.389 145.728 64.3035 145.252 64.2255C145.213 64.218 145.174 64.21 145.135 64.2025C144.955 64.1865 144.783 64.1555 144.604 64.1245C143.924 64.0465 143.237 64 142.542 64H67.5025C57.8265 63.992 50.0015 71.7965 50.0015 81.413V86.2605H109.056C109.758 86.2605 110.446 86.307 111.125 86.385C111.305 86.4005 111.476 86.4315 111.664 86.463C112.179 86.5405 112.702 86.642 113.21 86.7665C113.382 86.7975 113.577 86.844 113.765 86.9065C114.014 86.9765 114.28 87.054 114.538 87.14C114.717 87.194 114.897 87.2565 115.069 87.3185C115.147 87.342 115.217 87.3655 115.295 87.3965C115.365 87.42 115.444 87.443 115.514 87.4745C115.592 87.4975 115.67 87.529 115.74 87.56C116.061 87.6845 116.373 87.8245 116.685 87.9725C116.998 88.12 117.31 88.2835 117.599 88.447H117.63C117.63 88.447 117.646 88.4545 117.654 88.4625L117.677 88.486C117.677 88.486 117.708 88.509 117.724 88.509C118.364 88.875 118.981 89.2715 119.575 89.715C119.668 89.7775 119.762 89.855 119.856 89.933C122.097 91.629 123.909 93.8465 125.127 96.4065L125.151 96.453C125.213 96.5855 125.275 96.7255 125.33 96.8655L125.354 96.9125C126.416 99.06 128.626 100.531 131.187 100.531C132.257 100.531 133.272 100.274 134.163 99.8065C134.49 99.6045 134.826 99.3945 135.154 99.1765C137.739 97.5425 140.316 95.901 142.886 94.259C142.925 94.2435 142.956 94.2125 142.956 94.2125L143.065 94.15C143.065 94.15 143.073 94.1345 143.081 94.1425C143.089 94.127 143.104 94.119 143.112 94.119C143.448 93.909 143.776 93.6835 144.127 93.45H144.158C144.268 93.38 144.369 93.31 144.471 93.2475C144.58 93.1775 144.689 93.1075 144.799 93.0375L176.364 71.991C173.764 73.648 171.171 75.3055 168.578 76.947ZM163.69 79.787C163.643 79.8025 163.596 79.8105 163.549 79.818C163.596 79.8105 163.643 79.795 163.69 79.779C163.885 79.725 164.072 79.6545 164.252 79.577C164.064 79.6625 163.877 79.7325 163.69 79.787Z" fill="url(#paint3_linear_9662_107)" fill-opacity="0.65"/>
</g>
</g>
<defs>
<linearGradient id="paint0_linear_9662_107" x1="19.4061" y1="82.5505" x2="91.068" y2="-28.2458" gradientUnits="userSpaceOnUse">
<stop stop-color="#56BBFF"/>
<stop offset="1" stop-color="#30E3AE"/>
</linearGradient>
<radialGradient id="paint1_radial_9662_107" cx="0" cy="0" r="1" gradientTransform="matrix(111.614 -108.049 124.542 166.634 40.1628 204.275)" gradientUnits="userSpaceOnUse">
<stop stop-color="#82F8E1"/>
<stop offset="1" stop-color="#6E45E2"/>
</radialGradient>
<linearGradient id="paint2_linear_9662_107" x1="169.111" y1="77.6883" x2="233.836" y2="95.9213" gradientUnits="userSpaceOnUse">
<stop offset="0.1" stop-color="#6E45E2"/>
<stop offset="1" stop-color="#45E1CC" stop-opacity="0.9"/>
</linearGradient>
<linearGradient id="paint3_linear_9662_107" x1="62.047" y1="47.3473" x2="66.4985" y2="124.555" gradientUnits="userSpaceOnUse">
<stop offset="0.1" stop-color="#6E45E2"/>
<stop offset="0.9" stop-color="#45E1CC"/>
</linearGradient>
<clipPath id="clip0_9662_107">
<rect width="256" height="256" fill="white"/>
</clipPath>
</defs>
</svg>
