<svg width="256" height="256" viewBox="0 0 256 256" fill="none" xmlns="http://www.w3.org/2000/svg">
<rect x="125" y="31" width="85.582" height="33.8102" rx="4.22627" fill="url(#paint0_linear_11_327)"/>
<path d="M141.889 54.405V50.1069V44.8198V40.5217H147.042C150.333 40.5217 151.873 42.0622 151.873 44.0591C151.873 45.5045 150.979 46.6836 149.134 47.1591V47.2352C151.531 47.6536 152.558 48.9848 152.558 50.5253C152.558 52.5603 150.789 54.405 147.518 54.405H141.889ZM144.532 52.256H146.719C148.526 52.256 149.8 51.7995 149.8 50.3351C149.8 48.7756 148.526 48.4143 146.719 48.4143H144.532V52.256ZM144.532 46.2652H146.586C148.012 46.2652 149.192 45.8088 149.192 44.4395C149.192 43.0892 148.012 42.6898 146.586 42.6898H144.532V46.2652ZM166.435 52.1609V54.405H156.735V50.1069V44.8198V40.5217H166.245V42.7659H162.84H159.417V46.3413H161.965H165.37V48.5664H161.965H159.417V52.1609H163.049H166.435ZM173.846 54.405V50.1069V42.7659H172.781H169.396V40.5217H180.978V42.7659H177.574H176.509V50.1069V54.405H173.846ZM181.545 54.405C182.021 53.1688 182.629 51.5713 183.162 50.1259L186.756 40.5217H189.894L193.584 50.1069C194.173 51.5903 194.782 53.1879 195.238 54.405H192.366C192.024 53.3971 191.568 52.1419 191.13 50.9057H185.52C185.063 52.1419 184.626 53.3971 184.284 54.405H181.545ZM186.319 48.6805H190.313L188.335 43.2033H188.259L186.319 48.6805Z" fill="white"/>
<path d="M175.426 114.936V197.498C172.932 195.909 170.438 194.302 167.926 192.712C167.206 192.261 166.47 191.792 165.666 191.558C164.846 191.324 163.908 191.34 163.189 191.792C162.619 192.16 162.234 192.763 161.95 193.382C161.732 193.817 161.548 194.252 161.364 194.704C160.259 198.603 157.898 201.966 154.768 204.376C154.667 204.443 154.567 204.526 154.466 204.593C153.847 205.062 153.194 205.497 152.508 205.865C152.491 205.865 152.457 205.915 152.424 205.932C152.424 205.932 152.407 205.932 152.39 205.949C151.754 206.283 151.101 206.601 150.415 206.869C150.264 206.936 150.114 206.986 149.963 207.036C149.444 207.237 148.892 207.421 148.339 207.572C148.155 207.622 147.954 207.672 147.77 207.722C147.234 207.839 146.682 207.94 146.129 208.023C145.945 208.057 145.761 208.09 145.577 208.107C144.857 208.191 144.137 208.241 143.4 208.241H64.4153C54.2367 208.241 46 200.008 46 189.834V96.5291H108.16C108.897 96.5291 109.617 96.5793 110.337 96.6629C110.521 96.6797 110.705 96.7131 110.906 96.7466C111.441 96.8303 111.994 96.9307 112.53 97.0645C112.714 97.098 112.915 97.1482 113.116 97.2151C113.651 97.3657 114.204 97.5331 114.723 97.7339C114.873 97.7841 115.041 97.8343 115.191 97.9012C115.861 98.1689 116.531 98.4869 117.15 98.8383H117.184C117.184 98.8383 117.251 98.8885 117.284 98.9052C117.954 99.2901 118.607 99.7084 119.226 100.177C119.327 100.244 119.427 100.328 119.527 100.411C122.675 102.804 125.019 106.167 126.14 110.066C126.308 110.518 126.492 110.953 126.709 111.388C127.011 112.007 127.379 112.61 127.965 112.978C128.668 113.43 129.606 113.446 130.426 113.212C131.23 112.978 131.966 112.509 132.686 112.058C136.386 109.698 140.086 107.339 143.769 104.979C143.802 104.963 143.819 104.946 143.836 104.929L143.953 104.862C143.953 104.862 143.986 104.862 144.003 104.829C144.355 104.611 144.706 104.377 145.075 104.143H145.108C145.326 103.975 145.543 103.842 145.778 103.691C147.05 102.871 148.339 102.068 149.645 101.231C155.622 97.4159 162.854 97.9012 168.127 101.348C172.078 103.925 174.924 108.125 175.359 113.413C175.393 113.915 175.426 114.417 175.426 114.936Z" fill="#6D4AFF"/>
<path d="M175.426 114.936V197.498C172.932 195.909 170.438 194.302 167.926 192.712C167.206 192.261 166.47 191.792 165.666 191.558C164.846 191.324 163.908 191.34 163.189 191.792C162.619 192.16 162.234 192.763 161.95 193.382C161.732 193.817 161.548 194.252 161.364 194.704C160.259 198.603 157.898 201.966 154.768 204.376C154.667 204.443 154.567 204.526 154.466 204.593C153.847 205.062 153.194 205.497 152.508 205.865C152.491 205.865 152.457 205.915 152.424 205.932C152.424 205.932 152.407 205.932 152.39 205.949C151.754 206.283 151.101 206.601 150.415 206.869C150.264 206.936 150.114 206.986 149.963 207.036C149.444 207.237 148.892 207.421 148.339 207.572C148.155 207.622 147.954 207.672 147.77 207.722C147.234 207.839 146.682 207.94 146.129 208.023C145.945 208.057 145.761 208.09 145.577 208.107C144.857 208.191 144.137 208.241 143.4 208.241H64.4153C54.2367 208.241 46 200.008 46 189.834V96.5291H108.16C108.897 96.5291 109.617 96.5793 110.337 96.6629C110.521 96.6797 110.705 96.7131 110.906 96.7466C111.441 96.8303 111.994 96.9307 112.53 97.0645C112.714 97.098 112.915 97.1482 113.116 97.2151C113.651 97.3657 114.204 97.5331 114.723 97.7339C114.873 97.7841 115.041 97.8343 115.191 97.9012C115.861 98.1689 116.531 98.4869 117.15 98.8383H117.184C117.184 98.8383 117.251 98.8885 117.284 98.9052C117.954 99.2901 118.607 99.7084 119.226 100.177C119.327 100.244 119.427 100.328 119.527 100.411C122.675 102.804 125.019 106.167 126.14 110.066C126.308 110.518 126.492 110.953 126.709 111.388C127.011 112.007 127.379 112.61 127.965 112.978C128.668 113.43 129.606 113.446 130.426 113.212C131.23 112.978 131.966 112.509 132.686 112.058C136.386 109.698 140.086 107.339 143.769 104.979C143.802 104.963 143.819 104.946 143.836 104.929L143.953 104.862C143.953 104.862 143.986 104.862 144.003 104.829C144.355 104.611 144.706 104.377 145.075 104.143H145.108C145.326 103.975 145.543 103.842 145.778 103.691C147.05 102.871 148.339 102.068 149.645 101.231C155.622 97.4159 162.854 97.9012 168.127 101.348C172.078 103.925 174.924 108.125 175.359 113.413C175.393 113.915 175.426 114.417 175.426 114.936Z" fill="url(#paint1_radial_11_327)"/>
<g style="mix-blend-mode:multiply">
<path d="M175.426 114.936V197.498C172.932 195.909 170.438 194.302 167.926 192.712C167.206 192.261 166.47 191.792 165.666 191.558C164.846 191.324 163.908 191.34 163.189 191.792C162.619 192.16 162.234 192.763 161.95 193.382C161.732 193.817 161.548 194.252 161.364 194.704C160.259 198.603 157.898 201.966 154.768 204.376C154.667 204.443 154.567 204.526 154.466 204.593C153.847 205.062 153.194 205.497 152.508 205.865C152.491 205.865 152.457 205.915 152.424 205.932C152.424 205.932 152.407 205.932 152.39 205.949C151.754 206.283 151.101 206.601 150.415 206.869C150.264 206.936 150.114 206.986 149.963 207.036C149.444 207.237 148.892 207.421 148.339 207.572C148.155 207.622 147.954 207.672 147.77 207.722C147.234 207.839 146.682 207.94 146.129 208.023C145.945 208.057 145.761 208.09 145.577 208.107C144.857 208.191 144.137 208.241 143.4 208.241H64.4153C54.2367 208.241 46 200.008 46 189.834V96.5291H108.16C108.897 96.5291 109.617 96.5793 110.337 96.6629C110.521 96.6797 110.705 96.7131 110.906 96.7466C111.441 96.8303 111.994 96.9307 112.53 97.0645C112.714 97.098 112.915 97.1482 113.116 97.2151C113.651 97.3657 114.204 97.5331 114.723 97.7339C114.873 97.7841 115.041 97.8343 115.191 97.9012C115.861 98.1689 116.531 98.4869 117.15 98.8383H117.184C117.184 98.8383 117.251 98.8885 117.284 98.9052C117.954 99.2901 118.607 99.7084 119.226 100.177C119.327 100.244 119.427 100.328 119.527 100.411C122.675 102.804 125.019 106.167 126.14 110.066C126.308 110.518 126.492 110.953 126.709 111.388C127.011 112.007 127.379 112.61 127.965 112.978C128.668 113.43 129.606 113.446 130.426 113.212C131.23 112.978 131.966 112.509 132.686 112.058C136.386 109.698 140.086 107.339 143.769 104.979C143.802 104.963 143.819 104.946 143.836 104.929L143.953 104.862C143.953 104.862 143.986 104.862 144.003 104.829C144.355 104.611 144.706 104.377 145.075 104.143H145.108C145.326 103.975 145.543 103.842 145.778 103.691C147.05 102.871 148.339 102.068 149.645 101.231C155.622 97.4159 162.854 97.9012 168.127 101.348C172.078 103.925 174.924 108.125 175.359 113.413C175.393 113.915 175.426 114.417 175.426 114.936Z" fill="#1B1340" fill-opacity="0.1"/>
</g>
<path opacity="0.2" d="M175.426 114.936V197.498C172.932 195.909 170.438 194.302 167.926 192.712C167.206 192.261 166.47 191.792 165.666 191.558C164.846 191.324 163.908 191.34 163.189 191.792C162.619 192.16 162.234 192.763 161.95 193.382C161.732 193.817 161.548 194.252 161.364 194.704C160.259 198.603 157.898 201.966 154.768 204.376C154.667 204.443 154.567 204.526 154.466 204.593C153.847 205.062 153.194 205.497 152.508 205.865C152.491 205.865 152.457 205.915 152.424 205.932C152.424 205.932 152.407 205.932 152.39 205.949C151.754 206.283 151.101 206.601 150.415 206.869C150.264 206.936 150.114 206.986 149.963 207.036C149.444 207.237 148.892 207.421 148.339 207.572C148.155 207.622 147.954 207.672 147.77 207.722C147.234 207.839 146.682 207.94 146.129 208.023C145.945 208.057 145.761 208.09 145.577 208.107C144.857 208.191 144.137 208.241 143.4 208.241H64.4153C54.2367 208.241 46 200.008 46 189.834V96.5291H108.16C108.897 96.5291 109.617 96.5793 110.337 96.6629C110.521 96.6797 110.705 96.7131 110.906 96.7466C111.441 96.8303 111.994 96.9307 112.53 97.0645C112.714 97.098 112.915 97.1482 113.116 97.2151C113.651 97.3657 114.204 97.5331 114.723 97.7339C114.873 97.7841 115.041 97.8343 115.191 97.9012C115.861 98.1689 116.531 98.4869 117.15 98.8383H117.184C117.184 98.8383 117.251 98.8885 117.284 98.9052C117.954 99.2901 118.607 99.7084 119.226 100.177C119.327 100.244 119.427 100.328 119.527 100.411C122.675 102.804 125.019 106.167 126.14 110.066C126.308 110.518 126.492 110.953 126.709 111.388C127.011 112.007 127.379 112.61 127.965 112.978C128.668 113.43 129.606 113.446 130.426 113.212C131.23 112.978 131.966 112.509 132.686 112.058C136.386 109.698 140.086 107.339 143.769 104.979C143.802 104.963 143.819 104.946 143.836 104.929L143.953 104.862C143.953 104.862 143.986 104.862 144.003 104.829C144.355 104.611 144.706 104.377 145.075 104.143H145.108C145.326 103.975 145.543 103.842 145.778 103.691C147.05 102.871 148.339 102.068 149.645 101.231C155.622 97.4159 162.854 97.9012 168.127 101.348C172.078 103.925 174.924 108.125 175.359 113.413C175.393 113.915 175.426 114.417 175.426 114.936Z" fill="#6D4AFF"/>
<path d="M179.009 81.4504L145.778 103.689C145.543 103.84 145.326 103.973 145.108 104.124H145.075C144.706 104.375 144.355 104.609 144.003 104.827C143.986 104.844 143.97 104.844 143.953 104.86L143.836 104.927C143.836 104.927 143.802 104.961 143.769 104.977C140.086 107.337 136.386 109.696 132.686 112.056C131.966 112.507 131.23 112.976 130.426 113.21C129.606 113.445 128.668 113.428 127.965 112.976C127.379 112.608 127.011 112.005 126.709 111.386C126.492 110.951 126.308 110.516 126.14 110.064C125.019 106.166 122.675 102.802 119.527 100.409C119.427 100.326 119.327 100.242 119.226 100.175C118.607 99.7065 117.954 99.2881 117.284 98.9033C117.251 98.9033 117.217 98.8531 117.184 98.8363H117.15C116.531 98.4849 115.861 98.167 115.191 97.8993C115.041 97.8323 114.873 97.7821 114.723 97.7319C114.204 97.5311 113.651 97.3638 113.116 97.2132C112.915 97.1463 112.714 97.0961 112.53 97.0626C111.994 96.9287 111.441 96.8283 110.906 96.7447C110.705 96.7112 110.521 96.6777 110.337 96.661C109.617 96.5773 108.897 96.5271 108.16 96.5271H46V91.4067C46 81.2496 54.2367 73 64.4153 73H143.4C144.137 73 144.857 73.0502 145.577 73.1339C145.761 73.1673 145.945 73.2008 146.129 73.2175C146.682 73.3012 147.234 73.4016 147.77 73.5355C147.954 73.5857 148.155 73.6359 148.339 73.6861C148.892 73.8367 149.444 74.0207 149.963 74.2048C150.114 74.2717 150.264 74.3219 150.415 74.3721C151.101 74.6566 151.754 74.9578 152.39 75.3092C152.407 75.3092 152.424 75.3259 152.424 75.3259C152.457 75.3427 152.491 75.3594 152.508 75.3761C153.194 75.761 153.847 76.1961 154.466 76.6479C154.567 76.7315 154.667 76.7985 154.768 76.8821C157.898 79.2917 160.259 82.6552 161.364 86.5373C161.548 86.9891 161.732 87.4409 161.95 87.8592C162.234 88.4784 162.619 89.0808 163.189 89.4489C163.908 89.9174 164.846 89.9342 165.666 89.6832C166.47 89.4489 167.206 88.9971 167.926 88.5286C171.626 86.1859 175.309 83.8098 179.009 81.4504Z" fill="url(#paint2_linear_11_327)"/>
<path d="M210.674 91.4088V189.834C210.674 190.353 210.64 190.855 210.607 191.357C209.585 203.706 195.322 210.216 184.892 203.539L179.083 199.841C179.083 199.841 179.049 199.808 179.016 199.791C177.827 199.021 176.622 198.268 175.433 197.498V114.936C175.433 114.417 175.4 113.915 175.366 113.413C174.931 108.125 172.085 103.925 168.134 101.348C162.861 97.9014 155.629 97.4161 149.652 101.231C148.346 102.068 147.057 102.871 145.785 103.691L179.016 81.4525L179.083 81.419L179.518 81.1345C180.02 80.8166 180.523 80.4987 181.025 80.1807C182.297 79.3608 183.586 78.5409 184.892 77.7042C195.322 71.0443 209.585 77.5369 210.607 89.8861C210.64 90.3881 210.674 90.8901 210.674 91.4088Z" fill="url(#paint3_linear_11_327)"/>
<g style="mix-blend-mode:multiply" opacity="0.1">
<path d="M145.791 103.691L145.777 103.701C145.543 103.851 145.326 103.985 145.108 104.135H145.074C144.706 104.386 144.354 104.621 144.003 104.839C143.986 104.855 143.97 104.855 143.953 104.872L143.836 104.939C143.834 104.941 143.801 104.973 143.769 104.989C140.086 107.348 136.386 109.708 132.687 112.067C131.967 112.519 131.229 112.987 130.426 113.221C129.605 113.456 128.668 113.439 127.965 112.987C127.379 112.619 127.01 112.017 126.709 111.398C126.491 110.963 126.308 110.528 126.141 110.076C125.019 106.177 122.675 102.814 119.527 100.421C119.427 100.337 119.327 100.253 119.227 100.186C118.607 99.7178 117.954 99.2997 117.284 98.9148C117.251 98.9148 117.217 98.8641 117.184 98.8474H117.15C116.531 98.496 115.861 98.1786 115.191 97.9109C115.041 97.844 114.873 97.7931 114.723 97.7429C114.204 97.5422 113.651 97.3749 113.115 97.2244C112.914 97.1575 112.713 97.1074 112.529 97.074C111.994 96.9401 111.441 96.8402 110.905 96.7566C110.705 96.7232 110.521 96.6893 110.337 96.6726C109.617 96.5889 108.897 96.5388 108.16 96.5388H46V91.4177C46.0002 81.2609 54.2367 73.0116 64.415 73.0115H143.4C144.137 73.0115 144.857 73.0616 145.577 73.1453C145.761 73.1787 145.945 73.2125 146.129 73.2292C146.681 73.3129 147.234 73.4128 147.77 73.5466C147.954 73.5968 148.155 73.6478 148.339 73.698C148.891 73.8486 149.444 74.0325 149.963 74.2166C150.114 74.2835 150.264 74.3333 150.415 74.3835C151.101 74.668 151.754 74.9696 152.391 75.321C152.407 75.3211 152.424 75.3376 152.424 75.3376C152.457 75.3544 152.491 75.3707 152.508 75.3875C153.194 75.7723 153.847 76.2071 154.467 76.6589C154.567 76.7425 154.667 76.8097 154.768 76.8933C157.898 79.3029 160.259 82.6665 161.364 86.5486C161.548 87.0004 161.733 87.4525 161.95 87.8708C162.235 88.4899 162.619 89.0926 163.188 89.4607C163.908 89.9291 164.846 89.9459 165.666 89.6951C166.47 89.4608 167.207 89.0083 167.927 88.5398C171.626 86.1972 175.309 83.821 179.009 81.4617L164.713 91.0291L179.013 81.4597L179.079 81.4255L179.515 81.1414C180.017 80.8234 180.519 80.5052 181.021 80.1873C182.294 79.3674 183.583 78.5473 184.889 77.7107C195.318 71.051 209.582 77.5441 210.604 89.8933C210.637 90.3952 210.67 90.8972 210.67 91.4158V189.842C210.67 190.36 210.637 190.862 210.604 191.364C209.582 203.713 195.318 210.222 184.889 203.546L179.079 199.848C179.079 199.848 179.046 199.814 179.013 199.798C177.824 199.028 176.618 198.275 175.43 197.506V114.943C175.43 114.424 175.397 113.922 175.363 113.42C174.928 108.132 172.082 103.932 168.131 101.355C162.857 97.9082 155.625 97.4229 149.648 101.238C148.346 102.073 147.06 102.873 145.791 103.691Z" fill="#6D4AFF"/>
</g>
<defs>
<linearGradient id="paint0_linear_11_327" x1="138.313" y1="85.2181" x2="184.511" y2="10.6138" gradientUnits="userSpaceOnUse">
<stop stop-color="#56BBFF"/>
<stop offset="1" stop-color="#30E3AE"/>
</linearGradient>
<radialGradient id="paint1_radial_11_327" cx="0" cy="0" r="1" gradientTransform="matrix(55.9124 -97.2975 119.471 91.3076 69.5646 205.37)" gradientUnits="userSpaceOnUse">
<stop stop-color="#B8C6E5"/>
<stop offset="0.418768" stop-color="#9388F2"/>
<stop offset="0.716275" stop-color="#6D4AFF"/>
</radialGradient>
<linearGradient id="paint2_linear_11_327" x1="55.4212" y1="59.4252" x2="88.8508" y2="131.8" gradientUnits="userSpaceOnUse">
<stop stop-color="#6652F5"/>
<stop offset="0.33754" stop-color="#9A9CF9"/>
<stop offset="0.868809" stop-color="#D9DAFC"/>
</linearGradient>
<linearGradient id="paint3_linear_11_327" x1="159.793" y1="64.6651" x2="237.002" y2="88.4598" gradientUnits="userSpaceOnUse">
<stop stop-color="#6652F5"/>
<stop offset="0.33754" stop-color="#9A9CF9"/>
<stop offset="0.868809" stop-color="#D9DAFC"/>
</linearGradient>
</defs>
</svg>
