<svg width="256" height="256" viewBox="0 0 256 256" fill="none" xmlns="http://www.w3.org/2000/svg">
<path d="M175.426 101.936V184.498C172.932 182.909 170.438 181.302 167.926 179.712C167.206 179.261 166.47 178.792 165.666 178.558C164.846 178.324 163.908 178.34 163.189 178.792C162.619 179.16 162.234 179.763 161.95 180.382C161.732 180.817 161.548 181.252 161.364 181.704C160.259 185.603 157.898 188.966 154.768 191.376C154.667 191.443 154.567 191.526 154.466 191.593C153.847 192.062 153.194 192.497 152.508 192.865C152.491 192.865 152.457 192.915 152.424 192.932C152.424 192.932 152.407 192.932 152.39 192.949C151.754 193.283 151.101 193.601 150.415 193.869C150.264 193.936 150.114 193.986 149.963 194.036C149.444 194.237 148.892 194.421 148.339 194.572C148.155 194.622 147.954 194.672 147.77 194.722C147.234 194.839 146.682 194.94 146.129 195.023C145.945 195.057 145.761 195.09 145.577 195.107C144.857 195.191 144.137 195.241 143.4 195.241H64.4153C54.2367 195.241 46 187.008 46 176.834V83.5291H108.16C108.897 83.5291 109.617 83.5793 110.337 83.6629C110.521 83.6797 110.705 83.7131 110.906 83.7466C111.441 83.8303 111.994 83.9307 112.53 84.0645C112.714 84.098 112.915 84.1482 113.116 84.2151C113.651 84.3657 114.204 84.5331 114.723 84.7339C114.873 84.7841 115.041 84.8343 115.191 84.9012C115.861 85.1689 116.531 85.4869 117.15 85.8383H117.184C117.184 85.8383 117.251 85.8885 117.284 85.9052C117.954 86.2901 118.607 86.7084 119.226 87.1769C119.327 87.2439 119.427 87.3275 119.527 87.4112C122.675 89.8041 125.019 93.1675 126.14 97.0663C126.308 97.5181 126.492 97.9532 126.709 98.3883C127.011 99.0074 127.379 99.6098 127.965 99.978C128.668 100.43 129.606 100.446 130.426 100.212C131.23 99.978 131.966 99.5094 132.686 99.0576C136.386 96.6982 140.086 94.3388 143.769 91.9794C143.802 91.9627 143.819 91.9459 143.836 91.9292L143.953 91.8623C143.953 91.8623 143.986 91.8623 144.003 91.8288C144.355 91.6113 144.706 91.377 145.075 91.1427H145.108C145.326 90.9754 145.543 90.8415 145.778 90.6909C147.05 89.871 148.339 89.0678 149.645 88.2311C155.622 84.4159 162.854 84.9012 168.127 88.3483C172.078 90.9252 174.924 95.1253 175.359 100.413C175.393 100.915 175.426 101.417 175.426 101.936Z" fill="#6D4AFF"/>
<path d="M175.426 101.936V184.498C172.932 182.909 170.438 181.302 167.926 179.712C167.206 179.261 166.47 178.792 165.666 178.558C164.846 178.324 163.908 178.34 163.189 178.792C162.619 179.16 162.234 179.763 161.95 180.382C161.732 180.817 161.548 181.252 161.364 181.704C160.259 185.603 157.898 188.966 154.768 191.376C154.667 191.443 154.567 191.526 154.466 191.593C153.847 192.062 153.194 192.497 152.508 192.865C152.491 192.865 152.457 192.915 152.424 192.932C152.424 192.932 152.407 192.932 152.39 192.949C151.754 193.283 151.101 193.601 150.415 193.869C150.264 193.936 150.114 193.986 149.963 194.036C149.444 194.237 148.892 194.421 148.339 194.572C148.155 194.622 147.954 194.672 147.77 194.722C147.234 194.839 146.682 194.94 146.129 195.023C145.945 195.057 145.761 195.09 145.577 195.107C144.857 195.191 144.137 195.241 143.4 195.241H64.4153C54.2367 195.241 46 187.008 46 176.834V83.5291H108.16C108.897 83.5291 109.617 83.5793 110.337 83.6629C110.521 83.6797 110.705 83.7131 110.906 83.7466C111.441 83.8303 111.994 83.9307 112.53 84.0645C112.714 84.098 112.915 84.1482 113.116 84.2151C113.651 84.3657 114.204 84.5331 114.723 84.7339C114.873 84.7841 115.041 84.8343 115.191 84.9012C115.861 85.1689 116.531 85.4869 117.15 85.8383H117.184C117.184 85.8383 117.251 85.8885 117.284 85.9052C117.954 86.2901 118.607 86.7084 119.226 87.1769C119.327 87.2439 119.427 87.3275 119.527 87.4112C122.675 89.8041 125.019 93.1675 126.14 97.0663C126.308 97.5181 126.492 97.9532 126.709 98.3883C127.011 99.0074 127.379 99.6098 127.965 99.978C128.668 100.43 129.606 100.446 130.426 100.212C131.23 99.978 131.966 99.5094 132.686 99.0576C136.386 96.6982 140.086 94.3388 143.769 91.9794C143.802 91.9627 143.819 91.9459 143.836 91.9292L143.953 91.8623C143.953 91.8623 143.986 91.8623 144.003 91.8288C144.355 91.6113 144.706 91.377 145.075 91.1427H145.108C145.326 90.9754 145.543 90.8415 145.778 90.6909C147.05 89.871 148.339 89.0678 149.645 88.2311C155.622 84.4159 162.854 84.9012 168.127 88.3483C172.078 90.9252 174.924 95.1253 175.359 100.413C175.393 100.915 175.426 101.417 175.426 101.936Z" fill="url(#paint0_radial_11_338)"/>
<g style="mix-blend-mode:multiply">
<path d="M175.426 101.936V184.498C172.932 182.909 170.438 181.302 167.926 179.712C167.206 179.261 166.47 178.792 165.666 178.558C164.846 178.324 163.908 178.34 163.189 178.792C162.619 179.16 162.234 179.763 161.95 180.382C161.732 180.817 161.548 181.252 161.364 181.704C160.259 185.603 157.898 188.966 154.768 191.376C154.667 191.443 154.567 191.526 154.466 191.593C153.847 192.062 153.194 192.497 152.508 192.865C152.491 192.865 152.457 192.915 152.424 192.932C152.424 192.932 152.407 192.932 152.39 192.949C151.754 193.283 151.101 193.601 150.415 193.869C150.264 193.936 150.114 193.986 149.963 194.036C149.444 194.237 148.892 194.421 148.339 194.572C148.155 194.622 147.954 194.672 147.77 194.722C147.234 194.839 146.682 194.94 146.129 195.023C145.945 195.057 145.761 195.09 145.577 195.107C144.857 195.191 144.137 195.241 143.4 195.241H64.4153C54.2367 195.241 46 187.008 46 176.834V83.5291H108.16C108.897 83.5291 109.617 83.5793 110.337 83.6629C110.521 83.6797 110.705 83.7131 110.906 83.7466C111.441 83.8303 111.994 83.9307 112.53 84.0645C112.714 84.098 112.915 84.1482 113.116 84.2151C113.651 84.3657 114.204 84.5331 114.723 84.7339C114.873 84.7841 115.041 84.8343 115.191 84.9012C115.861 85.1689 116.531 85.4869 117.15 85.8383H117.184C117.184 85.8383 117.251 85.8885 117.284 85.9052C117.954 86.2901 118.607 86.7084 119.226 87.1769C119.327 87.2439 119.427 87.3275 119.527 87.4112C122.675 89.8041 125.019 93.1675 126.14 97.0663C126.308 97.5181 126.492 97.9532 126.709 98.3883C127.011 99.0074 127.379 99.6098 127.965 99.978C128.668 100.43 129.606 100.446 130.426 100.212C131.23 99.978 131.966 99.5094 132.686 99.0576C136.386 96.6982 140.086 94.3388 143.769 91.9794C143.802 91.9627 143.819 91.9459 143.836 91.9292L143.953 91.8623C143.953 91.8623 143.986 91.8623 144.003 91.8288C144.355 91.6113 144.706 91.377 145.075 91.1427H145.108C145.326 90.9754 145.543 90.8415 145.778 90.6909C147.05 89.871 148.339 89.0678 149.645 88.2311C155.622 84.4159 162.854 84.9012 168.127 88.3483C172.078 90.9252 174.924 95.1253 175.359 100.413C175.393 100.915 175.426 101.417 175.426 101.936Z" fill="#1B1340" fill-opacity="0.1"/>
</g>
<path opacity="0.2" d="M175.426 101.936V184.498C172.932 182.909 170.438 181.302 167.926 179.712C167.206 179.261 166.47 178.792 165.666 178.558C164.846 178.324 163.908 178.34 163.189 178.792C162.619 179.16 162.234 179.763 161.95 180.382C161.732 180.817 161.548 181.252 161.364 181.704C160.259 185.603 157.898 188.966 154.768 191.376C154.667 191.443 154.567 191.526 154.466 191.593C153.847 192.062 153.194 192.497 152.508 192.865C152.491 192.865 152.457 192.915 152.424 192.932C152.424 192.932 152.407 192.932 152.39 192.949C151.754 193.283 151.101 193.601 150.415 193.869C150.264 193.936 150.114 193.986 149.963 194.036C149.444 194.237 148.892 194.421 148.339 194.572C148.155 194.622 147.954 194.672 147.77 194.722C147.234 194.839 146.682 194.94 146.129 195.023C145.945 195.057 145.761 195.09 145.577 195.107C144.857 195.191 144.137 195.241 143.4 195.241H64.4153C54.2367 195.241 46 187.008 46 176.834V83.5291H108.16C108.897 83.5291 109.617 83.5793 110.337 83.6629C110.521 83.6797 110.705 83.7131 110.906 83.7466C111.441 83.8303 111.994 83.9307 112.53 84.0645C112.714 84.098 112.915 84.1482 113.116 84.2151C113.651 84.3657 114.204 84.5331 114.723 84.7339C114.873 84.7841 115.041 84.8343 115.191 84.9012C115.861 85.1689 116.531 85.4869 117.15 85.8383H117.184C117.184 85.8383 117.251 85.8885 117.284 85.9052C117.954 86.2901 118.607 86.7084 119.226 87.1769C119.327 87.2439 119.427 87.3275 119.527 87.4112C122.675 89.8041 125.019 93.1675 126.14 97.0663C126.308 97.5181 126.492 97.9532 126.709 98.3883C127.011 99.0074 127.379 99.6098 127.965 99.978C128.668 100.43 129.606 100.446 130.426 100.212C131.23 99.978 131.966 99.5094 132.686 99.0576C136.386 96.6982 140.086 94.3388 143.769 91.9794C143.802 91.9627 143.819 91.9459 143.836 91.9292L143.953 91.8623C143.953 91.8623 143.986 91.8623 144.003 91.8288C144.355 91.6113 144.706 91.377 145.075 91.1427H145.108C145.326 90.9754 145.543 90.8415 145.778 90.6909C147.05 89.871 148.339 89.0678 149.645 88.2311C155.622 84.4159 162.854 84.9012 168.127 88.3483C172.078 90.9252 174.924 95.1253 175.359 100.413C175.393 100.915 175.426 101.417 175.426 101.936Z" fill="#6D4AFF"/>
<path d="M179.009 68.4504L145.778 90.689C145.543 90.8396 145.326 90.9735 145.108 91.1241H145.075C144.706 91.3751 144.355 91.6093 144.003 91.8269C143.986 91.8436 143.97 91.8436 143.953 91.8603L143.836 91.9273C143.836 91.9273 143.802 91.9607 143.769 91.9775C140.086 94.3369 136.386 96.6963 132.686 99.0557C131.966 99.5075 131.23 99.976 130.426 100.21C129.606 100.445 128.668 100.428 127.965 99.976C127.379 99.6079 127.011 99.0055 126.709 98.3864C126.492 97.9513 126.308 97.5162 126.14 97.0644C125.019 93.1655 122.675 89.8021 119.527 87.4093C119.427 87.3256 119.327 87.2419 119.226 87.175C118.607 86.7065 117.954 86.2881 117.284 85.9033C117.251 85.9033 117.217 85.8531 117.184 85.8363H117.15C116.531 85.4849 115.861 85.167 115.191 84.8993C115.041 84.8323 114.873 84.7821 114.723 84.7319C114.204 84.5311 113.651 84.3638 113.116 84.2132C112.915 84.1463 112.714 84.0961 112.53 84.0626C111.994 83.9287 111.441 83.8283 110.906 83.7447C110.705 83.7112 110.521 83.6777 110.337 83.661C109.617 83.5773 108.897 83.5271 108.16 83.5271H46V78.4067C46 68.2496 54.2367 60 64.4153 60H143.4C144.137 60 144.857 60.0502 145.577 60.1339C145.761 60.1673 145.945 60.2008 146.129 60.2175C146.682 60.3012 147.234 60.4016 147.77 60.5355C147.954 60.5857 148.155 60.6359 148.339 60.6861C148.892 60.8367 149.444 61.0207 149.963 61.2048C150.114 61.2717 150.264 61.3219 150.415 61.3721C151.101 61.6566 151.754 61.9578 152.39 62.3092C152.407 62.3092 152.424 62.3259 152.424 62.3259C152.457 62.3427 152.491 62.3594 152.508 62.3761C153.194 62.761 153.847 63.1961 154.466 63.6479C154.567 63.7315 154.667 63.7985 154.768 63.8821C157.898 66.2917 160.259 69.6552 161.364 73.5373C161.548 73.9891 161.732 74.4409 161.95 74.8592C162.234 75.4784 162.619 76.0808 163.189 76.4489C163.908 76.9174 164.846 76.9342 165.666 76.6832C166.47 76.4489 167.206 75.9971 167.926 75.5286C171.626 73.1859 175.309 70.8098 179.009 68.4504Z" fill="url(#paint1_linear_11_338)"/>
<path d="M210.674 78.4088V176.834C210.674 177.353 210.64 177.855 210.607 178.357C209.585 190.706 195.322 197.216 184.892 190.539L179.083 186.841C179.083 186.841 179.049 186.808 179.016 186.791C177.827 186.021 176.622 185.268 175.433 184.498V101.936C175.433 101.417 175.4 100.915 175.366 100.413C174.931 95.1255 172.085 90.9254 168.134 88.3484C162.861 84.9014 155.629 84.4161 149.652 88.2313C148.346 89.068 147.057 89.8712 145.785 90.6911L179.016 68.4525L179.083 68.419L179.518 68.1345C180.02 67.8166 180.523 67.4987 181.025 67.1807C182.297 66.3608 183.586 65.5409 184.892 64.7042C195.322 58.0443 209.585 64.5369 210.607 76.8861C210.64 77.3881 210.674 77.8901 210.674 78.4088Z" fill="url(#paint2_linear_11_338)"/>
<g style="mix-blend-mode:multiply" opacity="0.1">
<path d="M145.791 90.6912L145.777 90.7009C145.543 90.8514 145.326 90.9851 145.108 91.1355H145.074C144.706 91.3864 144.354 91.6211 144.003 91.8386C143.986 91.8551 143.97 91.8553 143.953 91.8718L143.836 91.9392C143.834 91.9414 143.801 91.9729 143.769 91.989C140.086 94.3483 136.386 96.7078 132.687 99.0671C131.967 99.5189 131.229 99.9872 130.426 100.221C129.605 100.456 128.668 100.439 127.965 99.9871C127.379 99.6189 127.01 99.0172 126.709 98.3982C126.491 97.9632 126.308 97.5277 126.141 97.0759C125.019 93.1771 122.675 89.8135 119.527 87.4207C119.427 87.3371 119.327 87.2532 119.227 87.1863C118.607 86.7178 117.954 86.2997 117.284 85.9148C117.251 85.9148 117.217 85.8641 117.184 85.8474H117.15C116.531 85.496 115.861 85.1786 115.191 84.9109C115.041 84.844 114.873 84.7931 114.723 84.7429C114.204 84.5422 113.651 84.3749 113.115 84.2244C112.914 84.1575 112.713 84.1074 112.529 84.074C111.994 83.9401 111.441 83.8402 110.905 83.7566C110.705 83.7232 110.521 83.6893 110.337 83.6726C109.617 83.5889 108.897 83.5388 108.16 83.5388H46V78.4177C46.0002 68.2609 54.2367 60.0116 64.415 60.0115H143.4C144.137 60.0115 144.857 60.0616 145.577 60.1453C145.761 60.1787 145.945 60.2125 146.129 60.2292C146.681 60.3129 147.234 60.4128 147.77 60.5466C147.954 60.5968 148.155 60.6478 148.339 60.698C148.891 60.8486 149.444 61.0325 149.963 61.2166C150.114 61.2835 150.264 61.3333 150.415 61.3835C151.101 61.668 151.754 61.9696 152.391 62.321C152.407 62.3211 152.424 62.3376 152.424 62.3376C152.457 62.3544 152.491 62.3707 152.508 62.3875C153.194 62.7723 153.847 63.2071 154.467 63.6589C154.567 63.7425 154.667 63.8097 154.768 63.8933C157.898 66.3029 160.259 69.6665 161.364 73.5486C161.548 74.0004 161.733 74.4525 161.95 74.8708C162.235 75.4899 162.619 76.0926 163.188 76.4607C163.908 76.9291 164.846 76.9459 165.666 76.6951C166.47 76.4608 167.207 76.0083 167.927 75.5398C171.626 73.1972 175.309 70.821 179.009 68.4617L164.713 78.0291L179.013 68.4597L179.079 68.4255L179.515 68.1414C180.017 67.8234 180.519 67.5052 181.021 67.1873C182.294 66.3674 183.583 65.5473 184.889 64.7107C195.318 58.051 209.582 64.5441 210.604 76.8933C210.637 77.3952 210.67 77.8972 210.67 78.4158V176.842C210.67 177.36 210.637 177.862 210.604 178.364C209.582 190.713 195.318 197.222 184.889 190.546L179.079 186.848C179.079 186.848 179.046 186.814 179.013 186.798C177.824 186.028 176.618 185.275 175.43 184.506V101.943C175.43 101.424 175.397 100.922 175.363 100.42C174.928 95.1321 172.082 90.9321 168.131 88.3552C162.857 84.9082 155.625 84.4229 149.648 88.238C148.346 89.0725 147.06 89.8735 145.791 90.6912Z" fill="#6D4AFF"/>
</g>
<defs>
<radialGradient id="paint0_radial_11_338" cx="0" cy="0" r="1" gradientTransform="matrix(55.9124 -97.2975 119.471 91.3076 69.5646 192.37)" gradientUnits="userSpaceOnUse">
<stop stop-color="#B8C6E5"/>
<stop offset="0.418768" stop-color="#9388F2"/>
<stop offset="0.716275" stop-color="#6D4AFF"/>
</radialGradient>
<linearGradient id="paint1_linear_11_338" x1="55.4212" y1="46.4252" x2="88.8508" y2="118.8" gradientUnits="userSpaceOnUse">
<stop stop-color="#6652F5"/>
<stop offset="0.33754" stop-color="#9A9CF9"/>
<stop offset="0.868809" stop-color="#D9DAFC"/>
</linearGradient>
<linearGradient id="paint2_linear_11_338" x1="159.793" y1="51.6651" x2="237.002" y2="75.4598" gradientUnits="userSpaceOnUse">
<stop stop-color="#6652F5"/>
<stop offset="0.33754" stop-color="#9A9CF9"/>
<stop offset="0.868809" stop-color="#D9DAFC"/>
</linearGradient>
</defs>
</svg>
