<svg xmlns="http://www.w3.org/2000/svg" width="24" height="24" fill="none">
    <path
        fill="#EC3E7C"
        fill-rule="evenodd"
        d="M21 3.487A2.5 2.5 0 0 0 18.5 1h-15A2.5 2.5 0 0 0 1 3.5v10A2.5 2.5 0 0 0 3.5 16H13v-1H3.5A1.5 1.5 0 0 1 2 13.5V4.407l7.665 4.841a2.5 2.5 0 0 0 2.67 0L20 4.408V8h1V3.487M18.5 2h-15a1.5 1.5 0 0 0-1.477 1.239l8.176 5.164a1.5 1.5 0 0 0 1.602 0l8.176-5.164A1.5 1.5 0 0 0 18.5 2"
        clip-rule="evenodd"
    />
    <path
        fill="#EC3E7C"
        d="M20.854 12.854a.5.5 0 0 0-.708-.708L18 14.293l-.646-.647a.5.5 0 0 0-.708.708l1 1a.5.5 0 0 0 .708 0z"
    />
    <path
        fill="#EC3E7C"
        fill-rule="evenodd"
        d="M17.244 8.561a1.685 1.685 0 0 1 2.512 0c.341.382.837.587 1.348.559a1.685 1.685 0 0 1 1.776 1.776 1.69 1.69 0 0 0 .559 1.348c.748.67.748 1.842 0 2.512a1.69 1.69 0 0 0-.559 1.348A1.68 1.68 0 0 1 22 17.68v4.681a.6.6 0 0 1-.79.57l-2.71-.904-2.71.903a.6.6 0 0 1-.79-.569V17.68a1.68 1.68 0 0 1-.88-1.576 1.69 1.69 0 0 0-.559-1.348 1.685 1.685 0 0 1 0-2.512c.382-.341.587-.837.559-1.348a1.685 1.685 0 0 1 1.776-1.776 1.69 1.69 0 0 0 1.348-.559m-1.404 1.557a2.69 2.69 0 0 0 2.15-.89.685.685 0 0 1 1.02 0 2.69 2.69 0 0 0 2.15.89.685.685 0 0 1 .722.722 2.69 2.69 0 0 0 .89 2.15.685.685 0 0 1 0 1.02 2.69 2.69 0 0 0-.89 2.15.685.685 0 0 1-.722.722 2.69 2.69 0 0 0-2.15.89.685.685 0 0 1-1.02 0 2.69 2.69 0 0 0-2.15-.89.685.685 0 0 1-.722-.722 2.69 2.69 0 0 0-.89-2.15.685.685 0 0 1 0-1.02 2.69 2.69 0 0 0 .89-2.15.685.685 0 0 1 .722-.722m.16 7.76v3.928l2.5-.833 2.5.833v-3.928a1.69 1.69 0 0 0-1.244.56 1.685 1.685 0 0 1-2.512 0 1.69 1.69 0 0 0-1.244-.56"
        clip-rule="evenodd"
    />
</svg>
