<svg xmlns="http://www.w3.org/2000/svg" width="24" height="24" fill="none">
    <path fill="#EC3E7C" d="M14.5 11h-2.3l.8-4-3.5 5h2.3l-.8 4z" />
    <path
        fill="#EC3E7C"
        fill-rule="evenodd"
        d="M12.248 1.066a.5.5 0 0 0-.496 0C9.1 2.58 5.552 3.813 4.052 4.3A1.52 1.52 0 0 0 3 5.744v8.391a4.5 4.5 0 0 0 2.05 3.775l5.664 3.676a1.5 1.5 0 0 0 1.566.041l6.469-3.732A4.5 4.5 0 0 0 21 13.997V5.744c0-.662-.43-1.24-1.052-1.443-1.5-.488-5.049-1.72-7.7-3.235M4.362 5.252C5.822 4.777 9.286 3.578 12 2.074c2.714 1.504 6.178 2.703 7.638 3.178a.52.52 0 0 1 .362.492v8.253a3.5 3.5 0 0 1-1.751 3.032l-6.468 3.732a.5.5 0 0 1-.523-.014l-5.663-3.676A3.5 3.5 0 0 1 4 14.135V5.744a.52.52 0 0 1 .362-.492"
        clip-rule="evenodd"
    />
</svg>
