<svg xmlns="http://www.w3.org/2000/svg" width="24" height="24" fill="none">
    <path
        fill="#EC3E7C"
        fill-rule="evenodd"
        d="M12 3.202 9.524 7.718a1.81 1.81 0 0 1-1.257.91l-5.073.944L6.737 13.3c.374.394.552.936.481 1.476l-.664 5.093 4.671-2.206a1.82 1.82 0 0 1 1.55 0l4.67 2.206-.663-5.093c-.07-.54.107-1.082.481-1.476l3.543-3.728-5.073-.945a1.81 1.81 0 0 1-1.257-.909zm.712-.781a.813.813 0 0 0-1.424 0L8.647 7.238a.81.81 0 0 1-.563.406l-5.421 1.01a.806.806 0 0 0-.44 1.348l3.789 3.987a.8.8 0 0 1 .215.658l-.71 5.441a.81.81 0 0 0 1.152.833l4.983-2.353a.82.82 0 0 1 .696 0l4.983 2.353a.81.81 0 0 0 1.152-.833l-.71-5.441a.8.8 0 0 1 .215-.658L21.778 10a.806.806 0 0 0-.44-1.347l-5.422-1.01a.81.81 0 0 1-.563-.406z"
        clip-rule="evenodd"
    />
    <path
        fill="#EC3E7C"
        fill-rule="evenodd"
        d="M3.146 3.146a.5.5 0 0 1 .708 0l2.5 2.5a.5.5 0 1 1-.708.708l-2.5-2.5a.5.5 0 0 1 0-.708M19.854 4.146a.5.5 0 0 1 0 .708l-1.5 1.5a.5.5 0 0 1-.708-.708l1.5-1.5a.5.5 0 0 1 .708 0"
        clip-rule="evenodd"
    />
</svg>
