<svg xmlns="http://www.w3.org/2000/svg" width="24" height="24" fill="none">
    <path fill="#EC3E7C" d="M19.5 6a.5.5 0 1 0 0-1 .5.5 0 0 0 0 1M18 5.5a.5.5 0 1 1-1 0 .5.5 0 0 1 1 0" />
    <path
        fill="#EC3E7C"
        fill-rule="evenodd"
        d="M2 5a2 2 0 0 1 2-2h16a2 2 0 0 1 2 2v1a2 2 0 0 1-2 2H4a2 2 0 0 1-2-2zm2-1h16a1 1 0 0 1 1 1v1a1 1 0 0 1-1 1H4a1 1 0 0 1-1-1V5a1 1 0 0 1 1-1"
        clip-rule="evenodd"
    />
    <path fill="#EC3E7C" d="M19.5 12a.5.5 0 1 0 0-1 .5.5 0 0 0 0 1M17.5 12a.5.5 0 1 0 0-1 .5.5 0 0 0 0 1" />
    <path
        fill="#EC3E7C"
        fill-rule="evenodd"
        d="M2 11a2 2 0 0 1 2-2h16a2 2 0 0 1 2 2v1a2 2 0 0 1-2 2H4a2 2 0 0 1-2-2zm2-1h16a1 1 0 0 1 1 1v1a1 1 0 0 1-1 1H4a1 1 0 0 1-1-1v-1a1 1 0 0 1 1-1"
        clip-rule="evenodd"
    />
    <path fill="#EC3E7C" d="M20 17.5a.5.5 0 1 1-1 0 .5.5 0 0 1 1 0M18 17.5a.5.5 0 1 1-1 0 .5.5 0 0 1 1 0" />
    <path
        fill="#EC3E7C"
        fill-rule="evenodd"
        d="M4 15a2 2 0 0 0-2 2v1a2 2 0 0 0 2 2h16a2 2 0 0 0 2-2v-1a2 2 0 0 0-2-2zm16 1H4a1 1 0 0 0-1 1v1a1 1 0 0 0 1 1h16a1 1 0 0 0 1-1v-1a1 1 0 0 0-1-1"
        clip-rule="evenodd"
    />
    <path fill="#EC3E7C" d="M4.5 21a.5.5 0 0 0 0 1h15a.5.5 0 0 0 0-1z" />
</svg>
