<svg width="25" height="24" viewBox="0 0 25 24" fill="none" xmlns="http://www.w3.org/2000/svg">
    <g clip-path="url(#clip0_2268_22517)">
        <path
            d="M19.652 0H5.348C2.669 0 0.5 2.169 0.5 4.848V19.155C0.5 21.831 2.669 24 5.348 24H19.655C22.331 24 24.503 21.831 24.503 19.152V4.848C24.5 2.169 22.331 0 19.652 0Z"
            fill="url(#paint0_linear_2268_22517)"
        />
        <path
            d="M12.3982 5.5158L12.8842 4.6758C13.1842 4.1508 13.8532 3.9738 14.3782 4.2738C14.9032 4.5738 15.0802 5.2428 14.7802 5.7678L10.0972 13.8738H13.4842C14.5822 13.8738 15.1972 15.1638 14.7202 16.0578H4.79024C4.18424 16.0578 3.69824 15.5718 3.69824 14.9658C3.69824 14.3598 4.18424 13.8738 4.79024 13.8738H7.57424L11.1382 7.6968L10.0252 5.7648C9.72524 5.2398 9.90224 4.5768 10.4272 4.2708C10.9522 3.9708 11.6152 4.1478 11.9212 4.6728L12.3982 5.5158ZM8.18624 17.1828L7.13624 19.0038C6.83624 19.5288 6.16724 19.7058 5.64224 19.4058C5.11724 19.1058 4.94024 18.4368 5.24024 17.9118L6.02024 16.5618C6.90224 16.2888 7.61924 16.4988 8.18624 17.1828ZM17.2282 13.8798H20.0692C20.6752 13.8798 21.1612 14.3658 21.1612 14.9718C21.1612 15.5778 20.6752 16.0638 20.0692 16.0638H18.4912L19.5562 17.9118C19.8562 18.4368 19.6792 19.0998 19.1542 19.4058C18.6292 19.7058 17.9662 19.5288 17.6602 19.0038C15.8662 15.8928 14.5192 13.5648 13.6252 12.0138C12.7102 10.4358 13.3642 8.8518 14.0092 8.3148C14.7262 9.5448 15.7972 11.4018 17.2282 13.8798Z"
            fill="white"
        />
    </g>
    <defs>
        <linearGradient
            id="paint0_linear_2268_22517"
            x1="12.5015"
            y1="0"
            x2="12.5015"
            y2="24"
            gradientUnits="userSpaceOnUse"
        >
            <stop stop-color="#18BFFB" />
            <stop offset="1" stop-color="#2072F3" />
        </linearGradient>
        <clipPath id="clip0_2268_22517">
            <rect width="24" height="24" fill="white" transform="translate(0.5)" />
        </clipPath>
    </defs>
</svg>
