<svg width="24" height="24" viewBox="0 0 24 24" fill="none" xmlns="http://www.w3.org/2000/svg">
    <g clip-path="url(#clip0_2330_36832)">
        <path
            d="M22.5813 7.74713L21.8428 5.74154L22.3564 4.59021C22.3886 4.51758 22.3982 4.4369 22.3838 4.35873C22.3695 4.28056 22.3318 4.20856 22.2758 4.15217L20.8795 2.7407C20.5797 2.43654 20.1997 2.22378 19.7837 2.12721C19.3678 2.03065 18.9329 2.05424 18.5298 2.19525L18.1388 2.33119L16.0056 0.020139L12.3871 0H12.3636L8.72169 0.0285312L6.59022 2.35804L6.21092 2.22378C5.80522 2.0811 5.36723 2.05711 4.94837 2.15462C4.52951 2.25213 4.14715 2.46708 3.84617 2.77427L2.42463 4.21259C2.38001 4.25754 2.35005 4.31495 2.33867 4.37725C2.32728 4.43956 2.33502 4.50385 2.36085 4.56168L2.89624 5.75664L2.16113 7.76056L2.6361 9.56811L4.80281 17.8053C5.05242 18.7542 5.62668 19.5856 6.42575 20.155C6.42575 20.155 9.05568 22.0095 11.6504 23.6945C11.8556 23.8584 12.1103 23.9476 12.3729 23.9476C12.6354 23.9476 12.8902 23.8584 13.0954 23.6945C16.0106 21.7846 18.3167 20.1483 18.3167 20.1483C19.1151 19.5786 19.6887 18.7472 19.9379 17.7986L22.0929 9.55804L22.5813 7.74713Z"
            fill="url(#paint0_linear_2330_36832)"
        />
        <path
            d="M12.9682 14.8458C12.8301 14.784 12.6876 14.7324 12.5419 14.6914H12.2851C12.1394 14.7324 11.997 14.784 11.8588 14.8458L11.2127 15.1143C11.0079 15.1999 10.679 15.3527 10.4826 15.45L9.29435 16.0693C9.25132 16.0833 9.21345 16.1098 9.18562 16.1455C9.1578 16.1811 9.14129 16.2243 9.13822 16.2695C9.13515 16.3146 9.14566 16.3596 9.1684 16.3987C9.19114 16.4378 9.22507 16.4692 9.26582 16.4889L10.298 17.2173C10.4792 17.3448 10.7646 17.5697 10.9324 17.7208L11.2227 17.9708C11.3906 18.1152 11.6641 18.3552 11.8303 18.5029L12.1055 18.7462C12.1906 18.8171 12.2978 18.8559 12.4085 18.8559C12.5192 18.8559 12.6264 18.8171 12.7114 18.7462L13.0001 18.4945L13.6076 17.9641L13.8997 17.709C14.0675 17.563 14.3511 17.3381 14.5324 17.2055L15.5646 16.4671C15.6054 16.4475 15.6394 16.416 15.662 16.3768C15.6846 16.3375 15.6949 16.2924 15.6915 16.2472C15.688 16.2021 15.671 16.159 15.6427 16.1236C15.6143 16.0883 15.576 16.0623 15.5327 16.0492L14.3461 15.4467C14.1481 15.346 13.8191 15.1949 13.6127 15.111L12.9682 14.8458Z"
            fill="white"
        />
        <path
            d="M20.2856 8.19474L20.3192 8.08733C20.3212 7.94363 20.3122 7.8 20.2923 7.65767C20.1924 7.40345 20.064 7.16135 19.9097 6.936L19.2383 5.95082C19.1142 5.76621 18.9027 5.47418 18.76 5.30131L17.8604 4.17516C17.7784 4.0654 17.6893 3.96112 17.5936 3.86299H17.5751C17.5751 3.86299 17.3939 3.89488 17.1757 3.93683L15.8011 4.20201L15.1986 4.31781C14.9986 4.32721 14.7986 4.29816 14.6095 4.23222L13.5237 3.88145C13.3122 3.81264 12.9631 3.71362 12.7466 3.66662C12.5184 3.64238 12.2883 3.64238 12.0602 3.66662C11.8437 3.71697 11.4946 3.81432 11.2831 3.88313L10.1972 4.23558C10.0081 4.30151 9.80817 4.33057 9.60814 4.32117L9.00562 4.20704L7.6294 3.94355C7.41122 3.90159 7.23164 3.86802 7.22996 3.8697H7.2115C7.11584 3.96783 7.0267 4.07211 6.94464 4.18187L6.04674 5.30802C5.90912 5.47586 5.69262 5.7746 5.56842 5.95754L4.89709 6.94271C4.78115 7.1126 4.67523 7.28913 4.57989 7.47138C4.52238 7.67461 4.4919 7.88453 4.48926 8.09572L4.52282 8.20313C4.53898 8.27213 4.55973 8.33997 4.58492 8.40621C4.72422 8.57404 4.96254 8.85264 5.11527 9.01544L7.46492 11.5128C7.54293 11.6038 7.59512 11.7141 7.61607 11.8322C7.63703 11.9502 7.62598 12.0718 7.58408 12.1841L7.19975 13.0954C7.11236 13.3369 7.10588 13.6002 7.18129 13.8456L7.25849 14.0571C7.38463 14.4006 7.60086 14.7038 7.8845 14.9349L8.25373 15.2353C8.34965 15.3045 8.46157 15.3482 8.579 15.3623C8.69642 15.3764 8.8155 15.3604 8.92506 15.3159L10.2375 14.6898C10.4784 14.5692 10.7038 14.4199 10.9088 14.2451L11.9595 13.2968C12.0013 13.2591 12.0352 13.2133 12.059 13.1622C12.0828 13.1111 12.0961 13.0557 12.0982 12.9994C12.1002 12.943 12.0909 12.8868 12.0708 12.8341C12.0507 12.7815 12.0203 12.7333 11.9813 12.6926L9.60982 11.0949C9.52003 11.0312 9.45607 10.9373 9.42959 10.8305C9.4031 10.7236 9.41584 10.6108 9.46548 10.5125L10.3852 8.78383C10.4375 8.67801 10.4684 8.56291 10.4762 8.44512C10.484 8.32734 10.4685 8.20918 10.4305 8.0974C10.3163 7.88417 10.1319 7.71697 9.90856 7.62411L7.0252 6.53488C6.81709 6.456 6.82884 6.36705 7.0487 6.35362L8.74212 6.18579C9.00767 6.1689 9.27424 6.19267 9.53261 6.25628L11.0062 6.66746C11.1108 6.699 11.2004 6.7674 11.2585 6.85999C11.3165 6.95258 11.3389 7.06306 11.3217 7.17096L10.7427 10.3329C10.704 10.5081 10.6943 10.6884 10.7142 10.8666C10.7376 10.9422 10.9357 11.0345 11.1522 11.0882L12.0501 11.2795C12.3109 11.3274 12.5782 11.3274 12.8389 11.2795L13.6462 11.0966C13.8627 11.0479 14.059 10.9455 14.0842 10.87C14.1035 10.6916 14.0933 10.5113 14.054 10.3363L13.4716 7.17432C13.4544 7.06642 13.4769 6.95593 13.5349 6.86335C13.5929 6.77076 13.6825 6.70235 13.7872 6.67082L15.2607 6.25795C15.5191 6.19432 15.7857 6.17055 16.0512 6.18746L17.7446 6.34523C17.9662 6.36537 17.9762 6.44761 17.7698 6.52649L14.8881 7.61907C14.6648 7.71193 14.4804 7.87914 14.3662 8.09236C14.2897 8.31814 14.306 8.56502 14.4115 8.77879L15.3329 10.5075C15.3825 10.6057 15.3953 10.7186 15.3688 10.8254C15.3423 10.9323 15.2784 11.0261 15.1886 11.0898L12.8188 12.691C12.7798 12.7317 12.7493 12.7798 12.7292 12.8325C12.7092 12.8852 12.6999 12.9413 12.7019 12.9977C12.7039 13.054 12.7172 13.1094 12.7411 13.1605C12.7649 13.2116 12.7987 13.2574 12.8406 13.2952L13.8929 14.2434C14.098 14.4176 14.3234 14.5664 14.5642 14.6865L15.8767 15.3108C15.9864 15.3551 16.1055 15.3708 16.223 15.3564C16.3404 15.342 16.4522 15.298 16.548 15.2286L16.9172 14.9265C17.2012 14.695 17.4174 14.3911 17.5432 14.047L17.6204 13.8356C17.6959 13.5901 17.6894 13.3268 17.602 13.0854L17.216 12.174C17.1741 12.0617 17.163 11.9402 17.184 11.8221C17.2049 11.7041 17.2571 11.5938 17.3351 11.5027L19.6848 9.00201C19.8375 8.83418 20.0742 8.56565 20.2135 8.39278C20.2419 8.32843 20.266 8.26227 20.2856 8.19474Z"
            fill="white"
        />
    </g>
    <defs>
        <linearGradient
            id="paint0_linear_2330_36832"
            x1="2.16785"
            y1="11.9748"
            x2="22.5746"
            y2="11.9748"
            gradientUnits="userSpaceOnUse"
        >
            <stop stop-color="#F1562B" />
            <stop offset="0.3" stop-color="#F1542B" />
            <stop offset="0.41" stop-color="#F04D2A" />
            <stop offset="0.49" stop-color="#EF4229" />
            <stop offset="0.5" stop-color="#EF4029" />
            <stop offset="0.56" stop-color="#E83E28" />
            <stop offset="0.67" stop-color="#E13C26" />
            <stop offset="1" stop-color="#DF3C26" />
        </linearGradient>
        <clipPath id="clip0_2330_36832">
            <rect width="20.6434" height="24" fill="white" transform="translate(2)" />
        </clipPath>
    </defs>
</svg>
