<svg width="28" height="24" viewBox="0 0 28 24" fill="none" xmlns="http://www.w3.org/2000/svg">
    <g clip-path="url(#clip0_2330_36801)">
        <path
            d="M14.0003 18.0008C17.3141 18.0008 20.0005 15.3143 20.0005 12.0004C20.0005 8.68649 17.3141 6 14.0003 6C10.6864 6 8 8.68649 8 12.0004C8 15.3143 10.6864 18.0008 14.0003 18.0008Z"
            fill="white"
        />
        <path
            d="M8.80378 14.9991L3.60819 6C2.55471 7.82413 2 9.89342 2 12C2 14.1066 2.55446 16.1759 3.60781 18C4.66117 19.8241 6.17625 21.339 8.00063 22.3918C9.82501 23.4447 11.8946 23.9987 14.001 23.9981L19.1966 14.9991V14.9977C18.6704 15.9103 17.9131 16.6682 17.0009 17.1952C16.0888 17.7222 15.054 17.9997 14.0006 17.9999C12.9472 18 11.9123 17.7228 11.0001 17.1961C10.0878 16.6694 9.33031 15.9117 8.80378 14.9993V14.9991Z"
            fill="#229342"
        />
        <path
            d="M19.1966 15.0006L14.0012 23.9996C16.1076 24 18.177 23.4455 20.0013 22.3924C21.8255 21.3393 23.3404 19.8244 24.3935 18C25.4465 16.1756 26.0007 14.1062 26.0004 11.9997C26 9.89329 25.4451 7.824 24.3913 6H14.0003L13.999 6.00088C15.0524 6.00038 16.0874 6.27726 16.9998 6.80366C17.9123 7.33015 18.67 8.08743 19.1969 8.99969C19.7237 9.91191 20.0011 10.9468 20.0011 12.0002C20.001 13.0536 19.7236 14.0885 19.1968 15.0007L19.1966 15.0006Z"
            fill="#FBC116"
        />
        <path
            d="M14.0002 16.7506C16.6237 16.7506 18.7505 14.6239 18.7505 12.0002C18.7505 9.37662 16.6237 7.25 14.0002 7.25C11.3767 7.25 9.25 9.37674 9.25 12.0002C9.25 14.6237 11.3767 16.7506 14.0002 16.7506Z"
            fill="#1A73E8"
        />
        <path
            d="M14.0003 6.00038H24.3914C23.3384 4.176 21.8237 2.66091 19.9995 1.60756C18.1753 0.554277 16.1059 -0.000159884 13.9995 3.45845e-08C11.893 0.000126019 9.82371 0.554838 7.99971 1.60844C6.17564 2.66199 4.66111 4.17721 3.6084 6.00176L8.80399 15.0008L8.80537 15.0016C8.27823 14.0895 8.00053 13.0548 8.00019 12.0013C7.99986 10.9479 8.27691 9.91295 8.80348 9.00057C9.32997 8.08819 10.0876 7.33052 10.9999 6.8039C11.9121 6.27729 12.9471 6 14.0006 6.00025L14.0003 6.00038Z"
            fill="#E33B2E"
        />
    </g>
    <defs>
        <clipPath id="clip0_2330_36801">
            <rect width="24" height="24" fill="white" transform="translate(2)" />
        </clipPath>
    </defs>
</svg>
