<svg width="25" height="24" viewBox="0 0 25 24" fill="none" xmlns="http://www.w3.org/2000/svg">
    <path
        d="M23.0835 8.12148C22.5872 6.92733 21.5805 5.638 20.7922 5.23042C21.3543 6.31903 21.7445 7.48813 21.9489 8.69616L21.951 8.71531C20.6596 5.49713 18.4705 4.19747 16.6816 1.37124C16.5911 1.22831 16.5007 1.08508 16.4126 0.933901C16.3622 0.847552 16.3218 0.76975 16.2867 0.698136C16.2125 0.554483 16.1554 0.402665 16.1164 0.245763C16.1164 0.238522 16.1138 0.231516 16.109 0.226081C16.1042 0.220645 16.0976 0.217161 16.0904 0.216292C16.0834 0.214361 16.076 0.214361 16.0689 0.216292C16.0675 0.216292 16.0651 0.218944 16.0633 0.219534C16.0616 0.220123 16.0577 0.222776 16.0551 0.223954L16.0595 0.216292C13.1905 1.89612 12.2165 5.00526 12.1281 6.56131C10.982 6.63988 9.88617 7.06209 8.98361 7.77284C8.88948 7.69311 8.7911 7.61854 8.68891 7.54946C8.42868 6.6385 8.41759 5.67441 8.65679 4.75771C7.60317 5.26808 6.66698 5.99162 5.90747 6.88254H5.90217C5.4495 6.30875 5.48133 4.41673 5.50726 4.02153C5.37335 4.07535 5.24552 4.14322 5.12592 4.224C4.7263 4.50919 4.35273 4.82922 4.00957 5.18032C3.61852 5.57679 3.26136 6.00531 2.94185 6.4614V6.46317V6.46111C2.2076 7.5019 1.68676 8.6778 1.40938 9.92095L1.39406 9.9964C1.37254 10.0969 1.29503 10.6003 1.28177 10.7096C1.28177 10.7181 1.28 10.7261 1.27912 10.7346C1.17914 11.2543 1.11719 11.7806 1.09375 12.3092V12.3682C1.0988 15.2264 2.1752 17.9789 4.11046 20.0823C6.04573 22.1856 8.69922 23.487 11.5471 23.7296C14.395 23.9722 17.2304 23.1382 19.4935 21.3925C21.7566 19.6467 23.283 17.1159 23.7714 14.2997C23.7905 14.1523 23.8061 14.0065 23.8232 13.8576C24.0585 11.9131 23.8038 9.94067 23.0823 8.11971L23.0835 8.12148ZM9.91901 17.0629C9.97235 17.0885 10.0225 17.1162 10.0773 17.1407L10.0852 17.1457C10.0298 17.1191 9.97441 17.0915 9.91901 17.0629ZM21.9513 8.71856V8.70765L21.9533 8.71973L21.9513 8.71856Z"
        fill="url(#paint0_linear_2268_22541)"
    />
    <path
        d="M23.0831 8.12153C22.5868 6.92738 21.5801 5.63805 20.7918 5.23047C21.3539 6.31908 21.7441 7.48818 21.9485 8.69621V8.70711L21.9506 8.7192C22.8311 11.2387 22.7037 14.0009 21.5951 16.4287C20.2861 19.2375 17.1186 22.1165 12.1587 21.9751C6.80091 21.8233 2.07973 17.8462 1.19856 12.6388C1.03794 11.8174 1.19856 11.401 1.2793 10.7335C1.16916 11.252 1.10769 11.7797 1.0957 12.3096V12.3685C1.10075 15.2268 2.17715 17.9792 4.11242 20.0826C6.04768 22.186 8.70118 23.4874 11.5491 23.73C14.397 23.9725 17.2324 23.1386 19.4955 21.3928C21.7586 19.647 23.285 17.1162 23.7733 14.3C23.7925 14.1527 23.8081 14.0068 23.8252 13.858C24.0604 11.9135 23.8058 9.94102 23.0843 8.12006L23.0831 8.12153Z"
        fill="url(#paint1_radial_2268_22541)"
    />
    <path
        d="M23.0831 8.12153C22.5868 6.92738 21.5801 5.63805 20.7918 5.23047C21.3539 6.31908 21.7441 7.48818 21.9485 8.69621V8.70711L21.9506 8.7192C22.8311 11.2387 22.7037 14.0009 21.5951 16.4287C20.2861 19.2375 17.1186 22.1165 12.1587 21.9751C6.80091 21.8233 2.07973 17.8462 1.19856 12.6388C1.03794 11.8174 1.19856 11.401 1.2793 10.7335C1.16916 11.252 1.10769 11.7797 1.0957 12.3096V12.3685C1.10075 15.2268 2.17715 17.9792 4.11242 20.0826C6.04768 22.186 8.70118 23.4874 11.5491 23.73C14.397 23.9725 17.2324 23.1386 19.4955 21.3928C21.7586 19.647 23.285 17.1162 23.7733 14.3C23.7925 14.1527 23.8081 14.0068 23.8252 13.858C24.0604 11.9135 23.8058 9.94102 23.0843 8.12006L23.0831 8.12153Z"
        fill="url(#paint2_radial_2268_22541)"
    />
    <path
        d="M17.5315 9.46271C17.5562 9.4801 17.5792 9.49749 17.6025 9.51487C17.3156 9.00612 16.9584 8.54033 16.5416 8.13123C12.9903 4.58003 15.6112 0.433515 16.0529 0.221327L16.0574 0.214844C13.1884 1.89467 12.2144 5.00381 12.126 6.55986C12.2592 6.55072 12.3912 6.53953 12.5274 6.53953C13.5452 6.54149 14.5444 6.81295 15.4234 7.32629C16.3023 7.83962 17.0297 8.57654 17.5315 9.46212V9.46271Z"
        fill="url(#paint3_radial_2268_22541)"
    />
    <path
        d="M12.5326 10.1731C12.5137 10.4572 11.51 11.4371 11.159 11.4371C7.91131 11.4371 7.38379 13.4019 7.38379 13.4019C7.52761 15.0564 8.68049 16.4197 10.0742 17.1387C10.1378 17.1718 10.2024 17.2015 10.2669 17.2307C10.3787 17.2802 10.4905 17.326 10.6023 17.368C11.0806 17.5373 11.5815 17.6339 12.0885 17.6548C17.7822 17.9218 18.8844 10.8471 14.7759 8.79297C15.745 8.66687 16.7265 8.90517 17.5299 9.46166C17.0281 8.57608 16.3008 7.83916 15.4218 7.32582C14.5429 6.81248 13.5437 6.54103 12.5258 6.53906C12.3903 6.53906 12.2576 6.55026 12.1244 6.5594C10.9783 6.63797 9.88247 7.06018 8.97992 7.77093C9.15409 7.91829 9.35066 8.11515 9.76472 8.52332C10.5398 9.2869 12.5276 10.0779 12.532 10.1707L12.5326 10.1731Z"
        fill="url(#paint4_radial_2268_22541)"
    />
    <path
        d="M12.5326 10.1731C12.5137 10.4572 11.51 11.4371 11.159 11.4371C7.91131 11.4371 7.38379 13.4019 7.38379 13.4019C7.52761 15.0564 8.68049 16.4197 10.0742 17.1387C10.1378 17.1718 10.2024 17.2015 10.2669 17.2307C10.3787 17.2802 10.4905 17.326 10.6023 17.368C11.0806 17.5373 11.5815 17.6339 12.0885 17.6548C17.7822 17.9218 18.8844 10.8471 14.7759 8.79297C15.745 8.66687 16.7265 8.90517 17.5299 9.46166C17.0281 8.57608 16.3008 7.83916 15.4218 7.32582C14.5429 6.81248 13.5437 6.54103 12.5258 6.53906C12.3903 6.53906 12.2576 6.55026 12.1244 6.5594C10.9783 6.63797 9.88247 7.06018 8.97992 7.77093C9.15409 7.91829 9.35066 8.11515 9.76472 8.52332C10.5398 9.2869 12.5276 10.0779 12.532 10.1707L12.5326 10.1731Z"
        fill="url(#paint5_radial_2268_22541)"
    />
    <path
        d="M8.44801 7.39698C8.54055 7.45592 8.61688 7.5072 8.68378 7.55347C8.42355 6.64251 8.41246 5.67842 8.65165 4.76172C7.59804 5.27209 6.66185 5.99563 5.90234 6.88655C5.95804 6.88507 7.61488 6.85531 8.44801 7.39698Z"
        fill="url(#paint6_radial_2268_22541)"
    />
    <path
        d="M1.19712 12.6407C2.07859 17.8482 6.79948 21.8267 12.1572 21.977C17.1171 22.1173 20.2852 19.238 21.5937 16.4306C22.7023 14.0029 22.8297 11.2406 21.9491 8.72112V8.71022C21.9491 8.70167 21.9474 8.69666 21.9491 8.69932L21.9512 8.71847C22.3564 11.364 21.0108 13.9259 18.9069 15.6617L18.9004 15.6765C14.801 19.0155 10.8785 17.6905 10.0857 17.15C10.0303 17.1235 9.97493 17.0959 9.91953 17.0672C7.52976 15.9249 6.5422 13.7488 6.75439 11.8804C6.18711 11.8887 5.62958 11.7324 5.14935 11.4303C4.66911 11.1283 4.28679 10.6934 4.04869 10.1784C4.67606 9.79413 5.39139 9.57687 6.12653 9.54736C6.86166 9.51785 7.5921 9.67708 8.24825 10.0099C9.60074 10.6238 11.1397 10.6843 12.5362 10.1784C12.5318 10.0856 10.544 9.29433 9.76894 8.53104C9.35487 8.12287 9.1583 7.9263 8.98413 7.77865C8.89 7.69892 8.79162 7.62435 8.68943 7.55527C8.62165 7.509 8.54532 7.4589 8.45366 7.39878C7.62053 6.85711 5.96369 6.88687 5.90888 6.88835H5.90357C5.4509 6.31456 5.48273 4.42254 5.50867 4.02734C5.37475 4.08116 5.24692 4.14903 5.12732 4.22981C4.72771 4.51501 4.35413 4.83503 4.01097 5.18613C3.61852 5.58148 3.25989 6.00902 2.93883 6.46427C2.20458 7.50505 1.68374 8.68067 1.40636 9.92382C1.40076 9.9471 0.994953 11.7212 1.19506 12.6413L1.19712 12.6407Z"
        fill="url(#paint7_radial_2268_22541)"
    />
    <path
        d="M16.5407 8.13201C16.9577 8.54156 17.3149 9.00786 17.6017 9.51713C17.6645 9.56458 17.7231 9.61173 17.7729 9.65741C20.3625 12.0445 19.0057 15.4189 18.9046 15.6576C21.0082 13.9245 22.3526 11.3608 21.9489 8.71435C20.6569 5.49322 18.4655 4.19357 16.6795 1.36734C16.5891 1.22441 16.4986 1.08118 16.4105 0.929994C16.3601 0.843646 16.3197 0.765843 16.2846 0.69423C16.2105 0.550577 16.1533 0.398759 16.1143 0.241856C16.1144 0.234616 16.1117 0.22761 16.107 0.222174C16.1022 0.216739 16.0956 0.213254 16.0884 0.212386C16.0813 0.210455 16.0739 0.210455 16.0669 0.212386C16.0654 0.212386 16.063 0.215038 16.0613 0.215628C16.0595 0.216217 16.0557 0.218869 16.053 0.220048C15.6112 0.429584 12.991 4.57875 16.5422 8.127L16.5407 8.13201Z"
        fill="url(#paint8_radial_2268_22541)"
    />
    <path
        d="M17.7732 9.65973C17.7234 9.61405 17.6648 9.5669 17.602 9.51945C17.5787 9.50206 17.5557 9.48467 17.531 9.46728C16.7275 8.91079 15.7461 8.67249 14.7769 8.7986C18.8851 10.8527 17.7829 17.9256 12.0895 17.6604C11.5826 17.6396 11.0816 17.5429 10.6033 17.3737C10.4915 17.3318 10.3797 17.286 10.2679 17.2363C10.2034 17.2068 10.1389 17.1774 10.0752 17.1444L10.0832 17.1494C10.8771 17.6913 14.7984 19.0155 18.8978 15.6759L18.9043 15.6611C19.0065 15.4224 20.3634 12.048 17.7726 9.66091L17.7732 9.65973Z"
        fill="url(#paint9_radial_2268_22541)"
    />
    <path
        d="M7.38462 13.4024C7.38462 13.4024 7.91185 11.4376 11.1598 11.4376C11.5108 11.4376 12.5154 10.4577 12.5334 10.1736C11.1369 10.6794 9.59794 10.6189 8.24546 10.005C7.5893 9.67225 6.85886 9.51302 6.12373 9.54253C5.3886 9.57204 4.67327 9.7893 4.0459 10.1736C4.28399 10.6886 4.66632 11.1234 5.14655 11.4255C5.62678 11.7276 6.18431 11.8839 6.75159 11.8755C6.53999 13.7431 7.52726 15.9189 9.91673 17.0624C9.97007 17.088 10.0202 17.1157 10.075 17.1402C8.68015 16.4196 7.52844 15.0569 7.38462 13.4033V13.4024Z"
        fill="url(#paint10_radial_2268_22541)"
    />
    <path
        d="M23.0839 8.12148C22.5876 6.92733 21.5809 5.638 20.7926 5.23042C21.3547 6.31903 21.7449 7.48813 21.9493 8.69616L21.9514 8.71531C20.66 5.49713 18.4709 4.19747 16.682 1.37124C16.5915 1.22831 16.5011 1.08508 16.4129 0.933901C16.3626 0.847552 16.3222 0.76975 16.2871 0.698136C16.2129 0.554483 16.1558 0.402665 16.1168 0.245763C16.1168 0.238522 16.1142 0.231516 16.1094 0.226081C16.1046 0.220645 16.098 0.217161 16.0908 0.216292C16.0838 0.214361 16.0764 0.214361 16.0693 0.216292C16.0678 0.216292 16.0655 0.218944 16.0637 0.219534C16.062 0.220123 16.0581 0.222776 16.0555 0.223954L16.0599 0.216292C13.1909 1.89612 12.2169 5.00526 12.1285 6.56131C12.2617 6.55217 12.3937 6.54097 12.5299 6.54097C13.5478 6.54294 14.547 6.81439 15.4259 7.32773C16.3049 7.84107 17.0322 8.57799 17.534 9.46357C16.7306 8.90708 15.7491 8.66878 14.78 8.79488C18.8882 10.849 17.786 17.9219 12.0926 17.6567C11.5856 17.6358 11.0847 17.5392 10.6064 17.3699C10.4946 17.3281 10.3828 17.2823 10.271 17.2326C10.2064 17.2031 10.1419 17.1737 10.0782 17.1407L10.0862 17.1457C10.0308 17.1191 9.97539 17.0915 9.91999 17.0629C9.97333 17.0885 10.0234 17.1162 10.0782 17.1407C8.6834 16.4198 7.53169 15.0571 7.38787 13.4038C7.38787 13.4038 7.9151 11.439 11.1631 11.439C11.514 11.439 12.5187 10.4591 12.5367 10.175C12.5323 10.0822 10.5445 9.29087 9.76939 8.52759C9.35533 8.11942 9.15876 7.92285 8.98459 7.7752C8.89046 7.69547 8.79208 7.6209 8.68988 7.55181C8.42966 6.64086 8.41856 5.67677 8.65776 4.76007C7.60415 5.27044 6.66796 5.99398 5.90845 6.8849H5.90315C5.45048 6.3111 5.48231 4.41909 5.50824 4.02389C5.37433 4.07771 5.24649 4.14558 5.12689 4.22635C4.72728 4.51155 4.3537 4.83158 4.01055 5.18267C3.6195 5.57914 3.26234 6.00767 2.94283 6.46376C2.20858 7.50455 1.68773 8.68016 1.41036 9.92331L1.39503 9.99876C1.37352 10.0993 1.27715 10.6097 1.2633 10.7193C1.17515 11.2462 1.11886 11.7779 1.09473 12.3116V12.3705C1.09977 15.2288 2.17618 17.9812 4.11144 20.0846C6.04671 22.188 8.7002 23.4894 11.5481 23.732C14.396 23.9745 17.2314 23.1406 19.4945 21.3948C21.7576 19.649 23.284 17.1182 23.7723 14.302C23.7915 14.1547 23.8071 14.0088 23.8242 13.86C24.0595 11.9155 23.8048 9.94303 23.0833 8.12207L23.0839 8.12148Z"
        fill="url(#paint11_linear_2268_22541)"
    />
    <defs>
        <linearGradient
            id="paint0_linear_2268_22541"
            x1="21.5717"
            y1="3.86473"
            x2="2.60942"
            y2="22.1601"
            gradientUnits="userSpaceOnUse"
        >
            <stop offset="0.048" stop-color="#FFF44F" />
            <stop offset="0.111" stop-color="#FFE847" />
            <stop offset="0.225" stop-color="#FFC830" />
            <stop offset="0.368" stop-color="#FF980E" />
            <stop offset="0.401" stop-color="#FF8B16" />
            <stop offset="0.462" stop-color="#FF672A" />
            <stop offset="0.534" stop-color="#FF3647" />
            <stop offset="0.705" stop-color="#E31587" />
        </linearGradient>
        <radialGradient
            id="paint1_radial_2268_22541"
            cx="0"
            cy="0"
            r="1"
            gradientUnits="userSpaceOnUse"
            gradientTransform="translate(20.8375 2.86693) scale(23.8122)"
        >
            <stop offset="0.129" stop-color="#FFBD4F" />
            <stop offset="0.186" stop-color="#FFAC31" />
            <stop offset="0.247" stop-color="#FF9D17" />
            <stop offset="0.283" stop-color="#FF980E" />
            <stop offset="0.403" stop-color="#FF563B" />
            <stop offset="0.467" stop-color="#FF3750" />
            <stop offset="0.71" stop-color="#F5156C" />
            <stop offset="0.782" stop-color="#EB0878" />
            <stop offset="0.86" stop-color="#E50080" />
        </radialGradient>
        <radialGradient
            id="paint2_radial_2268_22541"
            cx="0"
            cy="0"
            r="1"
            gradientUnits="userSpaceOnUse"
            gradientTransform="translate(11.9963 12.5922) scale(23.8122)"
        >
            <stop offset="0.3" stop-color="#960E18" />
            <stop offset="0.351" stop-color="#B11927" stop-opacity="0.74" />
            <stop offset="0.435" stop-color="#DB293D" stop-opacity="0.343" />
            <stop offset="0.497" stop-color="#F5334B" stop-opacity="0.094" />
            <stop offset="0.53" stop-color="#FF3750" stop-opacity="0" />
        </radialGradient>
        <radialGradient
            id="paint3_radial_2268_22541"
            cx="0"
            cy="0"
            r="1"
            gradientUnits="userSpaceOnUse"
            gradientTransform="translate(14.944 -2.43751) scale(17.2491)"
        >
            <stop offset="0.132" stop-color="#FFF44F" />
            <stop offset="0.252" stop-color="#FFDC3E" />
            <stop offset="0.506" stop-color="#FF9D12" />
            <stop offset="0.526" stop-color="#FF980E" />
        </radialGradient>
        <radialGradient
            id="paint4_radial_2268_22541"
            cx="0"
            cy="0"
            r="1"
            gradientUnits="userSpaceOnUse"
            gradientTransform="translate(9.34388 18.7814) scale(11.3373 11.3373)"
        >
            <stop offset="0.353" stop-color="#3A8EE6" />
            <stop offset="0.472" stop-color="#5C79F0" />
            <stop offset="0.669" stop-color="#9059FF" />
            <stop offset="1" stop-color="#C139E6" />
        </radialGradient>
        <radialGradient
            id="paint5_radial_2268_22541"
            cx="0"
            cy="0"
            r="1"
            gradientUnits="userSpaceOnUse"
            gradientTransform="translate(13.1479 10.5485) rotate(-13.5916) scale(6.01203 7.03858)"
        >
            <stop offset="0.206" stop-color="#9059FF" stop-opacity="0" />
            <stop offset="0.278" stop-color="#8C4FF3" stop-opacity="0.064" />
            <stop offset="0.747" stop-color="#7716A8" stop-opacity="0.45" />
            <stop offset="0.975" stop-color="#6E008B" stop-opacity="0.6" />
        </radialGradient>
        <radialGradient
            id="paint6_radial_2268_22541"
            cx="0"
            cy="0"
            r="1"
            gradientUnits="userSpaceOnUse"
            gradientTransform="translate(11.7016 1.98618) scale(8.15746 8.15746)"
        >
            <stop stop-color="#FFE226" />
            <stop offset="0.121" stop-color="#FFDB27" />
            <stop offset="0.295" stop-color="#FFC82A" />
            <stop offset="0.502" stop-color="#FFA930" />
            <stop offset="0.732" stop-color="#FF7E37" />
            <stop offset="0.792" stop-color="#FF7139" />
        </radialGradient>
        <radialGradient
            id="paint7_radial_2268_22541"
            cx="0"
            cy="0"
            r="1"
            gradientUnits="userSpaceOnUse"
            gradientTransform="translate(18.1857 -3.32056) scale(34.8048 34.8048)"
        >
            <stop offset="0.113" stop-color="#FFF44F" />
            <stop offset="0.456" stop-color="#FF980E" />
            <stop offset="0.622" stop-color="#FF5634" />
            <stop offset="0.716" stop-color="#FF3647" />
            <stop offset="0.904" stop-color="#E31587" />
        </radialGradient>
        <radialGradient
            id="paint8_radial_2268_22541"
            cx="0"
            cy="0"
            r="1"
            gradientUnits="userSpaceOnUse"
            gradientTransform="translate(15.2924 -1.39052) rotate(83.976) scale(25.5054 16.739)"
        >
            <stop stop-color="#FFF44F" />
            <stop offset="0.06" stop-color="#FFE847" />
            <stop offset="0.168" stop-color="#FFC830" />
            <stop offset="0.304" stop-color="#FF980E" />
            <stop offset="0.356" stop-color="#FF8B16" />
            <stop offset="0.455" stop-color="#FF672A" />
            <stop offset="0.57" stop-color="#FF3647" />
            <stop offset="0.737" stop-color="#E31587" />
        </radialGradient>
        <radialGradient
            id="paint9_radial_2268_22541"
            cx="0"
            cy="0"
            r="1"
            gradientUnits="userSpaceOnUse"
            gradientTransform="translate(11.7023 4.93265) scale(21.7257 21.7257)"
        >
            <stop offset="0.137" stop-color="#FFF44F" />
            <stop offset="0.48" stop-color="#FF980E" />
            <stop offset="0.592" stop-color="#FF5634" />
            <stop offset="0.655" stop-color="#FF3647" />
            <stop offset="0.904" stop-color="#E31587" />
        </radialGradient>
        <radialGradient
            id="paint10_radial_2268_22541"
            cx="0"
            cy="0"
            r="1"
            gradientUnits="userSpaceOnUse"
            gradientTransform="translate(17.3015 6.11139) scale(23.7798)"
        >
            <stop offset="0.094" stop-color="#FFF44F" />
            <stop offset="0.231" stop-color="#FFE141" />
            <stop offset="0.509" stop-color="#FFAF1E" />
            <stop offset="0.626" stop-color="#FF980E" />
        </radialGradient>
        <linearGradient
            id="paint11_linear_2268_22541"
            x1="21.3422"
            y1="3.76747"
            x2="5.21"
            y2="19.9026"
            gradientUnits="userSpaceOnUse"
        >
            <stop offset="0.167" stop-color="#FFF44F" stop-opacity="0.8" />
            <stop offset="0.266" stop-color="#FFF44F" stop-opacity="0.634" />
            <stop offset="0.489" stop-color="#FFF44F" stop-opacity="0.217" />
            <stop offset="0.6" stop-color="#FFF44F" stop-opacity="0" />
        </linearGradient>
    </defs>
</svg>
