<svg width="25" height="24" viewBox="0 0 25 24" fill="none" xmlns="http://www.w3.org/2000/svg">
    <g clip-path="url(#clip0_2268_22507)">
        <path
            d="M11.6575 11.4648L1.58984 22.0126C1.70289 22.4133 1.90605 22.7828 2.18379 23.0929C2.46154 23.403 2.80651 23.6455 3.19234 23.8019C3.57818 23.9583 3.99465 24.0243 4.40993 23.9951C4.82521 23.9658 5.22831 23.842 5.58839 23.633L16.9164 17.1813L11.6575 11.4648Z"
            fill="#EA4335"
        />
        <path
            d="M21.8385 9.66902L16.9397 6.86328L11.4258 11.7021L16.9622 17.1635L21.8235 14.3878C22.2542 14.1623 22.6149 13.8232 22.8666 13.4073C23.1183 12.9914 23.2514 12.5145 23.2514 12.0284C23.2514 11.5423 23.1183 11.0654 22.8666 10.6495C22.6149 10.2336 22.2542 9.89451 21.8235 9.66902H21.8385Z"
            fill="#FBBC04"
        />
        <path
            d="M1.59005 1.99609C1.5292 2.22107 1.49892 2.45322 1.50003 2.68627V21.3212C1.50064 21.5541 1.53089 21.786 1.59005 22.0114L12.0028 11.7337L1.59005 1.99609Z"
            fill="#4285F4"
        />
        <path
            d="M11.7325 12.0032L16.9389 6.86431L5.6259 0.382606C5.20031 0.133346 4.71625 0.00133073 4.22304 5.36551e-06C3.62736 -0.00117508 3.04765 0.192452 2.57225 0.55137C2.09685 0.910289 1.75185 1.41481 1.58984 1.98803L11.7325 12.0032Z"
            fill="#34A853"
        />
    </g>
    <defs>
        <clipPath id="clip0_2268_22507">
            <rect width="24" height="24" fill="white" transform="translate(0.5)" />
        </clipPath>
    </defs>
</svg>
