<svg width="24" height="24" viewBox="0 0 24 24" fill="none" xmlns="http://www.w3.org/2000/svg">
    <g clip-path="url(#clip0_2330_36841)">
        <path
            d="M23.5257 12.1007C23.5257 13.6011 23.2301 15.0867 22.656 16.4729C22.0818 17.859 21.2403 19.1185 20.1794 20.1794C19.1185 21.2403 17.859 22.0818 16.4729 22.656C15.0867 23.2302 13.6011 23.5257 12.1007 23.5257C9.07063 23.5257 6.16466 22.322 4.02207 20.1794C1.87947 18.0368 0.675781 15.1308 0.675781 12.1007C0.675781 9.07064 1.87947 6.16466 4.02207 4.02207C6.16466 1.87948 9.07063 0.675782 12.1007 0.675781C13.6011 0.675781 15.0867 0.971297 16.4729 1.54545C17.859 2.11961 19.1185 2.96117 20.1794 4.02207C21.2403 5.08298 22.0818 6.34245 22.656 7.72859C23.2301 9.11472 23.5257 10.6004 23.5257 12.1007Z"
            fill="url(#paint0_linear_2330_36841)"
        />
        <path
            fill-rule="evenodd"
            clip-rule="evenodd"
            d="M12.1007 0.851543C9.11724 0.851543 6.25597 2.03672 4.14635 4.14635C2.03672 6.25598 0.851543 9.11725 0.851543 12.1007C0.851543 15.0842 2.03672 17.9455 4.14635 20.0551C6.25597 22.1647 9.11724 23.3499 12.1007 23.3499C13.578 23.3499 15.0408 23.0589 16.4056 22.4936C17.7704 21.9283 19.0105 21.0997 20.0551 20.0551C21.0997 19.0105 21.9283 17.7704 22.4936 16.4056C23.0589 15.0408 23.3499 13.578 23.3499 12.1007C23.3499 10.6235 23.0589 9.16065 22.4936 7.79584C21.9283 6.43103 21.0997 5.19093 20.0551 4.14635C19.0105 3.10177 17.7704 2.27316 16.4056 1.70784C15.0408 1.14251 13.578 0.851543 12.1007 0.851543ZM3.89777 3.89777C6.07332 1.72222 9.024 0.500001 12.1007 0.5C13.6241 0.5 15.1326 0.800062 16.5401 1.38305C17.9476 1.96604 19.2264 2.82055 20.3037 3.89777C21.3809 4.975 22.2354 6.25385 22.8184 7.66131C23.4014 9.06878 23.7014 10.5773 23.7014 12.1007C23.7014 13.6241 23.4014 15.1327 22.8184 16.5401C22.2354 17.9476 21.3809 19.2264 20.3037 20.3037C19.2264 21.3809 17.9476 22.2354 16.5401 22.8184C15.1326 23.4014 13.6241 23.7014 12.1007 23.7014C9.024 23.7014 6.07332 22.4792 3.89777 20.3037C1.72221 18.1281 0.5 15.1774 0.5 12.1007C0.5 9.02402 1.72221 6.07333 3.89777 3.89777Z"
            fill="#CDCDCD"
        />
        <path
            d="M22.6307 12.1C22.6307 14.8927 21.5213 17.5709 19.5466 19.5456C17.5719 21.5203 14.8936 22.6297 12.101 22.6297C9.30833 22.6297 6.63006 21.5203 4.65536 19.5456C2.68066 17.5709 1.57129 14.8927 1.57129 12.1C1.57129 9.30736 2.68066 6.62909 4.65536 4.65439C6.63006 2.67969 9.30833 1.57031 12.101 1.57031C14.8936 1.57031 17.5719 2.67969 19.5466 4.65439C21.5213 6.62909 22.6307 9.30736 22.6307 12.1Z"
            fill="url(#paint1_radial_2330_36841)"
        />
        <path
            d="M12.1008 2.12109C12.0158 2.12109 11.9473 2.18956 11.9473 2.27461V4.04539C11.9473 4.13045 12.0158 4.19891 12.1008 4.19891C12.1859 4.19891 12.2543 4.13045 12.2543 4.04539V2.27461C12.2543 2.18956 12.1859 2.12109 12.1008 2.12109ZM11.0965 2.18457C11.0863 2.18348 11.0758 2.18348 11.0653 2.1847C10.9807 2.19352 10.9197 2.26873 10.9285 2.35332L11.0059 3.09414C11.0147 3.17873 11.0899 3.23973 11.1745 3.23089C11.2591 3.22207 11.3201 3.14686 11.3113 3.06227L11.234 2.32146C11.2262 2.24744 11.1677 2.19148 11.0965 2.18457ZM13.1122 2.1853C13.041 2.19216 12.9824 2.24811 12.9746 2.32212L12.8967 3.06287C12.8878 3.14746 12.9488 3.22273 13.0334 3.23163C13.118 3.24053 13.1932 3.17959 13.2021 3.095L13.28 2.35419C13.2889 2.2696 13.2279 2.19439 13.1433 2.1855C13.1327 2.1844 13.1223 2.18439 13.1122 2.1853ZM10.0648 2.33418C10.0546 2.33426 10.0442 2.33527 10.0338 2.33746C9.9506 2.35508 9.89779 2.43626 9.9154 2.51947L10.2821 4.25182C10.2998 4.33503 10.3809 4.38784 10.4641 4.37022C10.5473 4.35261 10.6002 4.27149 10.5825 4.18828L10.2158 2.45586C10.2004 2.38305 10.1363 2.33362 10.0648 2.33418ZM14.1438 2.33564C14.0723 2.33491 14.0082 2.38449 13.9927 2.45728L13.6247 4.18943C13.607 4.27263 13.6598 4.35383 13.743 4.37151C13.8262 4.3892 13.9074 4.33642 13.9251 4.25324L14.2931 2.52108C14.3107 2.43789 14.258 2.35668 14.1748 2.33901C14.1644 2.33682 14.154 2.33564 14.1438 2.33564ZM9.08023 2.61179C9.06035 2.60997 9.03982 2.61216 9.0196 2.61887C8.93871 2.64516 8.89473 2.73138 8.92101 2.81227L9.15119 3.52069C9.17748 3.60158 9.26377 3.64556 9.34466 3.61928C9.42555 3.59299 9.46947 3.5067 9.44318 3.42581L9.21301 2.71739C9.19331 2.65673 9.13985 2.61686 9.08023 2.61179ZM15.1228 2.61216C15.0632 2.61723 15.0097 2.65711 14.99 2.71777L14.7597 3.42612C14.7334 3.50701 14.7774 3.5933 14.8582 3.61959C14.9391 3.64589 15.0254 3.60194 15.0517 3.52107L15.282 2.81265C15.3083 2.73176 15.2644 2.64547 15.1835 2.61918C15.1633 2.61262 15.1427 2.61048 15.1228 2.61216ZM8.10658 2.96809C8.08663 2.96845 8.06645 2.97283 8.04702 2.98147C7.96934 3.01601 7.93455 3.10637 7.9691 3.18409L8.68832 4.80221C8.72286 4.87993 8.81321 4.91468 8.89093 4.88013C8.96861 4.84559 9.00346 4.75524 8.96892 4.67752L8.24963 3.05939C8.22373 3.0011 8.16641 2.96693 8.10658 2.96809ZM16.1074 2.97352C16.0476 2.97243 15.9902 3.00638 15.9643 3.06463L15.2428 4.68176C15.2082 4.75943 15.2428 4.84985 15.3205 4.88451C15.3982 4.91915 15.4886 4.88452 15.5232 4.80685L16.2446 3.18972C16.2793 3.11205 16.2447 3.02163 16.167 2.98697C16.1476 2.97833 16.1274 2.97396 16.1074 2.97352ZM7.20284 3.44627C7.17337 3.44408 7.143 3.45064 7.11538 3.46662C7.04172 3.50914 7.01667 3.60267 7.05919 3.67632L7.43163 4.3214C7.47415 4.39506 7.56767 4.42011 7.64132 4.37758C7.71498 4.33506 7.74004 4.24154 7.69751 4.16788L7.32508 3.52281C7.29849 3.47677 7.25196 3.4497 7.20284 3.44627ZM16.9988 3.44627C16.9497 3.44955 16.9032 3.47676 16.8766 3.5228L16.5041 4.16787C16.4616 4.24153 16.4867 4.33505 16.5604 4.37757C16.634 4.4201 16.7275 4.39504 16.7701 4.32139L17.1425 3.67631C17.185 3.60265 17.16 3.50913 17.0863 3.46661C17.0587 3.45067 17.0283 3.44422 16.9988 3.44627ZM6.32527 3.99361C6.29573 3.99471 6.26614 4.00419 6.24032 4.0229C6.17148 4.07284 6.15626 4.16846 6.20622 4.23731L7.24599 5.67064C7.29593 5.73949 7.39162 5.75471 7.46046 5.70478C7.52931 5.65484 7.54453 5.55922 7.49457 5.49037L6.45473 4.05704C6.42351 4.01401 6.37448 3.99193 6.32527 3.99361ZM17.8874 4.00142C17.8381 3.99959 17.7891 4.02166 17.7578 4.06463L16.7161 5.49657C16.666 5.56535 16.6811 5.66101 16.7499 5.71105C16.8187 5.76108 16.9144 5.74602 16.9644 5.67727L18.0061 4.24533C18.0561 4.17655 18.041 4.08089 17.9722 4.03085C17.9465 4.01211 17.9169 4.00248 17.8874 4.00142ZM5.54085 4.65146C5.50166 4.64928 5.46167 4.66237 5.43007 4.69082C5.36685 4.74772 5.36177 4.8444 5.41869 4.90761L5.91707 5.46126C5.97397 5.52447 6.07065 5.52955 6.13387 5.47264C6.19708 5.41573 6.20216 5.31899 6.14525 5.25578L5.64693 4.7022C5.61848 4.67058 5.58004 4.65352 5.54085 4.65146ZM18.6619 4.65256C18.6227 4.65475 18.5843 4.67171 18.5558 4.70331L18.0574 5.25682C18.0005 5.32003 18.0056 5.41677 18.0688 5.47368C18.132 5.53059 18.2287 5.52549 18.2856 5.4623L18.784 4.90879C18.8409 4.84558 18.8358 4.74884 18.7726 4.69193C18.741 4.66348 18.7011 4.6505 18.6619 4.65256ZM4.78904 5.37363C4.74985 5.37582 4.71147 5.39278 4.68302 5.42438C4.62612 5.4876 4.63121 5.58427 4.6944 5.64118L6.01046 6.82591C6.07368 6.88282 6.17035 6.87773 6.22725 6.81453C6.28416 6.75132 6.27914 6.65464 6.21591 6.59774L4.89979 5.413C4.86817 5.38456 4.82823 5.37157 4.78904 5.37363ZM19.4174 5.37881C19.3782 5.37662 19.3381 5.38968 19.3065 5.4181L17.9897 6.60191C17.9264 6.65877 17.9212 6.75545 17.9781 6.8187C18.0349 6.88195 18.1317 6.88709 18.1949 6.83023L19.5118 5.64642C19.5751 5.58956 19.5802 5.49288 19.5234 5.42962C19.4949 5.398 19.4565 5.38089 19.4174 5.37881ZM4.16384 6.17754C4.11462 6.17571 4.06555 6.19789 4.0343 6.24088C3.98431 6.30969 3.99947 6.4053 4.0683 6.45529L4.6709 6.89311C4.73971 6.94311 4.83531 6.92802 4.88531 6.85919C4.9353 6.79039 4.92017 6.69471 4.85139 6.64472L4.24878 6.20689C4.223 6.18815 4.19336 6.1786 4.16384 6.17754ZM20.042 6.18312C20.0124 6.18421 19.9828 6.19366 19.957 6.21241L19.3542 6.64984C19.2853 6.69978 19.2701 6.79547 19.32 6.86431C19.37 6.93315 19.4656 6.94831 19.5344 6.89838L20.1374 6.46095C20.2062 6.411 20.2214 6.31538 20.1714 6.24654C20.1402 6.20351 20.0912 6.18143 20.042 6.18312ZM3.57958 7.03505C3.53046 7.03833 3.48398 7.06554 3.4574 7.11158C3.41488 7.18523 3.43993 7.27875 3.51359 7.32128L5.0471 8.20667C5.12076 8.2492 5.21428 8.22414 5.25681 8.15048C5.29933 8.07683 5.27428 7.98331 5.20062 7.94078L3.66711 7.05539C3.6395 7.03945 3.60905 7.03301 3.57958 7.03505ZM20.622 7.03505C20.5926 7.03286 20.5621 7.03943 20.5345 7.0554L19.001 7.94079C18.9273 7.98332 18.9023 8.07684 18.9448 8.1505C18.9873 8.22415 19.0809 8.24921 19.1545 8.20668L20.6881 7.32129C20.7618 7.27877 20.7868 7.18525 20.7443 7.11159C20.7177 7.06556 20.6712 7.03848 20.622 7.03505ZM3.13785 7.94906C3.07802 7.9476 3.02065 7.98185 2.99466 8.0401C2.96002 8.11778 2.99464 8.2082 3.07232 8.24285L3.75264 8.5463C3.83032 8.58095 3.92075 8.54633 3.95539 8.46865C3.99004 8.39097 3.95535 8.30055 3.87767 8.2659L3.19741 7.96245C3.17801 7.95377 3.15779 7.94946 3.13785 7.94906ZM21.0668 7.95537C21.0468 7.95574 21.0266 7.96011 21.0071 7.96876L20.3267 8.27168C20.249 8.3063 20.2142 8.39666 20.2488 8.47436C20.2834 8.55206 20.3739 8.58681 20.4516 8.55222L21.132 8.24922C21.2097 8.21464 21.2444 8.12424 21.2098 8.04654C21.1839 7.98827 21.1266 7.95418 21.0668 7.95537ZM2.74415 8.90437C2.68452 8.90937 2.63106 8.9492 2.6113 9.00985C2.58497 9.09072 2.62881 9.17704 2.70969 9.20339L4.39335 9.75199C4.47421 9.77833 4.56053 9.73445 4.58688 9.6536C4.61322 9.57274 4.56938 9.48641 4.48849 9.46007L2.80484 8.91146C2.78464 8.90486 2.76402 8.90269 2.74415 8.90437ZM21.4597 8.91094C21.4399 8.90911 21.4193 8.9113 21.3991 8.91801L19.7151 9.46543C19.6342 9.49172 19.5902 9.57801 19.6165 9.6589C19.6428 9.73978 19.7291 9.78372 19.81 9.75742L21.494 9.21001C21.5749 9.18371 21.6189 9.09742 21.5926 9.01654C21.5728 8.95587 21.5194 8.916 21.4597 8.91094ZM2.49887 9.90718C2.42735 9.90645 2.36321 9.95609 2.34773 10.0289C2.33005 10.1121 2.38282 10.1933 2.466 10.211L3.19463 10.3658C3.27782 10.3835 3.35902 10.3307 3.3767 10.2475C3.39439 10.1643 3.34162 10.0831 3.25843 10.0655L2.52987 9.91062C2.51948 9.90843 2.50908 9.90718 2.49887 9.90718ZM21.7031 9.90864C21.6929 9.90872 21.6826 9.9101 21.6722 9.91192L20.9435 10.0667C20.8603 10.0844 20.8076 10.1655 20.8253 10.2487C20.843 10.3319 20.9241 10.3847 21.0073 10.367L21.7359 10.2123C21.8191 10.1946 21.8719 10.1134 21.8542 10.0302C21.8388 9.95739 21.7746 9.90803 21.7031 9.90864ZM2.31321 10.9159C2.24202 10.9227 2.18342 10.9786 2.1756 11.0526C2.16666 11.1371 2.22751 11.2124 2.31209 11.2214L4.07306 11.4076C4.15764 11.4165 4.23295 11.3556 4.24188 11.271C4.25082 11.1864 4.18991 11.1111 4.10533 11.1022L2.34436 10.916C2.33378 10.9149 2.32339 10.9149 2.31321 10.9159ZM21.8901 10.9291C21.8799 10.928 21.8694 10.928 21.8588 10.9292L20.0977 11.113C20.0131 11.1219 19.9521 11.1971 19.9609 11.2817C19.9697 11.3663 20.0449 11.4273 20.1295 11.4184L21.8907 11.2346C21.9753 11.2258 22.0363 11.1506 22.0275 11.066C22.0197 10.992 21.9613 10.936 21.8901 10.9291ZM2.2834 11.9484C2.19834 11.9484 2.12988 12.0169 2.12988 12.1019C2.12988 12.187 2.19834 12.2554 2.2834 12.2554H3.02826C3.11331 12.2554 3.18184 12.187 3.18184 12.1019C3.18184 12.0169 3.11331 11.9484 3.02826 11.9484H2.2834ZM21.1734 11.9484C21.0883 11.9484 21.0198 12.0169 21.0198 12.1019C21.0198 12.187 21.0883 12.2554 21.1734 12.2554H21.9182C22.0033 12.2554 22.0717 12.187 22.0717 12.1019C22.0717 12.0169 22.0033 11.9484 21.9182 11.9484H21.1734ZM4.10328 12.7853C4.0931 12.7842 4.08271 12.7842 4.07213 12.7854L2.31089 12.9692C2.22629 12.9781 2.16532 13.0533 2.17413 13.1378C2.18296 13.2224 2.25817 13.2834 2.34276 13.2746L4.104 13.0908C4.18859 13.082 4.24957 13.0068 4.24075 12.9222C4.23302 12.8482 4.17446 12.7922 4.10328 12.7853ZM20.0974 12.7962C20.0262 12.803 19.9676 12.8589 19.9598 12.9329C19.9509 13.0174 20.0117 13.0927 20.0963 13.1017L21.8573 13.2879C21.9419 13.2968 22.0172 13.2359 22.0261 13.1513C22.035 13.0667 21.9741 12.9914 21.8895 12.9825L20.1286 12.7963C20.1181 12.7952 20.1076 12.7952 20.0974 12.7962ZM3.22537 13.8333C3.21516 13.8334 3.20477 13.8344 3.19437 13.8366L2.46574 13.9913C2.38255 14.009 2.32981 14.0902 2.34748 14.1734C2.36516 14.2566 2.44635 14.3094 2.52955 14.2917L3.25818 14.137C3.34137 14.1193 3.39411 14.0381 3.37644 13.9549C3.36098 13.8821 3.29689 13.8327 3.22537 13.8333ZM20.9761 13.8347C20.9045 13.834 20.8405 13.8836 20.825 13.9564C20.8073 14.0396 20.86 14.1208 20.9432 14.1385L21.6718 14.2933C21.755 14.311 21.8362 14.2583 21.8539 14.1751C21.8716 14.0919 21.8188 14.0107 21.7356 13.993L21.0071 13.8381C20.9967 13.8359 20.9863 13.8347 20.9761 13.8347ZM4.45231 14.4394C4.43244 14.4376 4.41191 14.4398 4.39169 14.4465L2.70764 14.9939C2.62676 15.0202 2.58283 15.1065 2.60912 15.1874C2.63541 15.2683 2.7217 15.3122 2.80259 15.2859L4.48657 14.7385C4.56746 14.7122 4.61146 14.6259 4.58516 14.545C4.56543 14.4843 4.51194 14.4445 4.45231 14.4394ZM19.7477 14.4448C19.688 14.4498 19.6346 14.4897 19.6148 14.5503C19.5885 14.6312 19.6323 14.7175 19.7132 14.7439L21.3969 15.2925C21.4777 15.3188 21.564 15.2749 21.5904 15.1941C21.6168 15.1132 21.5729 15.0269 21.492 15.0005L19.8083 14.4519C19.7881 14.4453 19.7675 14.4432 19.7477 14.4448ZM3.80969 15.6384C3.78974 15.6388 3.76955 15.6431 3.75012 15.6517L3.0696 15.9547C2.9919 15.9893 2.95723 16.0797 2.99182 16.1574C3.02643 16.2351 3.1168 16.2698 3.19449 16.2352L3.87502 15.9322C3.95272 15.8977 3.9874 15.8073 3.95281 15.7296C3.92688 15.6713 3.86952 15.6372 3.80969 15.6384ZM20.3895 15.6442C20.3297 15.6428 20.2723 15.677 20.2463 15.7353C20.2117 15.8129 20.2463 15.9034 20.324 15.938L21.0042 16.2415C21.0819 16.2761 21.1723 16.2415 21.207 16.1638C21.2416 16.0861 21.207 15.9957 21.1293 15.9611L20.449 15.6576C20.4296 15.6489 20.4094 15.6446 20.3895 15.6442ZM5.13463 15.9769C5.10516 15.9747 5.07473 15.9813 5.0471 15.9973L3.51359 16.8826C3.43993 16.9252 3.41488 17.0187 3.4574 17.0924C3.49993 17.166 3.59345 17.1911 3.66711 17.1485L5.20062 16.2632C5.27428 16.2207 5.29933 16.1271 5.25681 16.0534C5.23022 16.0074 5.18375 15.9803 5.13463 15.9769ZM19.0671 15.9769C19.0179 15.9802 18.9714 16.0074 18.9448 16.0534C18.9023 16.1271 18.9273 16.2207 19.001 16.2632L20.5345 17.1485C20.6082 17.1911 20.7018 17.166 20.7443 17.0923C20.7868 17.0187 20.7618 16.9252 20.6881 16.8826L19.1545 15.9972C19.1269 15.9813 19.0965 15.9749 19.0671 15.9769ZM4.75213 17.2762C4.72259 17.2773 4.693 17.2868 4.66719 17.3056L4.06432 17.743C3.99548 17.7929 3.98025 17.8886 4.03018 17.9574C4.08013 18.0262 4.17575 18.0415 4.24459 17.9915L4.84752 17.5541C4.91637 17.5041 4.93159 17.4085 4.88166 17.3397C4.85044 17.2966 4.80134 17.2745 4.75213 17.2762ZM19.4459 17.2814C19.3966 17.2796 19.3476 17.3017 19.3163 17.3447C19.2663 17.4135 19.2815 17.5092 19.3503 17.5592L19.9529 17.997C20.0217 18.047 20.1173 18.0319 20.1673 17.963C20.2173 17.8942 20.2022 17.7986 20.1334 17.7486L19.5308 17.3108C19.505 17.2921 19.4754 17.2824 19.4459 17.2814ZM6.11755 17.3344C6.07837 17.3322 6.0384 17.3453 6.00677 17.3737L4.68985 18.5575C4.6266 18.6143 4.62146 18.711 4.67832 18.7743C4.73518 18.8375 4.83186 18.8427 4.89511 18.7858L6.21204 17.602C6.27529 17.5451 6.28043 17.4485 6.22356 17.3852C6.19515 17.3536 6.15674 17.3365 6.11755 17.3344ZM18.0804 17.3386C18.0412 17.3408 18.0028 17.3578 17.9744 17.3894C17.9174 17.4526 17.9225 17.5493 17.9857 17.6062L19.3018 18.7909C19.365 18.8478 19.4618 18.8427 19.5187 18.7795C19.5756 18.7163 19.5705 18.6196 19.5073 18.5627L18.1911 17.378C18.1595 17.3495 18.1196 17.3366 18.0804 17.3386ZM7.36689 18.4633C7.31768 18.4614 7.26856 18.4835 7.23729 18.5265L6.1956 19.9584C6.14557 20.0272 6.16063 20.1229 6.22938 20.1729C6.29815 20.2229 6.39382 20.2079 6.44385 20.1391L7.48554 18.7071C7.53557 18.6384 7.52052 18.5427 7.45177 18.4927C7.42598 18.4739 7.39642 18.4643 7.36689 18.4633ZM16.8262 18.4697C16.7966 18.4708 16.7671 18.4802 16.7412 18.499C16.6724 18.5489 16.6572 18.6445 16.7071 18.7134L17.7469 20.1467C17.7968 20.2156 17.8924 20.2308 17.9613 20.1808C18.0301 20.1309 18.0453 20.0353 17.9954 19.9664L16.9557 18.5331C16.9244 18.4901 16.8754 18.468 16.8262 18.4697ZM6.02214 18.6908C5.98295 18.693 5.94452 18.71 5.91607 18.7416L5.41768 19.2951C5.36076 19.3583 5.3658 19.4551 5.42902 19.512C5.49223 19.5689 5.5889 19.5638 5.64581 19.5006L6.14426 18.947C6.20118 18.8838 6.19607 18.7871 6.13288 18.7302C6.10126 18.7017 6.06133 18.6888 6.02214 18.6908ZM18.1786 18.6916C18.1394 18.6894 18.0994 18.7025 18.0678 18.7309C18.0046 18.7878 17.9995 18.8845 18.0564 18.9477L18.5547 19.5014C18.6116 19.5646 18.7083 19.5697 18.7715 19.5127C18.8348 19.4558 18.8398 19.3591 18.7829 19.2959L18.2846 18.7423C18.2562 18.7107 18.2177 18.6936 18.1786 18.6916ZM8.82156 19.3056C8.76174 19.3042 8.70444 19.3384 8.67845 19.3967L7.95697 21.0138C7.92232 21.0915 7.95695 21.1819 8.03463 21.2166C8.1123 21.2512 8.20273 21.2166 8.23737 21.1389L8.95885 19.5218C8.99349 19.4441 8.95886 19.3537 8.88119 19.319C8.86179 19.3103 8.8415 19.306 8.82156 19.3056ZM15.3703 19.3101C15.3504 19.3105 15.3301 19.3148 15.3107 19.3234C15.233 19.3579 15.1982 19.4483 15.2328 19.526L15.952 21.1441C15.9865 21.2218 16.077 21.2566 16.1547 21.2221C16.2323 21.1875 16.2671 21.0972 16.2326 21.0195L15.5134 19.4013C15.4875 19.3431 15.4302 19.3089 15.3703 19.3101ZM7.5538 19.8056C7.50468 19.8089 7.4582 19.8361 7.43163 19.8822L7.05919 20.5272C7.01667 20.6009 7.04172 20.6944 7.11538 20.7369C7.18904 20.7795 7.28256 20.7544 7.32508 20.6807L7.69751 20.0357C7.74004 19.962 7.71498 19.8685 7.64132 19.826C7.61372 19.81 7.58328 19.8036 7.5538 19.8056ZM16.6478 19.8056C16.6184 19.8034 16.588 19.81 16.5604 19.826C16.4867 19.8685 16.4617 19.962 16.5042 20.0357L16.8766 20.6808C16.9191 20.7544 17.0127 20.7795 17.0863 20.7369C17.16 20.6944 17.185 20.6009 17.1425 20.5272L16.7701 19.8822C16.7435 19.8361 16.6969 19.8091 16.6478 19.8056ZM10.4277 19.8288C10.3562 19.828 10.2921 19.8776 10.2766 19.9504L9.90864 21.6826C9.89095 21.7657 9.94372 21.847 10.0269 21.8646C10.1101 21.8823 10.1913 21.8295 10.209 21.7464L10.577 20.0142C10.5947 19.931 10.5419 19.8498 10.4587 19.8321C10.4483 19.8299 10.4379 19.8288 10.4277 19.8288ZM13.7685 19.8298C13.7583 19.8299 13.748 19.8309 13.7376 19.8331C13.6544 19.8507 13.6016 19.9319 13.6192 20.0151L13.9859 21.7475C14.0035 21.8307 14.0847 21.8835 14.1679 21.8659C14.2511 21.8483 14.3039 21.7671 14.2863 21.6839L13.9195 19.9516C13.9041 19.8788 13.84 19.8293 13.7685 19.8298ZM12.1008 20.0046C12.0158 20.0046 11.9473 20.073 11.9473 20.1581V21.9289C11.9473 22.0139 12.0158 22.0824 12.1008 22.0824C12.1859 22.0824 12.2543 22.0139 12.2543 21.9289V20.1581C12.2543 20.073 12.1859 20.0046 12.1008 20.0046ZM9.28277 20.5768C9.22315 20.5818 9.16965 20.6217 9.14993 20.6824L8.91969 21.3908C8.89339 21.4717 8.93734 21.558 9.01821 21.5843C9.0991 21.6106 9.18538 21.5665 9.21168 21.4857L9.44192 20.7773C9.46822 20.6964 9.42427 20.6101 9.3434 20.5839C9.32319 20.5773 9.30265 20.5751 9.28277 20.5768ZM14.9177 20.5771C14.8978 20.5753 14.8773 20.5775 14.857 20.5842C14.7761 20.6105 14.7322 20.6967 14.7584 20.7776L14.9886 21.4861C15.0149 21.5669 15.1012 21.6109 15.1821 21.5846C15.263 21.5583 15.307 21.4721 15.2807 21.3912L15.0504 20.6828C15.0307 20.6221 14.9773 20.5822 14.9177 20.5771ZM11.1372 20.9717C11.066 20.9785 11.0073 21.0344 10.9996 21.1084L10.9217 21.8493C10.9128 21.9338 10.9737 22.009 11.0583 22.0179C11.1429 22.0268 11.2182 21.9659 11.2271 21.8813L11.3049 21.1406C11.3138 21.056 11.2529 20.9807 11.1683 20.9718C11.1577 20.9707 11.1473 20.9707 11.1372 20.9717ZM13.0583 20.9724C13.0481 20.9713 13.0376 20.9713 13.0271 20.9725C12.9425 20.9814 12.8815 21.0566 12.8903 21.1412L12.9677 21.882C12.9765 21.9666 13.0517 22.0276 13.1363 22.0187C13.2209 22.0099 13.2819 21.9347 13.2731 21.8501L13.1958 21.1093C13.188 21.0353 13.1295 20.9793 13.0583 20.9724Z"
            fill="#F4F2F3"
        />
        <g opacity="0.409" filter="url(#filter0_f_2330_36841)">
            <path d="M19.2967 5.96094L10.8975 10.8409L5.58691 19.2013L13.3559 13.4469L19.2967 5.96094Z" fill="black" />
        </g>
        <path d="M13.305 13.36L10.8975 10.8388L19.4378 5.09375L13.305 13.36Z" fill="#FF5150" />
        <path d="M13.305 13.3611L10.8975 10.8398L4.76465 19.1061L13.305 13.3611Z" fill="#F1F1F1" />
        <path opacity="0.243" d="M4.76465 19.1051L13.305 13.36L19.4378 5.09375L4.76465 19.1051Z" fill="black" />
    </g>
    <defs>
        <filter
            id="filter0_f_2330_36841"
            x="3.04208"
            y="3.4161"
            width="18.7996"
            height="18.3319"
            filterUnits="userSpaceOnUse"
            color-interpolation-filters="sRGB"
        >
            <feFlood flood-opacity="0" result="BackgroundImageFix" />
            <feBlend mode="normal" in="SourceGraphic" in2="BackgroundImageFix" result="shape" />
            <feGaussianBlur stdDeviation="1.27242" result="effect1_foregroundBlur_2330_36841" />
        </filter>
        <linearGradient
            id="paint0_linear_2330_36841"
            x1="12.1003"
            y1="23.5254"
            x2="12.1003"
            y2="0.675721"
            gradientUnits="userSpaceOnUse"
        >
            <stop stop-color="#BDBDBD" />
            <stop offset="1" stop-color="white" />
        </linearGradient>
        <radialGradient
            id="paint1_radial_2330_36841"
            cx="0"
            cy="0"
            r="1"
            gradientUnits="userSpaceOnUse"
            gradientTransform="translate(12.1485 10.5646) scale(11.4249 11.4249)"
        >
            <stop stop-color="#06C2E7" />
            <stop offset="0.25" stop-color="#0DB8EC" />
            <stop offset="0.5" stop-color="#12AEF1" />
            <stop offset="0.75" stop-color="#1F86F9" />
            <stop offset="1" stop-color="#107DDD" />
        </radialGradient>
        <clipPath id="clip0_2330_36841">
            <rect width="24" height="24" fill="white" />
        </clipPath>
    </defs>
</svg>
