<svg width="36" height="36" viewBox="0 0 36 36" fill="none" xmlns="http://www.w3.org/2000/svg">
    <g clip-path="url(#clip0_7292_2290)">
        <rect width="36" height="36" fill="#1B1340" />
        <rect width="36" height="36" fill="url(#paint0_radial_7292_2290)" fill-opacity="0.8" />
        <path
            d="M9.35742 11.3574C9.86726 11.3575 10.3636 11.5223 10.7715 11.8281L12.6572 13.2432C13.0652 13.549 13.5614 13.7138 14.0713 13.7139H22.3213C23.4061 13.7139 24.2861 14.5939 24.2861 15.6787V27H9.35742C8.05561 27 7 25.9444 7 24.6426V11.3574H9.35742Z"
            fill="url(#paint1_radial_7292_2290)"
            fill-opacity="0.6"
        />
        <path
            d="M26.6426 26V27H9.35742V26H26.6426ZM28 24.6426V12.9287C28 12.1792 27.3921 11.5713 26.6426 11.5713H16.999C16.3778 11.5713 15.7705 11.3989 15.2441 11.0762L15.0244 10.9287L14.1035 10.2598C13.8713 10.0909 13.5912 10 13.3047 10H9.35742C8.66011 10 8.08505 10.5265 8.00879 11.2021L8 11.3857V24.6426C8 25.3921 8.60789 26 9.35742 26V27C8.05561 27 7 25.9444 7 24.6426V11.3574L7.01172 11.1162C7.13237 9.92755 8.13693 9 9.35742 9H13.3047C13.8029 9 14.2885 9.15817 14.6914 9.45117L15.6123 10.1201C16.0152 10.4131 16.5009 10.5713 16.999 10.5713H26.6426C27.9444 10.5713 29 11.6269 29 12.9287V24.6426C29 25.9444 27.9444 27 26.6426 27V26C27.3921 26 28 25.3921 28 24.6426Z"
            fill="url(#paint2_linear_7292_2290)"
        />
        <path
            d="M23.2861 15.6787C23.2861 15.1462 22.8538 14.7139 22.3213 14.7139H14.0713C13.3459 14.7138 12.6393 14.4791 12.0576 14.043L10.1709 12.6279C9.96603 12.4745 9.72184 12.3829 9.4668 12.3623L9.35742 12.3574H8V24.6426C8 25.3921 8.60789 26 9.35742 26V27C8.05561 27 7 25.9444 7 24.6426V11.3574H9.35742C9.86726 11.3575 10.3636 11.5223 10.7715 11.8281L12.6572 13.2432C13.0652 13.549 13.5614 13.7138 14.0713 13.7139H22.3213C23.4061 13.7139 24.2861 14.5939 24.2861 15.6787V27H9.35742V26H23.2861V15.6787Z"
            fill="url(#paint3_linear_7292_2290)"
        />
    </g>
    <defs>
        <radialGradient
            id="paint0_radial_7292_2290"
            cx="0"
            cy="0"
            r="1"
            gradientUnits="userSpaceOnUse"
            gradientTransform="translate(37.3966 45.0217) rotate(-123.279) scale(28.2138 28.5313)"
        >
            <stop stop-color="#FF50C3" />
            <stop offset="1" stop-color="#1B1340" />
        </radialGradient>
        <radialGradient
            id="paint1_radial_7292_2290"
            cx="0"
            cy="0"
            r="1"
            gradientUnits="userSpaceOnUse"
            gradientTransform="translate(21.186 4.50039) rotate(115.903) scale(24.7252 36.4502)"
        >
            <stop offset="0.442308" stop-color="#6D4AFF" />
            <stop offset="1" stop-color="#FF62C0" />
        </radialGradient>
        <linearGradient
            id="paint2_linear_7292_2290"
            x1="19.1"
            y1="13.1538"
            x2="7.37484"
            y2="26.4984"
            gradientUnits="userSpaceOnUse"
        >
            <stop stop-color="#9880FF" />
            <stop offset="1" stop-color="#FFC8FF" />
        </linearGradient>
        <linearGradient
            id="paint3_linear_7292_2290"
            x1="19.1"
            y1="13.1538"
            x2="7.37484"
            y2="26.4984"
            gradientUnits="userSpaceOnUse"
        >
            <stop stop-color="#9880FF" />
            <stop offset="1" stop-color="#FFC8FF" />
        </linearGradient>
        <clipPath id="clip0_7292_2290">
            <rect width="36" height="36" fill="white" />
        </clipPath>
    </defs>
</svg>
