<svg width="36" height="36" viewBox="0 0 36 36" fill="none" xmlns="http://www.w3.org/2000/svg">
    <rect width="36" height="36" fill="url(#paint0_radial_2025_1364)" />
    <path
        fill-rule="evenodd"
        clip-rule="evenodd"
        d="M18 14.875C18 16.6009 16.6009 18 14.875 18C13.1491 18 11.75 16.6009 11.75 14.875C11.75 13.1491 13.1491 11.75 14.875 11.75C16.6009 11.75 18 13.1491 18 14.875ZM12.5298 19.25C11.6748 19.25 10.8802 19.694 10.427 20.425L9.47853 21.955C8.85918 22.9541 9.57161 24.25 10.7402 24.25H19.0098C20.1784 24.25 20.8908 22.9541 20.2715 21.955L19.323 20.425C18.8698 19.694 18.0752 19.25 17.2202 19.25H12.5298ZM25 20.25L26.5 22.25C27.118 23.074 26.5301 24.25 25.5 24.25H21.75V22.5833C21.75 22.0424 21.5746 21.5161 21.25 21.0833L19.875 19.25H23C23.7869 19.25 24.5279 19.6205 25 20.25ZM21.75 18C23.1307 18 24.25 16.8807 24.25 15.5C24.25 14.1193 23.1307 13 21.75 13C20.3693 13 19.25 14.1193 19.25 15.5C19.25 16.8807 20.3693 18 21.75 18Z"
        fill="white"
    />
    <defs>
        <radialGradient
            id="paint0_radial_2025_1364"
            cx="0"
            cy="0"
            r="1"
            gradientUnits="userSpaceOnUse"
            gradientTransform="translate(36.1276 -4.99825) scale(45.7897 36.2335)"
        >
            <stop stop-color="#FFA7D7" />
            <stop offset="1" stop-color="#D72E8A" />
        </radialGradient>
    </defs>
</svg>
