<svg width="36" height="36" viewBox="0 0 36 36" fill="none" xmlns="http://www.w3.org/2000/svg">
    <rect width="36" height="36" fill="#1B1340" />
    <rect width="36" height="36" fill="url(#paint0_radial_2025_1322)" fill-opacity="0.8" />
    <path
        d="M10 23.2252V28.9411H14.1577V23.4728C14.1577 22.9408 14.3768 22.4305 14.7667 22.0543C15.1566 21.678 15.6855 21.4665 16.237 21.4663H20.5015C22.4902 21.4663 24.3975 20.7042 25.8037 19.3477C27.21 17.9912 28 16.1515 28 14.2331V14.2331C27.9988 12.3151 27.2084 10.476 25.8024 9.11978C24.3964 7.76355 22.4898 7.00113 20.5015 7H10.0035V14.148H14.1586V10.7689H20.2218C21.1633 10.7689 22.0662 11.1297 22.732 11.7718C23.3977 12.414 23.7717 13.285 23.7717 14.1931V14.1931C23.7715 15.1012 23.3974 15.9721 22.7317 16.6142C22.066 17.2563 21.1632 17.6172 20.2218 17.6174H15.8171C15.0533 17.6168 14.2969 17.7615 13.5911 18.043C12.8853 18.3246 12.244 18.7376 11.7037 19.2584C11.1635 19.7792 10.735 20.3976 10.4426 21.0783C10.1503 21.7589 9.99988 22.4884 10 23.2252Z"
        fill="white"
    />
    <path
        d="M16.237 21.4663C15.4179 21.4663 14.6068 21.6219 13.85 21.9243C13.0932 22.2267 12.4056 22.67 11.8265 23.2287C11.2473 23.7875 10.7879 24.4508 10.4745 25.1808C10.1611 25.9108 9.99988 26.6933 10 27.4834V28.9411H14.1577V23.4728C14.1577 22.9408 14.3768 22.4306 14.7667 22.0543C15.1566 21.678 15.6855 21.4665 16.237 21.4663Z"
        fill="url(#paint1_linear_2025_1322)"
    />
    <defs>
        <radialGradient
            id="paint0_radial_2025_1322"
            cx="0"
            cy="0"
            r="1"
            gradientUnits="userSpaceOnUse"
            gradientTransform="translate(37.3966 45.0217) rotate(-123.279) scale(28.2138 28.5313)"
        >
            <stop stop-color="#7763F7" />
            <stop offset="1" stop-color="#1B1340" />
        </radialGradient>
        <linearGradient
            id="paint1_linear_2025_1322"
            x1="13.1185"
            y1="27.8595"
            x2="13.1185"
            y2="15.9002"
            gradientUnits="userSpaceOnUse"
        >
            <stop stop-color="white" />
            <stop offset="1" stop-color="#1C0554" />
        </linearGradient>
    </defs>
</svg>
