<svg width="36" height="36" viewBox="0 0 36 36" fill="none" xmlns="http://www.w3.org/2000/svg">
    <g clip-path="url(#clip0_7292_2283)">
        <rect width="36" height="36" fill="white" />
        <path
            d="M24.2857 12.8158L20.9701 15.5693L20.9713 15.5703L16.5812 19.4482C15.8334 20.1088 14.7156 20.1254 13.9484 19.4874L7 13.7087V24.7956C7 26.0525 8.01894 27 9.27586 27L24.2857 27V12.8158Z"
            fill="url(#paint0_radial_7292_2283)"
            fill-opacity="0.3"
        />
        <path
            d="M26.7246 25.9997V26.9997H9.27539V25.9997H26.7246ZM29 24.7243L28.9883 24.9568C28.8718 26.1042 27.9028 26.9995 26.7246 26.9997V25.9997C27.4289 25.9995 27.9999 25.4287 28 24.7243V11.03L20.0928 17.5974C18.8794 18.605 17.1206 18.605 15.9072 17.5974L8 11.03V24.7956C8.00001 25.4588 8.52873 25.9995 9.27539 25.9997V26.9997C8.09709 26.9995 7.12806 26.1669 7.01172 25.0271L7 24.7956V9.97827C7 9.54991 7.49954 9.31503 7.8291 9.58862L16.5459 16.8279C17.3363 17.4843 18.46 17.5255 19.292 16.9509L19.4541 16.8279L28.1709 9.58862C28.5005 9.31501 29 9.54992 29 9.97827V24.7243Z"
            fill="url(#paint1_radial_7292_2283)"
        />
        <path
            d="M7 24.7956V13.7084L13.9482 19.4877C14.6674 20.0857 15.6947 20.1083 16.4365 19.5648L16.5811 19.4486L20.9717 15.5707L20.9697 15.5697L24.2861 12.8158V27.0004L9.27539 26.9997V25.9997L23.2861 26.0004V14.9457L21.666 16.2904L21.6338 16.3197L17.2432 20.1976C16.1257 21.1847 14.455 21.2096 13.3086 20.2562L8 15.8412L8 24.7956C8.00001 25.4588 8.52873 25.9995 9.27539 25.9997V26.9997L9.04297 26.9886C7.89546 26.8799 7 25.9739 7 24.7956Z"
            fill="url(#paint2_radial_7292_2283)"
        />
    </g>
    <defs>
        <radialGradient
            id="paint0_radial_7292_2283"
            cx="0"
            cy="0"
            r="1"
            gradientUnits="userSpaceOnUse"
            gradientTransform="translate(24.2104 14.5521) scale(20.1581 20.624)"
        >
            <stop offset="0.5561" stop-color="#6D4AFF" />
            <stop offset="0.9944" stop-color="#AA8EFF" />
        </radialGradient>
        <radialGradient
            id="paint1_radial_7292_2283"
            cx="0"
            cy="0"
            r="1"
            gradientUnits="userSpaceOnUse"
            gradientTransform="translate(28.9041 11.6169) scale(25.6558 25.4877)"
        >
            <stop offset="0.5561" stop-color="#6D4AFF" />
            <stop offset="0.9944" stop-color="#AA8EFF" />
        </radialGradient>
        <radialGradient
            id="paint2_radial_7292_2283"
            cx="0"
            cy="0"
            r="1"
            gradientUnits="userSpaceOnUse"
            gradientTransform="translate(28.9041 11.6169) scale(25.6558 25.4877)"
        >
            <stop offset="0.5561" stop-color="#6D4AFF" />
            <stop offset="0.9944" stop-color="#AA8EFF" />
        </radialGradient>
        <clipPath id="clip0_7292_2283">
            <rect width="36" height="36" fill="white" />
        </clipPath>
    </defs>
</svg>
