<svg width="36" height="36" viewBox="0 0 36 36" fill="none" xmlns="http://www.w3.org/2000/svg">
    <g clip-path="url(#clip0_7292_2285)">
        <rect width="36" height="36" fill="white" />
        <path
            d="M16.3354 25.3442L17.1209 24.1726L23.0878 15.1593C23.6095 14.3712 23.1116 13.3141 22.1677 13.2057L7.35938 11.5056L15.0305 25.2964C15.3105 25.7899 16.0183 25.8171 16.3354 25.3442Z"
            fill="#6D4AFF"
            fill-opacity="0.3"
        />
        <path
            d="M16.3354 25.3442L17.1209 24.1726L23.0878 15.1593C23.6095 14.3712 23.1116 13.3141 22.1677 13.2057L7.35938 11.5056L15.0305 25.2964C15.3105 25.7899 16.0183 25.8171 16.3354 25.3442Z"
            fill="url(#paint0_linear_7292_2285)"
            fill-opacity="0.3"
        />
        <path
            d="M7.29102 11.3828C6.38884 9.76093 7.70962 7.80458 9.56445 8.01562L26.9619 9.99512C28.6613 10.1887 29.5593 12.0915 28.6211 13.5107L19.7695 26.8955C18.8202 28.3308 16.673 28.2492 15.8369 26.7461L7.29102 11.3828ZM9.45117 9.00976C8.38829 8.88883 7.66645 10.0002 8.16504 10.8965L16.7109 26.2598C17.1819 27.1064 18.3994 27.1545 18.9355 26.3437L27.7871 12.959C28.3073 12.1717 27.8173 11.0996 26.8486 10.9893L9.45117 9.00976Z"
            fill="#6D4AFF"
        />
        <path
            d="M7.29102 11.3828C6.38884 9.76093 7.70962 7.80458 9.56445 8.01562L26.9619 9.99512C28.6613 10.1887 29.5593 12.0915 28.6211 13.5107L19.7695 26.8955C18.8202 28.3308 16.673 28.2492 15.8369 26.7461L7.29102 11.3828ZM9.45117 9.00976C8.38829 8.88883 7.66645 10.0002 8.16504 10.8965L16.7109 26.2598C17.1819 27.1064 18.3994 27.1545 18.9355 26.3437L27.7871 12.959C28.3073 12.1717 27.8173 11.0996 26.8486 10.9893L9.45117 9.00976Z"
            fill="url(#paint1_linear_7292_2285)"
        />
        <path
            d="M22.1681 13.2058C23.1117 13.3144 23.6093 14.371 23.088 15.1589L17.1211 24.1725L16.335 25.3444L16.2715 25.4274C15.9542 25.7863 15.3769 25.764 15.0879 25.3835L15.0303 25.2966L7.35938 11.5056L22.1681 13.2058ZM15.7159 24.4714L16.2901 23.6159L22.254 14.6072C22.3575 14.4507 22.2672 14.2235 22.0538 14.199L9.1797 12.7205L15.7159 24.4714Z"
            fill="#6D4AFF"
        />
        <path
            d="M22.1681 13.2058C23.1117 13.3144 23.6093 14.371 23.088 15.1589L17.1211 24.1725L16.335 25.3444L16.2715 25.4274C15.9542 25.7863 15.3769 25.764 15.0879 25.3835L15.0303 25.2966L7.35938 11.5056L22.1681 13.2058ZM15.7159 24.4714L16.2901 23.6159L22.254 14.6072C22.3575 14.4507 22.2672 14.2235 22.0538 14.199L9.1797 12.7205L15.7159 24.4714Z"
            fill="url(#paint2_linear_7292_2285)"
        />
    </g>
    <defs>
        <linearGradient
            id="paint0_linear_7292_2285"
            x1="14.8873"
            y1="12.8396"
            x2="15.2724"
            y2="25.685"
            gradientUnits="userSpaceOnUse"
        >
            <stop offset="0.215692" stop-color="#24ECC6" stop-opacity="0" />
            <stop offset="1" stop-color="#24ECC6" />
        </linearGradient>
        <linearGradient
            id="paint1_linear_7292_2285"
            x1="15.8543"
            y1="6.22433"
            x2="17.2428"
            y2="28.1352"
            gradientUnits="userSpaceOnUse"
        >
            <stop offset="0.172059" stop-color="#24ECC6" stop-opacity="0" />
            <stop offset="1" stop-color="#24ECC6" />
        </linearGradient>
        <linearGradient
            id="paint2_linear_7292_2285"
            x1="15.8543"
            y1="6.22433"
            x2="17.2428"
            y2="28.1352"
            gradientUnits="userSpaceOnUse"
        >
            <stop offset="0.172059" stop-color="#24ECC6" stop-opacity="0" />
            <stop offset="1" stop-color="#24ECC6" />
        </linearGradient>
        <clipPath id="clip0_7292_2285">
            <rect width="36" height="36" fill="white" />
        </clipPath>
    </defs>
</svg>
