<svg width="36" height="36" viewBox="0 0 36 36" fill="none" xmlns="http://www.w3.org/2000/svg">
    <rect width="36" height="36" fill="white" />
    <g opacity="0.3">
        <path
            d="M8.99996 28.6627L25.1921 28.6637L25.1921 18.696C25.1921 14.3448 21.6648 10.8889 17.3136 10.8889H5.55554V18.0295H10.7466C12.6173 18.0295 14.1342 19.6502 14.1342 21.6489C14.1342 22.5876 13.7996 23.4123 13.2509 24.023C12.6313 24.7126 12.3333 25.1293 12.3333 25.1293L8.99996 28.6627Z"
            fill="#6D4AFF"
        />
        <path
            d="M8.99996 28.6627L25.1921 28.6637L25.1921 18.696C25.1921 14.3448 21.6648 10.8889 17.3136 10.8889H5.55554V18.0295H10.7466C12.6173 18.0295 14.1342 19.6502 14.1342 21.6489C14.1342 22.5876 13.7996 23.4123 13.2509 24.023C12.6313 24.7126 12.3333 25.1293 12.3333 25.1293L8.99996 28.6627Z"
            fill="url(#paint0_linear_2025_1092)"
            fill-opacity="0.9"
        />
    </g>
    <path
        fill-rule="evenodd"
        clip-rule="evenodd"
        d="M6.44454 26.0371C6.44454 26.9966 7.22234 27.7744 8.1818 27.7744H24.3033V18.7673C24.3033 14.9071 21.1739 11.7777 17.3137 11.7777H6.44454V17.1402L10.7467 17.1402C13.1628 17.1402 15.0232 19.2152 15.0232 21.6485C15.0232 24.1283 13.1181 26.0178 10.7467 26.0178H6.44454V26.0371ZM5.55565 25.1289V26.0371C5.55565 27.4875 6.73142 28.6633 8.1818 28.6633H25.1922V18.7673C25.1922 14.4162 21.6649 10.8889 17.3137 10.8889H5.55565L5.55554 18.0291L10.7467 18.0291C12.6174 18.0291 14.1343 19.6498 14.1343 21.6485C14.1343 23.6472 12.6174 25.1289 10.7467 25.1289H5.55565Z"
        fill="#6D4AFF"
    />
    <path
        fill-rule="evenodd"
        clip-rule="evenodd"
        d="M6.44454 26.0371C6.44454 26.9966 7.22234 27.7744 8.1818 27.7744H24.3033V18.7673C24.3033 14.9071 21.1739 11.7777 17.3137 11.7777H6.44454V17.1402L10.7467 17.1402C13.1628 17.1402 15.0232 19.2152 15.0232 21.6485C15.0232 24.1283 13.1181 26.0178 10.7467 26.0178H6.44454V26.0371ZM5.55565 25.1289V26.0371C5.55565 27.4875 6.73142 28.6633 8.1818 28.6633H25.1922V18.7673C25.1922 14.4162 21.6649 10.8889 17.3137 10.8889H5.55565L5.55554 18.0291L10.7467 18.0291C12.6174 18.0291 14.1343 19.6498 14.1343 21.6485C14.1343 23.6472 12.6174 25.1289 10.7467 25.1289H5.55565Z"
        fill="url(#paint1_linear_2025_1092)"
        fill-opacity="0.9"
    />
    <path
        fill-rule="evenodd"
        clip-rule="evenodd"
        d="M5.55907 18.0291L5.55554 18.0291L5.55565 25.1289L5.55907 25.1289L5.55907 26.0371C5.55907 27.4875 6.73484 28.6633 8.18522 28.6633L27.8183 28.6633C29.2687 28.6633 30.4444 27.4875 30.4444 26.0371L30.4444 17.8384C30.4444 12.0369 25.7413 7.3338 19.9398 7.3338H8.18522C6.73483 7.3338 5.55907 8.50957 5.55907 9.95995L5.55907 18.0291ZM6.44796 26.0178V26.0371C6.44796 26.9966 7.22576 27.7744 8.18522 27.7744L27.8183 27.7744C28.7777 27.7744 29.5555 26.9966 29.5555 26.0371L29.5555 17.8384C29.5555 12.5278 25.2504 8.22269 19.9398 8.22269L8.18522 8.22269C7.22576 8.22269 6.44796 9.00049 6.44796 9.95995L6.44796 17.1402L10.7467 17.1402C13.1628 17.1402 15.0232 19.2152 15.0232 21.6485C15.0232 24.1283 13.1181 26.0178 10.7467 26.0178L6.44796 26.0178ZM5.55907 25.1289L10.7467 25.1289C12.6174 25.1289 14.1343 23.6472 14.1343 21.6485C14.1343 19.6498 12.6174 18.0291 10.7467 18.0291L5.55907 18.0291L5.55907 25.1289Z"
        fill="#6D4AFF"
    />
    <path
        fill-rule="evenodd"
        clip-rule="evenodd"
        d="M5.55907 18.0291L5.55554 18.0291L5.55565 25.1289L5.55907 25.1289L5.55907 26.0371C5.55907 27.4875 6.73484 28.6633 8.18522 28.6633L27.8183 28.6633C29.2687 28.6633 30.4444 27.4875 30.4444 26.0371L30.4444 17.8384C30.4444 12.0369 25.7413 7.3338 19.9398 7.3338H8.18522C6.73483 7.3338 5.55907 8.50957 5.55907 9.95995L5.55907 18.0291ZM6.44796 26.0178V26.0371C6.44796 26.9966 7.22576 27.7744 8.18522 27.7744L27.8183 27.7744C28.7777 27.7744 29.5555 26.9966 29.5555 26.0371L29.5555 17.8384C29.5555 12.5278 25.2504 8.22269 19.9398 8.22269L8.18522 8.22269C7.22576 8.22269 6.44796 9.00049 6.44796 9.95995L6.44796 17.1402L10.7467 17.1402C13.1628 17.1402 15.0232 19.2152 15.0232 21.6485C15.0232 24.1283 13.1181 26.0178 10.7467 26.0178L6.44796 26.0178ZM5.55907 25.1289L10.7467 25.1289C12.6174 25.1289 14.1343 23.6472 14.1343 21.6485C14.1343 19.6498 12.6174 18.0291 10.7467 18.0291L5.55907 18.0291L5.55907 25.1289Z"
        fill="url(#paint2_linear_2025_1092)"
        fill-opacity="0.9"
    />
    <path
        fill-rule="evenodd"
        clip-rule="evenodd"
        d="M9.4588 27.9305L13.2366 24.0371L13.8745 24.6561L10.0967 28.5495L9.4588 27.9305Z"
        fill="#6D4AFF"
    />
    <path
        fill-rule="evenodd"
        clip-rule="evenodd"
        d="M9.4588 27.9305L13.2366 24.0371L13.8745 24.6561L10.0967 28.5495L9.4588 27.9305Z"
        fill="url(#paint3_linear_2025_1092)"
        fill-opacity="0.9"
    />
    <path
        fill-rule="evenodd"
        clip-rule="evenodd"
        d="M11.5227 21.6602C11.5227 21.0875 11.0584 20.6232 10.4857 20.6232C9.91303 20.6232 9.44877 21.0875 9.44877 21.6602C9.44877 22.2329 9.91303 22.6971 10.4857 22.6971C11.0584 22.6971 11.5227 22.2329 11.5227 21.6602ZM10.4857 19.7344C11.5493 19.7344 12.4116 20.5966 12.4116 21.6602C12.4116 22.7238 11.5493 23.586 10.4857 23.586C9.42211 23.586 8.55988 22.7238 8.55988 21.6602C8.55988 20.5966 9.42211 19.7344 10.4857 19.7344Z"
        fill="#6D4AFF"
    />
    <path
        fill-rule="evenodd"
        clip-rule="evenodd"
        d="M11.5227 21.6602C11.5227 21.0875 11.0584 20.6232 10.4857 20.6232C9.91303 20.6232 9.44877 21.0875 9.44877 21.6602C9.44877 22.2329 9.91303 22.6971 10.4857 22.6971C11.0584 22.6971 11.5227 22.2329 11.5227 21.6602ZM10.4857 19.7344C11.5493 19.7344 12.4116 20.5966 12.4116 21.6602C12.4116 22.7238 11.5493 23.586 10.4857 23.586C9.42211 23.586 8.55988 22.7238 8.55988 21.6602C8.55988 20.5966 9.42211 19.7344 10.4857 19.7344Z"
        fill="url(#paint4_linear_2025_1092)"
        fill-opacity="0.9"
    />
    <defs>
        <linearGradient
            id="paint0_linear_2025_1092"
            x1="24.0823"
            y1="13.3993"
            x2="14.5325"
            y2="32.8316"
            gradientUnits="userSpaceOnUse"
        >
            <stop offset="0.149916" stop-color="#FA528E" stop-opacity="0" />
            <stop offset="0.720842" stop-color="#FF8065" />
            <stop offset="1" stop-color="#FFA51F" />
        </linearGradient>
        <linearGradient
            id="paint1_linear_2025_1092"
            x1="29.0379"
            y1="10.6084"
            x2="18.2251"
            y2="34.1854"
            gradientUnits="userSpaceOnUse"
        >
            <stop offset="0.149916" stop-color="#FA528E" stop-opacity="0" />
            <stop offset="0.720842" stop-color="#FF8065" />
            <stop offset="1" stop-color="#FFA51F" />
        </linearGradient>
        <linearGradient
            id="paint2_linear_2025_1092"
            x1="29.0379"
            y1="10.6084"
            x2="18.2251"
            y2="34.1854"
            gradientUnits="userSpaceOnUse"
        >
            <stop offset="0.149916" stop-color="#FA528E" stop-opacity="0" />
            <stop offset="0.720842" stop-color="#FF8065" />
            <stop offset="1" stop-color="#FFA51F" />
        </linearGradient>
        <linearGradient
            id="paint3_linear_2025_1092"
            x1="29.0379"
            y1="10.6084"
            x2="18.2251"
            y2="34.1854"
            gradientUnits="userSpaceOnUse"
        >
            <stop offset="0.149916" stop-color="#FA528E" stop-opacity="0" />
            <stop offset="0.720842" stop-color="#FF8065" />
            <stop offset="1" stop-color="#FFA51F" />
        </linearGradient>
        <linearGradient
            id="paint4_linear_2025_1092"
            x1="29.0379"
            y1="10.6084"
            x2="18.2251"
            y2="34.1854"
            gradientUnits="userSpaceOnUse"
        >
            <stop offset="0.149916" stop-color="#FA528E" stop-opacity="0" />
            <stop offset="0.720842" stop-color="#FF8065" />
            <stop offset="1" stop-color="#FFA51F" />
        </linearGradient>
    </defs>
</svg>
