<svg width="36" height="36" viewBox="0 0 36 36" fill="none" xmlns="http://www.w3.org/2000/svg">
    <rect width="36" height="36" fill="white" />
    <path
        d="M10 23.2711V29H14.0212V23.5195C14.0212 22.9863 14.2331 22.4749 14.6101 22.0978C14.9872 21.7208 15.4986 21.5089 16.0318 21.5089H20.155C21.1076 21.5089 22.0509 21.3213 22.931 20.9567C23.811 20.5922 24.6107 20.0578 25.2843 19.3842C25.9579 18.7106 26.4921 17.9109 26.8566 17.0308C27.2211 16.1507 27.4087 15.2074 27.4086 14.2547C27.4088 13.3021 27.2213 12.3587 26.8568 11.4786C26.4923 10.5984 25.9581 9.79863 25.2845 9.12495C24.6109 8.45128 23.8112 7.91688 22.9311 7.55228C22.051 7.18768 21.1076 7 20.155 7H10V14.1611H14.0212V10.7844H19.8829C20.7931 10.7844 21.666 11.1459 22.3097 11.7895C22.9534 12.4331 23.3151 13.306 23.3152 14.2162C23.3152 15.1265 22.9536 15.9995 22.3099 16.6432C21.6662 17.2869 20.7932 17.6485 19.8829 17.6485H15.6209C14.8825 17.6483 14.1514 17.7935 13.4692 18.076C12.787 18.3585 12.1671 18.7726 11.6451 19.2948C11.1231 19.817 10.7091 20.437 10.4268 21.1192C10.1445 21.8015 9.99949 22.5328 10 23.2711Z"
        fill="url(#paint0_radial_2025_1127)"
    />
    <path
        d="M16.0307 21.5083C15.2388 21.5082 14.4545 21.6642 13.7228 21.9672C12.9911 22.2703 12.3262 22.7145 11.7662 23.2745C11.2062 23.8345 10.762 24.4994 10.4589 25.2311C10.1559 25.9628 9.99993 26.7471 10 27.539V28.9993H14.0212V23.5189C14.0212 22.9859 14.2329 22.4746 14.6097 22.0976C14.9866 21.7205 15.4977 21.5086 16.0307 21.5083Z"
        fill="url(#paint1_linear_2025_1127)"
    />
    <defs>
        <radialGradient
            id="paint0_radial_2025_1127"
            cx="0"
            cy="0"
            r="1"
            gradientUnits="userSpaceOnUse"
            gradientTransform="translate(27.4703 3.94551) scale(22.1427 22.1427)"
        >
            <stop stop-color="#A995FF" />
            <stop offset="1" stop-color="#6652F5" />
        </radialGradient>
        <linearGradient
            id="paint1_linear_2025_1127"
            x1="13.0154"
            y1="27.9158"
            x2="13.0154"
            y2="19.4977"
            gradientUnits="userSpaceOnUse"
        >
            <stop stop-color="#6D4BFD" />
            <stop offset="1" stop-color="#1C0554" />
        </linearGradient>
    </defs>
</svg>
