<svg width="36" height="36" viewBox="0 0 36 36" fill="none" xmlns="http://www.w3.org/2000/svg">
    <rect width="36" height="36" fill="white" />
    <path
        fill-rule="evenodd"
        clip-rule="evenodd"
        d="M20.9701 15.5693L20.9713 15.5703L14.8571 22.3571L7 13.7087V9.97815C7 9.54976 7.4993 9.31538 7.82886 9.58907L16.546 16.8283C17.389 17.5283 18.6111 17.5283 19.454 16.8283L20.9701 15.5693Z"
        fill="url(#paint0_linear_2025_2228)"
    />
    <path
        d="M24.2857 12.8158L20.9701 15.5693L20.9713 15.5703L16.5812 19.4482C15.8334 20.1088 14.7156 20.1255 13.9484 19.4874L7 13.7088V24.7956C7 26.0526 8.01894 27 9.27586 27L24.2857 27L25.8571 19.9437L24.2857 12.8158Z"
        fill="url(#paint1_radial_2025_2228)"
    />
    <path
        fill-rule="evenodd"
        clip-rule="evenodd"
        d="M24.2858 12.8186V27L26.7242 27C27.9811 27 29 25.981 29 24.7241V9.97816C29 9.54977 28.5007 9.31536 28.1712 9.5891L24.2858 12.8186Z"
        fill="url(#paint2_linear_2025_2228)"
    />
    <defs>
        <linearGradient
            id="paint0_linear_2025_2228"
            x1="15.2555"
            y1="22.4768"
            x2="7.87709"
            y2="-3.15459"
            gradientUnits="userSpaceOnUse"
        >
            <stop stop-color="#E3D9FF" />
            <stop offset="1" stop-color="#7341FF" />
        </linearGradient>
        <radialGradient
            id="paint1_radial_2025_2228"
            cx="0"
            cy="0"
            r="1"
            gradientUnits="userSpaceOnUse"
            gradientTransform="translate(25.775 14.5521) scale(21.9907 20.624)"
        >
            <stop offset="0.5561" stop-color="#6D4AFF" />
            <stop offset="0.9944" stop-color="#AA8EFF" />
        </radialGradient>
        <linearGradient
            id="paint2_linear_2025_2228"
            x1="36.1148"
            y1="38.3639"
            x2="19.2563"
            y2="1.8484"
            gradientUnits="userSpaceOnUse"
        >
            <stop offset="0.271" stop-color="#E3D9FF" />
            <stop offset="1" stop-color="#7341FF" />
        </linearGradient>
    </defs>
</svg>
