<svg width="36" height="36" viewBox="0 0 36 36" fill="none" xmlns="http://www.w3.org/2000/svg">
    <rect width="36" height="36" fill="url(#paint0_radial_2025_1434)" />
    <path
        fill-rule="evenodd"
        clip-rule="evenodd"
        d="M5.79331 13.2304C3.12293 15.9008 3.12293 20.2303 5.79331 22.9007C8.46369 25.5711 12.7932 25.5711 15.4636 22.9007L17.9996 20.3647L20.5356 22.9007C23.206 25.5711 27.5355 25.5711 30.2059 22.9007C32.8763 20.2303 32.8763 15.9008 30.2059 13.2304C27.5355 10.5601 23.206 10.5601 20.5356 13.2304L17.9996 15.7665L15.4636 13.2304C12.7932 10.5601 8.46369 10.5601 5.79331 13.2304ZM8.10748 20.5866C6.71518 19.1943 6.71518 16.9369 8.10748 15.5446C9.49977 14.1523 11.7571 14.1523 13.1494 15.5446L15.6704 18.0656L13.1494 20.5866C11.7571 21.9789 9.49977 21.9789 8.10748 20.5866ZM22.8498 20.5866C24.2421 21.9789 26.4994 21.9789 27.8917 20.5866C29.284 19.1943 29.284 16.9369 27.8917 15.5446C26.4994 14.1523 24.2421 14.1523 22.8498 15.5446L20.3288 18.0656L22.8498 20.5866Z"
        fill="white"
    />
    <path
        opacity="0.4"
        d="M9.49854 14.6832C10.7393 14.2693 12.1625 14.5563 13.1503 15.5441L15.6713 18.0651L18.0173 15.7827L18.0005 15.766L15.4645 13.23C14.6496 12.415 13.6801 11.8488 12.6505 11.5312L9.49854 14.6832Z"
        fill="url(#paint1_linear_2025_1434)"
    />
    <path
        opacity="0.4"
        d="M23.7046 24.6967L27.4165 20.9849C26.0256 21.9612 24.0932 21.8279 22.8502 20.5849L20.3292 18.064L18 20.3631L20.536 22.8991C21.4439 23.807 22.5435 24.4062 23.7046 24.6967Z"
        fill="url(#paint2_linear_2025_1434)"
    />
    <defs>
        <radialGradient
            id="paint0_radial_2025_1434"
            cx="0"
            cy="0"
            r="1"
            gradientUnits="userSpaceOnUse"
            gradientTransform="translate(-1 44.5) rotate(-49.5248) scale(49.2976 78.544)"
        >
            <stop stop-color="#FFD580" />
            <stop offset="0.09375" stop-color="#F6C592" />
            <stop offset="0.205" stop-color="#EBB6A2" />
            <stop offset="0.324466" stop-color="#DFA5AF" />
            <stop offset="0.42875" stop-color="#D397BE" />
            <stop offset="0.53375" stop-color="#C486CB" />
            <stop offset="0.64875" stop-color="#B578D9" />
            <stop offset="0.77125" stop-color="#A166E5" />
            <stop offset="0.89125" stop-color="#8B57F2" />
            <stop offset="1" stop-color="#704CFF" />
        </radialGradient>
        <linearGradient
            id="paint1_linear_2025_1434"
            x1="13.0915"
            y1="13.9091"
            x2="16.6499"
            y2="17.2902"
            gradientUnits="userSpaceOnUse"
        >
            <stop stop-opacity="0" />
            <stop offset="1" />
        </linearGradient>
        <linearGradient
            id="paint2_linear_2025_1434"
            x1="19.2273"
            y1="19.2257"
            x2="22.5"
            y2="22.0894"
            gradientUnits="userSpaceOnUse"
        >
            <stop />
            <stop offset="1" stop-opacity="0" />
        </linearGradient>
    </defs>
</svg>
