<svg width="36" height="36" viewBox="0 0 36 36" fill="none" xmlns="http://www.w3.org/2000/svg">
    <g clip-path="url(#clip0_2025_1401)">
        <rect width="36" height="36" fill="#1B1340" />
        <rect width="36" height="36" fill="url(#paint0_radial_2025_1401)" fill-opacity="0.8" />
        <path
            d="M13.6156 9.77921C15.1503 8.24452 15.9177 7.47717 16.8025 7.18967C17.5808 6.93678 18.4192 6.93678 19.1976 7.18967C20.0824 7.47718 20.8498 8.24452 22.3845 9.77921L26.2208 13.6156C27.7555 15.1503 28.5229 15.9176 28.8104 16.8025C29.0633 17.5808 29.0633 18.4192 28.8104 19.1975C28.5229 20.0824 27.7555 20.8497 26.2208 22.3844L22.3845 26.2208C20.8498 27.7555 20.0824 28.5228 19.1976 28.8103C18.4192 29.0632 17.5808 29.0632 16.8025 28.8103C15.9177 28.5228 15.1503 27.7555 13.6156 26.2208L12.8943 25.4122C12.4579 24.9228 12.2396 24.6782 12.084 24.3999C11.946 24.1531 11.8448 23.8875 11.7835 23.6114C11.7144 23.3002 11.7144 22.9723 11.7144 22.3166L11.7144 13.6834C11.7144 13.0277 11.7144 12.6998 11.7835 12.3886C11.8448 12.1125 11.946 11.8469 12.084 11.6001C12.2396 11.3218 12.4579 11.0772 12.8943 10.5878L13.6156 9.77921Z"
            fill="url(#paint1_radial_2025_1401)"
        />
        <path
            d="M13.6156 9.77921C15.1503 8.24452 15.9177 7.47717 16.8025 7.18967C17.5808 6.93678 18.4192 6.93678 19.1976 7.18967C20.0824 7.47718 20.8498 8.24452 22.3845 9.77921L26.2208 13.6156C27.7555 15.1503 28.5229 15.9176 28.8104 16.8025C29.0633 17.5808 29.0633 18.4192 28.8104 19.1975C28.5229 20.0824 27.7555 20.8497 26.2208 22.3844L22.3845 26.2208C20.8498 27.7555 20.0824 28.5228 19.1976 28.8103C18.4192 29.0632 17.5808 29.0632 16.8025 28.8103C15.9177 28.5228 15.1503 27.7555 13.6156 26.2208L12.8943 25.4122C12.4579 24.9228 12.2396 24.6782 12.084 24.3999C11.946 24.1531 11.8448 23.8875 11.7835 23.6114C11.7144 23.3002 11.7144 22.9723 11.7144 22.3166L11.7144 13.6834C11.7144 13.0277 11.7144 12.6998 11.7835 12.3886C11.8448 12.1125 11.946 11.8469 12.084 11.6001C12.2396 11.3218 12.4579 11.0772 12.8943 10.5878L13.6156 9.77921Z"
            fill="url(#paint2_linear_2025_1401)"
        />
        <path
            d="M13.3416 10.053C14.1089 9.28565 14.4926 8.90198 14.935 8.75823C15.3242 8.63178 15.7434 8.63178 16.1325 8.75823C16.575 8.90198 16.9586 9.28565 17.726 10.053L23.4805 15.8075C24.2479 16.5749 24.6315 16.9586 24.7753 17.401C24.9017 17.7902 24.9017 18.2094 24.7753 18.5985C24.6315 19.041 24.2479 19.4246 23.4805 20.192L17.726 25.9465C16.9586 26.7139 16.575 27.0975 16.1325 27.2413C15.7434 27.3677 15.3242 27.3677 14.935 27.2413C14.4926 27.0975 14.1089 26.7139 13.3416 25.9465L9.77921 22.3842C8.24452 20.8495 7.47717 20.0821 7.18967 19.1973C6.93678 18.419 6.93678 17.5806 7.18967 16.8022C7.47718 15.9174 8.24452 15.15 9.77921 13.6153L13.3416 10.053Z"
            fill="url(#paint3_radial_2025_1401)"
        />
    </g>
    <defs>
        <radialGradient
            id="paint0_radial_2025_1401"
            cx="0"
            cy="0"
            r="1"
            gradientUnits="userSpaceOnUse"
            gradientTransform="translate(37.3966 45.0217) rotate(-123.279) scale(28.2138 28.5313)"
        >
            <stop stop-color="#FF74B3" />
            <stop offset="1" stop-color="#1B1340" />
        </radialGradient>
        <radialGradient
            id="paint1_radial_2025_1401"
            cx="0"
            cy="0"
            r="1"
            gradientUnits="userSpaceOnUse"
            gradientTransform="translate(13.6396 29.4288) rotate(-58.142) scale(18.3646 28.7185)"
        >
            <stop stop-color="#FFD580" />
            <stop offset="0.09375" stop-color="#F6C592" />
            <stop offset="0.205" stop-color="#EBB6A2" />
            <stop offset="0.324466" stop-color="#DFA5AF" />
            <stop offset="0.42875" stop-color="#D397BE" />
            <stop offset="0.53375" stop-color="#C486CB" />
            <stop offset="0.64875" stop-color="#B578D9" />
            <stop offset="0.77125" stop-color="#A166E5" />
            <stop offset="0.89125" stop-color="#8B57F2" />
            <stop offset="1" stop-color="#704CFF" />
        </radialGradient>
        <linearGradient
            id="paint2_linear_2025_1401"
            x1="12.8819"
            y1="2.63167"
            x2="17.1603"
            y2="28.7474"
            gradientUnits="userSpaceOnUse"
        >
            <stop stop-color="#6D4AFF" />
            <stop offset="0.392009" stop-color="#B39FFB" stop-opacity="0.978022" />
            <stop offset="1" stop-color="#FFE8DB" stop-opacity="0.8" />
        </linearGradient>
        <radialGradient
            id="paint3_radial_2025_1401"
            cx="0"
            cy="0"
            r="1"
            gradientUnits="userSpaceOnUse"
            gradientTransform="translate(12.0264 27.1924) rotate(-58.142) scale(14.7715 23.0997)"
        >
            <stop stop-color="#FFD580" />
            <stop offset="0.09375" stop-color="#F6C592" />
            <stop offset="0.205" stop-color="#EBB6A2" />
            <stop offset="0.324466" stop-color="#DFA5AF" />
            <stop offset="0.42875" stop-color="#D397BE" />
            <stop offset="0.53375" stop-color="#C486CB" />
            <stop offset="0.64875" stop-color="#B578D9" />
            <stop offset="0.77125" stop-color="#A166E5" />
            <stop offset="0.89125" stop-color="#8B57F2" />
            <stop offset="1" stop-color="#704CFF" />
        </radialGradient>
        <clipPath id="clip0_2025_1401">
            <rect width="36" height="36" fill="white" />
        </clipPath>
    </defs>
</svg>
