<svg width="36" height="36" viewBox="0 0 36 36" fill="none" xmlns="http://www.w3.org/2000/svg">
    <rect width="36" height="36" fill="url(#paint0_radial_2025_1428)" />
    <path
        d="M10.5 15.8618C10.5 15.482 10.6648 15.1218 10.9498 14.8787L17.1998 9.54661C17.6633 9.15113 18.3367 9.15113 18.8002 9.54661L25.0502 14.8787C25.3352 15.1218 25.5 15.482 25.5 15.8618V24.2203C25.5 24.9271 24.9404 25.5 24.25 25.5H19.875V19.9973C19.875 19.8559 19.7631 19.7414 19.625 19.7414H16.375C16.2369 19.7414 16.125 19.8559 16.125 19.9973V25.5H11.75C11.0596 25.5 10.5 24.9271 10.5 24.2203V15.8618Z"
        fill="white"
    />
    <defs>
        <radialGradient
            id="paint0_radial_2025_1428"
            cx="0"
            cy="0"
            r="1"
            gradientUnits="userSpaceOnUse"
            gradientTransform="translate(-1 44.5) rotate(-49.5248) scale(49.2976 78.544)"
        >
            <stop stop-color="#FFD580" />
            <stop offset="0.09375" stop-color="#F6C592" />
            <stop offset="0.205" stop-color="#EBB6A2" />
            <stop offset="0.324466" stop-color="#DFA5AF" />
            <stop offset="0.42875" stop-color="#D397BE" />
            <stop offset="0.53375" stop-color="#C486CB" />
            <stop offset="0.64875" stop-color="#B578D9" />
            <stop offset="0.77125" stop-color="#A166E5" />
            <stop offset="0.89125" stop-color="#8B57F2" />
            <stop offset="1" stop-color="#704CFF" />
        </radialGradient>
    </defs>
</svg>
