<svg width="20" height="20" viewBox="0 0 20 20" fill="none" xmlns="http://www.w3.org/2000/svg">
    <g clip-path="url(#clip0_3191_150787)">
        <path
            fill-rule="evenodd"
            clip-rule="evenodd"
            d="M16.7663 6.72127L13.2787 3.23366C12.5695 2.52441 12.0795 2.03554 11.6685 1.68665C11.2665 1.34535 11.0063 1.19713 10.7797 1.12349C10.2729 0.958838 9.72707 0.958838 9.22034 1.12349C8.99369 1.19713 8.7335 1.34535 8.33146 1.68665C7.92439 2.03223 7.43983 2.51513 6.74143 3.2135L6.10471 3.92733C5.67885 4.40476 5.57013 4.53493 5.49461 4.66997C5.41664 4.80942 5.35943 4.95951 5.32479 5.11548C5.29125 5.26652 5.28574 5.43604 5.28574 6.0758L5.28575 13.9242C5.28575 14.564 5.29126 14.7335 5.3248 14.8845C5.35943 15.0405 5.41664 15.1906 5.49462 15.33C5.57013 15.4651 5.67886 15.5952 6.10471 16.0727L6.74143 16.7865C7.43983 17.4849 7.92439 17.9678 8.33146 18.3133C8.7335 18.6547 8.99369 18.8029 9.22034 18.8765C9.72707 19.0412 10.2729 19.0412 10.7797 18.8765C11.0063 18.8029 11.2665 18.6547 11.6685 18.3133C12.0795 17.9645 12.5695 17.4756 13.2787 16.7663L16.7663 13.2787C17.4756 12.5695 17.9645 12.0795 18.3133 11.6685C18.6547 11.2665 18.8029 11.0063 18.8765 10.7797C19.0412 10.2729 19.0412 9.72708 18.8765 9.22035C18.8029 8.9937 18.6547 8.73351 18.3133 8.33146C17.9645 7.92049 17.4756 7.43053 16.7663 6.72127ZM6.01416 17.4734L6.0142 17.4735C7.40935 18.8686 8.10693 19.5662 8.91133 19.8276C9.6189 20.0575 10.3811 20.0575 11.0887 19.8276C11.8931 19.5662 12.5907 18.8686 13.9858 17.4734L17.4734 13.9858C18.8686 12.5907 19.5662 11.8931 19.8276 11.0887C20.0575 10.3811 20.0575 9.6189 19.8276 8.91133C19.5662 8.10693 18.8686 7.40934 17.4734 6.01416L13.9858 2.52656C12.5907 1.13138 11.8931 0.433796 11.0887 0.172429C10.3811 -0.0574762 9.6189 -0.0574762 8.91133 0.172429C8.10692 0.433795 7.40934 1.13138 6.01417 2.52655L6.01416 2.52656L5.35845 3.26167C4.96165 3.70652 4.76326 3.92895 4.6218 4.18192C4.49634 4.40628 4.4043 4.64776 4.34857 4.8987C4.28574 5.18165 4.28574 5.4797 4.28574 6.0758L4.28575 13.9242C4.28575 14.5203 4.28575 14.8184 4.34858 15.1013C4.4043 15.3522 4.49635 15.5937 4.62181 15.8181C4.76326 16.0711 4.96166 16.2935 5.35845 16.7383L6.01416 17.4734Z"
            fill="url(#paint0_linear_3191_150787)"
        />
        <path
            d="M5.76505 2.77548C6.46264 2.0779 6.81143 1.7291 7.21363 1.59842C7.56742 1.48347 7.94852 1.48347 8.30231 1.59842C8.70451 1.7291 9.0533 2.0779 9.75089 2.77548L14.9823 8.0069C15.6799 8.70448 16.0287 9.05328 16.1594 9.45548C16.2743 9.80926 16.2743 10.1904 16.1594 10.5441C16.0287 10.9464 15.6799 11.2951 14.9823 11.9927L9.75089 17.2241C9.0533 17.9217 8.70451 18.2705 8.3023 18.4012C7.94852 18.5162 7.56742 18.5162 7.21363 18.4012C6.81143 18.2705 6.46264 17.9217 5.76505 17.2241L2.52656 13.9856C1.13138 12.5905 0.433795 11.8929 0.172429 11.0885C-0.0574762 10.3809 -0.0574762 9.61872 0.172429 8.91114C0.433796 8.10674 1.13138 7.40915 2.52656 6.01398L5.76505 2.77548Z"
            fill="white"
        />
        <path
            d="M5.76505 2.77548C6.46264 2.0779 6.81143 1.7291 7.21363 1.59842C7.56742 1.48347 7.94852 1.48347 8.30231 1.59842C8.70451 1.7291 9.0533 2.0779 9.75089 2.77548L14.9823 8.0069C15.6799 8.70448 16.0287 9.05328 16.1594 9.45548C16.2743 9.80926 16.2743 10.1904 16.1594 10.5441C16.0287 10.9464 15.6799 11.2951 14.9823 11.9927L9.75089 17.2241C9.0533 17.9217 8.70451 18.2705 8.3023 18.4012C7.94852 18.5162 7.56742 18.5162 7.21363 18.4012C6.81143 18.2705 6.46264 17.9217 5.76505 17.2241L2.52656 13.9856C1.13138 12.5905 0.433795 11.8929 0.172429 11.0885C-0.0574762 10.3809 -0.0574762 9.61872 0.172429 8.91114C0.433796 8.10674 1.13138 7.40915 2.52656 6.01398L5.76505 2.77548Z"
            fill="url(#paint1_radial_3191_150787)"
            fill-opacity="0.3"
        />
        <path
            fill-rule="evenodd"
            clip-rule="evenodd"
            d="M14.2752 8.714L9.04378 3.48259C8.68332 3.12213 8.45495 2.89486 8.26865 2.7367C8.09128 2.58613 8.01884 2.55778 7.99329 2.54948C7.84034 2.49978 7.67559 2.49978 7.52265 2.54948C7.4971 2.55778 7.42466 2.58613 7.24729 2.7367C7.06099 2.89486 6.83262 3.12213 6.47216 3.48259L3.23366 6.72108C2.52441 7.43034 2.03554 7.9203 1.68665 8.33127C1.34535 8.73332 1.19713 8.99351 1.12349 9.22016C0.958838 9.72689 0.958838 10.2727 1.12349 10.7795C1.19713 11.0061 1.34535 11.2663 1.68665 11.6683C2.03554 12.0793 2.52441 12.5693 3.23366 13.2785L6.47216 16.517C6.83262 16.8775 7.06099 17.1048 7.24729 17.2629C7.42466 17.4135 7.4971 17.4418 7.52265 17.4501C7.67559 17.4998 7.84034 17.4998 7.99329 17.4501C8.01884 17.4418 8.09128 17.4135 8.26865 17.2629C8.45495 17.1048 8.68332 16.8775 9.04378 16.517L14.2752 11.2856C14.6357 10.9252 14.8629 10.6968 15.0211 10.5105C15.1717 10.3331 15.2 10.2607 15.2083 10.2351C15.258 10.0822 15.258 9.91744 15.2083 9.76449C15.2 9.73895 15.1717 9.6665 15.0211 9.48913C14.8629 9.30283 14.6357 9.07446 14.2752 8.714ZM7.21363 1.59842C6.81143 1.7291 6.46264 2.0779 5.76505 2.77548L2.52656 6.01398C1.13138 7.40915 0.433796 8.10674 0.172429 8.91114C-0.0574762 9.61872 -0.0574762 10.3809 0.172429 11.0885C0.433796 11.8929 1.13138 12.5905 2.52656 13.9856L5.76505 17.2241C6.46262 17.9217 6.81143 18.2705 7.21363 18.4012C7.56742 18.5162 7.94852 18.5162 8.3023 18.4012C8.70451 18.2705 9.0533 17.9217 9.75089 17.2241L14.9823 11.9927C15.6799 11.2951 16.0287 10.9464 16.1594 10.5441C16.2743 10.1904 16.2743 9.80927 16.1594 9.45548C16.0287 9.05328 15.6799 8.70448 14.9823 8.0069L9.75089 2.77548C9.05331 2.07791 8.70451 1.7291 8.30231 1.59842C7.94852 1.48347 7.56742 1.48347 7.21363 1.59842Z"
            fill="url(#paint2_linear_3191_150787)"
        />
    </g>
    <defs>
        <linearGradient
            id="paint0_linear_3191_150787"
            x1="16.0691"
            y1="7.42968"
            x2="9.12982"
            y2="16.925"
            gradientUnits="userSpaceOnUse"
        >
            <stop stop-color="#714DFF" />
            <stop offset="0.460124" stop-color="#B679D9" />
            <stop offset="1" stop-color="#F1A987" />
        </linearGradient>
        <radialGradient
            id="paint1_radial_3191_150787"
            cx="0"
            cy="0"
            r="1"
            gradientUnits="userSpaceOnUse"
            gradientTransform="translate(4.56948 18.3568) rotate(-58.142) scale(13.4287 20.9997)"
        >
            <stop stop-color="#FFD580" />
            <stop offset="0.09375" stop-color="#F6C592" />
            <stop offset="0.205" stop-color="#EBB6A2" />
            <stop offset="0.324466" stop-color="#DFA5AF" />
            <stop offset="0.42875" stop-color="#D397BE" />
            <stop offset="0.53375" stop-color="#C486CB" />
            <stop offset="0.64875" stop-color="#B578D9" />
            <stop offset="0.77125" stop-color="#A166E5" />
            <stop offset="0.89125" stop-color="#8B57F2" />
            <stop offset="1" stop-color="#704CFF" />
        </radialGradient>
        <linearGradient
            id="paint2_linear_3191_150787"
            x1="11.2272"
            y1="5.09085"
            x2="7.54541"
            y2="18.9999"
            gradientUnits="userSpaceOnUse"
        >
            <stop stop-color="#714DFF" />
            <stop offset="0.451996" stop-color="#A559D1" />
            <stop offset="1" stop-color="#F2AA88" />
        </linearGradient>
        <clipPath id="clip0_3191_150787">
            <rect width="20" height="20" fill="white" />
        </clipPath>
    </defs>
</svg>
