<svg width="44" height="44" viewBox="0 0 44 44" fill="none" xmlns="http://www.w3.org/2000/svg">
    <g clip-path="url(#clip0_2_3)">
        <rect width="44" height="44" fill="url(#paint0_radial_2_3)" />
        <path
            d="M13 19.4341C13 18.9784 13.1977 18.5462 13.5397 18.2544L21.0397 11.8559C21.596 11.3814 22.404 11.3814 22.9603 11.8559L30.4603 18.2544C30.8023 18.5462 31 18.9784 31 19.4341V29.4644C31 30.3125 30.3284 31 29.5 31H24.25V24.3967C24.25 24.2271 24.1157 24.0896 23.95 24.0896H20.05C19.8843 24.0896 19.75 24.2271 19.75 24.3967V31H14.5C13.6716 31 13 30.3125 13 29.4644V19.4341Z"
            fill="white"
        />
    </g>
    <defs>
        <radialGradient
            id="paint0_radial_2_3"
            cx="0"
            cy="0"
            r="1"
            gradientUnits="userSpaceOnUse"
            gradientTransform="translate(44.1559 -6.10897) scale(55.9652 44.2853)"
        >
            <stop stop-color="#A995FF" />
            <stop offset="1" stop-color="#6652F5" />
        </radialGradient>
        <clipPath id="clip0_2_3">
            <rect width="44" height="44" fill="white" />
        </clipPath>
    </defs>
</svg>
