<svg width="20" height="20" viewBox="0 0 20 20" fill="none" xmlns="http://www.w3.org/2000/svg">
    <g clip-path="url(#clip0_3191_150794)">
        <path
            fill-rule="evenodd"
            clip-rule="evenodd"
            d="M2.40818 1.99694C1.38881 1.87771 0.668082 2.96984 1.17856 3.8602L9.10774 17.6902C9.52554 18.4189 10.5656 18.4493 11.0253 17.7463L18.8736 5.74294C19.3818 4.96566 18.895 3.92522 17.9726 3.81734L2.40818 1.99694ZM2.52435 1.00371C0.689477 0.789102 -0.607832 2.75493 0.311027 4.35759L8.24021 18.1875C9.02938 19.564 10.994 19.6215 11.8623 18.2935L19.7106 6.29019C20.6254 4.89109 19.7491 3.0183 18.0888 2.82411L2.52435 1.00371Z"
            fill="#6D4AFF"
        />
        <path
            fill-rule="evenodd"
            clip-rule="evenodd"
            d="M2.40818 1.99694C1.38881 1.87771 0.668082 2.96984 1.17856 3.8602L9.10774 17.6902C9.52554 18.4189 10.5656 18.4493 11.0253 17.7463L18.8736 5.74294C19.3818 4.96566 18.895 3.92522 17.9726 3.81734L2.40818 1.99694ZM2.52435 1.00371C0.689477 0.789102 -0.607832 2.75493 0.311027 4.35759L8.24021 18.1875C9.02938 19.564 10.994 19.6215 11.8623 18.2935L19.7106 6.29019C20.6254 4.89109 19.7491 3.0183 18.0888 2.82411L2.52435 1.00371Z"
            fill="url(#paint0_linear_3191_150794)"
        />
        <path
            d="M0.23608 4.21606L13.0335 5.89442C14.3207 6.06323 14.9824 7.52561 14.2596 8.60397L8.05364 17.862L0.23608 4.21606Z"
            fill="#6D4AFF"
            fill-opacity="0.3"
        />
        <path
            d="M0.23608 4.21606L13.0335 5.89442C14.3207 6.06323 14.9824 7.52561 14.2596 8.60397L8.05364 17.862L0.23608 4.21606Z"
            fill="url(#paint1_linear_3191_150794)"
            fill-opacity="0.3"
        />
        <path
            fill-rule="evenodd"
            clip-rule="evenodd"
            d="M0.23608 4.21606L8.05364 17.862L14.2596 8.60397C14.9824 7.52561 14.3207 6.06323 13.0335 5.89442L0.23608 4.21606ZM2.1069 5.46998L8.12028 15.9667L13.4289 8.04717C13.7387 7.58501 13.4551 6.95828 12.9035 6.88593L2.1069 5.46998Z"
            fill="#6D4AFF"
        />
        <path
            fill-rule="evenodd"
            clip-rule="evenodd"
            d="M0.23608 4.21606L8.05364 17.862L14.2596 8.60397C14.9824 7.52561 14.3207 6.06323 13.0335 5.89442L0.23608 4.21606ZM2.1069 5.46998L8.12028 15.9667L13.4289 8.04717C13.7387 7.58501 13.4551 6.95828 12.9035 6.88593L2.1069 5.46998Z"
            fill="url(#paint2_linear_3191_150794)"
        />
    </g>
    <defs>
        <linearGradient
            id="paint0_linear_3191_150794"
            x1="8.08627"
            y1="-0.640415"
            x2="9.36552"
            y2="19.4481"
            gradientUnits="userSpaceOnUse"
        >
            <stop offset="0.172059" stop-color="#24ECC6" stop-opacity="0" />
            <stop offset="1" stop-color="#24ECC6" />
        </linearGradient>
        <linearGradient
            id="paint1_linear_3191_150794"
            x1="7"
            y1="5.5"
            x2="7.39696"
            y2="17.862"
            gradientUnits="userSpaceOnUse"
        >
            <stop offset="0.215692" stop-color="#24ECC6" stop-opacity="0" />
            <stop offset="1" stop-color="#24ECC6" />
        </linearGradient>
        <linearGradient id="paint2_linear_3191_150794" x1="6" y1="3" x2="7" y2="18" gradientUnits="userSpaceOnUse">
            <stop offset="0.40625" stop-color="#24ECC6" stop-opacity="0" />
            <stop offset="1" stop-color="#24ECC6" />
        </linearGradient>
        <clipPath id="clip0_3191_150794">
            <rect width="20" height="20" fill="white" />
        </clipPath>
    </defs>
</svg>
