<svg width="36" height="36" viewBox="0 0 36 36" fill="none" xmlns="http://www.w3.org/2000/svg">
    <g clip-path="url(#clip0_2025_1386)">
        <rect width="36" height="36" fill="#1B1340" />
        <rect width="36" height="36" fill="url(#paint0_radial_2025_1386)" fill-opacity="0.8" />
        <path
            fill-rule="evenodd"
            clip-rule="evenodd"
            d="M15.8369 26.7462C16.673 28.2493 18.8202 28.3307 19.7694 26.8953L28.6208 13.511C29.5594 12.0916 28.6613 10.1886 26.9616 9.99524L9.56399 8.01572C7.70916 7.80467 6.3885 9.76048 7.29068 11.3824L7.36143 11.5089L15.1243 16.8282L15.03 25.2903L15.8369 26.7462Z"
            fill="url(#paint1_linear_2025_1386)"
        />
        <path
            d="M16.3354 25.3442L17.1209 24.1726L23.0878 15.1593C23.6095 14.3712 23.1116 13.3141 22.1677 13.2057L7.35938 11.5056L15.0305 25.2964C15.3105 25.79 16.0183 25.8171 16.3354 25.3442Z"
            fill="url(#paint2_radial_2025_1386)"
        />
    </g>
    <defs>
        <radialGradient
            id="paint0_radial_2025_1386"
            cx="0"
            cy="0"
            r="1"
            gradientUnits="userSpaceOnUse"
            gradientTransform="translate(37.3966 45.0217) rotate(-123.279) scale(28.2138 28.5313)"
        >
            <stop stop-color="#27DDB1" />
            <stop offset="1" stop-color="#1B1340" />
        </radialGradient>
        <linearGradient
            id="paint1_linear_2025_1386"
            x1="26.8943"
            y1="26.7452"
            x2="12.7384"
            y2="2.3331"
            gradientUnits="userSpaceOnUse"
        >
            <stop offset="0.0660125" stop-color="#8EFFEE" />
            <stop offset="0.4499" stop-color="#C9C7FF" />
            <stop offset="1" stop-color="#7341FF" />
        </linearGradient>
        <radialGradient
            id="paint2_radial_2025_1386"
            cx="0"
            cy="0"
            r="1"
            gradientUnits="userSpaceOnUse"
            gradientTransform="translate(16.3558 5.19232) rotate(93.7553) scale(22.4617 28.9668)"
        >
            <stop offset="0.403126" stop-color="#6D4AFF" />
            <stop offset="0.9944" stop-color="#00F0C3" />
        </radialGradient>
        <clipPath id="clip0_2025_1386">
            <rect width="36" height="36" fill="white" />
        </clipPath>
    </defs>
</svg>
