<svg width="36" height="36" viewBox="0 0 36 36" fill="none" xmlns="http://www.w3.org/2000/svg">
    <rect width="36" height="36" fill="white" />
    <g clip-path="url(#clip0_2025_1577)">
        <path
            d="M5.17542 8.13202C5.19259 8.16724 5.21114 8.20227 5.23109 8.23708L10.9827 18.269L15.5929 11.3916C16.1298 10.5905 15.6383 9.5042 14.6821 9.3788L5.17542 8.13202Z"
            fill="url(#paint0_linear_2025_1577)"
        />
        <path
            d="M5.17542 8.13202C5.19259 8.16724 5.21114 8.20227 5.23109 8.23708L10.9827 18.269L15.5929 11.3916C16.1298 10.5905 15.6383 9.5042 14.6821 9.3788L5.17542 8.13202Z"
            fill="url(#paint1_linear_2025_1577)"
        />
        <path
            d="M5.17536 8.13198L14.682 9.37875C15.6382 9.50416 16.1298 10.5905 15.5928 11.3916L10.9827 18.269L11.1213 18.5107C11.7075 19.5332 13.1669 19.5759 13.8119 18.5894L19.6421 9.67268C20.3217 8.63335 19.6707 7.24214 18.4374 7.09788L6.87521 5.74559C5.55201 5.59082 4.60514 6.96249 5.17536 8.13198Z"
            fill="url(#paint2_linear_2025_1577)"
        />
    </g>
    <g clip-path="url(#clip1_2025_1577)">
        <path
            d="M19.682 18.0197C20.7185 16.9833 21.2367 16.4651 21.8342 16.2709C22.3598 16.1001 22.926 16.1001 23.4517 16.2709C24.0492 16.4651 24.5674 16.9833 25.6038 18.0197L28.1946 20.6105C29.2311 21.6469 29.7493 22.1651 29.9434 22.7627C30.1142 23.2883 30.1142 23.8545 29.9434 24.3801C29.7493 24.9777 29.231 25.4959 28.1946 26.5323L25.6038 29.1231C24.5674 30.1595 24.0492 30.6777 23.4517 30.8719C22.926 31.0427 22.3598 31.0427 21.8342 30.8719C21.2367 30.6777 20.7185 30.1595 19.682 29.1231L19.1949 28.577C18.9002 28.2465 18.7528 28.0813 18.6477 27.8934C18.5545 27.7267 18.4861 27.5473 18.4447 27.3609C18.3981 27.1507 18.3981 26.9293 18.3981 26.4865L18.3981 20.6563C18.3981 20.2135 18.3981 19.992 18.4447 19.7819C18.4861 19.5954 18.5545 19.4161 18.6477 19.2494C18.7528 19.0615 18.9002 18.8962 19.1949 18.5658L19.682 18.0197Z"
            fill="url(#paint3_radial_2025_1577)"
        />
        <path
            d="M19.682 18.0197C20.7185 16.9833 21.2367 16.4651 21.8342 16.2709C22.3598 16.1001 22.926 16.1001 23.4517 16.2709C24.0492 16.4651 24.5674 16.9833 25.6038 18.0197L28.1946 20.6105C29.2311 21.6469 29.7493 22.1651 29.9434 22.7627C30.1142 23.2883 30.1142 23.8545 29.9434 24.3801C29.7493 24.9777 29.231 25.4959 28.1946 26.5323L25.6038 29.1231C24.5674 30.1595 24.0492 30.6777 23.4517 30.8719C22.926 31.0427 22.3598 31.0427 21.8342 30.8719C21.2367 30.6777 20.7185 30.1595 19.682 29.1231L19.1949 28.577C18.9002 28.2465 18.7528 28.0813 18.6477 27.8934C18.5545 27.7267 18.4861 27.5473 18.4447 27.3609C18.3981 27.1507 18.3981 26.9293 18.3981 26.4865L18.3981 20.6563C18.3981 20.2135 18.3981 19.992 18.4447 19.7819C18.4861 19.5954 18.5545 19.4161 18.6477 19.2494C18.7528 19.0615 18.9002 18.8962 19.1949 18.5658L19.682 18.0197Z"
            fill="url(#paint4_linear_2025_1577)"
        />
        <path
            d="M19.497 18.2046C20.0152 17.6864 20.2743 17.4273 20.573 17.3302C20.8359 17.2448 21.119 17.2448 21.3818 17.3302C21.6806 17.4273 21.9397 17.6864 22.4579 18.2046L26.344 22.0908C26.8623 22.609 27.1214 22.8681 27.2184 23.1669C27.3038 23.4297 27.3038 23.7128 27.2184 23.9756C27.1214 24.2744 26.8623 24.5335 26.344 25.0517L22.4579 28.9379C21.9397 29.4561 21.6806 29.7152 21.3818 29.8123C21.119 29.8977 20.8359 29.8977 20.573 29.8123C20.2743 29.7152 20.0152 29.4561 19.497 28.9379L17.0912 26.5322C16.0548 25.4957 15.5366 24.9775 15.3424 24.38C15.1717 23.8544 15.1717 23.2881 15.3424 22.7625C15.5366 22.165 16.0548 21.6468 17.0912 20.6103L19.497 18.2046Z"
            fill="url(#paint5_radial_2025_1577)"
        />
    </g>
    <defs>
        <linearGradient
            id="paint0_linear_2025_1577"
            x1="13.1984"
            y1="-2.49121"
            x2="13.7029"
            y2="14.7089"
            gradientUnits="userSpaceOnUse"
        >
            <stop offset="0.988738" stop-color="#6D4AFF" />
        </linearGradient>
        <linearGradient
            id="paint1_linear_2025_1577"
            x1="13.2976"
            y1="-0.110107"
            x2="9.10427"
            y2="17.9954"
            gradientUnits="userSpaceOnUse"
        >
            <stop offset="0.47989" stop-color="#24ECC6" stop-opacity="0" />
            <stop offset="0.994421" stop-color="#24ECC6" />
        </linearGradient>
        <linearGradient
            id="paint2_linear_2025_1577"
            x1="14.6921"
            y1="19.9733"
            x2="5.38395"
            y2="4.01028"
            gradientUnits="userSpaceOnUse"
        >
            <stop offset="0.0660125" stop-color="#ABFFEF" />
            <stop offset="0.44988" stop-color="#CAC9FF" />
            <stop offset="1" stop-color="#6D4AFF" />
        </linearGradient>
        <radialGradient
            id="paint3_radial_2025_1577"
            cx="0"
            cy="0"
            r="1"
            gradientUnits="userSpaceOnUse"
            gradientTransform="translate(19.6983 31.2895) rotate(-58.142) scale(12.4021 19.3943)"
        >
            <stop stop-color="#FFD580" />
            <stop offset="0.09375" stop-color="#F6C592" />
            <stop offset="0.205" stop-color="#EBB6A2" />
            <stop offset="0.324466" stop-color="#DFA5AF" />
            <stop offset="0.42875" stop-color="#D397BE" />
            <stop offset="0.53375" stop-color="#C486CB" />
            <stop offset="0.64875" stop-color="#B578D9" />
            <stop offset="0.77125" stop-color="#A166E5" />
            <stop offset="0.89125" stop-color="#8B57F2" />
            <stop offset="1" stop-color="#704CFF" />
        </radialGradient>
        <linearGradient
            id="paint4_linear_2025_1577"
            x1="19.1866"
            y1="13.1928"
            x2="22.0758"
            y2="30.8294"
            gradientUnits="userSpaceOnUse"
        >
            <stop stop-color="#6D4AFF" />
            <stop offset="0.392009" stop-color="#B39FFB" stop-opacity="0.978022" />
            <stop offset="1" stop-color="#FFE8DB" stop-opacity="0.8" />
        </linearGradient>
        <radialGradient
            id="paint5_radial_2025_1577"
            cx="0"
            cy="0"
            r="1"
            gradientUnits="userSpaceOnUse"
            gradientTransform="translate(18.6088 29.7793) rotate(-58.142) scale(9.97558 15.5998)"
        >
            <stop stop-color="#FFD580" />
            <stop offset="0.09375" stop-color="#F6C592" />
            <stop offset="0.205" stop-color="#EBB6A2" />
            <stop offset="0.324466" stop-color="#DFA5AF" />
            <stop offset="0.42875" stop-color="#D397BE" />
            <stop offset="0.53375" stop-color="#C486CB" />
            <stop offset="0.64875" stop-color="#B578D9" />
            <stop offset="0.77125" stop-color="#A166E5" />
            <stop offset="0.89125" stop-color="#8B57F2" />
            <stop offset="1" stop-color="#704CFF" />
        </radialGradient>
        <clipPath id="clip0_2025_1577">
            <rect width="14.8571" height="14.8571" fill="white" transform="translate(5 5)" />
        </clipPath>
        <clipPath id="clip1_2025_1577">
            <rect width="14.8571" height="14.8571" fill="white" transform="translate(15.2144 16.1428)" />
        </clipPath>
    </defs>
</svg>
