<svg width="384" height="200" viewBox="0 0 384 200" fill="none" xmlns="http://www.w3.org/2000/svg">
    <g clip-path="url(#clip0_8436_239070)">
        <rect width="384" height="200" rx="16" fill="url(#paint0_linear_8436_239070)" />
        <path
            d="M334.636 131.94L347.694 67.6889C348.026 66.0576 347.301 64.3814 345.885 63.5065C309.557 41.0649 286.832 36.4004 246.844 43.3084C245.233 43.5868 243.951 44.8349 243.625 46.4378L230.56 110.723C230.399 111.514 230.476 112.323 230.801 113.061C232.774 117.546 240.43 134.346 248.172 143.248C255.904 152.139 269.857 161.061 272.866 162.936C273.256 163.179 273.678 163.341 274.129 163.433L275.147 163.64C275.606 163.733 276.066 163.747 276.528 163.671C280.007 163.1 295.905 160.29 306.259 155.094C316.662 149.873 330.043 137.326 333.532 133.969C334.103 133.42 334.478 132.716 334.636 131.94Z"
            fill="url(#paint1_linear_8436_239070)"
            fill-opacity="0.5"
        />
        <path
            d="M157.487 100.061L147.49 44.96C147.193 43.322 145.903 42.0348 144.263 41.7497C108.351 35.5075 88.7019 39.0323 59.1608 57.1267C57.766 57.981 57.0429 59.6134 57.3349 61.2228L67.3382 116.358C67.4823 117.152 67.8577 117.879 68.4342 118.444C71.6299 121.574 82.9516 132.352 91.8796 136.943C100.822 141.542 114.651 144.216 117.858 144.795C118.31 144.877 118.769 144.872 119.222 144.79L119.914 144.665C120.374 144.581 120.815 144.418 121.215 144.176C123.991 142.497 135.638 135.24 142.195 127.849C148.77 120.438 155.386 106.384 157.212 102.359C157.539 101.638 157.629 100.841 157.487 100.061Z"
            fill="url(#paint2_linear_8436_239070)"
            fill-opacity="0.2"
        />
        <path
            fill-rule="evenodd"
            clip-rule="evenodd"
            d="M138.06 29.5608C187.162 10.5433 217.599 10.6031 269.621 29.6565C272.133 30.5765 273.802 32.9823 273.802 35.6573V120.794C273.802 122.067 273.427 123.308 272.702 124.355C268.783 130.012 255.101 149.162 243.271 158.451C231.456 167.727 212.093 175.427 207.374 177.23C206.671 177.499 205.928 177.631 205.175 177.631H204.217C203.478 177.631 202.745 177.504 202.053 177.245C197.288 175.46 177.366 167.702 165.243 158.399C153.151 149.121 139.169 130.004 135.14 124.322C134.39 123.264 134 122.001 134 120.704V35.5114C134 32.8832 135.609 30.5102 138.06 29.5608ZM172.566 114.963C174.106 125.789 187.187 134.246 203.098 134.246C219.008 134.246 232.089 125.789 233.629 114.963H172.566ZM172.566 71.5759C165.03 71.5759 158.834 76.5087 158.104 82.8243H187.029C186.299 76.5087 180.103 71.5759 172.566 71.5759ZM233.629 71.5759C226.093 71.5759 219.896 76.5087 219.167 82.8243H248.091C247.362 76.5087 241.166 71.5759 233.629 71.5759Z"
            fill="url(#paint3_linear_8436_239070)"
        />
        <path
            fill-rule="evenodd"
            clip-rule="evenodd"
            d="M204.705 15.3496C224.33 15.6653 244.449 20.4384 269.622 29.658C272.133 30.578 273.802 32.984 273.802 35.6589V120.795C273.802 122.069 273.427 123.31 272.702 124.356C268.783 130.013 255.102 149.163 243.271 158.453C231.456 167.729 212.093 175.429 207.374 177.232C206.672 177.5 205.928 177.632 205.176 177.632H204.705V134.217C219.881 133.67 232.142 125.424 233.629 114.964H204.705V15.3496ZM233.629 71.5775C226.093 71.5775 219.897 76.5104 219.167 82.8259H248.091C247.362 76.5104 241.166 71.5775 233.629 71.5775Z"
            fill="url(#paint4_linear_8436_239070)"
        />
        <path
            d="M270.091 136.038L267.568 135.108L266.407 134.679L265.977 133.519L265.045 131L264.114 133.519L263.684 134.679L262.523 135.108L260 136.038L262.523 136.969L263.684 137.398L264.114 138.558L265.045 141.077L265.977 138.558L266.407 137.398L267.568 136.969L270.091 136.038Z"
            fill="url(#paint5_linear_8436_239070)"
            fill-opacity="0.8"
        />
        <path
            d="M260.091 87.0385L257.568 86.1081L256.407 85.6786L255.977 84.5192L255.045 82L254.114 84.5192L253.684 85.6786L252.523 86.1081L250 87.0385L252.523 87.9689L253.684 88.3983L254.114 89.5577L255.045 92.0769L255.977 89.5577L256.407 88.3983L257.568 87.9689L260.091 87.0385Z"
            fill="url(#paint6_linear_8436_239070)"
            fill-opacity="0.8"
        />
        <path
            d="M55 82L50 80.1534L47.6989 79.3011L46.8466 77L45 72L43.1534 77L42.3011 79.3011L40 80.1534L35 82L40 83.8466L42.3011 84.6989L43.1534 87L45 92L46.8466 87L47.6989 84.6989L50 83.8466L55 82Z"
            fill="url(#paint7_linear_8436_239070)"
            fill-opacity="0.8"
        />
        <path
            d="M75 63L72.5 62.0767L71.3494 61.6506L70.9233 60.5L70 58L69.0767 60.5L68.6506 61.6506L67.5 62.0767L65 63L67.5 63.9233L68.6506 64.3494L69.0767 65.5L70 68L70.9233 65.5L71.3494 64.3494L72.5 63.9233L75 63Z"
            fill="url(#paint8_linear_8436_239070)"
            fill-opacity="0.8"
        />
        <path
            d="M297.091 70.0385L294.568 69.1081L293.407 68.6786L292.977 67.5192L292.045 65L291.114 67.5192L290.684 68.6786L289.523 69.1081L287 70.0385L289.523 70.9689L290.684 71.3983L291.114 72.5577L292.045 75.0769L292.977 72.5577L293.407 71.3983L294.568 70.9689L297.091 70.0385Z"
            fill="url(#paint9_linear_8436_239070)"
            fill-opacity="0.8"
        />
        <path
            d="M169.182 103.077L164.136 101.216L161.814 100.357L160.954 98.0385L159.091 93L157.228 98.0385L156.368 100.357L154.045 101.216L149 103.077L154.045 104.938L156.368 105.797L157.228 108.115L159.091 113.154L160.954 108.115L161.814 105.797L164.136 104.938L169.182 103.077Z"
            fill="url(#paint10_linear_8436_239070)"
            fill-opacity="0.8"
        />
        <g filter="url(#filter0_d_8436_239070)">
            <path
                d="M113.028 106.307C127.925 106.307 140.002 94.1498 140.002 79.1534C140.002 64.157 127.925 52 113.028 52C98.1313 52 86.055 64.157 86.055 79.1534C86.055 94.1498 98.1313 106.307 113.028 106.307Z"
                fill="url(#paint11_linear_8436_239070)"
            />
            <path
                d="M75.6427 183C59.5533 183 48.6693 165.374 56.714 151.559C67.598 131.551 88.8927 117.737 113.5 117.737C138.107 117.737 158.929 131.075 170.286 151.559C178.331 165.85 167.447 183 151.357 183H75.6427Z"
                fill="url(#paint12_linear_8436_239070)"
            />
        </g>
    </g>
    <defs>
        <filter
            id="filter0_d_8436_239070"
            x="38"
            y="40"
            width="151"
            height="163"
            filterUnits="userSpaceOnUse"
            color-interpolation-filters="sRGB"
        >
            <feFlood flood-opacity="0" result="BackgroundImageFix" />
            <feColorMatrix
                in="SourceAlpha"
                type="matrix"
                values="0 0 0 0 0 0 0 0 0 0 0 0 0 0 0 0 0 0 127 0"
                result="hardAlpha"
            />
            <feOffset dy="4" />
            <feGaussianBlur stdDeviation="8" />
            <feComposite in2="hardAlpha" operator="out" />
            <feColorMatrix type="matrix" values="0 0 0 0 0.32317 0 0 0 0 0.155642 0 0 0 0 0.679167 0 0 0 0.3 0" />
            <feBlend mode="normal" in2="BackgroundImageFix" result="effect1_dropShadow_8436_239070" />
            <feBlend mode="normal" in="SourceGraphic" in2="effect1_dropShadow_8436_239070" result="shape" />
        </filter>
        <linearGradient
            id="paint0_linear_8436_239070"
            x1="202.752"
            y1="-6.04314e-06"
            x2="202.752"
            y2="200"
            gradientUnits="userSpaceOnUse"
        >
            <stop stop-color="#EEBEFF" />
            <stop offset="1" stop-color="#B383FF" />
        </linearGradient>
        <linearGradient
            id="paint1_linear_8436_239070"
            x1="298.604"
            y1="42.5775"
            x2="274.045"
            y2="163.416"
            gradientUnits="userSpaceOnUse"
        >
            <stop stop-color="#6D4AFF" />
            <stop offset="1" stop-color="#B255FD" />
        </linearGradient>
        <linearGradient
            id="paint2_linear_8436_239070"
            x1="100.069"
            y1="40.1765"
            x2="119.055"
            y2="144.82"
            gradientUnits="userSpaceOnUse"
        >
            <stop stop-color="#6D4AFF" />
            <stop offset="1" stop-color="#B255FD" />
        </linearGradient>
        <linearGradient
            id="paint3_linear_8436_239070"
            x1="203.901"
            y1="15.332"
            x2="203.901"
            y2="177.631"
            gradientUnits="userSpaceOnUse"
        >
            <stop stop-color="#8C89FF" />
            <stop offset="1" stop-color="#6D4AFF" />
        </linearGradient>
        <linearGradient
            id="paint4_linear_8436_239070"
            x1="239.253"
            y1="37.8307"
            x2="239.253"
            y2="177.632"
            gradientUnits="userSpaceOnUse"
        >
            <stop stop-color="#735EFF" />
            <stop offset="1" stop-color="#5339B5" />
        </linearGradient>
        <linearGradient
            id="paint5_linear_8436_239070"
            x1="265.074"
            y1="131"
            x2="265.074"
            y2="141.049"
            gradientUnits="userSpaceOnUse"
        >
            <stop stop-color="#F9E6FF" />
            <stop offset="1" stop-color="#CEC5F6" />
        </linearGradient>
        <linearGradient
            id="paint6_linear_8436_239070"
            x1="255.074"
            y1="82"
            x2="255.074"
            y2="92.0486"
            gradientUnits="userSpaceOnUse"
        >
            <stop stop-color="#F9E6FF" />
            <stop offset="1" stop-color="#CEC5F6" />
        </linearGradient>
        <linearGradient
            id="paint7_linear_8436_239070"
            x1="45.0563"
            y1="72"
            x2="45.0563"
            y2="91.9439"
            gradientUnits="userSpaceOnUse"
        >
            <stop stop-color="#F9E6FF" />
            <stop offset="1" stop-color="#CEC5F6" />
        </linearGradient>
        <linearGradient
            id="paint8_linear_8436_239070"
            x1="70.0282"
            y1="58"
            x2="70.0282"
            y2="67.9719"
            gradientUnits="userSpaceOnUse"
        >
            <stop stop-color="#F9E6FF" />
            <stop offset="1" stop-color="#CEC5F6" />
        </linearGradient>
        <linearGradient
            id="paint9_linear_8436_239070"
            x1="292.074"
            y1="65"
            x2="292.074"
            y2="75.0486"
            gradientUnits="userSpaceOnUse"
        >
            <stop stop-color="#F9E6FF" />
            <stop offset="1" stop-color="#CEC5F6" />
        </linearGradient>
        <linearGradient
            id="paint10_linear_8436_239070"
            x1="159.148"
            y1="93"
            x2="159.148"
            y2="113.097"
            gradientUnits="userSpaceOnUse"
        >
            <stop stop-color="#F9E6FF" />
            <stop offset="1" stop-color="#CEC5F6" />
        </linearGradient>
        <linearGradient
            id="paint11_linear_8436_239070"
            x1="113.835"
            y1="52"
            x2="113.835"
            y2="182.632"
            gradientUnits="userSpaceOnUse"
        >
            <stop stop-color="#FEFAFF" />
            <stop offset="1" stop-color="#DBD2FF" />
        </linearGradient>
        <linearGradient
            id="paint12_linear_8436_239070"
            x1="113.835"
            y1="52"
            x2="113.835"
            y2="182.632"
            gradientUnits="userSpaceOnUse"
        >
            <stop stop-color="#FEFAFF" />
            <stop offset="1" stop-color="#DBD2FF" />
        </linearGradient>
        <clipPath id="clip0_8436_239070">
            <rect width="384" height="200" rx="16" fill="white" />
        </clipPath>
    </defs>
</svg>
