<svg width="80" height="80" viewBox="0 0 80 80" fill="none" xmlns="http://www.w3.org/2000/svg">
    <rect width="80" height="80" rx="20" fill="url(#paint0_linear_8436_240932)" fill-opacity="0.09" />
    <path d="M44.8613 33.75H63.6113V60.8333H44.8613V33.75Z" fill="url(#paint1_linear_8436_240932)" />
    <path d="M44.8613 33.75H63.6113V60.8333H44.8613V33.75Z" fill="url(#paint2_linear_8436_240932)" fill-opacity="0.2" />
    <path d="M25.4165 19.8613H47.6387V60.8335H25.4165V19.8613Z" fill="url(#paint3_linear_8436_240932)" />
    <path
        d="M33.7329 40.6943C34.5095 40.6944 35.1392 41.324 35.1392 42.1006V44.8438C35.1389 45.6202 34.5094 46.2499 33.7329 46.25H30.9897C30.2132 46.25 29.5837 45.6202 29.5835 44.8438V42.1006C29.5835 41.3239 30.2131 40.6943 30.9897 40.6943H33.7329ZM42.0659 40.6943C42.8426 40.6943 43.4722 41.3239 43.4722 42.1006V44.8438C43.4719 45.6202 42.8424 46.25 42.0659 46.25H39.3228C38.5464 46.2498 37.9167 45.6201 37.9165 44.8438V42.1006C37.9165 41.324 38.5463 40.6945 39.3228 40.6943H42.0659ZM33.7329 32.3604C34.5094 32.3604 35.139 32.9901 35.1392 33.7666V36.5098C35.1392 37.2864 34.5095 37.916 33.7329 37.916H30.9897C30.2131 37.916 29.5835 37.2864 29.5835 36.5098V33.7666C29.5837 32.9901 30.2132 32.3604 30.9897 32.3604H33.7329ZM42.0659 32.3604C42.8425 32.3604 43.472 32.9901 43.4722 33.7666V36.5098C43.4722 37.2864 42.8426 37.916 42.0659 37.916H39.3228C38.5463 37.9158 37.9165 37.2863 37.9165 36.5098V33.7666C37.9167 32.9902 38.5464 32.3605 39.3228 32.3604H42.0659ZM33.7329 24.0273C34.5095 24.0274 35.1392 24.657 35.1392 25.4336V28.1768C35.1391 28.9533 34.5095 29.5829 33.7329 29.583H30.9897C30.2131 29.583 29.5836 28.9534 29.5835 28.1768V25.4336C29.5835 24.6569 30.2131 24.0273 30.9897 24.0273H33.7329ZM42.0659 24.0273C42.8426 24.0273 43.4722 24.6569 43.4722 25.4336V28.1768C43.4721 28.9534 42.8425 29.583 42.0659 29.583H39.3228C38.5463 29.5828 37.9166 28.9532 37.9165 28.1768V25.4336C37.9165 24.6571 38.5463 24.0275 39.3228 24.0273H42.0659Z"
        fill="url(#paint4_linear_8436_240932)"
    />
    <path
        d="M53.5415 49.7227C54.1168 49.7227 54.5835 50.1894 54.5835 50.7646V52.8477C54.5835 53.423 54.1168 53.8896 53.5415 53.8896H51.4585C50.8832 53.8896 50.4165 53.423 50.4165 52.8477V50.7646C50.4165 50.1894 50.8832 49.7227 51.4585 49.7227H53.5415ZM59.7915 49.7227C60.3668 49.7227 60.8335 50.1894 60.8335 50.7646V52.8477C60.8335 53.423 60.3668 53.8896 59.7915 53.8896H57.7085C57.1332 53.8896 56.6665 53.423 56.6665 52.8477V50.7646C56.6665 50.1894 57.1332 49.7227 57.7085 49.7227H59.7915ZM53.5415 43.4727C54.1168 43.4727 54.5835 43.9394 54.5835 44.5146V46.5977C54.5835 47.173 54.1168 47.6396 53.5415 47.6396H51.4585C50.8832 47.6396 50.4165 47.173 50.4165 46.5977V44.5146C50.4165 43.9394 50.8832 43.4727 51.4585 43.4727H53.5415ZM59.7915 43.4727C60.3668 43.4727 60.8335 43.9394 60.8335 44.5146V46.5977C60.8335 47.173 60.3668 47.6396 59.7915 47.6396H57.7085C57.1332 47.6396 56.6665 47.173 56.6665 46.5977V44.5146C56.6665 43.9394 57.1332 43.4727 57.7085 43.4727H59.7915ZM53.5415 37.2227C54.1168 37.2227 54.5835 37.6894 54.5835 38.2646V40.3477C54.5835 40.923 54.1168 41.3896 53.5415 41.3896H51.4585C50.8832 41.3896 50.4165 40.923 50.4165 40.3477V38.2646C50.4165 37.6894 50.8832 37.2227 51.4585 37.2227H53.5415ZM59.7915 37.2227C60.3668 37.2227 60.8335 37.6894 60.8335 38.2646V40.3477C60.8335 40.923 60.3668 41.3896 59.7915 41.3896H57.7085C57.1332 41.3896 56.6665 40.923 56.6665 40.3477V38.2646C56.6665 37.6894 57.1332 37.2227 57.7085 37.2227H59.7915Z"
        fill="url(#paint5_linear_8436_240932)"
    />
    <path
        d="M24.7222 19.8605C24.7222 19.4769 25.0331 19.166 25.4166 19.166H47.6388C48.0224 19.166 48.3333 19.4769 48.3333 19.8605C48.3333 20.244 48.0224 20.5549 47.6388 20.5549H25.4166C25.0331 20.5549 24.7222 20.244 24.7222 19.8605Z"
        fill="url(#paint6_linear_8436_240932)"
    />
    <path
        d="M47.6387 33.0547H63.6109C63.9944 33.0547 64.3053 33.3656 64.3053 33.7491C64.3053 34.1327 63.9944 34.4436 63.6109 34.4436H47.6387V33.0547Z"
        fill="url(#paint7_linear_8436_240932)"
    />
    <rect x="22.6387" y="55.2773" width="1.38889" height="5.55556" fill="url(#paint8_linear_8436_240932)" />
    <path
        d="M27.4998 52.3391C27.4998 54.7288 25.6344 56.666 23.3332 56.666C21.032 56.666 19.1665 54.7288 19.1665 52.3391C19.1665 49.9494 21.032 37.916 23.3332 37.916C25.6344 37.916 27.4998 49.9494 27.4998 52.3391Z"
        fill="url(#paint9_linear_8436_240932)"
    />
    <rect x="18.4722" y="55.2773" width="1.38889" height="5.55556" fill="url(#paint10_linear_8436_240932)" />
    <path
        d="M22.2915 56.1452C22.2915 57.8711 20.8924 59.2702 19.1665 59.2702C17.4406 59.2702 16.0415 57.8711 16.0415 56.1452C16.0415 54.4193 17.4406 45.7285 19.1665 45.7285C20.8924 45.7285 22.2915 54.4193 22.2915 56.1452Z"
        fill="url(#paint11_linear_8436_240932)"
    />
    <path
        d="M33.0557 53.888C33.0557 52.7374 33.9884 51.8047 35.139 51.8047H38.6112C39.7618 51.8047 40.6946 52.7374 40.6946 53.888V60.8325H33.0557V53.888Z"
        fill="#203E76"
    />
    <defs>
        <linearGradient
            id="paint0_linear_8436_240932"
            x1="-3.14815"
            y1="-2.91971"
            x2="99.2617"
            y2="34.0077"
            gradientUnits="userSpaceOnUse"
        >
            <stop stop-color="#12B3D4" />
            <stop offset="1" stop-color="#3C7DE8" />
        </linearGradient>
        <linearGradient
            id="paint1_linear_8436_240932"
            x1="60.5395"
            y1="33.3983"
            x2="26.5004"
            y2="62.4304"
            gradientUnits="userSpaceOnUse"
        >
            <stop stop-color="#A9CEFF" />
            <stop offset="1" stop-color="#12B3D4" />
        </linearGradient>
        <linearGradient
            id="paint2_linear_8436_240932"
            x1="53.4551"
            y1="42.6926"
            x2="50.5905"
            y2="42.6926"
            gradientUnits="userSpaceOnUse"
        >
            <stop stop-color="#3E87FB" />
            <stop offset="1" stop-color="#3161B6" />
        </linearGradient>
        <linearGradient
            id="paint3_linear_8436_240932"
            x1="47.6387"
            y1="16.343"
            x2="5.26726"
            y2="65.1964"
            gradientUnits="userSpaceOnUse"
        >
            <stop stop-color="#A9CEFF" />
            <stop offset="1" stop-color="#00A5C5" />
        </linearGradient>
        <linearGradient
            id="paint4_linear_8436_240932"
            x1="49.0277"
            y1="18.4718"
            x2="30.2774"
            y2="50.2479"
            gradientUnits="userSpaceOnUse"
        >
            <stop stop-color="#66CAE3" />
            <stop offset="0.152464" stop-color="white" stop-opacity="0.9" />
            <stop offset="1" stop-color="#A1E1F1" />
        </linearGradient>
        <linearGradient
            id="paint5_linear_8436_240932"
            x1="65.0003"
            y1="33.056"
            x2="50.9379"
            y2="56.8887"
            gradientUnits="userSpaceOnUse"
        >
            <stop stop-color="#66CAE3" />
            <stop offset="0.152464" stop-color="white" stop-opacity="0.9" />
            <stop offset="1" stop-color="#A1E1F1" />
        </linearGradient>
        <linearGradient
            id="paint6_linear_8436_240932"
            x1="24.4995"
            y1="19.4981"
            x2="48.4995"
            y2="19.498"
            gradientUnits="userSpaceOnUse"
        >
            <stop stop-color="#74ACFE" />
            <stop offset="1" stop-color="#4C92FA" />
        </linearGradient>
        <linearGradient
            id="paint7_linear_8436_240932"
            x1="47.4815"
            y1="33.3867"
            x2="64.4227"
            y2="33.3867"
            gradientUnits="userSpaceOnUse"
        >
            <stop stop-color="#74ACFE" />
            <stop offset="1" stop-color="#4C92FA" />
        </linearGradient>
        <linearGradient
            id="paint8_linear_8436_240932"
            x1="23.3331"
            y1="54.7723"
            x2="23.3331"
            y2="59.0652"
            gradientUnits="userSpaceOnUse"
        >
            <stop stop-color="#76A83A" />
            <stop offset="1" stop-color="#CA8244" />
        </linearGradient>
        <linearGradient
            id="paint9_linear_8436_240932"
            x1="10.3123"
            y1="42.8639"
            x2="22.8241"
            y2="56.975"
            gradientUnits="userSpaceOnUse"
        >
            <stop stop-color="#B6FFCE" />
            <stop offset="1" stop-color="#30B49E" />
        </linearGradient>
        <linearGradient
            id="paint10_linear_8436_240932"
            x1="19.1666"
            y1="54.7723"
            x2="19.1666"
            y2="59.0652"
            gradientUnits="userSpaceOnUse"
        >
            <stop stop-color="#76A83A" />
            <stop offset="1" stop-color="#CA8244" />
        </linearGradient>
        <linearGradient
            id="paint11_linear_8436_240932"
            x1="5.88525"
            y1="50.416"
            x2="16.0415"
            y2="59.2702"
            gradientUnits="userSpaceOnUse"
        >
            <stop stop-color="#B6FFCE" />
            <stop offset="1" stop-color="#30B49E" />
        </linearGradient>
    </defs>
</svg>
