<svg width="80" height="80" viewBox="0 0 80 80" fill="none" xmlns="http://www.w3.org/2000/svg">
    <g clip-path="url(#clip0_8436_240947)">
        <rect width="80" height="80" rx="20" fill="url(#paint0_linear_8436_240947)" fill-opacity="0.09" />
        <g filter="url(#filter0_ddd_8436_240947)">
            <path
                d="M61.7878 19.3243L43.8836 15.4191C42.1395 14.8603 40.2678 14.8603 38.5237 15.4191L20.6195 19.3243C19.556 19.6682 18.0427 20.3381 18.0002 21.4987C17.9994 26.5149 18.0016 34.8262 18.001 46.777C18.0009 49.17 18.709 51.5425 20.4115 53.2241C25.3053 58.058 34.1146 63.6352 40.7782 65.8566C41.076 65.9425 41.3738 65.9425 41.629 65.8566C48.2428 63.6519 56.0069 59.0858 60.5898 54.6029C62.3002 52.9298 63 50.5492 63 48.1565C63 35.9835 63 26.5193 63 21.4987C62.9575 20.3381 62.8513 19.6682 61.7878 19.3243Z"
                fill="url(#paint1_linear_8436_240947)"
            />
        </g>
        <path
            d="M41 15.0024C41.9717 14.9798 42.9462 15.118 43.8838 15.4184L61.7881 19.3227C62.8514 19.6666 62.9575 20.337 63 21.4975V48.1557C63 50.5483 62.3002 52.9289 60.5898 54.602C56.0069 59.0849 48.2427 63.6512 41.6289 65.8559C41.4372 65.9204 41.2216 65.9352 41 65.9028V15.0024Z"
            fill="url(#paint2_linear_8436_240947)"
        />
        <path
            d="M41.6845 38.4527H48.7459L38.0003 54.4434L40.4564 41.6509L33.395 41.6508L44.1407 25.6602L41.6845 38.4527Z"
            fill="white"
        />
    </g>
    <defs>
        <filter
            id="filter0_ddd_8436_240947"
            x="3"
            y="10"
            width="75"
            height="81.4153"
            filterUnits="userSpaceOnUse"
            color-interpolation-filters="sRGB"
        >
            <feFlood flood-opacity="0" result="BackgroundImageFix" />
            <feColorMatrix
                in="SourceAlpha"
                type="matrix"
                values="0 0 0 0 0 0 0 0 0 0 0 0 0 0 0 0 0 0 127 0"
                result="hardAlpha"
            />
            <feOffset dy="2.21977" />
            <feGaussianBlur stdDeviation="1" />
            <feColorMatrix type="matrix" values="0 0 0 0 0.290196 0 0 0 0 0.176471 0 0 0 0 0.772549 0 0 0 0.04 0" />
            <feBlend mode="normal" in2="BackgroundImageFix" result="effect1_dropShadow_8436_240947" />
            <feColorMatrix
                in="SourceAlpha"
                type="matrix"
                values="0 0 0 0 0 0 0 0 0 0 0 0 0 0 0 0 0 0 127 0"
                result="hardAlpha"
            />
            <feOffset dy="10.4934" />
            <feGaussianBlur stdDeviation="7.5" />
            <feColorMatrix type="matrix" values="0 0 0 0 0.290196 0 0 0 0 0.176471 0 0 0 0 0.772549 0 0 0 0.05 0" />
            <feBlend mode="normal" in2="effect1_dropShadow_8436_240947" result="effect2_dropShadow_8436_240947" />
            <feColorMatrix
                in="SourceAlpha"
                type="matrix"
                values="0 0 0 0 0 0 0 0 0 0 0 0 0 0 0 0 0 0 127 0"
                result="hardAlpha"
            />
            <feOffset dy="5" />
            <feGaussianBlur stdDeviation="5" />
            <feColorMatrix type="matrix" values="0 0 0 0 0.290196 0 0 0 0 0.176471 0 0 0 0 0.772549 0 0 0 0.05 0" />
            <feBlend mode="normal" in2="effect2_dropShadow_8436_240947" result="effect3_dropShadow_8436_240947" />
            <feBlend mode="normal" in="SourceGraphic" in2="effect3_dropShadow_8436_240947" result="shape" />
        </filter>
        <linearGradient
            id="paint0_linear_8436_240947"
            x1="-3.14815"
            y1="-2.91971"
            x2="99.2617"
            y2="34.0077"
            gradientUnits="userSpaceOnUse"
        >
            <stop stop-color="#FACBA3" />
            <stop offset="1" stop-color="#EC4148" />
        </linearGradient>
        <linearGradient
            id="paint1_linear_8436_240947"
            x1="58.8342"
            y1="0.275206"
            x2="26.8941"
            y2="71.2229"
            gradientUnits="userSpaceOnUse"
        >
            <stop stop-color="#FFECEC" />
            <stop offset="1" stop-color="#F6A86B" />
        </linearGradient>
        <linearGradient
            id="paint2_linear_8436_240947"
            x1="52"
            y1="15"
            x2="52"
            y2="65.9194"
            gradientUnits="userSpaceOnUse"
        >
            <stop stop-color="#FDE2C7" />
            <stop offset="0.71584" stop-color="#E57031" />
        </linearGradient>
        <clipPath id="clip0_8436_240947">
            <rect width="80" height="80" rx="20" fill="white" />
        </clipPath>
    </defs>
</svg>
