<svg width="120" height="120" viewBox="0 0 120 120" fill="none" xmlns="http://www.w3.org/2000/svg">
    <g clip-path="url(#clip0_9897_5293)">
        <g filter="url(#filter0_d_9897_5293)">
            <rect
                x="18"
                y="27.3672"
                width="109.605"
                height="122.114"
                rx="6.91788"
                transform="rotate(-15 18 27.3672)"
                fill="white"
                shape-rendering="crispEdges"
            />
            <path
                fill-rule="evenodd"
                clip-rule="evenodd"
                d="M43.1044 51.5891C46.7448 50.6136 48.9051 46.8718 47.9297 43.2315C46.9543 39.5911 43.2125 37.4308 39.5721 38.4062C35.9318 39.3816 33.7714 43.1234 34.7469 46.7638C35.7223 50.4041 39.4641 52.5645 43.1044 51.5891ZM47.0228 43.6198C47.0118 43.5744 47.0002 43.5291 46.9881 43.4838C46.6274 42.1377 45.8255 41.0278 44.7797 40.2678C44.6839 40.3071 44.5928 40.3636 44.5115 40.4357L44.0388 40.8548C43.6759 41.1767 43.6048 41.7165 43.8721 42.1214L44.7931 43.5163C44.9859 43.8082 45.3203 43.9745 45.6694 43.952L46.3984 43.905C46.6484 43.8888 46.8675 43.7806 47.0228 43.6198ZM35.7335 46.6708L36.042 46.9129C36.6326 47.3765 37.437 47.4598 38.11 47.127L38.4306 46.9685C38.8859 46.7434 39.4377 46.9055 39.6988 47.3411L40.8011 49.1796C40.9639 49.4511 41.2502 49.6248 41.5661 49.6437C42.1237 49.6772 42.5918 49.2289 42.5824 48.6704L42.5724 48.0732C42.5683 47.8307 42.6547 47.5954 42.8148 47.4133L43.5553 46.5707C43.6673 46.4433 43.7441 46.2888 43.7781 46.1226L43.8038 45.9969C43.8879 45.5858 43.6996 45.167 43.3362 44.9572L42.5035 44.4764C42.2795 44.3471 42.0135 44.3121 41.7637 44.379L40.9227 44.6044C40.8029 44.6365 40.678 44.6454 40.5549 44.6307L39.2102 44.4703C38.7012 44.4096 38.42 43.8483 38.6764 43.4043C38.771 43.2403 38.927 43.1206 39.1099 43.0716L40.0836 42.8107C40.1843 42.7837 40.2773 42.7337 40.3553 42.6646C40.6981 42.3605 40.6424 41.81 40.2455 41.5809L39.4845 41.1415C39.1412 40.9433 39.1655 40.4399 39.5264 40.2757L40.9561 39.6253C41.1472 39.5384 41.2644 39.3493 41.2654 39.1476C40.789 39.1539 40.3057 39.2189 39.8244 39.3478C36.7041 40.1839 34.8524 43.3912 35.6885 46.5115C35.7028 46.565 35.7178 46.6181 35.7335 46.6708Z"
                fill="#C2B8E3"
            />
            <rect
                x="53.459"
                y="40.4326"
                width="51.5416"
                height="2.54526"
                rx="1.27263"
                transform="rotate(-15 53.459 40.4326)"
                fill="#C2B8E3"
            />
            <path
                fill-rule="evenodd"
                clip-rule="evenodd"
                d="M50.1045 68.5092C52.4806 67.8725 53.8908 65.4301 53.2541 63.0539C52.6174 60.6777 50.175 59.2676 47.7988 59.9043C45.4226 60.541 44.0125 62.9834 44.6492 65.3596C45.2859 67.7357 47.7283 69.1459 50.1045 68.5092ZM51.1314 62.8674C51.2192 62.7153 51.1671 62.5207 51.0149 62.4328C50.8627 62.345 50.6681 62.3971 50.5803 62.5493L48.9396 65.3911L47.2668 64.4253C47.1146 64.3374 46.9201 64.3896 46.8322 64.5417C46.7443 64.6939 46.7965 64.8885 46.9487 64.9763L48.7868 66.0376C48.9998 66.1606 49.2722 66.0876 49.3952 65.8745L51.1314 62.8674Z"
                fill="#1EA885"
            />
            <rect
                opacity="0.4"
                x="58.4734"
                y="60.4062"
                width="69.1954"
                height="2.41379"
                rx="1.2069"
                transform="rotate(-15 58.4734 60.4062)"
                fill="#C2B8E3"
            />
            <path
                fill-rule="evenodd"
                clip-rule="evenodd"
                d="M54.0571 83.2606C56.4332 82.6239 57.8433 80.1815 57.2067 77.8054C56.57 75.4292 54.1276 74.0191 51.7514 74.6558C49.3752 75.2925 47.9651 77.7349 48.6018 80.111C49.2385 82.4872 51.6809 83.8973 54.0571 83.2606ZM55.0839 77.6189C55.1718 77.4667 55.1197 77.2722 54.9675 77.1843C54.8153 77.0964 54.6207 77.1486 54.5329 77.3007L52.8922 80.1425L51.2194 79.1767C51.0672 79.0889 50.8726 79.141 50.7848 79.2932C50.6969 79.4454 50.7491 79.6399 50.9012 79.7278L52.7393 80.789C52.9524 80.912 53.2248 80.839 53.3478 80.626L55.0839 77.6189Z"
                fill="#1EA885"
            />
            <rect
                opacity="0.4"
                x="62.426"
                y="75.1577"
                width="42.6437"
                height="2.41379"
                rx="1.2069"
                transform="rotate(-15 62.426 75.1577)"
                fill="#C2B8E3"
            />
            <path
                fill-rule="evenodd"
                clip-rule="evenodd"
                d="M58.0096 98.0116C60.3858 97.3749 61.7959 94.9325 61.1592 92.5563C60.5225 90.1802 58.0801 88.77 55.704 89.4067C53.3278 90.0434 51.9177 92.4858 52.5544 94.862C53.191 97.2382 55.6335 98.6483 58.0096 98.0116ZM59.0365 92.3699C59.1244 92.2177 59.0722 92.0231 58.9201 91.9353C58.7679 91.8474 58.5733 91.8996 58.4854 92.0517L56.8447 94.8935L55.172 93.9277C55.0198 93.8399 54.8252 93.892 54.7374 94.0442C54.6495 94.1963 54.7016 94.3909 54.8538 94.4788L56.6919 95.54C56.905 95.663 57.1774 95.59 57.3004 95.377L59.0365 92.3699Z"
                fill="#1EA885"
            />
            <rect
                opacity="0.4"
                x="66.3786"
                y="89.9087"
                width="59.5402"
                height="2.41379"
                rx="1.2069"
                transform="rotate(-15 66.3786 89.9087)"
                fill="#C2B8E3"
            />
            <path
                fill-rule="evenodd"
                clip-rule="evenodd"
                d="M61.9622 112.763C64.3384 112.126 65.7485 109.684 65.1118 107.308C64.4751 104.932 62.0327 103.522 59.6565 104.158C57.2804 104.795 55.8702 107.237 56.5069 109.613C57.1436 111.99 59.586 113.4 61.9622 112.763ZM62.9891 107.121C63.0769 106.969 63.0248 106.775 62.8726 106.687C62.7205 106.599 62.5259 106.651 62.438 106.803L60.7973 109.645L59.1245 108.679C58.9724 108.591 58.7778 108.643 58.6899 108.796C58.6021 108.948 58.6542 109.142 58.8064 109.23L60.6445 110.291C60.8575 110.414 61.1299 110.341 61.2529 110.128L62.9891 107.121Z"
                fill="#1EA885"
            />
            <rect
                x="70.3311"
                y="104.66"
                width="78.046"
                height="2.41379"
                rx="1.2069"
                transform="rotate(-15 70.3311 104.66)"
                fill="#C2B8E3"
                fill-opacity="0.5"
            />
        </g>
    </g>
    <defs>
        <filter
            id="filter0_d_9897_5293"
            x="-2"
            y="-11.001"
            width="177.476"
            height="186.321"
            filterUnits="userSpaceOnUse"
            color-interpolation-filters="sRGB"
        >
            <feFlood flood-opacity="0" result="BackgroundImageFix" />
            <feColorMatrix
                in="SourceAlpha"
                type="matrix"
                values="0 0 0 0 0 0 0 0 0 0 0 0 0 0 0 0 0 0 127 0"
                result="hardAlpha"
            />
            <feOffset dy="10" />
            <feGaussianBlur stdDeviation="10" />
            <feComposite in2="hardAlpha" operator="out" />
            <feColorMatrix type="matrix" values="0 0 0 0 0.760784 0 0 0 0 0.721569 0 0 0 0 0.890196 0 0 0 1 0" />
            <feBlend mode="normal" in2="BackgroundImageFix" result="effect1_dropShadow_9897_5293" />
            <feBlend mode="normal" in="SourceGraphic" in2="effect1_dropShadow_9897_5293" result="shape" />
        </filter>
        <clipPath id="clip0_9897_5293">
            <rect width="120" height="120" fill="white" />
        </clipPath>
    </defs>
</svg>
