<svg width="120" height="120" viewBox="0 0 120 120" fill="none" xmlns="http://www.w3.org/2000/svg">
    <g clip-path="url(#clip0_9835_199473)">
        <g filter="url(#filter0_d_9835_199473)">
            <rect
                x="18"
                y="27.3672"
                width="109.605"
                height="122.114"
                rx="6.91788"
                transform="rotate(-15 18 27.3672)"
                fill="white"
                shape-rendering="crispEdges"
            />
            <path
                fill-rule="evenodd"
                clip-rule="evenodd"
                d="M43.1044 51.5895C46.7448 50.6141 48.9051 46.8723 47.9297 43.2319C46.9543 39.5916 43.2124 37.4313 39.5721 38.4067C35.9317 39.3821 33.7714 43.1239 34.7468 46.7643C35.7222 50.4046 39.4641 52.565 43.1044 51.5895ZM47.0228 43.6202C47.0118 43.5749 47.0002 43.5296 46.988 43.4843C46.6274 42.1382 45.8255 41.0283 44.7796 40.2683C44.6839 40.3076 44.5928 40.3641 44.5115 40.4362L44.0388 40.8553C43.6758 41.1772 43.6048 41.717 43.8721 42.1219L44.7931 43.5168C44.9858 43.8087 45.3202 43.975 45.6693 43.9525L46.3984 43.9054C46.6484 43.8893 46.8674 43.7811 47.0228 43.6202ZM35.7335 46.6713L36.042 46.9134C36.6326 47.377 37.437 47.4603 38.11 47.1275L38.4306 46.969C38.8858 46.7439 39.4376 46.906 39.6988 47.3416L40.8011 49.1801C40.9639 49.4516 41.2501 49.6253 41.5661 49.6442C42.1237 49.6777 42.5918 49.2294 42.5824 48.6709L42.5723 48.0737C42.5683 47.8312 42.6547 47.5959 42.8148 47.4138L43.5552 46.5712C43.6672 46.4438 43.744 46.2893 43.778 46.1231L43.8038 45.9973C43.8879 45.5863 43.6995 45.1675 43.3361 44.9577L42.5034 44.4769C42.2795 44.3476 42.0134 44.3126 41.7637 44.3795L40.9226 44.6049C40.8028 44.637 40.678 44.6459 40.5549 44.6312L39.2101 44.4708C38.7011 44.4101 38.42 43.8487 38.6763 43.4048C38.771 43.2408 38.927 43.1211 39.1099 43.0721L40.0836 42.8112C40.1842 42.7842 40.2773 42.7342 40.3552 42.665C40.6981 42.361 40.6423 41.8105 40.2455 41.5813L39.4845 41.142C39.1412 40.9438 39.1655 40.4404 39.5264 40.2762L40.956 39.6258C41.1472 39.5388 41.2643 39.3498 41.2653 39.1481C40.789 39.1544 40.3056 39.2194 39.8244 39.3483C36.7041 40.1844 34.8524 43.3917 35.6885 46.512C35.7028 46.5654 35.7178 46.6186 35.7335 46.6713Z"
                fill="#C2B8E3"
            />
            <rect
                x="53.459"
                y="40.4326"
                width="51.5416"
                height="2.54526"
                rx="1.27263"
                transform="rotate(-15 53.459 40.4326)"
                fill="#C2B8E3"
            />
            <path
                fill-rule="evenodd"
                clip-rule="evenodd"
                d="M50.1044 68.5097C52.4806 67.873 53.8907 65.4306 53.254 63.0544C52.6173 60.6782 50.1749 59.2681 47.7987 59.9048C45.4225 60.5415 44.0124 62.9839 44.6491 65.3601C45.2858 67.7362 47.7282 69.1464 50.1044 68.5097ZM51.1754 65.4912C51.0875 65.6433 50.893 65.6955 50.7408 65.6076L49.068 64.6418L48.1022 66.3146C48.0144 66.4668 47.8198 66.5189 47.6676 66.4311C47.5154 66.3432 47.4633 66.1486 47.5512 65.9965L48.5169 64.3237L46.8442 63.3579C46.692 63.27 46.6398 63.0755 46.7277 62.9233C46.8156 62.7711 47.0101 62.719 47.1623 62.8068L48.8351 63.7726L49.8009 62.0998C49.8887 61.9477 50.0833 61.8955 50.2355 61.9834C50.3877 62.0712 50.4398 62.2658 50.3519 62.418L49.3862 64.0908L51.0589 65.0565C51.2111 65.1444 51.2633 65.339 51.1754 65.4912Z"
                fill="#DC3251"
            />
            <rect
                opacity="0.4"
                x="58.4734"
                y="60.4062"
                width="69.1954"
                height="2.41379"
                rx="1.2069"
                transform="rotate(-15 58.4734 60.4062)"
                fill="#C2B8E3"
            />
            <path
                fill-rule="evenodd"
                clip-rule="evenodd"
                d="M54.057 83.2606C56.4332 82.6239 57.8433 80.1815 57.2066 77.8054C56.5699 75.4292 54.1275 74.0191 51.7514 74.6558C49.3752 75.2925 47.9651 77.7349 48.6017 80.111C49.2384 82.4872 51.6808 83.8973 54.057 83.2606ZM55.128 80.2421C55.0402 80.3943 54.8456 80.4464 54.6934 80.3586L53.0206 79.3928L52.0549 81.0656C51.967 81.2178 51.7724 81.2699 51.6202 81.182C51.4681 81.0942 51.4159 80.8996 51.5038 80.7474L52.4696 79.0747L50.7968 78.1089C50.6446 78.021 50.5925 77.8264 50.6803 77.6743C50.7682 77.5221 50.9628 77.4699 51.115 77.5578L52.7877 78.5236L53.7535 76.8508C53.8414 76.6986 54.036 76.6465 54.1881 76.7344C54.3403 76.8222 54.3924 77.0168 54.3046 77.169L53.3388 78.8417L55.0116 79.8075C55.1637 79.8954 55.2159 80.09 55.128 80.2421Z"
                fill="#DC3251"
            />
            <rect
                opacity="0.4"
                x="62.426"
                y="75.1572"
                width="42.6437"
                height="2.41379"
                rx="1.2069"
                transform="rotate(-15 62.426 75.1572)"
                fill="#C2B8E3"
            />
            <path
                fill-rule="evenodd"
                clip-rule="evenodd"
                d="M58.0096 98.0116C60.3858 97.3749 61.7959 94.9325 61.1592 92.5563C60.5225 90.1802 58.0801 88.77 55.7039 89.4067C53.3278 90.0434 51.9176 92.4858 52.5543 94.862C53.191 97.2382 55.6334 98.6483 58.0096 98.0116ZM59.0806 94.9931C58.9927 95.1453 58.7982 95.1974 58.646 95.1096L56.9732 94.1438L56.0074 95.8166C55.9196 95.9687 55.725 96.0209 55.5728 95.933C55.4207 95.8452 55.3685 95.6506 55.4564 95.4984L56.4221 93.8256L54.7494 92.8598C54.5972 92.772 54.5451 92.5774 54.6329 92.4252C54.7208 92.2731 54.9154 92.2209 55.0675 92.3088L56.7403 93.2746L57.7061 91.6018C57.7939 91.4496 57.9885 91.3975 58.1407 91.4853C58.2929 91.5732 58.345 91.7678 58.2572 91.9199L57.2914 93.5927L58.9642 94.5585C59.1163 94.6464 59.1685 94.8409 59.0806 94.9931Z"
                fill="#DC3251"
            />
            <rect
                opacity="0.4"
                x="66.3786"
                y="89.9082"
                width="59.5402"
                height="2.41379"
                rx="1.2069"
                transform="rotate(-15 66.3786 89.9082)"
                fill="#C2B8E3"
            />
            <path
                fill-rule="evenodd"
                clip-rule="evenodd"
                d="M61.9622 112.763C64.3383 112.126 65.7485 109.683 65.1118 107.307C64.4751 104.931 62.0327 103.521 59.6565 104.158C57.2803 104.794 55.8702 107.237 56.5069 109.613C57.1436 111.989 59.586 113.399 61.9622 112.763ZM63.0332 109.744C62.9453 109.896 62.7507 109.948 62.5986 109.861L60.9258 108.895L59.96 110.568C59.8722 110.72 59.6776 110.772 59.5254 110.684C59.3732 110.596 59.3211 110.402 59.4089 110.249L60.3747 108.577L58.7019 107.611C58.5498 107.523 58.4976 107.328 58.5855 107.176C58.6733 107.024 58.8679 106.972 59.0201 107.06L60.6929 108.026L61.6587 106.353C61.7465 106.201 61.9411 106.148 62.0933 106.236C62.2454 106.324 62.2976 106.519 62.2097 106.671L61.2439 108.344L62.9167 109.309C63.0689 109.397 63.121 109.592 63.0332 109.744Z"
                fill="#DC3251"
            />
            <rect
                x="70.3312"
                y="104.659"
                width="78.046"
                height="2.41379"
                rx="1.2069"
                transform="rotate(-15 70.3312 104.659)"
                fill="#C2B8E3"
                fill-opacity="0.5"
            />
        </g>
    </g>
    <defs>
        <filter
            id="filter0_d_9835_199473"
            x="-2"
            y="-11.001"
            width="177.476"
            height="186.321"
            filterUnits="userSpaceOnUse"
            color-interpolation-filters="sRGB"
        >
            <feFlood flood-opacity="0" result="BackgroundImageFix" />
            <feColorMatrix
                in="SourceAlpha"
                type="matrix"
                values="0 0 0 0 0 0 0 0 0 0 0 0 0 0 0 0 0 0 127 0"
                result="hardAlpha"
            />
            <feOffset dy="10" />
            <feGaussianBlur stdDeviation="10" />
            <feComposite in2="hardAlpha" operator="out" />
            <feColorMatrix type="matrix" values="0 0 0 0 0.760784 0 0 0 0 0.721569 0 0 0 0 0.890196 0 0 0 1 0" />
            <feBlend mode="normal" in2="BackgroundImageFix" result="effect1_dropShadow_9835_199473" />
            <feBlend mode="normal" in="SourceGraphic" in2="effect1_dropShadow_9835_199473" result="shape" />
        </filter>
        <clipPath id="clip0_9835_199473">
            <rect width="120" height="120" fill="white" />
        </clipPath>
    </defs>
</svg>
