<svg width="120" height="120" viewBox="0 0 120 120" fill="none" xmlns="http://www.w3.org/2000/svg">
    <g clip-path="url(#clip0_9835_199451)">
        <g filter="url(#filter0_d_9835_199451)">
            <rect
                x="18"
                y="27.3672"
                width="109.605"
                height="122.114"
                rx="6.91788"
                transform="rotate(-15 18 27.3672)"
                fill="white"
                shape-rendering="crispEdges"
            />
            <path
                fill-rule="evenodd"
                clip-rule="evenodd"
                d="M43.1044 51.5895C46.7448 50.6141 48.9051 46.8723 47.9297 43.2319C46.9543 39.5916 43.2124 37.4313 39.5721 38.4067C35.9317 39.3821 33.7714 43.1239 34.7468 46.7643C35.7222 50.4046 39.4641 52.565 43.1044 51.5895ZM47.0228 43.6202C47.0118 43.5749 47.0002 43.5296 46.988 43.4843C46.6274 42.1382 45.8255 41.0283 44.7796 40.2683C44.6839 40.3076 44.5928 40.3641 44.5115 40.4362L44.0388 40.8553C43.6758 41.1772 43.6048 41.717 43.8721 42.1219L44.7931 43.5168C44.9858 43.8087 45.3202 43.975 45.6693 43.9525L46.3984 43.9054C46.6484 43.8893 46.8674 43.7811 47.0228 43.6202ZM35.7335 46.6713L36.042 46.9134C36.6326 47.377 37.437 47.4603 38.11 47.1275L38.4306 46.969C38.8858 46.7439 39.4376 46.906 39.6988 47.3416L40.8011 49.1801C40.9639 49.4516 41.2501 49.6253 41.5661 49.6442C42.1237 49.6777 42.5918 49.2294 42.5824 48.6709L42.5723 48.0737C42.5683 47.8312 42.6547 47.5959 42.8148 47.4138L43.5552 46.5712C43.6672 46.4438 43.744 46.2893 43.778 46.1231L43.8038 45.9973C43.8879 45.5863 43.6995 45.1675 43.3361 44.9577L42.5034 44.4769C42.2795 44.3476 42.0134 44.3126 41.7637 44.3795L40.9226 44.6049C40.8028 44.637 40.678 44.6459 40.5549 44.6312L39.2101 44.4708C38.7011 44.4101 38.42 43.8487 38.6763 43.4048C38.771 43.2408 38.927 43.1211 39.1099 43.0721L40.0836 42.8112C40.1842 42.7842 40.2773 42.7342 40.3552 42.665C40.6981 42.361 40.6423 41.8105 40.2455 41.5813L39.4845 41.142C39.1412 40.9438 39.1655 40.4404 39.5264 40.2762L40.956 39.6258C41.1472 39.5388 41.2643 39.3498 41.2653 39.1481C40.789 39.1544 40.3056 39.2194 39.8244 39.3483C36.7041 40.1844 34.8524 43.3917 35.6885 46.512C35.7028 46.5654 35.7178 46.6186 35.7335 46.6713Z"
                fill="#C2B8E3"
            />
            <rect
                x="53.459"
                y="40.4326"
                width="51.5416"
                height="2.54526"
                rx="1.27263"
                transform="rotate(-15 53.459 40.4326)"
                fill="#C2B8E3"
            />
            <path
                fill-rule="evenodd"
                clip-rule="evenodd"
                d="M50.1044 68.5097C52.4806 67.873 53.8907 65.4306 53.254 63.0544C52.6173 60.6782 50.1749 59.2681 47.7987 59.9048C45.4225 60.5415 44.0124 62.9839 44.6491 65.3601C45.2858 67.7362 47.7282 69.1464 50.1044 68.5097ZM51.1313 62.8679C51.2191 62.7158 51.167 62.5212 51.0148 62.4333C50.8626 62.3455 50.6681 62.3976 50.5802 62.5498L48.9395 65.3915L47.2667 64.4258C47.1146 64.3379 46.92 64.39 46.8321 64.5422C46.7443 64.6944 46.7964 64.889 46.9486 64.9768L48.7867 66.0381C48.9997 66.1611 49.2721 66.0881 49.3951 65.875L51.1313 62.8679Z"
                fill="#1EA885"
            />
            <rect
                opacity="0.4"
                x="58.4734"
                y="60.4062"
                width="69.1954"
                height="2.41379"
                rx="1.2069"
                transform="rotate(-15 58.4734 60.4062)"
                fill="#C2B8E3"
            />
            <path
                fill-rule="evenodd"
                clip-rule="evenodd"
                d="M54.057 83.2606C56.4332 82.6239 57.8433 80.1815 57.2066 77.8054C56.5699 75.4292 54.1275 74.0191 51.7514 74.6558C49.3752 75.2925 47.9651 77.7349 48.6017 80.111C49.2384 82.4872 51.6808 83.8973 54.057 83.2606ZM55.0839 77.6189C55.1718 77.4667 55.1196 77.2722 54.9674 77.1843C54.8153 77.0964 54.6207 77.1486 54.5328 77.3007L52.8921 80.1425L51.2194 79.1767C51.0672 79.0889 50.8726 79.141 50.7848 79.2932C50.6969 79.4454 50.749 79.6399 50.9012 79.7278L52.7393 80.789C52.9523 80.912 53.2248 80.839 53.3478 80.626L55.0839 77.6189Z"
                fill="#1EA885"
            />
            <rect
                opacity="0.4"
                x="62.426"
                y="75.1572"
                width="42.6437"
                height="2.41379"
                rx="1.2069"
                transform="rotate(-15 62.426 75.1572)"
                fill="#C2B8E3"
            />
            <path
                fill-rule="evenodd"
                clip-rule="evenodd"
                d="M58.0096 98.0116C60.3858 97.3749 61.7959 94.9325 61.1592 92.5563C60.5225 90.1802 58.0801 88.77 55.7039 89.4067C53.3278 90.0434 51.9176 92.4858 52.5543 94.862C53.191 97.2382 55.6334 98.6483 58.0096 98.0116ZM59.0365 92.3699C59.1243 92.2177 59.0722 92.0231 58.92 91.9353C58.7679 91.8474 58.5733 91.8996 58.4854 92.0517L56.8447 94.8935L55.1719 93.9277C55.0198 93.8399 54.8252 93.892 54.7373 94.0442C54.6495 94.1963 54.7016 94.3909 54.8538 94.4788L56.6919 95.54C56.9049 95.663 57.1773 95.59 57.3003 95.377L59.0365 92.3699Z"
                fill="#1EA885"
            />
            <rect
                opacity="0.4"
                x="66.3786"
                y="89.9082"
                width="59.5402"
                height="2.41379"
                rx="1.2069"
                transform="rotate(-15 66.3786 89.9082)"
                fill="#C2B8E3"
            />
            <path
                fill-rule="evenodd"
                clip-rule="evenodd"
                d="M61.9622 112.763C64.3383 112.126 65.7485 109.683 65.1118 107.307C64.4751 104.931 62.0327 103.521 59.6565 104.158C57.2803 104.794 55.8702 107.237 56.5069 109.613C57.1436 111.989 59.586 113.399 61.9622 112.763ZM62.9891 107.121C63.0769 106.969 63.0248 106.774 62.8726 106.686C62.7204 106.598 62.5258 106.651 62.438 106.803L60.7973 109.644L59.1245 108.679C58.9723 108.591 58.7778 108.643 58.6899 108.795C58.602 108.947 58.6542 109.142 58.8064 109.23L60.6445 110.291C60.8575 110.414 61.1299 110.341 61.2529 110.128L62.9891 107.121Z"
                fill="#1EA885"
            />
            <rect
                x="70.3312"
                y="104.659"
                width="78.046"
                height="2.41379"
                rx="1.2069"
                transform="rotate(-15 70.3312 104.659)"
                fill="#C2B8E3"
                fill-opacity="0.5"
            />
        </g>
    </g>
    <defs>
        <filter
            id="filter0_d_9835_199451"
            x="-2"
            y="-11.001"
            width="177.476"
            height="186.321"
            filterUnits="userSpaceOnUse"
            color-interpolation-filters="sRGB"
        >
            <feFlood flood-opacity="0" result="BackgroundImageFix" />
            <feColorMatrix
                in="SourceAlpha"
                type="matrix"
                values="0 0 0 0 0 0 0 0 0 0 0 0 0 0 0 0 0 0 127 0"
                result="hardAlpha"
            />
            <feOffset dy="10" />
            <feGaussianBlur stdDeviation="10" />
            <feComposite in2="hardAlpha" operator="out" />
            <feColorMatrix type="matrix" values="0 0 0 0 0.760784 0 0 0 0 0.721569 0 0 0 0 0.890196 0 0 0 1 0" />
            <feBlend mode="normal" in2="BackgroundImageFix" result="effect1_dropShadow_9835_199451" />
            <feBlend mode="normal" in="SourceGraphic" in2="effect1_dropShadow_9835_199451" result="shape" />
        </filter>
        <clipPath id="clip0_9835_199451">
            <rect width="120" height="120" fill="white" />
        </clipPath>
    </defs>
</svg>
