<svg width="40" height="40" viewBox="0 0 40 40" fill="none" xmlns="http://www.w3.org/2000/svg">
<path d="M2.5 12.4286C2.5 10.6534 3.93908 9.21429 5.71429 9.21429H11.833C12.8253 9.21429 13.4816 8.11329 13.1535 7.17682C12.3526 4.89131 11.9543 1.5 16.6429 1.5C21.3315 1.5 20.9331 4.89131 20.1322 7.17682C19.8041 8.11329 20.4605 9.21429 21.4528 9.21429H27.5714C29.3466 9.21429 30.7857 10.6534 30.7857 12.4286V18.5472C30.7857 19.5395 31.8867 20.1959 32.8232 19.8678C35.1087 19.0669 38.5 18.6685 38.5 23.3571C38.5 28.0457 35.1087 27.6474 32.8232 26.8465C31.8867 26.5184 30.7857 27.1747 30.7857 28.167V34.2857C30.7857 36.0609 29.3466 37.5 27.5714 37.5H21.4528C20.4605 37.5 19.8041 36.399 20.1322 35.4625C20.9331 33.177 21.3315 29.7857 16.6429 29.7857C11.9543 29.7857 12.3526 33.177 13.1535 35.4625C13.4816 36.399 12.8253 37.5 11.833 37.5H5.71428C3.93908 37.5 2.5 36.0609 2.5 34.2857V28.167C2.5 27.1747 3.60099 26.5184 4.53747 26.8465C6.82298 27.6474 10.2143 28.0457 10.2143 23.3571C10.2143 18.6685 6.82298 19.0669 4.53747 19.8678C3.60099 20.1959 2.5 19.5395 2.5 18.5472V12.4286Z" stroke="url(#paint0_linear_9456_13934)" stroke-width="2.5"/>
<defs>
<linearGradient id="paint0_linear_9456_13934" x1="20.5" y1="1.5" x2="20.5" y2="37.5" gradientUnits="userSpaceOnUse">
<stop stop-color="#C193FF"/>
<stop offset="1" stop-color="#5F35FF"/>
</linearGradient>
</defs>
</svg>
