<svg width="40" height="40" viewBox="0 0 40 40" fill="none" xmlns="http://www.w3.org/2000/svg">
<path fill-rule="evenodd" clip-rule="evenodd" d="M10.5 5H29.5C30.9414 5 31.8721 5.00194 32.5804 5.05982C33.2596 5.11531 33.5114 5.2095 33.635 5.27248C34.1054 5.51217 34.4878 5.89462 34.7275 6.36502C34.7905 6.48863 34.8847 6.74043 34.9402 7.41959C34.9583 7.64112 34.9709 7.8844 34.9797 8.15824C34.9108 8.1189 34.8409 8.08111 34.77 8.04497C33.7004 7.5 32.3003 7.5 29.5 7.5H10.5C7.69974 7.5 6.29961 7.5 5.23005 8.04497C5.15911 8.08111 5.08917 8.11888 5.02028 8.15823C5.02909 7.88439 5.04172 7.64112 5.05982 7.41959C5.11531 6.74043 5.2095 6.48863 5.27248 6.36502C5.51217 5.89462 5.89462 5.51217 6.36502 5.27248C6.48863 5.2095 6.74043 5.11531 7.41959 5.05982C8.12793 5.00194 9.05862 5 10.5 5ZM5 20.5433V29.5C5 30.9414 5.00194 31.8721 5.05982 32.5804C5.11531 33.2596 5.2095 33.5114 5.27248 33.635C5.51217 34.1054 5.89462 34.4878 6.36502 34.7275C6.48863 34.7905 6.74043 34.8847 7.41959 34.9402C8.12793 34.9981 9.05862 35 10.5 35H29.5C30.9414 35 31.8721 34.9981 32.5804 34.9402C33.2596 34.8847 33.5114 34.7905 33.635 34.7275C34.076 34.5028 34.4397 34.1526 34.6809 33.7221C34.697 33.6934 34.7125 33.6644 34.7275 33.635C34.7866 33.5191 34.873 33.2905 34.9293 32.7028C34.9331 32.6636 34.9367 32.6229 34.9402 32.5804C34.9981 31.8721 35 30.9414 35 29.5V20.5433L21.9654 28.5646C20.7601 29.3063 19.2399 29.3063 18.0346 28.5646L5 20.5433ZM2.5 15.5V10.5C2.5 7.69974 2.5 6.29961 3.04497 5.23005C3.52433 4.28924 4.28924 3.52433 5.23005 3.04497C6.29961 2.5 7.69974 2.5 10.5 2.5H29.5C32.3003 2.5 33.7004 2.5 34.77 3.04497C35.7108 3.52433 36.4757 4.28924 36.955 5.23005C37.5 6.29961 37.5 7.69974 37.5 10.5V15.5V20.5V29.5C37.5 32.3003 37.5 33.7004 36.955 34.77C36.4757 35.7108 35.7108 36.4757 34.77 36.955C33.7004 37.5 32.3003 37.5 29.5 37.5H10.5C7.69974 37.5 6.29961 37.5 5.23005 36.955C4.28924 36.4757 3.52433 35.7108 3.04497 34.77C2.5 33.7004 2.5 32.3003 2.5 29.5V20.5V15.5ZM29.5 10H10.5C9.05862 10 8.12793 10.0019 7.41959 10.0598C6.74043 10.1153 6.48863 10.2095 6.36502 10.2725C5.89462 10.5122 5.51217 10.8946 5.27248 11.365C5.2095 11.4886 5.11531 11.7404 5.05982 12.4196C5.04172 12.6411 5.02909 12.8844 5.02028 13.1582C5.08917 13.1189 5.15911 13.0811 5.23005 13.045C6.29961 12.5 7.69974 12.5 10.5 12.5H29.5C32.3003 12.5 33.7004 12.5 34.77 13.045C34.8409 13.0811 34.9108 13.1189 34.9797 13.1582C34.9709 12.8844 34.9583 12.6411 34.9402 12.4196C34.8847 11.7404 34.7905 11.4886 34.7275 11.365C34.4878 10.8946 34.1054 10.5122 33.635 10.2725C33.5114 10.2095 33.2596 10.1153 32.5804 10.0598C31.8721 10.0019 30.9414 10 29.5 10ZM34.9557 17.6351L20.6551 26.4354C20.2534 26.6827 19.7466 26.6827 19.3449 26.4354L5.04433 17.6351C5.04899 17.5609 5.05413 17.4892 5.05982 17.4196C5.11531 16.7404 5.2095 16.4886 5.27248 16.365C5.51217 15.8946 5.89462 15.5122 6.36502 15.2725C6.48863 15.2095 6.74043 15.1153 7.41959 15.0598C8.12793 15.0019 9.05862 15 10.5 15H29.5C30.9414 15 31.8721 15.0019 32.5804 15.0598C33.2596 15.1153 33.5114 15.2095 33.635 15.2725C34.1054 15.5122 34.4878 15.8946 34.7275 16.365C34.7905 16.4886 34.8847 16.7404 34.9402 17.4196C34.9459 17.4892 34.951 17.5609 34.9557 17.6351Z" fill="#5C5958"/>
<path fill-rule="evenodd" clip-rule="evenodd" d="M10.5 5H29.5C30.9414 5 31.8721 5.00194 32.5804 5.05982C33.2596 5.11531 33.5114 5.2095 33.635 5.27248C34.1054 5.51217 34.4878 5.89462 34.7275 6.36502C34.7905 6.48863 34.8847 6.74043 34.9402 7.41959C34.9583 7.64112 34.9709 7.8844 34.9797 8.15824C34.9108 8.1189 34.8409 8.08111 34.77 8.04497C33.7004 7.5 32.3003 7.5 29.5 7.5H10.5C7.69974 7.5 6.29961 7.5 5.23005 8.04497C5.15911 8.08111 5.08917 8.11888 5.02028 8.15823C5.02909 7.88439 5.04172 7.64112 5.05982 7.41959C5.11531 6.74043 5.2095 6.48863 5.27248 6.36502C5.51217 5.89462 5.89462 5.51217 6.36502 5.27248C6.48863 5.2095 6.74043 5.11531 7.41959 5.05982C8.12793 5.00194 9.05862 5 10.5 5ZM5 20.5433V29.5C5 30.9414 5.00194 31.8721 5.05982 32.5804C5.11531 33.2596 5.2095 33.5114 5.27248 33.635C5.51217 34.1054 5.89462 34.4878 6.36502 34.7275C6.48863 34.7905 6.74043 34.8847 7.41959 34.9402C8.12793 34.9981 9.05862 35 10.5 35H29.5C30.9414 35 31.8721 34.9981 32.5804 34.9402C33.2596 34.8847 33.5114 34.7905 33.635 34.7275C34.076 34.5028 34.4397 34.1526 34.6809 33.7221C34.697 33.6934 34.7125 33.6644 34.7275 33.635C34.7866 33.5191 34.873 33.2905 34.9293 32.7028C34.9331 32.6636 34.9367 32.6229 34.9402 32.5804C34.9981 31.8721 35 30.9414 35 29.5V20.5433L21.9654 28.5646C20.7601 29.3063 19.2399 29.3063 18.0346 28.5646L5 20.5433ZM2.5 15.5V10.5C2.5 7.69974 2.5 6.29961 3.04497 5.23005C3.52433 4.28924 4.28924 3.52433 5.23005 3.04497C6.29961 2.5 7.69974 2.5 10.5 2.5H29.5C32.3003 2.5 33.7004 2.5 34.77 3.04497C35.7108 3.52433 36.4757 4.28924 36.955 5.23005C37.5 6.29961 37.5 7.69974 37.5 10.5V15.5V20.5V29.5C37.5 32.3003 37.5 33.7004 36.955 34.77C36.4757 35.7108 35.7108 36.4757 34.77 36.955C33.7004 37.5 32.3003 37.5 29.5 37.5H10.5C7.69974 37.5 6.29961 37.5 5.23005 36.955C4.28924 36.4757 3.52433 35.7108 3.04497 34.77C2.5 33.7004 2.5 32.3003 2.5 29.5V20.5V15.5ZM29.5 10H10.5C9.05862 10 8.12793 10.0019 7.41959 10.0598C6.74043 10.1153 6.48863 10.2095 6.36502 10.2725C5.89462 10.5122 5.51217 10.8946 5.27248 11.365C5.2095 11.4886 5.11531 11.7404 5.05982 12.4196C5.04172 12.6411 5.02909 12.8844 5.02028 13.1582C5.08917 13.1189 5.15911 13.0811 5.23005 13.045C6.29961 12.5 7.69974 12.5 10.5 12.5H29.5C32.3003 12.5 33.7004 12.5 34.77 13.045C34.8409 13.0811 34.9108 13.1189 34.9797 13.1582C34.9709 12.8844 34.9583 12.6411 34.9402 12.4196C34.8847 11.7404 34.7905 11.4886 34.7275 11.365C34.4878 10.8946 34.1054 10.5122 33.635 10.2725C33.5114 10.2095 33.2596 10.1153 32.5804 10.0598C31.8721 10.0019 30.9414 10 29.5 10ZM34.9557 17.6351L20.6551 26.4354C20.2534 26.6827 19.7466 26.6827 19.3449 26.4354L5.04433 17.6351C5.04899 17.5609 5.05413 17.4892 5.05982 17.4196C5.11531 16.7404 5.2095 16.4886 5.27248 16.365C5.51217 15.8946 5.89462 15.5122 6.36502 15.2725C6.48863 15.2095 6.74043 15.1153 7.41959 15.0598C8.12793 15.0019 9.05862 15 10.5 15H29.5C30.9414 15 31.8721 15.0019 32.5804 15.0598C33.2596 15.1153 33.5114 15.2095 33.635 15.2725C34.1054 15.5122 34.4878 15.8946 34.7275 16.365C34.7905 16.4886 34.8847 16.7404 34.9402 17.4196C34.9459 17.4892 34.951 17.5609 34.9557 17.6351Z" fill="url(#paint0_linear_9437_38766)"/>
<defs>
<linearGradient id="paint0_linear_9437_38766" x1="34.2599" y1="-7.62092" x2="14.1155" y2="43.0131" gradientUnits="userSpaceOnUse">
<stop stop-color="#EEBEFF"/>
<stop offset="1" stop-color="#5228FF"/>
</linearGradient>
</defs>
</svg>
