<svg width="40" height="40" viewBox="0 0 40 40" fill="none" xmlns="http://www.w3.org/2000/svg">
<path fill-rule="evenodd" clip-rule="evenodd" d="M5.33333 6.84252H37.3333V33.1583H5.33333V31.8425V8.15831V6.84252ZM2.66667 6.84252C2.66667 5.38913 3.86057 4.21094 5.33333 4.21094H37.3333C38.8061 4.21094 40 5.38914 40 6.84252V33.1583C40 34.6117 38.8061 35.7899 37.3333 35.7899H5.33333C3.86057 35.7899 2.66667 34.6117 2.66667 33.1583H1.33333C0.596954 33.1583 0 32.5692 0 31.8425C0 31.1158 0.596954 30.5267 1.33333 30.5267H2.66667V9.4741H1.33333C0.596954 9.4741 0 8.885 0 8.15831C0 7.43162 0.596954 6.84252 1.33333 6.84252L2.66667 6.84252ZM26.6667 25.2636C29.6122 25.2636 32 22.9072 32 20.0004C32 17.0936 29.6122 14.7373 26.6667 14.7373C23.7211 14.7373 21.3333 17.0936 21.3333 20.0004C21.3333 22.9072 23.7211 25.2636 26.6667 25.2636ZM26.6667 27.8951C31.0849 27.8951 34.6667 24.3606 34.6667 20.0004C34.6667 15.6403 31.0849 12.1057 26.6667 12.1057C22.2484 12.1057 18.6667 15.6403 18.6667 20.0004C18.6667 24.3606 22.2484 27.8951 26.6667 27.8951ZM29.3333 20.0004C29.3333 21.4538 28.1394 22.632 26.6667 22.632C25.1939 22.632 24 21.4538 24 20.0004C24 18.547 25.1939 17.3688 26.6667 17.3688C28.1394 17.3688 29.3333 18.547 29.3333 20.0004ZM13.3333 19.6484C14.1304 19.1933 14.6667 18.3429 14.6667 17.3688C14.6667 15.9155 13.4728 14.7373 12 14.7373C10.5272 14.7373 9.33333 15.9155 9.33333 17.3688C9.33333 18.3429 9.8696 19.1933 10.6667 19.6484V23.9478C10.6667 24.6745 11.2636 25.2636 12 25.2636C12.7364 25.2636 13.3333 24.6745 13.3333 23.9478V19.6484Z" fill="#5C5958"/>
<path fill-rule="evenodd" clip-rule="evenodd" d="M5.33333 6.84252H37.3333V33.1583H5.33333V31.8425V8.15831V6.84252ZM2.66667 6.84252C2.66667 5.38913 3.86057 4.21094 5.33333 4.21094H37.3333C38.8061 4.21094 40 5.38914 40 6.84252V33.1583C40 34.6117 38.8061 35.7899 37.3333 35.7899H5.33333C3.86057 35.7899 2.66667 34.6117 2.66667 33.1583H1.33333C0.596954 33.1583 0 32.5692 0 31.8425C0 31.1158 0.596954 30.5267 1.33333 30.5267H2.66667V9.4741H1.33333C0.596954 9.4741 0 8.885 0 8.15831C0 7.43162 0.596954 6.84252 1.33333 6.84252L2.66667 6.84252ZM26.6667 25.2636C29.6122 25.2636 32 22.9072 32 20.0004C32 17.0936 29.6122 14.7373 26.6667 14.7373C23.7211 14.7373 21.3333 17.0936 21.3333 20.0004C21.3333 22.9072 23.7211 25.2636 26.6667 25.2636ZM26.6667 27.8951C31.0849 27.8951 34.6667 24.3606 34.6667 20.0004C34.6667 15.6403 31.0849 12.1057 26.6667 12.1057C22.2484 12.1057 18.6667 15.6403 18.6667 20.0004C18.6667 24.3606 22.2484 27.8951 26.6667 27.8951ZM29.3333 20.0004C29.3333 21.4538 28.1394 22.632 26.6667 22.632C25.1939 22.632 24 21.4538 24 20.0004C24 18.547 25.1939 17.3688 26.6667 17.3688C28.1394 17.3688 29.3333 18.547 29.3333 20.0004ZM13.3333 19.6484C14.1304 19.1933 14.6667 18.3429 14.6667 17.3688C14.6667 15.9155 13.4728 14.7373 12 14.7373C10.5272 14.7373 9.33333 15.9155 9.33333 17.3688C9.33333 18.3429 9.8696 19.1933 10.6667 19.6484V23.9478C10.6667 24.6745 11.2636 25.2636 12 25.2636C12.7364 25.2636 13.3333 24.6745 13.3333 23.9478V19.6484Z" fill="url(#paint0_linear_9437_38771)"/>
<defs>
<linearGradient id="paint0_linear_9437_38771" x1="36.2971" y1="-4.92072" x2="21.1692" y2="43.2437" gradientUnits="userSpaceOnUse">
<stop stop-color="#EEBEFF"/>
<stop offset="1" stop-color="#5228FF"/>
</linearGradient>
</defs>
</svg>
