<svg xmlns="http://www.w3.org/2000/svg" width="80" height="80" fill="none">
    <g clip-path="url(#a)">
        <g filter="url(#b)">
            <path
                fill="url(#c)"
                d="M0 20C0 8.954 8.954 0 20 0h40c11.046 0 20 8.954 20 20v40c0 11.046-8.954 20-20 20H20C8.954 80 0 71.046 0 60V20Z"
            />
        </g>
        <g filter="url(#d)">
            <path fill="url(#e)" d="M30 25a1 1 0 0 1 1-1h18a1 1 0 0 1 1 1v3a1 1 0 0 1-1 1H31a1 1 0 0 1-1-1v-3Z" />
            <path fill="url(#f)" d="M30 32a1 1 0 0 1 1-1h18a1 1 0 0 1 1 1v3a1 1 0 0 1-1 1H31a1 1 0 0 1-1-1v-3Z" />
            <path fill="url(#g)" d="M30 39a1 1 0 0 1 1-1h18a1 1 0 0 1 1 1v4a1 1 0 0 1-1 1H31a1 1 0 0 1-1-1v-4Z" />
            <path
                fill="url(#h)"
                d="M30 47a1 1 0 0 1 1-1h18a1 1 0 0 1 1 1v3.382a1 1 0 0 1-.553.894l-9 4.5a1 1 0 0 1-.894 0l-9-4.5a1 1 0 0 1-.553-.894V47Z"
            />
        </g>
    </g>
    <defs>
        <linearGradient id="c" x1="31.111" x2="30.778" y1="-36.583" y2="88.441" gradientUnits="userSpaceOnUse">
            <stop stop-color="#fff" />
            <stop offset="1" stop-color="#DED6FF" />
        </linearGradient>
        <linearGradient id="e" x1="39.5" x2="39.5" y1="24" y2="55.882" gradientUnits="userSpaceOnUse">
            <stop stop-color="#6D4AFF" stop-opacity=".25" />
            <stop offset="1" stop-color="#6D4AFF" stop-opacity=".5" />
        </linearGradient>
        <linearGradient id="f" x1="39.5" x2="39.5" y1="24" y2="55.882" gradientUnits="userSpaceOnUse">
            <stop stop-color="#6D4AFF" stop-opacity=".25" />
            <stop offset="1" stop-color="#6D4AFF" stop-opacity=".5" />
        </linearGradient>
        <linearGradient id="g" x1="39.5" x2="39.5" y1="24" y2="55.882" gradientUnits="userSpaceOnUse">
            <stop stop-color="#6D4AFF" stop-opacity=".25" />
            <stop offset="1" stop-color="#6D4AFF" stop-opacity=".5" />
        </linearGradient>
        <linearGradient id="h" x1="39.5" x2="39.5" y1="24" y2="55.882" gradientUnits="userSpaceOnUse">
            <stop stop-color="#6D4AFF" stop-opacity=".25" />
            <stop offset="1" stop-color="#6D4AFF" stop-opacity=".5" />
        </linearGradient>
        <filter
            id="b"
            width="80"
            height="83.125"
            x="0"
            y="-1.875"
            color-interpolation-filters="sRGB"
            filterUnits="userSpaceOnUse"
        >
            <feFlood flood-opacity="0" result="BackgroundImageFix" />
            <feBlend in="SourceGraphic" in2="BackgroundImageFix" result="shape" />
            <feColorMatrix in="SourceAlpha" result="hardAlpha" values="0 0 0 0 0 0 0 0 0 0 0 0 0 0 0 0 0 0 127 0" />
            <feOffset dy="-1.875" />
            <feGaussianBlur stdDeviation="1.25" />
            <feComposite in2="hardAlpha" k2="-1" k3="1" operator="arithmetic" />
            <feColorMatrix values="0 0 0 0 0.661961 0 0 0 0 0.580392 0 0 0 0 0.988235 0 0 0 0.2 0" />
            <feBlend in2="shape" result="effect1_innerShadow_15606_3166" />
            <feColorMatrix in="SourceAlpha" result="hardAlpha" values="0 0 0 0 0 0 0 0 0 0 0 0 0 0 0 0 0 0 127 0" />
            <feOffset dy="1.25" />
            <feGaussianBlur stdDeviation="1.25" />
            <feComposite in2="hardAlpha" k2="-1" k3="1" operator="arithmetic" />
            <feColorMatrix values="0 0 0 0 1 0 0 0 0 1 0 0 0 0 1 0 0 0 0.3 0" />
            <feBlend in2="effect1_innerShadow_15606_3166" result="effect2_innerShadow_15606_3166" />
        </filter>
        <filter
            id="d"
            width="21.875"
            height="35.632"
            x="28.125"
            y="22.125"
            color-interpolation-filters="sRGB"
            filterUnits="userSpaceOnUse"
        >
            <feFlood flood-opacity="0" result="BackgroundImageFix" />
            <feBlend in="SourceGraphic" in2="BackgroundImageFix" result="shape" />
            <feColorMatrix in="SourceAlpha" result="hardAlpha" values="0 0 0 0 0 0 0 0 0 0 0 0 0 0 0 0 0 0 127 0" />
            <feOffset dy="-1.875" />
            <feGaussianBlur stdDeviation="1.25" />
            <feComposite in2="hardAlpha" k2="-1" k3="1" operator="arithmetic" />
            <feColorMatrix values="0 0 0 0 0.310588 0 0 0 0 0.172549 0 0 0 0 0.862745 0 0 0 0.15 0" />
            <feBlend in2="shape" result="effect1_innerShadow_15606_3166" />
            <feColorMatrix in="SourceAlpha" result="hardAlpha" values="0 0 0 0 0 0 0 0 0 0 0 0 0 0 0 0 0 0 127 0" />
            <feOffset dx="-2.5" dy="1.875" />
            <feGaussianBlur stdDeviation=".938" />
            <feComposite in2="hardAlpha" k2="-1" k3="1" operator="arithmetic" />
            <feColorMatrix values="0 0 0 0 1 0 0 0 0 1 0 0 0 0 1 0 0 0 0.1 0" />
            <feBlend in2="effect1_innerShadow_15606_3166" result="effect2_innerShadow_15606_3166" />
        </filter>
        <clipPath id="a"><path fill="#fff" d="M0 0h80v80H0z" /></clipPath>
    </defs>
</svg>
