<svg xmlns="http://www.w3.org/2000/svg" width="80" height="80" fill="none">
    <g filter="url(#a)">
        <path
            fill="url(#b)"
            d="M0 20C0 8.954 8.954 0 20 0h40c11.046 0 20 8.954 20 20v40c0 11.046-8.954 20-20 20H20C8.954 80 0 71.046 0 60V20Z"
        />
    </g>
    <g filter="url(#c)">
        <path
            fill="url(#d)"
            fill-rule="evenodd"
            d="M40 54c7.732 0 14-6.268 14-14s-6.268-14-14-14-14 6.268-14 14 6.268 14 14 14Zm5.707-8.293a1 1 0 0 1-1.414 0L40 41.414l-4.293 4.293a1 1 0 0 1-1.414-1.414L38.586 40l-4.293-4.293a1 1 0 0 1 1.414-1.414L40 38.586l4.293-4.293a1 1 0 0 1 1.414 1.414L41.414 40l4.293 4.293a1 1 0 0 1 0 1.414Z"
            clip-rule="evenodd"
        />
    </g>
    <defs>
        <filter
            id="a"
            width="80"
            height="83.125"
            x="0"
            y="-1.875"
            color-interpolation-filters="sRGB"
            filterUnits="userSpaceOnUse"
        >
            <feFlood flood-opacity="0" result="BackgroundImageFix" />
            <feBlend in="SourceGraphic" in2="BackgroundImageFix" result="shape" />
            <feColorMatrix in="SourceAlpha" result="hardAlpha" values="0 0 0 0 0 0 0 0 0 0 0 0 0 0 0 0 0 0 127 0" />
            <feOffset dy="-1.875" />
            <feGaussianBlur stdDeviation="1.25" />
            <feComposite in2="hardAlpha" k2="-1" k3="1" operator="arithmetic" />
            <feColorMatrix values="0 0 0 0 0.988235 0 0 0 0 0.661961 0 0 0 0 0.580392 0 0 0 0.2 0" />
            <feBlend in2="shape" result="effect1_innerShadow_15606_3167" />
            <feColorMatrix in="SourceAlpha" result="hardAlpha" values="0 0 0 0 0 0 0 0 0 0 0 0 0 0 0 0 0 0 127 0" />
            <feOffset dy="1.25" />
            <feGaussianBlur stdDeviation="1.25" />
            <feComposite in2="hardAlpha" k2="-1" k3="1" operator="arithmetic" />
            <feColorMatrix values="0 0 0 0 1 0 0 0 0 1 0 0 0 0 1 0 0 0 0.3 0" />
            <feBlend in2="effect1_innerShadow_15606_3167" result="effect2_innerShadow_15606_3167" />
        </filter>
        <filter
            id="c"
            width="29.875"
            height="31.75"
            x="24.125"
            y="24.125"
            color-interpolation-filters="sRGB"
            filterUnits="userSpaceOnUse"
        >
            <feFlood flood-opacity="0" result="BackgroundImageFix" />
            <feBlend in="SourceGraphic" in2="BackgroundImageFix" result="shape" />
            <feColorMatrix in="SourceAlpha" result="hardAlpha" values="0 0 0 0 0 0 0 0 0 0 0 0 0 0 0 0 0 0 127 0" />
            <feOffset dy="-1.875" />
            <feGaussianBlur stdDeviation="1.25" />
            <feComposite in2="hardAlpha" k2="-1" k3="1" operator="arithmetic" />
            <feColorMatrix values="0 0 0 0 0.862745 0 0 0 0 0.333595 0 0 0 0 0.172549 0 0 0 0.2 0" />
            <feBlend in2="shape" result="effect1_innerShadow_15606_3167" />
            <feColorMatrix in="SourceAlpha" result="hardAlpha" values="0 0 0 0 0 0 0 0 0 0 0 0 0 0 0 0 0 0 127 0" />
            <feOffset dx="-2.5" dy="1.875" />
            <feGaussianBlur stdDeviation=".938" />
            <feComposite in2="hardAlpha" k2="-1" k3="1" operator="arithmetic" />
            <feColorMatrix values="0 0 0 0 1 0 0 0 0 1 0 0 0 0 1 0 0 0 0.1 0" />
            <feBlend in2="effect1_innerShadow_15606_3167" result="effect2_innerShadow_15606_3167" />
        </filter>
        <radialGradient
            id="d"
            cx="0"
            cy="0"
            r="1"
            gradientTransform="matrix(20.22225 -14.69135 16.94694 23.327 29.889 45.53)"
            gradientUnits="userSpaceOnUse"
        >
            <stop stop-color="#FF845E" />
            <stop offset="1" stop-color="#FFB39B" />
        </radialGradient>
        <linearGradient id="b" x1="33.846" x2="33.846" y1="-.001" y2="79.999" gradientUnits="userSpaceOnUse">
            <stop stop-color="#FFF7F5" />
            <stop offset="1" stop-color="#FFE0D6" />
        </linearGradient>
    </defs>
</svg>
