<svg xmlns="http://www.w3.org/2000/svg" width="80" height="80" fill="none">
    <g filter="url(#a)">
        <path
            fill="url(#b)"
            d="M0 20C0 8.954 8.954 0 20 0h40c11.046 0 20 8.954 20 20v40c0 11.046-8.954 20-20 20H20C8.954 80 0 71.046 0 60V20Z"
        />
    </g>
    <g filter="url(#c)">
        <path
            fill="url(#d)"
            fill-rule="evenodd"
            d="M30 26a1 1 0 1 0 0 2h1v2.305c0 1.723 0 2.584.222 3.378a6 6 0 0 0 .954 1.95c.49.663 1.17 1.192 2.53 2.25l1.365 1.06v.001c.557.434 1.004.781 1.39 1.056-.386.275-.833.622-1.39 1.056l-1.365 1.061c-1.36 1.058-2.04 1.587-2.53 2.25a6 6 0 0 0-.954 1.95C31 47.111 31 47.972 31 49.695V52h-1a1 1 0 1 0 0 2h20a1 1 0 1 0 0-2h-1v-2.305c0-1.723 0-2.584-.222-3.378a6 6 0 0 0-.954-1.95c-.49-.663-1.17-1.192-2.53-2.25l-1.365-1.06c-.557-.435-1.004-.782-1.39-1.057.386-.275.833-.622 1.39-1.056l1.365-1.061c1.36-1.058 2.04-1.587 2.53-2.25a6 6 0 0 0 .954-1.95c.222-.794.222-1.655.222-3.378V28h1a1 1 0 1 0 0-2H30Zm17 26v-2.305c0-1.836-.017-2.372-.148-2.839a3.998 3.998 0 0 0-.636-1.3c-.288-.39-.7-.732-2.15-1.86l-1.365-1.061c-1.551-1.207-1.885-1.419-2.178-1.498a2 2 0 0 0-1.046 0c-.293.08-.627.291-2.178 1.498l-1.365 1.061c-1.45 1.128-1.862 1.47-2.15 1.86-.29.391-.505.832-.636 1.3-.13.467-.148 1.003-.148 2.84V52h14Zm0-24H33v2.305c0 1.836.017 2.372.148 2.839.131.468.347.909.636 1.3.288.39.7.732 2.15 1.86l1.365 1.061c1.551 1.207 1.885 1.419 2.178 1.498a2 2 0 0 0 1.046 0c.293-.08.627-.291 2.178-1.498l1.365-1.061c1.45-1.128 1.862-1.47 2.15-1.86.29-.391.505-.832.636-1.3.13-.467.148-1.003.148-2.84V28Z"
            clip-rule="evenodd"
        />
    </g>
    <path
        fill="#fff"
        fill-rule="evenodd"
        d="M47 52v-2.305c0-1.836-.017-2.372-.148-2.839a3.998 3.998 0 0 0-.636-1.3c-.288-.39-.7-.732-2.15-1.86l-1.365-1.061c-1.551-1.207-1.885-1.419-2.178-1.498a2 2 0 0 0-1.046 0c-.293.08-.627.291-2.178 1.498l-1.365 1.061c-1.45 1.128-1.862 1.47-2.15 1.86-.29.391-.505.832-.636 1.3-.13.467-.148 1.003-.148 2.84V52h14Zm0-24H33v2.305c0 1.836.017 2.372.148 2.839.131.468.347.909.636 1.3.288.39.7.732 2.15 1.86l1.365 1.061c1.551 1.207 1.885 1.419 2.178 1.498a2 2 0 0 0 1.046 0c.293-.08.627-.291 2.178-1.498l1.365-1.061c1.45-1.128 1.862-1.47 2.15-1.86.29-.391.505-.832.636-1.3.13-.467.148-1.003.148-2.84V28Z"
        clip-rule="evenodd"
    />
    <path
        fill="url(#e)"
        fill-opacity=".2"
        fill-rule="evenodd"
        d="M47 52v-2.305c0-1.836-.017-2.372-.148-2.839a3.998 3.998 0 0 0-.636-1.3c-.288-.39-.7-.732-2.15-1.86l-1.365-1.061c-1.551-1.207-1.885-1.419-2.178-1.498a2 2 0 0 0-1.046 0c-.293.08-.627.291-2.178 1.498l-1.365 1.061c-1.45 1.128-1.862 1.47-2.15 1.86-.29.391-.505.832-.636 1.3-.13.467-.148 1.003-.148 2.84V52h14Zm0-24H33v2.305c0 1.836.017 2.372.148 2.839.131.468.347.909.636 1.3.288.39.7.732 2.15 1.86l1.365 1.061c1.551 1.207 1.885 1.419 2.178 1.498a2 2 0 0 0 1.046 0c.293-.08.627-.291 2.178-1.498l1.365-1.061c1.45-1.128 1.862-1.47 2.15-1.86.29-.391.505-.832.636-1.3.13-.467.148-1.003.148-2.84V28Z"
        clip-rule="evenodd"
    />
    <mask id="f" width="80" height="80" x="0" y="0" maskUnits="userSpaceOnUse" style="mask-type: alpha">
        <path
            fill="#D9D9D9"
            d="M40 60c0-11.046 8.954-20 20-20h20V20C80 8.954 71.046 0 60 0H20C8.954 0 0 8.954 0 20v60h40V60Z"
        />
    </mask>
    <g filter="url(#g)" mask="url(#f)">
        <path
            fill="#2C83DC"
            fill-opacity=".5"
            d="M39 47.443A4.443 4.443 0 0 1 43.443 43c2.848 0 4.96 2.642 4.334 5.42l-6.719 29.767A1.042 1.042 0 0 1 39 77.958V47.443Z"
        />
    </g>
    <path fill="url(#h)" d="M80 40 40 80h20c11.046 0 20-8.954 20-20V40Z" />
    <path fill="#fff" fill-opacity=".5" d="M80 40 40 80h20c11.046 0 20-8.954 20-20V40Z" />
    <g filter="url(#i)"><path fill="#fff" fill-opacity=".6" d="m40 80 40-40H60c-11.046 0-20 8.954-20 20v20Z" /></g>
    <defs>
        <linearGradient id="b" x1="31.111" x2="30.778" y1="-36.583" y2="88.441" gradientUnits="userSpaceOnUse">
            <stop stop-color="#fff" />
            <stop offset="1" stop-color="#D6F5FF" />
        </linearGradient>
        <linearGradient id="d" x1="36.725" x2="36.725" y1="12.364" y2="74.182" gradientUnits="userSpaceOnUse">
            <stop stop-color="#BDEFFF" />
            <stop offset="1" stop-color="#1FA7F3" />
        </linearGradient>
        <linearGradient id="e" x1="37.916" x2="37.916" y1="16.312" y2="69.299" gradientUnits="userSpaceOnUse">
            <stop stop-color="#BDEFFF" />
            <stop offset="1" stop-color="#1FA7F3" />
        </linearGradient>
        <linearGradient id="h" x1="75" x2="53.765" y1="50" y2="98.905" gradientUnits="userSpaceOnUse">
            <stop stop-color="#B2EAFE" />
            <stop offset="1" stop-color="#27ABF4" />
        </linearGradient>
        <filter
            id="a"
            width="80"
            height="83.125"
            x="0"
            y="-1.875"
            color-interpolation-filters="sRGB"
            filterUnits="userSpaceOnUse"
        >
            <feFlood flood-opacity="0" result="BackgroundImageFix" />
            <feBlend in="SourceGraphic" in2="BackgroundImageFix" result="shape" />
            <feColorMatrix in="SourceAlpha" result="hardAlpha" values="0 0 0 0 0 0 0 0 0 0 0 0 0 0 0 0 0 0 127 0" />
            <feOffset dy="-1.875" />
            <feGaussianBlur stdDeviation="1.25" />
            <feComposite in2="hardAlpha" k2="-1" k3="1" operator="arithmetic" />
            <feColorMatrix values="0 0 0 0 0.580392 0 0 0 0 0.862745 0 0 0 0 0.988235 0 0 0 0.2 0" />
            <feBlend in2="shape" result="effect1_innerShadow_15606_3168" />
            <feColorMatrix in="SourceAlpha" result="hardAlpha" values="0 0 0 0 0 0 0 0 0 0 0 0 0 0 0 0 0 0 127 0" />
            <feOffset dy="1.25" />
            <feGaussianBlur stdDeviation="1.25" />
            <feComposite in2="hardAlpha" k2="-1" k3="1" operator="arithmetic" />
            <feColorMatrix values="0 0 0 0 1 0 0 0 0 1 0 0 0 0 1 0 0 0 0.3 0" />
            <feBlend in2="effect1_innerShadow_15606_3168" result="effect2_innerShadow_15606_3168" />
        </filter>
        <filter
            id="c"
            width="23.875"
            height="31.75"
            x="27.125"
            y="24.125"
            color-interpolation-filters="sRGB"
            filterUnits="userSpaceOnUse"
        >
            <feFlood flood-opacity="0" result="BackgroundImageFix" />
            <feBlend in="SourceGraphic" in2="BackgroundImageFix" result="shape" />
            <feColorMatrix in="SourceAlpha" result="hardAlpha" values="0 0 0 0 0 0 0 0 0 0 0 0 0 0 0 0 0 0 127 0" />
            <feOffset dy="-1.875" />
            <feGaussianBlur stdDeviation="1.25" />
            <feComposite in2="hardAlpha" k2="-1" k3="1" operator="arithmetic" />
            <feColorMatrix values="0 0 0 0 0.172549 0 0 0 0 0.513726 0 0 0 0 0.862745 0 0 0 0.2 0" />
            <feBlend in2="shape" result="effect1_innerShadow_15606_3168" />
            <feColorMatrix in="SourceAlpha" result="hardAlpha" values="0 0 0 0 0 0 0 0 0 0 0 0 0 0 0 0 0 0 127 0" />
            <feOffset dx="-2.5" dy="1.875" />
            <feGaussianBlur stdDeviation=".938" />
            <feComposite in2="hardAlpha" k2="-1" k3="1" operator="arithmetic" />
            <feColorMatrix values="0 0 0 0 1 0 0 0 0 1 0 0 0 0 1 0 0 0 0.1 0" />
            <feBlend in2="effect1_innerShadow_15606_3168" result="effect2_innerShadow_15606_3168" />
        </filter>
        <filter
            id="g"
            width="32.887"
            height="60"
            x="27"
            y="31"
            color-interpolation-filters="sRGB"
            filterUnits="userSpaceOnUse"
        >
            <feFlood flood-opacity="0" result="BackgroundImageFix" />
            <feBlend in="SourceGraphic" in2="BackgroundImageFix" result="shape" />
            <feGaussianBlur result="effect1_foregroundBlur_15606_3168" stdDeviation="6" />
        </filter>
        <filter
            id="i"
            width="41"
            height="41"
            x="40"
            y="40"
            color-interpolation-filters="sRGB"
            filterUnits="userSpaceOnUse"
        >
            <feFlood flood-opacity="0" result="BackgroundImageFix" />
            <feBlend in="SourceGraphic" in2="BackgroundImageFix" result="shape" />
            <feColorMatrix in="SourceAlpha" result="hardAlpha" values="0 0 0 0 0 0 0 0 0 0 0 0 0 0 0 0 0 0 127 0" />
            <feOffset dx="1" dy="1" />
            <feGaussianBlur stdDeviation=".5" />
            <feComposite in2="hardAlpha" k2="-1" k3="1" operator="arithmetic" />
            <feColorMatrix values="0 0 0 0 1 0 0 0 0 1 0 0 0 0 1 0 0 0 0.5 0" />
            <feBlend in2="shape" result="effect1_innerShadow_15606_3168" />
        </filter>
    </defs>
</svg>
