<svg xmlns="http://www.w3.org/2000/svg" width="384" height="216" fill="none" viewBox="0 0 384 216">
    <path
        fill="url(#paint0_linear_5741_18637)"
        d="M153.997 167.001h75.639c9.024 0 16.334-7.31 16.334-16.334v-18.099H137.663v18.099c0 9.024 7.31 16.334 16.334 16.334z"
    />
    <g filter="url(#filter0_i_5741_18637)">
        <path
            fill="url(#paint1_linear_5741_18637)"
            d="M153.997 155.254h75.639c9.024 0 16.334-7.31 16.334-16.334V76.962H137.663v61.958c0 9.024 7.31 16.334 16.334 16.334z"
        />
    </g>
    <path
        fill="#1B1340"
        d="M197.835 94.578v35.251h-7.574v-26.691a9.326 9.326 0 01-1.491 1.058c-.561.321-1.162.617-1.804.89a19.46 19.46 0 01-1.995.673 15.66 15.66 0 01-2.044.385v-6.396a31.604 31.604 0 005.578-2.212 31.68 31.68 0 004.737-2.958h4.593z"
    />
    <path
        fill="url(#paint2_linear_5741_18637)"
        d="M138 82.836h108.307V70.334c0-9.024-7.31-16.334-16.334-16.334h-75.639C145.31 54 138 61.31 138 70.334v12.502z"
    />
    <path
        fill="#E9E4DB"
        d="M227.023 65.67c1.916 0 3.428-1.513 3.428-3.378V48.378c0-1.866-1.512-3.378-3.428-3.378a3.378 3.378 0 00-3.378 3.378V62.24c0 1.916 1.513 3.428 3.378 3.428zM156.291 65.67a3.378 3.378 0 003.378-3.378V48.378a3.378 3.378 0 00-6.755 0V62.24c0 1.916 1.512 3.428 3.377 3.428z"
    />
    <path
        fill="url(#paint3_linear_5741_18637)"
        d="M245.97 138.92c0 9.024-7.31 16.334-16.334 16.334h-23.644l39.978-39.978v23.644z"
    />
    <path fill="#fff" d="M205.992 132.114c0-9.276 7.512-16.788 16.788-16.788h23.19l-39.978 39.978v-23.19z" />
    <path
        fill="#E9E4DB"
        d="M274.385 75.77a4.385 4.385 0 100-8.77 4.385 4.385 0 000 8.77zM108.565 133.782l-5.891-2.175-2.712-1.004-1.004-2.712L96.782 122l-2.175 5.891-1.004 2.712-2.712 1.004L85 133.782l5.891 2.176 2.712 1.004 1.004 2.712 2.175 5.891 2.176-5.891 1.004-2.712 2.712-1.004 5.891-2.176z"
    />
    <g>
        <path
            fill="url(#paint4_linear_5741_18637)"
            d="M53 67c0-15.464 12.536-28 28-28s28 12.536 28 28v28H81c-15.464 0-28-12.536-28-28z"
        />
    </g>
    <g>
        <path
            fill="url(#paint5_linear_5741_18637)"
            d="M274 119c0-15.464 12.536-28 28-28s28 12.536 28 28-12.536 28-28 28-28-12.536-28-28z"
        />
        <path
            fill="#fff"
            d="M301.575 116.737a4.87 4.87 0 100-9.738 4.87 4.87 0 000 9.738zM294.828 130.487c-2.904 0-4.868-3.16-3.416-5.637a11.683 11.683 0 0110.249-6.064c4.441 0 8.199 2.392 10.249 6.064 1.452 2.562-.513 5.637-3.416 5.637h-13.666z"
        />
    </g>
    <path
        fill="#fff"
        d="M80.984 55.803a1.167 1.167 0 012.032 0l3.165 5.616c.167.295.454.503.786.57l6.319 1.275c.89.18 1.243 1.264.628 1.934l-4.363 4.745c-.23.25-.339.587-.3.924l.74 6.403a1.167 1.167 0 01-1.644 1.195l-5.861-2.683a1.167 1.167 0 00-.972 0l-5.86 2.683a1.167 1.167 0 01-1.645-1.195l.74-6.403a1.167 1.167 0 00-.3-.924l-4.363-4.745a1.167 1.167 0 01.628-1.934l6.319-1.275c.332-.067.619-.275.785-.57l3.166-5.616z"
    />
    <defs>
        <linearGradient
            id="paint0_linear_5741_18637"
            x1="172.103"
            x2="245.97"
            y1="99.329"
            y2="164.141"
            gradientUnits="userSpaceOnUse"
        >
            <stop stop-color="#FAF5EB" />
            <stop offset="1" stop-color="#7D7A73" />
        </linearGradient>
        <linearGradient
            id="paint1_linear_5741_18637"
            x1="191.641"
            x2="228.21"
            y1="68.352"
            y2="163.664"
            gradientUnits="userSpaceOnUse"
        >
            <stop stop-color="#fff" />
            <stop offset="1" stop-color="#F2ECDF" />
        </linearGradient>
        <linearGradient
            id="paint2_linear_5741_18637"
            x1="192.153"
            x2="192.153"
            y1="43"
            y2="82.836"
            gradientUnits="userSpaceOnUse"
        >
            <stop stop-color="#FF8E7E" />
            <stop offset="1" stop-color="#F34262" />
        </linearGradient>
        <linearGradient
            id="paint3_linear_5741_18637"
            x1="222.618"
            x2="231.673"
            y1="130.781"
            y2="174.149"
            gradientUnits="userSpaceOnUse"
        >
            <stop stop-color="#DBD7CE" />
            <stop offset="1" stop-color="#DED9D1" stop-opacity="0" />
        </linearGradient>
        <linearGradient
            id="paint4_linear_5741_18637"
            x1="87"
            x2="57.846"
            y1="39"
            y2="103.077"
            gradientUnits="userSpaceOnUse"
        >
            <stop stop-color="#FFD66C" />
            <stop offset="1" stop-color="#FF8E4F" />
        </linearGradient>
        <linearGradient
            id="paint5_linear_5741_18637"
            x1="325.692"
            x2="306.846"
            y1="74.308"
            y2="141.615"
            gradientUnits="userSpaceOnUse"
        >
            <stop stop-color="#4CFED3" />
            <stop offset="1" stop-color="#00C1FE" />
        </linearGradient>
        <filter
            id="filter0_i_5741_18637"
            width="108.307"
            height="81.292"
            x="137.663"
            y="73.962"
            color-interpolation-filters="sRGB"
            filterUnits="userSpaceOnUse"
        >
            <feFlood flood-opacity="0" result="BackgroundImageFix" />
            <feBlend in="SourceGraphic" in2="BackgroundImageFix" result="shape" />
            <feColorMatrix in="SourceAlpha" result="hardAlpha" values="0 0 0 0 0 0 0 0 0 0 0 0 0 0 0 0 0 0 127 0" />
            <feOffset dy="-3" />
            <feGaussianBlur stdDeviation="4" />
            <feComposite in2="hardAlpha" k2="-1" k3="1" operator="arithmetic" />
            <feColorMatrix values="0 0 0 0 1 0 0 0 0 0.986667 0 0 0 0 0.96 0 0 0 1 0" />
            <feBlend in2="shape" result="effect1_innerShadow_5741_18637" />
        </filter>
    </defs>
</svg>
