<svg xmlns="http://www.w3.org/2000/svg" width="384" height="216" fill="none" viewBox="0 0 384 216">
  <defs/>
  <path fill="url(#paint0_linear)" d="M154 167h75.64c9.02 0 16.33-7.3 16.33-16.33v-18.1h-108.3v18.1c0 9.02 7.3 16.33 16.33 16.33z"/>
  <g filter="url(#filter0_i)">
    <path fill="url(#paint1_linear)" d="M154 155.25h75.64c9.02 0 16.33-7.3 16.33-16.33V76.96h-108.3v61.96c0 9.02 7.3 16.33 16.33 16.33z"/>
  </g>
  <path fill="#262A33" d="M197.84 94.58v35.25h-7.58v-26.7c-.42.38-.91.73-1.5 1.07-.55.32-1.15.61-1.8.89a15.6 15.6 0 01-4.04 1.06v-6.4a31.58 31.58 0 0010.32-5.17h4.6z"/>
  <path fill="url(#paint2_linear)" d="M137.66 82.46h108.31v-12.5c0-9.03-7.31-16.34-16.33-16.34H154a16.33 16.33 0 00-16.34 16.34v12.5z"/>
  <path fill="#D3ECFB" d="M227.02 65.67a3.39 3.39 0 003.43-3.38V48.38a3.39 3.39 0 00-3.43-3.38 3.38 3.38 0 00-3.37 3.38v13.86a3.39 3.39 0 003.37 3.43zM156.3 65.67a3.38 3.38 0 003.37-3.38V48.38a3.38 3.38 0 00-6.76 0v13.86a3.39 3.39 0 003.38 3.43z"/>
  <path fill="url(#paint3_linear)" d="M245.97 138.92c0 9.02-7.31 16.33-16.33 16.33h-23.65l39.98-39.97v23.64z"/>
  <path fill="#fff" d="M206 132.11c0-9.27 7.5-16.78 16.78-16.78h23.19l-39.98 39.97v-23.19z"/>
  <path fill="#CED2E2" d="M274.38 75.77a4.38 4.38 0 100-8.77 4.38 4.38 0 000 8.77z" opacity=".45"/>
  <path fill="#E1E4F5" d="M108.56 133.78l-5.89-2.17-2.7-1-1.01-2.72-2.18-5.89-2.17 5.9-1 2.7-2.72 1-5.89 2.18 5.9 2.18 2.7 1 1 2.71 2.18 5.9 2.18-5.9 1-2.7 2.71-1.01 5.9-2.18z"/>
  <path fill="url(#paint4_linear)" d="M53 67a28 28 0 1156 0v28H81a28 28 0 01-28-28z"/>
  <path fill="url(#paint5_linear)" d="M274 119a28 28 0 1156 0 28 28 0 01-56 0z"/>
  <path fill="#fff" d="M301.58 116.74a4.87 4.87 0 100-9.74 4.87 4.87 0 000 9.74zM294.83 130.49c-2.9 0-4.87-3.16-3.42-5.64a11.68 11.68 0 0120.5 0c1.45 2.56-.51 5.64-3.42 5.64h-13.66zM80.98 55.8c.45-.79 1.59-.79 2.04 0l3.16 5.62c.17.3.45.5.79.57l6.32 1.27c.89.18 1.24 1.27.62 1.94l-4.36 4.74c-.23.25-.34.59-.3.93l.74 6.4c.1.9-.82 1.57-1.64 1.2l-5.86-2.69c-.31-.14-.67-.14-.98 0l-5.86 2.68c-.82.38-1.75-.29-1.64-1.19l.74-6.4c.04-.34-.07-.68-.3-.93l-4.36-4.74a1.17 1.17 0 01.62-1.94L77.03 62c.34-.07.62-.28.79-.57l3.16-5.62z"/>
  <defs>
    <linearGradient id="paint0_linear" x1="172.1" x2="245.97" y1="99.33" y2="164.14" gradientUnits="userSpaceOnUse">
      <stop stop-color="#DAF6FF"/>
      <stop offset="1" stop-color="#335C82"/>
    </linearGradient>
    <linearGradient id="paint1_linear" x1="191.64" x2="228.21" y1="68.35" y2="163.66" gradientUnits="userSpaceOnUse">
      <stop stop-color="#fff"/>
      <stop offset="1" stop-color="#DAF0F8"/>
    </linearGradient>
    <linearGradient id="paint2_linear" x1="191.82" x2="191.82" y1="53.62" y2="82.46" gradientUnits="userSpaceOnUse">
      <stop stop-color="#FF7171"/>
      <stop offset="1" stop-color="#E63757"/>
    </linearGradient>
    <linearGradient id="paint3_linear" x1="222.62" x2="231.67" y1="130.78" y2="174.15" gradientUnits="userSpaceOnUse">
      <stop stop-color="#9FD1E7"/>
      <stop offset="1" stop-color="#9FD5E7" stop-opacity="0"/>
    </linearGradient>
    <linearGradient id="paint4_linear" x1="61" x2="109" y1="45.5" y2="105" gradientUnits="userSpaceOnUse">
      <stop stop-color="#FFDE67"/>
      <stop offset="1" stop-color="#FA7456"/>
    </linearGradient>
    <linearGradient id="paint5_linear" x1="274.08" x2="308.41" y1="91" y2="147.18" gradientUnits="userSpaceOnUse">
      <stop stop-color="#72D5FF"/>
      <stop offset="1" stop-color="#72B9FF"/>
    </linearGradient>
    <filter id="filter0_i" width="108.31" height="81.29" x="137.66" y="73.96" color-interpolation-filters="sRGB" filterUnits="userSpaceOnUse">
      <feFlood flood-opacity="0" result="BackgroundImageFix"/>
      <feBlend in="SourceGraphic" in2="BackgroundImageFix" result="shape"/>
      <feColorMatrix in="SourceAlpha" result="hardAlpha" values="0 0 0 0 0 0 0 0 0 0 0 0 0 0 0 0 0 0 127 0"/>
      <feOffset dy="-3"/>
      <feGaussianBlur stdDeviation="4"/>
      <feComposite in2="hardAlpha" k2="-1" k3="1" operator="arithmetic"/>
      <feColorMatrix values="0 0 0 0 0.945833 0 0 0 0 0.986458 0 0 0 0 1 0 0 0 1 0"/>
      <feBlend in2="shape" result="effect1_innerShadow"/>
    </filter>
  </defs>
</svg>
