<svg xmlns="http://www.w3.org/2000/svg" width="384" height="216" fill="none" viewBox="0 0 384 216">
    <path
        fill="url(#paint0_linear_5741_18663)"
        d="M291.211 90h-67.894c-2.395 0-4.317-1.972-4.317-4.362V43.362c0-2.39 1.952-4.362 4.317-4.362h67.865c2.395 0 4.317 1.972 4.317 4.362v42.276A4.3 4.3 0 01291.211 90z"
    />
    <path
        fill="url(#paint1_linear_5741_18663)"
        d="M254.46 68.365a4.383 4.383 0 005.554 0l34.274-28.219A4.368 4.368 0 00291.347 39h-68.19c-1.129 0-2.168.44-2.94 1.146l34.243 28.219z"
    />
    <path
        fill="url(#paint2_linear_5741_18663)"
        d="M287 178c15.464 0 28-12.536 28-28s-12.536-28-28-28-28 12.536-28 28 12.536 28 28 28z"
    />
    <path
        fill="#fff"
        d="M299.151 160.849a2.955 2.955 0 00-1.717-2.097l-4.384-1.889a.892.892 0 00-.867.092l-2.607 1.787s-3.814-1.573-6.113-4.927c-2.299-3.355-2.391-7.478-2.391-7.478l2.62-1.797a.912.912 0 00.399-.775l-.202-4.774a2.954 2.954 0 00-1.337-2.358 2.924 2.924 0 00-3.273.029l-2.076 1.424a2.706 2.706 0 00-.993 1.294c-2.843 8.256 3.118 17.251 3.118 17.251s6.226 8.812 14.953 9.138a2.531 2.531 0 001.564-.458l2.089-1.432a2.91 2.91 0 001.217-3.03z"
    />
    <path
        fill="url(#paint3_linear_5741_18663)"
        d="M230.459 178h-80.575V68h80.575a9.035 9.035 0 019.036 9.036v91.928c-.032 4.991-4.077 9.036-9.036 9.036z"
    />
    <path
        fill="#fff"
        d="M229.383 176.271h-18.822V69.891h18.822a7.692 7.692 0 017.699 7.7v90.981c-.033 4.241-3.458 7.699-7.699 7.699z"
    />
    <path
        fill="url(#paint4_linear_5741_18663)"
        d="M222.565 178h-80.576V68h80.576a9.035 9.035 0 019.036 9.036v91.928a9.035 9.035 0 01-9.036 9.036z"
    />
    <path fill="url(#paint5_linear_5741_18663)" d="M152.917 68h-10.928v110h10.928V68z" />
    <path
        fill="#fff"
        d="M188.282 119.39a6.675 6.675 0 100-13.35 6.675 6.675 0 000 13.35zM179.016 138.103c-3.963 0-6.615-4.261-4.678-7.747 2.711-4.887 7.955-8.224 13.945-8.224a15.911 15.911 0 0113.945 8.224c1.937 3.456-.715 7.747-4.678 7.747h-18.534z"
    />
    <g>
        <path
            stroke="#C2BFBC"
            stroke-miterlimit="10"
            stroke-width="1.843"
            d="M119.727 177.571c7.889 0 14.285-6.396 14.285-14.286 0-7.889-6.396-14.285-14.285-14.285-7.89 0-14.286 6.396-14.286 14.285 0 7.89 6.396 14.286 14.286 14.286z"
        />
        <path
            stroke="#C2BFBC"
            stroke-miterlimit="10"
            stroke-width="1.843"
            d="M97.532 164.388a3.964 3.964 0 013.975-3.975 3.964 3.964 0 013.975 3.975"
        />
        <path
            stroke="#C2BFBC"
            stroke-linecap="round"
            stroke-miterlimit="10"
            stroke-width="1.843"
            d="M133.973 163.286h18.614a6.064 6.064 0 016.061 6.061v8.225"
        />
        <path
            stroke="#EAE8E5"
            stroke-linecap="round"
            stroke-miterlimit="10"
            stroke-width="1.843"
            d="M69 163.286h18.614a6.064 6.064 0 016.06 6.061v8.225"
        />
        <path
            stroke="#C2BFBC"
            stroke-miterlimit="10"
            stroke-width="1.843"
            d="M83.285 177.571c7.89 0 14.286-6.396 14.286-14.286 0-7.889-6.396-14.285-14.286-14.285S69 155.396 69 163.285c0 7.89 6.396 14.286 14.285 14.286z"
        />
    </g>
    <path
        fill="url(#paint6_linear_5741_18663)"
        d="M70 68c-8.837 0-16 7.163-16 16v14.572c0 8.837 7.163 16 16 16h13.102L103.69 131v-16.428H106c8.837 0 16-7.163 16-16V84c0-8.837-7.163-16-16-16H70z"
    />
    <circle cx="76" cy="93" r="3" fill="#fff" />
    <circle cx="88" cy="93" r="3" fill="#fff" />
    <circle cx="100" cy="93" r="3" fill="#fff" />
    <defs>
        <linearGradient
            id="paint0_linear_5741_18663"
            x1="257.25"
            x2="257.25"
            y1="39"
            y2="85.5"
            gradientUnits="userSpaceOnUse"
        >
            <stop stop-color="#EAE8E5" />
            <stop offset="1" stop-color="#F5F4F2" />
        </linearGradient>
        <linearGradient
            id="paint1_linear_5741_18663"
            x1="257.252"
            x2="257.252"
            y1="32"
            y2="58.5"
            gradientUnits="userSpaceOnUse"
        >
            <stop stop-color="#F5F4F2" />
            <stop offset="1" stop-color="#fff" />
        </linearGradient>
        <linearGradient
            id="paint2_linear_5741_18663"
            x1="287"
            x2="287"
            y1="122"
            y2="178"
            gradientUnits="userSpaceOnUse"
        >
            <stop stop-color="#2AF091" />
            <stop offset="1" stop-color="#00C5A1" />
        </linearGradient>
        <linearGradient
            id="paint3_linear_5741_18663"
            x1="194.69"
            x2="194.69"
            y1="68"
            y2="178"
            gradientUnits="userSpaceOnUse"
        >
            <stop stop-color="#FF9A61" />
            <stop offset="1" stop-color="#E36425" />
        </linearGradient>
        <linearGradient
            id="paint4_linear_5741_18663"
            x1="186.795"
            x2="186.795"
            y1="68"
            y2="178"
            gradientUnits="userSpaceOnUse"
        >
            <stop stop-color="#FFB341" />
            <stop offset="1" stop-color="#EE7C3E" />
        </linearGradient>
        <linearGradient
            id="paint5_linear_5741_18663"
            x1="147.453"
            x2="147.453"
            y1="68"
            y2="178"
            gradientUnits="userSpaceOnUse"
        >
            <stop stop-color="#614B37" />
            <stop offset="1" stop-color="#651B30" />
        </linearGradient>
        <linearGradient
            id="paint6_linear_5741_18663"
            x1="91.269"
            x2="107.65"
            y1="46.798"
            y2="127.887"
            gradientUnits="userSpaceOnUse"
        >
            <stop stop-color="#ECAAFF" />
            <stop offset="1" stop-color="#6A48F6" />
        </linearGradient>
    </defs>
</svg>
