<svg xmlns="http://www.w3.org/2000/svg" width="384" height="216" fill="none" viewBox="0 0 384 216">
  <defs/>
  <path fill="url(#paint0_linear)" d="M303.54 45.14H82.94A5.94 5.94 0 0077 51.08V159h232.48V51.08a5.94 5.94 0 00-5.94-5.94z"/>
  <path fill="#383F4E" d="M91.6 58.25s-4.3-.14-5.18 4.79v3.36s.03.36 1 1.09c.99.73 3.51 2.78 4.17 2.78.67 0 3.2-2.05 4.17-2.78.98-.73 1.01-1.1 1.01-1.1v-3.35c-.88-4.93-5.18-4.79-5.18-4.79zm2.93 6.62h-5.88v-1.83c.6-2.45 2.94-2.48 2.94-2.48s2.35.03 2.94 2.48v1.83z"/>
  <path fill="#383F4E" d="M91.6 71.03s-.67-.07-1.2-.44l-3.98-2.95v5.09s.03.59.65.59h9.04c.63 0 .66-.6.66-.6v-5.08l-3.99 2.95c-.52.37-1.19.44-1.19.44z"/>
  <path fill="#39404F" d="M309.44 84.2H165.56a3.12 3.12 0 00-3.12 3.1v13.4h147V84.2z"/>
  <path fill="#383F4E" d="M276.22 59.68H164.78a2.34 2.34 0 00-2.34 2.34v8.07c0 1.29 1.05 2.33 2.34 2.33h111.44c1.29 0 2.34-1.04 2.34-2.33v-8.07c0-1.3-1.05-2.34-2.34-2.34z"/>
  <path fill="#F4F6F9" d="M309.44 100.7h-147V159h147v-58.3z"/>
  <path fill="#657EE4" d="M147.52 84.2h-59.9a2.34 2.34 0 00-2.35 2.33v9.7c0 1.3 1.05 2.34 2.34 2.34h59.91c1.3 0 2.34-1.05 2.34-2.34v-9.7c0-1.3-1.05-2.34-2.34-2.34z"/>
  <path fill="#475269" d="M113.78 114.39H86.85c-.87 0-1.58-.64-1.58-1.42 0-.77.71-1.4 1.58-1.4h26.93c.86 0 1.58.63 1.58 1.4 0 .78-.72 1.42-1.58 1.42zM103.19 125.9H86.85c-.87 0-1.58-.64-1.58-1.41 0-.78.71-1.42 1.58-1.42h16.34c.86 0 1.57.64 1.57 1.42.04.77-.67 1.4-1.57 1.4zM110.98 149.28H86.85c-.87 0-1.58-.64-1.58-1.41 0-.78.71-1.42 1.58-1.42h24.13c.86 0 1.58.64 1.58 1.42.03.77-.68 1.4-1.58 1.4z"/>
  <path fill="#F4F6F9" d="M271.19 113.45h-76.74c-.86 0-1.57-.64-1.57-1.41 0-.78.71-1.42 1.57-1.42h76.74c.86 0 1.57.64 1.57 1.42.04.77-.67 1.41-1.57 1.41zM215.25 122.21h-20.8c-.86 0-1.57-.64-1.57-1.41 0-.77.71-1.41 1.57-1.41h20.8c.87 0 1.58.64 1.58 1.4.03.82-.68 1.42-1.58 1.42z"/>
  <path fill="#475269" d="M116.78 137.59H86.85c-.87 0-1.58-.64-1.58-1.42 0-.77.71-1.4 1.58-1.4h29.93c.86 0 1.58.63 1.58 1.4 0 .78-.72 1.42-1.58 1.42z"/>
  <path fill="#383F4E" d="M297.85 73.12a7.06 7.06 0 100-14.12 7.06 7.06 0 000 14.12z"/>
  <path fill="#1F222A" d="M297.54 65.5a1.45 1.45 0 100-2.9 1.45 1.45 0 000 2.9zM295.51 69.58c-.86 0-1.44-.94-1.02-1.68a3.48 3.48 0 013.02-1.8c1.28 0 2.44.71 3.02 1.8.42.74-.16 1.68-1.03 1.68h-3.99z"/>
  <path fill="#F4F6F9" d="M182.99 109.02h-8.93a3.12 3.12 0 00-3.12 3.11v8.93c0 1.72 1.4 3.12 3.12 3.12h8.93c1.72 0 3.11-1.4 3.11-3.12v-8.93c0-1.72-1.4-3.11-3.11-3.11zM252.36 139.02h-57.9c-.87 0-1.58-.64-1.58-1.41 0-.77.71-1.41 1.57-1.41h57.9c.87 0 1.58.64 1.58 1.41.04.77-.67 1.41-1.57 1.41zM271.75 147.78h-77.3c-.86 0-1.57-.63-1.57-1.4 0-.78.71-1.42 1.57-1.42h77.3c.86 0 1.57.64 1.57 1.41.04.78-.67 1.41-1.57 1.41zM182.99 134.55h-8.93a3.12 3.12 0 00-3.12 3.12v8.93c0 1.72 1.4 3.11 3.12 3.11h8.93c1.72 0 3.11-1.4 3.11-3.11v-8.93c0-1.72-1.4-3.12-3.11-3.12z"/>
  <g filter="url(#filter0_d)" opacity=".23">
    <circle cx="141.29" cy="65.5" r="55.5" fill="#1D7EF1"/>
  </g>
  <circle cx="141.29" cy="64.5" r="29.5" fill="url(#paint1_linear)" fill-opacity=".5"/>
  <path fill="#fff" d="M133.9 57.6h3.26v3.28h-3.27v-3.27zM140.44 57.6h3.27v3.28h-3.27v-3.27zM150.26 57.6h-3.28v3.28h3.28v-3.27zM133.9 70.7h3.26v3.28h-3.27V70.7zM143.71 70.7h-3.27v3.28h3.27V70.7zM146.98 70.7h3.28v3.28h-3.28V70.7zM137.16 64.16h-3.27v3.27h3.27v-3.27zM140.44 64.16h3.27v3.27h-3.27v-3.27zM150.26 64.16h-3.28v3.27h3.28v-3.27z"/>
  <path fill="#9CA0AA" d="M109.7 181s-6.38-.2-7.7 6.87v4.82s.06.52 1.5 1.57c1.46 1.05 5.22 4 6.2 4 .98 0 4.74-2.95 6.2-4 1.44-1.05 1.5-1.57 1.5-1.57v-4.82c-1.32-7.08-7.7-6.87-7.7-6.87zm4.37 9.5h-8.74v-2.63c.89-3.52 4.37-3.56 4.37-3.56s3.48.04 4.37 3.56v2.63z"/>
  <path fill="#9CA0AA" d="M109.7 199.35s-.99-.1-1.76-.64c-.78-.54-5.94-4.22-5.94-4.22v7.3s.04.85.98.85h13.44c.94 0 .98-.85.98-.85v-7.3s-5.16 3.68-5.94 4.22c-.77.54-1.76.64-1.76.64zM174.66 183.57a2.57 2.57 0 10-5.14 0v.08l-11.17 3.56a2.58 2.58 0 00-4.63.94 2.53 2.53 0 00.37 1.9l.02.03a2.56 2.56 0 002.96.97l7.34 9.17a2.53 2.53 0 001.33 3.33h.02a2.57 2.57 0 003.36-1.33 2.52 2.52 0 00-.7-2.92l3.9-13.2a2.54 2.54 0 002.32-2.53h.02zm-7.94 15.06c-.4 0-.78.1-1.13.28l-7.17-8.98c.2-.32.32-.69.36-1.06l11.41-3.6.4.35-3.86 13v.01zM224.8 185.64h-.17a5.65 5.65 0 00-10.65.25 4.68 4.68 0 00.37 9.35h3.36v-2.21h-2.46l4.38-4.38 4.38 4.38h-2.53v2.2h-3.73v2.21h-2.53l4.38 4.38 4.38-4.38h-2.47v-2.2h3.5a4.8 4.8 0 00-.21-9.6zM280.83 183.62h-1.24v-.44a1.17 1.17 0 00-2.35 0v.44h-5.79v-.44a1.16 1.16 0 00-1.13-1.18h-.04a1.1 1.1 0 00-.79.25 1.08 1.08 0 00-.38.93v.44h-1.17a2.3 2.3 0 00-2.27 2.32V199.07a2.36 2.36 0 002.34 2.35h12.82a2.36 2.36 0 002.35-2.35V185.9a2.57 2.57 0 00-2.35-2.27zm.66 15.38a.66.66 0 01-.65.66h-12.9a.65.65 0 01-.66-.65v-11.14h14.2l.01 11.13z"/>
  <path fill="#9CA0AA" d="M271 196.1a2.01 2.01 0 01-1.5-.75l-.92.91a3.03 3.03 0 002.58 1.09c1.84 0 2.84-1 2.84-2.25v-.08a1.72 1.72 0 00-1.67-1.76 1.7 1.7 0 001.42-1.75c0-1-.92-1.92-2.42-1.83a3.4 3.4 0 00-2.5 1l.83.91a1.92 1.92 0 011.42-.66c.58 0 1 .33 1 .83 0 .67-.42 1-1.08 1h-.42l-.17 1.17h.59c.75 0 1.16.33 1.16 1.08v.1a1.08 1.08 0 01-1.16.98zM277.5 197.43c1.84 0 2.84-1.42 2.84-3.92s-1-3.83-2.84-3.83c-1.83 0-2.83 1.33-2.83 3.83s1 3.92 2.83 3.92zm.08-6.5c.67 0 1 .58 1 2.58s-.25 2.59-1 2.59c-.66 0-1-.59-1-2.59s.25-2.58 1-2.58z"/>
  <defs>
    <linearGradient id="paint0_linear" x1="199.83" x2="199.83" y1="45.14" y2="159" gradientUnits="userSpaceOnUse">
      <stop stop-color="#13151A"/>
      <stop offset="1" stop-color="#394050"/>
    </linearGradient>
    <linearGradient id="paint1_linear" x1="134.68" x2="141.29" y1="45.99" y2="94" gradientUnits="userSpaceOnUse">
      <stop stop-color="#6FB1FF"/>
      <stop offset="1" stop-color="#5AB0FF" stop-opacity=".44"/>
    </linearGradient>
    <filter id="filter0_d" width="139" height="139" x="71.79" y="7" color-interpolation-filters="sRGB" filterUnits="userSpaceOnUse">
      <feFlood flood-opacity="0" result="BackgroundImageFix"/>
      <feColorMatrix in="SourceAlpha" values="0 0 0 0 0 0 0 0 0 0 0 0 0 0 0 0 0 0 127 0"/>
      <feOffset dy="11"/>
      <feGaussianBlur stdDeviation="7"/>
      <feColorMatrix values="0 0 0 0 0.0862745 0 0 0 0 0.0980392 0 0 0 0 0.117647 0 0 0 1 0"/>
      <feBlend in2="BackgroundImageFix" result="effect1_dropShadow"/>
      <feBlend in="SourceGraphic" in2="effect1_dropShadow" result="shape"/>
    </filter>
  </defs>
</svg>
