<svg xmlns="http://www.w3.org/2000/svg" width="384" height="216" fill="none" viewBox="0 0 384 216">
    <rect width="12" height="12" x="285" y="60" fill="#fff" rx="3" />
    <path
        fill="url(#a)"
        fill-rule="evenodd"
        d="m114.52 188.574.001.001-5.188 5.758-6.666-7.338v-3.165c0-.364.423-.563.703-.33l7.396 6.142a1.932 1.932 0 0 0 2.468 0l1.286-1.068Z"
        clip-rule="evenodd"
    />
    <path
        fill="url(#b)"
        d="m117.333 186.238-2.813 2.336.001.001-3.725 3.29a1.715 1.715 0 0 1-2.234.033l-5.895-4.903v9.407a1.93 1.93 0 0 0 1.931 1.931h12.735l1.334-6.048-1.334-6.047Z"
    />
    <path
        fill="url(#c)"
        fill-rule="evenodd"
        d="M117.333 186.24v12.093h2.069a1.931 1.931 0 0 0 1.931-1.931V183.83a.429.429 0 0 0-.703-.33l-3.297 2.74Z"
        clip-rule="evenodd"
    />
    <path
        fill="url(#d)"
        d="M144.667 183a2 2 0 0 0-2 2v.667l.666.666v11.334L156.667 191l.666.667h4V185a2 2 0 0 0-2-2h-14.666Z"
    />
    <path
        fill="url(#e)"
        d="M155.762 185.667h-13.095v10.746a1.92 1.92 0 0 0 1.92 1.92h6.746l3.501-5.251a2.274 2.274 0 0 1 2.106-1.415h.393v-4.429a1.57 1.57 0 0 0-1.571-1.571Z"
    />
    <path
        fill="#B8D7FF"
        d="M151.333 198.333v-.408c0-.597.213-1.174.602-1.627l3.168-3.698c.07-.095.147-.185.23-.268l-.23.268a2.261 2.261 0 0 0-.437 1.34v4.393h-3.333Z"
    />
    <path
        fill="#8F69FF"
        d="M156.4 195.924h.68a.524.524 0 0 0 .535.397c.307 0 .511-.168.511-.415 0-.246-.211-.383-.63-.383h-.27v-.556h.235c.404 0 .57-.148.57-.369s-.18-.374-.428-.374a.425.425 0 0 0-.45.385h-.656c.023-.387.331-.942 1.102-.942.619 0 1.047.35 1.047.843a.734.734 0 0 1-.144.44.75.75 0 0 1-.378.27v.009a.74.74 0 0 1 .615.757c0 .534-.493.886-1.13.886-.677.004-1.16-.377-1.209-.948Zm3.528-2.204h.495v3.108h-.639v-2.385l-.615.415v-.628l.759-.51Z"
    />
    <path fill="url(#f)" d="m182.667 185 2.666-1.333 4.667 2.666h8v11.334l-.667.666h-12.666a2 2 0 0 1-2-2V185Z" />
    <path
        fill="url(#g)"
        fill-rule="evenodd"
        d="M189.974 183.951c.342.248.754.382 1.176.382h8.183a2 2 0 0 1 2 2v10a2 2 0 0 1-2 2h-2v-9.666c0-.921-.746-1.667-1.666-1.667h-7c-.433 0-.854-.14-1.2-.4l-1.6-1.2c-.347-.26-.768-.4-1.2-.4h-2a2 2 0 0 1 2-2h3.349c.423 0 .835.134 1.176.383l.782.568Z"
        clip-rule="evenodd"
    />
    <path
        fill="url(#h)"
        fill-rule="evenodd"
        d="M230.164 198.433c.71 1.275 2.532 1.344 3.337.126l7.51-11.356c.797-1.205.035-2.819-1.407-2.983l-14.762-1.68c-1.574-.179-2.694 1.48-1.929 2.856l.06.108 6.587 4.513-.08 7.18.684 1.236Z"
        clip-rule="evenodd"
    />
    <path
        fill="url(#i)"
        d="m230.587 197.243.667-.994 5.063-7.648a1.074 1.074 0 0 0-.781-1.658l-12.565-1.442 6.509 11.701a.652.652 0 0 0 1.107.041Z"
    />
    <path
        fill="url(#j)"
        d="M268.28 184.025c1.302-1.302 1.953-1.953 2.704-2.197a3.281 3.281 0 0 1 2.032 0c.751.244 1.402.895 2.704 2.197l3.255 3.255c1.302 1.302 1.953 1.953 2.197 2.704.215.66.215 1.372 0 2.032-.244.751-.895 1.402-2.197 2.704l-3.255 3.255c-1.302 1.302-1.953 1.954-2.704 2.197a3.281 3.281 0 0 1-2.032 0c-.751-.243-1.402-.895-2.704-2.197l-.612-.686c-.371-.415-.556-.623-.688-.859a2.454 2.454 0 0 1-.255-.669c-.058-.264-.058-.542-.058-1.098v-7.326c0-.556 0-.834.058-1.098.052-.234.138-.46.255-.669.132-.236.317-.444.688-.859l.612-.686Z"
    />
    <path
        fill="url(#k)"
        d="M268.28 184.025c1.302-1.302 1.953-1.953 2.704-2.197a3.281 3.281 0 0 1 2.032 0c.751.244 1.402.895 2.704 2.197l3.255 3.255c1.302 1.302 1.953 1.953 2.197 2.704.215.66.215 1.372 0 2.032-.244.751-.895 1.402-2.197 2.704l-3.255 3.255c-1.302 1.302-1.953 1.954-2.704 2.197a3.281 3.281 0 0 1-2.032 0c-.751-.243-1.402-.895-2.704-2.197l-.612-.686c-.371-.415-.556-.623-.688-.859a2.454 2.454 0 0 1-.255-.669c-.058-.264-.058-.542-.058-1.098v-7.326c0-.556 0-.834.058-1.098.052-.234.138-.46.255-.669.132-.236.317-.444.688-.859l.612-.686Z"
    />
    <path
        fill="url(#l)"
        d="M268.047 184.257c.651-.651.977-.976 1.352-1.098.33-.108.686-.108 1.016 0 .376.122.701.447 1.352 1.098l4.883 4.883c.651.651.977.976 1.099 1.352.107.33.107.686 0 1.016-.122.375-.448.701-1.099 1.352l-4.883 4.883c-.651.651-.976.976-1.352 1.098-.33.107-.686.107-1.016 0-.375-.122-.701-.447-1.352-1.098l-3.022-3.023c-1.303-1.302-1.954-1.953-2.198-2.704a3.296 3.296 0 0 1 0-2.032c.244-.751.895-1.402 2.198-2.704l3.022-3.023Z"
    />
    <path fill="url(#m)" d="M299 45H85a8 8 0 0 0-8 8v106h230V53a8 8 0 0 0-8-8Z" />
    <path
        fill="#D1CFCD"
        d="M276 60H165a3 3 0 0 0-3 3v6a3 3 0 0 0 3 3h111a3 3 0 0 0 3-3v-6a3 3 0 0 0-3-3Z"
        opacity=".42"
    />
    <path fill="#FAF9F7" d="M307 84H150v75h157V84Z" />
    <path
        fill="#D1CFCD"
        d="M125 84H88a3 3 0 0 0-3 3v6a3 3 0 0 0 3 3h37a3 3 0 0 0 3-3v-6a3 3 0 0 0-3-3Zm-11.217 31.561H86.846c-.861 0-1.573-.905-1.573-2 0-1.096.712-2 1.573-2h26.937c.861 0 1.572.904 1.572 2 0 1.095-.711 2-1.572 2Zm-10.593 11.512H86.846c-.861 0-1.573-.905-1.573-2s.712-2 1.573-2h16.344c.861 0 1.572.905 1.572 2 .038 1.095-.674 2-1.572 2Zm7.793 23.38H86.846c-.861 0-1.573-.905-1.573-2s.712-2 1.573-2h24.137c.861 0 1.573.905 1.573 2 .037 1.095-.674 2-1.573 2Zm5.8-11.691H86.846c-.861 0-1.573-.905-1.573-2 0-1.096.712-2 1.573-2h29.937c.861 0 1.572.904 1.572 2 0 1.095-.711 2-1.572 2Z"
        opacity=".42"
    />
    <rect width="11.851" height="11.851" x="162" y="98" fill="#EAE8E5" rx="2.222" />
    <path
        fill="#EAE8E5"
        d="M178 99.481A1.48 1.48 0 0 1 179.481 98h51.038A1.48 1.48 0 0 1 232 99.481v1.038a1.48 1.48 0 0 1-1.481 1.481h-51.038a1.48 1.48 0 0 1-1.481-1.481v-1.038Zm0 8a1.48 1.48 0 0 1 1.481-1.481h56.038a1.48 1.48 0 0 1 1.481 1.481v1.038a1.48 1.48 0 0 1-1.481 1.481h-56.038a1.48 1.48 0 0 1-1.481-1.481v-1.038Z"
    />
    <rect width="11.851" height="11.851" x="162" y="126" fill="#EAE8E5" rx="2.222" />
    <path
        fill="#EAE8E5"
        d="M178 127.481a1.48 1.48 0 0 1 1.481-1.481h56.038a1.48 1.48 0 0 1 1.481 1.481v1.038a1.48 1.48 0 0 1-1.481 1.481h-56.038a1.48 1.48 0 0 1-1.481-1.481v-1.038Zm0 8a1.48 1.48 0 0 1 1.481-1.481h63.038a1.48 1.48 0 0 1 1.481 1.481v1.038a1.48 1.48 0 0 1-1.481 1.481h-63.038a1.48 1.48 0 0 1-1.481-1.481v-1.038Z"
    />
    <circle cx="142.5" cy="65.5" r="55.5" fill="url(#n)" opacity=".2" />
    <circle cx="142" cy="66" r="29" fill="url(#o)" />
    <path
        fill="#fff"
        d="M135 59h3v3h-3v-3Zm6 0h3v3h-3v-3Zm9 0h-3v3h3v-3Zm-15 12h3v3h-3v-3Zm9 0h-3v3h3v-3Zm3 0h3v3h-3v-3Zm-9-6h-3v3h3v-3Zm3 0h3v3h-3v-3Zm9 0h-3v3h3v-3Z"
    />
    <defs>
        <linearGradient id="a" x1="109.671" x2="103.411" y1="194.435" y2="172.687" gradientUnits="userSpaceOnUse">
            <stop stop-color="#E3D9FF" />
            <stop offset="1" stop-color="#7341FF" />
        </linearGradient>
        <linearGradient id="c" x1="127.37" x2="112.969" y1="208.015" y2="176.95" gradientUnits="userSpaceOnUse">
            <stop offset=".271" stop-color="#E3D9FF" />
            <stop offset="1" stop-color="#7341FF" />
        </linearGradient>
        <linearGradient id="d" x1="158.348" x2="147.46" y1="193.024" y2="177.206" gradientUnits="userSpaceOnUse">
            <stop stop-color="#BFE8FF" />
            <stop offset=".307" stop-color="#BFABFF" />
            <stop offset="1" stop-color="#7341FF" />
        </linearGradient>
        <linearGradient id="g" x1="182.42" x2="205.563" y1="174.998" y2="200.621" gradientUnits="userSpaceOnUse">
            <stop stop-color="#7341FF" />
            <stop offset=".359" stop-color="#B487FF" />
            <stop offset="1" stop-color="#FFC8FF" />
        </linearGradient>
        <linearGradient id="h" x1="239.547" x2="227.535" y1="198.432" y2="177.718" gradientUnits="userSpaceOnUse">
            <stop offset=".066" stop-color="#8EFFEE" />
            <stop offset=".45" stop-color="#C9C7FF" />
            <stop offset="1" stop-color="#7341FF" />
        </linearGradient>
        <linearGradient id="k" x1="267.657" x2="271.287" y1="177.96" y2="200.119" gradientUnits="userSpaceOnUse">
            <stop stop-color="#6D4AFF" />
            <stop offset=".392" stop-color="#B39FFB" stop-opacity=".978" />
            <stop offset="1" stop-color="#FFE8DB" stop-opacity=".8" />
        </linearGradient>
        <linearGradient id="m" x1="192" x2="192" y1="36.5" y2="125.5" gradientUnits="userSpaceOnUse">
            <stop stop-color="#EAE8E5" />
            <stop offset="1" stop-color="#F5F4F2" />
        </linearGradient>
        <linearGradient id="n" x1="171" x2="105" y1="108" y2="20" gradientUnits="userSpaceOnUse">
            <stop stop-color="#6D4AFF" />
            <stop offset="1" stop-color="#C54AFF" stop-opacity=".2" />
        </linearGradient>
        <linearGradient id="o" x1="144.788" x2="160.962" y1="17.481" y2="91.654" gradientUnits="userSpaceOnUse">
            <stop stop-color="#ECAAFF" />
            <stop offset="1" stop-color="#6A48F6" />
        </linearGradient>
        <radialGradient
            id="b"
            cx="0"
            cy="0"
            r="1"
            gradientTransform="matrix(18.6588 0 0 17.5874 118.597 187.718)"
            gradientUnits="userSpaceOnUse"
        >
            <stop offset=".556" stop-color="#6D4AFF" />
            <stop offset=".994" stop-color="#AA8EFF" />
        </radialGradient>
        <radialGradient
            id="e"
            cx="0"
            cy="0"
            r="1"
            gradientTransform="matrix(29.9456 0 0 26.7606 156.772 175.099)"
            gradientUnits="userSpaceOnUse"
        >
            <stop offset=".503" stop-color="#6D4AFF" />
            <stop offset=".994" stop-color="#06B8FF" />
        </radialGradient>
        <radialGradient
            id="f"
            cx="0"
            cy="0"
            r="1"
            gradientTransform="matrix(28.6117 0 0 30.368 199.284 173.591)"
            gradientUnits="userSpaceOnUse"
        >
            <stop offset=".556" stop-color="#6D4AFF" />
            <stop offset="1" stop-color="#FF50C3" />
        </radialGradient>
        <radialGradient
            id="i"
            cx="0"
            cy="0"
            r="1"
            gradientTransform="matrix(-1.24824 19.01748 -24.52513 -1.60974 230.605 180.144)"
            gradientUnits="userSpaceOnUse"
        >
            <stop offset=".403" stop-color="#6D4AFF" />
            <stop offset=".994" stop-color="#00F0C3" />
        </radialGradient>
        <radialGradient
            id="j"
            cx="0"
            cy="0"
            r="1"
            gradientTransform="matrix(8.22448 -13.2348 20.6965 12.8614 268.3 200.697)"
            gradientUnits="userSpaceOnUse"
        >
            <stop stop-color="#FFD580" />
            <stop offset=".094" stop-color="#F6C592" />
            <stop offset=".205" stop-color="#EBB6A2" />
            <stop offset=".324" stop-color="#DFA5AF" />
            <stop offset=".429" stop-color="#D397BE" />
            <stop offset=".534" stop-color="#C486CB" />
            <stop offset=".649" stop-color="#B578D9" />
            <stop offset=".771" stop-color="#A166E5" />
            <stop offset=".891" stop-color="#8B57F2" />
            <stop offset="1" stop-color="#704CFF" />
        </radialGradient>
        <radialGradient
            id="l"
            cx="0"
            cy="0"
            r="1"
            gradientTransform="rotate(-58.142 312.265 -140.676) scale(12.5334 19.5997)"
            gradientUnits="userSpaceOnUse"
        >
            <stop stop-color="#FFD580" />
            <stop offset=".094" stop-color="#F6C592" />
            <stop offset=".205" stop-color="#EBB6A2" />
            <stop offset=".324" stop-color="#DFA5AF" />
            <stop offset=".429" stop-color="#D397BE" />
            <stop offset=".534" stop-color="#C486CB" />
            <stop offset=".649" stop-color="#B578D9" />
            <stop offset=".771" stop-color="#A166E5" />
            <stop offset=".891" stop-color="#8B57F2" />
            <stop offset="1" stop-color="#704CFF" />
        </radialGradient>
    </defs>
</svg>
