<svg xmlns="http://www.w3.org/2000/svg" width="384" height="216" fill="none" viewBox="0 0 384 216">
  <defs/>
  <path fill="url(#paint0_linear)" d="M192 192a80 80 0 100-160 80 80 0 000 160z"/>
  <path fill="#fff" d="M214.7 99.05h-44.73a6.59 6.59 0 00-6.59 6.58v56.15a6.59 6.59 0 006.59 6.59h44.73a6.59 6.59 0 006.59-6.59v-56.15a6.59 6.59 0 00-6.59-6.58z"/>
  <path fill="#7092B0" d="M188.3 145.88H176v1.65h12.3v-1.65zM207.7 145.88h-17.1v1.65h17.1v-1.65zM199.04 152.52h-14.57v1.64h14.57v-1.64zM192.5 140.05a14.06 14.06 0 100-28.12 14.06 14.06 0 000 28.12z"/>
  <path fill="#DFEAF4" d="M192.5 128.74a5.36 5.36 0 100-10.72 5.36 5.36 0 000 10.72zM192.5 140.05c3.95 0 7.5-1.6 10.04-4.22a12.8 12.8 0 00-20.08 0 14.08 14.08 0 0010.04 4.22z"/>
  <path fill="#788DFF" d="M198.6 105.41h-12.26a.94.94 0 01-.93-.94c0-.52.42-.94.93-.94h12.26c.51 0 .93.42.93.94s-.42.94-.93.94z"/>
  <path fill="#353558" fill-rule="evenodd" d="M203.21 32.78l-17.8 66.33h15.73l16.82-62.8a79.5 79.5 0 00-14.75-3.53z" clip-rule="evenodd"/>
  <path fill="url(#paint1_linear)" fill-rule="evenodd" d="M166.96 36l16.9 63.11h15.73l-17.83-66.46a79.52 79.52 0 00-14.8 3.35z" clip-rule="evenodd"/>
  <path fill="#353558" d="M238.74 92.53a4.38 4.38 0 100-8.77 4.38 4.38 0 000 8.77z"/>
  <path fill="#fff" d="M153.45 114.37l-5.9-2.18-2.7-1-1.01-2.71-2.18-5.9-2.17 5.9-1 2.71-2.72 1-5.89 2.18 5.9 2.18 2.7 1 1 2.71 2.19 5.9 2.17-5.9 1-2.71 2.72-1 5.89-2.18z"/>
  <defs>
    <linearGradient id="paint0_linear" x1="192" x2="192" y1="32" y2="192" gradientUnits="userSpaceOnUse">
      <stop stop-color="#DFEAF4"/>
      <stop offset="1" stop-color="#E2DFF4"/>
    </linearGradient>
    <linearGradient id="paint1_linear" x1="170.82" x2="190.12" y1="24" y2="108.24" gradientUnits="userSpaceOnUse">
      <stop stop-color="#A5FFFF"/>
      <stop offset="1" stop-color="#7280FF"/>
    </linearGradient>
  </defs>
</svg>
