<svg xmlns="http://www.w3.org/2000/svg" width="384" height="216" fill="none" viewBox="0 0 384 216">
    <path
        fill="url(#paint0_linear_5741_18653)"
        d="M192 192c44.183 0 80-35.817 80-80s-35.817-80-80-80-80 35.817-80 80 35.817 80 80 80z"
    />
    <path
        fill="#fff"
        d="M214.701 99.046h-44.732a6.589 6.589 0 00-6.588 6.588v56.146a6.589 6.589 0 006.588 6.588h44.732a6.589 6.589 0 006.588-6.588v-56.146a6.589 6.589 0 00-6.588-6.588z"
    />
    <path
        fill="#D1CFCD"
        d="M187.472 145.883h-10.65a.822.822 0 100 1.643h10.65a.822.822 0 100-1.643zM206.886 145.883h-15.458a.822.822 0 100 1.643h15.458a.822.822 0 100-1.643zM198.214 152.516h-12.922a.82.82 0 100 1.643h12.922a.822.822 0 100-1.643z"
    />
    <path
        fill="#F5F4F2"
        d="M192.502 140.051c7.764 0 14.059-6.294 14.059-14.059 0-7.764-6.295-14.058-14.059-14.058-7.764 0-14.059 6.294-14.059 14.058 0 7.765 6.295 14.059 14.059 14.059z"
    />
    <path
        fill="#D1CFCD"
        d="M192.502 128.736a5.356 5.356 0 100-10.712 5.356 5.356 0 000 10.712zM192.502 140.051c3.95 0 7.498-1.607 10.042-4.218-2.343-2.979-5.959-4.854-10.042-4.854-4.084 0-7.699 1.908-10.042 4.854 2.544 2.577 6.092 4.218 10.042 4.218z"
    />
    <path
        fill="#6D4AFF"
        d="M198.605 105.412h-12.268a.94.94 0 01-.925-.942.94.94 0 01.925-.941h12.268a.94.94 0 01.925.941.94.94 0 01-.925.942z"
    />
    <path
        fill="#372580"
        fill-rule="evenodd"
        d="M203.211 32.78l-17.799 66.333h15.732l16.819-62.806a79.496 79.496 0 00-14.752-3.528z"
        clip-rule="evenodd"
    />
    <path
        fill="url(#paint1_linear_5741_18653)"
        fill-rule="evenodd"
        d="M166.96 35.997l16.902 63.116h15.732L181.76 32.65a79.525 79.525 0 00-14.8 3.348z"
        clip-rule="evenodd"
    />
    <path fill="#372580" d="M238.737 92.534a4.385 4.385 0 100-8.77 4.385 4.385 0 000 8.77z" />
    <path
        fill="#fff"
        d="M153.448 114.37l-5.892-2.175-2.711-1.005-1.004-2.711-2.176-5.891-2.175 5.891-1.005 2.711-2.711 1.005-5.891 2.175 5.891 2.176 2.711 1.004 1.005 2.712 2.175 5.891 2.176-5.891 1.004-2.712 2.711-1.004 5.892-2.176z"
    />
    <defs>
        <linearGradient id="paint0_linear_5741_18653" x1="192" x2="192" y1="32" y2="192" gradientUnits="userSpaceOnUse">
            <stop stop-color="#F5F2EB" />
            <stop offset="1" stop-color="#E6E2DC" />
        </linearGradient>
        <linearGradient
            id="paint1_linear_5741_18653"
            x1="170.823"
            x2="190.117"
            y1="24"
            y2="108.236"
            gradientUnits="userSpaceOnUse"
        >
            <stop stop-color="#D7B7FF" />
            <stop offset="1" stop-color="#6D4AFF" />
        </linearGradient>
    </defs>
</svg>
