<svg xmlns="http://www.w3.org/2000/svg" width="384" height="216" fill="none" viewBox="0 0 384 216">
  <defs/>
  <g filter="url(#filter0_i)">
    <path fill="url(#paint0_linear)" d="M191.87 150.01H131v22.35c0 4.36 3.7 7.94 8.3 7.94h105.56c4.55 0 8.3-3.54 8.3-7.94V150h-61.3z"/>
  </g>
  <g filter="url(#filter1_i)">
    <path fill="url(#paint1_linear)" d="M253.09 149.35l-10.7-95.76a5.3 5.3 0 00-5.34-4.59h-89.96a5.3 5.3 0 00-5.33 4.6l-10.7 95.75c-.58 5.18 3.66 9.7 9.11 9.7h103.8c5.45.03 9.73-4.48 9.12-9.7z"/>
  </g>
  <path fill="url(#paint2_linear)" d="M246.25 123.31l-7.29-68.43a2.23 2.23 0 00-2.28-1.95h-89.22c-1.18 0-2.16.86-2.28 1.95l-7.25 68.43a4.52 4.52 0 004.64 4.9H241.61c2.77 0 4.92-2.3 4.64-4.9z"/>
  <path fill="#fff" d="M211.07 81.72c-2.06-6.67-8.92-11.68-17.15-11.68-6.7 0-12.53 3.34-15.62 8.2-.68-.16-1.54-.31-2.4-.31-5.15 0-9.43 3.8-9.43 8.34 0 .46 0 1.07.17 1.52-6 1.06-10.64 5.92-10.64 11.53 0 6.53 6 11.84 13.38 11.84H209.36c9.26 0 16.64-6.68 16.64-14.72 0-7.59-6.52-13.96-14.93-14.72z"/>
  <path fill="#94ADD0" d="M192.58 89.63a.82.82 0 00-1.08 0L179.7 99.78a.82.82 0 00.53 1.44h5.12v10.94h13.4v-10.94h5.05a.82.82 0 00.53-1.44l-11.74-10.15z"/>
  <path fill="#fff" d="M237.66 171.9c1.55 0 2.8-1.21 2.8-2.7a2.75 2.75 0 00-2.8-2.68c-1.55 0-2.8 1.2-2.8 2.69a2.75 2.75 0 002.8 2.68z"/>
  <path fill="url(#paint3_linear)" d="M219 49a24 24 0 1148 0 24 24 0 01-48 0z"/>
  <path fill="#fff" fill-rule="evenodd" d="M248.25 42.58l3.76-3.82 1.25 1.2L234 59.23l-1.23-1.23 3.5-3.5a17.8 17.8 0 01-4.52-5.02l-.31-.47.31-.53c2.75-4.18 5.71-7 11.24-7 1.81-.05 3.61.33 5.25 1.1zm-7.13 4.53c-.79.8-.99 2-.48 3l3.5-3.5c-1-.5-2.22-.3-3.02.5zm4.28-1.73a4.23 4.23 0 00-2.4-.76 4.38 4.38 0 00-4.38 4.38c0 .86.27 1.7.76 2.4l-1.86 1.83a14.75 14.75 0 01-3.97-4.23c2.45-3.5 4.9-5.78 9.45-5.78a10.3 10.3 0 013.85.69l-1.45 1.47z" clip-rule="evenodd"/>
  <path fill="#fff" d="M254.24 48.53a19.66 19.66 0 00-3.5-4.27l-1.27 1.24a16.16 16.16 0 012.98 3.5c-2.45 3.5-4.9 5.77-9.45 5.77-.85.01-1.7-.08-2.54-.26L239.04 56c1.29.39 2.62.56 3.96.52 5.53 0 8.49-2.81 11.24-7l.31-.52-.31-.47z"/>
  <path fill="#fff" d="M243.38 51.59l-1.6 1.6a4.38 4.38 0 005.42-5.42l-1.61 1.61a2.59 2.59 0 01-2.2 2.2z"/>
  <defs>
    <linearGradient id="paint0_linear" x1="131" x2="234.87" y1="165" y2="168.7" gradientUnits="userSpaceOnUse">
      <stop stop-color="#BACAE3"/>
      <stop offset="1" stop-color="#ADC1DE"/>
    </linearGradient>
    <linearGradient id="paint1_linear" x1="143.5" x2="231.91" y1="49" y2="166.16" gradientUnits="userSpaceOnUse">
      <stop stop-color="#C2D9F4"/>
      <stop offset=".39" stop-color="#E7F4FF"/>
      <stop offset="1" stop-color="#AFC1DB"/>
    </linearGradient>
    <linearGradient id="paint2_linear" x1="155.5" x2="192.09" y1="53" y2="128.22" gradientUnits="userSpaceOnUse">
      <stop stop-color="#BFD2EC"/>
      <stop offset="1" stop-color="#8DA7CB"/>
    </linearGradient>
    <linearGradient id="paint3_linear" x1="225.46" x2="261.7" y1="26.76" y2="71.8" gradientUnits="userSpaceOnUse">
      <stop offset=".01" stop-color="#66A3FF"/>
      <stop offset="1" stop-color="#CC63FE"/>
    </linearGradient>
    <filter id="filter0_i" width="128.16" height="34.28" x="125.01" y="150.01" color-interpolation-filters="sRGB" filterUnits="userSpaceOnUse">
      <feFlood flood-opacity="0" result="BackgroundImageFix"/>
      <feBlend in="SourceGraphic" in2="BackgroundImageFix" result="shape"/>
      <feColorMatrix in="SourceAlpha" result="hardAlpha" values="0 0 0 0 0 0 0 0 0 0 0 0 0 0 0 0 0 0 127 0"/>
      <feOffset dx="-6" dy="4"/>
      <feGaussianBlur stdDeviation="3.5"/>
      <feComposite in2="hardAlpha" k2="-1" k3="1" operator="arithmetic"/>
      <feColorMatrix values="0 0 0 0 0.21217 0 0 0 0 0.291124 0 0 0 0 0.420833 0 0 0 0.31 0"/>
      <feBlend in2="shape" result="effect1_innerShadow"/>
    </filter>
    <filter id="filter1_i" width="122.14" height="111.05" x="131" y="48" color-interpolation-filters="sRGB" filterUnits="userSpaceOnUse">
      <feFlood flood-opacity="0" result="BackgroundImageFix"/>
      <feBlend in="SourceGraphic" in2="BackgroundImageFix" result="shape"/>
      <feColorMatrix in="SourceAlpha" result="hardAlpha" values="0 0 0 0 0 0 0 0 0 0 0 0 0 0 0 0 0 0 127 0"/>
      <feOffset dy="-1"/>
      <feGaussianBlur stdDeviation="1"/>
      <feComposite in2="hardAlpha" k2="-1" k3="1" operator="arithmetic"/>
      <feColorMatrix values="0 0 0 0 1 0 0 0 0 1 0 0 0 0 1 0 0 0 1 0"/>
      <feBlend in2="shape" result="effect1_innerShadow"/>
    </filter>
  </defs>
</svg>
