<svg width="379" height="191" viewBox="0 0 379 191" fill="none" xmlns="http://www.w3.org/2000/svg">
    <path
        d="M94.0991 30.3006C94.0991 25.0906 98.3227 20.8671 103.533 20.8671H287.559C292.769 20.8671 296.993 25.0906 296.993 30.3006V42.4515H94.0991V30.3006Z"
        fill="#F0EDE6"
    />
    <path
        d="M94.0991 42.4528H296.993V149.816C296.993 155.026 292.769 159.25 287.559 159.25H103.533C98.3227 159.25 94.0991 155.026 94.0991 149.816V42.4528Z"
        fill="url(#paint0_linear_17376_29726)"
    />
    <path
        fill-rule="evenodd"
        clip-rule="evenodd"
        d="M286.632 22.4046H104.46C99.5869 22.4046 95.6367 26.3548 95.6367 31.2276V148.888C95.6367 153.761 99.5869 157.711 104.46 157.711H286.632C291.505 157.711 295.455 153.761 295.455 148.888V31.2276C295.455 26.3548 291.505 22.4046 286.632 22.4046ZM104.46 20.8671C98.7377 20.8671 94.0991 25.5056 94.0991 31.2276V148.888C94.0991 154.61 98.7377 159.249 104.46 159.249H286.632C292.354 159.249 296.993 154.61 296.993 148.888V31.2276C296.993 25.5056 292.354 20.8671 286.632 20.8671H104.46Z"
        fill="#F0EDE6"
    />
    <ellipse cx="107.913" cy="32.09" rx="3.45351" ry="3.45351" fill="#CCC8C0" />
    <ellipse cx="118.274" cy="32.09" rx="3.45351" ry="3.45351" fill="#CCC8C0" />
    <ellipse cx="128.634" cy="32.09" rx="3.45351" ry="3.45351" fill="#CCC8C0" />
    <path d="M194.99 131.792H197.186V158.15H194.99V131.792Z" fill="#F0EDE6" />
    <path d="M203.1 142.774H188.927L192.742 135.112H199.253L203.1 142.774Z" fill="#5338C0" />
    <path
        d="M248.466 64.1603C248.466 97.776 221.241 136.051 195.983 136.051C170.726 136.051 143.531 97.776 143.531 64.1603C143.531 30.5446 167.031 6.5896 196.014 6.5896C224.996 6.5896 248.466 30.5143 248.466 64.1603Z"
        fill="url(#paint1_linear_17376_29726)"
    />
    <ellipse
        cx="171.738"
        cy="41.5761"
        rx="13.4481"
        ry="20.7904"
        transform="rotate(39.4238 171.738 41.5761)"
        fill="url(#paint2_linear_17376_29726)"
    />
    <path
        d="M270.173 28.5549C270.173 12.7845 282.958 1.11765e-06 298.728 2.49635e-06V2.49635e-06C314.499 3.87505e-06 327.283 12.7845 327.283 28.5549V28.5549C327.283 44.3254 314.499 57.1098 298.728 57.1098V57.1098C282.958 57.1098 270.173 44.3254 270.173 28.5549V28.5549Z"
        fill="url(#paint3_linear_17376_29726)"
    />
    <path
        fill-rule="evenodd"
        clip-rule="evenodd"
        d="M310.256 20.3187C310.99 21.0558 310.994 22.2557 310.266 22.9986L296.759 36.7808C296.408 37.1394 295.93 37.3411 295.431 37.3411C294.932 37.3411 294.454 37.1394 294.102 36.7808L287.191 29.7285C286.462 28.9856 286.467 27.7857 287.201 27.0485C287.935 26.3113 289.12 26.316 289.848 27.0589L295.431 32.7555L307.609 20.3291C308.337 19.5861 309.522 19.5815 310.256 20.3187Z"
        fill="white"
    />
    <path
        d="M49.835 39.6454L47.6271 37.9501C47.1891 37.6137 46.5613 37.6962 46.225 38.1342L37.9502 48.9104C37.6138 49.3484 37.6963 49.9762 38.1343 50.3126L40.3421 52.0079C40.7802 52.3443 41.408 52.2618 41.7443 51.8238L50.0191 41.0476C50.3554 40.6096 50.273 39.9818 49.835 39.6454Z"
        fill="#55E5B2"
    />
    <path
        d="M70.4012 65.4923L68.9121 66.8032C68.3318 67.3141 68.2755 68.1987 68.7864 68.7791L77.236 78.377C77.747 78.9573 78.6316 79.0136 79.2119 78.5027L80.701 77.1918C81.2813 76.6809 81.3376 75.7963 80.8267 75.2159L72.3771 65.618C71.8662 65.0377 70.9815 64.9814 70.4012 65.4923Z"
        fill="#6847F2"
    />
    <path
        d="M59.3602 130.801C61.2097 130.801 62.7089 129.302 62.7089 127.453C62.7089 125.603 61.2097 124.104 59.3602 124.104C57.5108 124.104 56.0115 125.603 56.0115 127.453C56.0115 129.302 57.5108 130.801 59.3602 130.801Z"
        fill="#FF69B8"
    />
    <path
        d="M375.661 107.738C377.51 107.738 379.009 106.239 379.009 104.389C379.009 102.54 377.51 101.041 375.661 101.041C373.811 101.041 372.312 102.54 372.312 104.389C372.312 106.239 373.811 107.738 375.661 107.738Z"
        fill="#59CA6C"
    />
    <path
        d="M82.8365 4.39307H78.1324L75.7803 8.45938L78.1324 12.5656H82.8365L85.2285 8.45938L82.8365 4.39307Z"
        fill="#FFB7B7"
    />
    <path
        d="M8.49949 73.5237C8.03737 72.9062 7.07984 73.0222 6.77844 73.7321L3.89738 80.5175C3.59675 81.2255 4.17471 81.9937 4.93833 81.901L12.2352 81.0154C12.9986 80.9227 13.3761 80.0391 12.9153 79.4234L8.49949 73.5237Z"
        fill="#321E86"
    />
    <path
        d="M271.636 69.4903L269.049 68.4619C268.536 68.2579 267.954 68.5086 267.75 69.0218L263.953 78.5738C263.749 79.0871 264 79.6685 264.513 79.8725L267.1 80.9009C267.614 81.1049 268.195 80.8542 268.399 80.341L272.196 70.789C272.4 70.2758 272.149 69.6943 271.636 69.4903Z"
        fill="#FFD585"
    />
    <path
        d="M347.216 75.8268L345.909 73.3686C345.65 72.8809 345.045 72.6957 344.557 72.955L332.559 79.3324C332.072 79.5916 331.886 80.1971 332.146 80.6847L333.452 83.1429C333.711 83.6306 334.317 83.8158 334.805 83.5565L346.802 77.1791C347.29 76.9199 347.475 76.3144 347.216 75.8268Z"
        fill="#C867F5"
    />
    <path
        d="M376.362 24.6612C376.184 24.3522 375.854 24.1619 375.497 24.1619H371.946C371.589 24.1619 371.259 24.3522 371.081 24.6612L369.306 27.7299C369.127 28.0384 369.126 28.4185 369.303 28.7277L371.081 31.8314C371.26 32.1425 371.591 32.3344 371.949 32.3344H375.494C375.852 32.3344 376.184 32.1425 376.362 31.8314L378.14 28.7277C378.317 28.4185 378.316 28.0384 378.137 27.7299L376.362 24.6612Z"
        fill="#321E86"
    />
    <path
        d="M347.139 139.841C346.969 138.702 345.631 138.171 344.727 138.885L340.313 142.366C339.405 143.083 339.615 144.514 340.69 144.939L345.933 147.011C347.007 147.436 348.139 146.537 347.968 145.395L347.139 139.841Z"
        fill="#FF69B8"
    />
    <path
        d="M94.5 136H70V185.834C70 189.737 74.2401 192.226 77.7377 190.377L92.0123 182.829C93.5655 182.008 95.4345 182.008 96.9877 182.829L111.262 190.377C114.76 192.226 119 189.737 119 185.834V136H94.5Z"
        fill="url(#paint4_linear_17376_29726)"
    />
    <path
        d="M94 158C112.225 158 127 143.225 127 125C127 106.775 112.225 92 94 92C75.7746 92 61 106.775 61 125C61 143.225 75.7746 158 94 158Z"
        fill="url(#paint5_linear_17376_29726)"
    />
    <path
        opacity="0.2"
        d="M94.5 144C105.27 144 114 135.493 114 125C114 114.507 105.27 106 94.5 106C83.7304 106 75 114.507 75 125C75 135.493 83.7304 144 94.5 144Z"
        fill="#040404"
    />
    <path
        fill-rule="evenodd"
        clip-rule="evenodd"
        d="M183.276 56.2607C181.854 56.2607 180.683 57.3414 180.541 58.727H184.533C186.218 58.727 187.832 59.4034 189.014 60.6046L189.102 60.6935C189.767 61.3693 190.675 61.7499 191.623 61.7499H198.488H205.25C206.768 61.7499 208 62.9811 208 64.4999V83.7397H210.741C212.26 83.7397 213.491 82.5085 213.491 80.9897V61.8747C213.491 60.3559 212.26 59.1247 210.741 59.1247H194.025C192.993 59.1247 191.98 58.8432 191.096 58.3105L188.392 56.6803C187.936 56.4058 187.414 56.2607 186.883 56.2607H183.276ZM177.776 59.0065C177.779 55.9706 180.241 53.5107 183.276 53.5107H186.883C187.915 53.5107 188.927 53.7923 189.811 54.325L192.516 55.9552C192.971 56.2297 193.493 56.3747 194.025 56.3747H210.741C213.779 56.3747 216.241 58.8372 216.241 61.8747V80.9897C216.241 84.0274 213.779 86.4897 210.741 86.4897H183.26C180.22 86.4897 177.757 84.0248 177.76 80.9855L177.776 59.0065Z"
        fill="white"
    />
    <path
        d="M83.2089 130.018C81.1009 130.018 79.5647 128.76 79.5249 127H81.613C81.6627 127.791 82.3537 128.328 83.2089 128.328C84.2181 128.328 84.939 127.597 84.939 126.538C84.939 125.469 84.2032 124.728 83.179 124.723C82.5775 124.723 81.9709 124.987 81.6577 125.409L79.7437 125.066L80.2259 119.697H86.4503V121.457H82.0008L81.7373 124.007H81.7969C82.1549 123.505 82.9255 123.132 83.8204 123.132C85.6549 123.132 87.0171 124.534 87.0121 126.483C87.0171 128.541 85.4759 130.018 83.2089 130.018Z"
        fill="white"
    />
    <path
        d="M98.5649 122.988C98.2914 122.033 97.5407 121.462 96.432 121.462C94.8759 121.462 93.817 122.66 93.817 124.778C93.817 126.906 94.8362 128.114 96.4519 128.114C97.8837 128.114 98.7438 127.313 98.7737 126.051H96.5862V124.43H100.847V125.712C100.847 128.392 99.0123 130.018 96.442 130.018C93.5734 130.018 91.6345 128.019 91.6345 124.798C91.6345 121.497 93.7076 119.558 96.3972 119.558C98.6991 119.558 100.474 120.975 100.752 122.988H98.5649Z"
        fill="white"
    />
    <path
        d="M102.464 129.879V119.697H106.541C108.788 119.697 109.921 120.781 109.921 122.307C109.921 123.505 109.141 124.256 108.082 124.494V124.594C109.24 124.649 110.319 125.558 110.319 127.065C110.319 128.685 109.101 129.879 106.814 129.879H102.464ZM104.617 128.119H106.371C107.575 128.119 108.097 127.617 108.097 126.851C108.097 126.011 107.455 125.414 106.421 125.414H104.617V128.119ZM104.617 123.957H106.212C107.092 123.957 107.749 123.47 107.749 122.665C107.749 121.929 107.207 121.437 106.252 121.437H104.617V123.957Z"
        fill="white"
    />
    <defs>
        <linearGradient
            id="paint0_linear_17376_29726"
            x1="195.546"
            y1="69.6791"
            x2="195.546"
            y2="159.25"
            gradientUnits="userSpaceOnUse"
        >
            <stop stop-color="white" />
            <stop offset="1" stop-color="#FDFEFE" />
        </linearGradient>
        <linearGradient
            id="paint1_linear_17376_29726"
            x1="219.918"
            y1="-8.78613"
            x2="275.01"
            y2="62.0147"
            gradientUnits="userSpaceOnUse"
        >
            <stop stop-color="#EEBEFF" />
            <stop offset="1" stop-color="#6D4AFF" />
        </linearGradient>
        <linearGradient
            id="paint2_linear_17376_29726"
            x1="73.2827"
            y1="36.7569"
            x2="176.421"
            y2="10.6924"
            gradientUnits="userSpaceOnUse"
        >
            <stop stop-color="white" />
            <stop offset="1" stop-color="white" stop-opacity="0" />
        </linearGradient>
        <linearGradient
            id="paint3_linear_17376_29726"
            x1="301.688"
            y1="-4.16425"
            x2="301.955"
            y2="57.1101"
            gradientUnits="userSpaceOnUse"
        >
            <stop stop-color="#2AF091" />
            <stop offset="1" stop-color="#00C5A1" />
        </linearGradient>
        <linearGradient
            id="paint4_linear_17376_29726"
            x1="94.5"
            y1="136"
            x2="94.5"
            y2="191"
            gradientUnits="userSpaceOnUse"
        >
            <stop stop-color="#991F4A" />
            <stop offset="1" stop-color="#FA528E" />
        </linearGradient>
        <linearGradient id="paint5_linear_17376_29726" x1="94" y1="92" x2="94" y2="158" gradientUnits="userSpaceOnUse">
            <stop stop-color="#FF79A9" />
            <stop offset="1" stop-color="#DB2C6B" />
        </linearGradient>
    </defs>
</svg>
