<svg xmlns="http://www.w3.org/2000/svg" width="384" height="216" fill="none" viewBox="0 0 384 216">
    <path
        fill="url(#paint0_linear_5741_18650)"
        d="M191.867 150.015h-60.855v22.344c0 4.359 3.704 7.941 8.304 7.941h105.549c4.559 0 8.304-3.543 8.304-7.941v-22.344h-61.302z"
    />
    <g filter="url(#filter0_i_5741_18650)">
        <path
            fill="url(#paint1_linear_5741_18650)"
            d="M253.087 149.353l-10.706-95.76c-.285-2.608-2.605-4.593-5.332-4.593h-89.96c-2.727 0-5.047 1.985-5.332 4.593l-10.706 95.76c-.569 5.177 3.664 9.693 9.119 9.693h103.799c5.454.039 9.728-4.477 9.118-9.693z"
        />
    </g>
    <path
        fill="#C5C2BF"
        d="M246.249 123.311l-7.286-68.433c-.122-1.129-1.099-1.946-2.28-1.946h-89.226c-1.181 0-2.158.856-2.28 1.946l-7.245 68.433c-.285 2.647 1.872 4.905 4.64 4.905h99.037c2.768 0 4.925-2.297 4.64-4.905z"
    />
    <path
        fill="#fff"
        d="M237.66 171.891c1.551 0 2.809-1.202 2.809-2.686 0-1.483-1.258-2.685-2.809-2.685-1.551 0-2.808 1.202-2.808 2.685 0 1.484 1.257 2.686 2.808 2.686z"
    />
    <g>
        <path
            fill="url(#paint2_linear_5741_18650)"
            d="M219 47c0-14.36 11.641-26 26-26s26 11.64 26 26-11.641 26-26 26-26-11.64-26-26z"
        />
        <path
            fill="#fff"
            fill-rule="evenodd"
            d="M250.686 40.042l4.076-4.133 1.346 1.308-20.854 20.855-1.327-1.328 3.792-3.791a19.282 19.282 0 01-4.891-5.441l-.342-.512.342-.569c2.976-4.531 6.18-7.583 12.171-7.583a12.394 12.394 0 015.687 1.194zm-7.719 4.907a2.825 2.825 0 00-.528 3.264l3.792-3.791a2.824 2.824 0 00-3.264.527zm4.629-1.874a4.587 4.587 0 00-2.597-.815 4.74 4.74 0 00-4.74 4.74c.003.928.287 1.834.815 2.597l-2.009 1.99A15.995 15.995 0 01234.761 47c2.654-3.792 5.309-6.256 10.238-6.256a11.15 11.15 0 014.171.739l-1.574 1.592z"
            clip-rule="evenodd"
        />
        <path
            fill="#fff"
            d="M257.17 46.488a21.31 21.31 0 00-3.792-4.626l-1.365 1.346A17.473 17.473 0 01255.236 47c-2.654 3.791-5.308 6.256-10.237 6.256a12.37 12.37 0 01-2.749-.284l-1.536 1.611a13.48 13.48 0 004.285.569c5.991 0 9.195-3.052 12.171-7.583l.341-.57-.341-.511z"
        />
        <path
            fill="#fff"
            d="M245.416 49.806l-1.744 1.744c.43.13.877.194 1.327.19a4.74 4.74 0 004.739-4.74 4.418 4.418 0 00-.189-1.327l-1.744 1.744a2.806 2.806 0 01-2.389 2.389z"
        />
    </g>
    <g>
        <path
            fill="#fff"
            stroke="#fff"
            stroke-width="2"
            d="M166.769 103.093l2.159-29.56a4.76 4.76 0 014.747-4.413h8.208c.877 0 1.731.28 2.438.8l3.615 2.653a6.12 6.12 0 003.622 1.187h21.137a4.76 4.76 0 014.744 4.37l2.052 24.92a4.76 4.76 0 01-4.744 5.15h-43.231a4.76 4.76 0 01-4.747-5.107z"
        />
        <path
            fill="#C5C2BF"
            stroke="#fff"
            stroke-width="2"
            d="M218 78.52v.04l.004.04L220 103.478a4.76 4.76 0 01-4.76 4.722h-5.775l-.898-25.514a3 3 0 00-2.998-2.894h-20.73a3.481 3.481 0 01-2.037-.644l-.579.815.579-.815-4.856-3.454s0 0 0 0a5.48 5.48 0 00-3.176-1.014h-5.45v-.8a4.76 4.76 0 014.76-4.76h7.803c.877 0 1.731.28 2.438.799 0 0 0 0 0 0l3.615 2.654h0a6.12 6.12 0 003.622 1.187H213.24a4.76 4.76 0 014.76 4.76z"
        />
    </g>
    <defs>
        <linearGradient
            id="paint0_linear_5741_18650"
            x1="99.5"
            x2="287.761"
            y1="165"
            y2="171.711"
            gradientUnits="userSpaceOnUse"
        >
            <stop offset=".222" stop-color="#E3E0DA" />
            <stop offset="1" stop-color="#A6A49E" />
        </linearGradient>
        <linearGradient
            id="paint1_linear_5741_18650"
            x1="234"
            x2="126.291"
            y1="40"
            y2="148.318"
            gradientUnits="userSpaceOnUse"
        >
            <stop offset=".417" stop-color="#CECCC7" />
            <stop offset="1" stop-color="#F5F2EB" />
        </linearGradient>
        <linearGradient
            id="paint2_linear_5741_18650"
            x1="247.5"
            x2="262"
            y1="3.5"
            y2="70"
            gradientUnits="userSpaceOnUse"
        >
            <stop stop-color="#ECAAFF" />
            <stop offset="1" stop-color="#6A48F6" />
        </linearGradient>
        <filter
            id="filter0_i_5741_18650"
            width="122.146"
            height="110.046"
            x="131"
            y="49"
            color-interpolation-filters="sRGB"
            filterUnits="userSpaceOnUse"
        >
            <feFlood flood-opacity="0" result="BackgroundImageFix" />
            <feBlend in="SourceGraphic" in2="BackgroundImageFix" result="shape" />
            <feColorMatrix in="SourceAlpha" result="hardAlpha" values="0 0 0 0 0 0 0 0 0 0 0 0 0 0 0 0 0 0 127 0" />
            <feOffset dy="-1" />
            <feComposite in2="hardAlpha" k2="-1" k3="1" operator="arithmetic" />
            <feColorMatrix values="0 0 0 0 1 0 0 0 0 1 0 0 0 0 1 0 0 0 0.57 0" />
            <feBlend in2="shape" result="effect1_innerShadow_5741_18650" />
        </filter>
    </defs>
</svg>
