<svg xmlns="http://www.w3.org/2000/svg" width="360" height="360" fill="none">
    <g clip-path="url(#a)">
        <rect width="360" height="360" fill="url(#b)" rx="20" />
        <path
            fill="url(#c)"
            fill-opacity=".2"
            d="m144.85 391.26 564.3-64.87-57.68-501.69-496.3 57.06c10.22 8.37 20.21 18.82 29.76 31.7C219.65-39.72 222 3.3 210.74 38.02c-11.23 34.7-35.99 61.07-55.4 74.77l-89 66c-11.71 8.68-22.75 20.44-26.8 35.48-4.02 15.01-1.12 33.45 15.32 55.63l90 121.36Z"
        />
        <g filter="url(#d)">
            <path
                fill="url(#e)"
                d="M126.63 233.02a41.46 41.46 0 1 1 6.52-82.4 35.29 35.29 0 0 1 66.25-10.39 35.3 35.3 0 0 1 49.96 32.09v.4a30.35 30.35 0 0 1-4.93 60.3h-117.8Z"
            />
        </g>
        <path
            fill="url(#f)"
            d="M150.59 198.39 177.96 171a2.87 2.87 0 0 1 4.05 0l27.35 27.38a2.87 2.87 0 0 1-2.02 4.9h-7.8v32.25a3.85 3.85 0 0 1-3.86 3.85h-31.43a3.85 3.85 0 0 1-3.85-3.85v-32.25h-7.82a2.87 2.87 0 0 1-2-4.9Z"
        />
        <path
            fill="#EC3213"
            d="M112 135.5a2.5 2.5 0 0 1 2.5-2.5h19a2.5 2.5 0 0 1 2.5 2.5v19a2.5 2.5 0 0 1-2.5 2.5h-19a2.5 2.5 0 0 1-2.5-2.5v-19Z"
        />
        <path
            stroke="#fff"
            stroke-miterlimit="10"
            stroke-width="1.15"
            d="m123.92 143.57.88-1.53a1.03 1.03 0 1 0-1.77 0l.89 1.53Zm0 0 1.99 3.87m-2-3.87-1.97 3.87m0 0h-1.97a1.1 1.1 0 0 0-1.02.68 1.1 1.1 0 0 0-.08.42c0 1.1 1.44 1.52 2.03.58l1.04-1.68Zm0 0h3.97m0 0h1.97a1.08 1.08 0 0 1 .78.32 1.1 1.1 0 0 1 .32.78c0 1.1-1.45 1.52-2.03.58l-1.04-1.68Z"
        />
        <path
            fill="#5C8DFF"
            d="M231 128.5a2.5 2.5 0 0 1 2.5-2.5h19a2.5 2.5 0 0 1 2.5 2.5v19a2.5 2.5 0 0 1-2.5 2.5h-19a2.5 2.5 0 0 1-2.5-2.5v-19Z"
        />
        <path
            fill="#fff"
            d="M247.47 133.2c-.15 0-.28.1-.31.25l-1.69 7.34-1.76-7.34a.32.32 0 0 0-.3-.25h-.78c-.15 0-.28.1-.31.24l-1.82 7.35-1.66-7.34a.32.32 0 0 0-.3-.25h-.74c-.2 0-.36.19-.31.4l2.03 8.95c.03.15.16.25.31.25h1.34c.15 0 .28-.1.31-.24l1.52-6.23 1.5 6.22a.3.3 0 0 0 .3.25h1.34c.15 0 .28-.1.32-.25l2.05-8.96a.31.31 0 0 0-.31-.39h-.73Z"
        />
        <g clip-path="url(#g)">
            <rect width="24" height="24" x="239" y="187" fill="#5E6678" rx="4" />
            <path
                fill="#EBEDF3"
                d="m253.04 197.27-3.66 4.6h-.03l-2.03-2.47a.58.58 0 0 0-.9 0l-2.9 3.57c-.31.35-.05.88.43.88h14.25c.4 0 .64-.46.39-.76l-4.63-5.82a.6.6 0 0 0-.92 0Zm-3.94.4c1.06 0 1.92-.83 1.92-1.84 0-1.01-.86-1.84-1.92-1.84s-1.92.83-1.92 1.84c0 1.01.86 1.84 1.92 1.84Z"
            />
        </g>
        <path
            fill="#22C34F"
            d="M88 197.5a2.5 2.5 0 0 1 2.5-2.5h19a2.5 2.5 0 0 1 2.5 2.5v19a2.5 2.5 0 0 1-2.5 2.5h-19a2.5 2.5 0 0 1-2.5-2.5v-19Z"
        />
        <rect width="2.8" height="4.2" x="94.4" y="208.4" fill="#fff" rx=".7" />
        <rect width="2.8" height="11.2" x="98.6" y="201.4" fill="#fff" rx=".7" />
        <rect width="2.8" height="7" x="102.8" y="205.6" fill="#fff" rx=".7" />
    </g>
    <defs>
        <linearGradient id="c" x1="-423.06" x2="131.18" y1="225.22" y2="-505.35" gradientUnits="userSpaceOnUse">
            <stop stop-color="#CAC0F3" />
            <stop offset="1" stop-color="#fff" />
        </linearGradient>
        <linearGradient id="e" x1="160.29" x2="203.89" y1="258.7" y2="120.38" gradientUnits="userSpaceOnUse">
            <stop stop-color="#F9F9F9" />
            <stop offset="1" stop-color="#F7F7F7" />
        </linearGradient>
        <linearGradient id="f" x1="192.77" x2="170.43" y1="125.89" y2="255.96" gradientUnits="userSpaceOnUse">
            <stop stop-color="#C5B7FF" />
            <stop offset="1" stop-color="#5C3BE7" />
        </linearGradient>
        <clipPath id="a">
            <rect width="360" height="360" fill="#fff" rx="20" />
        </clipPath>
        <clipPath id="g">
            <path fill="#fff" d="M239 187h24v24h-24z" />
        </clipPath>
        <radialGradient
            id="b"
            cx="0"
            cy="0"
            r="1"
            gradientTransform="rotate(-123.63 239.55 25.48) scale(287.091 325.837)"
            gradientUnits="userSpaceOnUse"
        >
            <stop stop-color="#fff" />
            <stop offset="1" stop-color="#F6F4FF" />
        </radialGradient>
        <filter
            id="d"
            width="223.19"
            height="142.8"
            x="56.85"
            y="97.22"
            color-interpolation-filters="sRGB"
            filterUnits="userSpaceOnUse"
        >
            <feFlood flood-opacity="0" result="BackgroundImageFix" />
            <feColorMatrix in="SourceAlpha" result="hardAlpha" values="0 0 0 0 0 0 0 0 0 0 0 0 0 0 0 0 0 0 127 0" />
            <feOffset />
            <feColorMatrix values="0 0 0 0 0.462745 0 0 0 0 0.380392 0 0 0 0 0.8 0 0 0 0.35 0" />
            <feBlend in2="BackgroundImageFix" result="effect1_dropShadow_172_62003" />
            <feColorMatrix in="SourceAlpha" result="hardAlpha" values="0 0 0 0 0 0 0 0 0 0 0 0 0 0 0 0 0 0 127 0" />
            <feOffset dx="-3.15" dy="-2.1" />
            <feGaussianBlur stdDeviation="4.2" />
            <feColorMatrix values="0 0 0 0 0.462745 0 0 0 0 0.380392 0 0 0 0 0.8 0 0 0 0.34 0" />
            <feBlend in2="effect1_dropShadow_172_62003" result="effect2_dropShadow_172_62003" />
            <feColorMatrix in="SourceAlpha" result="hardAlpha" values="0 0 0 0 0 0 0 0 0 0 0 0 0 0 0 0 0 0 127 0" />
            <feOffset dx="-12.94" dy="-8.4" />
            <feGaussianBlur stdDeviation="7.7" />
            <feColorMatrix values="0 0 0 0 0.462745 0 0 0 0 0.380392 0 0 0 0 0.8 0 0 0 0.3 0" />
            <feBlend in2="effect2_dropShadow_172_62003" result="effect3_dropShadow_172_62003" />
            <feBlend in="SourceGraphic" in2="effect3_dropShadow_172_62003" result="shape" />
        </filter>
    </defs>
</svg>
