<svg xmlns="http://www.w3.org/2000/svg" width="384" height="216" fill="none" viewBox="0 0 384 216">
  <defs/>
  <g filter="url(#filter0_i)">
    <path fill="url(#paint0_linear)" d="M191.87 150.01H131v22.35c0 4.36 3.7 7.94 8.3 7.94h105.56c4.55 0 8.3-3.54 8.3-7.94V150h-61.3z"/>
  </g>
  <g filter="url(#filter1_i)">
    <path fill="url(#paint1_linear)" d="M253.09 149.35l-10.7-95.76a5.3 5.3 0 00-5.34-4.59h-89.96a5.3 5.3 0 00-5.33 4.6l-10.7 95.75c-.58 5.18 3.66 9.7 9.11 9.7h103.8c5.45.03 9.73-4.48 9.12-9.7z"/>
  </g>
  <path fill="url(#paint2_linear)" d="M246.25 123.31l-7.29-68.43a2.23 2.23 0 00-2.28-1.95h-89.22c-1.18 0-2.16.86-2.28 1.95l-7.25 68.43a4.52 4.52 0 004.64 4.9H241.61c2.77 0 4.92-2.3 4.64-4.9z"/>
  <path fill="#fff" d="M211.07 81.72c-2.06-6.67-8.92-11.68-17.15-11.68-6.7 0-12.53 3.34-15.62 8.2-.68-.16-1.54-.31-2.4-.31-5.15 0-9.43 3.8-9.43 8.34 0 .46 0 1.07.17 1.52-6 1.06-10.64 5.92-10.64 11.53 0 6.53 6 11.84 13.38 11.84H209.36c9.26 0 16.64-6.68 16.64-14.72 0-7.59-6.52-13.96-14.93-14.72z"/>
  <path fill="#A87BFF" d="M192.58 89.63a.82.82 0 00-1.08 0L179.7 99.78a.82.82 0 00.53 1.44h5.12v9.94h13.4v-9.94h5.05a.82.82 0 00.53-1.44l-11.74-10.15z"/>
  <path fill="#A8FFE0" d="M237.66 171.9c1.55 0 2.8-1.21 2.8-2.7a2.75 2.75 0 00-2.8-2.68c-1.55 0-2.8 1.2-2.8 2.69a2.75 2.75 0 002.8 2.68z"/>
  <path fill="url(#paint3_linear)" fill-rule="evenodd" d="M313.47 107h-28.81a2.66 2.66 0 00-2.66 2.66v56.68c0 1.47 1.2 2.66 2.66 2.66h44.28c1.47 0 2.66-1.2 2.66-2.66v-41.21L313.47 107z" clip-rule="evenodd"/>
  <path fill="#fff" d="M293.57 155.09c-.34 0-.63-.11-.86-.33a1.08 1.08 0 010-1.61c.23-.23.52-.34.86-.34.34 0 .63.11.87.34.24.22.36.49.36.8 0 .31-.12.58-.36.8-.24.23-.53.34-.87.34zm5.24-1.46h-.03v5.25h-1.96v-12.62h1.96v1.52h.03a3.2 3.2 0 012.94-1.72c1.1 0 1.95.38 2.56 1.15.62.77.92 1.8.92 3.1 0 1.45-.34 2.6-1.04 3.47-.69.86-1.63 1.3-2.83 1.3-1.1 0-1.95-.49-2.55-1.45zm-.05-3.41v1.07c0 .63.2 1.16.6 1.6a2 2 0 001.53.66 2 2 0 001.71-.84c.42-.57.63-1.36.63-2.38 0-.84-.2-1.5-.59-1.99-.38-.48-.9-.72-1.56-.72-.7 0-1.26.24-1.69.74-.42.5-.63 1.11-.63 1.86zm16.23 4.68h-1.96v-1.47h-.04a3.12 3.12 0 01-2.9 1.67 3.16 3.16 0 01-2.57-1.15 4.85 4.85 0 01-.95-3.17c0-1.43.35-2.57 1.06-3.43.7-.86 1.65-1.3 2.82-1.3s2.01.47 2.54 1.4h.04v-5.34h1.96v12.79zm-1.94-3.95v-1.13c0-.61-.2-1.13-.6-1.56a2 2 0 00-1.52-.64c-.74 0-1.31.27-1.74.82-.41.54-.62 1.3-.62 2.27 0 .87.2 1.57.6 2.08.4.5.95.76 1.63.76.67 0 1.21-.25 1.63-.73.41-.5.62-1.12.62-1.87zm9.27-7.25a1.78 1.78 0 00-.9-.23c-.95 0-1.43.54-1.43 1.62v1.17H322v1.53h-2v7.11h-1.96v-7.1h-1.47v-1.54h1.47v-1.4c0-.91.3-1.63.9-2.16.6-.52 1.34-.79 2.24-.79.48 0 .86.06 1.14.16v1.63z"/>
  <path fill="#FFB9B0" fill-rule="evenodd" d="M313.47 107l18.13 18.13h-15.47a2.66 2.66 0 01-2.66-2.66V107z" clip-rule="evenodd"/>
  <path fill="#CED2E2" d="M112.39 171.77a4.38 4.38 0 100-8.77 4.38 4.38 0 000 8.77zM354 97l-5.5-9-5.5 9h11z" opacity=".45"/>
  <path fill="#EBEDF3" fill-rule="evenodd" d="M92.47 35H64.1a3.1 3.1 0 00-3.1 3.1v55.8a3.1 3.1 0 003.1 3.1h43.4a3.1 3.1 0 003.1-3.1V53.13L92.47 35z" clip-rule="evenodd"/>
  <path fill="#CDD2DE" fill-rule="evenodd" d="M92.47 35l18.13 18.13H95.57a3.1 3.1 0 01-3.1-3.1V35z" clip-rule="evenodd"/>
  <path fill="#3F434B" fill-rule="evenodd" d="M85.8 59h-4.47c-.95 0-1.73-.8-1.73-1.77v-.32c0-.96.78-1.76 1.73-1.76h4.47v3.84zm4.47 3.83H85.8v-3.84h4.47c.94 0 1.73.8 1.73 1.76v.32c0 .96-.79 1.76-1.73 1.76zm-8.94 3.84h4.47v-3.84h-4.47c-.95 0-1.73.8-1.73 1.76v.32c0 .96.78 1.76 1.73 1.76zm8.94 3.9H85.8v-3.83h4.47c.94 0 1.73.8 1.73 1.76v.32a1.7 1.7 0 01-1.73 1.76zm-7.77 2.86h6.6c.94 0 1.72.72 1.64 1.76v9.2c0 .96-.78 1.76-1.72 1.76H82.5c-.94 0-1.72-.8-1.72-1.76v-9.2c0-.96.78-1.76 1.72-1.76zm5.42 10.64c.55 0 1.02-.48 1.02-1.04v-1.84c0-.56-.47-1.04-1.02-1.04h-4.24c-.55 0-1.02.48-1.02 1.04v1.84c0 .56.47 1.04 1.02 1.04h4.24z" clip-rule="evenodd"/>
  <path fill="url(#paint4_linear)" d="M50 141a24 24 0 1148 0 24 24 0 01-48 0z"/>
  <path fill="#fff" fill-rule="evenodd" d="M78.3 131.15a3.52 3.52 0 00-2.58.85v.01l-2.67 2.67 1.52 1.54 2.64-2.65c.64-.4 1.49-.24 1.93.37l.02.02 1.97 1.98h.01c.59.47.72 1.3.3 1.93l-4.85 4.85a.91.91 0 01-.76.22h-.01a1.9 1.9 0 01-1.15-.57l-1.16-1.17-1.53 1.54 1.16 1.16c.66.68 1.52 1.1 2.45 1.2h.28c.84.02 1.66-.32 2.24-.94l4.88-4.88a3.52 3.52 0 00-.37-4.98l-1.92-1.93a3.52 3.52 0 00-2.4-1.22zm-5.83 5.82a3.52 3.52 0 00-2.56.85h-.01l-4.89 4.9a3.52 3.52 0 00.37 4.98l1.93 1.92c.73.77 1.74 1.2 2.8 1.22.81.02 1.6-.3 2.18-.85l2.66-2.67-1.52-1.54-2.64 2.65c-.62.41-1.46.28-1.92-.3l-.01-.01-1.98-1.98a1.44 1.44 0 01-.3-1.93l4.83-4.84c.63-.4 1.45-.26 1.92.32l.01.01 1.16 1.18 1.54-1.54-1.16-1.16a3.52 3.52 0 00-2.4-1.21z" clip-rule="evenodd"/>
  <path fill="url(#paint5_linear)" d="M314 53a26 26 0 00-52 0v26h26a26 26 0 0026-26z"/>
  <path fill="#fff" fill-rule="evenodd" d="M281.67 45.25v2.66h-2.6c-.88 0-1.64.72-1.64 1.64v13.88c0 .9.72 1.64 1.64 1.64h17.5c.9 0 1.64-.72 1.64-1.64V49.55c0-.9-.71-1.64-1.63-1.64h-2.56v-2.66a6.17 6.17 0 10-12.35 0zm2.6 0v2.66h7.08v-2.66c0-2.46-1.88-3.54-3.54-3.54-1.67 0-3.54 1.08-3.54 3.54zm3.22 7.3c-1.2 0-2.15.95-2.15 2.15 0 .82.45 1.53 1.13 1.88l-.89 3.82h3.82l-.88-3.82a2.14 2.14 0 00-1.02-4.03z" clip-rule="evenodd"/>
  <defs>
    <linearGradient id="paint0_linear" x1="131" x2="234.87" y1="165" y2="168.7" gradientUnits="userSpaceOnUse">
      <stop stop-color="#BACAE3"/>
      <stop offset="1" stop-color="#ADC1DE"/>
    </linearGradient>
    <linearGradient id="paint1_linear" x1="143.5" x2="231.91" y1="49" y2="166.16" gradientUnits="userSpaceOnUse">
      <stop stop-color="#C2D9F4"/>
      <stop offset=".39" stop-color="#E7F4FF"/>
      <stop offset="1" stop-color="#AFC1DB"/>
    </linearGradient>
    <linearGradient id="paint2_linear" x1="152.5" x2="202.06" y1="55.69" y2="144.36" gradientUnits="userSpaceOnUse">
      <stop offset=".01" stop-color="#66A3FF"/>
      <stop offset="1" stop-color="#CC63FE"/>
    </linearGradient>
    <linearGradient id="paint3_linear" x1="306.8" x2="306.8" y1="107" y2="169" gradientUnits="userSpaceOnUse">
      <stop stop-color="#FF7461"/>
      <stop offset="1" stop-color="#DD4C4C"/>
    </linearGradient>
    <linearGradient id="paint4_linear" x1="50.07" x2="79.5" y1="117" y2="165.16" gradientUnits="userSpaceOnUse">
      <stop stop-color="#72D5FF"/>
      <stop offset="1" stop-color="#72B9FF"/>
    </linearGradient>
    <linearGradient id="paint5_linear" x1="288" x2="288" y1="33.04" y2="84.57" gradientUnits="userSpaceOnUse">
      <stop stop-color="#FFD66C"/>
      <stop offset="1" stop-color="#FF658A"/>
    </linearGradient>
    <filter id="filter0_i" width="128.16" height="34.28" x="125.01" y="150.01" color-interpolation-filters="sRGB" filterUnits="userSpaceOnUse">
      <feFlood flood-opacity="0" result="BackgroundImageFix"/>
      <feBlend in="SourceGraphic" in2="BackgroundImageFix" result="shape"/>
      <feColorMatrix in="SourceAlpha" result="hardAlpha" values="0 0 0 0 0 0 0 0 0 0 0 0 0 0 0 0 0 0 127 0"/>
      <feOffset dx="-6" dy="4"/>
      <feGaussianBlur stdDeviation="3.5"/>
      <feComposite in2="hardAlpha" k2="-1" k3="1" operator="arithmetic"/>
      <feColorMatrix values="0 0 0 0 0.21217 0 0 0 0 0.291124 0 0 0 0 0.420833 0 0 0 0.31 0"/>
      <feBlend in2="shape" result="effect1_innerShadow"/>
    </filter>
    <filter id="filter1_i" width="122.14" height="111.05" x="131" y="48" color-interpolation-filters="sRGB" filterUnits="userSpaceOnUse">
      <feFlood flood-opacity="0" result="BackgroundImageFix"/>
      <feBlend in="SourceGraphic" in2="BackgroundImageFix" result="shape"/>
      <feColorMatrix in="SourceAlpha" result="hardAlpha" values="0 0 0 0 0 0 0 0 0 0 0 0 0 0 0 0 0 0 127 0"/>
      <feOffset dy="-1"/>
      <feGaussianBlur stdDeviation="1"/>
      <feComposite in2="hardAlpha" k2="-1" k3="1" operator="arithmetic"/>
      <feColorMatrix values="0 0 0 0 1 0 0 0 0 1 0 0 0 0 1 0 0 0 1 0"/>
      <feBlend in2="shape" result="effect1_innerShadow"/>
    </filter>
  </defs>
</svg>
