<svg xmlns="http://www.w3.org/2000/svg" width="384" height="216" fill="none" viewBox="0 0 384 216">
  <defs/>
  <g filter="url(#filter0_i)">
    <path fill="url(#paint0_linear)" d="M191.87 150.01H131v22.35c0 4.36 3.7 7.94 8.3 7.94h105.56c4.55 0 8.3-3.54 8.3-7.94V150h-61.3z"/>
  </g>
  <g filter="url(#filter1_i)">
    <path fill="url(#paint1_linear)" d="M253.09 149.35l-10.7-95.76a5.3 5.3 0 00-5.34-4.59h-89.96a5.3 5.3 0 00-5.33 4.6l-10.7 95.75c-.58 5.18 3.66 9.7 9.11 9.7h103.8c5.45.03 9.73-4.48 9.12-9.7z"/>
  </g>
  <path fill="url(#paint2_linear)" d="M246.25 123.31l-7.29-68.43a2.23 2.23 0 00-2.28-1.95h-89.22c-1.18 0-2.16.86-2.28 1.95l-7.25 68.43a4.52 4.52 0 004.64 4.9H241.61c2.77 0 4.92-2.3 4.64-4.9z"/>
  <path fill="#fff" fill-rule="evenodd" d="M193.92 70.04c8.23 0 15.1 5 17.15 11.68 8.41.76 14.93 7.13 14.93 14.72 0 8.04-7.38 14.72-16.64 14.72h-10.62v-9.94h5.05a.82.82 0 00.53-1.44l-11.74-10.15a.82.82 0 00-1.08 0L179.7 99.78a.82.82 0 00.53 1.44h5.12v9.94h-15.95c-7.38 0-13.39-5.31-13.39-11.84 0-5.61 4.63-10.47 10.64-11.53-.17-.45-.17-1.06-.17-1.52 0-4.55 4.28-8.34 9.43-8.34.86 0 1.72.15 2.4.3 3.1-4.85 8.92-8.2 15.62-8.2z" clip-rule="evenodd"/>
  <path fill="#A8FFE0" d="M237.66 171.9c1.55 0 2.8-1.21 2.8-2.7a2.75 2.75 0 00-2.8-2.68c-1.55 0-2.8 1.2-2.8 2.69a2.75 2.75 0 002.8 2.68z"/>
  <path fill="#E04930" fill-rule="evenodd" d="M313.67 107H285.3a3.1 3.1 0 00-3.1 3.1v55.8a3.1 3.1 0 003.1 3.1h43.4a3.1 3.1 0 003.1-3.1v-40.77L313.67 107z" clip-rule="evenodd"/>
  <path fill="#FF917E" fill-rule="evenodd" d="M313.67 107l18.13 18.13h-15.03a3.1 3.1 0 01-3.1-3.1V107z" clip-rule="evenodd"/>
  <path fill="#fff" fill-rule="evenodd" d="M306.98 132.42c-2.62 0-4.34 2.77-2.98 5.06l1.91 3.2-4.33 8.22h-4.3a3.58 3.58 0 00-3.61 3.53c0 3.62 4.8 4.84 6.7 1.89l2.28-3.56h8.7l2.29 3.56c1.9 2.95 6.69 1.73 6.69-1.89a3.58 3.58 0 00-3.62-3.53h-4.29l-4.38-8.22 1.9-3.2c1.38-2.28-.37-5.06-2.96-5.06zm.04 6.34l1.33-2.23c.57-.96-.11-2.25-1.37-2.25-1.27 0-1.95 1.28-1.38 2.25l1.33 2.23.04-.09.05.1zm3.3 10.14l-3.34-6.26-3.3 6.26H310.31zm-14.79 3.53c0-.89.76-1.67 1.76-1.67h3.14l-1.63 2.55c-.96 1.5-3.27.76-3.27-.88zm18.04-1.67l1.63 2.55c.96 1.5 3.27.76 3.27-.88 0-.89-.76-1.67-1.76-1.67h-3.14z" clip-rule="evenodd"/>
  <path fill="#CED2E2" d="M112.39 171.77a4.38 4.38 0 100-8.77 4.38 4.38 0 000 8.77zM354 97l-5.5-9-5.5 9h11z" opacity=".45"/>
  <path fill="#EBEDF3" fill-rule="evenodd" d="M92.67 35H64.3a3.1 3.1 0 00-3.1 3.1v55.8a3.1 3.1 0 003.1 3.1h43.4a3.1 3.1 0 003.1-3.1V53.13L92.67 35z" clip-rule="evenodd"/>
  <path fill="#F8F8F8" fill-rule="evenodd" d="M92.67 35l18.13 18.13H95.77a3.1 3.1 0 01-3.1-3.1V35z" clip-rule="evenodd"/>
  <path fill="#3A3F4A" d="M86 64.45h-3.1a1.55 1.55 0 000 3.1H86v-3.1zM86 58.25h-3.1a1.55 1.55 0 000 3.1H86v-3.1zM86 52.05h-3.1a1.55 1.55 0 100 3.1H86v-3.1zM89.11 73.75h-6.14c-.88 0-1.61.78-1.61 1.72v8.96c0 .94.73 1.72 1.6 1.72h6.08c.88 0 1.61-.78 1.61-1.72v-8.96a1.54 1.54 0 00-1.54-1.72zm-.01 9.84c0 .54-.44 1.01-.95 1.01h-4.3c-.51 0-.95-.47-.95-1.01v-1.8c0-.54.44-1.01.95-1.01h4.3c.51 0 .95.47.95 1.01v1.8zM86 67.55h3.1a1.55 1.55 0 110 3.1H86v-3.1zM86 61.35h3.1a1.55 1.55 0 110 3.1H86v-3.1zM86 55.15h3.1a1.55 1.55 0 110 3.1H86v-3.1z"/>
  <path fill="url(#paint3_linear)" d="M50 141a24 24 0 1148 0 24 24 0 01-48 0z"/>
  <path fill="#fff" fill-rule="evenodd" d="M78.3 131.15a3.52 3.52 0 00-2.58.85v.01l-2.67 2.67 1.52 1.54 2.64-2.65c.64-.4 1.49-.24 1.93.37l.02.02 1.97 1.98h.01c.59.47.72 1.3.3 1.93l-4.85 4.85a.91.91 0 01-.76.22h-.01a1.9 1.9 0 01-1.15-.57l-1.16-1.17-1.53 1.54 1.16 1.16c.66.68 1.52 1.1 2.45 1.2h.28c.84.02 1.66-.32 2.24-.94l4.88-4.88a3.52 3.52 0 00-.37-4.98l-1.92-1.93a3.52 3.52 0 00-2.4-1.22zm-5.83 5.82a3.52 3.52 0 00-2.56.85h-.01l-4.89 4.9a3.52 3.52 0 00.37 4.98l1.93 1.92c.73.77 1.74 1.2 2.8 1.22.81.02 1.6-.3 2.18-.85l2.66-2.67-1.52-1.54-2.64 2.65c-.62.41-1.46.28-1.92-.3l-.01-.01-1.98-1.98a1.44 1.44 0 01-.3-1.93l4.83-4.84c.63-.4 1.45-.26 1.92.32l.01.01 1.16 1.18 1.54-1.54-1.16-1.16a3.52 3.52 0 00-2.4-1.21z" clip-rule="evenodd"/>
  <path fill="url(#paint4_linear)" d="M314 53a26 26 0 00-52 0v26h26a26 26 0 0026-26z"/>
  <path fill="#fff" fill-rule="evenodd" d="M281.67 45.25v2.66h-2.6c-.88 0-1.64.72-1.64 1.64v13.88c0 .9.72 1.64 1.64 1.64h17.5c.9 0 1.64-.72 1.64-1.64V49.55c0-.9-.71-1.64-1.63-1.64h-2.56v-2.66a6.17 6.17 0 10-12.35 0zm2.6 0v2.66h7.08v-2.66c0-2.46-1.88-3.54-3.54-3.54-1.67 0-3.54 1.08-3.54 3.54zm3.22 7.3c-1.2 0-2.15.95-2.15 2.15 0 .82.45 1.53 1.13 1.88l-.89 3.82h3.82l-.88-3.82a2.14 2.14 0 00-1.02-4.03z" clip-rule="evenodd"/>
  <defs>
    <linearGradient id="paint0_linear" x1="131" x2="234.87" y1="165" y2="168.7" gradientUnits="userSpaceOnUse">
      <stop stop-color="#BACAE3"/>
      <stop offset="1" stop-color="#ADC1DE"/>
    </linearGradient>
    <linearGradient id="paint1_linear" x1="143.5" x2="231.91" y1="49" y2="166.16" gradientUnits="userSpaceOnUse">
      <stop stop-color="#C2D9F4"/>
      <stop offset=".39" stop-color="#E7F4FF"/>
      <stop offset="1" stop-color="#AFC1DB"/>
    </linearGradient>
    <linearGradient id="paint2_linear" x1="152.5" x2="202.06" y1="55.69" y2="144.36" gradientUnits="userSpaceOnUse">
      <stop offset=".01" stop-color="#66A3FF"/>
      <stop offset="1" stop-color="#CC63FE"/>
    </linearGradient>
    <linearGradient id="paint3_linear" x1="50.07" x2="79.5" y1="117" y2="165.16" gradientUnits="userSpaceOnUse">
      <stop stop-color="#72D5FF"/>
      <stop offset="1" stop-color="#72B9FF"/>
    </linearGradient>
    <linearGradient id="paint4_linear" x1="288" x2="288" y1="33.04" y2="84.57" gradientUnits="userSpaceOnUse">
      <stop stop-color="#FFD66C"/>
      <stop offset="1" stop-color="#FF658A"/>
    </linearGradient>
    <filter id="filter0_i" width="128.16" height="34.28" x="125.01" y="150.01" color-interpolation-filters="sRGB" filterUnits="userSpaceOnUse">
      <feFlood flood-opacity="0" result="BackgroundImageFix"/>
      <feBlend in="SourceGraphic" in2="BackgroundImageFix" result="shape"/>
      <feColorMatrix in="SourceAlpha" result="hardAlpha" values="0 0 0 0 0 0 0 0 0 0 0 0 0 0 0 0 0 0 127 0"/>
      <feOffset dx="-6" dy="4"/>
      <feGaussianBlur stdDeviation="3.5"/>
      <feComposite in2="hardAlpha" k2="-1" k3="1" operator="arithmetic"/>
      <feColorMatrix values="0 0 0 0 0.21217 0 0 0 0 0.291124 0 0 0 0 0.420833 0 0 0 0.31 0"/>
      <feBlend in2="shape" result="effect1_innerShadow"/>
    </filter>
    <filter id="filter1_i" width="122.14" height="111.05" x="131" y="48" color-interpolation-filters="sRGB" filterUnits="userSpaceOnUse">
      <feFlood flood-opacity="0" result="BackgroundImageFix"/>
      <feBlend in="SourceGraphic" in2="BackgroundImageFix" result="shape"/>
      <feColorMatrix in="SourceAlpha" result="hardAlpha" values="0 0 0 0 0 0 0 0 0 0 0 0 0 0 0 0 0 0 127 0"/>
      <feOffset dy="-1"/>
      <feGaussianBlur stdDeviation="1"/>
      <feComposite in2="hardAlpha" k2="-1" k3="1" operator="arithmetic"/>
      <feColorMatrix values="0 0 0 0 1 0 0 0 0 1 0 0 0 0 1 0 0 0 1 0"/>
      <feBlend in2="shape" result="effect1_innerShadow"/>
    </filter>
  </defs>
</svg>
