<svg width="48" height="48" fill="none" xmlns="http://www.w3.org/2000/svg">
    <path d="M23.103 10.817a1 1 0 0 1 1.794 0l3.279 6.644a1 1 0 0 0 .753.547l7.332 1.065a1 1 0 0 1 .554 1.706l-5.306 5.172a1 1 0 0 0-.287.885l1.252 7.302a1 1 0 0 1-1.45 1.054l-6.559-3.447a1 1 0 0 0-.93 0l-6.558 3.447a1 1 0 0 1-1.451-1.054l1.252-7.302a1 1 0 0 0-.287-.885l-5.306-5.172a1 1 0 0 1 .554-1.706l7.332-1.065a1 1 0 0 0 .753-.547l3.28-6.644Z" fill="url(#a)"/>
    <path d="m39.155 10.567 1.34-1.484a1 1 0 1 0-1.484-1.34l-1.34 1.483a1 1 0 1 0 1.484 1.34Z" fill="#48D3FF"/>
    <path d="M8.95 34.535 6.12 31.707a1 1 0 1 0-1.414 1.414l2.829 2.829a1 1 0 0 0 1.414-1.415Z" fill="#55E5B2"/>
    <path d="m39.12 41.95 2.83-2.829a1 1 0 0 0-1.415-1.414l-2.828 2.828a1 1 0 1 0 1.414 1.415Z" fill="#C867F5"/>
    <path d="M20.567 42.541a1 1 0 0 0-.686-.722l-1.084-.325a1 1 0 0 0-.975.232l-.83.788a1 1 0 0 0-.287.95l.26 1.129a1 1 0 0 0 .687.733l1.08.324a1 1 0 0 0 .972-.23l.847-.798a1 1 0 0 0 .286-.964l-.27-1.117Z" fill="#FFA8A8"/>
    <path d="M11.4 5.076c.711.41.711 1.437 0 1.848L8.6 8.54c-.711.41-1.6-.102-1.6-.923V4.383c0-.82.889-1.334 1.6-.923l2.8 1.616Z" fill="#FF69B8"/>
    <defs>
        <linearGradient id="a" x1="24" y1="9" x2="24" y2="39" gradientUnits="userSpaceOnUse">
        <stop stop-color="#FFE76C"/>
        <stop offset="1" stop-color="#FFB94F"/>
        </linearGradient>
    </defs>
</svg>