<svg xmlns="http://www.w3.org/2000/svg" width="362" height="360" fill="none">
    <g clip-path="url(#a)">
        <path
            fill="#F7F5FF"
            d="M.5 20a20 20 0 0 1 20-20h321a20 20 0 0 1 20 20v320a20 20 0 0 1-20 20h-321a20 20 0 0 1-20-20V20Z"
        />
        <path
            fill="#F4F1FF"
            d="M153.59 564.84h855V-195.3H256.61c13.85 14.27 26.99 31.62 39.05 52.52 43.87 75.98 39.98 140.7 17.19 190.71-22.76 49.95-64.32 85.14-95.7 102.28L72.72 233.6c-19.02 10.98-37.55 26.66-46.18 48.46-8.6 21.76-7.44 49.83 13.34 85.82l113.7 196.96Z"
        />
        <g filter="url(#b)" opacity=".8">
            <path fill="#AA79FB" d="M80.5 97h190l-21.11 57H101.6L80.5 97Z" />
        </g>
        <g filter="url(#c)" opacity=".8">
            <ellipse cx="180" cy="102" fill="#fff" rx="81.5" ry="7" />
        </g>
        <g filter="url(#d)">
            <path
                fill="#3B3747"
                d="M86.55 113.02a8.02 8.02 0 0 1 8.02-8.02h166.4a8.02 8.02 0 0 1 8.02 8.02V231.3H86.55V113.02Z"
            />
            <path
                fill="url(#e)"
                fill-opacity=".2"
                d="M86.55 113.02a8.02 8.02 0 0 1 8.02-8.02h166.4a8.02 8.02 0 0 1 8.02 8.02V231.3H86.55V113.02Z"
            />
        </g>
        <path fill="url(#f)" d="M90.56 113.02a4 4 0 0 1 4-4.01h166.4a4 4 0 0 1 4.02 4v118.3H90.56V113Z" />
        <g filter="url(#g)">
            <path
                fill="#3B3747"
                d="M286.27 240.07H69.93a3.39 3.39 0 0 1-3.43-3.42v-1.92c0-1.91 1.5-3.41 3.43-3.41h216.34c1.92 0 3.43 1.5 3.43 3.41v1.92a3.44 3.44 0 0 1-3.43 3.42Z"
            />
            <path
                fill="url(#h)"
                fill-opacity=".2"
                d="M286.27 240.07H69.93a3.39 3.39 0 0 1-3.43-3.42v-1.92c0-1.91 1.5-3.41 3.43-3.41h216.34c1.92 0 3.43 1.5 3.43 3.41v1.92a3.44 3.44 0 0 1-3.43 3.42Z"
            />
        </g>
        <path fill="#9D99A9" d="M188.23 236.1h-20.8a4.78 4.78 0 0 1-4.78-4.78h30.36c0 2.6-2.1 4.78-4.78 4.78Z" />
        <mask id="j" width="175" height="122" x="90" y="109" maskUnits="userSpaceOnUse" style="mask-type: alpha">
            <path
                fill="url(#i)"
                d="M90.5 117a8 8 0 0 1 8-8h158a8 8 0 0 1 8 8v106a8 8 0 0 1-8 8h-158a8 8 0 0 1-8-8V117Z"
            />
        </mask>
        <g mask="url(#j)">
            <path
                stroke="#fff"
                stroke-opacity=".4"
                stroke-width="1.14"
                d="M147.89 114.41a26.55 26.55 0 0 0-26.55 26.55v58.36a26.55 26.55 0 0 0 26.55 26.55h58.36a26.55 26.55 0 0 0 26.55-26.55v-58.36a26.55 26.55 0 0 0-26.55-26.55h-58.36Z"
                opacity=".5"
            />
            <g filter="url(#k)">
                <ellipse cx="180.5" cy="169.5" fill="#6D4AFF" rx="68" ry="19.5" />
            </g>
            <path
                fill="#433F4F"
                d="M136.5 148.31A19.31 19.31 0 0 1 155.81 129h43.38a19.31 19.31 0 0 1 19.31 19.31v43.38A19.31 19.31 0 0 1 199.19 211H155.8a19.31 19.31 0 0 1-19.31-19.31V148.3Z"
                opacity=".8"
            />
            <g filter="url(#l)" opacity=".8">
                <path
                    fill="#000"
                    fill-opacity=".3"
                    d="M163.5 157.83c0-5.98 4.85-10.83 10.83-10.83h24.34c5.98 0 10.83 4.85 10.83 10.83v24.34c0 5.98-4.85 10.83-10.83 10.83h-24.34a10.83 10.83 0 0 1-10.83-10.83v-24.34Z"
                />
            </g>
            <rect width="46" height="46" x="153" y="147" fill="#49425E" rx="13.34" />
            <path
                fill="#fff"
                d="M176 158.63h-10.78v10.78h10.79v-10.78Zm11.97 0H177.2v10.78h10.78v-10.78ZM176 170.6h-10.78v10.78h10.79v-10.79Zm11.97 0H177.2v10.78h10.78v-10.79Z"
            />
        </g>
    </g>
    <defs>
        <filter
            id="b"
            width="250"
            height="117"
            x="50.5"
            y="67"
            color-interpolation-filters="sRGB"
            filterUnits="userSpaceOnUse"
        >
            <feFlood flood-opacity="0" result="BackgroundImageFix" />
            <feBlend in="SourceGraphic" in2="BackgroundImageFix" result="shape" />
            <feGaussianBlur result="effect1_foregroundBlur_172_62244" stdDeviation="15" />
        </filter>
        <filter
            id="c"
            width="230.59"
            height="81.59"
            x="64.7"
            y="61.2"
            color-interpolation-filters="sRGB"
            filterUnits="userSpaceOnUse"
        >
            <feFlood flood-opacity="0" result="BackgroundImageFix" />
            <feBlend in="SourceGraphic" in2="BackgroundImageFix" result="shape" />
            <feGaussianBlur result="effect1_foregroundBlur_172_62244" stdDeviation="16.9" />
        </filter>
        <filter
            id="d"
            width="182.44"
            height="127.7"
            x="86.55"
            y="105"
            color-interpolation-filters="sRGB"
            filterUnits="userSpaceOnUse"
        >
            <feFlood flood-opacity="0" result="BackgroundImageFix" />
            <feBlend in="SourceGraphic" in2="BackgroundImageFix" result="shape" />
            <feColorMatrix in="SourceAlpha" result="hardAlpha" values="0 0 0 0 0 0 0 0 0 0 0 0 0 0 0 0 0 0 127 0" />
            <feOffset dy="1.4" />
            <feGaussianBlur stdDeviation=".7" />
            <feComposite in2="hardAlpha" k2="-1" k3="1" operator="arithmetic" />
            <feColorMatrix values="0 0 0 0 1 0 0 0 0 1 0 0 0 0 1 0 0 0 0.45 0" />
            <feBlend in2="shape" result="effect1_innerShadow_172_62244" />
        </filter>
        <filter
            id="g"
            width="223.2"
            height="10.2"
            x="66.5"
            y="231.32"
            color-interpolation-filters="sRGB"
            filterUnits="userSpaceOnUse"
        >
            <feFlood flood-opacity="0" result="BackgroundImageFix" />
            <feBlend in="SourceGraphic" in2="BackgroundImageFix" result="shape" />
            <feColorMatrix in="SourceAlpha" result="hardAlpha" values="0 0 0 0 0 0 0 0 0 0 0 0 0 0 0 0 0 0 127 0" />
            <feOffset dy="1.45" />
            <feGaussianBlur stdDeviation=".72" />
            <feComposite in2="hardAlpha" k2="-1" k3="1" operator="arithmetic" />
            <feColorMatrix values="0 0 0 0 1 0 0 0 0 1 0 0 0 0 1 0 0 0 0.4 0" />
            <feBlend in2="shape" result="effect1_innerShadow_172_62244" />
        </filter>
        <filter
            id="k"
            width="256.56"
            height="159.56"
            x="52.22"
            y="89.72"
            color-interpolation-filters="sRGB"
            filterUnits="userSpaceOnUse"
        >
            <feFlood flood-opacity="0" result="BackgroundImageFix" />
            <feBlend in="SourceGraphic" in2="BackgroundImageFix" result="shape" />
            <feGaussianBlur result="effect1_foregroundBlur_172_62244" stdDeviation="30.14" />
        </filter>
        <filter
            id="l"
            width="86"
            height="86"
            x="143.5"
            y="127"
            color-interpolation-filters="sRGB"
            filterUnits="userSpaceOnUse"
        >
            <feFlood flood-opacity="0" result="BackgroundImageFix" />
            <feBlend in="SourceGraphic" in2="BackgroundImageFix" result="shape" />
            <feGaussianBlur result="effect1_foregroundBlur_172_62244" stdDeviation="10" />
        </filter>
        <linearGradient id="e" x1="224.73" x2="95.24" y1="285.22" y2="172.46" gradientUnits="userSpaceOnUse">
            <stop stop-color="#fff" />
            <stop offset=".55" stop-color="#fff" stop-opacity="0" />
        </linearGradient>
        <linearGradient id="f" x1="194.09" x2="153.73" y1="77.11" y2="197.84" gradientUnits="userSpaceOnUse">
            <stop stop-color="#A7A4B5" />
            <stop offset="1" stop-color="#4A4658" />
        </linearGradient>
        <linearGradient id="h" x1="235.55" x2="234.38" y1="243.81" y2="225.76" gradientUnits="userSpaceOnUse">
            <stop stop-color="#fff" />
            <stop offset=".55" stop-color="#fff" stop-opacity="0" />
        </linearGradient>
        <linearGradient id="i" x1="199.28" x2="196.67" y1="51.69" y2="208.79" gradientUnits="userSpaceOnUse">
            <stop stop-color="#A7A4B5" />
            <stop offset="1" stop-color="#35323F" />
        </linearGradient>
        <clipPath id="a">
            <path
                fill="#fff"
                d="M.5 20a20 20 0 0 1 20-20h321a20 20 0 0 1 20 20v320a20 20 0 0 1-20 20h-321a20 20 0 0 1-20-20V20Z"
            />
        </clipPath>
    </defs>
</svg>
