<svg xmlns="http://www.w3.org/2000/svg" width="361" height="360" fill="none">
    <g clip-path="url(#a)">
        <rect width="360" height="360" fill="#F4F1FF" rx="20" />
        <g filter="url(#b)">
            <ellipse cx="183.5" cy="83" fill="#fff" rx="81.5" ry="7" />
        </g>
        <g filter="url(#c)">
            <path
                fill="#121515"
                fill-rule="evenodd"
                d="M275.4 150h.46c.5 0 .91.41.91.92v43.79c0 .5-.4.9-.91.9h-.46v-45.6ZM82 177.37c0-.5.4-.91.91-.91h.46v28.74h-.46a.91.91 0 0 1-.91-.91v-26.92Zm0-36.03c0-.5.4-.91.91-.91h.46v28.73h-.46a.9.9 0 0 1-.91-.91v-26.91Zm0-27.83c0-.5.4-.91.91-.91h.46v15.05h-.46a.9.9 0 0 1-.91-.91v-13.23Z"
                clip-rule="evenodd"
            />
            <g filter="url(#d)">
                <path
                    fill="#000"
                    fill-rule="evenodd"
                    d="M83.37 88.88a28.74 28.74 0 0 1 28.73-28.74h134.57a28.74 28.74 0 0 1 28.74 28.74v333.9a28.74 28.74 0 0 1-28.74 28.74H112.1a28.74 28.74 0 0 1-28.74-28.74V88.88Z"
                    clip-rule="evenodd"
                />
            </g>
            <path
                fill="#fff"
                fill-rule="evenodd"
                d="M85.65 88.88a26.46 26.46 0 0 1 26.45-26.46h134.57a26.46 26.46 0 0 1 26.46 26.46v333.9a26.46 26.46 0 0 1-26.46 26.46H112.1a26.46 26.46 0 0 1-26.46-26.46V88.88Z"
                clip-rule="evenodd"
            />
            <path
                fill="#262C2D"
                fill-rule="evenodd"
                d="M200.14 78.39a3.65 3.65 0 1 0 0-7.3 3.65 3.65 0 0 0 0 7.3Z"
                clip-rule="evenodd"
            />
            <path
                fill="#121515"
                fill-rule="evenodd"
                d="M200.14 77.02a2.28 2.28 0 1 0 0-4.56 2.28 2.28 0 0 0 0 4.56Z"
                clip-rule="evenodd"
            />
            <path
                fill="#636F73"
                fill-rule="evenodd"
                d="M200.14 74.28a.46.46 0 1 0 0-.9.46.46 0 0 0 0 .9Z"
                clip-rule="evenodd"
                opacity=".4"
            />
            <path
                fill="#262C2D"
                fill-rule="evenodd"
                d="M167.75 74.74c0-.76.62-1.37 1.37-1.37h20.53a1.37 1.37 0 1 1 0 2.74h-20.53c-.75 0-1.37-.61-1.37-1.37Z"
                clip-rule="evenodd"
            />
        </g>
        <g filter="url(#e)">
            <path
                fill="#fff"
                d="M150.84 50.63C150.84 42 158 35 166.8 35h25.53c8.82 0 15.96 7 15.96 15.63v25c0 8.63-7.14 15.62-15.96 15.62H166.8c-8.81 0-15.96-7-15.96-15.62v-25Z"
            />
            <path
                fill="url(#f)"
                d="m162.01 52.75 5.02-2.46 8.78 4.91h15.04v20.76l-1.25 1.23h-23.83a3.72 3.72 0 0 1-3.76-3.68V52.75Z"
            />
            <path
                fill="url(#g)"
                fill-rule="evenodd"
                d="M175.76 50.81c.64.46 1.41.7 2.2.7h15.4a3.72 3.72 0 0 1 3.76 3.7v18.3a3.72 3.72 0 0 1-3.76 3.68h-3.76v-17.7a3.1 3.1 0 0 0-3.14-3.06H173.3c-.82 0-1.6-.26-2.26-.74l-3-2.2a3.81 3.81 0 0 0-2.27-.74h-3.76a3.72 3.72 0 0 1 3.76-3.69h6.3c.8 0 1.57.25 2.22.7l1.47 1.05Z"
                clip-rule="evenodd"
            />
        </g>
        <g clip-path="url(#h)">
            <path fill="#fff" d="M250.6 144.15H109.1v141.5h141.5v-141.5Z" />
            <path
                fill="#000"
                d="M122.2 153h-4.26v4.26h4.27V153Zm4.28 0h-4.27v4.26h4.27V153Zm4.27 0h-4.27v4.26h4.27V153Zm4.27 0h-4.27v4.26h4.27V153Z"
            />
            <path
                fill="#000"
                d="M139.29 153h-4.27v4.26h4.27V153Zm4.27 0h-4.27v4.26h4.27V153Zm4.26 0h-4.26v4.26h4.26V153Zm8.54 0h-4.27v4.26h4.27V153Zm4.27 0h-4.27v4.26h4.27V153Zm21.35 0h-4.27v4.26h4.27V153Zm4.27 0h-4.27v4.26h4.27V153Zm4.27 0h-4.27v4.26h4.27V153Zm8.54 0h-4.27v4.26h4.27V153Zm17.07 0h-4.26v4.26h4.26V153Zm4.27 0h-4.27v4.26h4.27V153Z"
            />
            <path
                fill="#000"
                d="M224.67 153h-4.27v4.26h4.27V153Zm4.27 0h-4.27v4.26h4.27V153Zm4.27 0h-4.27v4.26h4.27V153Z"
            />
            <path
                fill="#000"
                d="M237.48 153h-4.27v4.26h4.27V153Zm4.27 0h-4.27v4.26h4.27V153Zm-119.55 4.26h-4.26v4.27h4.27v-4.27Zm25.62 0h-4.26v4.27h4.26v-4.27Zm25.62 0h-4.27v4.27h4.27v-4.27Zm4.27 0h-4.27v4.27h4.27v-4.27Zm8.54 0h-4.27v4.27h4.27v-4.27Zm8.54 0h-4.27v4.27h4.27v-4.27Zm12.81 0h-4.27v4.27h4.27v-4.27Zm8.53 0h-4.26v4.27h4.26v-4.27Zm25.62 0h-4.27v4.27h4.27v-4.27Zm-119.55 4.27h-4.26v4.27h4.27v-4.27Zm8.55 0h-4.27v4.27h4.27v-4.27Zm4.27 0h-4.27v4.27h4.27v-4.27Z"
            />
            <path
                fill="#000"
                d="M139.29 161.53h-4.27v4.27h4.27v-4.27Zm8.53 0h-4.26v4.27h4.26v-4.27Zm8.54 0h-4.27v4.27h4.27v-4.27Zm12.81 0h-4.27v4.27h4.27v-4.27Zm8.54 0h-4.27v4.27h4.27v-4.27Zm12.81 0h-4.27v4.27h4.27v-4.27Zm12.81 0h-4.27v4.27h4.27v-4.27Zm4.27 0h-4.27v4.27h4.27v-4.27Zm8.53 0h-4.26v4.27h4.26v-4.27Zm8.54 0h-4.27v4.27h4.27v-4.27Zm4.27 0h-4.27v4.27h4.27v-4.27Zm4.27 0h-4.27v4.27h4.27v-4.27Zm8.54 0h-4.27v4.27h4.27v-4.27ZM122.2 165.8h-4.26v4.27h4.27v-4.27Zm8.55 0h-4.27v4.27h4.27v-4.27Zm4.27 0h-4.27v4.27h4.27v-4.27Z"
            />
            <path
                fill="#000"
                d="M139.29 165.8h-4.27v4.27h4.27v-4.27Zm8.53 0h-4.26v4.27h4.26v-4.27Zm8.54 0h-4.27v4.27h4.27v-4.27Zm12.81 0h-4.27v4.27h4.27v-4.27Zm4.27 0h-4.27v4.27h4.27v-4.27Zm4.27 0h-4.27v4.27h4.27v-4.27Zm25.62 0h-4.27v4.27h4.27v-4.27Zm12.8 0h-4.26v4.27h4.26v-4.27Zm8.54 0h-4.27v4.27h4.27v-4.27Zm4.27 0h-4.27v4.27h4.27v-4.27Zm4.27 0h-4.27v4.27h4.27v-4.27Zm8.54 0h-4.27v4.27h4.27v-4.27Zm-119.55 4.27h-4.26v4.27h4.27v-4.27Zm8.55 0h-4.27v4.27h4.27v-4.27Z"
            />
            <path fill="#000" d="M135.02 170.07h-4.27v4.27h4.27v-4.27Z" />
            <path
                fill="#000"
                d="M139.29 170.07h-4.27v4.27h4.27v-4.27Zm8.53 0h-4.26v4.27h4.26v-4.27Zm17.08 0h-4.27v4.27h4.27v-4.27Zm12.81 0h-4.27v4.27h4.27v-4.27Zm4.27 0h-4.27v4.27h4.27v-4.27Zm4.27 0h-4.27v4.27h4.27v-4.27Zm8.54 0h-4.27v4.27h4.27v-4.27Zm4.27 0h-4.27v4.27h4.27v-4.27Zm4.27 0h-4.27v4.27h4.27v-4.27Zm12.8 0h-4.26v4.27h4.26v-4.27Zm8.54 0h-4.27v4.27h4.27v-4.27Zm4.27 0h-4.27v4.27h4.27v-4.27Zm4.27 0h-4.27v4.27h4.27v-4.27Zm8.54 0h-4.27v4.27h4.27v-4.27Zm-119.55 4.27h-4.26v4.27h4.27v-4.27Zm25.62 0h-4.26v4.27h4.26v-4.27Zm8.54 0h-4.27v4.27h4.27v-4.27Z"
            />
            <path
                fill="#000"
                d="M160.63 174.34h-4.27v4.27h4.27v-4.27Zm4.27 0h-4.27v4.27h4.27v-4.27Zm8.54 0h-4.27v4.27h4.27v-4.27Zm25.62 0h-4.27v4.27h4.27v-4.27Zm17.07 0h-4.26v4.27h4.26v-4.27Zm25.62 0h-4.27v4.27h4.27v-4.27Zm-119.55 4.27h-4.26v4.27h4.27v-4.27Zm4.28 0h-4.27v4.27h4.27v-4.27Zm4.27 0h-4.27v4.27h4.27v-4.27Zm4.27 0h-4.27v4.27h4.27v-4.27Z"
            />
            <path
                fill="#000"
                d="M139.29 178.61h-4.27v4.27h4.27v-4.27Zm4.27 0h-4.27v4.27h4.27v-4.27Zm4.26 0h-4.26v4.27h4.26v-4.27Zm8.54 0h-4.27v4.27h4.27v-4.27Zm8.54 0h-4.27v4.27h4.27v-4.27Zm8.54 0h-4.27v4.27h4.27v-4.27Zm8.54 0h-4.27v4.27h4.27v-4.27Zm8.54 0h-4.27v4.27h4.27v-4.27Zm8.54 0h-4.27v4.27h4.27v-4.27Zm8.54 0h-4.27v4.27h4.27v-4.27Zm8.53 0h-4.26v4.27h4.26v-4.27Zm4.27 0h-4.27v4.27h4.27v-4.27Zm4.27 0h-4.27v4.27h4.27v-4.27Zm4.27 0h-4.27v4.27h4.27v-4.27Zm4.27 0h-4.27v4.27h4.27v-4.27Zm4.27 0h-4.27v4.27h4.27v-4.27Zm4.27 0h-4.27v4.27h4.27v-4.27Zm-85.39 4.27h-4.27v4.27h4.27v-4.27Zm8.54 0h-4.27v4.27h4.27v-4.27Zm8.54 0h-4.27v4.27h4.27v-4.27Zm8.54 0h-4.27v4.27h4.27v-4.27Zm4.27 0h-4.27v4.27h4.27v-4.27Zm4.27 0h-4.27v4.27h4.27v-4.27Z"
            />
            <path
                fill="#000"
                d="M194.79 182.88h-4.27v4.27h4.27v-4.27Zm8.54 0h-4.27v4.27h4.27v-4.27Zm4.27 0h-4.27v4.27h4.27v-4.27Zm-85.4 4.27h-4.26v4.27h4.27v-4.27Zm4.28 0h-4.27v4.27h4.27v-4.27Zm8.54 0h-4.27v4.27h4.27v-4.27Zm12.8 0h-4.26v4.27h4.26v-4.27Zm4.28 0h-4.28v4.27h4.27v-4.27Zm8.53 0h-4.27v4.27h4.27v-4.27Zm8.54 0h-4.27v4.27h4.27v-4.27Zm17.08 0h-4.27v4.27h4.27v-4.27Zm4.27 0h-4.27v4.27h4.27v-4.27Z"
            />
            <path
                fill="#000"
                d="M194.79 187.15h-4.27v4.27h4.27v-4.27Zm4.27 0h-4.27v4.27h4.27v-4.27Zm12.81 0h-4.27v4.27h4.27v-4.27Zm4.26 0h-4.26v4.27h4.26v-4.27Zm4.27 0h-4.27v4.27h4.27v-4.27Zm8.54 0h-4.27v4.27h4.27v-4.27Zm4.27 0h-4.27v4.27h4.27v-4.27Zm8.54 0h-4.27v4.27h4.27v-4.27Zm-115.27 4.27h-4.27v4.27h4.27v-4.27Zm8.54 0h-4.27v4.27h4.27v-4.27Z"
            />
            <path
                fill="#000"
                d="M139.29 191.42h-4.27v4.27h4.27v-4.27Zm12.81 0h-4.28v4.27h4.27v-4.27Zm12.8 0h-4.27v4.27h4.27v-4.27Z"
            />
            <path
                fill="#000"
                d="M169.17 191.42h-4.27v4.27h4.27v-4.27Zm8.54 0h-4.27v4.27h4.27v-4.27Zm4.27 0h-4.27v4.27h4.27v-4.27Zm8.54 0h-4.27v4.27h4.27v-4.27Zm4.27 0h-4.27v4.27h4.27v-4.27Zm4.27 0h-4.27v4.27h4.27v-4.27Zm25.61 0h-4.27v4.27h4.27v-4.27Zm4.27 0h-4.27v4.27h4.27v-4.27Zm4.27 0h-4.27v4.27h4.27v-4.27Z"
            />
            <path
                fill="#000"
                d="M237.48 191.42h-4.27v4.27h4.27v-4.27Zm-115.28 4.27h-4.26v4.27h4.27v-4.27Zm12.82 0h-4.27v4.27h4.27v-4.27Zm4.27 0h-4.27v4.27h4.27v-4.27Zm4.27 0h-4.27v4.27h4.27v-4.27Zm4.26 0h-4.26v4.27h4.26v-4.27Zm8.54 0h-4.27v4.27h4.27v-4.27Zm8.54 0h-4.27v4.27h4.27v-4.27Zm8.54 0h-4.27v4.27h4.27v-4.27Zm17.08 0h-4.27v4.27h4.27v-4.27Zm17.08 0h-4.27v4.27h4.27v-4.27Zm8.53 0h-4.26v4.27h4.26v-4.27Zm4.27 0h-4.27v4.27h4.27v-4.27Zm4.27 0h-4.27v4.27h4.27v-4.27Zm4.27 0h-4.27v4.27h4.27v-4.27Zm8.54 0h-4.27v4.27h4.27v-4.27Zm4.27 0h-4.27v4.27h4.27v-4.27Zm-111 4.27h-4.27v4.27h4.27v-4.27Zm4.27 0h-4.27v4.27h4.27v-4.27Zm8.54 0h-4.27v4.27h4.27v-4.27Zm17.07 0h-4.27v4.27h4.27v-4.27Zm12.81 0h-4.27v4.27h4.27v-4.27Zm4.27 0h-4.27v4.27h4.27v-4.27Z"
            />
            <path
                fill="#000"
                d="M181.98 199.96h-4.27v4.27h4.27v-4.27Zm4.27 0h-4.27v4.27h4.27v-4.27Zm17.08 0h-4.27v4.27h4.27v-4.27Zm8.54 0h-4.27v4.27h4.27v-4.27Zm12.8 0h-4.27v4.27h4.27v-4.27Zm4.27 0h-4.27v4.27h4.27v-4.27Zm8.54 0h-4.27v4.27h4.27v-4.27Zm-115.28 4.27h-4.26v4.27h4.27v-4.27Zm4.28 0h-4.27v4.27h4.27v-4.27Zm17.08 0h-4.27v4.27h4.27v-4.27Zm4.26 0h-4.26v4.27h4.26v-4.27Zm17.08 0h-4.27v4.27h4.27v-4.27Z"
            />
            <path
                fill="#000"
                d="M181.98 204.23h-4.27v4.27h4.27v-4.27Zm4.27 0h-4.27v4.27h4.27v-4.27Zm8.54 0h-4.27v4.27h4.27v-4.27Zm8.54 0h-4.27v4.27h4.27v-4.27Zm21.34 0h-4.27v4.27h4.27v-4.27Zm8.54 0h-4.27v4.27h4.27v-4.27ZM122.2 208.5h-4.26v4.26h4.27v-4.26Zm4.28 0h-4.27v4.26h4.27v-4.26Zm17.08 0h-4.27v4.26h4.27v-4.26Zm12.8 0h-4.27v4.26h4.27v-4.26Z"
            />
            <path
                fill="#000"
                d="M160.63 208.5h-4.27v4.26h4.27v-4.26Zm4.27 0h-4.27v4.26h4.27v-4.26Zm17.08 0h-4.27v4.26h4.27v-4.26Zm17.08 0h-4.27v4.26h4.27v-4.26Zm4.27 0h-4.27v4.26h4.27v-4.26Z"
            />
            <path
                fill="#000"
                d="M207.6 208.5h-4.27v4.26h4.27v-4.26Zm12.8 0h-4.27v4.26h4.27v-4.26Zm12.81 0h-4.27v4.26h4.27v-4.26Z"
            />
            <path
                fill="#000"
                d="M237.48 208.5h-4.27v4.26h4.27v-4.26Zm-115.28 4.26h-4.26v4.27h4.27v-4.27Zm12.82 0h-4.27v4.27h4.27v-4.27Zm4.27 0h-4.27v4.27h4.27v-4.27Zm8.53 0h-4.26v4.27h4.26v-4.27Zm12.81 0h-4.27v4.27h4.27v-4.27Zm12.81 0h-4.27v4.27h4.27v-4.27Zm4.27 0h-4.27v4.27h4.27v-4.27Zm8.54 0h-4.27v4.27h4.27v-4.27Zm4.27 0h-4.27v4.27h4.27v-4.27Z"
            />
            <path
                fill="#000"
                d="M194.79 212.76h-4.27v4.27h4.27v-4.27Zm4.27 0h-4.27v4.27h4.27v-4.27Zm4.27 0h-4.27v4.27h4.27v-4.27Z"
            />
            <path
                fill="#000"
                d="M207.6 212.76h-4.27v4.27h4.27v-4.27Zm8.53 0h-4.26v4.27h4.26v-4.27Zm4.27 0h-4.27v4.27h4.27v-4.27Zm-98.2 4.27h-4.26v4.27h4.27v-4.27Zm12.82 0h-4.27v4.27h4.27v-4.27Zm8.54 0h-4.27v4.27h4.27v-4.27Zm8.54 0h-4.28v4.27h4.27v-4.27Z"
            />
            <path fill="#000" d="M156.36 217.03h-4.27v4.27h4.27v-4.27Z" />
            <path
                fill="#000"
                d="M160.63 217.03h-4.27v4.27h4.27v-4.27Zm12.81 0h-4.27v4.27h4.27v-4.27Zm8.54 0h-4.27v4.27h4.27v-4.27Zm8.54 0h-4.27v4.27h4.27v-4.27Zm8.54 0h-4.27v4.27h4.27v-4.27Zm12.81 0h-4.27v4.27h4.27v-4.27Zm4.26 0h-4.26v4.27h4.26v-4.27Zm4.27 0h-4.27v4.27h4.27v-4.27Zm17.08 0h-4.27v4.27h4.27v-4.27Zm-111 4.27h-4.27v4.27h4.27v-4.27Zm4.27 0h-4.27v4.27h4.27v-4.27Zm8.54 0h-4.27v4.27h4.27v-4.27Zm4.27 0h-4.27v4.27h4.27v-4.27Zm4.26 0h-4.26v4.27h4.26v-4.27Zm4.28 0h-4.28v4.27h4.27v-4.27Zm12.8 0h-4.27v4.27h4.27v-4.27Zm4.27 0h-4.27v4.27h4.27v-4.27Zm8.54 0h-4.27v4.27h4.27v-4.27Zm4.27 0h-4.27v4.27h4.27v-4.27Zm4.27 0h-4.27v4.27h4.27v-4.27Zm4.27 0h-4.27v4.27h4.27v-4.27Z"
            />
            <path
                fill="#000"
                d="M194.79 221.3h-4.27v4.27h4.27v-4.27Zm4.27 0h-4.27v4.27h4.27v-4.27Zm8.54 0h-4.27v4.27h4.27v-4.27Zm4.27 0h-4.27v4.27h4.27v-4.27Zm12.8 0h-4.27v4.27h4.27v-4.27Zm-98.19 4.27h-4.27v4.27h4.27v-4.27Zm8.54 0h-4.27v4.27h4.27v-4.27Z"
            />
            <path fill="#000" d="M139.29 225.57h-4.27v4.27h4.27v-4.27Zm12.81 0h-4.28v4.27h4.27v-4.27Z" />
            <path
                fill="#000"
                d="M156.36 225.57h-4.27v4.27h4.27v-4.27Zm8.54 0h-4.27v4.27h4.27v-4.27Zm8.54 0h-4.27v4.27h4.27v-4.27Zm4.27 0h-4.27v4.27h4.27v-4.27Zm12.81 0h-4.27v4.27h4.27v-4.27Z"
            />
            <path
                fill="#000"
                d="M194.79 225.57h-4.27v4.27h4.27v-4.27Zm4.27 0h-4.27v4.27h4.27v-4.27Zm17.07 0h-4.26v4.27h4.26v-4.27Zm17.08 0h-4.27v4.27h4.27v-4.27Zm4.27 0h-4.27v4.27h4.27v-4.27Zm4.27 0h-4.27v4.27h4.27v-4.27Zm-119.55 4.27h-4.26v4.27h4.27v-4.27Zm4.28 0h-4.27v4.27h4.27v-4.27Zm4.27 0h-4.27v4.27h4.27v-4.27Zm17.07 0h-4.26v4.27h4.26v-4.27Zm4.28 0h-4.28v4.27h4.27v-4.27Z"
            />
            <path
                fill="#000"
                d="M156.36 229.84h-4.27v4.27h4.27v-4.27Zm21.35 0h-4.27v4.27h4.27v-4.27Zm8.54 0h-4.27v4.27h4.27v-4.27Zm21.35 0h-4.27v4.27h4.27v-4.27Zm4.27 0h-4.27v4.27h4.27v-4.27Zm8.53 0h-4.27v4.27h4.27v-4.27Z"
            />
            <path
                fill="#000"
                d="M224.67 229.84h-4.27v4.27h4.27v-4.27Zm4.27 0h-4.27v4.27h4.27v-4.27Zm4.27 0h-4.27v4.27h4.27v-4.27Z"
            />
            <path
                fill="#000"
                d="M237.48 229.84h-4.27v4.27h4.27v-4.27Zm4.27 0h-4.27v4.27h4.27v-4.27Zm-119.55 4.27h-4.26v4.27h4.27v-4.27Zm17.09 0h-4.27v4.27h4.27v-4.27Zm4.27 0h-4.27v4.27h4.27v-4.27Zm17.07 0h-4.27v4.27h4.27v-4.27Zm17.08 0h-4.27v4.27h4.27v-4.27Zm4.27 0h-4.27v4.27h4.27v-4.27Zm21.35 0h-4.27v4.27h4.27v-4.27Zm12.8 0h-4.26v4.27h4.26v-4.27Zm4.27 0h-4.27v4.27h4.27v-4.27Zm8.54 0h-4.27v4.27h4.27v-4.27Zm12.81 0h-4.27v4.27h4.27v-4.27Zm-119.55 4.27h-4.26v4.27h4.27v-4.27Zm4.28 0h-4.27v4.27h4.27v-4.27Zm4.27 0h-4.27v4.27h4.27v-4.27Zm4.27 0h-4.27v4.27h4.27v-4.27Zm8.54 0h-4.27v4.27h4.27v-4.27Zm4.26 0h-4.26v4.27h4.26v-4.27Zm4.28 0h-4.28v4.27h4.27v-4.27Zm8.53 0h-4.27v4.27h4.27v-4.27Zm4.27 0h-4.27v4.27h4.27v-4.27Zm8.54 0h-4.27v4.27h4.27v-4.27Zm12.81 0h-4.27v4.27h4.27v-4.27Zm4.27 0h-4.27v4.27h4.27v-4.27Z"
            />
            <path
                fill="#000"
                d="M194.79 238.38h-4.27v4.27h4.27v-4.27Zm4.27 0h-4.27v4.27h4.27v-4.27Zm8.54 0h-4.27v4.27h4.27v-4.27Zm4.27 0h-4.27v4.27h4.27v-4.27Zm4.26 0h-4.26v4.27h4.26v-4.27Zm4.27 0h-4.27v4.27h4.27v-4.27Z"
            />
            <path
                fill="#000"
                d="M224.67 238.38h-4.27v4.27h4.27v-4.27Zm4.27 0h-4.27v4.27h4.27v-4.27Zm8.54 0h-4.27v4.27h4.27v-4.27Zm4.27 0h-4.27v4.27h4.27v-4.27Zm-81.12 4.27h-4.27v4.27h4.27v-4.27Zm4.27 0h-4.27v4.27h4.27v-4.27Z"
            />
            <path
                fill="#000"
                d="M169.17 242.65h-4.27v4.27h4.27v-4.27Zm12.81 0h-4.27v4.27h4.27v-4.27Zm4.27 0h-4.27v4.27h4.27v-4.27Zm21.35 0h-4.27v4.27h4.27v-4.27Zm17.07 0h-4.27v4.27h4.27v-4.27Zm4.27 0h-4.27v4.27h4.27v-4.27Zm12.81 0h-4.27v4.27h4.27v-4.27Zm-119.55 4.27h-4.26v4.27h4.27v-4.27Zm4.28 0h-4.27v4.27h4.27v-4.27Zm4.27 0h-4.27v4.27h4.27v-4.27Zm4.27 0h-4.27v4.27h4.27v-4.27Z"
            />
            <path
                fill="#000"
                d="M139.29 246.92h-4.27v4.27h4.27v-4.27Zm4.27 0h-4.27v4.27h4.27v-4.27Zm4.26 0h-4.26v4.27h4.26v-4.27Zm8.54 0h-4.27v4.27h4.27v-4.27Zm4.27 0h-4.27v4.27h4.27v-4.27Zm4.27 0h-4.27v4.27h4.27v-4.27Zm12.81 0h-4.27v4.27h4.27v-4.27Zm8.54 0h-4.27v4.27h4.27v-4.27Zm12.81 0h-4.27v4.27h4.27v-4.27Zm4.27 0h-4.27v4.27h4.27v-4.27Z"
            />
            <path
                fill="#000"
                d="M207.6 246.92h-4.27v4.27h4.27v-4.27Zm8.53 0h-4.26v4.27h4.26v-4.27Zm8.54 0h-4.27v4.27h4.27v-4.27Zm12.81 0h-4.27v4.27h4.27v-4.27Zm-115.28 4.27h-4.26v4.27h4.27v-4.27Zm25.62 0h-4.26v4.27h4.26v-4.27Zm12.81 0h-4.27v4.27h4.27v-4.27Zm4.27 0h-4.27v4.27h4.27v-4.27Z"
            />
            <path
                fill="#000"
                d="M169.17 251.19h-4.27v4.27h4.27v-4.27Zm4.27 0h-4.27v4.27h4.27v-4.27Zm8.54 0h-4.27v4.27h4.27v-4.27Zm4.27 0h-4.27v4.27h4.27v-4.27Zm4.27 0h-4.27v4.27h4.27v-4.27Z"
            />
            <path
                fill="#000"
                d="M194.79 251.19h-4.27v4.27h4.27v-4.27Zm8.54 0h-4.27v4.27h4.27v-4.27Zm4.27 0h-4.27v4.27h4.27v-4.27Zm17.07 0h-4.27v4.27h4.27v-4.27Zm8.54 0h-4.27v4.27h4.27v-4.27Zm8.54 0h-4.27v4.27h4.27v-4.27Zm-119.55 4.27h-4.26v4.27h4.27v-4.27Zm8.55 0h-4.27v4.27h4.27v-4.27Zm4.27 0h-4.27v4.27h4.27v-4.27Zm4.27 0h-4.27v4.27h4.27v-4.27Zm8.53 0h-4.26v4.27h4.26v-4.27Zm12.81 0h-4.27v4.27h4.27v-4.27Zm21.35 0h-4.27v4.27h4.27v-4.27Zm8.54 0h-4.27v4.27h4.27v-4.27Zm17.08 0h-4.27v4.27h4.27v-4.27Zm4.27 0h-4.27v4.27h4.27v-4.27Zm4.26 0h-4.26v4.27h4.26v-4.27Zm4.27 0h-4.27v4.27h4.27v-4.27Zm4.27 0h-4.27v4.27h4.27v-4.27Zm4.27 0h-4.27v4.27h4.27v-4.27Zm8.54 0h-4.27v4.27h4.27v-4.27Zm-115.28 4.27h-4.26V264h4.27v-4.27Zm8.55 0h-4.27V264h4.27v-4.27Zm4.27 0h-4.27V264h4.27v-4.27Z"
            />
            <path
                fill="#000"
                d="M139.29 259.73h-4.27V264h4.27v-4.27Zm8.53 0h-4.26V264h4.26v-4.27Zm8.54 0h-4.27V264h4.27v-4.27Zm17.08 0h-4.27V264h4.27v-4.27Zm17.08 0h-4.27V264h4.27v-4.27Zm4.27 0h-4.27V264h4.27v-4.27Zm12.81 0h-4.27V264h4.27v-4.27Zm4.27 0h-4.27V264h4.27v-4.27Zm4.26 0h-4.26V264h4.26v-4.27Zm4.27 0h-4.27V264h4.27v-4.27Zm8.54 0h-4.27V264h4.27v-4.27Zm8.54 0h-4.27V264h4.27v-4.27Zm4.27 0h-4.27V264h4.27v-4.27ZM122.2 264h-4.26v4.27h4.27V264Zm8.55 0h-4.27v4.27h4.27V264Zm4.27 0h-4.27v4.27h4.27V264Z"
            />
            <path
                fill="#000"
                d="M139.29 264h-4.27v4.27h4.27V264Zm8.53 0h-4.26v4.27h4.26V264Zm17.08 0h-4.27v4.27h4.27V264Zm8.54 0h-4.27v4.27h4.27V264Zm4.27 0h-4.27v4.27h4.27V264Zm4.27 0h-4.27v4.27h4.27V264Zm12.81 0h-4.27v4.27h4.27V264Zm4.27 0h-4.27v4.27h4.27V264Zm4.27 0h-4.27v4.27h4.27V264Z"
            />
            <path
                fill="#000"
                d="M207.6 264h-4.27v4.27h4.27V264Zm4.27 0h-4.27v4.27h4.27V264Zm12.8 0h-4.27v4.27h4.27V264Zm8.54 0h-4.27v4.27h4.27V264Zm-111.01 4.27h-4.26v4.27h4.27v-4.27Zm25.62 0h-4.26v4.27h4.26v-4.27Zm8.54 0h-4.27v4.27h4.27v-4.27Zm8.54 0h-4.27v4.27h4.27v-4.27Zm12.81 0h-4.27v4.27h4.27v-4.27Zm4.27 0h-4.27v4.27h4.27v-4.27Zm4.27 0h-4.27v4.27h4.27v-4.27Zm4.27 0h-4.27v4.27h4.27v-4.27Z"
            />
            <path
                fill="#000"
                d="M194.79 268.27h-4.27v4.27h4.27v-4.27Zm17.08 0h-4.27v4.27h4.27v-4.27Zm4.26 0h-4.26v4.27h4.26v-4.27Zm8.54 0h-4.27v4.27h4.27v-4.27Zm4.27 0h-4.27v4.27h4.27v-4.27Zm8.54 0h-4.27v4.27h4.27v-4.27Zm4.27 0h-4.27v4.27h4.27v-4.27Zm-119.55 4.27h-4.26v4.26h4.27v-4.26Zm4.28 0h-4.27v4.26h4.27v-4.26Zm4.27 0h-4.27v4.26h4.27v-4.26Zm4.27 0h-4.27v4.26h4.27v-4.26Z"
            />
            <path
                fill="#000"
                d="M139.29 272.54h-4.27v4.26h4.27v-4.26Zm4.27 0h-4.27v4.26h4.27v-4.26Zm4.26 0h-4.26v4.26h4.26v-4.26Zm8.54 0h-4.27v4.26h4.27v-4.26Zm4.27 0h-4.27v4.26h4.27v-4.26Zm8.54 0h-4.27v4.26h4.27v-4.26Zm8.54 0h-4.27v4.26h4.27v-4.26Zm4.27 0h-4.27v4.26h4.27v-4.26Zm29.89 0h-4.27v4.26h4.27v-4.26Zm12.8 0h-4.27v4.26h4.27v-4.26Zm8.54 0h-4.27v4.26h4.27v-4.26Z"
            />
        </g>
        <path
            fill="#000"
            d="M163.7 289.19a4.9 4.9 0 0 0 1.14-3.54 5.11 5.11 0 0 0-3.29 1.68 4.69 4.69 0 0 0-1.17 3.41 4.23 4.23 0 0 0 3.32-1.55Z"
            opacity=".9"
        />
        <path
            fill="#000"
            d="M166.5 297.04a4.98 4.98 0 0 1 2.42-4.21 5.17 5.17 0 0 0-4.1-2.2c-1.72-.17-3.39 1.03-4.26 1.03-.9 0-2.25-1-3.7-.97a5.5 5.5 0 0 0-4.6 2.76c-1.98 3.4-.5 8.4 1.4 11.14.95 1.35 2.06 2.85 3.52 2.8 1.42-.06 1.95-.9 3.67-.9 1.7 0 2.2.9 3.68.86 1.53-.02 2.5-1.35 3.41-2.7.69-.97 1.21-2.02 1.56-3.15a4.9 4.9 0 0 1-3-4.46Z"
        />
        <mask id="i" width="27" height="16" x="182" y="290" maskUnits="userSpaceOnUse" style="mask-type: alpha">
            <path
                fill="#34A853"
                d="M207.97 303.94a12.86 12.86 0 0 0-5.73-7.91V296l.79-1.34.76-1.32.55-.94a1.19 1.19 0 0 0-2.05-1.19l-.55.94-.76 1.32-.78 1.34-.08.15-.12-.04a12.92 12.92 0 0 0-4.62-.85h-.13c-1.56.01-3.12.31-4.57.88l-.08-.13-.78-1.35-.77-1.32-.54-.94a1.18 1.18 0 0 0-1.8-.3 1.18 1.18 0 0 0-.25 1.49l.55.94.76 1.32.78 1.34v.01a13.03 13.03 0 0 0-5.75 7.93c-.22.88.5 1.68 1.4 1.68h22.36c.9 0 1.63-.8 1.41-1.68Z"
            />
        </mask>
        <g mask="url(#i)">
            <path fill="#4FAF53" d="M208.41 290.15h-27.5v15.47h27.5v-15.47Z" />
            <g filter="url(#j)">
                <path
                    fill="url(#k)"
                    fill-opacity=".4"
                    d="M194.86 295.98c2.6 2.06-4.74 2.3-7.58 6.81s-.57 12.36-3.18 10.3c-1.6-2.48-1.86-7.52.98-12.04 2.84-4.51 7.55-6 9.77-5.07h.01Z"
                />
            </g>
            <g filter="url(#l)">
                <path
                    fill="url(#m)"
                    fill-opacity=".4"
                    d="M195.99 295.96c-2.74 1.96 4.98 2.17 7.97 6.44 2.98 4.27.6 11.68 3.33 9.73 1.7-2.34 1.96-7.1-1.02-11.37-2.99-4.27-7.94-5.67-10.27-4.8h-.01Z"
                />
            </g>
            <g filter="url(#n)" opacity=".6">
                <path
                    fill="#8BD8A0"
                    d="M181.11 302.29c-1.04 3.3-1.58 6.06-1.2 6.18.38.12 1.54-2.45 2.59-5.74 1.04-3.3 5.36-6.89 4.98-7-.38-.13-5.32 3.26-6.37 6.56Z"
                />
            </g>
            <g filter="url(#o)" opacity=".5">
                <path
                    fill="#8BD8A0"
                    d="M208.47 301.99c1.04 3.3 1.58 6.06 1.2 6.18-.38.12-1.54-2.45-2.59-5.74-1.05-3.3-5.37-6.89-4.98-7.01.38-.12 5.32 3.27 6.37 6.57Z"
                />
            </g>
            <g filter="url(#p)" opacity=".7">
                <path
                    fill="#0D652D"
                    d="M187.4 293.2c1.04 1.7 1.5 2.52 1.34 2.61-.15.1-.85-.57-1.88-2.27-1.57-1.38.09-3.25.24-3.34.15-.09-1.24.75.3 3Z"
                />
            </g>
            <g filter="url(#q)" opacity=".1">
                <path
                    fill="#202124"
                    d="M188.54 295.99c.13-.08-.53-1.3-1.46-2.73-.93-1.42-1.79-2.51-1.91-2.43-.13.08.53 1.3 1.46 2.72.93 1.43 1.79 2.52 1.91 2.44Z"
                />
            </g>
            <g filter="url(#r)" opacity=".3">
                <path
                    fill="#fff"
                    d="M188.7 292.33c1.08 1.79 1.6 2.6 1.73 2.53.12-.07-.22-1-1.3-2.8-1.05-2.37-2.93-.95-2.75-.7.37.7.93-1.52 2.31.97Z"
                />
            </g>
            <path
                fill="url(#s)"
                fill-opacity=".9"
                d="M185.34 291.7c.19.65.94 1.01 1.69.8.74-.22 1.18-.92 1-1.58-.2-.66-.95-1.02-1.7-.8-.73.21-1.18.92-.99 1.58Z"
                opacity=".15"
            />
            <path
                fill="url(#t)"
                fill-opacity=".9"
                d="M202.63 291.52c.2.68 1 1.04 1.8.81.79-.23 1.27-.96 1.08-1.64-.2-.68-1-1.04-1.8-.8-.8.22-1.28.96-1.08 1.63Z"
                opacity=".15"
            />
            <g filter="url(#u)" opacity=".1">
                <path
                    fill="#202124"
                    d="M202.16 296.08c-.13-.08.5-1.3 1.42-2.75.9-1.44 1.74-2.54 1.87-2.46.12.07-.51 1.3-1.42 2.75-.9 1.44-1.75 2.54-1.87 2.46Z"
                />
            </g>
            <mask id="v" width="6" height="4" x="199" y="293" maskUnits="userSpaceOnUse" style="mask-type: alpha">
                <path
                    fill="#000"
                    d="M202.36 296.1c-.61-.38-2-1.03-2.63-1.31l.41-1.45 4.01 1.61c-.34.54-1.18 1.53-1.8 1.15Z"
                />
            </mask>
            <g mask="url(#v)">
                <g filter="url(#w)" opacity=".3" style="mix-blend-mode: multiply">
                    <path
                        fill="#0D652D"
                        d="M202.77 295.9c-1.1-.47-2.03-.73-2.08-.6-.06.14.77.52 1.86.98 1.09.47 2.03.83 2.09.7.06-.14-.78-.63-1.87-1.09Z"
                    />
                </g>
                <g filter="url(#x)" opacity=".3" style="mix-blend-mode: screen">
                    <path
                        fill="#81C995"
                        d="M200.53 295.02c-.3-.15-.58-.22-.6-.16-.03.06.2.18.5.33.3.15.57.27.6.2.03-.05-.2-.22-.5-.37Z"
                    />
                </g>
            </g>
            <mask id="y" width="5" height="4" x="186" y="293" maskUnits="userSpaceOnUse" style="mask-type: alpha">
                <path
                    fill="#000"
                    d="M188.28 296.22c.6-.39 1.98-1.07 2.6-1.36l-.44-1.44-3.98 1.69c.36.53 1.22 1.5 1.82 1.11Z"
                />
            </mask>
            <g mask="url(#y)">
                <g filter="url(#z)" opacity=".3" style="mix-blend-mode: multiply">
                    <path
                        fill="#0D652D"
                        d="M187.87 296.01c1.08-.48 2-.76 2.06-.63.06.13-.76.54-1.84 1.02s-2.01.87-2.07.73c-.06-.13.76-.63 1.84-1.12Z"
                    />
                </g>
                <g filter="url(#A)" opacity=".3" style="mix-blend-mode: screen">
                    <path
                        fill="#81C995"
                        d="M190.08 295.1c.3-.16.57-.24.6-.18.03.06-.2.2-.5.35-.3.16-.56.28-.6.22-.02-.06.2-.24.5-.4Z"
                    />
                </g>
            </g>
            <g filter="url(#B)" opacity=".7">
                <path
                    fill="#0D652D"
                    d="M203.43 293.27c-1 1.73-1.43 2.55-1.28 2.64.16.09.84-.59 1.84-2.32 1.53-1.4-.17-3.23-.32-3.32-.16-.1 1.25.71-.24 3Z"
                />
            </g>
            <g filter="url(#C)" opacity=".3">
                <path
                    fill="#fff"
                    d="M202.06 292.43c-1.01 1.76-1.51 2.56-1.64 2.49-.13-.07.16-1 1.18-2.76 1.15-3.05 3.44-2.65 3.07-.98-.3.69-1.32-1.21-2.6 1.25Z"
                />
            </g>
            <path
                fill="url(#D)"
                fill-opacity=".7"
                d="M190.43 300.29c.17-.2.03-.59-.3-.9-.35-.3-.76-.4-.92-.2-.17.18-.03.58.3.89.35.3.76.4.92.2Z"
            />
            <path
                fill="url(#E)"
                fill-opacity=".7"
                d="M201.72 300.1c.34-.31.48-.7.32-.9-.17-.19-.58-.1-.92.21-.34.3-.48.7-.31.9.17.19.57.09.91-.21Z"
            />
            <path
                fill="#011B04"
                d="M190.3 301.54c.4-1.03-.02-1.66-.29-1.86-.77-.95-1.81-.22-2.12.2-.3.4-.76 1.13-.32 2.13.45 1 2.21.81 2.73-.47Zm10.65.02c-.4-1.01.02-1.66.3-1.84.76-.96 1.8-.22 2.1.2.32.4.77 1.12.33 2.1-.44 1-2.21.83-2.73-.45Z"
                opacity=".09"
            />
            <path
                fill="#202124"
                d="M203.28 302.26c.63-.42.74-1.4.22-2.18-.51-.78-1.45-1.06-2.08-.64-.64.43-.74 1.41-.23 2.2.52.77 1.45 1.05 2.09.62Z"
            />
            <path
                fill="#000"
                d="M190.05 301.6c.51-.78.42-1.74-.2-2.17-.63-.41-1.55-.12-2.06.64-.51.78-.42 1.75.2 2.17.63.42 1.55.13 2.06-.64Zm11.14.01c-.51-.78-.42-1.74.2-2.17.64-.41 1.55-.12 2.06.65.52.78.43 1.74-.2 2.16-.63.42-1.54.13-2.06-.64Z"
            />
            <path
                fill="#000"
                d="M187.97 299.98c-.49.6-.54 1.32-.48 1.62a1.92 1.92 0 0 1 .4-1.74c.25-.32.65-.5.94-.58l.12-.03-.12.03c-.2.07-.49.23-.87.7h.01Z"
            />
            <path
                fill="url(#F)"
                d="M190.19 300.13c-.2-.86-.9-.94-1.22-.88.28-.13.77.03.99.28.16.2.23.49.24.61l-.01-.01Z"
                opacity=".8"
            />
            <path
                fill="url(#G)"
                d="M202 299.4c-.74.04-.97.62-1 .9.07-.17.34-.54.8-.63.46-.08 1.07.45 1.31.73l.23-.26a1.46 1.46 0 0 0-1.35-.74Z"
            />
            <path
                fill="#000"
                d="M203.27 300c.5.6.54 1.32.48 1.62.12-.59.08-1.16-.39-1.74a1.9 1.9 0 0 0-.95-.58l-.12-.03.12.03c.21.07.49.23.87.7h-.01Z"
            />
            <path
                fill="#E2DCE1"
                d="M188.62 299.76c-.29.06-.5.36-.56.5l.14.23s.1-.18.22-.3c.1-.11.28-.24.36-.29l-.15-.14Zm14.01 0c.28.06.5.35.57.5l-.15.2s-.1-.16-.21-.28a4.22 4.22 0 0 0-.35-.28l.14-.13Zm-12.83 1.55c-.14.08-.36.18-.45.22l-.08.25c.21-.07.37-.2.43-.25l.1-.22Zm.42-1.09a1.84 1.84 0 0 0-.08-.22v.1c.04.07.07.2.08.27 0-.02.02-.08 0-.16v.01Zm11.21 1.11c.13.08.35.18.44.22l.08.25c-.16-.05-.3-.14-.43-.25l-.1-.22Zm-.42-1.09.08-.21v.09a.98.98 0 0 0-.08.27c0-.02-.02-.08 0-.16v.01Z"
                opacity=".8"
            />
        </g>
    </g>
    <defs>
        <filter
            id="b"
            width="230.59"
            height="81.59"
            x="68.2"
            y="42.2"
            color-interpolation-filters="sRGB"
            filterUnits="userSpaceOnUse"
        >
            <feFlood flood-opacity="0" result="BackgroundImageFix" />
            <feBlend in="SourceGraphic" in2="BackgroundImageFix" result="shape" />
            <feGaussianBlur result="effect1_foregroundBlur_359_21372" stdDeviation="16.9" />
        </filter>
        <filter
            id="c"
            width="241.68"
            height="477.09"
            x="65.02"
            y="55.29"
            color-interpolation-filters="sRGB"
            filterUnits="userSpaceOnUse"
        >
            <feFlood flood-opacity="0" result="BackgroundImageFix" />
            <feColorMatrix in="SourceAlpha" result="hardAlpha" values="0 0 0 0 0 0 0 0 0 0 0 0 0 0 0 0 0 0 127 0" />
            <feOffset />
            <feColorMatrix values="0 0 0 0 0.2 0 0 0 0 0.00392157 0 0 0 0 0.396078 0 0 0 0.15 0" />
            <feBlend in2="BackgroundImageFix" result="effect1_dropShadow_359_21372" />
            <feColorMatrix in="SourceAlpha" result="hardAlpha" values="0 0 0 0 0 0 0 0 0 0 0 0 0 0 0 0 0 0 127 0" />
            <feOffset dy="3.23" />
            <feGaussianBlur stdDeviation="4.04" />
            <feColorMatrix values="0 0 0 0 0.2 0 0 0 0 0.00392157 0 0 0 0 0.396078 0 0 0 0.15 0" />
            <feBlend in2="effect1_dropShadow_359_21372" result="effect2_dropShadow_359_21372" />
            <feColorMatrix in="SourceAlpha" result="hardAlpha" values="0 0 0 0 0 0 0 0 0 0 0 0 0 0 0 0 0 0 127 0" />
            <feOffset dx="1.62" dy="14.56" />
            <feGaussianBlur stdDeviation="7.28" />
            <feColorMatrix values="0 0 0 0 0.2 0 0 0 0 0.00392157 0 0 0 0 0.396078 0 0 0 0.13 0" />
            <feBlend in2="effect2_dropShadow_359_21372" result="effect3_dropShadow_359_21372" />
            <feColorMatrix in="SourceAlpha" result="hardAlpha" values="0 0 0 0 0 0 0 0 0 0 0 0 0 0 0 0 0 0 127 0" />
            <feOffset dx="3.23" dy="32.34" />
            <feGaussianBlur stdDeviation="9.7" />
            <feColorMatrix values="0 0 0 0 0.2 0 0 0 0 0.00392157 0 0 0 0 0.396078 0 0 0 0.08 0" />
            <feBlend in2="effect3_dropShadow_359_21372" result="effect4_dropShadow_359_21372" />
            <feColorMatrix in="SourceAlpha" result="hardAlpha" values="0 0 0 0 0 0 0 0 0 0 0 0 0 0 0 0 0 0 127 0" />
            <feOffset dx="6.47" dy="57.41" />
            <feGaussianBlur stdDeviation="11.72" />
            <feColorMatrix values="0 0 0 0 0.2 0 0 0 0 0.00392157 0 0 0 0 0.396078 0 0 0 0.02 0" />
            <feBlend in2="effect4_dropShadow_359_21372" result="effect5_dropShadow_359_21372" />
            <feBlend in="SourceGraphic" in2="effect5_dropShadow_359_21372" result="shape" />
        </filter>
        <filter
            id="d"
            width="195.69"
            height="395.02"
            x="81.54"
            y="59.23"
            color-interpolation-filters="sRGB"
            filterUnits="userSpaceOnUse"
        >
            <feFlood flood-opacity="0" result="BackgroundImageFix" />
            <feColorMatrix in="SourceAlpha" result="hardAlpha" values="0 0 0 0 0 0 0 0 0 0 0 0 0 0 0 0 0 0 127 0" />
            <feOffset />
            <feGaussianBlur stdDeviation=".46" />
            <feColorMatrix values="0 0 0 0 0 0 0 0 0 0.0823529 0 0 0 0 0.25098 0 0 0 0.14 0" />
            <feBlend in2="BackgroundImageFix" result="effect1_dropShadow_359_21372" />
            <feColorMatrix in="SourceAlpha" result="hardAlpha" values="0 0 0 0 0 0 0 0 0 0 0 0 0 0 0 0 0 0 127 0" />
            <feOffset dy=".91" />
            <feGaussianBlur stdDeviation=".91" />
            <feColorMatrix values="0 0 0 0 0 0 0 0 0 0.0823529 0 0 0 0 0.25098 0 0 0 0.05 0" />
            <feBlend in2="effect1_dropShadow_359_21372" result="effect2_dropShadow_359_21372" />
            <feBlend in="SourceGraphic" in2="effect2_dropShadow_359_21372" result="shape" />
        </filter>
        <filter
            id="e"
            width="64.32"
            height="63.13"
            x="147.41"
            y="33.28"
            color-interpolation-filters="sRGB"
            filterUnits="userSpaceOnUse"
        >
            <feFlood flood-opacity="0" result="BackgroundImageFix" />
            <feColorMatrix in="SourceAlpha" result="hardAlpha" values="0 0 0 0 0 0 0 0 0 0 0 0 0 0 0 0 0 0 127 0" />
            <feOffset dy="1.72" />
            <feGaussianBlur stdDeviation="1.72" />
            <feColorMatrix values="0 0 0 0 0.290196 0 0 0 0 0.176471 0 0 0 0 0.772549 0 0 0 0.1 0" />
            <feBlend in2="BackgroundImageFix" result="effect1_dropShadow_359_21372" />
            <feBlend in="SourceGraphic" in2="effect1_dropShadow_359_21372" result="shape" />
        </filter>
        <filter
            id="j"
            width="14.5"
            height="19.71"
            x="181.91"
            y="294.72"
            color-interpolation-filters="sRGB"
            filterUnits="userSpaceOnUse"
        >
            <feFlood flood-opacity="0" result="BackgroundImageFix" />
            <feBlend in="SourceGraphic" in2="BackgroundImageFix" result="shape" />
            <feGaussianBlur result="effect1_foregroundBlur_359_21372" stdDeviation=".5" />
        </filter>
        <filter
            id="l"
            width="15.14"
            height="18.74"
            x="194.41"
            y="294.72"
            color-interpolation-filters="sRGB"
            filterUnits="userSpaceOnUse"
        >
            <feFlood flood-opacity="0" result="BackgroundImageFix" />
            <feBlend in="SourceGraphic" in2="BackgroundImageFix" result="shape" />
            <feGaussianBlur result="effect1_foregroundBlur_359_21372" stdDeviation=".5" />
        </filter>
        <filter
            id="n"
            width="45.35"
            height="50.39"
            x="160.97"
            y="276.9"
            color-interpolation-filters="sRGB"
            filterUnits="userSpaceOnUse"
        >
            <feFlood flood-opacity="0" result="BackgroundImageFix" />
            <feBlend in="SourceGraphic" in2="BackgroundImageFix" result="shape" />
            <feGaussianBlur result="effect1_foregroundBlur_359_21372" stdDeviation="9.41" />
        </filter>
        <filter
            id="o"
            width="45.35"
            height="50.39"
            x="183.26"
            y="276.6"
            color-interpolation-filters="sRGB"
            filterUnits="userSpaceOnUse"
        >
            <feFlood flood-opacity="0" result="BackgroundImageFix" />
            <feBlend in="SourceGraphic" in2="BackgroundImageFix" result="shape" />
            <feGaussianBlur result="effect1_foregroundBlur_359_21372" stdDeviation="9.41" />
        </filter>
        <filter
            id="p"
            width="52.76"
            height="55.8"
            x="161.1"
            y="265.11"
            color-interpolation-filters="sRGB"
            filterUnits="userSpaceOnUse"
        >
            <feFlood flood-opacity="0" result="BackgroundImageFix" />
            <feBlend in="SourceGraphic" in2="BackgroundImageFix" result="shape" />
            <feGaussianBlur result="effect1_foregroundBlur_359_21372" stdDeviation="12.54" />
        </filter>
        <filter
            id="q"
            width="15.95"
            height="17.71"
            x="178.88"
            y="284.55"
            color-interpolation-filters="sRGB"
            filterUnits="userSpaceOnUse"
        >
            <feFlood flood-opacity="0" result="BackgroundImageFix" />
            <feBlend in="SourceGraphic" in2="BackgroundImageFix" result="shape" />
            <feGaussianBlur result="effect1_foregroundBlur_359_21372" stdDeviation="3.14" />
        </filter>
        <filter
            id="r"
            width="41.71"
            height="41.78"
            x="167.55"
            y="271.9"
            color-interpolation-filters="sRGB"
            filterUnits="userSpaceOnUse"
        >
            <feFlood flood-opacity="0" result="BackgroundImageFix" />
            <feBlend in="SourceGraphic" in2="BackgroundImageFix" result="shape" />
            <feGaussianBlur result="effect1_foregroundBlur_359_21372" stdDeviation="9.41" />
        </filter>
        <filter
            id="u"
            width="15.87"
            height="17.77"
            x="195.87"
            y="284.59"
            color-interpolation-filters="sRGB"
            filterUnits="userSpaceOnUse"
        >
            <feFlood flood-opacity="0" result="BackgroundImageFix" />
            <feBlend in="SourceGraphic" in2="BackgroundImageFix" result="shape" />
            <feGaussianBlur result="effect1_foregroundBlur_359_21372" stdDeviation="3.14" />
        </filter>
        <filter
            id="w"
            width="29.05"
            height="26.82"
            x="188.14"
            y="282.72"
            color-interpolation-filters="sRGB"
            filterUnits="userSpaceOnUse"
        >
            <feFlood flood-opacity="0" result="BackgroundImageFix" />
            <feBlend in="SourceGraphic" in2="BackgroundImageFix" result="shape" />
            <feGaussianBlur result="effect1_foregroundBlur_359_21372" stdDeviation="6.27" />
        </filter>
        <filter
            id="x"
            width="16.16"
            height="15.63"
            x="192.4"
            y="287.31"
            color-interpolation-filters="sRGB"
            filterUnits="userSpaceOnUse"
        >
            <feFlood flood-opacity="0" result="BackgroundImageFix" />
            <feBlend in="SourceGraphic" in2="BackgroundImageFix" result="shape" />
            <feGaussianBlur result="effect1_foregroundBlur_359_21372" stdDeviation="3.76" />
        </filter>
        <filter
            id="z"
            width="29.01"
            height="26.9"
            x="173.47"
            y="282.8"
            color-interpolation-filters="sRGB"
            filterUnits="userSpaceOnUse"
        >
            <feFlood flood-opacity="0" result="BackgroundImageFix" />
            <feBlend in="SourceGraphic" in2="BackgroundImageFix" result="shape" />
            <feGaussianBlur result="effect1_foregroundBlur_359_21372" stdDeviation="6.27" />
        </filter>
        <filter
            id="A"
            width="16.15"
            height="15.65"
            x="182.06"
            y="287.38"
            color-interpolation-filters="sRGB"
            filterUnits="userSpaceOnUse"
        >
            <feFlood flood-opacity="0" result="BackgroundImageFix" />
            <feBlend in="SourceGraphic" in2="BackgroundImageFix" result="shape" />
            <feGaussianBlur result="effect1_foregroundBlur_359_21372" stdDeviation="3.76" />
        </filter>
        <filter
            id="B"
            width="52.67"
            height="55.83"
            x="177.03"
            y="265.17"
            color-interpolation-filters="sRGB"
            filterUnits="userSpaceOnUse"
        >
            <feFlood flood-opacity="0" result="BackgroundImageFix" />
            <feBlend in="SourceGraphic" in2="BackgroundImageFix" result="shape" />
            <feGaussianBlur result="effect1_foregroundBlur_359_21372" stdDeviation="12.54" />
        </filter>
        <filter
            id="C"
            width="41.95"
            height="42.66"
            x="181.57"
            y="271.08"
            color-interpolation-filters="sRGB"
            filterUnits="userSpaceOnUse"
        >
            <feFlood flood-opacity="0" result="BackgroundImageFix" />
            <feBlend in="SourceGraphic" in2="BackgroundImageFix" result="shape" />
            <feGaussianBlur result="effect1_foregroundBlur_359_21372" stdDeviation="9.41" />
        </filter>
        <radialGradient
            id="f"
            cx="0"
            cy="0"
            r="1"
            gradientTransform="matrix(53.8128 0 0 55.6948 193.27 31.81)"
            gradientUnits="userSpaceOnUse"
        >
            <stop offset=".56" stop-color="#6D4AFF" />
            <stop offset="1" stop-color="#FF50C3" />
        </radialGradient>
        <radialGradient
            id="s"
            cx="0"
            cy="0"
            r="1"
            gradientTransform="matrix(-.84093 .25197 -.19066 -.63631 186.67 291.32)"
            gradientUnits="userSpaceOnUse"
        >
            <stop stop-color="#fff" />
            <stop offset=".95" stop-color="#fff" stop-opacity="0" />
        </radialGradient>
        <radialGradient
            id="t"
            cx="0"
            cy="0"
            r="1"
            gradientTransform="rotate(163.34 80.72 160.5) scale(.94277 .68318)"
            gradientUnits="userSpaceOnUse"
        >
            <stop stop-color="#fff" />
            <stop offset=".95" stop-color="#fff" stop-opacity="0" />
        </radialGradient>
        <radialGradient
            id="D"
            cx="0"
            cy="0"
            r="1"
            gradientTransform="matrix(-.24116 .25886 -.4712 -.43898 190.52 299.85)"
            gradientUnits="userSpaceOnUse"
        >
            <stop stop-color="#93E19F" />
            <stop offset="1" stop-color="#93E19F" stop-opacity="0" />
        </radialGradient>
        <radialGradient
            id="E"
            cx="0"
            cy="0"
            r="1"
            gradientTransform="matrix(.24094 .25865 -.471 .43875 201.58 299.74)"
            gradientUnits="userSpaceOnUse"
        >
            <stop stop-color="#93E19F" />
            <stop offset="1" stop-color="#93E19F" stop-opacity="0" />
        </radialGradient>
        <linearGradient id="g" x1="161.55" x2="203.88" y1="34.38" y2="82.44" gradientUnits="userSpaceOnUse">
            <stop stop-color="#7341FF" />
            <stop offset=".36" stop-color="#B487FF" />
            <stop offset="1" stop-color="#FFC8FF" />
        </linearGradient>
        <linearGradient id="k" x1="184.94" x2="188.86" y1="300.94" y2="303.4" gradientUnits="userSpaceOnUse">
            <stop stop-color="#A8F0B9" />
            <stop offset=".81" stop-color="#ADEEBC" stop-opacity="0" />
        </linearGradient>
        <linearGradient id="m" x1="206.41" x2="202.55" y1="300.65" y2="303.35" gradientUnits="userSpaceOnUse">
            <stop offset=".29" stop-color="#A8F0B9" />
            <stop offset=".83" stop-color="#ADEEBC" stop-opacity="0" />
        </linearGradient>
        <linearGradient id="F" x1="189.55" x2="189.6" y1="298.88" y2="300.1" gradientUnits="userSpaceOnUse">
            <stop stop-color="#E2DDE2" />
            <stop offset="1" stop-color="#E2DDE2" stop-opacity="0" />
        </linearGradient>
        <linearGradient id="G" x1="202.17" x2="202.17" y1="299.4" y2="300.4" gradientUnits="userSpaceOnUse">
            <stop stop-color="#373637" />
            <stop offset="1" stop-color="#373637" stop-opacity="0" />
        </linearGradient>
        <clipPath id="a">
            <path fill="#fff" d="M.5 0h360v360H.5z" />
        </clipPath>
        <clipPath id="h">
            <rect width="141.5" height="141.5" x="109.1" y="144.15" fill="#fff" rx="10.21" />
        </clipPath>
    </defs>
</svg>
