<svg xmlns="http://www.w3.org/2000/svg" xmlns:xlink="http://www.w3.org/1999/xlink" width="398" height="254" fill="none">
    <g clip-path="url(#a)">
        <linearGradient id="b" x1="0" x2="0" y1="0" y2="254" gradientUnits="userSpaceOnUse">
            <stop stop-color="#3d2db6" />
            <stop offset="1" stop-color="#2e1275" />
        </linearGradient>
        <path fill="url(#b)" d="M0 0h398v254H0z" />
        <path fill="url(#c)" d="M0 0h1124v726H0z" transform="translate(-127 -236)" />
        <g filter="url(#d)">
            <rect width="1689" height="1044" x="49" y="-38" fill="#040618" fill-opacity=".5" rx="12" />
            <rect
                width="1688"
                height="1043"
                x="49.5"
                y="-37.5"
                stroke="#fff"
                stroke-opacity=".12"
                rx="11.5"
                style="mix-blend-mode: screen"
            />
            <g filter="url(#e)">
                <rect
                    width="1670"
                    height="1025"
                    x="58.5"
                    y="-28.5"
                    stroke="#fff"
                    stroke-opacity=".12"
                    rx="12.5"
                    shape-rendering="crispEdges"
                    style="mix-blend-mode: screen"
                />
            </g>
        </g>
        <g filter="url(#f)">
            <g clip-path="url(#g)">
                <rect width="656" height="441.07" x="59" y="-15" fill="#fff" rx="13.81" />
                <g filter="url(#h)">
                    <g clip-path="url(#i)">
                        <rect width="761" height="511.67" x="59" y="-76.84" fill="#fff" rx="16.02" />
                        <g clip-path="url(#j)">
                            <path fill="#1B1340" d="M59-76.84h250.33v801.05H59z" />
                            <g clip-path="url(#k)">
                                <path
                                    fill="#7C5CFF"
                                    d="M71.02-8.86a7.9 7.9 0 0 1 7.9-7.9h210.5a7.9 7.9 0 0 1 7.9 7.9v29.23a7.9 7.9 0 0 1-7.9 7.9H78.91a7.9 7.9 0 0 1-7.9-7.9V-8.86Z"
                                />
                                <path
                                    fill="#fff"
                                    fill-rule="evenodd"
                                    d="M163.16-.75c.28 0 .5.22.5.5v6h6.01a.5.5 0 1 1 0 1h-6v6.01a.5.5 0 1 1-1 0v-6h-6.02a.5.5 0 1 1 0-1h6.01V-.26c0-.28.22-.5.5-.5Z"
                                    clip-rule="evenodd"
                                />
                                <path
                                    fill="#fff"
                                    d="M189.33-.4v11.65h-1.37l-6.34-9.14h-.12v9.14h-1.4V-.4h1.36l6.37 9.17h.11V-.4h1.39Zm6.3 11.84c-2.52 0-4.07-1.8-4.07-4.49 0-2.68 1.57-4.55 3.94-4.55 1.82 0 3.75 1.12 3.75 4.37v.57h-6.34c.06 1.87 1.15 2.89 2.72 2.89 1.06 0 1.85-.46 2.19-1.37l1.3.37c-.41 1.32-1.71 2.2-3.49 2.2Zm-2.72-5.26h4.98c0-1.48-.93-2.57-2.4-2.57-1.53 0-2.49 1.2-2.58 2.57Zm10.37 5.07-2.67-8.73h1.41l1.9 6.69h.08l1.87-6.7h1.43l1.85 6.67h.09l1.89-6.66h1.4l-2.65 8.73h-1.32l-1.92-6.7h-.13l-1.91 6.7h-1.32Z"
                                />
                            </g>
                            <rect width="226.3" height="36.05" x="71.02" y="40.29" fill="#1B1340" rx="8.01" />
                            <path
                                fill="#B3A3F5"
                                fill-rule="evenodd"
                                d="M84.05 58.96a2 2 0 0 1 .17-.55l2.28-4.95a2 2 0 0 1 1.82-1.16h5.44a2 2 0 0 1 1.82 1.16l2.29 4.95v.02a2 2 0 0 1 .18.82v3.06a2 2 0 0 1-2 2H86.03a2 2 0 0 1-2-2v-3.06c0-.1 0-.2.02-.3Zm13 .35v3a1 1 0 0 1-1 1H86.03a1 1 0 0 1-1-1v-3h2.6a.5.5 0 0 1 .35.15l.91.91c.28.28.66.44 1.06.44h2.18c.4 0 .78-.16 1.06-.44l.92-.91a.5.5 0 0 1 .35-.15h2.59Zm-.33-1h-2.26c-.4 0-.78.16-1.06.44l-.92.91a.5.5 0 0 1-.35.15h-2.18a.5.5 0 0 1-.35-.15l-.92-.91a1.5 1.5 0 0 0-1.06-.44h-2.25l2.04-4.43a1 1 0 0 1 .9-.58h5.45a1 1 0 0 1 .91.58l2.05 4.43Z"
                                clip-rule="evenodd"
                            />
                            <path
                                fill="#fff"
                                d="M108.3 52.61h1.47l3.47 8.47h.12l3.46-8.47h1.47v10.2h-1.15v-7.75h-.1l-3.19 7.75h-1.11l-3.19-7.75h-.1v7.75h-1.15V52.6Zm13.07 13.07c-.4 0-.74-.08-.86-.14l.3-1.04c.86.22 1.38.11 1.81-1.05l.22-.6-2.83-7.69h1.28l2.1 6.1h.09l2.1-6.1h1.28l-3.24 8.76c-.45 1.2-1.2 1.76-2.25 1.76Zm14.39-10.52v1h-1.71v6.65h-1.18v-6.65h-1.23v-1h1.23v-1.05c0-1.32 1.06-1.97 2.15-1.97.58 0 .94.12 1.12.2l-.34 1.01c-.12-.04-.32-.12-.66-.12-.77 0-1.1.4-1.1 1.16v.77h1.72Zm1.65 7.65v-7.65h1.17v7.65h-1.17Zm.6-8.92a.82.82 0 0 1-.84-.8c0-.44.38-.8.83-.8.46 0 .84.36.84.8 0 .44-.38.8-.84.8Zm3.9-1.28v10.2h-1.18V52.6h1.18Zm5.36 10.36c-2.21 0-3.57-1.58-3.57-3.92 0-2.35 1.38-3.99 3.45-3.99 1.59 0 3.28.98 3.28 3.83v.5h-5.55c.06 1.63 1 2.52 2.39 2.52.92 0 1.6-.4 1.9-1.2l1.14.33c-.36 1.15-1.5 1.93-3.04 1.93Zm-2.39-4.6h4.36c0-1.3-.82-2.25-2.1-2.25-1.34 0-2.18 1.06-2.26 2.25Zm12.75-1.5-1.05.3c-.2-.52-.63-1.1-1.65-1.1-.94 0-1.64.49-1.64 1.14 0 .6.41.9 1.32 1.12l1.13.28c1.37.33 2.03 1 2.03 2.07 0 1.32-1.2 2.29-2.98 2.29-1.56 0-2.64-.7-2.9-2l1.1-.27c.22.82.82 1.23 1.78 1.23 1.1 0 1.79-.54 1.79-1.2 0-.52-.36-.89-1.13-1.07l-1.28-.3c-1.4-.32-2.03-1.03-2.03-2.09 0-1.3 1.2-2.2 2.8-2.2 1.52 0 2.35.72 2.72 1.8Z"
                            />
                            <rect
                                width="226.3"
                                height="36.05"
                                x="71.02"
                                y="78.34"
                                fill="#4A398F"
                                fill-opacity=".5"
                                rx="8.01"
                            />
                            <path
                                fill="#fff"
                                d="m92.89 95.95-3.13-3.46c-.27-.3-.72-.08-.72.33v7.08c0 .41.45.62.72.33l3.13-3.46c.2-.22.2-.6 0-.82Z"
                            />
                            <path
                                fill="#1AA7FF"
                                d="M110.06 90.35a2 2 0 0 0-2 2v8.02c0 1.1.9 2 2 2h10.02a2 2 0 0 0 2-2v-7.01a2 2 0 0 0-2-2h-4.54a1.5 1.5 0 0 1-.67-.17l-1.15-.57a2.5 2.5 0 0 0-1.12-.27h-2.53Z"
                            />
                            <path
                                fill="#fff"
                                d="m134.25 100.86-2.88-10.2h1.98l1.84 7.5h.1l1.96-7.5h1.8l1.97 7.5h.09l1.84-7.5h1.98l-2.87 10.2h-1.83l-2.04-7.15h-.08l-2.04 7.15h-1.82Zm14.44.15c-2.24 0-3.66-1.58-3.66-3.94 0-2.37 1.42-3.96 3.66-3.96s3.66 1.59 3.66 3.96c0 2.36-1.42 3.94-3.66 3.94Zm0-1.44c1.23 0 1.84-1.11 1.84-2.5 0-1.4-.61-2.53-1.83-2.53-1.24 0-1.85 1.12-1.85 2.52s.6 2.5 1.85 2.5Zm5.2 1.29V93.2h1.74v1.28h.08a1.91 1.91 0 0 1 1.89-1.39c.2 0 .48.02.64.05v1.66a3.4 3.4 0 0 0-.83-.1c-1 0-1.73.68-1.73 1.65v4.5h-1.8Zm5.55 0v-10.2h1.8v5.62h.13l2.75-3.07h2.1l-2.96 3.3 3.14 4.35h-2.16l-2.34-3.27-.66.7v2.57h-1.8Z"
                            />
                            <rect width="226.3" height="36.05" x="71.02" y="116.39" fill="#1B1340" rx="8.01" />
                            <path
                                fill="#B3A3F5"
                                d="m92.89 134-3.13-3.46c-.27-.29-.72-.08-.72.33v7.08c0 .42.45.62.72.33l3.13-3.46c.2-.22.2-.6 0-.82Z"
                            />
                            <path
                                fill="#1AA7FF"
                                d="M110.06 128.4a2 2 0 0 0-2 2v8.02c0 1.1.9 2 2 2h10.02a2 2 0 0 0 2-2v-7.01a2 2 0 0 0-2-2h-4.54a1.5 1.5 0 0 1-.67-.16l-1.15-.58a2.5 2.5 0 0 0-1.12-.27h-2.53Z"
                            />
                            <path
                                fill="#fff"
                                d="m132.75 128.72 3.02 8.58h.12l3.03-8.59h1.3l-3.75 10.2h-1.27l-3.75-10.2h1.3Zm10.43 10.37c-1.45 0-2.6-.86-2.6-2.35 0-1.75 1.54-2.07 2.96-2.25 1.4-.18 1.97-.13 1.97-.7v-.04c0-.98-.53-1.55-1.61-1.55-1.12 0-1.74.6-2 1.16l-1.1-.4c.59-1.4 1.9-1.8 3.06-1.8.97 0 2.82.28 2.82 2.71v5.04h-1.17v-1.03h-.06c-.24.5-.94 1.2-2.27 1.2Zm.18-1.06c1.4 0 2.15-.93 2.15-1.89v-1.07c-.2.24-1.53.38-2.03.44-.92.12-1.73.4-1.73 1.29 0 .82.67 1.23 1.61 1.23Zm8.58 1.04c-2.16 0-3.47-1.65-3.47-3.94 0-2.33 1.38-3.97 3.45-3.97 1.6 0 2.82.96 3.02 2.4h-1.17a1.8 1.8 0 0 0-1.83-1.34c-1.38 0-2.3 1.13-2.3 2.87 0 1.77.9 2.92 2.3 2.92.91 0 1.6-.5 1.83-1.33h1.17c-.2 1.35-1.31 2.39-3 2.39Zm6.97.02c-1.45 0-2.6-.86-2.6-2.35 0-1.75 1.54-2.07 2.96-2.25 1.4-.18 1.97-.13 1.97-.7v-.04c0-.98-.53-1.55-1.61-1.55-1.12 0-1.73.6-2 1.16l-1.1-.4c.59-1.4 1.9-1.8 3.06-1.8.97 0 2.82.28 2.82 2.71v5.04h-1.17v-1.03h-.06c-.24.5-.94 1.2-2.27 1.2Zm.18-1.06c1.4 0 2.15-.93 2.15-1.89v-1.07c-.2.24-1.53.38-2.03.44-.92.12-1.73.4-1.73 1.29 0 .82.67 1.23 1.61 1.23Zm8.8-6.77v1h-1.64v4.46c0 1 .5 1.16 1.02 1.16.26 0 .42-.04.51-.06l.24 1.05c-.16.06-.43.14-.87.14-1 0-2.07-.64-2.07-1.97v-4.78h-1.16v-1h1.16v-1.83h1.17v1.83h1.63Zm1.76 7.65v-7.65h1.18v7.65h-1.18Zm.6-8.92a.82.82 0 0 1-.84-.8c0-.44.38-.8.84-.8.46 0 .84.37.84.8 0 .44-.38.8-.84.8Zm5.84 9.08c-2.08 0-3.47-1.57-3.47-3.94 0-2.4 1.4-3.97 3.47-3.97 2.07 0 3.46 1.58 3.46 3.97 0 2.37-1.4 3.94-3.47 3.94Zm0-1.06c1.57 0 2.28-1.35 2.28-2.88 0-1.54-.71-2.91-2.28-2.91-1.58 0-2.3 1.37-2.3 2.9 0 1.54.72 2.9 2.3 2.9Zm6.43-3.7v4.6h-1.18v-7.65h1.14v1.2h.1c.36-.78 1.07-1.3 2.23-1.3 1.55 0 2.59.94 2.59 2.9v4.85h-1.18v-4.78c0-1.2-.66-1.91-1.75-1.91-1.13 0-1.95.76-1.95 2.09Z"
                            />
                            <rect width="226.3" height="36.05" x="71.02" y="168.45" fill="#1B1340" rx="8.01" />
                            <path
                                fill="#B3A3F5"
                                fill-rule="evenodd"
                                d="M85.53 180.47c-.83 0-1.5.67-1.5 1.5v7.01c0 .83.67 1.5 1.5 1.5h5.01v2h-2.5a.5.5 0 1 0 0 1h6a.5.5 0 1 0 0-1h-2.5v-2h5a1.5 1.5 0 0 0 1.51-1.5v-7a1.5 1.5 0 0 0-1.5-1.51H85.53Zm5.51 9.01h5.5a.5.5 0 0 0 .5-.5v-7a.5.5 0 0 0-.5-.51h-11a.5.5 0 0 0-.5.5v7.01c0 .28.22.5.5.5h5.5Z"
                                clip-rule="evenodd"
                            />
                            <path
                                fill="#fff"
                                d="M116.5 183.97h-1.23c-.3-1.42-1.52-2.17-2.87-2.17-1.85 0-3.3 1.43-3.3 4.08 0 2.65 1.45 4.08 3.3 4.08 1.35 0 2.57-.76 2.87-2.17h1.23a3.97 3.97 0 0 1-4.1 3.33c-2.6 0-4.5-2.02-4.5-5.24 0-3.23 1.9-5.24 4.5-5.24a3.97 3.97 0 0 1 4.1 3.33Zm4.94 7.17c-2.07 0-3.46-1.58-3.46-3.95 0-2.39 1.4-3.96 3.46-3.96 2.07 0 3.47 1.57 3.47 3.96 0 2.37-1.4 3.95-3.47 3.95Zm0-1.06c1.58 0 2.3-1.35 2.3-2.89 0-1.53-.72-2.9-2.3-2.9-1.57 0-2.29 1.37-2.29 2.9 0 1.54.72 2.89 2.3 2.89Zm5.26.9v-7.65h1.14v1.2h.1c.31-.82 1.05-1.3 2.05-1.3 1 0 1.67.48 2.05 1.3h.08c.4-.8 1.2-1.3 2.29-1.3 1.36 0 2.33.83 2.33 2.63v5.12h-1.18v-5.12c0-1.13-.72-1.57-1.55-1.57-1.08 0-1.7.72-1.7 1.7v4.99h-1.19v-5.24c0-.87-.62-1.45-1.51-1.45-.92 0-1.73.79-1.73 1.9v4.79h-1.18Zm12.18 2.86v-10.51h1.14v1.21h.14c.26-.4.72-1.3 2.21-1.3 1.93 0 3.27 1.52 3.27 3.93 0 2.43-1.34 3.97-3.25 3.97-1.47 0-1.97-.92-2.23-1.34h-.1v4.04h-1.18Zm1.16-6.69c0 1.74.78 2.93 2.2 2.93 1.46 0 2.22-1.3 2.22-2.93 0-1.61-.74-2.86-2.23-2.86-1.43 0-2.19 1.15-2.19 2.86Zm12.2.7v-4.52h1.18v7.65h-1.17v-1.3h-.08a2.38 2.38 0 0 1-2.27 1.4c-1.44 0-2.47-.94-2.47-2.9v-4.85h1.17v4.78c0 1.11.7 1.83 1.68 1.83.87 0 1.97-.66 1.97-2.09Zm6.66-4.52v1h-1.63v4.46c0 1 .5 1.15 1.01 1.15.26 0 .42-.04.52-.06l.24 1.06c-.16.06-.44.14-.88.14-1 0-2.07-.64-2.07-1.98v-4.77h-1.15v-1h1.15v-1.83h1.18v1.83h1.63Zm4.89 7.8c-2.21 0-3.56-1.57-3.56-3.92 0-2.35 1.37-3.98 3.44-3.98 1.6 0 3.29.98 3.29 3.82v.5h-5.56c.06 1.64 1.01 2.53 2.39 2.53.92 0 1.61-.4 1.91-1.2l1.14.32c-.36 1.16-1.5 1.94-3.05 1.94Zm-2.38-4.6h4.35c0-1.29-.82-2.24-2.09-2.24-1.34 0-2.18 1.06-2.26 2.25Zm7.33 4.45v-7.65h1.14v1.16h.08a2.08 2.08 0 0 1 1.99-1.28l.62.02v1.2a3.6 3.6 0 0 0-.72-.08c-1.12 0-1.93.75-1.93 1.79v4.84h-1.18Zm10.63-5.94-1.05.3c-.2-.53-.63-1.1-1.65-1.1-.94 0-1.64.48-1.64 1.14 0 .59.41.9 1.32 1.12l1.13.28c1.37.33 2.03 1 2.03 2.07 0 1.31-1.2 2.29-2.98 2.29-1.57 0-2.64-.7-2.91-2l1.12-.27c.2.82.8 1.23 1.77 1.23 1.1 0 1.79-.54 1.79-1.2 0-.52-.36-.89-1.14-1.07l-1.27-.3c-1.4-.33-2.03-1.03-2.03-2.09 0-1.3 1.2-2.2 2.8-2.2 1.52 0 2.35.72 2.72 1.8Z"
                            />
                            <rect width="226.3" height="36.05" x="71.02" y="206.5" fill="#1B1340" rx="8.01" />
                            <path
                                fill="#B3A3F5"
                                fill-rule="evenodd"
                                d="M96.05 219.52H86.03a1 1 0 0 0-1 1v8.01a1 1 0 0 0 1 1h10.02a1 1 0 0 0 1-1v-8a1 1 0 0 0-1-1Zm-10.02-1a2 2 0 0 0-2 2v8.01c0 1.1.9 2 2 2h10.02a2 2 0 0 0 2-2v-8a2 2 0 0 0-2-2.01H86.03Zm9.46 10.01c.45 0 .72-.48.45-.83l-3.1-4.04a.34.34 0 0 0-.54 0l-2.26 2.94-1.26-1.64a.34.34 0 0 0-.54 0l-2.1 2.74c-.27.35 0 .83.45.83h8.9Zm-5.95-5a1 1 0 1 0 0-2 1 1 0 0 0 0 2Z"
                                clip-rule="evenodd"
                            />
                            <path
                                fill="#fff"
                                d="M108.3 229.03v-10.2h3.44c2.4 0 3.47 1.43 3.47 3.23s-1.07 3.24-3.45 3.24h-2.23v3.73h-1.23Zm1.23-4.82h2.2c1.63 0 2.26-.93 2.26-2.15 0-1.23-.63-2.13-2.29-2.13h-2.17v4.28Zm8.68.22v4.6h-1.17v-10.2h1.17v3.75h.1c.36-.8 1.05-1.3 2.25-1.3 1.56 0 2.6.92 2.6 2.89v4.86H122v-4.78c0-1.22-.66-1.91-1.77-1.91-1.16 0-2 .75-2 2.09Zm10.22 4.76c-2.08 0-3.47-1.58-3.47-3.95 0-2.39 1.4-3.96 3.47-3.96 2.07 0 3.46 1.57 3.46 3.96 0 2.37-1.4 3.95-3.46 3.95Zm0-1.06c1.57 0 2.28-1.35 2.28-2.89 0-1.53-.71-2.9-2.28-2.9-1.58 0-2.3 1.37-2.3 2.9 0 1.54.72 2.9 2.3 2.9Zm8.58-6.75v1h-1.63v4.46c0 1 .5 1.15 1.01 1.15.26 0 .42-.04.52-.06l.24 1.06c-.16.06-.44.14-.88.14-1 0-2.07-.64-2.07-1.97v-4.78h-1.15v-1h1.15v-1.83h1.18v1.83H137Zm4.79 7.8c-2.07 0-3.47-1.57-3.47-3.94 0-2.39 1.4-3.96 3.47-3.96 2.07 0 3.46 1.57 3.46 3.96 0 2.37-1.39 3.95-3.46 3.95Zm0-1.05c1.57 0 2.29-1.35 2.29-2.89 0-1.53-.72-2.9-2.29-2.9s-2.29 1.37-2.29 2.9c0 1.54.72 2.9 2.29 2.9Zm10.67-5.04-1.05.3c-.2-.53-.63-1.1-1.65-1.1-.94 0-1.64.49-1.64 1.14 0 .59.41.9 1.32 1.12l1.13.28c1.37.33 2.03 1 2.03 2.07 0 1.32-1.2 2.29-2.98 2.29-1.57 0-2.64-.7-2.91-2l1.12-.27c.2.82.8 1.23 1.77 1.23 1.1 0 1.79-.54 1.79-1.2 0-.52-.36-.89-1.14-1.07l-1.27-.3c-1.4-.33-2.03-1.03-2.03-2.09 0-1.3 1.2-2.2 2.8-2.2 1.52 0 2.35.72 2.71 1.8Z"
                            />
                            <rect width="226.3" height="36.05" x="71.02" y="244.56" fill="#1B1340" rx="8.01" />
                        </g>
                        <rect width="19.02" height="19.02" x="329.86" y="39.82" fill="#fff" stroke="#ADABA8" rx="3.5" />
                        <path
                            fill="#0C0C14"
                            d="M374.82 43.64v10.2h-1.87l-4.43-6.42h-.08v6.42h-2.15v-10.2h1.89l4.4 6.41h.09v-6.4h2.15Zm3.92 10.34c-1.46 0-2.54-.77-2.54-2.28 0-1.7 1.36-2.22 2.87-2.35 1.33-.13 1.85-.2 1.85-.7v-.02c0-.63-.41-1-1.13-1-.76 0-1.22.38-1.36.89l-1.96-.16c.3-1.4 1.5-2.27 3.33-2.27 1.7 0 3.24.77 3.24 2.59v5.16h-2v-1.06h-.07c-.37.7-1.1 1.2-2.23 1.2Zm.6-1.46c.94 0 1.6-.62 1.6-1.42v-.8a5.1 5.1 0 0 1-1.48.34c-.74.1-1.23.4-1.23 1 0 .57.46.88 1.12.88Zm5.35 1.32v-7.65h2.02v1.35h.09c.32-.9 1.1-1.45 2.13-1.45 1.05 0 1.83.56 2.08 1.45h.08c.3-.88 1.18-1.45 2.3-1.45 1.42 0 2.41.95 2.41 2.6v5.15h-2.12V49.1c0-.85-.5-1.27-1.18-1.27-.77 0-1.23.53-1.23 1.33v4.67h-2.05v-4.77c0-.75-.47-1.23-1.17-1.23s-1.24.56-1.24 1.4v4.6h-2.12Zm16.27.15c-2.35 0-3.8-1.52-3.8-3.94 0-2.36 1.46-3.96 3.71-3.96 2.03 0 3.6 1.28 3.6 3.88v.59h-5.2c0 1.14.66 1.84 1.73 1.84.7 0 1.25-.3 1.46-.88l1.97.13c-.3 1.41-1.58 2.34-3.47 2.34Zm-1.7-4.75h3.21a1.5 1.5 0 0 0-1.56-1.57c-.94 0-1.6.7-1.65 1.57Z"
                        />
                        <path fill="#EAE7E4" d="M309.33 69.36h1143.5v1H309.33z" />
                        <g clip-path="url(#l)">
                            <g clip-path="url(#m)">
                                <mask
                                    id="n"
                                    width="23"
                                    height="23"
                                    x="365"
                                    y="79"
                                    maskUnits="userSpaceOnUse"
                                    style="mask-type: luminance"
                                >
                                    <path fill="#fff" d="M388 79h-23v23h23V79Z" />
                                </mask>
                                <g mask="url(#n)">
                                    <mask
                                        id="o"
                                        width="23"
                                        height="23"
                                        x="365"
                                        y="79"
                                        maskUnits="userSpaceOnUse"
                                        style="mask-type: luminance"
                                    >
                                        <path fill="#fff" d="M388 79h-23v23h23V79Z" />
                                    </mask>
                                    <g mask="url(#o)">
                                        <path
                                            fill="url(#p)"
                                            d="M384.17 79h-15.34a3.83 3.83 0 0 0-3.83 3.83v15.34a3.83 3.83 0 0 0 3.83 3.83h15.34a3.83 3.83 0 0 0 3.83-3.83V82.83a3.83 3.83 0 0 0-3.83-3.83Z"
                                        />
                                        <path fill="#85D4F5" d="M382.25 79h-5.75v5.75h5.75V79Z" />
                                        <path
                                            fill="#D6F1FC"
                                            d="M382.25 79h1.92a3.83 3.83 0 0 1 3.83 3.83v1.92h-5.75V79Z"
                                        />
                                        <path fill="#85D4F5" d="M388 84.75h-5.75v5.75H388v-5.75Z" />
                                        <path
                                            fill="#fff"
                                            fill-rule="evenodd"
                                            d="M377.46 97.2c0 .54-.43.97-.96.97h-6.71a.96.96 0 0 1 0-1.92h6.7c.54 0 .97.43.97.96Zm-2.88-3.83c0 .53-.43.96-.96.96h-3.83a.96.96 0 0 1 0-1.92h3.83c.53 0 .96.43.96.96Z"
                                            clip-rule="evenodd"
                                        />
                                    </g>
                                </g>
                            </g>
                        </g>
                        <rect
                            width="27.74"
                            height="27.74"
                            x="363.55"
                            y="77.51"
                            stroke="#fff"
                            stroke-width="3.71"
                            rx="5.99"
                        />
                        <path fill="#EAE7E4" d="M309.33 111.41h1143.5v1H309.33z" />
                        <g clip-path="url(#q)">
                            <g clip-path="url(#r)">
                                <mask
                                    id="s"
                                    width="23"
                                    height="23"
                                    x="365"
                                    y="121"
                                    maskUnits="userSpaceOnUse"
                                    style="mask-type: luminance"
                                >
                                    <path fill="#fff" d="M388 121h-23v23h23v-23Z" />
                                </mask>
                                <g mask="url(#s)">
                                    <mask
                                        id="t"
                                        width="23"
                                        height="23"
                                        x="365"
                                        y="121"
                                        maskUnits="userSpaceOnUse"
                                        style="mask-type: luminance"
                                    >
                                        <path fill="#fff" d="M388 121h-23v23h23v-23Z" />
                                    </mask>
                                    <g mask="url(#t)">
                                        <path
                                            fill="url(#u)"
                                            d="M384.17 121h-15.34a3.83 3.83 0 0 0-3.83 3.83v15.34a3.83 3.83 0 0 0 3.83 3.83h15.34a3.83 3.83 0 0 0 3.83-3.83v-15.34a3.83 3.83 0 0 0-3.83-3.83Z"
                                        />
                                        <path fill="#85D4F5" d="M382.25 121h-5.75v5.75h5.75V121Z" />
                                        <path
                                            fill="#D6F1FC"
                                            d="M382.25 121h1.92a3.83 3.83 0 0 1 3.83 3.83v1.92h-5.75V121Z"
                                        />
                                        <path fill="#85D4F5" d="M388 126.75h-5.75v5.75H388v-5.75Z" />
                                        <path
                                            fill="#fff"
                                            fill-rule="evenodd"
                                            d="M377.46 139.2c0 .54-.43.97-.96.97h-6.71a.96.96 0 0 1 0-1.92h6.7c.54 0 .97.43.97.96Zm-2.88-3.83c0 .53-.43.96-.96.96h-3.83a.96.96 0 0 1 0-1.92h3.83c.53 0 .96.43.96.96Z"
                                            clip-rule="evenodd"
                                        />
                                    </g>
                                </g>
                            </g>
                        </g>
                        <rect
                            width="27.74"
                            height="27.74"
                            x="363.55"
                            y="119.57"
                            stroke="#fff"
                            stroke-width="3.71"
                            rx="5.99"
                        />
                        <path fill="#EAE7E4" d="M309.33 153.47h1143.5v1H309.33z" />
                        <g clip-path="url(#v)">
                            <g clip-path="url(#w)">
                                <mask
                                    id="x"
                                    width="23"
                                    height="23"
                                    x="365"
                                    y="163"
                                    maskUnits="userSpaceOnUse"
                                    style="mask-type: luminance"
                                >
                                    <path fill="#fff" d="M388 163h-23v23h23v-23Z" />
                                </mask>
                                <g mask="url(#x)">
                                    <mask
                                        id="y"
                                        width="23"
                                        height="23"
                                        x="365"
                                        y="163"
                                        maskUnits="userSpaceOnUse"
                                        style="mask-type: luminance"
                                    >
                                        <path fill="#fff" d="M388 163h-23v23h23v-23Z" />
                                    </mask>
                                    <g mask="url(#y)">
                                        <path
                                            fill="url(#z)"
                                            d="M384.17 163h-15.34a3.83 3.83 0 0 0-3.83 3.83v15.34a3.83 3.83 0 0 0 3.83 3.83h15.34a3.83 3.83 0 0 0 3.83-3.83v-15.34a3.83 3.83 0 0 0-3.83-3.83Z"
                                        />
                                        <path fill="#85D4F5" d="M382.25 163h-5.75v5.75h5.75V163Z" />
                                        <path
                                            fill="#D6F1FC"
                                            d="M382.25 163h1.92a3.83 3.83 0 0 1 3.83 3.83v1.92h-5.75V163Z"
                                        />
                                        <path fill="#85D4F5" d="M388 168.75h-5.75v5.75H388v-5.75Z" />
                                        <path
                                            fill="#fff"
                                            fill-rule="evenodd"
                                            d="M377.46 181.2c0 .54-.43.97-.96.97h-6.71a.96.96 0 0 1 0-1.92h6.7c.54 0 .97.43.97.96Zm-2.88-3.83c0 .53-.43.96-.96.96h-3.83a.96.96 0 0 1 0-1.92h3.83c.53 0 .96.43.96.96Z"
                                            clip-rule="evenodd"
                                        />
                                    </g>
                                </g>
                            </g>
                        </g>
                        <rect
                            width="27.74"
                            height="27.74"
                            x="363.55"
                            y="161.62"
                            stroke="#fff"
                            stroke-width="3.71"
                            rx="5.99"
                        />
                        <path fill="#EAE7E4" d="M309.33 195.52h1143.5v1H309.33z" />
                        <g clip-path="url(#A)">
                            <g clip-path="url(#B)">
                                <mask
                                    id="C"
                                    width="23"
                                    height="23"
                                    x="365"
                                    y="206"
                                    maskUnits="userSpaceOnUse"
                                    style="mask-type: luminance"
                                >
                                    <path fill="#fff" d="M388 206h-23v23h23v-23Z" />
                                </mask>
                                <g mask="url(#C)">
                                    <mask
                                        id="D"
                                        width="23"
                                        height="23"
                                        x="365"
                                        y="206"
                                        maskUnits="userSpaceOnUse"
                                        style="mask-type: luminance"
                                    >
                                        <path fill="#fff" d="M388 206h-23v23h23v-23Z" />
                                    </mask>
                                    <g mask="url(#D)">
                                        <path
                                            fill="url(#E)"
                                            d="M384.17 206h-15.34a3.83 3.83 0 0 0-3.83 3.83v15.34a3.83 3.83 0 0 0 3.83 3.83h15.34a3.83 3.83 0 0 0 3.83-3.83v-15.34a3.83 3.83 0 0 0-3.83-3.83Z"
                                        />
                                        <path fill="#85D4F5" d="M382.25 206h-5.75v5.75h5.75V206Z" />
                                        <path
                                            fill="#D6F1FC"
                                            d="M382.25 206h1.92a3.83 3.83 0 0 1 3.83 3.83v1.92h-5.75V206Z"
                                        />
                                        <path fill="#85D4F5" d="M388 211.75h-5.75v5.75H388v-5.75Z" />
                                        <path
                                            fill="#fff"
                                            fill-rule="evenodd"
                                            d="M377.46 224.2c0 .54-.43.97-.96.97h-6.71a.96.96 0 0 1 0-1.92h6.7c.54 0 .97.43.97.96Zm-2.88-3.83c0 .53-.43.96-.96.96h-3.83a.96.96 0 0 1 0-1.92h3.83c.53 0 .96.43.96.96Z"
                                            clip-rule="evenodd"
                                        />
                                    </g>
                                </g>
                            </g>
                        </g>
                        <rect
                            width="27.74"
                            height="27.74"
                            x="363.55"
                            y="203.68"
                            stroke="#fff"
                            stroke-width="3.71"
                            rx="5.99"
                        />
                        <path fill="#EAE7E4" d="M309.33 237.58h1143.5v1H309.33z" />
                    </g>
                </g>
                <path
                    fill="#1F2937"
                    fill-opacity=".4"
                    d="M-108.8 13.77A28.77 28.77 0 0 1-80.04-15h616.07v441.07H-108.8V13.77Z"
                />
            </g>
        </g>
        <g filter="url(#F)">
            <g clip-path="url(#G)">
                <rect width="226" height="133.11" x="71" y="37" fill="#fff" rx="7.66" />
                <path
                    fill="#0C0C14"
                    fill-rule="evenodd"
                    d="M90.63 56.57c-.8 0-1.43.65-1.43 1.44v9.58c0 .8.64 1.43 1.43 1.43h1.44v.96h-1.44a2.4 2.4 0 0 1-2.4-2.4v-9.57a2.4 2.4 0 0 1 2.4-2.4h5.43c.64 0 1.25.26 1.7.7l2.23 2.24c.45.45.7 1.06.7 1.7v7.34a2.4 2.4 0 0 1-2.4 2.4h-1.43v-.97h1.43c.8 0 1.44-.64 1.44-1.43V60.4h-1.92c-.79 0-1.91-.65-1.91-1.44v-2.4h-5.27Zm6.23.24v2.16c0 .26.21.48.48.48h2.15a1.44 1.44 0 0 0-.18-.22L97.08 57a1.44 1.44 0 0 0-.22-.19Zm-2.87 4.83a.67.67 0 0 1 .95 0l1.78 1.78a.48.48 0 0 1-.68.68l-1.1-1.1v6.5a.48.48 0 0 1-.96 0V63l-1.1 1.1a.48.48 0 0 1-.67-.68l1.78-1.78Z"
                    clip-rule="evenodd"
                />
                <path
                    fill="#0C0C14"
                    d="M116.88 56.57h1.19v6.46c0 2-1.5 3.46-3.8 3.46-2.29 0-3.78-1.46-3.78-3.46v-6.46h1.18v6.36c0 1.43.98 2.46 2.6 2.46 1.63 0 2.61-1.03 2.61-2.46v-6.36Zm3.39 12.5V59h1.09v1.16h.13c.25-.38.69-1.26 2.11-1.26 1.85 0 3.13 1.47 3.13 3.77 0 2.33-1.28 3.8-3.1 3.8-1.42 0-1.9-.88-2.14-1.28h-.1v3.86h-1.12Zm1.1-6.4c0 1.65.75 2.8 2.1 2.8 1.4 0 2.13-1.24 2.13-2.8 0-1.55-.7-2.75-2.13-2.75-1.37 0-2.1 1.1-2.1 2.74Zm8.2-6.1v9.75h-1.13v-9.75h1.12Zm5.02 9.9c-1.98 0-3.31-1.5-3.31-3.77 0-2.28 1.33-3.79 3.31-3.79s3.32 1.5 3.32 3.8c0 2.26-1.34 3.76-3.32 3.76Zm0-1c1.5 0 2.2-1.3 2.2-2.77 0-1.46-.7-2.78-2.2-2.78-1.5 0-2.19 1.32-2.19 2.78 0 1.47.69 2.76 2.2 2.76Zm7.18 1.02c-1.39 0-2.5-.82-2.5-2.25 0-1.67 1.49-1.97 2.85-2.15 1.33-.17 1.88-.12 1.88-.66v-.04c0-.94-.5-1.49-1.54-1.49-1.07 0-1.66.57-1.9 1.1l-1.07-.37c.57-1.34 1.83-1.72 2.93-1.72.93 0 2.7.27 2.7 2.6v4.81H144v-.99h-.06c-.22.48-.9 1.16-2.17 1.16Zm.17-1c1.34 0 2.06-.9 2.06-1.82v-1.03c-.19.23-1.47.37-1.94.42-.88.12-1.66.38-1.66 1.24 0 .78.65 1.18 1.54 1.18Zm8 .98c-1.83 0-3.1-1.46-3.1-3.79 0-2.3 1.27-3.77 3.12-3.77 1.42 0 1.86.88 2.11 1.26h.1v-3.6h1.12v9.75h-1.09V65.2h-.13c-.25.4-.72 1.27-2.13 1.27Zm.15-1c1.35 0 2.1-1.15 2.1-2.8 0-1.64-.73-2.75-2.1-2.75-1.43 0-2.13 1.2-2.13 2.74 0 1.57.72 2.8 2.13 2.8ZM162.53 59v.95h-1.64v6.36h-1.12v-6.36h-1.18V59h1.18v-1c0-1.26 1-1.89 2.05-1.89.56 0 .9.12 1.07.2l-.32.96c-.12-.03-.3-.11-.63-.11-.74 0-1.05.38-1.05 1.1v.75h1.64Zm1.57 7.31V59h1.13v7.31h-1.13Zm.58-8.53a.78.78 0 0 1-.8-.76c0-.42.36-.76.8-.76.43 0 .8.34.8.76s-.37.76-.8.76Zm3.73-1.22v9.75h-1.12v-9.75h1.12Zm5.12 9.9c-2.11 0-3.4-1.5-3.4-3.75s1.3-3.8 3.29-3.8c1.52 0 3.14.93 3.14 3.65v.47h-5.3c.05 1.57.95 2.42 2.27 2.42.88 0 1.55-.38 1.83-1.14l1.09.3c-.35 1.11-1.43 1.85-2.92 1.85Zm-2.28-4.4h4.17c0-1.23-.78-2.15-2-2.15-1.29 0-2.1 1.02-2.17 2.15ZM87.28 93.81c0-1.05.86-1.91 1.92-1.91h2.9c.37 0 .73.08 1.07.25l1.1.55c.2.1.42.16.65.16h3.85c1.06 0 1.92.85 1.92 1.91v6.7c0 1.06-.86 1.92-1.92 1.92H95.9v-.96h2.87c.53 0 .96-.43.96-.96v-6.7a.96.96 0 0 0-.96-.96h-3.85a2.4 2.4 0 0 1-1.08-.25l-1.1-.55c-.2-.1-.42-.15-.64-.15h-2.9a.96.96 0 0 0-.96.95v7.66c0 .53.43.96.96.96h3.83v.96H89.2a1.92 1.92 0 0 1-1.92-1.92v-7.66Z"
                />
                <path
                    fill="#0C0C14"
                    d="M94.8 96.35a.48.48 0 0 0-.68 0l-1.91 1.91a.48.48 0 1 0 .68.68l1.1-1.1v5.55h.95v-5.55l1.1 1.1a.48.48 0 0 0 .68-.68l-1.92-1.91Zm22.08-4.46h1.19v6.46c0 2-1.5 3.46-3.8 3.46-2.29 0-3.78-1.46-3.78-3.46v-6.46h1.18v6.36c0 1.43.98 2.46 2.6 2.46 1.63 0 2.61-1.03 2.61-2.46V91.9Zm3.39 12.5V94.32h1.09v1.16h.13c.25-.38.69-1.26 2.11-1.26 1.85 0 3.13 1.47 3.13 3.77 0 2.33-1.28 3.8-3.1 3.8-1.42 0-1.9-.88-2.14-1.28h-.1v3.86h-1.12Zm1.1-6.4c0 1.65.75 2.8 2.1 2.8 1.4 0 2.13-1.24 2.13-2.8 0-1.55-.7-2.75-2.13-2.75-1.37 0-2.1 1.1-2.1 2.74Zm8.2-6.1v9.75h-1.13V91.9h1.12Zm5.02 9.9c-1.98 0-3.31-1.5-3.31-3.77 0-2.28 1.33-3.79 3.31-3.79s3.32 1.5 3.32 3.8c0 2.26-1.34 3.76-3.32 3.76Zm0-1c1.5 0 2.2-1.3 2.2-2.77 0-1.46-.7-2.78-2.2-2.78-1.5 0-2.19 1.32-2.19 2.78 0 1.47.69 2.76 2.2 2.76Zm7.18 1.02c-1.39 0-2.5-.82-2.5-2.25 0-1.67 1.49-1.97 2.85-2.15 1.33-.17 1.88-.12 1.88-.66v-.04c0-.94-.5-1.49-1.54-1.49-1.07 0-1.66.57-1.9 1.1l-1.07-.37c.57-1.34 1.83-1.72 2.93-1.72.93 0 2.7.27 2.7 2.6v4.81H144v-.99h-.06c-.22.48-.9 1.16-2.17 1.16Zm.17-1c1.34 0 2.06-.9 2.06-1.82v-1.02c-.19.22-1.47.36-1.94.41-.88.12-1.66.39-1.66 1.24 0 .78.65 1.18 1.54 1.18Zm8 .98c-1.83 0-3.1-1.46-3.1-3.79 0-2.3 1.27-3.77 3.12-3.77 1.42 0 1.86.88 2.11 1.26h.1v-3.6h1.12v9.75h-1.09v-1.12h-.13c-.25.4-.72 1.27-2.13 1.27Zm.15-1c1.35 0 2.1-1.15 2.1-2.8 0-1.64-.73-2.75-2.1-2.75-1.43 0-2.13 1.2-2.13 2.74 0 1.57.72 2.8 2.13 2.8Zm12.44-6.46v.95h-1.64v6.36h-1.12v-6.36h-1.18v-.95h1.18v-1.01c0-1.26 1-1.89 2.05-1.89.56 0 .9.12 1.07.2l-.32.96c-.12-.03-.3-.1-.63-.1-.74 0-1.05.37-1.05 1.1v.74h1.64Zm4.24 7.46c-1.98 0-3.31-1.5-3.31-3.77 0-2.28 1.33-3.79 3.31-3.79s3.32 1.5 3.32 3.8c0 2.26-1.34 3.76-3.32 3.76Zm0-1c1.5 0 2.2-1.3 2.2-2.77 0-1.46-.7-2.78-2.2-2.78-1.5 0-2.19 1.32-2.19 2.78 0 1.47.69 2.76 2.2 2.76Zm6.16-8.9v9.75h-1.13V91.9h1.13Zm4.81 9.9c-1.82 0-3.1-1.46-3.1-3.79 0-2.3 1.28-3.77 3.12-3.77 1.43 0 1.87.88 2.12 1.26h.1v-3.6h1.12v9.75H180v-1.12h-.13c-.25.4-.72 1.27-2.13 1.27Zm.16-1c1.35 0 2.1-1.15 2.1-2.8 0-1.64-.73-2.75-2.1-2.75-1.43 0-2.14 1.2-2.14 2.74 0 1.57.73 2.8 2.14 2.8Zm8.48 1c-2.12 0-3.41-1.5-3.41-3.75s1.31-3.8 3.3-3.8c1.52 0 3.13.93 3.13 3.65v.48h-5.3c.05 1.56.96 2.41 2.28 2.41.88 0 1.54-.38 1.83-1.14l1.08.3c-.34 1.11-1.43 1.85-2.91 1.85Zm-2.28-4.4h4.16c0-1.23-.78-2.15-2-2.15-1.28 0-2.09 1.02-2.16 2.15Zm7.01 4.25v-7.31h1.09v1.1h.08a1.99 1.99 0 0 1 1.9-1.22l.6.02v1.15a3.45 3.45 0 0 0-.7-.08c-1.06 0-1.84.72-1.84 1.71v4.63h-1.13Z"
                />
                <path fill="#D1CFCD" d="M71 122.97h226V122H71z" />
                <path
                    fill="#0C0C14"
                    fill-rule="evenodd"
                    d="M86.32 143.54c0-1.05.86-1.91 1.92-1.91h2.42c.37 0 .73.09 1.07.25l1.1.56c.2.1.42.15.65.15h5.29c1.06 0 1.92.85 1.92 1.91v6.7c0 1.06-.86 1.92-1.92 1.92H88.24a1.91 1.91 0 0 1-1.92-1.91v-7.67Zm1.92-.95a.96.96 0 0 0-.96.95v7.67c0 .52.43.95.96.95h10.53c.53 0 .96-.43.96-.95v-6.7a.96.96 0 0 0-.96-.97h-5.3a2.3 2.3 0 0 1-1.06-.25l-1.11-.55c-.2-.1-.42-.15-.64-.15h-2.42Z"
                    clip-rule="evenodd"
                />
                <path
                    fill="#0C0C14"
                    fill-rule="evenodd"
                    d="M93.5 145.41c.27 0 .48.22.48.48v1.44h1.44a.48.48 0 1 1 0 .95h-1.44v1.44a.48.48 0 0 1-.96 0v-1.44H91.6a.48.48 0 1 1 0-.95h1.43v-1.44c0-.26.22-.48.48-.48Z"
                    clip-rule="evenodd"
                />
                <path
                    fill="#0C0C14"
                    d="M118.22 141.58v9.75h-1.14l-5.32-7.66h-.1v7.66h-1.17v-9.75h1.14l5.33 7.67h.1v-7.67h1.16Zm5.27 9.9c-2.11 0-3.4-1.5-3.4-3.75s1.3-3.81 3.29-3.81c1.52 0 3.14.93 3.14 3.66v.47h-5.3c.05 1.57.95 2.42 2.27 2.42.88 0 1.55-.38 1.83-1.14l1.09.3c-.35 1.1-1.43 1.85-2.92 1.85Zm-2.28-4.4h4.17c0-1.24-.78-2.15-2-2.15-1.29 0-2.1 1.01-2.17 2.15Zm8.68 4.25-2.23-7.32h1.18l1.58 5.6h.08l1.56-5.6h1.2l1.54 5.59h.08l1.58-5.59h1.18l-2.23 7.32h-1.1l-1.6-5.62h-.12l-1.6 5.62h-1.1Zm16.26-7.32v.96h-1.64v6.36h-1.12v-6.36h-1.18V144h1.18v-1c0-1.26 1-1.89 2.06-1.89.55 0 .9.12 1.06.2l-.32.96c-.12-.04-.3-.11-.63-.11-.74 0-1.05.38-1.05 1.1v.74h1.64Zm4.25 7.47c-1.99 0-3.32-1.5-3.32-3.77 0-2.28 1.33-3.79 3.31-3.79 1.99 0 3.32 1.5 3.32 3.79 0 2.27-1.33 3.77-3.31 3.77Zm0-1c1.5 0 2.19-1.3 2.19-2.77s-.69-2.78-2.2-2.78c-1.5 0-2.18 1.31-2.18 2.78 0 1.47.68 2.76 2.19 2.76Zm6.15-8.9v9.75h-1.13v-9.75h1.13Zm4.82 9.9c-1.83 0-3.1-1.47-3.1-3.79 0-2.3 1.27-3.77 3.12-3.77 1.42 0 1.86.88 2.11 1.26h.1v-3.6h1.12v9.75h-1.09v-1.13h-.13c-.25.4-.72 1.28-2.13 1.28Zm.15-1c1.35 0 2.1-1.15 2.1-2.8s-.73-2.75-2.1-2.75c-1.43 0-2.13 1.2-2.13 2.74 0 1.56.72 2.8 2.13 2.8Zm8.48 1c-2.12 0-3.41-1.5-3.41-3.75s1.31-3.81 3.3-3.81c1.52 0 3.14.93 3.14 3.66v.47h-5.31c.05 1.57.96 2.42 2.28 2.42.88 0 1.54-.38 1.83-1.14l1.08.3c-.34 1.1-1.43 1.85-2.91 1.85Zm-2.28-4.4h4.16c0-1.24-.78-2.15-2-2.15-1.28 0-2.09 1.01-2.16 2.15Zm7.02 4.25V144h1.08v1.11h.08a1.99 1.99 0 0 1 1.9-1.22l.6.02v1.14a3.45 3.45 0 0 0-.7-.07c-1.06 0-1.84.72-1.84 1.71v4.63h-1.13Z"
                />
            </g>
            <rect width="225.04" height="132.15" x="71.48" y="37.48" stroke="#D1CFCD" stroke-width=".96" rx="7.18" />
        </g>
        <circle cx="89.5" cy="183.98" r="63.5" fill="url(#H)" opacity=".6" transform="rotate(-41.2 89.5 183.98)" />
        <circle cx="89.5" cy="183.98" r="45.86" fill="url(#I)" opacity=".6" transform="rotate(-41.2 89.5 183.98)" />
        <g filter="url(#J)">
            <rect width="242" height="52" x="64" y="158.06" fill="#fff" rx="8.53" />
        </g>
        <g filter="url(#K)">
            <mask id="L" width="15" height="17" x="270.13" y="175.54" fill="#000" maskUnits="userSpaceOnUse">
                <path fill="#fff" d="M270.13 175.54h15v17h-15z" />
                <path
                    fill-rule="evenodd"
                    d="m274.49 185.3-.78-1.18a2 2 0 0 0-2.53-.66l.2-.1a.5.5 0 0 0-.22.6l1.07 2.8c.17.43.6 1.06.97 1.37 0 0 2.17 1.8 2.17 2.46v.85h3.5l.88-1.75.88 1.75h.87v-.85c0-.67 1.32-2.78 1.32-2.78.25-.41.45-1.14.45-1.62v-3.54a1.48 1.48 0 0 0-1.5-1.42.73.73 0 0 0-.75.71v.29c0-.79-.66-1.42-1.48-1.42a.73.73 0 0 0-.75.7v.3c0-.8-.66-1.43-1.48-1.43a.73.73 0 0 0-.75.71v.29a1 1 0 0 0-.04-.31l-.22-3.65a.94.94 0 0 0-.94-.88c-.48 0-.87.4-.87.88v7.89Zm6.15-.87h.88v3.5h-.88v-3.5Zm-1.75 0h.88v3.5h-.88v-3.5Zm-1.75 0h.87v3.5h-.87v-3.5Z"
                    clip-rule="evenodd"
                />
            </mask>
            <path
                fill="#fff"
                fill-rule="evenodd"
                d="m274.49 185.3-.78-1.18a2 2 0 0 0-2.53-.66l.2-.1a.5.5 0 0 0-.22.6l1.07 2.8c.17.43.6 1.06.97 1.37 0 0 2.17 1.8 2.17 2.46v.85h3.5l.88-1.75.88 1.75h.87v-.85c0-.67 1.32-2.78 1.32-2.78.25-.41.45-1.14.45-1.62v-3.54a1.48 1.48 0 0 0-1.5-1.42.73.73 0 0 0-.75.71v.29c0-.79-.66-1.42-1.48-1.42a.73.73 0 0 0-.75.7v.3c0-.8-.66-1.43-1.48-1.43a.73.73 0 0 0-.75.71v.29a1 1 0 0 0-.04-.31l-.22-3.65a.94.94 0 0 0-.94-.88c-.48 0-.87.4-.87.88v7.89Zm6.15-.87h.88v3.5h-.88v-3.5Zm-1.75 0h.88v3.5h-.88v-3.5Zm-1.75 0h.87v3.5h-.87v-3.5Z"
                clip-rule="evenodd"
            />
            <path
                fill="#000"
                fill-opacity=".8"
                d="m274.49 185.3-.74.49 1.62 2.46v-2.94h-.88Zm-.78-1.18.73-.48-.73.48Zm-2.55-.15-.82.31.82-.31Zm1.07 2.78.82-.31-.82.31Zm.97 1.38-.57.66.01.02.56-.68Zm2.17 3.31h-.88v.88h.88v-.88Zm3.5 0v.88h.54l.25-.48-.79-.4Zm.88-1.75.78-.4-.78-1.56-.79 1.57.79.4Zm.88 1.75-.79.4.24.48h.55v-.88Zm.87 0v.88h.88v-.88h-.88Zm1.32-3.63.75.46.01-.02-.75-.44Zm.45-5.16h.88v-.02l-.88.02Zm-6.75-1.58-.87.06v.1l.04.11.83-.27Zm-.22-3.65-.88.05.88-.05Zm-1.81 0h-.88.88Zm7.03 7.01h.88v-.88h-.88v.88Zm0 3.5v.88h.88v-.87h-.88Zm-.88 0h-.87v.88h.87v-.87Zm-.87-3.5h.87v-.88h-.87v.88Zm0 3.5v.88h.87v-.87h-.87Zm-.88 0H278v.88h.88v-.87Zm-.88-3.5h.88v-.88H278v.88Zm0 3.5v.88h.88v-.87H278Zm-.87 0h-.88v.88h.88v-.87Zm-1.92-3.1-.78-1.2-1.46.97.77 1.19 1.47-.96Zm-.78-1.2a2.87 2.87 0 0 0-3.66-.95l.8 1.56a1.13 1.13 0 0 1 1.4.36l1.46-.96Zm-2.86.6.2-.1-.8-1.56-.2.1.8 1.57Zm-.6-1.66a1.38 1.38 0 0 0-.64 1.71l1.64-.63c.03.1.03.2 0 .27a.4.4 0 0 1-.2.21l-.8-1.56Zm-.64 1.71 1.08 2.79 1.63-.63-1.07-2.79-1.64.63Zm1.08 2.79a5 5 0 0 0 1.2 1.72l1.15-1.32c-.25-.22-.6-.72-.72-1.03l-1.63.63Zm1.78 1.06-.56.68.02.01.06.06.24.2c.2.17.45.4.7.66a7.9 7.9 0 0 1 .83.96c.04.07 0 .02 0-.1h1.75c0-.3-.1-.55-.2-.71-.08-.18-.2-.35-.32-.5-.24-.3-.54-.63-.82-.9-.29-.29-.57-.54-.78-.73l-.26-.22a3.53 3.53 0 0 0-.07-.06l-.02-.02h-.01l-.56.67Zm1.29 2.46v.85h1.75v-.85h-1.75Zm.88 1.73h3.5v-1.75h-3.5v1.75Zm4.29-.48.87-1.76-1.56-.78-.88 1.75 1.57.79Zm-.7-1.76.88 1.76 1.57-.79-.88-1.75-1.56.78Zm1.67 2.24h.87v-1.75h-.87v1.75Zm1.75-.88v-.85h-1.75v.85h1.75Zm0-.85c0 .04 0-.07.14-.37a10.68 10.68 0 0 1 .85-1.63l.15-.23.04-.07v-.01l-.74-.47-.74-.47-.01.03a3.7 3.7 0 0 0-.05.07c-.04.06-.1.15-.15.26a23.72 23.72 0 0 0-.97 1.83 3 3 0 0 0-.27 1.06h1.75Zm1.2-2.34a4.26 4.26 0 0 0 .57-2.06h-1.75a3.06 3.06 0 0 1-.33 1.17l1.51.9Zm.57-2.06v-3.54h-1.75v3.54h1.75Zm0-3.56a2.35 2.35 0 0 0-2.38-2.27v1.75c.37 0 .62.28.63.56l1.75-.04Zm-2.38-2.27a1.6 1.6 0 0 0-1.62 1.58h1.75a.2.2 0 0 1-.05.14.12.12 0 0 1-.08.03v-1.75Zm-1.62 1.58v.29h1.75v-.29h-1.75Zm1.75.29c0-1.31-1.1-2.3-2.36-2.3v1.75c.38 0 .6.29.6.55h1.76Zm-2.36-2.3a1.6 1.6 0 0 0-1.62 1.59h1.75c0 .06-.03.1-.05.13a.12.12 0 0 1-.08.03v-1.75Zm-1.62 1.59v.28h1.75v-.28h-1.75Zm1.75.28c0-1.3-1.1-2.3-2.36-2.3v1.76c.37 0 .6.28.6.54h1.76Zm-2.36-2.3a1.6 1.6 0 0 0-1.62 1.6h1.75a.2.2 0 0 1-.06.13.12.12 0 0 1-.07.03v-1.75Zm-1.62 1.6v.28h1.75v-.29h-1.75Zm1.75.28c0-.19-.02-.39-.08-.58l-1.67.54v-.02.06h1.75Zm-.04-.36-.23-3.66-1.75.11.23 3.66 1.75-.11Zm-.23-3.66a1.82 1.82 0 0 0-1.8-1.7v1.76l.03.01.02.04 1.75-.1Zm-1.8-1.7c-.98 0-1.76.79-1.76 1.76h1.75v-1.76Zm-1.76 1.76v3.5h1.75v-3.5h-1.75Zm0 3.5v4.39h1.75v-4.39h-1.75Zm7.03 4.39h.88v-1.76h-.88v1.76Zm0-.88v3.5h1.76v-3.5h-1.76Zm.88 2.63h-.88v1.75h.88v-1.75Zm0 .88v-3.51h-1.75v3.5h1.75Zm-2.63-2.63h.88v-1.76h-.88v1.76Zm0-.88v3.5h1.75v-3.5h-1.75Zm.88 2.63h-.88v1.75h.88v-1.75Zm0 .88v-3.51H278v3.5h1.76Zm-2.63-2.63h.87v-1.76h-.87v1.76Zm0-.88v3.5h1.75v-3.5h-1.75Zm.87 2.63h-.87v1.75h.87v-1.75Zm0 .88v-3.51h-1.75v3.5H278Z"
                mask="url(#L)"
            />
        </g>
        <path
            fill="#0C0C14"
            d="M119.5 178.17v10.39h-1.22l-5.66-8.16h-.1v8.16h-1.26v-10.4h1.22l5.68 8.19h.1v-8.18h1.24Zm5.62 10.55c-2.25 0-3.63-1.6-3.63-4s1.4-4.06 3.5-4.06c1.63 0 3.36 1 3.36 3.9v.5h-5.66c.06 1.68 1.03 2.59 2.43 2.59.94 0 1.64-.41 1.95-1.22l1.16.32c-.37 1.18-1.53 1.97-3.1 1.97Zm-2.43-4.69h4.44c0-1.32-.83-2.29-2.13-2.29-1.37 0-2.23 1.08-2.3 2.3Zm9.25 4.53-2.38-7.8h1.26l1.68 5.97h.08l1.67-5.97h1.28l1.64 5.95h.08l1.69-5.95h1.25l-2.37 7.8h-1.18l-1.7-5.99h-.12l-1.7 5.99h-1.19Zm16.8.16c-1.95 0-3.3-1.56-3.3-4.04 0-2.45 1.35-4.02 3.32-4.02 1.52 0 1.99.94 2.25 1.34h.1v-3.83h1.2v10.39h-1.16v-1.2h-.14c-.26.43-.77 1.36-2.27 1.36Zm.16-1.07c1.44 0 2.23-1.22 2.23-2.99 0-1.74-.77-2.92-2.23-2.92-1.52 0-2.27 1.28-2.27 2.92 0 1.67.77 2.99 2.27 2.99Zm8.94 1.07c-2.12 0-3.53-1.6-3.53-4.02 0-2.43 1.41-4.04 3.53-4.04 2.1 0 3.53 1.6 3.53 4.04 0 2.42-1.42 4.02-3.53 4.02Zm0-1.07c1.6 0 2.33-1.39 2.33-2.95 0-1.56-.73-2.96-2.33-2.96s-2.34 1.4-2.34 2.96.73 2.95 2.34 2.95Zm8.52 1.07c-2.2 0-3.53-1.68-3.53-4.02 0-2.37 1.4-4.04 3.51-4.04 1.65 0 2.88.98 3.09 2.44h-1.2c-.18-.71-.81-1.36-1.87-1.36-1.4 0-2.33 1.16-2.33 2.92 0 1.8.91 2.99 2.33 2.99.93 0 1.64-.51 1.87-1.36h1.2c-.2 1.38-1.34 2.43-3.07 2.43Zm9.73-3.35v-4.6h1.2v7.79h-1.2v-1.32H176a2.43 2.43 0 0 1-2.32 1.42c-1.46 0-2.51-.95-2.51-2.94v-4.96h1.2v4.88c0 1.13.7 1.86 1.7 1.86.9 0 2-.67 2-2.13Zm3.39 3.19v-7.8h1.16v1.22h.1c.32-.83 1.07-1.32 2.09-1.32 1.02 0 1.7.5 2.09 1.32h.08c.4-.8 1.22-1.32 2.33-1.32 1.4 0 2.38.85 2.38 2.68v5.22h-1.2v-5.22c0-1.15-.73-1.6-1.58-1.6-1.1 0-1.73.74-1.73 1.75v5.07h-1.22v-5.34c0-.89-.63-1.48-1.54-1.48-.93 0-1.76.8-1.76 1.95v4.87h-1.2Zm15.68.16c-2.25 0-3.63-1.6-3.63-4s1.4-4.06 3.51-4.06c1.63 0 3.35 1 3.35 3.9v.5h-5.66c.06 1.68 1.03 2.59 2.43 2.59.94 0 1.65-.41 1.95-1.22l1.16.32c-.37 1.18-1.52 1.97-3.1 1.97Zm-2.43-4.69h4.44c0-1.32-.83-2.29-2.13-2.29-1.37 0-2.23 1.08-2.3 2.3Zm8.68-.16v4.69h-1.2v-7.8h1.16v1.22h.1c.37-.79 1.1-1.32 2.27-1.32 1.58 0 2.64.96 2.64 2.95v4.95h-1.2v-4.87c0-1.22-.67-1.95-1.78-1.95-1.15 0-2 .77-2 2.13Zm10.55-3.1v1.01h-1.67v4.55c0 1.01.51 1.17 1.04 1.17.26 0 .42-.04.53-.06l.24 1.08c-.16.06-.45.14-.9.14-1 0-2.1-.65-2.1-2v-4.88h-1.18v-1.02h1.18v-1.86h1.2v1.86h1.66Z"
        />
        <g clip-path="url(#M)">
            <mask id="N" width="23" height="24" x="78" y="172" maskUnits="userSpaceOnUse" style="mask-type: luminance">
                <path fill="#fff" d="M101 172.56H78v23h23v-23Z" />
            </mask>
            <g mask="url(#N)">
                <mask
                    id="O"
                    width="23"
                    height="24"
                    x="78"
                    y="172"
                    maskUnits="userSpaceOnUse"
                    style="mask-type: luminance"
                >
                    <path fill="#fff" d="M101 172.56H78v23h23v-23Z" />
                </mask>
                <g mask="url(#O)">
                    <path
                        fill="url(#P)"
                        d="M97.17 172.56H81.83a3.83 3.83 0 0 0-3.83 3.83v15.34a3.83 3.83 0 0 0 3.83 3.83h15.34a3.83 3.83 0 0 0 3.83-3.84V176.4a3.83 3.83 0 0 0-3.83-3.83Z"
                    />
                    <path fill="#85D4F5" d="M95.25 172.56H89.5v5.75h5.75v-5.75Z" />
                    <path fill="#D6F1FC" d="M95.25 172.56h1.92a3.83 3.83 0 0 1 3.83 3.83v1.92h-5.75v-5.75Z" />
                    <path fill="#85D4F5" d="M101 178.3h-5.75v5.76H101v-5.75Z" />
                    <path
                        fill="#fff"
                        fill-rule="evenodd"
                        d="M90.46 190.77c0 .53-.43.95-.96.95h-6.71a.96.96 0 1 1 0-1.91h6.7c.54 0 .97.43.97.96Zm-2.88-3.84c0 .53-.43.96-.96.96H82.8a.96.96 0 1 1 0-1.92h3.83c.53 0 .96.43.96.96Z"
                        clip-rule="evenodd"
                    />
                </g>
            </g>
        </g>
    </g>
    <defs>
        <clipPath id="a">
            <path
                fill="#fff"
                d="M0 16A16 16 0 0 1 16 0h366a16 16 0 0 1 16 16v222a16 16 0 0 1-16 16H16a16 16 0 0 1-16-16V16Z"
            />
        </clipPath>
        <clipPath id="g">
            <rect width="656" height="441.07" x="59" y="-15" fill="#fff" rx="13.81" />
        </clipPath>
        <clipPath id="i">
            <rect width="761" height="511.67" x="59" y="-76.84" fill="#fff" rx="16.02" />
        </clipPath>
        <clipPath id="j">
            <path fill="#fff" d="M59-76.84h250.33v801.05H59z" />
        </clipPath>
        <clipPath id="k">
            <path fill="#fff" d="M71.02-76.84h226.3V40.28H71.02z" />
        </clipPath>
        <clipPath id="l">
            <rect width="24.03" height="24.03" x="365.4" y="79.37" fill="#fff" rx="4.14" />
        </clipPath>
        <clipPath id="m">
            <path fill="#fff" d="M365 79h23v23h-23z" />
        </clipPath>
        <clipPath id="q">
            <rect width="24.03" height="24.03" x="365.4" y="121.43" fill="#fff" rx="4.14" />
        </clipPath>
        <clipPath id="r">
            <path fill="#fff" d="M365 121h23v23h-23z" />
        </clipPath>
        <clipPath id="v">
            <rect width="24.03" height="24.03" x="365.4" y="163.48" fill="#fff" rx="4.14" />
        </clipPath>
        <clipPath id="w">
            <path fill="#fff" d="M365 163h23v23h-23z" />
        </clipPath>
        <clipPath id="A">
            <rect width="24.03" height="24.03" x="365.4" y="205.53" fill="#fff" rx="4.14" />
        </clipPath>
        <clipPath id="B">
            <path fill="#fff" d="M365 206h23v23h-23z" />
        </clipPath>
        <clipPath id="G">
            <rect width="226" height="133.11" x="71" y="37" fill="#fff" rx="7.66" />
        </clipPath>
        <clipPath id="M">
            <path fill="#fff" d="M78 172.56h23v23H78z" />
        </clipPath>
        <filter
            id="d"
            width="1819"
            height="1179"
            x="-16"
            y="-103"
            color-interpolation-filters="sRGB"
            filterUnits="userSpaceOnUse"
        >
            <feFlood flood-opacity="0" result="BackgroundImageFix" />
            <feGaussianBlur in="BackgroundImageFix" stdDeviation="32.5" />
            <feComposite in2="SourceAlpha" operator="in" result="effect1_backgroundBlur_3920_75329" />
            <feColorMatrix in="SourceAlpha" result="hardAlpha" values="0 0 0 0 0 0 0 0 0 0 0 0 0 0 0 0 0 0 127 0" />
            <feOffset dy="20" />
            <feGaussianBlur stdDeviation="25" />
            <feColorMatrix values="0 0 0 0 0 0 0 0 0 0 0 0 0 0 0 0 0 0 0.2 0" />
            <feBlend in2="effect1_backgroundBlur_3920_75329" result="effect2_dropShadow_3920_75329" />
            <feColorMatrix in="SourceAlpha" result="hardAlpha" values="0 0 0 0 0 0 0 0 0 0 0 0 0 0 0 0 0 0 127 0" />
            <feOffset />
            <feGaussianBlur stdDeviation="15" />
            <feColorMatrix values="0 0 0 0 0 0 0 0 0 0 0 0 0 0 0 0 0 0 0.14 0" />
            <feBlend in2="effect2_dropShadow_3920_75329" result="effect3_dropShadow_3920_75329" />
            <feBlend in="SourceGraphic" in2="effect3_dropShadow_3920_75329" result="shape" />
            <feColorMatrix in="SourceAlpha" result="hardAlpha" values="0 0 0 0 0 0 0 0 0 0 0 0 0 0 0 0 0 0 127 0" />
            <feOffset dx="2" dy="2" />
            <feComposite in2="hardAlpha" k2="-1" k3="1" operator="arithmetic" />
            <feColorMatrix values="0 0 0 0 0 0 0 0 0 0 0 0 0 0 0 0 0 0 0.1 0" />
            <feBlend in2="shape" result="effect4_innerShadow_3920_75329" />
        </filter>
        <filter
            id="e"
            width="1679"
            height="1034"
            x="54"
            y="-29"
            color-interpolation-filters="sRGB"
            filterUnits="userSpaceOnUse"
        >
            <feFlood flood-opacity="0" result="BackgroundImageFix" />
            <feColorMatrix in="SourceAlpha" result="hardAlpha" values="0 0 0 0 0 0 0 0 0 0 0 0 0 0 0 0 0 0 127 0" />
            <feOffset dy="4" />
            <feGaussianBlur stdDeviation="2" />
            <feComposite in2="hardAlpha" operator="out" />
            <feColorMatrix values="0 0 0 0 0 0 0 0 0 0 0 0 0 0 0 0 0 0 0.25 0" />
            <feBlend in2="BackgroundImageFix" result="effect1_dropShadow_3920_75329" />
            <feBlend in="SourceGraphic" in2="effect1_dropShadow_3920_75329" result="shape" />
        </filter>
        <filter
            id="f"
            width="675.18"
            height="460.25"
            x="49.41"
            y="-19.79"
            color-interpolation-filters="sRGB"
            filterUnits="userSpaceOnUse"
        >
            <feFlood flood-opacity="0" result="BackgroundImageFix" />
            <feColorMatrix in="SourceAlpha" result="hardAlpha" values="0 0 0 0 0 0 0 0 0 0 0 0 0 0 0 0 0 0 127 0" />
            <feOffset dy="4.79" />
            <feGaussianBlur stdDeviation="4.79" />
            <feColorMatrix values="0 0 0 0 0.290196 0 0 0 0 0.176471 0 0 0 0 0.772549 0 0 0 0.1 0" />
            <feBlend in2="BackgroundImageFix" result="effect1_dropShadow_3920_75329" />
            <feBlend in="SourceGraphic" in2="effect1_dropShadow_3920_75329" result="shape" />
        </filter>
        <filter
            id="h"
            width="783.25"
            height="533.92"
            x="47.88"
            y="-82.4"
            color-interpolation-filters="sRGB"
            filterUnits="userSpaceOnUse"
        >
            <feFlood flood-opacity="0" result="BackgroundImageFix" />
            <feColorMatrix in="SourceAlpha" result="hardAlpha" values="0 0 0 0 0 0 0 0 0 0 0 0 0 0 0 0 0 0 127 0" />
            <feOffset dy="5.56" />
            <feGaussianBlur stdDeviation="5.56" />
            <feColorMatrix values="0 0 0 0 0.290196 0 0 0 0 0.176471 0 0 0 0 0.772549 0 0 0 0.1 0" />
            <feBlend in2="BackgroundImageFix" result="effect1_dropShadow_3920_75329" />
            <feBlend in="SourceGraphic" in2="effect1_dropShadow_3920_75329" result="shape" />
        </filter>
        <filter
            id="F"
            width="274"
            height="181.11"
            x="47"
            y="21"
            color-interpolation-filters="sRGB"
            filterUnits="userSpaceOnUse"
        >
            <feFlood flood-opacity="0" result="BackgroundImageFix" />
            <feColorMatrix in="SourceAlpha" result="hardAlpha" values="0 0 0 0 0 0 0 0 0 0 0 0 0 0 0 0 0 0 127 0" />
            <feOffset dy="8" />
            <feGaussianBlur stdDeviation="12" />
            <feColorMatrix values="0 0 0 0 0 0 0 0 0 0 0 0 0 0 0 0 0 0 0.16 0" />
            <feBlend in2="BackgroundImageFix" result="effect1_dropShadow_3920_75329" />
            <feBlend in="SourceGraphic" in2="effect1_dropShadow_3920_75329" result="shape" />
        </filter>
        <filter
            id="J"
            width="312.68"
            height="181.26"
            x="28.66"
            y="35.31"
            color-interpolation-filters="sRGB"
            filterUnits="userSpaceOnUse"
        >
            <feFlood flood-opacity="0" result="BackgroundImageFix" />
            <feColorMatrix in="SourceAlpha" result="hardAlpha" values="0 0 0 0 0 0 0 0 0 0 0 0 0 0 0 0 0 0 127 0" />
            <feOffset dy="-5.58" />
            <feGaussianBlur stdDeviation="6.04" />
            <feColorMatrix values="0 0 0 0 0 0 0 0 0 0 0 0 0 0 0 0 0 0 0.11 0" />
            <feBlend in2="BackgroundImageFix" result="effect1_dropShadow_3920_75329" />
            <feColorMatrix in="SourceAlpha" result="hardAlpha" values="0 0 0 0 0 0 0 0 0 0 0 0 0 0 0 0 0 0 127 0" />
            <feOffset dy="-21.39" />
            <feGaussianBlur stdDeviation="10.69" />
            <feColorMatrix values="0 0 0 0 0 0 0 0 0 0 0 0 0 0 0 0 0 0 0.1 0" />
            <feBlend in2="effect1_dropShadow_3920_75329" result="effect2_dropShadow_3920_75329" />
            <feColorMatrix in="SourceAlpha" result="hardAlpha" values="0 0 0 0 0 0 0 0 0 0 0 0 0 0 0 0 0 0 127 0" />
            <feOffset dy="-49.29" />
            <feGaussianBlur stdDeviation="14.88" />
            <feColorMatrix values="0 0 0 0 0 0 0 0 0 0 0 0 0 0 0 0 0 0 0.06 0" />
            <feBlend in2="effect2_dropShadow_3920_75329" result="effect3_dropShadow_3920_75329" />
            <feColorMatrix in="SourceAlpha" result="hardAlpha" values="0 0 0 0 0 0 0 0 0 0 0 0 0 0 0 0 0 0 127 0" />
            <feOffset dy="-87.41" />
            <feGaussianBlur stdDeviation="17.67" />
            <feColorMatrix values="0 0 0 0 0 0 0 0 0 0 0 0 0 0 0 0 0 0 0.02 0" />
            <feBlend in2="effect3_dropShadow_3920_75329" result="effect4_dropShadow_3920_75329" />
            <feBlend in="SourceGraphic" in2="effect4_dropShadow_3920_75329" result="shape" />
        </filter>
        <filter
            id="K"
            width="19.16"
            height="21.92"
            x="267.62"
            y="173.91"
            color-interpolation-filters="sRGB"
            filterUnits="userSpaceOnUse"
        >
            <feFlood flood-opacity="0" result="BackgroundImageFix" />
            <feColorMatrix in="SourceAlpha" result="hardAlpha" values="0 0 0 0 0 0 0 0 0 0 0 0 0 0 0 0 0 0 127 0" />
            <feOffset dy=".88" />
            <feGaussianBlur stdDeviation="1.32" />
            <feColorMatrix values="0 0 0 0 0 0 0 0 0 0 0 0 0 0 0 0 0 0 0.2 0" />
            <feBlend in2="BackgroundImageFix" result="effect1_dropShadow_3920_75329" />
            <feBlend in="SourceGraphic" in2="effect1_dropShadow_3920_75329" result="shape" />
        </filter>
        <radialGradient
            id="p"
            cx="0"
            cy="0"
            r="1"
            gradientTransform="rotate(-53.15 288.25 -309.95) scale(27.1406)"
            gradientUnits="userSpaceOnUse"
        >
            <stop stop-color="#6D4AFF" />
            <stop offset="1" stop-color="#34B8EE" />
        </radialGradient>
        <radialGradient
            id="u"
            cx="0"
            cy="0"
            r="1"
            gradientTransform="rotate(-53.15 330.23 -288.95) scale(27.1406)"
            gradientUnits="userSpaceOnUse"
        >
            <stop stop-color="#6D4AFF" />
            <stop offset="1" stop-color="#34B8EE" />
        </radialGradient>
        <radialGradient
            id="z"
            cx="0"
            cy="0"
            r="1"
            gradientTransform="rotate(-53.15 372.21 -267.95) scale(27.1406)"
            gradientUnits="userSpaceOnUse"
        >
            <stop stop-color="#6D4AFF" />
            <stop offset="1" stop-color="#34B8EE" />
        </radialGradient>
        <radialGradient
            id="E"
            cx="0"
            cy="0"
            r="1"
            gradientTransform="rotate(-53.15 415.2 -246.45) scale(27.1406)"
            gradientUnits="userSpaceOnUse"
        >
            <stop stop-color="#6D4AFF" />
            <stop offset="1" stop-color="#34B8EE" />
        </radialGradient>
        <radialGradient
            id="P"
            cx="0"
            cy="0"
            r="1"
            gradientTransform="rotate(-53.15 238.27 23.7) scale(27.1406)"
            gradientUnits="userSpaceOnUse"
        >
            <stop stop-color="#6D4AFF" />
            <stop offset="1" stop-color="#34B8EE" />
        </radialGradient>
        <linearGradient id="H" x1="89.5" x2="99.44" y1="120.48" y2="269.89" gradientUnits="userSpaceOnUse">
            <stop stop-color="#34B8EE" />
            <stop offset="1" stop-color="#C4B6FF" stop-opacity="0" />
        </linearGradient>
        <linearGradient id="I" x1="89.5" x2="98.93" y1="138.12" y2="279.86" gradientUnits="userSpaceOnUse">
            <stop stop-color="#34B8EE" />
            <stop offset="1" stop-color="#C4B6FF" stop-opacity="0" />
        </linearGradient>
        <pattern id="c" width="1" height="1" patternContentUnits="objectBoundingBox">
            <use xlink:href="#P" transform="matrix(.00058 0 0 .0009 -.08 0)" />
        </pattern>
    </defs>
</svg>
