<svg xmlns="http://www.w3.org/2000/svg" width="278" height="194" fill="none" viewBox="0 0 278 194">
    <rect width="12" height="12" x="219" y="73" fill="#fff" rx="3" />
    <path fill="url(#paint0_linear_5741_18639)" d="M233 58H19a8 8 0 00-8 8v106h230V66a8 8 0 00-8-8z" />
    <path fill="#D1CFCD" d="M172 73H87a3 3 0 00-3 3v6a3 3 0 003 3h85a3 3 0 003-3v-6a3 3 0 00-3-3z" opacity=".42" />
    <path fill="#FAF9F7" d="M241 97H84v75h157V97z" />
    <path
        fill="#D1CFCD"
        d="M59 97H22a3 3 0 00-3 3v6a3 3 0 003 3h37a3 3 0 003-3v-6a3 3 0 00-3-3zM47.782 128.561H20.846c-.861 0-1.573-.905-1.573-2 0-1.096.712-2 1.573-2h26.936c.862 0 1.573.904 1.573 2 0 1.095-.711 2-1.572 2zM37.19 140.074H20.846c-.861 0-1.573-.905-1.573-2s.712-2 1.573-2H37.19c.861 0 1.572.905 1.572 2 .038 1.095-.673 2-1.572 2zM44.983 163.453H20.846c-.861 0-1.573-.905-1.573-2s.712-2 1.573-2h24.137c.861 0 1.573.905 1.573 2 .037 1.095-.674 2-1.573 2zM50.782 151.762H20.846c-.861 0-1.573-.905-1.573-2 0-1.096.712-2 1.573-2h29.936c.862 0 1.573.904 1.573 2 0 1.095-.711 2-1.572 2z"
        opacity=".42"
    />
    <rect width="11.851" height="11.851" x="96" y="111" fill="#EAE8E5" rx="2.222" />
    <path
        fill="#EAE8E5"
        d="M112 112.481a1.48 1.48 0 011.481-1.481h51.038a1.48 1.48 0 011.481 1.481v1.038a1.48 1.48 0 01-1.481 1.481h-51.038a1.48 1.48 0 01-1.481-1.481v-1.038zM112 120.481a1.48 1.48 0 011.481-1.481h56.038a1.48 1.48 0 011.481 1.481v1.038a1.48 1.48 0 01-1.481 1.481h-56.038a1.48 1.48 0 01-1.481-1.481v-1.038z"
    />
    <rect width="11.851" height="11.851" x="96" y="139" fill="#EAE8E5" rx="2.222" />
    <path
        fill="#EAE8E5"
        d="M112 140.481a1.48 1.48 0 011.481-1.481h56.038a1.48 1.48 0 011.481 1.481v1.038a1.48 1.48 0 01-1.481 1.481h-56.038a1.48 1.48 0 01-1.481-1.481v-1.038zM112 148.481a1.48 1.48 0 011.481-1.481h63.038a1.48 1.48 0 011.481 1.481v1.038a1.48 1.48 0 01-1.481 1.481h-63.038a1.48 1.48 0 01-1.481-1.481v-1.038z"
    />
    <circle cx="210.5" cy="78.5" r="55.5" fill="url(#paint1_linear_5741_18639)" opacity=".2" />
    <circle cx="210" cy="79" r="29" fill="url(#paint2_linear_5741_18639)" />
    <path
        fill="#fff"
        fill-rule="evenodd"
        d="M207.801 67h4.416l.929 2.95c.356.125.703.271 1.042.436l2.738-1.426 3.13 3.133-1.425 2.74c.165.34.311.686.436 1.044l2.933.93v4.42l-2.949.915c-.125.356-.27.702-.435 1.041l1.425 2.74-3.131 3.132-2.737-1.426a9.98 9.98 0 01-1.043.436L212.199 91h-4.414l-.929-2.934a9.906 9.906 0 01-1.044-.437l-2.738 1.426-3.13-3.132 1.425-2.74a9.833 9.833 0 01-.436-1.045l-2.933-.93v-4.416l2.933-.93c.125-.358.271-.705.436-1.045l-1.427-2.742 3.149-3.13 2.736 1.426a9.98 9.98 0 011.043-.436l.931-2.935zm1.254 1.714l-.821 2.59-.433.13a8.285 8.285 0 00-1.569.655l-.399.217-2.423-1.261-1.364 1.358 1.258 2.418-.216.4a8.228 8.228 0 00-.657 1.57l-.13.435-2.587.82v1.908l2.587.82.13.434c.163.544.381 1.062.657 1.57l.216.4-1.26 2.421 1.354 1.355 2.419-1.26.4.217a8.294 8.294 0 001.57.655l.434.13.819 2.59h1.905l.821-2.59.433-.13a8.285 8.285 0 001.569-.655l.399-.217 2.419 1.26 1.355-1.355-1.259-2.42.216-.4a8.285 8.285 0 00.655-1.57l.13-.438 2.603-.806V78.06l-2.587-.82-.13-.434a8.225 8.225 0 00-.657-1.57l-.216-.4 1.26-2.421-1.354-1.355-2.419 1.26-.4-.216a8.3 8.3 0 00-1.57-.656l-.434-.13-.821-2.605h-1.903zm.938 6.535A3.749 3.749 0 00206.246 79a3.749 3.749 0 107.495 0 3.75 3.75 0 00-3.748-3.75zM204.531 79a5.463 5.463 0 015.462-5.465A5.463 5.463 0 01215.455 79a5.463 5.463 0 01-5.462 5.465A5.463 5.463 0 01204.531 79z"
        clip-rule="evenodd"
    />
    <defs>
        <linearGradient
            id="paint0_linear_5741_18639"
            x1="126"
            x2="126"
            y1="49.5"
            y2="138.5"
            gradientUnits="userSpaceOnUse"
        >
            <stop stop-color="#EAE8E5" />
            <stop offset="1" stop-color="#F5F4F2" />
        </linearGradient>
        <linearGradient id="paint1_linear_5741_18639" x1="239" x2="173" y1="121" y2="33" gradientUnits="userSpaceOnUse">
            <stop stop-color="#6D4AFF" />
            <stop offset="1" stop-color="#C54AFF" stop-opacity=".2" />
        </linearGradient>
        <linearGradient
            id="paint2_linear_5741_18639"
            x1="212.788"
            x2="228.962"
            y1="30.481"
            y2="104.654"
            gradientUnits="userSpaceOnUse"
        >
            <stop stop-color="#ECAAFF" />
            <stop offset="1" stop-color="#6A48F6" />
        </linearGradient>
    </defs>
</svg>
