<svg width="360" height="192" fill="none" xmlns="http://www.w3.org/2000/svg">
    <g clip-path="url(#a)">
        <path fill="url(#b)" d="M0 0h360v192H0z" />
        <mask id="c" style="mask-type: alpha" maskUnits="userSpaceOnUse" x="72" y="34" width="221" height="221">
            <path
                d="M182.451 254.579c60.859 0 110.195-49.336 110.195-110.195 0-60.859-49.336-110.194-110.195-110.194-60.859 0-110.195 49.335-110.195 110.194s49.336 110.195 110.195 110.195Z"
                fill="#F2F2F2"
            />
        </mask>
        <g mask="url(#c)">
            <path
                d="M182.451 254.579c60.859 0 110.195-49.336 110.195-110.195 0-60.859-49.336-110.194-110.195-110.194-60.859 0-110.195 49.335-110.195 110.194s49.336 110.195 110.195 110.195Z"
                fill="#fff"
                fill-opacity=".2"
            />
            <path
                d="M73.114 260.799c-1.832-.684-2.344-1.353-1.91-2.495.203-.53.59-.962.861-.962.272 0 1.461.623 2.643 1.385 1.181.763 2.626 1.56 3.21 1.771l1.063.385-1.307.029c-.719.015-1.774.096-2.344.178-.57.083-1.567-.048-2.216-.291Zm-4.157-3.511c-.345-.193-.92-.257-1.278-.144-.451.143-.799-.07-1.133-.692-.264-.494-.739-.986-1.054-1.095-.724-.248-2.24-2.7-3.084-4.986-.427-1.154-1-1.953-1.68-2.339-1.208-.685-1.295-.996-.36-1.292 1.07-.339 1.268-2.221.368-3.482-.43-.602-.655-1.309-.526-1.646.153-.397-.269-1.094-1.29-2.132-1.288-1.31-1.526-1.787-1.584-3.167-.037-.894-.255-1.851-.485-2.126-.288-.347-.347-1.593-.191-4.057.169-2.67.07-4.318-.395-6.614-.692-3.411-1.045-9.766-.865-15.564.038-1.237-.122-2.935-.357-3.774-.572-2.042-3.201-4.62-6.45-6.324-2.325-1.219-2.652-1.532-3.56-3.404-.55-1.134-1.602-2.828-2.337-3.766-.735-.937-1.535-2.313-1.776-3.058-.767-2.365-2.12-4.741-3.042-5.344-.49-.321-1.05-1.155-1.243-1.854-.313-1.13-.23-1.446.748-2.866 1.062-1.54 1.075-1.603.357-1.79-1.763-.46-1.021-2.812 2.143-6.797 2.104-2.649 2.72-4.667 2.137-6.998-.222-.888-.42-1.818-.442-2.065-.02-.247-.179-.45-.351-.45s-.14-.324.074-.721c.328-.611.245-.786-.543-1.144-1.148-.522-2.882-.006-2.888.86-.008 1.038-.466 1.115-1.974.33-.809-.42-1.648-.764-1.865-.764-.218 0-1.065-.575-1.883-1.278a98.68 98.68 0 0 0-1.936-1.633c-.248-.196-.451-.73-.451-1.186 0-.456-.318-1.117-.708-1.469-.389-.351-.893-1.201-1.12-1.888-.299-.903-.523-1.14-.807-.856-.594.593-1.474.48-3.609-.462-1.116-.492-2.278-1.334-2.743-1.985-.443-.621-1.29-1.379-1.882-1.685-.977-.504-1.221-.5-2.644.042l-1.568.598-4.81-2.326c-2.958-1.431-5.254-2.796-5.966-3.546-1.102-1.164-1.138-1.29-.771-2.733.336-1.322.279-1.73-.452-3.238-.46-.948-1.466-2.406-2.235-3.238-.768-.833-1.31-1.655-1.203-1.827.106-.172-.435-1.334-1.204-2.581-.873-1.417-1.49-2.935-1.642-4.046-.196-1.423-.425-1.859-1.149-2.188-.767-.349-.982-.305-1.421.294-.619.844-.443 1.735.925 4.685.556 1.199 1.13 2.977 1.277 3.95.146.973.578 2.381.96 3.128.904 1.769.32 1.738-1.106-.059-.84-1.06-1.068-1.641-.9-2.306.178-.71.002-1.051-.872-1.696-1.326-.979-1.606-1.61-1.12-2.518.285-.529.154-1.11-.567-2.53-.732-1.443-.886-2.142-.704-3.213.296-1.751-.491-3.336-1.959-3.942-.847-.351-1.139-.742-1.312-1.76a37.265 37.265 0 0 0-.52-2.476c-.17-.668-.157-1.253.03-1.369.18-.11.062-.604-.262-1.097-.476-.725-.509-1.069-.171-1.807.229-.502.315-1.075.192-1.274-.124-.199.184-.794.683-1.323.499-.528 1.163-1.581 1.476-2.341.313-.759 1.278-2.167 2.143-3.128.866-.96 1.964-2.644 2.44-3.74.66-1.523 1.047-1.996 1.636-2 .424-.004.749.196.721.443-.115 1.031.702.713 1.62-.63.54-.791.832-1.493.648-1.56-.184-.065-.335-.363-.335-.66 0-.299-.746-1.267-1.658-2.152-1.514-1.467-1.61-1.662-1.108-2.217.408-.45.456-.78.184-1.264-.478-.852.276-2.76 1.094-2.768.337-.003.434-.118.226-.27-.465-.34-.675-1.115-.61-2.243.104-1.802-.29-2.556-1.633-3.116-.724-.302-1.83-.939-2.455-1.415-.627-.477-1.421-.867-1.766-.867s-1.913-.328-3.484-.728c-2.526-.644-2.971-.669-3.846-.22-1.814.932-3.735 1.312-4.518.893-.588-.314-1.229-.12-3.464 1.047-1.51.788-3.312 1.555-4.006 1.704-.694.15-2.022.654-2.952 1.121-2.636 1.326-6.413 2.662-7.458 2.64-.674-.016-.218-.31 1.576-1.02 3.048-1.207 6.181-2.778 6.47-3.246.358-.576-.417-.783-1.348-.36-.685.311-1.107.282-1.898-.131l-1.016-.532 1.106-.57c1.25-.646 1.643-1.376 1.356-2.518-.278-1.106 1.256-1.92 4.56-2.417 1.776-.267 3.126-.712 4.035-1.33 1.603-1.088 1.327-1.91-.4-1.197-.819.339-1.414.342-2.626.017-1.472-.396-1.524-.452-.866-.933 1.102-.804 3.38-1.288 4.878-1.035.947.16 1.723.048 2.52-.363l1.15-.594-.757-.805c-.417-.443-.757-.9-.757-1.016 0-.334 2.17-1.002 3.256-1.002.541 0 2.027-.391 3.3-.87 1.274-.478 4.212-1.131 6.53-1.45 3.758-.52 4.554-.526 7.373-.06 1.737.288 4.133.631 5.323.763 1.19.131 3.296.55 4.68.928 3.215.88 5.31.87 8.9-.046 1.587-.404 3.19-.638 3.563-.52.373.119 1.008.04 1.41-.175.555-.296.984-.26 1.775.148.715.368 1.597.474 2.798.334 1.267-.148 2.377.005 3.997.551 1.233.416 2.603.757 3.043.757.781 0 .784.013.102.514-.669.491-.67.525-.043.768.362.14 1.617.154 2.789.032 2.117-.22 2.135-.214 2.725.925l.595 1.147.77-.966c.444-.555 1.498-1.183 2.478-1.477 1.48-.445 1.93-.444 3.418.01 1.05.322 2.307.439 3.248.303 1.199-.173 1.755-.065 2.537.49.987.702 1.015.702 1.89.025.489-.378 1.495-.855 2.235-1.061 1.772-.493 2.373-1.543 1.309-2.287-.753-.526-.72-.566 1.259-1.535 1.475-.722 2.14-.886 2.428-.6.287.288.284.604-.011 1.154-.504.94.123 2.358.908 2.058.283-.109.75-.106 1.04.005.456.174.45.322-.053 1.087-1.386 2.111 1.722 1.513 3.826-.737.856-.915 2.181-1.192 3.424-.716.802.307.727.559-.602 2.013-1.583 1.732-2.394 2.087-4.772 2.087-1.15 0-2.506.248-3.139.575-.875.451-1.302.489-1.992.175-1.287-.585-1.735-.098-.812.882l.788.838-1.572.445c-.865.245-2.302.469-3.195.498-1.294.042-1.623.182-1.625.692-.002.437-.631.897-1.983 1.449-4.38 1.787-8.097 5.008-6.751 5.853.252.158.652.729.889 1.267.273.621.799 1.054 1.435 1.18.552.111 1.977.68 3.167 1.264 1.19.585 2.65 1.17 3.245 1.3 1.639.355 1.653.393.89 2.324-.653 1.653-.666 1.889-.16 2.865.303.585.75 1.058.992 1.05 1.182-.034 2.29-1.122 2.978-2.924.656-1.718.955-2.039 2.839-3.043 2.779-1.481 3.935-2.94 3.627-4.578-.201-1.068-.097-1.318.819-1.969.576-.41 1.34-1.39 1.697-2.18.797-1.763 2.077-2.375 4.237-2.023 1.915.313 4.18 1.527 4.454 2.387.112.353.02.987-.207 1.409-.343.64-.278.909.388 1.616l.799.85 1.305-.676a22.323 22.323 0 0 0 2.556-1.61l1.252-.934.294.793c.162.436.208 1.018.102 1.293-.106.274-.024.813.182 1.198.232.432.25.92.048 1.281-.229.408-.076 1.026.504 2.046.832 1.46.832 1.462.102 1.972-.961.671-.345 1.384.71.82 1.047-.559 2.246-.486 2.985.182 1.093.987.184 2.167-2.717 3.53-3.155 1.48-4.561 1.774-8.68 1.81-3.04.027-3.443.124-6.4 1.539-1.735.83-3.155 1.652-3.155 1.826 0 .742.547.678 2.644-.313 1.237-.583 2.83-1.05 3.589-1.05 1.296 0 1.343.04.938.795a5.321 5.321 0 0 1-1.123 1.358c-.604.488-.639.693-.261 1.52.566 1.24 2.044 1.837 3.813 1.539l1.398-.235-1.075.74c-.591.407-1.565.845-2.164.974-.598.13-1.83.607-2.735 1.063-.919.462-1.842.706-2.09.553-.57-.352.032-.88 1.886-1.653 1.649-.688 1.385-1.418-.392-1.085-.692.13-2.937.973-4.988 1.875-3.201 1.407-3.76 1.779-3.946 2.625-.23 1.041-1.01 1.534-3.759 2.368-.877.266-2.012.909-2.524 1.429s-1.491 1.299-2.177 1.731c-.686.431-1.342 1.187-1.459 1.68-.192.812-.237.831-.478.206-.451-1.172-1.131-.027-1.17 1.971-.04 2.047-1.08 3.444-3.36 4.513-2.338 1.096-5.665 3.687-6.34 4.936-.595 1.103-.62 1.532-.253 4.367.342 2.644.322 3.308-.128 4.176-.336.649-.729.959-1.055.834-.774-.296-1.72-3.473-1.455-4.884.184-.98.062-1.352-.67-2.038-.59-.553-1.134-.763-1.596-.616-.387.122-1.479-.11-2.429-.516-1.455-.623-1.92-.675-2.958-.333-.705.232-1.404.782-1.634 1.284-.34.747-.566.843-1.508.641a10.277 10.277 0 0 1-2.081-.734c-1.32-.673-2.058-.626-3.54.224a95.641 95.641 0 0 1-3.133 1.687c-1.187.61-2.002 1.305-2.215 1.888-.186.507-.851 2.485-1.478 4.394l-1.14 3.473.583 2.241c1.069 4.118 2.556 5.35 5.656 4.687 2.337-.5 3.74-1.513 4.256-3.073.328-.991.681-1.318 1.739-1.612 1.592-.441 2.257-.457 2.868-.07.505.32.327.846-1.932 5.727-1.55 3.349-1.439 3.649 1.217 3.267 2.42-.349 4.632-.081 4.89.591.1.262-.063 2.029-.364 3.927-.538 3.396-.535 3.472.24 4.724.434.699 1.246 1.508 1.806 1.797.893.461 1.173.46 2.297-.009 1.786-.745 2.756-.666 3.996.325.992.791 1.132.814 1.912.304.462-.302 1.094-1.052 1.402-1.666.697-1.384 1.87-2.357 2.855-2.367.412-.005 1.13-.413 1.595-.908.946-1.005 2.612-1.332 1.798-.353-.683.821-1.074 3.463-.634 4.285.367.683.397.679 1.064-.143.475-.585.57-.961.31-1.22-.618-.618-.432-1.132.72-1.982 1.197-.883 2.123-.792 3.155.309.757.807 4.8 1.898 5.958 1.608 1.764-.442 6.53 2.451 8.321 5.05.853 1.237 3.577 2.483 4.775 2.183 2.465-.618 5.843 1.846 6.633 4.837.236.89.59 1.72.788 1.843.527.327-.261 1.62-1.984 3.255-1.1 1.045-1.364 1.495-1.054 1.804.31.309.819.038 2.04-1.086 1.778-1.635 2.371-1.801 3.262-.913.542.541.525.651-.218 1.44-.442.47-1.06.864-1.372.877-.329.013-.196.171.317.375.705.281 1.072.202 1.803-.388 1.904-1.535 2.351-1.609 4.043-.666 1.099.613 1.54 1.08 1.484 1.573-.154 1.373.17 1.677 1.123 1.053.758-.495 1.278-.519 3.813-.172 2.697.368 3.05.515 4.343 1.806.961.959 2.041 1.589 3.399 1.983 1.822.528 2.02.69 2.35 1.914.479 1.776-.082 3.747-1.6 5.619-.649.8-1.444 1.973-1.767 2.609-.323.635-1.01 1.576-1.527 2.092-.874.873-.923 1.091-.705 3.163.426 4.049-1.559 11.602-3.473 13.217-.623.526-1.156.65-2.144.497-.812-.125-1.414-.045-1.572.212-.142.228-.93.71-1.75 1.07-.821.36-2.044 1.124-2.716 1.698-1.165.993-1.204 1.103-.812 2.288.452 1.366.147 2.984-.821 4.364-.313.446-.57 1.205-.57 1.687 0 .481-.376 1.377-.836 1.989-.46.612-1.347 2.014-1.97 3.115-1.537 2.709-2.46 3.179-4.687 2.382-1.933-.691-2.964-.774-2.964-.237 0 .202.386.542.856.756.471.214 1.205 1.086 1.631 1.937.634 1.268.702 1.708.371 2.432-.512 1.122-2.47 2.064-4.291 2.064-1.612 0-2.012.393-1.455 1.432.343.641.112 1.672-.553 2.463-.053.064-.618-.152-1.254-.481-1.519-.783-2.057-.284-1.289 1.197.312.602.906 1.203 1.32 1.333.71.225.717.275.14.912-.337.371-.511.934-.389 1.253.132.342-.162 1.082-.72 1.812-.906 1.185-.918 1.267-.338 2.152.333.506.85 1.014 1.152 1.13 1.086.416 1.266 1.837.438 3.456-.83 1.623-.957 3.25-.315 4.022.584.702-1.38 2.069-2.263 1.576ZM42.382 101.433c.963-2.01 2.756-3.505 4.2-3.505 1.039 0 1.051.168.1 1.375l-.749.949.768.621c.619.499.938.543 1.643.222.481-.219.974-.711 1.096-1.093.166-.52.435-.642 1.07-.483.587.147.955.02 1.197-.41.733-1.307-1.132-2.978-2.504-2.245-.982.525-2.266-.519-1.992-1.62.102-.407-.107-1.117-.468-1.594-.746-.981-1.88-1.085-4.361-.397-.893.247-1.91.438-2.262.425-.351-.014-.544.127-.43.313.116.186.079.342-.082.346-.16.004-.695.318-1.189.696l-.897.688 1.008.382c.787.3 1.252.257 2.127-.195 1.028-.53 1.219-.53 2.34.004.677.322 1.6.487 2.067.37.465-.117.944-.051 1.066.145.124.2-.384.46-1.16.59-2.11.356-3.207 1.233-4.737 3.789-1.279 2.136-1.352 2.393-.843 2.958.5.554.638.562 1.324.084.422-.294 1.172-1.381 1.668-2.415Zm6.55 2.221c1.285-.653 1.408-.817.956-1.269-.453-.451-.739-.422-2.21.228-1.728.763-2.276 1.792-.955 1.792.405 0 1.399-.338 2.21-.751Zm6.395-2.719c.75-.525.778-.628.249-.924-.78-.435-3.098.315-3.098 1.003 0 .709 1.792.659 2.849-.079Zm27.08 155.399c0-.158.195-.482.433-.72.238-.237.296-.432.13-.432-.167 0-.498.266-.736.591-.341.466-.577.506-1.121.19-.39-.225-.484-.404-.217-.41.26-.006.371-.173.249-.371-.236-.38.383-.483 2.163-.362 1.59.108 1.749.34.767 1.111-.915.718-1.668.9-1.668.403Zm301.139-9.031c-1.032-.653 1.117-2.093 6.443-4.32 1.487-.622 3.754-1.922 5.037-2.89 2.181-1.646 2.362-1.717 2.794-1.101.656.935.27 1.612-1.333 2.333-.766.345-1.729 1.013-2.14 1.484-.411.472-1.073.858-1.47.858s-1.331.546-2.076 1.212c-2.547 2.282-5.774 3.36-7.255 2.424Zm-25.236-4.675c-.375-.237-.396-.481-.09-1.05.219-.408.398-1.25.398-1.87 0-1.013.082-1.098.811-.842.446.156 1.379.306 2.073.332.695.025 1.388.07 1.541.099.598.112-.999 1.926-2.435 2.766-1.709.999-1.638.982-2.298.565Zm41.667-3.147c-.125-.125.172-.541.661-.925.735-.577.821-.821.5-1.421-.466-.868.226-1.8 1.827-2.462 1.24-.513 1.553-1.553 1.22-4.065-.229-1.728-.201-1.835.357-1.375.438.362.546.817.39 1.648-.171.91-.018 1.384.743 2.286.823.975 1.067 1.081 1.706.739.638-.34.712-.309.512.213-.13.336-.235.674-.235.752 0 .078-.528.411-1.172.74-.645.33-1.902 1.201-2.795 1.936-1.451 1.196-2.944 2.162-3.342 2.162-.079 0-.246-.103-.372-.228Zm-38.13-4.647c-.76-.807-.9-.838-1.63-.361-.929.608-2.676.253-4.076-.829-.747-.577-.799-.763-.414-1.481.329-.613.34-1.043.043-1.693-.219-.479-.398-1.187-.398-1.574 0-.871-.567-.913-1.036-.076-.194.345-.455.524-.581.398-.127-.126.291-.821.928-1.545 1.567-1.781.955-2.264-1.115-.881-.891.596-1.679 1.247-1.75 1.447-.07.2-.499-.417-.952-1.37-.491-1.034-1.34-2.073-2.103-2.575-1.146-.753-1.534-.815-3.735-.597-3.228.321-6.342 1.115-8.38 2.138-.927.465-2.735.941-4.129 1.087-1.365.142-3.534.655-4.822 1.139-1.969.739-2.53.817-3.528.489-1.338-.441-1.894-1.35-1.028-1.681.313-.12.882-.946 1.264-1.835.612-1.424.646-1.867.283-3.706-.3-1.522-.308-2.963-.031-5.305.21-1.769.29-3.564.179-3.99-.112-.426.062-1.468.387-2.316.572-1.495.711-1.592 4.579-3.227 2.194-.928 4.44-1.687 4.991-1.687 1.49 0 3.336-1.415 4.353-3.338.629-1.188 1.065-1.641 1.442-1.495 1.054.406 1.262.326 1.18-.453-.052-.501.164-.866.593-1.002.372-.117 1.058-.772 1.525-1.456.478-.699 1.461-1.487 2.251-1.803 1.316-.528 1.447-.52 2.163.13 1.321 1.198 2.257 1.548 2.705 1.01.217-.261.292-.578.166-.704-.413-.412 1.475-2.777 2.399-3.004.495-.122 1.513-.528 2.262-.902 1.167-.583 1.577-.622 2.884-.272 2.819.756 2.913.879 1.864 2.46-1.348 2.034-.99 2.829 2.317 5.152 1.527 1.073 2.969 1.887 3.204 1.809.235-.078.977-.9 1.65-1.825.917-1.262 1.273-2.179 1.42-3.663.209-2.107 1.219-5.038 1.736-5.038.171 0 .564.867.872 1.926.309 1.059.955 2.296 1.437 2.747 1.126 1.056 1.78 4.007 1.274 5.751-.335 1.155-.27 1.341.878 2.519.682.699 1.76 2.405 2.395 3.79.636 1.386 1.783 3.346 2.548 4.356l1.392 1.838-.396 2.838c-.287 2.059-.731 3.432-1.618 5-1.359 2.402-3.391 4.694-4.463 5.034-.385.122-1.277 1.023-1.983 2.003-.705.98-1.441 1.782-1.635 1.782-.194 0-1.019.841-1.833 1.869-1.358 1.714-1.608 1.871-3.023 1.897-1.085.021-1.917.315-2.808.993l-1.266.964-.831-.882Zm-175.83-7.566c-.764-.762-.891-1.152-.721-2.202.161-.988.008-1.568-.678-2.576-.487-.715-.886-1.477-.886-1.692 0-.215-.637-1.244-1.417-2.286-1.204-1.612-1.452-2.255-1.65-4.294-.351-3.596-1.502-7.489-3.048-10.311-.761-1.387-1.491-3.188-1.624-4.003-.281-1.732.424-4.311 2.033-7.435l1.071-2.078-.602-1.807c-.337-1.011-.501-2.208-.373-2.716.149-.595-.011-1.303-.466-2.052-.381-.629-.948-2.034-1.259-3.123-.416-1.454-.995-2.399-2.183-3.562-2.285-2.238-2.583-3.119-1.873-5.554 1.444-4.956-.116-7.847-3.927-7.277-1.484.222-1.54.195-1.75-.851-.161-.803-.597-1.275-1.691-1.832-1.422-.724-2.031-.727-3.777-.017-.397.161-2.02.72-3.606 1.241-2.386.785-3.102.886-4.141.585-.984-.284-1.812-.211-3.825.34-2.081.57-2.835.631-3.959.321-2.345-.646-6.374-4.27-6.948-6.249-.443-1.532-3.202-5.1-4.14-5.358-.597-.163-.67-.29-.305-.525.367-.236.303-.356-.27-.506-.912-.238-1.002-.981-.121-.989.539-.004.552-.056.09-.354-.341-.22-.378-.351-.102-.354.286-.004.177-.448-.314-1.279-.692-1.17-.706-1.324-.178-1.907 1.613-1.779 1.967-5.609.74-8.022-.585-1.152-.209-2.744 1.041-4.398.47-.623 1.389-2.139 2.041-3.369 1.14-2.15 3.683-5.141 4.371-5.141.762 0 3.219-2.636 3.219-3.453 0-1.845 1.105-3.684 2.907-4.838.968-.62 2.102-1.68 2.521-2.355.856-1.383.977-1.428 1.974-.734.391.272 1.363.604 2.16.737 1.215.203 1.796.057 3.606-.909 3.113-1.662 5.037-2.077 8.6-1.855 2.349.147 3.407.053 4.546-.402 1.677-.669 3.127-.273 2.735.748-.118.307-.046.76.16 1.008.259.312.257.758-.007 1.451-.331.87-.258 1.128.564 1.984.519.541 1.449 1.084 2.066 1.207 2.898.579 3.722.953 4.32 1.964.439.741 1.014 1.121 1.964 1.299.739.138 1.812.493 2.384.789.972.501 1.098.483 1.909-.277.545-.511.792-1.052.664-1.454-.112-.352-.026-.97.19-1.374.558-1.04 2.142-.938 4.615.298 2.695 1.346 7.804 2.307 9.616 1.807.871-.24 1.709-.243 2.472-.009 2.491.764 3.767.166 4.107-1.926.113-.694.306-1.263.429-1.263.233 0 .355-1.044.389-3.328.011-.743.187-1.35.391-1.35.242 0 .23-.26-.035-.756-.444-.827-1.343-.808-3.495.074-1.021.418-1.305.4-2.219-.139-1.186-.699-2.403-.804-2.754-.237-.261.421-2.104.126-3.104-.498-.719-.447-1.39-1.78-1.39-2.759 0-.375-.365-.939-.811-1.252-.691-.486-.731-.623-.271-.924.298-.194.91-.267 1.36-.161.575.135 1.103-.091 1.77-.756.627-.627 1.391-.972 2.246-1.018.712-.037 1.744-.364 2.293-.725 1.192-.783 3.897-.565 5.996.483 2.83 1.414 5.344 1.331 6.356-.21.526-.802.529-.97.029-1.731-.304-.464-1.766-1.531-3.248-2.373l-2.696-1.53.505-.975c.278-.536.414-1.065.303-1.176-.111-.111-.068-.415.095-.676.163-.26.328-.683.367-.938.082-.545-.499-.395-3.367.87-1.664.736-1.912.96-1.543 1.405.242.29.785.536 1.207.544.592.013.452.183-.613.743-1.293.68-1.437.69-2.278.14-.718-.47-.812-.688-.472-1.098.338-.407.288-.563-.246-.763-.369-.139-.846-.484-1.058-.767-1.033-1.373-4.31 2.24-5.263 5.805-.447 1.673-.432 1.76.41 2.393l.874.658-1.604.33c-.882.182-2.07.203-2.641.047-1.053-.287-2.388.146-2.388.775 0 .184-.245.241-.545.127-.3-.115-.776-.018-1.058.215-.438.363-.389.66.337 2.021.785 1.474.809 1.676.319 2.656-.613 1.228-1.184 1.137-2.052-.328-.604-1.022-.6-1.045.2-1.159 1.009-.143 1.074-.784.095-.94-2.234-.357-3.426-1.532-3.426-3.378 0-1.441-1.338-3.029-2.961-3.514-.843-.253-1.76-.782-2.038-1.177-.277-.395-1.088-.962-1.803-1.26-.714-.298-1.514-.848-1.777-1.223-.377-.537-.625-.602-1.178-.307-.385.206-.7.605-.7.888 0 .935 4.596 5.162 6.843 6.293 2.382 1.2 2.754 1.629 1.099 1.266-1.475-.323-1.877 0-1.373 1.106.355.776.297 1.012-.416 1.696l-.829.795.189-1.072c.299-1.702-1.949-4.146-3.813-4.146-.684 0-3.309-2.542-3.997-3.869-.735-1.419-1.553-1.693-2.712-.909-1.745 1.181-3.053 1.58-4.422 1.35-1.819-.307-2.963.326-2.673 1.478.151.602.067.87-.273.87-.27 0-.963.405-1.539.899-.577.495-1.172.9-1.324.9-.446.001-1.705 2.274-1.706 3.082-.001.772-1.412 2.294-2.772 2.992-.433.222-1.442.404-2.241.404-1.1 0-1.551.181-1.852.743-.395.737-.407.735-1.331-.187-.867-.865-1.367-1.082-3.116-1.352-.92-.142-1.075-2.218-.387-5.177.294-1.265.438-2.682.32-3.15-.341-1.358.728-2.159 2.518-1.885 4.131.633 6.548.668 7.115.103.778-.777 1.129-3.339.654-4.775-.31-.937-.736-1.32-2.007-1.805-1.87-.712-1.91-1.402-.081-1.42.696-.007 1.701-.297 2.233-.645.531-.347 1.119-.538 1.306-.422.51.314 2.44-.796 3.081-1.772.31-.472.92-.949 1.355-1.06.436-.11 1.604-.956 2.596-1.877 1.406-1.307 2.143-1.717 3.349-1.86 1.493-.179 2.995-1.404 2.29-1.87-.438-.289-.804-2.031-.56-2.666.115-.3.626-.819 1.134-1.151l.924-.605-.237 1.481c-.206 1.285-.154 1.467.398 1.375.349-.058 1.002-.308 1.451-.554.684-.375.852-.356 1.032.112.309.804-.55 1.749-1.143 1.258-.327-.272-.535-.262-.718.034-.189.305-.337.288-.554-.062-.162-.263-.378-.395-.48-.294-.101.1.188.647.641 1.215.765.957.91 1.002 2 .623.933-.324 1.381-.302 2.175.108.897.462 1.2.44 2.924-.213 1.51-.573 2.105-.646 2.774-.342.615.28 1.07.273 1.641-.021 1.622-.837 2.072-1.467 1.87-2.625-.298-1.716.248-2.278 1.688-1.735.98.369 1.266.354 1.709-.088.469-.468.428-.64-.34-1.457-.739-.785-.791-.98-.34-1.284.292-.196 1.387-.267 2.434-.156 1.915.202 4.302-.544 3.886-1.216-.364-.588-2.563-.758-4.425-.342-1.652.369-2.085.34-3.351-.23-1.966-.885-2.198-1.92-.849-3.796 1.736-2.414 2.053-3.184 1.559-3.778-.733-.88-1.452-.594-3.124 1.246-.884.973-2.089 1.967-2.677 2.21-.588.243-1.315.918-1.616 1.498-.491.947-.49 1.145.007 1.902.305.464.884.949 1.285 1.076 1.107.35.888 1.008-.694 2.088-.487.333-1.136 1.273-1.443 2.09-.384 1.023-.968 1.72-1.88 2.246-1.284.74-1.343.743-2.053.102-.401-.363-.828-1.103-.947-1.645s-.661-1.516-1.203-2.165l-.987-1.179-1.251.761c-.688.419-1.576.758-1.972.754-1.144-.01-2.469-1.244-2.558-2.381-.044-.565-.191-1.305-.327-1.644-.323-.806 1.292-2.317 2.97-2.78 1.684-.464 5.1-2.853 5.682-3.974.259-.498 1.136-1.502 1.949-2.23.813-.727 1.479-1.483 1.479-1.679 0-.196.771-.63 1.713-.966a93.64 93.64 0 0 0 3.515-1.35c1.218-.501 2.74-.766 4.688-.816 3.403-.086 5.629.364 7.466 1.51.921.576 1.649.772 2.345.633 1.245-.248 7.881 1.805 8.158 2.524.278.723-1.626 1.405-3.263 1.17a65.267 65.267 0 0 1-3.448-.641c-1.542-.33-2.188-.34-2.488-.04-.301.3-.151.52.577.852.541.246 1.218.9 1.505 1.453.73 1.408 3.068 2.557 4.274 2.1 1.159-.44 1.151-.58-.071-1.241-1.131-.613-.609-.745.811-.206 1.134.43 2.419-.105 2.12-.883-.14-.365.254-.628 1.365-.912 2.38-.609 2.554-.695 2.356-1.177-.746-1.821-.757-1.769.329-1.645.58.066 1.003.313.955.558-.047.241.254.62.671.843.626.335 1.12.216 2.841-.685 2.524-1.32 4.488-1.75 5.221-1.143.409.338 1.086.34 3.047.01 1.387-.233 2.679-.327 2.871-.208.193.119.457.044.587-.166.284-.459-.502-1.5-.932-1.234-.52.32-2.225-.254-1.854-.624.373-.373 10.408 1.96 11.009 2.56.405.404 1.687-.135 1.687-.71 0-.193-.716-.698-1.591-1.122-2.712-1.315-2.886-3.421-.335-4.06 1.48-.37 2.12.057 4.167 2.785 2.658 3.541 2.591 3.361 1.722 4.578-.643.901-.682 1.112-.235 1.283.845.324 2.654-.809 2.909-1.821.298-1.187-.259-2.198-1.589-2.884-1.046-.54-1.803-1.53-1.803-2.356 0-.282.392-.352 1.172-.21 1.169.213 2.136-.21 4.783-2.093.605-.43 1.628-.714 2.66-.737 2.094-.047 2.771-.398 2.169-1.122-.237-.284-.355-.592-.263-.683.461-.46 6.397-1.288 7.764-1.084 1.316.197 1.723.09 2.805-.733.697-.53 1.266-1.106 1.266-1.28 0-.44-3.151-.402-3.425.042-.378.61-.868.398-.73-.316.117-.603-.189-.701-2.815-.905-7.172-.558-7.755-.688-6.895-1.547.757-.755 2.612-.74 4.165.033.636.317 1.69.576 2.342.576.652 0 1.286.162 1.409.36.122.198.754.36 1.403.36 1.799 0 5.276.775 5.058 1.127-.107.172.23.312.747.312s1.46.279 2.095.62c.853.458 2.046.623 4.579.633 2.724.01 3.629.15 4.417.681.546.367.99.77.987.896-.003.126-.835.685-1.849 1.244-2.45 1.348-1.932 1.936 1.031 1.17 1.919-.496 2.36-.5 3.949-.029 1.303.387 2.117.436 3.001.183.883-.252 1.789-.198 3.326.2 1.604.414 2.435.457 3.451.175 2.32-.643 5.174-.462 6.83.434l3.372 1.831c1.829.996 1.909 1.007 3.178.44 1.062-.476 1.654-.515 3.221-.217 1.556.297 2.123.261 3-.191.858-.443.996-.66.668-1.054-.633-.762 1.614-1.045 4.374-.551 1.264.226 2.866.451 3.56.501.694.05 2.051.444 3.014.877 1.469.66 2.578.81 6.877.928 4.079.111 5.377.274 6.361.798.999.53 2.138.666 5.924.703 3.484.034 5.045.199 6.079.642 1.668.715 2.335.453 1.427-.561-.653-.73-.649-.731 1.87-.481 4.221.418 9.284 1.34 10.998 2.002.892.344 2.593.745 3.78.89 1.186.145 2.917.648 3.847 1.118 1.411.713 1.869.792 2.775.477 1.239-.431 2.043-.12 3.935 1.52l1.175 1.018-.886.222c-.889.223-3.25-.36-4.063-1.004-.24-.189-.575-.257-.746-.152-.17.105-1.014-.05-1.874-.346-2.014-.693-2.909-.433-1.991.579.626.69.613.705-.582.622-2.236-.156-1.622.503 1.661 1.781 1.785.695 3.322 1.337 3.415 1.428.339.326-.777.732-1.589.577-.891-.17-3.088.784-3.088 1.342 0 .185-.347.66-.771 1.054-.709.658-.855.673-1.803.184-.887-.457-1.171-.462-2.023-.034-.546.275-1.478.616-2.072.758-.594.143-1.282.427-1.529.631-.725.602.554 2.351 2.357 3.222.981.474 1.692 1.11 1.903 1.701.185.52.579 1.374.874 1.897.48.853.476.975-.04 1.173-.379.145-.491.435-.326.847.138.345.295 1.032.347 1.526.053.495.212 1.169.353 1.497.185.428.033.669-.536.849-.632.2-1.059-.041-2.099-1.189-.718-.792-1.916-1.883-2.662-2.424-.746-.54-2.082-1.947-2.969-3.125-1.565-2.078-1.598-2.173-1.078-3.175.294-.568.541-1.406.548-1.86.007-.456.236-1.23.509-1.722.52-.939.32-1.689-.794-2.963-.731-.837-2.031-.21-1.703.822.302.95-.625 1.258-1.692.561-.462-.302-1.526-.658-2.364-.792-1.44-.229-1.547-.185-1.92.792-.217.569-.308 1.468-.202 1.998.165.826.05.996-.802 1.182-.579.127-1.572-.023-2.381-.36-.888-.37-1.725-.483-2.327-.312-.517.147-2.266.28-3.886.296-2.567.026-3.061.138-3.841.869-.493.461-1.084 1.595-1.315 2.519-.231.924-.653 2.04-.939 2.48-.495.762-.447.839.966 1.558 1.534.781 3.206.987 4.474.55.978-.336 3.961 1.985 4.892 3.807.382.746 1.013 1.527 1.402 1.735 1.473.787 1.772 5.948.54 9.322-.853 2.336-1.807 3.1-3.208 2.569-.536-.204-1.028-.37-1.094-.37-.067 0-.468.664-.892 1.476-.557 1.067-.665 1.604-.391 1.934.526.632.137 1.454-.914 1.931-.485.221-.881.558-.881.75 0 .191 1.128 1.123 2.507 2.07 1.754 1.205 2.691 2.13 3.121 3.082.338.747.549 1.419.468 1.491-.081.073-.818.47-1.638.883l-1.491.75-.898-2.056c-1.004-2.3-1.865-3.225-3.383-3.633-.764-.205-1.03-.496-1.03-1.126 0-.578-.374-1.069-1.169-1.533-1.158-.677-1.181-.676-2.413.083-1.233.761-1.247.761-1.625.055-.21-.391-.382-.96-.382-1.263 0-.302-.303-.712-.674-.91-.551-.294-.899-.117-1.911.977-.681.735-1.553 1.515-1.938 1.734-.598.339-.63.483-.218.978.266.32 1.183.971 2.038 1.448 1.36.759 1.62.802 2.079.344.436-.435.79-.451 2.106-.095l1.583.429-.882.588c-1.636 1.091-2.152 1.664-2.385 2.649-.192.808-.077 1.051.65 1.381.485.221 1.222 1.101 1.639 1.956.416.855 1.247 1.844 1.847 2.198 1.32.778 1.703 1.605.941 2.03-.711.397-.372.99.566.99 1.123 0 1.13.669.044 4.527-1.314 4.673-2.501 6.232-5.606 7.366-1.223.446-2.71.838-3.305.871-1.383.077-2.455.661-3.391 1.848l-.743.942-.346-.909c-.452-1.186-1.488-1.484-2.976-.856-1.363.575-2.261 1.493-2.624 2.68-.324 1.062.824 2.93 2.726 4.432 1.561 1.234 3.312 4.33 3.724 6.583.357 1.96-.276 3.246-1.977 4.011-.774.349-1.499.92-1.611 1.27-.267.841-1.868 1.888-2.162 1.414-.122-.198-.127-.659-.01-1.025.116-.366.11-.929-.013-1.25-.178-.462-.375-.503-.944-.199-.593.316-.822.236-1.301-.457-1.176-1.702-4.587-4.439-5.533-4.439-.333 0-.461.4-.404 1.26.045.692-.096 2.043-.315 3.001-.356 1.561-.319 1.847.352 2.753.412.556.851 1.418.976 1.915.127.505 1.17 1.659 2.363 2.614 1.988 1.591 2.197 1.905 3.034 4.548.494 1.561.898 2.992.898 3.18 0 .61-.753.363-2.325-.764-1.625-1.165-2.663-3.007-3.529-6.264-.375-1.414-.787-2.02-1.957-2.879-1.434-1.053-1.477-1.145-1.362-2.887.066-.989.229-2.392.362-3.117.187-1.02.032-1.751-.686-3.238-.511-1.057-1.114-2.679-1.341-3.606-.508-2.07-1.224-2.417-2.492-1.205-.524.501-1.054.911-1.177.911-.574 0-1.363-1.22-1.174-1.814.344-1.08-1.769-4.846-3.005-5.357-.676-.279-1.295-.957-1.708-1.873-.72-1.592-1.526-2.201-2.332-1.76-.292.159-1.463.481-2.601.713-2.086.428-2.835 1.058-2.549 2.148.105.401-.26.789-1.136 1.206-.709.337-1.474 1.017-1.699 1.509-.225.493-.72.994-1.1 1.115-.38.12-.967.671-1.304 1.223-.336.553-1.339 1.563-2.228 2.245-1.217.933-1.597 1.455-1.537 2.112.354 3.837-.189 7.048-1.513 8.954-1.291 1.86-1.382 1.912-2.474 1.415-.602-.273-.972-.807-1.125-1.623-.126-.668-.852-2.552-1.614-4.185-4.611-9.883-5.293-11.768-4.9-13.553.265-1.206-.371-3.025-.987-2.819-.246.082-.452.379-.458.659-.03 1.642-1.879 1.894-3.324.453l-.957-.955.823-.304c.927-.342.842-1.264-.1-1.095-.335.06-1.102-.305-1.704-.81-.601-.505-1.233-.919-1.402-.919-.17 0-.413-.325-.539-.723-.333-1.045-2.245-1.955-3.204-1.523-.863.388-8.69.307-10-.104-.472-.148-1.345-.825-1.94-1.504-1.075-1.228-1.091-1.233-2.704-.799-1.528.411-1.75.372-3.809-.665-1.778-.896-2.311-1.379-2.86-2.594-.701-1.551-2.256-2.673-3.202-2.311-.298.114-.646.681-.774 1.26-.183.831.004 1.371.888 2.571.616.835 1.286 2.138 1.491 2.894.438 1.626 1.304 2.109 2.022 1.129.433-.591.55-.611.843-.148.188.296.289.7.225.898-.201.622 1.88 1.646 2.851 1.402.491-.123 1.539-.957 2.33-1.853 1.246-1.412 1.68-1.508 1.468-.322-.144.799.486 1.734 1.527 2.272 1.609.83 3.851 2.679 3.851 3.176 0 .23-.421.81-.936 1.29-.516.479-1.257 1.495-1.648 2.256-.95 1.849-3.704 4.554-4.636 4.554-1.078 0-2.681.908-3.319 1.88-.302.46-1.097 1.11-1.766 1.443-3.428 1.708-7.554 3.439-8.715 3.656-1.242.233-1.343.176-2-1.118-.381-.75-.814-2.254-.961-3.342-.191-1.416-.563-2.316-1.305-3.162-.57-.65-1.037-1.338-1.037-1.529 0-.19-.651-1.016-1.446-1.834-.99-1.018-1.63-2.123-2.032-3.509-.322-1.112-.977-2.507-1.456-3.101-3.31-4.101-4.29-5.547-4.783-7.057-.654-2.002-1.207-2.325-1.462-.855l-.181 1.044-1.22-1.537c-1.88-2.369-2.116-1.292-.352 1.599.835 1.368 2.166 3.783 2.958 5.367.792 1.583 1.819 3.379 2.281 3.992.477.63.842 1.616.842 2.273 0 1.356.405 2.202 1.998 4.17.64.792 1.273 1.948 1.406 2.569.17.796.866 1.629 2.363 2.827 2.274 1.82 3.747 3.72 4.113 5.303.137.595.658 1.206 1.318 1.546 1.005.519 1.359.505 4.537-.182 1.896-.41 3.904-.981 4.463-1.27l1.016-.524.241 1.424c.219 1.295-.017 1.918-2.584 6.832-2.76 5.282-2.889 5.457-5.634 7.619-1.544 1.217-3.161 2.707-3.592 3.311-.431.604-1.81 2.236-3.064 3.626-3.661 4.056-4.159 7.624-1.731 12.405.617 1.215.858 2.134.712 2.716-.122.483-.044 1.704.173 2.713.341 1.588.302 2.013-.288 3.168-.853 1.667-1.531 2.267-3.915 3.458-1.041.521-1.893 1.101-1.893 1.289 0 .188-.73 1.162-1.622 2.165-.893 1.003-1.623 1.986-1.623 2.185 0 .2.335 1.017.743 1.817 1.226 2.398.403 4.135-2.536 5.35-1.238.512-1.645 1.557-1.339 3.442.161.987.059 1.316-.502 1.615-.387.207-1.087.976-1.555 1.71-1.478 2.316-5.727 6.416-7.657 7.387-1.611.811-2.023.882-3.206.556-1.044-.287-1.886-.242-3.635.197-2.833.71-2.533.74-3.63-.355Zm47.494-114.776c.931-.48 1.064-.745 1.064-2.115 0-.982-.21-1.74-.564-2.033-.311-.258-.814-.949-1.119-1.536-.503-.972-.501-1.049.024-.848.694.266 1.659-.053 1.659-.548 0-.196-.335-.826-.745-1.401-.618-.866-.865-.981-1.443-.673-.466.25-.696.252-.696.007 0-.201-.644-.693-1.431-1.093-1.74-.886-2.36-1.868-1.817-2.88.411-.767 1.879-1.304 2.506-.917.845.521 1.094-.248.397-1.225-1.691-2.37-4.046-2.214-6.967.462-1.884 1.726-2.048 2.185-.982 2.755.397.211.721.626.721.92 0 .294.642 1.229 1.426 2.078 1.805 1.955 2.136 2.848 1.913 5.161l-.18 1.863 2.477 1.268c1.363.698 2.526 1.277 2.586 1.287.059.009.586-.23 1.171-.532Zm-9.934 100.518c-1.018-.576-1.162-.881-1.428-3.005-.213-1.697-.124-2.066.893-3.716 1.034-1.677 1.109-2 .881-3.822-.33-2.63.231-4.013 1.763-4.348 1.443-.316 4.566-3.067 5.314-4.682l.572-1.234.398.87c1 2.19.898 3.153-.842 7.957-.931 2.57-1.929 5.645-2.219 6.832-.927 3.801-1.454 4.717-2.973 5.171-1.617.483-1.461.485-2.359-.023Zm177.626-6.256c-1.15-1.257-1.839-2.335-1.839-2.879 0-1.208.195-1.102 1.235.67.498.847 1.397 2.011 1.999 2.586.601.575 1.093 1.177 1.093 1.338 0 .692-.767.163-2.488-1.715Zm-160.858-.511a.361.361 0 0 1 .721 0 .361.361 0 0 1-.721 0Zm189.889-.657a.45.45 0 0 1 .159-.614c.536-.33.726-.068.368.51-.192.309-.378.346-.527.104Zm-187.365-.581c0-.088.162-.259.36-.382.199-.122.361-.051.361.159s-.162.381-.361.381c-.198 0-.36-.071-.36-.158Zm177.988-3.653c-.352-.913.094-1.233 1.088-.781.858.39.877.449.279.886-.836.61-1.1.59-1.367-.105Zm2.284-1.6c-.704-.435-.216-.782.905-.643.878.108.898.147.271.533-.401.247-.881.292-1.176.11Zm-16.835-1.321c-.741-1.591-.481-2.202.284-.67.797 1.594.811 1.646.437 1.642-.149-.002-.474-.439-.721-.972Zm1.38-.255c-.015-.379.07-.592.19-.472.119.119.132.43.028.689-.115.288-.201.202-.218-.217Zm29.356-3.455c-.33-.533-.017-.805.753-.655.563.11.569.168.06.589-.405.335-.635.354-.813.066Zm-213.104-1.793c-.123-.198-.051-.36.159-.36s.382.162.382.36c0 .198-.072.36-.159.36-.088 0-.259-.162-.382-.36Zm158.298-3.381c-2.282-.718-3.316-1.385-4.214-2.717-1.026-1.521-2.904-2.673-3.863-2.37-.388.123-1.04.791-1.45 1.484-.697 1.18-.831 1.245-2.099 1.02-.745-.132-1.786-.641-2.313-1.131-.669-.623-1.182-.82-1.705-.655-.411.131-1.007.092-1.324-.085-.496-.276-.447-.406.345-.925.919-.6.92-.608.304-1.898-.495-1.035-1.178-1.575-3.41-2.695-1.535-.77-3.271-1.401-3.857-1.401-1.341 0-1.895-1.233-.885-1.97.601-.439.513-.548-1.054-1.308-1.665-.807-1.688-.841-.893-1.281.449-.249 1.172-.459 1.607-.466.845-.013 1.914 1.203 1.914 2.178 0 .325.351 1.036.779 1.58.768.974.788.978 1.352.275.315-.393 1.321-1.142 2.236-1.665l1.662-.95 2.304 1.037c1.267.57 3.066 1.311 3.998 1.646.931.335 2.794 1.331 4.14 2.213 2.57 1.685 3.686 3.105 3.046 3.875-.522.627 1.528 3.486 3.651 5.09 2.332 1.763 2.293 1.926-.271 1.119Zm15.693-.029c-.284-.342-.312-.548-.073-.548.436 0 .944.683.694.932-.09.091-.37-.082-.621-.384Zm-60.587-1.464c-.522-.289-.673-.501-.36-.505.644-.009 1.674.59 1.432.832-.094.094-.576-.054-1.072-.327Zm6.097-.476c1.023-1.433 2.623-2.046 4.103-1.572 1.078.345 1.095.374.239.408-.507.02-1.689.523-2.627 1.116-2.141 1.355-2.658 1.37-1.715.048Zm52.319.492c-.487-.586-.37-.659.512-.321.313.12.57.363.57.54 0 .497-.584.379-1.082-.219Zm1.689-.317c-.135-.353-.236-.911-.223-1.242.015-.397.14-.306.37.269.192.478.293 1.036.224 1.241-.068.205-.235.084-.371-.268Zm27.88.339c0-.088.162-.259.36-.382.199-.122.361-.051.361.159s-.162.381-.361.381c-.198 0-.36-.071-.36-.158Zm-92.223-1.512c-.249-.105-.361-.339-.249-.52.275-.444 2.586-.42 2.865.031.123.198.011.362-.249.365-.259.003-.796.075-1.193.16s-.925.069-1.174-.036Zm5.353-.27c-.655-.788.1-1.028 1.799-.571 1.711.46 1.705.531-.068.851-.922.166-1.428.084-1.731-.28Zm54.14-.219c-.25-.399-.294-.72-.1-.72.193 0 .525.324.737.72.213.396.257.72.1.72-.158 0-.49-.324-.737-.72Zm2.258-.362c-.964-1.063-.448-1.23.544-.176.465.494.68.898.478.898-.202 0-.662-.325-1.022-.722Zm-67.608-.062c-1.29-.179-3.107-.574-4.039-.88-.933-.305-2.031-.448-2.442-.319-.825.262-4.337-.768-4.337-1.272 0-1.15 3.232-1.238 4.95-.134.642.412 1.147.44 2.503.137 1.502-.336 1.815-.295 2.698.356.549.405 1.161.737 1.361.737.713 0 2.877 1.204 2.694 1.499-.102.165-.379.278-.615.25-.236-.028-1.484-.196-2.773-.374Zm64.725-1.735c-.359-.396-.49-.72-.292-.72s.654.324 1.013.72c.359.396.491.72.292.72-.198 0-.654-.324-1.013-.72Zm-2.274-.456c-.205-.246-.477-.933-.604-1.525-.206-.955-.183-.996.201-.358.239.396.666.987.948 1.314.3.346.371.682.171.805-.189.117-.511.011-.716-.236Zm-7.636-1.144-.896-.495 1.388-.26c.764-.143 1.938-.741 2.609-1.329.733-.641 1.218-.874 1.215-.582-.009.732-.452 1.296-1.8 2.288-1.408 1.037-1.342 1.027-2.516.378Zm-67.641-1.401c-1.325-.753-3.715-3.667-4.493-5.478-.419-.977-1.381-2.586-2.136-3.576-.756-.99-1.624-2.285-1.928-2.879-.305-.594-1.23-1.727-2.056-2.519-1.741-1.669-2.812-3.423-2.082-3.41.946.016 3.381 1.367 4.426 2.456 2.882 3.002 3.473 3.536 4.833 4.373 1.313.807 1.935 1.647 1.997 2.699.012.198.385.764.83 1.259a770.54 770.54 0 0 0 1.864 2.068c.581.643 1.161 1.645 1.289 2.228.42 1.908-1.12 3.589-2.544 2.779Zm-72.634-.238a.361.361 0 0 1 .721 0 .361.361 0 0 1-.721 0Zm95.374-.003c-.124-.2-.125-.678-.004-1.063.123-.386-.026-1.079-.331-1.544-.503-.765-.498-.925.05-1.707.333-.474.726-1.747.873-2.829.182-1.335.54-2.239 1.115-2.814.787-.785.985-.82 2.754-.485 1.519.288 2.117.252 2.944-.175 1.384-.714 1.486-.682 1.026.325-.585 1.28-1.753 1.689-2.984 1.045-2.199-1.149-5.117.559-3.577 2.095.565.565.878.616 1.926.316 1.797-.514 2.505-.419 1.389.186-1.262.684-1.502 1.444-.851 2.7.296.571.538 1.457.538 1.969 0 .819-.086.884-.722.545-.397-.212-.969-.978-1.272-1.702-.547-1.306-.557-1.31-1.256-.612-.614.612-.655.885-.319 2.098.303 1.097.283 1.46-.096 1.7-.637.403-.933.391-1.205-.048h.002Zm49.473-1.919c-.34-.518-1.119-1.2-1.73-1.515-.612-.316-1.031-.655-.932-.754.561-.56 3.69 1.982 3.423 2.78-.082.245-.409.026-.761-.511Zm-56.626-1.198c-.544-.284-1.277-.426-1.629-.314-.897.284-4.46-.44-4.813-.978-.281-.428-1.107-3.065-1.549-4.944-.121-.517 0-1.187.284-1.575.413-.562.626-.605 1.28-.256.689.368.836.305 1.214-.523.237-.518 1.024-1.245 1.75-1.614.769-.391 1.507-1.124 1.769-1.755.302-.727.853-1.216 1.678-1.487.676-.223 1.652-.959 2.169-1.635.517-.677 1.133-1.231 1.368-1.231.235 0 .946.535 1.581 1.188l1.154 1.188-.925 1.241c-1.051 1.41-.996 2.623.195 4.291l.72 1.01-.898.588c-.494.323-.897.785-.896 1.028.003.825-2.308 5.575-2.887 5.936-.403.252-.872.204-1.565-.158Zm20.947-.007c-.746-.194-.85-.831-.135-.831.273 0 1.036.108 1.696.24 1.016.202 1.092.281.496.514-.783.306-1.131.319-2.057.077Zm57.424-4.588c0-.088.162-.259.361-.381.198-.123.36-.051.36.158 0 .21-.162.381-.36.381-.199 0-.361-.071-.361-.158Zm-58.687-.976c-.288-.288-.305-.621-.055-1.087.198-.37.264-.827.146-1.017-.325-.525.49-1.799 1.151-1.799.53 0 .528.061-.024.669-.476.525-.529.873-.246 1.616.573 1.502-.05 2.538-.972 1.618Zm-181.104-1.183c0-.088.162-.259.36-.381.198-.123.361-.051.361.158 0 .21-.163.381-.361.381-.198 0-.36-.071-.36-.158Zm250.068-.921c-.123-.198-.051-.36.159-.36s.382.162.382.36c0 .198-.072.36-.159.36-.088 0-.26-.162-.382-.36ZM170.751 166.5c0-.087.162-.258.361-.381.198-.122.36-.051.36.159s-.162.381-.36.381c-.199 0-.361-.071-.361-.159Zm173.447-5.41c-.688-1.601-.78-1.673-1.838-1.441-1.055.231-1.092.203-.697-.534.328-.611.631-.732 1.407-.562.748.164 1.226-.002 1.958-.679.533-.493.973-1.188.977-1.543.011-.909 1.35 2.137 1.656 3.766.232 1.236.203 1.304-.36.838-.837-.692-1.642.026-.956.851.274.329.309.555.086.555-.206 0-.63.098-.942.217-.419.16-.757-.224-1.291-1.468Zm-65.746.636c-.403-.654-.632-3.586-.341-4.364.309-.825.332-.815 1.251.54 1.101 1.623 1.453 2.665 1.09 3.221-.348.532-1.777.963-2 .603Zm80.526-1.862c0-.197.163-.459.361-.582.198-.122.36-.06.36.138s-.162.46-.36.582c-.198.122-.361.06-.361-.138Zm56.613-.042c0-.198.071-.36.159-.36.087 0 .259.162.382.36.122.198.051.36-.159.36s-.382-.162-.382-.36Zm-81.854-2.079c0-.154.723-1.085 1.607-2.069 1.294-1.442 1.609-1.646 1.622-1.05.009.406-.533 1.338-1.204 2.069-1.138 1.24-2.025 1.7-2.025 1.05Zm7.81-.96c-.131-.342-.105-.861.059-1.153.255-.453.36-.457.716-.03.319.384.305.657-.059 1.153-.447.61-.492.612-.716.03Zm-276.135-1.402c.22-.266.295-.59.164-.72-.13-.13.1-.237.51-.237.57 0 .703.171.56.72a.962.962 0 0 1-.912.72c-.565 0-.635-.107-.322-.483Zm278.555-.096a9.627 9.627 0 0 0-.391-.951c-.08-.148.007-.27.194-.27.36 0 .867 1.478.599 1.745-.087.087-.268-.149-.402-.524Zm-3.654-.938c-.507-.61-.013-1.476.744-1.308.475.106.492.256.111.96-.367.679-.526.743-.855.348Zm4.263-1.237c-.414-.525-.692-1.015-.619-1.088.293-.293 1.307.352 1.847 1.173.829 1.263-.223 1.19-1.228-.085Zm-5.928-1.393c-.321-.321-.584-.769-.584-.997 0-.228.356-.059.791.376.436.434.698.882.584.996-.114.114-.47-.055-.791-.375Zm-283.045-.052a.989.989 0 0 1-.24-.611c0-.226.168-.205.426.054.235.234.343.509.24.611-.102.103-.294.078-.426-.054Zm-2.043-.479c0-.198.071-.36.159-.36.087 0 .26.162.382.36.122.197.05.359-.16.359-.21 0-.381-.162-.381-.359Zm16.947-.72c0-.198.072-.36.16-.36.087 0 .259.162.381.36.123.198.051.36-.159.36s-.382-.162-.382-.36Zm271.768-.055c-.361-.203-1.047-.272-1.523-.153-.698.175-1.179-.106-2.486-1.448-1.847-1.895-2.206-2.695-1.664-3.705.209-.39.38-1.196.38-1.791 0-1.954 1.311-1.875 2.273.137.532 1.114.535 1.353.035 2.548-.539 1.287-.528 1.344.433 2.345.694.723 1.215.968 1.763.831.464-.116.964.028 1.237.356.649.781.366 1.338-.448.88Zm-273.931-2.263c0-.087.162-.259.36-.381.199-.122.361-.051.361.159 0 .209-.162.381-.36.381-.199 0-.361-.072-.361-.159Zm56.612-1.281c0-.198.163-.36.361-.36.198 0 .361.162.361.36 0 .198-.163.36-.361.36a.362.362 0 0 1-.361-.36Zm-57.694-1.397c0-.198.162-.46.36-.582.2-.122.361-.06.361.138s-.162.46-.36.582c-.199.122-.36.06-.36-.138Zm-3.062-1.477c-.127-.204.018-.265.34-.142.624.239.738.497.22.497-.187 0-.44-.16-.56-.355Zm57.331-.004c-.123-.198-.051-.36.159-.36s.382.162.382.36c0 .197-.072.359-.159.359-.088 0-.26-.162-.382-.359Zm-55.892-.72c-.122-.198-.05-.36.16-.36.21 0 .381.162.381.36 0 .198-.071.36-.159.36-.087 0-.259-.162-.382-.36Zm1.623 0c0-.198.072-.36.16-.36.087 0 .258.162.381.36.123.198.051.36-.159.36s-.382-.162-.382-.36Zm-24.79-.958c-.248-.1-.451-.33-.451-.512 0-.518 1.592-.385 2.365.199.665.502.646.527-.382.511-.595-.009-1.284-.098-1.532-.198Zm9.124-.204c-.323-.181-1.038-.23-1.587-.11-.55.121-1.396.061-1.88-.132-.778-.31-.709-.347.596-.316 1.917.044 2.428-.267 1.938-1.181-.347-.648-.243-.698 1.477-.698 1.664 0 4.065.762 4.472 1.419.27.437-4.37 1.378-5.016 1.018Zm6.917.227c-.427-.426.104-.864 1.048-.864.567 0 .854.169.762.449-.167.504-1.43.794-1.81.415Zm260.877-.572c-.955-.953-.01-2.092 1.736-2.092.774 0 .774.007.111 1.141-.774 1.322-1.236 1.56-1.847.951Zm-257.897-.074c0-.078.243-.235.54-.349.298-.114.541-.05.541.142s-.243.348-.54.348c-.298 0-.541-.063-.541-.141Zm-15.588-2.58c-.111-.111-.872-.211-1.691-.222-1.13-.016-1.401-.126-1.124-.46.268-.322-.117-.751-1.443-1.608-2.599-1.681-4.05-2.009-5.796-1.312-1.637.654-1.763.672-1.763.261 0-.754 2.87-1.582 4.936-1.425 1.977.15 3.083.57 6.963 2.641 3.19 1.703 3.194 1.706 2.164 1.999-1.169.333-1.993.379-2.246.126Zm2.607-3.036c.699-.451 1.081-.451 1.081 0 0 .198-.365.357-.811.354-.656-.004-.708-.072-.27-.354Zm287.172-.638c-.218-.144-.593-.634-.834-1.09-.362-.686-.324-1.02.22-1.95.841-1.437 1.409-1.617 1.682-.531.287 1.142-.543 3.917-1.068 3.571Zm-284.805-.48c.24-.389 1.6-.433 1.599-.052 0 .149-.405.293-.9.322-.494.028-.809-.093-.699-.27Zm-7.13-3.468c-.577-.661-.493-1.532.147-1.532.205 0 .29.316.189.703-.102.386.001.769.228.85.227.081.317.252.2.379-.117.128-.461-.053-.764-.4Zm2.094-2.827c-.128-.334-.152-.688-.053-.787.1-.099.285.093.414.427.128.334.152.688.053.787-.1.099-.285-.093-.414-.427Zm-2.26-.324c0-.297.31-.54.687-.54.61 0 .627.06.146.54-.297.297-.606.54-.686.54-.08 0-.146-.243-.146-.54Zm302.414-7.889c0-.282-.394-.979-.875-1.55-1.143-1.356-.738-2.261.615-1.376.973.637 1.482 1.936 1.123 2.87-.272.707-.863.746-.863.056ZM66.18 118.28c0-.087.163-.258.361-.381.198-.122.36-.051.36.159s-.162.381-.36.381c-.198 0-.36-.071-.36-.159Zm281.827-.442c-.234-.608.318-1.183 1.145-1.193.573-.007.584.798.018 1.362-.588.587-.889.543-1.163-.169Zm3.294-1.313c-.7-1.067-1.689-1.213-3.953-.586-.92.256-1.555.258-1.983.009-.346-.201-.44-.371-.207-.377.233-.006.912-.421 1.51-.923.77-.647 1.335-.85 1.944-.697.646.161 1.342-.148 2.808-1.247 2.852-2.139 3.11-2.813 1.95-5.099-1.114-2.194-.804-2.9.847-1.927 1.201.708 2.333 2.737 2.004 3.592-.118.308.058 1.274.392 2.147.473 1.235.518 1.755.203 2.343-.464.863-1.752 1.44-3.218 1.44-.821 0-1.066.211-1.335 1.145l-.329 1.144-.633-.964Zm-146.078-1.229c-.43-.429-.201-.815.484-.815.385 0 .8-.162.923-.36.335-.541.906-.433.69.131-.223.579-1.784 1.356-2.097 1.044Zm-12.296-.622-1.081-.495 1.442-.024c1.796-.03 3.12.306 2.859.726-.29.469-1.978.36-3.22-.207Zm-14.566-3.59c-1.443-.737-1.511-.829-.758-1.026.902-.235 2.899.058 2.859.419-.014.124-.136.493-.271.821-.221.539-.397.518-1.83-.214Zm-7.228-3.893c-.312-.894-.287-1.236.118-1.64.733-.732 1.303-.218 1.303 1.176 0 1.645-.905 1.941-1.421.464Zm-8.455.299c.256-.665 1.353-.778 1.132-.116-.083.247-.42.502-.75.566-.418.081-.534-.056-.382-.45Zm188.408-4.108c-.66-.925-.678-1.095-.191-1.79.479-.682.477-.886-.016-1.838-.811-1.566-.697-1.66.71-.59.695.53 2.067 1.201 3.049 1.492 2.029.601 2.518 1.073 1.461 1.408-.4.127-.727.465-.727.753 0 .391-.248.459-.991.269-1.903-.486-2.443-.367-2.321.509.149 1.074-.094 1.021-.974-.213Zm-179.373.423a.806.806 0 0 1 .3-1.329c.391-.15.541.039.541.681 0 .864-.353 1.136-.841.648Zm177.085-7.587c-.306-.346-1.043-1.601-1.639-2.79-.595-1.187-2.169-3.368-3.497-4.847-1.484-1.651-2.238-2.746-1.956-2.84.253-.084.794.292 1.203.836.992 1.318 2.214 2.463 4.142 3.88 1.597 1.176 2.388 2.263 1.357 1.869-1.189-.456-.893.625.646 2.354.897 1.008 1.631 1.908 1.631 2 0 .438-1.394.097-1.887-.462Zm-263.867-.63c0-.296.157-.54.35-.54.191 0 .255.244.141.54-.114.297-.271.54-.35.54-.077 0-.141-.243-.141-.54Zm-1.884-1.16-1.343-.141 2.527-2.498c1.39-1.374 2.71-2.498 2.932-2.498.234 0 .164.264-.167.63-.751.828-.24 1.758 1.133 2.059.599.13 1.195.589 1.426 1.094.37.811.308.894-.942 1.24-1.31.363-2.875.395-5.566.113Zm-87.864-2.582c-1.25-1.165-1.389-1.655-.56-1.972.741-.285 2.11.642 2.63 1.778.544 1.193.534 1.238-.267 1.238-.376 0-1.187-.47-1.803-1.044Zm158.801-1.829c.396-.195 1.177-.519 1.734-.72 1.228-.442 1.025-.913-.529-1.223-1.065-.212-1.102-.266-.493-.711.363-.265.554-.652.425-.861-.132-.213.239-.544.846-.756.595-.206 1.082-.536 1.082-.73 0-.832-.752-2.23-1.169-2.176-.963.125-1.409-.044-1.254-.476.089-.247.016-.733-.163-1.08-.464-.9.603-2.763 1.594-2.783.149-.003.23.193.18.436-.049.243.291.499.757.57l.846.127-.809.86-.808.858.911.346c.979.372 1.922 1.581 2.882 3.696.46 1.014.763 1.278 1.3 1.138 1.102-.287 1.232.458.198 1.134-.7.458-.833.716-.526 1.022.307.306-.298.512-2.396.814-1.543.222-3.373.509-4.067.637-.966.178-1.093.15-.541-.122Zm-6.081-1.987c-.124-.321.017-1.05.313-1.62.338-.654.404-1.118.177-1.258-.625-.385-.39-.877.528-1.107.487-.122 1.075-.45 1.306-.727.48-.577 2.702-.684 3.035-.145.123.198-.03.72-.339 1.16-.309.44-.562 1.23-.562 1.757 0 .802-.247 1.042-1.532 1.488-.843.292-1.796.644-2.117.783-.377.162-.665.045-.809-.331Zm6.622-3.576c0-.087.162-.258.36-.38.199-.123.361-.052.361.158s-.162.381-.361.381c-.198 0-.36-.071-.36-.159Zm-160.03-1.733c-.353-.425-.33-.623.113-.99.733-.607 1.096-.195.67.758-.294.658-.401.69-.783.232Zm-.564-2.707c-.121-.196.02-.557.316-.802.586-.486.709-.105.216.671-.188.297-.397.348-.532.131Zm-23.306-.23c0-.252 1.093-.695 2.644-1.07.588-.142.936-.108.819.08-.112.18-.653.419-1.202.53-.55.11-1.283.31-1.63.444-.348.134-.631.142-.631.017Zm214.279-4.046c-.665-.267-.547-.68.211-.737.363-.028.661.18.661.463 0 .536-.125.575-.872.274ZM105.665 73.9c-2.282-1.242-3.373-3.15-2.712-4.743.313-.754.323-1.228.036-1.763-.597-1.113.182-2.418 2.174-3.641.947-.581 1.891-1.375 2.1-1.764.577-1.077.063-2.922-.942-3.38-.509-.23-.786-.596-.673-.889.256-.665-.945-2.94-2.141-4.053-.88-.82-1.258-.902-4.272-.921-4.103-.027-4.867-.255-4.8-1.43.029-.488.137-.887.241-.887.105 0 1.565-.17 3.246-.376 2.145-.263 4.069-.806 6.461-1.824 3.703-1.576 3.985-1.607 12.821-1.4 2.79.066 5.357-.14 8.654-.695 3.07-.516 5.33-.71 6.55-.564 1.037.125 2.538.043 3.385-.185 1.967-.528 7.076.107 9.085 1.13 1.188.605 1.817.685 3.822.486 2.165-.215 2.329-.187 1.678.29-.397.291-1.614.646-2.705.79-2.366.31-4.541 1.994-3.965 3.069.249.464.07.86-.734 1.628-.584.559-1.147 1.285-1.252 1.613-.251.79-3.439 2.259-5.019 2.313-1.756.061-1.939.434-.582 1.18.642.352 1.578.953 2.081 1.335l.914.694-.826.305c-.634.234-1.148.083-2.203-.646-1.431-.99-2.97-.995-2.149-.007.32.385.243.535-.356.691-1.34.35-.392 1.041 1.085.792.941-.159 1.47-.075 1.764.279.35.42-.106.615-2.733 1.166-1.734.364-4.045.675-5.136.691-2.026.03-3.486.61-5.635 2.24-.7.532-2.189 1.058-3.931 1.39-3.64.696-4.871 1.5-7.064 4.617-1.762 2.504-2.825 3.437-3.923 3.446-.298.002-1.353-.437-2.344-.977Zm-25.568-2.407c-.774-.475-1.723-1.36-2.108-1.968-.753-1.186-1.447-1.336-3.478-.755-.688.197-1.46.216-1.768.044-1.068-.597.86-1.183 3.009-.916 1.633.204 1.996.146 2.187-.35.383-.995 2.134-1.708 3.109-1.265.6.273 1.144.265 1.91-.027 1.03-.392 1.045-.428.372-.92-.385-.283-.825-.514-.977-.514-.152 0-.7-.723-1.22-1.606-.518-.884-1.49-1.945-2.16-2.358-1.139-.702-1.29-.714-2.307-.188-.89.459-1.404.49-2.813.175-.947-.212-2.27-.284-2.94-.159-1.162.217-3.29-.35-3.29-.877 0-.966 3.054-3.137 4.868-3.459l1.442-.256-1.03 1.096c-1.423 1.512-.888 2.208.656.855.655-.574 1.788-1.155 2.516-1.292 1.114-.208 1.59-.072 2.989.852 1.86 1.23 2.004 1.263 3.053.702.631-.337.866-.244 1.552.614.474.594 1.534 1.24 2.567 1.567 1.647.52 1.76.633 1.76 1.767 0 .85.246 1.387.824 1.8 2.42 1.726 2.367 1.655 1.844 2.492-.718 1.147-1.285 1.23-2.874.421-1.106-.563-1.589-.64-2.145-.343-.681.364-.688.442-.14 1.5.45.868.49 1.306.185 1.976-.376.825-.436.838-1.46.31-2.01-1.038-3.364-.355-1.489.75.588.347.987.763.887.924-.35.564-2.133.265-3.53-.592Zm74.067.466c0-.165.243-.3.541-.3.297 0 .541.135.541.3 0 .165-.244.3-.541.3-.298 0-.541-.135-.541-.3Zm-87.662-1.935c-.711-.373-1.263-.405-2.259-.13-1.692.466-2.284.125-1.425-.823 1.099-1.212 1.845-1.45 3.171-1.014 1.493.492 2.155 1.223 1.752 1.933-.256.453-.431.458-1.24.034Zm71.616-.164c-.595-.39-1.352-.624-1.683-.52-.455.144-.556.02-.417-.514.215-.819 3.383-2 4.454-1.661.373.118 1.328.02 2.121-.216 1.245-.373 1.575-.345 2.417.206l.974.637-.868.675c-.733.57-2.092 1.065-5.376 1.956-.297.081-1.027-.172-1.622-.563Zm-97.9-6.717c-.496-.079-1.704-.502-2.684-.94l-1.782-.8 2.503-.18c1.377-.098 2.504-.341 2.504-.539s-.974-.447-2.164-.553c-1.57-.14-1.867-.238-1.081-.36 1.315-.203 1.41-.771.18-1.081-.886-.223-.88-.237.366-.772 2.16-.929 4.459-1.107 6.496-.503 1.673.496 1.934.494 2.723-.022.557-.364.888-.425.917-.169l.09.821c.084.78.803.679 1.661-.233.795-.844 2.172-1.248 2.17-.636-.002.148-.322.793-.714 1.434l-.711 1.164 1.163.606 1.164.606-1.91.87c-1.725.786-2.078.83-3.624.46-1.498-.358-1.928-.317-3.438.329-1.705.73-2.064.776-3.829.498Zm14.462-.254c-.326-.392-.191-.584.65-.932.586-.242 1.427-.323 1.877-.18.78.247.763.286-.424.917-1.515.805-1.59.812-2.103.195Zm99.484-1.665c.699-.451 1.082-.451 1.082 0 0 .198-.365.357-.812.354-.656-.004-.707-.072-.27-.354Zm66.168-.999c-1.844-.726-1.806-.686-1.269-1.332.251-.301.314-.553.141-.56-.173-.006.01-.256.407-.555.397-.299.724-.658.727-.798.013-.532 1.481-1.936 2.518-2.407.595-.271 2.137-.576 3.426-.678 1.289-.102 3.016-.29 3.837-.416.874-.135 1.586-.08 1.718.133.256.413-.232.588-3.031 1.09-2.777.498-4.447 1.274-5.546 2.578-1.158 1.373-1.197 2.24-.133 2.981l.811.565-1.082-.016c-.595-.009-1.731-.272-2.524-.585ZM31.476 59.181c-.582-.58-.45-.707 2.34-2.23 3.27-1.787 4.912-2.024 7.844-1.133l1.623.493-2.163.428c-1.77.35-5.52 1.602-8.48 2.83-.303.125-.824-.048-1.165-.388Zm26.05-.466c0-.191-.446-.604-.991-.916l-.992-.568 1.328.208c.943.148 1.413.06 1.622-.304.25-.434 2.545-1.301 3.46-1.308.154-.001.028.483-.28 1.076-.723 1.397-4.147 2.893-4.147 1.812Zm5.614-1.05c-.516-.835 3.012-2.126 4.511-1.651 1.092.346.362.94-1.543 1.256-.853.142-1.818.371-2.145.51-.327.14-.697.087-.823-.115Zm11.514-2.65c-2.38-.19-4.371-.385-4.425-.435-.323-.299.481-1.27 1.347-1.628.85-.352 1.243-.305 2.408.286 1.135.577 1.867.673 3.977.521 1.422-.102 3.044-.07 3.606.072l1.02.258-1.262.673c-.694.37-1.505.656-1.803.635-.297-.021-2.488-.193-4.868-.382Zm103.77-1.47c-1.772-.906-1.943-1.316-.551-1.324.545-.003 1.235-.18 1.532-.394.468-.335.462-.363-.046-.202-.323.102-.776-.003-1.007-.233-.319-.319-.485-.313-.693.023-.193.312-.589.348-1.337.125-1.902-.569-2.326-.82-2.326-1.384 0-.477.477-.521 3.426-.314 2.246.157 3.426.114 3.426-.127 0-.709 1-.359 1.265.442l.268.81.16-.81c.088-.445.392-.81.675-.81.284 0 .516-.194.516-.431 0-.336.096-.336.433 0 .252.251 1.458.432 2.885.432 2.578 0 3.183.46 1.464 1.112-.894.339-2.448.243-4.151-.256-.347-.102-.63-.053-.628.109.002.332 2.028 1.554 2.576 1.554.197 0 .585.227.863.505.434.433.431.533-.025.708-.293.112-.532.029-.532-.185 0-.251-.459-.303-1.298-.146-.908.17-1.223.124-1.05-.156.136-.219.05-.634-.189-.922-.463-.556-1.79-.726-1.79-.23 0 .162-.527.877-1.172 1.588l-1.172 1.293-1.522-.778Zm-95.657-.793c-.625-.366-1.509-.472-2.884-.346-1.286.118-2.274.017-2.81-.289-.737-.42-.557-.469 1.695-.45 2.816.022 4.053-.58 2.528-1.23-.724-.31-.619-.337.623-.166 1.621.224 2.252-.21 1.368-.94-.942-.78.094-1.023 3.446-.806 2.074.134 3.377.059 3.91-.226 1.02-.545.62-1.239-.547-.947-.806.202-6.401-.13-6.165-.365.169-.168 8.096-.901 13.3-1.23 2.7-.17 5.703-.407 6.672-.527l1.762-.218-2.909 1.394c-2.727 1.307-7.162 2.582-8.984 2.582-.444 0-1.719.486-2.834 1.08-1.115.593-2.25 1.079-2.524 1.079-.273 0-1.453.484-2.62 1.075a190.589 190.589 0 0 1-2.125 1.067c0-.005-.406-.246-.901-.537Zm-7.031-3.287c-1.748-.386-1.812-.531-.527-1.196 1.871-.968 3.643-1.216 4.448-.623.638.47.6.542-.651 1.28-1.305.768-1.835.856-3.27.539Z"
                fill="#452EA2"
            />
            <path
                d="M182.451 254.579c60.859 0 110.195-49.336 110.195-110.195 0-60.859-49.336-110.194-110.195-110.194-60.859 0-110.195 49.335-110.195 110.194s49.336 110.195 110.195 110.195Z"
                fill="url(#d)"
                fill-opacity=".7"
            />
            <path
                d="M182.451 254.579c60.859 0 110.195-49.336 110.195-110.195 0-60.859-49.336-110.194-110.195-110.194-60.859 0-110.195 49.335-110.195 110.194s49.336 110.195 110.195 110.195Z"
                fill="#fff"
                fill-opacity=".1"
                style="mix-blend-mode: color"
            />
        </g>
        <path
            d="M182 79.912c0-79.807 96-103.25 96 38.668M178 79.91c0-65.181-84.5-69.394-84.5-.497"
            stroke="#D3C8FF"
            stroke-width="1.385"
            stroke-linecap="round"
            stroke-linejoin="bevel"
        />
        <path
            d="M185 79.911c16-26 49-17.303 49 54.001M174.5 79.912c-9.351-39.952-100.859-54.38-100.859 52.286"
            stroke="#D3C8FF"
            stroke-width="1.385"
            stroke-linecap="round"
            stroke-linejoin="bevel"
        />
        <path
            d="m72.362 142.071-3.16-4.512c-.927-1.326.021-3.147 1.64-3.147h6.317c1.618 0 2.566 1.821 1.638 3.147l-3.159 4.512a2 2 0 0 1-3.276 0ZM276.362 127.071l-3.159-4.512c-.928-1.326.02-3.147 1.638-3.147h6.318c1.618 0 2.566 1.821 1.638 3.147l-3.159 4.512a1.999 1.999 0 0 1-3.276 0ZM177.868 91.108l-4.632-6.54c-.939-1.324.008-3.156 1.632-3.156h9.264c1.624 0 2.571 1.832 1.632 3.156l-4.632 6.54a2 2 0 0 1-3.264 0ZM232.362 142.071l-3.159-4.512c-.928-1.326.02-3.147 1.638-3.147h6.318c1.618 0 2.566 1.821 1.638 3.147l-3.159 4.512a1.999 1.999 0 0 1-3.276 0Z"
            fill="#6D4AFF"
            fill-opacity=".5"
            stroke="#fff"
        />
        <path fill="url(#e)" d="M0 180h360v12H0z" />
    </g>
    <defs>
        <linearGradient id="b" x1="360" y1="0" x2="216.465" y2="296.715" gradientUnits="userSpaceOnUse">
            <stop stop-color="#21BED6" />
            <stop offset="1" stop-color="#A38DFF" />
        </linearGradient>
        <linearGradient id="e" x1="180" y1="180" x2="180" y2="192" gradientUnits="userSpaceOnUse">
            <stop stop-color="#573BCC" stop-opacity="0" />
            <stop offset="1" stop-color="#573BCC" stop-opacity=".2" />
        </linearGradient>
        <radialGradient
            id="d"
            cx="0"
            cy="0"
            r="1"
            gradientUnits="userSpaceOnUse"
            gradientTransform="rotate(90 19.033 163.417) scale(138.202)"
        >
            <stop offset=".656" stop-color="#B5B5B5" stop-opacity="0" />
            <stop offset="1" stop-color="#F2F2F2" stop-opacity=".47" />
        </radialGradient>
        <clipPath id="a">
            <path fill="#fff" d="M0 0h360v192H0z" />
        </clipPath>
    </defs>
</svg>
