<svg width="121" height="40" fill="none" xmlns="http://www.w3.org/2000/svg">
    <g clip-path="url(#feature-tour-app-store)">
        <path
            d="M110.63 0H8.02c-.67.01-1.339.07-2 .18a6.74 6.74 0 0 0-1.9.63A6.07 6.07 0 0 0 2.5 2a6.07 6.07 0 0 0-1.18 1.62 6.74 6.74 0 0 0-.63 1.9 12.18 12.18 0 0 0-.17 2V32.48c.002.67.058 1.34.17 2a6.8 6.8 0 0 0 .63 1.91A6.19 6.19 0 0 0 2.5 38c.47.48 1.018.88 1.62 1.18a6.741 6.741 0 0 0 1.9.63c.661.11 1.33.17 2 .18h104.62c.67-.01 1.339-.07 2-.18a6.915 6.915 0 0 0 1.91-.63 6.242 6.242 0 0 0 1.62-1.18 6.66 6.66 0 0 0 1.18-1.61 7.1 7.1 0 0 0 .62-1.91c.11-.661.17-1.33.18-2V7.52c-.01-.67-.07-1.339-.18-2a7.031 7.031 0 0 0-.62-1.9A6.552 6.552 0 0 0 118.17 2a6.243 6.243 0 0 0-1.62-1.18 6.915 6.915 0 0 0-1.91-.63 13.39 13.39 0 0 0-2-.18h-2l-.01-.01Z"
            fill="#B7B7B7"
        />
        <path
            d="M8.94 39.12h-.9c-.626.011-1.251-.03-1.87-.12a5.89 5.89 0 0 1-1.67-.6 5.159 5.159 0 0 1-1.39-1 5.188 5.188 0 0 1-1-1.4 5.79 5.79 0 0 1-.55-1.66 12.099 12.099 0 0 1-.16-1.87V7.55a12 12 0 0 1 .16-1.87A5.69 5.69 0 0 1 2.1 4a5.06 5.06 0 0 1 1-1.4 5.52 5.52 0 0 1 1.4-1 5.79 5.79 0 0 1 1.66-.55A12.1 12.1 0 0 1 8.04.89h104.59c.623.005 1.245.059 1.86.16a6 6 0 0 1 1.67.55 5.49 5.49 0 0 1 2.41 2.4c.26.52.442 1.077.54 1.65.1.622.157 1.25.17 1.88V32.47c-.013.62-.07 1.238-.17 1.85a5.848 5.848 0 0 1-.54 1.67 5.427 5.427 0 0 1-1 1.39 5.194 5.194 0 0 1-1.4 1 5.591 5.591 0 0 1-1.67.62c-.618.104-1.243.158-1.87.16H8.94v-.04Z"
            fill="#000"
        />
        <path
            d="M25.27 20.3a4.92 4.92 0 0 1 2.36-4.15 5.08 5.08 0 0 0-4-2.16c-1.67-.18-3.3 1-4.16 1-.86 0-2.19-1-3.61-1a5.309 5.309 0 0 0-4.47 2.73C9.5 20.11 10.9 25 12.75 27.74c.93 1.33 2 2.81 3.43 2.75 1.43-.06 1.9-.88 3.58-.88 1.68 0 2.14.88 3.59.85 1.45-.03 2.43-1.33 3.32-2.67a11.093 11.093 0 0 0 1.52-3.09 4.77 4.77 0 0 1-2.92-4.4ZM22.5 12.21a4.89 4.89 0 0 0 1.11-3.49 5 5 0 0 0-3.21 1.66 4.65 4.65 0 0 0-1.14 3.36 4.11 4.11 0 0 0 3.24-1.53ZM42.8 27.14h-4.73l-1.14 3.36h-2l4.48-12.42h2.09l4.48 12.42h-2l-1.18-3.36Zm-4.24-1.55h3.75l-1.81-5.45h-.05l-1.89 5.45ZM55.66 26c0 2.81-1.51 4.62-3.78 4.62A3.09 3.09 0 0 1 49.03 29v4.48h-1.9v-12h1.8V23a3.219 3.219 0 0 1 2.89-1.6c2.33-.05 3.84 1.76 3.84 4.6Zm-1.91 0c0-1.83-1-3-2.39-3-1.39 0-2.38 1.23-2.38 3s1 3.05 2.38 3.05 2.39-1.23 2.39-3.05ZM65.62 26c0 2.81-1.5 4.62-3.77 4.62A3.08 3.08 0 0 1 59 29v4.48h-1.9v-12h1.8V23a3.22 3.22 0 0 1 2.88-1.6c2.33-.05 3.84 1.76 3.84 4.6Zm-1.91 0c0-1.83-.94-3-2.39-3-1.45 0-2.37 1.23-2.37 3s.95 3 2.37 3c1.42 0 2.39-1.18 2.39-3ZM72.21 27c.14 1.23 1.33 2 3 2s2.69-.81 2.69-1.92c0-1.11-.68-1.54-2.29-1.94L74 24.75c-2.28-.55-3.33-1.61-3.33-3.34 0-2.15 1.86-3.62 4.51-3.62 2.65 0 4.43 1.47 4.49 3.62h-1.91c-.11-1.24-1.14-2-2.63-2s-2.52.75-2.52 1.86c0 .87.65 1.39 2.25 1.79l1.37.33c2.55.6 3.61 1.63 3.61 3.44 0 2.33-1.86 3.78-4.8 3.78-2.75 0-4.61-1.42-4.73-3.66l1.9.05ZM83.85 19.3v2.14h1.72v1.47h-1.72v5c0 .77.34 1.13 1.1 1.13.203.012.407.012.61 0v1.46a5.21 5.21 0 0 1-1 .09c-1.84 0-2.55-.69-2.55-2.45v-5.23h-1.35v-1.47h1.32V19.3h1.87ZM86.56 26c0-2.85 1.68-4.64 4.3-4.64s4.29 1.79 4.29 4.64c0 2.85-1.65 4.61-4.29 4.61s-4.3-1.78-4.3-4.61Zm6.7 0c0-1.95-.9-3.11-2.4-3.11S88.5 24 88.5 26c0 2 .89 3.11 2.4 3.11 1.51 0 2.36-1.18 2.36-3.11ZM96.69 21.44h1.81V23a2.16 2.16 0 0 1 2.18-1.63c.215-.004.43.02.64.07v1.74a2.37 2.37 0 0 0-.82-.18 1.88 1.88 0 0 0-2 2.13v5.37h-1.81v-9.06ZM109.88 27.84c-.25 1.64-1.85 2.77-3.89 2.77-2.64 0-4.27-1.77-4.27-4.6 0-2.83 1.64-4.68 4.19-4.68 2.55 0 4.08 1.72 4.08 4.47v.63h-6.4v.12a2.367 2.367 0 0 0 .643 1.83 2.362 2.362 0 0 0 1.797.73 2.049 2.049 0 0 0 2.09-1.27h1.76Zm-6.28-2.71h4.53a2.177 2.177 0 0 0-.608-1.631 2.179 2.179 0 0 0-1.612-.659 2.304 2.304 0 0 0-2.131 1.41 2.309 2.309 0 0 0-.179.88ZM38.33 8.73a2.64 2.64 0 0 1 2.8 3c0 1.9-1 3-2.8 3h-2.16v-6h2.16Zm-1.23 5.12h1.12a1.87 1.87 0 0 0 2-2.14 1.879 1.879 0 0 0-2-2.14H37.1v4.28ZM42.18 12.44a2.129 2.129 0 1 1 4.25 0 2.129 2.129 0 1 1-4.25 0Zm3.33 0c0-1-.43-1.54-1.2-1.54s-1.21.57-1.21 1.54c0 .97.4 1.56 1.21 1.56.81 0 1.19-.58 1.19-1.56h.01ZM52.07 14.7h-.92l-.93-3.32h-.07l-.93 3.32h-.91l-1.24-4.51h.9l.81 3.44h.06l.93-3.44h.85l.93 3.44h.07l.8-3.44h.89l-1.24 4.51ZM54.35 10.19h.86v.72h.07a1.33 1.33 0 0 1 1.34-.8 1.46 1.46 0 0 1 1.56 1.67v2.92h-.89V12c0-.73-.32-1.09-1-1.09a1 1 0 0 0-1.08 1.14v2.65h-.89l.03-4.51ZM59.59 8.44h.91v6.26h-.89l-.02-6.26ZM61.72 12.44a2.13 2.13 0 1 1 4.25 0 2.13 2.13 0 1 1-4.25 0Zm3.33 0c0-1-.44-1.54-1.21-1.54s-1.2.57-1.2 1.54c0 .97.43 1.56 1.2 1.56s1.21-.58 1.21-1.56ZM66.9 13.42c0-.81.6-1.27 1.68-1.34L69.8 12v-.39c0-.47-.32-.74-.93-.74-.61 0-.84.18-.93.5h-.87c.1-.78.82-1.27 1.84-1.27s1.77.56 1.77 1.51v3.09h-.86v-.64h-.07a1.49 1.49 0 0 1-1.35.71 1.36 1.36 0 0 1-1.5-1.35Zm2.9-.42v-.38l-1.1.07c-.62 0-.91.26-.91.65s.36.64.84.64A1.06 1.06 0 0 0 69.8 13ZM71.85 12.44c0-1.42.73-2.32 1.87-2.32a1.49 1.49 0 0 1 1.38.79h.06V8.44h.89v6.26h-.85V14h-.07a1.56 1.56 0 0 1-1.41.78c-1.15-.01-1.87-.91-1.87-2.34Zm.92 0c0 1 .45 1.53 1.2 1.53s1.21-.58 1.21-1.52c0-.94-.47-1.53-1.21-1.53s-1.2.58-1.2 1.52ZM79.73 12.44a2.13 2.13 0 1 1 4.25 0 2.129 2.129 0 1 1-4.25 0Zm3.33 0c0-1-.44-1.54-1.2-1.54s-1.21.57-1.21 1.54c0 .97.43 1.56 1.21 1.56s1.2-.58 1.2-1.56ZM85.17 10.19h.85v.72h.07a1.36 1.36 0 0 1 1.35-.8 1.46 1.46 0 0 1 1.55 1.67v2.92h-.88V12c0-.73-.32-1.09-1-1.09a1.001 1.001 0 0 0-1.07 1.14v2.65h-.89l.02-4.51ZM94.02 9.07v1.15h1V11h-1v2.32c0 .47.19.68.63.68h.34v.74c-.16.011-.32.011-.48 0-1 0-1.38-.34-1.38-1.21V11h-.72v-.74h.72V9.07h.89ZM96.2 8.44h.89v2.48h.07a1.37 1.37 0 0 1 1.34-.81 1.48 1.48 0 0 1 1.55 1.68v2.91h-.89V12c0-.72-.33-1.08-1-1.08a1.06 1.06 0 0 0-1.14 1.14v2.64h-.82V8.44ZM105.26 13.48a1.821 1.821 0 0 1-2 1.3 2.001 2.001 0 0 1-2.08-2.32 2.08 2.08 0 0 1 2.08-2.35c1.25 0 2 .85 2 2.27v.31h-3.17v.05a1.172 1.172 0 0 0 .336.91 1.184 1.184 0 0 0 .904.35 1.101 1.101 0 0 0 1.08-.55l.85.03ZM102.14 12h2.27a1.093 1.093 0 0 0-.667-1.086 1.09 1.09 0 0 0-.443-.084 1.151 1.151 0 0 0-1.16 1.17Z"
            fill="#fff"
        />
    </g>
    <defs>
        <clipPath id="feature-tour-app-store">
            <path fill="#fff" transform="translate(.5)" d="M0 0h120v40H0z" />
        </clipPath>
    </defs>
</svg>
