<svg width="360" height="192" fill="none" xmlns="http://www.w3.org/2000/svg">
    <g clip-path="url(#a)">
        <path fill="url(#b)" d="M0 0h360v192H0z" />
        <g clip-path="url(#c)">
            <path
                d="M112 65a1 1 0 0 1 1-1h1v17h-1a1 1 0 0 1-1-1V65ZM112 86a1 1 0 0 1 1-1h1v17h-1a1 1 0 0 1-1-1V86Z"
                fill="#BE9AFD"
            />
            <path d="M114 48c0-13.255 10.745-24 24-24h84c13.255 0 24 10.745 24 24v172H114V48Z" fill="url(#d)" />
            <path d="M118 48c0-11.046 8.954-20 20-20h84c11.046 0 20 8.954 20 20v172H118V48Z" fill="#fff" />
            <rect x="172" y="32" width="16" height="4" rx="2" fill="#F2D5FF" />
            <path
                d="M134 60h25.76v3.68H134V60Zm29.44 0h3.68v3.68h-3.68V60Zm7.36 0h7.36v3.68h-7.36V60Zm11.04 0h3.68v3.68h-3.68V60Zm18.4 0H226v3.68h-25.76V60ZM134 63.68h3.68v3.68H134v-3.68Zm22.08 0h3.68v3.68h-3.68v-3.68Zm7.36 0h3.68v3.68h-3.68v-3.68Zm14.72 0h7.36v3.68h-7.36v-3.68Zm14.72 0h3.68v3.68h-3.68v-3.68Zm7.36 0h3.68v3.68h-3.68v-3.68Zm22.08 0H226v3.68h-3.68v-3.68ZM134 67.36h3.68v3.68H134v-3.68Zm7.36 0h11.04v3.68h-11.04v-3.68Zm14.72 0h3.68v3.68h-3.68v-3.68Zm11.04 0h11.04v3.68h-11.04v-3.68Zm14.72 0h7.36v3.68h-7.36v-3.68Zm18.4 0h3.68v3.68h-3.68v-3.68Zm7.36 0h11.04v3.68H207.6v-3.68Zm14.72 0H226v3.68h-3.68v-3.68ZM134 71.04h3.68v3.68H134v-3.68Zm7.36 0h11.04v3.68h-11.04v-3.68Zm14.72 0h3.68v3.68h-3.68v-3.68Zm7.36 0h3.68v3.68h-3.68v-3.68Zm7.36 0h3.68v3.68h-3.68v-3.68Zm7.36 0h14.72v3.68h-14.72v-3.68Zm22.08 0h3.68v3.68h-3.68v-3.68Zm7.36 0h11.04v3.68H207.6v-3.68Zm14.72 0H226v3.68h-3.68v-3.68ZM134 74.72h3.68v3.68H134v-3.68Zm7.36 0h11.04v3.68h-11.04v-3.68Zm14.72 0h3.68v3.68h-3.68v-3.68Zm11.04 0h3.68v3.68h-3.68v-3.68Zm11.04 0h18.4v3.68h-18.4v-3.68Zm22.08 0h3.68v3.68h-3.68v-3.68Zm7.36 0h11.04v3.68H207.6v-3.68Zm14.72 0H226v3.68h-3.68v-3.68ZM134 78.4h3.68v3.68H134V78.4Zm22.08 0h3.68v3.68h-3.68V78.4Zm11.04 0h3.68v3.68h-3.68V78.4Zm11.04 0h11.04v3.68h-11.04V78.4Zm22.08 0h3.68v3.68h-3.68V78.4Zm22.08 0H226v3.68h-3.68V78.4ZM134 82.08h25.76v3.68H134v-3.68Zm29.44 0h3.68v3.68h-3.68v-3.68Zm7.36 0h3.68v3.68h-3.68v-3.68Zm7.36 0h3.68v3.68h-3.68v-3.68Zm7.36 0h3.68v3.68h-3.68v-3.68Zm7.36 0h3.68v3.68h-3.68v-3.68Zm7.36 0H226v3.68h-25.76v-3.68Zm-36.8 3.68h3.68v3.68h-3.68v-3.68Zm7.36 0h11.04v3.68H170.8v-3.68Zm22.08 0h3.68v3.68h-3.68v-3.68ZM134 89.44h3.68v3.68H134v-3.68Zm7.36 0h7.36v3.68h-7.36v-3.68Zm11.04 0h11.04v3.68H152.4v-3.68Zm14.72 0h3.68v3.68h-3.68v-3.68Zm18.4 0h11.04v3.68h-11.04v-3.68Zm14.72 0h3.68v3.68h-3.68v-3.68Zm11.04 0h3.68v3.68h-3.68v-3.68Zm7.36 0H226v3.68h-7.36v-3.68ZM134 93.12h11.04v3.68H134v-3.68Zm18.4 0h3.68v3.68h-3.68v-3.68Zm7.36 0h3.68v3.68h-3.68v-3.68Zm7.36 0h11.04v3.68h-11.04v-3.68Zm25.76 0h7.36v3.68h-7.36v-3.68Zm11.04 0h3.68v3.68h-3.68v-3.68Zm14.72 0h3.68v3.68h-3.68v-3.68Zm-69.92 3.68h3.68v3.68h-3.68V96.8Zm7.36 0h3.68v3.68h-3.68V96.8Zm11.04 0h14.72v3.68h-14.72V96.8Zm18.4 0h3.68v3.68h-3.68V96.8Zm11.04 0h3.68v3.68h-3.68V96.8Zm11.04 0h3.68v3.68h-3.68V96.8Zm-73.6 3.68h7.36v3.68H134v-3.68Zm11.04 0h11.04v3.68h-11.04v-3.68Zm18.4 0h7.36v3.68h-7.36v-3.68Zm11.04 0h3.68v3.68h-3.68v-3.68Zm7.36 0h11.04v3.68h-11.04v-3.68Zm18.4 0h7.36v3.68h-7.36v-3.68Zm11.04 0h7.36v3.68h-7.36v-3.68Zm-73.6 3.68h22.08v3.68h-22.08v-3.68Zm29.44 0h3.68v3.68h-3.68v-3.68Zm11.04 0h11.04v3.68h-11.04v-3.68Zm18.4 0h14.72v3.68h-14.72v-3.68Zm18.4 0H226v3.68h-11.04v-3.68Zm-77.28 3.68h3.68v3.68h-3.68v-3.68Zm14.72 0h3.68v3.68h-3.68v-3.68Zm7.36 0h7.36v3.68h-7.36v-3.68Zm11.04 0h22.08v3.68H170.8v-3.68Zm25.76 0h14.72v3.68h-14.72v-3.68Zm25.76 0H226v3.68h-3.68v-3.68Zm-84.64 3.68h3.68v3.68h-3.68v-3.68Zm7.36 0h7.36v3.68h-7.36v-3.68Zm11.04 0h7.36v3.68h-7.36v-3.68Zm18.4 0h3.68v3.68h-3.68v-3.68Zm7.36 0h3.68v3.68h-3.68v-3.68Zm11.04 0h11.04v3.68h-11.04v-3.68Zm14.72 0h3.68v3.68h-3.68v-3.68Zm7.36 0h7.36v3.68h-7.36v-3.68ZM134 115.2h3.68v3.68H134v-3.68Zm11.04 0h3.68v3.68h-3.68v-3.68Zm14.72 0h11.04v3.68h-11.04v-3.68Zm14.72 0h3.68v3.68h-3.68v-3.68Zm11.04 0h3.68v3.68h-3.68v-3.68Zm7.36 0h7.36v3.68h-7.36v-3.68Zm11.04 0h7.36v3.68h-7.36v-3.68Zm18.4 0H226v3.68h-3.68v-3.68Zm-80.96 3.68h7.36v3.68h-7.36v-3.68Zm11.04 0h7.36v3.68h-7.36v-3.68Zm11.04 0h3.68v3.68h-3.68v-3.68Zm18.4 0h3.68v3.68h-3.68v-3.68Zm7.36 0H226v3.68h-36.8v-3.68Zm-25.76 3.68h11.04v3.68h-11.04v-3.68Zm29.44 0h3.68v3.68h-3.68v-3.68Zm14.72 0h3.68v3.68h-3.68v-3.68Zm7.36 0h3.68v3.68h-3.68v-3.68Zm7.36 0H226v3.68h-3.68v-3.68ZM134 126.24h25.76v3.68H134v-3.68Zm29.44 0h11.04v3.68h-11.04v-3.68Zm14.72 0h3.68v3.68h-3.68v-3.68Zm7.36 0h3.68v3.68h-3.68v-3.68Zm7.36 0h3.68v3.68h-3.68v-3.68Zm7.36 0h3.68v3.68h-3.68v-3.68Zm7.36 0h3.68v3.68h-3.68v-3.68Zm7.36 0H226v3.68h-11.04v-3.68ZM134 129.92h3.68v3.68H134v-3.68Zm22.08 0h3.68v3.68h-3.68v-3.68Zm7.36 0h3.68v3.68h-3.68v-3.68Zm11.04 0h3.68v3.68h-3.68v-3.68Zm11.04 0h11.04v3.68h-11.04v-3.68Zm22.08 0h3.68v3.68h-3.68v-3.68ZM134 133.6h3.68v3.68H134v-3.68Zm7.36 0h11.04v3.68h-11.04v-3.68Zm14.72 0h3.68v3.68h-3.68v-3.68Zm11.04 0h7.36v3.68h-7.36v-3.68Zm11.04 0h3.68v3.68h-3.68v-3.68Zm7.36 0h3.68v3.68h-3.68v-3.68Zm7.36 0h22.08v3.68h-22.08v-3.68Zm29.44 0H226v3.68h-3.68v-3.68ZM134 137.28h3.68v3.68H134v-3.68Zm7.36 0h11.04v3.68h-11.04v-3.68Zm14.72 0h3.68v3.68h-3.68v-3.68Zm7.36 0h3.68v3.68h-3.68v-3.68Zm11.04 0h3.68v3.68h-3.68v-3.68Zm18.4 0h11.04v3.68h-11.04v-3.68Zm14.72 0H226v3.68h-18.4v-3.68Zm-73.6 3.68h3.68v3.68H134v-3.68Zm7.36 0h11.04v3.68h-11.04v-3.68Zm14.72 0h3.68v3.68h-3.68v-3.68Zm7.36 0h3.68v3.68h-3.68v-3.68Zm7.36 0h7.36v3.68h-7.36v-3.68Zm14.72 0h11.04v3.68h-11.04v-3.68Zm14.72 0h3.68v3.68h-3.68v-3.68Zm7.36 0h3.68v3.68h-3.68v-3.68Zm7.36 0h7.36v3.68h-7.36v-3.68ZM134 144.64h3.68v3.68H134v-3.68Zm22.08 0h3.68v3.68h-3.68v-3.68Zm25.76 0h7.36v3.68h-7.36v-3.68Zm14.72 0h3.68v3.68h-3.68v-3.68Zm11.04 0h3.68v3.68h-3.68v-3.68Zm7.36 0h3.68v3.68h-3.68v-3.68ZM134 148.32h25.76V152H134v-3.68Zm29.44 0h3.68V152h-3.68v-3.68Zm7.36 0h3.68V152h-3.68v-3.68Zm11.04 0h7.36V152h-7.36v-3.68Zm18.4 0H226V152h-25.76v-3.68ZM160.67 164.727c-.068-.618-.586-.984-1.371-.984-.824 0-1.314.401-1.317.948-.008.607.639.859 1.235 1.001l.682.171c1.094.259 2.134.834 2.138 2.095-.004 1.282-1.016 2.152-2.759 2.152-1.694 0-2.77-.813-2.823-2.258h1.296c.053.763.692 1.132 1.516 1.132.859 0 1.449-.415 1.452-1.037-.003-.564-.522-.809-1.306-1.008l-.828-.213c-1.197-.309-1.939-.909-1.939-1.953-.003-1.286 1.144-2.145 2.671-2.145 1.548 0 2.596.87 2.621 2.099h-1.268Zm9.267.454h-1.329c-.152-.87-.845-1.371-1.729-1.371-1.19 0-2.028.913-2.028 2.554 0 1.669.846 2.553 2.025 2.553.87 0 1.566-.479 1.732-1.332l1.329.007c-.203 1.389-1.35 2.507-3.079 2.507-1.918 0-3.331-1.388-3.331-3.735 0-2.351 1.431-3.736 3.331-3.736 1.612 0 2.855.937 3.079 2.553Zm2.552 4.819h-1.406l2.56-7.273h1.627l2.564 7.273h-1.407l-.603-1.793h-2.735l-.6 1.793Zm.955-2.852h2.025l-.984-2.929h-.057l-.984 2.929Zm11.824-4.421V170h-1.172l-3.427-4.954h-.06V170h-1.317v-7.273h1.179l3.423 4.958h.064v-4.958h1.31Zm4.597 1.105v-1.105h5.802v1.105h-2.248V170h-1.307v-6.168h-2.247Zm13.607 2.532c0 2.35-1.435 3.735-3.342 3.735-1.91 0-3.341-1.388-3.341-3.735 0-2.351 1.431-3.736 3.341-3.736 1.907 0 3.342 1.385 3.342 3.736Zm-1.325 0c0-1.655-.831-2.554-2.017-2.554-1.182 0-2.017.899-2.017 2.554 0 1.654.835 2.553 2.017 2.553 1.186 0 2.017-.899 2.017-2.553Zm-51.763 10.686c-.234-.771-.831-1.24-1.708-1.24-1.175 0-2.024.909-2.024 2.547 0 1.647.835 2.56 2.053 2.56 1.093 0 1.786-.657 1.807-1.694h-1.676v-1.03h2.951v.874c0 1.875-1.289 3.032-3.089 3.032-2.007 0-3.37-1.427-3.37-3.728 0-2.344 1.427-3.743 3.331-3.743 1.608 0 2.844.994 3.068 2.422h-1.343Zm3.177 4.95v-7.273h4.73v1.105h-3.412v1.974h3.167v1.105h-3.167v1.985h3.441V182h-4.759Zm6.255-6.168v-1.105h5.802v1.105h-2.248V182h-1.306v-6.168h-2.248Zm10.082 0v-1.105h5.802v1.105h-2.248V182h-1.306v-6.168h-2.248Zm7.421 6.168v-7.273h1.317v3.079h3.37v-3.079h1.321V182h-1.321v-3.089h-3.37V182h-1.317Zm7.941 0v-7.273h4.73v1.105h-3.412v1.974h3.167v1.105h-3.167v1.985h3.441V182h-4.759Zm10.489 0h-1.406l2.56-7.273h1.626l2.564 7.273h-1.406l-.604-1.793h-2.734l-.6 1.793Zm.955-2.852h2.024l-.983-2.929h-.057l-.984 2.929Zm5.847 2.852v-7.273h2.728c1.672 0 2.564 1.019 2.564 2.408 0 1.399-.902 2.408-2.582 2.408h-1.392V182h-1.318Zm1.318-3.54h1.214c.98 0 1.417-.551 1.417-1.325 0-.774-.437-1.307-1.424-1.307h-1.207v2.632Zm5.618 3.54v-7.273h2.727c1.673 0 2.564 1.019 2.564 2.408 0 1.399-.902 2.408-2.582 2.408h-1.392V182h-1.317Zm1.317-3.54h1.215c.98 0 1.417-.551 1.417-1.325 0-.774-.437-1.307-1.424-1.307h-1.208v2.632Z"
                fill="#000"
            />
            <path d="M246 64h1a1 1 0 0 1 1 1v15a1 1 0 0 1-1 1h-1V64Z" fill="#E6CCFF" />
        </g>
        <path fill="url(#e)" d="M0 180h360v12H0z" />
    </g>
    <defs>
        <linearGradient id="b" x1="0" y1="3.589" x2="92.536" y2="278.416" gradientUnits="userSpaceOnUse">
            <stop stop-color="#D783FF" />
            <stop offset="1" stop-color="#6D4AFF" />
        </linearGradient>
        <linearGradient id="d" x1="180" y1="24" x2="118.467" y2="198.274" gradientUnits="userSpaceOnUse">
            <stop stop-color="#F7E5FF" />
            <stop offset="1" stop-color="#B383FF" />
        </linearGradient>
        <linearGradient id="e" x1="180" y1="180" x2="180" y2="192" gradientUnits="userSpaceOnUse">
            <stop stop-color="#573BCC" stop-opacity="0" />
            <stop offset="1" stop-color="#573BCC" stop-opacity=".2" />
        </linearGradient>
        <clipPath id="a">
            <path fill="#fff" d="M0 0h360v192H0z" />
        </clipPath>
        <clipPath id="c">
            <path fill="#fff" transform="translate(64 24)" d="M0 0h232v178H0z" />
        </clipPath>
    </defs>
</svg>
