<svg width="142" height="36" fill="none" xmlns="http://www.w3.org/2000/svg">
    <path
        d="M12.42 7.537c1.953-1.953 2.93-2.93 4.056-3.296a4.932 4.932 0 0 1 3.048 0c1.126.366 2.103 1.343 4.056 3.296l4.883 4.883c1.953 1.953 2.93 2.93 3.296 4.056.321.99.321 2.058 0 3.048-.366 1.126-1.343 2.103-3.296 4.056l-4.883 4.883c-1.953 1.953-2.93 2.93-4.056 3.296a4.932 4.932 0 0 1-3.048 0c-1.126-.366-2.103-1.343-4.056-3.296l-.918-1.03c-.556-.622-.834-.933-1.032-1.288a3.697 3.697 0 0 1-.382-1.003C10 24.746 10 24.328 10 23.494V12.506c0-.834 0-1.252.088-1.648.078-.351.207-.69.383-1.003.197-.354.475-.666 1.03-1.289l.919-1.029Z"
        fill="url(#feature-tour-logo-proton-pass-a)"
    />
    <path
        d="M12.42 7.537c1.953-1.953 2.93-2.93 4.056-3.296a4.932 4.932 0 0 1 3.048 0c1.126.366 2.103 1.343 4.056 3.296l4.883 4.883c1.953 1.953 2.93 2.93 3.296 4.056.321.99.321 2.058 0 3.048-.366 1.126-1.343 2.103-3.296 4.056l-4.883 4.883c-1.953 1.953-2.93 2.93-4.056 3.296a4.932 4.932 0 0 1-3.048 0c-1.126-.366-2.103-1.343-4.056-3.296l-.918-1.03c-.556-.622-.834-.933-1.032-1.288a3.697 3.697 0 0 1-.382-1.003C10 24.746 10 24.328 10 23.494V12.506c0-.834 0-1.252.088-1.648.078-.351.207-.69.383-1.003.197-.354.475-.666 1.03-1.289l.919-1.029Z"
        fill="url(#feature-tour-logo-proton-pass-b)"
    />
    <path
        d="M12.071 7.886c.977-.977 1.465-1.465 2.028-1.648a2.466 2.466 0 0 1 1.524 0c.563.183 1.052.671 2.028 1.648l7.324 7.324c.977.976 1.465 1.465 1.648 2.028.161.495.161 1.029 0 1.524-.183.563-.671 1.051-1.648 2.028l-7.324 7.324c-.976.976-1.465 1.465-2.028 1.648-.495.16-1.029.16-1.524 0-.563-.183-1.051-.672-2.028-1.648L7.537 23.58c-1.953-1.953-2.93-2.93-3.296-4.056a4.932 4.932 0 0 1 0-3.048c.366-1.126 1.343-2.103 3.296-4.056l4.534-4.534Z"
        fill="url(#feature-tour-logo-proton-pass-c)"
    />
    <path
        d="M42 21.26v3.664h2.56V21.42a1.282 1.282 0 0 1 1.279-1.286h2.624a4.592 4.592 0 0 0 3.261-1.361 4.652 4.652 0 0 0 1.351-3.28c0-1.228-.486-2.41-1.35-3.281a4.603 4.603 0 0 0-3.265-1.358H42v4.58h2.56v-2.159h3.73c.58 0 1.134.232 1.544.644a2.2 2.2 0 0 1 0 3.104c-.41.412-.964.644-1.544.644h-2.71a3.551 3.551 0 0 0-2.528 1.055 3.65 3.65 0 0 0-.776 1.166A3.54 3.54 0 0 0 42 21.259ZM53.47 24.924v-5.583c0-2.279 1.322-4.091 3.97-4.091a5.09 5.09 0 0 1 1.262.14v2.296c-.301-.02-.56-.02-.682-.02-1.402 0-2.005.646-2.005 1.955v5.303H53.47ZM59.464 20.19c0-2.802 2.104-4.937 5.033-4.937 2.929 0 5.033 2.135 5.033 4.937 0 2.802-2.104 4.957-5.033 4.957-2.929 0-5.033-2.158-5.033-4.957Zm7.558 0c0-1.592-1.064-2.722-2.525-2.722-1.465 0-2.525 1.127-2.525 2.722 0 1.612 1.063 2.722 2.525 2.722 1.464 0 2.525-1.113 2.525-2.722ZM77.668 20.19c0-2.802 2.104-4.937 5.032-4.937 2.926 0 5.03 2.135 5.03 4.937 0 2.802-2.104 4.957-5.03 4.957-2.928 0-5.032-2.158-5.032-4.957Zm7.554 0c0-1.592-1.063-2.722-2.524-2.722-1.462 0-2.525 1.127-2.525 2.722 0 1.612 1.063 2.722 2.525 2.722 1.461 0 2.525-1.113 2.525-2.722ZM89.053 24.924v-5.38c0-2.499 1.583-4.294 4.41-4.294 2.806 0 4.39 1.792 4.39 4.294v5.38h-2.525v-5.18c0-1.39-.623-2.259-1.865-2.259-1.243 0-1.865.867-1.865 2.259v5.18h-2.545ZM76.906 17.488h-2.747v3.528c0 1.23.44 1.793 1.703 1.793.12 0 .42 0 .802-.02v2.075c-.52.14-.981.223-1.484.223-2.124 0-3.569-1.29-3.569-3.728v-3.87h-1.706v-2.036h.427c.167 0 .335-.034.489-.097a1.285 1.285 0 0 0 .694-.698c.065-.157.096-.323.096-.492v-1.918h2.545v3.205h2.747v2.035h.003Z"
        fill="#1B1340"
    />
    <path
        d="M119.02 15.65c-2.86 0-4.98 2.1-4.98 4.9 0 2.96 2.04 4.92 4.5 4.92 1.36 0 2.44-.6 3.04-1.62l.16 1.4h2.24v-4.68c0-3.04-2.12-4.92-4.96-4.92Zm0 7.6c-1.42 0-2.48-1.1-2.48-2.7s1.08-2.7 2.48-2.7c1.38 0 2.46 1.06 2.46 2.7 0 1.84-1.24 2.7-2.46 2.7ZM128.888 25.47c1.92 0 3.56-1.1 3.56-2.78 0-3.6-4.86-2.76-4.86-4.22 0-.48.42-.84 1.08-.84.68 0 1.12.38 1.22.94h2.38c-.14-1.84-1.54-2.94-3.6-2.92-2.12 0-3.42 1.26-3.42 2.82 0 3.64 4.8 2.7 4.8 4.22 0 .46-.44.8-1.16.8-.7 0-1.34-.34-1.46-1.06h-2.42c.14 1.78 1.7 3.04 3.88 3.04ZM137.296 25.47c1.92 0 3.56-1.1 3.56-2.78 0-3.6-4.86-2.76-4.86-4.22 0-.48.42-.84 1.08-.84.68 0 1.12.38 1.22.94h2.38c-.14-1.84-1.54-2.94-3.6-2.92-2.12 0-3.42 1.26-3.42 2.82 0 3.64 4.8 2.7 4.8 4.22 0 .46-.44.8-1.16.8-.7 0-1.34-.34-1.46-1.06h-2.42c.14 1.78 1.7 3.04 3.88 3.04ZM109.472 11H102.9v14.25h2.604v-3.547a1.303 1.303 0 0 1 1.301-1.303h2.667a4.686 4.686 0 0 0 4.684-4.688 4.693 4.693 0 0 0-2.887-4.353 4.65 4.65 0 0 0-1.797-.359Zm2.051 4.674a2.216 2.216 0 0 1-1.374 2.053 2.192 2.192 0 0 1-.85.168h-3.807v-4.44h3.807a2.222 2.222 0 0 1 2.219 2.233l.005-.014Z"
        fill="#6D4AFF"
    />
    <defs>
        <radialGradient
            id="feature-tour-logo-proton-pass-a"
            cx="0"
            cy="0"
            r="1"
            gradientUnits="userSpaceOnUse"
            gradientTransform="rotate(-58.142 35.497 5.075) scale(23.3731 36.5508)"
        >
            <stop stop-color="#FFD580" />
            <stop offset=".094" stop-color="#F6C592" />
            <stop offset=".205" stop-color="#EBB6A2" />
            <stop offset=".324" stop-color="#DFA5AF" />
            <stop offset=".429" stop-color="#D397BE" />
            <stop offset=".534" stop-color="#C486CB" />
            <stop offset=".649" stop-color="#B578D9" />
            <stop offset=".771" stop-color="#A166E5" />
            <stop offset=".891" stop-color="#8B57F2" />
            <stop offset="1" stop-color="#704CFF" />
        </radialGradient>
        <radialGradient
            id="feature-tour-logo-proton-pass-c"
            cx="0"
            cy="0"
            r="1"
            gradientUnits="userSpaceOnUse"
            gradientTransform="matrix(9.923 -15.96803 24.97081 15.51758 10.397 29.7)"
        >
            <stop stop-color="#FFD580" />
            <stop offset=".094" stop-color="#F6C592" />
            <stop offset=".205" stop-color="#EBB6A2" />
            <stop offset=".324" stop-color="#DFA5AF" />
            <stop offset=".429" stop-color="#D397BE" />
            <stop offset=".534" stop-color="#C486CB" />
            <stop offset=".649" stop-color="#B578D9" />
            <stop offset=".771" stop-color="#A166E5" />
            <stop offset=".891" stop-color="#8B57F2" />
            <stop offset="1" stop-color="#704CFF" />
        </radialGradient>
        <linearGradient
            id="feature-tour-logo-proton-pass-b"
            x1="11.486"
            y1="-1.56"
            x2="16.931"
            y2="31.678"
            gradientUnits="userSpaceOnUse"
        >
            <stop stop-color="#6D4AFF" />
            <stop offset=".392" stop-color="#B39FFB" stop-opacity=".978" />
            <stop offset="1" stop-color="#FFE8DB" stop-opacity=".8" />
        </linearGradient>
    </defs>
</svg>
