<svg width="140" height="36" fill="none" xmlns="http://www.w3.org/2000/svg">
    <g clip-path="url(#feature-tour-logo-proton-drive)">
        <path
            d="M107.046 12.12a6.55 6.55 0 0 1 2.507 2.476 7.175 7.175 0 0 1 0 6.959 6.553 6.553 0 0 1-2.507 2.49 7.275 7.275 0 0 1-3.659.904h-4.504V11.213h4.504a7.277 7.277 0 0 1 3.659.907ZM103.538 22.5a4.16 4.16 0 0 0 3.739-2.19 4.814 4.814 0 0 0 .552-2.233c0-.777-.188-1.544-.552-2.233a4.148 4.148 0 0 0-1.525-1.59 4.214 4.214 0 0 0-2.216-.586h-2.086v8.815l2.088.017ZM111.579 19.362a4.212 4.212 0 0 1 1.034-2.945c.695-.752 1.673-1.13 2.938-1.13.424-.002.849.046 1.265.14v2.294c-.2 0-.428-.02-.681-.02-.695 0-1.205.16-1.527.483a2 2 0 0 0-.482 1.47v5.292h-2.533l-.014-5.584ZM117.844 13.518a1.5 1.5 0 0 1-.353-.498 1.429 1.429 0 0 1-.12-.597 1.503 1.503 0 0 1 .473-1.107 1.573 1.573 0 0 1 1.126-.463c.208-.003.413.037.604.117.191.08.364.198.51.346a1.492 1.492 0 0 1 .473 1.107c.003.206-.037.409-.12.597a1.5 1.5 0 0 1-.353.498 1.55 1.55 0 0 1-1.111.452 1.566 1.566 0 0 1-1.129-.452Zm2.396 11.416h-2.533v-9.458h2.533v9.458ZM124.312 24.934l-3.59-9.458h2.667l1.644 4.832c.253.847.402 1.353.441 1.53h.04c.12-.455.282-.966.462-1.53l1.644-4.832h2.687l-3.59 9.458h-2.405ZM139.609 21.072h-7.117c.111.571.419 1.089.866 1.46.447.35 1 .532 1.564.515.453.017.904-.063 1.322-.231.331-.16.599-.42.772-.746h2.345a3.885 3.885 0 0 1-1.644 2.281 4.924 4.924 0 0 1-2.746.795c-.892.02-1.775-.2-2.556-.632a4.423 4.423 0 0 1-1.727-1.761 5.256 5.256 0 0 1-.609-2.542 5.153 5.153 0 0 1 .621-2.542 4.485 4.485 0 0 1 1.724-1.761 4.883 4.883 0 0 1 2.493-.618 4.671 4.671 0 0 1 2.427.644 4.525 4.525 0 0 1 1.69 1.77c.413.771.624 1.638.612 2.513.006.286-.008.572-.037.855Zm-6.277-3.16a2.522 2.522 0 0 0-.86 1.39h4.787a2.139 2.139 0 0 0-.772-1.37 2.388 2.388 0 0 0-1.573-.543 2.44 2.44 0 0 0-1.582.523Z"
            fill="#6D4AFF"
        />
        <path
            d="M38 21.26v3.664h2.56V21.42a1.282 1.282 0 0 1 1.279-1.286h2.624a4.592 4.592 0 0 0 3.261-1.361 4.652 4.652 0 0 0 1.351-3.28c0-1.228-.486-2.41-1.35-3.281a4.603 4.603 0 0 0-3.265-1.358H38v4.58h2.56v-2.159h3.73c.58 0 1.134.232 1.544.644a2.2 2.2 0 0 1 0 3.104c-.41.412-.964.644-1.544.644h-2.71a3.551 3.551 0 0 0-2.528 1.055 3.65 3.65 0 0 0-.776 1.166A3.54 3.54 0 0 0 38 21.259ZM49.47 24.924v-5.583c0-2.279 1.322-4.091 3.97-4.091a5.09 5.09 0 0 1 1.262.14v2.296c-.301-.02-.56-.02-.682-.02-1.402 0-2.005.646-2.005 1.955v5.303H49.47ZM55.464 20.19c0-2.802 2.104-4.937 5.033-4.937 2.929 0 5.033 2.135 5.033 4.937 0 2.802-2.104 4.957-5.033 4.957-2.929 0-5.033-2.158-5.033-4.957Zm7.558 0c0-1.592-1.064-2.722-2.525-2.722-1.465 0-2.525 1.127-2.525 2.722 0 1.612 1.063 2.722 2.525 2.722 1.464 0 2.525-1.113 2.525-2.722ZM73.668 20.19c0-2.802 2.104-4.937 5.032-4.937 2.926 0 5.03 2.135 5.03 4.937 0 2.802-2.104 4.957-5.03 4.957-2.928 0-5.032-2.158-5.032-4.957Zm7.554 0c0-1.592-1.063-2.722-2.524-2.722-1.462 0-2.525 1.127-2.525 2.722 0 1.612 1.063 2.722 2.525 2.722 1.461 0 2.525-1.113 2.525-2.722ZM85.053 24.924v-5.38c0-2.499 1.583-4.294 4.41-4.294 2.806 0 4.39 1.792 4.39 4.294v5.38h-2.525v-5.18c0-1.39-.623-2.259-1.865-2.259-1.243 0-1.865.867-1.865 2.259v5.18h-2.545ZM72.906 17.488h-2.747v3.528c0 1.23.44 1.793 1.703 1.793.12 0 .42 0 .802-.02v2.075c-.52.14-.981.223-1.484.223-2.124 0-3.569-1.29-3.569-3.728v-3.87h-1.706v-2.036h.427c.167 0 .335-.034.489-.097a1.285 1.285 0 0 0 .694-.698c.065-.157.096-.323.096-.492v-1.918h2.545v3.205h2.747v2.035h.003Z"
            fill="#1B1340"
        />
        <path d="m0 9 4-2 7 4h12v17l-1 1H3a3 3 0 0 1-3-3V9Z" fill="url(#feature-tour-logo-proton-drive-b)" />
        <path
            fill-rule="evenodd"
            clip-rule="evenodd"
            d="M10.961 7.426A3 3 0 0 0 12.726 8H25a3 3 0 0 1 3 3v15a3 3 0 0 1-3 3h-3V14.5a2.5 2.5 0 0 0-2.5-2.5H9a3 3 0 0 1-1.8-.6L4.8 9.6A3 3 0 0 0 3 9H0a3 3 0 0 1 3-3h5.024a3 3 0 0 1 1.765.574l1.172.852Z"
            fill="url(#feature-tour-logo-proton-drive-c)"
        />
    </g>
    <defs>
        <radialGradient
            id="feature-tour-logo-proton-drive-b"
            cx="0"
            cy="0"
            r="1"
            gradientUnits="userSpaceOnUse"
            gradientTransform="matrix(42.9176 0 0 45.5519 24.926 -8.114)"
        >
            <stop offset=".556" stop-color="#6D4AFF" />
            <stop offset="1" stop-color="#FF50C3" />
        </radialGradient>
        <linearGradient
            id="feature-tour-logo-proton-drive-c"
            x1="-.369"
            y1="-6.003"
            x2="34.345"
            y2="32.431"
            gradientUnits="userSpaceOnUse"
        >
            <stop stop-color="#7341FF" />
            <stop offset=".359" stop-color="#B487FF" />
            <stop offset="1" stop-color="#FFC8FF" />
        </linearGradient>
        <clipPath id="feature-tour-logo-proton-drive">
            <path fill="#fff" d="M0 0h140v36H0z" />
        </clipPath>
    </defs>
</svg>
