<svg width="136" height="40" fill="none" xmlns="http://www.w3.org/2000/svg">
    <g clip-path="url(#getitongplaya)">
        <path
            d="M130.5 40H5.499C2.749 40 .5 37.75.5 35V5c0-2.75 2.249-5 4.999-5H130.5c2.75 0 5 2.25 5 5v30c0 2.75-2.25 5-5 5Z"
            fill="#030404"
        />
        <path
            d="M130.5 0H5.499C2.749 0 .5 2.25.5 5v30c0 2.75 2.249 5 4.999 5H130.5c2.75 0 5-2.25 5-5V5c0-2.75-2.25-5-5-5Zm0 .8c2.316 0 4.2 1.885 4.2 4.2v30a4.205 4.205 0 0 1-4.2 4.201H5.499A4.205 4.205 0 0 1 1.3 35V5C1.3 2.685 3.184.8 5.499.8H130.5Z"
            fill="#A7A5A6"
        />
        <path
            d="M47.876 9.791h-2.908v.721h2.18c-.06.586-.295 1.047-.688 1.382-.394.335-.897.503-1.492.503a2.253 2.253 0 0 1-1.659-.679c-.444-.46-.67-1.03-.67-1.718 0-.687.226-1.257.67-1.718a2.256 2.256 0 0 1 1.66-.678c.334 0 .653.058.946.184.293.126.528.302.712.528l.553-.553a2.503 2.503 0 0 0-.963-.662 3.284 3.284 0 0 0-1.249-.235c-.872 0-1.609.302-2.212.905-.604.604-.905 1.35-.905 2.23 0 .88.301 1.625.905 2.228.603.604 1.34.905 2.212.905.913 0 1.642-.293 2.204-.888.494-.494.746-1.165.746-2.003 0-.142-.017-.293-.042-.452ZM49.024 7v6h3.503v-.737h-2.732v-1.902h2.463V9.64h-2.463V7.738h2.732V7h-3.503ZM57.453 7.738V7H53.33v.738h1.676V13h.771V7.738h1.676ZM61.208 7h-.771v6h.771V7ZM66.303 7.738V7H62.18v.738h1.676V13h.771V7.738h1.676ZM74.105 7.78c-.595-.612-1.324-.914-2.196-.914-.87 0-1.6.302-2.196.905-.595.595-.888 1.341-.888 2.23 0 .888.293 1.633.888 2.228.595.604 1.325.905 2.196.905.863 0 1.601-.3 2.196-.905.595-.595.888-1.34.888-2.229 0-.88-.293-1.625-.888-2.22Zm-3.838.502c.444-.452.988-.678 1.642-.678.654 0 1.198.226 1.634.678.444.445.662 1.023.662 1.718 0 .696-.218 1.274-.662 1.718-.436.453-.98.68-1.634.68-.654 0-1.198-.227-1.642-.68-.436-.452-.654-1.022-.654-1.718 0-.695.218-1.265.654-1.718ZM76.845 9.263l-.033-1.157h.033L79.896 13h.804V7h-.77v3.512l.033 1.156h-.034L77.013 7h-.938v6h.77V9.263Z"
            fill="#fff"
        />
        <path
            clip-rule="evenodd"
            d="M47.876 9.791h-2.908v.721h2.18c-.06.586-.295 1.047-.688 1.382-.394.335-.897.503-1.492.503a2.253 2.253 0 0 1-1.659-.679c-.444-.46-.67-1.03-.67-1.718 0-.687.226-1.257.67-1.718a2.256 2.256 0 0 1 1.66-.678c.334 0 .653.058.946.184.293.126.528.302.712.528l.553-.553a2.503 2.503 0 0 0-.963-.662 3.284 3.284 0 0 0-1.249-.235c-.872 0-1.609.302-2.212.905-.604.604-.905 1.35-.905 2.23 0 .88.301 1.625.905 2.228.603.604 1.34.905 2.212.905.913 0 1.642-.293 2.204-.888.494-.494.746-1.165.746-2.003 0-.142-.017-.293-.042-.452Zm1.148-2.79v6h3.503v-.738h-2.732v-1.902h2.463v-.72h-2.463V7.737h2.732V7h-3.503Zm8.43.737V7H53.33v.738h1.676V13h.77V7.738h1.676ZM61.207 7h-.77v6h.77V7Zm5.095.738V7H62.18v.738h1.676V13h.771V7.738h1.676Zm7.802.042c-.595-.612-1.324-.914-2.196-.914-.872 0-1.6.302-2.196.905-.595.595-.888 1.341-.888 2.23 0 .888.293 1.633.888 2.228.595.604 1.324.905 2.196.905.863 0 1.601-.3 2.196-.905.595-.595.888-1.34.888-2.229 0-.88-.293-1.625-.888-2.22Zm-3.838.502c.444-.452.988-.678 1.642-.678.654 0 1.198.226 1.634.678.444.445.662 1.023.662 1.718 0 .696-.218 1.274-.662 1.718-.436.453-.98.68-1.634.68-.654 0-1.198-.227-1.642-.68-.436-.452-.654-1.022-.654-1.718 0-.695.218-1.265.654-1.718Zm6.58.981-.035-1.157h.034L79.896 13h.804V7h-.77v3.512l.033 1.156h-.034L77.013 7h-.938v6h.771V9.263Z"
            stroke="#fff"
            stroke-width=".2"
            stroke-miterlimit="2"
        />
        <path
            d="M107.436 30h1.866V17.5h-1.866V30Zm16.807-7.998-2.139 5.42h-.064l-2.22-5.42h-2.01l3.33 7.576-1.899 4.213h1.946L126.318 22h-2.075ZM113.66 28.58c-.61 0-1.463-.306-1.463-1.062 0-.965 1.062-1.335 1.978-1.335.82 0 1.207.177 1.705.418a2.263 2.263 0 0 1-2.22 1.979Zm.226-6.852c-1.351 0-2.75.595-3.329 1.914l1.656.69c.354-.69 1.013-.915 1.705-.915.965 0 1.946.579 1.962 1.608v.129c-.338-.193-1.062-.483-1.946-.483-1.786 0-3.603.98-3.603 2.815 0 1.673 1.464 2.75 3.104 2.75 1.254 0 1.947-.563 2.38-1.222h.065v.965h1.802v-4.793c0-2.22-1.658-3.458-3.796-3.458Zm-11.532 1.795H99.7v-4.285h2.654c1.395 0 2.187 1.155 2.187 2.143 0 .969-.792 2.142-2.187 2.142Zm-.048-6.025h-4.472V30H99.7v-4.737h2.606c2.068 0 4.101-1.497 4.101-3.882s-2.033-3.883-4.101-3.883ZM77.924 28.583c-1.289 0-2.368-1.08-2.368-2.561 0-1.5 1.079-2.594 2.368-2.594 1.273 0 2.272 1.095 2.272 2.594 0 1.48-.999 2.56-2.272 2.56Zm2.143-5.88h-.065c-.419-.5-1.224-.951-2.239-.951-2.127 0-4.076 1.869-4.076 4.27 0 2.384 1.949 4.236 4.076 4.236 1.015 0 1.82-.451 2.239-.966h.065v.612c0 1.627-.87 2.497-2.272 2.497-1.143 0-1.852-.821-2.142-1.514l-1.627.676c.467 1.128 1.707 2.514 3.769 2.514 2.192 0 4.044-1.29 4.044-4.431V22.01h-1.772v.693ZM83.128 30h1.87V17.499h-1.87V30Zm4.623-4.125c-.047-1.643 1.274-2.48 2.224-2.48.741 0 1.37.37 1.58.9l-3.804 1.58Zm5.8-1.417c-.354-.951-1.433-2.707-3.64-2.707-2.192 0-4.012 1.724-4.012 4.253 0 2.385 1.805 4.253 4.221 4.253 1.95 0 3.077-1.192 3.545-1.884l-1.45-.967c-.484.709-1.144 1.176-2.095 1.176-.95 0-1.627-.435-2.062-1.29l5.687-2.351-.194-.483Zm-45.308-1.402v1.804h4.318c-.129 1.015-.467 1.756-.983 2.272-.628.628-1.611 1.32-3.335 1.32-2.658 0-4.736-2.141-4.736-4.8 0-2.658 2.078-4.801 4.736-4.801 1.434 0 2.481.564 3.255 1.289l1.272-1.273c-1.079-1.031-2.513-1.82-4.527-1.82-3.641 0-6.702 2.964-6.702 6.605 0 3.64 3.061 6.605 6.702 6.605 1.965 0 3.448-.644 4.608-1.852 1.192-1.193 1.563-2.868 1.563-4.221a5.92 5.92 0 0 0-.097-1.128h-6.074Zm11.079 5.526c-1.289 0-2.401-1.063-2.401-2.578 0-1.53 1.112-2.577 2.401-2.577 1.289 0 2.401 1.047 2.401 2.577 0 1.515-1.112 2.578-2.401 2.578Zm0-6.831c-2.352 0-4.269 1.789-4.269 4.253 0 2.449 1.917 4.253 4.269 4.253 2.352 0 4.269-1.804 4.269-4.253 0-2.464-1.917-4.253-4.269-4.253Zm9.313 6.83c-1.288 0-2.4-1.062-2.4-2.577 0-1.53 1.112-2.577 2.4-2.577 1.289 0 2.401 1.047 2.401 2.577 0 1.515-1.112 2.578-2.401 2.578Zm0-6.83c-2.352 0-4.269 1.789-4.269 4.253 0 2.449 1.917 4.253 4.269 4.253 2.353 0 4.27-1.804 4.27-4.253 0-2.464-1.917-4.253-4.27-4.253Z"
            fill="#fff"
        />
        <path
            d="m21.217 19.425-10.647 11.3a2.873 2.873 0 0 0 4.238 1.741l.034-.02 11.984-6.915-5.61-6.106Z"
            fill="#EB4335"
        />
        <path
            d="m31.988 17.501-.01-.007-5.174-3-5.829 5.187 5.85 5.848 5.146-2.969a2.876 2.876 0 0 0 .017-5.059Z"
            fill="#FABC13"
        />
        <path
            d="M10.57 9.278a2.817 2.817 0 0 0-.098.74v19.967c0 .257.033.505.098.74l11.013-11.011L10.57 9.278Z"
            fill="#547DBF"
        />
        <path
            d="m21.295 20.001 5.51-5.509-11.97-6.94a2.878 2.878 0 0 0-4.265 1.723v.003l10.725 10.723Z"
            fill="#30A851"
        />
    </g>
    <defs>
        <clipPath id="getitongplaya">
            <path fill="#fff" transform="translate(.5)" d="M0 0h135v40H0z" />
        </clipPath>
    </defs>
</svg>
