<svg width="138" height="36" fill="none" xmlns="http://www.w3.org/2000/svg">
    <g clip-path="url(#feature-tour-proton-vpn-logo)">
        <path
            d="M119.843 10.897h-6.572v14.25h2.603V21.6a1.305 1.305 0 0 1 1.302-1.303h2.667a4.683 4.683 0 0 0 4.683-4.689 4.693 4.693 0 0 0-2.887-4.352 4.646 4.646 0 0 0-1.796-.36Zm2.051 4.674a2.216 2.216 0 0 1-1.374 2.053 2.197 2.197 0 0 1-.851.168h-3.806v-4.44h3.806a2.227 2.227 0 0 1 1.574.655 2.22 2.22 0 0 1 .645 1.578l.006-.014ZM104.127 25.095l-5.244-14.239h2.962l3.451 10.19c.136.366.234.742.292 1.127h.029c.043-.388.142-.767.292-1.126l3.463-10.19h2.982l-5.271 14.238h-2.956ZM125.501 25.095V10.853h2.282l6.717 8.832c.243.304.451.632.628.98h.04c-.046-.43-.066-.86-.064-1.292v-8.52h2.691v14.239h-2.283l-6.737-8.832a6.511 6.511 0 0 1-.624-.98h-.024c.038.43.052.86.044 1.292v8.52h-2.67v.003Z"
            fill="#6D4AFF"
        />
        <path
            d="M38 21.26v3.664h2.56V21.42a1.282 1.282 0 0 1 1.279-1.286h2.624a4.592 4.592 0 0 0 3.261-1.361 4.652 4.652 0 0 0 1.351-3.28c0-1.228-.486-2.41-1.35-3.281a4.603 4.603 0 0 0-3.265-1.358H38v4.58h2.56v-2.159h3.73c.58 0 1.134.232 1.544.644a2.2 2.2 0 0 1 0 3.104c-.41.412-.964.644-1.544.644h-2.71a3.551 3.551 0 0 0-2.528 1.055 3.65 3.65 0 0 0-.776 1.166A3.54 3.54 0 0 0 38 21.259ZM49.47 24.924v-5.583c0-2.279 1.322-4.091 3.97-4.091a5.09 5.09 0 0 1 1.262.14v2.296c-.301-.02-.56-.02-.682-.02-1.402 0-2.005.646-2.005 1.955v5.303H49.47ZM55.464 20.19c0-2.802 2.104-4.937 5.033-4.937 2.929 0 5.033 2.135 5.033 4.937 0 2.802-2.104 4.957-5.033 4.957-2.929 0-5.033-2.158-5.033-4.957Zm7.558 0c0-1.592-1.064-2.722-2.525-2.722-1.465 0-2.525 1.127-2.525 2.722 0 1.612 1.063 2.722 2.525 2.722 1.464 0 2.525-1.113 2.525-2.722ZM73.668 20.19c0-2.802 2.104-4.937 5.032-4.937 2.926 0 5.03 2.135 5.03 4.937 0 2.802-2.104 4.957-5.03 4.957-2.928 0-5.032-2.158-5.032-4.957Zm7.554 0c0-1.592-1.063-2.722-2.524-2.722-1.462 0-2.525 1.127-2.525 2.722 0 1.612 1.063 2.722 2.525 2.722 1.461 0 2.525-1.113 2.525-2.722ZM85.053 24.924v-5.38c0-2.499 1.583-4.294 4.41-4.294 2.806 0 4.39 1.792 4.39 4.294v5.38h-2.525v-5.18c0-1.39-.623-2.259-1.865-2.259-1.243 0-1.865.867-1.865 2.259v5.18h-2.545ZM72.906 17.488h-2.747v3.528c0 1.23.44 1.793 1.703 1.793.12 0 .42 0 .802-.02v2.075c-.52.14-.981.223-1.484.223-2.124 0-3.569-1.29-3.569-3.728v-3.87h-1.706v-2.036h.427c.167 0 .335-.034.489-.097a1.285 1.285 0 0 0 .694-.698c.065-.157.096-.323.096-.492v-1.918h2.545v3.205h2.747v2.035h.003Z"
            fill="#1B1340"
        />
        <path
            fill-rule="evenodd"
            clip-rule="evenodd"
            d="M11.247 29.149c1.064 1.913 3.797 2.017 5.005.19l11.265-17.035c1.195-1.806.052-4.228-2.111-4.475L3.263 5.31C.903 5.041-.778 7.53.37 9.595l.09.16 9.88 6.77-.12 10.77 1.027 1.854Z"
            fill="url(#feature-tour-proton-vpn-logo-b)"
        />
        <path
            d="m11.881 27.364 1-1.49 7.594-11.472c.664-1.003.03-2.349-1.171-2.487L.457 9.751l9.763 17.552a.979.979 0 0 0 1.661.061Z"
            fill="url(#feature-tour-proton-vpn-logo-c)"
        />
    </g>
    <defs>
        <radialGradient
            id="feature-tour-proton-vpn-logo-c"
            cx="0"
            cy="0"
            r="1"
            gradientUnits="userSpaceOnUse"
            gradientTransform="rotate(93.755 5.15 6.434) scale(28.5876 36.8668)"
        >
            <stop offset=".403" stop-color="#6D4AFF" />
            <stop offset=".994" stop-color="#00F0C3" />
        </radialGradient>
        <linearGradient
            id="feature-tour-proton-vpn-logo-b"
            x1="25.32"
            y1="29.148"
            x2="7.303"
            y2="-1.922"
            gradientUnits="userSpaceOnUse"
        >
            <stop offset=".066" stop-color="#8EFFEE" />
            <stop offset=".45" stop-color="#C9C7FF" />
            <stop offset="1" stop-color="#7341FF" />
        </linearGradient>
        <clipPath id="feature-tour-proton-vpn-logo">
            <path fill="#fff" d="M0 0h138v36H0z" />
        </clipPath>
    </defs>
</svg>
