<svg xmlns="http://www.w3.org/2000/svg" width="384" height="216" fill="none" viewBox="0 0 384 216">
  <defs/>
  <path fill="#38385F" d="M344.58 170.43a.89.89 0 011.6.03l6.45 13.9H337.3l7.27-13.93z"/>
  <path fill="#5AD098" d="M240.1 170.43a.89.89 0 011.6.03l6.45 13.9h-15.31l7.27-13.93zm117.23.52a.89.89 0 011.6.53v12.88h-11.7l10.1-13.41z"/>
  <path fill="url(#paint0_linear)" d="M272.5 128.13H119.71a2.74 2.74 0 01-2.72-2.75V98.75c0-1.5 1.23-2.75 2.72-2.75h152.75c1.51 0 2.72 1.24 2.72 2.75v26.63a2.71 2.71 0 01-2.7 2.75z" opacity=".3"/>
  <path fill="#EA795A" d="M316.73 113.7h-15.5v70.11h15.5V113.7z"/>
  <path fill="url(#paint1_linear)" d="M316.73 155.62l-15.5-8.38v-29.01h15.5v37.4z"/>
  <path fill="url(#paint2_linear)" d="M359.07 127.41h-97.75a2.83 2.83 0 01-2.83-2.83V96.94a22.81 22.81 0 0122.81-22.82h54.9A22.81 22.81 0 01359 96.94v30.47h.06z"/>
  <path fill="url(#paint3_linear)" d="M301.22 127.41h-39.69V96.88a19.84 19.84 0 0139.66 0v30.53h.03z"/>
  <path fill="url(#paint4_linear)" d="M301.04 127.08h-39.69V96.55a19.84 19.84 0 0139.66 0v30.53h.03z"/>
  <path fill="url(#paint5_linear)" d="M282.13 127.8h-42.77a2.74 2.74 0 01-2.72-2.76V98.41c0-1.5 1.23-2.75 2.72-2.75h42.75c1.51 0 2.72 1.24 2.72 2.75v26.63a2.71 2.71 0 01-2.7 2.75z"/>
  <path fill="url(#paint6_linear)" d="M258.98 114.16a2.76 2.76 0 003.5 0l21.59-17.78a2.75 2.75 0 00-1.86-.72h-42.95c-.72 0-1.37.28-1.86.72l21.58 17.78z"/>
  <path fill="url(#paint7_linear)" fill-rule="evenodd" d="M320.48 67.83h17.06c.96 0 1.73-.77 1.73-1.73V53.73c0-.95-.77-1.73-1.73-1.73h-21.53a1.73 1.73 0 00-1.73 1.73v48.07a3.12 3.12 0 003.1 3.1 3.1 3.1 0 003.1-3.1V67.83z" clip-rule="evenodd"/>
  <path fill="url(#paint8_linear)" d="M301.22 127.41h-3.85v1.73h-35.84l-9.87 7.1s-2.53 1.85-3.28 4.44l-.2-.24v1.67c0 1.29.53 2.72 2 4.12 4.64 3.94 21.61 5.13 34.16-4.32 12.53-9.46 16.88-12.8 16.88-12.8v-1.7z"/>
  <path fill="#B8E2FF" d="M261.53 127.41l-9.87 7.1s-6.74 4.95-1.49 10.02c4.65 3.93 21.62 5.13 34.17-4.32 12.56-9.46 16.88-12.8 16.88-12.8h-39.69z"/>
  <path fill="#fff" d="M317.38 103.35a1.46 1.46 0 100-2.92 1.46 1.46 0 000 2.92z"/>
  <g opacity=".7">
    <path fill="#6D6D6D" d="M42.56 170.43a.89.89 0 011.6.03l6.44 13.9H35.29l7.27-13.93z"/>
    <path fill="#E1E1E1" d="M32.11 170.43a.89.89 0 011.6.03l6.44 13.9H24.84l7.27-13.93zm110.16.52a.89.89 0 011.6.53v12.88h-11.7l10.1-13.41zm-67.5-57.25H90.3v70.11H74.77V113.7z"/>
    <path fill="url(#paint9_linear)" d="M74.78 155.62l15.5-8.38v-29.01h-15.5v37.4z"/>
    <path fill="url(#paint10_linear)" d="M32 127.29h97.75a2.83 2.83 0 002.83-2.84V96.81A22.81 22.81 0 00109.77 74h-54.9a22.81 22.81 0 00-22.81 22.81v30.48H32z"/>
    <path fill="url(#paint11_linear)" d="M90.46 127.08h39.7V96.55a19.84 19.84 0 00-39.67 0v30.53h-.03z"/>
    <path fill="url(#paint12_linear)" fill-rule="evenodd" d="M40.67 104.74v17.06a1.73 1.73 0 01-1.73 1.73H26.57a1.73 1.73 0 01-1.73-1.73v-21.53c0-.95.77-1.73 1.73-1.73h48.07c1.7 0 3.1 1.4 3.1 3.1a3.1 3.1 0 01-3.1 3.1H40.67z" clip-rule="evenodd"/>
    <path fill="url(#paint13_linear)" d="M90.28 127.41h3.85v1.73h35.84l9.87 7.1s2.54 1.85 3.28 4.44l.21-.24v1.67c0 1.28-.53 2.72-2 4.12-4.65 3.93-21.61 5.13-34.17-4.33a3191.65 3191.65 0 01-16.87-12.79v-1.7z"/>
    <path fill="#E1E1E1" d="M129.97 127.41l9.87 7.1s6.74 4.95 1.5 10.02c-4.66 3.93-21.62 5.13-34.18-4.32a2070.63 2070.63 0 01-16.88-12.8h39.7z"/>
    <path fill="#fff" d="M74.12 103.35a1.46 1.46 0 110-2.93 1.46 1.46 0 010 2.93z"/>
  </g>
  <defs>
    <linearGradient id="paint0_linear" x1="131" x2="275" y1="112" y2="112" gradientUnits="userSpaceOnUse">
      <stop stop-color="#BEBEBE" stop-opacity="0"/>
      <stop offset="1" stop-color="#BEBEBE"/>
    </linearGradient>
    <linearGradient id="paint1_linear" x1="308.9" x2="308.9" y1="127.68" y2="144.78" gradientUnits="userSpaceOnUse">
      <stop stop-color="#0D0A44"/>
      <stop offset="1" stop-color="#0D0A44" stop-opacity="0"/>
    </linearGradient>
    <linearGradient id="paint2_linear" x1="308.78" x2="308.78" y1="74.13" y2="127.41" gradientUnits="userSpaceOnUse">
      <stop stop-color="#B9E2FF"/>
      <stop offset="1" stop-color="#73B5E4"/>
    </linearGradient>
    <linearGradient id="paint3_linear" x1="294.79" x2="261.87" y1="92.62" y2="127.25" gradientUnits="userSpaceOnUse">
      <stop stop-color="#0D0A44"/>
      <stop offset="1" stop-color="#0D0A44" stop-opacity="0"/>
    </linearGradient>
    <linearGradient id="paint4_linear" x1="294.61" x2="261.69" y1="92.28" y2="126.92" gradientUnits="userSpaceOnUse">
      <stop stop-color="#0D0A44"/>
      <stop offset="1" stop-color="#0D0A44" stop-opacity="0"/>
    </linearGradient>
    <linearGradient id="paint5_linear" x1="260.73" x2="260.73" y1="95.66" y2="120.91" gradientUnits="userSpaceOnUse">
      <stop stop-color="#C1DEF8"/>
      <stop offset="1" stop-color="#ECFAFF"/>
    </linearGradient>
    <linearGradient id="paint6_linear" x1="260.74" x2="260.74" y1="87.63" y2="109.81" gradientUnits="userSpaceOnUse">
      <stop stop-color="#DEEBF7"/>
      <stop offset="1" stop-color="#fff"/>
    </linearGradient>
    <linearGradient id="paint7_linear" x1="326.78" x2="326.78" y1="52" y2="104.9" gradientUnits="userSpaceOnUse">
      <stop stop-color="#EB7A75"/>
      <stop offset="1" stop-color="#E02626"/>
    </linearGradient>
    <linearGradient id="paint8_linear" x1="260.16" x2="286.24" y1="128.53" y2="147.35" gradientUnits="userSpaceOnUse">
      <stop stop-color="#B9E2FF"/>
      <stop offset="1" stop-color="#1571B3"/>
    </linearGradient>
    <linearGradient id="paint9_linear" x1="82.61" x2="82.61" y1="127.68" y2="144.78" gradientUnits="userSpaceOnUse">
      <stop stop-color="#6D6D6D"/>
      <stop offset="1" stop-color="#6D6D6D" stop-opacity="0"/>
    </linearGradient>
    <linearGradient id="paint10_linear" x1="82.29" x2="82.29" y1="86.38" y2="127.29" gradientUnits="userSpaceOnUse">
      <stop stop-color="#E1E1E1"/>
      <stop offset="1" stop-color="#BEBEBE"/>
    </linearGradient>
    <linearGradient id="paint11_linear" x1="96.89" x2="129.81" y1="92.28" y2="126.92" gradientUnits="userSpaceOnUse">
      <stop stop-color="#1F1F1F"/>
      <stop offset="1" stop-color="#6D6D6D" stop-opacity="0"/>
    </linearGradient>
    <linearGradient id="paint12_linear" x1="27.5" x2="48" y1="90.5" y2="120.5" gradientUnits="userSpaceOnUse">
      <stop stop-color="#DFDFDF"/>
      <stop offset=".97" stop-color="#9E9E9E"/>
    </linearGradient>
    <linearGradient id="paint13_linear" x1="131.35" x2="105.27" y1="128.53" y2="147.34" gradientUnits="userSpaceOnUse">
      <stop stop-color="#E9E9E9"/>
      <stop offset="1" stop-color="#A5A5A5"/>
    </linearGradient>
  </defs>
</svg>
