<svg xmlns="http://www.w3.org/2000/svg" width="384" height="216" fill="none" viewBox="0 0 384 216">
  <defs/>
  <path fill="#EA795A" d="M205.03 115.91h-16.78v75.87h16.78V115.9z"/>
  <path fill="url(#paint0_linear)" d="M205.03 161.28l-16.78-9.07v-31.4h16.78v40.47z"/>
  <path fill="url(#paint1_linear)" d="M261.62 132.71h-120.9a3.4 3.4 0 01-3.4-3.4V96.07a27.43 27.43 0 0127.43-27.43h69.37a27.43 27.43 0 0127.43 27.43v36.64h.07z"/>
  <path fill="url(#paint2_linear)" d="M188.48 132.31h-47.72V95.6a23.86 23.86 0 0147.69 0v36.71h.03z"/>
  <path fill="url(#paint3_linear)" d="M165.74 133.17h-51.43a3.3 3.3 0 01-3.27-3.3V97.84a3.3 3.3 0 013.27-3.3h51.41a3.3 3.3 0 013.27 3.3v32.03a3.26 3.26 0 01-3.25 3.3z"/>
  <path fill="url(#paint4_linear)" d="M137.9 116.78c1.22 1 3 1 4.21 0l25.97-21.38a3.3 3.3 0 00-2.23-.86h-51.66a3.3 3.3 0 00-2.22.86l25.94 21.38z"/>
  <path fill="url(#paint5_linear)" fill-rule="evenodd" d="M214.91 59.04h20.52c1.14 0 2.07-.93 2.07-2.08V42.08c0-1.15-.93-2.08-2.07-2.08h-25.9c-1.14 0-2.07.93-2.07 2.08v59.83a3.73 3.73 0 107.46 0V59.04z" clip-rule="evenodd"/>
  <path fill="url(#paint6_linear)" d="M188.7 132.71h-4.63v2.08h-43.1l-11.86 8.54s-3.05 2.22-3.95 5.34l-.25-.29v2c0 1.55.65 3.27 2.4 4.96 5.6 4.73 26 6.16 41.1-5.2 15.06-11.37 20.29-15.38 20.29-15.38v-2.05z"/>
  <path fill="#B8E2FF" d="M140.98 132.71l-11.87 8.54s-8.1 5.95-1.8 12.04c5.6 4.74 26 6.17 41.1-5.2 15.1-11.36 20.3-15.38 20.3-15.38h-47.73z"/>
  <path fill="#fff" d="M211.19 103.78a1.76 1.76 0 100-3.52 1.76 1.76 0 000 3.52z"/>
  <path fill="#38385F" d="M249.7 178.36a.96.96 0 011.73.04l6.31 13.6H242.6l7.12-13.64z"/>
  <path fill="#5AD098" d="M131.33 178.36a.96.96 0 011.72.04l6.31 13.6h-15.15l7.12-13.64zM262.25 178.92a.96.96 0 011.73.58V192H252.4l9.86-13.08z"/>
  <path fill="#CED2E2" d="M73.38 154.77a4.38 4.38 0 100-8.77 4.38 4.38 0 000 8.77zM315 80l-5.5-9-5.5 9h11z" opacity=".45"/>
  <path fill="url(#paint7_linear)" d="M77 62a26 26 0 0152 0v26h-26a26 26 0 01-26-26z"/>
  <path fill="#fff" fill-rule="evenodd" d="M112.26 51.26a7.22 7.22 0 00-9.1 1.06l-11 11a4.91 4.91 0 003.38 8.42 5.51 5.51 0 003.83-1.62l9.51-9.51a2.92 2.92 0 00-4.12-4.14l-6.34 6.34 1.25 1.25 6.32-6.34a1.16 1.16 0 011.64 1.64l-9.49 9.5a3.52 3.52 0 01-4.4.53 3.22 3.22 0 01-.35-4.82l11-11a5.47 5.47 0 016.87-.85c1.3.88 2.15 2.3 2.3 3.86a5.29 5.29 0 01-1.51 4.17l-9.3 9.26 1.24 1.25 9.27-9.26a7.04 7.04 0 00-1-10.74z" clip-rule="evenodd"/>
  <path fill="url(#paint8_linear)" d="M273 135a26 26 0 1152 0 26 26 0 01-52 0z"/>
  <path fill="#fff" fill-rule="evenodd" d="M305.33 127.25v2.66h2.6c.88 0 1.64.72 1.64 1.64v13.88c0 .9-.72 1.64-1.64 1.64h-17.5c-.9 0-1.64-.72-1.64-1.64v-13.88c0-.9.71-1.64 1.63-1.64h2.56v-2.66a6.17 6.17 0 1112.35 0zm-2.6 0v2.66h-7.08v-2.66c0-2.46 1.88-3.54 3.54-3.54 1.67 0 3.54 1.08 3.54 3.54zm-3.22 7.3c1.2 0 2.15.95 2.15 2.15 0 .82-.45 1.53-1.13 1.88l.89 3.82h-3.82l.88-3.83a2.14 2.14 0 011.02-4.03z" clip-rule="evenodd"/>
  <defs>
    <linearGradient id="paint0_linear" x1="196.56" x2="196.56" y1="131.04" y2="149.55" gradientUnits="userSpaceOnUse">
      <stop stop-color="#0D0A44"/>
      <stop offset="1" stop-color="#0D0A44" stop-opacity="0"/>
    </linearGradient>
    <linearGradient id="paint1_linear" x1="197.79" x2="197.79" y1="68.64" y2="132.71" gradientUnits="userSpaceOnUse">
      <stop stop-color="#B9E2FF"/>
      <stop offset="1" stop-color="#73B5E4"/>
    </linearGradient>
    <linearGradient id="paint2_linear" x1="180.75" x2="141.17" y1="90.47" y2="132.12" gradientUnits="userSpaceOnUse">
      <stop stop-color="#0D0A44"/>
      <stop offset="1" stop-color="#0D0A44" stop-opacity="0"/>
    </linearGradient>
    <linearGradient id="paint3_linear" x1="140.02" x2="140.02" y1="94.54" y2="124.89" gradientUnits="userSpaceOnUse">
      <stop stop-color="#C1DEF8"/>
      <stop offset="1" stop-color="#ECFAFF"/>
    </linearGradient>
    <linearGradient id="paint4_linear" x1="140.02" x2="140.02" y1="84.88" y2="111.55" gradientUnits="userSpaceOnUse">
      <stop stop-color="#DEEBF7"/>
      <stop offset="1" stop-color="#fff"/>
    </linearGradient>
    <linearGradient id="paint5_linear" x1="222.48" x2="222.48" y1="42.04" y2="105.64" gradientUnits="userSpaceOnUse">
      <stop stop-color="#EB7A75"/>
      <stop offset="1" stop-color="#E02626"/>
    </linearGradient>
    <linearGradient id="paint6_linear" x1="139.33" x2="170.69" y1="134.06" y2="156.68" gradientUnits="userSpaceOnUse">
      <stop stop-color="#B9E2FF"/>
      <stop offset="1" stop-color="#1571B3"/>
    </linearGradient>
    <linearGradient id="paint7_linear" x1="84" x2="123.26" y1="37.91" y2="86.7" gradientUnits="userSpaceOnUse">
      <stop offset=".01" stop-color="#66A3FF"/>
      <stop offset="1" stop-color="#CC63FE"/>
    </linearGradient>
    <linearGradient id="paint8_linear" x1="299" x2="299" y1="115.04" y2="166.57" gradientUnits="userSpaceOnUse">
      <stop stop-color="#FFD66C"/>
      <stop offset="1" stop-color="#FF658A"/>
    </linearGradient>
  </defs>
</svg>
