<svg width="80" height="90" viewBox="0 0 80 90" fill="none" xmlns="http://www.w3.org/2000/svg">
    <rect width="80" height="80" rx="20" fill="url(#paint0_linear_3263_55790)" />
    <g filter="url(#filter0_ddd_3263_55790)">
        <path
            fill-rule="evenodd"
            clip-rule="evenodd"
            d="M31.8333 28.9286C31.5112 28.9286 31.2479 28.6666 31.27 28.3451C31.5761 23.8834 35.3677 20.3571 40 20.3571C44.6323 20.3571 48.4239 23.8834 48.73 28.3452C48.7521 28.6666 48.4888 28.9286 48.1667 28.9286H31.8333ZM28.2787 28.9867C28.3095 28.9848 28.3333 28.9594 28.3333 28.9286C28.3333 22.6167 33.5567 17.5 40 17.5C46.4433 17.5 51.6667 22.6167 51.6667 28.9286C51.6667 28.9594 51.6905 28.9848 51.7213 28.9867C52.8521 29.0568 54.1332 29.2111 54.8149 29.5514C55.9126 30.0992 56.8049 30.9734 57.3642 32.0486C58 33.271 58 34.8711 58 38.0714V48.8571C58 52.0574 58 53.6576 57.3642 54.8799C56.8049 55.9552 55.9126 56.8293 54.8149 57.3772C53.5671 58 51.4336 58 48.1667 58H31.8333C28.5664 58 26.4329 58 25.1851 57.3772C24.0874 56.8293 23.1951 55.9552 22.6358 54.8799C22 53.6576 22 52.0574 22 48.8571V38.0714C22 34.8711 22 33.271 22.6358 32.0486C23.1951 30.9734 24.0874 30.0992 25.1851 29.5514C25.8668 29.2111 27.1479 29.0568 28.2787 28.9867ZM41.3727 42.8787C42.2915 42.3977 42.9167 41.449 42.9167 40.3571C42.9167 38.7792 41.6108 37.5 40 37.5C38.3892 37.5 37.0833 38.7792 37.0833 40.3571C37.0833 41.449 37.7085 42.3977 38.6273 42.8787L37.3551 47.8635C37.2171 48.4045 37.4307 49 38 49H42C42.5693 49 42.7829 48.4045 42.6449 47.8635L41.3727 42.8787Z"
            fill="url(#paint1_linear_3263_55790)"
        />
    </g>
    <path
        opacity="0.3"
        d="M73 21.5L69.25 20.1151L67.5241 19.4759L66.8849 17.75L65.5 14L64.1151 17.75L63.4759 19.4759L61.75 20.1151L58 21.5L61.75 22.8849L63.4759 23.5241L64.1151 25.25L65.5 29L66.8849 25.25L67.5241 23.5241L69.25 22.8849L73 21.5Z"
        fill="#6D4AFF"
    />
    <path
        opacity="0.3"
        d="M20 26.5L17.75 25.669L16.7145 25.2855L16.331 24.25L15.5 22L14.669 24.25L14.2855 25.2855L13.25 25.669L11 26.5L13.25 27.331L14.2855 27.7145L14.669 28.75L15.5 31L16.331 28.75L16.7145 27.7145L17.75 27.331L20 26.5Z"
        fill="#6D4AFF"
    />
    <defs>
        <filter
            id="filter0_ddd_3263_55790"
            x="3.25"
            y="11.25"
            width="73.5"
            height="78.6168"
            filterUnits="userSpaceOnUse"
            color-interpolation-filters="sRGB"
        >
            <feFlood flood-opacity="0" result="BackgroundImageFix" />
            <feColorMatrix
                in="SourceAlpha"
                type="matrix"
                values="0 0 0 0 0 0 0 0 0 0 0 0 0 0 0 0 0 0 127 0"
                result="hardAlpha"
            />
            <feOffset dy="2.77471" />
            <feGaussianBlur stdDeviation="1.25" />
            <feColorMatrix type="matrix" values="0 0 0 0 0.290196 0 0 0 0 0.176471 0 0 0 0 0.772549 0 0 0 0.04 0" />
            <feBlend mode="normal" in2="BackgroundImageFix" result="effect1_dropShadow_3263_55790" />
            <feColorMatrix
                in="SourceAlpha"
                type="matrix"
                values="0 0 0 0 0 0 0 0 0 0 0 0 0 0 0 0 0 0 127 0"
                result="hardAlpha"
            />
            <feOffset dy="13.1168" />
            <feGaussianBlur stdDeviation="9.375" />
            <feColorMatrix type="matrix" values="0 0 0 0 0.290196 0 0 0 0 0.176471 0 0 0 0 0.772549 0 0 0 0.05 0" />
            <feBlend mode="normal" in2="effect1_dropShadow_3263_55790" result="effect2_dropShadow_3263_55790" />
            <feColorMatrix
                in="SourceAlpha"
                type="matrix"
                values="0 0 0 0 0 0 0 0 0 0 0 0 0 0 0 0 0 0 127 0"
                result="hardAlpha"
            />
            <feOffset dy="6.25" />
            <feGaussianBlur stdDeviation="6.25" />
            <feColorMatrix type="matrix" values="0 0 0 0 0.290196 0 0 0 0 0.176471 0 0 0 0 0.772549 0 0 0 0.05 0" />
            <feBlend mode="normal" in2="effect2_dropShadow_3263_55790" result="effect3_dropShadow_3263_55790" />
            <feBlend mode="normal" in="SourceGraphic" in2="effect3_dropShadow_3263_55790" result="shape" />
        </filter>
        <linearGradient
            id="paint0_linear_3263_55790"
            x1="0"
            y1="80"
            x2="90.0394"
            y2="66.3829"
            gradientUnits="userSpaceOnUse"
        >
            <stop stop-color="#6D4AFF" stop-opacity="0.15" />
            <stop offset="1" stop-color="#461AFF" stop-opacity="0.04" />
        </linearGradient>
        <linearGradient
            id="paint1_linear_3263_55790"
            x1="54.2599"
            y1="5.93324"
            x2="29.0052"
            y2="61.4772"
            gradientUnits="userSpaceOnUse"
        >
            <stop stop-color="#EEBEFF" />
            <stop offset="1" stop-color="#5228FF" />
        </linearGradient>
    </defs>
</svg>
