<svg xmlns="http://www.w3.org/2000/svg" width="384" height="216" fill="none" viewBox="0 0 384 216">
  <defs/>
  <rect width="66" height="66" x="159.5" y="34" fill="url(#paint0_linear)" rx="16.3"/>
  <path fill="#fff" d="M192.12 51s-8.38-.29-10.12 9v6.34s.05.68 1.99 2.09c1.93 1.4 6.82 5.27 8.13 5.27 1.3 0 6.24-3.92 8.13-5.27 1.88-1.36 1.98-2.09 1.98-2.09V60c-1.7-9.29-10.11-9-10.11-9zm5.76 12.49H186.4v-3.44c.67-2.66 3-4.55 5.75-4.7a6.2 6.2 0 015.77 4.7v3.44h-.05z"/>
  <path fill="#fff" d="M192.12 75.1c-.83-.1-1.6-.38-2.33-.82L182 68.72v9.58c.05.68.63 1.16 1.26 1.11h17.67a1.2 1.2 0 001.3-1.06v-9.63s-6.77 4.84-7.8 5.56c-.67.44-1.44.73-2.31.82z"/>
  <path fill="url(#paint1_linear)" d="M192 199h-54.06a3.97 3.97 0 01-3.94-3.97V135h58v64z"/>
  <path fill="#FFE3BA" d="M133.82 135H192l-15.82-16H118l15.82 16z"/>
  <path fill="url(#paint2_linear)" d="M192 199h54.99a4 4 0 004.01-3.97V135h-59v64z"/>
  <path fill="#FFD390" d="M250.18 135H192l15.82-16H266l-15.82 16z"/>
  <path fill="#FFE3BA" d="M169 184h-17v15h17v-15z"/>
  <path fill="#FFD390" d="M247 144h-17v2h17v-2zM247 149h-17v2h17v-2z"/>
  <path fill="#80E5D4" d="M111.1 78.65L107.64 76 99 87.26l3.45 2.65 8.65-11.26z"/>
  <path fill="#FFD585" d="M266.18 66.6l-4.05-1.6L258 75.39l4.05 1.6 4.13-10.38z"/>
  <path fill="#657EE3" d="M129.27 90L126 92.88l9.38 10.65 3.27-2.88L129.27 90z"/>
  <path fill="#C580E5" d="M285.58 98.85L283.53 95 271 101.66l2.05 3.85 12.53-6.66z"/>
  <path fill="#EB75B3" d="M108.3 141.16a3.05 3.05 0 100-6.1 3.05 3.05 0 000 6.1z"/>
  <path fill="#FFB7B7" d="M118.61 39h-4.28l-2.14 3.7 2.14 3.74h4.28l2.18-3.74-2.18-3.7z"/>
  <path fill="#50506A" d="M304.43 58h-4.29L298 61.7l2.14 3.74h4.29l2.14-3.74-2.14-3.7zM74.79 91.68l-3.86 9.08 9.77-1.18-5.91-7.9z"/>
  <path fill="#EB75B3" d="M279 128.67l-7.73 6.1 9.19 3.63-1.45-9.73z"/>
  <defs>
    <linearGradient id="paint0_linear" x1="192" x2="192" y1="100" y2="34" gradientUnits="userSpaceOnUse">
      <stop stop-color="#5D7CF7"/>
      <stop offset="1" stop-color="#64A2FF"/>
    </linearGradient>
    <linearGradient id="paint1_linear" x1="172.33" x2="147.01" y1="135.51" y2="198.87" gradientUnits="userSpaceOnUse">
      <stop stop-color="#FFD391"/>
      <stop offset="1" stop-color="#FFA26D"/>
    </linearGradient>
    <linearGradient id="paint2_linear" x1="251.55" x2="192.48" y1="199" y2="134.96" gradientUnits="userSpaceOnUse">
      <stop stop-color="#FF7E62"/>
      <stop offset="1" stop-color="#FFA26D"/>
    </linearGradient>
  </defs>
</svg>
