<svg xmlns="http://www.w3.org/2000/svg" width="384" height="216" fill="none" viewBox="0 0 384 216">
    <path fill="url(#paint0_linear_5741_18656)" d="M192 199h-54.057c-2.169 0-3.943-1.788-3.943-3.974V135h58v64z" />
    <path fill="#FFE3BA" d="M133.82 135H192l-15.82-16H118l15.82 16z" />
    <path fill="url(#paint1_linear_5741_18656)" d="M192 199h54.989c2.206 0 4.011-1.788 4.011-3.974V135h-59v64z" />
    <path fill="#FFD390" d="M250.18 135H192l15.82-16H266l-15.82 16z" />
    <path fill="#FFE3BA" d="M169 184h-17v15h17v-15z" />
    <path fill="#FFD390" d="M247 144h-17v2h17v-2zM247 149h-17v2h17v-2z" />
    <path
        fill="#55E6B2"
        d="M109.909 63.74l-1.076-.827a1.5 1.5 0 00-2.103.277l-6.816 8.877a1.5 1.5 0 00.276 2.103l1.075.826a1.5 1.5 0 002.103-.277l6.817-8.877a1.5 1.5 0 00-.276-2.103z"
    />
    <path
        fill="#FFD585"
        d="M253.784 66.055l-1.26-.5a1.5 1.5 0 00-1.948.839l-3.022 7.602a1.5 1.5 0 00.84 1.948l1.26.5a1.5 1.5 0 001.948-.84l3.022-7.601a1.5 1.5 0 00-.84-1.948z"
    />
    <path
        fill="#6847F2"
        d="M136.144 86.99l-1.018.897a1.5 1.5 0 00-.135 2.117l7.396 8.4a1.5 1.5 0 002.117.136l1.018-.896a1.5 1.5 0 00.134-2.117l-7.395-8.401a1.5 1.5 0 00-2.117-.135z"
    />
    <path
        fill="#C867F6"
        d="M309.873 88.522l-.637-1.198a1.5 1.5 0 00-2.028-.62l-9.884 5.254a1.5 1.5 0 00-.62 2.028l.636 1.197a1.5 1.5 0 002.029.62l9.883-5.253a1.5 1.5 0 00.621-2.028z"
    />
    <path fill="#FF69B8" d="M96.05 122.098a3.049 3.049 0 100-6.098 3.049 3.049 0 000 6.098z" />
    <path
        fill="#FFA8A8"
        d="M124.86 24.74a1.5 1.5 0 00-1.293-.74h-2.56c-.536 0-1.03.285-1.299.749l-1.276 2.206a1.5 1.5 0 00-.003 1.497l1.28 2.235c.268.466.764.754 1.302.754h2.552a1.5 1.5 0 001.296-.745l1.302-2.235a1.5 1.5 0 00-.003-1.515l-1.298-2.207z"
    />
    <path
        fill="#321E86"
        d="M308.858 36.749A1.5 1.5 0 00307.56 36h-2.553c-.536 0-1.03.285-1.299.749l-1.276 2.206a1.5 1.5 0 00-.003 1.497l1.28 2.235c.268.466.764.754 1.302.754h2.544a1.5 1.5 0 001.302-.754l1.28-2.235a1.498 1.498 0 00-.003-1.497l-1.276-2.206zM67.353 75.765a1.5 1.5 0 00-2.581.312l-1.825 4.297a1.5 1.5 0 001.561 2.075l4.621-.56a1.5 1.5 0 001.02-2.388l-2.796-3.736z"
    />
    <path
        fill="#FF69B8"
        d="M283.113 132.558a1.5 1.5 0 00-2.412-.956l-3.654 2.882a1.5 1.5 0 00.377 2.572l4.341 1.716a1.5 1.5 0 002.035-1.616l-.687-4.598z"
    />
    <g>
        <path
            fill="url(#paint2_radial_5741_18656)"
            d="M175.299 77.307v15.6h10.95V77.984a5.478 5.478 0 015.475-5.475h11.227a19.75 19.75 0 0019.752-19.754A19.749 19.749 0 00202.951 33h-27.652v19.5h10.95v-9.195h15.961a9.347 9.347 0 019.347 9.345 9.346 9.346 0 01-9.347 9.346h-11.605a15.294 15.294 0 00-10.826 4.483 15.299 15.299 0 00-4.48 10.828z"
        />
        <path
            fill="url(#paint3_linear_5741_18656)"
            d="M191.721 72.507a16.423 16.423 0 00-16.422 16.422v3.976h10.95V77.982a5.475 5.475 0 015.472-5.475z"
        />
    </g>
    <defs>
        <linearGradient
            id="paint0_linear_5741_18656"
            x1="172.333"
            x2="147.012"
            y1="135.507"
            y2="198.865"
            gradientUnits="userSpaceOnUse"
        >
            <stop stop-color="#FFD391" />
            <stop offset="1" stop-color="#FFA26D" />
        </linearGradient>
        <linearGradient
            id="paint1_linear_5741_18656"
            x1="251.551"
            x2="192.479"
            y1="199"
            y2="134.958"
            gradientUnits="userSpaceOnUse"
        >
            <stop stop-color="#FF7E62" />
            <stop offset="1" stop-color="#FFA26D" />
        </linearGradient>
        <linearGradient
            id="paint3_linear_5741_18656"
            x1="183.51"
            x2="183.51"
            y1="89.955"
            y2="67.032"
            gradientUnits="userSpaceOnUse"
        >
            <stop stop-color="#6D4BFD" />
            <stop offset="1" stop-color="#1C0554" />
        </linearGradient>
        <radialGradient
            id="paint2_radial_5741_18656"
            cx="0"
            cy="0"
            r="1"
            gradientTransform="translate(222.871 24.683) scale(60.2955)"
            gradientUnits="userSpaceOnUse"
        >
            <stop stop-color="#A995FF" />
            <stop offset="1" stop-color="#6652F5" />
        </radialGradient>
    </defs>
</svg>
