<svg width="580" height="360" fill="none" xmlns="http://www.w3.org/2000/svg"><path d="M575.162 171.22c0 91.485-104.424 96.78-306.172 96.78C173.344 268 5 267.272 5 171.22 5 102 93.933 135.757 281.182 85.379 468.43 35 575.162 41 575.162 171.22z" fill="#474E6B"/><path fill-rule="evenodd" clip-rule="evenodd" d="M55.884 50.768a3.716 3.716 0 1 1 4.524 5.897 3.716 3.716 0 0 1-4.524-5.897z" fill="#2BCBBA"/><path fill-rule="evenodd" clip-rule="evenodd" d="M99.43 79.966L104.884 76l3.979 5.493-5.454 3.965-3.98-5.492zm380.57-41L485.455 35l3.978 5.493-5.453 3.965-3.98-5.492zm-36.57 132l5.454-3.966 3.979 5.493-5.454 3.965-3.979-5.492zm-308.43 61l5.455-3.966 3.978 5.493-5.453 3.965-3.98-5.492z" fill="#BABDC6"/><path fill-rule="evenodd" clip-rule="evenodd" d="M473.558 218.358a3.715 3.715 0 1 1 3.178 6.717 3.715 3.715 0 0 1-3.178-6.717zm10-108a3.715 3.715 0 1 1 3.178 6.717 3.715 3.715 0 0 1-3.178-6.717zm-405 46a3.716 3.716 0 1 1 3.178 6.717 3.716 3.716 0 0 1-3.178-6.717z" fill="#2BCBBA"/><ellipse cx="290.43" cy="328.5" rx="63" ry="7.5" fill="#262A33"/><path fill-rule="evenodd" clip-rule="evenodd" d="M291 228c-55.288-1.74-118.568-34.259-118.568-77.491V47.029l37.378-11.711a269.35 269.35 0 0 1 161.046 0l37.378 11.711v103.48c0 6.588-.508 13.094-1.462 19.491-5.306 35.581-65.229 59.59-115.772 58z" fill="url(#paint0_radial)"/><path fill-rule="evenodd" clip-rule="evenodd" d="M254.24 196.218l50.306 73.454c-4.227 10.455-1.218 22.551 5.499 31.786 12.643-6.642 30.328-18.57 49.995-39.657 20.68-22.174 38.613-51.472 45.338-83.995-16.108-9.87-32.282-20.133-48.192-29.312-14.186.233-46.175 24.262-102.946 47.724z" fill="#A0AFEC"/><path fill-rule="evenodd" clip-rule="evenodd" d="M358.5 244c21.084-6.59 37.478-41.855 36-42-26.793-2.623-59.247-9.476-80.5-26-27.196-21.145-47.977-52.174-75.065-73.458-25.677 16.574-45.455 31.37-66.505 49.359.235 23.921 7.132 46.743 17.725 67.099 8.335 16.015 111.363 42.811 168.345 25z" fill="#3C4B88"/><path fill-rule="evenodd" clip-rule="evenodd" d="M357.186 148.494c-.576.489 5.027 10.854 9.619 14.233 1.304.96 2.833 2.421 1.929 3.948-.471.796-1.401 1.204-2.323 1.153-2.855-.157-7.496-1.096-7.458 2.562.128 12.003 17.536 20.896 25.315 26.558 3.855 2.805 8.361 5.094 13.159 6.96 4.333-10.752 7.561-22.039 9.306-33.694-17.363-6.914-35.443-13.583-49.547-21.72z" fill="#C7D1F2"/><path fill-rule="evenodd" clip-rule="evenodd" d="M394.636 198.909c-26.793-2.624-52.782-12.981-74.035-29.505-27.197-21.147-54.58-45.58-81.67-66.865-.802.503 4.299 14.349 9.389 19.356 1.445 1.422 3.081 3.507 1.687 5.239-.725.902-1.95 1.242-3.086 1.015-3.51-.703-8.536-2.237-8.873 2.332-.339 4.578 5.097 7.423 7.9 8.765a59.24 59.24 0 0 1 11.446 7.205c3.718 2.98 2.103 8.962-2.611 9.658l-3.187.471c-4.466.66-6.956 7.045 1.679 15.45 14.039 13.661 30.651 17.711 48.012 21.582 28.211 6.292 64.749 10.804 94.762 13.608a163.493 163.493 0 0 0 3.038-7.614c-2.388-.4-3.992-.652-4.451-.697z" fill="#fff"/><path fill-rule="evenodd" clip-rule="evenodd" d="M360.041 261.802c14.371-15.409 27.408-34.262 36.289-55.243-72.81-1.866-120.052 25.14-182.394 14.349 0 0 57.166 54.905 94.021 81.625 12.744-6.398 31.31-18.457 52.084-40.731z" fill="#F4DFA4"/><path fill-rule="evenodd" clip-rule="evenodd" d="M290.311 309.361s31.053-6.091 69.729-47.559a203.085 203.085 0 0 0 5.869-6.588c-49.408-12.939-95.744-36.547-170.537-36.271-1.808.006-3.541.029-5.216.066 8.337 16.011 18.96 30.497 30.426 42.793 38.676 41.468 69.729 47.559 69.729 47.559z" fill="#FED42F"/><path fill-rule="evenodd" clip-rule="evenodd" d="M301.758 258.478c-16.187 11.536-37.378 19.381-55.928 26.71 26.091 20.548 44.481 24.173 44.481 24.173s10.658-2.102 27.25-12.16c2.006-8.443 6.926-20.163 10.217-30.826 4.596-14.891 4.4-21.279 2.818-21.79-3.942-1.273-7.914-2.561-11.928-3.847-1.195 3.669-5.264 9.44-16.91 17.74z" fill="#FFEDC0"/><path fill-rule="evenodd" clip-rule="evenodd" d="M295.675 224.52c-1.33-5.101 7.055-7.619 15.67-9.261l-10.816 1.942c-17.496 5.282-8.456 14.574-7.359 15.769 8.458 2.392 16.62 4.928 24.603 7.482-6.479-2-21.034-11.854-22.098-15.932z" fill="#fff"/><path d="M303.155 45h-33.591a4.576 4.576 0 0 0-4.634 4.517v39.79a4.578 4.578 0 0 0 4.516 4.634h33.71a4.576 4.576 0 0 0 4.634-4.516v-39.79A4.766 4.766 0 0 0 303.155 45zm-12.177 14.48h.021a3.651 3.651 0 0 1 3.77 3.528v.236a4.098 4.098 0 0 1-3.765 4.053 4.143 4.143 0 0 1-4.059-4.053 3.902 3.902 0 0 1 4.031-3.765h.002zm-16.775 31.564h-4.633a1.832 1.832 0 0 1-1.452-1.737h.007V49.634a1.367 1.367 0 0 1 1.455-1.452h4.627l-.004 42.862zM299.396 78.6a.926.926 0 0 1-.869.87H283.18a.924.924 0 0 1-.869-.87v-1.452a7.236 7.236 0 0 1 6.95-6.95h3.185a7.046 7.046 0 0 1 6.95 6.95V78.6z" fill="#fff"/><defs><radialGradient id="paint0_radial" cx="0" cy="0" r="1" gradientUnits="userSpaceOnUse" gradientTransform="rotate(97.96 49.018 177.909) scale(191.018 179.986)"><stop stop-color="#E1EAFF"/><stop offset="1" stop-color="#B2BFF4"/></radialGradient></defs></svg>