<svg xmlns="http://www.w3.org/2000/svg" width="549" height="280" fill="none">
  <defs/>
  <path fill="#EEEFF3" fill-rule="evenodd" d="M389.725 264.002c20.707-.049 41.586.79 54.118 2.61 12.233 1.776 10.544 4.108 7.31 6.31-3.63 2.473-6.273 5.327-26.167 6.533-20.61 1.25-44.86.093-66.547-.911-23.859-1.104-58.939.911-58.939-4.897 0-5.769 20.638-4.823 38.971-6.783 14.469-1.547 31.115-2.814 51.254-2.862z" clip-rule="evenodd"/>
  <path fill="#DAE0FF" d="M548.5 139.061c0 52.439-63.353 75.693-250 75.693-88.488 0-122 32.246-217.0001 7.246C40.2671 211.149.9999 179.993 1 139.061 1.0001-36.5 151.5 58.754 306 58.754s242.5-27.0001 242.5 80.307z"/>
  <mask id="a" width="233" height="169" x="248" y="79" maskUnits="userSpaceOnUse">
    <path fill="#fff" d="M248.593 79.8422h231.906V247.928H248.593V79.8422z"/>
  </mask>
  <g mask="url(#a)">
    <path fill="#A2B1EE" fill-rule="evenodd" d="M474.973 220.627L273.111 247.87c-3.491.471-6.704-1.978-7.175-5.469l-17.285-128.083c-.471-3.492 1.977-6.704 5.468-7.175l201.863-27.2428c3.491-.4709 6.703 1.9769 7.174 5.4688l17.286 128.083c.471 3.492-1.978 6.704-5.469 7.175z" clip-rule="evenodd"/>
  </g>
  <mask id="b" width="217" height="183" x="248" y="0" maskUnits="userSpaceOnUse">
    <path fill="#fff" d="M248.009 0h216.348v182.352H248.009V0z"/>
  </mask>
  <g mask="url(#b)">
    <path fill="url(#paint0_radial)" fill-rule="evenodd" d="M351.414 2.3349c-5.393-3.849-12.848-2.8425-17.028 2.298L250.739 107.512a9.9989 9.9989 0 00-2.151 7.647l.914 6.769 108.554 58.089c5.393 3.849 12.849 2.842 17.029-2.298l89.272-84.7875c-.225-1.668-.589-4.3608-.914-6.7708a10.0015 10.0015 0 00-4.101-6.8006L351.414 2.3349z" clip-rule="evenodd"/>
  </g>
  <path fill="#94A4E7" fill-rule="evenodd" d="M480.159 216.019l-107.683-57.622c-5.392-3.849-12.848-2.843-17.027 2.298l-88.558 84.108c1.357 2.121 3.856 3.386 6.517 3.026l201.27-27.162c2.659-.359 4.736-2.242 5.481-4.648z" clip-rule="evenodd"/>
  <path fill="#A2B1EE" fill-rule="evenodd" d="M412.923 73.7694c-6.161-.1148-13.241 9.142-29.157 19.4761 1.509 1.3418 3.246 2.4568 4.615 3.9816 5.013 5.5879-17.313 41.9179-29.399 66.7629-7.264 14.933-.656 17.681 19.822 8.244 13.56-11.088 33.072-28.86 60.397-55.41l4.624-4.392c-5.373-1.608-6.549-5.823-10.592-8.989l-20.31-29.6736zM417.254 76.5212c1.348.8665 2.768 1.7859 4.241 2.7439a615.2374 615.2374 0 00-4.241-2.7439z" clip-rule="evenodd"/>
  <path fill="#fff" fill-rule="evenodd" d="M417.253 76.5206c-1.542-.9921-2.997-1.9187-4.33-2.7511-.38.2996.141 6.0071 3.335 9.5017 3.079 3.3709 4.491 4.7926 3.879 5.7488-.32.4987-.923.7382-1.513.6853-1.823-.1651-4.771-.8701-4.828 1.471-.19 7.6826 20.668 20.1747 30.029 21.2557l12.208-11.595c-10.379-5.7086-23.888-14.6479-34.539-21.5726a952.5359 952.5359 0 00-4.241-2.7438z" clip-rule="evenodd"/>
  <path fill="#8298E9" fill-rule="evenodd" d="M341.932 52.7804c.003.0017.004.0034.006.0043-.002-.0009-.003-.0026-.006-.0043z" clip-rule="evenodd"/>
  <path fill="#5064B6" fill-rule="evenodd" d="M349.008 87.6563l2.05-.2368c3.029-.3507 4.184-4.1458 1.865-6.1282-2.199-1.8791-4.82-11.9468-4.337-12.5101.926-1.0791-.079-2.4461-.975-3.3852-3.15-3.3009-6.128-12.233-5.619-12.5712-21.264 12.7963-38.156 35.7891-92.988 63.8822l.56 5.264 19.186 10.266c8.31.289 26.787 1.012 28.37 1.056 21.026.585 38.744 3.771 54.651 8.026 9.295-.736 18.519-2.15 28.047-3.583.206-.06.402-.122.618-.179 6.341-.934 12.77-1.937 19.371-2.857-1.162.284-2.417.53-3.72.754 8.125-1.002 16.597-1.761 25.622-1.915l12.039-11.433c-17.7-2.371-37.799-5.678-53.689-9.751-11.031-2.828-21.58-5.754-30.288-14.779-5.357-5.5514-3.633-9.5878-.763-9.9197z" clip-rule="evenodd"/>
  <path fill="#fff" fill-rule="evenodd" d="M383.767 93.2454c-14.722-13.095-26.497-27.6135-41.827-40.4609l-.006-.0054-.002-.0018c-.002 0-.001.0036-.002.0045-.509.3382 2.469 9.2703 5.619 12.5703.896.94 1.9 2.307.975 3.3861-.483.5633-1.274.7561-1.996.5875-2.232-.5203-4.632-1.3697-4.929 1.0315-.361 2.917 2.316 5.1343 4.082 6.0501 2.568 1.3312 4.981 2.961 7.18 4.841 2.318 1.9815 1.165 5.7766-1.865 6.1282-.684.078-1.367.157-2.05.2368-2.871.3319-5.418 5.2688-.062 10.8211 8.708 9.0246 20.886 15.1496 81.355 26.9016l4.187-3.977c-16.951-2.315-32.986-13.302-46.044-24.1319-1.578-1.3087-3.106-2.6398-4.615-3.9817z" clip-rule="evenodd"/>
  <path fill="#F4DFA4" fill-rule="evenodd" d="M373.496 147.963c.062.022.114.04.175.062-1.628-2.29-3.945-7.415 6.085-10.332-9.53 1.433-18.754 2.848-28.048 3.584 7.624 2.039 14.834 4.323 21.786 6.687 0 0 .001 0 .002-.001z" clip-rule="evenodd"/>
  <path fill="#fff" fill-rule="evenodd" d="M373.67 148.025l.031.011c1.678.571 3.344 1.147 4.994 1.725.664.229 1.37.476 2.191.769l.001.001c2.571.91 5.113 1.82 7.637 2.725-5.065-2.876-11.34-7.688-11.873-10.027-1.288-5.665 10.225-6.235 19.372-7.816 1.303-.226 2.558-.47 3.722-.755-6.602.92-13.032 1.923-19.372 2.856-.217.058-.413.12-.619.18-10.029 2.916-7.712 8.042-6.084 10.331z" clip-rule="evenodd"/>
  <path fill="#5064B6" fill-rule="evenodd" d="M373.701 148.035c2.003.71 3.366 1.162 4.994 1.725-1.65-.578-3.316-1.154-4.994-1.725z" clip-rule="evenodd"/>
  <path fill="#F4DFA4" fill-rule="evenodd" d="M376.651 143.228c.533 2.339 6.808 7.151 11.873 10.027 3.008 1.078 5.99 2.147 8.959 3.192l24.162-22.951c-9.024.154-17.496.913-25.622 1.916-9.148 1.581-20.661 2.15-19.372 7.816z" clip-rule="evenodd"/>
  <path fill="#FED42F" fill-rule="evenodd" d="M343.512 165.048c13.038-3.469 27.108-10.813 29.982-17.083-6.951-2.366-14.161-4.649-21.785-6.689-15.907-4.255-33.626-7.44-54.651-8.026-1.584-.044-20.06-.766-28.371-1.055l64.79 34.669c4.289-.628 8.558-1.423 10.035-1.816zM388.524 153.255c-2.523-.905-5.065-1.815-7.637-2.724 1.165.422 1.047 5.328-2.725 16.308-.802 2.337-1.371 6.171-1.991 9.85l21.311-20.242c-2.968-1.045-5.949-2.114-8.958-3.192z" clip-rule="evenodd"/>
  <path fill="#FFEDC0" fill-rule="evenodd" d="M378.163 166.838c3.771-10.98 3.89-15.885 2.725-16.308l-.002-.001c-.821-.293-1.527-.54-2.191-.769-1.628-.563-2.99-1.015-4.994-1.725-.01-.004-.02-.007-.03-.011-.061-.022-.113-.04-.175-.062l-.001.001c-2.876 6.272-16.946 13.616-29.984 17.084-1.477.394-5.746 1.188-10.035 1.816l24.581 13.153c5.393 3.849 12.848 2.843 17.027-2.298l1.086-1.03c.621-3.678 1.19-7.513 1.993-9.85z" clip-rule="evenodd"/>
  <g>
    <path fill="#fff" fill-rule="evenodd" d="M75.5636 65c-1.692 0-3.0636 1.3716-3.0636 3.0636v2.5786l26.4984 13.5731L125.5 70.5813v-2.5177c0-1.692-1.372-3.0636-3.064-3.0636H75.5636zM125.5 73.9551L99.6861 87.2352l-.6847.3523-.6853-.3511L72.5 74.0129v21.6229c0 1.692 1.3716 3.0636 3.0636 3.0636h46.8724c1.692 0 3.064-1.3716 3.064-3.0636V73.9551z" clip-rule="evenodd"/>
  </g>
  <g>
    <path fill="#fff" fill-rule="evenodd" d="M162.124 154.228c-1.604-.538-3.341.326-3.879 1.93l-.82 2.445 20.804 21.298 29.462-4.495.801-2.387c.538-1.604-.326-3.341-1.93-3.879l-44.438-14.912zm44.494 24.376l-28.698 4.378-.761.117-.538-.551-20.268-20.749-6.879 20.499c-.538 1.604.326 3.341 1.93 3.879l44.438 14.911c1.604.539 3.34-.325 3.879-1.929l6.897-20.555z" clip-rule="evenodd"/>
  </g>
  <g>
    <path fill="#fff" fill-rule="evenodd" d="M38.2328 149.571c-1.5093.765-2.1128 2.608-1.3481 4.118l1.1656 2.3 29.7721.13 17.4774-24.14-1.1381-2.246c-.7647-1.509-2.6082-2.113-4.1175-1.348l-41.8114 21.186zm48.5919-14.583l-17.0239 23.514-.4515.624-.77-.004-29.0055-.126 9.7735 19.288c.7648 1.509 2.6083 2.112 4.1175 1.348l41.8115-21.187c1.5093-.764 2.1128-2.608 1.3481-4.117l-9.7997-19.34z" clip-rule="evenodd"/>
  </g>
  <g fill="#A2B1EE">
    <path d="M208.594 107.817c-18.918 1.581-23.419 3.897-35.525 11.037-.997.588-1.911-.589-1.061-1.374 12.296-11.362 23.948-16.416 35.875-18.1676l.711 8.5046z"/>
    <path d="M207.442 114.527l-1.809-21.64c-.068-.8105.809-1.3586 1.508-.9426l16.052 9.5536c.589.351.659 1.178.135 1.622l-14.243 12.086c-.62.526-1.575.131-1.643-.679z"/>
  </g>
  <defs>
    <radialGradient id="paint0_radial" cx="0" cy="0" r="1" gradientTransform="rotate(81.446 75.4133 200.1518) scale(109.391 146.741)" gradientUnits="userSpaceOnUse">
      <stop stop-color="#B2BFF4"/>
      <stop offset="1" stop-color="#E1EAFF"/>
    </radialGradient>
  </defs>
</svg>
