<svg width="384" height="216" viewBox="0 0 384 216" fill="none" xmlns="http://www.w3.org/2000/svg">
<path d="M303.541 45.1411H82.9412C79.66 45.1411 77 47.8011 77 51.0823V159H309.483V51.0823C309.483 47.8011 306.823 45.1411 303.541 45.1411Z" fill="url(#paint0_linear)"/>
<path d="M91.5946 58.2539C91.5946 58.2539 87.3014 58.1079 86.416 63.038V66.3959C86.416 66.3959 86.4527 66.7553 87.429 67.4853C88.4053 68.2152 90.9329 70.2704 91.5946 70.2704C92.2563 70.2704 94.7839 68.2152 95.7602 67.4853C96.7365 66.7553 96.7732 66.3959 96.7732 66.3959V63.038C95.8875 58.1088 91.5946 58.2539 91.5946 58.2539ZM94.5344 64.8686H88.6548V63.038C89.2514 60.5898 91.5946 60.5561 91.5946 60.5561C91.5946 60.5561 93.9377 60.5898 94.5344 63.038V64.8686Z" fill="#383F4E"/>
<path d="M91.5946 71.0273C91.5946 71.0273 90.9292 70.96 90.4085 70.5858C89.8878 70.2116 86.4165 67.6434 86.4165 67.6434V72.727C86.4165 72.727 86.4457 73.3184 87.0749 73.3184H96.1145C96.7437 73.3184 96.7732 72.727 96.7732 72.727V67.6425C96.7732 67.6425 93.3018 70.2105 92.7811 70.5849C92.2604 70.9593 91.5946 71.0273 91.5946 71.0273Z" fill="#383F4E"/>
<path d="M309.445 84.1919H165.558C163.836 84.1919 162.44 85.5875 162.44 87.3092V100.703H309.445V84.1919Z" fill="#39404F"/>
<path d="M276.218 59.6797H164.778C163.487 59.6797 162.44 60.7264 162.44 62.0176V70.087C162.44 71.3783 163.487 72.425 164.778 72.425H276.218C277.509 72.425 278.556 71.3783 278.556 70.087V62.0176C278.556 60.7264 277.509 59.6797 276.218 59.6797Z" fill="#383F4E"/>
<path d="M309.445 100.705H162.44V159H309.445V100.705Z" fill="#F4F6F9"/>
<path d="M147.521 84.1919H87.6114C86.3202 84.1919 85.2734 85.2386 85.2734 86.5298V96.2313C85.2734 97.5226 86.3202 98.5693 87.6114 98.5693H147.521C148.813 98.5693 149.859 97.5226 149.859 96.2313V86.5299C149.859 85.2386 148.813 84.1919 147.521 84.1919Z" fill="#657EE4"/>
<path d="M113.783 114.386H86.846C85.9848 114.386 85.2734 113.747 85.2734 112.973C85.2734 112.2 85.9848 111.561 86.846 111.561H113.783C114.644 111.561 115.355 112.2 115.355 112.973C115.355 113.747 114.644 114.386 113.783 114.386Z" fill="#475269"/>
<path d="M103.19 125.898H86.846C85.9848 125.898 85.2734 125.259 85.2734 124.486C85.2734 123.712 85.9848 123.073 86.846 123.073H103.19C104.051 123.073 104.762 123.712 104.762 124.486C104.8 125.259 104.088 125.898 103.19 125.898Z" fill="#475269"/>
<path d="M110.983 149.277H86.846C85.9848 149.277 85.2734 148.638 85.2734 147.865C85.2734 147.092 85.9848 146.453 86.846 146.453H110.983C111.844 146.453 112.556 147.092 112.556 147.865C112.593 148.638 111.882 149.277 110.983 149.277Z" fill="#475269"/>
<path d="M271.189 113.45H194.452C193.591 113.45 192.88 112.811 192.88 112.037C192.88 111.264 193.591 110.625 194.452 110.625H271.189C272.05 110.625 272.761 111.264 272.761 112.037C272.799 112.811 272.087 113.45 271.189 113.45Z" fill="#F4F6F9"/>
<path d="M215.254 122.211H194.452C193.591 122.211 192.88 121.572 192.88 120.799C192.88 120.026 193.591 119.387 194.452 119.387H215.254C216.115 119.387 216.826 120.026 216.826 120.799C216.864 121.606 216.152 122.211 215.254 122.211Z" fill="#F4F6F9"/>
<path d="M116.783 137.587H86.846C85.9848 137.587 85.2734 136.948 85.2734 136.175C85.2734 135.401 85.9848 134.762 86.846 134.762H116.783C117.644 134.762 118.355 135.401 118.355 136.175C118.355 136.948 117.644 137.587 116.783 137.587Z" fill="#475269"/>
<path d="M297.854 73.1234C301.754 73.1234 304.915 69.9618 304.915 66.0617C304.915 62.1616 301.754 59 297.854 59C293.954 59 290.792 62.1616 290.792 66.0617C290.792 69.9618 293.954 73.1234 297.854 73.1234Z" fill="#383F4E"/>
<path d="M297.538 65.4929C298.337 65.4929 298.985 64.8453 298.985 64.0463C298.985 63.2474 298.337 62.5997 297.538 62.5997C296.739 62.5997 296.092 63.2474 296.092 64.0463C296.092 64.8453 296.739 65.4929 297.538 65.4929Z" fill="#1F222A"/>
<path d="M295.513 69.576C294.645 69.576 294.067 68.6437 294.485 67.9043C295.063 66.8435 296.22 66.1041 297.506 66.1041C298.792 66.1041 299.949 66.8114 300.528 67.9043C300.946 68.6437 300.367 69.576 299.499 69.576H295.513Z" fill="#1F222A"/>
<path d="M182.987 109.016H174.058C172.336 109.016 170.94 110.411 170.94 112.133V121.062C170.94 122.784 172.336 124.179 174.058 124.179H182.987C184.708 124.179 186.104 122.784 186.104 121.062V112.133C186.104 110.411 184.708 109.016 182.987 109.016Z" fill="#F4F6F9"/>
<path d="M252.358 139.022H194.452C193.591 139.022 192.88 138.383 192.88 137.61C192.88 136.836 193.591 136.197 194.452 136.197H252.358C253.219 136.197 253.93 136.836 253.93 137.61C253.968 138.383 253.256 139.022 252.358 139.022Z" fill="#F4F6F9"/>
<path d="M271.747 147.784H194.452C193.591 147.784 192.88 147.145 192.88 146.371C192.88 145.598 193.591 144.959 194.452 144.959H271.747C272.608 144.959 273.32 145.598 273.32 146.371C273.357 147.145 272.646 147.784 271.747 147.784Z" fill="#F4F6F9"/>
<path d="M182.987 134.55H174.058C172.336 134.55 170.94 135.945 170.94 137.667V146.596C170.94 148.318 172.336 149.713 174.058 149.713H182.987C184.708 149.713 186.104 148.318 186.104 146.596V137.667C186.104 135.945 184.708 134.55 182.987 134.55Z" fill="#F4F6F9"/>
<g opacity="0.23" filter="url(#filter0_d)">
<circle cx="141.292" cy="65.5" r="55.5" fill="#1D7EF1"/>
</g>
<circle cx="141.292" cy="64.5" r="29.5" fill="url(#paint1_linear)" fill-opacity="0.5"/>
<path d="M133.891 57.6099H137.164V60.883H133.891V57.6099Z" fill="white"/>
<path d="M140.437 57.6099H143.71V60.883H140.437V57.6099Z" fill="white"/>
<path d="M150.256 57.6099H146.983V60.883H150.256V57.6099Z" fill="white"/>
<path d="M133.891 70.7024H137.164V73.9756H133.891V70.7024Z" fill="white"/>
<path d="M143.71 70.7024H140.437V73.9756H143.71V70.7024Z" fill="white"/>
<path d="M146.983 70.7024H150.256V73.9756H146.983V70.7024Z" fill="white"/>
<path d="M137.164 64.1561H133.891V67.4293H137.164V64.1561Z" fill="white"/>
<path d="M140.437 64.1561H143.71V67.4293H140.437V64.1561Z" fill="white"/>
<path d="M150.256 64.1561H146.983V67.4293H150.256V64.1561Z" fill="white"/>
<path d="M109.7 181.001C109.7 181.001 103.316 180.791 102 187.872V192.694C102 192.694 102.055 193.21 103.506 194.259C104.958 195.307 108.716 198.259 109.7 198.259C110.684 198.259 114.442 195.307 115.893 194.259C117.345 193.21 117.399 192.694 117.399 192.694V187.872C116.083 180.792 109.7 181.001 109.7 181.001ZM114.071 190.501H105.329V187.872C106.216 184.355 109.7 184.307 109.7 184.307C109.7 184.307 113.184 184.355 114.071 187.872V190.501Z" fill="#9CA0AA"/>
<path d="M109.7 199.346C109.7 199.346 108.71 199.249 107.936 198.712C107.162 198.174 102.001 194.486 102.001 194.486V201.787C102.001 201.787 102.044 202.636 102.98 202.636H116.42C117.355 202.636 117.399 201.787 117.399 201.787V194.485C117.399 194.485 112.238 198.173 111.464 198.71C110.69 199.248 109.7 199.346 109.7 199.346Z" fill="#9CA0AA"/>
<path d="M174.657 183.568C174.657 183.231 174.591 182.897 174.462 182.585C174.333 182.273 174.144 181.99 173.905 181.752C173.667 181.514 173.384 181.324 173.072 181.195C172.761 181.066 172.427 181 172.089 181C171.408 181 170.755 181.271 170.274 181.752C169.792 182.234 169.522 182.887 169.522 183.568V183.649L158.353 187.214C157.967 186.656 157.375 186.272 156.708 186.147C156.04 186.022 155.351 186.165 154.788 186.546C154.512 186.73 154.276 186.967 154.092 187.243C153.908 187.519 153.78 187.828 153.715 188.154C153.651 188.479 153.651 188.814 153.716 189.139C153.781 189.464 153.909 189.774 154.094 190.049C154.099 190.058 154.106 190.067 154.112 190.076C154.354 190.427 154.679 190.712 155.059 190.905C155.439 191.098 155.861 191.194 156.286 191.183C156.552 191.181 156.816 191.136 157.066 191.048L164.407 200.225C164.143 200.843 164.135 201.539 164.385 202.163C164.634 202.786 165.121 203.284 165.738 203.548L165.76 203.557C166.384 203.822 167.086 203.83 167.715 203.58C168.345 203.329 168.85 202.841 169.121 202.221C169.334 201.723 169.381 201.171 169.255 200.645C169.13 200.119 168.84 199.647 168.426 199.299L172.326 186.094C172.958 186.039 173.548 185.749 173.977 185.281C174.406 184.813 174.644 184.201 174.643 183.565L174.657 183.568ZM166.724 198.632C166.329 198.638 165.94 198.734 165.588 198.913L158.419 189.926C158.617 189.606 158.741 189.244 158.781 188.87L170.193 185.262C170.315 185.392 170.447 185.512 170.587 185.621L166.734 198.627H166.722L166.724 198.632Z" fill="#9CA0AA"/>
<path d="M224.797 185.639C224.742 185.639 224.686 185.639 224.631 185.642C224.216 184.55 223.472 183.614 222.503 182.962C221.533 182.31 220.386 181.974 219.218 182.002C218.05 182.029 216.919 182.417 215.981 183.113C215.043 183.809 214.344 184.779 213.98 185.889C212.774 185.984 211.651 186.542 210.848 187.446C210.045 188.351 209.623 189.531 209.671 190.74C209.718 191.949 210.232 193.092 211.104 193.93C211.977 194.768 213.139 195.236 214.349 195.236H217.712V193.029H215.252L219.631 188.649L224.011 193.029H221.478V195.236H217.749V197.442H215.215L219.595 201.823L223.975 197.442H221.515V195.236H225.006V195.231C226.258 195.175 227.439 194.631 228.295 193.715C229.151 192.8 229.616 191.586 229.588 190.333C229.561 189.08 229.044 187.887 228.149 187.01C227.254 186.132 226.051 185.64 224.797 185.639Z" fill="#9CA0AA"/>
<path d="M280.831 183.617H279.586V183.177C279.586 183.023 279.555 182.871 279.496 182.728C279.438 182.586 279.351 182.457 279.242 182.348C279.134 182.239 279.004 182.153 278.862 182.094C278.72 182.035 278.568 182.005 278.414 182.005C278.103 182.005 277.805 182.128 277.585 182.348C277.365 182.568 277.241 182.866 277.241 183.177V183.617H271.454V183.177C271.456 183.025 271.429 182.874 271.373 182.733C271.317 182.592 271.233 182.464 271.127 182.355C271.022 182.246 270.895 182.159 270.756 182.099C270.617 182.039 270.467 182.007 270.315 182.005H270.283C270.142 181.992 269.999 182.007 269.864 182.049C269.729 182.091 269.603 182.159 269.494 182.25C269.386 182.34 269.296 182.451 269.23 182.577C269.164 182.702 269.123 182.839 269.11 182.98C269.104 183.046 269.104 183.112 269.11 183.177V183.617H267.938C267.637 183.62 267.338 183.683 267.061 183.802C266.783 183.921 266.532 184.093 266.321 184.309C266.11 184.525 265.944 184.78 265.832 185.061C265.719 185.341 265.664 185.64 265.667 185.942C265.667 185.948 265.667 185.955 265.667 185.96V199.075C265.671 199.695 265.92 200.289 266.358 200.728C266.797 201.166 267.391 201.415 268.011 201.419H280.831C281.451 201.415 282.045 201.166 282.484 200.728C282.923 200.289 283.171 199.695 283.175 199.075V185.887C283.108 185.296 282.838 184.746 282.41 184.332C281.982 183.918 281.424 183.665 280.831 183.617ZM281.491 199C281.492 199.086 281.475 199.171 281.443 199.251C281.411 199.33 281.363 199.403 281.303 199.464C281.243 199.525 281.171 199.574 281.092 199.608C281.013 199.641 280.928 199.659 280.842 199.659H267.939C267.853 199.66 267.767 199.644 267.688 199.612C267.608 199.58 267.535 199.532 267.474 199.472C267.413 199.411 267.364 199.339 267.331 199.26C267.297 199.181 267.279 199.096 267.279 199.01V187.865H281.487L281.491 199Z" fill="#9CA0AA"/>
<path d="M270.997 196.095C270.708 196.085 270.424 196.013 270.165 195.883C269.906 195.754 269.678 195.57 269.497 195.345L268.579 196.262C268.89 196.638 269.288 196.934 269.738 197.123C270.188 197.312 270.678 197.388 271.164 197.346C272.998 197.346 273.999 196.346 273.999 195.095C273.999 195.07 274.002 195.045 274.003 195.02C274.014 194.565 273.845 194.124 273.531 193.794C273.218 193.464 272.786 193.272 272.331 193.26C272.74 193.19 273.109 192.974 273.37 192.652C273.631 192.33 273.766 191.924 273.749 191.509C273.749 190.509 272.832 189.592 271.33 189.675C270.867 189.662 270.406 189.744 269.975 189.916C269.545 190.088 269.155 190.346 268.828 190.675L269.662 191.592C269.838 191.387 270.055 191.221 270.299 191.106C270.543 190.991 270.809 190.929 271.079 190.925C271.663 190.925 272.079 191.258 272.079 191.759C272.079 192.426 271.663 192.759 270.996 192.759H270.578L270.412 193.926H270.996C271.746 193.926 272.163 194.26 272.163 195.01C272.163 195.046 272.162 195.082 272.159 195.118C272.134 195.401 271.998 195.663 271.78 195.847C271.563 196.03 271.281 196.119 270.997 196.095Z" fill="#9CA0AA"/>
<path d="M277.501 197.429C279.336 197.429 280.336 196.012 280.336 193.51C280.336 191.009 279.336 189.675 277.501 189.675C275.666 189.675 274.666 191.009 274.666 193.51C274.666 196.012 275.667 197.429 277.501 197.429ZM277.585 190.926C278.252 190.926 278.585 191.509 278.585 193.51C278.585 195.511 278.334 196.095 277.585 196.095C276.917 196.095 276.585 195.512 276.585 193.51C276.585 191.509 276.834 190.926 277.585 190.926Z" fill="#9CA0AA"/>
<defs>
<filter id="filter0_d" x="71.792" y="7" width="139" height="139" filterUnits="userSpaceOnUse" color-interpolation-filters="sRGB">
<feFlood flood-opacity="0" result="BackgroundImageFix"/>
<feColorMatrix in="SourceAlpha" type="matrix" values="0 0 0 0 0 0 0 0 0 0 0 0 0 0 0 0 0 0 127 0"/>
<feOffset dy="11"/>
<feGaussianBlur stdDeviation="7"/>
<feColorMatrix type="matrix" values="0 0 0 0 0.0862745 0 0 0 0 0.0980392 0 0 0 0 0.117647 0 0 0 1 0"/>
<feBlend mode="normal" in2="BackgroundImageFix" result="effect1_dropShadow"/>
<feBlend mode="normal" in="SourceGraphic" in2="effect1_dropShadow" result="shape"/>
</filter>
<linearGradient id="paint0_linear" x1="199.826" y1="45.1411" x2="199.826" y2="159" gradientUnits="userSpaceOnUse">
<stop stop-color="#13151A"/>
<stop offset="1" stop-color="#394050"/>
</linearGradient>
<linearGradient id="paint1_linear" x1="134.684" y1="45.9913" x2="141.292" y2="94" gradientUnits="userSpaceOnUse">
<stop stop-color="#6FB1FF"/>
<stop offset="1" stop-color="#5AB0FF" stop-opacity="0.44"/>
</linearGradient>
</defs>
</svg>
