<svg xmlns="http://www.w3.org/2000/svg" width="490" height="360" fill="none">
  <defs/>
  <path fill="#262A33" d="M15 46c0-8.837 7.163-16 16-16h144v280H31c-8.837 0-16-7.163-16-16V46z"/>
  <path fill="#F6F7FA" d="M175 151h300v143c0 8.837-7.163 16-16 16H175V151z"/>
  <rect width="118" height="36" x="37" y="113" fill="#3C4B88" rx="3"/>
  <rect width="72" height="42" x="37" y="49" fill="#323641" rx="4"/>
  <path fill="#262A33" d="M175 30h284c8.837 0 16 7.163 16 16v65H175V30z"/>
  <rect width="150" height="28" x="175" y="56" fill="#1B1D24" rx="3"/>
  <path fill="#fff" fill-rule="evenodd" d="M194.6 72.89c.65-.8 1.003-1.8 1-2.83a4.56 4.56 0 10-4.56 4.56 4.467 4.467 0 002.83-1l4.26 4.25.7-.7-4.23-4.28zm-3.54.73a3.56 3.56 0 113.56-3.56 3.57 3.57 0 01-3.56 3.56z" clip-rule="evenodd" opacity=".2"/>
  <g fill="#fff" opacity=".2">
    <path fill-rule="evenodd" d="M452 54h-29a2 2 0 00-2 2v29a2 2 0 002 2h29a2 2 0 002-2V56a2 2 0 00-2-2zm-29-1a3 3 0 00-3 3v29a3 3 0 003 3h29a3 3 0 003-3V56a3 3 0 00-3-3h-29z" clip-rule="evenodd"/>
    <path d="M429.434 72.295V76h-1.149v-9.803h2.694c1.048 0 1.859.255 2.433.766.579.51.868 1.23.868 2.16 0 .93-.321 1.69-.964 2.283-.638.593-1.501.889-2.59.889h-1.292zm0-5.059v4.02h1.203c.793 0 1.397-.18 1.811-.54.42-.365.629-.877.629-1.538 0-1.294-.765-1.942-2.297-1.942h-1.346zM446.377 76h-1.142v-6.576c0-.52.032-1.155.096-1.907h-.027c-.11.442-.208.758-.294.95L441.66 76h-.56l-3.343-7.478c-.096-.22-.194-.554-.294-1.005h-.027c.036.392.054 1.032.054 1.92V76h-1.107v-9.803h1.517l3.008 6.836c.233.524.383.916.451 1.176h.041c.196-.538.354-.939.472-1.203l3.069-6.809h1.436V76z"/>
  </g>
  <rect width="94" height="8" x="37" y="173" fill="#3C414E" rx="1"/>
  <rect width="63" height="6" x="350" y="61" fill="#3C414E" rx="1"/>
  <rect width="98" height="8" x="37" y="213" fill="#3C414E" rx="1"/>
  <rect width="98" height="8" x="37" y="253" fill="#3C414E" rx="1"/>
  <rect width="81" height="8" x="37" y="193" fill="#3C414E" rx="1"/>
  <rect width="43" height="6" x="370" y="74" fill="#3C414E" rx="1"/>
  <rect width="69" height="8" x="37" y="233" fill="#3C414E" rx="1"/>
  <rect width="69" height="8" x="37" y="273" fill="#3C414E" rx="1"/>
  <rect width="181" height="8" x="224" y="172" fill="#EEEFF3" rx="1"/>
  <rect width="157" height="8" x="224" y="188" fill="#EEEFF3" rx="1"/>
  <rect width="24" height="24" x="192" y="172" fill="#EEEFF3" rx="3"/>
  <rect width="181" height="8" x="224" y="215" fill="#EEEFF3" rx="1"/>
  <rect width="157" height="8" x="224" y="231" fill="#EEEFF3" rx="1"/>
  <rect width="24" height="24" x="192" y="215" fill="#EEEFF3" rx="3"/>
  <rect width="181" height="8" x="224" y="258" fill="#EEEFF3" rx="1"/>
  <rect width="157" height="8" x="224" y="274" fill="#EEEFF3" rx="1"/>
  <rect width="24" height="24" x="192" y="258" fill="#EEEFF3" rx="3"/>
  <path fill="#262A33" d="M175 111h7v7h-7z"/>
  <path fill="#3C414E" d="M175 114a3 3 0 013-3h297v40H175v-37z"/>
  <circle cx="146.5" cy="69.5" r="61.5" fill="#657EE4" fill-opacity=".5"/>
  <path fill="#fff" d="M137 61h4v4h-4zM137 68h4v4h-4zM137 75h4v4h-4zM144 75h4v4h-4zM151 75h4v4h-4zM151 68h4v4h-4zM144 68h4v4h-4zM144 61h4v4h-4zM151 61h4v4h-4z"/>
  <path fill="#EEEFF3" d="M388 352c0 3.866-23.917 7-143.5 7-79.253 0-143.5-.891-143.5-7s64.247-7 143.5-7 143.5 0 143.5 7z"/>
</svg>
