<svg width="384" height="216" viewBox="0 0 384 216" fill="none" xmlns="http://www.w3.org/2000/svg">
<path d="M287 178C302.464 178 315 165.464 315 150C315 134.536 302.464 122 287 122C271.536 122 259 134.536 259 150C259 165.464 271.536 178 287 178Z" fill="url(#paint0_linear)"/>
<path d="M299.151 160.849C298.951 159.907 298.311 159.136 297.434 158.752L293.05 156.863C292.764 156.743 292.449 156.772 292.183 156.955L289.576 158.742C289.576 158.742 285.762 157.169 283.463 153.815C281.164 150.46 281.072 146.337 281.072 146.337L283.692 144.54C283.946 144.367 284.099 144.075 284.091 143.765L283.889 138.991C283.847 138.034 283.359 137.159 282.552 136.633C281.56 135.973 280.266 135.986 279.279 136.662L277.203 138.086C276.747 138.398 276.408 138.853 276.21 139.38C273.367 147.636 279.328 156.631 279.328 156.631C279.328 156.631 285.554 165.443 294.281 165.769C294.839 165.796 295.377 165.632 295.845 165.311L297.934 163.879C298.922 163.202 299.408 162.012 299.151 160.849Z" fill="white"/>
<path d="M289.649 89.6027H222.284C219.907 89.6027 218 87.6462 218 85.2746V43.3283C218 40.9568 219.936 39.0002 222.284 39.0002H289.62C291.996 39.0002 293.903 40.9568 293.903 43.3283V85.2746C293.933 87.6758 291.996 89.6027 289.649 89.6027Z" fill="url(#paint1_linear)"/>
<path d="M253.183 68.1362C254.774 69.4486 257.102 69.4486 258.694 68.1362L292.7 40.1374C291.934 39.4375 290.902 39 289.783 39H222.123C221.004 39 219.972 39.4375 219.206 40.1374L253.183 68.1362Z" fill="url(#paint2_linear)"/>
<path d="M230.459 178H149.884V68H230.459C235.45 68 239.495 72.0451 239.495 77.0362V168.964C239.463 173.955 235.418 178 230.459 178Z" fill="url(#paint3_linear)"/>
<path d="M229.383 176.271H210.561V69.8918H229.383C233.624 69.8918 237.082 73.3171 237.082 77.5905V168.572C237.049 172.813 233.624 176.271 229.383 176.271Z" fill="white"/>
<path d="M222.565 178H141.989V68H222.565C227.556 68 231.601 72.0451 231.601 77.0362V168.964C231.601 173.955 227.556 178 222.565 178Z" fill="url(#paint4_linear)"/>
<path d="M152.917 68H141.989V178H152.917V68Z" fill="url(#paint5_linear)"/>
<path d="M188.282 119.391C191.968 119.391 194.957 116.402 194.957 112.716C194.957 109.03 191.968 106.041 188.282 106.041C184.596 106.041 181.607 109.03 181.607 112.716C181.607 116.402 184.596 119.391 188.282 119.391Z" fill="white"/>
<path d="M179.016 138.104C175.053 138.104 172.401 133.842 174.338 130.356C177.049 125.469 182.293 122.132 188.283 122.132C194.272 122.132 199.516 125.44 202.228 130.356C204.165 133.813 201.513 138.104 197.55 138.104H179.016Z" fill="white"/>
<path d="M119.727 177.571C127.616 177.571 134.012 171.175 134.012 163.285C134.012 155.396 127.616 149 119.727 149C111.837 149 105.441 155.396 105.441 163.285C105.441 171.175 111.837 177.571 119.727 177.571Z" stroke="#CECFD6" stroke-width="1.8425" stroke-miterlimit="10"/>
<path d="M97.5322 164.387C97.5322 162.184 99.3031 160.413 101.507 160.413C103.711 160.413 105.482 162.184 105.482 164.387" stroke="#CECFD6" stroke-width="1.8425" stroke-miterlimit="10"/>
<path d="M133.973 163.286H152.587C155.932 163.286 158.648 166.001 158.648 169.346V177.571" stroke="#CECFD6" stroke-width="1.8425" stroke-miterlimit="10" stroke-linecap="round"/>
<path d="M69 163.286H87.6144C90.9594 163.286 93.6748 166.001 93.6748 169.346V177.571" stroke="#E9EFF9" stroke-width="1.8425" stroke-miterlimit="10" stroke-linecap="round"/>
<path d="M83.2854 177.571C91.1751 177.571 97.5709 171.175 97.5709 163.285C97.5709 155.396 91.1751 149 83.2854 149C75.3958 149 69 155.396 69 163.285C69 171.175 75.3958 177.571 83.2854 177.571Z" stroke="#CECFD6" stroke-width="1.8425" stroke-miterlimit="10"/>
<path d="M66 68C59.3726 68 54 73.3726 54 80V102.572C54 109.2 59.3726 114.572 66 114.572H83.1016L103.69 131V114.572H110C116.627 114.572 122 109.2 122 102.572V80C122 73.3726 116.627 68 110 68H66Z" fill="url(#paint6_linear)"/>
<circle cx="76" cy="93" r="3" fill="white"/>
<circle cx="88" cy="93" r="3" fill="white"/>
<circle cx="100" cy="93" r="3" fill="white"/>
<defs>
<linearGradient id="paint0_linear" x1="287" y1="178" x2="287" y2="122" gradientUnits="userSpaceOnUse">
<stop stop-color="#18DAB7"/>
<stop offset="1" stop-color="#40E947"/>
</linearGradient>
<linearGradient id="paint1_linear" x1="255.952" y1="39.0002" x2="255.952" y2="78.7593" gradientUnits="userSpaceOnUse">
<stop stop-color="#C1DEF8"/>
<stop offset="1" stop-color="#ECFAFF"/>
</linearGradient>
<linearGradient id="paint2_linear" x1="255.953" y1="26.3494" x2="255.953" y2="61.2892" gradientUnits="userSpaceOnUse">
<stop stop-color="#DEEBF7"/>
<stop offset="1" stop-color="white"/>
</linearGradient>
<linearGradient id="paint3_linear" x1="194.69" y1="68" x2="194.69" y2="178" gradientUnits="userSpaceOnUse">
<stop stop-color="#FF9A61"/>
<stop offset="1" stop-color="#E36425"/>
</linearGradient>
<linearGradient id="paint4_linear" x1="186.795" y1="68" x2="186.795" y2="178" gradientUnits="userSpaceOnUse">
<stop stop-color="#FFB341"/>
<stop offset="1" stop-color="#EE7C3E"/>
</linearGradient>
<linearGradient id="paint5_linear" x1="147.453" y1="68" x2="147.453" y2="178" gradientUnits="userSpaceOnUse">
<stop stop-color="#614B37"/>
<stop offset="1" stop-color="#651B30"/>
</linearGradient>
<linearGradient id="paint6_linear" x1="81.5" y1="61" x2="81.5" y2="131" gradientUnits="userSpaceOnUse">
<stop stop-color="#46D3FF"/>
<stop offset="1" stop-color="#438EFF"/>
</linearGradient>
</defs>
</svg>
