<svg xmlns="http://www.w3.org/2000/svg" width="460" height="280" fill="none">
  <defs/>
  <path fill="#DAE0FF" d="M459.785 121.203C464.969 203.989 376.061 209 214.306 209c-76.686 0-230.9041-3.507-211.659-87.797 11.3021-49.5001 45.8627-22.4415 222.124-64.5326 176.261-42.0911 229.467-24.052 235.014 64.5326z"/>
  <path fill="#2BCBBA" fill-rule="evenodd" d="M41.4541 28.768c1.6283-1.2493 3.9609-.942 5.2103.6862 1.2493 1.6283.9419 3.961-.6863 5.2103-1.6283 1.2493-3.961.942-5.21-.6854-1.2496-1.6291-.942-3.961.686-5.2111zM363.454 219.768c1.628-1.249 3.961-.942 5.21.686 1.25 1.629.942 3.961-.686 5.211-1.628 1.249-3.961.941-5.21-.686-1.25-1.629-.942-3.961.686-5.211z" clip-rule="evenodd"/>
  <path fill="#BABDC6" fill-rule="evenodd" d="M102 54.9658L107.455 51l3.978 5.4929-5.453 3.9655-3.98-5.4926zM62 222.966L67.4545 219l3.9788 5.493-5.4536 3.965L62 222.966zM301.24 114.966l5.454-3.966 3.979 5.493-5.454 3.965-3.979-5.492zM42 144.966L47.4545 141l3.9788 5.493-5.4536 3.965L42 144.966z" clip-rule="evenodd"/>
  <path fill="#2BCBBA" fill-rule="evenodd" d="M321.368 171.358c1.855-.878 4.071-.085 4.948 1.77.877 1.856.084 4.071-1.771 4.948-1.855.878-4.07.085-4.948-1.77-.877-1.856-.084-4.071 1.771-4.948zM380.128 101.358c1.856-.878 4.071-.085 4.948 1.77.878 1.856.084 4.071-1.77 4.948-1.856.878-4.071.085-4.949-1.77-.877-1.856-.084-4.071 1.771-4.948zM293.128 16.3576c1.856-.8773 4.071-.085 4.948 1.7705.878 1.8556.084 4.0712-1.77 4.9482-1.856.8774-4.071.0851-4.949-1.7705-.877-1.8555-.084-4.0711 1.771-4.9482zM100.128 145.358c1.856-.878 4.071-.085 4.948 1.77.878 1.856.084 4.071-1.77 4.948-1.856.878-4.0712.085-4.9485-1.77-.8774-1.856-.0842-4.071 1.7705-4.948z" clip-rule="evenodd"/>
  <ellipse cx="238" cy="265.5" fill="#EEEFF3" rx="63" ry="7.5"/>
  <path fill="#BABDC6" fill-rule="evenodd" d="M353 19.9658L358.455 16l3.978 5.4929-5.453 3.9655-3.98-5.4926zM428 144.966l5.455-3.966 3.978 5.493-5.453 3.965-3.98-5.492z" clip-rule="evenodd"/>
  <mask id="a" width="209" height="151" x="130" y="71" maskUnits="userSpaceOnUse">
    <path fill="#fff" d="M130.714 71.4692H338.3V221.928H130.714V71.4692z"/>
  </mask>
  <g mask="url(#a)">
    <path fill="#A2B1EE" fill-rule="evenodd" d="M333.354 197.49l-180.693 24.386c-3.125.422-6.001-1.77-6.423-4.895L130.766 102.33c-.422-3.126 1.77-6.0012 4.895-6.4228l180.693-24.386c3.125-.4216 6 1.7696 6.421 4.8953l15.474 114.6515c.422 3.125-1.77 6.001-4.895 6.422z" clip-rule="evenodd"/>
  </g>
  <mask id="b" width="194" height="164" x="130" y="0" maskUnits="userSpaceOnUse">
    <path fill="#fff" d="M130.19 0h193.661v163.229H130.19V0z"/>
  </mask>
  <g mask="url(#b)">
    <path fill="url(#paint0_radial)" fill-rule="evenodd" d="M222.752 2.09c-4.828-3.4453-11.501-2.5445-15.243 2.057l-74.588 91.7382a9.9992 9.9992 0 00-2.151 7.6468l.757 5.61 97.17 51.997c4.827 3.445 11.501 2.544 15.243-2.057l79.911-75.8962c-.188-1.39-.483-3.5752-.758-5.6109a10.0017 10.0017 0 00-4.101-6.8008L222.752 2.09z" clip-rule="evenodd"/>
  </g>
  <path fill="#94A4E7" fill-rule="evenodd" d="M337.996 193.365l-96.391-51.579c-4.827-3.445-11.501-2.544-15.241 2.057l-79.271 75.288c1.215 1.899 3.451 3.031 5.833 2.709l180.163-24.314c2.381-.321 4.24-2.007 4.907-4.161z" clip-rule="evenodd"/>
  <path fill="#A2B1EE" fill-rule="evenodd" d="M277.811 66.0332c-5.516-.1028-11.853 8.1833-26.1 17.4336 1.351 1.2012 2.906 2.1992 4.131 3.5642 4.487 5.0015-15.498 37.522-26.316 59.762-6.502 13.366-.588 15.826 17.743 7.379 12.139-9.925 29.605-25.834 54.064-49.599l4.139-3.932c-4.81-1.4395-5.862-5.2124-9.481-8.0459l-18.18-26.5619zM281.688 68.4966c1.205.7756 2.476 1.5986 3.796 2.4561a587.3503 587.3503 0 00-3.796-2.4561z" clip-rule="evenodd"/>
  <path fill="#fff" fill-rule="evenodd" d="M281.686 68.496c-1.381-.888-2.683-1.7174-3.876-2.4626-.34.2682.126 5.3772 2.985 8.5053 2.757 3.0174 4.02 4.29 3.473 5.1459-.287.4464-.826.6608-1.355.6134-1.631-.1477-4.27-.7788-4.322 1.3168-.169 6.8769 18.501 18.0591 26.88 19.0262l10.928-10.3789c-9.29-5.1097-21.383-13.1115-30.916-19.31a994.5046 994.5046 0 00-3.797-2.4561z" clip-rule="evenodd"/>
  <path fill="#8298E9" fill-rule="evenodd" d="M214.264 47.2454c.003.0017.004.0034.006.0042-.002-.0008-.003-.0025-.006-.0042z" clip-rule="evenodd"/>
  <path fill="#5064B6" fill-rule="evenodd" d="M220.598 78.4639l1.835-.212c2.712-.3139 3.745-3.7111 1.669-5.4855-1.968-1.6821-4.314-10.694-3.882-11.1982.829-.9659-.07-2.1896-.872-3.0302-2.82-2.9547-5.486-10.9501-5.031-11.2528-19.033 11.4543-34.154 32.0359-83.235 57.1828l.501 4.712 17.173 9.189c7.439.259 23.978.906 25.396.945 18.82.524 34.681 3.376 48.919 7.185 8.32-.658 16.577-1.925 25.106-3.208.184-.053.36-.108.553-.159 5.676-.836 11.431-1.735 17.34-2.558-1.041.255-2.164.475-3.331.676 7.274-.898 14.858-1.577 22.936-1.715l10.776-10.234c-15.844-2.123-33.834-5.083-48.058-8.729-9.875-2.5307-19.317-5.1498-27.112-13.2287-4.795-4.9692-3.253-8.5823-.683-8.8794z" clip-rule="evenodd"/>
  <path fill="#fff" fill-rule="evenodd" d="M251.712 83.4669c-13.178-11.7217-23.718-24.7177-37.441-36.2178a.0231.0231 0 00-.005-.0048l-.002-.0016c-.002 0-.001.0032-.002.004-.455.3027 2.21 8.2981 5.03 11.252.802.8415 1.701 2.0651.873 3.031-.432.5042-1.14.6769-1.787.5259-1.997-.4657-4.146-1.226-4.412.9234-.323 2.611 2.073 4.5958 3.654 5.4156 2.299 1.1915 4.459 2.6504 6.427 4.3333 2.075 1.7737 1.043 5.1708-1.67 5.4855-.611.0699-1.223.1405-1.834.212-2.57.2971-4.85 4.7163-.056 9.6863 7.795 8.0781 18.696 13.5613 72.824 24.0803l3.748-3.559c-15.174-2.073-29.527-11.9076-41.216-21.602-1.412-1.1714-2.781-2.363-4.131-3.5641z" clip-rule="evenodd"/>
  <path fill="#F4DFA4" fill-rule="evenodd" d="M242.518 132.446c.055.02.103.036.156.055-1.457-2.049-3.531-6.637 5.447-9.248-8.53 1.283-16.786 2.55-25.106 3.208 6.825 1.826 13.279 3.87 19.501 5.987l.002-.002z" clip-rule="evenodd"/>
  <path fill="#fff" fill-rule="evenodd" d="M242.674 132.502c.009.003.017.006.027.009 1.502.512 2.993 1.027 4.471 1.544.594.206 1.226.427 1.96.689l.002.001c2.301.814 4.577 1.629 6.836 2.439-4.534-2.574-10.151-6.882-10.628-8.976-1.153-5.071 9.152-5.581 17.34-6.996 1.167-.202 2.29-.421 3.332-.675-5.91.823-11.665 1.721-17.34 2.556-.194.052-.37.108-.554.161-8.977 2.61-6.904 7.199-5.446 9.248z" clip-rule="evenodd"/>
  <path fill="#5064B6" fill-rule="evenodd" d="M242.702 132.51c1.793.636 3.012 1.041 4.469 1.544-1.476-.517-2.967-1.032-4.469-1.544z" clip-rule="evenodd"/>
  <path fill="#F4DFA4" fill-rule="evenodd" d="M245.342 128.208c.477 2.094 6.094 6.401 10.628 8.975 2.693.965 5.362 1.922 8.019 2.857l21.629-20.543c-8.078.137-15.662.816-22.935 1.715-8.189 1.415-18.494 1.924-17.341 6.996z" clip-rule="evenodd"/>
  <path fill="#FED42F" fill-rule="evenodd" d="M215.678 147.739c11.671-3.105 24.265-9.679 26.839-15.291-6.223-2.117-12.677-4.162-19.502-5.988-14.238-3.809-30.099-6.66-48.919-7.184-1.418-.039-17.956-.686-25.396-.944l57.995 31.033c3.84-.562 7.661-1.274 8.983-1.626zM255.97 137.183c-2.258-.81-4.534-1.625-6.836-2.438 1.043.377.937 4.769-2.439 14.598-.718 2.091-1.228 5.524-1.782 8.816l19.076-18.119c-2.657-.935-5.326-1.892-8.019-2.857z" clip-rule="evenodd"/>
  <path fill="#FFEDC0" fill-rule="evenodd" d="M246.695 149.342c3.376-9.829 3.482-14.22 2.439-14.598l-.001-.001c-.735-.262-1.367-.483-1.961-.689-1.458-.503-2.677-.908-4.471-1.544a.426.426 0 00-.027-.009c-.054-.02-.101-.036-.156-.056l-.001.001c-2.574 5.614-15.169 12.188-26.839 15.292-1.323.353-5.144 1.064-8.983 1.626l22.003 11.774c4.827 3.446 11.501 2.545 15.242-2.057l.972-.922c.555-3.292 1.065-6.726 1.783-8.817z" clip-rule="evenodd"/>
  <defs>
    <radialGradient id="paint0_radial" cx="0" cy="0" r="1" gradientTransform="matrix(14.56518 96.83008 -129.89075 19.53817 142.823 85.7585)" gradientUnits="userSpaceOnUse">
      <stop stop-color="#B2BFF4"/>
      <stop offset="1" stop-color="#E1EAFF"/>
    </radialGradient>
  </defs>
</svg>
