<svg xmlns="http://www.w3.org/2000/svg" width="400" height="280" fill="none">
  <defs/>
  <path fill="#DAE0FF" d="M398.24 136.017c4.5 82.607-72.676 87.606-213.084 87.606-66.566 0-200.4317-3.499-183.7263-87.606 9.8105-49.3935 39.8102-22.393 192.8103-64.3935 153-42 199.184-24 204 64.3935z"/>
  <path fill="#2BCBBA" fill-rule="evenodd" d="M73.6938 21.768c1.6283-1.2493 3.961-.942 5.2103.6862 1.2493 1.6283.942 3.961-.6863 5.2103-1.6282 1.2493-3.9609.942-5.2099-.6854-1.2497-1.6291-.942-3.961.6859-5.2111z" clip-rule="evenodd"/>
  <path fill="#BABDC6" fill-rule="evenodd" d="M94.2397 44.9658L99.6943 41l3.9787 5.4929-5.4536 3.9655-3.9797-5.4926zM252.24 16.9658L257.694 13l3.979 5.4929-5.454 3.9655-3.979-5.4926zM301.24 114.966l5.454-3.966 3.979 5.493-5.454 3.965-3.979-5.492zM39.2397 178.966L44.6943 175l3.9788 5.493-5.4537 3.965-3.9797-5.492z" clip-rule="evenodd"/>
  <path fill="#2BCBBA" fill-rule="evenodd" d="M321.368 171.358c1.855-.878 4.071-.085 4.948 1.77.877 1.856.084 4.071-1.771 4.948-1.855.878-4.07.085-4.948-1.77-.877-1.856-.084-4.071 1.771-4.948zM325.368 55.3576c1.855-.8773 4.071-.085 4.948 1.7705.877 1.8556.084 4.0712-1.771 4.9482-1.855.8774-4.07.0851-4.948-1.7705-.877-1.8555-.084-4.0711 1.771-4.9482zM71.3678 116.358c1.8555-.878 4.0708-.085 4.9482 1.77.8773 1.856.0842 4.071-1.7705 4.948-1.8556.878-4.0709.085-4.9483-1.77-.8773-1.856-.0842-4.071 1.7706-4.948z" clip-rule="evenodd"/>
  <path fill="#93A5EC" d="M259.009 55.1942l27.513 8.617.05 64.5338c.027 31.893-16.043 61.212-35.383 82.033-28.437 30.614-51.283 35.125-51.283 35.125s-22.856-4.475-51.34-35.044c-19.373-20.791-35.489-50.084-35.514-81.977L113 63.9471l27.499-8.6602a197.7261 197.7261 0 01118.51-.0927z"/>
  <path fill="#fff" d="M224.082 94.5013h-49.969a6.8073 6.8073 0 00-4.838 1.9316 6.8073 6.8073 0 00-2.055 4.7861v59.191a6.811 6.811 0 001.931 4.838 6.809 6.809 0 004.787 2.055h50.145a6.8077 6.8077 0 004.838-1.932 6.8049 6.8049 0 002.055-4.786v-59.191a7.081 7.081 0 00-2.073-4.8205 7.0834 7.0834 0 00-4.821-2.0722zM205.967 116.04H206a5.427 5.427 0 012.091.344c.667.251 1.279.632 1.8 1.119.52.488.94 1.073 1.234 1.723.295.649.458 1.351.482 2.063v.351a6.0994 6.0994 0 01-1.629 4.102 6.0972 6.0972 0 01-3.971 1.927 6.158 6.158 0 01-4.232-1.8 6.1595 6.1595 0 01-1.806-4.229 5.8047 5.8047 0 011.838-4.042 5.8052 5.8052 0 014.158-1.558h.002zm-24.952 46.954h-6.894a2.733 2.733 0 01-1.526-.919 2.7331 2.7331 0 01-.633-1.665h.011v-59.016c-.035-.537.144-1.066.498-1.4704a2.0338 2.0338 0 011.666-.6885h6.882l-.004 63.7589zm37.475-18.512a1.373 1.373 0 01-.4.893c-.238.239-.556.382-.893.402h-22.829c-.337-.02-.655-.163-.893-.402a1.3681 1.3681 0 01-.4-.893v-2.159a10.7625 10.7625 0 013.146-7.192 10.7672 10.7672 0 017.192-3.146h4.739c2.73.037 5.338 1.138 7.269 3.069a10.4808 10.4808 0 013.069 7.269v2.159z"/>
  <ellipse cx="200" cy="265.5" fill="#EEEFF3" rx="63" ry="7.5"/>
</svg>
