<svg xmlns="http://www.w3.org/2000/svg" width="400" height="280" fill="none">
  <defs/>
  <path fill="#DAE0FF" d="M398.24 136.017c4.5 82.607-72.676 87.606-213.084 87.606-66.566 0-200.4317-3.499-183.7263-87.606 9.8105-49.3935 39.8102-22.393 192.8103-64.3935 153-42 199.184-24 204 64.3935z"/>
  <path fill="#2BCBBA" fill-rule="evenodd" d="M69.6943 21.768c1.6283-1.2493 3.961-.942 5.2103.6862 1.2493 1.6283.942 3.961-.6863 5.2103-1.6283 1.2493-3.9609.942-5.2099-.6854-1.2497-1.6291-.942-3.961.6859-5.2111z" clip-rule="evenodd"/>
  <path fill="#BABDC6" fill-rule="evenodd" d="M90.2402 44.9658L95.6947 41l3.9789 5.4929-5.4537 3.9655-3.9797-5.4926zM248.24 16.9658L253.695 13l3.979 5.4929-5.454 3.9655-3.98-5.4926zM297.24 114.966l5.455-3.966 3.979 5.493-5.454 3.965-3.98-5.492zM35.2402 178.966L40.6947 175l3.9789 5.493-5.4537 3.965-3.9797-5.492z" clip-rule="evenodd"/>
  <path fill="#2BCBBA" fill-rule="evenodd" d="M317.368 171.358c1.856-.878 4.071-.085 4.948 1.77.878 1.856.085 4.071-1.77 4.948-1.856.878-4.071.085-4.948-1.77-.878-1.856-.084-4.071 1.77-4.948zM321.368 55.3576c1.856-.8773 4.071-.085 4.948 1.7705.878 1.8556.085 4.0712-1.77 4.9482-1.856.8774-4.071.0851-4.948-1.7705-.878-1.8555-.084-4.0711 1.77-4.9482zM67.3682 116.358c1.8556-.878 4.0709-.085 4.9483 1.77.8773 1.856.0842 4.071-1.7705 4.948-1.8556.878-4.0709.085-4.9483-1.77-.8773-1.856-.0842-4.071 1.7705-4.948z" clip-rule="evenodd"/>
  <path fill="#EEEFF3" d="M263 265.5c0 4.142-10.5 7.5-63 7.5-34.794 0-63-3.358-63-7.5 0-4.142 28.206-7.5 63-7.5s63 0 63 7.5z"/>
  <path fill="#93A5EC" d="M259.009 55.1942l27.513 8.617.05 64.5338c.027 31.893-16.043 61.212-35.383 82.033-28.437 30.614-51.283 35.125-51.283 35.125s-22.856-4.475-51.34-35.044c-19.373-20.791-35.489-50.084-35.514-81.977L113 63.9471l27.499-8.6602a197.7261 197.7261 0 01118.51-.0927z"/>
  <g fill="#fff">
    <path d="M220.013 110.949h-4.115v-1.453c0-.509-.1-1.012-.295-1.482-.194-.47-.479-.897-.839-1.257-.36-.359-.786-.645-1.256-.839-.47-.195-.974-.295-1.482-.295-1.027 0-2.013.408-2.739 1.134a3.8764 3.8764 0 00-1.134 2.739v1.453h-19.121v-1.453c.008-.502-.084-1-.269-1.466a3.828 3.828 0 00-.81-1.251c-.35-.359-.767-.647-1.228-.845a3.82 3.82 0 00-1.457-.311h-.107c-.466-.043-.935.007-1.382.146-.447.139-.862.364-1.222.664-.36.299-.657.666-.874 1.081-.218.414-.352.867-.395 1.333-.02.216-.02.433 0 .649v1.453h-3.872c-.997.011-1.982.219-2.899.612-.917.392-1.748.962-2.445 1.675a7.6193 7.6193 0 00-1.617 2.484c-.37.926-.555 1.916-.543 2.913V162.021a7.799 7.799 0 007.745 7.745h42.356a7.799 7.799 0 007.745-7.745v-43.57a8.4886 8.4886 0 00-2.528-5.139 8.4828 8.4828 0 00-5.217-2.363zm2.18 50.826c.003.284-.051.565-.158.828-.106.264-.264.503-.463.705-.199.203-.436.364-.697.474-.262.111-.542.169-.826.171h-42.632c-.284.003-.565-.051-.829-.157a2.1838 2.1838 0 01-.706-.463 2.1756 2.1756 0 01-.474-.698 2.1587 2.1587 0 01-.171-.827v-36.822h46.943l.013 36.789z"/>
    <path d="M187.523 152.177a6.6594 6.6594 0 01-2.749-.7 6.671 6.671 0 01-2.21-1.779l-3.03 3.03a9.9641 9.9641 0 003.828 2.844c1.488.624 3.105.877 4.712.738 6.06 0 9.366-3.304 9.366-7.438 0-.083.01-.165.012-.247a5.666 5.666 0 00-1.557-4.051 5.667 5.667 0 00-3.965-1.763 5.6377 5.6377 0 003.433-2.01 5.633 5.633 0 001.251-3.775c0-3.304-3.031-6.336-7.993-6.062-1.53-.042-3.053.229-4.474.797a11.2143 11.2143 0 00-3.791 2.507l2.755 3.03a6.3155 6.3155 0 012.105-1.604c.807-.38 1.686-.584 2.578-.6 1.929 0 3.304 1.102 3.304 2.755 0 2.205-1.377 3.304-3.581 3.304h-1.378l-.551 3.857h1.929c2.479 0 3.856 1.103 3.856 3.582.002.118-.002.237-.013.356a3.5485 3.5485 0 01-3.837 3.229zM209.011 156.585c6.061 0 9.367-4.683 9.367-12.948s-3.304-12.672-9.367-12.672c-6.064 0-9.367 4.408-9.367 12.672s3.307 12.948 9.367 12.948zm.276-21.488c2.204 0 3.304 1.929 3.304 8.54 0 6.611-.828 8.54-3.304 8.54-2.204 0-3.304-1.928-3.304-8.54 0-6.612.825-8.54 3.304-8.54z"/>
  </g>
</svg>
