<svg width="384" height="216" viewBox="0 0 384 216" fill="none" xmlns="http://www.w3.org/2000/svg">
<g filter="url(#filter0_i)">
<path d="M191.867 150.015H131.012V172.359C131.012 176.719 134.716 180.3 139.316 180.3H192.07H244.865C249.424 180.3 253.169 176.758 253.169 172.359V150.015H191.867Z" fill="url(#paint0_linear)"/>
</g>
<g filter="url(#filter1_i)">
<path d="M253.087 149.353L242.381 53.5934C242.096 50.9853 239.776 49 237.049 49H192.069H147.089C144.362 49 142.042 50.9853 141.757 53.5934L131.051 149.353C130.482 154.53 134.715 159.046 140.17 159.046H192.069H243.969C249.423 159.085 253.697 154.569 253.087 149.353Z" fill="url(#paint1_linear)"/>
</g>
<path d="M246.249 123.311L238.963 54.8779C238.841 53.749 237.864 52.9315 236.683 52.9315H192.07H147.457C146.276 52.9315 145.299 53.7879 145.177 54.8779L137.932 123.311C137.647 125.958 139.804 128.216 142.572 128.216H192.07H241.609C244.377 128.216 246.534 125.919 246.249 123.311Z" fill="url(#paint2_linear)"/>
<path d="M211.074 81.7224C209.015 75.0459 202.152 70.0386 193.917 70.0386C187.225 70.0386 181.392 73.3768 178.304 78.2324C177.618 78.0807 176.76 77.9289 175.902 77.9289C170.755 77.9289 166.466 81.7224 166.466 86.2745C166.466 86.7297 166.466 87.3367 166.637 87.7919C160.632 88.854 156 93.7096 156 99.3239C156 105.849 162.005 111.159 169.382 111.159H176.588H195.632H209.358C218.623 111.159 226 104.483 226 96.4409C226 88.854 219.48 82.4811 211.074 81.7224Z" fill="white"/>
<path d="M192.578 89.6285C192.269 89.3618 191.812 89.3612 191.502 89.6269L179.687 99.7746C179.107 100.273 179.459 101.223 180.224 101.223H185.339V111.159H198.742V101.223H203.786C204.549 101.223 204.902 100.275 204.325 99.7761L192.578 89.6285Z" fill="#A87BFF"/>
<path d="M237.66 171.892C239.211 171.892 240.469 170.689 240.469 169.206C240.469 167.722 239.211 166.52 237.66 166.52C236.109 166.52 234.852 167.722 234.852 169.206C234.852 170.689 236.109 171.892 237.66 171.892Z" fill="#A8FFE0"/>
<path fill-rule="evenodd" clip-rule="evenodd" d="M313.471 107H284.659C283.191 107 282 108.191 282 109.659V166.341C282 167.809 283.191 169 284.659 169H328.941C330.409 169 331.6 167.809 331.6 166.341V125.129L313.471 107Z" fill="url(#paint3_linear)"/>
<path d="M293.566 155.086C293.228 155.086 292.941 154.976 292.705 154.756C292.469 154.531 292.351 154.264 292.351 153.955C292.351 153.64 292.469 153.369 292.705 153.144C292.941 152.919 293.228 152.807 293.566 152.807C293.909 152.807 294.199 152.919 294.435 153.144C294.677 153.369 294.798 153.64 294.798 153.955C294.798 154.264 294.677 154.531 294.435 154.756C294.199 154.976 293.909 155.086 293.566 155.086ZM298.81 153.625H298.777V158.875H296.819V146.258H298.777V147.777H298.81C299.48 146.629 300.459 146.055 301.748 146.055C302.845 146.055 303.7 146.44 304.313 147.211C304.926 147.982 305.233 149.017 305.233 150.317C305.233 151.757 304.887 152.911 304.195 153.777C303.503 154.644 302.558 155.077 301.359 155.077C300.256 155.077 299.407 154.593 298.81 153.625ZM298.76 150.216V151.288C298.76 151.918 298.96 152.452 299.359 152.891C299.764 153.33 300.276 153.55 300.895 153.55C301.621 153.55 302.189 153.268 302.6 152.706C303.016 152.137 303.224 151.347 303.224 150.334C303.224 149.484 303.03 148.82 302.642 148.342C302.26 147.858 301.739 147.616 301.081 147.616C300.383 147.616 299.82 147.864 299.393 148.359C298.971 148.854 298.76 149.473 298.76 150.216ZM314.984 154.9H313.026V153.431H312.993C312.362 154.545 311.392 155.102 310.081 155.102C309.018 155.102 308.165 154.717 307.524 153.946C306.888 153.17 306.57 152.115 306.57 150.781C306.57 149.352 306.922 148.207 307.625 147.346C308.334 146.485 309.276 146.055 310.452 146.055C311.617 146.055 312.464 146.522 312.993 147.456H313.026V142.105H314.984V154.9ZM313.052 150.95V149.819C313.052 149.206 312.852 148.685 312.453 148.258C312.053 147.83 311.544 147.616 310.925 147.616C310.193 147.616 309.617 147.889 309.195 148.435C308.778 148.981 308.57 149.738 308.57 150.705C308.57 151.583 308.77 152.278 309.169 152.79C309.575 153.296 310.117 153.55 310.798 153.55C311.468 153.55 312.011 153.305 312.427 152.815C312.844 152.32 313.052 151.698 313.052 150.95ZM322.322 143.7C322.058 143.548 321.756 143.472 321.419 143.472C320.468 143.472 319.993 144.01 319.993 145.084V146.258H322.001V147.794H320.001V154.9H318.043V147.794H316.566V146.258H318.043V144.857C318.043 143.945 318.341 143.228 318.938 142.704C319.534 142.176 320.28 141.911 321.174 141.911C321.658 141.911 322.041 141.965 322.322 142.071V143.7Z" fill="white"/>
<path fill-rule="evenodd" clip-rule="evenodd" d="M313.471 107L331.601 125.13L316.13 125.13C314.661 125.13 313.471 123.939 313.471 122.47L313.471 107Z" fill="#FFB9B0"/>
<path opacity="0.45" d="M112.385 171.77C114.807 171.77 116.77 169.807 116.77 167.385C116.77 164.963 114.807 163 112.385 163C109.963 163 108 164.963 108 167.385C108 169.807 109.963 171.77 112.385 171.77Z" fill="#CED2E2"/>
<path opacity="0.45" d="M354 97L348.5 88L343 97L354 97Z" fill="#CED2E2"/>
<path fill-rule="evenodd" clip-rule="evenodd" d="M92.4705 35.0004H64.1C62.3879 35.0004 61 36.3883 61 38.1004V93.9004C61 95.6124 62.3879 97.0004 64.1 97.0004H107.5C109.212 97.0004 110.6 95.6124 110.6 93.9004V53.1299L92.4705 35.0004Z" fill="#EBEDF3"/>
<path fill-rule="evenodd" clip-rule="evenodd" d="M92.4704 35L110.6 53.1293L95.5704 53.1293C93.8583 53.1293 92.4704 51.7414 92.4704 50.0293L92.4704 35Z" fill="#CDD2DE"/>
<path fill-rule="evenodd" clip-rule="evenodd" d="M85.7995 58.9905H81.3262C80.3844 58.9905 79.5996 58.1905 79.5996 57.2304V56.9104C79.5996 55.9503 80.3844 55.1503 81.3262 55.1503H85.7995V58.9905ZM90.2731 62.8301H85.7997V58.9898H90.2731C91.2149 58.9898 91.9997 59.7899 91.9997 60.7499V61.0699C91.9997 62.03 91.2149 62.8301 90.2731 62.8301ZM81.3263 66.6703H85.7997V62.83H81.3263C80.3846 62.83 79.5997 63.63 79.5997 64.5901V64.9101C79.5997 65.8702 80.3846 66.6703 81.3263 66.6703ZM90.2731 70.577H85.7997V66.7368H90.2731C91.2149 66.7368 91.9997 67.5368 91.9997 68.4969V68.8169C91.9997 69.857 91.2149 70.577 90.2731 70.577ZM82.504 73.4295H89.0964C90.0382 73.4295 90.823 74.1495 90.7445 75.1896V84.3903C90.7445 85.3504 89.9597 86.1505 89.0179 86.1505H82.504C81.5622 86.1505 80.7774 85.3504 80.7774 84.3903V75.1896C80.7774 74.2295 81.5622 73.4295 82.504 73.4295ZM87.9192 84.0703C88.4686 84.0703 88.9395 83.5903 88.9395 83.0302V81.1901C88.9395 80.63 88.4686 80.15 87.9192 80.15H83.6812C83.1318 80.15 82.6609 80.63 82.6609 81.1901V83.0302C82.6609 83.5903 83.1318 84.0703 83.6812 84.0703H87.9192Z" fill="#3F434B"/>
<path d="M50 141C50 127.745 60.7452 117 74 117C87.2548 117 98 127.745 98 141C98 154.255 87.2548 165 74 165C60.7452 165 50 154.255 50 141Z" fill="url(#paint4_linear)"/>
<path fill-rule="evenodd" clip-rule="evenodd" d="M78.2915 131.152C77.3562 131.083 76.4319 131.389 75.7236 132.004L75.7163 132.01L73.0494 134.677L74.5672 136.217L77.2099 133.574C77.8491 133.167 78.6969 133.328 79.1429 133.944L79.1555 133.961L81.1317 135.937L81.1438 135.947C81.7298 136.412 81.8589 137.249 81.444 137.869L76.5919 142.721C76.3853 142.906 76.1056 142.988 75.8315 142.942L75.8176 142.941C75.3793 142.891 74.972 142.69 74.6663 142.372L73.5139 141.2L71.9755 142.739L73.1408 143.904C73.7954 144.576 74.6625 145 75.5947 145.104L75.6097 145.106H75.8665C76.7132 145.118 77.5266 144.776 78.11 144.163L82.9896 139.283L82.9962 139.275C83.6087 138.565 83.9123 137.639 83.8396 136.704C83.7672 135.772 83.3276 134.908 82.6179 134.301L80.6989 132.366C80.0894 131.658 79.2234 131.221 78.2915 131.152ZM72.474 136.97C71.5387 136.9 70.6144 137.207 69.9061 137.822L69.8988 137.828L65.0099 142.717L65.0034 142.724C64.3909 143.435 64.0873 144.361 64.16 145.296C64.2324 146.227 64.6722 147.092 65.3822 147.699L67.3064 149.623C68.0415 150.387 69.0514 150.826 70.1115 150.842C70.9215 150.857 71.7042 150.549 72.2868 149.986L74.9502 147.322L73.4324 145.783L70.7875 148.428C70.1677 148.843 69.3312 148.714 68.8656 148.128L68.856 148.116L66.8841 146.144L66.872 146.134C66.286 145.668 66.157 144.832 66.5718 144.212L71.4085 139.375C72.0363 138.978 72.8647 139.112 73.3344 139.692L73.3426 139.702L74.5019 140.881L76.0403 139.342L74.8811 138.183C74.2715 137.475 73.4057 137.039 72.474 136.97Z" fill="white"/>
<path d="M314 53C314 38.6406 302.359 27 288 27C273.641 27 262 38.6406 262 53V79H288C302.359 79 314 67.3594 314 53Z" fill="url(#paint5_linear)"/>
<path fill-rule="evenodd" clip-rule="evenodd" d="M281.665 45.2472V47.9088H279.071C278.184 47.9088 277.434 48.6253 277.434 49.5466V63.4336C277.434 64.3208 278.15 65.0714 279.071 65.0714H296.575C297.462 65.0714 298.213 64.3549 298.213 63.4336V49.5466C298.213 48.6594 297.496 47.9088 296.575 47.9088H294.016V45.2472C294.016 41.8352 291.253 39.0714 287.841 39.0714C284.429 39.0714 281.665 41.8352 281.665 45.2472ZM284.265 45.2472V47.9088H291.348V45.2472C291.348 42.7905 289.472 41.706 287.807 41.706C286.141 41.706 284.265 42.7905 284.265 45.2472ZM287.492 52.5492C286.298 52.5492 285.343 53.5046 285.343 54.6988C285.343 55.5177 285.786 56.2342 286.469 56.5754L285.582 60.3969H289.403L288.516 56.5754C289.198 56.2001 289.642 55.5177 289.642 54.6988C289.642 53.5046 288.687 52.5492 287.492 52.5492Z" fill="white"/>
<defs>
<filter id="filter0_i" x="125.012" y="150.015" width="128.158" height="34.285" filterUnits="userSpaceOnUse" color-interpolation-filters="sRGB">
<feFlood flood-opacity="0" result="BackgroundImageFix"/>
<feBlend mode="normal" in="SourceGraphic" in2="BackgroundImageFix" result="shape"/>
<feColorMatrix in="SourceAlpha" type="matrix" values="0 0 0 0 0 0 0 0 0 0 0 0 0 0 0 0 0 0 127 0" result="hardAlpha"/>
<feOffset dx="-6" dy="4"/>
<feGaussianBlur stdDeviation="3.5"/>
<feComposite in2="hardAlpha" operator="arithmetic" k2="-1" k3="1"/>
<feColorMatrix type="matrix" values="0 0 0 0 0.21217 0 0 0 0 0.291124 0 0 0 0 0.420833 0 0 0 0.31 0"/>
<feBlend mode="normal" in2="shape" result="effect1_innerShadow"/>
</filter>
<filter id="filter1_i" x="131" y="48" width="122.145" height="111.046" filterUnits="userSpaceOnUse" color-interpolation-filters="sRGB">
<feFlood flood-opacity="0" result="BackgroundImageFix"/>
<feBlend mode="normal" in="SourceGraphic" in2="BackgroundImageFix" result="shape"/>
<feColorMatrix in="SourceAlpha" type="matrix" values="0 0 0 0 0 0 0 0 0 0 0 0 0 0 0 0 0 0 127 0" result="hardAlpha"/>
<feOffset dy="-1"/>
<feGaussianBlur stdDeviation="1"/>
<feComposite in2="hardAlpha" operator="arithmetic" k2="-1" k3="1"/>
<feColorMatrix type="matrix" values="0 0 0 0 1 0 0 0 0 1 0 0 0 0 1 0 0 0 1 0"/>
<feBlend mode="normal" in2="shape" result="effect1_innerShadow"/>
</filter>
<linearGradient id="paint0_linear" x1="131" y1="165" x2="234.868" y2="168.703" gradientUnits="userSpaceOnUse">
<stop stop-color="#BACAE3"/>
<stop offset="1" stop-color="#ADC1DE"/>
</linearGradient>
<linearGradient id="paint1_linear" x1="143.5" y1="49" x2="231.907" y2="166.165" gradientUnits="userSpaceOnUse">
<stop stop-color="#C2D9F4"/>
<stop offset="0.385417" stop-color="#E7F4FF"/>
<stop offset="1" stop-color="#AFC1DB"/>
</linearGradient>
<linearGradient id="paint2_linear" x1="152.5" y1="55.6941" x2="202.056" y2="144.358" gradientUnits="userSpaceOnUse">
<stop offset="0.0117204" stop-color="#66A3FF"/>
<stop offset="1" stop-color="#CC63FE"/>
</linearGradient>
<linearGradient id="paint3_linear" x1="306.8" y1="107" x2="306.8" y2="169" gradientUnits="userSpaceOnUse">
<stop stop-color="#FF7461"/>
<stop offset="1" stop-color="#DD4C4C"/>
</linearGradient>
<linearGradient id="paint4_linear" x1="50.0679" y1="117" x2="79.497" y2="165.157" gradientUnits="userSpaceOnUse">
<stop stop-color="#72D5FF"/>
<stop offset="1" stop-color="#72B9FF"/>
</linearGradient>
<linearGradient id="paint5_linear" x1="288" y1="33.0357" x2="288" y2="84.5714" gradientUnits="userSpaceOnUse">
<stop stop-color="#FFD66C"/>
<stop offset="1" stop-color="#FF658A"/>
</linearGradient>
</defs>
</svg>
