<svg xmlns="http://www.w3.org/2000/svg" width="580" height="360" fill="none">
  <defs/>
  <path fill="#474E6B" d="M575.162 171.22c0 91.485-104.424 96.78-306.172 96.78C173.344 268 5 267.272 5 171.22 5 102 93.933 135.757 281.182 85.379 468.43 35 575.162 41 575.162 171.22z"/>
  <path fill="#2BCBBA" fill-rule="evenodd" d="M55.884 50.768a3.716 3.716 0 114.524 5.897 3.716 3.716 0 01-4.524-5.897z" clip-rule="evenodd"/>
  <path fill="#BABDC6" fill-rule="evenodd" d="M99.43 79.966L104.884 76l3.979 5.493-5.454 3.965-3.98-5.492zM480 38.966L485.455 35l3.978 5.493-5.453 3.965-3.98-5.492zM443.43 170.966l5.454-3.966 3.979 5.493-5.454 3.965-3.979-5.492zM135 231.966l5.455-3.966 3.978 5.493-5.453 3.965-3.98-5.492z" clip-rule="evenodd"/>
  <path fill="#2BCBBA" fill-rule="evenodd" d="M473.558 218.358a3.715 3.715 0 113.178 6.717 3.715 3.715 0 01-3.178-6.717zM483.558 110.358a3.715 3.715 0 113.178 6.717 3.715 3.715 0 01-3.178-6.717zM78.558 156.358a3.716 3.716 0 113.178 6.717 3.716 3.716 0 01-3.178-6.717z" clip-rule="evenodd"/>
  <ellipse cx="290.43" cy="328.5" fill="#262A33" rx="63" ry="7.5"/>
  <path fill="url(#paint0_radial)" fill-rule="evenodd" d="M290.333 309.23s-31.053-6.091-69.729-47.56c-26.304-28.203-48.172-67.929-48.172-111.161V47.029l37.378-11.711a269.35 269.35 0 01161.046 0l37.378 11.711v103.48c0 43.232-21.868 82.958-48.172 111.161-38.676 41.469-69.729 47.56-69.729 47.56z" clip-rule="evenodd"/>
  <path fill="#A0AFEC" fill-rule="evenodd" d="M254.24 196.218l50.306 73.454c-4.227 10.455-1.218 22.551 5.499 31.786 12.643-6.642 30.328-18.57 49.995-39.657 20.68-22.174 38.613-51.472 45.338-83.995-16.108-9.87-32.282-20.133-48.192-29.312-14.186.233-46.175 24.262-102.946 47.724z" clip-rule="evenodd"/>
  <path fill="#3C4B88" fill-rule="evenodd" d="M290.312 309.361s31.053-6.091 69.729-47.56c15.95-17.102 30.259-38.445 39.061-62.233-1.446-.362-2.988-.515-4.466-.659-26.793-2.624-52.782-12.982-74.035-29.506-27.196-21.145-54.578-45.577-81.666-66.861-25.677 16.574-45.455 31.37-66.505 49.359.421 42.742 22.106 81.971 48.153 109.9 38.676 41.469 69.729 47.56 69.729 47.56z" clip-rule="evenodd"/>
  <path fill="#C7D1F2" fill-rule="evenodd" d="M357.186 148.494c-.576.489 5.027 10.854 9.619 14.233 1.304.96 2.833 2.421 1.929 3.948-.471.796-1.401 1.204-2.323 1.153-2.855-.157-7.496-1.096-7.458 2.562.128 12.003 17.536 20.896 25.315 26.558 3.855 2.805 8.361 5.094 13.159 6.96 4.333-10.752 7.561-22.039 9.306-33.694-17.363-6.914-35.443-13.583-49.547-21.72z" clip-rule="evenodd"/>
  <path fill="#fff" fill-rule="evenodd" d="M394.636 198.909c-26.793-2.624-52.782-12.981-74.035-29.505-27.197-21.147-54.58-45.58-81.67-66.865-.802.503 4.299 14.349 9.389 19.356 1.445 1.422 3.081 3.507 1.687 5.239-.725.902-1.95 1.242-3.086 1.015-3.51-.703-8.536-2.237-8.873 2.332-.339 4.578 5.097 7.423 7.9 8.765a59.24 59.24 0 0111.446 7.205c3.718 2.98 2.103 8.962-2.611 9.658l-3.187.471c-4.466.66-6.956 7.045 1.679 15.45 14.039 13.661 30.651 17.711 48.012 21.582 28.211 6.292 64.749 10.804 94.762 13.608a163.493 163.493 0 003.038-7.614c-2.388-.4-3.992-.652-4.451-.697z" clip-rule="evenodd"/>
  <path fill="#F4DFA4" fill-rule="evenodd" d="M360.041 261.802c14.371-15.409 27.408-34.262 36.289-55.243-72.81-1.866-120.052 25.14-182.394 14.349 0 0 57.166 54.905 94.021 81.625 12.744-6.398 31.31-18.457 52.084-40.731z" clip-rule="evenodd"/>
  <path fill="#FED42F" fill-rule="evenodd" d="M290.311 309.361s31.053-6.091 69.729-47.559a203.085 203.085 0 005.869-6.588c-49.408-12.939-95.744-36.547-170.537-36.271-1.808.006-3.541.029-5.216.066 8.337 16.011 18.96 30.497 30.426 42.793 38.676 41.468 69.729 47.559 69.729 47.559z" clip-rule="evenodd"/>
  <path fill="#FFEDC0" fill-rule="evenodd" d="M301.758 258.478c-16.187 11.536-37.378 19.381-55.928 26.71 26.091 20.548 44.481 24.173 44.481 24.173s10.658-2.102 27.25-12.16c2.006-8.443 6.926-20.163 10.217-30.826 4.596-14.891 4.4-21.279 2.818-21.79-3.942-1.273-7.914-2.561-11.928-3.847-1.195 3.669-5.264 9.44-16.91 17.74z" clip-rule="evenodd"/>
  <path fill="#fff" fill-rule="evenodd" d="M295.675 224.52c-1.33-5.101 7.055-7.619 15.67-9.261l-10.816 1.942c-17.496 5.282-8.456 14.574-7.359 15.769 8.458 2.392 16.62 4.928 24.603 7.482-6.479-2-21.034-11.854-22.098-15.932z" clip-rule="evenodd"/>
  <path fill="#fff" d="M305.41 49.041h-3.114v-1.1a2.935 2.935 0 00-.857-2.071 2.948 2.948 0 00-2.072-.859 2.932 2.932 0 00-2.931 2.93v1.1h-14.468v-1.1a2.884 2.884 0 00-.817-2.055 2.888 2.888 0 00-2.031-.875h-.081a2.694 2.694 0 00-2.931 2.44 2.686 2.686 0 000 .49v1.1h-2.929a5.74 5.74 0 00-4.044 1.731 5.741 5.741 0 00-1.635 4.084v32.83a5.902 5.902 0 005.861 5.86h32.049a5.899 5.899 0 005.861-5.86V54.718a6.423 6.423 0 00-5.861-5.677zm1.65 38.459a1.641 1.641 0 01-.47 1.16 1.625 1.625 0 01-1.152.488h-32.259a1.633 1.633 0 01-1.65-1.623V59.663h35.521l.01 27.837z"/>
  <path fill="#fff" d="M280.826 80.237a5.043 5.043 0 01-3.752-1.875l-2.293 2.292a7.533 7.533 0 006.462 2.71c4.586 0 7.087-2.5 7.087-5.627 0-.063.008-.125.009-.188a4.29 4.29 0 00-4.178-4.399 4.263 4.263 0 003.544-4.377c0-2.5-2.293-4.795-6.048-4.587a8.486 8.486 0 00-6.254 2.5l2.085 2.293a4.775 4.775 0 013.543-1.668c1.46 0 2.5.834 2.5 2.085 0 1.668-1.042 2.5-2.71 2.5h-1.042l-.417 2.919h1.459c1.876 0 2.918.834 2.918 2.71a2.684 2.684 0 01-2.913 2.713zM297.085 83.573c4.586 0 7.088-3.543 7.088-9.797 0-6.254-2.5-9.59-7.088-9.59s-7.087 3.336-7.087 9.59c0 6.253 2.502 9.797 7.087 9.797zm.209-16.26c1.668 0 2.5 1.46 2.5 6.462 0 5.003-.626 6.463-2.5 6.463-1.668 0-2.5-1.46-2.5-6.463s.624-6.462 2.5-6.462z"/>
  <defs>
    <radialGradient id="paint0_radial" cx="0" cy="0" r="1" gradientTransform="rotate(97.96 49.018 177.909) scale(191.018 179.986)" gradientUnits="userSpaceOnUse">
      <stop stop-color="#E1EAFF"/>
      <stop offset="1" stop-color="#B2BFF4"/>
    </radialGradient>
  </defs>
</svg>
