<svg width="384" height="216" viewBox="0 0 384 216" fill="none" xmlns="http://www.w3.org/2000/svg">
<path d="M344.584 170.425C344.926 169.77 345.87 169.792 346.181 170.462L352.627 184.362H337.312L344.584 170.425Z" fill="#38385F"/>
<path d="M240.109 170.425C240.451 169.77 241.396 169.792 241.706 170.462L248.153 184.362H232.838L240.109 170.425Z" fill="#5AD098"/>
<path d="M357.333 170.947C357.847 170.264 358.934 170.628 358.934 171.483L358.934 184.362H347.223L357.333 170.947Z" fill="#5AD098"/>
<path opacity="0.3" d="M272.492 128.129H119.72C118.211 128.129 117 126.887 117 125.381V98.748C117 97.2423 118.23 96 119.72 96H272.474C273.983 96 275.194 97.2423 275.194 98.748V125.381C275.212 126.906 273.983 128.129 272.492 128.129Z" fill="url(#paint0_linear)"/>
<path d="M316.727 113.695H301.221V183.811H316.727V113.695Z" fill="#EA795A"/>
<path d="M316.727 155.623L301.221 147.244V118.23H316.727V155.623Z" fill="url(#paint1_linear)"/>
<path d="M359.069 127.412H261.322C259.771 127.412 258.489 126.16 258.489 124.579V96.9371C258.489 84.3235 268.717 74.1254 281.301 74.1254H336.198C348.812 74.1254 359.01 84.3534 359.01 96.9371V127.412H359.069Z" fill="url(#paint2_linear)"/>
<path d="M301.221 127.413H261.531V96.8781C261.531 85.9345 270.417 77.0483 281.361 77.0483C292.305 77.0483 301.191 85.9345 301.191 96.8781V127.413H301.221Z" fill="url(#paint3_linear)"/>
<path d="M301.043 127.08H261.354V96.5451C261.354 85.6015 270.24 76.7153 281.183 76.7153C292.127 76.7153 301.013 85.6015 301.013 96.5451V127.08H301.043Z" fill="url(#paint4_linear)"/>
<path d="M282.129 127.792H239.357C237.848 127.792 236.637 126.55 236.637 125.044V98.4109C236.637 96.9051 237.866 95.6628 239.357 95.6628H282.111C283.62 95.6628 284.83 96.9051 284.83 98.4109V125.044C284.849 126.569 283.62 127.792 282.129 127.792Z" fill="url(#paint5_linear)"/>
<path d="M258.977 114.162C259.987 114.995 261.465 114.995 262.475 114.162L284.067 96.3848C283.581 95.9404 282.926 95.6626 282.215 95.6626H239.256C238.545 95.6626 237.89 95.9404 237.403 96.3848L258.977 114.162Z" fill="url(#paint6_linear)"/>
<path fill-rule="evenodd" clip-rule="evenodd" d="M320.484 67.834H337.542C338.496 67.834 339.271 67.0587 339.271 66.1045V53.7295C339.271 52.7753 338.496 52 337.542 52H316.013C315.058 52 314.283 52.7753 314.283 53.7295V59.2824H314.281V101.798C314.281 103.497 315.683 104.899 317.382 104.899C319.112 104.899 320.484 103.497 320.484 101.798V67.834Z" fill="url(#paint7_linear)"/>
<path d="M301.221 127.413H297.375V129.142H261.532L251.662 136.239C251.662 136.239 249.127 138.088 248.382 140.682L248.173 140.444V142.113C248.173 143.396 248.71 144.827 250.171 146.229C254.823 150.165 271.79 151.357 284.344 141.905C296.868 132.452 301.221 129.112 301.221 129.112V127.413Z" fill="url(#paint8_linear)"/>
<path d="M261.532 127.413L251.662 134.51C251.662 134.51 244.923 139.46 250.171 144.529C254.823 148.465 271.79 149.658 284.344 140.205C296.898 130.752 301.222 127.413 301.222 127.413H261.532Z" fill="#B8E2FF"/>
<path d="M317.383 103.348C318.19 103.348 318.844 102.693 318.844 101.886C318.844 101.079 318.19 100.425 317.383 100.425C316.576 100.425 315.922 101.079 315.922 101.886C315.922 102.693 316.576 103.348 317.383 103.348Z" fill="white"/>
<g opacity="0.7">
<path d="M42.5565 170.425C42.8982 169.77 43.8428 169.792 44.1536 170.462L50.6 184.362H35.2852L42.5565 170.425Z" fill="#6D6D6D"/>
<path d="M32.1093 170.425C32.4509 169.77 33.3956 169.792 33.7063 170.462L40.1528 184.362H24.8379L32.1093 170.425Z" fill="#E1E1E1"/>
<path d="M142.272 170.947C142.786 170.264 143.873 170.628 143.873 171.483L143.873 184.362H132.162L142.272 170.947Z" fill="#E1E1E1"/>
<path d="M74.7792 113.695H90.2852V183.811H74.7792V113.695Z" fill="#E1E1E1"/>
<path d="M74.7792 155.623L90.2852 147.244V118.229H74.7792V155.623Z" fill="url(#paint9_linear)"/>
<path d="M31.9999 127.287H129.747C131.298 127.287 132.58 126.035 132.58 124.454V96.8117C132.58 84.1982 122.352 74 109.768 74H54.8712C42.2577 74 32.0595 84.228 32.0595 96.8117V127.287H31.9999Z" fill="url(#paint10_linear)"/>
<path d="M90.463 127.08H130.152V96.5449C130.152 85.6012 121.266 76.7151 110.323 76.7151C99.3789 76.7151 90.4928 85.6012 90.4928 96.5449V127.08H90.463Z" fill="url(#paint11_linear)"/>
<path fill-rule="evenodd" clip-rule="evenodd" d="M40.6719 104.741L40.6719 121.799C40.6719 122.753 39.8966 123.529 38.9424 123.529L26.5674 123.529C25.6132 123.529 24.8379 122.753 24.8379 121.799L24.8379 100.27C24.8379 99.3155 25.6132 98.5402 26.5674 98.5402L32.1203 98.5402L32.1203 98.5387L74.6355 98.5387C76.3352 98.5387 77.7367 99.9402 77.7367 101.64C77.7367 103.369 76.3352 104.741 74.6355 104.741L40.6719 104.741Z" fill="url(#paint12_linear)"/>
<path d="M90.2846 127.412H94.1313V129.142H129.974L139.844 136.239C139.844 136.239 142.379 138.088 143.124 140.682L143.333 140.443V142.113C143.333 143.395 142.796 144.827 141.335 146.228C136.683 150.164 119.716 151.357 107.162 141.904C94.6382 132.452 90.2846 129.112 90.2846 129.112V127.412Z" fill="url(#paint13_linear)"/>
<path d="M129.974 127.412L139.844 134.509C139.844 134.509 146.583 139.459 141.335 144.529C136.683 148.465 119.716 149.657 107.162 140.205C94.6081 130.752 90.2843 127.412 90.2843 127.412H129.974Z" fill="#E1E1E1"/>
<path d="M74.1228 103.347C73.3159 103.347 72.6617 102.693 72.6617 101.886C72.6617 101.079 73.3159 100.425 74.1228 100.425C74.9298 100.425 75.584 101.079 75.584 101.886C75.584 102.693 74.9298 103.347 74.1228 103.347Z" fill="white"/>
</g>
<defs>
<linearGradient id="paint0_linear" x1="131" y1="112" x2="275" y2="112" gradientUnits="userSpaceOnUse">
<stop stop-color="#BEBEBE" stop-opacity="0"/>
<stop offset="1" stop-color="#BEBEBE"/>
</linearGradient>
<linearGradient id="paint1_linear" x1="308.901" y1="127.679" x2="308.901" y2="144.781" gradientUnits="userSpaceOnUse">
<stop stop-color="#0D0A44"/>
<stop offset="1" stop-color="#0D0A44" stop-opacity="0"/>
</linearGradient>
<linearGradient id="paint2_linear" x1="308.779" y1="74.1254" x2="308.779" y2="127.412" gradientUnits="userSpaceOnUse">
<stop stop-color="#B9E2FF"/>
<stop offset="1" stop-color="#73B5E4"/>
</linearGradient>
<linearGradient id="paint3_linear" x1="294.791" y1="92.6178" x2="261.869" y2="127.25" gradientUnits="userSpaceOnUse">
<stop stop-color="#0D0A44"/>
<stop offset="1" stop-color="#0D0A44" stop-opacity="0"/>
</linearGradient>
<linearGradient id="paint4_linear" x1="294.614" y1="92.2848" x2="261.692" y2="126.917" gradientUnits="userSpaceOnUse">
<stop stop-color="#0D0A44"/>
<stop offset="1" stop-color="#0D0A44" stop-opacity="0"/>
</linearGradient>
<linearGradient id="paint5_linear" x1="260.734" y1="95.6628" x2="260.734" y2="120.907" gradientUnits="userSpaceOnUse">
<stop stop-color="#C1DEF8"/>
<stop offset="1" stop-color="#ECFAFF"/>
</linearGradient>
<linearGradient id="paint6_linear" x1="260.735" y1="87.6303" x2="260.735" y2="109.815" gradientUnits="userSpaceOnUse">
<stop stop-color="#DEEBF7"/>
<stop offset="1" stop-color="white"/>
</linearGradient>
<linearGradient id="paint7_linear" x1="326.776" y1="52" x2="326.776" y2="104.899" gradientUnits="userSpaceOnUse">
<stop stop-color="#EB7A75"/>
<stop offset="1" stop-color="#E02626"/>
</linearGradient>
<linearGradient id="paint8_linear" x1="260.16" y1="128.533" x2="286.241" y2="147.345" gradientUnits="userSpaceOnUse">
<stop stop-color="#B9E2FF"/>
<stop offset="1" stop-color="#1571B3"/>
</linearGradient>
<linearGradient id="paint9_linear" x1="82.605" y1="127.678" x2="82.605" y2="144.781" gradientUnits="userSpaceOnUse">
<stop stop-color="#6D6D6D"/>
<stop offset="1" stop-color="#6D6D6D" stop-opacity="0"/>
</linearGradient>
<linearGradient id="paint10_linear" x1="82.29" y1="86.375" x2="82.29" y2="127.287" gradientUnits="userSpaceOnUse">
<stop stop-color="#E1E1E1"/>
<stop offset="1" stop-color="#BEBEBE"/>
</linearGradient>
<linearGradient id="paint11_linear" x1="96.8923" y1="92.2846" x2="129.814" y2="126.917" gradientUnits="userSpaceOnUse">
<stop stop-color="#1F1F1F"/>
<stop offset="1" stop-color="#6D6D6D" stop-opacity="0"/>
</linearGradient>
<linearGradient id="paint12_linear" x1="27.5" y1="90.5001" x2="48" y2="120.5" gradientUnits="userSpaceOnUse">
<stop stop-color="#DFDFDF"/>
<stop offset="0.96875" stop-color="#9E9E9E"/>
</linearGradient>
<linearGradient id="paint13_linear" x1="131.346" y1="128.533" x2="105.265" y2="147.345" gradientUnits="userSpaceOnUse">
<stop stop-color="#E9E9E9"/>
<stop offset="1" stop-color="#A5A5A5"/>
</linearGradient>
</defs>
</svg>
