<svg xmlns="http://www.w3.org/2000/svg" width="493" height="360" fill="none">
  <defs/>
  <path fill="#262A33" d="M9 46c0-8.837 7.163-16 16-16h144v280H25c-8.837 0-16-7.163-16-16V46z"/>
  <path fill="#F6F7FA" d="M169 151h300v143c0 8.837-7.163 16-16 16H169V151z"/>
  <rect width="118" height="36" x="31" y="113" fill="#3C4B88" rx="3"/>
  <rect width="72" height="42" x="31" y="49" fill="#323641" rx="4"/>
  <path fill="#262A33" d="M169 30h284c8.837 0 16 7.163 16 16v65H169V30z"/>
  <rect width="150" height="28" x="169" y="56" fill="#1B1D24" rx="3"/>
  <path fill="#fff" fill-rule="evenodd" d="M188.6 72.89c.65-.8 1.003-1.8 1-2.83a4.56 4.56 0 10-4.56 4.56 4.467 4.467 0 002.83-1l4.26 4.25.7-.7-4.23-4.28zm-3.54.73a3.56 3.56 0 113.56-3.56 3.57 3.57 0 01-3.56 3.56z" clip-rule="evenodd" opacity=".2"/>
  <rect width="94" height="8" x="31" y="173" fill="#3C414E" rx="1"/>
  <rect width="63" height="6" x="344" y="61" fill="#3C414E" rx="1"/>
  <rect width="98" height="8" x="31" y="213" fill="#3C414E" rx="1"/>
  <rect width="98" height="8" x="31" y="253" fill="#3C414E" rx="1"/>
  <rect width="81" height="8" x="31" y="193" fill="#3C414E" rx="1"/>
  <rect width="43" height="6" x="364" y="74" fill="#3C414E" rx="1"/>
  <rect width="69" height="8" x="31" y="233" fill="#3C414E" rx="1"/>
  <rect width="69" height="8" x="31" y="273" fill="#3C414E" rx="1"/>
  <rect width="181" height="8" x="218" y="172" fill="#EEEFF3" rx="1"/>
  <rect width="157" height="8" x="218" y="188" fill="#EEEFF3" rx="1"/>
  <rect width="24" height="24" x="186" y="172" fill="#EEEFF3" rx="3"/>
  <rect width="181" height="8" x="218" y="215" fill="#EEEFF3" rx="1"/>
  <rect width="157" height="8" x="218" y="231" fill="#EEEFF3" rx="1"/>
  <rect width="24" height="24" x="186" y="215" fill="#EEEFF3" rx="3"/>
  <rect width="181" height="8" x="218" y="258" fill="#EEEFF3" rx="1"/>
  <rect width="157" height="8" x="218" y="274" fill="#EEEFF3" rx="1"/>
  <rect width="24" height="24" x="186" y="258" fill="#EEEFF3" rx="3"/>
  <path fill="#262A33" d="M169 111h7v7h-7z"/>
  <path fill="#3C414E" d="M169 114a3 3 0 013-3h297v40H169v-37z"/>
  <circle cx="431" cy="71.999" r="62" fill="#657EE4" fill-opacity=".5"/>
  <path fill="#3C414E" d="M131 61h4v4h-4zM131 68h4v4h-4zM131 75h4v4h-4zM138 75h4v4h-4zM145 75h4v4h-4zM145 68h4v4h-4zM138 68h4v4h-4zM138 61h4v4h-4zM145 61h4v4h-4z"/>
  <path fill="#fff" fill-rule="evenodd" d="M446 54.5h-29a1.5 1.5 0 00-1.5 1.5v29a1.5 1.5 0 001.5 1.5h29a1.5 1.5 0 001.5-1.5V56a1.5 1.5 0 00-1.5-1.5zM417 53a3 3 0 00-3 3v29a3 3 0 003 3h29a3 3 0 003-3V56a3 3 0 00-3-3h-29z" clip-rule="evenodd"/>
  <path fill="#fff" d="M423.831 72.445V76h-1.62v-9.803h2.974c1.125 0 1.998.262 2.618.786.62.524.929 1.263.929 2.215 0 .953-.323 1.732-.97 2.338-.647.606-1.522.91-2.625.91h-1.306zm0-4.908v3.582h1.053c.697 0 1.228-.162 1.593-.485.364-.324.546-.78.546-1.367 0-1.153-.669-1.73-2.009-1.73h-1.183zM441.178 76h-1.614v-6.344c0-.52.032-1.155.096-1.907h-.027c-.1.428-.189.736-.267.923L436.44 76h-1.121l-2.932-7.273a6.831 6.831 0 01-.26-.978h-.027c.036.392.054 1.032.054 1.92V76h-1.504v-9.803h2.29l2.578 6.529c.196.5.323.875.382 1.12h.035c.168-.514.305-.897.41-1.148l2.625-6.5h2.208V76z"/>
  <path fill="#EEEFF3" d="M382 352c0 3.866-23.917 7-143.5 7-79.253 0-143.5-.891-143.5-7s64.247-7 143.5-7 143.5 0 143.5 7z"/>
</svg>
