<svg width="580" height="360" fill="none" xmlns="http://www.w3.org/2000/svg"><path fill-rule="evenodd" clip-rule="evenodd" d="M322.341 326.002c20.706-.049 41.585.79 54.118 2.61 12.232 1.776 10.543 4.108 7.31 6.31-3.631 2.473-6.274 5.327-26.167 6.533-20.611 1.25-44.861.093-66.548-.911-23.859-1.104-58.939.911-58.939-4.897 0-5.769 20.638-4.823 38.971-6.783 14.469-1.547 31.115-2.814 51.255-2.862z" fill="#262A33"/><path d="M558.116 159.061c0 52.439-42.853 88.939-229.5 88.939-88.488 0-132.001 19-227-6-41.233-10.851-78.987-26-80.5-82.939C16.116-29 174.116 67 328.616 67s229.5-15.246 229.5 92.061z" fill="#474E6B"/><path fill-rule="evenodd" clip-rule="evenodd" d="M473.445 97.119a2 2 0 0 1 2.45-1.414l43.466 11.647a2 2 0 0 1 1.415 2.449l-1.553 5.796-6.762-1.812 1.035-3.864a1 1 0 0 0-.707-1.225l-14.488-3.882a1 1 0 0 0-1.225.707l-1.036 3.864-24.148-6.471 1.553-5.795zm3.795 5.158a2 2 0 1 0 1.034-3.864 2 2 0 0 0-1.034 3.864zm6.761 1.811a2 2 0 1 0 1.036-3.864 2 2 0 0 0-1.036 3.864zm9.211.398a2 2 0 1 1-3.863-1.035 2 2 0 0 1 3.863 1.035z" fill="#94A4E7"/><path d="M468.389 123.716l5.694-21.25-1.932-.518-5.694 21.251a2 2 0 0 0 1.414 2.449l43.467 11.647a2 2 0 0 0 2.45-1.414l5.694-21.25-1.932-.518-5.694 21.25-43.467-11.647z" fill="#94A4E7"/><path fill-rule="evenodd" clip-rule="evenodd" d="M446.611 181.697a2 2 0 0 1 1.407-2.453l43.431-11.78a2 2 0 0 1 2.454 1.406l1.57 5.791-6.756 1.832-1.047-3.86a.999.999 0 0 0-1.227-.703l-14.476 3.926a1.001 1.001 0 0 0-.704 1.227l1.047 3.861-24.128 6.544-1.571-5.791zm5.873 2.552a2 2 0 1 0-1.048-3.861 2 2 0 0 0 1.048 3.861zm6.756-1.832a2 2 0 1 0-1.049-3.862 2 2 0 0 0 1.049 3.862zm8.163-4.287a2 2 0 1 1-3.862 1.047 2 2 0 0 1 3.862-1.047z" fill="#94A4E7"/><path d="M455.61 207.232l-5.759-21.233-1.931.524 5.759 21.233a2 2 0 0 0 2.454 1.407l43.431-11.78a2 2 0 0 0 1.407-2.454l-5.759-21.233-1.931.523 5.759 21.233-43.43 11.78z" fill="#94A4E7"/><path fill-rule="evenodd" clip-rule="evenodd" d="M83.622 84.349a2 2 0 0 1 1.428-2.442l43.532-11.4a2 2 0 0 1 2.441 1.428l1.52 5.804-6.771 1.774-1.014-3.87a1 1 0 0 0-1.22-.714l-14.511 3.8a1 1 0 0 0-.714 1.22l1.013 3.87-24.184 6.334-1.52-5.804zm5.85 2.603a2 2 0 1 0-1.013-3.87 2 2 0 0 0 1.013 3.87zm6.772-1.774a2 2 0 1 0-1.014-3.87 2 2 0 0 0 1.014 3.87zm8.2-4.215a2.001 2.001 0 1 1-3.872 1.012 2.001 2.001 0 0 1 3.872-1.012z" fill="#94A4E7"/><path d="M92.397 109.961l-5.574-21.282-1.934.507 5.573 21.282a2 2 0 0 0 2.442 1.428l43.532-11.401a2 2 0 0 0 1.428-2.441l-5.574-21.282-1.935.506 5.574 21.283-43.532 11.4z" fill="#94A4E7"/><path fill-rule="evenodd" clip-rule="evenodd" d="M99.877 162.983a2.001 2.001 0 0 1 2.243-1.724l44.62 5.837a1.999 1.999 0 0 1 1.723 2.243l-.778 5.949-6.941-.908.519-3.966a1 1 0 0 0-.862-1.122l-14.873-1.945a.999.999 0 0 0-1.121.862l-.519 3.966-24.789-3.243.778-5.949zm4.439 4.615a2 2 0 1 0 .519-3.967 2 2 0 0 0-.519 3.967zm6.941.908a2 2 0 1 0 .52-3.966 2 2 0 0 0-.52 3.966zm9.184-.816a2.002 2.002 0 0 1-3.967-.519 2.002 2.002 0 0 1 3.967.519z" fill="#94A4E7"/><path d="M98.359 190.014l2.853-21.814-1.983-.259-2.854 21.814a2 2 0 0 0 1.724 2.243l44.62 5.836a2 2 0 0 0 2.242-1.724l2.854-21.814-1.983-.259-2.854 21.814-44.62-5.837z" fill="#94A4E7"/><path fill-rule="evenodd" clip-rule="evenodd" d="M45.57 40.768a3.716 3.716 0 1 1 4.523 5.897 3.716 3.716 0 0 1-4.524-5.897zm86.999 187a3.717 3.717 0 0 1 4.524 5.897 3.717 3.717 0 0 1-4.524-5.897zm401-51a3.717 3.717 0 0 1 4.524 5.897 3.717 3.717 0 0 1-4.524-5.897z" fill="#2BCBBA"/><path fill-rule="evenodd" clip-rule="evenodd" d="M175.115 76.966L180.57 73l3.979 5.493-5.454 3.965-3.98-5.492zm338-26L518.57 47l3.979 5.493-5.454 3.965-3.98-5.492zm-451 114L67.57 161l3.979 5.493-5.454 3.965-3.98-5.492z" fill="#BABDC6"/><path fill-rule="evenodd" clip-rule="evenodd" d="M426.243 84.358a3.716 3.716 0 1 1 3.178 6.717 3.716 3.716 0 0 1-3.178-6.717z" fill="#2BCBBA"/><path fill-rule="evenodd" clip-rule="evenodd" d="M433.936 263.733L208.188 294.2a7.134 7.134 0 0 1-8.023-6.116l-19.33-143.239a7.132 7.132 0 0 1 6.115-8.024l225.747-30.466a7.133 7.133 0 0 1 8.023 6.116l19.332 143.238a7.135 7.135 0 0 1-6.116 8.024z" fill="#A2B1EE"/><path fill-rule="evenodd" clip-rule="evenodd" d="M295.756 19.612c-6.032-4.305-14.369-3.18-19.043 2.57L182.846 137.63a10 10 0 0 0-2.152 7.647l1.091 8.078 121.399 64.962c6.031 4.305 14.369 3.178 19.043-2.57l99.836-94.82-1.092-8.079a9.998 9.998 0 0 0-4.1-6.801L295.756 19.612z" fill="url(#paint0_radial)"/><path fill-rule="evenodd" clip-rule="evenodd" d="M439.735 258.579L319.311 194.14c-6.031-4.305-14.369-3.179-19.042 2.57l-99.037 94.059a7.461 7.461 0 0 0 7.288 3.385l225.085-30.376a7.463 7.463 0 0 0 6.13-5.199z" fill="#94A4E7"/><path fill-rule="evenodd" clip-rule="evenodd" d="M364.541 99.499c-6.89-.129-14.808 10.223-32.607 21.78 1.687 1.501 3.63 2.748 5.161 4.453 5.606 6.249-19.362 46.878-32.877 74.663-8.123 16.7-.735 19.773 22.166 9.219 15.166-12.4 36.987-32.275 67.544-61.966l5.171-4.912c-6.008-1.799-7.323-6.512-11.844-10.052l-22.714-33.185z" fill="#A2B1EE"/><path fill-rule="evenodd" clip-rule="evenodd" d="M369.385 102.575a434.844 434.844 0 0 0-4.843-3.076c-.425.335.157 6.717 3.73 10.625 3.443 3.77 5.022 5.36 4.338 6.429-.358.558-1.032.826-1.692.767-2.039-.185-5.336-.973-5.4 1.645-.212 8.592 23.114 22.562 33.582 23.771l13.653-12.968c-11.606-6.383-26.714-16.38-38.625-24.124-1.648-1.072-3.236-2.1-4.743-3.069z" fill="#fff"/><path fill-rule="evenodd" clip-rule="evenodd" d="M285.152 76.026l.006.004-.006-.004z" fill="#8298E9"/><path fill-rule="evenodd" clip-rule="evenodd" d="M293.065 115.029l2.293-.265c3.387-.392 4.678-4.637 2.085-6.854-2.459-2.101-5.39-13.36-4.85-13.99 1.036-1.207-.088-2.735-1.09-3.786-3.523-3.691-6.853-13.68-6.285-14.058-23.779 14.31-42.67 40.023-103.989 71.441l.626 5.887 21.455 11.48c9.294.323 29.957 1.132 31.728 1.181 23.513.654 43.328 4.217 61.116 8.976 10.396-.823 20.711-2.405 31.367-4.008.229-.066.449-.135.691-.199 7.091-1.045 14.281-2.167 21.663-3.195-1.3.318-2.703.593-4.161.843 9.087-1.121 18.562-1.97 28.654-2.141l13.464-12.787c-19.795-2.651-42.271-6.35-60.042-10.905-12.337-3.162-24.133-6.434-33.872-16.527-5.99-6.208-4.063-10.722-.853-11.093z" fill="#3C4B88"/><path fill-rule="evenodd" clip-rule="evenodd" d="M331.938 121.279c-16.464-14.645-29.631-30.88-46.776-45.248a.043.043 0 0 0-.007-.007l-.002-.002c-.002 0-.001.004-.002.005-.568.379 2.761 10.368 6.284 14.058 1.002 1.051 2.125 2.58 1.09 3.787-.539.63-1.424.846-2.232.657-2.495-.582-5.18-1.532-5.512 1.154-.404 3.262 2.59 5.741 4.565 6.765a42.397 42.397 0 0 1 8.029 5.414c2.593 2.216 1.303 6.46-2.085 6.853l-2.292.265c-3.211.371-6.059 5.893-.07 12.102 9.739 10.092 23.358 16.942 90.982 30.084l4.682-4.447c-18.957-2.589-36.889-14.876-51.493-26.987a199.445 199.445 0 0 1-5.161-4.453z" fill="#fff"/><path fill-rule="evenodd" clip-rule="evenodd" d="M320.45 182.47c.069.026.128.046.195.07-1.82-2.56-4.412-8.292 6.805-11.554-10.657 1.602-20.972 3.185-31.366 4.007 8.526 2.281 16.589 4.835 24.364 7.479l.002-.002z" fill="#F4DFA4"/><path fill-rule="evenodd" clip-rule="evenodd" d="M320.645 182.54l.034.012a695.33 695.33 0 0 1 5.585 1.929c.742.257 1.532.533 2.45.861l.002.001c2.875 1.017 5.717 2.035 8.54 3.047-5.664-3.216-12.682-8.597-13.278-11.213-1.44-6.336 11.435-6.973 21.664-8.742a62.055 62.055 0 0 0 4.162-.843c-7.383 1.028-14.573 2.15-21.663 3.194-.243.065-.462.134-.692.2-11.216 3.261-8.625 8.994-6.804 11.554z" fill="#fff"/><path fill-rule="evenodd" clip-rule="evenodd" d="M320.68 182.551c2.24.794 3.763 1.3 5.584 1.929a681.747 681.747 0 0 0-5.584-1.929z" fill="#5064B6"/><path fill-rule="evenodd" clip-rule="evenodd" d="M323.98 177.176c.596 2.616 7.614 7.998 13.277 11.214 3.365 1.205 6.699 2.4 10.02 3.569l27.021-25.666c-10.092.172-19.566 1.02-28.654 2.143-10.23 1.767-23.105 2.404-21.664 8.74z" fill="#F4DFA4"/><path fill-rule="evenodd" clip-rule="evenodd" d="M286.919 201.577c14.58-3.879 30.315-12.092 33.53-19.104-7.774-2.645-15.837-5.199-24.364-7.48-17.789-4.759-37.604-8.321-61.117-8.976-1.771-.049-22.433-.857-31.728-1.18l72.456 38.772c4.797-.703 9.571-1.592 11.223-2.032zm50.339-13.188c-2.822-1.012-5.664-2.03-8.54-3.046 1.303.471 1.17 5.958-3.048 18.237-.897 2.613-1.533 6.902-2.227 11.016l23.833-22.638c-3.319-1.167-6.653-2.363-10.018-3.569z" fill="#FED42F"/><path fill-rule="evenodd" clip-rule="evenodd" d="M325.667 203.579c4.218-12.279 4.351-17.765 3.048-18.237l-.002-.001a250.07 250.07 0 0 0-2.45-.861c-1.821-.629-3.344-1.135-5.585-1.929l-.034-.012a21.67 21.67 0 0 0-.196-.069l-.001.001c-3.216 7.013-18.951 15.227-33.531 19.105-1.652.44-6.426 1.329-11.223 2.031l27.49 14.71c6.03 4.304 14.368 3.179 19.042-2.57l1.214-1.153c.695-4.112 1.331-8.402 2.228-11.015z" fill="#FFEDC0"/><defs><radialGradient id="paint0_radial" cx="0" cy="0" r="1" gradientUnits="userSpaceOnUse" gradientTransform="matrix(18.19692 120.97406 -162.2784 24.40992 195.898 124.142)"><stop stop-color="#B2BFF4"/><stop offset="1" stop-color="#E1EAFF"/></radialGradient></defs></svg>