<svg xmlns="http://www.w3.org/2000/svg" width="400" height="280" fill="none">
  <defs/>
  <path fill="#474E6B" d="M398.24 136.017c4.5 82.606-72.676 87.606-213.084 87.606-66.566 0-200.4317-3.499-183.7263-87.606 9.8105-49.3935 39.8102-22.393 192.8103-64.3935 153-42 199.184-24 204 64.3935z"/>
  <path fill="#2BCBBA" fill-rule="evenodd" d="M69.6943 21.768c1.6283-1.2493 3.961-.942 5.2103.6862 1.2493 1.6283.942 3.961-.6863 5.2103-1.6283 1.2493-3.9609.942-5.2099-.6854-1.2497-1.6291-.942-3.961.6859-5.2111z" clip-rule="evenodd"/>
  <path fill="#BABDC6" fill-rule="evenodd" d="M90.2402 44.9658L95.6947 41l3.9789 5.4929-5.4537 3.9655-3.9797-5.4926zM248.24 16.9658L253.695 13l3.979 5.4929-5.454 3.9655-3.98-5.4926zM297.24 114.966l5.455-3.966 3.979 5.493-5.454 3.965-3.98-5.492zM35.2402 178.966L40.6947 175l3.9789 5.493-5.4537 3.965-3.9797-5.492z" clip-rule="evenodd"/>
  <path fill="#2BCBBA" fill-rule="evenodd" d="M317.368 171.358c1.856-.878 4.071-.085 4.948 1.77.878 1.856.085 4.071-1.77 4.948-1.856.878-4.071.085-4.948-1.77-.878-1.856-.084-4.071 1.77-4.948zM321.368 55.3576c1.856-.8773 4.071-.085 4.948 1.7705.878 1.8556.085 4.0712-1.77 4.9482-1.856.8774-4.071.0851-4.948-1.7705-.878-1.8555-.084-4.0711 1.77-4.9482zM67.3682 116.358c1.8556-.878 4.0709-.085 4.9483 1.77.8773 1.856.0842 4.071-1.7705 4.948-1.8556.878-4.0709.085-4.9483-1.77-.8773-1.856-.0842-4.071 1.7705-4.948z" clip-rule="evenodd"/>
  <path fill="#93A5EC" d="M259.009 55.1942l27.513 8.617.05 64.5338c.027 31.893-16.043 61.212-35.383 82.033-28.437 30.614-51.283 35.125-51.283 35.125s-22.856-4.475-51.34-35.044c-19.373-20.791-35.489-50.084-35.514-81.977L113 63.9471l27.499-8.6602a197.7261 197.7261 0 01118.51-.0927z"/>
  <path fill="#262A33" d="M263 265.5c0 4.142-11.706 6.5-46.5 6.5s-79.5-2.358-79.5-6.5c0-4.142 28.206-7.5 63-7.5s63 1.5 63 7.5z"/>
  <path fill="#fff" d="M219.665 118.615c-.213 0-.425 0-.637.012a21.6612 21.6612 0 00-8.158-10.273 21.6596 21.6596 0 00-12.591-3.681 21.6585 21.6585 0 00-12.407 4.26 21.6625 21.6625 0 00-7.674 10.64 17.9469 17.9469 0 00-12.004 5.972 17.9396 17.9396 0 00-4.513 12.624 17.942 17.942 0 005.495 12.229 17.9427 17.9427 0 0012.438 5.007h12.891v-8.46h-9.431l16.786-16.79 16.791 16.79h-9.708v8.46h-14.297v8.458h-9.713l16.791 16.792 16.79-16.792h-9.43v-8.458h13.382v-.019a18.396 18.396 0 0012.608-5.81 18.391 18.391 0 004.957-12.967 18.3936 18.3936 0 00-5.517-12.739 18.3913 18.3913 0 00-12.849-5.255z"/>
</svg>
