<svg width="580" height="360" fill="none" xmlns="http://www.w3.org/2000/svg"><path d="M575.162 156.22c0 91.485-104.424 96.78-306.172 96.78C173.344 253 5 252.272 5 156.22 5 87 93.933 120.757 281.182 70.379 468.43 20 575.162 26 575.162 156.22z" fill="#474E6B"/><path fill-rule="evenodd" clip-rule="evenodd" d="M55.884 50.768a3.716 3.716 0 1 1 4.524 5.897 3.716 3.716 0 0 1-4.524-5.897z" fill="#2BCBBA"/><path fill-rule="evenodd" clip-rule="evenodd" d="M99.43 79.966L104.884 76l3.979 5.493-5.454 3.965-3.98-5.492zm372.57-57L477.455 19l3.978 5.493-5.453 3.965-3.98-5.492zm-28.57 148l5.454-3.966 3.979 5.493-5.454 3.965-3.979-5.492zm-308.43 61l5.455-3.966 3.978 5.493-5.453 3.965-3.98-5.492z" fill="#BABDC6"/><path fill-rule="evenodd" clip-rule="evenodd" d="M473.558 218.358a3.715 3.715 0 1 1 3.178 6.717 3.715 3.715 0 0 1-3.178-6.717zm10-108a3.715 3.715 0 1 1 3.178 6.717 3.715 3.715 0 0 1-3.178-6.717zm-405 46a3.716 3.716 0 1 1 3.178 6.717 3.716 3.716 0 0 1-3.178-6.717z" fill="#2BCBBA"/><ellipse cx="290.43" cy="328.5" rx="63" ry="7.5" fill="#262A33"/><path fill-rule="evenodd" clip-rule="evenodd" d="M413.821 263.733L188.073 294.2a7.136 7.136 0 0 1-8.024-6.116l-19.33-143.239a7.134 7.134 0 0 1 6.115-8.024l225.748-30.466a7.133 7.133 0 0 1 8.023 6.116l19.332 143.238a7.135 7.135 0 0 1-6.116 8.024z" fill="#A2B1EE"/><path fill-rule="evenodd" clip-rule="evenodd" d="M275.641 19.612c-6.032-4.305-14.369-3.18-19.043 2.57L162.73 137.63a10.004 10.004 0 0 0-2.151 7.647l1.091 8.078 121.399 64.962c6.03 4.305 14.368 3.178 19.043-2.57l99.836-94.82-1.092-8.079a9.998 9.998 0 0 0-4.1-6.801L275.641 19.612z" fill="url(#paint0_radial)"/><path fill-rule="evenodd" clip-rule="evenodd" d="M419.62 258.579L299.195 194.14c-6.03-4.305-14.368-3.179-19.042 2.57l-99.036 94.059a7.461 7.461 0 0 0 7.288 3.385l225.085-30.376a7.465 7.465 0 0 0 6.13-5.199z" fill="#94A4E7"/><path fill-rule="evenodd" clip-rule="evenodd" d="M344.426 99.499c-6.89-.129-14.808 10.223-32.607 21.78 1.687 1.501 3.63 2.748 5.161 4.453 5.606 6.249-19.362 46.878-32.877 74.663-8.124 16.7-.735 19.773 22.166 9.219 15.166-12.4 36.986-32.275 67.544-61.966l5.171-4.912c-6.008-1.799-7.324-6.512-11.845-10.052l-22.713-33.185zm4.845 3.077z" fill="#A2B1EE"/><path fill-rule="evenodd" clip-rule="evenodd" d="M349.27 102.575a454.165 454.165 0 0 0-4.843-3.076c-.426.335.157 6.717 3.729 10.625 3.444 3.77 5.023 5.36 4.339 6.429-.358.558-1.032.826-1.692.767-2.039-.185-5.336-.973-5.4 1.645-.212 8.592 23.114 22.562 33.582 23.771l13.652-12.968c-11.606-6.383-26.714-16.38-38.624-24.124-1.649-1.072-3.237-2.1-4.743-3.069z" fill="#fff"/><path fill-rule="evenodd" clip-rule="evenodd" d="M265.037 76.026l.006.004c-.002 0-.003-.002-.006-.004z" fill="#8298E9"/><path fill-rule="evenodd" clip-rule="evenodd" d="M272.95 115.029l2.293-.265c3.387-.392 4.678-4.637 2.085-6.854-2.46-2.101-5.391-13.36-4.85-13.99 1.035-1.207-.088-2.735-1.09-3.786-3.523-3.691-6.854-13.68-6.285-14.058-23.78 14.31-42.67 40.023-103.99 71.441l.627 5.887 21.455 11.48c9.294.323 29.957 1.132 31.728 1.181 23.512.654 43.328 4.217 61.116 8.976 10.395-.823 20.71-2.405 31.366-4.008.23-.066.45-.135.692-.199 7.091-1.045 14.281-2.167 21.663-3.195-1.3.318-2.704.593-4.161.843 9.087-1.121 18.561-1.97 28.654-2.141l13.464-12.787c-19.795-2.651-42.272-6.35-60.042-10.905-12.337-3.162-24.134-6.434-33.872-16.527-5.99-6.208-4.063-10.722-.853-11.093z" fill="#3C4B88"/><path fill-rule="evenodd" clip-rule="evenodd" d="M311.823 121.279c-16.464-14.645-29.632-30.88-46.776-45.248a.043.043 0 0 0-.007-.007l-.002-.002c-.002 0-.001.004-.002.005-.569.379 2.761 10.368 6.284 14.058 1.002 1.051 2.125 2.58 1.09 3.787-.54.63-1.424.846-2.232.657-2.496-.582-5.18-1.532-5.512 1.154-.404 3.262 2.59 5.741 4.565 6.765a42.429 42.429 0 0 1 8.029 5.414c2.593 2.216 1.303 6.46-2.085 6.853l-2.293.265c-3.211.371-6.058 5.893-.069 12.102 9.738 10.092 23.358 16.942 90.981 30.084l4.683-4.447c-18.957-2.589-36.889-14.876-51.493-26.987a197.782 197.782 0 0 1-5.161-4.453z" fill="#fff"/><path fill-rule="evenodd" clip-rule="evenodd" d="M300.334 182.47l.196.07c-1.821-2.56-4.412-8.292 6.805-11.554-10.657 1.602-20.972 3.185-31.366 4.007 8.526 2.281 16.589 4.835 24.363 7.479l.002-.002z" fill="#F4DFA4"/><path fill-rule="evenodd" clip-rule="evenodd" d="M300.529 182.54l.035.012c1.876.639 3.739 1.283 5.585 1.929.742.257 1.532.533 2.45.861l.002.001c2.874 1.017 5.717 2.035 8.54 3.047-5.665-3.216-12.682-8.597-13.278-11.213-1.441-6.336 11.434-6.973 21.664-8.742a62.055 62.055 0 0 0 4.162-.843c-7.383 1.028-14.573 2.15-21.663 3.194-.243.065-.463.134-.692.2-11.216 3.261-8.625 8.994-6.805 11.554z" fill="#fff"/><path fill-rule="evenodd" clip-rule="evenodd" d="M300.564 182.551c2.24.795 3.764 1.3 5.585 1.929a682.027 682.027 0 0 0-5.585-1.929z" fill="#5064B6"/><path fill-rule="evenodd" clip-rule="evenodd" d="M303.865 177.176c.596 2.616 7.614 7.998 13.277 11.214 3.365 1.205 6.699 2.4 10.019 3.569l27.022-25.666c-10.092.172-19.567 1.02-28.654 2.143-10.231 1.767-23.105 2.404-21.664 8.74z" fill="#F4DFA4"/><path fill-rule="evenodd" clip-rule="evenodd" d="M266.804 201.577c14.58-3.879 30.315-12.092 33.53-19.104-7.775-2.645-15.838-5.199-24.364-7.48-17.789-4.759-37.605-8.321-61.118-8.976-1.77-.049-22.432-.857-31.727-1.18l72.456 38.772c4.797-.703 9.57-1.592 11.223-2.032zm50.339-13.188a1907.13 1907.13 0 0 0-8.541-3.046c1.304.471 1.171 5.958-3.047 18.237-.897 2.613-1.534 6.902-2.227 11.016l23.833-22.638c-3.319-1.167-6.654-2.363-10.018-3.569z" fill="#FED42F"/><path fill-rule="evenodd" clip-rule="evenodd" d="M305.552 203.579c4.218-12.279 4.351-17.765 3.048-18.237l-.002-.001c-.918-.328-1.708-.604-2.45-.861-1.822-.629-3.344-1.135-5.585-1.929a1.302 1.302 0 0 0-.034-.012l-.196-.069-.001.001c-3.216 7.013-18.951 15.227-33.531 19.105-1.652.44-6.426 1.329-11.223 2.031l27.489 14.71c6.031 4.304 14.369 3.179 19.042-2.57l1.215-1.153c.694-4.112 1.33-8.402 2.228-11.015z" fill="#FFEDC0"/><defs><radialGradient id="paint0_radial" cx="0" cy="0" r="1" gradientUnits="userSpaceOnUse" gradientTransform="matrix(18.19692 120.97406 -162.2784 24.40992 175.782 124.142)"><stop stop-color="#B2BFF4"/><stop offset="1" stop-color="#E1EAFF"/></radialGradient></defs></svg>