<svg width="580" height="320" fill="none" xmlns="http://www.w3.org/2000/svg"><path d="M575.162 152.22c0 91.485-104.424 96.78-306.172 96.78C173.344 249 5 248.272 5 152.22 5 83 93.933 116.757 281.182 66.379 468.43 16 575.162 22 575.162 152.22z" fill="#EFF2FC"/><path fill-rule="evenodd" clip-rule="evenodd" d="M55.884 31.768a3.716 3.716 0 1 1 4.524 5.897 3.716 3.716 0 0 1-4.524-5.897z" fill="#2BCBBA"/><path fill-rule="evenodd" clip-rule="evenodd" d="M99.43 60.966L104.884 57l3.979 5.493-5.454 3.965-3.98-5.492zm380.57-41L485.455 16l3.978 5.493-5.453 3.965-3.98-5.492zm-36.57 132l5.454-3.966 3.979 5.493-5.454 3.965-3.979-5.492zm-308.43 61l5.455-3.966 3.978 5.493-5.453 3.965-3.98-5.492z" fill="#BABDC6"/><path fill-rule="evenodd" clip-rule="evenodd" d="M473.558 199.358a3.715 3.715 0 1 1 3.178 6.717 3.715 3.715 0 0 1-3.178-6.717zm10-108a3.716 3.716 0 1 1 3.178 6.718 3.716 3.716 0 0 1-3.178-6.718zm-405 46a3.716 3.716 0 1 1 3.178 6.717 3.716 3.716 0 0 1-3.178-6.717z" fill="#2BCBBA"/><ellipse cx="290.43" cy="309.5" rx="63" ry="7.5" fill="#EEEFF3"/><path fill-rule="evenodd" clip-rule="evenodd" d="M293.5 206c-48.572.182-113.762-18.515-119.374-53.5a132.373 132.373 0 0 1-1.694-20.991V28.029l37.378-11.711a269.35 269.35 0 0 1 161.046 0l37.378 11.711v103.48c0 6.76-.535 13.433-1.538 19.991-5.409 35.382-70.943 54.342-113.196 54.5z" fill="url(#paint0_radial)"/><path fill-rule="evenodd" clip-rule="evenodd" d="M254.24 177.218l50.306 73.454c-4.227 10.455-1.218 22.551 5.499 31.786 12.643-6.642 30.328-18.57 49.995-39.657 20.68-22.174 38.613-51.472 45.338-83.995-16.108-9.87-32.282-20.133-48.192-29.312-14.186.233-46.175 24.262-102.946 47.724z" fill="#A0AFEC"/><path fill-rule="evenodd" clip-rule="evenodd" d="M264.5 214.5s118.198-4.212 127-28c-1.446-.362-58.053-2.322-92.5-31.5-21.655-18.343-20.934-22.542-60-59-38.434 29.458-65.836 51.089-64.657 58 2.77 16.232 8.382 31.723 15.812 46 8.335 16.015 74.345 14.5 74.345 14.5z" fill="#3C4B88"/><path fill-rule="evenodd" clip-rule="evenodd" d="M357.188 129.494c-.576.489 5.027 10.854 9.619 14.233 1.304.96 2.833 2.421 1.929 3.948-.471.796-1.401 1.204-2.323 1.153-2.855-.157-7.496-1.096-7.458 2.562.128 12.003 17.536 20.896 25.315 26.558 3.855 2.805 8.361 5.094 13.159 6.96 4.333-10.752 7.561-22.039 9.306-33.694-17.363-6.914-35.443-13.583-49.547-21.72z" fill="#C7D1F2"/><path fill-rule="evenodd" clip-rule="evenodd" d="M394.637 179.909c-26.793-2.624-52.782-12.981-74.035-29.505-27.197-21.147-54.628-33.61-81.718-54.895-.802.503 4.299 14.349 9.389 19.356 1.445 1.422 3.081 3.507 1.687 5.239-.725.902-1.95 1.242-3.086 1.015-3.51-.703-8.536-2.237-8.873 2.332-.339 4.578 5.097 7.423 7.9 8.765a59.24 59.24 0 0 1 11.446 7.205c3.718 2.98 2.103 8.962-2.611 9.658l-3.187.471c-4.466.66-8.635 6.045 0 14.45 14.039 13.661 26.966 14.066 45.951 16.5 39 5 68.537 4.916 98.55 7.72a163.493 163.493 0 0 0 3.038-7.614c-2.388-.4-3.992-.652-4.451-.697z" fill="#fff"/><path fill-rule="evenodd" clip-rule="evenodd" d="M360.041 242.802c14.371-15.409 27.408-34.262 36.289-55.243-72.81-1.866-120.052 25.14-182.394 14.349 0 0 57.166 54.905 94.021 81.625 12.744-6.398 31.31-18.457 52.084-40.731z" fill="#F4DFA4"/><path fill-rule="evenodd" clip-rule="evenodd" d="M290.311 290.361s31.053-6.091 69.729-47.559a203.085 203.085 0 0 0 5.869-6.588c-49.408-12.939-95.744-36.547-170.537-36.271-1.808.006-3.541.029-5.216.066 8.337 16.011 18.96 30.497 30.426 42.793 38.676 41.468 69.729 47.559 69.729 47.559z" fill="#FED42F"/><path fill-rule="evenodd" clip-rule="evenodd" d="M301.76 239.478c-16.187 11.536-37.378 19.381-55.928 26.71 26.091 20.548 44.481 24.173 44.481 24.173s10.658-2.102 27.25-12.16c2.006-8.443 6.926-20.163 10.217-30.826 4.596-14.891 4.4-21.279 2.818-21.79-3.942-1.273-7.914-2.561-11.928-3.847-1.195 3.669-5.264 9.44-16.91 17.74z" fill="#FFEDC0"/><path fill-rule="evenodd" clip-rule="evenodd" d="M295.675 205.52c-1.33-5.101 7.055-7.619 15.67-9.261l-10.816 1.942c-17.496 5.282-8.456 14.574-7.359 15.769 8.458 2.392 16.62 4.928 24.603 7.482-6.479-2-21.034-11.854-22.098-15.932z" fill="#fff"/><path d="M210.404 33.288s-12.704 1.326-13.382 15.714l1.315 9.555s.249 1.008 3.411 2.689 11.413 6.505 13.362 6.236c1.949-.268 8.591-7.14 11.181-9.614 2.59-2.473 2.557-3.51 2.557-3.51l-1.315-9.555c-4.539-13.668-17.129-11.514-17.129-11.514zm11.251 17.631l-17.321 2.384-.717-5.209c.799-7.209 7.689-8.254 7.689-8.254s6.916-.854 9.632 5.87l.717 5.21z" fill="#fff"/><path d="M215.406 69.636s-1.986.078-3.667-.775c-1.68-.854-12.912-6.755-12.912-6.755l1.991 14.466s.318 1.67 2.171 1.416l26.63-3.665c1.853-.255 1.709-1.95 1.709-1.95l-1.992-14.468s-9.22 8.715-10.607 9.991c-1.388 1.277-3.323 1.74-3.323 1.74zm78.412-46.72h-26.313a3.583 3.583 0 0 0-3.63 3.538v31.17a3.586 3.586 0 0 0 3.538 3.63h26.406a3.583 3.583 0 0 0 3.63-3.538v-31.17a3.735 3.735 0 0 0-3.631-3.63zm-9.539 11.343h.017a2.856 2.856 0 0 1 2.699 1.677c.155.342.242.712.254 1.087v.185a3.209 3.209 0 0 1-2.949 3.175 3.242 3.242 0 0 1-3.179-3.175 3.052 3.052 0 0 1 3.157-2.95h.001zm-13.14 24.725h-3.629a1.435 1.435 0 0 1-1.138-1.36h.006V26.546a1.07 1.07 0 0 1 1.14-1.137h3.624l-.003 33.574zm19.735-9.748a.722.722 0 0 1-.681.682h-12.022a.724.724 0 0 1-.681-.682V48.1a5.671 5.671 0 0 1 5.444-5.443h2.496a5.517 5.517 0 0 1 5.444 5.443v1.137zm43.396 33.621l-2.448-.463.163-.864a2.327 2.327 0 0 0-.366-1.756 2.332 2.332 0 0 0-1.501-.983 2.346 2.346 0 0 0-2.739 1.868l-.164.864-11.372-2.15.163-.864a2.308 2.308 0 0 0-.972-2.378 2.304 2.304 0 0 0-.831-.35l-.064-.012a2.156 2.156 0 0 0-2.739 1.869l-.164.864-2.303-.436a4.596 4.596 0 0 0-5.327 3.727l-.007.035-4.874 25.772a4.722 4.722 0 0 0 3.736 5.478l25.193 4.764a4.721 4.721 0 0 0 5.478-3.736l4.9-25.915a5.139 5.139 0 0 0-3.762-5.334zm-4.42 30.477a1.32 1.32 0 0 1-.542.842 1.315 1.315 0 0 1-.979.212l-25.357-4.795a1.294 1.294 0 0 1-.843-.542 1.315 1.315 0 0 1-.212-.979l4.141-21.902 27.922 5.28-4.13 21.884z" fill="#fff"/><path d="M310.308 103.725a4.028 4.028 0 0 1-2.671-2.032l-2.143 1.461a6.028 6.028 0 0 0 4.677 3.092c3.604.681 5.942-.912 6.407-3.371.009-.05.024-.097.035-.146a3.43 3.43 0 0 0-2.631-4.079 3.41 3.41 0 0 0 3.437-2.914c.372-1.965-1.09-4.11-4.072-4.504a6.787 6.787 0 0 0-5.288 1.035l1.298 2.112a3.811 3.811 0 0 1 3.033-.784c1.148.217 1.841 1.027 1.655 2.01-.248 1.311-1.19 1.81-2.501 1.563l-.82-.155-.761 2.232 1.147.217c1.474.279 2.17 1.089 1.891 2.564a2.148 2.148 0 0 1-2.693 1.699zm12.284 5.039c3.606.682 6.099-1.732 7.028-6.648.93-4.916-.539-7.909-4.146-8.59-3.606-.683-6.067 1.568-6.996 6.483-.93 4.916.51 8.074 4.114 8.755zm2.582-12.75c1.311.248 1.748 1.52 1.004 5.451-.743 3.933-1.452 4.987-2.926 4.708-1.311-.247-1.748-1.518-1.004-5.451s1.451-4.987 2.926-4.708zm61.259-50.43a4.743 4.743 0 0 0-2.926-4.378 4.74 4.74 0 0 0-6.553 4.379v.15l-20.614 6.58a4.758 4.758 0 0 0-6.579-1.234 4.664 4.664 0 0 0-1.981 2.968 4.659 4.659 0 0 0 .699 3.499l.033.05a4.738 4.738 0 0 0 4.014 2.041c.49-.002.977-.086 1.439-.249l13.548 16.94a4.672 4.672 0 0 0 2.458 6.132l.041.017a4.746 4.746 0 0 0 6.203-2.467 4.658 4.658 0 0 0-1.283-5.393l7.197-24.372a4.678 4.678 0 0 0 4.277-4.666l.027.004zM371.791 73.39c-.73.01-1.448.187-2.098.518L356.462 57.32a4.64 4.64 0 0 0 .668-1.95l21.063-6.658c.225.24.468.46.727.662l-7.111 24.005h-.023l.005.01z" fill="#fff"/><defs><radialGradient id="paint0_radial" cx="0" cy="0" r="1" gradientUnits="userSpaceOnUse" gradientTransform="rotate(97.96 57.282 168.409) scale(191.018 179.986)"><stop stop-color="#E1EAFF"/><stop offset="1" stop-color="#B2BFF4"/></radialGradient></defs></svg>