<svg width="384" height="216" viewBox="0 0 384 216" fill="none" xmlns="http://www.w3.org/2000/svg">
<path d="M288.17 188H95.8545C94.1431 188 92.8037 186.661 92.8037 184.949V183.238C92.8037 181.526 94.1431 180.187 95.8545 180.187H288.17C289.881 180.187 291.22 181.526 291.22 183.238V184.949C291.22 186.661 289.807 188 288.17 188Z" fill="#B0D4E5"/>
<path d="M200.829 184.503H182.375C179.994 184.503 178.134 182.568 178.134 180.261H205.07C205.07 182.568 203.21 184.503 200.829 184.503Z" fill="#DAF3FF"/>
<path d="M273.033 180.187H109.5V86.9292C109.5 82.0182 113.518 78 118.429 78H264.103C269.015 78 273.033 82.0182 273.033 86.9292V180.187Z" fill="#38385F"/>
<path d="M266.114 180.186H117.166V88.3426C117.166 87.152 118.133 86.1847 119.324 86.1847H263.882C265.073 86.1847 266.04 87.152 266.04 88.3426V180.186H266.114Z" fill="url(#paint0_linear)"/>
<path d="M257.804 172.286H127.179V95.5179C127.179 94.5228 128.027 93.7142 129.071 93.7142H255.846C256.89 93.7142 257.738 94.5228 257.738 95.5179V172.286H257.804Z" fill="white"/>
<path d="M135.155 103.774C136.305 103.774 137.238 102.841 137.238 101.691C137.238 100.54 136.305 99.6072 135.155 99.6072C134.004 99.6072 133.071 100.54 133.071 101.691C133.071 102.841 134.004 103.774 135.155 103.774Z" fill="#B0D4E5"/>
<path d="M141.629 103.774C142.78 103.774 143.713 102.841 143.713 101.691C143.713 100.54 142.78 99.6072 141.629 99.6072C140.479 99.6072 139.546 100.54 139.546 101.691C139.546 102.841 140.479 103.774 141.629 103.774Z" fill="#B0D4E5"/>
<path d="M148.103 103.774C149.254 103.774 150.187 102.841 150.187 101.691C150.187 100.54 149.254 99.6072 148.103 99.6072C146.952 99.6072 146.02 100.54 146.02 101.691C146.02 102.841 146.952 103.774 148.103 103.774Z" fill="#B0D4E5"/>
<path d="M216.969 139.34H166.513C164.317 139.34 162.536 137.559 162.536 135.363C162.536 133.167 164.317 131.386 166.513 131.386H216.969C219.166 131.386 220.946 133.167 220.946 135.363C220.946 137.619 219.166 139.34 216.969 139.34Z" fill="#4D3B82"/>
<path d="M202.959 107.464H201.356C199.576 107.464 197.854 108.177 196.489 109.364C195.183 110.432 193.58 111.085 191.799 111.085C190.019 111.085 188.357 110.432 187.11 109.364C185.745 108.236 184.023 107.464 182.242 107.464H180.64C176.959 107.464 173.873 110.195 173.398 113.816L171.023 131.446H212.694L210.32 113.816C209.726 110.195 206.639 107.464 202.959 107.464Z" fill="url(#paint1_linear)"/>
<path d="M170.707 131.446H213.037L212.205 125.154L171.597 125.154L170.707 131.446Z" fill="white"/>
<path d="M203.317 141.774C199.102 141.774 195.541 144.683 194.532 148.66C193.76 148.007 192.81 147.651 191.742 147.651C190.673 147.651 189.723 148.007 189.011 148.66C188.061 144.742 184.5 141.774 180.226 141.774C175.24 141.774 171.203 145.811 171.203 150.797C171.203 155.783 175.24 159.82 180.226 159.82C185.093 159.82 189.011 156.02 189.249 151.212C189.545 150.084 190.555 149.253 191.742 149.253C192.988 149.253 193.997 150.084 194.235 151.272C194.472 156.02 198.39 159.82 203.258 159.82C208.244 159.82 212.28 155.783 212.28 150.797C212.34 145.811 208.303 141.774 203.317 141.774ZM180.226 158.098C176.249 158.098 172.984 154.833 172.984 150.856C172.984 146.879 176.249 143.614 180.226 143.614C184.203 143.614 187.468 146.879 187.468 150.856C187.468 154.833 184.203 158.098 180.226 158.098ZM203.317 158.098C199.34 158.098 196.075 154.833 196.075 150.856C196.075 146.879 199.34 143.614 203.317 143.614C207.294 143.614 210.559 146.879 210.559 150.856C210.559 154.833 207.294 158.098 203.317 158.098Z" fill="#4D3B82"/>
<mask id="mask0" mask-type="alpha" maskUnits="userSpaceOnUse" x="188" y="78" width="86" height="79">
<rect x="188.071" y="78" width="85.4464" height="78.5714" fill="#C4C4C4"/>
</mask>
<g mask="url(#mask0)">
<g opacity="0.3" filter="url(#filter0_f)">
<path d="M240.125 54.9197L273.518 78V132.509L269.736 130.34C251.421 119.836 240.125 100.335 240.125 79.2219V54.9197Z" fill="#221548"/>
</g>
</g>
<path d="M329.821 45.9164L294.596 34.7052C291.63 33.7649 288.448 33.7649 285.482 34.7052L250.258 45.9164C248.449 46.495 247.147 48.1586 247.075 50.1115C246.569 63.6372 247.437 116.076 289.316 129.892C289.822 130.036 290.328 130.036 290.762 129.892C332.641 116.076 333.509 63.6372 333.003 50.1115C332.931 48.1586 331.629 46.495 329.821 45.9164Z" fill="url(#paint2_linear)"/>
<path d="M290.039 99.2958C301.224 99.2958 310.291 90.2285 310.291 79.0434C310.291 67.8583 301.224 58.791 290.039 58.791C278.853 58.791 269.786 67.8583 269.786 79.0434C269.786 90.2285 278.853 99.2958 290.039 99.2958Z" fill="white"/>
<path d="M282.5 80.1133L288.085 85.6984L299 74.7836" stroke="#0D0A44" stroke-width="2.6" stroke-miterlimit="10" stroke-linecap="round" stroke-linejoin="round"/>
<path d="M32 106C32 90.536 44.536 78 60 78C75.464 78 88 90.536 88 106V134H60C44.536 134 32 121.464 32 106Z" fill="url(#paint3_linear)"/>
<path fill-rule="evenodd" clip-rule="evenodd" d="M66.821 97.6509V100.517H69.614C70.5694 100.517 71.3778 101.289 71.3778 102.281V117.236C71.3778 118.192 70.6062 119 69.614 119H50.7638C49.8084 119 49 118.228 49 117.236V102.281C49 101.326 49.7716 100.517 50.7638 100.517H53.5193V97.6509C53.5193 93.9764 56.4956 91 60.1701 91C63.8446 91 66.821 93.9764 66.821 97.6509ZM64.0205 97.6509V100.517H56.3933V97.6509C56.3933 95.0052 58.4137 93.8373 60.2069 93.8373C62 93.8373 64.0205 95.0052 64.0205 97.6509ZM60.5482 105.515C61.8343 105.515 62.8631 106.543 62.8631 107.829C62.8631 108.711 62.3854 109.483 61.6505 109.85L62.6059 113.966H58.4904L59.4458 109.85C58.7109 109.446 58.2332 108.711 58.2332 107.829C58.2332 106.543 59.2621 105.515 60.5482 105.515Z" fill="white"/>
<defs>
<filter id="filter0_f" x="223.429" y="38.2232" width="66.7857" height="110.982" filterUnits="userSpaceOnUse" color-interpolation-filters="sRGB">
<feFlood flood-opacity="0" result="BackgroundImageFix"/>
<feBlend mode="normal" in="SourceGraphic" in2="BackgroundImageFix" result="shape"/>
<feGaussianBlur stdDeviation="8.34821" result="effect1_foregroundBlur"/>
</filter>
<linearGradient id="paint0_linear" x1="114.411" y1="186.527" x2="273.518" y2="88.8036" gradientUnits="userSpaceOnUse">
<stop stop-color="#35168C"/>
<stop offset="0.317708" stop-color="#FF5454"/>
<stop offset="0.46875" stop-color="#FFDD64"/>
<stop offset="0.677083" stop-color="#BCE6FF"/>
<stop offset="0.942708" stop-color="#2395FF"/>
</linearGradient>
<linearGradient id="paint1_linear" x1="191.859" y1="107.464" x2="191.859" y2="131.446" gradientUnits="userSpaceOnUse">
<stop stop-color="#221548"/>
<stop offset="1" stop-color="#644FA0"/>
</linearGradient>
<linearGradient id="paint2_linear" x1="290.039" y1="34" x2="290.039" y2="130" gradientUnits="userSpaceOnUse">
<stop stop-color="#5BCB6A"/>
<stop offset="1" stop-color="#1CB78F"/>
</linearGradient>
<linearGradient id="paint3_linear" x1="60" y1="84.5" x2="60" y2="140" gradientUnits="userSpaceOnUse">
<stop stop-color="#FFD66C"/>
<stop offset="1" stop-color="#FF658A"/>
</linearGradient>
</defs>
</svg>
