<svg xmlns="http://www.w3.org/2000/svg" width="491" height="280" fill="none">
  <defs/>
  <path fill="#EEEFF3" fill-rule="evenodd" d="M259.225 263.58c20.707-.049 41.586.79 54.118 2.61 12.233 1.776 10.544 4.108 7.31 6.31-3.63 2.473-6.273 5.327-26.167 6.533-20.61 1.25-44.707 1.055-67.486 0-23.86-1.104-58 0-58-5.808 0-5.769 20.167-6.187 38.5-8.147 14.469-1.547 31.586-1.45 51.725-1.498z" clip-rule="evenodd"/>
  <path fill="#DAE0FF" d="M474 134.206c0 37.215-94 79.294-194 79.294s-130 13.789-178.5 0c-32.533-9.249-60.4078-44.419-59.4804-79.294C45.9646-14.1629 170.584 59.0755 292.486 59.0755 414.387 59.0755 474 42.7376 474 134.206z"/>
  <path fill="#93A5EC" d="M320.699 16.2932l34.238 10.7632.063 80.6066c.033 39.836-19.965 76.457-44.032 102.463C275.58 248.365 247.149 254 247.149 254s-28.442-5.59-63.889-43.773c-24.109-25.969-44.164-62.557-44.195-102.393L139 27.226l34.221-10.817c47.996-15.1725 99.456-15.2127 147.478-.1158z"/>
  <path fill="#93A5EC" d="M269 58h47v47h-47z"/>
  <path fill="#fff" d="M304.818 61.917h-26.313a3.583 3.583 0 00-2.547 1.0172 3.5866 3.5866 0 00-1.083 2.5205v31.1691a3.5866 3.5866 0 001.017 2.5475 3.5889 3.5889 0 002.521 1.0827h26.406c.95.012 1.867-.3541 2.547-1.0175a3.5867 3.5867 0 001.083-2.5205V65.5469a3.7352 3.7352 0 00-1.092-2.5386 3.7302 3.7302 0 00-2.539-1.0913zm-9.539 11.342h.017c.376-.0124.75.0492 1.101.1814.352.1323.674.3324.948.5892.274.2567.495.5649.65.907.155.3421.242.7114.254 1.0868v.1844a3.2102 3.2102 0 01-2.949 3.175 3.2423 3.2423 0 01-2.228-.9478 3.2396 3.2396 0 01-.951-2.2272 3.0524 3.0524 0 01.968-2.1281 3.0542 3.0542 0 012.189-.8207h.001zm-13.14 24.7255h-3.629a1.4356 1.4356 0 01-.804-.484 1.4383 1.4383 0 01-.334-.8767h.006V65.5469a1.0707 1.0707 0 01.996-1.1371 1.116 1.116 0 01.144 0h3.624l-.003 33.5747zm19.735-9.7481a.7214.7214 0 01-.211.4704.7256.7256 0 01-.47.2112h-12.022a.7234.7234 0 01-.47-.2112.7214.7214 0 01-.211-.4704v-1.1371a5.6713 5.6713 0 015.444-5.4435h2.496a5.5209 5.5209 0 015.444 5.4435v1.1371z"/>
  <g fill="#fff">
    <path d="M213.399 45.0013S200.633 44.582 198 58.7432v9.6452s.109 1.0323 3.012 3.129c2.903 2.0968 10.42 8 12.387 8 1.968 0 9.484-5.9032 12.387-8 2.904-2.0967 3.013-3.129 3.013-3.129v-9.6452c-2.634-14.1587-15.4-13.7419-15.4-13.7419zm8.742 19h-17.484v-5.2581c1.775-7.0322 8.742-7.129 8.742-7.129s6.968.0968 8.742 7.129v5.2581z"/>
    <path d="M213.399 81.6916s-1.978-.1935-3.527-1.2683c-1.548-1.0749-11.871-8.4516-11.871-8.4516v14.6019s.087 1.6987 1.958 1.6987h26.881c1.871 0 1.959-1.6987 1.959-1.6987V71.9691s-10.323 7.3761-11.871 8.4516c-1.549 1.0755-3.529 1.2709-3.529 1.2709z"/>
  </g>
  <g fill="#fff">
    <path d="M211.328 121.233h-2.491v-.879c0-.308-.06-.613-.178-.898a2.3634 2.3634 0 00-.508-.76 2.3252 2.3252 0 00-.761-.508 2.3386 2.3386 0 00-.897-.179 2.3441 2.3441 0 00-2.344 2.345v.879h-11.574v-.879a2.309 2.309 0 00-.164-.888 2.3053 2.3053 0 00-.49-.757 2.3242 2.3242 0 00-.743-.512c-.279-.12-.579-.184-.882-.188h-.065c-.282-.026-.566.004-.837.088-.27.084-.522.221-.739.402-.218.181-.398.404-.53.655-.131.25-.212.525-.238.807-.012.13-.012.262 0 .393v.879h-2.344c-.604.007-1.2.133-1.755.371-.555.237-1.058.582-1.48 1.014-.422.432-.754.943-.979 1.503a4.612 4.612 0 00-.329 1.764V152.149a4.7203 4.7203 0 004.689 4.688h25.639a4.7193 4.7193 0 003.306-1.382 4.7193 4.7193 0 001.382-3.306v-26.375a5.1386 5.1386 0 00-1.53-3.111 5.1347 5.1347 0 00-3.158-1.43zm1.32 30.767c.001.172-.031.342-.096.502-.064.159-.159.304-.28.426-.12.123-.264.22-.422.287a1.32 1.32 0 01-.5.104h-25.806a1.307 1.307 0 01-.502-.096c-.16-.064-.305-.159-.428-.28-.122-.121-.22-.264-.287-.423a1.3002 1.3002 0 01-.103-.5v-22.29h28.416l.008 22.27z"/>
    <path d="M191.661 146.19a4.031 4.031 0 01-1.664-.424 4.0191 4.0191 0 01-1.338-1.077l-1.834 1.835a6.0285 6.0285 0 002.317 1.721c.901.378 1.88.531 2.853.447 3.668 0 5.669-2 5.669-4.503 0-.05.006-.1.007-.149.024-.91-.315-1.792-.942-2.452a3.4348 3.4348 0 00-2.4-1.068 3.4103 3.4103 0 002.835-3.502c0-2-1.835-3.835-4.839-3.669a6.7813 6.7813 0 00-2.708.483c-.861.344-1.641.86-2.295 1.517l1.668 1.835c.351-.411.786-.742 1.274-.972.489-.23 1.021-.353 1.561-.363 1.168 0 2 .667 2 1.668 0 1.334-.834 2-2.168 2h-.834l-.334 2.335h1.168c1.501 0 2.334.667 2.334 2.168.002.072-.001.143-.007.215-.05.567-.322 1.092-.757 1.458-.436.367-.999.545-1.566.497zM204.668 148.859c3.669 0 5.67-2.835 5.67-7.838 0-5.004-2-7.671-5.67-7.671s-5.67 2.668-5.67 7.671c0 5.002 2.002 7.838 5.67 7.838zm.167-13.008c1.334 0 2 1.168 2 5.17 0 4.001-.501 5.169-2 5.169-1.334 0-2-1.167-2-5.169 0-4.003.5-5.17 2-5.17z"/>
  </g>
  <path fill="#fff" d="M289.433 146.585c0-.623-.123-1.239-.361-1.814a4.7514 4.7514 0 00-1.028-1.538 4.7337 4.7337 0 00-3.351-1.387c-1.257 0-2.463.499-3.351 1.388a4.7364 4.7364 0 00-1.388 3.351v.15l-20.614 6.58a4.7573 4.7573 0 00-3.036-1.97 4.759 4.759 0 00-3.543.736 4.675 4.675 0 00-1.286 1.287 4.67 4.67 0 00-.695 1.681c-.119.6-.118 1.218.002 1.819.119.6.356 1.171.697 1.68.01.016.022.033.033.049a4.7462 4.7462 0 001.748 1.53c.701.356 1.48.532 2.266.512.49-.002.977-.086 1.439-.249l13.548 16.939a4.6712 4.6712 0 002.458 6.132l.041.018c1.15.488 2.447.502 3.608.041a4.7523 4.7523 0 002.595-2.508c.392-.918.478-1.938.247-2.908a4.6592 4.6592 0 00-1.53-2.485l7.197-24.372a4.6841 4.6841 0 003.048-1.5 4.6789 4.6789 0 001.229-3.166l.027.004zm-14.642 27.804c-.73.01-1.448.187-2.098.518l-13.231-16.587c.366-.592.594-1.258.668-1.95l21.063-6.658c.225.239.468.461.727.662l-7.111 24.004h-.023l.005.011z"/>
  <path fill="#2BCBBA" fill-rule="evenodd" d="M102.454 84.768c1.628-1.2493 3.961-.942 5.21.6862 1.25 1.6283.942 3.961-.686 5.2103-1.628 1.2493-3.961.942-5.21-.6854-1.25-1.6291-.942-3.961.686-5.2111zM58.4541 33.768c1.6283-1.2493 3.9609-.942 5.2103.6862 1.2493 1.6283.9419 3.961-.6863 5.2103-1.6283 1.2493-3.961.942-5.21-.6854-1.2496-1.6291-.942-3.961.686-5.2111z" clip-rule="evenodd"/>
  <path fill="#BABDC6" fill-rule="evenodd" d="M118 125.966l5.455-3.966 3.978 5.493-5.453 3.965-3.98-5.492zM3 94.9658L8.4545 91l3.9788 5.4929-5.4536 3.9651L3 94.9658zM421 34.9658L426.455 31l3.978 5.4929-5.453 3.9655-3.98-5.4926zM433 146.966l5.455-3.966 3.978 5.493-5.453 3.965-3.98-5.492z" clip-rule="evenodd"/>
  <path fill="#2BCBBA" fill-rule="evenodd" d="M384.128 206.358c1.856-.878 4.071-.085 4.948 1.77.878 1.856.084 4.071-1.77 4.948-1.856.878-4.071.085-4.949-1.77-.877-1.856-.084-4.071 1.771-4.948zM396.128 107.358c1.856-.878 4.071-.085 4.948 1.77.878 1.856.084 4.071-1.77 4.948-1.856.878-4.071.085-4.949-1.77-.877-1.856-.084-4.071 1.771-4.948zM485.128 84.3576c1.856-.8773 4.071-.085 4.948 1.7705.878 1.8556.084 4.0712-1.77 4.9482-1.856.8774-4.071.0851-4.949-1.7705-.877-1.8555-.084-4.0711 1.771-4.9482zM92.128 152.358c1.8556-.878 4.0709-.085 4.9482 1.77.8774 1.856.0842 4.071-1.7705 4.948-1.8555.878-4.0709.085-4.9482-1.77-.8774-1.856-.0842-4.071 1.7705-4.948z" clip-rule="evenodd"/>
</svg>
