<svg xmlns="http://www.w3.org/2000/svg" width="384" height="216" fill="none" viewBox="0 0 384 216">
    <path
        fill="#1B1340"
        d="M212.339 89.05h-5.203v-7.211a1.65 1.65 0 00-1.636-1.635h-33.376a1.65 1.65 0 00-1.635 1.635v6.727h-5.204V81.84c0-3.791 3.085-6.839 6.839-6.839h33.339c3.791 0 6.839 3.085 6.839 6.839v7.21h.037z"
    />
    <path
        fill="#8B1C1C"
        d="M253.41 191H153.392a10.882 10.882 0 01-10.89-10.89v-64.449h123.025v63.222c0 6.69-5.427 12.117-12.117 12.117z"
    />
    <path
        fill="url(#paint0_linear_5741_18660)"
        d="M231.517 191h-98.791c-6.69 0-12.117-5.426-12.117-12.116v-72.886c0-8.288 6.728-15.016 15.016-15.016h107.972v87.939c.037 6.653-5.389 12.079-12.08 12.079z"
    />
    <path
        fill="url(#paint1_linear_5741_18660)"
        d="M256.011 90.945H135.662c-8.288 0-15.016 6.728-15.016 15.016V139.56a7.06 7.06 0 007.062 7.062h108.864a7.058 7.058 0 007.062-7.062V121.311h12.377V90.945z"
    />
    <path
        fill="#fff"
        d="M172.718 90.944h-9.663v-2.081c0-.966.78-1.71 1.709-1.71h6.245c.966 0 1.709.78 1.709 1.71v2.081zM214.569 90.944h-9.664v-2.081c0-.966.781-1.71 1.71-1.71h6.207c.966 0 1.71.78 1.71 1.71v2.081h.037z"
    />
    <path
        fill="url(#paint2_linear_5741_18660)"
        d="M265.526 151.12h-21.854v-49.247c0-6.059 4.906-10.928 10.927-10.928s10.927 4.906 10.927 10.928v49.247z"
    />
    <path
        fill="#EC7454"
        d="M154.894 146.697h-9.291v-19.253a4.647 4.647 0 014.645-4.646 4.647 4.647 0 014.646 4.646v19.253z"
    />
    <path fill="#8B1C1C" d="M154.894 146.696h-9.291v18.473h9.291v-18.473z" />
    <path
        fill="#fff"
        d="M150.248 173.011a4.647 4.647 0 01-4.645-4.646v-3.159h9.291v3.159a4.647 4.647 0 01-4.646 4.646z"
    />
    <path fill="#EC7454" d="M219.409 146.697h-9.292v-19.253a4.647 4.647 0 019.292 0v19.253z" />
    <path fill="#8B1C1C" d="M219.409 146.696h-9.292v18.473h9.292v-18.473z" />
    <path
        fill="#fff"
        d="M214.763 173.011a4.648 4.648 0 01-4.646-4.646v-3.159h9.292v3.159a4.647 4.647 0 01-4.646 4.646z"
    />
    <g>
        <path
            stroke="#FFBD3D"
            stroke-miterlimit="10"
            stroke-width="1.649"
            d="M104.725 191c7.061 0 12.785-5.725 12.785-12.786s-5.724-12.785-12.785-12.785-12.785 5.724-12.785 12.785S97.663 191 104.724 191z"
        />
        <path
            stroke="#FFBD3D"
            stroke-miterlimit="10"
            stroke-width="1.649"
            d="M84.86 179.2a3.547 3.547 0 013.558-3.557 3.547 3.547 0 013.557 3.557"
        />
        <path
            stroke="#FFBD3D"
            stroke-linecap="round"
            stroke-miterlimit="10"
            stroke-width="1.649"
            d="M117.476 178.214h16.659a5.427 5.427 0 015.425 5.424v7.361"
        />
        <path
            stroke="#FFEBC4"
            stroke-linecap="round"
            stroke-miterlimit="10"
            stroke-width="1.649"
            d="M59.324 178.214h16.66a5.426 5.426 0 015.424 5.424v7.361"
        />
        <path
            stroke="#FFBD3D"
            stroke-miterlimit="10"
            stroke-width="1.649"
            d="M72.11 191c7.06 0 12.785-5.725 12.785-12.786s-5.724-12.785-12.785-12.785-12.786 5.724-12.786 12.785S65.05 191 72.11 191z"
        />
    </g>
    <g>
        <path
            fill="#1B1340"
            d="M285.351 93.008V59.023c0-.625.507-1.093 1.093-1.093h.196c.625 0 1.093.508 1.093 1.093v33.985c0 1.758.079 3.476.196 5.234l.937 12.461h-4.648l.937-12.46c.117-1.759.196-3.516.196-5.235z"
        />
        <path
            fill="url(#paint3_linear_5741_18660)"
            d="M282 110.978v78.125c0 1.171.938 2.109 2.109 2.109h30.782a2.101 2.101 0 002.109-2.109v-3.633c0-.899-.352-1.797-.977-2.461l-6.796-7.188a3.763 3.763 0 01-1.016-2.578V139.22c0-.352.039-.703.156-1.055l7.852-26.562c.39-1.329-.625-2.696-1.992-2.696h-30.079c-1.211 0-2.148.938-2.148 2.071z"
        />
    </g>
    <g>
        <path
            fill="url(#paint4_linear_5741_18660)"
            d="M57.853 91c0-14.36 11.641-26 26-26 14.36 0 26.001 11.64 26.001 26v26h-26c-14.36 0-26-11.641-26-26z"
        />
        <path
            fill="#fff"
            d="M83.458 88.899a4.52 4.52 0 100-9.042 4.52 4.52 0 000 9.042zM77.193 101.667c-2.697 0-4.521-2.934-3.173-5.234a10.848 10.848 0 019.517-5.631c4.124 0 7.614 2.22 9.517 5.63 1.349 2.38-.475 5.235-3.172 5.235h-12.69z"
        />
    </g>
    <defs>
        <linearGradient
            id="paint0_linear_5741_18660"
            x1="182.103"
            x2="182.103"
            y1="118.188"
            y2="165.674"
            gradientUnits="userSpaceOnUse"
        >
            <stop stop-color="#FC451C" />
            <stop offset="1" stop-color="#E38C70" />
        </linearGradient>
        <linearGradient
            id="paint1_linear_5741_18660"
            x1="188.329"
            x2="188.329"
            y1="90.945"
            y2="146.622"
            gradientUnits="userSpaceOnUse"
        >
            <stop stop-color="#FFD7B3" />
            <stop offset="1" stop-color="#FFB39B" />
        </linearGradient>
        <linearGradient
            id="paint2_linear_5741_18660"
            x1="254.599"
            x2="254.599"
            y1="90.945"
            y2="140.876"
            gradientUnits="userSpaceOnUse"
        >
            <stop stop-color="#290000" />
            <stop offset="1" stop-color="#8A1C1C" />
        </linearGradient>
        <linearGradient
            id="paint3_linear_5741_18660"
            x1="299.5"
            x2="299.5"
            y1="108.907"
            y2="191.212"
            gradientUnits="userSpaceOnUse"
        >
            <stop stop-color="#EAE4DC" />
            <stop offset="1" stop-color="#D1CBC4" />
        </linearGradient>
        <linearGradient id="paint4_linear_5741_18660" x1="84" x2="84" y1="53" y2="125" gradientUnits="userSpaceOnUse">
            <stop stop-color="#ECAAFF" />
            <stop offset="1" stop-color="#6A48F6" />
        </linearGradient>
    </defs>
</svg>
