<svg xmlns="http://www.w3.org/2000/svg" width="384" height="216" fill="none" viewBox="0 0 384 216">
  <defs/>
  <path fill="#50506A" d="M212.34 89.05h-5.2v-7.21c0-.9-.75-1.64-1.64-1.64h-33.38c-.89 0-1.63.75-1.63 1.64v6.73h-5.2v-6.73c0-3.8 3.08-6.84 6.83-6.84h33.34c3.8 0 6.84 3.08 6.84 6.84v7.2h.04z"/>
  <path fill="#8B1C1C" d="M253.41 191H153.39a10.88 10.88 0 01-10.89-10.89v-64.45h123.03v63.22c0 6.7-5.43 12.12-12.12 12.12z"/>
  <path fill="url(#paint0_linear)" d="M231.52 191h-98.8a12.12 12.12 0 01-12.11-12.12V106c0-8.29 6.73-15.02 15.02-15.02H243.6v87.94A12.05 12.05 0 01231.52 191z"/>
  <path fill="url(#paint1_linear)" d="M256.01 90.95H135.66a15.02 15.02 0 00-15.01 15.01v33.6c0 3.9 3.16 7.06 7.06 7.06h108.86c3.9 0 7.06-3.16 7.06-7.06v-18.25h12.38V90.95z"/>
  <path fill="#fff" d="M172.72 90.94h-9.66v-2.08c0-.96.78-1.7 1.7-1.7h6.25c.97 0 1.7.77 1.7 1.7v2.08zM214.57 90.94h-9.66v-2.08c0-.96.78-1.7 1.7-1.7h6.21c.97 0 1.71.77 1.71 1.7v2.08h.04z"/>
  <path fill="url(#paint2_linear)" d="M265.53 151.12h-21.86v-49.25a10.92 10.92 0 1121.86 0v49.25z"/>
  <path fill="#EC7454" d="M154.9 146.7h-9.3v-19.26a4.65 4.65 0 019.3 0v19.26z"/>
  <path fill="#8B1C1C" d="M154.9 146.7h-9.3v18.47h9.3V146.7z"/>
  <path fill="#fff" d="M150.25 173.01a4.65 4.65 0 01-4.65-4.64v-3.16h9.3v3.16a4.65 4.65 0 01-4.65 4.64z"/>
  <path fill="#EC7454" d="M219.4 146.7h-9.28v-19.26a4.65 4.65 0 019.29 0v19.26z"/>
  <path fill="#8B1C1C" d="M219.4 146.7h-9.28v18.47h9.29V146.7z"/>
  <path fill="#fff" d="M214.76 173.01a4.65 4.65 0 01-4.64-4.64v-3.16h9.29v3.16a4.65 4.65 0 01-4.65 4.64z"/>
  <path stroke="#FDC760" stroke-miterlimit="10" stroke-width="1.65" d="M104.72 191a12.79 12.79 0 100-25.57 12.79 12.79 0 000 25.57z"/>
  <path stroke="#FDC760" stroke-miterlimit="10" stroke-width="1.65" d="M84.86 179.2a3.55 3.55 0 013.56-3.56 3.55 3.55 0 013.55 3.56"/>
  <path stroke="#FDC760" stroke-linecap="round" stroke-miterlimit="10" stroke-width="1.65" d="M117.47 178.21h16.66c3 0 5.43 2.43 5.43 5.43V191"/>
  <path stroke="#FFEDC9" stroke-linecap="round" stroke-miterlimit="10" stroke-width="1.65" d="M59.32 178.21h16.66c3 0 5.43 2.43 5.43 5.43V191"/>
  <path stroke="#FDC760" stroke-miterlimit="10" stroke-width="1.65" d="M72.11 191a12.79 12.79 0 100-25.57 12.79 12.79 0 000 25.57z"/>
  <path fill="#50506A" d="M285.35 93V59.03c0-.62.5-1.09 1.1-1.09h.19c.63 0 1.1.5 1.1 1.1V93c0 1.76.07 3.47.19 5.23l.94 12.46h-4.65l.94-12.46c.11-1.76.2-3.51.2-5.23z"/>
  <path fill="url(#paint3_linear)" d="M282 110.98v78.12c0 1.17.94 2.11 2.1 2.11h30.8a2.1 2.1 0 002.1-2.1v-3.64c0-.9-.35-1.8-.98-2.46l-6.8-7.19a3.76 3.76 0 01-1-2.58v-34.02c0-.35.03-.7.15-1.06l7.85-26.56a2.11 2.11 0 00-2-2.7h-30.07a2.1 2.1 0 00-2.15 2.08z"/>
  <path fill="url(#paint4_linear)" d="M57.85 91a26 26 0 0152 0v26h-26a26 26 0 01-26-26z"/>
  <path fill="#fff" d="M83.46 88.9a4.52 4.52 0 100-9.04 4.52 4.52 0 000 9.04zM77.2 101.67c-2.7 0-4.53-2.94-3.18-5.24a10.85 10.85 0 0119.03 0c1.35 2.38-.47 5.24-3.17 5.24H77.2z"/>
  <defs>
    <linearGradient id="paint0_linear" x1="182.1" x2="182.1" y1="118.19" y2="165.67" gradientUnits="userSpaceOnUse">
      <stop stop-color="#FC451C"/>
      <stop offset="1" stop-color="#E38C70"/>
    </linearGradient>
    <linearGradient id="paint1_linear" x1="188.33" x2="188.33" y1="90.95" y2="146.62" gradientUnits="userSpaceOnUse">
      <stop stop-color="#FFD7B3"/>
      <stop offset="1" stop-color="#FFB39B"/>
    </linearGradient>
    <linearGradient id="paint2_linear" x1="254.6" x2="254.6" y1="90.95" y2="140.88" gradientUnits="userSpaceOnUse">
      <stop stop-color="#290000"/>
      <stop offset="1" stop-color="#8A1C1C"/>
    </linearGradient>
    <linearGradient id="paint3_linear" x1="299.5" x2="299.5" y1="108.91" y2="191.21" gradientUnits="userSpaceOnUse">
      <stop stop-color="#DFEAF4"/>
      <stop offset="1" stop-color="#E2DFF4"/>
    </linearGradient>
    <linearGradient id="paint4_linear" x1="57.93" x2="89.81" y1="65" y2="117.17" gradientUnits="userSpaceOnUse">
      <stop stop-color="#72D5FF"/>
      <stop offset="1" stop-color="#72B9FF"/>
    </linearGradient>
  </defs>
</svg>
