<svg xmlns="http://www.w3.org/2000/svg" width="384" height="216" fill="none" viewBox="0 0 384 216">
    <path
        fill="#EAE8E5"
        d="M291.17 188H92.854a3.018 3.018 0 01-3.05-3.051v-1.712c0-1.711 1.34-3.05 3.05-3.05H291.17a3.017 3.017 0 013.05 3.05v1.712c0 1.711-1.413 3.051-3.05 3.051z"
    />
    <path fill="#D1CFCD" d="M200.829 184.503h-18.454a4.24 4.24 0 01-4.241-4.241h26.936a4.24 4.24 0 01-4.241 4.241z" />
    <path
        fill="#372580"
        d="M273.033 180.187H109.5V86.929c0-4.91 4.018-8.929 8.929-8.929h145.674c4.912 0 8.93 4.018 8.93 8.93v93.257z"
    />
    <path
        fill="url(#paint0_linear_5741_18647)"
        d="M266.114 180.186H117.166V88.342a2.16 2.16 0 012.158-2.157h144.558a2.16 2.16 0 012.158 2.157v91.844h.074z"
    />
    <path fill="#fff" d="M127 100a6 6 0 016-6h116a6 6 0 016 6v69a3 3 0 01-3 3H130a3 3 0 01-3-3v-69z" />
    <path
        fill="#EAE8E5"
        d="M134.071 103.607a2 2 0 10.001-3.999 2 2 0 00-.001 3.999zM140.546 103.607a2 2 0 100-4 2 2 0 000 4zM147.02 103.607a2 2 0 100-4 2 2 0 000 4z"
    />
    <path
        fill="#372580"
        d="M216.969 139.34h-50.456a3.978 3.978 0 010-7.954h50.456a3.977 3.977 0 013.977 3.977c0 2.256-1.78 3.977-3.977 3.977z"
    />
    <path
        fill="#372580"
        fill-rule="evenodd"
        d="M201.357 107.464h1.602c3.681 0 6.767 2.73 7.361 6.351l1.527 11.338h-39.976l1.527-11.338a7.302 7.302 0 017.242-6.351h1.603c1.781 0 3.502.772 4.867 1.899a7.226 7.226 0 004.69 1.722c1.781 0 3.383-.653 4.689-1.722 1.365-1.187 3.087-1.899 4.868-1.899z"
        clip-rule="evenodd"
    />
    <path
        fill="#372580"
        d="M203.317 141.773c-4.215 0-7.776 2.909-8.785 6.886a4.238 4.238 0 00-2.79-1.009c-1.069 0-2.019.356-2.731 1.009-.95-3.918-4.511-6.886-8.785-6.886a9.02 9.02 0 00-9.023 9.023 9.02 9.02 0 009.023 9.023c4.867 0 8.785-3.799 9.023-8.607.296-1.128 1.306-1.959 2.493-1.959 1.246 0 2.255.831 2.493 2.018.237 4.749 4.155 8.548 9.023 8.548a9.019 9.019 0 009.022-9.023c.06-4.986-3.977-9.023-8.963-9.023zm-23.091 16.324c-3.977 0-7.242-3.264-7.242-7.241 0-3.978 3.265-7.242 7.242-7.242s7.242 3.264 7.242 7.242c0 3.977-3.265 7.241-7.242 7.241zm23.091 0c-3.977 0-7.242-3.264-7.242-7.241 0-3.978 3.265-7.242 7.242-7.242s7.242 3.264 7.242 7.242c0 3.977-3.265 7.241-7.242 7.241z"
    />
    <g>
        <mask id="a" width="86" height="79" x="188" y="78" maskUnits="userSpaceOnUse" style="mask-type: alpha">
            <path fill="#C4C4C4" d="M188.071 78h85.446v78.571h-85.446z" />
        </mask>
        <g filter="url(#filter0_f_5741_18647)" mask="url(#a)" opacity=".3">
            <path
                fill="#221548"
                d="M240.125 54.92L273.518 78v54.509l-3.782-2.169a58.928 58.928 0 01-29.611-51.118V54.92z"
            />
        </g>
    </g>
    <g>
        <path
            fill="url(#paint1_linear_5741_18647)"
            d="M322.506 52.923l-32.29-10.277a13.818 13.818 0 00-8.354 0l-32.289 10.277a4.207 4.207 0 00-2.917 3.846c-.464 12.398.331 60.468 38.72 73.132.464.132.929.132 1.326 0 38.39-12.664 39.185-60.734 38.721-73.132a4.208 4.208 0 00-2.917-3.846z"
        />
        <path
            fill="#fff"
            d="M286.039 101.854c10.253 0 18.565-8.312 18.565-18.565 0-10.253-8.312-18.564-18.565-18.564-10.253 0-18.564 8.311-18.564 18.564s8.311 18.565 18.564 18.565z"
        />
        <path
            fill="#372580"
            fill-rule="evenodd"
            d="M295.097 78.542c.465.466.465 1.22 0 1.686l-10.005 10.005a1.193 1.193 0 01-1.686 0l-5.119-5.12a1.19 1.19 0 111.685-1.685l4.277 4.277 9.163-9.163a1.191 1.191 0 011.685 0z"
            clip-rule="evenodd"
        />
    </g>
    <g>
        <path
            fill="url(#paint2_linear_5741_18647)"
            d="M36 89c0-15.464 12.536-28 28-28s28 12.536 28 28v28H64c-15.464 0-28-12.536-28-28z"
        />
        <path
            fill="#fff"
            fill-rule="evenodd"
            d="M70.821 80.65v2.867h2.793c.955 0 1.764.772 1.764 1.764v14.955c0 .956-.772 1.764-1.764 1.764h-18.85A1.764 1.764 0 0153 100.236V85.281c0-.955.772-1.764 1.764-1.764h2.755v-2.866A6.65 6.65 0 0164.17 74a6.65 6.65 0 016.651 6.65zm-2.8 0v2.867h-7.628v-2.866c0-2.646 2.02-3.814 3.814-3.814 1.793 0 3.814 1.168 3.814 3.814zm-3.473 7.864a2.305 2.305 0 012.315 2.316c0 .881-.478 1.653-1.213 2.02l.956 4.116H62.49l.956-4.115c-.735-.405-1.213-1.14-1.213-2.022a2.305 2.305 0 012.315-2.314z"
            clip-rule="evenodd"
        />
    </g>
    <defs>
        <linearGradient
            id="paint0_linear_5741_18647"
            x1="114.411"
            x2="273.518"
            y1="186.527"
            y2="88.803"
            gradientUnits="userSpaceOnUse"
        >
            <stop stop-color="#35168C" />
            <stop offset=".318" stop-color="#FF5454" />
            <stop offset=".469" stop-color="#FFDD64" />
            <stop offset=".677" stop-color="#BCE6FF" />
            <stop offset=".943" stop-color="#2395FF" />
        </linearGradient>
        <linearGradient
            id="paint1_linear_5741_18647"
            x1="290.129"
            x2="290.587"
            y1="35.583"
            y2="130"
            gradientUnits="userSpaceOnUse"
        >
            <stop stop-color="#2AF091" />
            <stop offset="1" stop-color="#00C5A1" />
        </linearGradient>
        <linearGradient
            id="paint2_linear_5741_18647"
            x1="70"
            x2="40.846"
            y1="61"
            y2="125.077"
            gradientUnits="userSpaceOnUse"
        >
            <stop stop-color="#FFD66C" />
            <stop offset="1" stop-color="#FF8E4F" />
        </linearGradient>
        <filter
            id="filter0_f_5741_18647"
            width="66.785"
            height="110.982"
            x="223.429"
            y="38.224"
            color-interpolation-filters="sRGB"
            filterUnits="userSpaceOnUse"
        >
            <feFlood flood-opacity="0" result="BackgroundImageFix" />
            <feBlend in="SourceGraphic" in2="BackgroundImageFix" result="shape" />
            <feGaussianBlur result="effect1_foregroundBlur_5741_18647" stdDeviation="8.348" />
        </filter>
    </defs>
</svg>
