<svg xmlns="http://www.w3.org/2000/svg" width="384" height="216" fill="none" viewBox="0 0 384 216">
  <defs/>
  <path fill="#B0D4E5" d="M288.17 188H95.86a3.02 3.02 0 01-3.06-3.05v-1.71a3.02 3.02 0 013.05-3.05h192.32a3.02 3.02 0 013.05 3.05v1.7a3.07 3.07 0 01-3.05 3.06z"/>
  <path fill="#DAF3FF" d="M200.83 184.5h-18.45a4.24 4.24 0 01-4.25-4.24h26.94a4.24 4.24 0 01-4.24 4.24z"/>
  <path fill="#38385F" d="M273.03 180.19H109.5V86.93a8.96 8.96 0 018.93-8.93H264.1a8.96 8.96 0 018.93 8.93v93.26z"/>
  <path fill="url(#paint0_linear)" d="M266.12 180.19H117.17V88.34c0-1.19.96-2.16 2.15-2.16h144.56a2.16 2.16 0 012.16 2.16v91.85h.07z"/>
  <path fill="#fff" d="M257.8 172.28H127.18V95.52c0-1 .85-1.8 1.9-1.8h126.77c1.04 0 1.89.8 1.89 1.8v76.77h.06z"/>
  <path fill="#B0D4E5" d="M135.16 103.77a2.08 2.08 0 100-4.16 2.08 2.08 0 000 4.16zm6.47 0a2.08 2.08 0 100-4.16 2.08 2.08 0 000 4.16zm6.47 0a2.08 2.08 0 100-4.16 2.08 2.08 0 000 4.16z"/>
  <path fill="#4D3B82" d="M216.97 139.34H166.5a3.98 3.98 0 010-7.95h50.46a3.98 3.98 0 013.98 3.97 3.94 3.94 0 01-3.98 3.98z"/>
  <path fill="url(#paint1_linear)" fill-rule="evenodd" d="M201.36 107.46h1.6a7.51 7.51 0 017.36 6.36l1.53 11.33h-39.98l1.53-11.34a7.3 7.3 0 017.24-6.35h1.6c1.78 0 3.5.78 4.87 1.9a7.22 7.22 0 004.69 1.73c1.78 0 3.38-.66 4.69-1.73a7.47 7.47 0 014.87-1.9z" clip-rule="evenodd"/>
  <path fill="#4D3B82" d="M203.32 141.77a9.09 9.09 0 00-8.79 6.89 4.24 4.24 0 00-2.79-1.01c-1.07 0-2.02.36-2.73 1a9.05 9.05 0 00-8.78-6.88 9.02 9.02 0 00-9.03 9.03 9.02 9.02 0 009.03 9.02c4.86 0 8.78-3.8 9.02-8.6a2.6 2.6 0 012.5-1.97 2.5 2.5 0 012.48 2.02 9 9 0 009.03 8.55 9.02 9.02 0 009.02-9.02 8.93 8.93 0 00-8.96-9.03zm-23.1 16.33a7.27 7.27 0 01-7.24-7.24c0-3.98 3.27-7.25 7.25-7.25s7.24 3.27 7.24 7.25a7.27 7.27 0 01-7.25 7.24zm23.1 0a7.27 7.27 0 01-7.25-7.24c0-3.98 3.27-7.25 7.25-7.25s7.24 3.27 7.24 7.25a7.27 7.27 0 01-7.24 7.24z"/>
  <mask id="a" width="86" height="79" x="188" y="78" maskUnits="userSpaceOnUse">
    <path fill="#C4C4C4" d="M188.07 78h85.45v78.57h-85.45z"/>
  </mask>
  <g filter="url(#filter0_f)" mask="url(#a)" opacity=".3">
    <path fill="#221548" d="M240.13 54.92L273.51 78v54.5l-3.78-2.16a58.93 58.93 0 01-29.62-51.12v-24.3z"/>
  </g>
  <path fill="url(#paint2_linear)" d="M329.82 45.92L294.6 34.7a15.08 15.08 0 00-9.12 0l-35.22 11.2a4.59 4.59 0 00-3.18 4.2c-.51 13.53.36 65.97 42.24 79.78.5.15 1 .15 1.44 0 41.88-13.81 42.75-66.25 42.24-79.78a4.59 4.59 0 00-3.18-4.2z"/>
  <path fill="#fff" d="M290.04 99.3a20.25 20.25 0 100-40.51 20.25 20.25 0 000 40.5z"/>
  <path stroke="#0D0A44" stroke-linecap="round" stroke-linejoin="round" stroke-miterlimit="10" stroke-width="2.6" d="M282.5 80.11l5.58 5.59L299 74.78"/>
  <g>
    <path fill="url(#paint3_linear)" d="M32 106a28 28 0 1156 0v28H60a28 28 0 01-28-28z"/>
    <path fill="#fff" fill-rule="evenodd" d="M66.82 97.65v2.87h2.8c.95 0 1.76.77 1.76 1.76v14.96c0 .95-.77 1.76-1.77 1.76H50.76a1.76 1.76 0 01-1.76-1.76v-14.96c0-.95.77-1.76 1.76-1.76h2.76v-2.87A6.65 6.65 0 0160.17 91a6.65 6.65 0 016.65 6.65zm-2.8 0v2.87H56.4v-2.87c0-2.64 2.02-3.81 3.82-3.81 1.79 0 3.81 1.17 3.81 3.81zm-3.47 7.87a2.3 2.3 0 012.31 2.3c0 .9-.47 1.66-1.2 2.03l.95 4.12h-4.12l.96-4.12a2.28 2.28 0 01-1.22-2.02 2.3 2.3 0 012.32-2.31z" clip-rule="evenodd"/>
  </g>
  <defs>
    <linearGradient id="paint0_linear" x1="114.41" x2="273.52" y1="186.53" y2="88.8" gradientUnits="userSpaceOnUse">
      <stop stop-color="#35168C"/>
      <stop offset=".32" stop-color="#FF5454"/>
      <stop offset=".47" stop-color="#FFDD64"/>
      <stop offset=".68" stop-color="#BCE6FF"/>
      <stop offset=".94" stop-color="#2395FF"/>
    </linearGradient>
    <linearGradient id="paint1_linear" x1="191.86" x2="191.86" y1="107.46" y2="131.44" gradientUnits="userSpaceOnUse">
      <stop stop-color="#221548"/>
      <stop offset="1" stop-color="#644FA0"/>
    </linearGradient>
    <linearGradient id="paint2_linear" x1="290.04" x2="290.04" y1="34" y2="130" gradientUnits="userSpaceOnUse">
      <stop stop-color="#5BCB6A"/>
      <stop offset="1" stop-color="#1CB78F"/>
    </linearGradient>
    <linearGradient id="paint3_linear" x1="60" x2="60" y1="84.5" y2="140" gradientUnits="userSpaceOnUse">
      <stop stop-color="#FFD66C"/>
      <stop offset="1" stop-color="#FF658A"/>
    </linearGradient>
    <filter id="filter0_f" width="66.79" height="110.98" x="223.43" y="38.22" color-interpolation-filters="sRGB" filterUnits="userSpaceOnUse">
      <feFlood flood-opacity="0" result="BackgroundImageFix"/>
      <feBlend in="SourceGraphic" in2="BackgroundImageFix" result="shape"/>
      <feGaussianBlur result="effect1_foregroundBlur" stdDeviation="8.35"/>
    </filter>
  </defs>
</svg>
