<svg width="20" height="20" viewBox="0 0 20 20" fill="none" xmlns="http://www.w3.org/2000/svg">
    <path
        fill-rule="evenodd"
        clip-rule="evenodd"
        d="M7.61821 2.29413L7.12207 3.16237L5.94333 2.48881C5.66947 2.33232 5.3595 2.25 5.04408 2.25H2.5C1.67157 2.25 1 2.92157 1 3.75V15C1 15.8284 1.67157 16.5 2.5 16.5H17.5C18.3284 16.5 19 15.8284 19 15V5C19 4.17157 18.3284 3.5 17.5 3.5H8.39342C7.94748 3.5 7.50925 3.38362 7.12207 3.16237L7.61821 2.29413ZM6.43947 1.62057L7.61821 2.29413C7.8543 2.42904 8.12151 2.5 8.39342 2.5H17.5C18.8807 2.5 20 3.61929 20 5V15C20 16.3807 18.8807 17.5 17.5 17.5H2.5C1.11929 17.5 0 16.3807 0 15V3.75C0 2.36929 1.11929 1.25 2.5 1.25H5.04408C5.53353 1.25 6.01451 1.37773 6.43947 1.62057Z"
        fill="url(#paint0_linear_3191_150790)"
    />
    <path
        d="M0 3.75H3.59766C4.25 3.75 4.82504 3.95714 5.25 4.2L6 4.7C6.23609 4.83492 6.5 4.99996 7.15364 5H13.75C15.1307 5 16.25 6.11912 16.25 7.5V17.5H2.5C1.11929 17.5 0 16.3809 0 15V3.75Z"
        fill="url(#paint1_linear_3191_150790)"
        fill-opacity="0.3"
    />
    <path
        d="M0 3.75H3.59766C4.25 3.75 4.82504 3.95714 5.25 4.2L6 4.7C6.23609 4.83492 6.5 4.99996 7.15364 5H13.75C15.1307 5 16.25 6.11912 16.25 7.5V17.5H2.5C1.11929 17.5 0 16.3809 0 15V3.75Z"
        fill="url(#paint2_radial_3191_150790)"
        fill-opacity="0.3"
    />
    <path
        fill-rule="evenodd"
        clip-rule="evenodd"
        d="M6 4.7L5.25 4.2C4.82504 3.95714 4.25 3.75 3.59766 3.75H0V15C0 16.3809 1.11929 17.5 2.5 17.5H16.25V7.5C16.25 6.11912 15.1307 5 13.75 5H7.15364C6.52298 4.99996 6.25513 4.84632 6.02502 4.71433C6.01663 4.70952 6.0083 4.70474 6 4.7ZM15.25 16.5V7.5C15.25 6.67145 14.5785 6 13.75 6H7.15364C6.73984 5.99998 6.40282 5.9473 6.10852 5.85076C5.84248 5.76348 5.64243 5.64811 5.53088 5.58378C5.52118 5.57819 5.51216 5.57299 5.50382 5.56822L5.47394 5.55114L4.72639 5.05278C4.42174 4.88385 4.02724 4.75 3.59766 4.75H1V15C1 15.8286 1.67153 16.5 2.5 16.5H15.25Z"
        fill="url(#paint3_linear_3191_150790)"
    />
    <defs>
        <linearGradient
            id="paint0_linear_3191_150790"
            x1="11"
            y1="5"
            x2="0.424526"
            y2="17.1203"
            gradientUnits="userSpaceOnUse"
        >
            <stop stop-color="#6D4AFF" />
            <stop offset="1" stop-color="#EA5FC9" />
        </linearGradient>
        <linearGradient
            id="paint1_linear_3191_150790"
            x1="8.13668"
            y1="-3.20953"
            x2="9.4529"
            y2="14.907"
            gradientUnits="userSpaceOnUse"
        >
            <stop offset="0.988738" stop-color="#6D4AFF" />
        </linearGradient>
        <radialGradient
            id="paint2_radial_3191_150790"
            cx="0"
            cy="0"
            r="1"
            gradientUnits="userSpaceOnUse"
            gradientTransform="translate(13.3357 -2.27741) rotate(115.578) scale(23.8582 36.6106)"
        >
            <stop offset="0.556057" stop-color="#FF62C0" stop-opacity="0" />
            <stop offset="0.994421" stop-color="#FF62C0" />
        </radialGradient>
        <linearGradient
            id="paint3_linear_3191_150790"
            x1="10"
            y1="7"
            x2="0.115027"
            y2="16.4258"
            gradientUnits="userSpaceOnUse"
        >
            <stop stop-color="#6D4AFF" />
            <stop offset="1" stop-color="#EA5FC9" />
        </linearGradient>
    </defs>
</svg>
