<svg
    fill="none"
    height="276"
    viewBox="0 0 276 276"
    width="276"
    xmlns="http://www.w3.org/2000/svg"
    xmlns:xlink="http://www.w3.org/1999/xlink"
>
    <linearGradient id="a" gradientUnits="userSpaceOnUse" x1="276" x2="147.14" y1="324.13" y2="-14.0015">
        <stop offset="0" stop-color="#fb83ae" />
        <stop offset="1" stop-color="#fff" stop-opacity="0" />
    </linearGradient>
    <linearGradient id="b">
        <stop offset="0" stop-color="#ffd580" />
        <stop offset=".09375" stop-color="#f6c592" />
        <stop offset=".205" stop-color="#ebb6a2" />
        <stop offset=".324466" stop-color="#dfa5af" />
        <stop offset=".42875" stop-color="#d397be" />
        <stop offset=".53375" stop-color="#c486cb" />
        <stop offset=".64875" stop-color="#b578d9" />
        <stop offset=".77125" stop-color="#a166e5" />
        <stop offset=".89125" stop-color="#8b57f2" />
        <stop offset="1" stop-color="#704cff" />
    </linearGradient>
    <radialGradient
        id="c"
        cx="0"
        cy="0"
        gradientTransform="matrix(74.31383458 -119.58547577 187.0075793 116.21185787 104.57 225.621)"
        gradientUnits="userSpaceOnUse"
        r="1"
        xlink:href="#b"
    />
    <linearGradient id="d" gradientUnits="userSpaceOnUse" x1="98.7611" x2="131.562" y1="20.1764" y2="220.397">
        <stop offset="0" stop-color="#6d4aff" />
        <stop offset=".392009" stop-color="#b39ffb" stop-opacity=".978022" />
        <stop offset="1" stop-color="#ffe8db" stop-opacity=".8" />
    </linearGradient>
    <radialGradient
        id="e"
        cx="0"
        cy="0"
        gradientTransform="matrix(59.77409097 -96.18818822 150.41889984 93.47460608 92.2026 208.476)"
        gradientUnits="userSpaceOnUse"
        r="1"
        xlink:href="#b"
    />
    <path d="m276 276h-276v-276h276z" fill="#fff" />
    <path d="m276 276h-276v-276h276z" fill="url(#a)" fill-opacity=".25" />
    <path
        d="m104.386 74.9743c11.766-11.766 17.649-17.649 24.433-19.8532 5.967-1.9388 12.395-1.9388 18.362 0 6.784 2.2042 12.667 8.0872 24.433 19.8532l29.412 29.4117c11.766 11.766 17.649 17.649 19.853 24.433 1.939 5.967 1.939 12.395 0 18.362-2.204 6.784-8.087 12.667-19.853 24.433l-29.412 29.412c-11.766 11.766-17.649 17.649-24.433 19.854-5.967 1.938-12.395 1.938-18.362 0-6.784-2.205-12.667-8.088-24.433-19.854l-5.5297-6.199c-3.3463-3.752-5.0195-5.627-6.2124-7.761-1.058-1.892-1.8343-3.928-2.3042-6.045-.5299-2.386-.5299-4.899-.5299-9.927v-66.188c0-5.0269 0-7.5404.5298-9.9266.47-2.1163 1.2462-4.1527 2.3042-6.0449 1.193-2.1334 2.8661-4.0092 6.2125-7.7607z"
        fill="url(#c)"
    />
    <path
        d="m104.386 74.9743c11.766-11.766 17.649-17.649 24.433-19.8532 5.967-1.9388 12.395-1.9388 18.362 0 6.784 2.2042 12.667 8.0872 24.433 19.8532l29.412 29.4117c11.766 11.766 17.649 17.649 19.853 24.433 1.939 5.967 1.939 12.395 0 18.362-2.204 6.784-8.087 12.667-19.853 24.433l-29.412 29.412c-11.766 11.766-17.649 17.649-24.433 19.854-5.967 1.938-12.395 1.938-18.362 0-6.784-2.205-12.667-8.088-24.433-19.854l-5.5297-6.199c-3.3463-3.752-5.0195-5.627-6.2124-7.761-1.058-1.892-1.8343-3.928-2.3042-6.045-.5299-2.386-.5299-4.899-.5299-9.927v-66.188c0-5.0269 0-7.5404.5298-9.9266.47-2.1163 1.2462-4.1527 2.3042-6.0449 1.193-2.1334 2.8661-4.0092 6.2125-7.7607z"
        fill="url(#d)"
    />
    <path
        d="m102.285 77.0736c5.883-5.883 8.825-8.8245 12.217-9.9266 2.983-.9694 6.197-.9694 9.181 0 3.392 1.1021 6.333 4.0436 12.216 9.9266l44.118 44.1184c5.883 5.883 8.825 8.824 9.927 12.216.969 2.984.969 6.198 0 9.181-1.102 3.392-4.044 6.334-9.927 12.217l-44.118 44.118c-5.883 5.883-8.824 8.824-12.216 9.926-2.984.97-6.198.97-9.181 0-3.392-1.102-6.334-4.043-12.217-9.926l-27.3111-27.311c-11.7659-11.766-17.6489-17.649-19.8531-24.433-1.9389-5.967-1.9389-12.395 0-18.362 2.2042-6.784 8.0872-12.667 19.8531-24.433z"
        fill="url(#e)"
    />
</svg>
