<svg xmlns="http://www.w3.org/2000/svg" width="24" height="16" fill="none" viewBox="0 0 24 16">
  <g clip-path="url(#clip0)">
    <path fill="#D80027" d="M24-.003H0v15.998h24V-.003z"/>
    <path fill="#496E2D" d="M24-.003h-8.52v15.998H24V-.003z"/>
    <path fill="#000" d="M8.52-.003H0v15.998h8.52V-.003z"/>
    <path fill="#FFDA44" d="M12 9.74a1.74 1.74 0 11-.072-3.478A1.74 1.74 0 0112 9.74zm0-4.522c-.551 0-1.09.186-1.548.492A2.783 2.783 0 1014.782 8 2.783 2.783 0 0012 5.218z"/>
    <path fill="#FFDA44" d="M12 6.958a.697.697 0 00-.697.697v1.043h1.394V7.655A.698.698 0 0012 6.958z"/>
  </g>
  <defs>
    <clipPath id="clip0">
      <path fill="#fff" d="M0 0h24v16H0z"/>
    </clipPath>
  </defs>
</svg>
