<svg xmlns="http://www.w3.org/2000/svg" width="24" height="16" fill="none" viewBox="0 0 24 16">
  <g clip-path="url(#clip0)">
    <path fill="#000" d="M24-.003H0v15.998h24V-.003z"/>
    <path fill="#0052B4" d="M4.163 6.402a7.815 7.815 0 000 3.195l7.837.488 7.838-.488a7.816 7.816 0 000-3.195"/>
    <path fill="#F0F0F0" d="M19.838 9.598H4.163a7.995 7.995 0 0015.675 0z"/>
    <path fill="#FFDA44" d="M15.48 6.402H8.52l1.425-.675-.757-1.372 1.544.292.196-1.552L12 4.235l1.072-1.14.196 1.552 1.544-.292-.757 1.372 1.425.675z"/>
    <path fill="#A2001D" d="M12 16.002L0-.003v16.005h12zm12 0V-.003L12 16.002h12z"/>
  </g>
  <defs>
    <clipPath id="clip0">
      <path fill="#fff" d="M0 0h24v16H0z"/>
    </clipPath>
  </defs>
</svg>
