<svg xmlns="http://www.w3.org/2000/svg" width="24" height="16" fill="none" viewBox="0 0 24 16">
  <g clip-path="url(#clip0)">
    <path fill="#0052B4" d="M24-.003H0v15.998h24V-.003z"/>
    <path fill="#F3F3F3" d="M20.047 9.867c.254-.337.39-.747.39-1.17v-3.48A1.755 1.755 0 0118 4.872a1.755 1.755 0 01-2.438.345v3.48c0 .42.136.83.383 1.17h4.102z"/>
    <path fill="#FF9811" d="M19.328 8.052a2.8 2.8 0 00.172-.862c0-.315-.413-.57-.413-.57s-.412.255-.412.57c.023.296.09.587.203.862l-.24.533c.29.12.616.12.907 0l-.218-.533zm-1.613-1.74a2.773 2.773 0 00-.84.263c-.277.157-.293.637-.293.637s.428.233.706.075c.242-.168.46-.37.645-.6l.584-.067a1.198 1.198 0 00-.45-.78l-.352.472zm-.698 2.265c.186.23.403.432.646.6.277.158.704-.075.704-.075s0-.48-.292-.637a2.775 2.775 0 00-.825-.263l-.345-.472a1.238 1.238 0 00-.308.345 1.34 1.34 0 00-.15.435l.57.067z"/>
    <path fill="#338AF3" d="M15.862 9.74A3.84 3.84 0 0018 11.127a3.84 3.84 0 002.137-1.387h-4.275z"/>
    <path fill="#F0F0F0" d="M12 4.752H6.75V8h.75V5.705L10.943 8H12L8.25 5.502h1.057L12 7.295v-.353l-2.16-1.44H12v-.75zm-3.75-2.25L12-.003h-1.057L7.5 2.292V-.003h-.75v3.255H12v-.75H9.84L12 1.062V.71L9.307 2.502H8.25zM4.5-.003v2.295L1.058-.003H0l3.75 2.505H2.692L0 .71v.352l2.16 1.44H0v.75h5.25V-.003H4.5zM0 4.752v.75h2.16L0 6.942v.353l2.692-1.793H3.75L0 8h1.058L4.5 5.705V8h.75V4.752H0z"/>
    <path fill="#D80027" d="M6.75-.003h-1.5v3.255H0v1.5h5.25V8h1.5V4.752H12v-1.5H6.75V-.003z"/>
    <path fill="#D80027" d="M3.75 2.502L0-.003V.71l2.692 1.792H3.75zm4.5 0h1.057L12 .71v-.713L8.25 2.502zm-5.558 3L0 7.295V8l3.75-2.498H2.692zm5.558 0L12 8v-.705L9.307 5.502H8.25z"/>
  </g>
  <defs>
    <clipPath id="clip0">
      <path fill="#fff" d="M0 0h24v16H0z"/>
    </clipPath>
  </defs>
</svg>
