<svg xmlns="http://www.w3.org/2000/svg" width="24" height="16" fill="none" viewBox="0 0 24 16">
  <g clip-path="url(#clip0)">
    <path fill="#000" d="M24-.003H0v15.998h24V-.003z"/>
    <path fill="#D80027" d="M24-.003H0V8h24V-.003z"/>
    <path fill="#FFDA44" d="M10.905 6.365l.675.487-.255.803L12 7.16l.675.495-.255-.803.675-.495-.84.008L12 5.562l-.262.803h-.833z"/>
    <path fill="#FFDA44" d="M14.003 4.535c-.61-.349-1.3-.533-2.003-.532v1.042a2.956 2.956 0 11-.218 5.903 2.957 2.957 0 01-1.282-.39 2.88 2.88 0 01-.99-.93l-.87.577a3.997 3.997 0 105.34-5.67h.023z"/>
    <path fill="#FFDA44" d="M9.69 7.302a1.043 1.043 0 00.42 1.448l3.39 1.822a.847.847 0 00.308 1.178l.915.502a.877.877 0 001.185-.345l.495-.907L9.69 7.302z"/>
  </g>
  <defs>
    <clipPath id="clip0">
      <path fill="#fff" d="M0 0h24v16H0z"/>
    </clipPath>
  </defs>
</svg>
