<svg xmlns="http://www.w3.org/2000/svg" width="24" height="16" fill="none" viewBox="0 0 24 16">
  <g clip-path="url(#clip0)">
    <path fill="#F0F0F0" d="M24-.003H0v15.998h24V-.003z"/>
    <path fill="#338AF3" d="M24-.003H0V5.33h24V-.003zm0 10.673H0v5.332h24V10.67z"/>
    <path fill="#FFDA44" d="M13.912 8l-.78.367.413.758-.848-.165-.105.862-.592-.63-.593.63-.105-.862-.847.165.412-.758-.78-.367.78-.368-.412-.757.847.165.105-.863.593.63.592-.63.105.863.848-.165-.413.757.78.368z"/>
  </g>
  <defs>
    <clipPath id="clip0">
      <path fill="#fff" d="M0 0h24v16H0z"/>
    </clipPath>
  </defs>
</svg>
