<svg xmlns="http://www.w3.org/2000/svg" width="24" height="16" fill="none" viewBox="0 0 24 16">
  <g clip-path="url(#clip0)">
    <path fill="#0052B4" d="M24-.063H0v15.998h24V-.063z"/>
    <path fill="#D80027" d="M24 1.085L2.797 8.105 24 15.125v.938L0 8.104 24 .147v.938z"/>
    <path fill="#F0F0F0" d="M24 13.543v1.582L2.797 8.105 24 1.085v1.59"/>
    <path fill="#A2001D" d="M23.123 7.88H21.75a1.08 1.08 0 00-.067-1.463 1.088 1.088 0 000-1.545 1.118 1.118 0 000-1.567L15.518 9.5a1.072 1.072 0 001.5 0l.12-.105 2.947-.27v1.267h1.005V9.027l1.5-.135.533-1.012z"/>
    <path fill="#FFDA44" d="M15.607 10.813l-.997-.495.997-.503h6.518v.998h-6.518z"/>
  </g>
  <defs>
    <clipPath id="clip0">
      <path fill="#fff" d="M0 0h24v16H0z"/>
    </clipPath>
  </defs>
</svg>
