<svg xmlns="http://www.w3.org/2000/svg" width="24" height="16" fill="none" viewBox="0 0 24 16">
  <g clip-path="url(#clip0)">
    <path fill="#338AF3" d="M24-.003H0v15.998h24V-.003z"/>
    <path fill="#F0F0F0" d="M2.272 3.83l-1.56-.69 1.56-.69.69-1.567.69 1.567 1.568.69-1.568.69-.69 1.56-.69-1.56z"/>
    <path fill="#D80027" d="M2.963 1.745l.427.967.968.428-.968.427-.427.96-.428-.96-.96-.427.96-.428.428-.967z"/>
    <path fill="#FFDA44" d="M24 10.085H0v1.042h24v-1.042zm0 2.092H0v1.043h24v-1.043z"/>
  </g>
  <defs>
    <clipPath id="clip0">
      <path fill="#fff" d="M0 0h24v16H0z"/>
    </clipPath>
  </defs>
</svg>
