<svg xmlns="http://www.w3.org/2000/svg" width="24" height="16" fill="none" viewBox="0 0 24 16">
  <g clip-path="url(#clip0)">
    <path fill="#D80027" d="M24-.003H0v15.998h24V-.003z"/>
    <path fill="#338AF3" d="M24-.003H0V5.33h24V-.003z"/>
    <path fill="#6DA544" d="M24 10.67H0v5.333h24V10.67z"/>
    <path fill="#F0F0F0" d="M12.15 9.95a1.952 1.952 0 01-1.482-3.21 1.95 1.95 0 012.412-.457 2.4 2.4 0 100 3.435 1.942 1.942 0 01-.93.232z"/>
    <path fill="#F0F0F0" d="M13.65 6.65l.255.727.697-.33-.33.69L15 8l-.728.255.33.697-.697-.33-.255.728-.255-.728-.698.33.33-.697L12.3 8l.727-.263-.33-.69.698.33.255-.727z"/>
  </g>
  <defs>
    <clipPath id="clip0">
      <path fill="#fff" d="M0 0h24v16H0z"/>
    </clipPath>
  </defs>
</svg>
