<svg xmlns="http://www.w3.org/2000/svg" width="24" height="16" fill="none" viewBox="0 0 24 16">
  <g clip-path="url(#clip0)">
    <path fill="#0052B4" d="M24-.003H0v15.998h24V-.003z"/>
    <path fill="#FFDA44" d="M4.688-.003h15.997v16.005"/>
    <path fill="#F0F0F0" d="M1.718.717l.69-.502.697.502-.232-.72H1.95l-.232.72z"/>
    <path fill="#F0F0F0" d="M4.14.86L3.877.035l-.27.825h-.862l.697.503-.262.817.697-.502.698.502-.27-.817.697-.503H4.14z"/>
    <path fill="#F0F0F0" d="M5.603 2.322l-.263-.817-.27.817h-.855l.698.51-.27.818.697-.51.698.51-.27-.817.697-.51h-.862z"/>
    <path fill="#F0F0F0" d="M7.072 3.785l-.27-.817-.262.817h-.863l.698.51-.263.818.69-.503.698.503-.263-.818.698-.51h-.863z"/>
    <path fill="#F0F0F0" d="M8.535 5.255l-.263-.825-.27.825h-.855l.69.502-.262.818.697-.503.698.503-.27-.818.697-.502h-.862z"/>
    <path fill="#F0F0F0" d="M10.005 6.717l-.27-.817-.263.817H8.61l.697.51-.27.818.698-.51.697.51-.27-.825.698-.503h-.855z"/>
    <path fill="#F0F0F0" d="M11.467 8.188l-.27-.825-.262.825h-.863l.698.502-.262.818.697-.503.69.503-.262-.818.697-.51-.863.008z"/>
    <path fill="#F0F0F0" d="M12.93 9.65l-.263-.817-.27.817h-.862l.697.502-.262.818.697-.503.698.503-.27-.818.697-.502h-.862z"/>
    <path fill="#F0F0F0" d="M14.4 11.113l-.27-.818-.262.818h-.863l.698.51-.27.817.697-.51.698.51-.263-.817.69-.51H14.4z"/>
    <path fill="#F0F0F0" d="M15.863 12.583l-.27-.825-.263.825h-.863l.698.502-.262.818.697-.503.69.503-.262-.818.697-.502h-.863z"/>
    <path fill="#F0F0F0" d="M17.325 14.045l-.262-.818-.27.818h-.855l.69.502-.263.825.698-.51.697.503-.27-.818.698-.502h-.863z"/>
    <path fill="#F0F0F0" d="M18.525 14.69l-.263.818H17.4l.675.495h.9l.675-.495h-.855l-.27-.818z"/>
  </g>
  <defs>
    <clipPath id="clip0">
      <path fill="#fff" d="M0 0h24v16H0z"/>
    </clipPath>
  </defs>
</svg>
