<svg xmlns="http://www.w3.org/2000/svg" width="24" height="16" fill="none" viewBox="0 0 24 16">
  <g clip-path="url(#clip0)">
    <path fill="#D80027" d="M24-.003H0v15.998h24V-.003z"/>
    <path fill="#6DA544" d="M10.117 8L0 14.75V1.258L10.117 8zM24 1.258V14.75L13.883 8 24 1.258z"/>
    <path fill="#0052B4" d="M24 1.257L13.883 8 24 14.742v1.26h-1.883L12 9.252l-10.117 6.75H0v-1.26L10.117 8 0 1.257v-1.26h1.883L12 6.747l10.117-6.75H24v1.26z"/>
    <path fill="#F0F0F0" d="M24 1.257L13.883 8 24 14.742v1.26h-1.883L12 9.252l-10.117 6.75H0v-1.26L10.117 8 0 1.257v-1.26h1.883L12 6.747l10.117-6.75H24v1.26z"/>
    <path fill="#F0F0F0" d="M12 11.48a3.48 3.48 0 100-6.96 3.48 3.48 0 000 6.96z"/>
    <path fill="#D80027" d="M12 5.563l.3.525h.6l-.3.517.3.525h-.6l-.3.525-.3-.525h-.607l.307-.525-.308-.518h.608l.3-.524zM10.47 8l.3.525h.6l-.3.518.3.525h-.6l-.3.517-.3-.518h-.607l.3-.524-.3-.518h.607l.3-.525zm3.06 0l.3.525h.607l-.307.518.307.525h-.607l-.3.517-.3-.518h-.6l.3-.524-.3-.518h.6l.3-.525z"/>
  </g>
  <defs>
    <clipPath id="clip0">
      <path fill="#fff" d="M0 0h24v16H0z"/>
    </clipPath>
  </defs>
</svg>
