<svg xmlns="http://www.w3.org/2000/svg" width="24" height="16" fill="none" viewBox="0 0 24 16">
  <g clip-path="url(#clip0)">
    <path fill="#F0F0F0" d="M24-.003H0v15.998h24V-.003z"/>
    <path fill="#ACABB1" d="M18.285 6.433h-2.632a.87.87 0 00-.87-.87l-.698 1.394.75 2.086h.84a.87.87 0 00.87-.87.87.87 0 00.87-.87.9.9 0 00.87-.87zm-12.57 0h2.633a.87.87 0 01.87-.87l.697 1.394-.75 2.086h-.84a.87.87 0 01-.87-.87.87.87 0 01-.87-.87.9.9 0 01-.87-.87z"/>
    <path fill="#FFDA44" d="M14.783 11.128v.352H9.218v-.352H7.83v1.395h1.388v.345h5.565v-.345h1.395v-1.395h-1.395z"/>
    <path fill="#0052B4" d="M9.218 5.563v3.48c0 2.13 2.782 2.782 2.782 2.782s2.783-.652 2.783-2.782v-3.48L12 5.218l-2.782.345z"/>
    <path fill="#D80027" d="M14.783 6.958H9.218v2.085h5.565V6.958z"/>
    <path fill="#FFDA44" d="M13.395 3.823v.525l-.352.172-.345-.345V3.133h-1.396v1.042l-.345.345-.352-.172v-.525H9.218v1.74h5.565v-1.74h-1.388z"/>
  </g>
  <defs>
    <clipPath id="clip0">
      <path fill="#fff" d="M0 0h24v16H0z"/>
    </clipPath>
  </defs>
</svg>
