<svg xmlns="http://www.w3.org/2000/svg" width="24" height="16" fill="none" viewBox="0 0 24 16">
  <g clip-path="url(#clip0)">
    <path fill="#FFDA44" d="M24-.003H0v15.998h24V-.003z"/>
    <path fill="#000" d="M0 5.33l24 9.713v-2.19L12.81 8.426 0 3.147V5.33z"/>
    <path fill="#F0F0F0" d="M24 12.852V10.67L0 .958v2.19"/>
    <path fill="#D80027" d="M14.25 7.13a2.25 2.25 0 11-4.23-1.072A2.753 2.753 0 009.218 8a2.782 2.782 0 105.565 0 2.752 2.752 0 00-.795-1.942c.175.33.265.699.262 1.072z"/>
    <path fill="#D80027" d="M12.525 4.52h-1.043v5.22h1.043V4.52z"/>
    <path fill="#D80027" d="M13.74 5.563h-3.48a.45.45 0 00.45.434.435.435 0 00.435.436.436.436 0 00.435.434h.87a.435.435 0 00.435-.434.435.435 0 00.435-.436.45.45 0 00.42-.434zm.69 4.522H9.563v1.042h4.867v-1.042z"/>
    <path fill="#D80027" d="M15.128 10.438h-2.085v1.042h2.085v-1.043zm-4.17 0H8.873v1.042h2.085v-1.043z"/>
  </g>
  <defs>
    <clipPath id="clip0">
      <path fill="#fff" d="M0 0h24v16H0z"/>
    </clipPath>
  </defs>
</svg>
