<svg width="24" height="16" viewBox="0 0 24 16" fill="none" xmlns="http://www.w3.org/2000/svg">
    <g clip-path="url(#clip0_13761_68315)">
        <path d="M24 -0.00244141H0V15.9951H24V-0.00244141Z" fill="#FFDA44" />
        <path d="M24 -0.00244141H0V5.33006H24V-0.00244141Z" fill="#D80027" />
        <path d="M24 10.6625H0V15.995H24V10.6625Z" fill="#6DA544" />
        <path
            d="M10.4152 6.87463L9.80842 7.17463C9.80842 7.17463 9.57209 8.89561 9.98899 9.29963C10.4059 9.70364 10.8752 9.87502 12.0002 9.50002L12.2902 8.8326L11.2502 9.12502C10.8736 9.12502 10.4152 9.29963 10.4152 8.48713C10.4152 7.67463 10.4152 6.87463 10.4152 6.87463Z"
            fill="#D80027"
        />
        <path
            d="M13.5765 6.87463L14.1833 7.17463C14.1833 7.17463 14.4196 8.89561 14.0027 9.29963C13.5858 9.70364 13.1165 9.87502 11.9915 9.50002L11.7015 8.8326L12.7415 9.12502C13.1181 9.12502 13.5765 9.29963 13.5765 8.48713C13.5765 7.67463 13.5765 6.87463 13.5765 6.87463Z"
            fill="#D80027"
        />
        <path
            d="M12.0072 9.8654C11.6605 9.86396 11.3284 9.72558 11.0832 9.48041C10.8381 9.23524 10.6997 8.90313 10.6982 8.55641V7.76773C10.6982 7.42056 10.8362 7.08762 11.0816 6.84213C11.3271 6.59665 11.6601 6.45874 12.0072 6.45874C12.3544 6.45874 12.6873 6.59665 12.9328 6.84213C13.1783 7.08762 13.3162 7.42056 13.3162 7.76773V8.55641C13.3148 8.90313 13.1764 9.23524 12.9312 9.48041C12.6861 9.72558 12.354 9.86396 12.0072 9.8654Z"
            fill="#338AF3"
        />
        <path
            d="M12.0067 9.43076C11.7485 9.42968 11.5011 9.32662 11.3185 9.144C11.1359 8.96139 11.0328 8.71401 11.0317 8.45576V7.86831C11.0317 7.60972 11.1345 7.36173 11.3173 7.17888C11.5002 6.99603 11.7482 6.89331 12.0067 6.89331C12.2653 6.89331 12.5133 6.99603 12.6962 7.17888C12.879 7.36173 12.9817 7.60972 12.9817 7.86831V8.45576C12.9807 8.71401 12.8776 8.96139 12.695 9.144C12.5124 9.32662 12.265 9.42968 12.0067 9.43076Z"
            fill="#FFDA44"
        />
        <path
            fill-rule="evenodd"
            clip-rule="evenodd"
            d="M11.3186 9.14393C11.5013 9.32655 11.7486 9.42962 12.0069 9.43069C12.2651 9.42962 12.5125 9.32655 12.6951 9.14393C12.8726 8.96651 12.9749 8.72795 12.9815 8.47768L12.0071 7.85791L11.0322 8.47792C11.0389 8.7281 11.1413 8.96656 11.3186 9.14393Z"
            fill="#6DA544"
        />
        <path
            d="M13.58 6.27577H12.4175C12.4354 6.21455 12.4388 6.15002 12.4273 6.08728C12.4159 6.02454 12.3901 5.96532 12.3518 5.9143C12.3136 5.86329 12.2639 5.82188 12.2069 5.79336C12.1499 5.76485 12.087 5.75 12.0232 5.75C11.9594 5.75 11.8966 5.76485 11.8395 5.79336C11.7825 5.82188 11.7329 5.86329 11.6946 5.9143C11.6564 5.96532 11.6305 6.02454 11.6191 6.08728C11.6077 6.15002 11.611 6.21455 11.6289 6.27577H10.4336C10.4389 6.38111 10.4845 6.48038 10.5609 6.55303C10.6374 6.62567 10.7389 6.66612 10.8443 6.66598C10.8443 6.77492 10.8876 6.8794 10.9647 6.95643C11.0417 7.03346 11.1462 7.07674 11.2551 7.07674C11.255 7.18221 11.2954 7.28369 11.3681 7.36016C11.4407 7.43663 11.54 7.48222 11.6453 7.48749H12.4175C12.5229 7.48222 12.6222 7.43663 12.6948 7.36016C12.7674 7.28369 12.8079 7.18221 12.8078 7.07674C12.9167 7.07674 13.0212 7.03346 13.0982 6.95643C13.1752 6.8794 13.2185 6.77492 13.2185 6.66598C13.3153 6.65438 13.4047 6.60877 13.4709 6.53728C13.5372 6.4658 13.5758 6.37311 13.58 6.27577Z"
            fill="black"
        />
    </g>
    <defs>
        <clipPath id="clip0_13761_68315">
            <rect width="24" height="16" fill="white" />
        </clipPath>
    </defs>
</svg>
