<svg xmlns="http://www.w3.org/2000/svg" width="24" height="16" fill="none" viewBox="0 0 24 16">
  <g clip-path="url(#clip0)">
    <path fill="#F0F0F0" d="M24-.003H0v15.998h24V-.003z"/>
    <path fill="#0052B4" d="M0 16.002h24V-.003L0 16.002z"/>
    <path fill="#FFDA44" d="M11.738-.003H0v7.83l11.738-7.83z"/>
    <path fill="#000" d="M6.405 8.75a1.395 1.395 0 111.29-.86 1.388 1.388 0 01-1.29.86zm2.407-1.02l.69-.375-.69-.375A2.437 2.437 0 006.75 4.947l-.345-.697-.368.69a2.437 2.437 0 00-2.032 2.032l-.69.375.69.375a2.43 2.43 0 002.032 2.033l.368.69.375-.69A2.43 2.43 0 008.812 7.73z"/>
    <path fill="#D80027" d="M6.405 6.313l.308.525h.6l-.3.517.3.525h-.6l-.308.518-.3-.518h-.6l.3-.525-.3-.518h.6l.3-.524z"/>
  </g>
  <defs>
    <clipPath id="clip0">
      <path fill="#fff" d="M0 0h24v16H0z"/>
    </clipPath>
  </defs>
</svg>
