<svg xmlns="http://www.w3.org/2000/svg" width="24" height="16" fill="none" viewBox="0 0 24 16">
  <path fill="#6DA544" d="M24 .012H.022v15.983H24V.012z"/>
  <path fill="#A2001D" d="M0 10.783h23.97V.005H0"/>
  <path fill="#F0F0F0" d="M4.688 10.783V.005H0v15.99h23.97H4.688v-5.212z"/>
  <path fill="#A2001D" d="M3.217 7.423l-.87-1.575.87-1.553.863 1.553-.863 1.575zm-1.74 0l-.87-1.575.87-1.553.87 1.553-.87 1.575zm1.74 4.282l-.87-1.575.87-1.552.863 1.552-.863 1.575zm-1.74 0l-.87-1.575.87-1.552.87 1.552-.87 1.575zm1.74 4.29l-.87-1.582.87-1.546.863 1.545-.863 1.583zm-1.74 0l-.87-1.582.87-1.546.87 1.545-.87 1.583zm1.74-12.862l-.87-1.575.87-1.553.863 1.553-.863 1.574zm-1.74 0l-.87-1.575.87-1.553.87 1.553-.87 1.574z"/>
</svg>
