<svg xmlns="http://www.w3.org/2000/svg" width="24" height="16" fill="none" viewBox="0 0 24 16">
  <g clip-path="url(#clip0)">
    <path fill="#0052B4" d="M24-.003H0v15.998h24V-.003z"/>
    <path fill="#F0F0F0" d="M12 11.825a3.826 3.826 0 100-7.651 3.826 3.826 0 000 7.651z"/>
    <path fill="#6DA544" d="M12 11.127a3.128 3.128 0 100-6.256 3.128 3.128 0 000 6.256z"/>
    <path fill="#F0F0F0" d="M12 10.085a2.085 2.085 0 100-4.17 2.085 2.085 0 000 4.17z"/>
    <path fill="#0052B4" d="M12 7.475L10.867 8v.87L12 9.568l1.132-.698V8L12 7.475z"/>
    <path fill="#FFDA44" d="M13.125 6.958h-2.258V8h2.258V6.958z"/>
    <path fill="#A2001D" d="M24-.003H0v1.388h24V-.003zm0 14.61H0v1.395h24v-1.395z"/>
  </g>
  <defs>
    <clipPath id="clip0">
      <path fill="#fff" d="M0 0h24v16H0z"/>
    </clipPath>
  </defs>
</svg>
