<svg xmlns="http://www.w3.org/2000/svg" width="24" height="16" fill="none" viewBox="0 0 24 16">
  <g clip-path="url(#clip0)">
    <path fill="#F0F0F0" d="M24-.003H0v15.998h24V-.003z"/>
    <path fill="#D80027" d="M8.002-.003H0v15.998h8.002V-.003zM24-.003h-8.002v15.998H24V-.003zM13.5 9.11l1.5-.75-.75-.375v-.75l-1.5.75.75-1.5h-.75L12 5.36l-.75 1.125h-.75l.75 1.5-1.5-.75v.75L9 8.36l1.5.75-.375.75h1.5v1.125h.75V9.86h1.5l-.375-.75z"/>
  </g>
  <defs>
    <clipPath id="clip0">
      <path fill="#fff" d="M0 0h24v16H0z"/>
    </clipPath>
  </defs>
</svg>
