<svg xmlns="http://www.w3.org/2000/svg" width="24" height="16" fill="none" viewBox="0 0 24 16">
  <g clip-path="url(#clip0)">
    <path fill="#D80027" d="M24-.003H0v15.998h24V-.003z"/>
    <path fill="#6DA544" d="M9.915 8H0v3.998h9.915V8zM24 8h-9.915v3.998H24V8z"/>
    <path fill="#0052B4" d="M0-.003v4.005h9.915V-.003h4.17v4.005H24V-.003H0z"/>
    <path fill="#F0F0F0" d="M24 4.003h-9.915V8H24V4.003zm-14.085 0H0V8h9.915V4.003z"/>
    <path fill="#FFDA44" d="M14.085 16.003h-4.17v-4.005H0v4.005h24v-4.005h-9.915v4.005zM5.61 1.22l.217.66h.698l-.563.412.21.668-.562-.413-.563.413.21-.668-.562-.412h.697l.218-.66z"/>
  </g>
  <defs>
    <clipPath id="clip0">
      <path fill="#fff" d="M0 0h24v16H0z"/>
    </clipPath>
  </defs>
</svg>
