<svg xmlns="http://www.w3.org/2000/svg" width="24" height="16" fill="none" viewBox="0 0 24 16">
  <g clip-path="url(#clip0)">
    <path fill="#0052B4" d="M24-.003H0v15.998h24V-.003z"/>
    <path fill="#F0F0F0" d="M18 3.342l.247.765h.803l-.652.473.247.757L18 4.872l-.645.465.24-.757-.645-.473h.803L18 3.342zm-3.293 1.365l.713.368.57-.57-.127.795.712.36-.787.127-.128.788-.36-.713-.795.128.57-.57-.367-.713zM13.342 8l.765-.248V6.95l.473.652.758-.247-.465.645.465.645-.758-.248-.473.653v-.803L13.344 8zm1.365 3.292l.368-.712-.57-.57.795.127.36-.712.127.787.788.128-.712.36.127.795-.57-.57-.713.367zM18 12.65l-.247-.758h-.803l.645-.472-.24-.758.645.465.645-.465-.247.758.652.472h-.803L18 12.65zm3.293-1.358l-.713-.367-.57.57.127-.795-.712-.36.787-.128.128-.787.36.712.795-.127-.57.57.367.712zM22.657 8l-.765.247v.803l-.472-.653-.758.248.473-.645-.473-.645.758.247.472-.652v.802l.765.248zm-1.364-3.293l-.368.713.57.57-.795-.128-.36.713-.128-.788-.787-.127.712-.36-.127-.795.57.57.713-.368zM4.5 8H1.058L4.5 5.705V8zM0 4.752v.75h2.16L0 6.942v.353l2.692-1.793H3.75L0 8h5.25V4.752H0zM7.5-.003h3.443L7.5 2.292V-.003zm.75 2.505L12-.003H6.75v3.255H12v-.75H9.84L12 1.062V.71L9.307 2.502H8.25zM7.5 5.705L10.943 8H7.5V5.705zM6.75 8H12L8.25 5.502h1.057L12 7.295v-.353l-2.16-1.44H12v-.75H6.75V8zM4.5 2.292L1.058-.003H4.5v2.295zm.75-2.295H0l3.75 2.505H2.692L0 .71v.352l2.16 1.44H0v.75h5.25V-.003z"/>
    <path fill="#D80027" d="M6.75-.003h-1.5v3.255H0v1.5h5.25V8h1.5V4.752H12v-1.5H6.75V-.003z"/>
    <path fill="#D80027" d="M3.75 2.502L0-.003V.71l2.692 1.792H3.75zm4.5 0h1.057L12 .71v-.713L8.25 2.502zm-5.558 3L0 7.295V8l3.75-2.498H2.692zm5.558 0L12 8v-.705L9.307 5.502H8.25z"/>
  </g>
  <defs>
    <clipPath id="clip0">
      <path fill="#fff" d="M0 0h24v16H0z"/>
    </clipPath>
  </defs>
</svg>
