<svg xmlns="http://www.w3.org/2000/svg" width="24" height="16" fill="none" viewBox="0 0 24 16">
  <g clip-path="url(#clip0)">
    <path fill="#D80027" d="M24-.003H0v15.998h24V-.003z"/>
    <path fill="#FFDA44" d="M8.385 4.888l.69 2.115h2.22l-1.8 1.305.69 2.114-1.8-1.312-1.8 1.313.69-2.115-1.8-1.305h2.228l.682-2.115zm4.328 7.034l-.668-.495-.675.495.255-.795-.675-.495h.833l.262-.787.255.787h.833l-.675.495.255.795zM14.475 9.5h-.832l-.255.787-.263-.787h-.832l.675-.495-.255-.787.675.487.675-.487-.263.787.675.495zm0-3l-.675.495.263.788-.675-.488-.675.488.255-.788-.675-.495h.832l.263-.787.255.787h.832zm-1.762-2.422l-.255.795.675.487H12.3l-.262.795-.255-.795h-.833l.675-.487-.255-.795.668.495.675-.495z"/>
  </g>
  <defs>
    <clipPath id="clip0">
      <path fill="#fff" d="M0 0h24v16H0z"/>
    </clipPath>
  </defs>
</svg>
