<svg xmlns="http://www.w3.org/2000/svg" width="24" height="16" fill="none" viewBox="0 0 24 16">
  <g clip-path="url(#clip0)">
    <path fill="#0052B4" d="M24-.003H0v15.998h24V-.003z"/>
    <path fill="#D80027" d="M24 11.128H0v1.042h24v-1.042z"/>
    <path fill="#F0F0F0" d="M24 10.085H0v1.042h24v-1.042zm0 2.085H0v1.043h24V12.17z"/>
    <path fill="#FFDA44" d="M8.452 8.247l.143.435h.457l-.367.27.142.428-.375-.263-.367.263.142-.428-.367-.27h.457l.135-.435zm0 5.678l.143.427h.457l-.367.27.142.435-.375-.27-.367.27.142-.435-.367-.27h.457l.135-.427zm-2.64-1.92l.143.427h.457l-.375.27.143.435-.368-.27-.367.27.142-.435-.367-.27h.45l.142-.427zm1.013-3.188l.142.428h.45l-.367.27.142.435-.367-.27-.368.27.135-.435-.367-.27h.457l.143-.428zM5.22 10.602h.45l.142-.435.143.435h.457l-.375.263.143.435-.368-.263-.367.263.142-.435-.367-.263zm1.23 3.803l.142-.435-.367-.263h.457l.143-.435.135.435h.457l-.367.263.142.435-.367-.27-.375.27zm4.642-2.4l-.135.427H10.5l.367.27-.142.435.367-.27.375.27-.142-.435.368-.27h-.458l-.143-.427zm-1.005-3.188l-.142.428h-.458l.368.27-.135.435.367-.27.368.27-.143-.435.368-.27h-.45l-.143-.428zm1.606 1.785h-.458l-.143-.435-.135.435H10.5l.367.263-.142.435.367-.263.375.263-.142-.435.368-.263zm-1.238 3.803l-.143-.435.368-.263h-.45l-.143-.435-.142.435h-.458l.368.263-.135.435.367-.27.368.27z"/>
  </g>
  <defs>
    <clipPath id="clip0">
      <path fill="#fff" d="M0 0h24v16H0z"/>
    </clipPath>
  </defs>
</svg>
