<svg xmlns="http://www.w3.org/2000/svg" width="24" height="16" fill="none" viewBox="0 0 24 16">
  <g clip-path="url(#clip0)">
    <path fill="#496E2D" d="M24-.003H0v15.998h24V-.003z"/>
    <path fill="#000" d="M0 6.5v3h24v-3H0z"/>
    <path fill="#FFDA44" d="M24 6.5H0v.997h24V6.5z"/>
    <path fill="#F0F0F0" d="M24 8.503H0V9.5h24v-.997z"/>
    <path fill="#000" d="M13.5-.003h-3v15.998h3V-.003z"/>
    <path fill="#FFDA44" d="M11.498-.003H10.5v15.998h.998V-.003z"/>
    <path fill="#F0F0F0" d="M13.5-.003h-.998v15.998h.998V-.003z"/>
    <path fill="#D80027" d="M12 11.825a3.826 3.826 0 100-7.651 3.826 3.826 0 000 7.651z"/>
    <path fill="#496E2D" d="M12.87 8.427c-.285-.57-.652-1.147-.652-1.147v-.42a.428.428 0 00-.715-.315.42.42 0 00-.133.277.338.338 0 00-.135.638.48.48 0 01.285-.27.18.18 0 00.068.045h.052a3.7 3.7 0 00-.203.877A1.199 1.199 0 0012 9.275l-.285.285h.57v-.57l.285.285a.683.683 0 00.3-.848zM12 4.872l.127.398h.42l-.337.247.127.398L12 5.667l-.338.248.128-.398-.337-.247h.42L12 4.872zm-1.838.593l.338.247.338-.247-.128.397.337.248h-.42l-.127.405-.127-.405h-.42l.337-.248-.127-.397zm-1.14 1.567h.42l.128-.397.127.397h.42l-.337.248.127.397-.337-.247-.338.247.128-.397-.338-.248zm0 1.935l.338-.247-.128-.398.338.248.337-.248-.127.398.338.247h-.42l-.128.398-.128-.398h-.42zm1.14 1.568l.128-.398-.338-.247h.42l.128-.398.127.398h.42l-.337.247.127.398-.337-.248-.338.248zm1.838.6l-.127-.405h-.42l.337-.24-.127-.405.337.247.338-.247-.128.405.337.24h-.42l-.127.405zm1.838-.6l-.338-.248-.338.248.128-.398-.337-.247h.42l.127-.398.127.398h.42l-.337.247.127.398zm1.14-1.568h-.42l-.128.398-.127-.398h-.42l.337-.247-.128-.398.338.248.338-.248-.128.398.337.247zm0-1.935l-.338.248.127.397-.337-.247-.338.247.128-.397-.338-.248h.42l.128-.397.127.397h.42zm-1.14-1.567l-.128.397.337.248h-.42l-.127.405-.127-.405h-.42l.337-.248-.127-.397.337.247.338-.247z"/>
  </g>
  <defs>
    <clipPath id="clip0">
      <path fill="#fff" d="M0 0h24v16H0z"/>
    </clipPath>
  </defs>
</svg>
