<svg xmlns="http://www.w3.org/2000/svg" width="24" height="16" fill="none" viewBox="0 0 24 16">
  <g clip-path="url(#clip0)">
    <path fill="#F0F0F0" d="M24-.003H0v15.998h24V-.003z"/>
    <path fill="#D80027" d="M9.915 10.085H0v5.91h9.915v-5.91z"/>
    <path fill="#0052B4" d="M9.915-.003H0v5.91h9.915v-5.91z"/>
    <path fill="#D80027" d="M24-.003h-9.915v5.91H24v-5.91z"/>
    <path fill="#0052B4" d="M24 10.085h-9.915v5.91H24v-5.91z"/>
    <path fill="#496E2D" d="M14.085 8a2.085 2.085 0 11-4.17 0C9.915 6.845 12 5.915 12 5.915s2.085.93 2.085 2.085z"/>
    <path fill="#0052B4" d="M9.915 8a2.085 2.085 0 114.17 0"/>
    <path fill="#D80027" d="M10.822 6.958v1.305a1.178 1.178 0 002.356 0V6.958h-2.356z"/>
  </g>
  <defs>
    <clipPath id="clip0">
      <path fill="#fff" d="M0 0h24v16H0z"/>
    </clipPath>
  </defs>
</svg>
