<svg xmlns="http://www.w3.org/2000/svg" width="24" height="16" fill="none" viewBox="0 0 24 16">
  <g clip-path="url(#clip0)">
    <path fill="#496E2D" d="M24-.003H0v15.998h24V-.003z"/>
    <path fill="#F0F0F0" d="M24-.003H12v15.998h12V-.003z"/>
    <path fill="#D80027" d="M13.717 6.462l-.652.908L12 7.025l.66.9-.66.907 1.065-.345.66.908-.008-1.125 1.066-.345-1.066-.345V6.462z"/>
    <path fill="#D80027" d="M12.668 10.25a2.25 2.25 0 111.072-4.245 2.752 2.752 0 00-1.942-.795 2.782 2.782 0 000 5.565 2.753 2.753 0 001.942-.795 2.25 2.25 0 01-1.072.27z"/>
  </g>
  <defs>
    <clipPath id="clip0">
      <path fill="#fff" d="M0 0h24v16H0z"/>
    </clipPath>
  </defs>
</svg>
