<svg xmlns="http://www.w3.org/2000/svg" width="24" height="16" fill="none" viewBox="0 0 24 16">
  <g clip-path="url(#clip0)">
    <path fill="#FFDA44" d="M24-.003H0v15.998h24V-.003z"/>
    <path fill="#0052B4" d="M24 8H0v3.998h24V8z"/>
    <path fill="#D80027" d="M24 11.997H0v3.998h24v-3.998z"/>
    <path fill="#FFDA44" d="M12 10.783a2.78 2.78 0 002.57-3.848A2.783 2.783 0 1012 10.783z"/>
    <path fill="#338AF3" d="M12 9.845a1.8 1.8 0 01-1.793-1.793v-1.08a1.793 1.793 0 013.585 0v1.08A1.8 1.8 0 0112 9.845z"/>
    <path fill="#000" d="M14.872 3.747H12.75a.75.75 0 10-1.44 0H9.127a.75.75 0 00.75.713.75.75 0 00.75.75.75.75 0 00.713.75h1.41a.75.75 0 00.712-.75.75.75 0 00.75-.75.75.75 0 00.66-.713z"/>
  </g>
  <defs>
    <clipPath id="clip0">
      <path fill="#fff" d="M0 0h24v16H0z"/>
    </clipPath>
  </defs>
</svg>
