<svg xmlns="http://www.w3.org/2000/svg" width="24" height="16" fill="none" viewBox="0 0 24 16">
  <g clip-path="url(#clip0)">
    <path fill="#F0F0F0" d="M24-.003H0v15.998h24V-.003z"/>
    <path fill="#000" d="M24-.003H0V5.33h24V-.003z"/>
    <path fill="#496E2D" d="M24 10.663H0v5.332h24v-5.332z"/>
    <path fill="#D80027" d="M12 8L0 16.002V-.003L12 8zm2.332 0a1.95 1.95 0 011.5-1.905 2.572 2.572 0 00-.42-.045 1.952 1.952 0 00-.78 3.735 1.95 1.95 0 001.2.12A1.95 1.95 0 0114.332 8z"/>
    <path fill="#D80027" d="M15.945 6.747l.277.855h.893l-.728.525.278.848-.72-.525-.728.525.278-.848-.72-.525h.892l.278-.855z"/>
  </g>
  <defs>
    <clipPath id="clip0">
      <path fill="#fff" d="M0 0h24v16H0z"/>
    </clipPath>
  </defs>
</svg>
