<svg xmlns="http://www.w3.org/2000/svg" width="24" height="16" fill="none" viewBox="0 0 24 16">
  <g clip-path="url(#clip0)">
    <path fill="#FFDA44" d="M24-.003H0v15.998h24V-.003z"/>
    <path fill="#6DA544" d="M24-.003H0V5.33h24V-.003z"/>
    <path fill="#D80027" d="M24 10.67H0v5.333h24V10.67z"/>
    <path fill="#0052B4" d="M12 11.825a3.826 3.826 0 100-7.651 3.826 3.826 0 000 7.651z"/>
    <path fill="#FFDA44" d="M12 5.038l.69 2.122h2.235l-1.807 1.32.697 2.13L12 9.29l-1.815 1.32.698-2.13-1.808-1.32h2.235L12 5.038z"/>
    <path fill="#FFDA44" d="M14.753 8.525l-2.19-.705 1.357-1.868-.562-.405L12 7.407l-1.35-1.86-.57.405 1.358 1.868-2.19.705.217.667 2.19-.712v2.303h.69V8.48l2.198.712.21-.667z"/>
  </g>
  <defs>
    <clipPath id="clip0">
      <path fill="#fff" d="M0 0h24v16H0z"/>
    </clipPath>
  </defs>
</svg>
