<svg xmlns="http://www.w3.org/2000/svg" width="24" height="16" fill="none" viewBox="0 0 24 16">
  <g clip-path="url(#clip0)">
    <path fill="#2E52B2" d="M24-.003H0v15.998h24V-.003z"/>
    <path fill="#F0F0F0" d="M12-.003v1.065l-2.16 1.44H12v3H9.84L12 6.942V8h-1.057L7.5 5.705V8h-3V5.705L1.058 8H0V6.942l2.16-1.44H0v-3h2.16L0 1.062V-.003h1.058L4.5 2.292V-.003h3v2.295l3.443-2.295H12z"/>
    <path fill="#D80027" d="M6.75-.003h-1.5v3.255H0v1.5h5.25V8h1.5V4.752H12v-1.5H6.75V-.003z"/>
    <path fill="#D80027" d="M0-.003V.71l2.692 1.792H3.75L0-.003zm12 0V.71L9.307 2.502H8.25L12-.003z"/>
    <path fill="#D80027" d="M0-.003V.71l2.692 1.792H3.75L0-.003zm12 0V.71L9.307 2.502H8.25L12-.003zM0 8v-.705l2.692-1.793H3.75L0 8zm12 0v-.705L9.307 5.502H8.25L12 8z"/>
    <path fill="#F3F3F3" d="M15.563 5.75v2.775c0 1.86 2.437 2.43 2.437 2.43s2.438-.57 2.438-2.43V5.75L18 5.045l-2.438.705z"/>
    <path fill="#D80027" d="M20.438 5.915V4.872h-4.875v1.043h2.092V8h-2.093v.697h2.093V11a3.2 3.2 0 00.345.105 3.19 3.19 0 00.345-.105V8.675h2.093V8h-2.093V5.915h2.093z"/>
  </g>
  <defs>
    <clipPath id="clip0">
      <path fill="#fff" d="M0 0h24v16H0z"/>
    </clipPath>
  </defs>
</svg>
