<svg xmlns="http://www.w3.org/2000/svg" width="24" height="16" fill="none" viewBox="0 0 24 16">
  <g clip-path="url(#clip0)">
    <path fill="#0052B4" d="M24-.003H0v15.998h24V-.003z"/>
    <path fill="#FFDA44" d="M19.387 9.74v.345h-2.782V9.74h-1.043v1.387h.698v.353h3.48v-.353h.698V9.74h-1.05z"/>
    <path fill="#338AF3" d="M15.563 4.52v3.825c0 1.905 2.437 2.438 2.437 2.438s2.438-.57 2.438-2.438V4.52h-4.875z"/>
    <path fill="#F3F3F3" d="M18 7.377c-.608 0-.608.555-1.215.555-.608 0-.608-.555-1.223-.555v.975c.615 0 .615.555 1.223.555.607 0 .607-.555 1.215-.555.608 0 .608.555 1.215.555.608 0 .615-.555 1.223-.555v-.975c-.608 0-.608.555-1.223.555-.615 0-.607-.555-1.215-.555zm0-1.95c-.608 0-.608.555-1.215.555-.608 0-.608-.555-1.223-.555v.975c.615 0 .615.555 1.223.555.607 0 .607-.555 1.215-.555.608 0 .608.555 1.215.555.608 0 .615-.555 1.223-.555v-.975c-.608 0-.608.555-1.223.555-.615 0-.607-.555-1.215-.555z"/>
    <path fill="#F0F0F0" d="M12-.003V1.43L9.885 2.607H12V5.39H9.232L12 6.927V8h-1.252L7.305 6.087V8h-2.61V5.72L.6 8H0V6.567L2.115 5.39H0V2.607h2.768L0 1.07V-.003h1.252L4.696 1.91V-.003h2.61v2.28L11.4-.003h.6z"/>
    <path fill="#D80027" d="M6.75-.003h-1.5v3.255H0v1.5h5.25V8h1.5V4.752H12v-1.5H6.75V-.003z"/>
    <path fill="#0052B4" d="M7.305 5.39L12 8v-.735L8.632 5.39H7.305z"/>
    <path fill="#F0F0F0" d="M7.305 5.39L12 8v-.735L8.632 5.39H7.305z"/>
    <path fill="#D80027" d="M7.305 5.39L12 8v-.735L8.633 5.39H7.304zm-3.937 0L0 7.265V8l4.695-2.61H3.367z"/>
    <path fill="#0052B4" d="M4.695 2.607L0-.003V.74l3.368 1.867h1.327z"/>
    <path fill="#F0F0F0" d="M4.695 2.607L0-.003V.74l3.368 1.867h1.327z"/>
    <path fill="#D80027" d="M4.695 2.607L0-.003V.74l3.368 1.867h1.327zm3.938 0L12 .74v-.743l-4.695 2.61h1.328z"/>
  </g>
  <defs>
    <clipPath id="clip0">
      <path fill="#fff" d="M0 0h24v16H0z"/>
    </clipPath>
  </defs>
</svg>
