<svg xmlns="http://www.w3.org/2000/svg" width="24" height="16" fill="none" viewBox="0 0 24 16">
  <g clip-path="url(#clip0)">
    <path fill="#338AF3" d="M24-.003H0v15.998h24V-.003z"/>
    <path fill="#F0F0F0" d="M12 3.478l.345 1.065h1.117l-.9.652.338 1.065-.9-.66-.908.66.353-1.065-.908-.652h1.118L12 3.478zM7.478 8l1.065-.345V6.538l.66.907 1.057-.352L9.608 8l.652.9-1.057-.337-.66.9V8.345L7.478 8zM12 12.523l-.345-1.066h-1.117l.907-.66-.353-1.057.908.652.9-.652-.338 1.057.9.66h-1.117L12 12.524zM16.523 8l-1.066.345v1.118l-.652-.9-1.065.337.66-.9-.66-.907 1.065.352.652-.907v1.117L16.523 8z"/>
  </g>
  <defs>
    <clipPath id="clip0">
      <path fill="#fff" d="M0 0h24v16H0z"/>
    </clipPath>
  </defs>
</svg>
