<svg xmlns="http://www.w3.org/2000/svg" width="24" height="16" fill="none" viewBox="0 0 24 16">
  <g clip-path="url(#clip0)">
    <path fill="#A2001D" d="M24-.003H0v15.998h24V-.003z"/>
    <path fill="#496E2D" d="M12 8l-9.915 5.91V2.09L12 8z"/>
    <path fill="#FFDA44" d="M12 8l9.915 5.91H2.085L12 8zm9.915-5.91L12 8 2.085 2.09h19.83z"/>
    <path fill="#496E2D" d="M21.915 2.09v11.82L12 8l9.915-5.91z"/>
    <path fill="#FFDA44" d="M12 .485l.158.48h.502l-.405.292.15.48L12 1.445l-.405.292.15-.48-.405-.292h.502L12 .485zm-4.027 0l.157.48h.502l-.405.292.15.48-.405-.292-.405.292.158-.48-.412-.292h.502l.157-.48zm8.055 0l.157.48h.503l-.413.292.158.48-.405-.292-.405.292.15-.48-.405-.292h.502l.158-.48zM12 14.262l.158.48h.502l-.405.293.15.48-.405-.3-.405.3.15-.48-.405-.293h.502l.158-.48zm-4.027 0l.157.48h.502l-.405.293.15.48-.405-.3-.405.3.158-.48-.412-.293h.502l.157-.48zm8.055 0l.157.48h.503l-.413.293.158.48-.405-.3-.405.3.15-.48-.405-.293h.502l.158-.48z"/>
    <path fill="#A2001D" d="M12 9.778a1.778 1.778 0 100-3.556 1.778 1.778 0 000 3.556z"/>
    <path fill="#FFDA44" d="M12 6.223l.398 1.222h1.29l-1.043.765.398 1.223L12 8.675l-1.043.758.398-1.223-1.05-.765h1.297L12 6.223zM5.047 7.865a.698.698 0 01-1.177.75 2.483 2.483 0 01-.12-1.552 2.46 2.46 0 011.297.802z"/>
    <path fill="#A2001D" d="M4.642 8.877a.345.345 0 100-.69.345.345 0 000 .69z"/>
  </g>
  <defs>
    <clipPath id="clip0">
      <path fill="#fff" d="M0 0h24v16H0z"/>
    </clipPath>
  </defs>
</svg>
