<svg xmlns="http://www.w3.org/2000/svg" width="24" height="16" fill="none" viewBox="0 0 24 16">
  <g clip-path="url(#clip0)">
    <path fill="#F0F0F0" d="M24-.003H0v15.998h24V-.003z"/>
    <path fill="#D80027" d="M24 10.67H0v5.333h24V10.67zm-8.873-4.065V5.563h.353v-.69h-.697v.345h-.698v-.345h-.69v.69h.345v1.042h-.697v-2.43h.352v-.697h-.697v.345h-.353v-.345h-.69v.345h-.352v-.345h-.698v.697h.352v2.43h-.697V5.563h.345v-.69h-.69v.345h-.697v-.345H8.52v.69h.353v1.042h-.698v2.783h7.65V6.605h-.697z"/>
    <path fill="#FFDA44" d="M12 10.438a.353.353 0 11.345-.353.345.345 0 01-.345.352zm0-1.396a1.042 1.042 0 00-.345 2.026V12.5h-1.05v1.387h1.74v-2.82A1.042 1.042 0 0012 9.043z"/>
  </g>
  <defs>
    <clipPath id="clip0">
      <path fill="#fff" d="M0 0h24v16H0z"/>
    </clipPath>
  </defs>
</svg>
