<svg xmlns="http://www.w3.org/2000/svg" width="24" height="16" fill="none" viewBox="0 0 24 16">
  <g clip-path="url(#clip0)">
    <path fill="#040404" d="M24 5.6H0v10.395h24V5.6z"/>
    <path fill="#003087" d="M24-.003H0V5.6h24V-.003z"/>
    <path fill="#43B02A" d="M16.718 13.295L7.343 6.5l-.435.607 9.375 6.803.435-.615zM7.343 6.5a.375.375 0 00-.537.501.368.368 0 00.102.106l.435-.607zm8.94 7.41a.368.368 0 00.517-.09.36.36 0 00-.082-.518l-.435.608z"/>
    <path fill="#43B02A" d="M17.37 12.043L7.995 8.84l-.24.712 9.375 3.196.24-.705zM7.995 8.84a.376.376 0 10-.24.712l.24-.712zm9.135 3.908a.375.375 0 00.24-.705l-.24.705z"/>
    <path fill="#FEDD00" d="M12.375 13.947a3.375 3.375 0 100-6.75 3.375 3.375 0 000 6.75zM11.25 2.397c0-.442.338-1.597.75-1.597s.75 1.155.75 1.598c0 0-.24.75-.375 1.2-.172.615 0 1.597-.375 1.597s-.203-.982-.375-1.597c-.135-.473-.375-1.2-.375-1.2z"/>
    <path fill="#FEDD00" d="M12.248 4.04L12 5.075a.077.077 0 00.07.107.077.077 0 00.072-.047l.518-.885a.187.187 0 01.345.105.187.187 0 00.322.142l.255-.277a.375.375 0 00.06-.42l-.142-.383a.376.376 0 00-.338-.217h-.285a.375.375 0 00-.337.217l-.255.54-.037.083z"/>
    <path fill="#FEDD00" d="M11.752 4.04L12 5.075a.077.077 0 01-.041.101.077.077 0 01-.102-.041l-.517-.885a.188.188 0 00-.345.105.188.188 0 01-.323.143l-.255-.278a.39.39 0 01-.067-.42l.15-.382a.375.375 0 01.337-.218h.285a.375.375 0 01.338.218l.255.54.037.082zm6.81-1.642c0-.443.338-1.598.75-1.598.413 0 .75 1.155.75 1.598 0 0-.24.75-.375 1.2-.172.615 0 1.597-.375 1.597s-.202-.982-.375-1.597c-.127-.473-.375-1.2-.375-1.2z"/>
    <path fill="#FEDD00" d="M19.56 4.04l-.24 1.035a.075.075 0 00.055.09.075.075 0 00.08-.03l.518-.885a.187.187 0 01.345.105.187.187 0 00.322.142l.255-.277a.39.39 0 00.068-.42l-.165-.345a.367.367 0 00-.338-.218h-.285a.375.375 0 00-.337.218l-.248.54a.265.265 0 00-.03.045z"/>
    <path fill="#FEDD00" d="M19.072 4.04l.24 1.035a.075.075 0 01-.135.06l-.525-.885a.187.187 0 00-.345.105.187.187 0 01-.315.143l-.262-.278a.375.375 0 01-.06-.42l.157-.345a.376.376 0 01.338-.217h.285a.368.368 0 01.337.217l.255.54s.023.015.03.045zM3.93 2.398c0-.443.337-1.598.75-1.598.412 0 .75 1.155.75 1.598 0 0-.24.75-.375 1.2-.173.615 0 1.597-.375 1.597s-.18-.945-.375-1.597c-.128-.473-.375-1.2-.375-1.2z"/>
    <path fill="#FEDD00" d="M4.928 4.04l-.24 1.035a.075.075 0 00.135.06l.517-.885a.187.187 0 01.345.105.187.187 0 00.323.142l.255-.277a.39.39 0 00.067-.42l-.165-.345a.368.368 0 00-.337-.218h-.285a.375.375 0 00-.338.218l-.247.54a.269.269 0 00-.03.045z"/>
    <path fill="#FEDD00" d="M4.44 4.04l.24 1.035a.075.075 0 01-.135.06L4.02 4.25a.188.188 0 00-.345.105.188.188 0 01-.315.142l-.263-.277a.375.375 0 01-.06-.42l.158-.345a.375.375 0 01.337-.218h.285a.367.367 0 01.338.218l.255.54s.022.015.03.045z"/>
  </g>
  <defs>
    <clipPath id="clip0">
      <path fill="#fff" d="M0 0h24v16H0z"/>
    </clipPath>
  </defs>
</svg>
