<svg xmlns="http://www.w3.org/2000/svg" width="24" height="16" fill="none" viewBox="0 0 24 16">
  <g clip-path="url(#clip0)">
    <path fill="#F0F0F0" d="M24-.003H0v15.998h24V-.003z"/>
    <path fill="#6DA544" d="M24-.003H0V5.33h24V-.003z"/>
    <path fill="#D80027" d="M24 10.662H0v5.333h24v-5.332z"/>
    <path fill="#0052B4" d="M12 8L0 16.003V-.003L12 8z"/>
    <path fill="#DEDDE0" d="M13.117 6.297v2.085c0 1.275 1.665 1.665 1.665 1.665s1.665-.39 1.665-1.665V6.297h-3.33z"/>
    <path fill="#786145" d="M15.202 8.008h-.832v1.207h.832V8.008z"/>
    <path fill="#6DA544" d="M15.615 7.55a.833.833 0 10-1.665 0 .42.42 0 100 .832h1.665a.42.42 0 100-.832z"/>
  </g>
  <defs>
    <clipPath id="clip0">
      <path fill="#fff" d="M0 0h24v16H0z"/>
    </clipPath>
  </defs>
</svg>
