<svg xmlns="http://www.w3.org/2000/svg" width="24" height="16" fill="none" viewBox="0 0 24 16">
  <g clip-path="url(#clip0)">
    <path fill="#F0F0F0" d="M24-.003H0v15.998h24V-.003z"/>
    <path fill="#338AF3" d="M8.002-.003H0v15.998h8.002V-.003zM24-.003h-8.002v15.998H24V-.003z"/>
    <path fill="#ACABB1" d="M14.25 9.44l-1.455-1.455 1.387-1.388-.06-.735-.397-.397L12 7.19l-1.725-1.725-.398.397-.06.735 1.388 1.388L9.742 9.44l.795.795L12 8.78l1.455 1.455.795-.795z"/>
    <path fill="#6DA544" d="M14.123 5.863l-.795.795a1.874 1.874 0 11-2.655 0l-.796-.795a3 3 0 104.245 0z"/>
  </g>
  <defs>
    <clipPath id="clip0">
      <path fill="#fff" d="M0 0h24v16H0z"/>
    </clipPath>
  </defs>
</svg>
