<svg xmlns="http://www.w3.org/2000/svg" width="24" height="16" fill="none" viewBox="0 0 24 16">
  <g clip-path="url(#clip0)">
    <path fill="#D80027" d="M24-.003H0v15.998h24V-.003z"/>
    <path fill="#F0F0F0" d="M12.825 6.05c-.18.75-.502.615-.66 1.275a1.74 1.74 0 11.81-3.382c-.315 1.32.015 1.432-.15 2.107zm-2.422.563c.66.405.427.667 1.005 1.02a1.753 1.753 0 01-3-1.815c1.192.682 1.402.427 1.995.795zm-.218 2.475c.592-.503.75-.195 1.282-.638a1.741 1.741 0 11-2.64 2.25c1.028-.87.833-1.155 1.358-1.612zm2.295.975c-.3-.75.045-.795-.218-1.418a1.74 1.74 0 011.335 3.21c-.517-1.253-.847-1.148-1.117-1.793zm1.627-1.883c-.75.068-.75-.285-1.417-.232a1.742 1.742 0 113.473-.278c-1.358.113-1.366.458-2.056.51z"/>
  </g>
  <defs>
    <clipPath id="clip0">
      <path fill="#fff" d="M0 0h24v16H0z"/>
    </clipPath>
  </defs>
</svg>
