<svg xmlns="http://www.w3.org/2000/svg" width="24" height="16" fill="none" viewBox="0 0 24 16">
  <g clip-path="url(#clip0)">
    <path fill="#F0F0F0" d="M24-.003H0v15.998h24V-.003z"/>
    <path fill="#338AF3" d="M24-.003H0V5.33h24V-.003zm0 10.673H0v5.333h24V10.67zM9.54 5.773l.203.637h.675l-.54.397.202.638-.54-.397-.547.397.21-.638-.54-.397h.667l.21-.638zm0 2.782l.203.638h.675l-.54.397.202.637-.54-.397-.547.397.21-.637-.54-.397h.667l.21-.638zm4.92-2.782l.21.637h.668l-.54.397.202.638-.54-.397-.54.397.21-.638-.548-.397h.668l.21-.638zm0 2.782l.21.638h.668l-.54.397.202.637-.54-.397-.54.397.21-.637-.548-.397h.668l.21-.638zM12 7.168l.21.637h.667l-.54.39.203.637-.54-.39-.54.39.202-.637-.54-.39h.668l.21-.637z"/>
  </g>
  <defs>
    <clipPath id="clip0">
      <path fill="#fff" d="M0 0h24v16H0z"/>
    </clipPath>
  </defs>
</svg>
