<svg xmlns="http://www.w3.org/2000/svg" width="24" height="16" fill="none" viewBox="0 0 24 16">
  <g clip-path="url(#clip0)">
    <path fill="#A2001D" d="M24-.003H0v15.998h24V-.003z"/>
    <path fill="#0052B4" d="M24-.003v7.816L0 8.008v-8.01h24z"/>
    <path fill="#F0F0F0" d="M14.783 10.085L12 9.74l-2.782.345v-4.17h5.565v4.17z"/>
    <path fill="#0052B4" d="M12 9.74a1.395 1.395 0 100-2.79 1.395 1.395 0 000 2.79z"/>
    <path fill="#A2001D" d="M12 9.043a.697.697 0 100-1.395.697.697 0 000 1.395z"/>
    <path fill="#6DA544" d="M10.957 6.613h2.085L12 7.655l-1.043-1.042z"/>
    <path fill="#FFDA44" d="M12.352 7.302h-.697v2.085h.697V7.302z"/>
    <path fill="#6DA544" d="M13.11 9.185h-2.22l-1.672.9h5.565l-1.673-.9z"/>
  </g>
  <defs>
    <clipPath id="clip0">
      <path fill="#fff" d="M0 0h24v16H0z"/>
    </clipPath>
  </defs>
</svg>
