<svg xmlns="http://www.w3.org/2000/svg" width="24" height="16" fill="none" viewBox="0 0 24 16">
  <g clip-path="url(#clip0)">
    <path fill="#F0F0F0" d="M24-.003H0v15.998h24V-.003z"/>
    <path fill="#2E52B2" d="M13.387 6.935h.458l-.232.397-.226-.397zm.458 2.13h-.458l.226-.397.232.397zM12 10.13l-.225-.398h.45L12 10.13zm-1.845-1.065l.232-.397.226.397h-.458zm0-2.13h.458l-.226.397-.232-.397zM12 5.87l.225.397h-.45L12 5.87zM13.23 8l-.615 1.065h-1.23L10.77 8l.615-1.065h1.23L13.23 8zM15 6.268h-2.002L12 4.534l-.998 1.732H9L9.998 8 9 9.732h2.002L12 11.466l.998-1.732H15L14.002 8 15 6.268zm9-5.266H0v2.003h24V1.003zm0 12H0v2.003h24v-2.003z"/>
  </g>
  <defs>
    <clipPath id="clip0">
      <path fill="#fff" d="M0 0h24v16H0z"/>
    </clipPath>
  </defs>
</svg>
