<svg xmlns="http://www.w3.org/2000/svg" width="24" height="16" fill="none" viewBox="0 0 24 16">
  <g clip-path="url(#clip0)">
    <path fill="#F0F0F0" d="M24-.003H0v15.998h24V-.003z"/>
    <path fill="#FF9811" d="M24-.003H0V5.33h24V-.003z"/>
    <path fill="#6DA544" d="M24 10.662H0v5.333h24v-5.332z"/>
    <path fill="#0052B4" d="M12 10.055a2.055 2.055 0 100-4.11 2.055 2.055 0 000 4.11z"/>
    <path fill="#F0F0F0" d="M12 9.282a1.282 1.282 0 100-2.564 1.282 1.282 0 000 2.564z"/>
    <path fill="#0052B4" d="M12 6.41l.397.9.975-.105-.577.795.577.795-.975-.105-.397.893-.398-.893-.975.105.578-.795-.578-.795.975.105.398-.9z"/>
  </g>
  <defs>
    <clipPath id="clip0">
      <path fill="#fff" d="M0 0h24v16H0z"/>
    </clipPath>
  </defs>
</svg>
