<svg xmlns="http://www.w3.org/2000/svg" width="24" height="16" fill="none" viewBox="0 0 24 16">
  <g clip-path="url(#clip0)">
    <path fill="#F0F0F0" d="M24-.003H0v15.998h24V-.003z"/>
    <path fill="#A2001D" d="M24-.003H0V5.33h24V-.003z"/>
    <path fill="#000" d="M24 10.67H0v5.333h24V10.67z"/>
    <path fill="#496E2D" d="M10.275 7.535H8.903a.615.615 0 01.6-.465v-.93A1.553 1.553 0 007.95 7.693v.75h2.325a.157.157 0 01.158.157v.308H7.328v.93h4.035V8.623a1.087 1.087 0 00-1.088-1.088zM12.6 8.93V6.14h-.93v3.72h1.553v-.93H12.6zm3.105 0V6.14h-.93v2.79h-.307V8h-.93v1.86h2.79v-.93h-.623z"/>
  </g>
  <defs>
    <clipPath id="clip0">
      <path fill="#fff" d="M0 0h24v16H0z"/>
    </clipPath>
  </defs>
</svg>
