<svg xmlns="http://www.w3.org/2000/svg" width="24" height="16" fill="none" viewBox="0 0 24 16">
  <g clip-path="url(#clip0)">
    <path fill="#F0F0F0" d="M24-.003H0v15.998h24V-.003z"/>
    <path fill="#6DA544" d="M24-.003H0V5.33h24V-.003z"/>
    <path fill="#D80027" d="M24 10.67H0v5.333h24V10.67zm-9.922-4.342h-.84v.277c.01.579-.138 1.15-.428 1.65a1.5 1.5 0 01-.405.443v-2.37h-.825v2.37a1.5 1.5 0 01-.405-.443 3.173 3.173 0 01-.428-1.65v-.277h-.825v.277c0 1.718.915 3.068 2.085 3.068s2.085-1.35 2.085-3.068c-.007-.105-.007-.18-.014-.277z"/>
    <path fill="#F0F0F0" d="M3.127 4.64H2.085v1.148h1.042V4.64zm-2.084 0H0v1.148h1.042V4.64zm4.177 0H4.178v1.148H5.22V4.64zm2.085 0H6.263v1.148h1.042V4.64zm2.085 0H8.347v1.148H9.39V4.64zm2.085 0h-1.043v1.148h1.043V4.64zm2.085 0h-1.043v1.148h1.043V4.64zm2.092 0H14.61v1.148h1.043V4.64zm2.086 0h-1.043v1.148h1.043V4.64zm2.085 0H18.78v1.148h1.043V4.64zm2.092 0h-1.043v1.148h1.043V4.64zm2.085 0h-1.043v1.148H24V4.64zM3.128 10.168H2.085v1.2h1.042v-1.2zm-2.086 0H0v1.2h1.042v-1.2zm4.178 0H4.178v1.2H5.22v-1.2zm2.085 0H6.263v1.2h1.042v-1.2zm2.085 0H8.347v1.2H9.39v-1.2zm2.085 0h-1.043v1.2h1.043v-1.2zm2.085 0h-1.043v1.2h1.043v-1.2zm2.092 0H14.61v1.2h1.043v-1.2zm2.086 0h-1.043v1.2h1.043v-1.2zm2.085 0H18.78v1.2h1.043v-1.2zm2.092 0h-1.043v1.2h1.043v-1.2zm2.085 0h-1.043v1.2H24v-1.2z"/>
  </g>
  <defs>
    <clipPath id="clip0">
      <path fill="#fff" d="M0 0h24v16H0z"/>
    </clipPath>
  </defs>
</svg>
