<svg xmlns="http://www.w3.org/2000/svg" width="24" height="16" fill="none" viewBox="0 0 24 16">
  <g clip-path="url(#clip0)">
    <path fill="#6DA544" d="M24-.003H0v15.998h24V-.003z"/>
    <path fill="#000" d="M10.117 8L0 14.742V1.258L10.117 8zM24 1.258v13.485L13.883 8 24 1.258z"/>
    <path fill="#0052B4" d="M24 1.258L13.883 8 24 14.75v1.253h-1.883L12 9.253l-10.117 6.75H0V14.75L10.117 8 0 1.258v-1.26h1.883L12 6.747l10.117-6.75H24v1.26z"/>
    <path fill="#FFDA44" d="M24 1.258L13.883 8 24 14.75v1.253h-1.883L12 9.253l-10.117 6.75H0V14.75L10.117 8 0 1.258v-1.26h1.883L12 6.747l10.117-6.75H24v1.26z"/>
  </g>
  <defs>
    <clipPath id="clip0">
      <path fill="#fff" d="M0 0h24v16H0z"/>
    </clipPath>
  </defs>
</svg>
