<svg xmlns="http://www.w3.org/2000/svg" width="24" height="16" fill="none" viewBox="0 0 24 16">
  <g clip-path="url(#clip0)">
    <path fill="#D80027" d="M24-.003H0v15.998h24V-.003z"/>
    <path fill="#D80027" d="M12 16.003A8.002 8.002 0 1012-.002a8.002 8.002 0 000 16.005z"/>
    <path fill="#FFDA44" d="M15.915 8l-1.597.75.847 1.553-1.732-.338-.226 1.755L12 10.43l-1.207 1.29-.225-1.755-1.733.338.847-1.553L8.085 8l1.597-.75-.847-1.553 1.732.338.226-1.755L12 5.57l1.207-1.29.225 1.755 1.733-.338-.847 1.553 1.597.75z"/>
    <path fill="#D80027" d="M12 10.438a2.437 2.437 0 100-4.875 2.437 2.437 0 000 4.875z"/>
    <path fill="#FFDA44" d="M10.785 8h-.173c0 .324.114.638.323.885.11-.277.27-.53.472-.75A1.733 1.733 0 0010.785 8zm.75 1.313c.302.098.628.098.93 0A1.717 1.717 0 0012 8.495c-.228.224-.39.507-.465.818zm1.672-2.01a1.395 1.395 0 00-2.415 0c.425.002.841.116 1.208.33a2.422 2.422 0 011.207-.33zm-.615.81c.203.219.363.473.473.75.204-.242.318-.547.322-.863h-.172a1.734 1.734 0 00-.623.113z"/>
  </g>
  <defs>
    <clipPath id="clip0">
      <path fill="#fff" d="M0 0h24v16H0z"/>
    </clipPath>
  </defs>
</svg>
