<svg xmlns="http://www.w3.org/2000/svg" width="24" height="16" fill="none" viewBox="0 0 24 16">
  <g clip-path="url(#clip0)">
    <path fill="#91DC5A" d="M24-.003H0v15.998h24V-.003z"/>
    <path fill="#F0F0F0" d="M24-.003H0v15.998h24V-.003z"/>
    <path fill="#0052B4" d="M24-.003H0v2.678h24V-.003zm0 13.32H0v2.678h24v-2.677z"/>
    <path fill="#D80027" d="M24 3.748H0v8.512h24V3.748z"/>
    <path fill="#F0F0F0" d="M8.925 11.075a3.075 3.075 0 100-6.15 3.075 3.075 0 000 6.15z"/>
    <path fill="#D80027" d="M8.925 4.925l.69 2.123h2.235L10.042 8.36l.69 2.13-1.807-1.32-1.815 1.32.697-2.13-1.815-1.312h2.235l.698-2.123z"/>
  </g>
  <defs>
    <clipPath id="clip0">
      <path fill="#fff" d="M0 0h24v16H0z"/>
    </clipPath>
  </defs>
</svg>
