<svg xmlns="http://www.w3.org/2000/svg" width="24" height="16" fill="none" viewBox="0 0 24 16">
  <g clip-path="url(#clip0)">
    <path fill="#fff" d="M24-.003H0v15.998h24V-.003z"/>
    <path fill="#D80027" d="M14.925 8A3.375 3.375 0 0112 10.557 3.375 3.375 0 019.075 8a2.925 2.925 0 115.85 0z"/>
    <path fill="#0052B4" d="M14.925 8a2.925 2.925 0 01-5.85 0"/>
    <path fill="#000" d="M15.868 9.808l-.774.774.514.515.775-.774-.515-.515zm-1.284 1.297l-.774.775.513.514.775-.774-.514-.514v-.001zm2.842.248l-.774.774.515.515.774-.774-.515-.515zm-1.297 1.293l-.774.773.514.515.774-.774-.514-.514zm.52-2.065l-.775.774.515.514.774-.774-.514-.514zm-1.295 1.296l-.775.775.515.515.774-.774-.514-.515zm-.253-9.04l-.514.515 2.068 2.069.515-.515L15.1 2.838zm-.78.779l-.514.514.774.774.514-.514-.774-.774zM15.618 4.9l-.515.514.774.775.515-.515-.774-.774zm.255-2.835l-.515.514.775.775.515-.515-.775-.774zm1.285 1.29l-.515.514.774.775.515-.515-.774-.774zm-10.577 8l-.514.514 2.068 2.068.515-.514-2.069-2.068zm2.057.516l-.515.515.774.774.515-.514-.774-.775zm-1.293-1.29l-.513.515.774.774.514-.514-.775-.774zm.776-.772l-.515.514 2.069 2.069.514-.514-2.068-2.069zm.003-7.753L6.055 4.124l.515.515L8.638 2.57l-.514-.515zm.78.773L6.837 4.897l.515.514 2.067-2.068-.513-.514zm.77.78L7.607 5.677l.514.514 2.069-2.068-.515-.514z"/>
  </g>
  <defs>
    <clipPath id="clip0">
      <path fill="#fff" d="M0 0h24v16H0z"/>
    </clipPath>
  </defs>
</svg>
