<svg xmlns="http://www.w3.org/2000/svg" width="24" height="16" fill="none" viewBox="0 0 24 16">
  <g clip-path="url(#clip0)">
    <path fill="#0052B4" d="M24-.003H0v15.998h24V-.003z"/>
    <path fill="#6DA544" d="M18 5.915a1.394 1.394 0 100-2.789 1.394 1.394 0 000 2.789z"/>
    <path fill="#D80027" d="M20.43 4.175h-4.867V6.26h4.867V4.175z"/>
    <path fill="#FFDA44" d="M15.563 9.387v1.396h.75a2.43 2.43 0 003.405 0h.75V9.387h-4.905z"/>
    <path fill="#338AF3" d="M15.563 5.915V8c0 1.86 2.437 2.438 2.437 2.438S20.438 9.86 20.438 8V5.915h-4.875z"/>
    <path fill="#F3F3F3" d="M18 7.025c-.608 0-.608.562-1.215.562-.608 0-.608-.562-1.223-.562V8c.615 0 .615.555 1.223.555.607 0 .607-.555 1.215-.555.608 0 .608.555 1.215.555.608 0 .615-.555 1.223-.555v-.975c-.608 0-.608.562-1.223.562-.615 0-.607-.562-1.215-.562zm0-1.95c-.608 0-.608.562-1.215.562-.608 0-.608-.562-1.223-.562v.975c.615 0 .615.555 1.223.555.607 0 .607-.555 1.215-.555.608 0 .608.555 1.215.555.608 0 .615-.555 1.223-.555v-.975c-.608 0-.608.562-1.223.562-.615 0-.607-.562-1.215-.562z"/>
    <path fill="#F0F0F0" d="M12-.003v1.065l-2.16 1.44H12v3H9.84L12 6.943V8h-1.057L7.5 5.705V8h-3V5.705L1.058 8H0V6.942l2.16-1.44H0v-3h2.16L0 1.063V-.002h1.058L4.5 2.293V-.003h3v2.296l3.443-2.296H12z"/>
    <path fill="#D80027" d="M6.75-.003h-1.5v3.256H0v1.5h5.25V8h1.5V4.753H12v-1.5H6.75V-.003z"/>
    <path fill="#D80027" d="M0-.003V.71l2.692 1.792H3.75L0-.002zm12 0V.71L9.307 2.502H8.25L12-.002z"/>
    <path fill="#D80027" d="M0-.003V.71l2.692 1.792H3.75L0-.002zm12 0V.71L9.307 2.502H8.25L12-.002zM0 8v-.705l2.692-1.792H3.75L0 8zm12 0v-.705L9.307 5.503H8.25L12 8z"/>
  </g>
  <defs>
    <clipPath id="clip0">
      <path fill="#fff" d="M0 0h24v16H0z"/>
    </clipPath>
  </defs>
</svg>
