<svg xmlns="http://www.w3.org/2000/svg" width="24" height="16" fill="none" viewBox="0 0 24 16">
  <g clip-path="url(#clip0)">
    <path fill="#338AF3" d="M24-.003H0v15.998h24V-.003z"/>
    <path fill="#FFDA44" d="M16.5 8.458h-9a1.155 1.155 0 001.162 1.125h-.037a1.125 1.125 0 001.125 1.124 1.125 1.125 0 001.125 1.125h2.25a1.125 1.125 0 001.125-1.125 1.125 1.125 0 001.125-1.124h-.037A1.155 1.155 0 0016.5 8.458z"/>
    <path fill="#338AF3" d="M15.113 6.988a3.112 3.112 0 11-6.225 0"/>
    <path fill="#FFDA44" d="M15.09 6.695l-1.26.51.667 1.05-1.372-.225-.173 1.192L12 8.345l-.953.877-.172-1.192-1.373.225.675-1.05-1.267-.51 1.267-.51-.675-1.05 1.373.225.172-1.193.953.878.952-.878.173 1.193 1.372-.225-.667 1.05 1.26.51z"/>
  </g>
  <defs>
    <clipPath id="clip0">
      <path fill="#fff" d="M0 0h24v16H0z"/>
    </clipPath>
  </defs>
</svg>
