<svg xmlns="http://www.w3.org/2000/svg" width="24" height="16" fill="none" viewBox="0 0 24 16">
  <g clip-path="url(#clip0)">
    <path fill="#D80027" d="M24-.003H0v15.998h24V-.003z"/>
    <path fill="#0052B4" d="M24-.003v7.816L0 8.008v-8.01h24z"/>
    <path fill="#FFDA44" d="M9.915 5.563a1.042 1.042 0 00-1.74-.75v-.638h.345V3.5h-.345v-.367H7.5V3.5h-.367v.698H7.5v.615a1.035 1.035 0 00-.75-.293 1.05 1.05 0 00-1.042 1.043 1.02 1.02 0 00.352.75v.615h3.473v-.615a1.02 1.02 0 00.382-.75z"/>
  </g>
  <defs>
    <clipPath id="clip0">
      <path fill="#fff" d="M0 0h24v16H0z"/>
    </clipPath>
  </defs>
</svg>
