<svg xmlns="http://www.w3.org/2000/svg" width="24" height="16" fill="none" viewBox="0 0 24 16">
  <g clip-path="url(#clip0)">
    <path fill="#FFDA44" d="M22.957 14.96H10.432V1.047h12.525V14.96zM0-.003v16.006h24V-.003H0z"/>
    <path fill="#A2001D" d="M22.957 1.04H10.432v13.913h12.525V1.04z"/>
    <path fill="#D80027" d="M10.432 1.04h-9.39v13.913h9.39V1.04z"/>
    <path fill="#FFDA44" d="M10.433-.003H9.39v15.998h1.043V-.003z"/>
    <path fill="#6DA544" d="M5.22 1.04H1.042v13.913H5.22V1.04z"/>
    <path fill="#FF9811" d="M9.397 1.04H5.22v13.913h4.177V1.04z"/>
    <path fill="#FFDA44" d="M16.815 7.737V5.652c0-.345-.525-.697-.525-.697s-.518.352-.518.697H13.68v2.085h1.042V8.75c.002.222.048.441.135.645l-.48.397H12.99V3.387a1.05 1.05 0 00-1.05 1.05v4.5a1.02 1.02 0 00.352.75v1.658h.698v-.825h3.127v1.395h-.697v.69h1.395v-1.388l.637-.697H19.5v1.395h-.698v.69h1.448v-1.388l.637-.697.593-1.883-.518-.9h-4.147z"/>
    <path fill="#FFDA44" d="M17.37 5.93v1.185h3.352v.622h.21v-.832H17.58V6.14h3.562v-.21H17.37zm-5.895-4.89h-1.043v1.042h1.043V1.04zm11.482 0h-1.042v1.042h1.042V1.04zM11.475 13.91h-1.043v1.043h1.043V13.91zm11.482 0h-1.042v1.043h1.042V13.91z"/>
  </g>
  <defs>
    <clipPath id="clip0">
      <path fill="#fff" d="M0 0h24v16H0z"/>
    </clipPath>
  </defs>
</svg>
