<svg xmlns="http://www.w3.org/2000/svg" width="24" height="16" fill="none" viewBox="0 0 24 16">
  <g clip-path="url(#clip0)">
    <path fill="#F0F0F0" d="M24 .29H0v15.998h24V.29z"/>
    <path fill="#D80027" d="M24 .29H0v1.455h24V.29zm0 2.91H0v1.455h24V3.2zm0 2.902H0v1.455h24V6.102zm0 2.91H0v1.455h24V9.012zm0 2.91H0v1.455h24v-1.455zm0 2.91H0v1.456h24v-1.456z"/>
    <path fill="#0052B4" d="M12-.287H0v7.852h12V-.287z"/>
    <path fill="#F0F0F0" d="M6 1.55l.517 1.59h1.68l-1.357.99.517 1.59L6 4.738l-1.358.982.518-1.59-1.358-.99h1.68L6 1.55z"/>
  </g>
  <defs>
    <clipPath id="clip0">
      <path fill="#fff" d="M0 0h24v16H0z"/>
    </clipPath>
  </defs>
</svg>
