<svg xmlns="http://www.w3.org/2000/svg" width="24" height="16" fill="none" viewBox="0 0 24 16">
  <g clip-path="url(#clip0)">
    <path fill="#000" d="M24-.003H0v15.998h24V-.003z"/>
    <path fill="#D80027" d="M24-.003H0V5.33h24V-.003z"/>
    <path fill="#496E2D" d="M24 10.662H0v5.333h24v-5.332z"/>
    <path fill="#F0F0F0" d="M13.193 7.063l.42.577.682-.217-.42.577.412.578-.675-.218-.42.578v-.72L12.51 8l.683-.225v-.713z"/>
    <path fill="#F0F0F0" d="M12.045 9.448a1.447 1.447 0 11.705-2.723 1.777 1.777 0 100 2.55c-.217.113-.46.173-.705.173z"/>
  </g>
  <defs>
    <clipPath id="clip0">
      <path fill="#fff" d="M0 0h24v16H0z"/>
    </clipPath>
  </defs>
</svg>
