<svg xmlns="http://www.w3.org/2000/svg" width="24" height="16" fill="none" viewBox="0 0 24 16">
  <g clip-path="url(#clip0)">
    <path fill="#FFDA44" d="M24-.003H0v15.998h24V-.003z"/>
    <path fill="#D80027" d="M24-.003h-8.52v15.998H24V-.003z"/>
    <path fill="#0052B4" d="M8.52-.003H0v15.998h8.52V-.003z"/>
    <path fill="#FF9811" d="M14.783 6.29H12.87a.87.87 0 10-1.74 0H9.218a.885.885 0 00.884.862.855.855 0 00.825.848.855.855 0 00.698.84l-.675 1.5c.333.136.69.205 1.05.203.36.001.717-.068 1.05-.203l-.675-1.5a.855.855 0 00.697-.84.855.855 0 00.856-.855.885.885 0 00.854-.855z"/>
    <path fill="#0052B4" d="M12 7.475L10.867 8v1.042L12 9.74l1.132-.698V8L12 7.475z"/>
    <path fill="#D80027" d="M13.125 6.958h-2.258V8h2.258V6.958z"/>
  </g>
  <defs>
    <clipPath id="clip0">
      <path fill="#fff" d="M0 0h24v16H0z"/>
    </clipPath>
  </defs>
</svg>
