<svg xmlns="http://www.w3.org/2000/svg" width="24" height="16" fill="none" viewBox="0 0 24 16">
  <g clip-path="url(#clip0)">
    <path fill="#FFDA44" d="M24-.003H0v15.998h24V-.003z"/>
    <path fill="#A2001D" d="M24 1.393H0v13.215h24V1.393z"/>
    <path fill="#FFDA44" d="M10.26 5.915h3.48V4.52l-.697.353L12 3.83l-1.042 1.043-.698-.353v1.395zM15.128 8h-1.733a.81.81 0 00-.697-1.207.795.795 0 00-.698.457.804.804 0 00-1.534.1.803.803 0 00.132.65H8.873a.982.982 0 00.99.96.952.952 0 00.637.923l-.75.75.75.75 1.05-1.05.12.037-.63 1.433a2.67 2.67 0 001.965 0l-.63-1.433.128-.037.997 1.072.75-.75-.75-.75a.953.953 0 00.69-.922.983.983 0 00.938-.983z"/>
    <path fill="#6DA544" d="M12 8.525l-1.133.518v1.042l1.133.697 1.132-.697V9.043L12 8.525z"/>
    <path fill="#0052B4" d="M13.125 8h-2.258v1.395h2.258V8z"/>
  </g>
  <defs>
    <clipPath id="clip0">
      <path fill="#fff" d="M0 0h24v16H0z"/>
    </clipPath>
  </defs>
</svg>
