<svg xmlns="http://www.w3.org/2000/svg" width="24" height="16" fill="none" viewBox="0 0 24 16">
  <g clip-path="url(#clip0)">
    <path fill="#0052B4" d="M24-.003H0v15.998h24V-.003z"/>
    <path fill="#A2001D" d="M24-.003h-8.52v15.998H24V-.003zm-15.48 0H0v15.998h8.52V-.003z"/>
    <path fill="#FFDA44" d="M6 8.525h-.697v2.782H6V8.525zm-2.782 0H2.52v2.782h.698V8.525zm1.042 1.74a.698.698 0 100-1.395.698.698 0 000 1.395zm0-2.79a.345.345 0 100-.69.345.345 0 000 .69zm.698 3.135H3.563v.697h1.395v-.697zm0-2.782H3.563v.697h1.395v-.697zM4.26 4.692l.248.765h.795l-.645.466.247.757-.645-.465-.645.465.248-.757-.645-.466h.795l.247-.764z"/>
  </g>
  <defs>
    <clipPath id="clip0">
      <path fill="#fff" d="M0 0h24v16H0z"/>
    </clipPath>
  </defs>
</svg>
