<svg xmlns="http://www.w3.org/2000/svg" width="24" height="16" fill="none" viewBox="0 0 24 16">
  <g clip-path="url(#clip0)">
    <path fill="#338AF3" d="M24-.003H0v15.998h24V-.003z"/>
    <path fill="#F3F3F3" d="M11.79 12.313a.443.443 0 01-.397-.286.45.45 0 01-.466.158.443.443 0 01-.322-.36.443.443 0 01-.75-.36.444.444 0 01-.63-.465.443.443 0 01-.533-.615.458.458 0 01-.435-.225.443.443 0 01.038-.488.442.442 0 01-.24-.75.458.458 0 01-.315-.375.45.45 0 01.225-.435.45.45 0 01-.225-.435.443.443 0 01.307-.375.457.457 0 01-.135-.472.443.443 0 01.383-.308.443.443 0 01-.038-.487.42.42 0 01.428-.225.45.45 0 01.067-.488.428.428 0 01.465-.135.443.443 0 01.645-.502.443.443 0 01.75-.36.442.442 0 01.788-.203.434.434 0 01.637-.23.45.45 0 01.173.185.45.45 0 01.681-.093.435.435 0 01.129.221.443.443 0 01.75.277.442.442 0 01.69.435.435.435 0 01.609.304.45.45 0 01-.017.251.457.457 0 01.458.18.443.443 0 010 .488.442.442 0 01.405.27.435.435 0 01-.082.48.45.45 0 01.324.6.443.443 0 01-.16.202.443.443 0 01.197.652.45.45 0 01-.196.166.443.443 0 01-.165.795.45.45 0 01.09.48.451.451 0 01-.413.27.443.443 0 01-.465.668.442.442 0 01-.113.48.436.436 0 01-.48.082.443.443 0 01-.69.435.443.443 0 01-.285.397.45.45 0 01-.48-.112.45.45 0 01-.36.33.45.45 0 01-.442-.21.45.45 0 01-.398.255l-.007-.068z"/>
    <path fill="#338AF3" d="M12 10.992a2.956 2.956 0 100-5.91 2.956 2.956 0 000 5.91z"/>
    <path fill="#BDBCC1" d="M12.645 7.04a.593.593 0 00.24-.48v-.292a.593.593 0 00-.585-.593h-.593a.593.593 0 00-.592.593v.292a.614.614 0 00.24.48l-.533 5.46c.345.237.763.34 1.178.293.417.047.838-.057 1.185-.293l-.54-5.46z"/>
    <path fill="#F0F0F0" d="M12 5.675l.51 1.583h1.665l-1.342.975.51 1.575L12 8.833l-1.342.975.51-1.575-1.343-.975h1.665L12 5.675z"/>
  </g>
  <defs>
    <clipPath id="clip0">
      <path fill="#fff" d="M0 0h24v16H0z"/>
    </clipPath>
  </defs>
</svg>
