<svg xmlns="http://www.w3.org/2000/svg" width="24" height="16" fill="none" viewBox="0 0 24 16">
  <g clip-path="url(#clip0)">
    <path fill="#0052B4" d="M24-.003H0v15.998h24V-.003z"/>
    <path fill="#F0F0F0" d="M24 6.957v2.086H13.043v6.952h-2.085V9.043H0V6.958h10.957v-6.96h2.085v6.96H24z"/>
    <path fill="#F0F0F0" d="M18.12 4.25a.195.195 0 01.195-.195h.435a1.185 1.185 0 100-2.362h-.39a.81.81 0 00-.495-.158.652.652 0 00-.713.57.66.66 0 00.705.578h.893a.195.195 0 110 .382h-.413a1.185 1.185 0 100 2.37h1.598v-.997h-1.62a.195.195 0 01-.195-.188zm-13.043 0a.195.195 0 01.173-.202h.412a1.184 1.184 0 100-2.363h-.367a.81.81 0 00-.495-.157.652.652 0 00-.75.57.66.66 0 00.705.577h.93a.195.195 0 110 .383H5.25a1.185 1.185 0 100 2.37h1.62v-.99H5.25a.195.195 0 01-.173-.188zm13.043 9.037a.195.195 0 01.195-.195h.435a1.185 1.185 0 100-2.37h-.39a.81.81 0 00-.495-.15.652.652 0 00-.713.57.645.645 0 00.705.57h.893a.195.195 0 01.195.188.195.195 0 01-.195.195h-.413a1.185 1.185 0 000 2.37h1.598v-.982h-1.62a.195.195 0 01-.195-.196zm-13.043 0a.195.195 0 01.173-.195h.412a1.185 1.185 0 100-2.37h-.367a.81.81 0 00-.495-.15.653.653 0 00-.75.57.645.645 0 00.705.57h.93a.195.195 0 01.195.188.195.195 0 01-.195.195H5.25a1.185 1.185 0 000 2.37h1.62v-.982H5.25a.195.195 0 01-.173-.196z"/>
  </g>
  <defs>
    <clipPath id="clip0">
      <path fill="#fff" d="M0 0h24v16H0z"/>
    </clipPath>
  </defs>
</svg>
