<svg xmlns="http://www.w3.org/2000/svg" width="24" height="16" fill="none" viewBox="0 0 24 16">
  <g clip-path="url(#clip0)">
    <path fill="#496E2D" d="M24-.003H0v15.998h24V-.003z"/>
    <path fill="#FFDA44" d="M12 10.01A4.5 4.5 0 017.605 6.5a4.58 4.58 0 00-.105.938 4.5 4.5 0 009 0 4.58 4.58 0 00-.105-.938A4.5 4.5 0 0112 10.01z"/>
    <path fill="#FFDA44" d="M12 4.063l.42 1.29h1.35l-1.095.795.42 1.29L12 6.643l-1.095.795.42-1.29-1.103-.795h1.358l.42-1.29z"/>
  </g>
  <defs>
    <clipPath id="clip0">
      <path fill="#fff" d="M0 0h24v16H0z"/>
    </clipPath>
  </defs>
</svg>
