<svg xmlns="http://www.w3.org/2000/svg" width="24" height="16" fill="none" viewBox="0 0 24 16">
  <g clip-path="url(#clip0)">
    <path fill="#D80027" d="M15.998-.003H0v16.006h24V-.003h-8.002z"/>
    <path fill="#6DA544" d="M8.002-.003H0v15.998h8.002V-.003z"/>
    <path fill="#F0F0F0" d="M16.005-.003H8.002v15.998h8.003V-.003z"/>
    <path fill="#6DA544" d="M9.75 8a2.25 2.25 0 104.5 0v-.75h-4.5V8z"/>
    <path fill="#FF9811" d="M15 6.5h-2.25a.75.75 0 10-1.5 0H9a.75.75 0 00.75.75.75.75 0 00.75.75.75.75 0 00.75.75h1.5A.75.75 0 0013.5 8a.75.75 0 00.75-.75.75.75 0 00.75-.75z"/>
  </g>
  <defs>
    <clipPath id="clip0">
      <path fill="#fff" d="M0 0h24v16H0z"/>
    </clipPath>
  </defs>
</svg>
