<svg xmlns="http://www.w3.org/2000/svg" width="24" height="16" fill="none" viewBox="0 0 24 16">
  <g clip-path="url(#clip0)">
    <path fill="#F0F0F0" d="M24-.003H0v15.998h24V-.003z"/>
    <path fill="#D80027" d="M24 2H0v2.003h24V2zm0 3.997H0V8h24V5.997zm0 4.005H0v2.003h24v-2.003zM24 14H0v2.003h24V14z"/>
    <path fill="#0052B4" d="M12-.003H0v8.618h12V-.003z"/>
    <path fill="#FFDA44" d="M6.607 6.282a1.98 1.98 0 110-3.952c.328-.002.651.08.938.24a2.392 2.392 0 00-1.703-.698A2.437 2.437 0 107.545 6.05c-.289.154-.61.234-.938.232z"/>
    <path fill="#FFDA44" d="M7.162 2.915l.353.735.795-.18-.36.727.637.51-.795.18.008.81-.638-.51-.63.51v-.81l-.795-.18.638-.51-.353-.727.788.18.352-.735z"/>
  </g>
  <defs>
    <clipPath id="clip0">
      <path fill="#fff" d="M0 0h24v16H0z"/>
    </clipPath>
  </defs>
</svg>
