<svg xmlns="http://www.w3.org/2000/svg" width="24" height="16" fill="none" viewBox="0 0 24 16">
  <g clip-path="url(#clip0)">
    <path fill="#496E2D" d="M24-.003H0v15.998h24V-.003z"/>
    <path fill="#0052B4" d="M0 16.003V-.003h24"/>
    <path fill="#F0F0F0" d="M24 3.132V-.002h-4.703L0 12.867v3.136h4.702L24 3.133z"/>
    <path fill="#A2001D" d="M24-.003V1.88L2.82 16.003H0V14.12L21.18-.003H24z"/>
    <path fill="#FFDA44" d="M8.797 4.873l-1.065.495.57 1.035-1.155-.218-.15 1.163-.802-.855-.81.855-.15-1.163-1.155.218.57-1.035-1.065-.495L4.65 4.37l-.57-1.035 1.155.225.15-1.17.81.855.802-.855.15 1.17 1.155-.225-.57 1.035 1.065.503z"/>
  </g>
  <defs>
    <clipPath id="clip0">
      <path fill="#fff" d="M0 0h24v16H0z"/>
    </clipPath>
  </defs>
</svg>
