<svg xmlns="http://www.w3.org/2000/svg" width="24" height="16" fill="none" viewBox="0 0 24 16">
  <g clip-path="url(#clip0)">
    <path fill="#F0F0F0" d="M24-.003H0v15.998h24V-.003z"/>
    <path fill="#338AF3" d="M24-.003H0V5.33h24V-.003zm0 10.673H0v5.333h24V10.67z"/>
    <path fill="#FFDA44" d="M12 9.11a1.11 1.11 0 110-2.22 1.11 1.11 0 010 2.22zm0-3.06A1.95 1.95 0 1013.95 8 1.957 1.957 0 0012 6.05z"/>
    <path fill="#0052B4" d="M12.967 8.277L12 8l-.967.277-.316.556h2.566l-.316-.556z"/>
    <path fill="#338AF3" d="M12 6.605l-.645 1.117L12 8l.645-.278L12 6.605z"/>
    <path fill="#6DA544" d="M11.033 8.278h1.934l-.322-.555h-1.29l-.322.555z"/>
  </g>
  <defs>
    <clipPath id="clip0">
      <path fill="#fff" d="M0 0h24v16H0z"/>
    </clipPath>
  </defs>
</svg>
