<svg xmlns="http://www.w3.org/2000/svg" width="24" height="16" fill="none" viewBox="0 0 24 16">
  <g clip-path="url(#clip0)">
    <path fill="#0052B4" d="M24-.003H0v15.998h24V-.003z"/>
    <path fill="#FFDA44" d="M24 7.25H0v1.5h24v-1.5z"/>
    <path fill="#F0F0F0" d="M8.198 11.998l-.9.427.48.862-.975-.187-.128.99L6 13.363l-.675.727-.127-.99-.975.188.48-.863-.893-.428.893-.42-.48-.87.975.188.127-.983.675.728.675-.728.128.983.975-.188-.48.87.9.42z"/>
  </g>
  <defs>
    <clipPath id="clip0">
      <path fill="#fff" d="M0 0h24v16H0z"/>
    </clipPath>
  </defs>
</svg>
