<svg xmlns="http://www.w3.org/2000/svg" width="24" height="16" fill="none" viewBox="0 0 24 16">
  <g clip-path="url(#clip0)">
    <path fill="#FFDA44" d="M24-.003H0v15.998h24V-.003z"/>
    <path fill="#F0F0F0" d="M12-.003H0V8h12V-.003z"/>
    <path fill="#D80027" d="M6.75-.003h-1.5v3.256H0v1.5h5.25V8h1.5V4.753H12v-1.5H6.75V-.003z"/>
    <path fill="#D80027" d="M0-.003V.71l2.692 1.792H3.75L0-.002z"/>
    <path fill="#2E52B2" d="M0 1.063v1.44h2.16L0 1.063zM4.5-.004v2.296L1.058-.003H4.5z"/>
    <path fill="#D80027" d="M12-.003V.71L9.307 2.502H8.25L12-.002z"/>
    <path fill="#2E52B2" d="M12 1.063v1.44H9.84L12 1.063zM7.5-.004v2.296l3.443-2.296H7.5z"/>
    <path fill="#D80027" d="M0-.003V.71l2.692 1.792H3.75L0-.002z"/>
    <path fill="#2E52B2" d="M0 1.063v1.44h2.16L0 1.063zM4.5-.004v2.296L1.058-.003H4.5z"/>
    <path fill="#D80027" d="M12-.003V.71L9.307 2.502H8.25L12-.002z"/>
    <path fill="#2E52B2" d="M12 1.063v1.44H9.84L12 1.063zM7.5-.004v2.296l3.443-2.296H7.5z"/>
    <path fill="#D80027" d="M0 8v-.705l2.692-1.792H3.75L0 8z"/>
    <path fill="#2E52B2" d="M0 6.942v-1.44h2.16L0 6.943zM4.5 8V5.705L1.058 8H4.5z"/>
    <path fill="#D80027" d="M12 8v-.705L9.307 5.503H8.25L12 8z"/>
    <path fill="#2E52B2" d="M12 6.942v-1.44H9.84L12 6.942zM7.5 8V5.705L10.943 8H7.5zm-.45-4.013a1.058 1.058 0 10-2.115 0 1.058 1.058 0 002.115 0z"/>
    <path fill="#FFDA44" d="M6 3.252l.188.57h.6l-.488.353.188.578L6 4.4l-.487.353.187-.578-.487-.353h.6L6 3.252zm0 3.053l.112.337h.36l-.292.21.113.345L6 6.987l-.293.21.113-.345-.285-.21h.353L6 6.305zM6 .807l.112.338h.36l-.292.21.113.345L6 1.49l-.293.21.113-.345-.285-.21h.353L6 .807zm3.277 2.746l.113.345h.36l-.293.21.113.337-.293-.21-.292.21.113-.338-.293-.21h.36l.113-.344zm-6.554 0l.112.345h.36l-.292.21.112.337-.292-.21-.293.21.112-.338-.292-.21h.36l.113-.344z"/>
  </g>
  <defs>
    <clipPath id="clip0">
      <path fill="#fff" d="M0 0h24v16H0z"/>
    </clipPath>
  </defs>
</svg>
