<svg xmlns="http://www.w3.org/2000/svg" width="24" height="16" fill="none" viewBox="0 0 24 16">
  <g clip-path="url(#clip0)">
    <path fill="#0052B4" d="M24-.003H0v15.998h24V-.003z"/>
    <path fill="#D80027" d="M19.935 6.957l.158.488h.517l-.42.3.165.495-.42-.308-.412.308.157-.495-.42-.3h.518l.157-.488zm-1.837 3.518l.24.735h.772l-.622.45.232.735-.622-.45-.623.45.24-.735-.622-.45h.765l.24-.735zm.067-5.76l.203.615h.637l-.517.375.202.615-.525-.383-.517.383.202-.615-.525-.375h.645l.195-.615zm-1.762 2.22l.232.735h.773l-.623.45.24.735-.622-.45-.623.45.233-.735-.623-.45h.773l.24-.735z"/>
    <path fill="#F0F0F0" d="M12-.003V1.43L9.885 2.607H12V5.39H9.225L12 6.928V8h-1.252L7.305 6.088V8h-2.61V5.72L.6 8H0V6.567L2.115 5.39H0V2.608h2.768L0 1.07V-.003h1.252l3.443 1.92v-1.92h2.61v2.28L11.4-.002h.6z"/>
    <path fill="#D80027" d="M6.75-.003h-1.5v3.256H0v1.5h5.25V8h1.5V4.753H12v-1.5H6.75V-.003z"/>
    <path fill="#0052B4" d="M7.305 5.39L12 8v-.735L8.632 5.39H7.305z"/>
    <path fill="#F0F0F0" d="M7.305 5.39L12 8v-.735L8.632 5.39H7.305z"/>
    <path fill="#D80027" d="M7.305 5.39L12 8v-.735L8.633 5.39H7.304zm-3.937 0L0 7.265V8l4.695-2.61H3.367z"/>
    <path fill="#0052B4" d="M4.695 2.607L0-.002V.74l3.368 1.868h1.327z"/>
    <path fill="#F0F0F0" d="M4.695 2.607L0-.002V.74l3.368 1.868h1.327z"/>
    <path fill="#D80027" d="M4.695 2.607L0-.002V.74l3.368 1.868h1.327zm3.938 0L12 .74v-.743l-4.695 2.61h1.328z"/>
  </g>
  <defs>
    <clipPath id="clip0">
      <path fill="#fff" d="M0 0h24v16H0z"/>
    </clipPath>
  </defs>
</svg>
