<svg xmlns="http://www.w3.org/2000/svg" width="24" height="16" fill="none" viewBox="0 0 24 16">
  <g clip-path="url(#clip0)">
    <path fill="#F0F0F0" d="M24-.003H0v15.998h24V-.003z"/>
    <path fill="#0052B4" d="M12 8v8.003H0V8h12z"/>
    <path fill="#D80027" d="M24-.003V8H12V-.003h12z"/>
    <path fill="#0052B4" d="M6 1.768l.555 1.702h1.793L6.9 4.528l.555 1.702L6 5.18 4.553 6.23 5.1 4.528 3.653 3.47h1.792L6 1.768z"/>
    <path fill="#D80027" d="M18 9.77l.555 1.703h1.793L18.9 12.53l.548 1.703L18 13.182l-1.447 1.05.547-1.703-1.447-1.057h1.792L18 9.77z"/>
  </g>
  <defs>
    <clipPath id="clip0">
      <path fill="#fff" d="M0 0h24v16H0z"/>
    </clipPath>
  </defs>
</svg>
