<svg xmlns="http://www.w3.org/2000/svg" width="24" height="16" fill="none" viewBox="0 0 24 16">
  <g clip-path="url(#clip0)">
    <path fill="#F0F0F0" d="M24-.003H0v15.998h24V-.003z"/>
    <path fill="#D80027" d="M24-.003H0V5.33h24V-.003zm0 10.665H0v5.333h24v-5.332z"/>
    <path fill="#FFDA44" d="M13.777 8A1.604 1.604 0 0112 9.56 1.605 1.605 0 0110.222 8a1.778 1.778 0 013.555 0z"/>
    <path fill="#0052B4" d="M13.778 8a1.785 1.785 0 01-3.563 0"/>
    <path fill="#D80027" d="M11.333 7.558h-.443v.892h.443v-.892zm1.777 0h-.442v.892h.442v-.892zm-.892-.668h-.443v1.56h.443V6.89z"/>
  </g>
  <defs>
    <clipPath id="clip0">
      <path fill="#fff" d="M0 0h24v16H0z"/>
    </clipPath>
  </defs>
</svg>
