<svg xmlns="http://www.w3.org/2000/svg" width="24" height="16" fill="none" viewBox="0 0 24 16">
  <g clip-path="url(#clip0)">
    <path fill="#000" d="M24-.003H0v15.998h24V-.003z"/>
    <path fill="#A2001D" d="M0-.003h24v16.006"/>
    <path fill="#F0F0F0" d="M9.592 11.307l.128.398h.42l-.338.248.128.397-.338-.248-.337.248.127-.397-.337-.248h.42l.127-.398zM8.52 7.475l.217.667h.698l-.563.413.218.66-.57-.405-.563.405.218-.66-.57-.413h.697l.218-.667zm0 4.875l.217.66h.698l-.563.412.218.668-.57-.412-.563.412.218-.668-.57-.412h.697l.218-.66zm2.047-3.135l.21.667h.698l-.563.413.218.66-.563-.412-.57.412.218-.66-.563-.413h.698l.217-.667zm-4.087 0l.217.667h.698l-.563.413.21.66-.562-.412-.563.412.21-.66-.562-.413h.697l.218-.667z"/>
    <path fill="#FFDA44" d="M17.648 5.57a2.047 2.047 0 00-1.32-.57l1.5-1.163a2.76 2.76 0 00-2.168-.802 2.031 2.031 0 00-.533-.915l-.592 1.177a.908.908 0 00-.15-.195.87.87 0 00-1.23 1.23c.06.06.128.112.203.15L12.165 5c.254.255.569.442.915.54a2.775 2.775 0 00.81 2.167l1.305-1.68a.511.511 0 01.656-.058.524.524 0 01.08.8l.486.496a1.215 1.215 0 00.36-.862 1.192 1.192 0 00-.24-.75 1.387 1.387 0 01.623 2.325l.488.494a2.084 2.084 0 000-2.955v.053z"/>
  </g>
  <defs>
    <clipPath id="clip0">
      <path fill="#fff" d="M0 0h24v16H0z"/>
    </clipPath>
  </defs>
</svg>
