<svg xmlns="http://www.w3.org/2000/svg" width="24" height="16" fill="none" viewBox="0 0 24 16">
  <g clip-path="url(#clip0)">
    <path fill="#C00" d="M6-.003H0V5.33h6V-.003z"/>
    <path fill="#fff" d="M6 5.33H0v5.332h6V5.33z"/>
    <path fill="#C00" d="M6 10.662H0v5.333h6v-5.332z"/>
    <path fill="#0092C8" d="M24-.003H6v15.998h18V-.003z"/>
    <path fill="#FFCF00" d="M9.383 7.438l.51-1.688a.503.503 0 01.33-.322l.644-.203a.524.524 0 00.308-.27l.105-.24a.486.486 0 00-.42-.69h-.188a.195.195 0 01-.045-.382l.555-.173a.488.488 0 01.638.465V4.4a.384.384 0 00.42.383.375.375 0 01.285.667l-.585.488a.48.48 0 00-.157.255l-.495 1.86a.384.384 0 000 .127v.75a.504.504 0 00.18.383l.75.652a.427.427 0 00.704-.337.428.428 0 00-.352-.42l-.352-.068a.489.489 0 01-.368-.667l1.125-2.768a.488.488 0 01.255-.262l.675-.308a.54.54 0 00.21-.18l.533-.84a.465.465 0 00-.24-.69.187.187 0 01.067-.36h.607a.495.495 0 01.428.75l-.143.27a.412.412 0 00.435.6.412.412 0 01.413.645l-.105.15a.604.604 0 00-.06.12l-1.058 3c-.004.05-.002.1.008.15v.39a.502.502 0 01-.75.458h-.037a.495.495 0 00-.75.427v.12a.494.494 0 00.427.488l1.987.27a.465.465 0 00.33-.075l.938-.578a.502.502 0 00.21-.577l-.247-.75a.284.284 0 00-.443-.135.277.277 0 01-.45-.278l.525-2.542a.502.502 0 01.3-.36l.863-.345a.488.488 0 00.27-.263l.232-.555a.502.502 0 00-.277-.652l-.338-.128a.195.195 0 01.075-.382h.9a.495.495 0 01.48.607l-.113.48a.3.3 0 00.36.36.3.3 0 01.285.503l-.682.697a.48.48 0 00-.142.338l-.038 1.327a.358.358 0 01-.227.335.36.36 0 01-.14.025.368.368 0 00-.36.45l.052.233a.496.496 0 00.87.202l.12-.157a.495.495 0 01.412-.195l.998.037a.503.503 0 00.442-.232l.398-.668a.231.231 0 00-.076-.327.233.233 0 00-.119-.033.233.233 0 01-.218-.322l.233-.57a.48.48 0 01.45-.308h.225a.495.495 0 01.42.75l-2.797 4.267a.51.51 0 00.052.608l.277.293a.495.495 0 01-.352.832l-7.995.15a.524.524 0 01-.277-.082L8.444 11a.427.427 0 01-.18-.248.427.427 0 01.413-.532h.592a.487.487 0 00.48-.72l-.045-.142a.51.51 0 01.06-.45L9.99 8.6l.06-.082a.383.383 0 00-.3-.593.375.375 0 01-.367-.487z"/>
  </g>
  <defs>
    <clipPath id="clip0">
      <path fill="#fff" d="M0 0h24v16H0z"/>
    </clipPath>
  </defs>
</svg>
