<svg xmlns="http://www.w3.org/2000/svg" width="24" height="16" fill="none" viewBox="0 0 24 16">
  <g clip-path="url(#clip0)">
    <path fill="#F0F0F0" d="M24-.003H0v15.998h24V-.003z"/>
    <path fill="#D80027" d="M24-.003H0V5.33h24V-.003z"/>
    <path fill="#0052B4" d="M24 10.662H0v5.333h24v-5.332z"/>
    <path fill="#6DA544" d="M13.575 6.162l-.592.585a1.395 1.395 0 11-2.375 1.123 1.388 1.388 0 01.41-1.123l-.593-.585A2.18 2.18 0 009.75 7.73a2.25 2.25 0 104.455 0 2.198 2.198 0 00-.63-1.568z"/>
    <path fill="#FFDA44" d="M12 6.898l.21.637h.668l-.54.398.202.637-.54-.397-.54.397.203-.637-.54-.398h.667l.21-.637z"/>
  </g>
  <defs>
    <clipPath id="clip0">
      <path fill="#fff" d="M0 0h24v16H0z"/>
    </clipPath>
  </defs>
</svg>
