<svg xmlns="http://www.w3.org/2000/svg" width="24" height="16" fill="none" viewBox="0 0 24 16">
  <g clip-path="url(#clip0)">
    <path fill="#0052B4" d="M24-.003H0v15.998h24V-.003z"/>
    <path fill="#D80027" d="M24-.003H0V5.33h24V-.003z"/>
    <path fill="#F0F0F0" d="M24 10.67H0v5.333h24V10.67z"/>
    <path fill="#D80027" d="M6.068 4.52v3.99c0 2.25 3 3 3 3s2.962-.697 2.962-3V4.52H6.068z"/>
    <path fill="#FFDA44" d="M7.298 5.218h3.48V3.83l-.698.345-1.042-1.042-1.043 1.042-.697-.345v1.388zm4.005 3.847L9.044 6.808 6.78 9.065l.743.743 1.522-1.523 1.523 1.523.735-.743z"/>
    <path fill="#F0F0F0" d="M11.303 6.957h-1.05a.705.705 0 00.09-.352.69.69 0 00-1.306-.323.705.705 0 00-.615-.367.698.698 0 00-.697.69.75.75 0 00.098.352H6.75a.75.75 0 00.75.698.697.697 0 00.697.69.69.69 0 00.57.682L8.19 10.25a2.174 2.174 0 001.703 0l-.548-1.238a.69.69 0 00.57-.682.698.698 0 00.698-.69.75.75 0 00.69-.683z"/>
  </g>
  <defs>
    <clipPath id="clip0">
      <path fill="#fff" d="M0 0h24v16H0z"/>
    </clipPath>
  </defs>
</svg>
