<svg xmlns="http://www.w3.org/2000/svg" width="24" height="16" fill="none" viewBox="0 0 24 16">
  <g clip-path="url(#clip0)">
    <path fill="#338AF3" d="M24-.003H0v15.998h24V-.003z"/>
    <path fill="#FFDA44" d="M24 8H0v3.825h24V8z"/>
    <path fill="#496E2D" d="M24 11.825H0v4.178h24v-4.178z"/>
    <path fill="#FFDA44" d="M13.043 4.685l.975.457-.518.945 1.057-.202.136 1.072.742-.787.742.787.128-1.072 1.065.202-.525-.945.983-.457-.983-.465.525-.945-1.065.202-.128-1.072-.742.787-.742-.787-.136 1.072-1.057-.202.518.945-.976.465z"/>
  </g>
  <defs>
    <clipPath id="clip0">
      <path fill="#fff" d="M0 0h24v16H0z"/>
    </clipPath>
  </defs>
</svg>
