<svg xmlns="http://www.w3.org/2000/svg" width="24" height="16" fill="none" viewBox="0 0 24 16">
  <g clip-path="url(#clip0)">
    <path fill="#496E2D" d="M24-.003H0v15.998h24V-.003z"/>
    <path fill="#0052B4" d="M0 16.003V-.003h24"/>
    <path fill="#FFDA44" d="M0 14.585v1.418h2.123L24 1.415V-.003h-2.122L0 14.585z"/>
    <path fill="#F0F0F0" d="M4.02 1.1l.233.735h.78l-.63.457.24.743-.623-.458-.63.458.24-.743L3 1.835h.78l.24-.735zm3.96 0l.24.735H9l-.63.457.24.743-.63-.458-.623.458.24-.743-.63-.457h.773l.24-.735zM4.02 4.97l.233.735h.78l-.63.457.24.735-.623-.45-.63.45.24-.735L3 5.705h.78l.24-.735zm3.96 0l.24.735H9l-.63.457.24.735-.63-.45-.623.45.24-.735-.63-.457h.773l.24-.735zM6 3.035l.24.735h.78l-.63.457.24.743L6 4.512l-.63.458.24-.743-.63-.457h.78L6 3.035z"/>
  </g>
  <defs>
    <clipPath id="clip0">
      <path fill="#fff" d="M0 0h24v16H0z"/>
    </clipPath>
  </defs>
</svg>
