<svg xmlns="http://www.w3.org/2000/svg" width="24" height="16" fill="none" viewBox="0 0 24 16">
  <g clip-path="url(#clip0)">
    <path fill="#F0F0F0" d="M24-.003H0v15.998h24V-.003z"/>
    <path fill="#0052B4" d="M24 5.33H0v5.332h24V5.33z"/>
    <path fill="#D80027" d="M24 10.67H0v5.333h24V10.67z"/>
    <path fill="#F0F0F0" d="M10.95 5.218v.697C10.95 7.513 8.865 8 8.865 8S6.75 7.513 6.75 5.915V3.148h4.17l.03 2.07z"/>
    <path fill="#0052B4" d="M10.95 5.218v.697C10.95 7.513 8.865 8 8.865 8S6.75 7.513 6.75 5.915V3.148h4.17l.03 2.07z"/>
    <path fill="#F0F0F0" d="M10.95 5.218v.697C10.95 7.513 8.865 8 8.865 8S6.75 7.513 6.75 5.915v-.697l.697.697 1.395-1.043 1.388 1.043.72-.697z"/>
  </g>
  <defs>
    <clipPath id="clip0">
      <path fill="#fff" d="M0 0h24v16H0z"/>
    </clipPath>
  </defs>
</svg>
