<svg xmlns="http://www.w3.org/2000/svg" width="24" height="16" fill="none" viewBox="0 0 24 16">
  <g clip-path="url(#clip0)">
    <path fill="#FFDA44" d="M24-.003H0v15.998h24V-.003z"/>
    <path fill="#6DA544" d="M24-.003H0V5.33h24V-.003zm0 10.673H0v5.333h24V10.67z"/>
    <path fill="#D80027" d="M12 8L0 16.003V-.003L12 8z"/>
    <path fill="#000" d="M14.16 6.605l.345 1.065h1.117l-.907.66.345 1.065-.9-.66-.908.66.345-1.065-.9-.66h1.118l.345-1.065zm3.48 0l.345 1.065h1.117l-.907.66.345 1.065-.9-.66-.907.66.345-1.065-.9-.66h1.11l.352-1.065z"/>
  </g>
  <defs>
    <clipPath id="clip0">
      <path fill="#fff" d="M0 0h24v16H0z"/>
    </clipPath>
  </defs>
</svg>
