<svg xmlns="http://www.w3.org/2000/svg" width="24" height="16" fill="none" viewBox="0 0 24 16">
  <g clip-path="url(#clip0)">
    <path fill="#F0F0F0" d="M24-.003H0v15.998h24V-.003z"/>
    <path fill="#0052B4" d="M24-.003H0V5.33h24V-.003zm0 10.673H0v5.333h24V10.67z"/>
    <path fill="#FFDA44" d="M10.717 8.278L12 6.05l1.283 2.228h-2.566z"/>
    <path fill="#6DA544" d="M13.673 9.012L12 9.845l-1.672-.833v-1.11h3.345v1.11z"/>
    <path fill="#FFDA44" d="M13.575 6.148l-.592.592a1.363 1.363 0 01.404.983 1.395 1.395 0 01-2.782 0 1.373 1.373 0 01.412-.983l-.592-.592a2.25 2.25 0 103.15 0z"/>
  </g>
  <defs>
    <clipPath id="clip0">
      <path fill="#fff" d="M0 0h24v16H0z"/>
    </clipPath>
  </defs>
</svg>
