<svg xmlns="http://www.w3.org/2000/svg" width="24" height="16" fill="none" viewBox="0 0 24 16">
  <g clip-path="url(#clip0)">
    <path fill="#0052B4" d="M24-.003H0v15.998h24V-.003z"/>
    <path fill="#D80027" d="M24-.003v7.816L0 8.008v-8.01h24z"/>
    <path fill="#F0F0F0" d="M12 8L0 16.003V-.003L12 8z"/>
    <path fill="#FFDA44" d="M2.797 8a1.982 1.982 0 000 .217 2.79 2.79 0 005.573 0 2.06 2.06 0 000-.217H2.797zm2.775-1.29a.855.855 0 100-1.71.855.855 0 000 1.71z"/>
    <path fill="#D80027" d="M3.645 5.645v2.783c0 1.5 1.928 1.927 1.928 1.927S7.5 9.905 7.5 8.428V5.645H3.645z"/>
    <path fill="#338AF3" d="M5.572 9.5C5.25 9.335 4.5 9.005 4.5 8.428V6.5h2.145v1.928c0 .577-.72.907-1.072 1.072z"/>
    <path fill="#F3F3F3" d="M6 7.572v-.427l-.428-.218-.427.218v.427l-.218.21v.863h1.29v-.863L6 7.572z"/>
  </g>
  <defs>
    <clipPath id="clip0">
      <path fill="#fff" d="M0 0h24v16H0z"/>
    </clipPath>
  </defs>
</svg>
