<svg xmlns="http://www.w3.org/2000/svg" width="24" height="16" fill="none" viewBox="0 0 24 16">
  <g clip-path="url(#clip0)">
    <path fill="#F0F0F0" d="M24-.003H0v15.998h24V-.003z"/>
    <path fill="#D80027" d="M24-.003H0V5.33h24V-.003z"/>
    <path fill="#000" d="M24 10.67H0v5.333h24V10.67z"/>
    <path fill="#6DA544" d="M8.783 6.088l.427 1.327h1.395L9.48 8.24l.428 1.328-1.125-.825-1.133.825.435-1.328-1.132-.825h1.395l.435-1.327zm6.435 0l.435 1.327h1.395l-1.133.825.435 1.328-1.132-.825-1.125.825.427-1.328-1.132-.825h1.402l.428-1.327z"/>
  </g>
  <defs>
    <clipPath id="clip0">
      <path fill="#fff" d="M0 0h24v16H0z"/>
    </clipPath>
  </defs>
</svg>
