<svg xmlns="http://www.w3.org/2000/svg" width="24" height="16" fill="none" viewBox="0 0 24 16">
  <g clip-path="url(#clip0)">
    <path fill="#0052B4" d="M24-.003H0v15.998h24V-.003z"/>
    <path fill="#FFDA44" d="M15.563 5v3.668C15.563 10.453 18 11 18 11s2.438-.547 2.438-2.332V5h-4.875z"/>
    <path fill="#FF9811" d="M17.655 6.335c0 .367-.315 1.335-.698 1.335-.382 0-.697-.968-.697-1.335 0-.368.697-.668.697-.668s.698.3.698.668z"/>
    <path fill="#A2001D" d="M19.5 7.062c.11-.267.176-.55.195-.84 0-.307-.412-.555-.412-.555s-.42.248-.42.555c.022.29.09.573.202.84l-.24.518c.146.058.3.088.458.09.156-.003.311-.034.457-.09l-.24-.518z"/>
    <path fill="#6DA544" d="M17.475 8.668a3.368 3.368 0 00-.345 1.335h1.74a3.367 3.367 0 00-.345-1.335L18 8.33l-.525.338z"/>
    <path fill="#D80027" d="M18.525 8.668v-.165A.518.518 0 0018 8a.51.51 0 00-.518.502v.165h1.043z"/>
    <path fill="#F0F0F0" d="M12-.003V1.43L9.885 2.607H12V5.39H9.232L12 6.928V8h-1.252L7.305 6.088V8h-2.61V5.72L.6 8H0V6.567L2.115 5.39H0V2.608h2.768L0 1.07V-.003h1.252L4.696 1.91V-.003h2.61v2.28L11.4-.002h.6z"/>
    <path fill="#D80027" d="M6.75-.003h-1.5v3.256H0v1.5h5.25V8h1.5V4.753H12v-1.5H6.75V-.003z"/>
    <path fill="#0052B4" d="M7.305 5.39L12 8v-.735L8.632 5.39H7.305z"/>
    <path fill="#F0F0F0" d="M7.305 5.39L12 8v-.735L8.632 5.39H7.305z"/>
    <path fill="#D80027" d="M7.305 5.39L12 8v-.735L8.633 5.39H7.304zm-3.937 0L0 7.265V8l4.695-2.61H3.367z"/>
    <path fill="#0052B4" d="M4.695 2.607L0-.002V.74l3.368 1.868h1.327z"/>
    <path fill="#F0F0F0" d="M4.695 2.607L0-.002V.74l3.368 1.868h1.327z"/>
    <path fill="#D80027" d="M4.695 2.607L0-.002V.74l3.368 1.868h1.327zm3.938 0L12 .74v-.743l-4.695 2.61h1.328z"/>
  </g>
  <defs>
    <clipPath id="clip0">
      <path fill="#fff" d="M0 0h24v16H0z"/>
    </clipPath>
  </defs>
</svg>
