<svg xmlns="http://www.w3.org/2000/svg" width="24" height="16" fill="none" viewBox="0 0 24 16">
  <g clip-path="url(#clip0)">
    <path fill="#F0F0F0" d="M24-.003H0v15.998h24V-.003z"/>
    <path fill="#D80027" d="M24-.003H0V5.33h24V-.003z"/>
    <path fill="#6DA544" d="M24 10.662H0v5.333h24v-5.332z"/>
    <path fill="#FFDA44" d="M10.613 10.085h2.782V8.9l-.563.285-.832-.84-.832.84-.555-.285v1.185zM9.014 8.697l.135.398h.413l-.338.247.128.398-.338-.248-.337.248.127-.398-.337-.247h.42l.127-.398zm.405-1.395l.128.398h.42l-.338.247.128.398-.338-.24-.337.24.127-.398-.337-.247h.412l.135-.398zm1.148-1.042l.127.397h.42l-.338.248.128.397-.337-.247-.338.247.127-.397-.337-.248h.412l.136-.397zm4.417 2.437l-.127.398h-.42l.337.247-.127.398.337-.248.338.248-.128-.398.338-.247h-.42l-.128-.398zm-.405-1.395l-.127.398h-.42l.337.247-.127.398.337-.24.338.24-.128-.398.345-.247h-.42l-.135-.398zM13.432 6.26l-.127.397h-.42l.338.248-.128.397.337-.247.338.247-.127-.397.337-.248h-.412l-.136-.397zM12 5.735l.127.405h.42l-.337.247.127.398L12 6.537l-.338.248.128-.398-.337-.247h.42L12 5.735z"/>
  </g>
  <defs>
    <clipPath id="clip0">
      <path fill="#fff" d="M0 0h24v16H0z"/>
    </clipPath>
  </defs>
</svg>
