<svg xmlns="http://www.w3.org/2000/svg" width="24" height="16" fill="none" viewBox="0 0 24 16">
  <g clip-path="url(#clip0)">
    <path fill="#0052B4" d="M24-.003H0v15.998h24V-.003z"/>
    <path fill="#F0F0F0" d="M9.877 4.175l.173.532h.562l-.457.323.172.532-.45-.322-.45.322.173-.532-.45-.323h.555l.172-.532zm-4.402 5.04l.217.667h.698l-.563.413.21.66-.562-.412-.563.412.218-.66-.57-.413h.697l.218-.667zM6.78 1.61l.217.667h.698l-.563.405.218.668-.57-.413-.563.413.218-.668-.563-.405h.698l.21-.667zM3.262 4.22l.21.66h.705l-.57.412.218.668-.563-.413-.57.413.218-.668-.563-.412h.698l.217-.66z"/>
    <path fill="#FFDA44" d="M22.658 12.62H5.52s5.123-4.155 14.558-10.358c0 0-4.14 6.045 2.58 10.358zm-17.138.54a.413.413 0 000 .817h17.138a.413.413 0 000-.817H5.52z"/>
  </g>
  <defs>
    <clipPath id="clip0">
      <path fill="#fff" d="M0 0h24v16H0z"/>
    </clipPath>
  </defs>
</svg>
