<svg xmlns="http://www.w3.org/2000/svg" width="24" height="16" fill="none" viewBox="0 0 24 16">
  <g clip-path="url(#clip0)">
    <path fill="#D80027" d="M24-.003H0v15.998h24V-.003z"/>
    <path fill="#F0F0F0" d="M12 12.5a4.5 4.5 0 100-9 4.5 4.5 0 000 9z"/>
    <path fill="#D80027" d="M12.555 6.283l.773 1.057 1.252-.405L13.807 8l.765 1.065-1.244-.405-.773 1.058V8.405L11.303 8l1.252-.405V6.283z"/>
    <path fill="#D80027" d="M13.02 10.662a2.663 2.663 0 111.268-5.002 3.27 3.27 0 100 4.68 2.67 2.67 0 01-1.268.322z"/>
  </g>
  <defs>
    <clipPath id="clip0">
      <path fill="#fff" d="M0 0h24v16H0z"/>
    </clipPath>
  </defs>
</svg>
