<svg xmlns="http://www.w3.org/2000/svg" width="24" height="16" fill="none" viewBox="0 0 24 16">
  <g clip-path="url(#clip0)">
    <path fill="#338AF3" d="M24-.003H0v15.998h24V-.003z"/>
    <path fill="#FFDA44" d="M15.082 11.652l.173.533h.555l-.45.33.172.525-.45-.322-.457.322.172-.525-.45-.33h.563l.172-.533zm4.448-3.48l.172.533h.555l-.45.33.173.533-.45-.33-.45.33.172-.533-.457-.33h.562l.173-.532zm1.117-5.212l.173.525h.555l-.45.33.172.533-.45-.33-.457.33.172-.533-.45-.33h.563l.172-.525zm.27 3.825l.173.533h.562l-.45.322.173.533-.458-.33-.45.33.173-.533-.45-.322h.555l.172-.533zm-5.04 3.615l.503.255.39-.397-.083.555.495.255-.547.082-.09.555-.255-.495-.555.082.397-.39-.255-.502zm0-2.085l.503.255.39-.397-.083.555.495.255-.547.082-.09.555-.255-.502-.555.09.397-.398-.255-.495zm1.74 1.335l.503.255.39-.39-.083.547.495.256-.555.09-.082.547-.255-.495-.555.082.397-.39-.255-.502zm0-4.462l.503.247.39-.39-.083.548.495.255-.555.09-.082.547-.255-.495-.555.09.397-.397-.255-.495zm1.688-.053l.495.248.397-.39-.09.547.503.255-.555.09-.083.548-.255-.495-.555.09.398-.398-.255-.495z"/>
    <path fill="#F0F0F0" d="M12-.003H0V8h12V-.003z"/>
    <path fill="#D80027" d="M6.75-.003h-1.5v3.256H0v1.5h5.25V8h1.5V4.753H12v-1.5H6.75V-.003z"/>
    <path fill="#0052B4" d="M9.225 5.39L12 6.928V5.39H9.225zm-1.92 0L12 8v-.735L8.632 5.39H7.305zM10.747 8L7.305 6.088V8h3.442z"/>
    <path fill="#F0F0F0" d="M7.305 5.39L12 8v-.735L8.632 5.39H7.305z"/>
    <path fill="#D80027" d="M7.305 5.39L12 8v-.735L8.632 5.39H7.305z"/>
    <path fill="#0052B4" d="M2.115 5.39L0 6.568V5.39h2.115zm2.58.33V8H.6l4.095-2.28z"/>
    <path fill="#D80027" d="M3.368 5.39L0 7.265V8l4.695-2.61H3.367z"/>
    <path fill="#0052B4" d="M2.768 2.607L0 1.07v1.537h2.768zm1.927 0L0-.002V.74l3.368 1.868h1.327zM1.252-.002L4.696 1.91V-.003H1.252z"/>
    <path fill="#F0F0F0" d="M4.695 2.607L0-.002V.74l3.368 1.868h1.327z"/>
    <path fill="#D80027" d="M4.695 2.607L0-.002V.74l3.368 1.868h1.327z"/>
    <path fill="#0052B4" d="M9.885 2.607L12 1.43v1.177H9.885zm-2.58-.33v-2.28H11.4l-4.095 2.28z"/>
    <path fill="#D80027" d="M8.632 2.607L12 .74v-.743l-4.695 2.61h1.327z"/>
  </g>
  <defs>
    <clipPath id="clip0">
      <path fill="#fff" d="M0 0h24v16H0z"/>
    </clipPath>
  </defs>
</svg>
