<svg xmlns="http://www.w3.org/2000/svg" width="24" height="16" fill="none" viewBox="0 0 24 16">
  <g clip-path="url(#clip0)">
    <path fill="#D80027" d="M24-.003H0v15.998h24V-.003z"/>
    <path fill="#0052B4" d="M12-.003H0V8h12V-.003z"/>
    <path fill="#F0F0F0" d="M8.738 4.003l-1.118.525.6 1.08-1.215-.233-.157 1.23-.848-.9-.847.9-.15-1.23-1.215.233.592-1.08-1.117-.525L4.38 3.47l-.592-1.08 1.215.233.15-1.23L6 2.3l.848-.907.157 1.23L8.22 2.39l-.6 1.08 1.118.533z"/>
    <path fill="#0052B4" d="M5.985 5.375a1.357 1.357 0 100-2.715 1.357 1.357 0 000 2.715z"/>
    <path fill="#F0F0F0" d="M6 4.907a.908.908 0 10-.008-1.815A.908.908 0 006 4.907z"/>
  </g>
  <defs>
    <clipPath id="clip0">
      <path fill="#fff" d="M0 0h24v16H0z"/>
    </clipPath>
  </defs>
</svg>
