<svg xmlns="http://www.w3.org/2000/svg" width="24" height="16" fill="none" viewBox="0 0 24 16">
  <g clip-path="url(#clip0)">
    <path fill="#000" d="M24-.003H0v15.998h24V-.003z"/>
    <path fill="#FFDA44" d="M24 2.667H0v2.67h24v-2.67z"/>
    <path fill="#D80027" d="M24 5.33H0V8h24V5.33z"/>
    <path fill="#FFDA44" d="M24 10.67H0v2.67h24v-2.67z"/>
    <path fill="#D80027" d="M24 13.332H0v2.67h24v-2.67z"/>
    <path fill="#F0F0F0" d="M12 10.67a2.67 2.67 0 100-5.338 2.67 2.67 0 000 5.338z"/>
    <path fill="#000" d="M12.975 8.135L12 7.715l.24-.818a.571.571 0 000-.112.518.518 0 00-.158-.375l.248-.24a.87.87 0 00-1.23 0l.248.24a.547.547 0 00-.15.375.516.516 0 000 .15l-.376.367h.676c-.16.24-.303.49-.428.75a.698.698 0 00.352.915l.203.09.338.315v.353l-.345.345h.69v-.69l.322-.323h.652a.698.698 0 00-.307-.922z"/>
  </g>
  <defs>
    <clipPath id="clip0">
      <path fill="#fff" d="M0 0h24v16H0z"/>
    </clipPath>
  </defs>
</svg>
