<svg xmlns="http://www.w3.org/2000/svg" width="24" height="16" fill="none" viewBox="0 0 24 16">
  <g clip-path="url(#clip0)">
    <path fill="#F0F0F0" d="M24-.003H0v15.998h24V-.003z"/>
    <path fill="#338AF3" d="M24-.003H0v2.288h24V-.003zm0 4.575H0V6.86h24V4.572zm0 4.568H0v2.287h24V9.14zm0 4.575H0v2.288h24v-2.288z"/>
    <path fill="#F0F0F0" d="M12-.003H0V9.14h12V-.003z"/>
    <path fill="#FFDA44" d="M9 4.572l-1.223.578.653 1.185-1.335-.255-.165 1.342-.93-.99-.93.99-.165-1.342-1.335.255.653-1.185L3 4.572l1.223-.577L3.57 2.81l1.335.255.165-1.35.93.99.93-.99.165 1.35L8.43 2.81l-.652 1.185L9 4.572z"/>
  </g>
  <defs>
    <clipPath id="clip0">
      <path fill="#fff" d="M0 0h24v16H0z"/>
    </clipPath>
  </defs>
</svg>
