<svg xmlns="http://www.w3.org/2000/svg" width="24" height="16" fill="none" viewBox="0 0 24 16">
  <g clip-path="url(#clip0)">
    <path fill="#FFDA44" d="M24-.003H0v15.998h24V-.003z"/>
    <path fill="#F0F0F0" d="M24-.003H12v15.998h12V-.003z"/>
    <path fill="#ACABB1" d="M17.25 9.245a.348.348 0 11.42.555.337.337 0 01-.487-.068.352.352 0 01.067-.487zm-2.167-2.288l1.5 1.995a1.027 1.027 0 00.037 1.2 1.042 1.042 0 10.518-1.62l-2.363-3.105-.555.42-.832.653.862 1.087.833-.63z"/>
    <path fill="#FFDA44" d="M14.715 9.732a.348.348 0 11-.555-.42.348.348 0 01.555.42zm2.925-2.145l.84-1.087-.833-.63-.555-.42-2.34 3.105a1.043 1.043 0 10.555.42l1.5-1.995.833.607z"/>
  </g>
  <defs>
    <clipPath id="clip0">
      <path fill="#fff" d="M0 0h24v16H0z"/>
    </clipPath>
  </defs>
</svg>
