<svg xmlns="http://www.w3.org/2000/svg" width="24" height="16" fill="none" viewBox="0 0 24 16">
  <g clip-path="url(#clip0)">
    <path fill="#0052B4" d="M24-.003H0v15.998h24V-.003z"/>
    <path fill="#F0F0F0" d="M12-.003v5.506H9.84L12 6.943V8h-1.057L7.5 5.705V8h-3V5.705L1.058 8H0V6.942l2.16-1.44H0v-3h2.16L0 1.063V-.002h1.058L4.5 2.293V-.003h3v2.296l3.443-2.296H12z"/>
    <path fill="#D80027" d="M6.75-.003h-1.5v3.256H0v1.5h5.25V8h1.5V4.753H12v-1.5H6.75V-.003z"/>
    <path fill="#D80027" d="M0-.003V.71l2.692 1.792H3.75L0-.002zm12 0V.71L9.307 2.502H8.25L12-.002z"/>
    <path fill="#2E52B2" d="M12 1.063v1.44H9.84L12 1.063z"/>
    <path fill="#D80027" d="M0-.003V.71l2.692 1.792H3.75L0-.002zm12 0V.71L9.307 2.502H8.25L12-.002z"/>
    <path fill="#2E52B2" d="M12 1.063v1.44H9.84L12 1.063z"/>
    <path fill="#D80027" d="M0 8v-.705l2.692-1.792H3.75L0 8zm12 0v-.705L9.307 5.503H8.25L12 8z"/>
    <path fill="#FFDA44" d="M18 8.172l-2.16 2.16a2.43 2.43 0 004.32 0L18 8.172z"/>
    <path fill="#6DA544" d="M15.563 4.348v3.825C15.563 10.04 18 10.61 18 10.61s2.438-.57 2.438-2.437V4.348h-4.875z"/>
    <path fill="#F0F0F0" d="M18.525 6.088h-1.043V8.87h1.043V6.088z"/>
    <path fill="#A2001D" d="M18 6.612a.525.525 0 100-1.05.525.525 0 000 1.05z"/>
    <path fill="#FFDA44" d="M16.957 5.045h-.697v.697h.697v-.697zm0 1.56h-.697v.697h.697v-.697zm0 1.567h-.697v.698h.697v-.698zm2.783-3.127h-.697v.697h.697v-.697zm0 1.56h-.697v.697h.697v-.697zm0 1.567h-.697v.698h.697v-.698z"/>
  </g>
  <defs>
    <clipPath id="clip0">
      <path fill="#fff" d="M0 0h24v16H0z"/>
    </clipPath>
  </defs>
</svg>
