<svg xmlns="http://www.w3.org/2000/svg" width="24" height="16" fill="none" viewBox="0 0 24 16">
  <g clip-path="url(#clip0)">
    <path fill="#F0F0F0" d="M24-.003H0v15.998h24V-.003z"/>
    <path fill="#FFDA44" d="M13.358 5.585a1.357 1.357 0 10-2.715 0h-3A1.38 1.38 0 009.03 6.927H9a1.335 1.335 0 001.335 1.335 1.335 1.335 0 001.088 1.313h1.17a1.335 1.335 0 001.087-1.313A1.335 1.335 0 0015 6.927a1.38 1.38 0 001.388-1.342h-3.03z"/>
    <path fill="#FFDA44" d="M11.4 9.448l-.84 1.904c.925.37 1.956.37 2.88 0l-.84-1.904h-1.2z"/>
    <path fill="#F0F0F0" d="M10.26 6.26V8.6c0 1.328 1.74 1.74 1.74 1.74s1.74-.412 1.74-1.74V6.26h-3.48z"/>
    <path fill="#338AF3" d="M5.94 8.052l.945 2.633.93-2.633h.705l-1.357 3.48H6.6l-1.372-3.48h.712zm11.602 0h-.675v3.48h.675v-3.48z"/>
    <path fill="#D80027" d="M10.957 7.01v2.843c.216.152.45.276.698.367V7.01h-.697zm2.085 0v2.843c-.215.152-.45.276-.697.367V7.01h.697z"/>
    <path fill="#0052B4" d="M13.74 6.26h-3.48v1.103h3.48V6.26z"/>
  </g>
  <defs>
    <clipPath id="clip0">
      <path fill="#fff" d="M0 0h24v16H0z"/>
    </clipPath>
  </defs>
</svg>
