<svg xmlns="http://www.w3.org/2000/svg" width="24" height="16" fill="none" viewBox="0 0 24 16">
  <g clip-path="url(#clip0)">
    <path fill="#000" d="M24-.003H0v15.998h24V-.003z"/>
    <path fill="#6DA544" d="M24 8v8.003H0L10.088 8H24z"/>
    <path fill="#D80027" d="M24-.003V8H10.088L0-.003h24z"/>
    <path fill="#000" d="M10.357 7.22L1.26-.003H.42l9.758 7.74H24V7.22H10.357zM.42 16.003h.84l9.098-7.223H24v-.518H10.178L.42 16.002zM0 .335v.667L8.828 8 0 15.005v.66L9.668 8 0 .335z"/>
    <path fill="#FFDA44" d="M.42-.003H0v.338L9.668 8 0 15.665v.338h.42l9.758-7.74H24v-.526H10.178L.42-.003z"/>
    <path fill="#FFDA44" d="M3 9.703v-.668A1.215 1.215 0 004.2 7.82a.855.855 0 00-.863-.855.585.585 0 00-.577.585.375.375 0 00.367.375.218.218 0 00.218-.21h.667a.885.885 0 01-.885.878A1.043 1.043 0 012.085 7.55a1.252 1.252 0 011.252-1.252 1.5 1.5 0 011.5 1.5A1.883 1.883 0 013 9.703z"/>
  </g>
  <defs>
    <clipPath id="clip0">
      <path fill="#fff" d="M0 0h24v16H0z"/>
    </clipPath>
  </defs>
</svg>
