<svg xmlns="http://www.w3.org/2000/svg" width="24" height="16" fill="none" viewBox="0 0 24 16">
  <g clip-path="url(#clip0)">
    <path fill="#ED2939" d="M24-.003H0v15.998h24V-.003z"/>
    <path fill="#fff" d="M6.397-.003H0v6.398h6.397V-.003z"/>
    <path fill="#002395" d="M3.203-.003H0v6.398h3.203V-.003z"/>
    <path fill="#fff" d="M17.438 8l1.92-1.92v3.84L17.438 8zm-.638.637l-1.92 1.92h3.87l-1.95-1.92zM16.163 8L14.25 6.08v3.84L16.163 8zm.637-.645l-1.92-1.92h3.87l-1.95 1.92zM0 6.747h9.75v-6.75H9v6H0v.75z"/>
  </g>
  <defs>
    <clipPath id="clip0">
      <path fill="#fff" d="M0 0h24v16H0z"/>
    </clipPath>
  </defs>
</svg>
