<svg xmlns="http://www.w3.org/2000/svg" width="24" height="16" fill="none" viewBox="0 0 24 16">
  <g clip-path="url(#clip0)">
    <path fill="#0052B4" d="M24-.003H0v15.998h24V-.003z"/>
    <path fill="#F0F0F0" d="M7.515 4.873l.173.525h.555l-.45.33.172.532-.45-.33-.45.33.173-.532-.458-.33h.563l.172-.525zm1.74-.525l.173.532h.555l-.45.33.172.525-.45-.322-.457.322.172-.525-.45-.33h.563l.172-.532zm1.74-.525l.173.532h.555l-.45.33.172.533-.45-.33-.457.33.172-.533-.45-.33h.563l.172-.532zm5.49 1.05l-.172.525h-.563l.457.33-.172.532.45-.33.45.33-.172-.532.457-.33h-.563l-.172-.525zm-1.74-.525l-.172.532h-.556l.45.33-.172.525.45-.322.458.322-.173-.525.45-.33h-.563l-.172-.532zm-1.74-.525l-.173.532h-.555l.45.33-.172.533.45-.33.457.33-.172-.533.45-.33h-.563l-.172-.532z"/>
    <path fill="#FFDA44" d="M13.395 8.345L12 6.605l-.697.352v.698l-1.043.69h-.697v.9a2.782 2.782 0 011.74 2.58H12v-.697l.697-.69.698.69.69-.69V9.74l.697-1.043-1.387-.352z"/>
  </g>
  <defs>
    <clipPath id="clip0">
      <path fill="#fff" d="M0 0h24v16H0z"/>
    </clipPath>
  </defs>
</svg>
