<svg xmlns="http://www.w3.org/2000/svg" width="24" height="16" fill="none" viewBox="0 0 24 16">
  <g clip-path="url(#clip0)">
    <path fill="#fff" d="M24-.003H0v15.998h24V-.003z"/>
    <path fill="#DFDFDF" d="M16.718 5.15l1.845-2.4a.75.75 0 01.75-.277l.225.045c.092.018.18.05.262.097l1.275.818a.751.751 0 01.353.63v1.5a.749.749 0 01-.135.427l-.36.525a.292.292 0 000 .248.27.27 0 00.315.172h.172a.473.473 0 01.54.63L21.75 8a.75.75 0 01-.315.383L19.5 9.5a.351.351 0 01-.51-.18.36.36 0 00-.547-.165l-.413.3a.75.75 0 00-.255.33l-.585 1.5a.75.75 0 000 .547l.345.893a1.5 1.5 0 001.215.945h.128a1.5 1.5 0 001.027-.24l.42-.285c.23-.147.39-.38.45-.645l.06-.307a.135.135 0 01.135-.113.141.141 0 01.143.158l-.06.54a1.268 1.268 0 01-.533.877l-.525.36a1.5 1.5 0 01-1.185.225l-.855-.195a1.502 1.502 0 01-1.035-.795l-.562-1.245a1.5 1.5 0 01-.135-.623V8.855a1.5 1.5 0 01.277-.907l1.23-1.62a.69.69 0 01.3-.225l1.65-.75a.202.202 0 00.12-.188v-.097A.18.18 0 0019.5 5a.171.171 0 01-.112.105l-2.168.713a.45.45 0 01-.412-.075.442.442 0 01-.09-.593zM7.5 5.135L5.625 2.75a.75.75 0 00-.705-.277l-.255.045a.75.75 0 00-.247.097l-1.275.803a.803.803 0 00-.375.69v1.44a.85.85 0 00.142.465l.345.502a.292.292 0 010 .263A.262.262 0 013 6.95h-.18a.503.503 0 00-.54.69l.143.39a.75.75 0 00.315.383L4.68 9.5a.345.345 0 00.503-.195.345.345 0 01.532-.165l.42.3a.825.825 0 01.263.353l.57 1.432a.795.795 0 010 .615l-.315.825a1.5 1.5 0 01-1.215.975h-.165a1.433 1.433 0 01-.983-.24l-.442-.3a1.012 1.012 0 01-.428-.6l-.06-.293a.143.143 0 10-.277.053l.06.518a1.245 1.245 0 00.517.87l.563.39a1.396 1.396 0 001.125.217l.9-.203a1.5 1.5 0 001.035-.87l.54-1.184c.099-.22.15-.458.15-.698V8.923c0-.366-.118-.72-.338-1.013l-1.2-1.575a.697.697 0 00-.3-.232L4.5 5.375a.217.217 0 01-.12-.195v-.09a.18.18 0 01.345-.075.188.188 0 00.113.113l2.19.75a.42.42 0 00.375-.068.473.473 0 00.097-.675z"/>
    <path fill="#171796" d="M9.472 3.95a.75.75 0 01.75-.75h3.75a.75.75 0 01.75.75v3.247h-5.25V3.95z"/>
    <path fill="#D42E12" d="M9.472 7.198h5.25v3.247a.75.75 0 01-.75.75h-3.75a.75.75 0 01-.75-.75V7.198z"/>
    <path fill="#DFDFDF" d="M9.472 13.197a.405.405 0 01.398-.404h4.455a.405.405 0 010 .802H9.87a.398.398 0 01-.398-.398z"/>
    <path fill="#fff" d="M13.185 4.4a1.11 1.11 0 01-2.175 0c-.012.1-.012.2 0 .3a1.125 1.125 0 102.25 0 1.262 1.262 0 00-.075-.3z"/>
    <path fill="#E9D315" d="M10.972 9.59c.207 0 .375-.178.375-.398 0-.22-.168-.397-.375-.397s-.375.178-.375.397c0 .22.168.398.375.398zm2.25 0c.207 0 .375-.178.375-.398 0-.22-.168-.397-.375-.397s-.375.178-.375.397c0 .22.168.398.375.398z"/>
  </g>
  <defs>
    <clipPath id="clip0">
      <path fill="#fff" d="M0 0h24v16H0z"/>
    </clipPath>
  </defs>
</svg>
