<svg xmlns="http://www.w3.org/2000/svg" width="24" height="16" fill="none" viewBox="0 0 24 16">
  <g clip-path="url(#clip0)">
    <path fill="#F0F0F0" d="M24-.003H0v15.998h24V-.003z"/>
    <path fill="#000" d="M5.348 8L0 2.652v10.695L5.348 8z"/>
    <path fill="#FFDA44" d="M7.553 8L0 .44v2.213L5.348 8 0 13.348v2.212L7.553 8z"/>
    <path fill="#6DA544" d="M23.895 9.568S23.933 9.5 24 9.5V6.433H10.432L3.998-.003H0V.44L7.553 8 0 15.56v.443h3.998l6.434-6.435h13.463z"/>
    <path fill="#0052B4" d="M23.587 11.128H11.085L6.21 16.003H24v-4.875h-.413z"/>
    <path fill="#D80027" d="M23.587 4.872H24V-.003H6.21l4.875 4.875h12.502z"/>
  </g>
  <defs>
    <clipPath id="clip0">
      <path fill="#fff" d="M0 0h24v16H0z"/>
    </clipPath>
  </defs>
</svg>
