<svg xmlns="http://www.w3.org/2000/svg" width="24" height="16" fill="none" viewBox="0 0 24 16">
  <g clip-path="url(#clip0)">
    <path fill="#496E2D" d="M24-.003H0v15.998h24V-.003z"/>
    <path fill="#FF9811" d="M23.002 5.165h-2.25a.75.75 0 10-1.5 0h-2.25a.75.75 0 00.75.75.75.75 0 00.75.75.75.75 0 00.75.75h1.5a.75.75 0 00.75-.75.75.75 0 00.75-.75.75.75 0 00.75-.75z"/>
    <path fill="#D80027" d="M18.668 8h-2.67v8.003h2.67V8z"/>
    <path fill="#FF9811" d="M24.007 8h-2.67v8.003h2.67V8z"/>
    <path fill="#000" d="M21.337 8h-2.67v8.003h2.67V8z"/>
  </g>
  <defs>
    <clipPath id="clip0">
      <path fill="#fff" d="M0 0h24v16H0z"/>
    </clipPath>
  </defs>
</svg>
