<svg width="21" height="21" viewBox="0 0 21 21" fill="none" xmlns="http://www.w3.org/2000/svg">
    <path
        d="M18.5 10H17V6C17 4.89 16.1 4 15 4H11V2.5C11 1.83696 10.7366 1.20107 10.2678 0.732233C9.79893 0.263392 9.16304 0 8.5 0C7.83696 0 7.20107 0.263392 6.73223 0.732233C6.26339 1.20107 6 1.83696 6 2.5V4H2C1.46957 4 0.960859 4.21071 0.585786 4.58579C0.210714 4.96086 0 5.46957 0 6V9.8H1.5C3 9.8 4.2 11 4.2 12.5C4.2 14 3 15.2 1.5 15.2H0V19C0 19.5304 0.210714 20.0391 0.585786 20.4142C0.960859 20.7893 1.46957 21 2 21H5.8V19.5C5.8 18 7 16.8 8.5 16.8C10 16.8 11.2 18 11.2 19.5V21H15C15.5304 21 16.0391 20.7893 16.4142 20.4142C16.7893 20.0391 17 19.5304 17 19V15H18.5C19.163 15 19.7989 14.7366 20.2678 14.2678C20.7366 13.7989 21 13.163 21 12.5C21 11.837 20.7366 11.2011 20.2678 10.7322C19.7989 10.2634 19.163 10 18.5 10Z"
        fill="rgba(230, 230, 230, 1)"
    />
</svg>
