<svg width="188" height="106" viewBox="0 0 188 106" fill="none" xmlns="http://www.w3.org/2000/svg">
    <path
        d="M94 97.168H67.6049C66.546 97.168 65.6797 96.2949 65.6797 95.2277V65.918H94V97.168Z"
        fill="url(#paint0_linear_5235_64770)"
    />
    <path d="M65.592 65.918H94L86.2752 58.1055H57.8672L65.592 65.918Z" fill="#FFE3BA" />
    <path
        d="M94 97.168H120.85C121.927 97.168 122.809 96.2949 122.809 95.2277V65.918H94V97.168Z"
        fill="url(#paint1_linear_5235_64770)"
    />
    <path d="M122.408 65.918H94L101.725 58.1055H130.133L122.408 65.918Z" fill="#FFD390" />
    <path d="M82.7695 89.8438H74.4688V97.168H82.7695V89.8438Z" fill="#FFE3BA" />
    <path d="M120.855 70.3125H112.555V71.2891H120.855V70.3125Z" fill="#FFD390" />
    <path d="M120.855 72.7539H112.555V73.7305H120.855V72.7539Z" fill="#FFD390" />
    <path
        d="M53.9026 31.112L53.4054 30.7302C53.0769 30.4779 52.6061 30.5397 52.3538 30.8683L49.0469 35.1749C48.7946 35.5034 48.8564 35.9742 49.1849 36.2265L49.6821 36.6082C50.0106 36.8605 50.4814 36.7987 50.7337 36.4702L54.0406 32.1635C54.2929 31.835 54.2311 31.3642 53.9026 31.112Z"
        fill="#55E6B2"
    />
    <path
        d="M124.152 32.2469L123.569 32.0153C123.184 31.8623 122.748 32.0503 122.595 32.4353L121.133 36.1144C120.98 36.4993 121.168 36.9354 121.552 37.0884L122.135 37.32C122.52 37.473 122.956 37.285 123.109 36.9L124.572 33.2209C124.725 32.836 124.537 32.3999 124.152 32.2469Z"
        fill="#FFD585"
    />
    <path
        d="M66.7131 42.4877L66.2426 42.9019C65.9317 43.1756 65.9016 43.6495 66.1753 43.9604L69.7633 48.0361C70.037 48.347 70.5109 48.3771 70.8218 48.1034L71.2924 47.6892C71.6033 47.4155 71.6334 46.9416 71.3597 46.6307L67.7716 42.555C67.4979 42.2441 67.024 42.214 66.7131 42.4877Z"
        fill="#6847F2"
    />
    <path
        d="M151.547 43.208L151.252 42.6544C151.058 42.2887 150.604 42.1498 150.238 42.3442L145.443 44.8929C145.078 45.0873 144.939 45.5414 145.133 45.9071L145.427 46.4607C145.622 46.8264 146.076 46.9653 146.442 46.7709L151.236 44.2222C151.602 44.0278 151.741 43.5737 151.547 43.208Z"
        fill="#C867F6"
    />
    <path
        d="M47.149 59.6183C47.9712 59.6183 48.6378 58.9517 48.6378 58.1294C48.6378 57.3072 47.9712 56.6406 47.149 56.6406C46.3267 56.6406 45.6602 57.3072 45.6602 58.1294C45.6602 58.9517 46.3267 59.6183 47.149 59.6183Z"
        fill="#FF69B8"
    />
    <path
        d="M61.2218 12.0885C61.0871 11.8594 60.8412 11.7188 60.5754 11.7188H59.3455C59.0778 11.7188 58.8304 11.8615 58.6963 12.0932L58.0833 13.1529C57.9495 13.3842 57.9489 13.6693 58.0818 13.9012L58.6968 14.975C58.8305 15.2083 59.0788 15.3522 59.3476 15.3522H60.5733C60.8402 15.3522 61.087 15.2103 61.2213 14.9797L61.8468 13.906C61.9833 13.6717 61.9827 13.3819 61.8452 13.1482L61.2218 12.0885Z"
        fill="#FFA8A8"
    />
    <path
        d="M151.065 17.9526C150.931 17.7208 150.683 17.5781 150.415 17.5781H149.189C148.922 17.5781 148.674 17.7208 148.54 17.9526L147.927 19.0123C147.793 19.2436 147.793 19.5287 147.926 19.7606L148.541 20.8343C148.674 21.0676 148.923 21.2116 149.191 21.2116H150.413C150.682 21.2116 150.931 21.0676 151.064 20.8343L151.679 19.7606C151.812 19.5287 151.811 19.2436 151.678 19.0123L151.065 17.9526Z"
        fill="#321E86"
    />
    <path
        d="M33.1555 37.0189C32.8089 36.5559 32.0908 36.6428 31.8647 37.1752L30.9978 39.2171C30.7723 39.7481 31.2058 40.3243 31.7785 40.2548L33.9743 39.9882C34.5468 39.9188 34.83 39.256 34.4844 38.7943L33.1555 37.0189Z"
        fill="#321E86"
    />
    <path
        d="M138.493 64.7556C138.408 64.1858 137.74 63.9207 137.287 64.2774L135.551 65.647C135.097 66.0051 135.202 66.7208 135.74 66.9333L137.802 67.7486C138.339 67.9609 138.905 67.5117 138.82 66.9404L138.493 64.7556Z"
        fill="#FF69B8"
    />
    <path
        d="M89.5997 23.7809C91.2274 22.1532 92.0413 21.3393 92.9798 21.0344C93.8053 20.7662 94.6945 20.7662 95.52 21.0344C96.4585 21.3393 97.2723 22.1532 98.9 23.7809L102.969 27.8498C104.597 29.4775 105.41 30.2913 105.715 31.2298C105.984 32.0553 105.984 32.9445 105.715 33.77C105.41 34.7085 104.597 35.5224 102.969 37.1501L98.9 41.2189C97.2723 42.8466 96.4585 43.6605 95.52 43.9654C94.6945 44.2336 93.8053 44.2336 92.9798 43.9654C92.0413 43.6605 91.2274 42.8466 89.5997 41.2189L88.8347 40.3613C88.3718 39.8423 88.1404 39.5828 87.9753 39.2877C87.829 39.0259 87.7216 38.7442 87.6566 38.4514C87.5833 38.1213 87.5833 37.7736 87.5833 37.0782L87.5833 27.9217C87.5833 27.2262 87.5833 26.8785 87.6566 26.5484C87.7216 26.2556 87.829 25.9739 87.9753 25.7122C88.1403 25.417 88.3718 25.1575 88.8347 24.6385L89.5997 23.7809Z"
        fill="url(#paint2_radial_5235_64770)"
    />
    <path
        d="M89.5997 23.7809C91.2274 22.1532 92.0413 21.3393 92.9798 21.0344C93.8053 20.7662 94.6945 20.7662 95.52 21.0344C96.4585 21.3393 97.2723 22.1532 98.9 23.7809L102.969 27.8498C104.597 29.4775 105.41 30.2913 105.715 31.2298C105.984 32.0553 105.984 32.9445 105.715 33.77C105.41 34.7085 104.597 35.5224 102.969 37.1501L98.9 41.2189C97.2723 42.8466 96.4585 43.6605 95.52 43.9654C94.6945 44.2336 93.8053 44.2336 92.9798 43.9654C92.0413 43.6605 91.2274 42.8466 89.5997 41.2189L88.8347 40.3613C88.3718 39.8423 88.1404 39.5828 87.9753 39.2877C87.829 39.0259 87.7216 38.7442 87.6566 38.4514C87.5833 38.1213 87.5833 37.7736 87.5833 37.0782L87.5833 27.9217C87.5833 27.2262 87.5833 26.8785 87.6566 26.5484C87.7216 26.2556 87.829 25.9739 87.9753 25.7122C88.1403 25.417 88.3718 25.1575 88.8347 24.6385L89.5997 23.7809Z"
        fill="url(#paint3_linear_5235_64770)"
    />
    <path
        d="M89.3091 24.0715C90.123 23.2576 90.5299 22.8507 90.9992 22.6982C91.4119 22.5641 91.8565 22.5641 92.2693 22.6982C92.7385 22.8507 93.1454 23.2576 93.9593 24.0715L100.063 30.1748C100.876 30.9886 101.283 31.3956 101.436 31.8648C101.57 32.2776 101.57 32.7222 101.436 33.1349C101.283 33.6042 100.876 34.0111 100.063 34.8249L93.9593 40.9282C93.1454 41.7421 92.7385 42.149 92.2693 42.3015C91.8565 42.4356 91.4119 42.4356 90.9992 42.3015C90.5299 42.149 90.123 41.7421 89.3091 40.9282L85.5309 37.15C83.9032 35.5223 83.0893 34.7084 82.7844 33.77C82.5162 32.9445 82.5162 32.0552 82.7844 31.2297C83.0893 30.2913 83.9032 29.4774 85.5309 27.8497L89.3091 24.0715Z"
        fill="url(#paint4_radial_5235_64770)"
    />
    <defs>
        <linearGradient
            id="paint0_linear_5235_64770"
            x1="84.397"
            y1="66.1657"
            x2="72.0334"
            y2="97.1022"
            gradientUnits="userSpaceOnUse"
        >
            <stop stop-color="#FFD391" />
            <stop offset="1" stop-color="#FFA26D" />
        </linearGradient>
        <linearGradient
            id="paint1_linear_5235_64770"
            x1="123.078"
            y1="97.168"
            x2="94.234"
            y2="65.8974"
            gradientUnits="userSpaceOnUse"
        >
            <stop stop-color="#FF7E62" />
            <stop offset="1" stop-color="#FFA26D" />
        </linearGradient>
        <radialGradient
            id="paint2_radial_5235_64770"
            cx="0"
            cy="0"
            r="1"
            gradientUnits="userSpaceOnUse"
            gradientTransform="translate(89.6252 44.6213) rotate(-58.142) scale(19.4776 30.459)"
        >
            <stop stop-color="#FFD580" />
            <stop offset="0.09375" stop-color="#F6C592" />
            <stop offset="0.205" stop-color="#EBB6A2" />
            <stop offset="0.324466" stop-color="#DFA5AF" />
            <stop offset="0.42875" stop-color="#D397BE" />
            <stop offset="0.53375" stop-color="#C486CB" />
            <stop offset="0.64875" stop-color="#B578D9" />
            <stop offset="0.77125" stop-color="#A166E5" />
            <stop offset="0.89125" stop-color="#8B57F2" />
            <stop offset="1" stop-color="#704CFF" />
        </radialGradient>
        <linearGradient
            id="paint3_linear_5235_64770"
            x1="88.8216"
            y1="16.2002"
            x2="93.3592"
            y2="43.8987"
            gradientUnits="userSpaceOnUse"
        >
            <stop stop-color="#6D4AFF" />
            <stop offset="0.392009" stop-color="#B39FFB" stop-opacity="0.978022" />
            <stop offset="1" stop-color="#FFE8DB" stop-opacity="0.8" />
        </linearGradient>
        <radialGradient
            id="paint4_radial_5235_64770"
            cx="0"
            cy="0"
            r="1"
            gradientUnits="userSpaceOnUse"
            gradientTransform="translate(87.9143 42.2497) rotate(-58.142) scale(15.6668 24.4996)"
        >
            <stop stop-color="#FFD580" />
            <stop offset="0.09375" stop-color="#F6C592" />
            <stop offset="0.205" stop-color="#EBB6A2" />
            <stop offset="0.324466" stop-color="#DFA5AF" />
            <stop offset="0.42875" stop-color="#D397BE" />
            <stop offset="0.53375" stop-color="#C486CB" />
            <stop offset="0.64875" stop-color="#B578D9" />
            <stop offset="0.77125" stop-color="#A166E5" />
            <stop offset="0.89125" stop-color="#8B57F2" />
            <stop offset="1" stop-color="#704CFF" />
        </radialGradient>
    </defs>
</svg>
