<svg width="16" height="16" viewBox="0 0 16 16" fill="none" xmlns="http://www.w3.org/2000/svg">
    <path
        d="M7.49779 12H2.46133C2.18317 12 1.9524 11.7734 2.00845 11.5029C2.30724 10.0611 3.84234 9.20702 4.39949 8.94059C4.52471 8.88071 4.61675 8.76748 4.6413 8.63166L5.62374 3.1977C5.64623 3.0733 5.60818 2.94567 5.5211 2.85346L4.40688 1.67358C4.16563 1.41811 4.34809 1 4.70083 1H11.302C11.6548 1 11.8372 1.41811 11.596 1.67358L10.4818 2.85346C10.3947 2.94567 10.3567 3.0733 10.3791 3.1977L11.3616 8.63166C11.3862 8.76748 11.4782 8.88071 11.6034 8.94059C12.1606 9.20702 13.6928 10.0582 13.9915 11.5C14.0476 11.7705 13.8168 11.9971 13.5387 11.9971L8.50509 12V15.5C8.50509 15.7761 8.2796 16 8.00144 16C7.72328 16 7.49779 15.7761 7.49779 15.5V12Z"
        fill="#7777f8"
    />
</svg>
