<svg width="32" height="32" viewBox="0 0 32 32" fill="none" xmlns="http://www.w3.org/2000/svg">
    <path
        d="M11.6156 7.77921C13.1503 6.24452 13.9177 5.47717 14.8025 5.18967C15.5808 4.93678 16.4192 4.93678 17.1976 5.18967C18.0824 5.47718 18.8498 6.24452 20.3845 7.77921L24.2208 11.6156C25.7555 13.1503 26.5229 13.9176 26.8104 14.8025C27.0633 15.5808 27.0633 16.4192 26.8104 17.1975C26.5229 18.0824 25.7555 18.8497 24.2208 20.3844L20.3845 24.2208C18.8498 25.7555 18.0824 26.5228 17.1976 26.8103C16.4192 27.0632 15.5808 27.0632 14.8025 26.8103C13.9177 26.5228 13.1503 25.7555 11.6156 24.2208L10.8943 23.4122C10.4579 22.9228 10.2396 22.6782 10.084 22.3999C9.94602 22.1531 9.84477 21.8875 9.78347 21.6114C9.71436 21.3002 9.71436 20.9723 9.71436 20.3166L9.71436 11.6834C9.71435 11.0277 9.71435 10.6998 9.78347 10.3886C9.84476 10.1125 9.94601 9.84691 10.084 9.60011C10.2396 9.32184 10.4579 9.07717 10.8943 8.58784L11.6156 7.77921Z"
        fill="url(#paint0_radial_5926_832)"
    />
    <path
        d="M11.6156 7.77921C13.1503 6.24452 13.9177 5.47717 14.8025 5.18967C15.5808 4.93678 16.4192 4.93678 17.1976 5.18967C18.0824 5.47718 18.8498 6.24452 20.3845 7.77921L24.2208 11.6156C25.7555 13.1503 26.5229 13.9176 26.8104 14.8025C27.0633 15.5808 27.0633 16.4192 26.8104 17.1975C26.5229 18.0824 25.7555 18.8497 24.2208 20.3844L20.3845 24.2208C18.8498 25.7555 18.0824 26.5228 17.1976 26.8103C16.4192 27.0632 15.5808 27.0632 14.8025 26.8103C13.9177 26.5228 13.1503 25.7555 11.6156 24.2208L10.8943 23.4122C10.4579 22.9228 10.2396 22.6782 10.084 22.3999C9.94602 22.1531 9.84477 21.8875 9.78347 21.6114C9.71436 21.3002 9.71436 20.9723 9.71436 20.3166L9.71436 11.6834C9.71435 11.0277 9.71435 10.6998 9.78347 10.3886C9.84476 10.1125 9.94601 9.84691 10.084 9.60011C10.2396 9.32184 10.4579 9.07717 10.8943 8.58784L11.6156 7.77921Z"
        fill="url(#paint1_linear_5926_832)"
    />
    <path
        d="M11.3416 8.05294C12.1089 7.28559 12.4926 6.90192 12.935 6.75817C13.3242 6.63172 13.7434 6.63172 14.1325 6.75817C14.575 6.90192 14.9586 7.28559 15.726 8.05294L21.4805 13.8075C22.2479 14.5748 22.6315 14.9585 22.7753 15.4009C22.9017 15.7901 22.9017 16.2093 22.7753 16.5985C22.6315 17.0409 22.2479 17.4246 21.4805 18.1919L15.726 23.9465C14.9586 24.7138 14.575 25.0975 14.1325 25.2412C13.7434 25.3677 13.3242 25.3677 12.935 25.2412C12.4926 25.0975 12.1089 24.7138 11.3416 23.9465L7.77921 20.3841C6.24452 18.8494 5.47717 18.0821 5.18967 17.1972C4.93678 16.4189 4.93678 15.5805 5.18967 14.8022C5.47718 13.9173 6.24452 13.15 7.77921 11.6153L11.3416 8.05294Z"
        fill="url(#paint2_radial_5926_832)"
    />
    <defs>
        <radialGradient
            id="paint0_radial_5926_832"
            cx="0"
            cy="0"
            r="1"
            gradientUnits="userSpaceOnUse"
            gradientTransform="translate(11.6396 27.4288) rotate(-58.142) scale(18.3646 28.7185)"
        >
            <stop stop-color="#FFD580" />
            <stop offset="0.09375" stop-color="#F6C592" />
            <stop offset="0.205" stop-color="#EBB6A2" />
            <stop offset="0.324466" stop-color="#DFA5AF" />
            <stop offset="0.42875" stop-color="#D397BE" />
            <stop offset="0.53375" stop-color="#C486CB" />
            <stop offset="0.64875" stop-color="#B578D9" />
            <stop offset="0.77125" stop-color="#A166E5" />
            <stop offset="0.89125" stop-color="#8B57F2" />
            <stop offset="1" stop-color="#704CFF" />
        </radialGradient>
        <linearGradient
            id="paint1_linear_5926_832"
            x1="10.8819"
            y1="0.631665"
            x2="15.1603"
            y2="26.7474"
            gradientUnits="userSpaceOnUse"
        >
            <stop stop-color="#6D4AFF" />
            <stop offset="0.392009" stop-color="#B39FFB" stop-opacity="0.978022" />
            <stop offset="1" stop-color="#FFE8DB" stop-opacity="0.8" />
        </linearGradient>
        <radialGradient
            id="paint2_radial_5926_832"
            cx="0"
            cy="0"
            r="1"
            gradientUnits="userSpaceOnUse"
            gradientTransform="translate(10.0264 25.1924) rotate(-58.142) scale(14.7715 23.0997)"
        >
            <stop stop-color="#FFD580" />
            <stop offset="0.09375" stop-color="#F6C592" />
            <stop offset="0.205" stop-color="#EBB6A2" />
            <stop offset="0.324466" stop-color="#DFA5AF" />
            <stop offset="0.42875" stop-color="#D397BE" />
            <stop offset="0.53375" stop-color="#C486CB" />
            <stop offset="0.64875" stop-color="#B578D9" />
            <stop offset="0.77125" stop-color="#A166E5" />
            <stop offset="0.89125" stop-color="#8B57F2" />
            <stop offset="1" stop-color="#704CFF" />
        </radialGradient>
    </defs>
</svg>
