<svg width="24" height="24" viewBox="0 0 23 22" fill="none" xmlns="http://www.w3.org/2000/svg">
    <path
        d="M7.11559 2.77921C8.65028 1.24452 9.41762 0.477175 10.3025 0.189671C11.0808 -0.0632238 11.9192 -0.0632238 12.6975 0.189672C13.5824 0.477175 14.3497 1.24452 15.8844 2.77921L19.7208 6.61558C21.2555 8.15027 22.0228 8.91762 22.3103 9.80246C22.5632 10.5808 22.5632 11.4192 22.3103 12.1975C22.0228 13.0824 21.2555 13.8497 19.7208 15.3844L15.8844 19.2208C14.3497 20.7555 13.5824 21.5228 12.6975 21.8103C11.9192 22.0632 11.0808 22.0632 10.3025 21.8103C9.41762 21.5228 8.65028 20.7555 7.11559 19.2208L6.3943 18.4122C5.95783 17.9228 5.73959 17.6782 5.58399 17.3999C5.44599 17.1531 5.34474 16.8875 5.28344 16.6114C5.21433 16.3002 5.21433 15.9723 5.21433 15.3166L5.21432 6.68338C5.21432 6.02767 5.21432 5.69981 5.28344 5.38857C5.34473 5.11253 5.44598 4.84691 5.58399 4.60011C5.73959 4.32184 5.95783 4.07717 6.3943 3.58784L7.11559 2.77921Z"
        fill="url(#paint0_radial_5821_9602)"
    />
    <path
        d="M7.11559 2.77921C8.65028 1.24452 9.41762 0.477175 10.3025 0.189671C11.0808 -0.0632238 11.9192 -0.0632238 12.6975 0.189672C13.5824 0.477175 14.3497 1.24452 15.8844 2.77921L19.7208 6.61558C21.2555 8.15027 22.0228 8.91762 22.3103 9.80246C22.5632 10.5808 22.5632 11.4192 22.3103 12.1975C22.0228 13.0824 21.2555 13.8497 19.7208 15.3844L15.8844 19.2208C14.3497 20.7555 13.5824 21.5228 12.6975 21.8103C11.9192 22.0632 11.0808 22.0632 10.3025 21.8103C9.41762 21.5228 8.65028 20.7555 7.11559 19.2208L6.3943 18.4122C5.95783 17.9228 5.73959 17.6782 5.58399 17.3999C5.44599 17.1531 5.34474 16.8875 5.28344 16.6114C5.21433 16.3002 5.21433 15.9723 5.21433 15.3166L5.21432 6.68338C5.21432 6.02767 5.21432 5.69981 5.28344 5.38857C5.34473 5.11253 5.44598 4.84691 5.58399 4.60011C5.73959 4.32184 5.95783 4.07717 6.3943 3.58784L7.11559 2.77921Z"
        fill="url(#paint1_linear_5821_9602)"
    />
    <path
        d="M6.84156 3.05301C7.6089 2.28567 7.99257 1.90199 8.435 1.75824C8.82416 1.63179 9.24337 1.63179 9.63253 1.75824C10.075 1.90199 10.4586 2.28567 11.226 3.05301L16.9805 8.80756C17.7479 9.57491 18.1315 9.95858 18.2753 10.401C18.4017 10.7902 18.4017 11.2094 18.2753 11.5985C18.1315 12.041 17.7479 12.4246 16.9805 13.192L11.226 18.9465C10.4586 19.7139 10.075 20.0976 9.63253 20.2413C9.24337 20.3678 8.82416 20.3678 8.43499 20.2413C7.99257 20.0976 7.6089 19.7139 6.84155 18.9465L3.27921 15.3842C1.74452 13.8495 0.977175 13.0822 0.689671 12.1973C0.436776 11.419 0.436776 10.5806 0.689672 9.80223C0.977175 8.91739 1.74452 8.15004 3.27921 6.61535L6.84156 3.05301Z"
        fill="url(#paint2_radial_5821_9602)"
    />
    <defs>
        <radialGradient
            id="paint0_radial_5821_9602"
            cx="0"
            cy="0"
            r="1"
            gradientUnits="userSpaceOnUse"
            gradientTransform="translate(7.1396 22.4288) rotate(-58.142) scale(18.3646 28.7185)"
        >
            <stop stop-color="#FFD580" />
            <stop offset="0.09375" stop-color="#F6C592" />
            <stop offset="0.205" stop-color="#EBB6A2" />
            <stop offset="0.324466" stop-color="#DFA5AF" />
            <stop offset="0.42875" stop-color="#D397BE" />
            <stop offset="0.53375" stop-color="#C486CB" />
            <stop offset="0.64875" stop-color="#B578D9" />
            <stop offset="0.77125" stop-color="#A166E5" />
            <stop offset="0.89125" stop-color="#8B57F2" />
            <stop offset="1" stop-color="#704CFF" />
        </radialGradient>
        <linearGradient
            id="paint1_linear_5821_9602"
            x1="6.38189"
            y1="-4.36833"
            x2="10.6602"
            y2="21.7474"
            gradientUnits="userSpaceOnUse"
        >
            <stop stop-color="#6D4AFF" />
            <stop offset="0.392009" stop-color="#B39FFB" stop-opacity="0.978022" />
            <stop offset="1" stop-color="#FFE8DB" stop-opacity="0.8" />
        </linearGradient>
        <radialGradient
            id="paint2_radial_5821_9602"
            cx="0"
            cy="0"
            r="1"
            gradientUnits="userSpaceOnUse"
            gradientTransform="translate(5.52643 20.1925) rotate(-58.142) scale(14.7715 23.0997)"
        >
            <stop stop-color="#FFD580" />
            <stop offset="0.09375" stop-color="#F6C592" />
            <stop offset="0.205" stop-color="#EBB6A2" />
            <stop offset="0.324466" stop-color="#DFA5AF" />
            <stop offset="0.42875" stop-color="#D397BE" />
            <stop offset="0.53375" stop-color="#C486CB" />
            <stop offset="0.64875" stop-color="#B578D9" />
            <stop offset="0.77125" stop-color="#A166E5" />
            <stop offset="0.89125" stop-color="#8B57F2" />
            <stop offset="1" stop-color="#704CFF" />
        </radialGradient>
    </defs>
</svg>
