<svg width="18" height="18" viewBox="0 0 18 18" fill="none" xmlns="http://www.w3.org/2000/svg">
    <mask id="mask0_1_46" style="mask-type: luminance" maskUnits="userSpaceOnUse" x="1" y="1" width="16" height="16">
        <path d="M17 1H1V17H17V1Z" fill="white" />
    </mask>
    <g mask="url(#mask0_1_46)">
        <path
            d="M5.81145 3.02124C6.92759 1.90511 7.48565 1.34704 8.12918 1.13794C8.69524 0.95402 9.305 0.95402 9.8711 1.13794C10.5146 1.34704 11.0726 1.90511 12.1888 3.02124L14.9789 5.81133C16.095 6.92747 16.6531 7.48554 16.8622 8.12906C17.0461 8.69512 17.0461 9.3049 16.8622 9.8709C16.6531 10.5145 16.095 11.0725 14.9789 12.1887L12.1888 14.9788C11.0726 16.0949 10.5146 16.653 9.8711 16.8621C9.305 17.046 8.69524 17.046 8.12918 16.8621C7.48565 16.653 6.92759 16.0949 5.81145 14.9788L5.28688 14.3907C4.96944 14.0348 4.81072 13.8568 4.69756 13.6545C4.59719 13.475 4.52356 13.2818 4.47898 13.081C4.42872 12.8547 4.42872 12.6162 4.42872 12.1394L4.42871 5.86064C4.42871 5.38376 4.42871 5.14532 4.47897 4.91896C4.52355 4.71821 4.59719 4.52503 4.69756 4.34553C4.81072 4.14316 4.96944 3.96522 5.28688 3.60934L5.81145 3.02124Z"
            fill="url(#paint0_radial_1_46)"
        />
        <path
            d="M5.81145 3.02124C6.92759 1.90511 7.48565 1.34704 8.12918 1.13794C8.69524 0.95402 9.305 0.95402 9.8711 1.13794C10.5146 1.34704 11.0726 1.90511 12.1888 3.02124L14.9789 5.81133C16.095 6.92747 16.6531 7.48554 16.8622 8.12906C17.0461 8.69512 17.0461 9.3049 16.8622 9.8709C16.6531 10.5145 16.095 11.0725 14.9789 12.1887L12.1888 14.9788C11.0726 16.0949 10.5146 16.653 9.8711 16.8621C9.305 17.046 8.69524 17.046 8.12918 16.8621C7.48565 16.653 6.92759 16.0949 5.81145 14.9788L5.28688 14.3907C4.96944 14.0348 4.81072 13.8568 4.69756 13.6545C4.59719 13.475 4.52356 13.2818 4.47898 13.081C4.42872 12.8547 4.42872 12.6162 4.42872 12.1394L4.42871 5.86064C4.42871 5.38376 4.42871 5.14532 4.47897 4.91896C4.52355 4.71821 4.59719 4.52503 4.69756 4.34553C4.81072 4.14316 4.96944 3.96522 5.28688 3.60934L5.81145 3.02124Z"
            fill="url(#paint1_linear_1_46)"
        />
        <path
            d="M5.61204 3.22038C6.17011 2.66232 6.44914 2.38328 6.77091 2.27873C7.05393 2.18677 7.35881 2.18677 7.64184 2.27873C7.9636 2.38328 8.24264 2.66232 8.80071 3.22038L12.9858 7.40551C13.5439 7.96358 13.8229 8.24262 13.9275 8.56438C14.0195 8.84741 14.0195 9.1523 13.9275 9.4353C13.8229 9.7571 13.5439 10.0361 12.9858 10.5942L8.80071 14.7793C8.24264 15.3374 7.9636 15.6164 7.64184 15.721C7.35881 15.8129 7.05393 15.8129 6.7709 15.721C6.44914 15.6164 6.17011 15.3374 5.61204 14.7793L3.02124 12.1885C1.90511 11.0724 1.34704 10.5143 1.13794 9.8708C0.95402 9.3047 0.95402 8.69497 1.13794 8.12891C1.34704 7.48539 1.90511 6.92732 3.02124 5.81118L5.61204 3.22038Z"
            fill="url(#paint2_radial_1_46)"
        />
    </g>
    <path
        d="M13.75 8.8889V9.75H13H12.25V8.8889C12.25 8.5397 12.5019 8.25038 13 8.25038C13.4981 8.25038 13.75 8.5397 13.75 8.8889ZM17.25 11.5C17.25 11.0061 17.0106 10.5749 16.7178 10.2822C16.5872 10.1515 16.429 10.0315 16.25 9.9387V8.8889C16.25 7.02156 14.7444 5.75 13 5.75C11.2556 5.75 9.75 7.02156 9.75 8.8889V9.9387C9.571 10.0315 9.4128 10.1515 9.2822 10.2822C8.9894 10.5749 8.75 11.0061 8.75 11.5V15.5C8.75 15.9939 8.9894 16.4251 9.2822 16.7178C9.5749 17.0106 10.0061 17.25 10.5 17.25H15.5C15.9939 17.25 16.4251 17.0106 16.7178 16.7178C17.0106 16.4251 17.25 15.9939 17.25 15.5V11.5Z"
        fill="black"
        stroke="white"
        stroke-width="1.5"
    />
    <defs>
        <radialGradient
            id="paint0_radial_1_46"
            cx="0"
            cy="0"
            r="1"
            gradientUnits="userSpaceOnUse"
            gradientTransform="translate(5.82891 17.3118) rotate(-58.142) scale(13.3561 20.8862)"
        >
            <stop stop-color="#FFD580" />
            <stop offset="0.09375" stop-color="#F6C592" />
            <stop offset="0.205" stop-color="#EBB6A2" />
            <stop offset="0.324466" stop-color="#DFA5AF" />
            <stop offset="0.42875" stop-color="#D397BE" />
            <stop offset="0.53375" stop-color="#C486CB" />
            <stop offset="0.64875" stop-color="#B578D9" />
            <stop offset="0.77125" stop-color="#A166E5" />
            <stop offset="0.89125" stop-color="#8B57F2" />
            <stop offset="1" stop-color="#704CFF" />
        </radialGradient>
        <linearGradient
            id="paint1_linear_1_46"
            x1="5.27785"
            y1="-2.17697"
            x2="8.38938"
            y2="16.8163"
            gradientUnits="userSpaceOnUse"
        >
            <stop stop-color="#6D4AFF" />
            <stop offset="0.392009" stop-color="#B39FFB" stop-opacity="0.978022" />
            <stop offset="1" stop-color="#FFE8DB" stop-opacity="0.8" />
        </linearGradient>
        <radialGradient
            id="paint2_radial_1_46"
            cx="0"
            cy="0"
            r="1"
            gradientUnits="userSpaceOnUse"
            gradientTransform="translate(4.65559 15.6854) rotate(-58.142) scale(10.7429 16.7998)"
        >
            <stop stop-color="#FFD580" />
            <stop offset="0.09375" stop-color="#F6C592" />
            <stop offset="0.205" stop-color="#EBB6A2" />
            <stop offset="0.324466" stop-color="#DFA5AF" />
            <stop offset="0.42875" stop-color="#D397BE" />
            <stop offset="0.53375" stop-color="#C486CB" />
            <stop offset="0.64875" stop-color="#B578D9" />
            <stop offset="0.77125" stop-color="#A166E5" />
            <stop offset="0.89125" stop-color="#8B57F2" />
            <stop offset="1" stop-color="#704CFF" />
        </radialGradient>
    </defs>
</svg>
