<svg width="18" height="18" viewBox="0 0 18 18" fill="none" xmlns="http://www.w3.org/2000/svg">
    <path
        d="M12.1888 3.02125L14.9789 5.81133C16.095 6.92747 16.6531 7.48554 16.8622 8.12906C17.0461 8.69512 17.0461 9.30488 16.8622 9.87094C16.6531 10.5145 16.095 11.0725 14.9789 12.1887L12.1888 14.9788C11.0726 16.0949 10.5146 16.653 9.87105 16.8621C9.30499 17.046 8.69524 17.046 8.12918 16.8621C7.48565 16.653 6.92758 16.0949 5.81145 14.9788L3.02124 12.1884C1.90511 11.0722 1.34704 10.5142 1.13794 9.87064C0.954019 9.30458 0.954019 8.69483 1.13794 8.12877C1.34704 7.48524 1.90511 6.92717 3.02125 5.81104L5.81145 3.02124C6.92759 1.90511 7.48565 1.34704 8.12918 1.13794C8.69524 0.954019 9.30499 0.954019 9.87105 1.13794C10.5146 1.34704 11.0726 1.90511 12.1888 3.02125Z"
        fill="url(#paint0_radial_1_67)"
    />
    <defs>
        <radialGradient
            id="paint0_radial_1_67"
            cx="0"
            cy="0"
            r="1"
            gradientUnits="userSpaceOnUse"
            gradientTransform="translate(5.82881 17.3118) rotate(-58.1418) scale(13.3561 20.8863)"
        >
            <stop stop-color="#FFD580" />
            <stop offset="0.09375" stop-color="#F6C592" />
            <stop offset="0.205" stop-color="#EBB6A2" />
            <stop offset="0.324466" stop-color="#DFA5AF" />
            <stop offset="0.42875" stop-color="#D397BE" />
            <stop offset="0.53375" stop-color="#C486CB" />
            <stop offset="0.64875" stop-color="#B578D9" />
            <stop offset="0.77125" stop-color="#A166E5" />
            <stop offset="0.89125" stop-color="#8B57F2" />
            <stop offset="1" stop-color="#704CFF" />
        </radialGradient>
    </defs>
</svg>
