<svg width="18" height="18" viewBox="0 0 18 18" fill="none" xmlns="http://www.w3.org/2000/svg">
    <mask id="mask0_4_2" style="mask-type: alpha" maskUnits="userSpaceOnUse" x="1" y="1" width="16" height="16">
        <path
            fill-rule="evenodd"
            clip-rule="evenodd"
            d="M17 1H1V17H8.03178C8.01086 16.8747 8 16.7465 8 16.6161V12.0199C8 11.1467 8.48678 10.3692 9.22253 9.95398C9.25023 7.68337 10.5 5.25 13.5 5.25C15.1916 5.25 16.3267 6.02364 17 7.10552V1Z"
            fill="black"
        />
    </mask>
    <g mask="url(#mask0_4_2)">
        <mask id="mask1_4_2" style="mask-type: luminance" maskUnits="userSpaceOnUse" x="1" y="1" width="16" height="16">
            <path d="M17 1H1V17H17V1Z" fill="white" />
        </mask>
        <g mask="url(#mask1_4_2)">
            <path
                d="M5.81145 3.02124C6.92759 1.90511 7.48565 1.34704 8.12918 1.13794C8.69524 0.954019 9.30499 0.954019 9.87105 1.13794C10.5146 1.34704 11.0726 1.90511 12.1888 3.02125L14.9789 5.81133C16.095 6.92747 16.6531 7.48554 16.8622 8.12906C17.0461 8.69512 17.0461 9.30488 16.8622 9.87094C16.6531 10.5145 16.095 11.0725 14.9789 12.1887L12.1888 14.9788C11.0726 16.0949 10.5146 16.653 9.87105 16.8621C9.30499 17.046 8.69524 17.046 8.12918 16.8621C7.48565 16.653 6.92759 16.0949 5.81145 14.9788L5.28688 14.3907C4.96944 14.0348 4.81072 13.8568 4.69756 13.6545C4.59719 13.475 4.52356 13.2818 4.47898 13.081C4.42872 12.8547 4.42872 12.6162 4.42872 12.1394L4.42871 5.86064C4.42871 5.38376 4.42871 5.14532 4.47897 4.91896C4.52355 4.71821 4.59719 4.52503 4.69756 4.34553C4.81072 4.14316 4.96944 3.96522 5.28688 3.60934L5.81145 3.02124Z"
                fill="url(#paint0_radial_4_2)"
            />
            <path
                d="M5.81145 3.02124C6.92759 1.90511 7.48565 1.34704 8.12918 1.13794C8.69524 0.954019 9.30499 0.954019 9.87105 1.13794C10.5146 1.34704 11.0726 1.90511 12.1888 3.02125L14.9789 5.81133C16.095 6.92747 16.6531 7.48554 16.8622 8.12906C17.0461 8.69512 17.0461 9.30488 16.8622 9.87094C16.6531 10.5145 16.095 11.0725 14.9789 12.1887L12.1888 14.9788C11.0726 16.0949 10.5146 16.653 9.87105 16.8621C9.30499 17.046 8.69524 17.046 8.12918 16.8621C7.48565 16.653 6.92759 16.0949 5.81145 14.9788L5.28688 14.3907C4.96944 14.0348 4.81072 13.8568 4.69756 13.6545C4.59719 13.475 4.52356 13.2818 4.47898 13.081C4.42872 12.8547 4.42872 12.6162 4.42872 12.1394L4.42871 5.86064C4.42871 5.38376 4.42871 5.14532 4.47897 4.91896C4.52355 4.71821 4.59719 4.52503 4.69756 4.34553C4.81072 4.14316 4.96944 3.96522 5.28688 3.60934L5.81145 3.02124Z"
                fill="url(#paint1_linear_4_2)"
            />
            <path
                d="M5.61204 3.22038C6.17011 2.66232 6.44914 2.38328 6.77091 2.27873C7.05394 2.18677 7.35881 2.18677 7.64184 2.27873C7.9636 2.38328 8.24264 2.66232 8.80071 3.22038L12.9858 7.40551C13.5439 7.96358 13.8229 8.24262 13.9275 8.56438C14.0195 8.84741 14.0195 9.15229 13.9275 9.43532C13.8229 9.75708 13.5439 10.0361 12.9858 10.5942L8.80071 14.7793C8.24264 15.3374 7.9636 15.6164 7.64184 15.721C7.35881 15.8129 7.05393 15.8129 6.7709 15.721C6.44914 15.6164 6.17011 15.3374 5.61204 14.7793L3.02124 12.1885C1.90511 11.0724 1.34704 10.5143 1.13794 9.87078C0.954019 9.30472 0.954019 8.69497 1.13794 8.12891C1.34704 7.48539 1.90511 6.92732 3.02124 5.81118L5.61204 3.22038Z"
                fill="url(#paint2_radial_4_2)"
            />
        </g>
    </g>
    <path
        fill-rule="evenodd"
        clip-rule="evenodd"
        d="M16 11C16.5 11 17 11.5 17 12V16C17 16.5 16.5 17 16 17H11C10.5 17 10 16.5 10 16V12C10 11.5 10.5 11 11 11V9.38889C11 7.98458 12.1193 7 13.5 7C14.8807 7 16 7.98458 16 9.38889V11ZM12 11H13.5H15V9.38889C15 8.5463 14.3284 8.00038 13.5 8.00038C12.6716 8.00038 12 8.5463 12 9.38889V11Z"
        fill="white"
    />
    <defs>
        <radialGradient
            id="paint0_radial_4_2"
            cx="0"
            cy="0"
            r="1"
            gradientUnits="userSpaceOnUse"
            gradientTransform="translate(5.82891 17.3118) rotate(-58.142) scale(13.3561 20.8862)"
        >
            <stop stop-color="#FFD580" />
            <stop offset="0.09375" stop-color="#F6C592" />
            <stop offset="0.205" stop-color="#EBB6A2" />
            <stop offset="0.324466" stop-color="#DFA5AF" />
            <stop offset="0.42875" stop-color="#D397BE" />
            <stop offset="0.53375" stop-color="#C486CB" />
            <stop offset="0.64875" stop-color="#B578D9" />
            <stop offset="0.77125" stop-color="#A166E5" />
            <stop offset="0.89125" stop-color="#8B57F2" />
            <stop offset="1" stop-color="#704CFF" />
        </radialGradient>
        <linearGradient
            id="paint1_linear_4_2"
            x1="5.27785"
            y1="-2.17697"
            x2="8.38938"
            y2="16.8163"
            gradientUnits="userSpaceOnUse"
        >
            <stop stop-color="#6D4AFF" />
            <stop offset="0.392009" stop-color="#B39FFB" stop-opacity="0.978022" />
            <stop offset="1" stop-color="#FFE8DB" stop-opacity="0.8" />
        </linearGradient>
        <radialGradient
            id="paint2_radial_4_2"
            cx="0"
            cy="0"
            r="1"
            gradientUnits="userSpaceOnUse"
            gradientTransform="translate(4.65559 15.6854) rotate(-58.142) scale(10.7429 16.7998)"
        >
            <stop stop-color="#FFD580" />
            <stop offset="0.09375" stop-color="#F6C592" />
            <stop offset="0.205" stop-color="#EBB6A2" />
            <stop offset="0.324466" stop-color="#DFA5AF" />
            <stop offset="0.42875" stop-color="#D397BE" />
            <stop offset="0.53375" stop-color="#C486CB" />
            <stop offset="0.64875" stop-color="#B578D9" />
            <stop offset="0.77125" stop-color="#A166E5" />
            <stop offset="0.89125" stop-color="#8B57F2" />
            <stop offset="1" stop-color="#704CFF" />
        </radialGradient>
    </defs>
</svg>
