<svg width="512" height="512" viewBox="0 0 512 512" fill="none" xmlns="http://www.w3.org/2000/svg">
    <path
        d="M153.963 64.6798C189.679 28.9634 207.537 11.1052 228.13 4.41417C246.244 -1.47139 265.756 -1.47139 283.87 4.41417C304.463 11.1052 322.321 28.9634 358.037 64.6798L447.32 153.963C483.037 189.679 500.895 207.537 507.586 228.13C513.471 246.244 513.471 265.756 507.586 283.87C500.895 304.463 483.037 322.321 447.32 358.037L358.037 447.32C322.321 483.037 304.463 500.895 283.87 507.586C265.756 513.471 246.244 513.471 228.13 507.586C207.537 500.895 189.679 483.037 153.962 447.32L137.176 428.501C127.018 417.113 121.939 411.419 118.318 404.943C115.106 399.199 112.75 393.017 111.324 386.593C109.715 379.35 109.715 371.72 109.715 356.46L109.715 155.541C109.715 140.28 109.715 132.65 111.323 125.407C112.75 118.983 115.106 112.801 118.318 107.057C121.939 100.581 127.018 94.887 137.176 83.4988L153.963 64.6798Z"
        fill="url(#paint0_radial_3371_26980)"
    />
    <path
        d="M153.963 64.6798C189.679 28.9634 207.537 11.1052 228.13 4.41417C246.244 -1.47139 265.756 -1.47139 283.87 4.41417C304.463 11.1052 322.321 28.9634 358.037 64.6798L447.32 153.963C483.037 189.679 500.895 207.537 507.586 228.13C513.471 246.244 513.471 265.756 507.586 283.87C500.895 304.463 483.037 322.321 447.32 358.037L358.037 447.32C322.321 483.037 304.463 500.895 283.87 507.586C265.756 513.471 246.244 513.471 228.13 507.586C207.537 500.895 189.679 483.037 153.962 447.32L137.176 428.501C127.018 417.113 121.939 411.419 118.318 404.943C115.106 399.199 112.75 393.017 111.324 386.593C109.715 379.35 109.715 371.72 109.715 356.46L109.715 155.541C109.715 140.28 109.715 132.65 111.323 125.407C112.75 118.983 115.106 112.801 118.318 107.057C121.939 100.581 127.018 94.887 137.176 83.4988L153.963 64.6798Z"
        fill="url(#paint1_linear_3371_26980)"
    />
    <path
        d="M147.585 71.0519C165.443 53.1937 174.373 44.2646 184.669 40.9191C193.726 37.9764 203.482 37.9764 212.539 40.9191C222.835 44.2646 231.764 53.1937 249.623 71.052L383.547 204.976C401.405 222.834 410.334 231.763 413.68 242.06C416.622 251.117 416.622 260.873 413.68 269.93C410.334 280.226 401.405 289.155 383.547 307.013L249.623 440.938C231.764 458.796 222.835 467.725 212.539 471.07C203.482 474.013 193.726 474.013 184.669 471.07C174.373 467.725 165.443 458.796 147.585 440.938L64.6798 358.032C28.9634 322.316 11.1052 304.457 4.41417 283.865C-1.47139 265.751 -1.47139 246.239 4.41417 228.125C11.1052 207.532 28.9634 189.674 64.6798 153.957L147.585 71.0519Z"
        fill="url(#paint2_radial_3371_26980)"
    />
    <defs>
        <radialGradient
            id="paint0_radial_3371_26980"
            cx="0"
            cy="0"
            r="1"
            gradientUnits="userSpaceOnUse"
            gradientTransform="translate(154.521 521.978) rotate(-58.142) scale(427.395 668.358)"
        >
            <stop stop-color="#FFD580" />
            <stop offset="0.09375" stop-color="#F6C592" />
            <stop offset="0.205" stop-color="#EBB6A2" />
            <stop offset="0.324466" stop-color="#DFA5AF" />
            <stop offset="0.42875" stop-color="#D397BE" />
            <stop offset="0.53375" stop-color="#C486CB" />
            <stop offset="0.64875" stop-color="#B578D9" />
            <stop offset="0.77125" stop-color="#A166E5" />
            <stop offset="0.89125" stop-color="#8B57F2" />
            <stop offset="1" stop-color="#704CFF" />
        </radialGradient>
        <linearGradient
            id="paint1_linear_3371_26980"
            x1="136.887"
            y1="-101.663"
            x2="236.456"
            y2="506.122"
            gradientUnits="userSpaceOnUse"
        >
            <stop stop-color="#6D4AFF" />
            <stop offset="0.392009" stop-color="#B39FFB" stop-opacity="0.978022" />
            <stop offset="1" stop-color="#FFE8DB" stop-opacity="0.8" />
        </linearGradient>
        <radialGradient
            id="paint2_radial_3371_26980"
            cx="0"
            cy="0"
            r="1"
            gradientUnits="userSpaceOnUse"
            gradientTransform="translate(116.979 469.934) rotate(-58.142) scale(343.774 537.592)"
        >
            <stop stop-color="#FFD580" />
            <stop offset="0.09375" stop-color="#F6C592" />
            <stop offset="0.205" stop-color="#EBB6A2" />
            <stop offset="0.324466" stop-color="#DFA5AF" />
            <stop offset="0.42875" stop-color="#D397BE" />
            <stop offset="0.53375" stop-color="#C486CB" />
            <stop offset="0.64875" stop-color="#B578D9" />
            <stop offset="0.77125" stop-color="#A166E5" />
            <stop offset="0.89125" stop-color="#8B57F2" />
            <stop offset="1" stop-color="#704CFF" />
        </radialGradient>
    </defs>
</svg>
