<svg width="16" height="16" viewBox="0 0 16 16" fill="none" xmlns="http://www.w3.org/2000/svg">
    <path
        d="M11.1888 2.02125L13.9789 4.81133C15.095 5.92747 15.6531 6.48554 15.8622 7.12906C16.0461 7.69512 16.0461 8.30488 15.8622 8.87094C15.6531 9.51446 15.095 10.0725 13.9789 11.1887L11.1888 13.9788C10.0726 15.0949 9.51457 15.653 8.87105 15.8621C8.30499 16.046 7.69524 16.046 7.12918 15.8621C6.48565 15.653 5.92758 15.0949 4.81145 13.9788L2.02124 11.1884C0.90511 10.0722 0.347036 9.51416 0.137943 8.87064C-0.045981 8.30458 -0.0459809 7.69483 0.137943 7.12877C0.347037 6.48524 0.905106 5.92717 2.02125 4.81104L4.81145 2.02124C5.92759 0.905106 6.48565 0.347036 7.12918 0.137943C7.69524 -0.045981 8.30499 -0.0459809 8.87105 0.137943C9.51458 0.347036 10.0726 0.905106 11.1888 2.02125Z"
        fill="url(#paint0_radial_6378_76797)"
    />
    <defs>
        <radialGradient
            id="paint0_radial_6378_76797"
            cx="0"
            cy="0"
            r="1"
            gradientUnits="userSpaceOnUse"
            gradientTransform="translate(4.82881 16.3118) rotate(-58.1418) scale(13.3561 20.8863)"
        >
            <stop stop-color="#FFD580" />
            <stop offset="0.09375" stop-color="#F6C592" />
            <stop offset="0.205" stop-color="#EBB6A2" />
            <stop offset="0.324466" stop-color="#DFA5AF" />
            <stop offset="0.42875" stop-color="#D397BE" />
            <stop offset="0.53375" stop-color="#C486CB" />
            <stop offset="0.64875" stop-color="#B578D9" />
            <stop offset="0.77125" stop-color="#A166E5" />
            <stop offset="0.89125" stop-color="#8B57F2" />
            <stop offset="1" stop-color="#704CFF" />
        </radialGradient>
    </defs>
</svg>
