<svg width="16" height="16" viewBox="0 0 16 16" fill="none" xmlns="http://www.w3.org/2000/svg">
    <g clip-path="url(#clip0_6182_74878)">
        <path
            d="M4.81145 2.02124C5.92759 0.905106 6.48565 0.347036 7.12918 0.137943C7.69524 -0.045981 8.30499 -0.0459809 8.87105 0.137943C9.51458 0.347036 10.0726 0.905106 11.1888 2.02124L13.9789 4.81133C15.095 5.92747 15.6531 6.48554 15.8622 7.12906C16.0461 7.69512 16.0461 8.30488 15.8622 8.87094C15.6531 9.51446 15.095 10.0725 13.9789 11.1887L11.1888 13.9788C10.0726 15.0949 9.51458 15.653 8.87105 15.8621C8.30499 16.046 7.69524 16.046 7.12918 15.8621C6.48565 15.653 5.92759 15.0949 4.81145 13.9788L4.28688 13.3907C3.96944 13.0348 3.81072 12.8568 3.69756 12.6545C3.59719 12.475 3.52356 12.2818 3.47898 12.081C3.42872 11.8547 3.42872 11.6162 3.42872 11.1394L3.42871 4.86064C3.42871 4.38376 3.42871 4.14532 3.47897 3.91896C3.52355 3.71821 3.59719 3.52503 3.69756 3.34553C3.81072 3.14316 3.96944 2.96522 4.28688 2.60934L4.81145 2.02124Z"
            fill="url(#paint0_radial_6182_74878)"
        />
        <path
            d="M4.81145 2.02124C5.92759 0.905106 6.48565 0.347036 7.12918 0.137943C7.69524 -0.045981 8.30499 -0.0459809 8.87105 0.137943C9.51458 0.347036 10.0726 0.905106 11.1888 2.02124L13.9789 4.81133C15.095 5.92747 15.6531 6.48554 15.8622 7.12906C16.0461 7.69512 16.0461 8.30488 15.8622 8.87094C15.6531 9.51446 15.095 10.0725 13.9789 11.1887L11.1888 13.9788C10.0726 15.0949 9.51458 15.653 8.87105 15.8621C8.30499 16.046 7.69524 16.046 7.12918 15.8621C6.48565 15.653 5.92759 15.0949 4.81145 13.9788L4.28688 13.3907C3.96944 13.0348 3.81072 12.8568 3.69756 12.6545C3.59719 12.475 3.52356 12.2818 3.47898 12.081C3.42872 11.8547 3.42872 11.6162 3.42872 11.1394L3.42871 4.86064C3.42871 4.38376 3.42871 4.14532 3.47897 3.91896C3.52355 3.71821 3.59719 3.52503 3.69756 3.34553C3.81072 3.14316 3.96944 2.96522 4.28688 2.60934L4.81145 2.02124Z"
            fill="url(#paint1_linear_6182_74878)"
        />
        <path
            d="M4.61204 2.22038C5.17011 1.66232 5.44914 1.38328 5.77091 1.27873C6.05393 1.18677 6.35881 1.18677 6.64184 1.27873C6.9636 1.38328 7.24264 1.66232 7.80071 2.22038L11.9858 6.40551C12.5439 6.96358 12.8229 7.24262 12.9275 7.56438C13.0195 7.84741 13.0195 8.15229 12.9275 8.43532C12.8229 8.75708 12.5439 9.03611 11.9858 9.59418L7.80071 13.7793C7.24264 14.3374 6.9636 14.6164 6.64184 14.721C6.35881 14.8129 6.05393 14.8129 5.7709 14.721C5.44914 14.6164 5.17011 14.3374 4.61204 13.7793L2.02124 11.1885C0.905106 10.0724 0.347036 9.51431 0.137943 8.87078C-0.045981 8.30472 -0.0459809 7.69497 0.137943 7.12891C0.347036 6.48539 0.905106 5.92732 2.02124 4.81118L4.61204 2.22038Z"
            fill="url(#paint2_radial_6182_74878)"
        />
    </g>
    <defs>
        <radialGradient
            id="paint0_radial_6182_74878"
            cx="0"
            cy="0"
            r="1"
            gradientUnits="userSpaceOnUse"
            gradientTransform="translate(4.82891 16.3118) rotate(-58.142) scale(13.3561 20.8862)"
        >
            <stop stop-color="#FFD580" />
            <stop offset="0.09375" stop-color="#F6C592" />
            <stop offset="0.205" stop-color="#EBB6A2" />
            <stop offset="0.324466" stop-color="#DFA5AF" />
            <stop offset="0.42875" stop-color="#D397BE" />
            <stop offset="0.53375" stop-color="#C486CB" />
            <stop offset="0.64875" stop-color="#B578D9" />
            <stop offset="0.77125" stop-color="#A166E5" />
            <stop offset="0.89125" stop-color="#8B57F2" />
            <stop offset="1" stop-color="#704CFF" />
        </radialGradient>
        <linearGradient
            id="paint1_linear_6182_74878"
            x1="4.27785"
            y1="-3.17697"
            x2="7.38938"
            y2="15.8163"
            gradientUnits="userSpaceOnUse"
        >
            <stop stop-color="#6D4AFF" />
            <stop offset="0.392009" stop-color="#B39FFB" stop-opacity="0.978022" />
            <stop offset="1" stop-color="#FFE8DB" stop-opacity="0.8" />
        </linearGradient>
        <radialGradient
            id="paint2_radial_6182_74878"
            cx="0"
            cy="0"
            r="1"
            gradientUnits="userSpaceOnUse"
            gradientTransform="translate(3.65559 14.6854) rotate(-58.142) scale(10.7429 16.7998)"
        >
            <stop stop-color="#FFD580" />
            <stop offset="0.09375" stop-color="#F6C592" />
            <stop offset="0.205" stop-color="#EBB6A2" />
            <stop offset="0.324466" stop-color="#DFA5AF" />
            <stop offset="0.42875" stop-color="#D397BE" />
            <stop offset="0.53375" stop-color="#C486CB" />
            <stop offset="0.64875" stop-color="#B578D9" />
            <stop offset="0.77125" stop-color="#A166E5" />
            <stop offset="0.89125" stop-color="#8B57F2" />
            <stop offset="1" stop-color="#704CFF" />
        </radialGradient>
        <clipPath id="clip0_6182_74878">
            <rect width="16" height="16" fill="white" />
        </clipPath>
    </defs>
</svg>
