<svg width="32" height="32" viewBox="0 0 32 32" fill="none" xmlns="http://www.w3.org/2000/svg">
    <mask id="mask0_5769_69354" style="mask-type: alpha" maskUnits="userSpaceOnUse" x="5" y="3" width="23" height="24">
        <path
            fill-rule="evenodd"
            clip-rule="evenodd"
            d="M28 3H5V27H19.0318C19.0109 26.8747 19 26.7465 19 26.6161V22.0199C19 21.1467 19.4868 20.3692 20.2225 19.954C20.2502 17.6834 21.5 15.25 24.5 15.25C26.1916 15.25 27.3267 16.0236 28 17.1055V3Z"
            fill="black"
        />
    </mask>
    <g mask="url(#mask0_5769_69354)">
        <path
            d="M12.6156 7.77921C14.1503 6.24452 14.9177 5.47717 15.8025 5.18967C16.5808 4.93678 17.4192 4.93678 18.1976 5.18967C19.0824 5.47718 19.8498 6.24452 21.3845 7.77921L25.2208 11.6156C26.7555 13.1503 27.5229 13.9176 27.8104 14.8025C28.0633 15.5808 28.0633 16.4192 27.8104 17.1975C27.5229 18.0824 26.7555 18.8497 25.2208 20.3844L21.3845 24.2208C19.8498 25.7555 19.0824 26.5228 18.1976 26.8103C17.4192 27.0632 16.5808 27.0632 15.8025 26.8103C14.9177 26.5228 14.1503 25.7555 12.6156 24.2208L11.8943 23.4122C11.4579 22.9228 11.2396 22.6782 11.084 22.3999C10.946 22.1531 10.8448 21.8875 10.7835 21.6114C10.7144 21.3002 10.7144 20.9723 10.7144 20.3166L10.7144 11.6834C10.7144 11.0277 10.7144 10.6998 10.7835 10.3886C10.8448 10.1125 10.946 9.84691 11.084 9.60011C11.2396 9.32184 11.4579 9.07717 11.8943 8.58784L12.6156 7.77921Z"
            fill="url(#paint0_radial_5769_69354)"
        />
        <path
            d="M12.6156 7.77921C14.1503 6.24452 14.9177 5.47717 15.8025 5.18967C16.5808 4.93678 17.4192 4.93678 18.1976 5.18967C19.0824 5.47718 19.8498 6.24452 21.3845 7.77921L25.2208 11.6156C26.7555 13.1503 27.5229 13.9176 27.8104 14.8025C28.0633 15.5808 28.0633 16.4192 27.8104 17.1975C27.5229 18.0824 26.7555 18.8497 25.2208 20.3844L21.3845 24.2208C19.8498 25.7555 19.0824 26.5228 18.1976 26.8103C17.4192 27.0632 16.5808 27.0632 15.8025 26.8103C14.9177 26.5228 14.1503 25.7555 12.6156 24.2208L11.8943 23.4122C11.4579 22.9228 11.2396 22.6782 11.084 22.3999C10.946 22.1531 10.8448 21.8875 10.7835 21.6114C10.7144 21.3002 10.7144 20.9723 10.7144 20.3166L10.7144 11.6834C10.7144 11.0277 10.7144 10.6998 10.7835 10.3886C10.8448 10.1125 10.946 9.84691 11.084 9.60011C11.2396 9.32184 11.4579 9.07717 11.8943 8.58784L12.6156 7.77921Z"
            fill="url(#paint1_linear_5769_69354)"
        />
        <path
            d="M12.3416 8.053C13.1089 7.28565 13.4926 6.90198 13.935 6.75823C14.3242 6.63178 14.7434 6.63178 15.1325 6.75823C15.575 6.90198 15.9586 7.28565 16.726 8.053L22.4805 13.8075C23.2479 14.5749 23.6315 14.9586 23.7753 15.401C23.9017 15.7902 23.9017 16.2094 23.7753 16.5985C23.6315 17.041 23.2479 17.4246 22.4805 18.192L16.726 23.9465C15.9586 24.7139 15.575 25.0975 15.1325 25.2413C14.7434 25.3677 14.3242 25.3677 13.935 25.2413C13.4926 25.0975 13.1089 24.7139 12.3416 23.9465L8.77921 20.3842C7.24452 18.8495 6.47717 18.0821 6.18967 17.1973C5.93678 16.419 5.93678 15.5806 6.18967 14.8022C6.47718 13.9174 7.24452 13.15 8.77921 11.6153L12.3416 8.053Z"
            fill="url(#paint2_radial_5769_69354)"
        />
    </g>
    <path
        fill-rule="evenodd"
        clip-rule="evenodd"
        d="M27 21C27.5 21 28 21.5 28 22V26C28 26.5 27.5 27 27 27H22C21.5 27 21 26.5 21 26V22C21 21.5 21.5 21 22 21V19.3889C22 17.9846 23.1193 17 24.5 17C25.8807 17 27 17.9846 27 19.3889V21ZM23 21H24.5H26L26 19.3889C26 18.5463 25.3284 18.0004 24.5 18.0004C23.6716 18.0004 23 18.5463 23 19.3889V21Z"
        fill="#191927"
    />
    <defs>
        <radialGradient
            id="paint0_radial_5769_69354"
            cx="0"
            cy="0"
            r="1"
            gradientUnits="userSpaceOnUse"
            gradientTransform="translate(12.6396 27.4288) rotate(-58.142) scale(18.3646 28.7185)"
        >
            <stop stop-color="#FFD580" />
            <stop offset="0.09375" stop-color="#F6C592" />
            <stop offset="0.205" stop-color="#EBB6A2" />
            <stop offset="0.324466" stop-color="#DFA5AF" />
            <stop offset="0.42875" stop-color="#D397BE" />
            <stop offset="0.53375" stop-color="#C486CB" />
            <stop offset="0.64875" stop-color="#B578D9" />
            <stop offset="0.77125" stop-color="#A166E5" />
            <stop offset="0.89125" stop-color="#8B57F2" />
            <stop offset="1" stop-color="#704CFF" />
        </radialGradient>
        <linearGradient
            id="paint1_linear_5769_69354"
            x1="11.8819"
            y1="0.631665"
            x2="16.1603"
            y2="26.7474"
            gradientUnits="userSpaceOnUse"
        >
            <stop stop-color="#6D4AFF" />
            <stop offset="0.392009" stop-color="#B39FFB" stop-opacity="0.978022" />
            <stop offset="1" stop-color="#FFE8DB" stop-opacity="0.8" />
        </linearGradient>
        <radialGradient
            id="paint2_radial_5769_69354"
            cx="0"
            cy="0"
            r="1"
            gradientUnits="userSpaceOnUse"
            gradientTransform="translate(11.0264 25.1924) rotate(-58.142) scale(14.7715 23.0997)"
        >
            <stop stop-color="#FFD580" />
            <stop offset="0.09375" stop-color="#F6C592" />
            <stop offset="0.205" stop-color="#EBB6A2" />
            <stop offset="0.324466" stop-color="#DFA5AF" />
            <stop offset="0.42875" stop-color="#D397BE" />
            <stop offset="0.53375" stop-color="#C486CB" />
            <stop offset="0.64875" stop-color="#B578D9" />
            <stop offset="0.77125" stop-color="#A166E5" />
            <stop offset="0.89125" stop-color="#8B57F2" />
            <stop offset="1" stop-color="#704CFF" />
        </radialGradient>
    </defs>
</svg>
