<svg width="227" height="58" viewBox="0 0 227 58" fill="none" xmlns="http://www.w3.org/2000/svg">
    <path
        d="M20.4231 12.0158C23.5369 8.90191 25.0939 7.34498 26.8892 6.76164C28.4684 6.24852 30.1696 6.24852 31.7488 6.76164C33.5441 7.34498 35.101 8.90191 38.2149 12.0158L45.9988 19.7997C49.1127 22.9136 50.6696 24.4705 51.253 26.2659C51.7661 27.8451 51.7661 29.5462 51.253 31.1254C50.6696 32.9208 49.1127 34.4777 45.9988 37.5916L38.2149 45.3755C35.101 48.4894 33.5441 50.0463 31.7488 50.6296C30.1695 51.1428 28.4684 51.1428 26.8892 50.6296C25.0939 50.0463 23.5369 48.4894 20.4231 45.3755L18.9596 43.7348C18.074 42.7419 17.6312 42.2455 17.3155 41.6809C17.0355 41.1802 16.83 40.6412 16.7057 40.0811C16.5654 39.4497 16.5654 38.7844 16.5654 37.454L16.5654 19.9373C16.5654 18.6069 16.5654 17.9416 16.7057 17.3101C16.83 16.7501 17.0355 16.2111 17.3155 15.7104C17.6312 15.1458 18.074 14.6493 18.9596 13.6565L20.4231 12.0158Z"
        fill="url(#paint0_radial_5929_50226)"
    />
    <path
        d="M20.4231 12.0158C23.5369 8.90191 25.0939 7.34498 26.8892 6.76164C28.4684 6.24852 30.1696 6.24852 31.7488 6.76164C33.5441 7.34498 35.101 8.90191 38.2149 12.0158L45.9988 19.7997C49.1127 22.9136 50.6696 24.4705 51.253 26.2659C51.7661 27.8451 51.7661 29.5462 51.253 31.1254C50.6696 32.9208 49.1127 34.4777 45.9988 37.5916L38.2149 45.3755C35.101 48.4894 33.5441 50.0463 31.7488 50.6296C30.1695 51.1428 28.4684 51.1428 26.8892 50.6296C25.0939 50.0463 23.5369 48.4894 20.4231 45.3755L18.9596 43.7348C18.074 42.7419 17.6312 42.2455 17.3155 41.6809C17.0355 41.1802 16.83 40.6412 16.7057 40.0811C16.5654 39.4497 16.5654 38.7844 16.5654 37.454L16.5654 19.9373C16.5654 18.6069 16.5654 17.9416 16.7057 17.3101C16.83 16.7501 17.0355 16.2111 17.3155 15.7104C17.6312 15.1458 18.074 14.6493 18.9596 13.6565L20.4231 12.0158Z"
        fill="url(#paint1_linear_5929_50226)"
    />
    <path
        d="M19.8669 12.5713C21.4239 11.0144 22.2023 10.2359 23.1 9.94425C23.8896 9.68769 24.7402 9.68769 25.5298 9.94425C26.4274 10.2359 27.2059 11.0144 28.7628 12.5713L40.4388 24.2472C41.9957 25.8042 42.7742 26.5826 43.0658 27.4803C43.3224 28.2699 43.3224 29.1205 43.0658 29.9101C42.7742 30.8077 41.9957 31.5862 40.4388 33.1431L28.7628 44.819C27.2059 46.376 26.4274 47.1544 25.5298 47.4461C24.7402 47.7027 23.8896 47.7027 23.1 47.4461C22.2023 47.1544 21.4239 46.376 19.8669 44.819L12.639 37.5911C9.52511 34.4772 7.96818 32.9203 7.38484 31.125C6.87172 29.5457 6.87172 27.8446 7.38484 26.2654C7.96818 24.4701 9.52511 22.9131 12.639 19.7993L19.8669 12.5713Z"
        fill="url(#paint2_radial_5929_50226)"
    />
    <path
        d="M67.5801 33.8914V39.7341H71.6597V34.1466C71.6597 33.6042 71.8728 33.0801 72.2581 32.6973C72.6389 32.3145 73.1601 32.0957 73.6996 32.0957H77.8835C79.8327 32.0957 81.7048 31.3164 83.0828 29.9263C84.4608 28.5408 85.2359 26.6586 85.2359 24.6988C85.2359 22.7391 84.4608 20.8568 83.0828 19.4668C81.7048 18.0813 79.8327 17.3019 77.879 17.3019H67.5801V24.6031H71.6597V21.1622H77.607C78.5317 21.1622 79.4156 21.5313 80.0684 22.1876C80.7211 22.8439 81.0883 23.7326 81.0883 24.6624C81.0883 25.5921 80.7211 26.4808 80.0684 27.1371C79.4156 27.7934 78.5317 28.1625 77.607 28.1625H73.2871C72.5391 28.1625 71.7957 28.3084 71.1067 28.6001C70.4132 28.8872 69.7876 29.311 69.2573 29.8443C68.7269 30.3775 68.3099 31.011 68.0198 31.7037C67.7297 32.3919 67.5801 33.1394 67.5801 33.8914Z"
        fill="white"
    />
    <path
        d="M85.8661 39.7341V30.8332C85.8661 27.2009 87.9739 24.3114 92.1941 24.3114C92.8695 24.3023 93.5449 24.3752 94.2067 24.5347V28.1944C93.7262 28.1625 93.3137 28.1625 93.1188 28.1625C90.884 28.1625 89.9231 29.1925 89.9231 31.2799V39.7341H85.8661Z"
        fill="white"
    />
    <path
        d="M95.4214 32.1869C95.4214 27.7205 98.7758 24.316 103.445 24.316C108.114 24.316 111.468 27.7205 111.468 32.1869C111.468 36.6533 108.114 40.0897 103.445 40.0897C98.7758 40.0897 95.4214 36.6487 95.4214 32.1869ZM107.47 32.1869C107.47 29.6484 105.775 27.8481 103.445 27.8481C101.11 27.8481 99.4194 29.6438 99.4194 32.1869C99.4194 34.7573 101.115 36.5257 103.445 36.5257C105.779 36.5257 107.47 34.7528 107.47 32.1869Z"
        fill="white"
    />
    <path
        d="M124.441 32.1869C124.441 27.7205 127.796 24.316 132.465 24.316C137.129 24.316 140.484 27.7205 140.484 32.1869C140.484 36.6533 137.129 40.0897 132.465 40.0897C127.796 40.0897 124.441 36.6487 124.441 32.1869ZM136.486 32.1869C136.486 29.6484 134.79 27.8481 132.46 27.8481C130.13 27.8481 128.435 29.6438 128.435 32.1869C128.435 34.7573 130.13 36.5257 132.46 36.5257C134.79 36.5257 136.486 34.7528 136.486 32.1869Z"
        fill="white"
    />
    <path
        d="M142.592 39.7342V31.1569C142.592 27.1736 145.116 24.3115 149.622 24.3115C154.096 24.3115 156.621 27.1691 156.621 31.1569V39.7342H152.596V31.4759C152.596 29.261 151.603 27.8755 149.622 27.8755C147.641 27.8755 146.648 29.2564 146.648 31.4759V39.7342H142.592Z"
        fill="white"
    />
    <path
        d="M123.227 27.8798H118.848V33.5038C118.848 35.4635 119.55 36.3614 121.563 36.3614C121.753 36.3614 122.234 36.3614 122.841 36.3295V39.6382C122.012 39.8616 121.277 39.9937 120.475 39.9937C117.089 39.9937 114.786 37.9383 114.786 34.0507V27.8798H112.067V24.6348H112.746C113.014 24.6348 113.281 24.5802 113.526 24.4799C113.775 24.3751 113.998 24.2247 114.188 24.0333C114.378 23.8418 114.528 23.6185 114.632 23.3679C114.736 23.1172 114.786 22.8529 114.786 22.584V19.5259H118.843V24.6348H123.222V27.8798H123.227Z"
        fill="white"
    />
    <path
        d="M190.366 24.9493C185.806 24.9493 182.426 28.2971 182.426 32.7609C182.426 37.4797 185.679 40.6043 189.6 40.6043C191.768 40.6043 193.49 39.6478 194.447 38.0217L194.702 40.2536H198.273V32.7927C198.273 27.9464 194.893 24.9493 190.366 24.9493ZM190.366 37.0652C188.102 37.0652 186.412 35.3116 186.412 32.7609C186.412 30.2101 188.134 28.4565 190.366 28.4565C192.566 28.4565 194.287 30.1464 194.287 32.7609C194.287 35.6942 192.31 37.0652 190.366 37.0652Z"
        fill="white"
    />
    <path
        d="M206.096 40.6043C209.157 40.6043 211.771 38.8507 211.771 36.1725C211.771 30.4333 204.023 31.7725 204.023 29.4449C204.023 28.6797 204.693 28.1058 205.745 28.1058C206.829 28.1058 207.531 28.7116 207.69 29.6043H211.484C211.261 26.671 209.029 24.9174 205.745 24.9493C202.365 24.9493 200.293 26.958 200.293 29.4449C200.293 35.2478 207.945 33.7493 207.945 36.1725C207.945 36.9058 207.244 37.4478 206.096 37.4478C204.98 37.4478 203.96 36.9058 203.768 35.758H199.91C200.133 38.5956 202.62 40.6043 206.096 40.6043Z"
        fill="white"
    />
    <path
        d="M219.501 40.6043C222.562 40.6043 225.176 38.8507 225.176 36.1725C225.176 30.4333 217.428 31.7725 217.428 29.4449C217.428 28.6797 218.098 28.1058 219.15 28.1058C220.234 28.1058 220.936 28.7116 221.095 29.6043H224.889C224.666 26.671 222.434 24.9174 219.15 24.9493C215.77 24.9493 213.698 26.958 213.698 29.4449C213.698 35.2478 221.35 33.7493 221.35 36.1725C221.35 36.9058 220.649 37.4478 219.501 37.4478C218.385 37.4478 217.365 36.9058 217.173 35.758H213.315C213.538 38.5956 216.025 40.6043 219.501 40.6043Z"
        fill="white"
    />
    <path
        d="M175.144 17.5362H164.667V40.2543H168.817V34.599C168.817 34.0497 169.034 33.5188 169.426 33.131C169.813 32.7432 170.344 32.5216 170.892 32.5216H175.144C177.127 32.5216 179.027 31.7322 180.424 30.3333C181.826 28.9299 182.61 27.0279 182.61 25.0474C182.615 24.064 182.426 23.0853 182.052 22.1759C181.679 21.2664 181.13 20.4354 180.434 19.7383C179.737 19.0412 178.916 18.4872 178.008 18.1087C177.104 17.7301 176.131 17.5362 175.144 17.5362ZM178.414 24.9874C178.414 25.4536 178.322 25.9153 178.142 26.3446C177.962 26.774 177.704 27.1664 177.372 27.4942C177.044 27.8219 176.652 28.0851 176.223 28.2605C175.794 28.4406 175.333 28.5283 174.868 28.5283H168.799V21.4511H174.868C175.333 21.4511 175.794 21.5434 176.228 21.7234C176.657 21.9035 177.049 22.1666 177.376 22.4944C177.704 22.8268 177.966 23.2192 178.142 23.6486C178.317 24.0825 178.409 24.5442 178.405 25.0104L178.414 24.9874Z"
        fill="white"
    />
    <defs>
        <radialGradient
            id="paint0_radial_5929_50226"
            cx="0"
            cy="0"
            r="1"
            gradientUnits="userSpaceOnUse"
            gradientTransform="translate(20.4718 51.8844) rotate(-58.142) scale(37.2615 58.2694)"
        >
            <stop stop-color="#FFD580" />
            <stop offset="0.09375" stop-color="#F6C592" />
            <stop offset="0.205" stop-color="#EBB6A2" />
            <stop offset="0.324466" stop-color="#DFA5AF" />
            <stop offset="0.42875" stop-color="#D397BE" />
            <stop offset="0.53375" stop-color="#C486CB" />
            <stop offset="0.64875" stop-color="#B578D9" />
            <stop offset="0.77125" stop-color="#A166E5" />
            <stop offset="0.89125" stop-color="#8B57F2" />
            <stop offset="1" stop-color="#704CFF" />
        </radialGradient>
        <linearGradient
            id="paint1_linear_5929_50226"
            x1="18.9344"
            y1="-2.48649"
            x2="27.6151"
            y2="50.502"
            gradientUnits="userSpaceOnUse"
        >
            <stop stop-color="#6D4AFF" />
            <stop offset="0.392009" stop-color="#B39FFB" stop-opacity="0.978022" />
            <stop offset="1" stop-color="#FFE8DB" stop-opacity="0.8" />
        </linearGradient>
        <radialGradient
            id="paint2_radial_5929_50226"
            cx="0"
            cy="0"
            r="1"
            gradientUnits="userSpaceOnUse"
            gradientTransform="translate(17.1986 47.347) rotate(-58.142) scale(29.9712 46.8689)"
        >
            <stop stop-color="#FFD580" />
            <stop offset="0.09375" stop-color="#F6C592" />
            <stop offset="0.205" stop-color="#EBB6A2" />
            <stop offset="0.324466" stop-color="#DFA5AF" />
            <stop offset="0.42875" stop-color="#D397BE" />
            <stop offset="0.53375" stop-color="#C486CB" />
            <stop offset="0.64875" stop-color="#B578D9" />
            <stop offset="0.77125" stop-color="#A166E5" />
            <stop offset="0.89125" stop-color="#8B57F2" />
            <stop offset="1" stop-color="#704CFF" />
        </radialGradient>
    </defs>
</svg>
