<svg xmlns="http://www.w3.org/2000/svg" viewBox="0 0 48.72 48.72"><defs><style>.cls-1{opacity:0;}.cls-2{fill:#fff;}.cls-3{fill:#56b366;fill-rule:evenodd;}</style></defs><title>protonvpn-sign-green</title><g id="Ebene_2" data-name="Ebene 2"><g id="Ebene_1-2" data-name="Ebene 1"><g class="cls-1"><rect class="cls-2" width="48.72" height="48.72"/></g><path class="cls-3" d="M33.61,16.59a2.26,2.26,0,0,0-4.52,0s0,0,0,.07l-9.85,3.18a2.26,2.26,0,1,0-1.87,3.53,2.23,2.23,0,0,0,.69-.12l6.47,8.17a2.26,2.26,0,1,0,3.55-.83l3.44-11.75A2.25,2.25,0,0,0,33.61,16.59ZM26.62,30a2.24,2.24,0,0,0-1,.25l-6.32-8a2.24,2.24,0,0,0,.32-.94L29.68,18.1a2.26,2.26,0,0,0,.35.32L26.63,30Z"/></g></g></svg>