<svg xmlns="http://www.w3.org/2000/svg" width="32" height="32" fill="none" viewBox="0 0 32 32">
  <path fill="#4DA358" d="M30.74 3.61a3.61 3.61 0 00-7.22 0v.114L7.82 8.736a3.624 3.624 0 00-5.991.04 3.55 3.55 0 00.028 3.984 3.603 3.603 0 003.057 1.555 3.355 3.355 0 001.097-.19L16.33 27.03a3.559 3.559 0 001.872 4.67l.03.014a3.617 3.617 0 004.726-1.88 3.55 3.55 0 00-.978-4.107L27.462 7.16a3.562 3.562 0 003.258-3.554l.02.003zM19.589 24.789a3.639 3.639 0 00-1.598.394L7.91 12.55c.28-.45.453-.958.509-1.485l16.045-5.072c.17.182.356.35.553.504l-5.416 18.285h-.018l.004.008z"/>
</svg>
