<svg id="Layer_1" data-name="Layer 1" xmlns="http://www.w3.org/2000/svg" viewBox="0 0 400 400"><defs><style>.cls-1{fill:#262a33;}.cls-2{fill:#fff;fill-rule:evenodd;}</style></defs><title>Artboard 1 copy</title><rect class="cls-1" x="-0.21" y="-0.14" width="400" height="400" rx="70"/><path class="cls-2" d="M356,67.23c0-20.29-16.9-38.88-38.88-38.88s-37.19,16.9-37.19,38.88v1.69l-167.35,52.4c-11.83-16.91-35.5-22-52.4-10.14S38.2,146.67,50,165.27c6.76,10.14,20.28,16.9,32.11,16.9,3.38-1.69,8.46-1.69,11.84-3.38L203.86,317.41c-8.45,18.59,0,42.26,20.29,50.71,18.59,8.45,42.26,0,50.71-20.29,6.76-15.21,1.69-33.81-10.14-43.95l57.47-199.47C340.79,102.72,356,85.82,356,67.23ZM237.67,293.74c-5.07,0-11.83,1.69-16.9,3.38L114.27,161.89q5.07-7.6,5.07-15.22L290.07,92.58a23.26,23.26,0,0,0,6.77,5.07L237.67,293.74Z"/></svg>