<svg width="68" height="70" viewBox="0 0 68 70" fill="none" xmlns="http://www.w3.org/2000/svg">
    <path
        d="M17.0016 1.78772C17.2167 1.40409 17.7833 1.40409 17.9984 1.78772L19.8471 5.08361C19.9288 5.22919 20.0734 5.33137 20.2411 5.3619L24.0362 6.05291C24.478 6.13334 24.653 6.65722 24.3443 6.97474L21.6917 9.70273C21.5745 9.82323 21.5193 9.98856 21.5412 10.153L22.0381 13.876C22.0959 14.3093 21.6376 14.6331 21.2316 14.4457L17.7435 12.8358C17.5894 12.7647 17.4106 12.7647 17.2565 12.8358L13.7684 14.4457C13.3624 14.6331 12.9041 14.3093 12.9619 13.876L13.4588 10.153C13.4807 9.98856 13.4255 9.82323 13.3083 9.70273L10.6557 6.97474C10.347 6.65722 10.522 6.13334 10.9638 6.05291L14.7589 5.3619C14.9266 5.33137 15.0712 5.22919 15.1529 5.08361L17.0016 1.78772Z"
        fill="#EAB308"
    />
    <path
        d="M28.2209 11.1108V9.64418L32.5412 2.81818H34.8381V9.59446H36.1406V11.1108H34.8381V13H33.0781V11.1108H28.2209ZM33.098 9.59446V4.90625H33.0185L30.1101 9.51491V9.59446H33.098ZM38.5705 13.1094C37.964 13.1094 37.4718 12.6222 37.4767 12.0156C37.4718 11.419 37.964 10.9318 38.5705 10.9318C39.1571 10.9318 39.6593 11.419 39.6642 12.0156C39.6593 12.6222 39.1571 13.1094 38.5705 13.1094ZM41.5025 13V11.6676L45.0373 8.20241C46.0415 7.18324 46.5586 6.5767 46.5586 5.72656C46.5586 4.76705 45.8377 4.17543 44.8683 4.17543C43.854 4.17543 43.1978 4.8267 43.1978 5.86577H41.4428C41.4428 3.93182 42.8746 2.67898 44.8931 2.67898C46.9414 2.67898 48.3285 3.92685 48.3285 5.6321C48.3285 6.78054 47.7816 7.70526 45.8029 9.6044L44.0479 11.3892V11.4588H48.4826V13H41.5025ZM53.7376 13.1392C51.7489 13.1392 50.2724 11.9212 50.2227 10.2308H52.0124C52.0771 11.0661 52.8178 11.6477 53.7376 11.6477C54.8263 11.6477 55.6119 10.8374 55.6069 9.69886C55.6119 8.54545 54.8065 7.72017 53.6879 7.7152C53.0763 7.71023 52.43 7.96378 52.087 8.34162L50.4215 8.06818L50.9535 2.81818H56.8597V4.35938H52.4798L52.1864 7.05895H52.2461C52.6239 6.61151 53.3548 6.28338 54.18 6.28338C56.0295 6.28338 57.3917 7.69531 57.3917 9.65412C57.3917 11.6776 55.8903 13.1392 53.7376 13.1392Z"
        fill="#4B5563"
    />
    <path
        d="M1.05682 35V26.2727H4.00568C6.0554 26.2727 6.97159 27.4915 6.97159 29.0341C6.97159 30.5767 6.0554 31.8125 4.02273 31.8125H2.11364V35H1.05682ZM2.11364 30.875H3.98864C5.39062 30.875 5.93182 30.0824 5.93182 29.0341C5.93182 27.9858 5.39062 27.2102 3.97159 27.2102H2.11364V30.875ZM8.53764 35V28.4545H9.50923V29.4432H9.57741C9.81605 28.7955 10.4979 28.3523 11.282 28.3523C11.4311 28.3523 11.6953 28.3608 11.8104 28.3693V29.392C11.7422 29.375 11.4652 29.3239 11.1967 29.3239C10.2422 29.3239 9.54332 29.9716 9.54332 30.858V35H8.53764ZM15.4624 35.1364C13.6896 35.1364 12.4964 33.7898 12.4964 31.7614C12.4964 29.7159 13.6896 28.3693 15.4624 28.3693C17.2351 28.3693 18.4283 29.7159 18.4283 31.7614C18.4283 33.7898 17.2351 35.1364 15.4624 35.1364ZM15.4624 34.233C16.8089 34.233 17.4226 33.0739 17.4226 31.7614C17.4226 30.4489 16.8089 29.2727 15.4624 29.2727C14.1158 29.2727 13.5021 30.4489 13.5021 31.7614C13.5021 33.0739 14.1158 34.233 15.4624 34.233ZM22.81 28.4545V29.3068H21.4123V33.125C21.4123 33.9773 21.8384 34.1136 22.2816 34.1136C22.5032 34.1136 22.6396 34.0795 22.7248 34.0625L22.9293 34.9659C22.793 35.017 22.5543 35.0852 22.1793 35.0852C21.3271 35.0852 20.4066 34.5398 20.4066 33.3977V29.3068H19.418V28.4545H20.4066V26.8864H21.4123V28.4545H22.81ZM26.9116 35.1364C25.1388 35.1364 23.9457 33.7898 23.9457 31.7614C23.9457 29.7159 25.1388 28.3693 26.9116 28.3693C28.6843 28.3693 29.8775 29.7159 29.8775 31.7614C29.8775 33.7898 28.6843 35.1364 26.9116 35.1364ZM26.9116 34.233C28.2582 34.233 28.8718 33.0739 28.8718 31.7614C28.8718 30.4489 28.2582 29.2727 26.9116 29.2727C25.565 29.2727 24.9513 30.4489 24.9513 31.7614C24.9513 33.0739 25.565 34.233 26.9116 34.233ZM32.4183 31.0625V35H31.4126V28.4545H32.3842V29.4773H32.4695C32.7763 28.8125 33.3899 28.3693 34.3786 28.3693C35.7038 28.3693 36.5945 29.1705 36.5945 30.8409V35H35.5888V30.9091C35.5888 29.8821 35.022 29.2727 34.0888 29.2727C33.1257 29.2727 32.4183 29.9205 32.4183 31.0625ZM41.9435 35V26.2727H44.8924C46.9421 26.2727 47.8583 27.4915 47.8583 29.0341C47.8583 30.5767 46.9421 31.8125 44.9094 31.8125H43.0004V35H41.9435ZM43.0004 30.875H44.8754C46.2773 30.875 46.8185 30.0824 46.8185 29.0341C46.8185 27.9858 46.2773 27.2102 44.8583 27.2102H43.0004V30.875ZM51.3505 35.1534C50.1062 35.1534 49.1175 34.4205 49.1175 33.142C49.1175 31.642 50.4428 31.3736 51.6573 31.2159C52.8505 31.0625 53.3448 31.1051 53.3448 30.6193V30.5852C53.3448 29.7457 52.8888 29.2557 51.9641 29.2557C51.0053 29.2557 50.4812 29.767 50.2596 30.2443L49.305 29.9034C49.8164 28.7102 50.9414 28.3693 51.93 28.3693C52.7653 28.3693 54.3505 28.608 54.3505 30.6875V35H53.3448V34.1136H53.2937C53.0891 34.5398 52.4925 35.1534 51.3505 35.1534ZM51.5039 34.25C52.6971 34.25 53.3448 33.4489 53.3448 32.6307V31.7102C53.1744 31.9148 52.0323 32.0341 51.6062 32.0852C50.8221 32.1875 50.1232 32.4261 50.1232 33.1932C50.1232 33.892 50.7028 34.25 51.5039 34.25ZM60.8224 29.9205L59.919 30.1761C59.7443 29.7244 59.3821 29.2386 58.5043 29.2386C57.7031 29.2386 57.1065 29.6477 57.1065 30.2102C57.1065 30.7131 57.456 30.973 58.2315 31.1648L59.2031 31.4034C60.3707 31.6889 60.9418 32.2642 60.9418 33.1761C60.9418 34.3054 59.9062 35.1364 58.3849 35.1364C57.0469 35.1364 56.1307 34.544 55.8963 33.4318L56.8509 33.1932C57.0298 33.8963 57.5455 34.25 58.3679 34.25C59.3054 34.25 59.902 33.7898 59.902 33.2273C59.902 32.7756 59.5909 32.4602 58.9304 32.3068L57.8395 32.0511C56.6378 31.7699 56.1009 31.1648 56.1009 30.2614C56.1009 29.1534 57.1236 28.3693 58.5043 28.3693C59.7997 28.3693 60.5071 28.9915 60.8224 29.9205ZM67.092 29.9205L66.1886 30.1761C66.0138 29.7244 65.6516 29.2386 64.7738 29.2386C63.9727 29.2386 63.3761 29.6477 63.3761 30.2102C63.3761 30.7131 63.7255 30.973 64.5011 31.1648L65.4727 31.4034C66.6403 31.6889 67.2113 32.2642 67.2113 33.1761C67.2113 34.3054 66.1758 35.1364 64.6545 35.1364C63.3164 35.1364 62.4002 34.544 62.1658 33.4318L63.1204 33.1932C63.2994 33.8963 63.815 34.25 64.6374 34.25C65.5749 34.25 66.1715 33.7898 66.1715 33.2273C66.1715 32.7756 65.8604 32.4602 65.1999 32.3068L64.109 32.0511C62.9073 31.7699 62.3704 31.1648 62.3704 30.2614C62.3704 29.1534 63.3931 28.3693 64.7738 28.3693C66.0692 28.3693 66.7766 28.9915 67.092 29.9205Z"
        fill="#4B5563"
    />
    <g clip-path="url(#clip0_0_1581)">
        <g clip-path="url(#clip1_0_1581)">
            <path
                fill-rule="evenodd"
                clip-rule="evenodd"
                d="M38.2028 56.6135C37.1468 56.6135 36.2905 57.5945 36.2905 58.8043C36.2905 60.0141 37.1468 60.9952 38.2028 60.9952C39.2589 60.9952 40.1152 60.0141 40.1152 58.8043C40.1152 57.5945 39.2594 56.6135 38.2028 56.6135Z"
                fill="#6F7191"
            />
            <path
                fill-rule="evenodd"
                clip-rule="evenodd"
                d="M54.7367 46H13.2628C11.9939 46 10.9554 47.0385 10.9554 48.3074V67.6926C10.9554 68.962 11.9933 70 13.2628 70H54.6984C55.9711 70 57.0041 68.9697 57.0058 67.6964C57.014 62.1114 57.0446 48.3074 57.0446 48.3074C57.0446 47.0385 56.0061 46 54.7372 46H54.7367ZM19.4929 60.8021C19.8983 60.8021 20.2753 60.6811 20.5905 60.4732C20.9522 60.2346 21.4342 60.303 21.7187 60.6297L22.2703 61.2639C21.5907 62.0305 20.5981 62.5142 19.4929 62.5142C17.3567 62.5142 15.6424 60.709 15.7918 58.5406C15.9204 56.6786 17.4519 55.1843 19.3167 55.0978C20.614 55.0376 21.7729 55.6444 22.4804 56.6036L21.7746 57.1831C21.4758 57.4282 20.9888 57.4249 20.678 57.1957C20.2759 56.8985 19.7582 56.7492 19.2045 56.8263C18.3143 56.9511 17.6073 57.6821 17.5083 58.5756C17.3748 59.781 18.3148 60.8015 19.4934 60.8015L19.4929 60.8021ZM25.434 62.3938H23.7214V52.7647H25.434V62.3938ZM33.2323 62.3938H31.5197V61.9298C31.5197 61.9298 30.851 62.5147 29.8202 62.5147C28.3904 62.5147 27.0575 61.3635 27.0575 59.7509C27.0575 58.1384 27.0449 55.2154 27.0449 55.2154H28.7576V59.7509C28.7576 60.6434 29.4946 61.1326 30.1386 61.1326C30.6716 61.1326 31.5197 60.7101 31.5197 59.7509V55.2154H33.2323V62.3938ZM38.4945 62.5142C37.764 62.5142 37.0882 62.2597 36.5356 61.8269V62.3938H34.8229V52.7647H36.5356V55.7818C37.0882 55.349 37.764 55.0945 38.4945 55.0945C40.3598 55.0945 41.8721 56.7557 41.8721 58.8043C41.8721 60.8529 40.3603 62.5147 38.4945 62.5147V62.5142ZM44.7929 62.3391H43.0803V55.1602H44.7929V62.3391ZM44.7929 54.0024H43.0803V52.71H44.7929V54.0024ZM49.7109 60.8021C50.1213 60.8021 50.5027 60.6784 50.82 60.4656C51.1855 60.221 51.6758 60.2883 51.9647 60.6199L52.5064 61.2425C51.8263 62.0217 50.826 62.5142 49.7104 62.5142C47.5742 62.5142 45.8599 60.709 46.0093 58.5406C46.139 56.6633 47.6946 55.1629 49.5752 55.0962C50.7451 55.0546 51.7989 55.5547 52.5064 56.3651L51.9647 56.9877C51.6725 57.3231 51.1801 57.3795 50.8085 57.1349C50.4507 56.8985 50.0119 56.7743 49.5424 56.8132C48.558 56.8936 47.7668 57.7105 47.7154 58.6965C47.6546 59.8489 48.5712 60.8021 49.7104 60.8021H49.7109Z"
                fill="#6F7191"
            />
        </g>
    </g>
    <defs>
        <clipPath id="clip0_0_1581">
            <rect width="46.0893" height="24" fill="white" transform="translate(10.9554 46)" />
        </clipPath>
        <clipPath id="clip1_0_1581">
            <rect width="46.0893" height="24" fill="white" transform="translate(10.9554 46)" />
        </clipPath>
    </defs>
</svg>
