<svg width="65" height="70" viewBox="0 0 65 70" fill="none" xmlns="http://www.w3.org/2000/svg">
    <path
        d="M20.5016 1.78772C20.7167 1.40409 21.2833 1.40409 21.4984 1.78772L23.3471 5.08361C23.4288 5.22919 23.5734 5.33137 23.7411 5.3619L27.5362 6.05291C27.978 6.13334 28.153 6.65722 27.8443 6.97474L25.1917 9.70273C25.0745 9.82323 25.0193 9.98856 25.0412 10.153L25.5381 13.876C25.5959 14.3093 25.1376 14.6331 24.7316 14.4457L21.2435 12.8358C21.0894 12.7647 20.9106 12.7647 20.7565 12.8358L17.2684 14.4457C16.8624 14.6331 16.4041 14.3093 16.4619 13.876L16.9588 10.153C16.9807 9.98856 16.9255 9.82323 16.8083 9.70273L14.1557 6.97474C13.847 6.65722 14.022 6.13334 14.4638 6.05291L18.2589 5.3619C18.4266 5.33137 18.5712 5.22919 18.6529 5.08361L20.5016 1.78772Z"
        fill="#EAB308"
    />
    <path
        d="M31.7209 11.1108V9.64418L36.0412 2.81818H38.3381V9.59446H39.6406V11.1108H38.3381V13H36.5781V11.1108H31.7209ZM36.598 9.59446V4.90625H36.5185L33.6101 9.51491V9.59446H36.598ZM42.0705 13.1094C41.464 13.1094 40.9718 12.6222 40.9767 12.0156C40.9718 11.419 41.464 10.9318 42.0705 10.9318C42.6571 10.9318 43.1593 11.419 43.1642 12.0156C43.1593 12.6222 42.6571 13.1094 42.0705 13.1094ZM45.0609 13L49.3912 4.42898V4.35938H44.3649V2.81818H51.3002V4.39418L46.975 13H45.0609Z"
        fill="#4B5563"
    />
    <path
        d="M1.05682 35V26.2727H4.00568C6.0554 26.2727 6.97159 27.4915 6.97159 29.0341C6.97159 30.5767 6.0554 31.8125 4.02273 31.8125H2.11364V35H1.05682ZM2.11364 30.875H3.98864C5.39062 30.875 5.93182 30.0824 5.93182 29.0341C5.93182 27.9858 5.39062 27.2102 3.97159 27.2102H2.11364V30.875ZM8.53764 35V28.4545H9.50923V29.4432H9.57741C9.81605 28.7955 10.4979 28.3523 11.282 28.3523C11.4311 28.3523 11.6953 28.3608 11.8104 28.3693V29.392C11.7422 29.375 11.4652 29.3239 11.1967 29.3239C10.2422 29.3239 9.54332 29.9716 9.54332 30.858V35H8.53764ZM15.4624 35.1364C13.6896 35.1364 12.4964 33.7898 12.4964 31.7614C12.4964 29.7159 13.6896 28.3693 15.4624 28.3693C17.2351 28.3693 18.4283 29.7159 18.4283 31.7614C18.4283 33.7898 17.2351 35.1364 15.4624 35.1364ZM15.4624 34.233C16.8089 34.233 17.4226 33.0739 17.4226 31.7614C17.4226 30.4489 16.8089 29.2727 15.4624 29.2727C14.1158 29.2727 13.5021 30.4489 13.5021 31.7614C13.5021 33.0739 14.1158 34.233 15.4624 34.233ZM22.81 28.4545V29.3068H21.4123V33.125C21.4123 33.9773 21.8384 34.1136 22.2816 34.1136C22.5032 34.1136 22.6396 34.0795 22.7248 34.0625L22.9293 34.9659C22.793 35.017 22.5543 35.0852 22.1793 35.0852C21.3271 35.0852 20.4066 34.5398 20.4066 33.3977V29.3068H19.418V28.4545H20.4066V26.8864H21.4123V28.4545H22.81ZM26.9116 35.1364C25.1388 35.1364 23.9457 33.7898 23.9457 31.7614C23.9457 29.7159 25.1388 28.3693 26.9116 28.3693C28.6843 28.3693 29.8775 29.7159 29.8775 31.7614C29.8775 33.7898 28.6843 35.1364 26.9116 35.1364ZM26.9116 34.233C28.2582 34.233 28.8718 33.0739 28.8718 31.7614C28.8718 30.4489 28.2582 29.2727 26.9116 29.2727C25.565 29.2727 24.9513 30.4489 24.9513 31.7614C24.9513 33.0739 25.565 34.233 26.9116 34.233ZM32.4183 31.0625V35H31.4126V28.4545H32.3842V29.4773H32.4695C32.7763 28.8125 33.3899 28.3693 34.3786 28.3693C35.7038 28.3693 36.5945 29.1705 36.5945 30.8409V35H35.5888V30.9091C35.5888 29.8821 35.022 29.2727 34.0888 29.2727C33.1257 29.2727 32.4183 29.9205 32.4183 31.0625ZM41.9435 26.2727H43.2049L46.1708 33.517H46.2731L49.239 26.2727H50.5004V35H49.5117V28.3693H49.4265L46.6992 35H45.7447L43.0174 28.3693H42.9322V35H41.9435V26.2727ZM54.4091 35.1534C53.1648 35.1534 52.1761 34.4205 52.1761 33.142C52.1761 31.642 53.5014 31.3736 54.7159 31.2159C55.9091 31.0625 56.4034 31.1051 56.4034 30.6193V30.5852C56.4034 29.7457 55.9474 29.2557 55.0227 29.2557C54.0639 29.2557 53.5398 29.767 53.3182 30.2443L52.3636 29.9034C52.875 28.7102 54 28.3693 54.9886 28.3693C55.8239 28.3693 57.4091 28.608 57.4091 30.6875V35H56.4034V34.1136H56.3523C56.1477 34.5398 55.5511 35.1534 54.4091 35.1534ZM54.5625 34.25C55.7557 34.25 56.4034 33.4489 56.4034 32.6307V31.7102C56.233 31.9148 55.0909 32.0341 54.6648 32.0852C53.8807 32.1875 53.1818 32.4261 53.1818 33.1932C53.1818 33.892 53.7614 34.25 54.5625 34.25ZM59.2447 35V28.4545H60.2504V35H59.2447ZM59.756 27.3636C59.364 27.3636 59.0401 27.0568 59.0401 26.6818C59.0401 26.3068 59.364 26 59.756 26C60.1481 26 60.4719 26.3068 60.4719 26.6818C60.4719 27.0568 60.1481 27.3636 59.756 27.3636ZM63.098 26.2727V35H62.0923V26.2727H63.098Z"
        fill="#4B5563"
    />
    <g clip-path="url(#clip0_0_1564)">
        <g clip-path="url(#clip1_0_1564)">
            <path
                d="M29.4242 51.2648H29.1647C29.1036 51.2648 29.0553 51.3144 29.0553 51.3742V55.021C29.0553 55.082 29.1049 55.1304 29.1647 55.1304H29.4242C29.484 55.1304 29.5425 55.1202 29.5985 55.1011C29.6557 55.082 29.7015 55.049 29.7358 55.0019C29.7702 54.9548 29.788 54.8925 29.788 54.8111V51.5828C29.788 51.495 29.7511 51.42 29.6773 51.3576C29.6035 51.2953 29.5183 51.2648 29.4229 51.2648H29.4242Z"
                fill="#6F7191"
            />
            <path
                d="M32.9362 62.9188C32.9273 62.9188 32.9209 62.9277 32.9171 62.9442L32.2595 65.1041C32.2557 65.1295 32.2633 65.1423 32.2849 65.1423H33.5938C33.6192 65.1423 33.6281 65.1295 33.6192 65.1041L32.9552 62.9442C32.9514 62.9277 32.9451 62.9188 32.9362 62.9188Z"
                fill="#6F7191"
            />
            <path
                d="M44.6589 47.3827C44.6589 47.3687 44.6563 47.3547 44.6538 47.3407C44.65 47.3152 44.6462 47.2898 44.6423 47.2644C44.636 47.2262 44.6271 47.1893 44.6182 47.1524C44.6118 47.1283 44.6054 47.1041 44.5978 47.0799C44.5228 46.8395 44.3905 46.6245 44.2175 46.4503C44.131 46.3638 44.0331 46.2862 43.9287 46.2226C43.6972 46.0814 43.4238 46 43.1325 46H22.2018C21.3534 46 20.6665 46.6881 20.6665 47.5353V68.4647C20.6665 68.8896 20.8382 69.2724 21.1168 69.551C21.3941 69.8283 21.7782 70 22.2018 70H43.1299C43.9784 70 44.6652 69.3131 44.6652 68.4647V47.5353C44.6652 47.4831 44.6627 47.4323 44.6576 47.3814L44.6589 47.3827ZM30.0615 66.4321C30.0615 66.4537 30.0538 66.4715 30.0386 66.4868C30.0233 66.502 30.0055 66.5096 29.9839 66.5096H29.3911C29.3695 66.5096 29.3517 66.502 29.3364 66.4868C29.3212 66.4715 29.3135 66.4537 29.3135 66.4321V63.3564C29.3135 63.3437 29.3084 63.3347 29.297 63.3309C29.2855 63.3271 29.2792 63.3309 29.2741 63.3437L28.4676 64.5813C28.446 64.6156 28.4155 64.6335 28.3773 64.6335H28.081C28.0428 64.6335 28.0123 64.6156 27.9907 64.5813L27.1778 63.35C27.174 63.3373 27.1664 63.3322 27.1549 63.3373C27.1448 63.3411 27.1384 63.35 27.1384 63.3627V66.4321C27.1384 66.4537 27.1308 66.4715 27.1155 66.4868C27.1003 66.502 27.0824 66.5096 27.0608 66.5096H26.4681C26.4464 66.5096 26.4286 66.502 26.4134 66.4868C26.3981 66.4715 26.3905 66.4537 26.3905 66.4321V62.0742C26.3905 62.0526 26.3981 62.0348 26.4134 62.0195C26.4286 62.0042 26.4464 61.9966 26.4681 61.9966H27.0608C27.099 61.9966 27.1295 62.0144 27.1511 62.0475L28.2018 63.64C28.2107 63.6489 28.2183 63.6527 28.2272 63.6527C28.2361 63.6527 28.2425 63.6489 28.2463 63.64L29.297 62.0475C29.3186 62.0131 29.3491 61.9966 29.3873 61.9966H29.9801C30.0017 61.9966 30.0195 62.0042 30.0347 62.0195C30.05 62.0348 30.0576 62.0526 30.0576 62.0742V66.4321H30.0615ZM29.7842 57.3271H29.1482C29.0871 57.3271 29.0388 57.3767 29.0388 57.4365V60.9434C29.0388 61.0045 28.9892 61.0528 28.9294 61.0528H26.5011C26.4401 61.0528 26.3918 61.0032 26.3918 60.9434V49.3326C26.3918 49.2716 26.4414 49.2232 26.5011 49.2232H29.7829C30.1912 49.2156 30.5995 49.3097 31.0053 49.5069C31.3602 49.6799 31.6387 49.919 31.8435 50.2256C32.0967 50.6084 32.2277 51.1414 32.2353 51.8245V54.7386C32.2277 55.8745 31.8168 56.6415 31.0053 57.0396C30.5995 57.2393 30.1912 57.3347 29.7829 57.3271H29.7842ZM34.7678 66.5096H34.1229C34.0797 66.5096 34.0517 66.488 34.039 66.4448L33.8266 65.7554C33.8177 65.7388 33.8075 65.7299 33.7948 65.7299H32.0928C32.0801 65.7299 32.0687 65.7388 32.061 65.7554L31.8486 66.4448C31.8359 66.488 31.8079 66.5096 31.7647 66.5096H31.1198C31.0943 66.5096 31.0752 66.502 31.0612 66.4868C31.0485 66.4715 31.046 66.4499 31.0549 66.4193L32.4541 62.0615C32.4668 62.0182 32.4948 61.9966 32.538 61.9966H33.3445C33.3877 61.9966 33.4157 62.0182 33.4284 62.0615L34.834 66.4193C34.8378 66.4282 34.8403 66.4384 34.8403 66.4511C34.8403 66.4893 34.8162 66.5096 34.7691 66.5096H34.7678ZM38.823 63.4212C38.823 63.4429 38.8153 63.4607 38.8001 63.4759C38.7848 63.4912 38.767 63.4988 38.7454 63.4988H38.159C38.1374 63.4988 38.1195 63.4912 38.1043 63.4759C38.089 63.4607 38.0814 63.4429 38.0814 63.4212V63.3894C38.0814 63.1567 38.0025 62.9659 37.8461 62.8158C37.6896 62.6657 37.4797 62.5906 37.2177 62.5906C36.9557 62.5906 36.7445 62.6695 36.5855 62.8259C36.4265 62.9824 36.3464 63.1897 36.3464 63.448V65.0596C36.3464 65.3178 36.4303 65.5251 36.5982 65.6816C36.7661 65.838 36.9824 65.9169 37.2495 65.9169C37.5166 65.9169 37.71 65.8495 37.8588 65.7134C38.0063 65.5785 38.0814 65.3916 38.0814 65.155V64.7556C38.0814 64.7339 38.0712 64.7238 38.0496 64.7238H37.2571C37.2355 64.7238 37.2177 64.7161 37.2024 64.7009C37.1872 64.6856 37.1795 64.6678 37.1795 64.6462V64.1692C37.1795 64.1476 37.1872 64.1297 37.2024 64.1145C37.2177 64.0992 37.2355 64.0916 37.2571 64.0916H38.7466C38.7683 64.0916 38.7861 64.0992 38.8013 64.1145C38.8166 64.1297 38.8242 64.1476 38.8242 64.1692V64.9947C38.8242 65.4895 38.6792 65.8736 38.3892 66.1484C38.0992 66.4232 37.7087 66.5605 37.219 66.5605C36.8972 66.5605 36.6135 66.4969 36.368 66.371C36.1225 66.2438 35.9343 66.0644 35.8007 65.8329C35.6671 65.6002 35.601 65.3343 35.601 65.0341V63.4734C35.601 63.1681 35.6671 62.901 35.8007 62.6708C35.9343 62.4405 36.1225 62.2625 36.368 62.1353C36.6135 62.0081 36.8972 61.9445 37.219 61.9445C37.5408 61.9445 37.8168 62.0068 38.0598 62.1314C38.3027 62.2561 38.491 62.4253 38.6233 62.6402C38.7568 62.8552 38.823 63.0982 38.823 63.3691V63.4212ZM36.2065 51.2877C36.134 51.2177 36.0487 51.1834 35.9508 51.1834C35.8529 51.1834 35.7727 51.2165 35.7028 51.2839C35.6328 51.3513 35.5959 51.4327 35.5908 51.5281L35.587 51.5472V58.6882L35.5908 58.7072C35.5959 58.8026 35.6341 58.8828 35.7028 58.9476C35.7727 59.0151 35.8554 59.0481 35.9508 59.0481C36.0462 59.0481 36.134 59.0138 36.2065 58.9438C36.2764 58.8713 36.3108 58.7861 36.3108 58.6882V56.1861C36.3108 56.1251 36.3604 56.0767 36.4202 56.0767H38.8878C38.9107 56.0767 38.9311 56.0958 38.9311 56.1187L38.9349 58.5406C38.9349 59.4043 38.6551 60.0581 38.0941 60.5007C37.5344 60.9434 36.8158 61.1647 35.9381 61.1647C35.0604 61.1647 34.371 60.9625 33.7973 60.5567C33.2236 60.1522 32.9374 59.5391 32.9374 58.7187V51.5154C32.9374 50.6924 33.2236 50.0793 33.7948 49.6735C34.3659 49.269 35.0808 49.0668 35.9368 49.0668C36.7929 49.0668 37.5319 49.2868 38.0928 49.7282C38.6525 50.1696 38.9336 50.8196 38.9336 51.6782C38.9336 51.6858 38.9298 54.1344 38.9298 54.1344C38.9298 54.1573 38.9107 54.1764 38.8866 54.1764H36.4189C36.3578 54.1764 36.3095 54.1268 36.3095 54.067V51.5421C36.3095 51.4441 36.2752 51.3589 36.2052 51.2864L36.2065 51.2877Z"
                fill="#6F7191"
            />
        </g>
    </g>
    <defs>
        <clipPath id="clip0_0_1564">
            <rect width="24" height="24" fill="white" transform="translate(20.6665 46)" />
        </clipPath>
        <clipPath id="clip1_0_1564">
            <rect width="24" height="24" fill="white" transform="translate(20.6665 46)" />
        </clipPath>
    </defs>
</svg>
