<svg width="81" height="70" viewBox="0 0 81 70" fill="none" xmlns="http://www.w3.org/2000/svg">
    <path
        d="M28.0016 1.78772C28.2167 1.40409 28.7833 1.40409 28.9984 1.78772L30.8471 5.08361C30.9288 5.22919 31.0734 5.33137 31.2411 5.3619L35.0362 6.05291C35.478 6.13334 35.653 6.65722 35.3443 6.97474L32.6917 9.70273C32.5745 9.82323 32.5193 9.98856 32.5412 10.153L33.0381 13.876C33.0959 14.3093 32.6376 14.6331 32.2316 14.4457L28.7435 12.8358C28.5894 12.7647 28.4106 12.7647 28.2565 12.8358L24.7684 14.4457C24.3624 14.6331 23.9041 14.3093 23.9619 13.876L24.4588 10.153C24.4807 9.98856 24.4255 9.82323 24.3083 9.70273L21.6557 6.97474C21.347 6.65722 21.522 6.13334 21.9638 6.05291L25.7589 5.3619C25.9266 5.33137 26.0712 5.22919 26.1529 5.08361L28.0016 1.78772Z"
        fill="#EAB308"
    />
    <path
        d="M39.2209 11.1108V9.64418L43.5412 2.81818H45.8381V9.59446H47.1406V11.1108H45.8381V13H44.0781V11.1108H39.2209ZM44.098 9.59446V4.90625H44.0185L41.1101 9.51491V9.59446H44.098ZM49.5705 13.1094C48.964 13.1094 48.4718 12.6222 48.4767 12.0156C48.4718 11.419 48.964 10.9318 49.5705 10.9318C50.1571 10.9318 50.6593 11.419 50.6642 12.0156C50.6593 12.6222 50.1571 13.1094 49.5705 13.1094ZM55.8347 13.1392C53.8809 13.1293 51.9419 11.9311 51.9469 8.19744C51.9469 4.71733 53.4931 2.67898 55.9391 2.67898C57.8631 2.67898 59.1905 3.9169 59.4093 5.5625H57.5946C57.4057 4.78196 56.8141 4.27486 55.9391 4.27486C54.5272 4.27486 53.7417 5.57741 53.7367 7.72017H53.8063C54.2935 6.84517 55.258 6.31321 56.3517 6.31321C58.1365 6.31321 59.5087 7.70526 59.5037 9.62926C59.5087 11.6428 58.0321 13.1541 55.8347 13.1392ZM55.8248 11.6477C56.9036 11.6477 57.7189 10.7827 57.714 9.66903C57.7189 8.57528 56.9284 7.72017 55.8496 7.72017C54.7708 7.72017 53.9455 8.61506 53.9355 9.68395C53.9405 10.7479 54.736 11.6477 55.8248 11.6477Z"
        fill="#4B5563"
    />
    <path
        d="M8.55682 35V26.2727H11.5057C13.5554 26.2727 14.4716 27.4915 14.4716 29.0341C14.4716 30.5767 13.5554 31.8125 11.5227 31.8125H9.61364V35H8.55682ZM9.61364 30.875H11.4886C12.8906 30.875 13.4318 30.0824 13.4318 29.0341C13.4318 27.9858 12.8906 27.2102 11.4716 27.2102H9.61364V30.875ZM16.0376 35V28.4545H17.0092V29.4432H17.0774C17.3161 28.7955 17.9979 28.3523 18.782 28.3523C18.9311 28.3523 19.1953 28.3608 19.3104 28.3693V29.392C19.2422 29.375 18.9652 29.3239 18.6967 29.3239C17.7422 29.3239 17.0433 29.9716 17.0433 30.858V35H16.0376ZM22.9624 35.1364C21.1896 35.1364 19.9964 33.7898 19.9964 31.7614C19.9964 29.7159 21.1896 28.3693 22.9624 28.3693C24.7351 28.3693 25.9283 29.7159 25.9283 31.7614C25.9283 33.7898 24.7351 35.1364 22.9624 35.1364ZM22.9624 34.233C24.3089 34.233 24.9226 33.0739 24.9226 31.7614C24.9226 30.4489 24.3089 29.2727 22.9624 29.2727C21.6158 29.2727 21.0021 30.4489 21.0021 31.7614C21.0021 33.0739 21.6158 34.233 22.9624 34.233ZM30.31 28.4545V29.3068H28.9123V33.125C28.9123 33.9773 29.3384 34.1136 29.7816 34.1136C30.0032 34.1136 30.1396 34.0795 30.2248 34.0625L30.4293 34.9659C30.293 35.017 30.0543 35.0852 29.6793 35.0852C28.8271 35.0852 27.9066 34.5398 27.9066 33.3977V29.3068H26.918V28.4545H27.9066V26.8864H28.9123V28.4545H30.31ZM34.4116 35.1364C32.6388 35.1364 31.4457 33.7898 31.4457 31.7614C31.4457 29.7159 32.6388 28.3693 34.4116 28.3693C36.1843 28.3693 37.3775 29.7159 37.3775 31.7614C37.3775 33.7898 36.1843 35.1364 34.4116 35.1364ZM34.4116 34.233C35.7582 34.233 36.3718 33.0739 36.3718 31.7614C36.3718 30.4489 35.7582 29.2727 34.4116 29.2727C33.065 29.2727 32.4513 30.4489 32.4513 31.7614C32.4513 33.0739 33.065 34.233 34.4116 34.233ZM39.9183 31.0625V35H38.9126V28.4545H39.8842V29.4773H39.9695C40.2763 28.8125 40.8899 28.3693 41.8786 28.3693C43.2038 28.3693 44.0945 29.1705 44.0945 30.8409V35H43.0888V30.9091C43.0888 29.8821 42.522 29.2727 41.5888 29.2727C40.6257 29.2727 39.9183 29.9205 39.9183 31.0625ZM49.8015 26.2727L52.3924 33.6193H52.4947L55.0856 26.2727H56.1935L52.989 35H51.8981L48.6935 26.2727H49.8015ZM57.5529 35V26.2727H60.5018C62.5515 26.2727 63.4677 27.4915 63.4677 29.0341C63.4677 30.5767 62.5515 31.8125 60.5188 31.8125H58.6097V35H57.5529ZM58.6097 30.875H60.4847C61.8867 30.875 62.4279 30.0824 62.4279 29.0341C62.4279 27.9858 61.8867 27.2102 60.4677 27.2102H58.6097V30.875ZM72.0906 26.2727V35H71.0678L66.3121 28.1477H66.2269V35H65.1701V26.2727H66.1928L70.9656 33.142H71.0508V26.2727H72.0906Z"
        fill="#4B5563"
    />
    <g clip-path="url(#clip0_0_1573)">
        <g clip-path="url(#clip1_0_1573)">
            <path
                d="M67.995 52.4914V63.5535H73.4459C74.9721 63.5535 75.8507 63.3098 76.492 62.7519C77.2936 62.0337 77.6976 60.7511 77.6976 58.0192C77.6976 55.2874 77.3 54.0112 76.492 53.2866C75.8507 52.7222 74.9657 52.485 73.4459 52.485H67.995V52.4914ZM75.4531 58.0192C75.4531 60.424 75.2928 60.982 74.8118 61.3026C74.4912 61.5463 74.0936 61.6232 73.2856 61.6232H70.2395V54.3319H73.2856C74.0872 54.3319 74.4912 54.3319 74.8118 54.6525C75.2928 55.0501 75.4531 55.6144 75.4531 58.0192ZM80.5 65.9968H64.5064V50.0032H80.5V65.9968ZM51.4435 54.3319V52.485H60.9024V56.012H58.8952V54.3319H55.0475V56.9739H58.0936V58.7375H55.0475V61.7002H58.9786V59.7764H60.9794V63.5471H51.4435V61.7002H52.9633V54.3319H51.4371H51.4435ZM42.8631 60.6613C42.8631 61.8669 42.9401 62.7455 43.1004 63.4701H45.2679C45.1846 62.9058 45.1076 61.8669 45.1076 60.5074C45.0242 58.9042 44.5433 58.6605 43.421 58.4232C44.7036 58.1796 45.2679 57.6216 45.2679 55.6144C45.2679 54.0112 45.0242 53.3699 44.5433 52.9723C44.2226 52.6517 43.6647 52.4914 42.7798 52.4914H36.0463V63.5535H38.2908V59.2248H41.4202C42.0615 59.2248 42.2988 59.3018 42.5425 59.4685C42.7862 59.6353 42.8631 59.8661 42.8631 60.6741V60.6613ZM38.2972 57.4549V54.4088H41.9076C42.3886 54.4088 42.5489 54.4858 42.6259 54.5691C42.7862 54.7295 42.9465 54.9667 42.9465 55.9287C42.9465 56.8906 42.7862 57.2112 42.6259 57.3715C42.5489 57.4485 42.3886 57.5319 41.9076 57.5319L38.2972 57.4549ZM48.4743 65.9968H32.4423V50.0032H48.4359V65.9968H48.4743ZM28.2739 61.7066V63.5535H20.6555V61.7066H23.381V54.3319H20.6555V52.485H28.2739V54.3319H25.5485V61.7066H28.2739ZM15.4098 52.4914H13.3257L11.7994 61.2256L10.0359 53.1327C9.95892 52.5683 9.71523 52.4914 9.23427 52.4914H8.11202C7.63106 52.4914 7.39379 52.6517 7.31042 53.1327L5.54689 61.2256L4.02705 52.4914H1.78257L3.9501 62.9956C4.02705 63.4766 4.19379 63.5599 4.7517 63.5599H6.27796C6.75892 63.5599 6.91924 63.483 7.07956 62.9956L8.75972 55.3772L10.4399 62.9956C10.5168 63.4766 10.6836 63.5599 11.2415 63.5599H12.6844C13.1653 63.5599 13.4026 63.483 13.486 62.9956L15.4098 52.4914ZM16.5321 65.9968H0.5V50.0032H16.4936V65.9968H16.5321Z"
                fill="#6F7191"
            />
        </g>
    </g>
    <defs>
        <clipPath id="clip0_0_1573">
            <rect width="80" height="24" fill="white" transform="translate(0.5 46)" />
        </clipPath>
        <clipPath id="clip1_0_1573">
            <rect width="80" height="15.9936" fill="white" transform="translate(0.5 50.0032)" />
        </clipPath>
    </defs>
</svg>
