<svg id="Layer_1" data-name="Layer 1" xmlns="http://www.w3.org/2000/svg" xmlns:xlink="http://www.w3.org/1999/xlink" viewBox="0 0 321.88 227.92">
  <defs>
    <style>
      .cls-1 {
        fill: none;
      }

      .cls-2 {
        fill: #4b4f59;
      }

      .cls-3 {
        fill: #3c414e;
      }

      .cls-4 {
        fill: url(#linear-gradient);
      }

      .cls-5 {
        clip-path: url(#clip-path);
      }

      .cls-6 {
        fill: #4d515d;
      }

      .cls-7 {
        fill: #657ee4;
      }
    </style>
    <linearGradient id="linear-gradient" x1="-277.06" y1="172.72" x2="-277.06" y2="171.72" gradientTransform="matrix(137.13, -19.27, -13.16, -93.66, 40343, 10911.26)" gradientUnits="userSpaceOnUse">
      <stop offset="0" stop-color="gray" stop-opacity="0.25"/>
      <stop offset="0.54" stop-color="gray" stop-opacity="0.12"/>
      <stop offset="1" stop-color="gray" stop-opacity="0.1"/>
    </linearGradient>
    <clipPath id="clip-path">
      <path class="cls-1" d="M11.47,82.35,142,64a1.55,1.55,0,0,1,1.75,1.33h0l12.06,85.8a1.54,1.54,0,0,1-1.32,1.74L24,171.23a1.57,1.57,0,0,1-1.76-1.32L10.14,84.1A1.58,1.58,0,0,1,11.47,82.35Z"/>
    </clipPath>
  </defs>
  <g id="Group_6410" data-name="Group 6410">
    <g id="Group_6400" data-name="Group 6400">
      <path id="Path_2412" data-name="Path 2412" class="cls-2" d="M165.82,156.53a3.35,3.35,0,0,1-2.84,3.79L17.75,180.73A3.35,3.35,0,0,1,14,177.87h0L0,78.65a3.36,3.36,0,0,1,2.84-3.79L148.1,54.45a3.35,3.35,0,0,1,3.77,2.86h0"/>
      <path id="Path_2413" data-name="Path 2413" class="cls-3" d="M163.88,155.13a3.26,3.26,0,0,1-2.77,3.68L19.25,178.75A3.26,3.26,0,0,1,15.58,176h0L2.1,80.08a3.25,3.25,0,0,1,2.77-3.67L146.73,56.47a3.27,3.27,0,0,1,3.68,2.77"/>
      <g id="_5f7f4fba-1df4-4c9b-ab6f-3f66810cb66e" data-name="5f7f4fba-1df4-4c9b-ab6f-3f66810cb66e">
        <path id="Path_2414" data-name="Path 2414" class="cls-4" d="M9.48,80.43,143.53,61.59a1.56,1.56,0,0,1,1.75,1.33h0L158,153.51a1.55,1.55,0,0,1-1.32,1.75l-134,18.84a1.57,1.57,0,0,1-1.77-1.32L8.15,82.18A1.59,1.59,0,0,1,9.48,80.43Z"/>
      </g>
      <path id="Path_2415" data-name="Path 2415" class="cls-3" d="M11.47,82.35,142,64a1.55,1.55,0,0,1,1.75,1.32l12.06,85.79a1.56,1.56,0,0,1-1.32,1.75L24,171.21a1.56,1.56,0,0,1-1.76-1.31L10.14,84.1A1.58,1.58,0,0,1,11.47,82.35Z"/>
      <g id="Group_4008" data-name="Group 4008">
        <g class="cls-5">
          <g id="Group_4007" data-name="Group 4007">
            <path id="Path_2416" data-name="Path 2416" class="cls-6" d="M14.88,171.67l31.29-48a7.52,7.52,0,0,1,10.39-2.19l0,0,11.74,7.74A7.48,7.48,0,0,0,78.05,128L106.2,96.7A7.5,7.5,0,0,1,116.57,96l45.24,37.61a7.45,7.45,0,0,1,2.51,4.07l3.9,16.8a7.49,7.49,0,0,1-5.6,9h0c-.23.05-.43.09-.66.12L22.2,183.2A7.51,7.51,0,0,1,13.77,177h0A7.58,7.58,0,0,1,14.88,171.67Z"/>
          </g>
        </g>
      </g>
      <circle id="Ellipse_856" data-name="Ellipse 856" class="cls-6" cx="28.03" cy="94.55" r="8.35"/>
      <path id="Path_2408" data-name="Path 2408" class="cls-2" d="M269.79,227.54l-146.18-39.2L169.13,18.58,197.77,0,321.88,33.27Z"/>
      <path id="Path_2409" data-name="Path 2409" class="cls-3" d="M268.92,221.77l-141.36-37.9,43.79-163.3L199,2.75,319,34.92Z"/>
      <rect id="Rectangle_1802" data-name="Rectangle 1802" class="cls-6" x="212.95" y="0.28" width="12.01" height="71.29" transform="matrix(0.26, -0.97, 0.97, 0.26, 127.55, 238.11)"/>
      <rect id="Rectangle_1803" data-name="Rectangle 1803" class="cls-6" x="195.34" y="39.18" width="12.01" height="52.23" transform="translate(86.13 242.86) rotate(-74.99)"/>
      <rect id="Rectangle_1804" data-name="Rectangle 1804" class="cls-6" x="193.72" y="78.34" width="44.1" height="117.19" transform="translate(27.63 309.88) rotate(-74.99)"/>
      <rect id="Rectangle_1805" data-name="Rectangle 1805" class="cls-6" x="278.94" y="40.51" width="12.01" height="26.56" transform="translate(159.2 315.09) rotate(-74.99)"/>
      <rect id="Rectangle_1806" data-name="Rectangle 1806" class="cls-6" x="274.1" y="58.58" width="12.01" height="26.56" transform="translate(138.16 323.8) rotate(-74.99)"/>
      <rect id="Rectangle_1807" data-name="Rectangle 1807" class="cls-6" x="269.26" y="76.64" width="12.01" height="26.56" transform="translate(117.12 332.51) rotate(-74.99)"/>
      <path id="Path_2410" data-name="Path 2410" class="cls-3" d="M201.24,3.34l-6.93,25.83-23.58-6.32.61-2.28L199,2.73Z"/>
      <path id="Path_2411" data-name="Path 2411" class="cls-6" d="M171.29,20.56,199,2.73l-6.31,23.55Z"/>
      <path id="Path_2426" data-name="Path 2426" class="cls-7" d="M190.56,160.63h-5.93V149a23.76,23.76,0,1,0-47.52-.71v12.26h-6a10,10,0,0,0-9.89,9.93V218a9.91,9.91,0,0,0,9.89,9.89h59.42a9.91,9.91,0,0,0,9.89-9.89V170.51a9.84,9.84,0,0,0-9.8-9.88ZM164.34,191.5v17.05a3.54,3.54,0,0,1-3.29,3.55,3.48,3.48,0,0,1-3.65-3.29V191.5A7.92,7.92,0,1,1,168,187.86a8.09,8.09,0,0,1-3.65,3.64Zm13.35-30.87H144V148.72a16.82,16.82,0,0,1,33.64,0Z"/>
    </g>
  </g>
</svg>
