<svg xmlns="http://www.w3.org/2000/svg" xmlns:xlink="http://www.w3.org/1999/xlink" viewBox="0 0 235.5 232">
  <defs>
    <style>
      .cls-1 {
        fill: #3c414e;
      }

      .cls-2 {
        fill: url(#linear-gradient);
      }

      .cls-3, .cls-6 {
        fill: #4b5faf;
      }

      .cls-4 {
        fill: url(#linear-gradient-2);
      }

      .cls-5 {
        fill: #657ee4;
      }

      .cls-6 {
        fill-rule: evenodd;
      }
    </style>
    <linearGradient id="linear-gradient" x1="-807.3" y1="511.37" x2="-807.3" y2="511.38" gradientTransform="matrix(62.5, 0, 0, -136, 50660.27, 70021.9)" gradientUnits="userSpaceOnUse">
      <stop offset="0" stop-color="gray" stop-opacity="0.25"/>
      <stop offset="0.54" stop-color="gray" stop-opacity="0.12"/>
      <stop offset="1" stop-color="gray" stop-opacity="0.1"/>
    </linearGradient>
    <linearGradient id="linear-gradient-2" x1="-815.1" y1="511.94" x2="-815.1" y2="511.95" gradientTransform="matrix(195.5, 0, 0, -156, 159460.04, 80338.33)" xlink:href="#linear-gradient"/>
  </defs>
  <g id="Group_6409" data-name="Group 6409">
    <path id="Path_1671" data-name="Path 1671" class="cls-1" d="M116,0A116,116,0,1,1,0,116H0A116,116,0,0,1,115.91,0Z"/>
    <path id="Path_2002" data-name="Path 2002" class="cls-2" d="M206.5,191.5H173V55.5h62.5Z"/>
    <path id="Path_2003" data-name="Path 2003" class="cls-3" d="M204.8,191.5H172V55.5h61.3Z"/>
    <path id="Path_2007" data-name="Path 2007" class="cls-4" d="M64.5,53.9,41.9,38H10.6V194H206.1V53.9Z"/>
    <path id="Path_2008" data-name="Path 2008" class="cls-5" d="M65.1,55.5,42.8,40.1H12V191.5H204.6V55.5Z"/>
    <path id="Path_2010" data-name="Path 2010" class="cls-3" d="M108.53,97.2a26.1,26.1,0,1,1-26.1,26.1h0a26.12,26.12,0,0,1,26.1-26.1h0m0-3.4a29.45,29.45,0,1,0,.1,0Z"/>
    <path id="Path_5311" data-name="Path 5311" class="cls-6" d="M107.53,107.58H110a1.3,1.3,0,0,1,1.3,1.28V120h11.13a1.29,1.29,0,0,1,1.3,1.28v2.47a1.25,1.25,0,0,1-1.2,1.3H111.29V136.2a1.24,1.24,0,0,1-1.19,1.3h-2.57a1.31,1.31,0,0,1-1.3-1.29h0V125.07H95.1a1.29,1.29,0,0,1-1.3-1.28v-2.48a1.34,1.34,0,0,1,1.3-1.3h11.13V108.88A1.34,1.34,0,0,1,107.53,107.58Z"/>
  </g>
</svg>
