<svg version="1.1" id="Layer_1" xmlns="http://www.w3.org/2000/svg" xmlns:xlink="http://www.w3.org/1999/xlink" x="0" y="0" viewBox="0 0 268.2 211" xml:space="preserve"><style>.st2{fill:#fff}.st5{fill:#e0e0e0}.st6{fill:#f5f5f5}.st10{fill:#657ee4}</style><g id="Group_6752" transform="translate(-553.419 -212.805)"><path id="Path_1671_1_" d="M686.3 230.5c53.4 0 96.7 43.3 96.7 96.7s-43.3 96.7-96.7 96.7c-53.4 0-96.7-43.3-96.7-96.7.1-53.4 43.3-96.7 96.7-96.7z" fill="#f2f2f2"/><g id="Group_6092" transform="translate(553.419 212.805)"><g id="Group_4009" transform="rotate(-8 484.113 33.852)"><linearGradient id="Path_2412_1_" gradientUnits="userSpaceOnUse" x1="-227.878" y1="404.306" x2="-227.878" y2="403.306" gradientTransform="matrix(126.5345 12.3995 17.7832 -88.2269 21708.783 38472.535)"><stop offset="0" stop-color="gray" stop-opacity=".251"/><stop offset=".54" stop-color="gray" stop-opacity=".122"/><stop offset="1" stop-color="gray" stop-opacity=".102"/></linearGradient><path id="Path_2412" d="M128.1 81.4c0 1.5-1.2 2.8-2.8 2.8H3.1c-1.5 0-2.8-1.3-2.8-2.8V-2.1c0-1.5 1.2-2.8 2.8-2.8h122.2c1.5 0 2.8 1.3 2.8 2.8" fill="url(#Path_2412_1_)"/><path id="Path_2413" class="st2" d="M126.7 80c0 1.5-1.2 2.7-2.7 2.7H4.6c-1.5 0-2.7-1.2-2.7-2.7V-.7c0-1.5 1.2-2.7 2.7-2.7H124c1.5 0 2.7 1.2 2.7 2.7"/><g id="_x35_f7f4fba-1df4-4c9b-ab6f-3f66810cb66e_1_" transform="translate(6.286 5.363)"><linearGradient id="Path_2414_1_" gradientUnits="userSpaceOnUse" x1="-233.961" y1="398.281" x2="-233.961" y2="397.281" gradientTransform="matrix(114.267 10.9697 16.0592 -78.0539 20396.03 33651.063)"><stop offset="0" stop-color="gray" stop-opacity=".251"/><stop offset=".54" stop-color="gray" stop-opacity=".122"/><stop offset="1" stop-color="gray" stop-opacity=".102"/></linearGradient><path id="Path_2414" d="M1.6-4.9h112.8c.7 0 1.3.6 1.3 1.3v76.2c0 .7-.6 1.3-1.3 1.3H1.6c-.7 0-1.3-.6-1.3-1.3V-3.6c0-.8.6-1.3 1.3-1.3z" fill="url(#Path_2414_1_)"/></g><path id="Path_2415" class="st2" d="M9.3 2.2h109.8c.7 0 1.3.6 1.3 1.3v72.2c0 .7-.6 1.3-1.3 1.3H9.3c-.7 0-1.3-.6-1.3-1.3V3.5c0-.7.6-1.2 1.3-1.3z"/><g transform="translate(7.708 7.18)" id="Group_4008"><defs><path id="SVGID_1_" d="M1.6-4.9h109.8c.7 0 1.3.6 1.3 1.3v72.2c0 .7-.6 1.3-1.3 1.3H1.6c-.7 0-1.3-.6-1.3-1.3V-3.6c0-.8.6-1.3 1.3-1.3z"/></defs><clipPath id="SVGID_2_"><use xlink:href="#SVGID_1_" overflow="visible"/></clipPath><g id="Group_4007" clip-path="url(#SVGID_2_)"><path id="Path_2416" class="st5" d="M-5.9 69.2l31.4-36c2.3-2.6 6.2-2.9 8.8-.6l8.8 7.8c2.3 2.1 5.8 2.1 8.2.1l26.9-22.6c2.6-2.2 6.4-1.9 8.6.6l33 36.3c.9 1 1.5 2.3 1.6 3.6l1.3 14.3c.3 3.4-2.2 6.5-5.7 6.8H-1.2c-3.4 0-6.1-2.7-6.2-6.1-.1-1.5.5-3 1.5-4.2z"/></g></g><ellipse id="Ellipse_856" transform="scale(-1) rotate(8.001 203.465 -308.693)" class="st5" cx="21.6" cy="14.2" rx="7" ry="7"/></g><g id="Group_4006" transform="rotate(14.98 73.132 557.095)"><path id="Rectangle_1798" transform="rotate(90 22.66 45.996)" class="st6" d="M17.7 34.9h10V57h-10z"/><path id="Rectangle_1799" transform="rotate(90 22.66 61.581)" class="st6" d="M17.7 50.5h10v22.1h-10z"/><path id="Rectangle_1800" transform="rotate(90 61.351 32.078)" class="st6" d="M56.3 21h10v22.1h-10z"/><path id="Rectangle_1801" transform="rotate(90 61.351 47.664)" class="st6" d="M56.3 36.6h10v22.1h-10z"/><linearGradient id="Path_2408_1_" gradientUnits="userSpaceOnUse" x1="-174.646" y1="565.95" x2="-174.646" y2="564.95" gradientTransform="matrix(121.8126 -43.404 -32.6599 -161.8852 39819.336 84060.023)"><stop offset=".01" stop-color="gray" stop-opacity=".251"/><stop offset=".54" stop-color="gray" stop-opacity=".122"/><stop offset="1" stop-color="gray" stop-opacity=".102"/></linearGradient><path id="Path_2408" d="M124.5 162.9H-1.6V16.5l19-21.1h107.1v167.5z" fill="url(#Path_2408_1_)"/><path id="Path_2409" class="st2" d="M122.5 158.5H.6V17.6L19-2.7h103.5v161.2z"/><path id="Rectangle_1802" transform="rotate(90 42.217 19.68)" class="st5" d="M37.2-10h10v59.4h-10z"/><path id="Rectangle_1803" transform="rotate(90 34.374 47.116)" class="st5" d="M29.4 25.4h10v43.5h-10z"/><path id="Rectangle_1804" transform="rotate(90 61.437 101.666)" class="st5" d="M43.1 52.8h36.7v97.6H43.1z"/><path id="Rectangle_1805" transform="rotate(90 99.194 19.83)" class="st5" d="M94.2 8.8h10v22.1h-10z"/><path id="Rectangle_1806" transform="rotate(90 99.194 35.414)" class="st5" d="M94.2 24.3h10v22.1h-10z"/><path id="Rectangle_1807" transform="rotate(90 99.194 51)" class="st5" d="M94.2 39.9h10V62h-10z"/><linearGradient id="Path_2410_1_" gradientUnits="userSpaceOnUse" x1="-169.383" y1="547.647" x2="-169.383" y2="546.647" gradientTransform="matrix(19.6494 -5.7713 -5.2683 -21.5254 6224.222 10975.524)"><stop offset="0" stop-color="#b3b3b3" stop-opacity=".251"/><stop offset=".54" stop-color="#b3b3b3" stop-opacity=".102"/><stop offset="1" stop-color="#b3b3b3" stop-opacity=".051"/></linearGradient><path id="Path_2410" d="M20.9-2.7v22.3H.6v-2L19-2.7h1.9z" fill="url(#Path_2410_1_)"/><path id="Path_2411" d="M.5 17.6L19-2.7v20.3H.5z" fill="#eee"/></g></g><g id="Group_6696" transform="translate(631.38 268.352)"><g id="Group_6695" transform="translate(48.683 2.531)"><path id="Path_5835" class="st10" d="M46.6-1.1c-5.2-3.2-11.4-4.4-17.5-3.6-6.3.9-12 4-16.2 8.8-1 1.3-10.3 13.6-11.4 15.1L.1 21.1c-.7 1-.5 2.3.4 3 .3.2.7.4 1 .4h.1c1 .1 2-.3 2.6-1.1C9.8 15.9 15.7 8.1 16.5 7.2c7-7.9 18.6-9.7 27.7-4.3 1.1.7 2.6.3 3.2-.8.6-1.1.3-2.5-.8-3.2z"/><path id="Path_5836" class="st10" d="M16.5 7.2l-.1.1.1-.1z"/></g></g><g id="Group_6753" transform="translate(621.763 268.352)"><path id="Path_5847" class="st10" d="M2.1 100L59 43.1C50.3 27.6 55.8 8 71.3-.8s35.1-3.3 43.9 12.2 3.3 35.1-12.2 43.9c-9.8 5.6-21.9 5.6-31.7 0L42.7 83.8l9.1 9.1c1.3 1.4 1.3 3.6 0 5l-6.4 6.4c-1.4 1.3-3.6 1.3-5 0l-9.1-9.1-5.6 5.6 9.1 9.1c1.3 1.4 1.3 3.6 0 5l-6.4 6.4c-1.4 1.3-3.6 1.3-5 0l-9.1-9.1c-3.4 3.4-8.8 3.4-12.2 0s-3.3-8.8 0-12.2zm85.8-73.4c3.5 3.5 9.2 3.5 12.7 0s3.5-9.2 0-12.7-9.2-3.5-12.7 0c-3.5 3.4-3.6 9-.3 12.5.1 0 .2.1.3.2z"/></g></g></svg>