<svg version="1.1" id="Layer_1" xmlns="http://www.w3.org/2000/svg" xmlns:xlink="http://www.w3.org/1999/xlink" x="0" y="0" viewBox="0 0 268.2 211" xml:space="preserve"><style>.st0{fill:#3c414e}.st4{fill:#4d515d}.st5{fill:#f5f5f5}.st7{fill:#657ee4}</style><g id="Group_6752" transform="translate(-553.418 -212.805)"><path id="Path_1671_1_" class="st0" d="M686.3 230.5c53.4 0 96.7 43.3 96.7 96.7s-43.3 96.7-96.7 96.7-96.7-43.3-96.7-96.7c.1-53.4 43.3-96.7 96.7-96.7z"/><linearGradient id="Path_2412_1_" gradientUnits="userSpaceOnUse" x1="384.026" y1="712.596" x2="384.026" y2="711.596" gradientTransform="matrix(126.5345 -17.7833 -12.3995 -88.2269 -39143.008 69947.469)"><stop offset="0" stop-color="gray" stop-opacity=".251"/><stop offset=".54" stop-color="gray" stop-opacity=".122"/><stop offset="1" stop-color="gray" stop-opacity=".102"/></linearGradient><path id="Path_2412" d="M691.6 343.2c.2 1.5-.8 2.9-2.4 3.2l-121 17c-1.5.2-2.9-.9-3.1-2.4l-11.6-82.7c-.2-1.5.8-2.9 2.4-3.2l121-17c1.5-.2 2.9.9 3.1 2.4" fill="url(#Path_2412_1_)"/><path id="Path_2413" class="st0" d="M690 342.1c.2 1.5-.8 2.9-2.3 3.1l-118.2 16.6c-1.5.2-2.9-.8-3.1-2.3l-11.2-79.9c-.2-1.5.8-2.9 2.3-3.1l118.2-16.6c1.5-.2 2.8.8 3.1 2.3"/><g id="_x35_f7f4fba-1df4-4c9b-ab6f-3f66810cb66e_1_" transform="rotate(-8 2317.654 -3864.502)"><linearGradient id="Path_2414_1_" gradientUnits="userSpaceOnUse" x1="-233.962" y1="398.281" x2="-233.962" y2="397.281" gradientTransform="matrix(114.267 10.9697 16.0592 -78.0539 20396.12 33651.059)"><stop offset="0" stop-color="gray" stop-opacity=".251"/><stop offset=".54" stop-color="gray" stop-opacity=".122"/><stop offset="1" stop-color="gray" stop-opacity=".102"/></linearGradient><path id="Path_2414" d="M1.6-4.9h112.8c.7 0 1.3.6 1.3 1.3v76.2c0 .7-.6 1.3-1.3 1.3H1.6c-.7 0-1.3-.6-1.3-1.3V-3.6c0-.8.6-1.3 1.3-1.3z" fill="url(#Path_2414_1_)"/></g><path id="Path_2415" class="st0" d="M563 281.4l108.8-15.3c.7-.1 1.4.4 1.5 1.1l10 71.5c.1.7-.4 1.4-1.1 1.5l-108.8 15.3c-.7.1-1.4-.4-1.5-1.1l-10-71.5c-.1-.7.4-1.4 1.1-1.5z"/><g transform="rotate(-8 2329.94 -3875.578)" id="Group_4008"><defs><path id="SVGID_1_" d="M1.6-4.9h109.8c.7 0 1.3.6 1.3 1.3v72.2c0 .7-.6 1.3-1.3 1.3H1.6c-.7 0-1.3-.6-1.3-1.3V-3.6c0-.8.6-1.3 1.3-1.3z"/></defs><clipPath id="SVGID_2_"><use xlink:href="#SVGID_1_" overflow="visible"/></clipPath><g id="Group_4007" clip-path="url(#SVGID_2_)"><path id="Path_2416" class="st4" d="M-5.9 69.2l31.4-36c2.3-2.6 6.2-2.9 8.8-.6l8.8 7.8c2.3 2.1 5.8 2.1 8.2.1l26.9-22.6c2.6-2.2 6.4-1.9 8.6.6l33 36.3c.9 1 1.5 2.3 1.6 3.6l1.3 14.3c.3 3.4-2.2 6.5-5.7 6.8H-1.2c-3.4 0-6.1-2.7-6.2-6.1-.1-1.5.5-3 1.5-4.2z"/></g></g><ellipse id="Ellipse_856" class="st4" cx="576.8" cy="291.6" rx="7" ry="7"/><path id="Rectangle_1798" transform="rotate(-74.989 710.189 263.083)" class="st5" d="M705.2 252h10v22.1h-10z"/><path id="Rectangle_1799" transform="rotate(-74.989 706.155 278.137)" class="st5" d="M701.1 267.1h10v22.1h-10z"/><path id="Rectangle_1800" transform="rotate(-74.989 751.163 259.652)" class="st5" d="M746.1 248.6h10v22.1h-10z"/><path id="Rectangle_1801" transform="rotate(-74.989 747.128 274.707)" class="st5" d="M742.1 263.7h10v22.1h-10z"/><path id="Path_2408" d="M778.2 402.4l-121.8-32.7 37.9-141.5 23.9-15.5 103.4 27.7-43.4 162z" fill="#4b4f59"/><path id="Path_2409" class="st0" d="M777.5 397.6L659.7 366l36.5-136.1 23.1-14.9 100 26.8-41.8 155.8z"/><path id="Rectangle_1802" transform="rotate(-74.989 735.891 242.727)" class="st4" d="M730.9 213h10v59.4h-10z"/><path id="Rectangle_1803" transform="rotate(-74.989 721.214 267.198)" class="st4" d="M716.2 245.5h10V289h-10z"/><path id="Path_5858" class="st4" d="M690.8 296.5l94.3 25.3-9.5 35.5-94.3-25.3 9.5-35.5z"/><path id="Rectangle_1805" transform="rotate(-74.989 790.887 257.614)" class="st4" d="M785.9 246.6h10v22.1h-10z"/><path id="Rectangle_1806" transform="rotate(-74.989 786.854 272.668)" class="st4" d="M781.8 261.6h10v22.1h-10z"/><path id="Rectangle_1807" transform="rotate(-74.989 782.82 287.723)" class="st4" d="M777.8 276.7h10v22.1h-10z"/><path id="Path_2410" class="st0" d="M721.1 215.6l-5.8 21.5-19.6-5.3.5-1.9 23-14.9 1.9.6z"/><path id="Path_2411" class="st4" d="M696.2 229.9l23.1-14.9-5.3 19.6-17.8-4.7z"/><g id="Group_6696" transform="translate(631.38 268.352)"><g id="Group_6695" transform="translate(48.683 2.531)"><path id="Path_5835" class="st7" d="M46.6-1.1c-5.2-3.2-11.4-4.4-17.5-3.6-6.3.9-12 4-16.2 8.8-1 1.3-10.3 13.6-11.4 15.1L.1 21.1c-.7 1-.5 2.3.4 3 .3.2.7.4 1 .4h.1c1 .1 2-.3 2.6-1.1C9.8 15.9 15.7 8.1 16.5 7.2c7-7.9 18.6-9.7 27.7-4.3 1.1.7 2.6.3 3.2-.8.6-1.1.3-2.5-.8-3.2z"/><path id="Path_5836" class="st7" d="M16.5 7.2l-.1.1.1-.1z"/></g></g><g id="Group_6753" transform="translate(621.763 268.352)"><path id="Path_5847" class="st7" d="M2.1 100L59 43.1C50.3 27.6 55.8 8 71.3-.8s35.1-3.3 43.9 12.2 3.3 35.1-12.2 43.9c-9.8 5.6-21.9 5.6-31.7 0L42.7 83.8l9.1 9.1c1.3 1.4 1.3 3.6 0 5l-6.4 6.4c-1.4 1.3-3.6 1.3-5 0l-9.1-9.1-5.6 5.6 9.1 9.1c1.3 1.4 1.3 3.6 0 5l-6.4 6.4c-1.4 1.3-3.6 1.3-5 0l-9.1-9.1c-3.4 3.4-8.8 3.4-12.2 0s-3.3-8.8 0-12.2zm85.8-73.4c3.5 3.5 9.2 3.5 12.7 0s3.5-9.2 0-12.7-9.2-3.5-12.7 0c-3.5 3.4-3.6 9-.3 12.5.1 0 .2.1.3.2z"/></g></g></svg>