<svg id="Layer_1" data-name="Layer 1" xmlns="http://www.w3.org/2000/svg" xmlns:xlink="http://www.w3.org/1999/xlink" width="235.5" height="236.7" viewBox="0 0 235.5 236.7">
  <defs>
    <style>
      .cls-1 {
        fill: none;
      }

      .cls-2 {
        fill: #3c414e;
      }

      .cls-3 {
        fill: url(#linear-gradient);
      }

      .cls-4 {
        fill: #4b5faf;
      }

      .cls-5 {
        fill: url(#linear-gradient-2);
      }

      .cls-6 {
        fill: #4d515d;
      }

      .cls-7 {
        fill: url(#linear-gradient-3);
      }

      .cls-8 {
        fill: #5b606e;
      }

      .cls-9 {
        fill: url(#linear-gradient-4);
      }

      .cls-10 {
        clip-path: url(#clip-path);
      }

      .cls-11 {
        fill: #fff;
      }

      .cls-12 {
        fill: url(#linear-gradient-5);
      }

      .cls-13 {
        fill: #657ee4;
      }
    </style>
    <linearGradient id="linear-gradient" x1="-277.62" y1="514.07" x2="-277.62" y2="514.08" gradientTransform="matrix(62.5, 0, 0, -136, 17555.57, 70415.71)" gradientUnits="userSpaceOnUse">
      <stop offset="0" stop-color="gray" stop-opacity="0.25"/>
      <stop offset="0.54" stop-color="gray" stop-opacity="0.12"/>
      <stop offset="1" stop-color="gray" stop-opacity="0.1"/>
    </linearGradient>
    <linearGradient id="linear-gradient-2" x1="-279.28" y1="510.4" x2="-279.28" y2="510.41" gradientTransform="matrix(148.7, 0, 0, -89.2, 41612.66, 46026.71)" xlink:href="#linear-gradient"/>
    <linearGradient id="linear-gradient-3" x1="-279.29" y1="511.46" x2="-279.29" y2="511.47" gradientTransform="matrix(150.3, 0, 0, -99.8, 42102.02, 51543.6)" xlink:href="#linear-gradient"/>
    <linearGradient id="linear-gradient-4" x1="-279.47" y1="515.65" x2="-278.47" y2="515.65" gradientTransform="matrix(118.67, 0, 0, -93.42, 33279.82, 48236.38)" xlink:href="#linear-gradient"/>
    <clipPath id="clip-path">
      <path class="cls-1" d="M135.14,18.06l94.09,25.18a3.13,3.13,0,0,1,2.17,3.87v0h0L215.22,107.6a3.13,3.13,0,0,1-3.8,2.2L117.33,84.62A3.26,3.26,0,0,1,115,80.8l16.18-60.47A3.16,3.16,0,0,1,135.06,18Z"/>
    </clipPath>
    <linearGradient id="linear-gradient-5" x1="-279.56" y1="514.64" x2="-279.56" y2="514.65" gradientTransform="matrix(195.5, 0, 0, -156, 54763.07, 80785.73)" xlink:href="#linear-gradient"/>
  </defs>
  <g id="Group_6407" data-name="Group 6407">
    <path id="Path_1671" data-name="Path 1671" class="cls-2" d="M116,4.7A116,116,0,1,1,0,120.7H0A116,116,0,0,1,115.91,4.7Z"/>
    <path id="Path_2002" data-name="Path 2002" class="cls-3" d="M206.5,218.2H173V82.2h62.5Z"/>
    <path id="Path_2003" data-name="Path 2003" class="cls-4" d="M204.8,218.2H172V82.2h61.3Z"/>
    <path id="Path_2004" data-name="Path 2004" class="cls-5" d="M9.9,37.6,144.2,0l14.4,51.6L24.4,89.2Z"/>
    <path id="Rectangle_1444" data-name="Rectangle 1444" class="cls-2" d="M11.5,37.9,143.6,1l14,50L25.5,87.9Z"/>
    <path id="Rectangle_1445" data-name="Rectangle 1445" class="cls-6" d="M52.3,45.4l33.2-9.3.7,2.5L53,47.9Z"/>
    <path id="Rectangle_1446" data-name="Rectangle 1446" class="cls-6" d="M55.2,55.5l33.2-9.3.7,2.5L55.9,58Z"/>
    <path id="Rectangle_1447" data-name="Rectangle 1447" class="cls-6" d="M53.8,50.5l53.4-14.9.7,2.5L54.5,53Z"/>
    <circle id="Ellipse_832" data-name="Ellipse 832" class="cls-6" cx="39.9" cy="55.7" r="6.1"/>
    <path id="Path_2005" data-name="Path 2005" class="cls-7" d="M49.7,60.4,181,11.5l19,50.9L68.6,111.3Z"/>
    <path id="Rectangle_1448" data-name="Rectangle 1448" class="cls-8" d="M51.5,61.2,180,13.4,198.1,62,69.6,109.9Z"/>
    <path id="Rectangle_1451" data-name="Rectangle 1451" class="cls-2" d="M95.1,70.3l52.1-19.4.9,2.5-52,19.4Z"/>
    <path id="Rectangle_1449" data-name="Rectangle 1449" class="cls-2" d="M92.8,65.3l32.3-12,.9,2.5-32.3,12Z"/>
    <path id="Rectangle_1450" data-name="Rectangle 1450" class="cls-2" d="M96.4,75.2l32.3-12,.9,2.5-32.3,12Z"/>
    <path id="Path_2017" data-name="Path 2017" class="cls-9" d="M134.5,16.8l95.8,25.6a3.27,3.27,0,0,1,2.3,3.9l-16.5,61.5a3.14,3.14,0,0,1-3.84,2.22l-.06,0h0L116.4,84.4a3.27,3.27,0,0,1-2.3-3.9L130.6,19A3.26,3.26,0,0,1,134.5,16.8Z"/>
    <path id="Path_2017-2" data-name="Path 2017" class="cls-2" d="M135.2,18l94.1,25.2A3.14,3.14,0,0,1,231.52,47l0,.06-16.2,60.5a3.14,3.14,0,0,1-3.84,2.22l-.06,0h0L117.3,84.6a3,3,0,0,1-2.24-3.66s0-.09,0-.14l16.2-60.5A3.23,3.23,0,0,1,135.2,18Z"/>
    <g id="Group_3893" data-name="Group 3893">
      <g id="Group_3946" data-name="Group 3946">
        <g class="cls-10">
          <g id="Group_3891" data-name="Group 3891">
            <path id="Path_2015" data-name="Path 2015" class="cls-6" d="M108.79,81.72l36.5-24.61a5.82,5.82,0,0,1,8,1.52h0l6,8.95a5.76,5.76,0,0,0,7.22,2l29.24-13.71a5.76,5.76,0,0,1,7.59,2.55l20.74,40.12a5.9,5.9,0,0,1,.57,3.67l-2.25,13.06a5.83,5.83,0,0,1-6.66,4.75L110.51,91.91A5.83,5.83,0,0,1,106.36,85,6.91,6.91,0,0,1,108.79,81.72Z"/>
          </g>
        </g>
      </g>
    </g>
    <circle id="Ellipse_836" data-name="Ellipse 836" class="cls-6" cx="141.2" cy="31.1" r="6.4"/>
    <circle id="Ellipse_833" data-name="Ellipse 833" class="cls-2" cx="81.2" cy="76.6" r="6.1"/>
    <path id="Rectangle_1454" data-name="Rectangle 1454" class="cls-11" d="M136.3,85l.5-2.6,34,6-.5,2.6Z"/>
    <path id="Path_2007" data-name="Path 2007" class="cls-12" d="M64.5,80.6,41.9,64.7H10.6v156H206.1V80.6Z"/>
    <path id="Path_2008" data-name="Path 2008" class="cls-13" d="M65.1,82.2,42.8,66.8H12V218.2H204.6V82.2Z"/>
    <g id="Group_3890" data-name="Group 3890">
      <path id="Path_2009" data-name="Path 2009" class="cls-4" d="M96.33,151.6l-1.5-1.5a1.55,1.55,0,0,1-.2-2.1l.1-.1.1-.1,12.8-12.8a1.55,1.55,0,0,1,2.1-.2l.1.1.1.1,12.8,12.8a1.57,1.57,0,0,1,.1,2.2l-.1.1-1.5,1.5a1.57,1.57,0,0,1-2.2.1l-.1-.1-7.5-8v19a1.57,1.57,0,0,1-1.5,1.6h-2.3a1.57,1.57,0,0,1-1.6-1.5V143.6l-7.5,8a1.43,1.43,0,0,1-2,.2C96.43,151.7,96.33,151.7,96.33,151.6Z"/>
      <path id="Path_2010" data-name="Path 2010" class="cls-4" d="M108.53,123.9A26.1,26.1,0,1,1,82.43,150h0a26.12,26.12,0,0,1,26.1-26.1h0m0-3.4a29.45,29.45,0,1,0,.1,0Z"/>
    </g>
  </g>
</svg>
