<svg xmlns="http://www.w3.org/2000/svg" xmlns:xlink="http://www.w3.org/1999/xlink" width="321.9" height="253.2" viewBox="0 0 321.9 253.2">
  <defs/>
  <style>
    .st0{fill:#3c414e}.st1{fill:#4d515d}.st4{fill:#f5f5f5}.st6{fill:#657ee4}
  </style>
  <g id="Group_6741" transform="translate(-623.06 -302.84)">
    <g id="Group_6740">
      <path id="Path_1671_1_" d="M782.6 324.1c64.1 0 116 51.9 116 116s-51.9 116-116 116-116-51.9-116-116c-.1-64.1 51.8-116 116-116-.1 0-.1 0 0 0z" class="st0"/>
      <path id="Path_2412" d="M788.9 459.4c.3 1.8-1 3.5-2.8 3.8l-145.2 20.4c-1.8.2-3.5-1-3.8-2.9l-13.9-99.2c-.3-1.8 1-3.5 2.8-3.8l145.2-20.4c1.8-.2 3.5 1 3.8 2.9" class="st1"/>
      <path id="Path_2413" d="M786.9 458c.2 1.8-1 3.4-2.8 3.7l-141.9 19.9c-1.8.2-3.4-1-3.7-2.8L625 382.9c-.2-1.8 1-3.4 2.8-3.7l141.9-19.9c1.8-.2 3.4 1 3.7 2.8" class="st0"/>
      <g id="_x35_f7f4fba-1df4-4c9b-ab6f-3f66810cb66e_1_" transform="rotate(-8 3100.15 -4320.21)">
        <linearGradient id="Path_2414_1_" x1="-581.32" x2="-581.32" y1="345.06" y2="344.06" gradientTransform="matrix(137.1264 13.1635 19.2718 -93.6635 73134.33 39968.4)" gradientUnits="userSpaceOnUse">
          <stop offset="0" stop-color="gray" stop-opacity=".25"/>
          <stop offset=".54" stop-color="gray" stop-opacity=".12"/>
          <stop offset="1" stop-color="gray" stop-opacity=".1"/>
        </linearGradient>
        <path id="Path_2414" fill="url(#Path_2414_1_)" d="M2-5.9h135.4c.9 0 1.6.7 1.5 1.6v91.5c0 .9-.7 1.5-1.5 1.5H2c-.9 0-1.6-.7-1.6-1.5V-4.3c0-.9.7-1.6 1.6-1.6z"/>
      </g>
      <path id="Path_2415" d="M634.5 385.2L765 366.9c.8-.1 1.6.5 1.7 1.3l12.1 85.8c.1.8-.5 1.6-1.3 1.7L647 474.1c-.8.1-1.6-.5-1.8-1.3L633.1 387c0-.9.6-1.7 1.4-1.8z" class="st0"/>
      <g id="Group_4008" transform="rotate(-8 3114.88 -4333.5)">
        <defs>
          <path id="SVGID_1_" d="M2-5.9h131.8c.9 0 1.6.7 1.5 1.6v86.6c0 .9-.7 1.5-1.5 1.5H2c-.9 0-1.6-.7-1.6-1.5V-4.4c0-.8.7-1.5 1.6-1.5z"/>
        </defs>
        <clipPath id="SVGID_2_">
          <use overflow="visible" xlink:href="#SVGID_1_"/>
        </clipPath>
        <g id="Group_4007" clip-path="url(#SVGID_2_)">
          <path id="Path_2416" d="M-7.1 83l37.7-43.2c2.7-3.1 7.5-3.4 10.6-.7l10.5 9.3c2.8 2.5 6.9 2.5 9.8.1l32.2-27.1a7.5 7.5 0 0110.4.7l39.6 43.5c1.1 1.2 1.8 2.7 1.9 4.4l1.5 17.2c.4 4.1-2.7 7.8-6.8 8.1H-1.5c-4.1 0-7.4-3.2-7.5-7.3a8 8 0 011.9-5z" class="st1"/>
        </g>
      </g>
      <path id="Path_5846" d="M649.9 389.1c4.6-.6 8.8 2.5 9.4 7.1.6 4.6-2.5 8.8-7.1 9.4-4.6.6-8.8-2.5-9.4-7.1s2.6-8.7 7.1-9.4z" class="st1"/>
      <path id="Rectangle_1798" d="M805.2 349.9h12v26.6h-12z" class="st4" transform="rotate(-74.99 811.19 363.18)"/>
      <path id="Rectangle_1799" d="M800.3 368h12v26.6h-12z" class="st4" transform="rotate(-74.99 806.35 381.24)"/>
      <path id="Rectangle_1800" d="M854.3 345.8h12v26.6h-12z" class="st4" transform="rotate(-74.99 860.36 359.06)"/>
      <path id="Rectangle_1801" d="M849.5 363.9h12v26.6h-12z" class="st4" transform="rotate(-74.99 855.52 377.13)"/>
      <path id="Path_2408" fill="#4b4f59" d="M892.9 530.4l-146.2-39.2 45.5-169.8 28.6-18.6 124.1 33.3-52 194.3z"/>
      <path id="Path_2409" d="M892 524.6l-141.4-37.9 43.8-163.3 27.7-17.8 120 32.2L892 524.6z" class="st0"/>
      <path id="Rectangle_1802" d="M836 303.1h12v71.3h-12z" class="st1" transform="rotate(-74.99 842.03 338.75)"/>
      <path id="Rectangle_1803" d="M818.4 342h12v52.2h-12z" class="st1" transform="rotate(-74.99 824.42 368.12)"/>
      <path id="Rectangle_1804" d="M816.8 381.2h44.1v117.2h-44.1z" class="st1" transform="rotate(-74.99 838.85 439.76)"/>
      <path id="Rectangle_1805" d="M902 343.4h12V370h-12z" class="st1" transform="rotate(-74.99 908.03 356.61)"/>
      <path id="Rectangle_1806" d="M897.2 361.4h12V388h-12z" class="st1" transform="rotate(-74.99 903.19 374.68)"/>
      <path id="Rectangle_1807" d="M892.3 379.5h12v26.6h-12z" class="st1" transform="rotate(-74.99 898.34 392.75)"/>
      <path id="Path_2410" d="M824.3 306.2l-6.9 25.8-23.6-6.3.6-2.3 27.6-17.8 2.3.6z" class="st0"/>
      <path id="Path_2411" d="M794.3 323.4l27.7-17.8-6.3 23.6-21.4-5.8z" class="st1"/>
      <g id="Group_6696" transform="translate(1665.86 335.95)">
        <path id="Path_5832" d="M-823.5 80.3c.3-.4.5-.8.8-1.2 0-.1.1-.1.1-.2.1-.1.1-.2.2-.3.1-.1.2-.3.2-.4s.1-.3.2-.4l.2-.4c.1-.1.2-.3.2-.4.1-.1.1-.2.2-.3s.1-.2.2-.4.1-.3.2-.4.1-.2.2-.4c.1-.1.1-.3.2-.4.1-.2.1-.3.2-.5 0-.1.1-.2.1-.3.1-.1.1-.3.2-.4s.1-.2.2-.4.1-.2.1-.4c.1-.1.1-.3.2-.4 0-.1.1-.2.1-.4 0-.1.1-.3.2-.4 0-.1.1-.2.1-.4s.1-.3.1-.4.1-.3.1-.4.1-.3.1-.4c0-.1.1-.2.1-.3 0-.2.1-.3.1-.5 0-.1.1-.2.1-.4 0-.1.1-.3.1-.4 0-.1.1-.2.1-.4 0-.1.1-.3.1-.4 0-.1 0-.2.1-.3 0-.2.1-.3.1-.5 0-.1 0-.3.1-.4s0-.3.1-.4V66c0-.2 0-.3.1-.5v-.3c0-.2 0-.3.1-.5V57.1c0-.1 0-.3-.1-.4s0-.3-.1-.4 0-.3-.1-.4 0-.3-.1-.4 0-.3-.1-.4-.1-.3-.1-.4-.1-.3-.1-.4c0-.1-.1-.2-.1-.4 0-.1-.1-.3-.1-.4s-.1-.3-.1-.4-.1-.3-.1-.4-.1-.3-.1-.4-.1-.3-.1-.4-.1-.2-.1-.4-.1-.3-.1-.4-.1-.2-.1-.4-.1-.3-.1-.4-.1-.2-.1-.4-.1-.3-.1-.4c0-.1-.1-.2-.1-.3-.1-.1-.1-.3-.2-.4 0-.1-.1-.2-.1-.3-.1-.1-.1-.3-.2-.4-.1-.1-.1-.2-.2-.4s-.1-.3-.2-.4-.1-.2-.2-.4l-.2-.4-.2-.4c-.1-.2-.1-.3-.2-.4s-.1-.2-.2-.4l-.2-.4c-.1-.2-.1-.3-.2-.4-.1-.1-.1-.2-.2-.3s-.1-.2-.2-.4-.1-.2-.2-.3-.1-.2-.2-.3-.1-.2-.2-.4-.2-.2-.2-.3-.2-.2-.2-.3-.2-.2-.2-.3-.2-.2-.2-.3-.2-.2-.2-.3-.2-.2-.3-.4-.2-.2-.2-.3-.2-.2-.3-.3-.2-.2-.2-.3-.2-.2-.3-.3l-.3-.3-.3-.3-.3-.3-.3-.3-.3-.3-.3-.3-.3-.3-.3-.3-.3-.3-.3-.3-.3-.3-.3-.3-.3-.3-.3-.3-.3-.3-.3-.3-.3-.3-.3-.3-.2-.2c-.2-.1-.3-.2-.5-.4a33.7 33.7 0 00-46.5 7.1l-.2.3-19.9 26-2.9 3.8c7.7-2.2 15.8-2.1 23.5.1l.5-.7 13.4-17.8c4.4-5.9 12.4-7.7 18.9-4.4h.1c.2.1.3.2.5.3.1 0 .1.1.2.1.1.1.3.2.4.2.1.1.2.1.3.2.1.1.2.2.3.2s.2.1.3.2.2.2.3.2.2.2.3.2.2.2.3.3.2.2.3.2.2.2.3.3l.3.3.3.3c.1.1.2.2.2.3s.2.2.2.3.2.2.2.3.2.2.2.3.1.2.2.3.1.2.2.3.1.2.2.3.1.2.2.3.1.2.2.3.1.2.2.3.1.2.2.3.1.2.2.3.1.2.2.3.1.2.1.3.1.2.1.3l.1.3c0 .1.1.2.1.3s.1.2.1.4.1.2.1.3.1.2.1.4.1.2.1.3.1.2.1.4.1.2.1.3 0 .2.1.4 0 .2.1.3 0 .2 0 .4v3.8c0 .1 0 .2-.1.4 0 .1 0 .2-.1.3s-.1.2-.1.4 0 .2-.1.3-.1.2-.1.4-.1.2-.1.3-.1.2-.1.4-.1.2-.1.3c0 .1-.1.2-.1.4 0 .1-.1.2-.1.3-.1.1-.1.2-.2.4 0 .1-.1.2-.1.3-.1.1-.1.3-.2.4 0 .1-.1.2-.1.3-.1.1-.2.3-.2.4 0 .1-.1.2-.1.3-.1.1-.2.3-.3.4 0 .1-.1.1-.1.2-.1.2-.3.4-.4.6l-14.2 18.7-11.7 15.4A15.23 15.23 0 01-885 108l-.1-.1c-4.6-3.1-10.9-2-14.2 2.4a8.18 8.18 0 001.6 11.6c.3.2.5.4.8.6a33.9 33.9 0 0046.8-7.3l3-4 22.8-30.1c.2.2.5-.3.8-.8z" class="st6"/>
        <path id="Path_5833" d="M-943.8 127.7c-.3.4-.5.8-.8 1.2 0 .1-.1.1-.1.2-.1.1-.1.2-.2.3-.1.1-.2.3-.2.4s-.1.3-.2.4l-.2.4c-.1.1-.2.3-.2.4-.1.1-.1.2-.2.3s-.1.2-.2.4-.1.3-.2.4-.1.2-.2.4c-.1.1-.1.3-.2.4-.1.2-.1.3-.2.5 0 .1-.1.2-.1.3-.1.1-.1.3-.2.4s-.1.2-.2.4-.1.2-.1.4c-.1.1-.1.3-.2.4 0 .1-.1.2-.1.4 0 .1-.1.3-.2.4 0 .1-.1.2-.1.4s-.1.3-.1.4-.1.3-.1.4-.1.3-.1.4c0 .1-.1.2-.1.3 0 .2-.1.3-.1.5 0 .1-.1.2-.1.4 0 .1-.1.3-.1.4 0 .1-.1.2-.1.4 0 .1-.1.3-.1.4 0 .1 0 .2-.1.3 0 .2-.1.3-.1.5 0 .1 0 .3-.1.4s0 .3-.1.4v.3c0 .2 0 .3-.1.5v.3c0 .2 0 .3-.1.5v7.6c0 .1 0 .3.1.4s0 .3.1.4 0 .3.1.4 0 .3.1.4 0 .3.1.4 0 .3.1.4.1.3.1.4c0 .1.1.2.1.4 0 .1.1.3.1.4s.1.3.1.4.1.3.1.4.1.3.1.4.1.3.1.4.1.2.1.4.1.3.1.4.1.2.1.4.1.3.1.4.1.2.1.4.1.3.1.4c0 .1.1.2.1.3.1.1.1.3.2.4 0 .1.1.2.1.3.1.1.1.3.2.4 0 .1.1.2.2.4s.1.3.2.4.1.2.2.4l.2.4.2.4c.1.2.1.3.2.4s.1.2.2.4l.2.4c.1.2.1.3.2.4.1.1.1.2.2.3s.1.2.2.4l.2.3c.1.1.1.2.2.3s.1.2.2.4.2.2.2.3.2.2.2.3.2.2.2.3.2.2.2.4.2.2.2.3.2.2.3.4.2.2.2.3.2.2.3.3.2.2.2.3.2.2.3.3l.3.3.3.3.3.3.3.3.3.3.3.3.3.3.3.3.3.3.3.3.3.3.3.3.3.3.3.3.3.3.3.3.3.3.3.3.2.2c.2.1.3.2.5.4a33.7 33.7 0 0046.5-7.1l.2-.3 19.5-25.8 2.9-3.8c-7.7 2.2-15.8 2.1-23.5-.1l-.5.7-13.4 17.8c-4.4 5.9-12.4 7.7-18.9 4.4h-.1c-.2-.1-.3-.2-.5-.3-.1 0-.1-.1-.2-.1-.1-.1-.3-.2-.4-.2-.1-.1-.2-.1-.3-.2-.1-.1-.2-.2-.3-.2s-.2-.1-.3-.2-.2-.2-.3-.2-.2-.2-.3-.2-.2-.2-.3-.3-.2-.2-.3-.2-.2-.2-.3-.3l-.3-.3-.3-.3c-.1-.1-.2-.2-.2-.3s-.2-.2-.2-.3-.2-.2-.2-.3-.2-.2-.2-.3-.1-.2-.2-.3-.1-.2-.2-.3-.1-.2-.2-.3-.1-.2-.2-.3-.1-.2-.2-.3-.1-.2-.2-.3-.1-.2-.2-.3-.1-.2-.2-.3-.1-.2-.2-.3-.1-.2-.1-.3-.1-.2-.1-.3-.1-.2-.1-.3-.1-.2-.1-.3-.1-.2-.1-.4-.1-.2-.1-.3-.1-.2-.1-.4-.1-.2-.1-.3-.1-.2-.1-.4-.1-.2-.1-.3 0-.2-.1-.4 0-.2-.1-.3 0-.2 0-.4V145.1c0-.1 0-.2.1-.4s0-.2.1-.3.1-.2.1-.4 0-.2.1-.3.1-.2.1-.4.1-.2.1-.3.1-.2.1-.4.1-.2.1-.3c0-.1.1-.2.1-.4 0-.1.1-.2.1-.3.1-.1.1-.2.2-.4 0-.1.1-.2.1-.3.1-.1.1-.3.2-.4 0-.1.1-.2.1-.3.1-.1.2-.3.2-.4 0-.1.1-.2.1-.3.1-.1.2-.3.3-.4 0-.1.1-.1.1-.2.1-.2.3-.4.4-.6l14.2-18.7 11.7-15.4a15.23 15.23 0 0119.8-3.9l.1.1c4.6 3.1 10.9 2 14.2-2.4 2.8-3.7 2.1-8.9-1.6-11.6-.3-.2-.5-.4-.8-.6a33.9 33.9 0 00-46.8 7.3l-3 4-22.8 30.1c.2-.5-.1 0-.4.5z" class="st6"/>
        <g id="Group_6694" transform="translate(-946.4 87.55)">
          <path id="Path_5834" d="M5.5 74.7c-1.1 0-2.2-.7-2.6-1.7-1.5-3.6-3.1-7.9-3.4-12.1v-.1c0-3.7.6-7.4 1.7-10.9 0-.1 0-.1.1-.2.8-2.3 1.8-4.6 3-6.7.9-1.5 8.5-11.6 14.6-19.8 1.3-1.7 12.5-16.5 13.8-18.1 5-5.7 11.9-9.4 19.4-10.5 7.3-1.2 14.7.3 20.9 4.1 1.3.8 1.7 2.6.9 3.9-.8 1.3-2.5 1.7-3.8.9a26.16 26.16 0 00-33.2 5.2c-1.7 2.1-26.5 34.9-27.8 37.1-2.6 4.5-3.9 9.7-3.9 14.9.2 3.3 1.6 7 2.9 10.1.6 1.4-.1 3.1-1.5 3.7-.3.1-.7.2-1.1.2zm31.4-66c0 .1-.1.1-.1.1s0-.1.1-.1z" class="st6"/>
        </g>
        <g id="Group_6695" transform="translate(-890.83 36.59)">
          <path id="Path_5835" d="M55.9-1.3A32 32 0 0035-5.6C27.5-4.5 20.6-.7 15.5 4.9 14.2 6.5 3.1 21.3 1.8 23L.1 25.2a2.56 2.56 0 001.7 4.1h.1c1.2.2 2.4-.3 3.1-1.3 6.8-9 13.8-18.3 14.7-19.4A26.4 26.4 0 0153 3.5c1.3.8 3.1.4 3.9-1 .7-1.3.3-3-1-3.8z" class="st6"/>
          <path id="Path_5836" d="M19.8 8.7c0 .1-.1.1-.1.1s0-.1.1-.1z" class="st6"/>
        </g>
      </g>
    </g>
  </g>
</svg>
