<svg id="Layer_1" data-name="Layer 1" xmlns="http://www.w3.org/2000/svg" width="232" height="234.74" viewBox="0 0 232 234.74">
  <defs>
    <style>
      .cls-1 {
        fill: #3c414e;
      }

      .cls-2 {
        fill: #7589ec;
      }

      .cls-3 {
        fill: #6874c6;
        fill-rule: evenodd;
      }

      .cls-4 {
        fill: #7580d0;
      }

      .cls-5 {
        fill: #7688ec;
      }

      .cls-6 {
        fill: #6973c6;
      }
    </style>
  </defs>
  <g id="Group_6408" data-name="Group 6408">
    <path id="Path_1671" data-name="Path 1671" class="cls-1" d="M116,2.74a116,116,0,1,1-116,116H0a116,116,0,0,1,115.91-116Z"/>
    <path id="Rectangle_1834" data-name="Rectangle 1834" class="cls-2" d="M47,61.74H188v153a10,10,0,0,1-10,10H57a10,10,0,0,1-10-10v-153Z"/>
    <path id="Path_5301" data-name="Path 5301" class="cls-3" d="M95.12,77.74h0a4.32,4.32,0,0,1,4.51,4.09V208.77a4.38,4.38,0,0,1-4.51,4.17h0a4.38,4.38,0,0,1-4.51-4.17V81.83A4.32,4.32,0,0,1,95.12,77.74Zm22.7,0h0a4.3,4.3,0,0,1,4.42,4.09V208.77a4.35,4.35,0,0,1-4.42,4.17h0a4.38,4.38,0,0,1-4.51-4.17V81.83A4.32,4.32,0,0,1,117.82,77.74Zm22.61,0h0a4.32,4.32,0,0,1,4.51,4.09V208.77a4.38,4.38,0,0,1-4.51,4.17h0a4.43,4.43,0,0,1-4.5-4.17V81.83A4.37,4.37,0,0,1,140.43,77.74Zm22.7,0h0a4.38,4.38,0,0,1,4.51,4.09V208.77a4.43,4.43,0,0,1-4.51,4.17h0a4.38,4.38,0,0,1-4.5-4.17V81.83A4.31,4.31,0,0,1,163.13,77.74Zm-90.7,0h0a4.32,4.32,0,0,1,4.51,4.09V208.77a4.38,4.38,0,0,1-4.51,4.17h0A4.35,4.35,0,0,1,68,208.77V81.83A4.3,4.3,0,0,1,72.43,77.74Z"/>
    <g id="Group_6022" data-name="Group 6022">
      <path id="Path_5291" data-name="Path 5291" class="cls-4" d="M142.54,22l-4-1.09,1.27-4.77a6.14,6.14,0,0,0-4.33-7.52L119.82,4.41a6.14,6.14,0,0,0-7.51,4.34L111,13.52,107,12.43l1.28-4.77A10.35,10.35,0,0,1,120.91.35l15.61,4.19a10.35,10.35,0,0,1,7.31,12.66Z"/>
    </g>
    <path id="Path_5299" data-name="Path 5299" class="cls-5" d="M185.28,35.65c-5-1.67-60.1-20-60.1-20L63.12,2.89c-5.15-1-6.6,1-7.08,2.8l-.42,1.57,134,35.92.42-1.57C190.49,39.82,190.26,37.3,185.28,35.65Z"/>
    <rect id="Rectangle_1835" data-name="Rectangle 1835" class="cls-6" x="109.46" y="-41.15" width="18" height="149.02" transform="translate(55.57 139.14) rotate(-74.99)"/>
  </g>
</svg>
