<?xml version="1.0" encoding="utf-8"?>
<!-- Generator: Adobe Illustrator 19.2.1, SVG Export Plug-In . SVG Version: 6.00 Build 0)  -->
<svg version="1.1" id="Ebene_1" xmlns="http://www.w3.org/2000/svg" xmlns:xlink="http://www.w3.org/1999/xlink" x="0px" y="0px"
	 viewBox="0 0 100 26" enable-background="new 0 0 100 26" xml:space="preserve">
<g>
	<path fill="#FFFFFF" d="M23.067,4.368c-0.852-0.645-2.075-0.972-3.637-0.972h-3.427v12.688h2.157v-4.485h1.306
		c1.513,0,2.707-0.321,3.546-0.954c0.945-0.712,1.424-1.801,1.424-3.236C24.435,6.078,23.975,5.055,23.067,4.368z M22.172,7.426
		c0,0.908-0.231,1.53-0.705,1.901c-0.408,0.32-0.999,0.468-1.86,0.468H18.16V5.181h1.448C21.333,5.181,22.172,5.915,22.172,7.426z"
		/>
	<path fill="#FFFFFF" d="M30.244,6.055c-0.6,0-1.134,0.19-1.587,0.564c-0.265,0.219-0.503,0.502-0.712,0.848l-0.131-1.199h-1.867
		v9.816h2.104v-5.685c0.144-0.57,0.686-2.275,1.997-2.275c0.309,0,0.483,0.031,0.758,0.099l0.243,0.061l0.389-2.061l-0.216-0.054
		C30.935,6.097,30.578,6.055,30.244,6.055z"/>
	<path fill="#FFFFFF" d="M35.953,5.842c-1.356,0-2.487,0.501-3.271,1.449c-0.752,0.908-1.149,2.181-1.149,3.681
		c0,1.527,0.394,2.806,1.141,3.699c0.772,0.924,1.9,1.412,3.262,1.412c1.348,0,2.474-0.501,3.256-1.449
		c0.75-0.909,1.147-2.182,1.147-3.681c0-1.528-0.391-2.807-1.131-3.699C38.438,6.331,37.314,5.842,35.953,5.842z M35.935,14.299
		c-1.463,0-2.175-1.088-2.175-3.327c0-1.15,0.197-2.016,0.587-2.573c0.363-0.52,0.889-0.772,1.606-0.772
		c0.706,0,1.223,0.251,1.581,0.769c0.382,0.554,0.576,1.415,0.576,2.558C38.11,13.205,37.398,14.299,35.935,14.299z"/>
	<path fill="#FFFFFF" d="M46.519,13.891c-0.424,0.261-0.759,0.373-1.117,0.373c-0.558,0-0.881-0.188-0.881-1.146V7.769h2.129
		l0.269-1.714h-2.398V3.721l-2.104,0.252v2.083h-1.489v1.714h1.489v5.366c0,1.874,1.004,2.949,2.754,2.949
		c0.851,0,1.644-0.243,2.234-0.685l0.165-0.124l-0.841-1.513L46.519,13.891z"/>
	<path fill="#FFFFFF" d="M52.156,5.842c-1.356,0-2.487,0.501-3.271,1.449c-0.752,0.908-1.149,2.181-1.149,3.681
		c0,1.527,0.395,2.806,1.141,3.699c0.772,0.924,1.9,1.412,3.262,1.412c1.348,0,2.474-0.501,3.256-1.449
		c0.75-0.909,1.147-2.182,1.147-3.681c0-1.528-0.391-2.807-1.132-3.699C54.642,6.331,53.517,5.842,52.156,5.842z M52.138,14.299
		c-1.463,0-2.175-1.088-2.175-3.327c0-1.15,0.197-2.016,0.587-2.573c0.363-0.52,0.889-0.772,1.606-0.772
		c0.706,0,1.223,0.251,1.581,0.769c0.382,0.554,0.576,1.415,0.576,2.558C54.313,13.205,53.602,14.299,52.138,14.299z"/>
	<path fill="#FFFFFF" d="M63.236,6.055c-1.02,0-2.031,0.43-2.795,1.172l-0.093-0.959h-1.851v9.816h2.104V9.149
		c0.317-0.448,1.078-1.345,2.086-1.345c0.91,0,1.217,0.343,1.217,1.359v6.92h2.104V9.057c0-0.967-0.212-1.682-0.647-2.188
		C64.897,6.329,64.182,6.055,63.236,6.055z"/>
	<path fill="#FFFFFF" d="M76.656,3.396l-2.449,8.439l-2.533-8.439h-2.663l-1.05,12.688h2.071l0.495-6.476
		c0.071-0.909,0.114-1.999,0.137-2.837l2.52,8.018h1.962l2.423-8.008c0.03,0.796,0.081,1.847,0.162,2.827l0.55,6.474h2.105
		l-1.05-12.688H76.656z"/>
	<path fill="#FFFFFF" d="M89.178,13.525V9.128c0-1.499-0.632-3.286-3.64-3.286c-1.015,0-2.093,0.208-3.202,0.617l-0.219,0.081
		l0.582,1.648l0.223-0.078c0.84-0.296,1.703-0.465,2.368-0.465c1.284,0,1.785,0.441,1.785,1.572v0.49h-0.969
		c-1.458,0-2.601,0.277-3.396,0.824c-0.809,0.556-1.237,1.395-1.237,2.426c0,1.899,1.283,3.126,3.268,3.126
		c0.61,0,1.172-0.116,1.67-0.345c0.4-0.184,0.751-0.437,1.049-0.756c0.336,0.631,0.913,0.992,1.754,1.099l0.191,0.024l0.528-1.535
		l-0.216-0.08C89.344,14.353,89.178,14.181,89.178,13.525z M87.075,11.261v1.997c-0.507,0.749-1.143,1.129-1.891,1.129
		c-1.015,0-1.448-0.449-1.448-1.501c0-0.527,0.165-0.91,0.503-1.168c0.396-0.303,1.054-0.457,1.955-0.457H87.075z"/>
	<rect x="91.684" y="6.268" fill="#FFFFFF" width="2.104" height="9.816"/>
	<path fill="#FFFFFF" d="M92.736,1.924c-0.385,0-0.735,0.137-0.986,0.385c-0.248,0.245-0.385,0.583-0.385,0.95
		c0,0.784,0.577,1.353,1.371,1.353c0.386,0,0.739-0.137,0.994-0.387c0.254-0.249,0.395-0.592,0.395-0.967
		C94.124,2.499,93.527,1.924,92.736,1.924z"/>
	<path fill="#FFFFFF" d="M99.414,14.084l-0.224,0.09c-0.151,0.06-0.319,0.089-0.515,0.089c-0.179,0-0.349,0-0.349-0.508V2.072
		l-2.104,0.252v11.29c0,0.822,0.203,1.454,0.603,1.878c0.371,0.393,0.892,0.593,1.548,0.593c0.475,0,0.957-0.115,1.432-0.342
		L100,15.648L99.414,14.084z"/>
	<path fill="#FFFFFF" d="M5.642,0.23c0,0-4.677-0.154-5.642,5.035v3.534c0,0,0.04,0.378,1.104,1.146
		c1.064,0.768,3.817,2.931,4.538,2.931s3.475-2.163,4.538-2.931c1.064-0.768,1.104-1.146,1.104-1.146V5.264
		C10.319,0.076,5.642,0.23,5.642,0.23z M8.845,7.191H5.642H2.439V5.264c0.65-2.577,3.203-2.612,3.203-2.612s2.553,0.035,3.203,2.612
		V7.191z"/>
	<path fill="#FFFFFF" d="M5.642,13.672c0,0-0.725-0.071-1.292-0.465C3.783,12.813,0,10.11,0,10.11v5.35c0,0,0.032,0.622,0.718,0.622
		s4.925,0,4.925,0s4.239,0,4.925,0s0.718-0.622,0.718-0.622v-5.35c0,0-3.783,2.703-4.35,3.097
		C6.367,13.601,5.642,13.672,5.642,13.672z"/>
</g>
<g>
	<path fill="#5FDEFB" d="M54.401,24.224l1.133-4.141h1.531l-1.914,5.688h-1.5l-1.898-5.688h1.52L54.401,24.224z"/>
	<path fill="#5FDEFB" d="M59.74,25.771h-1.367v-5.688h1.367V25.771z"/>
	<path fill="#5FDEFB" d="M64.427,24.259c0-0.2-0.07-0.356-0.213-0.469c-0.142-0.112-0.391-0.228-0.748-0.348
		c-0.356-0.12-0.648-0.235-0.875-0.348c-0.736-0.362-1.105-0.859-1.105-1.492c0-0.315,0.092-0.593,0.275-0.834
		s0.443-0.429,0.779-0.563s0.714-0.201,1.133-0.201c0.409,0,0.775,0.073,1.1,0.219s0.576,0.354,0.756,0.623s0.27,0.577,0.27,0.924
		h-1.367c0-0.231-0.07-0.411-0.213-0.539c-0.142-0.128-0.334-0.191-0.576-0.191c-0.244,0-0.438,0.054-0.58,0.162
		c-0.142,0.108-0.213,0.245-0.213,0.412c0,0.146,0.078,0.278,0.234,0.396s0.432,0.241,0.824,0.367
		c0.394,0.126,0.717,0.263,0.969,0.408c0.615,0.354,0.922,0.843,0.922,1.465c0,0.497-0.188,0.888-0.563,1.172
		s-0.889,0.426-1.543,0.426c-0.461,0-0.878-0.083-1.252-0.248c-0.373-0.165-0.654-0.392-0.844-0.68
		c-0.188-0.288-0.283-0.619-0.283-0.994h1.375c0,0.305,0.079,0.529,0.236,0.674c0.158,0.145,0.414,0.217,0.768,0.217
		c0.227,0,0.406-0.049,0.537-0.146C64.361,24.573,64.427,24.436,64.427,24.259z"/>
	<path fill="#5FDEFB" d="M68.762,25.771h-1.367v-5.688h1.367V25.771z"/>
	<path fill="#5FDEFB" d="M75.332,23.044c0,0.555-0.104,1.046-0.309,1.473c-0.206,0.427-0.498,0.756-0.877,0.986
		s-0.811,0.346-1.295,0.346s-0.914-0.111-1.289-0.334s-0.668-0.541-0.877-0.955c-0.21-0.414-0.32-0.89-0.33-1.426v-0.32
		c0-0.558,0.102-1.049,0.307-1.475c0.204-0.426,0.497-0.755,0.879-0.986c0.381-0.231,0.815-0.348,1.303-0.348
		c0.481,0,0.911,0.114,1.289,0.344c0.377,0.229,0.671,0.556,0.881,0.979c0.209,0.423,0.315,0.908,0.318,1.455V23.044z
		 M73.938,22.806c0-0.565-0.095-0.994-0.283-1.287c-0.189-0.293-0.459-0.439-0.811-0.439c-0.688,0-1.051,0.516-1.09,1.547
		l-0.004,0.418c0,0.558,0.092,0.985,0.277,1.285c0.185,0.3,0.459,0.449,0.824,0.449c0.346,0,0.613-0.147,0.801-0.441
		s0.282-0.718,0.285-1.27V22.806z"/>
	<path fill="#5FDEFB" d="M81.589,25.771h-1.363l-2.016-3.539v3.539h-1.371v-5.688h1.371l2.012,3.539v-3.539h1.367V25.771z"/>
	<path fill="#5FDEFB" d="M86.557,24.708h-1.879l-0.328,1.063h-1.465l2.086-5.688h1.289l2.102,5.688h-1.473L86.557,24.708z
		 M85.006,23.65h1.223l-0.613-1.973L85.006,23.65z"/>
	<path fill="#5FDEFB" d="M91.688,23.759h-0.742v2.012h-1.371v-5.688h2.238c0.675,0,1.202,0.149,1.582,0.449
		c0.38,0.299,0.57,0.722,0.57,1.268c0,0.396-0.08,0.724-0.24,0.983s-0.411,0.471-0.752,0.632l1.188,2.297v0.059h-1.469
		L91.688,23.759z M90.946,22.704h0.867c0.261,0,0.456-0.068,0.588-0.205c0.132-0.138,0.197-0.329,0.197-0.574
		s-0.066-0.438-0.199-0.577s-0.328-0.21-0.586-0.21h-0.867V22.704z"/>
	<path fill="#5FDEFB" d="M97.488,22.552l1.047-2.469h1.48l-1.832,3.645v2.043h-1.391v-2.043l-1.828-3.645h1.473L97.488,22.552z"/>
</g>
<g>
</g>
<g>
</g>
<g>
</g>
<g>
</g>
<g>
</g>
<g>
</g>
</svg>
