<?xml version="1.0" encoding="utf-8"?>
<!-- Generator: Adobe Illustrator 21.0.0, SVG Export Plug-In . SVG Version: 6.00 Build 0)  -->
<svg version="1.1" id="Ebene_1" xmlns="http://www.w3.org/2000/svg" xmlns:xlink="http://www.w3.org/1999/xlink" x="0px" y="0px"
	 viewBox="0 0 100 26" style="enable-background:new 0 0 100 26;" xml:space="preserve">
<style type="text/css">
	.st0{fill:#FFFFFF;}
	.st1{fill:#5FDEFB;}
</style>
<g>
	<path class="st0" d="M23.1,4.4c-0.9-0.6-2.1-1-3.6-1H16v12.7h2.2v-4.5h1.3c1.5,0,2.7-0.3,3.5-1c0.9-0.7,1.4-1.8,1.4-3.2
		C24.4,6.1,24,5.1,23.1,4.4z M22.2,7.4c0,0.9-0.2,1.5-0.7,1.9c-0.4,0.3-1,0.5-1.9,0.5h-1.4V5.2h1.4C21.3,5.2,22.2,5.9,22.2,7.4z"/>
	<path class="st0" d="M30.2,6.1c-0.6,0-1.1,0.2-1.6,0.6c-0.3,0.2-0.5,0.5-0.7,0.8l-0.1-1.2h-1.9v9.8h2.1v-5.7c0.1-0.6,0.7-2.3,2-2.3
		c0.3,0,0.5,0,0.8,0.1l0.2,0.1l0.4-2.1l-0.2-0.1C30.9,6.1,30.6,6.1,30.2,6.1z"/>
	<path class="st0" d="M36,5.8c-1.4,0-2.5,0.5-3.3,1.4c-0.8,0.9-1.1,2.2-1.1,3.7c0,1.5,0.4,2.8,1.1,3.7c0.8,0.9,1.9,1.4,3.3,1.4
		c1.3,0,2.5-0.5,3.3-1.4c0.8-0.9,1.1-2.2,1.1-3.7c0-1.5-0.4-2.8-1.1-3.7C38.4,6.3,37.3,5.8,36,5.8z M35.9,14.3
		c-1.5,0-2.2-1.1-2.2-3.3c0-1.2,0.2-2,0.6-2.6c0.4-0.5,0.9-0.8,1.6-0.8c0.7,0,1.2,0.3,1.6,0.8c0.4,0.6,0.6,1.4,0.6,2.6
		C38.1,13.2,37.4,14.3,35.9,14.3z"/>
	<path class="st0" d="M46.5,13.9c-0.4,0.3-0.8,0.4-1.1,0.4c-0.6,0-0.9-0.2-0.9-1.1V7.8h2.1l0.3-1.7h-2.4V3.7L42.4,4v2.1h-1.5v1.7
		h1.5v5.4c0,1.9,1,2.9,2.8,2.9c0.9,0,1.6-0.2,2.2-0.7l0.2-0.1l-0.8-1.5L46.5,13.9z"/>
	<path class="st0" d="M52.2,5.8c-1.4,0-2.5,0.5-3.3,1.4c-0.8,0.9-1.1,2.2-1.1,3.7c0,1.5,0.4,2.8,1.1,3.7c0.8,0.9,1.9,1.4,3.3,1.4
		c1.3,0,2.5-0.5,3.3-1.4c0.8-0.9,1.1-2.2,1.1-3.7c0-1.5-0.4-2.8-1.1-3.7C54.6,6.3,53.5,5.8,52.2,5.8z M52.1,14.3
		c-1.5,0-2.2-1.1-2.2-3.3c0-1.2,0.2-2,0.6-2.6c0.4-0.5,0.9-0.8,1.6-0.8c0.7,0,1.2,0.3,1.6,0.8c0.4,0.6,0.6,1.4,0.6,2.6
		C54.3,13.2,53.6,14.3,52.1,14.3z"/>
	<path class="st0" d="M63.2,6.1c-1,0-2,0.4-2.8,1.2l-0.1-1h-1.9v9.8h2.1V9.1c0.3-0.4,1.1-1.3,2.1-1.3c0.9,0,1.2,0.3,1.2,1.4v6.9H66
		v-7c0-1-0.2-1.7-0.6-2.2C64.9,6.3,64.2,6.1,63.2,6.1z"/>
	<path class="st0" d="M76.7,3.4l-2.4,8.4l-2.5-8.4H69l-1,12.7H70l0.5-6.5c0.1-0.9,0.1-2,0.1-2.8l2.5,8h2l2.4-8
		c0,0.8,0.1,1.8,0.2,2.8l0.6,6.5h2.1l-1-12.7H76.7z"/>
	<path class="st0" d="M89.2,13.5V9.1c0-1.5-0.6-3.3-3.6-3.3c-1,0-2.1,0.2-3.2,0.6l-0.2,0.1l0.6,1.6l0.2-0.1c0.8-0.3,1.7-0.5,2.4-0.5
		c1.3,0,1.8,0.4,1.8,1.6v0.5h-1c-1.5,0-2.6,0.3-3.4,0.8c-0.8,0.6-1.2,1.4-1.2,2.4c0,1.9,1.3,3.1,3.3,3.1c0.6,0,1.2-0.1,1.7-0.3
		c0.4-0.2,0.8-0.4,1-0.8c0.3,0.6,0.9,1,1.8,1.1l0.2,0l0.5-1.5l-0.2-0.1C89.3,14.4,89.2,14.2,89.2,13.5z M87.1,11.3v2
		c-0.5,0.7-1.1,1.1-1.9,1.1c-1,0-1.4-0.4-1.4-1.5c0-0.5,0.2-0.9,0.5-1.2c0.4-0.3,1.1-0.5,2-0.5H87.1z"/>
	<rect x="91.7" y="6.3" class="st0" width="2.1" height="9.8"/>
	<path class="st0" d="M92.7,1.9c-0.4,0-0.7,0.1-1,0.4c-0.2,0.2-0.4,0.6-0.4,1c0,0.8,0.6,1.4,1.4,1.4c0.4,0,0.7-0.1,1-0.4
		c0.3-0.2,0.4-0.6,0.4-1C94.1,2.5,93.5,1.9,92.7,1.9z"/>
	<path class="st0" d="M99.4,14.1l-0.2,0.1c-0.2,0.1-0.3,0.1-0.5,0.1c-0.2,0-0.3,0-0.3-0.5V2.1l-2.1,0.3v11.3c0,0.8,0.2,1.5,0.6,1.9
		c0.4,0.4,0.9,0.6,1.5,0.6c0.5,0,1-0.1,1.4-0.3l0.2-0.1L99.4,14.1z"/>
	<path class="st0" d="M5.6,0.2c0,0-4.7-0.2-5.6,5v3.5c0,0,0,0.4,1.1,1.1c1.1,0.8,3.8,2.9,4.5,2.9s3.5-2.2,4.5-2.9
		c1.1-0.8,1.1-1.1,1.1-1.1V5.3C10.3,0.1,5.6,0.2,5.6,0.2z M8.8,7.2H5.6H2.4V5.3c0.7-2.6,3.2-2.6,3.2-2.6s2.6,0,3.2,2.6V7.2z"/>
	<path class="st0" d="M5.6,13.7c0,0-0.7-0.1-1.3-0.5C3.8,12.8,0,10.1,0,10.1v5.4c0,0,0,0.6,0.7,0.6s4.9,0,4.9,0s4.2,0,4.9,0
		s0.7-0.6,0.7-0.6v-5.4c0,0-3.8,2.7-4.3,3.1C6.4,13.6,5.6,13.7,5.6,13.7z"/>
</g>
<g>
	<path class="st1" d="M61.6,24.7H64v1.1h-3.8v-5.7h1.4V24.7z"/>
	<path class="st1" d="M66.8,25.8h-1.4v-5.7h1.4V25.8z"/>
	<path class="st1" d="M72.1,23.5h-2.2v2.3h-1.4v-5.7h3.8v1.1h-2.4v1.3h2.2V23.5z"/>
	<path class="st1" d="M77.3,23.4h-2.2v1.4h2.5v1.1h-3.9v-5.7h3.9v1.1h-2.6v1.2h2.2V23.4z"/>
	<path class="st1" d="M83.5,21.1h-1.7v4.6h-1.4v-4.6h-1.7v-1.1h4.8V21.1z"/>
	<path class="st1" d="M86.4,25.8H85v-5.7h1.4V25.8z"/>
	<path class="st1" d="M89.9,20.1l1.3,4l1.3-4h1.8v5.7h-1.4v-1.3l0.1-2.7l-1.4,4h-0.9l-1.4-4.1l0.1,2.7v1.3h-1.4v-5.7H89.9z"/>
	<path class="st1" d="M99.5,23.4h-2.2v1.4h2.5v1.1H96v-5.7h3.9v1.1h-2.6v1.2h2.2V23.4z"/>
</g>
</svg>
