<?xml version="1.0" encoding="utf-8"?>
<!-- Generator: Adobe Illustrator 19.2.1, SVG Export Plug-In . SVG Version: 6.00 Build 0)  -->
<svg version="1.1" id="Ebene_1" xmlns="http://www.w3.org/2000/svg" xmlns:xlink="http://www.w3.org/1999/xlink" x="0px" y="0px"
	 viewBox="0 0 100 26" enable-background="new 0 0 100 26" xml:space="preserve">
<g>
	<path fill="#FFFFFF" d="M23.067,4.368c-0.852-0.645-2.075-0.972-3.637-0.972h-3.427v12.688h2.157v-4.485h1.306
		c1.513,0,2.707-0.321,3.546-0.954c0.945-0.712,1.424-1.801,1.424-3.236C24.435,6.078,23.975,5.055,23.067,4.368z M22.172,7.426
		c0,0.908-0.231,1.53-0.705,1.901c-0.408,0.32-0.999,0.468-1.86,0.468H18.16V5.181h1.448C21.333,5.181,22.172,5.915,22.172,7.426z"
		/>
	<path fill="#FFFFFF" d="M30.244,6.055c-0.6,0-1.134,0.19-1.587,0.564c-0.265,0.219-0.503,0.502-0.712,0.848l-0.131-1.199h-1.867
		v9.816h2.104v-5.685c0.144-0.57,0.686-2.275,1.997-2.275c0.309,0,0.483,0.031,0.758,0.099l0.243,0.061l0.389-2.061l-0.216-0.054
		C30.935,6.097,30.578,6.055,30.244,6.055z"/>
	<path fill="#FFFFFF" d="M35.953,5.842c-1.356,0-2.487,0.501-3.271,1.449c-0.752,0.908-1.149,2.181-1.149,3.681
		c0,1.527,0.394,2.806,1.141,3.699c0.772,0.924,1.9,1.412,3.262,1.412c1.348,0,2.474-0.501,3.256-1.449
		c0.75-0.909,1.147-2.182,1.147-3.681c0-1.528-0.391-2.807-1.131-3.699C38.438,6.331,37.314,5.842,35.953,5.842z M35.935,14.299
		c-1.463,0-2.175-1.088-2.175-3.327c0-1.15,0.197-2.016,0.587-2.573c0.363-0.52,0.889-0.772,1.606-0.772
		c0.706,0,1.223,0.251,1.581,0.769c0.382,0.554,0.576,1.415,0.576,2.558C38.11,13.205,37.398,14.299,35.935,14.299z"/>
	<path fill="#FFFFFF" d="M46.519,13.891c-0.424,0.261-0.759,0.373-1.117,0.373c-0.558,0-0.881-0.188-0.881-1.146V7.769h2.129
		l0.269-1.714h-2.398V3.721l-2.104,0.252v2.083h-1.489v1.714h1.489v5.366c0,1.874,1.004,2.949,2.754,2.949
		c0.851,0,1.644-0.243,2.234-0.685l0.165-0.124l-0.841-1.513L46.519,13.891z"/>
	<path fill="#FFFFFF" d="M52.156,5.842c-1.356,0-2.487,0.501-3.271,1.449c-0.752,0.908-1.149,2.181-1.149,3.681
		c0,1.527,0.395,2.806,1.141,3.699c0.772,0.924,1.9,1.412,3.262,1.412c1.348,0,2.474-0.501,3.256-1.449
		c0.75-0.909,1.147-2.182,1.147-3.681c0-1.528-0.391-2.807-1.132-3.699C54.642,6.331,53.517,5.842,52.156,5.842z M52.138,14.299
		c-1.463,0-2.175-1.088-2.175-3.327c0-1.15,0.197-2.016,0.587-2.573c0.363-0.52,0.889-0.772,1.606-0.772
		c0.706,0,1.223,0.251,1.581,0.769c0.382,0.554,0.576,1.415,0.576,2.558C54.313,13.205,53.602,14.299,52.138,14.299z"/>
	<path fill="#FFFFFF" d="M63.236,6.055c-1.02,0-2.031,0.43-2.795,1.172l-0.093-0.959h-1.851v9.816h2.104V9.149
		c0.317-0.448,1.078-1.345,2.086-1.345c0.91,0,1.217,0.343,1.217,1.359v6.92h2.104V9.057c0-0.967-0.212-1.682-0.647-2.188
		C64.897,6.329,64.182,6.055,63.236,6.055z"/>
	<path fill="#FFFFFF" d="M76.656,3.396l-2.449,8.439l-2.533-8.439h-2.663l-1.05,12.688h2.071l0.495-6.476
		c0.071-0.909,0.114-1.999,0.137-2.837l2.52,8.018h1.962l2.423-8.008c0.03,0.796,0.081,1.847,0.162,2.827l0.55,6.474h2.105
		l-1.05-12.688H76.656z"/>
	<path fill="#FFFFFF" d="M89.178,13.525V9.128c0-1.499-0.632-3.286-3.64-3.286c-1.015,0-2.093,0.208-3.202,0.617l-0.219,0.081
		l0.582,1.648l0.223-0.078c0.84-0.296,1.703-0.465,2.368-0.465c1.284,0,1.785,0.441,1.785,1.572v0.49h-0.969
		c-1.458,0-2.601,0.277-3.396,0.824c-0.809,0.556-1.237,1.395-1.237,2.426c0,1.899,1.283,3.126,3.268,3.126
		c0.61,0,1.172-0.116,1.67-0.345c0.4-0.184,0.751-0.437,1.049-0.756c0.336,0.631,0.913,0.992,1.754,1.099l0.191,0.024l0.528-1.535
		l-0.216-0.08C89.344,14.353,89.178,14.181,89.178,13.525z M87.075,11.261v1.997c-0.507,0.749-1.143,1.129-1.891,1.129
		c-1.015,0-1.448-0.449-1.448-1.501c0-0.527,0.165-0.91,0.503-1.168c0.396-0.303,1.054-0.457,1.955-0.457H87.075z"/>
	<rect x="91.684" y="6.268" fill="#FFFFFF" width="2.104" height="9.816"/>
	<path fill="#FFFFFF" d="M92.736,1.924c-0.385,0-0.735,0.137-0.986,0.385c-0.248,0.245-0.385,0.583-0.385,0.95
		c0,0.784,0.577,1.353,1.371,1.353c0.386,0,0.739-0.137,0.994-0.387c0.254-0.249,0.395-0.592,0.395-0.967
		C94.124,2.499,93.527,1.924,92.736,1.924z"/>
	<path fill="#FFFFFF" d="M99.414,14.084l-0.224,0.09c-0.151,0.06-0.319,0.089-0.515,0.089c-0.179,0-0.349,0-0.349-0.508V2.072
		l-2.104,0.252v11.29c0,0.822,0.203,1.454,0.603,1.878c0.371,0.393,0.892,0.593,1.548,0.593c0.475,0,0.957-0.115,1.432-0.342
		L100,15.648L99.414,14.084z"/>
	<path fill="#FFFFFF" d="M5.642,0.23c0,0-4.677-0.154-5.642,5.035v3.534c0,0,0.04,0.378,1.104,1.146
		c1.064,0.768,3.817,2.931,4.538,2.931s3.475-2.163,4.538-2.931c1.064-0.768,1.104-1.146,1.104-1.146V5.264
		C10.319,0.076,5.642,0.23,5.642,0.23z M8.845,7.191H5.642H2.439V5.264c0.65-2.577,3.203-2.612,3.203-2.612s2.553,0.035,3.203,2.612
		V7.191z"/>
	<path fill="#FFFFFF" d="M5.642,13.672c0,0-0.725-0.071-1.292-0.465C3.783,12.813,0,10.11,0,10.11v5.35c0,0,0.032,0.622,0.718,0.622
		s4.925,0,4.925,0s4.239,0,4.925,0s0.718-0.622,0.718-0.622v-5.35c0,0-3.783,2.703-4.35,3.097
		C6.367,13.601,5.642,13.672,5.642,13.672z"/>
</g>
<g>
</g>
<g>
</g>
<g>
</g>
<g>
</g>
<g>
</g>
<g>
</g>
</svg>
