<svg xmlns="http://www.w3.org/2000/svg" height="80" width="120" viewBox="0 -2 22 30"><defs><style>.cls-1{fill:#56b366;fill-rule:evenodd;}</style></defs><title>protonvpn-sign-green</title><g id="Ebene_2" data-name="Ebene 2"><g id="Ebene_1-2" data-name="Ebene 1"><path class="cls-1" d="M18.49,2.26a2.26,2.26,0,0,0-4.52,0s0,0,0,.07L4.13,5.51A2.26,2.26,0,1,0,2.26,9,2.23,2.23,0,0,0,3,8.92l6.47,8.17A2.26,2.26,0,1,0,13,16.26L16.42,4.5A2.25,2.25,0,0,0,18.49,2.26Zm-7,13.44a2.24,2.24,0,0,0-1,.25L4.18,8A2.24,2.24,0,0,0,4.5,7L14.57,3.78a2.26,2.26,0,0,0,.35.32L11.52,15.7Z"/></g></g></svg>
