<?xml version="1.0" encoding="utf-8"?>
<!-- Generator: Adobe Illustrator 16.0.0, SVG Export Plug-In . SVG Version: 6.00 Build 0)  -->
<!DOCTYPE svg PUBLIC "-//W3C//DTD SVG 1.1//EN" "http://www.w3.org/Graphics/SVG/1.1/DTD/svg11.dtd">
<svg version="1.1" id="Layer_1" xmlns="http://www.w3.org/2000/svg" xmlns:xlink="http://www.w3.org/1999/xlink" x="0px" y="0px"
	 width="451.356px" height="75.989px" viewBox="58.919 358.337 451.356 75.989"
	 enable-background="new 58.919 358.337 451.356 75.989" xml:space="preserve">
<title>protonvpn-white-transparent</title>
<g id="Ebene_2">
	<g id="Ebene_1-2">
		<path fill="#56b366" d="M128.386,366.823c0-4.687-3.8-8.486-8.487-8.486c-4.687,0-8.486,3.799-8.486,8.486c0,0,0,0,0,0.263
			l-36.987,11.941c-2.635-3.876-7.913-4.883-11.789-2.248c-3.876,2.635-4.883,7.913-2.248,11.789
			c1.617,2.378,4.328,3.776,7.203,3.713c0.882-0.013,1.756-0.165,2.591-0.45l24.295,30.679c-1.837,4.312,0.169,9.297,4.48,11.134
			c4.312,1.837,9.297-0.169,11.134-4.48c1.452-3.406,0.527-7.36-2.284-9.771l12.917-44.122
			C125.081,374.864,128.405,371.198,128.386,366.823z M102.138,417.179c-1.308,0.017-2.593,0.338-3.755,0.938l-23.732-30.041
			c0.659-1.072,1.07-2.278,1.201-3.53l37.776-12.054c0.395,0.446,0.835,0.849,1.314,1.202l-12.767,43.484H102.138z"/>
		<path fill="#FFFFFF" d="M183.021,373.545c3.683,2.958,5.688,7.529,5.37,12.241c0.393,4.967-1.703,9.806-5.595,12.917
			c-4.399,3.039-9.682,4.531-15.02,4.244h-6.609v19.451h-7.21v-52.947h13.894C173.219,369.124,178.547,370.561,183.021,373.545z
			 M177.276,394.648c2.477-2.227,3.722-5.515,3.342-8.824c0.288-3.121-0.959-6.188-3.342-8.224c-2.833-1.857-6.195-2.74-9.575-2.516
			h-6.534v22.042h6.383C170.973,397.347,174.377,396.479,177.276,394.648z"/>
		<path fill="#FFFFFF" d="M218.207,381.43l-1.314,6.91c-1.154-0.294-2.339-0.446-3.53-0.451c-2.351-0.078-4.603,0.951-6.083,2.779
			c-1.898,2.538-3.184,5.481-3.755,8.599v23.132h-6.909v-40.518h6.158l0.676,8.224c0.821-2.582,2.311-4.901,4.318-6.722
			c1.742-1.515,3.963-2.366,6.271-2.403C215.441,380.952,216.842,381.103,218.207,381.43z"/>
		<path fill="#FFFFFF" d="M252.453,386.65c3.37,4.443,5.047,9.941,4.731,15.508c0.104,3.865-0.626,7.707-2.14,11.266
			c-1.294,3.062-3.462,5.674-6.233,7.51c-2.896,1.825-6.267,2.753-9.688,2.666c-5.07,0.268-9.978-1.825-13.293-5.67
			c-3.459-4.5-5.155-10.108-4.769-15.771c-0.104-3.865,0.626-7.708,2.14-11.265c1.292-3.063,3.461-5.676,6.233-7.51
			c2.92-1.833,6.317-2.761,9.763-2.666C244.302,380.508,249.208,382.704,252.453,386.65z M228.646,402.158
			c0,10.289,3.48,15.434,10.439,15.434c6.959,0,10.452-5.145,10.477-15.434c0-10.289-3.455-15.433-10.364-15.433
			C232.288,386.725,228.771,391.87,228.646,402.158z"/>
		<path fill="#FFFFFF" d="M289.14,420.559c-2.665,1.852-5.842,2.823-9.087,2.778c-2.975,0.173-5.887-0.902-8.036-2.967
			c-2.062-2.356-3.103-5.437-2.891-8.562v-24.445h-6.872v-5.482h7.06v-9.125l7.06-0.864v9.988h9.613l-0.601,5.482h-9.012v24.146
			c-0.126,1.608,0.269,3.214,1.126,4.581c0.956,1.043,2.348,1.572,3.755,1.427c1.896-0.091,3.739-0.646,5.37-1.615L289.14,420.559z"
			/>
		<path fill="#FFFFFF" d="M323.912,386.65c3.369,4.443,5.046,9.941,4.73,15.508c0.104,3.865-0.626,7.707-2.14,11.266
			c-1.294,3.062-3.463,5.674-6.233,7.51c-2.896,1.823-6.267,2.75-9.688,2.666c-5.069,0.268-9.978-1.825-13.293-5.67
			c-3.459-4.5-5.155-10.108-4.769-15.771c-0.104-3.865,0.626-7.708,2.14-11.265c1.292-3.063,3.46-5.676,6.233-7.51
			c2.92-1.833,6.317-2.761,9.763-2.666C315.761,380.508,320.667,382.704,323.912,386.65z M300.142,402.158
			c0,10.289,3.479,15.434,10.439,15.434c6.96,0,10.439-5.145,10.439-15.434c0-10.289-3.455-15.433-10.364-15.433
			S300.242,391.87,300.142,402.158z"/>
		<path fill="#FFFFFF" d="M367.996,384.284c2.189,2.504,3.309,5.767,3.117,9.087v29.064h-6.872v-28.088
			c0.214-2.156-0.36-4.317-1.615-6.083c-1.258-1.252-2.998-1.896-4.769-1.765c-2.042-0.033-4.037,0.615-5.67,1.84
			c-1.854,1.463-3.421,3.259-4.619,5.294v28.726h-7.247v-40.479h6.083l0.601,6.008c1.361-2.081,3.187-3.816,5.333-5.069
			c2.135-1.228,4.559-1.863,7.021-1.84C362.578,380.794,365.723,381.998,367.996,384.284z"/>
		<path fill="#FFFFFF" d="M420.342,369.452l-16.897,52.947h-7.849l-17.048-52.947h7.848l13.293,45.061l13.293-45.061H420.342z"/>
		<path fill="#FFFFFF" d="M457.63,373.545c3.682,2.958,5.687,7.529,5.369,12.241c0.394,4.967-1.703,9.806-5.595,12.917
			c-4.399,3.039-9.682,4.531-15.021,4.244H435.7v19.451h-7.322v-52.947h13.931C447.728,369.09,453.113,370.529,457.63,373.545z
			 M451.884,394.648c2.477-2.227,3.723-5.515,3.343-8.824c0.287-3.121-0.959-6.188-3.343-8.224c-2.833-1.857-6.194-2.74-9.575-2.516
			h-6.533v22.042h6.383C445.581,397.347,448.984,396.479,451.884,394.648z"/>
		<path fill="#FFFFFF" d="M510.238,422.398h-9.764l-21.517-45.061c0.301,3.53,0.538,6.796,0.714,9.801
			c0.175,3.004,0.263,6.634,0.263,10.889v24.296h-6.797v-52.872h9.538l21.741,45.061c-0.149-1.327-0.35-3.655-0.601-6.984
			c-0.25-3.33-0.375-6.384-0.375-9.163v-28.914h6.834L510.238,422.398z"/>
	</g>
</g>
</svg>
