<?xml version="1.0" encoding="utf-8"?>
<!-- Generator: Adobe Illustrator 21.1.0, SVG Export Plug-In . SVG Version: 6.00 Build 0)  -->
<svg version="1.1" xmlns="http://www.w3.org/2000/svg" xmlns:xlink="http://www.w3.org/1999/xlink" x="0px" y="0px"
	 viewBox="0 0 100 30.2" style="enable-background:new 0 0 100 30.2;" xml:space="preserve">
<style type="text/css">
	.st0{fill:#FFFFFF;}
	.st1{fill:#FFF;}
	.st2{display:none;}
	.st3{display:inline;}
	.st4{fill:#FFF;}
	.st5{fill:#FFF;}
</style>
<g id="Ebene_1">
	<g>
		<path class="st0" d="M23.1,4.4c-0.9-0.6-2.1-1-3.6-1H16v12.7h2.2v-4.5h1.3c1.5,0,2.7-0.3,3.5-1c0.9-0.7,1.4-1.8,1.4-3.2
			C24.4,6.1,24,5.1,23.1,4.4z M22.2,7.4c0,0.9-0.2,1.5-0.7,1.9c-0.4,0.3-1,0.5-1.9,0.5h-1.4V5.2h1.4C21.3,5.2,22.2,5.9,22.2,7.4z"/>
		<path class="st0" d="M30.2,6.1c-0.6,0-1.1,0.2-1.6,0.6c-0.3,0.2-0.5,0.5-0.7,0.8l-0.1-1.2h-1.9v9.8h2.1v-5.7
			c0.1-0.6,0.7-2.3,2-2.3c0.3,0,0.5,0,0.8,0.1l0.2,0.1l0.4-2.1l-0.2-0.1C30.9,6.1,30.6,6.1,30.2,6.1z"/>
		<path class="st0" d="M36,5.8c-1.4,0-2.5,0.5-3.3,1.4c-0.8,0.9-1.1,2.2-1.1,3.7c0,1.5,0.4,2.8,1.1,3.7c0.8,0.9,1.9,1.4,3.3,1.4
			c1.3,0,2.5-0.5,3.3-1.4c0.8-0.9,1.1-2.2,1.1-3.7c0-1.5-0.4-2.8-1.1-3.7C38.4,6.3,37.3,5.8,36,5.8z M35.9,14.3
			c-1.5,0-2.2-1.1-2.2-3.3c0-1.2,0.2-2,0.6-2.6c0.4-0.5,0.9-0.8,1.6-0.8c0.7,0,1.2,0.3,1.6,0.8c0.4,0.6,0.6,1.4,0.6,2.6
			C38.1,13.2,37.4,14.3,35.9,14.3z"/>
		<path class="st0" d="M46.5,13.9c-0.4,0.3-0.8,0.4-1.1,0.4c-0.6,0-0.9-0.2-0.9-1.1V7.8h2.1l0.3-1.7h-2.4V3.7L42.4,4v2.1h-1.5v1.7
			h1.5v5.4c0,1.9,1,2.9,2.8,2.9c0.9,0,1.6-0.2,2.2-0.7l0.2-0.1l-0.8-1.5L46.5,13.9z"/>
		<path class="st0" d="M52.2,5.8c-1.4,0-2.5,0.5-3.3,1.4c-0.8,0.9-1.1,2.2-1.1,3.7c0,1.5,0.4,2.8,1.1,3.7c0.8,0.9,1.9,1.4,3.3,1.4
			c1.3,0,2.5-0.5,3.3-1.4c0.8-0.9,1.1-2.2,1.1-3.7c0-1.5-0.4-2.8-1.1-3.7C54.6,6.3,53.5,5.8,52.2,5.8z M52.1,14.3
			c-1.5,0-2.2-1.1-2.2-3.3c0-1.2,0.2-2,0.6-2.6c0.4-0.5,0.9-0.8,1.6-0.8c0.7,0,1.2,0.3,1.6,0.8c0.4,0.6,0.6,1.4,0.6,2.6
			C54.3,13.2,53.6,14.3,52.1,14.3z"/>
		<path class="st0" d="M63.2,6.1c-1,0-2,0.4-2.8,1.2l-0.1-1h-1.9v9.8h2.1V9.1c0.3-0.4,1.1-1.3,2.1-1.3c0.9,0,1.2,0.3,1.2,1.4v6.9H66
			v-7c0-1-0.2-1.7-0.6-2.2C64.9,6.3,64.2,6.1,63.2,6.1z"/>
		<path class="st0" d="M76.7,3.4l-2.4,8.4l-2.5-8.4H69l-1,12.7H70l0.5-6.5c0.1-0.9,0.1-2,0.1-2.8l2.5,8h2l2.4-8
			c0,0.8,0.1,1.8,0.2,2.8l0.6,6.5h2.1l-1-12.7H76.7z"/>
		<path class="st0" d="M89.2,13.5V9.1c0-1.5-0.6-3.3-3.6-3.3c-1,0-2.1,0.2-3.2,0.6l-0.2,0.1l0.6,1.6l0.2-0.1
			c0.8-0.3,1.7-0.5,2.4-0.5c1.3,0,1.8,0.4,1.8,1.6v0.5h-1c-1.5,0-2.6,0.3-3.4,0.8c-0.8,0.6-1.2,1.4-1.2,2.4c0,1.9,1.3,3.1,3.3,3.1
			c0.6,0,1.2-0.1,1.7-0.3c0.4-0.2,0.8-0.4,1-0.8c0.3,0.6,0.9,1,1.8,1.1l0.2,0l0.5-1.5l-0.2-0.1C89.3,14.4,89.2,14.2,89.2,13.5z
			 M87.1,11.3v2c-0.5,0.7-1.1,1.1-1.9,1.1c-1,0-1.4-0.4-1.4-1.5c0-0.5,0.2-0.9,0.5-1.2c0.4-0.3,1.1-0.5,2-0.5H87.1z"/>
		<rect x="91.7" y="6.3" class="st0" width="2.1" height="9.8"/>
		<path class="st0" d="M92.7,1.9c-0.4,0-0.7,0.1-1,0.4c-0.2,0.2-0.4,0.6-0.4,1c0,0.8,0.6,1.4,1.4,1.4c0.4,0,0.7-0.1,1-0.4
			c0.3-0.2,0.4-0.6,0.4-1C94.1,2.5,93.5,1.9,92.7,1.9z"/>
		<path class="st0" d="M99.4,14.1l-0.2,0.1c-0.2,0.1-0.3,0.1-0.5,0.1c-0.2,0-0.3,0-0.3-0.5V2.1l-2.1,0.3v11.3c0,0.8,0.2,1.5,0.6,1.9
			c0.4,0.4,0.9,0.6,1.5,0.6c0.5,0,1-0.1,1.4-0.3l0.2-0.1L99.4,14.1z"/>
		<path class="st0" d="M5.6,0.2c0,0-4.7-0.2-5.6,5v3.5c0,0,0,0.4,1.1,1.1c1.1,0.8,3.8,2.9,4.5,2.9s3.5-2.2,4.5-2.9
			c1.1-0.8,1.1-1.1,1.1-1.1V5.3C10.3,0.1,5.6,0.2,5.6,0.2z M8.8,7.2H5.6H2.4V5.3c0.7-2.6,3.2-2.6,3.2-2.6s2.6,0,3.2,2.6V7.2z"/>
		<path class="st0" d="M5.6,13.7c0,0-0.7-0.1-1.3-0.5C3.8,12.8,0,10.1,0,10.1v5.4c0,0,0,0.6,0.7,0.6s4.9,0,4.9,0s4.2,0,4.9,0
			s0.7-0.6,0.7-0.6v-5.4c0,0-3.8,2.7-4.3,3.1C6.4,13.6,5.6,13.7,5.6,13.7z"/>
	</g>
</g>
<g id="free">
	<g>
		<path class="st1" d="M70.4,26.2h-3.9v4h-2.4v-10h6.7v1.9h-4.3v2.3h3.9V26.2z"/>
		<path class="st1" d="M76.8,26.7h-1.3v3.5h-2.4v-10h3.9c1.2,0,2.1,0.3,2.8,0.8c0.7,0.5,1,1.3,1,2.2c0,0.7-0.1,1.3-0.4,1.7
			s-0.7,0.8-1.3,1.1l2.1,4v0.1h-2.6L76.8,26.7z M75.6,24.8h1.5c0.5,0,0.8-0.1,1-0.4c0.2-0.2,0.3-0.6,0.3-1c0-0.4-0.1-0.8-0.3-1
			c-0.2-0.2-0.6-0.4-1-0.4h-1.5V24.8z"/>
		<path class="st1" d="M89.9,26h-3.8v2.4h4.5v1.8h-6.9v-10h6.9v1.9h-4.5v2.1h3.8V26z"/>
		<path class="st1" d="M99.1,26h-3.8v2.4h4.5v1.8h-6.9v-10h6.9v1.9h-4.5v2.1h3.8V26z"/>
	</g>
</g>
<g id="Plus" class="st2">
	<g class="st3">
		<path class="st4" d="M64.3,26.8v3.4h-2.4v-10h4c0.8,0,1.4,0.1,2,0.4c0.6,0.3,1,0.7,1.4,1.2c0.3,0.5,0.5,1.1,0.5,1.8
			c0,1-0.3,1.7-1,2.3c-0.7,0.6-1.6,0.9-2.9,0.9H64.3z M64.3,25h1.6c0.5,0,0.8-0.1,1.1-0.3c0.2-0.2,0.4-0.6,0.4-1
			c0-0.5-0.1-0.8-0.4-1.1c-0.3-0.3-0.6-0.4-1-0.4h-1.6V25z"/>
		<path class="st4" d="M74.9,28.3H79v1.8h-6.6v-10h2.4V28.3z"/>
		<path class="st4" d="M89.1,20.2v6.5c0,0.7-0.2,1.4-0.5,1.9c-0.3,0.5-0.8,1-1.4,1.2s-1.3,0.4-2.1,0.4c-1.2,0-2.2-0.3-2.9-0.9
			s-1.1-1.5-1.1-2.6v-6.6h2.4v6.6c0,1.1,0.5,1.6,1.5,1.6c0.5,0,0.9-0.1,1.1-0.4s0.4-0.7,0.4-1.3v-6.5H89.1z"/>
		<path class="st4" d="M97.1,27.5c0-0.4-0.1-0.6-0.4-0.8c-0.2-0.2-0.7-0.4-1.3-0.6s-1.1-0.4-1.5-0.6C92.6,24.9,92,24,92,22.9
			c0-0.6,0.2-1,0.5-1.5c0.3-0.4,0.8-0.7,1.4-1c0.6-0.2,1.2-0.4,2-0.4c0.7,0,1.4,0.1,1.9,0.4c0.6,0.3,1,0.6,1.3,1.1
			c0.3,0.5,0.5,1,0.5,1.6h-2.4c0-0.4-0.1-0.7-0.4-0.9c-0.2-0.2-0.6-0.3-1-0.3c-0.4,0-0.8,0.1-1,0.3c-0.2,0.2-0.4,0.4-0.4,0.7
			c0,0.3,0.1,0.5,0.4,0.7c0.3,0.2,0.8,0.4,1.4,0.6c0.7,0.2,1.3,0.5,1.7,0.7c1.1,0.6,1.6,1.5,1.6,2.6c0,0.9-0.3,1.6-1,2.1
			s-1.6,0.7-2.7,0.7c-0.8,0-1.5-0.1-2.2-0.4c-0.7-0.3-1.1-0.7-1.5-1.2c-0.3-0.5-0.5-1.1-0.5-1.7h2.4c0,0.5,0.1,0.9,0.4,1.2
			c0.3,0.3,0.7,0.4,1.3,0.4c0.4,0,0.7-0.1,0.9-0.3C97,28.1,97.1,27.9,97.1,27.5z"/>
	</g>
</g>
<g id="Visionary" class="st2">
	<g class="st3">
		<path class="st5" d="M20.2,27.5l2-7.2h2.7l-3.3,10h-2.6l-3.3-10h2.7L20.2,27.5z"/>
		<path class="st5" d="M29.5,30.2h-2.4v-10h2.4V30.2z"/>
		<path class="st5" d="M37.7,27.5c0-0.4-0.1-0.6-0.4-0.8s-0.7-0.4-1.3-0.6s-1.1-0.4-1.5-0.6c-1.3-0.6-1.9-1.5-1.9-2.6
			c0-0.6,0.2-1,0.5-1.5c0.3-0.4,0.8-0.7,1.4-1c0.6-0.2,1.2-0.4,2-0.4c0.7,0,1.4,0.1,1.9,0.4s1,0.6,1.3,1.1c0.3,0.5,0.5,1,0.5,1.6
			h-2.4c0-0.4-0.1-0.7-0.4-0.9s-0.6-0.3-1-0.3c-0.4,0-0.8,0.1-1,0.3c-0.2,0.2-0.4,0.4-0.4,0.7c0,0.3,0.1,0.5,0.4,0.7
			c0.3,0.2,0.8,0.4,1.4,0.6c0.7,0.2,1.3,0.5,1.7,0.7c1.1,0.6,1.6,1.5,1.6,2.6c0,0.9-0.3,1.6-1,2.1s-1.6,0.7-2.7,0.7
			c-0.8,0-1.5-0.1-2.2-0.4c-0.7-0.3-1.1-0.7-1.5-1.2c-0.3-0.5-0.5-1.1-0.5-1.7h2.4c0,0.5,0.1,0.9,0.4,1.2c0.3,0.3,0.7,0.4,1.3,0.4
			c0.4,0,0.7-0.1,0.9-0.3C37.6,28.1,37.7,27.9,37.7,27.5z"/>
		<path class="st5" d="M45.3,30.2h-2.4v-10h2.4V30.2z"/>
		<path class="st5" d="M56.8,25.4c0,1-0.2,1.8-0.5,2.6c-0.4,0.7-0.9,1.3-1.5,1.7c-0.7,0.4-1.4,0.6-2.3,0.6s-1.6-0.2-2.3-0.6
			c-0.7-0.4-1.2-0.9-1.5-1.7s-0.6-1.6-0.6-2.5V25c0-1,0.2-1.8,0.5-2.6c0.4-0.7,0.9-1.3,1.5-1.7s1.4-0.6,2.3-0.6
			c0.8,0,1.6,0.2,2.3,0.6c0.7,0.4,1.2,1,1.5,1.7c0.4,0.7,0.6,1.6,0.6,2.5V25.4z M54.4,25c0-1-0.2-1.7-0.5-2.3
			c-0.3-0.5-0.8-0.8-1.4-0.8c-1.2,0-1.8,0.9-1.9,2.7l0,0.7c0,1,0.2,1.7,0.5,2.2c0.3,0.5,0.8,0.8,1.4,0.8c0.6,0,1.1-0.3,1.4-0.8
			s0.5-1.3,0.5-2.2V25z"/>
		<path class="st5" d="M67.8,30.2h-2.4L61.9,24v6.2h-2.4v-10h2.4l3.5,6.2v-6.2h2.4V30.2z"/>
		<path class="st5" d="M76.5,28.3h-3.3l-0.6,1.9H70l3.7-10H76l3.7,10h-2.6L76.5,28.3z M73.8,26.5h2.1L74.8,23L73.8,26.5z"/>
		<path class="st5" d="M85.5,26.7h-1.3v3.5h-2.4v-10h3.9c1.2,0,2.1,0.3,2.8,0.8s1,1.3,1,2.2c0,0.7-0.1,1.3-0.4,1.7
			c-0.3,0.5-0.7,0.8-1.3,1.1l2.1,4v0.1h-2.6L85.5,26.7z M84.2,24.8h1.5c0.5,0,0.8-0.1,1-0.4c0.2-0.2,0.3-0.6,0.3-1
			c0-0.4-0.1-0.8-0.3-1c-0.2-0.2-0.6-0.4-1-0.4h-1.5V24.8z"/>
		<path class="st5" d="M95.6,24.6l1.8-4.3h2.6l-3.2,6.4v3.6h-2.4v-3.6l-3.2-6.4h2.6L95.6,24.6z"/>
	</g>
</g>
</svg>
