<svg width="52" height="52" viewBox="0 0 52 52" fill="none" xmlns="http://www.w3.org/2000/svg">
    <rect x="0.5" y="0.5" width="43" height="43" rx="21.5" fill="white" />
    <rect x="0.5" y="0.5" width="43" height="43" rx="21.5" stroke="#EAE7E4" />
    <g clip-path="url(#clip0_2105_7928)">
        <path
            d="M29.6263 22.1495C29.6263 21.4939 29.5731 21.0156 29.458 20.5195H21.9727V23.4782H26.3664C26.2778 24.2135 25.7995 25.3208 24.7364 26.0648L24.7215 26.1639L27.0883 27.9973L27.2522 28.0137C28.7581 26.6229 29.6263 24.5766 29.6263 22.1495Z"
            fill="#4285F4"
        />
        <path
            d="M21.9717 29.9446C24.1243 29.9446 25.9314 29.2358 27.2513 28.0134L24.7355 26.0646C24.0623 26.534 23.1587 26.8618 21.9717 26.8618C19.8635 26.8618 18.0741 25.4711 17.4362 23.5488L17.3427 23.5568L14.8818 25.4613L14.8496 25.5508C16.1606 28.1551 18.8536 29.9446 21.9717 29.9446Z"
            fill="#34A853"
        />
        <path
            d="M17.437 23.5498C17.2687 23.0538 17.1713 22.5222 17.1713 21.9731C17.1713 21.4238 17.2687 20.8923 17.4282 20.3963L17.4237 20.2906L14.9319 18.3555L14.8504 18.3942C14.31 19.475 14 20.6886 14 21.9731C14 23.2575 14.31 24.4711 14.8504 25.5518L17.437 23.5498Z"
            fill="#FBBC05"
        />
        <path
            d="M21.9717 17.0827C23.4688 17.0827 24.4786 17.7293 25.0544 18.2697L27.3045 16.0729C25.9226 14.7884 24.1243 14 21.9717 14C18.8536 14 16.1606 15.7894 14.8496 18.3937L17.4274 20.3957C18.0741 18.4735 19.8635 17.0827 21.9717 17.0827Z"
            fill="#EB4335"
        />
    </g>
    <rect x="27" y="27" width="24" height="24" rx="12" fill="#6D4AFF" />
    <rect x="27" y="27" width="24" height="24" rx="12" stroke="white" stroke-width="2" />
    <g clip-path="url(#clip1_2105_7928)">
        <path
            d="M35.5 41.3962V44.0003H37.348V41.5091C37.348 41.2667 37.4453 41.0342 37.6186 40.8628C37.7919 40.6914 38.0269 40.5951 38.272 40.5951H40.1668C40.6046 40.5951 41.0381 40.5099 41.4425 40.3441C41.847 40.1784 42.2145 39.9355 42.524 39.6293C42.8335 39.3231 43.0791 38.9596 43.2466 38.5596C43.4141 38.1595 43.5003 37.7307 43.5003 37.2977C43.5003 36.8647 43.4141 36.4359 43.2467 36.0358C43.0792 35.6357 42.8336 35.2721 42.5241 34.9659C42.2145 34.6597 41.847 34.4168 41.4426 34.251C41.0381 34.0853 40.6046 34 40.1668 34H35.5V37.2551H37.348V35.7202H40.0417C40.46 35.7202 40.8612 35.8846 41.157 36.1771C41.4528 36.4696 41.619 36.8664 41.6191 37.2802C41.6191 37.694 41.4529 38.0908 41.1571 38.3834C40.8613 38.676 40.4601 38.8404 40.0417 38.8404H38.0831C37.7438 38.8402 37.4078 38.9063 37.0943 39.0347C36.7808 39.1631 36.4959 39.3513 36.256 39.5887C36.0161 39.8261 35.8259 40.1079 35.6961 40.418C35.5664 40.7281 35.4998 41.0605 35.5 41.3962Z"
            fill="white"
        />
        <path
            d="M38.2715 40.5957C37.9075 40.5957 37.5471 40.6666 37.2108 40.8043C36.8746 40.9421 36.569 41.144 36.3117 41.3985C36.0543 41.6531 35.8502 41.9553 35.7109 42.2879C35.5716 42.6205 35.5 42.977 35.5 43.337V44.0008H37.348V41.5096C37.348 41.2673 37.4453 41.0349 37.6184 40.8636C37.7916 40.6922 38.0265 40.5958 38.2715 40.5957Z"
            fill="white"
        />
    </g>
    <defs>
        <clipPath id="clip0_2105_7928">
            <rect width="16" height="16" fill="white" transform="translate(14 14)" />
        </clipPath>
        <clipPath id="clip1_2105_7928">
            <rect width="8" height="10" fill="white" transform="translate(35.5 34)" />
        </clipPath>
    </defs>
</svg>
