<svg
    fill="none"
    height="50"
    viewBox="0 0 50 50"
    width="50"
    xmlns="http://www.w3.org/2000/svg"
    xmlns:xlink="http://www.w3.org/1999/xlink"
>
    <filter
        id="a"
        color-interpolation-filters="sRGB"
        filterUnits="userSpaceOnUse"
        height="35.0872"
        width="44.3884"
        x="2.61156"
        y="10.0977"
    >
        <feFlood flood-opacity="0" result="BackgroundImageFix" />
        <feBlend in="SourceGraphic" in2="BackgroundImageFix" mode="normal" result="shape" />
        <feColorMatrix
            in="SourceAlpha"
            result="hardAlpha"
            type="matrix"
            values="0 0 0 0 0 0 0 0 0 0 0 0 0 0 0 0 0 0 127 0"
        />
        <feOffset dy="-3" />
        <feGaussianBlur stdDeviation="4" />
        <feComposite in2="hardAlpha" k2="-1" k3="1" operator="arithmetic" />
        <feColorMatrix type="matrix" values="0 0 0 0 0.945833 0 0 0 0 0.986458 0 0 0 0 1 0 0 0 1 0" />
        <feBlend in2="shape" mode="normal" result="effect1_innerShadow_2:3" />
    </filter>
    <linearGradient id="b" gradientUnits="userSpaceOnUse" x1="16.7262" x2="47" y1="22.2637" y2="48.8265">
        <stop offset="0" stop-color="#daf6ff" />
        <stop offset="1" stop-color="#335c82" />
    </linearGradient>
    <linearGradient id="c" gradientUnits="userSpaceOnUse" x1="24.7339" x2="39.7213" y1="9.56883" y2="48.6318">
        <stop offset="0" stop-color="#fff" />
        <stop offset="1" stop-color="#daf0f8" />
    </linearGradient>
    <linearGradient id="d" gradientUnits="userSpaceOnUse" x1="24.8058" x2="24.8058" y1="3.53125" y2="15.3496">
        <stop offset="0" stop-color="#ff7171" />
        <stop offset="1" stop-color="#e63757" />
    </linearGradient>
    <linearGradient id="e" gradientUnits="userSpaceOnUse" x1="37.4296" x2="41.1406" y1="35.1554" y2="52.929">
        <stop offset="0" stop-color="#9fd1e7" />
        <stop offset="1" stop-color="#9fd5e7" stop-opacity="0" />
    </linearGradient>
    <path
        d="m9.30585 49.9985h30.99985c3.6984 0 6.6943-2.9959 6.6943-6.6943v-7.4175h-44.38844v7.4175c0 3.6984 2.9959 6.6943 6.69429 6.6943z"
        fill="url(#b)"
    />
    <g filter="url(#a)">
        <path
            d="m9.30585 45.1848h30.99985c3.6984 0 6.6943-2.9959 6.6943-6.6943v-25.3928h-44.38844v25.3928c0 3.6984 2.9959 6.6943 6.69429 6.6943z"
            fill="url(#c)"
        />
    </g>
    <path
        d="m27.2721 20.3203v14.4471h-3.1043v-10.9388c-.1708.1511-.3745.2956-.611.4336-.2299.1314-.4763.2529-.7391.3646-.2628.1052-.5354.1971-.8179.276-.2825.0722-.5618.1248-.8377.1576v-2.6213c.8081-.2365 1.5702-.5387 2.2863-.9067.7161-.3679 1.3632-.7719 1.9414-1.2121z"
        fill="#262a33"
    />
    <path
        d="m2.61156 15.3496h44.38844v-5.1241c0-3.69835-2.9959-6.69425-6.6943-6.69425h-30.99985c-3.69839 0-6.69429 2.9959-6.69429 6.69425z"
        fill="url(#d)"
    />
    <path
        d="m39.235 8.47118c.7851 0 1.405-.61985 1.405-1.38432v-5.70255c0-.764468-.6199-1.38431-1.405-1.38431-.7645 0-1.3843.619842-1.3843 1.38431v5.68189c0 .78513.6198 1.40498 1.3843 1.40498z"
        fill="#d3ecfb"
    />
    <path
        d="m10.2464 8.47118c.7645 0 1.3843-.61985 1.3843-1.38432v-5.70255c0-.764468-.6198-1.38431-1.3843-1.38431-.76446 0-1.3843.619842-1.3843 1.38431v5.68189c0 .78513.61984 1.40498 1.3843 1.40498z"
        fill="#d3ecfb"
    />
    <path d="m47 38.491c0 3.6984-2.9959 6.6943-6.6943 6.6943h-9.6902l16.3845-16.3845z" fill="url(#e)" />
    <path d="m30.6155 35.7036c0-3.8017 3.0786-6.8802 6.8803-6.8802h9.5042l-16.3845 16.3845z" fill="#fff" />
</svg>
