<svg
    fill="none"
    height="50"
    viewBox="0 0 50 50"
    width="50"
    xmlns="http://www.w3.org/2000/svg"
    xmlns:xlink="http://www.w3.org/1999/xlink"
>
    <linearGradient id="a">
        <stop offset="0" stop-color="#0d0a44" />
        <stop offset="1" stop-color="#0d0a44" stop-opacity="0" />
    </linearGradient>
    <linearGradient
        id="b"
        gradientUnits="userSpaceOnUse"
        x1="28.1712"
        x2="28.1712"
        xlink:href="#a"
        y1="29.993"
        y2="36.0891"
    />
    <linearGradient id="c" gradientUnits="userSpaceOnUse" x1="28.5774" x2="28.5774" y1="9.43449" y2="30.5425">
        <stop offset="0" stop-color="#b9e2ff" />
        <stop offset="1" stop-color="#73b5e4" />
    </linearGradient>
    <linearGradient
        id="d"
        gradientUnits="userSpaceOnUse"
        x1="22.965"
        x2="9.92403"
        xlink:href="#a"
        y1="16.6288"
        y2="30.3473"
    />
    <linearGradient id="e" gradientUnits="userSpaceOnUse" x1="9.54529" x2="9.54529" y1="17.9688" y2="27.9686">
        <stop offset="0" stop-color="#c1def8" />
        <stop offset="1" stop-color="#ecfaff" />
    </linearGradient>
    <linearGradient id="f" gradientUnits="userSpaceOnUse" x1="9.54647" x2="9.54647" y1="14.787" y2="23.5747">
        <stop offset="0" stop-color="#deebf7" />
        <stop offset="1" stop-color="#fff" />
    </linearGradient>
    <linearGradient id="g" gradientUnits="userSpaceOnUse" x1="36.7109" x2="36.7109" y1=".670462" y2="21.6252">
        <stop offset="0" stop-color="#eb7a75" />
        <stop offset="1" stop-color="#e02626" />
    </linearGradient>
    <linearGradient id="h" gradientUnits="userSpaceOnUse" x1="9.31861" x2="19.6498" y1="30.9867" y2="38.4387">
        <stop offset="0" stop-color="#b9e2ff" />
        <stop offset="1" stop-color="#1571b3" />
    </linearGradient>
    <clipPath id="i"><path d="m0 0h50v50h-50z" /></clipPath>
    <g clip-path="url(#i)">
        <path d="m30.9609 25.0075h-5.5271v24.9928h5.5271z" fill="#ea795a" />
        <path d="m30.9607 39.9538-5.5271-2.9868v-10.342h5.5271z" fill="url(#b)" />
        <path
            d="m49.6047 30.5425h-39.82604c-.61422 0-1.12214-.4961-1.12214-1.1221v-10.9497c0-4.9965 4.05148-9.03621 9.03618-9.03621h22.8523c4.9964 0 9.0361 4.05151 9.0361 9.03621v12.0718z"
            fill="url(#c)"
        />
        <path
            d="m25.5118 30.4119h-15.72175v-12.0955c0-4.335 3.51995-7.8549 7.85495-7.8549s7.855 3.5199 7.855 7.8549v12.0955z"
            fill="url(#d)"
        />
        <path
            d="m18.0205 30.6958h-16.94311c-.597729 0-1.07739-.4921-1.07739-1.0885v-10.55c0-.5965.48704-1.0885 1.07739-1.0885h16.93571c.5977 0 1.0774.492 1.0774 1.0885v10.55c.0074.6039-.4797 1.0885-1.07 1.0885z"
            fill="url(#e)"
        />
        <path
            d="m8.84979 25.2968c.40022.3301.98574.3301 1.38601 0l8.5529-7.042c-.1927-.176-.4521-.286-.7337-.286h-17.01704c-.281638 0-.541044.11-.733746.286z"
            fill="url(#f)"
        />
        <path
            clip-rule="evenodd"
            d="m34.2177 6.27216h6.7582c.378 0 .6851-.30711.6851-.68509v-4.901975c0-.377983-.3071-.685095-.6851-.685095h-8.5283c-.378 0-.6851.307112-.6851.685095v2.870525h-.0017v16.84108c0 .6733.5551 1.2285 1.2284 1.2285.6851 0 1.2285-.5552 1.2285-1.2285z"
            fill="url(#g)"
            fill-rule="evenodd"
        />
        <path
            d="m25.5838 30.543h-1.5237v.6851h-14.19802l-3.90977 2.8112s-1.00401.7324-1.29931 1.76l-.08269-.0945v.6615c0 .5079.21262 1.0749.79141 1.63 1.84267 1.5592 8.56368 2.0317 13.53648-1.7127 4.9611-3.7444 6.6856-5.0673 6.6856-5.0673z"
            fill="url(#h)"
        />
        <path
            d="m9.86102 30.543-3.90977 2.8112s-2.66951 1.9608-.5906 3.9688c1.84267 1.5592 8.56365 2.0317 13.53655-1.7127 4.9728-3.7444 6.6856-5.0673 6.6856-5.0673z"
            fill="#b8e2ff"
        />
        <path
            d="m32.9911 21.009c.3196 0 .5788-.2592.5788-.5788 0-.3197-.2592-.5788-.5788-.5788-.3197 0-.5788.2591-.5788.5788 0 .3196.2591.5788.5788.5788z"
            fill="#fff"
        />
    </g>
</svg>
