<svg width="56" height="56" viewBox="0 0 56 56" fill="none" xmlns="http://www.w3.org/2000/svg">
    <g clip-path="url(#clip0_61822_54149)">
        <ellipse
            cx="2.22862"
            cy="2.22862"
            rx="2.22862"
            ry="2.22862"
            transform="matrix(0.866025 -0.5 0.500002 0.866024 11.4592 5.56958)"
            fill="#2C83DC"
        />
        <path
            d="M7.86335 21.8678C6.11243 15.7334 8.75904 9.19434 14.2838 6.00464C19.8085 2.81494 26.7948 3.79244 31.2319 8.37597L43.2898 20.8317C44.1945 21.7662 45.2962 22.4871 46.5148 22.9418C48.9464 23.8492 50.4263 25.9091 48.7683 27.9058C46.8248 30.2464 42.5767 33.8716 33.4238 39.156C24.2709 44.4404 19.0073 46.3068 16.0086 46.8196C13.4504 47.2571 12.4064 44.9456 12.8364 42.3861C13.0519 41.1034 12.9784 39.7888 12.6215 38.5381L7.86335 21.8678Z"
            fill="url(#paint0_radial_61822_54149)"
        />
        <path
            d="M7.86335 21.8678C6.11243 15.7334 8.75904 9.19434 14.2838 6.00464C19.8085 2.81494 26.7948 3.79244 31.2319 8.37597L43.2898 20.8317C44.1945 21.7662 45.2962 22.4871 46.5148 22.9418C48.9464 23.8492 50.4263 25.9091 48.7683 27.9058C46.8248 30.2464 42.5767 33.8716 33.4238 39.156C24.2709 44.4404 19.0073 46.3068 16.0086 46.8196C13.4504 47.2571 12.4064 44.9456 12.8364 42.3861C13.0519 41.1034 12.9784 39.7888 12.6215 38.5381L7.86335 21.8678Z"
            fill="url(#paint1_radial_61822_54149)"
        />
        <ellipse
            cx="18.92"
            cy="2.64"
            rx="18.92"
            ry="2.64"
            transform="matrix(0.866025 -0.5 0.500002 0.866024 13.7388 42.9001)"
            fill="url(#paint2_linear_61822_54149)"
        />
        <ellipse
            cx="18.92"
            cy="2.64"
            rx="18.92"
            ry="2.64"
            transform="matrix(0.866025 -0.5 0.500002 0.866024 13.7388 42.9001)"
            fill="url(#paint3_linear_61822_54149)"
        />
        <path
            d="M24.1375 21.0225C28.7148 18.3798 33.366 16.423 37.8022 15.1629L39.2327 16.6408C34.9148 17.853 30.1825 19.8474 25.4639 22.5717C19.6026 25.9558 14.7057 29.9204 11.271 33.8072L10.6273 31.5537C14.208 27.7483 18.7934 24.108 24.1375 21.0225Z"
            fill="white"
            fill-opacity="0.2"
        />
        <ellipse
            cx="1.76"
            cy="1.76"
            rx="1.76"
            ry="1.76"
            transform="matrix(0.866025 -0.5 0.500002 0.866024 28.5996 34.3203)"
            fill="url(#paint4_linear_61822_54149)"
        />
        <g filter="url(#filter0_f_61822_54149)">
            <ellipse cx="31.5" cy="49.4375" rx="20.125" ry="1.3125" fill="#1A4B7B" fill-opacity="0.2" />
        </g>
    </g>
    <defs>
        <filter
            id="filter0_f_61822_54149"
            x="7"
            y="43.75"
            width="49"
            height="11.375"
            filterUnits="userSpaceOnUse"
            color-interpolation-filters="sRGB"
        >
            <feFlood flood-opacity="0" result="BackgroundImageFix" />
            <feBlend mode="normal" in="SourceGraphic" in2="BackgroundImageFix" result="shape" />
            <feGaussianBlur stdDeviation="2.1875" result="effect1_foregroundBlur_61822_54149" />
        </filter>
        <radialGradient
            id="paint0_radial_61822_54149"
            cx="0"
            cy="0"
            r="1"
            gradientTransform="matrix(-24.4805 27.8192 -32.8599 -20.9627 22.8143 3.61986)"
            gradientUnits="userSpaceOnUse"
        >
            <stop stop-color="#B2EAFE" />
            <stop offset="1" stop-color="#27ABF4" />
        </radialGradient>
        <radialGradient
            id="paint1_radial_61822_54149"
            cx="0"
            cy="0"
            r="1"
            gradientTransform="matrix(7.48002 12.9557 -46.393 26.785 32.2138 37.0602)"
            gradientUnits="userSpaceOnUse"
        >
            <stop stop-color="white" stop-opacity="0" />
            <stop offset="0.459677" stop-color="white" stop-opacity="0.4" />
            <stop offset="0.58" stop-color="#B2EAFE" stop-opacity="0.5" />
        </radialGradient>
        <linearGradient
            id="paint2_linear_61822_54149"
            x1="27.4147"
            y1="-8.68524"
            x2="18.92"
            y2="4.38121"
            gradientUnits="userSpaceOnUse"
        >
            <stop stop-color="#256097" />
            <stop offset="1" stop-color="#2C83DC" />
        </linearGradient>
        <linearGradient
            id="paint3_linear_61822_54149"
            x1="27.7806"
            y1="2.29704"
            x2="27.3279"
            y2="5.89701"
            gradientUnits="userSpaceOnUse"
        >
            <stop stop-color="#27ABF4" stop-opacity="0" />
            <stop offset="1" stop-color="#27ABF4" stop-opacity="0.5" />
        </linearGradient>
        <linearGradient
            id="paint4_linear_61822_54149"
            x1="1.232"
            y1="-0.176"
            x2="1.76"
            y2="3.52"
            gradientUnits="userSpaceOnUse"
        >
            <stop offset="0.345" stop-color="#B2EAFE" stop-opacity="0" />
            <stop offset="1" stop-color="#B2EAFE" />
        </linearGradient>
        <clipPath id="clip0_61822_54149">
            <rect width="56" height="56" fill="white" />
        </clipPath>
    </defs>
</svg>
