<svg width="56" height="56" viewBox="0 0 56 56" fill="none" xmlns="http://www.w3.org/2000/svg">
    <path
        d="M46.4787 5.70775C47.5653 4.68858 49.2646 4.71576 50.318 5.76916C51.3714 6.82257 51.3986 8.52189 50.3794 9.60845L20.079 41.9122C19.7839 42.2268 19.287 42.2347 18.982 41.9298L14.1574 37.1051C13.8524 36.8001 13.8604 36.3033 14.175 36.0082L46.4787 5.70775Z"
        fill="url(#paint0_linear_61822_54125)"
    />
    <mask
        id="mask0_61822_54125"
        style="mask-type: alpha"
        maskUnits="userSpaceOnUse"
        x="13"
        y="4"
        width="39"
        height="39"
    >
        <path
            d="M46.4787 5.70775C47.5653 4.68858 49.2646 4.71576 50.318 5.76916C51.3714 6.82257 51.3986 8.52189 50.3794 9.60845L20.079 41.9122C19.7839 42.2268 19.287 42.2347 18.982 41.9297L14.1574 37.1051C13.8524 36.8001 13.8604 36.3032 14.175 36.0082L46.4787 5.70775Z"
            fill="#FF7A00"
        />
    </mask>
    <g mask="url(#mask0_61822_54125)">
        <path
            d="M22.2401 39.7875L16.3002 33.8475L17.3802 32.7676L23.3201 38.7075L22.2401 39.7875ZM48.9686 13.059L43.0286 7.11906L44.1086 6.03906L50.0486 11.979L48.9686 13.059Z"
            fill="url(#paint1_linear_61822_54125)"
        />
    </g>
    <rect
        x="14.6799"
        y="37.6279"
        width="5.34545"
        height="0.763636"
        transform="rotate(45 14.6799 37.6279)"
        fill="#6E7C94"
    />
    <mask id="path-5-inside-1_61822_54125" fill="white">
        <path
            d="M15.8907 46.0051C15.8062 46.1739 15.6624 46.3056 15.4867 46.3745L6.44485 49.9128L6.44416 49.9121L11.8821 44.4742C12.0092 44.5079 12.1498 44.4771 12.2495 44.3775C12.3985 44.2284 12.3985 43.9866 12.2495 43.8375C12.1004 43.6887 11.8585 43.6886 11.7095 43.8375C11.61 43.9371 11.5793 44.0779 11.6128 44.2049L6.17485 49.6428L9.71315 40.601C9.78205 40.4252 9.91373 40.2815 10.0826 40.197L14.1402 38.1682L17.9195 41.9475L15.8907 46.0051Z"
        />
    </mask>
    <path
        d="M15.8907 46.0051C15.8062 46.1739 15.6624 46.3056 15.4867 46.3745L6.44485 49.9128L6.44416 49.9121L11.8821 44.4742C12.0092 44.5079 12.1498 44.4771 12.2495 44.3775C12.3985 44.2284 12.3985 43.9866 12.2495 43.8375C12.1004 43.6887 11.8585 43.6886 11.7095 43.8375C11.61 43.9371 11.5793 44.0779 11.6128 44.2049L6.17485 49.6428L9.71315 40.601C9.78205 40.4252 9.91373 40.2815 10.0826 40.197L14.1402 38.1682L17.9195 41.9475L15.8907 46.0051Z"
        fill="url(#paint2_linear_61822_54125)"
    />
    <path
        d="M15.8907 46.0051C15.8062 46.1739 15.6624 46.3056 15.4867 46.3745L6.44485 49.9128L6.44416 49.9121L11.8821 44.4742C12.0092 44.5079 12.1498 44.4771 12.2495 44.3775C12.3985 44.2284 12.3985 43.9866 12.2495 43.8375C12.1004 43.6887 11.8585 43.6886 11.7095 43.8375C11.61 43.9371 11.5793 44.0779 11.6128 44.2049L6.17485 49.6428L9.71315 40.601C9.78205 40.4252 9.91373 40.2815 10.0826 40.197L14.1402 38.1682L17.9195 41.9475L15.8907 46.0051Z"
        fill="url(#paint3_linear_61822_54125)"
    />
    <path
        d="M15.8907 46.0051L16.2321 46.1759L16.2322 46.1759L15.8907 46.0051ZM15.4867 46.3745L15.6258 46.7301L15.6261 46.73L15.4867 46.3745ZM6.44485 49.9128L6.17487 50.1828L6.35144 50.3594L6.58399 50.2684L6.44485 49.9128ZM6.44416 49.9121L6.17418 49.6422L5.90419 49.9121L6.17418 50.1821L6.44416 49.9121ZM11.8821 44.4742L11.9799 44.1051L11.7675 44.0488L11.6121 44.2042L11.8821 44.4742ZM12.2495 44.3775L12.5193 44.6477L12.5196 44.6474L12.2495 44.3775ZM12.2495 43.8375L12.5195 43.5675L12.5192 43.5672L12.2495 43.8375ZM11.7095 43.8375L11.4396 43.5674L11.4393 43.5677L11.7095 43.8375ZM11.6128 44.2049L11.8828 44.4749L12.038 44.3197L11.982 44.1075L11.6128 44.2049ZM6.17485 49.6428L5.81929 49.5037L6.44484 49.9128L6.17485 49.6428ZM9.71315 40.601L9.35767 40.4616L9.35759 40.4618L9.71315 40.601ZM10.0826 40.197L9.91183 39.8555L9.91177 39.8555L10.0826 40.197ZM14.1402 38.1682L14.4101 37.8982L14.2156 37.7037L13.9694 37.8267L14.1402 38.1682ZM17.9195 41.9475L18.261 42.1183L18.384 41.8721L18.1894 41.6775L17.9195 41.9475ZM15.8907 46.0051L15.5492 45.8343C15.5068 45.919 15.4348 45.9848 15.3473 46.0191L15.4867 46.3745L15.6261 46.73C15.89 46.6265 16.1056 46.4288 16.2321 46.1759L15.8907 46.0051ZM15.4867 46.3745L15.3476 46.019L6.30571 49.5573L6.44485 49.9128L6.58399 50.2684L15.6258 46.7301L15.4867 46.3745ZM6.44485 49.9128L6.71484 49.6428L6.71415 49.6422L6.44416 49.9121L6.17418 50.1821L6.17487 50.1828L6.44485 49.9128ZM6.44416 49.9121L6.71415 50.1821L12.1521 44.7442L11.8821 44.4742L11.6121 44.2042L6.17418 49.6422L6.44416 49.9121ZM11.8821 44.4742L11.7843 44.8433C12.033 44.9092 12.3164 44.8503 12.5193 44.6477L12.2495 44.3775L11.9797 44.1073C11.9797 44.1074 11.9802 44.1069 11.9812 44.1063C11.9821 44.1058 11.9828 44.1056 11.9831 44.1055C11.9836 44.1054 11.9823 44.1057 11.9799 44.1051L11.8821 44.4742ZM12.2495 44.3775L12.5196 44.6474C12.8175 44.3493 12.8177 43.8658 12.5195 43.5675L12.2495 43.8375L11.9795 44.1075L11.9794 44.1076L12.2495 44.3775ZM12.2495 43.8375L12.5192 43.5672C12.2212 43.2699 11.7379 43.2693 11.4396 43.5674L11.7095 43.8375L11.9794 44.1076L11.9798 44.1078L12.2495 43.8375ZM11.7095 43.8375L11.4393 43.5677C11.2366 43.7707 11.1782 44.0542 11.2436 44.3023L11.6128 44.2049L11.982 44.1075C11.9814 44.1051 11.9817 44.1036 11.9816 44.1038C11.9816 44.104 11.9814 44.1047 11.9808 44.1056C11.9806 44.1061 11.9803 44.1065 11.9801 44.1068C11.9798 44.1071 11.9797 44.1073 11.9797 44.1073L11.7095 43.8375ZM11.6128 44.2049L11.3428 43.9349L5.90487 49.3728L6.17485 49.6428L6.44484 49.9128L11.8828 44.4749L11.6128 44.2049ZM6.17485 49.6428L6.53042 49.782L10.0687 40.7401L9.71315 40.601L9.35759 40.4618L5.81929 49.5037L6.17485 49.6428ZM9.71315 40.601L10.0686 40.7403C10.1029 40.6528 10.1686 40.5809 10.2534 40.5385L10.0826 40.197L9.91177 39.8555C9.65885 39.9821 9.46117 40.1976 9.35767 40.4616L9.71315 40.601ZM10.0826 40.197L10.2533 40.5385L14.3109 38.5097L14.1402 38.1682L13.9694 37.8267L9.91183 39.8555L10.0826 40.197ZM14.1402 38.1682L13.8702 38.4382L17.6495 42.2175L17.9195 41.9475L18.1894 41.6775L14.4101 37.8982L14.1402 38.1682ZM17.9195 41.9475L17.5779 41.7768L15.5492 45.8343L15.8907 46.0051L16.2322 46.1759L18.261 42.1183L17.9195 41.9475Z"
        fill="url(#paint4_radial_61822_54125)"
        mask="url(#path-5-inside-1_61822_54125)"
    />
    <g filter="url(#filter0_f_61822_54125)">
        <ellipse cx="31.5" cy="49.4375" rx="20.125" ry="1.3125" fill="#6E7C94" fill-opacity="0.3" />
    </g>
    <defs>
        <filter
            id="filter0_f_61822_54125"
            x="7"
            y="43.75"
            width="49"
            height="11.375"
            filterUnits="userSpaceOnUse"
            color-interpolation-filters="sRGB"
        >
            <feFlood flood-opacity="0" result="BackgroundImageFix" />
            <feBlend mode="normal" in="SourceGraphic" in2="BackgroundImageFix" result="shape" />
            <feGaussianBlur stdDeviation="2.1875" result="effect1_foregroundBlur_61822_54125" />
        </filter>
        <linearGradient
            id="paint0_linear_61822_54125"
            x1="39.9879"
            y1="21.6993"
            x2="33.8488"
            y2="16.2986"
            gradientUnits="userSpaceOnUse"
        >
            <stop stop-color="#D5DADE" />
            <stop offset="1" stop-color="#8591A8" />
        </linearGradient>
        <linearGradient
            id="paint1_linear_61822_54125"
            x1="41.3887"
            y1="23.7995"
            x2="33.554"
            y2="16.604"
            gradientUnits="userSpaceOnUse"
        >
            <stop stop-color="#D5DADE" />
            <stop offset="1" stop-color="#6E7C94" />
        </linearGradient>
        <linearGradient
            id="paint2_linear_61822_54125"
            x1="14.6796"
            y1="48.4277"
            x2="10.3597"
            y2="38.7085"
            gradientUnits="userSpaceOnUse"
        >
            <stop stop-color="#D5DADE" />
            <stop offset="1" stop-color="#8591A8" />
        </linearGradient>
        <linearGradient
            id="paint3_linear_61822_54125"
            x1="16.0299"
            y1="40.058"
            x2="12.5199"
            y2="43.568"
            gradientUnits="userSpaceOnUse"
        >
            <stop stop-color="#6E7C94" />
            <stop offset="1" stop-color="#6E7C94" stop-opacity="0" />
        </linearGradient>
        <radialGradient
            id="paint4_radial_61822_54125"
            cx="0"
            cy="0"
            r="1"
            gradientUnits="userSpaceOnUse"
            gradientTransform="translate(11.9799 44.108) rotate(135) scale(5.3457 3.48396)"
        >
            <stop stop-color="#6E7C94" />
            <stop offset="1" stop-color="#D5DADE" stop-opacity="0" />
        </radialGradient>
    </defs>
</svg>
