<svg width="32" height="32" viewBox="0 0 32 32" fill="none" xmlns="http://www.w3.org/2000/svg">
    <path
        d="M0 7C0 5.89543 0.895431 5 2 5H30C31.1046 5 32 5.89543 32 7V25C32 26.1046 31.1046 27 30 27H2C0.895431 27 0 26.1046 0 25V7Z"
        fill="white"
    />
    <path
        fill-rule="evenodd"
        clip-rule="evenodd"
        d="M30 6H2C1.44771 6 1 6.44772 1 7V25C1 25.5523 1.44772 26 2 26H30C30.5523 26 31 25.5523 31 25V7C31 6.44772 30.5523 6 30 6ZM2 5C0.895431 5 0 5.89543 0 7V25C0 26.1046 0.895431 27 2 27H30C31.1046 27 32 26.1046 32 25V7C32 5.89543 31.1046 5 30 5H2Z"
        fill="#EEEFF3"
    />
    <path
        d="M10.3665 18.6023V16.3224H8.08665V14.9844H10.3665V12.7045H11.7045V14.9844H13.9844V16.3224H11.7045V18.6023H10.3665ZM18.8839 20.1193C17.1793 20.1193 15.9137 19.0753 15.8711 17.6264H17.4052C17.4606 18.3423 18.0955 18.8409 18.8839 18.8409C19.8171 18.8409 20.4904 18.1463 20.4862 17.1705C20.4904 16.1818 19.8001 15.4744 18.8413 15.4702C18.3171 15.4659 17.7631 15.6832 17.4691 16.0071L16.0415 15.7727L16.4975 11.2727H21.56V12.5938H17.8058L17.5543 14.9077H17.6055C17.9293 14.5241 18.5558 14.2429 19.2631 14.2429C20.8484 14.2429 22.016 15.4531 22.016 17.1321C22.016 18.8665 20.729 20.1193 18.8839 20.1193Z"
        fill="#8F8D8A"
    />
</svg>
