<svg width="43" height="12" viewBox="0 0 43 12" fill="none" xmlns="http://www.w3.org/2000/svg">
    <path
        d="M9.46284 3.75577H6.54862C6.54862 3.27194 6.49237 2.94733 6.38042 2.78194C6.20696 2.5375 5.72842 2.41501 4.94506 2.41501C4.18416 2.41501 3.67984 2.48537 3.43378 2.62637C3.18772 2.76793 3.06441 3.07544 3.06441 3.54889C3.06441 3.9775 3.17359 4.26006 3.39221 4.39518C3.54877 4.49132 3.75577 4.54767 4.01346 4.56449L4.60119 4.60654C5.86087 4.69091 6.64754 4.75062 6.96122 4.78454C7.95738 4.88601 8.67949 5.154 9.12756 5.58821C9.48002 5.92712 9.69034 6.37002 9.7574 6.91664C9.79675 7.24377 9.81614 7.61407 9.81614 8.0253C9.81614 8.97334 9.72664 9.66741 9.54791 10.1072C9.22343 10.9145 8.49439 11.4244 7.36024 11.6386C6.88502 11.7291 6.15819 11.7743 5.18032 11.7743C3.54822 11.7743 2.41102 11.6762 1.76871 11.4785C0.980644 11.2366 0.460811 10.7464 0.209485 10.0083C0.0692741 9.59733 0 8.91279 0 7.95466H2.91422C2.91422 8.06146 2.9145 8.14332 2.9145 8.19966C2.9145 8.71096 3.0597 9.03949 3.34982 9.1861C3.55071 9.28701 3.79317 9.33999 4.07831 9.34644H5.14984C5.69655 9.34644 6.04541 9.31813 6.19588 9.26122C6.46383 9.1547 6.63979 8.98315 6.72375 8.74572C6.76836 8.59939 6.79053 8.41046 6.79053 8.17892C6.79053 7.66061 6.60349 7.34525 6.22996 7.232C6.09003 7.18743 5.44051 7.12492 4.28059 7.04615C3.34899 6.97887 2.70197 6.91412 2.3398 6.85133C1.38576 6.6708 0.749823 6.29938 0.432548 5.73566C0.153511 5.25687 0.0141319 4.53225 0.0141319 3.56263C0.0141319 2.82455 0.0895022 2.23252 0.240243 1.78737C0.390983 1.34195 0.633997 1.00388 0.969283 0.772619C1.46058 0.417456 2.08931 0.209179 2.85437 0.146948C3.49114 0.0906042 4.19746 0.0620117 4.97444 0.0620117C6.19754 0.0620117 7.06928 0.133213 7.58884 0.274213C8.85711 0.619005 9.49111 1.58442 9.49111 3.17102C9.49111 3.30109 9.48169 3.49563 9.46284 3.75577Z"
        fill="#3351CC"
    />
    <path
        d="M22.2782 11.7745V0H26.8439H27.5605H28.1144C28.9149 0 29.5257 0.0658749 29.9455 0.198185C30.9053 0.502331 31.5493 1.12548 31.8793 2.06679C32.0494 2.56099 32.1348 3.30495 32.1348 4.2984C32.1348 5.49284 32.0403 6.3509 31.8533 6.87369C31.4789 7.90694 30.7086 8.50234 29.5451 8.65652C29.4082 8.67978 28.826 8.70024 27.7982 8.71706L27.2784 8.73444H25.4108V11.7745H22.2782ZM25.4108 6.00302H27.3635C27.9828 5.98059 28.3594 5.93238 28.4949 5.85697C28.68 5.7541 28.8044 5.54778 28.8662 5.23859C28.9058 5.03284 28.9255 4.72673 28.9255 4.32027C28.9255 3.82214 28.8861 3.45296 28.8071 3.21189C28.6946 2.87411 28.4248 2.66863 27.9975 2.59379C27.9127 2.58257 27.7104 2.57641 27.3898 2.57641H25.4108V6.00302Z"
        fill="#3351CC"
    />
    <path
        d="M38.8214 9.73967H34.633L34.0703 11.7745H30.8293L34.3266 0H39.0519L42.5918 11.7745H39.4191L38.8214 9.73967ZM38.1993 7.44582L36.7315 2.34178L35.3072 7.44582H38.1993Z"
        fill="#3351CC"
    />
    <path
        d="M17.9546 1.65634C19.2464 1.65634 20.3997 2.25846 21.1575 3.20145L21.8328 1.73679C20.7768 0.72708 19.3395 0.104492 17.7542 0.104492C15.2859 0.104492 13.1744 1.61261 12.3079 3.74751H10.9912L10.2136 5.43363H11.9075C11.8948 5.59004 11.8865 5.74646 11.8865 5.90624C11.8865 6.09938 11.8964 6.29056 11.9153 6.47922H11.064L10.2868 8.16589H12.3484C13.2395 10.2467 15.3247 11.7074 17.7542 11.7074C18.9787 11.7074 20.1148 11.3363 21.0556 10.7022V8.63514C20.298 9.50778 19.1899 10.0592 17.9546 10.0592C16.5106 10.0592 15.2404 9.30595 14.5009 8.16589H18.8175L19.595 6.47922H13.8658C13.8361 6.27626 13.8203 6.06883 13.8203 5.85747C13.8203 5.71451 13.8275 5.57323 13.8414 5.43363H20.0769L20.8541 3.74751H14.3803C15.0963 2.49757 16.4286 1.65634 17.9546 1.65634Z"
        fill="#FFBE00"
    />
    <path
        d="M17.9545 1.70696C19.1857 1.70696 20.3389 2.26367 21.1187 3.23357L21.1691 3.29636L21.2032 3.2232L21.8782 1.75854L21.8932 1.72518L21.8674 1.69995C20.7573 0.638663 19.2965 0.0541992 17.7542 0.0541992C16.5496 0.0541992 15.3908 0.410204 14.4024 1.08381C13.4373 1.74144 12.6969 2.65612 12.2618 3.72833L12.3078 3.69694H10.9911H10.9589L10.9456 3.72609L10.1684 5.41249L10.1351 5.48453H10.2135H11.9074L11.8576 5.42959C11.8434 5.60479 11.8365 5.76036 11.8365 5.90641C11.8365 6.09562 11.8462 6.29045 11.8653 6.48443L11.9152 6.42892H11.064H11.0324L11.0191 6.45808L10.2413 8.14447L10.2083 8.21651H10.2867H12.3483L12.3023 8.18596C13.2317 10.3559 15.3717 11.7581 17.7542 11.7581C18.9485 11.7581 20.0992 11.4079 21.0832 10.7447L21.1051 10.7298V10.7024V8.63531V8.50104L21.0178 8.60195C20.2417 9.49589 19.1252 10.0083 17.9545 10.0083C16.5773 10.0083 15.3019 9.30892 14.5424 8.13803L14.5008 8.21651H18.8174H18.8495L18.8628 8.18764L19.6404 6.50068L19.6736 6.42892H19.5949H13.8657L13.9153 6.47209C13.8856 6.26774 13.8704 6.06143 13.8704 5.85763C13.8704 5.71888 13.8773 5.57816 13.8912 5.43884L13.8413 5.48453H20.0768H20.1089L20.1222 5.45538L20.8995 3.76898L20.933 3.69694H20.8541H14.3802L14.4235 3.7729C15.1533 2.49858 16.5067 1.70696 17.9545 1.70696ZM14.3802 3.79813H20.8541L20.8086 3.72609L20.0316 5.41249L20.0768 5.38333H13.8413H13.7961L13.7911 5.42903C13.7773 5.57143 13.7704 5.71579 13.7704 5.85763C13.7704 6.06619 13.7859 6.27811 13.8161 6.48695L13.8227 6.53012H13.8657H19.5949L19.5498 6.45808L18.7725 8.14447L18.8174 8.11532H14.5008H14.408L14.4589 8.19325C15.2368 9.39357 16.5438 10.1092 17.9545 10.1092C19.1538 10.1092 20.2979 9.58447 21.0932 8.66867L21.0053 8.63531V10.7024L21.0275 10.6606C20.0602 11.3124 18.9285 11.6569 17.7542 11.6569C15.4113 11.6569 13.3076 10.2785 12.3943 8.14559L12.381 8.11532H12.3483H10.2867L10.3324 8.18764L11.1094 6.50068L11.064 6.53012H11.9152H11.9703L11.9651 6.47433C11.9462 6.28372 11.9363 6.09226 11.9363 5.90641C11.9363 5.76345 11.9432 5.61011 11.9573 5.438L11.9618 5.38333H11.9074H10.2135L10.2587 5.45538L11.0362 3.76898L10.9911 3.79813H12.3078H12.3414L12.3538 3.76674C12.782 2.71302 13.5096 1.81432 14.4584 1.16762C15.4299 0.505792 16.5699 0.155675 17.7542 0.155675C19.271 0.155675 20.7069 0.730047 21.7984 1.77367L21.7873 1.71537L21.1126 3.18031L21.1965 3.16966C20.3971 2.17593 19.2159 1.60576 17.9545 1.60576C16.4707 1.60576 15.0849 2.41672 14.3367 3.72217L14.2932 3.79813H14.3802Z"
        fill="#3351CC"
    />
</svg>
