<svg width="67" height="14" viewBox="0 0 67 14" fill="none" xmlns="http://www.w3.org/2000/svg">
    <g clip-path="url(#clip0_42609_14824)">
        <path
            d="M13.7991 8.66687C12.8846 12.3347 9.1698 14.5668 5.50158 13.6522C1.83487 12.7377 -0.397295 9.02267 0.517565 5.3551C1.43157 1.68689 5.14642 -0.54549 8.81356 0.368942C12.4816 1.28337 14.7135 4.99887 13.7991 8.66687Z"
            fill="#F7931A"
        />
        <path
            d="M10.1759 6.0353C10.3122 5.12429 9.61854 4.63456 8.67009 4.30785L8.97775 3.07377L8.22656 2.88657L7.92703 4.08812C7.72955 4.03891 7.52673 3.99248 7.32518 3.94648L7.62686 2.73701L6.8761 2.5498L6.56822 3.78345C6.40476 3.74623 6.2443 3.70943 6.08854 3.6707L6.08939 3.66685L5.05344 3.40818L4.85361 4.2105C4.85361 4.2105 5.41095 4.33823 5.39918 4.34615C5.70342 4.4221 5.75841 4.62343 5.74921 4.78304L5.39876 6.18892C5.41972 6.19427 5.4469 6.20197 5.47685 6.21395C5.45182 6.20775 5.42507 6.2009 5.39747 6.19427L4.90624 8.1637C4.86901 8.25613 4.77466 8.39477 4.56199 8.34213C4.56948 8.35305 4.01598 8.20585 4.01598 8.20585L3.64307 9.06572L4.62061 9.30941C4.80247 9.35498 4.98069 9.4027 5.15613 9.44763L4.84526 10.6958L5.59559 10.883L5.90347 9.6481C6.10844 9.70373 6.30741 9.75507 6.50211 9.80343L6.1953 11.0326L6.94649 11.2198L7.25736 9.97395C8.53829 10.2164 9.50151 10.1186 9.90694 8.96003C10.2336 8.0272 9.89068 7.48911 9.21674 7.13823C9.70754 7.02504 10.0773 6.70219 10.1759 6.0353ZM8.45956 8.44205C8.22742 9.37488 6.6568 8.8706 6.14759 8.74415L6.56009 7.09051C7.06929 7.2176 8.70218 7.46921 8.45956 8.44205ZM8.69191 6.02182C8.4801 6.87036 7.17285 6.43924 6.7488 6.33355L7.12278 4.83374C7.54684 4.93944 8.91249 5.1367 8.69191 6.02182Z"
            fill="white"
        />
        <path
            d="M20.3751 4.3074C20.9303 4.3074 21.41 4.40688 21.8131 4.60222C22.2181 4.79949 22.5523 5.06522 22.8204 5.39941C23.0848 5.73531 23.2816 6.12792 23.4087 6.57786C23.535 7.02908 23.5983 7.51411 23.5983 8.03337C23.5983 8.83099 23.4522 9.58453 23.1571 10.2948C22.8621 11.0062 22.4618 11.6233 21.9526 12.1496C21.4438 12.6753 20.843 13.0897 20.1502 13.3959C19.4585 13.7023 18.7065 13.8554 17.899 13.8554C17.7946 13.8554 17.611 13.8524 17.3517 13.8471C17.0924 13.8417 16.7944 13.815 16.4606 13.7699C16.1247 13.723 15.7696 13.6537 15.3945 13.5608C15.0196 13.4697 14.6636 13.342 14.3284 13.1798L17.3263 0.583129L20.0114 0.166992L18.938 4.6371C19.1678 4.53354 19.3993 4.45331 19.6303 4.3949C19.8616 4.33735 20.1098 4.3074 20.3751 4.3074ZM18.1228 11.7253C18.5272 11.7253 18.9082 11.6258 19.2662 11.4305C19.6252 11.235 19.935 10.9709 20.1945 10.6421C20.454 10.3118 20.6594 9.93969 20.8092 9.52398C20.959 9.10827 21.0347 8.67459 21.0347 8.22336C21.0347 7.66901 20.9421 7.23662 20.7574 6.92403C20.5728 6.61273 20.2311 6.45612 19.7349 6.45612C19.5723 6.45612 19.3629 6.48714 19.1031 6.54255C18.8425 6.60139 18.6093 6.72356 18.4003 6.90734L17.2574 11.6545C17.3263 11.6667 17.3872 11.6783 17.4392 11.6892C17.4902 11.7009 17.5464 11.7093 17.6025 11.7151C17.6617 11.7217 17.7296 11.7251 17.8115 11.7251C17.8935 11.7251 17.9959 11.7253 18.1228 11.7253Z"
            fill="#4D4D4D"
        />
        <path
            d="M26.3835 13.6133H23.8188L25.9847 4.49956H28.5669L26.3835 13.6133ZM27.6315 3.38915C27.2735 3.38915 26.949 3.2826 26.661 3.06908C26.3707 2.85684 26.2269 2.53013 26.2269 2.08982C26.2269 1.84763 26.2761 1.62041 26.3737 1.40603C26.4727 1.19208 26.6022 1.00786 26.7643 0.85125C26.9263 0.695921 27.1139 0.571828 27.327 0.478331C27.5414 0.386332 27.7695 0.340332 28.0125 0.340332C28.3703 0.340332 28.6931 0.446881 28.9822 0.660405C29.2701 0.874999 29.415 1.2017 29.415 1.63966C29.415 1.88271 29.366 2.11079 29.2676 2.32474C29.1698 2.53869 29.0404 2.7229 28.8782 2.87952C28.7175 3.03506 28.5282 3.15872 28.3155 3.25137C28.1009 3.34486 27.8737 3.38915 27.6315 3.38915Z"
            fill="#4D4D4D"
        />
        <path
            d="M30.8141 2.22913L33.5002 1.81299L32.8406 4.49937H35.7174L35.1979 6.61279H32.3385L31.5768 9.80068C31.5066 10.0664 31.4668 10.3146 31.4557 10.5452C31.4431 10.7769 31.4724 10.9759 31.5417 11.1434C31.6106 11.3114 31.7345 11.4408 31.9142 11.5324C32.0931 11.6255 32.3492 11.6723 32.6851 11.6723C32.9617 11.6723 33.2313 11.646 33.4919 11.5938C33.751 11.5425 34.0135 11.471 34.2792 11.3775L34.4705 13.3536C34.1239 13.4807 33.7486 13.59 33.3443 13.682C32.9392 13.7753 32.4598 13.8202 31.9056 13.8202C31.1089 13.8202 30.4912 13.7019 30.0511 13.4663C29.6116 13.2291 29.301 12.9049 29.1151 12.4946C28.9317 12.0857 28.8498 11.6144 28.8727 11.0833C28.8964 10.551 28.9766 9.99153 29.1151 9.4023L30.8141 2.22913Z"
            fill="#4D4D4D"
        />
        <path
            d="M35.6042 9.97502C35.6042 9.19003 35.7313 8.44975 35.9853 7.75676C36.2388 7.06313 36.604 6.45657 37.078 5.93603C37.5501 5.41805 38.1255 5.00769 38.8026 4.70644C39.4766 4.40691 40.2312 4.25586 41.0628 4.25586C41.5834 4.25586 42.0483 4.30507 42.4574 4.4037C42.8681 4.50319 43.2398 4.63177 43.5759 4.79309L42.6914 6.80424C42.4603 6.71053 42.2205 6.62795 41.9725 6.55307C41.7244 6.47668 41.4214 6.43988 41.063 6.43988C40.207 6.43988 39.5303 6.73492 39.0266 7.32308C38.5249 7.91166 38.2722 8.70393 38.2722 9.69774C38.2722 10.2867 38.3993 10.763 38.6544 11.1274C38.9081 11.4917 39.3769 11.6729 40.0575 11.6729C40.3934 11.6729 40.7175 11.6379 41.0279 11.5694C41.3407 11.5001 41.617 11.4128 41.8602 11.3097L42.0517 13.3713C41.7273 13.4971 41.3696 13.6107 40.9772 13.7102C40.584 13.8063 40.1159 13.8561 39.5731 13.8561C38.8565 13.8561 38.25 13.7513 37.7538 13.5448C37.2575 13.3351 36.8473 13.0568 36.5242 12.7042C36.1995 12.3507 35.9663 11.938 35.8221 11.4643C35.6778 10.9911 35.6042 10.4939 35.6042 9.97502Z"
            fill="#4D4D4D"
        />
        <path
            d="M46.9968 13.8556C46.3847 13.8556 45.853 13.7623 45.402 13.5777C44.9523 13.3931 44.5798 13.134 44.2851 12.7981C43.9901 12.4639 43.7693 12.0678 43.6181 11.6115C43.4668 11.1553 43.394 10.6502 43.394 10.0967C43.394 9.40242 43.5055 8.70836 43.7308 8.01622C43.955 7.32259 44.2877 6.69935 44.728 6.14543C45.1649 5.59065 45.7039 5.13707 46.3385 4.78341C46.9724 4.4321 47.7015 4.25537 48.5206 4.25537C49.1215 4.25537 49.6504 4.34887 50.1076 4.53351C50.5627 4.71772 50.9376 4.97896 51.2339 5.31315C51.527 5.64906 51.7497 6.04337 51.8995 6.50037C52.0503 6.95566 52.1248 7.46209 52.1248 8.01601C52.1248 8.70815 52.0148 9.40221 51.7966 10.0965C51.5781 10.7873 51.254 11.4121 50.8261 11.9673C50.3991 12.5212 49.865 12.9746 49.2236 13.3267C48.583 13.6789 47.8402 13.8556 46.9968 13.8556ZM48.2786 6.43961C47.8984 6.43961 47.5623 6.55001 47.2745 6.76803C46.9857 6.98861 46.743 7.26589 46.5475 7.6003C46.3498 7.93621 46.2032 8.30249 46.1042 8.70066C46.006 9.09968 45.9578 9.47688 45.9578 9.83525C45.9578 10.4136 46.0511 10.8639 46.2345 11.1881C46.4204 11.5105 46.7544 11.6727 47.2398 11.6727C47.6213 11.6727 47.9557 11.5631 48.2452 11.3428C48.5323 11.1239 48.7752 10.8464 48.9722 10.5113C49.1686 10.1771 49.3165 9.80979 49.4155 9.41098C49.5124 9.01324 49.5619 8.63391 49.5619 8.27618C49.5619 7.69936 49.469 7.24792 49.2839 6.92421C49.0991 6.60179 48.7636 6.43961 48.2786 6.43961Z"
            fill="#4D4D4D"
        />
        <path
            d="M54.9203 13.6133H52.3535L54.5194 4.49956H57.1028L54.9203 13.6133ZM56.1664 3.38915C55.8086 3.38915 55.4843 3.2826 55.1967 3.06908C54.9079 2.85684 54.7628 2.53013 54.7628 2.08982C54.7628 1.84763 54.8127 1.62041 54.9105 1.40603C55.0082 1.19208 55.1385 1.00786 55.3007 0.85125C55.4618 0.695921 55.6512 0.571828 55.8638 0.478331C56.0769 0.386332 56.305 0.340332 56.5472 0.340332C56.9058 0.340332 57.2297 0.446881 57.5181 0.660405C57.8067 0.874999 57.9524 1.2017 57.9524 1.63966C57.9524 1.88271 57.9007 2.11079 57.8037 2.32474C57.7068 2.53869 57.5765 2.7229 57.415 2.87952C57.2524 3.03506 57.0654 3.15872 56.8523 3.25137C56.6375 3.34486 56.4098 3.38915 56.1664 3.38915Z"
            fill="#4D4D4D"
        />
        <path
            d="M58.9501 4.91457C59.1448 4.85765 59.3622 4.78919 59.5986 4.71473C59.8359 4.64028 60.1009 4.57096 60.3971 4.50848C60.69 4.44408 61.0205 4.39188 61.384 4.35144C61.7475 4.31015 62.1617 4.29004 62.6219 4.29004C63.9746 4.29004 64.907 4.68392 65.4217 5.46934C65.9361 6.25476 66.0251 7.32966 65.6913 8.69211L64.5116 13.613H61.93L63.0734 8.79566C63.1431 8.49484 63.1979 8.20408 63.2383 7.91995C63.2792 7.63839 63.2769 7.39021 63.2291 7.1754C63.1836 6.96316 63.0762 6.78943 62.9095 6.65485C62.7403 6.52242 62.4846 6.45588 62.1378 6.45588C61.8034 6.45588 61.4632 6.49182 61.1159 6.56114L59.4349 13.6128H56.8523L58.9501 4.91457Z"
            fill="#4D4D4D"
        />
    </g>
    <defs>
        <clipPath id="clip0_42609_14824">
            <rect width="66.5" height="14" fill="white" />
        </clipPath>
    </defs>
</svg>
