<svg width="41" height="16" viewBox="0 0 41 16" fill="none" xmlns="http://www.w3.org/2000/svg">
    <path
        d="M19.0282 7.8001V12.4785H17.519V0.908203H21.4429C22.3987 0.908203 23.3042 1.26034 24.0085 1.91432C24.7128 2.51799 25.0649 3.42349 25.0649 4.3793C25.0649 5.33511 24.7128 6.19031 24.0085 6.84429C23.3042 7.49826 22.449 7.85041 21.4429 7.85041L19.0282 7.8001ZM19.0282 2.31677V6.34123H21.5435C22.0969 6.34123 22.6502 6.14001 23.0024 5.73756C23.8073 4.98297 23.8073 3.72533 23.0527 2.97074L23.0024 2.92044C22.5999 2.51799 22.0969 2.26646 21.5435 2.31677H19.0282Z"
        fill="#5F6368"
    />
    <path
        d="M28.536 4.3291C29.6428 4.3291 30.498 4.63094 31.1519 5.23461C31.8059 5.83828 32.1078 6.64317 32.1078 7.64929V12.4786H30.6992V11.3719H30.6489C30.0452 12.2774 29.19 12.7302 28.1839 12.7302C27.3287 12.7302 26.5741 12.4786 25.9704 11.9756C25.4171 11.4725 25.0649 10.7682 25.0649 10.0137C25.0649 9.20877 25.3668 8.55479 25.9704 8.05173C26.5741 7.54867 27.4293 7.34745 28.4354 7.34745C29.3409 7.34745 30.0452 7.49837 30.5986 7.85051V7.49837C30.5986 6.99531 30.3974 6.49225 29.9949 6.19042C29.5925 5.83828 29.0894 5.63705 28.536 5.63705C27.6808 5.63705 27.0269 5.98919 26.5741 6.69347L25.2662 5.88858C26.0711 4.83216 27.1275 4.3291 28.536 4.3291ZM26.6244 10.064C26.6244 10.4664 26.8256 10.8186 27.1275 11.0198C27.4796 11.2713 27.8821 11.4222 28.2845 11.4222C28.8882 11.4222 29.4919 11.1707 29.9446 10.7179C30.4477 10.2652 30.6992 9.71182 30.6992 9.10815C30.2464 8.75601 29.5925 8.55479 28.7373 8.55479C28.1336 8.55479 27.6305 8.70571 27.2281 9.00754C26.8256 9.25907 26.6244 9.61121 26.6244 10.064Z"
        fill="#5F6368"
    />
    <path
        d="M40.2573 4.58057L35.277 16H33.7678L35.6291 12.0258L32.3593 4.63087H33.969L36.3334 10.3154H36.3837L38.6978 4.63087H40.2573V4.58057Z"
        fill="#5F6368"
    />
    <path
        d="M13.0418 6.79429C13.0418 6.34154 12.9915 5.88879 12.9412 5.43604H6.65295V8.00163H10.2247C10.0737 8.80652 9.621 9.56111 8.91672 10.0139V11.674H11.0799C12.3375 10.5169 13.0418 8.80652 13.0418 6.79429Z"
        fill="#4285F4"
    />
    <path
        d="M6.65301 13.2836C8.46401 13.2836 9.97319 12.6799 11.0799 11.6738L8.91677 10.0137C8.3131 10.4162 7.55851 10.6677 6.65301 10.6677C4.94261 10.6677 3.43343 9.51066 2.93037 7.90088H0.716919V9.61128C1.87395 11.875 4.13771 13.2836 6.65301 13.2836Z"
        fill="#34A853"
    />
    <path
        d="M2.93031 7.90099C2.62848 7.0961 2.62848 6.1906 2.93031 5.3354V3.625H0.716858C-0.238953 5.48632 -0.238953 7.69977 0.716858 9.61139L2.93031 7.90099Z"
        fill="#FBBC04"
    />
    <path
        d="M6.65299 2.61861C7.6088 2.61861 8.51431 2.97075 9.21859 3.62473L11.1302 1.7131C9.92287 0.606376 8.31308 -0.0475993 6.7033 0.00270652C4.18801 0.00270652 1.87394 1.41127 0.767212 3.67503L2.98067 5.38543C3.43342 3.77564 4.94259 2.61861 6.65299 2.61861Z"
        fill="#EA4335"
    />
</svg>
