<svg xmlns="http://www.w3.org/2000/svg" id="Group_3952" width="13.938" height="24.299" data-name="Group 3952" viewBox="0 0 13.938 24.299">
    <defs>
        <style>
            .cls-1{fill:#91979b}
        </style>
    </defs>
    <path id="Path_2052" d="M12.787 53.5H1.151a1.151 1.151 0 0 0 0 2.3h11.636a1.177 1.177 0 0 0 1.151-1.151 1.206 1.206 0 0 0-1.151-1.149z" class="cls-1" data-name="Path 2052" transform="translate(0 -31.503)"/>
    <path id="Path_2053" d="M6.582 18.748a1.166 1.166 0 0 0 1.645 0L13.7 13.28a1.163 1.163 0 1 0-1.645-1.645L8.556 15.13V1.151a1.151 1.151 0 1 0-2.3 0V15.13l-3.497-3.494a1.163 1.163 0 1 0-1.645 1.644z" class="cls-1" data-name="Path 2053" transform="translate(-.456)"/>
</svg>
