<svg version="1.1" xmlns="http://www.w3.org/2000/svg" width="400" height="400" viewBox="0 0 16 16">
    <path d="M2.8 0H13.2C14.7 0 16 1.3 16 2.8V13.2C16 14.7 14.7 16 13.2 16H2.8C1.3 16 0 14.7 0 13.2V2.8C0 1.3 1.3 0 2.8 0Z" fill="#272B33"/>
    <path d="M4.90158 2.02582C4.71278 2.06929 4.53202 2.20335 4.44365 2.36276C4.37938 2.47507 4.37134 2.51131 4.35929 2.74318L4.34724 2.99679L3.86521 3.00042C3.49164 3.00042 3.34301 3.00766 3.20643 3.03665C2.60791 3.16708 2.14195 3.61271 2.01742 4.17429C2.00939 4.21414 2.00136 6.13798 2.00136 8.44586C1.99734 11.6523 2.00136 12.6812 2.02546 12.7971C2.09375 13.1667 2.35886 13.5399 2.70432 13.75C2.82884 13.8261 3.10199 13.9384 3.25464 13.971C3.35908 13.9928 4.17451 14 7.94239 14C10.453 14 12.5659 13.9928 12.6382 13.9855C12.9073 13.9529 13.2568 13.8007 13.4898 13.6123C13.6946 13.4384 13.8754 13.1631 13.9517 12.8913C13.9959 12.7319 13.9999 12.6414 13.9999 8.53282C13.9999 3.96415 14.0079 4.26848 13.8714 3.96777C13.6665 3.51489 13.2126 3.16345 12.6703 3.04027C12.5418 3.01129 12.3931 3.00042 12.0356 2.99679C11.7745 2.99317 11.5576 2.99317 11.5536 2.98955C11.5456 2.98593 11.5416 2.91709 11.5416 2.83376C11.5456 2.55478 11.4692 2.36638 11.2805 2.19972C10.9912 1.93886 10.4771 1.94249 10.1798 2.20697C10.0111 2.36276 9.94683 2.50768 9.93478 2.76492C9.92675 2.88086 9.9147 2.9823 9.90666 2.98593C9.89461 2.99317 9.00687 2.99679 7.92632 2.99679H5.97008L5.96606 2.84825C5.96205 2.47145 5.85359 2.26131 5.59249 2.11277C5.40369 2.00408 5.13456 1.97147 4.90158 2.02582ZM12.839 9.13424L12.835 12.645L12.7788 12.7247C12.7466 12.7682 12.6743 12.8298 12.6181 12.8587L12.5096 12.9167H3.44745L3.34703 12.8696C3.23455 12.8153 3.20242 12.7827 3.14618 12.6776C3.11003 12.6087 3.10601 12.2972 3.10199 9.13424C3.10199 7.22852 3.10199 5.65974 3.10601 5.64524C3.11405 5.63075 4.57219 5.62351 7.97854 5.62351H12.843L12.839 9.13424Z" fill="white"/>
    <path d="M5.54811 6.75418C5.2589 6.78679 4.89336 6.89911 4.63627 7.03316C4.46354 7.12373 4.2386 7.27953 4.19843 7.33749C4.17031 7.37735 4.15826 7.36648 4.48363 7.68168C4.60414 7.79762 4.70858 7.89907 4.71259 7.90994C4.72063 7.92081 4.76481 7.89907 4.809 7.85559C5.23881 7.48242 5.91365 7.40633 6.23903 7.6998C6.3515 7.80125 6.40372 7.92805 6.38765 8.09833C6.37962 8.21427 6.29928 8.3918 6.22296 8.46789C6.10245 8.58745 5.89357 8.64904 5.58828 8.64904C5.33522 8.64904 5.36735 8.60556 5.3071 8.98598C5.30308 9.04033 5.29103 9.10554 5.28701 9.13453C5.27898 9.15989 5.27095 9.2251 5.26291 9.27945L5.24684 9.37003H5.45572C5.88152 9.37365 6.03416 9.39901 6.19484 9.5077C6.40774 9.64538 6.50414 9.96058 6.41577 10.2287C6.27919 10.6562 5.81323 10.8229 5.24283 10.6417C5.05403 10.5801 4.92549 10.5113 4.7608 10.37L4.61619 10.2541L4.3109 10.5258C4.14621 10.6779 4.00562 10.8084 4.00562 10.8229C4.00562 10.8555 4.27073 11.0729 4.42739 11.1671C4.60414 11.2758 4.79695 11.3591 5.04198 11.4279C5.20266 11.475 5.2589 11.4786 5.67666 11.4786C6.18681 11.4786 6.39167 11.4497 6.71302 11.3373C7.07856 11.2105 7.38385 10.9787 7.54051 10.7069C7.66503 10.4895 7.7052 10.3265 7.7052 10.0258C7.7052 9.72871 7.59273 9.48234 7.35975 9.2722C7.19104 9.12004 6.98617 9.02221 6.74516 8.98236L6.58046 8.94975L6.67285 8.93526C6.90584 8.89903 7.22317 8.68165 7.36376 8.47151C7.5847 8.13819 7.58871 7.68531 7.37582 7.35561C7.19907 7.08388 6.90182 6.89548 6.47602 6.78679C6.3515 6.75781 5.72888 6.73607 5.54811 6.75418Z" fill="white"/>
    <path d="M9.75401 6.77237C9.31214 6.83397 8.97472 7.00787 8.68149 7.3267C8.52483 7.50061 8.33603 7.89914 8.26774 8.21435C8.19142 8.54405 8.18741 8.56578 8.17937 9.05127C8.17134 9.68168 8.23561 10.0802 8.42039 10.4896C8.62525 10.9534 9.00686 11.3012 9.46479 11.4461C9.57726 11.4787 9.63752 11.4932 9.83435 11.5222C9.93477 11.5367 10.2883 11.5367 10.4007 11.5222C11.0876 11.428 11.5415 11.0766 11.8348 10.4172C11.9713 10.1092 12.0517 9.62372 12.0517 9.10562C12.0517 8.83027 12.0396 8.72158 12.0075 8.4897C11.8468 7.37742 11.2242 6.77962 10.2039 6.75426C10.0593 6.74701 9.85845 6.75788 9.75401 6.77237ZM10.4007 7.56582C10.5654 7.62741 10.7181 7.85567 10.7663 8.10928C10.7703 8.14189 10.7823 8.18536 10.7864 8.20348C10.8546 8.42449 10.8707 9.74328 10.8105 9.94254C10.8064 9.95704 10.7944 10.0186 10.7864 10.0802C10.7663 10.2288 10.69 10.4208 10.6136 10.5259C10.4489 10.736 10.0472 10.7758 9.83033 10.6019C9.57325 10.3918 9.49692 10.0331 9.49692 9.07301C9.49692 8.53318 9.51299 8.24696 9.55316 8.12015C9.56521 8.08392 9.57726 8.05131 9.57325 8.04769C9.56923 8.02595 9.63752 7.83755 9.67367 7.77596C9.80221 7.54408 10.1115 7.45713 10.4007 7.56582Z" fill="white"/>
</svg>
