<svg id="Layer_1" data-name="Layer 1" xmlns="http://www.w3.org/2000/svg" viewBox="0 0 400 400"><defs><style>.cls-1{fill:#262a33;}.cls-2{fill:#fff;}</style></defs><title>Artboard 4 copy 2</title><circle class="cls-1" cx="200.28" cy="200" r="200"/><path class="cls-2" d="M280.41,99.91H265V94.09a14.16,14.16,0,0,0-28.31,0v5.82H164.14V94.09a14.16,14.16,0,0,0-28.31,0v5.82H120.16a28.25,28.25,0,0,0-28.31,28.31V291.75a28.26,28.26,0,0,0,28.31,28.31H280.41a28.27,28.27,0,0,0,28.31-28.31V128.22A28.26,28.26,0,0,0,280.41,99.91Zm9.35,191.84a9.5,9.5,0,0,1-9.35,9.36H120.16a9.5,9.5,0,0,1-9.36-9.36V152.48h179Z"/><path class="cls-2" d="M141.39,201h21.23a4.53,4.53,0,0,0,4.55-4.55V182.31a4.53,4.53,0,0,0-4.55-4.55H141.39a4.53,4.53,0,0,0-4.55,4.55v14.15A4.53,4.53,0,0,0,141.39,201Z"/><path class="cls-2" d="M189.67,201H210.9a4.53,4.53,0,0,0,4.55-4.55V182.31a4.53,4.53,0,0,0-4.55-4.55H189.67a4.53,4.53,0,0,0-4.55,4.55v14.15A4.53,4.53,0,0,0,189.67,201Z"/><path class="cls-2" d="M237.94,201h21.24a4.53,4.53,0,0,0,4.55-4.55V182.31a4.53,4.53,0,0,0-4.55-4.55H237.94a4.53,4.53,0,0,0-4.55,4.55v14.15A4.53,4.53,0,0,0,237.94,201Z"/><path class="cls-2" d="M141.39,237.91h21.23a4.53,4.53,0,0,0,4.55-4.55V219.21a4.53,4.53,0,0,0-4.55-4.55H141.39a4.53,4.53,0,0,0-4.55,4.55v14.15A4.53,4.53,0,0,0,141.39,237.91Z"/><path class="cls-2" d="M189.67,237.91H210.9a4.53,4.53,0,0,0,4.55-4.55V219.21a4.53,4.53,0,0,0-4.55-4.55H189.67a4.53,4.53,0,0,0-4.55,4.55v14.15A4.53,4.53,0,0,0,189.67,237.91Z"/><path class="cls-2" d="M237.94,237.91h21.24a4.53,4.53,0,0,0,4.55-4.55V219.21a4.53,4.53,0,0,0-4.55-4.55H237.94a4.53,4.53,0,0,0-4.55,4.55v14.15A4.53,4.53,0,0,0,237.94,237.91Z"/><path class="cls-2" d="M141.39,275.07h21.23a4.53,4.53,0,0,0,4.55-4.55V256.37a4.53,4.53,0,0,0-4.55-4.55H141.39a4.53,4.53,0,0,0-4.55,4.55v14.15A4.53,4.53,0,0,0,141.39,275.07Z"/><path class="cls-2" d="M189.67,275.07H210.9a4.53,4.53,0,0,0,4.55-4.55V256.37a4.53,4.53,0,0,0-4.55-4.55H189.67a4.53,4.53,0,0,0-4.55,4.55v14.15A4.53,4.53,0,0,0,189.67,275.07Z"/></svg>