<?xml version="1.0" encoding="utf-8"?>
<!-- Generator: Adobe Illustrator 15.0.0, SVG Export Plug-In . SVG Version: 6.00 Build 0)  -->
<!DOCTYPE svg PUBLIC "-//W3C//DTD SVG 1.1//EN" "http://www.w3.org/Graphics/SVG/1.1/DTD/svg11.dtd">
<svg version="1.1" id="Ebene_1" xmlns="http://www.w3.org/2000/svg" xmlns:xlink="http://www.w3.org/1999/xlink" x="0px" y="0px"
	 width="595.28px" height="841.89px" viewBox="0 0 595.28 841.89" enable-background="new 0 0 595.28 841.89" xml:space="preserve">
<g>
	<path fill="#29305F" d="M254,328.167c0,2.566-2.08,4.646-4.646,4.646h-22.708c-2.566,0-4.646-2.08-4.646-4.646v-22.708
		c0-2.566,2.08-4.646,4.646-4.646h22.708c2.566,0,4.646,2.08,4.646,4.646V328.167z"/>
	<g>
		<path fill="#FFFFFF" d="M238,307.862c0,0-4.978-0.164-6.004,5.357v3.76c0,0,0.042,0.404,1.174,1.222
			c1.133,0.817,4.063,3.118,4.83,3.118s3.698-2.301,4.83-3.118c1.132-0.818,1.174-1.222,1.174-1.222v-3.76
			C242.978,307.699,238,307.862,238,307.862 M241.408,315.271H238h-3.408v-2.051c0.691-2.741,3.408-2.779,3.408-2.779
			s2.717,0.038,3.408,2.779V315.271z"/>
		<path fill="#FFFFFF" d="M238,322.167c0,0-0.771-0.075-1.375-0.494c-0.604-0.42-4.629-3.295-4.629-3.295v5.692
			c0,0,0.034,0.663,0.764,0.663H238h5.24c0.73,0,0.764-0.663,0.764-0.663v-5.692c0,0-4.025,2.875-4.629,3.295
			C238.771,322.092,238,322.167,238,322.167"/>
	</g>
</g>
</svg>
