<?xml version="1.0" encoding="utf-8"?>
<!-- Generator: Adobe Illustrator 15.0.0, SVG Export Plug-In . SVG Version: 6.00 Build 0)  -->
<!DOCTYPE svg PUBLIC "-//W3C//DTD SVG 1.1//EN" "http://www.w3.org/Graphics/SVG/1.1/DTD/svg11.dtd">
<svg version="1.1" id="Ebene_1" xmlns="http://www.w3.org/2000/svg" xmlns:xlink="http://www.w3.org/1999/xlink" x="0px" y="0px"
	 width="595.28px" height="841.89px" viewBox="0 0 595.28 841.89" enable-background="new 0 0 595.28 841.89" xml:space="preserve">
<g>
	<path fill="#29305F" d="M274,342.36c0,5.773-4.68,10.453-10.454,10.453h-51.093c-5.773,0-10.454-4.68-10.454-10.453v-51.093
		c0-5.773,4.68-10.454,10.454-10.454h51.093c5.773,0,10.454,4.68,10.454,10.454V342.36z"/>
	<g>
		<path fill="#FFFFFF" d="M238,296.673c0,0-11.201-0.368-13.509,12.054v8.461c0,0,0.093,0.909,2.641,2.749
			c2.549,1.838,9.141,7.016,10.868,7.016s8.32-5.178,10.868-7.016c2.548-1.84,2.641-2.749,2.641-2.749v-8.461
			C249.201,296.306,238,296.673,238,296.673 M245.668,313.342H238h-7.668v-4.614c1.556-6.167,7.668-6.252,7.668-6.252
			s6.113,0.086,7.668,6.252V313.342z"/>
		<path fill="#FFFFFF" d="M238,328.859c0,0-1.735-0.168-3.094-1.112c-1.358-0.945-10.415-7.415-10.415-7.415v12.808
			c0,0,0.076,1.492,1.719,1.492H238h11.791c1.642,0,1.718-1.492,1.718-1.492v-12.808c0,0-9.057,6.47-10.415,7.415
			C239.736,328.691,238,328.859,238,328.859"/>
	</g>
</g>
</svg>
