<?xml version="1.0" encoding="utf-8"?>
<!-- Generator: Adobe Illustrator 15.0.0, SVG Export Plug-In . SVG Version: 6.00 Build 0)  -->
<!DOCTYPE svg PUBLIC "-//W3C//DTD SVG 1.1//EN" "http://www.w3.org/Graphics/SVG/1.1/DTD/svg11.dtd">
<svg version="1.1" id="Ebene_1" xmlns="http://www.w3.org/2000/svg" xmlns:xlink="http://www.w3.org/1999/xlink" x="0px" y="0px"
	 width="595.28px" height="841.89px" viewBox="0 0 595.28 841.89" enable-background="new 0 0 595.28 841.89" xml:space="preserve">
<g>
	<path fill="#29305F" d="M250,325.329c0,1.924-1.56,3.484-3.484,3.484h-17.031c-1.924,0-3.484-1.56-3.484-3.484v-17.031
		c0-1.924,1.56-3.484,3.484-3.484h17.031c1.924,0,3.484,1.56,3.484,3.484V325.329z"/>
	<g>
		<path fill="#FFFFFF" d="M238,310.1c0,0-3.733-0.123-4.503,4.018v2.82c0,0,0.031,0.303,0.88,0.916
			c0.85,0.613,3.047,2.339,3.623,2.339s2.773-1.726,3.623-2.339c0.849-0.613,0.88-0.916,0.88-0.916v-2.82
			C241.733,309.978,238,310.1,238,310.1 M240.556,315.656H238h-2.556v-1.538c0.519-2.056,2.556-2.084,2.556-2.084
			s2.038,0.028,2.556,2.084V315.656z"/>
		<path fill="#FFFFFF" d="M238,320.829c0,0-0.579-0.056-1.031-0.371c-0.453-0.315-3.472-2.472-3.472-2.472v4.27
			c0,0,0.025,0.497,0.573,0.497H238h3.93c0.547,0,0.573-0.497,0.573-0.497v-4.27c0,0-3.019,2.157-3.472,2.472
			C238.579,320.772,238,320.829,238,320.829"/>
	</g>
</g>
</svg>
