<?xml version="1.0" encoding="utf-8"?>
<!-- Generator: Adobe Illustrator 15.0.0, SVG Export Plug-In . SVG Version: 6.00 Build 0)  -->
<!DOCTYPE svg PUBLIC "-//W3C//DTD SVG 1.1//EN" "http://www.w3.org/Graphics/SVG/1.1/DTD/svg11.dtd">
<svg version="1.1" id="Ebene_1" xmlns="http://www.w3.org/2000/svg" xmlns:xlink="http://www.w3.org/1999/xlink" x="0px" y="0px"
	 width="595.28px" height="841.89px" viewBox="0 0 595.28 841.89" enable-background="new 0 0 595.28 841.89" xml:space="preserve">
<g>
	<path fill="#29305F" d="M302,362.23c0,10.263-8.32,18.583-18.584,18.583h-90.832c-10.264,0-18.584-8.32-18.584-18.583v-90.833
		c0-10.264,8.32-18.584,18.584-18.584h90.832c10.264,0,18.584,8.32,18.584,18.584V362.23z"/>
	<g>
		<path fill="#FFFFFF" d="M238,281.009c0,0-19.912-0.654-24.015,21.43v15.042c0,0,0.166,1.615,4.695,4.886
			c4.531,3.268,16.25,12.473,19.32,12.473s14.791-9.205,19.32-12.473c4.529-3.271,4.695-4.886,4.695-4.886v-15.042
			C257.912,280.355,238,281.009,238,281.009 M251.633,310.641H238h-13.633v-8.203C227.133,291.476,238,291.323,238,291.323
			s10.867,0.152,13.633,11.115V310.641z"/>
		<path fill="#FFFFFF" d="M238,338.228c0,0-3.085-0.299-5.5-1.977c-2.414-1.68-18.515-13.182-18.515-13.182v22.77
			c0,0,0.135,2.652,3.055,2.652H238h20.961c2.919,0,3.054-2.652,3.054-2.652v-22.77c0,0-16.101,11.502-18.515,13.182
			C241.086,337.929,238,338.228,238,338.228"/>
	</g>
</g>
</svg>
