<?xml version="1.0" encoding="utf-8"?>
<!-- Generator: Adobe Illustrator 15.0.0, SVG Export Plug-In . SVG Version: 6.00 Build 0)  -->
<!DOCTYPE svg PUBLIC "-//W3C//DTD SVG 1.1//EN" "http://www.w3.org/Graphics/SVG/1.1/DTD/svg11.dtd">
<svg version="1.1" id="Ebene_1" xmlns="http://www.w3.org/2000/svg" xmlns:xlink="http://www.w3.org/1999/xlink" x="0px" y="0px"
	 width="595.28px" height="841.89px" viewBox="0 0 595.28 841.89" enable-background="new 0 0 595.28 841.89" xml:space="preserve">
<g>
	<path fill="#29305F" d="M335.5,386.003c0,15.635-12.676,28.311-28.312,28.311H168.812c-15.636,0-28.312-12.675-28.312-28.311
		V247.625c0-15.636,12.675-28.312,28.312-28.312h138.377c15.636,0,28.312,12.675,28.312,28.312V386.003z"/>
	<g>
		<path fill="#FFFFFF" d="M238,262.267c0,0-30.335-0.996-36.585,32.647v22.915c0,0,0.252,2.46,7.152,7.443
			c6.903,4.978,24.756,19.001,29.433,19.001s22.533-14.023,29.433-19.001c6.9-4.983,7.152-7.443,7.152-7.443v-22.915
			C268.335,261.271,238,262.267,238,262.267 M258.769,307.41H238h-20.769v-12.496C221.444,278.213,238,277.98,238,277.98
			s16.556,0.232,20.769,16.934V307.41z"/>
		<path fill="#FFFFFF" d="M238,349.437c0,0-4.701-0.456-8.379-3.012c-3.678-2.559-28.207-20.082-28.207-20.082v34.688
			c0,0,0.205,4.041,4.653,4.041H238h31.933c4.448,0,4.653-4.041,4.653-4.041v-34.688c0,0-24.528,17.523-28.207,20.082
			C242.701,348.981,238,349.437,238,349.437"/>
	</g>
</g>
</svg>
