<?xml version="1.0" encoding="utf-8"?>
<!-- Generator: Adobe Illustrator 15.0.0, SVG Export Plug-In . SVG Version: 6.00 Build 0)  -->
<!DOCTYPE svg PUBLIC "-//W3C//DTD SVG 1.1//EN" "http://www.w3.org/Graphics/SVG/1.1/DTD/svg11.dtd">
<svg version="1.1" id="Ebene_1" xmlns="http://www.w3.org/2000/svg" xmlns:xlink="http://www.w3.org/1999/xlink" x="0px" y="0px"
	 width="595.28px" height="841.89px" viewBox="0 0 595.28 841.89" enable-background="new 0 0 595.28 841.89" xml:space="preserve">
<g>
	<path fill="#29305F" d="M295,357.263c0,9.141-7.41,16.551-16.551,16.551h-80.897c-9.141,0-16.551-7.41-16.551-16.551v-80.898
		c0-9.141,7.41-16.551,16.551-16.551h80.897c9.141,0,16.551,7.41,16.551,16.551V357.263z"/>
	<g>
		<path fill="#FFFFFF" d="M238,284.925c0,0-17.734-0.582-21.389,19.086v13.396c0,0,0.147,1.438,4.182,4.352
			c4.036,2.91,14.473,11.108,17.207,11.108s13.173-8.198,17.207-11.108c4.034-2.913,4.182-4.352,4.182-4.352v-13.396
			C255.734,284.343,238,284.925,238,284.925 M250.142,311.316H238h-12.142v-7.306c2.463-9.764,12.142-9.899,12.142-9.899
			s9.679,0.136,12.142,9.899V311.316z"/>
		<path fill="#FFFFFF" d="M238,335.886c0,0-2.748-0.267-4.898-1.761c-2.15-1.496-16.49-11.74-16.49-11.74v20.279
			c0,0,0.12,2.362,2.721,2.362H238h18.668c2.6,0,2.72-2.362,2.72-2.362v-20.279c0,0-14.34,10.244-16.49,11.74
			C240.749,335.619,238,335.886,238,335.886"/>
	</g>
</g>
</svg>
