<?xml version="1.0" encoding="utf-8"?>
<!-- Generator: Adobe Illustrator 15.0.0, SVG Export Plug-In . SVG Version: 6.00 Build 0)  -->
<!DOCTYPE svg PUBLIC "-//W3C//DTD SVG 1.1//EN" "http://www.w3.org/Graphics/SVG/1.1/DTD/svg11.dtd">
<svg version="1.1" id="Ebene_1" xmlns="http://www.w3.org/2000/svg" xmlns:xlink="http://www.w3.org/1999/xlink" x="0px" y="0px"
	 width="595.28px" height="841.89px" viewBox="0 0 595.28 841.89" enable-background="new 0 0 595.28 841.89" xml:space="preserve">
<g>
	<path fill="#29305F" d="M246,322.491c0,1.283-1.04,2.323-2.323,2.323h-11.354c-1.283,0-2.323-1.04-2.323-2.323v-11.354
		c0-1.283,1.04-2.323,2.323-2.323h11.354c1.283,0,2.323,1.04,2.323,2.323V322.491z"/>
	<g>
		<path fill="#FFFFFF" d="M238,312.338c0,0-2.489-0.082-3.002,2.679v1.88c0,0,0.021,0.202,0.587,0.61
			c0.566,0.409,2.031,1.56,2.415,1.56s1.849-1.151,2.415-1.56s0.587-0.61,0.587-0.61v-1.88C240.489,312.256,238,312.338,238,312.338
			 M239.704,316.042H238h-1.704v-1.025c0.346-1.371,1.704-1.389,1.704-1.389s1.358,0.019,1.704,1.389V316.042z"/>
		<path fill="#FFFFFF" d="M238,319.49c0,0-0.386-0.038-0.688-0.247c-0.302-0.21-2.314-1.648-2.314-1.648v2.847
			c0,0,0.017,0.331,0.382,0.331H238h2.62c0.365,0,0.382-0.331,0.382-0.331v-2.847c0,0-2.013,1.438-2.314,1.648
			C238.386,319.453,238,319.49,238,319.49"/>
	</g>
</g>
</svg>
