<?xml version="1.0" encoding="utf-8"?>
<!-- Generator: Adobe Illustrator 15.0.0, SVG Export Plug-In . SVG Version: 6.00 Build 0)  -->
<!DOCTYPE svg PUBLIC "-//W3C//DTD SVG 1.1//EN" "http://www.w3.org/Graphics/SVG/1.1/DTD/svg11.dtd">
<svg version="1.1" id="Ebene_1" xmlns="http://www.w3.org/2000/svg" xmlns:xlink="http://www.w3.org/1999/xlink" x="0px" y="0px"
	 width="595.28px" height="841.89px" viewBox="0 0 595.28 841.89" enable-background="new 0 0 595.28 841.89" xml:space="preserve">
<g>
	<path fill="#29305F" d="M286,350.876c0,7.697-6.24,13.938-13.938,13.938h-68.124c-7.698,0-13.938-6.24-13.938-13.938v-68.125
		c0-7.698,6.24-13.938,13.938-13.938h68.124c7.698,0,13.938,6.24,13.938,13.938V350.876z"/>
	<g>
		<path fill="#FFFFFF" d="M238,289.96c0,0-14.934-0.49-18.012,16.072v11.281c0,0,0.125,1.211,3.521,3.665
			c3.398,2.451,12.188,9.354,14.49,9.354s11.093-6.904,14.49-9.354c3.397-2.453,3.521-3.665,3.521-3.665v-11.281
			C252.934,289.47,238,289.96,238,289.96 M248.225,312.185H238h-10.225v-6.152c2.074-8.222,10.225-8.336,10.225-8.336
			s8.15,0.114,10.225,8.336V312.185z"/>
		<path fill="#FFFFFF" d="M238,332.875c0,0-2.314-0.225-4.125-1.483c-1.811-1.26-13.887-9.887-13.887-9.887v17.078
			c0,0,0.102,1.989,2.292,1.989H238h15.721c2.189,0,2.291-1.989,2.291-1.989v-17.078c0,0-12.076,8.627-13.887,9.887
			C240.314,332.65,238,332.875,238,332.875"/>
	</g>
</g>
</svg>
