<svg id="Layer_1" data-name="Layer 1" xmlns="http://www.w3.org/2000/svg" viewBox="0 0 400 400"><defs><style>.cls-1{fill:#262a33;}.cls-2{fill:#fff;}</style></defs><title>Artboard 2 copy</title><rect class="cls-1" x="-0.01" y="0.08" width="400" height="400" rx="70"/><g id="Logo"><g id="ProtonMail_Logo" data-name="ProtonMail Logo"><path id="Bottom" class="cls-2" d="M200,319.68c-5.17,0-15.94-1.54-28.28-10.09s-94.63-67.18-94.63-67.18V358.63c0,3.69,0,13.53,13.52,13.53H309.37c13.52,0,13.52-9.84,13.52-13.53V242.41s-82.29,58.64-94.64,67.18S205.15,319.68,200,319.68Z"/><path id="Top" class="cls-2" d="M200,28S77.08,24.94,77.08,137.4v75.22c0,8.23.86,9.54,24,26.21C171.83,291,184.28,302.1,200,302.1s28.15-11.07,98.87-63.27c23.18-16.67,24-18,24-26.17V137.4C322.89,24.94,200,28,200,28ZM270,186H129.93V138.63c0-55.31,66.37-58,70-58s70.06,2.71,70.06,58Z"/></g></g></svg>