<svg xmlns="http://www.w3.org/2000/svg" xmlns:xlink="http://www.w3.org/1999/xlink" viewBox="0 0 71 71" enable-background="new 0 0 71 71"><style type="text/css">.st0{clip-path:url(#SVGID_2_);} .st1{fill-rule:evenodd;clip-rule:evenodd;fill:#5BA4DA;} .st2{fill-rule:evenodd;clip-rule:evenodd;fill:#F1F0F0;} .st3{fill-rule:evenodd;clip-rule:evenodd;fill:#FFC809;stroke:#85361B;stroke-width:0.1402;stroke-miterlimit:2.4142;} .st4{fill-rule:evenodd;clip-rule:evenodd;fill:#85361B;} .st5{fill-rule:evenodd;clip-rule:evenodd;fill:#FFC809;stroke:#85361B;stroke-width:0.2336;stroke-miterlimit:2.4142;}</style><defs><path id="SVGID_1_" d="M71 35.5c0 19.6-15.9 35.5-35.5 35.5s-35.5-15.9-35.5-35.5 15.9-35.5 35.5-35.5 35.5 15.9 35.5 35.5z"/></defs><clipPath id="SVGID_2_"><use href="#SVGID_1_" overflow="visible"/></clipPath><g class="st0"><path class="st1" d="M-17.7 0h106.4v23.7h-106.4v-23.7zm106.4 47.3v23.7h-106.4v-23.7h106.4z"/><path class="st2" d="M-17.7 23.7h106.4v23.6h-106.4v-23.6z"/><path class="st3" d="M35.6 26.6l.1 3.1.1 3v.2h-.6v-.1l.1-3.1.1-3.1v-.1h.1s.1 0 .1.1z"/><path class="st4" d="M35.5 29.4v1.5l.1 1.4h-.2l.1-1.4v-1.5z"/><path class="st3" d="M35.7 32.2c.2-.4.3-.5.3-.9s0-.7.1-1.1c.1-.5.5-.9.5-1.4.1-.5.1-.9.1-1.2 0-.3.2-.8.5-.9.2-.1.2 0 .1.1s-.2.2-.2.7c0 .4.1.6.1 1.1-.1.5-.3 1-.4 1.2-.1.2-.2 1-.2 1.3 0 .3-.1.9-.1 1-.1.3-.8.1-.8.1z"/><path class="st4" d="M36.1 32.2s.2-.6.2-.9c0-.4 0-.8.1-1.1.1-.3.3-.5.3-.5s-.1.3-.2.5c0 .2-.1.8-.1 1.1 0 .2-.1 1-.1 1l-.2-.1z"/><path class="st3" d="M32.2 27.2l1.3 2.8 1.3 2.8v.1l-.2.1-.2.1h-.1s-.1 0-.1-.1l-1.2-2.8-1-2.9v-.1s0-.1.1-.1l.1.1z"/><path class="st4" d="M33.2 29.9l.6 1.3.6 1.3-.1.1h-.1l-.5-1.4-.5-1.3z"/><path class="st3" d="M34.4 32.4c.1-.5.1-.6 0-1s-.2-.6-.3-1.1v-1.5c-.1-.5-.3-.8-.4-1.1-.1-.3-.1-.8.1-1 .2-.2.2-.1.1.1 0 .2-.1.3 0 .7.2.4.3.5.5 1s0 1 .1 1.3c0 .3.2 1 .4 1.3.1.3.3.9.3 1 0 .1-.8.3-.8.3z"/><path class="st4" d="M34.7 32.2s-.1-.6-.2-1-.3-.8-.3-1.1v-.6.6c0 .2.3.8.4 1 .1.2.3.9.3.9l-.2.2z"/><path class="st3" d="M29.3 29.1l2.2 2.1 2.2 2.1v.2l-.2.2-.2.2h-.2l-2.1-2.2-2.1-2.2v-.2c.2-.2.3-.2.4-.2z"/><path class="st4" d="M31.2 31.2l1.1 1 1 1v.1h-.1l-1-1-1-1.1z"/><path class="st3" d="M33.3 33.1c-.1-.4-.1-.6-.4-.9-.3-.3-.4-.5-.7-.9l-.6-1.4c-.3-.4-.6-.7-.8-.9-.2-.2-.4-.7-.3-.9.1-.2.2-.1.2 0 0 .2 0 .3.3.6s.5.3.9.8c.4.4.4.9.6 1.2.1.2.6.8.8 1.1.2.2.6.7.7.8-.1 0-.7.5-.7.5z"/><path class="st4" d="M33.5 32.8s-.3-.5-.5-.8c-.2-.3-.6-.6-.7-.9-.1-.2-.2-.5-.2-.5s.1.3.2.5l.7.8c.2.2.6.8.6.8l-.1.1z"/><path class="st3" d="M27.3 32l2.9 1.1 2.8 1.1s.1 0 .1.1v.2l-.1.2s0 .1-.1.1h-.1l-2.8-1.3-2.8-1.3s-.1 0-.1-.1v-.1h.2z"/><path class="st4" d="M29.9 33.2l1.3.5 1.4.5v.1l-.1.1-1.3-.6-1.3-.6z"/><path class="st3" d="M32.6 34.1c-.3-.4-.3-.5-.7-.7l-1-.5c-.4-.3-.7-.8-1.1-1-.4-.3-.8-.4-1.1-.5-.3-.1-.6-.5-.6-.8 0-.2.1-.2.2 0s.1.3.5.5c.4.1.6.1 1.1.4.5.3.8.7 1 .9.2.2.9.6 1.2.7.3.1.8.4.9.5 0-.2-.4.5-.4.5z"/><path class="st4" d="M32.6 33.7s-.5-.4-.8-.6c-.3-.2-.8-.3-1-.5l-.4-.4.4.4 1 .5c.2.1.8.5.8.5v.1z"/><path class="st3" d="M26.6 35.4l3.1-.1 3-.1h.2v.6h-.1l-3.1-.1-3.1-.1h-.1v-.1s0-.1.1-.1z"/><path class="st4" d="M29.4 35.5h1.5l1.4-.1v.2l-1.4-.1h-1.5z"/><path class="st3" d="M32.2 35.3c-.4-.2-.5-.3-.9-.3s-.7 0-1.1-.1c-.5-.1-.9-.5-1.4-.5-.5-.1-.9-.1-1.2-.1-.3 0-.8-.2-.9-.5-.1-.2 0-.2.1-.1s.2.2.7.2c.4 0 .6-.1 1.1-.1.5.1 1 .3 1.2.4.2.1 1 .2 1.3.2.3 0 .9.1 1 .1.3.1.1.8.1.8z"/><path class="st4" d="M32.2 34.9s-.6-.2-.9-.2c-.4 0-.8 0-1.1-.1-.3-.1-.5-.3-.5-.3s.3.1.5.2c.2 0 .8.1 1.1.1.2 0 1 .1 1 .1l-.1.2z"/><path class="st3" d="M27.2 38.8l2.8-1.3 2.8-1.3h.1l.1.2.1.2v.1s0 .1-.1.1l-2.8 1.2-2.9 1h-.1s-.1 0-.1-.1l.1-.1z"/><path class="st4" d="M29.9 37.8l1.3-.6 1.3-.6.1.1v.1l-1.4.5-1.3.5z"/><path class="st3" d="M32.4 36.6c-.5-.1-.6-.1-1 0s-.6.2-1.1.3h-1.5c-.5.1-.8.3-1.1.4-.3.1-.8.1-1-.1-.2-.2-.1-.2.1-.1.2 0 .3.1.7 0 .4-.2.5-.3 1-.5s1 0 1.3-.1c.3 0 1-.2 1.3-.4.3-.1.9-.3 1-.3.1 0 .3.8.3.8z"/><path class="st4" d="M32.2 36.3s-.6.1-1 .2-.8.3-1.1.3h-.6.6c.2 0 .8-.3 1-.4.2-.1.9-.3.9-.3l.2.2z"/><path class="st3" d="M29.1 41.7l2.1-2.2 2.1-2.2h.2l.1.2.1.2v.2l-2.2 2.1-2.2 2.1h-.2v-.4z"/><path class="st4" d="M31.2 39.8l1-1.1 1-1h.1v.1l-1 1-1.1 1z"/><path class="st3" d="M33.1 37.7c-.4.1-.6.1-.9.4-.3.3-.5.4-.9.7l-1.4.6c-.4.3-.7.6-.9.8-.2.2-.7.4-.9.3-.2-.1-.1-.2 0-.2.2 0 .3 0 .6-.3s.3-.5.8-.9c.4-.4.9-.4 1.2-.6.2-.1.8-.6 1.1-.8.2-.2.7-.6.8-.7 0 .1.5.7.5.7z"/><path class="st4" d="M32.8 37.5s-.5.3-.8.5c-.3.2-.6.6-.9.7-.2.1-.5.2-.5.2s.3-.1.5-.2l.8-.7c.2-.2.8-.6.8-.6l.1.1z"/><path class="st3" d="M32 43.7l1.1-2.9 1.1-2.8s0-.1.1-.1h.2l.2.1.2.1s.1 0 .1.1v.1l-1.5 2.7-1.3 2.8s0 .1-.1.1h-.1v-.2z"/><path class="st4" d="M33.2 41.1l.5-1.3.5-1.4h.1l.1.1-.6 1.3-.6 1.3z"/><path class="st3" d="M34.1 38.4c-.4.3-.5.3-.7.7l-.5 1c-.3.4-.8.7-1 1.1-.3.4-.4.8-.5 1.1-.1.3-.5.6-.8.6-.2 0-.2-.1 0-.2s.3-.1.5-.5c.1-.4.1-.6.4-1.1.3-.5.7-.8.9-1 .2-.2.6-.9.7-1.2.1-.3.4-.8.5-.9-.2 0 .5.4.5.4z"/><path class="st4" d="M33.7 38.4s-.4.5-.6.8c-.2.3-.3.8-.5 1l-.4.4.4-.4.5-1c.1-.2.5-.8.5-.8h.1z"/><path class="st3" d="M35.4 44.4l-.1-3.1-.1-3v-.2h.6v.1l-.1 3.1-.1 3.1v.1h-.1s-.1 0-.1-.1z"/><path class="st4" d="M35.5 41.6v-1.5l-.1-1.4h.2l-.1 1.4v1.5z"/><path class="st3" d="M35.3 38.8c-.2.4-.3.5-.3.9s0 .7-.1 1.1c-.1.5-.5.9-.5 1.4-.1.5-.1.9-.1 1.2 0 .3-.2.8-.5.9-.2.1-.2 0-.1-.1s.2-.2.2-.7c0-.4-.1-.6-.1-1.1.1-.5.3-1 .4-1.2.1-.3.2-1 .2-1.3 0-.3.1-.9.1-1 .1-.3.8-.1.8-.1z"/><path class="st4" d="M34.9 38.8s-.2.6-.2.9c0 .4 0 .8-.1 1.1-.1.3-.3.5-.3.5s.1-.3.2-.5c0-.2.1-.8.1-1.1 0-.2.1-1 .1-1l.2.1z"/><path class="st3" d="M38.8 43.8l-1.3-2.8-1.3-2.8v-.1l.2-.1.2-.1h.1s.1 0 .1.1l1.1 2.9 1.1 2.9v.1s0 .1-.1.1c0-.1 0-.1-.1-.2z"/><path class="st4" d="M37.8 41.1l-.6-1.3-.6-1.3.1-.1h.1l.5 1.4.5 1.3z"/><path class="st3" d="M36.6 38.6c-.1.5-.1.6 0 1s.2.6.3 1.1v1.5c.1.5.3.8.4 1.1.1.3.1.8-.1 1-.2.2-.2.1-.1-.1 0-.2.1-.3 0-.7-.2-.4-.3-.5-.5-1s0-1-.1-1.3c0-.3-.2-1-.4-1.3-.1-.3-.3-.9-.3-1 0-.1.8-.3.8-.3z"/><path class="st4" d="M36.3 38.8s.1.6.2 1 .3.8.3 1.1v.6-.6c0-.2-.3-.8-.4-1-.1-.2-.3-.9-.3-.9l.2-.2z"/><path class="st3" d="M41.7 41.9l-2.3-2.1-2.2-2.1v-.2l.1-.1.1-.2h.2l2.1 2.2 2.1 2.2v.2c.1.1 0 .1-.1.1z"/><path class="st4" d="M39.8 39.8l-1.1-1-1-1v-.1h.1l1 1 1 1.1z"/><path class="st3" d="M37.7 37.9c.1.4.1.6.4.9.3.3.4.5.7.9l.6 1.4c.3.4.6.7.8.9.2.2.4.7.3.9-.1.2-.2.1-.2 0 0-.2 0-.3-.3-.6s-.5-.3-.9-.8c-.4-.4-.4-.9-.6-1.2-.1-.2-.6-.9-.8-1.1-.2-.2-.6-.7-.7-.8.1 0 .7-.5.7-.5z"/><path class="st4" d="M37.5 38.2s.3.5.5.8c.2.3.6.6.7.9.1.2.2.5.2.5s-.1-.3-.2-.5l-.7-.8c-.2-.2-.6-.8-.6-.8l.1-.1z"/><path class="st3" d="M43.7 39l-2.9-1.1-2.8-1s-.1 0-.1-.1v-.1l.1-.2.1-.2s0-.1.1-.1h.1l2.8 1.3 2.8 1.3s.1 0 .1.1v.1h-.3z"/><path class="st4" d="M41.1 37.8l-1.3-.5-1.4-.5v-.1l.1-.1 1.3.6 1.3.6z"/><path class="st3" d="M38.4 36.9c.3.4.3.5.7.7l1 .5c.4.3.7.8 1.1 1 .4.3.8.4 1.1.5.3.1.6.5.6.8 0 .2-.1.2-.2 0s-.1-.3-.5-.5c-.4-.1-.6-.1-1.1-.4-.5-.3-.8-.7-1-.9-.2-.2-.9-.6-1.2-.7-.3-.1-.8-.4-.9-.5 0 .2.4-.5.4-.5z"/><path class="st4" d="M38.4 37.3s.5.4.8.6c.3.2.8.3 1 .5l.4.4-.4-.4-1-.5c-.2-.1-.8-.5-.8-.5v-.1z"/><path class="st3" d="M44.4 35.6l-3.1.1-3 .1h-.2v-.6h.1l3.1.1 3.1.1h.1v.1s0 .1-.1.1z"/><path class="st4" d="M41.6 35.5h-1.5l-1.4.1v-.2l1.4.1h1.5z"/><path class="st3" d="M38.8 35.7c.4.2.5.3.9.3s.7 0 1.1.1c.5.1.9.5 1.4.5.5.1.9.1 1.2.1.3 0 .8.2.9.5.1.2 0 .2-.1.1s-.2-.2-.7-.2c-.4 0-.6.1-1.1.1-.5-.1-1-.3-1.2-.4-.2-.1-1-.2-1.3-.2-.3 0-.9-.1-1-.1-.3-.1-.1-.8-.1-.8z"/><path class="st4" d="M38.8 36.1s.6.2.9.2c.4 0 .8 0 1.1.1.3.1.5.3.5.3s-.3-.1-.5-.2c-.2 0-.8-.1-1.1-.1-.2 0-1-.1-1-.1l.1-.2z"/><path class="st3" d="M43.8 32.2l-2.8 1.3-2.8 1.3h-.1l-.1-.2-.1-.2v-.1s0-.1.1-.1l2.9-1.1 2.9-1.1h.1s.1 0 .1.1c-.1 0-.1 0-.2.1z"/><path class="st4" d="M41.1 33.2l-1.3.6-1.4.6v-.2l1.4-.5 1.3-.5z"/><path class="st3" d="M38.6 34.4c.5.1.6.1 1 0s.6-.2 1.1-.3h1.5c.5-.1.8-.3 1.1-.4.3-.1.8-.1 1 .1.2.2.1.2-.1.1-.2 0-.3-.1-.7 0-.4.2-.5.3-1 .5s-1 0-1.3.1c-.3 0-1 .2-1.3.4-.3.1-.9.3-1 .3-.1 0-.3-.8-.3-.8z"/><path class="st4" d="M38.8 34.7s.6-.1 1-.2.8-.3 1.1-.3h.6-.6c-.2 0-.8.3-1 .4-.2.1-.9.3-.9.3l-.2-.2z"/><path class="st3" d="M41.9 29.3l-2.1 2.2-2.1 2.2h-.2l-.2-.1-.2-.1v-.2l2.2-2.1 2.2-2.1h.2c.2 0 .2.1.2.2z"/><path class="st4" d="M39.8 31.2l-1 1.1-1 1h-.1v-.1l1-1 1.1-1z"/><path class="st3" d="M37.9 33.3c.4-.1.6-.1.9-.4.3-.3.5-.4.9-.7l1.4-.6c.4-.3.7-.6.9-.8.2-.2.7-.4.9-.3.2.1.1.2 0 .2-.2 0-.3 0-.6.3s-.3.5-.8.9c-.4.3-.9.4-1.2.6-.2.1-.9.6-1.1.8-.2.2-.7.6-.8.7 0-.1-.5-.7-.5-.7z"/><path class="st4" d="M38.2 33.6s.5-.3.8-.5c.3-.2.6-.6.9-.7.2-.1.5-.2.5-.2s-.3.1-.5.2l-.8.7c-.2.2-.8.6-.8.6l-.1-.1z"/><path class="st3" d="M39 27.3l-1.1 2.9-1 2.8s0 .1-.1.1h-.2l-.2-.1h-.1s-.1 0-.1-.1v-.1l1.3-2.8 1.3-2.8s0-.1.1-.1h.1v.2z"/><path class="st4" d="M37.8 29.9l-.5 1.3-.5 1.4h-.1l-.1-.1.6-1.3.6-1.3z"/><path class="st3" d="M36.9 32.6c.4-.3.5-.3.7-.7l.5-1c.3-.4.8-.7 1-1.1.3-.4.4-.8.5-1.1.1-.3.5-.6.8-.6.2 0 .2.1 0 .2s-.3.1-.5.5c-.1.4-.1.6-.4 1.1-.3.5-.7.8-.9 1-.2.2-.6.9-.7 1.2-.1.3-.4.8-.5.9.2 0-.5-.4-.5-.4z"/><path class="st4" d="M37.3 32.6s.4-.5.6-.8c.2-.3.3-.8.5-1l.4-.4-.4.4-.5 1c-.1.2-.5.8-.5.8h-.1z"/><path class="st5" d="M35.5 31.8c2 0 3.7 1.6 3.7 3.7 0 2-1.6 3.7-3.7 3.7-2 0-3.7-1.6-3.7-3.7 0-2 1.7-3.7 3.7-3.7z"/><path class="st4" d="M35.7 35.1c0 .3.3.7.3.7v.1h-.1c-.1-.1-.3-.4-.2-.8-.1-.4.1-.8.1-.8.3-.2.7-.3 1.1-.3.4 0 .7.2.9.6v.1h-.1s-.9-.8-1.8-.2c-.1.1-.2.1-.2.3v.3zm-.2 2.5c.1 0 .3.1.3.1.1.1.1.2.1.3v.1-.1c0-.1-.1-.2-.2-.3.1 0-.1 0-.2-.1l-.3.2-.2.3v.1-.1c0-.1.1-.3.1-.3.2-.2.3-.2.4-.2zm-.6-.5h1.3-.1-.2-.1-.2-.2-.1-.4zm.2.2c-.1-.1-.2-.2-.3-.2h-.1.1c.1 0 .2.1.3.2.1 0 .2.1.4.1h.30000000000000004c.1 0 .2-.1.3-.2.1-.1.2-.2.4-.1h.1-.1c-.1 0-.2.1-.3.2-.1.1-.2.2-.4.2h-.4c-.2 0-.3-.1-.3-.2zm-.4-.2c0-.1.1-.1 0 0 .2-.2.4-.4.5-.4.1 0 .2 0 .2.1h.2l.2-.1c.1 0 .3.1.4.3l.1.1.1.1-.1-.1c-.1-.1-.2-.2-.3-.2-.1-.1-.2-.1-.3 0h-.7c-.1 0-.2.1-.3.2zm-1.3-2.1c.1-.1.2-.2.4-.3.1-.1.2-.1.4-.1h.4c.1 0 .2.1.3.2.1.1.2.1.2.1l-.3-.1-.3-.2h-.3l-.3.1-.5.3zm4.2-.1c-.1-.1-.3-.2-.4-.2-.1-.1-.2-.1-.3-.1h-.3c-.1 0-.2.1-.3.2-.1.1-.2.1-.3.1.1 0 .2-.1.2-.1.1-.1.2-.2.3-.2h.4c.1 0 .2.1.4.1.1 0 .2.1.3.2zm-.2.1s-.3.2-.7.2c-.4 0-.6-.2-.6-.2s.2-.3.6-.3c.5 0 .7.3.7.3zm-.8-.2h-.2c-.1 0-.1.1-.1.1v.2s.1.1.2.1h.2s-.1 0-.1-.1v-.1c-.1-.1 0-.1 0-.2zm.4.3h.30000000000000004l-.1-.1s-.1-.1-.2-.1h-.2s.1 0 .1.1v.1c.1-.1.1 0 .1 0zm.3.1l-.3.2h-.3c-.1 0-.2 0-.3-.1-.1 0-.2-.1-.3-.2l.3.2.3.1h.3c.1-.1.2-.2.3-.2zm-3.7-.2s.3-.3.7-.3c.4 0 .6.3.6.3s-.2.2-.6.2c-.4 0-.7-.1-.7-.2zm.8-.2c.1.1.1.2.1.2v.1l-.1.1h.2c.1 0 .1 0 .2-.1v-.2l-.1-.1s-.1 0-.1-.1c-.1.1-.2.1-.2.1zm-.2.4c-.2-.1-.2-.2-.2-.2v-.1l.1-.1h-.2l-.2.1s-.1 0-.1.1h.30000000000000004c.1.1.2.2.3.2zm-.5 0c.1 0 .2.1.4.1h.3c.1 0 .2 0 .3-.1.1 0 .2-.1.3-.2-.1.1-.2.2-.3.2l-.3.1h-.3c-.2 0-.3 0-.4-.1zm2.3 1.1s.1 0 .1-.1l.1-.1v-.2s.1 0 .1.1v.1c0 .1 0 .1-.1.2 0 0-.1.1-.2.1h-.1l-.1-.1-.1.1h-.4c-.1 0-.1-.1-.1-.1s0 .1-.1.1h-.1c-.1 0-.1 0-.2-.1 0 0-.1-.1-.1-.2v-.1l.1-.1v.2s0 .1.1.1l.1.1h.1s0-.1.1-.1c0 .1.1.1.1.1h.4c.1 0 .1-.1.1-.1s0 .1.1.1h.1zm-.9-.4s.3-.4.3-.7c0-.2 0-.3-.1-.4 0-.1-.1-.2-.2-.3-.9-.6-1.8.2-1.8.2h-.1v-.1c.2-.3.6-.5.9-.6.3 0 .7 0 1.1.3 0 0 .2.4.2.8 0 .3-.2.6-.2.7 0 .1 0 .2-.1.1z"/></g></svg>
