<svg xmlns="http://www.w3.org/2000/svg" xmlns:xlink="http://www.w3.org/1999/xlink" viewBox="0 0 71 71" enable-background="new 0 0 71 71"><style type="text/css">.st0{clip-path:url(#SVGID_2_);} .st1{fill-rule:evenodd;clip-rule:evenodd;fill:#214097;} .st2{fill-rule:evenodd;clip-rule:evenodd;fill:#F4F4F5;} .st3{fill-rule:evenodd;clip-rule:evenodd;fill:#EE2724;}</style><defs><path id="SVGID_1_" d="M71 35.5c0 19.6-15.9 35.5-35.5 35.5s-35.5-15.9-35.5-35.5 15.9-35.5 35.5-35.5 35.5 15.9 35.5 35.5z"/></defs><clipPath id="SVGID_2_"><use xlink:href="#SVGID_1_" overflow="visible"/></clipPath><g class="st0"><path class="st1" d="M-17.7 0h106.4v71h-106.4v-71z"/><path class="st2" d="M4.5 0h8.8v10.4l15.6-10.4h6.6v4.4l-11.2 7.5h11.2v11.7h-11.2l11.2 7.5v4.4h-6.6l-15.6-10.4v10.4h-8.8v-10.4l-15.7 10.4h-6.5v-4.4l11.2-7.5h-11.2v-11.7h11.2l-11.2-7.5v-4.4h6.5l15.7 10.4v-10.4z"/><path class="st3" d="M11.6 0v14.1h23.9v7.3h-23.9v14.1h-5.5v-14.1h-23.9v-7.3h23.9v-14.1h5.5zm23.9 33.9l-15.4-10.3h-4.9l17.8 11.9h2.5v-1.6zm-15.4-22l15.4-10.2v-1.7h-2.5l-17.8 11.9h4.9zm-17.6 0l-17.8-11.9h-2.5v1.6l15.4 10.2h4.9v.1zm-4.9 11.7l-15.4 10.2v1.6h2.5l17.8-11.8h-4.9z"/><path class="st2" d="M62.1 46.4l.8 2.3 2.2-.9-1.3 2 2 1.3-2.4.2.4 2.3-1.7-1.7-1.6 1.7.3-2.3-2.4-.2 2.1-1.3-1.3-2 2.2.9.7-2.3zM48.8 25.3l.7 2.3 2.3-.8-1.3 2 2 1.2-2.4.2.4 2.4-1.7-1.8-1.6 1.8.3-2.4-2.4-.2 2.1-1.2-1.4-2 2.3.8.7-2.3zM62.1 10.9l.8 2.3 2.2-.9-1.3 2 2 1.3-2.4.2.4 2.3-1.7-1.7-1.6 1.7.3-2.3-2.4-.2 2.1-1.3-1.3-2 2.2.9.7-2.3zM74 21.8l.7 2.3 2.2-.9-1.3 2 2.1 1.2-2.4.2.3 2.4-1.6-1.7-1.7 1.7.3-2.4-2.3-.2 2-1.2-1.3-2 2.2.9.8-2.3zM67.4 32.5l.6 1.4 1.6.1-1.2 1 .4 1.5-1.4-.8-1.3.8.4-1.5-1.2-1 1.6-.1.5-1.4zM8.9 44.8l1.5 4.8 4.7-1.8-2.8 4.2 4.4 2.6-5 .4.6 5-3.4-3.6-3.5 3.6.7-5-5-.4 4.3-2.6-2.8-4.2 4.7 1.8 1.6-4.8z"/></g></svg>