<svg xmlns="http://www.w3.org/2000/svg" viewBox="0 0 71 71" enable-background="new 0 0 71 71"><style type="text/css">.st0{fill:#FF001B;} .st1{fill:#FFFFFF;}</style><path class="st0" d="M0 34.3v2.4c.4 12.2 7 22.9 16.7 28.9v-60.3c-9.7 6.1-16.3 16.8-16.7 29zM71 35.5c0-12.6-6.6-23.7-16.6-30v60c10-6.3 16.6-17.4 16.6-30z"/><path class="st1" d="M54.4 65.5v-60c-5.4-3.5-11.9-5.5-18.9-5.5-6.9 0-13.3 2-18.7 5.3v60.3c5.4 3.4 11.8 5.4 18.7 5.4 7 0 13.5-2 18.9-5.5z"/><path class="st0" d="M35.6 20l-2.5 4.8c-.3.5-.8.5-1.3.2l-1.8-1 1.3 7.4c.3 1.3-.6 1.3-1.1.8l-3.1-3.6-.5 1.8c-.1.2-.3.5-.7.4l-3.9-.9 1 3.9c.2.9.4 1.2-.2 1.5l-1.3.7 6.8 5.7c.3.2.4.6.3 1l-.6 2c2.3-.3 4.4-.5 6.8-.8.2 0 .6.2.6.4l-.4 7.5h1.1l-.2-7.4c0-.2.3-.4.5-.4 2.3.3 4.4.5 6.8.8l-.6-2c-.1-.4 0-.7.3-1l6.8-5.7-1.4-.7c-.6-.2-.4-.6-.2-1.5l1-3.9-3.9.9c-.4.1-.6-.2-.7-.4l-.5-2-3.1 3.6c-.4.6-1.3.6-1.1-.8l1.3-7.4-1.8 1c-.5.3-1 .3-1.3-.2l-2.4-4.7z"/></svg>