<svg xmlns="http://www.w3.org/2000/svg" xmlns:xlink="http://www.w3.org/1999/xlink" viewBox="0 0 71 71" enable-background="new 0 0 71 71"><style type="text/css">.st0{clip-path:url(#SVGID_2_);} .st1{fill-rule:evenodd;clip-rule:evenodd;fill:#214097;} .st2{fill:#F4F4F5;} .st3{fill-rule:evenodd;clip-rule:evenodd;fill:#EE2724;}</style><defs><path id="SVGID_1_" d="M71 35.5c0 19.6-15.9 35.5-35.5 35.5s-35.5-15.9-35.5-35.5 15.9-35.5 35.5-35.5 35.5 15.9 35.5 35.5z"/></defs><clipPath id="SVGID_2_"><use href="#SVGID_1_" overflow="visible"/></clipPath><g class="st0"><path class="st1" d="M-4.6 0h31.3v20.9l-31.3-20.9zm48.9 0h31.3l-31.3 20.9v-20.9zm44.4 8.8v15h-22.4l22.4-15zm0 38.4v15l-22.5-15h22.5zm-13.1 23.8h-31.3v-20.9l31.3 20.9zm-48.9 0h-31.3l31.3-20.9v20.9zm-44.5-8.8v-15h22.5l-22.5 15zm0-38.4v-15l22.5 15h-22.5z"/><path class="st2" d="M88.7 62.2l-22.4-15h22.4v-23.4h-22.4l22.4-15v-8.8h-13.1l-31.3 20.9v-20.9h-17.6v20.9l-31.3-20.9h-13.2v8.8l22.5 15h-22.5v23.4h22.5l-22.5 15v8.8h13.2l31.3-20.9v20.9h17.6v-20.9l31.3 20.9h13.1v-8.8z"/><path class="st3" d="M41 0v28.2h47.8v14.6h-47.8v28.2h-11v-28.2h-47.8v-14.6h47.8v-28.2h11zm47.7 67.7l-30.7-20.5h-9.9l35.7 23.8h4.9v-3.3zm-30.7-43.9l30.7-20.5v-3.3h-4.9l-35.6 23.8h9.8zm-35.2 0l-35.6-23.8h-4.9v3.3l30.7 20.5h9.8zm-9.8 23.4l-30.7 20.5v3.3h4.9l35.7-23.8h-9.9z"/></g></svg>
