<svg xmlns="http://www.w3.org/2000/svg" xmlns:xlink="http://www.w3.org/1999/xlink" viewBox="0 0 71 71" enable-background="new 0 0 71 71"><style type="text/css">.st0{clip-path:url(#SVGID_2_);} .st1{fill-rule:evenodd;clip-rule:evenodd;fill:#4475BA;} .st2{fill-rule:evenodd;clip-rule:evenodd;fill:#F1F0F0;}</style><defs><path id="SVGID_1_" d="M71 35.5c0 19.6-15.9 35.5-35.5 35.5s-35.5-15.9-35.5-35.5 15.9-35.5 35.5-35.5 35.5 15.9 35.5 35.5z"/></defs><clipPath id="SVGID_2_"><use xlink:href="#SVGID_1_" overflow="visible"/></clipPath><g class="st0"><path class="st1" d="M0 71h106.5v-7.9h-106.5v7.9zm106.5-15.8v-7.9h-106.5v7.9h106.5zm0-15.8v-7.9h-67.1v-7.9h67.1v-7.9h-67.1v-7.8h67.1v-7.9h-82.8v15.8h15.8v7.9h-15.8v15.8h82.8v-.1zm-90.7-39.4h-15.8v15.8h15.8v-15.8zm-15.8 23.7v15.8h15.8v-15.8h-15.8z"/><path class="st2" d="M15.8 0h7.9v15.8h15.8v7.9h-15.8v15.8h82.8v7.9h-106.5v-7.9h15.8v-15.8h-15.8v-7.9h15.8v-15.8zm23.6 7.9h67.1v7.9h-67.1v-7.9zm0 15.8h67.1v7.9h-67.1v-7.9zm-39.4 15.7v7.9-7.9zm0 15.8h106.5v7.9h-106.5v-7.9z"/></g></svg>