<svg xmlns="http://www.w3.org/2000/svg" xmlns:xlink="http://www.w3.org/1999/xlink" viewBox="0 0 71 71" enable-background="new 0 0 71 71"><style type="text/css">.st0{clip-path:url(#SVGID_2_);} .st1{fill:#F1F0F0;} .st2{fill:#4475BA;}</style><defs><path id="SVGID_1_" d="M71 35.5c0 19.6-15.9 35.5-35.5 35.5s-35.5-15.9-35.5-35.5 15.9-35.5 35.5-35.5 35.5 15.9 35.5 35.5z"/></defs><clipPath id="SVGID_2_"><use href="#SVGID_1_" overflow="visible"/></clipPath><g class="st0"><path class="st1" d="M-17.7 0h106.5v6.7h-106.5v-6.7zm106.5 17.8v35.5h-106.5v-35.5h106.5zm0 46.5v6.7h-106.5v-6.7h106.5z"/><path class="st2" d="M35.5 24.8l-1.8 3.2h3.7l-1.9-3.2zm-53.2-18.1h106.4v11.1h-106.4v-11.1zm0 46.6h106.4v11.1h-106.4v-11.1zm50.1-23.2l-3.1 5.4 3.1 5.4h6.2l3.1-5.4-3.1-5.4h-6.2zm-4.4 7.6l-1.8 3.2h3.7l-1.9-3.2zm13.1 3.2h3.7l-1.8-3.2-1.9 3.2zm-5.6 5.3l1.8-3.2h-3.7l1.9 3.2zm7.5-12.9l1.8-3.2h-3.7l1.9 3.2zm-13.1-3.2h-3.7l1.8 3.2 1.9-3.2zm17.7-.5l-3.4 5.9 3.4 5.9.7 1.2.3.5h-8.7l-3.5 5.9-.7 1.2-.3.5-.3-.5-.5-1.2-3.4-5.9h-8.7l.3-.5.7-1.2 3.4-5.9-3.4-5.9-.7-1.2-.3-.5h8.7l3.4-5.9.7-1.2.3-.5.3.5.7 1.2 3.4 5.9h8.7l-.3.5-.8 1.2z"/></g></svg>
