<svg xmlns="http://www.w3.org/2000/svg" xmlns:xlink="http://www.w3.org/1999/xlink" viewBox="0 0 71 71" enable-background="new 0 0 71 71"><style type="text/css">.st0{clip-path:url(#SVGID_2_);} .st1{fill:#F1F0F0;} .st2{fill:#F39229;} .st3{fill:#48B649;} .st4{fill-rule:evenodd;clip-rule:evenodd;fill:#214097;}</style><defs><path id="SVGID_1_" d="M71 35.5c0 19.6-15.9 35.5-35.5 35.5s-35.5-15.9-35.5-35.5 15.9-35.5 35.5-35.5 35.5 15.9 35.5 35.5z"/></defs><clipPath id="SVGID_2_"><use href="#SVGID_1_" overflow="visible"/></clipPath><g class="st0"><path class="st1" d="M88.7 23.7v23.6h-106.4v-23.6h106.4z"/><path class="st2" d="M-17.7 0h106.5v23.7h-106.5v-23.7z"/><path class="st3" d="M-17.7 47.3h106.5v23.7h-106.5v-23.7z"/><path class="st4" d="M35.6 33.7h.3l.3-1.9 1.7-5.1-1.1 5.3-.7 1.8.3.1.8-1.8 3-4.5-2.4 4.8-1.2 1.6.3.2 1.2-1.5 4-3.6-3.6 4-1.5 1.2.2.3 1.6-1.2 4.8-2.4-4.5 3-1.8.8.1.3 1.8-.7 5.3-1.1-5.1 1.7-1.9.3v.3l1.9-.2 5.4.3-5.4.3-1.9-.2v.3l1.9.3 5.1 1.7-5.3-1.1-1.8-.7-.1.3 1.8.8 4.5 3-4.8-2.4-1.6-1.2-.2.3 1.5 1.2 3.6 4-4-3.6-1.2-1.5-.3.2 1.2 1.6 2.4 4.8-3-4.5-.8-1.8-.3.1.7 1.8 1.1 5.3-1.7-5.1-.3-1.9h-.3l.2 1.9-.3 5.4-.3-5.4.2-1.9h-.3l-.3 1.9-1.7 5.1 1.1-5.3.7-1.8-.3-.1-.8 1.8-3 4.5 2.4-4.8 1.2-1.6-.3-.2-1.1 1.2-4 3.6 3.6-4 1.5-1.2-.2-.3-1.6 1.2-4.8 2.4 4.5-3 1.8-.8-.1-.3-1.8.7-5.3 1.1 5.1-1.7 1.9-.3v-.3l-1.9.2-5.4-.3 5.4-.3 1.9.2v-.3l-1.9-.3-5.1-1.7 5.3 1.1 1.8.7.1-.3-1.8-.8-4.5-3 4.8 2.4 1.6 1.2.2-.3-1.5-1-3.6-4 4 3.6 1.2 1.5.3-.2-1.2-1.6-2.4-4.8 3 4.5.8 1.8c.1-.1.2-.1.3-.1l-.7-1.8-1.1-5.3 1.7 5.1.3 1.9h.3l-.2-1.9.3-5.4.3 5.4-.3 2zm-.8-7.5c0 .3-.2.5-.4.5-.3 0-.5-.1-.5-.4-.5.1-1 .2-1.4.4.1.2 0 .5-.3.6-.2.1-.5 0-.6-.2-.5.2-.9.5-1.3.7.2.2.1.5-.1.7-.2.2-.5.1-.7-.1l-.6.5c-.2.2-.3.4-.5.5.2.2.2.5.1.7-.2.2-.4.2-.7.1-.3.4-.5.8-.7 1.3.2.1.3.4.2.6-.1.2-.4.4-.6.3-.2.5-.3.9-.4 1.4.3 0 .4.3.4.5 0 .3-.3.4-.5.4v1.4c.3 0 .5.2.5.4 0 .3-.1.5-.4.5.1.5.2 1 .4 1.4.2-.1.5 0 .6.3.1.2 0 .5-.2.6.2.5.5.9.7 1.3.2-.2.5-.1.7.1.2.2.1.5-.1.7.2.2.3.4.5.5l.6.5c.2-.2.5-.2.7-.1.2.2.2.4.1.7.4.3.8.5 1.3.7.1-.2.4-.3.6-.2.2.1.4.4.3.6.5.2.9.3 1.4.4 0-.3.3-.4.5-.4.3 0 .4.3.4.5h1.4c0-.3.2-.5.4-.5.3 0 .5.1.5.4.5-.1 1-.2 1.4-.4-.1-.2 0-.5.3-.6.2-.1.5 0 .6.2.5-.2.9-.5 1.3-.7-.2-.2-.1-.5.1-.7.2-.2.5-.1.7.1l.6-.5c.2-.2.3-.4.5-.5-.2-.2-.2-.5-.1-.7.2-.2.4-.2.7-.1.3-.4.5-.8.7-1.3-.2-.1-.3-.4-.2-.6.1-.2.4-.4.6-.3.2-.5.3-.9.4-1.4-.3 0-.4-.3-.4-.5 0-.3.3-.4.5-.4v-1.4c-.3 0-.5-.2-.5-.4 0-.3.1-.5.4-.5-.1-.5-.2-1-.4-1.4-.2.1-.5 0-.6-.3-.1-.2 0-.5.2-.6-.2-.5-.5-.9-.7-1.3-.2.2-.5.1-.7-.1-.2-.2-.1-.5.1-.7-.2-.2-.3-.4-.5-.5l-.6-.5c-.2.2-.5.2-.7.1-.2-.2-.2-.4-.1-.7-.4-.3-.8-.5-1.3-.7-.1.2-.4.3-.6.2-.2-.1-.4-.4-.3-.6-.5-.2-.9-.3-1.4-.4 0 .3-.3.4-.5.4-.3 0-.4-.3-.4-.5h-1.4zm.7-1.4c2.9 0 5.6 1.2 7.5 3.1 1.9 1.9 3.1 4.6 3.1 7.5 0 2.9-1.2 5.6-3.1 7.5-1.9 1.9-4.6 3.1-7.5 3.1-2.9 0-5.6-1.2-7.5-3.1-1.9-1.9-3.1-4.6-3.1-7.5 0-2.9 1.2-5.6 3.1-7.5 1.9-1.9 4.6-3.1 7.5-3.1z"/></g></svg>
