<svg xmlns="http://www.w3.org/2000/svg" viewBox="0 0 71 71" enable-background="new 0 0 71 71"><style type="text/css">.st0{fill:#156634;} .st1{fill:#FFFFFF;} .st2{fill:#B82025;}</style><g id="XMLID_1061_"><g id="XMLID_1086_"><path id="XMLID_1091_" class="st0" d="M68 49.7c-5.5 12.5-18 21.3-32.5 21.3s-27-8.8-32.5-21.3h65z"/><path id="XMLID_1090_" class="st1" d="M69.4 46.2c-.4 1.2-.8 2.4-1.3 3.5h-65.1c-.5-1.2-1-2.3-1.3-3.5h67.7z"/><path id="XMLID_1089_" class="st2" d="M71 35.5c0 3.7-.6 7.3-1.6 10.7h-67.8c-1-3.4-1.6-7-1.6-10.7 0-3.7.6-7.3 1.6-10.7h67.7c1.1 3.4 1.7 7 1.7 10.7z"/><path id="XMLID_1088_" class="st1" d="M69.4 24.8h-67.8c.4-1.2.9-2.4 1.4-3.5h65c.5 1.1 1 2.3 1.4 3.5z"/><path id="XMLID_1087_" d="M68 21.3h-65c5.5-12.5 18-21.3 32.5-21.3s27 8.8 32.5 21.3z"/></g><g id="XMLID_1062_"><g id="XMLID_1071_"><g id="XMLID_1080_"><path id="XMLID_1085_" class="st1" d="M48.3 56.6l-20.8-36.1c.4-.5.5-1.1.2-1.7-.4-.7-5.9-9-6.6-8.6-.7.4 3.7 9.3 4.1 10 .3.5.9.8 1.5.7l20.8 36.1.8-.4z"/><path id="XMLID_1081_" d="M44.3 49.7l-.8-1.4-1.3-2.2-5.2-9.1-.9-1.6-.5-1-.9-1.4-4.7-8.2-2-3.5v-.1l-.4-.8c.4-.5.5-1.2.1-1.7-.2-.4-1.7-2.6-3.2-4.7-2-2.7-3.1-4.1-3.5-3.9-.3.2.2 1.8 1.6 4.9 1 2.3 2.2 4.8 2.5 5.1.3.5.9.8 1.5.7l.1.3.7 1.3 1.3 2.3 5.2 9 .9 1.6.6 1 .8 1.4 4.7 8.3 1.9 3.4.1.2 4.3 7.4.9-.5-3.8-6.8zm-8.8-13.3l-.6-1-.9-1.6-5.2-9-1.3-2.3-.7-1.2-.1-.3c-.6.1-1.2-.2-1.5-.7-.2-.4-1.4-2.8-2.5-5.1-1.8-4-1.8-4.8-1.6-4.9.2-.1.8.3 3.4 3.9 1.5 2 3 4.3 3.2 4.7.3.5.2 1.2-.1 1.7l.4.8.1.1 2 3.4 4.7 8.2.8 1.4.6 1 .9 1.6 5.2 9.1 1.3 2.2.8 1.3 4 6.9-.8.5-4.2-7.4-.4-.2-1.9-3.3-4.8-8.3-.8-1.5z"/></g><g id="XMLID_1072_"><path id="XMLID_1079_" class="st1" d="M50 10.3c-.7-.4-6.2 7.9-6.6 8.6-.3.5-.2 1.2.2 1.7l-20.9 36 .9.5 20.8-36.1c.6.1 1.2-.2 1.5-.7.4-.7 4.8-9.6 4.1-10z"/><path id="XMLID_1073_" d="M43.1 21.3l-2 3.5-4.8 8.2-.8 1.4.8-1.4 4.7-8.2 2-3.4.1-.1zm6.9-11c-.3-.2-1.5 1.1-3.5 3.9-1.5 2-3 4.3-3.2 4.7-.3.5-.3 1.2.1 1.7l-.4.7v.1l-2 3.5-4.7 8.1-.8 1.4-.5 1-1 1.6-5.3 9.1-1.3 2.2-.8 1.4-4 6.9.9.5 4.3-7.4.1-.2 1.9-3.4 4.7-8.3.8-1.4.5-1 .9-1.6 5.2-9 1.3-2.3.7-1.3.1-.3c.6.1 1.2-.2 1.5-.7.2-.4 1.4-2.8 2.5-5.1 1.1-2.5 1.7-4.1 1.7-4.7.4 0 .3-.1.3-.1zm-5.6 10.7l-.2.3-.7 1.2-1.3 2.3-5.2 9-.9 1.6-.5 1-.8 1.5-4.8 8.3-2 3.3-.1.2-4.2 7.4-.8-.5 4-6.9.8-1.3 1.3-2.2 5.2-9.1.9-1.6.5-1 .8-1.4 4.7-8.2 2-3.4.1-.1.4-.8c-.4-.5-.5-1.1-.2-1.7.2-.4 1.7-2.6 3.2-4.7 2.6-3.6 3.2-4 3.4-3.9.2.1.2.9-1.6 4.9-1 2.3-2.2 4.8-2.5 5.1-.3.5-.9.8-1.5.7zm-1.3.3l-2 3.5-4.8 8.2-.8 1.4.8-1.4 4.7-8.2 2-3.4.1-.1z"/></g></g><path id="XMLID_1070_" class="st2" d="M43.9 23.7c-2-5.3-5-9.6-8.4-9.6-3.4 0-6.5 4.3-8.4 9.6 1.4 3.8 2.2 8.1 2.2 11.8s-.8 8-2.2 11.8c2 5.3 5 9.6 8.4 9.6 3.4 0 6.5-4.3 8.4-9.6-1.4-3.8-2.2-8.1-2.2-11.8s.9-8 2.2-11.8z"/><path id="XMLID_1069_" d="M43.9 23.7c-1.4 3.8-2.2 8.1-2.2 11.8s.8 8 2.2 11.8c1.4-3.8 2.2-8.1 2.2-11.8s-.8-8-2.2-11.8z"/><path id="XMLID_1068_" d="M27.1 23.7c-1.4 3.8-2.2 8.1-2.2 11.8s.8 8 2.2 11.8c1.4-3.8 2.2-8.1 2.2-11.8s-.8-8-2.2-11.8z"/><path id="XMLID_1067_" class="st1" d="M37.4 35.5c0 1.5-.8 2.7-1.9 2.7-1 0-1.9-1.2-1.9-2.7 0-1.5.8-2.7 1.9-2.7 1 0 1.9 1.2 1.9 2.7z"/><path id="XMLID_1066_" class="st1" d="M33.2 23.4c0 3.9.7 7.2 1.8 9.2v-18.4c-1.1 1.9-1.8 5.3-1.8 9.2z"/><path id="XMLID_1065_" class="st1" d="M37.8 23.4c0 3.9-.7 7.2-1.8 9.2v-18.4c1.1 1.9 1.8 5.3 1.8 9.2z"/><path id="XMLID_1064_" class="st1" d="M37.8 47.6c0-3.9-.7-7.2-1.8-9.2v18.4c1.1-2 1.8-5.3 1.8-9.2z"/><path id="XMLID_1063_" class="st1" d="M33.2 47.6c0-3.9.7-7.2 1.8-9.2v18.4c-1.1-2-1.8-5.3-1.8-9.2z"/></g></g></svg>