<svg xmlns="http://www.w3.org/2000/svg" xmlns:xlink="http://www.w3.org/1999/xlink" viewBox="0 0 71 71" enable-background="new 0 0 71 71"><style type="text/css">.st0{clip-path:url(#SVGID_2_);} .st1{fill-rule:evenodd;clip-rule:evenodd;fill:#F1F0F0;} .st2{fill-rule:evenodd;clip-rule:evenodd;fill:#48B649;} .st3{fill-rule:evenodd;clip-rule:evenodd;fill:#EE2724;} .st4{fill-rule:evenodd;clip-rule:evenodd;fill:#FCCA3E;stroke:#AA8C30;stroke-width:2.714300e-02;stroke-miterlimit:2.4142;} .st5{fill-rule:evenodd;clip-rule:evenodd;fill:#AA8C30;} .st6{fill-rule:evenodd;clip-rule:evenodd;fill:#32C2DC;stroke:#0972A7;stroke-width:6.785100e-02;stroke-miterlimit:2.4142;} .st7{fill:#963320;} .st8{fill:#F9AA51;} .st9{fill-rule:evenodd;clip-rule:evenodd;fill:#963320;} .st10{fill-rule:evenodd;clip-rule:evenodd;} .st11{fill-rule:evenodd;clip-rule:evenodd;fill:#04534E;} .st12{fill-rule:evenodd;clip-rule:evenodd;fill:#0B8489;} .st13{fill-rule:evenodd;clip-rule:evenodd;fill:#8CBEC0;} .st14{fill-rule:evenodd;clip-rule:evenodd;fill:url(#SVGID_3_);} .st15{fill-rule:evenodd;clip-rule:evenodd;fill:#FCCA3E;} .st16{fill-rule:evenodd;clip-rule:evenodd;fill:#E82836;} .st17{fill-rule:evenodd;clip-rule:evenodd;fill:#F6E200;} .st18{fill-rule:evenodd;clip-rule:evenodd;fill:url(#SVGID_4_);} .st19{fill-rule:evenodd;clip-rule:evenodd;fill:url(#SVGID_5_);} .st20{fill-rule:evenodd;clip-rule:evenodd;fill:#FCCA3D;stroke:#987C2E;stroke-width:2.714300e-02;stroke-miterlimit:2.4142;} .st21{fill:#987C2E;} .st22{fill-rule:evenodd;clip-rule:evenodd;fill:#202020;stroke:#494037;stroke-width:2.714300e-02;stroke-miterlimit:2.4142;} .st23{fill-rule:evenodd;clip-rule:evenodd;fill:#A9AD72;} .st24{fill-rule:evenodd;clip-rule:evenodd;fill:#78732F;} .st25{fill-rule:evenodd;clip-rule:evenodd;fill:#FFFFFF;} .st26{fill-rule:evenodd;clip-rule:evenodd;fill:none;stroke:#78732F;stroke-width:2.035700e-02;stroke-miterlimit:2.4142;} .st27{fill-rule:evenodd;clip-rule:evenodd;fill:#41421B;} .st28{fill-rule:evenodd;clip-rule:evenodd;fill:#F1A720;} .st29{fill-rule:evenodd;clip-rule:evenodd;fill:#C6C7A6;} .st30{fill-rule:evenodd;clip-rule:evenodd;fill:#202020;} .st31{fill-rule:evenodd;clip-rule:evenodd;fill:#DBAD6C;} .st32{fill-rule:evenodd;clip-rule:evenodd;fill:#AB6E29;} .st33{fill-rule:evenodd;clip-rule:evenodd;fill:#904620;} .st34{fill-rule:evenodd;clip-rule:evenodd;fill:#4C2B17;} .st35{fill-rule:evenodd;clip-rule:evenodd;fill:#D2A567;} .st36{fill-rule:evenodd;clip-rule:evenodd;fill:#B0732A;} .st37{fill-rule:evenodd;clip-rule:evenodd;fill:#80401D;} .st38{fill-rule:evenodd;clip-rule:evenodd;fill:#8B451F;} .st39{fill-rule:evenodd;clip-rule:evenodd;fill:#5C3919;} .st40{fill-rule:evenodd;clip-rule:evenodd;fill:#914721;} .st41{fill-rule:evenodd;clip-rule:evenodd;fill:#6C4219;} .st42{fill-rule:evenodd;clip-rule:evenodd;fill:#875021;} .st43{fill-rule:evenodd;clip-rule:evenodd;fill:#B27129;} .st44{fill-rule:evenodd;clip-rule:evenodd;fill:#1E2121;} .st45{fill-rule:evenodd;clip-rule:evenodd;fill:#FFF6F0;} .st46{fill-rule:evenodd;clip-rule:evenodd;fill:#F06E22;} .st47{fill-rule:evenodd;clip-rule:evenodd;fill:#D5D3CA;} .st48{fill-rule:evenodd;clip-rule:evenodd;fill:#6C4019;} .st49{fill-rule:evenodd;clip-rule:evenodd;fill:#F9C93A;} .st50{fill-rule:evenodd;clip-rule:evenodd;fill:#FBF3D8;} .st51{fill-rule:evenodd;clip-rule:evenodd;fill:#FCE9AE;} .st52{fill-rule:evenodd;clip-rule:evenodd;fill:#BF802C;} .st53{fill-rule:evenodd;clip-rule:evenodd;fill:#513625;} .st54{fill-rule:evenodd;clip-rule:evenodd;fill:#AF7029;} .st55{fill-rule:evenodd;clip-rule:evenodd;fill:#FCCA3D;} .st56{fill:#494037;} .st57{fill-rule:evenodd;clip-rule:evenodd;fill:#A86828;} .st58{fill-rule:evenodd;clip-rule:evenodd;fill:#F8C93C;stroke:#987C2E;stroke-width:2.714300e-02;stroke-miterlimit:2.4142;} .st59{fill-rule:evenodd;clip-rule:evenodd;fill:#F8C93C;} .st60{fill-rule:evenodd;clip-rule:evenodd;fill:#FFFFFF;stroke:#0972A7;stroke-width:0.1357;stroke-miterlimit:2.4142;} .st61{fill-rule:evenodd;clip-rule:evenodd;fill:#9BA067;} .st62{fill-rule:evenodd;clip-rule:evenodd;fill:#717732;} .st63{fill-rule:evenodd;clip-rule:evenodd;fill:#CD202A;} .st64{fill-rule:evenodd;clip-rule:evenodd;fill:#016948;}</style><defs><circle id="SVGID_1_" cx="35.5" cy="35.5" r="35.5"/></defs><clipPath id="SVGID_2_"><use href="#SVGID_1_" overflow="visible"/></clipPath><g class="st0"><path class="st1" d="M17.8 0h35.8v71h-35.8v-71z"/><path class="st2" d="M-17.8 0h35.6v71h-35.6v-71z"/><path class="st3" d="M53.6 0h35.1v71h-35.1v-71z"/><path class="st4" d="M23.5 37.8l-.7-.4v.1l.3.3.5.4-.1-.4zM22.2 37.1c.1-.1.2 0 .3 0l.1.1-.1.2s-.1 0-.2-.1c-.1 0-.2-.1-.1-.2z"/><path class="st5" d="M23 37.7v-.2l-.2-.1v.1l.2.2z"/><path class="st4" d="M22.8 37.5c.1-.1.1-.3 0-.4-.1-.1-.2 0-.3.1 0 .1 0 .1-.1.2s-.1.2 0 .2c.2.1.4 0 .4-.1zM23.5 37.7l.5-.7.1.1-.2.3-.3.6-.1-.3zM24.3 36.5c-.1-.1-.2.1-.3.2 0 .1-.1.2-.1.2l.2.1s.1 0 .2-.1c.1-.2.1-.3 0-.4z"/><path class="st5" d="M23.8 37.4v-.2l.1-.2.1.1-.2.3z"/><path class="st4" d="M23.9 37.1c-.1-.1-.2-.2-.2-.4 0-.1.2-.1.3 0l.2.2c.1 0 .2.1.1.2s-.3.1-.4 0zM25.7 41.7h-.8v.1h.4l.6.1-.2-.2zM24.2 41.8c0-.1.2-.2.3-.1h.2v.2s-.1 0-.2.1c-.1 0-.3 0-.3-.2z"/><path class="st5" d="M25.3 41.9l-.2-.1h-.2v.1h.4z"/><path class="st4" d="M25 41.8c0-.1-.1-.3-.2-.3s-.2.1-.2.2.1.1 0 .3c0 .1 0 .2.1.2.2-.1.3-.3.3-.4zM25.7 41.7l.1-.8h.1v1l-.2-.2zM25.9 40.3c-.1 0-.2.2-.2.3v.2h.2s.1-.1.1-.2c.1-.1 0-.3-.1-.3z"/><path class="st5" d="M25.9 41.4l-.1-.2v-.3l.1.1v.4z"/><path class="st4" d="M25.8 41.1c-.1 0-.3-.1-.3-.2s.1-.2.2-.2.1.1.3.1c.1 0 .2 0 .2.1-.1.1-.2.1-.4.2zM29.1 44.8l-.8.1.1.1h1l-.3-.2zM27.7 45.1c0-.1.2-.2.3-.2h.2v.2s-.1.1-.2.1-.3 0-.3-.1z"/><path class="st5" d="M28.7 45l-.1-.1h-.3l.1.1h.3z"/><path class="st4" d="M28.4 44.9c0-.1-.1-.3-.3-.3-.1 0-.2.1-.1.2s.1.1.1.3c0 .1 0 .2.2.2.1 0 .1-.2.1-.4zM29.1 44.9l-.1-.8h.1l.1.4.2.6-.3-.2zM29 43.4c-.1 0-.1.2-.1.3 0 .1.1.2.1.2h.2v-.2c0-.2 0-.3-.2-.3z"/><path class="st5" d="M29.3 44.4l-.2-.1v-.2l.2.3z"/><path class="st4" d="M29.1 44.2c-.1 0-.3 0-.4-.2 0-.1.1-.2.2-.2h.3c.1 0 .2 0 .2.1s-.2.2-.3.3zM46.6 37.9l-.6-.6.2-.1.1.1.4.3-.1.3z"/><path class="st5" d="M46.3 37.3l-.1.2-.2-.2.2-.1.1.1z"/><path class="st4" d="M46 37c.1 0 .2.1.2.2s-.1.2-.2.2-.2-.1-.2-.2.1-.2.2-.2zM46.7 37.9l.8-.2v-.2h-.2l-.6.1v.3z"/><path class="st5" d="M47.3 37.5l-.1.3.3-.1v-.2h-.2z"/><path class="st4" d="M47.7 37.3c-.1-.1-.2 0-.3.1-.1.1 0 .2.1.3.1.1.2 0 .3-.1.1-.1 0-.2-.1-.3zM44.6 41.9l-.5-.9.1-.1.1.1.5.7-.2.2z"/><path class="st5" d="M44.3 41v.2l-.2-.2.1-.1.1.1z"/><path class="st4" d="M44.2 40.6c.1 0 .2.1.2.3 0 .1-.2.2-.3.2-.1 0-.2-.2-.2-.3 0-.1.1-.2.3-.2zM44.6 41.9l.8.1.1-.1-.2-.1-.5-.1-.2.2z"/><path class="st5" d="M45.3 41.8l-.2.2h.3l.1-.1-.2-.1z"/><path class="st4" d="M45.8 41.8c-.1-.1-.2-.1-.3 0-.1.1-.1.2 0 .3.1.1.2.1.3 0v-.3zM41 44.7v-.8h.2v.2l.1.4-.3.2z"/><path class="st5" d="M41.2 44.1l-.2.1v-.3h.2v.2z"/><path class="st4" d="M41.3 43.6c.1.1.1.2 0 .3-.1.1-.2.1-.3 0-.1-.1-.1-.2 0-.3 0-.1.2-.1.3 0zM41.1 44.8l.8.4v-.1l-.1-.1-.5-.4-.2.2z"/><path class="st5" d="M41.8 45l-.2.1.3.1v-.1l-.1-.1z"/><path class="st4" d="M42.2 45.1c0-.1-.2-.2-.3-.1-.1 0-.2.2-.1.3 0 .1.2.2.3.1.1 0 .2-.2.1-.3z"/><path class="st6" d="M28.6 40.6s1.5.8 1.9 1c.4.2.7.1.6-.3-.1-.4.1-.3.3 0 .2.3.5.7.7.8.3.1.7-.1.7-.1s4 .3 4.4.4c.4.1 1 .1 1.2.1l1.2-.3s.6-.1.5.1c0 .1-.2.3-.6.4-.4.1-1 .2-1.1.5 0 .2.4.4.7.4.2.1-.2.2-.4.2-.2.1-1 .2-1.4.5-.4.4-.5.5-1 .5s-1.8.1-2.2 0c-.5 0-.7 0-1-.3-.4-.3-.5-.4-.9-.6-.4-.1-1-.1-1.3 0-.4 0-.2-.2.1-.4.3-.1.5-.2.5-.4s-.1-.3-.7-.5c-.6-.1-.9-.2-1.4-.2-.5 0-.4-.1-.3-.2.1-.1.5-.1.6-.3 0-.2 0-.3-.4-.5-.4-.3-.6-.4-.9-.5-.2-.1-.2-.5.2-.3z"/><path class="st7" d="M32.7 42.4c-.1-.1-.2-.2-.2-.4l.1-.3c.1-.1.2-.1.3-.1.2 0 .3.1.3.2h2.1c.4 0 1.2.1 1.5.2 0-.1.2-.2.4-.2l.3.1c.1.1.1.3.1.3v.2c0 .1-.1.1-.1.3 0 .1.2.5-.1.9.1.1.3.3.2.6 0 .1-.1.1-.1.1-.1.1-.2.1-.3.1h-.4s-.1.1-.2.1-.2 0-.2.1h-2.5c-.1 0-.3 0-.4-.1-.1 0-.2-.1-.2-.2-.1 0-.2.2-.4.2-.1 0-.2 0-.3-.1-.1-.1-.1-.2-.2-.2v-.2l.1-.2.1-.1s-.1-.2-.2-.3l-.1-.3v-.3c.3-.2.4-.4.4-.4z"/><path class="st8" d="M32.6 42c0 .2.2.4.2.4s-.1.2-.2.3v.2c0 .1 0 .2.1.2.1.2.2.3.2.3s0 .1-.1.2c0 0-.1.1-.1.2v.2l.1.2.2.1c.2 0 .4-.2.4-.2l.2.2.3.1h2.5c.1 0 .1 0 .2-.1l.2-.1s.1 0 .1.1h.2c.1 0 .2 0 .2-.1l.1-.1c.1-.4-.2-.6-.2-.6.3-.5.1-.9.1-.9.1-.1.1-.2.1-.3v-.2c0-.1 0-.2-.1-.3-.1-.1-.1-.1-.2-.1-.3 0-.4.2-.4.2-.3-.1-1.1-.2-1.5-.2h-2.1s-.1-.2-.3-.1l-.3.1c.1 0 .1.1.1.3z"/><path class="st7" d="M37.2 42.1l-.1.1h-.2l-.1-.1v-.1.2c0 .1 0 .1.1.2h.2c.1-.2.1-.2.1-.3zm-4.3 1.8c.1 0 .1-.1.1-.1h.1c.1 0 .1 0 .1.1 0 0 .1.1.1.2v.1-.2c0-.1 0-.2-.1-.2 0-.1-.1-.1-.2-.1h-.2c.2.1.1.1.1.2zm4.4.1c.1-.1 0-.2 0-.2 0-.1-.1-.1-.2-.1h-.1l-.1.1s-.1.1-.1.2 0 .1.1.2v-.30000000000000004l.1-.1h.1s.1 0 .1.1c.1 0 .1.1.1.1zm-4.3-2v.1l.1.1h.1c.1-.1.1-.1.1-.2v-.2.2c0 .1 0 .1-.1.2h-.1l-.1-.2z"/><path class="st9" d="M33.4 44c.1.1 0 .2.4.3.4.1.9.1 1.4.1h1c.2 0 .4-.1.4-.3.1-.1.2-.1.2-.1s-.1.2 0 .4c0 0-.1.1-.3.1-.2.1-.7.1-.8.1h-2c-.1 0-.3-.1-.4-.2l-.1-.1s.2-.2.2-.3z"/><path class="st7" d="M33.6 41.7l.5.6c.1.2.2.5.3.8.1.6.7 1.3.7 1.3s-.6-.7-.7-1.4c-.1-.3-.2-.6-.3-.8-.2-.1-.4-.3-.5-.5zM34.2 41.6l.5.5c.1.2.2.5.3.8.1.6.8 1.4.8 1.4s-.7-.8-.8-1.4c-.1-.3-.2-.6-.3-.8-.2-.1-.4-.2-.5-.5zM35.5 42.7v.30000000000000004c.1.6.8 1.4.8 1.4s-.7-.8-.8-1.4v-.2c-.1 0-.1-.1 0-.1z"/><path class="st9" d="M35.3 42.4s.1.3.1.4h1c.1 0 .1-.2.1-.4s.2-.4.3-.4c.1-.1-.1-.1-.1-.1l-.5-.1h-.4l-.5.6z"/><path class="st10" d="M27.6 36.1c0 .1-.1.3 0 .3 0 .2.3.1 0-.3zm-1.5 1.4h.3c.1 0 0 .1 0 .1s-.2 0-.3-.1zm.6 1s.2.1.3 0c.1-.1.1.1.1.1s-.3 0-.4-.1zm.8.7c0-.1.2-.1.2-.3 0-.2.1 0 .1.1 0-.1 0 .1-.3.2zm1.1.7l.3-.3c.1-.1.2.1.2.1s-.3.1-.5.2zm1.2.4l.1-.2h.1l-.2.2zm.1.1l.1-.3h.1s.1.2-.2.3zm2.3.5s.2-.1.2-.2.1.1.1.1 0 .1-.3.1zm1.2.3s.2-.1.2-.2.1 0 .1 0-.1.2-.3.2zm1.2 0s.2-.2.1-.4c0-.2-.3.1-.3.1s-.1.2-.2.3c0 0 .2-.1.3-.3.1 0 .1.1.1.3zm4.8.5s-.1-.2-.1-.4-.2 0-.2 0 .1.3.3.4zm2.1-.1s-.2-.1-.3-.2c-.1-.2-.1 0-.1 0s.1.2.4.2zm.2-.2s-.3-.1-.4-.2c-.1-.1-.1.1-.1.1s.2.2.5.1zm.8-.7h-.4c-.1 0 0 .1 0 .1s.2 0 .4-.1zm-1.3-1.8c-.1.1-.1.2-.1.3 0 .1-.1.1-.1.1s-.1-.3.2-.4zm-.8.5c-.1.1-.1.4 0 .5 0 .1-.2 0-.2 0s-.1-.4.2-.5zm-6.1-.9v.4s.2-.2 0-.4zm-.3-.2c.1.1.1.3 0 .4 0 .1.1.1.1.1s.1-.4-.1-.5zm-1.4-.2c0 .1.1.4.2.4s.3-.1.3-.1-.2-.3-.3-.4v.2c.1.1-.1-.1-.2-.1zm-.7.4c.1.2.3.5.4.4.1-.1-.1-.4-.4-.4zm-2.5-.7c0 .2 0 .4.2.3.1 0-.1-.3-.2-.3zm-.6-.5s-.1.1-.2.1c-.1.1 0 .2.1.2s.2-.2.1-.3z"/><path class="st11" d="M36.5 42.2c0-.3.1-.5.4-.7.4-.2.5-.3 1-.3l.6-.1c.3.2 1 .4 1.2.4.2.1.7.1 1.1 0 .4-.1.9-.3 1-.4.2-.1.4-.2.4-.4s.1-.6-.2-.9c-.2-.3-.6-.5-.8-.6-.2-.1-.4.1-.5.2l-.6.5-.5.6h-.6c.1-.3.1-.6-.1-.9-.2-.4-.9-.6-1.4-.6-.5 0-1.6.1-1.9.2-.3 0-.6.1-.7 0-.1-.1-.4-.3-.8-.5s-.8-.3-1.1-.3c-.3 0-.6.1-.8.3-.2.2-.3.4-.3.4s-.6-.7-1.2-1c-.7-.3-1.5-.2-1.8.2 0 0 0-.8-.6-1.3-.5-.5-.9-.6-1.4-.6-.6 0-.7.8-.6 1.2.1.4.3.8.9 1.2.6.4 1.3.3 1.3.3s0 .4.5.7c.5.3 1.3.4 1.8.4s1-.3 1-.3.1.6.7.9c.7.3 1.9.3 2.1.2.2-.1.6-.2.7-.3 0 0-.1.2-.1.6v1.1c0 .3.1.3.3.3h.9c.1 0 .1 0 .1-.1v-.4z"/><path class="st12" d="M38.6 41s.2-.1.3-.2c.1-.1.1-.1.1-.2s.1 0 .3 0c.1 0 .4 0 .5-.1l.4-.5c.1-.1.4-.4.6-.5l.3-.2c.1-.1.3 0 .4.1.1.1.2.1.4.3.2.2.3.4.3.6 0 .2 0 .4-.2.5-.2.1-.8.5-1.2.6-.4.1-.6.1-1.1 0-.5-.2-1.1-.4-1.1-.4zm-10-2.1s.1-.3.3-.5c0 0-.1-.6-.4-1.1-.2-.5-.7-.7-.9-.8-.2-.1-.5-.2-.8 0-.3.2-.4.8-.3 1 0 .2.2.6.7.9.3.2.7.5 1.4.5zm3.1.9s.1-.4.2-.5c0 0-.4-.5-.9-.8-.6-.3-.8-.4-1.4-.4-.5.1-.8.5-.9.7-.1.2-.1.4.1.6.2.2.5.4 1.2.6.7.1 1.3-.1 1.7-.2zm3.4-.5s-.3 0-.5-.2-.6-.3-.9-.4c-.3-.1-.7-.1-.9 0-.3 0-.6.4-.7.6-.2.2-.3.7-.1.9.2.2.6.5 1.5.7.9.1 1.5-.2 1.7-.3.2-.2.3-.5.5-.6.2-.1.4-.4.4-.4v-.1h-.6c-.1 0-.2.1-.2.1-.1 0-.2-.2-.2-.3zm.7.7c-.1.1-.2.2-.3.4-.1.2-.2.6-.2.8v1.2c0 .1 0 .2.2.2s.6 0 .7-.1c.1 0 .2-.2.2-.3 0-.2.1-.4.3-.6.2-.2.4-.3.6-.4.2-.1.5-.1.7-.1.2 0 .5-.1.7-.3.2-.1.3-.3.3-.4 0-.1 0-.3-.2-.4-.2-.1-.2-.2-.3-.3-.2-.1-.3-.2-.5-.2s-.4 0-.6.1c-.2.1-.3.2-.4.3 0 .2-.1.2-.3.2-.2 0-.4 0-.5.1v.3c0 .1-.2-.1-.2-.2-.1-.1-.1-.5-.2-.3z"/><path class="st13" d="M38.9 40.7s0-.1.1-.1c0-.1.1 0 .3 0 .1 0 .4 0 .5-.1l.4-.5c.1-.1.4-.4.6-.5l.3-.2c.1-.1.3 0 .4.1 0 0 .1 0 .1.1-.1 0-.2 0-.2.1-.1 0-.4.2-.5.4v.30000000000000004h-.1c-.2.2-.5.5-.7.5h-.1c0 .1 0 .2-.1.3-.2.1-.3.1-.3 0v-.3c-.5-.1-.6-.1-.7-.1zm-12.5-3.6c.1-.1.2-.3.3-.3.3-.1.8-.1 1 .1.2.1.4.5.5.6v.1c-.1 0-.2 0-.2.1l.1.2h.1l.1.4.1.7c0-.1.1-.3.3-.5 0 0-.1-.6-.4-1.1-.2-.5-.7-.7-.9-.8-.2-.1-.5-.2-.8 0 0 0-.1.3-.2.5zm4.6 2.3c0 .1.1.1.2.1s.1 0 .1-.1-.1-.1-.1-.1c-.1 0-.2 0-.2.1zm-.4.3c.1 0 .2 0 .2.1s0 .1-.1.1-.1 0-.1-.1c-.1 0-.1-.1 0-.1zm-.5-.3c0 .1.1.1.2 0 .2-.2-.1-.3-.2-.2-.1 0-.1.1 0 .2zm-.6.2c0 .1.2.1.3 0 0-.1 0-.1-.1-.2s-.3 0-.2.2zm-.1-.8c.1 0 .2.1.1.2 0 .1-.1.1-.2 0s-.1-.2.1-.2zm.4-.3c.1.1 0 .2 0 .2-.1 0-.1 0-.1-.1s0-.1.1-.1zm-1.7-.1c0 .1.2.1.2 0s.1-.1 0-.2c0 0-.3 0-.2.2zm-.5-.1c.1 0 .1 0 .2.1l-.1.2s-.1 0-.2-.1c0-.1 0-.2.1-.2zm0-.8c.1 0 .1.1.2.2 0 .1 0 .1-.1.1s-.1-.1-.2-.2c0 0 0-.1.1-.1zm-.6.1h.2v.2c-.1.1-.1.1-.2 0-.2 0-.1-.1 0-.2zm0-.4s.1.1.2 0 0-.1 0-.2c0 0-.3.1-.2.2zm.6-.2s0 .1.1.2c.1 0 .2 0 .2-.1s-.2-.2-.3-.1zm1.3 2.5c0-.1-.1-.3-.1-.5 0-.5.5-.5.6-.5.2 0 .7 0 1.1.2l.8.5c.2.2.3.1.3-.1-.1-.1-.2-.2-.3-.4l-.4-.3c-.6-.3-.8-.4-1.4-.4-.5.1-.8.5-.9.7-.1.2-.1.4.1.6l.2.2zm12.1.9c.1.1.1.1.2 0s0-.2 0-.2c-.1-.1-.3-.1-.2.2zm-.1.6c.1.1.2.1.3 0 .1-.1 0-.2 0-.2-.1 0-.5 0-.3.2zm-.6-.3c-.1.1 0 .2 0 .2 0 .1.2 0 .2-.1s0-.3-.2-.1zm-2.6.2c0 .1.1.1.2.1s.1-.1 0-.2c-.1 0-.3 0-.2.1zm-.7-.1c0 .1.2.1.2.1.1 0 .1-.1 0-.2s-.4-.1-.2.1zm-1.1.9c.1.1.2 0 .3 0 .1-.1.1-.1 0-.2s-.2-.1-.3 0v.2zm-2.8-2.6c.1.1.2.1.2 0s0-.2-.1-.2c.2 0 .6.2.9.4v.1c0 .1.1.1.2.1s.1 0 .1-.1c.1 0 .2.1.2.1.3.2.7.4.8.4h.2c.2-.1.4-.4.4-.4v-.1h-.6c-.1 0-.2.1-.2.1s-.2-.1-.2-.3c0 0-.3 0-.5-.2s-.6-.3-.9-.4c-.3-.1-.7-.1-.9 0-.3 0-.6.4-.7.6-.2.2-.3.7-.1.9v-.6c.1-.2.3-.5.5-.5.2-.1.5-.2.7-.2 0 0-.1 0-.1.1s.1.2.1.2zm.6.5c.1 0 .1.2.1.2s-.1.1-.2.1-.1-.1-.1-.2.1-.1.2-.1zm.7.3c0-.1.2-.1.2-.1.1 0 .1.1.1.2 0 0 0 .1-.2.1-.1 0-.2-.1-.1-.2zm-.4.4c.1 0 .1.1.1.1 0 .1 0 .1-.1.1s-.2-.1-.2-.1.1-.1.2-.1zm-1.1-.2c.1 0 .2 0 .2.1s0 .1-.1.2c-.1 0-.2 0-.2-.1-.1 0 0-.1.1-.2zm-.4-.6c0 .1 0 .1.1.2.1 0 .2-.1.2-.2 0 0-.2-.2-.3 0zm3.1 2.2c.1-.1.2-.5.4-.7.1-.2.1-.2.2-.2s.2 0 .3-.1l.2-.4c.1-.1.2-.2.4-.3.2-.1.2-.1.3-.1.1 0 0 .1 0 .1s.2 0 .2-.1c.1-.1 0-.2.3-.2.2 0 .3 0 .3.1v.1c0 .1 0 .2.1.3.1 0 .2 0 .3-.1.1-.1 0-.1 0-.2l.1.1c.1.1.1.1.2.1s.1-.1.1-.2l-.1-.1c-.2-.1-.2-.2-.3-.3-.2-.1-.3-.2-.5-.2s-.4 0-.6.1c-.2.1-.3.2-.4.3 0 .2-.1.2-.3.2-.2 0-.4 0-.5.1v.3h-.2c-.1 0-.2-.2-.2-.2-.1-.1-.1-.1-.1 0l-.2.7-.1.6v.4c0 .1.1.3.2.2-.2.1-.2-.1-.1-.3z"/><path class="st11" d="M27.6 37.2s0 .1.1.2c.1 0 .2 0 .2-.1s0-.2-.1-.2v.1h-.2zm13 3s0 .1.1 0c.1 0 .1-.2.1-.2v-.1.2c-.1.1-.2.1-.2.1zm-1.4.7c0 .1 0 .2.2.2s.2-.2.3-.3l-.1.1c-.2.2-.3.1-.4 0zm1-.1c0 .1 0 .2.2.2.1 0 .2-.1.2-.3 0-.1-.1-.1-.1-.1s.1.1 0 .2c0 .1-.2.1-.2.1l-.1-.1zm.6.2c0 .1 0 .2.1.2s.2-.1.2-.2c0 .1-.1.1-.3 0zm.2-.7s0 .2.2.2c.1 0 .2-.2.2-.2s0-.1-.1-.1c.1 0 .1.1 0 .2-.1 0-.2 0-.3-.1zm-5.1 1.4c0 .1 0 .1.2.2.1 0 .2-.1.2-.1v-.1s0 .1-.1.1-.2 0-.3-.1zm1.5-1.5s.2 0 .2-.1v-.2s0 .1-.1.1c0 .2-.1.2-.1.2zm.7-.1c0 .1 0 .2.1.3.1.1.3 0 .3-.1v-.1c-.1.1-.2.1-.3.1-.1 0-.1-.1-.1-.2zm.4.1zm-1.5.5c-.1.1-.1.2 0 .2.1.1.2.1.2 0 .1 0 .1-.1.1-.1s0 .1-.1.1-.2 0-.2-.1c-.1-.1-.1-.1 0-.1zm.2.1zm-1 .1s.1.1.2.1.1-.1.1-.1v-.1s0 .1-.1.1h-.2zm-2.4-.4s0 .1.1.1h.2v-.2c0 .1 0 .1-.1.1-.1.1-.2 0-.2 0zm.6-.5c0 .1 0 .1.1.2s.2 0 .2 0l.1-.1s0 .1-.2.1c-.2-.1-.2-.1-.2-.2zm-1.5.4h.2l.1-.1c0-.1-.1-.1-.1-.1s0 .1.1.1c-.1 0-.1.1-.3.1zm.1-1.4c0 .1 0 .2.2.3.2 0 .2-.1.2-.2 0 0 0-.1-.1-.1v.1c0 .1-.2.1-.2 0l-.1-.1zm.5.8c0 .1.1.1.2.1l.2-.1c0-.1 0-.1-.1-.2v.1s-.1.1-.2.1c0 .1-.1.1-.1 0zm-1-.3v.2c0 .1.1.1.2.1 0 0 .1-.1.1-.2 0 .1-.1.1-.2.1 0 0-.1-.1-.1-.2zm1.6-.1c0 .1.1.2.2.1.1 0 .1-.1.1-.1 0 .1-.1.1-.1.1-.1-.1-.1-.1-.2-.1zm-3.1-.1s0 .2.1.3c.1 0 .2-.1.2-.1h-.1c-.1 0-.1 0-.2-.2zm-1.3-.7s0 .1.1.2c.1 0 .2-.1.1-.1l-.1.1c-.1-.1-.1-.2-.1-.2zm-.5.3c0 .1 0 .2.1.2s.2-.2.2-.2v.1c-.1 0-.2 0-.3-.1zm.9.4c0 .1 0 .2.1.3.1 0 .2-.1.2-.2l-.1.1c-.1.1-.2.1-.2 0v-.2zm.5.6l.1.1c.1 0 .1-.1.1-.1 0-.1 0-.1-.1-.1 0 0 .1 0 .1.1s0 .1-.1.1l-.1-.1zm-2.4-2.2c0 .2.1.2.1.2.1 0 .1-.1.1-.1s-.1.1-.1 0l-.1-.1zm-.1.7c0 .1 0 .2.1.2s.2-.2.2-.2v.1c-.1 0-.3 0-.3-.1zm-.5.2c.1 0 .2-.1.2-.1l-.1-.1s.1 0 .1.1c0 0-.1 0-.2.1zm-.1-.8s0 .2.1.2l.2-.1h-.1c-.1 0-.2-.1-.2-.1zm-.6.1s.1.1.2.1.1-.1.1-.2-.1-.1-.1-.1v.2h-.2zm.1-.7s0 .2.1.2.2-.1.2-.2-.1-.1-.1-.1c0 .1.1.1 0 .2-.1 0-.2 0-.2-.1z"/><path class="st10" d="M26.9 37s.1.2.2.2.1-.1.1-.2-.1-.2-.1-.2v.2c0 .1-.1 0-.2 0zm13.8 2.7l-.2.2c.1.1.2 0 .2-.2zm.6.4c-.1 0-.2.1-.2.2s.1-.1.2-.2zm-.1.7c-.1 0-.3.1-.3.2.1 0 .2 0 .3-.2zm-.8-.3c-.1.1-.2.3-.1.4.1 0 .2-.2.2-.2s-.1 0-.2.1c.1-.1.1-.2.1-.3zm-.8.1c-.2.1-.4.2-.3.3.1.1.3-.2.3-.3zm-2-.9c-.1 0-.3.2-.3.3.1 0 .3-.2.3-.3zm.8.2c-.2.1-.3.2-.2.3.1.1.2-.1.2-.3zm-.3.8c-.1 0-.4 0-.3.2 0 0 .2.1.3-.2zm-.9-.4c-.1.1-.2.3-.2.4 0 0 .3-.1.4-.1 0 0-.1-.1-.3-.1l.1-.2zm-1 .9c-.2.1-.2.3-.2.4.1.1.4-.1.4-.2 0 0-.2 0-.3.1 0 0 0-.1.1-.3zm.3-.9c-.1.1-.3.3-.3.4.1.1.3-.3.3-.4zm-.9.2c0 .2-.1.3 0 .3s.1 0 .1-.1c0 .1-.1.1-.1-.2zm-2.7-1.7c.1.1.2.3.3.2.2 0-.1-.2-.3-.2zm1.1.2c0 .1.2.4.3.3.1 0-.1-.3-.3-.3zm.2.9c.1.1.2.2.3.1.1 0 0-.1-.3-.1zm-1.5.4c.1-.1.2-.1.2-.1.1.1-.1.2-.2.1zm1 .2c.1-.1.3-.1.3 0h-.3zm-.5-.9c.1.1.3.3.4.2.1-.1-.3-.4-.3-.4s0 .1.1.2c0 .1-.1 0-.2 0zm-.9 0c.1 0 .3.1.4 0 0-.1-.2-.3-.4-.3 0 0 .1.2.2.3 0-.1-.1-.1-.2 0zm-1.4-.2c.1.1.3.1.3 0s-.1-.1-.3 0zm-.6.4c.1-.1.3-.1.3 0s-.2.1-.3 0zm-.4-.8c.1 0 .3.2.3.3 0 .1-.4 0-.4 0s.2-.1.2 0c.1 0 0-.2-.1-.3zm-.6.6c.1 0 .3 0 .3-.1s-.2-.2-.3-.2c0 0 0 .1.1.1l-.1.2zm-.2-.8c0 .1.2.2.2.2.2-.1-.1-.2-.2-.2zm.5-.5c.1.2.2.3.3.3 0-.1-.2-.3-.3-.3zm-2.2 0c0 .1.1.2.2.2 0 0 0-.2-.2-.2zm.6-.1l.1.2s.1-.3 0-.4c.1 0 0 .1-.1.2zm.2-.9c0 .1 0 .4.1.4s0-.3-.1-.4zm-1.4.3c0 .1.1.2.2.2 0-.1-.1-.2-.2-.2zm.6 0c0 .1.1.3.2.2.1 0-.1-.2-.2-.2zm.3-.8c0 .1-.1.3 0 .3s.1-.2 0-.3z"/><radialGradient id="SVGID_3_" cx="26318.699" cy="-8158.962" r="13.539" gradientTransform="matrix(.052 0 0 .052 -1344.775 461.182)" gradientUnits="userSpaceOnUse"><stop offset="0" stop-color="#fff"/><stop offset=".75" stop-color="#F05870"/><stop offset="1" stop-color="#F05770"/></radialGradient><path class="st14" d="M26.1 35.4c.2-.1.6.1.8.4.2.4.2.8-.1.9-.2.1-.6-.1-.8-.4-.2-.3-.2-.7.1-.9z"/><path class="st15" d="M25.6 34.2c.1 0 .2.1.2.2s0 .1-.1.2l.3.5-.2.1-.3-.6c-.1 0-.2-.1-.2-.2.1-.1.2-.2.3-.2z"/><path class="st5" d="M25.6 34.2c-.1 0-.1.1-.1.2s.1.2.2.2.1 0 .2-.1c0 0 0 .1-.1.1l.3.5v-.1c0-.1-.2-.4-.2-.2l.1.4-.3-.6c-.1 0-.2-.1-.2-.2-.1-.1 0-.2.1-.2z"/><path class="st16" d="M25.5 35.7c0 .2.1.3.3.2.2-.1.2-.2.2-.3.1 0 .2 0 .3-.1v-.1c.1.1.2.1.3 0 .2-.1.2-.3 0-.4v-.1c0-.1 0-.1-.1-.1h-.2c-.1 0-.1 0 0 .1 0 0 .1 0 0 .1v.1l-.1-.1v-.1c0-.1 0-.1-.1 0-.1 0-.2.1-.2.1-.1 0-.1.1 0 .1s.1 0 .1.1v.2h-.1c-.1 0-.1 0-.1-.1h-.1l-.2.2c-.2.1-.2.1 0 .2-.1-.1 0-.1 0 0z"/><path class="st17" d="M26.4 35.1c.1 0 .2 0 .2.1s-.1.2-.1.2l-.2-.1c0-.1 0-.2.1-.2zm-.8.5c.1-.1.1-.1.2-.1.1.1 0 .2 0 .2h-.2v-.1zm.4-.3c.1-.1.2-.1.2 0 .1.1 0 .2 0 .2h-.2c-.1-.1-.1-.2 0-.2z"/><radialGradient id="SVGID_4_" cx="15999.357" cy="-29186.209" r="13.547" gradientTransform="matrix(.033 .028 -.028 .033 -1315.154 541.94)" gradientUnits="userSpaceOnUse"><stop offset="0" stop-color="#fff"/><stop offset=".75" stop-color="#F05870"/><stop offset="1" stop-color="#F05770"/></radialGradient><path class="st18" d="M30.8 37.6c.2 0 .4.4.3.7-.1.3-.3.6-.5.5-.2 0-.4-.4-.3-.7.1-.3.3-.5.5-.5z"/><path class="st15" d="M31.2 36.6c.1.1.1.2 0 .3l-.1.1-.1.4h-.2s.1-.3.1-.5c-.1-.1-.1-.2 0-.3.1-.1.2-.1.3 0z"/><path class="st5" d="M31.2 36.6h-.2c-.1.1-.1.2 0 .2h.1-.1v.6-.1-.3c0 .1-.1.2-.2.3 0 0 .1-.3.1-.5-.1-.1-.1-.2 0-.3.1 0 .2 0 .3.1z"/><path class="st16" d="M30.3 37.4c-.1.1-.1.3.1.3.1 0 .3 0 .3-.1 0 .1.1.1.2.1h.1c0 .1.1.1.2.2.1 0 .3-.1.2-.2.1 0 0-.1 0-.1l-.2-.1h-.1v.1h-.1v-.1l.1-.1-.1-.1h-.30000000000000004v.1l-.1.1s0-.1-.1-.1v-.1h-.30000000000000004c.1 0 .1 0 .1.1z"/><path class="st17" d="M31.2 37.6c.1 0 .1.1.1.1 0 .1-.1.1-.2 0 0 0-.1-.1 0-.2 0 .1.1.1.1.1zm-.8-.1c.1 0 .1 0 .2.1 0 .1-.1.1-.1.1l-.1-.1v-.1zm.5 0c.1 0 .1 0 .1.1s-.1.1-.2.1l-.1-.1c0-.1.1-.1.2-.1z"/><radialGradient id="SVGID_5_" cx="-1914.353" cy="-26093.076" r="13.547" gradientTransform="matrix(.008 .047 -.052 .018 -1288.797 598.94)" gradientUnits="userSpaceOnUse"><stop offset="0" stop-color="#fff"/><stop offset=".75" stop-color="#F05870"/><stop offset="1" stop-color="#F05770"/></radialGradient><path class="st19" d="M42.9 38.9c.2.2 0 .6-.3.9-.3.3-.7.4-.9.2-.2-.2 0-.6.3-.9.3-.3.7-.4.9-.2z"/><path class="st15" d="M43.8 38.3c0 .1 0 .2-.1.2h-.2l-.3.4-.2-.2s.3-.2.4-.3c0-.1 0-.2.1-.2.2-.1.3 0 .3.1z"/><path class="st5" d="M43.8 38.3c0-.1-.1-.1-.2-.1s-.2.1-.1.2c0 .1.1.1.1.1h-.1l-.3.4v-.1s.3-.3.1-.2c-.1 0-.2.1-.3.2 0 0 .3-.2.4-.3 0-.1 0-.2.1-.2.2-.2.3-.1.3 0z"/><path class="st16" d="M42.5 38.5c-.2 0-.2.2-.1.3.1.1.2.1.3.1 0 .1.1.2.2.2h.1c0 .1 0 .2.1.3.1.1.3.1.3-.1h.1c.1 0 .1 0 0-.1 0-.1 0-.1-.1-.2 0 0 0-.1-.1 0 0 0 0 .1-.1 0h-.1v-.1h.1v-.1c0-.1-.1-.1-.2-.2h-.1v.1s-.1 0-.2.1v-.1c0-.1 0-.1.1-.1v-.1l-.2-.1s-.1-.1-.1.1z"/><path class="st17" d="M43.2 39.2c0 .1.1.1 0 .2-.1 0-.1 0-.2-.1 0 0 0-.1.1-.2 0 0 .1 0 .1.1zm-.6-.6c.1 0 .1.1.1.1 0 .1-.1.1-.2.1 0 0-.1-.1-.1-.2h.2zm.4.2c.1.1.1.1.1.2-.1.1-.2 0-.2 0v-.2h.1z"/><path class="st20" d="M37.1 38c0 .2.1.2 0 .3-.1 0-.3.2-.4.3l-.2.1h-.3l-.3-.1c-.1 0-.2.1-.2.2-.1.1-.1.2-.1.2l.1.3s0 .1.3.1v.2c0 .1.3.4.3.4s.2.1.4 0 .1-.3.1-.3.4-.3.5-.3v-.1s0 .1.2.1.2-.2.2-.2 0 .2.2.2.2-.2.2-.2 0 .1.2.1c0 0 0 .1.1.1 0 0 0 .2.2.3.2.1.4 0 .4 0h.1l.3-.3s0-.1-.1-.1c0 0 .1-.4-.5-.3 0 0-.1-.2-.3-.2 0 0-.1-.2-.3-.2l-.3-.3c-.2-.1-.4-.5-.4-.5h-.1c-.1-.1-.3-.1-.3.2z"/><path class="st21" d="M35.9 39.3c.1-.1.1-.2.2-.2h.1l.3-.1c.1-.1.3-.2.3-.3h.2-.1-.1l-.3.3c-.1.1-.2.1-.3.1h-.1l-.2.2zM37.1 38.3v.30000000000000004s0 .1.1.1h.2c.1 0 .2 0 .2-.1l.1-.1v-.5.5c0 .1 0 .1-.1.1 0 0-.1.1-.2.1h-.2c-.1 0-.1-.1-.1-.2v-.2zM37.7 38.5l.1.1h.1c.1 0 .2-.2.2-.2s-.1.2-.2.2h-.1c0 .1-.1 0-.1-.1zM38 38.7s0 .1.1.1l.1.1h.2l.2-.2s-.1.2-.2.2c0 0-.1.1-.2 0l-.1-.1c-.1 0-.2-.1-.1-.1zM38.3 38.9s0 .1.1.1l.1.1h.1s.1 0 .1-.1l.1-.1.1-.1s0 .1-.1.1l-.1.1-.1.1h-.1l-.1-.1c-.1 0-.2-.1-.1-.1zM36.7 38.9l.1.1.1.1h.2s.1-.1.2-.1c.1-.1.1-.1.1-.2 0 0-.1.1-.1.2-.1.1-.1.1-.2.1h-.2l-.1-.1c0-.1-.1-.1-.1-.1zM36.3 39s.1.1.1.2c0 0 .1.1.2.1h.1l.1-.1c0 .1-.1.1-.1.1s-.1.1-.2.1l-.2-.1c.1-.1 0-.2 0-.3zM36.2 38.6v.2c0 .1 0 .1.1.1h.1c.1 0 .1 0 .2-.1l.1-.1-.1.1s-.1.1-.2.1h-.2l-.1-.1c0-.1 0-.2.1-.2zM36.6 38.5c0 .1 0 .2.1.2h.2-.2c-.1 0-.1 0-.1-.2 0 .1-.1.1 0 0z"/><path class="st22" d="M35.2 39.6s-.2-.5.4-.3c0 0 .1-.3-.1-.5 0 0-.5 0-.6.3 0 .3.3.5.3.5zM36.2 39.9s-.4 0-.1.5c0 0-.5-.2-.4-.6.1-.4.4-.3.4-.3 0 .1.2.2.1.4zM39.4 39.3c.2 0 .3.2.4.5 0 .3-.3.4-.6.3 0 0 .2 0 .2-.2s-.1-.3-.3-.3c-.1 0 0-.2 0-.2l.3-.1z"/><path class="st23" d="M29.7 35.6c-.1 0-.4.1-.5-.1-.2-.2-.2-.4-.3-.6-.1-.2-.2-.5-.6-.8-.4-.3-.6-.5-.6-.7 0-.2.2-.6.3-1 .1-.4 0-.9-.9-1.3h-.4l-.1.4.3.1c.1.1.5.3.3.7-.1.4-.4.8-.3 1.4.1.6.7.9.9 1 .2.2.3.3.3.7.1.4.1 1 .6 1.2.4.2.9.1 1.3-.2.4-.2-.3-.8-.3-.8z"/><path class="st24" d="M28.1 35.4c.1.5.1 1.1.6 1.3.4.2.9.1 1.3-.2.1-.1.1-.2.1-.4-.1 0-.1.1-.1.1-.1.1-.2.3-.4.4-.2.1-.5.1-.5.1l.2-.3c-.3.1-.6 0-.6 0 0-.1.2-.4.2-.4-.3 0-.5-.1-.5-.1l.2-.3-.5-.2zM29.7 35.6c-.1 0-.4.1-.5-.1-.2-.1-.2-.3-.3-.5l-.4.6h.4s0 .3-.1.5c0 0 .3-.1.4-.2l-.1.5s.2 0 .4-.2l.3-.3c0-.2-.1-.3-.1-.3zM28.8 34.8c-.1-.1-.1-.3-.3-.4l-.2.2-.1.1s-.3 0-.5.1c.1.1.2.2.3.4l.2-.5.6.1z"/><path class="st25" d="M29.4 35.7h-.1l-.3.3.2-.4-.4.2.3-.5c-.1.1-.2.5-.3.5-.1.1-.1.1-.2.1 0 0-.2-.1-.3-.2.1 0 .3.2.3.2l-.1.1s0 .1-.1.1c0 0 0 .1-.1.1v.1h.1c.1 0 .4.1.4.1l-.2.2-.1.1v.2h.2c.2 0 .4-.1.4-.1 0 .1-.2.3-.2.3s.3 0 .5-.1.5-.3.6-.5c-.1 0-.1.1-.2.2-.3.4-.7.4-.7.4.1-.1.1-.2.1-.2.4-.1.7-.6.7-.6-.1.3-.5.5-.5.5-.1-.7 0-1.1 0-1.1zm-.5-.9c-.1 0-.1-.1 0 0v-.1c-.2-.1-.5-.1-.5-.1 0-.1.2-.2.2-.2-.2.1-.3.3-.3.3-.2 0-.4.1-.5.1l.3-.1c.1 0 .1 0 0 .1l-.1.3.1-.4c0-.1 0-.2.1-.1.2.1.6.2.7.2zm-.6-.7l-.1-.1c-.1 0-.4.1-.4.2-.1.1-.1.3-.1.4 0-.1.1-.2.2-.4l.4-.1zm-.3-.3c-.2-.1-.3 0-.4 0-.1 0-.3.3-.4.4.1-.1.2-.2.3-.4.2.1.4.1.5 0zm-.2-.1l-.1-.1h-.4c-.1.1-.3.2-.3.3.1-.1.2-.3.4-.3.2.1.3.1.4.1zm0-.7v-.1c-.1-.1-.2-.2-.4-.3l-.4.1c.1-.1.3-.1.4-.1.2.2.3.4.4.4zm.1-.3v-.1l-.3-.3c-.1 0-.3 0-.4.1.1-.1.2-.1.4-.1l.3.4zm.1-.6v-.1l-.3-.1c-.1 0-.3.1-.4.2.1-.1.2-.1.4-.1l.3.1zm-.2-.5l-.1-.1c-.1 0-.2 0-.3.1-.1.1-.2.2-.2.3 0-.1.1-.2.2-.3h.4zm-.4-.3c-.2 0-.2.1-.3.1 0 .1-.1.2-.1.4 0-.1 0-.2.1-.3.1-.1.2-.2.3-.2zm-.2-.2c-.1 0-.2 0-.3.2v.3-.3c.1 0 .2-.1.3-.2zm1.4 5.2l.3-.3s.2 0 .4-.2c0 0-.1.3-.1.4-.1 0-.4.2-.6.1zm0-.7h.3s-.1.2-.1.4c0 0-.3 0-.4-.1l.2-.3z"/><path class="st26" d="M29.7 35.6c-.1 0-.4.1-.5-.1-.2-.2-.2-.4-.3-.6-.1-.2-.2-.5-.6-.8-.4-.3-.6-.5-.6-.7 0-.2.2-.6.3-1 .1-.4 0-.9-.9-1.3h-.4l-.1.4.3.1c.1.1.5.3.3.7-.1.4-.4.8-.3 1.4.1.6.7.9.9 1 .2.2.3.3.3.7.1.4.1 1 .6 1.2.4.2.9.1 1.3-.2.4-.2-.3-.8-.3-.8z"/><path class="st27" d="M32 35l.2.1.1.3-.3.2v-.6z"/><path class="st28" d="M29.2 26.4c.1.1.1.2.1.4v.3c0 .1.1 0 .1-.1s.1-.3 0-.5c0-.1 0-.2-.1-.2l-.1.1z"/><path class="st23" d="M29.7 28.1s-.5.1-.8.1c-.3 0-.3-.2-.3-.3 0 0 .7-.1.9-.5.2-.3 0-.1-.2 0s-.5.2-.6.2c-.2 0-.1-.1-.1-.3 0-.1.2-.3.3-.4l.1-.4.2-.2c.1-.1 0-.3-.1-.2l-.2.2h-.2c-.1 0-.5.3-.6.4-.1.1-.4.4-.4.6 0 .3.2.4.2.4v.7c0 .2.1.5.4.6h1.1l.3-.9z"/><path class="st25" d="M29.7 28.1s-.5.1-.8.1c-.2 0-.2-.1-.3-.2l-.5.1c-.1 0-.1.1-.2.2v.1c.3-.3.5-.3.5-.3-.2.2-.1.5-.1.5-.1.1-.1.3-.1.4h1.2000000000000002l.3-.9zm-.6.5c.1.1.3.2.3.2s.2-.3.1-.4c0 0-.1-.1-.1-.2h-.1c-.1.2-.2.3-.2.4zm-.3.3s-.3-.3-.3-.4l.3-.3s0 .1.1.2 0 .1 0 .1c0 .2 0 .3-.1.4zM28.2 26.7c.1 0 .2-.1.2-.2s.2-.2.5-.1v.2c0 .1 0 .2-.1.3l-.1.3c0 .1-.1.2-.2.4v.3h.1s0 .1-.1.1-.1-.1-.1-.2 0-.2.1-.3c.1-.1.2-.3.2-.4 0-.1 0-.1.1-.2 0-.2.1-.3.1-.3s-.2-.1-.3 0c-.1 0-.2.1-.4.1z"/><path class="st29" d="M28.4 27.1c.1-.1.3-.2.3-.3v-.1c0-.2.1-.3.1-.3s-.2-.1-.3 0c-.1.1-.3.3-.4.2 0 0-.2.1-.3.2-.1.1-.1.3 0 .3.2.3.5.1.6 0z"/><path class="st10" d="M28.9 26.4z"/><path class="st24" d="M29.7 28.1s-.5.1-.8.1c-.1 0-.2-.1-.2-.2-.1 0-.2.1-.2.2s0 .1-.1.2v.1l.3-.3s.1 0 .1.1.1.2.1.2.2-.2.2-.3h.1l.2.1h.1l.2-.2zm-1.4.9h.4l-.1-.1-.2-.3h-.1c.1.1 0 .3 0 .4zm.7 0h.6s-.1 0-.1-.1c0 0-.2-.2-.3-.2h-.1c-.1.1-.1.2-.1.3z"/><path class="st26" d="M29.7 28.1s-.5.1-.8.1c-.3 0-.3-.2-.3-.3 0 0 .7-.1.9-.5.2-.3 0-.1-.2 0s-.5.2-.6.2c-.2 0-.1-.1-.1-.3 0-.1.2-.3.3-.4l.1-.4.2-.2c.1-.1 0-.3-.1-.2l-.2.2h-.2c-.1 0-.5.3-.6.4-.1.1-.4.4-.4.6 0 .3.2.4.2.4v.7c0 .2.1.5.4.6h1.1l.3-.9z"/><path class="st30" d="M30.4 29.5s-.2.2-.6 0c-.4-.2-.6-.6-.5-.9 0-.3.4-.6.6-.7 0 0 0-.2.3-.4 0 0-.1-.1 0-.3.2-.1.7-.4.9-1.5 0 0 .2.1.1.7 0 0 .3-.2.3-1.1 0 0 .3.2.1.8 0 0 .1 0 .2-.1s.2-.4.2-1.1c0 0 .2 0 .3.7 0 0 .4-.3.4-.7 0 0 .2.2.3.7h.2s.4 0 .7.1c.3.1.6.3.8.1v.3s.5.3.7 1c0 0 .3-.5-.2-1s-.9-.5-1.1-.6c-.2-.1-.5-.1-.5-.6s.2-.8 1.1-.8c0 0 0-.4 1-.4s2.1.3 2.9.6c.8.3 1 .5 1.4.7.3.2.4.2.7.2.4 0 .4 0 .4.1-.1.1-.2.2-.2.3v.1s.7.4 1.1.9c.5.5 1.1 1.3 1.2 1.5.1.2.8 1.5.9 1.9.2.4.3.6.6.7.2.1.2.3-.2.3 0 0 .2.5.3 1.4.1.9-.2 1.3-.2 1.7-.1.3-.2 1.2-.2 1.9s0 .9-.2 1.2c-.1.3-.1.3-.1.5s-.2.2-.2 0v-.5c.1-.3.1-.7 0-1.1-.1-.4-.1-.7-.1-1l-.1-1.8c0-.3-.3-.6-.4-.6 0 0 0 1.4.1 1.7 0 .4.1 1.3.1 1.8s0 .9-.1 1.1c0 .2-.2.1-.2-.1v-1.3c0-.2-.2-.4-.3-.7-.1-.3-.1-.8-.1-1.1 0-.4-.2-1.1-.4-1.3 0 0 .1 1.1.1 1.5 0 .5.1 1 .1 1.4v1.1c0 .1-.1 0-.1-.1v-.9l-.2-.5c-.2-.3-.3-.8-.3-1 0-.3 0-.7-.1-.9 0-.2 0-.5-.4-.6 0 0 0 .5.1.8.1.3.3.7.3 1.1.1.3.1.5.1.7 0 .1-.1 0-.2-.1 0-.1-.2-.6-.3-.8 0-.2-.2-.8-.3-1-.1-.2-.3-.6-.6-.6 0 0 .1 0 .2.3l.2.7c.1.3.1.6.2.8.1.2.2.3.1.3 0 0-.2-.1-.2-.2s-.3-.5-.4-.7c-.1-.2-.2-.4-.2-.6 0-.1 0-.2-.2-.3l-.5-.4c-.1-.1-.3 0-.3 0s.1.1.3.5c.1.4.1.5.2.6l.3.5c.1.1.2.1 0 .1-.1 0-.2-.1-.3-.3-.2-.2-.5-.8-.7-.9-.1-.1-.2-.3-.5-.4-.3-.1-.5-.4-.6-.5-.1-.1-.2-.1-.2-.1s0 .2-.2.4c0 0 .4.5.4 1.6 0 0 4.5 3.4 4.6 3.5.2.1-.7.6-1.1.4 0 0-.6.5-1.1.2 0 0-.3.5-1-.1 0 0-.3.4-.7 0-.4-.4-.9-1-.9-1s.1.7 0 .7-.3-.2-.3-.2.1.5-.1.5c-.1 0-.5-.5-.5-.5s.1.7.1.8c-.1 0-.6-.6-.6-.6s-.1.4-.2.4-.7-1-.7-1 0 .1-.9-1c0 0 0 .9-.2 1-.2 0-.3-.4-.3-.4s-1.1.5-1.4.3c0 0-.1-.1 0-.3 0 0-1-.2-1.2-.4 0 0 .1-.2.6-.2 0 0-.1 0-.1-.1 0 0 .2.2.6.1 0 0-.4-.2-.5-.3 0 0 .1-.5.7-.5 0 0-.4-.2-.5-.3-.1-.2-.2-.4-.1-.4s.2 0 .3.1c.1.1.2.2.3.2 0 0-.9-.8-.7-1.6 0 0-.2-.3-.2-.4l-.3.2s-.1-.6-.2-.9c-.1-.2-.3-.5-.2-.8 0-.3.2-.7.5-1.1v-.1h-.2s.3-.7.6-1.1c0 0-.1 0-.2-.1 0 0 .2-.2.3-.7h-.1s0-.4-.3-.3v.2s-.1.1-.4.3c-.3.2-.5.2-.8.3.2-.2-.4-.2-.4.4z"/><path class="st31" d="M33.1 25.8h.2s.4 0 .7.1c.3.1.6.3.8.1v.3s-.1.3-.5.3c0 0 .2.2.2.4 0 0-.1.1-.5 0 0 0 .3.4.2.5-.1.1-.6 0-.6 0v.3c0 .1-.1.1-.1.1-.1 0-.3.1-.3-.2 0-.3-.4-.3-.4-.3s.1-.2 0-.4c0-.2-.6 0-.6 0 .9-.6.9-1.2.9-1.2z"/><path class="st32" d="M33.1 25.8h.2s.4 0 .7.1c.3.1.6.3.8.1 0 .1-.1.3-.5.2l-.8-.3c-.2-.1-.4-.1-.4-.1zm1.6.6c-.1.1-.2.1-.3.1-.2-.1-.3-.2-.4-.3-.2-.1-.5-.2-.5-.2h-.5l.2.1.1.1s.4 0 .7.2h.7zm-.2.6s-.1.1-.5 0c0 0-.2-.1-.3-.3-.2-.2-.8-.3-.8-.3v-.1l.6.1c.7.2 1 .6 1 .6zm-.4.5c-.1.1-.6 0-.6 0-.1-.4-.3-.5-.4-.5-.1 0-.1-.1 0-.1s.7.3.8.4l.2.2zm-.9.3c0-.3-.3-.4-.3-.4s.3-.3.2-.5l.3.3c.2.2.1.4.1.5-.1.2-.2.3-.3.1z"/><path class="st33" d="M30.4 29.5s-.2.2-.6 0c-.4-.2-.6-.6-.5-.9 0-.3.4-.6.6-.7 0 0 0-.2.3-.4 0 0-.1-.1 0-.3.2-.1.7-.4.9-1.5 0 0 .2.1.1.7 0 0 .3-.2.3-1.1 0 0 .3.2.1.8 0 0 .1 0 .2-.1s.2-.4.2-1.1c0 0 .2 0 .3.7 0 0 .4-.3.4-.7 0 0 .2.2.3.7 0 0 .1.7-.8 1.3 0 0 .5-.2.6 0v.4s.4 0 .4.3.2.3.3.2c.1 0 .1-.1.2-.4 0 0 .1 0 .3.1 0 0 0 .5-.2.9 0 0 0-.6-.2-.5-.2 0-.2.1-.2.3-.1.2-.5.5-.5.5s.3-.4.3-.5c.1-.2 0-.2-.1-.1s-.2.2-.3.2h-.1s0-.4-.3-.3v.2s-.1.1-.4.3c-.3.2-.5.2-.8.3-.2.1-.8.1-.8.7z"/><path class="st34" d="M37.9 38.3l-.5-.4c-.1-.3-.3-.8-.3-.8s0-.1.1-.2c0-.1.2-.2.2-.1s.2.7.3 1c0 .1.1.3.2.5zm-.4.1v.2c-.1 0-.6-.6-.6-.6s0 .1-.1.2-.2.2-.2 0c-.1-.1-.3-.9-.4-1.1 0-.2.2-.3.2-.3s.2.1.3.3c.1.2.3.5.3.5v-.3c0-.1 0-.1.1 0l.2.5c.1.1.1.4.2.6z"/><path class="st33" d="M36.7 30.9c.1.1.2.4.3.4.1.1.1.1.2.1l.5-.3c.1-.1.2-.2.2-.3v-.2c.1 0 .1.1.2 0s.3-.2.3-.3v-.5h.2c.1 0 .3-.3.3-.4v-.3c0-.1-.1-.2-.2-.3l-.3-.3s-.1-.2-.2-.1-.1.2-.1.3c0 .1 0 .1.1.2s.1.2.2.4v.3h-.1c-.1-.1-.2-.2-.2-.3-.1-.1-.1 0-.2 0-.1.1-.2.3-.2.4v.1c.1 0 .2.1.2.3 0 .2-.1.3-.1.3h-.1s-.2-.3-.3-.3c0 0-.1 0-.1.1-.1.1-.2.3-.3.3v.1l.1.1c0 .1 0 .1-.1.1h-.3c.1 0 .1 0 0 .1z"/><path class="st34" d="M38.4 28.4s-.1-.1-.1 0c-.1.1-.1.2-.1.3 0 .1 0 .1.1.2s.1.2.2.4v.3s0 .1.1.1l.2-.2c.1-.1.1-.3 0-.5-.2-.1-.3-.4-.4-.6zm-.6.9c-.1.1-.1.3-.2.3v.1c.1 0 .2.1.2.3 0 .2-.1.3-.1.3s.1.1.2 0 .2-.2.2-.3l-.1-.4s-.1-.2-.2-.3zm-.4.7l-.4.4v.1l.1.1c0 .1 0 .1-.1.1h-.3c-.1.1-.1.1-.2.1.1 0 .2.2.4.2s.3-.2.4-.3v-.5c.1-.1.1-.1.1-.2z"/><path class="st35" d="M36.9 31.3c.1.1.1.1.2.1l.5-.3c.1-.1.2-.2.2-.3v-.2c.1 0 .1.1.2 0s.3-.2.3-.3v-.5h.2c.1 0 .3-.3.3-.4v-.3c0-.1-.1-.2-.2-.3l-.1-.1v.2l.2.4c0 .1 0 .2-.1.3-.1.1-.2.2-.3.2-.1 0-.1-.1-.1-.1h-.1c-.1-.1-.2-.2-.2-.3h-.1v.2c0 .1.2.3.3.4.1.1.1.3.1.4-.1.1-.3.3-.4.3-.1 0-.1 0-.2-.1 0 0-.2-.3-.3-.3v.2c0 .1.2.2.3.3.1.1 0 .1 0 .3 0 .1-.1.2-.2.3-.1.1-.3.2-.4.2.1-.3 0-.3-.1-.3z"/><path class="st33" d="M39.1 24.6c-.2-.1-.6-.3-1-.4-.4-.1-1-.3-1.4-.3-.5-.1-.8-.1-1.2-.1-.3 0-.7.2-.8.4 0 .2-.1.3 0 .4.1.2.2.2.4.3.2.1.9.4 1.2.7.3.3.6.8.6 1.1.1.3.2 1 .1 1.4 0 .3-.1.5-.3.8-.2.2-.4.4-.8.5v.2s.4 1 .5 1.1c.1.1.1.1.2 0s.2-.2.2-.3v-.1c-.1 0-.3-.2-.3-.3 0 .1.2.3.3.3.2 0 .2 0 .2-.1l.4-.4c.1-.1 0-.1-.1-.1s-.3-.1-.3-.2c-.1-.1 0-.1 0-.1 0 .1.2.2.3.2.1 0 .2 0 .2-.1s.2-.4.3-.5c0-.1 0-.1-.1-.1s-.3-.1-.3-.2c-.1-.1-.1-.2 0-.1 0 0 .2.2.3.2.2 0 .2-.1.3-.2 0-.2 0-.4.1-.5 0-.1 0-.2-.2-.2-.1 0-.4 0-.5-.1-.1-.2-.1-.2 0-.1 0 0 .1.2.3.2.2 0 .3-.1.3-.2v-.4c0-.1-.1-.2-.2-.3 0-.1 0-.1-.1-.1h-.2c-.1 0-.3 0-.5-.2h.1c.1 0 .3.1.4-.1.1-.2 0-.3 0-.4-.1-.1-.1-.3-.1-.3 0-.1-.1 0-.1 0-.1 0-.4.1-.5-.1-.1-.1 0-.1 0-.1s.3.1.4 0c.1-.1 0-.3-.1-.4-.1-.1-.5-.5-.7-.6l.6.4c.3.2.3.3.4.4.1.1.3 0 .3-.1s0-.4-.3-.6c0 0 .2.2.3.5l.1.3.4.2c.1 0 .3-.1.1-.3l.2-.5s.2.2.3.4c.1.1 0 .2 0 .3-.1.1 0 .1 0 .1.1 0 .4.2.6.3.1 0 .2 0 .2-.1s0-.4-.1-.5c0 0 .1.3.1.5s0 .2.1.2c0 0 .3.1.4 0l.6-.3c.1 0 .1 0 .2-.1v-.1l.2-.3s0-.1-.2 0h-.5c-.1 0-.5-.3-.8-.5-.2-.1-.4-.2-.5-.3z"/><path class="st35" d="M37.3 25.1c-.1-.1-.5-.5-.6-.5-.1 0-.2-.1-.1-.1h.5c.1 0 .4.1.6.3.1.2.2.3.2.6.1 0 .2 0 .2-.1s0-.4-.3-.6l-.2-.2c-.1-.1-.6-.4-1.1-.4-.6-.1-1.2-.1-1.3.1-.1.2 0 .5.4.6.3.1.6 0 .9 0 .3 0 .5.1.6.1 0 .1.2.2.2.2zm1.3.5c.1 0 .3-.1.1-.3-.1-.2-.2-.3-.2-.3-.1-.1-.3-.4-.7-.5-.3-.2-.1 0-.1 0 .1.1.4.2.5.5.3.2.4.5.4.6zm.8.5c.1 0 .2 0 .2-.1s0-.3-.1-.5l-.1-.3c-.1-.1-.2-.3-.3-.2 0 0 .1.1.1.2.1 0 .2.4.2.9zm.2-.1c0 .1 0 .1.1.1 0 0 .3.1.4 0l.6-.3h.1v-.2c0-.1-.1-.2-.3-.1-.2.1-.5.4-.6.5-.1.1-.3 0-.3 0z"/><path class="st34" d="M35.5 27.2s.3-.5-.2-1-.9-.5-1.1-.6c-.2-.1-.5-.1-.5-.6s.2-.8 1.1-.8c0 .2-.1.3 0 .4l.3.3c.1.1.7.4.9.5.2.1.4.3.6.6l.3.7c.1.3.2 1 .1 1.4 0 .3-.1.5-.3.8-.2.2-.4.4-.8.5.2-1-.4-2.2-.4-2.2z"/><path class="st35" d="M36.7 26.1l.3.7c.1.3.2 1 .1 1.4 0 .3-.1.5-.3.8-.2.2-.4.4-.8.5v-.2c.3-.1.5-.4.7-.7.2-.4.1-.7 0-1.4s-.3-1-.3-1.1c0-.1 0-.1.1-.1l.2.1z"/><path class="st32" d="M36 29.1c.1-.1.3-.2.4-.4.1-.2-.1-.4-.3-.5.2.1.4.4.5.2.1-.1.1-.3.1-.4 0-.3-.4-.6-.7-.6.2-.1.4-.1.5.1v-.1l-.1-.5c0-.1-.2-.3-.3-.3h-.3s.2-.1.3-.1c.2 0 .2 0 .2.1v-.1s-.1-.3-.1-.4c0-.1 0-.1-.1-.2l-.2-.2h-.4.3.1l-.2-.2c-.3-.3-.4-.3-.9-.2h-.3s0-.1.1-.1h.2s0-.1-.1-.1c-.2-.1-.8-.1-.9 0h-.2s.2-.2.3-.2h.4c.1 0 .1-.1 0-.1-.1-.1-.3-.1-.4-.1-.1 0 0-.1.1-.1h.4v-.4h-.5c-.2.1-.4.2-.5.4-.1.2-.1.4 0 .6 0 .1.1.2.4.2.3.1.6.2.8.3.2.1.4.3.5.6.2.2.1.6.1.7l-.1.3c.6.2.9 1 .9 1.8z"/><path class="st35" d="M36.6 27c0-.1-.2-.3-.3-.3h-.4c.2 0 .6.2.7.3zM36.8 27.9c-.1-.2-.4-.5-.7-.5l.7.5zM36.4 26.2s0-.1-.1-.1l-.2-.2h-.4c.3 0 .6.2.7.3zm-.4-.5c-.3-.3-.5-.3-.9-.3h-.2c.5.1.9.2 1.1.3zm-2-.6s.2-.2.3-.2h.4c.1 0 .1-.1 0-.1-.1-.1-.3-.1-.4-.1-.1 0 0-.1.1-.1h.4v-.4h-.4c-.1 0-.3.1-.4.2-.1.1-.1.3-.1.4 0 .3 0 .3.1.3z"/><path class="st34" d="M38.6 28.5c.1.1.1.3.3.3.2 0 .4-.1.5-.2.1-.1.1-.3 0-.4-.1-.1-.1-.2-.2-.2 0 0 .2 0 .4-.1s.1-.3.1-.5c0-.1-.4-.5-.4-.5s.4.1.5-.1c.2-.2 0-.5 0-.5h-.2c-.1 0-.8-.3-1-.4-.2-.1-.3-.2-.4-.2-.1 0-.2 0-.1.1s.5.3.7.6c.2.2.2.3.3.3-.1-.1-.4-.2-.6-.3-.2-.1-.3-.1-.4-.2.1 0 .2.1.1.1-.1.1-.2.2-.1.3.1.1.6.5.6.5.1.1 0 .1 0 .2 0 0-.1.1-.4 0-.2-.2-.3-.1-.2 0 .1.1.2.2.1.3-.1.1-.1.1 0 .3.1.1.3.3.3.4.1.1.1.2 0 .2.1-.1.1-.1.1 0z"/><path class="st33" d="M38.7 28.6c0 .1.1.2.2.2.2 0 .4-.1.5-.2.1-.1.1-.3 0-.4-.1-.1-.1-.2-.2-.2 0 0 .2 0 .4-.1s.1-.3.1-.5c0-.1-.4-.5-.4-.5s.4.1.5-.1c.2-.2 0-.5 0-.5h-.1c0 .1 0 .3-.1.4-.1.1-.3.1-.5 0 0 0-.1-.1-.3-.2-.1 0-.2 0-.3.1-.1.2 0 .3.1.3l.4.3c.1.1 0 .3-.2.3h-.1s.3.3.3.4c.1.1.2.4 0 .5 0 .2-.2.2-.3.2z"/><path class="st35" d="M38.7 28.7c0 .1.1.1.2.1.2 0 .4-.1.5-.2.1-.1.1-.3 0-.4-.1-.1-.1-.2-.2-.2v.1c0 .1.2.2.1.3 0 .1-.2.3-.3.3h-.3zm.8-.8s.1 0 .1-.1c.2-.1.1-.3.1-.5 0-.1-.4-.5-.4-.5s.4.1.5-.1c.2-.2 0-.5 0-.5h-.1c0 .1.1.3 0 .4-.1.1-.3.2-.4.2h-.2s-.1-.1-.2-.1c0 0 0 .1.1.2s.2.3.4.4c.2.2.3.4.2.5-.1.1-.4.1-.5.1 0-.1.1-.1.4 0z"/><path class="st34" d="M41.7 27.6c.3.3.4.4.8.9.4.4.7 1 .8 1.2l.3.6s.4.8.2.7c-.2-.1-.7-.5-.8-.6-.1-.1-.3-1-.4-1.2-.1-.2-.7-1.2-.9-1.5-.4-.3-.2-.2 0-.1z"/><path class="st33" d="M40.5 26.2c.1-.1.3-.2.3-.3h.1c.1 0 .5.3.9.8.4.4.7.7.9 1 .2.3.5.7.7 1.1.2.4.5 1.1.6 1.3l.3.7.3.3c.1 0 .1.1 0 .1s-.7 0-1-.1c-.3-.1-.3-.2-.3-.4.1-.2 0-.5-.1-.8-.1-.2-.5-.9-.5-1-.1-.1 0-.1.1-.1 0 0-.2 0-.3-.2l-.5-.7c-.1-.1-.1-.1 0-.1h.1-.2c-.1 0-.1 0-.2-.1l-.4-.4-.4-.4-.1-.1h.2-.1c-.1 0-.3 0-.4-.1-.1 0-.3-.2-.4-.3.3-.2.4-.2.4-.2z"/><path class="st35" d="M40.5 26.2c.1-.1.2-.2.3-.2.1.1.3.4.2.5-.1.1-.2.1-.3.1-.1-.1-.2-.1-.2-.2-.1-.2 0-.2 0-.2zm2.8 3.5s0-.1-.1-.1l.2.1c.1-.1-.1 0-.1 0zm-.3-.6c-.1-.2-.2-.3-.2-.3-.1-.1 0-.1.1-.1h.1s0 .1.1.1c0 0 .2 0 .2.1s-.2.2-.3.2zm-.6-1c-.1-.1-.1-.2-.2-.2-.1-.1-.1-.1 0-.1h.30000000000000004c.1 0 .1.1.1.2-.1 0-.2.1-.2.1zm-.6-.7l-.2-.2-.4-.4-.1-.1h.2s.2 0 .3.1c.1.1.1.3.1.4.1.1.1.2.1.2zM44.4 31.1l-.7-.1c-.1 0-.1 0-.2-.1l-.5-.3c.1 0 .5.1.8.2.3 0 .5.2.6.3z"/><path class="st34" d="M44 31.2s-.3 0-.7-.3c-.4-.3-.5-.5-.5-.5s-.1.2-.1.6c0 .4.1.8.3 1.1.2.3.4.5.6.7.2.2.2.3.2.5 0 .1.1 1.3.1 1.5 0 .2 0 .5.1.7 0 .2.1.4.1.1 0-.3.1-.9.1-1v-1c0-.2-.2-1-.2-1.1 0-.1-.1-.3-.1-.3s.1.2.3.3c0 0-.2 0-.2-.1 0 0 .2.6.2 1v1.2c0 .2-.1 1.2 0 1.4 0 .3 0 .4.1.4s.1-.4.1-.8.1-.8.1-1c0-.2.1-.6.2-.9.1-.3.1-.7 0-.9 0-.3-.2-1-.3-1.2.1-.3-.1-.4-.4-.4z"/><path class="st33" d="M42.8 30.4s-.1.2-.1.6c0 .4.1.8.3 1.1l.4.6c.1 0 .1-.1.1-.3 0-.2-.3-1-.4-1.2.1-.2-.2-.7-.3-.8zm1.1 1.6c.1.1.2.3.3.3 0 0-.2 0-.2-.1 0 0 .2.6.2 1v1c.1-.1.2-.3.2-.4v-1c0-.1 0-.9-.1-1.1 0-.2-.1-.2-.3-.4l-.4-.2c-.1 0-.1 0 0 .1 0 .1.4.3.4.3h-.1c-.1 0-.2-.1-.2-.1v.1s0 .2.1.3c.1.1.1.2.1.2z"/><path class="st35" d="M44.1 31.7l.1.1s-.3 0-.4-.1v-.2s.1.1.3.2zm.1.6c.1 0-.1.1-.2.1v-.1h.2z"/><path class="st32" d="M42.8 30.7v.3c0 .4.1.8.3 1.1l.4.6v-.1c0-.1-.2-.9-.3-1.2-.1-.3-.3-.5-.4-.7z"/><path class="st35" d="M42.8 31.2c0 .3.1.6.3.8l.2.3c-.1-.2-.2-.5-.2-.6l-.3-.5z"/><path class="st34" d="M41.7 30.1c.2.3.3.5.5.6.2.2.2.2.3.2.1 0 .1 0 .2.3 0 .3 0 .6.2.8.1.3.3.7.4.9.1.2.1.5.1.8 0 .3.1 1.7 0 1.8 0 .2-.1-.1-.2-.2s-.2-.3-.2-.5c0-.1-.1-.4-.1-.8s-.1-.7-.1-.9c-.1-.2-.1-.3-.4-.6-.3-.3-.5-.6-.6-.8-.1-.2-.2-.8-.2-.9.1-.1.1-.7.1-.7z"/><path class="st32" d="M42.2 32.3l-.3-.5c-.1-.2-.2-.8-.2-.9 0-.1.1-.1.2 0 .2.1.3.2.4.4 0 .1-.1.7-.1 1z"/><path class="st35" d="M42 32.1c-.1-.1-.1-.2-.1-.2-.1-.2-.2-.7-.2-.9.1.1.2.3.3.5v.6z"/><path class="st33" d="M43.2 35.4c-.1-.1-.2-.3-.2-.5 0-.1-.1-.4-.1-.8s-.1-.7-.1-.9c-.1-.2-.1-.3-.4-.6l-.3-.3c.1-.3.1-.9.1-1.1 0-.1-.1-.2-.2-.3 0-.1.1-.2.1-.1.1.1.3.2.3.4l.3 1.1c.1.2.2.6.4.8.1.2.1.5.1.8v1.3c.1.1.1.2 0 .2z"/><path class="st34" d="M40.9 30.5c.1.2.2.3.3.4.2.1.2.1.3.2.1.1.1.4.2.7.1.3.2.5.4.7.1.2.3.3.3.5s.1 1.1.2 1.3c0 .2.1 1.1.1 1.2l-.1-.1c0-.1-.2-.5-.3-.6 0-.1-.2-.7-.2-.9 0-.2 0-.6-.1-.8-.1-.2-.2-.3-.3-.3l-.3-.2c-.2-.1-.3-.4-.5-.6-.2-.6-.3-1.3 0-1.5z"/><path class="st33" d="M42.3 35c0-.1-.1-.2-.1-.2 0-.1-.2-.7-.2-.9 0-.2 0-.6-.1-.8-.1-.2-.2-.3-.3-.3l-.3-.2c-.2-.1-.3-.4-.5-.6-.2-.4-.3-.8-.2-1.1l.1.1c.1.1.3.3.4.5.1.2.2.4.3.7.1.3.4.6.4.6.1.1.2.2.2.3l.2 1v.7c.2.1.1.2.1.2z"/><path class="st32" d="M41.5 32.6s-.1-.1-.2-.1c-.2-.1-.3-.4-.5-.6-.1-.3-.2-.6-.2-.8.1.2.3.4.5.7.3.2.4.6.4.8z"/><path class="st35" d="M41.3 32.5c-.1-.1-.3-.3-.4-.6l-.2-.6c.1.1.3.4.3.6.1.1.2.4.3.6z"/><path class="st34" d="M40 30.6c0 .1.1.4.3.5.2.1.3 0 .3.2s.1.4.2.6c.1.2.3.5.3.6.1.1.2.2.3.4.1.1.1.4.2.6 0 .2.1.5.1.6.1.2.1.3 0 .4 0 0-.1-.1-.1-.2s-.1-.5-.2-.8c-.1-.2-.2-.5-.4-.6-.1-.1-.3-.2-.4-.2l-.6-.6c-.1-.1-.2-.4-.1-.6 0-.2.1-.4.1-.5-.2-.2-.2-.4 0-.4z"/><path class="st33" d="M41.6 34.4s-.1-.1-.1-.2-.1-.5-.2-.8c-.1-.2-.2-.5-.4-.6-.1-.1-.3-.2-.4-.2l-.6-.6c-.1-.1-.2-.4-.1-.6v-.2l.3.3c.2.2.6.8.7.9.1.1.4.4.4.5.1.1.2.5.2.7.2.3.2.5.2.8z"/><path class="st32" d="M40.7 32.7c-.1 0-.2-.1-.2-.1l-.6-.6c-.1-.1-.2-.4-.1-.6 0 0 .1 0 .1.1.1.2.3.4.4.5l.4.5v.2z"/><path class="st35" d="M40.4 32.5c-.2-.1-.4-.4-.5-.5l-.1-.3c.1 0 .1.1.2.2.1.2.1.2.2.3l.2.3z"/><path class="st34" d="M38.9 31.1c.2.1.4.1.5.2.1.1.1.3.1.4.1.1.3.4.6.8.4.3.6.4.6.6.1.1.2.4.2.6.1.2.1.7.1.8 0 .1-.1-.1-.2-.2s-.2-.4-.2-.5c0-.1 0-.3-.1-.4 0-.1-.3-.4-.4-.4-.1-.1-.2-.2-.3-.2h-.4l-.7-.7c.1-.3.2-1 .2-1z"/><path class="st33" d="M41 34.3s-.1-.1-.1-.2c-.1-.1-.2-.4-.2-.5 0-.1 0-.3-.1-.4 0-.1-.3-.4-.4-.4-.1-.1-.2-.2-.3-.2h-.4l-.7-.7v-.1c.1 0 .2 0 .3.1.2.1.5.4.6.5l.5.4c.1.1.3.3.4.3l.2.3c0 .1.1.3.2.5v.4z"/><path class="st32" d="M39.8 32.6h-.3c-.1 0-.4-.4-.6-.6.2 0 .4.1.5.2.2 0 .4.2.4.4z"/><path class="st35" d="M39.6 32.5c-.1 0-.3-.3-.5-.5.1 0 .3.1.4.2 0 .2.1.3.1.3z"/><path class="st34" d="M40.1 30.1s-1-1-1-1.1c-.1-.1.1-.1.1-.1h.1c0 .1.2.3.3.5.1.2.7.7.7.7-.2-.1-.2-.1-.2 0zm-.7-1.3s0-.1.1-.1c.1.1.5.4.7.5l1 1c-.2 0-.1.2-.1.2l-.2-.2-.1-.1-.2-.2-.7-.7c-.1-.2-.5-.4-.5-.4zm.5-1.2s0-.1.1-.1.2.1.3.2c0 0 .5.4.6.6.1.1.7.7 1 1.1.3.3.3.5.3.5s-.3-.4-.5-.7c-.2-.3-.7-.9-1-1.2-.4-.4-.7-.5-.7-.7 0-.1 0-.5.1-.6v.1l.3.3c.1.1.7.7.8.9.2.2.6.8.7 1 .1.2.4.7.4.8 0 .1.2.5 0 .5s-.6-.2-.7-.4l-.4-.7c-.1-.2-.3-.5-.6-.8-.2-.4-.7-.7-.7-.8zm0 3s-.6-.8-.7-.9c-.1-.1-.1-.2 0-.2 0-.1.1 0 .2.1l.8.8.1.1c-.1-.1-.5-.4-.6-.3-.1-.1.2.3.2.4z"/><path class="st33" d="M40.3 26.6c.1.1.8.7 1.2 1.1.3.4.7.9.8 1s.3.6.5.8c.1.2.4 1 .1 1.1-.3.1-.8-.3-.9-.4l-.1-.1c0 .1.1.5 0 .6-.2.1-.5-.1-.6-.2-.1-.1-.1-.1-.1 0s.1.4-.2.4c-.3 0-.4 0-.5-.1l-.3-.2s-.1 0-.1.1.1.4 0 .5c-.1.1-.6.1-.7 0l-.3-.4c-.1-.1-.2-.4-.2-.5-.1-.1 0-.1.1 0l.8.6-1-1c-.1-.1-.1-.1 0-.1s.2 0 .2-.1c.1-.1.1-.2.1-.2.1 0 .2.1.2.2.1.1.6.7.6.7 0 .1.1.1.1 0 0 0-.2-.4-.2-.5.1-.1.6.3.7.4l.1.1-.2-.2-.2-.2c0-.1-.1-.1.2-.1 0 0-.6-.5-.7-.7-.1-.2-.3-.4-.3-.5 0 0 .1 0 .1-.1l.5.5c.2.2.5.6.7.7l.2.2s.1 0 .1.1l.2.2s-.1-.2.1-.2c0 0 .2.3.3.3v-.1l-.3-.4c0-.1.1-.1.2-.1s.2.1.2.1-.1-.1-.2-.1-.2 0-.3-.1l-.4-.4c-.1-.1-.3-.3-.2-.3.1 0 .3.1.3.1l-.2-.1c-.1 0-.2 0-.3-.1-.1-.1-.3-.2-.4-.4l-.4-.4c-.1-.1 0-.1 0-.1.1 0 .2-.1.2-.1 0-.1.1-.2.1-.2h.1s.5.4.7.6c.3.3.5.6.6.8l.4.7c.1.2.4.4.7.4.2 0 .1-.4 0-.5 0-.1-.3-.6-.4-.8l-.7-1c-.2-.2-.7-.8-.8-.9l-.3-.3v-.1c-.1 0-.1-.1.1 0z"/><path class="st35" d="M40 30.7h.2c.2.1.4.1.5.1 0 0 0-.1-.1-.1l-.1-.1-.2-.2-.2-.2c0-.1-.1-.1.2-.1 0 0 .1 0 .2.1v.2c0 .1.1.2.2.3.1.1.1 0 .1-.1v-.4s.1 0 .1.1l.2.2c0 .1.3.3.4.3.1 0 .2 0 .2-.1v-.2c0 .1.1.5 0 .5-.2.1-.5-.1-.6-.2-.1-.1-.1-.1-.1 0s.1.4-.2.4c-.3 0-.4 0-.5-.1-.1-.3-.2-.3-.3-.4zm1.7-.5h.1c.1.1.4.2.6.3.2.1.2.1.2-.1s-.1-.7-.2-.9v-.4c.1.1.2.3.2.4.1.2.4 1 .1 1.1-.3.1-.8-.3-.9-.4h-.1zm-1.7.6c0 .1.1.4 0 .5 0 0-.1.1-.2.1-.2 0-.4-.1-.4-.1-.1-.1-.1-.1 0-.1h.4c.1 0 0-.1 0-.1v-.1l-.4-.4s0-.1.1-.1h.3c.1 0-.2-.4-.3-.5v-.1c.1.2.5.6.5.7-.1 0-.1.1 0 .2z"/><path class="st33" d="M38.6 30.5c.1.2.3.5.4.6.1.1.1.4 0 .5-.1.1-.1.2-.2.2v.1s.4.4.5.6c.2.2.3.3.3.4.1.1.1.3.2.5 0 .1.1.3.2.4.1.1 0 .2 0 .2s-.6-.9-.7-1c-.1-.2-.3-.3-.4-.3-.1 0-.3-.1-.3-.2-.1-.1-.2-.3-.3-.3 0-.1-.2-.2-.3-.2 0 0 .1.5-.6.6 0 0 0 .2-.1.2s-.1-.3-.1-.5-.2-.7-.2-.8c0-.1 0-.1.1-.1l.2.1s.2.2.3.5c0 0 0-.3-.2-.5s.1-.2.1-.2l.2-.2c.1-.1.1 0 .2.1 0 .1.2.3.2.3v-.1c0-.1-.1-.4-.2-.5 0-.1 0-.1.1 0l.7.7c.1.1.1 0 0 0l-.7-.8c-.1-.1.1-.1.1-.1.1 0 .2-.1.3-.2.1-.2.2-.1.2 0z"/><path class="st32" d="M38.1 32.1s.1.5-.6.6l-.1-.4s.2.1.3 0c.1-.1.2-.3.1-.5 0-.2-.1-.5-.2-.6.1-.1.1 0 .2.1 0 .1.2.3.2.3.1.2.1.4.1.5z"/><path class="st35" d="M38.1 32.1s.1.5-.6.6c0 0 0-.2-.1-.3.1 0 .3.1.4 0 .2-.2.2-.4.2-.6v-.2s0 .1.1.1v.4zM38.6 30.5c.1.2.3.5.4.6.1.1.1.4 0 .5-.1.1-.1.2-.2.2h-.2c-.1 0-.1 0-.1-.1.1 0 .2-.1.2-.1v-.2s-.1-.2-.3-.3v-.1h.2c.1 0 .1-.1 0-.1v-.4z"/><path class="st34" d="M38.8 31.9c0 .1.4.5.6.7.2.2.3.3.3.4.1.1.1.3.2.5 0 .1.1.3.2.4.1.1 0 .2 0 .2s-.1-.2-.3-.4v-.2c0-.2-.1-.3-.2-.4-.1-.1-.3-.4-.5-.5l-.5-.5v-.1c.1-.1.2-.1.2-.1zM38.5 35.1l1.4 1.3c.1.1 1.3 1.1 1.5 1.3.2.1.6.4.9.2.3-.2.4-.4.4-.4l-4.3-3.3v.5c0 .2 0 .3.1.4z"/><path class="st36" d="M38.7 35c.2.2.9.8 1 .9.1.1.3.1.4.1.1 0 .1.1 0 .1s-.2 0-.2.1c.1.1.5.4.5.5h.4c.1 0 .2.1.1.1s-.3 0-.1.1c.2.2.3.3.4.3.1.1.4 0 .5 0 .1 0 .2.1.1.1h-.3c-.1 0 0 .1 0 .1.1.1.5.4.5.4.1.1 0 .1-.1 0s-.6-.4-.6-.4c-.1 0-.1 0-.1.1s-.1.2-.1.1v-.3c0-.1 0-.1-.2-.2-.1-.1-.3-.2-.3-.3-.1 0-.1-.1-.1.1v.2-.2-.2s-.3-.3-.4-.3c-.1-.1-.2-.2-.2-.1v.2s0 .1-.1 0c0-.1 0-.2-.1-.3-.1-.3-1-1.2-1-1.2z"/><path class="st34" d="M38.4 35.4s1.2 1.1 1.6 1.4c.4.3 1.4 1.1 1.6 1.3 0 0-.3.5-1 0s-2.3-2.2-2.3-2.2.1-.1.1-.5z"/><path class="st37" d="M38.4 35.4s1.2 1.1 1.6 1.4c.4.3 1.4 1.1 1.6 1.3l-.2.2c-.5-.3-1.6-1.2-1.8-1.3-.2-.2-1-.9-1.3-1.3.1-.2.1-.3.1-.3z"/><path class="st34" d="M38.3 36h-.2v.3c0 .2.1.3.2.4l1.3 1.3c.2.2.7.7 1 .3 0 0-1.7-1.6-2.3-2.3z"/><path class="st37" d="M38.3 36h-.2v.1c.5.6 1.7 2.1 2.4 2.2l.1-.1c0 .1-1.7-1.5-2.3-2.2z"/><path class="st34" d="M38.2 36.8l1.4 1.4s-.1.2-.2.2-.2-.1-.4-.3c-.2-.2-.7-.8-.7-.9-.1-.1-.1-.2-.1-.4zM38 36.4c0 .1.1.4.2.6v.5c0 .1-.1 0-.1-.1s-.1-.3-.1-.5c-.1-.2-.1-.7 0-.5zM37.6 36.7l.3.7c0 .1.1.3 0 .4-.1 0-.1 0-.2-.2-.1-.1-.2-.4-.2-.6l.1-.3z"/><path class="st38" d="M37.8 32.7s.3.5.4.9c.1.4.2 1.3.1 1.6 0 .3 0 .8-.1.8-.2 0-.2-.1-.2-.1s.1.4-.1.4c-.1 0-.3-.1-.3-.2 0 0 0 .5-.2.6-.2 0-.3-.1-.4-.3 0 0 .1.5 0 .6-.2.1-.5-.1-.5-.3 0 0 0 .4-.1.5-.1 0-.5-.4-.5-.4s.1.4.1.5c-.1.1-.3-.2-.3-.3 0-.1-.1-.4-.2-.6-.1-.2-.7-1-.8-1.1l-.2-.2s.2.1.3.1c0 0 .1.2.3.5.3.3.7.7 1.1.8 0 0-.6-.9-.7-1.2 0 0 .2-.2.1-.7l.1.1s.2.5.5.9l.4.6s.1-.5 0-.8c-.2-.3-.2-.5-.2-.5s.1-.1.1-.2c0 0 .3.2.4.6.2.4.2.5.2.5s-.1-.6-.2-.8c-.1-.3-.3-.6-.3-.6s.2.1.4.1c.1 0 .1-.1.1-.1l.4.8s-.2-1.2-.3-1.6c0 0 .1.1.3.1 0 0 .3.9.4 1.1 0 0 0-.5-.1-.8-.1-.3-.2-.8-.2-.8 0-.1.1-.1.1-.1s.1.1.2.3l-.1-.7z"/><path class="st34" d="M37.8 32.7s.3.5.4.9c.1.4.2 1.3.1 1.6 0 .3 0 .8-.1.8s-.1 0-.2-.1h.1c.1 0 0-.3 0-.6s-.1-1-.2-1.1c0-.1-.2-.6-.2-.8-.1-.2-.1-.2-.1-.1s.1.4.2.5c.1.2.2 1 .2 1.2v.7c-.1 0-.1-.1-.1-.2l-.1-.6c0-.1-.1-.3-.1-.3s0-.5-.1-.8c-.1-.3-.2-.8-.2-.8 0-.1.1-.1.1-.1s.1.1.2.3c.1 0 .2-.3.1-.5zm-.8 3.6s.1.2 0 .4c0-.1-.1-.1-.1-.1s-.1 0-.2-.1-.2-.4-.2-.4.1-.2 0-.5c.2.3.5.7.5.7zm-1.4-1.2c0-.1.1-.3 0-.5l.1.1s.2.5.5.9c.1.2.2.3.3.4l-.1.1s-.1.1-.2 0l-.3-.3c0-.2-.2-.5-.3-.7zm.8-.4v-.1s.3.2.4.6c.2.4.2.5.2.5s-.1-.3-.1-.6c.1.2.4 1.1.4 1.2 0 .1-.1 0-.2-.1s-.2-.3-.3-.7l-.4-.8zm.5.2c-.1-.4-.4-.7-.4-.7s.2.1.4.1c.1 0 .1-.1.1-.1s.2.6.3.8c.1.2.2.5.2.8 0 .3-.1.2-.2.1 0-.1 0-.1-.1-.4-.1-.3-.3-.6-.3-.6zm.5.1s-.2-1.2-.3-1.6c0 0 .1.1.3.1 0 0 .1.2.1.4s.2.6.2.7c0 .1.2.7.1.7s-.2-.3-.2-.4c0-.1-.1-.1 0 0 0 .1.2.6.2.8 0 .2 0 .3-.1.2l-.1-.4c-.1-.3-.2-.5-.2-.5zM36.6 31.1l.3.6.3.6c.1.1.1.2.2.4s0 .6 0 .8c0 .1-.2.1-.5-.1 0 0 .1.9 0 1-.1.1-.5-.2-.6-.3 0 0 .1.8 0 .8s-.4 0-.8-.4c0 0 .1.7 0 .8-.2.1-.5-.1-.6-.2 0 0-.1.1-.4 0-.3-.1-.2-.1-.2-.1s0 .2.1.3c0 0-1-.7-1.3-1.4 0 0-.3-.5-.4-.9-.1-.3.3-.3.3-.3s.9 1.4 1.6 1.9c0 0-.9-1-.9-1.4 0-.4.2-.2.2-.2v-.5s.6 1 .9 1.3c0 0-.2-.4-.1-.5 0-.1.1.1.2.2 0 .1.2.3.3.4.1.1.1 0 .1 0s-.3-.4-.3-.5c-.1-.1-.1-.2-.1-.3v-.2c0-.1.1-.1.1 0l.5.5s-.6-.8-.4-.9c.2-.2.8.6.8.6s-.1-.4-.2-.5c-.1-.1 0-.1.1-.1s.1-.1.1-.2.1 0 .2.1c0 .1.2.5.3.5v-.1l-.2-.6-.1-.4c0-.1.2 0 .3 0l.4.3.3.4c.1.1.1.1.1-.1s-.3-.7-.3-.8v-.4c-.4-.2-.4-.2-.3-.1z"/><path class="st33" d="M37.1 32c0 .1.1.2.1.2.1.1.1.2.2.4s0 .6 0 .8c0 .1-.2.1-.5-.1 0 0 .1.9 0 1-.1.1-.5-.2-.6-.3 0 0 .1.8 0 .8s-.4 0-.8-.4c0 0 .1.7 0 .8-.2.1-.5-.1-.6-.2l-.4-.4s-.9-1-.9-1.4c0-.4.2-.2.2-.2s.4.7.6.9c.2.2.3.2.3 0s0-.2.1-.1.2.4.4.5c.1.1.2-.1.2-.3 0 0-.1-.2-.2-.2 0 0-.3-.4-.3-.5-.1-.1-.1-.2-.1-.3v-.2s.3.5.6.9l.5.5c.1 0 0-.1-.1-.3-.1-.1-.2-.3-.2-.4 0-.1.1 0 .2.1s.2.2.3.2c0 0-.2-.6-.2-.7 0 0-.1-.4-.2-.5-.1-.1 0-.1.1-.1s.1-.1.1-.2c0 0 .1.4.2.7.2.3.3.4.4.6.1.1.1 0 .1 0 0-.1-.3-.5-.3-.5v-.1s0-.1.1-.1l.3.1c.1 0 .1 0 .1-.1l-.2-.5c0-.1-.1-.2-.2-.3l-.2-.3c.1 0 .1 0 .2.1l.4.3.2.2c0 .1 0 .3.1.4l.2.3c.1.1.1.1.1-.1v-.7c-.4-.2-.3-.3-.3-.3zm-2.3 2.9s-.1.1-.4 0c-.3-.1-.2-.1-.2-.1-.1-.1-.8-.7-1.2-1.2-.1-.1-.3-.6-.4-.8-.1-.3.2-.3.3-.3.1.3.4 1 .8 1.4.5.7.9.9 1.1 1z"/><path class="st32" d="M32.6 33l.2.2c.1.1.3.4.4.6.2.2.6.7.7.8.2.1.3.2.4.3.1.1.2.1.2.1h-.1c-.3-.1-.2-.1-.2-.1-.1-.1-.8-.7-1.2-1.2l-.4-.7z"/><path class="st35" d="M37 33.6v.6c-.1.1-.5-.2-.6-.3 0 0 .1.8 0 .8s-.4 0-.8-.4c0 0 .1.7 0 .8-.2.1-.5-.1-.6-.2l-.4-.4s-.6-.7-.8-1.1l.3.3c.1.1.5.6.7.7.1.2.2.1.2-.2v-.2l.5.9c.1.1.2-.5.2-.5l-.2-.2s-.1-.2-.2-.2c0 0-.3-.4-.3-.5-.1-.1-.1-.2-.1-.3.2.3.6.8.7.9.1.1.7.6.7.5 0-.1-.2-.3-.2-.3s-.1-.2-.1-.3c-.1-.1-.2-.3-.2-.4 0-.1.1 0 .2.1s.2.2.3.2l.2.2c.1.1 0-.1-.1-.3-.4-.4-.7-.8-.7-.8s-.1-.4-.2-.5c0 0 .1 0 .2.1s.4.5.4.7c.1.1.4.5.5.5.1 0-.1-.3-.1-.3v-.1c0-.1-.3-.5-.3-.5v-.1s0-.1.1-.1l.3.1h.1l.2.2c.1.1 0 .1-.1.1s-.1 0-.1.1.1.2.2.3c-.1.1 0 .1.1.1zm.1-1.5c0 .1.1.1.1.1.1.1.1.2.2.4s0 .6 0 .8c0 .1-.2.1-.5-.1 0-.1 0-.1.1-.1.1.1.2.2.3.1.1-.1 0-.5-.1-.8-.1-.2-.1-.4-.1-.4z"/><path class="st34" d="M32.2 30.5s-.4.6-.4 1 .1.5.2.7c.1.2.1.6.2.9 0 0 .3-.1.6-.5 0 0 .5.6.7.6.2 0 .3-.9.3-1 0 0 .5.7.7.7.2 0 .4-.5.4-.7v-.3s.4.2.4.3c.1.1.3 0 .4-.1.1-.1.1-.6.1-.8 0 0 .3.3.4.2.2-.1.1-.7.1-.7h.2c.1 0 0-.3-.1-.5s-.3-.4-.4-.4c-.1 0-.1.1-.1.2 0 .2.1.8.2 1 0 0-.2-.2-.2-.5-.1-.3-.1-.6-.2-.6s-.2.2-.1.4c0 .2.1.4.2.6 0 0-.2-.3-.3-.6-.1-.2-.1-.1-.1 0s0 .3.2.6l-.2-.2c-.1-.1-.1 0 0 .1 0 .1.1.3.2.4l-.2-.2s.1.5.2.8c.2.3 0 .1 0 .1s-.2-.2-.2-.4c-.4-.2-.4-.7-.4-.9v-.5s-.3 0-.4.2c-.1.2-.5.4-.6.5-.2.1-.2.1-.2-.1v-.5c0-.1-.1 0-.3.1-.2.2-.5.4-.6.4-.1 0-.2-.2-.2-.3v-.1c-.2.2-.5.3-.5.1z"/><path class="st39" d="M35.5 32.3c.1 0 .1-.1 0 0 .1-.2.2-.7.2-.9 0 0 .3.3.4.2.1 0 .1-.2.1-.4 0-.3-.1-.4-.1-.6 0-.1-.1-.4-.2-.6 0 0-.1 0-.1.1 0 0 .1.1.1.2.1.1.2.5.2.6 0 .1.1.6-.1.6s-.4-.3-.4-.3v-.3c0-.2-.2-.6-.2-.6v.1c0 .1.1.2.1.4v1.1c.1.3 0 .3 0 .4z"/><path class="st33" d="M32.2 30.5s-.4.6-.4 1 .1.5.2.7c.1.2.1.6.2.9 0 0 .3-.1.6-.5 0 0 .5.6.7.6.2 0 .3-.9.3-1 0 0 .5.7.7.7.2 0 .4-.5.4-.7v-.3s.4.2.4.3c.1.1.3.1.3 0l-.1-.1s-.1 0-.1-.1c0 0-.2-.2-.2-.4 0-.1 0-.2-.1-.2 0 0-.2-.1-.3.1-.1.2-.1-.3-.1-.3v-.5l.1-.2v-.1l-.1.1c-.1.2-.5.4-.6.5-.2.1-.2.1-.2-.1v-.5c0-.1-.1 0-.3.1-.2.2-.5.4-.6.4-.1 0-.2-.2-.2-.3v-.1c-.3.1-.6.2-.6 0z"/><path class="st32" d="M32.2 30.5s-.4.6-.4 1 .1.5.2.7c.1.2.1.6.2.9 0 0 .3-.1.6-.5 0 0 .5.6.7.6.2 0 .3-.9.3-1 0 0 .5.7.7.7.2 0 .4-.5.4-.7v-.3s0-.3-.1-.6c0-.3-.1-.6 0-.8 0-.1 0-.2.1-.3 0 0-.1 0-.1.1v.2c-.1.2-.1.2-.1.4v.6l-.2-.2-.1-.1c0 .1 0 .3.1.4 0 .1.2.2.3.3 0 0 0 .1-.1 0s-.2-.1-.2 0v.1c0-.1-.1-.2-.1-.4s-.1-.2-.2-.2c-.1.1-.1.4-.1.3 0-.1 0-.3.1-.4.1-.1.2-.2.2-.3v-.3l-.1.1c-.2.1-.2.1-.2-.1-.1 0-.3.1-.3.1v.5c0 .2.1.2.1.2v.1c-.1 0-.2.2-.2.3 0 .1 0 .3-.1.2l-.1-.3c-.1-.1-.1 0-.1.1-.1.1-.1.3-.1.3v-.2c0-.1.1-.3.1-.3l.1-.2v-.3c0-.1-.1-.1-.1 0-.1.1-.2.3-.2.3s.1-.3.1-.4c.1-.1.2-.2.2-.3.1-.1 0-.3 0-.3-.1.1-.2.2-.3.2 0 0-.1 0-.1-.1-.1 0-.2.1-.2.2-.1.1-.1.3-.1.4v.5l.1.3-.1.3v.1l-.1-.6c0-.1 0-.2-.1-.2 0 0-.1.1-.1 0s.1-.3.1-.5c.1-.2-.1-.2-.1-.1-.5.3-.5.4-.5.4v-.1c0-.1.1-.2.3-.4.1-.1.2-.2.2-.3-.2 0-.3 0-.3-.1z"/><path class="st35" d="M32.7 32.7s.5.6.7.6c.2 0 .3-.9.3-1 0 0 .5.7.7.7 0 0 0-.3-.1-.4-.1-.1-.1-.3-.1-.4 0-.1-.1-.2-.1-.4s-.1-.2-.2-.2c-.1.1-.1.4-.1.3 0-.1 0-.3.1-.4.1-.1.2-.2.2-.3v-.3l-.1.1c-.2.1-.2.1-.2-.1h-.2v.9c0 .3.1.4.1.6 0 .2-.1.5-.2.6 0 .1-.1 0-.1 0 0-.1-.2-.5-.2-.7 0 0 0-.1-.1-.2s-.1 0-.1.1c-.1.1-.1.3-.1.3v-.2c0-.1.1-.3.1-.3l.1-.2v-.3c0-.1-.1-.1-.1 0-.1.1-.2.3-.2.3s.1-.3.1-.4c.1-.1.2-.2.2-.3.1-.1 0-.3 0-.3-.1.1-.2.2-.3.2 0 0-.1 0-.1-.1-.1 0-.2.1-.2.2-.1.1-.1.3-.1.4v.5l.1.3c0-.1.1.1.2.4zm1.9-1.1c-.1 0-.1-.1-.2-.2l-.1-.1v.1s.1.1.2.1c.1.2.1.2.1.1zm-.1.5c-.2-.2-.3-.2-.3-.1.1 0 .3.2.3.1zm-2.2.5l-.1-.7c0-.1 0-.2-.1-.2 0 0-.1.1-.1 0s.1-.3.1-.5c.1-.2-.1-.2-.1-.1l-.1.1v.5c0 .3.1.6.2.8.2.2.2.5.2.1zm-.3-1.4c0-.1.1-.1.2-.2s.2-.2.2-.3h-.2l-.1.4-.1.1zM31.9 26.1zm.1 0zm0 0zm0 0zm0 0c.1-.1.2-.5.2-1 0 0 .2 0 .3.7 0 0 .4-.3.4-.7.5 1.4-1.2 2.3-1.8 1.9.1-.2.2-.3.3-.4l.6-.5z"/><path class="st30" d="M31.9 26.8s0 .1-.3.3c.1 0 .3-.1.4-.2l-.1-.1z"/><path class="st40" d="M32.4 25.8s.1.4-.2.7c-.3.3-.8.5-.8.5s1.3-.6.8-1.9c0-.1.2 0 .2.7z"/><path class="st30" d="M32.1 26.2c.1-.3.2-.7 0-1.1 0 0 .1 0 .2.2 0 0 .1.5-.2.9zM32.4 26.2s.3-.1.4-.5c0 0 .1.5-.4.5zM31.8 27.4s.7-.2.9-.3c0 0-.1.3-.8.5 0 0 .4-.2.5-.3 0 0-.4.1-.6.1z"/><path class="st41" d="M32.8 28.4c-.1 0 0-.4-.3-.3l-.2-.2s.3 0 .4.1c.1.2.1.4.1.4s.2-.1.2-.5c0 0 0 .1.2 0-.1.1-.2.4-.4.5z"/><path class="st32" d="M32.3 27.8c.2-.4.5 0 .6 0 .1 0 .1-.1.1-.2 0 0 .1 0 .1.1s-.1.2-.2.2c-.2 0-.2-.3-.6-.1z"/><path class="st30" d="M32.3 27.8s0-.1.1-.1h.1c.1 0 .2.1.2.2-.1-.2-.2-.2-.4-.1z"/><path class="st34" d="M33.1 25.8h.2-.2zm-.6 1.1l.2-.2.4.1h.3-.1c.1 0 .5.2.6.4 0 0-.5-.2-.7-.3-.1 0-.2-.1-.2 0 0 0 0 .1.1.2s.1.1.1.2h-.1s-.1-.1-.2-.1l-.2.2s.1-.2.2-.3c0-.1 0-.1-.1-.2h-.3zm.3-.4l.1-.2.6.2h.1s-.1 0 .2.1c.3.1.5.3.5.3l-.7-.3c-.4-.1-.8-.1-.8-.1zm.2-.5v-.1l.3.1c.1 0 .2.1.2.1h.1v.1s-.1.1-.3 0c-.1-.2-.2-.2-.3-.2z"/><path class="st31" d="M34.8 26.2s.5.3.7 1c.2.4.5.6.5.6 0 .4-.5.2-.5.2s.1.3-.2.4c-.3 0-.5-.4-.5-.4s-.1.9-.3.9c-.3.1-.5-.4-.5-.4 0 .3-.2.7-.4.7s-.3-.6-.3-.6c-.2.7-.7.6-.7.6s-.1 0-.2-.1c0 0 .2-.2.3-.7.1 0 .2-.1.3-.2.1-.1.2-.1.1.1s-.3.5-.3.5.4-.3.5-.5c.1-.2.1-.3.2-.3.2 0 .2.5.2.5.2-.4.2-.9.2-.9h.3c.1-.1-.2-.5-.2-.5h.5c0-.3-.2-.4-.2-.4.4-.2.5-.5.5-.5z"/><path class="st33" d="M36 27.8l-.1.2c-.2.1-.5 0-.5 0v-.2s-.1-.1-.1-.3v-.1.6c0 .2-.2.1-.3 0-.1-.1-.2-.1-.2-.3v-.4c0-.1-.1-.2-.2-.3 0-.1 0-.1-.1-.2.1.1.4.4.5.7 0 0-.2-.5-.4-.8-.2-.3.1 0 .2.1s.3.5.3.5-.1-.4-.3-.7c-.2-.3.2.1.3.2l.4.8c.3.2.4.2.5.2z"/><path class="st34" d="M36 27.8l-.1.2c-.2.1-.5 0-.5 0v-.2s-.1-.1-.1-.3v-.2s-.2-.4-.4-.6l-.1-.1c-.2-.3.2.1.3.2l.4.8c.3.2.4.2.5.2z"/><path class="st42" d="M36 27.8c0 .4-.5.2-.5.2v-.2c.3.3.5 0 .5 0z"/><path class="st43" d="M35.5 28.1s.1.3-.2.4c-.3 0-.5-.4-.5-.4s-.1-.1-.1-.2h-.1s0 .4-.1.6c0 .2-.1.3-.1.1 0-.2-.1-.6-.1-.7 0-.1 0-.1-.1-.1 0 .1-.1.1-.1.3v.2s-.1-.1 0-.2c0-.2.1-.3.1-.4 0-.1-.1-.1-.1-.1 0-.2-.2-.5-.2-.5h.5v-.2c.1.1.1.1.1.2s.1.3.2.3v.4c0 .2.1.3.2.3.1.1.3.2.3 0v-.6.1c0 .2.1.3.1.3l.2.2zm-3.1 1s.2-.3.3-.7c.1 0 .1.3-.3.7zm1.1-1.1c.2 0 .2.5.2.5.2-.4.2-.9.2-.9h.1v.4c0 .3-.1.6-.2.8-.1.2-.2.2-.2.1v-.5c0-.1-.1.1-.1.1v-.5z"/><path class="st33" d="M33.9 27h.4c.1.3-.1.6-.1.6.1-.4-.3-.6-.3-.6z"/><path class="st44" d="M34.8 26.2s.5.3.7 1c.2.4.5.6.5.6-.1 0-.2 0-.3-.2-.1-.1-.3-.6-.4-.8-.1-.2-.5-.5-.3-.2s.3.7.3.7-.2-.4-.3-.5c-.1-.1-.4-.4-.2-.1.2.3.4.8.4.8-.1-.3-.4-.6-.5-.7l-.1-.1c0-.2-.2-.3-.2-.3.3.1.4-.2.4-.2z"/><path class="st33" d="M32.2 30.3h-.2s.3-.7.6-1.1c0 0 .6 0 .7-.6 0 0 .1.6.3.6.2 0 .4-.4.4-.7 0 0 .2.6.4.5.3.1.5-.4.5-.4.1.4-.1 1.1-.1 1.1s.2-.3.3-.6c.1-.3 0-.5 0-.6h.1c.2 0 .2.5.3.6 0 .2.3.4.3.5 0 .1.1.6-.1.6s-.3-.4-.4-.4c0-.1-.1-.1-.2.1s-.3.7-.5.7-.4-.5-.4-.5c-.3.5-.6.7-.8.7-.2 0-.2-.6-.2-.6-.2.2-.5.5-.7.5-.2 0-.2-.5-.2-.5.1.2-.1.1-.1.1z"/><path class="st31" d="M32.2 30.3c0-.2.1-.4.3-.7.2-.3.2-.4.3-.3.1 0-.2.9-.3 1-.2.1-.3 0-.3 0z"/><path class="st34" d="M33.7 29.1zm.1 0c.2-.1.3-.4.3-.6 0 0 .2.5.4.5-.1.3-.4.5-.4.5-.1.1-.3.2-.3.2.5-.4.3-.7.3-.7-.1.1-.3.1-.3.1zm1.1.5s.2-.3.3-.6c.1-.3 0-.5 0-.6 0 0 .5 1.1-.3 1.9 0 0 .1-.3.1-.5 0 0-.1.2-.3.3 0-.1.1-.3.2-.5zm.5-1.2c.3.1.3.5.3.6 0 .2.3.4.3.5v.4c-.3-.2-.4-.7-.4-1-.1-.3-.2-.5-.2-.5z"/><path class="st31" d="M33.7 29.2c.1 0 .3-.1.4-.3 0 0 .2.3-.3.7 0 0 .2-.1.3-.2 0 0 0 .7-.3 1.2 0 0 .7-.4.7-1.6h.1s0 .7-.1 1c-.3.5-.6.7-.8.7-.2 0-.2-.6-.2-.6-.2.2-.5.5-.7.5-.2 0-.2-.5-.2-.5l.3-.9c.1-.3.4-.5.5-.4 0 .1 0 .2-.1.3-.1.1-.1.2-.1.3 0 .1-.1.1-.1.1s.2-.2.3-.2c.1 0-.2.6-.2.6s.2-.2.2-.3c0-.1 0-.2.1-.2 0 0 .1 0 .1.2v.3s.1-.5.1-.7z"/><path class="st32" d="M35.5 29.4c0-.3-.1-.7-.1-.8v-.3c.1.3.1.9.1 1.1z"/><path class="st45" d="M30.6 27.5c.5.3 1-.4.5-.7l-.3.2-.2.5z"/><path class="st46" d="M30.6 27.4c.5.3.9-.3.5-.6l-.3.2-.2.4z"/><path class="st30" d="M30.9 27c.1 0 .2.1.2.2s-.1.2-.2.2-.2-.1-.2-.2c.1-.1.1-.2.2-.2z"/><path class="st47" d="M30.9 27.2c.1.1 0 .1 0 .1v-.1z"/><path class="st32" d="M30.2 27.5s-.1-.1 0-.3c.2-.1.7-.4.9-1.5 0 0 .2.1.1.7 0 0 .3-.2.3-1.1 0 0 .3.2.1.8 0 0 .1 0 .2-.1 0 .2-.4.3-.7.5-.2.2-.7 1-.8 1 .2.2-.1 0-.1 0z"/><path class="st48" d="M30.2 27.5s-.1-.1 0-.3c.2-.1.7-.4.9-1.4.1.4-.1.6-.3.9l-.6.6c0 .1.1.3 0 .2z"/><path class="st31" d="M30.6 27.5c0 .1-.1.1-.1.1h-.1c0-.1-.1-.2 0-.2 0-.1.4-.5.5-.6.1-.2.3-.6.3-.8 0 0 .1.3-.1.7-.2.4-.5.8-.5.8z"/><path class="st49" d="M30.3 27.6c.2 0 .4 0 .6.1.2.1.4.2.6.1.2-.1.5-.1.7 0 .2.1.2.1.2.2v.1s.1.1 0 .1c-.1.1-.2.2-.6.3-.4.2-.4.2-.6.2l-.3-.5c-.2 0-.4 0-.6.2-.2.2-.3.4-.3.6 0 .1.2.4.2.4.1 0 .1.1 0 .1s-.3 0-.5-.1-.3-.3-.3-.4c-.1-.2-.1-.3 0-.4 0-.1.1-.2.2-.3l.3-.3c.1-.1.2 0 .3 0 .1 0 .2-.1.1-.1h-.2c-.1-.1 0-.3.2-.3z"/><path class="st50" d="M30.3 27.6c.2 0 .4 0 .6.1 0 0 .1 0 .1.1l-.6.3c-.2.1-.8.5-.4 1.1 0 0-.5-.1-.5-.5s.5-.7.5-.7h.1c.1 0 .2-.1.1-.1h-.2c0-.1.1-.3.3-.3z"/><path class="st51" d="M30.3 27.6c.2 0 .4 0 .6.1.2.1.4.2.6.1.2-.1.5-.1.7 0 .2.1.2.1.2.2v.1s-.1-.1-.3-.2c-.3-.1-.5 0-.6.1-.1 0-.4 0-.6-.1-.3-.1-.4-.2-.6-.3 0 .1-.1.2-.1.2v.1h-.1c-.1-.1 0-.3.2-.3z"/><path class="st52" d="M31 28.6c0-.1 0-.2-.1-.3.1 0 .2 0 .3-.1.2-.1.5-.1.6-.1.1.1 0 .2-.2.3-.2.1-.4.2-.6.2z"/><path class="st53" d="M31 28.5c.1-.1.2-.1.3-.1.1 0 .3-.1.3-.1l-.1.1-.5.1z"/><path class="st23" d="M30.9 28.4s.7.6.7 1.1c0 .6-.3.9-.5 1.1-.2.2-1.1 1-1.4 1.2-.2.3-.5.7-.3 1.1.2.5.5.6 1 .5.5-.1 1.4-.2 1.6.6.2.7 0 1.6 0 1.6l-.3.2-.8-.6.1-.4s.3-.2.2-.4c-.1-.2-.6-.2-.8-.1-.2 0-.9.1-1.2-.1-.4-.2-.6-.6-.7-.8-.1-.3-.2-1.1-.1-1.3.1-.3.3-.7.6-1 .3-.3.6-.4 1-.7.4-.3.4-.4.6-.6.1-.2 0-.3-.1-.3s-.1-.1-.2-.2l-.2-.3v-.3l.2-.2.2-.1.3-.1.1.1z"/><path class="st24" d="M32.1 35.1c0 .3-.1.5-.1.5l-.3.2-.4-.3c.3-.1.6-.3.8-.4zM28.5 33.4c-.1-.3-.2-1.1-.1-1.4.1-.3.3-.7.6-1 .3-.3.6-.4 1-.7l.4-.4v.5h-.4l-.1.6s-.4-.1-.4-.2c0 0-.1.4 0 .5 0 0-.4-.1-.4-.2-.1 0 0 .7.1.8 0 0-.4 0-.5-.1 0 0-.1.1 0 .2s.2.4.4.5c0 0-.3.2-.4.3 0 0 .1.2.3.3l-.5.3zM31.2 30.5c-.3.3-1.2 1-1.4 1.3-.2.3-.5.7-.3 1.1 0 .1.1.2.2.3-.1.1-.3.1-.4.1l-.4-.1.3-.4-.3-.2s.3-.2.4-.4c0 0-.1-.2-.1-.3l.5-.1-.1-.5.5.1v-.5h.6l-.1-.6.6.2zM31.2 28.7c.2.2.4.5.4.8 0 .5-.3.8-.5 1l-.3-.2-.1-.3h-.30000000000000004l.2-.2c.1-.1.1-.2 0-.2 0-.1.1-.3.1-.3v-.1l.1-.2.4-.3z"/><path class="st25" d="M30.9 34.9v-.1c.2 0 .3-.2.4-.4v.1c-.1.2-.2.3-.2.3l.2.1s0 .1-.1.1c0 0-.2-.1-.3-.1zM30.6 29.7l.1.2s.2-.1.3-.2h-.4zm.5.8h-.7s0 .3.2.5h-.6s0 .3.1.4l-.1.1-.5-.1s.1.3.2.5v.1l-.5.1s0 .1.1.2l-.1.2-.2.2s.1.1.2.1v.3l-.2.2s.1 0 .2.1v.1c-.1 0-.3-.1-.3-.1s-.2.2-.3.2v-.1c.1 0 .2-.1.3-.2 0 0-.2-.1-.3-.2v-.2c.1 0 .3-.1.4-.2 0 0-.1 0-.3-.3-.1-.2-.1-.3-.1-.4 0-.1 0-.1.1-.2 0 .1.2.2.5.2 0 0-.1-.5-.1-.8l.1-.1c.1.1.2.2.4.2v-.5h.1c.1.1.2.2.4.2v-.5h.1l.1-.1.3.1v-.5h.3s-.1-.1-.1-.2v-.1h.5v.1s0 .1-.1.1c-.1.1-.3.2-.3.2s.1.3.3.4c-.1-.1-.1 0-.1 0zm-1.9 2.9c0 .1-.1.2-.1.2h.2v.1l-.1.3h.3s0 .1.1.1h-.4c0-.1 0-.3.1-.4h-.2l-.2.3v-.1l.1-.2s-.2-.1-.3-.1v-.1c.1 0 .4.1.4.1-.1 0 0-.2.1-.2zm-.2-2.2s0 .5.1.7c0 0 .3 0 .4-.1 0 0-.1-.3-.1-.4l-.4-.2zm-.5 1.7l.3.3s.2-.2.3-.4c0 0-.1-.1-.2-.1 0-.1-.2 0-.4.2zm.1-1s0 .4.4.6l.3-.3s-.1-.1-.1-.2c-.1 0-.5.1-.6-.1zm.9-1.1v.5h.4v-.3s-.3-.1-.4-.2zm.5-.4v.5h.5s-.1-.3-.1-.5c-.1.1-.2.1-.4 0zm.4-.4v.4h.5s-.2-.2-.3-.4h-.2zM30.6 29.5c0-.2 0-.3.1-.4h-.5v-.1c.2.1.4.1.6 0l.1.1c-.2.1-.3.3-.3.4z"/><path class="st54" d="M29.6 31.9c-.2.3-.4.6-.2 1 .2.5.5.6 1 .5.5-.1 1.4-.2 1.6.6.1.4.1.8.1 1.1-.2.3-.5.4-.6.5l-.3-.2.1-.2c.2-.3.2-.5.1-.7 0-.1-.1-.1-.2-.1-.2-.1-.5-.1-.7 0h-.7c-.1-.1-.4-.3-.5-.7-.2-.6-.1-1.1.1-1.5 0-.2.1-.2.2-.3z"/><path class="st55" d="M29.8 33.3c.2.1.4.1.7.1.5-.1 1.4-.2 1.6.6.1.3.1.5.1.8h-.7c0-.1 0-.2-.1-.3 0-.1-.1-.1-.2-.1-.1-.1-.3-.1-.5-.1-.1-.1-.3-.4-.5-.5-.1-.1-.3-.3-.4-.5z"/><path class="st24" d="M29.4 32.3c-.1.1-.1.2-.2.2l-.1.1v-.1l.3-.2zm0 .4c0 .1-.1.1-.1.1s-.1 0-.2.1c0 0 .1 0 .1-.1.1-.1.1-.1.2-.1zm0 .2c0 .1-.1.1-.1.1l-.2.1c.1 0 .1 0 .2-.1 0-.1.1-.1.1-.1zm.1.1l-.1.2-.2.1.2-.1c0-.1 0-.2.1-.2zm0 .1c0 .1-.1.2-.2.2l-.2.2.2-.1c.1-.2.2-.3.2-.3zm.1.1c0 .2-.1.3-.2.3-.1.1-.2.1-.2.1.1 0 .2-.1.2-.1.1-.1.2-.2.2-.3zm.3.2c-.1.4-.3.5-.5.6.2-.1.4-.2.5-.6zm.1 0v.5l-.3.3h.1l.3-.3c-.1-.1-.1-.4-.1-.5zm.3 0v.3c0 .2-.1.3-.1.4 0 0 0 .1-.1.1 0-.1 0-.1.1-.2l.1-.4v-.2zm.2 0v.8999999999999999-.3-.1-.3-.2zm.3 0v.4c0 .1-.1.3-.1.5v.1-.1c0-.1.1-.3.1-.5v-.4zm.3 0v.4l-.1.4s0 .1-.1.1c0 0 0-.1.1-.1.1-.1.1-.3.1-.4v-.4zm.3 0v.4l-.1.3-.2.3c0-.1.1-.2.2-.3.1-.1.1-.2.1-.3v-.4zm.4.2v.1c0 .1 0 .2-.1.2-.1.1-.4.4-.4.5l.5-.5c-.1-.1-.1-.2 0-.3zm.2.5c-.3.1-.5.3-.7.4.2-.2.4-.3.7-.4zm.1.4h-.3c-.2 0-.2.1-.3.1.1-.1.2-.1.3-.1h.3zm0 .5l-.3-.1c-.2-.1-.2-.1-.4-.1.1 0 .2 0 .4.1l.3.1zm-.3.4c-.1 0-.1-.1-.2-.2l-.2-.2.2.2.2.2z"/><path class="st55" d="M30.9 28.4s.7.6.7 1.1c0 .5-.3.9-.5 1.1 0-.4.1-.6 0-.7 0-.1-.1-.3-.2-.4-.1-.2-.5-.6-.8-.8l.1-.1.2-.1.3-.1h.2z"/><path class="st54" d="M31.5 29.9c-.1.3-.3.5-.4.6 0-.4.1-.6 0-.7 0-.1 0-.1-.1-.2.2 0 .4.2.5.3z"/><path class="st24" d="M31 28.4l-.5.4.5-.4zm.2.2l-.6.4.6-.4zm.2.3l-.5.4.5-.4zm.1.2l-.5.4.5-.4zm.1.3l-.5.4v-.1l.5-.3zm0 .3l-.4.4v-.1l.4-.3zm-.2.4h-.3v-.1l.3.1z"/><path class="st26" d="M30.9 28.4s.7.6.7 1.1c0 .6-.3.9-.5 1.1-.2.2-1.1 1-1.4 1.2-.2.3-.5.7-.3 1.1.2.5.5.6 1 .5.5-.1 1.4-.2 1.6.6.2.7 0 1.6 0 1.6l-.3.2-.8-.6.1-.4s.3-.2.2-.4c-.1-.2-.6-.2-.8-.1-.2 0-.9.1-1.2-.1-.4-.2-.6-.6-.7-.8-.1-.3-.2-1.1-.1-1.3.1-.3.3-.7.6-1 .3-.3.6-.4 1-.7.4-.3.4-.4.6-.6.1-.2 0-.3-.1-.3s-.1-.1-.2-.2l-.2-.3v-.3l.2-.2.2-.1.3-.1.1.1z"/><path class="st33" d="M30.9 28.4s-.3 0-.5.1-.4.4-.3.6l.3.4s-.3-.2-.3-.4c-.2-.5.4-.8.8-.7z"/><path class="st20" d="M32.9 35.8l-.4-.3s.3-.3 0-.4c0 0-.1-.4-.4-.6v.5s.1.1.1.2c0 0-.1.2-.2.2-.1.1-.2 0-.3 0-.1 0-.3-.1-.3-.1s.1-.2 0-.3h-.3s-.1-.1-.1-.3c0-.1.1-.2.1-.2h-.3s-.2-.1-.4 0-.3.3-.3.4c0 0-.3 0-.4.4 0 0-.1 0-.2.1v.3s0 .2.1.3v.2c.1.1.1.1.2.1 0 0 .2-.1.1-.2.1 0 .4-.1.4-.2 0 0 .2.1.4-.2 0 0 .1.2.3.4.2.2.2.2.3.2h.1c.3 0 .6-.3.6-.3s0 .2.2.2v.1l.8.1.4-.1-.5-.5z"/><path class="st21" d="M32.2 35.3l.1-.1.2-.1-.2.1c0 .1-.1.1-.1.1zM32 36l.1-.1.1-.1c.1 0 .1-.1.1-.1.1 0 .2-.2.2-.2l-.2.2-.1.1c-.1 0-.1.1-.1.1l-.1.1zM32.2 36.2s.3-.1.3-.2v-.1c0-.1-.1-.1-.1-.1s.1.1.2.1c0 0 .1.1 0 .2s-.4.1-.4.1zM32.5 36h.2c-.1.1-.2 0-.2 0zM32.1 35.4c.1 0 .2 0 .2.3 0-.2-.1-.2-.2-.3zM31.6 35.8h.1s.1 0 .1-.1v-.1.1s-.1 0-.1.1h-.1zM32.1 35.9c-.1-.1-.2-.1-.2-.1l.2.1zM31.6 36.4s0-.1.1-.2v-.30000000000000004s0-.1-.1-.1l-.2-.2.2.2s0 .1.1.1v.30000000000000004c-.1.1-.1.2-.1.2zM31.4 35.5l-.2.2-.1.1h-.30000000000000004c-.1 0-.1-.1-.1-.1s0-.1-.1-.1v-.1c0-.1.1-.2.1-.2s-.1.1-.1.2v.1s0 .1.1.1l.1.1h.30000000000000004l.1-.1c.1-.1.1-.2.2-.2zM30.5 36.1l-.1-.1-.1-.1v-.1s0-.1.1-.1c0 0 .1 0 .1-.1 0 0 .1 0 .1-.1 0 0-.1 0-.1.1 0 0-.1 0-.1.1l-.1.1v.1s0 .1.1.1l.1.1zM30.1 36.3s-.1-.1-.1-.2v-.2l.1-.1c.1-.1.2-.1.2-.1s-.1.1-.2.1-.1.1-.1.1v.1c0 .2.1.2.1.3zM30.3 35.8c-.1-.1-.1-.1-.1-.2s-.1-.2 0-.3c0-.1.1-.1.2-.1.1-.1.2-.1.2-.1-.1 0-.2.1-.2.1l-.2.1c-.1.1 0 .2 0 .3l.1.2zM29.7 36.1s.1-.1.2-.1c-.1 0-.1 0-.2.1zM30.1 35.4v-.4.2.2zM29.9 36s-.1-.1-.1-.2v-.1l.1-.1c.1-.1.2-.1.2-.1s-.1.1-.2.1l-.1.1v.1c.1.1.1.1.1.2zM29.8 35.4v.30000000000000004-.1c-.1-.1-.1-.2 0-.2zM29.6 35.8c.1-.1.2-.1.2-.1h-.1c0 .1 0 .1-.1.1z"/><path class="st30" d="M31.1 35s-.1-.1-.1-.3c0-.1.1-.2.1-.2h-.3c-.3.2-.2.7-.2.7.3.1.5-.2.5-.2z"/><path class="st22" d="M30 36.4c.1.1.3.3.6 0 0 0 .2 0 .3-.1 0 0 .2 0 .3-.1-.2-.2-.3-.4-.3-.4-.2.3-.4.2-.4.2 0 .1-.3.2-.4.2 0 .1 0 .2-.1.2z"/><path class="st56" d="M30.1 36.3s.1.1.2.1h.3-.3c-.1 0-.2-.1-.2-.1zM30.5 36.1s0 .1.1.1.1.1.3.1l-.3-.1-.1-.1z"/><path class="st33" d="M35 36.3s0 .9-.2 1c-.2 0-.3-.4-.3-.4s-1.1.5-1.4.3c0 0-.1-.1 0-.3 0 0-1-.2-1.2-.4 0 0 .1-.2.6-.2 0 0-.1 0-.1-.1 0 0 .2.2.6.1 0 0-.4-.2-.5-.3 0 0 .1-.5.7-.5 0 0-.4-.2-.5-.3-.1-.2-.2-.4-.1-.4s.2 0 .3.1c.1.1.2.2.3.2 0 0-.9-.8-.7-1.6 0 0 .8 1.2 1.6 1.9.1-.1.6.6.9.9z"/><path class="st30" d="M35 36.3s0 .9-.2 1c-.2 0-.3-.4-.3-.4s-.1 0-.1-.2c0 0-.1.2-.5.4s-.8.1-.8.1c.3.2 1.4-.3 1.4-.3s.2.4.3.3c.1 0 .1-.7.2-.9zm-1.9.5s-1-.2-1.2-.4c0 0 .4.2.6.2.3.1.3.1.4.1.2 0 .2.1.2.1z"/><path class="st35" d="M31.9 36.4s.1-.2.6-.2c.1.1.5.3.5.3-.3.1-1.1-.1-1.1-.1zm.6-.3s.2.2.6.1h.1s.1.1.3.1c-.1 0-.7.2-1-.2zm0 .1zm.4-.7l.3-.1s.1 0 .2.1c0 0 .2.4.3.5-.2 0-.2-.1-.5-.2h-.5s-.1-.3.4-.4c0 .1-.1.1-.2.1zm.5-.1c0-.1-.1-.2-.2-.2l-.4-.2c-.1-.1-.1-.2-.1-.2s.2 0 .4.1l.2.1h.1c-.1.1 0 .3 0 .4zm-.1-1l.4.5v.1c-.1.2-.1.5-.1.5.1-.3.2-.1.2-.1v.4l.1.3s0 .1-.1.1c-.1-.2-.3-.6-.4-.9 0-.3-.1-.7-.1-.9z"/><path class="st57" d="M34.1 35.2l.1.1s.1.2.3.5c-.1.2-.2.5-.1 1.1 0 0-.2-.1-.3-.7-.1.1-.5.2-.5.2s.3 0 .3.1-.3.2-.3.2c.2 0 .2.1.1.1s-.6.2-.8.4c0 0 0-.1.1-.3v-.1l.2-.2-.4-.1c-.3-.1-.4-.3-.4-.3.3.4.9.2.9.2-.2 0-.3-.1-.3-.1h-.1s-.4-.2-.5-.3c0 0 .1-.4.6-.4-.4.1-.4.4-.4.4h.5c.3 0 .3.1.5.2-.1-.1-.2-.5-.3-.5 0-.1 0-.1-.1-.2l-.1-.3c0-.1-.1-.2-.1-.4v-.4l.1.1c0 .2 0 .5.1.8.1.3.3.8.4.9.2 0 .3-.1.3-.1.2-.3.2-.6.2-.9zm-.5.3s-.1-.3.1-.5v.3s.2-.1.2.1c0 0-.2-.2-.3.1z"/><path class="st58" d="M26.2 31.5c.1-.1.2-.1.2-.3v-.3s0-.2-.2-.3c-.2 0-.2.2-.2.2s-.3 0-.3.2.2.2.2.2c-.1.1-.1.6.3.3zM26.6 31.5c.1-.1.2-.1.2-.3v-.3s0-.2-.2-.3c-.2 0-.2.2-.2.2s-.3 0-.3.2.2.2.2.2c-.1.2-.1.7.3.3zM26.9 31.6c-.1-.1-.1-.2-.1-.3 0-.2.3-.2.3-.2s0-.2-.2-.3c-.2 0-.2.2-.2.2s-.3 0-.3.2.2.2.2.2c0 .1 0 .3.1.3.1.1.3 0 .2-.1z"/><path class="st59" d="M27.7 40.3c-.1.2.2.6.4.7.2.2.6.1.8-.1.1-.1 0-.3-.2-.5-.4-.2-.9-.3-1-.1z"/><path class="st25" d="M28.1 40.4c.2 0 .4.1.5.2.1.1 0 .2-.1.3-.1.1-.3.1-.2 0 .1-.1.1-.1 0-.2l-.3-.1c-.1 0-.2-.1.1-.2z"/><path class="st59" d="M30.7 43.5c-.3.1-.6.3-.5.5.1.2.4.3.7.2.3 0 .5-.3.5-.5 0-.1-.3-.3-.7-.2z"/><path class="st25" d="M30.6 43.7c-.1.1-.2.2-.1.3.1.1.2 0 .3-.1.1-.1.2-.1.2 0s.1.1.2 0c0-.1.1-.2 0-.2-.2-.1-.3-.2-.6 0z"/><path class="st59" d="M40.2 41.9c-.3.2-.3.4-.3.6.1.2.4.2.6.1.2-.1.3-.3.4-.4.1-.1-.1-.6-.7-.3z"/><path class="st25" d="M40 42.3c0-.1.2-.3.4-.3s.2.2.4.1c0 0-.1.2-.2.2-.3 0-.4-.3-.6 0z"/><path class="st60" d="M39.5 43.1c.2 0 .4.2.4.4s-.2.4-.4.4-.4-.2-.4-.4.2-.4.4-.4zM31.2 40.5c.2 0 .4.2.4.4s-.2.4-.4.4-.4-.2-.4-.4.2-.4.4-.4zM29.2 42.1c.2 0 .4.2.4.4s-.2.4-.4.4-.4-.2-.4-.4.2-.4.4-.4z"/><path class="st61" d="M35.5 45.5c.3-.1.5-.1.9 0s.4.2.9.1.9-.6 1-.7c.1-.1.7-.7 1.9-.3 0 0-.1.2-.3.3 0 0 .6-.2 1.1.2 0 0-.2.3-.8.6 0 0 .6 0 .9.3 0 0-.4 0-.8.2-.5.2-1.4.7-1.9.5-.4-.2-.9-.6-1.1-.8-.2-.1-.3-.3-.8-.3h-.8l-.2-.1z"/><path class="st62" d="M40.8 45.9c.1 0 .2.1.2.1s-.5-.2-.9 0c-.4.1-1 .4-1.3.5-.3.1-.7.1-.9 0l-.4-.2c-.1-.1-.2-.2-.3-.2-.2-.1-.3-.3-.8-.3h-.8.9c.3 0 .6.1.7.2.1.1.4.3.6.4.2.1.4.2 1 .1s1-.4 1.4-.5c.3-.2.6-.1.6-.1zM37.1 45.6h.2c.5-.1.9-.6 1-.7.1-.1.7-.7 1.9-.3-1.2-.3-1.5.8-2.4 1h-.7z"/><path class="st61" d="M35.6 45.7c.2 0 .7.2 1.1.4.4.3.4.3.4.4 0 .1 0 .2-.2.2s-.2-.1-.3-.2c-.1-.1-.3-.3-.6-.4-.3-.1-.5-.2-.5-.2l.1-.2z"/><path class="st62" d="M37.1 46.5c0 .1 0 .2-.2.2s-.2-.1-.3-.2c-.1-.1-.3-.3-.6-.4-.3-.1-.5-.2-.5-.2s.2.1.4.1c.2.1.3.1.4.2.1 0 .3.2.3.2h.2c.2 0 .3.1.3.1z"/><path class="st61" d="M43.3 41.5c0 .3-.1.4-.5.7-.4.3-.7.6-.8.8l-.2.7c0 .2-.1.3-.4.5-.3.2-.4.3-.5.5-.1.1-.1.3-.1.3h.1s.2-.3.5-.5.9-.2 1.2-.2c.3 0 .9-.1 1.4-.4.5-.3.5-.8.5-1 0-.2.2-.3.2-.3s-.3 0-.4.1c0 0 .2-.6.2-.8 0 0-.2-.1-.6.1-.4.2-.6.4-.6.4s.2-.6 0-.9z"/><path class="st62" d="M44.6 42.8c0-.1.1-.1.1-.1-.5.1-.5.3-.6.5-.1.2-.3.3-.8.6s-.8.3-1.1.4c-.3 0-.6.2-.7.2l-.5.4c-.1.1-.1.2-.1.2 0-.1.2-.3.5-.5.2-.1.4-.2.6-.2.7-.1 1.2-.3 1.6-.6.5-.2 1-.9 1-.9zM43.3 41.5c0 .3-.1.4-.5.7-.4.3-.7.6-.8.8l-.2.7c0 .2-.1.3-.3.5.5-.2.4-.6.6-.8.1-.1.7-.6 1-1 .3-.4.2-.9.2-.9z"/><path class="st61" d="M46 38.3c-.3.1-.9.5-1.1.9-.3.4-.2.8-.1 1.1.1.3.1.6.1.9v.3s-.2.3-.3.4l-.2.2v.1s.2-.1.3-.2l.5-.6c.1-.1.2-.2.4-.2s.8-.3 1-.7c.2-.4.4-1 .5-1.2.1-.2.4-.5.4-.5s-.4 0-.8.4c0 0 0-.6-.1-1.1 0 0-.3 0-.7.6 0 0 0-.1.1-.4z"/><path class="st62" d="M44.4 42.1s.2-.1.3-.2l.5-.6.2-.2s.5-.3.6-.5c.1-.2.2-.2.6-1 .4-.8.9-.9.9-.9s-.4 0-.8.4l-.3.3c-.1.2-.5 1-.7 1.2-.1.2-.4.3-.5.4l-.3.3c0 .1-.3.4-.3.4 0 .3-.2.4-.2.4zM46 38.3c-.3.1-.9.5-1.1.9-.3.4-.2.8-.1 1.1.1.3.1.6.1.9v.2c.1-.1.1-.4.1-.7 0-.3-.1-.9.1-1.4.2-.3.9-1 .9-1z"/><path class="st61" d="M47.4 34c.1.2.3.8.4 1.1 0 0 0-.3.2-.5 0 0 0 .1.1.3.2.2.2.5.2.8 0 .4-.3.7-.6.9-.3.2-.8.5-.8.7-.1.2-.2.7-.2.7l-.1.2v-.1s.1-.2.1-.8c0-.6 0-.7-.1-.8-.1-.2-.3-.2-.3-.7 0-.5.1-.7.1-.9 0-.2-.1-.4-.2-.5 0 0 .4.1.7 1-.1.1 0-1.1.5-1.4z"/><path class="st62" d="M47.7 35.1s0-.3.2-.5v.6c0 .5 0 .6-.1.8l-.5.6c-.2.3-.3.4-.3.5l-.1.3c-.1.2-.2.7-.2.7l-.1.2s.1-.1.1-.3c.1-.2.2-.7.2-.9v-.8c-.1-.3-.1-.7-.1-.8 0-.1.1-1.2.6-1.5v1c0 .3-.2.5-.3.8-.1.3-.1.6-.1.8v.4s.1-.1.2-.4c.1-.2.4-.6.4-.8.1-.2.1-.3.1-.7zM46.6 37.2c0-.4 0-.5-.1-.6-.1-.2-.3-.2-.3-.7 0-.5.1-.7.1-.9 0-.2-.1-.4-.2-.5 0 0 .3.2.3.6.1.4-.1.6.1.9.1.3.2.3.2.5 0 .4-.1.7-.1.7zM39.8 44.9s.6-.2 1.1.2c0 0-.5-.2-1 .1-.6.3-1 .6-1.4.7-.5.1-.9 0-1-.1 0 0 .4-.1.9-.4.5-.2 1-.4 1.4-.5zM44.4 42s-.2-.1-.6.1c-.4.2-.6.4-.6.4s-1.1 1-1.2 1.5c.3-.3.8-.8 1-.9l.7-.4c.2-.1.3-.4.4-.5l.3-.2zM46.6 38.1s-.3 0-.7.6c-.8 1.3-.7 2.3-.7 2.3 0-.1.1-.2.3-.5.2-.2.4-.3.6-1.2.2-.9.5-1.2.5-1.2z"/><path class="st61" d="M34.6 45.7c-.2 0-.7.1-1.1.4-.4.2-.4.3-.5.4 0 .1 0 .2.2.2s.2-.1.3-.2c.1-.1.3-.3.6-.3.3-.1.5-.2.5-.2v-.3z"/><path class="st62" d="M32.9 46.5c0 .1 0 .2.2.2s.2-.1.3-.2c.1-.1.3-.3.6-.3.3-.1.5-.2.5-.2s-.2.1-.4.1-.3.1-.4.2c-.1 0-.3.2-.3.2h-.2c-.1-.1-.2-.1-.3 0z"/><path class="st61" d="M23.8 34.5c-.1.1-.3.4-.2.5.1.1.3-.1.4-.1.1 0 .2.2 0 .4s-.4.2-.5.4c-.1.2-.1.3.1.2.2-.1.4-.2.4-.1.1.1-.2.4-.3.5-.1.1-.2.2-.2.3h.1s0 .1-.1.2-.1.3 0 .6c.1.2.1.3.2.6v.6s-.1-.1-.2-.1h-.1v-.5c0-.2-.1-.5-.2-.6-.1-.1-.1-.2-.4-.4-.3-.2-.3-.4-.3-.4s-.4-.4-.5-.6c-.1-.2-.1-.3 0-.4.2-.1.3.1.4.2.1.1.2 0 .1-.1s-.4-.5-.3-.8c.1-.3.3-.2.4-.1.1.1.2.3.2 0s0-.4.1-.6c.1-.1.2-.3.2-.2 0 .1.1.3.3.1.1-.2.3-.3.4-.2.1.2.1.4 0 .6z"/><path class="st62" d="M23.4 38.1v-.1c0-.2-.1-.5-.2-.6-.1-.1-.1-.2-.4-.4-.3-.2-.3-.4-.3-.4s-.4-.4-.5-.6c-.1-.2-.1-.3 0-.4.2-.1.3.1.4.2.1.1.2 0 .1-.1s-.4-.5-.3-.8c.1-.3.3-.2.4-.1.1.1.2.3.2 0s0-.4.1-.6c.1-.1.2-.3.2-.2 0 .1.1.3.3.1.1-.2.3-.3.4-.2 0 .1 0 .2-.2.3-.1.1-.3.3-.4.3-.1.1-.1 0-.1-.1v-.2.2.2c0 .1.1.1 0 .2-.1.4-.1.3-.1.5v.2s.5-.2.7-.3c0 0-.3.3-.7.5 0 0-.4-.3-.5-.5 0 0 .1.4.4.6l.1.4s.2 0 .5-.1c0 0-.2.2-.5.3 0 0-.5-.1-.7-.3 0 0 .2.3.7.5l.1.3s-.1 0-.3-.1c0 0 .1.2.3.2 0 0 .1-.1.2-.1 0 0-.1.1-.1.2l.2.4v.6z"/><path class="st61" d="M26.2 42c-.1-.1-.3-.2-.5-.4-.3-.3-.4-.4-.5-.6-.1-.3.2-.9.2-1.2 0-.3-.2-.1-.3 0 0 .2-.1.2-.1.1l.1-.7c0-.2-.1-.4-.2-.5-.2-.1-.3.1-.3.3-.1.2-.1.3-.2.3s-.1-.2 0-.4c0-.2 0-.4-.1-.4l-.3.3c0 .1-.1 0-.1 0 0-.1-.2-.3-.3-.3-.1 0-.1.1-.1.2h-.2s.1.2.2.3c.1.1.1.1-.1.1s-.3-.1-.4 0c-.1.1 0 .3.2.4.2.1.5.2.7.2.2.1.1.1.1.1h-.2c-.1-.1-.4-.2-.4-.1-.1.1-.1.4.2.5.2.2.6.2.7.2.1 0 .3 0 .3.1l-.5.1c-.1 0-.2.2 0 .3l.6.1c.2 0 .5.4.6.5.1.1.7.6 1 .8-.1-.1-.1-.1-.1-.3z"/><path class="st62" d="M25.3 41.2l-.1-.2c-.1-.3.2-.9.2-1.2 0-.3-.2-.1-.3 0 0 .2-.1.2-.1.1l.1-.7c0-.2-.1-.4-.2-.5-.2-.1-.3.1-.3.3-.1.2-.1.3-.2.3s-.1-.2 0-.4c0-.2 0-.4-.1-.4l-.3.3c0 .1-.1 0-.1 0 0-.1-.2-.3-.3-.3 0 0 .1.4.4.7 0 0 .1-.1.2-.4 0 0 .1.1 0 .4l-.1.2s-.3 0-.7-.1c0 0 .1.1.5.2.3.1.3.1.4.2.1.1.2.3.2.3l.3-.9s-.1 1-.2 1.1c0 0-.6-.1-.9-.2 0 0-.1 0 1 .3l.2.3s.3-.4.3-.5c0 0-.1.5-.2.6h-.7s.3.1.7.1c0 0 0 .3.3.4z"/><path class="st61" d="M29.4 45l-.4-.4c-.2-.2-.4-.2-.5-.4-.1-.3-.1-.5-.1-.6 0-.2-.1-.1-.2 0-.1.2-.2.2-.2 0v-.7c0-.3-.2-.4-.3-.5-.1-.1-.2-.1-.3.1 0 .2 0 .5-.2.4-.1-.1-.1-.3-.1-.6s0-.4-.1-.6c-.1-.2-.2-.1-.2 0 0 .2 0 .4-.1.4s-.1-.1-.2-.2c0-.1-.1-.1-.1-.1-.1 0-.1-.1-.1-.2s-.1-.1-.1.1v.5c0 .1 0 .2-.1.2-.2 0-.4-.1-.3 0 0 .1.2.2.4.3.2.1.4.2.3.3 0 .1-.2.1-.4 0-.1-.1-.4-.2-.4 0s0 .3.2.5.4.2.6.2c.2 0 .5 0 .5.1s-.1.1-.4.1c-.2 0-.4-.1-.5 0-.1.1.1.4.3.5.2.1.4.3.6.1.2-.1.3-.2.4-.1.1.1 0 .2 0 .3 0 .1.1.1.3 0 .1-.1.3-.2.6-.1s.4.1.6.3c.2.2.6.5.6.5v-.2l-.1-.2z"/><path class="st62" d="M28.8 44.4c-.1-.1-.3-.1-.3-.3-.1-.3-.1-.5-.1-.6 0-.2-.1-.1-.2 0-.1.2-.2.2-.2 0v-.7c0-.3-.2-.4-.3-.5-.1-.1-.2-.1-.3.1 0 .2 0 .5-.2.4-.1-.1-.1-.3-.1-.6s0-.4-.1-.6c-.1-.2-.2-.1-.2 0 0 .2 0 .4-.1.4s-.1-.1-.2-.2c0-.1-.1-.1-.1-.1-.1 0-.1-.1-.1-.2s-.1-.1-.1 0c0 .2.1.4.1.5.1.1.2.2.1.3h-.4s.1.1.5.1h.1l.2.3s.1-.1.1-.8c0 0 .1.5 0 .9l.1.1c0 .1 0 .1-.1.1h-.8s.2.1.6.2h.4l.3.3s.2-.3.2-.9c0 0 .1.3 0 1 0 0-.2.2-.9.3 0 0 .4.1.9-.1 0 0 .2.2.4.3l-.4.2s.3 0 .5-.1h.1s0-.2-.1-.5c0 0 .1.1.1.5.1 0 .2.1.6.2z"/><path class="st61" d="M34.6 45.5s-.1-.2-.6-.2-.7.1-1 .2c-.3.1-.4-.1-.5-.3-.1-.2-.2-.1-.2 0s0 .3-.1.2c-.1-.1-.2-.4-.4-.6-.2-.1-.4-.2-.6-.1-.2 0-.1.1-.1.2l.2.3c.1.1 0 .2-.1.1l-.6-.6c-.1-.1-.3-.1-.5-.1-.1 0-.1.1 0 .2.1 0 .2.2.2.3 0 .1-.1.1-.2 0s-.2-.3-.5-.3-.3.1-.3.2.1.2-.1.2-.5.2-.6.4c-.1.2 0 .2.1.1.1 0 .1 0 .2-.1 0 0 .1-.1.1 0s0 .2.1.2.3-.2.5-.2h.3c.1 0 .1.1 0 .2s-.2.2-.3.2c-.1 0-.1.2.1.2s.4 0 .6-.1l.3-.3c.1-.1.2 0 .2.1l-.3.4c-.1.1 0 .2.1.3.2 0 .4 0 .5-.1.1-.1.3-.3.4-.5.1-.1.3-.1.2.1l-.2.3c-.1.1.1.3.2.2.2 0 .4-.2.5-.4l.3-.4.4-.1.5-.3c.3-.1.4 0 .5 0 .1.1.2.2.3.2.5.3.4-.1.4-.1z"/><path class="st62" d="M33.1 45.5c-.3.1-.3-.1-.5-.3-.1-.2-.2-.1-.2 0s0 .3-.1.2c-.1-.1-.2-.4-.4-.6-.2-.1-.4-.2-.6-.1-.2 0-.1.1-.1.2l.2.3c.1.1 0 .2-.1.1l-.6-.6c-.1-.1-.3-.1-.5-.1-.1 0-.1.1 0 .2.1 0 .2.2.2.3 0 .1-.1.1-.2 0s-.2-.3-.5-.3-.3.1-.3.2.1.2-.1.2c-.1 0-.4.2-.5.3 0 0 .2-.2.5-.2h.8s-.2-.1-.3-.4c0 0 .3.3.5.4 0 0 .4 0 .3.1 0 .1-.4.4-.4.4l.5-.4h.3s-.1-.3-.4-.7c0 0 .4.3.5.7h.2c.1 0 .1.1 0 .1 0 0-.2.4-.3.5l.4-.5h.2s-.2-.3-.2-.7c0 0 .2.5.4.7h.2c.1 0 .1.1 0 .1l-.2.5s.3-.4.4-.5c.1-.1.2-.1.1-.3-.1-.1-.1-.2-.1-.3l.2.2c.1.1.1.1.2.1.4.3.4.3.5.2z"/><path class="st25" d="M34.6 45.1h.9c.1 0 .1.1.1.1v.8c0 .2-.1.4-.3.6-.3.2-.9.8-1 1l-.3-.4s-.2-.1-.7.2c0 0 .2-.7 1.3-1.3v-.9c-.1 0-.1-.1 0-.1z"/><path class="st63" d="M35.3 45.1h.2c.1 0 .1.1.1.1v.8c0 .2-.1.4-.3.6-.3.2-.9.8-1 1l-.3-.3.2-.3.7-.6c.2-.2.4-.4.4-.6v-.7z"/><path class="st64" d="M34.6 45.1h.2v1c0 .1 0 .1-.2.2-.1.1-.5.3-.7.4-.1.1-.3.3-.3.5-.1 0-.3.1-.5.2 0 0 .2-.7 1.3-1.3v-.9l.2-.1z"/><path class="st25" d="M36 47.7s-.1-.2-.5-.3c-.4-.1-.5-.4-.5-.4.1-.1.3-.2.3-.3.2-.2.3-.3.3-.5 0 0 .1.2.5.4s.6.2 1 .7c0 0-.5-.1-.7 0 0 0-.2.1-.4.4z"/><path class="st63" d="M35.5 46.6c.1-.1.1-.2.1-.4 0 0 .1.2.5.4s.6.2 1 .7h-.5l-.3-.3c-.3-.2-.4-.1-.6-.3-.1 0-.2-.1-.2-.1z"/><path class="st64" d="M36 47.7s-.1-.2-.5-.3c-.4-.1-.5-.4-.5-.4l.2-.2c0 .1.1.1.2.2.2.2.3.2.6.2.1 0 .2.1.3.2l-.3.3z"/></g></svg>
