<svg xmlns="http://www.w3.org/2000/svg" xmlns:xlink="http://www.w3.org/1999/xlink" viewBox="0 0 71 71" enable-background="new 0 0 71 71"><style type="text/css">.st0{clip-path:url(#SVGID_2_);} .st1{fill-rule:evenodd;clip-rule:evenodd;fill:#EE2724;} .st2{fill-rule:evenodd;clip-rule:evenodd;fill:#F4F4F5;} .st3{fill-rule:evenodd;clip-rule:evenodd;fill:#214097;} .st4{fill-rule:evenodd;clip-rule:evenodd;fill:#FEDD23;}</style><defs><path id="SVGID_1_" d="M71 35.5c0 19.6-15.9 35.5-35.5 35.5s-35.5-15.9-35.5-35.5 15.9-35.5 35.5-35.5 35.5 15.9 35.5 35.5z"/></defs><clipPath id="SVGID_2_"><use href="#SVGID_1_" overflow="visible"/></clipPath><g class="st0"><path class="st1" d="M88.7 65.9v-5.1h-106.4v5.1h106.4zm0-10.1v-5.1h-106.4v5.1h106.4zm0-10.2v-5.1h-106.5v5.1h106.5zm0-10.1v-5.1h-53.2v5.1h53.2zm0-10.1v-5.1h-53.2v5.1h53.2zm0-10.2v-5.1h-53.2v5.1h53.2zm0-10.1v-5.1h-53.2v5.1h53.2z"/><path class="st2" d="M35.5 10.1h53.2v-5h-53.2v5zm-53.2 60.9h106.4v-5.1h-106.4v5.1zm0-10.1h106.4v-5.1h-106.4v5.1zm0-10.2h106.4v-5.1h-106.4v5.1zm53.2-10.1h53.2v-5.1h-53.2v5.1zm0-10.2h53.2v-5.1h-53.2v5.1zm0-10.1h53.2v-5.1h-53.2v5.1z"/><path class="st3" d="M-17.7 40.6h53.2v-40.6h-53.2v40.6z"/><path class="st4" d="M19.8 13.3c-6.4-3.1-14 1.6-14 8.9 0 7.3 7.6 11.9 14 8.9-7.3 5.8-18.3.7-18.3-8.9s11-14.6 18.3-8.9zm5 12.5l3.3 4.7-1.7-5.4 5 2.9-4-4.1 5.8.5-5.4-2.1 5.4-2.1-5.8.5 4-4.1-5 2.9 1.7-5.4-3.3 4.7-.8-5.8-.8 5.6-3.3-4.7 1.7 5.4-5-2.9 4 4.1-5.8-.5 5.4 2.1-5.4 2.1 5.8-.5-4 4.1 5-2.9-1.7 5.4 3.3-4.7.8 5.6.8-5.4z"/></g></svg>
