<svg xmlns="http://www.w3.org/2000/svg" xmlns:xlink="http://www.w3.org/1999/xlink" viewBox="0 0 71 71" enable-background="new 0 0 71 71"><style type="text/css">.st0{clip-path:url(#SVGID_2_);} .st1{fill-rule:evenodd;clip-rule:evenodd;fill:#EE2724;} .st2{fill-rule:evenodd;clip-rule:evenodd;fill:#F4F4F5;} .st3{fill-rule:evenodd;clip-rule:evenodd;fill:#214097;stroke:#F4F4F5;stroke-width:0.1419;stroke-miterlimit:2.4142;}</style><defs><path id="SVGID_1_" d="M71 35.5c0 19.6-15.9 35.5-35.5 35.5s-35.5-15.9-35.5-35.5 15.9-35.5 35.5-35.5 35.5 15.9 35.5 35.5z"/></defs><clipPath id="SVGID_2_"><use xlink:href="#SVGID_1_" overflow="visible"/></clipPath><g class="st0"><path class="st1" d="M-13.3 71h29.8v-27h-29.8v27zm46.8 0h59.6v-27h-59.6v27zm59.7-44v-27h-59.7v27h59.7zm-76.7-27h-29.8v27h29.8v-27z"/><path class="st2" d="M16.5 71h4.3v-31.2h-34.1v4.2h29.8v27zm12.8 0h4.3v-27h59.6v-4.3h-63.9v31.3zm63.9-39.8v-4.2h-59.7v-27h-4.3v31.2h64zm-72.4-31.2h-4.3v27h-29.8v4.3h34.1v-31.3z"/><path class="st3" d="M-13.3 39.8h34.1v31.2h8.5v-31.2h63.9v-8.6h-63.9v-31.2h-8.5v31.2h-34.1v8.6z"/></g></svg>