<svg xmlns="http://www.w3.org/2000/svg" viewBox="0 0 84 49" enable-background="new 0 0 84 49"><style type="text/css">.st0{fill:#1D439B;} .st1{fill:#CE2028;} .st2{fill:#FFFFFF;} .st3{fill:#FBD118;}</style><path id="_x33_1" class="st0" d="M0-.1h84v49.1h-84z"/><path id="_x33_0" class="st1" d="M0 24.4h84v24.6h-84z"/><path id="_x32_9" class="st2" d="M42.5 24.4l-42.5 24.6v-49.1"/><circle id="_x32_8" class="st3" cx="15.3" cy="24.4" r="4.9"/><path id="_x32_7" class="st3" d="M4.9 24.4l.6.6 9.7-.6-9.7-.6-.6.6z"/><path id="_x32_6" class="st3" d="M6 25.6l.5.5 8.8-1.7-9.3 1.2z"/><path id="_x32_5" class="st3" d="M6 23.2l.5-.5 8.8 1.7-9.3-1.2z"/><path id="_x32_4" class="st3" d="M8 17.1v.9l7.4 6.5-6.5-7.4h-.9z"/><path id="_x32_3" class="st3" d="M7.9 18.7v.8l7.4 5-7.4-5.8z"/><path id="_x32_2" class="st3" d="M9.6 17h.8l5 7.4-5.8-7.4z"/><path id="_x32_1" class="st3" d="M15.3 14.1l-.6.6.6 9.7.6-9.7-.6-.6z"/><path id="_x32_0" class="st3" d="M14.1 15.2l-.5.5 1.7 8.8-1.2-9.3z"/><path id="_x31_9" class="st3" d="M16.5 15.2l.5.5-1.7 8.8 1.2-9.3z"/><path id="_x31_8" class="st3" d="M22.6 17.1h-.9l-6.5 7.4 7.4-6.5v-.9z"/><path id="_x31_7" class="st3" d="M21 17h-.8l-5 7.4 5.8-7.4z"/><path id="_x31_6" class="st3" d="M22.7 18.7v.8l-7.4 5 7.4-5.8z"/><path id="_x31_5" class="st3" d="M25.7 24.4l-.7-.6-9.7.6 9.7.6.7-.6z"/><path id="_x31_4" class="st3" d="M24.6 23.2l-.5-.5-8.8 1.7 9.3-1.2z"/><path id="_x31_3" class="st3" d="M24.6 25.6l-.5.5-8.8-1.7 9.3 1.2z"/><path id="_x31_2" class="st3" d="M22.6 31.8v-.9l-7.4-6.5 6.5 7.4h.9z"/><path id="_x31_1" class="st3" d="M22.7 30.1v-.8l-7.4-5 7.4 5.8z"/><path id="_x31_0" class="st3" d="M21 31.9h-.8l-5-7.4 5.8 7.4z"/><path id="_x39_" class="st3" d="M15.3 34.8l.6-.6-.6-9.7-.6 9.7.6.6z"/><path id="_x38_" class="st3" d="M16.5 33.7l.5-.5-1.7-8.8 1.2 9.3z"/><path id="_x37_" class="st3" d="M14.1 33.7l-.5-.5 1.7-8.8-1.2 9.3z"/><path id="_x36_" class="st3" d="M8 31.8h.9l6.5-7.4-7.4 6.5v.9z"/><path id="_x35_" class="st3" d="M9.6 31.9h.8l5-7.4-5.8 7.4z"/><path id="_x34_" class="st3" d="M7.9 30.1v-.8l7.4-5-7.4 5.8z"/><path id="_x33_" class="st3" d="M1.2 7l1.9.3.5 1.9.8-1.8 1.9.2-1.4-1.3.8-1.8-1.7.9-1.5-1.3.4 2z"/><path id="_x32_" class="st3" d="M1.2 41.8l1.7 1-.4 1.9 1.5-1.2 1.7.9-.8-1.8 1.4-1.3-1.9.2-.8-1.8-.5 1.9z"/><path id="_x31_" class="st3" d="M32.7 22.8l1.1 1.6-1.1 1.6 1.9-.5 1.2 1.6v-2l1.9-.7-1.9-.6v-2l-1.2 1.6z"/></svg>