<svg xmlns="http://www.w3.org/2000/svg" xmlns:xlink="http://www.w3.org/1999/xlink" viewBox="0 0 71 71" enable-background="new 0 0 71 71"><style type="text/css">.st0{clip-path:url(#SVGID_2_);} .st1{fill:#0C8542;} .st2{fill:#EE2724;} .st3{fill-rule:evenodd;clip-rule:evenodd;fill:#F7EC13;stroke:#000000;stroke-width:0.1672;stroke-miterlimit:2.4142;} .st4{fill-rule:evenodd;clip-rule:evenodd;fill:#F7EC13;stroke:#000000;stroke-width:0.1675;stroke-miterlimit:2.4142;} .st5{fill:none;stroke:#000000;stroke-width:0.1674;stroke-miterlimit:2.4142;} .st6{fill-rule:evenodd;clip-rule:evenodd;fill:#EE2724;} .st7{fill-rule:evenodd;clip-rule:evenodd;fill:#FFFFFF;} .st8{fill-rule:evenodd;clip-rule:evenodd;fill:#F7EC13;stroke:#000000;stroke-width:0.1338;stroke-miterlimit:2.4142;} .st9{fill-rule:evenodd;clip-rule:evenodd;} .st10{fill-rule:evenodd;clip-rule:evenodd;fill:#F7EC13;stroke:#000000;stroke-width:0.1477;stroke-miterlimit:2.4142;} .st11{fill-rule:evenodd;clip-rule:evenodd;fill:#F7EC13;} .st12{fill-rule:evenodd;clip-rule:evenodd;fill:#243E90;}</style><defs><path id="SVGID_1_" d="M71 35.5c0 19.6-15.9 35.5-35.5 35.5s-35.5-15.9-35.5-35.5 15.9-35.5 35.5-35.5 35.5 15.9 35.5 35.5z"/></defs><clipPath id="SVGID_2_"><use href="#SVGID_1_" overflow="visible"/></clipPath><g class="st0"><path class="st1" d="M-13.3 71h42.6v-71h-42.6v71z"/><path class="st2" d="M29.3 71h63.9v-71h-63.9v71z"/><path class="st3" d="M37.2 44.8s2.7 1.4 4.4 2c1.7.7 2.3.5 2.4.3.1-.2.1-.3.1-.3l-.6-1.1-4.3-3.5-1.9.4-.1 2.2z"/><path d="M42 46.4s-2.7-.9-4.3-1.7v.1c1.6.8 4.2 1.7 4.3 1.6z"/><path class="st3" d="M45 26.2c.2 0 .4 0 .2-.3l-.4-.4c0 .2-.1.4-.1.5.2 0 .2.1.3.2zM45.7 27l-.1.4.2.2c.2 0 .5-.1.3-.3l-.4-.3z"/><path class="st4" d="M15.4 44.7s5.1 1.7 13.8 1.6c4.1 0 9-.3 14.5-1.6l-1.8 2.1c-5.6 1.7-15.5 2.7-24.8.2l-1.7-2.3z"/><path d="M17 46.5c.6.2 3.4.8 6.6 1.2 1.9.3 3.9.4 5.7.4 5.3 0 12.6-1.7 12.6-1.7v.1s-7.4 1.7-12.7 1.7c-1.8 0-3.8-.2-5.7-.4-3.1-.4-5.9-1.1-6.5-1.3zM15.9 45.2c.5.1 3.7.8 7.3 1.3 2 .3 4.2.5 6.1.5 5.6 0 13.3-1.7 13.3-1.7v.1s-7.8 1.7-13.4 1.7c-1.9 0-4.1-.2-6.1-.5-3.5-.5-6.7-1.2-7.2-1.4z"/><path class="st3" d="M19 38.9s-4-.5-6.5-1.4v-1.9s3.8 1.2 6.5 1.4v1.9z"/><path d="M12.7 35.9s2.9 1 5.9 1.3v.1c-3.1-.3-6-1.3-5.9-1.4zM12.7 37s3.1 1 5.8 1.3v.1c-2.7-.2-5.8-1.3-5.8-1.4z"/><path class="st4" d="M14.3 46c-.2 0-.5 0-.6-.2l.3-.5.3.7zM13.4 44.5c-.1.1-.4.1-.5-.1l.1-.4c.2.1.3.3.4.5z"/><path class="st3" d="M39.6 29.3s3.5-.7 4.9-1.2c1.3-.6-1.1-1.7-1.1-1.7s-2.6.7-3.5.9c-1 .1-.3 2-.3 2z"/><path d="M40.2 28.6s2.9-.6 3.8-1v.1c-.9.4-3.8 1-3.8.9zm-.2-1.1s2.7-.5 3.5-.8v.1c-.9.3-3.5.8-3.5.7z"/><path class="st4" d="M11.1 37c-.2 0-.4 0-.4-.4l.3-.6c0 .4 0 .7.1 1zM11 35.2c-.1 0-.3.1-.3-.2.1-.2.2-.3.2-.5 0 .3 0 .5.1.7zM47.4 37c.2 0 .4 0 .4-.4l-.3-.6c0 .4 0 .7-.1 1zM47.6 35.2c.1 0 .3.1.3-.2-.1-.2-.2-.3-.2-.5-.1.3-.1.5-.1.7z"/><path class="st3" d="M16.6 32.5s-1.7-1.2-3.1-2.4c-1.4-1.2-1.5-1.8-1.4-2 .1-.2.2-.3.2-.3h1.3l5.1 2s.6 1.8.5 1.9c0 .1-2.6.8-2.6.8z"/><path d="M13.7 29.6s2 1.9 3.6 2.9l-.1.1c-1.6-1-3.6-2.9-3.5-3z"/><path class="st3" d="M39.5 38.9s4.1-.5 6.5-1.4v-1.9s-3.8 1.2-6.5 1.4v1.9z"/><path d="M45.9 35.9s-2.9 1-5.9 1.3v.1c3-.3 5.9-1.3 5.9-1.4zM45.8 37s-3.1 1-5.8 1.3v.1c2.7-.2 5.8-1.3 5.8-1.4z"/><path class="st3" d="M29.3 17c10.2 0 18.4 8.3 18.4 18.5s-8.3 18.5-18.4 18.5c-10.2 0-18.4-8.3-18.4-18.5-.1-10.2 8.2-18.5 18.4-18.5zm0 2c9.1 0 16.5 7.4 16.5 16.5s-7.4 16.5-16.5 16.5-16.5-7.4-16.5-16.5 7.4-16.5 16.5-16.5z"/><path class="st5" d="M29.3 17.5c9.9 0 18 8.1 18 18s-8 18-18 18-18-8.1-18-18 8.1-18 18-18zM29.3 18.6c9.3 0 16.9 7.6 16.9 16.9 0 9.3-7.5 16.9-16.9 16.9-9.3 0-16.9-7.6-16.9-16.9 0-9.3 7.6-16.9 16.9-16.9z"/><path class="st4" d="M28.7 17h1.2v6.5h-1.2v-6.5zM30.3 16.8h-.4v6.7h.4v-6.7zM28.7 16.8h-.4v6.7h.4v-6.7zM28.7 54h1.2v-6.5h-1.2v6.5zM30.3 54.2h-.4v-6.7h.4v6.7zM28.7 54.2h-.4v-6.7h.4v6.7zM12.9 44.1s.4.8.8 1.3c0 0 .7-.5 1.5-.9.9-.4 4.8-1.4 4.8-1.4l-.8-1.5s-3.9.9-5.1 1.6c-1.1.7-1.2.9-1.2.9zM12.7 44.1s.2-.6 2.5-1.4c2.3-.8 4.2-1.2 4.2-1.2v.4s-2.7.6-4.2 1.1c-1.4.5-2.1 1-2.3 1.4l-.2-.3zM13.5 45.5s.2-.6 2.5-1.4c2.3-.8 4.2-1.2 4.2-1.2v.4s-2.7.6-4.2 1.1c-1.4.5-2.1 1-2.3 1.4l-.2-.3zM10.8 34.7v1.4l2.5-1.2 3.4-.9 1.8-.3-.1-1.6-3.8.8-2.3.8-1.5 1zM10.7 36.6s.6-1 3.7-1.8 4.2-.9 4.2-.9l-.1-.4s-2.3.4-4.2.9c-1.9.6-3.3 1.3-3.7 1.7l.1.5zM10.7 35.1s.6-1 3.7-1.8 4.2-.9 4.2-.9l-.1-.4s-2.3.4-4.2.9c-1.9.6-3.3 1.3-3.7 1.7l.1.5zM47.7 34.7v1.4l-2.5-1.2-3.4-.9-1.8-.3.1-1.6 3.8.8 2.3.8 1.5 1zM47.9 36.6s-.6-1-3.7-1.8-4.2-.9-4.2-.9l.1-.4s2.3.4 4.2.9c1.9.6 3.3 1.3 3.7 1.7l-.1.5zM47.9 35.1s-.6-1-3.7-1.8-4.2-.9-4.2-.9l.1-.4s2.3.4 4.2.9c1.9.6 3.3 1.3 3.7 1.7l-.1.5z"/><path class="st3" d="M44.8 25.3l.9 1.7-2.5-1-3.3-.7.1-1.4 2.7.6 2.1.8zM40.2 23.7s3.1.5 4.8 1.6l.3.5c-.2-.2-1-.6-2.6-1.1-1.9-.5-2.4-.6-2.4-.6l-.1-.4zM45.8 26.9s-1.7-1-5.7-1.6v.4s3.4.6 5.8 1.7h.1l-.2-.5zM14.6 25l-1 1.6 2.5-.8 3.3-.6v-1.4l-2.7.5-2.1.7zM19.3 23.6s-3.2.4-4.9 1.4l-.3.5c.2-.1 1-.6 2.6-.9 1.9-.4 2.5-.5 2.5-.5l.1-.5zM13.4 26.5s1.7-.9 5.7-1.3l-.1.4s-3.4.4-5.9 1.4h-.1l.4-.5zM13.7 25.1l-.3.3s-.2.2.1.6l.5-1-.3.1zM12.4 27.8l1.4-2.7h1l2.6.8 1.2.6s.1 3.5 0 3.5-1.9-.9-1.9-.9l-3.2-1.1-1.1-.2zM18.4 26.6s-1.6-.9-3.2-1.2c-1.6-.3-1.8.1-1.8.1l.2-.4s.2-.4 2.4.2c2.1.6 2.4.9 2.4.9v.4zM18.4 29.6c-1.2-.6-4.8-2.2-6-1.9l-.3.5c.9-.5 3.5.6 4.4 1 1.1.5 2 .9 2 .9l-.1-.5zM45.8 44.2l-.1.4s-.1.3-.6.2l.6-.9.1.3zM44.2 46.6l1.7-2.6-.5-.8-1.9-1.9-3.5-2.6s-.8 3.3-.8 3.4c0 .1 1.9 1.3 1.9 1.3l2.5 2.3.6.9zM40.1 39.1s2.3 1.8 2.5 1.9c.5.3 1.5 1.1 2.3 2 1 1.2.8 1.6.8 1.6l.3-.4s.3-.4-1.3-2c-.9-.9-1.4-1.3-1.7-1.5-.2-.1-2.8-2.1-2.8-2.1l-.1.5zM38.9 41.8c1.4.9 5 3.5 5.4 4.9l-.3.4c0-1-2.2-2.8-3-3.4-.8-.6-1.7-1.2-2.6-1.8l.5-.1z"/><path class="st6" d="M18.6 23.3h21.3v14.2c0 5.8-4.8 10.6-10.6 10.6s-10.6-4.8-10.6-10.6v-14.2h-.1z"/><path class="st7" d="M18.2 22.8h22.1v14.8c0 6.1-5 11.1-11.1 11.1s-11.1-5-11.1-11.1v-14.8h.1z"/><path class="st6" d="M18.6 23.3h21.3v14.2c0 5.8-4.8 10.6-10.6 10.6s-10.6-4.8-10.6-10.6v-14.2h-.1z"/><path class="st8" d="M28.9 25.3l.1-1.4h.6l.1 1.4h-.8z"/><path class="st9" d="M29.2 24.7h.2v-.3s0-.1-.1-.1c0 0-.1 0-.1.1v.3z"/><path class="st8" d="M27.9 25.3v-.8h.7l.1.8h-.8zM29.9 25.3v-.8h.7l.1.8h-.8zM27.8 27l.1-1.4h2.8l.2 1.4h-3.1zM28.5 27s0-1 .8-1.2c0 0 .8.2.8 1.2h-1.6z"/><path class="st10" d="M28.9 27s0-.7.4-.9c0 0 .4.1.4.9h-.8z"/><path class="st11" d="M27.8 26.9h3.1c.1 0 .1.1.1.1 0 .1-.1.1-.1.1h-3.1c-.1 0-.1-.1-.1-.1-.1 0 0-.1.1-.1zM27.9 25.8h2.9c.1 0 .1-.1.1-.1 0-.1-.1-.1-.1-.1h-2.9c-.1 0-.1.1-.1.1-.1 0 0 .1.1.1zM27.8 25.2h3c.1 0 .1.1.1.1 0 .1-.1.1-.1.1h-3c-.1 0-.1-.1-.1-.1s0-.1.1-.1z"/><path class="st9" d="M28.2 25.1h.2v-.2s0-.1-.1-.1c0 0-.1 0-.1.1v.2zM30.2 25.1h.2v-.2s0-.1-.1-.1c0 0-.1 0-.1.1v.2z"/><path class="st8" d="M28.1 24.6h.6c.1 0 .2-.1.2-.1v-.3h-.1v.2h-.1v-.1h-.1v.1h-.1v-.1h-.1s-.1 0-.1.1v.3c-.5-.1-.4-.1-.2-.1zM29.1 24h.6c.1 0 .2-.1.2-.1v-.3h-.1v.2h-.1v-.1h-.1v.1h-.1v-.1h-.1s-.1 0-.1.1v.3c-.5-.1-.4-.1-.2-.1zM30.1 24.6h.6l.2-.1v-.3h-.1v.2h-.1v-.1h-.1v.1h-.1v-.1h-.1s-.1 0-.1.1v.3c-.5-.1-.5-.1-.2-.1zM20.4 25.3l.1-1.4h.6l.1 1.4h-.8z"/><path class="st9" d="M20.7 24.7h.2v-.3s0-.1-.1-.1c0 0-.1 0-.1.1v.3z"/><path class="st8" d="M19.4 25.3v-.8h.7l.1.8h-.8zM21.4 25.3v-.8h.7l.1.8h-.8zM19.3 27l.1-1.4h2.8l.2 1.4h-3.1zM20 27s0-1 .8-1.2c0 0 .8.2.8 1.2h-1.6z"/><path class="st10" d="M20.4 27s0-.7.4-.9c0 0 .4.1.4.9h-.8z"/><path class="st11" d="M19.2 26.9h3.1c.1 0 .1.1.1.1 0 .1-.1.1-.1.1h-3.1c-.1 0-.1-.1-.1-.1l.1-.1zM19.4 25.8h2.9c.1 0 .1-.1.1-.1 0-.1-.1-.1-.1-.1h-2.9c-.1 0-.1.1-.1.1-.1 0 0 .1.1.1zM19.3 25.2h3c.1 0 .1.1.1.1 0 .1-.1.1-.1.1h-3c-.1 0-.1-.1-.1-.1s0-.1.1-.1z"/><path class="st9" d="M19.7 25.1h.2v-.2s0-.1-.1-.1c0 0-.1 0-.1.1v.2zM21.7 25.1h.2v-.2s0-.1-.1-.1c0 0-.1 0-.1.1v.2z"/><path class="st8" d="M19.6 24.6h.6c.1 0 .2-.1.2-.1v-.3h-.1v.2h-.1v-.1h-.1v.1h-.1v-.1h-.1s-.1 0-.1.1v.3c-.5-.1-.5-.1-.2-.1zM20.6 24h.6c.1 0 .2-.1.2-.1v-.3h-.1v.2h-.1v-.1h-.1v.1h-.1v-.1h-.1s-.1 0-.1.1v.3c-.5-.1-.5-.1-.2-.1zM21.6 24.6h.6c.1 0 .2-.1.2-.1v-.3h-.1v.2h-.1v-.1h-.1v.1h-.1v-.1h-.1s-.1 0-.1.1v.3c-.5-.1-.5-.1-.2-.1zM37.3 25.3l.1-1.4h.7l.1 1.4h-.9z"/><path class="st9" d="M37.7 24.7h.2v-.3s0-.1-.1-.1c0 0-.1 0-.1.1v.3z"/><path class="st8" d="M36.3 25.3l.1-.8h.7l.1.8h-.9zM38.3 25.3l.1-.8h.7v.8h-.8zM36.2 27l.2-1.4h2.7l.2 1.4h-3.1zM37 27s0-1 .8-1.2c0 0 .8.2.8 1.2h-1.6z"/><path class="st10" d="M37.3 27s0-.7.4-.9c0 0 .4.1.4.9h-.8z"/><path class="st11" d="M36.2 26.9h3.1c.1 0 .1.1.1.1 0 .1-.1.1-.1.1h-3.1c-.1 0-.1-.1-.1-.1s0-.1.1-.1zM36.3 25.8h2.9c.1 0 .1-.1.1-.1 0-.1-.1-.1-.1-.1h-2.9c-.1 0-.1.1-.1.1s0 .1.1.1zM36.3 25.2h3c.1 0 .1.1.1.1 0 .1-.1.1-.1.1h-3c-.1 0-.1-.1-.1-.1-.1 0 0-.1.1-.1z"/><path class="st9" d="M36.7 25.1h.2v-.2s0-.1-.1-.1c0 0-.1 0-.1.1v.2zM38.7 25.1h.2v-.2s0-.1-.1-.1c0 0-.1 0-.1.1v.2z"/><path class="st8" d="M36.5 24.6h.6c.1 0 .2-.1.2-.1v-.3h-.1v.2h-.1v-.1h-.1v.1h-.1v-.1h-.1s-.1 0-.1.1v.3c-.5-.1-.4-.1-.2-.1zM37.5 24h.6c.1 0 .2-.1.2-.1v-.3h-.1v.2h-.1v-.1h-.1v.1h-.1v-.1h-.1s-.1 0-.1.1v.3c-.5-.1-.4-.1-.2-.1zM38.5 24.6h.6c.1 0 .2-.1.2-.1v-.3h-.1v.2h-.1v-.1h-.1v.1h-.1v-.1h-.1s-.1 0-.1.1v.3c-.5-.1-.4-.1-.2-.1zM20.4 33.9l.1-1.4h.6l.1 1.4h-.8z"/><path class="st9" d="M20.7 33.3h.2v-.3s0-.1-.1-.1c0 0-.1 0-.1.1v.3z"/><path class="st8" d="M19.4 33.9v-.7h.7l.1.7h-.8zM21.4 33.9v-.7h.7l.1.7h-.8zM19.3 35.6l.1-1.3h2.8l.2 1.4-3.1-.1zM20 35.6s0-1 .8-1.2c0 0 .8.2.8 1.2h-1.6z"/><path class="st10" d="M20.4 35.6s0-.7.4-.9c0 0 .4.1.4.9h-.8z"/><path class="st11" d="M19.2 35.5h3.1c.1 0 .1.1.1.1 0 .1-.1.1-.1.1h-3.1c-.1 0-.1-.1-.1-.1l.1-.1zM19.4 34.4h2.9c.1 0 .1-.1.1-.1 0-.1-.1-.1-.1-.1h-2.9c-.1 0-.1.1-.1.1-.1 0 0 .1.1.1zM19.3 33.9h3c.1 0 .1.1.1.1 0 .1-.1.1-.1.1h-3c-.1 0-.1-.1-.1-.1 0-.1 0-.1.1-.1z"/><path class="st9" d="M19.7 33.7h.2v-.2s0-.1-.1-.1c0 0-.1 0-.1.1v.2zM21.7 33.7h.2v-.2s0-.1-.1-.1c0 0-.1 0-.1.1v.2z"/><path class="st8" d="M19.6 33.2h.6c.1 0 .2-.1.2-.1v-.3h-.1v.1h-.1v-.1h-.1v.1h-.1v-.1h-.1s-.1 0-.1.1v.3h-.2zM20.6 32.6h.6c.1 0 .2-.1.2-.1v-.3h-.1v.1h-.1v-.1h-.1v.1h-.1v-.1h-.1s-.1 0-.1.1v.3h-.2zM21.6 33.2h.6c.1 0 .2-.1.2-.1v-.3h-.1v.1h-.1v-.1h-.1v.1h-.1v-.1h-.1s-.1 0-.1.1v.3h-.2zM37.3 33.9l.1-1.4h.7l.1 1.4h-.9z"/><path class="st9" d="M37.7 33.3h.2v-.3s0-.1-.1-.1c0 0-.1 0-.1.1v.3z"/><path class="st8" d="M36.3 33.9l.1-.7h.7l.1.7h-.9zM38.3 33.9l.1-.7h.7v.7h-.8zM36.2 35.6l.2-1.3h2.7l.2 1.4-3.1-.1zM37 35.6s0-1 .8-1.2c0 0 .8.2.8 1.2h-1.6z"/><path class="st10" d="M37.3 35.6s0-.7.4-.9c0 0 .4.1.4.9h-.8z"/><path class="st11" d="M36.2 35.5h3.1c.1 0 .1.1.1.1 0 .1-.1.1-.1.1h-3.1c-.1 0-.1-.1-.1-.1s0-.1.1-.1zM36.3 34.4h2.9c.1 0 .1-.1.1-.1 0-.1-.1-.1-.1-.1h-2.9c-.1 0-.1.1-.1.1s0 .1.1.1zM36.3 33.9h3c.1 0 .1.1.1.1 0 .1-.1.1-.1.1h-3c-.1 0-.1-.1-.1-.1-.1-.1 0-.1.1-.1z"/><path class="st9" d="M36.7 33.7h.2v-.2s0-.1-.1-.1c0 0-.1 0-.1.1v.2zM38.7 33.7h.2v-.2s0-.1-.1-.1c0 0-.1 0-.1.1v.2z"/><path class="st8" d="M36.5 33.2h.6c.1 0 .2-.1.2-.1v-.3h-.1v.1h-.1v-.1h-.1v.1h-.1v-.1h-.1s-.1 0-.1.1v.3h-.2zM37.5 32.6h.6c.1 0 .2-.1.2-.1v-.3h-.1v.1h-.1v-.1h-.1v.1h-.1v-.1h-.1s-.1 0-.1.1v.3h-.2zM38.5 33.2h.6c.1 0 .2-.1.2-.1v-.3h-.1v.1h-.1v-.1h-.1v.1h-.1v-.1h-.1s-.1 0-.1.1v.3h-.2zM22.5 43.1l-1-1 .5-.5 1.1.9-.6.6z"/><path class="st9" d="M22.3 42.5l.1-.1-.2-.2h-.1v.1l.2.2z"/><path class="st8" d="M21.8 43.8l-.6-.5.5-.5.6.5-.5.5zM23.2 42.4l-.5-.6.4-.4.6.5-.5.5zM22.9 45.1l-.9-1 2-2 1.1.9-2.2 2.1zM23.4 44.6s-.7-.7-.3-1.4c0 0 .7-.4 1.4.3l-1.1 1.1z"/><path class="st10" d="M23.6 44.3s-.5-.5-.3-.9c0 0 .4-.2.9.3l-.6.6z"/><path class="st11" d="M22.8 45.1l2.2-2.2c.1-.1.1-.1.2 0s.1.1 0 .2l-2.2 2.2c-.1.1-.1.1-.2 0v-.2zM22.1 44.2l2-2c.1 0 .1-.1 0-.2s-.1-.1-.2 0l-2 2c-.1.1-.1.1 0 .2h.2zM21.6 43.8l2.1-2.1c.1-.1.1-.1.2 0s.1.1 0 .2l-2.1 2.1c-.1.1-.1.1-.2 0v-.2z"/><path class="st9" d="M21.8 43.4l.1-.1-.2-.2h-.1v.1l.2.2zM23.2 42l.1-.1-.2-.2h-.1v.1l.2.2z"/><path class="st8" d="M21.4 43.2l.4-.4c.1-.1.1-.2 0-.2 0-.1-.2-.2-.2-.2h-.1l-.1.1v.1l.1.1v.1l-.1.1h-.1l-.1-.1h-.1l-.1.1v.1l.1.1-.1.1h-.1l-.1-.1-.1.1v.1l.2.2c.3-.1.3-.1.5-.3zM21.7 42.1l.4-.4c.1-.1.1-.2 0-.2l-.2-.2h-.1l-.1.1v.1l.1.1v.1l-.1.1h-.1l-.1-.1h-.1l-.1.1v.1l.1.1-.1.1h-.1l-.1-.1-.1.1v.1l.2.2c.3-.1.3-.1.5-.3zM22.8 41.8l.4-.4c.1-.1.1-.2 0-.2l-.2-.2h-.1l-.1.1v.1l.1.1v.1l-.1.1h-.1l-.1-.1h-.1l-.1.1v.1l.1.1-.1.1h-.1l-.1-.1-.1.1v.1l.2.2c.3-.1.3-.1.5-.3zM36.1 43.1l.9-1-.4-.5-1.1.9.6.6z"/><path class="st9" d="M36.3 42.5l-.1-.1.2-.2h.1v.1l-.2.2z"/><path class="st8" d="M36.8 43.8l.5-.5-.5-.5-.6.5.6.5zM35.4 42.4l.5-.6-.5-.4-.6.5.6.5zM35.7 45.1l.8-1-1.9-2-1.1.9 2.2 2.1zM35.2 44.6s.7-.7.3-1.4c0 0-.7-.4-1.4.3l1.1 1.1z"/><path class="st10" d="M34.9 44.3s.5-.5.3-.9c0 0-.4-.2-.9.3l.6.6z"/><path class="st11" d="M35.8 45.1l-2.2-2.2c-.1-.1-.1-.1-.2 0s-.1.1 0 .2l2.2 2.2c.1.1.1.1.2 0v-.2zM36.5 44.2l-2-2c-.1 0-.1-.1 0-.2s.1-.1.2 0l2 2c.1.1.1.1 0 .2h-.2zM36.9 43.8l-2.1-2.1c-.1-.1-.1-.1-.2 0s-.1.1 0 .2l2.1 2.1c.1.1.1.1.2 0 .1 0 .1-.1 0-.2z"/><path class="st9" d="M36.7 43.4l-.1-.1.2-.2h.1v.1l-.2.2zM35.3 42l-.1-.1.2-.2h.1v.1l-.2.2z"/><path class="st8" d="M37.2 43.2l-.4-.4c-.1-.1-.1-.2 0-.2 0-.1.2-.2.2-.2h.1l.1.1v.1l-.1.1v.1l.1.1h.1l.1-.1h.1l.1.1v.1l-.1.1.1.1h.1l.1-.1.1.1v.1l-.2.2c-.3-.1-.4-.1-.5-.3zM36.9 42.1l-.4-.4c-.1-.1-.1-.2 0-.2l.2-.2h.1l.1.1v.1l-.1.1v.1l.1.1h.1l.1-.1h.1l.1.1v.1l-.1.1.1.1h.1l.1-.1.1.1v.1l-.2.2c-.3-.1-.4-.1-.5-.3zM35.8 41.8l-.4-.4c-.1-.1-.1-.2 0-.2l.2-.2h.1l.1.1v.1l-.1.1v.1l.1.1h.1l.1-.1h.1l.1.1v.1l-.1.1.1.1h.1l.1-.1.1.1v.1l-.2.2c-.3-.1-.4-.1-.5-.3z"/><path class="st7" d="M22.9 27.5h12.7v10.1c0 3.5-2.9 6.3-6.3 6.3-3.5 0-6.3-2.9-6.3-6.3v-10.1h-.1z"/><path class="st12" d="M27.9 29.1h2.8v2.1c0 .8-.6 1.4-1.4 1.4-.8 0-1.4-.6-1.4-1.4v-2.1z"/><path class="st7" d="M28.6 31.1c.1 0 .3.1.3.3 0 .1-.1.3-.3.3-.1 0-.3-.1-.3-.3 0-.2.1-.3.3-.3zm.7-.8c.1 0 .3.1.3.3 0 .1-.1.3-.3.3-.1 0-.3-.1-.3-.3.1-.1.2-.3.3-.3zm-.7-.7c.1 0 .3.1.3.3 0 .1-.1.3-.3.3-.1 0-.3-.1-.3-.3 0-.2.1-.3.3-.3zm1.5 0c.1 0 .3.1.3.3 0 .1-.1.3-.3.3-.1 0-.3-.1-.3-.3 0-.2.2-.3.3-.3zm0 1.5c.1 0 .3.1.3.3 0 .1-.1.3-.3.3-.1 0-.3-.1-.3-.3 0-.2.2-.3.3-.3z"/><path class="st12" d="M27.9 33.9h2.8v2.1c0 .8-.6 1.4-1.4 1.4-.8 0-1.4-.6-1.4-1.4v-2.1z"/><path class="st7" d="M28.6 36c.1 0 .3.1.3.3 0 .1-.1.3-.3.3-.1 0-.3-.1-.3-.3 0-.2.1-.3.3-.3zm.7-.8c.1 0 .3.1.3.3 0 .1-.1.3-.3.3-.1 0-.3-.1-.3-.3.1-.2.2-.3.3-.3zm-.7-.8c.1 0 .3.1.3.3 0 .1-.1.3-.3.3-.1 0-.3-.1-.3-.3 0-.1.1-.3.3-.3zm1.5 0c.1 0 .3.1.3.3 0 .1-.1.3-.3.3-.1 0-.3-.1-.3-.3 0-.1.2-.3.3-.3zm0 1.6c.1 0 .3.1.3.3 0 .1-.1.3-.3.3-.1 0-.3-.1-.3-.3 0-.2.2-.3.3-.3z"/><path class="st12" d="M24 33.9h2.8v2.1c0 .8-.6 1.4-1.4 1.4-.8 0-1.4-.6-1.4-1.4v-2.1z"/><path class="st7" d="M24.7 36c.1 0 .3.1.3.3 0 .1-.1.3-.3.3-.1 0-.3-.1-.3-.3 0-.2.1-.3.3-.3zm.7-.8c.1 0 .3.1.3.3 0 .1-.1.3-.3.3-.1 0-.3-.1-.3-.3.1-.2.2-.3.3-.3zm-.7-.8c.1 0 .3.1.3.3 0 .1-.1.3-.3.3-.1 0-.3-.1-.3-.3 0-.1.1-.3.3-.3zm1.5 0c.1 0 .3.1.3.3 0 .1-.1.3-.3.3-.1 0-.3-.1-.3-.3.1-.1.2-.3.3-.3zm0 1.6c.1 0 .3.1.3.3 0 .1-.1.3-.3.3-.1 0-.3-.1-.3-.3.1-.2.2-.3.3-.3z"/><path class="st12" d="M31.8 33.9h2.8v2.1c0 .8-.6 1.4-1.4 1.4-.8 0-1.4-.6-1.4-1.4v-2.1z"/><path class="st7" d="M32.4 36c.1 0 .3.1.3.3 0 .1-.1.3-.3.3-.1 0-.3-.1-.3-.3.1-.2.2-.3.3-.3zm.8-.8c.1 0 .3.1.3.3 0 .1-.1.3-.3.3-.1 0-.3-.1-.3-.3 0-.2.2-.3.3-.3zm-.8-.8c.1 0 .3.1.3.3 0 .1-.1.3-.3.3-.1 0-.3-.1-.3-.3.1-.1.2-.3.3-.3zm1.6 0c.1 0 .3.1.3.3 0 .1-.1.3-.3.3-.1 0-.3-.1-.3-.3 0-.1.1-.3.3-.3zm0 1.6c.1 0 .3.1.3.3 0 .1-.1.3-.3.3-.1 0-.3-.1-.3-.3 0-.2.1-.3.3-.3z"/><path class="st12" d="M27.9 38.7h2.8v2.1c0 .8-.6 1.4-1.4 1.4-.8 0-1.4-.6-1.4-1.4v-2.1z"/><path class="st7" d="M28.6 40.7c.1 0 .3.1.3.3 0 .1-.1.3-.3.3-.1 0-.3-.1-.3-.3 0-.1.1-.3.3-.3zm.7-.7c.1 0 .3.1.3.3 0 .1-.1.3-.3.3-.1 0-.3-.1-.3-.3.1-.2.2-.3.3-.3zm-.7-.8c.1 0 .3.1.3.3 0 .1-.1.3-.3.3-.1 0-.3-.1-.3-.3 0-.2.1-.3.3-.3zm1.5 0c.1 0 .3.1.3.3 0 .1-.1.3-.3.3-.1 0-.3-.1-.3-.3 0-.2.2-.3.3-.3zm0 1.5c.1 0 .3.1.3.3 0 .1-.1.3-.3.3-.1 0-.3-.1-.3-.3 0-.1.2-.3.3-.3z"/></g></svg>
