<svg xmlns="http://www.w3.org/2000/svg" xmlns:xlink="http://www.w3.org/1999/xlink" viewBox="0 0 71 71" enable-background="new 0 0 71 71"><style type="text/css">.st0{fill:url(#SVGID_1_);} .st1{clip-path:url(#SVGID_3_);} .st2{fill:#E2231A;} .st3{fill:#FFFFFF;} .st4{fill:none;}</style><radialGradient id="SVGID_1_" cx="31.574" cy="23.867" r="48.026" gradientTransform="scale(.834)" gradientUnits="userSpaceOnUse"><stop offset="0" stop-color="#F2F2F2"/><stop offset="1" stop-color="#D6D6D6"/></radialGradient><circle class="st0" cx="35.5" cy="35.5" r="35.5"/><defs><ellipse id="SVGID_2_" transform="matrix(1 -.01 .01 1 -.36 .364)" cx="35.5" cy="35.5" rx="35.5" ry="35.5"/></defs><clipPath id="SVGID_3_"><use href="#SVGID_2_" overflow="visible"/></clipPath><g class="st1"><path class="st2" d="M-6.3-.9h85.9v36.4h-85.9z"/><path class="st3" d="M-6.3 35.5h85.9v37.1h-85.9z"/></g><ellipse transform="matrix(1 -.01 .01 1 -.346 .35)" class="st4" cx="35.5" cy="35.5" rx="35.5" ry="35.5"/><path class="st3" d="M21.6 22.2c0-5.2 3.7-9.6 8.7-10.5-.7-.1-1.3-.2-2.1-.2-5.9 0-10.7 4.8-10.7 10.7 0 5.9 4.8 10.7 10.7 10.7.7 0 1.4-.1 2.1-.2-5-.9-8.7-5.3-8.7-10.5zM34.5 16.3l1.4-1h-1.8l-.5-1.7-.6 1.7h-1.7l1.4 1-.5 1.7 1.4-1.1 1.4 1.1zM28.8 20.5l1.4-1h-1.7l-.6-1.7-.5 1.7h-1.8l1.4 1-.5 1.7 1.4-1 1.4 1zM40 20.5l1.4-1h-1.7l-.6-1.7-.5 1.7h-1.8l1.5 1-.6 1.7 1.4-1 1.5 1zM37.7 27.4l1.4-1h-1.7l-.6-1.7-.5 1.7h-1.8l1.5 1-.6 1.7 1.4-1 1.5 1zM31.1 27.4l1.4-1h-1.7l-.6-1.7-.5 1.7h-1.8l1.4 1-.5 1.7 1.4-1 1.5 1z"/></svg>
