<svg xmlns="http://www.w3.org/2000/svg" xmlns:xlink="http://www.w3.org/1999/xlink" viewBox="0 0 71 71" enable-background="new 0 0 71 71"><style type="text/css">.st0{clip-path:url(#SVGID_2_);} .st1{fill:#F1F0F0;stroke:#F3F3F4;stroke-width:0.1775;stroke-miterlimit:2.4142;} .st2{fill-rule:evenodd;clip-rule:evenodd;fill:#214097;} .st3{fill-rule:evenodd;clip-rule:evenodd;fill:#EE2724;}</style><defs><path id="SVGID_1_" d="M71 35.5c0 19.6-15.9 35.5-35.5 35.5s-35.5-15.9-35.5-35.5 15.9-35.5 35.5-35.5 35.5 15.9 35.5 35.5z"/></defs><clipPath id="SVGID_2_"><use xlink:href="#SVGID_1_" overflow="visible"/></clipPath><g class="st0"><path class="st1" d="M-17.7 0h106.4v71h-106.4v-71z"/><path class="st2" d="M49.3 41.6c-2.4 5.3-7.7 9.1-13.9 9.1-8.4 0-15.2-6.8-15.2-15.2 0-2.5.6-4.9 1.7-7-1.4 7.5 4.4 12 9.8 9.8 3-1.2 3.6-3.2 5.8-4.8 5.5-4 12.7.6 11.8 8.1z"/><path class="st3" d="M35.4 20.4c8.4 0 15.2 6.8 15.2 15.2 0 2.2-.4 4.2-1.3 6 .9-7.5-6.3-12.1-11.8-8-2.2 1.6-2.8 3.6-5.8 4.8-5.4 2.2-11.2-2.4-9.8-9.8 2.6-4.9 7.6-8.2 13.5-8.2z"/><path d="M7.1 25.7l8.4-12.7 2.1 1.4-8.4 12.7-2.1-1.4zm3.1 2.1l8.4-12.6 2.1 1.4-8.4 12.6-2.1-1.4zm-6.3-4.2l8.4-12.6 2.1 1.4-8.4 12.6-2.1-1.4zM61.8 27.1l-8.4-12.6 2.1-1.4 8.4 12.6-2.1 1.4zm3.2-2.1l-3.9-5.9 2.1-1.4 3.9 5.9-2.1 1.4zm-4.6-6.9l-3.8-5.7 2.1-1.4 3.8 5.7-2.1 1.4zm-1.7 11.1l-3.9-5.9 2.1-1.4 3.9 5.9-2.1 1.4zm-4.6-6.9l-3.9-5.8 2.1-1.4 3.9 5.8-2.1 1.4zM60.8 43.2l-3.9 5.9-2.1-1.4 3.9-5.9 2.1 1.4zm-4.6 6.9l-3.9 5.8-2.1-1.4 3.9-5.8 2.1 1.4zm10.9-2.7l-3.9 5.9-2.1-1.4 3.9-5.9 2.1 1.4zm-4.6 6.9l-3.8 5.7-2.1-1.4 3.8-5.7 2.1 1.4zm1.4-9l-3.9 5.8-2.1-1.4 3.9-5.8 2.1 1.4zm-4.6 6.9l-3.8 5.8-2.1-1.4 3.9-5.8 2 1.4zM9.3 43.9l3.9 5.8-2.2 1.4-3.9-5.8 2.2-1.4zm3-2.1l8.4 12.6-2.1 1.4-8.4-12.6 2.1-1.4zm-6.3 4.2l8.4 12.6-2 1.4-8.5-12.6 2.1-1.4zm7.8 4.8l3.9 5.8-2.1 1.4-3.9-5.8 2.1-1.4z"/></g></svg>