<svg xmlns="http://www.w3.org/2000/svg" xmlns:xlink="http://www.w3.org/1999/xlink" viewBox="0 0 71 71" enable-background="new 0 0 71 71"><style type="text/css">.st0{clip-path:url(#SVGID_2_);} .st1{fill:#EE2724;} .st2{fill-rule:evenodd;clip-rule:evenodd;fill:#FFFFFF;}</style><defs><path id="SVGID_1_" d="M71 35.5c0 19.6-15.9 35.5-35.5 35.5s-35.5-15.9-35.5-35.5 15.9-35.5 35.5-35.5 35.5 15.9 35.5 35.5z"/></defs><clipPath id="SVGID_2_"><use href="#SVGID_1_" overflow="visible"/></clipPath><g class="st0"><path class="st1" d="M-8.9 0h106.5v71h-106.5v-71z"/><path class="st2" d="M26.4 16.9c6.4 0 12.1 3.3 15.5 8.3-2.7-2.8-6.5-4.5-10.7-4.5-8.3 0-15 6.6-15 14.8 0 8.2 6.7 14.8 15 14.8 4.2 0 8-1.7 10.7-4.5-3.3 5-9 8.3-15.5 8.3-10.3 0-18.6-8.3-18.6-18.6s8.3-18.6 18.6-18.6zm22.2 9.8l3.8 5.4 6.3-2-4 5.3 3.9 5.4-6.3-2.1-3.8 5.3.1-6.6-6.3-2.1 6.3-2v-6.6z"/></g></svg>
