<svg xmlns="http://www.w3.org/2000/svg" xmlns:xlink="http://www.w3.org/1999/xlink" viewBox="0 0 71 71" enable-background="new 0 0 71 71"><style type="text/css">.st0{clip-path:url(#SVGID_2_);} .st1{fill-rule:evenodd;clip-rule:evenodd;fill:#F4F4F5;} .st2{fill-rule:evenodd;clip-rule:evenodd;fill:#EE2724;} .st3{fill-rule:evenodd;clip-rule:evenodd;fill:#214097;}</style><defs><path id="SVGID_1_" d="M71 35.5c0 19.6-15.9 35.5-35.5 35.5s-35.5-15.9-35.5-35.5 15.9-35.5 35.5-35.5 35.5 15.9 35.5 35.5z"/></defs><clipPath id="SVGID_2_"><use href="#SVGID_1_" overflow="visible"/></clipPath><g class="st0"><path class="st1" d="M88.8 5.5v5.5h-52.6v-5.5h52.6zm0 10.9v5.5h-52.6v-5.5h52.6zm0 10.9v5.5h-52.6v-5.5h52.6zm0 10.9v5.5h-106.5v-5.5h106.5zm0 11v5.5h-106.5v-5.5h106.5zm0 10.9v5.5h-106.5v-5.5h106.5z"/><path class="st2" d="M-17.7 0h106.5v5.5h-106.5v-5.5zm0 65.5h106.5v5.5h-106.5v-5.5zm0-10.9h106.5v5.5h-106.5v-5.5zm0-10.9h106.5v5.5h-106.5v-5.5zm0-10.9h106.5v5.5h-106.5v-5.5zm0-11h106.5v5.5h-106.5v-5.5zm0-10.9h106.5v5.5h-106.5v-5.5z"/><path class="st3" d="M-17.7 0h53.9v38.2h-53.9v-38.2z"/><path class="st1" d="M31.7 1.9l.5 1.5h1.6l-1.3.9.5 1.5-1.3-.9-1.3.9.5-1.5-1.3-.9h1.6l.5-1.5zm-45 15.2l.5 1.5h1.6l-1.3.9.5 1.5-1.3-.9-1.3.9.5-1.5-1.3-.9h1.6l.5-1.5zm4.5 3.8l.5 1.5h1.6l-1.3 1 .5 1.5-1.3-.9-1.3.9.5-1.5-1.3-.9h1.6l.5-1.6zm36 0l.5 1.5h1.6l-1.3 1 .5 1.5-1.3-.9-1.3.9.5-1.5-1.3-.9h1.6l.5-1.6zm-9 0l.5 1.5h1.6l-1.3 1 .5 1.5-1.3-.9-1.3.9.5-1.5-1.3-.9h1.6l.5-1.6zm-9 0l.5 1.5h1.6l-1.3 1 .5 1.5-1.3-.9-1.3.9.5-1.5-1.3-.9h1.6l.5-1.6zm-9 0l.5 1.5h1.6l-1.3 1 .5 1.5-1.3-.9-1.2.9.5-1.5-1.3-.9h1.6l.4-1.6zm-4.5-3.8l.5 1.5h1.6l-1.3.9.5 1.5-1.3-.9-1.3.9.5-1.5-1.3-.9h1.6l.5-1.5zm27 0l.5 1.5h1.6l-1.3.9.5 1.5-1.3-.9-1.3.9.5-1.5-1.3-.9h1.6l.5-1.5zm9 0l.5 1.5h1.6l-1.3.9.5 1.5-1.3-.9-1.3.9.5-1.5-1.3-.9h1.6l.5-1.5zm0 7.7l.5 1.5h1.6l-1.3.9.5 1.5-1.3-.9-1.3.9.5-1.5-1.3-.9h1.6l.5-1.5zm-9 0l.5 1.5h1.6l-1.3.9.5 1.5-1.3-.9-1.3.9.5-1.5-1.3-.9h1.6l.5-1.5zm-27 0l.5 1.5h1.6l-1.3.9.5 1.5-1.3-.9-1.3.9.5-1.5-1.3-.9h1.6l.5-1.5zm-4.5 3.8l.5 1.5h1.6l-1.3.9.5 1.5-1.3-.9-1.3.9.5-1.5-1.3-.9h1.6l.5-1.5zm36 0l.5 1.5h1.6l-1.3.9.5 1.5-1.3-.9-1.3.9.5-1.5-1.3-.9h1.6l.5-1.5zm-9 0l.5 1.5h1.6l-1.3.9.5 1.5-1.3-.9-1.3.9.5-1.5-1.3-.9h1.6l.5-1.5zm-9 0l.5 1.5h1.6l-1.3.9.5 1.5-1.3-.9-1.3.9.5-1.5-1.3-.9h1.6l.5-1.5zm-9 0l.5 1.5h1.6l-1.3.9.5 1.5-1.3-.9-1.2.9.5-1.5-1.3-.9h1.6l.4-1.5zm-13.5-3.8l.5 1.5h1.6l-1.3.9.5 1.5-1.3-.9-1.3.9.5-1.5-1.3-.9h1.6l.5-1.5zm0 7.6l.5 1.5h1.6l-1.3.9.5 1.5-1.3-.9-1.3.9.5-1.5-1.3-.9h1.6l.5-1.5zm9 0l.5 1.5h1.6l-1.3.9.5 1.5-1.3-.9-1.3.9.5-1.5-1.3-.9h1.6l.5-1.5zm27 0l.5 1.5h1.6l-1.3.9.5 1.5-1.3-.9-1.3.9.5-1.5-1.3-.9h1.6l.5-1.5zm9 0l.5 1.5h1.6l-1.3.9.5 1.5-1.3-.9-1.3.9.5-1.5-1.3-.9h1.6l.5-1.5zm-40.5-19.1l.5 1.5h1.6l-1.3 1 .5 1.5-1.3-.9-1.3.9.5-1.5-1.3-.9h1.6l.5-1.6zm0-7.6l.5 1.5h1.6l-1.3.9.5 1.5-1.3-.9-1.2 1 .5-1.5-1.3-.9h1.6l.4-1.6zm36 0l.5 1.5h1.6l-1.3.9.5 1.5-1.3-.9-1.3.9.5-1.5-1.3-.9h1.6l.5-1.5zm-9 0l.5 1.5h1.6l-1.3.9.5 1.5-1.3-.9-1.3.9.5-1.5-1.3-.9h1.6l.5-1.5zm-9 0l.5 1.5h1.6l-1.3.9.5 1.5-1.3-.9-1.3 1 .5-1.5-1.2-1h1.6l.4-1.5zm-9 0l.5 1.5h1.6l-1.3.9.5 1.5-1.3-.9-1.2 1 .5-1.5-1.3-.9h1.6l.4-1.6zm-13.5 3.8l.5 1.5h1.6l-1.3.9.5 1.5-1.3-.9-1.3.9.6-1.4-1.3-.9h1.6l.4-1.6zm40.5 3.8l.5 1.5h1.6l-1.3 1 .5 1.5-1.3-.9-1.3.9.5-1.5-1.3-.9h1.6l.5-1.6zm-9 0l.5 1.5h1.6l-1.3 1 .5 1.5-1.3-.9-1.3.9.5-1.5-1.3-.9h1.6l.5-1.6zm-9 0l.5 1.5h1.6l-1.3 1 .5 1.5-1.3-.9-1.3.9.5-1.5-1.3-.9h1.6l.5-1.6zm-9 0l.5 1.5h1.6l-1.3 1 .5 1.5-1.3-.9-1.2.9.5-1.5-1.3-.9h1.6l.4-1.6zm-4.5-3.8l.5 1.5h1.6l-1.3 1 .5 1.5-1.3-.9-1.3.9.6-1.5-1.3-1h1.6l.4-1.5zm0-7.6l.5 1.5h1.6l-1.3.9.5 1.5-1.3-.9-1.3.9.6-1.5-1.3-.9h1.6l.4-1.5zm-9 0l.5 1.5h1.6l-1.3.9.5 1.5-1.3-.9-1.3.9.5-1.5-1.3-.9h1.6l.5-1.5zm18 30.5l.5 1.5h1.6l-1.3.9.5 1.5-1.3-.9-1.3.9.5-1.5-1.3-.9h1.6l.5-1.5zm0-7.6l.5 1.5h1.6l-1.3.9.5 1.5-1.3-.9-1.3.9.5-1.5-1.3-.9h1.6l.5-1.5zm0-7.7l.5 1.5h1.6l-1.3.9.5 1.6-1.3-.9-1.3.9.5-1.5-1.3-.9h1.6l.5-1.6zm0-7.6l.5 1.5h1.6l-1.3 1 .5 1.5-1.3-.9-1.3.9.5-1.5-1.2-1h1.6l.4-1.5zm0-7.6l.5 1.5h1.6l-1.3.9.5 1.5-1.3-.9-1.2.9.5-1.5-1.3-.9h1.6l.4-1.5zm9 30.5l.5 1.5h1.6l-1.3.9.5 1.5-1.3-.9-1.3.9.5-1.5-1.3-.9h1.6l.5-1.5zm0-7.6l.5 1.5h1.6l-1.3.9.5 1.5-1.3-.9-1.3.9.5-1.5-1.3-.9h1.6l.5-1.5zm0-7.7l.5 1.5h1.6l-1.3.9.5 1.5-1.3-.9-1.3.9.5-1.5-1.3-.9h1.6l.5-1.5zm0-7.6l.5 1.5h1.6l-1.3 1 .5 1.5-1.3-.9-1.3.9.5-1.5-1.2-1h1.6l.4-1.5zm0-7.6l.5 1.5h1.6l-1.3.9.5 1.5-1.3-.9-1.3.9.5-1.5-1.3-.9h1.6l.5-1.5zm9 7.6l.5 1.5h1.6l-1.3 1 .5 1.5-1.3-.9-1.3.9.5-1.5-1.3-1h1.6l.5-1.5zm0-7.6l.5 1.5h1.6l-1.3.9.5 1.5-1.3-.9-1.3.9.5-1.5-1.3-.9h1.6l.5-1.5zm9 7.6l.5 1.5h1.6l-1.3 1 .5 1.5-1.3-.9-1.3.9.5-1.5-1.3-1h1.6l.5-1.5z"/></g></svg>
