<svg xmlns="http://www.w3.org/2000/svg" xmlns:xlink="http://www.w3.org/1999/xlink" viewBox="0 0 71 71" enable-background="new 0 0 71 71"><style type="text/css">.st0{clip-path:url(#SVGID_2_);} .st1{fill-rule:evenodd;clip-rule:evenodd;fill:#F4F4F5;} .st2{fill:#EE2724;} .st3{fill:#FFCF32;} .st4{fill:#0C8542;} .st5{fill:#214097;}</style><defs><path id="SVGID_1_" d="M71 35.5c0 19.6-15.9 35.5-35.5 35.5s-35.5-15.9-35.5-35.5 15.9-35.5 35.5-35.5 35.5 15.9 35.5 35.5z"/></defs><clipPath id="SVGID_2_"><use xlink:href="#SVGID_1_" overflow="visible"/></clipPath><g class="st0"><path class="st1" d="M-17.8 0h106.5v71h-106.5v-71z"/><path class="st2" d="M39.3 23.6l-35.4-23.6h84.8v23.6h-49.4z"/><path class="st3" d="M-17.8 62.4v-5.6l31.8-21.3-31.8-21.2v-5.8l40.2 27-40.2 26.9z"/><path class="st4" d="M-17.8 8.5v-8.5h13.1l42.1 28.4h51.3v14.2h-51.2l-42.2 28.3h-13.1v-8.5l40.2-26.9-40.2-27z"/><path class="st5" d="M3.9 70.9l35.3-23.6h49.5v23.7l-84.8-.1z"/><path d="M-17.8 14.3l31.8 21.2-31.8 21.3v-42.5z"/></g></svg>