<svg width="24" height="24" viewBox="0 0 24 24" fill="none" xmlns="http://www.w3.org/2000/svg">
<path d="M12 24C18.6274 24 24 18.6274 24 12C24 5.37258 18.6274 0 12 0C5.37258 0 0 5.37258 0 12C0 18.6274 5.37258 24 12 24Z" fill="url(#paint0_radial_16759_264018)"/>
<path opacity="0.5" d="M12 24C18.6274 24 24 18.6274 24 12C24 5.37258 18.6274 0 12 0C5.37258 0 0 5.37258 0 12C0 18.6274 5.37258 24 12 24Z" fill="url(#paint1_radial_16759_264018)"/>
<path d="M12 24C18.6274 24 24 18.6274 24 12C24 5.37258 18.6274 0 12 0C5.37258 0 0 5.37258 0 12C0 18.6274 5.37258 24 12 24Z" fill="url(#paint2_radial_16759_264018)"/>
<path d="M12 24C18.6274 24 24 18.6274 24 12C24 5.37258 18.6274 0 12 0C5.37258 0 0 5.37258 0 12C0 18.6274 5.37258 24 12 24Z" fill="url(#paint3_radial_16759_264018)"/>
<path d="M20.2725 15.9901C20.28 15.9226 20.2875 15.8551 20.295 15.7951C20.28 15.5776 20.145 15.3751 19.9275 15.3001C19.815 15.2551 19.695 15.2551 19.575 15.2851C17.1225 15.9676 14.5725 16.3201 12 16.3201C9.42746 16.3201 6.87746 15.9751 4.42496 15.2851C4.31246 15.2551 4.18496 15.2551 4.07246 15.3001C3.86246 15.3826 3.72746 15.5701 3.70496 15.7876C3.71246 15.8626 3.71996 15.9376 3.73496 16.0201L3.86996 16.5826C3.89996 16.6876 3.93746 16.8001 3.98246 16.9201C4.82246 18.8851 7.01246 22.3426 12.0075 22.3426C16.995 22.3426 19.185 18.8776 20.0325 16.9126C20.07 16.8076 20.1075 16.7101 20.13 16.6126L20.2725 15.9901Z" fill="url(#paint4_radial_16759_264018)"/>
<path d="M12 21.7951C13.935 21.7951 15.42 21.2401 16.5525 20.4526C15.3075 19.8751 13.8075 19.5001 12 19.5001C10.1925 19.5001 8.685 19.8751 7.44 20.4601C8.58 21.2476 10.065 21.7951 12 21.7951Z" fill="url(#paint5_radial_16759_264018)"/>
<path d="M20.13 16.5901L20.265 16.0126C20.28 15.9301 20.2875 15.8551 20.2875 15.7876C20.2725 15.5701 20.13 15.3826 19.92 15.3001C19.8075 15.2551 19.6875 15.2551 19.5675 15.2851C17.115 15.9676 14.565 16.3201 11.9925 16.3201C9.41996 16.3201 6.86996 15.9751 4.41746 15.2851C4.30496 15.2551 4.17746 15.2551 4.06496 15.3001C3.85496 15.3826 3.71996 15.5701 3.69746 15.7876C3.70496 15.8551 3.71246 15.9376 3.71996 16.0201L3.85496 16.5901C3.88496 16.6951 3.92246 16.8076 3.96746 16.9201C4.30496 17.7151 4.86746 18.7501 5.73746 19.7026C4.91996 18.7276 5.92496 18.1951 7.73246 18.4126C9.53246 18.6301 11.9925 18.6376 11.9925 18.6376C11.9925 18.6376 14.4525 18.6301 16.2525 18.4126C18.0525 18.1951 19.065 18.7351 18.2475 19.7026C19.125 18.7501 19.68 17.7151 20.0175 16.9201C20.0625 16.8001 20.1 16.6951 20.13 16.5901Z" fill="url(#paint6_linear_16759_264018)"/>
<path d="M12 16.8675C9.405 16.8675 6.84 16.5225 4.3575 15.8325L4.3875 16.17C4.4475 16.815 4.92 17.3475 5.55 17.49C7.6575 17.955 9.8175 18.1875 11.9925 18.1875C14.34 18.1875 16.665 17.9175 18.93 17.3775C19.2675 17.295 19.515 17.01 19.5525 16.665L19.635 15.84C17.16 16.5225 14.595 16.8675 12 16.8675Z" fill="url(#paint7_radial_16759_264018)"/>
<path d="M7.17013 5.06249C6.36012 5.42999 5.82763 6.16499 5.67763 6.97499C4.96513 6.54749 4.06513 6.45749 3.25512 6.82499C1.94262 7.41749 1.36512 8.96249 1.95762 10.2675C3.26262 13.155 8.76763 13.8 8.76763 13.8C8.76763 13.8 11.9176 9.24749 10.6126 6.35249C10.0276 5.05499 8.48263 4.46999 7.17013 5.06249Z" fill="url(#paint8_radial_16759_264018)"/>
<path opacity="0.5" d="M8.25017 4.83002C10.4852 6.31502 10.5152 9.57002 9.42767 10.9875C8.22767 12.555 6.96017 12.645 4.14017 12.3825C6.18767 13.5 8.76767 13.8 8.76767 13.8C8.76767 13.8 11.9177 9.24752 10.6127 6.35252C10.1852 5.40752 9.24017 4.83752 8.25017 4.83002Z" fill="url(#paint9_radial_16759_264018)"/>
<path opacity="0.5" d="M7.17013 5.06249C6.36012 5.42999 5.82763 6.16499 5.67763 6.97499C4.96513 6.54749 4.06513 6.45749 3.25512 6.82499C1.94262 7.41749 1.36512 8.96249 1.95762 10.2675C3.26262 13.155 8.76763 13.8 8.76763 13.8C8.76763 13.8 11.9176 9.24749 10.6126 6.35249C10.0276 5.05499 8.48263 4.46999 7.17013 5.06249Z" fill="url(#paint10_radial_16759_264018)"/>
<path opacity="0.5" d="M7.17013 5.06249C6.36012 5.42999 5.82763 6.16499 5.67763 6.97499C4.96513 6.54749 4.06513 6.45749 3.25512 6.82499C1.94262 7.41749 1.36512 8.96249 1.95762 10.2675C3.26262 13.155 8.76763 13.8 8.76763 13.8C8.76763 13.8 11.9176 9.24749 10.6126 6.35249C10.0276 5.05499 8.48263 4.46999 7.17013 5.06249Z" fill="url(#paint11_radial_16759_264018)"/>
<path opacity="0.24" d="M5.06259 7.1775C5.55009 7.6275 5.37009 8.625 4.65009 9.405C3.93009 10.185 2.9551 10.4475 2.4601 9.9975C1.9726 9.5475 2.1526 8.55 2.8726 7.77C3.5926 6.99 4.56759 6.7275 5.06259 7.1775Z" fill="url(#paint12_radial_16759_264018)"/>
<path opacity="0.24" d="M7.75511 5.41505C8.25761 5.63255 8.38511 6.46505 8.03261 7.27504C7.68011 8.07754 6.99011 8.55004 6.48011 8.33254C5.97011 8.11505 5.85011 7.28255 6.20261 6.47255C6.55511 5.67005 7.24511 5.19755 7.75511 5.41505Z" fill="url(#paint13_radial_16759_264018)"/>
<path opacity="0.32" d="M7.50017 5.67743C8.87267 5.54243 10.8077 6.78743 9.87767 9.84743C9.32267 11.6774 8.37017 12.9074 6.65267 13.3724C7.84517 13.7024 8.77517 13.8149 8.77517 13.8149C8.77517 13.8149 11.9252 9.26243 10.6202 6.36743C10.0277 5.05493 8.48267 4.47743 7.17767 5.06993C6.36767 5.43743 5.83517 6.17243 5.68517 6.98243C5.68517 6.98243 6.49517 5.77493 7.50017 5.67743Z" fill="url(#paint14_linear_16759_264018)"/>
<path d="M20.9251 6.81759C20.1151 6.45009 19.2076 6.54009 18.5026 6.97509C18.3526 6.15759 17.8201 5.43009 17.0101 5.06259C15.6976 4.47759 14.1601 5.06259 13.5676 6.37509C12.2701 9.26259 15.4426 13.8076 15.4426 13.8076C15.4426 13.8076 20.9401 13.1476 22.2376 10.2526C22.8226 8.94759 22.2376 7.40259 20.9251 6.81759Z" fill="url(#paint15_radial_16759_264018)"/>
<path opacity="0.5" d="M21.8176 7.47003C22.1926 10.125 19.7701 12.3075 17.9851 12.435C16.0126 12.5775 15.1126 11.685 13.4326 9.40503C13.9501 11.6775 15.4351 13.815 15.4351 13.815C15.4351 13.815 20.9326 13.155 22.2301 10.26C22.6651 9.29253 22.4701 8.21253 21.8176 7.47003Z" fill="url(#paint16_radial_16759_264018)"/>
<path opacity="0.5" d="M20.9251 6.81759C20.1151 6.45009 19.2076 6.54009 18.5026 6.97509C18.3526 6.15759 17.8201 5.43009 17.0101 5.06259C15.6976 4.47759 14.1601 5.06259 13.5676 6.37509C12.2701 9.26259 15.4426 13.8076 15.4426 13.8076C15.4426 13.8076 20.9401 13.1476 22.2376 10.2526C22.8226 8.94759 22.2376 7.40259 20.9251 6.81759Z" fill="url(#paint17_radial_16759_264018)"/>
<path opacity="0.5" d="M20.9251 6.81759C20.1151 6.45009 19.2076 6.54009 18.5026 6.97509C18.3526 6.15759 17.8201 5.43009 17.0101 5.06259C15.6976 4.47759 14.1601 5.06259 13.5676 6.37509C12.2701 9.26259 15.4426 13.8076 15.4426 13.8076C15.4426 13.8076 20.9401 13.1476 22.2376 10.2526C22.8226 8.94759 22.2376 7.40259 20.9251 6.81759Z" fill="url(#paint18_radial_16759_264018)"/>
<path opacity="0.24" d="M17.9401 6.63754C17.9251 7.30504 17.0551 7.83004 15.9976 7.80754C14.9401 7.78504 14.0926 7.23004 14.1001 6.56254C14.1151 5.89504 14.9851 5.37004 16.0426 5.39254C17.1076 5.41504 17.9551 5.97004 17.9401 6.63754Z" fill="url(#paint19_radial_16759_264018)"/>
<path opacity="0.24" d="M21.0526 7.48507C21.2251 8.01007 20.6851 8.65507 19.8526 8.92507C19.0201 9.19507 18.2026 8.99257 18.0301 8.46757C17.8576 7.94257 18.3976 7.29757 19.2301 7.02757C20.0626 6.75007 20.8801 6.96007 21.0526 7.48507Z" fill="url(#paint20_radial_16759_264018)"/>
<path opacity="0.32" d="M20.6851 7.46243C21.6976 8.39993 22.0426 10.6724 19.1401 12.0074C17.4001 12.8024 15.8476 12.9074 14.3626 11.9324C14.9026 13.0424 15.4426 13.8149 15.4426 13.8149C15.4426 13.8149 20.9401 13.1549 22.2376 10.2599C22.8226 8.94743 22.2376 7.40993 20.9251 6.81743C20.1151 6.44993 19.2076 6.53993 18.5026 6.97493C18.5026 6.96743 19.9501 6.77993 20.6851 7.46243Z" fill="url(#paint21_linear_16759_264018)"/>
<defs>
<radialGradient id="paint0_radial_16759_264018" cx="0" cy="0" r="1" gradientUnits="userSpaceOnUse" gradientTransform="translate(9.63898 7.13681) scale(14.4764)">
<stop stop-color="#FFE030"/>
<stop offset="1" stop-color="#FFB92E"/>
</radialGradient>
<radialGradient id="paint1_radial_16759_264018" cx="0" cy="0" r="1" gradientUnits="userSpaceOnUse" gradientTransform="translate(9.63898 7.13681) scale(11.3893)">
<stop stop-color="#FFEA5F"/>
<stop offset="1" stop-color="#FFBC47" stop-opacity="0"/>
</radialGradient>
<radialGradient id="paint2_radial_16759_264018" cx="0" cy="0" r="1" gradientUnits="userSpaceOnUse" gradientTransform="translate(5.33836 12.1053) rotate(32.7366) scale(6.3535 4.63736)">
<stop stop-color="#EB672A" stop-opacity="0.5"/>
<stop offset="0.4286" stop-color="#DC641B" stop-opacity="0.2846"/>
<stop offset="0.995" stop-color="#C25E00" stop-opacity="0"/>
</radialGradient>
<radialGradient id="paint3_radial_16759_264018" cx="0" cy="0" r="1" gradientUnits="userSpaceOnUse" gradientTransform="translate(18.6687 12.0955) rotate(147.263) scale(6.3535 4.63736)">
<stop stop-color="#EB672A" stop-opacity="0.5"/>
<stop offset="0.4286" stop-color="#DC641B" stop-opacity="0.2846"/>
<stop offset="0.995" stop-color="#C25E00" stop-opacity="0"/>
</radialGradient>
<radialGradient id="paint4_radial_16759_264018" cx="0" cy="0" r="1" gradientUnits="userSpaceOnUse" gradientTransform="translate(11.9988 18.8048) scale(6.37612)">
<stop offset="0.00132565" stop-color="#7A4400"/>
<stop offset="1" stop-color="#643800"/>
</radialGradient>
<radialGradient id="paint5_radial_16759_264018" cx="0" cy="0" r="1" gradientUnits="userSpaceOnUse" gradientTransform="translate(12.0913 20.9248) scale(5.07304 1.53389)">
<stop offset="0.2479" stop-color="#FF0000"/>
<stop offset="1" stop-color="#C20000"/>
</radialGradient>
<linearGradient id="paint6_linear_16759_264018" x1="20.201" y1="17.4859" x2="3.89867" y2="17.4859" gradientUnits="userSpaceOnUse">
<stop offset="0.00132565" stop-color="#3C2200"/>
<stop offset="0.5" stop-color="#512D00"/>
<stop offset="1" stop-color="#3C2200"/>
</linearGradient>
<radialGradient id="paint7_radial_16759_264018" cx="0" cy="0" r="1" gradientUnits="userSpaceOnUse" gradientTransform="translate(11.9993 17.0094) scale(13.9847)">
<stop offset="0.00132565" stop-color="white"/>
<stop offset="1" stop-color="#A9BCBE"/>
</radialGradient>
<radialGradient id="paint8_radial_16759_264018" cx="0" cy="0" r="1" gradientUnits="userSpaceOnUse" gradientTransform="translate(4.97436 8.68643) rotate(-53.7393) scale(7.43213 5.89476)">
<stop offset="0.2479" stop-color="#FF0000"/>
<stop offset="0.8639" stop-color="#C20000"/>
</radialGradient>
<radialGradient id="paint9_radial_16759_264018" cx="0" cy="0" r="1" gradientUnits="userSpaceOnUse" gradientTransform="translate(4.95407 8.19537) rotate(-53.7394) scale(6.39881 5.07519)">
<stop offset="0.2479" stop-color="#FF0000"/>
<stop offset="1" stop-color="#C20000"/>
</radialGradient>
<radialGradient id="paint10_radial_16759_264018" cx="0" cy="0" r="1" gradientUnits="userSpaceOnUse" gradientTransform="translate(4.97436 8.68643) rotate(-53.7393) scale(7.43213 5.89476)">
<stop stop-color="white" stop-opacity="0.25"/>
<stop offset="1" stop-color="white" stop-opacity="0"/>
</radialGradient>
<radialGradient id="paint11_radial_16759_264018" cx="0" cy="0" r="1" gradientUnits="userSpaceOnUse" gradientTransform="translate(8.4446 9.90016) rotate(-50.6229) scale(5.42483 2.68026)">
<stop stop-color="#BD2719" stop-opacity="0.25"/>
<stop offset="1" stop-color="#BD2719" stop-opacity="0"/>
</radialGradient>
<radialGradient id="paint12_radial_16759_264018" cx="0" cy="0" r="1" gradientUnits="userSpaceOnUse" gradientTransform="translate(3.76049 8.59925) rotate(-46.0208) scale(1.92842 1.19793)">
<stop stop-color="white"/>
<stop offset="1" stop-color="white" stop-opacity="0"/>
</radialGradient>
<radialGradient id="paint13_radial_16759_264018" cx="0" cy="0" r="1" gradientUnits="userSpaceOnUse" gradientTransform="translate(7.11701 6.88234) rotate(-65.0908) scale(1.59662 0.991861)">
<stop stop-color="white"/>
<stop offset="1" stop-color="white" stop-opacity="0"/>
</radialGradient>
<linearGradient id="paint14_linear_16759_264018" x1="11.0635" y1="16.4928" x2="6.79003" y2="4.80797" gradientUnits="userSpaceOnUse">
<stop stop-color="#860805"/>
<stop offset="1" stop-color="#BD2719" stop-opacity="0"/>
</linearGradient>
<radialGradient id="paint15_radial_16759_264018" cx="0" cy="0" r="1" gradientUnits="userSpaceOnUse" gradientTransform="translate(16.7383 7.57095) rotate(-5.26571) scale(7.43208 5.89488)">
<stop offset="0.2479" stop-color="#FF0000"/>
<stop offset="0.8639" stop-color="#C20000"/>
</radialGradient>
<radialGradient id="paint16_radial_16759_264018" cx="0" cy="0" r="1" gradientUnits="userSpaceOnUse" gradientTransform="translate(17.0924 7.2301) rotate(-5.26571) scale(6.39876 5.07529)">
<stop offset="0.2479" stop-color="#FF0000"/>
<stop offset="1" stop-color="#C20000"/>
</radialGradient>
<radialGradient id="paint17_radial_16759_264018" cx="0" cy="0" r="1" gradientUnits="userSpaceOnUse" gradientTransform="translate(16.7383 7.57095) rotate(-5.26571) scale(7.43208 5.89488)">
<stop stop-color="white" stop-opacity="0.25"/>
<stop offset="1" stop-color="white" stop-opacity="0"/>
</radialGradient>
<radialGradient id="paint18_radial_16759_264018" cx="0" cy="0" r="1" gradientUnits="userSpaceOnUse" gradientTransform="translate(18.1442 10.9647) rotate(-2.1516) scale(5.42498 2.6803)">
<stop stop-color="#BD2719" stop-opacity="0.25"/>
<stop offset="1" stop-color="#BD2719" stop-opacity="0"/>
</radialGradient>
<radialGradient id="paint19_radial_16759_264018" cx="0" cy="0" r="1" gradientUnits="userSpaceOnUse" gradientTransform="translate(16.0241 6.60897) rotate(2.44968) scale(1.92845 1.19806)">
<stop stop-color="white"/>
<stop offset="1" stop-color="white" stop-opacity="0"/>
</radialGradient>
<radialGradient id="paint20_radial_16759_264018" cx="0" cy="0" r="1" gradientUnits="userSpaceOnUse" gradientTransform="translate(19.5515 7.97048) rotate(-16.6196) scale(1.59667 0.991875)">
<stop stop-color="white"/>
<stop offset="1" stop-color="white" stop-opacity="0"/>
</radialGradient>
<linearGradient id="paint21_linear_16759_264018" x1="14.9543" y1="17.3037" x2="20.8686" y2="6.35822" gradientUnits="userSpaceOnUse">
<stop stop-color="#860805"/>
<stop offset="1" stop-color="#BD2719" stop-opacity="0"/>
</linearGradient>
</defs>
</svg>
