<svg width="24" height="24" viewBox="0 0 24 24" fill="none" xmlns="http://www.w3.org/2000/svg">
<path d="M12 24C18.6274 24 24 18.6274 24 12C24 5.37258 18.6274 0 12 0C5.37258 0 0 5.37258 0 12C0 18.6274 5.37258 24 12 24Z" fill="url(#paint0_radial_16765_262584)"/>
<path opacity="0.5" d="M12 24C18.6274 24 24 18.6274 24 12C24 5.37258 18.6274 0 12 0C5.37258 0 0 5.37258 0 12C0 18.6274 5.37258 24 12 24Z" fill="url(#paint1_radial_16765_262584)"/>
<path d="M9.95252 7.77748C10.08 7.31248 9.65252 6.88498 8.79002 6.65248C8.05502 6.45748 6.33752 6.42748 4.84502 7.55998C4.56752 7.76998 4.84502 7.99498 5.09252 7.88248C5.93252 7.48498 7.95752 7.22998 9.34502 7.76998C9.90002 7.98748 9.95252 7.77748 9.95252 7.77748Z" fill="url(#paint2_linear_16765_262584)"/>
<path d="M8.07752 12.6451C8.71541 12.6451 9.23252 11.8627 9.23252 10.8976C9.23252 9.93247 8.71541 9.15009 8.07752 9.15009C7.43963 9.15009 6.92252 9.93247 6.92252 10.8976C6.92252 11.8627 7.43963 12.6451 8.07752 12.6451Z" fill="url(#paint3_radial_16765_262584)"/>
<path d="M8.07752 9.73492C8.57252 9.73492 9.00752 10.1699 9.23252 10.8074C9.21752 9.86242 8.70752 9.10492 8.07752 9.10492C7.44752 9.10492 6.93752 9.86242 6.92252 10.8074C7.14752 10.1699 7.58252 9.73492 8.07752 9.73492Z" fill="url(#paint4_linear_16765_262584)"/>
<path d="M6.96744 19.2301C7.06494 19.2451 7.15494 19.2151 7.22244 19.1551C8.44494 18.0751 10.3349 17.4901 11.7524 17.4901H11.9999H12.2474C13.6649 17.4901 15.5549 18.0751 16.7774 19.1551C16.8449 19.2151 16.9424 19.2451 17.0324 19.2301C17.1299 19.2151 17.1824 19.1101 17.1299 19.0276C16.0874 17.3176 14.1524 16.2601 12.0599 16.2601H11.9999H11.9399C9.83994 16.2601 7.91245 17.3176 6.86995 19.0276C6.80995 19.1101 6.86244 19.2151 6.96744 19.2301Z" fill="#643800"/>
<path d="M6.96749 19.2299C7.06499 19.2449 7.15499 19.2149 7.22249 19.1549C8.44499 18.0749 10.335 17.4899 11.7525 17.4899H12H12.2475C13.665 17.4899 15.555 18.0749 16.7775 19.1549C16.845 19.2149 16.9425 19.2449 17.0325 19.2299C17.13 19.2149 17.1825 19.1099 17.13 19.0274C17.1225 19.0124 17.1075 18.9974 17.1 18.9749C17.0025 19.0274 16.8975 19.0799 16.785 18.9674C15.6225 17.7374 13.905 17.0024 12.06 17.0024H11.9925H11.925C10.0725 17.0024 8.33999 17.7449 7.17749 18.9974C7.07249 19.1099 6.97499 19.0574 6.87749 18.9974C6.86999 19.0124 6.86249 19.0199 6.85499 19.0349C6.80999 19.1099 6.86249 19.2149 6.96749 19.2299Z" fill="url(#paint5_linear_16765_262584)"/>
<path d="M14.0476 7.77748C13.9201 7.31248 14.3476 6.88498 15.2101 6.65248C15.9451 6.45748 17.6626 6.42748 19.1551 7.55998C19.4326 7.76998 19.1551 7.99498 18.9076 7.88248C18.0676 7.48498 16.0426 7.22998 14.6551 7.76998C14.1001 7.98748 14.0476 7.77748 14.0476 7.77748Z" fill="url(#paint6_linear_16765_262584)"/>
<path d="M15.9151 12.6451C16.553 12.6451 17.0701 11.8627 17.0701 10.8976C17.0701 9.93247 16.553 9.15009 15.9151 9.15009C15.2772 9.15009 14.7601 9.93247 14.7601 10.8976C14.7601 11.8627 15.2772 12.6451 15.9151 12.6451Z" fill="url(#paint7_radial_16765_262584)"/>
<path d="M15.9151 9.73492C16.4101 9.73492 16.8451 10.1699 17.0701 10.8074C17.0551 9.86242 16.5451 9.10492 15.9151 9.10492C15.2851 9.10492 14.7751 9.86242 14.7601 10.8074C14.9851 10.1699 15.4201 9.73492 15.9151 9.73492Z" fill="url(#paint8_linear_16765_262584)"/>
<defs>
<radialGradient id="paint0_radial_16765_262584" cx="0" cy="0" r="1" gradientUnits="userSpaceOnUse" gradientTransform="translate(9.636 7.13681) scale(14.4764)">
<stop stop-color="#FFE030"/>
<stop offset="1" stop-color="#FFB92E"/>
</radialGradient>
<radialGradient id="paint1_radial_16765_262584" cx="0" cy="0" r="1" gradientUnits="userSpaceOnUse" gradientTransform="translate(9.636 7.13681) scale(11.3893)">
<stop stop-color="#FFEA5F"/>
<stop offset="1" stop-color="#FFBC47" stop-opacity="0"/>
</radialGradient>
<linearGradient id="paint2_linear_16765_262584" x1="7.09728" y1="8.65079" x2="7.61573" y2="6.71583" gradientUnits="userSpaceOnUse">
<stop offset="0.00132565" stop-color="#3C2200"/>
<stop offset="1" stop-color="#7A4400"/>
</linearGradient>
<radialGradient id="paint3_radial_16765_262584" cx="0" cy="0" r="1" gradientUnits="userSpaceOnUse" gradientTransform="translate(7.73392 10.9419) rotate(73.8539) scale(1.69551 1.09697)">
<stop offset="0.00132565" stop-color="#7A4400"/>
<stop offset="1" stop-color="#643800"/>
</radialGradient>
<linearGradient id="paint4_linear_16765_262584" x1="8.07921" y1="9.10458" x2="8.07921" y2="10.8086" gradientUnits="userSpaceOnUse">
<stop offset="0.00132565" stop-color="#3C2200"/>
<stop offset="1" stop-color="#512D00"/>
</linearGradient>
<linearGradient id="paint5_linear_16765_262584" x1="11.9971" y1="16.3795" x2="11.9971" y2="18.0597" gradientUnits="userSpaceOnUse">
<stop offset="0.00132565" stop-color="#3C2200"/>
<stop offset="1" stop-color="#512D00"/>
</linearGradient>
<linearGradient id="paint6_linear_16765_262584" x1="16.8813" y1="8.69729" x2="16.3629" y2="6.76233" gradientUnits="userSpaceOnUse">
<stop offset="0.00132565" stop-color="#3C2200"/>
<stop offset="1" stop-color="#7A4400"/>
</linearGradient>
<radialGradient id="paint7_radial_16765_262584" cx="0" cy="0" r="1" gradientUnits="userSpaceOnUse" gradientTransform="translate(15.5699 10.9421) rotate(73.8539) scale(1.69551 1.09697)">
<stop offset="0.00132565" stop-color="#7A4400"/>
<stop offset="1" stop-color="#643800"/>
</radialGradient>
<linearGradient id="paint8_linear_16765_262584" x1="15.915" y1="9.10458" x2="15.915" y2="10.8086" gradientUnits="userSpaceOnUse">
<stop offset="0.00132565" stop-color="#3C2200"/>
<stop offset="1" stop-color="#512D00"/>
</linearGradient>
</defs>
</svg>
