<svg width="24" height="24" viewBox="0 0 24 24" fill="none" xmlns="http://www.w3.org/2000/svg">
<path d="M12 24C18.6274 24 24 18.6274 24 12C24 5.37258 18.6274 0 12 0C5.37258 0 0 5.37258 0 12C0 18.6274 5.37258 24 12 24Z" fill="url(#paint0_radial_16759_262883)"/>
<path opacity="0.5" d="M12 24C18.6274 24 24 18.6274 24 12C24 5.37258 18.6274 0 12 0C5.37258 0 0 5.37258 0 12C0 18.6274 5.37258 24 12 24Z" fill="url(#paint1_radial_16759_262883)"/>
<path opacity="0.5" d="M12 24C18.6274 24 24 18.6274 24 12C24 5.37258 18.6274 0 12 0C5.37258 0 0 5.37258 0 12C0 18.6274 5.37258 24 12 24Z" fill="url(#paint2_radial_16759_262883)"/>
<path opacity="0.5" d="M12 24C18.6274 24 24 18.6274 24 12C24 5.37258 18.6274 0 12 0C5.37258 0 0 5.37258 0 12C0 18.6274 5.37258 24 12 24Z" fill="url(#paint3_radial_16759_262883)"/>
<path d="M16.1247 6.01122C16.2363 5.54238 16.8056 5.36936 17.6819 5.57029C18.4242 5.74331 19.9535 6.5247 20.7405 8.22703C20.8856 8.53959 20.534 8.61215 20.3721 8.39447C19.8195 7.65215 18.1507 6.46889 16.6716 6.29029C16.0744 6.21773 16.1247 6.01122 16.1247 6.01122Z" fill="url(#paint4_linear_16759_262883)"/>
<path d="M17.2745 8.75167C17.2745 8.75167 19.2056 9.28749 19.4959 10.8726C19.5126 10.9731 19.5182 11.0735 19.4959 11.174C19.4624 11.3749 19.2391 11.5535 18.9266 11.2968C16.9731 9.734 15.628 10.08 14.6345 10.3089C14.2438 10.3982 13.9926 9.974 14.1545 9.6726C14.2047 9.5833 14.2382 9.48842 14.3052 9.41586C15.3433 8.20469 17.2745 8.75167 17.2745 8.75167Z" fill="url(#paint5_radial_16759_262883)"/>
<path d="M17.1517 9.2148C17.1517 9.2148 18.7256 9.65015 19.507 11.0511C19.507 10.9897 19.507 10.9339 19.4958 10.8725C19.2056 9.28736 17.2744 8.75155 17.2744 8.75155C17.2744 8.75155 15.3433 8.20457 14.3051 9.41573C14.2661 9.46039 14.2326 9.51062 14.2047 9.56085C15.5777 8.76829 17.1517 9.2148 17.1517 9.2148Z" fill="url(#paint6_linear_16759_262883)"/>
<path d="M7.87536 6.01122C7.76374 5.54238 7.19443 5.36936 6.31815 5.57029C5.57583 5.74331 4.04653 6.5247 3.25955 8.22703C3.11443 8.53959 3.46606 8.61215 3.62792 8.39447C4.18048 7.65215 5.84932 6.46889 7.32839 6.29029C7.9256 6.21773 7.87536 6.01122 7.87536 6.01122Z" fill="url(#paint7_linear_16759_262883)"/>
<path d="M6.72558 8.75161C6.72558 8.75161 4.79441 9.28742 4.50418 10.8725C4.48744 10.973 4.48186 11.0735 4.50418 11.1739C4.53767 11.3749 4.76093 11.5535 5.07348 11.2967C7.02697 9.73394 8.37209 10.08 9.36558 10.3088C9.75628 10.3981 10.0074 9.97394 9.84558 9.67254C9.79534 9.58324 9.76186 9.48835 9.69488 9.4158C8.65674 8.20463 6.72558 8.75161 6.72558 8.75161Z" fill="url(#paint8_radial_16759_262883)"/>
<path d="M6.84862 9.21487C6.84862 9.21487 5.27467 9.65021 4.49327 11.0511C4.49327 10.9897 4.49327 10.9339 4.50443 10.8725C4.79467 9.28742 6.72583 8.75161 6.72583 8.75161C6.72583 8.75161 8.65699 8.20463 9.69513 9.4158C9.7342 9.46045 9.76769 9.51068 9.7956 9.56091C8.42257 8.76835 6.84862 9.21487 6.84862 9.21487Z" fill="url(#paint9_linear_16759_262883)"/>
<path d="M17.3024 15.5108C17.2019 15.494 17.1014 15.5219 17.0289 15.5945C15.7396 16.8056 13.7526 17.4531 12.2568 17.4531H12H11.7433C10.2475 17.4531 8.25491 16.8056 6.97119 15.5945C6.89863 15.5275 6.79816 15.494 6.6977 15.5108C6.59723 15.5275 6.54142 15.6447 6.59165 15.7396C7.69119 17.6428 9.7284 18.8261 11.9386 18.8261H12.0056H12.0726C14.2828 18.8261 16.32 17.6484 17.4196 15.7396C17.4642 15.6447 17.4084 15.5331 17.3024 15.5108Z" fill="#643800"/>
<path d="M17.3024 15.5108C17.2019 15.494 17.1014 15.5219 17.0289 15.5945C15.7396 16.8056 13.7526 17.4531 12.2568 17.4531H12H11.7433C10.2475 17.4531 8.25491 16.8056 6.97119 15.5945C6.89863 15.5275 6.79816 15.494 6.6977 15.5108C6.59723 15.5275 6.54142 15.6447 6.59165 15.7396C6.60281 15.7563 6.61398 15.7787 6.62514 15.7954C6.73119 15.734 6.83723 15.6782 6.95444 15.8066C8.17677 17.1796 9.99072 18.0001 11.933 18.0001H12H12.067C14.0205 18.0001 15.8456 17.1684 17.0679 15.7787C17.1796 15.6503 17.2856 15.7117 17.3861 15.7787C17.3917 15.7675 17.4028 15.7508 17.4084 15.7396C17.4642 15.6447 17.4084 15.5331 17.3024 15.5108Z" fill="url(#paint10_linear_16759_262883)"/>
<defs>
<radialGradient id="paint0_radial_16759_262883" cx="0" cy="0" r="1" gradientUnits="userSpaceOnUse" gradientTransform="translate(9.63897 7.13681) scale(14.4764)">
<stop stop-color="#FFDF30"/>
<stop offset="1" stop-color="#FFB82E"/>
</radialGradient>
<radialGradient id="paint1_radial_16759_262883" cx="0" cy="0" r="1" gradientUnits="userSpaceOnUse" gradientTransform="translate(9.63898 7.13681) scale(11.3893)">
<stop stop-color="#FFE95F"/>
<stop offset="1" stop-color="#FFBB47" stop-opacity="0"/>
</radialGradient>
<radialGradient id="paint2_radial_16759_262883" cx="0" cy="0" r="1" gradientUnits="userSpaceOnUse" gradientTransform="translate(5.46231 14.9853) rotate(-2.7703) scale(5.04749 3.99383)">
<stop stop-color="#FF4C00"/>
<stop offset="0.1542" stop-color="#FF4C00"/>
<stop offset="0.1795" stop-color="#FF4C00"/>
<stop offset="0.3996" stop-color="#FA4C0B" stop-opacity="0.7318"/>
<stop offset="0.7799" stop-color="#EE4B27" stop-opacity="0.2683"/>
<stop offset="1" stop-color="#E64A3A" stop-opacity="0"/>
</radialGradient>
<radialGradient id="paint3_radial_16759_262883" cx="0" cy="0" r="1" gradientUnits="userSpaceOnUse" gradientTransform="translate(18.5315 14.9853) rotate(-177.23) scale(5.04749 3.99383)">
<stop stop-color="#FF4C00"/>
<stop offset="0.1542" stop-color="#FF4C00"/>
<stop offset="0.1795" stop-color="#FF4C00"/>
<stop offset="0.3996" stop-color="#FA4C0B" stop-opacity="0.7318"/>
<stop offset="0.7799" stop-color="#EE4B27" stop-opacity="0.2683"/>
<stop offset="1" stop-color="#E64A3A" stop-opacity="0"/>
</radialGradient>
<linearGradient id="paint4_linear_16759_262883" x1="18.4054" y1="7.36725" x2="18.6915" y2="6.13557" gradientUnits="userSpaceOnUse">
<stop offset="0.00132565" stop-color="#3C2200"/>
<stop offset="1" stop-color="#7A4400"/>
</linearGradient>
<radialGradient id="paint5_radial_16759_262883" cx="0" cy="0" r="1" gradientUnits="userSpaceOnUse" gradientTransform="translate(16.9741 9.84703) rotate(15.68) scale(2.15664 1.0404)">
<stop offset="0.00132565" stop-color="#7A4400"/>
<stop offset="1" stop-color="#643800"/>
</radialGradient>
<linearGradient id="paint6_linear_16759_262883" x1="17.4486" y1="8.1469" x2="17.0797" y2="9.49054" gradientUnits="userSpaceOnUse">
<stop offset="0.00132565" stop-color="#3C2200"/>
<stop offset="1" stop-color="#512D00"/>
</linearGradient>
<linearGradient id="paint7_linear_16759_262883" x1="5.59431" y1="7.36159" x2="5.30814" y2="6.12991" gradientUnits="userSpaceOnUse">
<stop offset="0.00132565" stop-color="#3C2200"/>
<stop offset="1" stop-color="#7A4400"/>
</linearGradient>
<radialGradient id="paint8_radial_16759_262883" cx="0" cy="0" r="1" gradientUnits="userSpaceOnUse" gradientTransform="translate(7.0181 9.85173) rotate(164.32) scale(2.15664 1.0404)">
<stop offset="0.00132565" stop-color="#7A4400"/>
<stop offset="1" stop-color="#643800"/>
</radialGradient>
<linearGradient id="paint9_linear_16759_262883" x1="6.54488" y1="8.14094" x2="6.91384" y2="9.48457" gradientUnits="userSpaceOnUse">
<stop offset="0.00132565" stop-color="#3C2200"/>
<stop offset="1" stop-color="#512D00"/>
</linearGradient>
<linearGradient id="paint10_linear_16759_262883" x1="12" y1="16.3583" x2="12" y2="18.1497" gradientUnits="userSpaceOnUse">
<stop offset="0.00132565" stop-color="#3C2200"/>
<stop offset="1" stop-color="#512D00"/>
</linearGradient>
</defs>
</svg>
