<svg width="24" height="24" viewBox="0 0 24 24" fill="none" xmlns="http://www.w3.org/2000/svg">
<path d="M12 24C18.6274 24 24 18.6274 24 12C24 5.37258 18.6274 0 12 0C5.37258 0 0 5.37258 0 12C0 18.6274 5.37258 24 12 24Z" fill="url(#paint0_radial_16759_265373)"/>
<path opacity="0.5" d="M12 24C18.6274 24 24 18.6274 24 12C24 5.37258 18.6274 0 12 0C5.37258 0 0 5.37258 0 12C0 18.6274 5.37258 24 12 24Z" fill="url(#paint1_radial_16759_265373)"/>
<path d="M4.20842 5.56471C4.18609 6.04471 4.68842 6.36843 5.58144 6.41309C6.34051 6.44657 8.02609 6.11169 9.24842 4.68843C9.47167 4.42611 9.15354 4.25867 8.93586 4.42611C8.19912 4.98983 6.27353 5.67076 4.80563 5.44192C4.21958 5.35262 4.20842 5.56471 4.20842 5.56471Z" fill="url(#paint2_linear_16759_265373)"/>
<path d="M3.82889 8.57859C3.81773 8.43348 3.91261 8.31627 4.05215 8.28836C4.80006 8.15441 6.17308 8.19906 7.55726 8.39999C8.65122 8.55627 10.2084 9.44929 10.2587 9.94045C10.3145 10.4874 9.06424 11.4084 8.52843 11.7767C7.68564 12.3572 6.53029 13.0046 5.81587 13.0716C5.6261 13.0884 5.52564 12.9935 5.48657 12.8986C5.43634 12.7646 5.50889 12.6084 5.67075 12.5023C7.40099 11.386 8.47261 10.4205 8.37773 10.1246C8.37773 10.1246 8.29401 9.64464 6.80936 9.34324C5.90517 9.15906 4.95634 9.06418 4.37587 9.01952C4.02424 8.98045 3.84564 8.78511 3.82889 8.57859Z" fill="url(#paint3_radial_16759_265373)"/>
<path d="M4.05776 8.29402C4.80566 8.16007 6.16194 8.04844 7.56287 8.40565C8.84659 8.73495 10.214 9.45495 10.2643 9.94611C10.2978 10.2643 9.89032 10.7052 9.43822 11.0959C9.42148 11.1126 9.40473 11.1238 9.38799 11.1405L9.38241 11.1461C9.72287 10.5656 9.84008 9.96844 9.01962 9.49402C8.50055 9.19263 6.94892 8.2717 3.84008 8.57867C3.82334 8.43356 3.91264 8.31635 4.05776 8.29402Z" fill="url(#paint4_linear_16759_265373)"/>
<path d="M5.48654 12.9041C5.4363 12.7702 5.50886 12.6139 5.67072 12.5079C7.40096 11.3916 8.47258 10.426 8.3777 10.1302C8.53956 10.6269 8.60654 10.8781 7.18886 11.8437C6.13398 12.5581 5.62607 12.8707 5.81584 13.0772C5.62607 13.0995 5.52003 13.0046 5.48654 12.9041Z" fill="url(#paint5_linear_16759_265373)"/>
<path d="M7.93118 21.2316C9.77304 20.6958 10.7107 20.3442 12 20.3442C13.2893 20.3442 14.227 20.6958 16.0689 21.2316C17.7768 21.7283 18.7423 20.6902 18.547 19.1832C17.8772 16.013 15.0084 13.5739 12.0056 13.5739C9.08653 13.5739 6.30141 15.8176 5.5256 18.8372C5.11815 20.5283 6.0949 21.7674 7.93118 21.2316Z" fill="url(#paint6_radial_16759_265373)"/>
<path d="M5.52002 19.3172C6.29583 16.8725 9.08095 16.0409 12 16.0409C15.0028 16.0409 17.8716 17.0288 18.5414 19.5962C18.547 19.6297 18.5526 19.6688 18.5637 19.7079C18.5749 19.5404 18.5637 19.3674 18.5414 19.1832C17.8716 16.013 15.0028 13.5739 12 13.5739C9.08095 13.5739 6.29583 15.8176 5.52002 18.8372C5.45862 19.0995 5.42514 19.3562 5.43072 19.5907C5.46979 19.4902 5.49769 19.3953 5.52002 19.3172Z" fill="url(#paint7_linear_16759_265373)"/>
<path d="M19.7916 5.56471C19.8139 6.04471 19.3116 6.36843 18.4186 6.41309C17.6595 6.44657 15.9739 6.11169 14.7516 4.68843C14.5283 4.42611 14.8465 4.25867 15.0642 4.42611C15.8009 4.98983 17.7265 5.67076 19.1944 5.44192C19.7804 5.35262 19.7916 5.56471 19.7916 5.56471Z" fill="url(#paint8_linear_16759_265373)"/>
<path d="M20.1711 8.57859C20.1823 8.43348 20.0874 8.31627 19.9479 8.28836C19.2 8.15441 17.827 8.19906 16.4428 8.39999C15.3488 8.55627 13.7916 9.44929 13.7414 9.94045C13.6856 10.4874 14.9358 11.4084 15.4716 11.7767C16.3144 12.3572 17.4697 13.0046 18.1842 13.0716C18.3739 13.0884 18.4744 12.9935 18.5135 12.8986C18.5637 12.7646 18.4911 12.6084 18.3293 12.5023C16.599 11.386 15.5274 10.4205 15.6223 10.1246C15.6223 10.1246 15.706 9.64464 17.1907 9.34324C18.0949 9.15906 19.0437 9.06418 19.6242 9.01952C19.9758 8.98045 20.1544 8.78511 20.1711 8.57859Z" fill="url(#paint9_radial_16759_265373)"/>
<path d="M19.9423 8.29402C19.1944 8.16007 17.8381 8.04844 16.4372 8.40565C15.1535 8.73495 13.786 9.45495 13.7358 9.94611C13.7023 10.2643 14.1098 10.7052 14.5619 11.0959C14.5786 11.1126 14.5954 11.1238 14.6121 11.1405L14.6177 11.1461C14.2772 10.5656 14.16 9.96844 14.9805 9.49402C15.4995 9.19263 17.0512 8.2717 20.16 8.57867C20.1767 8.43356 20.0874 8.31635 19.9423 8.29402Z" fill="url(#paint10_linear_16759_265373)"/>
<path d="M18.5135 12.9041C18.5637 12.7702 18.4912 12.6139 18.3293 12.5079C16.5991 11.3916 15.5274 10.426 15.6223 10.1302C15.4605 10.6269 15.3935 10.8781 16.8112 11.8437C17.866 12.5581 18.374 12.8707 18.1842 13.0772C18.374 13.0995 18.48 13.0046 18.5135 12.9041Z" fill="url(#paint11_linear_16759_265373)"/>
<path d="M12 15.427C13.7191 15.427 15.3991 15.8902 16.8112 16.6605C15.6391 15.1256 13.8475 14.1042 12 14.1042C10.1358 14.1042 8.33304 15.1088 7.16095 16.6493C8.57862 15.8847 10.2698 15.427 12 15.427Z" fill="url(#paint12_radial_16759_265373)"/>
<path d="M17.347 20.7516C16.5321 19.2725 14.4726 18.2177 12.0559 18.2177C9.62238 18.2177 7.55726 19.2781 6.75354 20.7683C7.03819 20.8465 7.38982 20.8353 7.79168 20.7237C8.08749 20.64 8.3554 20.5563 8.61214 20.4837C9.95726 20.0818 10.8503 19.8139 12.0056 19.8139C13.161 19.8139 14.054 20.0818 15.3991 20.4837C15.6503 20.5618 15.9238 20.64 16.2196 20.7237C16.6549 20.8576 17.0456 20.8632 17.347 20.7516Z" fill="url(#paint13_radial_16759_265373)"/>
<defs>
<radialGradient id="paint0_radial_16759_265373" cx="0" cy="0" r="1" gradientUnits="userSpaceOnUse" gradientTransform="translate(9.63897 7.13681) scale(14.4764)">
<stop stop-color="#FFDF30"/>
<stop offset="1" stop-color="#FFB82E"/>
</radialGradient>
<radialGradient id="paint1_radial_16759_265373" cx="0" cy="0" r="1" gradientUnits="userSpaceOnUse" gradientTransform="translate(9.63898 7.13681) scale(11.3893)">
<stop stop-color="#FFE95F"/>
<stop offset="1" stop-color="#FFBB47" stop-opacity="0"/>
</radialGradient>
<linearGradient id="paint2_linear_16759_265373" x1="6.08905" y1="6.907" x2="6.96364" y2="4.52134" gradientUnits="userSpaceOnUse">
<stop offset="0.00132565" stop-color="#3C2200"/>
<stop offset="1" stop-color="#7A4400"/>
</linearGradient>
<radialGradient id="paint3_radial_16759_265373" cx="0" cy="0" r="1" gradientUnits="userSpaceOnUse" gradientTransform="translate(7.16797 10.4609) rotate(-79.5901) scale(2.82251 1.82596)">
<stop offset="0.00132565" stop-color="#7A4400"/>
<stop offset="1" stop-color="#643800"/>
</radialGradient>
<linearGradient id="paint4_linear_16759_265373" x1="10.2034" y1="9.35755" x2="3.97364" y2="9.98277" gradientUnits="userSpaceOnUse">
<stop offset="0.00132565" stop-color="#3C2200"/>
<stop offset="1" stop-color="#512D00"/>
</linearGradient>
<linearGradient id="paint5_linear_16759_265373" x1="8.685" y1="11.0948" x2="5.25792" y2="12.1974" gradientUnits="userSpaceOnUse">
<stop offset="0.00132565" stop-color="#3C2200"/>
<stop offset="1" stop-color="#512D00"/>
</linearGradient>
<radialGradient id="paint6_radial_16759_265373" cx="0" cy="0" r="1" gradientUnits="userSpaceOnUse" gradientTransform="translate(11.4472 17.5412) scale(4.24477 3.41647)">
<stop offset="0.00132565" stop-color="#7A4400"/>
<stop offset="1" stop-color="#643800"/>
</radialGradient>
<linearGradient id="paint7_linear_16759_265373" x1="5.43116" y1="16.643" x2="18.5678" y2="16.643" gradientUnits="userSpaceOnUse">
<stop offset="0.00132565" stop-color="#3C2200"/>
<stop offset="1" stop-color="#512D00"/>
</linearGradient>
<linearGradient id="paint8_linear_16759_265373" x1="17.9107" y1="6.90754" x2="17.0361" y2="4.52188" gradientUnits="userSpaceOnUse">
<stop offset="0.00132565" stop-color="#3C2200"/>
<stop offset="1" stop-color="#7A4400"/>
</linearGradient>
<radialGradient id="paint9_radial_16759_265373" cx="0" cy="0" r="1" gradientUnits="userSpaceOnUse" gradientTransform="translate(16.8335 10.46) rotate(-100.41) scale(2.82251 1.82596)">
<stop offset="0.00132565" stop-color="#7A4400"/>
<stop offset="1" stop-color="#643800"/>
</radialGradient>
<linearGradient id="paint10_linear_16759_265373" x1="13.7979" y1="9.35773" x2="20.0277" y2="9.98296" gradientUnits="userSpaceOnUse">
<stop offset="0.00132565" stop-color="#3C2200"/>
<stop offset="1" stop-color="#512D00"/>
</linearGradient>
<linearGradient id="paint11_linear_16759_265373" x1="15.3148" y1="11.0953" x2="18.7419" y2="12.198" gradientUnits="userSpaceOnUse">
<stop offset="0.00132565" stop-color="#3C2200"/>
<stop offset="1" stop-color="#512D00"/>
</linearGradient>
<radialGradient id="paint12_radial_16759_265373" cx="0" cy="0" r="1" gradientUnits="userSpaceOnUse" gradientTransform="translate(11.9851 15.3795) scale(5.70849)">
<stop offset="0.00132565" stop-color="white"/>
<stop offset="1" stop-color="#A8BBBD"/>
</radialGradient>
<radialGradient id="paint13_radial_16759_265373" cx="0" cy="0" r="1" gradientUnits="userSpaceOnUse" gradientTransform="translate(12.0246 19.4096) scale(5.17051 1.15406)">
<stop offset="0.2479" stop-color="#FF0000"/>
<stop offset="1" stop-color="#C10000"/>
</radialGradient>
</defs>
</svg>
