<svg width="48" height="48" viewBox="0 0 48 48" fill="none" xmlns="http://www.w3.org/2000/svg">
    <path
        d="M42.9663 22.2096C43.606 23.3175 43.606 24.6825 42.9663 25.7904L35.0337 39.5301C34.394 40.638 33.2119 41.3205 31.9326 41.3205L16.0674 41.3205C14.7881 41.3205 13.606 40.638 12.9663 39.5301L5.03368 25.7904C4.39404 24.6825 4.39404 23.3175 5.03368 22.2096L12.9663 8.46987C13.606 7.36198 14.7881 6.67949 16.0674 6.67949L31.9326 6.67949C33.2119 6.67949 34.394 7.36198 35.0337 8.46987L42.9663 22.2096Z"
        fill="url(#paint0_linear_45_20531)"
    />
    <path
        d="M24.9744 13.1992C24.2666 13.1992 23.6928 13.7795 23.6928 14.4952V22.4008C23.6928 22.5917 23.5398 22.7464 23.3511 22.7464C23.1623 22.7464 23.0093 22.5917 23.0093 22.4008V15.3592C23.0093 14.6435 22.4356 14.0632 21.7278 14.0632C21.02 14.0632 20.4463 14.6435 20.4463 15.3592V23.308C20.4463 23.4989 20.2933 23.6536 20.1045 23.6536C19.9158 23.6536 19.7628 23.4989 19.7628 23.308V17.8648C19.7628 17.1491 19.189 16.5688 18.4812 16.5688C17.7735 16.5688 17.1997 17.1491 17.1997 17.8648V29.7016H17.2161C17.4341 32.5536 19.7915 34.7992 22.6676 34.7992C26.6554 34.7992 29.0849 34.7983 23.9538 34.7992C28.2518 34.7992 29.4317 32.7982 31.0673 30.2375L31.0683 30.2359C31.1983 30.0323 31.3306 29.8252 31.4675 29.6152L33.7804 25.5719C34.2318 24.7812 33.964 23.7702 33.1821 23.3137C32.4003 22.8573 31.4006 23.1282 30.9492 23.9188L29.901 25.7548C29.7918 25.9462 29.5025 25.8678 29.5025 25.6468V16.0936C29.5025 15.3779 28.9287 14.7976 28.2209 14.7976C27.5132 14.7976 26.9394 15.3779 26.9394 16.0936V22.4008C26.9394 22.5917 26.7864 22.7464 26.5976 22.7464C26.4089 22.7464 26.2559 22.5917 26.2559 22.4008V14.4952C26.2559 13.7795 25.6821 13.1992 24.9744 13.1992Z"
        fill="white"
    />
    <defs>
        <linearGradient
            id="paint0_linear_45_20531"
            x1="41.8947"
            y1="24"
            x2="1.63158"
            y2="24"
            gradientUnits="userSpaceOnUse"
        >
            <stop stop-color="#FF7171" />
            <stop offset="1" stop-color="#E63757" />
        </linearGradient>
    </defs>
</svg>
