<svg width="48" height="48" viewBox="0 0 48 48" fill="none" xmlns="http://www.w3.org/2000/svg">
    <path
        fill-rule="evenodd"
        clip-rule="evenodd"
        d="M31.9736 13V10.989C31.9736 5.4702 27.5034 1 21.9846 1C16.4658 1 11.9949 5.4702 11.9949 10.989V17.6368H15.2492V10.9897C15.2492 7.0158 18.066 4.1983 22.0399 4.1983C26.0131 4.1983 28.8306 7.0158 28.8306 10.989V13H31.9736Z"
        fill="#706D6B"
    />
    <rect x="8" y="16.25" width="28" height="22.75" rx="4" fill="url(#paint0_linear_1191_27419)" />
    <path
        fill-rule="evenodd"
        clip-rule="evenodd"
        d="M23.2534 27.307C24.0705 26.8621 24.625 25.9958 24.625 25C24.625 23.5503 23.4497 22.375 22 22.375C20.5503 22.375 19.375 23.5503 19.375 25C19.375 25.9958 19.9295 26.8621 20.7466 27.307L19.6668 31.9579H24.3332L23.2534 27.307Z"
        fill="#3D3C3A"
    />
    <path
        d="M38 46C43.5229 46 48 41.5228 48 36C48 30.4772 43.5229 26 38 26C32.4772 26 28 30.4772 28 36C28 41.5228 32.4772 46 38 46Z"
        fill="url(#paint1_linear_1191_27419)"
    />
    <path
        fill-rule="evenodd"
        clip-rule="evenodd"
        d="M42.7069 32.5195C43.0974 32.91 43.0974 33.5431 42.7069 33.9337L37.4342 39.2064C37.0437 39.5969 36.4105 39.5969 36.02 39.2064L33.5199 36.7064C33.1294 36.3159 33.1294 35.6827 33.5199 35.2922C33.9105 34.9016 34.5436 34.9016 34.9342 35.2922L36.7271 37.0851L41.2926 32.5195C41.6832 32.1289 42.3163 32.1289 42.7069 32.5195Z"
        fill="white"
    />
    <defs>
        <linearGradient
            id="paint0_linear_1191_27419"
            x1="22.0007"
            y1="16.5924"
            x2="22.0007"
            y2="38.5988"
            gradientUnits="userSpaceOnUse"
        >
            <stop stop-color="#FFE26D" />
            <stop offset="1" stop-color="#FFA16D" />
        </linearGradient>
        <linearGradient
            id="paint1_linear_1191_27419"
            x1="48"
            y1="26.5"
            x2="28.5"
            y2="46"
            gradientUnits="userSpaceOnUse"
        >
            <stop stop-color="#2AF091" />
            <stop offset="1" stop-color="#00C5A1" />
        </linearGradient>
    </defs>
</svg>
