<svg width="450" height="285" viewBox="0 0 450 285" fill="none" xmlns="http://www.w3.org/2000/svg">
    <g clip-path="url(#clip0_17734_21545)">
        <path d="M0 7.50001C0 3.35787 3.35786 0 7.5 0H442.5C446.642 0 450 3.35786 450 7.5V277.5C450 281.642 446.642 285 442.5 285H7.49999C3.35786 285 0 281.642 0 277.5V7.50001Z" fill="#302D45"/>
        <path d="M0 7.50001C0 3.35787 3.35786 0 7.5 0H442.5C446.642 0 450 3.35786 450 7.5V277.5C450 281.642 446.642 285 442.5 285H7.49999C3.35786 285 0 281.642 0 277.5V7.50001Z" fill="url(#paint0_linear_17734_21545)" fill-opacity="0.2"/>
        <rect width="450" height="33.1623" fill="#202124"/>
        <circle cx="8.39561" cy="8.81553" r="2.51866" fill="#FF5F57"/>
        <circle cx="16.7911" cy="8.81553" r="2.51866" fill="#FFBD2E"/>
        <circle cx="25.1866" cy="8.81553" r="2.51866" fill="#1DC035"/>
        <rect y="17.6309" width="450" height="15.1119" fill="#35363A"/>
        <rect opacity="0.6" y="32.7422" width="450" height="0.419776" fill="#606164"/>
        <rect x="35.6809" y="3.77832" width="103.265" height="25.1866" rx="3.77798" fill="#35363A"/>
        <rect x="39.459" y="19.3096" width="361.847" height="11.7537" rx="5.87687" fill="#202124"/>
        <rect x="405.504" y="19.3096" width="11.7537" height="11.7537" rx="5.87687" fill="#1D1D1D"/>
        <g clip-path="url(#clip1_17734_21545)">
            <path d="M410.042 22.6766C410.51 22.2081 410.745 21.9738 411.015 21.886C411.252 21.8088 411.508 21.8088 411.746 21.886C412.016 21.9738 412.25 22.2081 412.719 22.6766L413.89 23.8478C414.359 24.3163 414.593 24.5506 414.681 24.8207C414.758 25.0584 414.758 25.3143 414.681 25.5519C414.593 25.8221 414.359 26.0563 413.89 26.5249L412.719 27.6961C412.25 28.1646 412.016 28.3989 411.746 28.4866C411.508 28.5638 411.252 28.5638 411.015 28.4866C410.745 28.3989 410.51 28.1646 410.042 27.6961L409.822 27.4492C409.688 27.2998 409.622 27.2251 409.574 27.1402C409.532 27.0648 409.501 26.9837 409.483 26.8995C409.461 26.8044 409.461 26.7043 409.461 26.5042L409.461 23.8685C409.461 23.6683 409.461 23.5682 409.483 23.4732C409.501 23.3889 409.532 23.3078 409.574 23.2325C409.622 23.1475 409.688 23.0729 409.822 22.9235L410.042 22.6766Z" fill="url(#paint1_radial_17734_21545)"/>
            <path d="M410.042 22.6766C410.51 22.2081 410.745 21.9738 411.015 21.886C411.252 21.8088 411.508 21.8088 411.746 21.886C412.016 21.9738 412.25 22.2081 412.719 22.6766L413.89 23.8478C414.359 24.3163 414.593 24.5506 414.681 24.8207C414.758 25.0584 414.758 25.3143 414.681 25.5519C414.593 25.8221 414.359 26.0563 413.89 26.5249L412.719 27.6961C412.25 28.1646 412.016 28.3989 411.746 28.4866C411.508 28.5638 411.252 28.5638 411.015 28.4866C410.745 28.3989 410.51 28.1646 410.042 27.6961L409.822 27.4492C409.688 27.2998 409.622 27.2251 409.574 27.1402C409.532 27.0648 409.501 26.9837 409.483 26.8995C409.461 26.8044 409.461 26.7043 409.461 26.5042L409.461 23.8685C409.461 23.6683 409.461 23.5682 409.483 23.4732C409.501 23.3889 409.532 23.3078 409.574 23.2325C409.622 23.1475 409.688 23.0729 409.822 22.9235L410.042 22.6766Z" fill="url(#paint2_linear_17734_21545)"/>
            <path d="M409.958 22.7602C410.193 22.5259 410.31 22.4088 410.445 22.3649C410.564 22.3263 410.692 22.3263 410.811 22.3649C410.946 22.4088 411.063 22.5259 411.297 22.7602L413.054 24.517C413.288 24.7513 413.405 24.8684 413.449 25.0035C413.488 25.1223 413.488 25.2502 413.449 25.3691C413.405 25.5041 413.288 25.6213 413.054 25.8555L411.297 27.6123C411.063 27.8466 410.946 27.9637 410.811 28.0076C410.692 28.0462 410.564 28.0462 410.445 28.0076C410.31 27.9637 410.193 27.8466 409.958 27.6123L408.871 26.5248C408.402 26.0563 408.168 25.822 408.08 25.5519C408.003 25.3142 408.003 25.0583 408.08 24.8207C408.168 24.5505 408.402 24.3163 408.871 23.8477L409.958 22.7602Z" fill="url(#paint3_radial_17734_21545)"/>
        </g>
        <rect width="450" height="251.838" transform="translate(0 33.1621)" fill="url(#paint4_linear_17734_21545)" fill-opacity="0.3"/>
        <g clip-path="url(#clip2_17734_21545)">
            <rect x="243" y="45" width="194" height="136" rx="2.53165" fill="#1F1F31"/>
            <rect width="85.018" height="171.925" transform="translate(242.906 44.6621)" fill="#FBF9FE"/>
            <rect width="85.018" height="171.925" transform="translate(236.906 44.6621)" fill="#FBF9FE"/>
            <rect width="109.579" height="171.925" transform="translate(327.924 44.6621)" fill="#FBF9FE"/>
            <rect x="422" y="50" width="10" height="10" rx="5" fill="#5817D1"/>
            <g opacity="0.2">
                <rect x="336.426" y="64.5059" width="26.45" height="7.55715" rx="3.77858" fill="white"/>
                <g clip-path="url(#clip3_17734_21545)">
                    <rect width="93.5197" height="11.3357" transform="translate(336.426 85.2871)" fill="white"/>
                    <rect x="336.426" y="85.2871" width="20.7822" height="3.77858" rx="1.88929" fill="#52527A"/>
                    <rect x="336.426" y="92.8447" width="46.2875" height="3.77858" rx="1.88929" fill="#2B2442"/>
                </g>
                <g clip-path="url(#clip4_17734_21545)">
                    <rect width="93.5197" height="11.3357" transform="translate(336.426 107.959)" fill="white"/>
                    <rect x="336.426" y="107.959" width="17.0036" height="3.77858" rx="1.88929" fill="#52527A"/>
                    <rect x="336.426" y="115.517" width="36.8411" height="3.77858" rx="1.88929" fill="#2B2442"/>
                </g>
                <g clip-path="url(#clip5_17734_21545)">
                    <rect width="93.5197" height="11.3357" transform="translate(336.426 130.63)" fill="white"/>
                    <rect x="336.426" y="130.63" width="26.45" height="3.77858" rx="1.88929" fill="#52527A"/>
                    <rect x="336.426" y="138.187" width="46.2875" height="3.77858" rx="1.88929" fill="#2B2442"/>
                </g>
                <g clip-path="url(#clip6_17734_21545)">
                    <rect width="93.5197" height="11.3357" transform="translate(336.426 153.302)" fill="white"/>
                    <rect x="336.426" y="153.302" width="17.0036" height="3.77858" rx="1.88929" fill="#52527A"/>
                    <rect x="336.426" y="160.858" width="27.3947" height="3.77858" rx="1.88929" fill="#2B2442"/>
                </g>
            </g>
            <rect x="251.404" y="66.3887" width="11.3357" height="11.3357" rx="2.83393" fill="#DBF0ED"/>
            <g opacity="0.2" clip-path="url(#clip7_17734_21545)">
                <rect width="52.9001" height="11.3357" transform="translate(268.408 66.3887)" fill="white"/>
                <rect x="268.408" y="66.3887" width="17.9482" height="3.77858" rx="1.88929" fill="#2B2442"/>
                <rect x="268.408" y="73.9463" width="35.8965" height="3.77858" rx="1.88929" fill="#52527A"/>
            </g>
            <rect opacity="0.3" x="251.404" y="87.1709" width="11.3357" height="11.3357" rx="2.83393" fill="#52527A"/>
            <g opacity="0.2" clip-path="url(#clip8_17734_21545)">
                <rect width="52.9001" height="11.3357" transform="translate(268.408 87.1709)" fill="white"/>
                <rect x="268.408" y="87.1709" width="27.3947" height="3.77858" rx="1.88929" fill="#2B2442"/>
                <rect x="268.408" y="94.7285" width="46.2875" height="3.77858" rx="1.88929" fill="#52527A"/>
            </g>
            <rect x="251.404" y="107.953" width="11.3357" height="11.3357" rx="2.83393" fill="#F0EBDB"/>
            <g opacity="0.2" clip-path="url(#clip9_17734_21545)">
                <rect width="52.9001" height="11.3357" transform="translate(268.408 107.953)" fill="white"/>
                <rect x="268.408" y="107.953" width="21.7268" height="3.77858" rx="1.88929" fill="#2B2442"/>
                <rect x="268.408" y="115.511" width="42.509" height="3.77858" rx="1.88929" fill="#52527A"/>
            </g>
            <rect x="251.404" y="128.735" width="11.3357" height="11.3357" rx="2.83393" fill="#ECDFFA"/>
            <g opacity="0.2" clip-path="url(#clip10_17734_21545)">
                <rect width="52.9001" height="11.3357" transform="translate(268.408 128.735)" fill="white"/>
                <rect x="268.408" y="128.735" width="28.3393" height="3.77858" rx="1.88929" fill="#2B2442"/>
                <rect x="268.408" y="136.292" width="40.6197" height="3.77858" rx="1.88929" fill="#52527A"/>
            </g>
            <rect opacity="0.3" x="251.404" y="149.518" width="11.3357" height="11.3357" rx="2.83393" fill="#52527A"/>
            <g opacity="0.2" clip-path="url(#clip11_17734_21545)">
                <rect width="52.9001" height="11.3357" transform="translate(268.408 149.518)" fill="white"/>
                <rect x="268.408" y="149.518" width="16.0589" height="3.77858" rx="1.88929" fill="#2B2442"/>
                <rect x="268.408" y="157.075" width="35.8965" height="3.77858" rx="1.88929" fill="#52527A"/>
            </g>
            <rect opacity="0.3" x="251.404" y="170.3" width="11.3357" height="11.3357" rx="2.83393" fill="#52527A"/>
            <g opacity="0.2" clip-path="url(#clip12_17734_21545)">
                <rect width="52.9001" height="11.3357" transform="translate(268.408 170.3)" fill="white"/>
                <rect x="268.408" y="170.3" width="21.7268" height="3.77858" rx="1.88929" fill="#2B2442"/>
                <rect x="268.408" y="177.857" width="42.509" height="3.77858" rx="1.88929" fill="#52527A"/>
            </g>
            <rect x="261" y="50" width="157" height="10" rx="5" fill="#E4E2FD"/>
            <rect x="248" y="50" width="10" height="10" rx="5" fill="#ECE5FF"/>
        </g>
        <rect x="242.5" y="44.5" width="195" height="137" rx="3.03165" stroke="#E3DFFA"/>
        <rect x="40.5" y="185.998" width="139.5" height="18" fill="#C7A37D"/>
        <rect opacity="0.3" x="40.5" y="100.662" width="42" height="6" rx="3" fill="#BFB9D8"/>
        <rect x="40.5" y="112.662" width="139.5" height="18" fill="white"/>
        <g clip-path="url(#clip13_17734_21545)">
            <path d="M169.511 117.114C170.19 116.435 170.529 116.096 170.921 115.969C171.265 115.857 171.636 115.857 171.98 115.969C172.372 116.096 172.711 116.435 173.39 117.114L175.088 118.812C175.767 119.491 176.106 119.83 176.234 120.222C176.345 120.566 176.345 120.937 176.234 121.282C176.106 121.673 175.767 122.013 175.088 122.692L173.39 124.389C172.711 125.068 172.372 125.407 171.98 125.535C171.636 125.647 171.265 125.647 170.921 125.535C170.529 125.407 170.19 125.068 169.511 124.389L169.192 124.031C168.998 123.815 168.902 123.706 168.833 123.583C168.772 123.474 168.727 123.357 168.7 123.234C168.669 123.097 168.669 122.952 168.669 122.662L168.669 118.842C168.669 118.552 168.669 118.407 168.7 118.269C168.727 118.147 168.772 118.029 168.833 117.92C168.902 117.797 168.998 117.689 169.192 117.472L169.511 117.114Z" fill="url(#paint5_radial_17734_21545)"/>
            <path d="M169.511 117.114C170.19 116.435 170.529 116.096 170.921 115.969C171.265 115.857 171.636 115.857 171.98 115.969C172.372 116.096 172.711 116.435 173.39 117.114L175.088 118.812C175.767 119.491 176.106 119.83 176.234 120.222C176.345 120.566 176.345 120.937 176.234 121.282C176.106 121.673 175.767 122.013 175.088 122.692L173.39 124.389C172.711 125.068 172.372 125.407 171.98 125.535C171.636 125.647 171.265 125.647 170.921 125.535C170.529 125.407 170.19 125.068 169.511 124.389L169.192 124.031C168.998 123.815 168.902 123.706 168.833 123.583C168.772 123.474 168.727 123.357 168.7 123.234C168.669 123.097 168.669 122.952 168.669 122.662L168.669 118.842C168.669 118.552 168.669 118.407 168.7 118.269C168.727 118.147 168.772 118.029 168.833 117.92C168.902 117.797 168.998 117.689 169.192 117.472L169.511 117.114Z" fill="url(#paint6_linear_17734_21545)"/>
            <path d="M169.389 117.236C169.729 116.896 169.899 116.727 170.094 116.663C170.266 116.607 170.452 116.607 170.624 116.663C170.82 116.727 170.99 116.896 171.329 117.236L173.875 119.782C174.215 120.122 174.385 120.291 174.448 120.487C174.504 120.659 174.504 120.845 174.448 121.017C174.385 121.213 174.215 121.382 173.875 121.722L171.329 124.268C170.99 124.607 170.82 124.777 170.624 124.841C170.452 124.897 170.266 124.897 170.094 124.841C169.899 124.777 169.729 124.607 169.389 124.268L167.813 122.692C167.134 122.013 166.795 121.673 166.667 121.282C166.556 120.937 166.556 120.566 166.667 120.222C166.795 119.831 167.134 119.491 167.813 118.812L169.389 117.236Z" fill="url(#paint7_radial_17734_21545)"/>
        </g>
        <rect opacity="0.3" x="40.5" y="139.662" width="34.5" height="6" rx="3" fill="#BFB9D8"/>
        <rect x="40.5" y="151.662" width="139.5" height="18" fill="white"/>
        <rect x="84.6763" y="126.896" width="98.433" height="35.3911" rx="6.52168" fill="#191926"/>
        <g clip-path="url(#clip14_17734_21545)">
            <path d="M98.7851 137.866C100.041 136.61 100.669 135.982 101.393 135.747C102.029 135.54 102.715 135.54 103.352 135.747C104.076 135.982 104.704 136.61 105.96 137.866L109.098 141.005C110.354 142.26 110.982 142.888 111.217 143.612C111.424 144.249 111.424 144.935 111.217 145.572C110.982 146.296 110.354 146.923 109.098 148.179L105.96 151.318C104.704 152.574 104.076 153.201 103.352 153.437C102.715 153.644 102.029 153.644 101.393 153.437C100.669 153.201 100.041 152.574 98.7851 151.318L98.1949 150.656C97.8378 150.256 97.6593 150.056 97.5319 149.828C97.419 149.626 97.3362 149.409 97.286 149.183C97.2295 148.928 97.2295 148.66 97.2295 148.124L97.2295 141.06C97.2295 140.524 97.2295 140.255 97.286 140.001C97.3362 139.775 97.419 139.557 97.5319 139.356C97.6593 139.128 97.8378 138.928 98.1949 138.527L98.7851 137.866Z" fill="url(#paint8_radial_17734_21545)"/>
            <path d="M98.7851 137.866C100.041 136.61 100.669 135.982 101.393 135.747C102.029 135.54 102.715 135.54 103.352 135.747C104.076 135.982 104.704 136.61 105.96 137.866L109.098 141.005C110.354 142.26 110.982 142.888 111.217 143.612C111.424 144.249 111.424 144.935 111.217 145.572C110.982 146.296 110.354 146.923 109.098 148.179L105.96 151.318C104.704 152.574 104.076 153.201 103.352 153.437C102.715 153.644 102.029 153.644 101.393 153.437C100.669 153.201 100.041 152.574 98.7851 151.318L98.1949 150.656C97.8378 150.256 97.6593 150.056 97.5319 149.828C97.419 149.626 97.3362 149.409 97.286 149.183C97.2295 148.928 97.2295 148.66 97.2295 148.124L97.2295 141.06C97.2295 140.524 97.2295 140.255 97.286 140.001C97.3362 139.775 97.419 139.557 97.5319 139.356C97.6593 139.128 97.8378 138.928 98.1949 138.527L98.7851 137.866Z" fill="url(#paint9_linear_17734_21545)"/>
            <path d="M98.5606 138.09C99.1884 137.462 99.5024 137.148 99.8643 137.031C100.183 136.927 100.526 136.927 100.844 137.031C101.206 137.148 101.52 137.462 102.148 138.09L106.856 142.798C107.484 143.426 107.798 143.74 107.915 144.102C108.019 144.42 108.019 144.763 107.915 145.082C107.798 145.444 107.484 145.758 106.856 146.386L102.148 151.094C101.52 151.722 101.206 152.036 100.844 152.153C100.526 152.257 100.183 152.257 99.8643 152.153C99.5024 152.036 99.1884 151.722 98.5606 151.094L95.646 148.179C94.3903 146.924 93.7625 146.296 93.5273 145.572C93.3203 144.935 93.3203 144.249 93.5273 143.612C93.7625 142.888 94.3903 142.26 95.646 141.005L98.5606 138.09Z" fill="url(#paint10_radial_17734_21545)"/>
        </g>
        <rect opacity="0.4" x="120.067" y="136.418" width="28.5" height="6" rx="3" fill="#BFB9D8"/>
        <rect opacity="0.5" x="120.067" y="146.766" width="54" height="6" rx="3" fill="white"/>
    </g>
    <path d="M7.5 0.75H442.5C446.228 0.75 449.25 3.77208 449.25 7.5V277.5C449.25 281.228 446.228 284.25 442.5 284.25H7.5C3.77208 284.25 0.75 281.228 0.75 277.5V7.5C0.750003 3.77208 3.77208 0.75 7.5 0.75Z" stroke="#38384C" stroke-width="1.5"/>
    <defs>
        <linearGradient id="paint0_linear_17734_21545" x1="225" y1="0" x2="225" y2="285" gradientUnits="userSpaceOnUse">
            <stop stop-opacity="0"/>
            <stop offset="1"/>
        </linearGradient>
        <radialGradient id="paint1_radial_17734_21545" cx="0" cy="0" r="1" gradientUnits="userSpaceOnUse" gradientTransform="translate(410.049 28.6754) rotate(-58.142) scale(5.60656 8.76752)">
            <stop stop-color="#FFD580"/>
            <stop offset="0.09375" stop-color="#F6C592"/>
            <stop offset="0.205" stop-color="#EBB6A2"/>
            <stop offset="0.324466" stop-color="#DFA5AF"/>
            <stop offset="0.42875" stop-color="#D397BE"/>
            <stop offset="0.53375" stop-color="#C486CB"/>
            <stop offset="0.64875" stop-color="#B578D9"/>
            <stop offset="0.77125" stop-color="#A166E5"/>
            <stop offset="0.89125" stop-color="#8B57F2"/>
            <stop offset="1" stop-color="#704CFF"/>
        </radialGradient>
        <linearGradient id="paint2_linear_17734_21545" x1="409.818" y1="20.4945" x2="411.124" y2="28.4674" gradientUnits="userSpaceOnUse">
            <stop stop-color="#6D4AFF"/>
            <stop offset="0.392009" stop-color="#B39FFB" stop-opacity="0.978022"/>
            <stop offset="1" stop-color="#FFE8DB" stop-opacity="0.8"/>
        </linearGradient>
        <radialGradient id="paint3_radial_17734_21545" cx="0" cy="0" r="1" gradientUnits="userSpaceOnUse" gradientTransform="translate(409.557 27.9927) rotate(-58.142) scale(4.50963 7.05214)">
            <stop stop-color="#FFD580"/>
            <stop offset="0.09375" stop-color="#F6C592"/>
            <stop offset="0.205" stop-color="#EBB6A2"/>
            <stop offset="0.324466" stop-color="#DFA5AF"/>
            <stop offset="0.42875" stop-color="#D397BE"/>
            <stop offset="0.53375" stop-color="#C486CB"/>
            <stop offset="0.64875" stop-color="#B578D9"/>
            <stop offset="0.77125" stop-color="#A166E5"/>
            <stop offset="0.89125" stop-color="#8B57F2"/>
            <stop offset="1" stop-color="#704CFF"/>
        </radialGradient>
        <linearGradient id="paint4_linear_17734_21545" x1="225" y1="0" x2="225" y2="251.838" gradientUnits="userSpaceOnUse">
            <stop/>
            <stop offset="1" stop-color="#666666"/>
        </linearGradient>
        <radialGradient id="paint5_radial_17734_21545" cx="0" cy="0" r="1" gradientUnits="userSpaceOnUse" gradientTransform="translate(169.521 125.808) rotate(-58.142) scale(8.12538 12.7064)">
            <stop stop-color="#FFD580"/>
            <stop offset="0.09375" stop-color="#F6C592"/>
            <stop offset="0.205" stop-color="#EBB6A2"/>
            <stop offset="0.324466" stop-color="#DFA5AF"/>
            <stop offset="0.42875" stop-color="#D397BE"/>
            <stop offset="0.53375" stop-color="#C486CB"/>
            <stop offset="0.64875" stop-color="#B578D9"/>
            <stop offset="0.77125" stop-color="#A166E5"/>
            <stop offset="0.89125" stop-color="#8B57F2"/>
            <stop offset="1" stop-color="#704CFF"/>
        </radialGradient>
        <linearGradient id="paint6_linear_17734_21545" x1="169.186" y1="113.952" x2="171.079" y2="125.507" gradientUnits="userSpaceOnUse">
            <stop stop-color="#6D4AFF"/>
            <stop offset="0.392009" stop-color="#B39FFB" stop-opacity="0.978022"/>
            <stop offset="1" stop-color="#FFE8DB" stop-opacity="0.8"/>
        </linearGradient>
        <radialGradient id="paint7_radial_17734_21545" cx="0" cy="0" r="1" gradientUnits="userSpaceOnUse" gradientTransform="translate(168.807 124.819) rotate(-58.142) scale(6.53563 10.2204)">
            <stop stop-color="#FFD580"/>
            <stop offset="0.09375" stop-color="#F6C592"/>
            <stop offset="0.205" stop-color="#EBB6A2"/>
            <stop offset="0.324466" stop-color="#DFA5AF"/>
            <stop offset="0.42875" stop-color="#D397BE"/>
            <stop offset="0.53375" stop-color="#C486CB"/>
            <stop offset="0.64875" stop-color="#B578D9"/>
            <stop offset="0.77125" stop-color="#A166E5"/>
            <stop offset="0.89125" stop-color="#8B57F2"/>
            <stop offset="1" stop-color="#704CFF"/>
        </radialGradient>
        <radialGradient id="paint8_radial_17734_21545" cx="0" cy="0" r="1" gradientUnits="userSpaceOnUse" gradientTransform="translate(98.8047 153.943) rotate(-58.142) scale(15.0256 23.497)">
            <stop stop-color="#FFD580"/>
            <stop offset="0.09375" stop-color="#F6C592"/>
            <stop offset="0.205" stop-color="#EBB6A2"/>
            <stop offset="0.324466" stop-color="#DFA5AF"/>
            <stop offset="0.42875" stop-color="#D397BE"/>
            <stop offset="0.53375" stop-color="#C486CB"/>
            <stop offset="0.64875" stop-color="#B578D9"/>
            <stop offset="0.77125" stop-color="#A166E5"/>
            <stop offset="0.89125" stop-color="#8B57F2"/>
            <stop offset="1" stop-color="#704CFF"/>
        </radialGradient>
        <linearGradient id="paint9_linear_17734_21545" x1="98.1848" y1="132.018" x2="101.685" y2="153.385" gradientUnits="userSpaceOnUse">
            <stop stop-color="#6D4AFF"/>
            <stop offset="0.392009" stop-color="#B39FFB" stop-opacity="0.978022"/>
            <stop offset="1" stop-color="#FFE8DB" stop-opacity="0.8"/>
        </linearGradient>
        <radialGradient id="paint10_radial_17734_21545" cx="0" cy="0" r="1" gradientUnits="userSpaceOnUse" gradientTransform="translate(97.4846 152.113) rotate(-58.142) scale(12.0858 18.8997)">
            <stop stop-color="#FFD580"/>
            <stop offset="0.09375" stop-color="#F6C592"/>
            <stop offset="0.205" stop-color="#EBB6A2"/>
            <stop offset="0.324466" stop-color="#DFA5AF"/>
            <stop offset="0.42875" stop-color="#D397BE"/>
            <stop offset="0.53375" stop-color="#C486CB"/>
            <stop offset="0.64875" stop-color="#B578D9"/>
            <stop offset="0.77125" stop-color="#A166E5"/>
            <stop offset="0.89125" stop-color="#8B57F2"/>
            <stop offset="1" stop-color="#704CFF"/>
        </radialGradient>
        <clipPath id="clip0_17734_21545">
            <path d="M0 7.50001C0 3.35787 3.35786 0 7.5 0H442.5C446.642 0 450 3.35786 450 7.5V277.5C450 281.642 446.642 285 442.5 285H7.49999C3.35786 285 0 281.642 0 277.5V7.50001Z" fill="white"/>
        </clipPath>
        <clipPath id="clip1_17734_21545">
            <rect width="6.71642" height="6.71642" fill="white" transform="translate(408.022 21.8281)"/>
        </clipPath>
        <clipPath id="clip2_17734_21545">
            <rect x="243" y="45" width="194" height="136" rx="2.53165" fill="white"/>
        </clipPath>
        <clipPath id="clip3_17734_21545">
            <rect width="93.5197" height="11.3357" fill="white" transform="translate(336.426 85.2871)"/>
        </clipPath>
        <clipPath id="clip4_17734_21545">
            <rect width="93.5197" height="11.3357" fill="white" transform="translate(336.426 107.959)"/>
        </clipPath>
        <clipPath id="clip5_17734_21545">
            <rect width="93.5197" height="11.3357" fill="white" transform="translate(336.426 130.63)"/>
        </clipPath>
        <clipPath id="clip6_17734_21545">
            <rect width="93.5197" height="11.3357" fill="white" transform="translate(336.426 153.302)"/>
        </clipPath>
        <clipPath id="clip7_17734_21545">
            <rect width="52.9001" height="11.3357" fill="white" transform="translate(268.408 66.3887)"/>
        </clipPath>
        <clipPath id="clip8_17734_21545">
            <rect width="52.9001" height="11.3357" fill="white" transform="translate(268.408 87.1709)"/>
        </clipPath>
        <clipPath id="clip9_17734_21545">
            <rect width="52.9001" height="11.3357" fill="white" transform="translate(268.408 107.953)"/>
        </clipPath>
        <clipPath id="clip10_17734_21545">
            <rect width="52.9001" height="11.3357" fill="white" transform="translate(268.408 128.735)"/>
        </clipPath>
        <clipPath id="clip11_17734_21545">
            <rect width="52.9001" height="11.3357" fill="white" transform="translate(268.408 149.518)"/>
        </clipPath>
        <clipPath id="clip12_17734_21545">
            <rect width="52.9001" height="11.3357" fill="white" transform="translate(268.408 170.3)"/>
        </clipPath>
        <clipPath id="clip13_17734_21545">
            <rect width="9.73384" height="9.73384" fill="white" transform="translate(166.583 115.885)"/>
        </clipPath>
        <clipPath id="clip14_17734_21545">
            <rect width="18" height="18" fill="white" transform="translate(93.3721 135.592)"/>
        </clipPath>
    </defs>
</svg>
