<svg xmlns="http://www.w3.org/2000/svg" width="26" height="26" viewBox="0 0 26 26" fill="none">
    <g clip-path="url(#clip0_17664_142337)">
        <path d="M25.44 13.1685C25.44 18.7999 21.7494 23.5693 16.655 25.1898C15.4476 25.5737 14.1619 25.7813 12.8272 25.7813C12.6024 25.7813 12.3789 25.7753 12.1575 25.764C5.50295 25.4153 0.214355 19.9092 0.214355 13.1685C0.214355 10.6482 0.953672 8.30092 2.22676 6.33095C4.47322 2.85583 8.38132 0.555664 12.8272 0.555664C16.0623 0.555664 19.0129 1.77371 21.2454 3.77617C22.4104 4.82116 23.3805 6.08031 24.0926 7.49131C24.9546 9.19738 25.44 11.1269 25.44 13.1685Z" fill="#4DAF4A"/>
        <path d="M20.239 20.6292L16.6519 25.189C15.4444 25.573 14.1587 25.7805 12.824 25.7805C12.5992 25.7805 12.3758 25.7745 12.1543 25.7633L14.4962 18.6042L18.4819 13.7393L20.2397 20.6298L20.239 20.6292Z" fill="#408C3C"/>
        <path d="M25.4368 13.1674C25.4368 20.1329 19.7901 25.7802 12.824 25.7802C12.5992 25.7802 12.3758 25.7742 12.1543 25.763L17.5755 16.2924C18.1663 15.3959 18.5104 14.3218 18.5104 13.1674C18.5104 10.0271 12.1543 7.52074 12.1543 7.52074L24.0901 7.49023C24.9521 9.1963 25.4375 11.1258 25.4375 13.1674H25.4368Z" fill="#FBBB02"/>
        <path d="M24.0927 7.48959L16.2619 8.63603L10.3262 7.12756L17.2094 4.77832L24.0927 7.48959Z" fill="#DD9F05"/>
        <path d="M24.0885 7.49105H12.5094C10.619 8.44321 8.15178 11.0133 7.54441 13.3459C7.3309 14.1655 7.34682 14.9558 7.6989 15.6361L2.22266 6.33135C7.40052 -1.80047 19.7547 -1.1984 24.0885 7.49105Z" fill="#E94335"/>
        <path d="M7.6989 15.6349L2.22266 6.33008L7.24736 12.0483L7.54441 13.3453C7.3309 14.1648 7.34682 14.9552 7.6989 15.6355V15.6349Z" fill="#D82F2A"/>
        <path d="M18.5073 13.1695C18.5073 14.3239 18.1632 15.3974 17.5724 16.2945C16.5552 17.8375 14.8074 18.8559 12.8215 18.8559C10.5658 18.8559 8.61636 17.5417 7.69736 15.6374C7.33731 14.8908 7.13574 14.054 7.13574 13.1701C7.13574 11.0152 8.33456 9.14005 10.1016 8.17595C10.9092 7.73501 11.8362 7.48438 12.8215 7.48438C15.9618 7.48438 18.5073 10.0299 18.5073 13.1701V13.1695Z" fill="#EFF1F0"/>
        <path d="M17.0142 14.9018C17.9719 12.5897 16.874 9.93901 14.5618 8.9813C12.2497 8.02359 9.59902 9.12155 8.64131 11.4337C7.6836 13.7458 8.78156 16.3965 11.0937 17.3542C13.4058 18.3119 16.0565 17.2139 17.0142 14.9018Z" fill="#2371B1"/>
    </g>
    <defs>
        <clipPath id="clip0_17664_142337">
            <rect width="25.2256" height="25.2256" fill="white" transform="translate(0.214355 0.555664)"/>
        </clipPath>
    </defs>
</svg>
