<svg xmlns="http://www.w3.org/2000/svg" width="25" height="26" viewBox="0 0 25 26" fill="none">
    <g clip-path="url(#clip0_17664_142347)">
        <path d="M23.8072 9.02176C23.2757 7.74368 22.199 6.36304 21.354 5.92741C21.9561 7.0932 22.374 8.34458 22.5918 9.63792L22.5947 9.65869C21.2128 6.21176 18.869 4.82265 16.954 1.7961C16.8569 1.64354 16.7599 1.48929 16.6654 1.32826C16.6112 1.23546 16.5684 1.15197 16.5306 1.0757C16.4514 0.921869 16.3904 0.759142 16.3488 0.59133C16.3488 0.574803 16.3366 0.56209 16.3213 0.559547C16.3145 0.558276 16.306 0.558276 16.2976 0.559547C16.2963 0.559547 16.2933 0.562514 16.2921 0.563785C16.2908 0.563785 16.2865 0.568023 16.2836 0.568023L16.2878 0.559547C13.2168 2.35802 12.1747 5.68671 12.079 7.35212C10.8522 7.43687 9.67959 7.88776 8.71382 8.6497C8.61254 8.56367 8.50829 8.48443 8.39896 8.41111C8.12012 7.4356 8.1091 6.40457 8.36421 5.42228C7.23614 5.96894 6.23435 6.74316 5.42114 7.69664H5.41564C4.93127 7.08175 4.96475 5.05742 4.99229 4.63407C4.84948 4.69213 4.71218 4.76459 4.5842 4.85062C4.15662 5.15573 3.75701 5.49856 3.3896 5.87486C2.9705 6.29948 2.58911 6.75757 2.24628 7.24575V7.24702V7.24406C1.46104 8.35814 0.902935 9.61716 0.605874 10.9491L0.589347 11.0296C0.565616 11.1376 0.483829 11.6762 0.468573 11.7928C0.468573 11.8025 0.467302 11.811 0.465607 11.8191C0.360088 12.3755 0.293557 12.9391 0.268555 13.5052V13.5675C0.274064 20.3198 5.7538 25.7898 12.5061 25.783C18.4537 25.7775 23.5338 21.4954 24.5441 15.6338C24.5648 15.4757 24.5814 15.3202 24.5996 15.1605C24.8522 13.0819 24.5788 10.9698 23.8072 9.02134V9.02176ZM9.71561 18.5909C9.77239 18.6184 9.82663 18.6476 9.88511 18.6739L9.89359 18.6794C9.83384 18.6515 9.77409 18.6226 9.71603 18.5904L9.71561 18.5909ZM22.5956 9.66123V9.65021L22.5986 9.6625L22.5956 9.66123Z" fill="url(#paint0_linear_17664_142347)"/>
        <path d="M23.8072 9.02013C23.2757 7.74205 22.199 6.36141 21.354 5.92578C21.9561 7.09157 22.374 8.34295 22.5918 9.63629V9.64731L22.5947 9.6596C23.5368 12.3556 23.4012 15.3131 22.2146 17.9121C20.8132 20.9191 17.4218 24.0012 12.1124 23.8512C6.37589 23.6889 1.32331 19.4317 0.37831 13.8557C0.206261 12.976 0.37831 12.5306 0.464335 11.8157C0.347799 12.3709 0.281268 12.9357 0.268555 13.5032V13.5655C0.274064 20.3178 5.7538 25.7878 12.5061 25.781C18.4537 25.7755 23.5338 21.4933 24.5441 15.6318C24.5648 15.4737 24.5814 15.3182 24.5996 15.1584C24.8522 13.0798 24.5788 10.9678 23.8072 9.01929V9.02013Z" fill="url(#paint1_radial_17664_142347)"/>
        <path d="M23.8072 9.02013C23.2757 7.74205 22.199 6.36141 21.354 5.92578C21.9561 7.09157 22.374 8.34295 22.5918 9.63629V9.64731L22.5947 9.6596C23.5368 12.3556 23.4012 15.3131 22.2146 17.9121C20.8132 20.9191 17.4218 24.0012 12.1124 23.8512C6.37589 23.6889 1.32331 19.4317 0.37831 13.8557C0.206261 12.976 0.37831 12.5306 0.464335 11.8157C0.347799 12.3709 0.281268 12.9357 0.268555 13.5032V13.5655C0.274064 20.3178 5.7538 25.7878 12.5061 25.781C18.4537 25.7755 23.5338 21.4933 24.5441 15.6318C24.5648 15.4737 24.5814 15.3182 24.5996 15.1584C24.8522 13.0798 24.5788 10.9678 23.8072 9.01929V9.02013Z" fill="url(#paint2_radial_17664_142347)"/>
        <path d="M17.8632 10.4565C17.8895 10.4748 17.9145 10.4938 17.9395 10.512C17.6327 9.96793 17.25 9.46873 16.8042 9.0314C13.0034 5.23063 15.8079 0.791666 16.2813 0.565374L16.2855 0.558594C13.2145 2.35706 12.1724 5.68576 12.0767 7.35116C12.2195 7.34142 12.361 7.32913 12.5068 7.32913C14.7244 7.33337 16.7695 8.52797 17.8632 10.457V10.4565Z" fill="url(#paint3_radial_17664_142347)"/>
        <path d="M12.5129 11.2139C12.4922 11.5178 11.4179 12.567 11.042 12.567C7.56586 12.567 7.00098 14.6706 7.00098 14.6706C7.1548 16.4411 8.38882 17.8997 9.88048 18.6714C9.94828 18.7062 10.0178 18.7379 10.0873 18.7697C10.2068 18.8227 10.3259 18.8723 10.4466 18.9168C10.9585 19.0986 11.4942 19.2011 12.037 19.2236C18.1304 19.5096 19.311 11.9369 14.9136 9.73881C15.9514 9.60405 17.0019 9.85958 17.8609 10.455C16.7688 8.52599 14.7233 7.33139 12.5044 7.32715C12.3587 7.32715 12.2171 7.33944 12.0743 7.34918C10.8475 7.43394 9.67495 7.88483 8.70918 8.64676C8.89522 8.80483 9.10583 9.01586 9.54867 9.4515C10.3797 10.2689 12.5087 11.1152 12.5125 11.2139H12.5129Z" fill="url(#paint4_radial_17664_142347)"/>
        <path d="M12.5129 11.2139C12.4922 11.5178 11.4179 12.567 11.042 12.567C7.56586 12.567 7.00098 14.6706 7.00098 14.6706C7.1548 16.4411 8.38882 17.8997 9.88048 18.6714C9.94828 18.7062 10.0178 18.7379 10.0873 18.7697C10.2068 18.8227 10.3259 18.8723 10.4466 18.9168C10.9585 19.0986 11.4942 19.2011 12.037 19.2236C18.1304 19.5096 19.311 11.9369 14.9136 9.73881C15.9514 9.60405 17.0019 9.85958 17.8609 10.455C16.7688 8.52599 14.7233 7.33139 12.5044 7.32715C12.3587 7.32715 12.2171 7.33944 12.0743 7.34918C10.8475 7.43394 9.67495 7.88483 8.70918 8.64676C8.89522 8.80483 9.10583 9.01586 9.54867 9.4515C10.3797 10.2689 12.5087 11.1152 12.5125 11.2139H12.5129Z" fill="url(#paint5_radial_17664_142347)"/>
        <path d="M8.1442 8.23997C8.24251 8.30226 8.32472 8.35777 8.39676 8.40778C8.11792 7.43227 8.1069 6.40124 8.36201 5.41895C7.23394 5.96561 6.23216 6.73983 5.41895 7.69331C5.47997 7.69203 7.25344 7.65983 8.1442 8.23997Z" fill="url(#paint6_radial_17664_142347)"/>
        <path d="M0.380309 13.8575C1.32404 19.433 6.3762 23.6889 12.1127 23.8529C17.4217 24.0029 20.8131 20.9208 22.2149 17.9138C23.4015 15.3148 23.5375 12.359 22.5951 9.66133V9.65031C22.5951 9.64057 22.5938 9.63633 22.5951 9.6393L22.598 9.66006C23.0324 12.4921 21.592 15.2356 19.3397 17.0908L19.3329 17.1061C14.9452 20.6793 10.7461 19.2626 9.89686 18.6838C9.83711 18.6562 9.77905 18.6257 9.7193 18.5948C7.16186 17.3722 6.10456 15.0411 6.33085 13.043C5.09049 13.0612 3.95521 12.3476 3.43483 11.2208C4.80021 10.3839 6.50163 10.3161 7.92931 11.0403C9.37647 11.698 11.0254 11.7619 12.5196 11.2208C12.5153 11.1208 10.3867 10.2745 9.557 9.45708C9.11416 9.02017 8.90355 8.81041 8.71751 8.65234C8.61623 8.56632 8.51199 8.48707 8.40265 8.41376C8.33061 8.36375 8.24883 8.31121 8.15009 8.24595C7.25763 7.66581 5.48459 7.69802 5.42611 7.69929H5.4206C4.93623 7.0844 4.96971 5.06006 4.99726 4.63672C4.85445 4.69477 4.71715 4.76724 4.58917 4.85326C4.16201 5.15838 3.76197 5.5012 3.39457 5.87751C2.97419 6.30085 2.5911 6.75852 2.24701 7.24586V7.24713V7.24416C1.46176 8.35825 0.903662 9.61726 0.606601 10.9492C0.601092 10.9742 0.16673 12.8726 0.380309 13.8575Z" fill="url(#paint7_radial_17664_142347)"/>
        <path d="M16.804 9.03112C17.2506 9.46972 17.6324 9.96934 17.9392 10.513C18.0058 10.5643 18.0697 10.6143 18.1223 10.6631C20.8946 13.2179 19.4419 16.8297 19.3338 17.0878C21.5862 15.2325 23.0249 12.4891 22.5922 9.65703C21.2086 6.20883 18.8652 4.81972 16.9502 1.79317C16.8531 1.64062 16.7561 1.48636 16.6616 1.32533C16.6073 1.23253 16.5645 1.14904 16.5268 1.07277C16.4476 0.918939 16.3865 0.756212 16.345 0.5884C16.345 0.571873 16.3327 0.55916 16.317 0.556618C16.3103 0.555346 16.3018 0.555346 16.2933 0.556618C16.292 0.556618 16.2891 0.559584 16.2878 0.560855C16.2865 0.560855 16.2823 0.565093 16.2793 0.565093C15.8077 0.791385 13.0032 5.23035 16.804 9.03112Z" fill="url(#paint8_radial_17664_142347)"/>
        <path d="M18.1235 10.6647C18.071 10.616 18.007 10.5647 17.9405 10.5147C17.9155 10.4965 17.8905 10.4774 17.8642 10.4592C17.0039 9.86379 15.9534 9.60868 14.9169 9.74302C19.3143 11.9424 18.135 19.5134 12.0403 19.2278C11.4979 19.2057 10.9623 19.1015 10.4499 18.921C10.3304 18.8765 10.2114 18.8265 10.0906 18.7739C10.0211 18.7421 9.95202 18.7116 9.88379 18.6752L9.89226 18.6807C10.7415 19.2608 14.9393 20.6775 19.3283 17.103L19.3351 17.0878C19.4448 16.831 20.8962 13.2175 18.1235 10.6643V10.6647Z" fill="url(#paint9_radial_17664_142347)"/>
        <path d="M7.0054 14.6712C7.0054 14.6712 7.57028 12.5676 11.0465 12.5676C11.4223 12.5676 12.4979 11.5184 12.5173 11.2146C11.0227 11.7557 9.37426 11.6917 7.9271 11.034C6.499 10.3098 4.798 10.3776 3.43262 11.2146C3.953 12.3414 5.08828 13.0546 6.32864 13.0363C6.10235 15.0361 7.15838 17.366 9.71709 18.5885C9.77388 18.6161 9.82812 18.6453 9.8866 18.6716C8.39367 17.8999 7.15965 16.4417 7.00583 14.6708L7.0054 14.6712Z" fill="url(#paint10_radial_17664_142347)"/>
        <path d="M23.8063 9.02176C23.2749 7.74368 22.1981 6.36304 21.3531 5.92741C21.9553 7.0932 22.3731 8.34458 22.5909 9.63792L22.5939 9.65869C21.212 6.21176 18.8681 4.82265 16.9531 1.7961C16.8561 1.64354 16.759 1.48929 16.6645 1.32826C16.6103 1.23546 16.5675 1.15197 16.5298 1.0757C16.4505 0.921869 16.3895 0.759142 16.348 0.59133C16.348 0.574803 16.3357 0.56209 16.3204 0.559547C16.3137 0.558276 16.3052 0.558276 16.2967 0.559547C16.2954 0.559547 16.2925 0.562514 16.2912 0.563785C16.2899 0.563785 16.2857 0.568023 16.2827 0.568023L16.287 0.559547C13.2159 2.35802 12.1739 5.68671 12.0781 7.35212C12.2209 7.34237 12.3625 7.33008 12.5082 7.33008C14.7271 7.33432 16.7709 8.52892 17.8659 10.4579C17.0057 9.86252 15.9552 9.60741 14.9186 9.74174C19.3161 11.9411 18.1367 19.5121 12.0421 19.2265C11.4997 19.2045 10.964 19.1002 10.4517 18.9197C10.3322 18.8752 10.2131 18.8252 10.0923 18.7727C10.0228 18.7409 9.95376 18.7104 9.88554 18.6743L9.89401 18.6798C9.83426 18.6519 9.77621 18.6218 9.71645 18.5909C9.77324 18.6184 9.82748 18.6476 9.88596 18.6739C8.39303 17.9022 7.16071 16.4441 7.00646 14.6731C7.00646 14.6731 7.57134 12.5695 11.0475 12.5695C11.4234 12.5695 12.4989 11.5203 12.5184 11.2165C12.5142 11.1164 10.3856 10.2702 9.55585 9.45273C9.11301 9.01583 8.9024 8.80606 8.71636 8.648C8.61508 8.56197 8.51084 8.48273 8.4015 8.40942C8.12266 7.43391 8.11165 6.40288 8.36675 5.42059C7.23868 5.96725 6.2369 6.74147 5.42369 7.69495H5.41818C4.93381 7.08006 4.96729 5.05572 4.99484 4.63238C4.85203 4.69086 4.71473 4.7629 4.58675 4.84892C4.15917 5.15404 3.75955 5.49686 3.39215 5.87317C2.97304 6.29778 2.59165 6.75588 2.24882 7.24406V7.24533V7.24236C1.46358 8.35645 0.905477 9.61546 0.608416 10.9474L0.591889 11.0279C0.568158 11.1359 0.465607 11.6813 0.450351 11.7996C0.450351 11.7898 0.450351 11.808 0.450351 11.7996C0.35458 12.3644 0.294828 12.9331 0.268555 13.5048V13.5671C0.274064 20.3194 5.7538 25.7894 12.5061 25.7826C18.4537 25.7771 23.5338 21.4949 24.5441 15.6334C24.5648 15.4753 24.5814 15.3198 24.5996 15.16C24.8522 13.0815 24.5788 10.9694 23.8071 9.02092L23.8063 9.02176Z" fill="url(#paint11_linear_17664_142347)"/>
    </g>
    <defs>
        <linearGradient id="paint0_linear_17664_142347" x1="22.3392" y1="4.365" x2="1.88811" y2="24.0965" gradientUnits="userSpaceOnUse">
            <stop offset="0.05" stop-color="#FFF44F"/>
            <stop offset="0.11" stop-color="#FFE847"/>
            <stop offset="0.23" stop-color="#FFC830"/>
            <stop offset="0.37" stop-color="#FF980E"/>
            <stop offset="0.4" stop-color="#FF8B16"/>
            <stop offset="0.46" stop-color="#FF672A"/>
            <stop offset="0.53" stop-color="#FF3647"/>
            <stop offset="0.7" stop-color="#E31587"/>
        </linearGradient>
        <radialGradient id="paint1_radial_17664_142347" cx="0" cy="0" r="1" gradientUnits="userSpaceOnUse" gradientTransform="translate(20.5515 2.34505) scale(25.6825 25.6825)">
            <stop offset="0.13" stop-color="#FFBD4F"/>
            <stop offset="0.19" stop-color="#FFAC31"/>
            <stop offset="0.25" stop-color="#FF9D17"/>
            <stop offset="0.28" stop-color="#FF980E"/>
            <stop offset="0.4" stop-color="#FF563B"/>
            <stop offset="0.47" stop-color="#FF3750"/>
            <stop offset="0.71" stop-color="#F5156C"/>
            <stop offset="0.78" stop-color="#EB0878"/>
            <stop offset="0.86" stop-color="#E50080"/>
        </radialGradient>
        <radialGradient id="paint2_radial_17664_142347" cx="0" cy="0" r="1" gradientUnits="userSpaceOnUse" gradientTransform="translate(11.1669 12.8448) scale(25.6826 25.6826)">
            <stop offset="0.3" stop-color="#960E18"/>
            <stop offset="0.35" stop-color="#B11927" stop-opacity="0.74"/>
            <stop offset="0.43" stop-color="#DB293D" stop-opacity="0.34"/>
            <stop offset="0.5" stop-color="#F5334B" stop-opacity="0.09"/>
            <stop offset="0.53" stop-color="#FF3750" stop-opacity="0"/>
        </radialGradient>
        <radialGradient id="paint3_radial_17664_142347" cx="0" cy="0" r="1" gradientUnits="userSpaceOnUse" gradientTransform="translate(14.2612 -3.48309) scale(18.6053)">
            <stop offset="0.13" stop-color="#FFF44F"/>
            <stop offset="0.25" stop-color="#FFDC3E"/>
            <stop offset="0.51" stop-color="#FF9D12"/>
            <stop offset="0.53" stop-color="#FF980E"/>
        </radialGradient>
        <radialGradient id="paint4_radial_17664_142347" cx="0" cy="0" r="1" gradientUnits="userSpaceOnUse" gradientTransform="translate(8.32321 19.5519) scale(12.2286)">
            <stop offset="0.35" stop-color="#3A8EE6"/>
            <stop offset="0.47" stop-color="#5C79F0"/>
            <stop offset="0.67" stop-color="#9059FF"/>
            <stop offset="1" stop-color="#C139E6"/>
        </radialGradient>
        <radialGradient id="paint5_radial_17664_142347" cx="0" cy="0" r="1" gradientUnits="userSpaceOnUse" gradientTransform="translate(12.7118 13.0016) rotate(-13.6) scale(6.48453 7.46704)">
            <stop offset="0.21" stop-color="#9059FF" stop-opacity="0"/>
            <stop offset="0.28" stop-color="#8C4FF3" stop-opacity="0.06"/>
            <stop offset="0.75" stop-color="#7716A8" stop-opacity="0.45"/>
            <stop offset="0.97" stop-color="#6E008B" stop-opacity="0.6"/>
        </radialGradient>
        <radialGradient id="paint6_radial_17664_142347" cx="0" cy="0" r="1" gradientUnits="userSpaceOnUse" gradientTransform="translate(10.8434 1.29383) scale(8.79726)">
            <stop stop-color="#FFE226"/>
            <stop offset="0.12" stop-color="#FFDB27"/>
            <stop offset="0.29" stop-color="#FFC82A"/>
            <stop offset="0.5" stop-color="#FFA930"/>
            <stop offset="0.73" stop-color="#FF7E37"/>
            <stop offset="0.79" stop-color="#FF7139"/>
        </radialGradient>
        <radialGradient id="paint7_radial_17664_142347" cx="0" cy="0" r="1" gradientUnits="userSpaceOnUse" gradientTransform="translate(17.7582 -4.28445) scale(37.5338 37.5338)">
            <stop offset="0.11" stop-color="#FFF44F"/>
            <stop offset="0.46" stop-color="#FF980E"/>
            <stop offset="0.62" stop-color="#FF5634"/>
            <stop offset="0.72" stop-color="#FF3647"/>
            <stop offset="0.9" stop-color="#E31587"/>
        </radialGradient>
        <radialGradient id="paint8_radial_17664_142347" cx="0" cy="0" r="1" gradientUnits="userSpaceOnUse" gradientTransform="translate(9.90639 -1.71223) rotate(83.97) scale(27.5002 17.5001)">
            <stop stop-color="#FFF44F"/>
            <stop offset="0.06" stop-color="#FFE847"/>
            <stop offset="0.17" stop-color="#FFC830"/>
            <stop offset="0.3" stop-color="#FF980E"/>
            <stop offset="0.36" stop-color="#FF8B16"/>
            <stop offset="0.46" stop-color="#FF672A"/>
            <stop offset="0.57" stop-color="#FF3647"/>
            <stop offset="0.74" stop-color="#E31587"/>
        </radialGradient>
        <radialGradient id="paint9_radial_17664_142347" cx="0" cy="0" r="1" gradientUnits="userSpaceOnUse" gradientTransform="translate(10.6353 4.55424) scale(23.433 23.433)">
            <stop offset="0.14" stop-color="#FFF44F"/>
            <stop offset="0.48" stop-color="#FF980E"/>
            <stop offset="0.59" stop-color="#FF5634"/>
            <stop offset="0.66" stop-color="#FF3647"/>
            <stop offset="0.9" stop-color="#E31587"/>
        </radialGradient>
        <radialGradient id="paint10_radial_17664_142347" cx="0" cy="0" r="1" gradientUnits="userSpaceOnUse" gradientTransform="translate(16.8221 5.92336) scale(25.6473 25.6473)">
            <stop offset="0.09" stop-color="#FFF44F"/>
            <stop offset="0.23" stop-color="#FFE141"/>
            <stop offset="0.51" stop-color="#FFAF1E"/>
            <stop offset="0.63" stop-color="#FF980E"/>
        </radialGradient>
        <linearGradient id="paint11_linear_17664_142347" x1="22.0932" y1="4.26012" x2="4.69155" y2="21.6615" gradientUnits="userSpaceOnUse">
            <stop offset="0.17" stop-color="#FFF44F" stop-opacity="0.8"/>
            <stop offset="0.27" stop-color="#FFF44F" stop-opacity="0.63"/>
            <stop offset="0.49" stop-color="#FFF44F" stop-opacity="0.22"/>
            <stop offset="0.6" stop-color="#FFF44F" stop-opacity="0"/>
        </linearGradient>
        <clipPath id="clip0_17664_142347">
            <rect width="24.4222" height="25.2256" fill="white" transform="translate(0.268555 0.555664)"/>
        </clipPath>
    </defs>
</svg>
