<svg width="65" height="67" viewBox="0 0 65 67" fill="none" xmlns="http://www.w3.org/2000/svg">
    <path fill-rule="evenodd" clip-rule="evenodd" d="M65 18.5C65 28.7173 56.7173 37 46.5 37C45.4436 37 44.408 36.9115 43.4 36.7414C42.7196 36.6266 42.0159 36.8205 41.528 37.3084L40.834 38.0024C40.1327 38.7037 38.9957 38.7037 38.2944 38.0024H32V44.0024L28 48.0024H21V55.0024H14V62.0024H3V51.0024L27.1472 26.8552L27.1017 26.8097C26.3207 26.0287 26.3207 24.7623 27.1017 23.9813L27.6799 23.4031C28.166 22.917 28.3604 22.2166 28.2483 21.5384C28.085 20.5499 28 19.5349 28 18.5C28 8.28273 36.2827 0 46.5 0C56.7173 0 65 8.28273 65 18.5ZM52 20C55.866 20 59 16.866 59 13C59 9.13401 55.866 6 52 6C48.134 6 45 9.13401 45 13C45 16.866 48.134 20 52 20Z" fill="url(#paint0_linear_17857_5547)"/>
    <path d="M46.5 1C56.165 1 64 8.83502 64 18.5C64 28.165 56.165 36 46.5 36C36.835 36 29 28.165 29 18.5C29 8.83502 36.835 1 46.5 1ZM46.5 2C37.3873 2 30 9.3873 30 18.5C30 27.6127 37.3873 35 46.5 35C55.6127 35 63 27.6127 63 18.5C63 9.3873 55.6127 2 46.5 2Z" fill="url(#paint1_linear_17857_5547)"/>
    <g filter="url(#filter0_di_17857_5547)">
        <path d="M3 55.0186L27.3134 30.7061C27.7039 30.3156 28.3371 30.3156 28.7276 30.7062C29.1181 31.0967 29.1181 31.7299 28.7276 32.1204L2.99966 57.8483L3 55.0186Z" fill="url(#paint2_linear_17857_5547)" shape-rendering="crispEdges"/>
    </g>
    <g filter="url(#filter1_di_17857_5547)">
        <path d="M14.6784 54.9987L20.9999 48.6679L20.9997 51.4961L17.4951 55.0006L14.6784 54.9987Z" fill="url(#paint3_linear_17857_5547)" shape-rendering="crispEdges"/>
        <path d="M7.66797 62.0003L14 55.6683V58.4967L10.4964 62.0003H7.66797Z" fill="url(#paint4_linear_17857_5547)" shape-rendering="crispEdges"/>
        <path d="M21.6681 48.0002L32 37.668L31.9965 40.5002L24.4965 48.0002L21.6681 48.0002Z" fill="url(#paint5_linear_17857_5547)" shape-rendering="crispEdges"/>
        <path d="M31.6676 37.9987L32.9594 36.707C33.3499 36.3164 33.9831 36.3164 34.3736 36.707L34.4965 36.8299C34.8192 37.1525 34.8192 37.6756 34.4965 37.9982L31.6676 37.9987Z" fill="url(#paint6_linear_17857_5547)" shape-rendering="crispEdges"/>
    </g>
    <defs>
        <filter id="filter0_di_17857_5547" x="0.221978" y="29.0242" width="31.5763" height="32.9911" filterUnits="userSpaceOnUse" color-interpolation-filters="sRGB">
            <feFlood flood-opacity="0" result="BackgroundImageFix"/>
            <feColorMatrix in="SourceAlpha" type="matrix" values="0 0 0 0 0 0 0 0 0 0 0 0 0 0 0 0 0 0 127 0" result="hardAlpha"/>
            <feOffset dy="1.38889"/>
            <feGaussianBlur stdDeviation="1.38889"/>
            <feComposite in2="hardAlpha" operator="out"/>
            <feColorMatrix type="matrix" values="0 0 0 0 1 0 0 0 0 1 0 0 0 0 1 0 0 0 0.7 0"/>
            <feBlend mode="normal" in2="BackgroundImageFix" result="effect1_dropShadow_17857_5547"/>
            <feBlend mode="normal" in="SourceGraphic" in2="effect1_dropShadow_17857_5547" result="shape"/>
            <feColorMatrix in="SourceAlpha" type="matrix" values="0 0 0 0 0 0 0 0 0 0 0 0 0 0 0 0 0 0 127 0" result="hardAlpha"/>
            <feOffset dy="1.04167"/>
            <feGaussianBlur stdDeviation="1.04167"/>
            <feComposite in2="hardAlpha" operator="arithmetic" k2="-1" k3="1"/>
            <feColorMatrix type="matrix" values="0 0 0 0 0.568627 0 0 0 0 0.14902 0 0 0 0 0.356863 0 0 0 0.4 0"/>
            <feBlend mode="normal" in2="shape" result="effect2_innerShadow_17857_5547"/>
        </filter>
        <filter id="filter1_di_17857_5547" x="4.89019" y="35.0252" width="32.6261" height="31.1415" filterUnits="userSpaceOnUse" color-interpolation-filters="sRGB">
            <feFlood flood-opacity="0" result="BackgroundImageFix"/>
            <feColorMatrix in="SourceAlpha" type="matrix" values="0 0 0 0 0 0 0 0 0 0 0 0 0 0 0 0 0 0 127 0" result="hardAlpha"/>
            <feOffset dy="1.38889"/>
            <feGaussianBlur stdDeviation="1.38889"/>
            <feComposite in2="hardAlpha" operator="out"/>
            <feColorMatrix type="matrix" values="0 0 0 0 1 0 0 0 0 1 0 0 0 0 1 0 0 0 0.7 0"/>
            <feBlend mode="normal" in2="BackgroundImageFix" result="effect1_dropShadow_17857_5547"/>
            <feBlend mode="normal" in="SourceGraphic" in2="effect1_dropShadow_17857_5547" result="shape"/>
            <feColorMatrix in="SourceAlpha" type="matrix" values="0 0 0 0 0 0 0 0 0 0 0 0 0 0 0 0 0 0 127 0" result="hardAlpha"/>
            <feOffset dy="1.04167"/>
            <feGaussianBlur stdDeviation="1.04167"/>
            <feComposite in2="hardAlpha" operator="arithmetic" k2="-1" k3="1"/>
            <feColorMatrix type="matrix" values="0 0 0 0 0.568627 0 0 0 0 0.14902 0 0 0 0 0.356863 0 0 0 0.4 0"/>
            <feBlend mode="normal" in2="shape" result="effect2_innerShadow_17857_5547"/>
        </filter>
        <linearGradient id="paint0_linear_17857_5547" x1="46.8003" y1="62" x2="39.2004" y2="0.946039" gradientUnits="userSpaceOnUse">
            <stop offset="0.00514267" stop-color="#FFC977"/>
            <stop offset="1" stop-color="#FFF0B3"/>
        </linearGradient>
        <linearGradient id="paint1_linear_17857_5547" x1="46.5" y1="1" x2="46.5" y2="36" gradientUnits="userSpaceOnUse">
            <stop stop-color="#91265B" stop-opacity="0.15"/>
            <stop offset="0.715" stop-color="#91265B" stop-opacity="0.2"/>
        </linearGradient>
        <linearGradient id="paint2_linear_17857_5547" x1="17.7999" y1="43.7352" x2="15.9355" y2="41.8715" gradientUnits="userSpaceOnUse">
            <stop offset="0.00514267" stop-color="#FFD391"/>
            <stop offset="0.140625" stop-color="#FFB0B0" stop-opacity="0.8"/>
            <stop offset="0.651042" stop-color="#FFD391"/>
            <stop offset="1" stop-color="#FFFBF5"/>
        </linearGradient>
        <linearGradient id="paint3_linear_17857_5547" x1="26.7921" y1="62" x2="23.2403" y2="34.9537" gradientUnits="userSpaceOnUse">
            <stop stop-color="#FFB0B0" stop-opacity="0.8"/>
            <stop offset="1" stop-color="#FFD391"/>
        </linearGradient>
        <linearGradient id="paint4_linear_17857_5547" x1="26.7921" y1="62" x2="23.2403" y2="34.9537" gradientUnits="userSpaceOnUse">
            <stop stop-color="#FFB0B0" stop-opacity="0.8"/>
            <stop offset="1" stop-color="#FFD391"/>
        </linearGradient>
        <linearGradient id="paint5_linear_17857_5547" x1="26.7921" y1="62" x2="23.2403" y2="34.9537" gradientUnits="userSpaceOnUse">
            <stop stop-color="#FFB0B0" stop-opacity="0.8"/>
            <stop offset="1" stop-color="#FFD391"/>
        </linearGradient>
        <linearGradient id="paint6_linear_17857_5547" x1="26.7921" y1="62" x2="23.2403" y2="34.9537" gradientUnits="userSpaceOnUse">
            <stop stop-color="#FFB0B0" stop-opacity="0.8"/>
            <stop offset="1" stop-color="#FFD391"/>
        </linearGradient>
    </defs>
</svg>
