<svg width="160" height="148" viewBox="0 0 160 148" fill="none" xmlns="http://www.w3.org/2000/svg">
    <path d="M0 6C0 2.68629 2.68629 0 6 0H48C51.3137 0 54 2.68629 54 6V12C54 15.3137 51.3137 18 48 18H6C2.68629 18 0 15.3137 0 12V6Z" fill="#C2C1C0" fill-opacity="0.2"/>
    <circle cx="9" cy="9" r="3" fill="white"/>
    <circle cx="21" cy="9" r="3" fill="white"/>
    <circle cx="33" cy="9" r="3" fill="white"/>
    <circle cx="45" cy="9" r="3" fill="white"/>
    <path d="M66 6C66 2.68629 68.6863 0 72 0H150C153.314 0 156 2.68629 156 6V12C156 15.3137 153.314 18 150 18H72C68.6863 18 66 15.3137 66 12V6Z" fill="#C2C1C0" fill-opacity="0.2"/>
    <circle cx="75" cy="9" r="3" fill="white"/>
    <circle cx="87" cy="9" r="3" fill="white"/>
    <circle cx="99" cy="9" r="3" fill="white"/>
    <circle cx="111" cy="9" r="3" fill="white"/>
    <circle cx="123" cy="9" r="3" fill="white"/>
    <circle cx="135" cy="9" r="3" fill="white"/>
    <circle cx="147" cy="9" r="3" fill="white"/>
    <path d="M0 32C0 28.6863 2.68629 26 6 26H36C39.3137 26 42 28.6863 42 32V38C42 41.3137 39.3137 44 36 44H6C2.68629 44 0 41.3137 0 38V32Z" fill="#C2C1C0" fill-opacity="0.2"/>
    <circle cx="9" cy="35" r="3" fill="white"/>
    <circle cx="21" cy="35" r="3" fill="white"/>
    <circle cx="33" cy="35" r="3" fill="white"/>
    <path d="M54 32C54 28.6863 56.6863 26 60 26H126C129.314 26 132 28.6863 132 32V38C132 41.3137 129.314 44 126 44H60C56.6863 44 54 41.3137 54 38V32Z" fill="#C2C1C0" fill-opacity="0.2"/>
    <circle cx="63" cy="35" r="3" fill="white"/>
    <circle cx="75" cy="35" r="3" fill="white"/>
    <circle cx="87" cy="35" r="3" fill="white"/>
    <circle cx="99" cy="35" r="3" fill="white"/>
    <circle cx="111" cy="35" r="3" fill="white"/>
    <circle cx="123" cy="35" r="3" fill="white"/>
    <path d="M0 58C0 54.6863 2.68629 52 6 52H72C75.3137 52 78 54.6863 78 58V64C78 67.3137 75.3137 70 72 70H6C2.68629 70 0 67.3137 0 64V58Z" fill="#C2C1C0" fill-opacity="0.2"/>
    <circle cx="9" cy="61" r="3" fill="white"/>
    <circle cx="21" cy="61" r="3" fill="white"/>
    <circle cx="33" cy="61" r="3" fill="white"/>
    <circle cx="45" cy="61" r="3" fill="white"/>
    <circle cx="57" cy="61" r="3" fill="white"/>
    <circle cx="69" cy="61" r="3" fill="white"/>
    <path d="M90 58C90 54.6863 92.6863 52 96 52H138C141.314 52 144 54.6863 144 58V64C144 67.3137 141.314 70 138 70H96C92.6863 70 90 67.3137 90 64V58Z" fill="#C2C1C0" fill-opacity="0.2"/>
    <circle cx="99" cy="61" r="3" fill="white"/>
    <circle cx="111" cy="61" r="3" fill="white"/>
    <circle cx="123" cy="61" r="3" fill="white"/>
    <circle cx="135" cy="61" r="3" fill="white"/>
    <path d="M0 84C0 80.6863 2.68629 78 6 78H48C51.3137 78 54 80.6863 54 84V90C54 93.3137 51.3137 96 48 96H6C2.68629 96 0 93.3137 0 90V84Z" fill="#C2C1C0" fill-opacity="0.2"/>
    <circle cx="9" cy="87" r="3" fill="white"/>
    <circle cx="21" cy="87" r="3" fill="white"/>
    <circle cx="33" cy="87" r="3" fill="white"/>
    <circle cx="45" cy="87" r="3" fill="white"/>
    <path d="M66 84C66 80.6863 68.6863 78 72 78H138C141.314 78 144 80.6863 144 84V90C144 93.3137 141.314 96 138 96H72C68.6863 96 66 93.3137 66 90V84Z" fill="#C2C1C0" fill-opacity="0.2"/>
    <circle cx="75" cy="87" r="3" fill="white"/>
    <circle cx="87" cy="87" r="3" fill="white"/>
    <circle cx="99" cy="87" r="3" fill="white"/>
    <circle cx="111" cy="87" r="3" fill="white"/>
    <circle cx="123" cy="87" r="3" fill="white"/>
    <circle cx="135" cy="87" r="3" fill="white"/>
    <path d="M0 110C0 106.686 2.68629 104 6 104H48C51.3137 104 54 106.686 54 110V116C54 119.314 51.3137 122 48 122H6C2.68629 122 0 119.314 0 116V110Z" fill="#C2C1C0" fill-opacity="0.2"/>
    <circle cx="9" cy="113" r="3" fill="white"/>
    <circle cx="21" cy="113" r="3" fill="white"/>
    <circle cx="33" cy="113" r="3" fill="white"/>
    <circle cx="45" cy="113" r="3" fill="white"/>
    <path d="M66 110C66 106.686 68.6863 104 72 104H150C153.314 104 156 106.686 156 110V116C156 119.314 153.314 122 150 122H72C68.6863 122 66 119.314 66 116V110Z" fill="#C2C1C0" fill-opacity="0.2"/>
    <circle cx="75" cy="113" r="3" fill="white"/>
    <circle cx="87" cy="113" r="3" fill="white"/>
    <circle cx="99" cy="113" r="3" fill="white"/>
    <circle cx="111" cy="113" r="3" fill="white"/>
    <circle cx="123" cy="113" r="3" fill="white"/>
    <circle cx="135" cy="113" r="3" fill="white"/>
    <circle cx="147" cy="113" r="3" fill="white"/>
    <path d="M0 136C0 132.686 2.68629 130 6 130H60C63.3137 130 66 132.686 66 136V142C66 145.314 63.3137 148 60 148H6C2.68629 148 0 145.314 0 142V136Z" fill="#C2C1C0" fill-opacity="0.2"/>
    <circle cx="9" cy="139" r="3" fill="white"/>
    <circle cx="21" cy="139" r="3" fill="white"/>
    <circle cx="33" cy="139" r="3" fill="white"/>
    <circle cx="45" cy="139" r="3" fill="white"/>
    <circle cx="57" cy="139" r="3" fill="white"/>
    <path d="M78 136C78 132.686 80.6863 130 84 130H126C129.314 130 132 132.686 132 136V142C132 145.314 129.314 148 126 148H84C80.6863 148 78 145.314 78 142V136Z" fill="#C2C1C0" fill-opacity="0.2"/>
    <circle cx="87" cy="139" r="3" fill="white"/>
    <circle cx="99" cy="139" r="3" fill="white"/>
    <circle cx="111" cy="139" r="3" fill="white"/>
    <circle cx="123" cy="139" r="3" fill="white"/>
</svg>
