<svg xmlns="http://www.w3.org/2000/svg" width="21" height="26" viewBox="0 0 21 26" fill="none">
    <path d="M17.3034 13.9708C17.3157 13.0039 17.5689 12.0559 18.0395 11.2149C18.51 10.3739 19.1826 9.66737 19.9947 9.16093C19.4788 8.41355 18.7982 7.79849 18.007 7.3646C17.2158 6.93071 16.3357 6.68993 15.4367 6.6614C13.5189 6.45721 11.6597 7.82543 10.6825 7.82543C9.68629 7.82543 8.18165 6.68167 6.5614 6.71549C5.51338 6.74983 4.492 7.05896 3.59678 7.61276C2.70155 8.16656 1.96302 8.94614 1.45314 9.87554C-0.755569 13.7545 0.891928 19.4552 3.00769 22.5906C4.06624 24.1259 5.30339 25.8409 6.92218 25.7801C8.50626 25.7135 9.09788 24.7555 11.01 24.7555C12.9044 24.7555 13.4594 25.7801 15.1111 25.7415C16.8109 25.7135 17.8818 24.1993 18.9032 22.6494C19.6638 21.5555 20.2491 20.3464 20.6373 19.067C19.6498 18.6433 18.8071 17.9341 18.2142 17.0279C17.6213 16.1216 17.3046 15.0584 17.3034 13.9708Z" fill="black"/>
    <path d="M14.1828 4.59932C15.1096 3.47076 15.5662 2.02019 15.4556 0.555664C14.0397 0.706516 12.7318 1.39296 11.7924 2.47821C11.3332 3.00839 10.9814 3.62518 10.7573 4.29333C10.5332 4.96148 10.4411 5.66789 10.4863 6.37216C11.1945 6.37956 11.8951 6.22385 12.5354 5.91676C13.1757 5.60968 13.739 5.15922 14.1828 4.59932Z" fill="black"/>
</svg>
