<svg xmlns="http://www.w3.org/2000/svg" width="23" height="26" viewBox="0 0 23 26" fill="none">
    <g clip-path="url(#clip0_17664_142331)">
        <path d="M21.6029 14.3308L16.6042 17.217L12.5132 13.1689L13.0085 12.6542L16.5869 9.11035L21.6029 12.0062C22.4975 12.523 22.4975 13.8141 21.6029 14.3308Z" fill="#FFC900"/>
        <path d="M16.586 9.10988L13.0076 12.6537L12.4999 13.1559L0.472168 0.94174C0.878364 0.545906 1.52496 0.414652 2.08452 0.73726L11.8436 6.37151L16.5867 9.10988H16.586Z" fill="#00EF76"/>
        <path d="M12.5138 13.169L0.463264 25.386C0.224935 25.1491 0.0722656 24.8202 0.0722656 24.4382V1.90054C0.0722656 1.51299 0.22977 1.18002 0.473626 0.942383L12.5013 13.1566L12.5138 13.169Z" fill="#01CFFF"/>
        <path d="M16.6004 17.2175L11.8401 19.9662L2.0817 25.5998C1.518 25.9252 0.86449 25.7891 0.458984 25.3849L12.5095 13.168L16.6004 17.2161V17.2175Z" fill="#F63548"/>
    </g>
    <defs>
        <clipPath id="clip0_17664_142331">
            <rect width="22.2026" height="25.2256" fill="white" transform="translate(0.0722656 0.555664)"/>
        </clipPath>
    </defs>
</svg>
