<svg xmlns="http://www.w3.org/2000/svg" width="104" height="102" viewBox="0 0 104 102" fill="none">
    <g filter="url(#filter0_di_17664_142375)">
        <path d="M35.0575 72.9229C34.5317 72.5381 34.211 72.0187 34.0956 71.3645C33.993 70.7232 34.0892 69.9601 34.3842 69.0751L39.5594 53.6264L26.3039 44.1032C25.5471 43.5645 25.0213 43.0065 24.7263 42.4294C24.4313 41.8394 24.3864 41.2302 24.5916 40.6017C24.7968 39.9861 25.188 39.5307 25.7652 39.2357C26.3552 38.9279 27.1119 38.774 28.0354 38.774H44.3114L49.275 23.3445C49.5572 22.4467 49.9291 21.7733 50.3908 21.3244C50.8654 20.8627 51.4233 20.6318 52.0646 20.6318C52.7187 20.6318 53.2766 20.8627 53.7384 21.3244C54.2001 21.7733 54.5785 22.4467 54.8735 23.3445L59.8178 38.774H76.0746C77.0237 38.774 77.7869 38.9279 78.364 39.2357C78.954 39.5307 79.3516 39.9861 79.5568 40.6017C79.7621 41.2302 79.7172 41.8394 79.4222 42.4294C79.1272 43.0065 78.5949 43.5645 77.8253 44.1032L64.5698 53.6264L69.7451 69.0751C70.0529 69.9601 70.1491 70.7232 70.0336 71.3645C69.9182 72.0187 69.604 72.5381 69.0909 72.9229C68.5651 73.3205 67.9751 73.4616 67.321 73.3461C66.6797 73.2435 65.9742 72.9165 65.2047 72.3649L52.0646 62.7263L38.9245 72.3649C38.155 72.9165 37.4431 73.2435 36.789 73.3461C36.1477 73.4616 35.5706 73.3205 35.0575 72.9229Z" fill="#FFE772"/>
        <path d="M35.0575 72.9229C34.5317 72.5381 34.211 72.0187 34.0956 71.3645C33.993 70.7232 34.0892 69.9601 34.3842 69.0751L39.5594 53.6264L26.3039 44.1032C25.5471 43.5645 25.0213 43.0065 24.7263 42.4294C24.4313 41.8394 24.3864 41.2302 24.5916 40.6017C24.7968 39.9861 25.188 39.5307 25.7652 39.2357C26.3552 38.9279 27.1119 38.774 28.0354 38.774H44.3114L49.275 23.3445C49.5572 22.4467 49.9291 21.7733 50.3908 21.3244C50.8654 20.8627 51.4233 20.6318 52.0646 20.6318C52.7187 20.6318 53.2766 20.8627 53.7384 21.3244C54.2001 21.7733 54.5785 22.4467 54.8735 23.3445L59.8178 38.774H76.0746C77.0237 38.774 77.7869 38.9279 78.364 39.2357C78.954 39.5307 79.3516 39.9861 79.5568 40.6017C79.7621 41.2302 79.7172 41.8394 79.4222 42.4294C79.1272 43.0065 78.5949 43.5645 77.8253 44.1032L64.5698 53.6264L69.7451 69.0751C70.0529 69.9601 70.1491 70.7232 70.0336 71.3645C69.9182 72.0187 69.604 72.5381 69.0909 72.9229C68.5651 73.3205 67.9751 73.4616 67.321 73.3461C66.6797 73.2435 65.9742 72.9165 65.2047 72.3649L52.0646 62.7263L38.9245 72.3649C38.155 72.9165 37.4431 73.2435 36.789 73.3461C36.1477 73.4616 35.5706 73.3205 35.0575 72.9229Z" fill="url(#paint0_linear_17664_142375)" style="mix-blend-mode:soft-light"/>
    </g>
    <mask id="mask0_17664_142375" style="mask-type:alpha" maskUnits="userSpaceOnUse" x="70" y="26" width="12" height="47">
        <rect x="70.1421" y="26.3418" width="11.4179" height="45.6716" fill="#D9D9D9"/>
    </mask>
    <g mask="url(#mask0_17664_142375)">
        <path d="M52.0737 21.5518C52.4847 21.5518 52.8089 21.6866 53.0981 21.9756L53.1079 21.9854C53.4243 22.2931 53.7401 22.8126 54.0083 23.626V23.627L58.9536 39.0566C59.0753 39.4364 59.4279 39.6943 59.8267 39.6943H76.0835C76.9451 39.6943 77.543 39.8357 77.9409 40.0479C77.9479 40.0516 77.9553 40.0551 77.9624 40.0586C78.3369 40.2458 78.5666 40.5112 78.6938 40.8887V40.8896C78.8234 41.2866 78.7972 41.6437 78.6138 42.0146C78.4361 42.3623 78.1042 42.7532 77.5562 43.1729L77.3081 43.3545L77.2993 43.3613L64.0435 52.8848C63.7169 53.1195 63.5807 53.5396 63.7085 53.9209L68.8843 69.3691L68.8872 69.3789C69.1645 70.1762 69.218 70.7722 69.1401 71.2051L69.1392 71.208C69.0626 71.6419 68.8688 71.9528 68.5493 72.1924L68.5464 72.1943C68.2257 72.4368 67.8939 72.5168 67.4888 72.4453L67.4751 72.4434L67.2993 72.4082C66.8796 72.3064 66.3676 72.0649 65.7563 71.6279L52.6157 61.9893C52.2929 61.7527 51.8535 61.7526 51.5308 61.9893L38.3989 71.6221C37.6991 72.1236 37.1209 72.3704 36.6558 72.4434C36.649 72.4444 36.642 72.4451 36.6353 72.4463C36.2487 72.5159 35.935 72.4387 35.6284 72.2012C35.6217 72.196 35.6147 72.1905 35.6079 72.1855C35.2799 71.9455 35.0858 71.6394 35.0093 71.2188C34.9389 70.7732 34.9956 70.1669 35.2622 69.3672L40.438 53.9209C40.5658 53.5395 40.4297 53.1195 40.103 52.8848L26.8481 43.3613L26.8442 43.3584C26.1593 42.8707 25.7565 42.4161 25.5513 42.0146C25.368 41.6439 25.3427 41.2864 25.4722 40.8896L25.4712 40.8887C25.6008 40.5039 25.8309 40.2402 26.1919 40.0557L26.1987 40.0518C26.6169 39.8337 27.2148 39.6943 28.0444 39.6943H44.3198C44.7182 39.6943 45.0709 39.4368 45.1929 39.0576L50.1567 23.6279L50.1587 23.6221C50.4147 22.8076 50.7249 22.2905 51.0386 21.9854L51.0396 21.9844C51.349 21.6835 51.68 21.5518 52.0737 21.5518Z" fill="#694F98" stroke="#FFE771" stroke-width="1.83445" stroke-linecap="round" stroke-linejoin="round"/>
    </g>
    <defs>
        <filter id="filter0_di_17664_142375" x="0.465332" y="0.631836" width="103.218" height="100.753" filterUnits="userSpaceOnUse" color-interpolation-filters="sRGB">
            <feFlood flood-opacity="0" result="BackgroundImageFix"/>
            <feColorMatrix in="SourceAlpha" type="matrix" values="0 0 0 0 0 0 0 0 0 0 0 0 0 0 0 0 0 0 127 0" result="hardAlpha"/>
            <feOffset dy="4"/>
            <feGaussianBlur stdDeviation="12"/>
            <feComposite in2="hardAlpha" operator="out"/>
            <feColorMatrix type="matrix" values="0 0 0 0 0 0 0 0 0 0 0 0 0 0 0 0 0 0 0.25 0"/>
            <feBlend mode="normal" in2="BackgroundImageFix" result="effect1_dropShadow_17664_142375"/>
            <feBlend mode="normal" in="SourceGraphic" in2="effect1_dropShadow_17664_142375" result="shape"/>
            <feColorMatrix in="SourceAlpha" type="matrix" values="0 0 0 0 0 0 0 0 0 0 0 0 0 0 0 0 0 0 127 0" result="hardAlpha"/>
            <feOffset dy="4"/>
            <feGaussianBlur stdDeviation="2"/>
            <feComposite in2="hardAlpha" operator="arithmetic" k2="-1" k3="1"/>
            <feColorMatrix type="matrix" values="0 0 0 0 1 0 0 0 0 1 0 0 0 0 1 0 0 0 0.85 0"/>
            <feBlend mode="soft-light" in2="shape" result="effect2_innerShadow_17664_142375"/>
        </filter>
        <linearGradient id="paint0_linear_17664_142375" x1="52.0742" y1="20.6318" x2="52.0742" y2="73.3851" gradientUnits="userSpaceOnUse">
            <stop stop-color="white"/>
            <stop offset="1"/>
        </linearGradient>
    </defs>
</svg>
