<svg width="178" height="45" viewBox="0 0 178 45" fill="none" xmlns="http://www.w3.org/2000/svg">
    <path
        d="M15.5247 9.42147C17.9663 6.97992 19.1871 5.75914 20.5948 5.30175C21.833 4.89942 23.1669 4.89942 24.4051 5.30175C25.8128 5.75914 27.0336 6.97992 29.4752 9.42147L35.5785 15.5248C38.02 17.9663 39.2408 19.1871 39.6982 20.5948C40.1005 21.8331 40.1005 23.1669 39.6982 24.4052C39.2408 25.8129 38.02 27.0337 35.5785 29.4752L29.4752 35.5785C27.0336 38.0201 25.8128 39.2409 24.4051 39.6982C23.1669 40.1006 21.833 40.1006 20.5948 39.6982C19.1871 39.2409 17.9663 38.0201 15.5247 35.5785L14.3772 34.2921C13.6828 33.5136 13.3357 33.1243 13.0881 32.6816C12.8686 32.289 12.7075 31.8664 12.61 31.4273C12.5 30.9321 12.5 30.4105 12.5 29.3674L12.5 15.6327C12.5 14.5895 12.5 14.0679 12.6099 13.5727C12.7075 13.1336 12.8685 12.711 13.0881 12.3184C13.3356 11.8757 13.6828 11.4864 14.3772 10.7079L15.5247 9.42147Z"
        fill="url(#paint0_radial_6206_78139)"
    />
    <path
        d="M15.5247 9.42147C17.9663 6.97992 19.1871 5.75914 20.5948 5.30175C21.833 4.89942 23.1669 4.89942 24.4051 5.30175C25.8128 5.75914 27.0336 6.97992 29.4752 9.42147L35.5785 15.5248C38.02 17.9663 39.2408 19.1871 39.6982 20.5948C40.1005 21.8331 40.1005 23.1669 39.6982 24.4052C39.2408 25.8129 38.02 27.0337 35.5785 29.4752L29.4752 35.5785C27.0336 38.0201 25.8128 39.2409 24.4051 39.6982C23.1669 40.1006 21.833 40.1006 20.5948 39.6982C19.1871 39.2409 17.9663 38.0201 15.5247 35.5785L14.3772 34.2921C13.6828 33.5136 13.3357 33.1243 13.0881 32.6816C12.8686 32.289 12.7075 31.8664 12.61 31.4273C12.5 30.9321 12.5 30.4105 12.5 29.3674L12.5 15.6327C12.5 14.5895 12.5 14.0679 12.6099 13.5727C12.7075 13.1336 12.8685 12.711 13.0881 12.3184C13.3356 11.8757 13.6828 11.4864 14.3772 10.7079L15.5247 9.42147Z"
        fill="url(#paint1_linear_6206_78139)"
    />
    <path
        d="M15.0888 9.85722C16.3096 8.63644 16.92 8.02606 17.6239 7.79736C18.243 7.59619 18.9099 7.59619 19.529 7.79736C20.2329 8.02606 20.8433 8.63644 22.0641 9.85722L31.219 19.0122C32.4398 20.233 33.0502 20.8434 33.2789 21.5472C33.4801 22.1663 33.4801 22.8333 33.2789 23.4524C33.0502 24.1562 32.4398 24.7666 31.219 25.9874L22.064 35.1424C20.8433 36.3631 20.2329 36.9735 19.529 37.2022C18.9099 37.4034 18.243 37.4034 17.6239 37.2022C16.92 36.9735 16.3096 36.3631 15.0888 35.1424L9.42147 29.475C6.97992 27.0334 5.75914 25.8127 5.30175 24.405C4.89942 23.1667 4.89942 21.8329 5.30175 20.5946C5.75914 19.1869 6.97992 17.9661 9.42147 15.5246L15.0888 9.85722Z"
        fill="url(#paint2_radial_6206_78139)"
    />
    <path
        d="M52.5 26.5739V31.1552H55.6988V26.774C55.6988 26.3488 55.8659 25.9378 56.168 25.6376C56.4665 25.3375 56.8753 25.1659 57.2982 25.1659H60.5788C62.1071 25.1659 63.575 24.5549 64.6555 23.4649C65.736 22.3786 66.3438 20.9027 66.3438 19.3661C66.3438 17.8295 65.736 16.3536 64.6555 15.2637C63.575 14.1774 62.1071 13.5663 60.5753 13.5663H52.5V19.2911H55.6988V16.5931H60.362C61.0871 16.5931 61.7801 16.8825 62.292 17.3971C62.8038 17.9117 63.0917 18.6085 63.0917 19.3375C63.0917 20.0665 62.8038 20.7634 62.292 21.2779C61.7801 21.7925 61.0871 22.082 60.362 22.082H56.9748C56.3883 22.082 55.8055 22.1963 55.2652 22.425C54.7214 22.6502 54.2309 22.9825 53.8151 23.4006C53.3992 23.8187 53.0722 24.3154 52.8448 24.8586C52.6173 25.3982 52.5 25.9843 52.5 26.5739Z"
        fill="white"
    />
    <path
        d="M66.8379 31.1551V24.1761C66.8379 21.328 68.4906 19.0623 71.7996 19.0623C72.3292 19.0552 72.8588 19.1124 73.3777 19.2375V22.107C73.0009 22.082 72.6775 22.082 72.5247 22.082C70.7724 22.082 70.0189 22.8896 70.0189 24.5263V31.1551H66.8379Z"
        fill="white"
    />
    <path
        d="M74.3301 25.2374C74.3301 21.7354 76.9602 19.066 80.6211 19.066C84.282 19.066 86.9122 21.7354 86.9122 25.2374C86.9122 28.7395 84.282 31.4339 80.6211 31.4339C76.9602 31.4339 74.3301 28.7359 74.3301 25.2374ZM83.7773 25.2374C83.7773 23.247 82.448 21.8355 80.6211 21.8355C78.7907 21.8355 77.465 23.2434 77.465 25.2374C77.465 27.2529 78.7942 28.6394 80.6211 28.6394C82.4516 28.6394 83.7773 27.2493 83.7773 25.2374Z"
        fill="white"
    />
    <path
        d="M97.0845 25.2374C97.0845 21.7354 99.7147 19.066 103.376 19.066C107.033 19.066 109.663 21.7354 109.663 25.2374C109.663 28.7395 107.033 31.4339 103.376 31.4339C99.7147 31.4339 97.0845 28.7359 97.0845 25.2374ZM106.528 25.2374C106.528 23.247 105.199 21.8355 103.372 21.8355C101.545 21.8355 100.216 23.2434 100.216 25.2374C100.216 27.2529 101.545 28.6394 103.372 28.6394C105.199 28.6394 106.528 27.2493 106.528 25.2374Z"
        fill="white"
    />
    <path
        d="M111.316 31.1552V24.4298C111.316 21.3066 113.296 19.0624 116.828 19.0624C120.336 19.0624 122.316 21.303 122.316 24.4298V31.1552H119.16V24.68C119.16 22.9432 118.382 21.8569 116.828 21.8569C115.275 21.8569 114.497 22.9397 114.497 24.68V31.1552H111.316Z"
        fill="white"
    />
    <path
        d="M96.132 21.8603H92.6986V26.27C92.6986 27.8066 93.2495 28.5106 94.8276 28.5106C94.9768 28.5106 95.3536 28.5106 95.8299 28.4856V31.08C95.1794 31.2551 94.6036 31.3587 93.9745 31.3587C91.3195 31.3587 89.514 29.7471 89.514 26.6988V21.8603H87.3814V19.3159H87.9145C88.1242 19.3159 88.3339 19.2731 88.5259 19.1944C88.7214 19.1123 88.8955 18.9943 89.0448 18.8442C89.1941 18.6942 89.3114 18.5191 89.3931 18.3225C89.4749 18.126 89.514 17.9187 89.514 17.7079V15.31H92.695V19.3159H96.1284V21.8603H96.132Z"
        fill="white"
    />
    <path
        d="M148.775 19.5624C145.2 19.5624 142.55 22.1874 142.55 25.6874C142.55 29.3874 145.1 31.8374 148.175 31.8374C149.875 31.8374 151.225 31.0874 151.975 29.8124L152.175 31.5624H154.975V25.7124C154.975 21.9124 152.325 19.5624 148.775 19.5624ZM148.775 29.0624C147 29.0624 145.675 27.6874 145.675 25.6874C145.675 23.6874 147.025 22.3124 148.775 22.3124C150.5 22.3124 151.85 23.6374 151.85 25.6874C151.85 27.9874 150.3 29.0624 148.775 29.0624Z"
        fill="white"
    />
    <path
        d="M161.109 31.8374C163.509 31.8374 165.559 30.4624 165.559 28.3624C165.559 23.8624 159.484 24.9124 159.484 23.0874C159.484 22.4874 160.009 22.0374 160.834 22.0374C161.684 22.0374 162.234 22.5124 162.359 23.2124H165.334C165.159 20.9124 163.409 19.5374 160.834 19.5624C158.184 19.5624 156.559 21.1374 156.559 23.0874C156.559 27.6374 162.559 26.4624 162.559 28.3624C162.559 28.9374 162.009 29.3624 161.109 29.3624C160.234 29.3624 159.434 28.9374 159.284 28.0374H156.259C156.434 30.2624 158.384 31.8374 161.109 31.8374Z"
        fill="white"
    />
    <path
        d="M171.62 31.8374C174.02 31.8374 176.07 30.4624 176.07 28.3624C176.07 23.8624 169.995 24.9124 169.995 23.0874C169.995 22.4874 170.52 22.0374 171.345 22.0374C172.195 22.0374 172.745 22.5124 172.87 23.2124H175.845C175.67 20.9124 173.92 19.5374 171.345 19.5624C168.695 19.5624 167.07 21.1374 167.07 23.0874C167.07 27.6374 173.07 26.4624 173.07 28.3624C173.07 28.9374 172.52 29.3624 171.62 29.3624C170.745 29.3624 169.945 28.9374 169.795 28.0374H166.77C166.945 30.2624 168.895 31.8374 171.62 31.8374Z"
        fill="white"
    />
    <path
        d="M136.84 13.7499H128.625V31.5629H131.879V27.1287C131.879 26.6979 132.049 26.2816 132.357 25.9776C132.66 25.6735 133.076 25.4998 133.506 25.4998H136.84C138.395 25.4998 139.885 24.8808 140.98 23.784C142.079 22.6836 142.694 21.1922 142.694 19.6393C142.698 18.8683 142.549 18.1009 142.257 17.3878C141.964 16.6747 141.533 16.0231 140.987 15.4765C140.441 14.9299 139.798 14.4956 139.085 14.1987C138.377 13.9019 137.614 13.7499 136.84 13.7499ZM139.404 19.5922C139.404 19.9578 139.331 20.3198 139.19 20.6565C139.049 20.9931 138.847 21.3008 138.587 21.5578C138.33 21.8148 138.022 22.0211 137.686 22.1587C137.35 22.2999 136.988 22.3686 136.623 22.3686H131.865V16.8195H136.623C136.988 16.8195 137.35 16.8919 137.69 17.033C138.026 17.1742 138.333 17.3805 138.59 17.6375C138.847 17.8982 139.053 18.2059 139.19 18.5425C139.328 18.8828 139.4 19.2447 139.396 19.6103L139.404 19.5922Z"
        fill="white"
    />
    <defs>
        <radialGradient
            id="paint0_radial_6206_78139"
            cx="0"
            cy="0"
            r="1"
            gradientUnits="userSpaceOnUse"
            gradientTransform="translate(15.5629 40.6821) rotate(-58.142) scale(29.2164 45.6885)"
        >
            <stop stop-color="#FFD580" />
            <stop offset="0.09375" stop-color="#F6C592" />
            <stop offset="0.205" stop-color="#EBB6A2" />
            <stop offset="0.324466" stop-color="#DFA5AF" />
            <stop offset="0.42875" stop-color="#D397BE" />
            <stop offset="0.53375" stop-color="#C486CB" />
            <stop offset="0.64875" stop-color="#B578D9" />
            <stop offset="0.77125" stop-color="#A166E5" />
            <stop offset="0.89125" stop-color="#8B57F2" />
            <stop offset="1" stop-color="#704CFF" />
        </radialGradient>
        <linearGradient
            id="paint1_linear_6206_78139"
            x1="14.3575"
            y1="-1.94962"
            x2="21.164"
            y2="39.5982"
            gradientUnits="userSpaceOnUse"
        >
            <stop stop-color="#6D4AFF" />
            <stop offset="0.392009" stop-color="#B39FFB" stop-opacity="0.978022" />
            <stop offset="1" stop-color="#FFE8DB" stop-opacity="0.8" />
        </linearGradient>
        <radialGradient
            id="paint2_radial_6206_78139"
            cx="0"
            cy="0"
            r="1"
            gradientUnits="userSpaceOnUse"
            gradientTransform="translate(12.9966 37.1245) rotate(-58.142) scale(23.5002 36.7495)"
        >
            <stop stop-color="#FFD580" />
            <stop offset="0.09375" stop-color="#F6C592" />
            <stop offset="0.205" stop-color="#EBB6A2" />
            <stop offset="0.324466" stop-color="#DFA5AF" />
            <stop offset="0.42875" stop-color="#D397BE" />
            <stop offset="0.53375" stop-color="#C486CB" />
            <stop offset="0.64875" stop-color="#B578D9" />
            <stop offset="0.77125" stop-color="#A166E5" />
            <stop offset="0.89125" stop-color="#8B57F2" />
            <stop offset="1" stop-color="#704CFF" />
        </radialGradient>
    </defs>
</svg>
