<svg width="24" height="24" viewBox="0 0 24 24" fill="none" xmlns="http://www.w3.org/2000/svg">
    <rect width="24" height="24" fill="white" />
    <path
        d="M6.00001 8.25998L7.7143 7.66187L10.7143 9.33806H15.8572L15.8571 16.5809L15.4286 17H7.28571C6.57563 17 6 16.4371 6 15.7428L6.00001 8.25998Z"
        fill="url(#paint0_radial_13875_14093)"
    />
    <path
        fill-rule="evenodd"
        clip-rule="evenodd"
        d="M10.6976 7.75955C10.9082 7.97365 11.1821 8 11.4538 8L16.7143 8C17.4244 8 18 8.56284 18 9.25714L18 15.7429C18 16.4372 17.4244 17 16.7143 17H15.4286L15.4286 10.5619C15.4286 9.98332 14.9489 9.51429 14.3571 9.51429H9.85714C9.57895 9.51429 9.30827 9.42606 9.08571 9.26286L8.05714 8.50857C7.83459 8.34537 7.5639 8.25714 7.28571 8.25714L6 8.25714C6 7.56284 6.57563 7 7.28571 7H9.43905C9.71078 7 10.0077 7.03949 10.1953 7.24045C10.3828 7.44141 10.4922 7.55078 10.6976 7.75955Z"
        fill="url(#paint1_linear_13875_14093)"
    />
    <defs>
        <radialGradient
            id="paint0_radial_13875_14093"
            cx="0"
            cy="0"
            r="1"
            gradientUnits="userSpaceOnUse"
            gradientTransform="translate(16.6828 1.31187) scale(18.3933 19.0095)"
        >
            <stop offset="0.5561" stop-color="#6D4AFF" />
            <stop offset="1" stop-color="#FF50C3" />
        </radialGradient>
        <linearGradient
            id="paint1_linear_13875_14093"
            x1="5.8418"
            y1="2.19"
            x2="20.2873"
            y2="18.6122"
            gradientUnits="userSpaceOnUse"
        >
            <stop stop-color="#7341FF" />
            <stop offset="0.3593" stop-color="#B487FF" />
            <stop offset="1" stop-color="#FFC8FF" />
        </linearGradient>
    </defs>
</svg>
