<svg width="36" height="32" viewBox="0 0 36 32" fill="none" xmlns="http://www.w3.org/2000/svg">
    <path
        d="M13.9487 25H0V30.1645C0 31.1722 0.84905 32 1.90337 32H13.9953H26.0966C27.1416 32 28 31.1812 28 30.1645V25H13.9487Z"
        fill="url(#paint0_linear_13497_2554)"
    />
    <g filter="url(#filter0_i_13497_2554)">
        <path
            d="M27.9867 24.9741L25.5326 4.96003C25.4672 4.41493 24.9354 4 24.3102 4H13.9992H3.68828C3.0631 4 2.53122 4.41493 2.4659 4.96003L0.0118018 24.9741C-0.118835 26.0562 0.851608 26.9999 2.10198 26.9999H13.9992H25.8965C27.1469 27.0081 28.1266 26.0643 27.9867 24.9741Z"
            fill="url(#paint1_linear_13497_2554)"
        />
    </g>
    <path
        d="M24.3803 30.0897C24.7348 30.0897 25.0223 29.8148 25.0223 29.4757C25.0223 29.1367 24.7348 28.8618 24.3803 28.8618C24.0257 28.8618 23.7383 29.1367 23.7383 29.4757C23.7383 29.8148 24.0257 30.0897 24.3803 30.0897Z"
        fill="white"
    />
    <g filter="url(#filter1_i_13497_2554)">
        <path
            d="M26.3422 19.8531L24.6768 5.25361C24.6489 5.01278 24.4256 4.83838 24.1557 4.83838H13.9584H3.76108C3.49126 4.83838 3.26796 5.02108 3.24005 5.25361L1.58391 19.8531C1.51878 20.4178 2.0119 20.8995 2.64458 20.8995H13.9584H25.2815C25.9142 20.8995 26.4073 20.4095 26.3422 19.8531Z"
            fill="url(#paint2_linear_13497_2554)"
        />
    </g>
    <path
        fill-rule="evenodd"
        clip-rule="evenodd"
        d="M19.6574 10.3144V10.2973C19.6574 9.85431 19.2726 9.49519 18.798 9.49519H13.842C13.4956 9.49519 13.1582 9.392 12.8789 9.20065L12.0526 8.63436C11.9302 8.55051 11.7823 8.50529 11.6305 8.50529H9.84712C9.3878 8.50529 9.01264 8.84158 8.98888 9.26478H10.0047C10.3123 9.26478 10.6123 9.35416 10.8631 9.52061L11.9732 10.2574C12.0701 10.3217 12.1861 10.3559 12.3049 10.3553L12.3076 10.3553L17.0446 10.3553C17.537 10.3553 17.941 10.7193 17.9583 11.1786L18.1558 16.4159H19.2551C19.7243 16.4159 20.1056 16.065 20.1144 15.6291L19.6574 10.3144ZM20.5717 15.6138C20.5717 16.2924 19.9822 16.8426 19.2551 16.8426H17.7145H9.26181C8.49637 16.8426 7.88577 16.2665 7.94765 15.5241L8.4575 9.26052C8.48158 8.60159 9.13529 8.07861 9.84712 8.07861H11.6305C11.8796 8.07861 12.1223 8.15282 12.3231 8.29042L13.1494 8.8567C13.3503 8.99431 13.5929 9.06851 13.842 9.06851H18.798C19.5251 9.06851 20.1145 9.61866 20.1145 10.2973L20.5717 15.6138Z"
        fill="url(#paint3_linear_13497_2554)"
    />
    <mask id="mask0_13497_2554" style="mask-type: alpha" maskUnits="userSpaceOnUse" x="0" y="4" width="28" height="23">
        <path
            d="M27.9867 24.9741L25.5326 4.96003C25.4672 4.41493 24.9354 4 24.3102 4H13.9992H3.68828C3.0631 4 2.53122 4.41493 2.4659 4.96003L0.0118018 24.9741C-0.118835 26.0562 0.851608 26.9999 2.10198 26.9999H13.9992H25.8965C27.1469 27.0081 28.1266 26.0643 27.9867 24.9741Z"
            fill="url(#paint4_linear_13497_2554)"
        />
    </mask>
    <g mask="url(#mask0_13497_2554)">
        <g opacity="0.2" filter="url(#filter2_f_13497_2554)">
            <path
                fill-rule="evenodd"
                clip-rule="evenodd"
                d="M29 14C32.866 14 36 10.866 36 7C36 3.13401 32.866 0 29 0C25.134 0 22 3.13401 22 7C22 10.866 25.134 14 29 14Z"
                fill="#221548"
            />
        </g>
    </g>
    <path
        fill-rule="evenodd"
        clip-rule="evenodd"
        d="M29 14C32.866 14 36 10.866 36 7C36 3.13401 32.866 0 29 0C25.134 0 22 3.13401 22 7C22 10.866 25.134 14 29 14Z"
        fill="url(#paint5_linear_13497_2554)"
    />
    <path
        fill-rule="evenodd"
        clip-rule="evenodd"
        d="M29.0021 3C29.5683 3 30.0064 3.49628 29.9362 4.05816L29.4982 7.56202C29.4669 7.81223 29.2542 8 29.0021 8C28.7499 8 28.5372 7.81223 28.5059 7.56202L28.068 4.05816C27.9977 3.49628 28.4358 3 29.0021 3ZM29.0021 10.4C29.3887 10.4 29.7021 10.0866 29.7021 9.7C29.7021 9.3134 29.3887 9 29.0021 9C28.6155 9 28.3021 9.3134 28.3021 9.7C28.3021 10.0866 28.6155 10.4 29.0021 10.4Z"
        fill="white"
    />
    <defs>
        <filter
            id="filter0_i_13497_2554"
            x="0"
            y="4"
            width="28"
            height="23"
            filterUnits="userSpaceOnUse"
            color-interpolation-filters="sRGB"
        >
            <feFlood flood-opacity="0" result="BackgroundImageFix" />
            <feBlend mode="normal" in="SourceGraphic" in2="BackgroundImageFix" result="shape" />
            <feColorMatrix
                in="SourceAlpha"
                type="matrix"
                values="0 0 0 0 0 0 0 0 0 0 0 0 0 0 0 0 0 0 127 0"
                result="hardAlpha"
            />
            <feOffset dy="-1" />
            <feComposite in2="hardAlpha" operator="arithmetic" k2="-1" k3="1" />
            <feColorMatrix type="matrix" values="0 0 0 0 1 0 0 0 0 1 0 0 0 0 1 0 0 0 0.57 0" />
            <feBlend mode="normal" in2="shape" result="effect1_innerShadow_13497_2554" />
        </filter>
        <filter
            id="filter1_i_13497_2554"
            x="1.57812"
            y="4.83838"
            width="24.7695"
            height="16.311"
            filterUnits="userSpaceOnUse"
            color-interpolation-filters="sRGB"
        >
            <feFlood flood-opacity="0" result="BackgroundImageFix" />
            <feBlend mode="normal" in="SourceGraphic" in2="BackgroundImageFix" result="shape" />
            <feColorMatrix
                in="SourceAlpha"
                type="matrix"
                values="0 0 0 0 0 0 0 0 0 0 0 0 0 0 0 0 0 0 127 0"
                result="hardAlpha"
            />
            <feOffset dy="0.25" />
            <feGaussianBlur stdDeviation="0.25" />
            <feComposite in2="hardAlpha" operator="arithmetic" k2="-1" k3="1" />
            <feColorMatrix type="matrix" values="0 0 0 0 0.427451 0 0 0 0 0.290196 0 0 0 0 1 0 0 0 0.5 0" />
            <feBlend mode="normal" in2="shape" result="effect1_innerShadow_13497_2554" />
        </filter>
        <filter
            id="filter2_f_13497_2554"
            x="18"
            y="-4"
            width="22"
            height="22"
            filterUnits="userSpaceOnUse"
            color-interpolation-filters="sRGB"
        >
            <feFlood flood-opacity="0" result="BackgroundImageFix" />
            <feBlend mode="normal" in="SourceGraphic" in2="BackgroundImageFix" result="shape" />
            <feGaussianBlur stdDeviation="2" result="effect1_foregroundBlur_13497_2554" />
        </filter>
        <linearGradient
            id="paint0_linear_13497_2554"
            x1="-7.22287"
            y1="28.4637"
            x2="35.9297"
            y2="29.9891"
            gradientUnits="userSpaceOnUse"
        >
            <stop stop-color="#E8A8FF" />
            <stop offset="1" stop-color="#6A45FF" />
        </linearGradient>
        <linearGradient
            id="paint1_linear_13497_2554"
            x1="23.6113"
            y1="2.11897"
            x2="1.20719"
            y2="26.8308"
            gradientUnits="userSpaceOnUse"
        >
            <stop offset="0.417101" stop-color="#AB96FF" />
            <stop offset="1" stop-color="#F1CCFF" />
        </linearGradient>
        <linearGradient
            id="paint2_linear_13497_2554"
            x1="22.4656"
            y1="3.52484"
            x2="7.58586"
            y2="24.3165"
            gradientUnits="userSpaceOnUse"
        >
            <stop stop-color="#FAF9FF" />
            <stop offset="1" stop-color="#FFFDFF" />
        </linearGradient>
        <linearGradient
            id="paint3_linear_13497_2554"
            x1="25.5291"
            y1="3.46619"
            x2="7.29977"
            y2="30.8996"
            gradientUnits="userSpaceOnUse"
        >
            <stop offset="0.417101" stop-color="#8161FF" />
            <stop offset="1" stop-color="#E499FF" />
        </linearGradient>
        <linearGradient
            id="paint4_linear_13497_2554"
            x1="23.6113"
            y1="2.11897"
            x2="1.20719"
            y2="26.8308"
            gradientUnits="userSpaceOnUse"
        >
            <stop offset="0.417101" stop-color="#AB96FF" />
            <stop offset="1" stop-color="#F1CCFF" />
        </linearGradient>
        <linearGradient
            id="paint5_linear_13497_2554"
            x1="28.9995"
            y1="1.40493"
            x2="28.9995"
            y2="19.5846"
            gradientUnits="userSpaceOnUse"
        >
            <stop stop-color="#FA5284" />
            <stop offset="1" stop-color="#DC3251" />
        </linearGradient>
    </defs>
</svg>
