<svg width="36" height="32" viewBox="0 0 36 32" fill="none" xmlns="http://www.w3.org/2000/svg">
    <g clip-path="url(#clip0_13499_2846)">
        <path
            d="M13.9487 25H0V30.1645C0 31.1722 0.84905 32 1.90337 32H13.9953H26.0966C27.1416 32 28 31.1812 28 30.1645V25H13.9487Z"
            fill="url(#paint0_linear_13499_2846)"
        />
        <g filter="url(#filter0_i_13499_2846)">
            <path
                d="M27.9867 24.9741L25.5326 4.96003C25.4672 4.41493 24.9354 4 24.3102 4H13.9992H3.68828C3.0631 4 2.53122 4.41493 2.4659 4.96003L0.0118018 24.9741C-0.118835 26.0562 0.851608 26.9999 2.10198 26.9999H13.9992H25.8965C27.1469 27.0081 28.1266 26.0643 27.9867 24.9741Z"
                fill="url(#paint1_linear_13499_2846)"
            />
        </g>
        <path
            d="M24.3803 30.0897C24.7348 30.0897 25.0223 29.8148 25.0223 29.4757C25.0223 29.1367 24.7348 28.8618 24.3803 28.8618C24.0257 28.8618 23.7383 29.1367 23.7383 29.4757C23.7383 29.8148 24.0257 30.0897 24.3803 30.0897Z"
            fill="white"
        />
        <g filter="url(#filter1_i_13499_2846)">
            <path
                d="M26.3422 19.8531L24.6768 5.25361C24.6489 5.01278 24.4256 4.83838 24.1557 4.83838H13.9584H3.76108C3.49126 4.83838 3.26796 5.02108 3.24005 5.25361L1.58391 19.8531C1.51878 20.4178 2.0119 20.8995 2.64458 20.8995H13.9584H25.2815C25.9142 20.8995 26.4073 20.4095 26.3422 19.8531Z"
                fill="url(#paint2_linear_13499_2846)"
            />
        </g>
        <path
            d="M9.64444 15.1356L9.5 18H12.1333L12.1844 15.2598C12.1844 14.9932 12.3028 14.7374 12.5136 14.5489C12.7243 14.3604 13.0101 14.2545 13.3082 14.2545H15.4459C15.9783 14.2545 16.5055 14.1606 16.9974 13.9784C17.4893 13.7961 17.9362 13.5289 18.3127 13.1921C18.6892 12.8553 18.9878 12.4554 19.1915 12.0154C19.3952 11.5753 19.5 11.1037 19.5 10.6274C19.5001 10.151 19.3953 9.67937 19.1916 9.23928C18.9879 8.79919 18.6893 8.39932 18.3128 8.06248C17.9363 7.72564 17.4894 7.45844 16.9975 7.27614C16.5056 7.09384 15.9784 7 15.4459 7H10.0556L9.86892 10.5805H12.2214L12.2517 8.89219H15.2938C15.8026 8.89219 16.2905 9.07296 16.6502 9.39475C17.01 9.71653 17.2121 10.153 17.2122 10.6081C17.2122 11.0632 17.0101 11.4998 16.6503 11.8216C16.2906 12.1435 15.8026 12.3243 15.2938 12.3243H12.9118C12.4991 12.3241 12.0905 12.3968 11.7092 12.538C11.3279 12.6792 10.9815 12.8863 10.6897 13.1474C10.398 13.4085 10.1022 13.7185 9.94444 14.0596C9.78668 14.4008 9.64416 14.7664 9.64444 15.1356Z"
            fill="url(#paint3_linear_13499_2846)"
        />
        <mask
            id="mask0_13499_2846"
            style="mask-type: alpha"
            maskUnits="userSpaceOnUse"
            x="0"
            y="4"
            width="28"
            height="23"
        >
            <path
                d="M27.9867 24.9741L25.5326 4.96003C25.4672 4.41493 24.9354 4 24.3102 4H13.9992H3.68828C3.0631 4 2.53122 4.41493 2.4659 4.96003L0.0118018 24.9741C-0.118835 26.0562 0.851608 26.9999 2.10198 26.9999H13.9992H25.8965C27.1469 27.0081 28.1266 26.0643 27.9867 24.9741Z"
                fill="url(#paint4_linear_13499_2846)"
            />
        </mask>
        <g mask="url(#mask0_13499_2846)">
            <g opacity="0.2" filter="url(#filter2_f_13499_2846)">
                <path
                    fill-rule="evenodd"
                    clip-rule="evenodd"
                    d="M29 14C32.866 14 36 10.866 36 7C36 3.13401 32.866 0 29 0C25.134 0 22 3.13401 22 7C22 10.866 25.134 14 29 14Z"
                    fill="#221548"
                />
            </g>
        </g>
        <path
            fill-rule="evenodd"
            clip-rule="evenodd"
            d="M29 14C32.866 14 36 10.866 36 7C36 3.13401 32.866 0 29 0C25.134 0 22 3.13401 22 7C22 10.866 25.134 14 29 14Z"
            fill="url(#paint5_linear_13499_2846)"
        />
        <path
            fill-rule="evenodd"
            clip-rule="evenodd"
            d="M29.5359 3.5C29.5359 3.22386 29.3121 3 29.0359 3C28.7598 3 28.5359 3.22386 28.5359 3.5L28.5359 6.53542L25.5 6.53542C25.2239 6.53542 25 6.75928 25 7.03542C25 7.31157 25.2239 7.53542 25.5 7.53542L28.5359 7.53542L28.5359 10.5711C28.5359 10.8472 28.7598 11.0711 29.0359 11.0711C29.3121 11.0711 29.5359 10.8472 29.5359 10.5711L29.5359 7.53542H32.5711C32.8472 7.53542 33.0711 7.31157 33.0711 7.03542C33.0711 6.75928 32.8472 6.53542 32.5711 6.53542H29.5359V3.5Z"
            fill="white"
        />
    </g>
    <defs>
        <filter
            id="filter0_i_13499_2846"
            x="0"
            y="4"
            width="28"
            height="23"
            filterUnits="userSpaceOnUse"
            color-interpolation-filters="sRGB"
        >
            <feFlood flood-opacity="0" result="BackgroundImageFix" />
            <feBlend mode="normal" in="SourceGraphic" in2="BackgroundImageFix" result="shape" />
            <feColorMatrix
                in="SourceAlpha"
                type="matrix"
                values="0 0 0 0 0 0 0 0 0 0 0 0 0 0 0 0 0 0 127 0"
                result="hardAlpha"
            />
            <feOffset dy="-1" />
            <feComposite in2="hardAlpha" operator="arithmetic" k2="-1" k3="1" />
            <feColorMatrix type="matrix" values="0 0 0 0 1 0 0 0 0 1 0 0 0 0 1 0 0 0 0.57 0" />
            <feBlend mode="normal" in2="shape" result="effect1_innerShadow_13499_2846" />
        </filter>
        <filter
            id="filter1_i_13499_2846"
            x="1.57812"
            y="4.83838"
            width="24.7695"
            height="16.311"
            filterUnits="userSpaceOnUse"
            color-interpolation-filters="sRGB"
        >
            <feFlood flood-opacity="0" result="BackgroundImageFix" />
            <feBlend mode="normal" in="SourceGraphic" in2="BackgroundImageFix" result="shape" />
            <feColorMatrix
                in="SourceAlpha"
                type="matrix"
                values="0 0 0 0 0 0 0 0 0 0 0 0 0 0 0 0 0 0 127 0"
                result="hardAlpha"
            />
            <feOffset dy="0.25" />
            <feGaussianBlur stdDeviation="0.25" />
            <feComposite in2="hardAlpha" operator="arithmetic" k2="-1" k3="1" />
            <feColorMatrix type="matrix" values="0 0 0 0 0.427451 0 0 0 0 0.290196 0 0 0 0 1 0 0 0 0.5 0" />
            <feBlend mode="normal" in2="shape" result="effect1_innerShadow_13499_2846" />
        </filter>
        <filter
            id="filter2_f_13499_2846"
            x="18"
            y="-4"
            width="22"
            height="22"
            filterUnits="userSpaceOnUse"
            color-interpolation-filters="sRGB"
        >
            <feFlood flood-opacity="0" result="BackgroundImageFix" />
            <feBlend mode="normal" in="SourceGraphic" in2="BackgroundImageFix" result="shape" />
            <feGaussianBlur stdDeviation="2" result="effect1_foregroundBlur_13499_2846" />
        </filter>
        <linearGradient
            id="paint0_linear_13499_2846"
            x1="-7.22287"
            y1="28.4637"
            x2="35.9297"
            y2="29.9891"
            gradientUnits="userSpaceOnUse"
        >
            <stop stop-color="#E8A8FF" />
            <stop offset="1" stop-color="#6A45FF" />
        </linearGradient>
        <linearGradient
            id="paint1_linear_13499_2846"
            x1="23.6113"
            y1="2.11897"
            x2="1.20719"
            y2="26.8308"
            gradientUnits="userSpaceOnUse"
        >
            <stop offset="0.417101" stop-color="#AB96FF" />
            <stop offset="1" stop-color="#F1CCFF" />
        </linearGradient>
        <linearGradient
            id="paint2_linear_13499_2846"
            x1="22.4656"
            y1="3.52484"
            x2="7.58586"
            y2="24.3165"
            gradientUnits="userSpaceOnUse"
        >
            <stop stop-color="#FAF9FF" />
            <stop offset="1" stop-color="#FFFDFF" />
        </linearGradient>
        <linearGradient
            id="paint3_linear_13499_2846"
            x1="23.4256"
            y1="1.21078"
            x2="-1.3593"
            y2="24.7429"
            gradientUnits="userSpaceOnUse"
        >
            <stop offset="0.417101" stop-color="#8161FF" />
            <stop offset="1" stop-color="#E499FF" />
        </linearGradient>
        <linearGradient
            id="paint4_linear_13499_2846"
            x1="23.6113"
            y1="2.11897"
            x2="1.20719"
            y2="26.8308"
            gradientUnits="userSpaceOnUse"
        >
            <stop offset="0.417101" stop-color="#AB96FF" />
            <stop offset="1" stop-color="#F1CCFF" />
        </linearGradient>
        <linearGradient
            id="paint5_linear_13499_2846"
            x1="32.5"
            y1="0.5"
            x2="26.5"
            y2="12.5"
            gradientUnits="userSpaceOnUse"
        >
            <stop stop-color="#4CFED3" />
            <stop offset="0.0001" stop-color="#41F5DA" />
            <stop offset="1" stop-color="#6D4AFF" />
        </linearGradient>
        <clipPath id="clip0_13499_2846">
            <rect width="36" height="32" fill="white" />
        </clipPath>
    </defs>
</svg>
