<svg width="372" height="166" viewBox="0 0 372 166" fill="none" xmlns="http://www.w3.org/2000/svg">
    <g filter="url(#filter0_d_56093_164785)">
        <g clip-path="url(#clip0_56093_164785)">
            <rect x="12" y="8" width="396" height="142" rx="16" fill="#F8F8F6" />
            <rect width="396" height="141" transform="translate(12 8)" fill="#F8F8F6" />
            <rect width="396" height="141" transform="translate(12 8)" fill="#F8F8F6" />
            <rect width="384" height="98" transform="translate(12 52)" fill="#F8F8F6" />
            <g clip-path="url(#clip1_56093_164785)">
                <rect width="384" height="49" transform="translate(12 101)" fill="#F8F8F6" />
                <rect x="28" y="111" width="28" height="28" rx="8" fill="#E5E4E1" />
                <rect x="68" y="120.5" width="185" height="9" rx="4.5" fill="#E5E4E1" />
                <rect x="320" y="120.5" width="185" height="9" rx="4.5" fill="#E5E4E1" />
                <rect x="12" y="149" width="384" height="1" fill="#EAE7E4" />
            </g>
            <g clip-path="url(#clip2_56093_164785)">
                <rect width="384" height="49" transform="translate(12 52)" fill="#F8F8F6" />
                <rect x="28" y="62" width="28" height="28" rx="8" fill="#E5E4E1" />
                <rect x="68" y="71.5" width="185" height="9" rx="4.5" fill="#E5E4E1" />
                <rect x="320" y="71.5" width="185" height="9" rx="4.5" fill="#E5E4E1" />
                <rect x="12" y="100" width="384" height="1" fill="#EAE7E4" />
            </g>
            <mask id="path-11-inside-1_56093_164785" fill="white">
                <path d="M12 8H1174V52H12V8Z" />
            </mask>
            <path d="M12 8H1174V52H12V8Z" fill="white" />
            <path d="M1174 52V51H12V52V53H1174V52Z" fill="#EAE7E4" mask="url(#path-11-inside-1_56093_164785)" />
            <mask id="path-13-inside-2_56093_164785" fill="white">
                <path d="M28 8H133V52H28V8Z" />
            </mask>
            <path d="M133 52V49H28V52V55H133V52Z" fill="#6D4AFF" mask="url(#path-13-inside-2_56093_164785)" />
            <path
                fill-rule="evenodd"
                clip-rule="evenodd"
                d="M55.6504 24C56.3527 24 57.0037 24.3685 57.3652 24.9707L59.6436 28.7676C59.8766 29.156 60 29.6007 60 30.0537V34C60 35.1046 59.1046 36 58 36H57.8389C57.7279 36.015 57.6151 36.0254 57.5 36.0254H46.5C46.3849 36.0254 46.2721 36.015 46.1611 36H46C44.8954 36 44 35.1046 44 34V30.0537C44 29.6007 44.1234 29.156 44.3564 28.7676L46.6348 24.9707C46.9963 24.3685 47.6473 24 48.3496 24H55.6504ZM48.3496 25C47.9985 25 47.6729 25.1843 47.4922 25.4854L45.3828 29H47.6719C47.7548 29 47.8372 29.0046 47.9189 29.0127C48.0823 29.0289 48.2428 29.0611 48.3984 29.1084C48.5252 29.147 48.6476 29.1978 48.7666 29.2559C49.0131 29.3761 49.2418 29.5348 49.4395 29.7324L50.2676 30.5605C50.5488 30.8418 50.9304 30.9999 51.3281 31H52.6719C52.7217 31 52.7712 30.9971 52.8203 30.9922C53.1635 30.958 53.4864 30.8066 53.7324 30.5605L54.5605 29.7324C54.7582 29.5348 54.9869 29.3761 55.2334 29.2559C55.3524 29.1978 55.4748 29.147 55.6016 29.1084C55.8351 29.0374 56.0796 29 56.3281 29H58.6172L56.5078 25.4854C56.3271 25.1843 56.0015 25 55.6504 25H48.3496Z"
                fill="#6D4AFF"
            />
            <path
                d="M68.9325 35V25.5455H72.478C74.6523 25.5455 75.8111 26.8704 75.8111 28.6754C75.8111 30.4943 74.6385 31.8054 72.4549 31.8054H70.6452V35H68.9325ZM70.6452 30.3974H72.2241C73.4982 30.3974 74.0661 29.6818 74.0661 28.6754C74.0661 27.669 73.4982 26.9766 72.2148 26.9766H70.6452V30.3974ZM77.2249 35V27.9091H78.8453V29.0909H78.9191C79.1776 28.2692 79.8563 27.8075 80.6688 27.8075C80.8534 27.8075 81.1166 27.826 81.2689 27.8537V29.391C81.1258 29.3448 80.7749 29.294 80.4933 29.294C79.5747 29.294 78.896 29.9311 78.896 30.8313V35H77.2249ZM82.3792 35V27.9091H84.0503V35H82.3792ZM83.2194 26.9027C82.6839 26.9027 82.2499 26.4964 82.2499 25.9979C82.2499 25.4947 82.6839 25.0884 83.2194 25.0884C83.7503 25.0884 84.1842 25.4947 84.1842 25.9979C84.1842 26.4964 83.7503 26.9027 83.2194 26.9027ZM85.7688 35V27.9091H87.3661V29.114H87.4492C87.7447 28.3061 88.4556 27.8168 89.4066 27.8168C90.3622 27.8168 91.0501 28.3107 91.3224 29.114H91.3963C91.7102 28.3246 92.495 27.8168 93.5245 27.8168C94.8263 27.8168 95.7404 28.657 95.7404 30.2404V35H94.0646V30.4989C94.0646 29.6218 93.5291 29.2248 92.8551 29.2248C92.0472 29.2248 91.5717 29.7788 91.5717 30.5774V35H89.9329V30.4297C89.9329 29.7003 89.4482 29.2248 88.7418 29.2248C88.0217 29.2248 87.44 29.8157 87.44 30.6882V35H85.7688ZM99.4763 35.1431C98.1237 35.1431 97.1034 34.4045 97.1034 33.0103C97.1034 31.413 98.4191 31.0021 99.7948 30.8544C101.046 30.7205 101.549 30.6974 101.549 30.2173V30.1896C101.549 29.4925 101.124 29.0955 100.349 29.0955C99.5317 29.0955 99.0608 29.511 98.8946 29.9957L97.3343 29.7741C97.7036 28.4815 98.8485 27.8168 100.34 27.8168C101.692 27.8168 103.22 28.38 103.22 30.2543V35H101.614V34.0259H101.558C101.254 34.6214 100.589 35.1431 99.4763 35.1431ZM99.9102 33.9151C100.917 33.9151 101.554 33.2457 101.554 32.4563V31.6207C101.337 31.7962 100.46 31.907 100.021 31.967C99.2732 32.0732 98.7146 32.3409 98.7146 32.9826C98.7146 33.5966 99.2132 33.9151 99.9102 33.9151ZM104.901 35V27.9091H106.521V29.0909H106.595C106.853 28.2692 107.532 27.8075 108.345 27.8075C108.529 27.8075 108.792 27.826 108.945 27.8537V29.391C108.802 29.3448 108.451 29.294 108.169 29.294C107.25 29.294 106.572 29.9311 106.572 30.8313V35H104.901ZM111.309 37.6591C110.852 37.6591 110.446 37.576 110.22 37.4837L110.608 36.1818C111.337 36.3942 111.827 36.3388 112.136 35.5309L112.279 35.1477L109.708 27.9091H111.48L113.115 33.2642H113.188L114.827 27.9091H116.605L113.765 35.8587C113.364 36.9897 112.611 37.6591 111.309 37.6591Z"
                fill="#0C0C14"
            />
            <path
                fill-rule="evenodd"
                clip-rule="evenodd"
                d="M160.653 24.0078C161.41 24.0846 162 24.7233 162 25.5V27H151V30.5C151 30.7761 151.224 31 151.5 31H152V29.5C152 28.6716 152.672 28 153.5 28H162.5C163.328 28 164 28.6716 164 29.5V34.5C164 35.3284 163.328 36 162.5 36H153.5C152.672 36 152 35.3284 152 34.5V32H151.5L151.347 31.9922C150.641 31.9205 150.079 31.3593 150.008 30.6533L150 30.5V25.5C150 24.6716 150.672 24 151.5 24H160.5L160.653 24.0078ZM160.215 29.7773C159.939 29.7773 159.715 30.0014 159.715 30.2773V31.0547C159.715 31.3308 159.939 31.5547 160.215 31.5547H161.786C162.062 31.5544 162.286 31.3307 162.286 31.0547V30.2773C162.286 30.0016 162.062 29.7776 161.786 29.7773H160.215ZM151.5 25C151.224 25 151 25.2239 151 25.5V26H161V25.5C161 25.2239 160.776 25 160.5 25H151.5Z"
                fill="#8F8D8A"
            />
            <path
                d="M173.628 26.5611V25.5455H180.719V26.5611H177.746V35H176.601V26.5611H173.628ZM181.602 35V27.9091H182.654V28.9801H182.728C182.987 28.2784 183.725 27.7983 184.575 27.7983C184.736 27.7983 185.022 27.8075 185.147 27.8168V28.9247C185.073 28.9062 184.773 28.8509 184.482 28.8509C183.448 28.8509 182.691 29.5526 182.691 30.5128V35H181.602ZM188.525 35.1662C187.177 35.1662 186.106 34.3722 186.106 32.9872C186.106 31.3622 187.542 31.0714 188.858 30.9006C190.15 30.7344 190.686 30.7805 190.686 30.2543V30.2173C190.686 29.3079 190.192 28.777 189.19 28.777C188.151 28.777 187.583 29.331 187.343 29.848L186.309 29.4787C186.863 28.1861 188.082 27.8168 189.153 27.8168C190.058 27.8168 191.775 28.0753 191.775 30.3281V35H190.686V34.0398H190.63C190.409 34.5014 189.762 35.1662 188.525 35.1662ZM188.691 34.1875C189.984 34.1875 190.686 33.3196 190.686 32.4332V31.4361C190.501 31.6577 189.264 31.7869 188.802 31.8423C187.953 31.9531 187.196 32.2116 187.196 33.0426C187.196 33.7997 187.824 34.1875 188.691 34.1875ZM194.853 30.7344V35H193.764V27.9091H194.816V29.017H194.909C195.241 28.2969 195.906 27.8168 196.977 27.8168C198.413 27.8168 199.377 28.6847 199.377 30.4943V35H198.288V30.5682C198.288 29.4556 197.674 28.7955 196.663 28.7955C195.62 28.7955 194.853 29.4972 194.853 30.7344ZM206.391 29.4972L205.412 29.7741C205.223 29.2848 204.831 28.7585 203.88 28.7585C203.012 28.7585 202.365 29.2017 202.365 29.8111C202.365 30.3558 202.744 30.6374 203.584 30.8452L204.637 31.1037C205.902 31.413 206.52 32.0362 206.52 33.0241C206.52 34.2475 205.398 35.1477 203.75 35.1477C202.301 35.1477 201.308 34.506 201.054 33.3011L202.088 33.0426C202.282 33.8043 202.841 34.1875 203.732 34.1875C204.748 34.1875 205.394 33.6889 205.394 33.0795C205.394 32.5902 205.057 32.2486 204.341 32.0824L203.159 31.8054C201.858 31.5007 201.276 30.8452 201.276 29.8665C201.276 28.6662 202.384 27.8168 203.88 27.8168C205.283 27.8168 206.049 28.4908 206.391 29.4972ZM210.247 35.1662C208.899 35.1662 207.828 34.3722 207.828 32.9872C207.828 31.3622 209.264 31.0714 210.579 30.9006C211.872 30.7344 212.407 30.7805 212.407 30.2543V30.2173C212.407 29.3079 211.913 28.777 210.912 28.777C209.873 28.777 209.305 29.331 209.065 29.848L208.031 29.4787C208.585 28.1861 209.804 27.8168 210.875 27.8168C211.78 27.8168 213.497 28.0753 213.497 30.3281V35H212.407V34.0398H212.352C212.13 34.5014 211.484 35.1662 210.247 35.1662ZM210.413 34.1875C211.706 34.1875 212.407 33.3196 212.407 32.4332V31.4361C212.223 31.6577 210.986 31.7869 210.524 31.8423C209.674 31.9531 208.917 32.2116 208.917 33.0426C208.917 33.7997 209.545 34.1875 210.413 34.1875ZM218.366 35.1477C216.372 35.1477 215.153 33.6151 215.153 31.4915C215.153 29.331 216.427 27.8168 218.348 27.8168C219.843 27.8168 220.97 28.7031 221.154 30.0327H220.065C219.899 29.3864 219.326 28.7955 218.366 28.7955C217.092 28.7955 216.243 29.848 216.243 31.4545C216.243 33.098 217.074 34.169 218.366 34.169C219.216 34.169 219.862 33.7074 220.065 32.9318H221.154C220.97 34.1875 219.936 35.1477 218.366 35.1477ZM225.831 27.9091V28.8324H224.317V32.9688C224.317 33.892 224.778 34.0398 225.259 34.0398C225.499 34.0398 225.646 34.0028 225.739 33.9844L225.96 34.9631C225.812 35.0185 225.554 35.0923 225.148 35.0923C224.224 35.0923 223.227 34.5014 223.227 33.2642V28.8324H222.156V27.9091H223.227V26.2102H224.317V27.9091H225.831ZM227.47 35V27.9091H228.559V35H227.47ZM228.024 26.7273C227.599 26.7273 227.248 26.3949 227.248 25.9886C227.248 25.5824 227.599 25.25 228.024 25.25C228.449 25.25 228.799 25.5824 228.799 25.9886C228.799 26.3949 228.449 26.7273 228.024 26.7273ZM233.435 35.1477C231.515 35.1477 230.222 33.6889 230.222 31.4915C230.222 29.2756 231.515 27.8168 233.435 27.8168C235.356 27.8168 236.649 29.2756 236.649 31.4915C236.649 33.6889 235.356 35.1477 233.435 35.1477ZM233.435 34.169C234.894 34.169 235.559 32.9134 235.559 31.4915C235.559 30.0696 234.894 28.7955 233.435 28.7955C231.977 28.7955 231.312 30.0696 231.312 31.4915C231.312 32.9134 231.977 34.169 233.435 34.169ZM239.401 30.7344V35H238.312V27.9091H239.364V29.017H239.456C239.789 28.2969 240.454 27.8168 241.525 27.8168C242.96 27.8168 243.925 28.6847 243.925 30.4943V35H242.836V30.5682C242.836 29.4556 242.222 28.7955 241.211 28.7955C240.167 28.7955 239.401 29.4972 239.401 30.7344ZM250.939 29.4972L249.96 29.7741C249.771 29.2848 249.378 28.7585 248.427 28.7585C247.56 28.7585 246.913 29.2017 246.913 29.8111C246.913 30.3558 247.292 30.6374 248.132 30.8452L249.185 31.1037C250.449 31.413 251.068 32.0362 251.068 33.0241C251.068 34.2475 249.946 35.1477 248.298 35.1477C246.849 35.1477 245.856 34.506 245.602 33.3011L246.636 33.0426C246.83 33.8043 247.389 34.1875 248.28 34.1875C249.295 34.1875 249.942 33.6889 249.942 33.0795C249.942 32.5902 249.605 32.2486 248.889 32.0824L247.707 31.8054C246.405 31.5007 245.824 30.8452 245.824 29.8665C245.824 28.6662 246.932 27.8168 248.427 27.8168C249.831 27.8168 250.597 28.4908 250.939 29.4972Z"
                fill="#5C5958"
            />
            <path
                d="M292 23C296.5 23 297 26.5 297 29.5C297 31 299 31 299 33C299 33.5523 298.552 34 298 34H286C285.448 34 285 33.5523 285 33C285 31 287 31 287 29.5C287 26.5 287.5 23 292 23Z"
                fill="#8F8D8A"
            />
            <path d="M294 35C294 36.1046 293.105 37 292 37C290.895 37 290 36.1046 290 35H294Z" fill="#8F8D8A" />
            <path
                d="M315.349 25.5455H316.494V31.8054C316.494 33.7443 315.045 35.1662 312.82 35.1662C310.594 35.1662 309.145 33.7443 309.145 31.8054V25.5455H310.29V31.7131C310.29 33.098 311.241 34.0952 312.82 34.0952C314.398 34.0952 315.349 33.098 315.349 31.7131V25.5455ZM318.633 37.6591V27.9091H319.685V29.0355H319.815C320.055 28.6662 320.479 27.8168 321.864 27.8168C323.656 27.8168 324.893 29.2386 324.893 31.473C324.893 33.7259 323.656 35.1477 321.883 35.1477C320.516 35.1477 320.055 34.2983 319.815 33.9105H319.722V37.6591H318.633ZM319.704 31.4545C319.704 33.0611 320.424 34.169 321.735 34.169C323.102 34.169 323.803 32.9688 323.803 31.4545C323.803 29.9588 323.12 28.7955 321.735 28.7955C320.406 28.7955 319.704 29.8665 319.704 31.4545ZM329.232 35.1477C327.46 35.1477 326.222 33.7259 326.222 31.473C326.222 29.2386 327.46 27.8168 329.251 27.8168C330.636 27.8168 331.06 28.6662 331.301 29.0355H331.393V25.5455H332.482V35H331.43V33.9105H331.301C331.06 34.2983 330.599 35.1477 329.232 35.1477ZM329.38 34.169C330.691 34.169 331.411 33.0611 331.411 31.4545C331.411 29.8665 330.71 28.7955 329.38 28.7955C327.995 28.7955 327.312 29.9588 327.312 31.4545C327.312 32.9688 328.014 34.169 329.38 34.169ZM336.716 35.1662C335.368 35.1662 334.297 34.3722 334.297 32.9872C334.297 31.3622 335.732 31.0714 337.048 30.9006C338.341 30.7344 338.876 30.7805 338.876 30.2543V30.2173C338.876 29.3079 338.382 28.777 337.38 28.777C336.342 28.777 335.774 29.331 335.534 29.848L334.5 29.4787C335.054 28.1861 336.272 27.8168 337.343 27.8168C338.248 27.8168 339.966 28.0753 339.966 30.3281V35H338.876V34.0398H338.821C338.599 34.5014 337.953 35.1662 336.716 35.1662ZM336.882 34.1875C338.174 34.1875 338.876 33.3196 338.876 32.4332V31.4361C338.691 31.6577 337.454 31.7869 336.993 31.8423C336.143 31.9531 335.386 32.2116 335.386 33.0426C335.386 33.7997 336.014 34.1875 336.882 34.1875ZM345.038 27.9091V28.8324H343.524V32.9688C343.524 33.892 343.985 34.0398 344.466 34.0398C344.706 34.0398 344.853 34.0028 344.946 33.9844L345.167 34.9631C345.02 35.0185 344.761 35.0923 344.355 35.0923C343.431 35.0923 342.434 34.5014 342.434 33.2642V28.8324H341.363V27.9091H342.434V26.2102H343.524V27.9091H345.038ZM349.574 35.1477C347.524 35.1477 346.268 33.6889 346.268 31.5099C346.268 29.331 347.542 27.8168 349.463 27.8168C350.94 27.8168 352.51 28.7216 352.51 31.3622V31.8239H347.362C347.413 33.3427 348.295 34.169 349.574 34.169C350.428 34.169 351.069 33.7997 351.346 33.0611L352.399 33.3565C352.067 34.4276 351.014 35.1477 349.574 35.1477ZM347.362 30.8821H351.402C351.402 29.6818 350.645 28.7955 349.463 28.7955C348.216 28.7955 347.436 29.7788 347.362 30.8821ZM359.19 29.4972L358.211 29.7741C358.022 29.2848 357.629 28.7585 356.678 28.7585C355.811 28.7585 355.164 29.2017 355.164 29.8111C355.164 30.3558 355.543 30.6374 356.383 30.8452L357.436 31.1037C358.7 31.413 359.319 32.0362 359.319 33.0241C359.319 34.2475 358.197 35.1477 356.549 35.1477C355.1 35.1477 354.107 34.506 353.853 33.3011L354.887 33.0426C355.081 33.8043 355.64 34.1875 356.531 34.1875C357.546 34.1875 358.193 33.6889 358.193 33.0795C358.193 32.5902 357.856 32.2486 357.14 32.0824L355.958 31.8054C354.656 31.5007 354.075 30.8452 354.075 29.8665C354.075 28.6662 355.183 27.8168 356.678 27.8168C358.082 27.8168 358.848 28.4908 359.19 29.4972Z"
                fill="#5C5958"
            />
        </g>
        <rect x="12.5" y="8.5" width="395" height="141" rx="15.5" stroke="#EAE7E4" />
    </g>
    <defs>
        <filter
            id="filter0_d_56093_164785"
            x="0"
            y="0"
            width="420"
            height="166"
            filterUnits="userSpaceOnUse"
            color-interpolation-filters="sRGB"
        >
            <feFlood flood-opacity="0" result="BackgroundImageFix" />
            <feColorMatrix
                in="SourceAlpha"
                type="matrix"
                values="0 0 0 0 0 0 0 0 0 0 0 0 0 0 0 0 0 0 127 0"
                result="hardAlpha"
            />
            <feOffset dy="4" />
            <feGaussianBlur stdDeviation="6" />
            <feComposite in2="hardAlpha" operator="out" />
            <feColorMatrix type="matrix" values="0 0 0 0 0 0 0 0 0 0 0 0 0 0 0 0 0 0 0.1 0" />
            <feBlend mode="normal" in2="BackgroundImageFix" result="effect1_dropShadow_56093_164785" />
            <feBlend mode="normal" in="SourceGraphic" in2="effect1_dropShadow_56093_164785" result="shape" />
        </filter>
        <clipPath id="clip0_56093_164785">
            <rect x="12" y="8" width="396" height="142" rx="16" fill="white" />
        </clipPath>
        <clipPath id="clip1_56093_164785">
            <rect width="384" height="49" fill="white" transform="translate(12 101)" />
        </clipPath>
        <clipPath id="clip2_56093_164785">
            <rect width="384" height="49" fill="white" transform="translate(12 52)" />
        </clipPath>
    </defs>
</svg>
