<svg xmlns="http://www.w3.org/2000/svg" width="372" height="166" fill="none" viewBox="0 0 372 166">
    <g filter="url(#a)">
        <g clip-path="url(#b)">
            <rect width="396" height="142" x="12" y="8" fill="#f8f8f6" rx="16" />
            <path fill="#f8f8f6" d="M12 8h396v141H12z" />
            <path fill="#f8f8f6" d="M12 8h396v141H12z" />
            <path fill="#f8f8f6" d="M12 52h384v98H12z" />
            <g clip-path="url(#c)">
                <path fill="#f8f8f6" d="M12 101h384v49H12z" />
                <rect width="28" height="28" x="28" y="111" fill="#e5e4e1" rx="8" />
                <rect width="185" height="9" x="68" y="120.5" fill="#e5e4e1" rx="4.5" />
                <rect width="185" height="9" x="320" y="120.5" fill="#e5e4e1" rx="4.5" />
                <path fill="#eae7e4" d="M12 149h384v1H12z" />
            </g>
            <g clip-path="url(#d)">
                <path fill="#f8f8f6" d="M12 52h384v49H12z" />
                <rect width="28" height="28" x="28" y="62" fill="#e5e4e1" rx="8" />
                <rect width="185" height="9" x="68" y="71.5" fill="#e5e4e1" rx="4.5" />
                <rect width="185" height="9" x="320" y="71.5" fill="#e5e4e1" rx="4.5" />
                <path fill="#eae7e4" d="M12 100h384v1H12z" />
            </g>
            <mask id="e" fill="#fff"><path d="M12 8h1162v44H12z" /></mask>
            <path fill="#fff" d="M12 8h1162v44H12z" />
            <path fill="#eae7e4" d="M1174 52v-1H12v2h1162z" mask="url(#e)" />
            <mask id="f" fill="#fff"><path d="M28 8h105v44H28z" /></mask>
            <path fill="#6d4aff" d="M133 52v-3H28v6h105z" mask="url(#f)" />
            <path
                fill="#6d4aff"
                fill-rule="evenodd"
                d="M55.65 24a2 2 0 0 1 1.715.97l2.279 3.798A2.5 2.5 0 0 1 60 30.054V34a2 2 0 0 1-2 2h-.161a3 3 0 0 1-.339.025h-11q-.172-.001-.339-.025H46a2 2 0 0 1-2-2v-3.946a2.5 2.5 0 0 1 .356-1.286l2.279-3.797A2 2 0 0 1 48.35 24zm-7.3 1a1 1 0 0 0-.858.485L45.382 29h2.29a2.5 2.5 0 0 1 1.768.732l.828.829a1.5 1.5 0 0 0 1.06.439h1.344q.075 0 .148-.008a1.5 1.5 0 0 0 .912-.431l.828-.829c.198-.197.427-.356.673-.476A2.496 2.496 0 0 1 56.328 29h2.29l-2.11-3.515A1 1 0 0 0 55.65 25z"
                clip-rule="evenodd"
            />
            <path
                fill="#0c0c14"
                d="M68.933 35v-9.454h3.545c2.174 0 3.333 1.324 3.333 3.13 0 1.818-1.173 3.13-3.356 3.13h-1.81V35zm1.712-4.603h1.58c1.273 0 1.841-.715 1.841-1.722 0-1.006-.568-1.698-1.851-1.698h-1.57zM77.225 35v-7.09h1.62v1.18h.074c.259-.82.937-1.282 1.75-1.282.184 0 .448.018.6.046v1.537a3.2 3.2 0 0 0-.776-.097c-.918 0-1.597.637-1.597 1.537V35zm5.154 0v-7.09h1.671V35zm.84-8.097c-.535 0-.97-.407-.97-.905 0-.503.435-.91.97-.91.531 0 .965.407.965.91 0 .498-.434.905-.965.905M85.77 35v-7.09h1.597v1.204h.083c.296-.808 1.007-1.297 1.958-1.297.955 0 1.643.494 1.915 1.297h.074c.314-.79 1.099-1.297 2.129-1.297 1.301 0 2.215.84 2.215 2.423V35h-1.675v-4.501c0-.877-.536-1.274-1.21-1.274-.808 0-1.283.554-1.283 1.352V35h-1.64v-4.57c0-.73-.484-1.205-1.19-1.205-.72 0-1.302.59-1.302 1.463V35zm13.707.143c-1.352 0-2.373-.739-2.373-2.133 0-1.597 1.316-2.008 2.692-2.156 1.251-.133 1.754-.157 1.754-.637v-.027c0-.698-.425-1.094-1.2-1.094-.817 0-1.288.415-1.454.9l-1.56-.222c.369-1.293 1.514-1.957 3.005-1.957 1.352 0 2.88.563 2.88 2.437V35h-1.606v-.974h-.056c-.304.595-.969 1.117-2.082 1.117m.434-1.228c1.007 0 1.644-.67 1.644-1.459v-.835c-.217.175-1.094.286-1.533.346-.748.106-1.306.374-1.306 1.016 0 .614.498.932 1.195.932M104.901 35v-7.09h1.62v1.18h.074c.258-.82.937-1.282 1.75-1.282.184 0 .447.018.6.046v1.537a3.2 3.2 0 0 0-.776-.097c-.919 0-1.597.637-1.597 1.537V35zm6.408 2.66c-.457 0-.863-.084-1.089-.176l.388-1.302c.729.212 1.219.157 1.528-.651l.143-.383-2.571-7.239h1.772l1.635 5.355h.073l1.639-5.355h1.778l-2.84 7.95c-.401 1.13-1.154 1.8-2.456 1.8"
            />
            <path
                fill="#8f8d8a"
                fill-rule="evenodd"
                d="M160.653 24.008A1.5 1.5 0 0 1 162 25.5V27h-11v3.5a.5.5 0 0 0 .5.5h.5v-1.5a1.5 1.5 0 0 1 1.5-1.5h9a1.5 1.5 0 0 1 1.5 1.5v5a1.5 1.5 0 0 1-1.5 1.5h-9a1.5 1.5 0 0 1-1.5-1.5V32h-.5l-.153-.008a1.5 1.5 0 0 1-1.339-1.339L150 30.5v-5a1.5 1.5 0 0 1 1.5-1.5h9zm-.438 5.77a.5.5 0 0 0-.5.5v.777a.5.5 0 0 0 .5.5h1.571a.5.5 0 0 0 .5-.5v-.778a.5.5 0 0 0-.5-.5zM151.5 25a.5.5 0 0 0-.5.5v.5h10v-.5a.5.5 0 0 0-.5-.5z"
                clip-rule="evenodd"
            />
            <path
                fill="#5c5958"
                d="M173.628 26.561v-1.015h7.091v1.015h-2.973V35h-1.145v-8.439zM181.602 35v-7.09h1.052v1.07h.074c.259-.702.997-1.182 1.847-1.182.161 0 .447.01.572.019v1.108a3.3 3.3 0 0 0-.665-.074c-1.034 0-1.791.702-1.791 1.662V35zm6.923.166c-1.348 0-2.419-.794-2.419-2.179 0-1.625 1.436-1.916 2.752-2.086 1.292-.167 1.828-.12 1.828-.647v-.037c0-.91-.494-1.44-1.496-1.44-1.039 0-1.607.554-1.847 1.071l-1.034-.37c.554-1.292 1.773-1.661 2.844-1.661.905 0 2.622.258 2.622 2.511V35h-1.089v-.96h-.056c-.221.461-.868 1.126-2.105 1.126m.166-.978c1.293 0 1.995-.868 1.995-1.755v-.997c-.185.222-1.422.35-1.884.406-.849.111-1.606.37-1.606 1.2 0 .758.628 1.145 1.495 1.145m6.162-3.454V35h-1.089v-7.09h1.052v1.107h.093c.332-.72.997-1.2 2.068-1.2 1.436 0 2.4.868 2.4 2.677V35h-1.089v-4.432c0-1.112-.614-1.773-1.625-1.773-1.043 0-1.81.702-1.81 1.94m11.538-1.237-.979.277c-.189-.49-.581-1.015-1.532-1.015-.868 0-1.515.443-1.515 1.052 0 .545.379.826 1.219 1.034l1.053.259c1.265.309 1.883.932 1.883 1.92 0 1.224-1.122 2.124-2.77 2.124-1.449 0-2.442-.642-2.696-1.847l1.034-.258c.194.761.753 1.145 1.644 1.145 1.016 0 1.662-.5 1.662-1.108 0-.49-.337-.831-1.053-.998l-1.182-.277c-1.301-.304-1.883-.96-1.883-1.939 0-1.2 1.108-2.05 2.604-2.05 1.403 0 2.169.675 2.511 1.681m3.856 5.67c-1.348 0-2.419-.795-2.419-2.18 0-1.625 1.436-1.916 2.751-2.086 1.293-.167 1.828-.12 1.828-.647v-.037c0-.91-.494-1.44-1.495-1.44-1.039 0-1.607.554-1.847 1.071l-1.034-.37c.554-1.292 1.773-1.661 2.844-1.661.905 0 2.622.258 2.622 2.511V35h-1.09v-.96h-.055c-.222.461-.868 1.126-2.105 1.126m.166-.98c1.293 0 1.994-.867 1.994-1.754v-.997c-.184.222-1.421.35-1.883.406-.85.111-1.607.37-1.607 1.2 0 .758.628 1.145 1.496 1.145m7.953.96c-1.994 0-3.213-1.532-3.213-3.655 0-2.161 1.274-3.675 3.195-3.675 1.495 0 2.622.886 2.806 2.216h-1.089c-.166-.647-.739-1.238-1.699-1.238-1.274 0-2.123 1.053-2.123 2.66 0 1.643.831 2.714 2.123 2.714.85 0 1.496-.462 1.699-1.237h1.089c-.184 1.255-1.218 2.216-2.788 2.216m7.465-7.238v.923h-1.514v4.137c0 .923.461 1.07.942 1.07.24 0 .387-.036.48-.055l.221.98c-.148.055-.406.128-.812.128-.924 0-1.921-.59-1.921-1.828v-4.432h-1.071v-.923h1.071V26.21h1.09v1.7zM227.47 35v-7.09h1.089V35zm.554-8.273c-.425 0-.776-.332-.776-.738 0-.407.351-.739.776-.739s.775.332.775.739-.35.738-.775.738m5.411 8.42c-1.92 0-3.213-1.458-3.213-3.655 0-2.216 1.293-3.675 3.213-3.675s3.214 1.459 3.214 3.674c0 2.198-1.293 3.657-3.214 3.657m0-.978c1.459 0 2.124-1.256 2.124-2.677s-.665-2.697-2.124-2.697c-1.458 0-2.123 1.275-2.123 2.696s.665 2.678 2.123 2.678m5.966-3.435V35h-1.089v-7.09h1.052v1.107h.092c.333-.72.998-1.2 2.069-1.2 1.435 0 2.4.868 2.4 2.677V35h-1.089v-4.432c0-1.112-.614-1.773-1.625-1.773-1.044 0-1.81.702-1.81 1.94m11.538-1.237-.979.277c-.189-.49-.582-1.015-1.533-1.015-.867 0-1.514.443-1.514 1.052 0 .545.379.826 1.219 1.034l1.053.259c1.264.309 1.883.932 1.883 1.92 0 1.224-1.122 2.124-2.77 2.124-1.449 0-2.442-.642-2.696-1.847l1.034-.258c.194.761.753 1.145 1.644 1.145 1.015 0 1.662-.5 1.662-1.108 0-.49-.337-.831-1.053-.998l-1.182-.277c-1.302-.304-1.883-.96-1.883-1.939 0-1.2 1.108-2.05 2.603-2.05 1.404 0 2.17.675 2.512 1.681"
            />
            <path
                fill="#8f8d8a"
                d="M292 23c4.5 0 5 3.5 5 6.5 0 1.5 2 1.5 2 3.5a1 1 0 0 1-1 1h-12a1 1 0 0 1-1-1c0-2 2-2 2-3.5 0-3 .5-6.5 5-6.5M294 35a2 2 0 1 1-4 0z"
            />
            <path
                fill="#5c5958"
                d="M315.349 25.546h1.145v6.26c0 1.938-1.449 3.36-3.674 3.36-2.226 0-3.675-1.422-3.675-3.36v-6.26h1.145v6.167c0 1.385.951 2.382 2.53 2.382s2.529-.997 2.529-2.382zm3.284 12.113v-9.75h1.052v1.127h.13c.24-.37.664-1.22 2.049-1.22 1.792 0 3.029 1.423 3.029 3.657 0 2.253-1.237 3.675-3.01 3.675-1.367 0-1.828-.85-2.068-1.238h-.093v3.75zm1.071-6.204c0 1.606.72 2.714 2.031 2.714 1.367 0 2.068-1.2 2.068-2.714 0-1.496-.683-2.66-2.068-2.66-1.329 0-2.031 1.071-2.031 2.66m9.528 3.693c-1.772 0-3.01-1.422-3.01-3.675 0-2.234 1.238-3.656 3.029-3.656 1.385 0 1.809.85 2.05 1.218h.092v-3.49h1.089V35h-1.052v-1.09h-.129c-.241.388-.702 1.238-2.069 1.238m.148-.979c1.311 0 2.031-1.108 2.031-2.714 0-1.588-.701-2.66-2.031-2.66-1.385 0-2.068 1.164-2.068 2.66 0 1.514.702 2.714 2.068 2.714m7.336.997c-1.348 0-2.419-.794-2.419-2.179 0-1.625 1.435-1.916 2.751-2.086 1.293-.167 1.828-.12 1.828-.647v-.037c0-.91-.494-1.44-1.496-1.44-1.038 0-1.606.554-1.846 1.071l-1.034-.37c.554-1.292 1.772-1.661 2.843-1.661.905 0 2.623.258 2.623 2.511V35h-1.09v-.96h-.055c-.222.461-.868 1.126-2.105 1.126m.166-.978c1.292 0 1.994-.868 1.994-1.755v-.997c-.185.222-1.422.35-1.883.406-.85.111-1.607.37-1.607 1.2 0 .758.628 1.145 1.496 1.145m8.156-6.279v.923h-1.514v4.137c0 .923.461 1.07.942 1.07.24 0 .387-.036.48-.055l.221.98c-.147.055-.406.128-.812.128-.924 0-1.921-.59-1.921-1.828v-4.432h-1.071v-.923h1.071V26.21h1.09v1.7zm4.536 7.239c-2.05 0-3.306-1.46-3.306-3.638s1.274-3.693 3.195-3.693c1.477 0 3.047.905 3.047 3.545v.462h-5.148c.051 1.519.933 2.345 2.212 2.345.854 0 1.495-.37 1.772-1.108l1.053.295c-.332 1.072-1.385 1.792-2.825 1.792m-2.212-4.266h4.04c0-1.2-.757-2.087-1.939-2.087-1.247 0-2.027.984-2.101 2.087m11.828-1.385-.979.277c-.189-.49-.582-1.015-1.533-1.015-.867 0-1.514.443-1.514 1.052 0 .545.379.826 1.219 1.034l1.053.259c1.264.309 1.883.932 1.883 1.92 0 1.224-1.122 2.124-2.77 2.124-1.449 0-2.442-.642-2.696-1.847l1.034-.258c.194.761.753 1.145 1.644 1.145 1.015 0 1.662-.5 1.662-1.108 0-.49-.337-.831-1.053-.998l-1.182-.277c-1.302-.304-1.883-.96-1.883-1.939 0-1.2 1.108-2.05 2.603-2.05 1.404 0 2.17.675 2.512 1.681"
            />
        </g>
        <rect width="395" height="141" x="12.5" y="8.5" stroke="#eae7e4" rx="15.5" />
    </g>
    <defs>
        <clipPath id="b"><rect width="396" height="142" x="12" y="8" fill="#fff" rx="16" /></clipPath>
        <clipPath id="c"><path fill="#fff" d="M12 101h384v49H12z" /></clipPath>
        <clipPath id="d"><path fill="#fff" d="M12 52h384v49H12z" /></clipPath>
        <filter
            id="a"
            width="420"
            height="166"
            x="0"
            y="0"
            color-interpolation-filters="sRGB"
            filterUnits="userSpaceOnUse"
        >
            <feFlood flood-opacity="0" result="BackgroundImageFix" />
            <feColorMatrix in="SourceAlpha" result="hardAlpha" values="0 0 0 0 0 0 0 0 0 0 0 0 0 0 0 0 0 0 127 0" />
            <feOffset dy="4" />
            <feGaussianBlur stdDeviation="6" />
            <feComposite in2="hardAlpha" operator="out" />
            <feColorMatrix values="0 0 0 0 0 0 0 0 0 0 0 0 0 0 0 0 0 0 0.1 0" />
            <feBlend in2="BackgroundImageFix" result="effect1_dropShadow_56093_164785" />
            <feBlend in="SourceGraphic" in2="effect1_dropShadow_56093_164785" result="shape" />
        </filter>
    </defs>
</svg>
