<svg width="264" height="264" viewBox="0 0 264 264" fill="none" xmlns="http://www.w3.org/2000/svg">
<g clip-path="url(#clip0_5183_7698)">
<circle opacity="0.4" cx="132" cy="63.9385" r="64" fill="url(#paint0_radial_5183_7698)"/>
<path d="M115 80.9394L149 46.9395M115 46.9395L149 80.9395" stroke="url(#paint1_linear_5183_7698)" stroke-width="4" stroke-linecap="round"/>
<path d="M210 214.938H54V122.764C54 117.91 57.8331 113.938 62.5179 113.938H201.482C206.167 113.938 210 117.91 210 122.764V214.938Z" fill="#372580"/>
<path d="M210 214.938H54V122.764C54 117.91 57.8331 113.938 62.5179 113.938H201.482C206.167 113.938 210 117.91 210 122.764V214.938Z" fill="#3B3747"/>
<path d="M210 214.938H54V122.764C54 117.91 57.8331 113.938 62.5179 113.938H201.482C206.167 113.938 210 117.91 210 122.764V214.938Z" fill="url(#paint2_linear_5183_7698)" fill-opacity="0.2"/>
<path d="M203 214.938H68C64.134 214.938 61 211.804 61 207.938V123.096C61 121.906 61.9222 120.938 63.0572 120.938H200.872C202.007 120.938 202.929 121.906 202.929 123.096V214.868C202.929 214.907 202.961 214.938 203 214.938Z" fill="white"/>
<path d="M203 214.938H68C64.134 214.938 61 211.804 61 207.938V123.096C61 121.906 61.9222 120.938 63.0572 120.938H200.872C202.007 120.938 202.929 121.906 202.929 123.096V214.868C202.929 214.907 202.961 214.938 203 214.938Z" fill="white" fill-opacity="0.3"/>
<path d="M203 214.938H68C64.134 214.938 61 211.804 61 207.938V123.096C61 121.906 61.9222 120.938 63.0572 120.938H200.872C202.007 120.938 202.929 121.906 202.929 123.096V214.868C202.929 214.907 202.961 214.938 203 214.938Z" fill="url(#paint3_linear_5183_7698)" fill-opacity="0.4"/>
<path d="M63.0576 121.089H200.872C201.917 121.089 202.779 121.982 202.779 123.097V214.788H68C64.2169 214.788 61.1504 211.722 61.1504 207.938V123.097C61.1504 121.982 62.0121 121.089 63.0576 121.089Z" stroke="url(#paint4_linear_5183_7698)" stroke-opacity="0.5" stroke-width="0.3"/>
<path d="M227.075 217.938H36.9252C35.2842 217.938 34 216.567 34 214.815V213.062C34 211.31 35.2842 209.938 36.9252 209.938H227.075C228.716 209.938 230 211.31 230 213.062V214.815C230 216.567 228.644 217.938 227.075 217.938Z" fill="#B3ACCF"/>
<path d="M227.075 217.938H36.9252C35.2842 217.938 34 216.567 34 214.815V213.062C34 211.31 35.2842 209.938 36.9252 209.938H227.075C228.716 209.938 230 211.31 230 213.062V214.815C230 216.567 228.644 217.938 227.075 217.938Z" fill="#3B3747"/>
<path d="M227.075 217.938H36.9252C35.2842 217.938 34 216.567 34 214.815V213.062C34 211.31 35.2842 209.938 36.9252 209.938H227.075C228.716 209.938 230 211.31 230 213.062V214.815C230 216.567 228.644 217.938 227.075 217.938Z" fill="url(#paint5_linear_5183_7698)" fill-opacity="0.2"/>
<path opacity="0.5" d="M141.591 213.938H122.409C119.934 213.938 118 212.114 118 209.938H146C146 212.114 144.066 213.938 141.591 213.938Z" fill="#D1CFCD"/>
<g filter="url(#filter0_d_5183_7698)">
<path d="M112 151.185C112 145.526 116.588 140.938 122.247 140.938H142.753C148.412 140.938 153 145.526 153 151.185V171.692C153 177.351 148.412 181.938 142.753 181.938H122.247C116.588 181.938 112 177.351 112 171.692V151.185Z" fill="white"/>
<path d="M112 151.185C112 145.526 116.588 140.938 122.247 140.938H142.753C148.412 140.938 153 145.526 153 151.185V171.692C153 177.351 148.412 181.938 142.753 181.938H122.247C116.588 181.938 112 177.351 112 171.692V151.185Z" fill="url(#paint6_linear_5183_7698)"/>
<path d="M122.247 141.296H142.753C148.215 141.296 152.643 145.724 152.643 151.186V171.691C152.643 177.153 148.215 181.581 142.753 181.581H122.247C116.785 181.581 112.357 177.153 112.357 171.691V151.186C112.357 145.724 116.785 141.296 122.247 141.296Z" stroke="url(#paint7_linear_5183_7698)" stroke-width="0.714286"/>
</g>
<path fill-rule="evenodd" clip-rule="evenodd" d="M132.5 171.938C138.299 171.938 143 167.237 143 161.438C143 155.639 138.299 150.938 132.5 150.938C126.701 150.938 122 155.639 122 161.438C122 167.237 126.701 171.938 132.5 171.938ZM132.5 155.438C133.349 155.438 134.007 156.183 133.901 157.026L133.244 162.281C133.197 162.657 132.878 162.938 132.5 162.938C132.122 162.938 131.803 162.657 131.756 162.281L131.099 157.026C130.993 156.183 131.651 155.438 132.5 155.438ZM132.5 166.538C133.08 166.538 133.55 166.068 133.55 165.488C133.55 164.909 133.08 164.438 132.5 164.438C131.92 164.438 131.45 164.909 131.45 165.488C131.45 166.068 131.92 166.538 132.5 166.538Z" fill="url(#paint8_linear_5183_7698)"/>
</g>
<defs>
<filter id="filter0_d_5183_7698" x="107.2" y="137.338" width="50.6" height="50.6" filterUnits="userSpaceOnUse" color-interpolation-filters="sRGB">
<feFlood flood-opacity="0" result="BackgroundImageFix"/>
<feColorMatrix in="SourceAlpha" type="matrix" values="0 0 0 0 0 0 0 0 0 0 0 0 0 0 0 0 0 0 127 0" result="hardAlpha"/>
<feOffset dy="1.2"/>
<feGaussianBlur stdDeviation="2.4"/>
<feComposite in2="hardAlpha" operator="out"/>
<feColorMatrix type="matrix" values="0 0 0 0 0 0 0 0 0 0 0 0 0 0 0 0 0 0 0.15 0"/>
<feBlend mode="normal" in2="BackgroundImageFix" result="effect1_dropShadow_5183_7698"/>
<feBlend mode="normal" in="SourceGraphic" in2="effect1_dropShadow_5183_7698" result="shape"/>
</filter>
<radialGradient id="paint0_radial_5183_7698" cx="0" cy="0" r="1" gradientUnits="userSpaceOnUse" gradientTransform="translate(132 63.9385) rotate(90) scale(64)">
<stop stop-color="#F08FA4" stop-opacity="0.5"/>
<stop offset="0.35" stop-color="#F08FA4" stop-opacity="0.45"/>
<stop offset="0.75" stop-color="#F08FA4" stop-opacity="0.15"/>
<stop offset="1" stop-color="#F08FA4" stop-opacity="0"/>
</radialGradient>
<linearGradient id="paint1_linear_5183_7698" x1="132.515" y1="45.7905" x2="135.232" y2="78.6167" gradientUnits="userSpaceOnUse">
<stop stop-color="#FA6887"/>
<stop offset="1" stop-color="#F08FA4"/>
</linearGradient>
<linearGradient id="paint2_linear_5183_7698" x1="172.152" y1="258.056" x2="67.8826" y2="160.96" gradientUnits="userSpaceOnUse">
<stop stop-color="white"/>
<stop offset="0.553424" stop-color="white" stop-opacity="0"/>
</linearGradient>
<linearGradient id="paint3_linear_5183_7698" x1="203" y1="120.938" x2="135.353" y2="253.019" gradientUnits="userSpaceOnUse">
<stop stop-color="#A892FF"/>
<stop offset="1" stop-color="#625592"/>
</linearGradient>
<linearGradient id="paint4_linear_5183_7698" x1="132" y1="120.938" x2="132" y2="214.938" gradientUnits="userSpaceOnUse">
<stop stop-color="white"/>
<stop offset="1" stop-color="white" stop-opacity="0.6"/>
</linearGradient>
<linearGradient id="paint5_linear_5183_7698" x1="182.447" y1="221.354" x2="181.331" y2="204.869" gradientUnits="userSpaceOnUse">
<stop stop-color="white"/>
<stop offset="0.553424" stop-color="white" stop-opacity="0"/>
</linearGradient>
<linearGradient id="paint6_linear_5183_7698" x1="132.5" y1="154.938" x2="132.5" y2="181.938" gradientUnits="userSpaceOnUse">
<stop stop-color="#2C2060" stop-opacity="0"/>
<stop offset="1" stop-color="#2C2060" stop-opacity="0.1"/>
</linearGradient>
<linearGradient id="paint7_linear_5183_7698" x1="132.5" y1="140.938" x2="132.5" y2="181.938" gradientUnits="userSpaceOnUse">
<stop stop-color="white"/>
<stop offset="1" stop-color="white" stop-opacity="0.6"/>
</linearGradient>
<linearGradient id="paint8_linear_5183_7698" x1="132.5" y1="150.938" x2="132.5" y2="171.938" gradientUnits="userSpaceOnUse">
<stop stop-color="#FF6B7D"/>
<stop offset="1" stop-color="#FA387D"/>
</linearGradient>
<clipPath id="clip0_5183_7698">
<rect width="264" height="264" fill="white"/>
</clipPath>
</defs>
</svg>
