<svg xmlns="http://www.w3.org/2000/svg" width="256" height="157" fill="none">
    <path fill="#fff" stroke="#F0EDE6" stroke-width="1.4"
          d="M35.7 30.433a8.733 8.733 0 0 1 8.733-8.733h167.133a8.734 8.734 0 0 1 8.734 8.733v117.133a8.734 8.734 0 0 1-8.734 8.734H44.434a8.734 8.734 0 0 1-8.734-8.734V30.433Z"/>
    <path fill="#F0ECE6" d="M35 30.433A9.433 9.433 0 0 1 44.434 21h167.132A9.434 9.434 0 0 1 221 30.433V41H35V30.433Z"/>
    <path fill="#CCC8C0"
          d="M50.289 31.145a3.144 3.144 0 1 1-6.289 0 3.144 3.144 0 0 1 6.289 0ZM59.723 31.145a3.144 3.144 0 1 1-6.29 0 3.144 3.144 0 0 1 6.29 0ZM69.156 31.145a3.144 3.144 0 1 1-6.289 0 3.144 3.144 0 0 1 6.29 0Z"/>
    <mask id="a" width="61" height="79" x="160" y="21" maskUnits="userSpaceOnUse" style="mask-type:alpha">
        <path fill="#C4C4C4" d="M160 21h61v78.571h-61V21Z"/>
    </mask>
    <g filter="url(#b)" mask="url(#a)" opacity=".17">
        <path fill="#221548" d="M221-10.5h37.5V72h-68.768c-8.615 0-13.887-9.456-9.356-16.784L221-10.5Z"/>
    </g>
    <path fill="#999693" fill-rule="evenodd"
          d="M106.727 70.723a2.258 2.258 0 0 1 3.185 0l18.088 18 4.949-4.929a2.258 2.258 0 0 1 3.185 0c.881.877.881 2.3 0 3.178l-4.945 4.927 18.072 17.985a2.241 2.241 0 0 1 0 3.178 2.26 2.26 0 0 1-3.186 0l-39.348-39.16a2.241 2.241 0 0 1 0-3.18Zm24.499 0c4.98-4.96 13.054-4.96 18.035 0s4.981 13.005 0 17.966l-7.412 7.377a2.26 2.26 0 0 1-3.186 0 2.242 2.242 0 0 1 0-3.178l7.412-7.377a8.186 8.186 0 0 0 0-11.61c-3.221-3.207-8.443-3.207-11.664 0l-7.385 7.35a2.26 2.26 0 0 1-3.186 0 2.241 2.241 0 0 1 0-3.178l7.386-7.35Zm-16.45 17.33 3.093 3.267-7.542 7.014a8.18 8.18 0 0 0-.174 11.772 8.268 8.268 0 0 0 11.483.169l7.974-7.42 3.093 3.268-7.977 7.423c-5.017 4.709-12.884 4.594-17.759-.261-5.084-5.063-4.962-13.31.27-18.221l7.539-7.012Zm6.905 6.968 3.188 3.175-1.821 1.811a2.259 2.259 0 0 1-3.185 0 2.241 2.241 0 0 1 0-3.178l1.818-1.808Z"
          clip-rule="evenodd"/>
    <path fill="url(#c)"
          d="M213.567 3.638c2.917-4.85 9.949-4.85 12.866 0l28.482 47.363c3.008 5.003-.595 11.375-6.433 11.375h-56.964c-5.838 0-9.441-6.372-6.433-11.375l28.482-47.363Z"/>
    <path fill="#fff"
          d="M216.822 21.438a3.178 3.178 0 0 1 6.356 0l.09 17.011a3.268 3.268 0 1 1-6.536 0l.09-17.011ZM223.284 48.77a3.284 3.284 0 1 1-6.568.001 3.284 3.284 0 0 1 6.568 0Z"/>
    <defs>
        <linearGradient id="c" x1="220" x2="220" y1="-.091" y2="90.074" gradientUnits="userSpaceOnUse">
            <stop stop-color="#FA5284"/>
            <stop offset="1" stop-color="#DC3251"/>
        </linearGradient>
        <filter id="b" width="113.178" height="115.893" x="162.018" y="-27.196" color-interpolation-filters="sRGB"
                filterUnits="userSpaceOnUse">
            <feFlood flood-opacity="0" result="BackgroundImageFix"/>
            <feBlend in="SourceGraphic" in2="BackgroundImageFix" result="shape"/>
            <feGaussianBlur result="effect1_foregroundBlur_11788_61956" stdDeviation="8.348"/>
        </filter>
    </defs>
</svg>
