<svg width="48" height="48" viewBox="0 0 48 48" fill="none" xmlns="http://www.w3.org/2000/svg">
    <g clip-path="url(#clip0_1_29736)">
        <path
            d="M24.0004 43.2001C34.6044 43.2001 43.2007 34.6039 43.2007 24C43.2007 13.3962 34.6044 4.80005 24.0004 4.80005C13.3963 4.80005 4.80005 13.3962 4.80005 24C4.80005 34.6039 13.3963 43.2001 24.0004 43.2001Z"
            fill="white"
        />
        <path
            d="M24.0004 43.2001C34.6044 43.2001 43.2007 34.6039 43.2007 24C43.2007 13.3962 34.6044 4.80005 24.0004 4.80005C13.3963 4.80005 4.80005 13.3962 4.80005 24C4.80005 34.6039 13.3963 43.2001 24.0004 43.2001Z"
            fill="url(#paint0_linear_1_29736)"
            fill-opacity="0.2"
        />
        <path
            fill-rule="evenodd"
            clip-rule="evenodd"
            d="M31.2001 20.3191C31.2001 24.2956 27.9765 27.5191 24 27.5191C20.0236 27.5191 16.8 24.2956 16.8 20.3191C16.8 16.3427 20.0236 13.1191 24 13.1191C27.9765 13.1191 31.2001 16.3427 31.2001 20.3191ZM24.0004 43.2C29.4914 43.2 34.444 40.8951 37.9434 37.2C34.444 33.5049 29.4914 31.2 24.0004 31.2C18.5095 31.2 13.5568 33.5049 10.0574 37.2C13.5568 40.8951 18.5095 43.2 24.0004 43.2Z"
            fill="url(#paint1_linear_1_29736)"
        />
        <g opacity="0.3" filter="url(#filter0_f_1_29736)">
            <path
                fill-rule="evenodd"
                clip-rule="evenodd"
                d="M41.9647 17.2081C40.0201 12.0675 35.9322 7.97997 30.7914 6.03564C30.2837 7.11762 30 8.32558 30 9.59981C30 14.239 33.7608 17.9998 38.4 17.9998C39.6744 17.9998 40.8826 17.716 41.9647 17.2081Z"
                fill="#1C008A"
            />
        </g>
        <path
            d="M48 8C48 3.58172 44.4183 3.13124e-07 40 6.99382e-07C35.5817 1.08564e-06 32 3.58172 32 8C32 12.4183 35.5817 16 40 16C44.4183 16 48 12.4183 48 8Z"
            fill="url(#paint2_linear_1_29736)"
        />
        <path
            fill-rule="evenodd"
            clip-rule="evenodd"
            d="M43.7655 5.21625C44.0779 5.52867 44.0779 6.0352 43.7655 6.34762L39.5473 10.5658C39.2349 10.8782 38.7284 10.8782 38.416 10.5658L36.416 8.56579C36.1035 8.25337 36.1035 7.74684 36.416 7.43441C36.7284 7.12199 37.2349 7.12199 37.5473 7.43441L38.9817 8.86873L42.6341 5.21625C42.9465 4.90383 43.4531 4.90383 43.7655 5.21625Z"
            fill="white"
        />
    </g>
    <defs>
        <filter
            id="filter0_f_1_29736"
            x="26"
            y="2.03564"
            width="19.9646"
            height="19.9641"
            filterUnits="userSpaceOnUse"
            color-interpolation-filters="sRGB"
        >
            <feFlood flood-opacity="0" result="BackgroundImageFix" />
            <feBlend mode="normal" in="SourceGraphic" in2="BackgroundImageFix" result="shape" />
            <feGaussianBlur stdDeviation="2" result="effect1_foregroundBlur_1_29736" />
        </filter>
        <linearGradient
            id="paint0_linear_1_29736"
            x1="25.8466"
            y1="-8.12303"
            x2="36.5541"
            y2="40.9847"
            gradientUnits="userSpaceOnUse"
        >
            <stop stop-color="#ECAAFF" />
            <stop offset="1" stop-color="#6A48F6" />
        </linearGradient>
        <linearGradient
            id="paint1_linear_1_29736"
            x1="25.3411"
            y1="2.99577"
            x2="34.3225"
            y2="41.181"
            gradientUnits="userSpaceOnUse"
        >
            <stop stop-color="#ECAAFF" />
            <stop offset="1" stop-color="#6A48F6" />
        </linearGradient>
        <linearGradient
            id="paint2_linear_1_29736"
            x1="32"
            y1="0.400001"
            x2="47.6"
            y2="16"
            gradientUnits="userSpaceOnUse"
        >
            <stop stop-color="#2AF091" />
            <stop offset="1" stop-color="#00C5A1" />
        </linearGradient>
        <clipPath id="clip0_1_29736">
            <rect width="48" height="48" fill="white" />
        </clipPath>
    </defs>
</svg>
