<svg width="344" height="156" fill="none" xmlns="http://www.w3.org/2000/svg">
    <g clip-path="url(#a)">
        <rect width="344" height="156" rx="8" fill="#1B1340" />
        <rect width="344" height="156" rx="8" fill="url(#b)" fill-opacity=".8" />
        <path
            fill-rule="evenodd"
            clip-rule="evenodd"
            d="M61.97 75.569h.001l-6.114 6.787L48 73.708v-3.73c0-.429.5-.663.829-.39l8.717 7.24c.843.7 2.065.7 2.908 0l1.516-1.26Z"
            fill="url(#c)"
        />
        <path
            d="M65.286 72.816 61.97 75.57h.001l-4.39 3.879a2.023 2.023 0 0 1-2.633.039L48 73.709v11.087c0 1.257 1.019 2.205 2.276 2.205h15.01l1.571-7.057-1.571-7.128Z"
            fill="url(#d)"
        />
        <path
            fill-rule="evenodd"
            clip-rule="evenodd"
            d="M65.286 72.818v14.181h2.438A2.276 2.276 0 0 0 70 84.723V69.977c0-.428-.5-.662-.829-.389l-3.885 3.23Z"
            fill="url(#e)"
        />
        <path
            d="M94.357 69A2.357 2.357 0 0 0 92 71.357v.786l.786.786v13.357l15.714-7.857.786.785H114v-7.857A2.357 2.357 0 0 0 111.643 69H94.357Z"
            fill="url(#f)"
        />
        <path
            d="M107.434 72.143H92v12.593A2.264 2.264 0 0 0 94.264 87h7.95l3.829-5.685a2.57 2.57 0 0 1 2.527-2.101h.716v-5.22a1.852 1.852 0 0 0-1.852-1.851Z"
            fill="url(#g)"
        />
        <path
            d="M102.214 87v-.798c0-.455.158-.895.446-1.246l3.788-4.619c.099-.148.212-.286.338-.411l-.338.411a2.668 2.668 0 0 0-.448 1.484V87h-3.786Z"
            fill="#B8D7FF"
        />
        <path
            d="M108.186 84.232h.802a.618.618 0 0 0 .63.468c.362 0 .602-.198.602-.488s-.249-.452-.742-.452h-.318v-.655h.276c.477 0 .672-.175.672-.436 0-.26-.212-.44-.504-.44a.502.502 0 0 0-.53.454h-.774c.028-.456.39-1.11 1.299-1.11.73 0 1.234.412 1.234.993a.87.87 0 0 1-.616.837v.011a.877.877 0 0 1 .725.892c0 .63-.581 1.044-1.331 1.044-.798.005-1.367-.445-1.425-1.118ZM112.344 81.635h.583v3.663h-.753v-2.81l-.725.488v-.74l.895-.601Z"
            fill="#8F69FF"
        />
        <path
            d="m136 71.357 3.143-1.572 5.5 3.143h9.428v13.286l-.785.785h-14.929A2.357 2.357 0 0 1 136 84.642V71.357Z"
            fill="url(#h)"
        />
        <path
            fill-rule="evenodd"
            clip-rule="evenodd"
            d="M144.612 70.12c.403.294.888.451 1.387.451h9.644A2.357 2.357 0 0 1 158 72.93v11.714A2.357 2.357 0 0 1 155.643 87h-2.357V75.679c0-1.085-.88-1.965-1.965-1.965h-8.25c-.51 0-1.006-.165-1.414-.471l-1.886-1.414a2.356 2.356 0 0 0-1.414-.472H136A2.357 2.357 0 0 1 138.357 69h3.948c.498 0 .983.158 1.386.45l.921.67Z"
            fill="url(#i)"
        />
        <path
            fill-rule="evenodd"
            clip-rule="evenodd"
            d="M188.837 86.746c.836 1.503 2.983 1.585 3.932.15l8.852-13.385c.938-1.42.04-3.322-1.659-3.516l-17.398-1.98c-1.855-.21-3.176 1.745-2.273 3.367l.07.127 7.763 5.32-.094 8.461.807 1.456Z"
            fill="url(#j)"
        />
        <path
            d="m189.335 85.344.786-1.171 5.967-9.014c.522-.788.024-1.845-.92-1.953l-14.809-1.7 7.671 13.79a.77.77 0 0 0 1.305.048Z"
            fill="url(#k)"
        />
        <path
            d="M230.616 69.78c1.534-1.535 2.302-2.303 3.186-2.59a3.878 3.878 0 0 1 2.396 0c.884.287 1.652 1.055 3.186 2.59l3.837 3.836c1.535 1.534 2.302 2.302 2.589 3.186a3.874 3.874 0 0 1 0 2.395c-.287.885-1.054 1.653-2.589 3.187l-3.837 3.837c-1.534 1.534-2.302 2.302-3.186 2.59a3.878 3.878 0 0 1-2.396 0c-.884-.288-1.652-1.056-3.186-2.59l-.722-.809c-.436-.49-.654-.734-.81-1.012a2.93 2.93 0 0 1-.301-.789c-.069-.31-.069-.639-.069-1.294v-8.634c0-.655 0-.983.069-1.294a2.93 2.93 0 0 1 .301-.789c.156-.278.374-.523.81-1.012l.722-.809Z"
            fill="url(#l)"
        />
        <path
            d="M230.616 69.78c1.534-1.535 2.302-2.303 3.186-2.59a3.878 3.878 0 0 1 2.396 0c.884.287 1.652 1.055 3.186 2.59l3.837 3.836c1.535 1.534 2.302 2.302 2.589 3.186a3.874 3.874 0 0 1 0 2.395c-.287.885-1.054 1.653-2.589 3.187l-3.837 3.837c-1.534 1.534-2.302 2.302-3.186 2.59a3.878 3.878 0 0 1-2.396 0c-.884-.288-1.652-1.056-3.186-2.59l-.722-.809c-.436-.49-.654-.734-.81-1.012a2.93 2.93 0 0 1-.301-.789c-.069-.31-.069-.639-.069-1.294v-8.634c0-.655 0-.983.069-1.294a2.93 2.93 0 0 1 .301-.789c.156-.278.374-.523.81-1.012l.722-.809Z"
            fill="url(#m)"
        />
        <path
            d="M230.342 70.054c.767-.768 1.151-1.151 1.593-1.295a1.94 1.94 0 0 1 1.198 0c.442.144.826.527 1.593 1.295l5.755 5.754c.767.768 1.151 1.151 1.294 1.594.127.389.127.808 0 1.197-.143.443-.527.826-1.294 1.594l-5.755 5.754c-.767.767-1.151 1.151-1.593 1.295a1.94 1.94 0 0 1-1.198 0c-.442-.144-.826-.528-1.593-1.295l-3.563-3.562c-1.534-1.535-2.302-2.302-2.589-3.187a3.874 3.874 0 0 1 0-2.395c.287-.885 1.055-1.652 2.589-3.187l3.563-3.562Z"
            fill="url(#n)"
        />
        <path
            d="M263 69.556C263 63.726 267.726 59 273.556 59h16.888C296.274 59 301 63.726 301 69.556v16.888C301 92.274 296.274 97 290.444 97h-16.888C267.726 97 263 92.274 263 86.444V69.556Z"
            fill="#fff"
        />
        <mask id="o" style="mask-type: alpha" maskUnits="userSpaceOnUse" x="271" y="68" width="23" height="20">
            <path
                fill-rule="evenodd"
                clip-rule="evenodd"
                d="M271.469 87.5v-2.996h4.556c1.65 0 2.988-1.43 2.988-3.193 0-1.764-1.338-3.194-2.988-3.194h-4.556V68.5h21.935v19h-21.935Zm0-9.383h-.025v6.387h.025v-6.387Zm6.025 3.204a1.7 1.7 0 1 0-3.4 0 1.7 1.7 0 0 0 3.4 0Z"
                fill="#fff"
            />
        </mask>
        <g mask="url(#o)">
            <path
                d="M273.653 87.5a2.184 2.184 0 0 1-2.184-2.184V70.684c0-1.206.978-2.184 2.184-2.184h11.015a8.736 8.736 0 0 1 8.736 8.736v8.08a2.184 2.184 0 0 1-2.184 2.184h-17.567Z"
                fill="url(#p)"
            />
            <path
                d="M273.609 87.313a2.184 2.184 0 0 1-2.184-2.184V71.402h10.749a6.552 6.552 0 0 1 6.552 6.552v9.359h-15.117Z"
                fill="#6D4AFF"
            />
            <path
                d="M273.609 87.313a2.184 2.184 0 0 1-2.184-2.184V71.402h10.749a6.552 6.552 0 0 1 6.552 6.552v9.359h-15.117Z"
                fill="url(#q)"
                fill-opacity=".9"
            />
            <path d="m274.73 88.002 3.536-3.805-6.797.805v.673c0 1.285 1.1 2.327 2.457 2.327h.804Z" fill="#FFBB93" />
        </g>
    </g>
    <defs>
        <linearGradient id="c" x1="56.255" y1="82.476" x2="48.877" y2="56.845" gradientUnits="userSpaceOnUse">
            <stop stop-color="#E3D9FF" />
            <stop offset="1" stop-color="#7341FF" />
        </linearGradient>
        <linearGradient id="e" x1="77.115" y1="98.363" x2="60.256" y2="61.848" gradientUnits="userSpaceOnUse">
            <stop offset=".271" stop-color="#E3D9FF" />
            <stop offset="1" stop-color="#7341FF" />
        </linearGradient>
        <linearGradient id="f" x1="110.482" y1="80.814" x2="97.65" y2="62.171" gradientUnits="userSpaceOnUse">
            <stop stop-color="#BFE8FF" />
            <stop offset=".307" stop-color="#BFABFF" />
            <stop offset="1" stop-color="#7341FF" />
        </linearGradient>
        <linearGradient id="i" x1="135.71" y1="59.606" x2="162.866" y2="89.792" gradientUnits="userSpaceOnUse">
            <stop stop-color="#7341FF" />
            <stop offset=".359" stop-color="#B487FF" />
            <stop offset="1" stop-color="#FFC8FF" />
        </linearGradient>
        <linearGradient id="j" x1="199.894" y1="86.745" x2="185.738" y2="62.333" gradientUnits="userSpaceOnUse">
            <stop offset=".066" stop-color="#8EFFEE" />
            <stop offset=".45" stop-color="#C9C7FF" />
            <stop offset="1" stop-color="#7341FF" />
        </linearGradient>
        <linearGradient id="m" x1="229.882" y1="62.632" x2="234.16" y2="88.747" gradientUnits="userSpaceOnUse">
            <stop stop-color="#6D4AFF" />
            <stop offset=".392" stop-color="#B39FFB" stop-opacity=".978" />
            <stop offset="1" stop-color="#FFE8DB" stop-opacity=".8" />
        </linearGradient>
        <linearGradient id="p" x1="268.688" y1="70.711" x2="295.854" y2="81.293" gradientUnits="userSpaceOnUse">
            <stop stop-color="#957AFD" />
            <stop offset="1" stop-color="#FFC6C6" />
        </linearGradient>
        <linearGradient id="q" x1="287.748" y1="73.845" x2="279.315" y2="90.981" gradientUnits="userSpaceOnUse">
            <stop offset=".15" stop-color="#FA528E" stop-opacity="0" />
            <stop offset=".721" stop-color="#FF8065" />
            <stop offset="1" stop-color="#FFA51F" />
        </linearGradient>
        <radialGradient
            id="b"
            cx="0"
            cy="0"
            r="1"
            gradientUnits="userSpaceOnUse"
            gradientTransform="rotate(-141.834 206.742 23.93) scale(190.149 288.327)"
        >
            <stop stop-color="#FBACB9" />
            <stop offset=".25" stop-color="#E89B87" />
            <stop offset=".5" stop-color="#D49473" stop-opacity=".9" />
            <stop offset="1" stop-color="#D49473" stop-opacity="0" />
        </radialGradient>
        <radialGradient
            id="d"
            cx="0"
            cy="0"
            r="1"
            gradientUnits="userSpaceOnUse"
            gradientTransform="matrix(21.9907 0 0 20.624 66.775 74.553)"
        >
            <stop offset=".556" stop-color="#6D4AFF" />
            <stop offset=".994" stop-color="#AA8EFF" />
        </radialGradient>
        <radialGradient
            id="g"
            cx="0"
            cy="0"
            r="1"
            gradientUnits="userSpaceOnUse"
            gradientTransform="matrix(35.293 0 0 31.3883 108.625 59.748)"
        >
            <stop offset=".503" stop-color="#6D4AFF" />
            <stop offset=".994" stop-color="#06B8FF" />
        </radialGradient>
        <radialGradient
            id="h"
            cx="0"
            cy="0"
            r="1"
            gradientUnits="userSpaceOnUse"
            gradientTransform="matrix(33.721 0 0 35.6429 155.585 57.96)"
        >
            <stop offset=".556" stop-color="#6D4AFF" />
            <stop offset="1" stop-color="#FF50C3" />
        </radialGradient>
        <radialGradient
            id="k"
            cx="0"
            cy="0"
            r="1"
            gradientUnits="userSpaceOnUse"
            gradientTransform="rotate(93.755 64.151 121.264) scale(22.4617 28.9668)"
        >
            <stop offset=".403" stop-color="#6D4AFF" />
            <stop offset=".994" stop-color="#00F0C3" />
        </radialGradient>
        <radialGradient
            id="l"
            cx="0"
            cy="0"
            r="1"
            gradientUnits="userSpaceOnUse"
            gradientTransform="rotate(-58.142 195.752 -162.722) scale(18.3646 28.7185)"
        >
            <stop stop-color="#FFD580" />
            <stop offset=".094" stop-color="#F6C592" />
            <stop offset=".205" stop-color="#EBB6A2" />
            <stop offset=".324" stop-color="#DFA5AF" />
            <stop offset=".429" stop-color="#D397BE" />
            <stop offset=".534" stop-color="#C486CB" />
            <stop offset=".649" stop-color="#B578D9" />
            <stop offset=".771" stop-color="#A166E5" />
            <stop offset=".891" stop-color="#8B57F2" />
            <stop offset="1" stop-color="#704CFF" />
        </radialGradient>
        <radialGradient
            id="n"
            cx="0"
            cy="0"
            r="1"
            gradientUnits="userSpaceOnUse"
            gradientTransform="rotate(-58.142 192.934 -162.388) scale(14.7715 23.0997)"
        >
            <stop stop-color="#FFD580" />
            <stop offset=".094" stop-color="#F6C592" />
            <stop offset=".205" stop-color="#EBB6A2" />
            <stop offset=".324" stop-color="#DFA5AF" />
            <stop offset=".429" stop-color="#D397BE" />
            <stop offset=".534" stop-color="#C486CB" />
            <stop offset=".649" stop-color="#B578D9" />
            <stop offset=".771" stop-color="#A166E5" />
            <stop offset=".891" stop-color="#8B57F2" />
            <stop offset="1" stop-color="#704CFF" />
        </radialGradient>
        <clipPath id="a">
            <path fill="#fff" d="M0 0h344v156H0z" />
        </clipPath>
    </defs>
</svg>
