<svg width="27" height="28" viewBox="0 0 27 28" fill="none" xmlns="http://www.w3.org/2000/svg">
    <g clip-path="url(#clip0_101_456)">
        <path
            fill-rule="evenodd"
            clip-rule="evenodd"
            d="M0.248822 3.4861C-0.486266 2.20397 0.551581 0.631312 2.01948 0.802996L14.471 2.25932C15.7993 2.41467 16.5003 3.9129 15.7685 5.03218L9.48981 14.6348C8.79518 15.6972 7.22351 15.6512 6.59217 14.5501L0.248822 3.4861Z"
            fill="url(#paint0_linear_101_456)"
        />
        <path
            fill-rule="evenodd"
            clip-rule="evenodd"
            d="M0.248822 3.4861C-0.486266 2.20397 0.551581 0.631312 2.01948 0.802996L14.471 2.25932C15.7993 2.41467 16.5003 3.9129 15.7685 5.03218L9.48981 14.6348C8.79518 15.6972 7.22351 15.6512 6.59217 14.5501L0.248822 3.4861Z"
            fill="url(#paint1_linear_101_456)"
        />
        <path
            d="M0.188864 3.37296L10.4268 4.71564C11.4566 4.85069 11.986 6.02059 11.4077 6.88328L6.44291 14.2897L6.59217 14.5501C7.22351 15.6512 8.79518 15.6972 9.48981 14.6348L15.7685 5.03218C16.5003 3.9129 15.7993 2.41467 14.471 2.25932L2.01948 0.802996C0.594495 0.636332 -0.425216 2.11351 0.188864 3.37296Z"
            fill="url(#paint2_linear_101_456)"
        />
    </g>
    <g clip-path="url(#clip1_101_456)">
        <path
            d="M15.8113 14.0212C16.9275 12.9051 17.4855 12.347 18.1291 12.1379C18.6951 11.954 19.3049 11.954 19.8709 12.1379C20.5145 12.347 21.0725 12.9051 22.1887 14.0212L24.9788 16.8113C26.0949 17.9275 26.653 18.4855 26.8621 19.1291C27.046 19.6951 27.046 20.3049 26.8621 20.8709C26.653 21.5145 26.0949 22.0725 24.9788 23.1887L22.1887 25.9788C21.0725 27.0949 20.5145 27.653 19.8709 27.8621C19.3049 28.046 18.6951 28.046 18.1291 27.8621C17.4855 27.653 16.9275 27.0949 15.8113 25.9788L15.2868 25.3907C14.9693 25.0348 14.8106 24.8568 14.6974 24.6545C14.5971 24.475 14.5234 24.2818 14.4789 24.081C14.4286 23.8547 14.4286 23.6162 14.4286 23.1394L14.4286 16.8606C14.4286 16.3838 14.4286 16.1453 14.4789 15.919C14.5234 15.7182 14.5971 15.525 14.6974 15.3455C14.8106 15.1432 14.9693 14.9652 15.2868 14.6093L15.8113 14.0212Z"
            fill="url(#paint3_radial_101_456)"
        />
        <path
            d="M15.8113 14.0212C16.9275 12.9051 17.4855 12.347 18.1291 12.1379C18.6951 11.954 19.3049 11.954 19.8709 12.1379C20.5145 12.347 21.0725 12.9051 22.1887 14.0212L24.9788 16.8113C26.0949 17.9275 26.653 18.4855 26.8621 19.1291C27.046 19.6951 27.046 20.3049 26.8621 20.8709C26.653 21.5145 26.0949 22.0725 24.9788 23.1887L22.1887 25.9788C21.0725 27.0949 20.5145 27.653 19.8709 27.8621C19.3049 28.046 18.6951 28.046 18.1291 27.8621C17.4855 27.653 16.9275 27.0949 15.8113 25.9788L15.2868 25.3907C14.9693 25.0348 14.8106 24.8568 14.6974 24.6545C14.5971 24.475 14.5234 24.2818 14.4789 24.081C14.4286 23.8547 14.4286 23.6162 14.4286 23.1394L14.4286 16.8606C14.4286 16.3838 14.4286 16.1453 14.4789 15.919C14.5234 15.7182 14.5971 15.525 14.6974 15.3455C14.8106 15.1432 14.9693 14.9652 15.2868 14.6093L15.8113 14.0212Z"
            fill="url(#paint4_linear_101_456)"
        />
        <path
            d="M15.612 14.2204C16.1701 13.6623 16.4491 13.3833 16.7709 13.2787C17.0539 13.1868 17.3588 13.1868 17.6418 13.2787C17.9636 13.3833 18.2426 13.6623 18.8007 14.2204L22.9858 18.4055C23.5439 18.9636 23.8229 19.2426 23.9275 19.5644C24.0195 19.8474 24.0195 20.1523 23.9275 20.4353C23.8229 20.7571 23.5439 21.0361 22.9858 21.5942L18.8007 25.7793C18.2426 26.3374 17.9636 26.6164 17.6418 26.721C17.3588 26.8129 17.0539 26.8129 16.7709 26.721C16.4491 26.6164 16.1701 26.3374 15.612 25.7793L13.0212 23.1885C11.9051 22.0724 11.347 21.5143 11.1379 20.8708C10.954 20.3047 10.954 19.695 11.1379 19.1289C11.347 18.4854 11.9051 17.9273 13.0212 16.8112L15.612 14.2204Z"
            fill="url(#paint5_radial_101_456)"
        />
    </g>
    <defs>
        <linearGradient
            id="paint0_linear_101_456"
            x1="8.8291"
            y1="-8.06745"
            x2="9.37238"
            y2="10.4558"
            gradientUnits="userSpaceOnUse"
        >
            <stop offset="0.988738" stop-color="#6D4AFF" />
        </linearGradient>
        <linearGradient
            id="paint1_linear_101_456"
            x1="8.9359"
            y1="-5.50318"
            x2="4.42005"
            y2="13.9951"
            gradientUnits="userSpaceOnUse"
        >
            <stop offset="0.47989" stop-color="#24ECC6" stop-opacity="0" />
            <stop offset="0.994421" stop-color="#24ECC6" />
        </linearGradient>
        <linearGradient
            id="paint2_linear_101_456"
            x1="10.4376"
            y1="16.1252"
            x2="0.413513"
            y2="-1.0658"
            gradientUnits="userSpaceOnUse"
        >
            <stop offset="0.0660125" stop-color="#ABFFEF" />
            <stop offset="0.44988" stop-color="#CAC9FF" />
            <stop offset="1" stop-color="#6D4AFF" />
        </linearGradient>
        <radialGradient
            id="paint3_radial_101_456"
            cx="0"
            cy="0"
            r="1"
            gradientUnits="userSpaceOnUse"
            gradientTransform="translate(15.8288 28.3118) rotate(-58.142) scale(13.3561 20.8862)"
        >
            <stop stop-color="#FFD580" />
            <stop offset="0.09375" stop-color="#F6C592" />
            <stop offset="0.205" stop-color="#EBB6A2" />
            <stop offset="0.324466" stop-color="#DFA5AF" />
            <stop offset="0.42875" stop-color="#D397BE" />
            <stop offset="0.53375" stop-color="#C486CB" />
            <stop offset="0.64875" stop-color="#B578D9" />
            <stop offset="0.77125" stop-color="#A166E5" />
            <stop offset="0.89125" stop-color="#8B57F2" />
            <stop offset="1" stop-color="#704CFF" />
        </radialGradient>
        <linearGradient
            id="paint4_linear_101_456"
            x1="15.2777"
            y1="8.82303"
            x2="18.3893"
            y2="27.8163"
            gradientUnits="userSpaceOnUse"
        >
            <stop stop-color="#6D4AFF" />
            <stop offset="0.392009" stop-color="#B39FFB" stop-opacity="0.978022" />
            <stop offset="1" stop-color="#FFE8DB" stop-opacity="0.8" />
        </linearGradient>
        <radialGradient
            id="paint5_radial_101_456"
            cx="0"
            cy="0"
            r="1"
            gradientUnits="userSpaceOnUse"
            gradientTransform="translate(14.6556 26.6854) rotate(-58.142) scale(10.7429 16.7998)"
        >
            <stop stop-color="#FFD580" />
            <stop offset="0.09375" stop-color="#F6C592" />
            <stop offset="0.205" stop-color="#EBB6A2" />
            <stop offset="0.324466" stop-color="#DFA5AF" />
            <stop offset="0.42875" stop-color="#D397BE" />
            <stop offset="0.53375" stop-color="#C486CB" />
            <stop offset="0.64875" stop-color="#B578D9" />
            <stop offset="0.77125" stop-color="#A166E5" />
            <stop offset="0.89125" stop-color="#8B57F2" />
            <stop offset="1" stop-color="#704CFF" />
        </radialGradient>
        <clipPath id="clip0_101_456">
            <rect width="16" height="16" fill="white" />
        </clipPath>
        <clipPath id="clip1_101_456">
            <rect width="16" height="16" fill="white" transform="translate(11 12)" />
        </clipPath>
    </defs>
</svg>
