<svg width="24" height="24" viewBox="0 0 24 24" fill="none" xmlns="http://www.w3.org/2000/svg">
    <rect width="24" height="24" rx="8" fill="#0B5CFF" />
    <mask
        id="mask0_37807_13616"
        style="mask-type: luminance"
        maskUnits="userSpaceOnUse"
        x="4"
        y="4"
        width="16"
        height="16"
    >
        <path d="M19.7142 4.28564H4.28564V19.7142H19.7142V4.28564Z" fill="white" />
    </mask>
    <g mask="url(#mask0_37807_13616)">
        <path
            d="M14.571 15.0001C14.571 15.7101 13.9954 16.2858 13.2853 16.2858H7.71388C6.29372 16.2858 5.14246 15.1346 5.14246 13.7144V9.00007C5.14246 8.29001 5.71809 7.71436 6.42817 7.71436H11.9996C13.4198 7.71436 14.571 8.86558 14.571 10.2858V15.0001ZM17.8282 8.4857L15.9425 9.89998C15.6187 10.1428 15.4282 10.5239 15.4282 10.9286V13.0714C15.4282 13.4762 15.6187 13.8572 15.9425 14.1L17.8282 15.5143C18.2519 15.8321 18.8567 15.5298 18.8567 15V8.99998C18.8567 8.47027 18.2519 8.16787 17.8282 8.4857Z"
            fill="white"
        />
    </g>
</svg>
