<svg width="152" height="100" viewBox="0 0 152 100" fill="none" xmlns="http://www.w3.org/2000/svg">
    <g clip-path="url(#clip0_12867_62723)">
        <path
            fill-rule="evenodd"
            clip-rule="evenodd"
            d="M50.5089 20.0002H101.491C105.638 20.0002 109 23.4042 109 27.6033V92.3972C109 96.5963 105.638 100 101.491 100H50.5089C46.3618 100 43 96.5963 43 92.3972V27.6033C43 23.4042 46.3618 20.0002 50.5089 20.0002ZM69 27.0002H83C83.5774 27.0002 84 26.595 84 26.0002C84 25.4054 83.5774 25.0002 83 25.0002H69C68.4226 25.0002 68 25.5002 68 26.0002C68 26.5002 68.4226 27.0002 69 27.0002Z"
            fill="#F5F4F2"
        />
        <mask
            id="mask0_12867_62723"
            style="mask-type: alpha"
            maskUnits="userSpaceOnUse"
            x="43"
            y="20"
            width="66"
            height="80"
        >
            <path
                fill-rule="evenodd"
                clip-rule="evenodd"
                d="M50.5089 20H101.491C105.638 20 109 23.404 109 27.603V92.397C109 96.596 105.638 100 101.491 100H50.5089C46.3618 100 43 96.596 43 92.397V27.603C43 23.404 46.3618 20 50.5089 20ZM69 27.0137H83C83.5774 27.0137 84 26.6085 84 26.0137C84 25.4189 83.5774 25.0137 83 25.0137H69C68.4226 25.0137 68 25.4189 68 26.0137C68 26.6085 68.4226 27.0137 69 27.0137Z"
                fill="#F5F4F2"
            />
        </mask>
        <g mask="url(#mask0_12867_62723)">
            <g opacity="0.25" filter="url(#filter0_f_12867_62723)">
                <path
                    d="M96.9922 6.49805L119.325 22.1278V59.0405L116.868 57.6133C104.564 50.4682 96.9922 37.3153 96.9922 23.0873V6.49805Z"
                    fill="#221548"
                />
            </g>
        </g>
        <path
            d="M51 84.8865C51 83.2923 52.2923 82 53.8865 82H98.1135C99.7077 82 101 83.2923 101 84.8865V89.1135C101 90.7077 99.7077 92 98.1135 92H53.8865C52.2923 92 51 90.7077 51 89.1135V84.8865Z"
            fill="white"
        />
        <path
            d="M68 26C68 25.4477 68.4477 25 69 25H83C83.5523 25 84 25.4477 84 26C84 26.5523 83.5523 27 83 27H69C68.4477 27 68 26.5523 68 26Z"
            fill="#E4E4E4"
        />
        <circle cx="60.5264" cy="87" r="1" fill="#140D4B" />
        <circle cx="73.123" cy="87" r="1" fill="#140D4B" />
        <circle cx="85.7207" cy="87" r="1" fill="#140D4B" />
        <circle cx="66.8242" cy="87" r="1" fill="#140D4B" />
        <circle cx="79.4219" cy="87" r="1" fill="#140D4B" />
        <circle cx="92.0186" cy="87" r="1" fill="#140D4B" />
        <path
            d="M76 65.5583C84.8366 65.5583 92 58.4938 92 49.7792C92 41.0646 84.8366 34 76 34C67.1634 34 60 41.0646 60 49.7792C60 58.4938 67.1634 65.5583 76 65.5583Z"
            fill="url(#paint0_linear_12867_62723)"
        />
        <path
            d="M76.19 53.1232C79.5612 53.1232 82.294 50.3942 82.294 47.0279C82.294 43.6616 79.5612 40.9326 76.19 40.9326C72.8188 40.9326 70.0859 43.6616 70.0859 47.0279C70.0859 50.3942 72.8188 53.1232 76.19 53.1232Z"
            fill="#F5F4F2"
        />
        <path
            d="M76.1902 65.9997C80.6919 65.9997 84.7359 64.1711 87.6353 61.1996C84.9648 57.8091 80.8445 55.6758 76.1902 55.6758C71.5359 55.6758 67.4156 57.8472 64.7451 61.1996C67.6445 64.133 71.6885 65.9997 76.1902 65.9997Z"
            fill="#F5F4F2"
        />
        <path
            d="M57 74.0002C57 72.8957 57.8954 72.0002 59 72.0002H93C94.1046 72.0002 95 72.8957 95 74.0002C95 75.1048 94.1046 76.0002 93 76.0002H59C57.8954 76.0002 57 75.1048 57 74.0002Z"
            fill="#D1CFCD"
        />
        <path
            d="M0 61C0 50.5066 8.50659 42 19 42C29.4934 42 38 50.5066 38 61V80H19C8.50659 80 0 71.4934 0 61Z"
            fill="url(#paint1_linear_12867_62723)"
        />
        <path
            fill-rule="evenodd"
            clip-rule="evenodd"
            d="M23.9455 55.2756V57.1182H25.8177C26.4581 57.1182 27 57.6142 27 58.252V67.8661C27 68.4803 26.4828 69 25.8177 69H13.1823C12.5419 69 12 68.5039 12 67.8661V58.252C12 57.6379 12.5172 57.1182 13.1823 57.1182H15.0293V55.2756C15.0293 52.9134 17.0244 51 19.4874 51C21.9505 51 23.9455 52.9134 23.9455 55.2756ZM22.0683 55.2756V57.1182H16.9558V55.2756C16.9558 53.5748 18.3101 52.824 19.512 52.824C20.714 52.824 22.0683 53.5748 22.0683 55.2756ZM19.5 60C20.3333 60 21 60.6696 21 61.5065C21 62.0804 20.6905 62.5826 20.2143 62.8217L20.8333 65.5H18.1667L18.7857 62.8217C18.3095 62.5587 18 62.0804 18 61.5065C18 60.6696 18.6667 60 19.5 60Z"
            fill="white"
        />
        <path
            d="M149.956 7.44773L127.859 0.440761C125.998 -0.14692 124.002 -0.14692 122.141 0.440761L100.044 7.44773C98.9092 7.80938 98.0924 8.84912 98.0471 10.0697C97.7294 18.5233 98.2739 51.2978 124.546 59.9322C124.864 60.0226 125.181 60.0226 125.454 59.9322C151.726 51.2978 152.271 18.5233 151.953 10.0697C151.908 8.84912 151.091 7.80938 149.956 7.44773Z"
            fill="url(#paint2_linear_12867_62723)"
        />
        <path
            d="M125.46 40C132.087 40 137.46 34.6274 137.46 28C137.46 21.3726 132.087 16 125.46 16C118.833 16 113.46 21.3726 113.46 28C113.46 34.6274 118.833 40 125.46 40Z"
            fill="white"
        />
        <path
            fill-rule="evenodd"
            clip-rule="evenodd"
            d="M131.221 24.2536C131.54 24.5917 131.54 25.1398 131.221 25.4779L124.363 32.7464C124.044 33.0845 123.527 33.0845 123.208 32.7464L119.699 29.0271C119.38 28.6891 119.38 28.1409 119.699 27.8028C120.018 27.4647 120.535 27.4647 120.854 27.8028L123.786 30.91L130.066 24.2536C130.385 23.9155 130.902 23.9155 131.221 24.2536Z"
            fill="#372580"
        />
    </g>
    <defs>
        <filter
            id="filter0_f_12867_62723"
            x="85.6799"
            y="-4.81421"
            width="44.9575"
            height="75.167"
            filterUnits="userSpaceOnUse"
            color-interpolation-filters="sRGB"
        >
            <feFlood flood-opacity="0" result="BackgroundImageFix" />
            <feBlend mode="normal" in="SourceGraphic" in2="BackgroundImageFix" result="shape" />
            <feGaussianBlur stdDeviation="5.65613" result="effect1_foregroundBlur_12867_62723" />
        </filter>
        <linearGradient
            id="paint0_linear_12867_62723"
            x1="77.5385"
            y1="23.3794"
            x2="86.2277"
            y2="63.7879"
            gradientUnits="userSpaceOnUse"
        >
            <stop stop-color="#ECAAFF" />
            <stop offset="1" stop-color="#6A48F6" />
        </linearGradient>
        <linearGradient
            id="paint1_linear_12867_62723"
            x1="23.0714"
            y1="42"
            x2="3.28846"
            y2="85.4808"
            gradientUnits="userSpaceOnUse"
        >
            <stop stop-color="#FFD66C" />
            <stop offset="1" stop-color="#FF8E4F" />
        </linearGradient>
        <linearGradient
            id="paint2_linear_12867_62723"
            x1="127.799"
            y1="-4.375"
            x2="128.11"
            y2="60"
            gradientUnits="userSpaceOnUse"
        >
            <stop stop-color="#2AF091" />
            <stop offset="1" stop-color="#00C5A1" />
        </linearGradient>
        <clipPath id="clip0_12867_62723">
            <rect width="152" height="100" fill="white" />
        </clipPath>
    </defs>
</svg>
