<svg width="300" height="190" viewBox="0 0 300 190" fill="none" xmlns="http://www.w3.org/2000/svg">
    <g clip-path="url(#clip0_14562_45129)">
        <path
            d="M0 5C0 2.23858 2.23858 0 5 0H295C297.761 0 300 2.23858 300 5V185C300 187.761 297.761 190 295 190H5C2.23857 190 0 187.761 0 185V5Z"
            fill="#302D45"
        />
        <path
            d="M0 5C0 2.23858 2.23858 0 5 0H295C297.761 0 300 2.23858 300 5V185C300 187.761 297.761 190 295 190H5C2.23857 190 0 187.761 0 185V5Z"
            fill="url(#paint0_linear_14562_45129)"
            fill-opacity="0.2"
        />
        <rect width="300" height="22.1082" fill="#202124" />
        <circle cx="5.59707" cy="5.87832" r="1.6791" fill="#FF5F57" />
        <circle cx="11.1938" cy="5.87832" r="1.6791" fill="#FFBD2E" />
        <circle cx="16.7914" cy="5.87832" r="1.6791" fill="#1DC035" />
        <rect y="11.7539" width="300" height="10.0746" fill="#35363A" />
        <rect opacity="0.6" y="21.8281" width="300" height="0.279851" fill="#606164" />
        <rect x="23.7871" y="2.51953" width="68.8433" height="16.791" rx="2.51866" fill="#35363A" />
        <rect x="26.3057" y="12.875" width="241.231" height="7.83582" rx="3.91791" fill="#202124" />
        <rect x="270.336" y="12.875" width="7.83582" height="7.83582" rx="3.91791" fill="#1D1D1D" />
        <g clip-path="url(#clip1_14562_45129)">
            <path
                d="M273.362 15.1164C273.674 14.8041 273.83 14.6479 274.01 14.5894C274.169 14.5379 274.339 14.5379 274.498 14.5894C274.678 14.6479 274.834 14.8041 275.146 15.1164L275.927 15.8972C276.239 16.2096 276.396 16.3658 276.454 16.5459C276.506 16.7043 276.506 16.8749 276.454 17.0333C276.396 17.2134 276.239 17.3696 275.927 17.6819L275.146 18.4627C274.834 18.7751 274.678 18.9313 274.498 18.9898C274.339 19.0413 274.169 19.0413 274.01 18.9898C273.83 18.9313 273.674 18.7751 273.362 18.4627L273.215 18.2982C273.126 18.1986 273.082 18.1488 273.05 18.0921C273.022 18.0419 273.001 17.9879 272.989 17.9317C272.975 17.8683 272.975 17.8016 272.975 17.6681L272.975 15.911C272.975 15.7776 272.975 15.7109 272.989 15.6475C273.001 15.5913 273.022 15.5373 273.05 15.487C273.082 15.4304 273.126 15.3806 273.215 15.281L273.362 15.1164Z"
                fill="url(#paint1_radial_14562_45129)"
            />
            <path
                d="M273.362 15.1164C273.674 14.8041 273.83 14.6479 274.01 14.5894C274.169 14.5379 274.339 14.5379 274.498 14.5894C274.678 14.6479 274.834 14.8041 275.146 15.1164L275.927 15.8972C276.239 16.2096 276.396 16.3658 276.454 16.5459C276.506 16.7043 276.506 16.8749 276.454 17.0333C276.396 17.2134 276.239 17.3696 275.927 17.6819L275.146 18.4627C274.834 18.7751 274.678 18.9313 274.498 18.9898C274.339 19.0413 274.169 19.0413 274.01 18.9898C273.83 18.9313 273.674 18.7751 273.362 18.4627L273.215 18.2982C273.126 18.1986 273.082 18.1488 273.05 18.0921C273.022 18.0419 273.001 17.9879 272.989 17.9317C272.975 17.8683 272.975 17.8016 272.975 17.6681L272.975 15.911C272.975 15.7776 272.975 15.7109 272.989 15.6475C273.001 15.5913 273.022 15.5373 273.05 15.487C273.082 15.4304 273.126 15.3806 273.215 15.281L273.362 15.1164Z"
                fill="url(#paint2_linear_14562_45129)"
            />
            <path
                d="M273.306 15.1734C273.462 15.0173 273.54 14.9392 273.63 14.9099C273.709 14.8842 273.795 14.8842 273.874 14.9099C273.964 14.9392 274.042 15.0173 274.198 15.1734L275.369 16.3447C275.526 16.5008 275.604 16.5789 275.633 16.669C275.659 16.7482 275.659 16.8335 275.633 16.9127C275.604 17.0027 275.526 17.0808 275.369 17.237L274.198 18.4082C274.042 18.5644 273.964 18.6425 273.874 18.6717C273.795 18.6975 273.709 18.6975 273.63 18.6717C273.54 18.6425 273.462 18.5644 273.306 18.4082L272.581 17.6832C272.268 17.3708 272.112 17.2147 272.054 17.0346C272.002 16.8762 272.002 16.7055 272.054 16.5471C272.112 16.367 272.268 16.2108 272.581 15.8985L273.306 15.1734Z"
                fill="url(#paint3_radial_14562_45129)"
            />
        </g>
        <g clip-path="url(#clip2_14562_45129)">
            <rect x="193" y="27.1094" width="100" height="68.3544" rx="1.26582" fill="#1F1F31" />
            <rect width="42.509" height="85.9626" transform="translate(195.703 27.1094)" fill="#1F1F31" />
            <rect width="42.509" height="85.9626" transform="translate(195.703 27.1094)" fill="#1F1F31" />
            <rect width="54.7893" height="85.9626" transform="translate(238.212 27.1094)" fill="#1F1F31" />
            <rect x="277.885" y="29.9375" width="12.2804" height="4.72322" rx="2.36161" fill="#B6B6FF" />
            <g opacity="0.2">
                <rect x="242.463" y="37.0312" width="13.225" height="3.77858" rx="1.88929" fill="white" />
                <g clip-path="url(#clip3_14562_45129)">
                    <rect width="46.7599" height="5.66786" transform="translate(242.463 47.4219)" fill="#1C1C2C" />
                    <rect x="242.463" y="47.4219" width="10.3911" height="1.88929" rx="0.944644" fill="#BFB9D8" />
                    <rect x="242.463" y="51.1992" width="23.1438" height="1.88929" rx="0.944644" fill="white" />
                </g>
                <g clip-path="url(#clip4_14562_45129)">
                    <rect width="46.7599" height="5.66786" transform="translate(242.463 58.7578)" fill="#1C1C2C" />
                    <rect x="242.463" y="58.7578" width="8.5018" height="1.88929" rx="0.944644" fill="#BFB9D8" />
                    <rect x="242.463" y="62.5352" width="18.4206" height="1.88929" rx="0.944644" fill="white" />
                </g>
                <g clip-path="url(#clip5_14562_45129)">
                    <rect width="46.7599" height="5.66786" transform="translate(242.463 70.0938)" fill="#1C1C2C" />
                    <rect x="242.463" y="70.0938" width="13.225" height="1.88929" rx="0.944644" fill="#BFB9D8" />
                    <rect x="242.463" y="73.8711" width="23.1438" height="1.88929" rx="0.944644" fill="white" />
                </g>
                <g clip-path="url(#clip6_14562_45129)">
                    <rect width="46.7599" height="5.66786" transform="translate(242.463 81.4297)" fill="#1C1C2C" />
                    <rect x="242.463" y="81.4297" width="8.5018" height="1.88929" rx="0.944644" fill="#BFB9D8" />
                    <rect x="242.463" y="85.207" width="13.6973" height="1.88929" rx="0.944644" fill="white" />
                </g>
            </g>
            <rect x="199.952" y="37.9727" width="5.66786" height="5.66786" rx="1.41697" fill="#26333D" />
            <g opacity="0.2" clip-path="url(#clip7_14562_45129)">
                <rect width="26.45" height="5.66786" transform="translate(208.454 37.9727)" fill="#1C1C2C" />
                <rect x="208.454" y="37.9727" width="8.97412" height="1.88929" rx="0.944644" fill="white" />
                <rect x="208.454" y="41.75" width="17.9482" height="1.88929" rx="0.944644" fill="#BFB9D8" />
            </g>
            <rect opacity="0.3" x="199.952" y="48.3633" width="5.66786" height="5.66786" rx="1.41697" fill="#BFB9D8" />
            <g opacity="0.2" clip-path="url(#clip8_14562_45129)">
                <rect width="26.45" height="5.66786" transform="translate(208.454 48.3633)" fill="#1C1C2C" />
                <rect x="208.454" y="48.3633" width="13.6973" height="1.88929" rx="0.944644" fill="white" />
                <rect x="208.454" y="52.1406" width="23.1438" height="1.88929" rx="0.944644" fill="#BFB9D8" />
            </g>
            <rect x="199.952" y="58.7539" width="5.66786" height="5.66786" rx="1.41697" fill="#3E3537" />
            <g opacity="0.2" clip-path="url(#clip9_14562_45129)">
                <rect width="26.45" height="5.66786" transform="translate(208.454 58.7539)" fill="#1C1C2C" />
                <rect x="208.454" y="58.7539" width="10.8634" height="1.88929" rx="0.944644" fill="white" />
                <rect x="208.454" y="62.5312" width="21.2545" height="1.88929" rx="0.944644" fill="#BFB9D8" />
            </g>
            <rect x="199.952" y="69.1445" width="5.66786" height="5.66786" rx="1.41697" fill="#30284A" />
            <g opacity="0.2" clip-path="url(#clip10_14562_45129)">
                <rect width="26.45" height="5.66786" transform="translate(208.454 69.1445)" fill="#1C1C2C" />
                <rect x="208.454" y="69.1445" width="14.1697" height="1.88929" rx="0.944644" fill="white" />
                <rect x="208.454" y="72.9219" width="20.3098" height="1.88929" rx="0.944644" fill="#BFB9D8" />
            </g>
            <rect opacity="0.3" x="199.952" y="79.5352" width="5.66786" height="5.66786" rx="1.41697" fill="#BFB9D8" />
            <g opacity="0.2" clip-path="url(#clip11_14562_45129)">
                <rect width="26.45" height="5.66786" transform="translate(208.454 79.5352)" fill="#1C1C2C" />
                <rect x="208.454" y="79.5352" width="8.02947" height="1.88929" rx="0.944644" fill="white" />
                <rect x="208.454" y="83.3125" width="17.9482" height="1.88929" rx="0.944644" fill="#BFB9D8" />
            </g>
            <rect opacity="0.3" x="199.952" y="89.9297" width="5.66786" height="5.66786" rx="1.41697" fill="#BFB9D8" />
            <g opacity="0.2" clip-path="url(#clip12_14562_45129)">
                <rect width="26.45" height="5.66786" transform="translate(208.454 89.9297)" fill="#1C1C2C" />
                <rect x="208.454" y="89.9297" width="10.8634" height="1.88929" rx="0.944644" fill="white" />
                <rect x="208.454" y="93.707" width="21.2545" height="1.88929" rx="0.944644" fill="#BFB9D8" />
            </g>
            <rect x="199.479" y="29.9375" width="75.0992" height="4.72322" rx="2.36161" fill="#191926" />
        </g>
        <rect
            x="192.367"
            y="26.4765"
            width="101.266"
            height="69.6203"
            rx="1.89873"
            stroke="#38384C"
            stroke-width="1.26582"
        />
        <rect x="27" y="124" width="93" height="12" fill="#CAAAFF" />
        <rect opacity="0.3" x="27" y="67.1094" width="28" height="4" rx="2" fill="#BFB9D8" />
        <rect x="27" y="75.1094" width="93" height="12" fill="white" />
        <g clip-path="url(#clip13_14562_45129)">
            <path
                d="M113.007 78.0776C113.46 77.6249 113.686 77.3986 113.947 77.3138C114.177 77.2392 114.424 77.2392 114.654 77.3138C114.915 77.3986 115.141 77.6249 115.594 78.0776L116.725 79.2092C117.178 79.6619 117.404 79.8882 117.489 80.1492C117.564 80.3788 117.564 80.6261 117.489 80.8557C117.404 81.1167 117.178 81.343 116.725 81.7957L115.594 82.9273C115.141 83.38 114.915 83.6063 114.654 83.6911C114.424 83.7657 114.177 83.7657 113.947 83.6911C113.686 83.6063 113.46 83.38 113.007 82.9273L112.794 82.6888C112.666 82.5444 112.601 82.4722 112.555 82.3902C112.515 82.3174 112.485 82.239 112.467 82.1576C112.446 82.0658 112.446 81.9691 112.446 81.7757L112.446 79.2292C112.446 79.0358 112.446 78.9391 112.467 78.8473C112.485 78.7658 112.515 78.6875 112.555 78.6147C112.601 78.5326 112.666 78.4604 112.794 78.3161L113.007 78.0776Z"
                fill="url(#paint4_radial_14562_45129)"
            />
            <path
                d="M113.007 78.0776C113.46 77.6249 113.686 77.3986 113.947 77.3138C114.177 77.2392 114.424 77.2392 114.654 77.3138C114.915 77.3986 115.141 77.6249 115.594 78.0776L116.725 79.2092C117.178 79.6619 117.404 79.8882 117.489 80.1492C117.564 80.3788 117.564 80.6261 117.489 80.8557C117.404 81.1167 117.178 81.343 116.725 81.7957L115.594 82.9273C115.141 83.38 114.915 83.6063 114.654 83.6911C114.424 83.7657 114.177 83.7657 113.947 83.6911C113.686 83.6063 113.46 83.38 113.007 82.9273L112.794 82.6888C112.666 82.5444 112.601 82.4722 112.555 82.3902C112.515 82.3174 112.485 82.239 112.467 82.1576C112.446 82.0658 112.446 81.9691 112.446 81.7757L112.446 79.2292C112.446 79.0358 112.446 78.9391 112.467 78.8473C112.485 78.7658 112.515 78.6875 112.555 78.6147C112.601 78.5326 112.666 78.4604 112.794 78.3161L113.007 78.0776Z"
                fill="url(#paint5_linear_14562_45129)"
            />
            <path
                d="M112.926 78.1599C113.153 77.9335 113.266 77.8204 113.396 77.778C113.511 77.7407 113.635 77.7407 113.749 77.778C113.88 77.8204 113.993 77.9335 114.219 78.1599L115.917 79.8573C116.143 80.0836 116.256 80.1968 116.299 80.3273C116.336 80.4421 116.336 80.5657 116.299 80.6805C116.256 80.811 116.143 80.9242 115.917 81.1505L114.219 82.8479C113.993 83.0743 113.88 83.1874 113.749 83.2298C113.635 83.2671 113.511 83.2671 113.396 83.2298C113.266 83.1874 113.153 83.0743 112.926 82.8479L111.875 81.7972C111.423 81.3445 111.196 81.1181 111.112 80.8571C111.037 80.6276 111.037 80.3802 111.112 80.1507C111.196 79.8897 111.423 79.6633 111.875 79.2107L112.926 78.1599Z"
                fill="url(#paint6_radial_14562_45129)"
            />
        </g>
        <rect opacity="0.3" x="27" y="93.1094" width="23" height="4" rx="2" fill="#BFB9D8" />
        <rect x="27" y="101.109" width="93" height="12" fill="white" />
        <rect x="61.7842" y="83.2656" width="65.2161" height="23.1884" rx="4.34778" fill="#191926" />
        <g clip-path="url(#clip14_14562_45129)">
            <path
                d="M71.0674 90.5272C71.8762 89.7184 72.2806 89.314 72.7469 89.1625C73.1571 89.0292 73.5989 89.0292 74.0091 89.1625C74.4754 89.314 74.8798 89.7184 75.6886 90.5272L77.7104 92.5489C78.5192 93.3577 78.9236 93.7621 79.0751 94.2284C79.2084 94.6386 79.2084 95.0805 79.0751 95.4907C78.9236 95.957 78.5192 96.3614 77.7104 97.1702L75.6886 99.1919C74.8798 100.001 74.4754 100.405 74.0091 100.557C73.5989 100.69 73.1571 100.69 72.7469 100.557C72.2806 100.405 71.8762 100.001 71.0674 99.1919L70.6873 98.7658C70.4573 98.5079 70.3422 98.379 70.2602 98.2323C70.1875 98.1022 70.1342 97.9623 70.1019 97.8168C70.0654 97.6528 70.0654 97.48 70.0654 97.1344L70.0654 92.5847C70.0654 92.2391 70.0654 92.0663 70.1019 91.9023C70.1342 91.7568 70.1875 91.6168 70.2602 91.4868C70.3422 91.3401 70.4573 91.2112 70.6873 90.9533L71.0674 90.5272Z"
                fill="url(#paint7_radial_14562_45129)"
            />
            <path
                d="M71.0674 90.5272C71.8762 89.7184 72.2806 89.314 72.7469 89.1625C73.1571 89.0292 73.5989 89.0292 74.0091 89.1625C74.4754 89.314 74.8798 89.7184 75.6886 90.5272L77.7104 92.5489C78.5192 93.3577 78.9236 93.7621 79.0751 94.2284C79.2084 94.6386 79.2084 95.0805 79.0751 95.4907C78.9236 95.957 78.5192 96.3614 77.7104 97.1702L75.6886 99.1919C74.8798 100.001 74.4754 100.405 74.0091 100.557C73.5989 100.69 73.1571 100.69 72.7469 100.557C72.2806 100.405 71.8762 100.001 71.0674 99.1919L70.6873 98.7658C70.4573 98.5079 70.3422 98.379 70.2602 98.2323C70.1875 98.1022 70.1342 97.9623 70.1019 97.8168C70.0654 97.6528 70.0654 97.48 70.0654 97.1344L70.0654 92.5847C70.0654 92.2391 70.0654 92.0663 70.1019 91.9023C70.1342 91.7568 70.1875 91.6168 70.2602 91.4868C70.3422 91.3401 70.4573 91.2112 70.6873 90.9533L71.0674 90.5272Z"
                fill="url(#paint8_linear_14562_45129)"
            />
            <path
                d="M70.9231 90.6737C71.3275 90.2693 71.5297 90.0671 71.7628 89.9914C71.9679 89.9247 72.1888 89.9247 72.3939 89.9914C72.6271 90.0671 72.8293 90.2693 73.2337 90.6737L76.2664 93.7064C76.6708 94.1108 76.873 94.313 76.9487 94.5462C77.0153 94.7512 77.0153 94.9722 76.9487 95.1773C76.873 95.4104 76.6708 95.6126 76.2664 96.017L73.2337 99.0497C72.8293 99.4541 72.6271 99.6563 72.3939 99.732C72.1888 99.7987 71.9679 99.7987 71.7628 99.732C71.5297 99.6563 71.3275 99.4541 70.9231 99.0497L69.0457 97.1723C68.2369 96.3635 67.8325 95.9591 67.681 95.4928C67.5477 95.0826 67.5477 94.6408 67.681 94.2306C67.8325 93.7643 68.2369 93.3599 69.0457 92.5511L70.9231 90.6737Z"
                fill="url(#paint9_radial_14562_45129)"
            />
        </g>
        <rect opacity="0.4" x="84.9727" y="89.4102" width="19" height="4" rx="2" fill="#BFB9D8" />
        <rect opacity="0.5" x="84.9727" y="96.3086" width="36" height="4" rx="2" fill="white" />
    </g>
    <path
        d="M0.5 5C0.5 2.51472 2.51472 0.5 5 0.5H295C297.485 0.5 299.5 2.51472 299.5 5V185C299.5 187.485 297.485 189.5 295 189.5H5C2.51471 189.5 0.5 187.485 0.5 185V5Z"
        stroke="#38384C"
    />
    <defs>
        <linearGradient id="paint0_linear_14562_45129" x1="150" y1="0" x2="150" y2="190" gradientUnits="userSpaceOnUse">
            <stop stop-opacity="0" />
            <stop offset="1" />
        </linearGradient>
        <radialGradient
            id="paint1_radial_14562_45129"
            cx="0"
            cy="0"
            r="1"
            gradientUnits="userSpaceOnUse"
            gradientTransform="translate(273.366 19.1157) rotate(-58.142) scale(3.73771 5.84501)"
        >
            <stop stop-color="#FFD580" />
            <stop offset="0.09375" stop-color="#F6C592" />
            <stop offset="0.205" stop-color="#EBB6A2" />
            <stop offset="0.324466" stop-color="#DFA5AF" />
            <stop offset="0.42875" stop-color="#D397BE" />
            <stop offset="0.53375" stop-color="#C486CB" />
            <stop offset="0.64875" stop-color="#B578D9" />
            <stop offset="0.77125" stop-color="#A166E5" />
            <stop offset="0.89125" stop-color="#8B57F2" />
            <stop offset="1" stop-color="#704CFF" />
        </radialGradient>
        <linearGradient
            id="paint2_linear_14562_45129"
            x1="273.212"
            y1="13.6617"
            x2="274.083"
            y2="18.977"
            gradientUnits="userSpaceOnUse"
        >
            <stop stop-color="#6D4AFF" />
            <stop offset="0.392009" stop-color="#B39FFB" stop-opacity="0.978022" />
            <stop offset="1" stop-color="#FFE8DB" stop-opacity="0.8" />
        </linearGradient>
        <radialGradient
            id="paint3_radial_14562_45129"
            cx="0"
            cy="0"
            r="1"
            gradientUnits="userSpaceOnUse"
            gradientTransform="translate(273.038 18.6618) rotate(-58.142) scale(3.00642 4.70142)"
        >
            <stop stop-color="#FFD580" />
            <stop offset="0.09375" stop-color="#F6C592" />
            <stop offset="0.205" stop-color="#EBB6A2" />
            <stop offset="0.324466" stop-color="#DFA5AF" />
            <stop offset="0.42875" stop-color="#D397BE" />
            <stop offset="0.53375" stop-color="#C486CB" />
            <stop offset="0.64875" stop-color="#B578D9" />
            <stop offset="0.77125" stop-color="#A166E5" />
            <stop offset="0.89125" stop-color="#8B57F2" />
            <stop offset="1" stop-color="#704CFF" />
        </radialGradient>
        <radialGradient
            id="paint4_radial_14562_45129"
            cx="0"
            cy="0"
            r="1"
            gradientUnits="userSpaceOnUse"
            gradientTransform="translate(113.014 83.8735) rotate(-58.142) scale(5.41692 8.47095)"
        >
            <stop stop-color="#FFD580" />
            <stop offset="0.09375" stop-color="#F6C592" />
            <stop offset="0.205" stop-color="#EBB6A2" />
            <stop offset="0.324466" stop-color="#DFA5AF" />
            <stop offset="0.42875" stop-color="#D397BE" />
            <stop offset="0.53375" stop-color="#C486CB" />
            <stop offset="0.64875" stop-color="#B578D9" />
            <stop offset="0.77125" stop-color="#A166E5" />
            <stop offset="0.89125" stop-color="#8B57F2" />
            <stop offset="1" stop-color="#704CFF" />
        </radialGradient>
        <linearGradient
            id="paint5_linear_14562_45129"
            x1="112.791"
            y1="75.9693"
            x2="114.053"
            y2="83.6725"
            gradientUnits="userSpaceOnUse"
        >
            <stop stop-color="#6D4AFF" />
            <stop offset="0.392009" stop-color="#B39FFB" stop-opacity="0.978022" />
            <stop offset="1" stop-color="#FFE8DB" stop-opacity="0.8" />
        </linearGradient>
        <radialGradient
            id="paint6_radial_14562_45129"
            cx="0"
            cy="0"
            r="1"
            gradientUnits="userSpaceOnUse"
            gradientTransform="translate(112.538 83.2154) rotate(-58.142) scale(4.35709 6.81359)"
        >
            <stop stop-color="#FFD580" />
            <stop offset="0.09375" stop-color="#F6C592" />
            <stop offset="0.205" stop-color="#EBB6A2" />
            <stop offset="0.324466" stop-color="#DFA5AF" />
            <stop offset="0.42875" stop-color="#D397BE" />
            <stop offset="0.53375" stop-color="#C486CB" />
            <stop offset="0.64875" stop-color="#B578D9" />
            <stop offset="0.77125" stop-color="#A166E5" />
            <stop offset="0.89125" stop-color="#8B57F2" />
            <stop offset="1" stop-color="#704CFF" />
        </radialGradient>
        <radialGradient
            id="paint7_radial_14562_45129"
            cx="0"
            cy="0"
            r="1"
            gradientUnits="userSpaceOnUse"
            gradientTransform="translate(71.0801 100.883) rotate(-58.142) scale(9.67823 15.1348)"
        >
            <stop stop-color="#FFD580" />
            <stop offset="0.09375" stop-color="#F6C592" />
            <stop offset="0.205" stop-color="#EBB6A2" />
            <stop offset="0.324466" stop-color="#DFA5AF" />
            <stop offset="0.42875" stop-color="#D397BE" />
            <stop offset="0.53375" stop-color="#C486CB" />
            <stop offset="0.64875" stop-color="#B578D9" />
            <stop offset="0.77125" stop-color="#A166E5" />
            <stop offset="0.89125" stop-color="#8B57F2" />
            <stop offset="1" stop-color="#704CFF" />
        </radialGradient>
        <linearGradient
            id="paint8_linear_14562_45129"
            x1="70.6807"
            y1="86.7604"
            x2="72.9354"
            y2="100.523"
            gradientUnits="userSpaceOnUse"
        >
            <stop stop-color="#6D4AFF" />
            <stop offset="0.392009" stop-color="#B39FFB" stop-opacity="0.978022" />
            <stop offset="1" stop-color="#FFE8DB" stop-opacity="0.8" />
        </linearGradient>
        <radialGradient
            id="paint9_radial_14562_45129"
            cx="0"
            cy="0"
            r="1"
            gradientUnits="userSpaceOnUse"
            gradientTransform="translate(70.23 99.7063) rotate(-58.142) scale(7.78466 12.1736)"
        >
            <stop stop-color="#FFD580" />
            <stop offset="0.09375" stop-color="#F6C592" />
            <stop offset="0.205" stop-color="#EBB6A2" />
            <stop offset="0.324466" stop-color="#DFA5AF" />
            <stop offset="0.42875" stop-color="#D397BE" />
            <stop offset="0.53375" stop-color="#C486CB" />
            <stop offset="0.64875" stop-color="#B578D9" />
            <stop offset="0.77125" stop-color="#A166E5" />
            <stop offset="0.89125" stop-color="#8B57F2" />
            <stop offset="1" stop-color="#704CFF" />
        </radialGradient>
        <clipPath id="clip0_14562_45129">
            <path
                d="M0 5C0 2.23858 2.23858 0 5 0H295C297.761 0 300 2.23858 300 5V185C300 187.761 297.761 190 295 190H5C2.23857 190 0 187.761 0 185V5Z"
                fill="white"
            />
        </clipPath>
        <clipPath id="clip1_14562_45129">
            <rect width="4.47761" height="4.47761" fill="white" transform="translate(272.015 14.5508)" />
        </clipPath>
        <clipPath id="clip2_14562_45129">
            <rect x="193" y="27.1094" width="100" height="68.3544" rx="1.26582" fill="white" />
        </clipPath>
        <clipPath id="clip3_14562_45129">
            <rect width="46.7599" height="5.66786" fill="white" transform="translate(242.463 47.4219)" />
        </clipPath>
        <clipPath id="clip4_14562_45129">
            <rect width="46.7599" height="5.66786" fill="white" transform="translate(242.463 58.7578)" />
        </clipPath>
        <clipPath id="clip5_14562_45129">
            <rect width="46.7599" height="5.66786" fill="white" transform="translate(242.463 70.0938)" />
        </clipPath>
        <clipPath id="clip6_14562_45129">
            <rect width="46.7599" height="5.66786" fill="white" transform="translate(242.463 81.4297)" />
        </clipPath>
        <clipPath id="clip7_14562_45129">
            <rect width="26.45" height="5.66786" fill="white" transform="translate(208.454 37.9727)" />
        </clipPath>
        <clipPath id="clip8_14562_45129">
            <rect width="26.45" height="5.66786" fill="white" transform="translate(208.454 48.3633)" />
        </clipPath>
        <clipPath id="clip9_14562_45129">
            <rect width="26.45" height="5.66786" fill="white" transform="translate(208.454 58.7539)" />
        </clipPath>
        <clipPath id="clip10_14562_45129">
            <rect width="26.45" height="5.66786" fill="white" transform="translate(208.454 69.1445)" />
        </clipPath>
        <clipPath id="clip11_14562_45129">
            <rect width="26.45" height="5.66786" fill="white" transform="translate(208.454 79.5352)" />
        </clipPath>
        <clipPath id="clip12_14562_45129">
            <rect width="26.45" height="5.66786" fill="white" transform="translate(208.454 89.9297)" />
        </clipPath>
        <clipPath id="clip13_14562_45129">
            <rect width="6.48923" height="6.48923" fill="white" transform="translate(111.056 77.2578)" />
        </clipPath>
        <clipPath id="clip14_14562_45129">
            <rect width="11.5941" height="11.5941" fill="white" transform="translate(67.5811 89.0625)" />
        </clipPath>
    </defs>
</svg>
