<svg width="61" height="60" viewBox="0 0 61 60" fill="none" xmlns="http://www.w3.org/2000/svg">
<path d="M57.6337 17.8661L50.6512 10.8837L55.6512 5.88368C56.1399 5.39493 56.1399 4.60368 55.6512 4.11618L53.8837 2.34868C53.395 1.85993 52.6037 1.85993 52.1162 2.34868L20.6062 33.8561C21.2762 34.3474 21.9237 34.8774 22.5225 35.4749C23.125 36.0774 23.6525 36.7261 24.14 37.3936L40.1325 21.3999L47.115 28.3824C47.3587 28.6261 47.6787 28.7486 47.9987 28.7486C48.3187 28.7486 48.6387 28.6261 48.8825 28.3824L57.6325 19.6324C58.1212 19.1436 58.1212 18.3536 57.6325 17.8649L57.6337 17.8661Z" fill="url(#paint0_linear_2498_10003)"/>
<path d="M25.2225 32.7776C19.8613 27.4164 11.1376 27.4164 5.77631 32.7776C0.415059 38.1389 0.415059 46.8626 5.77631 52.2239C8.45756 54.9051 11.9776 56.2439 15.4988 56.2439C19.02 56.2439 22.5413 54.9039 25.2213 52.2239C30.5838 46.8614 30.585 38.1389 25.2225 32.7776ZM13 48.7501C10.9288 48.7501 9.25006 47.0714 9.25006 45.0001C9.25006 42.9289 10.9288 41.2501 13 41.2501C15.0713 41.2501 16.75 42.9289 16.75 45.0001C16.75 47.0714 15.0713 48.7501 13 48.7501Z" fill="url(#paint1_linear_2498_10003)"/>
<defs>
<linearGradient id="paint0_linear_2498_10003" x1="39.3026" y1="1.98212" x2="39.3026" y2="37.3936" gradientUnits="userSpaceOnUse">
<stop stop-color="#F6B828"/>
<stop offset="1" stop-color="#C88509"/>
</linearGradient>
<linearGradient id="paint1_linear_2498_10003" x1="15.4993" y1="28.7567" x2="15.4993" y2="56.2439" gradientUnits="userSpaceOnUse">
<stop stop-color="#FFD36E"/>
<stop offset="1" stop-color="#F6B828"/>
</linearGradient>
</defs>
</svg>
