<svg version="1.1" id="Layer_1" xmlns="http://www.w3.org/2000/svg" width="56.336" height="44.066" xml:space="preserve"><style>.st0{fill:none}.st1{fill:#657ee4}.st2{fill:#e4e4e4}</style><g id="Group_6091" transform="translate(-655.102 -361.967)"><path id="Path_5479" class="st0" d="M682.1 378.6l-2.3 4.2h2.6l3.7-4.7-1.4-1.7h-4.3l1.7 2.2z"/><path id="Path_5480" class="st0" d="M680.4 392.8l.1.2h1.1l-.4-1.7-1-4.7h-1.5l1.7 6.2z"/><path id="Path_5481" class="st1" d="M662.2 393.1h18.3l-.1-.2-1.7-6.2h-16.5v-3.9h17.6l2.3-4.2-1.7-2.2h-18.2v-3.9h19.4l1.9-2.9-2.2-7.7h-26.1V406H684l-1.2-4.4v-.1l-1.3-4.6h-19.3v-3.8z"/><path id="Path_5482" class="st1" d="M686.2 362l1.6 7.8-2.5 2.7h20.5v3.9h-21.1l1.4 1.7-3.7 4.7h23.4v3.9h-25.5l1 4.7.4 1.7h7.1v3.9h-6.2l1 4.6.9 4.5h27V362h-25.3z"/><path id="Path_5483" class="st2" d="M662.2 376.4h18.2l-.7-1 1.9-2.9h-19.4v3.9z"/><path id="Path_5484" class="st2" d="M684.7 376.4h21.1v-3.9h-20.5l-2 2.2 1.4 1.7z"/><path id="Path_5485" class="st2" d="M679.8 382.8h-17.6v3.9h16.5l-.4-1.4 1.5-2.5z"/><path id="Path_5486" class="st2" d="M680.2 386.7h25.5v-3.9h-23.4l-2.4 2.9.3 1z"/><path id="Path_5487" class="st2" d="M662.2 393.1v3.9h19.3l-1.1-3.9h-18.2z"/><path id="Path_5488" class="st2" d="M688.7 393.1h-7.1l.9 3.9h6.2v-3.9z"/></g></svg>