<svg width="240" height="240" viewBox="0 0 240 240" fill="none" xmlns="http://www.w3.org/2000/svg">
<g clip-path="url(#clip0)">
<circle cx="120.5" cy="120.5" r="119.5" fill="#F2F2F2"/>
<rect x="1.36542" y="34.2615" width="152" height="202" transform="rotate(-10 1.36542 34.2615)" fill="#E0E0E0"/>
<rect x="6.17291" y="38.491" width="144" height="189" transform="rotate(-10 6.17291 38.491)" fill="#DADADA"/>
<rect x="8.48981" y="40.1133" width="140" height="185" transform="rotate(-10 8.48981 40.1133)" fill="white"/>
<circle cx="80.2666" cy="15.2719" r="9" transform="rotate(-10 80.2666 15.2719)" fill="#5064B6"/>
<rect x="42.2064" y="24.0139" width="68" height="12" transform="rotate(-10 42.2064 24.0139)" fill="#657EE4"/>
<circle cx="74.648" cy="12.2008" r="9" transform="rotate(-10 74.648 12.2008)" fill="#657EE4"/>
<path d="M109.694 15.1602L111.664 14.8129L111.49 13.8281L109.173 12.2058L109.694 15.1602Z" fill="#5064B6"/>
<path opacity="0.1" d="M44.2902 35.8315L113.227 23.6762L113.574 25.6458L46.6071 37.4539L44.2902 35.8315Z" fill="#657EE4"/>
<rect opacity="0.1" x="109.694" y="15.1602" width="2" height="9" transform="rotate(-10 109.694 15.1602)" fill="#657EE4"/>
<rect x="86.5179" y="50.7251" width="48" height="4" transform="rotate(-10 86.5179 50.7251)" fill="#F2F2F2"/>
<rect x="90.3382" y="72.3909" width="48" height="4" transform="rotate(-10 90.3382 72.3909)" fill="#F2F2F2"/>
<rect x="88.428" y="61.5579" width="35" height="4" transform="rotate(-10 88.428 61.5579)" fill="#F2F2F2"/>
<rect x="83.3357" y="24.7068" width="152" height="202" transform="rotate(5.01644 83.3357 24.7068)" fill="#E0E0E0"/>
<rect x="86.8832" y="30.0374" width="144" height="189" transform="rotate(5.01644 86.8832 30.0374)" fill="#DADADA"/>
<rect x="88.7006" y="32.2046" width="140" height="185" transform="rotate(5.01644 88.7006 32.2046)" fill="white"/>
<circle cx="164.463" cy="26.8087" r="9" transform="rotate(5.01644 164.463 26.8087)" fill="#5064B6"/>
<rect x="125.437" y="25.3909" width="68" height="12" transform="rotate(5.01644 125.437 25.3909)" fill="#657EE4"/>
<circle cx="159.832" cy="22.3868" r="9" transform="rotate(5.01644 159.832 22.3868)" fill="#657EE4"/>
<path d="M192.914 34.3254L194.907 34.5003L194.994 33.5041L193.177 31.3369L192.914 34.3254Z" fill="#5064B6"/>
<path opacity="0.1" d="M124.388 37.3447L194.12 43.4656L193.945 45.458L126.205 39.5119L124.388 37.3447Z" fill="#657EE4"/>
<rect opacity="0.1" x="192.914" y="34.3254" width="2" height="9" transform="rotate(5.01644 192.914 34.3254)" fill="#657EE4"/>
<path fill-rule="evenodd" clip-rule="evenodd" d="M149.186 63.6138L107.347 59.9413L103.674 101.78L145.513 105.453L149.186 63.6138ZM104.621 56.6904L100.423 104.507L148.239 108.704L152.437 60.8876L104.621 56.6904Z" fill="#F2F2F2"/>
<rect x="98.9368" y="121.441" width="83" height="4" transform="rotate(5.01644 98.9368 121.441)" fill="#F2F2F2"/>
<rect x="97.0131" y="143.357" width="83" height="4" transform="rotate(5.01644 97.0131 143.357)" fill="#F2F2F2"/>
<rect x="97.975" y="132.399" width="61" height="4" transform="rotate(5.01644 97.975 132.399)" fill="#F2F2F2"/>
<path d="M123.831 89.249C123.738 88.9031 123.664 88.4607 123.611 87.9218C123.558 87.3699 123.55 86.8277 123.587 86.2951C123.646 85.4638 123.86 84.7283 124.231 84.0885C124.616 83.4367 125.076 82.8358 125.61 82.2858C126.145 81.7358 126.723 81.215 127.345 80.7233C127.967 80.2186 128.544 79.7108 129.076 79.1998C129.609 78.6757 130.058 78.1263 130.425 77.5515C130.805 76.9647 131.021 76.3075 131.072 75.5801C131.115 74.9567 131.031 74.396 130.817 73.8982C130.617 73.4012 130.321 72.9758 129.928 72.622C129.535 72.2682 129.071 71.9943 128.536 71.8003C128.003 71.5933 127.43 71.4685 126.82 71.4258C124.625 71.2723 122.662 72.003 120.93 73.6179L121.17 70.1888C123.244 69.0808 125.347 68.6013 127.477 68.7503C128.464 68.8193 129.384 69.0141 130.236 69.3348C131.088 69.6554 131.821 70.0982 132.434 70.6632C133.061 71.2161 133.536 71.8889 133.859 72.6816C134.182 73.4743 134.308 74.3772 134.237 75.3903C134.17 76.3515 133.941 77.197 133.551 77.9268C133.16 78.6565 132.683 79.3215 132.119 79.9216C131.569 80.5097 130.976 81.0556 130.34 81.5593C129.705 82.0631 129.108 82.5696 128.55 83.0788C128.007 83.5759 127.545 84.1049 127.167 84.6658C126.788 85.2267 126.574 85.8579 126.525 86.5593C126.484 87.1568 126.517 87.7073 126.625 88.2109C126.734 88.7015 126.849 89.1206 126.968 89.4683L123.831 89.249ZM125.018 97.4768C124.446 97.4368 123.954 97.1936 123.542 96.7471C123.142 96.3014 122.963 95.7799 123.005 95.1824C123.048 94.5719 123.298 94.0803 123.754 93.7076C124.213 93.3089 124.734 93.13 125.319 93.1709C125.904 93.2118 126.395 93.4615 126.794 93.9202C127.194 94.3528 127.373 94.8744 127.33 95.4848C127.289 96.0823 127.039 96.5739 126.581 96.9596C126.111 97.3444 125.589 97.5168 125.018 97.4768Z" fill="#F2F2F2"/>
</g>
<defs>
<clipPath id="clip0">
<rect width="240" height="240" fill="white"/>
</clipPath>
</defs>
</svg>
