<svg width="240" height="240" viewBox="0 0 240 240" fill="none" xmlns="http://www.w3.org/2000/svg">
<g clip-path="url(#clip0)">
<circle cx="120.5" cy="120.5" r="119.5" fill="#3C414E"/>
<rect x="2.12567" y="33.7266" width="152" height="202" transform="rotate(-10 2.12567 33.7266)" fill="#505560"/>
<rect opacity="0.05" x="6.93314" y="37.9561" width="144" height="189" transform="rotate(-10 6.93314 37.9561)" fill="black"/>
<rect x="9.25006" y="39.5784" width="140" height="185" transform="rotate(-10 9.25006 39.5784)" fill="#2E323D"/>
<circle cx="81.0269" cy="14.737" r="9" transform="rotate(-10 81.0269 14.737)" fill="#5064B6"/>
<rect x="42.9667" y="23.479" width="68" height="12" transform="rotate(-10 42.9667 23.479)" fill="#657EE4"/>
<circle cx="75.4082" cy="11.6659" r="9" transform="rotate(-10 75.4082 11.6659)" fill="#657EE4"/>
<path d="M110.455 14.6253L112.424 14.278L112.251 13.2932L109.934 11.6709L110.455 14.6253Z" fill="#5064B6"/>
<path opacity="0.1" d="M45.0504 35.2966L113.987 23.1413L114.334 25.1109L47.3674 36.919L45.0504 35.2966Z" fill="#657EE4"/>
<rect opacity="0.1" x="110.455" y="14.6252" width="2" height="9" transform="rotate(-10 110.455 14.6252)" fill="#657EE4"/>
<path fill-rule="evenodd" clip-rule="evenodd" d="M75.8078 54.2435L34.4459 61.5368L41.7391 102.899L83.101 95.6055L75.8078 54.2435ZM30.9705 59.1033L39.3056 106.374L86.5764 98.0389L78.2413 50.7682L30.9705 59.1033Z" fill="#E0E0E0"/>
<rect x="87.2782" y="50.1902" width="48" height="4" transform="rotate(-10 87.2782 50.1902)" fill="#657EE4"/>
<rect x="42.2576" y="123.116" width="83" height="4" transform="rotate(-10 42.2576 123.116)" fill="#3C414E"/>
<rect x="46.0779" y="144.781" width="83" height="4" transform="rotate(-10 46.0779 144.781)" fill="#3C414E"/>
<rect x="44.1678" y="133.949" width="61" height="4" transform="rotate(-10 44.1678 133.949)" fill="#3C414E"/>
<rect x="91.0984" y="71.856" width="48" height="4" transform="rotate(-10 91.0984 71.856)" fill="#E0E0E0"/>
<rect x="89.1883" y="61.0229" width="35" height="4" transform="rotate(-10 89.1883 61.0229)" fill="#657EE4"/>
<rect x="30.7968" y="58.1184" width="48" height="49" transform="rotate(-10 30.7968 58.1184)" fill="#3C414E"/>
<path d="M50.6916 84.5655L55.3409 80.6994L62.7269 79.3971L68.4181 81.4398L69.1995 85.8715L51.473 88.9971L50.6916 84.5655Z" fill="#2E323D"/>
<circle cx="57.7316" cy="72.6621" r="6" transform="rotate(-10 57.7316 72.6621)" fill="#2E323D"/>
<rect x="79.7444" y="23.9561" width="152" height="202" transform="rotate(4 79.7444 23.9561)" fill="#505560"/>
<rect opacity="0.05" x="83.3859" y="29.2229" width="144" height="189" transform="rotate(4 83.3859 29.2229)" fill="black"/>
<rect x="85.2415" y="31.3577" width="140" height="185" transform="rotate(4 85.2415 31.3577)" fill="#2E323D"/>
<circle cx="160.896" cy="24.6186" r="9" transform="rotate(4 160.896 24.6186)" fill="#5064B6"/>
<rect x="121.851" y="23.8931" width="68" height="12" transform="rotate(4 121.851 23.8931)" fill="#657EE4"/>
<circle cx="156.187" cy="20.2795" r="9" transform="rotate(4 156.187 20.2795)" fill="#657EE4"/>
<path d="M189.476 31.6292L191.472 31.7687L191.541 30.7711L189.686 28.6365L189.476 31.6292Z" fill="#5064B6"/>
<path opacity="0.1" d="M121.014 35.864L190.844 40.747L190.704 42.7421L122.87 37.9987L121.014 35.864Z" fill="#657EE4"/>
<rect opacity="0.1" x="189.476" y="31.6294" width="2" height="9" transform="rotate(4 189.476 31.6294)" fill="#657EE4"/>
<path fill-rule="evenodd" clip-rule="evenodd" d="M146.274 61.6889L104.377 58.7591L101.447 100.657L143.345 103.587L146.274 61.6889ZM101.593 55.5571L98.2449 103.44L146.128 106.789L149.476 58.9054L101.593 55.5571Z" fill="#E0E0E0"/>
<rect x="158.385" y="60.531" width="48" height="4" transform="rotate(4 158.385 60.531)" fill="#657EE4"/>
<rect x="97.0591" y="120.399" width="83" height="4" transform="rotate(4 97.0591 120.399)" fill="#3C414E"/>
<rect x="95.5244" y="142.345" width="83" height="4" transform="rotate(4 95.5244 142.345)" fill="#3C414E"/>
<rect x="96.2917" y="131.372" width="61" height="4" transform="rotate(4 96.2917 131.372)" fill="#3C414E"/>
<rect x="156.85" y="82.4773" width="48" height="4" transform="rotate(4 156.85 82.4773)" fill="#3C414E"/>
<rect x="157.617" y="71.5042" width="35" height="4" transform="rotate(4 157.617 71.5042)" fill="#657EE4"/>
<rect x="101.663" y="54.5596" width="48" height="49" transform="rotate(4 101.663 54.5596)" fill="#657EE4"/>
<path d="M114.569 85.0342L120.015 82.4077L127.497 82.9309L132.525 86.2898L132.211 90.7789L114.255 89.5232L114.569 85.0342Z" fill="#2E323D"/>
<circle cx="124.279" cy="75.1876" r="6" transform="rotate(4 124.279 75.1876)" fill="#2E323D"/>
</g>
<defs>
<clipPath id="clip0">
<rect width="240" height="240" fill="white"/>
</clipPath>
</defs>
</svg>
