<svg xmlns="http://www.w3.org/2000/svg" width="138.8" height="138.8" viewBox="0 0 138.8 138.8">
  <g id="contact-admin" transform="translate(-1103.675 -209)">
    <circle id="Ellipse_738" data-name="Ellipse 738" cx="69.4" cy="69.4" r="69.4" transform="translate(1103.675 209)" fill="#657ee4"/>
    <path id="Path_1684" data-name="Path 1684" d="M153.79,63.35a4.16,4.16,0,0,0-3-1.8l-4.3-.5a7.47,7.47,0,0,1-5.9-4.5v-.1a7.17,7.17,0,0,1,1-7.3l2.6-3.4a4.22,4.22,0,0,0,.9-3.4h0a10.92,10.92,0,0,0-9.1-9.1h0a4.14,4.14,0,0,0-3.4.9l-3.4,2.6a7.44,7.44,0,0,1-7.3,1h-.1a7.13,7.13,0,0,1-4.5-5.9l-.5-4.3a4.49,4.49,0,0,0-1.8-3h0a11,11,0,0,0-12.9,0h0a4.15,4.15,0,0,0-1.8,3l-.5,4.3a7.46,7.46,0,0,1-4.5,5.9h-.1a7.2,7.2,0,0,1-7.3-1l-3.4-2.6a4.22,4.22,0,0,0-3.4-.9h0a10.92,10.92,0,0,0-9.1,9.1h0a4.15,4.15,0,0,0,.9,3.4l2.6,3.4a7.39,7.39,0,0,1,1,7.3v.1a7.14,7.14,0,0,1-5.9,4.5l-4.3.5a4.51,4.51,0,0,0-3,1.8h0a11,11,0,0,0,0,12.9h0a4.16,4.16,0,0,0,3,1.8l4.3.5a7.43,7.43,0,0,1,5.9,4.5v.1a7.18,7.18,0,0,1-1,7.3l-2.6,3.4a4.22,4.22,0,0,0-.9,3.4h0a10.94,10.94,0,0,0,9.1,9.1h0a4.14,4.14,0,0,0,3.4-.9l3.4-2.6a7.39,7.39,0,0,1,7.3-1h.1a7.12,7.12,0,0,1,4.5,5.9l.5,4.3a4.51,4.51,0,0,0,1.8,3h0a11,11,0,0,0,12.9,0h0a4.18,4.18,0,0,0,1.8-3l.5-4.3a7.43,7.43,0,0,1,4.5-5.9h.1a7.15,7.15,0,0,1,7.3,1l3.4,2.6a4.29,4.29,0,0,0,3.4.9h0a11,11,0,0,0,9.1-9.1h0a4.14,4.14,0,0,0-.9-3.4l-2.6-3.4a7.39,7.39,0,0,1-1-7.3v-.1a7.11,7.11,0,0,1,5.9-4.5l4.3-.5a4.51,4.51,0,0,0,3-1.8,11.13,11.13,0,0,0,0-12.9Zm-45.4,24.5a17.931,17.931,0,1,1,.15,0Z" transform="translate(1064.485 209)" fill="#fff"/>
  </g>
</svg>
