<svg xmlns="http://www.w3.org/2000/svg" width="138.809" height="138.809" viewBox="0 0 138.809 138.809">
  <g id="discount" transform="translate(-1101 -225)">
    <ellipse id="Ellipse_738" data-name="Ellipse 738" cx="69.405" cy="69.405" rx="69.405" ry="69.405" transform="translate(1101 225)" fill="#657ee4"/>
    <g id="Group_3608" data-name="Group 3608" transform="translate(1070.309 193.222)">
      <path id="Path_1977" data-name="Path 1977" d="M211.995,82.981q2.829-4.782,5.666-9.564c1.226-2.072,2.452-4.135,3.678-6.207.279-.474.558-.947.837-1.412.042-.076.093-.144.127-.22a1.861,1.861,0,0,0-1.632-2.782c-1.59-.042-3.188,0-4.786,0H209.4a8.536,8.536,0,0,0-1.471.034,1.943,1.943,0,0,0-1.3.964c-.237.389-.465.786-.693,1.175l-3.425,5.784q-2.752,4.642-5.5,9.293l-6.824,11.517q-3.678,6.2-7.348,12.4-3.526,5.962-7.061,11.932-3.019,5.086-6.029,10.181-2.106,3.564-4.22,7.12c-.541.913-1.125,1.818-1.632,2.757a1.861,1.861,0,0,0,1.657,2.774c.575.008,1.158,0,1.733,0h10.457a.913.913,0,0,0,.2.008,2.261,2.261,0,0,0,1.886-1.412c.347-.592.7-1.184,1.049-1.776q2-3.387,4.017-6.782,2.943-4.972,5.894-9.953l7-11.822,7.331-12.38Q208.549,88.8,211.995,82.981Z" transform="translate(-91.502)" fill="#fff"/>
      <path id="Path_1978" data-name="Path 1978" d="M85.975,90.313a14.7,14.7,0,0,0-5.26-27.119A16.485,16.485,0,0,0,78.389,63a14.709,14.709,0,1,0,7.585,27.313Zm-7.585-8.135a4.489,4.489,0,0,1-4.177-2.884,4.554,4.554,0,0,1,1.345-5.04,4.467,4.467,0,1,1,2.833,7.923Z" transform="translate(0 -0.203)" fill="#fff"/>
      <path id="Path_1979" data-name="Path 1979" d="M641.807,624.854a14.819,14.819,0,0,0-12.092-11.568,15.3,15.3,0,0,0-2.325-.186,14.707,14.707,0,1,0,14.418,11.754Zm-14.418,7.416a4.489,4.489,0,0,1-4.177-2.884,4.554,4.554,0,0,1,1.344-5.04,4.467,4.467,0,1,1,2.833,7.923Z" transform="translate(-502.576 -503.786)" fill="#fff"/>
    </g>
  </g>
</svg>
