<svg width="43" height="45" viewBox="0 0 43 45" fill="none" xmlns="http://www.w3.org/2000/svg">
<path d="M25.9357 22.293H23.2596C23.2596 21.7015 23.0247 21.1343 22.6064 20.716C22.1881 20.2977 21.6209 20.0628 21.0294 20.0628C20.4379 20.0628 19.8706 20.2977 19.4523 20.716C19.0341 21.1343 18.7991 21.7015 18.7991 22.293H16.123C16.123 20.9918 16.64 19.7439 17.5601 18.8237C18.4802 17.9036 19.7281 17.3867 21.0294 17.3867C22.3306 17.3867 23.5785 17.9036 24.4987 18.8237C25.4188 19.7439 25.9357 20.9918 25.9357 22.293Z" fill="url(#paint0_linear_11401_17094)"/>
<path d="M32.8484 12.7962C32.3286 11.7724 31.479 10.9535 30.4368 10.4717C29.3946 9.9898 28.2205 9.87307 27.1038 10.1403C25.9871 10.4075 24.9929 11.0431 24.2817 11.9445C23.5705 12.8459 23.1837 13.9607 23.1836 15.1089V30.0229L40.0991 25.8208L32.8484 12.7962Z" fill="url(#paint1_linear_11401_17094)"/>
<path d="M13.8481 10C12.9045 10 11.9794 10.2614 11.1752 10.7551C10.3711 11.2489 9.71942 11.9557 9.2925 12.7972L2.04395 25.8253L18.9594 30.0274V15.1098C18.9594 14.4387 18.8271 13.7741 18.5703 13.1541C18.3134 12.534 17.9369 11.9707 17.4622 11.4961C16.9876 11.0216 16.4241 10.6453 15.804 10.3886C15.1839 10.1319 14.5193 9.99982 13.8481 10Z" fill="url(#paint2_linear_11401_17094)"/>
<path d="M9.97885 39.0007C14.9377 39.0007 18.9577 34.9807 18.9577 30.0218C18.9577 25.0629 14.9377 21.043 9.97885 21.043C5.01997 21.043 1 25.0629 1 30.0218C1 34.9807 5.01997 39.0007 9.97885 39.0007Z" fill="url(#paint3_linear_11401_17094)"/>
<path d="M9.97944 37.5058C14.1118 37.5058 17.4618 34.1558 17.4618 30.0234C17.4618 25.891 14.1118 22.541 9.97944 22.541C5.84704 22.541 2.49707 25.891 2.49707 30.0234C2.49707 34.1558 5.84704 37.5058 9.97944 37.5058Z" fill="url(#paint4_radial_11401_17094)"/>
<path d="M32.1605 39.0007C37.1194 39.0007 41.1393 34.9807 41.1393 30.0218C41.1393 25.0629 37.1194 21.043 32.1605 21.043C27.2016 21.043 23.1816 25.0629 23.1816 30.0218C23.1816 34.9807 27.2016 39.0007 32.1605 39.0007Z" fill="url(#paint5_linear_11401_17094)"/>
<path d="M32.1611 37.5058C36.2935 37.5058 39.6435 34.1558 39.6435 30.0234C39.6435 25.891 36.2935 22.541 32.1611 22.541C28.0287 22.541 24.6787 25.891 24.6787 30.0234C24.6787 34.1558 28.0287 37.5058 32.1611 37.5058Z" fill="url(#paint6_radial_11401_17094)"/>
<path opacity="0.45" d="M41 14C42.1046 14 43 13.1046 43 12C43 10.8954 42.1046 10 41 10C39.8954 10 39 10.8954 39 12C39 13.1046 39.8954 14 41 14Z" fill="#CED2E2"/>
<path opacity="0.45" d="M16 45C17.1046 45 18 44.1046 18 43C18 41.8954 17.1046 41 16 41C14.8954 41 14 41.8954 14 43C14 44.1046 14.8954 45 16 45Z" fill="#CED2E2"/>
<path opacity="0.45" d="M10 5L7.5 4.0767L6.34943 3.65057L5.9233 2.5L5 0L4.0767 2.5L3.65057 3.65057L2.5 4.0767L0 5L2.5 5.9233L3.65057 6.34943L4.0767 7.5L5 10L5.9233 7.5L6.34943 6.34943L7.5 5.9233L10 5Z" fill="#CED2E2"/>
<defs>
<linearGradient id="paint0_linear_11401_17094" x1="23" y1="21" x2="19.2549" y2="19.7414" gradientUnits="userSpaceOnUse">
<stop stop-color="#ACADBA"/>
<stop offset="1" stop-color="#838597"/>
</linearGradient>
<linearGradient id="paint1_linear_11401_17094" x1="35" y1="25.5" x2="15.4997" y2="31.9991" gradientUnits="userSpaceOnUse">
<stop stop-color="#6F7185"/>
<stop offset="0.218334" stop-color="#989AA9"/>
<stop offset="1" stop-color="#E6E7EC"/>
</linearGradient>
<linearGradient id="paint2_linear_11401_17094" x1="14.5" y1="32.5" x2="5" y2="31.5" gradientUnits="userSpaceOnUse">
<stop stop-color="#838597"/>
<stop offset="1" stop-color="#E6E7EC"/>
</linearGradient>
<linearGradient id="paint3_linear_11401_17094" x1="10" y1="16.5" x2="10" y2="42.5" gradientUnits="userSpaceOnUse">
<stop stop-color="#272939"/>
<stop offset="1" stop-color="#DADCED"/>
</linearGradient>
<radialGradient id="paint4_radial_11401_17094" cx="0" cy="0" r="1" gradientUnits="userSpaceOnUse" gradientTransform="translate(9.97944 25) rotate(90) scale(12)">
<stop offset="0.497512" stop-color="white"/>
<stop offset="1" stop-color="#CAF0FC"/>
</radialGradient>
<linearGradient id="paint5_linear_11401_17094" x1="32.1816" y1="16.5" x2="32.1816" y2="42.5" gradientUnits="userSpaceOnUse">
<stop stop-color="#272939"/>
<stop offset="1" stop-color="#DADCED"/>
</linearGradient>
<radialGradient id="paint6_radial_11401_17094" cx="0" cy="0" r="1" gradientUnits="userSpaceOnUse" gradientTransform="translate(32.1611 25) rotate(90) scale(12)">
<stop offset="0.497512" stop-color="white"/>
<stop offset="1" stop-color="#CAF0FC"/>
</radialGradient>
</defs>
</svg>
