<svg xmlns="http://www.w3.org/2000/svg" xmlns:xlink="http://www.w3.org/1999/xlink" width="232" height="239.829" viewBox="0 0 232 239.829">
  <defs>
    <linearGradient id="linear-gradient" x1="1.119" y1="0.019" x2="1.119" y2="1.019" gradientUnits="objectBoundingBox">
      <stop offset="0" stop-color="gray" stop-opacity="0.251"/>
      <stop offset="0.54" stop-color="gray" stop-opacity="0.122"/>
      <stop offset="1" stop-color="gray" stop-opacity="0.102"/>
    </linearGradient>
    <linearGradient id="linear-gradient-2" x1="2.075" y1="11.717" x2="2.075" y2="12.717" xlink:href="#linear-gradient"/>
    <linearGradient id="linear-gradient-3" x1="6.291" y1="11.407" x2="6.291" y2="12.408" xlink:href="#linear-gradient"/>
    <linearGradient id="linear-gradient-4" x1="0.5" y1="-0.099" x2="0.5" y2="0.901" xlink:href="#linear-gradient"/>
    <linearGradient id="linear-gradient-5" x1="0.5" y1="10.459" x2="0.5" y2="11.459" xlink:href="#linear-gradient"/>
    <linearGradient id="linear-gradient-6" x1="3.827" y1="9.328" x2="3.827" y2="10.328" xlink:href="#linear-gradient"/>
  </defs>
  <g id="empty-address-book" transform="translate(-660 -308.081)">
    <g id="Group_3622" data-name="Group 3622">
      <g id="Component_29_1" data-name="Component 29 – 1" transform="translate(660 308.081)">
        <circle id="Ellipse_847" data-name="Ellipse 847" cx="116" cy="116" r="116" transform="translate(0 7.829)" fill="#f2f2f2"/>
        <g id="Group_3568" data-name="Group 3568" transform="translate(-62.907 -31.682)">
          <rect id="Rectangle_23" data-name="Rectangle 23" width="144.812" height="200.083" transform="translate(69.12 66.08) rotate(-12.11)" fill="#e0e0e0"/>
          <g id="Group_3566" data-name="Group 3566" transform="translate(72.224 39.521)" opacity="0.5">
            <rect id="Rectangle_24" data-name="Rectangle 24" width="139.918" height="193.32" transform="translate(0 29.353) rotate(-12.11)" fill="url(#linear-gradient)"/>
          </g>
          <rect id="Rectangle_25" data-name="Rectangle 25" width="136.356" height="189.049" transform="translate(74.262 69.892) rotate(-12.11)" fill="#fafafa"/>
          <rect id="Rectangle_26" data-name="Rectangle 26" width="67.644" height="16.386" transform="translate(106.309 54.634) rotate(-12.11)" fill="url(#linear-gradient-2)"/>
          <path id="Path_1902" data-name="Path 1902" d="M256,31.891a9.683,9.683,0,1,0,11.266,7.482A9.569,9.569,0,0,0,256,31.891Zm3.2,14.944a5.587,5.587,0,1,1,4.138-6.73c.008.034.016.069.024.1a5.52,5.52,0,0,1-4.136,6.621Z" transform="translate(-119.985 0)" fill="url(#linear-gradient-3)"/>
          <rect id="Rectangle_27" data-name="Rectangle 27" width="66.22" height="15.664" transform="translate(106.858 53.797) rotate(-12.11)" fill="#657ee4"/>
          <path id="Path_1903" data-name="Path 1903" d="M256.25,31.89A9.255,9.255,0,1,0,267.241,39,9.255,9.255,0,0,0,256.25,31.89Zm3.062,14.282a5.341,5.341,0,1,1,4.1-6.343h0A5.342,5.342,0,0,1,259.312,46.172Z" transform="translate(-120.231 0)" fill="#657ee4"/>
          <rect id="Rectangle_28" data-name="Rectangle 28" width="144.812" height="200.083" transform="translate(131.671 59.923)" fill="#e0e0e0"/>
          <g id="Group_3567" data-name="Group 3567" transform="translate(134.12 63.307)" opacity="0.5">
            <rect id="Rectangle_29" data-name="Rectangle 29" width="139.918" height="193.32" fill="url(#linear-gradient-4)"/>
          </g>
          <rect id="Rectangle_30" data-name="Rectangle 30" width="136.356" height="189.049" transform="translate(135.9 64.732)" fill="#fff"/>
          <rect id="Rectangle_31" data-name="Rectangle 31" width="67.644" height="16.386" transform="translate(170.434 56.534)" fill="url(#linear-gradient-5)"/>
          <path id="Path_1904" data-name="Path 1904" d="M457.857,58.41a9.685,9.685,0,1,0,9.457,9.682A9.572,9.572,0,0,0,457.857,58.41Zm0,15.269a5.587,5.587,0,1,1,5.453-5.718c0,.043,0,.087,0,.131a5.52,5.52,0,0,1-5.454,5.56Z" transform="translate(-253.601 -17.871)" fill="url(#linear-gradient-6)"/>
          <rect id="Rectangle_32" data-name="Rectangle 32" width="66.22" height="15.664" transform="translate(171.147 55.831)" fill="#657ee4"/>
          <path id="Path_1905" data-name="Path 1905" d="M458.265,58.41a9.255,9.255,0,1,0,9.255,9.255h0A9.255,9.255,0,0,0,458.265,58.41Zm0,14.6a6.824,6.824,0,1,0,0-.017h0Z" transform="translate(-254.009 -17.871)" fill="#657ee4"/>
        </g>
      </g>
    </g>
  </g>
</svg>
