<svg xmlns="http://www.w3.org/2000/svg" xmlns:xlink="http://www.w3.org/1999/xlink" width="272.01" height="270.588" viewBox="0 0 272.01 270.588">
    <defs>
        <style>
            .cls-1{fill:none}.cls-2{clip-path:url(#clip-path)}.cls-3{fill:#f2f2f2}.cls-4{fill:#dde6ec}.cls-5{fill:#657ee4}.cls-6{fill:#eac819}.cls-7{opacity:.2}.cls-8{fill:#526ee0}.cls-9{fill:url(#linear-gradient)}.cls-10{fill:#6c63ff}.cls-11{fill:url(#linear-gradient-2)}
        </style>
        <clipPath id="clip-path">
            <path d="M0 0h272.01v270.588H0z" class="cls-1"/>
        </clipPath>
        <linearGradient id="linear-gradient" x1="2.684" x2="2.684" y1="6.471" y2="7.295" gradientUnits="objectBoundingBox">
            <stop offset="0" stop-color="gray" stop-opacity=".251"/>
            <stop offset=".54" stop-color="gray" stop-opacity=".122"/>
            <stop offset="1" stop-color="gray" stop-opacity=".102"/>
        </linearGradient>
        <linearGradient id="linear-gradient-2" x1="1.607" x2="1.607" y1="-.945" y2=".099" xlink:href="#linear-gradient"/>
    </defs>
    <g id="Component_27_1" class="cls-2" data-name="Component 27 – 1">
        <circle id="Ellipse_847" cx="116" cy="116" r="116" class="cls-3" data-name="Ellipse 847" transform="translate(29.25 38.588)"/>
        <path id="Rectangle_2" d="M0 0h23.24v119.475H0z" class="cls-4" data-name="Rectangle 2" transform="translate(130.945 151.113)"/>
        <path id="Path_1840" d="M270.85 158.06H394a15.085 15.085 0 0 1 15.085 15.085v74.975H270.85v-90.06z" class="cls-5" data-name="Path 1840" transform="translate(-170.41 -98.644)"/>
        <path id="Path_1841" d="M206.318 158.06a33.409 33.409 0 0 1 33.408 33.408v40.3a16.35 16.35 0 0 1-16.35 16.35H189.26a16.35 16.35 0 0 1-16.35-16.35v-40.3a33.409 33.409 0 0 1 33.408-33.408z" class="cls-5" data-name="Path 1841" transform="translate(-108.789 -98.644)"/>
        <path id="Path_1844" d="M457.63 125.75h-23.24v42.123h8.71v-23.24h14.53z" class="cls-6" data-name="Path 1844" transform="translate(-273.304 -78.615)"/>
        <path id="Path_1845" d="M240.428 159.04a33.3 33.3 0 0 0-12.738 2.522 33.658 33.658 0 0 1 4.75-.341 33.409 33.409 0 0 1 33.408 33.408v53.029h7.988v-55.21a33.408 33.408 0 0 0-33.408-33.408z" class="cls-7" data-name="Path 1845" transform="translate(-143.255 -99.262)"/>
        <path id="Path_1846" d="M74.872 369.58h95.868v11.62H63.25a11.622 11.622 0 0 1 11.622-11.62z" class="cls-8" data-name="Path 1846" transform="translate(-39.795 -231.225)"/>
        <path id="Path_1848" d="M655.5 26.173l-1.1.538.126-.226-.1.03.137-.1L669.408 0l7.587 6.471 6.512 6.026-1.869.912 2.1 3.7z" class="cls-9" data-name="Path 1848" transform="translate(-411.727)"/>
        <path id="Path_1849" d="M677.649 19.31l5.948 5.518-26.967 13.406 14.351-18.394z" class="cls-10" data-name="Path 1849" transform="translate(-413.13 -12.149)"/>
        <path id="Path_1850" d="M677.649 19.31l5.948 5.518-26.967 13.406 14.351-18.394z" class="cls-7" data-name="Path 1850" transform="translate(-413.13 -12.149)"/>
        <path id="Path_1851" d="M670.707 3.35L656.63 28.192l21.019-18.924z" class="cls-5" data-name="Path 1851" transform="translate(-413.13 -2.108)"/>
        <path id="Path_1852" d="M683.822 32.192l-27.112 8.955 22.662-16.917z" class="cls-5" data-name="Path 1852" transform="translate(-413.18 -15.245)"/>
        <path id="Path_1853" d="M45.119 35.032l1.773.274-.274-.26h.152l-.237-.082L14.322 4.42 6.5 16.758 0 28.012l3.011.467-1.335 6.1z" class="cls-11" data-name="Path 1853" transform="translate(0 -2.781)"/>
        <path id="Path_1854" d="M11.1 35.783L5.16 46.081l43.551 7.09-28.05-19.531z" class="cls-10" data-name="Path 1854" transform="translate(-3.247 -21.165)"/>
        <path id="Path_1855" d="M11.1 35.783L5.16 46.081l43.551 7.09-28.05-19.531z" class="cls-7" data-name="Path 1855" transform="translate(-3.247 -21.165)"/>
        <path id="Path_1856" d="M28.333 8.99L58.79 37.663 21.18 20.274z" class="cls-5" data-name="Path 1856" transform="translate(-13.326 -5.656)"/>
        <path id="Path_1857" d="M9.49 61.338l41.826.8L12.271 48.27z" class="cls-5" data-name="Path 1857" transform="translate(-5.971 -30.37)"/>
    </g>
</svg>
