<svg xmlns="http://www.w3.org/2000/svg" xmlns:xlink="http://www.w3.org/1999/xlink" width="232" height="239.829" viewBox="0 0 232 239.829">
    <defs>
        <style>
            .cls-1{fill:none}.cls-2{clip-path:url(#clip-path)}.cls-3{fill:#f2f2f2}.cls-4{fill:#e0e0e0}.cls-5{opacity:.5}.cls-6{fill:url(#linear-gradient)}.cls-7{fill:#fafafa}.cls-8{fill:url(#linear-gradient-2)}.cls-9{fill:url(#linear-gradient-3)}.cls-10{fill:#657ee4}.cls-11{fill:url(#linear-gradient-4)}.cls-12{fill:#fff}.cls-13{fill:url(#linear-gradient-5)}.cls-14{fill:url(#linear-gradient-6)}
        </style>
        <clipPath id="clip-path">
            <path d="M0 0h232v239.829H0z" class="cls-1"/>
        </clipPath>
        <linearGradient id="linear-gradient" x1="1.119" x2="1.119" y1=".019" y2="1.019" gradientUnits="objectBoundingBox">
            <stop offset="0" stop-color="gray" stop-opacity=".251"/>
            <stop offset=".54" stop-color="gray" stop-opacity=".122"/>
            <stop offset="1" stop-color="gray" stop-opacity=".102"/>
        </linearGradient>
        <linearGradient id="linear-gradient-2" x1="2.075" x2="2.075" y1="11.717" y2="12.717" xlink:href="#linear-gradient"/>
        <linearGradient id="linear-gradient-3" x1="6.291" x2="6.291" y1="11.407" y2="12.408" xlink:href="#linear-gradient"/>
        <linearGradient id="linear-gradient-4" x1=".5" x2=".5" y1="-.099" y2=".901" xlink:href="#linear-gradient"/>
        <linearGradient id="linear-gradient-5" x1=".5" x2=".5" y1="10.459" y2="11.459" xlink:href="#linear-gradient"/>
        <linearGradient id="linear-gradient-6" x1="3.827" x2="3.827" y1="9.328" y2="10.328" xlink:href="#linear-gradient"/>
    </defs>
    <g id="Component_29_1" class="cls-2" data-name="Component 29 – 1">
        <circle id="Ellipse_847" cx="116" cy="116" r="116" class="cls-3" data-name="Ellipse 847" transform="translate(0 7.829)"/>
        <g id="Group_3568" data-name="Group 3568" transform="translate(-62.907 -31.682)">
            <path id="Rectangle_23" d="M0 0h144.812v200.083H0z" class="cls-4" data-name="Rectangle 23" transform="rotate(-12.11 346.038 -292.768)"/>
            <g id="Group_3566" class="cls-5" data-name="Group 3566" transform="translate(72.224 39.521)">
                <path id="Rectangle_24" d="M0 0h139.918v193.32H0z" class="cls-6" data-name="Rectangle 24" transform="rotate(-12.11 138.36 14.677)"/>
            </g>
            <path id="Rectangle_25" d="M0 0h136.356v189.049H0z" class="cls-7" data-name="Rectangle 25" transform="rotate(-12.11 366.578 -315.1)"/>
            <path id="Rectangle_26" d="M0 0h67.644v16.386H0z" class="cls-8" data-name="Rectangle 26" transform="rotate(-12.11 310.68 -473.787)"/>
            <path id="Path_1902" d="M256 31.891a9.683 9.683 0 1 0 11.266 7.482A9.569 9.569 0 0 0 256 31.891zm3.2 14.944a5.587 5.587 0 1 1 4.138-6.73l.024.1a5.52 5.52 0 0 1-4.136 6.621z" class="cls-9" data-name="Path 1902" transform="translate(-119.985)"/>
            <path id="Rectangle_27" d="M0 0h66.22v15.664H0z" class="cls-10" data-name="Rectangle 27" transform="rotate(-12.11 307.01 -476.793)"/>
            <path id="Path_1903" d="M256.25 31.89A9.255 9.255 0 1 0 267.241 39a9.255 9.255 0 0 0-10.991-7.11zm3.062 14.282a5.341 5.341 0 1 1 4.1-6.343 5.342 5.342 0 0 1-4.1 6.343z" class="cls-10" data-name="Path 1903" transform="translate(-120.231)"/>
            <path id="Rectangle_28" d="M0 0h144.812v200.083H0z" class="cls-4" data-name="Rectangle 28" transform="translate(131.671 59.923)"/>
            <g id="Group_3567" class="cls-5" data-name="Group 3567" transform="translate(134.12 63.307)">
                <path id="Rectangle_29" d="M0 0h139.918v193.32H0z" class="cls-11" data-name="Rectangle 29"/>
            </g>
            <path id="Rectangle_30" d="M0 0h136.356v189.049H0z" class="cls-12" data-name="Rectangle 30" transform="translate(135.9 64.732)"/>
            <path id="Rectangle_31" d="M0 0h67.644v16.386H0z" class="cls-13" data-name="Rectangle 31" transform="translate(170.434 56.534)"/>
            <path id="Path_1904" d="M457.857 58.41a9.685 9.685 0 1 0 9.457 9.682 9.572 9.572 0 0 0-9.457-9.682zm0 15.269a5.587 5.587 0 1 1 5.453-5.718v.131a5.52 5.52 0 0 1-5.454 5.56z" class="cls-14" data-name="Path 1904" transform="translate(-253.601 -17.871)"/>
            <path id="Rectangle_32" d="M0 0h66.22v15.664H0z" class="cls-10" data-name="Rectangle 32" transform="translate(171.147 55.831)"/>
            <path id="Path_1905" d="M458.265 58.41a9.255 9.255 0 1 0 9.255 9.255 9.255 9.255 0 0 0-9.255-9.255zm0 14.6a6.824 6.824 0 1 0 0-.017z" class="cls-10" data-name="Path 1905" transform="translate(-254.009 -17.871)"/>
        </g>
    </g>
</svg>
