<svg width="240" height="240" viewBox="0 0 240 240" fill="none" xmlns="http://www.w3.org/2000/svg">
<path d="M120 236C184.065 236 236 184.065 236 120C236 55.935 184.065 4 120 4C55.935 4 4 55.935 4 120C4 184.065 55.935 236 120 236Z" fill="#F2F2F2"/>
<g opacity="0.5">
<path opacity="0.5" d="M230.285 97.522V97.191L121.385 13.447C121.316 13.3963 121.233 13.3689 121.147 13.3689C121.062 13.3689 120.979 13.3963 120.91 13.447L12 97.191V226.991H12.208V227.199H230.5V97.399L230.285 97.522Z" fill="url(#paint0_linear)"/>
</g>
<path d="M226.528 223.375H15.776V98.0409L121.152 17.0129L226.528 98.0409V223.375Z" fill="white"/>
<path d="M218.944 215.947H23.36V99.6341L121.152 24.4341L218.944 99.6341V215.947Z" fill="#657EE4"/>
<path d="M154.328 22.6999L35.022 53.9771L74.8018 205.716L194.108 174.439L154.328 22.6999Z" fill="#E0E0E0"/>
<path d="M183.42 45.752H60.082V202.619H183.42V45.752Z" fill="#F5F5F5"/>
<path opacity="0.05" d="M16.774 98.241L122.15 160.908L16.774 223.575V98.241Z" fill="black"/>
<path d="M15.976 98.241L121.352 160.908L15.976 223.575V98.241Z" fill="white"/>
<path opacity="0.05" d="M225.93 98.241L120.554 160.908L225.93 223.575V98.241Z" fill="black"/>
<path d="M226.728 98.241L121.352 160.908L226.728 223.575V98.241Z" fill="white"/>
<path opacity="0.05" d="M15.976 221.579L121.352 139.354L226.728 221.579H15.976Z" fill="black"/>
<path d="M15.976 223.574L121.352 141.349L226.728 223.574H15.976Z" fill="white"/>
<path d="M67.9898 60.305L67.983 61.928L175.12 62.3768L175.127 60.7538L67.9898 60.305Z" fill="#E0E0E0"/>
<path opacity="0.7" d="M67.9478 69.6409L67.941 71.2639L121.508 71.4883L121.514 69.8653L67.9478 69.6409Z" fill="#657EE4"/>
<path d="M67.9128 78.9739L67.906 80.5969L164.49 81.0015L164.497 79.3785L67.9128 78.9739Z" fill="#E0E0E0"/>
<path opacity="0.7" d="M67.8718 88.3091L67.865 89.9321L91.4008 90.0307L91.4076 88.4077L67.8718 88.3091Z" fill="#657EE4"/>
<path d="M67.8348 97.6431L67.828 99.2661L174.965 99.7149L174.972 98.0919L67.8348 97.6431Z" fill="#E0E0E0"/>
<path d="M67.7968 106.98L67.79 108.603L174.927 109.052L174.934 107.429L67.7968 106.98Z" fill="#E0E0E0"/>
<defs>
<linearGradient id="paint0_linear" x1="169.101" y1="-39.4471" x2="169.101" y2="174.383" gradientUnits="userSpaceOnUse">
<stop stop-color="#808080" stop-opacity="0.251"/>
<stop offset="0.54" stop-color="#808080" stop-opacity="0.122"/>
<stop offset="1" stop-color="#808080" stop-opacity="0.102"/>
</linearGradient>
</defs>
</svg>
