<svg xmlns="http://www.w3.org/2000/svg" xmlns:xlink="http://www.w3.org/1999/xlink" width="690.649" height="414.59" viewBox="0 0 690.649 414.59">
  <defs>
    <linearGradient id="linear-gradient" x1="0.5" y1="-0.931" x2="0.5" y2="0.069" gradientUnits="objectBoundingBox">
      <stop offset="0" stop-color="gray" stop-opacity="0.251"/>
      <stop offset="0.54" stop-color="gray" stop-opacity="0.122"/>
      <stop offset="1" stop-color="gray" stop-opacity="0.102"/>
    </linearGradient>
    <linearGradient id="linear-gradient-2" y1="-19.684" y2="-18.684" xlink:href="#linear-gradient"/>
    <linearGradient id="linear-gradient-3" y1="-2.003" y2="-1.003" xlink:href="#linear-gradient"/>
    <linearGradient id="linear-gradient-4" y1="-6.701" y2="-5.701" xlink:href="#linear-gradient"/>
    <linearGradient id="linear-gradient-5" x1="40.476" y1="-100.738" x2="40.476" y2="-99.739" xlink:href="#linear-gradient"/>
    <linearGradient id="linear-gradient-6" x1="20.654" y1="-63.23" x2="20.654" y2="-62.231" xlink:href="#linear-gradient"/>
    <linearGradient id="linear-gradient-7" x1="25.635" y1="-84.991" x2="25.635" y2="-83.991" xlink:href="#linear-gradient"/>
    <linearGradient id="linear-gradient-8" x1="61.649" y1="-107.399" x2="61.649" y2="-106.399" xlink:href="#linear-gradient"/>
    <linearGradient id="linear-gradient-9" x1="52.931" y1="-98.68" x2="52.931" y2="-97.68" xlink:href="#linear-gradient"/>
    <linearGradient id="linear-gradient-10" x1="47.8" y1="-93.551" x2="47.8" y2="-92.552" xlink:href="#linear-gradient"/>
    <linearGradient id="linear-gradient-11" x1="47.801" y1="-93.552" x2="47.801" y2="-92.552" xlink:href="#linear-gradient"/>
    <linearGradient id="linear-gradient-12" x1="62.162" y1="-107.912" x2="62.162" y2="-106.912" xlink:href="#linear-gradient"/>
    <linearGradient id="linear-gradient-13" x1="72.42" y1="-118.169" x2="72.42" y2="-117.17" xlink:href="#linear-gradient"/>
    <linearGradient id="linear-gradient-14" x1="80.628" y1="-126.377" x2="80.628" y2="-125.377" xlink:href="#linear-gradient"/>
    <linearGradient id="linear-gradient-15" x1="85.755" y1="-131.505" x2="85.755" y2="-130.507" xlink:href="#linear-gradient"/>
  </defs>
  <g id="gateway-timeout-dark" transform="translate(-357.912 -81.91)">
    <g id="Group_3853" data-name="Group 3853">
      <circle id="Ellipse_847" data-name="Ellipse 847" cx="194" cy="194" r="194" transform="translate(505 81.91)" fill="#3c414e"/>
      <path id="Path_1975" data-name="Path 1975" d="M-238.915,5.984c61.9,0,104.353-38.711,104.353-95.75,0-51.428-36.841-88.457-88.27-88.457-27.3,0-49.558,11.034-60.779,29.174h-1.122l6.545-75.927h127.355v-44.883H-323.07l-12.343,158.4h49.184c9.164-16.27,25.995-26.369,47.688-26.369,29.548,0,50.119,20.384,50.119,49.371,0,29.361-20.571,49.745-50.306,49.745-25.995,0-46-15.335-49.184-38.711h-52.176C-338.592-28.426-296.7,5.984-238.915,5.984Zm234.707,0c68.446,0,109.963-54.42,109.963-141.568S63.865-276.029-4.208-276.029s-110.15,53.485-110.15,140.633C-114.358-48.062-72.654,5.984-4.208,5.984Zm0-45.257C-37.5-39.272-56.945-73.5-56.945-135.4c0-61.34,19.823-95.376,52.737-95.376,33.1,0,52.55,33.849,52.55,95.376C48.343-73.5,29.08-39.272-4.208-39.272ZM261.356,0h53.672V-49.558h35.532v-45.07H315.029v-175.23H235.362c-55.355,81.35-84.716,128.477-108.28,173.173v47.127H261.356Zm-85.09-94.628c21.506-40.208,46-78.545,85.09-134.835h1.122V-93.132H176.266Z" transform="translate(698 472)" fill="#fff"/>
      <g id="Group_3852" data-name="Group 3852" transform="translate(-522 180)">
        <circle id="Ellipse_880" data-name="Ellipse 880" cx="65.75" cy="65.75" r="65.75" transform="translate(1058 185)" fill="url(#linear-gradient)"/>
        <circle id="Ellipse_881" data-name="Ellipse 881" cx="63.975" cy="63.975" r="63.975" transform="translate(1059.775 186.775)" fill="#ec5858"/>
        <circle id="Ellipse_882" data-name="Ellipse 882" cx="51.979" cy="51.979" r="51.979" transform="translate(1071.771 198.771)" fill="#fff"/>
        <circle id="Ellipse_883" data-name="Ellipse 883" cx="3.108" cy="3.108" r="3.108" transform="translate(1120.642 247.642)" fill="url(#linear-gradient-2)"/>
        <line id="Line_586" data-name="Line 586" x1="16.883" y2="39.983" transform="translate(1124.195 210.767)" fill="none"/>
        <path id="Path_1982" data-name="Path 1982" d="M171.526,423.51l-1.916-.644L186.857,382.5l1.916.9Z" transform="translate(953.396 -172.377)" fill="url(#linear-gradient-3)"/>
        <rect id="Rectangle_1428" data-name="Rectangle 1428" width="43.402" height="1.334" transform="translate(1123.577 250.478) rotate(-67.11)" fill="#d0d2d5"/>
        <line id="Line_587" data-name="Line 587" x2="11.107" y2="20.436" transform="translate(1124.195 251.195)" fill="none"/>
        <path id="Path_1983" data-name="Path 1983" d="M181.725,509.963l-11.115-20.7,1.533-.767,11.5,20.313Z" transform="translate(952.78 -237.75)" fill="url(#linear-gradient-4)"/>
        <rect id="Rectangle_1429" data-name="Rectangle 1429" width="1.334" height="23.261" transform="translate(1123.602 251.526) rotate(-28.52)" fill="#d0d2d5"/>
        <circle id="Ellipse_884" data-name="Ellipse 884" cx="1.334" cy="1.334" r="1.334" transform="translate(1170.842 250.75)" fill="#6c63ff"/>
        <circle id="Ellipse_885" data-name="Ellipse 885" cx="1.732" cy="1.732" r="1.732" transform="matrix(0.5, -0.866, 0.866, 0.5, 1079.671, 227.436)" fill="url(#linear-gradient-5)"/>
        <circle id="Ellipse_886" data-name="Ellipse 886" cx="1.732" cy="1.732" r="1.732" transform="translate(1080.114 275.48) rotate(-30)" fill="url(#linear-gradient-6)"/>
        <circle id="Ellipse_887" data-name="Ellipse 887" cx="1.732" cy="1.732" r="1.732" transform="translate(1073.595 250.351)" fill="url(#linear-gradient-7)"/>
        <circle id="Ellipse_888" data-name="Ellipse 888" cx="1.732" cy="1.732" r="1.732" transform="translate(1097.984 207.3)" fill="url(#linear-gradient-8)"/>
        <circle id="Ellipse_889" data-name="Ellipse 889" cx="1.732" cy="1.732" r="1.732" transform="translate(1121.975 201.082)" fill="url(#linear-gradient-9)"/>
        <circle id="Ellipse_890" data-name="Ellipse 890" cx="1.732" cy="1.732" r="1.732" transform="translate(1145.965 207.301)" fill="url(#linear-gradient-10)"/>
        <circle id="Ellipse_891" data-name="Ellipse 891" cx="1.732" cy="1.732" r="1.732" transform="translate(1163.1 226.171) rotate(-30)" fill="url(#linear-gradient-11)"/>
        <circle id="Ellipse_892" data-name="Ellipse 892" cx="1.732" cy="1.732" r="1.732" transform="translate(1162.658 275.484) rotate(-30)" fill="url(#linear-gradient-12)"/>
        <circle id="Ellipse_893" data-name="Ellipse 893" cx="1.732" cy="1.732" r="1.732" transform="translate(1144.442 292.809) rotate(-30)" fill="url(#linear-gradient-13)"/>
        <circle id="Ellipse_894" data-name="Ellipse 894" cx="1.732" cy="1.732" r="1.732" transform="translate(1121.339 298.142) rotate(-30)" fill="url(#linear-gradient-14)"/>
        <circle id="Ellipse_895" data-name="Ellipse 895" cx="1.732" cy="1.732" r="1.732" transform="translate(1098.239 292.811) rotate(-30)" fill="url(#linear-gradient-15)"/>
        <path id="Path_1984" data-name="Path 1984" d="M38.585,409.036a51.987,51.987,0,0,1,97.075-25.863,51.987,51.987,0,1,0-92.859,46.4A51.805,51.805,0,0,1,38.585,409.036Z" transform="translate(1035.854 -153.399)" fill="#e0e0e0" opacity="0.591" style="isolation: isolate"/>
        <circle id="Ellipse_896" data-name="Ellipse 896" cx="1.334" cy="1.334" r="1.334" transform="translate(1122.416 201.435)" fill="#262a33"/>
        <circle id="Ellipse_897" data-name="Ellipse 897" cx="1.334" cy="1.334" r="1.334" transform="translate(1146.407 207.862)" fill="#262a33"/>
        <circle id="Ellipse_898" data-name="Ellipse 898" cx="1.334" cy="1.334" r="1.334" transform="translate(1163.479 226.271) rotate(-30)" fill="#262a33"/>
        <circle id="Ellipse_899" data-name="Ellipse 899" cx="1.334" cy="1.334" r="1.334" transform="translate(1163.202 276.603) rotate(-60)" fill="#262a33"/>
        <circle id="Ellipse_900" data-name="Ellipse 900" cx="1.334" cy="1.334" r="1.334" transform="translate(1144.986 292.863) rotate(-30)" fill="#262a33"/>
        <circle id="Ellipse_901" data-name="Ellipse 901" cx="1.334" cy="1.334" r="1.334" transform="translate(1098.425 207.866)" fill="#262a33"/>
        <circle id="Ellipse_902" data-name="Ellipse 902" cx="1.334" cy="1.334" r="1.334" transform="translate(1080.378 227.249) rotate(-60)" fill="#262a33"/>
        <circle id="Ellipse_903" data-name="Ellipse 903" cx="1.732" cy="1.732" r="1.732" transform="translate(1169.767 251.495) rotate(-30)" fill="#262a33"/>
        <circle id="Ellipse_904" data-name="Ellipse 904" cx="1.334" cy="1.334" r="1.334" transform="translate(1080.659 275.626) rotate(-30)" fill="#262a33"/>
        <circle id="Ellipse_905" data-name="Ellipse 905" cx="1.334" cy="1.334" r="1.334" transform="translate(1098.87 293.842) rotate(-60)" fill="#262a33"/>
        <circle id="Ellipse_906" data-name="Ellipse 906" cx="1.334" cy="1.334" r="1.334" transform="translate(1073.994 250.75)" fill="#262a33"/>
        <circle id="Ellipse_907" data-name="Ellipse 907" cx="1.334" cy="1.334" r="1.334" transform="translate(1122.416 297.394)" fill="#262a33"/>
        <circle id="Ellipse_908" data-name="Ellipse 908" cx="2.223" cy="2.223" r="2.223" transform="translate(1121.527 248.527)" fill="#262a33"/>
      </g>
    </g>
  </g>
</svg>
