<svg xmlns="http://www.w3.org/2000/svg" width="232" height="256.641" viewBox="0 0 232 256.641">
  <g id="generic-error-dark" transform="translate(-669 -277.268)">
    <g id="Group_3867" data-name="Group 3867" transform="translate(0 -14)">
      <circle id="Ellipse_847" data-name="Ellipse 847" cx="116" cy="116" r="116" transform="translate(669 315.91)" fill="#3c414e"/>
      <g id="Group_3557" data-name="Group 3557" transform="translate(61.289 -12.152)">
        <g id="Group_3558" data-name="Group 3558" transform="translate(652.676 303.42)">
          <path id="Path_1839" data-name="Path 1839" d="M33.212,0A33.212,33.212,0,1,1,0,33.212,33.212,33.212,0,0,1,33.212,0Z" transform="translate(54.771 160.107)" fill="#e84949"/>
          <path id="Path_1779" data-name="Path 1779" d="M271.77,144.006h0A26.037,26.037,0,0,1,239.7,129.912l-36-80.849A34.862,34.862,0,0,1,221.37,3.035q1.517-.675,3.092-1.2h0a34.863,34.863,0,0,1,45.11,25.439L288.9,113.635A26.037,26.037,0,0,1,271.77,144.006Z" transform="translate(-200.68 -0.011)" fill="#e84949"/>
          <path id="Path_1976" data-name="Path 1976" d="M26.647,0A26.647,26.647,0,1,1,0,26.647,26.647,26.647,0,0,1,26.647,0Z" transform="translate(60.107 163.011)" fill="#ec5858"/>
          <path id="Path_1781" data-name="Path 1781" d="M272.894,138.207h0a23.89,23.89,0,0,1-29.423-12.931L210.441,51.095a31.987,31.987,0,0,1,16.21-42.232q1.391-.62,2.837-1.1h0A31.989,31.989,0,0,1,270.877,31.1l17.732,79.243A23.89,23.89,0,0,1,272.894,138.207Z" transform="translate(-204.969 -3.741)" fill="#ec5858"/>
        </g>
      </g>
    </g>
  </g>
</svg>
