<svg width="240" height="180" viewBox="0 0 240 180" fill="none" xmlns="http://www.w3.org/2000/svg">
<g clip-path="url(#clip0)">
<circle cx="120" cy="90" r="90" fill="#3C414E"/>
<g filter="url(#filter0_dd)">
<path d="M37.2438 24.7979C37.2053 24.2469 37.6207 23.7691 38.1716 23.7305L134.935 16.9642C138.241 16.733 141.108 19.2254 141.339 22.531L150.408 152.214C150.639 155.52 148.146 158.387 144.841 158.618L48.0771 165.385C47.5261 165.423 47.0483 165.008 47.0097 164.457L37.2438 24.7979Z" fill="#2E323D"/>
</g>
<rect width="2" height="142" transform="matrix(-0.997564 0.0697565 0.0697565 0.997564 47.1497 23.1028)" fill="#3C414E"/>
<path d="M78.5398 99.2755C78.4891 98.551 78.8352 97.8559 79.444 97.4597L86.6526 92.7686C86.9375 92.5832 87.2649 92.4735 87.604 92.4498L100.536 91.5455C100.875 91.5218 101.214 91.5849 101.522 91.7288L109.314 95.371C109.972 95.6786 110.411 96.3188 110.462 97.0433L110.798 101.855C110.875 102.957 110.045 103.912 108.943 103.989L81.0108 105.943C79.909 106.02 78.9533 105.189 78.8762 104.087L78.5398 99.2755Z" fill="#3C414E"/>
<path d="M103.139 78.3317C103.524 83.8411 99.37 88.6197 93.8606 89.0049C88.3512 89.3902 83.5727 85.2363 83.1874 79.7269C82.8022 74.2175 86.9561 69.4389 92.4655 69.0537C97.9749 68.6684 102.753 72.8223 103.139 78.3317Z" fill="#3C414E"/>
<path d="M218.084 87.165C218.199 86.7626 218.524 86.4544 218.931 86.3598L223.76 85.2398C223.951 85.1955 224.15 85.2006 224.338 85.2546L231.521 87.3136C231.709 87.3676 231.88 87.4687 232.019 87.6074L235.521 91.1156C235.816 91.4119 235.928 91.8452 235.813 92.2476L235.047 94.9199C234.871 95.5318 234.233 95.8857 233.621 95.7103L218.108 91.263C217.496 91.0875 217.142 90.4492 217.318 89.8372L218.084 87.165Z" fill="#788EE8"/>
<path d="M235.535 80.67C234.657 83.7299 231.466 85.4993 228.406 84.622C225.346 83.7448 223.577 80.5532 224.454 77.4934C225.331 74.4335 228.523 72.6641 231.583 73.5413C234.642 74.4185 236.412 77.6101 235.535 80.67Z" fill="#788EE8"/>
<path d="M181.531 113.383C181.443 112.972 181.585 112.545 181.901 112.269L185.65 108.996C185.798 108.866 185.977 108.777 186.169 108.736L193.505 107.167C193.698 107.126 193.897 107.134 194.085 107.192L198.845 108.646C199.247 108.769 199.551 109.1 199.639 109.511L200.222 112.24C200.356 112.865 199.958 113.48 199.333 113.614L183.488 117.002C182.863 117.136 182.248 116.737 182.114 116.112L181.531 113.383Z" fill="#788EE8"/>
<path d="M193.923 99.3848C194.591 102.51 192.6 105.585 189.474 106.254C186.349 106.922 183.274 104.93 182.605 101.805C181.937 98.6796 183.929 95.6043 187.054 94.936C190.179 94.2677 193.255 96.2595 193.923 99.3848Z" fill="#788EE8"/>
<path d="M174.958 47.8083C175.053 47.0025 175.577 46.3116 176.328 46.0034L185.216 42.3542C185.567 42.21 185.949 42.1577 186.326 42.2022L200.708 43.8998C201.085 43.9443 201.445 44.0842 201.753 44.3062L209.547 49.9246C210.205 50.3991 210.554 51.1931 210.459 51.9989L209.827 57.3498C209.683 58.5753 208.572 59.4514 207.347 59.3067L176.283 55.64C175.058 55.4953 174.181 54.3847 174.326 53.1592L174.958 47.8083Z" fill="#657EE4"/>
<path d="M206.314 29.9382C205.591 36.0653 200.037 40.446 193.91 39.7228C187.783 38.9995 183.402 33.4462 184.125 27.3191C184.849 21.192 190.402 16.8113 196.529 17.5345C202.656 18.2578 207.037 23.8111 206.314 29.9382Z" fill="#657EE4"/>
<path d="M124.772 87.6062L139.092 100.123C139.763 100.709 140.807 100.192 140.748 99.3032L140.389 93.9478C140.352 93.3912 140.759 92.9086 141.314 92.8524C146.386 92.3383 169.479 88.9192 177.485 68.8494C177.829 67.9871 176.879 67.2317 176.08 67.7047C156.352 79.3852 143.177 78.7143 140.006 78.3261C139.563 78.2718 139.244 77.9032 139.213 77.4579L138.865 72.481C138.805 71.6188 137.753 71.235 137.151 71.8546L124.654 84.7061C123.855 85.5279 123.909 86.8519 124.772 87.6062Z" fill="url(#paint0_linear)"/>
</g>
<defs>
<filter id="filter0_dd" x="29.1741" y="10.5457" width="129.652" height="164.909" filterUnits="userSpaceOnUse" color-interpolation-filters="sRGB">
<feFlood flood-opacity="0" result="BackgroundImageFix"/>
<feColorMatrix in="SourceAlpha" type="matrix" values="0 0 0 0 0 0 0 0 0 0 0 0 0 0 0 0 0 0 127 0"/>
<feOffset/>
<feGaussianBlur stdDeviation="0.5"/>
<feColorMatrix type="matrix" values="0 0 0 0 0 0 0 0 0 0 0 0 0 0 0 0 0 0 0.05 0"/>
<feBlend mode="normal" in2="BackgroundImageFix" result="effect1_dropShadow"/>
<feColorMatrix in="SourceAlpha" type="matrix" values="0 0 0 0 0 0 0 0 0 0 0 0 0 0 0 0 0 0 127 0"/>
<feOffset dy="2"/>
<feGaussianBlur stdDeviation="4"/>
<feColorMatrix type="matrix" values="0 0 0 0 0 0 0 0 0 0 0 0 0 0 0 0 0 0 0.1 0"/>
<feBlend mode="normal" in2="effect1_dropShadow" result="effect2_dropShadow"/>
<feBlend mode="normal" in="SourceGraphic" in2="effect2_dropShadow" result="shape"/>
</filter>
<linearGradient id="paint0_linear" x1="119.689" y1="86.1873" x2="176.681" y2="72.7553" gradientUnits="userSpaceOnUse">
<stop stop-color="#657EE4"/>
<stop offset="0.334622" stop-color="#657EE4"/>
<stop offset="1" stop-color="#657EE4" stop-opacity="0.2"/>
</linearGradient>
<clipPath id="clip0">
<rect width="240" height="180" fill="white"/>
</clipPath>
</defs>
</svg>
