<svg xmlns="http://www.w3.org/2000/svg" width="689.34" height="408.846" viewBox="0 0 689.34 408.846">
  <g id="internal-server-error" transform="translate(-356.322 -81.91)">
    <g id="Group_3850" data-name="Group 3850">
      <circle id="Ellipse_847" data-name="Ellipse 847" cx="194" cy="194" r="194" transform="translate(505 81.91)" fill="#f2f2f2"/>
      <path id="Path_1973" data-name="Path 1973" d="M-240.5,5.984c61.9,0,104.353-38.711,104.353-95.75,0-51.428-36.841-88.457-88.27-88.457-27.3,0-49.558,11.034-60.779,29.174h-1.122l6.545-75.927h127.355v-44.883H-324.66L-337-111.459h49.184c9.164-16.27,25.995-26.369,47.688-26.369,29.548,0,50.119,20.384,50.119,49.371,0,29.361-20.571,49.745-50.306,49.745-25.995,0-46-15.335-49.184-38.711h-52.176C-340.182-28.426-298.291,5.984-240.5,5.984Zm234.707,0c68.446,0,109.963-54.42,109.963-141.568S62.275-276.029-5.8-276.029s-110.15,53.485-110.15,140.633C-115.947-48.062-74.244,5.984-5.8,5.984Zm0-45.257c-33.288,0-52.737-34.223-52.737-96.124,0-61.34,19.823-95.376,52.737-95.376,33.1,0,52.55,33.849,52.55,95.376C46.753-73.5,27.491-39.272-5.8-39.272ZM237.7,5.984c68.446,0,109.963-54.42,109.963-141.568S305.772-276.029,237.7-276.029,127.549-222.544,127.549-135.4C127.549-48.062,169.253,5.984,237.7,5.984Zm0-45.257c-33.288,0-52.737-34.223-52.737-96.124,0-61.34,19.823-95.376,52.737-95.376,33.1,0,52.55,33.849,52.55,95.376C290.25-73.5,270.987-39.272,237.7-39.272Z" transform="translate(698 472)" fill="#262a33"/>
      <path id="Path_1862" data-name="Path 1862" d="M402.49,639.144H507.751a5.9,5.9,0,0,0,5.162-8.691l-52.6-97.738a5.891,5.891,0,0,0-10.375,0L397.3,630.453a5.9,5.9,0,0,0,5.188,8.691Zm59.328-17.86H448.423V607.9h13.395Zm0-22.318H448.423V572.183h13.395Z" transform="translate(342.402 -151.614)" fill="#ec5858"/>
      <path id="Path_1863" data-name="Path 1863" d="M402.49,639.144H507.751a5.9,5.9,0,0,0,5.162-8.691l-52.6-97.738a5.891,5.891,0,0,0-10.375,0L397.3,630.453a5.9,5.9,0,0,0,5.188,8.691Zm59.328-17.86H448.423V607.9h13.395Zm0-22.318H448.423V572.183h13.395Z" transform="translate(342.402 -151.614)" fill="#e84949"/>
      <path id="Path_1864" data-name="Path 1864" d="M402.286,640.347H503.9a5.693,5.693,0,0,0,4.983-8.39L458.1,537.608a5.687,5.687,0,0,0-10.015,0l-50.806,94.35a5.693,5.693,0,0,0,5.008,8.39Zm57.271-17.24h-12.93V610.182h12.93Zm0-21.544h-12.93V575.707h12.93Z" transform="translate(344.459 -149.591)" fill="#ec5858"/>
    </g>
  </g>
</svg>
