<svg width="48" height="48" viewBox="0 0 48 48" fill="none" xmlns="http://www.w3.org/2000/svg">
<path d="M23.1033 10.817C23.4701 10.0737 24.5299 10.0737 24.8967 10.817L28.1757 17.4609C28.3214 17.7561 28.6029 17.9606 28.9287 18.008L36.2607 19.0734C37.0809 19.1926 37.4084 20.2005 36.8149 20.7791L31.5094 25.9507C31.2737 26.1804 31.1662 26.5114 31.2218 26.8358L32.4743 34.1382C32.6144 34.9551 31.7569 35.5781 31.0233 35.1924L24.4653 31.7446C24.174 31.5915 23.826 31.5915 23.5347 31.7446L16.9767 35.1924C16.2431 35.5781 15.3856 34.9551 15.5257 34.1382L16.7782 26.8358C16.8338 26.5114 16.7263 26.1804 16.4906 25.9507L11.1851 20.7791C10.5916 20.2005 10.9191 19.1926 11.7393 19.0734L19.0713 18.008C19.3971 17.9606 19.6786 17.7561 19.8243 17.4609L23.1033 10.817Z" fill="url(#paint0_linear_5436_24526)"/>
<path d="M39.1549 10.5669L40.4955 9.0827C40.8657 8.67287 40.8336 8.04052 40.4237 7.67031C40.0139 7.30011 39.3815 7.33224 39.0113 7.74208L37.6707 9.22624C37.3005 9.63608 37.3326 10.2684 37.7425 10.6386C38.1523 11.0088 38.7847 10.9767 39.1549 10.5669Z" fill="#48D3FF"/>
<path d="M8.94975 34.5354L6.12132 31.707C5.7308 31.3164 5.09763 31.3164 4.70711 31.707C4.31658 32.0975 4.31658 32.7306 4.70711 33.1212L7.53553 35.9496C7.92606 36.3401 8.55922 36.3401 8.94975 35.9496C9.34027 35.5591 9.34027 34.9259 8.94975 34.5354Z" fill="#55E5B2"/>
<path d="M39.1209 41.9497L41.9493 39.1213C42.3398 38.7308 42.3398 38.0976 41.9493 37.7071C41.5588 37.3166 40.9256 37.3166 40.5351 37.7071L37.7067 40.5355C37.3161 40.9261 37.3161 41.5592 37.7067 41.9497C38.0972 42.3403 38.7303 42.3403 39.1209 41.9497Z" fill="#C867F5"/>
<path d="M20.5665 42.5413C20.4828 42.1957 20.222 41.9206 19.8814 41.8186L18.7967 41.4938C18.4537 41.3911 18.0818 41.4797 17.8219 41.7261L16.9912 42.5135C16.7343 42.7571 16.6253 43.1184 16.7046 43.4634L16.9644 44.5927C17.045 44.9432 17.3076 45.2234 17.6521 45.3265L18.7314 45.6497C19.0734 45.7521 19.4441 45.6644 19.704 45.4196L20.5508 44.6216C20.8123 44.3753 20.9215 44.0076 20.837 43.6585L20.5665 42.5413Z" fill="#FFA8A8"/>
<path d="M11.4 5.07624C12.1111 5.4868 12.1111 6.5132 11.4 6.92376L8.6 8.54034C7.88889 8.9509 7 8.4377 7 7.61658L7 4.38342C7 3.5623 7.88889 3.0491 8.6 3.45966L11.4 5.07624Z" fill="#FF69B8"/>
<defs>
<linearGradient id="paint0_linear_5436_24526" x1="24" y1="9" x2="24" y2="39" gradientUnits="userSpaceOnUse">
<stop stop-color="#FFE76C"/>
<stop offset="1" stop-color="#FFB94F"/>
</linearGradient>
</defs>
</svg>
