<svg xmlns="http://www.w3.org/2000/svg" xmlns:xlink="http://www.w3.org/1999/xlink" width="257.424" height="232" viewBox="0 0 257.424 232">
  <defs>
    <linearGradient id="linear-gradient" x1="0.5" y1="0.227" x2="0.5" y2="1.227" gradientUnits="objectBoundingBox">
      <stop offset="0" stop-color="gray" stop-opacity="0.251"/>
      <stop offset="0.54" stop-color="gray" stop-opacity="0.122"/>
      <stop offset="1" stop-color="gray" stop-opacity="0.102"/>
    </linearGradient>
  </defs>
  <g id="no-access-page-dark" transform="translate(-647.312 -280.91)">
    <g id="Group_3846" data-name="Group 3846">
      <circle id="Ellipse_847" data-name="Ellipse 847" cx="116" cy="116" r="116" transform="translate(660 280.91)" fill="#3c414e"/>
      <path id="Path_1980" data-name="Path 1980" d="M74.91,0V177.333H332.334V0Z" transform="translate(572.402 307.26)" fill="url(#linear-gradient)"/>
      <rect id="Rectangle_1426" data-name="Rectangle 1426" width="252.936" height="165.579" transform="translate(649.849 317.022)" fill="#454a58"/>
      <rect id="Rectangle_1427" data-name="Rectangle 1427" width="252.936" height="12.182" transform="translate(649.849 309.146)" fill="#2e323d"/>
      <path id="Path_1959" data-name="Path 1959" d="M97.729,53.685V36.553C97.729,20.808,83.434,8,65.862,8H61.613C44.041,8,29.747,20.808,29.747,36.553V53.685C22.706,53.685,17,58.8,17,65.106v38.07c0,6.308,5.706,11.421,12.747,11.421H97.729c7.04,0,12.747-5.113,12.747-11.421V65.106C110.475,58.8,104.769,53.685,97.729,53.685ZM42.493,36.553c0-9.447,8.577-17.132,19.12-17.132h4.249c10.543,0,19.12,7.685,19.12,17.132V53.685H42.493ZM67.987,86.89v8.672a4.275,4.275,0,0,1-8.5,0V86.89a7.492,7.492,0,0,1-4.249-6.556c0-4.2,3.811-7.614,8.5-7.614s8.5,3.415,8.5,7.614A7.494,7.494,0,0,1,67.987,86.89Z" transform="translate(712 335.8)" fill="#ec5858"/>
      <circle id="Ellipse_877" data-name="Ellipse 877" cx="2.953" cy="2.953" r="2.953" transform="translate(656.521 312.099)" fill="#657ee4"/>
      <circle id="Ellipse_878" data-name="Ellipse 878" cx="2.953" cy="2.953" r="2.953" transform="translate(664.644 312.099)" fill="#eac819"/>
      <circle id="Ellipse_879" data-name="Ellipse 879" cx="2.953" cy="2.953" r="2.953" transform="translate(672.766 312.099)" fill="#ec5858"/>
    </g>
  </g>
</svg>
