<svg xmlns="http://www.w3.org/2000/svg" xmlns:xlink="http://www.w3.org/1999/xlink" width="257.424" height="232" viewBox="0 0 257.424 232">
  <defs>
    <linearGradient id="linear-gradient" x1="0.5" y1="0.227" x2="0.5" y2="1.227" gradientUnits="objectBoundingBox">
      <stop offset="0" stop-color="gray" stop-opacity="0.251"/>
      <stop offset="0.54" stop-color="gray" stop-opacity="0.122"/>
      <stop offset="1" stop-color="gray" stop-opacity="0.102"/>
    </linearGradient>
  </defs>
  <g id="no-oragnization" transform="translate(-647.312 -280.91)">
    <g id="Group_3847" data-name="Group 3847">
      <circle id="Ellipse_847" data-name="Ellipse 847" cx="116" cy="116" r="116" transform="translate(660 280.91)" fill="#f2f2f2"/>
      <path id="Path_1980" data-name="Path 1980" d="M74.91,0V177.333H332.334V0Z" transform="translate(572.402 307.26)" fill="url(#linear-gradient)"/>
      <rect id="Rectangle_1426" data-name="Rectangle 1426" width="252.936" height="165.579" transform="translate(649.849 317.022)" fill="#fff"/>
      <rect id="Rectangle_1427" data-name="Rectangle 1427" width="252.936" height="12.182" transform="translate(649.849 309.146)" fill="#eee"/>
      <path id="Path_1981" data-name="Path 1981" d="M410.463,112.338a46.285,46.285,0,0,0-86.536-12.362,37.043,37.043,0,0,0,4.019,73.872H408.3a31,31,0,0,0,30.906-30.906A30.528,30.528,0,0,0,410.463,112.338ZM374.92,130.565v23.488h-19.78V130.565H334.125l30.906-30.89,30.906,30.906Z" transform="translate(410.967 273.008)" fill="#526ee0"/>
      <circle id="Ellipse_874" data-name="Ellipse 874" cx="2.953" cy="2.953" r="2.953" transform="translate(656.521 312.099)" fill="#657ee4"/>
      <circle id="Ellipse_875" data-name="Ellipse 875" cx="2.953" cy="2.953" r="2.953" transform="translate(664.644 312.099)" fill="#eac819"/>
      <circle id="Ellipse_876" data-name="Ellipse 876" cx="2.953" cy="2.953" r="2.953" transform="translate(672.766 312.099)" fill="#ec5858"/>
    </g>
  </g>
</svg>
