<svg xmlns="http://www.w3.org/2000/svg" width="232" height="263.826" viewBox="0 0 232 263.826">
    <defs>
        <style>
            .cls-1{fill:none}.cls-2{clip-path:url(#clip-path)}.cls-3{fill:#f2f2f2}.cls-4{fill:#dde6ec}.cls-5{fill:#657ee4}.cls-6{fill:#eac819}.cls-7{opacity:.2}.cls-8{fill:#526ee0}.cls-9{fill:#f55f44;opacity:.5}.cls-10{fill:#6c63ff}.cls-11{fill:#ffb9b9}.cls-12{fill:#575a89}.cls-13{opacity:.1}.cls-14{fill:#2f2e41}
        </style>
        <clipPath id="clip-path">
            <path d="M0 0h232v263.826H0z" class="cls-1"/>
        </clipPath>
    </defs>
    <g id="Component_30_1" class="cls-2" data-name="Component 30 – 1">
        <path id="Path_1912" d="M116 0A116 116 0 1 1 0 116 116 116 0 0 1 116 0z" class="cls-3" data-name="Path 1912" transform="translate(0 31.826)"/>
        <g id="Group_3564" data-name="Group 3564" transform="translate(86.231 28.614)">
            <path id="Rectangle_2" d="M0 0h11.478v158.882H0z" class="cls-4" data-name="Rectangle 2" transform="translate(64.673 73.899)"/>
            <path id="Path_1840" d="M270.85 158.06h60.821a7.451 7.451 0 0 1 7.451 7.451v37.03H270.85V158.06z" class="cls-5" data-name="Path 1840" transform="translate(-221.243 -128.715)"/>
            <path id="Path_1841" d="M189.41 158.06a16.5 16.5 0 0 1 16.5 16.5v19.905a8.075 8.075 0 0 1-8.075 8.075h-16.85a8.075 8.075 0 0 1-8.075-8.075V174.56a16.5 16.5 0 0 1 16.5-16.5z" class="cls-5" data-name="Path 1841" transform="translate(-141.241 -128.715)"/>
            <path id="Path_1844" d="M445.868 125.75H434.39v20.8h4.3v-11.474h7.174z" class="cls-6" data-name="Path 1844" transform="translate(-354.83 -102.47)"/>
            <path id="Path_1845" d="M233.981 159.04a16.447 16.447 0 0 0-6.291 1.245 16.623 16.623 0 0 1 2.346-.169 16.5 16.5 0 0 1 16.5 16.5v26.191h3.945V175.54a16.5 16.5 0 0 0-16.5-16.5z" class="cls-7" data-name="Path 1845" transform="translate(-185.988 -129.516)"/>
            <path id="Path_1846" d="M68.99 369.58h47.349v5.74H63.25a5.74 5.74 0 0 1 5.74-5.74z" class="cls-8" data-name="Path 1846" transform="translate(-51.666 -301.247)"/>
        </g>
        <g id="Group_3565" data-name="Group 3565" transform="translate(28)">
            <ellipse id="Ellipse_863" cx="1.284" cy="1.284" class="cls-9" data-name="Ellipse 863" rx="1.284" ry="1.284" transform="translate(48.421 31.794)"/>
            <path id="Rectangle_22" d="M0 0h12.402v9.646H0z" class="cls-10" data-name="Rectangle 22" transform="rotate(-87.779 41.963 5.29)"/>
            <path id="Path_1889" d="M315.871 234.05s13.348-6.378 13.134-.87-13.455 9.132-13.455 9.132z" class="cls-11" data-name="Path 1889" transform="translate(-236.858 -156.025)"/>
            <path id="Path_1890" d="M227.078 335.947s6.3 15.413 8.625 26.536 5.87 26.43 1.312 37.285-17.517 42.76-17.65 46.2 1.11 6.938-1.644 6.831-17.74-4.825-18.349-6.917 5.113-7.386 5.113-7.386l14.128-44.271-14.741-28.842-10.632 43.03-2.083 53.7s-10.22-3.155-11.7-.454c0 0-4.579-6.383-5.161-9.164s2.162-55.767 2.162-55.767-9.381-60.352-1.808-60.058 37.234-17.86 52.428-.723z" class="cls-5" data-name="Path 1890" transform="translate(-155.388 -211.319)"/>
            <path id="Path_1891" d="M250.21 602.478s6.986 15.44 7.648 16.155 5.214 7.787 1.772 7.654-11.57-3.9-17.553-9.645-13.871-15.707-13.156-16.369 5.615-2.541 5.615-2.541z" class="cls-12" data-name="Path 1891" transform="translate(-187.772 -363.749)"/>
            <path id="Path_1892" d="M196.512 626.807s.422 6.911 1.691 9.719 1.11 6.938-2.332 6.8-12.339-1.857-12.339-1.857-.528-4.158.187-4.819 3.763-8.128 2.466-10.247 10.327.404 10.327.404z" class="cls-12" data-name="Path 1892" transform="translate(-161.986 -379.507)"/>
            <path id="Path_1893" d="M187.842 111.254s-7.339 11.437-10.2 14.085 5.188 8.475 5.188 8.475l14.4 1.938s-.181-13.108.561-14.458-9.949-10.04-9.949-10.04z" class="cls-11" data-name="Path 1893" transform="translate(-158.41 -88.245)"/>
            <path id="Path_1894" d="M194.21 141.648s-2.968 5.4-5.721 5.294-17-6.175-17.607-8.267-4.718 14.986-4.718 14.986L201.018 215l8.5-5.876-4.118-36.014-3.383-19.438z" class="cls-5" data-name="Path 1894" transform="translate(-152.256 -103.673)"/>
            <path id="Path_1895" d="M155.379 191.133a19.286 19.286 0 0 1 2.138 9.047c-.005.138-.01.275-.023.413-.33 6.372-2.677 13.742-3.519 19.1-.611 3.845-.437 6.651 1.813 7.31 5.454 1.59-.8 2.727 20.307 9.751s24.785.961 24.839-.416-2.989-11.838-2.273-12.5 10.007 8.662 12.814 7.392.32-8.262.32-8.262-6.325-14.723-6.195-18.168-9.579-19.678-9.579-19.678l-6.607-43.006s-2.54-5.615-5.956-6.437a8.46 8.46 0 0 0-6.25 1.137l5.716 12.633 6.03 22.3-1.009 8.235s-7.013-14.751-11.618-20.446-14.426-19.176-14.426-19.176-2.293-7.736-.562-10.047-7.219-2.666-11.035 6.839c-2.023 5.038-5.306 12.55-7.363 19.545-1.833 6.2-2.7 11.989-.883 15.3 2.779 5.059 9.761 11.708 13.321 19.134z" class="cls-12" data-name="Path 1895" transform="translate(-138.039 -98.262)"/>
            <path id="Path_1896" d="M142.061 206.012c2.776 5.058 9.758 11.707 13.317 19.133.929-3.35 2.064-6.815 2.064-6.815s4.35-23.275-8.517-29.29a8.611 8.611 0 0 0-5.981 1.671c-1.833 6.197-2.699 11.989-.883 15.301z" class="cls-13" data-name="Path 1896" transform="translate(-138.039 -132.274)"/>
            <path id="Path_1897" d="M259.764 224.845l10.909 3.181 15.147.587 1.558 13.161-24.892 1.793s-6.218-17.479-2.722-18.722z" class="cls-12" data-name="Path 1897" transform="translate(-204.661 -152.574)"/>
            <path id="Path_1898" d="M213.614 326.884s14.594 2.421 11.263 6.813-16.259-.225-16.259-.225z" class="cls-11" data-name="Path 1898" transform="translate(-176.3 -210.361)"/>
            <path id="Path_1899" d="M174.36 294.158c-.33 6.372-2.677 13.742-3.519 19.1 4.649 4.4 9.07 8.281 10.736 8.346 3.443.133 8.977-.342 11.016.427s3.234-12.286 3.234-12.286-1.216-4.184-6.644-6.463a75.609 75.609 0 0 1-14.823-9.124z" class="cls-13" data-name="Path 1899" transform="translate(-154.906 -191.827)"/>
            <path id="Path_1900" d="M145.142 179.506s-11.651-1.831-11.021 17.5-1.228 31.67 3.458 35.3 19.907 20.078 23.35 20.211 8.977-.341 11.015.427 3.235-12.286 3.235-12.286-1.217-4.185-6.645-6.464-18.215-10.359-18.108-13.113 3.234-12.281 3.234-12.281 4.35-23.279-8.518-29.294z" class="cls-12" data-name="Path 1900" transform="translate(-134.096 -126.871)"/>
            <ellipse id="Ellipse_864" cx="15.158" cy="15.158" class="cls-11" data-name="Ellipse 864" rx="15.158" ry="15.158" transform="rotate(-80.8 33.089 5.55)"/>
            <path id="Path_1901" d="M213.253 61.258a2.928 2.928 0 0 0 1.275.64.91.91 0 0 0 1.054-.73 3.777 3.777 0 0 0 1.446 1.855c.708.369 1.8.06 1.905-.732a3.342 3.342 0 0 0 .769 1.624 1.152 1.152 0 0 0 1.619.054 41.577 41.577 0 0 0-.216 5.157 6.567 6.567 0 0 1-1.856 4.675c-1.9 1.649-4.745 1.242-7.238.93a2.194 2.194 0 0 0-1.134.062c-.934.4-.891 1.7-.9 2.711a7.535 7.535 0 0 1-6.6 7.155 3.777 3.777 0 0 1-2.807-.685c-.708-.6-1.069-1.578-1.88-2.028-1.319-.733-2.919.336-3.884 1.5s-1.915 2.589-3.41 2.8c-1.976.281-3.482-1.733-4.22-3.587a20.912 20.912 0 0 1 .415-16.25c4.127-8.999 18.223-10.421 25.662-5.151z" class="cls-14" data-name="Path 1901" transform="translate(-163.34 -58.197)"/>
        </g>
    </g>
</svg>
