<svg xmlns="http://www.w3.org/2000/svg" xmlns:xlink="http://www.w3.org/1999/xlink" width="272.01" height="270.588" viewBox="0 0 272.01 270.588">
  <defs>
    <clipPath id="clip-path">
      <path id="Path_5292" data-name="Path 5292" d="M0,0H272.01V270.588H0Z" fill="none"/>
    </clipPath>
    <linearGradient id="linear-gradient" x1="2.684" y1="6.471" x2="2.684" y2="7.295" gradientUnits="objectBoundingBox">
      <stop offset="0" stop-color="gray" stop-opacity="0.251"/>
      <stop offset="0.54" stop-color="gray" stop-opacity="0.122"/>
      <stop offset="1" stop-color="gray" stop-opacity="0.102"/>
    </linearGradient>
    <linearGradient id="linear-gradient-2" x1="1.607" y1="-0.945" x2="1.607" y2="0.099" href="#linear-gradient"/>
  </defs>
  <g id="Component_27_1" clip-path="url(#clip-path)">
    <circle id="Ellipse_847" cx="116" cy="116" r="116" transform="translate(29.25 38.588)" fill="#454a58"/>
    <path id="Rectangle_2" d="M130.945,151.113h23.24V270.588h-23.24Z" fill="#353945"/>
    <path id="Path_1840" d="M270.85,158.06H394a15.085,15.085,0,0,1,15.085,15.085V248.12H270.85V158.06Z" transform="translate(-170.41 -98.644)" fill="#657ee4"/>
    <path id="Path_1841" d="M206.318,158.06a33.409,33.409,0,0,1,33.408,33.407v40.3a16.35,16.35,0,0,1-16.35,16.35H189.26a16.35,16.35,0,0,1-16.35-16.35v-40.3a33.409,33.409,0,0,1,33.407-33.408Z" transform="translate(-108.789 -98.644)" fill="#657ee4"/>
    <path id="Path_1844" d="M184.326,47.135h-23.24V89.258h8.71V66.018h14.53Z" fill="#eac819"/>
    <path id="Path_1845" d="M240.428,159.04a33.3,33.3,0,0,0-12.738,2.522,33.4,33.4,0,0,1,38.158,33.066v53.03h7.988v-55.21A33.408,33.408,0,0,0,240.428,159.04Z" transform="translate(-143.255 -99.262)" opacity="0.2"/>
    <path id="Path_1846" d="M74.872,369.58H170.74V381.2H63.25a11.622,11.622,0,0,1,11.62-11.62Z" transform="translate(-39.795 -231.225)" fill="#526ee0"/>
    <path id="Path_1848" d="M243.773,26.173l-1.1.538.126-.226-.1.03.137-.1L257.681,0l7.587,6.471L271.78,12.5l-1.869.912,2.1,3.7Z" fill="url(#linear-gradient)"/>
    <path id="Path_1849" d="M264.519,7.161l5.948,5.518L243.5,26.085,257.851,7.691Z" fill="#6c63ff"/>
    <path id="Path_1850" d="M264.519,7.161l5.948,5.518L243.5,26.085,257.851,7.691Z" opacity="0.2"/>
    <path id="Path_1851" d="M257.577,1.242,243.5,26.084,264.519,7.16Z" fill="#657ee4"/>
    <path id="Path_1852" d="M270.642,16.947,243.53,25.9,266.192,8.985Z" fill="#657ee4"/>
    <path id="Path_1853" d="M45.119,32.251l1.773.274-.274-.26h.152l-.237-.082L14.322,1.639,6.5,13.977,0,25.231l3.011.467L1.676,31.8Z" fill="url(#linear-gradient-2)"/>
    <path id="Path_1854" d="M7.853,14.618l-5.94,10.3,43.551,7.09L17.414,12.475Z" fill="#6c63ff"/>
    <path id="Path_1855" d="M7.853,14.618l-5.94,10.3,43.551,7.09L17.414,12.475Z" opacity="0.2"/>
    <path id="Path_1856" d="M15.007,3.334,45.464,32.007,7.854,14.618Z" fill="#657ee4"/>
    <path id="Path_1857" d="M3.519,30.968l41.826.8L6.3,17.9Z" fill="#657ee4"/>
  </g>
</svg>
