<svg xmlns="http://www.w3.org/2000/svg" xmlns:xlink="http://www.w3.org/1999/xlink" width="232" height="239.829" viewBox="0 0 232 239.829">
  <defs>
    <linearGradient id="linear-gradient" x1="1.565" y1="-1.202" x2="1.565" y2="-0.202" gradientUnits="objectBoundingBox">
      <stop offset="0" stop-opacity="0.122"/>
      <stop offset="0.55" stop-opacity="0.09"/>
      <stop offset="1" stop-opacity="0.02"/>
    </linearGradient>
  </defs>
  <g id="no-result-search-dark" transform="translate(-670 -308.081)">
    <rect id="Rectangle_1400" data-name="Rectangle 1400" width="51.945" height="1.623" transform="translate(730.001 329.79)" fill="#e0e0e0"/>
    <g id="Group_3621" data-name="Group 3621">
      <circle id="Ellipse_847" data-name="Ellipse 847" cx="116" cy="116" r="116" transform="translate(670 315.91)" fill="#3c414e"/>
      <rect id="Rectangle_1401" data-name="Rectangle 1401" width="51.945" height="1.623" transform="translate(738.115 376.057)" fill="#e0e0e0"/>
      <rect id="Rectangle_1402" data-name="Rectangle 1402" width="51.945" height="1.623" transform="translate(739.335 380.519)" fill="#e0e0e0"/>
      <rect id="Rectangle_1403" data-name="Rectangle 1403" width="51.945" height="1.623" transform="translate(741.771 384.984)" fill="#e0e0e0"/>
      <rect id="Rectangle_1404" data-name="Rectangle 1404" width="51.945" height="1.623" transform="translate(738.115 447.885)" fill="#e0e0e0"/>
      <rect id="Rectangle_1405" data-name="Rectangle 1405" width="51.945" height="1.623" transform="translate(739.335 452.351)" fill="#e0e0e0"/>
      <rect id="Rectangle_1406" data-name="Rectangle 1406" width="51.945" height="1.623" transform="translate(741.771 456.813)" fill="#e0e0e0"/>
      <g id="Group_3607" data-name="Group 3607" transform="translate(679.424 308.081)" opacity="0.5">
        <rect id="Rectangle_1407" data-name="Rectangle 1407" width="209.405" height="155.834" transform="matrix(0.195, -0.981, 0.981, 0.195, 0, 205.388)" fill="#505560"/>
      </g>
      <rect id="Rectangle_1408" data-name="Rectangle 1408" width="202.1" height="150.965" transform="matrix(0.195, -0.981, 0.981, 0.195, 682.284, 509.487)" fill="#2e323d"/>
      <rect id="Rectangle_1409" data-name="Rectangle 1409" width="1.623" height="107.138" transform="matrix(0.195, -0.981, 0.981, 0.195, 730.307, 324.143)" fill="#e0e0e0" opacity="0.1"/>
      <rect id="Rectangle_1413" data-name="Rectangle 1413" width="1.623" height="53.567" transform="matrix(0.195, -0.981, 0.981, 0.195, 728.484, 333.299)" fill="#657ee4" opacity="0.7" style="isolation: isolate"/>
      <rect id="Rectangle_1414" data-name="Rectangle 1414" width="1.623" height="96.585" transform="matrix(0.195, -0.981, 0.981, 0.195, 726.669, 342.453)" fill="#e0e0e0" opacity="0.1"/>
      <rect id="Rectangle_1415" data-name="Rectangle 1415" width="1.623" height="23.536" transform="matrix(0.195, -0.981, 0.981, 0.195, 724.848, 351.61)" fill="#657ee4" opacity="0.7" style="isolation: isolate"/>
      <rect id="Rectangle_1416" data-name="Rectangle 1416" width="1.623" height="107.138" transform="matrix(0.195, -0.981, 0.981, 0.195, 723.03, 360.765)" fill="#e0e0e0" opacity="0.1"/>
      <rect id="Rectangle_1419" data-name="Rectangle 1419" width="1.623" height="107.138" transform="matrix(0.195, -0.981, 0.981, 0.195, 721.211, 369.923)" fill="#e0e0e0" opacity="0.1"/>
      <path id="Path_1961" data-name="Path 1961" d="M526.561,318.791a54.172,54.172,0,0,0-76.6-1.505q-.473.455-.935.921a54.167,54.167,0,0,0,68.67,83.1l39.16,40.731a2.638,2.638,0,0,0,3.729.073l9.758-9.383a2.638,2.638,0,0,0,.073-3.729L531.27,388.27A54.176,54.176,0,0,0,526.561,318.791Zm-12.2,65.487a38.747,38.747,0,1,1,1.077-54.787,38.746,38.746,0,0,1-1.077,54.787Z" transform="translate(320.173 76.017)" fill="#505560"/>
      <path id="Path_1963" data-name="Path 1963" d="M540.454,364.614a32.546,32.546,0,0,0-28.075,14.5c-1.852,2.9,3.405,5.459,5.247,2.575,4.7-7.353,13.625-12.024,23.283-11.78a29.662,29.662,0,0,1,24.2,14.077c1.849,3.048,6.7.278,4.865-2.752C564.049,371.5,552.568,364.9,540.454,364.614Z" transform="translate(268.907 35.275)" fill="url(#linear-gradient)"/>
      <path id="Path_1964" data-name="Path 1964" d="M538.791,312.871a54.172,54.172,0,0,0-76.6-1.505q-.473.455-.935.921a54.166,54.166,0,0,0,68.67,83.095l39.156,40.734a2.638,2.638,0,0,0,3.729.073l9.758-9.383a2.638,2.638,0,0,0,.073-3.729l-39.16-40.731A54.176,54.176,0,0,0,538.791,312.871Zm-12.2,65.459a38.747,38.747,0,1,1,1.077-54.787,38.746,38.746,0,0,1-1.077,54.787Z" transform="translate(312.193 79.88)" fill="#657ee4"/>
      <path id="Path_1966" data-name="Path 1966" d="M552.684,358.694a32.546,32.546,0,0,0-28.075,14.5c-1.852,2.9,3.406,5.459,5.247,2.575,4.7-7.353,13.626-12.024,23.283-11.78a29.662,29.662,0,0,1,24.2,14.077c1.849,3.048,6.7.278,4.865-2.752C576.269,365.557,564.8,358.955,552.684,358.694Z" transform="translate(260.927 39.137)" fill="#657ee4"/>
    </g>
  </g>
</svg>
