<svg id="page-not-found-dark" xmlns="http://www.w3.org/2000/svg" width="721.678" height="396.075" viewBox="0 0 721.678 396.075">
  <circle id="Ellipse_847" data-name="Ellipse 847" cx="194" cy="194" r="194" transform="translate(166.624)" fill="#3c414e"/>
  <path id="Path_1971" data-name="Path 1971" d="M-225.349,0h53.672V-49.558h35.532v-45.07h-35.532v-175.23h-79.667c-55.355,81.35-84.716,128.477-108.28,173.173v47.127h134.274Zm-85.09-94.628c21.506-40.208,46-78.545,85.09-134.835h1.122V-93.132h-86.212ZM-.374,5.984c68.446,0,109.963-54.42,109.963-141.568S67.7-276.029-.374-276.029s-110.15,53.485-110.15,140.633C-110.524-48.062-68.82,5.984-.374,5.984Zm0-45.257c-33.288,0-52.737-34.223-52.737-96.124,0-61.34,19.823-95.376,52.737-95.376,33.1,0,52.55,33.849,52.55,95.376C52.176-73.5,32.914-39.272-.374-39.272ZM272.85,0h53.672V-49.558h35.532v-45.07H326.522v-175.23H246.855c-55.355,81.35-84.716,128.477-108.28,173.173v47.127H272.85ZM187.76-94.628c21.506-40.208,46-78.545,85.09-134.835h1.122V-93.132H187.76Z" transform="translate(359.624 390.09)" fill="#fff"/>
  <g id="Group_3557" data-name="Group 3557" transform="translate(-480.087 -265.062)">
    <g id="Group_3558" data-name="Group 3558" transform="translate(652.676 303.42)">
      <path id="Path_1839" data-name="Path 1839" d="M29.88,0A29.88,29.88,0,1,1,0,29.88,29.88,29.88,0,0,1,29.88,0Z" transform="translate(49.275 144.043)" fill="#e65952"/>
      <path id="Path_1779" data-name="Path 1779" d="M264.638,129.559h0a23.425,23.425,0,0,1-28.85-12.68L203.4,44.142A31.365,31.365,0,0,1,219.294,2.731q1.364-.607,2.782-1.083h0A31.365,31.365,0,0,1,262.66,24.535l17.386,77.7A23.425,23.425,0,0,1,264.638,129.559Z" transform="translate(-200.68 -0.011)" fill="#e65952"/>
      <path id="Path_1976" data-name="Path 1976" d="M23.973,0A23.973,23.973,0,1,1,0,23.973,23.973,23.973,0,0,1,23.973,0Z" transform="translate(54.077 146.656)" fill="#e96862"/>
      <path id="Path_1781" data-name="Path 1781" d="M266.35,124.952h0a21.493,21.493,0,0,1-26.471-11.634L210.163,46.579a28.777,28.777,0,0,1,14.584-38Q226,8.027,227.3,7.59h0a28.779,28.779,0,0,1,37.237,21l15.953,71.292A21.493,21.493,0,0,1,266.35,124.952Z" transform="translate(-205.239 -3.977)" fill="#e96862"/>
    </g>
  </g>
</svg>
