<svg version="1.1" id="Layer_1" xmlns="http://www.w3.org/2000/svg" xmlns:xlink="http://www.w3.org/1999/xlink" x="0" y="0" viewBox="0 0 321.9 227.6" xml:space="preserve"><style>.st0{fill:#4b4f59}.st1{fill:#3c414e}.st4{fill:#4d515d}.st5{fill:none}.st6{fill:#657ee4}</style><g id="Group_6410" transform="translate(-1035.061 -1049.843)"><g id="Group_6400"><path id="Path_2412" class="st0" d="M1200.9 1206.4c.3 1.8-1 3.5-2.8 3.8l-145.2 20.4c-1.8.2-3.5-1-3.8-2.9l-13.9-99.2c-.3-1.8 1-3.5 2.8-3.8l145.2-20.4c1.8-.2 3.5 1 3.8 2.9"/><path id="Path_2413" class="st1" d="M1198.9 1205c.2 1.8-1 3.4-2.8 3.7l-141.9 19.9c-1.8.2-3.4-1-3.7-2.8l-13.5-95.9c-.2-1.8 1-3.4 2.8-3.7l141.9-19.9c1.8-.2 3.4 1 3.7 2.8"/><g id="_x35_f7f4fba-1df4-4c9b-ab6f-3f66810cb66e_1_" transform="rotate(-8 8647.4450214 -6892.64414512)"><linearGradient id="Path_2414_1_" gradientUnits="userSpaceOnUse" x1="-578.1271" y1="336.5328" x2="-578.1271" y2="335.5328" gradientTransform="matrix(137.1264 13.1635 19.2718 -93.6635 72860.5234 39127.668)"><stop offset="0" stop-color="gray" stop-opacity=".251"/><stop offset=".54" stop-color="gray" stop-opacity=".122"/><stop offset="1" stop-color="gray" stop-opacity=".102"/></linearGradient><path id="Path_2414" d="M2-5.9h135.4c.9 0 1.6.7 1.5 1.6v91.5c0 .9-.7 1.5-1.5 1.5H2c-.9 0-1.6-.7-1.6-1.5V-4.3c0-.9.7-1.6 1.6-1.6z" fill="url(#Path_2414_1_)"/></g><path id="Path_2415" class="st1" d="M1046.5 1132.2l130.5-18.3c.8-.1 1.6.5 1.7 1.3l12.1 85.8c.1.8-.5 1.6-1.3 1.7L1059 1221c-.8.1-1.6-.5-1.8-1.3l-12.1-85.8c0-.8.6-1.6 1.4-1.7z"/><g transform="rotate(-8 8662.17681133 -6905.92710871)" id="Group_4008"><defs><path id="SVGID_1_" d="M2-5.9h131.8c.9 0 1.6.7 1.5 1.6v86.6c0 .9-.7 1.5-1.5 1.5H2c-.9 0-1.6-.7-1.6-1.5V-4.4c0-.8.7-1.5 1.6-1.5z"/></defs><clipPath id="SVGID_2_"><use xlink:href="#SVGID_1_" overflow="visible"/></clipPath><g id="Group_4007" clip-path="url(#SVGID_2_)"><path id="Path_2416" class="st4" d="M-7.1 83l37.7-43.2c2.7-3.1 7.5-3.4 10.6-.7l10.5 9.3c2.8 2.5 6.9 2.5 9.8.1l32.2-27.1c3.1-2.6 7.7-2.3 10.4.7l39.6 43.5c1.1 1.2 1.8 2.7 1.9 4.4l1.5 17.2c.4 4.1-2.7 7.8-6.8 8.1H-1.5c-4.1 0-7.4-3.2-7.5-7.3 0-1.7.7-3.6 1.9-5z"/></g></g><circle id="Ellipse_856" class="st4" cx="1063.1" cy="1144.4" r="8.4"/><path id="Path_2408" class="st0" d="M1304.9 1277.4l-146.2-39.2 45.5-169.8 28.6-18.6 124.1 33.3-52 194.3z"/><path id="Path_2409" class="st1" d="M1304 1271.6l-141.4-37.9 43.8-163.3 27.7-17.8 120 32.2-50.1 186.8z"/><path id="Rectangle_1802" transform="rotate(-74.99 1254.05184215 1085.74294962)" class="st4" d="M1248 1050.1h12v71.3h-12z"/><path id="Rectangle_1803" transform="rotate(-74.99 1236.43958367 1115.10905011)" class="st4" d="M1230.4 1089h12v52.2h-12z"/><path id="Rectangle_1804" transform="rotate(-74.99 1250.86792618 1186.75083684)" class="st4" d="M1228.8 1128.2h44.1v117.2h-44.1z"/><path id="Rectangle_1805" transform="rotate(-74.99 1320.04807946 1103.60723354)" class="st4" d="M1314 1090.4h12v26.6h-12z"/><path id="Rectangle_1806" transform="rotate(-74.99 1315.20753983 1121.67251994)" class="st4" d="M1309.2 1108.4h12v26.6h-12z"/><path id="Rectangle_1807" transform="rotate(-74.99 1310.3670716 1139.7387929)" class="st4" d="M1304.3 1126.5h12v26.6h-12z"/><path id="Path_2410" class="st1" d="M1236.3 1053.2l-6.9 25.8-23.6-6.3.6-2.3 27.6-17.8 2.3.6z"/><path id="Path_2411" class="st4" d="M1206.3 1070.4l27.7-17.8-6.3 23.6-21.4-5.8z"/></g></g><g id="Group_6728" transform="translate(67.759 134.392)"><path id="Path_5840" class="st5" d="M131.8 18.9c0-5.7-4.6-10.3-10.3-10.3-5.7 0-10.3 4.6-10.3 10.3s4.6 10.3 10.3 10.3c5.7-.1 10.3-4.7 10.3-10.3z"/><path id="Path_5841" class="st5" d="M54.9 65h58.2L80.9 32.7 54.9 65z"/><path id="Path_5842" class="st6" d="M119 42l16.4 21 11 11c.5-1.2.8-2.6.8-3.9V3.5c0-5.6-4.6-10.2-10.2-10.3H65.6L117 44.6l2-2.6zm-7.7-23.1c0-5.7 4.6-10.3 10.3-10.3s10.3 4.6 10.3 10.3-4.6 10.3-10.3 10.3c-5.7-.1-10.3-4.7-10.3-10.3z"/><path id="Path_5843" class="st6" d="M124.7 65l-13.3-13.3L53.1-6.6l-7-7-.5-.5-5.8 5.8 6.4 6.4c-1 1.6-1.5 3.5-1.6 5.4v66.6c0 5.6 4.6 10.2 10.2 10.3h73.6l12.9 12.9 5.8-5.8-7.5-7.5-14.9-15zm-15.9 0H54.9l25.9-32.3L113.1 65h-4.3z"/><path id="Path_5844" d="M139.7 80l-15-15-13.3-13.3L53.2-6.6l-7-7 7 7 58.3 58.3L124.7 65l15 15 7.5 7.5-7.5-7.5z" fill="#606060"/></g></svg>
