<svg xmlns="http://www.w3.org/2000/svg" viewBox="0 0 322.298 233.56"><defs><linearGradient id="linear-gradient" x1=".5" x2=".5" y1=".027" y2="1.027" gradientUnits="objectBoundingBox"><stop offset="0" stop-color="gray" stop-opacity=".251"/><stop offset=".54" stop-color="gray" stop-opacity=".122"/><stop offset="1" stop-color="gray" stop-opacity=".102"/></linearGradient><clipPath id="clip-path"><path id="Path_2417" d="M54.665 49h131.81a1.554 1.554 0 011.547 1.565V137.2a1.55 1.55 0 01-1.547 1.547H54.665A1.565 1.565 0 0153.1 137.2V50.547A1.576 1.576 0 0154.665 49z" class="cls-1" transform="translate(-53.1 -49)"/></clipPath><style>.cls-1{fill:#4d515d}.cls-2{fill:#4b4f59}.cls-3{fill:#3c414e}.cls-6{fill:#657ee4}</style></defs><g id="Group_6410" transform="translate(-1035.061 -1049.843)"><g id="Group_6400"><path id="Path_2412" d="M153.833 103.553a3.355 3.355 0 01-3.341 3.359H3.841A3.355 3.355 0 01.5 103.553V3.359A3.355 3.355 0 013.841 0h146.651a3.355 3.355 0 013.341 3.359" class="cls-2" transform="rotate(-8 8605.447 -6831.912)"/><path id="Path_2413" d="M160.764 110.389a3.257 3.257 0 01-3.253 3.253H14.253A3.257 3.257 0 0111 110.389V13.553a3.257 3.257 0 013.253-3.253h143.258a3.257 3.257 0 013.253 3.253" class="cls-3" transform="rotate(-8 8549.074 -6765.79)"/><g id="_x35_f7f4fba-1df4-4c9b-ab6f-3f66810cb66e_1_" transform="rotate(-8 8647.445 -6892.644)"><path id="Path_2414" fill="url(#linear-gradient)" d="M44.965 36.6h135.362a1.553 1.553 0 011.547 1.565v91.472a1.55 1.55 0 01-1.547 1.547H44.965a1.565 1.565 0 01-1.565-1.547v-91.49a1.588 1.588 0 011.565-1.547z" transform="translate(-43.4 -36.6)"/></g><path id="Path_2415" d="M54.665 49h131.81a1.55 1.55 0 011.547 1.547v86.637a1.55 1.55 0 01-1.547 1.547H54.665a1.565 1.565 0 01-1.565-1.547V50.547A1.576 1.576 0 0154.665 49z" class="cls-3" transform="rotate(-8 8338.36 -6501.742)"/><g id="Group_4008" transform="rotate(-8 8662.177 -6905.927)"><g id="Group_4007" clip-path="url(#clip-path)"><path id="Path_2416" d="M1.833 258.1L39.5 214.93a7.51 7.51 0 0110.586-.721l.035.035 10.55 9.3a7.5 7.5 0 009.794.123l32.232-27.1a7.5 7.5 0 0110.375.7l39.564 43.538a7.414 7.414 0 011.917 4.378l1.53 17.18a7.5 7.5 0 01-6.805 8.141c-.229.018-.44.035-.668.035H7.477a7.528 7.528 0 01-7.491-7.3 7.552 7.552 0 011.847-5.139z" class="cls-1" transform="translate(-9.324 -169.176)"/></g></g><circle id="Ellipse_856" cx="8.352" cy="8.352" r="8.352" class="cls-1" transform="rotate(-8 8701.35 -6965.52)"/><path id="Path_2408" d="M151.325 201.1H0V25.365L22.856 0h128.47z" class="cls-2" transform="rotate(14.98 -3381.287 5120.285)"/><path id="Path_2409" d="M155.236 201.222H8.9V32.179L31.009 7.8h124.227z" class="cls-3" transform="rotate(14.98 -3357.403 5099.339)"/><path id="Rectangle_1802" d="M0 0h71.286v12.01H0z" class="cls-1" transform="rotate(14.98 -3477.892 5173.055)"/><path id="Rectangle_1803" d="M0 0h52.224v12.01H0z" class="cls-1" transform="rotate(14.98 -3602.91 5157.011)"/><path id="Rectangle_1804" d="M0 0h117.176v44.098H0z" class="cls-1" transform="rotate(14.98 -3790.454 5132.249)"/><path id="Rectangle_1805" d="M0 0h26.56v12.01H0z" class="cls-1" transform="rotate(14.98 -3524.042 5517.33)"/><path id="Rectangle_1806" d="M0 0h26.56v12.01H0z" class="cls-1" transform="rotate(14.98 -3595.021 5507.956)"/><path id="Rectangle_1807" d="M0 0h26.56v12.01H0z" class="cls-1" transform="rotate(14.98 -3666.004 5498.584)"/><path id="Path_2410" d="M33.309 7.8v26.74H8.9v-2.36L30.949 7.8z" class="cls-3" transform="rotate(14.98 -3357.403 5099.339)"/><path id="Path_2411" d="M8.7 32.179L30.809 7.8v24.379z" class="cls-1" transform="rotate(14.98 -3357.472 5099.873)"/><g id="Group_6694" transform="translate(1136.553 1175.304)"><path id="Path_5832" d="M29.689 19.7a25.047 25.047 0 0125.049 25.048 24.787 24.787 0 01-2.5 10.738L68.94 72.193a61.484 61.484 0 0019.2-27.445A61.791 61.791 0 0029.689 3a61.522 61.522 0 00-24.64 5.3l13.9 13.9a24.787 24.787 0 0110.74-2.5z" class="cls-6" transform="translate(29.759 7.35)"/><path id="Path_5833" d="M7.489 6.626l20.348 20.348a16.837 16.837 0 00.618-4.275A16.716 16.716 0 0011.756 6a16.362 16.362 0 00-4.267.626z" class="cls-6" transform="translate(47.692 29.398)"/><path id="Path_5834" d="M9.35 2l-5.9 5.9 16.821 16.828A60.983 60.983 0 001 52.1a61.791 61.791 0 0058.447 41.746 60.568 60.568 0 0024.64-5.3l19.555 19.554 5.9-5.9zm50.1 75.146A25.047 25.047 0 0134.4 52.1a24.787 24.787 0 012.5-10.74l6.471 6.471a16.362 16.362 0 00-.626 4.267 16.716 16.716 0 0016.7 16.7 16.362 16.362 0 004.267-.626l6.471 6.471a24.787 24.787 0 01-10.736 2.503z" class="cls-6"/></g></g></g></svg>