<svg xmlns="http://www.w3.org/2000/svg" xmlns:xlink="http://www.w3.org/1999/xlink" width="280.176" height="232" viewBox="0 0 280.176 232">
  <defs>
    <linearGradient id="linear-gradient" x1="0.5" y1="0.227" x2="0.5" y2="1.227" gradientUnits="objectBoundingBox">
      <stop offset="0" stop-color="gray" stop-opacity="0.251"/>
      <stop offset="0.54" stop-color="gray" stop-opacity="0.122"/>
      <stop offset="1" stop-color="gray" stop-opacity="0.102"/>
    </linearGradient>
  </defs>
  <g id="selected-label-single" transform="translate(-867.167 -352.91)">
    <path id="Path_1591" data-name="Path 1591" d="M111.954,21.78h280.06S105.227,21.783,111.954,21.78Z" transform="translate(755.33 338.22)" fill="#e6e6e6"/>
    <circle id="Ellipse_847" data-name="Ellipse 847" cx="116" cy="116" r="116" transform="translate(892 352.91)" fill="#f2f2f2"/>
    <path id="Path_1980" data-name="Path 1980" d="M74.91,0V177.333H332.334V0Z" transform="translate(804.402 379.26)" fill="url(#linear-gradient)"/>
    <rect id="Rectangle_1426" data-name="Rectangle 1426" width="252.936" height="165.579" transform="translate(881.849 389.022)" fill="#fff"/>
    <rect id="Rectangle_1427" data-name="Rectangle 1427" width="252.936" height="12.182" transform="translate(881.849 381.146)" fill="#eee"/>
    <circle id="Ellipse_874" data-name="Ellipse 874" cx="2.953" cy="2.953" r="2.953" transform="translate(888.521 384.099)" fill="#657ee4"/>
    <circle id="Ellipse_875" data-name="Ellipse 875" cx="2.953" cy="2.953" r="2.953" transform="translate(896.645 384.099)" fill="#eac819"/>
    <circle id="Ellipse_876" data-name="Ellipse 876" cx="2.953" cy="2.953" r="2.953" transform="translate(904.767 384.099)" fill="#ec5858"/>
    <rect id="Rectangle_1430" data-name="Rectangle 1430" width="186.667" height="6.788" transform="translate(914.712 502.303)" fill="#f2f2f2" style="isolation: isolate"/>
    <rect id="Rectangle_1431" data-name="Rectangle 1431" width="186.667" height="6.788" transform="translate(914.833 484.485)" fill="#f2f2f2" style="isolation: isolate"/>
    <rect id="Rectangle_1432" data-name="Rectangle 1432" width="33.374" height="6.788" transform="translate(1068.126 460.162)" fill="#f2f2f2" style="isolation: isolate"/>
    <rect id="Rectangle_1433" data-name="Rectangle 1433" width="122.182" height="6.788" transform="translate(979.318 442.061)" fill="#f2f2f2" style="isolation: isolate"/>
    <rect id="Rectangle_1434" data-name="Rectangle 1434" width="93.454" height="6.788" transform="translate(914.712 520.404)" fill="#f2f2f2" style="isolation: isolate"/>
    <g id="Group_3870" data-name="Group 3870" transform="translate(914.006 419)">
      <path id="Path_1985" data-name="Path 1985" d="M45.324,1H26.331a2.108,2.108,0,0,0-1.5.612L1.619,24.826a2.11,2.11,0,0,0-.013,2.984l.013.013L20.612,46.816a2.11,2.11,0,0,0,2.984.013l.013-.013L46.822,23.6a2.108,2.108,0,0,0,.612-1.5V3.11A2.111,2.111,0,0,0,45.324,1ZM32.662,22.1a6.331,6.331,0,1,1,6.331-6.331A6.331,6.331,0,0,1,32.662,22.1Z" fill="#657ee4"/>
    </g>
  </g>
</svg>
