<svg xmlns="http://www.w3.org/2000/svg" xmlns:xlink="http://www.w3.org/1999/xlink" width="305" height="151" viewBox="0 0 305 151"><defs><style>.cls-1{fill:none}.cls-2{clip-path:url(#clip-path)}.cls-3{fill:#e6e6e6}.cls-4{fill:url(#linear-gradient)}.cls-5{fill:#fff}.cls-6{fill:#f5f5f5}.cls-7{fill:url(#linear-gradient-2)}.cls-8{fill:url(#linear-gradient-3)}.cls-9{fill:url(#linear-gradient-4)}.cls-10{fill:#657ee4}.cls-11{fill:#f2f2f2}</style><clipPath id="clip-path"><path d="M0 0h305v151h-305z" class="cls-1"/></clipPath><linearGradient id="linear-gradient" x1=".5" x2=".5" y1="2.697" y2="3.697" gradientUnits="objectBoundingBox"><stop offset="0" stop-color="#808080" stop-opacity=".251"/><stop offset=".535" stop-color="#808080" stop-opacity=".122"/><stop offset="1" stop-color="#808080" stop-opacity=".102"/></linearGradient><linearGradient id="linear-gradient-2" x1="1.892" x2="1.892" y1="2.249" y2="3.249" gradientUnits="objectBoundingBox"><stop offset="0" stop-color="#b3b3b3" stop-opacity=".251"/><stop offset=".535" stop-color="#b3b3b3" stop-opacity=".102"/><stop offset="1" stop-color="#b3b3b3" stop-opacity=".051"/></linearGradient><linearGradient id="linear-gradient-3" x1="29.83" x2="29.83" y1="53.688" y2="54.689" gradientUnits="objectBoundingBox"><stop offset="0" stop-opacity=".122"/><stop offset=".551" stop-opacity=".09"/><stop offset="1" stop-opacity=".02"/></linearGradient><linearGradient id="linear-gradient-4" x1="3.786" x2="3.786" y1="18.974" y2="19.974" xlink:href="#linear-gradient-3"/></defs><g id="Component_43_1" class="cls-2"><path id="Rectangle_1405" d="M0 0h305v151h-305z" class="cls-3"/><path id="Rectangle_1417" d="M25.038 29h256.962v47.515h-256.962z" class="cls-4"/><path id="Rectangle_1418" d="M26.539 30.555h253.586v43.434h-253.586z" class="cls-5"/><path id="Rectangle_1419" d="M42.113 39.422h147.413v25.85h-147.413z" class="cls-6"/><path id="Path_1631" d="M695.945 30.931a13.651 13.651 0 1 0-2.234 20.793l9.868 10.264a.664.664 0 0 0 .939.019l2.459-2.364a.664.664 0 0 0 .023-.943l-9.868-10.264a13.652 13.652 0 0 0-1.187-17.505zm-3.074 16.5a9.764 9.764 0 1 1 .272-13.806 9.764 9.764 0 0 1-.272 13.806z" class="cls-7" transform="translate(-449.234 10.141)"/><path id="Path_1632" d="M692.265 63.854a.854.854 0 0 0 0 1.706.854.854 0 0 0 0-1.706z" class="cls-8" transform="translate(-462.626 -16.035)"/><path id="Path_1633" d="M703.043 45.3a8.2 8.2 0 0 0-7.075 3.654c-.466.73.858 1.375 1.322.649a6.764 6.764 0 0 1 5.865-2.969 7.474 7.474 0 0 1 6.1 3.547c.466.768 1.688.07 1.224-.694a9.063 9.063 0 0 0-7.436-4.187z" class="cls-9" transform="translate(-465.751 -2.944)"/><path id="Path_1634" d="M695.945 25.839a13.651 13.651 0 1 0-2.234 20.793l9.868 10.268a.665.665 0 0 0 .939.019l2.459-2.364a.664.664 0 0 0 .018-.939l-9.868-10.265a13.652 13.652 0 0 0-1.182-17.512zm-3.074 16.5a9.764 9.764 0 1 1 .272-13.806 9.764 9.764 0 0 1-.272 13.806z" class="cls-10" transform="translate(-449.234 13.732)"/><path id="Path_1635" d="M692.265 58.762a.854.854 0 0 0 0 1.706.854.854 0 0 0 0-1.706z" class="cls-10" transform="translate(-462.626 -12.444)"/><path id="Path_1636" d="M703.043 40.205a8.2 8.2 0 0 0-7.075 3.654c-.466.73.858 1.375 1.322.649a6.764 6.764 0 0 1 5.865-2.969 7.473 7.473 0 0 1 6.1 3.547c.466.769 1.688.07 1.224-.694a9.062 9.062 0 0 0-7.436-4.187z" class="cls-10" transform="translate(-465.751 .647)"/><path id="Rectangle_1420" d="M26.6 88.744h253.041v13.117h-253.041z" class="cls-11"/><path id="Rectangle_1422" d="M26.6 111.862h253.041v13.117h-253.041z" class="cls-11"/></g></svg>