<svg xmlns="http://www.w3.org/2000/svg" xmlns:xlink="http://www.w3.org/1999/xlink" width="305" height="159" viewBox="0 0 305 159">
    <defs>
        <style>
            .cls-1{fill:none}.cls-2{clip-path:url(#clip-path)}.cls-3{fill:#e6e6e6}.cls-4{fill:#f2f2f2}.cls-5{fill:#d1d1d1}.cls-6{fill:url(#linear-gradient)}.cls-7{fill:#fff}.cls-8{fill:#f5f5f5}.cls-9{fill:url(#linear-gradient-2)}.cls-10{fill:url(#linear-gradient-3)}.cls-11{fill:url(#linear-gradient-4)}.cls-12{fill:#657ee4}
        </style>
        <clipPath id="clip-path">
            <path d="M0 0h305v159H0z" class="cls-1"/>
        </clipPath>
        <linearGradient id="linear-gradient" x1=".5" x2=".5" y1="2.697" y2="3.697" gradientUnits="objectBoundingBox">
            <stop offset="0" stop-color="gray" stop-opacity=".251"/>
            <stop offset=".535" stop-color="gray" stop-opacity=".122"/>
            <stop offset="1" stop-color="gray" stop-opacity=".102"/>
        </linearGradient>
        <linearGradient id="linear-gradient-2" x1="1.892" x2="1.892" y1="2.249" y2="3.249" gradientUnits="objectBoundingBox">
            <stop offset="0" stop-color="#b3b3b3" stop-opacity=".251"/>
            <stop offset=".535" stop-color="#b3b3b3" stop-opacity=".102"/>
            <stop offset="1" stop-color="#b3b3b3" stop-opacity=".051"/>
        </linearGradient>
        <linearGradient id="linear-gradient-3" x1="29.83" x2="29.83" y1="53.688" y2="54.689" gradientUnits="objectBoundingBox">
            <stop offset="0" stop-opacity=".122"/>
            <stop offset=".551" stop-opacity=".09"/>
            <stop offset="1" stop-opacity=".02"/>
        </linearGradient>
        <linearGradient id="linear-gradient-4" x1="3.786" x2="3.786" y1="18.974" y2="19.974" xlink:href="#linear-gradient-3"/>
    </defs>
    <g id="Component_42_1" class="cls-2" data-name="Component 42 – 1">
        <path id="Rectangle_1405" d="M0 0h305v151H0z" class="cls-3" data-name="Rectangle 1405"/>
        <path id="Path_1591" d="M111.954 21.78h280.06s-286.787.003-280.06 0z" class="cls-3" data-name="Path 1591" transform="translate(-99.67 -20.78)"/>
        <circle id="Ellipse_848" cx="2.656" cy="2.656" r="2.656" class="cls-4" data-name="Ellipse 848" transform="translate(9.105 4.414)"/>
        <circle id="Ellipse_849" cx="2.656" cy="2.656" r="2.656" class="cls-4" data-name="Ellipse 849" transform="translate(17.071 4.414)"/>
        <circle id="Ellipse_850" cx="2.656" cy="2.656" r="2.656" class="cls-4" data-name="Ellipse 850" transform="translate(25.038 4.414)"/>
        <path id="Rectangle_1404" d="M0 0h288v8H0z" class="cls-5" data-name="Rectangle 1404" transform="translate(9 151)"/>
        <path id="Rectangle_1417" d="M0 0h256.962v47.515H0z" class="cls-6" data-name="Rectangle 1417" transform="translate(25.038 29)"/>
        <path id="Rectangle_1418" d="M0 0h253.586v43.434H0z" class="cls-7" data-name="Rectangle 1418" transform="translate(26.539 30.555)"/>
        <path id="Rectangle_1419" d="M0 0h147.413v25.85H0z" class="cls-8" data-name="Rectangle 1419" transform="translate(42.113 39.422)"/>
        <path id="Path_1631" d="M695.945 30.931a13.651 13.651 0 1 0-2.234 20.793l9.868 10.264a.664.664 0 0 0 .939.019l2.459-2.364A.664.664 0 0 0 707 58.7l-9.868-10.264a13.652 13.652 0 0 0-1.187-17.505zm-3.074 16.5a9.764 9.764 0 1 1 .272-13.806 9.764 9.764 0 0 1-.272 13.806z" class="cls-9" data-name="Path 1631" transform="translate(-449.234 10.141)"/>
        <path id="Path_1632" d="M692.265 63.854a.854.854 0 0 0 0 1.706.854.854 0 0 0 0-1.706z" class="cls-10" data-name="Path 1632" transform="translate(-462.626 -16.035)"/>
        <path id="Path_1633" d="M703.043 45.3a8.2 8.2 0 0 0-7.075 3.654c-.466.73.858 1.375 1.322.649a6.764 6.764 0 0 1 5.865-2.969 7.474 7.474 0 0 1 6.1 3.547c.466.768 1.688.07 1.224-.694a9.063 9.063 0 0 0-7.436-4.187z" class="cls-11" data-name="Path 1633" transform="translate(-465.751 -2.944)"/>
        <path id="Path_1634" d="M695.945 25.839a13.651 13.651 0 1 0-2.234 20.793l9.868 10.268a.665.665 0 0 0 .939.019l2.459-2.364a.664.664 0 0 0 .018-.939l-9.868-10.265a13.652 13.652 0 0 0-1.182-17.512zm-3.074 16.5a9.764 9.764 0 1 1 .272-13.806 9.764 9.764 0 0 1-.272 13.806z" class="cls-12" data-name="Path 1634" transform="translate(-449.234 13.732)"/>
        <path id="Path_1635" d="M692.265 58.762a.854.854 0 0 0 0 1.706.854.854 0 0 0 0-1.706z" class="cls-12" data-name="Path 1635" transform="translate(-462.626 -12.444)"/>
        <path id="Path_1636" d="M703.043 40.205a8.2 8.2 0 0 0-7.075 3.654c-.466.73.858 1.375 1.322.649a6.764 6.764 0 0 1 5.865-2.969 7.473 7.473 0 0 1 6.1 3.547c.466.769 1.688.07 1.224-.694a9.062 9.062 0 0 0-7.436-4.187z" class="cls-12" data-name="Path 1636" transform="translate(-465.751 .647)"/>
        <path id="Rectangle_1420" d="M0 0h253.041v13.117H0z" class="cls-4" data-name="Rectangle 1420" transform="translate(26.6 88.744)"/>
        <path id="Rectangle_1422" d="M0 0h253.041v13.117H0z" class="cls-4" data-name="Rectangle 1422" transform="translate(26.6 111.862)"/>
    </g>
</svg>
