<svg xmlns="http://www.w3.org/2000/svg" width="138.809" height="138.809" viewBox="0 0 138.809 138.809">
  <g id="support" transform="translate(-1103 -209.553)">
    <ellipse id="Ellipse_738" data-name="Ellipse 738" cx="69.405" cy="69.405" rx="69.405" ry="69.405" transform="translate(1103 209.553)" fill="#657ee4"/>
    <path id="Path_1601" data-name="Path 1601" d="M792.59,157.37h-.207A23.442,23.442,0,0,0,772.792,168.1,23.469,23.469,0,0,0,753.2,157.37h-.207a23.31,23.31,0,0,0-23.163,23.31c0,7.632,3.34,18.458,9.863,27.369,12.411,16.97,33.038,31.819,33.038,31.819s20.628-14.849,33.038-31.819c6.522-8.912,9.863-19.738,9.863-27.369A23.323,23.323,0,0,0,792.59,157.37Z" transform="translate(400.459 83.216)" fill="#fdfdfd"/>
  </g>
</svg>
