<svg xmlns="http://www.w3.org/2000/svg" width="232" height="237.091"><g data-name="Group 6093"><path d="M116 5.091a116 116 0 11-116 116 115.955 115.955 0 01116-116z" fill="#f2f2f2"/><path d="M47 64.091h141v153a10 10 0 01-10 10H57a10 10 0 01-10-10v-153z" data-name="Rectangle 1834" fill="#7589ec"/><path d="M95.12 80.091a4.319 4.319 0 014.506 4.092v126.94a4.38 4.38 0 01-4.506 4.169 4.38 4.38 0 01-4.506-4.169V84.183a4.319 4.319 0 014.506-4.092zm22.7 0a4.3 4.3 0 014.422 4.092v126.94a4.358 4.358 0 01-4.422 4.169 4.381 4.381 0 01-4.506-4.169V84.183a4.319 4.319 0 014.506-4.092zm22.613 0a4.319 4.319 0 014.506 4.092v126.94a4.38 4.38 0 01-4.506 4.169 4.436 4.436 0 01-4.506-4.169V84.183a4.373 4.373 0 014.506-4.092zm22.7 0a4.373 4.373 0 014.506 4.092v126.94a4.436 4.436 0 01-4.506 4.169 4.38 4.38 0 01-4.506-4.169V84.183a4.319 4.319 0 014.506-4.092zm-90.7 0a4.319 4.319 0 014.506 4.092v126.94a4.38 4.38 0 01-4.506 4.169 4.359 4.359 0 01-4.423-4.169V84.183a4.3 4.3 0 014.423-4.092z" data-name="Path 5301" fill="#6874c6" fill-rule="evenodd"/><g data-name="Group 6022"><path d="M140.95 23.81l-4.057-1.086 1.277-4.772a6.143 6.143 0 00-4.338-7.513l-15.609-4.177a6.141 6.141 0 00-7.507 4.344l-1.277 4.772-4.057-1.086 1.277-4.771a10.341 10.341 0 0112.649-7.312l15.611 4.177a10.344 10.344 0 017.312 12.654z" data-name="Path 5291" fill="#7580d0"/></g><path d="M183.898 37.62L123.79 17.633S66.879 5.983 61.732 4.932s-6.594 1.016-7.072 2.803l-.42 1.57 133.966 35.846.42-1.57c.478-1.787.25-4.307-4.728-5.96z" data-name="Path 5299" fill="#7688ec"/><path d="M47.348 7.2l143.936 38.513-4.652 17.388L42.695 24.588z" data-name="Rectangle 1835" fill="#6973c6"/></g></svg>