<svg xmlns="http://www.w3.org/2000/svg" xmlns:xlink="http://www.w3.org/1999/xlink" width="232" height="232" viewBox="0 0 232 232">
  <defs>
    <linearGradient id="linear-gradient" x1="0.719" y1="-0.247" x2="0.719" y2="0.753" gradientUnits="objectBoundingBox">
      <stop offset="0" stop-color="gray" stop-opacity="0.251"/>
      <stop offset="0.54" stop-color="gray" stop-opacity="0.122"/>
      <stop offset="1" stop-color="gray" stop-opacity="0.102"/>
    </linearGradient>
  </defs>
  <g id="unread-emails-dark" transform="translate(-891 -420)">
    <g id="Group_3619" data-name="Group 3619">
      <circle id="Ellipse_865" data-name="Ellipse 865" cx="116" cy="116" r="116" transform="translate(891 420)" fill="#3c414e"/>
      <g id="Group_3565" data-name="Group 3565" transform="translate(830.185 310.647)">
        <g id="Group_3564" data-name="Group 3564" transform="translate(68.815 118.723)" opacity="0.5">
          <path id="Path_1889" data-name="Path 1889" d="M287.1,202.875v-.331L178.2,118.8a.4.4,0,0,0-.475,0L68.815,202.544v129.8h.208v.208H287.315v-129.8Z" transform="translate(-68.815 -118.723)" fill="url(#linear-gradient)"/>
        </g>
        <path id="Path_1890" data-name="Path 1890" d="M289.027,334.212H78.275V208.878L183.651,127.85l105.376,81.028Z" transform="translate(-5.684 -5.484)" fill="#2e323d"/>
        <path id="Path_1891" data-name="Path 1891" d="M292.859,337.959H97.275V221.646l97.792-75.2,97.792,75.2Z" transform="translate(-17.1 -16.659)" fill="#657ee4"/>
        <rect id="Rectangle_1391" data-name="Rectangle 1391" width="123.338" height="156.867" transform="translate(91.837 159.33) rotate(-14.69)" fill="#5b606e"/>
        <rect id="Rectangle_1392" data-name="Rectangle 1392" width="123.338" height="156.867" transform="translate(116.897 151.105)" fill="#3c414e" stroke="#404551" stroke-width="1"/>
        <path id="Path_1892" data-name="Path 1892" d="M80.775,331.35l105.376,62.667L80.775,456.684Z" transform="translate(-7.186 -127.756)" fill="#fff" opacity="0.05" style="isolation: isolate"/>
        <path id="Path_1893" data-name="Path 1893" d="M78.775,331.35l105.376,62.667L78.775,456.684Z" transform="translate(-5.984 -127.756)" fill="#2e323d"/>
        <path id="Path_1894" data-name="Path 1894" d="M446.151,331.35,340.775,394.017l105.376,62.667Z" transform="translate(-163.406 -127.756)" fill="#fff" opacity="0.05" style="isolation: isolate"/>
        <path id="Path_1895" data-name="Path 1895" d="M448.151,331.35,342.775,394.017l105.376,62.667Z" transform="translate(-164.608 -127.756)" fill="#2e323d"/>
        <path id="Path_1896" data-name="Path 1896" d="M78.775,516.575,184.151,434.35l105.376,82.225Z" transform="translate(-5.984 -189.643)" fill="#fff" opacity="0.05" style="isolation: isolate"/>
        <path id="Path_1897" data-name="Path 1897" d="M78.775,521.575,184.151,439.35l105.376,82.225Z" transform="translate(-5.984 -192.648)" fill="#2e323d"/>
      </g>
      <rect id="Rectangle_1420" data-name="Rectangle 1420" width="1.623" height="107.138" transform="translate(954.983 477.928) rotate(-89.76)" fill="#e0e0e0" opacity="0.1"/>
      <rect id="Rectangle_1421" data-name="Rectangle 1421" width="1.623" height="53.567" transform="translate(954.941 487.264) rotate(-89.76)" fill="#657ee4" opacity="0.7" style="isolation: isolate"/>
      <rect id="Rectangle_1422" data-name="Rectangle 1422" width="1.623" height="96.585" transform="translate(954.906 496.597) rotate(-89.76)" fill="#e0e0e0" opacity="0.1"/>
      <rect id="Rectangle_1423" data-name="Rectangle 1423" width="1.623" height="23.536" transform="translate(954.865 505.932) rotate(-89.76)" fill="#657ee4" opacity="0.7" style="isolation: isolate"/>
      <rect id="Rectangle_1424" data-name="Rectangle 1424" width="1.623" height="107.138" transform="translate(954.828 515.266) rotate(-89.76)" fill="#e0e0e0" opacity="0.1"/>
      <rect id="Rectangle_1425" data-name="Rectangle 1425" width="1.623" height="107.138" transform="translate(954.79 524.603) rotate(-89.76)" fill="#e0e0e0" opacity="0.1"/>
    </g>
  </g>
</svg>
