<svg xmlns="http://www.w3.org/2000/svg" width="452" height="122" viewBox="0 0 452 122">
    <defs>
        <style>
            .cls-1,.cls-7{fill:#fff}.cls-10,.cls-2,.cls-3,.cls-6,.cls-8{fill:none}.cls-2{stroke:#ec5858}.cls-3{stroke:#5db039}.cls-3,.cls-8{stroke-linecap:round}.cls-4{fill:rgba(255,255,255,.19)}.cls-4,.cls-5,.cls-6{stroke:#dde6ec}.cls-5{fill:rgba(238,239,241,.22)}.cls-7{opacity:.2}.cls-8{stroke:#fff}.cls-9{stroke:none}
        </style>
    </defs>
    <g id="Gruppe_3650" data-name="Gruppe 3650" transform="translate(-466 -395)">
        <g id="Gruppe_3643" data-name="Gruppe 3643" transform="translate(-121 119)">
            <circle id="Ellipse_873" cx="26" cy="26" r="26" class="cls-1" data-name="Ellipse 873" transform="translate(659 311)"/>
            <g id="Gruppe_3640" data-name="Gruppe 3640" transform="translate(.5 .5)">
                <path id="Linie_642" d="M0 0l16 16" class="cls-2" data-name="Linie 642" transform="translate(676.5 328.5)"/>
                <path id="Linie_643" d="M16 0L0 16" class="cls-2" data-name="Linie 643" transform="translate(676.5 328.5)"/>
            </g>
        </g>
        <g id="Gruppe_3645" data-name="Gruppe 3645" transform="translate(135 119)">
            <circle id="Ellipse_873-2" cx="26" cy="26" r="26" class="cls-1" data-name="Ellipse 873" transform="translate(659 311)"/>
            <path id="Pfad_1850" d="M671.893 337l9.07 8.131 8-16.895" class="cls-3" data-name="Pfad 1850" transform="translate(4)"/>
        </g>
        <g id="Gruppe_3648" data-name="Gruppe 3648">
            <g id="Gruppe_3642" data-name="Gruppe 3642" transform="translate(-80 131)">
                <g id="Gruppe_3622" data-name="Gruppe 3622" transform="translate(546 264)">
                    <g id="Rechteck_1499" class="cls-4" data-name="Rechteck 1499">
                        <rect width="196" height="122" class="cls-9" rx="3"/>
                        <rect width="195" height="121" x=".5" y=".5" class="cls-10" rx="2.5"/>
                    </g>
                    <g id="Rechteck_1503" class="cls-5" data-name="Rechteck 1503">
                        <path d="M3 0h190a3 3 0 0 1 3 3v16H0V3a3 3 0 0 1 3-3z" class="cls-9"/>
                        <path d="M3 .5h190a2.5 2.5 0 0 1 2.5 2.5v15a.5.5 0 0 1-.5.5H1a.5.5 0 0 1-.5-.5V3A2.5 2.5 0 0 1 3 .5z" class="cls-10"/>
                    </g>
                    <path id="Pfad_1848" d="M0 0h195.315" class="cls-6" data-name="Pfad 1848" transform="translate(.343 18.961)"/>
                </g>
                <circle id="Ellipse_874" cx="3" cy="3" r="3" class="cls-7" data-name="Ellipse 874" transform="translate(552 271)"/>
                <circle id="Ellipse_875" cx="3" cy="3" r="3" class="cls-7" data-name="Ellipse 875" transform="translate(560 271)"/>
                <circle id="Ellipse_876" cx="3" cy="3" r="3" class="cls-7" data-name="Ellipse 876" transform="translate(731 271)"/>
                <rect id="Rechteck_1509" width="155" height="6" class="cls-7" data-name="Rechteck 1509" rx="3" transform="translate(571 271)"/>
            </g>
            <g id="Gruppe_3644" data-name="Gruppe 3644" transform="translate(176 131)">
                <g id="Gruppe_3622-2" data-name="Gruppe 3622" transform="translate(546 264)">
                    <g id="Rechteck_1499-2" class="cls-4" data-name="Rechteck 1499">
                        <rect width="196" height="122" class="cls-9" rx="3"/>
                        <rect width="195" height="121" x=".5" y=".5" class="cls-10" rx="2.5"/>
                    </g>
                    <g id="Rechteck_1503-2" class="cls-5" data-name="Rechteck 1503">
                        <path d="M3 0h190a3 3 0 0 1 3 3v16H0V3a3 3 0 0 1 3-3z" class="cls-9"/>
                        <path d="M3 .5h190a2.5 2.5 0 0 1 2.5 2.5v15a.5.5 0 0 1-.5.5H1a.5.5 0 0 1-.5-.5V3A2.5 2.5 0 0 1 3 .5z" class="cls-10"/>
                    </g>
                    <path id="Pfad_1848-2" d="M0 0h195.315" class="cls-6" data-name="Pfad 1848" transform="translate(.343 18.961)"/>
                </g>
                <circle id="Ellipse_874-2" cx="3" cy="3" r="3" class="cls-7" data-name="Ellipse 874" transform="translate(552 271)"/>
                <circle id="Ellipse_875-2" cx="3" cy="3" r="3" class="cls-7" data-name="Ellipse 875" transform="translate(560 271)"/>
                <circle id="Ellipse_876-2" cx="3" cy="3" r="3" class="cls-7" data-name="Ellipse 876" transform="translate(731 271)"/>
                <rect id="Rechteck_1509-2" width="155" height="6" class="cls-7" data-name="Rechteck 1509" rx="3" transform="translate(571 271)"/>
            </g>
            <g id="Gruppe_3646" data-name="Gruppe 3646" transform="translate(5)">
                <path id="Linie_644" d="M0 0h21" class="cls-8" data-name="Linie 644" transform="translate(675.5 456.5)"/>
                <path id="Pfad_1849" d="M-5114 21545.842l12.805 12.8-12.805 12.807" class="cls-8" data-name="Pfad 1849" transform="translate(5799 -21102)"/>
            </g>
        </g>
    </g>
</svg>
