<svg xmlns="http://www.w3.org/2000/svg" width="286" height="178" viewBox="0 0 286 178"><defs><style>.cls-1{fill:rgba(255,255,255,.19)}.cls-1,.cls-2,.cls-3{stroke:#dde6ec}.cls-2{fill:rgba(238,239,241,.22)}.cls-3,.cls-5,.cls-8{fill:none}.cls-4,.cls-6{fill:#fff}.cls-5{stroke:#ec5858}.cls-6{opacity:.2}.cls-7{stroke:none}</style></defs><g id="Gruppe_3642" transform="translate(-546 -264)"><g id="Gruppe_3622"><g id="Rechteck_1499" class="cls-1" transform="translate(546 264.063) translate(0 -.063)"><rect width="286" height="178" class="cls-7" rx="3"/><rect width="285" height="177" x=".5" y=".5" class="cls-8" rx="2.5"/></g><g id="Rechteck_1503" class="cls-2"><path d="M3 0h280a3 3 0 0 1 3 3v25h-286v-25a3 3 0 0 1 3-3z" class="cls-7" transform="translate(546 264.063) translate(0 -.063)"/><path d="M3 .5h280a2.5 2.5 0 0 1 2.5 2.5v24a.5.5 0 0 1-.5.5h-284a.5.5 0 0 1-.5-.5v-24a2.5 2.5 0 0 1 2.5-2.5z" class="cls-8" transform="translate(546 264.063) translate(0 -.063)"/></g><path id="Pfad_1848" d="M546.5 291.667h285" class="cls-3"/></g><g id="Gruppe_3641" transform="translate(4 16)"><circle id="Ellipse_873" cx="26" cy="26" r="26" class="cls-4" transform="translate(659 311)"/><g id="Gruppe_3640"><path id="Linie_642" d="M677 329l16 16" class="cls-5"/><path id="Linie_643" d="M693 329l-16 16" class="cls-5"/></g></g><circle id="Ellipse_874" cx="4.5" cy="4.5" r="4.5" class="cls-6" transform="translate(555 274)"/><circle id="Ellipse_875" cx="4.5" cy="4.5" r="4.5" class="cls-6" transform="translate(566 274)"/><circle id="Ellipse_876" cx="4.5" cy="4.5" r="4.5" class="cls-6" transform="translate(816 274)"/><rect id="Rechteck_1509" width="226" height="9" class="cls-6" rx="4.5" transform="translate(583 274)"/></g></svg>