<svg id="upgrade-plan" xmlns="http://www.w3.org/2000/svg" width="141.329" height="138.809" viewBox="0 0 141.329 138.809">
  <ellipse id="Ellipse_738" data-name="Ellipse 738" cx="69.405" cy="69.405" rx="69.405" ry="69.405" transform="translate(0 0)" fill="#657ee4"/>
  <path id="Path_1551" data-name="Path 1551" d="M984.99,108.587l46.178-46.178,46.641,46.178h-31.7V143.9h-29.427V108.819Z" transform="translate(-961.995 -33.748)" fill="#fff"/>
  <path id="Path_1561" data-name="Path 1561" d="M1087.414,85.933a2.215,2.215,0,0,1,.267,1.094c-.164-.862-1.293-1.275-1.362-2.085,0-.371,0-.353.267-.155S1087.087,85.614,1087.414,85.933Z" transform="translate(-946.353 -17.27)" opacity="0.1"/>
  <path id="Path_1562" data-name="Path 1562" d="M1083.49,88.986a1.724,1.724,0,0,1,.508.758,1.912,1.912,0,0,1,.1,1.327c-.164-.078-.215-.284-.267-.457a3.2,3.2,0,0,0-.353-.784c-.129-.215-.75-.715-.741-.948S1083.326,88.865,1083.49,88.986Z" transform="translate(-945.858 -17.841)" opacity="0.1"/>
</svg>
