<svg width="384" height="216" viewBox="0 0 384 216" fill="none" xmlns="http://www.w3.org/2000/svg">
<g clip-path="url(#clip0_13244_209289)">
<rect width="384" height="216" rx="8" fill="#F5F4F2"/>
<g clip-path="url(#clip1_13244_209289)">
<rect width="658.836" height="499.51" transform="translate(-134)" fill="#F7F5FF"/>
<mask id="mask0_13244_209289" style="mask-type:alpha" maskUnits="userSpaceOnUse" x="-134" y="0" width="659" height="500">
<rect x="-134" width="658.836" height="499.51" fill="#3300FF"/>
</mask>
<g mask="url(#mask0_13244_209289)">
<g filter="url(#filter0_ii_13244_209289)">
<path d="M1182.24 274.233L310.251 -597.758L149.498 -437.005L423.038 -163.465C512.609 -73.8941 512.609 71.3293 423.038 160.901C333.467 250.472 188.243 250.472 98.6722 160.901L17.9476 80.1759C-24.7708 42.8303 -89.7332 44.514 -130.446 85.2268L-366.694 321.475L384.153 1072.32L1182.24 274.233Z" fill="url(#paint0_radial_13244_209289)"/>
<path d="M-451.979 236.189L-215.732 -0.059021C-126.161 -89.6301 19.0627 -89.6301 108.634 -0.059021L108.459 0.115723L183.958 75.6146C226.427 118.084 295.283 118.084 337.752 75.6147C380.221 33.1456 380.221 -35.7103 337.752 -78.1794L64.2119 -351.72L-487.838 200.331L-451.979 236.189Z" fill="url(#paint1_radial_13244_209289)"/>
</g>
<rect x="-134" width="658.836" height="499.51" fill="url(#paint2_linear_13244_209289)"/>
</g>
</g>
<g filter="url(#filter1_d_13244_209289)">
<path d="M140 79.7283C140 66.0712 151.071 55 164.728 55H220.272C233.929 55 245 66.0712 245 79.7283V135.272C245 148.929 233.929 160 220.272 160H164.728C151.071 160 140 148.929 140 135.272V79.7283Z" fill="white"/>
<path d="M159.402 86.9565C159.402 83.1746 162.468 80.1087 166.25 80.1087H218.75C222.532 80.1087 225.598 83.1746 225.598 86.9565V128.043C225.598 131.825 222.532 134.891 218.75 134.891H166.25C162.468 134.891 159.402 131.825 159.402 128.043V86.9565Z" fill="url(#paint3_linear_13244_209289)"/>
<path d="M159.402 86.9565C159.402 83.1746 162.468 80.1087 166.25 80.1087H218.75C222.532 80.1087 225.598 83.1746 225.598 86.9565V128.043C225.598 131.825 222.532 134.891 218.75 134.891H166.25C162.468 134.891 159.402 131.825 159.402 128.043V86.9565Z" fill="url(#paint4_radial_13244_209289)"/>
<path d="M189.457 131.705C189.457 130.077 190.036 128.503 191.092 127.264L203.152 113.111L203.533 134.891H189.457V131.705Z" fill="#BFD8FF"/>
<path fill-rule="evenodd" clip-rule="evenodd" d="M211.522 80.1087H166.25C162.468 80.1087 159.402 83.1746 159.402 86.9565V88.288H206.196C209.137 88.288 211.522 90.6726 211.522 93.6141V120.815H225.598V86.9565C225.598 83.1746 222.532 80.1087 218.75 80.1087H212.283H211.522Z" fill="url(#paint5_linear_13244_209289)"/>
<path d="M201.25 118.152C201.25 113.95 204.657 110.543 208.859 110.543H225.598V134.891H201.25V118.152Z" fill="white"/>
<path d="M207.907 126.198H210.315C210.415 126.617 210.658 126.988 211.003 127.246C211.347 127.505 211.771 127.634 212.201 127.613C213.289 127.613 214.006 127.012 214.006 126.135C214.006 125.257 213.258 124.767 211.777 124.767H210.818V122.786H211.648C213.079 122.786 213.664 122.259 213.664 121.469C213.664 120.679 213.029 120.136 212.151 120.136C211.758 120.113 211.371 120.244 211.073 120.502C210.776 120.76 210.59 121.124 210.557 121.516H208.25C208.331 120.136 209.419 118.152 212.151 118.152C214.346 118.152 215.858 119.403 215.858 121.158C215.861 121.722 215.683 122.272 215.352 122.729C215.02 123.185 214.551 123.524 214.014 123.695V123.727C214.641 123.841 215.205 124.176 215.605 124.672C216.005 125.168 216.214 125.791 216.193 126.427C216.193 128.329 214.451 129.589 212.194 129.589C209.793 129.596 208.086 128.232 207.907 126.198Z" fill="#6D4AFF"/>
<path d="M220.398 118.331H222.153V129.417H219.893V120.916L217.714 122.394V120.152L220.398 118.331Z" fill="#6D4AFF"/>
</g>
</g>
<defs>
<filter id="filter0_ii_13244_209289" x="-507.152" y="-597.758" width="1689.39" height="1682.09" filterUnits="userSpaceOnUse" color-interpolation-filters="sRGB">
<feFlood flood-opacity="0" result="BackgroundImageFix"/>
<feBlend mode="normal" in="SourceGraphic" in2="BackgroundImageFix" result="shape"/>
<feColorMatrix in="SourceAlpha" type="matrix" values="0 0 0 0 0 0 0 0 0 0 0 0 0 0 0 0 0 0 127 0" result="hardAlpha"/>
<feOffset dx="-35.1001" dy="12.0114"/>
<feGaussianBlur stdDeviation="9.65727"/>
<feComposite in2="hardAlpha" operator="arithmetic" k2="-1" k3="1"/>
<feColorMatrix type="matrix" values="0 0 0 0 0.427451 0 0 0 0 0.290196 0 0 0 0 1 0 0 0 0.6 0"/>
<feBlend mode="normal" in2="shape" result="effect1_innerShadow_13244_209289"/>
<feColorMatrix in="SourceAlpha" type="matrix" values="0 0 0 0 0 0 0 0 0 0 0 0 0 0 0 0 0 0 127 0" result="hardAlpha"/>
<feOffset dx="-17.2013" dy="15.2169"/>
<feComposite in2="hardAlpha" operator="arithmetic" k2="-1" k3="1"/>
<feColorMatrix type="matrix" values="0 0 0 0 1 0 0 0 0 1 0 0 0 0 1 0 0 0 0.5 0"/>
<feBlend mode="normal" in2="effect1_innerShadow_13244_209289" result="effect2_innerShadow_13244_209289"/>
</filter>
<filter id="filter1_d_13244_209289" x="125" y="45.2" width="135" height="135" filterUnits="userSpaceOnUse" color-interpolation-filters="sRGB">
<feFlood flood-opacity="0" result="BackgroundImageFix"/>
<feColorMatrix in="SourceAlpha" type="matrix" values="0 0 0 0 0 0 0 0 0 0 0 0 0 0 0 0 0 0 127 0" result="hardAlpha"/>
<feOffset dy="5.2"/>
<feGaussianBlur stdDeviation="7.5"/>
<feColorMatrix type="matrix" values="0 0 0 0 0.615686 0 0 0 0 0.529412 0 0 0 0 1 0 0 0 0.18 0"/>
<feBlend mode="normal" in2="BackgroundImageFix" result="effect1_dropShadow_13244_209289"/>
<feBlend mode="normal" in="SourceGraphic" in2="effect1_dropShadow_13244_209289" result="shape"/>
</filter>
<radialGradient id="paint0_radial_13244_209289" cx="0" cy="0" r="1" gradientUnits="userSpaceOnUse" gradientTransform="translate(629.706 0.845715) rotate(135) scale(886.986 788.648)">
<stop stop-color="#D0CAFF"/>
<stop offset="0.171875" stop-color="#D0CAFF"/>
<stop offset="1" stop-color="white" stop-opacity="0.3"/>
</radialGradient>
<radialGradient id="paint1_radial_13244_209289" cx="0" cy="0" r="1" gradientUnits="userSpaceOnUse" gradientTransform="translate(629.706 0.845715) rotate(135) scale(886.986 788.648)">
<stop stop-color="#D0CAFF"/>
<stop offset="0.171875" stop-color="#D0CAFF"/>
<stop offset="1" stop-color="white" stop-opacity="0.3"/>
</radialGradient>
<linearGradient id="paint2_linear_13244_209289" x1="195.418" y1="249.755" x2="195.418" y2="499.51" gradientUnits="userSpaceOnUse">
<stop stop-color="#F7F5FF" stop-opacity="0"/>
<stop offset="1" stop-color="#F7F5FF"/>
</linearGradient>
<linearGradient id="paint3_linear_13244_209289" x1="192.5" y1="58.2217" x2="197.009" y2="122.274" gradientUnits="userSpaceOnUse">
<stop offset="0.988738" stop-color="#6D4AFF"/>
</linearGradient>
<radialGradient id="paint4_radial_13244_209289" cx="0" cy="0" r="1" gradientUnits="userSpaceOnUse" gradientTransform="translate(204.484 52.1467) rotate(110.421) scale(94.5857 126.042)">
<stop offset="0.556057" stop-color="#54B7FF" stop-opacity="0"/>
<stop offset="0.994421" stop-color="#54B7FF"/>
</radialGradient>
<linearGradient id="paint5_linear_13244_209289" x1="225.598" y1="109.878" x2="184.211" y2="52.8001" gradientUnits="userSpaceOnUse">
<stop stop-color="#C8E8FF"/>
<stop offset="0.307532" stop-color="#BDAEFF"/>
<stop offset="1" stop-color="#6D4AFF"/>
</linearGradient>
<clipPath id="clip0_13244_209289">
<rect width="384" height="216" rx="8" fill="white"/>
</clipPath>
<clipPath id="clip1_13244_209289">
<rect width="658.836" height="499.51" fill="white" transform="translate(-134)"/>
</clipPath>
</defs>
</svg>
