<svg width="25" height="26" viewBox="0 0 25 26" fill="none" xmlns="http://www.w3.org/2000/svg">
    <path
        d="M0 1.88866C0 1.45631 0.500121 1.21594 0.837733 1.48603L5.07052 4.87226C5.32161 5.07313 5.67839 5.07313 5.92948 4.87226L10.1623 1.48603C10.4999 1.21594 11 1.45631 11 1.88866V8.74981C11 9.5092 10.3844 10.1248 9.625 10.1248H1.375C0.615609 10.1248 0 9.5092 0 8.74981V1.88866Z"
        fill="url(#paint0_radial_2133_16377)"
    />
    <path
        d="M0 2.91505L3.47695 5.78755C3.85425 6.09926 4.39867 6.10285 4.78005 5.79614L5.75781 5.00981L6.16602 4.68669V4.68303L5.92948 4.87226C5.67839 5.07313 5.32161 5.07313 5.07052 4.87226L0.837733 1.48603C0.500121 1.21594 0 1.45631 0 1.88866V2.91505Z"
        fill="url(#paint1_linear_2133_16377)"
    />
    <path
        d="M11 8.74981V1.88866C11 1.45631 10.4999 1.21594 10.1623 1.48603L8.9375 2.46584V10.1248H9.625C10.3844 10.1248 11 9.5092 11 8.74981Z"
        fill="url(#paint2_linear_2133_16377)"
    />
    <g clip-path="url(#clip0_2133_16377)">
        <path
            fill-rule="evenodd"
            clip-rule="evenodd"
            d="M0.171416 16.8965C-0.333957 16.015 0.379563 14.9338 1.38874 15.0519L9.94919 16.0531C10.8624 16.1599 11.3443 17.1899 10.8412 17.9594L6.5246 24.5612C6.04704 25.2916 4.96651 25.26 4.53247 24.503L0.171416 16.8965Z"
            fill="url(#paint3_linear_2133_16377)"
        />
        <path
            fill-rule="evenodd"
            clip-rule="evenodd"
            d="M0.171416 16.8965C-0.333957 16.015 0.379563 14.9338 1.38874 15.0519L9.94919 16.0531C10.8624 16.1599 11.3443 17.1899 10.8412 17.9594L6.5246 24.5612C6.04704 25.2916 4.96651 25.26 4.53247 24.503L0.171416 16.8965Z"
            fill="url(#paint4_linear_2133_16377)"
        />
        <path
            d="M0.130195 16.8187L7.16879 17.7418C7.87676 17.8346 8.2407 18.639 7.84313 19.2321L4.42985 24.324L4.53247 24.503C4.96651 25.26 6.04704 25.2916 6.5246 24.5612L10.8412 17.9594C11.3443 17.1899 10.8624 16.1599 9.94919 16.0531L1.38874 15.0519C0.409066 14.9373 -0.291985 15.9528 0.130195 16.8187Z"
            fill="url(#paint5_linear_2133_16377)"
        />
    </g>
    <g clip-path="url(#clip1_2133_16377)">
        <path
            d="M17.3081 1.88961C18.0754 1.12226 18.4591 0.738587 18.9015 0.594836C19.2907 0.468388 19.7099 0.468388 20.099 0.594836C20.5415 0.738588 20.9251 1.12226 21.6925 1.88961L23.6107 3.80779C24.378 4.57514 24.7617 4.95881 24.9054 5.40123C25.0319 5.7904 25.0319 6.2096 24.9054 6.59877C24.7617 7.04119 24.378 7.42486 23.6107 8.19221L21.6925 10.1104C20.9251 10.8777 20.5415 11.2614 20.099 11.4052C19.7099 11.5316 19.2907 11.5316 18.9015 11.4052C18.4591 11.2614 18.0754 10.8777 17.3081 10.1104L16.9474 9.70608C16.7292 9.46141 16.6201 9.33908 16.5423 9.19994C16.4733 9.07654 16.4226 8.94373 16.392 8.80571C16.3574 8.6501 16.3574 8.48617 16.3574 8.15831L16.3574 3.84169C16.3574 3.51383 16.3574 3.34991 16.392 3.19429C16.4226 3.05627 16.4733 2.92346 16.5423 2.80005C16.6201 2.66092 16.7292 2.53859 16.9474 2.29392L17.3081 1.88961Z"
            fill="url(#paint6_radial_2133_16377)"
        />
        <path
            d="M17.3081 1.88961C18.0754 1.12226 18.4591 0.738587 18.9015 0.594836C19.2907 0.468388 19.7099 0.468388 20.099 0.594836C20.5415 0.738588 20.9251 1.12226 21.6925 1.88961L23.6107 3.80779C24.378 4.57514 24.7617 4.95881 24.9054 5.40123C25.0319 5.7904 25.0319 6.2096 24.9054 6.59877C24.7617 7.04119 24.378 7.42486 23.6107 8.19221L21.6925 10.1104C20.9251 10.8777 20.5415 11.2614 20.099 11.4052C19.7099 11.5316 19.2907 11.5316 18.9015 11.4052C18.4591 11.2614 18.0754 10.8777 17.3081 10.1104L16.9474 9.70608C16.7292 9.46141 16.6201 9.33908 16.5423 9.19994C16.4733 9.07654 16.4226 8.94373 16.392 8.80571C16.3574 8.6501 16.3574 8.48617 16.3574 8.15831L16.3574 3.84169C16.3574 3.51383 16.3574 3.34991 16.392 3.19429C16.4226 3.05627 16.4733 2.92346 16.5423 2.80005C16.6201 2.66092 16.7292 2.53859 16.9474 2.29392L17.3081 1.88961Z"
            fill="url(#paint7_linear_2133_16377)"
        />
        <path
            d="M17.1708 2.02635C17.5545 1.64267 17.7463 1.45084 17.9675 1.37896C18.1621 1.31574 18.3717 1.31574 18.5663 1.37896C18.7875 1.45084 18.9793 1.64267 19.363 2.02635L22.2403 4.90362C22.6239 5.28729 22.8158 5.47913 22.8876 5.70034C22.9509 5.89492 22.9509 6.10453 22.8876 6.29911C22.8158 6.52032 22.6239 6.71216 22.2403 7.09583L19.363 9.97311C18.9793 10.3568 18.7875 10.5486 18.5663 10.6205C18.3717 10.6837 18.1621 10.6837 17.9675 10.6205C17.7463 10.5486 17.5545 10.3568 17.1708 9.97311L15.3896 8.19194C14.6223 7.42459 14.2386 7.04092 14.0948 6.5985C13.9684 6.20933 13.9684 5.79012 14.0948 5.40096C14.2386 4.95853 14.6223 4.57486 15.3896 3.80752L17.1708 2.02635Z"
            fill="url(#paint8_radial_2133_16377)"
        />
    </g>
    <path
        d="M14 16.5625C14 15.8031 14.6156 15.1875 15.375 15.1875H16.7742C17.0434 15.1875 17.308 15.2578 17.5417 15.3913L18.19 15.7618C18.3199 15.836 18.4668 15.875 18.6164 15.875H23.625C24.3844 15.875 25 16.4906 25 17.25V22.75C25 23.5094 24.3844 24.125 23.625 24.125H15.375C14.6156 24.125 14 23.5094 14 22.75V16.5625Z"
        fill="#C4C4C4"
    />
    <path
        d="M14 16.5625C14 15.8031 14.6156 15.1875 15.375 15.1875H16.7742C17.0434 15.1875 17.308 15.2578 17.5417 15.3913L18.19 15.7618C18.3199 15.836 18.4668 15.875 18.6164 15.875H23.625C24.3844 15.875 25 16.4906 25 17.25V22.75C25 23.5094 24.3844 24.125 23.625 24.125H15.375C14.6156 24.125 14 23.5094 14 22.75V16.5625Z"
        fill="url(#paint9_linear_2133_16377)"
    />
    <path
        d="M14 16.5625C14 15.8031 14.6156 15.1875 15.375 15.1875H16.7742C17.0434 15.1875 17.308 15.2578 17.5417 15.3913L18.19 15.7618C18.3199 15.836 18.4668 15.875 18.6164 15.875H23.625C24.3844 15.875 25 16.4906 25 17.25V22.75C25 23.5094 24.3844 24.125 23.625 24.125H15.375C14.6156 24.125 14 23.5094 14 22.75V16.5625Z"
        fill="url(#paint10_radial_2133_16377)"
    />
    <path
        fill-rule="evenodd"
        clip-rule="evenodd"
        d="M15.375 15.1875C14.6156 15.1875 14 15.8031 14 16.5625H15.9899C16.3293 16.5625 16.661 16.6629 16.9433 16.8512L17.2818 17.0768C17.4512 17.1897 17.6502 17.25 17.8538 17.25H21.5625C22.3219 17.25 22.9375 17.8656 22.9375 18.625V24.125H23.625C24.3844 24.125 25 23.5094 25 22.75V17.25C25 16.4906 24.3844 15.875 23.625 15.875H18.6164C18.4668 15.875 18.3199 15.836 18.19 15.7618L17.5417 15.3913C17.308 15.2578 17.0434 15.1875 16.7742 15.1875H15.375Z"
        fill="url(#paint11_linear_2133_16377)"
    />
    <defs>
        <radialGradient
            id="paint0_radial_2133_16377"
            cx="0"
            cy="0"
            r="1"
            gradientUnits="userSpaceOnUse"
            gradientTransform="translate(10.9521 2.44349) scale(12.8279 12.7266)"
        >
            <stop offset="0.5561" stop-color="#6D4AFF" />
            <stop offset="0.9944" stop-color="#AA8EFF" />
        </radialGradient>
        <linearGradient
            id="paint1_linear_2133_16377"
            x1="3.64345"
            y1="6.06696"
            x2="1.40812"
            y2="-3.4263"
            gradientUnits="userSpaceOnUse"
        >
            <stop stop-color="#E3D9FF" />
            <stop offset="1" stop-color="#7341FF" />
        </linearGradient>
        <linearGradient
            id="paint2_linear_2133_16377"
            x1="14.1127"
            y1="15.7993"
            x2="4.98982"
            y2="-1.51372"
            gradientUnits="userSpaceOnUse"
        >
            <stop offset="0.271" stop-color="#E3D9FF" />
            <stop offset="1" stop-color="#7341FF" />
        </linearGradient>
        <linearGradient
            id="paint3_linear_2133_16377"
            x1="6.07036"
            y1="8.95343"
            x2="6.44386"
            y2="21.6881"
            gradientUnits="userSpaceOnUse"
        >
            <stop offset="0.988738" stop-color="#6D4AFF" />
        </linearGradient>
        <linearGradient
            id="paint4_linear_2133_16377"
            x1="6.14378"
            y1="10.7164"
            x2="3.03914"
            y2="24.1214"
            gradientUnits="userSpaceOnUse"
        >
            <stop offset="0.47989" stop-color="#24ECC6" stop-opacity="0" />
            <stop offset="0.994421" stop-color="#24ECC6" />
        </linearGradient>
        <linearGradient
            id="paint5_linear_2133_16377"
            x1="7.17623"
            y1="25.5858"
            x2="0.284641"
            y2="13.7671"
            gradientUnits="userSpaceOnUse"
        >
            <stop offset="0.0660125" stop-color="#ABFFEF" />
            <stop offset="0.44988" stop-color="#CAC9FF" />
            <stop offset="1" stop-color="#6D4AFF" />
        </linearGradient>
        <radialGradient
            id="paint6_radial_2133_16377"
            cx="0"
            cy="0"
            r="1"
            gradientUnits="userSpaceOnUse"
            gradientTransform="translate(17.3201 11.7144) rotate(-58.142) scale(9.18231 14.3593)"
        >
            <stop stop-color="#FFD580" />
            <stop offset="0.09375" stop-color="#F6C592" />
            <stop offset="0.205" stop-color="#EBB6A2" />
            <stop offset="0.324466" stop-color="#DFA5AF" />
            <stop offset="0.42875" stop-color="#D397BE" />
            <stop offset="0.53375" stop-color="#C486CB" />
            <stop offset="0.64875" stop-color="#B578D9" />
            <stop offset="0.77125" stop-color="#A166E5" />
            <stop offset="0.89125" stop-color="#8B57F2" />
            <stop offset="1" stop-color="#704CFF" />
        </radialGradient>
        <linearGradient
            id="paint7_linear_2133_16377"
            x1="16.9412"
            y1="-1.68417"
            x2="19.0804"
            y2="11.3737"
            gradientUnits="userSpaceOnUse"
        >
            <stop stop-color="#6D4AFF" />
            <stop offset="0.392009" stop-color="#B39FFB" stop-opacity="0.978022" />
            <stop offset="1" stop-color="#FFE8DB" stop-opacity="0.8" />
        </linearGradient>
        <radialGradient
            id="paint8_radial_2133_16377"
            cx="0"
            cy="0"
            r="1"
            gradientUnits="userSpaceOnUse"
            gradientTransform="translate(16.5132 10.5961) rotate(-58.142) scale(7.38577 11.5498)"
        >
            <stop stop-color="#FFD580" />
            <stop offset="0.09375" stop-color="#F6C592" />
            <stop offset="0.205" stop-color="#EBB6A2" />
            <stop offset="0.324466" stop-color="#DFA5AF" />
            <stop offset="0.42875" stop-color="#D397BE" />
            <stop offset="0.53375" stop-color="#C486CB" />
            <stop offset="0.64875" stop-color="#B578D9" />
            <stop offset="0.77125" stop-color="#A166E5" />
            <stop offset="0.89125" stop-color="#8B57F2" />
            <stop offset="1" stop-color="#704CFF" />
        </radialGradient>
        <linearGradient
            id="paint9_linear_2133_16377"
            x1="19.5079"
            y1="10.6638"
            x2="20.3298"
            y2="22.4444"
            gradientUnits="userSpaceOnUse"
        >
            <stop offset="0.988738" stop-color="#6D4AFF" />
        </linearGradient>
        <radialGradient
            id="paint10_radial_2133_16377"
            cx="0"
            cy="0"
            r="1"
            gradientUnits="userSpaceOnUse"
            gradientTransform="translate(23.0272 11.2697) rotate(116.495) scale(15.6295 24.5895)"
        >
            <stop offset="0.556057" stop-color="#FF62C0" stop-opacity="0" />
            <stop offset="0.994421" stop-color="#FF62C0" />
        </radialGradient>
        <linearGradient
            id="paint11_linear_2133_16377"
            x1="10.3017"
            y1="13.6979"
            x2="23.7755"
            y2="28.7785"
            gradientUnits="userSpaceOnUse"
        >
            <stop stop-color="#6D4AFF" />
            <stop offset="0.35934" stop-color="#AE8CFF" />
            <stop offset="1" stop-color="#F8CCFF" />
        </linearGradient>
        <clipPath id="clip0_2133_16377">
            <rect width="11" height="11" fill="white" transform="translate(0 14.5)" />
        </clipPath>
        <clipPath id="clip1_2133_16377">
            <rect width="11" height="11" fill="white" transform="translate(14 0.5)" />
        </clipPath>
    </defs>
</svg>
