<svg xmlns="http://www.w3.org/2000/svg" id="Component_32_1" width="64.096" height="64.096" data-name="Component 32 – 1" viewBox="0 0 64.096 64.096">
    <defs>
        <style>
            .cls-1{fill:#3c414e}.cls-2{fill:#fff}
        </style>
    </defs>
    <ellipse id="Ellipse_777" cx="32.048" cy="32.048" class="cls-1" data-name="Ellipse 777" rx="32.048" ry="32.048"/>
    <g id="Group_3303" data-name="Group 3303" transform="translate(12.757 10.5)">
        <path id="Path_1578" d="M10.371 17.232a4.849 4.849 0 0 1 9.431-1.6l5.913-5.913-2.829-2.825a.854.854 0 0 0-1.2 0L20.31 8.272a10.053 10.053 0 0 0-2.322-.943V5.371a.859.859 0 0 0-.871-.871h-3.771a.838.838 0 0 0-.871.871v1.958a10.053 10.053 0 0 0-2.322.943L8.775 6.894a.854.854 0 0 0-1.2 0L4.93 9.542a.854.854 0 0 0 0 1.2l1.378 1.378a10.053 10.053 0 0 0-.943 2.322h-2a.859.859 0 0 0-.871.871v3.736a.838.838 0 0 0 .871.871h1.964a10.053 10.053 0 0 0 .943 2.322l-1.378 1.374a.822.822 0 0 0 0 1.2l2.829 2.829 5.913-5.913a4.66 4.66 0 0 1-3.265-4.5z" class="cls-2" data-name="Path 1578"/>
        <path id="Rectangle_1384" d="M0 0h18.282v7.871H0z" class="cls-2" data-name="Rectangle 1384" transform="rotate(-45 39.206 -2.826)"/>
        <path id="Path_1579" d="M82.289 21.2l-3.881-3.918a1.161 1.161 0 0 0-1.669 0L74.2 19.818l5.586 5.582 2.539-2.539a1.193 1.193 0 0 0-.036-1.661z" class="cls-2" data-name="Path 1579" transform="translate(-45.692 -7.918)"/>
        <path id="Path_1580" d="M20.44 73.451a1.513 1.513 0 0 0-.326.58l-1.161 5.042a1.2 1.2 0 0 0 1.415 1.415l5.042-1.161a1.05 1.05 0 0 0 .58-.327l1.451-1.451L21.891 72z" class="cls-2" data-name="Path 1580" transform="translate(-10.467 -43.015)"/>
    </g>
</svg>
