<svg xmlns="http://www.w3.org/2000/svg" width="64.096" height="64.096" viewBox="0 0 64.096 64.096">
    <defs>
        <style>
            .cls-1{fill:none}.cls-2{clip-path:url(#clip-path)}.cls-3{fill:#3c414e}.cls-4{fill:#fff}
        </style>
        <clipPath id="clip-path">
            <path d="M0 0h64.096v64.096H0z" class="cls-1"/>
        </clipPath>
    </defs>
    <g id="Component_33_1" class="cls-2" data-name="Component 33 – 1">
        <ellipse id="Ellipse_774" cx="32.048" cy="32.048" class="cls-3" data-name="Ellipse 774" rx="32.048" ry="32.048"/>
        <path id="Path_1569" d="M39.111 8H27.006a3.507 3.507 0 0 0-2.5 1.035L9.035 24.507a3.532 3.532 0 0 0 0 5l9.726 9.726a3.536 3.536 0 0 0 5 0l15.467-15.476a3.509 3.509 0 0 0 1.036-2.5V9.152A1.152 1.152 0 0 0 39.111 8zM24.946 33.012a1.152 1.152 0 0 1-1.629 0l-8.066-8.066a1.152 1.152 0 1 1 1.629-1.629l8.066 8.066a1.152 1.152 0 0 1 0 1.629zm4.61-4.612a1.152 1.152 0 0 1-1.629 0l-8.067-8.063a1.152 1.152 0 1 1 1.629-1.629l8.066 8.066a1.152 1.152 0 0 1 .001 1.626zm3.794-10.03a3.457 3.457 0 1 1 3.457-3.457 3.461 3.461 0 0 1-3.457 3.457z" class="cls-4" data-name="Path 1569" transform="translate(8 8)"/>
    </g>
</svg>
